<?xml version="1.0" encoding="utf-8" standalone="no"?>
<!DOCTYPE svg PUBLIC "-//W3C//DTD SVG 1.1//EN"
  "http://www.w3.org/Graphics/SVG/1.1/DTD/svg11.dtd">
<svg height="345.6pt" version="1.1" viewBox="0 0 460.8 345.6" width="460.8pt" xmlns="http://www.w3.org/2000/svg" xmlns:xlink="http://www.w3.org/1999/xlink">
 <metadata>
  <rdf:RDF xmlns:cc="http://creativecommons.org/ns#" xmlns:dc="http://purl.org/dc/elements/1.1/" xmlns:rdf="http://www.w3.org/1999/02/22-rdf-syntax-ns#">
   <cc:Work>
    <dc:type rdf:resource="http://purl.org/dc/dcmitype/StillImage"/>
    <dc:date>2022-05-22T15:09:36.576610</dc:date>
    <dc:format>image/svg+xml</dc:format>
    <dc:creator>
     <cc:Agent>
      <dc:title>Matplotlib v3.4.3, https://matplotlib.org/</dc:title>
     </cc:Agent>
    </dc:creator>
   </cc:Work>
  </rdf:RDF>
 </metadata>
 <defs>
  <style type="text/css">*{stroke-linecap:butt;stroke-linejoin:round;}</style>
 </defs>
 <g id="figure_1">
  <g id="patch_1">
   <path d="M 0 345.6 
L 460.8 345.6 
L 460.8 0 
L 0 0 
z
" style="fill:#ffffff;"/>
  </g>
  <g id="axes_1">
   <g id="patch_2">
    <path d="M 34.16 291.28 
L 453.192 291.28 
L 453.192 3 
L 34.16 3 
z
" style="fill:#ffffff;"/>
   </g>
   <g id="matplotlib.axis_1">
    <g id="xtick_1">
     <g id="line2d_1">
      <path clip-path="url(#p86ee5f0c0f)" d="M 172.357914 291.28 
L 172.357914 3 
" style="fill:none;stroke:#b0b0b0;stroke-linecap:square;stroke-width:0.8;"/>
     </g>
     <g id="line2d_2">
      <defs>
       <path d="M 0 0 
L 0 3.5 
" id="m8a1da6efb4" style="stroke:#000000;stroke-width:0.8;"/>
      </defs>
      <g>
       <use style="stroke:#000000;stroke-width:0.8;" x="172.357914" xlink:href="#m8a1da6efb4" y="291.28"/>
      </g>
     </g>
     <g id="text_1">
      <!-- -1 -->
      <g transform="translate(162.387602 313.476875)scale(0.2 -0.2)">
       <defs>
        <path d="M 313 2009 
L 1997 2009 
L 1997 1497 
L 313 1497 
L 313 2009 
z
" id="DejaVuSans-2d" transform="scale(0.015625)"/>
        <path d="M 794 531 
L 1825 531 
L 1825 4091 
L 703 3866 
L 703 4441 
L 1819 4666 
L 2450 4666 
L 2450 531 
L 3481 531 
L 3481 0 
L 794 0 
L 794 531 
z
" id="DejaVuSans-31" transform="scale(0.015625)"/>
       </defs>
       <use xlink:href="#DejaVuSans-2d"/>
       <use x="36.083984" xlink:href="#DejaVuSans-31"/>
      </g>
     </g>
    </g>
    <g id="xtick_2">
     <g id="line2d_3">
      <path clip-path="url(#p86ee5f0c0f)" d="M 314.994086 291.28 
L 314.994086 3 
" style="fill:none;stroke:#b0b0b0;stroke-linecap:square;stroke-width:0.8;"/>
     </g>
     <g id="line2d_4">
      <g>
       <use style="stroke:#000000;stroke-width:0.8;" x="314.994086" xlink:href="#m8a1da6efb4" y="291.28"/>
      </g>
     </g>
     <g id="text_2">
      <!-- 1 -->
      <g transform="translate(308.631586 313.476875)scale(0.2 -0.2)">
       <use xlink:href="#DejaVuSans-31"/>
      </g>
     </g>
    </g>
    <g id="xtick_3">
     <g id="line2d_5">
      <defs>
       <path d="M 0 0 
L 0 2 
" id="mc5ba4197da" style="stroke:#000000;stroke-width:0.6;"/>
      </defs>
      <g>
       <use style="stroke:#000000;stroke-width:0.6;" x="51.190625" xlink:href="#mc5ba4197da" y="291.28"/>
      </g>
     </g>
    </g>
    <g id="xtick_4">
     <g id="line2d_6">
      <g>
       <use style="stroke:#000000;stroke-width:0.6;" x="63.749117" xlink:href="#mc5ba4197da" y="291.28"/>
      </g>
     </g>
    </g>
    <g id="xtick_5">
     <g id="line2d_7">
      <g>
       <use style="stroke:#000000;stroke-width:0.6;" x="72.659508" xlink:href="#mc5ba4197da" y="291.28"/>
      </g>
     </g>
    </g>
    <g id="xtick_6">
     <g id="line2d_8">
      <g>
       <use style="stroke:#000000;stroke-width:0.6;" x="79.570945" xlink:href="#mc5ba4197da" y="291.28"/>
      </g>
     </g>
    </g>
    <g id="xtick_7">
     <g id="line2d_9">
      <g>
       <use style="stroke:#000000;stroke-width:0.6;" x="85.218" xlink:href="#mc5ba4197da" y="291.28"/>
      </g>
     </g>
    </g>
    <g id="xtick_8">
     <g id="line2d_10">
      <g>
       <use style="stroke:#000000;stroke-width:0.6;" x="89.992517" xlink:href="#mc5ba4197da" y="291.28"/>
      </g>
     </g>
    </g>
    <g id="xtick_9">
     <g id="line2d_11">
      <g>
       <use style="stroke:#000000;stroke-width:0.6;" x="94.128392" xlink:href="#mc5ba4197da" y="291.28"/>
      </g>
     </g>
    </g>
    <g id="xtick_10">
     <g id="line2d_12">
      <g>
       <use style="stroke:#000000;stroke-width:0.6;" x="97.776492" xlink:href="#mc5ba4197da" y="291.28"/>
      </g>
     </g>
    </g>
    <g id="xtick_11">
     <g id="line2d_13">
      <g>
       <use style="stroke:#000000;stroke-width:0.6;" x="122.508711" xlink:href="#mc5ba4197da" y="291.28"/>
      </g>
     </g>
    </g>
    <g id="xtick_12">
     <g id="line2d_14">
      <g>
       <use style="stroke:#000000;stroke-width:0.6;" x="135.067203" xlink:href="#mc5ba4197da" y="291.28"/>
      </g>
     </g>
    </g>
    <g id="xtick_13">
     <g id="line2d_15">
      <g>
       <use style="stroke:#000000;stroke-width:0.6;" x="143.977594" xlink:href="#mc5ba4197da" y="291.28"/>
      </g>
     </g>
    </g>
    <g id="xtick_14">
     <g id="line2d_16">
      <g>
       <use style="stroke:#000000;stroke-width:0.6;" x="150.889031" xlink:href="#mc5ba4197da" y="291.28"/>
      </g>
     </g>
    </g>
    <g id="xtick_15">
     <g id="line2d_17">
      <g>
       <use style="stroke:#000000;stroke-width:0.6;" x="156.536086" xlink:href="#mc5ba4197da" y="291.28"/>
      </g>
     </g>
    </g>
    <g id="xtick_16">
     <g id="line2d_18">
      <g>
       <use style="stroke:#000000;stroke-width:0.6;" x="161.310603" xlink:href="#mc5ba4197da" y="291.28"/>
      </g>
     </g>
    </g>
    <g id="xtick_17">
     <g id="line2d_19">
      <g>
       <use style="stroke:#000000;stroke-width:0.6;" x="165.446477" xlink:href="#mc5ba4197da" y="291.28"/>
      </g>
     </g>
    </g>
    <g id="xtick_18">
     <g id="line2d_20">
      <g>
       <use style="stroke:#000000;stroke-width:0.6;" x="169.094577" xlink:href="#mc5ba4197da" y="291.28"/>
      </g>
     </g>
    </g>
    <g id="xtick_19">
     <g id="line2d_21">
      <g>
       <use style="stroke:#000000;stroke-width:0.6;" x="193.826797" xlink:href="#mc5ba4197da" y="291.28"/>
      </g>
     </g>
    </g>
    <g id="xtick_20">
     <g id="line2d_22">
      <g>
       <use style="stroke:#000000;stroke-width:0.6;" x="206.385289" xlink:href="#mc5ba4197da" y="291.28"/>
      </g>
     </g>
    </g>
    <g id="xtick_21">
     <g id="line2d_23">
      <g>
       <use style="stroke:#000000;stroke-width:0.6;" x="215.29568" xlink:href="#mc5ba4197da" y="291.28"/>
      </g>
     </g>
    </g>
    <g id="xtick_22">
     <g id="line2d_24">
      <g>
       <use style="stroke:#000000;stroke-width:0.6;" x="222.207117" xlink:href="#mc5ba4197da" y="291.28"/>
      </g>
     </g>
    </g>
    <g id="xtick_23">
     <g id="line2d_25">
      <g>
       <use style="stroke:#000000;stroke-width:0.6;" x="227.854172" xlink:href="#mc5ba4197da" y="291.28"/>
      </g>
     </g>
    </g>
    <g id="xtick_24">
     <g id="line2d_26">
      <g>
       <use style="stroke:#000000;stroke-width:0.6;" x="232.628689" xlink:href="#mc5ba4197da" y="291.28"/>
      </g>
     </g>
    </g>
    <g id="xtick_25">
     <g id="line2d_27">
      <g>
       <use style="stroke:#000000;stroke-width:0.6;" x="236.764563" xlink:href="#mc5ba4197da" y="291.28"/>
      </g>
     </g>
    </g>
    <g id="xtick_26">
     <g id="line2d_28">
      <g>
       <use style="stroke:#000000;stroke-width:0.6;" x="240.412663" xlink:href="#mc5ba4197da" y="291.28"/>
      </g>
     </g>
    </g>
    <g id="xtick_27">
     <g id="line2d_29">
      <g>
       <use style="stroke:#000000;stroke-width:0.6;" x="265.144883" xlink:href="#mc5ba4197da" y="291.28"/>
      </g>
     </g>
    </g>
    <g id="xtick_28">
     <g id="line2d_30">
      <g>
       <use style="stroke:#000000;stroke-width:0.6;" x="277.703375" xlink:href="#mc5ba4197da" y="291.28"/>
      </g>
     </g>
    </g>
    <g id="xtick_29">
     <g id="line2d_31">
      <g>
       <use style="stroke:#000000;stroke-width:0.6;" x="286.613766" xlink:href="#mc5ba4197da" y="291.28"/>
      </g>
     </g>
    </g>
    <g id="xtick_30">
     <g id="line2d_32">
      <g>
       <use style="stroke:#000000;stroke-width:0.6;" x="293.525203" xlink:href="#mc5ba4197da" y="291.28"/>
      </g>
     </g>
    </g>
    <g id="xtick_31">
     <g id="line2d_33">
      <g>
       <use style="stroke:#000000;stroke-width:0.6;" x="299.172258" xlink:href="#mc5ba4197da" y="291.28"/>
      </g>
     </g>
    </g>
    <g id="xtick_32">
     <g id="line2d_34">
      <g>
       <use style="stroke:#000000;stroke-width:0.6;" x="303.946775" xlink:href="#mc5ba4197da" y="291.28"/>
      </g>
     </g>
    </g>
    <g id="xtick_33">
     <g id="line2d_35">
      <g>
       <use style="stroke:#000000;stroke-width:0.6;" x="308.082649" xlink:href="#mc5ba4197da" y="291.28"/>
      </g>
     </g>
    </g>
    <g id="xtick_34">
     <g id="line2d_36">
      <g>
       <use style="stroke:#000000;stroke-width:0.6;" x="311.730749" xlink:href="#mc5ba4197da" y="291.28"/>
      </g>
     </g>
    </g>
    <g id="xtick_35">
     <g id="line2d_37">
      <g>
       <use style="stroke:#000000;stroke-width:0.6;" x="336.462969" xlink:href="#mc5ba4197da" y="291.28"/>
      </g>
     </g>
    </g>
    <g id="xtick_36">
     <g id="line2d_38">
      <g>
       <use style="stroke:#000000;stroke-width:0.6;" x="349.021461" xlink:href="#mc5ba4197da" y="291.28"/>
      </g>
     </g>
    </g>
    <g id="xtick_37">
     <g id="line2d_39">
      <g>
       <use style="stroke:#000000;stroke-width:0.6;" x="357.931852" xlink:href="#mc5ba4197da" y="291.28"/>
      </g>
     </g>
    </g>
    <g id="xtick_38">
     <g id="line2d_40">
      <g>
       <use style="stroke:#000000;stroke-width:0.6;" x="364.843289" xlink:href="#mc5ba4197da" y="291.28"/>
      </g>
     </g>
    </g>
    <g id="xtick_39">
     <g id="line2d_41">
      <g>
       <use style="stroke:#000000;stroke-width:0.6;" x="370.490344" xlink:href="#mc5ba4197da" y="291.28"/>
      </g>
     </g>
    </g>
    <g id="xtick_40">
     <g id="line2d_42">
      <g>
       <use style="stroke:#000000;stroke-width:0.6;" x="375.264861" xlink:href="#mc5ba4197da" y="291.28"/>
      </g>
     </g>
    </g>
    <g id="xtick_41">
     <g id="line2d_43">
      <g>
       <use style="stroke:#000000;stroke-width:0.6;" x="379.400735" xlink:href="#mc5ba4197da" y="291.28"/>
      </g>
     </g>
    </g>
    <g id="xtick_42">
     <g id="line2d_44">
      <g>
       <use style="stroke:#000000;stroke-width:0.6;" x="383.048835" xlink:href="#mc5ba4197da" y="291.28"/>
      </g>
     </g>
    </g>
    <g id="xtick_43">
     <g id="line2d_45">
      <g>
       <use style="stroke:#000000;stroke-width:0.6;" x="407.781055" xlink:href="#mc5ba4197da" y="291.28"/>
      </g>
     </g>
    </g>
    <g id="xtick_44">
     <g id="line2d_46">
      <g>
       <use style="stroke:#000000;stroke-width:0.6;" x="420.339546" xlink:href="#mc5ba4197da" y="291.28"/>
      </g>
     </g>
    </g>
    <g id="xtick_45">
     <g id="line2d_47">
      <g>
       <use style="stroke:#000000;stroke-width:0.6;" x="429.249938" xlink:href="#mc5ba4197da" y="291.28"/>
      </g>
     </g>
    </g>
    <g id="xtick_46">
     <g id="line2d_48">
      <g>
       <use style="stroke:#000000;stroke-width:0.6;" x="436.161375" xlink:href="#mc5ba4197da" y="291.28"/>
      </g>
     </g>
    </g>
    <g id="xtick_47">
     <g id="line2d_49">
      <g>
       <use style="stroke:#000000;stroke-width:0.6;" x="441.80843" xlink:href="#mc5ba4197da" y="291.28"/>
      </g>
     </g>
    </g>
    <g id="xtick_48">
     <g id="line2d_50">
      <g>
       <use style="stroke:#000000;stroke-width:0.6;" x="446.582946" xlink:href="#mc5ba4197da" y="291.28"/>
      </g>
     </g>
    </g>
    <g id="xtick_49">
     <g id="line2d_51">
      <g>
       <use style="stroke:#000000;stroke-width:0.6;" x="450.718821" xlink:href="#mc5ba4197da" y="291.28"/>
      </g>
     </g>
    </g>
    <g id="text_3">
     <!-- log10 of FEvals ratio -->
     <g transform="translate(141.371312 336.833125)scale(0.2 -0.2)">
      <defs>
       <path d="M 603 4863 
L 1178 4863 
L 1178 0 
L 603 0 
L 603 4863 
z
" id="DejaVuSans-6c" transform="scale(0.015625)"/>
       <path d="M 1959 3097 
Q 1497 3097 1228 2736 
Q 959 2375 959 1747 
Q 959 1119 1226 758 
Q 1494 397 1959 397 
Q 2419 397 2687 759 
Q 2956 1122 2956 1747 
Q 2956 2369 2687 2733 
Q 2419 3097 1959 3097 
z
M 1959 3584 
Q 2709 3584 3137 3096 
Q 3566 2609 3566 1747 
Q 3566 888 3137 398 
Q 2709 -91 1959 -91 
Q 1206 -91 779 398 
Q 353 888 353 1747 
Q 353 2609 779 3096 
Q 1206 3584 1959 3584 
z
" id="DejaVuSans-6f" transform="scale(0.015625)"/>
       <path d="M 2906 1791 
Q 2906 2416 2648 2759 
Q 2391 3103 1925 3103 
Q 1463 3103 1205 2759 
Q 947 2416 947 1791 
Q 947 1169 1205 825 
Q 1463 481 1925 481 
Q 2391 481 2648 825 
Q 2906 1169 2906 1791 
z
M 3481 434 
Q 3481 -459 3084 -895 
Q 2688 -1331 1869 -1331 
Q 1566 -1331 1297 -1286 
Q 1028 -1241 775 -1147 
L 775 -588 
Q 1028 -725 1275 -790 
Q 1522 -856 1778 -856 
Q 2344 -856 2625 -561 
Q 2906 -266 2906 331 
L 2906 616 
Q 2728 306 2450 153 
Q 2172 0 1784 0 
Q 1141 0 747 490 
Q 353 981 353 1791 
Q 353 2603 747 3093 
Q 1141 3584 1784 3584 
Q 2172 3584 2450 3431 
Q 2728 3278 2906 2969 
L 2906 3500 
L 3481 3500 
L 3481 434 
z
" id="DejaVuSans-67" transform="scale(0.015625)"/>
       <path d="M 2034 4250 
Q 1547 4250 1301 3770 
Q 1056 3291 1056 2328 
Q 1056 1369 1301 889 
Q 1547 409 2034 409 
Q 2525 409 2770 889 
Q 3016 1369 3016 2328 
Q 3016 3291 2770 3770 
Q 2525 4250 2034 4250 
z
M 2034 4750 
Q 2819 4750 3233 4129 
Q 3647 3509 3647 2328 
Q 3647 1150 3233 529 
Q 2819 -91 2034 -91 
Q 1250 -91 836 529 
Q 422 1150 422 2328 
Q 422 3509 836 4129 
Q 1250 4750 2034 4750 
z
" id="DejaVuSans-30" transform="scale(0.015625)"/>
       <path id="DejaVuSans-20" transform="scale(0.015625)"/>
       <path d="M 2375 4863 
L 2375 4384 
L 1825 4384 
Q 1516 4384 1395 4259 
Q 1275 4134 1275 3809 
L 1275 3500 
L 2222 3500 
L 2222 3053 
L 1275 3053 
L 1275 0 
L 697 0 
L 697 3053 
L 147 3053 
L 147 3500 
L 697 3500 
L 697 3744 
Q 697 4328 969 4595 
Q 1241 4863 1831 4863 
L 2375 4863 
z
" id="DejaVuSans-66" transform="scale(0.015625)"/>
       <path d="M 628 4666 
L 3309 4666 
L 3309 4134 
L 1259 4134 
L 1259 2759 
L 3109 2759 
L 3109 2228 
L 1259 2228 
L 1259 0 
L 628 0 
L 628 4666 
z
" id="DejaVuSans-46" transform="scale(0.015625)"/>
       <path d="M 628 4666 
L 3578 4666 
L 3578 4134 
L 1259 4134 
L 1259 2753 
L 3481 2753 
L 3481 2222 
L 1259 2222 
L 1259 531 
L 3634 531 
L 3634 0 
L 628 0 
L 628 4666 
z
" id="DejaVuSans-45" transform="scale(0.015625)"/>
       <path d="M 191 3500 
L 800 3500 
L 1894 563 
L 2988 3500 
L 3597 3500 
L 2284 0 
L 1503 0 
L 191 3500 
z
" id="DejaVuSans-76" transform="scale(0.015625)"/>
       <path d="M 2194 1759 
Q 1497 1759 1228 1600 
Q 959 1441 959 1056 
Q 959 750 1161 570 
Q 1363 391 1709 391 
Q 2188 391 2477 730 
Q 2766 1069 2766 1631 
L 2766 1759 
L 2194 1759 
z
M 3341 1997 
L 3341 0 
L 2766 0 
L 2766 531 
Q 2569 213 2275 61 
Q 1981 -91 1556 -91 
Q 1019 -91 701 211 
Q 384 513 384 1019 
Q 384 1609 779 1909 
Q 1175 2209 1959 2209 
L 2766 2209 
L 2766 2266 
Q 2766 2663 2505 2880 
Q 2244 3097 1772 3097 
Q 1472 3097 1187 3025 
Q 903 2953 641 2809 
L 641 3341 
Q 956 3463 1253 3523 
Q 1550 3584 1831 3584 
Q 2591 3584 2966 3190 
Q 3341 2797 3341 1997 
z
" id="DejaVuSans-61" transform="scale(0.015625)"/>
       <path d="M 2834 3397 
L 2834 2853 
Q 2591 2978 2328 3040 
Q 2066 3103 1784 3103 
Q 1356 3103 1142 2972 
Q 928 2841 928 2578 
Q 928 2378 1081 2264 
Q 1234 2150 1697 2047 
L 1894 2003 
Q 2506 1872 2764 1633 
Q 3022 1394 3022 966 
Q 3022 478 2636 193 
Q 2250 -91 1575 -91 
Q 1294 -91 989 -36 
Q 684 19 347 128 
L 347 722 
Q 666 556 975 473 
Q 1284 391 1588 391 
Q 1994 391 2212 530 
Q 2431 669 2431 922 
Q 2431 1156 2273 1281 
Q 2116 1406 1581 1522 
L 1381 1569 
Q 847 1681 609 1914 
Q 372 2147 372 2553 
Q 372 3047 722 3315 
Q 1072 3584 1716 3584 
Q 2034 3584 2315 3537 
Q 2597 3491 2834 3397 
z
" id="DejaVuSans-73" transform="scale(0.015625)"/>
       <path d="M 2631 2963 
Q 2534 3019 2420 3045 
Q 2306 3072 2169 3072 
Q 1681 3072 1420 2755 
Q 1159 2438 1159 1844 
L 1159 0 
L 581 0 
L 581 3500 
L 1159 3500 
L 1159 2956 
Q 1341 3275 1631 3429 
Q 1922 3584 2338 3584 
Q 2397 3584 2469 3576 
Q 2541 3569 2628 3553 
L 2631 2963 
z
" id="DejaVuSans-72" transform="scale(0.015625)"/>
       <path d="M 1172 4494 
L 1172 3500 
L 2356 3500 
L 2356 3053 
L 1172 3053 
L 1172 1153 
Q 1172 725 1289 603 
Q 1406 481 1766 481 
L 2356 481 
L 2356 0 
L 1766 0 
Q 1100 0 847 248 
Q 594 497 594 1153 
L 594 3053 
L 172 3053 
L 172 3500 
L 594 3500 
L 594 4494 
L 1172 4494 
z
" id="DejaVuSans-74" transform="scale(0.015625)"/>
       <path d="M 603 3500 
L 1178 3500 
L 1178 0 
L 603 0 
L 603 3500 
z
M 603 4863 
L 1178 4863 
L 1178 4134 
L 603 4134 
L 603 4863 
z
" id="DejaVuSans-69" transform="scale(0.015625)"/>
      </defs>
      <use xlink:href="#DejaVuSans-6c"/>
      <use x="27.783203" xlink:href="#DejaVuSans-6f"/>
      <use x="88.964844" xlink:href="#DejaVuSans-67"/>
      <use x="152.441406" xlink:href="#DejaVuSans-31"/>
      <use x="216.064453" xlink:href="#DejaVuSans-30"/>
      <use x="279.6875" xlink:href="#DejaVuSans-20"/>
      <use x="311.474609" xlink:href="#DejaVuSans-6f"/>
      <use x="372.65625" xlink:href="#DejaVuSans-66"/>
      <use x="407.861328" xlink:href="#DejaVuSans-20"/>
      <use x="439.648438" xlink:href="#DejaVuSans-46"/>
      <use x="497.167969" xlink:href="#DejaVuSans-45"/>
      <use x="560.351562" xlink:href="#DejaVuSans-76"/>
      <use x="619.53125" xlink:href="#DejaVuSans-61"/>
      <use x="680.810547" xlink:href="#DejaVuSans-6c"/>
      <use x="708.59375" xlink:href="#DejaVuSans-73"/>
      <use x="760.693359" xlink:href="#DejaVuSans-20"/>
      <use x="792.480469" xlink:href="#DejaVuSans-72"/>
      <use x="833.59375" xlink:href="#DejaVuSans-61"/>
      <use x="894.873047" xlink:href="#DejaVuSans-74"/>
      <use x="934.082031" xlink:href="#DejaVuSans-69"/>
      <use x="961.865234" xlink:href="#DejaVuSans-6f"/>
     </g>
    </g>
   </g>
   <g id="matplotlib.axis_2">
    <g id="ytick_1">
     <g id="line2d_52">
      <path clip-path="url(#p86ee5f0c0f)" d="M 34.16 288.453725 
L 453.192 288.453725 
" style="fill:none;stroke:#b0b0b0;stroke-linecap:square;stroke-width:0.8;"/>
     </g>
     <g id="line2d_53">
      <defs>
       <path d="M 0 0 
L -3.5 0 
" id="m633695c080" style="stroke:#000000;stroke-width:0.8;"/>
      </defs>
      <g>
       <use style="stroke:#000000;stroke-width:0.8;" x="34.16" xlink:href="#m633695c080" y="288.453725"/>
      </g>
     </g>
    </g>
    <g id="ytick_2">
     <g id="line2d_54">
      <path clip-path="url(#p86ee5f0c0f)" d="M 34.16 217.796863 
L 453.192 217.796863 
" style="fill:none;stroke:#b0b0b0;stroke-linecap:square;stroke-width:0.8;"/>
     </g>
     <g id="line2d_55">
      <g>
       <use style="stroke:#000000;stroke-width:0.8;" x="34.16" xlink:href="#m633695c080" y="217.796863"/>
      </g>
     </g>
    </g>
    <g id="ytick_3">
     <g id="line2d_56">
      <path clip-path="url(#p86ee5f0c0f)" d="M 34.16 147.14 
L 453.192 147.14 
" style="fill:none;stroke:#b0b0b0;stroke-linecap:square;stroke-width:0.8;"/>
     </g>
     <g id="line2d_57">
      <g>
       <use style="stroke:#000000;stroke-width:0.8;" x="34.16" xlink:href="#m633695c080" y="147.14"/>
      </g>
     </g>
    </g>
    <g id="ytick_4">
     <g id="line2d_58">
      <path clip-path="url(#p86ee5f0c0f)" d="M 34.16 76.483137 
L 453.192 76.483137 
" style="fill:none;stroke:#b0b0b0;stroke-linecap:square;stroke-width:0.8;"/>
     </g>
     <g id="line2d_59">
      <g>
       <use style="stroke:#000000;stroke-width:0.8;" x="34.16" xlink:href="#m633695c080" y="76.483137"/>
      </g>
     </g>
    </g>
    <g id="ytick_5">
     <g id="line2d_60">
      <path clip-path="url(#p86ee5f0c0f)" d="M 34.16 5.826275 
L 453.192 5.826275 
" style="fill:none;stroke:#b0b0b0;stroke-linecap:square;stroke-width:0.8;"/>
     </g>
     <g id="line2d_61">
      <g>
       <use style="stroke:#000000;stroke-width:0.8;" x="34.16" xlink:href="#m633695c080" y="5.826275"/>
      </g>
     </g>
    </g>
    <g id="text_4">
     <!-- proportion of trials -->
     <g transform="translate(19.000625 240.14625)rotate(-90)scale(0.2 -0.2)">
      <defs>
       <path d="M 1159 525 
L 1159 -1331 
L 581 -1331 
L 581 3500 
L 1159 3500 
L 1159 2969 
Q 1341 3281 1617 3432 
Q 1894 3584 2278 3584 
Q 2916 3584 3314 3078 
Q 3713 2572 3713 1747 
Q 3713 922 3314 415 
Q 2916 -91 2278 -91 
Q 1894 -91 1617 61 
Q 1341 213 1159 525 
z
M 3116 1747 
Q 3116 2381 2855 2742 
Q 2594 3103 2138 3103 
Q 1681 3103 1420 2742 
Q 1159 2381 1159 1747 
Q 1159 1113 1420 752 
Q 1681 391 2138 391 
Q 2594 391 2855 752 
Q 3116 1113 3116 1747 
z
" id="DejaVuSans-70" transform="scale(0.015625)"/>
       <path d="M 3513 2113 
L 3513 0 
L 2938 0 
L 2938 2094 
Q 2938 2591 2744 2837 
Q 2550 3084 2163 3084 
Q 1697 3084 1428 2787 
Q 1159 2491 1159 1978 
L 1159 0 
L 581 0 
L 581 3500 
L 1159 3500 
L 1159 2956 
Q 1366 3272 1645 3428 
Q 1925 3584 2291 3584 
Q 2894 3584 3203 3211 
Q 3513 2838 3513 2113 
z
" id="DejaVuSans-6e" transform="scale(0.015625)"/>
      </defs>
      <use xlink:href="#DejaVuSans-70"/>
      <use x="63.476562" xlink:href="#DejaVuSans-72"/>
      <use x="102.339844" xlink:href="#DejaVuSans-6f"/>
      <use x="163.521484" xlink:href="#DejaVuSans-70"/>
      <use x="226.998047" xlink:href="#DejaVuSans-6f"/>
      <use x="288.179688" xlink:href="#DejaVuSans-72"/>
      <use x="329.292969" xlink:href="#DejaVuSans-74"/>
      <use x="368.501953" xlink:href="#DejaVuSans-69"/>
      <use x="396.285156" xlink:href="#DejaVuSans-6f"/>
      <use x="457.466797" xlink:href="#DejaVuSans-6e"/>
      <use x="520.845703" xlink:href="#DejaVuSans-20"/>
      <use x="552.632812" xlink:href="#DejaVuSans-6f"/>
      <use x="613.814453" xlink:href="#DejaVuSans-66"/>
      <use x="649.019531" xlink:href="#DejaVuSans-20"/>
      <use x="680.806641" xlink:href="#DejaVuSans-74"/>
      <use x="720.015625" xlink:href="#DejaVuSans-72"/>
      <use x="761.128906" xlink:href="#DejaVuSans-69"/>
      <use x="788.912109" xlink:href="#DejaVuSans-61"/>
      <use x="850.191406" xlink:href="#DejaVuSans-6c"/>
      <use x="877.974609" xlink:href="#DejaVuSans-73"/>
     </g>
    </g>
   </g>
   <g id="line2d_62">
    <path clip-path="url(#p86ee5f0c0f)" d="M 34.16 284.685359 
L 50.943827 284.685359 
L 50.943827 284.434135 
L 66.04685 284.434135 
L 66.04685 284.182911 
L 95.586962 284.182911 
L 95.586962 283.931686 
L 102.143311 283.931686 
L 102.143311 283.680462 
L 118.586512 283.680462 
L 118.586512 283.429237 
L 120.703945 283.429237 
L 120.703945 283.178013 
L 122.661453 283.178013 
L 122.661453 282.926789 
L 123.773093 282.926789 
L 123.773093 282.675564 
L 126.644586 282.675564 
L 126.644586 282.42434 
L 127.007898 282.42434 
L 127.007898 282.173115 
L 133.335573 282.173115 
L 133.335573 281.921891 
L 138.227547 281.921891 
L 138.227547 281.670667 
L 142.573992 281.670667 
L 142.573992 281.419442 
L 144.987329 281.419442 
L 144.987329 281.168218 
L 145.894064 281.168218 
L 145.894064 280.916993 
L 147.587002 280.916993 
L 147.587002 280.665769 
L 150.124225 280.665769 
L 150.124225 280.16332 
L 150.889031 280.16332 
L 150.889031 279.912096 
L 151.97246 279.912096 
L 151.97246 279.660871 
L 152.153413 279.660871 
L 152.153413 279.409647 
L 152.274638 279.409647 
L 152.274638 279.158423 
L 152.477741 279.158423 
L 152.579794 278.655974 
L 152.887986 278.655974 
L 152.887986 278.404749 
L 154.73132 278.404749 
L 154.73132 278.153525 
L 155.754329 278.153525 
L 155.754329 277.902301 
L 157.800468 277.902301 
L 157.800468 277.651076 
L 158.288242 277.651076 
L 158.288242 277.399852 
L 159.566478 277.399852 
L 159.566478 277.148627 
L 160.553423 277.148627 
L 160.553423 276.897403 
L 161.391841 276.897403 
L 161.391841 276.646179 
L 161.892289 276.646179 
L 161.892289 276.394954 
L 162.574985 276.394954 
L 162.574985 276.14373 
L 162.700097 276.14373 
L 162.700097 275.892505 
L 162.919696 275.892505 
L 162.919696 275.641281 
L 164.985332 275.641281 
L 164.985332 275.390057 
L 165.373238 275.390057 
L 165.373238 275.138832 
L 166.795915 275.138832 
L 166.795915 274.887608 
L 167.698818 274.887608 
L 167.698818 274.636383 
L 169.405867 274.636383 
L 169.405867 274.385159 
L 169.719684 274.385159 
L 169.719684 274.133935 
L 170.473904 274.133935 
L 170.473904 273.88271 
L 170.827827 273.88271 
L 170.827827 273.631486 
L 171.031648 273.631486 
L 171.031648 273.380261 
L 171.320423 273.380261 
L 171.320423 273.129037 
L 172.357914 273.129037 
L 172.357914 272.877813 
L 173.622296 272.877813 
L 173.642004 272.375364 
L 173.743521 272.375364 
L 173.743521 272.124139 
L 174.274384 272.124139 
L 174.274384 271.872915 
L 174.394435 271.872915 
L 174.394435 271.621691 
L 174.696613 271.621691 
L 174.696613 271.370466 
L 175.001769 271.370466 
L 175.001769 271.119242 
L 175.132572 271.119242 
L 175.225893 270.616793 
L 175.309961 270.616793 
L 175.309961 270.365569 
L 175.621251 270.365569 
L 175.621251 270.114344 
L 176.200203 270.114344 
L 176.200203 269.86312 
L 176.948004 269.86312 
L 176.957934 269.360671 
L 177.458383 269.360671 
L 177.458383 269.109447 
L 178.266191 269.109447 
L 178.266191 268.858222 
L 179.269351 268.858222 
L 179.269351 268.606998 
L 179.921439 268.606998 
L 179.921439 268.355773 
L 180.252705 268.355773 
L 180.252705 268.104549 
L 182.096662 268.104549 
L 182.096662 267.853325 
L 182.362009 267.853325 
L 182.362009 267.6021 
L 182.586507 267.6021 
L 182.586507 267.350876 
L 183.218732 267.350876 
L 183.264912 266.848427 
L 183.405225 266.848427 
L 183.405225 266.345978 
L 184.043868 266.345978 
L 184.043868 266.094754 
L 184.531642 266.094754 
L 184.531642 265.843529 
L 184.695956 265.843529 
L 184.695956 265.592305 
L 185.341672 265.592305 
L 185.341672 265.341081 
L 185.700575 265.341081 
L 185.700575 265.089856 
L 186.039998 265.089856 
L 186.039998 264.838632 
L 186.393921 264.838632 
L 186.443107 264.336183 
L 186.505115 264.336183 
L 186.505115 264.084959 
L 186.915361 264.084959 
L 186.915361 263.833734 
L 187.407307 263.833734 
L 187.407307 263.58251 
L 187.565177 263.58251 
L 187.565177 263.331285 
L 187.699115 263.331285 
L 187.699115 263.080061 
L 188.179742 263.080061 
L 188.179742 262.828837 
L 188.758695 262.828837 
L 188.758695 262.577612 
L 189.208098 262.577612 
L 189.208098 262.326388 
L 190.057472 262.326388 
L 190.057472 262.075163 
L 190.791987 262.075163 
L 190.791987 261.823939 
L 192.234853 261.823939 
L 192.234853 261.572715 
L 192.514098 261.572715 
L 192.514098 261.32149 
L 192.716309 261.32149 
L 192.716309 261.070266 
L 193.453623 261.070266 
L 193.502469 260.567817 
L 195.311629 260.567817 
L 195.311629 260.316593 
L 195.743267 260.316593 
L 195.743267 260.065368 
L 196.165496 260.065368 
L 196.178064 259.562919 
L 197.090134 259.562919 
L 197.090134 259.060471 
L 197.669086 259.060471 
L 197.669086 258.809246 
L 198.125129 258.809246 
L 198.125129 258.558022 
L 198.427308 258.558022 
L 198.466114 258.055573 
L 198.732463 258.055573 
L 198.732463 257.804349 
L 199.040656 257.804349 
L 199.040656 257.553124 
L 200.148253 257.553124 
L 200.148253 257.3019 
L 200.738234 257.3019 
L 200.738234 256.548227 
L 201.165455 256.548227 
L 201.165455 256.297002 
L 202.002616 256.297002 
L 202.002616 256.045778 
L 202.225226 256.045778 
L 202.278264 255.543329 
L 202.443603 255.543329 
L 202.443603 255.292105 
L 202.67468 255.292105 
L 202.67468 255.04088 
L 202.817743 255.04088 
L 202.817743 254.789656 
L 203.433242 254.789656 
L 203.433242 254.538431 
L 204.00157 254.538431 
L 204.103626 254.035983 
L 204.422538 254.035983 
L 204.422538 253.784758 
L 204.604075 253.784758 
L 204.604075 253.533534 
L 204.874108 253.533534 
L 204.874108 252.779861 
L 205.008482 252.779861 
L 205.008482 252.528636 
L 205.411883 252.528636 
L 205.411883 252.277412 
L 205.544609 252.277412 
L 205.544609 252.026187 
L 206.164839 252.026187 
L 206.164839 251.774963 
L 206.385289 251.774963 
L 206.385289 251.523739 
L 206.579478 251.523739 
L 206.579478 251.272514 
L 207.337875 251.272514 
L 207.337875 251.02129 
L 207.698795 251.02129 
L 207.796811 250.518841 
L 207.819332 250.518841 
L 207.819332 250.267617 
L 207.973999 250.267617 
L 207.973999 250.016392 
L 208.122551 250.016392 
L 208.185803 249.513943 
L 209.072366 249.513943 
L 209.072366 249.262719 
L 209.337336 249.262719 
L 209.337336 249.011495 
L 209.5077 249.011495 
L 209.5077 248.76027 
L 209.648625 248.76027 
L 209.648625 247.755373 
L 210.227578 247.755373 
L 210.227578 247.252924 
L 210.410604 247.252924 
L 210.414651 246.750475 
L 210.601718 246.750475 
L 210.601718 246.499251 
L 211.138001 246.499251 
L 211.138001 246.248026 
L 211.281087 246.248026 
L 211.281087 245.996802 
L 212.178443 245.996802 
L 212.178443 245.745577 
L 213.185689 245.745577 
L 213.296725 245.243129 
L 213.490914 245.243129 
L 213.539613 244.74068 
L 214.145355 244.74068 
L 214.145355 244.489455 
L 214.423142 244.489455 
L 214.423142 244.238231 
L 215.189538 244.238231 
L 215.189538 243.987007 
L 215.62344 243.987007 
L 215.644536 243.484558 
L 215.946714 243.484558 
L 215.946714 243.233333 
L 216.25187 243.233333 
L 216.353789 241.977211 
L 216.560062 241.977211 
L 216.560062 241.725987 
L 217.184318 241.725987 
L 217.184318 241.474763 
L 217.4326 241.474763 
L 217.4326 240.972314 
L 217.920766 240.972314 
L 217.937678 240.469865 
L 219.001687 240.469865 
L 219.001687 240.218641 
L 219.659789 240.218641 
L 219.659789 239.967416 
L 219.896191 239.967416 
L 219.896191 239.716192 
L 220.123757 239.716192 
L 220.123757 239.464967 
L 220.53249 239.464967 
L 220.53249 239.213743 
L 220.82705 239.213743 
L 220.82705 238.962519 
L 221.327499 238.962519 
L 221.327499 238.711294 
L 221.94912 238.711294 
L 221.94912 238.46007 
L 222.135307 238.46007 
L 222.207117 237.455172 
L 222.449569 237.455172 
L 222.449569 237.203948 
L 222.786069 237.203948 
L 222.801818 236.701499 
L 222.899834 236.701499 
L 222.905901 236.19905 
L 223.204871 236.19905 
L 223.288825 235.445377 
L 224.123587 235.445377 
L 224.123587 235.194153 
L 224.647201 235.194153 
L 224.647201 234.942928 
L 224.902125 234.942928 
L 224.902125 234.691704 
L 225.470454 234.691704 
L 225.470454 234.189255 
L 225.773169 234.189255 
L 225.773169 233.938031 
L 226.231124 233.938031 
L 226.231124 233.686806 
L 226.342992 233.686806 
L 226.405374 233.184357 
L 226.591772 233.184357 
L 226.591772 232.933133 
L 227.134028 232.933133 
L 227.134028 232.681908 
L 227.353194 232.681908 
L 227.353194 232.430684 
L 227.854172 232.430684 
L 227.854172 232.17946 
L 228.256098 232.17946 
L 228.256098 231.928235 
L 228.657408 231.928235 
L 228.739176 231.174562 
L 229.118554 231.174562 
L 229.118554 230.923338 
L 229.442882 230.923338 
L 229.442882 230.672113 
L 229.909113 230.672113 
L 229.909113 230.420889 
L 230.263037 230.420889 
L 230.263037 230.169664 
L 231.031183 230.169664 
L 231.117508 228.913542 
L 231.385107 228.913542 
L 231.403894 228.411094 
L 231.853245 228.411094 
L 231.922049 227.908645 
L 232.722689 227.908645 
L 232.722689 227.65742 
L 233.06803 227.65742 
L 233.077213 227.154972 
L 233.254428 227.154972 
L 233.254428 226.652523 
L 234.175628 226.652523 
L 234.217399 225.89885 
L 234.661102 225.89885 
L 234.765608 224.391503 
L 235.19283 224.391503 
L 235.19283 224.140279 
L 235.719713 224.140279 
L 235.783172 223.63783 
L 235.892025 223.63783 
L 235.960878 222.884157 
L 236.021892 222.884157 
L 236.109698 222.381708 
L 236.266327 222.381708 
L 236.327047 221.879259 
L 236.383213 221.879259 
L 236.383213 221.628035 
L 236.635239 221.628035 
L 236.635239 221.37681 
L 236.877988 221.37681 
L 236.877988 221.125586 
L 237.359444 221.125586 
L 237.460616 220.371913 
L 237.505283 220.371913 
L 237.505283 220.120688 
L 238.008924 220.120688 
L 238.028945 219.115791 
L 238.307894 219.115791 
L 238.353273 218.613342 
L 238.901483 218.613342 
L 238.901483 217.608444 
L 239.540125 217.608444 
L 239.540125 217.35722 
L 239.954764 217.35722 
L 239.954764 217.105996 
L 240.307323 217.105996 
L 240.412663 216.603547 
L 240.456143 216.603547 
L 240.456143 216.352322 
L 240.8212 216.352322 
L 240.876192 215.849874 
L 241.90563 215.849874 
L 242.001373 215.0962 
L 243.434336 215.0962 
L 243.434336 214.844976 
L 243.676 214.844976 
L 243.676 211.830283 
L 243.800841 211.830283 
L 243.800841 211.579059 
L 243.915793 211.579059 
L 243.924781 211.07661 
L 245.26471 211.07661 
L 245.350627 210.574161 
L 245.808591 210.574161 
L 245.808591 210.322937 
L 246.258583 210.322937 
L 246.258583 210.071712 
L 246.371008 210.071712 
L 246.371008 209.820488 
L 246.511112 209.820488 
L 246.511112 209.569264 
L 246.66695 209.569264 
L 246.66695 209.318039 
L 246.939337 209.318039 
L 246.939337 209.066815 
L 247.3241 209.066815 
L 247.377548 208.564366 
L 247.460878 208.564366 
L 247.460878 208.313142 
L 248.377895 208.313142 
L 248.450517 207.308244 
L 248.493446 207.308244 
L 248.493446 207.05702 
L 248.732585 207.05702 
L 248.795624 206.303346 
L 248.850175 206.303346 
L 248.850175 206.052122 
L 249.10078 206.052122 
L 249.10078 205.800898 
L 249.323055 205.800898 
L 249.408972 205.047224 
L 249.506279 205.047224 
L 249.506279 204.796 
L 249.803267 204.796 
L 249.808457 204.293551 
L 250.113613 204.293551 
L 250.113613 204.042327 
L 250.314858 204.042327 
L 250.421805 203.539878 
L 250.587437 203.539878 
L 250.587437 203.037429 
L 251.145525 203.037429 
L 251.145525 202.786205 
L 251.352242 202.786205 
L 251.459975 202.032532 
L 251.802222 202.032532 
L 251.851818 201.530083 
L 252.208206 201.530083 
L 252.208206 201.278858 
L 252.341931 201.278858 
L 252.439947 200.525185 
L 252.510384 200.525185 
L 252.510384 200.273961 
L 252.81554 200.273961 
L 252.828938 199.771512 
L 253.123732 199.771512 
L 253.123732 199.520288 
L 253.592565 199.520288 
L 253.592565 199.269063 
L 253.850773 199.269063 
L 253.850773 199.017839 
L 253.982804 199.017839 
L 254.017227 198.51539 
L 254.097572 198.51539 
L 254.097572 198.264166 
L 254.284982 198.264166 
L 254.284982 198.012941 
L 254.559865 198.012941 
L 254.661303 197.259268 
L 254.723311 197.259268 
L 254.778902 196.505595 
L 254.89833 196.505595 
L 254.89833 196.25437 
L 255.281399 196.25437 
L 255.281399 196.003146 
L 256.234492 196.003146 
L 256.234492 194.4958 
L 257.313801 194.4958 
L 257.360908 193.993351 
L 257.490775 193.993351 
L 257.490775 193.742126 
L 258.233446 193.742126 
L 258.286754 193.239678 
L 258.435574 193.239678 
L 258.435574 192.988453 
L 258.713658 192.988453 
L 258.713658 192.737229 
L 258.898279 192.737229 
L 258.996295 191.732331 
L 259.37731 191.732331 
L 259.440682 190.978658 
L 259.497828 190.978658 
L 259.497828 189.471312 
L 259.679489 189.471312 
L 259.679489 189.220087 
L 259.877538 189.220087 
L 259.984645 188.717638 
L 260.292837 188.717638 
L 260.370366 187.712741 
L 260.453515 187.712741 
L 260.453515 187.461516 
L 260.944007 187.461516 
L 261.009008 186.707843 
L 261.152181 186.707843 
L 261.152181 186.456619 
L 261.506318 186.456619 
L 261.506318 186.205394 
L 261.881546 186.205394 
L 261.881546 185.702946 
L 262.192836 185.702946 
L 262.192836 185.451721 
L 262.449875 185.451721 
L 262.519151 184.949272 
L 262.849533 184.949272 
L 262.954313 184.195599 
L 263.155442 184.195599 
L 263.155442 183.944375 
L 263.374513 183.944375 
L 263.374513 183.69315 
L 263.648309 183.69315 
L 263.648309 183.441926 
L 263.820749 183.441926 
L 263.820749 183.190702 
L 263.999958 183.190702 
L 263.999958 182.939477 
L 264.322645 182.939477 
L 264.322645 182.688253 
L 264.93004 182.688253 
L 264.93004 182.437028 
L 265.144883 182.437028 
L 265.221078 179.67356 
L 265.498627 179.67356 
L 265.498627 179.422336 
L 265.897302 179.422336 
L 265.993513 178.668662 
L 266.097975 178.668662 
L 266.097975 178.417438 
L 266.33376 178.417438 
L 266.33376 178.166214 
L 266.81951 178.166214 
L 266.81951 177.914989 
L 266.995676 177.914989 
L 267.022613 177.41254 
L 267.500356 177.41254 
L 267.552634 176.658867 
L 267.62405 176.658867 
L 267.62405 176.407643 
L 267.848006 176.407643 
L 267.935612 175.905194 
L 268.417068 175.905194 
L 268.417068 175.653969 
L 268.565467 175.653969 
L 268.669091 175.151521 
L 268.792983 175.151521 
L 268.80814 173.895399 
L 269.053754 173.895399 
L 269.053754 173.644174 
L 269.202574 173.644174 
L 269.280758 172.890501 
L 269.447829 172.890501 
L 269.447829 172.639277 
L 269.660571 172.639277 
L 269.660571 172.388052 
L 269.9194 172.388052 
L 269.962749 170.378257 
L 270.264507 170.378257 
L 270.324547 169.624584 
L 270.416305 169.624584 
L 270.46761 168.870911 
L 270.576097 168.870911 
L 270.662614 168.368462 
L 271.012388 168.368462 
L 271.012388 168.117237 
L 271.158487 168.117237 
L 271.267394 167.363564 
L 271.27734 167.363564 
L 271.27734 167.11234 
L 271.487991 167.11234 
L 271.487991 166.861115 
L 271.842793 166.861115 
L 271.924238 166.107442 
L 272.05632 166.107442 
L 272.05632 165.353769 
L 272.390182 165.353769 
L 272.495661 164.85132 
L 272.640734 164.85132 
L 272.640734 164.600096 
L 272.865903 164.600096 
L 272.928858 163.343974 
L 273.014723 163.343974 
L 273.041992 162.841525 
L 273.340954 162.841525 
L 273.340954 162.590301 
L 273.473214 162.590301 
L 273.473214 162.339076 
L 273.97279 162.339076 
L 274.055275 161.585403 
L 274.105385 161.585403 
L 274.105385 161.334179 
L 274.404355 161.334179 
L 274.440038 160.83173 
L 274.603485 160.83173 
L 274.691266 159.826832 
L 274.753492 159.826832 
L 274.840085 159.324383 
L 275.108055 159.324383 
L 275.191714 158.821935 
L 275.319656 158.821935 
L 275.34148 158.068261 
L 275.439496 158.068261 
L 275.439496 157.817037 
L 275.753865 157.817037 
L 275.828488 157.314588 
L 275.933004 157.314588 
L 275.999523 156.309691 
L 276.148342 156.309691 
L 276.192194 155.304793 
L 276.773691 155.304793 
L 276.866214 154.802344 
L 276.972653 154.802344 
L 276.972653 154.55112 
L 277.703375 154.55112 
L 277.786524 151.285203 
L 278.255836 151.285203 
L 278.255836 151.033978 
L 278.436499 151.033978 
L 278.518502 150.531529 
L 278.56981 150.531529 
L 278.56981 150.280305 
L 278.967756 150.280305 
L 279.066117 149.777856 
L 279.099937 149.777856 
L 279.107493 149.275407 
L 279.378001 149.275407 
L 279.378001 148.521734 
L 279.897302 148.521734 
L 279.897302 148.27051 
L 280.09534 148.27051 
L 280.182542 147.265612 
L 280.244159 147.265612 
L 280.244159 147.014388 
L 280.488451 147.014388 
L 280.488451 146.763163 
L 280.607807 146.763163 
L 280.607807 146.511939 
L 280.966711 146.511939 
L 280.998244 145.255817 
L 281.147063 145.255817 
L 281.148372 144.753368 
L 281.351475 144.753368 
L 281.351475 144.502144 
L 282.221561 144.502144 
L 282.263049 143.999695 
L 282.477892 143.999695 
L 282.477892 142.994797 
L 282.602281 142.994797 
L 282.673443 142.492349 
L 282.822253 142.492349 
L 282.877549 141.9899 
L 283.103631 141.9899 
L 283.103631 141.487451 
L 283.234394 141.487451 
L 283.234394 141.236227 
L 283.399554 141.236227 
L 283.49757 139.72888 
L 283.557201 139.72888 
L 283.557201 139.477656 
L 283.773329 139.477656 
L 283.773329 139.226431 
L 283.886562 139.226431 
L 283.943557 138.221534 
L 284.127253 138.221534 
L 284.127253 137.970309 
L 284.276072 137.970309 
L 284.276072 137.719085 
L 284.44918 137.719085 
L 284.44918 137.467861 
L 284.596851 137.467861 
L 284.596851 137.216636 
L 284.781423 137.216636 
L 284.781423 136.965412 
L 285.083602 136.965412 
L 285.083602 136.714187 
L 285.203909 136.714187 
L 285.209489 136.211739 
L 285.366361 136.211739 
L 285.388757 135.70929 
L 285.487349 135.70929 
L 285.506088 134.955617 
L 285.696949 134.955617 
L 285.696949 134.704392 
L 285.811244 134.704392 
L 285.829596 134.201943 
L 285.936321 134.201943 
L 285.972479 133.699495 
L 286.119436 133.699495 
L 286.119436 133.44827 
L 286.613766 133.44827 
L 286.648522 132.694597 
L 286.941429 132.694597 
L 287.040987 132.192148 
L 287.090248 132.192148 
L 287.151106 131.689699 
L 287.219883 131.689699 
L 287.219883 131.438475 
L 287.462396 131.438475 
L 287.566858 130.936026 
L 287.657555 130.936026 
L 287.710919 130.433577 
L 287.878148 130.433577 
L 287.878148 129.679904 
L 288.525318 129.679904 
L 288.525318 129.42868 
L 288.674138 129.42868 
L 288.719759 128.926231 
L 288.878028 128.926231 
L 288.925704 128.423782 
L 289.045246 128.423782 
L 289.045246 128.172558 
L 289.359484 128.172558 
L 289.359484 127.921333 
L 289.506526 127.921333 
L 289.545694 127.418885 
L 289.808704 127.418885 
L 289.82867 126.916436 
L 289.991357 126.916436 
L 290.090541 126.162763 
L 290.11386 126.162763 
L 290.188557 125.660314 
L 290.247429 125.660314 
L 290.353502 123.399294 
L 290.396249 123.399294 
L 290.422052 122.896845 
L 290.548586 122.896845 
L 290.577549 122.394397 
L 290.847556 122.394397 
L 290.847556 122.143172 
L 291.110496 122.143172 
L 291.110496 121.891948 
L 291.388283 121.891948 
L 291.431632 120.384601 
L 291.702733 120.384601 
L 291.702733 119.882153 
L 291.896707 119.882153 
L 292.001631 118.877255 
L 292.180057 118.877255 
L 292.180057 118.626031 
L 292.661513 118.626031 
L 292.741033 118.123582 
L 292.82124 118.123582 
L 292.82124 117.872357 
L 293.105426 117.872357 
L 293.202774 117.369908 
L 293.415854 117.369908 
L 293.525203 115.862562 
L 293.810108 115.862562 
L 293.810108 115.611338 
L 294.1183 115.611338 
L 294.16867 115.108889 
L 294.245058 115.108889 
L 294.320211 114.60644 
L 294.44932 114.60644 
L 294.492027 113.852767 
L 295.246371 113.852767 
L 295.352223 112.847869 
L 295.358463 112.847869 
L 295.422105 112.094196 
L 295.72866 112.094196 
L 295.72866 111.842972 
L 296.123268 111.842972 
L 296.151146 111.340523 
L 296.340503 111.340523 
L 296.340503 111.089298 
L 296.47725 111.089298 
L 296.47725 110.335625 
L 296.876908 110.335625 
L 296.876908 109.833176 
L 297.079368 109.833176 
L 297.079368 109.581952 
L 297.401887 109.581952 
L 297.415522 108.577054 
L 297.794295 108.577054 
L 297.80863 108.074606 
L 297.940816 108.074606 
L 297.940816 107.823381 
L 298.057207 107.823381 
L 298.127309 107.320932 
L 298.216781 107.320932 
L 298.216781 107.069708 
L 298.481232 107.069708 
L 298.481232 106.818484 
L 298.60666 106.818484 
L 298.692618 106.316035 
L 298.746212 106.316035 
L 298.746212 106.06481 
L 298.90563 106.06481 
L 298.90563 105.813586 
L 299.172258 105.813586 
L 299.172258 104.557464 
L 299.460918 104.557464 
L 299.460918 104.30624 
L 299.579268 104.30624 
L 299.579268 104.055015 
L 299.759045 104.055015 
L 299.759045 103.803791 
L 299.882569 103.803791 
L 299.882569 103.552566 
L 300.020888 103.552566 
L 300.060724 102.547669 
L 300.274618 102.547669 
L 300.383018 101.542771 
L 300.453763 101.542771 
L 300.453763 101.291547 
L 300.581713 101.291547 
L 300.581713 101.040322 
L 300.846885 101.040322 
L 300.846885 100.286649 
L 301.110659 100.286649 
L 301.190826 99.7842 
L 301.227671 99.7842 
L 301.295409 99.281752 
L 301.391993 99.281752 
L 301.473928 98.779303 
L 301.651425 98.779303 
L 301.651425 97.774405 
L 301.998141 97.774405 
L 301.998141 97.271956 
L 302.294487 97.271956 
L 302.294487 97.020732 
L 302.460972 97.020732 
L 302.519398 96.518283 
L 302.656044 96.518283 
L 302.762947 96.015834 
L 302.820358 96.015834 
L 302.879298 95.262161 
L 303.053033 95.262161 
L 303.053033 95.010937 
L 303.2004 95.010937 
L 303.2004 94.759712 
L 303.388687 94.759712 
L 303.388687 94.508488 
L 303.52248 94.508488 
L 303.553482 94.006039 
L 303.699976 94.006039 
L 303.699976 93.754815 
L 303.840612 93.754815 
L 303.946775 92.498693 
L 304.150011 92.498693 
L 304.23557 91.996244 
L 304.263098 91.996244 
L 304.36129 91.242571 
L 304.398578 91.242571 
L 304.439986 90.740122 
L 304.601409 90.740122 
L 304.603472 90.237673 
L 304.828978 90.237673 
L 304.93567 89.735224 
L 305.246534 89.735224 
L 305.297647 88.981551 
L 305.596617 88.981551 
L 305.596617 88.730327 
L 306.189547 88.730327 
L 306.215646 88.227878 
L 306.552485 88.227878 
L 306.552485 87.976654 
L 306.879194 87.976654 
L 306.97721 86.720532 
L 307.348076 86.720532 
L 307.366201 85.966858 
L 307.643999 85.966858 
L 307.742015 85.46441 
L 307.846368 85.46441 
L 307.846368 85.213185 
L 308.082649 85.213185 
L 308.164915 84.208288 
L 308.457107 84.208288 
L 308.565714 83.20339 
L 308.747819 83.20339 
L 308.747819 82.952166 
L 308.964632 82.952166 
L 308.964632 82.700941 
L 309.318556 82.700941 
L 309.360011 81.444819 
L 309.630077 81.444819 
L 309.630077 81.193595 
L 309.960379 81.193595 
L 309.960379 80.691146 
L 310.090245 80.691146 
L 310.162158 80.188697 
L 310.573181 80.188697 
L 310.573181 79.937473 
L 311.07363 79.937473 
L 311.089564 79.435024 
L 311.277588 79.435024 
L 311.348712 78.932575 
L 311.658517 78.932575 
L 311.730749 76.92278 
L 311.881438 76.92278 
L 311.881438 76.671556 
L 312.132732 76.671556 
L 312.158993 75.415434 
L 312.261962 75.415434 
L 312.350231 74.912985 
L 312.48902 74.912985 
L 312.48902 74.66176 
L 312.944047 74.66176 
L 312.944047 74.410536 
L 313.061668 74.410536 
L 313.061668 74.159312 
L 313.405376 74.159312 
L 313.484155 73.154414 
L 313.716622 73.154414 
L 313.716622 72.90319 
L 313.984328 72.90319 
L 313.984328 72.651965 
L 314.209916 72.651965 
L 314.209916 72.149516 
L 314.792137 72.149516 
L 314.792137 71.898292 
L 314.973835 71.898292 
L 315.04321 70.893394 
L 315.141227 70.893394 
L 315.160861 70.390946 
L 315.302278 70.390946 
L 315.39547 69.637272 
L 315.438732 69.637272 
L 315.530218 68.632375 
L 315.817957 68.632375 
L 315.817957 68.38115 
L 315.971142 68.38115 
L 315.977255 67.878702 
L 316.246076 67.878702 
L 316.293845 66.62258 
L 316.880159 66.62258 
L 316.986224 65.868906 
L 317.486673 65.868906 
L 317.486673 65.617682 
L 317.786771 65.617682 
L 317.796504 65.115233 
L 317.946133 65.115233 
L 317.946133 64.36156 
L 318.294481 64.36156 
L 318.296953 63.859111 
L 318.509539 63.859111 
L 318.609196 63.356662 
L 318.887954 63.356662 
L 318.932025 62.854214 
L 319.104761 62.854214 
L 319.104761 62.602989 
L 319.549076 62.602989 
L 319.655244 62.10054 
L 319.724324 62.10054 
L 319.790858 61.598092 
L 319.848046 61.598092 
L 319.913337 61.095643 
L 320.009168 61.095643 
L 320.009168 60.844418 
L 320.120573 60.844418 
L 320.14681 60.341969 
L 320.641141 60.341969 
L 320.641141 59.588296 
L 321.068362 59.588296 
L 321.068362 58.583399 
L 321.483019 58.583399 
L 321.489771 57.578501 
L 321.905523 57.578501 
L 321.905523 57.076052 
L 322.0863 57.076052 
L 322.0863 56.573603 
L 322.213715 56.573603 
L 322.213715 56.322379 
L 322.38527 56.322379 
L 322.416344 55.317481 
L 322.565943 55.317481 
L 322.565943 55.066257 
L 322.823344 55.066257 
L 322.919867 54.061359 
L 323.120308 54.061359 
L 323.200579 52.554013 
L 323.234642 52.554013 
L 323.293202 52.051564 
L 323.645287 52.051564 
L 323.645287 51.80034 
L 323.816821 51.80034 
L 323.876811 51.297891 
L 324.103482 51.297891 
L 324.103482 51.046667 
L 324.289241 51.046667 
L 324.289241 50.544218 
L 324.407234 50.544218 
L 324.449427 50.041769 
L 324.669283 50.041769 
L 324.669283 49.790545 
L 324.953568 49.790545 
L 324.953568 49.288096 
L 325.168859 49.288096 
L 325.168859 49.036871 
L 325.340994 49.036871 
L 325.415658 48.031974 
L 325.718373 48.031974 
L 325.822668 47.278301 
L 326.068287 47.278301 
L 326.129344 46.775852 
L 326.304124 46.775852 
L 326.349589 46.022179 
L 326.422211 46.022179 
L 326.422211 45.770954 
L 326.578737 45.770954 
L 326.578737 45.51973 
L 326.768408 45.51973 
L 326.878568 45.017281 
L 326.93089 45.017281 
L 326.93089 44.766057 
L 327.232491 44.766057 
L 327.317932 44.263608 
L 327.423253 44.263608 
L 327.423253 44.012383 
L 327.878217 44.012383 
L 327.878217 43.509935 
L 328.145675 43.509935 
L 328.145675 43.25871 
L 328.317383 43.25871 
L 328.353335 42.756261 
L 328.643023 42.756261 
L 328.643023 42.505037 
L 328.816959 42.505037 
L 328.899444 42.002588 
L 329.040043 42.002588 
L 329.040043 41.751364 
L 329.236387 41.751364 
L 329.236387 41.500139 
L 329.551532 41.500139 
L 329.551532 40.746466 
L 329.76588 40.746466 
L 329.76588 40.495242 
L 330.046668 40.495242 
L 330.046668 40.244017 
L 330.250316 40.244017 
L 330.250316 39.992793 
L 330.504625 39.992793 
L 330.549286 39.23912 
L 330.820276 39.23912 
L 330.904282 38.485447 
L 331.124106 38.485447 
L 331.124106 38.234222 
L 331.630557 38.234222 
L 331.630557 37.982998 
L 332.453258 37.982998 
L 332.542387 37.229325 
L 332.952834 37.229325 
L 332.952834 36.726876 
L 333.117584 36.726876 
L 333.199632 34.968305 
L 333.352668 34.968305 
L 333.352668 34.717081 
L 333.626854 34.717081 
L 333.626854 34.214632 
L 333.747842 34.214632 
L 333.747842 33.963407 
L 334.048262 33.963407 
L 334.048262 33.460959 
L 334.753271 33.460959 
L 334.753271 33.209734 
L 335.034189 33.209734 
L 335.034189 32.95851 
L 335.456676 32.95851 
L 335.456676 32.707285 
L 335.678799 32.707285 
L 335.678799 31.451163 
L 336.042234 31.451163 
L 336.042234 31.199939 
L 336.405558 31.199939 
L 336.462969 30.195041 
L 337.227775 30.195041 
L 337.227775 29.441368 
L 337.727351 29.441368 
L 337.727351 28.687695 
L 338.38116 28.687695 
L 338.38116 28.436471 
L 338.862616 28.436471 
L 338.862616 28.185246 
L 339.759292 28.185246 
L 339.759292 27.934022 
L 340.196986 27.934022 
L 340.196986 27.682797 
L 341.209819 27.682797 
L 341.28661 27.180349 
L 341.384627 27.180349 
L 341.457936 26.6779 
L 341.773618 26.6779 
L 341.773618 26.426675 
L 342.324371 26.426675 
L 342.324371 26.175451 
L 342.537245 26.175451 
L 342.537245 25.421778 
L 343.45554 25.421778 
L 343.45554 25.170553 
L 343.682598 25.170553 
L 343.682598 24.668105 
L 343.911746 24.668105 
L 343.911746 24.41688 
L 344.031103 24.41688 
L 344.031103 24.165656 
L 345.686344 24.165656 
L 345.758124 23.160758 
L 346.165134 23.160758 
L 346.165134 22.909534 
L 346.64659 22.909534 
L 346.64659 22.658309 
L 347.311762 22.658309 
L 347.311762 22.407085 
L 348.96405 22.407085 
L 348.96405 22.155861 
L 349.24191 22.155861 
L 349.24191 21.904636 
L 349.888687 21.904636 
L 349.888687 21.653412 
L 350.108346 21.653412 
L 350.108346 21.402187 
L 351.080851 21.402187 
L 351.080851 21.150963 
L 353.845102 21.150963 
L 353.943118 20.648514 
L 354.33211 20.648514 
L 354.33211 20.39729 
L 355.095737 20.39729 
L 355.095737 19.141168 
L 356.493716 19.141168 
L 356.493716 18.889943 
L 356.748025 18.889943 
L 356.792686 18.387495 
L 357.147682 18.387495 
L 357.147682 16.880148 
L 358.696658 16.880148 
L 358.696658 16.126475 
L 359.151955 16.126475 
L 359.196234 15.121577 
L 359.360984 15.121577 
L 359.360984 14.870353 
L 359.574441 14.870353 
L 359.574441 14.619129 
L 361.364111 14.619129 
L 361.364111 14.367904 
L 361.629077 14.367904 
L 361.727093 13.865455 
L 362.116084 13.865455 
L 362.116084 13.614231 
L 362.285634 13.614231 
L 362.285634 13.363007 
L 362.447179 13.363007 
L 362.447179 13.111782 
L 363.877058 13.111782 
L 363.877058 12.860558 
L 365.151481 12.860558 
L 365.151481 12.358109 
L 367.573306 12.358109 
L 367.573306 12.106885 
L 369.052208 12.106885 
L 369.052208 11.85566 
L 369.351178 11.85566 
L 369.351178 11.604436 
L 369.706174 11.604436 
L 369.706174 11.101987 
L 370.231153 11.101987 
L 370.231153 10.850763 
L 371.255149 10.850763 
L 371.255149 10.348314 
L 371.754725 10.348314 
L 371.754725 9.845865 
L 371.919476 9.845865 
L 371.919476 9.594641 
L 374.844125 9.594641 
L 374.844125 9.343416 
L 376.484963 9.343416 
L 376.56462 8.338519 
L 376.836183 8.338519 
L 376.90745 7.83607 
L 377.135153 7.83607 
L 377.135153 7.584845 
L 379.703451 7.584845 
L 379.703451 7.333621 
L 381.210066 7.333621 
L 381.210066 7.082397 
L 382.6281 7.082397 
L 382.6281 6.831172 
L 384.906314 6.831172 
L 384.906314 6.579948 
L 386.620364 6.579948 
L 386.620364 5.826275 
L 453.192 5.826275 
L 453.192 5.826275 
" style="fill:none;stroke:#000000;stroke-linecap:square;stroke-width:3;"/>
   </g>
   <g id="line2d_63">
    <path clip-path="url(#p86ee5f0c0f)" style="fill:none;stroke:#000000;stroke-linecap:square;stroke-width:3;"/>
   </g>
   <g id="line2d_64">
    <path clip-path="url(#p86ee5f0c0f)" d="M 34.16 213.259266 
L 219.980951 213.259266 
L 219.980951 212.827114 
L 222.032393 212.827114 
L 222.032393 212.394962 
L 226.160609 212.394962 
L 226.160609 211.96281 
L 231.007046 211.96281 
L 231.007046 211.530658 
L 233.013222 211.530658 
L 233.013222 211.098506 
L 236.538641 211.098506 
L 236.538641 210.666354 
L 238.954844 210.666354 
L 238.954844 210.234202 
L 242.680577 210.234202 
L 242.680577 209.80205 
L 243.008483 209.80205 
L 243.008483 209.369897 
L 245.456319 209.369897 
L 245.456319 208.937745 
L 248.37436 208.937745 
L 248.37436 208.505593 
L 248.662458 208.505593 
L 248.662458 208.073441 
L 250.7139 208.073441 
L 250.7139 207.641289 
L 250.925519 207.641289 
L 250.925519 207.209137 
L 253.581214 207.209137 
L 253.581214 206.776985 
L 254.842116 206.776985 
L 254.842116 206.344833 
L 255.635471 206.344833 
L 255.635471 205.912681 
L 255.785726 205.912681 
L 255.785726 205.480529 
L 257.686913 205.480529 
L 257.686913 205.048377 
L 259.688553 205.048377 
L 259.688553 204.616225 
L 261.694729 204.616225 
L 261.694729 204.184073 
L 261.815129 204.184073 
L 261.815129 203.751921 
L 262.092784 203.751921 
L 262.092784 203.319769 
L 263.361714 203.319769 
L 263.361714 202.887616 
L 263.490521 202.887616 
L 263.490521 202.455464 
L 264.144227 202.455464 
L 264.144227 202.023312 
L 265.220148 202.023312 
L 265.220148 201.59116 
L 265.413156 201.59116 
L 265.413156 201.159008 
L 265.541963 201.159008 
L 265.541963 200.726856 
L 266.661566 200.726856 
L 266.661566 200.294704 
L 267.636351 200.294704 
L 267.636351 199.862552 
L 268.272442 199.862552 
L 268.272442 199.4304 
L 268.667742 199.4304 
L 268.667742 198.998248 
L 269.541372 198.998248 
L 269.541372 198.566096 
L 269.670179 198.566096 
L 269.670179 198.133944 
L 271.362084 198.133944 
L 271.362084 197.701792 
L 271.68999 197.701792 
L 271.68999 197.26964 
L 272.193161 197.26964 
L 272.193161 196.837488 
L 273.118879 196.837488 
L 273.118879 196.405335 
L 274.137826 196.405335 
L 274.137826 195.973183 
L 274.387809 195.973183 
L 274.387809 195.541031 
L 274.516616 195.541031 
L 274.609364 194.676727 
L 275.125055 194.676727 
L 275.125055 194.244575 
L 276.393985 194.244575 
L 276.393985 193.812423 
L 276.522792 193.812423 
L 276.522792 193.380271 
L 277.055867 193.380271 
L 277.055867 192.948119 
L 278.335098 192.948119 
L 278.335098 192.515967 
L 278.650475 192.515967 
L 278.663003 191.651663 
L 278.872006 191.651663 
L 278.872006 191.219511 
L 279.607026 191.219511 
L 279.607026 190.787359 
L 279.919404 190.787359 
L 279.919404 190.355207 
L 280.048211 190.355207 
L 280.048211 189.923055 
L 280.923448 189.923055 
L 280.923448 189.490902 
L 281.066677 189.490902 
L 281.110839 188.626598 
L 282.26272 188.626598 
L 282.335607 187.762294 
L 282.464414 187.762294 
L 282.464414 187.330142 
L 284.02888 187.330142 
L 284.02888 186.89799 
L 284.467233 186.89799 
L 284.467233 186.465838 
L 284.792411 186.465838 
L 284.792411 186.033686 
L 285.051663 186.033686 
L 285.120317 185.169382 
L 286.06134 185.169382 
L 286.06134 184.73723 
L 286.190147 184.73723 
L 286.190147 184.305078 
L 286.389246 184.305078 
L 286.389246 183.872926 
L 286.518053 183.872926 
L 286.58004 183.008621 
L 287.568153 183.008621 
L 287.568153 182.576469 
L 288.837082 182.576469 
L 288.837082 182.144317 
L 288.965889 182.144317 
L 288.965889 181.712165 
L 289.235734 181.712165 
L 289.235734 181.280013 
L 289.898101 181.280013 
L 289.898101 180.847861 
L 290.486193 180.847861 
L 290.486193 180.415709 
L 291.440246 180.415709 
L 291.440246 179.983557 
L 291.755123 179.983557 
L 291.755123 179.551405 
L 291.88393 179.551405 
L 291.904277 178.687101 
L 293.037353 178.687101 
L 293.037353 178.254949 
L 294.306283 178.254949 
L 294.306283 177.822797 
L 294.435089 177.822797 
L 294.435089 177.390645 
L 295.429696 177.390645 
L 295.429696 176.958493 
L 295.693047 176.958493 
L 295.693047 176.52634 
L 296.961977 176.52634 
L 296.961977 176.094188 
L 297.090784 176.094188 
L 297.090784 175.662036 
L 297.845898 175.662036 
L 297.89756 174.797732 
L 299.166489 174.797732 
L 299.166489 174.36558 
L 299.295296 174.36558 
L 299.295296 173.933428 
L 301.571632 173.933428 
L 301.571632 173.501276 
L 301.899538 173.501276 
L 301.899538 173.069124 
L 303.956228 173.069124 
L 303.956228 172.636972 
L 304.347374 172.636972 
L 304.347374 172.20482 
L 305.03366 172.20482 
L 305.03366 171.772668 
L 307.265415 171.772668 
L 307.307933 170.908364 
L 307.422111 170.908364 
L 307.422111 170.476212 
L 308.305211 170.476212 
L 308.305211 170.044059 
L 308.499543 170.044059 
L 308.499543 169.611907 
L 308.819113 169.611907 
L 308.819113 169.179755 
L 309.382643 169.179755 
L 309.382643 168.747603 
L 309.816574 168.747603 
L 309.816574 168.315451 
L 310.773816 168.315451 
L 310.773816 167.883299 
L 311.656916 167.883299 
L 311.740202 167.018995 
L 312.284996 167.018995 
L 312.284996 166.586843 
L 312.472268 166.586843 
L 312.472268 166.154691 
L 313.168096 166.154691 
L 313.168096 165.722539 
L 313.400651 165.722539 
L 313.400651 165.290387 
L 314.590308 165.290387 
L 314.676781 164.426083 
L 315.206086 164.426083 
L 315.206086 163.993931 
L 316.089186 163.993931 
L 316.092836 163.129626 
L 316.813978 163.129626 
L 316.866534 162.265322 
L 317.015103 162.265322 
L 317.015103 161.83317 
L 317.170268 161.83317 
L 317.170268 161.401018 
L 317.749634 161.401018 
L 317.749634 160.968866 
L 318.056192 160.968866 
L 318.056192 160.536714 
L 318.322873 160.536714 
L 318.429677 159.67241 
L 318.939292 159.67241 
L 318.939292 159.240258 
L 319.400305 159.240258 
L 319.507109 157.943802 
L 319.853577 157.943802 
L 319.853577 157.51165 
L 320.279861 157.51165 
L 320.302877 156.647345 
L 320.480986 156.647345 
L 320.480986 156.215193 
L 320.931009 156.215193 
L 320.955721 155.350889 
L 321.162961 155.350889 
L 321.162961 154.918737 
L 321.364086 154.918737 
L 321.398413 153.622281 
L 321.674578 153.622281 
L 321.781382 152.757977 
L 322.475845 152.757977 
L 322.475845 152.325825 
L 323.185758 152.325825 
L 323.292562 151.029369 
L 323.654581 151.029369 
L 323.654581 150.597217 
L 323.876811 150.597217 
L 323.876811 150.165064 
L 324.716462 150.165064 
L 324.750117 149.30076 
L 324.905664 149.30076 
L 324.905664 148.868608 
L 325.165762 148.868608 
L 325.165762 148.436456 
L 325.537259 148.436456 
L 325.543032 147.572152 
L 325.983097 147.572152 
L 325.983097 147.14 
L 326.106848 147.14 
L 326.213652 146.275696 
L 326.261298 146.275696 
L 326.261298 145.843544 
L 326.620464 145.843544 
L 326.726917 144.97924 
L 326.870059 144.97924 
L 326.870059 144.547088 
L 327.637552 144.547088 
L 327.637552 144.114936 
L 327.767296 144.114936 
L 327.8741 143.250631 
L 327.947491 143.250631 
L 327.947491 142.818479 
L 328.086851 142.818479 
L 328.086851 142.386327 
L 328.22038 142.386327 
L 328.257369 141.522023 
L 328.894737 141.522023 
L 328.956954 140.225567 
L 329.063758 140.225567 
L 329.151711 139.361263 
L 329.182387 139.361263 
L 329.182387 138.929111 
L 329.297812 138.929111 
L 329.298 138.064807 
L 329.747299 138.064807 
L 329.76855 137.200502 
L 330.221764 137.200502 
L 330.221764 136.76835 
L 330.405917 136.76835 
L 330.487658 135.904046 
L 330.842835 135.904046 
L 330.936957 135.039742 
L 331.180624 135.039742 
L 331.287427 134.175438 
L 331.381748 134.175438 
L 331.488552 133.311134 
L 331.572085 133.311134 
L 331.572085 132.878982 
L 331.732944 132.878982 
L 331.732944 132.44683 
L 332.032493 132.44683 
L 332.032493 132.014678 
L 332.689639 132.014678 
L 332.711327 131.150374 
L 332.912452 131.150374 
L 332.912452 130.718222 
L 333.083265 130.718222 
L 333.160627 129.853917 
L 333.327006 129.853917 
L 333.361751 128.989613 
L 334.019473 128.989613 
L 334.019473 128.557461 
L 334.256163 128.557461 
L 334.350087 127.693157 
L 334.457287 127.693157 
L 334.457287 127.261005 
L 334.654033 127.261005 
L 334.654033 126.828853 
L 334.987455 126.828853 
L 334.987455 126.396701 
L 335.539745 126.396701 
L 335.539745 125.964549 
L 336.004355 125.964549 
L 336.070915 125.100245 
L 336.177112 125.100245 
L 336.177112 124.668093 
L 336.314482 124.668093 
L 336.314482 124.235941 
L 337.504139 124.235941 
L 337.504139 123.803788 
L 337.664803 123.803788 
L 337.763415 122.939484 
L 337.964539 122.939484 
L 337.964539 122.507332 
L 338.400782 122.507332 
L 338.400782 122.07518 
L 338.601906 122.07518 
L 338.601906 121.643028 
L 338.854461 121.643028 
L 338.854461 121.210876 
L 339.727809 121.210876 
L 339.727809 120.778724 
L 339.928934 120.778724 
L 339.928934 120.346572 
L 340.199131 120.346572 
L 340.199131 119.91442 
L 341.07813 119.91442 
L 341.07813 119.482268 
L 341.26867 119.482268 
L 341.279255 118.617964 
L 342.346102 118.617964 
L 342.346102 118.185812 
L 344.620375 118.185812 
L 344.620375 117.75366 
L 345.045568 117.75366 
L 345.045568 117.321507 
L 345.877999 117.321507 
L 345.877999 116.889355 
L 346.131555 116.889355 
L 346.131555 116.457203 
L 346.955431 116.457203 
L 347.051744 115.592899 
L 349.052645 115.592899 
L 349.052645 115.160747 
L 349.229704 115.160747 
L 349.229704 114.728595 
L 349.361089 114.728595 
L 349.361089 114.296443 
L 350.577163 114.296443 
L 350.577163 113.864291 
L 350.713093 113.864291 
L 350.740884 112.999987 
L 351.412531 112.999987 
L 351.412531 112.567835 
L 351.902751 112.567835 
L 351.902751 112.135683 
L 352.993366 112.135683 
L 352.993366 111.703531 
L 353.661974 111.703531 
L 353.661974 111.271379 
L 354.126421 111.271379 
L 354.126421 110.839226 
L 354.327545 110.839226 
L 354.327545 110.407074 
L 355.322422 110.407074 
L 355.322422 109.974922 
L 355.540747 109.974922 
L 355.540747 109.54277 
L 356.51208 109.54277 
L 356.51208 109.110618 
L 356.719099 109.110618 
L 356.719099 108.678466 
L 357.047005 108.678466 
L 357.047005 108.246314 
L 358.73575 108.246314 
L 358.73575 107.814162 
L 358.936874 107.814162 
L 358.936874 107.38201 
L 359.494841 107.38201 
L 359.494841 106.949858 
L 360.387184 106.949858 
L 360.387184 106.517706 
L 362.39336 106.517706 
L 362.412882 105.653402 
L 364.964042 105.653402 
L 364.964042 105.22125 
L 365.918779 105.22125 
L 365.918779 104.789098 
L 367.619736 104.789098 
L 367.619736 104.356945 
L 368.334982 104.356945 
L 368.334982 103.924793 
L 369.824248 103.924793 
L 369.824248 103.492641 
L 372.060716 103.492641 
L 372.060716 103.060489 
L 372.388622 103.060489 
L 372.388622 102.628337 
L 374.836457 102.628337 
L 374.836457 102.196185 
L 377.754498 102.196185 
L 377.754498 101.764033 
L 380.305658 101.764033 
L 380.305658 101.331881 
L 382.961352 101.331881 
L 382.961352 100.899729 
L 385.165865 100.899729 
L 385.165865 100.467577 
L 453.192 100.467577 
L 453.192 100.467577 
" style="fill:none;stroke:#00bfbf;stroke-linecap:square;stroke-width:3;"/>
   </g>
   <g id="line2d_65">
    <path clip-path="url(#p86ee5f0c0f)" style="fill:none;stroke:#00bfbf;stroke-linecap:square;stroke-width:3;"/>
   </g>
   <g id="line2d_66">
    <path clip-path="url(#p86ee5f0c0f)" d="M 34.16 238.367848 
L 211.021518 238.367848 
L 211.021518 237.771588 
L 216.11125 237.771588 
L 216.20137 236.579067 
L 220.233416 236.579067 
L 220.233416 235.982806 
L 220.727853 235.982806 
L 220.727853 235.386546 
L 221.291102 235.386546 
L 221.291102 234.790285 
L 225.207445 234.790285 
L 225.207445 234.194025 
L 225.413268 234.194025 
L 225.413268 233.597765 
L 225.693821 233.597765 
L 225.693821 233.001504 
L 225.817586 233.001504 
L 225.817586 232.405244 
L 228.531804 232.405244 
L 228.531804 231.808983 
L 229.939751 231.808983 
L 229.939751 231.212723 
L 230.229413 231.212723 
L 230.297177 230.020202 
L 230.783554 230.020202 
L 230.783554 229.423941 
L 231.794791 229.423941 
L 231.794791 228.827681 
L 233.621536 228.827681 
L 233.621536 228.231421 
L 234.287584 228.231421 
L 234.287584 227.63516 
L 234.419343 227.63516 
L 234.419343 227.0389 
L 234.905719 227.0389 
L 234.905719 226.442639 
L 235.319146 226.442639 
L 235.319146 225.846379 
L 236.452415 225.846379 
L 236.452415 225.250118 
L 236.632298 225.250118 
L 236.632298 224.653858 
L 236.884523 224.653858 
L 236.884523 224.057597 
L 237.743702 224.057597 
L 237.743702 223.461337 
L 238.743319 223.461337 
L 238.743319 222.865077 
L 239.376815 222.865077 
L 239.441311 221.076295 
L 239.989567 221.076295 
L 239.989567 220.480035 
L 241.006689 220.480035 
L 241.006689 219.883774 
L 241.542147 219.883774 
L 241.542147 219.287514 
L 241.72203 219.287514 
L 241.72203 218.691253 
L 243.499482 218.691253 
L 243.499482 218.094993 
L 243.833051 218.094993 
L 243.833051 217.498733 
L 244.466547 217.498733 
L 244.534541 216.306212 
L 245.079299 216.306212 
L 245.079299 215.709951 
L 245.664313 215.709951 
L 245.664313 215.113691 
L 245.844196 215.113691 
L 245.844196 214.51743 
L 247.955217 214.51743 
L 247.955217 213.92117 
L 248.588713 213.92117 
L 248.588713 213.324909 
L 249.201465 213.324909 
L 249.201465 212.728649 
L 249.714393 212.728649 
L 249.714393 212.132389 
L 254.240876 212.132389 
L 254.292547 210.939868 
L 258.689065 210.939868 
L 258.720468 209.747347 
L 259.206844 209.747347 
L 259.206844 209.151086 
L 259.472399 209.151086 
L 259.472399 208.554826 
L 262.044827 208.554826 
L 262.044827 207.958565 
L 263.742436 207.958565 
L 263.742436 207.362305 
L 263.868917 207.362305 
L 263.868917 206.766045 
L 263.998883 206.766045 
L 263.998883 206.169784 
L 265.307814 206.169784 
L 265.307814 205.573524 
L 266.724206 205.573524 
L 266.724206 204.977263 
L 267.800607 204.977263 
L 267.800607 204.381003 
L 268.3954 204.381003 
L 268.478474 203.188482 
L 268.964851 203.188482 
L 268.964851 202.592221 
L 269.965438 202.592221 
L 269.965438 201.995961 
L 270.145321 201.995961 
L 270.145321 201.399701 
L 271.802833 201.399701 
L 271.904058 200.20718 
L 272.256342 200.20718 
L 272.256342 199.610919 
L 272.874992 199.610919 
L 272.889838 198.418398 
L 273.361368 198.418398 
L 273.449579 197.225877 
L 273.500442 197.225877 
L 273.50259 196.033356 
L 275.06582 196.033356 
L 275.06582 195.437096 
L 276.199351 195.437096 
L 276.199351 194.840836 
L 276.430542 194.840836 
L 276.430542 194.244575 
L 277.558613 194.244575 
L 277.558613 193.648315 
L 277.89696 193.648315 
L 277.89696 193.052054 
L 278.629431 193.052054 
L 278.629431 192.455794 
L 279.462338 192.455794 
L 279.462338 191.859533 
L 279.723444 191.859533 
L 279.723444 191.263273 
L 279.903327 191.263273 
L 279.903327 190.667012 
L 280.910133 190.667012 
L 280.910133 190.070752 
L 281.39651 190.070752 
L 281.39651 189.474492 
L 281.955131 189.474492 
L 282.014348 188.281971 
L 282.647844 188.281971 
L 282.647844 187.68571 
L 283.155915 187.68571 
L 283.260596 186.493189 
L 284.119962 186.493189 
L 284.119962 185.896929 
L 284.234492 185.896929 
L 284.299845 184.704408 
L 285.932101 184.704408 
L 285.932101 184.108148 
L 286.410866 184.108148 
L 286.410866 183.511887 
L 287.044362 183.511887 
L 287.044362 182.915627 
L 287.497479 182.915627 
L 287.497479 182.319366 
L 287.635506 182.319366 
L 287.657114 181.126845 
L 288.121883 181.126845 
L 288.121883 180.530585 
L 289.990272 180.530585 
L 289.990272 179.934324 
L 290.959865 179.934324 
L 290.959865 179.338064 
L 292.155103 179.338064 
L 292.155103 178.741804 
L 292.334986 178.741804 
L 292.334986 178.145543 
L 292.657474 178.145543 
L 292.657474 177.549283 
L 294.222852 177.549283 
L 294.222852 176.953022 
L 294.446007 176.953022 
L 294.446007 176.356762 
L 295.079503 176.356762 
L 295.079503 175.760501 
L 295.692255 175.760501 
L 295.692255 175.164241 
L 296.715645 175.164241 
L 296.715645 174.56798 
L 298.880476 174.56798 
L 298.880476 173.97172 
L 299.060359 173.97172 
L 299.060359 173.37546 
L 301.17138 173.37546 
L 301.17138 172.779199 
L 301.804876 172.779199 
L 301.804876 172.182939 
L 302.417628 172.182939 
L 302.417628 171.586678 
L 324.848857 171.586678 
L 324.848857 170.990418 
L 330.028709 170.990418 
L 330.028709 170.394157 
L 334.555192 170.394157 
L 334.555192 169.797897 
L 339.034784 169.797897 
L 339.034784 169.201636 
L 339.521161 169.201636 
L 339.521161 168.605376 
L 342.359143 168.605376 
L 342.359143 168.009116 
L 344.056752 168.009116 
L 344.056752 167.412855 
L 345.62213 167.412855 
L 345.62213 166.816595 
L 348.114923 166.816595 
L 348.114923 166.220334 
L 350.279754 166.220334 
L 350.279754 165.624074 
L 350.459637 165.624074 
L 350.459637 165.027813 
L 352.570658 165.027813 
L 352.570658 164.431553 
L 353.204154 164.431553 
L 353.204154 163.835292 
L 353.816906 163.835292 
L 353.816906 163.239032 
L 453.192 163.239032 
L 453.192 163.239032 
" style="fill:none;stroke:#bf00bf;stroke-linecap:square;stroke-width:3;"/>
   </g>
   <g id="line2d_67">
    <path clip-path="url(#p86ee5f0c0f)" style="fill:none;stroke:#bf00bf;stroke-linecap:square;stroke-width:3;"/>
   </g>
   <g id="line2d_68">
    <path clip-path="url(#p86ee5f0c0f)" d="M 34.16 273.016092 
L 226.517276 273.016092 
L 226.517276 271.828581 
L 272.130232 271.828581 
L 272.130232 270.641071 
L 453.192 270.641071 
" style="fill:none;stroke:#ff0000;stroke-linecap:square;stroke-width:3;"/>
   </g>
   <g id="line2d_69">
    <path clip-path="url(#p86ee5f0c0f)" style="fill:none;stroke:#ff0000;stroke-linecap:square;stroke-width:3;"/>
   </g>
   <g id="line2d_70">
    <path clip-path="url(#p86ee5f0c0f)" d="M 243.676 291.28 
L 243.676 3 
" style="fill:none;stroke:#000000;stroke-linecap:square;stroke-width:1.5;"/>
   </g>
   <g id="line2d_71">
    <path clip-path="url(#p86ee5f0c0f)" d="M 34.16 147.14 
L 453.192 147.14 
" style="fill:none;stroke:#000000;stroke-dasharray:2,3.3;stroke-dashoffset:0;stroke-width:2;"/>
   </g>
   <g id="patch_3">
    <path d="M 34.16 291.28 
L 34.16 3 
" style="fill:none;stroke:#000000;stroke-linecap:square;stroke-linejoin:miter;stroke-width:0.8;"/>
   </g>
   <g id="patch_4">
    <path d="M 453.192 291.28 
L 453.192 3 
" style="fill:none;stroke:#000000;stroke-linecap:square;stroke-linejoin:miter;stroke-width:0.8;"/>
   </g>
   <g id="patch_5">
    <path d="M 34.16 291.28 
L 453.192 291.28 
" style="fill:none;stroke:#000000;stroke-linecap:square;stroke-linejoin:miter;stroke-width:0.8;"/>
   </g>
   <g id="patch_6">
    <path d="M 34.16 3 
L 453.192 3 
" style="fill:none;stroke:#000000;stroke-linecap:square;stroke-linejoin:miter;stroke-width:0.8;"/>
   </g>
   <g id="text_5">
    <!-- f15-f19,5-D -->
    <g transform="translate(330.91761 285.5144)scale(0.2 -0.2)">
     <defs>
      <path d="M 691 4666 
L 3169 4666 
L 3169 4134 
L 1269 4134 
L 1269 2991 
Q 1406 3038 1543 3061 
Q 1681 3084 1819 3084 
Q 2600 3084 3056 2656 
Q 3513 2228 3513 1497 
Q 3513 744 3044 326 
Q 2575 -91 1722 -91 
Q 1428 -91 1123 -41 
Q 819 9 494 109 
L 494 744 
Q 775 591 1075 516 
Q 1375 441 1709 441 
Q 2250 441 2565 725 
Q 2881 1009 2881 1497 
Q 2881 1984 2565 2268 
Q 2250 2553 1709 2553 
Q 1456 2553 1204 2497 
Q 953 2441 691 2322 
L 691 4666 
z
" id="DejaVuSans-35" transform="scale(0.015625)"/>
      <path d="M 703 97 
L 703 672 
Q 941 559 1184 500 
Q 1428 441 1663 441 
Q 2288 441 2617 861 
Q 2947 1281 2994 2138 
Q 2813 1869 2534 1725 
Q 2256 1581 1919 1581 
Q 1219 1581 811 2004 
Q 403 2428 403 3163 
Q 403 3881 828 4315 
Q 1253 4750 1959 4750 
Q 2769 4750 3195 4129 
Q 3622 3509 3622 2328 
Q 3622 1225 3098 567 
Q 2575 -91 1691 -91 
Q 1453 -91 1209 -44 
Q 966 3 703 97 
z
M 1959 2075 
Q 2384 2075 2632 2365 
Q 2881 2656 2881 3163 
Q 2881 3666 2632 3958 
Q 2384 4250 1959 4250 
Q 1534 4250 1286 3958 
Q 1038 3666 1038 3163 
Q 1038 2656 1286 2365 
Q 1534 2075 1959 2075 
z
" id="DejaVuSans-39" transform="scale(0.015625)"/>
      <path d="M 750 794 
L 1409 794 
L 1409 256 
L 897 -744 
L 494 -744 
L 750 256 
L 750 794 
z
" id="DejaVuSans-2c" transform="scale(0.015625)"/>
      <path d="M 1259 4147 
L 1259 519 
L 2022 519 
Q 2988 519 3436 956 
Q 3884 1394 3884 2338 
Q 3884 3275 3436 3711 
Q 2988 4147 2022 4147 
L 1259 4147 
z
M 628 4666 
L 1925 4666 
Q 3281 4666 3915 4102 
Q 4550 3538 4550 2338 
Q 4550 1131 3912 565 
Q 3275 0 1925 0 
L 628 0 
L 628 4666 
z
" id="DejaVuSans-44" transform="scale(0.015625)"/>
     </defs>
     <use xlink:href="#DejaVuSans-66"/>
     <use x="35.205078" xlink:href="#DejaVuSans-31"/>
     <use x="98.828125" xlink:href="#DejaVuSans-35"/>
     <use x="162.451172" xlink:href="#DejaVuSans-2d"/>
     <use x="198.535156" xlink:href="#DejaVuSans-66"/>
     <use x="233.740234" xlink:href="#DejaVuSans-31"/>
     <use x="297.363281" xlink:href="#DejaVuSans-39"/>
     <use x="360.986328" xlink:href="#DejaVuSans-2c"/>
     <use x="392.773438" xlink:href="#DejaVuSans-35"/>
     <use x="456.396484" xlink:href="#DejaVuSans-2d"/>
     <use x="492.480469" xlink:href="#DejaVuSans-44"/>
    </g>
   </g>
   <g id="text_6">
    <!-- v2.6 -->
    <g style="fill:#808080;" transform="translate(232.765062 286.317512)scale(0.1 -0.1)">
     <defs>
      <path d="M 1228 531 
L 3431 531 
L 3431 0 
L 469 0 
L 469 531 
Q 828 903 1448 1529 
Q 2069 2156 2228 2338 
Q 2531 2678 2651 2914 
Q 2772 3150 2772 3378 
Q 2772 3750 2511 3984 
Q 2250 4219 1831 4219 
Q 1534 4219 1204 4116 
Q 875 4013 500 3803 
L 500 4441 
Q 881 4594 1212 4672 
Q 1544 4750 1819 4750 
Q 2544 4750 2975 4387 
Q 3406 4025 3406 3419 
Q 3406 3131 3298 2873 
Q 3191 2616 2906 2266 
Q 2828 2175 2409 1742 
Q 1991 1309 1228 531 
z
" id="DejaVuSans-32" transform="scale(0.015625)"/>
      <path d="M 684 794 
L 1344 794 
L 1344 0 
L 684 0 
L 684 794 
z
" id="DejaVuSans-2e" transform="scale(0.015625)"/>
      <path d="M 2113 2584 
Q 1688 2584 1439 2293 
Q 1191 2003 1191 1497 
Q 1191 994 1439 701 
Q 1688 409 2113 409 
Q 2538 409 2786 701 
Q 3034 994 3034 1497 
Q 3034 2003 2786 2293 
Q 2538 2584 2113 2584 
z
M 3366 4563 
L 3366 3988 
Q 3128 4100 2886 4159 
Q 2644 4219 2406 4219 
Q 1781 4219 1451 3797 
Q 1122 3375 1075 2522 
Q 1259 2794 1537 2939 
Q 1816 3084 2150 3084 
Q 2853 3084 3261 2657 
Q 3669 2231 3669 1497 
Q 3669 778 3244 343 
Q 2819 -91 2113 -91 
Q 1303 -91 875 529 
Q 447 1150 447 2328 
Q 447 3434 972 4092 
Q 1497 4750 2381 4750 
Q 2619 4750 2861 4703 
Q 3103 4656 3366 4563 
z
" id="DejaVuSans-36" transform="scale(0.015625)"/>
     </defs>
     <use xlink:href="#DejaVuSans-76"/>
     <use x="59.179688" xlink:href="#DejaVuSans-32"/>
     <use x="122.802734" xlink:href="#DejaVuSans-2e"/>
     <use x="154.589844" xlink:href="#DejaVuSans-36"/>
    </g>
   </g>
   <g id="legend_1">
    <g id="patch_7">
     <path d="M 48.16 136.425 
L 177.381875 136.425 
Q 181.381875 136.425 181.381875 132.425 
L 181.381875 17 
Q 181.381875 13 177.381875 13 
L 48.16 13 
Q 44.16 13 44.16 17 
L 44.16 132.425 
Q 44.16 136.425 48.16 136.425 
z
" style="fill:#ffffff;opacity:0.2;stroke:#cccccc;stroke-linejoin:miter;"/>
    </g>
    <g id="line2d_72">
     <path d="M 52.16 29.196875 
L 92.16 29.196875 
" style="fill:none;stroke:#000000;stroke-linecap:square;stroke-width:3;"/>
    </g>
    <g id="line2d_73"/>
    <g id="text_7">
     <!-- 1: 5/5 -->
     <g transform="translate(108.16 36.196875)scale(0.2 -0.2)">
      <defs>
       <path d="M 750 794 
L 1409 794 
L 1409 0 
L 750 0 
L 750 794 
z
M 750 3309 
L 1409 3309 
L 1409 2516 
L 750 2516 
L 750 3309 
z
" id="DejaVuSans-3a" transform="scale(0.015625)"/>
       <path d="M 1625 4666 
L 2156 4666 
L 531 -594 
L 0 -594 
L 1625 4666 
z
" id="DejaVuSans-2f" transform="scale(0.015625)"/>
      </defs>
      <use xlink:href="#DejaVuSans-31"/>
      <use x="63.623047" xlink:href="#DejaVuSans-3a"/>
      <use x="97.314453" xlink:href="#DejaVuSans-20"/>
      <use x="129.101562" xlink:href="#DejaVuSans-35"/>
      <use x="192.724609" xlink:href="#DejaVuSans-2f"/>
      <use x="226.416016" xlink:href="#DejaVuSans-35"/>
     </g>
    </g>
    <g id="line2d_74">
     <path d="M 52.16 58.553125 
L 92.16 58.553125 
" style="fill:none;stroke:#00bfbf;stroke-linecap:square;stroke-width:3;"/>
    </g>
    <g id="line2d_75"/>
    <g id="text_8">
     <!-- -1: 2/5 -->
     <g transform="translate(108.16 65.553125)scale(0.2 -0.2)">
      <use xlink:href="#DejaVuSans-2d"/>
      <use x="36.083984" xlink:href="#DejaVuSans-31"/>
      <use x="99.707031" xlink:href="#DejaVuSans-3a"/>
      <use x="133.398438" xlink:href="#DejaVuSans-20"/>
      <use x="165.185547" xlink:href="#DejaVuSans-32"/>
      <use x="228.808594" xlink:href="#DejaVuSans-2f"/>
      <use x="262.5" xlink:href="#DejaVuSans-35"/>
     </g>
    </g>
    <g id="line2d_76">
     <path d="M 52.16 87.909375 
L 92.16 87.909375 
" style="fill:none;stroke:#bf00bf;stroke-linecap:square;stroke-width:3;"/>
    </g>
    <g id="line2d_77"/>
    <g id="text_9">
     <!-- -4: 1/4 -->
     <g transform="translate(108.16 94.909375)scale(0.2 -0.2)">
      <defs>
       <path d="M 2419 4116 
L 825 1625 
L 2419 1625 
L 2419 4116 
z
M 2253 4666 
L 3047 4666 
L 3047 1625 
L 3713 1625 
L 3713 1100 
L 3047 1100 
L 3047 0 
L 2419 0 
L 2419 1100 
L 313 1100 
L 313 1709 
L 2253 4666 
z
" id="DejaVuSans-34" transform="scale(0.015625)"/>
      </defs>
      <use xlink:href="#DejaVuSans-2d"/>
      <use x="36.083984" xlink:href="#DejaVuSans-34"/>
      <use x="99.707031" xlink:href="#DejaVuSans-3a"/>
      <use x="133.398438" xlink:href="#DejaVuSans-20"/>
      <use x="165.185547" xlink:href="#DejaVuSans-31"/>
      <use x="228.808594" xlink:href="#DejaVuSans-2f"/>
      <use x="262.5" xlink:href="#DejaVuSans-34"/>
     </g>
    </g>
    <g id="line2d_78">
     <path d="M 52.16 117.265625 
L 92.16 117.265625 
" style="fill:none;stroke:#ff0000;stroke-linecap:square;stroke-width:3;"/>
    </g>
    <g id="line2d_79"/>
    <g id="text_10">
     <!-- -8: 1/4 -->
     <g transform="translate(108.16 124.265625)scale(0.2 -0.2)">
      <defs>
       <path d="M 2034 2216 
Q 1584 2216 1326 1975 
Q 1069 1734 1069 1313 
Q 1069 891 1326 650 
Q 1584 409 2034 409 
Q 2484 409 2743 651 
Q 3003 894 3003 1313 
Q 3003 1734 2745 1975 
Q 2488 2216 2034 2216 
z
M 1403 2484 
Q 997 2584 770 2862 
Q 544 3141 544 3541 
Q 544 4100 942 4425 
Q 1341 4750 2034 4750 
Q 2731 4750 3128 4425 
Q 3525 4100 3525 3541 
Q 3525 3141 3298 2862 
Q 3072 2584 2669 2484 
Q 3125 2378 3379 2068 
Q 3634 1759 3634 1313 
Q 3634 634 3220 271 
Q 2806 -91 2034 -91 
Q 1263 -91 848 271 
Q 434 634 434 1313 
Q 434 1759 690 2068 
Q 947 2378 1403 2484 
z
M 1172 3481 
Q 1172 3119 1398 2916 
Q 1625 2713 2034 2713 
Q 2441 2713 2670 2916 
Q 2900 3119 2900 3481 
Q 2900 3844 2670 4047 
Q 2441 4250 2034 4250 
Q 1625 4250 1398 4047 
Q 1172 3844 1172 3481 
z
" id="DejaVuSans-38" transform="scale(0.015625)"/>
      </defs>
      <use xlink:href="#DejaVuSans-2d"/>
      <use x="36.083984" xlink:href="#DejaVuSans-38"/>
      <use x="99.707031" xlink:href="#DejaVuSans-3a"/>
      <use x="133.398438" xlink:href="#DejaVuSans-20"/>
      <use x="165.185547" xlink:href="#DejaVuSans-31"/>
      <use x="228.808594" xlink:href="#DejaVuSans-2f"/>
      <use x="262.5" xlink:href="#DejaVuSans-34"/>
     </g>
    </g>
   </g>
  </g>
 </g>
 <defs>
  <clipPath id="p86ee5f0c0f">
   <rect height="288.28" width="419.032" x="34.16" y="3"/>
  </clipPath>
 </defs>
</svg>
