<?xml version="1.0" encoding="utf-8" standalone="no"?>
<!DOCTYPE svg PUBLIC "-//W3C//DTD SVG 1.1//EN"
  "http://www.w3.org/Graphics/SVG/1.1/DTD/svg11.dtd">
<svg height="345.6pt" version="1.1" viewBox="0 0 460.8 345.6" width="460.8pt" xmlns="http://www.w3.org/2000/svg" xmlns:xlink="http://www.w3.org/1999/xlink">
 <metadata>
  <rdf:RDF xmlns:cc="http://creativecommons.org/ns#" xmlns:dc="http://purl.org/dc/elements/1.1/" xmlns:rdf="http://www.w3.org/1999/02/22-rdf-syntax-ns#">
   <cc:Work>
    <dc:type rdf:resource="http://purl.org/dc/dcmitype/StillImage"/>
    <dc:date>2022-05-07T15:06:42.637421</dc:date>
    <dc:format>image/svg+xml</dc:format>
    <dc:creator>
     <cc:Agent>
      <dc:title>Matplotlib v3.4.3, https://matplotlib.org/</dc:title>
     </cc:Agent>
    </dc:creator>
   </cc:Work>
  </rdf:RDF>
 </metadata>
 <defs>
  <style type="text/css">*{stroke-linecap:butt;stroke-linejoin:round;}</style>
 </defs>
 <g id="figure_1">
  <g id="patch_1">
   <path d="M 0 345.6 
L 460.8 345.6 
L 460.8 0 
L 0 0 
z
" style="fill:#ffffff;"/>
  </g>
  <g id="axes_1">
   <g id="patch_2">
    <path d="M 34.16 291.28 
L 453.192 291.28 
L 453.192 3 
L 34.16 3 
z
" style="fill:#ffffff;"/>
   </g>
   <g id="matplotlib.axis_1">
    <g id="xtick_1">
     <g id="line2d_1">
      <path clip-path="url(#p27ae0a63c3)" d="M 149.950588 291.28 
L 149.950588 3 
" style="fill:none;stroke:#b0b0b0;stroke-linecap:square;stroke-width:0.8;"/>
     </g>
     <g id="line2d_2">
      <defs>
       <path d="M 0 0 
L 0 3.5 
" id="m1dfc698047" style="stroke:#000000;stroke-width:0.8;"/>
      </defs>
      <g>
       <use style="stroke:#000000;stroke-width:0.8;" x="149.950588" xlink:href="#m1dfc698047" y="291.28"/>
      </g>
     </g>
     <g id="text_1">
      <!-- -1 -->
      <g transform="translate(139.980276 313.476875)scale(0.2 -0.2)">
       <defs>
        <path d="M 313 2009 
L 1997 2009 
L 1997 1497 
L 313 1497 
L 313 2009 
z
" id="DejaVuSans-2d" transform="scale(0.015625)"/>
        <path d="M 794 531 
L 1825 531 
L 1825 4091 
L 703 3866 
L 703 4441 
L 1819 4666 
L 2450 4666 
L 2450 531 
L 3481 531 
L 3481 0 
L 794 0 
L 794 531 
z
" id="DejaVuSans-31" transform="scale(0.015625)"/>
       </defs>
       <use xlink:href="#DejaVuSans-2d"/>
       <use x="36.083984" xlink:href="#DejaVuSans-31"/>
      </g>
     </g>
    </g>
    <g id="xtick_2">
     <g id="line2d_3">
      <path clip-path="url(#p27ae0a63c3)" d="M 337.401412 291.28 
L 337.401412 3 
" style="fill:none;stroke:#b0b0b0;stroke-linecap:square;stroke-width:0.8;"/>
     </g>
     <g id="line2d_4">
      <g>
       <use style="stroke:#000000;stroke-width:0.8;" x="337.401412" xlink:href="#m1dfc698047" y="291.28"/>
      </g>
     </g>
     <g id="text_2">
      <!-- 1 -->
      <g transform="translate(331.038912 313.476875)scale(0.2 -0.2)">
       <use xlink:href="#DejaVuSans-31"/>
      </g>
     </g>
    </g>
    <g id="xtick_3">
     <g id="line2d_5">
      <defs>
       <path d="M 0 0 
L 0 2 
" id="m7bfc4c61d2" style="stroke:#000000;stroke-width:0.6;"/>
      </defs>
      <g>
       <use style="stroke:#000000;stroke-width:0.6;" x="35.432311" xlink:href="#m7bfc4c61d2" y="291.28"/>
      </g>
     </g>
    </g>
    <g id="xtick_4">
     <g id="line2d_6">
      <g>
       <use style="stroke:#000000;stroke-width:0.6;" x="41.706926" xlink:href="#m7bfc4c61d2" y="291.28"/>
      </g>
     </g>
    </g>
    <g id="xtick_5">
     <g id="line2d_7">
      <g>
       <use style="stroke:#000000;stroke-width:0.6;" x="47.142246" xlink:href="#m7bfc4c61d2" y="291.28"/>
      </g>
     </g>
    </g>
    <g id="xtick_6">
     <g id="line2d_8">
      <g>
       <use style="stroke:#000000;stroke-width:0.6;" x="51.936537" xlink:href="#m7bfc4c61d2" y="291.28"/>
      </g>
     </g>
    </g>
    <g id="xtick_7">
     <g id="line2d_9">
      <g>
       <use style="stroke:#000000;stroke-width:0.6;" x="84.439337" xlink:href="#m7bfc4c61d2" y="291.28"/>
      </g>
     </g>
    </g>
    <g id="xtick_8">
     <g id="line2d_10">
      <g>
       <use style="stroke:#000000;stroke-width:0.6;" x="100.943562" xlink:href="#m7bfc4c61d2" y="291.28"/>
      </g>
     </g>
    </g>
    <g id="xtick_9">
     <g id="line2d_11">
      <g>
       <use style="stroke:#000000;stroke-width:0.6;" x="112.653497" xlink:href="#m7bfc4c61d2" y="291.28"/>
      </g>
     </g>
    </g>
    <g id="xtick_10">
     <g id="line2d_12">
      <g>
       <use style="stroke:#000000;stroke-width:0.6;" x="121.736428" xlink:href="#m7bfc4c61d2" y="291.28"/>
      </g>
     </g>
    </g>
    <g id="xtick_11">
     <g id="line2d_13">
      <g>
       <use style="stroke:#000000;stroke-width:0.6;" x="129.157723" xlink:href="#m7bfc4c61d2" y="291.28"/>
      </g>
     </g>
    </g>
    <g id="xtick_12">
     <g id="line2d_14">
      <g>
       <use style="stroke:#000000;stroke-width:0.6;" x="135.432338" xlink:href="#m7bfc4c61d2" y="291.28"/>
      </g>
     </g>
    </g>
    <g id="xtick_13">
     <g id="line2d_15">
      <g>
       <use style="stroke:#000000;stroke-width:0.6;" x="140.867657" xlink:href="#m7bfc4c61d2" y="291.28"/>
      </g>
     </g>
    </g>
    <g id="xtick_14">
     <g id="line2d_16">
      <g>
       <use style="stroke:#000000;stroke-width:0.6;" x="145.661949" xlink:href="#m7bfc4c61d2" y="291.28"/>
      </g>
     </g>
    </g>
    <g id="xtick_15">
     <g id="line2d_17">
      <g>
       <use style="stroke:#000000;stroke-width:0.6;" x="178.164749" xlink:href="#m7bfc4c61d2" y="291.28"/>
      </g>
     </g>
    </g>
    <g id="xtick_16">
     <g id="line2d_18">
      <g>
       <use style="stroke:#000000;stroke-width:0.6;" x="194.668974" xlink:href="#m7bfc4c61d2" y="291.28"/>
      </g>
     </g>
    </g>
    <g id="xtick_17">
     <g id="line2d_19">
      <g>
       <use style="stroke:#000000;stroke-width:0.6;" x="206.378909" xlink:href="#m7bfc4c61d2" y="291.28"/>
      </g>
     </g>
    </g>
    <g id="xtick_18">
     <g id="line2d_20">
      <g>
       <use style="stroke:#000000;stroke-width:0.6;" x="215.46184" xlink:href="#m7bfc4c61d2" y="291.28"/>
      </g>
     </g>
    </g>
    <g id="xtick_19">
     <g id="line2d_21">
      <g>
       <use style="stroke:#000000;stroke-width:0.6;" x="222.883135" xlink:href="#m7bfc4c61d2" y="291.28"/>
      </g>
     </g>
    </g>
    <g id="xtick_20">
     <g id="line2d_22">
      <g>
       <use style="stroke:#000000;stroke-width:0.6;" x="229.15775" xlink:href="#m7bfc4c61d2" y="291.28"/>
      </g>
     </g>
    </g>
    <g id="xtick_21">
     <g id="line2d_23">
      <g>
       <use style="stroke:#000000;stroke-width:0.6;" x="234.593069" xlink:href="#m7bfc4c61d2" y="291.28"/>
      </g>
     </g>
    </g>
    <g id="xtick_22">
     <g id="line2d_24">
      <g>
       <use style="stroke:#000000;stroke-width:0.6;" x="239.38736" xlink:href="#m7bfc4c61d2" y="291.28"/>
      </g>
     </g>
    </g>
    <g id="xtick_23">
     <g id="line2d_25">
      <g>
       <use style="stroke:#000000;stroke-width:0.6;" x="271.89016" xlink:href="#m7bfc4c61d2" y="291.28"/>
      </g>
     </g>
    </g>
    <g id="xtick_24">
     <g id="line2d_26">
      <g>
       <use style="stroke:#000000;stroke-width:0.6;" x="288.394386" xlink:href="#m7bfc4c61d2" y="291.28"/>
      </g>
     </g>
    </g>
    <g id="xtick_25">
     <g id="line2d_27">
      <g>
       <use style="stroke:#000000;stroke-width:0.6;" x="300.104321" xlink:href="#m7bfc4c61d2" y="291.28"/>
      </g>
     </g>
    </g>
    <g id="xtick_26">
     <g id="line2d_28">
      <g>
       <use style="stroke:#000000;stroke-width:0.6;" x="309.187251" xlink:href="#m7bfc4c61d2" y="291.28"/>
      </g>
     </g>
    </g>
    <g id="xtick_27">
     <g id="line2d_29">
      <g>
       <use style="stroke:#000000;stroke-width:0.6;" x="316.608546" xlink:href="#m7bfc4c61d2" y="291.28"/>
      </g>
     </g>
    </g>
    <g id="xtick_28">
     <g id="line2d_30">
      <g>
       <use style="stroke:#000000;stroke-width:0.6;" x="322.883162" xlink:href="#m7bfc4c61d2" y="291.28"/>
      </g>
     </g>
    </g>
    <g id="xtick_29">
     <g id="line2d_31">
      <g>
       <use style="stroke:#000000;stroke-width:0.6;" x="328.318481" xlink:href="#m7bfc4c61d2" y="291.28"/>
      </g>
     </g>
    </g>
    <g id="xtick_30">
     <g id="line2d_32">
      <g>
       <use style="stroke:#000000;stroke-width:0.6;" x="333.112772" xlink:href="#m7bfc4c61d2" y="291.28"/>
      </g>
     </g>
    </g>
    <g id="xtick_31">
     <g id="line2d_33">
      <g>
       <use style="stroke:#000000;stroke-width:0.6;" x="365.615572" xlink:href="#m7bfc4c61d2" y="291.28"/>
      </g>
     </g>
    </g>
    <g id="xtick_32">
     <g id="line2d_34">
      <g>
       <use style="stroke:#000000;stroke-width:0.6;" x="382.119798" xlink:href="#m7bfc4c61d2" y="291.28"/>
      </g>
     </g>
    </g>
    <g id="xtick_33">
     <g id="line2d_35">
      <g>
       <use style="stroke:#000000;stroke-width:0.6;" x="393.829732" xlink:href="#m7bfc4c61d2" y="291.28"/>
      </g>
     </g>
    </g>
    <g id="xtick_34">
     <g id="line2d_36">
      <g>
       <use style="stroke:#000000;stroke-width:0.6;" x="402.912663" xlink:href="#m7bfc4c61d2" y="291.28"/>
      </g>
     </g>
    </g>
    <g id="xtick_35">
     <g id="line2d_37">
      <g>
       <use style="stroke:#000000;stroke-width:0.6;" x="410.333958" xlink:href="#m7bfc4c61d2" y="291.28"/>
      </g>
     </g>
    </g>
    <g id="xtick_36">
     <g id="line2d_38">
      <g>
       <use style="stroke:#000000;stroke-width:0.6;" x="416.608574" xlink:href="#m7bfc4c61d2" y="291.28"/>
      </g>
     </g>
    </g>
    <g id="xtick_37">
     <g id="line2d_39">
      <g>
       <use style="stroke:#000000;stroke-width:0.6;" x="422.043893" xlink:href="#m7bfc4c61d2" y="291.28"/>
      </g>
     </g>
    </g>
    <g id="xtick_38">
     <g id="line2d_40">
      <g>
       <use style="stroke:#000000;stroke-width:0.6;" x="426.838184" xlink:href="#m7bfc4c61d2" y="291.28"/>
      </g>
     </g>
    </g>
    <g id="text_3">
     <!-- log10 of FEvals ratio -->
     <g transform="translate(141.371312 336.833125)scale(0.2 -0.2)">
      <defs>
       <path d="M 603 4863 
L 1178 4863 
L 1178 0 
L 603 0 
L 603 4863 
z
" id="DejaVuSans-6c" transform="scale(0.015625)"/>
       <path d="M 1959 3097 
Q 1497 3097 1228 2736 
Q 959 2375 959 1747 
Q 959 1119 1226 758 
Q 1494 397 1959 397 
Q 2419 397 2687 759 
Q 2956 1122 2956 1747 
Q 2956 2369 2687 2733 
Q 2419 3097 1959 3097 
z
M 1959 3584 
Q 2709 3584 3137 3096 
Q 3566 2609 3566 1747 
Q 3566 888 3137 398 
Q 2709 -91 1959 -91 
Q 1206 -91 779 398 
Q 353 888 353 1747 
Q 353 2609 779 3096 
Q 1206 3584 1959 3584 
z
" id="DejaVuSans-6f" transform="scale(0.015625)"/>
       <path d="M 2906 1791 
Q 2906 2416 2648 2759 
Q 2391 3103 1925 3103 
Q 1463 3103 1205 2759 
Q 947 2416 947 1791 
Q 947 1169 1205 825 
Q 1463 481 1925 481 
Q 2391 481 2648 825 
Q 2906 1169 2906 1791 
z
M 3481 434 
Q 3481 -459 3084 -895 
Q 2688 -1331 1869 -1331 
Q 1566 -1331 1297 -1286 
Q 1028 -1241 775 -1147 
L 775 -588 
Q 1028 -725 1275 -790 
Q 1522 -856 1778 -856 
Q 2344 -856 2625 -561 
Q 2906 -266 2906 331 
L 2906 616 
Q 2728 306 2450 153 
Q 2172 0 1784 0 
Q 1141 0 747 490 
Q 353 981 353 1791 
Q 353 2603 747 3093 
Q 1141 3584 1784 3584 
Q 2172 3584 2450 3431 
Q 2728 3278 2906 2969 
L 2906 3500 
L 3481 3500 
L 3481 434 
z
" id="DejaVuSans-67" transform="scale(0.015625)"/>
       <path d="M 2034 4250 
Q 1547 4250 1301 3770 
Q 1056 3291 1056 2328 
Q 1056 1369 1301 889 
Q 1547 409 2034 409 
Q 2525 409 2770 889 
Q 3016 1369 3016 2328 
Q 3016 3291 2770 3770 
Q 2525 4250 2034 4250 
z
M 2034 4750 
Q 2819 4750 3233 4129 
Q 3647 3509 3647 2328 
Q 3647 1150 3233 529 
Q 2819 -91 2034 -91 
Q 1250 -91 836 529 
Q 422 1150 422 2328 
Q 422 3509 836 4129 
Q 1250 4750 2034 4750 
z
" id="DejaVuSans-30" transform="scale(0.015625)"/>
       <path id="DejaVuSans-20" transform="scale(0.015625)"/>
       <path d="M 2375 4863 
L 2375 4384 
L 1825 4384 
Q 1516 4384 1395 4259 
Q 1275 4134 1275 3809 
L 1275 3500 
L 2222 3500 
L 2222 3053 
L 1275 3053 
L 1275 0 
L 697 0 
L 697 3053 
L 147 3053 
L 147 3500 
L 697 3500 
L 697 3744 
Q 697 4328 969 4595 
Q 1241 4863 1831 4863 
L 2375 4863 
z
" id="DejaVuSans-66" transform="scale(0.015625)"/>
       <path d="M 628 4666 
L 3309 4666 
L 3309 4134 
L 1259 4134 
L 1259 2759 
L 3109 2759 
L 3109 2228 
L 1259 2228 
L 1259 0 
L 628 0 
L 628 4666 
z
" id="DejaVuSans-46" transform="scale(0.015625)"/>
       <path d="M 628 4666 
L 3578 4666 
L 3578 4134 
L 1259 4134 
L 1259 2753 
L 3481 2753 
L 3481 2222 
L 1259 2222 
L 1259 531 
L 3634 531 
L 3634 0 
L 628 0 
L 628 4666 
z
" id="DejaVuSans-45" transform="scale(0.015625)"/>
       <path d="M 191 3500 
L 800 3500 
L 1894 563 
L 2988 3500 
L 3597 3500 
L 2284 0 
L 1503 0 
L 191 3500 
z
" id="DejaVuSans-76" transform="scale(0.015625)"/>
       <path d="M 2194 1759 
Q 1497 1759 1228 1600 
Q 959 1441 959 1056 
Q 959 750 1161 570 
Q 1363 391 1709 391 
Q 2188 391 2477 730 
Q 2766 1069 2766 1631 
L 2766 1759 
L 2194 1759 
z
M 3341 1997 
L 3341 0 
L 2766 0 
L 2766 531 
Q 2569 213 2275 61 
Q 1981 -91 1556 -91 
Q 1019 -91 701 211 
Q 384 513 384 1019 
Q 384 1609 779 1909 
Q 1175 2209 1959 2209 
L 2766 2209 
L 2766 2266 
Q 2766 2663 2505 2880 
Q 2244 3097 1772 3097 
Q 1472 3097 1187 3025 
Q 903 2953 641 2809 
L 641 3341 
Q 956 3463 1253 3523 
Q 1550 3584 1831 3584 
Q 2591 3584 2966 3190 
Q 3341 2797 3341 1997 
z
" id="DejaVuSans-61" transform="scale(0.015625)"/>
       <path d="M 2834 3397 
L 2834 2853 
Q 2591 2978 2328 3040 
Q 2066 3103 1784 3103 
Q 1356 3103 1142 2972 
Q 928 2841 928 2578 
Q 928 2378 1081 2264 
Q 1234 2150 1697 2047 
L 1894 2003 
Q 2506 1872 2764 1633 
Q 3022 1394 3022 966 
Q 3022 478 2636 193 
Q 2250 -91 1575 -91 
Q 1294 -91 989 -36 
Q 684 19 347 128 
L 347 722 
Q 666 556 975 473 
Q 1284 391 1588 391 
Q 1994 391 2212 530 
Q 2431 669 2431 922 
Q 2431 1156 2273 1281 
Q 2116 1406 1581 1522 
L 1381 1569 
Q 847 1681 609 1914 
Q 372 2147 372 2553 
Q 372 3047 722 3315 
Q 1072 3584 1716 3584 
Q 2034 3584 2315 3537 
Q 2597 3491 2834 3397 
z
" id="DejaVuSans-73" transform="scale(0.015625)"/>
       <path d="M 2631 2963 
Q 2534 3019 2420 3045 
Q 2306 3072 2169 3072 
Q 1681 3072 1420 2755 
Q 1159 2438 1159 1844 
L 1159 0 
L 581 0 
L 581 3500 
L 1159 3500 
L 1159 2956 
Q 1341 3275 1631 3429 
Q 1922 3584 2338 3584 
Q 2397 3584 2469 3576 
Q 2541 3569 2628 3553 
L 2631 2963 
z
" id="DejaVuSans-72" transform="scale(0.015625)"/>
       <path d="M 1172 4494 
L 1172 3500 
L 2356 3500 
L 2356 3053 
L 1172 3053 
L 1172 1153 
Q 1172 725 1289 603 
Q 1406 481 1766 481 
L 2356 481 
L 2356 0 
L 1766 0 
Q 1100 0 847 248 
Q 594 497 594 1153 
L 594 3053 
L 172 3053 
L 172 3500 
L 594 3500 
L 594 4494 
L 1172 4494 
z
" id="DejaVuSans-74" transform="scale(0.015625)"/>
       <path d="M 603 3500 
L 1178 3500 
L 1178 0 
L 603 0 
L 603 3500 
z
M 603 4863 
L 1178 4863 
L 1178 4134 
L 603 4134 
L 603 4863 
z
" id="DejaVuSans-69" transform="scale(0.015625)"/>
      </defs>
      <use xlink:href="#DejaVuSans-6c"/>
      <use x="27.783203" xlink:href="#DejaVuSans-6f"/>
      <use x="88.964844" xlink:href="#DejaVuSans-67"/>
      <use x="152.441406" xlink:href="#DejaVuSans-31"/>
      <use x="216.064453" xlink:href="#DejaVuSans-30"/>
      <use x="279.6875" xlink:href="#DejaVuSans-20"/>
      <use x="311.474609" xlink:href="#DejaVuSans-6f"/>
      <use x="372.65625" xlink:href="#DejaVuSans-66"/>
      <use x="407.861328" xlink:href="#DejaVuSans-20"/>
      <use x="439.648438" xlink:href="#DejaVuSans-46"/>
      <use x="497.167969" xlink:href="#DejaVuSans-45"/>
      <use x="560.351562" xlink:href="#DejaVuSans-76"/>
      <use x="619.53125" xlink:href="#DejaVuSans-61"/>
      <use x="680.810547" xlink:href="#DejaVuSans-6c"/>
      <use x="708.59375" xlink:href="#DejaVuSans-73"/>
      <use x="760.693359" xlink:href="#DejaVuSans-20"/>
      <use x="792.480469" xlink:href="#DejaVuSans-72"/>
      <use x="833.59375" xlink:href="#DejaVuSans-61"/>
      <use x="894.873047" xlink:href="#DejaVuSans-74"/>
      <use x="934.082031" xlink:href="#DejaVuSans-69"/>
      <use x="961.865234" xlink:href="#DejaVuSans-6f"/>
     </g>
    </g>
   </g>
   <g id="matplotlib.axis_2">
    <g id="ytick_1">
     <g id="line2d_41">
      <path clip-path="url(#p27ae0a63c3)" d="M 34.16 288.453725 
L 453.192 288.453725 
" style="fill:none;stroke:#b0b0b0;stroke-linecap:square;stroke-width:0.8;"/>
     </g>
     <g id="line2d_42">
      <defs>
       <path d="M 0 0 
L -3.5 0 
" id="m44cf7b1481" style="stroke:#000000;stroke-width:0.8;"/>
      </defs>
      <g>
       <use style="stroke:#000000;stroke-width:0.8;" x="34.16" xlink:href="#m44cf7b1481" y="288.453725"/>
      </g>
     </g>
    </g>
    <g id="ytick_2">
     <g id="line2d_43">
      <path clip-path="url(#p27ae0a63c3)" d="M 34.16 217.796863 
L 453.192 217.796863 
" style="fill:none;stroke:#b0b0b0;stroke-linecap:square;stroke-width:0.8;"/>
     </g>
     <g id="line2d_44">
      <g>
       <use style="stroke:#000000;stroke-width:0.8;" x="34.16" xlink:href="#m44cf7b1481" y="217.796863"/>
      </g>
     </g>
    </g>
    <g id="ytick_3">
     <g id="line2d_45">
      <path clip-path="url(#p27ae0a63c3)" d="M 34.16 147.14 
L 453.192 147.14 
" style="fill:none;stroke:#b0b0b0;stroke-linecap:square;stroke-width:0.8;"/>
     </g>
     <g id="line2d_46">
      <g>
       <use style="stroke:#000000;stroke-width:0.8;" x="34.16" xlink:href="#m44cf7b1481" y="147.14"/>
      </g>
     </g>
    </g>
    <g id="ytick_4">
     <g id="line2d_47">
      <path clip-path="url(#p27ae0a63c3)" d="M 34.16 76.483137 
L 453.192 76.483137 
" style="fill:none;stroke:#b0b0b0;stroke-linecap:square;stroke-width:0.8;"/>
     </g>
     <g id="line2d_48">
      <g>
       <use style="stroke:#000000;stroke-width:0.8;" x="34.16" xlink:href="#m44cf7b1481" y="76.483137"/>
      </g>
     </g>
    </g>
    <g id="ytick_5">
     <g id="line2d_49">
      <path clip-path="url(#p27ae0a63c3)" d="M 34.16 5.826275 
L 453.192 5.826275 
" style="fill:none;stroke:#b0b0b0;stroke-linecap:square;stroke-width:0.8;"/>
     </g>
     <g id="line2d_50">
      <g>
       <use style="stroke:#000000;stroke-width:0.8;" x="34.16" xlink:href="#m44cf7b1481" y="5.826275"/>
      </g>
     </g>
    </g>
    <g id="text_4">
     <!-- proportion of trials -->
     <g transform="translate(19.000625 240.14625)rotate(-90)scale(0.2 -0.2)">
      <defs>
       <path d="M 1159 525 
L 1159 -1331 
L 581 -1331 
L 581 3500 
L 1159 3500 
L 1159 2969 
Q 1341 3281 1617 3432 
Q 1894 3584 2278 3584 
Q 2916 3584 3314 3078 
Q 3713 2572 3713 1747 
Q 3713 922 3314 415 
Q 2916 -91 2278 -91 
Q 1894 -91 1617 61 
Q 1341 213 1159 525 
z
M 3116 1747 
Q 3116 2381 2855 2742 
Q 2594 3103 2138 3103 
Q 1681 3103 1420 2742 
Q 1159 2381 1159 1747 
Q 1159 1113 1420 752 
Q 1681 391 2138 391 
Q 2594 391 2855 752 
Q 3116 1113 3116 1747 
z
" id="DejaVuSans-70" transform="scale(0.015625)"/>
       <path d="M 3513 2113 
L 3513 0 
L 2938 0 
L 2938 2094 
Q 2938 2591 2744 2837 
Q 2550 3084 2163 3084 
Q 1697 3084 1428 2787 
Q 1159 2491 1159 1978 
L 1159 0 
L 581 0 
L 581 3500 
L 1159 3500 
L 1159 2956 
Q 1366 3272 1645 3428 
Q 1925 3584 2291 3584 
Q 2894 3584 3203 3211 
Q 3513 2838 3513 2113 
z
" id="DejaVuSans-6e" transform="scale(0.015625)"/>
      </defs>
      <use xlink:href="#DejaVuSans-70"/>
      <use x="63.476562" xlink:href="#DejaVuSans-72"/>
      <use x="102.339844" xlink:href="#DejaVuSans-6f"/>
      <use x="163.521484" xlink:href="#DejaVuSans-70"/>
      <use x="226.998047" xlink:href="#DejaVuSans-6f"/>
      <use x="288.179688" xlink:href="#DejaVuSans-72"/>
      <use x="329.292969" xlink:href="#DejaVuSans-74"/>
      <use x="368.501953" xlink:href="#DejaVuSans-69"/>
      <use x="396.285156" xlink:href="#DejaVuSans-6f"/>
      <use x="457.466797" xlink:href="#DejaVuSans-6e"/>
      <use x="520.845703" xlink:href="#DejaVuSans-20"/>
      <use x="552.632812" xlink:href="#DejaVuSans-6f"/>
      <use x="613.814453" xlink:href="#DejaVuSans-66"/>
      <use x="649.019531" xlink:href="#DejaVuSans-20"/>
      <use x="680.806641" xlink:href="#DejaVuSans-74"/>
      <use x="720.015625" xlink:href="#DejaVuSans-72"/>
      <use x="761.128906" xlink:href="#DejaVuSans-69"/>
      <use x="788.912109" xlink:href="#DejaVuSans-61"/>
      <use x="850.191406" xlink:href="#DejaVuSans-6c"/>
      <use x="877.974609" xlink:href="#DejaVuSans-73"/>
     </g>
    </g>
   </g>
   <g id="line2d_51">
    <path clip-path="url(#p27ae0a63c3)" d="M 34.16 214.640371 
L 111.05704 214.640371 
L 111.05704 213.992885 
L 139.271201 213.992885 
L 139.271201 212.374171 
L 142.529293 212.374171 
L 142.529293 211.726686 
L 155.775426 211.726686 
L 155.775426 210.755457 
L 159.033519 210.755457 
L 159.033519 209.460486 
L 164.468838 209.460486 
L 164.468838 208.165515 
L 167.485361 208.165515 
L 167.485361 206.870544 
L 170.743454 206.870544 
L 170.743454 205.25183 
L 176.568292 205.25183 
L 176.568292 204.928087 
L 183.989587 204.928087 
L 183.989587 203.956859 
L 187.247679 203.956859 
L 187.247679 201.043174 
L 190.264202 201.043174 
L 190.264202 200.395688 
L 192.682999 200.395688 
L 192.682999 198.453231 
L 195.699521 198.453231 
L 195.699521 197.805746 
L 198.957614 197.805746 
L 198.957614 194.568318 
L 203.751905 194.568318 
L 203.751905 192.625861 
L 204.782452 192.625861 
L 204.782452 191.978376 
L 208.040545 191.978376 
L 208.040545 191.654633 
L 209.187224 191.654633 
L 209.187224 189.712176 
L 215.46184 189.712176 
L 215.46184 186.798491 
L 218.478362 186.798491 
L 218.478362 186.151006 
L 220.897159 186.151006 
L 220.897159 185.50352 
L 221.736455 185.50352 
L 221.736455 184.856034 
L 223.913682 184.856034 
L 223.913682 184.208549 
L 224.544771 184.208549 
L 224.544771 183.561063 
L 227.171774 183.561063 
L 227.171774 179.999893 
L 229.98009 179.999893 
L 229.98009 179.352407 
L 232.895317 179.352407 
L 232.996612 178.704922 
L 236.254705 178.704922 
L 236.254705 178.057436 
L 238.240681 178.057436 
L 238.240681 176.762465 
L 241.14503 176.762465 
L 241.14503 176.438722 
L 242.717692 176.438722 
L 242.717692 176.114979 
L 243.676 176.114979 
L 243.676 168.02141 
L 246.382301 168.02141 
L 246.382301 167.697667 
L 247.298389 167.697667 
L 247.337755 167.050181 
L 247.534015 167.050181 
L 247.534015 166.726438 
L 248.730156 166.726438 
L 248.730156 166.402696 
L 248.844068 166.402696 
L 248.844068 166.078953 
L 249.111319 166.078953 
L 249.111319 165.431467 
L 249.950615 165.431467 
L 249.950615 164.783982 
L 250.113268 164.783982 
L 250.113268 164.460239 
L 250.985928 164.460239 
L 250.985928 164.136496 
L 252.127842 164.136496 
L 252.127842 163.812753 
L 252.758931 163.812753 
L 252.758931 163.165268 
L 253.123227 163.165268 
L 253.123227 162.841525 
L 253.867325 162.841525 
L 253.867325 162.517782 
L 254.729529 162.517782 
L 254.729529 162.194039 
L 255.385935 162.194039 
L 255.385935 160.575326 
L 255.998326 160.575326 
L 255.998326 160.251583 
L 256.958834 160.251583 
L 256.958834 159.92784 
L 258.19425 159.92784 
L 258.19425 159.280354 
L 259.141031 159.280354 
L 259.141031 158.956612 
L 260.180226 158.956612 
L 260.180226 157.014155 
L 264.248038 157.014155 
L 264.248038 156.690412 
L 264.468865 156.690412 
L 264.468865 155.395441 
L 265.208546 155.395441 
L 265.208546 155.071698 
L 265.820701 155.071698 
L 265.820701 154.747955 
L 266.781209 154.747955 
L 266.781209 154.424213 
L 269.48531 154.424213 
L 269.48531 154.10047 
L 270.401397 154.10047 
L 270.445818 153.129242 
L 270.637024 153.129242 
L 270.637024 152.805499 
L 271.361905 152.805499 
L 271.401271 152.158013 
L 271.597532 152.158013 
L 271.597532 151.83427 
L 271.833165 151.83427 
L 271.89016 148.2731 
L 271.947076 148.2731 
L 271.947076 147.949357 
L 272.793672 147.949357 
L 272.793672 147.625614 
L 272.907584 147.625614 
L 272.907584 147.301871 
L 273.216276 147.301871 
L 273.216276 146.978129 
L 274.088937 146.978129 
L 274.176784 146.330643 
L 275.049445 146.330643 
L 275.049445 146.0069 
L 276.226235 146.0069 
L 276.226235 145.683157 
L 276.970334 145.683157 
L 276.970334 145.359415 
L 277.186743 145.359415 
L 277.186743 145.035672 
L 277.325479 145.035672 
L 277.325479 144.388186 
L 277.832537 144.388186 
L 277.930842 143.740701 
L 278.164776 143.740701 
L 278.164776 141.798244 
L 278.793045 141.798244 
L 278.793045 141.474501 
L 279.485754 141.474501 
L 279.485754 141.150758 
L 280.973091 141.150758 
L 280.973091 140.503273 
L 282.24404 140.503273 
L 282.24404 140.17953 
L 283.204548 140.17953 
L 283.204548 139.855787 
L 283.600095 139.855787 
L 283.600095 138.560816 
L 287.735467 138.560816 
L 287.735467 138.237073 
L 288.394386 138.237073 
L 288.394386 136.294617 
L 289.308129 136.294617 
L 289.308129 135.970874 
L 292.683026 135.970874 
L 292.683026 134.999646 
L 292.972738 134.999646 
L 292.972738 134.675903 
L 293.888826 134.675903 
L 293.928192 134.028417 
L 294.124453 134.028417 
L 294.124453 133.704674 
L 294.669001 133.704674 
L 294.669001 132.409703 
L 295.320593 132.409703 
L 295.320593 132.085961 
L 295.434505 132.085961 
L 295.434505 131.762218 
L 296.703705 131.762218 
L 296.703705 131.438475 
L 297.576365 131.438475 
L 297.576365 131.114732 
L 299.713664 131.114732 
L 299.713664 130.790989 
L 300.104321 130.790989 
L 300.104321 129.496018 
L 300.301165 129.496018 
L 300.301165 129.172275 
L 300.457762 129.172275 
L 300.457762 128.848533 
L 301.319966 128.848533 
L 301.319966 128.52479 
L 303.465403 128.52479 
L 303.465403 128.201047 
L 305.731468 128.201047 
L 305.731468 127.877304 
L 305.978821 127.877304 
L 305.978821 127.553562 
L 308.550877 127.553562 
L 308.550877 127.229819 
L 308.836223 127.229819 
L 308.836223 126.906076 
L 309.187251 126.906076 
L 309.187251 125.611105 
L 310.123539 125.611105 
L 310.123539 125.287362 
L 311.229371 125.287362 
L 311.229371 124.963619 
L 311.715116 124.963619 
L 311.814255 123.668648 
L 312.275047 123.668648 
L 312.275047 123.344905 
L 313.038755 123.344905 
L 313.038755 123.021163 
L 313.287778 123.021163 
L 313.287778 122.69742 
L 313.788148 122.69742 
L 313.788148 122.373677 
L 314.228533 122.373677 
L 314.291298 121.726191 
L 314.427319 121.726191 
L 314.427319 121.402449 
L 314.704236 121.402449 
L 314.743602 120.754963 
L 314.939863 120.754963 
L 314.939863 120.43122 
L 315.094172 120.43122 
L 315.094172 120.107477 
L 315.41981 120.107477 
L 315.41981 119.783735 
L 315.801195 119.783735 
L 315.801195 119.459992 
L 316.136003 119.459992 
L 316.136003 119.136249 
L 316.249915 119.136249 
L 316.25507 118.488764 
L 316.952387 118.488764 
L 316.952387 118.165021 
L 317.519115 118.165021 
L 317.519115 117.841278 
L 317.868475 117.841278 
L 317.907841 117.193792 
L 318.104101 117.193792 
L 318.119893 116.546307 
L 318.391776 116.546307 
L 318.391776 116.222564 
L 319.185087 116.222564 
L 319.185087 115.898821 
L 319.300242 115.898821 
L 319.300242 115.575078 
L 319.414154 115.575078 
L 319.479083 114.60385 
L 320.381892 114.60385 
L 320.421258 113.956365 
L 320.524759 113.956365 
L 320.617519 112.985136 
L 320.683354 112.985136 
L 320.683354 112.661393 
L 321.018929 112.661393 
L 321.051746 112.013908 
L 321.273172 112.013908 
L 321.288467 111.366422 
L 321.556014 111.366422 
L 321.556014 111.04268 
L 321.813659 111.04268 
L 321.813659 110.718937 
L 321.927571 110.718937 
L 321.927571 110.395194 
L 322.097422 110.395194 
L 322.135376 109.747708 
L 322.459382 109.747708 
L 322.54101 109.100223 
L 322.86113 109.100223 
L 322.883162 106.834023 
L 323.196771 106.834023 
L 323.196771 106.510281 
L 323.343885 106.510281 
L 323.343885 106.186538 
L 323.669522 106.186538 
L 323.710989 104.891567 
L 324.069432 104.891567 
L 324.113672 104.244081 
L 324.437411 104.244081 
L 324.437411 103.920338 
L 324.716355 103.920338 
L 324.716355 103.596595 
L 324.916547 103.596595 
L 324.916547 103.272853 
L 325.242184 103.272853 
L 325.299614 102.625367 
L 325.53874 102.625367 
L 325.632443 101.977882 
L 325.671809 101.977882 
L 325.762031 101.330396 
L 325.868069 101.330396 
L 325.868069 101.006653 
L 326.20673 101.006653 
L 326.20673 100.68291 
L 326.525739 100.68291 
L 326.546878 100.035425 
L 326.678118 100.035425 
L 326.717484 99.387939 
L 326.913745 99.387939 
L 326.950828 98.740454 
L 327.06421 98.740454 
L 327.06421 98.416711 
L 327.178122 98.416711 
L 327.178122 98.092968 
L 327.434799 98.092968 
L 327.481192 97.12174 
L 327.677453 97.12174 
L 327.778281 96.474254 
L 327.813032 96.474254 
L 327.813032 96.150511 
L 328.050478 96.150511 
L 328.109886 95.503026 
L 328.223797 95.503026 
L 328.318481 93.560569 
L 328.447322 93.560569 
L 328.459571 92.913084 
L 328.581156 92.913084 
L 328.581156 92.589341 
L 328.694369 92.589341 
L 328.733735 91.941855 
L 328.873593 91.941855 
L 328.929996 90.646884 
L 328.987505 90.646884 
L 329.007461 89.999399 
L 329.268642 89.999399 
L 329.319982 89.02817 
L 329.492997 89.02817 
L 329.53661 88.056942 
L 329.711117 88.056942 
L 329.732871 87.409456 
L 329.822881 87.409456 
L 329.878228 86.438228 
L 330.058508 86.438228 
L 330.126136 85.467 
L 330.240048 85.467 
L 330.287322 84.495771 
L 330.365658 84.495771 
L 330.365658 84.172028 
L 330.841304 84.172028 
L 330.929011 83.524543 
L 331.042923 83.524543 
L 331.129366 82.553314 
L 331.254648 82.553314 
L 331.254648 82.229572 
L 331.36856 82.229572 
L 331.457281 81.582086 
L 331.509248 81.582086 
L 331.509248 81.258343 
L 332.146022 81.258343 
L 332.224534 80.287115 
L 332.312123 80.287115 
L 332.381909 79.639629 
L 332.443867 79.639629 
L 332.502957 78.992144 
L 332.63776 78.992144 
L 332.67207 78.344658 
L 333.063582 78.344658 
L 333.063582 78.020915 
L 333.184784 78.020915 
L 333.266664 77.049687 
L 333.510421 77.049687 
L 333.588158 76.402202 
L 333.627524 76.402202 
L 333.627524 76.078459 
L 333.823785 76.078459 
L 333.836196 75.430973 
L 334.010763 75.430973 
L 334.109258 74.136002 
L 334.505913 74.136002 
L 334.519207 73.488516 
L 334.872966 73.488516 
L 334.872966 73.164774 
L 335.019925 73.164774 
L 335.019925 72.841031 
L 335.133837 72.841031 
L 335.133837 72.517288 
L 335.263305 72.517288 
L 335.322082 71.869803 
L 335.422001 71.869803 
L 335.461367 71.222317 
L 335.647719 71.222317 
L 335.663946 70.251089 
L 336.06618 70.251089 
L 336.125509 69.603603 
L 336.384301 69.603603 
L 336.485511 68.308632 
L 336.776464 68.308632 
L 336.853768 67.661146 
L 336.894604 67.661146 
L 336.96768 66.689918 
L 337.254021 66.689918 
L 337.275698 66.042432 
L 337.401412 66.042432 
L 337.475085 65.071204 
L 337.725335 65.071204 
L 337.725335 64.747461 
L 338.030036 64.747461 
L 338.030036 64.423719 
L 338.207466 64.423719 
L 338.23688 63.776233 
L 338.520761 63.776233 
L 338.520761 63.45249 
L 339.109541 63.45249 
L 339.109541 63.128747 
L 339.284469 63.128747 
L 339.391743 62.481262 
L 339.412996 62.481262 
L 339.412996 62.157519 
L 339.624956 62.157519 
L 339.624956 61.833776 
L 340.157094 61.833776 
L 340.157094 61.510033 
L 340.537011 61.510033 
L 340.537011 61.186291 
L 341.019298 61.186291 
L 341.019298 60.862548 
L 341.246839 60.862548 
L 341.339886 60.215062 
L 341.452707 60.215062 
L 341.452707 59.89132 
L 341.665523 59.89132 
L 341.727537 59.243834 
L 341.990937 59.243834 
L 341.990937 58.920091 
L 342.271229 58.920091 
L 342.271229 58.596348 
L 342.546955 58.596348 
L 342.546955 58.272606 
L 342.739439 58.272606 
L 342.739439 57.948863 
L 342.853141 57.948863 
L 342.956048 57.301377 
L 343.30849 57.301377 
L 343.30849 56.977634 
L 343.731231 56.977634 
L 343.786779 56.330149 
L 343.883545 56.330149 
L 343.883545 56.006406 
L 344.140325 56.006406 
L 344.140325 55.682663 
L 344.282794 55.682663 
L 344.282794 55.358921 
L 344.971056 55.358921 
L 344.971056 55.035178 
L 345.4308 55.035178 
L 345.4308 54.711435 
L 345.799972 54.711435 
L 345.799972 54.387692 
L 346.067026 54.387692 
L 346.067026 54.063949 
L 346.476119 54.063949 
L 346.476119 53.740207 
L 346.776781 53.740207 
L 346.776781 53.416464 
L 347.264643 53.416464 
L 347.313707 52.445235 
L 347.647979 52.445235 
L 347.647979 52.121493 
L 348.057072 52.121493 
L 348.059989 51.474007 
L 348.332673 51.474007 
L 348.332673 51.150264 
L 348.887803 51.150264 
L 348.887803 50.826522 
L 349.435426 50.826522 
L 349.51695 50.179036 
L 349.87389 50.179036 
L 349.87389 49.855293 
L 351.653195 49.855293 
L 351.701641 49.207808 
L 351.852744 49.207808 
L 351.852744 48.884065 
L 352.007675 48.884065 
L 352.062288 48.236579 
L 352.89302 48.236579 
L 352.89302 47.912837 
L 353.167215 47.912837 
L 353.167215 47.589094 
L 353.433697 47.589094 
L 353.433697 47.265351 
L 353.771521 47.265351 
L 353.771521 46.941608 
L 354.121434 46.941608 
L 354.163684 46.294123 
L 355.083642 46.294123 
L 355.083642 45.97038 
L 355.30571 45.97038 
L 355.30571 45.646637 
L 355.666381 45.646637 
L 355.666381 45.322894 
L 356.398524 45.322894 
L 356.398524 44.999151 
L 356.532641 44.999151 
L 356.532641 44.351666 
L 356.790687 44.351666 
L 356.790687 44.027923 
L 357.249899 44.027923 
L 357.249899 43.70418 
L 357.438913 43.70418 
L 357.506703 43.056695 
L 357.557448 43.056695 
L 357.641504 42.409209 
L 357.915797 42.409209 
L 357.949611 41.761724 
L 358.308923 41.761724 
L 358.308923 41.437981 
L 358.746528 41.437981 
L 358.746528 41.114238 
L 359.222458 41.114238 
L 359.222458 40.790495 
L 359.423131 40.790495 
L 359.423131 40.466752 
L 359.831323 40.466752 
L 359.832224 39.819267 
L 360.126659 39.819267 
L 360.126659 39.495524 
L 360.662955 39.495524 
L 360.662955 39.171781 
L 361.291345 39.171781 
L 361.291345 38.848039 
L 362.753663 38.848039 
L 362.753663 38.524296 
L 363.227674 38.524296 
L 363.292421 37.87681 
L 363.912586 37.87681 
L 363.912586 37.553067 
L 364.164001 37.553067 
L 364.164001 37.229325 
L 364.370367 37.229325 
L 364.370367 36.905582 
L 365.208849 36.905582 
L 365.208849 36.581839 
L 365.554644 36.581839 
L 365.630833 35.934353 
L 366.039927 35.934353 
L 366.039927 35.610611 
L 366.533569 35.610611 
L 366.533569 35.286868 
L 366.791004 35.286868 
L 366.870658 34.31564 
L 367.162445 34.31564 
L 367.162445 33.991897 
L 367.890438 33.991897 
L 367.949928 33.344411 
L 369.081182 33.344411 
L 369.114993 32.696926 
L 369.44965 32.696926 
L 369.471391 32.04944 
L 369.611712 32.04944 
L 369.611712 31.725697 
L 370.003875 31.725697 
L 370.003875 31.401954 
L 370.608573 31.401954 
L 370.608573 31.078212 
L 370.873057 31.078212 
L 370.873057 30.754469 
L 370.997609 30.754469 
L 370.997609 30.430726 
L 371.282151 30.430726 
L 371.282151 30.106983 
L 371.416551 30.106983 
L 371.416551 29.783241 
L 372.112882 29.783241 
L 372.112882 29.459498 
L 373.053601 29.459498 
L 373.053601 29.135755 
L 373.229306 29.135755 
L 373.229306 28.812012 
L 373.454482 28.812012 
L 373.476607 28.164527 
L 373.863575 28.164527 
L 373.876163 27.517041 
L 374.694306 27.517041 
L 374.694306 27.193298 
L 375.339804 27.193298 
L 375.339804 26.869556 
L 375.680604 26.869556 
L 375.680604 26.545813 
L 375.96685 26.545813 
L 375.96685 26.22207 
L 376.658776 26.22207 
L 376.658776 25.898327 
L 376.839527 25.898327 
L 376.839527 25.574584 
L 377.205312 25.574584 
L 377.205312 25.250842 
L 379.2402 25.250842 
L 379.330116 24.603356 
L 380.004192 24.603356 
L 380.004192 24.279613 
L 381.246543 24.279613 
L 381.246543 23.95587 
L 382.447536 23.95587 
L 382.447536 23.632128 
L 382.662837 23.632128 
L 382.662837 23.308385 
L 384.549665 23.308385 
L 384.549665 22.984642 
L 384.847673 22.984642 
L 384.847673 22.660899 
L 385.028961 22.660899 
L 385.028961 22.337157 
L 387.176669 22.337157 
L 387.176669 22.013414 
L 387.454246 22.013414 
L 387.454246 21.689671 
L 388.335592 21.689671 
L 388.335592 21.365928 
L 388.893792 21.365928 
L 388.893792 21.042185 
L 390.616526 21.042185 
L 390.616526 20.718443 
L 391.263383 20.718443 
L 391.263383 20.3947 
L 392.69647 20.3947 
L 392.727024 19.747214 
L 393.24353 19.747214 
L 393.24353 19.423471 
L 393.890387 19.423471 
L 393.890387 19.099729 
L 394.402453 19.099729 
L 394.402453 18.775986 
L 395.04931 18.775986 
L 395.04931 18.452243 
L 395.277894 18.452243 
L 395.354027 17.804758 
L 396.512951 17.804758 
L 396.512951 17.481015 
L 400.389856 17.481015 
L 400.389856 17.157272 
L 401.169056 17.157272 
L 401.169056 16.833529 
L 402.234893 16.833529 
L 402.234893 16.509786 
L 403.672448 16.509786 
L 403.672448 16.186044 
L 404.861897 16.186044 
L 404.861897 15.862301 
L 406.02082 15.862301 
L 406.02082 15.538558 
L 406.456717 15.538558 
L 406.456717 15.214815 
L 407.103574 15.214815 
L 407.103574 14.891072 
L 408.567215 14.891072 
L 408.567215 14.56733 
L 418.075084 14.56733 
L 418.075084 14.243587 
L 418.556275 14.243587 
L 418.556275 13.919844 
L 421.059668 13.919844 
L 421.059668 13.596101 
L 421.183279 13.596101 
L 421.183279 13.272359 
L 422.342202 13.272359 
L 422.342202 12.948616 
L 423.686672 12.948616 
L 423.686672 12.624873 
L 424.845595 12.624873 
L 424.845595 12.30113 
L 434.396466 12.30113 
L 434.396466 11.977387 
L 436.899859 11.977387 
L 436.899859 11.653645 
L 453.192 11.653645 
L 453.192 11.653645 
" style="fill:none;stroke:#000000;stroke-linecap:square;stroke-width:3;"/>
   </g>
   <g id="line2d_52">
    <path clip-path="url(#p27ae0a63c3)" style="fill:none;stroke:#000000;stroke-linecap:square;stroke-width:3;"/>
   </g>
   <g id="line2d_53">
    <path clip-path="url(#p27ae0a63c3)" d="M 36.596821 5.826275 
L 34.16 5.826275 
L 453.192 5.826275 
L 461.8 5.826275 
" style="fill:none;stroke:#00bfbf;stroke-linecap:square;stroke-width:3;"/>
   </g>
   <g id="line2d_54"/>
   <g id="line2d_55"/>
   <g id="line2d_56">
    <path clip-path="url(#p27ae0a63c3)" d="M 243.676 291.28 
L 243.676 3 
" style="fill:none;stroke:#000000;stroke-linecap:square;stroke-width:1.5;"/>
   </g>
   <g id="line2d_57">
    <path clip-path="url(#p27ae0a63c3)" d="M 34.16 147.14 
L 453.192 147.14 
" style="fill:none;stroke:#000000;stroke-dasharray:2,3.3;stroke-dashoffset:0;stroke-width:2;"/>
   </g>
   <g id="patch_3">
    <path d="M 34.16 291.28 
L 34.16 3 
" style="fill:none;stroke:#000000;stroke-linecap:square;stroke-linejoin:miter;stroke-width:0.8;"/>
   </g>
   <g id="patch_4">
    <path d="M 453.192 291.28 
L 453.192 3 
" style="fill:none;stroke:#000000;stroke-linecap:square;stroke-linejoin:miter;stroke-width:0.8;"/>
   </g>
   <g id="patch_5">
    <path d="M 34.16 291.28 
L 453.192 291.28 
" style="fill:none;stroke:#000000;stroke-linecap:square;stroke-linejoin:miter;stroke-width:0.8;"/>
   </g>
   <g id="patch_6">
    <path d="M 34.16 3 
L 453.192 3 
" style="fill:none;stroke:#000000;stroke-linecap:square;stroke-linejoin:miter;stroke-width:0.8;"/>
   </g>
   <g id="text_5">
    <!-- f20-f24,20-D -->
    <g transform="translate(318.19261 285.5144)scale(0.2 -0.2)">
     <defs>
      <path d="M 1228 531 
L 3431 531 
L 3431 0 
L 469 0 
L 469 531 
Q 828 903 1448 1529 
Q 2069 2156 2228 2338 
Q 2531 2678 2651 2914 
Q 2772 3150 2772 3378 
Q 2772 3750 2511 3984 
Q 2250 4219 1831 4219 
Q 1534 4219 1204 4116 
Q 875 4013 500 3803 
L 500 4441 
Q 881 4594 1212 4672 
Q 1544 4750 1819 4750 
Q 2544 4750 2975 4387 
Q 3406 4025 3406 3419 
Q 3406 3131 3298 2873 
Q 3191 2616 2906 2266 
Q 2828 2175 2409 1742 
Q 1991 1309 1228 531 
z
" id="DejaVuSans-32" transform="scale(0.015625)"/>
      <path d="M 2419 4116 
L 825 1625 
L 2419 1625 
L 2419 4116 
z
M 2253 4666 
L 3047 4666 
L 3047 1625 
L 3713 1625 
L 3713 1100 
L 3047 1100 
L 3047 0 
L 2419 0 
L 2419 1100 
L 313 1100 
L 313 1709 
L 2253 4666 
z
" id="DejaVuSans-34" transform="scale(0.015625)"/>
      <path d="M 750 794 
L 1409 794 
L 1409 256 
L 897 -744 
L 494 -744 
L 750 256 
L 750 794 
z
" id="DejaVuSans-2c" transform="scale(0.015625)"/>
      <path d="M 1259 4147 
L 1259 519 
L 2022 519 
Q 2988 519 3436 956 
Q 3884 1394 3884 2338 
Q 3884 3275 3436 3711 
Q 2988 4147 2022 4147 
L 1259 4147 
z
M 628 4666 
L 1925 4666 
Q 3281 4666 3915 4102 
Q 4550 3538 4550 2338 
Q 4550 1131 3912 565 
Q 3275 0 1925 0 
L 628 0 
L 628 4666 
z
" id="DejaVuSans-44" transform="scale(0.015625)"/>
     </defs>
     <use xlink:href="#DejaVuSans-66"/>
     <use x="35.205078" xlink:href="#DejaVuSans-32"/>
     <use x="98.828125" xlink:href="#DejaVuSans-30"/>
     <use x="162.451172" xlink:href="#DejaVuSans-2d"/>
     <use x="198.535156" xlink:href="#DejaVuSans-66"/>
     <use x="233.740234" xlink:href="#DejaVuSans-32"/>
     <use x="297.363281" xlink:href="#DejaVuSans-34"/>
     <use x="360.986328" xlink:href="#DejaVuSans-2c"/>
     <use x="392.773438" xlink:href="#DejaVuSans-32"/>
     <use x="456.396484" xlink:href="#DejaVuSans-30"/>
     <use x="520.019531" xlink:href="#DejaVuSans-2d"/>
     <use x="556.103516" xlink:href="#DejaVuSans-44"/>
    </g>
   </g>
   <g id="text_6">
    <!-- v2.6 -->
    <g style="fill:#808080;" transform="translate(232.765062 286.317512)scale(0.1 -0.1)">
     <defs>
      <path d="M 684 794 
L 1344 794 
L 1344 0 
L 684 0 
L 684 794 
z
" id="DejaVuSans-2e" transform="scale(0.015625)"/>
      <path d="M 2113 2584 
Q 1688 2584 1439 2293 
Q 1191 2003 1191 1497 
Q 1191 994 1439 701 
Q 1688 409 2113 409 
Q 2538 409 2786 701 
Q 3034 994 3034 1497 
Q 3034 2003 2786 2293 
Q 2538 2584 2113 2584 
z
M 3366 4563 
L 3366 3988 
Q 3128 4100 2886 4159 
Q 2644 4219 2406 4219 
Q 1781 4219 1451 3797 
Q 1122 3375 1075 2522 
Q 1259 2794 1537 2939 
Q 1816 3084 2150 3084 
Q 2853 3084 3261 2657 
Q 3669 2231 3669 1497 
Q 3669 778 3244 343 
Q 2819 -91 2113 -91 
Q 1303 -91 875 529 
Q 447 1150 447 2328 
Q 447 3434 972 4092 
Q 1497 4750 2381 4750 
Q 2619 4750 2861 4703 
Q 3103 4656 3366 4563 
z
" id="DejaVuSans-36" transform="scale(0.015625)"/>
     </defs>
     <use xlink:href="#DejaVuSans-76"/>
     <use x="59.179688" xlink:href="#DejaVuSans-32"/>
     <use x="122.802734" xlink:href="#DejaVuSans-2e"/>
     <use x="154.589844" xlink:href="#DejaVuSans-36"/>
    </g>
   </g>
   <g id="legend_1">
    <g id="patch_7">
     <path d="M 48.16 136.425 
L 177.381875 136.425 
Q 181.381875 136.425 181.381875 132.425 
L 181.381875 17 
Q 181.381875 13 177.381875 13 
L 48.16 13 
Q 44.16 13 44.16 17 
L 44.16 132.425 
Q 44.16 136.425 48.16 136.425 
z
" style="fill:#ffffff;opacity:0.2;stroke:#cccccc;stroke-linejoin:miter;"/>
    </g>
    <g id="line2d_58">
     <path d="M 52.16 29.196875 
L 92.16 29.196875 
" style="fill:none;stroke:#000000;stroke-linecap:square;stroke-width:3;"/>
    </g>
    <g id="line2d_59"/>
    <g id="text_7">
     <!-- 1: 4/4 -->
     <g transform="translate(108.16 36.196875)scale(0.2 -0.2)">
      <defs>
       <path d="M 750 794 
L 1409 794 
L 1409 0 
L 750 0 
L 750 794 
z
M 750 3309 
L 1409 3309 
L 1409 2516 
L 750 2516 
L 750 3309 
z
" id="DejaVuSans-3a" transform="scale(0.015625)"/>
       <path d="M 1625 4666 
L 2156 4666 
L 531 -594 
L 0 -594 
L 1625 4666 
z
" id="DejaVuSans-2f" transform="scale(0.015625)"/>
      </defs>
      <use xlink:href="#DejaVuSans-31"/>
      <use x="63.623047" xlink:href="#DejaVuSans-3a"/>
      <use x="97.314453" xlink:href="#DejaVuSans-20"/>
      <use x="129.101562" xlink:href="#DejaVuSans-34"/>
      <use x="192.724609" xlink:href="#DejaVuSans-2f"/>
      <use x="226.416016" xlink:href="#DejaVuSans-34"/>
     </g>
    </g>
    <g id="line2d_60">
     <path d="M 52.16 58.553125 
L 92.16 58.553125 
" style="fill:none;stroke:#00bfbf;stroke-linecap:square;stroke-width:3;"/>
    </g>
    <g id="line2d_61"/>
    <g id="text_8">
     <!-- -1: 1/0 -->
     <g transform="translate(108.16 65.553125)scale(0.2 -0.2)">
      <use xlink:href="#DejaVuSans-2d"/>
      <use x="36.083984" xlink:href="#DejaVuSans-31"/>
      <use x="99.707031" xlink:href="#DejaVuSans-3a"/>
      <use x="133.398438" xlink:href="#DejaVuSans-20"/>
      <use x="165.185547" xlink:href="#DejaVuSans-31"/>
      <use x="228.808594" xlink:href="#DejaVuSans-2f"/>
      <use x="262.5" xlink:href="#DejaVuSans-30"/>
     </g>
    </g>
    <g id="line2d_62">
     <path d="M 52.16 87.909375 
L 92.16 87.909375 
" style="fill:none;stroke:#bf00bf;stroke-linecap:square;stroke-width:3;"/>
    </g>
    <g id="line2d_63"/>
    <g id="text_9">
     <!-- -4: 0/0 -->
     <g transform="translate(108.16 94.909375)scale(0.2 -0.2)">
      <use xlink:href="#DejaVuSans-2d"/>
      <use x="36.083984" xlink:href="#DejaVuSans-34"/>
      <use x="99.707031" xlink:href="#DejaVuSans-3a"/>
      <use x="133.398438" xlink:href="#DejaVuSans-20"/>
      <use x="165.185547" xlink:href="#DejaVuSans-30"/>
      <use x="228.808594" xlink:href="#DejaVuSans-2f"/>
      <use x="262.5" xlink:href="#DejaVuSans-30"/>
     </g>
    </g>
    <g id="line2d_64">
     <path d="M 52.16 117.265625 
L 92.16 117.265625 
" style="fill:none;stroke:#ff0000;stroke-linecap:square;stroke-width:3;"/>
    </g>
    <g id="line2d_65"/>
    <g id="text_10">
     <!-- -8: 0/0 -->
     <g transform="translate(108.16 124.265625)scale(0.2 -0.2)">
      <defs>
       <path d="M 2034 2216 
Q 1584 2216 1326 1975 
Q 1069 1734 1069 1313 
Q 1069 891 1326 650 
Q 1584 409 2034 409 
Q 2484 409 2743 651 
Q 3003 894 3003 1313 
Q 3003 1734 2745 1975 
Q 2488 2216 2034 2216 
z
M 1403 2484 
Q 997 2584 770 2862 
Q 544 3141 544 3541 
Q 544 4100 942 4425 
Q 1341 4750 2034 4750 
Q 2731 4750 3128 4425 
Q 3525 4100 3525 3541 
Q 3525 3141 3298 2862 
Q 3072 2584 2669 2484 
Q 3125 2378 3379 2068 
Q 3634 1759 3634 1313 
Q 3634 634 3220 271 
Q 2806 -91 2034 -91 
Q 1263 -91 848 271 
Q 434 634 434 1313 
Q 434 1759 690 2068 
Q 947 2378 1403 2484 
z
M 1172 3481 
Q 1172 3119 1398 2916 
Q 1625 2713 2034 2713 
Q 2441 2713 2670 2916 
Q 2900 3119 2900 3481 
Q 2900 3844 2670 4047 
Q 2441 4250 2034 4250 
Q 1625 4250 1398 4047 
Q 1172 3844 1172 3481 
z
" id="DejaVuSans-38" transform="scale(0.015625)"/>
      </defs>
      <use xlink:href="#DejaVuSans-2d"/>
      <use x="36.083984" xlink:href="#DejaVuSans-38"/>
      <use x="99.707031" xlink:href="#DejaVuSans-3a"/>
      <use x="133.398438" xlink:href="#DejaVuSans-20"/>
      <use x="165.185547" xlink:href="#DejaVuSans-30"/>
      <use x="228.808594" xlink:href="#DejaVuSans-2f"/>
      <use x="262.5" xlink:href="#DejaVuSans-30"/>
     </g>
    </g>
   </g>
  </g>
 </g>
 <defs>
  <clipPath id="p27ae0a63c3">
   <rect height="288.28" width="419.032" x="34.16" y="3"/>
  </clipPath>
 </defs>
</svg>
