<?xml version="1.0" encoding="utf-8" standalone="no"?>
<!DOCTYPE svg PUBLIC "-//W3C//DTD SVG 1.1//EN"
  "http://www.w3.org/Graphics/SVG/1.1/DTD/svg11.dtd">
<svg height="345.6pt" version="1.1" viewBox="0 0 460.8 345.6" width="460.8pt" xmlns="http://www.w3.org/2000/svg" xmlns:xlink="http://www.w3.org/1999/xlink">
 <metadata>
  <rdf:RDF xmlns:cc="http://creativecommons.org/ns#" xmlns:dc="http://purl.org/dc/elements/1.1/" xmlns:rdf="http://www.w3.org/1999/02/22-rdf-syntax-ns#">
   <cc:Work>
    <dc:type rdf:resource="http://purl.org/dc/dcmitype/StillImage"/>
    <dc:date>2022-05-22T15:09:38.381056</dc:date>
    <dc:format>image/svg+xml</dc:format>
    <dc:creator>
     <cc:Agent>
      <dc:title>Matplotlib v3.4.3, https://matplotlib.org/</dc:title>
     </cc:Agent>
    </dc:creator>
   </cc:Work>
  </rdf:RDF>
 </metadata>
 <defs>
  <style type="text/css">*{stroke-linecap:butt;stroke-linejoin:round;}</style>
 </defs>
 <g id="figure_1">
  <g id="patch_1">
   <path d="M 0 345.6 
L 460.8 345.6 
L 460.8 0 
L 0 0 
z
" style="fill:#ffffff;"/>
  </g>
  <g id="axes_1">
   <g id="patch_2">
    <path d="M 34.16 291.28 
L 453.192 291.28 
L 453.192 3 
L 34.16 3 
z
" style="fill:#ffffff;"/>
   </g>
   <g id="matplotlib.axis_1">
    <g id="xtick_1">
     <g id="line2d_1">
      <path clip-path="url(#p0ff35b66ad)" d="M 163.98759 291.28 
L 163.98759 3 
" style="fill:none;stroke:#b0b0b0;stroke-linecap:square;stroke-width:0.8;"/>
     </g>
     <g id="line2d_2">
      <defs>
       <path d="M 0 0 
L 0 3.5 
" id="m79f0461adf" style="stroke:#000000;stroke-width:0.8;"/>
      </defs>
      <g>
       <use style="stroke:#000000;stroke-width:0.8;" x="163.98759" xlink:href="#m79f0461adf" y="291.28"/>
      </g>
     </g>
     <g id="text_1">
      <!-- -1 -->
      <g transform="translate(154.017278 313.476875)scale(0.2 -0.2)">
       <defs>
        <path d="M 313 2009 
L 1997 2009 
L 1997 1497 
L 313 1497 
L 313 2009 
z
" id="DejaVuSans-2d" transform="scale(0.015625)"/>
        <path d="M 794 531 
L 1825 531 
L 1825 4091 
L 703 3866 
L 703 4441 
L 1819 4666 
L 2450 4666 
L 2450 531 
L 3481 531 
L 3481 0 
L 794 0 
L 794 531 
z
" id="DejaVuSans-31" transform="scale(0.015625)"/>
       </defs>
       <use xlink:href="#DejaVuSans-2d"/>
       <use x="36.083984" xlink:href="#DejaVuSans-31"/>
      </g>
     </g>
    </g>
    <g id="xtick_2">
     <g id="line2d_3">
      <path clip-path="url(#p0ff35b66ad)" d="M 323.36441 291.28 
L 323.36441 3 
" style="fill:none;stroke:#b0b0b0;stroke-linecap:square;stroke-width:0.8;"/>
     </g>
     <g id="line2d_4">
      <g>
       <use style="stroke:#000000;stroke-width:0.8;" x="323.36441" xlink:href="#m79f0461adf" y="291.28"/>
      </g>
     </g>
     <g id="text_2">
      <!-- 1 -->
      <g transform="translate(317.00191 313.476875)scale(0.2 -0.2)">
       <use xlink:href="#DejaVuSans-31"/>
      </g>
     </g>
    </g>
    <g id="xtick_3">
     <g id="line2d_5">
      <defs>
       <path d="M 0 0 
L 0 2 
" id="mfc6230ea77" style="stroke:#000000;stroke-width:0.6;"/>
      </defs>
      <g>
       <use style="stroke:#000000;stroke-width:0.6;" x="42.631805" xlink:href="#mfc6230ea77" y="291.28"/>
      </g>
     </g>
    </g>
    <g id="xtick_4">
     <g id="line2d_6">
      <g>
       <use style="stroke:#000000;stroke-width:0.6;" x="52.587974" xlink:href="#mfc6230ea77" y="291.28"/>
      </g>
     </g>
    </g>
    <g id="xtick_5">
     <g id="line2d_7">
      <g>
       <use style="stroke:#000000;stroke-width:0.6;" x="60.310579" xlink:href="#mfc6230ea77" y="291.28"/>
      </g>
     </g>
    </g>
    <g id="xtick_6">
     <g id="line2d_8">
      <g>
       <use style="stroke:#000000;stroke-width:0.6;" x="66.620407" xlink:href="#mfc6230ea77" y="291.28"/>
      </g>
     </g>
    </g>
    <g id="xtick_7">
     <g id="line2d_9">
      <g>
       <use style="stroke:#000000;stroke-width:0.6;" x="71.95529" xlink:href="#mfc6230ea77" y="291.28"/>
      </g>
     </g>
    </g>
    <g id="xtick_8">
     <g id="line2d_10">
      <g>
       <use style="stroke:#000000;stroke-width:0.6;" x="76.576576" xlink:href="#mfc6230ea77" y="291.28"/>
      </g>
     </g>
    </g>
    <g id="xtick_9">
     <g id="line2d_11">
      <g>
       <use style="stroke:#000000;stroke-width:0.6;" x="80.652839" xlink:href="#mfc6230ea77" y="291.28"/>
      </g>
     </g>
    </g>
    <g id="xtick_10">
     <g id="line2d_12">
      <g>
       <use style="stroke:#000000;stroke-width:0.6;" x="108.287782" xlink:href="#mfc6230ea77" y="291.28"/>
      </g>
     </g>
    </g>
    <g id="xtick_11">
     <g id="line2d_13">
      <g>
       <use style="stroke:#000000;stroke-width:0.6;" x="122.320215" xlink:href="#mfc6230ea77" y="291.28"/>
      </g>
     </g>
    </g>
    <g id="xtick_12">
     <g id="line2d_14">
      <g>
       <use style="stroke:#000000;stroke-width:0.6;" x="132.276384" xlink:href="#mfc6230ea77" y="291.28"/>
      </g>
     </g>
    </g>
    <g id="xtick_13">
     <g id="line2d_15">
      <g>
       <use style="stroke:#000000;stroke-width:0.6;" x="139.998989" xlink:href="#mfc6230ea77" y="291.28"/>
      </g>
     </g>
    </g>
    <g id="xtick_14">
     <g id="line2d_16">
      <g>
       <use style="stroke:#000000;stroke-width:0.6;" x="146.308816" xlink:href="#mfc6230ea77" y="291.28"/>
      </g>
     </g>
    </g>
    <g id="xtick_15">
     <g id="line2d_17">
      <g>
       <use style="stroke:#000000;stroke-width:0.6;" x="151.6437" xlink:href="#mfc6230ea77" y="291.28"/>
      </g>
     </g>
    </g>
    <g id="xtick_16">
     <g id="line2d_18">
      <g>
       <use style="stroke:#000000;stroke-width:0.6;" x="156.264986" xlink:href="#mfc6230ea77" y="291.28"/>
      </g>
     </g>
    </g>
    <g id="xtick_17">
     <g id="line2d_19">
      <g>
       <use style="stroke:#000000;stroke-width:0.6;" x="160.341249" xlink:href="#mfc6230ea77" y="291.28"/>
      </g>
     </g>
    </g>
    <g id="xtick_18">
     <g id="line2d_20">
      <g>
       <use style="stroke:#000000;stroke-width:0.6;" x="187.976192" xlink:href="#mfc6230ea77" y="291.28"/>
      </g>
     </g>
    </g>
    <g id="xtick_19">
     <g id="line2d_21">
      <g>
       <use style="stroke:#000000;stroke-width:0.6;" x="202.008624" xlink:href="#mfc6230ea77" y="291.28"/>
      </g>
     </g>
    </g>
    <g id="xtick_20">
     <g id="line2d_22">
      <g>
       <use style="stroke:#000000;stroke-width:0.6;" x="211.964794" xlink:href="#mfc6230ea77" y="291.28"/>
      </g>
     </g>
    </g>
    <g id="xtick_21">
     <g id="line2d_23">
      <g>
       <use style="stroke:#000000;stroke-width:0.6;" x="219.687398" xlink:href="#mfc6230ea77" y="291.28"/>
      </g>
     </g>
    </g>
    <g id="xtick_22">
     <g id="line2d_24">
      <g>
       <use style="stroke:#000000;stroke-width:0.6;" x="225.997226" xlink:href="#mfc6230ea77" y="291.28"/>
      </g>
     </g>
    </g>
    <g id="xtick_23">
     <g id="line2d_25">
      <g>
       <use style="stroke:#000000;stroke-width:0.6;" x="231.332109" xlink:href="#mfc6230ea77" y="291.28"/>
      </g>
     </g>
    </g>
    <g id="xtick_24">
     <g id="line2d_26">
      <g>
       <use style="stroke:#000000;stroke-width:0.6;" x="235.953395" xlink:href="#mfc6230ea77" y="291.28"/>
      </g>
     </g>
    </g>
    <g id="xtick_25">
     <g id="line2d_27">
      <g>
       <use style="stroke:#000000;stroke-width:0.6;" x="240.029658" xlink:href="#mfc6230ea77" y="291.28"/>
      </g>
     </g>
    </g>
    <g id="xtick_26">
     <g id="line2d_28">
      <g>
       <use style="stroke:#000000;stroke-width:0.6;" x="267.664602" xlink:href="#mfc6230ea77" y="291.28"/>
      </g>
     </g>
    </g>
    <g id="xtick_27">
     <g id="line2d_29">
      <g>
       <use style="stroke:#000000;stroke-width:0.6;" x="281.697034" xlink:href="#mfc6230ea77" y="291.28"/>
      </g>
     </g>
    </g>
    <g id="xtick_28">
     <g id="line2d_30">
      <g>
       <use style="stroke:#000000;stroke-width:0.6;" x="291.653203" xlink:href="#mfc6230ea77" y="291.28"/>
      </g>
     </g>
    </g>
    <g id="xtick_29">
     <g id="line2d_31">
      <g>
       <use style="stroke:#000000;stroke-width:0.6;" x="299.375808" xlink:href="#mfc6230ea77" y="291.28"/>
      </g>
     </g>
    </g>
    <g id="xtick_30">
     <g id="line2d_32">
      <g>
       <use style="stroke:#000000;stroke-width:0.6;" x="305.685636" xlink:href="#mfc6230ea77" y="291.28"/>
      </g>
     </g>
    </g>
    <g id="xtick_31">
     <g id="line2d_33">
      <g>
       <use style="stroke:#000000;stroke-width:0.6;" x="311.020519" xlink:href="#mfc6230ea77" y="291.28"/>
      </g>
     </g>
    </g>
    <g id="xtick_32">
     <g id="line2d_34">
      <g>
       <use style="stroke:#000000;stroke-width:0.6;" x="315.641805" xlink:href="#mfc6230ea77" y="291.28"/>
      </g>
     </g>
    </g>
    <g id="xtick_33">
     <g id="line2d_35">
      <g>
       <use style="stroke:#000000;stroke-width:0.6;" x="319.718068" xlink:href="#mfc6230ea77" y="291.28"/>
      </g>
     </g>
    </g>
    <g id="xtick_34">
     <g id="line2d_36">
      <g>
       <use style="stroke:#000000;stroke-width:0.6;" x="347.353011" xlink:href="#mfc6230ea77" y="291.28"/>
      </g>
     </g>
    </g>
    <g id="xtick_35">
     <g id="line2d_37">
      <g>
       <use style="stroke:#000000;stroke-width:0.6;" x="361.385444" xlink:href="#mfc6230ea77" y="291.28"/>
      </g>
     </g>
    </g>
    <g id="xtick_36">
     <g id="line2d_38">
      <g>
       <use style="stroke:#000000;stroke-width:0.6;" x="371.341613" xlink:href="#mfc6230ea77" y="291.28"/>
      </g>
     </g>
    </g>
    <g id="xtick_37">
     <g id="line2d_39">
      <g>
       <use style="stroke:#000000;stroke-width:0.6;" x="379.064218" xlink:href="#mfc6230ea77" y="291.28"/>
      </g>
     </g>
    </g>
    <g id="xtick_38">
     <g id="line2d_40">
      <g>
       <use style="stroke:#000000;stroke-width:0.6;" x="385.374045" xlink:href="#mfc6230ea77" y="291.28"/>
      </g>
     </g>
    </g>
    <g id="xtick_39">
     <g id="line2d_41">
      <g>
       <use style="stroke:#000000;stroke-width:0.6;" x="390.708928" xlink:href="#mfc6230ea77" y="291.28"/>
      </g>
     </g>
    </g>
    <g id="xtick_40">
     <g id="line2d_42">
      <g>
       <use style="stroke:#000000;stroke-width:0.6;" x="395.330214" xlink:href="#mfc6230ea77" y="291.28"/>
      </g>
     </g>
    </g>
    <g id="xtick_41">
     <g id="line2d_43">
      <g>
       <use style="stroke:#000000;stroke-width:0.6;" x="399.406478" xlink:href="#mfc6230ea77" y="291.28"/>
      </g>
     </g>
    </g>
    <g id="xtick_42">
     <g id="line2d_44">
      <g>
       <use style="stroke:#000000;stroke-width:0.6;" x="427.041421" xlink:href="#mfc6230ea77" y="291.28"/>
      </g>
     </g>
    </g>
    <g id="xtick_43">
     <g id="line2d_45">
      <g>
       <use style="stroke:#000000;stroke-width:0.6;" x="441.073853" xlink:href="#mfc6230ea77" y="291.28"/>
      </g>
     </g>
    </g>
    <g id="xtick_44">
     <g id="line2d_46">
      <g>
       <use style="stroke:#000000;stroke-width:0.6;" x="451.030022" xlink:href="#mfc6230ea77" y="291.28"/>
      </g>
     </g>
    </g>
    <g id="text_3">
     <!-- log10 of FEvals ratio -->
     <g transform="translate(141.371312 336.833125)scale(0.2 -0.2)">
      <defs>
       <path d="M 603 4863 
L 1178 4863 
L 1178 0 
L 603 0 
L 603 4863 
z
" id="DejaVuSans-6c" transform="scale(0.015625)"/>
       <path d="M 1959 3097 
Q 1497 3097 1228 2736 
Q 959 2375 959 1747 
Q 959 1119 1226 758 
Q 1494 397 1959 397 
Q 2419 397 2687 759 
Q 2956 1122 2956 1747 
Q 2956 2369 2687 2733 
Q 2419 3097 1959 3097 
z
M 1959 3584 
Q 2709 3584 3137 3096 
Q 3566 2609 3566 1747 
Q 3566 888 3137 398 
Q 2709 -91 1959 -91 
Q 1206 -91 779 398 
Q 353 888 353 1747 
Q 353 2609 779 3096 
Q 1206 3584 1959 3584 
z
" id="DejaVuSans-6f" transform="scale(0.015625)"/>
       <path d="M 2906 1791 
Q 2906 2416 2648 2759 
Q 2391 3103 1925 3103 
Q 1463 3103 1205 2759 
Q 947 2416 947 1791 
Q 947 1169 1205 825 
Q 1463 481 1925 481 
Q 2391 481 2648 825 
Q 2906 1169 2906 1791 
z
M 3481 434 
Q 3481 -459 3084 -895 
Q 2688 -1331 1869 -1331 
Q 1566 -1331 1297 -1286 
Q 1028 -1241 775 -1147 
L 775 -588 
Q 1028 -725 1275 -790 
Q 1522 -856 1778 -856 
Q 2344 -856 2625 -561 
Q 2906 -266 2906 331 
L 2906 616 
Q 2728 306 2450 153 
Q 2172 0 1784 0 
Q 1141 0 747 490 
Q 353 981 353 1791 
Q 353 2603 747 3093 
Q 1141 3584 1784 3584 
Q 2172 3584 2450 3431 
Q 2728 3278 2906 2969 
L 2906 3500 
L 3481 3500 
L 3481 434 
z
" id="DejaVuSans-67" transform="scale(0.015625)"/>
       <path d="M 2034 4250 
Q 1547 4250 1301 3770 
Q 1056 3291 1056 2328 
Q 1056 1369 1301 889 
Q 1547 409 2034 409 
Q 2525 409 2770 889 
Q 3016 1369 3016 2328 
Q 3016 3291 2770 3770 
Q 2525 4250 2034 4250 
z
M 2034 4750 
Q 2819 4750 3233 4129 
Q 3647 3509 3647 2328 
Q 3647 1150 3233 529 
Q 2819 -91 2034 -91 
Q 1250 -91 836 529 
Q 422 1150 422 2328 
Q 422 3509 836 4129 
Q 1250 4750 2034 4750 
z
" id="DejaVuSans-30" transform="scale(0.015625)"/>
       <path id="DejaVuSans-20" transform="scale(0.015625)"/>
       <path d="M 2375 4863 
L 2375 4384 
L 1825 4384 
Q 1516 4384 1395 4259 
Q 1275 4134 1275 3809 
L 1275 3500 
L 2222 3500 
L 2222 3053 
L 1275 3053 
L 1275 0 
L 697 0 
L 697 3053 
L 147 3053 
L 147 3500 
L 697 3500 
L 697 3744 
Q 697 4328 969 4595 
Q 1241 4863 1831 4863 
L 2375 4863 
z
" id="DejaVuSans-66" transform="scale(0.015625)"/>
       <path d="M 628 4666 
L 3309 4666 
L 3309 4134 
L 1259 4134 
L 1259 2759 
L 3109 2759 
L 3109 2228 
L 1259 2228 
L 1259 0 
L 628 0 
L 628 4666 
z
" id="DejaVuSans-46" transform="scale(0.015625)"/>
       <path d="M 628 4666 
L 3578 4666 
L 3578 4134 
L 1259 4134 
L 1259 2753 
L 3481 2753 
L 3481 2222 
L 1259 2222 
L 1259 531 
L 3634 531 
L 3634 0 
L 628 0 
L 628 4666 
z
" id="DejaVuSans-45" transform="scale(0.015625)"/>
       <path d="M 191 3500 
L 800 3500 
L 1894 563 
L 2988 3500 
L 3597 3500 
L 2284 0 
L 1503 0 
L 191 3500 
z
" id="DejaVuSans-76" transform="scale(0.015625)"/>
       <path d="M 2194 1759 
Q 1497 1759 1228 1600 
Q 959 1441 959 1056 
Q 959 750 1161 570 
Q 1363 391 1709 391 
Q 2188 391 2477 730 
Q 2766 1069 2766 1631 
L 2766 1759 
L 2194 1759 
z
M 3341 1997 
L 3341 0 
L 2766 0 
L 2766 531 
Q 2569 213 2275 61 
Q 1981 -91 1556 -91 
Q 1019 -91 701 211 
Q 384 513 384 1019 
Q 384 1609 779 1909 
Q 1175 2209 1959 2209 
L 2766 2209 
L 2766 2266 
Q 2766 2663 2505 2880 
Q 2244 3097 1772 3097 
Q 1472 3097 1187 3025 
Q 903 2953 641 2809 
L 641 3341 
Q 956 3463 1253 3523 
Q 1550 3584 1831 3584 
Q 2591 3584 2966 3190 
Q 3341 2797 3341 1997 
z
" id="DejaVuSans-61" transform="scale(0.015625)"/>
       <path d="M 2834 3397 
L 2834 2853 
Q 2591 2978 2328 3040 
Q 2066 3103 1784 3103 
Q 1356 3103 1142 2972 
Q 928 2841 928 2578 
Q 928 2378 1081 2264 
Q 1234 2150 1697 2047 
L 1894 2003 
Q 2506 1872 2764 1633 
Q 3022 1394 3022 966 
Q 3022 478 2636 193 
Q 2250 -91 1575 -91 
Q 1294 -91 989 -36 
Q 684 19 347 128 
L 347 722 
Q 666 556 975 473 
Q 1284 391 1588 391 
Q 1994 391 2212 530 
Q 2431 669 2431 922 
Q 2431 1156 2273 1281 
Q 2116 1406 1581 1522 
L 1381 1569 
Q 847 1681 609 1914 
Q 372 2147 372 2553 
Q 372 3047 722 3315 
Q 1072 3584 1716 3584 
Q 2034 3584 2315 3537 
Q 2597 3491 2834 3397 
z
" id="DejaVuSans-73" transform="scale(0.015625)"/>
       <path d="M 2631 2963 
Q 2534 3019 2420 3045 
Q 2306 3072 2169 3072 
Q 1681 3072 1420 2755 
Q 1159 2438 1159 1844 
L 1159 0 
L 581 0 
L 581 3500 
L 1159 3500 
L 1159 2956 
Q 1341 3275 1631 3429 
Q 1922 3584 2338 3584 
Q 2397 3584 2469 3576 
Q 2541 3569 2628 3553 
L 2631 2963 
z
" id="DejaVuSans-72" transform="scale(0.015625)"/>
       <path d="M 1172 4494 
L 1172 3500 
L 2356 3500 
L 2356 3053 
L 1172 3053 
L 1172 1153 
Q 1172 725 1289 603 
Q 1406 481 1766 481 
L 2356 481 
L 2356 0 
L 1766 0 
Q 1100 0 847 248 
Q 594 497 594 1153 
L 594 3053 
L 172 3053 
L 172 3500 
L 594 3500 
L 594 4494 
L 1172 4494 
z
" id="DejaVuSans-74" transform="scale(0.015625)"/>
       <path d="M 603 3500 
L 1178 3500 
L 1178 0 
L 603 0 
L 603 3500 
z
M 603 4863 
L 1178 4863 
L 1178 4134 
L 603 4134 
L 603 4863 
z
" id="DejaVuSans-69" transform="scale(0.015625)"/>
      </defs>
      <use xlink:href="#DejaVuSans-6c"/>
      <use x="27.783203" xlink:href="#DejaVuSans-6f"/>
      <use x="88.964844" xlink:href="#DejaVuSans-67"/>
      <use x="152.441406" xlink:href="#DejaVuSans-31"/>
      <use x="216.064453" xlink:href="#DejaVuSans-30"/>
      <use x="279.6875" xlink:href="#DejaVuSans-20"/>
      <use x="311.474609" xlink:href="#DejaVuSans-6f"/>
      <use x="372.65625" xlink:href="#DejaVuSans-66"/>
      <use x="407.861328" xlink:href="#DejaVuSans-20"/>
      <use x="439.648438" xlink:href="#DejaVuSans-46"/>
      <use x="497.167969" xlink:href="#DejaVuSans-45"/>
      <use x="560.351562" xlink:href="#DejaVuSans-76"/>
      <use x="619.53125" xlink:href="#DejaVuSans-61"/>
      <use x="680.810547" xlink:href="#DejaVuSans-6c"/>
      <use x="708.59375" xlink:href="#DejaVuSans-73"/>
      <use x="760.693359" xlink:href="#DejaVuSans-20"/>
      <use x="792.480469" xlink:href="#DejaVuSans-72"/>
      <use x="833.59375" xlink:href="#DejaVuSans-61"/>
      <use x="894.873047" xlink:href="#DejaVuSans-74"/>
      <use x="934.082031" xlink:href="#DejaVuSans-69"/>
      <use x="961.865234" xlink:href="#DejaVuSans-6f"/>
     </g>
    </g>
   </g>
   <g id="matplotlib.axis_2">
    <g id="ytick_1">
     <g id="line2d_47">
      <path clip-path="url(#p0ff35b66ad)" d="M 34.16 288.453725 
L 453.192 288.453725 
" style="fill:none;stroke:#b0b0b0;stroke-linecap:square;stroke-width:0.8;"/>
     </g>
     <g id="line2d_48">
      <defs>
       <path d="M 0 0 
L -3.5 0 
" id="md4d1a93958" style="stroke:#000000;stroke-width:0.8;"/>
      </defs>
      <g>
       <use style="stroke:#000000;stroke-width:0.8;" x="34.16" xlink:href="#md4d1a93958" y="288.453725"/>
      </g>
     </g>
    </g>
    <g id="ytick_2">
     <g id="line2d_49">
      <path clip-path="url(#p0ff35b66ad)" d="M 34.16 217.796863 
L 453.192 217.796863 
" style="fill:none;stroke:#b0b0b0;stroke-linecap:square;stroke-width:0.8;"/>
     </g>
     <g id="line2d_50">
      <g>
       <use style="stroke:#000000;stroke-width:0.8;" x="34.16" xlink:href="#md4d1a93958" y="217.796863"/>
      </g>
     </g>
    </g>
    <g id="ytick_3">
     <g id="line2d_51">
      <path clip-path="url(#p0ff35b66ad)" d="M 34.16 147.14 
L 453.192 147.14 
" style="fill:none;stroke:#b0b0b0;stroke-linecap:square;stroke-width:0.8;"/>
     </g>
     <g id="line2d_52">
      <g>
       <use style="stroke:#000000;stroke-width:0.8;" x="34.16" xlink:href="#md4d1a93958" y="147.14"/>
      </g>
     </g>
    </g>
    <g id="ytick_4">
     <g id="line2d_53">
      <path clip-path="url(#p0ff35b66ad)" d="M 34.16 76.483137 
L 453.192 76.483137 
" style="fill:none;stroke:#b0b0b0;stroke-linecap:square;stroke-width:0.8;"/>
     </g>
     <g id="line2d_54">
      <g>
       <use style="stroke:#000000;stroke-width:0.8;" x="34.16" xlink:href="#md4d1a93958" y="76.483137"/>
      </g>
     </g>
    </g>
    <g id="ytick_5">
     <g id="line2d_55">
      <path clip-path="url(#p0ff35b66ad)" d="M 34.16 5.826275 
L 453.192 5.826275 
" style="fill:none;stroke:#b0b0b0;stroke-linecap:square;stroke-width:0.8;"/>
     </g>
     <g id="line2d_56">
      <g>
       <use style="stroke:#000000;stroke-width:0.8;" x="34.16" xlink:href="#md4d1a93958" y="5.826275"/>
      </g>
     </g>
    </g>
    <g id="text_4">
     <!-- proportion of trials -->
     <g transform="translate(19.000625 240.14625)rotate(-90)scale(0.2 -0.2)">
      <defs>
       <path d="M 1159 525 
L 1159 -1331 
L 581 -1331 
L 581 3500 
L 1159 3500 
L 1159 2969 
Q 1341 3281 1617 3432 
Q 1894 3584 2278 3584 
Q 2916 3584 3314 3078 
Q 3713 2572 3713 1747 
Q 3713 922 3314 415 
Q 2916 -91 2278 -91 
Q 1894 -91 1617 61 
Q 1341 213 1159 525 
z
M 3116 1747 
Q 3116 2381 2855 2742 
Q 2594 3103 2138 3103 
Q 1681 3103 1420 2742 
Q 1159 2381 1159 1747 
Q 1159 1113 1420 752 
Q 1681 391 2138 391 
Q 2594 391 2855 752 
Q 3116 1113 3116 1747 
z
" id="DejaVuSans-70" transform="scale(0.015625)"/>
       <path d="M 3513 2113 
L 3513 0 
L 2938 0 
L 2938 2094 
Q 2938 2591 2744 2837 
Q 2550 3084 2163 3084 
Q 1697 3084 1428 2787 
Q 1159 2491 1159 1978 
L 1159 0 
L 581 0 
L 581 3500 
L 1159 3500 
L 1159 2956 
Q 1366 3272 1645 3428 
Q 1925 3584 2291 3584 
Q 2894 3584 3203 3211 
Q 3513 2838 3513 2113 
z
" id="DejaVuSans-6e" transform="scale(0.015625)"/>
      </defs>
      <use xlink:href="#DejaVuSans-70"/>
      <use x="63.476562" xlink:href="#DejaVuSans-72"/>
      <use x="102.339844" xlink:href="#DejaVuSans-6f"/>
      <use x="163.521484" xlink:href="#DejaVuSans-70"/>
      <use x="226.998047" xlink:href="#DejaVuSans-6f"/>
      <use x="288.179688" xlink:href="#DejaVuSans-72"/>
      <use x="329.292969" xlink:href="#DejaVuSans-74"/>
      <use x="368.501953" xlink:href="#DejaVuSans-69"/>
      <use x="396.285156" xlink:href="#DejaVuSans-6f"/>
      <use x="457.466797" xlink:href="#DejaVuSans-6e"/>
      <use x="520.845703" xlink:href="#DejaVuSans-20"/>
      <use x="552.632812" xlink:href="#DejaVuSans-6f"/>
      <use x="613.814453" xlink:href="#DejaVuSans-66"/>
      <use x="649.019531" xlink:href="#DejaVuSans-20"/>
      <use x="680.806641" xlink:href="#DejaVuSans-74"/>
      <use x="720.015625" xlink:href="#DejaVuSans-72"/>
      <use x="761.128906" xlink:href="#DejaVuSans-69"/>
      <use x="788.912109" xlink:href="#DejaVuSans-61"/>
      <use x="850.191406" xlink:href="#DejaVuSans-6c"/>
      <use x="877.974609" xlink:href="#DejaVuSans-73"/>
     </g>
    </g>
   </g>
   <g id="line2d_57">
    <path clip-path="url(#p0ff35b66ad)" d="M 34.16 278.222868 
L 122.668039 278.222868 
L 122.668039 277.711325 
L 152.590968 277.711325 
L 152.590968 277.455553 
L 160.309801 277.455553 
L 160.309801 277.199782 
L 160.689073 277.199782 
L 160.689073 276.688239 
L 163.674392 276.688239 
L 163.674392 276.432467 
L 163.98759 276.432467 
L 163.98759 275.409382 
L 164.161066 275.409382 
L 164.161066 275.15361 
L 170.645242 275.15361 
L 170.645242 274.642067 
L 176.331481 274.642067 
L 176.331481 273.107439 
L 177.988575 273.107439 
L 177.988575 272.851667 
L 181.353166 272.851667 
L 181.353166 272.595896 
L 183.139278 272.595896 
L 183.139278 272.340124 
L 184.677675 272.340124 
L 184.677675 271.828581 
L 185.634645 271.828581 
L 185.634645 271.57281 
L 186.618832 271.57281 
L 186.618832 271.317038 
L 186.740052 271.317038 
L 186.740052 271.061267 
L 186.953214 271.061267 
L 186.953214 270.805496 
L 187.976192 270.805496 
L 187.976192 270.293953 
L 190.012558 270.293953 
L 190.012558 270.038181 
L 193.600686 270.038181 
L 193.600686 269.78241 
L 194.633844 269.78241 
L 194.633844 269.526638 
L 195.698797 269.526638 
L 195.698797 267.99201 
L 198.710107 267.99201 
L 198.710107 267.736238 
L 199.245403 267.736238 
L 199.245403 267.480467 
L 202.008624 267.480467 
L 202.008624 266.457381 
L 202.643656 266.457381 
L 202.643656 266.201609 
L 204.418826 266.201609 
L 204.418826 265.945838 
L 204.962778 265.945838 
L 204.962778 265.690067 
L 205.654966 265.690067 
L 205.654966 264.922752 
L 206.950613 264.922752 
L 206.950613 264.666981 
L 207.430136 264.666981 
L 207.430136 264.411209 
L 209.731229 264.411209 
L 209.731229 264.155438 
L 210.315203 264.155438 
L 210.315203 263.899666 
L 210.8155 263.899666 
L 210.8155 263.643895 
L 211.964794 263.643895 
L 211.964794 262.620809 
L 213.396426 262.620809 
L 213.396426 262.365038 
L 214.00116 262.365038 
L 214.00116 262.109266 
L 214.352515 262.109266 
L 214.352515 260.318866 
L 216.761016 260.318866 
L 216.761016 260.063095 
L 219.687398 260.063095 
L 219.687398 259.040009 
L 220.32243 259.040009 
L 220.32243 258.784237 
L 222.144205 258.784237 
L 222.144205 258.528466 
L 222.641552 258.528466 
L 222.641552 258.272695 
L 223.33374 258.272695 
L 223.33374 257.761152 
L 224.308684 257.761152 
L 224.308684 256.226523 
L 224.761086 256.226523 
L 224.846708 255.71498 
L 225.508795 255.71498 
L 225.508795 255.459209 
L 225.997226 255.459209 
L 225.997226 253.92458 
L 227.410003 253.92458 
L 227.410003 253.668808 
L 228.211298 253.668808 
L 228.211298 253.413037 
L 228.50877 253.413037 
L 228.50877 253.157266 
L 229.793712 253.157266 
L 229.793712 252.901494 
L 231.332109 252.901494 
L 231.332109 252.389951 
L 232.031289 252.389951 
L 232.031289 252.13418 
L 232.28908 252.13418 
L 232.28908 251.878408 
L 233.133946 251.878408 
L 233.133946 251.622637 
L 233.273267 251.622637 
L 233.380864 251.111094 
L 233.607648 251.111094 
L 233.607648 250.855323 
L 233.719831 250.855323 
L 233.719831 249.320694 
L 234.067655 249.320694 
L 234.067655 249.064922 
L 234.515457 249.064922 
L 234.515457 248.809151 
L 235.953395 248.809151 
L 235.953395 247.786065 
L 236.16378 247.786065 
L 236.16378 247.530294 
L 237.366172 247.530294 
L 237.366172 247.274522 
L 237.582185 247.274522 
L 237.582185 247.018751 
L 237.945951 247.018751 
L 237.945951 246.762979 
L 238.341117 246.762979 
L 238.341117 245.228351 
L 239.826677 245.228351 
L 239.826677 244.972579 
L 240.029658 244.972579 
L 240.029658 244.461036 
L 240.25512 244.461036 
L 240.25512 244.205265 
L 241.310542 244.205265 
L 241.310542 243.949493 
L 242.133316 243.949493 
L 242.133316 243.693722 
L 242.43986 243.693722 
L 242.43986 243.43795 
L 243.676 243.43795 
L 243.676 239.601379 
L 243.92794 239.601379 
L 243.92794 239.345607 
L 244.704043 239.345607 
L 244.789498 238.834064 
L 245.497907 238.834064 
L 245.497907 238.578293 
L 245.839719 238.578293 
L 245.839719 238.322522 
L 246.974517 238.322522 
L 246.974517 237.810979 
L 247.322342 237.810979 
L 247.322342 237.555207 
L 247.779917 237.555207 
L 247.779917 237.299436 
L 248.154088 237.299436 
L 248.154088 237.043664 
L 248.297286 237.043664 
L 248.297286 236.27635 
L 248.574456 236.27635 
L 248.574456 236.020578 
L 249.284468 236.020578 
L 249.284468 235.764807 
L 249.717606 235.764807 
L 249.717606 235.509036 
L 249.872544 235.509036 
L 249.872544 235.253264 
L 249.985828 235.253264 
L 250.05012 234.48595 
L 250.281674 234.48595 
L 250.336764 233.974407 
L 251.266332 233.974407 
L 251.276959 233.462864 
L 251.60359 233.462864 
L 251.60359 233.207093 
L 251.745433 233.207093 
L 251.745433 232.951321 
L 252.194231 232.951321 
L 252.194231 232.69555 
L 252.373549 232.69555 
L 252.373549 231.928235 
L 252.699276 231.928235 
L 252.699276 231.672464 
L 252.836543 231.672464 
L 252.836543 231.416692 
L 253.082197 231.416692 
L 253.082197 231.160921 
L 253.632169 231.160921 
L 253.632169 230.649378 
L 253.842554 230.649378 
L 253.842554 230.393607 
L 254.084571 230.393607 
L 254.084571 230.137835 
L 254.630922 230.137835 
L 254.630922 229.882064 
L 254.981965 229.882064 
L 254.981965 229.626292 
L 255.320711 229.626292 
L 255.320711 228.858978 
L 255.656973 228.858978 
L 255.73028 228.347435 
L 256.372041 228.347435 
L 256.372041 228.091664 
L 256.591941 228.091664 
L 256.591941 227.580121 
L 257.708432 227.580121 
L 257.708432 224.510863 
L 258.049403 224.510863 
L 258.049403 224.255092 
L 258.690292 224.255092 
L 258.690292 223.99932 
L 259.318408 223.99932 
L 259.350014 222.976235 
L 259.941997 222.976235 
L 259.941997 222.720463 
L 260.374593 222.720463 
L 260.374593 222.464692 
L 260.993327 222.464692 
L 260.993327 222.20892 
L 261.906861 222.20892 
L 261.926824 221.697377 
L 262.817854 221.697377 
L 262.817854 221.441606 
L 263.043316 221.441606 
L 263.083706 220.41852 
L 263.31553 220.41852 
L 263.31553 220.162749 
L 263.518493 220.162749 
L 263.518493 219.906977 
L 263.682255 219.906977 
L 263.682255 219.651206 
L 264.01826 219.651206 
L 264.01826 219.395434 
L 264.351936 219.395434 
L 264.376202 218.883891 
L 264.478059 218.883891 
L 264.478059 218.62812 
L 266.072583 218.62812 
L 266.177623 218.116577 
L 266.367542 218.116577 
L 266.448297 217.349263 
L 266.720348 217.349263 
L 266.797182 216.83772 
L 266.908766 216.83772 
L 266.908766 216.581948 
L 267.16181 216.581948 
L 267.227071 215.814634 
L 267.43914 215.814634 
L 267.496191 215.303091 
L 267.664602 215.303091 
L 267.716527 211.722291 
L 268.563567 211.722291 
L 268.563567 211.466519 
L 269.092764 211.466519 
L 269.092764 211.210748 
L 269.437174 211.210748 
L 269.499685 210.699205 
L 269.732132 210.699205 
L 269.732132 210.443434 
L 269.988174 210.443434 
L 269.988174 209.931891 
L 270.199153 209.931891 
L 270.260389 209.420348 
L 270.498168 209.420348 
L 270.498168 209.164576 
L 270.963119 209.164576 
L 270.963119 208.908805 
L 271.219749 208.908805 
L 271.219749 208.653033 
L 271.401898 208.653033 
L 271.401898 208.397262 
L 271.565633 208.397262 
L 271.565633 208.141491 
L 271.740865 208.141491 
L 271.740865 207.374176 
L 272.722144 207.374176 
L 272.722144 207.118405 
L 272.842528 207.118405 
L 272.842528 206.862633 
L 272.999485 206.862633 
L 273.074082 206.35109 
L 274.067671 206.35109 
L 274.143663 205.839548 
L 274.268136 205.839548 
L 274.268136 205.583776 
L 274.546479 205.583776 
L 274.546479 204.816462 
L 275.163204 204.816462 
L 275.163204 204.56069 
L 275.387206 204.56069 
L 275.387206 203.281833 
L 275.531776 203.281833 
L 275.531776 203.026062 
L 275.915587 203.026062 
L 275.915587 202.77029 
L 276.147858 202.77029 
L 276.186919 202.258747 
L 276.544908 202.258747 
L 276.544908 202.002976 
L 277.620771 202.002976 
L 277.696583 201.491433 
L 277.847711 201.491433 
L 277.847711 201.235661 
L 278.120558 201.235661 
L 278.120558 200.97989 
L 278.328226 200.97989 
L 278.328226 200.724119 
L 278.685724 200.724119 
L 278.685724 199.956804 
L 278.844324 199.956804 
L 278.889422 199.445261 
L 279.075878 199.445261 
L 279.075878 199.18949 
L 279.198007 199.18949 
L 279.198007 198.933718 
L 279.309312 198.933718 
L 279.309312 198.677947 
L 280.279806 198.677947 
L 280.279806 198.422175 
L 280.580542 198.422175 
L 280.580542 198.166404 
L 280.823594 198.166404 
L 280.885073 197.654861 
L 281.156269 197.654861 
L 281.156269 197.39909 
L 281.697034 197.39909 
L 281.80778 194.585604 
L 281.87753 194.585604 
L 281.87753 194.329832 
L 282.142162 194.329832 
L 282.142162 194.074061 
L 282.293742 194.074061 
L 282.293742 193.818289 
L 282.598928 193.818289 
L 282.667088 193.306747 
L 282.804592 193.306747 
L 282.898642 192.795204 
L 283.380441 192.795204 
L 283.380441 192.539432 
L 283.653797 192.539432 
L 283.653797 192.283661 
L 284.020607 192.283661 
L 284.020607 192.027889 
L 284.14565 192.027889 
L 284.14565 191.772118 
L 284.364628 191.772118 
L 284.467171 191.004803 
L 284.69901 191.004803 
L 284.78911 190.493261 
L 285.546357 190.493261 
L 285.637768 189.981718 
L 285.773297 189.981718 
L 285.773297 189.725946 
L 286.107679 189.725946 
L 286.205283 189.214403 
L 286.59549 189.214403 
L 286.59549 188.958632 
L 286.786293 188.958632 
L 286.786293 188.70286 
L 287.031917 188.70286 
L 287.123352 187.168232 
L 287.367379 187.168232 
L 287.367379 186.91246 
L 287.602082 186.91246 
L 287.616869 186.400917 
L 287.731097 186.400917 
L 287.764389 185.377832 
L 287.893578 185.377832 
L 287.999711 184.610517 
L 288.231264 184.610517 
L 288.231264 184.354746 
L 288.37309 184.354746 
L 288.37309 184.098974 
L 288.641893 184.098974 
L 288.70065 183.587431 
L 288.789634 183.587431 
L 288.789634 183.33166 
L 289.238601 183.33166 
L 289.297993 182.564346 
L 289.442475 182.564346 
L 289.513958 182.052803 
L 289.684837 182.052803 
L 289.701174 181.54126 
L 289.991689 181.54126 
L 290.019219 180.773946 
L 290.491404 180.773946 
L 290.588493 180.006631 
L 290.655779 180.006631 
L 290.655779 179.75086 
L 290.782188 179.75086 
L 290.820047 179.239317 
L 291.346481 179.239317 
L 291.346481 178.983545 
L 291.554744 178.983545 
L 291.653203 177.193145 
L 291.733969 177.193145 
L 291.822437 176.681602 
L 291.885172 176.681602 
L 291.988665 176.170059 
L 292.051461 176.170059 
L 292.055449 175.658517 
L 292.265754 175.658517 
L 292.265754 175.146974 
L 292.480531 175.146974 
L 292.502834 174.635431 
L 292.718156 174.635431 
L 292.797793 173.868116 
L 293.052538 173.868116 
L 293.147316 173.356574 
L 293.290576 173.356574 
L 293.290576 173.100802 
L 293.594361 173.100802 
L 293.600187 172.589259 
L 293.962623 172.589259 
L 293.976776 172.077716 
L 294.086541 172.077716 
L 294.156094 171.05463 
L 294.210926 171.05463 
L 294.210926 170.798859 
L 294.370584 170.798859 
L 294.370584 170.543088 
L 294.612975 170.543088 
L 294.64917 170.031545 
L 295.70297 170.031545 
L 295.729466 169.26423 
L 295.919309 169.26423 
L 295.974049 168.496916 
L 296.121732 168.496916 
L 296.17603 167.985373 
L 296.253277 167.985373 
L 296.353286 167.218059 
L 296.549075 167.218059 
L 296.613585 166.706516 
L 296.666691 166.706516 
L 296.666691 166.450744 
L 296.845138 166.450744 
L 296.931859 165.939201 
L 296.988086 165.939201 
L 296.988086 165.68343 
L 297.600638 165.68343 
L 297.600638 165.427659 
L 297.886968 165.427659 
L 297.991294 164.916116 
L 297.998184 164.916116 
L 297.998184 164.660344 
L 298.256737 164.660344 
L 298.256737 164.404573 
L 298.541834 164.404573 
L 298.541834 163.89303 
L 298.828631 163.89303 
L 298.926344 163.125716 
L 299.052364 163.125716 
L 299.139035 162.358401 
L 299.292372 162.358401 
L 299.375808 161.335315 
L 299.525734 161.335315 
L 299.525734 161.079544 
L 299.700009 161.079544 
L 299.700009 160.823773 
L 299.866713 160.823773 
L 299.866713 160.31223 
L 300.084804 160.31223 
L 300.084804 160.056458 
L 300.232324 160.056458 
L 300.316357 159.544915 
L 300.463878 159.544915 
L 300.463878 159.289144 
L 300.68776 159.289144 
L 300.700687 158.777601 
L 300.818027 158.777601 
L 300.818027 158.521829 
L 300.967272 158.521829 
L 300.967272 158.266058 
L 301.362698 158.266058 
L 301.362698 158.010287 
L 301.655363 158.010287 
L 301.709731 157.242972 
L 301.990415 157.242972 
L 301.990415 156.987201 
L 302.116501 156.987201 
L 302.116501 156.731429 
L 302.397236 156.731429 
L 302.397236 156.475658 
L 302.619085 156.475658 
L 302.674325 155.708344 
L 302.972674 155.708344 
L 302.972674 155.196801 
L 303.100715 155.196801 
L 303.115136 154.685258 
L 303.225131 154.685258 
L 303.268473 153.917943 
L 303.625546 153.917943 
L 303.625546 153.662172 
L 303.760321 153.662172 
L 303.794004 153.150629 
L 303.876717 153.150629 
L 303.938052 152.127543 
L 304.349244 152.127543 
L 304.349244 151.616 
L 304.61598 151.616 
L 304.710691 150.848686 
L 304.858356 150.848686 
L 304.951716 150.337143 
L 305.175932 150.337143 
L 305.201596 149.8256 
L 305.309046 149.8256 
L 305.417561 149.314057 
L 305.548028 149.314057 
L 305.656638 148.546743 
L 305.685636 148.546743 
L 305.685636 147.523657 
L 306.051864 147.523657 
L 306.076693 147.012114 
L 306.499985 147.012114 
L 306.584601 145.733257 
L 306.685791 145.733257 
L 306.685791 145.477486 
L 307.042354 145.477486 
L 307.111348 144.198628 
L 307.447139 144.198628 
L 307.520175 143.687085 
L 307.674123 143.687085 
L 307.736684 142.664 
L 307.992211 142.664 
L 308.095535 142.152457 
L 308.302214 142.152457 
L 308.406438 141.129371 
L 308.429917 141.129371 
L 308.447759 140.617828 
L 308.603356 140.617828 
L 308.701396 140.106285 
L 309.004914 140.106285 
L 309.051747 139.338971 
L 309.240783 139.338971 
L 309.240783 139.083199 
L 309.631137 139.083199 
L 309.631137 138.827428 
L 309.944528 138.827428 
L 310.045574 138.060114 
L 310.220293 138.060114 
L 310.220293 137.292799 
L 310.376626 137.292799 
L 310.376626 137.037028 
L 310.496142 137.037028 
L 310.496142 136.781256 
L 310.72556 136.781256 
L 310.795057 136.013942 
L 310.882911 136.013942 
L 310.882911 135.758171 
L 311.020519 135.758171 
L 311.036541 134.223542 
L 311.40613 134.223542 
L 311.40613 133.96777 
L 311.814975 133.96777 
L 311.851988 133.456227 
L 312.151608 133.456227 
L 312.151608 133.200456 
L 312.505135 133.200456 
L 312.505135 132.944685 
L 312.980378 132.944685 
L 313.021552 132.433142 
L 313.45345 132.433142 
L 313.52946 131.665827 
L 313.773365 131.665827 
L 313.79993 131.154284 
L 313.98029 131.154284 
L 313.98029 130.898513 
L 314.134677 130.898513 
L 314.232862 130.131199 
L 314.319036 130.131199 
L 314.319036 129.875427 
L 315.077388 129.875427 
L 315.164375 129.363884 
L 315.279412 129.363884 
L 315.279412 129.108113 
L 315.494011 129.108113 
L 315.494011 128.852341 
L 315.641805 128.852341 
L 315.744653 127.061941 
L 315.78897 127.061941 
L 315.78897 126.80617 
L 316.254356 126.80617 
L 316.338973 126.038855 
L 316.496373 126.038855 
L 316.56978 124.504227 
L 316.943449 124.504227 
L 316.943449 124.248455 
L 317.054582 124.248455 
L 317.147597 122.969598 
L 317.821252 122.969598 
L 317.90915 121.946512 
L 317.987295 121.946512 
L 317.987295 121.690741 
L 318.125527 121.690741 
L 318.144695 120.923426 
L 318.394651 120.923426 
L 318.394651 120.667655 
L 318.522688 120.667655 
L 318.562872 119.644569 
L 318.995154 119.644569 
L 318.995154 119.388798 
L 319.127447 119.388798 
L 319.127447 119.133026 
L 319.274968 119.133026 
L 319.274968 118.877255 
L 319.542836 118.877255 
L 319.542836 118.365712 
L 319.718068 118.365712 
L 319.73638 117.598398 
L 319.872311 117.598398 
L 319.872311 117.342626 
L 320.115297 117.342626 
L 320.172848 116.575312 
L 320.410256 116.575312 
L 320.410256 116.31954 
L 320.532852 116.31954 
L 320.643477 115.807998 
L 320.680372 115.807998 
L 320.680372 115.552226 
L 320.835947 115.552226 
L 320.927212 114.52914 
L 321.079536 114.52914 
L 321.094713 113.506054 
L 321.223011 113.506054 
L 321.223011 112.73874 
L 322.041641 112.73874 
L 322.050453 112.227197 
L 322.245339 112.227197 
L 322.245339 111.715654 
L 322.445922 111.715654 
L 322.556398 110.181026 
L 322.603758 110.181026 
L 322.66523 109.15794 
L 323.46041 109.15794 
L 323.567391 107.623311 
L 323.590081 107.623311 
L 323.697718 107.111768 
L 323.855315 107.111768 
L 323.923263 106.600225 
L 324.574268 106.600225 
L 324.63485 106.088682 
L 324.877185 106.088682 
L 324.90865 105.57714 
L 325.099126 105.57714 
L 325.099126 105.321368 
L 325.269619 105.321368 
L 325.269619 105.065597 
L 325.471988 105.065597 
L 325.571586 104.298282 
L 325.641207 104.298282 
L 325.665502 103.275197 
L 325.761471 103.275197 
L 325.8673 102.252111 
L 326.083313 102.252111 
L 326.083313 101.996339 
L 326.254565 101.996339 
L 326.254565 101.740568 
L 326.399745 101.740568 
L 326.498387 100.717482 
L 326.662927 100.717482 
L 326.662927 100.205939 
L 326.961276 100.205939 
L 326.961276 99.950168 
L 327.120311 99.950168 
L 327.159874 99.182853 
L 327.257074 99.182853 
L 327.257074 98.927082 
L 327.534992 98.927082 
L 327.534992 98.67131 
L 327.663235 98.67131 
L 327.663235 98.159768 
L 327.780806 98.159768 
L 327.865319 97.648225 
L 327.899067 97.648225 
L 327.899067 96.88091 
L 328.114405 96.88091 
L 328.114405 96.625139 
L 328.337846 96.625139 
L 328.448787 96.113596 
L 328.699293 96.113596 
L 328.803221 95.09051 
L 328.906839 95.09051 
L 329.002211 94.323196 
L 329.23269 94.323196 
L 329.23269 94.067424 
L 329.380211 94.067424 
L 329.433064 93.30011 
L 329.53663 93.30011 
L 329.53663 93.044339 
L 329.843471 93.044339 
L 329.843471 92.788567 
L 329.977941 92.788567 
L 329.977941 92.532796 
L 330.286788 92.532796 
L 330.319416 91.765481 
L 330.492278 91.765481 
L 330.523868 91.253938 
L 330.818827 91.253938 
L 330.818827 90.998167 
L 331.087014 90.998167 
L 331.16835 90.230853 
L 331.556121 90.230853 
L 331.574775 89.71931 
L 331.675271 89.71931 
L 331.675271 89.463538 
L 331.941582 89.463538 
L 331.941582 89.207767 
L 332.555121 89.207767 
L 332.555121 88.951995 
L 333.065166 88.951995 
L 333.065166 88.696224 
L 333.266461 88.696224 
L 333.266461 88.440452 
L 333.699191 88.440452 
L 333.699191 87.673138 
L 333.93313 87.673138 
L 333.93313 87.417367 
L 334.104733 87.417367 
L 334.104733 87.161595 
L 334.274311 87.161595 
L 334.274311 86.905824 
L 334.570109 86.905824 
L 334.608093 86.394281 
L 334.783659 86.394281 
L 334.783659 86.138509 
L 335.00912 86.138509 
L 335.111968 85.115424 
L 335.247525 85.115424 
L 335.344582 84.348109 
L 335.500026 84.348109 
L 335.500026 84.092338 
L 335.823469 84.092338 
L 335.823469 83.836566 
L 336.012328 83.836566 
L 336.080065 82.813481 
L 336.372422 82.813481 
L 336.372422 82.557709 
L 336.520637 82.557709 
L 336.562868 82.046166 
L 336.668221 82.046166 
L 336.668221 81.790395 
L 336.793035 81.790395 
L 336.849665 80.767309 
L 336.959794 80.767309 
L 336.959794 80.511538 
L 337.289363 80.511538 
L 337.289363 80.255766 
L 337.74999 80.255766 
L 337.74999 79.999995 
L 337.887747 79.999995 
L 337.995393 79.23268 
L 338.110439 79.23268 
L 338.127386 78.209595 
L 338.557593 78.209595 
L 338.557593 77.953823 
L 338.850523 77.953823 
L 338.947776 77.186509 
L 338.97958 77.186509 
L 338.988306 76.674966 
L 339.313962 76.674966 
L 339.313962 76.419194 
L 339.531948 76.419194 
L 339.531948 75.907651 
L 339.733254 75.907651 
L 339.733254 75.65188 
L 340.205916 75.65188 
L 340.27824 75.140337 
L 340.400461 75.140337 
L 340.452493 73.86148 
L 340.573198 73.86148 
L 340.573198 73.605708 
L 340.993708 73.605708 
L 341.086417 73.094166 
L 341.246165 73.094166 
L 341.345891 72.326851 
L 341.926562 72.326851 
L 341.926562 72.07108 
L 342.114129 72.07108 
L 342.221521 71.047994 
L 342.330078 71.047994 
L 342.330078 70.792223 
L 342.51129 70.792223 
L 342.51129 70.536451 
L 342.664459 70.536451 
L 342.731725 70.024908 
L 343.344276 70.024908 
L 343.344276 69.769137 
L 343.465496 69.769137 
L 343.569062 69.001822 
L 344.161449 69.001822 
L 344.161449 68.746051 
L 344.810443 68.746051 
L 344.810443 68.234508 
L 345.068137 68.234508 
L 345.068137 67.978737 
L 345.385572 67.978737 
L 345.385572 67.722965 
L 345.707703 67.722965 
L 345.707703 67.467194 
L 345.961433 67.467194 
L 345.961433 67.211422 
L 346.233941 67.211422 
L 346.233941 66.955651 
L 346.434524 66.955651 
L 346.476806 66.444108 
L 346.724388 66.444108 
L 346.724388 65.676794 
L 346.894617 65.676794 
L 346.894617 65.421022 
L 347.046289 65.421022 
L 347.116238 64.653708 
L 347.965562 64.653708 
L 347.965562 64.397936 
L 348.207579 64.397936 
L 348.207579 64.142165 
L 348.613625 64.142165 
L 348.664963 63.374851 
L 348.925709 63.374851 
L 348.925709 63.119079 
L 349.1444 63.119079 
L 349.1444 62.863308 
L 349.311931 62.863308 
L 349.311931 62.607536 
L 349.427164 62.607536 
L 349.427164 62.351765 
L 349.654104 62.351765 
L 349.654104 62.095993 
L 349.855902 62.095993 
L 349.881855 61.328679 
L 349.985472 61.328679 
L 349.985472 61.072907 
L 350.388347 61.072907 
L 350.388347 60.817136 
L 350.789245 60.817136 
L 350.789245 60.561365 
L 351.474484 60.561365 
L 351.525275 60.049822 
L 351.602501 60.049822 
L 351.602501 59.79405 
L 351.89746 59.79405 
L 351.89746 59.538279 
L 352.758451 59.538279 
L 352.758451 59.282507 
L 353.284686 59.282507 
L 353.284686 59.026736 
L 353.421665 59.026736 
L 353.421665 58.770964 
L 353.551737 58.770964 
L 353.572596 58.259422 
L 353.747559 58.259422 
L 353.765686 57.747879 
L 355.075616 57.747879 
L 355.075616 57.236336 
L 355.84567 57.236336 
L 355.930184 56.469021 
L 356.146561 56.469021 
L 356.146561 56.21325 
L 357.255063 56.21325 
L 357.255063 55.957478 
L 357.739102 55.957478 
L 357.739102 55.701707 
L 358.193882 55.701707 
L 358.193882 55.445936 
L 358.842875 55.445936 
L 358.842875 55.190164 
L 359.286482 55.190164 
L 359.333184 54.678621 
L 359.585443 54.678621 
L 359.639901 54.167078 
L 359.790884 54.167078 
L 359.790884 53.911307 
L 360.071487 53.911307 
L 360.071487 53.655535 
L 360.361023 53.655535 
L 360.466956 52.888221 
L 360.482338 52.888221 
L 360.482338 52.376678 
L 360.656822 52.376678 
L 360.656822 52.120907 
L 361.289176 52.120907 
L 361.289176 51.609364 
L 361.750568 51.609364 
L 361.750568 51.097821 
L 362.099041 51.097821 
L 362.169598 50.586278 
L 362.798221 50.586278 
L 362.85355 49.818964 
L 362.936378 49.818964 
L 362.936378 49.563192 
L 363.109246 49.563192 
L 363.141382 49.051649 
L 363.471215 49.051649 
L 363.520549 48.284335 
L 363.766173 48.284335 
L 363.766173 47.772792 
L 364.829313 47.772792 
L 364.829313 47.261249 
L 365.075018 47.261249 
L 365.075018 47.005478 
L 365.323392 47.005478 
L 365.410397 46.493935 
L 365.587239 46.493935 
L 365.641697 45.982392 
L 366.176731 45.982392 
L 366.176731 45.726621 
L 366.464205 45.726621 
L 366.464205 45.470849 
L 366.692849 45.470849 
L 366.790884 44.703535 
L 366.819066 44.703535 
L 366.872118 44.191992 
L 367.332878 44.191992 
L 367.332878 43.93622 
L 367.97325 43.93622 
L 367.97325 43.680449 
L 368.441868 43.680449 
L 368.441868 43.424677 
L 368.799044 43.424677 
L 368.799044 43.168906 
L 369.410003 43.168906 
L 369.464461 42.657363 
L 370.004342 42.657363 
L 370.004342 42.401592 
L 370.576155 42.401592 
L 370.576155 42.14582 
L 370.730607 42.14582 
L 370.730607 41.890049 
L 371.030651 41.890049 
L 371.104839 41.378506 
L 371.867879 41.378506 
L 371.867879 41.122734 
L 372.653565 41.122734 
L 372.653565 40.866963 
L 373.133002 40.866963 
L 373.133002 40.35542 
L 373.642705 40.35542 
L 373.642705 40.099649 
L 373.763925 40.099649 
L 373.844503 39.332334 
L 374.541671 39.332334 
L 374.541671 39.076563 
L 374.742625 39.076563 
L 374.797084 38.56502 
L 375.321608 38.56502 
L 375.321608 38.309249 
L 375.513877 38.309249 
L 375.513877 38.053477 
L 375.694488 38.053477 
L 375.694488 37.541934 
L 376.56389 37.541934 
L 376.56389 37.286163 
L 376.830653 37.286163 
L 376.830653 37.030391 
L 377.055743 37.030391 
L 377.055743 36.77462 
L 377.331408 36.77462 
L 377.385866 36.263077 
L 377.561197 36.263077 
L 377.561197 36.007305 
L 378.453211 36.007305 
L 378.453211 35.751534 
L 378.689492 35.751534 
L 378.689492 35.495763 
L 378.861745 35.495763 
L 378.861745 35.239991 
L 379.044985 35.239991 
L 379.044985 34.728448 
L 379.834272 34.728448 
L 379.918785 34.216905 
L 379.957722 34.216905 
L 379.957722 33.961134 
L 380.526962 33.961134 
L 380.526962 33.705362 
L 380.674482 33.705362 
L 380.725281 33.19382 
L 380.869518 33.19382 
L 380.869518 32.938048 
L 381.243664 32.938048 
L 381.243664 32.682277 
L 381.48653 32.682277 
L 381.48653 32.426505 
L 381.678369 32.426505 
L 381.678369 32.170734 
L 381.973327 32.170734 
L 381.973327 31.914962 
L 382.864647 31.914962 
L 382.919105 31.403419 
L 383.3565 31.403419 
L 383.410958 30.891876 
L 384.220015 30.891876 
L 384.220015 30.636105 
L 384.349625 30.636105 
L 384.349625 30.380334 
L 384.470939 30.380334 
L 384.470939 30.124562 
L 384.645424 30.124562 
L 384.645424 29.868791 
L 385.277777 29.868791 
L 385.277777 29.613019 
L 385.739169 29.613019 
L 385.739169 29.357248 
L 386.087642 29.357248 
L 386.158199 28.845705 
L 386.786822 28.845705 
L 386.882177 28.078391 
L 386.924979 28.078391 
L 387.029697 27.311076 
L 387.459816 27.311076 
L 387.459816 27.055305 
L 387.754775 27.055305 
L 387.754775 26.799533 
L 388.817914 26.799533 
L 388.817914 26.543762 
L 389.06362 26.543762 
L 389.141304 26.032219 
L 389.72692 26.032219 
L 389.72692 25.776448 
L 390.681451 25.776448 
L 390.681451 25.520676 
L 391.321479 25.520676 
L 391.321479 25.264905 
L 393.077418 25.264905 
L 393.077418 25.009133 
L 396.863909 25.009133 
L 396.863909 24.753362 
L 397.121604 24.753362 
L 397.121604 24.49759 
L 399.502478 24.49759 
L 399.502478 24.241819 
L 399.68309 24.241819 
L 399.68309 23.986047 
L 401.549799 23.986047 
L 401.549799 23.730276 
L 403.033587 23.730276 
L 403.033587 23.474504 
L 403.822874 23.474504 
L 403.822874 23.218733 
L 405.620037 23.218733 
L 405.620037 22.962962 
L 407.129082 22.962962 
L 407.129082 22.70719 
L 409.160174 22.70719 
L 409.160174 22.451419 
L 410.146801 22.451419 
L 410.146801 22.195647 
L 411.023711 22.195647 
L 411.023711 21.939876 
L 413.342642 21.939876 
L 413.342642 21.684104 
L 414.851687 21.684104 
L 414.851687 21.428333 
L 416.882779 21.428333 
L 416.882779 21.172561 
L 418.746315 21.172561 
L 418.746315 20.91679 
L 420.02535 20.91679 
L 420.02535 20.661019 
L 423.375847 20.661019 
L 423.375847 20.405247 
L 427.747954 20.405247 
L 427.747954 20.149476 
L 431.098452 20.149476 
L 431.098452 19.893704 
L 453.192 19.893704 
L 453.192 19.893704 
" style="fill:none;stroke:#000000;stroke-linecap:square;stroke-width:3;"/>
   </g>
   <g id="line2d_58">
    <path clip-path="url(#p0ff35b66ad)" style="fill:none;stroke:#000000;stroke-linecap:square;stroke-width:3;"/>
   </g>
   <g id="line2d_59">
    <path clip-path="url(#p0ff35b66ad)" d="M 34.16 193.410866 
L 134.613587 193.410866 
L 134.613587 192.994011 
L 134.821624 192.994011 
L 134.821624 192.577157 
L 142.935437 192.577157 
L 142.935437 192.160302 
L 143.143473 192.160302 
L 143.143473 191.743447 
L 145.799125 191.743447 
L 145.799125 191.326593 
L 148.513642 191.326593 
L 148.513642 190.909738 
L 149.823689 190.909738 
L 149.823689 190.492883 
L 150.031725 190.492883 
L 150.031725 190.076029 
L 151.601776 190.076029 
L 151.601776 189.659174 
L 153.15631 189.659174 
L 153.15631 189.242319 
L 153.364346 189.242319 
L 153.364346 188.825465 
L 153.806189 188.825465 
L 153.806189 188.40861 
L 154.014225 188.40861 
L 154.120974 187.574901 
L 156.835492 187.574901 
L 156.835492 187.158046 
L 157.130946 187.158046 
L 157.137398 186.324337 
L 157.345435 186.324337 
L 157.345435 185.907482 
L 158.530679 185.907482 
L 158.530679 185.490628 
L 158.738715 185.490628 
L 158.738715 185.073773 
L 159.636156 185.073773 
L 159.636156 184.656918 
L 159.844192 184.656918 
L 159.844192 184.240064 
L 161.009226 184.240064 
L 161.009226 183.823209 
L 163.581678 183.823209 
L 163.581678 183.406354 
L 163.723743 183.406354 
L 163.723743 182.9895 
L 164.341847 182.9895 
L 164.341847 182.572645 
L 164.991726 182.572645 
L 164.991726 182.15579 
L 167.056365 182.15579 
L 167.056365 181.738936 
L 167.242943 181.738936 
L 167.242943 181.322081 
L 167.706244 181.322081 
L 167.706244 180.905226 
L 168.322935 180.905226 
L 168.322935 180.488372 
L 169.110848 180.488372 
L 169.110848 180.071517 
L 169.716216 180.071517 
L 169.716216 179.654663 
L 170.821693 179.654663 
L 170.821693 179.237808 
L 171.037453 179.237808 
L 171.037453 178.820953 
L 172.122022 178.820953 
L 172.122022 178.404099 
L 172.430734 178.404099 
L 172.430734 177.987244 
L 173.53621 177.987244 
L 173.53621 177.570389 
L 175.564792 177.570389 
L 175.564792 177.153535 
L 177.646142 177.153535 
L 177.646142 176.73668 
L 177.854178 176.73668 
L 177.854178 176.319825 
L 180.443871 176.319825 
L 180.443871 175.902971 
L 181.342664 175.902971 
L 181.342664 175.486116 
L 182.175326 175.486116 
L 182.175326 175.069261 
L 182.453044 175.069261 
L 182.453044 174.652407 
L 182.68924 174.652407 
L 182.68924 174.235552 
L 185.785665 174.235552 
L 185.785665 173.818697 
L 186.02956 173.818697 
L 186.02956 173.401843 
L 186.38874 173.401843 
L 186.45037 172.151279 
L 186.596776 172.151279 
L 186.596776 171.734424 
L 186.871835 171.734424 
L 186.871835 171.31757 
L 187.332123 171.31757 
L 187.332123 170.900715 
L 187.704496 170.900715 
L 187.704496 170.48386 
L 188.831679 170.48386 
L 188.831679 170.067006 
L 189.146564 170.067006 
L 189.146564 169.650151 
L 189.354601 169.650151 
L 189.354601 169.233296 
L 189.766754 169.233296 
L 189.766754 168.816442 
L 190.664744 168.816442 
L 190.664744 168.399587 
L 191.160034 168.399587 
L 191.160034 167.982732 
L 191.314624 167.982732 
L 191.314624 167.565878 
L 191.546197 167.565878 
L 191.546197 167.149023 
L 191.97954 167.149023 
L 191.97954 166.732168 
L 192.265511 166.732168 
L 192.265511 166.315314 
L 194.351409 166.315314 
L 194.351409 165.898459 
L 194.645833 165.898459 
L 194.669143 165.06475 
L 195.649376 165.06475 
L 195.649376 164.647895 
L 196.039113 164.647895 
L 196.046931 163.814186 
L 197.14459 163.814186 
L 197.14459 163.397331 
L 197.574277 163.397331 
L 197.574277 162.980477 
L 199.63254 162.980477 
L 199.63254 162.563622 
L 200.288795 162.563622 
L 200.332102 161.729913 
L 201.239661 161.729913 
L 201.239661 161.313058 
L 203.046619 161.313058 
L 203.046619 160.896203 
L 203.971226 160.896203 
L 203.971226 160.479349 
L 204.572282 160.479349 
L 204.572282 160.062494 
L 205.222161 160.062494 
L 205.222161 159.645639 
L 208.026833 159.645639 
L 208.112621 158.81193 
L 208.55337 158.81193 
L 208.55337 158.395075 
L 209.946651 158.395075 
L 209.946651 157.978221 
L 210.275497 157.978221 
L 210.275497 157.561366 
L 210.859477 157.561366 
L 210.859477 157.144512 
L 211.052128 157.144512 
L 211.052128 156.727657 
L 211.612442 156.727657 
L 211.612442 156.310802 
L 212.430129 156.310802 
L 212.430129 155.893948 
L 213.262791 155.893948 
L 213.262791 155.477093 
L 213.641792 155.477093 
L 213.641792 155.060238 
L 214.192099 155.060238 
L 214.300064 154.226529 
L 214.841978 154.226529 
L 214.841978 153.809674 
L 215.154576 153.809674 
L 215.154576 153.39282 
L 216.330606 153.39282 
L 216.330606 152.975965 
L 216.538643 152.975965 
L 216.538643 152.55911 
L 217.537835 152.55911 
L 217.537835 152.142256 
L 218.173187 152.142256 
L 218.173187 151.725401 
L 219.018095 151.725401 
L 219.039008 150.891692 
L 219.566467 150.891692 
L 219.566467 150.474837 
L 219.898399 150.474837 
L 219.898399 150.057983 
L 220.106436 150.057983 
L 220.106436 149.641128 
L 220.671944 149.641128 
L 220.757152 148.807419 
L 221.153323 148.807419 
L 221.153323 148.390564 
L 221.77592 148.390564 
L 221.77592 147.973709 
L 223.897174 147.973709 
L 223.938573 147.14 
L 225.787819 147.14 
L 225.787819 146.723145 
L 226.279966 146.723145 
L 226.286322 145.889436 
L 226.620481 145.889436 
L 226.654999 145.055727 
L 227.516143 145.055727 
L 227.516143 144.638872 
L 229.062114 144.638872 
L 229.062114 144.222017 
L 229.373429 144.222017 
L 229.373429 143.805163 
L 230.206091 143.805163 
L 230.230661 142.971454 
L 230.383755 142.971454 
L 230.383755 142.554599 
L 230.895525 142.554599 
L 230.895525 142.137744 
L 231.01891 142.137744 
L 231.083936 141.304035 
L 231.550197 141.304035 
L 231.550197 140.88718 
L 232.260422 140.88718 
L 232.260422 140.470326 
L 233.133225 140.470326 
L 233.133225 140.053471 
L 233.798454 140.053471 
L 233.798454 139.636616 
L 234.481135 139.636616 
L 234.481135 139.219762 
L 237.190774 139.219762 
L 237.190774 138.802907 
L 237.804712 138.802907 
L 237.804712 138.386052 
L 238.681931 138.386052 
L 238.681931 137.969198 
L 239.148674 137.969198 
L 239.200086 137.135488 
L 240.562537 137.135488 
L 240.562537 136.718634 
L 242.363657 136.718634 
L 242.363657 136.301779 
L 242.481295 136.301779 
L 242.481295 135.884925 
L 243.131174 135.884925 
L 243.131174 135.46807 
L 243.530099 135.46807 
L 243.530099 135.051215 
L 244.040952 135.051215 
L 244.040952 134.634361 
L 244.873614 134.634361 
L 244.873614 134.217506 
L 245.512623 134.217506 
L 245.512623 133.800651 
L 246.462383 133.800651 
L 246.462383 133.383797 
L 247.424528 133.383797 
L 247.424528 132.966942 
L 247.855664 132.966942 
L 247.855664 132.550087 
L 248.779897 132.550087 
L 248.779897 132.133233 
L 248.959962 132.133233 
L 248.961141 131.299523 
L 249.148658 131.299523 
L 249.148658 130.882669 
L 249.612559 130.882669 
L 249.612559 130.465814 
L 250.182353 130.465814 
L 250.182353 130.048959 
L 250.894212 130.048959 
L 250.894212 129.632105 
L 251.726873 129.632105 
L 251.726873 129.21525 
L 251.844616 129.21525 
L 251.844616 128.798396 
L 252.400875 128.798396 
L 252.400875 128.381541 
L 252.527755 128.381541 
L 252.557776 127.547832 
L 253.839041 127.547832 
L 253.887602 126.714122 
L 255.733496 126.714122 
L 255.733496 126.297268 
L 256.001917 126.297268 
L 256.001917 125.880413 
L 256.143386 125.880413 
L 256.143386 125.463558 
L 256.383376 125.463558 
L 256.383376 125.046704 
L 257.406834 125.046704 
L 257.406834 124.629849 
L 259.714585 124.629849 
L 259.714585 124.212994 
L 260.124644 124.212994 
L 260.124644 123.79614 
L 260.957305 123.79614 
L 260.957305 123.379285 
L 261.107865 123.379285 
L 261.107865 122.96243 
L 261.291085 122.96243 
L 261.291085 122.545576 
L 262.123747 122.545576 
L 262.213342 121.711867 
L 265.202306 121.711867 
L 265.232349 120.878157 
L 266.398791 120.878157 
L 266.398791 120.461303 
L 266.971127 120.461303 
L 266.971127 120.044448 
L 267.746578 120.044448 
L 267.746578 119.627593 
L 268.787916 119.627593 
L 268.787916 119.210739 
L 270.810909 119.210739 
L 270.810909 118.793884 
L 271.314371 118.793884 
L 271.314371 118.377029 
L 273.271644 118.377029 
L 273.271644 117.960175 
L 275.549854 117.960175 
L 275.549854 117.54332 
L 275.713725 117.54332 
L 275.713725 117.126465 
L 277.366395 117.126465 
L 277.366395 116.709611 
L 277.664169 116.709611 
L 277.664169 116.292756 
L 278.47155 116.292756 
L 278.47155 115.875901 
L 280.223328 115.875901 
L 280.223328 115.459047 
L 280.934188 115.459047 
L 280.934188 115.042192 
L 281.593494 115.042192 
L 281.593494 114.625337 
L 283.455439 114.625337 
L 283.455439 114.208483 
L 286.8946 114.208483 
L 286.8946 113.791628 
L 288.061042 113.791628 
L 288.061042 113.374774 
L 288.194384 113.374774 
L 288.194384 112.957919 
L 288.481746 112.957919 
L 288.481746 112.541064 
L 288.965926 112.541064 
L 288.965926 112.12421 
L 290.308699 112.12421 
L 290.308699 111.707355 
L 291.723751 111.707355 
L 291.814367 110.873646 
L 292.464246 110.873646 
L 292.464246 110.456791 
L 295.795455 110.456791 
L 295.795455 110.039936 
L 297.188736 110.039936 
L 297.188736 109.623082 
L 298.294213 109.623082 
L 298.294213 109.206227 
L 299.539131 109.206227 
L 299.539131 108.789372 
L 300.705573 108.789372 
L 300.705573 108.372518 
L 305.655591 108.372518 
L 305.655591 107.955663 
L 309.223384 107.955663 
L 309.223384 107.538808 
L 316.304199 107.538808 
L 316.304199 107.121954 
L 318.907793 107.121954 
L 318.907793 106.705099 
L 322.475586 106.705099 
L 322.475586 106.288245 
L 325.046797 106.288245 
L 325.046797 105.87139 
L 327.804622 105.87139 
L 327.804622 105.454535 
L 343.302401 105.454535 
L 343.302401 105.037681 
L 344.495907 105.037681 
L 344.495907 104.620826 
L 351.624251 104.620826 
L 351.624251 104.203971 
L 352.167952 104.203971 
L 352.167952 103.787117 
L 352.817757 103.787117 
L 352.817757 103.370262 
L 354.988663 103.370262 
L 354.988663 102.953407 
L 358.512503 102.953407 
L 358.556456 102.119698 
L 359.706008 102.119698 
L 359.706008 101.702843 
L 360.489802 101.702843 
L 360.489802 101.285989 
L 361.845124 101.285989 
L 361.845124 100.869134 
L 362.495003 100.869134 
L 362.495003 100.452279 
L 363.03863 100.452279 
L 363.03863 100.035425 
L 363.688509 100.035425 
L 363.688509 99.61857 
L 365.826212 99.61857 
L 365.826212 99.201716 
L 367.019718 99.201716 
L 367.019718 98.784861 
L 367.219493 98.784861 
L 367.219493 98.368006 
L 367.378053 98.368006 
L 367.378053 97.951152 
L 368.324969 97.951152 
L 368.412998 97.117442 
L 369.518475 97.117442 
L 369.518475 96.700588 
L 370.710674 96.700588 
L 370.710674 96.283733 
L 371.360554 96.283733 
L 371.360554 95.866878 
L 374.691763 95.866878 
L 374.691763 95.450024 
L 376.085043 95.450024 
L 376.085043 95.033169 
L 377.19052 95.033169 
L 377.19052 94.616314 
L 386.334956 94.616314 
L 386.334956 94.19946 
L 387.528462 94.19946 
L 387.528462 93.782605 
L 395.077554 93.782605 
L 395.077554 93.36575 
L 395.200506 93.36575 
L 395.200506 92.948896 
L 396.271059 92.948896 
L 396.271059 92.532041 
L 397.835378 92.532041 
L 397.835378 92.115187 
L 399.028884 92.115187 
L 399.028884 91.698332 
L 403.943104 91.698332 
L 403.943104 91.281477 
L 406.700929 91.281477 
L 406.700929 90.864623 
L 425.01942 90.864623 
L 425.01942 90.447768 
L 426.212926 90.447768 
L 426.212926 90.030913 
L 428.587213 90.030913 
L 428.587213 89.614059 
L 429.780719 89.614059 
L 429.780719 89.197204 
L 433.884971 89.197204 
L 433.884971 88.780349 
L 437.452764 88.780349 
L 437.452764 88.363495 
L 453.192 88.363495 
L 453.192 88.363495 
" style="fill:none;stroke:#00bfbf;stroke-linecap:square;stroke-width:3;"/>
   </g>
   <g id="line2d_60">
    <path clip-path="url(#p0ff35b66ad)" style="fill:none;stroke:#00bfbf;stroke-linecap:square;stroke-width:3;"/>
   </g>
   <g id="line2d_61">
    <path clip-path="url(#p0ff35b66ad)" d="M 34.16 157.233838 
L 186.650832 157.233838 
L 186.650832 156.775027 
L 203.283895 156.775027 
L 203.283895 156.316216 
L 204.477502 156.316216 
L 204.477502 155.857405 
L 212.3893 155.857405 
L 212.3893 155.398594 
L 214.050599 155.398594 
L 214.050599 154.939784 
L 217.655389 154.939784 
L 217.655389 154.480973 
L 218.333752 154.480973 
L 218.333752 154.022162 
L 219.40237 154.022162 
L 219.40237 153.563351 
L 224.749394 153.563351 
L 224.749394 153.10454 
L 227.325444 153.10454 
L 227.325444 152.64573 
L 229.146674 152.64573 
L 229.146674 152.186919 
L 230.731397 152.186919 
L 230.731397 151.728108 
L 234.288453 151.728108 
L 234.288453 151.269297 
L 234.460899 151.269297 
L 234.460899 150.810486 
L 236.898542 150.810486 
L 236.898542 150.351676 
L 238.719771 150.351676 
L 238.719771 149.892865 
L 240.130446 149.892865 
L 240.130446 149.434054 
L 241.8577 149.434054 
L 241.8577 148.975243 
L 243.393857 148.975243 
L 243.393857 148.516432 
L 245.777867 148.516432 
L 245.777867 148.057622 
L 247.364461 148.057622 
L 247.364461 147.598811 
L 248.799473 147.598811 
L 248.799473 147.14 
L 249.338309 147.14 
L 249.338309 146.681189 
L 249.703544 146.681189 
L 249.703544 146.222378 
L 250.406927 146.222378 
L 250.406927 145.763568 
L 251.093963 145.763568 
L 251.133514 144.845946 
L 253.388173 144.845946 
L 253.388173 144.387135 
L 254.528107 144.387135 
L 254.528107 143.928324 
L 255.350965 143.928324 
L 255.350965 143.469514 
L 255.753951 143.469514 
L 255.753951 143.010703 
L 255.903268 143.010703 
L 255.903268 142.551892 
L 256.343629 142.551892 
L 256.343629 142.093081 
L 256.469865 142.093081 
L 256.469865 141.63427 
L 260.199367 141.63427 
L 260.199367 141.17546 
L 260.706611 141.17546 
L 260.706611 140.716649 
L 261.712983 140.716649 
L 261.712983 140.257838 
L 262.374492 140.257838 
L 262.414318 139.340216 
L 263.482936 139.340216 
L 263.482936 138.881406 
L 264.695026 138.881406 
L 264.705642 137.963784 
L 264.923689 137.963784 
L 264.923689 137.504973 
L 265.432537 137.504973 
L 265.432537 137.046162 
L 265.543833 137.046162 
L 265.543833 136.587352 
L 265.916726 136.587352 
L 265.916726 136.128541 
L 266.143819 136.128541 
L 266.143819 135.66973 
L 266.526871 135.66973 
L 266.526871 135.210919 
L 267.212437 135.210919 
L 267.212437 134.752108 
L 268.82996 134.752108 
L 268.82996 134.293298 
L 270.021236 134.293298 
L 270.021236 133.834487 
L 271.28608 133.834487 
L 271.28608 133.375676 
L 271.947589 133.375676 
L 271.947589 132.916865 
L 272.536332 132.916865 
L 272.559461 131.999244 
L 274.268123 131.999244 
L 274.268123 131.540433 
L 274.537942 131.540433 
L 274.537942 131.081622 
L 277.376049 131.081622 
L 277.376049 130.622811 
L 277.510644 130.622811 
L 277.510644 130.164001 
L 279.126641 130.164001 
L 279.197278 129.246379 
L 280.482394 129.246379 
L 280.482394 128.787568 
L 281.551012 128.787568 
L 281.641737 127.411136 
L 282.176897 127.411136 
L 282.176897 126.952325 
L 283.158065 126.952325 
L 283.158065 126.493514 
L 285.071093 126.493514 
L 285.071093 126.034703 
L 286.139711 126.034703 
L 286.139711 125.575893 
L 286.898036 125.575893 
L 286.898036 125.117082 
L 287.586189 125.117082 
L 287.586189 124.658271 
L 288.513712 124.658271 
L 288.513712 124.19946 
L 288.654807 124.19946 
L 288.654807 123.740649 
L 289.096678 123.740649 
L 289.096678 123.281839 
L 290.181051 123.281839 
L 290.181051 122.823028 
L 290.662158 122.823028 
L 290.662158 122.364217 
L 291.282301 122.364217 
L 291.282301 121.905406 
L 291.486735 121.905406 
L 291.486735 121.446595 
L 293.723827 121.446595 
L 293.723827 120.987785 
L 294.001831 120.987785 
L 294.001831 120.528974 
L 295.828472 120.528974 
L 295.828472 120.070163 
L 296.60661 120.070163 
L 296.60661 119.611352 
L 297.226753 119.611352 
L 297.226753 119.152541 
L 297.675228 119.152541 
L 297.675228 118.693731 
L 298.295371 118.693731 
L 298.295371 118.23492 
L 299.093181 118.23492 
L 299.093181 117.776109 
L 299.75469 117.776109 
L 299.75469 117.317298 
L 301.184119 117.317298 
L 301.184119 116.858487 
L 302.075224 116.858487 
L 302.075224 116.399677 
L 303.022252 116.399677 
L 303.022252 115.940866 
L 303.642395 115.940866 
L 303.642395 115.482055 
L 306.394233 115.482055 
L 306.394233 115.023244 
L 311.763587 115.023244 
L 311.763587 114.564433 
L 311.944621 114.564433 
L 311.944621 114.105623 
L 312.425097 114.105623 
L 312.425097 113.646812 
L 313.76585 113.646812 
L 313.76585 113.188001 
L 314.74563 113.188001 
L 314.74563 112.72919 
L 324.749622 112.72919 
L 324.749622 112.270379 
L 330.397043 112.270379 
L 330.397043 111.811569 
L 335.75269 111.811569 
L 335.75269 111.352758 
L 339.45821 111.352758 
L 339.45821 110.893947 
L 340.386653 110.893947 
L 340.386653 110.435136 
L 340.962805 110.435136 
L 340.962805 109.976325 
L 344.606981 109.976325 
L 344.606981 109.517515 
L 346.332159 109.517515 
L 346.332159 109.058704 
L 346.993668 109.058704 
L 346.993668 108.599893 
L 349.314202 108.599893 
L 349.314202 108.141082 
L 362.306152 108.141082 
L 362.306152 107.682271 
L 363.234596 107.682271 
L 363.234596 107.223461 
L 364.127381 107.223461 
L 364.127381 106.76465 
L 365.055825 106.76465 
L 365.055825 106.305839 
L 367.454924 106.305839 
L 367.454924 105.847028 
L 369.276153 105.847028 
L 369.276153 105.388217 
L 375.111154 105.388217 
L 375.111154 104.929407 
L 376.039598 104.929407 
L 376.039598 104.470596 
L 380.259925 104.470596 
L 380.259925 104.011785 
L 380.758575 104.011785 
L 380.758575 103.552974 
L 381.687019 103.552974 
L 381.687019 103.094163 
L 385.907347 103.094163 
L 385.907347 102.635353 
L 386.114222 102.635353 
L 386.114222 102.176542 
L 387.042665 102.176542 
L 387.042665 101.717731 
L 391.262993 101.717731 
L 391.324337 100.800109 
L 392.25278 100.800109 
L 392.25278 100.341299 
L 396.473108 100.341299 
L 396.473108 99.882488 
L 396.693691 99.882488 
L 396.693691 99.423677 
L 397.3552 99.423677 
L 397.3552 98.964866 
L 397.622134 98.964866 
L 397.622134 98.506056 
L 398.283643 98.506056 
L 398.283643 98.047245 
L 399.675734 98.047245 
L 399.675734 97.588434 
L 400.604177 97.588434 
L 400.604177 97.129623 
L 401.842462 97.129623 
L 401.842462 96.670812 
L 402.503971 96.670812 
L 402.503971 96.212002 
L 404.824505 96.212002 
L 404.824505 95.753191 
L 453.192 95.753191 
L 453.192 95.753191 
" style="fill:none;stroke:#bf00bf;stroke-linecap:square;stroke-width:3;"/>
   </g>
   <g id="line2d_62">
    <path clip-path="url(#p0ff35b66ad)" style="fill:none;stroke:#bf00bf;stroke-linecap:square;stroke-width:3;"/>
   </g>
   <g id="line2d_63">
    <path clip-path="url(#p0ff35b66ad)" d="M 34.16 163.638557 
L 207.6451 163.638557 
L 207.6451 163.160338 
L 215.325442 163.160338 
L 215.325442 162.682119 
L 221.477319 162.682119 
L 221.477319 162.2039 
L 221.989404 162.2039 
L 221.989404 161.725681 
L 224.831898 161.725681 
L 224.831898 161.247462 
L 235.097491 161.247462 
L 235.097491 160.769243 
L 238.335299 160.769243 
L 238.335299 160.291024 
L 243.732958 160.291024 
L 243.732958 159.812804 
L 244.603947 159.812804 
L 244.603947 159.334585 
L 246.482607 159.334585 
L 246.482607 158.856366 
L 249.026294 158.856366 
L 249.026294 158.378147 
L 251.625255 158.378147 
L 251.625255 157.899928 
L 252.142068 157.899928 
L 252.167518 156.94349 
L 252.679602 156.94349 
L 252.679602 156.465271 
L 253.239414 156.465271 
L 253.239414 155.987052 
L 255.043941 155.987052 
L 255.043941 155.508833 
L 255.989063 155.508833 
L 255.989063 155.030614 
L 257.070787 155.030614 
L 257.070787 154.552395 
L 258.53275 154.552395 
L 258.53275 154.074176 
L 261.397908 154.074176 
L 261.397908 153.595957 
L 264.527275 153.595957 
L 264.527275 153.117738 
L 265.457474 153.117738 
L 265.457474 152.639519 
L 265.969558 152.639519 
L 265.969558 152.1613 
L 266.577243 152.1613 
L 266.584153 151.204862 
L 268.87616 151.204862 
L 268.87616 150.726643 
L 269.373062 150.726643 
L 269.388245 149.770205 
L 270.904364 149.770205 
L 270.904364 149.291986 
L 271.914117 149.291986 
L 271.914117 148.813767 
L 272.666913 148.813767 
L 272.666913 148.335548 
L 273.933722 148.335548 
L 273.933722 147.857329 
L 276.090609 147.857329 
L 276.116694 146.90089 
L 280.549584 146.90089 
L 280.549584 146.422671 
L 282.173369 146.422671 
L 282.173369 145.944452 
L 283.205282 145.944452 
L 283.299233 144.988014 
L 283.717366 144.988014 
L 283.717366 144.509795 
L 284.299324 144.509795 
L 284.299324 144.031576 
L 284.949872 144.031576 
L 284.949872 143.553357 
L 285.805558 143.553357 
L 285.84292 142.596919 
L 287.765941 142.596919 
L 287.765941 142.1187 
L 288.278025 142.1187 
L 288.278025 141.640481 
L 289.948914 141.640481 
L 289.948914 141.162262 
L 290.460998 141.162262 
L 290.460998 140.684043 
L 292.934791 140.684043 
L 292.934791 140.205824 
L 293.887413 140.205824 
L 293.887413 139.727605 
L 295.68444 139.727605 
L 295.68444 139.249386 
L 296.937317 139.249386 
L 296.937317 138.771167 
L 298.214534 138.771167 
L 298.228127 137.814729 
L 298.782091 137.814729 
L 298.782091 137.33651 
L 299.294175 137.33651 
L 299.294175 136.858291 
L 299.637777 136.858291 
L 299.637777 136.380072 
L 300.149862 136.380072 
L 300.149862 135.901853 
L 303.400779 135.901853 
L 303.400779 135.423634 
L 306.27262 135.423634 
L 306.27262 134.945415 
L 309.483539 134.945415 
L 309.483539 134.467196 
L 310.599741 134.467196 
L 310.599741 133.988976 
L 315.785986 133.988976 
L 315.785986 133.510757 
L 316.709366 133.510757 
L 316.709366 133.032538 
L 321.868746 133.032538 
L 321.868746 132.554319 
L 325.344833 132.554319 
L 325.344833 132.0761 
L 328.094482 132.0761 
L 328.094482 131.597881 
L 330.638169 131.597881 
L 330.638169 131.119662 
L 336.679192 131.119662 
L 336.679192 130.641443 
L 338.682662 130.641443 
L 338.682662 130.163224 
L 339.653508 130.163224 
L 339.653508 129.685005 
L 340.025243 129.685005 
L 340.025243 129.206786 
L 343.009783 129.206786 
L 343.009783 128.728567 
L 348.196028 128.728567 
L 348.196028 128.250348 
L 354.278788 128.250348 
L 354.278788 127.772129 
L 356.451241 127.772129 
L 356.451241 127.29391 
L 359.425557 127.29391 
L 359.425557 126.815691 
L 359.797292 126.815691 
L 359.797292 126.337472 
L 365.086708 126.337472 
L 365.086708 125.859253 
L 367.836357 125.859253 
L 367.836357 125.381034 
L 368.061024 125.381034 
L 368.061024 124.902815 
L 368.432759 124.902815 
L 368.432759 124.424596 
L 370.380044 124.424596 
L 370.380044 123.946377 
L 370.810673 123.946377 
L 370.810673 123.468158 
L 371.182408 123.468158 
L 371.182408 122.989939 
L 373.35436 122.989939 
L 373.35436 122.51172 
L 373.726095 122.51172 
L 373.726095 122.033501 
L 378.424536 122.033501 
L 378.424536 121.555282 
L 381.398852 121.555282 
L 381.398852 121.077062 
L 381.770588 121.077062 
L 381.770588 120.598843 
L 382.751658 120.598843 
L 382.751658 120.120624 
L 385.725973 120.120624 
L 385.725973 119.642405 
L 386.097709 119.642405 
L 386.097709 119.164186 
L 387.937903 119.164186 
L 387.937903 118.685967 
L 390.912219 118.685967 
L 390.912219 118.207748 
L 391.283954 118.207748 
L 391.283954 117.729529 
L 394.020662 117.729529 
L 394.020662 117.25131 
L 396.994978 117.25131 
L 396.994978 116.773091 
L 397.366714 116.773091 
L 397.366714 116.294872 
L 453.192 116.294872 
L 453.192 116.294872 
" style="fill:none;stroke:#ff0000;stroke-linecap:square;stroke-width:3;"/>
   </g>
   <g id="line2d_64">
    <path clip-path="url(#p0ff35b66ad)" style="fill:none;stroke:#ff0000;stroke-linecap:square;stroke-width:3;"/>
   </g>
   <g id="line2d_65">
    <path clip-path="url(#p0ff35b66ad)" d="M 243.676 291.28 
L 243.676 3 
" style="fill:none;stroke:#000000;stroke-linecap:square;stroke-width:1.5;"/>
   </g>
   <g id="line2d_66">
    <path clip-path="url(#p0ff35b66ad)" d="M 34.16 147.14 
L 453.192 147.14 
" style="fill:none;stroke:#000000;stroke-dasharray:2,3.3;stroke-dashoffset:0;stroke-width:2;"/>
   </g>
   <g id="patch_3">
    <path d="M 34.16 291.28 
L 34.16 3 
" style="fill:none;stroke:#000000;stroke-linecap:square;stroke-linejoin:miter;stroke-width:0.8;"/>
   </g>
   <g id="patch_4">
    <path d="M 453.192 291.28 
L 453.192 3 
" style="fill:none;stroke:#000000;stroke-linecap:square;stroke-linejoin:miter;stroke-width:0.8;"/>
   </g>
   <g id="patch_5">
    <path d="M 34.16 291.28 
L 453.192 291.28 
" style="fill:none;stroke:#000000;stroke-linecap:square;stroke-linejoin:miter;stroke-width:0.8;"/>
   </g>
   <g id="patch_6">
    <path d="M 34.16 3 
L 453.192 3 
" style="fill:none;stroke:#000000;stroke-linecap:square;stroke-linejoin:miter;stroke-width:0.8;"/>
   </g>
   <g id="text_5">
    <!-- f20-f24,5-D -->
    <g transform="translate(330.91761 285.5144)scale(0.2 -0.2)">
     <defs>
      <path d="M 1228 531 
L 3431 531 
L 3431 0 
L 469 0 
L 469 531 
Q 828 903 1448 1529 
Q 2069 2156 2228 2338 
Q 2531 2678 2651 2914 
Q 2772 3150 2772 3378 
Q 2772 3750 2511 3984 
Q 2250 4219 1831 4219 
Q 1534 4219 1204 4116 
Q 875 4013 500 3803 
L 500 4441 
Q 881 4594 1212 4672 
Q 1544 4750 1819 4750 
Q 2544 4750 2975 4387 
Q 3406 4025 3406 3419 
Q 3406 3131 3298 2873 
Q 3191 2616 2906 2266 
Q 2828 2175 2409 1742 
Q 1991 1309 1228 531 
z
" id="DejaVuSans-32" transform="scale(0.015625)"/>
      <path d="M 2419 4116 
L 825 1625 
L 2419 1625 
L 2419 4116 
z
M 2253 4666 
L 3047 4666 
L 3047 1625 
L 3713 1625 
L 3713 1100 
L 3047 1100 
L 3047 0 
L 2419 0 
L 2419 1100 
L 313 1100 
L 313 1709 
L 2253 4666 
z
" id="DejaVuSans-34" transform="scale(0.015625)"/>
      <path d="M 750 794 
L 1409 794 
L 1409 256 
L 897 -744 
L 494 -744 
L 750 256 
L 750 794 
z
" id="DejaVuSans-2c" transform="scale(0.015625)"/>
      <path d="M 691 4666 
L 3169 4666 
L 3169 4134 
L 1269 4134 
L 1269 2991 
Q 1406 3038 1543 3061 
Q 1681 3084 1819 3084 
Q 2600 3084 3056 2656 
Q 3513 2228 3513 1497 
Q 3513 744 3044 326 
Q 2575 -91 1722 -91 
Q 1428 -91 1123 -41 
Q 819 9 494 109 
L 494 744 
Q 775 591 1075 516 
Q 1375 441 1709 441 
Q 2250 441 2565 725 
Q 2881 1009 2881 1497 
Q 2881 1984 2565 2268 
Q 2250 2553 1709 2553 
Q 1456 2553 1204 2497 
Q 953 2441 691 2322 
L 691 4666 
z
" id="DejaVuSans-35" transform="scale(0.015625)"/>
      <path d="M 1259 4147 
L 1259 519 
L 2022 519 
Q 2988 519 3436 956 
Q 3884 1394 3884 2338 
Q 3884 3275 3436 3711 
Q 2988 4147 2022 4147 
L 1259 4147 
z
M 628 4666 
L 1925 4666 
Q 3281 4666 3915 4102 
Q 4550 3538 4550 2338 
Q 4550 1131 3912 565 
Q 3275 0 1925 0 
L 628 0 
L 628 4666 
z
" id="DejaVuSans-44" transform="scale(0.015625)"/>
     </defs>
     <use xlink:href="#DejaVuSans-66"/>
     <use x="35.205078" xlink:href="#DejaVuSans-32"/>
     <use x="98.828125" xlink:href="#DejaVuSans-30"/>
     <use x="162.451172" xlink:href="#DejaVuSans-2d"/>
     <use x="198.535156" xlink:href="#DejaVuSans-66"/>
     <use x="233.740234" xlink:href="#DejaVuSans-32"/>
     <use x="297.363281" xlink:href="#DejaVuSans-34"/>
     <use x="360.986328" xlink:href="#DejaVuSans-2c"/>
     <use x="392.773438" xlink:href="#DejaVuSans-35"/>
     <use x="456.396484" xlink:href="#DejaVuSans-2d"/>
     <use x="492.480469" xlink:href="#DejaVuSans-44"/>
    </g>
   </g>
   <g id="text_6">
    <!-- v2.6 -->
    <g style="fill:#808080;" transform="translate(232.765062 286.317512)scale(0.1 -0.1)">
     <defs>
      <path d="M 684 794 
L 1344 794 
L 1344 0 
L 684 0 
L 684 794 
z
" id="DejaVuSans-2e" transform="scale(0.015625)"/>
      <path d="M 2113 2584 
Q 1688 2584 1439 2293 
Q 1191 2003 1191 1497 
Q 1191 994 1439 701 
Q 1688 409 2113 409 
Q 2538 409 2786 701 
Q 3034 994 3034 1497 
Q 3034 2003 2786 2293 
Q 2538 2584 2113 2584 
z
M 3366 4563 
L 3366 3988 
Q 3128 4100 2886 4159 
Q 2644 4219 2406 4219 
Q 1781 4219 1451 3797 
Q 1122 3375 1075 2522 
Q 1259 2794 1537 2939 
Q 1816 3084 2150 3084 
Q 2853 3084 3261 2657 
Q 3669 2231 3669 1497 
Q 3669 778 3244 343 
Q 2819 -91 2113 -91 
Q 1303 -91 875 529 
Q 447 1150 447 2328 
Q 447 3434 972 4092 
Q 1497 4750 2381 4750 
Q 2619 4750 2861 4703 
Q 3103 4656 3366 4563 
z
" id="DejaVuSans-36" transform="scale(0.015625)"/>
     </defs>
     <use xlink:href="#DejaVuSans-76"/>
     <use x="59.179688" xlink:href="#DejaVuSans-32"/>
     <use x="122.802734" xlink:href="#DejaVuSans-2e"/>
     <use x="154.589844" xlink:href="#DejaVuSans-36"/>
    </g>
   </g>
   <g id="legend_1">
    <g id="patch_7">
     <path d="M 48.16 136.425 
L 177.381875 136.425 
Q 181.381875 136.425 181.381875 132.425 
L 181.381875 17 
Q 181.381875 13 177.381875 13 
L 48.16 13 
Q 44.16 13 44.16 17 
L 44.16 132.425 
Q 44.16 136.425 48.16 136.425 
z
" style="fill:#ffffff;opacity:0.2;stroke:#cccccc;stroke-linejoin:miter;"/>
    </g>
    <g id="line2d_67">
     <path d="M 52.16 29.196875 
L 92.16 29.196875 
" style="fill:none;stroke:#000000;stroke-linecap:square;stroke-width:3;"/>
    </g>
    <g id="line2d_68"/>
    <g id="text_7">
     <!-- 1: 5/5 -->
     <g transform="translate(108.16 36.196875)scale(0.2 -0.2)">
      <defs>
       <path d="M 750 794 
L 1409 794 
L 1409 0 
L 750 0 
L 750 794 
z
M 750 3309 
L 1409 3309 
L 1409 2516 
L 750 2516 
L 750 3309 
z
" id="DejaVuSans-3a" transform="scale(0.015625)"/>
       <path d="M 1625 4666 
L 2156 4666 
L 531 -594 
L 0 -594 
L 1625 4666 
z
" id="DejaVuSans-2f" transform="scale(0.015625)"/>
      </defs>
      <use xlink:href="#DejaVuSans-31"/>
      <use x="63.623047" xlink:href="#DejaVuSans-3a"/>
      <use x="97.314453" xlink:href="#DejaVuSans-20"/>
      <use x="129.101562" xlink:href="#DejaVuSans-35"/>
      <use x="192.724609" xlink:href="#DejaVuSans-2f"/>
      <use x="226.416016" xlink:href="#DejaVuSans-35"/>
     </g>
    </g>
    <g id="line2d_69">
     <path d="M 52.16 58.553125 
L 92.16 58.553125 
" style="fill:none;stroke:#00bfbf;stroke-linecap:square;stroke-width:3;"/>
    </g>
    <g id="line2d_70"/>
    <g id="text_8">
     <!-- -1: 3/3 -->
     <g transform="translate(108.16 65.553125)scale(0.2 -0.2)">
      <defs>
       <path d="M 2597 2516 
Q 3050 2419 3304 2112 
Q 3559 1806 3559 1356 
Q 3559 666 3084 287 
Q 2609 -91 1734 -91 
Q 1441 -91 1130 -33 
Q 819 25 488 141 
L 488 750 
Q 750 597 1062 519 
Q 1375 441 1716 441 
Q 2309 441 2620 675 
Q 2931 909 2931 1356 
Q 2931 1769 2642 2001 
Q 2353 2234 1838 2234 
L 1294 2234 
L 1294 2753 
L 1863 2753 
Q 2328 2753 2575 2939 
Q 2822 3125 2822 3475 
Q 2822 3834 2567 4026 
Q 2313 4219 1838 4219 
Q 1578 4219 1281 4162 
Q 984 4106 628 3988 
L 628 4550 
Q 988 4650 1302 4700 
Q 1616 4750 1894 4750 
Q 2613 4750 3031 4423 
Q 3450 4097 3450 3541 
Q 3450 3153 3228 2886 
Q 3006 2619 2597 2516 
z
" id="DejaVuSans-33" transform="scale(0.015625)"/>
      </defs>
      <use xlink:href="#DejaVuSans-2d"/>
      <use x="36.083984" xlink:href="#DejaVuSans-31"/>
      <use x="99.707031" xlink:href="#DejaVuSans-3a"/>
      <use x="133.398438" xlink:href="#DejaVuSans-20"/>
      <use x="165.185547" xlink:href="#DejaVuSans-33"/>
      <use x="228.808594" xlink:href="#DejaVuSans-2f"/>
      <use x="262.5" xlink:href="#DejaVuSans-33"/>
     </g>
    </g>
    <g id="line2d_71">
     <path d="M 52.16 87.909375 
L 92.16 87.909375 
" style="fill:none;stroke:#bf00bf;stroke-linecap:square;stroke-width:3;"/>
    </g>
    <g id="line2d_72"/>
    <g id="text_9">
     <!-- -4: 3/3 -->
     <g transform="translate(108.16 94.909375)scale(0.2 -0.2)">
      <use xlink:href="#DejaVuSans-2d"/>
      <use x="36.083984" xlink:href="#DejaVuSans-34"/>
      <use x="99.707031" xlink:href="#DejaVuSans-3a"/>
      <use x="133.398438" xlink:href="#DejaVuSans-20"/>
      <use x="165.185547" xlink:href="#DejaVuSans-33"/>
      <use x="228.808594" xlink:href="#DejaVuSans-2f"/>
      <use x="262.5" xlink:href="#DejaVuSans-33"/>
     </g>
    </g>
    <g id="line2d_73">
     <path d="M 52.16 117.265625 
L 92.16 117.265625 
" style="fill:none;stroke:#ff0000;stroke-linecap:square;stroke-width:3;"/>
    </g>
    <g id="line2d_74"/>
    <g id="text_10">
     <!-- -8: 3/3 -->
     <g transform="translate(108.16 124.265625)scale(0.2 -0.2)">
      <defs>
       <path d="M 2034 2216 
Q 1584 2216 1326 1975 
Q 1069 1734 1069 1313 
Q 1069 891 1326 650 
Q 1584 409 2034 409 
Q 2484 409 2743 651 
Q 3003 894 3003 1313 
Q 3003 1734 2745 1975 
Q 2488 2216 2034 2216 
z
M 1403 2484 
Q 997 2584 770 2862 
Q 544 3141 544 3541 
Q 544 4100 942 4425 
Q 1341 4750 2034 4750 
Q 2731 4750 3128 4425 
Q 3525 4100 3525 3541 
Q 3525 3141 3298 2862 
Q 3072 2584 2669 2484 
Q 3125 2378 3379 2068 
Q 3634 1759 3634 1313 
Q 3634 634 3220 271 
Q 2806 -91 2034 -91 
Q 1263 -91 848 271 
Q 434 634 434 1313 
Q 434 1759 690 2068 
Q 947 2378 1403 2484 
z
M 1172 3481 
Q 1172 3119 1398 2916 
Q 1625 2713 2034 2713 
Q 2441 2713 2670 2916 
Q 2900 3119 2900 3481 
Q 2900 3844 2670 4047 
Q 2441 4250 2034 4250 
Q 1625 4250 1398 4047 
Q 1172 3844 1172 3481 
z
" id="DejaVuSans-38" transform="scale(0.015625)"/>
      </defs>
      <use xlink:href="#DejaVuSans-2d"/>
      <use x="36.083984" xlink:href="#DejaVuSans-38"/>
      <use x="99.707031" xlink:href="#DejaVuSans-3a"/>
      <use x="133.398438" xlink:href="#DejaVuSans-20"/>
      <use x="165.185547" xlink:href="#DejaVuSans-33"/>
      <use x="228.808594" xlink:href="#DejaVuSans-2f"/>
      <use x="262.5" xlink:href="#DejaVuSans-33"/>
     </g>
    </g>
   </g>
  </g>
 </g>
 <defs>
  <clipPath id="p0ff35b66ad">
   <rect height="288.28" width="419.032" x="34.16" y="3"/>
  </clipPath>
 </defs>
</svg>
