<?xml version="1.0" encoding="utf-8" standalone="no"?>
<!DOCTYPE svg PUBLIC "-//W3C//DTD SVG 1.1//EN"
  "http://www.w3.org/Graphics/SVG/1.1/DTD/svg11.dtd">
<svg height="345.6pt" version="1.1" viewBox="0 0 460.8 345.6" width="460.8pt" xmlns="http://www.w3.org/2000/svg" xmlns:xlink="http://www.w3.org/1999/xlink">
 <metadata>
  <rdf:RDF xmlns:cc="http://creativecommons.org/ns#" xmlns:dc="http://purl.org/dc/elements/1.1/" xmlns:rdf="http://www.w3.org/1999/02/22-rdf-syntax-ns#">
   <cc:Work>
    <dc:type rdf:resource="http://purl.org/dc/dcmitype/StillImage"/>
    <dc:date>2022-05-22T15:09:43.443839</dc:date>
    <dc:format>image/svg+xml</dc:format>
    <dc:creator>
     <cc:Agent>
      <dc:title>Matplotlib v3.4.3, https://matplotlib.org/</dc:title>
     </cc:Agent>
    </dc:creator>
   </cc:Work>
  </rdf:RDF>
 </metadata>
 <defs>
  <style type="text/css">*{stroke-linecap:butt;stroke-linejoin:round;}</style>
 </defs>
 <g id="figure_1">
  <g id="patch_1">
   <path d="M 0 345.6 
L 460.8 345.6 
L 460.8 0 
L 0 0 
z
" style="fill:#ffffff;"/>
  </g>
  <g id="axes_1">
   <g id="patch_2">
    <path d="M 34.16 291.28 
L 453.192 291.28 
L 453.192 3 
L 34.16 3 
z
" style="fill:#ffffff;"/>
   </g>
   <g id="matplotlib.axis_1">
    <g id="xtick_1">
     <g id="line2d_1">
      <path clip-path="url(#p1d2f85f15c)" d="M 146.12616 291.28 
L 146.12616 3 
" style="fill:none;stroke:#b0b0b0;stroke-linecap:square;stroke-width:0.8;"/>
     </g>
     <g id="line2d_2">
      <defs>
       <path d="M 0 0 
L 0 3.5 
" id="m993fd29556" style="stroke:#000000;stroke-width:0.8;"/>
      </defs>
      <g>
       <use style="stroke:#000000;stroke-width:0.8;" x="146.12616" xlink:href="#m993fd29556" y="291.28"/>
      </g>
     </g>
     <g id="text_1">
      <!-- -1 -->
      <g transform="translate(136.155848 313.476875)scale(0.2 -0.2)">
       <defs>
        <path d="M 313 2009 
L 1997 2009 
L 1997 1497 
L 313 1497 
L 313 2009 
z
" id="DejaVuSans-2d" transform="scale(0.015625)"/>
        <path d="M 794 531 
L 1825 531 
L 1825 4091 
L 703 3866 
L 703 4441 
L 1819 4666 
L 2450 4666 
L 2450 531 
L 3481 531 
L 3481 0 
L 794 0 
L 794 531 
z
" id="DejaVuSans-31" transform="scale(0.015625)"/>
       </defs>
       <use xlink:href="#DejaVuSans-2d"/>
       <use x="36.083984" xlink:href="#DejaVuSans-31"/>
      </g>
     </g>
    </g>
    <g id="xtick_2">
     <g id="line2d_3">
      <path clip-path="url(#p1d2f85f15c)" d="M 341.22584 291.28 
L 341.22584 3 
" style="fill:none;stroke:#b0b0b0;stroke-linecap:square;stroke-width:0.8;"/>
     </g>
     <g id="line2d_4">
      <g>
       <use style="stroke:#000000;stroke-width:0.8;" x="341.22584" xlink:href="#m993fd29556" y="291.28"/>
      </g>
     </g>
     <g id="text_2">
      <!-- 1 -->
      <g transform="translate(334.86334 313.476875)scale(0.2 -0.2)">
       <use xlink:href="#DejaVuSans-31"/>
      </g>
     </g>
    </g>
    <g id="xtick_3">
     <g id="line2d_5">
      <defs>
       <path d="M 0 0 
L 0 2 
" id="mfa24ae7211" style="stroke:#000000;stroke-width:0.6;"/>
      </defs>
      <g>
       <use style="stroke:#000000;stroke-width:0.6;" x="39.122764" xlink:href="#mfa24ae7211" y="291.28"/>
      </g>
     </g>
    </g>
    <g id="xtick_4">
     <g id="line2d_6">
      <g>
       <use style="stroke:#000000;stroke-width:0.6;" x="44.112685" xlink:href="#mfa24ae7211" y="291.28"/>
      </g>
     </g>
    </g>
    <g id="xtick_5">
     <g id="line2d_7">
      <g>
       <use style="stroke:#000000;stroke-width:0.6;" x="77.941748" xlink:href="#mfa24ae7211" y="291.28"/>
      </g>
     </g>
    </g>
    <g id="xtick_6">
     <g id="line2d_8">
      <g>
       <use style="stroke:#000000;stroke-width:0.6;" x="95.119423" xlink:href="#mfa24ae7211" y="291.28"/>
      </g>
     </g>
    </g>
    <g id="xtick_7">
     <g id="line2d_9">
      <g>
       <use style="stroke:#000000;stroke-width:0.6;" x="107.307176" xlink:href="#mfa24ae7211" y="291.28"/>
      </g>
     </g>
    </g>
    <g id="xtick_8">
     <g id="line2d_10">
      <g>
       <use style="stroke:#000000;stroke-width:0.6;" x="116.760732" xlink:href="#mfa24ae7211" y="291.28"/>
      </g>
     </g>
    </g>
    <g id="xtick_9">
     <g id="line2d_11">
      <g>
       <use style="stroke:#000000;stroke-width:0.6;" x="124.48485" xlink:href="#mfa24ae7211" y="291.28"/>
      </g>
     </g>
    </g>
    <g id="xtick_10">
     <g id="line2d_12">
      <g>
       <use style="stroke:#000000;stroke-width:0.6;" x="131.015499" xlink:href="#mfa24ae7211" y="291.28"/>
      </g>
     </g>
    </g>
    <g id="xtick_11">
     <g id="line2d_13">
      <g>
       <use style="stroke:#000000;stroke-width:0.6;" x="136.672604" xlink:href="#mfa24ae7211" y="291.28"/>
      </g>
     </g>
    </g>
    <g id="xtick_12">
     <g id="line2d_14">
      <g>
       <use style="stroke:#000000;stroke-width:0.6;" x="141.662524" xlink:href="#mfa24ae7211" y="291.28"/>
      </g>
     </g>
    </g>
    <g id="xtick_13">
     <g id="line2d_15">
      <g>
       <use style="stroke:#000000;stroke-width:0.6;" x="175.491588" xlink:href="#mfa24ae7211" y="291.28"/>
      </g>
     </g>
    </g>
    <g id="xtick_14">
     <g id="line2d_16">
      <g>
       <use style="stroke:#000000;stroke-width:0.6;" x="192.669262" xlink:href="#mfa24ae7211" y="291.28"/>
      </g>
     </g>
    </g>
    <g id="xtick_15">
     <g id="line2d_17">
      <g>
       <use style="stroke:#000000;stroke-width:0.6;" x="204.857016" xlink:href="#mfa24ae7211" y="291.28"/>
      </g>
     </g>
    </g>
    <g id="xtick_16">
     <g id="line2d_18">
      <g>
       <use style="stroke:#000000;stroke-width:0.6;" x="214.310572" xlink:href="#mfa24ae7211" y="291.28"/>
      </g>
     </g>
    </g>
    <g id="xtick_17">
     <g id="line2d_19">
      <g>
       <use style="stroke:#000000;stroke-width:0.6;" x="222.03469" xlink:href="#mfa24ae7211" y="291.28"/>
      </g>
     </g>
    </g>
    <g id="xtick_18">
     <g id="line2d_20">
      <g>
       <use style="stroke:#000000;stroke-width:0.6;" x="228.565339" xlink:href="#mfa24ae7211" y="291.28"/>
      </g>
     </g>
    </g>
    <g id="xtick_19">
     <g id="line2d_21">
      <g>
       <use style="stroke:#000000;stroke-width:0.6;" x="234.222444" xlink:href="#mfa24ae7211" y="291.28"/>
      </g>
     </g>
    </g>
    <g id="xtick_20">
     <g id="line2d_22">
      <g>
       <use style="stroke:#000000;stroke-width:0.6;" x="239.212364" xlink:href="#mfa24ae7211" y="291.28"/>
      </g>
     </g>
    </g>
    <g id="xtick_21">
     <g id="line2d_23">
      <g>
       <use style="stroke:#000000;stroke-width:0.6;" x="273.041428" xlink:href="#mfa24ae7211" y="291.28"/>
      </g>
     </g>
    </g>
    <g id="xtick_22">
     <g id="line2d_24">
      <g>
       <use style="stroke:#000000;stroke-width:0.6;" x="290.219102" xlink:href="#mfa24ae7211" y="291.28"/>
      </g>
     </g>
    </g>
    <g id="xtick_23">
     <g id="line2d_25">
      <g>
       <use style="stroke:#000000;stroke-width:0.6;" x="302.406856" xlink:href="#mfa24ae7211" y="291.28"/>
      </g>
     </g>
    </g>
    <g id="xtick_24">
     <g id="line2d_26">
      <g>
       <use style="stroke:#000000;stroke-width:0.6;" x="311.860412" xlink:href="#mfa24ae7211" y="291.28"/>
      </g>
     </g>
    </g>
    <g id="xtick_25">
     <g id="line2d_27">
      <g>
       <use style="stroke:#000000;stroke-width:0.6;" x="319.58453" xlink:href="#mfa24ae7211" y="291.28"/>
      </g>
     </g>
    </g>
    <g id="xtick_26">
     <g id="line2d_28">
      <g>
       <use style="stroke:#000000;stroke-width:0.6;" x="326.115178" xlink:href="#mfa24ae7211" y="291.28"/>
      </g>
     </g>
    </g>
    <g id="xtick_27">
     <g id="line2d_29">
      <g>
       <use style="stroke:#000000;stroke-width:0.6;" x="331.772283" xlink:href="#mfa24ae7211" y="291.28"/>
      </g>
     </g>
    </g>
    <g id="xtick_28">
     <g id="line2d_30">
      <g>
       <use style="stroke:#000000;stroke-width:0.6;" x="336.762204" xlink:href="#mfa24ae7211" y="291.28"/>
      </g>
     </g>
    </g>
    <g id="xtick_29">
     <g id="line2d_31">
      <g>
       <use style="stroke:#000000;stroke-width:0.6;" x="370.591268" xlink:href="#mfa24ae7211" y="291.28"/>
      </g>
     </g>
    </g>
    <g id="xtick_30">
     <g id="line2d_32">
      <g>
       <use style="stroke:#000000;stroke-width:0.6;" x="387.768942" xlink:href="#mfa24ae7211" y="291.28"/>
      </g>
     </g>
    </g>
    <g id="xtick_31">
     <g id="line2d_33">
      <g>
       <use style="stroke:#000000;stroke-width:0.6;" x="399.956695" xlink:href="#mfa24ae7211" y="291.28"/>
      </g>
     </g>
    </g>
    <g id="xtick_32">
     <g id="line2d_34">
      <g>
       <use style="stroke:#000000;stroke-width:0.6;" x="409.410252" xlink:href="#mfa24ae7211" y="291.28"/>
      </g>
     </g>
    </g>
    <g id="xtick_33">
     <g id="line2d_35">
      <g>
       <use style="stroke:#000000;stroke-width:0.6;" x="417.134369" xlink:href="#mfa24ae7211" y="291.28"/>
      </g>
     </g>
    </g>
    <g id="xtick_34">
     <g id="line2d_36">
      <g>
       <use style="stroke:#000000;stroke-width:0.6;" x="423.665018" xlink:href="#mfa24ae7211" y="291.28"/>
      </g>
     </g>
    </g>
    <g id="xtick_35">
     <g id="line2d_37">
      <g>
       <use style="stroke:#000000;stroke-width:0.6;" x="429.322123" xlink:href="#mfa24ae7211" y="291.28"/>
      </g>
     </g>
    </g>
    <g id="xtick_36">
     <g id="line2d_38">
      <g>
       <use style="stroke:#000000;stroke-width:0.6;" x="434.312044" xlink:href="#mfa24ae7211" y="291.28"/>
      </g>
     </g>
    </g>
    <g id="text_3">
     <!-- log10 of FEvals ratio -->
     <g transform="translate(141.371312 336.833125)scale(0.2 -0.2)">
      <defs>
       <path d="M 603 4863 
L 1178 4863 
L 1178 0 
L 603 0 
L 603 4863 
z
" id="DejaVuSans-6c" transform="scale(0.015625)"/>
       <path d="M 1959 3097 
Q 1497 3097 1228 2736 
Q 959 2375 959 1747 
Q 959 1119 1226 758 
Q 1494 397 1959 397 
Q 2419 397 2687 759 
Q 2956 1122 2956 1747 
Q 2956 2369 2687 2733 
Q 2419 3097 1959 3097 
z
M 1959 3584 
Q 2709 3584 3137 3096 
Q 3566 2609 3566 1747 
Q 3566 888 3137 398 
Q 2709 -91 1959 -91 
Q 1206 -91 779 398 
Q 353 888 353 1747 
Q 353 2609 779 3096 
Q 1206 3584 1959 3584 
z
" id="DejaVuSans-6f" transform="scale(0.015625)"/>
       <path d="M 2906 1791 
Q 2906 2416 2648 2759 
Q 2391 3103 1925 3103 
Q 1463 3103 1205 2759 
Q 947 2416 947 1791 
Q 947 1169 1205 825 
Q 1463 481 1925 481 
Q 2391 481 2648 825 
Q 2906 1169 2906 1791 
z
M 3481 434 
Q 3481 -459 3084 -895 
Q 2688 -1331 1869 -1331 
Q 1566 -1331 1297 -1286 
Q 1028 -1241 775 -1147 
L 775 -588 
Q 1028 -725 1275 -790 
Q 1522 -856 1778 -856 
Q 2344 -856 2625 -561 
Q 2906 -266 2906 331 
L 2906 616 
Q 2728 306 2450 153 
Q 2172 0 1784 0 
Q 1141 0 747 490 
Q 353 981 353 1791 
Q 353 2603 747 3093 
Q 1141 3584 1784 3584 
Q 2172 3584 2450 3431 
Q 2728 3278 2906 2969 
L 2906 3500 
L 3481 3500 
L 3481 434 
z
" id="DejaVuSans-67" transform="scale(0.015625)"/>
       <path d="M 2034 4250 
Q 1547 4250 1301 3770 
Q 1056 3291 1056 2328 
Q 1056 1369 1301 889 
Q 1547 409 2034 409 
Q 2525 409 2770 889 
Q 3016 1369 3016 2328 
Q 3016 3291 2770 3770 
Q 2525 4250 2034 4250 
z
M 2034 4750 
Q 2819 4750 3233 4129 
Q 3647 3509 3647 2328 
Q 3647 1150 3233 529 
Q 2819 -91 2034 -91 
Q 1250 -91 836 529 
Q 422 1150 422 2328 
Q 422 3509 836 4129 
Q 1250 4750 2034 4750 
z
" id="DejaVuSans-30" transform="scale(0.015625)"/>
       <path id="DejaVuSans-20" transform="scale(0.015625)"/>
       <path d="M 2375 4863 
L 2375 4384 
L 1825 4384 
Q 1516 4384 1395 4259 
Q 1275 4134 1275 3809 
L 1275 3500 
L 2222 3500 
L 2222 3053 
L 1275 3053 
L 1275 0 
L 697 0 
L 697 3053 
L 147 3053 
L 147 3500 
L 697 3500 
L 697 3744 
Q 697 4328 969 4595 
Q 1241 4863 1831 4863 
L 2375 4863 
z
" id="DejaVuSans-66" transform="scale(0.015625)"/>
       <path d="M 628 4666 
L 3309 4666 
L 3309 4134 
L 1259 4134 
L 1259 2759 
L 3109 2759 
L 3109 2228 
L 1259 2228 
L 1259 0 
L 628 0 
L 628 4666 
z
" id="DejaVuSans-46" transform="scale(0.015625)"/>
       <path d="M 628 4666 
L 3578 4666 
L 3578 4134 
L 1259 4134 
L 1259 2753 
L 3481 2753 
L 3481 2222 
L 1259 2222 
L 1259 531 
L 3634 531 
L 3634 0 
L 628 0 
L 628 4666 
z
" id="DejaVuSans-45" transform="scale(0.015625)"/>
       <path d="M 191 3500 
L 800 3500 
L 1894 563 
L 2988 3500 
L 3597 3500 
L 2284 0 
L 1503 0 
L 191 3500 
z
" id="DejaVuSans-76" transform="scale(0.015625)"/>
       <path d="M 2194 1759 
Q 1497 1759 1228 1600 
Q 959 1441 959 1056 
Q 959 750 1161 570 
Q 1363 391 1709 391 
Q 2188 391 2477 730 
Q 2766 1069 2766 1631 
L 2766 1759 
L 2194 1759 
z
M 3341 1997 
L 3341 0 
L 2766 0 
L 2766 531 
Q 2569 213 2275 61 
Q 1981 -91 1556 -91 
Q 1019 -91 701 211 
Q 384 513 384 1019 
Q 384 1609 779 1909 
Q 1175 2209 1959 2209 
L 2766 2209 
L 2766 2266 
Q 2766 2663 2505 2880 
Q 2244 3097 1772 3097 
Q 1472 3097 1187 3025 
Q 903 2953 641 2809 
L 641 3341 
Q 956 3463 1253 3523 
Q 1550 3584 1831 3584 
Q 2591 3584 2966 3190 
Q 3341 2797 3341 1997 
z
" id="DejaVuSans-61" transform="scale(0.015625)"/>
       <path d="M 2834 3397 
L 2834 2853 
Q 2591 2978 2328 3040 
Q 2066 3103 1784 3103 
Q 1356 3103 1142 2972 
Q 928 2841 928 2578 
Q 928 2378 1081 2264 
Q 1234 2150 1697 2047 
L 1894 2003 
Q 2506 1872 2764 1633 
Q 3022 1394 3022 966 
Q 3022 478 2636 193 
Q 2250 -91 1575 -91 
Q 1294 -91 989 -36 
Q 684 19 347 128 
L 347 722 
Q 666 556 975 473 
Q 1284 391 1588 391 
Q 1994 391 2212 530 
Q 2431 669 2431 922 
Q 2431 1156 2273 1281 
Q 2116 1406 1581 1522 
L 1381 1569 
Q 847 1681 609 1914 
Q 372 2147 372 2553 
Q 372 3047 722 3315 
Q 1072 3584 1716 3584 
Q 2034 3584 2315 3537 
Q 2597 3491 2834 3397 
z
" id="DejaVuSans-73" transform="scale(0.015625)"/>
       <path d="M 2631 2963 
Q 2534 3019 2420 3045 
Q 2306 3072 2169 3072 
Q 1681 3072 1420 2755 
Q 1159 2438 1159 1844 
L 1159 0 
L 581 0 
L 581 3500 
L 1159 3500 
L 1159 2956 
Q 1341 3275 1631 3429 
Q 1922 3584 2338 3584 
Q 2397 3584 2469 3576 
Q 2541 3569 2628 3553 
L 2631 2963 
z
" id="DejaVuSans-72" transform="scale(0.015625)"/>
       <path d="M 1172 4494 
L 1172 3500 
L 2356 3500 
L 2356 3053 
L 1172 3053 
L 1172 1153 
Q 1172 725 1289 603 
Q 1406 481 1766 481 
L 2356 481 
L 2356 0 
L 1766 0 
Q 1100 0 847 248 
Q 594 497 594 1153 
L 594 3053 
L 172 3053 
L 172 3500 
L 594 3500 
L 594 4494 
L 1172 4494 
z
" id="DejaVuSans-74" transform="scale(0.015625)"/>
       <path d="M 603 3500 
L 1178 3500 
L 1178 0 
L 603 0 
L 603 3500 
z
M 603 4863 
L 1178 4863 
L 1178 4134 
L 603 4134 
L 603 4863 
z
" id="DejaVuSans-69" transform="scale(0.015625)"/>
      </defs>
      <use xlink:href="#DejaVuSans-6c"/>
      <use x="27.783203" xlink:href="#DejaVuSans-6f"/>
      <use x="88.964844" xlink:href="#DejaVuSans-67"/>
      <use x="152.441406" xlink:href="#DejaVuSans-31"/>
      <use x="216.064453" xlink:href="#DejaVuSans-30"/>
      <use x="279.6875" xlink:href="#DejaVuSans-20"/>
      <use x="311.474609" xlink:href="#DejaVuSans-6f"/>
      <use x="372.65625" xlink:href="#DejaVuSans-66"/>
      <use x="407.861328" xlink:href="#DejaVuSans-20"/>
      <use x="439.648438" xlink:href="#DejaVuSans-46"/>
      <use x="497.167969" xlink:href="#DejaVuSans-45"/>
      <use x="560.351562" xlink:href="#DejaVuSans-76"/>
      <use x="619.53125" xlink:href="#DejaVuSans-61"/>
      <use x="680.810547" xlink:href="#DejaVuSans-6c"/>
      <use x="708.59375" xlink:href="#DejaVuSans-73"/>
      <use x="760.693359" xlink:href="#DejaVuSans-20"/>
      <use x="792.480469" xlink:href="#DejaVuSans-72"/>
      <use x="833.59375" xlink:href="#DejaVuSans-61"/>
      <use x="894.873047" xlink:href="#DejaVuSans-74"/>
      <use x="934.082031" xlink:href="#DejaVuSans-69"/>
      <use x="961.865234" xlink:href="#DejaVuSans-6f"/>
     </g>
    </g>
   </g>
   <g id="matplotlib.axis_2">
    <g id="ytick_1">
     <g id="line2d_39">
      <path clip-path="url(#p1d2f85f15c)" d="M 34.16 288.453725 
L 453.192 288.453725 
" style="fill:none;stroke:#b0b0b0;stroke-linecap:square;stroke-width:0.8;"/>
     </g>
     <g id="line2d_40">
      <defs>
       <path d="M 0 0 
L -3.5 0 
" id="mdfaccacb95" style="stroke:#000000;stroke-width:0.8;"/>
      </defs>
      <g>
       <use style="stroke:#000000;stroke-width:0.8;" x="34.16" xlink:href="#mdfaccacb95" y="288.453725"/>
      </g>
     </g>
    </g>
    <g id="ytick_2">
     <g id="line2d_41">
      <path clip-path="url(#p1d2f85f15c)" d="M 34.16 217.796863 
L 453.192 217.796863 
" style="fill:none;stroke:#b0b0b0;stroke-linecap:square;stroke-width:0.8;"/>
     </g>
     <g id="line2d_42">
      <g>
       <use style="stroke:#000000;stroke-width:0.8;" x="34.16" xlink:href="#mdfaccacb95" y="217.796863"/>
      </g>
     </g>
    </g>
    <g id="ytick_3">
     <g id="line2d_43">
      <path clip-path="url(#p1d2f85f15c)" d="M 34.16 147.14 
L 453.192 147.14 
" style="fill:none;stroke:#b0b0b0;stroke-linecap:square;stroke-width:0.8;"/>
     </g>
     <g id="line2d_44">
      <g>
       <use style="stroke:#000000;stroke-width:0.8;" x="34.16" xlink:href="#mdfaccacb95" y="147.14"/>
      </g>
     </g>
    </g>
    <g id="ytick_4">
     <g id="line2d_45">
      <path clip-path="url(#p1d2f85f15c)" d="M 34.16 76.483137 
L 453.192 76.483137 
" style="fill:none;stroke:#b0b0b0;stroke-linecap:square;stroke-width:0.8;"/>
     </g>
     <g id="line2d_46">
      <g>
       <use style="stroke:#000000;stroke-width:0.8;" x="34.16" xlink:href="#mdfaccacb95" y="76.483137"/>
      </g>
     </g>
    </g>
    <g id="ytick_5">
     <g id="line2d_47">
      <path clip-path="url(#p1d2f85f15c)" d="M 34.16 5.826275 
L 453.192 5.826275 
" style="fill:none;stroke:#b0b0b0;stroke-linecap:square;stroke-width:0.8;"/>
     </g>
     <g id="line2d_48">
      <g>
       <use style="stroke:#000000;stroke-width:0.8;" x="34.16" xlink:href="#mdfaccacb95" y="5.826275"/>
      </g>
     </g>
    </g>
    <g id="text_4">
     <!-- proportion of trials -->
     <g transform="translate(19.000625 240.14625)rotate(-90)scale(0.2 -0.2)">
      <defs>
       <path d="M 1159 525 
L 1159 -1331 
L 581 -1331 
L 581 3500 
L 1159 3500 
L 1159 2969 
Q 1341 3281 1617 3432 
Q 1894 3584 2278 3584 
Q 2916 3584 3314 3078 
Q 3713 2572 3713 1747 
Q 3713 922 3314 415 
Q 2916 -91 2278 -91 
Q 1894 -91 1617 61 
Q 1341 213 1159 525 
z
M 3116 1747 
Q 3116 2381 2855 2742 
Q 2594 3103 2138 3103 
Q 1681 3103 1420 2742 
Q 1159 2381 1159 1747 
Q 1159 1113 1420 752 
Q 1681 391 2138 391 
Q 2594 391 2855 752 
Q 3116 1113 3116 1747 
z
" id="DejaVuSans-70" transform="scale(0.015625)"/>
       <path d="M 3513 2113 
L 3513 0 
L 2938 0 
L 2938 2094 
Q 2938 2591 2744 2837 
Q 2550 3084 2163 3084 
Q 1697 3084 1428 2787 
Q 1159 2491 1159 1978 
L 1159 0 
L 581 0 
L 581 3500 
L 1159 3500 
L 1159 2956 
Q 1366 3272 1645 3428 
Q 1925 3584 2291 3584 
Q 2894 3584 3203 3211 
Q 3513 2838 3513 2113 
z
" id="DejaVuSans-6e" transform="scale(0.015625)"/>
      </defs>
      <use xlink:href="#DejaVuSans-70"/>
      <use x="63.476562" xlink:href="#DejaVuSans-72"/>
      <use x="102.339844" xlink:href="#DejaVuSans-6f"/>
      <use x="163.521484" xlink:href="#DejaVuSans-70"/>
      <use x="226.998047" xlink:href="#DejaVuSans-6f"/>
      <use x="288.179688" xlink:href="#DejaVuSans-72"/>
      <use x="329.292969" xlink:href="#DejaVuSans-74"/>
      <use x="368.501953" xlink:href="#DejaVuSans-69"/>
      <use x="396.285156" xlink:href="#DejaVuSans-6f"/>
      <use x="457.466797" xlink:href="#DejaVuSans-6e"/>
      <use x="520.845703" xlink:href="#DejaVuSans-20"/>
      <use x="552.632812" xlink:href="#DejaVuSans-6f"/>
      <use x="613.814453" xlink:href="#DejaVuSans-66"/>
      <use x="649.019531" xlink:href="#DejaVuSans-20"/>
      <use x="680.806641" xlink:href="#DejaVuSans-74"/>
      <use x="720.015625" xlink:href="#DejaVuSans-72"/>
      <use x="761.128906" xlink:href="#DejaVuSans-69"/>
      <use x="788.912109" xlink:href="#DejaVuSans-61"/>
      <use x="850.191406" xlink:href="#DejaVuSans-6c"/>
      <use x="877.974609" xlink:href="#DejaVuSans-73"/>
     </g>
    </g>
   </g>
   <g id="line2d_49">
    <path clip-path="url(#p1d2f85f15c)" d="M 34.16 196.14779 
L 50.651954 196.14779 
L 50.651954 195.830588 
L 58.596065 195.830588 
L 58.596065 195.513385 
L 62.605182 195.513385 
L 62.605182 195.196183 
L 68.609426 195.196183 
L 68.609426 194.87898 
L 69.246076 194.87898 
L 69.246076 194.561778 
L 70.549292 194.561778 
L 70.549292 194.244575 
L 71.265191 194.244575 
L 71.265191 193.927373 
L 76.172875 193.927373 
L 76.172875 193.61017 
L 76.553536 193.61017 
L 76.553536 193.292968 
L 77.190186 193.292968 
L 77.190186 192.975765 
L 78.359346 192.975765 
L 78.359346 192.658563 
L 79.094157 192.658563 
L 79.094157 192.34136 
L 79.209301 192.34136 
L 79.209301 192.024157 
L 80.40985 192.024157 
L 80.40985 191.706955 
L 83.253933 191.706955 
L 83.253933 191.389752 
L 84.116986 191.389752 
L 84.116986 191.07255 
L 84.95282 191.07255 
L 84.95282 190.755347 
L 86.303457 190.755347 
L 86.303457 190.438145 
L 87.038267 190.438145 
L 87.038267 190.120942 
L 87.342404 190.120942 
L 87.342404 189.80374 
L 87.641148 189.80374 
L 87.641148 189.486537 
L 89.53326 189.486537 
L 89.53326 189.169335 
L 89.922911 189.169335 
L 89.922911 188.852132 
L 91.198044 188.852132 
L 91.198044 188.53493 
L 92.363078 188.53493 
L 92.363078 188.217727 
L 92.884587 188.217727 
L 92.89693 187.583322 
L 95.286515 187.583322 
L 95.286515 187.26612 
L 95.585258 187.26612 
L 95.585258 186.948917 
L 97.47737 186.948917 
L 97.47737 186.631715 
L 97.867021 186.631715 
L 97.867021 186.314512 
L 98.367322 186.314512 
L 98.367322 185.997309 
L 99.003972 185.997309 
L 99.003972 185.680107 
L 100.828697 185.680107 
L 100.828697 185.362904 
L 101.023087 185.362904 
L 101.023087 185.045702 
L 105.930771 185.045702 
L 105.930771 184.728499 
L 108.117242 184.728499 
L 108.117242 184.411297 
L 108.852053 184.411297 
L 108.852053 184.094094 
L 113.011829 184.094094 
L 113.011829 183.776892 
L 114.710716 183.776892 
L 114.710716 183.459689 
L 117.100301 183.459689 
L 117.100301 183.142487 
L 117.399044 183.142487 
L 117.399044 182.825284 
L 119.291156 182.825284 
L 119.291156 182.508082 
L 119.680807 182.508082 
L 119.680807 182.190879 
L 122.642483 182.190879 
L 122.642483 181.873677 
L 148.546125 181.873677 
L 148.546125 181.556474 
L 160.499352 181.556474 
L 160.499352 181.239272 
L 162.026919 181.239272 
L 162.026919 180.922069 
L 166.503596 180.922069 
L 166.503596 180.604867 
L 167.140246 180.604867 
L 167.140246 180.287664 
L 169.159361 180.287664 
L 169.159361 179.970461 
L 173.980147 179.970461 
L 174.067046 179.336056 
L 176.253517 179.336056 
L 176.253517 179.018854 
L 176.988327 179.018854 
L 176.988327 178.701651 
L 179.984391 178.701651 
L 179.984391 178.384449 
L 180.621041 178.384449 
L 180.621041 178.067246 
L 181.148104 178.067246 
L 181.148104 177.750044 
L 182.640156 177.750044 
L 182.640156 177.432841 
L 182.84699 177.432841 
L 182.84699 177.115639 
L 185.236575 177.115639 
L 185.236575 176.798436 
L 185.535318 176.798436 
L 185.535318 176.481234 
L 187.42743 176.481234 
L 187.42743 176.164031 
L 187.54784 176.164031 
L 187.54784 175.846829 
L 187.817081 175.846829 
L 187.817081 175.529626 
L 189.734311 175.529626 
L 189.734311 175.212424 
L 190.469122 175.212424 
L 190.469122 174.895221 
L 190.778757 174.895221 
L 190.778757 174.578019 
L 194.628898 174.578019 
L 194.628898 174.260816 
L 196.327785 174.260816 
L 196.327785 173.943613 
L 198.71737 173.943613 
L 198.71737 173.626411 
L 199.016113 173.626411 
L 199.016113 173.309208 
L 200.227984 173.309208 
L 200.227984 172.992006 
L 200.908225 172.992006 
L 200.908225 172.674803 
L 201.297876 172.674803 
L 201.297876 172.357601 
L 204.259552 172.357601 
L 204.259552 172.040398 
L 212.181212 172.040398 
L 212.181212 171.723196 
L 218.185456 171.723196 
L 218.185456 171.405993 
L 218.822106 171.405993 
L 218.822106 171.088791 
L 220.841221 171.088791 
L 220.841221 170.771588 
L 225.748905 170.771588 
L 225.748905 170.454386 
L 227.935376 170.454386 
L 227.935376 170.137183 
L 228.670187 170.137183 
L 228.670187 169.819981 
L 232.829963 169.819981 
L 232.829963 169.502778 
L 234.528849 169.502778 
L 234.528849 169.185576 
L 236.918434 169.185576 
L 236.918434 168.868373 
L 237.217177 168.868373 
L 237.217177 168.551171 
L 239.10929 168.551171 
L 239.10929 168.233968 
L 239.49894 168.233968 
L 239.49894 167.916765 
L 242.460617 167.916765 
L 242.460617 167.599563 
L 255.871501 167.599563 
L 255.871501 167.28236 
L 256.864486 167.28236 
L 256.864486 166.965158 
L 257.938356 166.965158 
L 257.938356 166.647955 
L 258.4475 166.647955 
L 258.4475 166.330753 
L 259.484391 166.330753 
L 259.484391 166.01355 
L 261.755986 166.01355 
L 261.755986 165.696348 
L 261.907452 165.696348 
L 261.907452 165.379145 
L 262.773767 165.379145 
L 262.773767 165.061943 
L 263.400958 165.061943 
L 263.400958 164.74474 
L 263.617193 164.74474 
L 263.617193 164.427538 
L 267.506939 164.427538 
L 267.551729 163.793133 
L 268.26201 163.793133 
L 268.26201 163.47593 
L 268.587778 163.47593 
L 268.587778 163.158728 
L 268.805644 163.158728 
L 268.805644 162.841525 
L 269.17654 162.841525 
L 269.281039 162.20712 
L 270.461631 162.20712 
L 270.461631 161.889917 
L 271.072196 161.889917 
L 271.072196 161.572715 
L 271.968974 161.572715 
L 271.968974 161.255512 
L 274.588676 161.255512 
L 274.588676 160.93831 
L 275.465547 160.93831 
L 275.52612 160.303905 
L 276.773785 160.303905 
L 276.773785 159.986702 
L 281.09416 159.986702 
L 281.09416 159.6695 
L 283.161015 159.6695 
L 283.161015 159.352297 
L 283.670159 159.352297 
L 283.670159 159.035095 
L 284.70705 159.035095 
L 284.70705 158.717892 
L 287.130111 158.717892 
L 287.130111 158.40069 
L 287.996426 158.40069 
L 287.996426 158.083487 
L 288.483944 158.083487 
L 288.483944 157.766285 
L 288.623617 157.766285 
L 288.623617 157.449082 
L 288.839852 157.449082 
L 288.839852 157.13188 
L 295.683363 157.13188 
L 295.683363 156.814677 
L 300.688206 156.814677 
L 300.688206 156.497475 
L 308.479656 156.497475 
L 308.479656 156.180272 
L 313.706603 156.180272 
L 313.706603 155.863069 
L 316.867041 155.863069 
L 316.867041 155.545867 
L 319.303273 155.545867 
L 319.303273 155.228664 
L 320.432883 155.228664 
L 320.432883 154.911462 
L 320.650233 154.911462 
L 320.691107 154.277057 
L 320.906022 154.277057 
L 320.906022 153.959854 
L 321.037103 153.959854 
L 321.037103 153.642652 
L 321.370128 153.642652 
L 321.370128 153.325449 
L 321.879272 153.325449 
L 321.879272 153.008247 
L 322.658049 153.008247 
L 322.757961 152.056639 
L 322.916163 152.056639 
L 322.916163 151.739437 
L 323.226232 151.739437 
L 323.267106 151.105032 
L 324.162303 151.105032 
L 324.263123 150.470627 
L 324.303996 150.470627 
L 324.303996 150.153424 
L 324.724904 150.153424 
L 324.724904 149.836221 
L 325.195655 149.836221 
L 325.234049 149.201816 
L 325.339224 149.201816 
L 325.339224 148.884614 
L 325.652922 148.884614 
L 325.652922 148.567411 
L 325.928603 148.567411 
L 325.928603 148.250209 
L 326.20554 148.250209 
L 326.270939 147.298601 
L 326.437127 147.298601 
L 326.437127 146.981399 
L 326.686184 146.981399 
L 326.738302 146.029791 
L 326.83273 146.029791 
L 326.83273 145.712589 
L 327.048965 145.712589 
L 327.15666 144.760981 
L 327.26251 144.760981 
L 327.26251 144.443779 
L 327.5525 144.443779 
L 327.593373 143.809373 
L 327.691434 143.809373 
L 327.775193 142.540563 
L 328.17969 142.540563 
L 328.228922 141.588956 
L 328.395925 141.588956 
L 328.436798 140.954551 
L 328.694 140.954551 
L 328.694 140.637348 
L 328.808545 140.637348 
L 328.820269 140.002943 
L 329.058667 140.002943 
L 329.092892 139.368538 
L 329.265812 139.368538 
L 329.265812 139.051336 
L 329.560316 139.051336 
L 329.560316 138.734133 
L 330.187506 138.734133 
L 330.198253 138.099728 
L 330.403741 138.099728 
L 330.403741 137.782525 
L 331.064569 137.782525 
L 331.064569 137.465323 
L 331.231606 137.465323 
L 331.231606 137.14812 
L 331.679556 137.14812 
L 331.724346 135.87931 
L 331.900045 135.87931 
L 331.907995 135.244905 
L 332.04816 135.244905 
L 332.097922 134.6105 
L 332.434627 134.6105 
L 332.434627 134.293298 
L 332.555189 134.293298 
L 332.582934 133.658893 
L 332.725112 133.658893 
L 332.760396 133.024488 
L 332.941347 133.024488 
L 332.978261 132.390083 
L 333.182379 132.390083 
L 333.182379 132.07288 
L 333.349157 132.07288 
L 333.453657 131.121272 
L 333.950167 131.121272 
L 334.000577 130.486867 
L 334.634248 130.486867 
L 334.634248 130.169665 
L 334.824513 130.169665 
L 334.824513 129.852462 
L 335.244813 129.852462 
L 335.244813 129.53526 
L 335.461163 129.53526 
L 335.461163 129.218057 
L 336.141591 129.218057 
L 336.187048 128.583652 
L 336.791545 128.583652 
L 336.791545 128.26645 
L 336.921858 128.26645 
L 336.921858 127.949247 
L 337.480278 127.949247 
L 337.480278 127.632045 
L 337.799113 127.632045 
L 337.843904 126.99764 
L 338.258407 126.99764 
L 338.333886 126.363235 
L 338.378677 126.363235 
L 338.378677 126.046032 
L 338.554185 126.046032 
L 338.554185 125.728829 
L 338.761294 125.728829 
L 338.761294 125.411627 
L 338.879953 125.411627 
L 338.897319 124.777222 
L 339.088958 124.777222 
L 339.097818 124.142817 
L 339.414726 124.142817 
L 339.468715 123.508412 
L 339.573214 123.508412 
L 339.632591 122.874007 
L 339.698737 122.874007 
L 339.74591 121.922399 
L 340.003488 121.922399 
L 340.107987 121.287994 
L 340.244279 121.287994 
L 340.285153 120.653589 
L 340.456191 120.653589 
L 340.456191 120.336387 
L 340.753806 120.336387 
L 340.781959 119.701981 
L 340.946402 119.701981 
L 340.999825 119.067576 
L 341.081635 119.067576 
L 341.081635 118.750374 
L 341.288579 118.750374 
L 341.370721 117.798766 
L 341.47522 117.798766 
L 341.47522 117.481564 
L 341.899144 117.481564 
L 341.899144 117.164361 
L 342.252095 117.164361 
L 342.261149 116.529956 
L 342.387962 116.529956 
L 342.387962 116.212754 
L 342.542498 116.212754 
L 342.587289 115.578349 
L 342.655812 115.578349 
L 342.655812 115.261146 
L 342.780521 115.261146 
L 342.795922 114.626741 
L 343.266377 114.626741 
L 343.297569 113.992336 
L 343.623338 113.992336 
L 343.623338 113.675133 
L 343.756349 113.675133 
L 343.841203 113.040728 
L 344.163155 113.040728 
L 344.212099 112.406323 
L 344.316599 112.406323 
L 344.316599 112.089121 
L 344.574433 112.089121 
L 344.574433 111.771918 
L 344.789701 111.771918 
L 344.880851 111.137513 
L 345.170106 111.137513 
L 345.246968 110.503108 
L 345.309244 110.503108 
L 345.415624 109.868703 
L 345.468849 109.868703 
L 345.497191 109.234298 
L 345.818295 109.234298 
L 345.818295 108.917096 
L 346.107755 108.917096 
L 346.107755 108.599893 
L 346.353068 108.599893 
L 346.353068 108.282691 
L 346.782857 108.282691 
L 346.782857 107.965488 
L 347.004533 107.965488 
L 347.06596 107.331083 
L 347.360961 107.331083 
L 347.360961 107.01388 
L 347.600733 107.01388 
L 347.600733 106.696678 
L 347.720301 106.696678 
L 347.750612 106.062273 
L 348.967966 106.062273 
L 348.967966 105.74507 
L 349.46902 105.74507 
L 349.46902 105.427868 
L 349.624236 105.427868 
L 349.624236 105.110665 
L 350.211635 105.110665 
L 350.211635 104.793463 
L 350.561679 104.793463 
L 350.561679 104.47626 
L 350.712288 104.47626 
L 350.712288 104.159058 
L 351.167906 104.159058 
L 351.167906 103.841855 
L 351.809345 103.841855 
L 351.915717 103.20745 
L 353.262677 103.20745 
L 353.30355 102.573045 
L 353.557491 102.573045 
L 353.557491 102.255843 
L 353.856235 102.255843 
L 353.856235 101.93864 
L 355.270493 101.93864 
L 355.270493 101.621437 
L 355.748347 101.621437 
L 355.748347 101.304235 
L 356.137998 101.304235 
L 356.215879 100.66983 
L 356.774746 100.66983 
L 356.852529 100.035425 
L 357.808099 100.035425 
L 357.808099 99.718222 
L 358.265366 99.718222 
L 358.265366 99.40102 
L 358.871644 99.40102 
L 358.871644 99.083817 
L 359.099674 99.083817 
L 359.115136 98.449412 
L 360.462096 98.449412 
L 360.502969 97.815007 
L 362.469912 97.815007 
L 362.469912 97.497805 
L 363.779328 97.497805 
L 363.779328 97.180602 
L 363.974165 97.180602 
L 363.974165 96.8634 
L 365.007518 96.8634 
L 365.007518 96.546197 
L 365.464785 96.546197 
L 365.464785 96.228995 
L 365.965799 96.228995 
L 365.965799 95.911792 
L 366.70061 95.911792 
L 366.70061 95.594589 
L 370.860386 95.594589 
L 370.860386 95.277387 
L 372.559273 95.277387 
L 372.559273 94.960184 
L 374.948857 94.960184 
L 374.948857 94.642982 
L 375.247601 94.642982 
L 375.247601 94.325779 
L 377.139713 94.325779 
L 377.139713 94.008577 
L 377.529364 94.008577 
L 377.529364 93.691374 
L 380.49104 93.691374 
L 380.49104 93.374172 
L 453.192 93.374172 
L 453.192 93.374172 
" style="fill:none;stroke:#000000;stroke-linecap:square;stroke-width:3;"/>
   </g>
   <g id="line2d_50">
    <path clip-path="url(#p1d2f85f15c)" style="fill:none;stroke:#000000;stroke-linecap:square;stroke-width:3;"/>
   </g>
   <g id="line2d_51">
    <path clip-path="url(#p1d2f85f15c)" d="M 34.16 198.23528 
L 235.130737 198.23528 
L 235.130737 197.807705 
L 238.055427 197.807705 
L 238.055427 197.380129 
L 254.034109 197.380129 
L 254.034109 196.952554 
L 255.774164 196.952554 
L 255.774164 196.524978 
L 257.108217 196.524978 
L 257.108217 196.097403 
L 257.958065 196.097403 
L 257.958065 195.669827 
L 258.25101 195.669827 
L 258.25101 195.242251 
L 258.848272 195.242251 
L 258.848272 194.814676 
L 259.69812 194.814676 
L 259.69812 194.3871 
L 259.991065 194.3871 
L 259.991065 193.959525 
L 263.715579 193.959525 
L 263.715579 193.531949 
L 265.116619 193.531949 
L 265.116619 193.104374 
L 265.455634 193.104374 
L 265.455634 192.676798 
L 268.190728 192.676798 
L 268.190728 192.249223 
L 269.040575 192.249223 
L 269.040575 191.821647 
L 269.333521 191.821647 
L 269.333521 191.394071 
L 272.060929 191.394071 
L 272.060929 190.966496 
L 273.973783 190.966496 
L 273.973783 190.53892 
L 274.323378 190.53892 
L 274.323378 190.111345 
L 274.79809 190.111345 
L 274.79809 189.683769 
L 276.063433 189.683769 
L 276.063433 189.256194 
L 281.975959 189.256194 
L 281.975959 188.828618 
L 283.716014 188.828618 
L 283.716014 188.401042 
L 285.405889 188.401042 
L 285.405889 187.973467 
L 286.42258 187.973467 
L 286.42258 187.545891 
L 288.162635 187.545891 
L 288.162635 187.118316 
L 293.058469 187.118316 
L 293.058469 186.69074 
L 297.50509 186.69074 
L 297.50509 186.263165 
L 316.440943 186.263165 
L 316.440943 185.835589 
L 318.011728 185.835589 
L 318.011728 185.408013 
L 319.487517 185.408013 
L 319.487517 184.980438 
L 320.333699 184.980438 
L 320.333699 184.552862 
L 321.194118 184.552862 
L 321.194118 184.125287 
L 321.547438 184.125287 
L 321.547438 183.697711 
L 321.707493 183.697711 
L 321.707493 183.270136 
L 321.937772 183.270136 
L 321.937772 182.84256 
L 322.764902 182.84256 
L 322.764902 182.414984 
L 323.508557 182.414984 
L 323.508557 181.987409 
L 323.898674 181.987409 
L 323.933667 181.132258 
L 324.240691 181.132258 
L 324.240691 180.704682 
L 324.547165 180.704682 
L 324.547165 180.277107 
L 324.867726 180.277107 
L 324.867726 179.849531 
L 324.984346 179.849531 
L 325.086873 178.566804 
L 325.355341 178.566804 
L 325.355341 178.139229 
L 325.830528 178.139229 
L 325.830528 177.711653 
L 326.300612 177.711653 
L 326.300891 176.856502 
L 326.460667 176.856502 
L 326.460667 176.428926 
L 327.044267 176.428926 
L 327.044267 176.001351 
L 327.204322 176.001351 
L 327.204322 175.573775 
L 327.359222 175.573775 
L 327.445166 174.718624 
L 328.651848 174.718624 
L 328.686841 173.863473 
L 329.30034 173.863473 
L 329.395503 173.008322 
L 329.430496 173.008322 
L 329.430496 172.580746 
L 329.620901 172.580746 
L 329.620901 172.153171 
L 329.768912 172.153171 
L 329.768912 171.725595 
L 330.043994 171.725595 
L 330.108516 170.870444 
L 330.364555 170.870444 
L 330.364555 170.442868 
L 330.512567 170.442868 
L 330.512567 170.015293 
L 330.85217 170.015293 
L 330.85217 169.587717 
L 332.112396 169.587717 
L 332.198341 168.732566 
L 332.856051 168.732566 
L 332.941995 167.877415 
L 334.724252 167.877415 
L 334.724252 167.44984 
L 339.477426 167.44984 
L 339.477426 167.022264 
L 340.221081 167.022264 
L 340.221081 166.594688 
L 453.192 166.594688 
L 453.192 166.594688 
" style="fill:none;stroke:#00bfbf;stroke-linecap:square;stroke-width:3;"/>
   </g>
   <g id="line2d_52">
    <path clip-path="url(#p1d2f85f15c)" style="fill:none;stroke:#00bfbf;stroke-linecap:square;stroke-width:3;"/>
   </g>
   <g id="line2d_53">
    <path clip-path="url(#p1d2f85f15c)" d="M 37.141694 288.453725 
L 34.16 288.453725 
L 453.192 288.453725 
L 461.8 288.453725 
" style="fill:none;stroke:#bf00bf;stroke-linecap:square;stroke-width:3;"/>
   </g>
   <g id="line2d_54">
    <path clip-path="url(#p1d2f85f15c)" d="M 37.141694 288.453725 
L 34.16 288.453725 
L 453.192 288.453725 
L 461.8 288.453725 
" style="fill:none;stroke:#ff0000;stroke-linecap:square;stroke-width:3;"/>
   </g>
   <g id="line2d_55">
    <path clip-path="url(#p1d2f85f15c)" d="M 243.676 291.28 
L 243.676 3 
" style="fill:none;stroke:#000000;stroke-linecap:square;stroke-width:1.5;"/>
   </g>
   <g id="line2d_56">
    <path clip-path="url(#p1d2f85f15c)" d="M 34.16 147.14 
L 453.192 147.14 
" style="fill:none;stroke:#000000;stroke-dasharray:2,3.3;stroke-dashoffset:0;stroke-width:2;"/>
   </g>
   <g id="patch_3">
    <path d="M 34.16 291.28 
L 34.16 3 
" style="fill:none;stroke:#000000;stroke-linecap:square;stroke-linejoin:miter;stroke-width:0.8;"/>
   </g>
   <g id="patch_4">
    <path d="M 453.192 291.28 
L 453.192 3 
" style="fill:none;stroke:#000000;stroke-linecap:square;stroke-linejoin:miter;stroke-width:0.8;"/>
   </g>
   <g id="patch_5">
    <path d="M 34.16 291.28 
L 453.192 291.28 
" style="fill:none;stroke:#000000;stroke-linecap:square;stroke-linejoin:miter;stroke-width:0.8;"/>
   </g>
   <g id="patch_6">
    <path d="M 34.16 3 
L 453.192 3 
" style="fill:none;stroke:#000000;stroke-linecap:square;stroke-linejoin:miter;stroke-width:0.8;"/>
   </g>
   <g id="text_5">
    <!-- f10-f14,20-D -->
    <g transform="translate(318.19261 285.5144)scale(0.2 -0.2)">
     <defs>
      <path d="M 2419 4116 
L 825 1625 
L 2419 1625 
L 2419 4116 
z
M 2253 4666 
L 3047 4666 
L 3047 1625 
L 3713 1625 
L 3713 1100 
L 3047 1100 
L 3047 0 
L 2419 0 
L 2419 1100 
L 313 1100 
L 313 1709 
L 2253 4666 
z
" id="DejaVuSans-34" transform="scale(0.015625)"/>
      <path d="M 750 794 
L 1409 794 
L 1409 256 
L 897 -744 
L 494 -744 
L 750 256 
L 750 794 
z
" id="DejaVuSans-2c" transform="scale(0.015625)"/>
      <path d="M 1228 531 
L 3431 531 
L 3431 0 
L 469 0 
L 469 531 
Q 828 903 1448 1529 
Q 2069 2156 2228 2338 
Q 2531 2678 2651 2914 
Q 2772 3150 2772 3378 
Q 2772 3750 2511 3984 
Q 2250 4219 1831 4219 
Q 1534 4219 1204 4116 
Q 875 4013 500 3803 
L 500 4441 
Q 881 4594 1212 4672 
Q 1544 4750 1819 4750 
Q 2544 4750 2975 4387 
Q 3406 4025 3406 3419 
Q 3406 3131 3298 2873 
Q 3191 2616 2906 2266 
Q 2828 2175 2409 1742 
Q 1991 1309 1228 531 
z
" id="DejaVuSans-32" transform="scale(0.015625)"/>
      <path d="M 1259 4147 
L 1259 519 
L 2022 519 
Q 2988 519 3436 956 
Q 3884 1394 3884 2338 
Q 3884 3275 3436 3711 
Q 2988 4147 2022 4147 
L 1259 4147 
z
M 628 4666 
L 1925 4666 
Q 3281 4666 3915 4102 
Q 4550 3538 4550 2338 
Q 4550 1131 3912 565 
Q 3275 0 1925 0 
L 628 0 
L 628 4666 
z
" id="DejaVuSans-44" transform="scale(0.015625)"/>
     </defs>
     <use xlink:href="#DejaVuSans-66"/>
     <use x="35.205078" xlink:href="#DejaVuSans-31"/>
     <use x="98.828125" xlink:href="#DejaVuSans-30"/>
     <use x="162.451172" xlink:href="#DejaVuSans-2d"/>
     <use x="198.535156" xlink:href="#DejaVuSans-66"/>
     <use x="233.740234" xlink:href="#DejaVuSans-31"/>
     <use x="297.363281" xlink:href="#DejaVuSans-34"/>
     <use x="360.986328" xlink:href="#DejaVuSans-2c"/>
     <use x="392.773438" xlink:href="#DejaVuSans-32"/>
     <use x="456.396484" xlink:href="#DejaVuSans-30"/>
     <use x="520.019531" xlink:href="#DejaVuSans-2d"/>
     <use x="556.103516" xlink:href="#DejaVuSans-44"/>
    </g>
   </g>
   <g id="text_6">
    <!-- v2.6 -->
    <g style="fill:#808080;" transform="translate(232.765062 286.317512)scale(0.1 -0.1)">
     <defs>
      <path d="M 684 794 
L 1344 794 
L 1344 0 
L 684 0 
L 684 794 
z
" id="DejaVuSans-2e" transform="scale(0.015625)"/>
      <path d="M 2113 2584 
Q 1688 2584 1439 2293 
Q 1191 2003 1191 1497 
Q 1191 994 1439 701 
Q 1688 409 2113 409 
Q 2538 409 2786 701 
Q 3034 994 3034 1497 
Q 3034 2003 2786 2293 
Q 2538 2584 2113 2584 
z
M 3366 4563 
L 3366 3988 
Q 3128 4100 2886 4159 
Q 2644 4219 2406 4219 
Q 1781 4219 1451 3797 
Q 1122 3375 1075 2522 
Q 1259 2794 1537 2939 
Q 1816 3084 2150 3084 
Q 2853 3084 3261 2657 
Q 3669 2231 3669 1497 
Q 3669 778 3244 343 
Q 2819 -91 2113 -91 
Q 1303 -91 875 529 
Q 447 1150 447 2328 
Q 447 3434 972 4092 
Q 1497 4750 2381 4750 
Q 2619 4750 2861 4703 
Q 3103 4656 3366 4563 
z
" id="DejaVuSans-36" transform="scale(0.015625)"/>
     </defs>
     <use xlink:href="#DejaVuSans-76"/>
     <use x="59.179688" xlink:href="#DejaVuSans-32"/>
     <use x="122.802734" xlink:href="#DejaVuSans-2e"/>
     <use x="154.589844" xlink:href="#DejaVuSans-36"/>
    </g>
   </g>
   <g id="legend_1">
    <g id="patch_7">
     <path d="M 48.16 136.425 
L 177.381875 136.425 
Q 181.381875 136.425 181.381875 132.425 
L 181.381875 17 
Q 181.381875 13 177.381875 13 
L 48.16 13 
Q 44.16 13 44.16 17 
L 44.16 132.425 
Q 44.16 136.425 48.16 136.425 
z
" style="fill:#ffffff;opacity:0.2;stroke:#cccccc;stroke-linejoin:miter;"/>
    </g>
    <g id="line2d_57">
     <path d="M 52.16 29.196875 
L 92.16 29.196875 
" style="fill:none;stroke:#000000;stroke-linecap:square;stroke-width:3;"/>
    </g>
    <g id="line2d_58"/>
    <g id="text_7">
     <!-- 1: 3/5 -->
     <g transform="translate(108.16 36.196875)scale(0.2 -0.2)">
      <defs>
       <path d="M 750 794 
L 1409 794 
L 1409 0 
L 750 0 
L 750 794 
z
M 750 3309 
L 1409 3309 
L 1409 2516 
L 750 2516 
L 750 3309 
z
" id="DejaVuSans-3a" transform="scale(0.015625)"/>
       <path d="M 2597 2516 
Q 3050 2419 3304 2112 
Q 3559 1806 3559 1356 
Q 3559 666 3084 287 
Q 2609 -91 1734 -91 
Q 1441 -91 1130 -33 
Q 819 25 488 141 
L 488 750 
Q 750 597 1062 519 
Q 1375 441 1716 441 
Q 2309 441 2620 675 
Q 2931 909 2931 1356 
Q 2931 1769 2642 2001 
Q 2353 2234 1838 2234 
L 1294 2234 
L 1294 2753 
L 1863 2753 
Q 2328 2753 2575 2939 
Q 2822 3125 2822 3475 
Q 2822 3834 2567 4026 
Q 2313 4219 1838 4219 
Q 1578 4219 1281 4162 
Q 984 4106 628 3988 
L 628 4550 
Q 988 4650 1302 4700 
Q 1616 4750 1894 4750 
Q 2613 4750 3031 4423 
Q 3450 4097 3450 3541 
Q 3450 3153 3228 2886 
Q 3006 2619 2597 2516 
z
" id="DejaVuSans-33" transform="scale(0.015625)"/>
       <path d="M 1625 4666 
L 2156 4666 
L 531 -594 
L 0 -594 
L 1625 4666 
z
" id="DejaVuSans-2f" transform="scale(0.015625)"/>
       <path d="M 691 4666 
L 3169 4666 
L 3169 4134 
L 1269 4134 
L 1269 2991 
Q 1406 3038 1543 3061 
Q 1681 3084 1819 3084 
Q 2600 3084 3056 2656 
Q 3513 2228 3513 1497 
Q 3513 744 3044 326 
Q 2575 -91 1722 -91 
Q 1428 -91 1123 -41 
Q 819 9 494 109 
L 494 744 
Q 775 591 1075 516 
Q 1375 441 1709 441 
Q 2250 441 2565 725 
Q 2881 1009 2881 1497 
Q 2881 1984 2565 2268 
Q 2250 2553 1709 2553 
Q 1456 2553 1204 2497 
Q 953 2441 691 2322 
L 691 4666 
z
" id="DejaVuSans-35" transform="scale(0.015625)"/>
      </defs>
      <use xlink:href="#DejaVuSans-31"/>
      <use x="63.623047" xlink:href="#DejaVuSans-3a"/>
      <use x="97.314453" xlink:href="#DejaVuSans-20"/>
      <use x="129.101562" xlink:href="#DejaVuSans-33"/>
      <use x="192.724609" xlink:href="#DejaVuSans-2f"/>
      <use x="226.416016" xlink:href="#DejaVuSans-35"/>
     </g>
    </g>
    <g id="line2d_59">
     <path d="M 52.16 58.553125 
L 92.16 58.553125 
" style="fill:none;stroke:#00bfbf;stroke-linecap:square;stroke-width:3;"/>
    </g>
    <g id="line2d_60"/>
    <g id="text_8">
     <!-- -1: 3/5 -->
     <g transform="translate(108.16 65.553125)scale(0.2 -0.2)">
      <use xlink:href="#DejaVuSans-2d"/>
      <use x="36.083984" xlink:href="#DejaVuSans-31"/>
      <use x="99.707031" xlink:href="#DejaVuSans-3a"/>
      <use x="133.398438" xlink:href="#DejaVuSans-20"/>
      <use x="165.185547" xlink:href="#DejaVuSans-33"/>
      <use x="228.808594" xlink:href="#DejaVuSans-2f"/>
      <use x="262.5" xlink:href="#DejaVuSans-35"/>
     </g>
    </g>
    <g id="line2d_61">
     <path d="M 52.16 87.909375 
L 92.16 87.909375 
" style="fill:none;stroke:#bf00bf;stroke-linecap:square;stroke-width:3;"/>
    </g>
    <g id="line2d_62"/>
    <g id="text_9">
     <!-- -4: 0/5 -->
     <g transform="translate(108.16 94.909375)scale(0.2 -0.2)">
      <use xlink:href="#DejaVuSans-2d"/>
      <use x="36.083984" xlink:href="#DejaVuSans-34"/>
      <use x="99.707031" xlink:href="#DejaVuSans-3a"/>
      <use x="133.398438" xlink:href="#DejaVuSans-20"/>
      <use x="165.185547" xlink:href="#DejaVuSans-30"/>
      <use x="228.808594" xlink:href="#DejaVuSans-2f"/>
      <use x="262.5" xlink:href="#DejaVuSans-35"/>
     </g>
    </g>
    <g id="line2d_63">
     <path d="M 52.16 117.265625 
L 92.16 117.265625 
" style="fill:none;stroke:#ff0000;stroke-linecap:square;stroke-width:3;"/>
    </g>
    <g id="line2d_64"/>
    <g id="text_10">
     <!-- -8: 0/5 -->
     <g transform="translate(108.16 124.265625)scale(0.2 -0.2)">
      <defs>
       <path d="M 2034 2216 
Q 1584 2216 1326 1975 
Q 1069 1734 1069 1313 
Q 1069 891 1326 650 
Q 1584 409 2034 409 
Q 2484 409 2743 651 
Q 3003 894 3003 1313 
Q 3003 1734 2745 1975 
Q 2488 2216 2034 2216 
z
M 1403 2484 
Q 997 2584 770 2862 
Q 544 3141 544 3541 
Q 544 4100 942 4425 
Q 1341 4750 2034 4750 
Q 2731 4750 3128 4425 
Q 3525 4100 3525 3541 
Q 3525 3141 3298 2862 
Q 3072 2584 2669 2484 
Q 3125 2378 3379 2068 
Q 3634 1759 3634 1313 
Q 3634 634 3220 271 
Q 2806 -91 2034 -91 
Q 1263 -91 848 271 
Q 434 634 434 1313 
Q 434 1759 690 2068 
Q 947 2378 1403 2484 
z
M 1172 3481 
Q 1172 3119 1398 2916 
Q 1625 2713 2034 2713 
Q 2441 2713 2670 2916 
Q 2900 3119 2900 3481 
Q 2900 3844 2670 4047 
Q 2441 4250 2034 4250 
Q 1625 4250 1398 4047 
Q 1172 3844 1172 3481 
z
" id="DejaVuSans-38" transform="scale(0.015625)"/>
      </defs>
      <use xlink:href="#DejaVuSans-2d"/>
      <use x="36.083984" xlink:href="#DejaVuSans-38"/>
      <use x="99.707031" xlink:href="#DejaVuSans-3a"/>
      <use x="133.398438" xlink:href="#DejaVuSans-20"/>
      <use x="165.185547" xlink:href="#DejaVuSans-30"/>
      <use x="228.808594" xlink:href="#DejaVuSans-2f"/>
      <use x="262.5" xlink:href="#DejaVuSans-35"/>
     </g>
    </g>
   </g>
  </g>
 </g>
 <defs>
  <clipPath id="p1d2f85f15c">
   <rect height="288.28" width="419.032" x="34.16" y="3"/>
  </clipPath>
 </defs>
</svg>
