<?xml version="1.0" encoding="utf-8" standalone="no"?>
<!DOCTYPE svg PUBLIC "-//W3C//DTD SVG 1.1//EN"
  "http://www.w3.org/Graphics/SVG/1.1/DTD/svg11.dtd">
<svg height="345.6pt" version="1.1" viewBox="0 0 460.8 345.6" width="460.8pt" xmlns="http://www.w3.org/2000/svg" xmlns:xlink="http://www.w3.org/1999/xlink">
 <metadata>
  <rdf:RDF xmlns:cc="http://creativecommons.org/ns#" xmlns:dc="http://purl.org/dc/elements/1.1/" xmlns:rdf="http://www.w3.org/1999/02/22-rdf-syntax-ns#">
   <cc:Work>
    <dc:type rdf:resource="http://purl.org/dc/dcmitype/StillImage"/>
    <dc:date>2022-05-07T15:07:18.019380</dc:date>
    <dc:format>image/svg+xml</dc:format>
    <dc:creator>
     <cc:Agent>
      <dc:title>Matplotlib v3.4.3, https://matplotlib.org/</dc:title>
     </cc:Agent>
    </dc:creator>
   </cc:Work>
  </rdf:RDF>
 </metadata>
 <defs>
  <style type="text/css">*{stroke-linecap:butt;stroke-linejoin:round;}</style>
 </defs>
 <g id="figure_1">
  <g id="patch_1">
   <path d="M 0 345.6 
L 460.8 345.6 
L 460.8 0 
L 0 0 
z
" style="fill:#ffffff;"/>
  </g>
  <g id="axes_1">
   <g id="patch_2">
    <path d="M 57.6 298.944 
L 360.8064 298.944 
L 360.8064 6.912 
L 57.6 6.912 
z
" style="fill:#ffffff;"/>
   </g>
   <g id="line2d_1">
    <path d="M 44.560826 298.944 
L 44.560826 292.072659 
L 57.6 292.072659 
L 57.6 289.782212 
L 70.639174 289.782212 
L 70.639174 287.491765 
L 74.836851 287.491765 
L 74.836851 286.346541 
L 81.166416 286.346541 
L 81.166416 285.201318 
L 85.894031 285.201318 
L 85.894031 284.056094 
L 89.668958 284.056094 
L 89.668958 280.620424 
L 91.305777 280.620424 
L 91.305777 279.4752 
L 94.205591 279.4752 
L 94.205591 276.039529 
L 95.503454 276.039529 
L 95.503454 271.458635 
L 96.717523 271.458635 
L 96.717523 270.313412 
L 98.933205 270.313412 
L 98.933205 266.877741 
L 99.950294 266.877741 
L 99.950294 264.587294 
L 100.9152 264.587294 
L 100.9152 262.296847 
L 101.833019 262.296847 
L 101.833019 260.0064 
L 102.708132 260.0064 
L 102.708132 258.861176 
L 103.544339 258.861176 
L 103.544339 256.570729 
L 104.344952 256.570729 
L 104.344952 253.135059 
L 105.850679 253.135059 
L 105.850679 251.989835 
L 106.560633 251.989835 
L 106.560633 250.844612 
L 107.244765 250.844612 
L 107.244765 249.699388 
L 108.542628 249.699388 
L 108.542628 248.554165 
L 109.159456 248.554165 
L 109.159456 245.118494 
L 109.756698 245.118494 
L 109.756698 243.973271 
L 110.335561 243.973271 
L 110.335561 241.682824 
L 111.442442 241.682824 
L 111.442442 237.101929 
L 112.487797 237.101929 
L 112.487797 235.956706 
L 112.989468 235.956706 
L 112.989468 231.375812 
L 113.478107 231.375812 
L 113.478107 230.230588 
L 113.954374 230.230588 
L 113.954374 225.649694 
L 114.872193 225.649694 
L 114.872193 219.923576 
L 115.314838 219.923576 
L 115.314838 218.778353 
L 115.747307 218.778353 
L 115.747307 217.633129 
L 116.170056 217.633129 
L 116.170056 215.342682 
L 116.583514 215.342682 
L 116.583514 208.471341 
L 117.384126 208.471341 
L 117.384126 206.180894 
L 117.772007 206.180894 
L 117.772007 203.890447 
L 118.152051 203.890447 
L 118.152051 200.454776 
L 118.524569 200.454776 
L 118.524569 195.873882 
L 119.24818 195.873882 
L 119.24818 193.583435 
L 119.599808 193.583435 
L 119.599808 191.292988 
L 119.944983 191.292988 
L 119.944983 189.002541 
L 120.28394 189.002541 
L 120.28394 184.421647 
L 120.616896 184.421647 
L 120.616896 183.276424 
L 120.944062 183.276424 
L 120.944062 180.985976 
L 121.265635 180.985976 
L 121.265635 178.695529 
L 121.581803 178.695529 
L 121.581803 176.405082 
L 121.892744 176.405082 
L 121.892744 175.259859 
L 122.19863 175.259859 
L 122.19863 169.533741 
L 122.499621 169.533741 
L 122.499621 168.388518 
L 122.795872 168.388518 
L 122.795872 164.952847 
L 123.08753 164.952847 
L 123.08753 161.517176 
L 123.374735 161.517176 
L 123.374735 160.371953 
L 123.657621 160.371953 
L 123.657621 154.645835 
L 123.936316 154.645835 
L 123.936316 151.210165 
L 124.210942 151.210165 
L 124.210942 150.064941 
L 124.481616 150.064941 
L 124.481616 146.629271 
L 124.748451 146.629271 
L 124.748451 145.484047 
L 125.011554 145.484047 
L 125.011554 144.338824 
L 125.271028 144.338824 
L 125.271028 142.048376 
L 125.526971 142.048376 
L 125.526971 138.612706 
L 125.779479 138.612706 
L 125.779479 135.177035 
L 126.028642 135.177035 
L 126.028642 131.741365 
L 126.274549 131.741365 
L 126.274549 130.596141 
L 126.517282 130.596141 
L 126.517282 128.305694 
L 126.756923 128.305694 
L 126.756923 124.870024 
L 126.993549 124.870024 
L 126.993549 122.579576 
L 127.227236 122.579576 
L 127.227236 115.708235 
L 127.458055 115.708235 
L 127.458055 114.563012 
L 127.686077 114.563012 
L 127.686077 112.272565 
L 127.911368 112.272565 
L 127.911368 108.836894 
L 128.133992 108.836894 
L 128.133992 107.691671 
L 128.354013 107.691671 
L 128.354013 105.401224 
L 128.57149 105.401224 
L 128.57149 101.965553 
L 128.786481 101.965553 
L 128.786481 98.529882 
L 128.999044 98.529882 
L 128.999044 96.239435 
L 129.209231 96.239435 
L 129.209231 92.803765 
L 129.417095 92.803765 
L 129.417095 88.222871 
L 129.622688 88.222871 
L 129.622688 87.077647 
L 129.826058 87.077647 
L 129.826058 83.641976 
L 130.027253 83.641976 
L 130.027253 81.351529 
L 130.226319 81.351529 
L 130.226319 79.061082 
L 130.4233 79.061082 
L 130.4233 74.480188 
L 130.618241 74.480188 
L 130.618241 72.189741 
L 130.811181 72.189741 
L 130.811181 68.754071 
L 131.002163 68.754071 
L 131.002163 64.173176 
L 131.191226 64.173176 
L 131.191226 60.737506 
L 131.378407 60.737506 
L 131.378407 56.156612 
L 131.563744 56.156612 
L 131.563744 52.720941 
L 131.929028 52.720941 
L 131.929028 50.430494 
L 132.109044 50.430494 
L 132.109044 48.140047 
L 132.638982 48.140047 
L 132.638982 45.8496 
L 133.323114 45.8496 
L 133.323114 43.559153 
L 133.656071 43.559153 
L 133.656071 42.413929 
L 133.983236 42.413929 
L 133.983236 40.123482 
L 134.304809 40.123482 
L 134.304809 38.978259 
L 134.620977 38.978259 
L 134.620977 37.833035 
L 134.931919 37.833035 
L 134.931919 36.687812 
L 135.237805 36.687812 
L 135.237805 35.542588 
L 135.388902 35.542588 
L 135.388902 34.397365 
L 135.687504 34.397365 
L 135.687504 33.252141 
L 135.835047 33.252141 
L 135.835047 32.106918 
L 136.126705 32.106918 
L 136.126705 30.961694 
L 136.413909 30.961694 
L 136.413909 29.816471 
L 136.555884 29.816471 
L 136.555884 28.671247 
L 136.836659 28.671247 
L 136.836659 27.526024 
L 137.787626 27.526024 
L 137.787626 26.3808 
L 138.566146 26.3808 
L 138.566146 25.235576 
L 139.191172 25.235576 
L 139.191172 24.090353 
L 139.556456 24.090353 
L 139.556456 22.945129 
L 140.032723 22.945129 
L 140.032723 21.799906 
L 140.611586 21.799906 
L 140.611586 20.654682 
L 141.173167 20.654682 
L 141.173167 19.509459 
L 141.718467 19.509459 
L 141.718467 18.364235 
L 142.248405 18.364235 
L 142.248405 17.219012 
L 142.661862 17.219012 
L 142.661862 16.073788 
L 142.966099 16.073788 
L 142.966099 14.928565 
L 143.364242 14.928565 
L 143.364242 13.783341 
L 143.754133 13.783341 
L 143.754133 12.638118 
L 144.2304 12.638118 
L 144.2304 11.492894 
L 144.417581 11.492894 
L 144.417581 10.347671 
L 144.602918 10.347671 
L 144.602918 9.202447 
L 144.968202 9.202447 
L 144.968202 8.057224 
L 145.237585 8.057224 
L 145.237585 6.912 
L 360.8064 6.912 
L 360.8064 6.912 
" style="fill:none;stroke:#f5deb3;stroke-linecap:square;stroke-width:4;"/>
   </g>
   <g id="line2d_2">
    <defs>
     <path d="M -0 7.778175 
L 7.778175 0 
L 0 -7.778175 
L -7.778175 -0 
z
" id="m26e6a090b2" style="stroke:#f5deb3;stroke-linejoin:miter;stroke-width:1.5;"/>
    </defs>
    <g>
     <use style="fill:#f5deb3;stroke:#f5deb3;stroke-linejoin:miter;stroke-width:1.5;" x="100.9152" xlink:href="#m26e6a090b2" y="262.296847"/>
     <use style="fill:#f5deb3;stroke:#f5deb3;stroke-linejoin:miter;stroke-width:1.5;" x="125.526971" xlink:href="#m26e6a090b2" y="138.612706"/>
     <use style="fill:#f5deb3;stroke:#f5deb3;stroke-linejoin:miter;stroke-width:1.5;" x="143.364242" xlink:href="#m26e6a090b2" y="13.783341"/>
     <use style="fill:#f5deb3;stroke:#f5deb3;stroke-linejoin:miter;stroke-width:1.5;" x="145.237585" xlink:href="#m26e6a090b2" y="6.912"/>
     <use style="fill:#f5deb3;stroke:#f5deb3;stroke-linejoin:miter;stroke-width:1.5;" x="145.237585" xlink:href="#m26e6a090b2" y="6.912"/>
     <use style="fill:#f5deb3;stroke:#f5deb3;stroke-linejoin:miter;stroke-width:1.5;" x="360.8064" xlink:href="#m26e6a090b2" y="6.912"/>
    </g>
   </g>
   <g id="line2d_3">
    <path style="fill:none;stroke:#f5deb3;stroke-linecap:square;stroke-width:4;"/>
    <g/>
   </g>
   <g id="line2d_4">
    <path d="M 360.8064 6.912 
L 380.514816 12.75264 
" style="fill:none;stroke:#f5deb3;stroke-linecap:square;stroke-width:4;"/>
    <g>
     <use style="fill:#f5deb3;stroke:#f5deb3;stroke-linejoin:miter;stroke-width:1.5;" x="360.8064" xlink:href="#m26e6a090b2" y="6.912"/>
     <use style="fill:#f5deb3;stroke:#f5deb3;stroke-linejoin:miter;stroke-width:1.5;" x="380.514816" xlink:href="#m26e6a090b2" y="12.75264"/>
    </g>
   </g>
   <g id="matplotlib.axis_1">
    <g id="xtick_1">
     <g id="line2d_5">
      <path clip-path="url(#pef79c59170)" d="M 57.6 298.944 
L 57.6 6.912 
" style="fill:none;stroke:#b0b0b0;stroke-linecap:square;stroke-width:0.8;"/>
     </g>
     <g id="line2d_6">
      <defs>
       <path d="M 0 0 
L 0 3.5 
" id="mcd12608da8" style="stroke:#000000;stroke-width:0.8;"/>
      </defs>
      <g>
       <use style="stroke:#000000;stroke-width:0.8;" x="57.6" xlink:href="#mcd12608da8" y="298.944"/>
      </g>
     </g>
     <g id="text_1">
      <!-- 0 -->
      <g transform="translate(52.191875 318.861344)scale(0.17 -0.17)">
       <defs>
        <path d="M 2034 4250 
Q 1547 4250 1301 3770 
Q 1056 3291 1056 2328 
Q 1056 1369 1301 889 
Q 1547 409 2034 409 
Q 2525 409 2770 889 
Q 3016 1369 3016 2328 
Q 3016 3291 2770 3770 
Q 2525 4250 2034 4250 
z
M 2034 4750 
Q 2819 4750 3233 4129 
Q 3647 3509 3647 2328 
Q 3647 1150 3233 529 
Q 2819 -91 2034 -91 
Q 1250 -91 836 529 
Q 422 1150 422 2328 
Q 422 3509 836 4129 
Q 1250 4750 2034 4750 
z
" id="DejaVuSans-30" transform="scale(0.015625)"/>
       </defs>
       <use xlink:href="#DejaVuSans-30"/>
      </g>
     </g>
    </g>
    <g id="xtick_2">
     <g id="line2d_7">
      <path clip-path="url(#pef79c59170)" d="M 144.2304 298.944 
L 144.2304 6.912 
" style="fill:none;stroke:#b0b0b0;stroke-linecap:square;stroke-width:0.8;"/>
     </g>
     <g id="line2d_8">
      <g>
       <use style="stroke:#000000;stroke-width:0.8;" x="144.2304" xlink:href="#mcd12608da8" y="298.944"/>
      </g>
     </g>
     <g id="text_2">
      <!-- 2 -->
      <g transform="translate(138.822275 318.861344)scale(0.17 -0.17)">
       <defs>
        <path d="M 1228 531 
L 3431 531 
L 3431 0 
L 469 0 
L 469 531 
Q 828 903 1448 1529 
Q 2069 2156 2228 2338 
Q 2531 2678 2651 2914 
Q 2772 3150 2772 3378 
Q 2772 3750 2511 3984 
Q 2250 4219 1831 4219 
Q 1534 4219 1204 4116 
Q 875 4013 500 3803 
L 500 4441 
Q 881 4594 1212 4672 
Q 1544 4750 1819 4750 
Q 2544 4750 2975 4387 
Q 3406 4025 3406 3419 
Q 3406 3131 3298 2873 
Q 3191 2616 2906 2266 
Q 2828 2175 2409 1742 
Q 1991 1309 1228 531 
z
" id="DejaVuSans-32" transform="scale(0.015625)"/>
       </defs>
       <use xlink:href="#DejaVuSans-32"/>
      </g>
     </g>
    </g>
    <g id="xtick_3">
     <g id="line2d_9">
      <path clip-path="url(#pef79c59170)" d="M 230.8608 298.944 
L 230.8608 6.912 
" style="fill:none;stroke:#b0b0b0;stroke-linecap:square;stroke-width:0.8;"/>
     </g>
     <g id="line2d_10">
      <g>
       <use style="stroke:#000000;stroke-width:0.8;" x="230.8608" xlink:href="#mcd12608da8" y="298.944"/>
      </g>
     </g>
     <g id="text_3">
      <!-- 4 -->
      <g transform="translate(225.452675 318.861344)scale(0.17 -0.17)">
       <defs>
        <path d="M 2419 4116 
L 825 1625 
L 2419 1625 
L 2419 4116 
z
M 2253 4666 
L 3047 4666 
L 3047 1625 
L 3713 1625 
L 3713 1100 
L 3047 1100 
L 3047 0 
L 2419 0 
L 2419 1100 
L 313 1100 
L 313 1709 
L 2253 4666 
z
" id="DejaVuSans-34" transform="scale(0.015625)"/>
       </defs>
       <use xlink:href="#DejaVuSans-34"/>
      </g>
     </g>
    </g>
    <g id="xtick_4">
     <g id="line2d_11">
      <path clip-path="url(#pef79c59170)" d="M 317.4912 298.944 
L 317.4912 6.912 
" style="fill:none;stroke:#b0b0b0;stroke-linecap:square;stroke-width:0.8;"/>
     </g>
     <g id="line2d_12">
      <g>
       <use style="stroke:#000000;stroke-width:0.8;" x="317.4912" xlink:href="#mcd12608da8" y="298.944"/>
      </g>
     </g>
     <g id="text_4">
      <!-- 6 -->
      <g transform="translate(312.083075 318.861344)scale(0.17 -0.17)">
       <defs>
        <path d="M 2113 2584 
Q 1688 2584 1439 2293 
Q 1191 2003 1191 1497 
Q 1191 994 1439 701 
Q 1688 409 2113 409 
Q 2538 409 2786 701 
Q 3034 994 3034 1497 
Q 3034 2003 2786 2293 
Q 2538 2584 2113 2584 
z
M 3366 4563 
L 3366 3988 
Q 3128 4100 2886 4159 
Q 2644 4219 2406 4219 
Q 1781 4219 1451 3797 
Q 1122 3375 1075 2522 
Q 1259 2794 1537 2939 
Q 1816 3084 2150 3084 
Q 2853 3084 3261 2657 
Q 3669 2231 3669 1497 
Q 3669 778 3244 343 
Q 2819 -91 2113 -91 
Q 1303 -91 875 529 
Q 447 1150 447 2328 
Q 447 3434 972 4092 
Q 1497 4750 2381 4750 
Q 2619 4750 2861 4703 
Q 3103 4656 3366 4563 
z
" id="DejaVuSans-36" transform="scale(0.015625)"/>
       </defs>
       <use xlink:href="#DejaVuSans-36"/>
      </g>
     </g>
    </g>
    <g id="xtick_5">
     <g id="line2d_13">
      <path clip-path="url(#pef79c59170)" d="M 100.9152 298.944 
L 100.9152 6.912 
" style="fill:none;stroke:#b0b0b0;stroke-linecap:square;stroke-width:0.8;"/>
     </g>
     <g id="line2d_14">
      <defs>
       <path d="M 0 0 
L 0 2 
" id="m1e3f965acf" style="stroke:#000000;stroke-width:0.6;"/>
      </defs>
      <g>
       <use style="stroke:#000000;stroke-width:0.6;" x="100.9152" xlink:href="#m1e3f965acf" y="298.944"/>
      </g>
     </g>
    </g>
    <g id="xtick_6">
     <g id="line2d_15">
      <path clip-path="url(#pef79c59170)" d="M 187.5456 298.944 
L 187.5456 6.912 
" style="fill:none;stroke:#b0b0b0;stroke-linecap:square;stroke-width:0.8;"/>
     </g>
     <g id="line2d_16">
      <g>
       <use style="stroke:#000000;stroke-width:0.6;" x="187.5456" xlink:href="#m1e3f965acf" y="298.944"/>
      </g>
     </g>
    </g>
    <g id="xtick_7">
     <g id="line2d_17">
      <path clip-path="url(#pef79c59170)" d="M 274.176 298.944 
L 274.176 6.912 
" style="fill:none;stroke:#b0b0b0;stroke-linecap:square;stroke-width:0.8;"/>
     </g>
     <g id="line2d_18">
      <g>
       <use style="stroke:#000000;stroke-width:0.6;" x="274.176" xlink:href="#m1e3f965acf" y="298.944"/>
      </g>
     </g>
    </g>
    <g id="xtick_8">
     <g id="line2d_19">
      <path clip-path="url(#pef79c59170)" d="M 360.8064 298.944 
L 360.8064 6.912 
" style="fill:none;stroke:#b0b0b0;stroke-linecap:square;stroke-width:0.8;"/>
     </g>
     <g id="line2d_20">
      <g>
       <use style="stroke:#000000;stroke-width:0.6;" x="360.8064" xlink:href="#m1e3f965acf" y="298.944"/>
      </g>
     </g>
    </g>
    <g id="text_5">
     <!-- log10(# f-evals / dimension) -->
     <g transform="translate(88.823278 339.314156)scale(0.17 -0.17)">
      <defs>
       <path d="M 603 4863 
L 1178 4863 
L 1178 0 
L 603 0 
L 603 4863 
z
" id="DejaVuSans-6c" transform="scale(0.015625)"/>
       <path d="M 1959 3097 
Q 1497 3097 1228 2736 
Q 959 2375 959 1747 
Q 959 1119 1226 758 
Q 1494 397 1959 397 
Q 2419 397 2687 759 
Q 2956 1122 2956 1747 
Q 2956 2369 2687 2733 
Q 2419 3097 1959 3097 
z
M 1959 3584 
Q 2709 3584 3137 3096 
Q 3566 2609 3566 1747 
Q 3566 888 3137 398 
Q 2709 -91 1959 -91 
Q 1206 -91 779 398 
Q 353 888 353 1747 
Q 353 2609 779 3096 
Q 1206 3584 1959 3584 
z
" id="DejaVuSans-6f" transform="scale(0.015625)"/>
       <path d="M 2906 1791 
Q 2906 2416 2648 2759 
Q 2391 3103 1925 3103 
Q 1463 3103 1205 2759 
Q 947 2416 947 1791 
Q 947 1169 1205 825 
Q 1463 481 1925 481 
Q 2391 481 2648 825 
Q 2906 1169 2906 1791 
z
M 3481 434 
Q 3481 -459 3084 -895 
Q 2688 -1331 1869 -1331 
Q 1566 -1331 1297 -1286 
Q 1028 -1241 775 -1147 
L 775 -588 
Q 1028 -725 1275 -790 
Q 1522 -856 1778 -856 
Q 2344 -856 2625 -561 
Q 2906 -266 2906 331 
L 2906 616 
Q 2728 306 2450 153 
Q 2172 0 1784 0 
Q 1141 0 747 490 
Q 353 981 353 1791 
Q 353 2603 747 3093 
Q 1141 3584 1784 3584 
Q 2172 3584 2450 3431 
Q 2728 3278 2906 2969 
L 2906 3500 
L 3481 3500 
L 3481 434 
z
" id="DejaVuSans-67" transform="scale(0.015625)"/>
       <path d="M 794 531 
L 1825 531 
L 1825 4091 
L 703 3866 
L 703 4441 
L 1819 4666 
L 2450 4666 
L 2450 531 
L 3481 531 
L 3481 0 
L 794 0 
L 794 531 
z
" id="DejaVuSans-31" transform="scale(0.015625)"/>
       <path d="M 1984 4856 
Q 1566 4138 1362 3434 
Q 1159 2731 1159 2009 
Q 1159 1288 1364 580 
Q 1569 -128 1984 -844 
L 1484 -844 
Q 1016 -109 783 600 
Q 550 1309 550 2009 
Q 550 2706 781 3412 
Q 1013 4119 1484 4856 
L 1984 4856 
z
" id="DejaVuSans-28" transform="scale(0.015625)"/>
       <path d="M 3272 2816 
L 2363 2816 
L 2100 1772 
L 3016 1772 
L 3272 2816 
z
M 2803 4594 
L 2478 3297 
L 3391 3297 
L 3719 4594 
L 4219 4594 
L 3897 3297 
L 4872 3297 
L 4872 2816 
L 3775 2816 
L 3519 1772 
L 4513 1772 
L 4513 1294 
L 3397 1294 
L 3072 0 
L 2572 0 
L 2894 1294 
L 1978 1294 
L 1656 0 
L 1153 0 
L 1478 1294 
L 494 1294 
L 494 1772 
L 1594 1772 
L 1856 2816 
L 850 2816 
L 850 3297 
L 1978 3297 
L 2297 4594 
L 2803 4594 
z
" id="DejaVuSans-23" transform="scale(0.015625)"/>
       <path id="DejaVuSans-20" transform="scale(0.015625)"/>
       <path d="M 2375 4863 
L 2375 4384 
L 1825 4384 
Q 1516 4384 1395 4259 
Q 1275 4134 1275 3809 
L 1275 3500 
L 2222 3500 
L 2222 3053 
L 1275 3053 
L 1275 0 
L 697 0 
L 697 3053 
L 147 3053 
L 147 3500 
L 697 3500 
L 697 3744 
Q 697 4328 969 4595 
Q 1241 4863 1831 4863 
L 2375 4863 
z
" id="DejaVuSans-66" transform="scale(0.015625)"/>
       <path d="M 313 2009 
L 1997 2009 
L 1997 1497 
L 313 1497 
L 313 2009 
z
" id="DejaVuSans-2d" transform="scale(0.015625)"/>
       <path d="M 3597 1894 
L 3597 1613 
L 953 1613 
Q 991 1019 1311 708 
Q 1631 397 2203 397 
Q 2534 397 2845 478 
Q 3156 559 3463 722 
L 3463 178 
Q 3153 47 2828 -22 
Q 2503 -91 2169 -91 
Q 1331 -91 842 396 
Q 353 884 353 1716 
Q 353 2575 817 3079 
Q 1281 3584 2069 3584 
Q 2775 3584 3186 3129 
Q 3597 2675 3597 1894 
z
M 3022 2063 
Q 3016 2534 2758 2815 
Q 2500 3097 2075 3097 
Q 1594 3097 1305 2825 
Q 1016 2553 972 2059 
L 3022 2063 
z
" id="DejaVuSans-65" transform="scale(0.015625)"/>
       <path d="M 191 3500 
L 800 3500 
L 1894 563 
L 2988 3500 
L 3597 3500 
L 2284 0 
L 1503 0 
L 191 3500 
z
" id="DejaVuSans-76" transform="scale(0.015625)"/>
       <path d="M 2194 1759 
Q 1497 1759 1228 1600 
Q 959 1441 959 1056 
Q 959 750 1161 570 
Q 1363 391 1709 391 
Q 2188 391 2477 730 
Q 2766 1069 2766 1631 
L 2766 1759 
L 2194 1759 
z
M 3341 1997 
L 3341 0 
L 2766 0 
L 2766 531 
Q 2569 213 2275 61 
Q 1981 -91 1556 -91 
Q 1019 -91 701 211 
Q 384 513 384 1019 
Q 384 1609 779 1909 
Q 1175 2209 1959 2209 
L 2766 2209 
L 2766 2266 
Q 2766 2663 2505 2880 
Q 2244 3097 1772 3097 
Q 1472 3097 1187 3025 
Q 903 2953 641 2809 
L 641 3341 
Q 956 3463 1253 3523 
Q 1550 3584 1831 3584 
Q 2591 3584 2966 3190 
Q 3341 2797 3341 1997 
z
" id="DejaVuSans-61" transform="scale(0.015625)"/>
       <path d="M 2834 3397 
L 2834 2853 
Q 2591 2978 2328 3040 
Q 2066 3103 1784 3103 
Q 1356 3103 1142 2972 
Q 928 2841 928 2578 
Q 928 2378 1081 2264 
Q 1234 2150 1697 2047 
L 1894 2003 
Q 2506 1872 2764 1633 
Q 3022 1394 3022 966 
Q 3022 478 2636 193 
Q 2250 -91 1575 -91 
Q 1294 -91 989 -36 
Q 684 19 347 128 
L 347 722 
Q 666 556 975 473 
Q 1284 391 1588 391 
Q 1994 391 2212 530 
Q 2431 669 2431 922 
Q 2431 1156 2273 1281 
Q 2116 1406 1581 1522 
L 1381 1569 
Q 847 1681 609 1914 
Q 372 2147 372 2553 
Q 372 3047 722 3315 
Q 1072 3584 1716 3584 
Q 2034 3584 2315 3537 
Q 2597 3491 2834 3397 
z
" id="DejaVuSans-73" transform="scale(0.015625)"/>
       <path d="M 1625 4666 
L 2156 4666 
L 531 -594 
L 0 -594 
L 1625 4666 
z
" id="DejaVuSans-2f" transform="scale(0.015625)"/>
       <path d="M 2906 2969 
L 2906 4863 
L 3481 4863 
L 3481 0 
L 2906 0 
L 2906 525 
Q 2725 213 2448 61 
Q 2172 -91 1784 -91 
Q 1150 -91 751 415 
Q 353 922 353 1747 
Q 353 2572 751 3078 
Q 1150 3584 1784 3584 
Q 2172 3584 2448 3432 
Q 2725 3281 2906 2969 
z
M 947 1747 
Q 947 1113 1208 752 
Q 1469 391 1925 391 
Q 2381 391 2643 752 
Q 2906 1113 2906 1747 
Q 2906 2381 2643 2742 
Q 2381 3103 1925 3103 
Q 1469 3103 1208 2742 
Q 947 2381 947 1747 
z
" id="DejaVuSans-64" transform="scale(0.015625)"/>
       <path d="M 603 3500 
L 1178 3500 
L 1178 0 
L 603 0 
L 603 3500 
z
M 603 4863 
L 1178 4863 
L 1178 4134 
L 603 4134 
L 603 4863 
z
" id="DejaVuSans-69" transform="scale(0.015625)"/>
       <path d="M 3328 2828 
Q 3544 3216 3844 3400 
Q 4144 3584 4550 3584 
Q 5097 3584 5394 3201 
Q 5691 2819 5691 2113 
L 5691 0 
L 5113 0 
L 5113 2094 
Q 5113 2597 4934 2840 
Q 4756 3084 4391 3084 
Q 3944 3084 3684 2787 
Q 3425 2491 3425 1978 
L 3425 0 
L 2847 0 
L 2847 2094 
Q 2847 2600 2669 2842 
Q 2491 3084 2119 3084 
Q 1678 3084 1418 2786 
Q 1159 2488 1159 1978 
L 1159 0 
L 581 0 
L 581 3500 
L 1159 3500 
L 1159 2956 
Q 1356 3278 1631 3431 
Q 1906 3584 2284 3584 
Q 2666 3584 2933 3390 
Q 3200 3197 3328 2828 
z
" id="DejaVuSans-6d" transform="scale(0.015625)"/>
       <path d="M 3513 2113 
L 3513 0 
L 2938 0 
L 2938 2094 
Q 2938 2591 2744 2837 
Q 2550 3084 2163 3084 
Q 1697 3084 1428 2787 
Q 1159 2491 1159 1978 
L 1159 0 
L 581 0 
L 581 3500 
L 1159 3500 
L 1159 2956 
Q 1366 3272 1645 3428 
Q 1925 3584 2291 3584 
Q 2894 3584 3203 3211 
Q 3513 2838 3513 2113 
z
" id="DejaVuSans-6e" transform="scale(0.015625)"/>
       <path d="M 513 4856 
L 1013 4856 
Q 1481 4119 1714 3412 
Q 1947 2706 1947 2009 
Q 1947 1309 1714 600 
Q 1481 -109 1013 -844 
L 513 -844 
Q 928 -128 1133 580 
Q 1338 1288 1338 2009 
Q 1338 2731 1133 3434 
Q 928 4138 513 4856 
z
" id="DejaVuSans-29" transform="scale(0.015625)"/>
      </defs>
      <use xlink:href="#DejaVuSans-6c"/>
      <use x="27.783203" xlink:href="#DejaVuSans-6f"/>
      <use x="88.964844" xlink:href="#DejaVuSans-67"/>
      <use x="152.441406" xlink:href="#DejaVuSans-31"/>
      <use x="216.064453" xlink:href="#DejaVuSans-30"/>
      <use x="279.6875" xlink:href="#DejaVuSans-28"/>
      <use x="318.701172" xlink:href="#DejaVuSans-23"/>
      <use x="402.490234" xlink:href="#DejaVuSans-20"/>
      <use x="434.277344" xlink:href="#DejaVuSans-66"/>
      <use x="463.982422" xlink:href="#DejaVuSans-2d"/>
      <use x="500.066406" xlink:href="#DejaVuSans-65"/>
      <use x="561.589844" xlink:href="#DejaVuSans-76"/>
      <use x="620.769531" xlink:href="#DejaVuSans-61"/>
      <use x="682.048828" xlink:href="#DejaVuSans-6c"/>
      <use x="709.832031" xlink:href="#DejaVuSans-73"/>
      <use x="761.931641" xlink:href="#DejaVuSans-20"/>
      <use x="793.71875" xlink:href="#DejaVuSans-2f"/>
      <use x="827.410156" xlink:href="#DejaVuSans-20"/>
      <use x="859.197266" xlink:href="#DejaVuSans-64"/>
      <use x="922.673828" xlink:href="#DejaVuSans-69"/>
      <use x="950.457031" xlink:href="#DejaVuSans-6d"/>
      <use x="1047.869141" xlink:href="#DejaVuSans-65"/>
      <use x="1109.392578" xlink:href="#DejaVuSans-6e"/>
      <use x="1172.771484" xlink:href="#DejaVuSans-73"/>
      <use x="1224.871094" xlink:href="#DejaVuSans-69"/>
      <use x="1252.654297" xlink:href="#DejaVuSans-6f"/>
      <use x="1313.835938" xlink:href="#DejaVuSans-6e"/>
      <use x="1377.214844" xlink:href="#DejaVuSans-29"/>
     </g>
    </g>
   </g>
   <g id="matplotlib.axis_2">
    <g id="ytick_1">
     <g id="line2d_21">
      <path clip-path="url(#pef79c59170)" d="M 57.6 298.944 
L 360.8064 298.944 
" style="fill:none;stroke:#b0b0b0;stroke-linecap:square;stroke-width:0.8;"/>
     </g>
     <g id="line2d_22">
      <defs>
       <path d="M 0 0 
L -3.5 0 
" id="m1ee175f33e" style="stroke:#000000;stroke-width:0.8;"/>
      </defs>
      <g>
       <use style="stroke:#000000;stroke-width:0.8;" x="57.6" xlink:href="#m1ee175f33e" y="298.944"/>
      </g>
     </g>
     <g id="text_6">
      <!-- 0.0 -->
      <g transform="translate(25.155 305.02275)scale(0.16 -0.16)">
       <defs>
        <path d="M 684 794 
L 1344 794 
L 1344 0 
L 684 0 
L 684 794 
z
" id="DejaVuSans-2e" transform="scale(0.015625)"/>
       </defs>
       <use xlink:href="#DejaVuSans-30"/>
       <use x="63.623047" xlink:href="#DejaVuSans-2e"/>
       <use x="95.410156" xlink:href="#DejaVuSans-30"/>
      </g>
     </g>
    </g>
    <g id="ytick_2">
     <g id="line2d_23">
      <path clip-path="url(#pef79c59170)" d="M 57.6 240.5376 
L 360.8064 240.5376 
" style="fill:none;stroke:#b0b0b0;stroke-linecap:square;stroke-width:0.8;"/>
     </g>
     <g id="line2d_24">
      <g>
       <use style="stroke:#000000;stroke-width:0.8;" x="57.6" xlink:href="#m1ee175f33e" y="240.5376"/>
      </g>
     </g>
     <g id="text_7">
      <!-- 0.2 -->
      <g transform="translate(25.155 246.61635)scale(0.16 -0.16)">
       <use xlink:href="#DejaVuSans-30"/>
       <use x="63.623047" xlink:href="#DejaVuSans-2e"/>
       <use x="95.410156" xlink:href="#DejaVuSans-32"/>
      </g>
     </g>
    </g>
    <g id="ytick_3">
     <g id="line2d_25">
      <path clip-path="url(#pef79c59170)" d="M 57.6 182.1312 
L 360.8064 182.1312 
" style="fill:none;stroke:#b0b0b0;stroke-linecap:square;stroke-width:0.8;"/>
     </g>
     <g id="line2d_26">
      <g>
       <use style="stroke:#000000;stroke-width:0.8;" x="57.6" xlink:href="#m1ee175f33e" y="182.1312"/>
      </g>
     </g>
     <g id="text_8">
      <!-- 0.4 -->
      <g transform="translate(25.155 188.20995)scale(0.16 -0.16)">
       <use xlink:href="#DejaVuSans-30"/>
       <use x="63.623047" xlink:href="#DejaVuSans-2e"/>
       <use x="95.410156" xlink:href="#DejaVuSans-34"/>
      </g>
     </g>
    </g>
    <g id="ytick_4">
     <g id="line2d_27">
      <path clip-path="url(#pef79c59170)" d="M 57.6 123.7248 
L 360.8064 123.7248 
" style="fill:none;stroke:#b0b0b0;stroke-linecap:square;stroke-width:0.8;"/>
     </g>
     <g id="line2d_28">
      <g>
       <use style="stroke:#000000;stroke-width:0.8;" x="57.6" xlink:href="#m1ee175f33e" y="123.7248"/>
      </g>
     </g>
     <g id="text_9">
      <!-- 0.6 -->
      <g transform="translate(25.155 129.80355)scale(0.16 -0.16)">
       <use xlink:href="#DejaVuSans-30"/>
       <use x="63.623047" xlink:href="#DejaVuSans-2e"/>
       <use x="95.410156" xlink:href="#DejaVuSans-36"/>
      </g>
     </g>
    </g>
    <g id="ytick_5">
     <g id="line2d_29">
      <path clip-path="url(#pef79c59170)" d="M 57.6 65.3184 
L 360.8064 65.3184 
" style="fill:none;stroke:#b0b0b0;stroke-linecap:square;stroke-width:0.8;"/>
     </g>
     <g id="line2d_30">
      <g>
       <use style="stroke:#000000;stroke-width:0.8;" x="57.6" xlink:href="#m1ee175f33e" y="65.3184"/>
      </g>
     </g>
     <g id="text_10">
      <!-- 0.8 -->
      <g transform="translate(25.155 71.39715)scale(0.16 -0.16)">
       <defs>
        <path d="M 2034 2216 
Q 1584 2216 1326 1975 
Q 1069 1734 1069 1313 
Q 1069 891 1326 650 
Q 1584 409 2034 409 
Q 2484 409 2743 651 
Q 3003 894 3003 1313 
Q 3003 1734 2745 1975 
Q 2488 2216 2034 2216 
z
M 1403 2484 
Q 997 2584 770 2862 
Q 544 3141 544 3541 
Q 544 4100 942 4425 
Q 1341 4750 2034 4750 
Q 2731 4750 3128 4425 
Q 3525 4100 3525 3541 
Q 3525 3141 3298 2862 
Q 3072 2584 2669 2484 
Q 3125 2378 3379 2068 
Q 3634 1759 3634 1313 
Q 3634 634 3220 271 
Q 2806 -91 2034 -91 
Q 1263 -91 848 271 
Q 434 634 434 1313 
Q 434 1759 690 2068 
Q 947 2378 1403 2484 
z
M 1172 3481 
Q 1172 3119 1398 2916 
Q 1625 2713 2034 2713 
Q 2441 2713 2670 2916 
Q 2900 3119 2900 3481 
Q 2900 3844 2670 4047 
Q 2441 4250 2034 4250 
Q 1625 4250 1398 4047 
Q 1172 3844 1172 3481 
z
" id="DejaVuSans-38" transform="scale(0.015625)"/>
       </defs>
       <use xlink:href="#DejaVuSans-30"/>
       <use x="63.623047" xlink:href="#DejaVuSans-2e"/>
       <use x="95.410156" xlink:href="#DejaVuSans-38"/>
      </g>
     </g>
    </g>
    <g id="ytick_6">
     <g id="line2d_31">
      <path clip-path="url(#pef79c59170)" d="M 57.6 6.912 
L 360.8064 6.912 
" style="fill:none;stroke:#b0b0b0;stroke-linecap:square;stroke-width:0.8;"/>
     </g>
     <g id="line2d_32">
      <g>
       <use style="stroke:#000000;stroke-width:0.8;" x="57.6" xlink:href="#m1ee175f33e" y="6.912"/>
      </g>
     </g>
     <g id="text_11">
      <!-- 1.0 -->
      <g transform="translate(25.155 12.99075)scale(0.16 -0.16)">
       <use xlink:href="#DejaVuSans-31"/>
       <use x="63.623047" xlink:href="#DejaVuSans-2e"/>
       <use x="95.410156" xlink:href="#DejaVuSans-30"/>
      </g>
     </g>
    </g>
    <g id="text_12">
     <!-- Fraction of function,target pairs -->
     <g transform="translate(17.619531 287.313)rotate(-90)scale(0.17 -0.17)">
      <defs>
       <path d="M 628 4666 
L 3309 4666 
L 3309 4134 
L 1259 4134 
L 1259 2759 
L 3109 2759 
L 3109 2228 
L 1259 2228 
L 1259 0 
L 628 0 
L 628 4666 
z
" id="DejaVuSans-46" transform="scale(0.015625)"/>
       <path d="M 2631 2963 
Q 2534 3019 2420 3045 
Q 2306 3072 2169 3072 
Q 1681 3072 1420 2755 
Q 1159 2438 1159 1844 
L 1159 0 
L 581 0 
L 581 3500 
L 1159 3500 
L 1159 2956 
Q 1341 3275 1631 3429 
Q 1922 3584 2338 3584 
Q 2397 3584 2469 3576 
Q 2541 3569 2628 3553 
L 2631 2963 
z
" id="DejaVuSans-72" transform="scale(0.015625)"/>
       <path d="M 3122 3366 
L 3122 2828 
Q 2878 2963 2633 3030 
Q 2388 3097 2138 3097 
Q 1578 3097 1268 2742 
Q 959 2388 959 1747 
Q 959 1106 1268 751 
Q 1578 397 2138 397 
Q 2388 397 2633 464 
Q 2878 531 3122 666 
L 3122 134 
Q 2881 22 2623 -34 
Q 2366 -91 2075 -91 
Q 1284 -91 818 406 
Q 353 903 353 1747 
Q 353 2603 823 3093 
Q 1294 3584 2113 3584 
Q 2378 3584 2631 3529 
Q 2884 3475 3122 3366 
z
" id="DejaVuSans-63" transform="scale(0.015625)"/>
       <path d="M 1172 4494 
L 1172 3500 
L 2356 3500 
L 2356 3053 
L 1172 3053 
L 1172 1153 
Q 1172 725 1289 603 
Q 1406 481 1766 481 
L 2356 481 
L 2356 0 
L 1766 0 
Q 1100 0 847 248 
Q 594 497 594 1153 
L 594 3053 
L 172 3053 
L 172 3500 
L 594 3500 
L 594 4494 
L 1172 4494 
z
" id="DejaVuSans-74" transform="scale(0.015625)"/>
       <path d="M 544 1381 
L 544 3500 
L 1119 3500 
L 1119 1403 
Q 1119 906 1312 657 
Q 1506 409 1894 409 
Q 2359 409 2629 706 
Q 2900 1003 2900 1516 
L 2900 3500 
L 3475 3500 
L 3475 0 
L 2900 0 
L 2900 538 
Q 2691 219 2414 64 
Q 2138 -91 1772 -91 
Q 1169 -91 856 284 
Q 544 659 544 1381 
z
M 1991 3584 
L 1991 3584 
z
" id="DejaVuSans-75" transform="scale(0.015625)"/>
       <path d="M 750 794 
L 1409 794 
L 1409 256 
L 897 -744 
L 494 -744 
L 750 256 
L 750 794 
z
" id="DejaVuSans-2c" transform="scale(0.015625)"/>
       <path d="M 1159 525 
L 1159 -1331 
L 581 -1331 
L 581 3500 
L 1159 3500 
L 1159 2969 
Q 1341 3281 1617 3432 
Q 1894 3584 2278 3584 
Q 2916 3584 3314 3078 
Q 3713 2572 3713 1747 
Q 3713 922 3314 415 
Q 2916 -91 2278 -91 
Q 1894 -91 1617 61 
Q 1341 213 1159 525 
z
M 3116 1747 
Q 3116 2381 2855 2742 
Q 2594 3103 2138 3103 
Q 1681 3103 1420 2742 
Q 1159 2381 1159 1747 
Q 1159 1113 1420 752 
Q 1681 391 2138 391 
Q 2594 391 2855 752 
Q 3116 1113 3116 1747 
z
" id="DejaVuSans-70" transform="scale(0.015625)"/>
      </defs>
      <use xlink:href="#DejaVuSans-46"/>
      <use x="50.269531" xlink:href="#DejaVuSans-72"/>
      <use x="91.382812" xlink:href="#DejaVuSans-61"/>
      <use x="152.662109" xlink:href="#DejaVuSans-63"/>
      <use x="207.642578" xlink:href="#DejaVuSans-74"/>
      <use x="246.851562" xlink:href="#DejaVuSans-69"/>
      <use x="274.634766" xlink:href="#DejaVuSans-6f"/>
      <use x="335.816406" xlink:href="#DejaVuSans-6e"/>
      <use x="399.195312" xlink:href="#DejaVuSans-20"/>
      <use x="430.982422" xlink:href="#DejaVuSans-6f"/>
      <use x="492.164062" xlink:href="#DejaVuSans-66"/>
      <use x="527.369141" xlink:href="#DejaVuSans-20"/>
      <use x="559.15625" xlink:href="#DejaVuSans-66"/>
      <use x="594.361328" xlink:href="#DejaVuSans-75"/>
      <use x="657.740234" xlink:href="#DejaVuSans-6e"/>
      <use x="721.119141" xlink:href="#DejaVuSans-63"/>
      <use x="776.099609" xlink:href="#DejaVuSans-74"/>
      <use x="815.308594" xlink:href="#DejaVuSans-69"/>
      <use x="843.091797" xlink:href="#DejaVuSans-6f"/>
      <use x="904.273438" xlink:href="#DejaVuSans-6e"/>
      <use x="967.652344" xlink:href="#DejaVuSans-2c"/>
      <use x="999.439453" xlink:href="#DejaVuSans-74"/>
      <use x="1038.648438" xlink:href="#DejaVuSans-61"/>
      <use x="1099.927734" xlink:href="#DejaVuSans-72"/>
      <use x="1139.291016" xlink:href="#DejaVuSans-67"/>
      <use x="1202.767578" xlink:href="#DejaVuSans-65"/>
      <use x="1264.291016" xlink:href="#DejaVuSans-74"/>
      <use x="1303.5" xlink:href="#DejaVuSans-20"/>
      <use x="1335.287109" xlink:href="#DejaVuSans-70"/>
      <use x="1398.763672" xlink:href="#DejaVuSans-61"/>
      <use x="1460.042969" xlink:href="#DejaVuSans-69"/>
      <use x="1487.826172" xlink:href="#DejaVuSans-72"/>
      <use x="1528.939453" xlink:href="#DejaVuSans-73"/>
     </g>
    </g>
   </g>
   <g id="line2d_33">
    <defs>
     <path d="M 0 1.5 
C 0.397805 1.5 0.77937 1.341951 1.06066 1.06066 
C 1.341951 0.77937 1.5 0.397805 1.5 0 
C 1.5 -0.397805 1.341951 -0.77937 1.06066 -1.06066 
C 0.77937 -1.341951 0.397805 -1.5 0 -1.5 
C -0.397805 -1.5 -0.77937 -1.341951 -1.06066 -1.06066 
C -1.341951 -0.77937 -1.5 -0.397805 -1.5 0 
C -1.5 0.397805 -1.341951 0.77937 -1.06066 1.06066 
C -0.77937 1.341951 -0.397805 1.5 0 1.5 
z
" id="m1368a9eaaa" style="stroke:#f5deb3;"/>
    </defs>
    <g>
     <use style="fill:#f5deb3;stroke:#f5deb3;" x="145.237585" xlink:href="#m1368a9eaaa" y="6.912"/>
     <use style="fill:#f5deb3;stroke:#f5deb3;" x="145.237585" xlink:href="#m1368a9eaaa" y="6.912"/>
    </g>
   </g>
   <g id="line2d_34">
    <defs>
     <path d="M 0 1.5 
C 0.397805 1.5 0.77937 1.341951 1.06066 1.06066 
C 1.341951 0.77937 1.5 0.397805 1.5 0 
C 1.5 -0.397805 1.341951 -0.77937 1.06066 -1.06066 
C 0.77937 -1.341951 0.397805 -1.5 0 -1.5 
C -0.397805 -1.5 -0.77937 -1.341951 -1.06066 -1.06066 
C -1.341951 -0.77937 -1.5 -0.397805 -1.5 0 
C -1.5 0.397805 -1.341951 0.77937 -1.06066 1.06066 
C -0.77937 1.341951 -0.397805 1.5 0 1.5 
z
" id="m983b41c6ce" style="stroke:#000080;"/>
    </defs>
    <g>
     <use style="fill:#000080;stroke:#000080;" x="251.563424" xlink:href="#m983b41c6ce" y="6.912"/>
     <use style="fill:#000080;stroke:#000080;" x="251.563424" xlink:href="#m983b41c6ce" y="6.912"/>
    </g>
   </g>
   <g id="line2d_35">
    <path d="M 44.560826 298.944 
L 44.560826 293.370579 
L 57.6 293.370579 
L 57.6 291.309176 
L 65.227428 291.309176 
L 65.227428 289.85856 
L 70.639174 289.85856 
L 70.639174 289.171426 
L 74.836851 289.171426 
L 74.836851 288.713336 
L 78.266603 288.713336 
L 78.266603 287.873506 
L 81.166416 287.873506 
L 81.166416 287.415416 
L 83.678349 287.415416 
L 83.678349 287.033675 
L 89.668958 287.033675 
L 89.668958 286.499238 
L 92.811505 286.422889 
L 92.811505 286.041148 
L 95.503454 286.041148 
L 95.503454 285.888452 
L 99.950294 285.812104 
L 99.950294 285.735755 
L 101.833019 285.735755 
L 101.833019 285.048621 
L 106.560633 285.048621 
L 106.560633 284.819576 
L 109.159456 284.743228 
L 109.159456 284.66688 
L 112.487797 284.66688 
L 112.487797 284.361487 
L 114.418881 284.361487 
L 114.418881 284.132442 
L 115.314838 284.132442 
L 115.314838 283.979746 
L 116.988079 283.979746 
L 116.988079 283.827049 
L 120.616896 283.750701 
L 120.616896 283.292612 
L 125.271028 283.216264 
L 125.271028 282.834522 
L 126.756923 282.758174 
L 126.756923 282.376433 
L 127.227236 282.376433 
L 127.227236 281.918344 
L 128.999044 281.841995 
L 128.999044 281.765647 
L 131.378407 281.689299 
L 131.378407 281.231209 
L 131.747272 281.231209 
L 131.747272 281.078513 
L 132.109044 281.078513 
L 132.109044 280.925816 
L 132.46399 280.925816 
L 132.46399 280.544075 
L 134.463557 280.467727 
L 134.463557 280.391379 
L 135.085483 280.315031 
L 135.085483 280.085986 
L 135.687504 280.085986 
L 135.687504 279.856941 
L 138.438609 279.856941 
L 138.438609 279.398852 
L 139.435481 279.398852 
L 139.435481 279.169807 
L 139.676658 279.169807 
L 139.676658 279.017111 
L 141.283499 278.940762 
L 141.283499 278.711718 
L 141.50224 278.711718 
L 141.50224 278.253628 
L 143.166224 278.253628 
L 143.166224 278.024584 
L 144.136106 277.948235 
L 144.136106 277.871887 
L 145.93763 277.795539 
L 145.93763 277.719191 
L 146.108646 277.719191 
L 146.108646 277.566494 
L 146.612557 277.566494 
L 146.612557 277.261101 
L 147.103321 277.261101 
L 147.103321 277.108405 
L 148.048032 277.032056 
L 148.048032 276.726664 
L 148.352679 276.726664 
L 148.352679 276.344922 
L 148.652472 276.344922 
L 148.652472 275.886833 
L 148.947561 275.886833 
L 148.947561 275.276047 
L 149.381693 275.276047 
L 149.381693 274.894306 
L 149.524205 274.894306 
L 149.524205 274.741609 
L 150.892922 274.665261 
L 150.892922 274.512565 
L 151.024471 274.512565 
L 151.024471 273.749082 
L 151.54166 273.749082 
L 151.54166 273.596386 
L 151.920429 273.596386 
L 151.920429 273.138296 
L 152.045009 273.138296 
L 152.045009 272.298466 
L 153.478964 272.298466 
L 153.478964 272.069421 
L 154.156931 271.993073 
L 154.156931 271.68768 
L 154.918196 271.68768 
L 155.024477 271.153242 
L 155.13016 271.153242 
L 155.13016 271.000546 
L 155.547053 270.924198 
L 155.649849 270.466108 
L 155.752086 270.466108 
L 155.752086 270.313412 
L 156.452597 270.237064 
L 156.550574 269.473581 
L 156.937458 269.473581 
L 156.937458 269.168188 
L 157.779907 269.09184 
L 157.779907 269.015492 
L 158.321284 269.015492 
L 158.321284 268.862795 
L 158.498335 268.862795 
L 158.498335 268.557402 
L 158.933807 268.481054 
L 159.019705 268.175661 
L 159.190332 268.175661 
L 159.275069 267.335831 
L 159.359426 267.335831 
L 159.359426 267.183134 
L 159.775628 267.183134 
L 159.775628 266.801393 
L 160.581385 266.801393 
L 160.581385 266.190607 
L 160.816532 266.114259 
L 160.816532 266.037911 
L 161.048777 265.961562 
L 161.048777 265.732518 
L 161.354042 265.732518 
L 161.354042 265.579821 
L 161.504837 265.579821 
L 161.579783 265.19808 
L 161.654432 265.19808 
L 161.654432 264.969035 
L 161.950101 264.969035 
L 162.023298 264.587294 
L 162.31327 264.510946 
L 162.31327 263.90016 
L 162.527853 263.90016 
L 162.527853 263.671115 
L 162.949812 263.671115 
L 162.949812 263.213026 
L 163.362513 263.213026 
L 163.362513 262.907633 
L 163.565517 262.907633 
L 163.565517 262.373195 
L 164.030845 262.373195 
L 164.030845 261.915106 
L 164.420735 261.838758 
L 164.420735 261.609713 
L 164.739583 261.609713 
L 164.739583 261.380668 
L 165.664928 261.30432 
L 165.664928 260.922579 
L 165.844657 260.922579 
L 165.844657 260.235445 
L 166.257466 260.159096 
L 166.315707 259.395614 
L 167.112684 259.319266 
L 167.16834 258.250391 
L 167.279159 258.174042 
L 167.38933 258.021346 
L 167.444174 258.021346 
L 167.444174 257.792301 
L 167.877265 257.792301 
L 167.983997 256.952471 
L 168.037137 256.952471 
L 168.037137 256.799774 
L 168.248209 256.799774 
L 168.248209 256.570729 
L 168.560441 256.570729 
L 168.663377 256.188988 
L 168.714635 256.188988 
L 168.765753 255.883595 
L 168.968849 255.883595 
L 169.019282 255.578202 
L 169.417952 255.501854 
L 169.417952 255.349158 
L 169.565302 255.349158 
L 169.565302 255.196461 
L 169.904695 255.120113 
L 169.904695 255.043765 
L 170.332249 254.967416 
L 170.425955 254.127586 
L 170.519197 254.051238 
L 170.519197 253.974889 
L 170.7503 253.974889 
L 170.7503 253.822193 
L 170.93316 253.822193 
L 170.93316 253.593148 
L 171.069148 253.593148 
L 171.159263 252.753318 
L 171.20416 252.753318 
L 171.293632 252.524273 
L 171.427048 252.447925 
L 171.515469 251.608094 
L 171.691074 251.608094 
L 171.691074 251.226353 
L 171.951446 251.150005 
L 172.037442 250.310174 
L 172.208263 250.310174 
L 172.208263 250.157478 
L 172.503517 250.157478 
L 172.503517 249.928433 
L 172.670177 249.928433 
L 172.711612 249.317647 
L 172.794209 249.317647 
L 172.794209 248.935906 
L 173.12102 248.859558 
L 173.12102 248.783209 
L 173.28232 248.706861 
L 173.32243 248.096075 
L 173.402394 248.096075 
L 173.48202 247.714334 
L 173.56131 247.637986 
L 173.56131 246.874504 
L 173.87517 246.798155 
L 173.87517 246.340066 
L 174.18388 246.340066 
L 174.260272 245.958325 
L 174.336355 245.881976 
L 174.374282 245.423887 
L 174.7494 245.423887 
L 174.860492 244.278664 
L 175.080727 244.202315 
L 175.189886 243.744226 
L 175.298414 243.744226 
L 175.334451 243.209788 
L 175.477915 243.209788 
L 175.584799 242.828047 
L 175.620293 242.828047 
L 175.691079 242.293609 
L 175.796762 242.293609 
L 175.866889 241.682824 
L 175.971592 241.682824 
L 175.971592 241.530127 
L 176.110296 241.530127 
L 176.213656 240.613948 
L 176.316452 240.613948 
L 176.384671 239.774118 
L 176.486539 239.774118 
L 176.587858 239.163332 
L 176.655103 239.163332 
L 176.75552 238.552546 
L 176.822169 238.552546 
L 176.921701 238.247153 
L 176.987765 238.247153 
L 176.987765 237.789064 
L 177.1192 237.789064 
L 177.217177 236.872885 
L 177.475981 236.796536 
L 177.54013 236.567492 
L 177.889089 236.491144 
L 177.983147 235.804009 
L 178.385383 235.804009 
L 178.476998 234.964179 
L 178.507438 234.964179 
L 178.537828 234.429741 
L 178.898732 234.429741 
L 178.958215 234.124348 
L 179.017511 234.124348 
L 179.106105 233.360866 
L 179.194285 233.360866 
L 179.223586 232.673732 
L 179.369413 232.673732 
L 179.369413 232.062946 
L 179.485266 232.062946 
L 179.542926 230.841374 
L 179.800231 230.765026 
L 179.800231 230.688678 
L 179.969833 230.688678 
L 179.969833 230.15424 
L 180.082057 230.15424 
L 180.165788 229.696151 
L 180.524377 229.696151 
L 180.578943 228.85632 
L 180.660496 228.85632 
L 180.768686 226.947614 
L 180.876258 226.947614 
L 180.876258 226.718569 
L 181.063041 226.718569 
L 181.116069 226.184132 
L 181.274261 226.107784 
L 181.274261 225.726042 
L 181.431133 225.649694 
L 181.457152 225.420649 
L 181.586709 225.420649 
L 181.586709 225.267953 
L 181.766602 225.191605 
L 181.766602 224.96256 
L 181.944791 224.96256 
L 181.944791 224.428122 
L 182.14639 224.428122 
L 182.246386 223.893685 
L 182.271302 223.893685 
L 182.296185 223.588292 
L 182.420108 223.588292 
L 182.518663 223.282899 
L 182.567747 223.282899 
L 182.641134 223.053854 
L 182.689901 223.053854 
L 182.689901 222.901158 
L 182.859594 222.824809 
L 182.859594 222.748461 
L 183.003836 222.672113 
L 183.003836 222.137675 
L 183.336163 222.137675 
L 183.406618 221.908631 
L 183.75499 221.832282 
L 183.84681 221.679586 
L 184.164695 221.603238 
L 184.23212 221.145148 
L 184.45514 221.145148 
L 184.499429 220.839755 
L 184.631672 220.839755 
L 184.719321 220.305318 
L 184.893403 220.305318 
L 185.001391 219.999925 
L 185.044414 219.999925 
L 185.151541 219.007398 
L 185.194222 219.007398 
L 185.258062 218.320264 
L 185.469311 218.243915 
L 185.574053 217.022344 
L 185.843683 216.945995 
L 185.843683 216.716951 
L 186.190544 216.640602 
L 186.190544 216.411558 
L 186.33153 216.411558 
L 186.33153 216.106165 
L 186.57079 216.029816 
L 186.630133 214.808245 
L 186.689288 214.808245 
L 186.78747 214.426504 
L 186.865648 214.426504 
L 186.904616 214.121111 
L 187.155956 214.121111 
L 187.23262 213.586673 
L 187.385018 213.586673 
L 187.403982 213.28128 
L 187.536192 213.28128 
L 187.611325 212.975887 
L 187.964168 212.899539 
L 188.074232 212.212405 
L 188.274356 212.212405 
L 188.346604 211.448922 
L 188.400609 211.448922 
L 188.508155 210.761788 
L 188.70374 210.68544 
L 188.809572 210.227351 
L 188.914811 210.227351 
L 189.002064 209.845609 
L 189.106235 209.845609 
L 189.175363 209.234824 
L 189.32998 209.234824 
L 189.398292 208.929431 
L 189.449364 208.929431 
L 189.500298 208.624038 
L 189.61861 208.624038 
L 189.652278 208.165948 
L 189.736183 208.165948 
L 189.819716 207.249769 
L 189.902879 207.249769 
L 189.985677 206.79168 
L 190.068111 206.79168 
L 190.166558 206.180894 
L 190.182916 206.180894 
L 190.248206 205.875501 
L 190.378109 205.875501 
L 190.426593 205.112019 
L 190.651211 205.035671 
L 190.651211 204.882974 
L 190.762522 204.882974 
L 190.762522 204.730278 
L 190.951822 204.730278 
L 190.951822 204.577581 
L 191.139237 204.501233 
L 191.139237 204.19584 
L 191.278582 204.119492 
L 191.355553 203.508706 
L 191.599763 203.432358 
L 191.599763 203.050616 
L 191.73575 203.050616 
L 191.840843 201.981741 
L 191.930458 201.905393 
L 191.989965 201.752696 
L 192.240789 201.752696 
L 192.313929 201.065562 
L 192.430364 200.989214 
L 192.502772 199.996687 
L 192.589295 199.920339 
L 192.589295 199.691294 
L 192.789649 199.691294 
L 192.874865 199.385901 
L 192.959698 199.309553 
L 193.058188 197.935285 
L 193.086233 197.935285 
L 193.184065 197.629892 
L 193.447071 197.553544 
L 193.543048 197.171802 
L 193.774118 197.095454 
L 193.881882 196.484668 
L 193.89531 196.484668 
L 193.935534 196.026579 
L 194.122118 196.026579 
L 194.161861 195.644838 
L 194.319998 195.568489 
L 194.39857 195.1104 
L 194.502826 195.1104 
L 194.606506 194.423266 
L 194.64524 194.423266 
L 194.748141 193.736132 
L 194.799381 193.659784 
L 194.863236 193.430739 
L 194.990298 193.430739 
L 195.078734 192.896301 
L 195.103926 192.896301 
L 195.154207 191.980122 
L 195.329141 191.903774 
L 195.428378 191.369336 
L 195.477801 191.292988 
L 195.477801 191.140292 
L 195.710803 191.063944 
L 195.820172 190.758551 
L 195.88066 190.682202 
L 195.977037 189.842372 
L 196.096818 189.766024 
L 196.132604 189.536979 
L 196.215841 189.536979 
L 196.322322 188.468104 
L 196.475071 188.391755 
L 196.568458 187.32288 
L 196.638195 187.246532 
L 196.672967 187.017487 
L 196.834391 187.017487 
L 196.880259 186.254005 
L 196.983054 186.177656 
L 197.085291 184.574344 
L 197.254461 184.497995 
L 197.344067 183.810861 
L 197.422123 183.734513 
L 197.533073 182.436593 
L 197.687312 182.360245 
L 197.687312 181.978504 
L 197.992047 181.902155 
L 198.056711 181.673111 
L 198.131871 181.673111 
L 198.206732 180.451539 
L 198.249377 180.451539 
L 198.344975 179.688056 
L 198.366153 179.688056 
L 198.429545 178.924574 
L 198.513737 178.924574 
L 198.618449 178.313788 
L 198.639322 178.313788 
L 198.722582 178.084744 
L 198.815811 178.084744 
L 198.918861 177.779351 
L 198.949665 177.779351 
L 198.970174 177.168565 
L 199.072383 177.092216 
L 199.153753 176.481431 
L 199.345606 176.405082 
L 199.415798 175.870645 
L 199.505663 175.870645 
L 199.614917 173.961939 
L 199.654489 173.885591 
L 199.684113 173.503849 
L 199.841328 173.503849 
L 199.841328 172.816715 
L 199.958382 172.816715 
L 200.065046 172.053233 
L 200.142241 172.053233 
L 200.238292 171.137054 
L 200.36243 171.137054 
L 200.390961 170.526268 
L 200.476296 170.526268 
L 200.542401 169.610089 
L 200.739333 169.533741 
L 200.813816 167.777732 
L 200.888005 167.777732 
L 200.980332 166.479812 
L 201.06304 166.479812 
L 201.154514 165.410936 
L 201.209186 165.410936 
L 201.309006 164.876499 
L 201.372253 164.800151 
L 201.471214 164.036668 
L 201.667588 163.96032 
L 201.729643 163.120489 
L 201.791495 163.120489 
L 201.83555 162.509704 
L 201.958358 162.509704 
L 202.036885 161.669873 
L 202.13242 161.593525 
L 202.201596 159.684819 
L 202.244702 159.684819 
L 202.339189 157.394372 
L 202.433205 157.394372 
L 202.484288 156.249148 
L 202.628276 156.1728 
L 202.737646 155.409318 
L 202.787911 155.409318 
L 202.854722 154.951228 
L 202.912988 154.87488 
L 203.02072 153.271567 
L 203.193455 153.195219 
L 203.283306 151.668254 
L 203.315873 151.668254 
L 203.405143 150.675727 
L 203.477868 150.599379 
L 203.5744 149.912245 
L 203.614476 149.835896 
L 203.686398 148.843369 
L 203.734193 148.843369 
L 203.837336 147.850842 
L 203.908412 147.774494 
L 203.916293 147.240056 
L 204.081033 147.163708 
L 204.166752 145.865788 
L 204.228849 145.865788 
L 204.337029 145.255002 
L 204.551539 145.178654 
L 204.650307 144.415172 
L 204.718383 144.415172 
L 204.74102 144.186127 
L 204.838801 144.186127 
L 204.876274 142.277421 
L 204.950998 142.277421 
L 204.988248 141.819332 
L 205.092159 141.819332 
L 205.195499 140.979501 
L 205.239615 140.979501 
L 205.334845 139.681581 
L 205.356753 139.681581 
L 205.451393 139.147144 
L 205.494913 139.070795 
L 205.603275 138.307313 
L 205.624873 138.307313 
L 205.725335 137.620179 
L 205.768227 137.620179 
L 205.87503 136.551304 
L 205.896318 136.474955 
L 205.98123 135.635125 
L 206.016497 135.635125 
L 206.065761 134.10816 
L 206.205807 134.10816 
L 206.310161 133.497374 
L 206.358662 133.497374 
L 206.427733 131.970409 
L 206.496552 131.970409 
L 206.578803 131.588668 
L 206.667505 131.51232 
L 206.749014 130.748838 
L 206.796398 130.672489 
L 206.884082 129.756311 
L 207.024868 129.679962 
L 207.104846 128.152998 
L 207.171236 128.076649 
L 207.257194 127.847605 
L 207.290151 127.847605 
L 207.395225 126.549685 
L 207.441011 126.549685 
L 207.532251 125.251765 
L 207.558238 125.251765 
L 207.603629 124.870024 
L 207.726286 124.793675 
L 207.784108 124.030193 
L 207.962872 123.953845 
L 208.038968 122.884969 
L 208.108453 122.884969 
L 208.1714 121.892442 
L 208.252917 121.816094 
L 208.321618 121.205308 
L 208.390069 121.12896 
L 208.489191 120.212781 
L 208.501545 120.212781 
L 208.612364 119.143906 
L 208.679767 119.067558 
L 208.777379 117.387896 
L 208.807779 117.387896 
L 208.916814 116.853459 
L 208.940959 116.853459 
L 209.037228 115.173798 
L 209.109108 115.097449 
L 209.21047 114.63936 
L 209.263912 114.563012 
L 209.305373 113.952226 
L 209.452708 113.875878 
L 209.55224 112.196216 
L 209.604721 112.119868 
L 209.715036 110.7456 
L 209.720824 110.7456 
L 209.824708 109.44768 
L 209.887911 109.371332 
L 209.985173 108.14976 
L 210.03077 108.073412 
L 210.138621 107.080885 
L 210.144281 107.080885 
L 210.240229 105.706616 
L 210.296442 105.630268 
L 210.39162 104.561393 
L 210.436243 104.561393 
L 210.45295 103.721562 
L 210.580543 103.721562 
L 210.685296 102.499991 
L 210.712767 102.499991 
L 210.822248 101.889205 
L 210.89307 101.812856 
L 210.969044 100.209544 
L 211.028523 100.209544 
L 211.109329 98.911624 
L 211.157646 98.835275 
L 211.264576 97.384659 
L 211.333755 97.384659 
L 211.429125 95.934042 
L 211.460807 95.934042 
L 211.566032 94.941515 
L 211.639341 94.941515 
L 211.727977 93.87264 
L 211.795476 93.796292 
L 211.904005 92.345675 
L 211.945185 92.269327 
L 212.017034 91.353148 
L 212.057967 91.353148 
L 212.164996 90.742362 
L 212.205609 90.666014 
L 212.306761 90.055228 
L 212.316846 90.055228 
L 212.422416 88.528264 
L 212.45247 88.528264 
L 212.532382 87.841129 
L 212.577183 87.841129 
L 212.666467 87.077647 
L 212.71095 87.077647 
L 212.809427 86.08512 
L 212.829061 86.08512 
L 212.926923 85.397986 
L 212.946435 85.321638 
L 213.04854 83.031191 
L 213.087291 82.954842 
L 213.183823 81.733271 
L 213.222297 81.656922 
L 213.222297 81.504226 
L 213.399225 81.427878 
L 213.508374 80.435351 
L 213.532018 80.435351 
L 213.631002 79.290127 
L 213.687331 79.213779 
L 213.790165 78.221252 
L 213.818113 78.144904 
L 213.910976 77.228725 
L 213.93412 77.228725 
L 214.040218 74.40384 
L 214.109091 74.327492 
L 214.218766 73.334965 
L 214.250635 73.334965 
L 214.341391 72.800527 
L 214.418192 72.724179 
L 214.445223 72.189741 
L 214.530567 72.189741 
L 214.624446 70.891821 
L 214.651183 70.891821 
L 214.762179 69.593901 
L 214.81081 69.593901 
L 214.81081 69.21216 
L 214.955955 69.21216 
L 215.056459 67.608847 
L 215.099989 67.608847 
L 215.156428 66.539972 
L 215.22134 66.539972 
L 215.329032 64.402221 
L 215.341914 64.402221 
L 215.410467 63.027953 
L 215.453187 63.027953 
L 215.534088 60.966551 
L 215.572288 60.966551 
L 215.682211 58.905148 
L 215.703276 58.8288 
L 215.808252 58.065318 
L 215.824994 57.988969 
L 215.925133 56.996442 
L 215.999889 56.920094 
L 216.01232 56.309308 
L 216.2019 56.23296 
L 216.279651 55.393129 
L 216.320444 55.316781 
L 216.417987 53.789816 
L 216.442294 53.789816 
L 216.531151 52.644593 
L 216.663656 52.568245 
L 216.703625 52.262852 
L 216.803179 52.262852 
L 216.81112 51.804762 
L 216.957437 51.804762 
L 217.036056 50.430494 
L 217.118254 50.430494 
L 217.192316 49.972405 
L 217.238941 49.972405 
L 217.293192 49.132574 
L 217.374277 49.056226 
L 217.455013 48.063699 
L 217.516295 48.063699 
L 217.607845 46.918475 
L 217.649657 46.918475 
L 217.668631 46.307689 
L 217.861088 46.231341 
L 217.969653 44.55168 
L 217.984578 44.475332 
L 218.085016 42.795671 
L 218.107263 42.719322 
L 218.166459 41.726795 
L 218.251229 41.726795 
L 218.33928 41.116009 
L 218.383151 41.039661 
L 218.415987 40.352527 
L 218.499643 40.352527 
L 218.590153 39.130955 
L 218.61181 39.130955 
L 218.712551 38.214776 
L 218.791328 38.138428 
L 218.812756 37.680339 
L 219.000979 37.603991 
L 219.110206 36.76416 
L 219.117231 36.76416 
L 219.222294 36.153374 
L 219.229278 36.153374 
L 219.292012 34.702758 
L 219.392646 34.626409 
L 219.499628 34.244668 
L 219.640193 34.244668 
L 219.742383 33.786579 
L 219.854156 33.710231 
L 219.924939 32.717704 
L 219.965268 32.717704 
L 220.049009 32.183266 
L 220.099075 32.106918 
L 220.20544 31.267087 
L 220.228627 31.267087 
L 220.271613 30.961694 
L 220.354005 30.961694 
L 220.458942 29.740122 
L 220.511192 29.740122 
L 220.608771 27.984113 
L 220.644423 27.984113 
L 220.644423 27.831416 
L 220.786361 27.755068 
L 220.853729 27.144282 
L 220.920856 27.144282 
L 220.994102 26.457148 
L 221.054396 26.3808 
L 221.164959 25.006532 
L 221.199574 25.006532 
L 221.227848 24.701139 
L 221.356116 24.624791 
L 221.356116 24.395746 
L 221.54535 24.319398 
L 221.625432 23.937656 
L 221.686802 23.937656 
L 221.73881 23.479567 
L 221.918201 23.403219 
L 221.987672 22.792433 
L 222.056888 22.792433 
L 222.056888 22.639736 
L 222.200522 22.563388 
L 222.310497 22.257995 
L 222.325309 22.181647 
L 222.399196 21.341816 
L 222.487479 21.265468 
L 222.496284 20.960075 
L 222.691875 20.883727 
L 222.732489 20.043896 
L 222.873951 19.967548 
L 222.873951 19.814852 
L 223.034331 19.738504 
L 223.102649 19.509459 
L 223.252644 19.433111 
L 223.356653 19.127718 
L 223.40984 19.051369 
L 223.443355 18.669628 
L 223.585131 18.59328 
L 223.679057 18.135191 
L 223.786222 18.135191 
L 223.881879 17.600753 
L 224.001447 17.600753 
L 224.10949 17.371708 
L 224.16865 17.371708 
L 224.227625 16.989967 
L 224.321069 16.989967 
L 224.424648 16.379181 
L 224.567131 16.302833 
L 224.677209 15.921092 
L 224.856665 15.844744 
L 224.967641 15.539351 
L 225.118851 15.463002 
L 225.13161 15.157609 
L 225.339629 15.081261 
L 225.339629 15.004913 
L 225.667251 15.004913 
L 225.741483 14.69952 
L 226.042808 14.623172 
L 226.042808 14.546824 
L 226.415778 14.470475 
L 226.415778 14.394127 
L 226.699536 14.317779 
L 226.699536 14.241431 
L 226.842154 14.165082 
L 226.842154 14.012386 
L 227.399795 13.936038 
L 227.399795 13.859689 
L 227.961143 13.859689 
L 227.961143 13.554296 
L 228.578572 13.477948 
L 228.631593 13.248904 
L 229.376928 13.248904 
L 229.478431 12.943511 
L 229.659768 12.867162 
L 229.745794 12.638118 
L 230.017281 12.561769 
L 230.017281 12.485421 
L 230.546864 12.409073 
L 230.546864 12.332725 
L 231.020955 12.256376 
L 231.020955 12.180028 
L 232.101011 12.10368 
L 232.101011 12.027332 
L 232.608359 11.950984 
L 232.608359 11.874635 
L 233.372615 11.798287 
L 233.389068 11.492894 
L 233.911307 11.416546 
L 233.911307 11.340198 
L 234.372673 11.263849 
L 234.452105 11.111153 
L 234.623838 11.034805 
L 234.689946 10.80576 
L 234.844315 10.729412 
L 234.942996 10.500367 
L 235.422878 10.424019 
L 235.422878 10.347671 
L 235.765142 10.271322 
L 235.765142 10.042278 
L 236.124056 10.042278 
L 236.124056 9.50784 
L 237.239346 9.431492 
L 237.319586 9.202447 
L 237.383532 9.202447 
L 237.383532 8.820706 
L 238.015176 8.820706 
L 238.015176 8.515313 
L 238.493871 8.515313 
L 238.493871 8.362616 
L 238.979022 8.286268 
L 238.979022 8.20992 
L 242.364635 8.133572 
L 242.364635 8.057224 
L 246.929275 7.980875 
L 246.929275 7.828179 
L 247.397404 7.751831 
L 247.397404 7.675482 
L 247.676484 7.675482 
L 247.676484 7.522786 
L 248.401067 7.446438 
L 248.401067 7.370089 
L 248.681803 7.293741 
L 248.681803 7.141045 
L 251.108608 7.064696 
L 251.108608 6.988348 
L 360.8064 6.912 
L 360.8064 6.912 
" style="fill:none;stroke:#000080;stroke-linecap:square;stroke-width:1.5;"/>
   </g>
   <g id="line2d_36">
    <defs>
     <path d="M 0 6 
C 1.591219 6 3.117479 5.367802 4.242641 4.242641 
C 5.367802 3.117479 6 1.591219 6 0 
C 6 -1.591219 5.367802 -3.117479 4.242641 -4.242641 
C 3.117479 -5.367802 1.591219 -6 0 -6 
C -1.591219 -6 -3.117479 -5.367802 -4.242641 -4.242641 
C -5.367802 -3.117479 -6 -1.591219 -6 0 
C -6 1.591219 -5.367802 3.117479 -4.242641 4.242641 
C -3.117479 5.367802 -1.591219 6 0 6 
z
" id="maa15136fb4" style="stroke:#000080;stroke-width:1.5;"/>
    </defs>
    <g>
     <use style="fill-opacity:0;stroke:#000080;stroke-width:1.5;" x="178.537828" xlink:href="#maa15136fb4" y="234.429741"/>
     <use style="fill-opacity:0;stroke:#000080;stroke-width:1.5;" x="203.781868" xlink:href="#maa15136fb4" y="148.232584"/>
     <use style="fill-opacity:0;stroke:#000080;stroke-width:1.5;" x="251.563424" xlink:href="#maa15136fb4" y="6.988348"/>
     <use style="fill-opacity:0;stroke:#000080;stroke-width:1.5;" x="251.563424" xlink:href="#maa15136fb4" y="6.912"/>
     <use style="fill-opacity:0;stroke:#000080;stroke-width:1.5;" x="251.563424" xlink:href="#maa15136fb4" y="6.912"/>
     <use style="fill-opacity:0;stroke:#000080;stroke-width:1.5;" x="360.8064" xlink:href="#maa15136fb4" y="6.912"/>
    </g>
   </g>
   <g id="line2d_37">
    <path style="fill:none;stroke:#000080;stroke-linecap:square;stroke-width:1.5;"/>
    <g/>
   </g>
   <g id="line2d_38">
    <path clip-path="url(#pef79c59170)" d="M 243.909378 8.057224 
" style="fill:none;stroke:#000080;stroke-linecap:square;stroke-width:1.5;"/>
    <defs>
     <path d="M -12 12 
L 12 -12 
M -12 -12 
L 12 12 
" id="me14b33b4d2" style="stroke:#000080;"/>
    </defs>
    <g clip-path="url(#pef79c59170)">
     <use style="fill:#000080;stroke:#000080;" x="243.909378" xlink:href="#me14b33b4d2" y="8.057224"/>
    </g>
   </g>
   <g id="line2d_39">
    <defs>
     <path d="M 0 1.5 
C 0.397805 1.5 0.77937 1.341951 1.06066 1.06066 
C 1.341951 0.77937 1.5 0.397805 1.5 0 
C 1.5 -0.397805 1.341951 -0.77937 1.06066 -1.06066 
C 0.77937 -1.341951 0.397805 -1.5 0 -1.5 
C -0.397805 -1.5 -0.77937 -1.341951 -1.06066 -1.06066 
C -1.341951 -0.77937 -1.5 -0.397805 -1.5 0 
C -1.5 0.397805 -1.341951 0.77937 -1.06066 1.06066 
C -0.77937 1.341951 -0.397805 1.5 0 1.5 
z
" id="md508a9b214" style="stroke:#ff00ff;"/>
    </defs>
    <g>
     <use style="fill:#ff00ff;stroke:#ff00ff;" x="223.608656" xlink:href="#md508a9b214" y="6.912"/>
     <use style="fill:#ff00ff;stroke:#ff00ff;" x="223.608656" xlink:href="#md508a9b214" y="6.912"/>
    </g>
   </g>
   <g id="line2d_40">
    <path d="M 44.560826 298.944 
L 44.560826 291.843614 
L 57.6 291.843614 
L 57.6 289.629515 
L 65.227428 289.629515 
L 65.227428 288.866033 
L 70.639174 288.866033 
L 70.639174 287.873506 
L 74.836851 287.873506 
L 74.836851 286.880979 
L 81.166416 286.804631 
L 81.166416 285.888452 
L 87.876026 285.812104 
L 87.876026 285.354014 
L 89.668958 285.354014 
L 89.668958 285.201318 
L 91.305777 285.201318 
L 91.305777 284.208791 
L 92.811505 284.208791 
L 92.811505 283.827049 
L 95.503454 283.750701 
L 95.503454 283.36896 
L 97.857967 283.36896 
L 97.857967 282.987219 
L 98.933205 282.987219 
L 98.933205 282.452781 
L 101.833019 282.452781 
L 101.833019 281.994692 
L 102.708132 281.994692 
L 102.708132 281.307558 
L 103.544339 281.307558 
L 103.544339 281.154861 
L 105.112877 281.078513 
L 105.112877 280.696772 
L 105.850679 280.696772 
L 105.850679 280.315031 
L 106.560633 280.315031 
L 106.560633 280.009638 
L 107.244765 280.009638 
L 107.244765 279.398852 
L 107.904887 279.398852 
L 107.904887 279.246155 
L 109.756698 279.169807 
L 109.756698 279.093459 
L 110.897141 279.093459 
L 110.897141 278.406325 
L 111.442442 278.406325 
L 111.442442 277.871887 
L 112.487797 277.871887 
L 112.487797 277.642842 
L 112.989468 277.642842 
L 112.989468 277.261101 
L 113.954374 277.261101 
L 113.954374 277.108405 
L 114.418881 277.108405 
L 114.418881 276.87936 
L 114.872193 276.87936 
L 114.872193 276.497619 
L 115.314838 276.497619 
L 115.314838 276.344922 
L 115.747307 276.344922 
L 115.747307 275.734136 
L 117.772007 275.657788 
L 117.772007 275.58144 
L 118.524569 275.58144 
L 118.524569 274.741609 
L 118.889854 274.741609 
L 118.889854 274.28352 
L 119.599808 274.28352 
L 119.599808 273.443689 
L 119.944983 273.443689 
L 119.944983 272.9856 
L 120.28394 272.9856 
L 120.28394 272.603859 
L 120.616896 272.603859 
L 120.616896 272.069421 
L 121.581803 272.069421 
L 121.581803 271.840376 
L 121.892744 271.840376 
L 121.892744 271.534984 
L 122.795872 271.458635 
L 122.795872 271.229591 
L 123.08753 271.229591 
L 123.08753 270.924198 
L 123.374735 270.924198 
L 123.374735 270.313412 
L 123.657621 270.313412 
L 123.657621 269.168188 
L 123.936316 269.168188 
L 123.936316 268.939144 
L 124.210942 268.939144 
L 124.210942 268.404706 
L 125.271028 268.328358 
L 125.271028 268.175661 
L 125.526971 268.175661 
L 125.526971 267.564875 
L 125.779479 267.564875 
L 125.779479 266.954089 
L 126.028642 266.954089 
L 126.028642 266.801393 
L 126.517282 266.801393 
L 126.517282 266.114259 
L 126.756923 266.114259 
L 126.756923 265.961562 
L 127.686077 265.961562 
L 127.686077 265.427125 
L 128.133992 265.350776 
L 128.133992 264.052856 
L 128.354013 264.052856 
L 128.354013 263.90016 
L 128.57149 263.90016 
L 128.57149 263.518419 
L 128.786481 263.518419 
L 128.786481 263.365722 
L 128.999044 263.365722 
L 128.999044 263.213026 
L 129.209231 263.213026 
L 129.209231 262.754936 
L 129.417095 262.754936 
L 129.417095 261.686061 
L 129.826058 261.609713 
L 129.826058 261.151624 
L 130.027253 261.151624 
L 130.027253 260.235445 
L 130.226319 260.235445 
L 130.226319 259.777355 
L 130.4233 259.777355 
L 130.4233 259.624659 
L 131.002163 259.624659 
L 131.002163 259.395614 
L 131.563744 259.319266 
L 131.563744 259.090221 
L 131.929028 259.090221 
L 131.929028 258.937525 
L 132.287354 258.861176 
L 132.287354 258.479435 
L 132.812362 258.479435 
L 132.812362 258.250391 
L 132.984158 258.250391 
L 132.984158 258.021346 
L 133.323114 258.021346 
L 133.323114 257.868649 
L 133.490329 257.868649 
L 133.490329 257.639605 
L 133.656071 257.639605 
L 133.656071 257.257864 
L 134.14471 257.181515 
L 134.14471 256.723426 
L 135.085483 256.647078 
L 135.085483 256.570729 
L 135.237805 256.570729 
L 135.237805 256.418033 
L 135.388902 256.418033 
L 135.388902 256.265336 
L 135.538796 256.265336 
L 135.538796 255.959944 
L 135.687504 255.959944 
L 135.687504 255.578202 
L 135.981441 255.501854 
L 135.981441 255.425506 
L 136.270855 255.425506 
L 136.270855 254.203934 
L 136.555884 254.203934 
L 136.555884 253.5168 
L 136.836659 253.5168 
L 136.836659 253.364104 
L 136.97549 253.364104 
L 136.97549 252.829666 
L 137.250116 252.829666 
L 137.250116 252.295228 
L 137.38594 252.295228 
L 137.38594 252.142532 
L 137.520791 252.142532 
L 137.520791 251.989835 
L 137.919637 251.913487 
L 137.919637 251.608094 
L 138.310202 251.531746 
L 138.310202 250.997308 
L 138.692823 250.92096 
L 138.692823 250.844612 
L 138.818654 250.844612 
L 138.818654 250.691915 
L 138.943648 250.691915 
L 138.943648 250.157478 
L 139.191172 250.157478 
L 139.191172 249.852085 
L 139.313723 249.852085 
L 139.313723 249.699388 
L 139.796097 249.62304 
L 139.796097 249.317647 
L 140.14993 249.317647 
L 140.14993 249.088602 
L 140.26641 249.088602 
L 140.26641 248.935906 
L 140.382174 248.935906 
L 140.382174 248.554165 
L 140.49723 248.554165 
L 140.49723 248.32512 
L 140.611586 248.32512 
L 140.611586 248.172424 
L 140.950542 248.096075 
L 140.950542 247.867031 
L 141.062184 247.867031 
L 141.173167 247.561638 
L 141.393187 247.485289 
L 141.393187 246.950852 
L 141.718467 246.874504 
L 141.718467 246.798155 
L 142.038218 246.721807 
L 142.038218 246.569111 
L 142.352625 246.492762 
L 142.45627 246.187369 
L 142.661862 246.111021 
L 142.661862 245.958325 
L 143.066428 245.958325 
L 143.166224 245.118494 
L 143.265494 245.118494 
L 143.265494 244.660405 
L 143.560197 244.584056 
L 143.560197 244.355012 
L 143.754133 244.355012 
L 143.850356 243.744226 
L 143.946089 243.744226 
L 144.041338 242.904395 
L 144.2304 242.904395 
L 144.2304 242.522654 
L 144.602918 242.446306 
L 144.694906 242.064565 
L 144.786447 242.064565 
L 144.786447 240.461252 
L 145.237585 240.384904 
L 145.326529 240.003162 
L 145.415054 240.003162 
L 145.415054 239.621421 
L 145.765046 239.621421 
L 145.851536 239.010635 
L 146.023332 239.010635 
L 146.108646 238.552546 
L 146.27812 238.476198 
L 146.362288 238.170805 
L 146.529503 238.094456 
L 146.612557 237.789064 
L 146.695245 237.789064 
L 146.777571 237.025581 
L 146.941151 237.025581 
L 147.022411 236.64384 
L 147.264104 236.64384 
L 147.343984 235.422268 
L 147.423525 235.422268 
L 147.502732 235.040527 
L 147.581606 235.040527 
L 147.660152 234.124348 
L 147.73837 234.124348 
L 147.816265 233.437214 
L 147.971093 233.360866 
L 148.048032 232.902776 
L 148.200973 232.902776 
L 148.276979 232.139294 
L 148.503173 232.062946 
L 148.57797 231.833901 
L 148.652472 231.833901 
L 148.726679 231.375812 
L 148.800595 231.375812 
L 148.874221 230.459633 
L 148.947561 230.459633 
L 149.020615 229.925195 
L 149.093387 229.925195 
L 149.165879 229.009016 
L 149.238092 229.009016 
L 149.238092 228.85632 
L 149.381693 228.85632 
L 149.453084 228.550927 
L 149.595059 228.474579 
L 149.665646 228.321882 
L 149.806031 228.245534 
L 149.875833 227.940141 
L 149.945377 227.940141 
L 150.014665 226.871266 
L 150.083698 226.871266 
L 150.152479 226.642221 
L 150.221009 226.642221 
L 150.289291 226.184132 
L 150.357325 226.184132 
L 150.425115 224.657167 
L 150.492661 224.657167 
L 150.559965 222.290372 
L 150.62703 222.290372 
L 150.693856 221.908631 
L 150.760445 221.908631 
L 150.8268 221.221496 
L 150.892922 221.221496 
L 150.958812 220.381666 
L 151.024471 220.381666 
L 151.089903 219.618184 
L 151.155108 219.618184 
L 151.220087 219.236442 
L 151.284843 219.236442 
L 151.349377 219.007398 
L 151.41369 219.007398 
L 151.477784 218.320264 
L 151.54166 218.320264 
L 151.60532 217.327736 
L 151.668766 217.327736 
L 151.731998 216.487906 
L 151.795018 216.487906 
L 151.857828 215.953468 
L 151.920429 215.953468 
L 151.982822 215.266334 
L 152.045009 215.266334 
L 152.045009 214.884593 
L 152.16877 214.884593 
L 152.230346 213.968414 
L 152.291722 213.968414 
L 152.352898 213.357628 
L 152.413875 213.357628 
L 152.474656 212.517798 
L 152.595631 212.517798 
L 152.655828 211.219878 
L 152.715833 211.219878 
L 152.775647 210.838136 
L 152.835271 210.838136 
L 152.894708 209.540216 
L 152.953957 209.540216 
L 153.01302 208.929431 
L 153.130592 208.853082 
L 153.189104 208.0896 
L 153.247435 208.0896 
L 153.247435 207.784207 
L 153.363556 207.784207 
L 153.421349 207.326118 
L 153.536404 207.326118 
L 153.593669 206.638984 
L 153.650761 206.638984 
L 153.707679 206.028198 
L 153.764426 206.028198 
L 153.821002 205.341064 
L 153.877408 205.341064 
L 153.933646 204.806626 
L 153.989717 204.806626 
L 154.04562 204.19584 
L 154.156931 204.119492 
L 154.267588 203.050616 
L 154.322673 203.050616 
L 154.432362 202.134438 
L 154.486967 202.134438 
L 154.595705 201.294607 
L 154.703817 201.218259 
L 154.811312 198.927812 
L 154.86483 198.927812 
L 154.971412 197.629892 
L 155.024477 197.629892 
L 155.13016 196.255624 
L 155.235253 196.179275 
L 155.339761 195.339445 
L 155.391799 195.339445 
L 155.495444 194.270569 
L 155.598521 194.194221 
L 155.701037 193.888828 
L 155.752086 193.888828 
L 155.85377 192.590908 
L 155.904407 192.590908 
L 156.005274 191.674729 
L 156.105602 191.598381 
L 156.205398 190.453158 
L 156.255099 190.453158 
L 156.354107 189.078889 
L 156.403417 189.078889 
L 156.501649 187.857318 
L 156.550574 187.857318 
L 156.648044 186.788442 
L 156.696589 186.788442 
L 156.793307 186.254005 
L 156.84148 186.254005 
L 156.937458 182.818334 
L 157.032948 182.818334 
L 157.127956 182.054852 
L 157.175281 182.054852 
L 157.269574 180.985976 
L 157.363398 180.985976 
L 157.456756 180.222494 
L 157.503261 180.222494 
L 157.595929 178.848226 
L 157.642093 178.848226 
L 157.734081 177.779351 
L 157.779907 177.779351 
L 157.871225 176.863172 
L 157.916719 176.863172 
L 158.007377 176.023341 
L 158.052543 176.023341 
L 158.14255 174.801769 
L 158.187393 174.801769 
L 158.276759 173.961939 
L 158.321284 173.961939 
L 158.410018 172.587671 
L 158.454228 172.587671 
L 158.542339 171.366099 
L 158.58624 171.366099 
L 158.630038 170.373572 
L 158.717331 170.373572 
L 158.804221 169.686438 
L 158.890711 169.610089 
L 158.976805 168.617562 
L 159.019705 168.617562 
L 159.105212 167.090598 
L 159.14782 167.090598 
L 159.232748 165.639981 
L 159.275069 165.639981 
L 159.317295 164.723802 
L 159.401463 164.723802 
L 159.485256 163.502231 
L 159.527013 163.502231 
L 159.568678 162.280659 
L 159.693121 162.204311 
L 159.775628 161.593525 
L 159.816746 161.593525 
L 159.898714 160.219256 
L 159.939564 160.219256 
L 160.020999 159.913864 
L 160.061585 159.913864 
L 160.142495 158.844988 
L 160.18282 158.844988 
L 160.263211 157.928809 
L 160.303279 157.928809 
L 160.343261 157.547068 
L 160.4627 157.547068 
L 160.541906 156.554541 
L 160.581385 156.554541 
L 160.660094 155.256621 
L 160.699326 155.256621 
L 160.777545 154.569487 
L 160.855439 154.569487 
L 160.933013 153.653308 
L 160.97168 153.653308 
L 161.048777 152.813478 
L 161.087207 152.813478 
L 161.163832 151.668254 
L 161.202028 151.668254 
L 161.278189 150.293986 
L 161.316153 150.293986 
L 161.391854 149.454155 
L 161.42959 149.454155 
L 161.504837 148.079887 
L 161.542347 148.079887 
L 161.617145 147.392753 
L 161.691646 147.316405 
L 161.765853 146.705619 
L 161.876619 146.629271 
L 161.986735 145.560395 
L 162.023298 145.560395 
L 162.132562 144.415172 
L 162.168843 144.415172 
L 162.277267 142.048376 
L 162.31327 142.048376 
L 162.420867 140.979501 
L 162.456597 140.979501 
L 162.56338 140.216019 
L 162.59884 140.216019 
L 162.704821 138.994447 
L 162.740015 138.994447 
L 162.845206 138.154616 
L 162.880139 138.154616 
L 162.949812 137.162089 
L 163.019227 137.162089 
L 163.122872 136.322259 
L 163.191653 136.322259 
L 163.260183 134.871642 
L 163.328465 134.871642 
L 163.430425 133.421026 
L 163.464289 133.421026 
L 163.565517 132.352151 
L 163.59914 132.352151 
L 163.699647 131.206927 
L 163.73303 131.206927 
L 163.832826 130.367096 
L 163.865975 130.367096 
L 163.96507 129.679962 
L 163.997986 129.679962 
L 164.09639 128.611087 
L 164.129077 128.611087 
L 164.2268 127.313167 
L 164.259262 127.313167 
L 164.356312 126.396988 
L 164.420735 126.32064 
L 164.484939 125.786202 
L 164.548924 125.786202 
L 164.644495 124.793675 
L 164.676244 124.793675 
L 164.771172 123.648452 
L 164.802709 123.648452 
L 164.897003 122.732273 
L 164.959603 122.655925 
L 165.053116 122.197835 
L 165.084184 122.197835 
L 165.17708 121.052612 
L 165.238758 120.976264 
L 165.330896 119.83104 
L 165.361509 119.83104 
L 165.45305 119.220254 
L 165.483464 119.220254 
L 165.574415 118.456772 
L 165.604634 118.456772 
L 165.695002 117.693289 
L 165.725029 117.693289 
L 165.814821 116.242673 
L 165.844657 116.242673 
L 165.904188 115.555539 
L 165.993131 115.555539 
L 166.081656 114.715708 
L 166.111072 114.715708 
L 166.199045 114.028574 
L 166.228279 114.028574 
L 166.315707 113.112395 
L 166.344759 113.112395 
L 166.431649 112.04352 
L 166.460523 112.04352 
L 166.546881 111.509082 
L 166.575579 111.509082 
L 166.661411 110.440207 
L 166.689935 110.440207 
L 166.775248 109.829421 
L 166.83191 109.753073 
L 166.916583 109.294984 
L 167.000877 109.218635 
L 167.084795 108.531501 
L 167.112684 108.531501 
L 167.196106 107.844367 
L 167.223831 107.844367 
L 167.334325 106.775492 
L 167.38933 106.699144 
L 167.471536 106.088358 
L 167.553385 106.012009 
L 167.661966 104.790438 
L 167.689013 104.790438 
L 167.796816 104.332348 
L 167.823671 104.332348 
L 167.930707 103.034428 
L 167.957371 103.034428 
L 168.063651 102.499991 
L 168.090128 102.499991 
L 168.169334 101.889205 
L 168.221954 101.889205 
L 168.326754 101.278419 
L 168.352863 101.278419 
L 168.430973 100.438588 
L 168.482867 100.438588 
L 168.586228 98.911624 
L 168.611979 98.911624 
L 168.714635 97.7664 
L 168.740211 97.7664 
L 168.816733 97.155614 
L 168.892945 97.079266 
L 168.994082 96.086739 
L 169.06958 96.010391 
L 169.169775 95.17056 
L 169.219673 95.094212 
L 169.294273 94.254381 
L 169.368578 94.178033 
L 169.467197 93.414551 
L 169.516314 93.338202 
L 169.614163 92.651068 
L 169.662898 92.57472 
L 169.75999 91.963934 
L 169.784185 91.963934 
L 169.880655 91.200452 
L 169.952684 91.124104 
L 170.048295 90.666014 
L 170.072123 90.666014 
L 170.143423 89.902532 
L 170.28522 89.826184 
L 170.37916 89.062701 
L 170.402572 89.062701 
L 170.49593 88.375567 
L 170.542436 88.375567 
L 170.635104 87.230344 
L 170.6582 87.230344 
L 170.7503 86.619558 
L 170.773255 86.619558 
L 170.864796 86.008772 
L 170.887612 86.008772 
L 170.955893 85.474334 
L 171.023928 85.397986 
L 171.11426 84.329111 
L 171.159263 84.252762 
L 171.248949 83.565628 
L 171.338209 83.48928 
L 171.449192 82.649449 
L 171.47131 82.649449 
L 171.559524 81.809619 
L 171.603476 81.809619 
L 171.71291 81.046136 
L 171.778266 81.046136 
L 171.88669 80.435351 
L 171.972982 80.359002 
L 172.080292 79.59552 
L 172.123046 79.519172 
L 172.229507 78.984734 
L 172.250727 78.984734 
L 172.356469 78.373948 
L 172.440637 78.2976 
L 172.524431 77.686814 
L 172.587032 77.610466 
L 172.649425 76.846984 
L 172.711612 76.846984 
L 172.814802 75.854456 
L 172.85592 75.778108 
L 172.958324 75.090974 
L 172.978738 75.090974 
L 173.060174 74.480188 
L 173.12102 74.40384 
L 173.221995 73.793054 
L 173.262233 73.716706 
L 173.362455 72.800527 
L 173.382435 72.800527 
L 173.48202 71.960696 
L 173.521707 71.884348 
L 173.620559 71.273562 
L 173.699269 71.273562 
L 173.77765 70.815473 
L 173.855707 70.815473 
L 173.952824 70.051991 
L 173.972187 70.051991 
L 174.068707 69.364856 
L 174.087951 69.364856 
L 174.18388 68.448678 
L 174.222115 68.448678 
L 174.317363 67.608847 
L 174.355328 67.532499 
L 174.431028 67.074409 
L 174.468765 67.074409 
L 174.506426 66.845365 
L 174.618958 66.845365 
L 174.712223 66.310927 
L 174.73082 66.310927 
L 174.823534 65.623793 
L 174.842022 65.623793 
L 174.95257 65.089355 
L 174.989276 65.013007 
L 175.080727 64.096828 
L 175.135386 64.02048 
L 175.244228 63.486042 
L 175.280369 63.409694 
L 175.334451 63.104301 
L 175.424244 63.027953 
L 175.495771 62.569864 
L 175.549238 62.569864 
L 175.655719 61.348292 
L 175.708734 61.271944 
L 175.814319 60.508461 
L 175.866889 60.432113 
L 175.971592 59.668631 
L 176.058402 59.592282 
L 176.110296 59.134193 
L 176.213656 59.134193 
L 176.316452 58.523407 
L 176.33353 58.523407 
L 176.418689 57.683576 
L 176.486539 57.607228 
L 176.554146 57.301835 
L 176.604692 57.301835 
L 176.705378 56.614701 
L 176.722107 56.614701 
L 176.788874 55.927567 
L 176.872001 55.851219 
L 176.954762 55.393129 
L 177.1192 55.316781 
L 177.217177 54.553299 
L 177.249723 54.553299 
L 177.314646 54.247906 
L 177.363192 54.247906 
L 177.45991 53.713468 
L 177.492039 53.63712 
L 177.572122 53.102682 
L 177.635944 53.026334 
L 177.731273 52.644593 
L 177.857632 52.568245 
L 177.967504 52.033807 
L 178.045592 51.957459 
L 178.154375 51.499369 
L 178.231693 51.423021 
L 178.339408 50.888584 
L 178.415971 50.812235 
L 178.507438 49.896056 
L 178.568169 49.819708 
L 178.67398 49.514315 
L 178.719145 49.514315 
L 178.764203 49.056226 
L 178.853996 48.979878 
L 178.928497 48.674485 
L 179.047089 48.598136 
L 179.150247 48.063699 
L 179.282053 48.063699 
L 179.369413 47.452913 
L 179.412941 47.376565 
L 179.499697 47.14752 
L 179.528527 47.14752 
L 179.614753 46.689431 
L 179.643407 46.689431 
L 179.700586 46.384038 
L 179.800231 46.307689 
L 179.871084 45.773252 
L 180.026029 45.696904 
L 180.123969 45.391511 
L 180.179707 45.391511 
L 180.221402 45.009769 
L 180.318334 44.933421 
L 180.3735 44.704376 
L 180.510711 44.628028 
L 180.55168 44.322635 
L 180.646928 44.246287 
L 180.70114 43.711849 
L 180.782166 43.711849 
L 180.876258 42.948367 
L 180.916439 42.872019 
L 181.009863 42.490278 
L 181.076312 42.413929 
L 181.168947 41.803144 
L 181.261129 41.726795 
L 181.365929 41.268706 
L 181.405079 41.192358 
L 181.509082 40.810616 
L 181.586709 40.734268 
L 181.651154 40.276179 
L 181.702552 40.276179 
L 181.804928 39.741741 
L 181.855908 39.665393 
L 181.957455 39.283652 
L 181.995394 39.207304 
L 182.045861 38.978259 
L 182.258848 38.901911 
L 182.358249 38.520169 
L 182.432456 38.443821 
L 182.543221 37.909384 
L 182.579998 37.833035 
L 182.689901 37.451294 
L 182.714236 37.451294 
L 182.823359 36.993205 
L 182.919829 36.916856 
L 183.015807 36.458767 
L 183.063612 36.382419 
L 183.111297 36.077026 
L 183.312619 36.000678 
L 183.406618 35.618936 
L 183.52346 35.542588 
L 183.593219 35.313544 
L 183.68583 35.237195 
L 183.743481 34.931802 
L 183.84681 34.855454 
L 183.949574 34.321016 
L 184.05178 34.244668 
L 184.05178 34.16832 
L 184.276936 34.091972 
L 184.276936 34.015624 
L 184.444052 33.939275 
L 184.499429 33.786579 
L 184.675548 33.710231 
L 184.773895 33.557534 
L 184.88257 33.481186 
L 184.96906 33.252141 
L 185.151541 33.175793 
L 185.258062 32.8704 
L 185.363983 32.794052 
L 185.437775 32.412311 
L 185.511278 32.335962 
L 185.594932 31.648828 
L 185.647027 31.57248 
L 185.709351 31.343435 
L 185.853977 31.267087 
L 185.925875 30.885346 
L 186.058675 30.808998 
L 186.119652 30.579953 
L 186.190544 30.503605 
L 186.230933 30.198212 
L 186.381628 30.121864 
L 186.431592 29.969167 
L 186.590592 29.892819 
L 186.69913 29.587426 
L 186.748259 29.511078 
L 186.777675 29.129336 
L 186.972615 29.052988 
L 187.021036 28.823944 
L 187.175151 28.747595 
L 187.261289 28.213158 
L 187.308974 28.136809 
L 187.37553 27.907765 
L 187.620696 27.831416 
L 187.723466 27.526024 
L 187.751397 27.449675 
L 187.844202 27.296979 
L 187.945762 27.220631 
L 188.019281 26.991586 
L 188.119902 26.915238 
L 188.156358 26.609845 
L 188.427553 26.533496 
L 188.52602 26.304452 
L 188.61509 26.228104 
L 188.677189 25.922711 
L 188.78317 25.922711 
L 188.853493 25.693666 
L 188.967211 25.617318 
L 189.002064 25.464621 
L 189.244239 25.388273 
L 189.347081 25.159228 
L 189.406814 25.08288 
L 189.440862 24.853835 
L 189.685885 24.777487 
L 189.786347 24.243049 
L 189.844703 24.166701 
L 189.894579 24.014005 
L 190.174739 23.937656 
L 190.207426 23.78496 
L 190.36192 23.708612 
L 190.418521 23.555915 
L 190.667153 23.479567 
L 190.691041 23.326871 
L 190.896806 23.250522 
L 190.983188 22.945129 
L 191.076972 22.868781 
L 191.092558 22.716085 
L 191.409245 22.639736 
L 191.516173 22.48704 
L 191.780862 22.410692 
L 191.810877 22.181647 
L 191.967672 22.105299 
L 192.056685 21.876254 
L 192.211453 21.799906 
L 192.25544 21.494513 
L 192.350392 21.418165 
L 192.430364 21.18912 
L 192.618048 21.112772 
L 192.661095 20.883727 
L 192.860689 20.807379 
L 192.931463 20.501986 
L 193.10724 20.425638 
L 193.191033 20.120245 
L 193.288323 20.043896 
L 193.385111 19.738504 
L 193.584032 19.662155 
L 193.658938 19.433111 
L 193.868445 19.356762 
L 193.928836 19.051369 
L 194.029057 18.975021 
L 194.029057 18.898673 
L 194.227913 18.822325 
L 194.313435 18.669628 
L 194.64524 18.59328 
L 194.735309 18.287887 
L 194.85686 18.211539 
L 194.85686 18.135191 
L 194.990298 18.058842 
L 195.059819 17.906146 
L 195.310476 17.829798 
L 195.385027 17.524405 
L 195.551693 17.448056 
L 195.643651 17.142664 
L 195.765567 17.066315 
L 195.868578 16.760922 
L 195.910831 16.684574 
L 195.910831 16.608226 
L 196.078899 16.531878 
L 196.180213 16.150136 
L 196.345903 16.073788 
L 196.398851 15.768395 
L 196.55681 15.692047 
L 196.638195 15.463002 
L 196.817161 15.386654 
L 196.817161 15.310306 
L 197.039921 15.233958 
L 197.147497 14.928565 
L 197.349653 14.852216 
L 197.455477 14.69952 
L 197.654367 14.623172 
L 197.714722 14.470475 
L 198.008234 14.394127 
L 198.056711 14.165082 
L 198.571401 14.088734 
L 198.571401 14.012386 
L 198.857099 13.936038 
L 198.857099 13.859689 
L 199.143601 13.783341 
L 199.143601 13.706993 
L 199.350628 13.630645 
L 199.405787 13.477948 
L 199.693978 13.4016 
L 199.762885 13.019859 
L 199.895068 12.943511 
L 200.00209 12.561769 
L 200.016637 12.485421 
L 200.021484 12.332725 
L 200.300463 12.256376 
L 200.40521 12.10368 
L 200.518819 12.027332 
L 200.565954 11.874635 
L 200.655186 11.798287 
L 200.655186 11.721939 
L 200.998743 11.645591 
L 200.998743 11.569242 
L 201.268234 11.492894 
L 201.345173 11.111153 
L 201.53392 11.034805 
L 201.636484 10.80576 
L 202.015105 10.729412 
L 202.015105 10.653064 
L 202.270518 10.576715 
L 202.270518 10.500367 
L 202.552185 10.424019 
L 202.607171 10.271322 
L 202.983498 10.194974 
L 202.983498 10.118626 
L 203.530218 10.042278 
L 203.530218 9.965929 
L 204.045852 9.889581 
L 204.045852 9.813233 
L 204.352432 9.736885 
L 204.352432 9.660536 
L 206.156909 9.584188 
L 206.219754 9.431492 
L 206.894174 9.355144 
L 206.917698 9.202447 
L 207.355891 9.126099 
L 207.355891 9.049751 
L 207.892846 8.973402 
L 207.937438 8.820706 
L 208.243529 8.744358 
L 208.346538 8.591661 
L 208.832064 8.515313 
L 208.832064 8.438965 
L 208.983137 8.362616 
L 208.983137 8.286268 
L 209.543479 8.20992 
L 209.587243 8.057224 
L 209.850589 7.980875 
L 209.850589 7.904527 
L 210.778532 7.828179 
L 210.778532 7.751831 
L 211.415908 7.675482 
L 211.455531 7.522786 
L 212.352102 7.446438 
L 212.352102 7.370089 
L 215.29894 7.293741 
L 215.29894 7.217393 
L 219.611137 7.141045 
L 219.611137 7.064696 
L 223.608656 6.988348 
L 223.608656 6.912 
L 360.8064 6.912 
L 360.8064 6.912 
" style="fill:none;stroke:#ff00ff;stroke-linecap:square;stroke-width:1.5;"/>
   </g>
   <g id="line2d_41">
    <defs>
     <path d="M -0 8.485281 
L 5.091169 0 
L 0 -8.485281 
L -5.091169 -0 
z
" id="maba90b0ddb" style="stroke:#ff00ff;stroke-linejoin:miter;stroke-width:1.5;"/>
    </defs>
    <g>
     <use style="fill-opacity:0;stroke:#ff00ff;stroke-linejoin:miter;stroke-width:1.5;" x="112.487797" xlink:href="#maba90b0ddb" y="277.642842"/>
     <use style="fill-opacity:0;stroke:#ff00ff;stroke-linejoin:miter;stroke-width:1.5;" x="158.0976" xlink:href="#maba90b0ddb" y="175.794296"/>
     <use style="fill-opacity:0;stroke:#ff00ff;stroke-linejoin:miter;stroke-width:1.5;" x="194.313435" xlink:href="#maba90b0ddb" y="18.745976"/>
     <use style="fill-opacity:0;stroke:#ff00ff;stroke-linejoin:miter;stroke-width:1.5;" x="223.608656" xlink:href="#maba90b0ddb" y="6.988348"/>
     <use style="fill-opacity:0;stroke:#ff00ff;stroke-linejoin:miter;stroke-width:1.5;" x="223.608656" xlink:href="#maba90b0ddb" y="6.912"/>
     <use style="fill-opacity:0;stroke:#ff00ff;stroke-linejoin:miter;stroke-width:1.5;" x="360.8064" xlink:href="#maba90b0ddb" y="6.912"/>
    </g>
   </g>
   <g id="line2d_42">
    <path style="fill:none;stroke:#ff00ff;stroke-linecap:square;stroke-width:1.5;"/>
    <g/>
   </g>
   <g id="line2d_43">
    <path clip-path="url(#pef79c59170)" d="M 145.590864 239.621421 
" style="fill:none;stroke:#ff00ff;stroke-linecap:square;stroke-width:1.5;"/>
    <defs>
     <path d="M -12 12 
L 12 -12 
M -12 -12 
L 12 12 
" id="mc9060b5a97" style="stroke:#ff00ff;"/>
    </defs>
    <g clip-path="url(#pef79c59170)">
     <use style="fill:#ff00ff;stroke:#ff00ff;" x="145.590864" xlink:href="#mc9060b5a97" y="239.621421"/>
    </g>
   </g>
   <g id="line2d_44">
    <path d="M 360.8064 6.912 
L 380.514816 293.10336 
" style="fill:none;stroke:#000080;stroke-linecap:square;stroke-width:1.5;"/>
    <g>
     <use style="fill-opacity:0;stroke:#000080;stroke-width:1.5;" x="360.8064" xlink:href="#maa15136fb4" y="6.912"/>
     <use style="fill-opacity:0;stroke:#000080;stroke-width:1.5;" x="380.514816" xlink:href="#maa15136fb4" y="293.10336"/>
    </g>
   </g>
   <g id="line2d_45">
    <path d="M 360.8064 6.912 
L 380.514816 152.928 
" style="fill:none;stroke:#ff00ff;stroke-linecap:square;stroke-width:1.5;"/>
    <g>
     <use style="fill-opacity:0;stroke:#ff00ff;stroke-linejoin:miter;stroke-width:1.5;" x="360.8064" xlink:href="#maba90b0ddb" y="6.912"/>
     <use style="fill-opacity:0;stroke:#ff00ff;stroke-linejoin:miter;stroke-width:1.5;" x="380.514816" xlink:href="#maba90b0ddb" y="152.928"/>
    </g>
   </g>
   <g id="line2d_46">
    <path d="M 360.8064 298.944 
L 360.8064 6.912 
" style="fill:none;stroke:#000000;stroke-linecap:square;stroke-width:1.5;"/>
   </g>
   <g id="patch_3">
    <path d="M 57.6 298.944 
L 360.8064 298.944 
" style="fill:none;stroke:#000000;stroke-linecap:square;stroke-linejoin:miter;stroke-width:0.8;"/>
   </g>
   <g id="patch_4">
    <path d="M 57.6 6.912 
L 360.8064 6.912 
" style="fill:none;stroke:#000000;stroke-linecap:square;stroke-linejoin:miter;stroke-width:0.8;"/>
   </g>
   <g id="text_13">
    <!-- different -->
    <g transform="translate(386.578944 296.966485)scale(0.14 -0.14)">
     <use xlink:href="#DejaVuSans-64"/>
     <use x="63.476562" xlink:href="#DejaVuSans-69"/>
     <use x="91.259766" xlink:href="#DejaVuSans-66"/>
     <use x="126.464844" xlink:href="#DejaVuSans-66"/>
     <use x="161.669922" xlink:href="#DejaVuSans-65"/>
     <use x="223.193359" xlink:href="#DejaVuSans-72"/>
     <use x="262.056641" xlink:href="#DejaVuSans-65"/>
     <use x="323.580078" xlink:href="#DejaVuSans-6e"/>
     <use x="386.958984" xlink:href="#DejaVuSans-74"/>
    </g>
   </g>
   <g id="text_14">
    <!-- cma.fmin  -->
    <g transform="translate(386.578944 156.791125)scale(0.14 -0.14)">
     <use xlink:href="#DejaVuSans-63"/>
     <use x="54.980469" xlink:href="#DejaVuSans-6d"/>
     <use x="152.392578" xlink:href="#DejaVuSans-61"/>
     <use x="213.671875" xlink:href="#DejaVuSans-2e"/>
     <use x="245.458984" xlink:href="#DejaVuSans-66"/>
     <use x="280.664062" xlink:href="#DejaVuSans-6d"/>
     <use x="378.076172" xlink:href="#DejaVuSans-69"/>
     <use x="405.859375" xlink:href="#DejaVuSans-6e"/>
     <use x="469.238281" xlink:href="#DejaVuSans-20"/>
    </g>
   </g>
   <g id="text_15">
    <!-- best 2009 -->
    <g transform="translate(386.578944 16.615765)scale(0.14 -0.14)">
     <defs>
      <path d="M 3116 1747 
Q 3116 2381 2855 2742 
Q 2594 3103 2138 3103 
Q 1681 3103 1420 2742 
Q 1159 2381 1159 1747 
Q 1159 1113 1420 752 
Q 1681 391 2138 391 
Q 2594 391 2855 752 
Q 3116 1113 3116 1747 
z
M 1159 2969 
Q 1341 3281 1617 3432 
Q 1894 3584 2278 3584 
Q 2916 3584 3314 3078 
Q 3713 2572 3713 1747 
Q 3713 922 3314 415 
Q 2916 -91 2278 -91 
Q 1894 -91 1617 61 
Q 1341 213 1159 525 
L 1159 0 
L 581 0 
L 581 4863 
L 1159 4863 
L 1159 2969 
z
" id="DejaVuSans-62" transform="scale(0.015625)"/>
      <path d="M 703 97 
L 703 672 
Q 941 559 1184 500 
Q 1428 441 1663 441 
Q 2288 441 2617 861 
Q 2947 1281 2994 2138 
Q 2813 1869 2534 1725 
Q 2256 1581 1919 1581 
Q 1219 1581 811 2004 
Q 403 2428 403 3163 
Q 403 3881 828 4315 
Q 1253 4750 1959 4750 
Q 2769 4750 3195 4129 
Q 3622 3509 3622 2328 
Q 3622 1225 3098 567 
Q 2575 -91 1691 -91 
Q 1453 -91 1209 -44 
Q 966 3 703 97 
z
M 1959 2075 
Q 2384 2075 2632 2365 
Q 2881 2656 2881 3163 
Q 2881 3666 2632 3958 
Q 2384 4250 1959 4250 
Q 1534 4250 1286 3958 
Q 1038 3666 1038 3163 
Q 1038 2656 1286 2365 
Q 1534 2075 1959 2075 
z
" id="DejaVuSans-39" transform="scale(0.015625)"/>
     </defs>
     <use xlink:href="#DejaVuSans-62"/>
     <use x="63.476562" xlink:href="#DejaVuSans-65"/>
     <use x="125" xlink:href="#DejaVuSans-73"/>
     <use x="177.099609" xlink:href="#DejaVuSans-74"/>
     <use x="216.308594" xlink:href="#DejaVuSans-20"/>
     <use x="248.095703" xlink:href="#DejaVuSans-32"/>
     <use x="311.71875" xlink:href="#DejaVuSans-30"/>
     <use x="375.341797" xlink:href="#DejaVuSans-30"/>
     <use x="438.964844" xlink:href="#DejaVuSans-39"/>
    </g>
   </g>
   <g id="text_16">
    <!-- bbob f10-f14, 2-D -->
    <g transform="translate(60.632064 17.582726)scale(0.102 -0.102)">
     <defs>
      <path d="M 1259 4147 
L 1259 519 
L 2022 519 
Q 2988 519 3436 956 
Q 3884 1394 3884 2338 
Q 3884 3275 3436 3711 
Q 2988 4147 2022 4147 
L 1259 4147 
z
M 628 4666 
L 1925 4666 
Q 3281 4666 3915 4102 
Q 4550 3538 4550 2338 
Q 4550 1131 3912 565 
Q 3275 0 1925 0 
L 628 0 
L 628 4666 
z
" id="DejaVuSans-44" transform="scale(0.015625)"/>
     </defs>
     <use xlink:href="#DejaVuSans-62"/>
     <use x="63.476562" xlink:href="#DejaVuSans-62"/>
     <use x="126.953125" xlink:href="#DejaVuSans-6f"/>
     <use x="188.134766" xlink:href="#DejaVuSans-62"/>
     <use x="251.611328" xlink:href="#DejaVuSans-20"/>
     <use x="283.398438" xlink:href="#DejaVuSans-66"/>
     <use x="318.603516" xlink:href="#DejaVuSans-31"/>
     <use x="382.226562" xlink:href="#DejaVuSans-30"/>
     <use x="445.849609" xlink:href="#DejaVuSans-2d"/>
     <use x="481.933594" xlink:href="#DejaVuSans-66"/>
     <use x="517.138672" xlink:href="#DejaVuSans-31"/>
     <use x="580.761719" xlink:href="#DejaVuSans-34"/>
     <use x="644.384766" xlink:href="#DejaVuSans-2c"/>
     <use x="676.171875" xlink:href="#DejaVuSans-20"/>
     <use x="707.958984" xlink:href="#DejaVuSans-32"/>
     <use x="771.582031" xlink:href="#DejaVuSans-2d"/>
     <use x="807.666016" xlink:href="#DejaVuSans-44"/>
    </g>
    <!-- 51 targets: 100..1e-08 -->
    <g transform="translate(60.632064 29.004495)scale(0.102 -0.102)">
     <defs>
      <path d="M 691 4666 
L 3169 4666 
L 3169 4134 
L 1269 4134 
L 1269 2991 
Q 1406 3038 1543 3061 
Q 1681 3084 1819 3084 
Q 2600 3084 3056 2656 
Q 3513 2228 3513 1497 
Q 3513 744 3044 326 
Q 2575 -91 1722 -91 
Q 1428 -91 1123 -41 
Q 819 9 494 109 
L 494 744 
Q 775 591 1075 516 
Q 1375 441 1709 441 
Q 2250 441 2565 725 
Q 2881 1009 2881 1497 
Q 2881 1984 2565 2268 
Q 2250 2553 1709 2553 
Q 1456 2553 1204 2497 
Q 953 2441 691 2322 
L 691 4666 
z
" id="DejaVuSans-35" transform="scale(0.015625)"/>
      <path d="M 750 794 
L 1409 794 
L 1409 0 
L 750 0 
L 750 794 
z
M 750 3309 
L 1409 3309 
L 1409 2516 
L 750 2516 
L 750 3309 
z
" id="DejaVuSans-3a" transform="scale(0.015625)"/>
     </defs>
     <use xlink:href="#DejaVuSans-35"/>
     <use x="63.623047" xlink:href="#DejaVuSans-31"/>
     <use x="127.246094" xlink:href="#DejaVuSans-20"/>
     <use x="159.033203" xlink:href="#DejaVuSans-74"/>
     <use x="198.242188" xlink:href="#DejaVuSans-61"/>
     <use x="259.521484" xlink:href="#DejaVuSans-72"/>
     <use x="298.884766" xlink:href="#DejaVuSans-67"/>
     <use x="362.361328" xlink:href="#DejaVuSans-65"/>
     <use x="423.884766" xlink:href="#DejaVuSans-74"/>
     <use x="463.09375" xlink:href="#DejaVuSans-73"/>
     <use x="515.193359" xlink:href="#DejaVuSans-3a"/>
     <use x="548.884766" xlink:href="#DejaVuSans-20"/>
     <use x="580.671875" xlink:href="#DejaVuSans-31"/>
     <use x="644.294922" xlink:href="#DejaVuSans-30"/>
     <use x="707.917969" xlink:href="#DejaVuSans-30"/>
     <use x="771.541016" xlink:href="#DejaVuSans-2e"/>
     <use x="803.328125" xlink:href="#DejaVuSans-2e"/>
     <use x="835.115234" xlink:href="#DejaVuSans-31"/>
     <use x="898.738281" xlink:href="#DejaVuSans-65"/>
     <use x="960.261719" xlink:href="#DejaVuSans-2d"/>
     <use x="996.345703" xlink:href="#DejaVuSans-30"/>
     <use x="1059.96875" xlink:href="#DejaVuSans-38"/>
    </g>
    <!-- 15 instances -->
    <g transform="translate(60.632064 40.426264)scale(0.102 -0.102)">
     <use xlink:href="#DejaVuSans-31"/>
     <use x="63.623047" xlink:href="#DejaVuSans-35"/>
     <use x="127.246094" xlink:href="#DejaVuSans-20"/>
     <use x="159.033203" xlink:href="#DejaVuSans-69"/>
     <use x="186.816406" xlink:href="#DejaVuSans-6e"/>
     <use x="250.195312" xlink:href="#DejaVuSans-73"/>
     <use x="302.294922" xlink:href="#DejaVuSans-74"/>
     <use x="341.503906" xlink:href="#DejaVuSans-61"/>
     <use x="402.783203" xlink:href="#DejaVuSans-6e"/>
     <use x="466.162109" xlink:href="#DejaVuSans-63"/>
     <use x="521.142578" xlink:href="#DejaVuSans-65"/>
     <use x="582.666016" xlink:href="#DejaVuSans-73"/>
    </g>
   </g>
   <g id="text_17">
    <!-- v2.6 -->
    <g style="fill:#808080;" transform="translate(198.292262 293.943992)scale(0.1 -0.1)">
     <use xlink:href="#DejaVuSans-76"/>
     <use x="59.179688" xlink:href="#DejaVuSans-32"/>
     <use x="122.802734" xlink:href="#DejaVuSans-2e"/>
     <use x="154.589844" xlink:href="#DejaVuSans-36"/>
    </g>
   </g>
  </g>
 </g>
 <defs>
  <clipPath id="pef79c59170">
   <rect height="292.032" width="303.2064" x="57.6" y="6.912"/>
  </clipPath>
 </defs>
</svg>
