<?xml version="1.0" encoding="utf-8" standalone="no"?>
<!DOCTYPE svg PUBLIC "-//W3C//DTD SVG 1.1//EN"
  "http://www.w3.org/Graphics/SVG/1.1/DTD/svg11.dtd">
<svg height="345.6pt" version="1.1" viewBox="0 0 460.8 345.6" width="460.8pt" xmlns="http://www.w3.org/2000/svg" xmlns:xlink="http://www.w3.org/1999/xlink">
 <metadata>
  <rdf:RDF xmlns:cc="http://creativecommons.org/ns#" xmlns:dc="http://purl.org/dc/elements/1.1/" xmlns:rdf="http://www.w3.org/1999/02/22-rdf-syntax-ns#">
   <cc:Work>
    <dc:type rdf:resource="http://purl.org/dc/dcmitype/StillImage"/>
    <dc:date>2022-05-07T15:07:08.029860</dc:date>
    <dc:format>image/svg+xml</dc:format>
    <dc:creator>
     <cc:Agent>
      <dc:title>Matplotlib v3.4.3, https://matplotlib.org/</dc:title>
     </cc:Agent>
    </dc:creator>
   </cc:Work>
  </rdf:RDF>
 </metadata>
 <defs>
  <style type="text/css">*{stroke-linecap:butt;stroke-linejoin:round;}</style>
 </defs>
 <g id="figure_1">
  <g id="patch_1">
   <path d="M 0 345.6 
L 460.8 345.6 
L 460.8 0 
L 0 0 
z
" style="fill:#ffffff;"/>
  </g>
  <g id="axes_1">
   <g id="patch_2">
    <path d="M 57.6 298.944 
L 360.8064 298.944 
L 360.8064 6.912 
L 57.6 6.912 
z
" style="fill:#ffffff;"/>
   </g>
   <g id="line2d_1">
    <path d="M 27.323974 298.944 
L 27.323974 294.649412 
L 61.029752 294.649412 
L 61.029752 293.217882 
L 72.432107 293.217882 
L 72.432107 291.786353 
L 78.266603 291.786353 
L 78.266603 290.354824 
L 79.480672 290.354824 
L 79.480672 288.923294 
L 83.678349 288.923294 
L 83.678349 286.060235 
L 87.1081 286.060235 
L 87.1081 283.197176 
L 87.876026 283.197176 
L 87.876026 281.765647 
L 88.613828 281.765647 
L 88.613828 278.902588 
L 94.205591 278.902588 
L 94.205591 276.039529 
L 98.510456 276.039529 
L 98.510456 274.608 
L 100.147275 274.608 
L 100.147275 273.176471 
L 102.362957 273.176471 
L 102.362957 268.881882 
L 104.344952 268.881882 
L 104.344952 267.450353 
L 104.961779 267.450353 
L 104.961779 266.018824 
L 105.559021 266.018824 
L 105.559021 264.587294 
L 106.974091 264.587294 
L 106.974091 263.155765 
L 107.5116 263.155765 
L 107.5116 261.724235 
L 107.774703 261.724235 
L 107.774703 260.292706 
L 108.034177 260.292706 
L 108.034177 258.861176 
L 109.990385 258.861176 
L 109.990385 257.429647 
L 115.227139 257.429647 
L 115.227139 255.998118 
L 116.419219 255.998118 
L 116.419219 254.566588 
L 118.450653 254.566588 
L 118.450653 253.135059 
L 119.319033 253.135059 
L 119.319033 251.703529 
L 119.599808 251.703529 
L 119.599808 250.272 
L 121.455972 250.272 
L 121.455972 248.840471 
L 123.260379 248.840471 
L 123.260379 247.408941 
L 123.713691 247.408941 
L 123.713691 245.977412 
L 124.906754 245.977412 
L 124.906754 244.545882 
L 125.526971 244.545882 
L 125.526971 243.114353 
L 126.323346 243.114353 
L 126.323346 241.682824 
L 126.804487 241.682824 
L 126.804487 240.251294 
L 126.993549 240.251294 
L 126.993549 238.819765 
L 127.911368 238.819765 
L 127.911368 237.388235 
L 128.266313 237.388235 
L 128.266313 234.525176 
L 129.041269 234.525176 
L 129.041269 233.093647 
L 129.292652 233.093647 
L 129.292652 231.662118 
L 130.027253 231.662118 
L 130.107132 228.799059 
L 130.344755 228.799059 
L 130.344755 225.936 
L 131.489828 225.936 
L 131.489828 224.504471 
L 131.63737 224.504471 
L 131.63737 223.072941 
L 131.783764 223.072941 
L 131.783764 221.641412 
L 132.144842 221.641412 
L 132.144842 218.778353 
L 132.708526 218.778353 
L 132.708526 217.346824 
L 132.846847 217.346824 
L 132.846847 215.915294 
L 133.120474 215.915294 
L 133.120474 213.052235 
L 133.390178 213.052235 
L 133.390178 211.620706 
L 133.918257 211.620706 
L 133.918257 210.189176 
L 134.176839 210.189176 
L 134.176839 208.757647 
L 134.620977 208.757647 
L 134.620977 207.326118 
L 134.87014 207.326118 
L 134.87014 204.463059 
L 134.993495 204.463059 
L 134.993495 203.031529 
L 135.538796 203.031529 
L 135.538796 201.6 
L 135.893741 201.6 
L 135.893741 197.305412 
L 136.010584 197.305412 
L 136.068734 190.147765 
L 136.126705 190.147765 
L 136.126705 188.716235 
L 136.242113 188.716235 
L 136.242113 187.284706 
L 136.356818 187.284706 
L 136.356818 185.853176 
L 136.696795 185.853176 
L 136.752866 182.990118 
L 136.864507 182.990118 
L 136.97549 178.695529 
L 137.195511 178.695529 
L 137.250116 174.400941 
L 137.734561 174.400941 
L 137.840541 168.674824 
L 138.050729 168.674824 
L 138.10291 165.811765 
L 138.310202 165.811765 
L 138.36167 162.948706 
L 138.515235 162.948706 
L 138.515235 161.517176 
L 138.667556 161.517176 
L 138.718057 152.928 
L 138.868751 152.928 
L 138.918715 150.064941 
L 139.117256 150.064941 
L 139.117256 147.201882 
L 139.313723 147.201882 
L 139.313723 145.770353 
L 139.556456 145.770353 
L 139.604629 142.907294 
L 139.748412 142.907294 
L 139.843661 140.044235 
L 139.93843 140.044235 
L 139.985636 137.181176 
L 140.079694 137.181176 
L 140.079694 135.749647 
L 140.219905 135.749647 
L 140.26641 132.886588 
L 140.405242 132.886588 
L 140.49723 127.160471 
L 140.58877 127.160471 
L 140.679868 122.865882 
L 140.725251 122.865882 
L 140.815692 118.571294 
L 140.860749 118.571294 
L 140.950542 114.276706 
L 140.995278 114.276706 
L 141.084433 109.982118 
L 141.128852 109.982118 
L 141.128852 104.256 
L 141.995897 104.256 
L 141.995897 102.824471 
L 143.38393 102.824471 
L 143.38393 101.392941 
L 144.342932 101.392941 
L 144.342932 99.961412 
L 145.397382 99.961412 
L 145.397382 98.529882 
L 147.022411 98.529882 
L 147.022411 97.098353 
L 148.155221 97.098353 
L 148.155221 95.666824 
L 149.223672 95.666824 
L 149.223672 94.235294 
L 150.234685 94.235294 
L 150.234685 92.803765 
L 150.72052 92.803765 
L 150.72052 91.372235 
L 151.757231 91.372235 
L 151.757231 89.940706 
L 153.189104 89.940706 
L 153.189104 88.509176 
L 154.886195 88.509176 
L 154.886195 87.077647 
L 156.482044 87.077647 
L 156.482044 85.646118 
L 157.231914 85.646118 
L 157.231914 84.214588 
L 157.971166 84.214588 
L 157.971166 82.783059 
L 158.0976 82.783059 
L 158.0976 81.351529 
L 158.595008 81.351529 
L 158.699905 78.488471 
L 159.113741 78.488471 
L 159.113741 77.056941 
L 159.601943 77.056941 
L 159.601943 75.625412 
L 160.061585 75.625412 
L 160.061585 74.193882 
L 160.23913 74.193882 
L 160.255188 71.330824 
L 160.636516 71.330824 
L 160.636516 69.899294 
L 160.808741 69.899294 
L 160.808741 68.467765 
L 161.071844 68.467765 
L 161.071844 67.036235 
L 161.391854 67.036235 
L 161.391854 65.604706 
L 161.721364 65.604706 
L 161.795455 62.741647 
L 162.17609 62.741647 
L 162.17609 61.310118 
L 162.6625 61.310118 
L 162.6625 59.878588 
L 162.970663 59.878588 
L 162.970663 58.447059 
L 163.150415 58.447059 
L 163.150415 57.015529 
L 163.464289 57.015529 
L 163.464289 55.584 
L 163.852722 55.584 
L 163.852722 54.152471 
L 164.233297 54.152471 
L 164.272231 51.289412 
L 164.580835 51.289412 
L 164.580835 49.857882 
L 165.35539 49.857882 
L 165.35539 48.426353 
L 165.670946 48.426353 
L 165.778956 19.795765 
L 165.802874 19.795765 
L 165.802874 18.364235 
L 165.933882 18.364235 
L 165.981296 15.501176 
L 166.075768 15.501176 
L 166.075768 14.069647 
L 166.47206 14.069647 
L 166.47206 12.638118 
L 167.062453 12.638118 
L 167.062453 11.206588 
L 167.251516 11.206588 
L 167.251516 9.775059 
L 167.383837 9.775059 
L 167.383837 8.343529 
L 167.667378 8.343529 
L 167.667378 6.912 
L 360.8064 6.912 
L 360.8064 6.912 
" style="fill:none;stroke:#f5deb3;stroke-linecap:square;stroke-width:4;"/>
   </g>
   <g id="line2d_2">
    <defs>
     <path d="M -0 7.778175 
L 7.778175 0 
L 0 -7.778175 
L -7.778175 -0 
z
" id="mdbb8692fc0" style="stroke:#f5deb3;stroke-linejoin:miter;stroke-width:1.5;"/>
    </defs>
    <g>
     <use style="fill:#f5deb3;stroke:#f5deb3;stroke-linejoin:miter;stroke-width:1.5;" x="88.613828" xlink:href="#mdbb8692fc0" y="278.902588"/>
     <use style="fill:#f5deb3;stroke:#f5deb3;stroke-linejoin:miter;stroke-width:1.5;" x="138.667556" xlink:href="#mdbb8692fc0" y="160.085647"/>
     <use style="fill:#f5deb3;stroke:#f5deb3;stroke-linejoin:miter;stroke-width:1.5;" x="163.464289" xlink:href="#mdbb8692fc0" y="55.584"/>
     <use style="fill:#f5deb3;stroke:#f5deb3;stroke-linejoin:miter;stroke-width:1.5;" x="167.667378" xlink:href="#mdbb8692fc0" y="8.343529"/>
     <use style="fill:#f5deb3;stroke:#f5deb3;stroke-linejoin:miter;stroke-width:1.5;" x="167.667378" xlink:href="#mdbb8692fc0" y="6.912"/>
     <use style="fill:#f5deb3;stroke:#f5deb3;stroke-linejoin:miter;stroke-width:1.5;" x="360.8064" xlink:href="#mdbb8692fc0" y="6.912"/>
    </g>
   </g>
   <g id="line2d_3">
    <path style="fill:none;stroke:#f5deb3;stroke-linecap:square;stroke-width:4;"/>
    <g/>
   </g>
   <g id="line2d_4">
    <path d="M 360.8064 6.912 
L 380.514816 12.75264 
" style="fill:none;stroke:#f5deb3;stroke-linecap:square;stroke-width:4;"/>
    <g>
     <use style="fill:#f5deb3;stroke:#f5deb3;stroke-linejoin:miter;stroke-width:1.5;" x="360.8064" xlink:href="#mdbb8692fc0" y="6.912"/>
     <use style="fill:#f5deb3;stroke:#f5deb3;stroke-linejoin:miter;stroke-width:1.5;" x="380.514816" xlink:href="#mdbb8692fc0" y="12.75264"/>
    </g>
   </g>
   <g id="matplotlib.axis_1">
    <g id="xtick_1">
     <g id="line2d_5">
      <path clip-path="url(#pd3f817f3a8)" d="M 57.6 298.944 
L 57.6 6.912 
" style="fill:none;stroke:#b0b0b0;stroke-linecap:square;stroke-width:0.8;"/>
     </g>
     <g id="line2d_6">
      <defs>
       <path d="M 0 0 
L 0 3.5 
" id="ma59d530376" style="stroke:#000000;stroke-width:0.8;"/>
      </defs>
      <g>
       <use style="stroke:#000000;stroke-width:0.8;" x="57.6" xlink:href="#ma59d530376" y="298.944"/>
      </g>
     </g>
     <g id="text_1">
      <!-- 0 -->
      <g transform="translate(52.191875 318.861344)scale(0.17 -0.17)">
       <defs>
        <path d="M 2034 4250 
Q 1547 4250 1301 3770 
Q 1056 3291 1056 2328 
Q 1056 1369 1301 889 
Q 1547 409 2034 409 
Q 2525 409 2770 889 
Q 3016 1369 3016 2328 
Q 3016 3291 2770 3770 
Q 2525 4250 2034 4250 
z
M 2034 4750 
Q 2819 4750 3233 4129 
Q 3647 3509 3647 2328 
Q 3647 1150 3233 529 
Q 2819 -91 2034 -91 
Q 1250 -91 836 529 
Q 422 1150 422 2328 
Q 422 3509 836 4129 
Q 1250 4750 2034 4750 
z
" id="DejaVuSans-30" transform="scale(0.015625)"/>
       </defs>
       <use xlink:href="#DejaVuSans-30"/>
      </g>
     </g>
    </g>
    <g id="xtick_2">
     <g id="line2d_7">
      <path clip-path="url(#pd3f817f3a8)" d="M 144.2304 298.944 
L 144.2304 6.912 
" style="fill:none;stroke:#b0b0b0;stroke-linecap:square;stroke-width:0.8;"/>
     </g>
     <g id="line2d_8">
      <g>
       <use style="stroke:#000000;stroke-width:0.8;" x="144.2304" xlink:href="#ma59d530376" y="298.944"/>
      </g>
     </g>
     <g id="text_2">
      <!-- 2 -->
      <g transform="translate(138.822275 318.861344)scale(0.17 -0.17)">
       <defs>
        <path d="M 1228 531 
L 3431 531 
L 3431 0 
L 469 0 
L 469 531 
Q 828 903 1448 1529 
Q 2069 2156 2228 2338 
Q 2531 2678 2651 2914 
Q 2772 3150 2772 3378 
Q 2772 3750 2511 3984 
Q 2250 4219 1831 4219 
Q 1534 4219 1204 4116 
Q 875 4013 500 3803 
L 500 4441 
Q 881 4594 1212 4672 
Q 1544 4750 1819 4750 
Q 2544 4750 2975 4387 
Q 3406 4025 3406 3419 
Q 3406 3131 3298 2873 
Q 3191 2616 2906 2266 
Q 2828 2175 2409 1742 
Q 1991 1309 1228 531 
z
" id="DejaVuSans-32" transform="scale(0.015625)"/>
       </defs>
       <use xlink:href="#DejaVuSans-32"/>
      </g>
     </g>
    </g>
    <g id="xtick_3">
     <g id="line2d_9">
      <path clip-path="url(#pd3f817f3a8)" d="M 230.8608 298.944 
L 230.8608 6.912 
" style="fill:none;stroke:#b0b0b0;stroke-linecap:square;stroke-width:0.8;"/>
     </g>
     <g id="line2d_10">
      <g>
       <use style="stroke:#000000;stroke-width:0.8;" x="230.8608" xlink:href="#ma59d530376" y="298.944"/>
      </g>
     </g>
     <g id="text_3">
      <!-- 4 -->
      <g transform="translate(225.452675 318.861344)scale(0.17 -0.17)">
       <defs>
        <path d="M 2419 4116 
L 825 1625 
L 2419 1625 
L 2419 4116 
z
M 2253 4666 
L 3047 4666 
L 3047 1625 
L 3713 1625 
L 3713 1100 
L 3047 1100 
L 3047 0 
L 2419 0 
L 2419 1100 
L 313 1100 
L 313 1709 
L 2253 4666 
z
" id="DejaVuSans-34" transform="scale(0.015625)"/>
       </defs>
       <use xlink:href="#DejaVuSans-34"/>
      </g>
     </g>
    </g>
    <g id="xtick_4">
     <g id="line2d_11">
      <path clip-path="url(#pd3f817f3a8)" d="M 317.4912 298.944 
L 317.4912 6.912 
" style="fill:none;stroke:#b0b0b0;stroke-linecap:square;stroke-width:0.8;"/>
     </g>
     <g id="line2d_12">
      <g>
       <use style="stroke:#000000;stroke-width:0.8;" x="317.4912" xlink:href="#ma59d530376" y="298.944"/>
      </g>
     </g>
     <g id="text_4">
      <!-- 6 -->
      <g transform="translate(312.083075 318.861344)scale(0.17 -0.17)">
       <defs>
        <path d="M 2113 2584 
Q 1688 2584 1439 2293 
Q 1191 2003 1191 1497 
Q 1191 994 1439 701 
Q 1688 409 2113 409 
Q 2538 409 2786 701 
Q 3034 994 3034 1497 
Q 3034 2003 2786 2293 
Q 2538 2584 2113 2584 
z
M 3366 4563 
L 3366 3988 
Q 3128 4100 2886 4159 
Q 2644 4219 2406 4219 
Q 1781 4219 1451 3797 
Q 1122 3375 1075 2522 
Q 1259 2794 1537 2939 
Q 1816 3084 2150 3084 
Q 2853 3084 3261 2657 
Q 3669 2231 3669 1497 
Q 3669 778 3244 343 
Q 2819 -91 2113 -91 
Q 1303 -91 875 529 
Q 447 1150 447 2328 
Q 447 3434 972 4092 
Q 1497 4750 2381 4750 
Q 2619 4750 2861 4703 
Q 3103 4656 3366 4563 
z
" id="DejaVuSans-36" transform="scale(0.015625)"/>
       </defs>
       <use xlink:href="#DejaVuSans-36"/>
      </g>
     </g>
    </g>
    <g id="xtick_5">
     <g id="line2d_13">
      <path clip-path="url(#pd3f817f3a8)" d="M 100.9152 298.944 
L 100.9152 6.912 
" style="fill:none;stroke:#b0b0b0;stroke-linecap:square;stroke-width:0.8;"/>
     </g>
     <g id="line2d_14">
      <defs>
       <path d="M 0 0 
L 0 2 
" id="m3ccd41d4a3" style="stroke:#000000;stroke-width:0.6;"/>
      </defs>
      <g>
       <use style="stroke:#000000;stroke-width:0.6;" x="100.9152" xlink:href="#m3ccd41d4a3" y="298.944"/>
      </g>
     </g>
    </g>
    <g id="xtick_6">
     <g id="line2d_15">
      <path clip-path="url(#pd3f817f3a8)" d="M 187.5456 298.944 
L 187.5456 6.912 
" style="fill:none;stroke:#b0b0b0;stroke-linecap:square;stroke-width:0.8;"/>
     </g>
     <g id="line2d_16">
      <g>
       <use style="stroke:#000000;stroke-width:0.6;" x="187.5456" xlink:href="#m3ccd41d4a3" y="298.944"/>
      </g>
     </g>
    </g>
    <g id="xtick_7">
     <g id="line2d_17">
      <path clip-path="url(#pd3f817f3a8)" d="M 274.176 298.944 
L 274.176 6.912 
" style="fill:none;stroke:#b0b0b0;stroke-linecap:square;stroke-width:0.8;"/>
     </g>
     <g id="line2d_18">
      <g>
       <use style="stroke:#000000;stroke-width:0.6;" x="274.176" xlink:href="#m3ccd41d4a3" y="298.944"/>
      </g>
     </g>
    </g>
    <g id="xtick_8">
     <g id="line2d_19">
      <path clip-path="url(#pd3f817f3a8)" d="M 360.8064 298.944 
L 360.8064 6.912 
" style="fill:none;stroke:#b0b0b0;stroke-linecap:square;stroke-width:0.8;"/>
     </g>
     <g id="line2d_20">
      <g>
       <use style="stroke:#000000;stroke-width:0.6;" x="360.8064" xlink:href="#m3ccd41d4a3" y="298.944"/>
      </g>
     </g>
    </g>
    <g id="text_5">
     <!-- log10(# f-evals / dimension) -->
     <g transform="translate(88.823278 339.314156)scale(0.17 -0.17)">
      <defs>
       <path d="M 603 4863 
L 1178 4863 
L 1178 0 
L 603 0 
L 603 4863 
z
" id="DejaVuSans-6c" transform="scale(0.015625)"/>
       <path d="M 1959 3097 
Q 1497 3097 1228 2736 
Q 959 2375 959 1747 
Q 959 1119 1226 758 
Q 1494 397 1959 397 
Q 2419 397 2687 759 
Q 2956 1122 2956 1747 
Q 2956 2369 2687 2733 
Q 2419 3097 1959 3097 
z
M 1959 3584 
Q 2709 3584 3137 3096 
Q 3566 2609 3566 1747 
Q 3566 888 3137 398 
Q 2709 -91 1959 -91 
Q 1206 -91 779 398 
Q 353 888 353 1747 
Q 353 2609 779 3096 
Q 1206 3584 1959 3584 
z
" id="DejaVuSans-6f" transform="scale(0.015625)"/>
       <path d="M 2906 1791 
Q 2906 2416 2648 2759 
Q 2391 3103 1925 3103 
Q 1463 3103 1205 2759 
Q 947 2416 947 1791 
Q 947 1169 1205 825 
Q 1463 481 1925 481 
Q 2391 481 2648 825 
Q 2906 1169 2906 1791 
z
M 3481 434 
Q 3481 -459 3084 -895 
Q 2688 -1331 1869 -1331 
Q 1566 -1331 1297 -1286 
Q 1028 -1241 775 -1147 
L 775 -588 
Q 1028 -725 1275 -790 
Q 1522 -856 1778 -856 
Q 2344 -856 2625 -561 
Q 2906 -266 2906 331 
L 2906 616 
Q 2728 306 2450 153 
Q 2172 0 1784 0 
Q 1141 0 747 490 
Q 353 981 353 1791 
Q 353 2603 747 3093 
Q 1141 3584 1784 3584 
Q 2172 3584 2450 3431 
Q 2728 3278 2906 2969 
L 2906 3500 
L 3481 3500 
L 3481 434 
z
" id="DejaVuSans-67" transform="scale(0.015625)"/>
       <path d="M 794 531 
L 1825 531 
L 1825 4091 
L 703 3866 
L 703 4441 
L 1819 4666 
L 2450 4666 
L 2450 531 
L 3481 531 
L 3481 0 
L 794 0 
L 794 531 
z
" id="DejaVuSans-31" transform="scale(0.015625)"/>
       <path d="M 1984 4856 
Q 1566 4138 1362 3434 
Q 1159 2731 1159 2009 
Q 1159 1288 1364 580 
Q 1569 -128 1984 -844 
L 1484 -844 
Q 1016 -109 783 600 
Q 550 1309 550 2009 
Q 550 2706 781 3412 
Q 1013 4119 1484 4856 
L 1984 4856 
z
" id="DejaVuSans-28" transform="scale(0.015625)"/>
       <path d="M 3272 2816 
L 2363 2816 
L 2100 1772 
L 3016 1772 
L 3272 2816 
z
M 2803 4594 
L 2478 3297 
L 3391 3297 
L 3719 4594 
L 4219 4594 
L 3897 3297 
L 4872 3297 
L 4872 2816 
L 3775 2816 
L 3519 1772 
L 4513 1772 
L 4513 1294 
L 3397 1294 
L 3072 0 
L 2572 0 
L 2894 1294 
L 1978 1294 
L 1656 0 
L 1153 0 
L 1478 1294 
L 494 1294 
L 494 1772 
L 1594 1772 
L 1856 2816 
L 850 2816 
L 850 3297 
L 1978 3297 
L 2297 4594 
L 2803 4594 
z
" id="DejaVuSans-23" transform="scale(0.015625)"/>
       <path id="DejaVuSans-20" transform="scale(0.015625)"/>
       <path d="M 2375 4863 
L 2375 4384 
L 1825 4384 
Q 1516 4384 1395 4259 
Q 1275 4134 1275 3809 
L 1275 3500 
L 2222 3500 
L 2222 3053 
L 1275 3053 
L 1275 0 
L 697 0 
L 697 3053 
L 147 3053 
L 147 3500 
L 697 3500 
L 697 3744 
Q 697 4328 969 4595 
Q 1241 4863 1831 4863 
L 2375 4863 
z
" id="DejaVuSans-66" transform="scale(0.015625)"/>
       <path d="M 313 2009 
L 1997 2009 
L 1997 1497 
L 313 1497 
L 313 2009 
z
" id="DejaVuSans-2d" transform="scale(0.015625)"/>
       <path d="M 3597 1894 
L 3597 1613 
L 953 1613 
Q 991 1019 1311 708 
Q 1631 397 2203 397 
Q 2534 397 2845 478 
Q 3156 559 3463 722 
L 3463 178 
Q 3153 47 2828 -22 
Q 2503 -91 2169 -91 
Q 1331 -91 842 396 
Q 353 884 353 1716 
Q 353 2575 817 3079 
Q 1281 3584 2069 3584 
Q 2775 3584 3186 3129 
Q 3597 2675 3597 1894 
z
M 3022 2063 
Q 3016 2534 2758 2815 
Q 2500 3097 2075 3097 
Q 1594 3097 1305 2825 
Q 1016 2553 972 2059 
L 3022 2063 
z
" id="DejaVuSans-65" transform="scale(0.015625)"/>
       <path d="M 191 3500 
L 800 3500 
L 1894 563 
L 2988 3500 
L 3597 3500 
L 2284 0 
L 1503 0 
L 191 3500 
z
" id="DejaVuSans-76" transform="scale(0.015625)"/>
       <path d="M 2194 1759 
Q 1497 1759 1228 1600 
Q 959 1441 959 1056 
Q 959 750 1161 570 
Q 1363 391 1709 391 
Q 2188 391 2477 730 
Q 2766 1069 2766 1631 
L 2766 1759 
L 2194 1759 
z
M 3341 1997 
L 3341 0 
L 2766 0 
L 2766 531 
Q 2569 213 2275 61 
Q 1981 -91 1556 -91 
Q 1019 -91 701 211 
Q 384 513 384 1019 
Q 384 1609 779 1909 
Q 1175 2209 1959 2209 
L 2766 2209 
L 2766 2266 
Q 2766 2663 2505 2880 
Q 2244 3097 1772 3097 
Q 1472 3097 1187 3025 
Q 903 2953 641 2809 
L 641 3341 
Q 956 3463 1253 3523 
Q 1550 3584 1831 3584 
Q 2591 3584 2966 3190 
Q 3341 2797 3341 1997 
z
" id="DejaVuSans-61" transform="scale(0.015625)"/>
       <path d="M 2834 3397 
L 2834 2853 
Q 2591 2978 2328 3040 
Q 2066 3103 1784 3103 
Q 1356 3103 1142 2972 
Q 928 2841 928 2578 
Q 928 2378 1081 2264 
Q 1234 2150 1697 2047 
L 1894 2003 
Q 2506 1872 2764 1633 
Q 3022 1394 3022 966 
Q 3022 478 2636 193 
Q 2250 -91 1575 -91 
Q 1294 -91 989 -36 
Q 684 19 347 128 
L 347 722 
Q 666 556 975 473 
Q 1284 391 1588 391 
Q 1994 391 2212 530 
Q 2431 669 2431 922 
Q 2431 1156 2273 1281 
Q 2116 1406 1581 1522 
L 1381 1569 
Q 847 1681 609 1914 
Q 372 2147 372 2553 
Q 372 3047 722 3315 
Q 1072 3584 1716 3584 
Q 2034 3584 2315 3537 
Q 2597 3491 2834 3397 
z
" id="DejaVuSans-73" transform="scale(0.015625)"/>
       <path d="M 1625 4666 
L 2156 4666 
L 531 -594 
L 0 -594 
L 1625 4666 
z
" id="DejaVuSans-2f" transform="scale(0.015625)"/>
       <path d="M 2906 2969 
L 2906 4863 
L 3481 4863 
L 3481 0 
L 2906 0 
L 2906 525 
Q 2725 213 2448 61 
Q 2172 -91 1784 -91 
Q 1150 -91 751 415 
Q 353 922 353 1747 
Q 353 2572 751 3078 
Q 1150 3584 1784 3584 
Q 2172 3584 2448 3432 
Q 2725 3281 2906 2969 
z
M 947 1747 
Q 947 1113 1208 752 
Q 1469 391 1925 391 
Q 2381 391 2643 752 
Q 2906 1113 2906 1747 
Q 2906 2381 2643 2742 
Q 2381 3103 1925 3103 
Q 1469 3103 1208 2742 
Q 947 2381 947 1747 
z
" id="DejaVuSans-64" transform="scale(0.015625)"/>
       <path d="M 603 3500 
L 1178 3500 
L 1178 0 
L 603 0 
L 603 3500 
z
M 603 4863 
L 1178 4863 
L 1178 4134 
L 603 4134 
L 603 4863 
z
" id="DejaVuSans-69" transform="scale(0.015625)"/>
       <path d="M 3328 2828 
Q 3544 3216 3844 3400 
Q 4144 3584 4550 3584 
Q 5097 3584 5394 3201 
Q 5691 2819 5691 2113 
L 5691 0 
L 5113 0 
L 5113 2094 
Q 5113 2597 4934 2840 
Q 4756 3084 4391 3084 
Q 3944 3084 3684 2787 
Q 3425 2491 3425 1978 
L 3425 0 
L 2847 0 
L 2847 2094 
Q 2847 2600 2669 2842 
Q 2491 3084 2119 3084 
Q 1678 3084 1418 2786 
Q 1159 2488 1159 1978 
L 1159 0 
L 581 0 
L 581 3500 
L 1159 3500 
L 1159 2956 
Q 1356 3278 1631 3431 
Q 1906 3584 2284 3584 
Q 2666 3584 2933 3390 
Q 3200 3197 3328 2828 
z
" id="DejaVuSans-6d" transform="scale(0.015625)"/>
       <path d="M 3513 2113 
L 3513 0 
L 2938 0 
L 2938 2094 
Q 2938 2591 2744 2837 
Q 2550 3084 2163 3084 
Q 1697 3084 1428 2787 
Q 1159 2491 1159 1978 
L 1159 0 
L 581 0 
L 581 3500 
L 1159 3500 
L 1159 2956 
Q 1366 3272 1645 3428 
Q 1925 3584 2291 3584 
Q 2894 3584 3203 3211 
Q 3513 2838 3513 2113 
z
" id="DejaVuSans-6e" transform="scale(0.015625)"/>
       <path d="M 513 4856 
L 1013 4856 
Q 1481 4119 1714 3412 
Q 1947 2706 1947 2009 
Q 1947 1309 1714 600 
Q 1481 -109 1013 -844 
L 513 -844 
Q 928 -128 1133 580 
Q 1338 1288 1338 2009 
Q 1338 2731 1133 3434 
Q 928 4138 513 4856 
z
" id="DejaVuSans-29" transform="scale(0.015625)"/>
      </defs>
      <use xlink:href="#DejaVuSans-6c"/>
      <use x="27.783203" xlink:href="#DejaVuSans-6f"/>
      <use x="88.964844" xlink:href="#DejaVuSans-67"/>
      <use x="152.441406" xlink:href="#DejaVuSans-31"/>
      <use x="216.064453" xlink:href="#DejaVuSans-30"/>
      <use x="279.6875" xlink:href="#DejaVuSans-28"/>
      <use x="318.701172" xlink:href="#DejaVuSans-23"/>
      <use x="402.490234" xlink:href="#DejaVuSans-20"/>
      <use x="434.277344" xlink:href="#DejaVuSans-66"/>
      <use x="463.982422" xlink:href="#DejaVuSans-2d"/>
      <use x="500.066406" xlink:href="#DejaVuSans-65"/>
      <use x="561.589844" xlink:href="#DejaVuSans-76"/>
      <use x="620.769531" xlink:href="#DejaVuSans-61"/>
      <use x="682.048828" xlink:href="#DejaVuSans-6c"/>
      <use x="709.832031" xlink:href="#DejaVuSans-73"/>
      <use x="761.931641" xlink:href="#DejaVuSans-20"/>
      <use x="793.71875" xlink:href="#DejaVuSans-2f"/>
      <use x="827.410156" xlink:href="#DejaVuSans-20"/>
      <use x="859.197266" xlink:href="#DejaVuSans-64"/>
      <use x="922.673828" xlink:href="#DejaVuSans-69"/>
      <use x="950.457031" xlink:href="#DejaVuSans-6d"/>
      <use x="1047.869141" xlink:href="#DejaVuSans-65"/>
      <use x="1109.392578" xlink:href="#DejaVuSans-6e"/>
      <use x="1172.771484" xlink:href="#DejaVuSans-73"/>
      <use x="1224.871094" xlink:href="#DejaVuSans-69"/>
      <use x="1252.654297" xlink:href="#DejaVuSans-6f"/>
      <use x="1313.835938" xlink:href="#DejaVuSans-6e"/>
      <use x="1377.214844" xlink:href="#DejaVuSans-29"/>
     </g>
    </g>
   </g>
   <g id="matplotlib.axis_2">
    <g id="ytick_1">
     <g id="line2d_21">
      <path clip-path="url(#pd3f817f3a8)" d="M 57.6 298.944 
L 360.8064 298.944 
" style="fill:none;stroke:#b0b0b0;stroke-linecap:square;stroke-width:0.8;"/>
     </g>
     <g id="line2d_22">
      <defs>
       <path d="M 0 0 
L -3.5 0 
" id="m4a59537aaf" style="stroke:#000000;stroke-width:0.8;"/>
      </defs>
      <g>
       <use style="stroke:#000000;stroke-width:0.8;" x="57.6" xlink:href="#m4a59537aaf" y="298.944"/>
      </g>
     </g>
     <g id="text_6">
      <!-- 0.0 -->
      <g transform="translate(25.155 305.02275)scale(0.16 -0.16)">
       <defs>
        <path d="M 684 794 
L 1344 794 
L 1344 0 
L 684 0 
L 684 794 
z
" id="DejaVuSans-2e" transform="scale(0.015625)"/>
       </defs>
       <use xlink:href="#DejaVuSans-30"/>
       <use x="63.623047" xlink:href="#DejaVuSans-2e"/>
       <use x="95.410156" xlink:href="#DejaVuSans-30"/>
      </g>
     </g>
    </g>
    <g id="ytick_2">
     <g id="line2d_23">
      <path clip-path="url(#pd3f817f3a8)" d="M 57.6 240.5376 
L 360.8064 240.5376 
" style="fill:none;stroke:#b0b0b0;stroke-linecap:square;stroke-width:0.8;"/>
     </g>
     <g id="line2d_24">
      <g>
       <use style="stroke:#000000;stroke-width:0.8;" x="57.6" xlink:href="#m4a59537aaf" y="240.5376"/>
      </g>
     </g>
     <g id="text_7">
      <!-- 0.2 -->
      <g transform="translate(25.155 246.61635)scale(0.16 -0.16)">
       <use xlink:href="#DejaVuSans-30"/>
       <use x="63.623047" xlink:href="#DejaVuSans-2e"/>
       <use x="95.410156" xlink:href="#DejaVuSans-32"/>
      </g>
     </g>
    </g>
    <g id="ytick_3">
     <g id="line2d_25">
      <path clip-path="url(#pd3f817f3a8)" d="M 57.6 182.1312 
L 360.8064 182.1312 
" style="fill:none;stroke:#b0b0b0;stroke-linecap:square;stroke-width:0.8;"/>
     </g>
     <g id="line2d_26">
      <g>
       <use style="stroke:#000000;stroke-width:0.8;" x="57.6" xlink:href="#m4a59537aaf" y="182.1312"/>
      </g>
     </g>
     <g id="text_8">
      <!-- 0.4 -->
      <g transform="translate(25.155 188.20995)scale(0.16 -0.16)">
       <use xlink:href="#DejaVuSans-30"/>
       <use x="63.623047" xlink:href="#DejaVuSans-2e"/>
       <use x="95.410156" xlink:href="#DejaVuSans-34"/>
      </g>
     </g>
    </g>
    <g id="ytick_4">
     <g id="line2d_27">
      <path clip-path="url(#pd3f817f3a8)" d="M 57.6 123.7248 
L 360.8064 123.7248 
" style="fill:none;stroke:#b0b0b0;stroke-linecap:square;stroke-width:0.8;"/>
     </g>
     <g id="line2d_28">
      <g>
       <use style="stroke:#000000;stroke-width:0.8;" x="57.6" xlink:href="#m4a59537aaf" y="123.7248"/>
      </g>
     </g>
     <g id="text_9">
      <!-- 0.6 -->
      <g transform="translate(25.155 129.80355)scale(0.16 -0.16)">
       <use xlink:href="#DejaVuSans-30"/>
       <use x="63.623047" xlink:href="#DejaVuSans-2e"/>
       <use x="95.410156" xlink:href="#DejaVuSans-36"/>
      </g>
     </g>
    </g>
    <g id="ytick_5">
     <g id="line2d_29">
      <path clip-path="url(#pd3f817f3a8)" d="M 57.6 65.3184 
L 360.8064 65.3184 
" style="fill:none;stroke:#b0b0b0;stroke-linecap:square;stroke-width:0.8;"/>
     </g>
     <g id="line2d_30">
      <g>
       <use style="stroke:#000000;stroke-width:0.8;" x="57.6" xlink:href="#m4a59537aaf" y="65.3184"/>
      </g>
     </g>
     <g id="text_10">
      <!-- 0.8 -->
      <g transform="translate(25.155 71.39715)scale(0.16 -0.16)">
       <defs>
        <path d="M 2034 2216 
Q 1584 2216 1326 1975 
Q 1069 1734 1069 1313 
Q 1069 891 1326 650 
Q 1584 409 2034 409 
Q 2484 409 2743 651 
Q 3003 894 3003 1313 
Q 3003 1734 2745 1975 
Q 2488 2216 2034 2216 
z
M 1403 2484 
Q 997 2584 770 2862 
Q 544 3141 544 3541 
Q 544 4100 942 4425 
Q 1341 4750 2034 4750 
Q 2731 4750 3128 4425 
Q 3525 4100 3525 3541 
Q 3525 3141 3298 2862 
Q 3072 2584 2669 2484 
Q 3125 2378 3379 2068 
Q 3634 1759 3634 1313 
Q 3634 634 3220 271 
Q 2806 -91 2034 -91 
Q 1263 -91 848 271 
Q 434 634 434 1313 
Q 434 1759 690 2068 
Q 947 2378 1403 2484 
z
M 1172 3481 
Q 1172 3119 1398 2916 
Q 1625 2713 2034 2713 
Q 2441 2713 2670 2916 
Q 2900 3119 2900 3481 
Q 2900 3844 2670 4047 
Q 2441 4250 2034 4250 
Q 1625 4250 1398 4047 
Q 1172 3844 1172 3481 
z
" id="DejaVuSans-38" transform="scale(0.015625)"/>
       </defs>
       <use xlink:href="#DejaVuSans-30"/>
       <use x="63.623047" xlink:href="#DejaVuSans-2e"/>
       <use x="95.410156" xlink:href="#DejaVuSans-38"/>
      </g>
     </g>
    </g>
    <g id="ytick_6">
     <g id="line2d_31">
      <path clip-path="url(#pd3f817f3a8)" d="M 57.6 6.912 
L 360.8064 6.912 
" style="fill:none;stroke:#b0b0b0;stroke-linecap:square;stroke-width:0.8;"/>
     </g>
     <g id="line2d_32">
      <g>
       <use style="stroke:#000000;stroke-width:0.8;" x="57.6" xlink:href="#m4a59537aaf" y="6.912"/>
      </g>
     </g>
     <g id="text_11">
      <!-- 1.0 -->
      <g transform="translate(25.155 12.99075)scale(0.16 -0.16)">
       <use xlink:href="#DejaVuSans-31"/>
       <use x="63.623047" xlink:href="#DejaVuSans-2e"/>
       <use x="95.410156" xlink:href="#DejaVuSans-30"/>
      </g>
     </g>
    </g>
    <g id="text_12">
     <!-- Fraction of function,target pairs -->
     <g transform="translate(17.619531 287.313)rotate(-90)scale(0.17 -0.17)">
      <defs>
       <path d="M 628 4666 
L 3309 4666 
L 3309 4134 
L 1259 4134 
L 1259 2759 
L 3109 2759 
L 3109 2228 
L 1259 2228 
L 1259 0 
L 628 0 
L 628 4666 
z
" id="DejaVuSans-46" transform="scale(0.015625)"/>
       <path d="M 2631 2963 
Q 2534 3019 2420 3045 
Q 2306 3072 2169 3072 
Q 1681 3072 1420 2755 
Q 1159 2438 1159 1844 
L 1159 0 
L 581 0 
L 581 3500 
L 1159 3500 
L 1159 2956 
Q 1341 3275 1631 3429 
Q 1922 3584 2338 3584 
Q 2397 3584 2469 3576 
Q 2541 3569 2628 3553 
L 2631 2963 
z
" id="DejaVuSans-72" transform="scale(0.015625)"/>
       <path d="M 3122 3366 
L 3122 2828 
Q 2878 2963 2633 3030 
Q 2388 3097 2138 3097 
Q 1578 3097 1268 2742 
Q 959 2388 959 1747 
Q 959 1106 1268 751 
Q 1578 397 2138 397 
Q 2388 397 2633 464 
Q 2878 531 3122 666 
L 3122 134 
Q 2881 22 2623 -34 
Q 2366 -91 2075 -91 
Q 1284 -91 818 406 
Q 353 903 353 1747 
Q 353 2603 823 3093 
Q 1294 3584 2113 3584 
Q 2378 3584 2631 3529 
Q 2884 3475 3122 3366 
z
" id="DejaVuSans-63" transform="scale(0.015625)"/>
       <path d="M 1172 4494 
L 1172 3500 
L 2356 3500 
L 2356 3053 
L 1172 3053 
L 1172 1153 
Q 1172 725 1289 603 
Q 1406 481 1766 481 
L 2356 481 
L 2356 0 
L 1766 0 
Q 1100 0 847 248 
Q 594 497 594 1153 
L 594 3053 
L 172 3053 
L 172 3500 
L 594 3500 
L 594 4494 
L 1172 4494 
z
" id="DejaVuSans-74" transform="scale(0.015625)"/>
       <path d="M 544 1381 
L 544 3500 
L 1119 3500 
L 1119 1403 
Q 1119 906 1312 657 
Q 1506 409 1894 409 
Q 2359 409 2629 706 
Q 2900 1003 2900 1516 
L 2900 3500 
L 3475 3500 
L 3475 0 
L 2900 0 
L 2900 538 
Q 2691 219 2414 64 
Q 2138 -91 1772 -91 
Q 1169 -91 856 284 
Q 544 659 544 1381 
z
M 1991 3584 
L 1991 3584 
z
" id="DejaVuSans-75" transform="scale(0.015625)"/>
       <path d="M 750 794 
L 1409 794 
L 1409 256 
L 897 -744 
L 494 -744 
L 750 256 
L 750 794 
z
" id="DejaVuSans-2c" transform="scale(0.015625)"/>
       <path d="M 1159 525 
L 1159 -1331 
L 581 -1331 
L 581 3500 
L 1159 3500 
L 1159 2969 
Q 1341 3281 1617 3432 
Q 1894 3584 2278 3584 
Q 2916 3584 3314 3078 
Q 3713 2572 3713 1747 
Q 3713 922 3314 415 
Q 2916 -91 2278 -91 
Q 1894 -91 1617 61 
Q 1341 213 1159 525 
z
M 3116 1747 
Q 3116 2381 2855 2742 
Q 2594 3103 2138 3103 
Q 1681 3103 1420 2742 
Q 1159 2381 1159 1747 
Q 1159 1113 1420 752 
Q 1681 391 2138 391 
Q 2594 391 2855 752 
Q 3116 1113 3116 1747 
z
" id="DejaVuSans-70" transform="scale(0.015625)"/>
      </defs>
      <use xlink:href="#DejaVuSans-46"/>
      <use x="50.269531" xlink:href="#DejaVuSans-72"/>
      <use x="91.382812" xlink:href="#DejaVuSans-61"/>
      <use x="152.662109" xlink:href="#DejaVuSans-63"/>
      <use x="207.642578" xlink:href="#DejaVuSans-74"/>
      <use x="246.851562" xlink:href="#DejaVuSans-69"/>
      <use x="274.634766" xlink:href="#DejaVuSans-6f"/>
      <use x="335.816406" xlink:href="#DejaVuSans-6e"/>
      <use x="399.195312" xlink:href="#DejaVuSans-20"/>
      <use x="430.982422" xlink:href="#DejaVuSans-6f"/>
      <use x="492.164062" xlink:href="#DejaVuSans-66"/>
      <use x="527.369141" xlink:href="#DejaVuSans-20"/>
      <use x="559.15625" xlink:href="#DejaVuSans-66"/>
      <use x="594.361328" xlink:href="#DejaVuSans-75"/>
      <use x="657.740234" xlink:href="#DejaVuSans-6e"/>
      <use x="721.119141" xlink:href="#DejaVuSans-63"/>
      <use x="776.099609" xlink:href="#DejaVuSans-74"/>
      <use x="815.308594" xlink:href="#DejaVuSans-69"/>
      <use x="843.091797" xlink:href="#DejaVuSans-6f"/>
      <use x="904.273438" xlink:href="#DejaVuSans-6e"/>
      <use x="967.652344" xlink:href="#DejaVuSans-2c"/>
      <use x="999.439453" xlink:href="#DejaVuSans-74"/>
      <use x="1038.648438" xlink:href="#DejaVuSans-61"/>
      <use x="1099.927734" xlink:href="#DejaVuSans-72"/>
      <use x="1139.291016" xlink:href="#DejaVuSans-67"/>
      <use x="1202.767578" xlink:href="#DejaVuSans-65"/>
      <use x="1264.291016" xlink:href="#DejaVuSans-74"/>
      <use x="1303.5" xlink:href="#DejaVuSans-20"/>
      <use x="1335.287109" xlink:href="#DejaVuSans-70"/>
      <use x="1398.763672" xlink:href="#DejaVuSans-61"/>
      <use x="1460.042969" xlink:href="#DejaVuSans-69"/>
      <use x="1487.826172" xlink:href="#DejaVuSans-72"/>
      <use x="1528.939453" xlink:href="#DejaVuSans-73"/>
     </g>
    </g>
   </g>
   <g id="line2d_33">
    <defs>
     <path d="M 0 1.5 
C 0.397805 1.5 0.77937 1.341951 1.06066 1.06066 
C 1.341951 0.77937 1.5 0.397805 1.5 0 
C 1.5 -0.397805 1.341951 -0.77937 1.06066 -1.06066 
C 0.77937 -1.341951 0.397805 -1.5 0 -1.5 
C -0.397805 -1.5 -0.77937 -1.341951 -1.06066 -1.06066 
C -1.341951 -0.77937 -1.5 -0.397805 -1.5 0 
C -1.5 0.397805 -1.341951 0.77937 -1.06066 1.06066 
C -0.77937 1.341951 -0.397805 1.5 0 1.5 
z
" id="mfd5096bb5e" style="stroke:#f5deb3;"/>
    </defs>
    <g>
     <use style="fill:#f5deb3;stroke:#f5deb3;" x="167.667378" xlink:href="#mfd5096bb5e" y="6.912"/>
     <use style="fill:#f5deb3;stroke:#f5deb3;" x="167.667378" xlink:href="#mfd5096bb5e" y="6.912"/>
    </g>
   </g>
   <g id="line2d_34">
    <defs>
     <path d="M 0 1.5 
C 0.397805 1.5 0.77937 1.341951 1.06066 1.06066 
C 1.341951 0.77937 1.5 0.397805 1.5 0 
C 1.5 -0.397805 1.341951 -0.77937 1.06066 -1.06066 
C 0.77937 -1.341951 0.397805 -1.5 0 -1.5 
C -0.397805 -1.5 -0.77937 -1.341951 -1.06066 -1.06066 
C -1.341951 -0.77937 -1.5 -0.397805 -1.5 0 
C -1.5 0.397805 -1.341951 0.77937 -1.06066 1.06066 
C -0.77937 1.341951 -0.397805 1.5 0 1.5 
z
" id="ma6e7b0f7fb" style="stroke:#000080;"/>
    </defs>
    <g>
     <use style="fill:#000080;stroke:#000080;" x="304.770222" xlink:href="#ma6e7b0f7fb" y="77.056941"/>
     <use style="fill:#000080;stroke:#000080;" x="304.770222" xlink:href="#ma6e7b0f7fb" y="77.056941"/>
    </g>
   </g>
   <g id="line2d_35">
    <path d="M 40.363149 298.944 
L 40.363149 298.466824 
L 47.990577 298.466824 
L 47.990577 297.989647 
L 57.6 297.894212 
L 57.6 297.703341 
L 66.441498 297.607906 
L 66.441498 297.512471 
L 76.96874 297.512471 
L 76.96874 297.3216 
L 79.480672 297.3216 
L 79.480672 297.130729 
L 80.621116 297.130729 
L 80.621116 296.939859 
L 84.596168 296.844424 
L 84.596168 296.748988 
L 86.307488 296.748988 
L 86.307488 296.462682 
L 87.876026 296.462682 
L 87.876026 296.271812 
L 95.250946 296.176376 
L 95.250946 296.080941 
L 96.241256 296.080941 
L 96.241256 295.890071 
L 102.011329 295.794635 
L 102.011329 295.603765 
L 106.42077 295.508329 
L 106.42077 295.222024 
L 112.589207 295.222024 
L 112.589207 295.031153 
L 112.989468 295.031153 
L 112.989468 294.840282 
L 113.765312 294.744847 
L 113.765312 294.649412 
L 114.141556 294.649412 
L 114.141556 294.172235 
L 115.227139 294.172235 
L 115.227139 293.790494 
L 116.253478 293.790494 
L 116.253478 293.504188 
L 116.907859 293.504188 
L 116.907859 293.217882 
L 117.540239 293.217882 
L 117.540239 292.931576 
L 118.450653 292.931576 
L 118.450653 292.4544 
L 122.439807 292.4544 
L 122.439807 292.263529 
L 123.601383 292.263529 
L 123.601383 292.072659 
L 124.265389 292.072659 
L 124.265389 291.690918 
L 125.322496 291.595482 
L 125.322496 291.404612 
L 125.526971 291.404612 
L 125.526971 291.213741 
L 125.729248 291.213741 
L 125.729248 291.022871 
L 127.458055 290.927435 
L 127.458055 290.832 
L 129.209231 290.736565 
L 129.209231 290.641129 
L 130.027253 290.545694 
L 130.027253 290.450259 
L 130.656987 290.354824 
L 130.656987 290.259388 
L 131.41562 290.259388 
L 131.41562 289.973082 
L 133.918257 289.877647 
L 133.918257 289.686776 
L 134.047992 289.686776 
L 134.047992 289.400471 
L 136.126705 289.305035 
L 136.126705 289.018729 
L 137.466966 288.923294 
L 137.466966 288.827859 
L 138.718057 288.732424 
L 138.718057 288.636988 
L 138.918715 288.636988 
L 138.918715 288.446118 
L 139.891105 288.350682 
L 139.891105 288.255247 
L 140.451292 288.159812 
L 140.543056 287.968941 
L 140.634374 287.968941 
L 140.634374 287.778071 
L 140.815692 287.778071 
L 140.815692 287.396329 
L 141.523975 287.300894 
L 141.523975 287.205459 
L 141.953481 287.110024 
L 142.038218 286.537412 
L 142.122575 286.537412 
L 142.122575 286.346541 
L 142.373399 286.346541 
L 142.373399 286.155671 
L 142.538777 286.155671 
L 142.538777 285.773929 
L 142.784148 285.678494 
L 142.784148 285.392188 
L 143.265494 285.296753 
L 143.265494 285.010447 
L 144.491935 284.915012 
L 144.565997 284.724141 
L 144.71325 284.724141 
L 144.786447 284.3424 
L 145.361989 284.246965 
L 145.361989 284.151529 
L 145.573357 284.151529 
L 145.573357 283.865224 
L 145.851536 283.769788 
L 145.851536 283.674353 
L 146.462796 283.578918 
L 146.462796 283.483482 
L 146.924857 283.388047 
L 146.924857 283.197176 
L 147.248088 283.197176 
L 147.248088 282.910871 
L 147.565858 282.910871 
L 147.565858 282.624565 
L 147.940229 282.529129 
L 148.001907 282.242824 
L 148.246613 282.147388 
L 148.246613 282.051953 
L 148.726679 282.051953 
L 148.726679 281.861082 
L 149.020615 281.765647 
L 149.078856 281.193035 
L 149.538397 281.0976 
L 149.538397 281.002165 
L 149.931489 280.906729 
L 150.042308 280.620424 
L 150.207323 280.524988 
L 150.316534 280.143247 
L 150.370903 280.143247 
L 150.425115 279.761506 
L 150.853277 279.666071 
L 150.958812 279.284329 
L 151.32359 279.188894 
L 151.426526 278.902588 
L 151.681429 278.807153 
L 151.782431 278.520847 
L 151.832729 278.520847 
L 151.882893 277.948235 
L 151.982822 277.948235 
L 152.082223 277.661929 
L 152.377312 277.566494 
L 152.377312 277.471059 
L 152.571498 277.375624 
L 152.667844 276.898447 
L 153.189104 276.803012 
L 153.235783 276.325835 
L 153.328795 276.325835 
L 153.328795 276.134965 
L 153.467455 276.134965 
L 153.559331 275.753224 
L 154.012098 275.657788 
L 154.101358 275.276047 
L 154.190197 275.276047 
L 154.234459 274.894306 
L 154.497869 274.798871 
L 154.541415 274.608 
L 154.714595 274.608 
L 154.757642 274.130824 
L 155.557358 274.035388 
L 155.598521 273.653647 
L 155.843627 273.653647 
L 155.924624 273.271906 
L 156.560344 273.176471 
L 156.560344 273.081035 
L 156.75468 273.081035 
L 156.75468 272.699294 
L 157.175281 272.603859 
L 157.175281 272.508424 
L 157.400797 272.412988 
L 157.438121 272.222118 
L 157.770751 272.126682 
L 157.807349 271.935812 
L 157.953034 271.840376 
L 158.025456 271.458635 
L 158.0976 271.458635 
L 158.133569 271.172329 
L 158.312387 271.172329 
L 158.312387 270.981459 
L 158.873444 270.886024 
L 158.976805 270.504282 
L 159.451784 270.408847 
L 159.552023 270.122541 
L 159.68485 270.122541 
L 159.783859 269.645365 
L 159.849576 269.549929 
L 159.849576 269.263624 
L 160.012872 269.168188 
L 160.110173 268.881882 
L 160.174762 268.881882 
L 160.271232 268.404706 
L 160.494422 268.309271 
L 160.589271 267.927529 
L 160.839886 267.832094 
L 160.839886 267.736659 
L 161.056469 267.641224 
L 161.148532 267.164047 
L 161.691646 267.068612 
L 161.751035 266.591435 
L 162.132562 266.496 
L 162.219518 266.114259 
L 162.676617 266.018824 
L 162.761101 265.637082 
L 162.817213 265.637082 
L 162.817213 265.446212 
L 163.040002 265.350776 
L 163.040002 265.255341 
L 163.205379 265.255341 
L 163.314829 264.778165 
L 163.3965 264.778165 
L 163.3965 264.587294 
L 163.879217 264.491859 
L 163.879217 264.396424 
L 164.037409 264.396424 
L 164.063646 263.823812 
L 164.349858 263.728376 
L 164.349858 263.632941 
L 164.657201 263.537506 
L 164.733259 263.2512 
L 164.884457 263.155765 
L 164.884457 263.060329 
L 165.183257 263.060329 
L 165.207944 262.678588 
L 165.404283 262.678588 
L 165.50169 262.105976 
L 165.933882 262.010541 
L 166.028591 261.724235 
L 166.075768 261.724235 
L 166.169767 261.437929 
L 166.286609 261.342494 
L 166.333144 261.056188 
L 166.564105 260.960753 
L 166.564105 260.769882 
L 166.701332 260.769882 
L 166.769573 260.388141 
L 166.950346 260.292706 
L 166.950346 260.101835 
L 167.284683 260.0064 
L 167.284683 259.815529 
L 167.978675 259.720094 
L 168.063651 259.338353 
L 168.689024 259.242918 
L 168.79126 258.861176 
L 168.953693 258.861176 
L 168.953693 258.670306 
L 169.511408 258.574871 
L 169.531024 258.097694 
L 169.803519 258.002259 
L 169.8614 257.811388 
L 169.976632 257.715953 
L 170.053063 257.525082 
L 170.28051 257.429647 
L 170.374474 257.047906 
L 170.672043 256.952471 
L 170.672043 256.666165 
L 170.873925 256.666165 
L 170.92861 256.284424 
L 171.127772 256.188988 
L 171.235523 255.998118 
L 171.307016 255.902682 
L 171.378239 255.520941 
L 171.71291 255.520941 
L 171.765213 255.234635 
L 171.990192 255.1392 
L 172.041731 254.948329 
L 172.144386 254.948329 
L 172.212513 254.471153 
L 172.465815 254.375718 
L 172.465815 254.280282 
L 172.632807 254.280282 
L 172.632807 254.089412 
L 172.946065 253.993976 
L 173.043915 253.612235 
L 173.205875 253.5168 
L 173.302386 253.230494 
L 173.683553 253.135059 
L 173.793288 252.848753 
L 173.979927 252.753318 
L 174.087951 252.371576 
L 174.225934 252.276141 
L 174.225934 252.180706 
L 174.618958 252.085271 
L 174.723384 251.703529 
L 174.930512 251.608094 
L 175.003938 251.321788 
L 175.135386 251.226353 
L 175.236991 250.844612 
L 175.280369 250.844612 
L 175.366826 250.462871 
L 175.409906 250.462871 
L 175.467193 249.794824 
L 175.595454 249.699388 
L 175.65218 249.317647 
L 175.751039 249.317647 
L 175.821337 248.935906 
L 175.975072 248.840471 
L 175.975072 248.6496 
L 176.237692 248.554165 
L 176.237692 248.458729 
L 176.456037 248.458729 
L 176.550771 247.886118 
L 176.725451 247.790682 
L 176.725451 247.599812 
L 176.872001 247.504376 
L 176.964669 247.218071 
L 177.083146 247.122635 
L 177.135565 246.931765 
L 177.239965 246.836329 
L 177.330842 246.550024 
L 177.51129 246.454588 
L 177.613631 246.263718 
L 177.816658 246.168282 
L 177.816658 246.072847 
L 178.067399 245.977412 
L 178.154375 245.500235 
L 178.203895 245.500235 
L 178.203895 245.309365 
L 178.412915 245.213929 
L 178.522639 244.545882 
L 178.583321 244.545882 
L 178.692059 244.259576 
L 178.7762 244.164141 
L 178.883832 243.591529 
L 179.120831 243.591529 
L 179.120831 243.400659 
L 179.308303 243.305224 
L 179.412941 242.923482 
L 179.436116 242.828047 
L 179.436116 242.637176 
L 179.80307 242.541741 
L 179.814423 242.350871 
L 180.196396 242.255435 
L 180.263006 242.064565 
L 180.59256 241.969129 
L 180.59256 241.873694 
L 180.884301 241.778259 
L 180.959205 241.587388 
L 181.055074 241.491953 
L 181.139882 241.301082 
L 181.203239 241.205647 
L 181.297875 240.919341 
L 181.464951 240.823906 
L 181.527223 240.5376 
L 181.794715 240.442165 
L 181.794715 240.346729 
L 181.987812 240.251294 
L 181.987812 240.155859 
L 182.178947 240.155859 
L 182.198954 239.774118 
L 182.535857 239.774118 
L 182.643576 239.392376 
L 183.116059 239.296941 
L 183.116059 239.201506 
L 183.324394 239.106071 
L 183.333809 238.9152 
L 183.623367 238.819765 
L 183.623367 238.724329 
L 183.835357 238.628894 
L 183.908536 238.342588 
L 184.026848 238.247153 
L 184.026848 238.151718 
L 184.234363 238.056282 
L 184.234363 237.960847 
L 184.563463 237.865412 
L 184.633869 237.674541 
L 185.042265 237.579106 
L 185.110905 237.2928 
L 185.187826 237.2928 
L 185.298382 236.911059 
L 185.48401 236.815624 
L 185.542692 236.433882 
L 185.709351 236.338447 
L 185.734223 236.147576 
L 185.997499 236.052141 
L 185.997499 235.956706 
L 186.119652 235.956706 
L 186.176387 235.384094 
L 186.345571 235.288659 
L 186.433588 234.811482 
L 186.584653 234.716047 
L 186.671561 234.048 
L 186.898776 233.952565 
L 186.953212 233.666259 
L 187.161716 233.570824 
L 187.19241 233.284518 
L 187.496626 233.189082 
L 187.53431 232.902776 
L 187.646909 232.902776 
L 187.743953 232.330165 
L 187.94392 232.234729 
L 188.017446 231.948424 
L 188.192744 231.852988 
L 188.192744 231.757553 
L 188.402406 231.662118 
L 188.488484 231.375812 
L 188.638179 231.280376 
L 188.744379 230.8032 
L 188.982903 230.707765 
L 189.066371 230.421459 
L 189.559547 230.326024 
L 189.633768 230.135153 
L 189.874645 230.039718 
L 189.960876 229.371671 
L 190.013745 229.371671 
L 190.033533 228.989929 
L 190.489435 228.894494 
L 190.547257 228.608188 
L 190.655995 228.512753 
L 190.655995 228.417318 
L 190.789456 228.417318 
L 190.808445 227.940141 
L 190.978487 227.844706 
L 191.072294 227.367529 
L 191.239978 227.272094 
L 191.239978 227.176659 
L 191.375513 227.176659 
L 191.485684 224.504471 
L 191.522264 224.504471 
L 191.625525 224.027294 
L 191.667879 224.027294 
L 191.734245 223.740988 
L 191.78837 223.740988 
L 191.78837 223.454682 
L 191.973619 223.359247 
L 192.074438 223.072941 
L 192.151171 223.072941 
L 192.198237 222.786635 
L 192.332899 222.6912 
L 192.437618 222.309459 
L 192.478185 222.309459 
L 192.541757 222.023153 
L 192.622357 222.023153 
L 192.622357 221.832282 
L 192.742614 221.832282 
L 192.816676 219.350965 
L 193.24391 219.255529 
L 193.299409 218.969224 
L 193.40441 218.969224 
L 193.40441 218.682918 
L 193.558086 218.587482 
L 193.634456 218.014871 
L 193.780871 217.919435 
L 193.834811 217.728565 
L 193.936873 217.633129 
L 193.936873 217.537694 
L 194.165831 217.442259 
L 194.165831 217.346824 
L 194.329181 217.251388 
L 194.381574 216.678776 
L 194.563807 216.583341 
L 194.600043 216.2016 
L 194.703191 216.106165 
L 194.769935 215.915294 
L 195.039621 215.819859 
L 195.064865 215.533553 
L 195.200598 215.438118 
L 195.310476 215.056376 
L 195.48397 214.960941 
L 195.513552 214.770071 
L 195.611823 214.674635 
L 195.690072 214.197459 
L 195.767997 214.102024 
L 195.82623 213.911153 
L 195.918064 213.815718 
L 195.951786 213.433976 
L 196.299893 213.433976 
L 196.408249 213.052235 
L 196.459852 212.9568 
L 196.459852 212.765929 
L 196.576607 212.765929 
L 196.576607 212.575059 
L 196.821757 212.479624 
L 196.821757 212.384188 
L 196.9728 212.288753 
L 197.077359 211.811576 
L 197.136202 211.811576 
L 197.208372 211.048094 
L 197.262318 210.952659 
L 197.342949 210.666353 
L 197.409878 210.666353 
L 197.494315 208.375906 
L 197.543027 208.375906 
L 197.591612 205.799153 
L 197.70157 205.703718 
L 197.784711 203.126965 
L 198.186442 203.031529 
L 198.267472 202.554353 
L 198.314224 202.458918 
L 198.415828 201.790871 
L 198.621582 201.790871 
L 198.717389 201.218259 
L 198.754747 201.122824 
L 198.825109 200.741082 
L 198.919888 200.741082 
L 198.989637 200.263906 
L 199.095813 200.168471 
L 199.177081 199.882165 
L 199.274142 199.786729 
L 199.306385 199.595859 
L 199.482738 199.595859 
L 199.578239 199.023247 
L 199.673257 198.927812 
L 199.728463 198.546071 
L 199.850132 198.450635 
L 199.904823 198.259765 
L 200.160529 198.164329 
L 200.264142 197.782588 
L 200.298554 197.687153 
L 200.40521 195.301271 
L 200.605456 195.205835 
L 200.605456 195.1104 
L 200.80731 195.014965 
L 200.911129 194.251482 
L 200.940687 194.156047 
L 200.999663 193.869741 
L 201.095107 193.774306 
L 201.138995 193.583435 
L 201.306291 193.488 
L 201.306291 193.392565 
L 201.4757 193.297129 
L 201.500802 192.438212 
L 201.711048 192.342776 
L 201.767662 192.151906 
L 201.904947 192.056471 
L 202.009874 191.579294 
L 202.04472 191.579294 
L 202.117687 191.006682 
L 202.180005 190.911247 
L 202.252451 190.624941 
L 202.491939 190.529506 
L 202.525904 190.338635 
L 202.624057 190.2432 
L 202.630808 190.052329 
L 202.818841 189.956894 
L 202.92545 187.284706 
L 203.028155 187.189271 
L 203.117154 186.616659 
L 203.169695 186.521224 
L 203.274341 186.330353 
L 203.316687 186.234918 
L 203.316687 186.139482 
L 203.632882 186.044047 
L 203.728623 185.757741 
L 203.757251 185.757741 
L 203.833379 185.280565 
L 203.946997 185.185129 
L 204.038026 184.803388 
L 204.178411 184.707953 
L 204.277607 184.135341 
L 204.32701 184.039906 
L 204.357821 183.658165 
L 204.511122 183.562729 
L 204.617695 182.799247 
L 204.69345 182.703812 
L 204.753836 182.226635 
L 204.874028 182.226635 
L 204.942793 181.463153 
L 205.126915 181.367718 
L 205.126915 181.272282 
L 205.265301 181.176847 
L 205.318032 180.985976 
L 205.446309 180.890541 
L 205.446309 180.795106 
L 205.631347 180.699671 
L 205.631347 180.604235 
L 205.788923 180.5088 
L 205.897027 180.222494 
L 206.063652 180.127059 
L 206.077705 179.936188 
L 206.198131 179.840753 
L 206.30114 179.363576 
L 206.375954 179.268141 
L 206.475245 178.8864 
L 206.617747 178.790965 
L 206.617747 178.504659 
L 206.778136 178.409224 
L 206.886101 177.932047 
L 206.934484 177.932047 
L 206.996126 177.454871 
L 207.129438 177.359435 
L 207.216909 174.782682 
L 207.398499 174.687247 
L 207.437745 174.400941 
L 207.604277 174.305506 
L 207.715344 174.0192 
L 207.887105 173.923765 
L 207.948252 173.542024 
L 208.052253 173.446588 
L 208.062369 173.160282 
L 208.348406 173.064847 
L 208.452701 170.678965 
L 208.516976 170.583529 
L 208.610523 170.201788 
L 208.647322 170.201788 
L 208.720704 167.434165 
L 208.827816 167.338729 
L 208.936736 167.052424 
L 209.035428 166.956988 
L 209.035428 166.861553 
L 209.152701 166.861553 
L 209.169395 164.2848 
L 209.314246 164.189365 
L 209.41804 163.235012 
L 209.483795 163.139576 
L 209.584329 162.471529 
L 209.612289 162.376094 
L 209.670407 162.185224 
L 209.818376 162.089788 
L 209.921723 161.898918 
L 210.183284 161.803482 
L 210.289144 161.326306 
L 210.539031 161.230871 
L 210.556754 160.849129 
L 210.746226 160.849129 
L 210.833706 160.371953 
L 210.907746 160.371953 
L 210.979331 159.894776 
L 211.063581 159.799341 
L 211.115241 159.322165 
L 211.46028 159.226729 
L 211.46028 159.131294 
L 211.70768 159.035859 
L 211.70768 158.940424 
L 211.871512 158.844988 
L 211.972417 157.413459 
L 212.213215 157.318024 
L 212.286069 157.031718 
L 212.642204 156.936282 
L 212.693663 156.745412 
L 212.876588 156.649976 
L 212.966413 156.363671 
L 213.049994 156.268235 
L 213.092614 155.981929 
L 213.214128 155.886494 
L 213.317662 151.3056 
L 213.483278 151.210165 
L 213.543829 150.732988 
L 213.988166 150.637553 
L 214.0655 150.160376 
L 214.168121 150.064941 
L 214.255638 149.587765 
L 214.398795 149.492329 
L 214.481654 149.110588 
L 214.565938 149.015153 
L 214.635591 148.728847 
L 214.687217 148.633412 
L 214.740475 148.251671 
L 214.876484 148.156235 
L 214.944999 147.869929 
L 215.218316 147.774494 
L 215.244222 147.583624 
L 215.414316 147.583624 
L 215.467263 147.106447 
L 215.711275 147.011012 
L 215.817043 146.4384 
L 215.952163 146.342965 
L 216.063199 143.861647 
L 216.074763 143.766212 
L 216.15715 143.479906 
L 216.307807 143.384471 
L 216.332257 143.1936 
L 216.656853 143.098165 
L 216.703226 142.716424 
L 216.81628 142.620988 
L 216.870179 142.048376 
L 217.021537 141.952941 
L 217.113958 141.475765 
L 217.377744 141.380329 
L 217.485296 140.807718 
L 217.561744 140.712282 
L 217.65611 140.235106 
L 217.925928 140.139671 
L 218.019979 139.567059 
L 218.113561 139.471624 
L 218.202257 139.280753 
L 218.331592 139.185318 
L 218.407601 138.708141 
L 218.669802 138.612706 
L 218.741594 138.135529 
L 219.193286 138.040094 
L 219.225437 137.849224 
L 219.419967 137.753788 
L 219.491712 137.372047 
L 219.750195 137.276612 
L 219.836925 137.085741 
L 219.882838 136.990306 
L 219.894973 136.799435 
L 220.214387 136.704 
L 220.214387 136.608565 
L 220.567524 136.513129 
L 220.641509 136.322259 
L 220.805313 136.226824 
L 220.869413 135.940518 
L 221.191713 135.845082 
L 221.297096 135.654212 
L 221.615902 135.558776 
L 221.615902 135.463341 
L 221.822638 135.367906 
L 221.929394 135.0816 
L 222.477788 134.986165 
L 222.522383 134.699859 
L 222.698553 134.604424 
L 222.733358 134.413553 
L 222.984359 134.318118 
L 222.996936 134.031812 
L 223.321017 133.936376 
L 223.321017 133.840941 
L 223.491011 133.840941 
L 223.538824 133.554635 
L 224.175361 133.4592 
L 224.276007 133.077459 
L 224.366555 132.982024 
L 224.441856 132.695718 
L 224.820133 132.600282 
L 224.820133 132.504847 
L 225.216364 132.409412 
L 225.326758 132.218541 
L 225.47462 132.123106 
L 225.47462 132.027671 
L 225.979758 131.932235 
L 225.979758 131.741365 
L 226.416493 131.645929 
L 226.486883 131.073318 
L 226.671117 130.977882 
L 226.671117 130.882447 
L 228.747503 130.787012 
L 228.848264 130.405271 
L 228.960146 130.309835 
L 228.960146 130.2144 
L 229.171235 130.118965 
L 229.171235 130.023529 
L 229.353097 129.928094 
L 229.408453 129.737224 
L 229.540484 129.737224 
L 229.63549 129.260047 
L 229.7787 129.164612 
L 229.88599 128.782871 
L 230.198004 128.687435 
L 230.299835 128.210259 
L 230.326175 128.210259 
L 230.434245 127.637647 
L 230.495722 127.542212 
L 230.592143 127.065035 
L 230.700218 126.9696 
L 230.792579 126.683294 
L 230.82427 126.587859 
L 230.82427 126.492424 
L 231.143472 126.396988 
L 231.213759 126.110682 
L 231.357213 126.015247 
L 231.44714 125.538071 
L 231.533736 125.442635 
L 231.540269 125.251765 
L 231.764639 125.156329 
L 231.868342 124.774588 
L 231.901833 124.679153 
L 231.901833 124.583718 
L 232.030257 124.488282 
L 232.127586 123.820235 
L 232.14938 123.820235 
L 232.202706 123.343059 
L 232.379836 123.247624 
L 232.481591 122.388706 
L 232.6171 122.293271 
L 232.726444 121.338918 
L 232.780878 121.243482 
L 232.830413 120.766306 
L 232.979583 120.670871 
L 233.069457 120.098259 
L 233.112232 120.098259 
L 233.112232 119.811953 
L 233.497462 119.716518 
L 233.497462 119.525647 
L 233.679711 119.430212 
L 233.762441 118.8576 
L 233.838386 118.8576 
L 233.917864 118.380424 
L 233.991912 118.284988 
L 233.991912 118.189553 
L 234.161249 118.094118 
L 234.270161 117.807812 
L 234.427688 117.712376 
L 234.479906 117.521506 
L 234.558579 117.426071 
L 234.657229 116.948894 
L 234.931333 116.853459 
L 235.035286 116.567153 
L 235.105071 116.471718 
L 235.145261 116.185412 
L 235.328321 116.089976 
L 235.436011 115.6128 
L 235.672877 115.517365 
L 235.673459 115.326494 
L 235.87858 115.231059 
L 235.87858 115.135624 
L 236.146369 115.040188 
L 236.161135 114.563012 
L 236.341365 114.563012 
L 236.450692 114.085835 
L 236.602691 113.9904 
L 236.602691 113.894965 
L 236.871373 113.799529 
L 236.936859 113.608659 
L 237.005917 113.513224 
L 237.05362 113.226918 
L 237.455345 113.131482 
L 237.455345 113.036047 
L 238.084879 112.940612 
L 238.188123 112.558871 
L 238.494999 112.463435 
L 238.586543 111.890824 
L 238.929228 111.795388 
L 238.929228 111.509082 
L 239.085384 111.413647 
L 239.085384 111.318212 
L 239.223378 111.318212 
L 239.223378 111.127341 
L 239.45114 111.031906 
L 239.45114 110.936471 
L 239.619108 110.936471 
L 239.619108 110.650165 
L 241.002512 110.554729 
L 241.110168 110.363859 
L 241.356842 110.268424 
L 241.386967 110.077553 
L 241.614348 109.982118 
L 241.614348 109.886682 
L 241.876339 109.791247 
L 241.894764 109.600376 
L 242.213907 109.504941 
L 242.298898 109.314071 
L 242.619773 109.218635 
L 242.653973 108.741459 
L 242.780976 108.741459 
L 242.848335 108.168847 
L 242.976408 108.073412 
L 243.024162 107.787106 
L 243.205779 107.691671 
L 243.273971 107.5008 
L 243.400347 107.405365 
L 243.422742 107.214494 
L 243.633798 107.119059 
L 243.738444 106.928188 
L 243.917837 106.832753 
L 243.996605 106.641882 
L 244.082126 106.546447 
L 244.166518 105.8784 
L 244.366867 105.782965 
L 244.441953 105.401224 
L 244.564741 105.305788 
L 244.648446 105.019482 
L 245.030323 104.924047 
L 245.047321 104.733176 
L 245.51576 104.637741 
L 245.579181 104.351435 
L 246.046805 104.351435 
L 246.046805 104.160565 
L 246.337242 104.065129 
L 246.337242 103.969694 
L 246.564903 103.874259 
L 246.622611 103.683388 
L 247.262669 103.587953 
L 247.335839 103.206212 
L 248.575073 103.110776 
L 248.575073 103.015341 
L 248.950431 102.919906 
L 249.000701 102.729035 
L 249.133344 102.6336 
L 249.1996 102.347294 
L 249.439907 102.347294 
L 249.536069 101.965553 
L 249.69931 101.870118 
L 249.69931 101.774682 
L 249.87676 101.774682 
L 249.87676 101.488376 
L 250.010458 101.488376 
L 250.076139 100.820329 
L 250.561044 100.724894 
L 250.637198 100.534024 
L 250.733463 100.534024 
L 250.813874 100.152282 
L 251.141087 100.056847 
L 251.244237 99.865976 
L 251.656507 99.770541 
L 251.656507 99.675106 
L 251.894141 99.579671 
L 252.004507 99.007059 
L 252.304596 98.911624 
L 252.304596 98.816188 
L 252.423351 98.816188 
L 252.423351 98.625318 
L 252.693559 98.529882 
L 252.704636 98.243576 
L 253.841483 98.243576 
L 253.841483 97.957271 
L 254.348041 97.861835 
L 254.384492 97.480094 
L 254.578923 97.384659 
L 254.685465 97.098353 
L 254.789087 97.002918 
L 254.840054 96.716612 
L 255.109847 96.621176 
L 255.109847 96.239435 
L 255.440717 96.144 
L 255.532571 95.953129 
L 255.972757 95.953129 
L 255.972757 95.762259 
L 256.487851 95.666824 
L 256.493052 95.380518 
L 256.812025 95.285082 
L 256.812025 94.998776 
L 258.166235 94.903341 
L 258.236949 94.617035 
L 258.511813 94.5216 
L 258.596407 94.044424 
L 258.812372 93.948988 
L 258.812372 93.853553 
L 259.130318 93.758118 
L 259.130318 93.567247 
L 259.812312 93.471812 
L 259.884029 93.090071 
L 259.995174 93.090071 
L 259.995174 92.8992 
L 260.2646 92.803765 
L 260.340112 92.612894 
L 261.061051 92.517459 
L 261.061051 92.422024 
L 261.398435 92.326588 
L 261.485353 92.040282 
L 261.761346 91.944847 
L 261.778516 91.372235 
L 261.94403 91.2768 
L 261.94403 91.181365 
L 262.327625 91.085929 
L 262.43201 90.417882 
L 262.827488 90.322447 
L 262.855254 90.036141 
L 263.091659 89.940706 
L 263.180699 89.6544 
L 264.469699 89.558965 
L 264.469699 88.986353 
L 264.861908 88.890918 
L 264.960047 88.700047 
L 265.186135 88.604612 
L 265.186135 88.413741 
L 265.420567 88.318306 
L 265.506658 88.127435 
L 265.635415 88.032 
L 265.704837 87.650259 
L 266.605578 87.554824 
L 266.605578 87.459388 
L 266.782203 87.363953 
L 266.836747 87.173082 
L 267.677663 87.077647 
L 267.742073 86.886776 
L 267.98028 86.791341 
L 268.004635 86.600471 
L 268.840199 86.505035 
L 268.840199 86.4096 
L 269.750601 86.314165 
L 269.857401 86.027859 
L 271.110222 85.932424 
L 271.110222 85.836988 
L 271.57498 85.741553 
L 271.57498 85.646118 
L 272.650802 85.550682 
L 272.650802 85.359812 
L 272.803833 85.359812 
L 272.803833 85.168941 
L 273.240891 85.073506 
L 273.308936 84.691765 
L 273.416656 84.596329 
L 273.416656 84.500894 
L 273.979145 84.405459 
L 273.979145 84.310024 
L 274.634522 84.214588 
L 274.681901 84.023718 
L 274.804924 83.928282 
L 274.905589 83.737412 
L 275.574189 83.641976 
L 275.681045 83.451106 
L 276.076466 83.355671 
L 276.154048 82.973929 
L 277.12585 82.878494 
L 277.12585 82.687624 
L 277.569756 82.592188 
L 277.569756 82.496753 
L 278.180631 82.401318 
L 278.273695 82.210447 
L 278.439507 82.115012 
L 278.439507 82.019576 
L 278.786666 81.924141 
L 278.786666 81.828706 
L 279.687886 81.733271 
L 279.687886 81.637835 
L 281.032185 81.5424 
L 281.032185 81.446965 
L 281.676765 81.351529 
L 281.676765 81.256094 
L 282.787657 81.160659 
L 282.787657 81.065224 
L 283.357367 80.969788 
L 283.357367 80.874353 
L 283.648527 80.778918 
L 283.648527 80.683482 
L 283.784738 80.683482 
L 283.784738 80.492612 
L 284.554723 80.397176 
L 284.554723 80.301741 
L 285.385789 80.206306 
L 285.385789 80.110871 
L 285.626445 80.015435 
L 285.648007 79.824565 
L 286.361599 79.729129 
L 286.361599 79.633694 
L 288.548022 79.538259 
L 288.548022 79.442824 
L 289.095923 79.347388 
L 289.13476 79.156518 
L 289.275021 79.061082 
L 289.275021 78.965647 
L 289.851918 78.870212 
L 289.851918 78.774776 
L 290.542485 78.679341 
L 290.646697 78.202165 
L 294.90954 78.106729 
L 294.90954 78.011294 
L 298.231122 77.915859 
L 298.231122 77.820424 
L 300.591599 77.724988 
L 300.591599 77.629553 
L 301.870298 77.534118 
L 301.870298 77.438682 
L 303.051816 77.343247 
L 303.051816 77.247812 
L 304.770222 77.152376 
L 304.770222 77.056941 
L 360.8064 77.056941 
L 360.8064 77.056941 
" style="fill:none;stroke:#000080;stroke-linecap:square;stroke-width:1.5;"/>
   </g>
   <g id="line2d_36">
    <defs>
     <path d="M 0 6 
C 1.591219 6 3.117479 5.367802 4.242641 4.242641 
C 5.367802 3.117479 6 1.591219 6 0 
C 6 -1.591219 5.367802 -3.117479 4.242641 -4.242641 
C 3.117479 -5.367802 1.591219 -6 0 -6 
C -1.591219 -6 -3.117479 -5.367802 -4.242641 -4.242641 
C -5.367802 -3.117479 -6 -1.591219 -6 0 
C -6 1.591219 -5.367802 3.117479 -4.242641 4.242641 
C -3.117479 5.367802 -1.591219 6 0 6 
z
" id="m15e1dbab93" style="stroke:#000080;stroke-width:1.5;"/>
    </defs>
    <g>
     <use style="fill-opacity:0;stroke:#000080;stroke-width:1.5;" x="172.041731" xlink:href="#m15e1dbab93" y="254.948329"/>
     <use style="fill-opacity:0;stroke:#000080;stroke-width:1.5;" x="209.152701" xlink:href="#m15e1dbab93" y="166.861553"/>
     <use style="fill-opacity:0;stroke:#000080;stroke-width:1.5;" x="263.180699" xlink:href="#m15e1dbab93" y="89.845271"/>
     <use style="fill-opacity:0;stroke:#000080;stroke-width:1.5;" x="304.770222" xlink:href="#m15e1dbab93" y="77.056941"/>
     <use style="fill-opacity:0;stroke:#000080;stroke-width:1.5;" x="304.770222" xlink:href="#m15e1dbab93" y="77.056941"/>
     <use style="fill-opacity:0;stroke:#000080;stroke-width:1.5;" x="360.8064" xlink:href="#m15e1dbab93" y="77.056941"/>
    </g>
   </g>
   <g id="line2d_37">
    <path style="fill:none;stroke:#000080;stroke-linecap:square;stroke-width:1.5;"/>
    <g/>
   </g>
   <g id="line2d_38">
    <path clip-path="url(#pd3f817f3a8)" d="M 226.672527 130.882447 
" style="fill:none;stroke:#000080;stroke-linecap:square;stroke-width:1.5;"/>
    <defs>
     <path d="M -12 12 
L 12 -12 
M -12 -12 
L 12 12 
" id="m23f9b00f12" style="stroke:#000080;"/>
    </defs>
    <g clip-path="url(#pd3f817f3a8)">
     <use style="fill:#000080;stroke:#000080;" x="226.672527" xlink:href="#m23f9b00f12" y="130.882447"/>
    </g>
   </g>
   <g id="line2d_39">
    <defs>
     <path d="M 0 1.5 
C 0.397805 1.5 0.77937 1.341951 1.06066 1.06066 
C 1.341951 0.77937 1.5 0.397805 1.5 0 
C 1.5 -0.397805 1.341951 -0.77937 1.06066 -1.06066 
C 0.77937 -1.341951 0.397805 -1.5 0 -1.5 
C -0.397805 -1.5 -0.77937 -1.341951 -1.06066 -1.06066 
C -1.341951 -0.77937 -1.5 -0.397805 -1.5 0 
C -1.5 0.397805 -1.341951 0.77937 -1.06066 1.06066 
C -0.77937 1.341951 -0.397805 1.5 0 1.5 
z
" id="m31cab3e8f9" style="stroke:#ff00ff;"/>
    </defs>
    <g>
     <use style="fill:#ff00ff;stroke:#ff00ff;" x="220.910962" xlink:href="#m31cab3e8f9" y="6.912"/>
     <use style="fill:#ff00ff;stroke:#ff00ff;" x="220.910962" xlink:href="#m31cab3e8f9" y="6.912"/>
    </g>
   </g>
   <g id="line2d_40">
    <path d="M 27.323974 298.944 
L 27.323974 298.753129 
L 40.363149 298.753129 
L 40.363149 298.180518 
L 47.990577 298.180518 
L 47.990577 297.989647 
L 61.029752 297.894212 
L 61.029752 297.035294 
L 63.929565 297.035294 
L 63.929565 296.176376 
L 68.65718 296.080941 
L 68.65718 295.412894 
L 72.432107 295.412894 
L 72.432107 294.744847 
L 74.068926 294.744847 
L 74.068926 294.553976 
L 76.96874 294.553976 
L 76.96874 293.885929 
L 80.621116 293.790494 
L 80.621116 293.408753 
L 81.696354 293.408753 
L 81.696354 292.549835 
L 82.713442 292.549835 
L 82.713442 292.358965 
L 83.678349 292.358965 
L 83.678349 292.168094 
L 87.876026 292.168094 
L 87.876026 291.977224 
L 90.007914 291.881788 
L 90.007914 291.690918 
L 91.922605 291.595482 
L 91.922605 291.500047 
L 93.098709 291.404612 
L 93.098709 291.213741 
L 95.752617 291.213741 
L 95.752617 290.736565 
L 97.18203 290.641129 
L 97.18203 290.450259 
L 97.635342 290.450259 
L 97.635342 290.259388 
L 98.510456 290.259388 
L 98.510456 289.591341 
L 98.933205 289.591341 
L 98.933205 289.305035 
L 99.346662 289.305035 
L 99.346662 289.114165 
L 100.147275 289.018729 
L 100.147275 288.350682 
L 101.653002 288.255247 
L 101.653002 288.064376 
L 102.708132 287.968941 
L 102.708132 287.873506 
L 103.380045 287.778071 
L 103.380045 287.5872 
L 103.707211 287.5872 
L 103.707211 286.919153 
L 104.028784 286.919153 
L 104.028784 286.537412 
L 105.850679 286.441976 
L 105.850679 286.346541 
L 106.42077 286.251106 
L 106.42077 285.9648 
L 106.974091 285.9648 
L 106.974091 285.773929 
L 107.244765 285.773929 
L 107.244765 285.583059 
L 107.774703 285.583059 
L 107.774703 285.296753 
L 109.037698 285.296753 
L 109.037698 285.105882 
L 109.520071 285.010447 
L 109.520071 284.915012 
L 109.990385 284.915012 
L 109.990385 284.533271 
L 110.221204 284.533271 
L 110.221204 284.3424 
L 110.674517 284.3424 
L 110.674517 284.151529 
L 110.897141 284.151529 
L 110.897141 283.769788 
L 111.54963 283.674353 
L 111.54963 283.578918 
L 111.762192 283.578918 
L 111.762192 283.197176 
L 111.97238 283.197176 
L 111.97238 283.006306 
L 112.790402 282.910871 
L 112.790402 282.72 
L 112.989468 282.72 
L 112.989468 282.529129 
L 113.381389 282.529129 
L 113.381389 282.147388 
L 113.954374 282.051953 
L 113.954374 281.574776 
L 114.141556 281.574776 
L 114.141556 281.002165 
L 114.510421 280.906729 
L 114.510421 280.524988 
L 114.872193 280.429553 
L 114.872193 280.334118 
L 115.050503 280.334118 
L 115.050503 279.761506 
L 115.575511 279.666071 
L 115.575511 279.4752 
L 115.747307 279.4752 
L 115.747307 279.284329 
L 116.086263 279.284329 
L 116.086263 279.093459 
L 116.583514 278.998024 
L 116.583514 278.902588 
L 116.746385 278.902588 
L 116.746385 278.329976 
L 116.907859 278.329976 
L 116.907859 278.139106 
L 117.226706 278.043671 
L 117.226706 277.8528 
L 117.540239 277.8528 
L 117.540239 277.661929 
L 117.695068 277.661929 
L 117.695068 277.471059 
L 118.000953 277.375624 
L 118.000953 276.898447 
L 118.598196 276.803012 
L 118.598196 276.707576 
L 118.74459 276.707576 
L 118.74459 276.134965 
L 118.889854 276.134965 
L 118.889854 275.848659 
L 119.034004 275.848659 
L 119.034004 275.371482 
L 119.177058 275.371482 
L 119.177058 275.085176 
L 119.876453 274.989741 
L 119.876453 274.703435 
L 120.28394 274.608 
L 120.28394 274.512565 
L 120.550775 274.417129 
L 120.550775 274.130824 
L 120.813877 274.035388 
L 120.813877 273.749082 
L 121.073351 273.653647 
L 121.073351 273.558212 
L 121.201758 273.558212 
L 121.201758 273.367341 
L 121.455972 273.367341 
L 121.455972 273.176471 
L 121.830966 273.081035 
L 121.830966 272.603859 
L 122.076872 272.508424 
L 122.076872 272.222118 
L 122.19863 272.222118 
L 122.19863 271.840376 
L 122.559246 271.744941 
L 122.559246 271.458635 
L 122.677931 271.458635 
L 122.677931 271.076894 
L 122.795872 271.076894 
L 122.795872 270.695153 
L 122.913079 270.695153 
L 122.913079 270.504282 
L 123.145323 270.504282 
L 123.145323 270.313412 
L 123.260379 270.313412 
L 123.260379 270.122541 
L 123.825333 270.122541 
L 123.825333 269.931671 
L 124.046648 269.931671 
L 124.156336 269.454494 
L 124.373813 269.454494 
L 124.373813 269.263624 
L 124.695386 269.263624 
L 124.801367 268.881882 
L 124.906754 268.881882 
L 125.011554 268.404706 
L 125.322496 268.309271 
L 125.425011 267.927529 
L 125.729248 267.832094 
L 125.829577 267.545788 
L 125.929373 267.545788 
L 126.028642 267.164047 
L 126.225624 267.164047 
L 126.323346 266.591435 
L 126.420564 266.591435 
L 126.420564 266.400565 
L 126.709238 266.305129 
L 126.709238 266.209694 
L 127.087372 266.114259 
L 127.18073 265.732518 
L 127.549596 265.637082 
L 127.640693 264.682729 
L 128.000734 264.587294 
L 128.089678 264.205553 
L 128.528195 264.110118 
L 128.614685 263.728376 
L 128.700779 263.728376 
L 128.786481 263.442071 
L 129.209231 263.346635 
L 129.292652 263.060329 
L 129.458394 263.060329 
L 129.54072 262.583153 
L 129.78556 262.487718 
L 129.78556 262.296847 
L 130.344755 262.201412 
L 130.4233 262.010541 
L 130.656987 262.010541 
L 130.656987 261.819671 
L 130.811181 261.819671 
L 130.811181 261.6288 
L 130.964122 261.6288 
L 130.964122 261.437929 
L 131.191226 261.342494 
L 131.191226 261.247059 
L 131.489828 261.151624 
L 131.563744 260.865318 
L 131.856536 260.769882 
L 131.856536 260.674447 
L 132.216233 260.579012 
L 132.287354 260.388141 
L 132.428795 260.388141 
L 132.428795 260.197271 
L 132.56918 260.197271 
L 132.56918 260.0064 
L 133.120474 260.0064 
L 133.120474 259.815529 
L 133.323114 259.815529 
L 133.323114 259.433788 
L 133.457005 259.433788 
L 133.457005 259.242918 
L 133.78762 259.147482 
L 133.853052 258.670306 
L 134.240933 258.574871 
L 134.240933 258.479435 
L 134.495147 258.384 
L 134.558167 258.097694 
L 134.745971 258.097694 
L 134.745971 257.906824 
L 135.538796 257.906824 
L 135.538796 257.620518 
L 135.657857 257.620518 
L 135.657857 257.429647 
L 136.068734 257.334212 
L 136.126705 256.475294 
L 136.356818 256.379859 
L 136.356818 256.284424 
L 136.470828 256.284424 
L 136.470828 256.093553 
L 136.584151 256.093553 
L 136.584151 255.902682 
L 136.696795 255.902682 
L 136.752866 255.425506 
L 136.808769 255.425506 
L 136.808769 255.234635 
L 136.97549 255.234635 
L 137.085822 254.662024 
L 137.520791 254.566588 
L 137.574461 254.089412 
L 137.998402 253.993976 
L 137.998402 253.898541 
L 138.258593 253.803106 
L 138.258593 253.612235 
L 138.464186 253.5168 
L 138.566146 253.039624 
L 138.968547 252.944188 
L 139.067817 252.753318 
L 139.215746 252.753318 
L 139.215746 252.276141 
L 139.411192 252.180706 
L 139.411192 252.085271 
L 139.604629 252.085271 
L 139.604629 249.794824 
L 139.748412 249.794824 
L 139.796097 249.413082 
L 140.312801 249.413082 
L 140.359078 248.745035 
L 140.58877 248.6496 
L 140.58877 248.554165 
L 140.950542 248.458729 
L 140.950542 248.363294 
L 141.128852 248.267859 
L 141.217377 247.981553 
L 141.261484 247.981553 
L 141.305488 247.504376 
L 141.56737 247.408941 
L 141.610664 246.931765 
L 141.868361 246.836329 
L 141.953481 246.550024 
L 142.038218 246.550024 
L 142.038218 246.359153 
L 142.290162 246.263718 
L 142.373399 245.881976 
L 142.579895 245.786541 
L 142.661862 245.309365 
L 142.865233 245.213929 
L 142.865233 245.118494 
L 143.02636 245.023059 
L 143.10641 244.641318 
L 143.225848 244.545882 
L 143.265494 244.355012 
L 143.540694 244.259576 
L 143.618588 241.873694 
L 143.850356 241.778259 
L 143.850356 241.587388 
L 144.117191 241.491953 
L 144.117191 241.110212 
L 144.454795 241.014776 
L 144.454795 240.919341 
L 144.565997 240.919341 
L 144.639767 240.346729 
L 144.749884 240.251294 
L 144.822939 239.678682 
L 145.040416 239.583247 
L 145.148219 239.201506 
L 145.291002 239.106071 
L 145.397382 238.628894 
L 145.432709 238.628894 
L 145.432709 238.438024 
L 145.643288 238.342588 
L 145.712961 237.960847 
L 145.816988 237.865412 
L 145.851536 237.579106 
L 145.989098 237.579106 
L 146.057504 237.2928 
L 146.261241 237.197365 
L 146.261241 237.101929 
L 146.529503 237.006494 
L 146.629123 236.720188 
L 146.695245 236.624753 
L 146.761135 236.338447 
L 147.087167 236.243012 
L 147.183884 236.052141 
L 147.312072 235.956706 
L 147.375841 235.765835 
L 147.502732 235.6704 
L 147.565858 235.384094 
L 147.753975 235.288659 
L 147.847333 234.906918 
L 147.971093 234.811482 
L 148.063382 234.334306 
L 148.216198 234.238871 
L 148.276979 233.570824 
L 148.367783 233.475388 
L 148.428077 232.902776 
L 148.548087 232.807341 
L 148.607806 232.234729 
L 148.785835 232.139294 
L 148.874221 231.375812 
L 148.903591 231.375812 
L 148.903591 231.184941 
L 149.194798 231.089506 
L 149.281288 230.898635 
L 149.395993 230.8032 
L 149.481565 230.421459 
L 149.538397 230.326024 
L 149.538397 230.135153 
L 149.65155 230.135153 
L 149.73597 229.657976 
L 149.820013 229.562541 
L 149.875833 229.085365 
L 149.931489 229.085365 
L 150.042308 228.799059 
L 150.097474 228.799059 
L 150.179921 228.131012 
L 150.289291 228.035576 
L 150.398028 227.272094 
L 150.533072 227.176659 
L 150.640414 226.794918 
L 150.693856 226.699482 
L 150.747146 226.508612 
L 150.906118 226.413176 
L 150.958812 225.840565 
L 151.116012 225.840565 
L 151.220087 225.077082 
L 151.297768 224.981647 
L 151.400845 224.218165 
L 151.452172 224.122729 
L 151.554409 223.263812 
L 151.60532 223.263812 
L 151.630724 222.977506 
L 151.731998 222.977506 
L 151.832729 222.500329 
L 151.982822 222.404894 
L 152.057422 221.832282 
L 152.25492 221.736847 
L 152.352898 221.0688 
L 152.426047 220.973365 
L 152.523139 220.591624 
L 152.571498 220.496188 
L 152.667844 219.923576 
L 152.763699 219.828141 
L 152.859068 219.160094 
L 152.882835 219.160094 
L 152.977604 218.682918 
L 153.001222 218.682918 
L 153.095398 218.396612 
L 153.189104 218.301176 
L 153.282346 217.633129 
L 153.375128 217.633129 
L 153.467455 216.869647 
L 153.490466 216.869647 
L 153.536404 216.583341 
L 153.627945 216.583341 
L 153.719042 215.724424 
L 153.787077 215.628988 
L 153.877408 215.151812 
L 153.899924 215.151812 
L 153.967309 214.388329 
L 154.056781 214.292894 
L 154.14583 213.243106 
L 154.190197 213.147671 
L 154.300658 212.384188 
L 154.322673 212.384188 
L 154.388563 211.620706 
L 154.454223 211.620706 
L 154.563149 211.048094 
L 154.584859 211.048094 
L 154.693034 210.380047 
L 154.73613 210.380047 
L 154.843441 209.807435 
L 154.886195 209.712 
L 154.992656 209.234824 
L 155.077392 209.139388 
L 155.18278 208.471341 
L 155.266666 208.375906 
L 155.329337 207.994165 
L 155.391799 207.994165 
L 155.474761 207.707859 
L 155.598521 207.612424 
L 155.701037 206.848941 
L 155.762279 206.848941 
L 155.843627 205.703718 
L 155.884169 205.703718 
L 155.964992 204.653929 
L 156.065535 204.558494 
L 156.165543 203.508706 
L 156.245169 203.413271 
L 156.324459 202.840659 
L 156.423104 202.745224 
L 156.521235 202.363482 
L 156.560344 202.268047 
L 156.638319 201.790871 
L 156.696589 201.790871 
L 156.793307 200.645647 
L 156.8511 200.550212 
L 156.927882 199.9776 
L 156.985263 199.9776 
L 157.080512 198.832376 
L 157.137431 198.736941 
L 157.231914 197.496282 
L 157.269574 197.496282 
L 157.363398 196.828235 
L 157.419468 196.7328 
L 157.493969 195.778447 
L 157.568177 195.778447 
L 157.678942 194.537788 
L 157.69734 194.537788 
L 157.770751 193.106259 
L 157.880333 193.010824 
L 157.953034 192.533647 
L 158.025456 192.438212 
L 158.133569 191.292988 
L 158.169469 191.292988 
L 158.25892 190.529506 
L 158.312387 190.529506 
L 158.401163 190.147765 
L 158.436556 190.147765 
L 158.52475 189.288847 
L 158.595008 189.193412 
L 158.699905 188.429929 
L 158.717331 188.429929 
L 158.769513 187.666447 
L 158.873444 187.571012 
L 158.976805 186.9984 
L 159.011133 186.9984 
L 159.096679 186.234918 
L 159.14782 186.139482 
L 159.198823 185.280565 
L 159.317295 185.185129 
L 159.418251 184.039906 
L 159.451784 183.944471 
L 159.535354 183.371859 
L 159.651731 183.276424 
L 159.734419 182.226635 
L 159.816746 182.1312 
L 159.915064 181.081412 
L 159.964032 180.985976 
L 160.061585 179.649882 
L 160.093991 179.554447 
L 160.174762 179.172706 
L 160.223059 179.077271 
L 160.271232 178.409224 
L 160.383158 178.313788 
L 160.478568 177.168565 
L 160.494422 177.168565 
L 160.589271 176.214212 
L 160.620781 176.214212 
L 160.730652 174.973553 
L 160.761927 174.878118 
L 160.87098 174.210071 
L 160.902022 174.114635 
L 160.994842 173.064847 
L 161.087207 172.969412 
L 161.17912 171.728753 
L 161.209658 171.728753 
L 161.209658 171.633318 
L 161.300977 171.060706 
L 161.34647 170.965271 
L 161.452196 170.392659 
L 161.467251 170.392659 
L 161.542347 168.961129 
L 161.587261 168.961129 
L 161.676769 167.5296 
L 161.751035 167.5296 
L 161.854518 166.479812 
L 161.898693 166.384376 
L 162.001369 165.525459 
L 162.015991 165.525459 
L 162.103487 164.571106 
L 162.147083 164.571106 
L 162.248415 163.330447 
L 162.277267 163.235012 
L 162.334839 162.6624 
L 162.406556 162.566965 
L 162.506504 160.849129 
L 162.520739 160.849129 
L 162.620084 159.608471 
L 162.634233 159.608471 
L 162.732982 157.890635 
L 162.775144 157.7952 
L 162.859187 156.745412 
L 162.901068 156.649976 
L 162.998429 155.886494 
L 163.026155 155.791059 
L 163.136649 154.932141 
L 163.164171 154.836706 
L 163.27386 153.691482 
L 163.287526 153.691482 
L 163.382912 152.164518 
L 163.410077 152.164518 
L 163.518345 151.019294 
L 163.59914 150.923859 
L 163.706328 149.492329 
L 163.73303 149.396894 
L 163.812909 147.583624 
L 163.865975 147.488188 
L 163.971658 146.152094 
L 163.984826 146.152094 
L 164.07675 144.911435 
L 164.102932 144.911435 
L 164.207296 143.098165 
L 164.220301 143.098165 
L 164.311084 141.5712 
L 164.349858 141.5712 
L 164.452864 139.853365 
L 164.478528 139.853365 
L 164.580835 138.230965 
L 164.606324 138.135529 
L 164.682588 136.894871 
L 164.733259 136.894871 
L 164.834193 135.558776 
L 164.859342 135.558776 
L 164.959603 134.031812 
L 164.972099 134.031812 
L 165.059334 132.600282 
L 165.084184 132.600282 
L 165.183257 130.882447 
L 165.220276 130.787012 
L 165.330896 129.450918 
L 165.343147 129.450918 
L 165.343147 129.355482 
L 165.45305 128.019388 
L 165.465221 128.019388 
L 165.574415 126.301553 
L 165.586508 126.301553 
L 165.682978 125.442635 
L 165.731028 125.442635 
L 165.838694 123.533929 
L 165.850619 123.533929 
L 165.957604 122.579576 
L 165.969454 122.579576 
L 166.063985 121.816094 
L 166.111072 121.720659 
L 166.204896 120.861741 
L 166.239959 120.766306 
L 166.344759 119.621082 
L 166.356368 119.621082 
L 166.460523 117.712376 
L 166.47206 117.712376 
L 166.575579 116.758024 
L 166.587046 116.758024 
L 166.689935 114.276706 
L 166.735484 114.181271 
L 166.826251 113.226918 
L 166.871471 113.131482 
L 166.972821 111.795388 
L 166.995269 111.699953 
L 167.095955 110.650165 
L 167.129398 110.554729 
L 167.240447 109.504941 
L 167.262578 109.409506 
L 167.372845 107.596235 
L 167.394821 107.5008 
L 167.504319 106.260141 
L 167.526142 106.260141 
L 167.624034 104.924047 
L 167.656552 104.828612 
L 167.753769 104.065129 
L 167.786064 103.969694 
L 167.882616 103.301647 
L 167.904005 103.301647 
L 167.999955 101.774682 
L 168.03183 101.774682 
L 168.03183 101.679247 
L 168.137692 100.915765 
L 168.158793 100.820329 
L 168.253455 99.102494 
L 168.295375 99.007059 
L 168.399768 97.861835 
L 168.410176 97.861835 
L 168.513935 97.002918 
L 168.544952 96.907482 
L 168.647973 95.953129 
L 168.709515 95.857694 
L 168.811641 94.807906 
L 168.832 94.807906 
L 168.832 94.712471 
L 168.933465 93.662682 
L 168.983993 93.567247 
L 169.094679 92.612894 
L 169.114734 92.517459 
L 169.214689 91.658541 
L 169.234617 91.658541 
L 169.343842 89.6544 
L 169.353741 89.6544 
L 169.452437 88.700047 
L 169.511408 88.604612 
L 169.619042 87.936565 
L 169.638546 87.841129 
L 169.735764 86.505035 
L 169.784185 86.4096 
L 169.880655 85.168941 
L 169.899889 85.168941 
L 170.00533 84.023718 
L 170.043526 83.928282 
L 170.148167 83.260235 
L 170.157651 83.260235 
L 170.157651 83.1648 
L 170.242793 82.305882 
L 170.271088 82.305882 
L 170.271088 82.210447 
L 170.374474 81.351529 
L 170.430628 81.256094 
L 170.533144 80.015435 
L 170.551723 80.015435 
L 170.551723 79.92 
L 170.653583 78.393035 
L 170.690486 78.2976 
L 170.782429 77.247812 
L 170.873925 77.152376 
L 170.964979 76.388894 
L 171.010341 76.293459 
L 171.100737 75.0528 
L 171.163758 74.957365 
L 171.253422 74.003012 
L 171.307016 74.003012 
L 171.387122 73.239529 
L 171.440338 73.144094 
L 171.546318 72.571482 
L 171.686704 72.476047 
L 171.79131 71.808 
L 171.895337 71.712565 
L 171.998792 70.949082 
L 172.058879 70.853647 
L 172.152916 70.281035 
L 172.204011 70.1856 
L 172.263447 69.803859 
L 172.33959 69.708424 
L 172.423834 69.326682 
L 172.457426 69.326682 
L 172.541145 68.5632 
L 172.624492 68.467765 
L 172.732295 67.990588 
L 172.765341 67.895153 
L 172.85592 67.322541 
L 172.929707 67.227106 
L 173.027642 66.272753 
L 173.11697 66.177318 
L 173.213936 65.222965 
L 173.262233 65.127529 
L 173.366453 64.554918 
L 173.398404 64.459482 
L 173.501874 63.791435 
L 173.541519 63.791435 
L 173.628445 63.123388 
L 173.683553 63.027953 
L 173.762 62.455341 
L 173.863495 62.359906 
L 173.972187 61.405553 
L 174.003127 61.310118 
L 174.087951 60.4512 
L 174.126381 60.355765 
L 174.23357 59.687718 
L 174.25646 59.592282 
L 174.355328 58.8288 
L 174.423472 58.733365 
L 174.521469 58.351624 
L 174.618958 58.256188 
L 174.723384 57.492706 
L 174.842022 57.397271 
L 174.886319 57.110965 
L 175.003938 57.015529 
L 175.069777 56.347482 
L 175.171736 56.252047 
L 175.236991 55.393129 
L 175.338051 55.297694 
L 175.438571 54.629647 
L 175.474342 54.534212 
L 175.574138 54.057035 
L 175.588351 54.057035 
L 175.659258 53.484424 
L 175.715792 53.388988 
L 175.77919 53.007247 
L 175.856387 52.911812 
L 175.947214 52.434635 
L 176.00289 52.3392 
L 176.086096 51.957459 
L 176.14826 51.862024 
L 176.244554 51.289412 
L 176.340357 51.193976 
L 176.435674 50.621365 
L 176.496696 50.525929 
L 176.604692 50.144188 
L 176.691985 50.048753 
L 176.798869 49.667012 
L 176.825495 49.571576 
L 176.885267 49.189835 
L 176.997654 49.0944 
L 177.063452 48.521788 
L 177.135565 48.426353 
L 177.246471 47.758306 
L 177.350259 47.662871 
L 177.447043 47.185694 
L 177.485617 47.090259 
L 177.556133 46.899388 
L 177.728103 46.803953 
L 177.83558 45.945035 
L 177.854483 45.8496 
L 177.954979 45.467859 
L 177.992527 45.372424 
L 178.09229 44.990682 
L 178.110937 44.895247 
L 178.210076 44.513506 
L 178.339408 44.418071 
L 178.437353 43.845459 
L 178.5712 43.750024 
L 178.67398 43.272847 
L 178.722153 43.177412 
L 178.764203 42.795671 
L 178.871903 42.700235 
L 178.937417 42.413929 
L 179.020471 42.318494 
L 179.126718 41.841318 
L 179.20308 41.745882 
L 179.249919 41.555012 
L 179.337428 41.459576 
L 179.407144 41.268706 
L 179.563065 41.173271 
L 179.672018 40.696094 
L 179.774658 40.600659 
L 179.774658 40.505224 
L 179.955757 40.409788 
L 180.045657 40.028047 
L 180.101628 39.932612 
L 180.157432 39.550871 
L 180.296222 39.455435 
L 180.390018 38.882824 
L 180.488824 38.787388 
L 180.554408 38.405647 
L 180.744398 38.310212 
L 180.782166 37.928471 
L 180.884301 37.928471 
L 180.985884 37.451294 
L 181.065696 37.355859 
L 181.155741 36.974118 
L 181.234837 36.878682 
L 181.339783 36.019765 
L 181.438943 35.924329 
L 181.506489 35.733459 
L 181.687147 35.638024 
L 181.764044 35.256282 
L 182.023168 35.160847 
L 182.068527 34.874541 
L 182.258848 34.779106 
L 182.348332 34.4928 
L 182.417638 34.397365 
L 182.417638 34.301929 
L 182.624036 34.301929 
L 182.667971 33.920188 
L 182.910204 33.824753 
L 182.96308 33.633882 
L 183.049283 33.538447 
L 183.158861 33.156706 
L 183.220515 33.061271 
L 183.30555 32.584094 
L 183.380815 32.488659 
L 183.404274 32.202353 
L 183.60482 32.106918 
L 183.60482 32.011482 
L 183.794068 31.916047 
L 183.90397 31.534306 
L 184.004153 31.438871 
L 184.054045 31.152565 
L 184.207426 31.057129 
L 184.274698 30.675388 
L 184.355108 30.579953 
L 184.41297 30.389082 
L 184.563463 30.293647 
L 184.563463 30.198212 
L 184.782612 30.102776 
L 184.852204 29.911906 
L 184.930188 29.816471 
L 184.951793 29.6256 
L 185.119467 29.530165 
L 185.119467 29.434729 
L 185.264434 29.339294 
L 185.344961 29.148424 
L 185.416721 29.052988 
L 185.467211 28.862118 
L 185.584495 28.766682 
L 185.597018 28.575812 
L 185.717645 28.480376 
L 185.808643 28.0032 
L 185.882769 27.907765 
L 185.95251 27.621459 
L 186.224881 27.526024 
L 186.301408 27.239718 
L 186.545017 27.144282 
L 186.628158 26.953412 
L 186.793345 26.857976 
L 186.875397 26.476235 
L 187.015232 26.3808 
L 187.11943 26.189929 
L 187.413456 26.094494 
L 187.523013 25.903624 
L 187.616948 25.903624 
L 187.616948 25.808188 
L 187.643167 25.521882 
L 187.892281 25.426447 
L 187.907049 25.235576 
L 188.145429 25.140141 
L 188.250816 24.662965 
L 188.513516 24.662965 
L 188.513516 24.567529 
L 188.584853 24.281224 
L 189.031638 24.185788 
L 189.121811 23.899482 
L 189.461261 23.804047 
L 189.556167 23.517741 
L 189.784677 23.422306 
L 189.854689 23.231435 
L 189.974107 23.136 
L 190.013745 22.945129 
L 190.168195 22.849694 
L 190.210692 22.563388 
L 190.431434 22.467953 
L 190.534423 22.086212 
L 190.614493 21.990776 
L 190.700587 21.704471 
L 190.947113 21.609035 
L 190.947113 21.5136 
L 191.212135 21.418165 
L 191.212135 21.322729 
L 191.658811 21.227294 
L 191.707124 20.940988 
L 191.899141 20.845553 
L 191.970645 20.654682 
L 192.14528 20.559247 
L 192.253975 20.272941 
L 192.391148 20.177506 
L 192.463707 19.8912 
L 192.5821 19.795765 
L 192.616612 19.604894 
L 192.845083 19.509459 
L 192.952643 19.223153 
L 193.263353 19.127718 
L 193.263353 19.032282 
L 193.753843 18.936847 
L 193.864413 18.555106 
L 194.011724 18.459671 
L 194.025059 18.2688 
L 194.462495 18.173365 
L 194.509322 17.982494 
L 194.790424 17.887059 
L 194.790424 17.791624 
L 195.052247 17.696188 
L 195.160483 17.409882 
L 195.250622 17.314447 
L 195.280573 17.123576 
L 195.741247 17.028141 
L 195.741247 16.932706 
L 196.086069 16.837271 
L 196.138562 16.550965 
L 196.342367 16.455529 
L 196.45048 16.264659 
L 196.784958 16.169224 
L 196.860778 15.882918 
L 197.038785 15.787482 
L 197.133942 15.501176 
L 197.363053 15.405741 
L 197.363053 15.310306 
L 197.584995 15.214871 
L 197.653268 15.024 
L 197.775976 14.928565 
L 197.775976 14.833129 
L 198.014705 14.737694 
L 198.014705 14.642259 
L 198.284486 14.546824 
L 198.284486 14.451388 
L 198.525284 14.355953 
L 198.525284 14.260518 
L 198.952743 14.165082 
L 198.952743 14.069647 
L 199.440804 13.974212 
L 199.440804 13.878776 
L 199.771726 13.783341 
L 199.771726 13.687906 
L 200.00791 13.592471 
L 200.019545 13.4016 
L 200.289001 13.306165 
L 200.302373 13.115294 
L 200.57913 13.019859 
L 200.68047 12.733553 
L 201.248269 12.638118 
L 201.248269 12.542682 
L 201.627587 12.447247 
L 201.719905 12.256376 
L 201.988935 12.160941 
L 201.988935 12.065506 
L 202.329762 11.970071 
L 202.329762 11.874635 
L 202.95035 11.7792 
L 202.95035 11.683765 
L 203.138516 11.588329 
L 203.138516 11.492894 
L 203.530218 11.397459 
L 203.583224 11.206588 
L 203.792181 11.111153 
L 203.792181 11.015718 
L 204.368592 10.920282 
L 204.45914 10.729412 
L 204.619213 10.633976 
L 204.64197 10.347671 
L 204.862043 10.252235 
L 204.896479 10.061365 
L 205.131348 9.965929 
L 205.131348 9.870494 
L 205.399764 9.775059 
L 205.449215 9.584188 
L 205.761799 9.488753 
L 205.870059 9.297882 
L 206.246922 9.202447 
L 206.246922 9.107012 
L 206.880717 9.011576 
L 206.931799 8.725271 
L 207.0242 8.629835 
L 207.0242 8.5344 
L 207.352609 8.438965 
L 207.423364 8.248094 
L 207.838556 8.152659 
L 207.838556 8.057224 
L 211.25871 7.961788 
L 211.25871 7.866353 
L 213.353002 7.770918 
L 213.353002 7.675482 
L 214.222867 7.580047 
L 214.222867 7.484612 
L 214.858876 7.389176 
L 214.858876 7.293741 
L 216.994036 7.198306 
L 216.994036 7.102871 
L 220.910962 7.007435 
L 220.910962 6.912 
L 360.8064 6.912 
L 360.8064 6.912 
" style="fill:none;stroke:#ff00ff;stroke-linecap:square;stroke-width:1.5;"/>
   </g>
   <g id="line2d_41">
    <defs>
     <path d="M -0 8.485281 
L 5.091169 0 
L 0 -8.485281 
L -5.091169 -0 
z
" id="m5e8f7127bb" style="stroke:#ff00ff;stroke-linejoin:miter;stroke-width:1.5;"/>
    </defs>
    <g>
     <use style="fill-opacity:0;stroke:#ff00ff;stroke-linejoin:miter;stroke-width:1.5;" x="128.089678" xlink:href="#m5e8f7127bb" y="264.205553"/>
     <use style="fill-opacity:0;stroke:#ff00ff;stroke-linejoin:miter;stroke-width:1.5;" x="169.383404" xlink:href="#m5e8f7127bb" y="89.272659"/>
     <use style="fill-opacity:0;stroke:#ff00ff;stroke-linejoin:miter;stroke-width:1.5;" x="220.910962" xlink:href="#m5e8f7127bb" y="7.007435"/>
     <use style="fill-opacity:0;stroke:#ff00ff;stroke-linejoin:miter;stroke-width:1.5;" x="220.910962" xlink:href="#m5e8f7127bb" y="6.912"/>
     <use style="fill-opacity:0;stroke:#ff00ff;stroke-linejoin:miter;stroke-width:1.5;" x="220.910962" xlink:href="#m5e8f7127bb" y="6.912"/>
     <use style="fill-opacity:0;stroke:#ff00ff;stroke-linejoin:miter;stroke-width:1.5;" x="360.8064" xlink:href="#m5e8f7127bb" y="6.912"/>
    </g>
   </g>
   <g id="line2d_42">
    <path style="fill:none;stroke:#ff00ff;stroke-linecap:square;stroke-width:1.5;"/>
    <g/>
   </g>
   <g id="line2d_43">
    <path clip-path="url(#pd3f817f3a8)" d="M 145.7477 237.960847 
" style="fill:none;stroke:#ff00ff;stroke-linecap:square;stroke-width:1.5;"/>
    <defs>
     <path d="M -12 12 
L 12 -12 
M -12 -12 
L 12 12 
" id="mbc453380e3" style="stroke:#ff00ff;"/>
    </defs>
    <g clip-path="url(#pd3f817f3a8)">
     <use style="fill:#ff00ff;stroke:#ff00ff;" x="145.7477" xlink:href="#mbc453380e3" y="237.960847"/>
    </g>
   </g>
   <g id="line2d_44">
    <path d="M 360.8064 77.056941 
L 380.514816 293.10336 
" style="fill:none;stroke:#000080;stroke-linecap:square;stroke-width:1.5;"/>
    <g>
     <use style="fill-opacity:0;stroke:#000080;stroke-width:1.5;" x="360.8064" xlink:href="#m15e1dbab93" y="77.056941"/>
     <use style="fill-opacity:0;stroke:#000080;stroke-width:1.5;" x="380.514816" xlink:href="#m15e1dbab93" y="293.10336"/>
    </g>
   </g>
   <g id="line2d_45">
    <path d="M 360.8064 6.912 
L 380.514816 152.928 
" style="fill:none;stroke:#ff00ff;stroke-linecap:square;stroke-width:1.5;"/>
    <g>
     <use style="fill-opacity:0;stroke:#ff00ff;stroke-linejoin:miter;stroke-width:1.5;" x="360.8064" xlink:href="#m5e8f7127bb" y="6.912"/>
     <use style="fill-opacity:0;stroke:#ff00ff;stroke-linejoin:miter;stroke-width:1.5;" x="380.514816" xlink:href="#m5e8f7127bb" y="152.928"/>
    </g>
   </g>
   <g id="line2d_46">
    <path d="M 360.8064 298.944 
L 360.8064 6.912 
" style="fill:none;stroke:#000000;stroke-linecap:square;stroke-width:1.5;"/>
   </g>
   <g id="patch_3">
    <path d="M 57.6 298.944 
L 360.8064 298.944 
" style="fill:none;stroke:#000000;stroke-linecap:square;stroke-linejoin:miter;stroke-width:0.8;"/>
   </g>
   <g id="patch_4">
    <path d="M 57.6 6.912 
L 360.8064 6.912 
" style="fill:none;stroke:#000000;stroke-linecap:square;stroke-linejoin:miter;stroke-width:0.8;"/>
   </g>
   <g id="text_13">
    <!-- different -->
    <g transform="translate(386.578944 296.966485)scale(0.14 -0.14)">
     <use xlink:href="#DejaVuSans-64"/>
     <use x="63.476562" xlink:href="#DejaVuSans-69"/>
     <use x="91.259766" xlink:href="#DejaVuSans-66"/>
     <use x="126.464844" xlink:href="#DejaVuSans-66"/>
     <use x="161.669922" xlink:href="#DejaVuSans-65"/>
     <use x="223.193359" xlink:href="#DejaVuSans-72"/>
     <use x="262.056641" xlink:href="#DejaVuSans-65"/>
     <use x="323.580078" xlink:href="#DejaVuSans-6e"/>
     <use x="386.958984" xlink:href="#DejaVuSans-74"/>
    </g>
   </g>
   <g id="text_14">
    <!-- cma.fmin  -->
    <g transform="translate(386.578944 156.791125)scale(0.14 -0.14)">
     <use xlink:href="#DejaVuSans-63"/>
     <use x="54.980469" xlink:href="#DejaVuSans-6d"/>
     <use x="152.392578" xlink:href="#DejaVuSans-61"/>
     <use x="213.671875" xlink:href="#DejaVuSans-2e"/>
     <use x="245.458984" xlink:href="#DejaVuSans-66"/>
     <use x="280.664062" xlink:href="#DejaVuSans-6d"/>
     <use x="378.076172" xlink:href="#DejaVuSans-69"/>
     <use x="405.859375" xlink:href="#DejaVuSans-6e"/>
     <use x="469.238281" xlink:href="#DejaVuSans-20"/>
    </g>
   </g>
   <g id="text_15">
    <!-- best 2009 -->
    <g transform="translate(386.578944 16.615765)scale(0.14 -0.14)">
     <defs>
      <path d="M 3116 1747 
Q 3116 2381 2855 2742 
Q 2594 3103 2138 3103 
Q 1681 3103 1420 2742 
Q 1159 2381 1159 1747 
Q 1159 1113 1420 752 
Q 1681 391 2138 391 
Q 2594 391 2855 752 
Q 3116 1113 3116 1747 
z
M 1159 2969 
Q 1341 3281 1617 3432 
Q 1894 3584 2278 3584 
Q 2916 3584 3314 3078 
Q 3713 2572 3713 1747 
Q 3713 922 3314 415 
Q 2916 -91 2278 -91 
Q 1894 -91 1617 61 
Q 1341 213 1159 525 
L 1159 0 
L 581 0 
L 581 4863 
L 1159 4863 
L 1159 2969 
z
" id="DejaVuSans-62" transform="scale(0.015625)"/>
      <path d="M 703 97 
L 703 672 
Q 941 559 1184 500 
Q 1428 441 1663 441 
Q 2288 441 2617 861 
Q 2947 1281 2994 2138 
Q 2813 1869 2534 1725 
Q 2256 1581 1919 1581 
Q 1219 1581 811 2004 
Q 403 2428 403 3163 
Q 403 3881 828 4315 
Q 1253 4750 1959 4750 
Q 2769 4750 3195 4129 
Q 3622 3509 3622 2328 
Q 3622 1225 3098 567 
Q 2575 -91 1691 -91 
Q 1453 -91 1209 -44 
Q 966 3 703 97 
z
M 1959 2075 
Q 2384 2075 2632 2365 
Q 2881 2656 2881 3163 
Q 2881 3666 2632 3958 
Q 2384 4250 1959 4250 
Q 1534 4250 1286 3958 
Q 1038 3666 1038 3163 
Q 1038 2656 1286 2365 
Q 1534 2075 1959 2075 
z
" id="DejaVuSans-39" transform="scale(0.015625)"/>
     </defs>
     <use xlink:href="#DejaVuSans-62"/>
     <use x="63.476562" xlink:href="#DejaVuSans-65"/>
     <use x="125" xlink:href="#DejaVuSans-73"/>
     <use x="177.099609" xlink:href="#DejaVuSans-74"/>
     <use x="216.308594" xlink:href="#DejaVuSans-20"/>
     <use x="248.095703" xlink:href="#DejaVuSans-32"/>
     <use x="311.71875" xlink:href="#DejaVuSans-30"/>
     <use x="375.341797" xlink:href="#DejaVuSans-30"/>
     <use x="438.964844" xlink:href="#DejaVuSans-39"/>
    </g>
   </g>
   <g id="text_16">
    <!-- bbob f6-f9, 5-D -->
    <g transform="translate(60.632064 17.582726)scale(0.102 -0.102)">
     <defs>
      <path d="M 691 4666 
L 3169 4666 
L 3169 4134 
L 1269 4134 
L 1269 2991 
Q 1406 3038 1543 3061 
Q 1681 3084 1819 3084 
Q 2600 3084 3056 2656 
Q 3513 2228 3513 1497 
Q 3513 744 3044 326 
Q 2575 -91 1722 -91 
Q 1428 -91 1123 -41 
Q 819 9 494 109 
L 494 744 
Q 775 591 1075 516 
Q 1375 441 1709 441 
Q 2250 441 2565 725 
Q 2881 1009 2881 1497 
Q 2881 1984 2565 2268 
Q 2250 2553 1709 2553 
Q 1456 2553 1204 2497 
Q 953 2441 691 2322 
L 691 4666 
z
" id="DejaVuSans-35" transform="scale(0.015625)"/>
      <path d="M 1259 4147 
L 1259 519 
L 2022 519 
Q 2988 519 3436 956 
Q 3884 1394 3884 2338 
Q 3884 3275 3436 3711 
Q 2988 4147 2022 4147 
L 1259 4147 
z
M 628 4666 
L 1925 4666 
Q 3281 4666 3915 4102 
Q 4550 3538 4550 2338 
Q 4550 1131 3912 565 
Q 3275 0 1925 0 
L 628 0 
L 628 4666 
z
" id="DejaVuSans-44" transform="scale(0.015625)"/>
     </defs>
     <use xlink:href="#DejaVuSans-62"/>
     <use x="63.476562" xlink:href="#DejaVuSans-62"/>
     <use x="126.953125" xlink:href="#DejaVuSans-6f"/>
     <use x="188.134766" xlink:href="#DejaVuSans-62"/>
     <use x="251.611328" xlink:href="#DejaVuSans-20"/>
     <use x="283.398438" xlink:href="#DejaVuSans-66"/>
     <use x="318.603516" xlink:href="#DejaVuSans-36"/>
     <use x="382.226562" xlink:href="#DejaVuSans-2d"/>
     <use x="418.310547" xlink:href="#DejaVuSans-66"/>
     <use x="453.515625" xlink:href="#DejaVuSans-39"/>
     <use x="517.138672" xlink:href="#DejaVuSans-2c"/>
     <use x="548.925781" xlink:href="#DejaVuSans-20"/>
     <use x="580.712891" xlink:href="#DejaVuSans-35"/>
     <use x="644.335938" xlink:href="#DejaVuSans-2d"/>
     <use x="680.419922" xlink:href="#DejaVuSans-44"/>
    </g>
    <!-- 51 targets: 100..1e-08 -->
    <g transform="translate(60.632064 29.004495)scale(0.102 -0.102)">
     <defs>
      <path d="M 750 794 
L 1409 794 
L 1409 0 
L 750 0 
L 750 794 
z
M 750 3309 
L 1409 3309 
L 1409 2516 
L 750 2516 
L 750 3309 
z
" id="DejaVuSans-3a" transform="scale(0.015625)"/>
     </defs>
     <use xlink:href="#DejaVuSans-35"/>
     <use x="63.623047" xlink:href="#DejaVuSans-31"/>
     <use x="127.246094" xlink:href="#DejaVuSans-20"/>
     <use x="159.033203" xlink:href="#DejaVuSans-74"/>
     <use x="198.242188" xlink:href="#DejaVuSans-61"/>
     <use x="259.521484" xlink:href="#DejaVuSans-72"/>
     <use x="298.884766" xlink:href="#DejaVuSans-67"/>
     <use x="362.361328" xlink:href="#DejaVuSans-65"/>
     <use x="423.884766" xlink:href="#DejaVuSans-74"/>
     <use x="463.09375" xlink:href="#DejaVuSans-73"/>
     <use x="515.193359" xlink:href="#DejaVuSans-3a"/>
     <use x="548.884766" xlink:href="#DejaVuSans-20"/>
     <use x="580.671875" xlink:href="#DejaVuSans-31"/>
     <use x="644.294922" xlink:href="#DejaVuSans-30"/>
     <use x="707.917969" xlink:href="#DejaVuSans-30"/>
     <use x="771.541016" xlink:href="#DejaVuSans-2e"/>
     <use x="803.328125" xlink:href="#DejaVuSans-2e"/>
     <use x="835.115234" xlink:href="#DejaVuSans-31"/>
     <use x="898.738281" xlink:href="#DejaVuSans-65"/>
     <use x="960.261719" xlink:href="#DejaVuSans-2d"/>
     <use x="996.345703" xlink:href="#DejaVuSans-30"/>
     <use x="1059.96875" xlink:href="#DejaVuSans-38"/>
    </g>
    <!-- 15 instances -->
    <g transform="translate(60.632064 40.426264)scale(0.102 -0.102)">
     <use xlink:href="#DejaVuSans-31"/>
     <use x="63.623047" xlink:href="#DejaVuSans-35"/>
     <use x="127.246094" xlink:href="#DejaVuSans-20"/>
     <use x="159.033203" xlink:href="#DejaVuSans-69"/>
     <use x="186.816406" xlink:href="#DejaVuSans-6e"/>
     <use x="250.195312" xlink:href="#DejaVuSans-73"/>
     <use x="302.294922" xlink:href="#DejaVuSans-74"/>
     <use x="341.503906" xlink:href="#DejaVuSans-61"/>
     <use x="402.783203" xlink:href="#DejaVuSans-6e"/>
     <use x="466.162109" xlink:href="#DejaVuSans-63"/>
     <use x="521.142578" xlink:href="#DejaVuSans-65"/>
     <use x="582.666016" xlink:href="#DejaVuSans-73"/>
    </g>
   </g>
   <g id="text_17">
    <!-- v2.6 -->
    <g style="fill:#808080;" transform="translate(198.292262 293.943992)scale(0.1 -0.1)">
     <use xlink:href="#DejaVuSans-76"/>
     <use x="59.179688" xlink:href="#DejaVuSans-32"/>
     <use x="122.802734" xlink:href="#DejaVuSans-2e"/>
     <use x="154.589844" xlink:href="#DejaVuSans-36"/>
    </g>
   </g>
  </g>
 </g>
 <defs>
  <clipPath id="pd3f817f3a8">
   <rect height="292.032" width="303.2064" x="57.6" y="6.912"/>
  </clipPath>
 </defs>
</svg>
