<?xml version="1.0" encoding="utf-8" standalone="no"?>
<!DOCTYPE svg PUBLIC "-//W3C//DTD SVG 1.1//EN"
  "http://www.w3.org/Graphics/SVG/1.1/DTD/svg11.dtd">
<svg height="345.6pt" version="1.1" viewBox="0 0 460.8 345.6" width="460.8pt" xmlns="http://www.w3.org/2000/svg" xmlns:xlink="http://www.w3.org/1999/xlink">
 <metadata>
  <rdf:RDF xmlns:cc="http://creativecommons.org/ns#" xmlns:dc="http://purl.org/dc/elements/1.1/" xmlns:rdf="http://www.w3.org/1999/02/22-rdf-syntax-ns#">
   <cc:Work>
    <dc:type rdf:resource="http://purl.org/dc/dcmitype/StillImage"/>
    <dc:date>2022-05-07T15:07:13.857993</dc:date>
    <dc:format>image/svg+xml</dc:format>
    <dc:creator>
     <cc:Agent>
      <dc:title>Matplotlib v3.4.3, https://matplotlib.org/</dc:title>
     </cc:Agent>
    </dc:creator>
   </cc:Work>
  </rdf:RDF>
 </metadata>
 <defs>
  <style type="text/css">*{stroke-linecap:butt;stroke-linejoin:round;}</style>
 </defs>
 <g id="figure_1">
  <g id="patch_1">
   <path d="M 0 345.6 
L 460.8 345.6 
L 460.8 0 
L 0 0 
z
" style="fill:#ffffff;"/>
  </g>
  <g id="axes_1">
   <g id="patch_2">
    <path d="M 57.6 298.944 
L 360.8064 298.944 
L 360.8064 6.912 
L 57.6 6.912 
z
" style="fill:#ffffff;"/>
   </g>
   <g id="line2d_1">
    <path d="M 14.2848 298.944 
L 14.2848 297.798776 
L 34.951403 297.798776 
L 34.951403 296.653553 
L 53.402323 296.653553 
L 53.402323 295.508329 
L 66.441498 295.508329 
L 66.441498 293.217882 
L 69.674268 293.217882 
L 69.674268 292.072659 
L 70.639174 292.072659 
L 70.639174 235.956706 
L 72.432107 235.956706 
L 72.432107 230.230588 
L 73.268314 230.230588 
L 73.268314 182.1312 
L 93.934916 182.1312 
L 93.934916 180.985976 
L 100.535156 180.985976 
L 100.535156 179.840753 
L 107.109915 179.840753 
L 107.109915 178.695529 
L 108.162584 178.695529 
L 108.162584 177.550306 
L 112.487797 177.550306 
L 112.589207 171.824188 
L 112.690074 171.824188 
L 112.690074 170.678965 
L 112.890198 170.678965 
L 112.989468 163.807624 
L 113.088217 163.807624 
L 113.186449 148.919718 
L 113.284172 148.919718 
L 113.381389 129.450918 
L 113.478107 129.450918 
L 113.57433 119.143906 
L 126.420564 119.143906 
L 126.420564 117.998682 
L 141.261484 117.998682 
L 141.261484 116.853459 
L 146.512849 116.853459 
L 146.512849 115.708235 
L 150.919305 115.708235 
L 150.919305 114.563012 
L 151.102962 114.563012 
L 151.102962 113.417788 
L 154.639024 113.417788 
L 154.639024 112.272565 
L 154.854139 112.272565 
L 154.854139 111.127341 
L 156.462418 111.127341 
L 156.462418 109.982118 
L 159.351007 109.982118 
L 159.351007 108.836894 
L 161.527352 108.836894 
L 161.527352 107.691671 
L 162.527853 107.691671 
L 162.527853 106.546447 
L 165.483464 106.546447 
L 165.483464 105.401224 
L 168.263944 105.401224 
L 168.373724 96.239435 
L 168.384146 96.239435 
L 168.462127 91.658541 
L 168.508761 91.658541 
L 168.617126 50.430494 
L 168.627414 50.430494 
L 168.719753 44.704376 
L 168.781062 44.704376 
L 168.877727 35.542588 
L 169.014245 35.542588 
L 169.064557 24.090353 
L 169.129761 24.090353 
L 169.214689 16.073788 
L 207.422056 16.073788 
L 207.424672 6.912 
L 360.8064 6.912 
L 360.8064 6.912 
" style="fill:none;stroke:#f5deb3;stroke-linecap:square;stroke-width:4;"/>
   </g>
   <g id="line2d_2">
    <defs>
     <path d="M -0 7.778175 
L 7.778175 0 
L 0 -7.778175 
L -7.778175 -0 
z
" id="m011b37f25d" style="stroke:#f5deb3;stroke-linejoin:miter;stroke-width:1.5;"/>
    </defs>
    <g>
     <use style="fill:#f5deb3;stroke:#f5deb3;stroke-linejoin:miter;stroke-width:1.5;" x="70.639174" xlink:href="#m011b37f25d" y="292.072659"/>
     <use style="fill:#f5deb3;stroke:#f5deb3;stroke-linejoin:miter;stroke-width:1.5;" x="113.381389" xlink:href="#m011b37f25d" y="139.757929"/>
     <use style="fill:#f5deb3;stroke:#f5deb3;stroke-linejoin:miter;stroke-width:1.5;" x="168.581073" xlink:href="#m011b37f25d" y="64.173176"/>
     <use style="fill:#f5deb3;stroke:#f5deb3;stroke-linejoin:miter;stroke-width:1.5;" x="207.424672" xlink:href="#m011b37f25d" y="9.202447"/>
     <use style="fill:#f5deb3;stroke:#f5deb3;stroke-linejoin:miter;stroke-width:1.5;" x="207.424672" xlink:href="#m011b37f25d" y="6.912"/>
     <use style="fill:#f5deb3;stroke:#f5deb3;stroke-linejoin:miter;stroke-width:1.5;" x="360.8064" xlink:href="#m011b37f25d" y="6.912"/>
    </g>
   </g>
   <g id="line2d_3">
    <path style="fill:none;stroke:#f5deb3;stroke-linecap:square;stroke-width:4;"/>
    <g/>
   </g>
   <g id="line2d_4">
    <path d="M 360.8064 6.912 
L 380.514816 12.75264 
" style="fill:none;stroke:#f5deb3;stroke-linecap:square;stroke-width:4;"/>
    <g>
     <use style="fill:#f5deb3;stroke:#f5deb3;stroke-linejoin:miter;stroke-width:1.5;" x="360.8064" xlink:href="#m011b37f25d" y="6.912"/>
     <use style="fill:#f5deb3;stroke:#f5deb3;stroke-linejoin:miter;stroke-width:1.5;" x="380.514816" xlink:href="#m011b37f25d" y="12.75264"/>
    </g>
   </g>
   <g id="matplotlib.axis_1">
    <g id="xtick_1">
     <g id="line2d_5">
      <path clip-path="url(#p1b14f8b2da)" d="M 57.6 298.944 
L 57.6 6.912 
" style="fill:none;stroke:#b0b0b0;stroke-linecap:square;stroke-width:0.8;"/>
     </g>
     <g id="line2d_6">
      <defs>
       <path d="M 0 0 
L 0 3.5 
" id="mc68df882a6" style="stroke:#000000;stroke-width:0.8;"/>
      </defs>
      <g>
       <use style="stroke:#000000;stroke-width:0.8;" x="57.6" xlink:href="#mc68df882a6" y="298.944"/>
      </g>
     </g>
     <g id="text_1">
      <!-- 0 -->
      <g transform="translate(52.191875 318.861344)scale(0.17 -0.17)">
       <defs>
        <path d="M 2034 4250 
Q 1547 4250 1301 3770 
Q 1056 3291 1056 2328 
Q 1056 1369 1301 889 
Q 1547 409 2034 409 
Q 2525 409 2770 889 
Q 3016 1369 3016 2328 
Q 3016 3291 2770 3770 
Q 2525 4250 2034 4250 
z
M 2034 4750 
Q 2819 4750 3233 4129 
Q 3647 3509 3647 2328 
Q 3647 1150 3233 529 
Q 2819 -91 2034 -91 
Q 1250 -91 836 529 
Q 422 1150 422 2328 
Q 422 3509 836 4129 
Q 1250 4750 2034 4750 
z
" id="DejaVuSans-30" transform="scale(0.015625)"/>
       </defs>
       <use xlink:href="#DejaVuSans-30"/>
      </g>
     </g>
    </g>
    <g id="xtick_2">
     <g id="line2d_7">
      <path clip-path="url(#p1b14f8b2da)" d="M 144.2304 298.944 
L 144.2304 6.912 
" style="fill:none;stroke:#b0b0b0;stroke-linecap:square;stroke-width:0.8;"/>
     </g>
     <g id="line2d_8">
      <g>
       <use style="stroke:#000000;stroke-width:0.8;" x="144.2304" xlink:href="#mc68df882a6" y="298.944"/>
      </g>
     </g>
     <g id="text_2">
      <!-- 2 -->
      <g transform="translate(138.822275 318.861344)scale(0.17 -0.17)">
       <defs>
        <path d="M 1228 531 
L 3431 531 
L 3431 0 
L 469 0 
L 469 531 
Q 828 903 1448 1529 
Q 2069 2156 2228 2338 
Q 2531 2678 2651 2914 
Q 2772 3150 2772 3378 
Q 2772 3750 2511 3984 
Q 2250 4219 1831 4219 
Q 1534 4219 1204 4116 
Q 875 4013 500 3803 
L 500 4441 
Q 881 4594 1212 4672 
Q 1544 4750 1819 4750 
Q 2544 4750 2975 4387 
Q 3406 4025 3406 3419 
Q 3406 3131 3298 2873 
Q 3191 2616 2906 2266 
Q 2828 2175 2409 1742 
Q 1991 1309 1228 531 
z
" id="DejaVuSans-32" transform="scale(0.015625)"/>
       </defs>
       <use xlink:href="#DejaVuSans-32"/>
      </g>
     </g>
    </g>
    <g id="xtick_3">
     <g id="line2d_9">
      <path clip-path="url(#p1b14f8b2da)" d="M 230.8608 298.944 
L 230.8608 6.912 
" style="fill:none;stroke:#b0b0b0;stroke-linecap:square;stroke-width:0.8;"/>
     </g>
     <g id="line2d_10">
      <g>
       <use style="stroke:#000000;stroke-width:0.8;" x="230.8608" xlink:href="#mc68df882a6" y="298.944"/>
      </g>
     </g>
     <g id="text_3">
      <!-- 4 -->
      <g transform="translate(225.452675 318.861344)scale(0.17 -0.17)">
       <defs>
        <path d="M 2419 4116 
L 825 1625 
L 2419 1625 
L 2419 4116 
z
M 2253 4666 
L 3047 4666 
L 3047 1625 
L 3713 1625 
L 3713 1100 
L 3047 1100 
L 3047 0 
L 2419 0 
L 2419 1100 
L 313 1100 
L 313 1709 
L 2253 4666 
z
" id="DejaVuSans-34" transform="scale(0.015625)"/>
       </defs>
       <use xlink:href="#DejaVuSans-34"/>
      </g>
     </g>
    </g>
    <g id="xtick_4">
     <g id="line2d_11">
      <path clip-path="url(#p1b14f8b2da)" d="M 317.4912 298.944 
L 317.4912 6.912 
" style="fill:none;stroke:#b0b0b0;stroke-linecap:square;stroke-width:0.8;"/>
     </g>
     <g id="line2d_12">
      <g>
       <use style="stroke:#000000;stroke-width:0.8;" x="317.4912" xlink:href="#mc68df882a6" y="298.944"/>
      </g>
     </g>
     <g id="text_4">
      <!-- 6 -->
      <g transform="translate(312.083075 318.861344)scale(0.17 -0.17)">
       <defs>
        <path d="M 2113 2584 
Q 1688 2584 1439 2293 
Q 1191 2003 1191 1497 
Q 1191 994 1439 701 
Q 1688 409 2113 409 
Q 2538 409 2786 701 
Q 3034 994 3034 1497 
Q 3034 2003 2786 2293 
Q 2538 2584 2113 2584 
z
M 3366 4563 
L 3366 3988 
Q 3128 4100 2886 4159 
Q 2644 4219 2406 4219 
Q 1781 4219 1451 3797 
Q 1122 3375 1075 2522 
Q 1259 2794 1537 2939 
Q 1816 3084 2150 3084 
Q 2853 3084 3261 2657 
Q 3669 2231 3669 1497 
Q 3669 778 3244 343 
Q 2819 -91 2113 -91 
Q 1303 -91 875 529 
Q 447 1150 447 2328 
Q 447 3434 972 4092 
Q 1497 4750 2381 4750 
Q 2619 4750 2861 4703 
Q 3103 4656 3366 4563 
z
" id="DejaVuSans-36" transform="scale(0.015625)"/>
       </defs>
       <use xlink:href="#DejaVuSans-36"/>
      </g>
     </g>
    </g>
    <g id="xtick_5">
     <g id="line2d_13">
      <path clip-path="url(#p1b14f8b2da)" d="M 100.9152 298.944 
L 100.9152 6.912 
" style="fill:none;stroke:#b0b0b0;stroke-linecap:square;stroke-width:0.8;"/>
     </g>
     <g id="line2d_14">
      <defs>
       <path d="M 0 0 
L 0 2 
" id="m8bde7dc66a" style="stroke:#000000;stroke-width:0.6;"/>
      </defs>
      <g>
       <use style="stroke:#000000;stroke-width:0.6;" x="100.9152" xlink:href="#m8bde7dc66a" y="298.944"/>
      </g>
     </g>
    </g>
    <g id="xtick_6">
     <g id="line2d_15">
      <path clip-path="url(#p1b14f8b2da)" d="M 187.5456 298.944 
L 187.5456 6.912 
" style="fill:none;stroke:#b0b0b0;stroke-linecap:square;stroke-width:0.8;"/>
     </g>
     <g id="line2d_16">
      <g>
       <use style="stroke:#000000;stroke-width:0.6;" x="187.5456" xlink:href="#m8bde7dc66a" y="298.944"/>
      </g>
     </g>
    </g>
    <g id="xtick_7">
     <g id="line2d_17">
      <path clip-path="url(#p1b14f8b2da)" d="M 274.176 298.944 
L 274.176 6.912 
" style="fill:none;stroke:#b0b0b0;stroke-linecap:square;stroke-width:0.8;"/>
     </g>
     <g id="line2d_18">
      <g>
       <use style="stroke:#000000;stroke-width:0.6;" x="274.176" xlink:href="#m8bde7dc66a" y="298.944"/>
      </g>
     </g>
    </g>
    <g id="xtick_8">
     <g id="line2d_19">
      <path clip-path="url(#p1b14f8b2da)" d="M 360.8064 298.944 
L 360.8064 6.912 
" style="fill:none;stroke:#b0b0b0;stroke-linecap:square;stroke-width:0.8;"/>
     </g>
     <g id="line2d_20">
      <g>
       <use style="stroke:#000000;stroke-width:0.6;" x="360.8064" xlink:href="#m8bde7dc66a" y="298.944"/>
      </g>
     </g>
    </g>
    <g id="text_5">
     <!-- log10(# f-evals / dimension) -->
     <g transform="translate(88.823278 339.314156)scale(0.17 -0.17)">
      <defs>
       <path d="M 603 4863 
L 1178 4863 
L 1178 0 
L 603 0 
L 603 4863 
z
" id="DejaVuSans-6c" transform="scale(0.015625)"/>
       <path d="M 1959 3097 
Q 1497 3097 1228 2736 
Q 959 2375 959 1747 
Q 959 1119 1226 758 
Q 1494 397 1959 397 
Q 2419 397 2687 759 
Q 2956 1122 2956 1747 
Q 2956 2369 2687 2733 
Q 2419 3097 1959 3097 
z
M 1959 3584 
Q 2709 3584 3137 3096 
Q 3566 2609 3566 1747 
Q 3566 888 3137 398 
Q 2709 -91 1959 -91 
Q 1206 -91 779 398 
Q 353 888 353 1747 
Q 353 2609 779 3096 
Q 1206 3584 1959 3584 
z
" id="DejaVuSans-6f" transform="scale(0.015625)"/>
       <path d="M 2906 1791 
Q 2906 2416 2648 2759 
Q 2391 3103 1925 3103 
Q 1463 3103 1205 2759 
Q 947 2416 947 1791 
Q 947 1169 1205 825 
Q 1463 481 1925 481 
Q 2391 481 2648 825 
Q 2906 1169 2906 1791 
z
M 3481 434 
Q 3481 -459 3084 -895 
Q 2688 -1331 1869 -1331 
Q 1566 -1331 1297 -1286 
Q 1028 -1241 775 -1147 
L 775 -588 
Q 1028 -725 1275 -790 
Q 1522 -856 1778 -856 
Q 2344 -856 2625 -561 
Q 2906 -266 2906 331 
L 2906 616 
Q 2728 306 2450 153 
Q 2172 0 1784 0 
Q 1141 0 747 490 
Q 353 981 353 1791 
Q 353 2603 747 3093 
Q 1141 3584 1784 3584 
Q 2172 3584 2450 3431 
Q 2728 3278 2906 2969 
L 2906 3500 
L 3481 3500 
L 3481 434 
z
" id="DejaVuSans-67" transform="scale(0.015625)"/>
       <path d="M 794 531 
L 1825 531 
L 1825 4091 
L 703 3866 
L 703 4441 
L 1819 4666 
L 2450 4666 
L 2450 531 
L 3481 531 
L 3481 0 
L 794 0 
L 794 531 
z
" id="DejaVuSans-31" transform="scale(0.015625)"/>
       <path d="M 1984 4856 
Q 1566 4138 1362 3434 
Q 1159 2731 1159 2009 
Q 1159 1288 1364 580 
Q 1569 -128 1984 -844 
L 1484 -844 
Q 1016 -109 783 600 
Q 550 1309 550 2009 
Q 550 2706 781 3412 
Q 1013 4119 1484 4856 
L 1984 4856 
z
" id="DejaVuSans-28" transform="scale(0.015625)"/>
       <path d="M 3272 2816 
L 2363 2816 
L 2100 1772 
L 3016 1772 
L 3272 2816 
z
M 2803 4594 
L 2478 3297 
L 3391 3297 
L 3719 4594 
L 4219 4594 
L 3897 3297 
L 4872 3297 
L 4872 2816 
L 3775 2816 
L 3519 1772 
L 4513 1772 
L 4513 1294 
L 3397 1294 
L 3072 0 
L 2572 0 
L 2894 1294 
L 1978 1294 
L 1656 0 
L 1153 0 
L 1478 1294 
L 494 1294 
L 494 1772 
L 1594 1772 
L 1856 2816 
L 850 2816 
L 850 3297 
L 1978 3297 
L 2297 4594 
L 2803 4594 
z
" id="DejaVuSans-23" transform="scale(0.015625)"/>
       <path id="DejaVuSans-20" transform="scale(0.015625)"/>
       <path d="M 2375 4863 
L 2375 4384 
L 1825 4384 
Q 1516 4384 1395 4259 
Q 1275 4134 1275 3809 
L 1275 3500 
L 2222 3500 
L 2222 3053 
L 1275 3053 
L 1275 0 
L 697 0 
L 697 3053 
L 147 3053 
L 147 3500 
L 697 3500 
L 697 3744 
Q 697 4328 969 4595 
Q 1241 4863 1831 4863 
L 2375 4863 
z
" id="DejaVuSans-66" transform="scale(0.015625)"/>
       <path d="M 313 2009 
L 1997 2009 
L 1997 1497 
L 313 1497 
L 313 2009 
z
" id="DejaVuSans-2d" transform="scale(0.015625)"/>
       <path d="M 3597 1894 
L 3597 1613 
L 953 1613 
Q 991 1019 1311 708 
Q 1631 397 2203 397 
Q 2534 397 2845 478 
Q 3156 559 3463 722 
L 3463 178 
Q 3153 47 2828 -22 
Q 2503 -91 2169 -91 
Q 1331 -91 842 396 
Q 353 884 353 1716 
Q 353 2575 817 3079 
Q 1281 3584 2069 3584 
Q 2775 3584 3186 3129 
Q 3597 2675 3597 1894 
z
M 3022 2063 
Q 3016 2534 2758 2815 
Q 2500 3097 2075 3097 
Q 1594 3097 1305 2825 
Q 1016 2553 972 2059 
L 3022 2063 
z
" id="DejaVuSans-65" transform="scale(0.015625)"/>
       <path d="M 191 3500 
L 800 3500 
L 1894 563 
L 2988 3500 
L 3597 3500 
L 2284 0 
L 1503 0 
L 191 3500 
z
" id="DejaVuSans-76" transform="scale(0.015625)"/>
       <path d="M 2194 1759 
Q 1497 1759 1228 1600 
Q 959 1441 959 1056 
Q 959 750 1161 570 
Q 1363 391 1709 391 
Q 2188 391 2477 730 
Q 2766 1069 2766 1631 
L 2766 1759 
L 2194 1759 
z
M 3341 1997 
L 3341 0 
L 2766 0 
L 2766 531 
Q 2569 213 2275 61 
Q 1981 -91 1556 -91 
Q 1019 -91 701 211 
Q 384 513 384 1019 
Q 384 1609 779 1909 
Q 1175 2209 1959 2209 
L 2766 2209 
L 2766 2266 
Q 2766 2663 2505 2880 
Q 2244 3097 1772 3097 
Q 1472 3097 1187 3025 
Q 903 2953 641 2809 
L 641 3341 
Q 956 3463 1253 3523 
Q 1550 3584 1831 3584 
Q 2591 3584 2966 3190 
Q 3341 2797 3341 1997 
z
" id="DejaVuSans-61" transform="scale(0.015625)"/>
       <path d="M 2834 3397 
L 2834 2853 
Q 2591 2978 2328 3040 
Q 2066 3103 1784 3103 
Q 1356 3103 1142 2972 
Q 928 2841 928 2578 
Q 928 2378 1081 2264 
Q 1234 2150 1697 2047 
L 1894 2003 
Q 2506 1872 2764 1633 
Q 3022 1394 3022 966 
Q 3022 478 2636 193 
Q 2250 -91 1575 -91 
Q 1294 -91 989 -36 
Q 684 19 347 128 
L 347 722 
Q 666 556 975 473 
Q 1284 391 1588 391 
Q 1994 391 2212 530 
Q 2431 669 2431 922 
Q 2431 1156 2273 1281 
Q 2116 1406 1581 1522 
L 1381 1569 
Q 847 1681 609 1914 
Q 372 2147 372 2553 
Q 372 3047 722 3315 
Q 1072 3584 1716 3584 
Q 2034 3584 2315 3537 
Q 2597 3491 2834 3397 
z
" id="DejaVuSans-73" transform="scale(0.015625)"/>
       <path d="M 1625 4666 
L 2156 4666 
L 531 -594 
L 0 -594 
L 1625 4666 
z
" id="DejaVuSans-2f" transform="scale(0.015625)"/>
       <path d="M 2906 2969 
L 2906 4863 
L 3481 4863 
L 3481 0 
L 2906 0 
L 2906 525 
Q 2725 213 2448 61 
Q 2172 -91 1784 -91 
Q 1150 -91 751 415 
Q 353 922 353 1747 
Q 353 2572 751 3078 
Q 1150 3584 1784 3584 
Q 2172 3584 2448 3432 
Q 2725 3281 2906 2969 
z
M 947 1747 
Q 947 1113 1208 752 
Q 1469 391 1925 391 
Q 2381 391 2643 752 
Q 2906 1113 2906 1747 
Q 2906 2381 2643 2742 
Q 2381 3103 1925 3103 
Q 1469 3103 1208 2742 
Q 947 2381 947 1747 
z
" id="DejaVuSans-64" transform="scale(0.015625)"/>
       <path d="M 603 3500 
L 1178 3500 
L 1178 0 
L 603 0 
L 603 3500 
z
M 603 4863 
L 1178 4863 
L 1178 4134 
L 603 4134 
L 603 4863 
z
" id="DejaVuSans-69" transform="scale(0.015625)"/>
       <path d="M 3328 2828 
Q 3544 3216 3844 3400 
Q 4144 3584 4550 3584 
Q 5097 3584 5394 3201 
Q 5691 2819 5691 2113 
L 5691 0 
L 5113 0 
L 5113 2094 
Q 5113 2597 4934 2840 
Q 4756 3084 4391 3084 
Q 3944 3084 3684 2787 
Q 3425 2491 3425 1978 
L 3425 0 
L 2847 0 
L 2847 2094 
Q 2847 2600 2669 2842 
Q 2491 3084 2119 3084 
Q 1678 3084 1418 2786 
Q 1159 2488 1159 1978 
L 1159 0 
L 581 0 
L 581 3500 
L 1159 3500 
L 1159 2956 
Q 1356 3278 1631 3431 
Q 1906 3584 2284 3584 
Q 2666 3584 2933 3390 
Q 3200 3197 3328 2828 
z
" id="DejaVuSans-6d" transform="scale(0.015625)"/>
       <path d="M 3513 2113 
L 3513 0 
L 2938 0 
L 2938 2094 
Q 2938 2591 2744 2837 
Q 2550 3084 2163 3084 
Q 1697 3084 1428 2787 
Q 1159 2491 1159 1978 
L 1159 0 
L 581 0 
L 581 3500 
L 1159 3500 
L 1159 2956 
Q 1366 3272 1645 3428 
Q 1925 3584 2291 3584 
Q 2894 3584 3203 3211 
Q 3513 2838 3513 2113 
z
" id="DejaVuSans-6e" transform="scale(0.015625)"/>
       <path d="M 513 4856 
L 1013 4856 
Q 1481 4119 1714 3412 
Q 1947 2706 1947 2009 
Q 1947 1309 1714 600 
Q 1481 -109 1013 -844 
L 513 -844 
Q 928 -128 1133 580 
Q 1338 1288 1338 2009 
Q 1338 2731 1133 3434 
Q 928 4138 513 4856 
z
" id="DejaVuSans-29" transform="scale(0.015625)"/>
      </defs>
      <use xlink:href="#DejaVuSans-6c"/>
      <use x="27.783203" xlink:href="#DejaVuSans-6f"/>
      <use x="88.964844" xlink:href="#DejaVuSans-67"/>
      <use x="152.441406" xlink:href="#DejaVuSans-31"/>
      <use x="216.064453" xlink:href="#DejaVuSans-30"/>
      <use x="279.6875" xlink:href="#DejaVuSans-28"/>
      <use x="318.701172" xlink:href="#DejaVuSans-23"/>
      <use x="402.490234" xlink:href="#DejaVuSans-20"/>
      <use x="434.277344" xlink:href="#DejaVuSans-66"/>
      <use x="463.982422" xlink:href="#DejaVuSans-2d"/>
      <use x="500.066406" xlink:href="#DejaVuSans-65"/>
      <use x="561.589844" xlink:href="#DejaVuSans-76"/>
      <use x="620.769531" xlink:href="#DejaVuSans-61"/>
      <use x="682.048828" xlink:href="#DejaVuSans-6c"/>
      <use x="709.832031" xlink:href="#DejaVuSans-73"/>
      <use x="761.931641" xlink:href="#DejaVuSans-20"/>
      <use x="793.71875" xlink:href="#DejaVuSans-2f"/>
      <use x="827.410156" xlink:href="#DejaVuSans-20"/>
      <use x="859.197266" xlink:href="#DejaVuSans-64"/>
      <use x="922.673828" xlink:href="#DejaVuSans-69"/>
      <use x="950.457031" xlink:href="#DejaVuSans-6d"/>
      <use x="1047.869141" xlink:href="#DejaVuSans-65"/>
      <use x="1109.392578" xlink:href="#DejaVuSans-6e"/>
      <use x="1172.771484" xlink:href="#DejaVuSans-73"/>
      <use x="1224.871094" xlink:href="#DejaVuSans-69"/>
      <use x="1252.654297" xlink:href="#DejaVuSans-6f"/>
      <use x="1313.835938" xlink:href="#DejaVuSans-6e"/>
      <use x="1377.214844" xlink:href="#DejaVuSans-29"/>
     </g>
    </g>
   </g>
   <g id="matplotlib.axis_2">
    <g id="ytick_1">
     <g id="line2d_21">
      <path clip-path="url(#p1b14f8b2da)" d="M 57.6 298.944 
L 360.8064 298.944 
" style="fill:none;stroke:#b0b0b0;stroke-linecap:square;stroke-width:0.8;"/>
     </g>
     <g id="line2d_22">
      <defs>
       <path d="M 0 0 
L -3.5 0 
" id="m039f4f711d" style="stroke:#000000;stroke-width:0.8;"/>
      </defs>
      <g>
       <use style="stroke:#000000;stroke-width:0.8;" x="57.6" xlink:href="#m039f4f711d" y="298.944"/>
      </g>
     </g>
     <g id="text_6">
      <!-- 0.0 -->
      <g transform="translate(25.155 305.02275)scale(0.16 -0.16)">
       <defs>
        <path d="M 684 794 
L 1344 794 
L 1344 0 
L 684 0 
L 684 794 
z
" id="DejaVuSans-2e" transform="scale(0.015625)"/>
       </defs>
       <use xlink:href="#DejaVuSans-30"/>
       <use x="63.623047" xlink:href="#DejaVuSans-2e"/>
       <use x="95.410156" xlink:href="#DejaVuSans-30"/>
      </g>
     </g>
    </g>
    <g id="ytick_2">
     <g id="line2d_23">
      <path clip-path="url(#p1b14f8b2da)" d="M 57.6 240.5376 
L 360.8064 240.5376 
" style="fill:none;stroke:#b0b0b0;stroke-linecap:square;stroke-width:0.8;"/>
     </g>
     <g id="line2d_24">
      <g>
       <use style="stroke:#000000;stroke-width:0.8;" x="57.6" xlink:href="#m039f4f711d" y="240.5376"/>
      </g>
     </g>
     <g id="text_7">
      <!-- 0.2 -->
      <g transform="translate(25.155 246.61635)scale(0.16 -0.16)">
       <use xlink:href="#DejaVuSans-30"/>
       <use x="63.623047" xlink:href="#DejaVuSans-2e"/>
       <use x="95.410156" xlink:href="#DejaVuSans-32"/>
      </g>
     </g>
    </g>
    <g id="ytick_3">
     <g id="line2d_25">
      <path clip-path="url(#p1b14f8b2da)" d="M 57.6 182.1312 
L 360.8064 182.1312 
" style="fill:none;stroke:#b0b0b0;stroke-linecap:square;stroke-width:0.8;"/>
     </g>
     <g id="line2d_26">
      <g>
       <use style="stroke:#000000;stroke-width:0.8;" x="57.6" xlink:href="#m039f4f711d" y="182.1312"/>
      </g>
     </g>
     <g id="text_8">
      <!-- 0.4 -->
      <g transform="translate(25.155 188.20995)scale(0.16 -0.16)">
       <use xlink:href="#DejaVuSans-30"/>
       <use x="63.623047" xlink:href="#DejaVuSans-2e"/>
       <use x="95.410156" xlink:href="#DejaVuSans-34"/>
      </g>
     </g>
    </g>
    <g id="ytick_4">
     <g id="line2d_27">
      <path clip-path="url(#p1b14f8b2da)" d="M 57.6 123.7248 
L 360.8064 123.7248 
" style="fill:none;stroke:#b0b0b0;stroke-linecap:square;stroke-width:0.8;"/>
     </g>
     <g id="line2d_28">
      <g>
       <use style="stroke:#000000;stroke-width:0.8;" x="57.6" xlink:href="#m039f4f711d" y="123.7248"/>
      </g>
     </g>
     <g id="text_9">
      <!-- 0.6 -->
      <g transform="translate(25.155 129.80355)scale(0.16 -0.16)">
       <use xlink:href="#DejaVuSans-30"/>
       <use x="63.623047" xlink:href="#DejaVuSans-2e"/>
       <use x="95.410156" xlink:href="#DejaVuSans-36"/>
      </g>
     </g>
    </g>
    <g id="ytick_5">
     <g id="line2d_29">
      <path clip-path="url(#p1b14f8b2da)" d="M 57.6 65.3184 
L 360.8064 65.3184 
" style="fill:none;stroke:#b0b0b0;stroke-linecap:square;stroke-width:0.8;"/>
     </g>
     <g id="line2d_30">
      <g>
       <use style="stroke:#000000;stroke-width:0.8;" x="57.6" xlink:href="#m039f4f711d" y="65.3184"/>
      </g>
     </g>
     <g id="text_10">
      <!-- 0.8 -->
      <g transform="translate(25.155 71.39715)scale(0.16 -0.16)">
       <defs>
        <path d="M 2034 2216 
Q 1584 2216 1326 1975 
Q 1069 1734 1069 1313 
Q 1069 891 1326 650 
Q 1584 409 2034 409 
Q 2484 409 2743 651 
Q 3003 894 3003 1313 
Q 3003 1734 2745 1975 
Q 2488 2216 2034 2216 
z
M 1403 2484 
Q 997 2584 770 2862 
Q 544 3141 544 3541 
Q 544 4100 942 4425 
Q 1341 4750 2034 4750 
Q 2731 4750 3128 4425 
Q 3525 4100 3525 3541 
Q 3525 3141 3298 2862 
Q 3072 2584 2669 2484 
Q 3125 2378 3379 2068 
Q 3634 1759 3634 1313 
Q 3634 634 3220 271 
Q 2806 -91 2034 -91 
Q 1263 -91 848 271 
Q 434 634 434 1313 
Q 434 1759 690 2068 
Q 947 2378 1403 2484 
z
M 1172 3481 
Q 1172 3119 1398 2916 
Q 1625 2713 2034 2713 
Q 2441 2713 2670 2916 
Q 2900 3119 2900 3481 
Q 2900 3844 2670 4047 
Q 2441 4250 2034 4250 
Q 1625 4250 1398 4047 
Q 1172 3844 1172 3481 
z
" id="DejaVuSans-38" transform="scale(0.015625)"/>
       </defs>
       <use xlink:href="#DejaVuSans-30"/>
       <use x="63.623047" xlink:href="#DejaVuSans-2e"/>
       <use x="95.410156" xlink:href="#DejaVuSans-38"/>
      </g>
     </g>
    </g>
    <g id="ytick_6">
     <g id="line2d_31">
      <path clip-path="url(#p1b14f8b2da)" d="M 57.6 6.912 
L 360.8064 6.912 
" style="fill:none;stroke:#b0b0b0;stroke-linecap:square;stroke-width:0.8;"/>
     </g>
     <g id="line2d_32">
      <g>
       <use style="stroke:#000000;stroke-width:0.8;" x="57.6" xlink:href="#m039f4f711d" y="6.912"/>
      </g>
     </g>
     <g id="text_11">
      <!-- 1.0 -->
      <g transform="translate(25.155 12.99075)scale(0.16 -0.16)">
       <use xlink:href="#DejaVuSans-31"/>
       <use x="63.623047" xlink:href="#DejaVuSans-2e"/>
       <use x="95.410156" xlink:href="#DejaVuSans-30"/>
      </g>
     </g>
    </g>
    <g id="text_12">
     <!-- Fraction of function,target pairs -->
     <g transform="translate(17.619531 287.313)rotate(-90)scale(0.17 -0.17)">
      <defs>
       <path d="M 628 4666 
L 3309 4666 
L 3309 4134 
L 1259 4134 
L 1259 2759 
L 3109 2759 
L 3109 2228 
L 1259 2228 
L 1259 0 
L 628 0 
L 628 4666 
z
" id="DejaVuSans-46" transform="scale(0.015625)"/>
       <path d="M 2631 2963 
Q 2534 3019 2420 3045 
Q 2306 3072 2169 3072 
Q 1681 3072 1420 2755 
Q 1159 2438 1159 1844 
L 1159 0 
L 581 0 
L 581 3500 
L 1159 3500 
L 1159 2956 
Q 1341 3275 1631 3429 
Q 1922 3584 2338 3584 
Q 2397 3584 2469 3576 
Q 2541 3569 2628 3553 
L 2631 2963 
z
" id="DejaVuSans-72" transform="scale(0.015625)"/>
       <path d="M 3122 3366 
L 3122 2828 
Q 2878 2963 2633 3030 
Q 2388 3097 2138 3097 
Q 1578 3097 1268 2742 
Q 959 2388 959 1747 
Q 959 1106 1268 751 
Q 1578 397 2138 397 
Q 2388 397 2633 464 
Q 2878 531 3122 666 
L 3122 134 
Q 2881 22 2623 -34 
Q 2366 -91 2075 -91 
Q 1284 -91 818 406 
Q 353 903 353 1747 
Q 353 2603 823 3093 
Q 1294 3584 2113 3584 
Q 2378 3584 2631 3529 
Q 2884 3475 3122 3366 
z
" id="DejaVuSans-63" transform="scale(0.015625)"/>
       <path d="M 1172 4494 
L 1172 3500 
L 2356 3500 
L 2356 3053 
L 1172 3053 
L 1172 1153 
Q 1172 725 1289 603 
Q 1406 481 1766 481 
L 2356 481 
L 2356 0 
L 1766 0 
Q 1100 0 847 248 
Q 594 497 594 1153 
L 594 3053 
L 172 3053 
L 172 3500 
L 594 3500 
L 594 4494 
L 1172 4494 
z
" id="DejaVuSans-74" transform="scale(0.015625)"/>
       <path d="M 544 1381 
L 544 3500 
L 1119 3500 
L 1119 1403 
Q 1119 906 1312 657 
Q 1506 409 1894 409 
Q 2359 409 2629 706 
Q 2900 1003 2900 1516 
L 2900 3500 
L 3475 3500 
L 3475 0 
L 2900 0 
L 2900 538 
Q 2691 219 2414 64 
Q 2138 -91 1772 -91 
Q 1169 -91 856 284 
Q 544 659 544 1381 
z
M 1991 3584 
L 1991 3584 
z
" id="DejaVuSans-75" transform="scale(0.015625)"/>
       <path d="M 750 794 
L 1409 794 
L 1409 256 
L 897 -744 
L 494 -744 
L 750 256 
L 750 794 
z
" id="DejaVuSans-2c" transform="scale(0.015625)"/>
       <path d="M 1159 525 
L 1159 -1331 
L 581 -1331 
L 581 3500 
L 1159 3500 
L 1159 2969 
Q 1341 3281 1617 3432 
Q 1894 3584 2278 3584 
Q 2916 3584 3314 3078 
Q 3713 2572 3713 1747 
Q 3713 922 3314 415 
Q 2916 -91 2278 -91 
Q 1894 -91 1617 61 
Q 1341 213 1159 525 
z
M 3116 1747 
Q 3116 2381 2855 2742 
Q 2594 3103 2138 3103 
Q 1681 3103 1420 2742 
Q 1159 2381 1159 1747 
Q 1159 1113 1420 752 
Q 1681 391 2138 391 
Q 2594 391 2855 752 
Q 3116 1113 3116 1747 
z
" id="DejaVuSans-70" transform="scale(0.015625)"/>
      </defs>
      <use xlink:href="#DejaVuSans-46"/>
      <use x="50.269531" xlink:href="#DejaVuSans-72"/>
      <use x="91.382812" xlink:href="#DejaVuSans-61"/>
      <use x="152.662109" xlink:href="#DejaVuSans-63"/>
      <use x="207.642578" xlink:href="#DejaVuSans-74"/>
      <use x="246.851562" xlink:href="#DejaVuSans-69"/>
      <use x="274.634766" xlink:href="#DejaVuSans-6f"/>
      <use x="335.816406" xlink:href="#DejaVuSans-6e"/>
      <use x="399.195312" xlink:href="#DejaVuSans-20"/>
      <use x="430.982422" xlink:href="#DejaVuSans-6f"/>
      <use x="492.164062" xlink:href="#DejaVuSans-66"/>
      <use x="527.369141" xlink:href="#DejaVuSans-20"/>
      <use x="559.15625" xlink:href="#DejaVuSans-66"/>
      <use x="594.361328" xlink:href="#DejaVuSans-75"/>
      <use x="657.740234" xlink:href="#DejaVuSans-6e"/>
      <use x="721.119141" xlink:href="#DejaVuSans-63"/>
      <use x="776.099609" xlink:href="#DejaVuSans-74"/>
      <use x="815.308594" xlink:href="#DejaVuSans-69"/>
      <use x="843.091797" xlink:href="#DejaVuSans-6f"/>
      <use x="904.273438" xlink:href="#DejaVuSans-6e"/>
      <use x="967.652344" xlink:href="#DejaVuSans-2c"/>
      <use x="999.439453" xlink:href="#DejaVuSans-74"/>
      <use x="1038.648438" xlink:href="#DejaVuSans-61"/>
      <use x="1099.927734" xlink:href="#DejaVuSans-72"/>
      <use x="1139.291016" xlink:href="#DejaVuSans-67"/>
      <use x="1202.767578" xlink:href="#DejaVuSans-65"/>
      <use x="1264.291016" xlink:href="#DejaVuSans-74"/>
      <use x="1303.5" xlink:href="#DejaVuSans-20"/>
      <use x="1335.287109" xlink:href="#DejaVuSans-70"/>
      <use x="1398.763672" xlink:href="#DejaVuSans-61"/>
      <use x="1460.042969" xlink:href="#DejaVuSans-69"/>
      <use x="1487.826172" xlink:href="#DejaVuSans-72"/>
      <use x="1528.939453" xlink:href="#DejaVuSans-73"/>
     </g>
    </g>
   </g>
   <g id="line2d_33">
    <defs>
     <path d="M 0 1.5 
C 0.397805 1.5 0.77937 1.341951 1.06066 1.06066 
C 1.341951 0.77937 1.5 0.397805 1.5 0 
C 1.5 -0.397805 1.341951 -0.77937 1.06066 -1.06066 
C 0.77937 -1.341951 0.397805 -1.5 0 -1.5 
C -0.397805 -1.5 -0.77937 -1.341951 -1.06066 -1.06066 
C -1.341951 -0.77937 -1.5 -0.397805 -1.5 0 
C -1.5 0.397805 -1.341951 0.77937 -1.06066 1.06066 
C -0.77937 1.341951 -0.397805 1.5 0 1.5 
z
" id="m41be968c5b" style="stroke:#f5deb3;"/>
    </defs>
    <g>
     <use style="fill:#f5deb3;stroke:#f5deb3;" x="207.424672" xlink:href="#m41be968c5b" y="6.912"/>
     <use style="fill:#f5deb3;stroke:#f5deb3;" x="207.424672" xlink:href="#m41be968c5b" y="6.912"/>
    </g>
   </g>
   <g id="line2d_34">
    <defs>
     <path d="M 0 1.5 
C 0.397805 1.5 0.77937 1.341951 1.06066 1.06066 
C 1.341951 0.77937 1.5 0.397805 1.5 0 
C 1.5 -0.397805 1.341951 -0.77937 1.06066 -1.06066 
C 0.77937 -1.341951 0.397805 -1.5 0 -1.5 
C -0.397805 -1.5 -0.77937 -1.341951 -1.06066 -1.06066 
C -1.341951 -0.77937 -1.5 -0.397805 -1.5 0 
C -1.5 0.397805 -1.341951 0.77937 -1.06066 1.06066 
C -0.77937 1.341951 -0.397805 1.5 0 1.5 
z
" id="m3415dde109" style="stroke:#000080;"/>
    </defs>
    <g>
     <use style="fill:#000080;stroke:#000080;" x="297.308916" xlink:href="#m3415dde109" y="6.912"/>
     <use style="fill:#000080;stroke:#000080;" x="297.308916" xlink:href="#m3415dde109" y="6.912"/>
    </g>
   </g>
   <g id="line2d_35">
    <path d="M 14.2848 298.944 
L 14.2848 298.562259 
L 27.323974 298.562259 
L 27.323974 298.333214 
L 34.951403 298.333214 
L 34.951403 298.180518 
L 40.363149 298.180518 
L 40.363149 297.875125 
L 44.560826 297.875125 
L 44.560826 297.722428 
L 47.990577 297.722428 
L 47.990577 297.493384 
L 50.890391 297.493384 
L 50.890391 297.340687 
L 57.6 297.264339 
L 57.6 297.035294 
L 61.029752 297.035294 
L 61.029752 296.806249 
L 62.535479 296.806249 
L 62.535479 296.653553 
L 69.674268 296.577205 
L 69.674268 296.424508 
L 80.059535 296.424508 
L 80.059535 296.195464 
L 86.712053 296.119115 
L 86.712053 296.042767 
L 89.668958 295.966419 
L 89.668958 295.890071 
L 92.223596 295.813722 
L 92.223596 295.737374 
L 95.998523 295.737374 
L 95.998523 295.584678 
L 96.480897 295.584678 
L 96.480897 295.279285 
L 98.295464 295.202936 
L 98.295464 295.126588 
L 99.950294 295.05024 
L 99.950294 294.897544 
L 103.214303 294.821195 
L 103.214303 294.668499 
L 105.99483 294.592151 
L 105.99483 294.515802 
L 107.109915 294.439454 
L 107.109915 294.363106 
L 107.643612 294.286758 
L 107.643612 294.134061 
L 109.400633 294.134061 
L 109.400633 293.981365 
L 109.873904 293.981365 
L 109.873904 293.828668 
L 112.690074 293.75232 
L 112.690074 293.675972 
L 113.670063 293.675972 
L 113.670063 293.523275 
L 114.418881 293.446927 
L 114.418881 293.370579 
L 114.7824 293.370579 
L 114.7824 293.217882 
L 115.489021 293.141534 
L 115.489021 292.988838 
L 116.170056 292.912489 
L 116.170056 292.836141 
L 116.501546 292.759793 
L 116.501546 292.607096 
L 117.772007 292.530748 
L 117.772007 292.378052 
L 118.524569 292.301704 
L 118.524569 292.225355 
L 119.389621 292.149007 
L 119.389621 292.072659 
L 120.48442 291.996311 
L 120.48442 291.919962 
L 121.39274 291.843614 
L 121.39274 291.767266 
L 122.854567 291.690918 
L 122.854567 291.538221 
L 123.202939 291.538221 
L 123.202939 291.309176 
L 123.769595 291.232828 
L 123.769595 291.15648 
L 124.854134 291.15648 
L 124.854134 291.003784 
L 126.372018 290.927435 
L 126.372018 290.851087 
L 126.851931 290.774739 
L 126.851931 290.469346 
L 127.227236 290.392998 
L 127.319904 290.163953 
L 127.503881 290.163953 
L 127.503881 290.011256 
L 127.686077 290.011256 
L 127.776517 289.782212 
L 128.045258 289.782212 
L 128.045258 289.629515 
L 128.57149 289.629515 
L 128.57149 289.476819 
L 128.829186 289.400471 
L 128.914307 289.247774 
L 129.906795 289.171426 
L 129.906795 289.095078 
L 130.772751 289.018729 
L 130.849533 288.866033 
L 131.452761 288.789685 
L 131.526822 288.636988 
L 131.820186 288.56064 
L 131.892817 288.178899 
L 132.251827 288.102551 
L 132.322814 287.720809 
L 133.01833 287.644461 
L 133.01833 287.568113 
L 133.356676 287.491765 
L 133.356676 287.339068 
L 133.754819 287.26272 
L 133.820365 287.110024 
L 134.080287 287.033675 
L 134.14471 286.880979 
L 134.208913 286.880979 
L 134.208913 286.728282 
L 134.652304 286.651934 
L 134.652304 286.575586 
L 134.901055 286.499238 
L 134.901055 286.422889 
L 135.207439 286.346541 
L 135.207439 286.193845 
L 135.568632 286.117496 
L 135.568632 285.9648 
L 135.805631 285.9648 
L 135.864417 285.735755 
L 136.039681 285.659407 
L 136.039681 285.583059 
L 136.385386 285.506711 
L 136.385386 285.354014 
L 136.499223 285.354014 
L 136.499223 285.201318 
L 136.612375 285.201318 
L 136.612375 284.972273 
L 136.780838 284.895925 
L 136.780838 284.819576 
L 137.0583 284.743228 
L 137.113304 284.590532 
L 138.076838 284.514184 
L 138.076838 284.437835 
L 138.387352 284.361487 
L 138.387352 284.285139 
L 138.843719 284.208791 
L 138.843719 284.132442 
L 138.993414 284.132442 
L 139.043049 283.827049 
L 139.191172 283.750701 
L 139.191172 283.674353 
L 139.580558 283.674353 
L 139.676658 283.139915 
L 139.724525 283.139915 
L 139.77227 282.758174 
L 140.056223 282.681826 
L 140.14993 282.529129 
L 140.28962 282.452781 
L 140.382174 281.994692 
L 140.428281 281.994692 
L 140.520157 281.536602 
L 140.611586 281.460254 
L 140.657135 281.231209 
L 140.928134 281.231209 
L 141.017607 280.925816 
L 141.283499 280.849468 
L 141.283499 280.77312 
L 141.632274 280.696772 
L 141.632274 280.620424 
L 141.804267 280.544075 
L 141.84702 280.391379 
L 142.059343 280.391379 
L 142.143605 280.085986 
L 142.269295 280.009638 
L 142.311006 279.704245 
L 142.641404 279.627896 
L 142.723105 279.398852 
L 142.885449 279.322504 
L 142.885449 279.246155 
L 143.006295 279.246155 
L 143.046405 278.940762 
L 143.599145 278.864414 
L 143.676798 278.559021 
L 143.907854 278.482673 
L 143.907854 278.406325 
L 144.022326 278.406325 
L 144.098256 278.100932 
L 144.173881 278.100932 
L 144.249202 277.719191 
L 144.324223 277.719191 
L 144.361622 277.490146 
L 144.510478 277.413798 
L 144.621352 277.108405 
L 144.694906 277.032056 
L 144.731576 276.87936 
L 144.91386 276.803012 
L 144.950106 276.497619 
L 145.166126 276.421271 
L 145.201889 276.192226 
L 145.415054 276.115878 
L 145.450347 275.963181 
L 145.695567 275.886833 
L 145.695567 275.810485 
L 145.971958 275.734136 
L 146.074567 275.276047 
L 146.176619 275.199699 
L 146.210514 274.894306 
L 146.311833 274.894306 
L 146.412609 274.359868 
L 146.612557 274.28352 
L 146.678736 273.978127 
L 146.973697 273.978127 
L 147.070998 273.672734 
L 147.391749 273.596386 
L 147.455248 273.443689 
L 147.581606 273.443689 
L 147.581606 273.290993 
L 147.707122 273.290993 
L 147.707122 273.138296 
L 147.831805 273.138296 
L 147.893838 269.473581 
L 148.231412 269.397233 
L 148.292143 268.404706 
L 148.413021 268.328358 
L 148.503173 267.946616 
L 148.711861 267.870268 
L 148.711861 267.79392 
L 148.859519 267.79392 
L 148.947561 267.564875 
L 149.180344 267.488527 
L 149.2669 267.106786 
L 149.410282 267.030438 
L 149.495789 266.572348 
L 149.665646 266.496 
L 149.750003 265.961562 
L 149.945377 265.961562 
L 150.056115 257.257864 
L 150.138743 257.181515 
L 150.193627 256.876122 
L 150.302917 256.799774 
L 150.411576 256.494381 
L 150.519611 256.418033 
L 150.573397 256.188988 
L 150.707193 256.11264 
L 150.733838 255.959944 
L 150.998235 255.883595 
L 150.998235 255.807247 
L 151.207109 255.807247 
L 151.284843 253.135059 
L 151.362257 253.135059 
L 151.439354 252.829666 
L 151.56715 252.829666 
L 151.643413 250.157478 
L 151.769835 250.157478 
L 151.795018 249.928433 
L 151.895414 249.928433 
L 151.97036 249.62304 
L 152.16877 249.546692 
L 152.267196 249.164951 
L 152.365109 249.088602 
L 152.462515 248.859558 
L 152.55942 248.859558 
L 152.631772 248.630513 
L 152.775647 248.554165 
L 152.847174 248.172424 
L 153.060137 248.096075 
L 153.060137 247.943379 
L 153.224124 247.867031 
L 153.270716 244.965798 
L 153.340389 244.965798 
L 153.340389 244.736753 
L 153.547871 244.660405 
L 153.639356 244.507708 
L 153.707679 244.43136 
L 153.798392 243.13344 
L 154.04562 243.057092 
L 154.134722 242.599002 
L 154.245509 242.522654 
L 154.311669 242.217261 
L 154.530538 242.140913 
L 154.574008 241.988216 
L 154.789862 241.911868 
L 154.854139 241.606475 
L 154.918196 241.606475 
L 154.960781 241.377431 
L 155.109071 241.377431 
L 155.214281 240.690296 
L 155.298028 240.613948 
L 155.298028 240.5376 
L 155.608798 240.461252 
L 155.690811 237.789064 
L 155.792826 237.712715 
L 155.894291 237.178278 
L 155.954908 237.178278 
L 156.015331 236.949233 
L 156.175515 236.872885 
L 156.175515 236.796536 
L 156.294765 236.796536 
L 156.393565 235.880358 
L 156.648044 235.804009 
L 156.648044 235.727661 
L 156.783658 235.727661 
L 156.87993 232.902776 
L 156.899125 232.902776 
L 156.99481 232.521035 
L 157.241336 232.444687 
L 157.3353 232.291991 
L 157.410135 232.291991 
L 157.503261 231.986598 
L 158.034489 231.910249 
L 158.106599 231.604856 
L 158.196349 231.528508 
L 158.267842 231.146767 
L 158.410018 231.146767 
L 158.515949 228.932668 
L 158.58624 228.85632 
L 158.656269 227.940141 
L 158.864805 227.863793 
L 158.951018 227.711096 
L 159.002557 227.634748 
L 159.071056 227.100311 
L 159.15633 227.100311 
L 159.224273 226.718569 
L 159.291971 226.718569 
L 159.291971 226.413176 
L 159.527013 226.336828 
L 159.61025 225.878739 
L 159.643442 225.878739 
L 159.742668 223.588292 
L 159.775628 223.588292 
L 159.824959 220.916104 
L 159.939564 220.916104 
L 160.00474 220.687059 
L 160.198926 220.610711 
L 160.263211 218.47296 
L 160.375185 218.396612 
L 160.375185 218.320264 
L 160.518179 218.243915 
L 160.518179 218.167567 
L 160.675797 218.167567 
L 160.754113 215.724424 
L 160.894266 215.724424 
L 161.002557 213.510325 
L 161.094883 213.433976 
L 161.202028 213.204932 
L 161.262981 213.128584 
L 161.369176 212.517798 
L 161.414505 212.517798 
L 161.504837 212.212405 
L 161.594737 212.212405 
L 161.654432 211.98336 
L 161.802848 211.98336 
L 161.832391 211.525271 
L 162.037903 211.448922 
L 162.139824 211.067181 
L 162.212287 210.990833 
L 162.226747 210.838136 
L 162.413713 210.761788 
L 162.499383 210.456395 
L 162.542072 210.456395 
L 162.613005 210.151002 
L 162.66956 210.151002 
L 162.768124 209.845609 
L 162.824215 209.769261 
L 162.852198 209.616565 
L 163.005365 209.540216 
L 163.005365 209.463868 
L 163.22595 209.38752 
L 163.321648 208.929431 
L 163.538576 208.853082 
L 163.605857 208.242296 
L 163.686277 208.242296 
L 163.686277 208.0896 
L 163.832826 208.013252 
L 163.925494 207.707859 
L 164.004562 207.631511 
L 164.09639 207.020725 
L 164.148663 206.944376 
L 164.148663 206.79168 
L 164.317552 206.715332 
L 164.407868 206.486287 
L 164.446443 206.409939 
L 164.446443 206.333591 
L 164.612692 206.257242 
L 164.638138 206.104546 
L 164.815309 206.028198 
L 164.903272 205.646456 
L 165.0033 205.570108 
L 165.090391 205.112019 
L 165.139977 205.035671 
L 165.214111 204.653929 
L 165.34927 204.577581 
L 165.434777 204.043144 
L 165.544147 203.966795 
L 165.640833 203.585054 
L 165.676963 203.508706 
L 165.701011 203.356009 
L 165.796897 203.356009 
L 165.892297 202.821572 
L 165.951676 202.745224 
L 166.05809 202.439831 
L 166.140442 202.363482 
L 166.175626 201.981741 
L 166.350564 201.905393 
L 166.408517 201.6 
L 166.489353 201.523652 
L 166.592777 201.065562 
L 166.627125 200.989214 
L 166.718416 200.607473 
L 166.797933 200.531125 
L 166.899679 200.225732 
L 166.944723 200.149384 
L 167.023292 199.691294 
L 167.157222 199.614946 
L 167.23491 199.233205 
L 167.356346 199.233205 
L 167.466067 198.775115 
L 167.586025 198.698767 
L 167.694418 198.087981 
L 167.812933 198.011633 
L 167.920031 197.553544 
L 167.973351 197.553544 
L 168.068949 197.171802 
L 168.111282 197.095454 
L 168.164064 196.866409 
L 168.248209 196.790061 
L 168.352863 196.255624 
L 168.446557 196.179275 
L 168.498408 195.873882 
L 168.62227 195.797534 
L 168.714635 195.186748 
L 168.77596 195.186748 
L 168.837086 194.805007 
L 169.039418 194.728659 
L 169.109722 194.346918 
L 169.18975 194.346918 
L 169.279377 193.81248 
L 169.338891 193.736132 
L 169.427812 193.201694 
L 169.486859 193.201694 
L 169.594634 192.743605 
L 169.750303 192.667256 
L 169.818006 191.751078 
L 169.885465 191.674729 
L 169.981418 191.140292 
L 170.038756 191.063944 
L 170.10543 190.605854 
L 170.162392 190.529506 
L 170.256946 190.147765 
L 170.36041 190.071416 
L 170.463308 189.460631 
L 170.528496 189.460631 
L 170.630481 188.697148 
L 170.639725 188.697148 
L 170.731916 188.162711 
L 170.805345 188.086362 
L 170.905844 187.857318 
L 170.960436 187.780969 
L 171.023928 187.475576 
L 171.141275 187.399228 
L 171.248949 186.941139 
L 171.275772 186.864791 
L 171.347112 186.406701 
L 171.48015 186.330353 
L 171.568323 185.948612 
L 171.621029 185.948612 
L 171.708545 185.643219 
L 171.83906 185.566871 
L 171.934199 184.879736 
L 171.951446 184.879736 
L 171.985891 184.497995 
L 172.097406 184.421647 
L 172.174222 184.192602 
L 172.267686 184.116254 
L 172.335368 183.505468 
L 172.428036 183.42912 
L 172.536968 182.741986 
L 172.595363 182.665638 
L 172.670177 182.207548 
L 172.752956 182.1312 
L 172.860027 181.902155 
L 172.868238 181.902155 
L 172.974657 181.215021 
L 173.088593 181.138673 
L 173.185706 180.527887 
L 173.234075 180.451539 
L 173.33845 180.146146 
L 173.370449 180.146146 
L 173.458168 179.459012 
L 173.513776 179.382664 
L 173.624503 178.542833 
L 173.695341 178.466485 
L 173.758086 178.313788 
L 173.820621 178.313788 
L 173.921801 177.550306 
L 173.937319 177.550306 
L 174.037874 177.168565 
L 174.076407 177.092216 
L 174.18388 176.481431 
L 174.267894 176.405082 
L 174.35912 175.565252 
L 174.397001 175.488904 
L 174.502663 174.878118 
L 174.517709 174.878118 
L 174.607735 174.572725 
L 174.660051 174.496376 
L 174.734538 173.961939 
L 174.823534 173.885591 
L 174.897377 173.351153 
L 174.970932 173.274805 
L 175.058819 172.511322 
L 175.139024 172.511322 
L 175.226131 171.74784 
L 175.291198 171.671492 
L 175.37042 171.137054 
L 175.442151 171.060706 
L 175.549238 170.373572 
L 175.563471 170.297224 
L 175.648639 169.686438 
L 175.75456 169.686438 
L 175.831859 168.999304 
L 175.887877 168.922955 
L 175.978552 168.388518 
L 176.075715 168.312169 
L 176.151708 167.85408 
L 176.23426 167.777732 
L 176.275401 167.472339 
L 176.350592 167.472339 
L 176.459428 166.55616 
L 176.486539 166.479812 
L 176.594594 165.563633 
L 176.608057 165.487285 
L 176.695334 165.105544 
L 176.742162 165.105544 
L 176.788874 164.800151 
L 176.987765 164.723802 
L 177.092986 163.807624 
L 177.171518 163.731275 
L 177.256225 162.891445 
L 177.321126 162.815096 
L 177.372886 162.280659 
L 177.437387 162.280659 
L 177.527318 161.822569 
L 177.591292 161.746221 
L 177.6932 160.982739 
L 177.737611 160.906391 
L 177.813503 160.371953 
L 177.863928 160.295605 
L 177.94558 159.837515 
L 177.989401 159.761167 
L 178.095399 159.226729 
L 178.138873 159.150381 
L 178.237865 157.852461 
L 178.29332 157.776113 
L 178.403742 157.165327 
L 178.446509 157.088979 
L 178.5196 156.478193 
L 178.610565 156.401845 
L 178.719145 155.714711 
L 178.737181 155.638362 
L 178.83906 155.103925 
L 178.85101 155.103925 
L 178.916597 154.416791 
L 179.005667 154.340442 
L 179.106105 153.729656 
L 179.176682 153.653308 
L 179.270374 153.042522 
L 179.293724 152.966174 
L 179.404244 152.508085 
L 179.421635 152.431736 
L 179.519883 151.744602 
L 179.560189 151.744602 
L 179.657718 150.904772 
L 179.697731 150.904772 
L 179.788869 150.370334 
L 179.834274 150.293986 
L 179.941672 149.759548 
L 179.981085 149.6832 
L 180.070865 148.767021 
L 180.13234 148.690673 
L 180.238055 147.774494 
L 180.265776 147.698146 
L 180.33214 147.240056 
L 180.403772 147.163708 
L 180.491561 146.476574 
L 180.524377 146.400226 
L 180.622482 145.865788 
L 180.682184 145.78944 
L 180.768686 145.102306 
L 180.811789 145.025958 
L 180.919115 144.644216 
L 180.961875 144.567868 
L 181.063041 143.804386 
L 181.094875 143.728038 
L 181.200603 143.040904 
L 181.237468 142.964555 
L 181.331933 142.353769 
L 181.368541 142.353769 
L 181.477941 141.513939 
L 181.514267 141.437591 
L 181.622825 140.216019 
L 181.653727 140.139671 
L 181.761486 139.528885 
L 181.797269 139.452536 
L 181.899132 139.070795 
L 181.934654 138.994447 
L 182.04082 138.00192 
L 182.055938 138.00192 
L 182.161424 137.543831 
L 182.171439 137.543831 
L 182.271302 136.322259 
L 182.306129 136.245911 
L 182.410224 135.40608 
L 182.439861 135.329732 
L 182.513747 134.871642 
L 182.592241 134.871642 
L 182.675284 133.955464 
L 182.723962 133.879115 
L 182.7919 133.421026 
L 182.859594 133.344678 
L 182.96548 132.886588 
L 182.999046 132.81024 
L 183.099387 132.275802 
L 183.127958 132.199454 
L 183.227616 131.588668 
L 183.24181 131.588668 
L 183.350275 130.596141 
L 183.392548 130.519793 
L 183.490817 129.985355 
L 183.532776 129.909007 
L 183.62105 129.679962 
L 183.64884 129.603614 
L 183.695066 129.221873 
L 183.814724 129.145525 
L 183.874269 128.840132 
L 183.947297 128.763784 
L 184.038185 128.305694 
L 184.097028 128.229346 
L 184.187197 127.542212 
L 184.223144 127.465864 
L 184.326111 127.007774 
L 184.388512 126.931426 
L 184.486153 126.32064 
L 184.570075 126.244292 
L 184.65801 125.786202 
L 184.7062 125.709854 
L 184.806563 125.02272 
L 184.837003 125.02272 
L 184.910723 124.564631 
L 184.95827 124.564631 
L 185.04871 124.182889 
L 185.108763 124.106541 
L 185.219784 123.419407 
L 185.304741 123.343059 
L 185.401969 122.655925 
L 185.51547 122.579576 
L 185.619955 122.197835 
L 185.644946 122.121487 
L 185.748717 121.663398 
L 185.761131 121.663398 
L 185.86015 120.976264 
L 185.921774 120.899915 
L 186.019953 120.441826 
L 186.076989 120.365478 
L 186.162219 120.060085 
L 186.198629 120.060085 
L 186.295377 119.372951 
L 186.339555 119.296602 
L 186.431592 118.991209 
L 186.471468 118.991209 
L 186.578713 118.304075 
L 186.618279 118.227727 
L 186.728623 117.616941 
L 186.760031 117.616941 
L 186.850038 117.158852 
L 186.900722 117.082504 
L 187.001683 116.319021 
L 187.109806 116.242673 
L 187.213483 115.479191 
L 187.236445 115.402842 
L 187.347034 114.715708 
L 187.403982 114.63936 
L 187.509824 113.952226 
L 187.570039 113.875878 
L 187.671217 113.036047 
L 187.727193 112.959699 
L 187.775571 112.730654 
L 187.853458 112.654306 
L 187.960489 111.967172 
L 187.982557 111.890824 
L 188.070573 111.356386 
L 188.099821 111.280038 
L 188.198196 110.821948 
L 188.342998 110.7456 
L 188.418576 110.211162 
L 188.50458 110.134814 
L 188.586633 109.676725 
L 188.753202 109.600376 
L 188.858757 109.065939 
L 188.925303 108.989591 
L 189.026422 108.302456 
L 189.043801 108.226108 
L 189.130459 107.920715 
L 189.257984 107.920715 
L 189.367582 107.309929 
L 189.445964 107.233581 
L 189.493515 106.85184 
L 189.584883 106.775492 
L 189.584883 106.699144 
L 190.015395 106.622795 
L 190.015395 106.546447 
L 190.186186 106.470099 
L 190.284019 106.241054 
L 190.478171 106.164706 
L 190.56489 105.935661 
L 190.600105 105.935661 
L 190.676712 105.55392 
L 190.873179 105.55392 
L 190.967512 105.095831 
L 191.182699 105.019482 
L 191.281667 104.637741 
L 191.380117 104.561393 
L 191.453617 104.408696 
L 191.617951 104.408696 
L 191.660323 104.103304 
L 191.861791 104.103304 
L 191.972132 103.797911 
L 192.058165 103.721562 
L 192.137913 103.339821 
L 192.234925 103.263473 
L 192.34602 102.95808 
L 192.363502 102.95808 
L 192.363502 102.805384 
L 192.49699 102.729035 
L 192.597926 102.499991 
L 192.701184 102.423642 
L 192.752601 102.041901 
L 192.852179 101.965553 
L 192.874865 101.812856 
L 192.993524 101.736508 
L 193.089036 101.507464 
L 193.131019 101.431115 
L 193.225837 100.973026 
L 193.256412 100.896678 
L 193.275842 100.743981 
L 193.389248 100.667633 
L 193.460812 100.36224 
L 193.518415 100.285892 
L 193.624927 99.980499 
L 193.695601 99.904151 
L 193.7579 99.598758 
L 193.819993 99.522409 
L 193.88994 99.293365 
L 193.978345 99.217016 
L 194.087606 98.911624 
L 194.196237 98.835275 
L 194.285847 98.148141 
L 194.390728 98.071793 
L 194.484623 97.461007 
L 194.544367 97.384659 
L 194.652977 97.231962 
L 194.676169 97.155614 
L 194.7584 96.850221 
L 194.850482 96.773873 
L 194.954807 96.163087 
L 195.038358 96.086739 
L 195.146673 95.704998 
L 195.231879 95.628649 
L 195.286807 95.246908 
L 195.381306 95.17056 
L 195.433327 94.407078 
L 195.502464 94.330729 
L 195.561523 94.025336 
L 195.661989 93.948988 
L 195.761921 93.567247 
L 195.791069 93.490899 
L 195.858907 93.185506 
L 195.936137 93.109158 
L 196.017848 92.57472 
L 196.06814 92.498372 
L 196.175458 91.811238 
L 196.215841 91.811238 
L 196.282167 91.2768 
L 196.437586 91.200452 
L 196.514817 90.360621 
L 196.619624 90.284273 
L 196.723849 89.520791 
L 196.737703 89.444442 
L 196.811415 88.910005 
L 196.896286 88.833656 
L 196.998994 88.146522 
L 197.096617 88.070174 
L 197.204995 87.612085 
L 197.263441 87.535736 
L 197.337361 86.772254 
L 197.397626 86.695906 
L 197.50872 85.703379 
L 197.533073 85.627031 
L 197.583891 85.245289 
L 197.702667 85.168941 
L 197.801077 84.329111 
L 197.83812 84.252762 
L 197.942321 83.718325 
L 197.996365 83.641976 
L 198.103989 82.954842 
L 198.161851 82.878494 
L 198.260023 82.420405 
L 198.302547 82.344056 
L 198.412662 81.733271 
L 198.442198 81.656922 
L 198.545212 81.046136 
L 198.585005 80.969788 
L 198.658088 80.664395 
L 198.757856 80.588047 
L 198.840595 80.053609 
L 198.910637 79.977261 
L 199.017259 79.519172 
L 199.045862 79.442824 
L 199.104973 78.908386 
L 199.186202 78.832038 
L 199.287247 78.2976 
L 199.335557 78.221252 
L 199.421803 77.686814 
L 199.47376 77.610466 
L 199.56732 77.152376 
L 199.585183 77.152376 
L 199.686087 76.694287 
L 199.719601 76.617939 
L 199.792339 76.236198 
L 199.860887 76.159849 
L 199.970048 75.472715 
L 199.981706 75.472715 
L 200.012759 74.861929 
L 200.138389 74.785581 
L 200.215285 74.40384 
L 200.2804 74.327492 
L 200.370042 73.564009 
L 200.502766 73.487661 
L 200.610153 72.724179 
L 200.630806 72.647831 
L 200.741199 72.266089 
L 200.824963 72.189741 
L 200.936072 71.884348 
L 200.945301 71.884348 
L 201.028163 71.349911 
L 201.068541 71.273562 
L 201.136255 70.968169 
L 201.250993 70.891821 
L 201.339753 70.357384 
L 201.4101 70.357384 
L 201.514235 69.746598 
L 201.605328 69.670249 
L 201.701301 69.21216 
L 201.83555 69.135812 
L 201.935611 68.830419 
L 201.975837 68.754071 
L 202.085581 68.448678 
L 202.148006 68.372329 
L 202.239534 67.990588 
L 202.316899 67.91424 
L 202.328905 67.761544 
L 202.453655 67.685195 
L 202.502984 67.227106 
L 202.624901 67.150758 
L 202.624901 66.998061 
L 202.859724 66.921713 
L 202.954497 66.61632 
L 203.02072 66.539972 
L 203.090004 66.310927 
L 203.21146 66.234579 
L 203.21146 66.158231 
L 218.121339 66.081882 
L 218.207786 65.852838 
L 218.425462 65.852838 
L 218.480762 65.547445 
L 218.614696 65.471096 
L 218.678072 65.165704 
L 218.774884 65.089355 
L 218.864794 64.860311 
L 219.02217 64.783962 
L 219.117231 64.402221 
L 219.246027 64.325873 
L 219.293404 64.173176 
L 219.375334 64.096828 
L 219.447248 63.715087 
L 219.491367 63.638739 
L 219.546371 63.409694 
L 219.616952 63.333346 
L 219.711784 62.264471 
L 219.788527 62.188122 
L 219.897331 61.348292 
L 219.92292 61.271944 
L 220.03229 60.966551 
L 220.05636 60.966551 
L 220.165623 59.974024 
L 220.214718 59.897675 
L 220.294719 59.210541 
L 220.368468 59.134193 
L 220.441275 58.447059 
L 220.492268 58.370711 
L 220.598386 57.454532 
L 220.630818 57.378184 
L 220.71359 56.996442 
L 220.75484 56.920094 
L 220.853088 55.927567 
L 220.910004 55.851219 
L 221.020147 55.087736 
L 221.058831 55.011388 
L 221.156768 54.629647 
L 221.170628 54.629647 
L 221.272998 53.866165 
L 221.309915 53.789816 
L 221.406558 53.331727 
L 221.498374 53.255379 
L 221.603905 52.873638 
L 221.63465 52.797289 
L 221.740032 52.568245 
L 221.795549 52.491896 
L 221.901247 52.186504 
L 221.959311 52.110155 
L 222.021409 51.728414 
L 222.080903 51.728414 
L 222.130039 51.346673 
L 229.503115 51.270325 
L 229.589859 51.04128 
L 229.695427 50.964932 
L 229.755372 50.812235 
L 229.882622 50.735887 
L 229.945135 50.354146 
L 230.027509 50.277798 
L 230.078957 50.048753 
L 230.159577 50.048753 
L 230.253457 49.74336 
L 230.330239 49.667012 
L 230.439055 48.827181 
L 230.475572 48.750833 
L 230.532321 48.598136 
L 230.596913 48.598136 
L 230.680666 47.911002 
L 230.726193 47.834654 
L 230.825589 47.529261 
L 230.956682 47.529261 
L 231.05785 46.918475 
L 231.135873 46.842127 
L 231.230183 46.536734 
L 231.330261 46.460386 
L 231.381199 46.154993 
L 236.429297 46.078645 
L 236.540342 45.8496 
L 236.60172 45.773252 
L 236.695208 44.857073 
L 236.724706 44.780725 
L 236.82252 44.398984 
L 236.888995 44.322635 
L 236.994108 43.559153 
L 237.004967 43.559153 
L 237.097017 43.024715 
L 237.215475 42.948367 
L 237.318518 42.566626 
L 237.401876 42.490278 
L 237.483809 42.032188 
L 241.416506 41.95584 
L 241.491917 41.803144 
L 241.535909 41.803144 
L 241.638867 41.268706 
L 241.677225 41.192358 
L 241.776045 40.810616 
L 241.82232 40.734268 
L 241.926861 40.352527 
L 241.96422 40.276179 
L 242.059266 39.589045 
L 242.204749 39.512696 
L 242.212981 39.207304 
L 245.285358 39.130955 
L 245.382796 38.825562 
L 245.424475 38.825562 
L 245.50514 38.291125 
L 245.616394 38.214776 
L 245.672117 37.833035 
L 245.810283 37.756687 
L 245.880173 37.374946 
L 245.936303 37.298598 
L 245.936303 37.222249 
L 248.525195 37.145901 
L 248.610034 36.611464 
L 248.642664 36.611464 
L 248.712707 36.306071 
L 248.820905 36.229722 
L 248.929493 35.847981 
L 248.963873 35.771633 
L 249.04304 35.313544 
L 251.237043 35.237195 
L 251.333462 34.855454 
L 251.422329 34.779106 
L 251.514669 34.244668 
L 251.565676 34.16832 
L 251.667403 33.939275 
L 251.708685 33.862927 
L 251.708685 33.786579 
L 253.647362 33.710231 
L 253.753839 33.328489 
L 253.763974 33.328489 
L 253.826894 32.565007 
L 253.897788 32.488659 
L 254.007807 31.725176 
L 255.74338 31.725176 
L 255.823295 31.267087 
L 255.908137 31.190739 
L 256.001104 30.808998 
L 256.046232 30.732649 
L 256.11554 30.27456 
L 257.669127 30.198212 
L 257.743263 29.816471 
L 257.784673 29.816471 
L 257.882167 29.129336 
L 259.382736 29.052988 
L 259.476173 28.594899 
L 259.503112 28.594899 
L 259.613912 28.136809 
L 259.640899 28.060461 
L 259.652302 27.831416 
L 260.980683 27.755068 
L 261.024487 27.526024 
L 261.13295 27.449675 
L 261.214882 26.991586 
L 262.42523 26.991586 
L 262.531871 26.3808 
L 262.553448 26.3808 
L 262.651384 25.311925 
L 262.667414 25.235576 
L 262.667414 25.08288 
L 263.795614 25.006532 
L 263.891403 24.166701 
L 263.991685 24.090353 
L 264.005903 23.861308 
L 265.059417 23.861308 
L 265.162366 23.174174 
L 265.196356 23.097826 
L 265.239724 22.563388 
L 266.262953 22.48704 
L 266.358854 22.181647 
L 266.394165 22.105299 
L 266.447234 21.723558 
L 267.375905 21.647209 
L 267.478936 20.807379 
L 267.507275 20.731031 
L 267.549649 20.425638 
L 268.462747 20.349289 
L 268.567564 19.509459 
L 268.591019 19.433111 
L 268.591019 19.356762 
L 269.42184 19.280414 
L 269.532829 18.59328 
L 269.571074 18.516932 
L 269.571074 18.440584 
L 270.444137 18.364235 
L 270.515298 18.058842 
L 271.277506 17.982494 
L 271.384252 17.29536 
L 272.104017 17.219012 
L 272.213037 16.531878 
L 272.235741 16.455529 
L 272.25921 16.226485 
L 272.956773 16.150136 
L 273.063648 15.463002 
L 273.752697 15.386654 
L 273.829652 14.928565 
L 274.525063 14.852216 
L 274.596831 14.317779 
L 275.224205 14.317779 
L 275.308988 14.088734 
L 275.947184 14.012386 
L 276.024004 13.325252 
L 276.612359 13.248904 
L 276.684704 12.943511 
L 277.286825 12.867162 
L 277.298907 12.714466 
L 277.9332 12.638118 
L 277.951524 12.485421 
L 278.511428 12.409073 
L 278.560247 12.256376 
L 279.074152 12.180028 
L 279.10637 11.569242 
L 279.665405 11.492894 
L 279.725697 11.263849 
L 280.249103 11.187501 
L 280.261549 11.034805 
L 280.745475 10.958456 
L 280.802303 10.729412 
L 281.289397 10.653064 
L 281.336252 10.500367 
L 281.766308 10.424019 
L 281.800255 10.271322 
L 282.262587 10.194974 
L 282.318727 10.042278 
L 282.781193 9.965929 
L 282.823031 9.813233 
L 283.292536 9.736885 
L 283.292536 9.660536 
L 283.736966 9.584188 
L 283.736966 9.50784 
L 284.154477 9.431492 
L 284.154477 9.355144 
L 285.006213 9.278795 
L 285.054702 9.126099 
L 285.459609 9.049751 
L 285.467496 8.897054 
L 285.826761 8.897054 
L 285.826761 8.744358 
L 286.620291 8.668009 
L 286.65606 8.515313 
L 287.755225 8.438965 
L 287.75559 8.286268 
L 288.133414 8.20992 
L 288.157173 8.057224 
L 289.160401 7.980875 
L 289.160401 7.904527 
L 290.199544 7.828179 
L 290.199544 7.751831 
L 290.792821 7.675482 
L 290.792821 7.599134 
L 292.026079 7.522786 
L 292.030026 7.370089 
L 294.483655 7.293741 
L 294.483655 7.217393 
L 294.961572 7.141045 
L 294.961572 7.064696 
L 297.308916 6.988348 
L 297.308916 6.912 
L 360.8064 6.912 
L 360.8064 6.912 
" style="fill:none;stroke:#000080;stroke-linecap:square;stroke-width:1.5;"/>
   </g>
   <g id="line2d_36">
    <defs>
     <path d="M 0 6 
C 1.591219 6 3.117479 5.367802 4.242641 4.242641 
C 5.367802 3.117479 6 1.591219 6 0 
C 6 -1.591219 5.367802 -3.117479 4.242641 -4.242641 
C 3.117479 -5.367802 1.591219 -6 0 -6 
C -1.591219 -6 -3.117479 -5.367802 -4.242641 -4.242641 
C -5.367802 -3.117479 -6 -1.591219 -6 0 
C -6 1.591219 -5.367802 3.117479 -4.242641 4.242641 
C -3.117479 5.367802 -1.591219 6 0 6 
z
" id="m7a2e173c5a" style="stroke:#000080;stroke-width:1.5;"/>
    </defs>
    <g>
     <use style="fill-opacity:0;stroke:#000080;stroke-width:1.5;" x="153.340389" xlink:href="#m7a2e173c5a" y="244.965798"/>
     <use style="fill-opacity:0;stroke:#000080;stroke-width:1.5;" x="181.300497" xlink:href="#m7a2e173c5a" y="142.582814"/>
     <use style="fill-opacity:0;stroke:#000080;stroke-width:1.5;" x="264.005903" xlink:href="#m7a2e173c5a" y="23.861308"/>
     <use style="fill-opacity:0;stroke:#000080;stroke-width:1.5;" x="297.308916" xlink:href="#m7a2e173c5a" y="6.912"/>
     <use style="fill-opacity:0;stroke:#000080;stroke-width:1.5;" x="297.308916" xlink:href="#m7a2e173c5a" y="6.912"/>
     <use style="fill-opacity:0;stroke:#000080;stroke-width:1.5;" x="360.8064" xlink:href="#m7a2e173c5a" y="6.912"/>
    </g>
   </g>
   <g id="line2d_37">
    <path style="fill:none;stroke:#000080;stroke-linecap:square;stroke-width:1.5;"/>
    <g/>
   </g>
   <g id="line2d_38">
    <path clip-path="url(#p1b14f8b2da)" d="M 213.633352 66.158231 
" style="fill:none;stroke:#000080;stroke-linecap:square;stroke-width:1.5;"/>
    <defs>
     <path d="M -12 12 
L 12 -12 
M -12 -12 
L 12 12 
" id="m8356f9946d" style="stroke:#000080;"/>
    </defs>
    <g clip-path="url(#p1b14f8b2da)">
     <use style="fill:#000080;stroke:#000080;" x="213.633352" xlink:href="#m8356f9946d" y="66.158231"/>
    </g>
   </g>
   <g id="line2d_39">
    <defs>
     <path d="M 0 1.5 
C 0.397805 1.5 0.77937 1.341951 1.06066 1.06066 
C 1.341951 0.77937 1.5 0.397805 1.5 0 
C 1.5 -0.397805 1.341951 -0.77937 1.06066 -1.06066 
C 0.77937 -1.341951 0.397805 -1.5 0 -1.5 
C -0.397805 -1.5 -0.77937 -1.341951 -1.06066 -1.06066 
C -1.341951 -0.77937 -1.5 -0.397805 -1.5 0 
C -1.5 0.397805 -1.341951 0.77937 -1.06066 1.06066 
C -0.77937 1.341951 -0.397805 1.5 0 1.5 
z
" id="m1072e35003" style="stroke:#ff00ff;"/>
    </defs>
    <g>
     <use style="fill:#ff00ff;stroke:#ff00ff;" x="236.248782" xlink:href="#m1072e35003" y="109.982118"/>
     <use style="fill:#ff00ff;stroke:#ff00ff;" x="236.248782" xlink:href="#m1072e35003" y="109.982118"/>
    </g>
   </g>
   <g id="line2d_40">
    <path d="M 14.2848 298.944 
L 14.2848 298.027821 
L 27.323974 298.027821 
L 27.323974 297.722428 
L 40.363149 297.64608 
L 40.363149 297.187991 
L 44.560826 297.187991 
L 44.560826 297.035294 
L 47.990577 297.035294 
L 47.990577 296.806249 
L 50.890391 296.806249 
L 50.890391 296.653553 
L 55.618005 296.577205 
L 55.618005 296.500856 
L 59.392932 296.424508 
L 59.392932 296.271812 
L 67.581941 296.195464 
L 67.581941 296.119115 
L 71.556993 296.119115 
L 71.556993 295.966419 
L 72.432107 295.966419 
L 72.432107 295.661026 
L 73.268314 295.661026 
L 73.268314 295.508329 
L 75.574654 295.431981 
L 75.574654 295.355633 
L 76.284608 295.355633 
L 76.284608 295.126588 
L 78.266603 295.05024 
L 78.266603 294.973892 
L 78.88343 294.973892 
L 78.88343 294.668499 
L 79.480672 294.668499 
L 79.480672 294.439454 
L 80.621116 294.363106 
L 80.621116 294.134061 
L 82.211771 294.057713 
L 82.211771 293.981365 
L 84.142855 293.905016 
L 84.142855 293.828668 
L 84.596168 293.828668 
L 84.596168 293.523275 
L 85.471281 293.446927 
L 85.471281 293.370579 
L 85.894031 293.370579 
L 85.894031 293.217882 
L 86.712053 293.141534 
L 86.712053 292.988838 
L 87.1081 292.988838 
L 87.1081 292.836141 
L 87.495981 292.836141 
L 87.495981 292.683445 
L 88.248544 292.683445 
L 88.248544 292.530748 
L 88.613828 292.530748 
L 88.613828 292.378052 
L 89.323782 292.378052 
L 89.323782 292.225355 
L 90.007914 292.149007 
L 90.007914 292.072659 
L 90.340871 292.072659 
L 90.340871 291.919962 
L 91.305777 291.919962 
L 91.305777 291.767266 
L 91.616719 291.767266 
L 91.616719 291.538221 
L 92.223596 291.461873 
L 92.223596 291.232828 
L 92.519847 291.232828 
L 92.519847 291.080132 
L 93.098709 291.003784 
L 93.098709 290.927435 
L 93.381595 290.927435 
L 93.381595 290.774739 
L 94.472426 290.774739 
L 94.472426 290.622042 
L 94.735529 290.622042 
L 94.735529 290.392998 
L 94.995002 290.392998 
L 94.995002 286.880979 
L 96.241256 286.804631 
L 96.241256 286.422889 
L 96.717523 286.346541 
L 96.717523 286.270193 
L 96.95121 286.270193 
L 96.95121 286.117496 
L 97.410051 286.117496 
L 97.410051 285.9648 
L 98.510456 285.888452 
L 98.510456 285.735755 
L 99.346662 285.659407 
L 99.346662 282.452781 
L 99.950294 282.376433 
L 99.950294 279.169807 
L 100.147275 279.169807 
L 100.147275 279.017111 
L 100.342215 279.017111 
L 100.342215 278.711718 
L 100.726138 278.711718 
L 100.726138 278.482673 
L 101.102381 278.482673 
L 101.102381 278.253628 
L 101.471247 278.17728 
L 101.471247 278.024584 
L 102.362957 277.948235 
L 102.362957 277.871887 
L 103.047088 277.871887 
L 103.047088 277.719191 
L 104.028784 277.642842 
L 104.028784 277.566494 
L 104.961779 277.490146 
L 104.961779 274.207172 
L 105.26277 274.130824 
L 105.26277 273.901779 
L 105.411479 273.901779 
L 105.411479 273.749082 
L 105.850679 273.672734 
L 105.850679 273.596386 
L 106.137884 273.520038 
L 106.137884 273.443689 
L 106.279859 273.443689 
L 106.279859 273.290993 
L 106.699465 273.214645 
L 106.699465 273.061948 
L 106.837279 273.061948 
L 106.837279 269.855322 
L 107.378656 269.855322 
L 107.378656 269.702626 
L 108.034177 269.626278 
L 108.034177 269.549929 
L 108.29012 269.549929 
L 108.29012 269.320885 
L 108.915146 269.244536 
L 108.915146 269.168188 
L 109.520071 269.09184 
L 109.520071 269.015492 
L 109.756698 268.939144 
L 109.756698 268.862795 
L 109.990385 268.862795 
L 109.990385 268.710099 
L 110.106149 268.710099 
L 110.106149 268.252009 
L 110.335561 268.252009 
L 110.335561 265.045384 
L 111.007473 265.045384 
L 111.117162 264.510946 
L 111.762192 264.510946 
L 111.762192 261.762409 
L 112.790402 261.686061 
L 112.890198 261.533365 
L 113.088217 261.533365 
L 113.186449 261.227972 
L 113.954374 261.151624 
L 114.048198 260.998927 
L 114.510421 260.998927 
L 114.510421 260.769882 
L 114.872193 260.693534 
L 114.872193 260.617186 
L 115.139028 260.540838 
L 115.139028 260.388141 
L 115.661605 260.388141 
L 115.747307 260.0064 
L 116.086263 259.930052 
L 116.170056 259.701007 
L 116.665126 259.624659 
L 116.665126 259.471962 
L 117.384126 259.395614 
L 117.462345 259.242918 
L 117.924947 259.166569 
L 117.924947 259.013873 
L 118.376446 258.937525 
L 118.376446 258.861176 
L 118.889854 258.784828 
L 118.962067 258.403087 
L 119.319033 258.326739 
L 119.319033 258.174042 
L 120.013265 258.097694 
L 120.013265 258.021346 
L 120.813877 257.944998 
L 120.813877 257.715953 
L 121.073351 257.639605 
L 121.073351 257.563256 
L 121.39274 257.486908 
L 121.39274 257.41056 
L 121.706797 257.41056 
L 121.706797 257.257864 
L 121.954321 257.181515 
L 121.954321 256.952471 
L 122.559246 256.876122 
L 122.559246 256.799774 
L 122.854567 256.723426 
L 122.913079 256.494381 
L 123.202939 256.418033 
L 123.260379 256.11264 
L 123.601383 256.036292 
L 123.601383 255.959944 
L 123.769595 255.959944 
L 123.769595 255.730899 
L 124.373813 255.654551 
L 124.373813 255.578202 
L 124.695386 255.501854 
L 124.695386 255.425506 
L 125.011554 255.349158 
L 125.011554 255.272809 
L 125.322496 255.272809 
L 125.322496 255.120113 
L 126.028642 255.043765 
L 126.127391 254.891068 
L 126.372018 254.81472 
L 126.372018 254.738372 
L 126.661432 254.662024 
L 126.709238 254.509327 
L 127.319904 254.432979 
L 127.319904 254.356631 
L 127.686077 254.280282 
L 127.686077 254.203934 
L 128.045258 254.127586 
L 128.045258 254.051238 
L 128.266313 254.051238 
L 128.310214 253.593148 
L 128.441306 253.593148 
L 128.441306 253.440452 
L 128.57149 253.440452 
L 128.657782 253.211407 
L 128.786481 253.211407 
L 128.786481 253.058711 
L 128.956723 252.982362 
L 128.956723 252.906014 
L 129.292652 252.829666 
L 129.292652 252.753318 
L 129.744974 252.753318 
L 129.744974 252.600621 
L 130.146945 252.524273 
L 130.146945 252.447925 
L 130.579414 252.447925 
L 130.656987 252.21888 
L 130.734242 252.142532 
L 130.772751 251.989835 
L 131.266322 251.913487 
L 131.303758 251.760791 
L 131.378407 251.760791 
L 131.452761 251.455398 
L 131.856536 251.379049 
L 131.965169 251.226353 
L 132.358208 251.150005 
L 132.46399 250.844612 
L 132.881269 250.768264 
L 132.881269 250.615567 
L 133.154399 250.539219 
L 133.154399 250.462871 
L 133.457005 250.386522 
L 133.457005 250.310174 
L 133.754819 250.233826 
L 133.754819 250.004781 
L 134.047992 249.928433 
L 134.047992 249.852085 
L 134.683578 249.775736 
L 134.745971 249.470344 
L 134.901055 249.470344 
L 134.962732 249.164951 
L 135.085483 249.164951 
L 135.085483 248.935906 
L 135.893741 248.859558 
L 135.893741 248.783209 
L 136.155623 248.706861 
L 136.242113 248.401468 
L 136.356818 248.32512 
L 136.413909 248.096075 
L 136.752866 248.019727 
L 136.780838 247.714334 
L 137.0583 247.637986 
L 137.168148 247.485289 
L 137.250116 247.408941 
L 137.27736 247.256245 
L 137.520791 247.179896 
L 137.601239 246.721807 
L 137.840541 246.645459 
L 137.840541 246.492762 
L 137.998402 246.492762 
L 138.024583 246.187369 
L 138.128947 246.187369 
L 138.128947 245.881976 
L 138.489728 245.805628 
L 138.59155 245.423887 
L 138.918715 245.347539 
L 138.918715 245.271191 
L 139.289277 245.194842 
L 139.338138 244.660405 
L 139.411192 244.660405 
L 139.483965 244.43136 
L 139.604629 244.355012 
L 139.676658 244.125967 
L 139.796097 244.125967 
L 139.867398 243.820574 
L 140.009194 243.744226 
L 140.009194 243.667878 
L 140.28962 243.591529 
L 140.28962 243.515181 
L 140.405242 243.515181 
L 140.451292 243.286136 
L 140.702573 243.209788 
L 140.725251 243.057092 
L 140.860749 242.980744 
L 140.950542 242.751699 
L 140.972924 242.751699 
L 141.039908 242.446306 
L 141.151022 242.369958 
L 141.261484 242.140913 
L 141.48048 242.064565 
L 141.545685 241.83552 
L 141.825656 241.759172 
L 141.932237 241.606475 
L 142.059343 241.530127 
L 142.059343 241.453779 
L 142.206555 241.377431 
L 142.290162 241.148386 
L 142.41488 241.148386 
L 142.41488 240.995689 
L 142.538777 240.995689 
L 142.538777 240.842993 
L 142.682299 240.766645 
L 142.784148 240.155859 
L 142.905644 240.079511 
L 143.006295 239.926814 
L 143.166224 239.850466 
L 143.166224 239.774118 
L 143.403597 239.697769 
L 143.462475 239.545073 
L 143.676798 239.468725 
L 143.754133 239.23968 
L 143.907854 239.163332 
L 143.907854 239.086984 
L 144.249202 239.086984 
L 144.342932 238.552546 
L 144.436197 238.476198 
L 144.510478 238.170805 
L 144.621352 238.094456 
L 144.731576 237.560019 
L 144.895711 237.483671 
L 145.004344 237.178278 
L 145.112353 237.101929 
L 145.184016 236.796536 
L 145.432709 236.720188 
L 145.485575 236.338447 
L 145.555833 236.338447 
L 145.66073 234.735134 
L 145.695567 234.735134 
L 145.79969 233.818955 
L 145.954802 233.742607 
L 146.057504 232.979125 
L 146.074567 232.979125 
L 146.176619 231.299464 
L 146.210514 231.223115 
L 146.210514 230.994071 
L 146.345485 230.994071 
L 146.446082 230.459633 
L 146.479495 230.459633 
L 146.579379 229.390758 
L 146.612557 229.390758 
L 146.711739 227.863793 
L 146.744684 227.863793 
L 146.843174 226.184132 
L 146.892226 226.107784 
L 146.924857 225.649694 
L 147.006187 225.649694 
L 147.070998 224.96256 
L 147.1517 224.886212 
L 147.216013 223.970033 
L 147.264104 223.970033 
L 147.359919 222.595765 
L 147.391749 222.595765 
L 147.502732 221.297845 
L 147.518533 221.297845 
L 147.628773 220.458014 
L 147.707122 220.381666 
L 147.816265 219.541835 
L 147.831805 219.541835 
L 147.909315 218.854701 
L 147.955668 218.854701 
L 148.063382 217.404085 
L 148.139946 217.327736 
L 148.170484 216.793299 
L 148.261802 216.793299 
L 148.261802 216.640602 
L 148.503173 216.564254 
L 148.592894 215.953468 
L 148.667336 215.87712 
L 148.771063 215.419031 
L 148.844805 215.342682 
L 148.903591 215.037289 
L 149.035192 214.960941 
L 149.136916 214.502852 
L 149.252502 214.426504 
L 149.31003 214.273807 
L 149.495789 214.197459 
L 149.538397 213.892066 
L 149.65155 213.815718 
L 149.679732 213.204932 
L 149.861894 213.128584 
L 149.945377 212.746842 
L 150.11124 212.670494 
L 150.207323 212.441449 
L 150.262008 212.365101 
L 150.357325 211.601619 
L 150.479171 211.525271 
L 150.58682 211.219878 
L 150.613636 211.219878 
L 150.667154 210.838136 
L 150.932483 210.761788 
L 151.024471 210.456395 
L 151.050671 210.456395 
L 151.155108 210.074654 
L 151.168122 210.074654 
L 151.258968 209.845609 
L 151.349377 209.769261 
L 151.400845 209.540216 
L 151.490576 209.463868 
L 151.554409 209.234824 
L 151.731998 209.234824 
L 151.807597 208.929431 
L 151.895414 208.853082 
L 151.97036 208.471341 
L 152.057422 208.394993 
L 152.106991 208.165948 
L 152.303973 208.165948 
L 152.401695 207.936904 
L 152.55942 207.860555 
L 152.55942 207.784207 
L 152.870956 207.707859 
L 152.953957 207.326118 
L 153.212458 207.249769 
L 153.212458 207.097073 
L 153.478964 207.020725 
L 153.478964 206.944376 
L 153.730398 206.868028 
L 153.730398 206.79168 
L 153.899924 206.715332 
L 153.911171 206.562635 
L 154.190197 206.486287 
L 154.300658 206.257242 
L 154.410475 206.180894 
L 154.508765 205.646456 
L 154.584859 205.570108 
L 154.693034 205.417412 
L 154.73613 205.341064 
L 154.80059 205.188367 
L 154.992656 205.112019 
L 155.077392 204.806626 
L 155.28758 204.730278 
L 155.339761 204.577581 
L 155.464411 204.577581 
L 155.567658 204.348536 
L 155.670341 204.272188 
L 155.680579 204.119492 
L 155.843627 204.043144 
L 155.843627 203.966795 
L 156.085579 203.890447 
L 156.165543 203.737751 
L 156.304668 203.661402 
L 156.304668 203.585054 
L 156.521235 203.508706 
L 156.62859 203.356009 
L 156.68689 203.279661 
L 156.745011 203.050616 
L 156.860715 202.974268 
L 156.918301 202.745224 
L 156.99481 202.668875 
L 157.080512 202.287134 
L 157.260166 202.210786 
L 157.363398 201.676348 
L 157.382107 201.676348 
L 157.475372 201.141911 
L 157.558917 201.065562 
L 157.614408 200.683821 
L 157.715719 200.683821 
L 157.825621 200.225732 
L 158.052543 200.149384 
L 158.151527 199.538598 
L 158.2053 199.538598 
L 158.312387 198.698767 
L 158.339064 198.622419 
L 158.418868 197.629892 
L 158.471883 197.553544 
L 158.559911 196.637365 
L 158.58624 196.637365 
L 158.673735 195.492141 
L 158.699905 195.492141 
L 158.786875 194.805007 
L 158.838864 194.728659 
L 158.942415 193.888828 
L 158.959618 193.81248 
L 159.045398 193.125346 
L 159.079601 193.048998 
L 159.181837 192.056471 
L 159.24122 191.980122 
L 159.351007 190.682202 
L 159.409859 190.605854 
L 159.476894 190.071416 
L 159.560352 189.995068 
L 159.643442 189.536979 
L 159.68485 189.536979 
L 159.742668 189.307934 
L 159.931401 189.231586 
L 159.980326 188.926193 
L 160.174762 188.849845 
L 160.206974 188.6208 
L 160.311282 188.544452 
L 160.343261 188.239059 
L 160.494422 188.162711 
L 160.605032 187.704621 
L 160.644379 187.704621 
L 160.722826 187.170184 
L 160.816532 187.093835 
L 160.917524 186.788442 
L 160.987125 186.712094 
L 161.041081 186.483049 
L 161.163832 186.406701 
L 161.163832 186.330353 
L 161.489811 186.254005 
L 161.594737 185.795915 
L 161.624608 185.795915 
L 161.676769 185.490522 
L 161.78066 185.414174 
L 161.839769 185.108781 
L 162.074367 185.032433 
L 162.125297 184.803388 
L 162.190578 184.803388 
L 162.291676 184.574344 
L 162.334839 184.497995 
L 162.334839 184.421647 
L 162.534963 184.345299 
L 162.534963 184.268951 
L 162.6625 184.192602 
L 162.761101 184.039906 
L 162.935898 183.963558 
L 163.005365 183.810861 
L 163.184786 183.734513 
L 163.27386 183.505468 
L 163.416862 183.42912 
L 163.504846 183.276424 
L 163.605857 183.200075 
L 163.64611 183.047379 
L 163.839461 182.971031 
L 163.879217 182.818334 
L 164.011136 182.741986 
L 164.089846 182.436593 
L 164.181259 182.360245 
L 164.187772 182.207548 
L 164.304614 182.1312 
L 164.311084 181.978504 
L 164.452864 181.902155 
L 164.561694 181.673111 
L 164.657201 181.596762 
L 164.657201 181.520414 
L 164.796406 181.520414 
L 164.840483 181.215021 
L 164.934588 181.138673 
L 164.997064 180.83328 
L 165.090391 180.83328 
L 165.195605 180.451539 
L 165.226438 180.375191 
L 165.318637 180.069798 
L 165.361509 179.993449 
L 165.459136 179.688056 
L 165.495616 179.611708 
L 165.598594 179.382664 
L 165.749015 179.306315 
L 165.850619 178.161092 
L 165.874446 178.084744 
L 165.981296 176.93952 
L 165.987215 176.93952 
L 165.987215 176.863172 
L 166.087543 175.717948 
L 166.099311 175.717948 
L 166.204896 174.34368 
L 166.239959 174.267332 
L 166.344759 173.503849 
L 166.379563 173.427501 
L 166.454752 172.969412 
L 166.50663 172.969412 
L 166.50663 172.893064 
L 166.598506 172.053233 
L 166.672826 171.976885 
L 166.780922 171.595144 
L 166.837566 171.518795 
L 166.933472 170.908009 
L 166.967205 170.831661 
L 167.073627 170.44992 
L 167.157222 170.373572 
L 167.23491 169.228348 
L 167.345339 169.152 
L 167.455124 168.388518 
L 167.504319 168.388518 
L 167.504319 168.312169 
L 167.607754 167.625035 
L 167.699821 167.548687 
L 167.76454 167.090598 
L 167.818303 167.090598 
L 167.925369 166.250767 
L 167.983997 166.174419 
L 168.090128 165.869026 
L 168.137692 165.869026 
L 168.248209 165.25824 
L 168.253455 165.25824 
L 168.363297 164.952847 
L 168.399768 164.876499 
L 168.498408 164.418409 
L 168.539786 164.342061 
L 168.647973 164.036668 
L 168.663377 163.96032 
L 168.72487 163.654927 
L 168.816733 163.578579 
L 168.837086 163.273186 
L 168.953693 163.196838 
L 169.019282 162.891445 
L 169.099695 162.815096 
L 169.194741 162.433355 
L 169.219673 162.357007 
L 169.309158 161.822569 
L 169.368578 161.746221 
L 169.413021 161.288132 
L 169.521218 161.211784 
L 169.604401 160.677346 
L 169.662898 160.600998 
L 169.730915 160.142908 
L 169.813178 160.06656 
L 169.909499 159.761167 
L 169.94789 159.684819 
L 170.014887 159.303078 
L 170.114936 159.226729 
L 170.219181 158.76864 
L 170.308749 158.692292 
L 170.416606 158.005158 
L 170.514546 157.928809 
L 170.61198 157.623416 
L 170.6582 157.547068 
L 170.759486 157.012631 
L 170.809925 156.936282 
L 170.851093 156.478193 
L 170.955893 156.401845 
L 171.060113 155.562014 
L 171.091717 155.485666 
L 171.199675 154.569487 
L 171.217608 154.493139 
L 171.298095 154.035049 
L 171.378239 153.958701 
L 171.466889 153.500612 
L 171.502232 153.424264 
L 171.581513 152.660781 
L 171.651706 152.584433 
L 171.708545 152.355388 
L 171.800001 152.27904 
L 171.9083 151.668254 
L 171.968676 151.591906 
L 172.037442 151.057468 
L 172.161441 150.98112 
L 172.242242 150.675727 
L 172.33959 150.599379 
L 172.423834 150.370334 
L 172.566188 150.293986 
L 172.670177 149.759548 
L 172.860027 149.6832 
L 172.966493 149.454155 
L 173.076419 149.377807 
L 173.185706 149.072414 
L 173.294362 148.996066 
L 173.398404 148.690673 
L 173.485993 148.614325 
L 173.585032 148.003539 
L 173.667825 147.927191 
L 173.769827 147.545449 
L 173.824523 147.469101 
L 173.933441 147.240056 
L 173.999263 147.163708 
L 174.072557 146.629271 
L 174.25646 146.552922 
L 174.328761 146.400226 
L 174.457452 146.323878 
L 174.551519 146.018485 
L 174.570276 146.018485 
L 174.678701 145.484047 
L 174.712223 145.407699 
L 174.79762 145.102306 
L 174.98194 145.025958 
L 175.088024 144.567868 
L 175.160839 144.49152 
L 175.244228 144.186127 
L 175.302021 144.109779 
L 175.402733 143.346296 
L 175.427827 143.269948 
L 175.534995 142.506466 
L 175.620293 142.430118 
L 175.729899 142.201073 
L 175.786221 142.124725 
L 175.863389 141.666635 
L 175.912332 141.590287 
L 176.006364 141.132198 
L 176.065329 141.055849 
L 176.168936 140.59776 
L 176.251413 140.521412 
L 176.340357 140.139671 
L 176.39148 140.139671 
L 176.39148 139.986974 
L 176.55752 139.910626 
L 176.634955 139.757929 
L 176.718763 139.681581 
L 176.805529 139.376188 
L 176.855405 139.29984 
L 176.855405 139.223492 
L 177.010832 139.147144 
L 177.109374 138.765402 
L 177.164986 138.689054 
L 177.246471 138.307313 
L 177.288704 138.230965 
L 177.398713 138.078268 
L 177.514497 138.00192 
L 177.584904 137.849224 
L 177.702725 137.772875 
L 177.797717 137.391134 
L 177.926769 137.314786 
L 178.020639 137.085741 
L 178.104724 137.009393 
L 178.210076 136.704 
L 178.290243 136.627652 
L 178.29332 136.474955 
L 178.419027 136.398607 
L 178.5196 135.940518 
L 178.58635 135.864169 
L 178.686034 135.253384 
L 178.716138 135.177035 
L 178.827103 134.795294 
L 178.922548 134.718946 
L 178.97899 134.413553 
L 179.052999 134.337205 
L 179.144367 134.10816 
L 179.167874 134.10816 
L 179.270374 133.726419 
L 179.38103 133.650071 
L 179.398443 133.421026 
L 179.545804 133.344678 
L 179.59754 133.191981 
L 179.706294 133.115633 
L 179.805909 132.962936 
L 179.834274 132.886588 
L 179.933215 132.581195 
L 179.98952 132.504847 
L 180.082057 132.123106 
L 180.143496 132.046758 
L 180.171357 131.741365 
L 180.307281 131.665016 
L 180.390018 131.283275 
L 180.524377 131.206927 
L 180.633351 130.977882 
L 180.66592 130.901534 
L 180.738996 130.596141 
L 180.814479 130.519793 
L 180.90841 129.985355 
L 180.948523 129.909007 
L 181.05773 129.374569 
L 181.139882 129.298221 
L 181.250616 128.840132 
L 181.331933 128.763784 
L 181.415505 128.534739 
L 181.511675 128.458391 
L 181.527223 128.305694 
L 181.738447 128.229346 
L 181.848269 127.771256 
L 181.876261 127.694908 
L 181.965049 127.542212 
L 182.078592 127.542212 
L 182.188953 127.160471 
L 182.258848 127.084122 
L 182.345852 126.855078 
L 182.466986 126.778729 
L 182.567747 126.626033 
L 182.631366 126.549685 
L 182.631366 126.473336 
L 182.765239 126.396988 
L 182.869244 125.938899 
L 182.967879 125.938899 
L 182.967879 125.862551 
L 183.068386 125.709854 
L 183.108916 125.633506 
L 183.127958 125.480809 
L 183.319685 125.404461 
L 183.430044 125.099068 
L 183.5188 125.02272 
L 183.623367 124.717327 
L 183.68583 124.640979 
L 183.787178 124.411934 
L 183.901687 124.335586 
L 183.938184 124.182889 
L 184.07668 124.106541 
L 184.173699 123.572104 
L 184.35065 123.495755 
L 184.381836 123.343059 
L 184.512695 123.266711 
L 184.554643 122.961318 
L 184.662396 122.884969 
L 184.75863 122.503228 
L 185.010004 122.42688 
L 185.087338 122.197835 
L 185.298382 122.121487 
L 185.355532 121.968791 
L 185.439879 121.892442 
L 185.498698 121.739746 
L 185.663667 121.663398 
L 185.682369 121.510701 
L 185.886878 121.434353 
L 185.938172 121.12896 
L 186.032189 121.052612 
L 186.121681 120.670871 
L 186.287334 120.594522 
L 186.397631 120.212781 
L 186.497342 120.136433 
L 186.507284 119.983736 
L 186.734516 119.907388 
L 186.828554 119.678344 
L 186.960975 119.601995 
L 186.990061 119.372951 
L 187.23262 119.296602 
L 187.314688 119.067558 
L 187.432391 118.991209 
L 187.492854 118.609468 
L 187.903358 118.53312 
L 188.000928 118.151379 
L 188.218173 118.075031 
L 188.294252 117.769638 
L 188.522448 117.693289 
L 188.618644 117.387896 
L 188.73202 117.311548 
L 188.799015 117.158852 
L 189.024683 117.082504 
L 189.135646 116.853459 
L 189.232204 116.777111 
L 189.251112 116.624414 
L 189.52402 116.548066 
L 189.623664 116.395369 
L 189.712727 116.319021 
L 189.796364 116.089976 
L 190.069756 116.013628 
L 190.086199 115.860932 
L 190.355441 115.784584 
L 190.455623 115.479191 
L 190.563288 115.402842 
L 190.563288 115.326494 
L 191.372444 115.250146 
L 191.372444 115.173798 
L 191.53292 115.097449 
L 191.53292 115.021101 
L 191.792874 114.944753 
L 191.792874 114.868405 
L 192.211453 114.792056 
L 192.305167 114.563012 
L 192.396963 114.486664 
L 192.505663 114.257619 
L 192.587857 114.181271 
L 192.616612 114.028574 
L 193.249467 113.952226 
L 193.249467 113.875878 
L 193.65486 113.799529 
L 193.65486 113.723181 
L 194.041048 113.646833 
L 194.041048 113.570485 
L 194.386805 113.494136 
L 194.386805 113.417788 
L 194.64653 113.34144 
L 194.736593 113.188744 
L 194.870884 113.112395 
L 194.870884 113.036047 
L 195.381306 112.959699 
L 195.381306 112.883351 
L 195.857697 112.807002 
L 195.857697 112.730654 
L 196.321142 112.654306 
L 196.369454 112.501609 
L 198.072842 112.425261 
L 198.072842 112.348913 
L 198.7506 112.272565 
L 198.7506 112.196216 
L 199.299336 112.119868 
L 199.299336 112.04352 
L 200.438417 111.967172 
L 200.438417 111.890824 
L 200.615788 111.814475 
L 200.615788 111.738127 
L 201.499906 111.661779 
L 201.572335 111.432734 
L 202.186917 111.356386 
L 202.21195 111.203689 
L 202.912988 111.127341 
L 202.953667 110.974645 
L 204.000412 110.898296 
L 204.089622 110.7456 
L 207.547847 110.669252 
L 207.547847 110.592904 
L 219.392992 110.516555 
L 219.392992 110.440207 
L 221.892462 110.363859 
L 221.892462 110.287511 
L 231.482117 110.211162 
L 231.482117 110.134814 
L 236.248782 110.058466 
L 236.248782 109.982118 
L 360.8064 109.982118 
L 360.8064 109.982118 
" style="fill:none;stroke:#ff00ff;stroke-linecap:square;stroke-width:1.5;"/>
   </g>
   <g id="line2d_41">
    <defs>
     <path d="M -0 8.485281 
L 5.091169 0 
L 0 -8.485281 
L -5.091169 -0 
z
" id="mf678e88772" style="stroke:#ff00ff;stroke-linejoin:miter;stroke-width:1.5;"/>
    </defs>
    <g>
     <use style="fill-opacity:0;stroke:#ff00ff;stroke-linejoin:miter;stroke-width:1.5;" x="94.995002" xlink:href="#mf678e88772" y="290.392998"/>
     <use style="fill-opacity:0;stroke:#ff00ff;stroke-linejoin:miter;stroke-width:1.5;" x="147.486917" xlink:href="#mf678e88772" y="221.679586"/>
     <use style="fill-opacity:0;stroke:#ff00ff;stroke-linejoin:miter;stroke-width:1.5;" x="200.615788" xlink:href="#mf678e88772" y="111.738127"/>
     <use style="fill-opacity:0;stroke:#ff00ff;stroke-linejoin:miter;stroke-width:1.5;" x="236.248782" xlink:href="#mf678e88772" y="110.058466"/>
     <use style="fill-opacity:0;stroke:#ff00ff;stroke-linejoin:miter;stroke-width:1.5;" x="236.248782" xlink:href="#mf678e88772" y="109.982118"/>
     <use style="fill-opacity:0;stroke:#ff00ff;stroke-linejoin:miter;stroke-width:1.5;" x="360.8064" xlink:href="#mf678e88772" y="109.982118"/>
    </g>
   </g>
   <g id="line2d_42">
    <path style="fill:none;stroke:#ff00ff;stroke-linecap:square;stroke-width:1.5;"/>
    <g/>
   </g>
   <g id="line2d_43">
    <path clip-path="url(#p1b14f8b2da)" d="M 150.166205 212.517798 
" style="fill:none;stroke:#ff00ff;stroke-linecap:square;stroke-width:1.5;"/>
    <defs>
     <path d="M -12 12 
L 12 -12 
M -12 -12 
L 12 12 
" id="mc910c21a2b" style="stroke:#ff00ff;"/>
    </defs>
    <g clip-path="url(#p1b14f8b2da)">
     <use style="fill:#ff00ff;stroke:#ff00ff;" x="150.166205" xlink:href="#mc910c21a2b" y="212.517798"/>
    </g>
   </g>
   <g id="line2d_44">
    <path d="M 360.8064 109.982118 
L 380.514816 293.10336 
" style="fill:none;stroke:#ff00ff;stroke-linecap:square;stroke-width:1.5;"/>
    <g>
     <use style="fill-opacity:0;stroke:#ff00ff;stroke-linejoin:miter;stroke-width:1.5;" x="360.8064" xlink:href="#mf678e88772" y="109.982118"/>
     <use style="fill-opacity:0;stroke:#ff00ff;stroke-linejoin:miter;stroke-width:1.5;" x="380.514816" xlink:href="#mf678e88772" y="293.10336"/>
    </g>
   </g>
   <g id="line2d_45">
    <path d="M 360.8064 6.912 
L 380.514816 152.928 
" style="fill:none;stroke:#000080;stroke-linecap:square;stroke-width:1.5;"/>
    <g>
     <use style="fill-opacity:0;stroke:#000080;stroke-width:1.5;" x="360.8064" xlink:href="#m7a2e173c5a" y="6.912"/>
     <use style="fill-opacity:0;stroke:#000080;stroke-width:1.5;" x="380.514816" xlink:href="#m7a2e173c5a" y="152.928"/>
    </g>
   </g>
   <g id="line2d_46">
    <path d="M 360.8064 298.944 
L 360.8064 6.912 
" style="fill:none;stroke:#000000;stroke-linecap:square;stroke-width:1.5;"/>
   </g>
   <g id="patch_3">
    <path d="M 57.6 298.944 
L 360.8064 298.944 
" style="fill:none;stroke:#000000;stroke-linecap:square;stroke-linejoin:miter;stroke-width:0.8;"/>
   </g>
   <g id="patch_4">
    <path d="M 57.6 6.912 
L 360.8064 6.912 
" style="fill:none;stroke:#000000;stroke-linecap:square;stroke-linejoin:miter;stroke-width:0.8;"/>
   </g>
   <g id="text_13">
    <!-- cma.fmin  -->
    <g transform="translate(386.578944 296.966485)scale(0.14 -0.14)">
     <use xlink:href="#DejaVuSans-63"/>
     <use x="54.980469" xlink:href="#DejaVuSans-6d"/>
     <use x="152.392578" xlink:href="#DejaVuSans-61"/>
     <use x="213.671875" xlink:href="#DejaVuSans-2e"/>
     <use x="245.458984" xlink:href="#DejaVuSans-66"/>
     <use x="280.664062" xlink:href="#DejaVuSans-6d"/>
     <use x="378.076172" xlink:href="#DejaVuSans-69"/>
     <use x="405.859375" xlink:href="#DejaVuSans-6e"/>
     <use x="469.238281" xlink:href="#DejaVuSans-20"/>
    </g>
   </g>
   <g id="text_14">
    <!-- different -->
    <g transform="translate(386.578944 156.791125)scale(0.14 -0.14)">
     <use xlink:href="#DejaVuSans-64"/>
     <use x="63.476562" xlink:href="#DejaVuSans-69"/>
     <use x="91.259766" xlink:href="#DejaVuSans-66"/>
     <use x="126.464844" xlink:href="#DejaVuSans-66"/>
     <use x="161.669922" xlink:href="#DejaVuSans-65"/>
     <use x="223.193359" xlink:href="#DejaVuSans-72"/>
     <use x="262.056641" xlink:href="#DejaVuSans-65"/>
     <use x="323.580078" xlink:href="#DejaVuSans-6e"/>
     <use x="386.958984" xlink:href="#DejaVuSans-74"/>
    </g>
   </g>
   <g id="text_15">
    <!-- best 2009 -->
    <g transform="translate(386.578944 16.615765)scale(0.14 -0.14)">
     <defs>
      <path d="M 3116 1747 
Q 3116 2381 2855 2742 
Q 2594 3103 2138 3103 
Q 1681 3103 1420 2742 
Q 1159 2381 1159 1747 
Q 1159 1113 1420 752 
Q 1681 391 2138 391 
Q 2594 391 2855 752 
Q 3116 1113 3116 1747 
z
M 1159 2969 
Q 1341 3281 1617 3432 
Q 1894 3584 2278 3584 
Q 2916 3584 3314 3078 
Q 3713 2572 3713 1747 
Q 3713 922 3314 415 
Q 2916 -91 2278 -91 
Q 1894 -91 1617 61 
Q 1341 213 1159 525 
L 1159 0 
L 581 0 
L 581 4863 
L 1159 4863 
L 1159 2969 
z
" id="DejaVuSans-62" transform="scale(0.015625)"/>
      <path d="M 703 97 
L 703 672 
Q 941 559 1184 500 
Q 1428 441 1663 441 
Q 2288 441 2617 861 
Q 2947 1281 2994 2138 
Q 2813 1869 2534 1725 
Q 2256 1581 1919 1581 
Q 1219 1581 811 2004 
Q 403 2428 403 3163 
Q 403 3881 828 4315 
Q 1253 4750 1959 4750 
Q 2769 4750 3195 4129 
Q 3622 3509 3622 2328 
Q 3622 1225 3098 567 
Q 2575 -91 1691 -91 
Q 1453 -91 1209 -44 
Q 966 3 703 97 
z
M 1959 2075 
Q 2384 2075 2632 2365 
Q 2881 2656 2881 3163 
Q 2881 3666 2632 3958 
Q 2384 4250 1959 4250 
Q 1534 4250 1286 3958 
Q 1038 3666 1038 3163 
Q 1038 2656 1286 2365 
Q 1534 2075 1959 2075 
z
" id="DejaVuSans-39" transform="scale(0.015625)"/>
     </defs>
     <use xlink:href="#DejaVuSans-62"/>
     <use x="63.476562" xlink:href="#DejaVuSans-65"/>
     <use x="125" xlink:href="#DejaVuSans-73"/>
     <use x="177.099609" xlink:href="#DejaVuSans-74"/>
     <use x="216.308594" xlink:href="#DejaVuSans-20"/>
     <use x="248.095703" xlink:href="#DejaVuSans-32"/>
     <use x="311.71875" xlink:href="#DejaVuSans-30"/>
     <use x="375.341797" xlink:href="#DejaVuSans-30"/>
     <use x="438.964844" xlink:href="#DejaVuSans-39"/>
    </g>
   </g>
   <g id="text_16">
    <!-- bbob f1-f5, 10-D -->
    <g transform="translate(60.632064 17.582726)scale(0.102 -0.102)">
     <defs>
      <path d="M 691 4666 
L 3169 4666 
L 3169 4134 
L 1269 4134 
L 1269 2991 
Q 1406 3038 1543 3061 
Q 1681 3084 1819 3084 
Q 2600 3084 3056 2656 
Q 3513 2228 3513 1497 
Q 3513 744 3044 326 
Q 2575 -91 1722 -91 
Q 1428 -91 1123 -41 
Q 819 9 494 109 
L 494 744 
Q 775 591 1075 516 
Q 1375 441 1709 441 
Q 2250 441 2565 725 
Q 2881 1009 2881 1497 
Q 2881 1984 2565 2268 
Q 2250 2553 1709 2553 
Q 1456 2553 1204 2497 
Q 953 2441 691 2322 
L 691 4666 
z
" id="DejaVuSans-35" transform="scale(0.015625)"/>
      <path d="M 1259 4147 
L 1259 519 
L 2022 519 
Q 2988 519 3436 956 
Q 3884 1394 3884 2338 
Q 3884 3275 3436 3711 
Q 2988 4147 2022 4147 
L 1259 4147 
z
M 628 4666 
L 1925 4666 
Q 3281 4666 3915 4102 
Q 4550 3538 4550 2338 
Q 4550 1131 3912 565 
Q 3275 0 1925 0 
L 628 0 
L 628 4666 
z
" id="DejaVuSans-44" transform="scale(0.015625)"/>
     </defs>
     <use xlink:href="#DejaVuSans-62"/>
     <use x="63.476562" xlink:href="#DejaVuSans-62"/>
     <use x="126.953125" xlink:href="#DejaVuSans-6f"/>
     <use x="188.134766" xlink:href="#DejaVuSans-62"/>
     <use x="251.611328" xlink:href="#DejaVuSans-20"/>
     <use x="283.398438" xlink:href="#DejaVuSans-66"/>
     <use x="318.603516" xlink:href="#DejaVuSans-31"/>
     <use x="382.226562" xlink:href="#DejaVuSans-2d"/>
     <use x="418.310547" xlink:href="#DejaVuSans-66"/>
     <use x="453.515625" xlink:href="#DejaVuSans-35"/>
     <use x="517.138672" xlink:href="#DejaVuSans-2c"/>
     <use x="548.925781" xlink:href="#DejaVuSans-20"/>
     <use x="580.712891" xlink:href="#DejaVuSans-31"/>
     <use x="644.335938" xlink:href="#DejaVuSans-30"/>
     <use x="707.958984" xlink:href="#DejaVuSans-2d"/>
     <use x="744.042969" xlink:href="#DejaVuSans-44"/>
    </g>
    <!-- 51 targets: 100..1e-08 -->
    <g transform="translate(60.632064 29.004495)scale(0.102 -0.102)">
     <defs>
      <path d="M 750 794 
L 1409 794 
L 1409 0 
L 750 0 
L 750 794 
z
M 750 3309 
L 1409 3309 
L 1409 2516 
L 750 2516 
L 750 3309 
z
" id="DejaVuSans-3a" transform="scale(0.015625)"/>
     </defs>
     <use xlink:href="#DejaVuSans-35"/>
     <use x="63.623047" xlink:href="#DejaVuSans-31"/>
     <use x="127.246094" xlink:href="#DejaVuSans-20"/>
     <use x="159.033203" xlink:href="#DejaVuSans-74"/>
     <use x="198.242188" xlink:href="#DejaVuSans-61"/>
     <use x="259.521484" xlink:href="#DejaVuSans-72"/>
     <use x="298.884766" xlink:href="#DejaVuSans-67"/>
     <use x="362.361328" xlink:href="#DejaVuSans-65"/>
     <use x="423.884766" xlink:href="#DejaVuSans-74"/>
     <use x="463.09375" xlink:href="#DejaVuSans-73"/>
     <use x="515.193359" xlink:href="#DejaVuSans-3a"/>
     <use x="548.884766" xlink:href="#DejaVuSans-20"/>
     <use x="580.671875" xlink:href="#DejaVuSans-31"/>
     <use x="644.294922" xlink:href="#DejaVuSans-30"/>
     <use x="707.917969" xlink:href="#DejaVuSans-30"/>
     <use x="771.541016" xlink:href="#DejaVuSans-2e"/>
     <use x="803.328125" xlink:href="#DejaVuSans-2e"/>
     <use x="835.115234" xlink:href="#DejaVuSans-31"/>
     <use x="898.738281" xlink:href="#DejaVuSans-65"/>
     <use x="960.261719" xlink:href="#DejaVuSans-2d"/>
     <use x="996.345703" xlink:href="#DejaVuSans-30"/>
     <use x="1059.96875" xlink:href="#DejaVuSans-38"/>
    </g>
    <!-- 15 instances -->
    <g transform="translate(60.632064 40.426264)scale(0.102 -0.102)">
     <use xlink:href="#DejaVuSans-31"/>
     <use x="63.623047" xlink:href="#DejaVuSans-35"/>
     <use x="127.246094" xlink:href="#DejaVuSans-20"/>
     <use x="159.033203" xlink:href="#DejaVuSans-69"/>
     <use x="186.816406" xlink:href="#DejaVuSans-6e"/>
     <use x="250.195312" xlink:href="#DejaVuSans-73"/>
     <use x="302.294922" xlink:href="#DejaVuSans-74"/>
     <use x="341.503906" xlink:href="#DejaVuSans-61"/>
     <use x="402.783203" xlink:href="#DejaVuSans-6e"/>
     <use x="466.162109" xlink:href="#DejaVuSans-63"/>
     <use x="521.142578" xlink:href="#DejaVuSans-65"/>
     <use x="582.666016" xlink:href="#DejaVuSans-73"/>
    </g>
   </g>
   <g id="text_17">
    <!-- v2.6 -->
    <g style="fill:#808080;" transform="translate(198.292262 293.943992)scale(0.1 -0.1)">
     <use xlink:href="#DejaVuSans-76"/>
     <use x="59.179688" xlink:href="#DejaVuSans-32"/>
     <use x="122.802734" xlink:href="#DejaVuSans-2e"/>
     <use x="154.589844" xlink:href="#DejaVuSans-36"/>
    </g>
   </g>
  </g>
 </g>
 <defs>
  <clipPath id="p1b14f8b2da">
   <rect height="292.032" width="303.2064" x="57.6" y="6.912"/>
  </clipPath>
 </defs>
</svg>
