<?xml version="1.0" encoding="utf-8" standalone="no"?>
<!DOCTYPE svg PUBLIC "-//W3C//DTD SVG 1.1//EN"
  "http://www.w3.org/Graphics/SVG/1.1/DTD/svg11.dtd">
<svg height="345.6pt" version="1.1" viewBox="0 0 460.8 345.6" width="460.8pt" xmlns="http://www.w3.org/2000/svg" xmlns:xlink="http://www.w3.org/1999/xlink">
 <metadata>
  <rdf:RDF xmlns:cc="http://creativecommons.org/ns#" xmlns:dc="http://purl.org/dc/elements/1.1/" xmlns:rdf="http://www.w3.org/1999/02/22-rdf-syntax-ns#">
   <cc:Work>
    <dc:type rdf:resource="http://purl.org/dc/dcmitype/StillImage"/>
    <dc:date>2022-05-07T15:07:19.146508</dc:date>
    <dc:format>image/svg+xml</dc:format>
    <dc:creator>
     <cc:Agent>
      <dc:title>Matplotlib v3.4.3, https://matplotlib.org/</dc:title>
     </cc:Agent>
    </dc:creator>
   </cc:Work>
  </rdf:RDF>
 </metadata>
 <defs>
  <style type="text/css">*{stroke-linecap:butt;stroke-linejoin:round;}</style>
 </defs>
 <g id="figure_1">
  <g id="patch_1">
   <path d="M 0 345.6 
L 460.8 345.6 
L 460.8 0 
L 0 0 
z
" style="fill:#ffffff;"/>
  </g>
  <g id="axes_1">
   <g id="patch_2">
    <path d="M 57.6 298.944 
L 360.8064 298.944 
L 360.8064 6.912 
L 57.6 6.912 
z
" style="fill:#ffffff;"/>
   </g>
   <g id="line2d_1">
    <path d="M 27.323974 298.944 
L 27.323974 296.653553 
L 40.363149 296.653553 
L 40.363149 294.363106 
L 47.990577 294.363106 
L 47.990577 293.217882 
L 70.639174 293.217882 
L 70.639174 292.072659 
L 78.266603 292.072659 
L 78.266603 290.927435 
L 85.471281 290.927435 
L 85.471281 289.782212 
L 87.1081 289.782212 
L 87.1081 288.636988 
L 90.668036 288.636988 
L 90.668036 287.491765 
L 94.205591 287.491765 
L 94.205591 286.346541 
L 97.18203 286.346541 
L 97.18203 285.201318 
L 98.510456 285.201318 
L 98.510456 284.056094 
L 99.346662 284.056094 
L 99.346662 282.910871 
L 100.535156 282.910871 
L 100.535156 281.765647 
L 101.653002 281.765647 
L 101.653002 280.620424 
L 102.011329 280.620424 
L 102.011329 279.4752 
L 102.708132 279.4752 
L 102.708132 278.329976 
L 103.707211 278.329976 
L 103.707211 276.039529 
L 105.26277 276.039529 
L 105.26277 274.894306 
L 106.974091 274.894306 
L 106.974091 273.749082 
L 107.774703 273.749082 
L 107.774703 272.603859 
L 108.29012 272.603859 
L 108.29012 271.458635 
L 109.520071 271.458635 
L 109.520071 270.313412 
L 109.756698 270.313412 
L 109.756698 269.168188 
L 110.221204 269.168188 
L 110.221204 268.022965 
L 110.449226 268.022965 
L 110.449226 266.877741 
L 111.334639 266.877741 
L 111.334639 265.732518 
L 111.97238 265.732518 
L 111.97238 264.587294 
L 112.589207 264.587294 
L 112.589207 263.442071 
L 113.765312 263.442071 
L 113.765312 262.296847 
L 113.954374 262.296847 
L 113.954374 261.151624 
L 114.141556 261.151624 
L 114.141556 260.0064 
L 115.227139 260.0064 
L 115.227139 258.861176 
L 115.402131 258.861176 
L 115.402131 257.715953 
L 115.575511 257.715953 
L 115.575511 256.570729 
L 116.253478 256.570729 
L 116.253478 255.425506 
L 117.226706 255.425506 
L 117.226706 254.280282 
L 118.450653 254.280282 
L 118.450653 253.135059 
L 119.177058 253.135059 
L 119.177058 251.989835 
L 119.599808 251.989835 
L 119.599808 250.844612 
L 120.149089 250.844612 
L 120.149089 249.699388 
L 120.682786 249.699388 
L 120.682786 248.554165 
L 120.944062 248.554165 
L 120.944062 247.408941 
L 121.073351 247.408941 
L 121.073351 246.263718 
L 121.329295 246.263718 
L 121.329295 245.118494 
L 121.830966 245.118494 
L 121.830966 243.973271 
L 122.677931 243.973271 
L 122.677931 242.828047 
L 123.145323 242.828047 
L 123.145323 240.5376 
L 124.046648 240.5376 
L 124.156336 238.247153 
L 124.906754 238.247153 
L 124.906754 235.956706 
L 125.322496 235.956706 
L 125.322496 234.811482 
L 125.829577 234.811482 
L 125.829577 233.666259 
L 126.517282 233.666259 
L 126.517282 232.521035 
L 126.804487 232.521035 
L 126.899255 230.230588 
L 126.993549 230.230588 
L 126.993549 229.085365 
L 127.18073 229.085365 
L 127.18073 227.940141 
L 127.366067 227.940141 
L 127.366067 226.794918 
L 127.821575 226.794918 
L 127.821575 225.649694 
L 128.000734 225.649694 
L 128.000734 224.504471 
L 128.700779 224.504471 
L 128.700779 222.214024 
L 129.375706 222.214024 
L 129.375706 221.0688 
L 129.54072 221.0688 
L 129.54072 219.923576 
L 129.7043 219.923576 
L 129.7043 218.778353 
L 130.186674 218.778353 
L 130.265881 216.487906 
L 130.344755 216.487906 
L 130.344755 215.342682 
L 130.734242 215.342682 
L 130.734242 214.197459 
L 131.191226 214.197459 
L 131.266322 211.907012 
L 131.929028 211.907012 
L 131.929028 210.761788 
L 132.216233 210.761788 
L 132.216233 209.616565 
L 132.499119 209.616565 
L 132.499119 208.471341 
L 133.05244 208.471341 
L 133.05244 207.326118 
L 134.240933 207.326118 
L 134.240933 206.180894 
L 134.431915 206.180894 
L 134.495147 203.890447 
L 134.745971 203.890447 
L 134.745971 202.745224 
L 134.931919 202.745224 
L 134.931919 201.6 
L 135.478982 201.6 
L 135.478982 200.454776 
L 135.776169 200.454776 
L 135.776169 199.309553 
L 136.242113 199.309553 
L 136.242113 198.164329 
L 136.356818 198.164329 
L 136.356818 197.019106 
L 137.030737 197.019106 
L 137.030737 195.873882 
L 137.304564 195.873882 
L 137.304564 194.728659 
L 137.466966 194.728659 
L 137.466966 193.583435 
L 137.998402 193.583435 
L 138.050729 191.292988 
L 138.36167 191.292988 
L 138.36167 190.147765 
L 138.616919 190.147765 
L 138.616919 189.002541 
L 138.868751 189.002541 
L 138.868751 187.857318 
L 139.117256 187.857318 
L 139.117256 186.712094 
L 139.508159 186.712094 
L 139.556456 184.421647 
L 139.891105 184.421647 
L 139.891105 183.276424 
L 140.126547 183.276424 
L 140.126547 182.1312 
L 140.26641 182.1312 
L 140.26641 180.985976 
L 140.543056 180.985976 
L 140.634374 178.695529 
L 140.679868 178.695529 
L 140.679868 177.550306 
L 140.995278 177.550306 
L 140.995278 176.405082 
L 141.217377 176.405082 
L 141.217377 175.259859 
L 141.436884 175.259859 
L 141.523975 172.969412 
L 141.610664 172.969412 
L 141.610664 171.824188 
L 141.953481 171.824188 
L 141.953481 170.678965 
L 142.122575 170.678965 
L 142.122575 169.533741 
L 142.290162 169.533741 
L 142.290162 168.388518 
L 142.41488 168.388518 
L 142.41488 167.243294 
L 142.702713 167.243294 
L 142.702713 166.098071 
L 142.824734 166.098071 
L 142.824734 164.952847 
L 143.02636 164.952847 
L 143.02636 163.807624 
L 143.146307 163.807624 
L 143.146307 162.6624 
L 143.305055 162.6624 
L 143.305055 161.517176 
L 143.540694 161.517176 
L 143.540694 160.371953 
L 143.811926 160.371953 
L 143.850356 158.081506 
L 144.2304 158.081506 
L 144.2304 156.936282 
L 144.529002 156.936282 
L 144.529002 155.791059 
L 144.71325 155.791059 
L 144.71325 154.645835 
L 144.968202 154.645835 
L 145.004344 152.355388 
L 145.538293 152.355388 
L 145.538293 151.210165 
L 145.851536 151.210165 
L 145.851536 150.064941 
L 145.989098 150.064941 
L 145.989098 148.919718 
L 146.662213 148.919718 
L 146.662213 147.774494 
L 146.826795 147.774494 
L 146.924857 145.484047 
L 147.119461 145.484047 
L 147.216013 143.1936 
L 147.628773 143.1936 
L 147.628773 142.048376 
L 147.816265 142.048376 
L 147.878349 139.757929 
L 148.001907 139.757929 
L 148.001907 138.612706 
L 148.124658 138.612706 
L 148.216198 136.322259 
L 148.307296 136.322259 
L 148.307296 135.177035 
L 148.458151 135.177035 
L 148.458151 134.031812 
L 148.57797 134.031812 
L 148.667336 131.741365 
L 148.785835 131.741365 
L 148.785835 130.596141 
L 148.962194 130.596141 
L 149.049758 128.305694 
L 149.194798 128.305694 
L 149.194798 127.160471 
L 149.31003 127.160471 
L 149.31003 126.015247 
L 150.853277 126.015247 
L 150.958812 122.579576 
L 152.181101 122.579576 
L 152.181101 121.434353 
L 152.667844 121.434353 
L 152.667844 120.289129 
L 153.719042 120.289129 
L 153.741748 117.998682 
L 153.877408 117.998682 
L 153.967309 115.708235 
L 154.079083 115.708235 
L 154.168026 113.417788 
L 154.278618 113.417788 
L 154.388563 111.127341 
L 154.519655 111.127341 
L 154.519655 109.982118 
L 154.671449 109.982118 
L 154.779128 106.546447 
L 154.86483 106.546447 
L 154.971412 104.256 
L 155.056244 104.256 
L 155.056244 103.110776 
L 155.18278 103.110776 
L 155.22477 100.820329 
L 155.329337 100.820329 
L 155.329337 99.675106 
L 155.904407 99.675106 
L 155.904407 98.529882 
L 156.125604 98.529882 
L 156.125604 97.384659 
L 156.831855 97.384659 
L 156.831855 96.239435 
L 157.363398 96.239435 
L 157.363398 95.094212 
L 158.454228 95.094212 
L 158.454228 93.948988 
L 158.838864 93.948988 
L 158.838864 92.803765 
L 159.585318 92.803765 
L 159.585318 91.658541 
L 159.931401 91.658541 
L 159.931401 90.513318 
L 160.158636 90.513318 
L 160.158636 89.368094 
L 160.335271 89.368094 
L 160.335271 88.222871 
L 160.808741 88.222871 
L 160.808741 87.077647 
L 160.979404 87.077647 
L 160.979404 85.932424 
L 161.255373 85.932424 
L 161.270586 83.641976 
L 161.706511 83.641976 
L 161.706511 82.496753 
L 161.986735 82.496753 
L 162.05979 80.206306 
L 162.248415 80.206306 
L 162.349204 77.915859 
L 162.420867 77.915859 
L 162.478002 75.625412 
L 162.676617 75.625412 
L 162.676617 74.480188 
L 162.942856 74.480188 
L 162.956765 72.189741 
L 163.067666 72.189741 
L 163.067666 71.044518 
L 163.205379 71.044518 
L 163.205379 69.899294 
L 163.518345 69.899294 
L 163.518345 68.754071 
L 163.666204 68.754071 
L 163.759694 65.3184 
L 163.91889 65.3184 
L 163.984826 63.027953 
L 164.129077 63.027953 
L 164.194282 59.592282 
L 164.401432 59.592282 
L 164.478528 57.301835 
L 164.63178 57.301835 
L 164.70794 53.866165 
L 164.821605 53.866165 
L 164.821605 52.720941 
L 164.959603 52.720941 
L 164.984586 50.430494 
L 165.183257 50.430494 
L 165.195605 48.140047 
L 165.379853 48.140047 
L 165.44087 45.8496 
L 165.574415 45.8496 
L 165.574415 44.704376 
L 165.695002 44.704376 
L 165.707018 41.268706 
L 165.92201 41.268706 
L 165.92201 40.123482 
L 166.193193 40.123482 
L 166.286609 36.687812 
L 166.529641 36.687812 
L 166.529641 35.542588 
L 166.678531 35.542588 
L 166.758217 33.252141 
L 166.950346 33.252141 
L 166.950346 32.106918 
L 167.084795 32.106918 
L 167.084795 30.961694 
L 167.229371 30.961694 
L 167.295726 28.671247 
L 167.624034 28.671247 
L 167.624034 27.526024 
L 167.818303 27.526024 
L 167.925369 25.235576 
L 168.074246 25.235576 
L 168.074246 24.090353 
L 168.3163 24.090353 
L 168.3163 22.945129 
L 168.903083 22.945129 
L 168.903083 21.799906 
L 169.363634 21.799906 
L 169.363634 20.654682 
L 170.043526 20.654682 
L 170.043526 19.509459 
L 170.374474 19.509459 
L 170.374474 18.364235 
L 170.828233 18.364235 
L 170.828233 17.219012 
L 171.190702 17.219012 
L 171.190702 16.073788 
L 171.67796 16.073788 
L 171.67796 14.928565 
L 172.118775 14.928565 
L 172.118775 13.783341 
L 172.566188 13.783341 
L 172.566188 12.638118 
L 172.814802 12.638118 
L 172.814802 11.492894 
L 173.10076 11.492894 
L 173.10076 10.347671 
L 173.50981 10.347671 
L 173.50981 9.202447 
L 174.010854 9.202447 
L 174.010854 8.057224 
L 174.324962 8.057224 
L 174.324962 6.912 
L 360.8064 6.912 
L 360.8064 6.912 
" style="fill:none;stroke:#f5deb3;stroke-linecap:square;stroke-width:4;"/>
   </g>
   <g id="line2d_2">
    <defs>
     <path d="M -0 7.778175 
L 7.778175 0 
L 0 -7.778175 
L -7.778175 -0 
z
" id="mcbe5fc8200" style="stroke:#f5deb3;stroke-linejoin:miter;stroke-width:1.5;"/>
    </defs>
    <g>
     <use style="fill:#f5deb3;stroke:#f5deb3;stroke-linejoin:miter;stroke-width:1.5;" x="111.334639" xlink:href="#mcbe5fc8200" y="265.732518"/>
     <use style="fill:#f5deb3;stroke:#f5deb3;stroke-linejoin:miter;stroke-width:1.5;" x="136.242113" xlink:href="#mcbe5fc8200" y="199.309553"/>
     <use style="fill:#f5deb3;stroke:#f5deb3;stroke-linejoin:miter;stroke-width:1.5;" x="165.574415" xlink:href="#mcbe5fc8200" y="45.8496"/>
     <use style="fill:#f5deb3;stroke:#f5deb3;stroke-linejoin:miter;stroke-width:1.5;" x="174.324962" xlink:href="#mcbe5fc8200" y="8.057224"/>
     <use style="fill:#f5deb3;stroke:#f5deb3;stroke-linejoin:miter;stroke-width:1.5;" x="174.324962" xlink:href="#mcbe5fc8200" y="6.912"/>
     <use style="fill:#f5deb3;stroke:#f5deb3;stroke-linejoin:miter;stroke-width:1.5;" x="360.8064" xlink:href="#mcbe5fc8200" y="6.912"/>
    </g>
   </g>
   <g id="line2d_3">
    <path style="fill:none;stroke:#f5deb3;stroke-linecap:square;stroke-width:4;"/>
    <g/>
   </g>
   <g id="line2d_4">
    <path d="M 360.8064 6.912 
L 380.514816 12.75264 
" style="fill:none;stroke:#f5deb3;stroke-linecap:square;stroke-width:4;"/>
    <g>
     <use style="fill:#f5deb3;stroke:#f5deb3;stroke-linejoin:miter;stroke-width:1.5;" x="360.8064" xlink:href="#mcbe5fc8200" y="6.912"/>
     <use style="fill:#f5deb3;stroke:#f5deb3;stroke-linejoin:miter;stroke-width:1.5;" x="380.514816" xlink:href="#mcbe5fc8200" y="12.75264"/>
    </g>
   </g>
   <g id="matplotlib.axis_1">
    <g id="xtick_1">
     <g id="line2d_5">
      <path clip-path="url(#p65eca3dcdc)" d="M 57.6 298.944 
L 57.6 6.912 
" style="fill:none;stroke:#b0b0b0;stroke-linecap:square;stroke-width:0.8;"/>
     </g>
     <g id="line2d_6">
      <defs>
       <path d="M 0 0 
L 0 3.5 
" id="m7f5eb9c39f" style="stroke:#000000;stroke-width:0.8;"/>
      </defs>
      <g>
       <use style="stroke:#000000;stroke-width:0.8;" x="57.6" xlink:href="#m7f5eb9c39f" y="298.944"/>
      </g>
     </g>
     <g id="text_1">
      <!-- 0 -->
      <g transform="translate(52.191875 318.861344)scale(0.17 -0.17)">
       <defs>
        <path d="M 2034 4250 
Q 1547 4250 1301 3770 
Q 1056 3291 1056 2328 
Q 1056 1369 1301 889 
Q 1547 409 2034 409 
Q 2525 409 2770 889 
Q 3016 1369 3016 2328 
Q 3016 3291 2770 3770 
Q 2525 4250 2034 4250 
z
M 2034 4750 
Q 2819 4750 3233 4129 
Q 3647 3509 3647 2328 
Q 3647 1150 3233 529 
Q 2819 -91 2034 -91 
Q 1250 -91 836 529 
Q 422 1150 422 2328 
Q 422 3509 836 4129 
Q 1250 4750 2034 4750 
z
" id="DejaVuSans-30" transform="scale(0.015625)"/>
       </defs>
       <use xlink:href="#DejaVuSans-30"/>
      </g>
     </g>
    </g>
    <g id="xtick_2">
     <g id="line2d_7">
      <path clip-path="url(#p65eca3dcdc)" d="M 144.2304 298.944 
L 144.2304 6.912 
" style="fill:none;stroke:#b0b0b0;stroke-linecap:square;stroke-width:0.8;"/>
     </g>
     <g id="line2d_8">
      <g>
       <use style="stroke:#000000;stroke-width:0.8;" x="144.2304" xlink:href="#m7f5eb9c39f" y="298.944"/>
      </g>
     </g>
     <g id="text_2">
      <!-- 2 -->
      <g transform="translate(138.822275 318.861344)scale(0.17 -0.17)">
       <defs>
        <path d="M 1228 531 
L 3431 531 
L 3431 0 
L 469 0 
L 469 531 
Q 828 903 1448 1529 
Q 2069 2156 2228 2338 
Q 2531 2678 2651 2914 
Q 2772 3150 2772 3378 
Q 2772 3750 2511 3984 
Q 2250 4219 1831 4219 
Q 1534 4219 1204 4116 
Q 875 4013 500 3803 
L 500 4441 
Q 881 4594 1212 4672 
Q 1544 4750 1819 4750 
Q 2544 4750 2975 4387 
Q 3406 4025 3406 3419 
Q 3406 3131 3298 2873 
Q 3191 2616 2906 2266 
Q 2828 2175 2409 1742 
Q 1991 1309 1228 531 
z
" id="DejaVuSans-32" transform="scale(0.015625)"/>
       </defs>
       <use xlink:href="#DejaVuSans-32"/>
      </g>
     </g>
    </g>
    <g id="xtick_3">
     <g id="line2d_9">
      <path clip-path="url(#p65eca3dcdc)" d="M 230.8608 298.944 
L 230.8608 6.912 
" style="fill:none;stroke:#b0b0b0;stroke-linecap:square;stroke-width:0.8;"/>
     </g>
     <g id="line2d_10">
      <g>
       <use style="stroke:#000000;stroke-width:0.8;" x="230.8608" xlink:href="#m7f5eb9c39f" y="298.944"/>
      </g>
     </g>
     <g id="text_3">
      <!-- 4 -->
      <g transform="translate(225.452675 318.861344)scale(0.17 -0.17)">
       <defs>
        <path d="M 2419 4116 
L 825 1625 
L 2419 1625 
L 2419 4116 
z
M 2253 4666 
L 3047 4666 
L 3047 1625 
L 3713 1625 
L 3713 1100 
L 3047 1100 
L 3047 0 
L 2419 0 
L 2419 1100 
L 313 1100 
L 313 1709 
L 2253 4666 
z
" id="DejaVuSans-34" transform="scale(0.015625)"/>
       </defs>
       <use xlink:href="#DejaVuSans-34"/>
      </g>
     </g>
    </g>
    <g id="xtick_4">
     <g id="line2d_11">
      <path clip-path="url(#p65eca3dcdc)" d="M 317.4912 298.944 
L 317.4912 6.912 
" style="fill:none;stroke:#b0b0b0;stroke-linecap:square;stroke-width:0.8;"/>
     </g>
     <g id="line2d_12">
      <g>
       <use style="stroke:#000000;stroke-width:0.8;" x="317.4912" xlink:href="#m7f5eb9c39f" y="298.944"/>
      </g>
     </g>
     <g id="text_4">
      <!-- 6 -->
      <g transform="translate(312.083075 318.861344)scale(0.17 -0.17)">
       <defs>
        <path d="M 2113 2584 
Q 1688 2584 1439 2293 
Q 1191 2003 1191 1497 
Q 1191 994 1439 701 
Q 1688 409 2113 409 
Q 2538 409 2786 701 
Q 3034 994 3034 1497 
Q 3034 2003 2786 2293 
Q 2538 2584 2113 2584 
z
M 3366 4563 
L 3366 3988 
Q 3128 4100 2886 4159 
Q 2644 4219 2406 4219 
Q 1781 4219 1451 3797 
Q 1122 3375 1075 2522 
Q 1259 2794 1537 2939 
Q 1816 3084 2150 3084 
Q 2853 3084 3261 2657 
Q 3669 2231 3669 1497 
Q 3669 778 3244 343 
Q 2819 -91 2113 -91 
Q 1303 -91 875 529 
Q 447 1150 447 2328 
Q 447 3434 972 4092 
Q 1497 4750 2381 4750 
Q 2619 4750 2861 4703 
Q 3103 4656 3366 4563 
z
" id="DejaVuSans-36" transform="scale(0.015625)"/>
       </defs>
       <use xlink:href="#DejaVuSans-36"/>
      </g>
     </g>
    </g>
    <g id="xtick_5">
     <g id="line2d_13">
      <path clip-path="url(#p65eca3dcdc)" d="M 100.9152 298.944 
L 100.9152 6.912 
" style="fill:none;stroke:#b0b0b0;stroke-linecap:square;stroke-width:0.8;"/>
     </g>
     <g id="line2d_14">
      <defs>
       <path d="M 0 0 
L 0 2 
" id="mf003e2522e" style="stroke:#000000;stroke-width:0.6;"/>
      </defs>
      <g>
       <use style="stroke:#000000;stroke-width:0.6;" x="100.9152" xlink:href="#mf003e2522e" y="298.944"/>
      </g>
     </g>
    </g>
    <g id="xtick_6">
     <g id="line2d_15">
      <path clip-path="url(#p65eca3dcdc)" d="M 187.5456 298.944 
L 187.5456 6.912 
" style="fill:none;stroke:#b0b0b0;stroke-linecap:square;stroke-width:0.8;"/>
     </g>
     <g id="line2d_16">
      <g>
       <use style="stroke:#000000;stroke-width:0.6;" x="187.5456" xlink:href="#mf003e2522e" y="298.944"/>
      </g>
     </g>
    </g>
    <g id="xtick_7">
     <g id="line2d_17">
      <path clip-path="url(#p65eca3dcdc)" d="M 274.176 298.944 
L 274.176 6.912 
" style="fill:none;stroke:#b0b0b0;stroke-linecap:square;stroke-width:0.8;"/>
     </g>
     <g id="line2d_18">
      <g>
       <use style="stroke:#000000;stroke-width:0.6;" x="274.176" xlink:href="#mf003e2522e" y="298.944"/>
      </g>
     </g>
    </g>
    <g id="xtick_8">
     <g id="line2d_19">
      <path clip-path="url(#p65eca3dcdc)" d="M 360.8064 298.944 
L 360.8064 6.912 
" style="fill:none;stroke:#b0b0b0;stroke-linecap:square;stroke-width:0.8;"/>
     </g>
     <g id="line2d_20">
      <g>
       <use style="stroke:#000000;stroke-width:0.6;" x="360.8064" xlink:href="#mf003e2522e" y="298.944"/>
      </g>
     </g>
    </g>
    <g id="text_5">
     <!-- log10(# f-evals / dimension) -->
     <g transform="translate(88.823278 339.314156)scale(0.17 -0.17)">
      <defs>
       <path d="M 603 4863 
L 1178 4863 
L 1178 0 
L 603 0 
L 603 4863 
z
" id="DejaVuSans-6c" transform="scale(0.015625)"/>
       <path d="M 1959 3097 
Q 1497 3097 1228 2736 
Q 959 2375 959 1747 
Q 959 1119 1226 758 
Q 1494 397 1959 397 
Q 2419 397 2687 759 
Q 2956 1122 2956 1747 
Q 2956 2369 2687 2733 
Q 2419 3097 1959 3097 
z
M 1959 3584 
Q 2709 3584 3137 3096 
Q 3566 2609 3566 1747 
Q 3566 888 3137 398 
Q 2709 -91 1959 -91 
Q 1206 -91 779 398 
Q 353 888 353 1747 
Q 353 2609 779 3096 
Q 1206 3584 1959 3584 
z
" id="DejaVuSans-6f" transform="scale(0.015625)"/>
       <path d="M 2906 1791 
Q 2906 2416 2648 2759 
Q 2391 3103 1925 3103 
Q 1463 3103 1205 2759 
Q 947 2416 947 1791 
Q 947 1169 1205 825 
Q 1463 481 1925 481 
Q 2391 481 2648 825 
Q 2906 1169 2906 1791 
z
M 3481 434 
Q 3481 -459 3084 -895 
Q 2688 -1331 1869 -1331 
Q 1566 -1331 1297 -1286 
Q 1028 -1241 775 -1147 
L 775 -588 
Q 1028 -725 1275 -790 
Q 1522 -856 1778 -856 
Q 2344 -856 2625 -561 
Q 2906 -266 2906 331 
L 2906 616 
Q 2728 306 2450 153 
Q 2172 0 1784 0 
Q 1141 0 747 490 
Q 353 981 353 1791 
Q 353 2603 747 3093 
Q 1141 3584 1784 3584 
Q 2172 3584 2450 3431 
Q 2728 3278 2906 2969 
L 2906 3500 
L 3481 3500 
L 3481 434 
z
" id="DejaVuSans-67" transform="scale(0.015625)"/>
       <path d="M 794 531 
L 1825 531 
L 1825 4091 
L 703 3866 
L 703 4441 
L 1819 4666 
L 2450 4666 
L 2450 531 
L 3481 531 
L 3481 0 
L 794 0 
L 794 531 
z
" id="DejaVuSans-31" transform="scale(0.015625)"/>
       <path d="M 1984 4856 
Q 1566 4138 1362 3434 
Q 1159 2731 1159 2009 
Q 1159 1288 1364 580 
Q 1569 -128 1984 -844 
L 1484 -844 
Q 1016 -109 783 600 
Q 550 1309 550 2009 
Q 550 2706 781 3412 
Q 1013 4119 1484 4856 
L 1984 4856 
z
" id="DejaVuSans-28" transform="scale(0.015625)"/>
       <path d="M 3272 2816 
L 2363 2816 
L 2100 1772 
L 3016 1772 
L 3272 2816 
z
M 2803 4594 
L 2478 3297 
L 3391 3297 
L 3719 4594 
L 4219 4594 
L 3897 3297 
L 4872 3297 
L 4872 2816 
L 3775 2816 
L 3519 1772 
L 4513 1772 
L 4513 1294 
L 3397 1294 
L 3072 0 
L 2572 0 
L 2894 1294 
L 1978 1294 
L 1656 0 
L 1153 0 
L 1478 1294 
L 494 1294 
L 494 1772 
L 1594 1772 
L 1856 2816 
L 850 2816 
L 850 3297 
L 1978 3297 
L 2297 4594 
L 2803 4594 
z
" id="DejaVuSans-23" transform="scale(0.015625)"/>
       <path id="DejaVuSans-20" transform="scale(0.015625)"/>
       <path d="M 2375 4863 
L 2375 4384 
L 1825 4384 
Q 1516 4384 1395 4259 
Q 1275 4134 1275 3809 
L 1275 3500 
L 2222 3500 
L 2222 3053 
L 1275 3053 
L 1275 0 
L 697 0 
L 697 3053 
L 147 3053 
L 147 3500 
L 697 3500 
L 697 3744 
Q 697 4328 969 4595 
Q 1241 4863 1831 4863 
L 2375 4863 
z
" id="DejaVuSans-66" transform="scale(0.015625)"/>
       <path d="M 313 2009 
L 1997 2009 
L 1997 1497 
L 313 1497 
L 313 2009 
z
" id="DejaVuSans-2d" transform="scale(0.015625)"/>
       <path d="M 3597 1894 
L 3597 1613 
L 953 1613 
Q 991 1019 1311 708 
Q 1631 397 2203 397 
Q 2534 397 2845 478 
Q 3156 559 3463 722 
L 3463 178 
Q 3153 47 2828 -22 
Q 2503 -91 2169 -91 
Q 1331 -91 842 396 
Q 353 884 353 1716 
Q 353 2575 817 3079 
Q 1281 3584 2069 3584 
Q 2775 3584 3186 3129 
Q 3597 2675 3597 1894 
z
M 3022 2063 
Q 3016 2534 2758 2815 
Q 2500 3097 2075 3097 
Q 1594 3097 1305 2825 
Q 1016 2553 972 2059 
L 3022 2063 
z
" id="DejaVuSans-65" transform="scale(0.015625)"/>
       <path d="M 191 3500 
L 800 3500 
L 1894 563 
L 2988 3500 
L 3597 3500 
L 2284 0 
L 1503 0 
L 191 3500 
z
" id="DejaVuSans-76" transform="scale(0.015625)"/>
       <path d="M 2194 1759 
Q 1497 1759 1228 1600 
Q 959 1441 959 1056 
Q 959 750 1161 570 
Q 1363 391 1709 391 
Q 2188 391 2477 730 
Q 2766 1069 2766 1631 
L 2766 1759 
L 2194 1759 
z
M 3341 1997 
L 3341 0 
L 2766 0 
L 2766 531 
Q 2569 213 2275 61 
Q 1981 -91 1556 -91 
Q 1019 -91 701 211 
Q 384 513 384 1019 
Q 384 1609 779 1909 
Q 1175 2209 1959 2209 
L 2766 2209 
L 2766 2266 
Q 2766 2663 2505 2880 
Q 2244 3097 1772 3097 
Q 1472 3097 1187 3025 
Q 903 2953 641 2809 
L 641 3341 
Q 956 3463 1253 3523 
Q 1550 3584 1831 3584 
Q 2591 3584 2966 3190 
Q 3341 2797 3341 1997 
z
" id="DejaVuSans-61" transform="scale(0.015625)"/>
       <path d="M 2834 3397 
L 2834 2853 
Q 2591 2978 2328 3040 
Q 2066 3103 1784 3103 
Q 1356 3103 1142 2972 
Q 928 2841 928 2578 
Q 928 2378 1081 2264 
Q 1234 2150 1697 2047 
L 1894 2003 
Q 2506 1872 2764 1633 
Q 3022 1394 3022 966 
Q 3022 478 2636 193 
Q 2250 -91 1575 -91 
Q 1294 -91 989 -36 
Q 684 19 347 128 
L 347 722 
Q 666 556 975 473 
Q 1284 391 1588 391 
Q 1994 391 2212 530 
Q 2431 669 2431 922 
Q 2431 1156 2273 1281 
Q 2116 1406 1581 1522 
L 1381 1569 
Q 847 1681 609 1914 
Q 372 2147 372 2553 
Q 372 3047 722 3315 
Q 1072 3584 1716 3584 
Q 2034 3584 2315 3537 
Q 2597 3491 2834 3397 
z
" id="DejaVuSans-73" transform="scale(0.015625)"/>
       <path d="M 1625 4666 
L 2156 4666 
L 531 -594 
L 0 -594 
L 1625 4666 
z
" id="DejaVuSans-2f" transform="scale(0.015625)"/>
       <path d="M 2906 2969 
L 2906 4863 
L 3481 4863 
L 3481 0 
L 2906 0 
L 2906 525 
Q 2725 213 2448 61 
Q 2172 -91 1784 -91 
Q 1150 -91 751 415 
Q 353 922 353 1747 
Q 353 2572 751 3078 
Q 1150 3584 1784 3584 
Q 2172 3584 2448 3432 
Q 2725 3281 2906 2969 
z
M 947 1747 
Q 947 1113 1208 752 
Q 1469 391 1925 391 
Q 2381 391 2643 752 
Q 2906 1113 2906 1747 
Q 2906 2381 2643 2742 
Q 2381 3103 1925 3103 
Q 1469 3103 1208 2742 
Q 947 2381 947 1747 
z
" id="DejaVuSans-64" transform="scale(0.015625)"/>
       <path d="M 603 3500 
L 1178 3500 
L 1178 0 
L 603 0 
L 603 3500 
z
M 603 4863 
L 1178 4863 
L 1178 4134 
L 603 4134 
L 603 4863 
z
" id="DejaVuSans-69" transform="scale(0.015625)"/>
       <path d="M 3328 2828 
Q 3544 3216 3844 3400 
Q 4144 3584 4550 3584 
Q 5097 3584 5394 3201 
Q 5691 2819 5691 2113 
L 5691 0 
L 5113 0 
L 5113 2094 
Q 5113 2597 4934 2840 
Q 4756 3084 4391 3084 
Q 3944 3084 3684 2787 
Q 3425 2491 3425 1978 
L 3425 0 
L 2847 0 
L 2847 2094 
Q 2847 2600 2669 2842 
Q 2491 3084 2119 3084 
Q 1678 3084 1418 2786 
Q 1159 2488 1159 1978 
L 1159 0 
L 581 0 
L 581 3500 
L 1159 3500 
L 1159 2956 
Q 1356 3278 1631 3431 
Q 1906 3584 2284 3584 
Q 2666 3584 2933 3390 
Q 3200 3197 3328 2828 
z
" id="DejaVuSans-6d" transform="scale(0.015625)"/>
       <path d="M 3513 2113 
L 3513 0 
L 2938 0 
L 2938 2094 
Q 2938 2591 2744 2837 
Q 2550 3084 2163 3084 
Q 1697 3084 1428 2787 
Q 1159 2491 1159 1978 
L 1159 0 
L 581 0 
L 581 3500 
L 1159 3500 
L 1159 2956 
Q 1366 3272 1645 3428 
Q 1925 3584 2291 3584 
Q 2894 3584 3203 3211 
Q 3513 2838 3513 2113 
z
" id="DejaVuSans-6e" transform="scale(0.015625)"/>
       <path d="M 513 4856 
L 1013 4856 
Q 1481 4119 1714 3412 
Q 1947 2706 1947 2009 
Q 1947 1309 1714 600 
Q 1481 -109 1013 -844 
L 513 -844 
Q 928 -128 1133 580 
Q 1338 1288 1338 2009 
Q 1338 2731 1133 3434 
Q 928 4138 513 4856 
z
" id="DejaVuSans-29" transform="scale(0.015625)"/>
      </defs>
      <use xlink:href="#DejaVuSans-6c"/>
      <use x="27.783203" xlink:href="#DejaVuSans-6f"/>
      <use x="88.964844" xlink:href="#DejaVuSans-67"/>
      <use x="152.441406" xlink:href="#DejaVuSans-31"/>
      <use x="216.064453" xlink:href="#DejaVuSans-30"/>
      <use x="279.6875" xlink:href="#DejaVuSans-28"/>
      <use x="318.701172" xlink:href="#DejaVuSans-23"/>
      <use x="402.490234" xlink:href="#DejaVuSans-20"/>
      <use x="434.277344" xlink:href="#DejaVuSans-66"/>
      <use x="463.982422" xlink:href="#DejaVuSans-2d"/>
      <use x="500.066406" xlink:href="#DejaVuSans-65"/>
      <use x="561.589844" xlink:href="#DejaVuSans-76"/>
      <use x="620.769531" xlink:href="#DejaVuSans-61"/>
      <use x="682.048828" xlink:href="#DejaVuSans-6c"/>
      <use x="709.832031" xlink:href="#DejaVuSans-73"/>
      <use x="761.931641" xlink:href="#DejaVuSans-20"/>
      <use x="793.71875" xlink:href="#DejaVuSans-2f"/>
      <use x="827.410156" xlink:href="#DejaVuSans-20"/>
      <use x="859.197266" xlink:href="#DejaVuSans-64"/>
      <use x="922.673828" xlink:href="#DejaVuSans-69"/>
      <use x="950.457031" xlink:href="#DejaVuSans-6d"/>
      <use x="1047.869141" xlink:href="#DejaVuSans-65"/>
      <use x="1109.392578" xlink:href="#DejaVuSans-6e"/>
      <use x="1172.771484" xlink:href="#DejaVuSans-73"/>
      <use x="1224.871094" xlink:href="#DejaVuSans-69"/>
      <use x="1252.654297" xlink:href="#DejaVuSans-6f"/>
      <use x="1313.835938" xlink:href="#DejaVuSans-6e"/>
      <use x="1377.214844" xlink:href="#DejaVuSans-29"/>
     </g>
    </g>
   </g>
   <g id="matplotlib.axis_2">
    <g id="ytick_1">
     <g id="line2d_21">
      <path clip-path="url(#p65eca3dcdc)" d="M 57.6 298.944 
L 360.8064 298.944 
" style="fill:none;stroke:#b0b0b0;stroke-linecap:square;stroke-width:0.8;"/>
     </g>
     <g id="line2d_22">
      <defs>
       <path d="M 0 0 
L -3.5 0 
" id="m17182bdda1" style="stroke:#000000;stroke-width:0.8;"/>
      </defs>
      <g>
       <use style="stroke:#000000;stroke-width:0.8;" x="57.6" xlink:href="#m17182bdda1" y="298.944"/>
      </g>
     </g>
     <g id="text_6">
      <!-- 0.0 -->
      <g transform="translate(25.155 305.02275)scale(0.16 -0.16)">
       <defs>
        <path d="M 684 794 
L 1344 794 
L 1344 0 
L 684 0 
L 684 794 
z
" id="DejaVuSans-2e" transform="scale(0.015625)"/>
       </defs>
       <use xlink:href="#DejaVuSans-30"/>
       <use x="63.623047" xlink:href="#DejaVuSans-2e"/>
       <use x="95.410156" xlink:href="#DejaVuSans-30"/>
      </g>
     </g>
    </g>
    <g id="ytick_2">
     <g id="line2d_23">
      <path clip-path="url(#p65eca3dcdc)" d="M 57.6 240.5376 
L 360.8064 240.5376 
" style="fill:none;stroke:#b0b0b0;stroke-linecap:square;stroke-width:0.8;"/>
     </g>
     <g id="line2d_24">
      <g>
       <use style="stroke:#000000;stroke-width:0.8;" x="57.6" xlink:href="#m17182bdda1" y="240.5376"/>
      </g>
     </g>
     <g id="text_7">
      <!-- 0.2 -->
      <g transform="translate(25.155 246.61635)scale(0.16 -0.16)">
       <use xlink:href="#DejaVuSans-30"/>
       <use x="63.623047" xlink:href="#DejaVuSans-2e"/>
       <use x="95.410156" xlink:href="#DejaVuSans-32"/>
      </g>
     </g>
    </g>
    <g id="ytick_3">
     <g id="line2d_25">
      <path clip-path="url(#p65eca3dcdc)" d="M 57.6 182.1312 
L 360.8064 182.1312 
" style="fill:none;stroke:#b0b0b0;stroke-linecap:square;stroke-width:0.8;"/>
     </g>
     <g id="line2d_26">
      <g>
       <use style="stroke:#000000;stroke-width:0.8;" x="57.6" xlink:href="#m17182bdda1" y="182.1312"/>
      </g>
     </g>
     <g id="text_8">
      <!-- 0.4 -->
      <g transform="translate(25.155 188.20995)scale(0.16 -0.16)">
       <use xlink:href="#DejaVuSans-30"/>
       <use x="63.623047" xlink:href="#DejaVuSans-2e"/>
       <use x="95.410156" xlink:href="#DejaVuSans-34"/>
      </g>
     </g>
    </g>
    <g id="ytick_4">
     <g id="line2d_27">
      <path clip-path="url(#p65eca3dcdc)" d="M 57.6 123.7248 
L 360.8064 123.7248 
" style="fill:none;stroke:#b0b0b0;stroke-linecap:square;stroke-width:0.8;"/>
     </g>
     <g id="line2d_28">
      <g>
       <use style="stroke:#000000;stroke-width:0.8;" x="57.6" xlink:href="#m17182bdda1" y="123.7248"/>
      </g>
     </g>
     <g id="text_9">
      <!-- 0.6 -->
      <g transform="translate(25.155 129.80355)scale(0.16 -0.16)">
       <use xlink:href="#DejaVuSans-30"/>
       <use x="63.623047" xlink:href="#DejaVuSans-2e"/>
       <use x="95.410156" xlink:href="#DejaVuSans-36"/>
      </g>
     </g>
    </g>
    <g id="ytick_5">
     <g id="line2d_29">
      <path clip-path="url(#p65eca3dcdc)" d="M 57.6 65.3184 
L 360.8064 65.3184 
" style="fill:none;stroke:#b0b0b0;stroke-linecap:square;stroke-width:0.8;"/>
     </g>
     <g id="line2d_30">
      <g>
       <use style="stroke:#000000;stroke-width:0.8;" x="57.6" xlink:href="#m17182bdda1" y="65.3184"/>
      </g>
     </g>
     <g id="text_10">
      <!-- 0.8 -->
      <g transform="translate(25.155 71.39715)scale(0.16 -0.16)">
       <defs>
        <path d="M 2034 2216 
Q 1584 2216 1326 1975 
Q 1069 1734 1069 1313 
Q 1069 891 1326 650 
Q 1584 409 2034 409 
Q 2484 409 2743 651 
Q 3003 894 3003 1313 
Q 3003 1734 2745 1975 
Q 2488 2216 2034 2216 
z
M 1403 2484 
Q 997 2584 770 2862 
Q 544 3141 544 3541 
Q 544 4100 942 4425 
Q 1341 4750 2034 4750 
Q 2731 4750 3128 4425 
Q 3525 4100 3525 3541 
Q 3525 3141 3298 2862 
Q 3072 2584 2669 2484 
Q 3125 2378 3379 2068 
Q 3634 1759 3634 1313 
Q 3634 634 3220 271 
Q 2806 -91 2034 -91 
Q 1263 -91 848 271 
Q 434 634 434 1313 
Q 434 1759 690 2068 
Q 947 2378 1403 2484 
z
M 1172 3481 
Q 1172 3119 1398 2916 
Q 1625 2713 2034 2713 
Q 2441 2713 2670 2916 
Q 2900 3119 2900 3481 
Q 2900 3844 2670 4047 
Q 2441 4250 2034 4250 
Q 1625 4250 1398 4047 
Q 1172 3844 1172 3481 
z
" id="DejaVuSans-38" transform="scale(0.015625)"/>
       </defs>
       <use xlink:href="#DejaVuSans-30"/>
       <use x="63.623047" xlink:href="#DejaVuSans-2e"/>
       <use x="95.410156" xlink:href="#DejaVuSans-38"/>
      </g>
     </g>
    </g>
    <g id="ytick_6">
     <g id="line2d_31">
      <path clip-path="url(#p65eca3dcdc)" d="M 57.6 6.912 
L 360.8064 6.912 
" style="fill:none;stroke:#b0b0b0;stroke-linecap:square;stroke-width:0.8;"/>
     </g>
     <g id="line2d_32">
      <g>
       <use style="stroke:#000000;stroke-width:0.8;" x="57.6" xlink:href="#m17182bdda1" y="6.912"/>
      </g>
     </g>
     <g id="text_11">
      <!-- 1.0 -->
      <g transform="translate(25.155 12.99075)scale(0.16 -0.16)">
       <use xlink:href="#DejaVuSans-31"/>
       <use x="63.623047" xlink:href="#DejaVuSans-2e"/>
       <use x="95.410156" xlink:href="#DejaVuSans-30"/>
      </g>
     </g>
    </g>
    <g id="text_12">
     <!-- Fraction of function,target pairs -->
     <g transform="translate(17.619531 287.313)rotate(-90)scale(0.17 -0.17)">
      <defs>
       <path d="M 628 4666 
L 3309 4666 
L 3309 4134 
L 1259 4134 
L 1259 2759 
L 3109 2759 
L 3109 2228 
L 1259 2228 
L 1259 0 
L 628 0 
L 628 4666 
z
" id="DejaVuSans-46" transform="scale(0.015625)"/>
       <path d="M 2631 2963 
Q 2534 3019 2420 3045 
Q 2306 3072 2169 3072 
Q 1681 3072 1420 2755 
Q 1159 2438 1159 1844 
L 1159 0 
L 581 0 
L 581 3500 
L 1159 3500 
L 1159 2956 
Q 1341 3275 1631 3429 
Q 1922 3584 2338 3584 
Q 2397 3584 2469 3576 
Q 2541 3569 2628 3553 
L 2631 2963 
z
" id="DejaVuSans-72" transform="scale(0.015625)"/>
       <path d="M 3122 3366 
L 3122 2828 
Q 2878 2963 2633 3030 
Q 2388 3097 2138 3097 
Q 1578 3097 1268 2742 
Q 959 2388 959 1747 
Q 959 1106 1268 751 
Q 1578 397 2138 397 
Q 2388 397 2633 464 
Q 2878 531 3122 666 
L 3122 134 
Q 2881 22 2623 -34 
Q 2366 -91 2075 -91 
Q 1284 -91 818 406 
Q 353 903 353 1747 
Q 353 2603 823 3093 
Q 1294 3584 2113 3584 
Q 2378 3584 2631 3529 
Q 2884 3475 3122 3366 
z
" id="DejaVuSans-63" transform="scale(0.015625)"/>
       <path d="M 1172 4494 
L 1172 3500 
L 2356 3500 
L 2356 3053 
L 1172 3053 
L 1172 1153 
Q 1172 725 1289 603 
Q 1406 481 1766 481 
L 2356 481 
L 2356 0 
L 1766 0 
Q 1100 0 847 248 
Q 594 497 594 1153 
L 594 3053 
L 172 3053 
L 172 3500 
L 594 3500 
L 594 4494 
L 1172 4494 
z
" id="DejaVuSans-74" transform="scale(0.015625)"/>
       <path d="M 544 1381 
L 544 3500 
L 1119 3500 
L 1119 1403 
Q 1119 906 1312 657 
Q 1506 409 1894 409 
Q 2359 409 2629 706 
Q 2900 1003 2900 1516 
L 2900 3500 
L 3475 3500 
L 3475 0 
L 2900 0 
L 2900 538 
Q 2691 219 2414 64 
Q 2138 -91 1772 -91 
Q 1169 -91 856 284 
Q 544 659 544 1381 
z
M 1991 3584 
L 1991 3584 
z
" id="DejaVuSans-75" transform="scale(0.015625)"/>
       <path d="M 750 794 
L 1409 794 
L 1409 256 
L 897 -744 
L 494 -744 
L 750 256 
L 750 794 
z
" id="DejaVuSans-2c" transform="scale(0.015625)"/>
       <path d="M 1159 525 
L 1159 -1331 
L 581 -1331 
L 581 3500 
L 1159 3500 
L 1159 2969 
Q 1341 3281 1617 3432 
Q 1894 3584 2278 3584 
Q 2916 3584 3314 3078 
Q 3713 2572 3713 1747 
Q 3713 922 3314 415 
Q 2916 -91 2278 -91 
Q 1894 -91 1617 61 
Q 1341 213 1159 525 
z
M 3116 1747 
Q 3116 2381 2855 2742 
Q 2594 3103 2138 3103 
Q 1681 3103 1420 2742 
Q 1159 2381 1159 1747 
Q 1159 1113 1420 752 
Q 1681 391 2138 391 
Q 2594 391 2855 752 
Q 3116 1113 3116 1747 
z
" id="DejaVuSans-70" transform="scale(0.015625)"/>
      </defs>
      <use xlink:href="#DejaVuSans-46"/>
      <use x="50.269531" xlink:href="#DejaVuSans-72"/>
      <use x="91.382812" xlink:href="#DejaVuSans-61"/>
      <use x="152.662109" xlink:href="#DejaVuSans-63"/>
      <use x="207.642578" xlink:href="#DejaVuSans-74"/>
      <use x="246.851562" xlink:href="#DejaVuSans-69"/>
      <use x="274.634766" xlink:href="#DejaVuSans-6f"/>
      <use x="335.816406" xlink:href="#DejaVuSans-6e"/>
      <use x="399.195312" xlink:href="#DejaVuSans-20"/>
      <use x="430.982422" xlink:href="#DejaVuSans-6f"/>
      <use x="492.164062" xlink:href="#DejaVuSans-66"/>
      <use x="527.369141" xlink:href="#DejaVuSans-20"/>
      <use x="559.15625" xlink:href="#DejaVuSans-66"/>
      <use x="594.361328" xlink:href="#DejaVuSans-75"/>
      <use x="657.740234" xlink:href="#DejaVuSans-6e"/>
      <use x="721.119141" xlink:href="#DejaVuSans-63"/>
      <use x="776.099609" xlink:href="#DejaVuSans-74"/>
      <use x="815.308594" xlink:href="#DejaVuSans-69"/>
      <use x="843.091797" xlink:href="#DejaVuSans-6f"/>
      <use x="904.273438" xlink:href="#DejaVuSans-6e"/>
      <use x="967.652344" xlink:href="#DejaVuSans-2c"/>
      <use x="999.439453" xlink:href="#DejaVuSans-74"/>
      <use x="1038.648438" xlink:href="#DejaVuSans-61"/>
      <use x="1099.927734" xlink:href="#DejaVuSans-72"/>
      <use x="1139.291016" xlink:href="#DejaVuSans-67"/>
      <use x="1202.767578" xlink:href="#DejaVuSans-65"/>
      <use x="1264.291016" xlink:href="#DejaVuSans-74"/>
      <use x="1303.5" xlink:href="#DejaVuSans-20"/>
      <use x="1335.287109" xlink:href="#DejaVuSans-70"/>
      <use x="1398.763672" xlink:href="#DejaVuSans-61"/>
      <use x="1460.042969" xlink:href="#DejaVuSans-69"/>
      <use x="1487.826172" xlink:href="#DejaVuSans-72"/>
      <use x="1528.939453" xlink:href="#DejaVuSans-73"/>
     </g>
    </g>
   </g>
   <g id="line2d_33">
    <defs>
     <path d="M 0 1.5 
C 0.397805 1.5 0.77937 1.341951 1.06066 1.06066 
C 1.341951 0.77937 1.5 0.397805 1.5 0 
C 1.5 -0.397805 1.341951 -0.77937 1.06066 -1.06066 
C 0.77937 -1.341951 0.397805 -1.5 0 -1.5 
C -0.397805 -1.5 -0.77937 -1.341951 -1.06066 -1.06066 
C -1.341951 -0.77937 -1.5 -0.397805 -1.5 0 
C -1.5 0.397805 -1.341951 0.77937 -1.06066 1.06066 
C -0.77937 1.341951 -0.397805 1.5 0 1.5 
z
" id="m6751a1572f" style="stroke:#f5deb3;"/>
    </defs>
    <g>
     <use style="fill:#f5deb3;stroke:#f5deb3;" x="174.324962" xlink:href="#m6751a1572f" y="6.912"/>
     <use style="fill:#f5deb3;stroke:#f5deb3;" x="174.324962" xlink:href="#m6751a1572f" y="6.912"/>
    </g>
   </g>
   <g id="line2d_34">
    <defs>
     <path d="M 0 1.5 
C 0.397805 1.5 0.77937 1.341951 1.06066 1.06066 
C 1.341951 0.77937 1.5 0.397805 1.5 0 
C 1.5 -0.397805 1.341951 -0.77937 1.06066 -1.06066 
C 0.77937 -1.341951 0.397805 -1.5 0 -1.5 
C -0.397805 -1.5 -0.77937 -1.341951 -1.06066 -1.06066 
C -1.341951 -0.77937 -1.5 -0.397805 -1.5 0 
C -1.5 0.397805 -1.341951 0.77937 -1.06066 1.06066 
C -0.77937 1.341951 -0.397805 1.5 0 1.5 
z
" id="mb4f9c74d6e" style="stroke:#000080;"/>
    </defs>
    <g>
     <use style="fill:#000080;stroke:#000080;" x="311.872714" xlink:href="#mb4f9c74d6e" y="183.276424"/>
     <use style="fill:#000080;stroke:#000080;" x="311.872714" xlink:href="#mb4f9c74d6e" y="183.276424"/>
    </g>
   </g>
   <g id="line2d_35">
    <path d="M 27.323974 298.944 
L 27.323974 296.882598 
L 40.363149 296.882598 
L 40.363149 294.973892 
L 47.990577 294.973892 
L 47.990577 294.057713 
L 53.402323 294.057713 
L 53.402323 293.370579 
L 57.6 293.370579 
L 57.6 293.141534 
L 61.029752 293.141534 
L 61.029752 292.912489 
L 68.65718 292.836141 
L 68.65718 292.683445 
L 72.432107 292.607096 
L 72.432107 292.530748 
L 75.574654 292.4544 
L 75.574654 292.378052 
L 76.96874 292.378052 
L 76.96874 292.225355 
L 79.480672 292.225355 
L 79.480672 291.919962 
L 83.678349 291.919962 
L 83.678349 291.767266 
L 84.596168 291.767266 
L 84.596168 291.538221 
L 86.307488 291.538221 
L 86.307488 291.080132 
L 98.077987 291.003784 
L 98.077987 290.927435 
L 104.028784 290.927435 
L 104.028784 290.698391 
L 104.655893 290.698391 
L 104.655893 290.469346 
L 108.034177 290.392998 
L 108.034177 290.240301 
L 109.990385 290.163953 
L 109.990385 290.087605 
L 112.589207 290.011256 
L 112.589207 289.782212 
L 117.226706 289.705864 
L 117.226706 289.476819 
L 119.319033 289.476819 
L 119.319033 289.324122 
L 120.944062 289.324122 
L 120.944062 289.171426 
L 123.145323 289.095078 
L 123.145323 289.018729 
L 123.825333 289.018729 
L 123.825333 288.866033 
L 125.115773 288.789685 
L 125.115773 288.713336 
L 125.929373 288.636988 
L 125.929373 288.56064 
L 127.821575 288.484292 
L 127.821575 288.407944 
L 129.041269 288.331595 
L 129.041269 288.102551 
L 130.501519 288.026202 
L 130.501519 287.949854 
L 133.656071 287.873506 
L 133.656071 287.797158 
L 136.92008 287.720809 
L 136.92008 287.644461 
L 138.616919 287.568113 
L 138.616919 287.491765 
L 140.173284 287.415416 
L 140.26641 287.26272 
L 141.782854 287.186372 
L 141.782854 287.033675 
L 142.702713 286.957327 
L 142.702713 286.880979 
L 143.18612 286.804631 
L 143.18612 286.728282 
L 143.344534 286.728282 
L 143.344534 286.499238 
L 143.888708 286.499238 
L 143.888708 286.346541 
L 145.361989 286.346541 
L 145.361989 286.193845 
L 147.439393 286.117496 
L 147.439393 286.041148 
L 147.753975 285.9648 
L 147.753975 285.812104 
L 148.548087 285.735755 
L 148.548087 285.583059 
L 149.078856 285.506711 
L 149.078856 285.430362 
L 149.31003 285.354014 
L 149.31003 285.201318 
L 149.707872 285.124969 
L 149.707872 284.972273 
L 149.875833 284.895925 
L 149.875833 284.819576 
L 150.042308 284.819576 
L 150.042308 284.66688 
L 150.958812 284.590532 
L 150.958812 284.514184 
L 151.528902 284.514184 
L 151.528902 284.361487 
L 152.377312 284.285139 
L 152.377312 284.208791 
L 152.763699 284.132442 
L 152.763699 283.903398 
L 152.906572 283.903398 
L 152.906572 283.750701 
L 153.922412 283.674353 
L 154.012098 282.987219 
L 154.454223 282.987219 
L 154.497869 282.758174 
L 155.098517 282.681826 
L 155.098517 282.605478 
L 155.474761 282.529129 
L 155.474761 282.452781 
L 155.639595 282.376433 
L 155.639595 282.300085 
L 155.843627 282.300085 
L 155.924624 281.918344 
L 155.964992 281.918344 
L 155.964992 281.612951 
L 156.165543 281.536602 
L 156.165543 281.460254 
L 156.442771 281.460254 
L 156.442771 281.307558 
L 157.175281 281.231209 
L 157.213055 281.002165 
L 157.475372 280.925816 
L 157.475372 280.620424 
L 157.916719 280.544075 
L 157.953034 280.085986 
L 158.418868 280.085986 
L 158.52475 279.856941 
L 158.699905 279.780593 
L 158.699905 279.704245 
L 158.942415 279.627896 
L 158.942415 279.322504 
L 159.181837 279.246155 
L 159.283522 279.017111 
L 159.816746 278.940762 
L 159.816746 278.864414 
L 160.012872 278.788066 
L 160.045361 278.559021 
L 160.335271 278.482673 
L 160.335271 278.100932 
L 160.714996 278.024584 
L 160.808741 277.871887 
L 160.963953 277.795539 
L 161.056469 277.642842 
L 161.148532 277.566494 
L 161.148532 277.490146 
L 161.422049 277.413798 
L 161.422049 277.261101 
L 161.721364 277.261101 
L 161.751035 276.87936 
L 162.132562 276.87936 
L 162.219518 276.650315 
L 162.478002 276.650315 
L 162.506504 276.344922 
L 162.620084 276.344922 
L 162.676617 276.039529 
L 163.067666 275.963181 
L 163.067666 275.886833 
L 163.879217 275.810485 
L 163.879217 275.734136 
L 164.011136 275.734136 
L 164.063646 275.352395 
L 164.758543 275.276047 
L 164.758543 275.123351 
L 164.909539 275.123351 
L 164.909539 274.970654 
L 165.232599 274.894306 
L 165.330896 274.359868 
L 165.404283 274.28352 
L 165.428682 274.130824 
L 165.64686 274.054475 
L 165.64686 273.978127 
L 165.838694 273.901779 
L 165.838694 273.825431 
L 166.169767 273.749082 
L 166.263299 273.596386 
L 166.356368 273.520038 
L 166.379563 273.367341 
L 166.724107 273.290993 
L 166.792265 273.061948 
L 166.905315 272.9856 
L 166.972821 272.832904 
L 167.218289 272.832904 
L 167.218289 272.680207 
L 167.504319 272.603859 
L 167.613182 271.993073 
L 167.999955 271.916725 
L 168.021211 271.764028 
L 168.211442 271.68768 
L 168.211442 271.611332 
L 168.420577 271.534984 
L 168.420577 271.458635 
L 168.586228 271.458635 
L 168.689024 271.000546 
L 168.832 270.924198 
L 168.832 270.847849 
L 169.134768 270.771501 
L 169.134768 270.695153 
L 169.274409 270.695153 
L 169.274409 270.38976 
L 169.842126 270.313412 
L 169.899889 270.160715 
L 170.223906 270.084367 
L 170.28051 269.778974 
L 170.374474 269.702626 
L 170.374474 269.626278 
L 170.782429 269.549929 
L 170.782429 269.473581 
L 171.037505 269.397233 
L 171.055593 269.244536 
L 171.360458 269.168188 
L 171.413749 268.862795 
L 171.71291 268.786447 
L 171.71291 268.557402 
L 172.127316 268.481054 
L 172.161441 268.252009 
L 172.79833 268.175661 
L 172.83126 267.946616 
L 172.995054 267.946616 
L 173.060174 267.717572 
L 173.254192 267.641224 
L 173.254192 267.564875 
L 173.762 267.488527 
L 173.762 267.335831 
L 174.118701 267.259482 
L 174.118701 267.030438 
L 174.513949 266.954089 
L 174.513949 266.877741 
L 174.79762 266.801393 
L 174.79762 266.725045 
L 175.003938 266.648696 
L 175.003938 266.572348 
L 175.524306 266.496 
L 175.581246 266.266955 
L 175.919314 266.190607 
L 175.919314 266.114259 
L 176.347181 266.037911 
L 176.347181 265.961562 
L 176.496696 265.961562 
L 176.496696 265.808866 
L 176.738821 265.732518 
L 176.778874 265.503473 
L 176.885267 265.503473 
L 176.97787 265.19808 
L 177.096265 265.19808 
L 177.096265 265.045384 
L 177.816658 264.969035 
L 177.892232 264.587294 
L 177.98002 264.587294 
L 178.067399 264.358249 
L 178.351679 264.281901 
L 178.412915 263.976508 
L 178.498311 263.90016 
L 178.498311 263.823812 
L 178.667949 263.747464 
L 178.667949 263.671115 
L 178.895753 263.594767 
L 178.907666 263.442071 
L 179.540047 263.365722 
L 179.631951 263.213026 
L 179.780344 263.213026 
L 179.780344 263.060329 
L 179.983897 262.983981 
L 180.051262 262.754936 
L 180.218626 262.678588 
L 180.240829 262.449544 
L 180.69031 262.373195 
L 180.711964 262.220499 
L 181.086922 262.144151 
L 181.086922 262.067802 
L 181.350246 261.991454 
L 181.392038 261.762409 
L 181.537582 261.762409 
L 181.537582 261.533365 
L 181.712814 261.457016 
L 181.723072 260.998927 
L 181.987812 260.998927 
L 181.987812 260.769882 
L 182.397862 260.693534 
L 182.407753 260.464489 
L 182.808846 260.388141 
L 182.808846 260.311793 
L 183.058837 260.311793 
L 183.15411 259.853704 
L 183.34322 259.853704 
L 183.446426 259.548311 
L 183.549068 259.548311 
L 183.614096 259.166569 
L 183.871982 259.090221 
L 183.908536 258.937525 
L 184.117353 258.861176 
L 184.117353 258.784828 
L 184.323878 258.70848 
L 184.430737 258.403087 
L 184.860885 258.326739 
L 184.860885 258.097694 
L 185.187826 258.021346 
L 185.196353 257.868649 
L 185.948414 257.792301 
L 185.948414 257.715953 
L 186.143988 257.639605 
L 186.143988 257.563256 
L 186.38563 257.486908 
L 186.38563 257.41056 
L 186.537079 257.41056 
L 186.600485 257.181515 
L 186.68732 257.181515 
L 186.789428 256.876122 
L 187.345133 256.799774 
L 187.405877 256.647078 
L 187.571918 256.570729 
L 187.571918 256.494381 
L 188.002764 256.418033 
L 188.054101 256.188988 
L 188.294252 256.188988 
L 188.294252 255.959944 
L 188.41678 255.959944 
L 188.481326 255.578202 
L 189.273435 255.501854 
L 189.273435 255.425506 
L 189.410222 255.349158 
L 189.410222 255.272809 
L 189.579818 255.196461 
L 189.667408 254.967416 
L 190.125601 254.891068 
L 190.20416 254.585675 
L 190.751421 254.509327 
L 190.751421 254.432979 
L 191.153218 254.356631 
L 191.227609 254.051238 
L 191.363232 254.051238 
L 191.363232 253.898541 
L 191.583074 253.822193 
L 191.583074 253.745845 
L 191.794375 253.669496 
L 191.824367 253.440452 
L 191.973619 253.440452 
L 191.973619 253.287755 
L 192.530214 253.211407 
L 192.530214 253.135059 
L 192.754027 253.058711 
L 192.822361 252.829666 
L 192.93005 252.829666 
L 192.963929 252.600621 
L 193.332631 252.524273 
L 193.332631 252.447925 
L 193.753843 252.371576 
L 193.753843 252.21888 
L 193.947584 252.142532 
L 193.947584 252.066184 
L 194.287162 251.989835 
L 194.397263 251.684442 
L 194.41294 251.608094 
L 194.428603 251.455398 
L 194.651688 251.379049 
L 194.759682 251.150005 
L 195.110218 251.073656 
L 195.13034 250.92096 
L 195.733945 250.844612 
L 195.816537 250.615567 
L 196.052588 250.539219 
L 196.109947 250.157478 
L 196.483261 250.081129 
L 196.534659 249.699388 
L 196.613816 249.699388 
L 196.623107 249.470344 
L 197.226371 249.470344 
L 197.226371 249.317647 
L 197.481008 249.241299 
L 197.543027 249.012254 
L 197.932577 248.935906 
L 197.932577 248.706861 
L 198.441144 248.630513 
L 198.441144 248.554165 
L 198.609049 248.477816 
L 198.700762 248.32512 
L 198.742302 248.32512 
L 198.775469 248.019727 
L 198.956846 248.019727 
L 199.059127 247.790682 
L 199.209491 247.714334 
L 199.209491 247.561638 
L 199.594108 247.485289 
L 199.594108 247.332593 
L 199.771726 247.332593 
L 199.771726 247.179896 
L 200.079544 247.103548 
L 200.168223 246.721807 
L 200.473458 246.645459 
L 200.473458 246.492762 
L 200.672982 246.492762 
L 200.672982 246.340066 
L 200.885228 246.263718 
L 200.944378 246.034673 
L 201.058455 246.034673 
L 201.1463 245.805628 
L 201.288178 245.72928 
L 201.382173 245.576584 
L 201.504385 245.500235 
L 201.55805 245.271191 
L 201.679128 245.194842 
L 201.679128 245.118494 
L 201.974963 245.042146 
L 201.974963 244.965798 
L 202.28685 244.889449 
L 202.28685 244.813101 
L 202.515721 244.736753 
L 202.515721 244.660405 
L 202.772008 244.584056 
L 202.778706 244.355012 
L 203.001705 244.278664 
L 203.038065 244.049619 
L 203.244968 243.973271 
L 203.280862 243.667878 
L 203.527001 243.591529 
L 203.527001 243.515181 
L 203.757251 243.438833 
L 203.757251 243.362485 
L 203.975294 243.286136 
L 204.075564 242.904395 
L 204.274515 242.828047 
L 204.274515 242.675351 
L 204.629836 242.599002 
L 204.629836 242.446306 
L 204.906947 242.369958 
L 204.909937 242.140913 
L 205.268235 242.064565 
L 205.329729 241.911868 
L 205.42596 241.83552 
L 205.524594 241.682824 
L 205.711732 241.606475 
L 205.79748 241.377431 
L 205.950847 241.301082 
L 205.950847 241.224734 
L 206.273355 241.148386 
L 206.334427 240.919341 
L 206.617747 240.842993 
L 206.685876 240.232207 
L 206.761887 240.232207 
L 206.872639 239.926814 
L 206.998802 239.850466 
L 206.998802 239.774118 
L 207.288175 239.697769 
L 207.288175 239.621421 
L 207.630165 239.545073 
L 207.630165 239.468725 
L 207.999056 239.392376 
L 208.082584 239.086984 
L 208.425441 239.010635 
L 208.425441 238.934287 
L 208.929494 238.857939 
L 209.009 238.705242 
L 209.085777 238.705242 
L 209.193217 238.094456 
L 209.962904 238.018108 
L 209.972043 237.865412 
L 210.221642 237.789064 
L 210.221642 237.407322 
L 210.556754 237.330974 
L 210.556754 237.254626 
L 210.781267 237.178278 
L 210.80532 236.949233 
L 211.039857 236.872885 
L 211.070046 236.720188 
L 211.328974 236.64384 
L 211.392624 236.338447 
L 211.512967 236.262099 
L 211.607435 235.880358 
L 211.747213 235.880358 
L 211.846718 235.269572 
L 211.968309 235.193224 
L 212.003198 235.040527 
L 212.32239 234.964179 
L 212.380761 234.735134 
L 212.47098 234.658786 
L 212.50495 234.506089 
L 212.634274 234.429741 
L 212.634274 234.277045 
L 212.800094 234.277045 
L 212.800094 233.895304 
L 213.034472 233.818955 
L 213.111954 233.437214 
L 213.216051 233.360866 
L 213.313838 233.055473 
L 213.611717 232.979125 
L 213.686862 232.673732 
L 213.98263 232.597384 
L 214.080195 232.215642 
L 214.120545 232.215642 
L 214.190038 231.910249 
L 214.31013 231.833901 
L 214.34637 231.375812 
L 214.551619 231.375812 
L 214.635591 230.765026 
L 214.934474 230.688678 
L 214.973035 230.535981 
L 215.201025 230.459633 
L 215.201025 230.383285 
L 215.335474 230.383285 
L 215.335474 230.230588 
L 215.699486 230.15424 
L 215.726421 229.619802 
L 216.018532 229.543454 
L 216.117649 229.085365 
L 216.29149 229.009016 
L 216.351794 228.627275 
L 216.492832 228.550927 
L 216.494447 228.398231 
L 216.727167 228.321882 
L 216.739924 228.169186 
L 216.849589 228.169186 
L 216.893909 227.940141 
L 217.090504 227.863793 
L 217.188814 227.634748 
L 217.374662 227.5584 
L 217.485296 227.253007 
L 217.662182 227.176659 
L 217.762087 226.947614 
L 217.817863 226.947614 
L 217.831405 226.642221 
L 218.14909 226.565873 
L 218.246448 226.107784 
L 218.284664 226.031435 
L 218.284664 225.955087 
L 218.430927 225.878739 
L 218.490568 225.726042 
L 218.544228 225.726042 
L 218.617942 225.267953 
L 218.724389 225.191605 
L 218.798831 224.886212 
L 219.009105 224.809864 
L 219.114773 224.351774 
L 219.180689 224.275426 
L 219.225437 224.046381 
L 219.389531 224.046381 
L 219.466908 223.588292 
L 219.701233 223.511944 
L 219.786833 223.206551 
L 219.862596 223.130202 
L 219.955529 222.901158 
L 220.158647 222.824809 
L 220.158647 222.748461 
L 220.423919 222.748461 
L 220.506299 222.519416 
L 220.590919 222.443068 
L 220.681624 222.214024 
L 220.752587 222.137675 
L 220.753874 221.984979 
L 220.976613 221.908631 
L 221.083205 221.679586 
L 221.143844 221.603238 
L 221.146367 221.450541 
L 221.376994 221.374193 
L 221.396916 220.992452 
L 221.696909 220.916104 
L 221.710377 220.763407 
L 221.928184 220.687059 
L 221.999427 220.381666 
L 222.092 220.381666 
L 222.129141 220.076273 
L 222.362289 219.999925 
L 222.438974 219.694532 
L 222.578563 219.618184 
L 222.650882 219.465487 
L 222.867335 219.389139 
L 222.969485 218.702005 
L 222.999222 218.702005 
L 223.01864 218.320264 
L 223.218505 218.243915 
L 223.29741 217.785826 
L 223.49769 217.709478 
L 223.57211 217.480433 
L 223.800191 217.404085 
L 223.800191 217.327736 
L 223.94203 217.251388 
L 224.051494 216.793299 
L 224.250361 216.716951 
L 224.300551 216.564254 
L 224.472527 216.487906 
L 224.524236 216.335209 
L 224.800412 216.258861 
L 224.909138 215.87712 
L 224.923587 215.87712 
L 225.019291 215.342682 
L 225.178743 215.266334 
L 225.26911 215.037289 
L 225.410388 214.960941 
L 225.410388 214.884593 
L 225.564577 214.808245 
L 225.661052 214.273807 
L 225.688809 214.273807 
L 225.764929 213.204932 
L 226.00023 213.128584 
L 226.07025 212.823191 
L 226.156444 212.746842 
L 226.156444 212.594146 
L 226.409821 212.517798 
L 226.409821 212.441449 
L 226.61745 212.365101 
L 226.646656 211.98336 
L 229.99346 211.907012 
L 229.99346 211.830664 
L 231.437656 211.754315 
L 231.437656 211.601619 
L 231.815489 211.601619 
L 231.815489 211.448922 
L 232.503669 211.372574 
L 232.503669 211.296226 
L 233.203469 211.219878 
L 233.230025 210.914485 
L 233.972789 210.838136 
L 233.972789 210.761788 
L 234.127756 210.68544 
L 234.127756 210.532744 
L 234.535073 210.456395 
L 234.535073 210.380047 
L 235.250425 210.303699 
L 235.250425 210.227351 
L 236.030681 210.151002 
L 236.030681 209.921958 
L 236.183829 209.921958 
L 236.214423 209.692913 
L 236.30985 209.692913 
L 236.336303 209.311172 
L 236.499822 209.234824 
L 236.563834 209.005779 
L 237.12387 208.929431 
L 237.12387 208.853082 
L 237.250198 208.776734 
L 237.250198 208.700386 
L 237.488703 208.624038 
L 237.560512 208.394993 
L 237.808146 208.394993 
L 237.914985 208.0896 
L 237.964567 208.0896 
L 238.063854 207.784207 
L 238.095126 207.784207 
L 238.095126 207.478814 
L 238.446797 207.402466 
L 238.446797 207.249769 
L 238.839341 207.173421 
L 238.86591 207.020725 
L 239.091215 207.020725 
L 239.171204 206.715332 
L 239.246037 206.715332 
L 239.263375 206.180894 
L 239.412973 206.104546 
L 239.455429 205.570108 
L 239.684183 205.49376 
L 239.69877 205.264715 
L 242.244745 205.264715 
L 242.244745 205.035671 
L 243.101259 204.959322 
L 243.101259 204.882974 
L 243.516667 204.806626 
L 243.516667 204.653929 
L 243.708062 204.653929 
L 243.745653 204.424885 
L 244.046695 204.424885 
L 244.046695 204.272188 
L 244.787132 204.19584 
L 244.787132 204.119492 
L 244.926941 204.119492 
L 244.93086 203.890447 
L 245.114456 203.814099 
L 245.210149 203.279661 
L 245.607377 203.203313 
L 245.666039 203.050616 
L 245.932673 203.050616 
L 246.031023 202.668875 
L 246.155912 202.592527 
L 246.259079 202.287134 
L 246.50538 202.210786 
L 246.50538 202.134438 
L 246.804034 202.058089 
L 246.854263 201.905393 
L 246.980529 201.905393 
L 247.037933 201.370955 
L 247.140505 201.294607 
L 247.206263 200.989214 
L 249.065138 200.912866 
L 249.065138 200.760169 
L 249.776824 200.683821 
L 249.776824 200.454776 
L 250.095366 200.454776 
L 250.170998 200.225732 
L 250.971347 200.149384 
L 250.971347 200.073035 
L 251.177152 199.996687 
L 251.177152 199.767642 
L 251.870512 199.691294 
L 251.901765 199.538598 
L 252.02235 199.538598 
L 252.02235 199.385901 
L 252.332733 199.309553 
L 252.388402 199.00416 
L 252.509727 198.927812 
L 252.523529 198.775115 
L 254.220012 198.698767 
L 254.220012 198.622419 
L 255.420947 198.546071 
L 255.420947 198.469722 
L 255.962655 198.393374 
L 255.962655 198.240678 
L 256.272358 198.164329 
L 256.272358 198.087981 
L 256.625691 198.011633 
L 256.625691 197.935285 
L 256.763668 197.858936 
L 256.868945 197.629892 
L 258.543278 197.553544 
L 258.650244 197.400847 
L 259.11407 197.400847 
L 259.11407 197.171802 
L 259.343916 197.095454 
L 259.343916 197.019106 
L 259.735619 196.942758 
L 259.846029 196.561016 
L 260.199858 196.484668 
L 260.293267 196.102927 
L 261.484466 196.026579 
L 261.577311 195.873882 
L 261.936965 195.797534 
L 261.936965 195.721186 
L 262.199632 195.721186 
L 262.199632 195.568489 
L 262.395027 195.568489 
L 262.395027 195.186748 
L 262.780108 195.1104 
L 262.795272 194.957704 
L 263.021812 194.881355 
L 263.048069 194.652311 
L 263.146243 194.575962 
L 263.240812 194.346918 
L 264.509114 194.270569 
L 264.509114 194.194221 
L 264.621864 194.194221 
L 264.621864 194.041525 
L 264.849929 194.041525 
L 264.935099 193.736132 
L 265.01964 193.736132 
L 265.01964 193.583435 
L 265.429314 193.507087 
L 265.429314 193.430739 
L 265.582141 193.354391 
L 265.677666 193.048998 
L 265.740335 192.972649 
L 265.740335 192.896301 
L 266.871506 192.819953 
L 266.902546 192.590908 
L 267.633073 192.51456 
L 267.731901 192.285515 
L 267.806686 192.285515 
L 267.898936 191.751078 
L 267.99962 191.674729 
L 267.99962 191.598381 
L 268.853884 191.522033 
L 268.853884 191.445685 
L 269.239426 191.369336 
L 269.239426 191.292988 
L 269.501236 191.21664 
L 269.501236 191.140292 
L 269.826989 191.063944 
L 269.936751 190.758551 
L 270.857808 190.682202 
L 270.882925 190.529506 
L 271.40739 190.453158 
L 271.464839 190.300461 
L 271.693326 190.224113 
L 271.734323 189.91872 
L 273.137327 189.842372 
L 273.137327 189.766024 
L 274.05715 189.689675 
L 274.05715 189.613327 
L 274.452853 189.613327 
L 274.452853 189.460631 
L 274.841057 189.384282 
L 274.892628 189.002541 
L 275.785846 188.926193 
L 275.785846 188.849845 
L 276.189576 188.849845 
L 276.189576 188.697148 
L 276.942858 188.6208 
L 276.961036 188.391755 
L 277.54398 188.315407 
L 277.54398 188.239059 
L 278.612669 188.162711 
L 278.649721 187.933666 
L 279.393695 187.857318 
L 279.393695 187.780969 
L 279.875283 187.704621 
L 279.939699 187.475576 
L 280.706391 187.399228 
L 280.706391 187.32288 
L 281.011948 187.246532 
L 281.016604 187.093835 
L 281.977567 187.017487 
L 282.041078 186.788442 
L 283.823301 186.712094 
L 283.925796 186.483049 
L 284.792872 186.406701 
L 284.792872 186.330353 
L 285.586323 186.254005 
L 285.633894 186.101308 
L 286.050502 186.02496 
L 286.050502 185.948612 
L 286.203339 185.872264 
L 286.31256 185.643219 
L 287.208683 185.566871 
L 287.208683 185.490522 
L 287.678084 185.414174 
L 287.728674 185.261478 
L 287.893718 185.185129 
L 287.921351 185.032433 
L 289.13955 184.956085 
L 289.13955 184.879736 
L 289.999026 184.803388 
L 289.999026 184.72704 
L 292.429292 184.650692 
L 292.429292 184.574344 
L 294.33705 184.497995 
L 294.33705 184.421647 
L 296.752883 184.345299 
L 296.752883 184.268951 
L 298.686578 184.192602 
L 298.686578 184.116254 
L 300.253568 184.039906 
L 300.253568 183.963558 
L 301.575162 183.887209 
L 301.678481 183.734513 
L 302.888763 183.734513 
L 302.888763 183.581816 
L 304.60324 183.505468 
L 304.60324 183.42912 
L 311.872714 183.352772 
L 311.872714 183.276424 
L 360.8064 183.276424 
L 360.8064 183.276424 
" style="fill:none;stroke:#000080;stroke-linecap:square;stroke-width:1.5;"/>
   </g>
   <g id="line2d_36">
    <defs>
     <path d="M 0 6 
C 1.591219 6 3.117479 5.367802 4.242641 4.242641 
C 5.367802 3.117479 6 1.591219 6 0 
C 6 -1.591219 5.367802 -3.117479 4.242641 -4.242641 
C 3.117479 -5.367802 1.591219 -6 0 -6 
C -1.591219 -6 -3.117479 -5.367802 -4.242641 -4.242641 
C -5.367802 -3.117479 -6 -1.591219 -6 0 
C -6 1.591219 -5.367802 3.117479 -4.242641 4.242641 
C -3.117479 5.367802 -1.591219 6 0 6 
z
" id="mb26a3aad07" style="stroke:#000080;stroke-width:1.5;"/>
    </defs>
    <g>
     <use style="fill-opacity:0;stroke:#000080;stroke-width:1.5;" x="136.92008" xlink:href="#mb26a3aad07" y="287.720809"/>
     <use style="fill-opacity:0;stroke:#000080;stroke-width:1.5;" x="195.464223" xlink:href="#mb26a3aad07" y="250.92096"/>
     <use style="fill-opacity:0;stroke:#000080;stroke-width:1.5;" x="268.750353" xlink:href="#mb26a3aad07" y="191.598381"/>
     <use style="fill-opacity:0;stroke:#000080;stroke-width:1.5;" x="311.872714" xlink:href="#mb26a3aad07" y="183.352772"/>
     <use style="fill-opacity:0;stroke:#000080;stroke-width:1.5;" x="311.872714" xlink:href="#mb26a3aad07" y="183.276424"/>
     <use style="fill-opacity:0;stroke:#000080;stroke-width:1.5;" x="360.8064" xlink:href="#mb26a3aad07" y="183.276424"/>
    </g>
   </g>
   <g id="line2d_37">
    <path style="fill:none;stroke:#000080;stroke-linecap:square;stroke-width:1.5;"/>
    <g/>
   </g>
   <g id="line2d_38">
    <path clip-path="url(#p65eca3dcdc)" d="M 226.672527 211.98336 
" style="fill:none;stroke:#000080;stroke-linecap:square;stroke-width:1.5;"/>
    <defs>
     <path d="M -12 12 
L 12 -12 
M -12 -12 
L 12 12 
" id="m7f2d164c44" style="stroke:#000080;"/>
    </defs>
    <g clip-path="url(#p65eca3dcdc)">
     <use style="fill:#000080;stroke:#000080;" x="226.672527" xlink:href="#m7f2d164c44" y="211.98336"/>
    </g>
   </g>
   <g id="line2d_39">
    <defs>
     <path d="M 0 1.5 
C 0.397805 1.5 0.77937 1.341951 1.06066 1.06066 
C 1.341951 0.77937 1.5 0.397805 1.5 0 
C 1.5 -0.397805 1.341951 -0.77937 1.06066 -1.06066 
C 0.77937 -1.341951 0.397805 -1.5 0 -1.5 
C -0.397805 -1.5 -0.77937 -1.341951 -1.06066 -1.06066 
C -1.341951 -0.77937 -1.5 -0.397805 -1.5 0 
C -1.5 0.397805 -1.341951 0.77937 -1.06066 1.06066 
C -0.77937 1.341951 -0.397805 1.5 0 1.5 
z
" id="mce51a95321" style="stroke:#ff00ff;"/>
    </defs>
    <g>
     <use style="fill:#ff00ff;stroke:#ff00ff;" x="211.181758" xlink:href="#mce51a95321" y="6.912"/>
     <use style="fill:#ff00ff;stroke:#ff00ff;" x="211.181758" xlink:href="#mce51a95321" y="6.912"/>
    </g>
   </g>
   <g id="line2d_40">
    <path d="M 27.323974 298.944 
L 27.323974 294.592151 
L 40.363149 294.592151 
L 40.363149 294.057713 
L 47.990577 294.057713 
L 47.990577 293.523275 
L 53.402323 293.523275 
L 53.402323 293.141534 
L 57.6 293.141534 
L 57.6 292.836141 
L 61.029752 292.836141 
L 61.029752 292.378052 
L 63.929565 292.378052 
L 63.929565 291.843614 
L 68.65718 291.767266 
L 68.65718 291.309176 
L 72.432107 291.309176 
L 72.432107 291.080132 
L 74.068926 291.080132 
L 74.068926 290.927435 
L 78.266603 290.851087 
L 78.266603 290.698391 
L 87.1081 290.622042 
L 87.1081 290.545694 
L 89.323782 290.545694 
L 89.323782 290.392998 
L 91.305777 290.316649 
L 91.305777 290.087605 
L 92.519847 290.011256 
L 92.519847 289.934908 
L 94.735529 289.85856 
L 94.735529 289.629515 
L 100.535156 289.553167 
L 100.535156 289.324122 
L 101.653002 289.247774 
L 101.653002 289.171426 
L 102.708132 289.095078 
L 102.708132 288.942381 
L 106.137884 288.866033 
L 106.137884 288.713336 
L 108.034177 288.636988 
L 108.034177 288.56064 
L 109.990385 288.484292 
L 109.990385 288.331595 
L 111.97238 288.331595 
L 111.97238 288.178899 
L 113.765312 288.102551 
L 113.765312 288.026202 
L 114.326893 287.949854 
L 114.326893 287.873506 
L 115.227139 287.797158 
L 115.227139 287.720809 
L 115.917548 287.644461 
L 115.917548 287.568113 
L 116.419219 287.491765 
L 116.419219 287.415416 
L 117.540239 287.339068 
L 117.540239 287.26272 
L 117.695068 287.26272 
L 117.695068 287.110024 
L 118.301945 287.033675 
L 118.301945 286.880979 
L 118.74459 286.804631 
L 118.74459 286.728282 
L 119.459944 286.651934 
L 119.459944 286.575586 
L 119.738639 286.499238 
L 119.738639 286.270193 
L 122.19863 286.193845 
L 122.19863 286.117496 
L 122.319605 286.117496 
L 122.319605 285.9648 
L 122.439807 285.9648 
L 122.439807 285.735755 
L 122.677931 285.659407 
L 122.677931 285.430362 
L 123.029559 285.430362 
L 123.029559 285.124969 
L 124.156336 285.048621 
L 124.156336 284.972273 
L 125.526971 284.895925 
L 125.526971 284.819576 
L 126.323346 284.819576 
L 126.323346 284.590532 
L 126.993549 284.514184 
L 127.087372 284.208791 
L 127.549596 284.132442 
L 127.549596 283.903398 
L 127.821575 283.903398 
L 127.821575 283.750701 
L 128.266313 283.750701 
L 128.266313 283.598005 
L 129.041269 283.521656 
L 129.125437 283.292612 
L 129.292652 283.292612 
L 129.292652 283.063567 
L 129.458394 283.063567 
L 129.458394 282.910871 
L 129.947033 282.834522 
L 129.947033 282.758174 
L 130.811181 282.758174 
L 130.811181 282.605478 
L 131.115828 282.529129 
L 131.191226 282.07104 
L 131.63737 281.994692 
L 131.63737 281.841995 
L 131.856536 281.841995 
L 131.856536 281.689299 
L 132.428795 281.612951 
L 132.499119 281.460254 
L 132.638982 281.460254 
L 132.638982 281.307558 
L 133.72196 281.231209 
L 133.78762 281.002165 
L 133.853052 281.002165 
L 133.853052 280.77312 
L 134.368469 280.696772 
L 134.368469 280.620424 
L 134.558167 280.620424 
L 134.558167 280.391379 
L 135.35878 280.315031 
L 135.35878 280.238682 
L 135.893741 280.162334 
L 135.952253 280.009638 
L 136.010584 280.009638 
L 136.010584 279.856941 
L 136.356818 279.780593 
L 136.413909 279.398852 
L 136.696795 279.322504 
L 136.752866 279.093459 
L 136.864507 279.093459 
L 136.97549 278.711718 
L 137.030737 278.711718 
L 137.085822 278.329976 
L 137.412988 278.253628 
L 137.520791 278.100932 
L 137.681345 278.100932 
L 137.787626 277.719191 
L 137.840541 277.719191 
L 137.893309 277.184753 
L 138.154948 277.108405 
L 138.206842 276.87936 
L 138.412998 276.803012 
L 138.515235 276.573967 
L 138.918715 276.497619 
L 138.968547 276.344922 
L 139.117256 276.268574 
L 139.117256 276.192226 
L 139.313723 276.192226 
L 139.411192 275.810485 
L 139.508159 275.734136 
L 139.508159 275.58144 
L 139.700607 275.505092 
L 139.748412 275.276047 
L 139.891105 275.199699 
L 139.985636 274.741609 
L 140.079694 274.741609 
L 140.126547 274.436216 
L 140.405242 274.359868 
L 140.49723 274.207172 
L 140.58877 274.130824 
L 140.58877 273.978127 
L 140.815692 273.978127 
L 140.860749 273.672734 
L 141.173167 273.596386 
L 141.261484 272.832904 
L 141.65386 272.756555 
L 141.739954 272.374814 
L 141.910969 272.298466 
L 141.995897 271.840376 
L 142.122575 271.840376 
L 142.206555 271.153242 
L 142.248405 271.153242 
L 142.331827 270.771501 
L 142.45627 270.695153 
L 142.45627 270.618805 
L 142.620923 270.542456 
L 142.702713 270.084367 
L 142.784148 270.084367 
L 142.784148 269.931671 
L 142.905644 269.931671 
L 142.905644 269.702626 
L 143.02636 269.702626 
L 143.02636 269.549929 
L 143.225848 269.473581 
L 143.225848 269.320885 
L 143.501625 269.244536 
L 143.540694 268.786447 
L 143.618588 268.786447 
L 143.657415 268.481054 
L 143.811926 268.481054 
L 143.850356 268.252009 
L 144.003296 268.252009 
L 144.003296 268.099313 
L 144.267986 268.022965 
L 144.342932 267.870268 
L 144.417581 267.870268 
L 144.417581 267.641224 
L 144.565997 267.564875 
L 144.565997 267.488527 
L 144.85936 267.412179 
L 144.968202 266.801393 
L 145.076419 266.725045 
L 145.112353 266.496 
L 145.361989 266.419652 
L 145.432709 266.266955 
L 145.573357 266.190607 
L 145.643288 265.961562 
L 145.816988 265.961562 
L 145.920443 265.579821 
L 146.125662 265.503473 
L 146.227438 265.045384 
L 146.496179 264.969035 
L 146.595975 264.739991 
L 146.695245 264.663642 
L 146.793994 264.510946 
L 146.826795 264.510946 
L 146.892226 264.281901 
L 147.022411 264.205553 
L 147.087167 263.976508 
L 147.183884 263.976508 
L 147.280107 263.671115 
L 147.471089 263.594767 
L 147.534321 263.136678 
L 148.001907 263.060329 
L 148.094045 262.831285 
L 148.124658 262.831285 
L 148.124658 262.373195 
L 148.307296 262.296847 
L 148.397954 262.067802 
L 148.458151 261.991454 
L 148.488177 261.762409 
L 148.57797 261.762409 
L 148.637595 261.30432 
L 148.785835 261.227972 
L 148.785835 261.151624 
L 148.962194 261.075275 
L 148.962194 260.998927 
L 149.165879 260.998927 
L 149.252502 260.617186 
L 149.338728 260.540838 
L 149.42456 260.235445 
L 149.453084 260.235445 
L 149.538397 259.548311 
L 149.623325 259.548311 
L 149.707872 258.861176 
L 149.73597 258.861176 
L 149.820013 258.479435 
L 149.903682 258.479435 
L 149.98698 258.097694 
L 150.097474 258.097694 
L 150.179921 257.715953 
L 150.262008 257.715953 
L 150.370903 256.952471 
L 150.425115 256.952471 
L 150.452162 256.723426 
L 150.613636 256.723426 
L 150.72052 256.188988 
L 150.8268 256.11264 
L 150.932483 255.578202 
L 150.985103 255.501854 
L 151.089903 255.043765 
L 151.142085 254.967416 
L 151.246016 254.585675 
L 151.349377 254.509327 
L 151.452172 253.898541 
L 151.50336 253.822193 
L 151.579882 253.5168 
L 151.656094 253.5168 
L 151.731998 253.058711 
L 151.782431 253.058711 
L 151.832729 252.676969 
L 151.907925 252.676969 
L 152.007722 252.066184 
L 152.057422 252.066184 
L 152.15643 251.531746 
L 152.328451 251.455398 
L 152.426047 250.768264 
L 152.571498 250.691915 
L 152.667844 250.233826 
L 152.739781 250.157478 
L 152.835271 249.62304 
L 152.953957 249.546692 
L 153.048369 249.241299 
L 153.095398 249.241299 
L 153.189104 248.248772 
L 153.282346 248.172424 
L 153.375128 247.561638 
L 153.421349 247.561638 
L 153.513449 247.0272 
L 153.58223 246.950852 
L 153.650761 246.492762 
L 153.696309 246.492762 
L 153.696309 246.263718 
L 153.832297 246.263718 
L 153.922412 245.805628 
L 154.012098 245.805628 
L 154.101358 245.194842 
L 154.123607 245.194842 
L 154.212341 244.660405 
L 154.256552 244.660405 
L 154.366625 243.973271 
L 154.388563 243.973271 
L 154.476059 243.362485 
L 154.563149 243.286136 
L 154.671449 242.446306 
L 154.73613 242.369958 
L 154.779128 241.988216 
L 154.886195 241.911868 
L 154.950144 241.530127 
L 155.035072 241.530127 
L 155.140696 241.224734 
L 155.161749 241.224734 
L 155.266666 240.919341 
L 155.329337 240.919341 
L 155.433326 240.155859 
L 155.474761 240.155859 
L 155.577951 239.010635 
L 155.619069 238.934287 
L 155.721473 238.170805 
L 155.741887 238.170805 
L 155.741887 238.094456 
L 155.823323 237.254626 
L 155.924624 237.178278 
L 156.005274 236.872885 
L 156.085579 236.872885 
L 156.185481 236.033054 
L 156.225294 236.033054 
L 156.324459 235.34592 
L 156.383708 235.34592 
L 156.462418 234.887831 
L 156.521235 234.887831 
L 156.618856 233.742607 
L 156.696589 233.742607 
L 156.793307 232.826428 
L 156.831855 232.826428 
L 156.908716 231.986598 
L 156.985263 231.910249 
L 157.080512 231.223115 
L 157.118477 231.223115 
L 157.213055 230.15424 
L 157.231914 230.15424 
L 157.30716 229.848847 
L 157.363398 229.772499 
L 157.419468 229.314409 
L 157.493969 229.238061 
L 157.586683 228.474579 
L 157.623641 228.474579 
L 157.734081 227.711096 
L 157.770751 227.634748 
L 157.880333 226.947614 
L 157.898535 226.947614 
L 158.007377 225.802391 
L 158.043518 225.802391 
L 158.151527 224.809864 
L 158.2053 224.733515 
L 158.312387 223.511944 
L 158.330176 223.511944 
L 158.436556 222.595765 
L 158.489522 222.519416 
L 158.595008 221.603238 
L 158.612531 221.603238 
L 158.717331 220.610711 
L 158.752135 220.534362 
L 158.856162 219.847228 
L 158.890711 219.847228 
L 158.993977 218.854701 
L 159.028273 218.778353 
L 159.130788 218.167567 
L 159.164837 218.091219 
L 159.249688 217.480433 
L 159.351007 217.404085 
L 159.451784 216.029816 
L 159.468527 216.029816 
L 159.568678 214.960941 
L 159.63515 214.884593 
L 159.734419 213.892066 
L 159.783859 213.815718 
L 159.865969 212.899539 
L 159.898714 212.899539 
L 159.996606 211.525271 
L 160.029123 211.448922 
L 160.126341 210.68544 
L 160.142495 210.68544 
L 160.142495 210.609092 
L 160.223059 209.921958 
L 160.255188 209.921958 
L 160.351247 209.005779 
L 160.367209 209.005779 
L 160.367209 208.929431 
L 160.4627 207.707859 
L 160.494422 207.631511 
L 160.605032 206.944376 
L 160.620781 206.944376 
L 160.699326 206.180894 
L 160.761927 206.104546 
L 160.87098 204.653929 
L 160.886507 204.653929 
L 160.994842 203.890447 
L 161.010268 203.890447 
L 161.102557 203.050616 
L 161.148532 202.974268 
L 161.240147 201.905393 
L 161.316153 201.829045 
L 161.422049 200.607473 
L 161.452196 200.531125 
L 161.527352 199.996687 
L 161.587261 199.996687 
L 161.691646 199.00416 
L 161.706511 199.00416 
L 161.810238 198.164329 
L 161.839769 198.087981 
L 161.942766 197.324499 
L 161.957434 197.324499 
L 162.045202 196.331972 
L 162.11803 196.255624 
L 162.219518 195.263096 
L 162.291676 195.186748 
L 162.392235 194.423266 
L 162.420867 194.346918 
L 162.520739 193.430739 
L 162.534963 193.430739 
L 162.634233 192.667256 
L 162.676617 192.590908 
L 162.775144 191.980122 
L 162.817213 191.903774 
L 162.901068 191.292988 
L 162.942856 191.292988 
L 163.040002 190.529506 
L 163.081483 190.453158 
L 163.177917 189.231586 
L 163.219095 189.155238 
L 163.328465 188.162711 
L 163.410077 188.086362 
L 163.518345 187.246532 
L 163.545315 187.170184 
L 163.65281 186.254005 
L 163.706328 186.254005 
L 163.812909 185.414174 
L 163.82619 185.414174 
L 163.932096 184.268951 
L 163.984826 184.192602 
L 164.07675 183.352772 
L 164.116009 183.352772 
L 164.116009 183.276424 
L 164.220301 182.436593 
L 164.272231 182.360245 
L 164.362764 181.749459 
L 164.414303 181.749459 
L 164.478528 181.367718 
L 164.529751 181.367718 
L 164.63178 180.222494 
L 164.657201 180.222494 
L 164.758543 179.382664 
L 164.771172 179.382664 
L 164.859342 178.619181 
L 164.897003 178.542833 
L 164.997064 177.321261 
L 165.009535 177.321261 
L 165.109001 176.481431 
L 165.133786 176.405082 
L 165.207944 175.794296 
L 165.244914 175.794296 
L 165.343147 174.725421 
L 165.379853 174.649073 
L 165.489541 173.885591 
L 165.51383 173.885591 
L 165.610672 173.351153 
L 165.64686 173.274805 
L 165.755007 171.976885 
L 165.814821 171.900536 
L 165.898243 171.289751 
L 165.957604 171.289751 
L 166.063985 170.373572 
L 166.122826 170.297224 
L 166.228279 169.152 
L 166.298254 169.075652 
L 166.39115 167.930428 
L 166.414303 167.930428 
L 166.518139 167.319642 
L 166.552624 167.243294 
L 166.655701 166.55616 
L 166.689935 166.479812 
L 166.769573 166.021722 
L 166.814929 165.945374 
L 166.905315 165.181892 
L 166.939098 165.105544 
L 167.040085 164.189365 
L 167.073627 164.113016 
L 167.173896 163.196838 
L 167.240447 163.120489 
L 167.350843 162.433355 
L 167.372845 162.357007 
L 167.48247 161.211784 
L 167.526142 161.135435 
L 167.624034 160.753694 
L 167.678199 160.753694 
L 167.678199 160.677346 
L 167.76454 160.295605 
L 167.882616 160.219256 
L 167.989318 159.303078 
L 168.010586 159.226729 
L 168.105996 158.386899 
L 168.148245 158.310551 
L 168.242961 157.776113 
L 168.284904 157.699765 
L 168.389355 156.783586 
L 168.410176 156.783586 
L 168.513935 155.332969 
L 168.52428 155.332969 
L 168.596533 154.416791 
L 168.647973 154.416791 
L 168.740211 153.806005 
L 168.770857 153.729656 
L 168.862497 152.737129 
L 168.903083 152.660781 
L 168.994082 151.439209 
L 169.024318 151.362861 
L 169.124754 150.370334 
L 169.194741 150.293986 
L 169.294273 149.530504 
L 169.32403 149.454155 
L 169.422883 148.614325 
L 169.472115 148.537976 
L 169.570194 147.774494 
L 169.599518 147.774494 
L 169.706651 146.629271 
L 169.726065 146.552922 
L 169.813178 146.018485 
L 169.851766 145.942136 
L 169.94789 145.255002 
L 169.976632 145.178654 
L 170.081645 144.644216 
L 170.091163 144.644216 
L 170.186075 143.804386 
L 170.214455 143.728038 
L 170.318152 143.117252 
L 170.327551 143.117252 
L 170.327551 143.040904 
L 170.430628 142.201073 
L 170.439971 142.201073 
L 170.533144 140.979501 
L 170.561006 140.979501 
L 170.672043 139.452536 
L 170.690486 139.376188 
L 170.764077 138.841751 
L 170.83738 138.765402 
L 170.946803 137.543831 
L 170.955893 137.543831 
L 171.037505 136.704 
L 171.082693 136.627652 
L 171.181725 135.787821 
L 171.199675 135.787821 
L 171.307016 134.871642 
L 171.360458 134.795294 
L 171.449192 133.955464 
L 171.475731 133.955464 
L 171.581513 132.657544 
L 171.625414 132.581195 
L 171.73036 131.359624 
L 171.739079 131.359624 
L 171.739079 131.283275 
L 171.843395 130.290748 
L 171.869384 130.2144 
L 171.972982 129.069176 
L 171.981589 129.069176 
L 172.067447 128.152998 
L 172.101681 128.076649 
L 172.212513 127.007774 
L 172.246485 126.931426 
L 172.314244 126.244292 
L 172.390182 126.167944 
L 172.490958 125.480809 
L 172.549496 125.404461 
L 172.649425 124.717327 
L 172.707472 124.717327 
L 172.790088 123.7248 
L 172.880548 123.648452 
L 172.978738 122.808621 
L 173.003206 122.732273 
L 173.092649 122.197835 
L 173.149347 122.121487 
L 173.230049 121.12896 
L 173.270271 121.052612 
L 173.358456 120.594522 
L 173.382435 120.594522 
L 173.478047 119.83104 
L 173.533597 119.754692 
L 173.644207 118.991209 
L 173.691413 118.914861 
L 173.801101 118.075031 
L 173.816719 118.075031 
L 173.910154 117.2352 
L 173.964444 117.2352 
L 174.064855 116.471718 
L 174.087951 116.395369 
L 174.195358 115.631887 
L 174.210652 115.631887 
L 174.210652 115.555539 
L 174.317363 114.333967 
L 174.340151 114.257619 
L 174.438582 113.34144 
L 174.453679 113.34144 
L 174.559024 112.730654 
L 174.656319 112.654306 
L 174.760539 111.585431 
L 174.77538 111.509082 
L 174.886319 110.7456 
L 174.930512 110.669252 
L 175.040543 109.524028 
L 175.069777 109.44768 
L 175.157205 108.913242 
L 175.229752 108.836894 
L 175.338051 107.997064 
L 175.388379 107.920715 
L 175.488631 107.080885 
L 175.517176 107.004536 
L 175.581246 106.546447 
L 175.638014 106.470099 
L 175.743995 105.706616 
L 175.751039 105.706616 
L 175.849382 104.256 
L 175.877386 104.179652 
L 175.982031 103.339821 
L 175.995939 103.263473 
L 176.099928 102.270946 
L 176.134464 102.194598 
L 176.237692 101.278419 
L 176.25827 101.202071 
L 176.36764 100.285892 
L 176.388076 100.209544 
L 176.489925 99.369713 
L 176.523753 99.293365 
L 176.624872 98.529882 
L 176.651746 98.529882 
L 176.752182 98.071793 
L 176.772205 97.995445 
L 176.872001 97.461007 
L 176.891897 97.461007 
L 176.891897 97.384659 
L 176.984467 96.697525 
L 177.010832 96.697525 
L 177.10282 95.552301 
L 177.174783 95.475953 
L 177.285458 94.559774 
L 177.311405 94.483426 
L 177.414837 93.948988 
L 177.498458 93.87264 
L 177.588098 93.032809 
L 177.645499 92.956461 
L 177.747115 91.963934 
L 177.759778 91.887586 
L 177.759778 91.887586 
L 177.841883 91.429496 
L 177.898516 91.353148 
L 178.005027 90.436969 
L 178.042475 90.360621 
L 178.148176 89.520791 
L 178.166767 89.520791 
L 178.271774 88.528264 
L 178.302547 88.451915 
L 178.4068 87.306692 
L 178.437353 87.230344 
L 178.546935 86.619558 
L 178.559072 86.543209 
L 178.655883 85.932424 
L 178.686034 85.856075 
L 178.794182 85.245289 
L 178.812146 85.168941 
L 178.907666 84.481807 
L 178.955245 84.405459 
L 179.055953 83.718325 
L 179.109051 83.641976 
L 179.214801 82.954842 
L 179.290807 82.878494 
L 179.395542 82.038664 
L 179.424532 81.962315 
L 179.517001 81.198833 
L 179.59754 81.122485 
L 179.689164 80.817092 
L 179.763281 80.740744 
L 179.80307 80.359002 
L 179.876741 80.359002 
L 179.978273 79.671868 
L 180.000761 79.59552 
L 180.084854 78.755689 
L 180.13513 78.679341 
L 180.240829 78.068555 
L 180.307281 77.992207 
L 180.395521 77.228725 
L 180.466912 77.152376 
L 180.521644 76.770635 
L 180.603446 76.694287 
L 180.711964 75.854456 
L 180.738996 75.854456 
L 180.738996 75.778108 
L 180.830615 75.320019 
L 180.878939 75.243671 
L 180.980551 74.861929 
L 180.996545 74.785581 
L 181.060386 74.098447 
L 181.166307 74.022099 
L 181.261129 73.564009 
L 181.313602 73.487661 
L 181.41811 72.800527 
L 181.496113 72.724179 
L 181.604776 72.037045 
L 181.640858 71.960696 
L 181.687147 71.578955 
L 181.758927 71.502607 
L 181.855908 70.586428 
L 181.911826 70.51008 
L 182.018121 69.441205 
L 182.068527 69.364856 
L 182.168936 68.601374 
L 182.238904 68.525026 
L 182.318551 67.761544 
L 182.363205 67.685195 
L 182.452195 67.074409 
L 182.516205 66.998061 
L 182.624036 66.005534 
L 182.638693 65.929186 
L 182.740969 65.471096 
L 182.779786 65.394748 
L 182.866832 64.783962 
L 182.895758 64.783962 
L 182.972677 64.325873 
L 183.030161 64.249525 
L 183.116059 63.715087 
L 183.182598 63.638739 
L 183.26308 62.875256 
L 183.329102 62.798908 
L 183.408962 62.493515 
L 183.51647 62.417167 
L 183.614096 61.500988 
L 183.646526 61.42464 
L 183.738875 60.966551 
L 183.794068 60.890202 
L 183.858256 60.508461 
L 183.985978 60.432113 
L 184.090247 59.974024 
L 184.117353 59.897675 
L 184.216409 59.286889 
L 184.234363 59.210541 
L 184.337269 58.447059 
L 184.421855 58.370711 
L 184.528161 57.836273 
L 184.554643 57.759925 
L 184.655817 57.149139 
L 184.699636 57.072791 
L 184.808739 56.538353 
L 184.843519 56.462005 
L 184.938833 55.851219 
L 184.96906 55.774871 
L 185.050858 55.393129 
L 185.157949 55.316781 
L 185.255938 54.629647 
L 185.328037 54.629647 
L 185.437775 54.018861 
L 185.521755 53.942513 
L 185.584495 53.560772 
L 185.667825 53.484424 
L 185.77147 53.102682 
L 185.833384 53.026334 
L 185.927925 52.568245 
L 185.956604 52.491896 
L 186.046455 51.652066 
L 186.156144 51.575718 
L 186.212769 51.270325 
L 186.321495 51.193976 
L 186.429596 50.583191 
L 186.449547 50.506842 
L 186.548984 49.972405 
L 186.647899 49.896056 
L 186.746296 49.056226 
L 186.789428 48.979878 
L 186.894881 48.598136 
L 186.906562 48.521788 
L 187.007491 48.063699 
L 187.038437 47.987351 
L 187.130972 47.452913 
L 187.177069 47.376565 
L 187.280377 46.689431 
L 187.356538 46.613082 
L 187.462647 45.696904 
L 187.47398 45.620555 
L 187.519245 45.238814 
L 187.620696 45.162466 
L 187.717875 44.857073 
L 187.74023 44.857073 
L 187.74023 44.780725 
L 187.803424 44.246287 
L 187.888587 44.169939 
L 187.991745 43.635501 
L 188.024783 43.559153 
L 188.127199 43.330108 
L 188.189109 43.25376 
L 188.265306 42.719322 
L 188.366424 42.642974 
L 188.467002 42.032188 
L 188.495639 41.95584 
L 188.59553 41.421402 
L 188.680731 41.345054 
L 188.78317 40.886965 
L 188.818364 40.810616 
L 188.927051 40.276179 
L 189.003805 40.199831 
L 189.080246 39.818089 
L 189.12873 39.741741 
L 189.228764 38.825562 
L 189.307725 38.749214 
L 189.389767 38.367473 
L 189.447664 38.291125 
L 189.522327 37.756687 
L 189.613555 37.680339 
L 189.707697 37.069553 
L 189.767969 36.993205 
L 189.874645 36.535115 
L 189.907857 36.458767 
L 190.010445 35.771633 
L 190.040124 35.695285 
L 190.148548 35.237195 
L 190.171467 35.237195 
L 190.171467 35.160847 
L 190.279139 34.550061 
L 190.292149 34.473713 
L 190.353821 34.244668 
L 190.441113 34.16832 
L 190.547257 33.710231 
L 190.601705 33.710231 
L 190.691041 33.328489 
L 190.760937 33.252141 
L 190.833733 32.794052 
L 190.906249 32.717704 
L 191.016066 32.183266 
L 191.050448 32.106918 
L 191.140791 31.877873 
L 191.264694 31.801525 
L 191.350943 31.190739 
L 191.427619 31.114391 
L 191.497885 30.656301 
L 191.592179 30.579953 
L 191.695057 30.121864 
L 191.755312 30.045515 
L 191.860296 29.663774 
L 191.890184 29.587426 
L 191.988479 28.97664 
L 192.035953 28.900292 
L 192.118745 28.518551 
L 192.318308 28.442202 
L 192.405682 27.907765 
L 192.478185 27.831416 
L 192.573463 27.220631 
L 192.702614 27.144282 
L 192.810989 26.457148 
L 192.856434 26.3808 
L 192.94135 25.770014 
L 192.975209 25.770014 
L 193.059591 25.311925 
L 193.121231 25.235576 
L 193.224446 24.777487 
L 193.263353 24.701139 
L 193.357508 24.243049 
L 193.462185 24.166701 
L 193.547151 23.632264 
L 193.588126 23.555915 
L 193.661656 23.174174 
L 193.759252 23.097826 
L 193.824036 22.716085 
L 193.904703 22.639736 
L 193.985026 22.257995 
L 194.120792 22.181647 
L 194.21868 21.799906 
L 194.258219 21.723558 
L 194.342293 21.494513 
L 194.376341 21.418165 
L 194.376341 21.341816 
L 194.58711 21.265468 
L 194.654266 21.112772 
L 194.780182 21.036424 
L 194.884897 20.654682 
L 194.940846 20.578334 
L 195.049723 20.349289 
L 195.052247 20.349289 
L 195.125312 20.043896 
L 195.213117 19.967548 
L 195.315455 19.509459 
L 195.352758 19.433111 
L 195.404857 18.822325 
L 195.49137 18.745976 
L 195.58485 18.364235 
L 195.67054 18.287887 
L 195.767997 17.753449 
L 195.797136 17.677101 
L 195.872203 17.524405 
L 196.040616 17.448056 
L 196.117105 17.219012 
L 196.254954 17.142664 
L 196.342367 16.760922 
L 196.508977 16.684574 
L 196.550983 16.531878 
L 196.991026 16.455529 
L 197.063754 16.302833 
L 197.199366 16.226485 
L 197.309395 15.921092 
L 197.363053 15.844744 
L 197.467692 15.386654 
L 197.68402 15.310306 
L 197.793441 14.928565 
L 197.902229 14.852216 
L 197.930411 14.69952 
L 198.107209 14.623172 
L 198.190716 14.165082 
L 198.434818 14.088734 
L 198.434818 14.012386 
L 198.621582 13.936038 
L 198.671629 13.706993 
L 198.79203 13.630645 
L 198.816845 13.4016 
L 199.142585 13.325252 
L 199.179109 13.019859 
L 199.262037 12.943511 
L 199.360669 12.790814 
L 199.592125 12.714466 
L 199.649547 12.561769 
L 199.838392 12.485421 
L 199.838392 12.409073 
L 200.098858 12.332725 
L 200.202811 12.10368 
L 200.369091 12.027332 
L 200.437469 11.721939 
L 200.535801 11.645591 
L 200.565954 11.492894 
L 200.766367 11.416546 
L 200.824034 11.263849 
L 200.983095 11.187501 
L 201.087782 11.034805 
L 201.12986 10.958456 
L 201.155427 10.80576 
L 201.271862 10.729412 
L 201.271862 10.653064 
L 201.484669 10.576715 
L 201.577689 10.194974 
L 201.83467 10.118626 
L 201.899686 9.889581 
L 202.121154 9.813233 
L 202.205911 9.584188 
L 202.292005 9.50784 
L 202.375997 9.355144 
L 202.512325 9.278795 
L 202.512325 9.202447 
L 202.768659 9.126099 
L 202.877218 8.820706 
L 202.895527 8.744358 
L 202.993431 8.438965 
L 203.151651 8.362616 
L 203.256396 8.133572 
L 203.354068 8.057224 
L 203.457695 7.904527 
L 203.749303 7.828179 
L 203.804867 7.522786 
L 204.224974 7.446438 
L 204.224974 7.370089 
L 204.954726 7.293741 
L 204.954726 7.217393 
L 205.420142 7.141045 
L 205.420142 7.064696 
L 211.181758 6.988348 
L 211.181758 6.912 
L 360.8064 6.912 
L 360.8064 6.912 
" style="fill:none;stroke:#ff00ff;stroke-linecap:square;stroke-width:1.5;"/>
   </g>
   <g id="line2d_41">
    <defs>
     <path d="M -0 8.485281 
L 5.091169 0 
L 0 -8.485281 
L -5.091169 -0 
z
" id="m6c9f33b67e" style="stroke:#ff00ff;stroke-linejoin:miter;stroke-width:1.5;"/>
    </defs>
    <g>
     <use style="fill-opacity:0;stroke:#ff00ff;stroke-linejoin:miter;stroke-width:1.5;" x="68.65718" xlink:href="#m6c9f33b67e" y="291.767266"/>
     <use style="fill-opacity:0;stroke:#ff00ff;stroke-linejoin:miter;stroke-width:1.5;" x="152.328451" xlink:href="#m6c9f33b67e" y="251.455398"/>
     <use style="fill-opacity:0;stroke:#ff00ff;stroke-linejoin:miter;stroke-width:1.5;" x="177.728103" xlink:href="#m6c9f33b67e" y="92.345675"/>
     <use style="fill-opacity:0;stroke:#ff00ff;stroke-linejoin:miter;stroke-width:1.5;" x="211.181758" xlink:href="#m6c9f33b67e" y="6.988348"/>
     <use style="fill-opacity:0;stroke:#ff00ff;stroke-linejoin:miter;stroke-width:1.5;" x="211.181758" xlink:href="#m6c9f33b67e" y="6.912"/>
     <use style="fill-opacity:0;stroke:#ff00ff;stroke-linejoin:miter;stroke-width:1.5;" x="360.8064" xlink:href="#m6c9f33b67e" y="6.912"/>
    </g>
   </g>
   <g id="line2d_42">
    <path style="fill:none;stroke:#ff00ff;stroke-linecap:square;stroke-width:1.5;"/>
    <g/>
   </g>
   <g id="line2d_43">
    <path clip-path="url(#p65eca3dcdc)" d="M 147.183884 263.823812 
" style="fill:none;stroke:#ff00ff;stroke-linecap:square;stroke-width:1.5;"/>
    <defs>
     <path d="M -12 12 
L 12 -12 
M -12 -12 
L 12 12 
" id="m4e602ace8c" style="stroke:#ff00ff;"/>
    </defs>
    <g clip-path="url(#p65eca3dcdc)">
     <use style="fill:#ff00ff;stroke:#ff00ff;" x="147.183884" xlink:href="#m4e602ace8c" y="263.823812"/>
    </g>
   </g>
   <g id="line2d_44">
    <path d="M 360.8064 183.276424 
L 380.514816 293.10336 
" style="fill:none;stroke:#000080;stroke-linecap:square;stroke-width:1.5;"/>
    <g>
     <use style="fill-opacity:0;stroke:#000080;stroke-width:1.5;" x="360.8064" xlink:href="#mb26a3aad07" y="183.276424"/>
     <use style="fill-opacity:0;stroke:#000080;stroke-width:1.5;" x="380.514816" xlink:href="#mb26a3aad07" y="293.10336"/>
    </g>
   </g>
   <g id="line2d_45">
    <path d="M 360.8064 6.912 
L 380.514816 152.928 
" style="fill:none;stroke:#ff00ff;stroke-linecap:square;stroke-width:1.5;"/>
    <g>
     <use style="fill-opacity:0;stroke:#ff00ff;stroke-linejoin:miter;stroke-width:1.5;" x="360.8064" xlink:href="#m6c9f33b67e" y="6.912"/>
     <use style="fill-opacity:0;stroke:#ff00ff;stroke-linejoin:miter;stroke-width:1.5;" x="380.514816" xlink:href="#m6c9f33b67e" y="152.928"/>
    </g>
   </g>
   <g id="line2d_46">
    <path d="M 360.8064 298.944 
L 360.8064 6.912 
" style="fill:none;stroke:#000000;stroke-linecap:square;stroke-width:1.5;"/>
   </g>
   <g id="patch_3">
    <path d="M 57.6 298.944 
L 360.8064 298.944 
" style="fill:none;stroke:#000000;stroke-linecap:square;stroke-linejoin:miter;stroke-width:0.8;"/>
   </g>
   <g id="patch_4">
    <path d="M 57.6 6.912 
L 360.8064 6.912 
" style="fill:none;stroke:#000000;stroke-linecap:square;stroke-linejoin:miter;stroke-width:0.8;"/>
   </g>
   <g id="text_13">
    <!-- different -->
    <g transform="translate(386.578944 296.966485)scale(0.14 -0.14)">
     <use xlink:href="#DejaVuSans-64"/>
     <use x="63.476562" xlink:href="#DejaVuSans-69"/>
     <use x="91.259766" xlink:href="#DejaVuSans-66"/>
     <use x="126.464844" xlink:href="#DejaVuSans-66"/>
     <use x="161.669922" xlink:href="#DejaVuSans-65"/>
     <use x="223.193359" xlink:href="#DejaVuSans-72"/>
     <use x="262.056641" xlink:href="#DejaVuSans-65"/>
     <use x="323.580078" xlink:href="#DejaVuSans-6e"/>
     <use x="386.958984" xlink:href="#DejaVuSans-74"/>
    </g>
   </g>
   <g id="text_14">
    <!-- cma.fmin  -->
    <g transform="translate(386.578944 156.791125)scale(0.14 -0.14)">
     <use xlink:href="#DejaVuSans-63"/>
     <use x="54.980469" xlink:href="#DejaVuSans-6d"/>
     <use x="152.392578" xlink:href="#DejaVuSans-61"/>
     <use x="213.671875" xlink:href="#DejaVuSans-2e"/>
     <use x="245.458984" xlink:href="#DejaVuSans-66"/>
     <use x="280.664062" xlink:href="#DejaVuSans-6d"/>
     <use x="378.076172" xlink:href="#DejaVuSans-69"/>
     <use x="405.859375" xlink:href="#DejaVuSans-6e"/>
     <use x="469.238281" xlink:href="#DejaVuSans-20"/>
    </g>
   </g>
   <g id="text_15">
    <!-- best 2009 -->
    <g transform="translate(386.578944 16.615765)scale(0.14 -0.14)">
     <defs>
      <path d="M 3116 1747 
Q 3116 2381 2855 2742 
Q 2594 3103 2138 3103 
Q 1681 3103 1420 2742 
Q 1159 2381 1159 1747 
Q 1159 1113 1420 752 
Q 1681 391 2138 391 
Q 2594 391 2855 752 
Q 3116 1113 3116 1747 
z
M 1159 2969 
Q 1341 3281 1617 3432 
Q 1894 3584 2278 3584 
Q 2916 3584 3314 3078 
Q 3713 2572 3713 1747 
Q 3713 922 3314 415 
Q 2916 -91 2278 -91 
Q 1894 -91 1617 61 
Q 1341 213 1159 525 
L 1159 0 
L 581 0 
L 581 4863 
L 1159 4863 
L 1159 2969 
z
" id="DejaVuSans-62" transform="scale(0.015625)"/>
      <path d="M 703 97 
L 703 672 
Q 941 559 1184 500 
Q 1428 441 1663 441 
Q 2288 441 2617 861 
Q 2947 1281 2994 2138 
Q 2813 1869 2534 1725 
Q 2256 1581 1919 1581 
Q 1219 1581 811 2004 
Q 403 2428 403 3163 
Q 403 3881 828 4315 
Q 1253 4750 1959 4750 
Q 2769 4750 3195 4129 
Q 3622 3509 3622 2328 
Q 3622 1225 3098 567 
Q 2575 -91 1691 -91 
Q 1453 -91 1209 -44 
Q 966 3 703 97 
z
M 1959 2075 
Q 2384 2075 2632 2365 
Q 2881 2656 2881 3163 
Q 2881 3666 2632 3958 
Q 2384 4250 1959 4250 
Q 1534 4250 1286 3958 
Q 1038 3666 1038 3163 
Q 1038 2656 1286 2365 
Q 1534 2075 1959 2075 
z
" id="DejaVuSans-39" transform="scale(0.015625)"/>
     </defs>
     <use xlink:href="#DejaVuSans-62"/>
     <use x="63.476562" xlink:href="#DejaVuSans-65"/>
     <use x="125" xlink:href="#DejaVuSans-73"/>
     <use x="177.099609" xlink:href="#DejaVuSans-74"/>
     <use x="216.308594" xlink:href="#DejaVuSans-20"/>
     <use x="248.095703" xlink:href="#DejaVuSans-32"/>
     <use x="311.71875" xlink:href="#DejaVuSans-30"/>
     <use x="375.341797" xlink:href="#DejaVuSans-30"/>
     <use x="438.964844" xlink:href="#DejaVuSans-39"/>
    </g>
   </g>
   <g id="text_16">
    <!-- bbob f10-f14, 5-D -->
    <g transform="translate(60.632064 17.582726)scale(0.102 -0.102)">
     <defs>
      <path d="M 691 4666 
L 3169 4666 
L 3169 4134 
L 1269 4134 
L 1269 2991 
Q 1406 3038 1543 3061 
Q 1681 3084 1819 3084 
Q 2600 3084 3056 2656 
Q 3513 2228 3513 1497 
Q 3513 744 3044 326 
Q 2575 -91 1722 -91 
Q 1428 -91 1123 -41 
Q 819 9 494 109 
L 494 744 
Q 775 591 1075 516 
Q 1375 441 1709 441 
Q 2250 441 2565 725 
Q 2881 1009 2881 1497 
Q 2881 1984 2565 2268 
Q 2250 2553 1709 2553 
Q 1456 2553 1204 2497 
Q 953 2441 691 2322 
L 691 4666 
z
" id="DejaVuSans-35" transform="scale(0.015625)"/>
      <path d="M 1259 4147 
L 1259 519 
L 2022 519 
Q 2988 519 3436 956 
Q 3884 1394 3884 2338 
Q 3884 3275 3436 3711 
Q 2988 4147 2022 4147 
L 1259 4147 
z
M 628 4666 
L 1925 4666 
Q 3281 4666 3915 4102 
Q 4550 3538 4550 2338 
Q 4550 1131 3912 565 
Q 3275 0 1925 0 
L 628 0 
L 628 4666 
z
" id="DejaVuSans-44" transform="scale(0.015625)"/>
     </defs>
     <use xlink:href="#DejaVuSans-62"/>
     <use x="63.476562" xlink:href="#DejaVuSans-62"/>
     <use x="126.953125" xlink:href="#DejaVuSans-6f"/>
     <use x="188.134766" xlink:href="#DejaVuSans-62"/>
     <use x="251.611328" xlink:href="#DejaVuSans-20"/>
     <use x="283.398438" xlink:href="#DejaVuSans-66"/>
     <use x="318.603516" xlink:href="#DejaVuSans-31"/>
     <use x="382.226562" xlink:href="#DejaVuSans-30"/>
     <use x="445.849609" xlink:href="#DejaVuSans-2d"/>
     <use x="481.933594" xlink:href="#DejaVuSans-66"/>
     <use x="517.138672" xlink:href="#DejaVuSans-31"/>
     <use x="580.761719" xlink:href="#DejaVuSans-34"/>
     <use x="644.384766" xlink:href="#DejaVuSans-2c"/>
     <use x="676.171875" xlink:href="#DejaVuSans-20"/>
     <use x="707.958984" xlink:href="#DejaVuSans-35"/>
     <use x="771.582031" xlink:href="#DejaVuSans-2d"/>
     <use x="807.666016" xlink:href="#DejaVuSans-44"/>
    </g>
    <!-- 51 targets: 100..1e-08 -->
    <g transform="translate(60.632064 29.004495)scale(0.102 -0.102)">
     <defs>
      <path d="M 750 794 
L 1409 794 
L 1409 0 
L 750 0 
L 750 794 
z
M 750 3309 
L 1409 3309 
L 1409 2516 
L 750 2516 
L 750 3309 
z
" id="DejaVuSans-3a" transform="scale(0.015625)"/>
     </defs>
     <use xlink:href="#DejaVuSans-35"/>
     <use x="63.623047" xlink:href="#DejaVuSans-31"/>
     <use x="127.246094" xlink:href="#DejaVuSans-20"/>
     <use x="159.033203" xlink:href="#DejaVuSans-74"/>
     <use x="198.242188" xlink:href="#DejaVuSans-61"/>
     <use x="259.521484" xlink:href="#DejaVuSans-72"/>
     <use x="298.884766" xlink:href="#DejaVuSans-67"/>
     <use x="362.361328" xlink:href="#DejaVuSans-65"/>
     <use x="423.884766" xlink:href="#DejaVuSans-74"/>
     <use x="463.09375" xlink:href="#DejaVuSans-73"/>
     <use x="515.193359" xlink:href="#DejaVuSans-3a"/>
     <use x="548.884766" xlink:href="#DejaVuSans-20"/>
     <use x="580.671875" xlink:href="#DejaVuSans-31"/>
     <use x="644.294922" xlink:href="#DejaVuSans-30"/>
     <use x="707.917969" xlink:href="#DejaVuSans-30"/>
     <use x="771.541016" xlink:href="#DejaVuSans-2e"/>
     <use x="803.328125" xlink:href="#DejaVuSans-2e"/>
     <use x="835.115234" xlink:href="#DejaVuSans-31"/>
     <use x="898.738281" xlink:href="#DejaVuSans-65"/>
     <use x="960.261719" xlink:href="#DejaVuSans-2d"/>
     <use x="996.345703" xlink:href="#DejaVuSans-30"/>
     <use x="1059.96875" xlink:href="#DejaVuSans-38"/>
    </g>
    <!-- 15 instances -->
    <g transform="translate(60.632064 40.426264)scale(0.102 -0.102)">
     <use xlink:href="#DejaVuSans-31"/>
     <use x="63.623047" xlink:href="#DejaVuSans-35"/>
     <use x="127.246094" xlink:href="#DejaVuSans-20"/>
     <use x="159.033203" xlink:href="#DejaVuSans-69"/>
     <use x="186.816406" xlink:href="#DejaVuSans-6e"/>
     <use x="250.195312" xlink:href="#DejaVuSans-73"/>
     <use x="302.294922" xlink:href="#DejaVuSans-74"/>
     <use x="341.503906" xlink:href="#DejaVuSans-61"/>
     <use x="402.783203" xlink:href="#DejaVuSans-6e"/>
     <use x="466.162109" xlink:href="#DejaVuSans-63"/>
     <use x="521.142578" xlink:href="#DejaVuSans-65"/>
     <use x="582.666016" xlink:href="#DejaVuSans-73"/>
    </g>
   </g>
   <g id="text_17">
    <!-- v2.6 -->
    <g style="fill:#808080;" transform="translate(198.292262 293.943992)scale(0.1 -0.1)">
     <use xlink:href="#DejaVuSans-76"/>
     <use x="59.179688" xlink:href="#DejaVuSans-32"/>
     <use x="122.802734" xlink:href="#DejaVuSans-2e"/>
     <use x="154.589844" xlink:href="#DejaVuSans-36"/>
    </g>
   </g>
  </g>
 </g>
 <defs>
  <clipPath id="p65eca3dcdc">
   <rect height="292.032" width="303.2064" x="57.6" y="6.912"/>
  </clipPath>
 </defs>
</svg>
