<?xml version="1.0" encoding="utf-8" standalone="no"?>
<!DOCTYPE svg PUBLIC "-//W3C//DTD SVG 1.1//EN"
  "http://www.w3.org/Graphics/SVG/1.1/DTD/svg11.dtd">
<svg height="345.6pt" version="1.1" viewBox="0 0 460.8 345.6" width="460.8pt" xmlns="http://www.w3.org/2000/svg" xmlns:xlink="http://www.w3.org/1999/xlink">
 <metadata>
  <rdf:RDF xmlns:cc="http://creativecommons.org/ns#" xmlns:dc="http://purl.org/dc/elements/1.1/" xmlns:rdf="http://www.w3.org/1999/02/22-rdf-syntax-ns#">
   <cc:Work>
    <dc:type rdf:resource="http://purl.org/dc/dcmitype/StillImage"/>
    <dc:date>2022-05-07T21:25:54.068284</dc:date>
    <dc:format>image/svg+xml</dc:format>
    <dc:creator>
     <cc:Agent>
      <dc:title>Matplotlib v3.4.3, https://matplotlib.org/</dc:title>
     </cc:Agent>
    </dc:creator>
   </cc:Work>
  </rdf:RDF>
 </metadata>
 <defs>
  <style type="text/css">*{stroke-linecap:butt;stroke-linejoin:round;}</style>
 </defs>
 <g id="figure_1">
  <g id="patch_1">
   <path d="M 0 345.6 
L 460.8 345.6 
L 460.8 0 
L 0 0 
z
" style="fill:#ffffff;"/>
  </g>
  <g id="axes_1">
   <g id="patch_2">
    <path d="M 57.6 298.944 
L 360.8064 298.944 
L 360.8064 27.648 
L 57.6 27.648 
z
" style="fill:#ffffff;"/>
   </g>
   <g id="line2d_1">
    <path d="M 1.245626 298.944 
L 1.245626 293.624471 
L 68.65718 293.624471 
L 68.65718 288.304941 
L 82.959349 288.304941 
L 82.959349 282.985412 
L 86.510858 282.985412 
L 86.510858 277.665882 
L 116.419219 277.665882 
L 116.419219 272.346353 
L 120.317502 272.346353 
L 120.317502 267.026824 
L 129.581749 267.026824 
L 129.581749 261.707294 
L 132.881269 261.707294 
L 132.881269 256.387765 
L 144.445498 256.387765 
L 144.445498 251.068235 
L 165.957604 251.068235 
L 165.957604 245.748706 
L 166.521015 245.748706 
L 166.521015 240.429176 
L 180.720078 240.429176 
L 180.720078 235.109647 
L 180.825238 235.109647 
L 180.825238 229.790118 
L 180.858819 229.790118 
L 180.858819 224.470588 
L 180.904394 224.470588 
L 180.904394 219.151059 
L 180.973883 219.151059 
L 180.973883 213.831529 
L 181.011195 213.831529 
L 181.011195 208.512 
L 181.052417 208.512 
L 181.052417 203.192471 
L 181.092225 203.192471 
L 181.092225 197.872941 
L 181.141204 197.872941 
L 181.141204 192.553412 
L 181.258501 192.553412 
L 181.258501 187.233882 
L 181.299186 187.233882 
L 181.299186 181.914353 
L 181.343707 181.914353 
L 181.343707 176.594824 
L 181.525928 176.594824 
L 181.525928 171.275294 
L 181.602196 171.275294 
L 181.602196 165.955765 
L 181.680725 165.955765 
L 181.680725 160.636235 
L 181.855908 160.636235 
L 181.855908 155.316706 
L 181.902941 155.316706 
L 181.902941 149.997176 
L 181.97011 149.997176 
L 181.97011 144.677647 
L 182.099962 144.677647 
L 182.099962 139.358118 
L 182.241399 139.358118 
L 182.241399 134.038588 
L 182.361966 134.038588 
L 182.361966 128.719059 
L 182.416403 128.719059 
L 182.416403 123.399529 
L 182.646017 123.399529 
L 182.646017 118.08 
L 182.794322 118.08 
L 182.794322 112.760471 
L 182.83182 112.760471 
L 182.83182 107.440941 
L 183.314974 107.440941 
L 183.314974 102.121412 
L 183.511809 102.121412 
L 183.511809 96.801882 
L 183.641896 96.801882 
L 183.641896 91.482353 
L 183.921085 91.482353 
L 183.921085 86.162824 
L 184.11961 86.162824 
L 184.11961 80.843294 
L 185.014308 80.843294 
L 185.014308 75.523765 
L 185.039041 75.523765 
L 185.039041 70.204235 
L 185.064815 70.204235 
L 185.064815 64.884706 
L 185.10448 64.884706 
L 185.10448 59.565176 
L 185.129095 59.565176 
L 185.129095 54.245647 
L 185.147268 54.245647 
L 185.147268 48.926118 
L 185.197419 48.926118 
L 185.197419 43.606588 
L 185.209137 43.606588 
L 185.209137 38.287059 
L 185.224041 38.287059 
L 185.224041 32.967529 
L 185.280355 32.967529 
L 185.280355 27.648 
L 360.8064 27.648 
" style="fill:none;stroke:#f5deb3;stroke-linecap:square;stroke-width:4;"/>
   </g>
   <g id="line2d_2">
    <defs>
     <path d="M -0 7.778175 
L 7.778175 0 
L 0 -7.778175 
L -7.778175 -0 
z
" id="mf6d3565356" style="stroke:#f5deb3;stroke-linejoin:miter;stroke-width:1.5;"/>
    </defs>
    <g>
     <use style="fill:#f5deb3;stroke:#f5deb3;stroke-linejoin:miter;stroke-width:1.5;" x="68.65718" xlink:href="#mf6d3565356" y="293.624471"/>
     <use style="fill:#f5deb3;stroke:#f5deb3;stroke-linejoin:miter;stroke-width:1.5;" x="166.521015" xlink:href="#mf6d3565356" y="245.748706"/>
     <use style="fill:#f5deb3;stroke:#f5deb3;stroke-linejoin:miter;stroke-width:1.5;" x="182.361966" xlink:href="#mf6d3565356" y="128.719059"/>
     <use style="fill:#f5deb3;stroke:#f5deb3;stroke-linejoin:miter;stroke-width:1.5;" x="185.280355" xlink:href="#mf6d3565356" y="32.967529"/>
     <use style="fill:#f5deb3;stroke:#f5deb3;stroke-linejoin:miter;stroke-width:1.5;" x="185.280355" xlink:href="#mf6d3565356" y="27.648"/>
     <use style="fill:#f5deb3;stroke:#f5deb3;stroke-linejoin:miter;stroke-width:1.5;" x="360.8064" xlink:href="#mf6d3565356" y="27.648"/>
    </g>
   </g>
   <g id="line2d_3">
    <path style="fill:none;stroke:#f5deb3;stroke-linecap:square;stroke-width:4;"/>
    <g/>
   </g>
   <g id="line2d_4">
    <path d="M 360.8064 27.648 
L 380.514816 33.07392 
" style="fill:none;stroke:#f5deb3;stroke-linecap:square;stroke-width:4;"/>
    <g>
     <use style="fill:#f5deb3;stroke:#f5deb3;stroke-linejoin:miter;stroke-width:1.5;" x="360.8064" xlink:href="#mf6d3565356" y="27.648"/>
     <use style="fill:#f5deb3;stroke:#f5deb3;stroke-linejoin:miter;stroke-width:1.5;" x="380.514816" xlink:href="#mf6d3565356" y="33.07392"/>
    </g>
   </g>
   <g id="matplotlib.axis_1">
    <g id="xtick_1">
     <g id="line2d_5">
      <path clip-path="url(#pc1ae9fdb30)" d="M 57.6 298.944 
L 57.6 27.648 
" style="fill:none;stroke:#b0b0b0;stroke-linecap:square;stroke-width:0.8;"/>
     </g>
     <g id="line2d_6">
      <defs>
       <path d="M 0 0 
L 0 3.5 
" id="m8c75424d14" style="stroke:#000000;stroke-width:0.8;"/>
      </defs>
      <g>
       <use style="stroke:#000000;stroke-width:0.8;" x="57.6" xlink:href="#m8c75424d14" y="298.944"/>
      </g>
     </g>
     <g id="text_1">
      <!-- 0 -->
      <g transform="translate(52.191875 318.861344)scale(0.17 -0.17)">
       <defs>
        <path d="M 2034 4250 
Q 1547 4250 1301 3770 
Q 1056 3291 1056 2328 
Q 1056 1369 1301 889 
Q 1547 409 2034 409 
Q 2525 409 2770 889 
Q 3016 1369 3016 2328 
Q 3016 3291 2770 3770 
Q 2525 4250 2034 4250 
z
M 2034 4750 
Q 2819 4750 3233 4129 
Q 3647 3509 3647 2328 
Q 3647 1150 3233 529 
Q 2819 -91 2034 -91 
Q 1250 -91 836 529 
Q 422 1150 422 2328 
Q 422 3509 836 4129 
Q 1250 4750 2034 4750 
z
" id="DejaVuSans-30" transform="scale(0.015625)"/>
       </defs>
       <use xlink:href="#DejaVuSans-30"/>
      </g>
     </g>
    </g>
    <g id="xtick_2">
     <g id="line2d_7">
      <path clip-path="url(#pc1ae9fdb30)" d="M 144.2304 298.944 
L 144.2304 27.648 
" style="fill:none;stroke:#b0b0b0;stroke-linecap:square;stroke-width:0.8;"/>
     </g>
     <g id="line2d_8">
      <g>
       <use style="stroke:#000000;stroke-width:0.8;" x="144.2304" xlink:href="#m8c75424d14" y="298.944"/>
      </g>
     </g>
     <g id="text_2">
      <!-- 2 -->
      <g transform="translate(138.822275 318.861344)scale(0.17 -0.17)">
       <defs>
        <path d="M 1228 531 
L 3431 531 
L 3431 0 
L 469 0 
L 469 531 
Q 828 903 1448 1529 
Q 2069 2156 2228 2338 
Q 2531 2678 2651 2914 
Q 2772 3150 2772 3378 
Q 2772 3750 2511 3984 
Q 2250 4219 1831 4219 
Q 1534 4219 1204 4116 
Q 875 4013 500 3803 
L 500 4441 
Q 881 4594 1212 4672 
Q 1544 4750 1819 4750 
Q 2544 4750 2975 4387 
Q 3406 4025 3406 3419 
Q 3406 3131 3298 2873 
Q 3191 2616 2906 2266 
Q 2828 2175 2409 1742 
Q 1991 1309 1228 531 
z
" id="DejaVuSans-32" transform="scale(0.015625)"/>
       </defs>
       <use xlink:href="#DejaVuSans-32"/>
      </g>
     </g>
    </g>
    <g id="xtick_3">
     <g id="line2d_9">
      <path clip-path="url(#pc1ae9fdb30)" d="M 230.8608 298.944 
L 230.8608 27.648 
" style="fill:none;stroke:#b0b0b0;stroke-linecap:square;stroke-width:0.8;"/>
     </g>
     <g id="line2d_10">
      <g>
       <use style="stroke:#000000;stroke-width:0.8;" x="230.8608" xlink:href="#m8c75424d14" y="298.944"/>
      </g>
     </g>
     <g id="text_3">
      <!-- 4 -->
      <g transform="translate(225.452675 318.861344)scale(0.17 -0.17)">
       <defs>
        <path d="M 2419 4116 
L 825 1625 
L 2419 1625 
L 2419 4116 
z
M 2253 4666 
L 3047 4666 
L 3047 1625 
L 3713 1625 
L 3713 1100 
L 3047 1100 
L 3047 0 
L 2419 0 
L 2419 1100 
L 313 1100 
L 313 1709 
L 2253 4666 
z
" id="DejaVuSans-34" transform="scale(0.015625)"/>
       </defs>
       <use xlink:href="#DejaVuSans-34"/>
      </g>
     </g>
    </g>
    <g id="xtick_4">
     <g id="line2d_11">
      <path clip-path="url(#pc1ae9fdb30)" d="M 317.4912 298.944 
L 317.4912 27.648 
" style="fill:none;stroke:#b0b0b0;stroke-linecap:square;stroke-width:0.8;"/>
     </g>
     <g id="line2d_12">
      <g>
       <use style="stroke:#000000;stroke-width:0.8;" x="317.4912" xlink:href="#m8c75424d14" y="298.944"/>
      </g>
     </g>
     <g id="text_4">
      <!-- 6 -->
      <g transform="translate(312.083075 318.861344)scale(0.17 -0.17)">
       <defs>
        <path d="M 2113 2584 
Q 1688 2584 1439 2293 
Q 1191 2003 1191 1497 
Q 1191 994 1439 701 
Q 1688 409 2113 409 
Q 2538 409 2786 701 
Q 3034 994 3034 1497 
Q 3034 2003 2786 2293 
Q 2538 2584 2113 2584 
z
M 3366 4563 
L 3366 3988 
Q 3128 4100 2886 4159 
Q 2644 4219 2406 4219 
Q 1781 4219 1451 3797 
Q 1122 3375 1075 2522 
Q 1259 2794 1537 2939 
Q 1816 3084 2150 3084 
Q 2853 3084 3261 2657 
Q 3669 2231 3669 1497 
Q 3669 778 3244 343 
Q 2819 -91 2113 -91 
Q 1303 -91 875 529 
Q 447 1150 447 2328 
Q 447 3434 972 4092 
Q 1497 4750 2381 4750 
Q 2619 4750 2861 4703 
Q 3103 4656 3366 4563 
z
" id="DejaVuSans-36" transform="scale(0.015625)"/>
       </defs>
       <use xlink:href="#DejaVuSans-36"/>
      </g>
     </g>
    </g>
    <g id="xtick_5">
     <g id="line2d_13">
      <path clip-path="url(#pc1ae9fdb30)" d="M 100.9152 298.944 
L 100.9152 27.648 
" style="fill:none;stroke:#b0b0b0;stroke-linecap:square;stroke-width:0.8;"/>
     </g>
     <g id="line2d_14">
      <defs>
       <path d="M 0 0 
L 0 2 
" id="m858d936753" style="stroke:#000000;stroke-width:0.6;"/>
      </defs>
      <g>
       <use style="stroke:#000000;stroke-width:0.6;" x="100.9152" xlink:href="#m858d936753" y="298.944"/>
      </g>
     </g>
    </g>
    <g id="xtick_6">
     <g id="line2d_15">
      <path clip-path="url(#pc1ae9fdb30)" d="M 187.5456 298.944 
L 187.5456 27.648 
" style="fill:none;stroke:#b0b0b0;stroke-linecap:square;stroke-width:0.8;"/>
     </g>
     <g id="line2d_16">
      <g>
       <use style="stroke:#000000;stroke-width:0.6;" x="187.5456" xlink:href="#m858d936753" y="298.944"/>
      </g>
     </g>
    </g>
    <g id="xtick_7">
     <g id="line2d_17">
      <path clip-path="url(#pc1ae9fdb30)" d="M 274.176 298.944 
L 274.176 27.648 
" style="fill:none;stroke:#b0b0b0;stroke-linecap:square;stroke-width:0.8;"/>
     </g>
     <g id="line2d_18">
      <g>
       <use style="stroke:#000000;stroke-width:0.6;" x="274.176" xlink:href="#m858d936753" y="298.944"/>
      </g>
     </g>
    </g>
    <g id="xtick_8">
     <g id="line2d_19">
      <path clip-path="url(#pc1ae9fdb30)" d="M 360.8064 298.944 
L 360.8064 27.648 
" style="fill:none;stroke:#b0b0b0;stroke-linecap:square;stroke-width:0.8;"/>
     </g>
     <g id="line2d_20">
      <g>
       <use style="stroke:#000000;stroke-width:0.6;" x="360.8064" xlink:href="#m858d936753" y="298.944"/>
      </g>
     </g>
    </g>
    <g id="text_5">
     <!-- log10(# f-evals / dimension) -->
     <g transform="translate(88.823278 339.314156)scale(0.17 -0.17)">
      <defs>
       <path d="M 603 4863 
L 1178 4863 
L 1178 0 
L 603 0 
L 603 4863 
z
" id="DejaVuSans-6c" transform="scale(0.015625)"/>
       <path d="M 1959 3097 
Q 1497 3097 1228 2736 
Q 959 2375 959 1747 
Q 959 1119 1226 758 
Q 1494 397 1959 397 
Q 2419 397 2687 759 
Q 2956 1122 2956 1747 
Q 2956 2369 2687 2733 
Q 2419 3097 1959 3097 
z
M 1959 3584 
Q 2709 3584 3137 3096 
Q 3566 2609 3566 1747 
Q 3566 888 3137 398 
Q 2709 -91 1959 -91 
Q 1206 -91 779 398 
Q 353 888 353 1747 
Q 353 2609 779 3096 
Q 1206 3584 1959 3584 
z
" id="DejaVuSans-6f" transform="scale(0.015625)"/>
       <path d="M 2906 1791 
Q 2906 2416 2648 2759 
Q 2391 3103 1925 3103 
Q 1463 3103 1205 2759 
Q 947 2416 947 1791 
Q 947 1169 1205 825 
Q 1463 481 1925 481 
Q 2391 481 2648 825 
Q 2906 1169 2906 1791 
z
M 3481 434 
Q 3481 -459 3084 -895 
Q 2688 -1331 1869 -1331 
Q 1566 -1331 1297 -1286 
Q 1028 -1241 775 -1147 
L 775 -588 
Q 1028 -725 1275 -790 
Q 1522 -856 1778 -856 
Q 2344 -856 2625 -561 
Q 2906 -266 2906 331 
L 2906 616 
Q 2728 306 2450 153 
Q 2172 0 1784 0 
Q 1141 0 747 490 
Q 353 981 353 1791 
Q 353 2603 747 3093 
Q 1141 3584 1784 3584 
Q 2172 3584 2450 3431 
Q 2728 3278 2906 2969 
L 2906 3500 
L 3481 3500 
L 3481 434 
z
" id="DejaVuSans-67" transform="scale(0.015625)"/>
       <path d="M 794 531 
L 1825 531 
L 1825 4091 
L 703 3866 
L 703 4441 
L 1819 4666 
L 2450 4666 
L 2450 531 
L 3481 531 
L 3481 0 
L 794 0 
L 794 531 
z
" id="DejaVuSans-31" transform="scale(0.015625)"/>
       <path d="M 1984 4856 
Q 1566 4138 1362 3434 
Q 1159 2731 1159 2009 
Q 1159 1288 1364 580 
Q 1569 -128 1984 -844 
L 1484 -844 
Q 1016 -109 783 600 
Q 550 1309 550 2009 
Q 550 2706 781 3412 
Q 1013 4119 1484 4856 
L 1984 4856 
z
" id="DejaVuSans-28" transform="scale(0.015625)"/>
       <path d="M 3272 2816 
L 2363 2816 
L 2100 1772 
L 3016 1772 
L 3272 2816 
z
M 2803 4594 
L 2478 3297 
L 3391 3297 
L 3719 4594 
L 4219 4594 
L 3897 3297 
L 4872 3297 
L 4872 2816 
L 3775 2816 
L 3519 1772 
L 4513 1772 
L 4513 1294 
L 3397 1294 
L 3072 0 
L 2572 0 
L 2894 1294 
L 1978 1294 
L 1656 0 
L 1153 0 
L 1478 1294 
L 494 1294 
L 494 1772 
L 1594 1772 
L 1856 2816 
L 850 2816 
L 850 3297 
L 1978 3297 
L 2297 4594 
L 2803 4594 
z
" id="DejaVuSans-23" transform="scale(0.015625)"/>
       <path id="DejaVuSans-20" transform="scale(0.015625)"/>
       <path d="M 2375 4863 
L 2375 4384 
L 1825 4384 
Q 1516 4384 1395 4259 
Q 1275 4134 1275 3809 
L 1275 3500 
L 2222 3500 
L 2222 3053 
L 1275 3053 
L 1275 0 
L 697 0 
L 697 3053 
L 147 3053 
L 147 3500 
L 697 3500 
L 697 3744 
Q 697 4328 969 4595 
Q 1241 4863 1831 4863 
L 2375 4863 
z
" id="DejaVuSans-66" transform="scale(0.015625)"/>
       <path d="M 313 2009 
L 1997 2009 
L 1997 1497 
L 313 1497 
L 313 2009 
z
" id="DejaVuSans-2d" transform="scale(0.015625)"/>
       <path d="M 3597 1894 
L 3597 1613 
L 953 1613 
Q 991 1019 1311 708 
Q 1631 397 2203 397 
Q 2534 397 2845 478 
Q 3156 559 3463 722 
L 3463 178 
Q 3153 47 2828 -22 
Q 2503 -91 2169 -91 
Q 1331 -91 842 396 
Q 353 884 353 1716 
Q 353 2575 817 3079 
Q 1281 3584 2069 3584 
Q 2775 3584 3186 3129 
Q 3597 2675 3597 1894 
z
M 3022 2063 
Q 3016 2534 2758 2815 
Q 2500 3097 2075 3097 
Q 1594 3097 1305 2825 
Q 1016 2553 972 2059 
L 3022 2063 
z
" id="DejaVuSans-65" transform="scale(0.015625)"/>
       <path d="M 191 3500 
L 800 3500 
L 1894 563 
L 2988 3500 
L 3597 3500 
L 2284 0 
L 1503 0 
L 191 3500 
z
" id="DejaVuSans-76" transform="scale(0.015625)"/>
       <path d="M 2194 1759 
Q 1497 1759 1228 1600 
Q 959 1441 959 1056 
Q 959 750 1161 570 
Q 1363 391 1709 391 
Q 2188 391 2477 730 
Q 2766 1069 2766 1631 
L 2766 1759 
L 2194 1759 
z
M 3341 1997 
L 3341 0 
L 2766 0 
L 2766 531 
Q 2569 213 2275 61 
Q 1981 -91 1556 -91 
Q 1019 -91 701 211 
Q 384 513 384 1019 
Q 384 1609 779 1909 
Q 1175 2209 1959 2209 
L 2766 2209 
L 2766 2266 
Q 2766 2663 2505 2880 
Q 2244 3097 1772 3097 
Q 1472 3097 1187 3025 
Q 903 2953 641 2809 
L 641 3341 
Q 956 3463 1253 3523 
Q 1550 3584 1831 3584 
Q 2591 3584 2966 3190 
Q 3341 2797 3341 1997 
z
" id="DejaVuSans-61" transform="scale(0.015625)"/>
       <path d="M 2834 3397 
L 2834 2853 
Q 2591 2978 2328 3040 
Q 2066 3103 1784 3103 
Q 1356 3103 1142 2972 
Q 928 2841 928 2578 
Q 928 2378 1081 2264 
Q 1234 2150 1697 2047 
L 1894 2003 
Q 2506 1872 2764 1633 
Q 3022 1394 3022 966 
Q 3022 478 2636 193 
Q 2250 -91 1575 -91 
Q 1294 -91 989 -36 
Q 684 19 347 128 
L 347 722 
Q 666 556 975 473 
Q 1284 391 1588 391 
Q 1994 391 2212 530 
Q 2431 669 2431 922 
Q 2431 1156 2273 1281 
Q 2116 1406 1581 1522 
L 1381 1569 
Q 847 1681 609 1914 
Q 372 2147 372 2553 
Q 372 3047 722 3315 
Q 1072 3584 1716 3584 
Q 2034 3584 2315 3537 
Q 2597 3491 2834 3397 
z
" id="DejaVuSans-73" transform="scale(0.015625)"/>
       <path d="M 1625 4666 
L 2156 4666 
L 531 -594 
L 0 -594 
L 1625 4666 
z
" id="DejaVuSans-2f" transform="scale(0.015625)"/>
       <path d="M 2906 2969 
L 2906 4863 
L 3481 4863 
L 3481 0 
L 2906 0 
L 2906 525 
Q 2725 213 2448 61 
Q 2172 -91 1784 -91 
Q 1150 -91 751 415 
Q 353 922 353 1747 
Q 353 2572 751 3078 
Q 1150 3584 1784 3584 
Q 2172 3584 2448 3432 
Q 2725 3281 2906 2969 
z
M 947 1747 
Q 947 1113 1208 752 
Q 1469 391 1925 391 
Q 2381 391 2643 752 
Q 2906 1113 2906 1747 
Q 2906 2381 2643 2742 
Q 2381 3103 1925 3103 
Q 1469 3103 1208 2742 
Q 947 2381 947 1747 
z
" id="DejaVuSans-64" transform="scale(0.015625)"/>
       <path d="M 603 3500 
L 1178 3500 
L 1178 0 
L 603 0 
L 603 3500 
z
M 603 4863 
L 1178 4863 
L 1178 4134 
L 603 4134 
L 603 4863 
z
" id="DejaVuSans-69" transform="scale(0.015625)"/>
       <path d="M 3328 2828 
Q 3544 3216 3844 3400 
Q 4144 3584 4550 3584 
Q 5097 3584 5394 3201 
Q 5691 2819 5691 2113 
L 5691 0 
L 5113 0 
L 5113 2094 
Q 5113 2597 4934 2840 
Q 4756 3084 4391 3084 
Q 3944 3084 3684 2787 
Q 3425 2491 3425 1978 
L 3425 0 
L 2847 0 
L 2847 2094 
Q 2847 2600 2669 2842 
Q 2491 3084 2119 3084 
Q 1678 3084 1418 2786 
Q 1159 2488 1159 1978 
L 1159 0 
L 581 0 
L 581 3500 
L 1159 3500 
L 1159 2956 
Q 1356 3278 1631 3431 
Q 1906 3584 2284 3584 
Q 2666 3584 2933 3390 
Q 3200 3197 3328 2828 
z
" id="DejaVuSans-6d" transform="scale(0.015625)"/>
       <path d="M 3513 2113 
L 3513 0 
L 2938 0 
L 2938 2094 
Q 2938 2591 2744 2837 
Q 2550 3084 2163 3084 
Q 1697 3084 1428 2787 
Q 1159 2491 1159 1978 
L 1159 0 
L 581 0 
L 581 3500 
L 1159 3500 
L 1159 2956 
Q 1366 3272 1645 3428 
Q 1925 3584 2291 3584 
Q 2894 3584 3203 3211 
Q 3513 2838 3513 2113 
z
" id="DejaVuSans-6e" transform="scale(0.015625)"/>
       <path d="M 513 4856 
L 1013 4856 
Q 1481 4119 1714 3412 
Q 1947 2706 1947 2009 
Q 1947 1309 1714 600 
Q 1481 -109 1013 -844 
L 513 -844 
Q 928 -128 1133 580 
Q 1338 1288 1338 2009 
Q 1338 2731 1133 3434 
Q 928 4138 513 4856 
z
" id="DejaVuSans-29" transform="scale(0.015625)"/>
      </defs>
      <use xlink:href="#DejaVuSans-6c"/>
      <use x="27.783203" xlink:href="#DejaVuSans-6f"/>
      <use x="88.964844" xlink:href="#DejaVuSans-67"/>
      <use x="152.441406" xlink:href="#DejaVuSans-31"/>
      <use x="216.064453" xlink:href="#DejaVuSans-30"/>
      <use x="279.6875" xlink:href="#DejaVuSans-28"/>
      <use x="318.701172" xlink:href="#DejaVuSans-23"/>
      <use x="402.490234" xlink:href="#DejaVuSans-20"/>
      <use x="434.277344" xlink:href="#DejaVuSans-66"/>
      <use x="463.982422" xlink:href="#DejaVuSans-2d"/>
      <use x="500.066406" xlink:href="#DejaVuSans-65"/>
      <use x="561.589844" xlink:href="#DejaVuSans-76"/>
      <use x="620.769531" xlink:href="#DejaVuSans-61"/>
      <use x="682.048828" xlink:href="#DejaVuSans-6c"/>
      <use x="709.832031" xlink:href="#DejaVuSans-73"/>
      <use x="761.931641" xlink:href="#DejaVuSans-20"/>
      <use x="793.71875" xlink:href="#DejaVuSans-2f"/>
      <use x="827.410156" xlink:href="#DejaVuSans-20"/>
      <use x="859.197266" xlink:href="#DejaVuSans-64"/>
      <use x="922.673828" xlink:href="#DejaVuSans-69"/>
      <use x="950.457031" xlink:href="#DejaVuSans-6d"/>
      <use x="1047.869141" xlink:href="#DejaVuSans-65"/>
      <use x="1109.392578" xlink:href="#DejaVuSans-6e"/>
      <use x="1172.771484" xlink:href="#DejaVuSans-73"/>
      <use x="1224.871094" xlink:href="#DejaVuSans-69"/>
      <use x="1252.654297" xlink:href="#DejaVuSans-6f"/>
      <use x="1313.835938" xlink:href="#DejaVuSans-6e"/>
      <use x="1377.214844" xlink:href="#DejaVuSans-29"/>
     </g>
    </g>
   </g>
   <g id="matplotlib.axis_2">
    <g id="ytick_1">
     <g id="line2d_21">
      <path clip-path="url(#pc1ae9fdb30)" d="M 57.6 298.944 
L 360.8064 298.944 
" style="fill:none;stroke:#b0b0b0;stroke-linecap:square;stroke-width:0.8;"/>
     </g>
     <g id="line2d_22">
      <defs>
       <path d="M 0 0 
L -3.5 0 
" id="mff584a4ac5" style="stroke:#000000;stroke-width:0.8;"/>
      </defs>
      <g>
       <use style="stroke:#000000;stroke-width:0.8;" x="57.6" xlink:href="#mff584a4ac5" y="298.944"/>
      </g>
     </g>
     <g id="text_6">
      <!-- 0.0 -->
      <g transform="translate(25.155 305.02275)scale(0.16 -0.16)">
       <defs>
        <path d="M 684 794 
L 1344 794 
L 1344 0 
L 684 0 
L 684 794 
z
" id="DejaVuSans-2e" transform="scale(0.015625)"/>
       </defs>
       <use xlink:href="#DejaVuSans-30"/>
       <use x="63.623047" xlink:href="#DejaVuSans-2e"/>
       <use x="95.410156" xlink:href="#DejaVuSans-30"/>
      </g>
     </g>
    </g>
    <g id="ytick_2">
     <g id="line2d_23">
      <path clip-path="url(#pc1ae9fdb30)" d="M 57.6 244.6848 
L 360.8064 244.6848 
" style="fill:none;stroke:#b0b0b0;stroke-linecap:square;stroke-width:0.8;"/>
     </g>
     <g id="line2d_24">
      <g>
       <use style="stroke:#000000;stroke-width:0.8;" x="57.6" xlink:href="#mff584a4ac5" y="244.6848"/>
      </g>
     </g>
     <g id="text_7">
      <!-- 0.2 -->
      <g transform="translate(25.155 250.76355)scale(0.16 -0.16)">
       <use xlink:href="#DejaVuSans-30"/>
       <use x="63.623047" xlink:href="#DejaVuSans-2e"/>
       <use x="95.410156" xlink:href="#DejaVuSans-32"/>
      </g>
     </g>
    </g>
    <g id="ytick_3">
     <g id="line2d_25">
      <path clip-path="url(#pc1ae9fdb30)" d="M 57.6 190.4256 
L 360.8064 190.4256 
" style="fill:none;stroke:#b0b0b0;stroke-linecap:square;stroke-width:0.8;"/>
     </g>
     <g id="line2d_26">
      <g>
       <use style="stroke:#000000;stroke-width:0.8;" x="57.6" xlink:href="#mff584a4ac5" y="190.4256"/>
      </g>
     </g>
     <g id="text_8">
      <!-- 0.4 -->
      <g transform="translate(25.155 196.50435)scale(0.16 -0.16)">
       <use xlink:href="#DejaVuSans-30"/>
       <use x="63.623047" xlink:href="#DejaVuSans-2e"/>
       <use x="95.410156" xlink:href="#DejaVuSans-34"/>
      </g>
     </g>
    </g>
    <g id="ytick_4">
     <g id="line2d_27">
      <path clip-path="url(#pc1ae9fdb30)" d="M 57.6 136.1664 
L 360.8064 136.1664 
" style="fill:none;stroke:#b0b0b0;stroke-linecap:square;stroke-width:0.8;"/>
     </g>
     <g id="line2d_28">
      <g>
       <use style="stroke:#000000;stroke-width:0.8;" x="57.6" xlink:href="#mff584a4ac5" y="136.1664"/>
      </g>
     </g>
     <g id="text_9">
      <!-- 0.6 -->
      <g transform="translate(25.155 142.24515)scale(0.16 -0.16)">
       <use xlink:href="#DejaVuSans-30"/>
       <use x="63.623047" xlink:href="#DejaVuSans-2e"/>
       <use x="95.410156" xlink:href="#DejaVuSans-36"/>
      </g>
     </g>
    </g>
    <g id="ytick_5">
     <g id="line2d_29">
      <path clip-path="url(#pc1ae9fdb30)" d="M 57.6 81.9072 
L 360.8064 81.9072 
" style="fill:none;stroke:#b0b0b0;stroke-linecap:square;stroke-width:0.8;"/>
     </g>
     <g id="line2d_30">
      <g>
       <use style="stroke:#000000;stroke-width:0.8;" x="57.6" xlink:href="#mff584a4ac5" y="81.9072"/>
      </g>
     </g>
     <g id="text_10">
      <!-- 0.8 -->
      <g transform="translate(25.155 87.98595)scale(0.16 -0.16)">
       <defs>
        <path d="M 2034 2216 
Q 1584 2216 1326 1975 
Q 1069 1734 1069 1313 
Q 1069 891 1326 650 
Q 1584 409 2034 409 
Q 2484 409 2743 651 
Q 3003 894 3003 1313 
Q 3003 1734 2745 1975 
Q 2488 2216 2034 2216 
z
M 1403 2484 
Q 997 2584 770 2862 
Q 544 3141 544 3541 
Q 544 4100 942 4425 
Q 1341 4750 2034 4750 
Q 2731 4750 3128 4425 
Q 3525 4100 3525 3541 
Q 3525 3141 3298 2862 
Q 3072 2584 2669 2484 
Q 3125 2378 3379 2068 
Q 3634 1759 3634 1313 
Q 3634 634 3220 271 
Q 2806 -91 2034 -91 
Q 1263 -91 848 271 
Q 434 634 434 1313 
Q 434 1759 690 2068 
Q 947 2378 1403 2484 
z
M 1172 3481 
Q 1172 3119 1398 2916 
Q 1625 2713 2034 2713 
Q 2441 2713 2670 2916 
Q 2900 3119 2900 3481 
Q 2900 3844 2670 4047 
Q 2441 4250 2034 4250 
Q 1625 4250 1398 4047 
Q 1172 3844 1172 3481 
z
" id="DejaVuSans-38" transform="scale(0.015625)"/>
       </defs>
       <use xlink:href="#DejaVuSans-30"/>
       <use x="63.623047" xlink:href="#DejaVuSans-2e"/>
       <use x="95.410156" xlink:href="#DejaVuSans-38"/>
      </g>
     </g>
    </g>
    <g id="ytick_6">
     <g id="line2d_31">
      <path clip-path="url(#pc1ae9fdb30)" d="M 57.6 27.648 
L 360.8064 27.648 
" style="fill:none;stroke:#b0b0b0;stroke-linecap:square;stroke-width:0.8;"/>
     </g>
     <g id="line2d_32">
      <g>
       <use style="stroke:#000000;stroke-width:0.8;" x="57.6" xlink:href="#mff584a4ac5" y="27.648"/>
      </g>
     </g>
     <g id="text_11">
      <!-- 1.0 -->
      <g transform="translate(25.155 33.72675)scale(0.16 -0.16)">
       <use xlink:href="#DejaVuSans-31"/>
       <use x="63.623047" xlink:href="#DejaVuSans-2e"/>
       <use x="95.410156" xlink:href="#DejaVuSans-30"/>
      </g>
     </g>
    </g>
    <g id="text_12">
     <!-- Fraction of function,target pairs -->
     <g transform="translate(17.619531 297.681)rotate(-90)scale(0.17 -0.17)">
      <defs>
       <path d="M 628 4666 
L 3309 4666 
L 3309 4134 
L 1259 4134 
L 1259 2759 
L 3109 2759 
L 3109 2228 
L 1259 2228 
L 1259 0 
L 628 0 
L 628 4666 
z
" id="DejaVuSans-46" transform="scale(0.015625)"/>
       <path d="M 2631 2963 
Q 2534 3019 2420 3045 
Q 2306 3072 2169 3072 
Q 1681 3072 1420 2755 
Q 1159 2438 1159 1844 
L 1159 0 
L 581 0 
L 581 3500 
L 1159 3500 
L 1159 2956 
Q 1341 3275 1631 3429 
Q 1922 3584 2338 3584 
Q 2397 3584 2469 3576 
Q 2541 3569 2628 3553 
L 2631 2963 
z
" id="DejaVuSans-72" transform="scale(0.015625)"/>
       <path d="M 3122 3366 
L 3122 2828 
Q 2878 2963 2633 3030 
Q 2388 3097 2138 3097 
Q 1578 3097 1268 2742 
Q 959 2388 959 1747 
Q 959 1106 1268 751 
Q 1578 397 2138 397 
Q 2388 397 2633 464 
Q 2878 531 3122 666 
L 3122 134 
Q 2881 22 2623 -34 
Q 2366 -91 2075 -91 
Q 1284 -91 818 406 
Q 353 903 353 1747 
Q 353 2603 823 3093 
Q 1294 3584 2113 3584 
Q 2378 3584 2631 3529 
Q 2884 3475 3122 3366 
z
" id="DejaVuSans-63" transform="scale(0.015625)"/>
       <path d="M 1172 4494 
L 1172 3500 
L 2356 3500 
L 2356 3053 
L 1172 3053 
L 1172 1153 
Q 1172 725 1289 603 
Q 1406 481 1766 481 
L 2356 481 
L 2356 0 
L 1766 0 
Q 1100 0 847 248 
Q 594 497 594 1153 
L 594 3053 
L 172 3053 
L 172 3500 
L 594 3500 
L 594 4494 
L 1172 4494 
z
" id="DejaVuSans-74" transform="scale(0.015625)"/>
       <path d="M 544 1381 
L 544 3500 
L 1119 3500 
L 1119 1403 
Q 1119 906 1312 657 
Q 1506 409 1894 409 
Q 2359 409 2629 706 
Q 2900 1003 2900 1516 
L 2900 3500 
L 3475 3500 
L 3475 0 
L 2900 0 
L 2900 538 
Q 2691 219 2414 64 
Q 2138 -91 1772 -91 
Q 1169 -91 856 284 
Q 544 659 544 1381 
z
M 1991 3584 
L 1991 3584 
z
" id="DejaVuSans-75" transform="scale(0.015625)"/>
       <path d="M 750 794 
L 1409 794 
L 1409 256 
L 897 -744 
L 494 -744 
L 750 256 
L 750 794 
z
" id="DejaVuSans-2c" transform="scale(0.015625)"/>
       <path d="M 1159 525 
L 1159 -1331 
L 581 -1331 
L 581 3500 
L 1159 3500 
L 1159 2969 
Q 1341 3281 1617 3432 
Q 1894 3584 2278 3584 
Q 2916 3584 3314 3078 
Q 3713 2572 3713 1747 
Q 3713 922 3314 415 
Q 2916 -91 2278 -91 
Q 1894 -91 1617 61 
Q 1341 213 1159 525 
z
M 3116 1747 
Q 3116 2381 2855 2742 
Q 2594 3103 2138 3103 
Q 1681 3103 1420 2742 
Q 1159 2381 1159 1747 
Q 1159 1113 1420 752 
Q 1681 391 2138 391 
Q 2594 391 2855 752 
Q 3116 1113 3116 1747 
z
" id="DejaVuSans-70" transform="scale(0.015625)"/>
      </defs>
      <use xlink:href="#DejaVuSans-46"/>
      <use x="50.269531" xlink:href="#DejaVuSans-72"/>
      <use x="91.382812" xlink:href="#DejaVuSans-61"/>
      <use x="152.662109" xlink:href="#DejaVuSans-63"/>
      <use x="207.642578" xlink:href="#DejaVuSans-74"/>
      <use x="246.851562" xlink:href="#DejaVuSans-69"/>
      <use x="274.634766" xlink:href="#DejaVuSans-6f"/>
      <use x="335.816406" xlink:href="#DejaVuSans-6e"/>
      <use x="399.195312" xlink:href="#DejaVuSans-20"/>
      <use x="430.982422" xlink:href="#DejaVuSans-6f"/>
      <use x="492.164062" xlink:href="#DejaVuSans-66"/>
      <use x="527.369141" xlink:href="#DejaVuSans-20"/>
      <use x="559.15625" xlink:href="#DejaVuSans-66"/>
      <use x="594.361328" xlink:href="#DejaVuSans-75"/>
      <use x="657.740234" xlink:href="#DejaVuSans-6e"/>
      <use x="721.119141" xlink:href="#DejaVuSans-63"/>
      <use x="776.099609" xlink:href="#DejaVuSans-74"/>
      <use x="815.308594" xlink:href="#DejaVuSans-69"/>
      <use x="843.091797" xlink:href="#DejaVuSans-6f"/>
      <use x="904.273438" xlink:href="#DejaVuSans-6e"/>
      <use x="967.652344" xlink:href="#DejaVuSans-2c"/>
      <use x="999.439453" xlink:href="#DejaVuSans-74"/>
      <use x="1038.648438" xlink:href="#DejaVuSans-61"/>
      <use x="1099.927734" xlink:href="#DejaVuSans-72"/>
      <use x="1139.291016" xlink:href="#DejaVuSans-67"/>
      <use x="1202.767578" xlink:href="#DejaVuSans-65"/>
      <use x="1264.291016" xlink:href="#DejaVuSans-74"/>
      <use x="1303.5" xlink:href="#DejaVuSans-20"/>
      <use x="1335.287109" xlink:href="#DejaVuSans-70"/>
      <use x="1398.763672" xlink:href="#DejaVuSans-61"/>
      <use x="1460.042969" xlink:href="#DejaVuSans-69"/>
      <use x="1487.826172" xlink:href="#DejaVuSans-72"/>
      <use x="1528.939453" xlink:href="#DejaVuSans-73"/>
     </g>
    </g>
   </g>
   <g id="line2d_33">
    <defs>
     <path d="M 0 1.5 
C 0.397805 1.5 0.77937 1.341951 1.06066 1.06066 
C 1.341951 0.77937 1.5 0.397805 1.5 0 
C 1.5 -0.397805 1.341951 -0.77937 1.06066 -1.06066 
C 0.77937 -1.341951 0.397805 -1.5 0 -1.5 
C -0.397805 -1.5 -0.77937 -1.341951 -1.06066 -1.06066 
C -1.341951 -0.77937 -1.5 -0.397805 -1.5 0 
C -1.5 0.397805 -1.341951 0.77937 -1.06066 1.06066 
C -0.77937 1.341951 -0.397805 1.5 0 1.5 
z
" id="m23ddce74c3" style="stroke:#f5deb3;"/>
    </defs>
    <g>
     <use style="fill:#f5deb3;stroke:#f5deb3;" x="185.280355" xlink:href="#m23ddce74c3" y="27.648"/>
     <use style="fill:#f5deb3;stroke:#f5deb3;" x="185.280355" xlink:href="#m23ddce74c3" y="27.648"/>
    </g>
   </g>
   <g id="line2d_34">
    <defs>
     <path d="M 0 1.5 
C 0.397805 1.5 0.77937 1.341951 1.06066 1.06066 
C 1.341951 0.77937 1.5 0.397805 1.5 0 
C 1.5 -0.397805 1.341951 -0.77937 1.06066 -1.06066 
C 0.77937 -1.341951 0.397805 -1.5 0 -1.5 
C -0.397805 -1.5 -0.77937 -1.341951 -1.06066 -1.06066 
C -1.341951 -0.77937 -1.5 -0.397805 -1.5 0 
C -1.5 0.397805 -1.341951 0.77937 -1.06066 1.06066 
C -0.77937 1.341951 -0.397805 1.5 0 1.5 
z
" id="m1adcaf7850" style="stroke:#000080;"/>
    </defs>
    <g>
     <use style="fill:#000080;stroke:#000080;" x="284.091924" xlink:href="#m1adcaf7850" y="208.512"/>
     <use style="fill:#000080;stroke:#000080;" x="284.091924" xlink:href="#m1adcaf7850" y="208.512"/>
    </g>
   </g>
   <g id="line2d_35">
    <path d="M 1.245626 298.944 
L 1.245626 293.624471 
L 116.786884 293.624471 
L 116.786884 293.269835 
L 129.68393 293.269835 
L 129.68393 292.9152 
L 132.898456 292.9152 
L 132.898456 292.560565 
L 133.137444 292.560565 
L 133.137444 292.205929 
L 133.934523 292.205929 
L 133.934523 291.851294 
L 135.192238 291.851294 
L 135.192238 291.496659 
L 136.342518 291.496659 
L 136.342518 291.142024 
L 137.01694 291.142024 
L 137.01694 290.787388 
L 138.089879 290.787388 
L 138.089879 290.432753 
L 138.271509 290.432753 
L 138.271509 290.078118 
L 139.15425 290.078118 
L 139.15425 289.723482 
L 142.383778 289.723482 
L 142.383778 289.368847 
L 142.610675 289.368847 
L 142.610675 289.014212 
L 142.976156 289.014212 
L 142.976156 288.659576 
L 144.202161 288.659576 
L 144.202161 288.304941 
L 145.963382 288.304941 
L 145.963382 287.950306 
L 146.604268 287.950306 
L 146.604268 287.595671 
L 147.636622 287.595671 
L 147.636622 287.241035 
L 149.67269 287.241035 
L 149.67269 286.8864 
L 150.296105 286.8864 
L 150.296105 286.177129 
L 150.512877 286.177129 
L 150.512877 285.822494 
L 150.820175 285.822494 
L 150.820175 285.467859 
L 152.577534 285.467859 
L 152.577534 285.113224 
L 152.781618 285.113224 
L 152.781618 284.758588 
L 153.82665 284.758588 
L 153.82665 284.403953 
L 154.525097 284.403953 
L 154.525097 284.049318 
L 154.795227 284.049318 
L 154.795227 283.694682 
L 154.944823 283.694682 
L 154.966097 282.985412 
L 155.219526 282.985412 
L 155.219526 282.630776 
L 156.140591 282.630776 
L 156.140591 282.276141 
L 156.457508 282.276141 
L 156.457508 281.921506 
L 157.094758 281.921506 
L 157.094758 281.566871 
L 157.545018 281.566871 
L 157.591307 280.8576 
L 157.830187 280.8576 
L 157.830187 280.502965 
L 157.966635 280.502965 
L 157.966635 280.148329 
L 158.254458 280.148329 
L 158.272301 279.439059 
L 158.590624 279.439059 
L 158.590624 279.084424 
L 159.581159 279.084424 
L 159.672437 278.375153 
L 159.853676 278.375153 
L 159.853676 278.020518 
L 160.227078 278.020518 
L 160.227078 277.665882 
L 160.434898 277.665882 
L 160.434898 277.311247 
L 161.044929 277.311247 
L 161.044929 276.956612 
L 161.281989 276.956612 
L 161.281989 276.601976 
L 161.43336 276.601976 
L 161.43336 276.247341 
L 162.237584 276.247341 
L 162.237584 275.892706 
L 162.609465 275.892706 
L 162.680145 274.8288 
L 163.842777 274.8288 
L 163.842777 274.474165 
L 164.475322 274.474165 
L 164.564886 273.764894 
L 165.535057 273.764894 
L 165.535057 273.410259 
L 165.704015 273.410259 
L 165.704015 273.055624 
L 165.930915 273.055624 
L 165.930915 272.700988 
L 168.034484 272.700988 
L 168.034484 272.346353 
L 168.583651 272.346353 
L 168.583651 271.991718 
L 169.897486 271.991718 
L 169.897486 271.637082 
L 170.207364 271.637082 
L 170.3111 270.927812 
L 170.348681 270.927812 
L 170.348681 270.573176 
L 170.939983 270.573176 
L 170.939983 270.218541 
L 172.614094 270.218541 
L 172.614094 269.863906 
L 172.849758 269.863906 
L 172.8949 269.154635 
L 173.896557 269.154635 
L 173.896557 268.8 
L 174.047515 268.8 
L 174.047515 268.445365 
L 174.197271 268.445365 
L 174.258366 267.736094 
L 175.561692 267.736094 
L 175.561692 267.381459 
L 176.700357 267.381459 
L 176.700357 267.026824 
L 176.986116 267.026824 
L 176.999302 266.317553 
L 177.235084 266.317553 
L 177.235084 265.962918 
L 177.675723 265.962918 
L 177.675723 265.608282 
L 178.325593 265.608282 
L 178.325593 265.253647 
L 180.225567 265.253647 
L 180.225567 264.899012 
L 180.432623 264.899012 
L 180.432623 264.544376 
L 180.610247 264.544376 
L 180.610247 264.189741 
L 181.500004 264.189741 
L 181.500004 263.835106 
L 182.069785 263.835106 
L 182.069785 263.480471 
L 182.681376 263.480471 
L 182.681376 263.125835 
L 183.60366 263.125835 
L 183.654624 262.416565 
L 184.376271 262.416565 
L 184.376271 262.061929 
L 184.663492 262.061929 
L 184.750993 261.352659 
L 185.419881 261.352659 
L 185.419881 260.998024 
L 185.700016 260.998024 
L 185.700016 260.643388 
L 186.096301 260.643388 
L 186.096301 260.288753 
L 187.505112 260.288753 
L 187.505112 259.934118 
L 187.702024 259.934118 
L 187.741161 259.224847 
L 187.907972 259.224847 
L 187.907972 258.870212 
L 188.388921 258.870212 
L 188.388921 258.515576 
L 188.777004 258.515576 
L 188.777004 258.160941 
L 189.358189 258.160941 
L 189.358189 257.806306 
L 189.612712 257.806306 
L 189.612712 257.451671 
L 190.565691 257.451671 
L 190.565691 257.097035 
L 190.769655 257.097035 
L 190.769655 256.7424 
L 192.759018 256.7424 
L 192.774696 256.033129 
L 194.954173 256.033129 
L 194.954173 255.678494 
L 195.098261 255.678494 
L 195.098261 255.323859 
L 195.321055 255.323859 
L 195.321055 254.969224 
L 196.502551 254.969224 
L 196.502551 254.259953 
L 199.713199 254.259953 
L 199.713199 253.905318 
L 199.959841 253.905318 
L 199.959841 253.550682 
L 200.188887 253.550682 
L 200.188887 253.196047 
L 202.63629 253.196047 
L 202.63629 252.841412 
L 203.167646 252.841412 
L 203.179121 252.132141 
L 203.360156 252.132141 
L 203.360156 251.777506 
L 204.47865 251.777506 
L 204.47865 251.422871 
L 205.368062 251.422871 
L 205.368062 251.068235 
L 207.220545 251.068235 
L 207.220545 250.7136 
L 207.536476 250.7136 
L 207.623373 249.649694 
L 208.637822 249.649694 
L 208.637822 249.295059 
L 211.698565 249.295059 
L 211.698565 248.585788 
L 213.19802 248.585788 
L 213.19802 247.876518 
L 213.431799 247.876518 
L 213.431799 247.521882 
L 214.7624 247.521882 
L 214.7624 247.167247 
L 215.067133 247.167247 
L 215.067133 246.812612 
L 215.388429 246.812612 
L 215.388429 246.457976 
L 215.675676 246.457976 
L 215.675676 246.103341 
L 218.000796 246.103341 
L 218.000796 245.748706 
L 218.993381 245.748706 
L 218.993381 245.394071 
L 219.601043 245.394071 
L 219.601043 245.039435 
L 219.993279 245.039435 
L 219.993279 243.620894 
L 220.971681 243.620894 
L 221.051702 242.911624 
L 222.448832 242.911624 
L 222.47676 241.847718 
L 222.646661 241.847718 
L 222.646661 241.493082 
L 223.784715 241.493082 
L 223.784715 241.138447 
L 224.282012 241.138447 
L 224.282012 240.429176 
L 224.998109 240.429176 
L 225.000934 239.719906 
L 225.486264 239.719906 
L 225.486264 239.365271 
L 225.729996 239.365271 
L 225.729996 239.010635 
L 226.45612 239.010635 
L 226.45612 238.656 
L 227.570526 238.656 
L 227.570526 238.301365 
L 229.542805 238.301365 
L 229.545024 237.592094 
L 229.927253 237.592094 
L 229.927253 237.237459 
L 230.697277 237.237459 
L 230.697277 236.882824 
L 233.200396 236.882824 
L 233.200396 236.528188 
L 233.517482 236.528188 
L 233.517482 236.173553 
L 233.676877 236.173553 
L 233.676877 235.109647 
L 234.15596 235.109647 
L 234.23301 234.400376 
L 235.005655 234.400376 
L 235.005655 234.045741 
L 236.26128 234.045741 
L 236.262832 232.6272 
L 236.53109 232.6272 
L 236.53109 232.272565 
L 237.076412 232.272565 
L 237.142402 231.563294 
L 239.127919 231.563294 
L 239.127919 231.208659 
L 239.246339 231.208659 
L 239.246339 230.854024 
L 239.603809 230.854024 
L 239.603809 230.499388 
L 240.902235 230.499388 
L 240.902235 230.144753 
L 241.514299 230.144753 
L 241.514299 229.790118 
L 243.44381 229.790118 
L 243.44381 229.435482 
L 243.86924 229.435482 
L 243.86924 229.080847 
L 244.335967 229.080847 
L 244.335967 228.726212 
L 245.111502 228.726212 
L 245.111502 228.016941 
L 245.365011 228.016941 
L 245.365011 227.307671 
L 245.665824 227.307671 
L 245.665824 226.953035 
L 246.033836 226.953035 
L 246.033836 226.5984 
L 246.575553 226.5984 
L 246.575553 226.243765 
L 246.951961 226.243765 
L 246.951961 225.889129 
L 247.305687 225.889129 
L 247.305687 225.179859 
L 247.64325 225.179859 
L 247.64325 224.470588 
L 248.345342 224.470588 
L 248.345342 224.115953 
L 248.559845 224.115953 
L 248.559845 223.406682 
L 248.813989 223.406682 
L 248.813989 223.052047 
L 249.125758 223.052047 
L 249.125758 222.697412 
L 249.907575 222.697412 
L 249.974433 221.633506 
L 250.177366 221.633506 
L 250.177366 221.278871 
L 251.105369 221.278871 
L 251.105369 220.924235 
L 252.519633 220.924235 
L 252.519633 220.5696 
L 252.697007 220.5696 
L 252.725799 219.860329 
L 253.018625 219.860329 
L 253.018625 219.505694 
L 253.511156 219.505694 
L 253.511156 219.151059 
L 254.607718 219.151059 
L 254.709333 218.441788 
L 254.76115 218.441788 
L 254.76115 218.087153 
L 256.763786 218.087153 
L 256.763786 217.732518 
L 256.928494 217.732518 
L 256.928494 217.023247 
L 257.646109 217.023247 
L 257.646109 216.668612 
L 258.070715 216.668612 
L 258.070715 216.313976 
L 258.702323 216.313976 
L 258.702323 215.959341 
L 259.376685 215.959341 
L 259.417129 215.250071 
L 259.540234 215.250071 
L 259.540234 214.895435 
L 261.706328 214.895435 
L 261.706328 214.5408 
L 262.355521 214.5408 
L 262.457296 213.831529 
L 263.146327 213.831529 
L 263.146327 213.476894 
L 263.263792 213.476894 
L 263.263792 213.122259 
L 265.073812 213.122259 
L 265.073812 212.058353 
L 266.356759 212.058353 
L 266.356759 211.703718 
L 267.370436 211.703718 
L 267.370436 211.349082 
L 268.853697 211.349082 
L 268.853697 210.994447 
L 269.000158 210.994447 
L 269.000158 210.639812 
L 269.501176 210.639812 
L 269.501176 210.285176 
L 272.884811 210.285176 
L 272.943029 209.221271 
L 276.301917 209.221271 
L 276.301917 208.866635 
L 284.091924 208.866635 
L 284.091924 208.512 
L 360.8064 208.512 
L 360.8064 208.512 
" style="fill:none;stroke:#000080;stroke-linecap:square;stroke-width:1.5;"/>
   </g>
   <g id="line2d_36">
    <defs>
     <path d="M 0 6 
C 1.591219 6 3.117479 5.367802 4.242641 4.242641 
C 5.367802 3.117479 6 1.591219 6 0 
C 6 -1.591219 5.367802 -3.117479 4.242641 -4.242641 
C 3.117479 -5.367802 1.591219 -6 0 -6 
C -1.591219 -6 -3.117479 -5.367802 -4.242641 -4.242641 
C -5.367802 -3.117479 -6 -1.591219 -6 0 
C -6 1.591219 -5.367802 3.117479 -4.242641 4.242641 
C -3.117479 5.367802 -1.591219 6 0 6 
z
" id="m325d8e7084" style="stroke:#000080;stroke-width:1.5;"/>
    </defs>
    <g>
     <use style="fill-opacity:0;stroke:#000080;stroke-width:1.5;" x="165.930915" xlink:href="#m325d8e7084" y="273.055624"/>
     <use style="fill-opacity:0;stroke:#000080;stroke-width:1.5;" x="225.729996" xlink:href="#m325d8e7084" y="239.365271"/>
     <use style="fill-opacity:0;stroke:#000080;stroke-width:1.5;" x="284.091924" xlink:href="#m325d8e7084" y="208.866635"/>
     <use style="fill-opacity:0;stroke:#000080;stroke-width:1.5;" x="284.091924" xlink:href="#m325d8e7084" y="208.512"/>
     <use style="fill-opacity:0;stroke:#000080;stroke-width:1.5;" x="360.8064" xlink:href="#m325d8e7084" y="208.512"/>
    </g>
   </g>
   <g id="line2d_37">
    <path style="fill:none;stroke:#000080;stroke-linecap:square;stroke-width:1.5;"/>
    <g/>
   </g>
   <g id="line2d_38">
    <path clip-path="url(#pc1ae9fdb30)" d="M 200.594178 253.196047 
" style="fill:none;stroke:#000080;stroke-linecap:square;stroke-width:1.5;"/>
    <defs>
     <path d="M -12 12 
L 12 -12 
M -12 -12 
L 12 12 
" id="m86c2a66da4" style="stroke:#000080;"/>
    </defs>
    <g clip-path="url(#pc1ae9fdb30)">
     <use style="fill:#000080;stroke:#000080;" x="200.594178" xlink:href="#m86c2a66da4" y="253.196047"/>
    </g>
   </g>
   <g id="line2d_39">
    <defs>
     <path d="M 0 1.5 
C 0.397805 1.5 0.77937 1.341951 1.06066 1.06066 
C 1.341951 0.77937 1.5 0.397805 1.5 0 
C 1.5 -0.397805 1.341951 -0.77937 1.06066 -1.06066 
C 0.77937 -1.341951 0.397805 -1.5 0 -1.5 
C -0.397805 -1.5 -0.77937 -1.341951 -1.06066 -1.06066 
C -1.341951 -0.77937 -1.5 -0.397805 -1.5 0 
C -1.5 0.397805 -1.341951 0.77937 -1.06066 1.06066 
C -0.77937 1.341951 -0.397805 1.5 0 1.5 
z
" id="mf691840654" style="stroke:#ff00ff;"/>
    </defs>
    <g>
     <use style="fill:#ff00ff;stroke:#ff00ff;" x="226.141219" xlink:href="#mf691840654" y="240.429176"/>
     <use style="fill:#ff00ff;stroke:#ff00ff;" x="226.141219" xlink:href="#mf691840654" y="240.429176"/>
    </g>
   </g>
   <g id="line2d_40">
    <path d="M 1.245626 298.944 
L 1.245626 293.624471 
L 57.6 293.624471 
L 57.6 293.269835 
L 75.93298 293.269835 
L 75.93298 292.9152 
L 86.101895 292.9152 
L 86.101895 292.560565 
L 86.307488 292.560565 
L 86.307488 292.205929 
L 88.248544 292.205929 
L 88.248544 291.851294 
L 89.14879 291.851294 
L 89.14879 291.496659 
L 89.839199 291.496659 
L 89.839199 291.142024 
L 92.073702 291.142024 
L 92.073702 290.787388 
L 92.519847 290.787388 
L 92.519847 290.432753 
L 93.240684 290.432753 
L 93.240684 290.078118 
L 93.381595 290.078118 
L 93.381595 289.723482 
L 94.07074 289.723482 
L 94.07074 289.368847 
L 96.120281 289.368847 
L 96.120281 289.014212 
L 97.968299 289.014212 
L 97.968299 288.659576 
L 98.18704 288.659576 
L 98.18704 287.950306 
L 99.751228 287.950306 
L 99.751228 287.595671 
L 101.102381 287.595671 
L 101.195278 286.8864 
L 101.287718 286.8864 
L 101.287718 286.531765 
L 101.471247 286.531765 
L 101.471247 285.822494 
L 102.62243 285.822494 
L 102.62243 285.467859 
L 103.544339 285.467859 
L 103.544339 285.113224 
L 104.187532 285.113224 
L 104.187532 284.758588 
L 104.344952 284.758588 
L 104.344952 284.403953 
L 105.187973 284.403953 
L 105.187973 284.049318 
L 106.490831 284.049318 
L 106.490831 283.694682 
L 106.974091 283.694682 
L 107.042125 282.630776 
L 107.31183 282.630776 
L 107.31183 282.276141 
L 107.577722 282.276141 
L 107.577722 281.921506 
L 108.22646 281.921506 
L 108.22646 281.566871 
L 108.791791 281.566871 
L 108.85357 280.8576 
L 109.932235 280.8576 
L 109.932235 280.502965 
L 110.786158 280.502965 
L 110.897141 279.793694 
L 111.062397 279.793694 
L 111.062397 279.439059 
L 112.939899 279.439059 
L 112.939899 279.084424 
L 113.52628 279.084424 
L 113.57433 278.375153 
L 113.670063 278.375153 
L 113.765312 277.665882 
L 115.445626 277.665882 
L 115.445626 277.311247 
L 115.83262 277.311247 
L 115.83262 276.956612 
L 116.542574 276.956612 
L 116.624364 276.247341 
L 116.827295 276.247341 
L 116.827295 275.892706 
L 119.704027 275.892706 
L 119.704027 275.538071 
L 120.013265 275.538071 
L 120.013265 275.183435 
L 123.231681 275.183435 
L 123.231681 274.8288 
L 123.769595 274.8288 
L 123.769595 274.474165 
L 123.880906 274.474165 
L 123.880906 274.119529 
L 124.454723 274.119529 
L 124.454723 273.764894 
L 127.157434 273.764894 
L 127.157434 273.410259 
L 127.343 273.410259 
L 127.343 273.055624 
L 139.628669 273.055624 
L 139.628669 272.700988 
L 145.228667 272.700988 
L 145.228667 272.346353 
L 145.38854 272.346353 
L 145.46797 270.927812 
L 145.808341 270.927812 
L 145.808341 269.863906 
L 146.294984 269.863906 
L 146.294984 269.509271 
L 146.471147 269.509271 
L 146.471147 268.8 
L 146.752911 268.8 
L 146.834986 268.090729 
L 146.916705 268.090729 
L 146.916705 267.736094 
L 147.199956 267.736094 
L 147.224037 267.026824 
L 147.510634 267.026824 
L 147.613064 266.317553 
L 148.83008 266.317553 
L 148.83008 265.962918 
L 149.573831 265.962918 
L 149.573831 265.608282 
L 149.882799 265.608282 
L 149.882799 265.253647 
L 150.620334 265.253647 
L 150.680509 264.544376 
L 157.784483 264.544376 
L 157.784483 264.189741 
L 158.290128 264.189741 
L 158.290128 263.835106 
L 158.581854 263.835106 
L 158.581854 263.480471 
L 159.152076 263.480471 
L 159.152076 263.125835 
L 159.506146 263.125835 
L 159.506146 262.7712 
L 159.680713 262.7712 
L 159.680713 262.416565 
L 159.996606 262.416565 
L 159.996606 262.061929 
L 160.434898 262.061929 
L 160.434898 261.707294 
L 161.091045 261.707294 
L 161.091045 261.352659 
L 161.676769 261.352659 
L 161.676769 260.998024 
L 161.986735 260.998024 
L 161.986735 260.643388 
L 162.460166 260.643388 
L 162.460166 260.288753 
L 163.498092 260.288753 
L 163.498092 259.934118 
L 164.178002 259.934118 
L 164.178002 259.579482 
L 166.137508 259.579482 
L 166.137508 259.224847 
L 166.321521 259.224847 
L 166.321521 258.870212 
L 167.126614 258.870212 
L 167.126614 258.515576 
L 167.309521 258.515576 
L 167.309521 258.160941 
L 167.930707 258.160941 
L 167.930707 257.806306 
L 169.082134 257.806306 
L 169.082134 257.451671 
L 170.114936 257.451671 
L 170.114936 257.097035 
L 172.235875 257.097035 
L 172.235875 256.7424 
L 172.364903 256.7424 
L 172.364903 256.387765 
L 172.599527 256.387765 
L 172.599527 256.033129 
L 172.907192 256.033129 
L 172.946065 255.323859 
L 173.306396 255.323859 
L 173.306396 254.969224 
L 175.504693 254.969224 
L 175.504693 254.614588 
L 175.89312 254.614588 
L 175.954182 253.905318 
L 176.26855 253.905318 
L 176.26855 253.550682 
L 176.433976 253.550682 
L 176.481459 252.841412 
L 176.903493 252.841412 
L 176.903493 252.486776 
L 177.06181 252.486776 
L 177.06181 252.132141 
L 177.912648 252.132141 
L 177.912648 251.777506 
L 179.747627 251.777506 
L 179.751898 251.068235 
L 181.724353 251.068235 
L 181.724353 250.7136 
L 182.416403 250.7136 
L 182.416403 250.358965 
L 183.211043 250.358965 
L 183.211043 250.004329 
L 183.628001 250.004329 
L 183.628001 249.649694 
L 184.486153 249.649694 
L 184.486153 249.295059 
L 184.612994 249.295059 
L 184.612994 248.940424 
L 184.90964 248.940424 
L 184.90964 248.585788 
L 185.713499 248.585788 
L 185.713499 248.231153 
L 186.20974 248.231153 
L 186.20974 247.876518 
L 186.375623 247.876518 
L 186.375623 247.521882 
L 188.660353 247.521882 
L 188.660353 247.167247 
L 189.76379 247.167247 
L 189.76379 246.812612 
L 190.205793 246.812612 
L 190.205793 246.457976 
L 191.320955 246.457976 
L 191.320955 246.103341 
L 191.888691 246.103341 
L 191.888691 245.748706 
L 192.409314 245.748706 
L 192.508553 244.6848 
L 192.659662 244.6848 
L 192.659662 244.330165 
L 197.581685 244.330165 
L 197.581685 243.975529 
L 199.243864 243.975529 
L 199.243864 243.620894 
L 201.470766 243.620894 
L 201.470766 243.266259 
L 205.654349 243.266259 
L 205.654349 242.911624 
L 206.4577 242.911624 
L 206.4577 242.556988 
L 209.383309 242.556988 
L 209.383309 242.202353 
L 211.333755 242.202353 
L 211.333755 241.847718 
L 218.737473 241.847718 
L 218.737473 241.493082 
L 219.008752 241.493082 
L 219.008752 241.138447 
L 221.629888 241.138447 
L 221.629888 240.783812 
L 226.141219 240.783812 
L 226.141219 240.429176 
L 360.8064 240.429176 
L 360.8064 240.429176 
" style="fill:none;stroke:#ff00ff;stroke-linecap:square;stroke-width:1.5;"/>
   </g>
   <g id="line2d_41">
    <defs>
     <path d="M -0 8.485281 
L 5.091169 0 
L 0 -8.485281 
L -5.091169 -0 
z
" id="m21258cc83e" style="stroke:#ff00ff;stroke-linejoin:miter;stroke-width:1.5;"/>
    </defs>
    <g>
     <use style="fill-opacity:0;stroke:#ff00ff;stroke-linejoin:miter;stroke-width:1.5;" x="106.490831" xlink:href="#m21258cc83e" y="284.049318"/>
     <use style="fill-opacity:0;stroke:#ff00ff;stroke-linejoin:miter;stroke-width:1.5;" x="172.907192" xlink:href="#m21258cc83e" y="256.033129"/>
     <use style="fill-opacity:0;stroke:#ff00ff;stroke-linejoin:miter;stroke-width:1.5;" x="226.141219" xlink:href="#m21258cc83e" y="240.783812"/>
     <use style="fill-opacity:0;stroke:#ff00ff;stroke-linejoin:miter;stroke-width:1.5;" x="226.141219" xlink:href="#m21258cc83e" y="240.429176"/>
     <use style="fill-opacity:0;stroke:#ff00ff;stroke-linejoin:miter;stroke-width:1.5;" x="226.141219" xlink:href="#m21258cc83e" y="240.429176"/>
     <use style="fill-opacity:0;stroke:#ff00ff;stroke-linejoin:miter;stroke-width:1.5;" x="360.8064" xlink:href="#m21258cc83e" y="240.429176"/>
    </g>
   </g>
   <g id="line2d_42">
    <path style="fill:none;stroke:#ff00ff;stroke-linecap:square;stroke-width:1.5;"/>
    <g/>
   </g>
   <g id="line2d_43">
    <path clip-path="url(#pc1ae9fdb30)" d="M 158.029973 264.189741 
" style="fill:none;stroke:#ff00ff;stroke-linecap:square;stroke-width:1.5;"/>
    <defs>
     <path d="M -12 12 
L 12 -12 
M -12 -12 
L 12 12 
" id="meb3abd82dc" style="stroke:#ff00ff;"/>
    </defs>
    <g clip-path="url(#pc1ae9fdb30)">
     <use style="fill:#ff00ff;stroke:#ff00ff;" x="158.029973" xlink:href="#meb3abd82dc" y="264.189741"/>
    </g>
   </g>
   <g id="line2d_44">
    <defs>
     <path d="M 0 1.5 
C 0.397805 1.5 0.77937 1.341951 1.06066 1.06066 
C 1.341951 0.77937 1.5 0.397805 1.5 0 
C 1.5 -0.397805 1.341951 -0.77937 1.06066 -1.06066 
C 0.77937 -1.341951 0.397805 -1.5 0 -1.5 
C -0.397805 -1.5 -0.77937 -1.341951 -1.06066 -1.06066 
C -1.341951 -0.77937 -1.5 -0.397805 -1.5 0 
C -1.5 0.397805 -1.341951 0.77937 -1.06066 1.06066 
C -0.77937 1.341951 -0.397805 1.5 0 1.5 
z
" id="maa70d7bcb7" style="stroke:#ff7500;"/>
    </defs>
    <g>
     <use style="fill:#ff7500;stroke:#ff7500;" x="260.057614" xlink:href="#maa70d7bcb7" y="27.648"/>
     <use style="fill:#ff7500;stroke:#ff7500;" x="260.057614" xlink:href="#maa70d7bcb7" y="27.648"/>
    </g>
   </g>
   <g id="line2d_45">
    <path d="M 1.245626 298.944 
L 1.245626 293.624471 
L 42.578831 293.624471 
L 42.578831 293.269835 
L 106.630177 293.269835 
L 106.630177 292.9152 
L 108.667622 292.9152 
L 108.667622 292.560565 
L 112.024561 292.560565 
L 112.024561 292.205929 
L 114.001345 292.205929 
L 114.001345 291.851294 
L 116.044226 291.851294 
L 116.086263 291.142024 
L 116.211813 291.142024 
L 116.29505 290.432753 
L 117.344894 290.432753 
L 117.344894 290.078118 
L 118.000953 290.078118 
L 118.000953 289.723482 
L 119.634612 289.723482 
L 119.738639 289.014212 
L 119.807672 289.014212 
L 119.807672 288.659576 
L 121.361044 288.659576 
L 121.361044 288.304941 
L 121.487509 288.304941 
L 121.550424 287.241035 
L 122.677931 287.241035 
L 122.677931 286.8864 
L 123.573201 286.8864 
L 123.573201 286.531765 
L 124.265389 286.531765 
L 124.373813 285.822494 
L 125.526971 285.822494 
L 125.552375 285.113224 
L 126.541384 285.113224 
L 126.637484 284.403953 
L 127.572412 284.403953 
L 127.572412 284.049318 
L 127.821575 284.049318 
L 127.821575 283.694682 
L 127.978432 283.694682 
L 127.978432 283.340047 
L 128.484801 283.340047 
L 128.484801 282.985412 
L 128.722242 282.985412 
L 128.722242 282.630776 
L 129.643124 282.630776 
L 129.7043 281.921506 
L 130.598837 281.921506 
L 130.618241 281.212235 
L 131.172405 281.212235 
L 131.172405 280.8576 
L 132.638982 280.8576 
L 132.638982 280.502965 
L 133.323114 280.502965 
L 133.323114 280.148329 
L 134.901055 280.148329 
L 134.901055 279.793694 
L 135.717106 279.793694 
L 135.717106 279.439059 
L 136.356818 279.439059 
L 136.356818 279.084424 
L 137.561058 279.084424 
L 137.561058 278.729788 
L 137.734561 278.729788 
L 137.734561 278.375153 
L 137.906478 278.375153 
L 137.906478 278.020518 
L 138.232735 278.020518 
L 138.258593 277.311247 
L 138.768422 277.311247 
L 138.768422 276.956612 
L 138.943648 276.956612 
L 138.943648 276.601976 
L 143.225848 276.601976 
L 143.225848 276.247341 
L 143.579681 276.247341 
L 143.579681 275.892706 
L 143.936538 275.892706 
L 143.936538 275.538071 
L 144.088782 275.538071 
L 144.088782 275.183435 
L 144.556755 275.183435 
L 144.556755 274.8288 
L 144.850261 274.8288 
L 144.941051 274.119529 
L 144.986282 274.119529 
L 144.986282 273.764894 
L 146.185098 273.764894 
L 146.261241 273.055624 
L 146.653946 273.055624 
L 146.653946 272.700988 
L 146.989949 272.700988 
L 147.079084 271.991718 
L 147.312072 271.991718 
L 147.312072 271.637082 
L 148.048032 271.637082 
L 148.055709 270.218541 
L 148.785835 270.218541 
L 148.785835 269.154635 
L 149.144161 269.154635 
L 149.252502 268.445365 
L 149.453084 268.445365 
L 149.453084 268.090729 
L 149.609197 268.090729 
L 149.609197 267.736094 
L 149.847944 267.736094 
L 149.847944 267.381459 
L 150.076806 267.381459 
L 150.076806 267.026824 
L 150.546523 267.026824 
L 150.546523 266.672188 
L 150.753797 266.672188 
L 150.753797 265.962918 
L 151.096434 265.962918 
L 151.096434 265.608282 
L 151.87663 265.608282 
L 151.87663 265.253647 
L 152.727811 265.253647 
L 152.727811 264.899012 
L 153.17157 264.899012 
L 153.200785 263.480471 
L 153.843585 263.480471 
L 153.843585 263.125835 
L 154.04562 263.125835 
L 154.04562 262.7712 
L 154.541415 262.7712 
L 154.541415 262.416565 
L 155.894291 262.416565 
L 155.894291 262.061929 
L 156.793307 262.061929 
L 156.793307 261.352659 
L 157.142166 261.352659 
L 157.217771 260.643388 
L 157.971166 260.643388 
L 158.061563 259.934118 
L 158.0931 259.934118 
L 158.0931 259.579482 
L 158.290128 259.579482 
L 158.290128 259.224847 
L 158.717331 259.224847 
L 158.76517 258.515576 
L 158.912271 258.515576 
L 158.912271 258.160941 
L 159.291971 258.160941 
L 159.291971 257.451671 
L 159.564516 257.451671 
L 159.564516 257.097035 
L 159.70552 257.097035 
L 159.70552 256.7424 
L 160.186848 256.7424 
L 160.20295 256.033129 
L 160.714996 256.033129 
L 160.714996 255.678494 
L 161.323737 255.678494 
L 161.323737 255.323859 
L 162.001369 255.323859 
L 162.001369 254.614588 
L 162.38507 254.614588 
L 162.38507 254.259953 
L 162.904554 254.259953 
L 162.904554 253.905318 
L 163.129762 253.905318 
L 163.129762 253.550682 
L 163.382912 253.550682 
L 163.437203 252.841412 
L 163.602498 252.841412 
L 163.602498 252.486776 
L 163.879217 252.486776 
L 163.879217 252.132141 
L 164.449654 252.132141 
L 164.53934 251.422871 
L 164.593584 251.422871 
L 164.593584 251.068235 
L 164.802709 251.068235 
L 164.802709 249.649694 
L 164.962728 249.649694 
L 164.962728 249.295059 
L 166.019732 249.295059 
L 166.119888 248.231153 
L 166.149245 248.231153 
L 166.149245 247.876518 
L 166.280784 247.876518 
L 166.280784 247.167247 
L 166.469177 247.167247 
L 166.552624 246.457976 
L 166.995269 246.457976 
L 167.082003 245.748706 
L 167.182228 245.748706 
L 167.182228 245.394071 
L 167.605039 245.394071 
L 167.705223 244.6848 
L 168.042443 244.6848 
L 168.042443 244.330165 
L 168.1904 244.330165 
L 168.1904 243.620894 
L 168.345034 243.620894 
L 168.391959 242.911624 
L 168.467314 242.911624 
L 168.467314 242.556988 
L 168.581073 242.556988 
L 168.581073 242.202353 
L 168.755541 242.202353 
L 168.844713 241.493082 
L 168.913216 241.493082 
L 168.913216 241.138447 
L 169.207211 241.138447 
L 169.207211 240.783812 
L 170.050679 240.783812 
L 170.050679 240.074541 
L 170.247512 240.074541 
L 170.308749 239.365271 
L 171.508852 239.365271 
L 171.508852 239.010635 
L 171.854228 239.010635 
L 171.854228 238.656 
L 171.979437 238.656 
L 171.979437 237.946729 
L 172.383865 237.946729 
L 172.383865 237.592094 
L 172.69712 237.592094 
L 172.69712 237.237459 
L 172.839484 237.237459 
L 172.839484 236.882824 
L 173.306396 236.882824 
L 173.352457 236.173553 
L 173.472085 236.173553 
L 173.472085 235.818918 
L 175.264114 235.818918 
L 175.264114 235.464282 
L 175.924548 235.464282 
L 175.924548 235.109647 
L 176.693659 235.109647 
L 176.693659 234.755012 
L 177.222062 234.755012 
L 177.222062 234.400376 
L 179.885223 234.400376 
L 179.885223 234.045741 
L 182.36816 234.045741 
L 182.36816 233.691106 
L 184.139912 233.691106 
L 184.139912 233.336471 
L 184.809827 233.336471 
L 184.809827 232.981835 
L 185.131234 232.981835 
L 185.131234 232.6272 
L 185.716609 232.6272 
L 185.716609 232.272565 
L 186.109503 232.272565 
L 186.109503 231.917929 
L 187.836795 231.917929 
L 187.836795 231.563294 
L 188.095254 231.563294 
L 188.121726 230.854024 
L 188.634629 230.854024 
L 188.634629 230.499388 
L 188.963723 230.499388 
L 188.963723 230.144753 
L 189.205527 230.144753 
L 189.205527 229.790118 
L 189.327413 229.790118 
L 189.359897 229.080847 
L 189.440012 229.080847 
L 189.440012 228.726212 
L 189.562082 228.726212 
L 189.562082 228.371576 
L 189.777996 228.371576 
L 189.777996 227.662306 
L 189.959221 227.662306 
L 190.054946 226.5984 
L 190.182916 226.5984 
L 190.223749 225.889129 
L 190.301087 225.889129 
L 190.301087 225.534494 
L 190.431434 225.534494 
L 190.533621 224.115953 
L 190.659184 224.115953 
L 190.659184 223.761318 
L 191.147782 223.761318 
L 191.178047 223.052047 
L 191.261606 223.052047 
L 191.323263 221.633506 
L 191.580039 221.633506 
L 191.580039 221.278871 
L 191.753808 221.278871 
L 191.791373 220.214965 
L 191.886451 220.214965 
L 191.886451 219.860329 
L 192.264225 219.860329 
L 192.278126 219.151059 
L 192.444868 219.151059 
L 192.444868 218.796424 
L 192.705474 218.796424 
L 192.705474 218.441788 
L 193.121231 218.441788 
L 193.121231 218.087153 
L 193.234181 218.087153 
L 193.327098 217.377882 
L 193.405787 217.377882 
L 193.405787 217.023247 
L 193.547151 217.023247 
L 193.547151 216.668612 
L 193.689496 216.668612 
L 193.689496 216.313976 
L 193.872478 216.313976 
L 193.966314 215.250071 
L 194.013058 215.250071 
L 194.013058 214.895435 
L 194.204821 214.895435 
L 194.228572 214.186165 
L 194.510622 214.186165 
L 194.510622 213.831529 
L 194.622009 213.831529 
L 194.622009 213.476894 
L 194.81856 213.476894 
L 194.81856 213.122259 
L 195.00359 213.122259 
L 195.109589 212.058353 
L 195.137252 212.058353 
L 195.212491 211.349082 
L 195.330385 211.349082 
L 195.416621 210.285176 
L 195.825018 210.285176 
L 195.825018 209.930541 
L 195.974032 209.930541 
L 195.974032 209.575906 
L 196.610912 209.575906 
L 196.699582 208.157365 
L 197.212311 208.157365 
L 197.212311 207.802729 
L 197.560709 207.802729 
L 197.638973 207.093459 
L 197.708148 207.093459 
L 197.708148 206.738824 
L 197.95152 206.738824 
L 197.95152 206.384188 
L 198.48589 206.384188 
L 198.553596 205.674918 
L 198.656004 205.674918 
L 198.656004 205.320282 
L 199.220618 205.320282 
L 199.220618 204.965647 
L 199.781545 204.965647 
L 199.823217 204.256376 
L 199.956923 204.256376 
L 199.956923 203.901741 
L 200.091135 203.901741 
L 200.099823 203.192471 
L 200.207129 203.192471 
L 200.275142 202.128565 
L 200.440313 202.128565 
L 200.525425 200.000753 
L 200.718332 200.000753 
L 200.718332 199.646118 
L 200.891244 199.646118 
L 200.891244 199.291482 
L 201.098768 199.291482 
L 201.098768 198.936847 
L 201.251901 198.936847 
L 201.251901 198.582212 
L 201.403347 198.582212 
L 201.477494 197.872941 
L 201.857099 197.872941 
L 201.936487 197.163671 
L 202.019463 197.163671 
L 202.103376 196.4544 
L 202.187781 196.4544 
L 202.208931 195.745129 
L 202.470679 195.745129 
L 202.558961 194.681224 
L 202.658627 194.681224 
L 202.658627 194.326588 
L 202.773264 194.326588 
L 202.773264 193.971953 
L 202.976045 193.971953 
L 202.991776 193.262682 
L 203.179121 193.262682 
L 203.285343 192.553412 
L 203.438308 192.553412 
L 203.438308 192.198776 
L 203.75884 192.198776 
L 203.819525 190.780235 
L 203.956434 190.780235 
L 203.956434 190.4256 
L 204.115367 190.4256 
L 204.115367 190.070965 
L 204.26949 190.070965 
L 204.375514 189.007059 
L 204.477503 189.007059 
L 204.566768 187.943153 
L 204.629457 187.943153 
L 204.629457 187.588518 
L 204.744413 187.588518 
L 204.786589 186.879247 
L 205.185191 186.879247 
L 205.193291 186.169976 
L 205.616597 186.169976 
L 205.653631 185.460706 
L 205.74858 185.460706 
L 205.812446 184.751435 
L 206.452881 184.751435 
L 206.511658 184.042165 
L 206.865568 184.042165 
L 206.949913 182.978259 
L 207.035218 182.978259 
L 207.118475 181.914353 
L 207.629842 181.914353 
L 207.724677 180.850447 
L 207.769669 180.850447 
L 207.849426 180.141176 
L 207.90496 180.141176 
L 207.90496 179.786541 
L 208.055415 179.786541 
L 208.055415 179.431906 
L 208.247911 179.431906 
L 208.247911 179.077271 
L 208.399384 179.077271 
L 208.441554 178.013365 
L 208.526228 178.013365 
L 208.594247 177.304094 
L 208.642113 177.304094 
L 208.742663 175.885553 
L 208.815979 175.885553 
L 208.815979 175.530918 
L 209.111798 175.530918 
L 209.181608 174.467012 
L 209.273397 174.467012 
L 209.273397 174.112376 
L 209.614909 174.112376 
L 209.663443 173.048471 
L 209.948901 173.048471 
L 209.977182 172.3392 
L 210.262453 172.3392 
L 210.29167 171.275294 
L 210.679798 171.275294 
L 210.705079 170.211388 
L 210.914265 170.211388 
L 210.914265 169.856753 
L 211.620256 169.856753 
L 211.643522 169.147482 
L 211.741496 169.147482 
L 211.741496 168.792847 
L 211.98217 168.792847 
L 211.98217 168.438212 
L 212.188106 168.438212 
L 212.298688 166.665035 
L 212.401851 166.665035 
L 212.453972 165.955765 
L 212.716133 165.955765 
L 212.718847 165.246494 
L 212.928875 165.246494 
L 212.928875 164.891859 
L 213.107604 164.891859 
L 213.205474 163.827953 
L 213.272676 163.827953 
L 213.302838 162.764047 
L 213.408741 162.764047 
L 213.514761 161.345506 
L 213.748865 161.345506 
L 213.748865 160.990871 
L 213.906575 160.990871 
L 214.008681 159.926965 
L 214.197338 159.926965 
L 214.276091 159.217694 
L 214.410751 159.217694 
L 214.442747 158.153788 
L 214.594098 158.153788 
L 214.594098 157.799153 
L 214.730501 157.799153 
L 214.832874 156.025976 
L 214.987038 156.025976 
L 214.987038 155.671341 
L 215.169428 155.671341 
L 215.169428 155.316706 
L 215.287321 155.316706 
L 215.358647 154.2528 
L 215.680103 154.2528 
L 215.715905 153.543529 
L 215.891604 153.543529 
L 215.939692 152.479624 
L 216.123415 152.479624 
L 216.123415 152.124988 
L 216.282509 152.124988 
L 216.282509 151.770353 
L 216.442091 151.770353 
L 216.513413 151.061082 
L 216.742115 151.061082 
L 216.777345 150.351812 
L 217.000915 150.351812 
L 217.055072 149.642541 
L 217.188619 149.642541 
L 217.188619 149.287906 
L 217.347095 149.287906 
L 217.441389 148.224 
L 217.606132 148.224 
L 217.606132 147.869365 
L 217.7296 147.869365 
L 217.760388 147.160094 
L 217.8517 147.160094 
L 217.908335 146.096188 
L 218.090209 146.096188 
L 218.090209 145.741553 
L 218.241666 145.741553 
L 218.343305 144.323012 
L 218.377307 144.323012 
L 218.473495 143.613741 
L 218.536623 143.613741 
L 218.590694 142.904471 
L 218.746967 142.904471 
L 218.746967 142.549835 
L 218.907281 142.549835 
L 219.000273 141.840565 
L 219.034696 141.840565 
L 219.10476 140.776659 
L 219.164232 140.776659 
L 219.236957 140.067388 
L 219.381222 140.067388 
L 219.437929 139.358118 
L 219.711444 139.358118 
L 219.793271 138.294212 
L 219.852974 138.294212 
L 219.887558 137.230306 
L 220.036806 137.230306 
L 220.057696 136.1664 
L 220.204611 136.1664 
L 220.204611 135.811765 
L 220.34792 135.811765 
L 220.457961 134.747859 
L 220.498306 134.747859 
L 220.541007 134.038588 
L 220.645718 134.038588 
L 220.735193 133.329318 
L 220.7772 133.329318 
L 220.863973 132.265412 
L 220.953374 132.265412 
L 220.990606 131.556141 
L 221.075927 131.556141 
L 221.156138 130.492235 
L 221.220312 130.492235 
L 221.280199 129.073694 
L 221.428156 129.073694 
L 221.502706 128.364424 
L 221.616978 128.364424 
L 221.660284 127.300518 
L 221.786104 127.300518 
L 221.884885 126.591247 
L 221.929092 126.591247 
L 222.008012 125.881976 
L 222.049076 125.881976 
L 222.119863 124.1088 
L 222.170987 124.1088 
L 222.266733 123.399529 
L 222.28885 123.399529 
L 222.362437 122.690259 
L 222.491588 122.690259 
L 222.491588 122.335624 
L 222.778364 122.335624 
L 222.809992 121.626353 
L 222.918049 121.626353 
L 223.026202 120.917082 
L 223.05941 120.917082 
L 223.089716 119.853176 
L 223.285877 119.853176 
L 223.381306 118.789271 
L 223.428839 118.789271 
L 223.539657 118.08 
L 223.670237 118.08 
L 223.776356 117.370729 
L 224.12349 117.370729 
L 224.225484 116.661459 
L 224.287483 116.661459 
L 224.389256 115.597553 
L 224.453231 115.597553 
L 224.482035 114.888282 
L 224.878654 114.888282 
L 224.918299 114.179012 
L 225.021857 114.179012 
L 225.108255 112.760471 
L 225.272148 112.760471 
L 225.317794 112.0512 
L 225.46347 112.0512 
L 225.472867 110.987294 
L 225.643683 110.987294 
L 225.724807 109.568753 
L 225.789085 109.568753 
L 225.844181 108.859482 
L 225.958043 108.859482 
L 225.958043 108.504847 
L 226.214932 108.504847 
L 226.29723 107.795576 
L 226.349426 107.795576 
L 226.397662 106.731671 
L 226.49329 106.731671 
L 226.49329 106.377035 
L 226.672174 106.377035 
L 226.716426 105.313129 
L 226.828407 105.313129 
L 226.828407 104.958494 
L 226.965776 104.958494 
L 227.034374 104.249224 
L 227.120058 104.249224 
L 227.229783 103.185318 
L 227.349191 103.185318 
L 227.429167 102.476047 
L 227.518469 102.476047 
L 227.518469 102.121412 
L 227.709162 102.121412 
L 227.709162 101.766776 
L 227.87734 101.766776 
L 227.87734 101.412141 
L 228.040969 101.412141 
L 228.138402 99.284329 
L 228.15633 99.284329 
L 228.255006 97.865788 
L 228.36971 97.865788 
L 228.431349 96.447247 
L 228.700613 96.447247 
L 228.800365 95.028706 
L 228.993207 95.028706 
L 229.000892 94.319435 
L 229.636193 94.319435 
L 229.691624 93.610165 
L 230.054232 93.610165 
L 230.054232 93.255529 
L 230.23431 93.255529 
L 230.320948 92.546259 
L 230.346389 92.546259 
L 230.411525 91.836988 
L 230.754592 91.836988 
L 230.808997 91.127718 
L 230.999213 91.127718 
L 231.082592 90.063812 
L 231.457986 90.063812 
L 231.532465 88.999906 
L 231.621289 88.999906 
L 231.662886 88.290635 
L 231.85764 88.290635 
L 231.937219 86.517459 
L 232.056843 86.517459 
L 232.085507 85.808188 
L 232.27648 85.808188 
L 232.378621 84.744282 
L 232.423945 84.744282 
L 232.423945 84.389647 
L 232.644324 84.389647 
L 232.746875 83.680376 
L 232.766179 83.680376 
L 232.876522 81.9072 
L 233.000749 81.9072 
L 233.000749 81.552565 
L 233.129581 81.552565 
L 233.21866 80.843294 
L 233.283106 80.843294 
L 233.338759 80.134024 
L 233.416513 80.134024 
L 233.416513 79.779388 
L 233.535522 79.779388 
L 233.535522 79.424753 
L 233.881211 79.424753 
L 233.956759 78.715482 
L 234.021672 78.715482 
L 234.101252 77.296941 
L 234.172689 77.296941 
L 234.172689 76.942306 
L 234.406901 76.942306 
L 234.445888 76.233035 
L 234.587148 76.233035 
L 234.625763 74.459859 
L 234.750316 74.459859 
L 234.847588 72.686682 
L 234.874506 72.686682 
L 234.874506 72.332047 
L 235.05968 72.332047 
L 235.161208 70.913506 
L 235.263604 70.913506 
L 235.263604 70.558871 
L 235.375585 70.558871 
L 235.472408 69.8496 
L 235.602977 69.8496 
L 235.6392 69.140329 
L 235.836608 69.140329 
L 235.8726 68.076424 
L 236.024677 68.076424 
L 236.106486 67.012518 
L 236.191411 67.012518 
L 236.191411 66.657882 
L 236.477367 66.657882 
L 236.580635 65.239341 
L 236.637455 65.239341 
L 236.709412 64.175435 
L 236.935497 64.175435 
L 236.965029 63.466165 
L 237.121038 63.466165 
L 237.180285 62.756894 
L 237.314581 62.756894 
L 237.397026 61.338353 
L 237.436125 61.338353 
L 237.544827 60.274447 
L 237.647529 60.274447 
L 237.704751 59.210541 
L 237.851785 59.210541 
L 237.893316 57.792 
L 238.090708 57.792 
L 238.105496 57.082729 
L 238.340796 57.082729 
L 238.442083 56.018824 
L 238.496942 56.018824 
L 238.518803 55.309553 
L 238.881084 55.309553 
L 238.883294 54.600282 
L 239.056325 54.600282 
L 239.056325 54.245647 
L 239.226453 54.245647 
L 239.260547 53.181741 
L 240.228643 53.181741 
L 240.284011 52.472471 
L 240.493666 52.472471 
L 240.493666 52.117835 
L 240.613733 52.117835 
L 240.68082 51.053929 
L 240.797539 51.053929 
L 240.797539 50.699294 
L 240.993733 50.699294 
L 241.085934 49.990024 
L 241.24794 49.990024 
L 241.24794 49.635388 
L 241.36766 49.635388 
L 241.36766 49.280753 
L 241.738099 49.280753 
L 241.752654 48.571482 
L 242.27866 48.571482 
L 242.373817 47.862212 
L 242.565831 47.862212 
L 242.607385 47.152941 
L 242.716129 47.152941 
L 242.82151 45.7344 
L 242.870602 45.7344 
L 242.901425 45.025129 
L 243.193967 45.025129 
L 243.269254 44.315859 
L 243.376378 44.315859 
L 243.40759 43.606588 
L 243.66111 43.606588 
L 243.66111 43.251953 
L 244.129341 43.251953 
L 244.129341 42.897318 
L 244.2795 42.897318 
L 244.326406 42.188047 
L 244.428194 42.188047 
L 244.428194 41.833412 
L 244.687589 41.833412 
L 244.756466 40.769506 
L 244.975683 40.769506 
L 244.975683 40.414871 
L 245.198653 40.414871 
L 245.297806 39.7056 
L 245.572987 39.7056 
L 245.572987 39.350965 
L 245.828671 39.350965 
L 245.868105 38.641694 
L 246.118917 38.641694 
L 246.209022 37.577788 
L 246.836971 37.577788 
L 246.922028 36.868518 
L 246.977415 36.868518 
L 246.977415 36.513882 
L 247.253188 36.513882 
L 247.253188 36.159247 
L 247.877781 36.159247 
L 247.877781 35.804612 
L 248.117242 35.804612 
L 248.117242 35.449976 
L 248.550335 35.449976 
L 248.614573 34.740706 
L 249.458045 34.740706 
L 249.458045 34.386071 
L 250.140309 34.386071 
L 250.240219 33.6768 
L 250.373134 33.6768 
L 250.373134 33.322165 
L 251.304455 33.322165 
L 251.304455 32.967529 
L 251.59444 32.967529 
L 251.59444 32.612894 
L 251.821622 32.612894 
L 251.821622 32.258259 
L 252.666636 32.258259 
L 252.666636 31.903624 
L 253.186411 31.903624 
L 253.186411 31.548988 
L 253.59415 31.548988 
L 253.59415 31.194353 
L 254.729098 31.194353 
L 254.729098 30.839718 
L 255.971222 30.839718 
L 255.971222 30.485082 
L 257.035359 30.485082 
L 257.137898 29.066541 
L 257.213457 29.066541 
L 257.213457 28.711906 
L 257.696409 28.711906 
L 257.696409 28.357271 
L 258.009283 28.357271 
L 258.009283 28.002635 
L 260.057614 28.002635 
L 260.057614 27.648 
L 360.8064 27.648 
L 360.8064 27.648 
" style="fill:none;stroke:#ff7500;stroke-linecap:square;stroke-width:1.5;"/>
   </g>
   <g id="line2d_46">
    <defs>
     <path d="M 0 -6 
L -1.347084 -1.854102 
L -5.706339 -1.854102 
L -2.179628 0.708204 
L -3.526712 4.854102 
L -0 2.291796 
L 3.526712 4.854102 
L 2.179628 0.708204 
L 5.706339 -1.854102 
L 1.347084 -1.854102 
z
" id="m34620f7376" style="stroke:#ff7500;stroke-linejoin:bevel;stroke-width:1.5;"/>
    </defs>
    <g>
     <use style="fill-opacity:0;stroke:#ff7500;stroke-linejoin:bevel;stroke-width:1.5;" x="193.405787" xlink:href="#m34620f7376" y="217.023247"/>
     <use style="fill-opacity:0;stroke:#ff7500;stroke-linejoin:bevel;stroke-width:1.5;" x="226.49329" xlink:href="#m34620f7376" y="106.731671"/>
     <use style="fill-opacity:0;stroke:#ff7500;stroke-linejoin:bevel;stroke-width:1.5;" x="260.057614" xlink:href="#m34620f7376" y="28.002635"/>
     <use style="fill-opacity:0;stroke:#ff7500;stroke-linejoin:bevel;stroke-width:1.5;" x="260.057614" xlink:href="#m34620f7376" y="27.648"/>
     <use style="fill-opacity:0;stroke:#ff7500;stroke-linejoin:bevel;stroke-width:1.5;" x="360.8064" xlink:href="#m34620f7376" y="27.648"/>
    </g>
   </g>
   <g id="line2d_47">
    <path style="fill:none;stroke:#ff7500;stroke-linecap:square;stroke-width:1.5;"/>
    <g/>
   </g>
   <g id="line2d_48">
    <path clip-path="url(#pc1ae9fdb30)" d="M 180.937834 234.045741 
" style="fill:none;stroke:#ff7500;stroke-linecap:square;stroke-width:1.5;"/>
    <defs>
     <path d="M -12 12 
L 12 -12 
M -12 -12 
L 12 12 
" id="mf58627c7c7" style="stroke:#ff7500;"/>
    </defs>
    <g clip-path="url(#pc1ae9fdb30)">
     <use style="fill:#ff7500;stroke:#ff7500;" x="180.937834" xlink:href="#mf58627c7c7" y="234.045741"/>
    </g>
   </g>
   <g id="line2d_49">
    <path d="M 360.8064 240.429176 
L 380.514816 293.51808 
" style="fill:none;stroke:#ff00ff;stroke-linecap:square;stroke-width:1.5;"/>
    <g>
     <use style="fill-opacity:0;stroke:#ff00ff;stroke-linejoin:miter;stroke-width:1.5;" x="360.8064" xlink:href="#m21258cc83e" y="240.429176"/>
     <use style="fill-opacity:0;stroke:#ff00ff;stroke-linejoin:miter;stroke-width:1.5;" x="380.514816" xlink:href="#m21258cc83e" y="293.51808"/>
    </g>
   </g>
   <g id="line2d_50">
    <path d="M 360.8064 208.512 
L 380.514816 206.70336 
" style="fill:none;stroke:#000080;stroke-linecap:square;stroke-width:1.5;"/>
    <g>
     <use style="fill-opacity:0;stroke:#000080;stroke-width:1.5;" x="360.8064" xlink:href="#m325d8e7084" y="208.512"/>
     <use style="fill-opacity:0;stroke:#000080;stroke-width:1.5;" x="380.514816" xlink:href="#m325d8e7084" y="206.70336"/>
    </g>
   </g>
   <g id="line2d_51">
    <path d="M 360.8064 27.648 
L 380.514816 119.88864 
" style="fill:none;stroke:#ff7500;stroke-linecap:square;stroke-width:1.5;"/>
    <g>
     <use style="fill-opacity:0;stroke:#ff7500;stroke-linejoin:bevel;stroke-width:1.5;" x="360.8064" xlink:href="#m34620f7376" y="27.648"/>
     <use style="fill-opacity:0;stroke:#ff7500;stroke-linejoin:bevel;stroke-width:1.5;" x="380.514816" xlink:href="#m34620f7376" y="119.88864"/>
    </g>
   </g>
   <g id="line2d_52">
    <path d="M 360.8064 298.944 
L 360.8064 27.648 
" style="fill:none;stroke:#000000;stroke-linecap:square;stroke-width:1.5;"/>
   </g>
   <g id="patch_3">
    <path d="M 57.6 298.944 
L 360.8064 298.944 
" style="fill:none;stroke:#000000;stroke-linecap:square;stroke-linejoin:miter;stroke-width:0.8;"/>
   </g>
   <g id="patch_4">
    <path d="M 57.6 27.648 
L 360.8064 27.648 
" style="fill:none;stroke:#000000;stroke-linecap:square;stroke-linejoin:miter;stroke-width:0.8;"/>
   </g>
   <g id="text_13">
    <!-- cma.fmin  -->
    <g transform="translate(386.578944 297.381205)scale(0.14 -0.14)">
     <use xlink:href="#DejaVuSans-63"/>
     <use x="54.980469" xlink:href="#DejaVuSans-6d"/>
     <use x="152.392578" xlink:href="#DejaVuSans-61"/>
     <use x="213.671875" xlink:href="#DejaVuSans-2e"/>
     <use x="245.458984" xlink:href="#DejaVuSans-66"/>
     <use x="280.664062" xlink:href="#DejaVuSans-6d"/>
     <use x="378.076172" xlink:href="#DejaVuSans-69"/>
     <use x="405.859375" xlink:href="#DejaVuSans-6e"/>
     <use x="469.238281" xlink:href="#DejaVuSans-20"/>
    </g>
   </g>
   <g id="text_14">
    <!-- different -->
    <g transform="translate(386.578944 210.566485)scale(0.14 -0.14)">
     <use xlink:href="#DejaVuSans-64"/>
     <use x="63.476562" xlink:href="#DejaVuSans-69"/>
     <use x="91.259766" xlink:href="#DejaVuSans-66"/>
     <use x="126.464844" xlink:href="#DejaVuSans-66"/>
     <use x="161.669922" xlink:href="#DejaVuSans-65"/>
     <use x="223.193359" xlink:href="#DejaVuSans-72"/>
     <use x="262.056641" xlink:href="#DejaVuSans-65"/>
     <use x="323.580078" xlink:href="#DejaVuSans-6e"/>
     <use x="386.958984" xlink:href="#DejaVuSans-74"/>
    </g>
   </g>
   <g id="text_15">
    <!-- diffcma b -->
    <g transform="translate(386.578944 123.751765)scale(0.14 -0.14)">
     <defs>
      <path d="M 3116 1747 
Q 3116 2381 2855 2742 
Q 2594 3103 2138 3103 
Q 1681 3103 1420 2742 
Q 1159 2381 1159 1747 
Q 1159 1113 1420 752 
Q 1681 391 2138 391 
Q 2594 391 2855 752 
Q 3116 1113 3116 1747 
z
M 1159 2969 
Q 1341 3281 1617 3432 
Q 1894 3584 2278 3584 
Q 2916 3584 3314 3078 
Q 3713 2572 3713 1747 
Q 3713 922 3314 415 
Q 2916 -91 2278 -91 
Q 1894 -91 1617 61 
Q 1341 213 1159 525 
L 1159 0 
L 581 0 
L 581 4863 
L 1159 4863 
L 1159 2969 
z
" id="DejaVuSans-62" transform="scale(0.015625)"/>
     </defs>
     <use xlink:href="#DejaVuSans-64"/>
     <use x="63.476562" xlink:href="#DejaVuSans-69"/>
     <use x="91.259766" xlink:href="#DejaVuSans-66"/>
     <use x="126.464844" xlink:href="#DejaVuSans-66"/>
     <use x="161.669922" xlink:href="#DejaVuSans-63"/>
     <use x="216.650391" xlink:href="#DejaVuSans-6d"/>
     <use x="314.0625" xlink:href="#DejaVuSans-61"/>
     <use x="375.341797" xlink:href="#DejaVuSans-20"/>
     <use x="407.128906" xlink:href="#DejaVuSans-62"/>
    </g>
   </g>
   <g id="text_16">
    <!-- best 2009 -->
    <g transform="translate(386.578944 36.937045)scale(0.14 -0.14)">
     <defs>
      <path d="M 703 97 
L 703 672 
Q 941 559 1184 500 
Q 1428 441 1663 441 
Q 2288 441 2617 861 
Q 2947 1281 2994 2138 
Q 2813 1869 2534 1725 
Q 2256 1581 1919 1581 
Q 1219 1581 811 2004 
Q 403 2428 403 3163 
Q 403 3881 828 4315 
Q 1253 4750 1959 4750 
Q 2769 4750 3195 4129 
Q 3622 3509 3622 2328 
Q 3622 1225 3098 567 
Q 2575 -91 1691 -91 
Q 1453 -91 1209 -44 
Q 966 3 703 97 
z
M 1959 2075 
Q 2384 2075 2632 2365 
Q 2881 2656 2881 3163 
Q 2881 3666 2632 3958 
Q 2384 4250 1959 4250 
Q 1534 4250 1286 3958 
Q 1038 3666 1038 3163 
Q 1038 2656 1286 2365 
Q 1534 2075 1959 2075 
z
" id="DejaVuSans-39" transform="scale(0.015625)"/>
     </defs>
     <use xlink:href="#DejaVuSans-62"/>
     <use x="63.476562" xlink:href="#DejaVuSans-65"/>
     <use x="125" xlink:href="#DejaVuSans-73"/>
     <use x="177.099609" xlink:href="#DejaVuSans-74"/>
     <use x="216.308594" xlink:href="#DejaVuSans-20"/>
     <use x="248.095703" xlink:href="#DejaVuSans-32"/>
     <use x="311.71875" xlink:href="#DejaVuSans-30"/>
     <use x="375.341797" xlink:href="#DejaVuSans-30"/>
     <use x="438.964844" xlink:href="#DejaVuSans-39"/>
    </g>
   </g>
   <g id="text_17">
    <!-- bbob f21, 20-D -->
    <g transform="translate(60.632064 38.111366)scale(0.102 -0.102)">
     <defs>
      <path d="M 1259 4147 
L 1259 519 
L 2022 519 
Q 2988 519 3436 956 
Q 3884 1394 3884 2338 
Q 3884 3275 3436 3711 
Q 2988 4147 2022 4147 
L 1259 4147 
z
M 628 4666 
L 1925 4666 
Q 3281 4666 3915 4102 
Q 4550 3538 4550 2338 
Q 4550 1131 3912 565 
Q 3275 0 1925 0 
L 628 0 
L 628 4666 
z
" id="DejaVuSans-44" transform="scale(0.015625)"/>
     </defs>
     <use xlink:href="#DejaVuSans-62"/>
     <use x="63.476562" xlink:href="#DejaVuSans-62"/>
     <use x="126.953125" xlink:href="#DejaVuSans-6f"/>
     <use x="188.134766" xlink:href="#DejaVuSans-62"/>
     <use x="251.611328" xlink:href="#DejaVuSans-20"/>
     <use x="283.398438" xlink:href="#DejaVuSans-66"/>
     <use x="318.603516" xlink:href="#DejaVuSans-32"/>
     <use x="382.226562" xlink:href="#DejaVuSans-31"/>
     <use x="445.849609" xlink:href="#DejaVuSans-2c"/>
     <use x="477.636719" xlink:href="#DejaVuSans-20"/>
     <use x="509.423828" xlink:href="#DejaVuSans-32"/>
     <use x="573.046875" xlink:href="#DejaVuSans-30"/>
     <use x="636.669922" xlink:href="#DejaVuSans-2d"/>
     <use x="672.753906" xlink:href="#DejaVuSans-44"/>
    </g>
    <!-- 51 targets: 100..1e-08 -->
    <g transform="translate(60.632064 49.533135)scale(0.102 -0.102)">
     <defs>
      <path d="M 691 4666 
L 3169 4666 
L 3169 4134 
L 1269 4134 
L 1269 2991 
Q 1406 3038 1543 3061 
Q 1681 3084 1819 3084 
Q 2600 3084 3056 2656 
Q 3513 2228 3513 1497 
Q 3513 744 3044 326 
Q 2575 -91 1722 -91 
Q 1428 -91 1123 -41 
Q 819 9 494 109 
L 494 744 
Q 775 591 1075 516 
Q 1375 441 1709 441 
Q 2250 441 2565 725 
Q 2881 1009 2881 1497 
Q 2881 1984 2565 2268 
Q 2250 2553 1709 2553 
Q 1456 2553 1204 2497 
Q 953 2441 691 2322 
L 691 4666 
z
" id="DejaVuSans-35" transform="scale(0.015625)"/>
      <path d="M 750 794 
L 1409 794 
L 1409 0 
L 750 0 
L 750 794 
z
M 750 3309 
L 1409 3309 
L 1409 2516 
L 750 2516 
L 750 3309 
z
" id="DejaVuSans-3a" transform="scale(0.015625)"/>
     </defs>
     <use xlink:href="#DejaVuSans-35"/>
     <use x="63.623047" xlink:href="#DejaVuSans-31"/>
     <use x="127.246094" xlink:href="#DejaVuSans-20"/>
     <use x="159.033203" xlink:href="#DejaVuSans-74"/>
     <use x="198.242188" xlink:href="#DejaVuSans-61"/>
     <use x="259.521484" xlink:href="#DejaVuSans-72"/>
     <use x="298.884766" xlink:href="#DejaVuSans-67"/>
     <use x="362.361328" xlink:href="#DejaVuSans-65"/>
     <use x="423.884766" xlink:href="#DejaVuSans-74"/>
     <use x="463.09375" xlink:href="#DejaVuSans-73"/>
     <use x="515.193359" xlink:href="#DejaVuSans-3a"/>
     <use x="548.884766" xlink:href="#DejaVuSans-20"/>
     <use x="580.671875" xlink:href="#DejaVuSans-31"/>
     <use x="644.294922" xlink:href="#DejaVuSans-30"/>
     <use x="707.917969" xlink:href="#DejaVuSans-30"/>
     <use x="771.541016" xlink:href="#DejaVuSans-2e"/>
     <use x="803.328125" xlink:href="#DejaVuSans-2e"/>
     <use x="835.115234" xlink:href="#DejaVuSans-31"/>
     <use x="898.738281" xlink:href="#DejaVuSans-65"/>
     <use x="960.261719" xlink:href="#DejaVuSans-2d"/>
     <use x="996.345703" xlink:href="#DejaVuSans-30"/>
     <use x="1059.96875" xlink:href="#DejaVuSans-38"/>
    </g>
    <!-- 15 instances -->
    <g transform="translate(60.632064 60.954904)scale(0.102 -0.102)">
     <use xlink:href="#DejaVuSans-31"/>
     <use x="63.623047" xlink:href="#DejaVuSans-35"/>
     <use x="127.246094" xlink:href="#DejaVuSans-20"/>
     <use x="159.033203" xlink:href="#DejaVuSans-69"/>
     <use x="186.816406" xlink:href="#DejaVuSans-6e"/>
     <use x="250.195312" xlink:href="#DejaVuSans-73"/>
     <use x="302.294922" xlink:href="#DejaVuSans-74"/>
     <use x="341.503906" xlink:href="#DejaVuSans-61"/>
     <use x="402.783203" xlink:href="#DejaVuSans-6e"/>
     <use x="466.162109" xlink:href="#DejaVuSans-63"/>
     <use x="521.142578" xlink:href="#DejaVuSans-65"/>
     <use x="582.666016" xlink:href="#DejaVuSans-73"/>
    </g>
   </g>
   <g id="text_18">
    <!-- v2.6 -->
    <g style="fill:#808080;" transform="translate(198.292262 294.151352)scale(0.1 -0.1)">
     <use xlink:href="#DejaVuSans-76"/>
     <use x="59.179688" xlink:href="#DejaVuSans-32"/>
     <use x="122.802734" xlink:href="#DejaVuSans-2e"/>
     <use x="154.589844" xlink:href="#DejaVuSans-36"/>
    </g>
   </g>
   <g id="text_19">
    <!-- 21 Gallagher 101 peaks -->
    <g transform="translate(89.7157 21.648)scale(0.2 -0.2)">
     <defs>
      <path d="M 3809 666 
L 3809 1919 
L 2778 1919 
L 2778 2438 
L 4434 2438 
L 4434 434 
Q 4069 175 3628 42 
Q 3188 -91 2688 -91 
Q 1594 -91 976 548 
Q 359 1188 359 2328 
Q 359 3472 976 4111 
Q 1594 4750 2688 4750 
Q 3144 4750 3555 4637 
Q 3966 4525 4313 4306 
L 4313 3634 
Q 3963 3931 3569 4081 
Q 3175 4231 2741 4231 
Q 1884 4231 1454 3753 
Q 1025 3275 1025 2328 
Q 1025 1384 1454 906 
Q 1884 428 2741 428 
Q 3075 428 3337 486 
Q 3600 544 3809 666 
z
" id="DejaVuSans-47" transform="scale(0.015625)"/>
      <path d="M 3513 2113 
L 3513 0 
L 2938 0 
L 2938 2094 
Q 2938 2591 2744 2837 
Q 2550 3084 2163 3084 
Q 1697 3084 1428 2787 
Q 1159 2491 1159 1978 
L 1159 0 
L 581 0 
L 581 4863 
L 1159 4863 
L 1159 2956 
Q 1366 3272 1645 3428 
Q 1925 3584 2291 3584 
Q 2894 3584 3203 3211 
Q 3513 2838 3513 2113 
z
" id="DejaVuSans-68" transform="scale(0.015625)"/>
      <path d="M 581 4863 
L 1159 4863 
L 1159 1991 
L 2875 3500 
L 3609 3500 
L 1753 1863 
L 3688 0 
L 2938 0 
L 1159 1709 
L 1159 0 
L 581 0 
L 581 4863 
z
" id="DejaVuSans-6b" transform="scale(0.015625)"/>
     </defs>
     <use xlink:href="#DejaVuSans-32"/>
     <use x="63.623047" xlink:href="#DejaVuSans-31"/>
     <use x="127.246094" xlink:href="#DejaVuSans-20"/>
     <use x="159.033203" xlink:href="#DejaVuSans-47"/>
     <use x="236.523438" xlink:href="#DejaVuSans-61"/>
     <use x="297.802734" xlink:href="#DejaVuSans-6c"/>
     <use x="325.585938" xlink:href="#DejaVuSans-6c"/>
     <use x="353.369141" xlink:href="#DejaVuSans-61"/>
     <use x="414.648438" xlink:href="#DejaVuSans-67"/>
     <use x="478.125" xlink:href="#DejaVuSans-68"/>
     <use x="541.503906" xlink:href="#DejaVuSans-65"/>
     <use x="603.027344" xlink:href="#DejaVuSans-72"/>
     <use x="644.140625" xlink:href="#DejaVuSans-20"/>
     <use x="675.927734" xlink:href="#DejaVuSans-31"/>
     <use x="739.550781" xlink:href="#DejaVuSans-30"/>
     <use x="803.173828" xlink:href="#DejaVuSans-31"/>
     <use x="866.796875" xlink:href="#DejaVuSans-20"/>
     <use x="898.583984" xlink:href="#DejaVuSans-70"/>
     <use x="962.060547" xlink:href="#DejaVuSans-65"/>
     <use x="1023.583984" xlink:href="#DejaVuSans-61"/>
     <use x="1084.863281" xlink:href="#DejaVuSans-6b"/>
     <use x="1142.773438" xlink:href="#DejaVuSans-73"/>
    </g>
   </g>
  </g>
 </g>
 <defs>
  <clipPath id="pc1ae9fdb30">
   <rect height="271.296" width="303.2064" x="57.6" y="27.648"/>
  </clipPath>
 </defs>
</svg>
