<?xml version="1.0" encoding="utf-8" standalone="no"?>
<!DOCTYPE svg PUBLIC "-//W3C//DTD SVG 1.1//EN"
  "http://www.w3.org/Graphics/SVG/1.1/DTD/svg11.dtd">
<svg height="345.6pt" version="1.1" viewBox="0 0 460.8 345.6" width="460.8pt" xmlns="http://www.w3.org/2000/svg" xmlns:xlink="http://www.w3.org/1999/xlink">
 <metadata>
  <rdf:RDF xmlns:cc="http://creativecommons.org/ns#" xmlns:dc="http://purl.org/dc/elements/1.1/" xmlns:rdf="http://www.w3.org/1999/02/22-rdf-syntax-ns#">
   <cc:Work>
    <dc:type rdf:resource="http://purl.org/dc/dcmitype/StillImage"/>
    <dc:date>2022-05-07T21:25:05.911190</dc:date>
    <dc:format>image/svg+xml</dc:format>
    <dc:creator>
     <cc:Agent>
      <dc:title>Matplotlib v3.4.3, https://matplotlib.org/</dc:title>
     </cc:Agent>
    </dc:creator>
   </cc:Work>
  </rdf:RDF>
 </metadata>
 <defs>
  <style type="text/css">*{stroke-linecap:butt;stroke-linejoin:round;}</style>
 </defs>
 <g id="figure_1">
  <g id="patch_1">
   <path d="M 0 345.6 
L 460.8 345.6 
L 460.8 0 
L 0 0 
z
" style="fill:#ffffff;"/>
  </g>
  <g id="axes_1">
   <g id="patch_2">
    <path d="M 57.6 298.944 
L 360.8064 298.944 
L 360.8064 27.648 
L 57.6 27.648 
z
" style="fill:#ffffff;"/>
   </g>
   <g id="line2d_1">
    <path d="M 76.050921 298.944 
L 76.050921 288.304941 
L 85.184077 288.304941 
L 85.184077 282.985412 
L 90.230539 282.985412 
L 90.230539 277.665882 
L 97.485448 277.665882 
L 97.485448 272.346353 
L 103.269713 272.346353 
L 103.269713 267.026824 
L 106.326946 267.026824 
L 106.326946 261.707294 
L 108.956085 261.707294 
L 108.956085 256.387765 
L 110.144579 256.387765 
L 110.144579 251.068235 
L 111.262425 251.068235 
L 111.262425 245.748706 
L 112.656511 245.748706 
L 112.656511 240.429176 
L 114.265316 240.429176 
L 114.265316 235.109647 
L 115.747307 235.109647 
L 115.747307 229.790118 
L 117.121023 229.790118 
L 117.121023 224.470588 
L 118.889854 224.470588 
L 118.889854 219.151059 
L 121.581803 219.151059 
L 121.581803 213.831529 
L 123.374735 213.831529 
L 123.374735 208.512 
L 124.119844 208.512 
L 124.119844 203.192471 
L 124.836562 203.192471 
L 124.836562 197.872941 
L 125.695686 197.872941 
L 125.695686 192.553412 
L 126.517282 192.553412 
L 126.517282 187.233882 
L 127.761474 187.233882 
L 127.761474 181.914353 
L 128.786481 181.914353 
L 128.786481 176.594824 
L 129.758512 176.594824 
L 129.758512 171.275294 
L 130.292209 171.275294 
L 130.292209 165.955765 
L 131.065395 165.955765 
L 131.065395 160.636235 
L 132.287354 160.636235 
L 132.287354 155.316706 
L 133.097823 155.316706 
L 133.097823 149.997176 
L 133.983236 149.997176 
L 133.983236 144.677647 
L 134.304809 144.677647 
L 134.304809 139.358118 
L 135.034434 139.358118 
L 135.034434 134.038588 
L 135.638065 134.038588 
L 135.638065 128.719059 
L 136.222928 128.719059 
L 136.222928 123.399529 
L 136.790153 123.399529 
L 136.790153 118.08 
L 137.159019 118.08 
L 137.159019 112.760471 
L 137.963436 112.760471 
L 137.963436 107.440941 
L 138.481218 107.440941 
L 138.481218 102.121412 
L 138.902075 102.121412 
L 138.902075 96.801882 
L 139.313723 96.801882 
L 139.313723 91.482353 
L 139.716555 91.482353 
L 139.716555 86.162824 
L 140.032723 86.162824 
L 140.032723 80.843294 
L 140.26641 80.843294 
L 140.26641 75.523765 
L 140.725251 75.523765 
L 140.725251 70.204235 
L 141.025043 70.204235 
L 141.025043 64.884706 
L 141.538451 64.884706 
L 141.538451 59.565176 
L 141.896777 59.565176 
L 141.896777 54.245647 
L 142.317949 54.245647 
L 142.317949 48.926118 
L 142.729897 48.926118 
L 142.729897 43.606588 
L 143.199372 43.606588 
L 143.199372 38.287059 
L 143.657415 38.287059 
L 143.657415 32.967529 
L 143.850356 32.967529 
L 143.850356 27.648 
L 360.8064 27.648 
" style="fill:none;stroke:#f5deb3;stroke-linecap:square;stroke-width:4;"/>
   </g>
   <g id="line2d_2">
    <defs>
     <path d="M -0 7.778175 
L 7.778175 0 
L 0 -7.778175 
L -7.778175 -0 
z
" id="m8ec0f49331" style="stroke:#f5deb3;stroke-linejoin:miter;stroke-width:1.5;"/>
    </defs>
    <g>
     <use style="fill:#f5deb3;stroke:#f5deb3;stroke-linejoin:miter;stroke-width:1.5;" x="128.786481" xlink:href="#m8ec0f49331" y="176.594824"/>
     <use style="fill:#f5deb3;stroke:#f5deb3;stroke-linejoin:miter;stroke-width:1.5;" x="140.725251" xlink:href="#m8ec0f49331" y="75.523765"/>
     <use style="fill:#f5deb3;stroke:#f5deb3;stroke-linejoin:miter;stroke-width:1.5;" x="143.850356" xlink:href="#m8ec0f49331" y="27.648"/>
     <use style="fill:#f5deb3;stroke:#f5deb3;stroke-linejoin:miter;stroke-width:1.5;" x="143.850356" xlink:href="#m8ec0f49331" y="27.648"/>
     <use style="fill:#f5deb3;stroke:#f5deb3;stroke-linejoin:miter;stroke-width:1.5;" x="360.8064" xlink:href="#m8ec0f49331" y="27.648"/>
    </g>
   </g>
   <g id="line2d_3">
    <path style="fill:none;stroke:#f5deb3;stroke-linecap:square;stroke-width:4;"/>
    <g/>
   </g>
   <g id="line2d_4">
    <path d="M 360.8064 27.648 
L 380.514816 33.07392 
" style="fill:none;stroke:#f5deb3;stroke-linecap:square;stroke-width:4;"/>
    <g>
     <use style="fill:#f5deb3;stroke:#f5deb3;stroke-linejoin:miter;stroke-width:1.5;" x="360.8064" xlink:href="#m8ec0f49331" y="27.648"/>
     <use style="fill:#f5deb3;stroke:#f5deb3;stroke-linejoin:miter;stroke-width:1.5;" x="380.514816" xlink:href="#m8ec0f49331" y="33.07392"/>
    </g>
   </g>
   <g id="matplotlib.axis_1">
    <g id="xtick_1">
     <g id="line2d_5">
      <path clip-path="url(#pcf30070924)" d="M 57.6 298.944 
L 57.6 27.648 
" style="fill:none;stroke:#b0b0b0;stroke-linecap:square;stroke-width:0.8;"/>
     </g>
     <g id="line2d_6">
      <defs>
       <path d="M 0 0 
L 0 3.5 
" id="ma0ab3ff2f9" style="stroke:#000000;stroke-width:0.8;"/>
      </defs>
      <g>
       <use style="stroke:#000000;stroke-width:0.8;" x="57.6" xlink:href="#ma0ab3ff2f9" y="298.944"/>
      </g>
     </g>
     <g id="text_1">
      <!-- 0 -->
      <g transform="translate(52.191875 318.861344)scale(0.17 -0.17)">
       <defs>
        <path d="M 2034 4250 
Q 1547 4250 1301 3770 
Q 1056 3291 1056 2328 
Q 1056 1369 1301 889 
Q 1547 409 2034 409 
Q 2525 409 2770 889 
Q 3016 1369 3016 2328 
Q 3016 3291 2770 3770 
Q 2525 4250 2034 4250 
z
M 2034 4750 
Q 2819 4750 3233 4129 
Q 3647 3509 3647 2328 
Q 3647 1150 3233 529 
Q 2819 -91 2034 -91 
Q 1250 -91 836 529 
Q 422 1150 422 2328 
Q 422 3509 836 4129 
Q 1250 4750 2034 4750 
z
" id="DejaVuSans-30" transform="scale(0.015625)"/>
       </defs>
       <use xlink:href="#DejaVuSans-30"/>
      </g>
     </g>
    </g>
    <g id="xtick_2">
     <g id="line2d_7">
      <path clip-path="url(#pcf30070924)" d="M 144.2304 298.944 
L 144.2304 27.648 
" style="fill:none;stroke:#b0b0b0;stroke-linecap:square;stroke-width:0.8;"/>
     </g>
     <g id="line2d_8">
      <g>
       <use style="stroke:#000000;stroke-width:0.8;" x="144.2304" xlink:href="#ma0ab3ff2f9" y="298.944"/>
      </g>
     </g>
     <g id="text_2">
      <!-- 2 -->
      <g transform="translate(138.822275 318.861344)scale(0.17 -0.17)">
       <defs>
        <path d="M 1228 531 
L 3431 531 
L 3431 0 
L 469 0 
L 469 531 
Q 828 903 1448 1529 
Q 2069 2156 2228 2338 
Q 2531 2678 2651 2914 
Q 2772 3150 2772 3378 
Q 2772 3750 2511 3984 
Q 2250 4219 1831 4219 
Q 1534 4219 1204 4116 
Q 875 4013 500 3803 
L 500 4441 
Q 881 4594 1212 4672 
Q 1544 4750 1819 4750 
Q 2544 4750 2975 4387 
Q 3406 4025 3406 3419 
Q 3406 3131 3298 2873 
Q 3191 2616 2906 2266 
Q 2828 2175 2409 1742 
Q 1991 1309 1228 531 
z
" id="DejaVuSans-32" transform="scale(0.015625)"/>
       </defs>
       <use xlink:href="#DejaVuSans-32"/>
      </g>
     </g>
    </g>
    <g id="xtick_3">
     <g id="line2d_9">
      <path clip-path="url(#pcf30070924)" d="M 230.8608 298.944 
L 230.8608 27.648 
" style="fill:none;stroke:#b0b0b0;stroke-linecap:square;stroke-width:0.8;"/>
     </g>
     <g id="line2d_10">
      <g>
       <use style="stroke:#000000;stroke-width:0.8;" x="230.8608" xlink:href="#ma0ab3ff2f9" y="298.944"/>
      </g>
     </g>
     <g id="text_3">
      <!-- 4 -->
      <g transform="translate(225.452675 318.861344)scale(0.17 -0.17)">
       <defs>
        <path d="M 2419 4116 
L 825 1625 
L 2419 1625 
L 2419 4116 
z
M 2253 4666 
L 3047 4666 
L 3047 1625 
L 3713 1625 
L 3713 1100 
L 3047 1100 
L 3047 0 
L 2419 0 
L 2419 1100 
L 313 1100 
L 313 1709 
L 2253 4666 
z
" id="DejaVuSans-34" transform="scale(0.015625)"/>
       </defs>
       <use xlink:href="#DejaVuSans-34"/>
      </g>
     </g>
    </g>
    <g id="xtick_4">
     <g id="line2d_11">
      <path clip-path="url(#pcf30070924)" d="M 317.4912 298.944 
L 317.4912 27.648 
" style="fill:none;stroke:#b0b0b0;stroke-linecap:square;stroke-width:0.8;"/>
     </g>
     <g id="line2d_12">
      <g>
       <use style="stroke:#000000;stroke-width:0.8;" x="317.4912" xlink:href="#ma0ab3ff2f9" y="298.944"/>
      </g>
     </g>
     <g id="text_4">
      <!-- 6 -->
      <g transform="translate(312.083075 318.861344)scale(0.17 -0.17)">
       <defs>
        <path d="M 2113 2584 
Q 1688 2584 1439 2293 
Q 1191 2003 1191 1497 
Q 1191 994 1439 701 
Q 1688 409 2113 409 
Q 2538 409 2786 701 
Q 3034 994 3034 1497 
Q 3034 2003 2786 2293 
Q 2538 2584 2113 2584 
z
M 3366 4563 
L 3366 3988 
Q 3128 4100 2886 4159 
Q 2644 4219 2406 4219 
Q 1781 4219 1451 3797 
Q 1122 3375 1075 2522 
Q 1259 2794 1537 2939 
Q 1816 3084 2150 3084 
Q 2853 3084 3261 2657 
Q 3669 2231 3669 1497 
Q 3669 778 3244 343 
Q 2819 -91 2113 -91 
Q 1303 -91 875 529 
Q 447 1150 447 2328 
Q 447 3434 972 4092 
Q 1497 4750 2381 4750 
Q 2619 4750 2861 4703 
Q 3103 4656 3366 4563 
z
" id="DejaVuSans-36" transform="scale(0.015625)"/>
       </defs>
       <use xlink:href="#DejaVuSans-36"/>
      </g>
     </g>
    </g>
    <g id="xtick_5">
     <g id="line2d_13">
      <path clip-path="url(#pcf30070924)" d="M 100.9152 298.944 
L 100.9152 27.648 
" style="fill:none;stroke:#b0b0b0;stroke-linecap:square;stroke-width:0.8;"/>
     </g>
     <g id="line2d_14">
      <defs>
       <path d="M 0 0 
L 0 2 
" id="m47d7998991" style="stroke:#000000;stroke-width:0.6;"/>
      </defs>
      <g>
       <use style="stroke:#000000;stroke-width:0.6;" x="100.9152" xlink:href="#m47d7998991" y="298.944"/>
      </g>
     </g>
    </g>
    <g id="xtick_6">
     <g id="line2d_15">
      <path clip-path="url(#pcf30070924)" d="M 187.5456 298.944 
L 187.5456 27.648 
" style="fill:none;stroke:#b0b0b0;stroke-linecap:square;stroke-width:0.8;"/>
     </g>
     <g id="line2d_16">
      <g>
       <use style="stroke:#000000;stroke-width:0.6;" x="187.5456" xlink:href="#m47d7998991" y="298.944"/>
      </g>
     </g>
    </g>
    <g id="xtick_7">
     <g id="line2d_17">
      <path clip-path="url(#pcf30070924)" d="M 274.176 298.944 
L 274.176 27.648 
" style="fill:none;stroke:#b0b0b0;stroke-linecap:square;stroke-width:0.8;"/>
     </g>
     <g id="line2d_18">
      <g>
       <use style="stroke:#000000;stroke-width:0.6;" x="274.176" xlink:href="#m47d7998991" y="298.944"/>
      </g>
     </g>
    </g>
    <g id="xtick_8">
     <g id="line2d_19">
      <path clip-path="url(#pcf30070924)" d="M 360.8064 298.944 
L 360.8064 27.648 
" style="fill:none;stroke:#b0b0b0;stroke-linecap:square;stroke-width:0.8;"/>
     </g>
     <g id="line2d_20">
      <g>
       <use style="stroke:#000000;stroke-width:0.6;" x="360.8064" xlink:href="#m47d7998991" y="298.944"/>
      </g>
     </g>
    </g>
    <g id="text_5">
     <!-- log10(# f-evals / dimension) -->
     <g transform="translate(88.823278 339.314156)scale(0.17 -0.17)">
      <defs>
       <path d="M 603 4863 
L 1178 4863 
L 1178 0 
L 603 0 
L 603 4863 
z
" id="DejaVuSans-6c" transform="scale(0.015625)"/>
       <path d="M 1959 3097 
Q 1497 3097 1228 2736 
Q 959 2375 959 1747 
Q 959 1119 1226 758 
Q 1494 397 1959 397 
Q 2419 397 2687 759 
Q 2956 1122 2956 1747 
Q 2956 2369 2687 2733 
Q 2419 3097 1959 3097 
z
M 1959 3584 
Q 2709 3584 3137 3096 
Q 3566 2609 3566 1747 
Q 3566 888 3137 398 
Q 2709 -91 1959 -91 
Q 1206 -91 779 398 
Q 353 888 353 1747 
Q 353 2609 779 3096 
Q 1206 3584 1959 3584 
z
" id="DejaVuSans-6f" transform="scale(0.015625)"/>
       <path d="M 2906 1791 
Q 2906 2416 2648 2759 
Q 2391 3103 1925 3103 
Q 1463 3103 1205 2759 
Q 947 2416 947 1791 
Q 947 1169 1205 825 
Q 1463 481 1925 481 
Q 2391 481 2648 825 
Q 2906 1169 2906 1791 
z
M 3481 434 
Q 3481 -459 3084 -895 
Q 2688 -1331 1869 -1331 
Q 1566 -1331 1297 -1286 
Q 1028 -1241 775 -1147 
L 775 -588 
Q 1028 -725 1275 -790 
Q 1522 -856 1778 -856 
Q 2344 -856 2625 -561 
Q 2906 -266 2906 331 
L 2906 616 
Q 2728 306 2450 153 
Q 2172 0 1784 0 
Q 1141 0 747 490 
Q 353 981 353 1791 
Q 353 2603 747 3093 
Q 1141 3584 1784 3584 
Q 2172 3584 2450 3431 
Q 2728 3278 2906 2969 
L 2906 3500 
L 3481 3500 
L 3481 434 
z
" id="DejaVuSans-67" transform="scale(0.015625)"/>
       <path d="M 794 531 
L 1825 531 
L 1825 4091 
L 703 3866 
L 703 4441 
L 1819 4666 
L 2450 4666 
L 2450 531 
L 3481 531 
L 3481 0 
L 794 0 
L 794 531 
z
" id="DejaVuSans-31" transform="scale(0.015625)"/>
       <path d="M 1984 4856 
Q 1566 4138 1362 3434 
Q 1159 2731 1159 2009 
Q 1159 1288 1364 580 
Q 1569 -128 1984 -844 
L 1484 -844 
Q 1016 -109 783 600 
Q 550 1309 550 2009 
Q 550 2706 781 3412 
Q 1013 4119 1484 4856 
L 1984 4856 
z
" id="DejaVuSans-28" transform="scale(0.015625)"/>
       <path d="M 3272 2816 
L 2363 2816 
L 2100 1772 
L 3016 1772 
L 3272 2816 
z
M 2803 4594 
L 2478 3297 
L 3391 3297 
L 3719 4594 
L 4219 4594 
L 3897 3297 
L 4872 3297 
L 4872 2816 
L 3775 2816 
L 3519 1772 
L 4513 1772 
L 4513 1294 
L 3397 1294 
L 3072 0 
L 2572 0 
L 2894 1294 
L 1978 1294 
L 1656 0 
L 1153 0 
L 1478 1294 
L 494 1294 
L 494 1772 
L 1594 1772 
L 1856 2816 
L 850 2816 
L 850 3297 
L 1978 3297 
L 2297 4594 
L 2803 4594 
z
" id="DejaVuSans-23" transform="scale(0.015625)"/>
       <path id="DejaVuSans-20" transform="scale(0.015625)"/>
       <path d="M 2375 4863 
L 2375 4384 
L 1825 4384 
Q 1516 4384 1395 4259 
Q 1275 4134 1275 3809 
L 1275 3500 
L 2222 3500 
L 2222 3053 
L 1275 3053 
L 1275 0 
L 697 0 
L 697 3053 
L 147 3053 
L 147 3500 
L 697 3500 
L 697 3744 
Q 697 4328 969 4595 
Q 1241 4863 1831 4863 
L 2375 4863 
z
" id="DejaVuSans-66" transform="scale(0.015625)"/>
       <path d="M 313 2009 
L 1997 2009 
L 1997 1497 
L 313 1497 
L 313 2009 
z
" id="DejaVuSans-2d" transform="scale(0.015625)"/>
       <path d="M 3597 1894 
L 3597 1613 
L 953 1613 
Q 991 1019 1311 708 
Q 1631 397 2203 397 
Q 2534 397 2845 478 
Q 3156 559 3463 722 
L 3463 178 
Q 3153 47 2828 -22 
Q 2503 -91 2169 -91 
Q 1331 -91 842 396 
Q 353 884 353 1716 
Q 353 2575 817 3079 
Q 1281 3584 2069 3584 
Q 2775 3584 3186 3129 
Q 3597 2675 3597 1894 
z
M 3022 2063 
Q 3016 2534 2758 2815 
Q 2500 3097 2075 3097 
Q 1594 3097 1305 2825 
Q 1016 2553 972 2059 
L 3022 2063 
z
" id="DejaVuSans-65" transform="scale(0.015625)"/>
       <path d="M 191 3500 
L 800 3500 
L 1894 563 
L 2988 3500 
L 3597 3500 
L 2284 0 
L 1503 0 
L 191 3500 
z
" id="DejaVuSans-76" transform="scale(0.015625)"/>
       <path d="M 2194 1759 
Q 1497 1759 1228 1600 
Q 959 1441 959 1056 
Q 959 750 1161 570 
Q 1363 391 1709 391 
Q 2188 391 2477 730 
Q 2766 1069 2766 1631 
L 2766 1759 
L 2194 1759 
z
M 3341 1997 
L 3341 0 
L 2766 0 
L 2766 531 
Q 2569 213 2275 61 
Q 1981 -91 1556 -91 
Q 1019 -91 701 211 
Q 384 513 384 1019 
Q 384 1609 779 1909 
Q 1175 2209 1959 2209 
L 2766 2209 
L 2766 2266 
Q 2766 2663 2505 2880 
Q 2244 3097 1772 3097 
Q 1472 3097 1187 3025 
Q 903 2953 641 2809 
L 641 3341 
Q 956 3463 1253 3523 
Q 1550 3584 1831 3584 
Q 2591 3584 2966 3190 
Q 3341 2797 3341 1997 
z
" id="DejaVuSans-61" transform="scale(0.015625)"/>
       <path d="M 2834 3397 
L 2834 2853 
Q 2591 2978 2328 3040 
Q 2066 3103 1784 3103 
Q 1356 3103 1142 2972 
Q 928 2841 928 2578 
Q 928 2378 1081 2264 
Q 1234 2150 1697 2047 
L 1894 2003 
Q 2506 1872 2764 1633 
Q 3022 1394 3022 966 
Q 3022 478 2636 193 
Q 2250 -91 1575 -91 
Q 1294 -91 989 -36 
Q 684 19 347 128 
L 347 722 
Q 666 556 975 473 
Q 1284 391 1588 391 
Q 1994 391 2212 530 
Q 2431 669 2431 922 
Q 2431 1156 2273 1281 
Q 2116 1406 1581 1522 
L 1381 1569 
Q 847 1681 609 1914 
Q 372 2147 372 2553 
Q 372 3047 722 3315 
Q 1072 3584 1716 3584 
Q 2034 3584 2315 3537 
Q 2597 3491 2834 3397 
z
" id="DejaVuSans-73" transform="scale(0.015625)"/>
       <path d="M 1625 4666 
L 2156 4666 
L 531 -594 
L 0 -594 
L 1625 4666 
z
" id="DejaVuSans-2f" transform="scale(0.015625)"/>
       <path d="M 2906 2969 
L 2906 4863 
L 3481 4863 
L 3481 0 
L 2906 0 
L 2906 525 
Q 2725 213 2448 61 
Q 2172 -91 1784 -91 
Q 1150 -91 751 415 
Q 353 922 353 1747 
Q 353 2572 751 3078 
Q 1150 3584 1784 3584 
Q 2172 3584 2448 3432 
Q 2725 3281 2906 2969 
z
M 947 1747 
Q 947 1113 1208 752 
Q 1469 391 1925 391 
Q 2381 391 2643 752 
Q 2906 1113 2906 1747 
Q 2906 2381 2643 2742 
Q 2381 3103 1925 3103 
Q 1469 3103 1208 2742 
Q 947 2381 947 1747 
z
" id="DejaVuSans-64" transform="scale(0.015625)"/>
       <path d="M 603 3500 
L 1178 3500 
L 1178 0 
L 603 0 
L 603 3500 
z
M 603 4863 
L 1178 4863 
L 1178 4134 
L 603 4134 
L 603 4863 
z
" id="DejaVuSans-69" transform="scale(0.015625)"/>
       <path d="M 3328 2828 
Q 3544 3216 3844 3400 
Q 4144 3584 4550 3584 
Q 5097 3584 5394 3201 
Q 5691 2819 5691 2113 
L 5691 0 
L 5113 0 
L 5113 2094 
Q 5113 2597 4934 2840 
Q 4756 3084 4391 3084 
Q 3944 3084 3684 2787 
Q 3425 2491 3425 1978 
L 3425 0 
L 2847 0 
L 2847 2094 
Q 2847 2600 2669 2842 
Q 2491 3084 2119 3084 
Q 1678 3084 1418 2786 
Q 1159 2488 1159 1978 
L 1159 0 
L 581 0 
L 581 3500 
L 1159 3500 
L 1159 2956 
Q 1356 3278 1631 3431 
Q 1906 3584 2284 3584 
Q 2666 3584 2933 3390 
Q 3200 3197 3328 2828 
z
" id="DejaVuSans-6d" transform="scale(0.015625)"/>
       <path d="M 3513 2113 
L 3513 0 
L 2938 0 
L 2938 2094 
Q 2938 2591 2744 2837 
Q 2550 3084 2163 3084 
Q 1697 3084 1428 2787 
Q 1159 2491 1159 1978 
L 1159 0 
L 581 0 
L 581 3500 
L 1159 3500 
L 1159 2956 
Q 1366 3272 1645 3428 
Q 1925 3584 2291 3584 
Q 2894 3584 3203 3211 
Q 3513 2838 3513 2113 
z
" id="DejaVuSans-6e" transform="scale(0.015625)"/>
       <path d="M 513 4856 
L 1013 4856 
Q 1481 4119 1714 3412 
Q 1947 2706 1947 2009 
Q 1947 1309 1714 600 
Q 1481 -109 1013 -844 
L 513 -844 
Q 928 -128 1133 580 
Q 1338 1288 1338 2009 
Q 1338 2731 1133 3434 
Q 928 4138 513 4856 
z
" id="DejaVuSans-29" transform="scale(0.015625)"/>
      </defs>
      <use xlink:href="#DejaVuSans-6c"/>
      <use x="27.783203" xlink:href="#DejaVuSans-6f"/>
      <use x="88.964844" xlink:href="#DejaVuSans-67"/>
      <use x="152.441406" xlink:href="#DejaVuSans-31"/>
      <use x="216.064453" xlink:href="#DejaVuSans-30"/>
      <use x="279.6875" xlink:href="#DejaVuSans-28"/>
      <use x="318.701172" xlink:href="#DejaVuSans-23"/>
      <use x="402.490234" xlink:href="#DejaVuSans-20"/>
      <use x="434.277344" xlink:href="#DejaVuSans-66"/>
      <use x="463.982422" xlink:href="#DejaVuSans-2d"/>
      <use x="500.066406" xlink:href="#DejaVuSans-65"/>
      <use x="561.589844" xlink:href="#DejaVuSans-76"/>
      <use x="620.769531" xlink:href="#DejaVuSans-61"/>
      <use x="682.048828" xlink:href="#DejaVuSans-6c"/>
      <use x="709.832031" xlink:href="#DejaVuSans-73"/>
      <use x="761.931641" xlink:href="#DejaVuSans-20"/>
      <use x="793.71875" xlink:href="#DejaVuSans-2f"/>
      <use x="827.410156" xlink:href="#DejaVuSans-20"/>
      <use x="859.197266" xlink:href="#DejaVuSans-64"/>
      <use x="922.673828" xlink:href="#DejaVuSans-69"/>
      <use x="950.457031" xlink:href="#DejaVuSans-6d"/>
      <use x="1047.869141" xlink:href="#DejaVuSans-65"/>
      <use x="1109.392578" xlink:href="#DejaVuSans-6e"/>
      <use x="1172.771484" xlink:href="#DejaVuSans-73"/>
      <use x="1224.871094" xlink:href="#DejaVuSans-69"/>
      <use x="1252.654297" xlink:href="#DejaVuSans-6f"/>
      <use x="1313.835938" xlink:href="#DejaVuSans-6e"/>
      <use x="1377.214844" xlink:href="#DejaVuSans-29"/>
     </g>
    </g>
   </g>
   <g id="matplotlib.axis_2">
    <g id="ytick_1">
     <g id="line2d_21">
      <path clip-path="url(#pcf30070924)" d="M 57.6 298.944 
L 360.8064 298.944 
" style="fill:none;stroke:#b0b0b0;stroke-linecap:square;stroke-width:0.8;"/>
     </g>
     <g id="line2d_22">
      <defs>
       <path d="M 0 0 
L -3.5 0 
" id="mc9fece6fd3" style="stroke:#000000;stroke-width:0.8;"/>
      </defs>
      <g>
       <use style="stroke:#000000;stroke-width:0.8;" x="57.6" xlink:href="#mc9fece6fd3" y="298.944"/>
      </g>
     </g>
     <g id="text_6">
      <!-- 0.0 -->
      <g transform="translate(25.155 305.02275)scale(0.16 -0.16)">
       <defs>
        <path d="M 684 794 
L 1344 794 
L 1344 0 
L 684 0 
L 684 794 
z
" id="DejaVuSans-2e" transform="scale(0.015625)"/>
       </defs>
       <use xlink:href="#DejaVuSans-30"/>
       <use x="63.623047" xlink:href="#DejaVuSans-2e"/>
       <use x="95.410156" xlink:href="#DejaVuSans-30"/>
      </g>
     </g>
    </g>
    <g id="ytick_2">
     <g id="line2d_23">
      <path clip-path="url(#pcf30070924)" d="M 57.6 244.6848 
L 360.8064 244.6848 
" style="fill:none;stroke:#b0b0b0;stroke-linecap:square;stroke-width:0.8;"/>
     </g>
     <g id="line2d_24">
      <g>
       <use style="stroke:#000000;stroke-width:0.8;" x="57.6" xlink:href="#mc9fece6fd3" y="244.6848"/>
      </g>
     </g>
     <g id="text_7">
      <!-- 0.2 -->
      <g transform="translate(25.155 250.76355)scale(0.16 -0.16)">
       <use xlink:href="#DejaVuSans-30"/>
       <use x="63.623047" xlink:href="#DejaVuSans-2e"/>
       <use x="95.410156" xlink:href="#DejaVuSans-32"/>
      </g>
     </g>
    </g>
    <g id="ytick_3">
     <g id="line2d_25">
      <path clip-path="url(#pcf30070924)" d="M 57.6 190.4256 
L 360.8064 190.4256 
" style="fill:none;stroke:#b0b0b0;stroke-linecap:square;stroke-width:0.8;"/>
     </g>
     <g id="line2d_26">
      <g>
       <use style="stroke:#000000;stroke-width:0.8;" x="57.6" xlink:href="#mc9fece6fd3" y="190.4256"/>
      </g>
     </g>
     <g id="text_8">
      <!-- 0.4 -->
      <g transform="translate(25.155 196.50435)scale(0.16 -0.16)">
       <use xlink:href="#DejaVuSans-30"/>
       <use x="63.623047" xlink:href="#DejaVuSans-2e"/>
       <use x="95.410156" xlink:href="#DejaVuSans-34"/>
      </g>
     </g>
    </g>
    <g id="ytick_4">
     <g id="line2d_27">
      <path clip-path="url(#pcf30070924)" d="M 57.6 136.1664 
L 360.8064 136.1664 
" style="fill:none;stroke:#b0b0b0;stroke-linecap:square;stroke-width:0.8;"/>
     </g>
     <g id="line2d_28">
      <g>
       <use style="stroke:#000000;stroke-width:0.8;" x="57.6" xlink:href="#mc9fece6fd3" y="136.1664"/>
      </g>
     </g>
     <g id="text_9">
      <!-- 0.6 -->
      <g transform="translate(25.155 142.24515)scale(0.16 -0.16)">
       <use xlink:href="#DejaVuSans-30"/>
       <use x="63.623047" xlink:href="#DejaVuSans-2e"/>
       <use x="95.410156" xlink:href="#DejaVuSans-36"/>
      </g>
     </g>
    </g>
    <g id="ytick_5">
     <g id="line2d_29">
      <path clip-path="url(#pcf30070924)" d="M 57.6 81.9072 
L 360.8064 81.9072 
" style="fill:none;stroke:#b0b0b0;stroke-linecap:square;stroke-width:0.8;"/>
     </g>
     <g id="line2d_30">
      <g>
       <use style="stroke:#000000;stroke-width:0.8;" x="57.6" xlink:href="#mc9fece6fd3" y="81.9072"/>
      </g>
     </g>
     <g id="text_10">
      <!-- 0.8 -->
      <g transform="translate(25.155 87.98595)scale(0.16 -0.16)">
       <defs>
        <path d="M 2034 2216 
Q 1584 2216 1326 1975 
Q 1069 1734 1069 1313 
Q 1069 891 1326 650 
Q 1584 409 2034 409 
Q 2484 409 2743 651 
Q 3003 894 3003 1313 
Q 3003 1734 2745 1975 
Q 2488 2216 2034 2216 
z
M 1403 2484 
Q 997 2584 770 2862 
Q 544 3141 544 3541 
Q 544 4100 942 4425 
Q 1341 4750 2034 4750 
Q 2731 4750 3128 4425 
Q 3525 4100 3525 3541 
Q 3525 3141 3298 2862 
Q 3072 2584 2669 2484 
Q 3125 2378 3379 2068 
Q 3634 1759 3634 1313 
Q 3634 634 3220 271 
Q 2806 -91 2034 -91 
Q 1263 -91 848 271 
Q 434 634 434 1313 
Q 434 1759 690 2068 
Q 947 2378 1403 2484 
z
M 1172 3481 
Q 1172 3119 1398 2916 
Q 1625 2713 2034 2713 
Q 2441 2713 2670 2916 
Q 2900 3119 2900 3481 
Q 2900 3844 2670 4047 
Q 2441 4250 2034 4250 
Q 1625 4250 1398 4047 
Q 1172 3844 1172 3481 
z
" id="DejaVuSans-38" transform="scale(0.015625)"/>
       </defs>
       <use xlink:href="#DejaVuSans-30"/>
       <use x="63.623047" xlink:href="#DejaVuSans-2e"/>
       <use x="95.410156" xlink:href="#DejaVuSans-38"/>
      </g>
     </g>
    </g>
    <g id="ytick_6">
     <g id="line2d_31">
      <path clip-path="url(#pcf30070924)" d="M 57.6 27.648 
L 360.8064 27.648 
" style="fill:none;stroke:#b0b0b0;stroke-linecap:square;stroke-width:0.8;"/>
     </g>
     <g id="line2d_32">
      <g>
       <use style="stroke:#000000;stroke-width:0.8;" x="57.6" xlink:href="#mc9fece6fd3" y="27.648"/>
      </g>
     </g>
     <g id="text_11">
      <!-- 1.0 -->
      <g transform="translate(25.155 33.72675)scale(0.16 -0.16)">
       <use xlink:href="#DejaVuSans-31"/>
       <use x="63.623047" xlink:href="#DejaVuSans-2e"/>
       <use x="95.410156" xlink:href="#DejaVuSans-30"/>
      </g>
     </g>
    </g>
    <g id="text_12">
     <!-- Fraction of function,target pairs -->
     <g transform="translate(17.619531 297.681)rotate(-90)scale(0.17 -0.17)">
      <defs>
       <path d="M 628 4666 
L 3309 4666 
L 3309 4134 
L 1259 4134 
L 1259 2759 
L 3109 2759 
L 3109 2228 
L 1259 2228 
L 1259 0 
L 628 0 
L 628 4666 
z
" id="DejaVuSans-46" transform="scale(0.015625)"/>
       <path d="M 2631 2963 
Q 2534 3019 2420 3045 
Q 2306 3072 2169 3072 
Q 1681 3072 1420 2755 
Q 1159 2438 1159 1844 
L 1159 0 
L 581 0 
L 581 3500 
L 1159 3500 
L 1159 2956 
Q 1341 3275 1631 3429 
Q 1922 3584 2338 3584 
Q 2397 3584 2469 3576 
Q 2541 3569 2628 3553 
L 2631 2963 
z
" id="DejaVuSans-72" transform="scale(0.015625)"/>
       <path d="M 3122 3366 
L 3122 2828 
Q 2878 2963 2633 3030 
Q 2388 3097 2138 3097 
Q 1578 3097 1268 2742 
Q 959 2388 959 1747 
Q 959 1106 1268 751 
Q 1578 397 2138 397 
Q 2388 397 2633 464 
Q 2878 531 3122 666 
L 3122 134 
Q 2881 22 2623 -34 
Q 2366 -91 2075 -91 
Q 1284 -91 818 406 
Q 353 903 353 1747 
Q 353 2603 823 3093 
Q 1294 3584 2113 3584 
Q 2378 3584 2631 3529 
Q 2884 3475 3122 3366 
z
" id="DejaVuSans-63" transform="scale(0.015625)"/>
       <path d="M 1172 4494 
L 1172 3500 
L 2356 3500 
L 2356 3053 
L 1172 3053 
L 1172 1153 
Q 1172 725 1289 603 
Q 1406 481 1766 481 
L 2356 481 
L 2356 0 
L 1766 0 
Q 1100 0 847 248 
Q 594 497 594 1153 
L 594 3053 
L 172 3053 
L 172 3500 
L 594 3500 
L 594 4494 
L 1172 4494 
z
" id="DejaVuSans-74" transform="scale(0.015625)"/>
       <path d="M 544 1381 
L 544 3500 
L 1119 3500 
L 1119 1403 
Q 1119 906 1312 657 
Q 1506 409 1894 409 
Q 2359 409 2629 706 
Q 2900 1003 2900 1516 
L 2900 3500 
L 3475 3500 
L 3475 0 
L 2900 0 
L 2900 538 
Q 2691 219 2414 64 
Q 2138 -91 1772 -91 
Q 1169 -91 856 284 
Q 544 659 544 1381 
z
M 1991 3584 
L 1991 3584 
z
" id="DejaVuSans-75" transform="scale(0.015625)"/>
       <path d="M 750 794 
L 1409 794 
L 1409 256 
L 897 -744 
L 494 -744 
L 750 256 
L 750 794 
z
" id="DejaVuSans-2c" transform="scale(0.015625)"/>
       <path d="M 1159 525 
L 1159 -1331 
L 581 -1331 
L 581 3500 
L 1159 3500 
L 1159 2969 
Q 1341 3281 1617 3432 
Q 1894 3584 2278 3584 
Q 2916 3584 3314 3078 
Q 3713 2572 3713 1747 
Q 3713 922 3314 415 
Q 2916 -91 2278 -91 
Q 1894 -91 1617 61 
Q 1341 213 1159 525 
z
M 3116 1747 
Q 3116 2381 2855 2742 
Q 2594 3103 2138 3103 
Q 1681 3103 1420 2742 
Q 1159 2381 1159 1747 
Q 1159 1113 1420 752 
Q 1681 391 2138 391 
Q 2594 391 2855 752 
Q 3116 1113 3116 1747 
z
" id="DejaVuSans-70" transform="scale(0.015625)"/>
      </defs>
      <use xlink:href="#DejaVuSans-46"/>
      <use x="50.269531" xlink:href="#DejaVuSans-72"/>
      <use x="91.382812" xlink:href="#DejaVuSans-61"/>
      <use x="152.662109" xlink:href="#DejaVuSans-63"/>
      <use x="207.642578" xlink:href="#DejaVuSans-74"/>
      <use x="246.851562" xlink:href="#DejaVuSans-69"/>
      <use x="274.634766" xlink:href="#DejaVuSans-6f"/>
      <use x="335.816406" xlink:href="#DejaVuSans-6e"/>
      <use x="399.195312" xlink:href="#DejaVuSans-20"/>
      <use x="430.982422" xlink:href="#DejaVuSans-6f"/>
      <use x="492.164062" xlink:href="#DejaVuSans-66"/>
      <use x="527.369141" xlink:href="#DejaVuSans-20"/>
      <use x="559.15625" xlink:href="#DejaVuSans-66"/>
      <use x="594.361328" xlink:href="#DejaVuSans-75"/>
      <use x="657.740234" xlink:href="#DejaVuSans-6e"/>
      <use x="721.119141" xlink:href="#DejaVuSans-63"/>
      <use x="776.099609" xlink:href="#DejaVuSans-74"/>
      <use x="815.308594" xlink:href="#DejaVuSans-69"/>
      <use x="843.091797" xlink:href="#DejaVuSans-6f"/>
      <use x="904.273438" xlink:href="#DejaVuSans-6e"/>
      <use x="967.652344" xlink:href="#DejaVuSans-2c"/>
      <use x="999.439453" xlink:href="#DejaVuSans-74"/>
      <use x="1038.648438" xlink:href="#DejaVuSans-61"/>
      <use x="1099.927734" xlink:href="#DejaVuSans-72"/>
      <use x="1139.291016" xlink:href="#DejaVuSans-67"/>
      <use x="1202.767578" xlink:href="#DejaVuSans-65"/>
      <use x="1264.291016" xlink:href="#DejaVuSans-74"/>
      <use x="1303.5" xlink:href="#DejaVuSans-20"/>
      <use x="1335.287109" xlink:href="#DejaVuSans-70"/>
      <use x="1398.763672" xlink:href="#DejaVuSans-61"/>
      <use x="1460.042969" xlink:href="#DejaVuSans-69"/>
      <use x="1487.826172" xlink:href="#DejaVuSans-72"/>
      <use x="1528.939453" xlink:href="#DejaVuSans-73"/>
     </g>
    </g>
   </g>
   <g id="line2d_33">
    <defs>
     <path d="M 0 1.5 
C 0.397805 1.5 0.77937 1.341951 1.06066 1.06066 
C 1.341951 0.77937 1.5 0.397805 1.5 0 
C 1.5 -0.397805 1.341951 -0.77937 1.06066 -1.06066 
C 0.77937 -1.341951 0.397805 -1.5 0 -1.5 
C -0.397805 -1.5 -0.77937 -1.341951 -1.06066 -1.06066 
C -1.341951 -0.77937 -1.5 -0.397805 -1.5 0 
C -1.5 0.397805 -1.341951 0.77937 -1.06066 1.06066 
C -0.77937 1.341951 -0.397805 1.5 0 1.5 
z
" id="m4950d9c7a3" style="stroke:#f5deb3;"/>
    </defs>
    <g>
     <use style="fill:#f5deb3;stroke:#f5deb3;" x="143.850356" xlink:href="#m4950d9c7a3" y="27.648"/>
     <use style="fill:#f5deb3;stroke:#f5deb3;" x="143.850356" xlink:href="#m4950d9c7a3" y="27.648"/>
    </g>
   </g>
   <g id="line2d_34">
    <defs>
     <path d="M 0 1.5 
C 0.397805 1.5 0.77937 1.341951 1.06066 1.06066 
C 1.341951 0.77937 1.5 0.397805 1.5 0 
C 1.5 -0.397805 1.341951 -0.77937 1.06066 -1.06066 
C 0.77937 -1.341951 0.397805 -1.5 0 -1.5 
C -0.397805 -1.5 -0.77937 -1.341951 -1.06066 -1.06066 
C -1.341951 -0.77937 -1.5 -0.397805 -1.5 0 
C -1.5 0.397805 -1.341951 0.77937 -1.06066 1.06066 
C -0.77937 1.341951 -0.397805 1.5 0 1.5 
z
" id="mb3c374ef30" style="stroke:#000080;"/>
    </defs>
    <g>
     <use style="fill:#000080;stroke:#000080;" x="258.168937" xlink:href="#mb3c374ef30" y="27.648"/>
     <use style="fill:#000080;stroke:#000080;" x="258.168937" xlink:href="#mb3c374ef30" y="27.648"/>
    </g>
   </g>
   <g id="line2d_35">
    <path d="M 49.972572 298.944 
L 49.972572 298.234729 
L 57.6 298.234729 
L 57.6 296.106918 
L 67.209423 296.106918 
L 67.209423 295.397647 
L 70.639174 295.397647 
L 70.639174 295.043012 
L 73.538988 295.043012 
L 73.538988 294.333741 
L 76.050921 294.333741 
L 76.050921 293.624471 
L 82.04153 293.624471 
L 82.04153 292.560565 
L 83.678349 292.560565 
L 83.678349 291.851294 
L 86.578163 291.851294 
L 86.578163 290.787388 
L 87.876026 290.787388 
L 87.876026 290.432753 
L 89.090095 290.432753 
L 89.090095 288.659576 
L 93.287772 288.659576 
L 93.287772 288.304941 
L 95.916911 288.304941 
L 95.916911 287.950306 
L 102.708132 287.950306 
L 102.708132 287.595671 
L 103.815014 287.595671 
L 103.815014 286.531765 
L 106.791453 286.531765 
L 106.791453 284.758588 
L 110.144579 284.758588 
L 110.144579 284.049318 
L 112.989468 284.049318 
L 112.989468 283.694682 
L 114.872193 283.694682 
L 114.872193 283.340047 
L 116.030193 283.340047 
L 116.030193 282.276141 
L 119.599808 282.276141 
L 119.599808 280.8576 
L 120.058649 280.8576 
L 120.058649 279.793694 
L 123.374735 279.793694 
L 123.374735 278.729788 
L 127.458055 278.729788 
L 127.458055 278.375153 
L 128.060076 278.375153 
L 128.060076 277.665882 
L 129.758512 277.665882 
L 129.758512 276.956612 
L 133.210806 276.956612 
L 133.210806 276.601976 
L 133.874812 276.601976 
L 133.874812 276.247341 
L 134.725196 276.247341 
L 134.725196 275.538071 
L 134.931919 275.538071 
L 134.931919 274.8288 
L 135.136394 274.8288 
L 135.136394 274.119529 
L 135.932769 274.119529 
L 135.932769 273.410259 
L 137.430998 273.410259 
L 137.430998 273.055624 
L 138.481218 273.055624 
L 138.481218 272.346353 
L 138.650692 272.346353 
L 138.650692 271.637082 
L 139.636676 271.637082 
L 139.636676 270.573176 
L 141.173167 270.573176 
L 141.173167 270.218541 
L 142.593581 270.218541 
L 142.593581 269.154635 
L 143.133017 269.154635 
L 143.133017 268.445365 
L 144.16759 268.445365 
L 144.16759 267.381459 
L 145.26728 267.381459 
L 145.26728 265.608282 
L 146.64016 265.608282 
L 146.750169 264.899012 
L 147.076389 264.899012 
L 147.076389 263.480471 
L 149.40552 263.480471 
L 149.40552 263.125835 
L 150.334674 263.125835 
L 150.334674 262.416565 
L 152.1482 262.416565 
L 152.230346 261.352659 
L 153.49813 261.352659 
L 153.49813 260.998024 
L 153.726614 260.998024 
L 153.726614 260.643388 
L 153.877408 260.643388 
L 153.877408 260.288753 
L 156.664239 260.288753 
L 156.664239 259.934118 
L 156.921495 259.934118 
L 156.921495 259.579482 
L 157.363398 259.579482 
L 157.363398 258.870212 
L 157.916719 258.870212 
L 157.916719 258.515576 
L 158.804221 258.515576 
L 158.804221 257.806306 
L 160.409709 257.806306 
L 160.409709 257.451671 
L 161.240147 257.451671 
L 161.240147 257.097035 
L 161.592245 257.097035 
L 161.592245 256.7424 
L 162.610645 256.7424 
L 162.610645 256.387765 
L 164.019898 256.387765 
L 164.063646 255.323859 
L 164.194282 255.323859 
L 164.194282 254.969224 
L 164.917893 254.969224 
L 164.959603 253.905318 
L 165.330896 253.905318 
L 165.330896 253.550682 
L 166.286609 253.550682 
L 166.286609 253.196047 
L 167.01022 253.196047 
L 167.01022 252.841412 
L 168.028291 252.841412 
L 168.028291 251.777506 
L 168.586228 251.777506 
L 168.620556 251.068235 
L 169.094679 251.068235 
L 169.094679 250.004329 
L 170.230204 250.004329 
L 170.324419 248.940424 
L 170.757955 248.940424 
L 170.757955 248.231153 
L 171.301069 248.231153 
L 171.301069 247.521882 
L 171.800001 247.521882 
L 171.88669 246.812612 
L 171.944262 246.812612 
L 171.944262 246.103341 
L 172.087425 246.103341 
L 172.087425 245.039435 
L 172.257795 245.039435 
L 172.257795 244.6848 
L 172.426636 244.6848 
L 172.454629 242.911624 
L 173.005923 242.911624 
L 173.005923 242.556988 
L 173.329107 242.556988 
L 173.35579 241.138447 
L 173.829724 241.138447 
L 173.829724 240.783812 
L 173.959281 240.783812 
L 174.036588 240.074541 
L 174.718424 240.074541 
L 174.718424 239.719906 
L 175.062472 239.719906 
L 175.086808 239.010635 
L 175.32845 239.010635 
L 175.32845 238.656 
L 175.638014 238.656 
L 175.638014 238.301365 
L 175.755734 238.301365 
L 175.755734 237.592094 
L 175.919314 237.592094 
L 175.919314 237.237459 
L 176.805529 237.237459 
L 176.805529 236.882824 
L 177.566794 236.882824 
L 177.566794 236.528188 
L 178.03 236.528188 
L 178.133703 232.981835 
L 178.257396 232.981835 
L 178.257396 232.6272 
L 178.542888 232.6272 
L 178.542888 232.272565 
L 178.863946 232.272565 
L 178.963164 231.208659 
L 179.081538 231.208659 
L 179.081538 230.854024 
L 179.277187 230.854024 
L 179.277187 230.499388 
L 180.809098 230.499388 
L 180.809098 230.144753 
L 180.969881 230.144753 
L 181.023172 229.080847 
L 181.252369 229.080847 
L 181.357217 227.307671 
L 181.392038 227.307671 
L 181.496113 225.889129 
L 182.863615 225.889129 
L 182.943869 224.825224 
L 183.340084 224.825224 
L 183.340084 224.470588 
L 183.480702 224.470588 
L 183.480702 224.115953 
L 184.213415 224.115953 
L 184.243334 223.406682 
L 184.421855 223.406682 
L 184.421855 223.052047 
L 184.539935 223.052047 
L 184.584025 222.342776 
L 184.701095 222.342776 
L 184.701095 221.988141 
L 184.846414 221.988141 
L 184.860885 220.5696 
L 185.486809 220.5696 
L 185.500795 219.860329 
L 185.888248 219.860329 
L 185.888248 219.505694 
L 186.534433 219.505694 
L 186.534433 219.151059 
L 186.705688 219.151059 
L 186.705688 218.796424 
L 186.823342 218.796424 
L 186.823342 218.441788 
L 187.120713 218.441788 
L 187.210292 216.668612 
L 187.286736 216.668612 
L 187.286736 216.313976 
L 187.576926 216.313976 
L 187.676822 215.250071 
L 187.91197 215.250071 
L 187.91197 214.895435 
L 188.046776 214.895435 
L 188.046776 214.5408 
L 188.481326 214.5408 
L 188.552785 213.476894 
L 188.694894 213.476894 
L 188.694894 213.122259 
L 188.999162 213.122259 
L 189.103349 210.994447 
L 189.160983 210.994447 
L 189.172488 210.285176 
L 189.772426 210.285176 
L 189.772426 209.221271 
L 189.938803 209.221271 
L 189.960876 208.512 
L 190.158374 208.512 
L 190.267206 206.384188 
L 190.440038 206.384188 
L 190.440038 206.029553 
L 190.653869 206.029553 
L 190.653869 205.674918 
L 190.938738 205.674918 
L 191.032744 204.256376 
L 191.157358 204.256376 
L 191.219357 203.192471 
L 191.281153 203.192471 
L 191.281153 202.837835 
L 191.414351 202.837835 
L 191.485684 201.773929 
L 191.627544 201.773929 
L 191.627544 201.064659 
L 191.848327 201.064659 
L 191.957755 199.646118 
L 192.056685 199.646118 
L 192.125628 197.872941 
L 192.456946 197.872941 
L 192.456946 197.518306 
L 192.601281 197.518306 
L 192.601281 196.809035 
L 192.820466 196.809035 
L 192.867779 194.681224 
L 193.121231 194.681224 
L 193.167795 192.553412 
L 193.572657 192.553412 
L 193.572657 191.844141 
L 193.70871 191.844141 
L 193.70871 191.489506 
L 193.968988 191.489506 
L 194.013502 190.4256 
L 194.119908 190.4256 
L 194.225715 189.716329 
L 194.383318 189.716329 
L 194.392035 188.652424 
L 194.496327 188.652424 
L 194.496327 188.297788 
L 194.788718 188.297788 
L 194.890839 187.588518 
L 195.076634 187.588518 
L 195.160483 186.524612 
L 195.24396 186.524612 
L 195.24396 186.169976 
L 195.48397 186.169976 
L 195.48397 185.815341 
L 195.672169 185.815341 
L 195.672169 185.460706 
L 195.793901 185.460706 
L 195.793901 184.042165 
L 196.011052 184.042165 
L 196.035026 182.623624 
L 196.375337 182.623624 
L 196.437977 181.205082 
L 197.090955 181.205082 
L 197.090955 180.850447 
L 197.241358 180.850447 
L 197.331026 180.141176 
L 197.3757 180.141176 
L 197.383135 179.077271 
L 197.486923 179.077271 
L 197.545975 177.658729 
L 197.678167 177.658729 
L 197.678167 176.949459 
L 197.85299 176.949459 
L 197.85299 176.594824 
L 198.026203 176.594824 
L 198.119365 175.176282 
L 198.592326 175.176282 
L 198.592326 174.821647 
L 198.731234 174.821647 
L 198.814089 174.112376 
L 198.903439 174.112376 
L 199.012829 171.984565 
L 199.053686 171.984565 
L 199.114807 170.566024 
L 199.195994 170.566024 
L 199.263382 168.438212 
L 199.430806 168.438212 
L 199.470766 167.019671 
L 199.675889 167.019671 
L 199.675889 166.3104 
L 199.917821 166.3104 
L 199.950277 165.246494 
L 200.085984 165.246494 
L 200.188727 163.118682 
L 200.207929 163.118682 
L 200.278169 158.863059 
L 200.392545 158.863059 
L 200.392545 158.508424 
L 200.69419 158.508424 
L 200.712883 157.799153 
L 200.824653 157.799153 
L 200.867941 157.089882 
L 201.101209 157.089882 
L 201.101209 156.735247 
L 201.283345 156.735247 
L 201.283345 156.380612 
L 201.43379 156.380612 
L 201.43379 155.671341 
L 201.583042 155.671341 
L 201.583042 155.316706 
L 201.837016 155.316706 
L 201.924812 152.124988 
L 201.977293 152.124988 
L 201.977293 151.770353 
L 202.312037 151.770353 
L 202.312037 151.415718 
L 202.640929 151.415718 
L 202.719462 150.351812 
L 202.847774 150.351812 
L 202.947585 149.287906 
L 203.063366 149.287906 
L 203.151104 147.514729 
L 203.363266 147.514729 
L 203.411889 146.805459 
L 203.4819 146.805459 
L 203.589104 146.096188 
L 203.594449 146.096188 
L 203.594449 145.741553 
L 203.775254 145.741553 
L 203.843928 143.968376 
L 204.011913 143.968376 
L 204.084937 142.549835 
L 204.219806 142.549835 
L 204.235306 141.840565 
L 204.379358 141.840565 
L 204.481581 140.422024 
L 204.820037 140.422024 
L 204.820037 140.067388 
L 204.959696 140.067388 
L 205.004367 139.358118 
L 205.122975 139.358118 
L 205.181999 138.648847 
L 205.260411 138.648847 
L 205.260411 138.294212 
L 205.493706 138.294212 
L 205.570832 136.1664 
L 205.690712 136.1664 
L 205.786069 134.747859 
L 205.805083 134.747859 
L 205.885677 133.329318 
L 205.94236 133.329318 
L 205.98476 132.620047 
L 206.106715 132.620047 
L 206.106715 131.201506 
L 206.246458 131.201506 
L 206.34828 128.009788 
L 206.490827 128.009788 
L 206.490827 127.655153 
L 206.700378 127.655153 
L 206.795272 126.236612 
L 206.853776 126.236612 
L 206.94343 125.172706 
L 206.970243 125.172706 
L 207.077115 123.754165 
L 207.130324 123.754165 
L 207.240694 122.690259 
L 207.249496 122.690259 
L 207.249496 122.335624 
L 207.4421 122.335624 
L 207.4421 121.980988 
L 207.55932 121.980988 
L 207.62844 119.498541 
L 207.864124 119.498541 
L 207.915155 118.08 
L 208.058998 118.08 
L 208.071637 117.370729 
L 208.281052 117.370729 
L 208.301866 115.597553 
L 208.438663 115.597553 
L 208.516976 114.888282 
L 208.639968 114.888282 
L 208.684864 113.469741 
L 208.754039 113.469741 
L 208.831053 111.696565 
L 208.976114 111.696565 
L 208.976114 110.632659 
L 209.100138 110.632659 
L 209.100138 110.278024 
L 209.302415 110.278024 
L 209.361496 109.214118 
L 209.518146 109.214118 
L 209.529842 108.150212 
L 209.700558 108.150212 
L 209.777646 106.731671 
L 209.946138 106.731671 
L 210.041203 105.313129 
L 210.124466 105.313129 
L 210.124466 104.958494 
L 210.241168 104.958494 
L 210.252423 103.894588 
L 210.457588 103.894588 
L 210.553801 102.830682 
L 210.609086 102.830682 
L 210.609086 102.121412 
L 210.752071 102.121412 
L 210.846794 100.702871 
L 210.908471 100.702871 
L 210.908471 99.638965 
L 211.027623 99.638965 
L 211.124553 98.575059 
L 211.199599 98.575059 
L 211.267241 97.511153 
L 211.313383 97.511153 
L 211.341721 96.092612 
L 211.440572 96.092612 
L 211.461687 95.383341 
L 211.622784 95.383341 
L 211.695873 93.610165 
L 211.754832 93.610165 
L 211.754832 93.255529 
L 211.971732 93.255529 
L 212.057115 92.546259 
L 212.145504 92.546259 
L 212.145504 92.191624 
L 212.374731 92.191624 
L 212.458309 90.063812 
L 212.578012 90.063812 
L 212.677185 86.517459 
L 212.723288 86.517459 
L 212.723288 86.162824 
L 212.870715 86.162824 
L 212.870715 85.808188 
L 213.007278 85.808188 
L 213.088098 85.098918 
L 213.191043 85.098918 
L 213.267884 82.261835 
L 213.353956 82.261835 
L 213.407948 81.552565 
L 213.474432 81.552565 
L 213.546978 79.779388 
L 213.65997 79.779388 
L 213.65997 78.360847 
L 213.834397 78.360847 
L 213.883938 77.651576 
L 214.181518 77.651576 
L 214.236225 76.233035 
L 214.51338 76.233035 
L 214.51338 75.8784 
L 214.662312 75.8784 
L 214.662312 75.523765 
L 214.821846 75.523765 
L 214.909894 74.105224 
L 215.003361 74.105224 
L 215.003361 73.395953 
L 215.15137 73.395953 
L 215.237893 71.977412 
L 215.283876 71.977412 
L 215.283876 71.268141 
L 215.594183 71.268141 
L 215.594183 70.913506 
L 215.92444 70.913506 
L 215.960472 69.140329 
L 216.262628 69.140329 
L 216.36047 68.431059 
L 216.420013 68.431059 
L 216.506287 66.657882 
L 216.557325 66.657882 
L 216.557325 66.303247 
L 217.010541 66.303247 
L 217.044554 65.239341 
L 217.174801 65.239341 
L 217.205927 64.530071 
L 217.373635 64.530071 
L 217.399304 63.8208 
L 217.560218 63.8208 
L 217.659147 62.402259 
L 218.07945 62.402259 
L 218.104174 60.983718 
L 218.273893 60.983718 
L 218.273893 60.629082 
L 218.654451 60.629082 
L 218.654451 60.274447 
L 218.84307 60.274447 
L 218.84307 59.919812 
L 218.973279 59.919812 
L 219.03452 59.210541 
L 219.23335 59.210541 
L 219.23335 58.855906 
L 219.356272 58.855906 
L 219.390915 57.792 
L 219.478395 57.792 
L 219.510522 57.082729 
L 219.733889 57.082729 
L 219.733889 56.728094 
L 219.932227 56.728094 
L 219.932227 56.373459 
L 220.183883 56.373459 
L 220.219245 54.954918 
L 220.388502 54.954918 
L 220.451855 52.472471 
L 220.642804 52.472471 
L 220.642804 52.117835 
L 221.099226 52.117835 
L 221.099226 51.7632 
L 221.497446 51.7632 
L 221.497446 51.053929 
L 221.618772 51.053929 
L 221.618772 50.699294 
L 221.73932 50.699294 
L 221.73932 50.344659 
L 222.130338 50.344659 
L 222.207973 49.635388 
L 222.536834 49.635388 
L 222.536834 49.280753 
L 222.705906 49.280753 
L 222.707841 48.571482 
L 223.206075 48.571482 
L 223.247475 47.862212 
L 223.597589 47.862212 
L 223.597589 47.507576 
L 223.943117 47.507576 
L 223.943117 47.152941 
L 224.078491 47.152941 
L 224.078491 46.798306 
L 224.461251 46.798306 
L 224.461251 46.443671 
L 224.58596 46.443671 
L 224.58596 46.089035 
L 224.907072 46.089035 
L 224.907072 45.7344 
L 225.276874 45.7344 
L 225.276874 45.379765 
L 225.506654 45.379765 
L 225.506654 45.025129 
L 225.705641 45.025129 
L 225.705641 44.670494 
L 226.242244 44.670494 
L 226.242244 44.315859 
L 229.833084 44.315859 
L 229.833084 43.961224 
L 236.652901 43.961224 
L 236.652901 43.606588 
L 236.838179 43.606588 
L 236.932863 42.188047 
L 237.113619 42.188047 
L 237.113619 41.833412 
L 237.350476 41.833412 
L 237.447041 41.124141 
L 237.530801 41.124141 
L 237.612438 40.414871 
L 237.957 40.414871 
L 237.957 40.060235 
L 238.143556 40.060235 
L 238.248003 38.996329 
L 238.258162 38.996329 
L 238.258162 38.641694 
L 238.521224 38.641694 
L 238.521224 38.287059 
L 238.924164 38.287059 
L 239.022752 37.223153 
L 239.077931 37.223153 
L 239.077931 36.868518 
L 239.262573 36.868518 
L 239.262573 36.159247 
L 239.404852 36.159247 
L 239.450187 35.095341 
L 240.213012 35.095341 
L 240.240453 34.386071 
L 240.489401 34.386071 
L 240.598082 33.6768 
L 240.706882 33.6768 
L 240.706882 33.322165 
L 240.865228 33.322165 
L 240.865228 32.967529 
L 241.223575 32.967529 
L 241.223575 32.612894 
L 241.459926 32.612894 
L 241.459926 32.258259 
L 241.57877 32.258259 
L 241.611374 31.548988 
L 241.920418 31.548988 
L 241.920418 31.194353 
L 242.095846 31.194353 
L 242.155795 30.485082 
L 242.700948 30.485082 
L 242.700948 30.130447 
L 242.943977 30.130447 
L 243.019037 29.421176 
L 244.324368 29.421176 
L 244.324368 29.066541 
L 251.567283 29.066541 
L 251.567283 28.711906 
L 252.165457 28.711906 
L 252.165457 28.357271 
L 253.109187 28.357271 
L 253.109187 28.002635 
L 258.168937 28.002635 
L 258.168937 27.648 
L 360.8064 27.648 
L 360.8064 27.648 
" style="fill:none;stroke:#000080;stroke-linecap:square;stroke-width:1.5;"/>
   </g>
   <g id="line2d_36">
    <defs>
     <path d="M 0 6 
C 1.591219 6 3.117479 5.367802 4.242641 4.242641 
C 5.367802 3.117479 6 1.591219 6 0 
C 6 -1.591219 5.367802 -3.117479 4.242641 -4.242641 
C 3.117479 -5.367802 1.591219 -6 0 -6 
C -1.591219 -6 -3.117479 -5.367802 -4.242641 -4.242641 
C -5.367802 -3.117479 -6 -1.591219 -6 0 
C -6 1.591219 -5.367802 3.117479 -4.242641 4.242641 
C -3.117479 5.367802 -1.591219 6 0 6 
z
" id="mafebc4464b" style="stroke:#000080;stroke-width:1.5;"/>
    </defs>
    <g>
     <use style="fill-opacity:0;stroke:#000080;stroke-width:1.5;" x="153.877408" xlink:href="#mafebc4464b" y="260.288753"/>
     <use style="fill-opacity:0;stroke:#000080;stroke-width:1.5;" x="202.640929" xlink:href="#mafebc4464b" y="151.415718"/>
     <use style="fill-opacity:0;stroke:#000080;stroke-width:1.5;" x="226.242244" xlink:href="#mafebc4464b" y="44.315859"/>
     <use style="fill-opacity:0;stroke:#000080;stroke-width:1.5;" x="258.168937" xlink:href="#mafebc4464b" y="27.648"/>
     <use style="fill-opacity:0;stroke:#000080;stroke-width:1.5;" x="258.168937" xlink:href="#mafebc4464b" y="27.648"/>
     <use style="fill-opacity:0;stroke:#000080;stroke-width:1.5;" x="360.8064" xlink:href="#mafebc4464b" y="27.648"/>
    </g>
   </g>
   <g id="line2d_37">
    <path style="fill:none;stroke:#000080;stroke-linecap:square;stroke-width:1.5;"/>
    <g/>
   </g>
   <g id="line2d_38">
    <path clip-path="url(#pcf30070924)" d="M 236.28195 43.961224 
" style="fill:none;stroke:#000080;stroke-linecap:square;stroke-width:1.5;"/>
    <defs>
     <path d="M -12 12 
L 12 -12 
M -12 -12 
L 12 12 
" id="m685e3212a9" style="stroke:#000080;"/>
    </defs>
    <g clip-path="url(#pcf30070924)">
     <use style="fill:#000080;stroke:#000080;" x="236.28195" xlink:href="#m685e3212a9" y="43.961224"/>
    </g>
   </g>
   <g id="line2d_39">
    <defs>
     <path d="M 0 1.5 
C 0.397805 1.5 0.77937 1.341951 1.06066 1.06066 
C 1.341951 0.77937 1.5 0.397805 1.5 0 
C 1.5 -0.397805 1.341951 -0.77937 1.06066 -1.06066 
C 0.77937 -1.341951 0.397805 -1.5 0 -1.5 
C -0.397805 -1.5 -0.77937 -1.341951 -1.06066 -1.06066 
C -1.341951 -0.77937 -1.5 -0.397805 -1.5 0 
C -1.5 0.397805 -1.341951 0.77937 -1.06066 1.06066 
C -0.77937 1.341951 -0.397805 1.5 0 1.5 
z
" id="m99e63adf67" style="stroke:#ff00ff;"/>
    </defs>
    <g>
     <use style="fill:#ff00ff;stroke:#ff00ff;" x="186.434918" xlink:href="#m99e63adf67" y="27.648"/>
     <use style="fill:#ff00ff;stroke:#ff00ff;" x="186.434918" xlink:href="#m99e63adf67" y="27.648"/>
    </g>
   </g>
   <g id="line2d_40">
    <path d="M 36.933397 298.944 
L 36.933397 297.170824 
L 57.6 297.170824 
L 57.6 295.043012 
L 63.011746 295.043012 
L 63.011746 293.979106 
L 70.639174 293.979106 
L 70.639174 292.560565 
L 76.050921 292.560565 
L 76.050921 291.142024 
L 78.266603 291.142024 
L 78.266603 290.787388 
L 80.248597 290.787388 
L 80.248597 290.432753 
L 83.678349 290.432753 
L 83.678349 290.078118 
L 92.322865 290.078118 
L 92.322865 289.368847 
L 96.717523 289.368847 
L 96.717523 287.595671 
L 98.933205 287.595671 
L 98.933205 287.241035 
L 99.617337 287.241035 
L 99.617337 286.8864 
L 100.277459 286.8864 
L 100.277459 286.531765 
L 101.532027 286.531765 
L 101.532027 285.467859 
L 102.12927 285.467859 
L 102.12927 285.113224 
L 102.708132 285.113224 
L 102.708132 283.340047 
L 104.344952 283.340047 
L 104.344952 281.566871 
L 105.850679 281.566871 
L 105.850679 279.439059 
L 106.326946 279.439059 
L 106.326946 279.084424 
L 107.244765 279.084424 
L 107.244765 278.375153 
L 107.68741 278.375153 
L 107.68741 277.665882 
L 108.119879 277.665882 
L 108.119879 277.311247 
L 108.542628 277.311247 
L 108.542628 276.956612 
L 110.144579 276.956612 
L 110.144579 275.538071 
L 110.897141 275.538071 
L 110.897141 274.8288 
L 111.620752 274.8288 
L 111.620752 274.119529 
L 112.317555 274.119529 
L 112.317555 273.764894 
L 113.954374 273.764894 
L 113.954374 273.410259 
L 114.571202 273.410259 
L 114.571202 272.700988 
L 115.168444 272.700988 
L 115.168444 271.991718 
L 115.747307 271.991718 
L 115.747307 271.637082 
L 117.121023 271.637082 
L 117.121023 271.282447 
L 117.384126 271.282447 
L 117.384126 270.927812 
L 118.889854 270.927812 
L 118.889854 270.573176 
L 119.366121 270.573176 
L 119.366121 268.8 
L 119.830627 268.8 
L 119.830627 267.736094 
L 121.581803 267.736094 
L 121.581803 267.381459 
L 122.19863 267.381459 
L 122.19863 267.026824 
L 122.795872 267.026824 
L 122.795872 266.672188 
L 123.563797 266.672188 
L 123.563797 266.317553 
L 124.119844 266.317553 
L 124.119844 265.253647 
L 124.3016 265.253647 
L 124.3016 264.544376 
L 124.481616 264.544376 
L 124.481616 264.189741 
L 125.862901 264.189741 
L 125.862901 263.125835 
L 126.192937 263.125835 
L 126.192937 262.7712 
L 126.517282 262.7712 
L 126.517282 262.061929 
L 127.458055 262.061929 
L 127.458055 261.707294 
L 128.207619 261.707294 
L 128.207619 261.352659 
L 128.354013 261.352659 
L 128.354013 260.643388 
L 129.069367 260.643388 
L 129.069367 259.934118 
L 129.622688 259.934118 
L 129.622688 259.579482 
L 129.893363 259.579482 
L 129.893363 258.870212 
L 130.4233 258.870212 
L 130.4233 258.160941 
L 131.929028 258.160941 
L 131.929028 257.806306 
L 132.405295 257.806306 
L 132.405295 257.451671 
L 132.638982 257.451671 
L 132.638982 256.033129 
L 132.869802 256.033129 
L 132.869802 255.678494 
L 133.097823 255.678494 
L 133.097823 255.323859 
L 133.210806 255.323859 
L 133.210806 254.259953 
L 133.323114 254.259953 
L 133.323114 253.905318 
L 133.656071 253.905318 
L 133.656071 253.550682 
L 134.620977 253.550682 
L 134.620977 251.777506 
L 134.931919 251.777506 
L 135.034434 250.7136 
L 135.338671 250.7136 
L 135.338671 250.004329 
L 135.736814 250.004329 
L 135.835047 248.940424 
L 135.932769 248.940424 
L 136.029987 248.231153 
L 136.126705 248.231153 
L 136.126705 247.167247 
L 136.318661 247.167247 
L 136.413909 246.457976 
L 137.067478 246.457976 
L 137.067478 246.103341 
L 137.250116 246.103341 
L 137.250116 245.394071 
L 137.963436 245.394071 
L 137.963436 245.039435 
L 138.395904 245.039435 
L 138.481218 243.975529 
L 138.902075 243.975529 
L 138.902075 243.620894 
L 139.556456 243.620894 
L 139.556456 243.266259 
L 139.796097 243.266259 
L 139.796097 241.847718 
L 140.49723 241.847718 
L 140.573544 240.429176 
L 140.875745 240.429176 
L 140.875745 239.719906 
L 141.246793 239.719906 
L 141.246793 239.010635 
L 141.682602 239.010635 
L 141.682602 238.656 
L 141.896777 238.656 
L 141.896777 238.301365 
L 142.387236 238.301365 
L 142.387236 237.946729 
L 142.932537 237.946729 
L 142.932537 236.528188 
L 143.133017 236.528188 
L 143.133017 235.818918 
L 143.265494 235.818918 
L 143.331383 234.400376 
L 143.397043 234.400376 
L 143.462475 233.336471 
L 143.786262 233.336471 
L 143.786262 232.981835 
L 143.977892 232.981835 
L 143.977892 231.917929 
L 144.10457 231.917929 
L 144.10457 231.208659 
L 144.355394 231.208659 
L 144.355394 230.854024 
L 144.479563 230.854024 
L 144.479563 230.499388 
L 144.664294 230.499388 
L 144.664294 229.790118 
L 144.786447 229.790118 
L 144.847227 229.080847 
L 145.385592 229.080847 
L 145.385592 228.726212 
L 145.851536 228.726212 
L 145.851536 228.371576 
L 146.080251 228.371576 
L 146.080251 227.662306 
L 146.362288 227.662306 
L 146.362288 227.307671 
L 146.47393 227.307671 
L 146.47393 226.243765 
L 146.64016 226.243765 
L 146.64016 225.889129 
L 146.804934 225.889129 
L 146.859539 224.470588 
L 146.968277 224.470588 
L 146.968277 223.052047 
L 147.183884 223.052047 
L 147.183884 222.697412 
L 147.502732 222.697412 
L 147.607824 221.988141 
L 147.868016 221.988141 
L 147.868016 221.633506 
L 148.022421 221.633506 
L 148.073609 219.860329 
L 148.175569 219.860329 
L 148.276979 218.441788 
L 148.428077 218.441788 
L 148.428077 217.377882 
L 148.775988 217.377882 
L 148.775988 216.668612 
L 148.971944 216.668612 
L 148.971944 216.313976 
L 149.117582 216.313976 
L 149.117582 215.959341 
L 149.547853 215.959341 
L 149.642146 213.476894 
L 149.73597 213.476894 
L 149.829328 212.058353 
L 150.106653 212.058353 
L 150.198193 211.349082 
L 150.425115 211.349082 
L 150.515122 210.285176 
L 150.649331 210.285176 
L 150.693856 208.866635 
L 150.870907 208.866635 
L 150.958812 207.802729 
L 151.046307 207.802729 
L 151.046307 207.093459 
L 151.349377 207.093459 
L 151.435079 206.029553 
L 151.520392 206.029553 
L 151.520392 205.674918 
L 151.689867 205.674918 
L 151.774035 204.965647 
L 151.94125 204.965647 
L 152.024303 203.547106 
L 152.065693 203.547106 
L 152.106991 202.4832 
L 152.189318 202.4832 
L 152.271285 201.064659 
L 152.635783 201.064659 
L 152.715833 198.582212 
L 152.75573 198.582212 
L 152.835271 197.518306 
L 152.953957 197.518306 
L 153.032666 196.809035 
L 153.071898 196.809035 
L 153.071898 196.4544 
L 153.228011 196.4544 
L 153.305585 194.326588 
L 153.49813 194.326588 
L 153.5746 193.262682 
L 153.726614 193.262682 
L 153.802162 191.489506 
L 153.839823 191.489506 
L 153.877408 190.780235 
L 153.989717 190.780235 
L 153.989717 189.716329 
L 154.138425 189.716329 
L 154.17542 188.297788 
L 154.322673 188.297788 
L 154.432362 187.233882 
L 154.505134 187.233882 
L 154.505134 186.879247 
L 154.685842 186.879247 
L 154.793439 185.460706 
L 154.829169 185.460706 
L 154.86483 184.042165 
L 155.217778 184.042165 
L 155.252711 183.332894 
L 155.391799 183.332894 
L 155.391799 182.978259 
L 155.701037 182.978259 
L 155.735085 181.205082 
L 155.938089 181.205082 
L 156.038776 179.077271 
L 156.238546 179.077271 
L 156.271636 178.013365 
L 156.436218 178.013365 
L 156.501649 176.949459 
L 156.696589 176.949459 
L 156.728884 174.821647 
L 156.825436 174.821647 
L 156.921495 173.403106 
L 156.985263 173.403106 
L 157.080512 172.3392 
L 157.143744 172.3392 
L 157.238196 171.275294 
L 157.332175 171.275294 
L 157.425688 170.211388 
L 157.549652 170.211388 
L 157.642093 168.438212 
L 157.764644 168.438212 
L 157.825621 167.019671 
L 157.886402 167.019671 
L 157.946987 164.891859 
L 158.007377 164.891859 
L 158.0976 163.118682 
L 158.247018 163.118682 
L 158.336102 157.799153 
L 158.365703 157.799153 
L 158.395258 157.089882 
L 158.483644 157.089882 
L 158.483644 156.380612 
L 158.600851 156.380612 
L 158.688279 153.898165 
L 158.804221 153.898165 
L 158.804221 153.543529 
L 158.919453 153.543529 
L 158.976805 152.479624 
L 159.090988 152.479624 
L 159.176172 151.061082 
L 159.429436 151.061082 
L 159.429436 149.997176 
L 159.651731 149.997176 
L 159.651731 149.642541 
L 159.789344 149.642541 
L 159.898714 147.869365 
L 160.034538 147.869365 
L 160.142495 145.741553 
L 160.276577 145.741553 
L 160.329943 144.677647 
L 160.4627 144.677647 
L 160.4627 143.968376 
L 160.594526 143.968376 
L 160.673181 142.904471 
L 160.82951 142.904471 
L 160.881333 140.776659 
L 160.9588 140.776659 
L 160.9588 140.067388 
L 161.112783 140.067388 
L 161.112783 138.648847 
L 161.341421 138.648847 
L 161.341421 137.939576 
L 161.617145 137.939576 
L 161.617145 137.584941 
L 161.74115 137.584941 
L 161.839769 136.1664 
L 161.986735 136.1664 
L 162.084079 134.747859 
L 162.132562 134.747859 
L 162.229155 131.910776 
L 162.253227 131.910776 
L 162.325256 131.201506 
L 162.373122 131.201506 
L 162.39701 130.492235 
L 162.492258 130.492235 
L 162.587027 129.073694 
L 162.634233 129.073694 
L 162.704821 126.945882 
L 162.775144 126.945882 
L 162.868502 125.527341 
L 162.891769 125.527341 
L 162.915008 124.818071 
L 163.007676 124.818071 
L 163.076878 123.044894 
L 163.122872 123.044894 
L 163.191653 117.725365 
L 163.3965 117.725365 
L 163.44172 116.661459 
L 163.509347 116.661459 
L 163.554297 115.597553 
L 163.621521 115.597553 
L 163.710781 114.179012 
L 163.777449 114.179012 
L 163.865975 112.760471 
L 163.976048 112.760471 
L 164.085482 110.632659 
L 164.215967 110.632659 
L 164.302457 109.214118 
L 164.345553 109.214118 
L 164.452864 107.440941 
L 164.516958 107.440941 
L 164.602079 106.731671 
L 164.665667 106.731671 
L 164.750119 106.0224 
L 164.813209 106.0224 
L 164.917893 104.249224 
L 164.959603 104.249224 
L 165.063478 103.539953 
L 165.125528 103.539953 
L 165.125528 102.830682 
L 165.269521 102.830682 
L 165.371702 101.766776 
L 165.45305 101.766776 
L 165.493592 99.9936 
L 165.574415 99.9936 
L 165.674958 97.865788 
L 165.695002 97.865788 
L 165.774966 95.737976 
L 165.854592 95.737976 
L 165.914091 94.674071 
L 165.973402 94.674071 
L 166.012839 93.9648 
L 166.150222 93.9648 
L 166.247742 92.191624 
L 166.267186 92.191624 
L 166.267186 91.836988 
L 166.383426 91.836988 
L 166.422014 91.127718 
L 166.498953 91.127718 
L 166.594686 87.936 
L 166.651893 87.936 
L 166.670924 86.872094 
L 166.878997 86.872094 
L 166.935348 86.162824 
L 167.084795 86.162824 
L 167.1776 84.389647 
L 167.233064 84.389647 
L 167.325142 82.971106 
L 167.398482 82.971106 
L 167.453299 81.552565 
L 167.598703 81.552565 
L 167.707023 80.488659 
L 167.725016 80.488659 
L 167.742992 79.779388 
L 167.850487 79.779388 
L 167.850487 79.424753 
L 167.975126 79.424753 
L 167.975126 79.070118 
L 168.098945 79.070118 
L 168.098945 78.715482 
L 168.309328 78.715482 
L 168.309328 78.360847 
L 168.430973 78.360847 
L 168.430973 77.651576 
L 168.569041 77.651576 
L 168.586228 76.942306 
L 168.740211 76.942306 
L 168.808246 75.8784 
L 168.909839 75.8784 
L 169.010886 74.814494 
L 169.111393 74.814494 
L 169.178101 73.041318 
L 169.277721 73.041318 
L 169.277721 72.686682 
L 169.458999 72.686682 
L 169.508137 71.622776 
L 169.589749 71.622776 
L 169.638546 70.558871 
L 169.719596 70.558871 
L 169.816397 69.140329 
L 169.848553 69.140329 
L 169.896685 67.367153 
L 169.96067 67.367153 
L 169.96067 67.012518 
L 170.103845 67.012518 
L 170.151329 65.948612 
L 170.418164 65.948612 
L 170.418164 65.593976 
L 170.71198 65.593976 
L 170.742643 64.530071 
L 170.864796 64.530071 
L 170.955893 63.466165 
L 171.046551 63.466165 
L 171.15177 61.338353 
L 171.196684 61.338353 
L 171.196684 60.983718 
L 171.345629 60.983718 
L 171.345629 60.629082 
L 171.463941 60.629082 
L 171.537509 59.919812 
L 171.596158 59.919812 
L 171.68379 58.501271 
L 171.756506 58.501271 
L 171.814477 57.437365 
L 172.144386 57.437365 
L 172.229507 56.018824 
L 172.440637 56.018824 
L 172.46861 54.954918 
L 172.566188 54.954918 
L 172.566188 54.600282 
L 172.732295 54.600282 
L 172.732295 54.245647 
L 172.924252 54.245647 
L 173.0195 53.181741 
L 173.302386 53.181741 
L 173.302386 52.827106 
L 173.462145 52.827106 
L 173.462145 52.472471 
L 173.712355 52.472471 
L 173.77765 51.408565 
L 173.84272 51.408565 
L 173.894614 50.344659 
L 174.049442 50.344659 
L 174.126381 49.280753 
L 174.266624 49.280753 
L 174.355328 48.216847 
L 174.380595 48.216847 
L 174.380595 47.862212 
L 174.506426 47.862212 
L 174.581522 46.443671 
L 174.668757 46.443671 
L 174.668757 46.089035 
L 174.829699 46.089035 
L 174.866645 45.379765 
L 174.964813 45.379765 
L 174.964813 45.025129 
L 175.098964 45.025129 
L 175.098964 44.670494 
L 175.220095 44.670494 
L 175.32845 43.606588 
L 175.388379 43.606588 
L 175.388379 42.897318 
L 175.567027 42.897318 
L 175.602554 42.188047 
L 175.790907 42.188047 
L 175.896032 41.124141 
L 176.035292 41.124141 
L 176.035292 40.769506 
L 176.150559 40.769506 
L 176.150559 40.414871 
L 176.57101 40.414871 
L 176.57101 40.060235 
L 176.694218 40.060235 
L 176.794427 39.350965 
L 177.222605 39.350965 
L 177.265975 38.641694 
L 177.778757 38.641694 
L 177.820865 37.932424 
L 178.040396 37.932424 
L 178.040396 37.577788 
L 178.623668 37.577788 
L 178.633741 36.868518 
L 178.774201 36.868518 
L 178.774201 36.513882 
L 178.91362 36.513882 
L 178.91362 36.159247 
L 179.130641 36.159247 
L 179.130641 35.804612 
L 179.710098 35.804612 
L 179.710098 35.449976 
L 179.842775 35.449976 
L 179.880511 34.740706 
L 180.188981 34.740706 
L 180.216774 34.031435 
L 181.164546 34.031435 
L 181.208509 33.322165 
L 181.339783 33.322165 
L 181.41811 32.612894 
L 181.530677 32.612894 
L 181.530677 32.258259 
L 181.668302 32.258259 
L 181.668302 31.903624 
L 181.90675 31.903624 
L 181.923667 31.194353 
L 182.448907 31.194353 
L 182.448907 30.839718 
L 183.418335 30.839718 
L 183.418335 30.485082 
L 183.926786 30.485082 
L 183.926786 30.130447 
L 184.183448 30.130447 
L 184.183448 29.775812 
L 184.310478 29.775812 
L 184.310478 29.421176 
L 184.613361 29.421176 
L 184.613361 29.066541 
L 184.889792 29.066541 
L 184.889792 28.711906 
L 185.367504 28.711906 
L 185.367504 28.357271 
L 186.133176 28.357271 
L 186.133176 28.002635 
L 186.434918 28.002635 
L 186.434918 27.648 
L 360.8064 27.648 
L 360.8064 27.648 
" style="fill:none;stroke:#ff00ff;stroke-linecap:square;stroke-width:1.5;"/>
   </g>
   <g id="line2d_41">
    <defs>
     <path d="M -0 8.485281 
L 5.091169 0 
L 0 -8.485281 
L -5.091169 -0 
z
" id="md55fea6ed4" style="stroke:#ff00ff;stroke-linejoin:miter;stroke-width:1.5;"/>
    </defs>
    <g>
     <use style="fill-opacity:0;stroke:#ff00ff;stroke-linejoin:miter;stroke-width:1.5;" x="119.366121" xlink:href="#md55fea6ed4" y="268.8"/>
     <use style="fill-opacity:0;stroke:#ff00ff;stroke-linejoin:miter;stroke-width:1.5;" x="163.168754" xlink:href="#md55fea6ed4" y="120.562447"/>
     <use style="fill-opacity:0;stroke:#ff00ff;stroke-linejoin:miter;stroke-width:1.5;" x="186.434918" xlink:href="#md55fea6ed4" y="28.002635"/>
     <use style="fill-opacity:0;stroke:#ff00ff;stroke-linejoin:miter;stroke-width:1.5;" x="186.434918" xlink:href="#md55fea6ed4" y="27.648"/>
     <use style="fill-opacity:0;stroke:#ff00ff;stroke-linejoin:miter;stroke-width:1.5;" x="186.434918" xlink:href="#md55fea6ed4" y="27.648"/>
     <use style="fill-opacity:0;stroke:#ff00ff;stroke-linejoin:miter;stroke-width:1.5;" x="360.8064" xlink:href="#md55fea6ed4" y="27.648"/>
    </g>
   </g>
   <g id="line2d_42">
    <path style="fill:none;stroke:#ff00ff;stroke-linecap:square;stroke-width:1.5;"/>
    <g/>
   </g>
   <g id="line2d_43">
    <path clip-path="url(#pcf30070924)" d="M 144.602918 230.499388 
" style="fill:none;stroke:#ff00ff;stroke-linecap:square;stroke-width:1.5;"/>
    <defs>
     <path d="M -12 12 
L 12 -12 
M -12 -12 
L 12 12 
" id="m26dfd0f9f5" style="stroke:#ff00ff;"/>
    </defs>
    <g clip-path="url(#pcf30070924)">
     <use style="fill:#ff00ff;stroke:#ff00ff;" x="144.602918" xlink:href="#m26dfd0f9f5" y="230.499388"/>
    </g>
   </g>
   <g id="line2d_44">
    <defs>
     <path d="M 0 1.5 
C 0.397805 1.5 0.77937 1.341951 1.06066 1.06066 
C 1.341951 0.77937 1.5 0.397805 1.5 0 
C 1.5 -0.397805 1.341951 -0.77937 1.06066 -1.06066 
C 0.77937 -1.341951 0.397805 -1.5 0 -1.5 
C -0.397805 -1.5 -0.77937 -1.341951 -1.06066 -1.06066 
C -1.341951 -0.77937 -1.5 -0.397805 -1.5 0 
C -1.5 0.397805 -1.341951 0.77937 -1.06066 1.06066 
C -0.77937 1.341951 -0.397805 1.5 0 1.5 
z
" id="m900f67c1c9" style="stroke:#ff7500;"/>
    </defs>
    <g>
     <use style="fill:#ff7500;stroke:#ff7500;" x="198.637584" xlink:href="#m900f67c1c9" y="27.648"/>
     <use style="fill:#ff7500;stroke:#ff7500;" x="198.637584" xlink:href="#m900f67c1c9" y="27.648"/>
    </g>
   </g>
   <g id="line2d_45">
    <path d="M 36.933397 298.944 
L 36.933397 296.816188 
L 49.972572 296.816188 
L 49.972572 296.461553 
L 115.460102 296.461553 
L 115.460102 296.106918 
L 122.19863 296.106918 
L 122.19863 294.333741 
L 125.526971 294.333741 
L 125.526971 293.979106 
L 126.993549 293.979106 
L 126.993549 293.269835 
L 127.149662 293.269835 
L 127.149662 292.9152 
L 127.304491 292.9152 
L 127.304491 291.142024 
L 127.610376 291.142024 
L 127.610376 290.787388 
L 127.761474 290.787388 
L 127.761474 290.432753 
L 128.643427 290.432753 
L 128.643427 290.078118 
L 131.065395 290.078118 
L 131.065395 289.014212 
L 134.198228 289.014212 
L 134.198228 287.595671 
L 137.159019 287.595671 
L 137.250116 282.630776 
L 137.963436 282.630776 
L 137.963436 280.8576 
L 139.394983 280.8576 
L 139.475893 278.729788 
L 139.556456 278.729788 
L 139.636676 276.956612 
L 140.420604 276.956612 
L 140.420604 276.247341 
L 140.725251 276.247341 
L 140.725251 275.183435 
L 141.538451 275.183435 
L 141.610664 271.282447 
L 141.682602 271.282447 
L 141.682602 270.927812 
L 142.317949 270.927812 
L 142.317949 270.218541 
L 143.657415 270.218541 
L 143.657415 269.509271 
L 143.850356 269.509271 
L 143.850356 268.090729 
L 144.041338 268.090729 
L 144.041338 266.317553 
L 145.26728 266.317553 
L 145.26728 265.962918 
L 145.385592 265.962918 
L 145.385592 265.608282 
L 145.503164 265.608282 
L 145.503164 265.253647 
L 147.607824 265.253647 
L 147.607824 264.544376 
L 148.377845 264.544376 
L 148.377845 264.189741 
L 149.020615 264.189741 
L 149.069161 263.480471 
L 149.642146 263.480471 
L 149.642146 263.125835 
L 149.875833 263.125835 
L 149.875833 262.7712 
L 150.870907 262.7712 
L 150.870907 262.416565 
L 151.00261 262.416565 
L 151.00261 262.061929 
L 151.176793 262.061929 
L 151.176793 261.352659 
L 151.520392 261.352659 
L 151.520392 260.998024 
L 151.689867 260.998024 
L 151.689867 260.643388 
L 152.106991 260.643388 
L 152.106991 259.579482 
L 152.635783 259.579482 
L 152.635783 258.870212 
L 153.266838 258.870212 
L 153.305585 258.160941 
L 153.421349 258.160941 
L 153.421349 257.097035 
L 153.5746 257.097035 
L 153.5746 255.678494 
L 154.064218 255.678494 
L 154.064218 255.323859 
L 154.285968 255.323859 
L 154.39587 254.614588 
L 155.322384 254.614588 
L 155.322384 254.259953 
L 155.529866 254.259953 
L 155.529866 253.905318 
L 156.105602 253.905318 
L 156.205398 251.068235 
L 156.337642 251.068235 
L 156.370558 250.358965 
L 156.728884 250.358965 
L 156.728884 250.004329 
L 156.985263 250.004329 
L 156.985263 249.649694 
L 157.175281 249.649694 
L 157.269574 248.231153 
L 157.549652 248.231153 
L 157.549652 247.876518 
L 157.856036 247.876518 
L 157.946987 246.812612 
L 158.0375 246.812612 
L 158.127579 245.748706 
L 158.454228 245.748706 
L 158.483644 245.039435 
L 158.659181 245.039435 
L 158.659181 244.6848 
L 158.775302 244.6848 
L 158.775302 243.975529 
L 159.204482 243.975529 
L 159.204482 243.620894 
L 159.651731 243.620894 
L 159.734419 241.847718 
L 160.409709 241.847718 
L 160.4627 240.429176 
L 160.803545 240.429176 
L 160.82951 239.719906 
L 161.240147 239.719906 
L 161.240147 238.656 
L 161.492316 238.656 
L 161.517348 237.946729 
L 161.666845 237.946729 
L 161.666845 237.592094 
L 161.839769 237.592094 
L 161.937874 235.109647 
L 162.156757 235.109647 
L 162.156757 234.755012 
L 162.349204 234.755012 
L 162.349204 233.691106 
L 162.515995 233.691106 
L 162.610645 232.981835 
L 162.657792 232.981835 
L 162.657792 232.6272 
L 162.868502 232.6272 
L 162.868502 232.272565 
L 163.030771 232.272565 
L 163.030771 231.563294 
L 163.464289 231.563294 
L 163.464289 231.208659 
L 163.843882 231.208659 
L 163.843882 230.854024 
L 164.215967 230.854024 
L 164.302457 229.790118 
L 164.980424 229.790118 
L 164.980424 229.080847 
L 165.674958 229.080847 
L 165.674958 228.726212 
L 165.933882 228.726212 
L 165.933882 228.371576 
L 166.111072 228.371576 
L 166.208795 227.662306 
L 166.286609 227.662306 
L 166.286609 227.307671 
L 166.422014 227.307671 
L 166.422014 226.953035 
L 166.537305 226.953035 
L 166.537305 226.5984 
L 166.651893 226.5984 
L 166.651893 225.889129 
L 166.8036 225.889129 
L 166.8036 225.534494 
L 166.991529 225.534494 
L 167.01022 224.825224 
L 167.121972 224.825224 
L 167.214594 223.052047 
L 167.306762 223.052047 
L 167.306762 222.697412 
L 167.526142 222.697412 
L 167.526142 222.342776 
L 167.689013 222.342776 
L 167.689013 221.988141 
L 167.850487 221.988141 
L 167.957371 220.214965 
L 168.169334 220.214965 
L 168.256952 218.087153 
L 168.396298 218.087153 
L 168.465585 217.377882 
L 168.517384 217.377882 
L 168.517384 217.023247 
L 168.67193 217.023247 
L 168.706102 216.313976 
L 168.892945 216.313976 
L 168.994082 212.412988 
L 169.144777 212.412988 
L 169.194741 211.349082 
L 169.426169 211.349082 
L 169.426169 210.994447 
L 169.638546 210.994447 
L 169.638546 210.639812 
L 169.848553 210.639812 
L 169.848553 210.285176 
L 170.087991 210.285176 
L 170.087991 209.930541 
L 170.293066 209.930541 
L 170.293066 209.575906 
L 170.480403 209.575906 
L 170.511445 208.866635 
L 170.757955 208.866635 
L 170.757955 207.448094 
L 170.971033 207.448094 
L 170.971033 206.384188 
L 171.106748 206.384188 
L 171.211632 205.320282 
L 171.449192 205.320282 
L 171.552189 203.901741 
L 171.566857 203.901741 
L 171.654625 202.837835 
L 171.756506 202.837835 
L 171.756506 202.4832 
L 172.058879 202.4832 
L 172.058879 201.064659 
L 172.271923 201.064659 
L 172.271923 200.710024 
L 172.384567 200.710024 
L 172.384567 200.355388 
L 172.552279 200.355388 
L 172.580086 199.291482 
L 172.677089 199.291482 
L 172.677089 198.582212 
L 173.005923 198.582212 
L 173.046626 197.872941 
L 173.18167 197.872941 
L 173.195121 197.163671 
L 173.315751 197.163671 
L 173.395744 194.326588 
L 173.581081 194.326588 
L 173.581081 193.971953 
L 173.725432 193.971953 
L 173.829724 190.780235 
L 174.075124 190.780235 
L 174.126381 189.361694 
L 174.228479 189.361694 
L 174.228479 189.007059 
L 174.367966 189.007059 
L 174.393216 188.297788 
L 174.481327 188.297788 
L 174.556523 186.879247 
L 174.63142 186.879247 
L 174.668757 186.169976 
L 174.92806 186.169976 
L 174.940319 185.460706 
L 175.111113 185.460706 
L 175.220095 182.623624 
L 175.280369 182.623624 
L 175.316441 180.495812 
L 175.412297 180.495812 
L 175.436184 179.431906 
L 175.531433 179.431906 
L 175.626202 178.722635 
L 175.849382 178.722635 
L 175.919314 178.013365 
L 176.035292 178.013365 
L 176.035292 177.658729 
L 176.265124 177.658729 
L 176.310755 176.949459 
L 176.424352 176.949459 
L 176.503464 174.821647 
L 176.615906 174.821647 
L 176.716533 173.757741 
L 176.738821 173.757741 
L 176.84987 172.693835 
L 177.03716 172.693835 
L 177.135565 168.083576 
L 177.276801 168.083576 
L 177.276801 167.728941 
L 177.513428 167.728941 
L 177.513428 167.374306 
L 177.641253 167.374306 
L 177.704841 165.246494 
L 177.873367 165.246494 
L 177.925723 164.182588 
L 178.009191 164.182588 
L 178.009191 163.827953 
L 178.195651 163.827953 
L 178.226549 162.409412 
L 178.46176 162.409412 
L 178.532766 161.700141 
L 178.623668 161.700141 
L 178.704102 160.990871 
L 178.754199 160.990871 
L 178.804164 159.926965 
L 179.002704 159.926965 
L 179.111015 157.444518 
L 179.130641 157.444518 
L 179.130641 156.735247 
L 179.267453 156.735247 
L 179.36457 153.898165 
L 179.393608 153.898165 
L 179.480453 150.706447 
L 179.509312 150.706447 
L 179.614753 148.224 
L 179.624309 148.224 
L 179.643407 146.805459 
L 179.804963 146.805459 
L 179.889933 145.386918 
L 179.918172 145.386918 
L 180.002634 143.968376 
L 180.049394 143.968376 
L 180.151859 142.549835 
L 180.272238 142.549835 
L 180.327539 141.485929 
L 180.401022 141.485929 
L 180.410187 140.776659 
L 180.637878 140.776659 
L 180.746198 139.712753 
L 180.844946 139.712753 
L 180.93427 137.584941 
L 180.987662 137.584941 
L 180.987662 136.521035 
L 181.173347 136.521035 
L 181.208509 133.329318 
L 181.287383 133.329318 
L 181.33106 132.620047 
L 181.435472 132.620047 
L 181.478807 131.910776 
L 181.616811 131.910776 
L 181.693995 129.428329 
L 181.728198 129.428329 
L 181.804928 128.009788 
L 181.923667 128.009788 
L 181.974326 126.945882 
L 182.075238 126.945882 
L 182.167267 124.463435 
L 182.20895 124.463435 
L 182.29204 122.335624 
L 182.349985 122.335624 
L 182.415991 118.434635 
L 182.465343 118.434635 
L 182.555488 116.661459 
L 182.628923 116.661459 
L 182.693959 115.597553 
L 182.774938 115.597553 
L 182.815298 114.533647 
L 182.919829 114.533647 
L 182.919829 114.179012 
L 183.031755 114.179012 
L 183.135094 112.760471 
L 183.14302 112.760471 
L 183.182598 111.696565 
L 183.300836 111.696565 
L 183.410524 109.923388 
L 183.472918 109.923388 
L 183.58161 106.731671 
L 183.597087 106.731671 
L 183.705066 103.894588 
L 183.758825 103.894588 
L 183.789475 103.185318 
L 183.881127 103.185318 
L 183.941981 101.766776 
L 184.055555 101.766776 
L 184.108322 101.057506 
L 184.213415 101.057506 
L 184.30303 99.9936 
L 184.325367 99.9936 
L 184.414451 98.220424 
L 184.436656 98.220424 
L 184.495742 97.511153 
L 184.598699 97.511153 
L 184.701095 95.028706 
L 184.781159 95.028706 
L 184.875344 92.900894 
L 184.940274 92.900894 
L 185.00498 91.127718 
L 185.140856 91.127718 
L 185.247437 89.709176 
L 185.275757 89.709176 
L 185.296969 87.936 
L 185.388613 87.936 
L 185.479812 86.517459 
L 185.500795 86.517459 
L 185.591453 85.098918 
L 185.667825 85.098918 
L 185.778359 82.971106 
L 185.833384 82.971106 
L 185.901939 81.9072 
L 185.94978 81.9072 
L 186.058675 79.779388 
L 186.133176 79.779388 
L 186.214115 78.715482 
L 186.288004 78.715482 
L 186.34156 77.296941 
L 186.50132 77.296941 
L 186.600485 76.587671 
L 186.672875 76.587671 
L 186.731897 75.523765 
L 186.79726 75.523765 
L 186.894881 73.395953 
L 186.914345 73.395953 
L 187.02426 71.268141 
L 187.037149 71.268141 
L 187.120713 68.076424 
L 187.248553 68.076424 
L 187.274017 64.884706 
L 187.38818 64.884706 
L 187.426081 63.8208 
L 187.520501 63.8208 
L 187.626941 62.756894 
L 187.689272 62.756894 
L 187.77619 61.692988 
L 187.80095 61.692988 
L 187.887355 60.629082 
L 187.924265 60.629082 
L 188.034561 58.855906 
L 188.107734 58.855906 
L 188.186685 56.728094 
L 188.301482 56.728094 
L 188.373626 55.664188 
L 188.457446 55.664188 
L 188.505176 54.954918 
L 188.618051 54.954918 
L 188.712582 53.891012 
L 188.765547 53.891012 
L 188.78317 53.181741 
L 188.876876 53.181741 
L 188.958488 51.408565 
L 189.022364 51.408565 
L 189.091801 50.344659 
L 189.166736 50.344659 
L 189.235643 48.571482 
L 189.486164 48.571482 
L 189.576441 46.798306 
L 189.660685 46.798306 
L 189.694277 45.7344 
L 189.811379 45.7344 
L 189.839153 44.315859 
L 189.927757 44.315859 
L 189.971902 43.606588 
L 190.103721 43.606588 
L 190.120134 42.897318 
L 190.261779 42.897318 
L 190.261779 42.542682 
L 190.429282 42.542682 
L 190.429282 42.188047 
L 190.589974 42.188047 
L 190.643235 41.124141 
L 190.738725 41.124141 
L 190.738725 40.769506 
L 190.870552 40.769506 
L 190.886309 40.060235 
L 191.006678 40.060235 
L 191.079571 39.350965 
L 191.358113 39.350965 
L 191.358113 38.996329 
L 191.521249 38.996329 
L 191.607343 38.287059 
L 191.688015 38.287059 
L 191.75832 37.223153 
L 191.942871 37.223153 
L 192.017176 36.513882 
L 192.130543 36.513882 
L 192.174719 35.804612 
L 192.262761 35.804612 
L 192.364958 35.095341 
L 192.394056 35.095341 
L 192.490724 33.6768 
L 192.509998 33.6768 
L 192.509998 33.322165 
L 192.773034 33.322165 
L 192.773034 32.967529 
L 193.200321 32.967529 
L 193.297562 32.258259 
L 193.435612 32.258259 
L 193.435612 31.903624 
L 193.897546 31.903624 
L 193.897546 31.548988 
L 194.422513 31.548988 
L 194.422513 31.194353 
L 194.878104 31.194353 
L 194.878104 30.839718 
L 195.426316 30.839718 
L 195.508625 29.775812 
L 195.862534 29.775812 
L 195.862534 29.421176 
L 196.023043 29.421176 
L 196.023043 29.066541 
L 196.659452 29.066541 
L 196.678756 28.357271 
L 197.626869 28.357271 
L 197.626869 28.002635 
L 198.637584 28.002635 
L 198.637584 27.648 
L 360.8064 27.648 
L 360.8064 27.648 
" style="fill:none;stroke:#ff7500;stroke-linecap:square;stroke-width:1.5;"/>
   </g>
   <g id="line2d_46">
    <defs>
     <path d="M 0 -6 
L -1.347084 -1.854102 
L -5.706339 -1.854102 
L -2.179628 0.708204 
L -3.526712 4.854102 
L -0 2.291796 
L 3.526712 4.854102 
L 2.179628 0.708204 
L 5.706339 -1.854102 
L 1.347084 -1.854102 
z
" id="mea05ce19a6" style="stroke:#ff7500;stroke-linejoin:bevel;stroke-width:1.5;"/>
    </defs>
    <g>
     <use style="fill-opacity:0;stroke:#ff7500;stroke-linejoin:bevel;stroke-width:1.5;" x="164.980424" xlink:href="#mea05ce19a6" y="229.790118"/>
     <use style="fill-opacity:0;stroke:#ff7500;stroke-linejoin:bevel;stroke-width:1.5;" x="186.881894" xlink:href="#mea05ce19a6" y="74.459859"/>
     <use style="fill-opacity:0;stroke:#ff7500;stroke-linejoin:bevel;stroke-width:1.5;" x="198.637584" xlink:href="#mea05ce19a6" y="27.648"/>
     <use style="fill-opacity:0;stroke:#ff7500;stroke-linejoin:bevel;stroke-width:1.5;" x="198.637584" xlink:href="#mea05ce19a6" y="27.648"/>
     <use style="fill-opacity:0;stroke:#ff7500;stroke-linejoin:bevel;stroke-width:1.5;" x="360.8064" xlink:href="#mea05ce19a6" y="27.648"/>
    </g>
   </g>
   <g id="line2d_47">
    <path style="fill:none;stroke:#ff7500;stroke-linecap:square;stroke-width:1.5;"/>
    <g/>
   </g>
   <g id="line2d_48">
    <path clip-path="url(#pcf30070924)" d="M 151.176793 261.352659 
" style="fill:none;stroke:#ff7500;stroke-linecap:square;stroke-width:1.5;"/>
    <defs>
     <path d="M -12 12 
L 12 -12 
M -12 -12 
L 12 12 
" id="m5d2d003ebe" style="stroke:#ff7500;"/>
    </defs>
    <g clip-path="url(#pcf30070924)">
     <use style="fill:#ff7500;stroke:#ff7500;" x="151.176793" xlink:href="#m5d2d003ebe" y="261.352659"/>
    </g>
   </g>
   <g id="line2d_49">
    <path d="M 360.8064 27.648 
L 380.514816 293.51808 
" style="fill:none;stroke:#000080;stroke-linecap:square;stroke-width:1.5;"/>
    <g>
     <use style="fill-opacity:0;stroke:#000080;stroke-width:1.5;" x="360.8064" xlink:href="#mafebc4464b" y="27.648"/>
     <use style="fill-opacity:0;stroke:#000080;stroke-width:1.5;" x="380.514816" xlink:href="#mafebc4464b" y="293.51808"/>
    </g>
   </g>
   <g id="line2d_50">
    <path d="M 360.8064 27.648 
L 380.514816 206.70336 
" style="fill:none;stroke:#ff7500;stroke-linecap:square;stroke-width:1.5;"/>
    <g>
     <use style="fill-opacity:0;stroke:#ff7500;stroke-linejoin:bevel;stroke-width:1.5;" x="360.8064" xlink:href="#mea05ce19a6" y="27.648"/>
     <use style="fill-opacity:0;stroke:#ff7500;stroke-linejoin:bevel;stroke-width:1.5;" x="380.514816" xlink:href="#mea05ce19a6" y="206.70336"/>
    </g>
   </g>
   <g id="line2d_51">
    <path d="M 360.8064 27.648 
L 380.514816 119.88864 
" style="fill:none;stroke:#ff00ff;stroke-linecap:square;stroke-width:1.5;"/>
    <g>
     <use style="fill-opacity:0;stroke:#ff00ff;stroke-linejoin:miter;stroke-width:1.5;" x="360.8064" xlink:href="#md55fea6ed4" y="27.648"/>
     <use style="fill-opacity:0;stroke:#ff00ff;stroke-linejoin:miter;stroke-width:1.5;" x="380.514816" xlink:href="#md55fea6ed4" y="119.88864"/>
    </g>
   </g>
   <g id="line2d_52">
    <path d="M 360.8064 298.944 
L 360.8064 27.648 
" style="fill:none;stroke:#000000;stroke-linecap:square;stroke-width:1.5;"/>
   </g>
   <g id="patch_3">
    <path d="M 57.6 298.944 
L 360.8064 298.944 
" style="fill:none;stroke:#000000;stroke-linecap:square;stroke-linejoin:miter;stroke-width:0.8;"/>
   </g>
   <g id="patch_4">
    <path d="M 57.6 27.648 
L 360.8064 27.648 
" style="fill:none;stroke:#000000;stroke-linecap:square;stroke-linejoin:miter;stroke-width:0.8;"/>
   </g>
   <g id="text_13">
    <!-- different -->
    <g transform="translate(386.578944 297.381205)scale(0.14 -0.14)">
     <use xlink:href="#DejaVuSans-64"/>
     <use x="63.476562" xlink:href="#DejaVuSans-69"/>
     <use x="91.259766" xlink:href="#DejaVuSans-66"/>
     <use x="126.464844" xlink:href="#DejaVuSans-66"/>
     <use x="161.669922" xlink:href="#DejaVuSans-65"/>
     <use x="223.193359" xlink:href="#DejaVuSans-72"/>
     <use x="262.056641" xlink:href="#DejaVuSans-65"/>
     <use x="323.580078" xlink:href="#DejaVuSans-6e"/>
     <use x="386.958984" xlink:href="#DejaVuSans-74"/>
    </g>
   </g>
   <g id="text_14">
    <!-- diffcma b -->
    <g transform="translate(386.578944 210.566485)scale(0.14 -0.14)">
     <defs>
      <path d="M 3116 1747 
Q 3116 2381 2855 2742 
Q 2594 3103 2138 3103 
Q 1681 3103 1420 2742 
Q 1159 2381 1159 1747 
Q 1159 1113 1420 752 
Q 1681 391 2138 391 
Q 2594 391 2855 752 
Q 3116 1113 3116 1747 
z
M 1159 2969 
Q 1341 3281 1617 3432 
Q 1894 3584 2278 3584 
Q 2916 3584 3314 3078 
Q 3713 2572 3713 1747 
Q 3713 922 3314 415 
Q 2916 -91 2278 -91 
Q 1894 -91 1617 61 
Q 1341 213 1159 525 
L 1159 0 
L 581 0 
L 581 4863 
L 1159 4863 
L 1159 2969 
z
" id="DejaVuSans-62" transform="scale(0.015625)"/>
     </defs>
     <use xlink:href="#DejaVuSans-64"/>
     <use x="63.476562" xlink:href="#DejaVuSans-69"/>
     <use x="91.259766" xlink:href="#DejaVuSans-66"/>
     <use x="126.464844" xlink:href="#DejaVuSans-66"/>
     <use x="161.669922" xlink:href="#DejaVuSans-63"/>
     <use x="216.650391" xlink:href="#DejaVuSans-6d"/>
     <use x="314.0625" xlink:href="#DejaVuSans-61"/>
     <use x="375.341797" xlink:href="#DejaVuSans-20"/>
     <use x="407.128906" xlink:href="#DejaVuSans-62"/>
    </g>
   </g>
   <g id="text_15">
    <!-- cma.fmin  -->
    <g transform="translate(386.578944 123.751765)scale(0.14 -0.14)">
     <use xlink:href="#DejaVuSans-63"/>
     <use x="54.980469" xlink:href="#DejaVuSans-6d"/>
     <use x="152.392578" xlink:href="#DejaVuSans-61"/>
     <use x="213.671875" xlink:href="#DejaVuSans-2e"/>
     <use x="245.458984" xlink:href="#DejaVuSans-66"/>
     <use x="280.664062" xlink:href="#DejaVuSans-6d"/>
     <use x="378.076172" xlink:href="#DejaVuSans-69"/>
     <use x="405.859375" xlink:href="#DejaVuSans-6e"/>
     <use x="469.238281" xlink:href="#DejaVuSans-20"/>
    </g>
   </g>
   <g id="text_16">
    <!-- best 2009 -->
    <g transform="translate(386.578944 36.937045)scale(0.14 -0.14)">
     <defs>
      <path d="M 703 97 
L 703 672 
Q 941 559 1184 500 
Q 1428 441 1663 441 
Q 2288 441 2617 861 
Q 2947 1281 2994 2138 
Q 2813 1869 2534 1725 
Q 2256 1581 1919 1581 
Q 1219 1581 811 2004 
Q 403 2428 403 3163 
Q 403 3881 828 4315 
Q 1253 4750 1959 4750 
Q 2769 4750 3195 4129 
Q 3622 3509 3622 2328 
Q 3622 1225 3098 567 
Q 2575 -91 1691 -91 
Q 1453 -91 1209 -44 
Q 966 3 703 97 
z
M 1959 2075 
Q 2384 2075 2632 2365 
Q 2881 2656 2881 3163 
Q 2881 3666 2632 3958 
Q 2384 4250 1959 4250 
Q 1534 4250 1286 3958 
Q 1038 3666 1038 3163 
Q 1038 2656 1286 2365 
Q 1534 2075 1959 2075 
z
" id="DejaVuSans-39" transform="scale(0.015625)"/>
     </defs>
     <use xlink:href="#DejaVuSans-62"/>
     <use x="63.476562" xlink:href="#DejaVuSans-65"/>
     <use x="125" xlink:href="#DejaVuSans-73"/>
     <use x="177.099609" xlink:href="#DejaVuSans-74"/>
     <use x="216.308594" xlink:href="#DejaVuSans-20"/>
     <use x="248.095703" xlink:href="#DejaVuSans-32"/>
     <use x="311.71875" xlink:href="#DejaVuSans-30"/>
     <use x="375.341797" xlink:href="#DejaVuSans-30"/>
     <use x="438.964844" xlink:href="#DejaVuSans-39"/>
    </g>
   </g>
   <g id="text_17">
    <!-- bbob f6, 3-D -->
    <g transform="translate(60.632064 38.111366)scale(0.102 -0.102)">
     <defs>
      <path d="M 2597 2516 
Q 3050 2419 3304 2112 
Q 3559 1806 3559 1356 
Q 3559 666 3084 287 
Q 2609 -91 1734 -91 
Q 1441 -91 1130 -33 
Q 819 25 488 141 
L 488 750 
Q 750 597 1062 519 
Q 1375 441 1716 441 
Q 2309 441 2620 675 
Q 2931 909 2931 1356 
Q 2931 1769 2642 2001 
Q 2353 2234 1838 2234 
L 1294 2234 
L 1294 2753 
L 1863 2753 
Q 2328 2753 2575 2939 
Q 2822 3125 2822 3475 
Q 2822 3834 2567 4026 
Q 2313 4219 1838 4219 
Q 1578 4219 1281 4162 
Q 984 4106 628 3988 
L 628 4550 
Q 988 4650 1302 4700 
Q 1616 4750 1894 4750 
Q 2613 4750 3031 4423 
Q 3450 4097 3450 3541 
Q 3450 3153 3228 2886 
Q 3006 2619 2597 2516 
z
" id="DejaVuSans-33" transform="scale(0.015625)"/>
      <path d="M 1259 4147 
L 1259 519 
L 2022 519 
Q 2988 519 3436 956 
Q 3884 1394 3884 2338 
Q 3884 3275 3436 3711 
Q 2988 4147 2022 4147 
L 1259 4147 
z
M 628 4666 
L 1925 4666 
Q 3281 4666 3915 4102 
Q 4550 3538 4550 2338 
Q 4550 1131 3912 565 
Q 3275 0 1925 0 
L 628 0 
L 628 4666 
z
" id="DejaVuSans-44" transform="scale(0.015625)"/>
     </defs>
     <use xlink:href="#DejaVuSans-62"/>
     <use x="63.476562" xlink:href="#DejaVuSans-62"/>
     <use x="126.953125" xlink:href="#DejaVuSans-6f"/>
     <use x="188.134766" xlink:href="#DejaVuSans-62"/>
     <use x="251.611328" xlink:href="#DejaVuSans-20"/>
     <use x="283.398438" xlink:href="#DejaVuSans-66"/>
     <use x="318.603516" xlink:href="#DejaVuSans-36"/>
     <use x="382.226562" xlink:href="#DejaVuSans-2c"/>
     <use x="414.013672" xlink:href="#DejaVuSans-20"/>
     <use x="445.800781" xlink:href="#DejaVuSans-33"/>
     <use x="509.423828" xlink:href="#DejaVuSans-2d"/>
     <use x="545.507812" xlink:href="#DejaVuSans-44"/>
    </g>
    <!-- 51 targets: 100..1e-08 -->
    <g transform="translate(60.632064 49.533135)scale(0.102 -0.102)">
     <defs>
      <path d="M 691 4666 
L 3169 4666 
L 3169 4134 
L 1269 4134 
L 1269 2991 
Q 1406 3038 1543 3061 
Q 1681 3084 1819 3084 
Q 2600 3084 3056 2656 
Q 3513 2228 3513 1497 
Q 3513 744 3044 326 
Q 2575 -91 1722 -91 
Q 1428 -91 1123 -41 
Q 819 9 494 109 
L 494 744 
Q 775 591 1075 516 
Q 1375 441 1709 441 
Q 2250 441 2565 725 
Q 2881 1009 2881 1497 
Q 2881 1984 2565 2268 
Q 2250 2553 1709 2553 
Q 1456 2553 1204 2497 
Q 953 2441 691 2322 
L 691 4666 
z
" id="DejaVuSans-35" transform="scale(0.015625)"/>
      <path d="M 750 794 
L 1409 794 
L 1409 0 
L 750 0 
L 750 794 
z
M 750 3309 
L 1409 3309 
L 1409 2516 
L 750 2516 
L 750 3309 
z
" id="DejaVuSans-3a" transform="scale(0.015625)"/>
     </defs>
     <use xlink:href="#DejaVuSans-35"/>
     <use x="63.623047" xlink:href="#DejaVuSans-31"/>
     <use x="127.246094" xlink:href="#DejaVuSans-20"/>
     <use x="159.033203" xlink:href="#DejaVuSans-74"/>
     <use x="198.242188" xlink:href="#DejaVuSans-61"/>
     <use x="259.521484" xlink:href="#DejaVuSans-72"/>
     <use x="298.884766" xlink:href="#DejaVuSans-67"/>
     <use x="362.361328" xlink:href="#DejaVuSans-65"/>
     <use x="423.884766" xlink:href="#DejaVuSans-74"/>
     <use x="463.09375" xlink:href="#DejaVuSans-73"/>
     <use x="515.193359" xlink:href="#DejaVuSans-3a"/>
     <use x="548.884766" xlink:href="#DejaVuSans-20"/>
     <use x="580.671875" xlink:href="#DejaVuSans-31"/>
     <use x="644.294922" xlink:href="#DejaVuSans-30"/>
     <use x="707.917969" xlink:href="#DejaVuSans-30"/>
     <use x="771.541016" xlink:href="#DejaVuSans-2e"/>
     <use x="803.328125" xlink:href="#DejaVuSans-2e"/>
     <use x="835.115234" xlink:href="#DejaVuSans-31"/>
     <use x="898.738281" xlink:href="#DejaVuSans-65"/>
     <use x="960.261719" xlink:href="#DejaVuSans-2d"/>
     <use x="996.345703" xlink:href="#DejaVuSans-30"/>
     <use x="1059.96875" xlink:href="#DejaVuSans-38"/>
    </g>
    <!-- 15 instances -->
    <g transform="translate(60.632064 60.954904)scale(0.102 -0.102)">
     <use xlink:href="#DejaVuSans-31"/>
     <use x="63.623047" xlink:href="#DejaVuSans-35"/>
     <use x="127.246094" xlink:href="#DejaVuSans-20"/>
     <use x="159.033203" xlink:href="#DejaVuSans-69"/>
     <use x="186.816406" xlink:href="#DejaVuSans-6e"/>
     <use x="250.195312" xlink:href="#DejaVuSans-73"/>
     <use x="302.294922" xlink:href="#DejaVuSans-74"/>
     <use x="341.503906" xlink:href="#DejaVuSans-61"/>
     <use x="402.783203" xlink:href="#DejaVuSans-6e"/>
     <use x="466.162109" xlink:href="#DejaVuSans-63"/>
     <use x="521.142578" xlink:href="#DejaVuSans-65"/>
     <use x="582.666016" xlink:href="#DejaVuSans-73"/>
    </g>
   </g>
   <g id="text_18">
    <!-- v2.6 -->
    <g style="fill:#808080;" transform="translate(198.292262 294.151352)scale(0.1 -0.1)">
     <use xlink:href="#DejaVuSans-76"/>
     <use x="59.179688" xlink:href="#DejaVuSans-32"/>
     <use x="122.802734" xlink:href="#DejaVuSans-2e"/>
     <use x="154.589844" xlink:href="#DejaVuSans-36"/>
    </g>
   </g>
   <g id="text_19">
    <!-- 6 Attractive sector -->
    <g transform="translate(116.45945 21.648)scale(0.2 -0.2)">
     <defs>
      <path d="M 2188 4044 
L 1331 1722 
L 3047 1722 
L 2188 4044 
z
M 1831 4666 
L 2547 4666 
L 4325 0 
L 3669 0 
L 3244 1197 
L 1141 1197 
L 716 0 
L 50 0 
L 1831 4666 
z
" id="DejaVuSans-41" transform="scale(0.015625)"/>
     </defs>
     <use xlink:href="#DejaVuSans-36"/>
     <use x="63.623047" xlink:href="#DejaVuSans-20"/>
     <use x="95.410156" xlink:href="#DejaVuSans-41"/>
     <use x="162.068359" xlink:href="#DejaVuSans-74"/>
     <use x="201.277344" xlink:href="#DejaVuSans-74"/>
     <use x="240.486328" xlink:href="#DejaVuSans-72"/>
     <use x="281.599609" xlink:href="#DejaVuSans-61"/>
     <use x="342.878906" xlink:href="#DejaVuSans-63"/>
     <use x="397.859375" xlink:href="#DejaVuSans-74"/>
     <use x="437.068359" xlink:href="#DejaVuSans-69"/>
     <use x="464.851562" xlink:href="#DejaVuSans-76"/>
     <use x="524.03125" xlink:href="#DejaVuSans-65"/>
     <use x="585.554688" xlink:href="#DejaVuSans-20"/>
     <use x="617.341797" xlink:href="#DejaVuSans-73"/>
     <use x="669.441406" xlink:href="#DejaVuSans-65"/>
     <use x="730.964844" xlink:href="#DejaVuSans-63"/>
     <use x="785.945312" xlink:href="#DejaVuSans-74"/>
     <use x="825.154297" xlink:href="#DejaVuSans-6f"/>
     <use x="886.335938" xlink:href="#DejaVuSans-72"/>
    </g>
   </g>
  </g>
 </g>
 <defs>
  <clipPath id="pcf30070924">
   <rect height="271.296" width="303.2064" x="57.6" y="27.648"/>
  </clipPath>
 </defs>
</svg>
