<?xml version="1.0" encoding="utf-8" standalone="no"?>
<!DOCTYPE svg PUBLIC "-//W3C//DTD SVG 1.1//EN"
  "http://www.w3.org/Graphics/SVG/1.1/DTD/svg11.dtd">
<svg height="345.6pt" version="1.1" viewBox="0 0 460.8 345.6" width="460.8pt" xmlns="http://www.w3.org/2000/svg" xmlns:xlink="http://www.w3.org/1999/xlink">
 <metadata>
  <rdf:RDF xmlns:cc="http://creativecommons.org/ns#" xmlns:dc="http://purl.org/dc/elements/1.1/" xmlns:rdf="http://www.w3.org/1999/02/22-rdf-syntax-ns#">
   <cc:Work>
    <dc:type rdf:resource="http://purl.org/dc/dcmitype/StillImage"/>
    <dc:date>2022-05-07T21:25:06.399805</dc:date>
    <dc:format>image/svg+xml</dc:format>
    <dc:creator>
     <cc:Agent>
      <dc:title>Matplotlib v3.4.3, https://matplotlib.org/</dc:title>
     </cc:Agent>
    </dc:creator>
   </cc:Work>
  </rdf:RDF>
 </metadata>
 <defs>
  <style type="text/css">*{stroke-linecap:butt;stroke-linejoin:round;}</style>
 </defs>
 <g id="figure_1">
  <g id="patch_1">
   <path d="M 0 345.6 
L 460.8 345.6 
L 460.8 0 
L 0 0 
z
" style="fill:#ffffff;"/>
  </g>
  <g id="axes_1">
   <g id="patch_2">
    <path d="M 57.6 298.944 
L 360.8064 298.944 
L 360.8064 27.648 
L 57.6 27.648 
z
" style="fill:#ffffff;"/>
   </g>
   <g id="line2d_1">
    <path d="M 79.480672 298.944 
L 79.480672 293.624471 
L 87.876026 293.624471 
L 87.876026 288.304941 
L 94.205591 288.304941 
L 94.205591 282.985412 
L 102.362957 282.985412 
L 102.362957 277.665882 
L 107.774703 277.665882 
L 107.774703 272.346353 
L 116.419219 272.346353 
L 116.419219 267.026824 
L 121.455972 267.026824 
L 121.455972 261.707294 
L 123.713691 261.707294 
L 123.713691 256.387765 
L 125.526971 256.387765 
L 125.526971 251.068235 
L 126.804487 251.068235 
L 126.804487 245.748706 
L 128.266313 245.748706 
L 128.266313 240.429176 
L 129.292652 240.429176 
L 129.292652 235.109647 
L 130.344755 235.109647 
L 130.344755 229.790118 
L 131.489828 229.790118 
L 131.489828 224.470588 
L 132.144842 224.470588 
L 132.144842 219.151059 
L 133.390178 219.151059 
L 133.390178 213.831529 
L 134.993495 213.831529 
L 134.993495 208.512 
L 136.010584 208.512 
L 136.010584 203.192471 
L 136.864507 203.192471 
L 136.864507 197.872941 
L 138.868751 197.872941 
L 138.868751 192.553412 
L 140.219905 192.553412 
L 140.219905 187.233882 
L 141.995897 187.233882 
L 141.995897 181.914353 
L 143.38393 181.914353 
L 143.38393 176.594824 
L 144.342932 176.594824 
L 144.342932 171.275294 
L 145.397382 171.275294 
L 145.397382 165.955765 
L 147.022411 165.955765 
L 147.022411 160.636235 
L 148.155221 160.636235 
L 148.155221 155.316706 
L 149.223672 155.316706 
L 149.223672 149.997176 
L 150.234685 149.997176 
L 150.234685 144.677647 
L 150.72052 144.677647 
L 150.72052 139.358118 
L 151.757231 139.358118 
L 151.757231 134.038588 
L 153.189104 134.038588 
L 153.189104 128.719059 
L 154.886195 128.719059 
L 154.886195 123.399529 
L 156.482044 123.399529 
L 156.482044 118.08 
L 157.231914 118.08 
L 157.231914 112.760471 
L 157.971166 112.760471 
L 157.971166 107.440941 
L 158.699905 107.440941 
L 158.699905 102.121412 
L 159.113741 102.121412 
L 159.113741 96.801882 
L 159.601943 96.801882 
L 159.601943 91.482353 
L 160.061585 91.482353 
L 160.061585 86.162824 
L 160.255188 86.162824 
L 160.255188 80.843294 
L 160.808741 80.843294 
L 160.808741 75.523765 
L 161.391854 75.523765 
L 161.391854 70.204235 
L 161.795455 70.204235 
L 161.795455 64.884706 
L 162.17609 64.884706 
L 162.17609 59.565176 
L 162.6625 59.565176 
L 162.6625 54.245647 
L 162.970663 54.245647 
L 162.970663 48.926118 
L 163.464289 48.926118 
L 163.464289 43.606588 
L 163.852722 43.606588 
L 163.852722 38.287059 
L 164.233297 38.287059 
L 164.233297 32.967529 
L 164.580835 32.967529 
L 164.580835 27.648 
L 360.8064 27.648 
" style="fill:none;stroke:#f5deb3;stroke-linecap:square;stroke-width:4;"/>
   </g>
   <g id="line2d_2">
    <defs>
     <path d="M -0 7.778175 
L 7.778175 0 
L 0 -7.778175 
L -7.778175 -0 
z
" id="mb5c7f7d8c5" style="stroke:#f5deb3;stroke-linejoin:miter;stroke-width:1.5;"/>
    </defs>
    <g>
     <use style="fill:#f5deb3;stroke:#f5deb3;stroke-linejoin:miter;stroke-width:1.5;" x="140.219905" xlink:href="#mb5c7f7d8c5" y="192.553412"/>
     <use style="fill:#f5deb3;stroke:#f5deb3;stroke-linejoin:miter;stroke-width:1.5;" x="163.852722" xlink:href="#mb5c7f7d8c5" y="43.606588"/>
     <use style="fill:#f5deb3;stroke:#f5deb3;stroke-linejoin:miter;stroke-width:1.5;" x="164.580835" xlink:href="#mb5c7f7d8c5" y="27.648"/>
     <use style="fill:#f5deb3;stroke:#f5deb3;stroke-linejoin:miter;stroke-width:1.5;" x="164.580835" xlink:href="#mb5c7f7d8c5" y="27.648"/>
     <use style="fill:#f5deb3;stroke:#f5deb3;stroke-linejoin:miter;stroke-width:1.5;" x="360.8064" xlink:href="#mb5c7f7d8c5" y="27.648"/>
    </g>
   </g>
   <g id="line2d_3">
    <path style="fill:none;stroke:#f5deb3;stroke-linecap:square;stroke-width:4;"/>
    <g/>
   </g>
   <g id="line2d_4">
    <path d="M 360.8064 27.648 
L 380.514816 33.07392 
" style="fill:none;stroke:#f5deb3;stroke-linecap:square;stroke-width:4;"/>
    <g>
     <use style="fill:#f5deb3;stroke:#f5deb3;stroke-linejoin:miter;stroke-width:1.5;" x="360.8064" xlink:href="#mb5c7f7d8c5" y="27.648"/>
     <use style="fill:#f5deb3;stroke:#f5deb3;stroke-linejoin:miter;stroke-width:1.5;" x="380.514816" xlink:href="#mb5c7f7d8c5" y="33.07392"/>
    </g>
   </g>
   <g id="matplotlib.axis_1">
    <g id="xtick_1">
     <g id="line2d_5">
      <path clip-path="url(#p74eab7b7e0)" d="M 57.6 298.944 
L 57.6 27.648 
" style="fill:none;stroke:#b0b0b0;stroke-linecap:square;stroke-width:0.8;"/>
     </g>
     <g id="line2d_6">
      <defs>
       <path d="M 0 0 
L 0 3.5 
" id="m136939f57b" style="stroke:#000000;stroke-width:0.8;"/>
      </defs>
      <g>
       <use style="stroke:#000000;stroke-width:0.8;" x="57.6" xlink:href="#m136939f57b" y="298.944"/>
      </g>
     </g>
     <g id="text_1">
      <!-- 0 -->
      <g transform="translate(52.191875 318.861344)scale(0.17 -0.17)">
       <defs>
        <path d="M 2034 4250 
Q 1547 4250 1301 3770 
Q 1056 3291 1056 2328 
Q 1056 1369 1301 889 
Q 1547 409 2034 409 
Q 2525 409 2770 889 
Q 3016 1369 3016 2328 
Q 3016 3291 2770 3770 
Q 2525 4250 2034 4250 
z
M 2034 4750 
Q 2819 4750 3233 4129 
Q 3647 3509 3647 2328 
Q 3647 1150 3233 529 
Q 2819 -91 2034 -91 
Q 1250 -91 836 529 
Q 422 1150 422 2328 
Q 422 3509 836 4129 
Q 1250 4750 2034 4750 
z
" id="DejaVuSans-30" transform="scale(0.015625)"/>
       </defs>
       <use xlink:href="#DejaVuSans-30"/>
      </g>
     </g>
    </g>
    <g id="xtick_2">
     <g id="line2d_7">
      <path clip-path="url(#p74eab7b7e0)" d="M 144.2304 298.944 
L 144.2304 27.648 
" style="fill:none;stroke:#b0b0b0;stroke-linecap:square;stroke-width:0.8;"/>
     </g>
     <g id="line2d_8">
      <g>
       <use style="stroke:#000000;stroke-width:0.8;" x="144.2304" xlink:href="#m136939f57b" y="298.944"/>
      </g>
     </g>
     <g id="text_2">
      <!-- 2 -->
      <g transform="translate(138.822275 318.861344)scale(0.17 -0.17)">
       <defs>
        <path d="M 1228 531 
L 3431 531 
L 3431 0 
L 469 0 
L 469 531 
Q 828 903 1448 1529 
Q 2069 2156 2228 2338 
Q 2531 2678 2651 2914 
Q 2772 3150 2772 3378 
Q 2772 3750 2511 3984 
Q 2250 4219 1831 4219 
Q 1534 4219 1204 4116 
Q 875 4013 500 3803 
L 500 4441 
Q 881 4594 1212 4672 
Q 1544 4750 1819 4750 
Q 2544 4750 2975 4387 
Q 3406 4025 3406 3419 
Q 3406 3131 3298 2873 
Q 3191 2616 2906 2266 
Q 2828 2175 2409 1742 
Q 1991 1309 1228 531 
z
" id="DejaVuSans-32" transform="scale(0.015625)"/>
       </defs>
       <use xlink:href="#DejaVuSans-32"/>
      </g>
     </g>
    </g>
    <g id="xtick_3">
     <g id="line2d_9">
      <path clip-path="url(#p74eab7b7e0)" d="M 230.8608 298.944 
L 230.8608 27.648 
" style="fill:none;stroke:#b0b0b0;stroke-linecap:square;stroke-width:0.8;"/>
     </g>
     <g id="line2d_10">
      <g>
       <use style="stroke:#000000;stroke-width:0.8;" x="230.8608" xlink:href="#m136939f57b" y="298.944"/>
      </g>
     </g>
     <g id="text_3">
      <!-- 4 -->
      <g transform="translate(225.452675 318.861344)scale(0.17 -0.17)">
       <defs>
        <path d="M 2419 4116 
L 825 1625 
L 2419 1625 
L 2419 4116 
z
M 2253 4666 
L 3047 4666 
L 3047 1625 
L 3713 1625 
L 3713 1100 
L 3047 1100 
L 3047 0 
L 2419 0 
L 2419 1100 
L 313 1100 
L 313 1709 
L 2253 4666 
z
" id="DejaVuSans-34" transform="scale(0.015625)"/>
       </defs>
       <use xlink:href="#DejaVuSans-34"/>
      </g>
     </g>
    </g>
    <g id="xtick_4">
     <g id="line2d_11">
      <path clip-path="url(#p74eab7b7e0)" d="M 317.4912 298.944 
L 317.4912 27.648 
" style="fill:none;stroke:#b0b0b0;stroke-linecap:square;stroke-width:0.8;"/>
     </g>
     <g id="line2d_12">
      <g>
       <use style="stroke:#000000;stroke-width:0.8;" x="317.4912" xlink:href="#m136939f57b" y="298.944"/>
      </g>
     </g>
     <g id="text_4">
      <!-- 6 -->
      <g transform="translate(312.083075 318.861344)scale(0.17 -0.17)">
       <defs>
        <path d="M 2113 2584 
Q 1688 2584 1439 2293 
Q 1191 2003 1191 1497 
Q 1191 994 1439 701 
Q 1688 409 2113 409 
Q 2538 409 2786 701 
Q 3034 994 3034 1497 
Q 3034 2003 2786 2293 
Q 2538 2584 2113 2584 
z
M 3366 4563 
L 3366 3988 
Q 3128 4100 2886 4159 
Q 2644 4219 2406 4219 
Q 1781 4219 1451 3797 
Q 1122 3375 1075 2522 
Q 1259 2794 1537 2939 
Q 1816 3084 2150 3084 
Q 2853 3084 3261 2657 
Q 3669 2231 3669 1497 
Q 3669 778 3244 343 
Q 2819 -91 2113 -91 
Q 1303 -91 875 529 
Q 447 1150 447 2328 
Q 447 3434 972 4092 
Q 1497 4750 2381 4750 
Q 2619 4750 2861 4703 
Q 3103 4656 3366 4563 
z
" id="DejaVuSans-36" transform="scale(0.015625)"/>
       </defs>
       <use xlink:href="#DejaVuSans-36"/>
      </g>
     </g>
    </g>
    <g id="xtick_5">
     <g id="line2d_13">
      <path clip-path="url(#p74eab7b7e0)" d="M 100.9152 298.944 
L 100.9152 27.648 
" style="fill:none;stroke:#b0b0b0;stroke-linecap:square;stroke-width:0.8;"/>
     </g>
     <g id="line2d_14">
      <defs>
       <path d="M 0 0 
L 0 2 
" id="m976c380a74" style="stroke:#000000;stroke-width:0.6;"/>
      </defs>
      <g>
       <use style="stroke:#000000;stroke-width:0.6;" x="100.9152" xlink:href="#m976c380a74" y="298.944"/>
      </g>
     </g>
    </g>
    <g id="xtick_6">
     <g id="line2d_15">
      <path clip-path="url(#p74eab7b7e0)" d="M 187.5456 298.944 
L 187.5456 27.648 
" style="fill:none;stroke:#b0b0b0;stroke-linecap:square;stroke-width:0.8;"/>
     </g>
     <g id="line2d_16">
      <g>
       <use style="stroke:#000000;stroke-width:0.6;" x="187.5456" xlink:href="#m976c380a74" y="298.944"/>
      </g>
     </g>
    </g>
    <g id="xtick_7">
     <g id="line2d_17">
      <path clip-path="url(#p74eab7b7e0)" d="M 274.176 298.944 
L 274.176 27.648 
" style="fill:none;stroke:#b0b0b0;stroke-linecap:square;stroke-width:0.8;"/>
     </g>
     <g id="line2d_18">
      <g>
       <use style="stroke:#000000;stroke-width:0.6;" x="274.176" xlink:href="#m976c380a74" y="298.944"/>
      </g>
     </g>
    </g>
    <g id="xtick_8">
     <g id="line2d_19">
      <path clip-path="url(#p74eab7b7e0)" d="M 360.8064 298.944 
L 360.8064 27.648 
" style="fill:none;stroke:#b0b0b0;stroke-linecap:square;stroke-width:0.8;"/>
     </g>
     <g id="line2d_20">
      <g>
       <use style="stroke:#000000;stroke-width:0.6;" x="360.8064" xlink:href="#m976c380a74" y="298.944"/>
      </g>
     </g>
    </g>
    <g id="text_5">
     <!-- log10(# f-evals / dimension) -->
     <g transform="translate(88.823278 339.314156)scale(0.17 -0.17)">
      <defs>
       <path d="M 603 4863 
L 1178 4863 
L 1178 0 
L 603 0 
L 603 4863 
z
" id="DejaVuSans-6c" transform="scale(0.015625)"/>
       <path d="M 1959 3097 
Q 1497 3097 1228 2736 
Q 959 2375 959 1747 
Q 959 1119 1226 758 
Q 1494 397 1959 397 
Q 2419 397 2687 759 
Q 2956 1122 2956 1747 
Q 2956 2369 2687 2733 
Q 2419 3097 1959 3097 
z
M 1959 3584 
Q 2709 3584 3137 3096 
Q 3566 2609 3566 1747 
Q 3566 888 3137 398 
Q 2709 -91 1959 -91 
Q 1206 -91 779 398 
Q 353 888 353 1747 
Q 353 2609 779 3096 
Q 1206 3584 1959 3584 
z
" id="DejaVuSans-6f" transform="scale(0.015625)"/>
       <path d="M 2906 1791 
Q 2906 2416 2648 2759 
Q 2391 3103 1925 3103 
Q 1463 3103 1205 2759 
Q 947 2416 947 1791 
Q 947 1169 1205 825 
Q 1463 481 1925 481 
Q 2391 481 2648 825 
Q 2906 1169 2906 1791 
z
M 3481 434 
Q 3481 -459 3084 -895 
Q 2688 -1331 1869 -1331 
Q 1566 -1331 1297 -1286 
Q 1028 -1241 775 -1147 
L 775 -588 
Q 1028 -725 1275 -790 
Q 1522 -856 1778 -856 
Q 2344 -856 2625 -561 
Q 2906 -266 2906 331 
L 2906 616 
Q 2728 306 2450 153 
Q 2172 0 1784 0 
Q 1141 0 747 490 
Q 353 981 353 1791 
Q 353 2603 747 3093 
Q 1141 3584 1784 3584 
Q 2172 3584 2450 3431 
Q 2728 3278 2906 2969 
L 2906 3500 
L 3481 3500 
L 3481 434 
z
" id="DejaVuSans-67" transform="scale(0.015625)"/>
       <path d="M 794 531 
L 1825 531 
L 1825 4091 
L 703 3866 
L 703 4441 
L 1819 4666 
L 2450 4666 
L 2450 531 
L 3481 531 
L 3481 0 
L 794 0 
L 794 531 
z
" id="DejaVuSans-31" transform="scale(0.015625)"/>
       <path d="M 1984 4856 
Q 1566 4138 1362 3434 
Q 1159 2731 1159 2009 
Q 1159 1288 1364 580 
Q 1569 -128 1984 -844 
L 1484 -844 
Q 1016 -109 783 600 
Q 550 1309 550 2009 
Q 550 2706 781 3412 
Q 1013 4119 1484 4856 
L 1984 4856 
z
" id="DejaVuSans-28" transform="scale(0.015625)"/>
       <path d="M 3272 2816 
L 2363 2816 
L 2100 1772 
L 3016 1772 
L 3272 2816 
z
M 2803 4594 
L 2478 3297 
L 3391 3297 
L 3719 4594 
L 4219 4594 
L 3897 3297 
L 4872 3297 
L 4872 2816 
L 3775 2816 
L 3519 1772 
L 4513 1772 
L 4513 1294 
L 3397 1294 
L 3072 0 
L 2572 0 
L 2894 1294 
L 1978 1294 
L 1656 0 
L 1153 0 
L 1478 1294 
L 494 1294 
L 494 1772 
L 1594 1772 
L 1856 2816 
L 850 2816 
L 850 3297 
L 1978 3297 
L 2297 4594 
L 2803 4594 
z
" id="DejaVuSans-23" transform="scale(0.015625)"/>
       <path id="DejaVuSans-20" transform="scale(0.015625)"/>
       <path d="M 2375 4863 
L 2375 4384 
L 1825 4384 
Q 1516 4384 1395 4259 
Q 1275 4134 1275 3809 
L 1275 3500 
L 2222 3500 
L 2222 3053 
L 1275 3053 
L 1275 0 
L 697 0 
L 697 3053 
L 147 3053 
L 147 3500 
L 697 3500 
L 697 3744 
Q 697 4328 969 4595 
Q 1241 4863 1831 4863 
L 2375 4863 
z
" id="DejaVuSans-66" transform="scale(0.015625)"/>
       <path d="M 313 2009 
L 1997 2009 
L 1997 1497 
L 313 1497 
L 313 2009 
z
" id="DejaVuSans-2d" transform="scale(0.015625)"/>
       <path d="M 3597 1894 
L 3597 1613 
L 953 1613 
Q 991 1019 1311 708 
Q 1631 397 2203 397 
Q 2534 397 2845 478 
Q 3156 559 3463 722 
L 3463 178 
Q 3153 47 2828 -22 
Q 2503 -91 2169 -91 
Q 1331 -91 842 396 
Q 353 884 353 1716 
Q 353 2575 817 3079 
Q 1281 3584 2069 3584 
Q 2775 3584 3186 3129 
Q 3597 2675 3597 1894 
z
M 3022 2063 
Q 3016 2534 2758 2815 
Q 2500 3097 2075 3097 
Q 1594 3097 1305 2825 
Q 1016 2553 972 2059 
L 3022 2063 
z
" id="DejaVuSans-65" transform="scale(0.015625)"/>
       <path d="M 191 3500 
L 800 3500 
L 1894 563 
L 2988 3500 
L 3597 3500 
L 2284 0 
L 1503 0 
L 191 3500 
z
" id="DejaVuSans-76" transform="scale(0.015625)"/>
       <path d="M 2194 1759 
Q 1497 1759 1228 1600 
Q 959 1441 959 1056 
Q 959 750 1161 570 
Q 1363 391 1709 391 
Q 2188 391 2477 730 
Q 2766 1069 2766 1631 
L 2766 1759 
L 2194 1759 
z
M 3341 1997 
L 3341 0 
L 2766 0 
L 2766 531 
Q 2569 213 2275 61 
Q 1981 -91 1556 -91 
Q 1019 -91 701 211 
Q 384 513 384 1019 
Q 384 1609 779 1909 
Q 1175 2209 1959 2209 
L 2766 2209 
L 2766 2266 
Q 2766 2663 2505 2880 
Q 2244 3097 1772 3097 
Q 1472 3097 1187 3025 
Q 903 2953 641 2809 
L 641 3341 
Q 956 3463 1253 3523 
Q 1550 3584 1831 3584 
Q 2591 3584 2966 3190 
Q 3341 2797 3341 1997 
z
" id="DejaVuSans-61" transform="scale(0.015625)"/>
       <path d="M 2834 3397 
L 2834 2853 
Q 2591 2978 2328 3040 
Q 2066 3103 1784 3103 
Q 1356 3103 1142 2972 
Q 928 2841 928 2578 
Q 928 2378 1081 2264 
Q 1234 2150 1697 2047 
L 1894 2003 
Q 2506 1872 2764 1633 
Q 3022 1394 3022 966 
Q 3022 478 2636 193 
Q 2250 -91 1575 -91 
Q 1294 -91 989 -36 
Q 684 19 347 128 
L 347 722 
Q 666 556 975 473 
Q 1284 391 1588 391 
Q 1994 391 2212 530 
Q 2431 669 2431 922 
Q 2431 1156 2273 1281 
Q 2116 1406 1581 1522 
L 1381 1569 
Q 847 1681 609 1914 
Q 372 2147 372 2553 
Q 372 3047 722 3315 
Q 1072 3584 1716 3584 
Q 2034 3584 2315 3537 
Q 2597 3491 2834 3397 
z
" id="DejaVuSans-73" transform="scale(0.015625)"/>
       <path d="M 1625 4666 
L 2156 4666 
L 531 -594 
L 0 -594 
L 1625 4666 
z
" id="DejaVuSans-2f" transform="scale(0.015625)"/>
       <path d="M 2906 2969 
L 2906 4863 
L 3481 4863 
L 3481 0 
L 2906 0 
L 2906 525 
Q 2725 213 2448 61 
Q 2172 -91 1784 -91 
Q 1150 -91 751 415 
Q 353 922 353 1747 
Q 353 2572 751 3078 
Q 1150 3584 1784 3584 
Q 2172 3584 2448 3432 
Q 2725 3281 2906 2969 
z
M 947 1747 
Q 947 1113 1208 752 
Q 1469 391 1925 391 
Q 2381 391 2643 752 
Q 2906 1113 2906 1747 
Q 2906 2381 2643 2742 
Q 2381 3103 1925 3103 
Q 1469 3103 1208 2742 
Q 947 2381 947 1747 
z
" id="DejaVuSans-64" transform="scale(0.015625)"/>
       <path d="M 603 3500 
L 1178 3500 
L 1178 0 
L 603 0 
L 603 3500 
z
M 603 4863 
L 1178 4863 
L 1178 4134 
L 603 4134 
L 603 4863 
z
" id="DejaVuSans-69" transform="scale(0.015625)"/>
       <path d="M 3328 2828 
Q 3544 3216 3844 3400 
Q 4144 3584 4550 3584 
Q 5097 3584 5394 3201 
Q 5691 2819 5691 2113 
L 5691 0 
L 5113 0 
L 5113 2094 
Q 5113 2597 4934 2840 
Q 4756 3084 4391 3084 
Q 3944 3084 3684 2787 
Q 3425 2491 3425 1978 
L 3425 0 
L 2847 0 
L 2847 2094 
Q 2847 2600 2669 2842 
Q 2491 3084 2119 3084 
Q 1678 3084 1418 2786 
Q 1159 2488 1159 1978 
L 1159 0 
L 581 0 
L 581 3500 
L 1159 3500 
L 1159 2956 
Q 1356 3278 1631 3431 
Q 1906 3584 2284 3584 
Q 2666 3584 2933 3390 
Q 3200 3197 3328 2828 
z
" id="DejaVuSans-6d" transform="scale(0.015625)"/>
       <path d="M 3513 2113 
L 3513 0 
L 2938 0 
L 2938 2094 
Q 2938 2591 2744 2837 
Q 2550 3084 2163 3084 
Q 1697 3084 1428 2787 
Q 1159 2491 1159 1978 
L 1159 0 
L 581 0 
L 581 3500 
L 1159 3500 
L 1159 2956 
Q 1366 3272 1645 3428 
Q 1925 3584 2291 3584 
Q 2894 3584 3203 3211 
Q 3513 2838 3513 2113 
z
" id="DejaVuSans-6e" transform="scale(0.015625)"/>
       <path d="M 513 4856 
L 1013 4856 
Q 1481 4119 1714 3412 
Q 1947 2706 1947 2009 
Q 1947 1309 1714 600 
Q 1481 -109 1013 -844 
L 513 -844 
Q 928 -128 1133 580 
Q 1338 1288 1338 2009 
Q 1338 2731 1133 3434 
Q 928 4138 513 4856 
z
" id="DejaVuSans-29" transform="scale(0.015625)"/>
      </defs>
      <use xlink:href="#DejaVuSans-6c"/>
      <use x="27.783203" xlink:href="#DejaVuSans-6f"/>
      <use x="88.964844" xlink:href="#DejaVuSans-67"/>
      <use x="152.441406" xlink:href="#DejaVuSans-31"/>
      <use x="216.064453" xlink:href="#DejaVuSans-30"/>
      <use x="279.6875" xlink:href="#DejaVuSans-28"/>
      <use x="318.701172" xlink:href="#DejaVuSans-23"/>
      <use x="402.490234" xlink:href="#DejaVuSans-20"/>
      <use x="434.277344" xlink:href="#DejaVuSans-66"/>
      <use x="463.982422" xlink:href="#DejaVuSans-2d"/>
      <use x="500.066406" xlink:href="#DejaVuSans-65"/>
      <use x="561.589844" xlink:href="#DejaVuSans-76"/>
      <use x="620.769531" xlink:href="#DejaVuSans-61"/>
      <use x="682.048828" xlink:href="#DejaVuSans-6c"/>
      <use x="709.832031" xlink:href="#DejaVuSans-73"/>
      <use x="761.931641" xlink:href="#DejaVuSans-20"/>
      <use x="793.71875" xlink:href="#DejaVuSans-2f"/>
      <use x="827.410156" xlink:href="#DejaVuSans-20"/>
      <use x="859.197266" xlink:href="#DejaVuSans-64"/>
      <use x="922.673828" xlink:href="#DejaVuSans-69"/>
      <use x="950.457031" xlink:href="#DejaVuSans-6d"/>
      <use x="1047.869141" xlink:href="#DejaVuSans-65"/>
      <use x="1109.392578" xlink:href="#DejaVuSans-6e"/>
      <use x="1172.771484" xlink:href="#DejaVuSans-73"/>
      <use x="1224.871094" xlink:href="#DejaVuSans-69"/>
      <use x="1252.654297" xlink:href="#DejaVuSans-6f"/>
      <use x="1313.835938" xlink:href="#DejaVuSans-6e"/>
      <use x="1377.214844" xlink:href="#DejaVuSans-29"/>
     </g>
    </g>
   </g>
   <g id="matplotlib.axis_2">
    <g id="ytick_1">
     <g id="line2d_21">
      <path clip-path="url(#p74eab7b7e0)" d="M 57.6 298.944 
L 360.8064 298.944 
" style="fill:none;stroke:#b0b0b0;stroke-linecap:square;stroke-width:0.8;"/>
     </g>
     <g id="line2d_22">
      <defs>
       <path d="M 0 0 
L -3.5 0 
" id="m461d1c46c0" style="stroke:#000000;stroke-width:0.8;"/>
      </defs>
      <g>
       <use style="stroke:#000000;stroke-width:0.8;" x="57.6" xlink:href="#m461d1c46c0" y="298.944"/>
      </g>
     </g>
     <g id="text_6">
      <!-- 0.0 -->
      <g transform="translate(25.155 305.02275)scale(0.16 -0.16)">
       <defs>
        <path d="M 684 794 
L 1344 794 
L 1344 0 
L 684 0 
L 684 794 
z
" id="DejaVuSans-2e" transform="scale(0.015625)"/>
       </defs>
       <use xlink:href="#DejaVuSans-30"/>
       <use x="63.623047" xlink:href="#DejaVuSans-2e"/>
       <use x="95.410156" xlink:href="#DejaVuSans-30"/>
      </g>
     </g>
    </g>
    <g id="ytick_2">
     <g id="line2d_23">
      <path clip-path="url(#p74eab7b7e0)" d="M 57.6 244.6848 
L 360.8064 244.6848 
" style="fill:none;stroke:#b0b0b0;stroke-linecap:square;stroke-width:0.8;"/>
     </g>
     <g id="line2d_24">
      <g>
       <use style="stroke:#000000;stroke-width:0.8;" x="57.6" xlink:href="#m461d1c46c0" y="244.6848"/>
      </g>
     </g>
     <g id="text_7">
      <!-- 0.2 -->
      <g transform="translate(25.155 250.76355)scale(0.16 -0.16)">
       <use xlink:href="#DejaVuSans-30"/>
       <use x="63.623047" xlink:href="#DejaVuSans-2e"/>
       <use x="95.410156" xlink:href="#DejaVuSans-32"/>
      </g>
     </g>
    </g>
    <g id="ytick_3">
     <g id="line2d_25">
      <path clip-path="url(#p74eab7b7e0)" d="M 57.6 190.4256 
L 360.8064 190.4256 
" style="fill:none;stroke:#b0b0b0;stroke-linecap:square;stroke-width:0.8;"/>
     </g>
     <g id="line2d_26">
      <g>
       <use style="stroke:#000000;stroke-width:0.8;" x="57.6" xlink:href="#m461d1c46c0" y="190.4256"/>
      </g>
     </g>
     <g id="text_8">
      <!-- 0.4 -->
      <g transform="translate(25.155 196.50435)scale(0.16 -0.16)">
       <use xlink:href="#DejaVuSans-30"/>
       <use x="63.623047" xlink:href="#DejaVuSans-2e"/>
       <use x="95.410156" xlink:href="#DejaVuSans-34"/>
      </g>
     </g>
    </g>
    <g id="ytick_4">
     <g id="line2d_27">
      <path clip-path="url(#p74eab7b7e0)" d="M 57.6 136.1664 
L 360.8064 136.1664 
" style="fill:none;stroke:#b0b0b0;stroke-linecap:square;stroke-width:0.8;"/>
     </g>
     <g id="line2d_28">
      <g>
       <use style="stroke:#000000;stroke-width:0.8;" x="57.6" xlink:href="#m461d1c46c0" y="136.1664"/>
      </g>
     </g>
     <g id="text_9">
      <!-- 0.6 -->
      <g transform="translate(25.155 142.24515)scale(0.16 -0.16)">
       <use xlink:href="#DejaVuSans-30"/>
       <use x="63.623047" xlink:href="#DejaVuSans-2e"/>
       <use x="95.410156" xlink:href="#DejaVuSans-36"/>
      </g>
     </g>
    </g>
    <g id="ytick_5">
     <g id="line2d_29">
      <path clip-path="url(#p74eab7b7e0)" d="M 57.6 81.9072 
L 360.8064 81.9072 
" style="fill:none;stroke:#b0b0b0;stroke-linecap:square;stroke-width:0.8;"/>
     </g>
     <g id="line2d_30">
      <g>
       <use style="stroke:#000000;stroke-width:0.8;" x="57.6" xlink:href="#m461d1c46c0" y="81.9072"/>
      </g>
     </g>
     <g id="text_10">
      <!-- 0.8 -->
      <g transform="translate(25.155 87.98595)scale(0.16 -0.16)">
       <defs>
        <path d="M 2034 2216 
Q 1584 2216 1326 1975 
Q 1069 1734 1069 1313 
Q 1069 891 1326 650 
Q 1584 409 2034 409 
Q 2484 409 2743 651 
Q 3003 894 3003 1313 
Q 3003 1734 2745 1975 
Q 2488 2216 2034 2216 
z
M 1403 2484 
Q 997 2584 770 2862 
Q 544 3141 544 3541 
Q 544 4100 942 4425 
Q 1341 4750 2034 4750 
Q 2731 4750 3128 4425 
Q 3525 4100 3525 3541 
Q 3525 3141 3298 2862 
Q 3072 2584 2669 2484 
Q 3125 2378 3379 2068 
Q 3634 1759 3634 1313 
Q 3634 634 3220 271 
Q 2806 -91 2034 -91 
Q 1263 -91 848 271 
Q 434 634 434 1313 
Q 434 1759 690 2068 
Q 947 2378 1403 2484 
z
M 1172 3481 
Q 1172 3119 1398 2916 
Q 1625 2713 2034 2713 
Q 2441 2713 2670 2916 
Q 2900 3119 2900 3481 
Q 2900 3844 2670 4047 
Q 2441 4250 2034 4250 
Q 1625 4250 1398 4047 
Q 1172 3844 1172 3481 
z
" id="DejaVuSans-38" transform="scale(0.015625)"/>
       </defs>
       <use xlink:href="#DejaVuSans-30"/>
       <use x="63.623047" xlink:href="#DejaVuSans-2e"/>
       <use x="95.410156" xlink:href="#DejaVuSans-38"/>
      </g>
     </g>
    </g>
    <g id="ytick_6">
     <g id="line2d_31">
      <path clip-path="url(#p74eab7b7e0)" d="M 57.6 27.648 
L 360.8064 27.648 
" style="fill:none;stroke:#b0b0b0;stroke-linecap:square;stroke-width:0.8;"/>
     </g>
     <g id="line2d_32">
      <g>
       <use style="stroke:#000000;stroke-width:0.8;" x="57.6" xlink:href="#m461d1c46c0" y="27.648"/>
      </g>
     </g>
     <g id="text_11">
      <!-- 1.0 -->
      <g transform="translate(25.155 33.72675)scale(0.16 -0.16)">
       <use xlink:href="#DejaVuSans-31"/>
       <use x="63.623047" xlink:href="#DejaVuSans-2e"/>
       <use x="95.410156" xlink:href="#DejaVuSans-30"/>
      </g>
     </g>
    </g>
    <g id="text_12">
     <!-- Fraction of function,target pairs -->
     <g transform="translate(17.619531 297.681)rotate(-90)scale(0.17 -0.17)">
      <defs>
       <path d="M 628 4666 
L 3309 4666 
L 3309 4134 
L 1259 4134 
L 1259 2759 
L 3109 2759 
L 3109 2228 
L 1259 2228 
L 1259 0 
L 628 0 
L 628 4666 
z
" id="DejaVuSans-46" transform="scale(0.015625)"/>
       <path d="M 2631 2963 
Q 2534 3019 2420 3045 
Q 2306 3072 2169 3072 
Q 1681 3072 1420 2755 
Q 1159 2438 1159 1844 
L 1159 0 
L 581 0 
L 581 3500 
L 1159 3500 
L 1159 2956 
Q 1341 3275 1631 3429 
Q 1922 3584 2338 3584 
Q 2397 3584 2469 3576 
Q 2541 3569 2628 3553 
L 2631 2963 
z
" id="DejaVuSans-72" transform="scale(0.015625)"/>
       <path d="M 3122 3366 
L 3122 2828 
Q 2878 2963 2633 3030 
Q 2388 3097 2138 3097 
Q 1578 3097 1268 2742 
Q 959 2388 959 1747 
Q 959 1106 1268 751 
Q 1578 397 2138 397 
Q 2388 397 2633 464 
Q 2878 531 3122 666 
L 3122 134 
Q 2881 22 2623 -34 
Q 2366 -91 2075 -91 
Q 1284 -91 818 406 
Q 353 903 353 1747 
Q 353 2603 823 3093 
Q 1294 3584 2113 3584 
Q 2378 3584 2631 3529 
Q 2884 3475 3122 3366 
z
" id="DejaVuSans-63" transform="scale(0.015625)"/>
       <path d="M 1172 4494 
L 1172 3500 
L 2356 3500 
L 2356 3053 
L 1172 3053 
L 1172 1153 
Q 1172 725 1289 603 
Q 1406 481 1766 481 
L 2356 481 
L 2356 0 
L 1766 0 
Q 1100 0 847 248 
Q 594 497 594 1153 
L 594 3053 
L 172 3053 
L 172 3500 
L 594 3500 
L 594 4494 
L 1172 4494 
z
" id="DejaVuSans-74" transform="scale(0.015625)"/>
       <path d="M 544 1381 
L 544 3500 
L 1119 3500 
L 1119 1403 
Q 1119 906 1312 657 
Q 1506 409 1894 409 
Q 2359 409 2629 706 
Q 2900 1003 2900 1516 
L 2900 3500 
L 3475 3500 
L 3475 0 
L 2900 0 
L 2900 538 
Q 2691 219 2414 64 
Q 2138 -91 1772 -91 
Q 1169 -91 856 284 
Q 544 659 544 1381 
z
M 1991 3584 
L 1991 3584 
z
" id="DejaVuSans-75" transform="scale(0.015625)"/>
       <path d="M 750 794 
L 1409 794 
L 1409 256 
L 897 -744 
L 494 -744 
L 750 256 
L 750 794 
z
" id="DejaVuSans-2c" transform="scale(0.015625)"/>
       <path d="M 1159 525 
L 1159 -1331 
L 581 -1331 
L 581 3500 
L 1159 3500 
L 1159 2969 
Q 1341 3281 1617 3432 
Q 1894 3584 2278 3584 
Q 2916 3584 3314 3078 
Q 3713 2572 3713 1747 
Q 3713 922 3314 415 
Q 2916 -91 2278 -91 
Q 1894 -91 1617 61 
Q 1341 213 1159 525 
z
M 3116 1747 
Q 3116 2381 2855 2742 
Q 2594 3103 2138 3103 
Q 1681 3103 1420 2742 
Q 1159 2381 1159 1747 
Q 1159 1113 1420 752 
Q 1681 391 2138 391 
Q 2594 391 2855 752 
Q 3116 1113 3116 1747 
z
" id="DejaVuSans-70" transform="scale(0.015625)"/>
      </defs>
      <use xlink:href="#DejaVuSans-46"/>
      <use x="50.269531" xlink:href="#DejaVuSans-72"/>
      <use x="91.382812" xlink:href="#DejaVuSans-61"/>
      <use x="152.662109" xlink:href="#DejaVuSans-63"/>
      <use x="207.642578" xlink:href="#DejaVuSans-74"/>
      <use x="246.851562" xlink:href="#DejaVuSans-69"/>
      <use x="274.634766" xlink:href="#DejaVuSans-6f"/>
      <use x="335.816406" xlink:href="#DejaVuSans-6e"/>
      <use x="399.195312" xlink:href="#DejaVuSans-20"/>
      <use x="430.982422" xlink:href="#DejaVuSans-6f"/>
      <use x="492.164062" xlink:href="#DejaVuSans-66"/>
      <use x="527.369141" xlink:href="#DejaVuSans-20"/>
      <use x="559.15625" xlink:href="#DejaVuSans-66"/>
      <use x="594.361328" xlink:href="#DejaVuSans-75"/>
      <use x="657.740234" xlink:href="#DejaVuSans-6e"/>
      <use x="721.119141" xlink:href="#DejaVuSans-63"/>
      <use x="776.099609" xlink:href="#DejaVuSans-74"/>
      <use x="815.308594" xlink:href="#DejaVuSans-69"/>
      <use x="843.091797" xlink:href="#DejaVuSans-6f"/>
      <use x="904.273438" xlink:href="#DejaVuSans-6e"/>
      <use x="967.652344" xlink:href="#DejaVuSans-2c"/>
      <use x="999.439453" xlink:href="#DejaVuSans-74"/>
      <use x="1038.648438" xlink:href="#DejaVuSans-61"/>
      <use x="1099.927734" xlink:href="#DejaVuSans-72"/>
      <use x="1139.291016" xlink:href="#DejaVuSans-67"/>
      <use x="1202.767578" xlink:href="#DejaVuSans-65"/>
      <use x="1264.291016" xlink:href="#DejaVuSans-74"/>
      <use x="1303.5" xlink:href="#DejaVuSans-20"/>
      <use x="1335.287109" xlink:href="#DejaVuSans-70"/>
      <use x="1398.763672" xlink:href="#DejaVuSans-61"/>
      <use x="1460.042969" xlink:href="#DejaVuSans-69"/>
      <use x="1487.826172" xlink:href="#DejaVuSans-72"/>
      <use x="1528.939453" xlink:href="#DejaVuSans-73"/>
     </g>
    </g>
   </g>
   <g id="line2d_33">
    <defs>
     <path d="M 0 1.5 
C 0.397805 1.5 0.77937 1.341951 1.06066 1.06066 
C 1.341951 0.77937 1.5 0.397805 1.5 0 
C 1.5 -0.397805 1.341951 -0.77937 1.06066 -1.06066 
C 0.77937 -1.341951 0.397805 -1.5 0 -1.5 
C -0.397805 -1.5 -0.77937 -1.341951 -1.06066 -1.06066 
C -1.341951 -0.77937 -1.5 -0.397805 -1.5 0 
C -1.5 0.397805 -1.341951 0.77937 -1.06066 1.06066 
C -0.77937 1.341951 -0.397805 1.5 0 1.5 
z
" id="mf1cd6c7763" style="stroke:#f5deb3;"/>
    </defs>
    <g>
     <use style="fill:#f5deb3;stroke:#f5deb3;" x="164.580835" xlink:href="#mf1cd6c7763" y="27.648"/>
     <use style="fill:#f5deb3;stroke:#f5deb3;" x="164.580835" xlink:href="#mf1cd6c7763" y="27.648"/>
    </g>
   </g>
   <g id="line2d_34">
    <defs>
     <path d="M 0 1.5 
C 0.397805 1.5 0.77937 1.341951 1.06066 1.06066 
C 1.341951 0.77937 1.5 0.397805 1.5 0 
C 1.5 -0.397805 1.341951 -0.77937 1.06066 -1.06066 
C 0.77937 -1.341951 0.397805 -1.5 0 -1.5 
C -0.397805 -1.5 -0.77937 -1.341951 -1.06066 -1.06066 
C -1.341951 -0.77937 -1.5 -0.397805 -1.5 0 
C -1.5 0.397805 -1.341951 0.77937 -1.06066 1.06066 
C -0.77937 1.341951 -0.397805 1.5 0 1.5 
z
" id="m139e1ee475" style="stroke:#000080;"/>
    </defs>
    <g>
     <use style="fill:#000080;stroke:#000080;" x="271.009876" xlink:href="#m139e1ee475" y="27.648"/>
     <use style="fill:#000080;stroke:#000080;" x="271.009876" xlink:href="#m139e1ee475" y="27.648"/>
    </g>
   </g>
   <g id="line2d_35">
    <path d="M 57.6 298.944 
L 57.6 298.234729 
L 61.029752 298.234729 
L 61.029752 297.880094 
L 102.011329 297.880094 
L 102.011329 297.525459 
L 104.655893 297.525459 
L 104.655893 297.170824 
L 106.42077 297.170824 
L 106.42077 296.816188 
L 113.765312 296.816188 
L 113.765312 296.461553 
L 115.227139 296.461553 
L 115.227139 296.106918 
L 116.907859 296.106918 
L 116.907859 295.043012 
L 117.540239 295.043012 
L 117.540239 293.979106 
L 118.450653 293.979106 
L 118.450653 292.9152 
L 123.601383 292.9152 
L 123.601383 292.205929 
L 124.265389 292.205929 
L 124.265389 290.787388 
L 125.526971 290.787388 
L 125.526971 290.078118 
L 129.209231 290.078118 
L 129.209231 289.723482 
L 129.54072 289.723482 
L 129.54072 289.368847 
L 130.027253 289.368847 
L 130.027253 289.014212 
L 130.344755 289.014212 
L 130.344755 288.659576 
L 130.656987 288.659576 
L 130.656987 288.304941 
L 131.41562 288.304941 
L 131.41562 287.241035 
L 133.918257 287.241035 
L 133.918257 286.531765 
L 134.047992 286.531765 
L 134.047992 285.822494 
L 136.126705 285.822494 
L 136.126705 285.467859 
L 137.358854 285.467859 
L 137.358854 285.113224 
L 138.718057 285.113224 
L 138.718057 284.758588 
L 140.451292 284.758588 
L 140.451292 284.403953 
L 140.634374 284.403953 
L 140.634374 283.694682 
L 141.261484 283.694682 
L 141.261484 283.340047 
L 141.782854 283.340047 
L 141.782854 282.985412 
L 142.538777 282.985412 
L 142.538777 281.566871 
L 144.71325 281.566871 
L 144.786447 280.8576 
L 144.85936 280.8576 
L 144.85936 280.502965 
L 145.361989 280.502965 
L 145.361989 280.148329 
L 146.595975 280.148329 
L 146.595975 279.793694 
L 146.924857 279.793694 
L 146.924857 279.084424 
L 147.940229 279.084424 
L 148.001907 278.375153 
L 148.063382 278.375153 
L 148.063382 278.020518 
L 149.020615 278.020518 
L 149.078856 277.311247 
L 149.931489 277.311247 
L 149.931489 276.956612 
L 150.853277 276.956612 
L 150.853277 276.601976 
L 151.681429 276.601976 
L 151.681429 276.247341 
L 152.279463 276.247341 
L 152.279463 275.892706 
L 153.328795 275.892706 
L 153.328795 275.538071 
L 153.467455 275.538071 
L 153.467455 275.183435 
L 153.741748 275.183435 
L 153.741748 274.8288 
L 154.190197 274.8288 
L 154.190197 274.119529 
L 154.843441 274.119529 
L 154.843441 273.764894 
L 156.482044 273.764894 
L 156.482044 273.410259 
L 157.400797 273.410259 
L 157.400797 273.055624 
L 157.586683 273.055624 
L 157.586683 272.700988 
L 157.98928 272.700988 
L 157.98928 272.346353 
L 158.312387 272.346353 
L 158.312387 271.637082 
L 158.873444 271.637082 
L 158.873444 270.573176 
L 159.384659 270.573176 
L 159.384659 270.218541 
L 159.980326 270.218541 
L 159.980326 269.863906 
L 160.206974 269.863906 
L 160.206974 269.509271 
L 160.839886 269.509271 
L 160.839886 269.154635 
L 161.572302 269.154635 
L 161.572302 268.8 
L 162.161592 268.8 
L 162.161592 268.445365 
L 162.732982 268.445365 
L 162.761101 267.381459 
L 163.666204 267.381459 
L 163.666204 267.026824 
L 164.037409 267.026824 
L 164.063646 265.962918 
L 164.606324 265.962918 
L 164.606324 265.608282 
L 164.834193 265.608282 
L 164.834193 265.253647 
L 166.286609 265.253647 
L 166.286609 264.899012 
L 166.425869 264.899012 
L 166.425869 264.544376 
L 166.701332 264.544376 
L 166.769573 263.835106 
L 166.814929 263.835106 
L 166.814929 263.480471 
L 167.129398 263.480471 
L 167.129398 263.125835 
L 167.284683 263.125835 
L 167.284683 262.7712 
L 168.063651 262.7712 
L 168.063651 262.061929 
L 168.441364 262.061929 
L 168.441364 261.707294 
L 168.79126 261.707294 
L 168.79126 261.352659 
L 169.511408 261.352659 
L 169.531024 260.643388 
L 169.803519 260.643388 
L 169.803519 260.288753 
L 170.672043 260.288753 
L 170.672043 259.224847 
L 170.892171 259.224847 
L 171.001277 258.515576 
L 171.127772 258.515576 
L 171.127772 258.160941 
L 171.253422 258.160941 
L 171.253422 257.806306 
L 171.378239 257.806306 
L 171.378239 257.097035 
L 171.765213 257.097035 
L 171.765213 256.7424 
L 172.144386 256.7424 
L 172.144386 256.387765 
L 172.814802 256.387765 
L 172.814802 256.033129 
L 173.092649 256.033129 
L 173.092649 255.678494 
L 173.205875 255.678494 
L 173.270271 254.969224 
L 173.620559 254.969224 
L 173.683553 254.259953 
L 173.948949 254.259953 
L 174.041731 253.196047 
L 174.225934 253.196047 
L 174.225934 252.841412 
L 174.827233 252.841412 
L 174.930512 252.132141 
L 174.974602 252.132141 
L 174.974602 251.777506 
L 175.106254 251.777506 
L 175.106254 251.422871 
L 175.309232 251.422871 
L 175.309232 251.068235 
L 175.567027 251.068235 
L 175.567027 250.7136 
L 175.751039 250.7136 
L 175.751039 250.004329 
L 176.604692 250.004329 
L 176.604692 249.649694 
L 176.872001 249.649694 
L 176.964669 248.585788 
L 177.135565 248.585788 
L 177.213919 247.876518 
L 177.330842 247.876518 
L 177.369655 247.167247 
L 177.753447 247.167247 
L 177.753447 246.812612 
L 178.154375 246.812612 
L 178.203895 246.103341 
L 178.412915 246.103341 
L 178.412915 245.748706 
L 178.583321 245.748706 
L 178.583321 245.394071 
L 178.740186 245.394071 
L 178.740186 245.039435 
L 178.859967 245.039435 
L 178.883832 244.330165 
L 179.249919 244.330165 
L 179.308303 243.620894 
L 179.389739 243.620894 
L 179.424532 242.556988 
L 179.814423 242.556988 
L 179.814423 242.202353 
L 180.196396 242.202353 
L 180.196396 241.847718 
L 180.570768 241.847718 
L 180.59256 241.138447 
L 180.873576 241.138447 
L 180.884301 240.429176 
L 181.044446 240.429176 
L 181.139882 239.365271 
L 181.182144 239.365271 
L 181.182144 239.010635 
L 181.423321 239.010635 
L 181.527223 238.301365 
L 181.599615 238.301365 
L 181.599615 237.946729 
L 182.178947 237.946729 
L 182.178947 236.882824 
L 182.535857 236.882824 
L 182.565296 236.173553 
L 183.324394 236.173553 
L 183.324394 235.818918 
L 183.53976 235.818918 
L 183.53976 235.464282 
L 183.835357 235.464282 
L 183.908536 234.400376 
L 184.026848 234.400376 
L 184.026848 234.045741 
L 184.234363 234.045741 
L 184.234363 233.691106 
L 184.475083 233.691106 
L 184.475083 233.336471 
L 184.633869 233.336471 
L 184.633869 232.981835 
L 185.110905 232.981835 
L 185.187826 232.272565 
L 185.238933 232.272565 
L 185.298382 231.563294 
L 185.458805 231.563294 
L 185.48401 230.854024 
L 185.609533 230.854024 
L 185.609533 230.499388 
L 185.948414 230.499388 
L 185.997499 229.790118 
L 186.176387 229.790118 
L 186.249081 229.080847 
L 186.345571 229.080847 
L 186.433588 227.662306 
L 186.560881 227.662306 
L 186.560881 227.307671 
L 186.953212 227.307671 
L 186.953212 226.953035 
L 187.130972 226.953035 
L 187.130972 226.5984 
L 187.428605 226.5984 
L 187.428605 226.243765 
L 187.646909 226.243765 
L 187.699226 224.825224 
L 187.907049 224.825224 
L 188.017446 223.761318 
L 188.192744 223.761318 
L 188.192744 223.406682 
L 188.423963 223.406682 
L 188.423963 223.052047 
L 188.538515 223.052047 
L 188.538515 222.697412 
L 188.659467 222.697412 
L 188.709046 221.988141 
L 189.559547 221.988141 
L 189.633768 221.278871 
L 189.874645 221.278871 
L 189.960876 219.151059 
L 190.026939 219.151059 
L 190.026939 218.796424 
L 190.19109 218.796424 
L 190.19109 218.441788 
L 190.5023 218.441788 
L 190.5023 218.087153 
L 190.655995 218.087153 
L 190.655995 217.732518 
L 190.965943 217.732518 
L 190.991021 217.023247 
L 191.178047 217.023247 
L 191.178047 216.668612 
L 191.400052 216.668612 
L 191.485684 215.604706 
L 191.522264 215.604706 
L 191.613406 214.5408 
L 191.734245 214.5408 
L 191.734245 214.186165 
L 191.91406 214.186165 
L 191.91406 213.831529 
L 192.068522 213.831529 
L 192.074438 213.122259 
L 192.198237 213.122259 
L 192.268616 212.412988 
L 192.332899 212.412988 
L 192.332899 212.058353 
L 192.478185 212.058353 
L 192.541757 210.994447 
L 192.771134 210.994447 
L 192.816676 209.930541 
L 193.24391 209.930541 
L 193.299409 208.866635 
L 193.541681 208.866635 
L 193.629011 207.448094 
L 193.834811 207.448094 
L 193.936873 206.738824 
L 194.165831 206.738824 
L 194.165831 206.384188 
L 194.350156 206.384188 
L 194.365871 205.320282 
L 194.511921 205.320282 
L 194.594871 204.256376 
L 194.692902 204.256376 
L 194.692902 203.901741 
L 194.953539 203.901741 
L 195.039621 203.192471 
L 195.064865 203.192471 
L 195.064865 202.837835 
L 195.315455 202.837835 
L 195.315455 202.4832 
L 195.48397 202.4832 
L 195.513552 201.773929 
L 195.611823 201.773929 
L 195.690072 201.064659 
L 195.763136 201.064659 
L 195.767997 200.355388 
L 195.884283 200.355388 
L 195.951786 199.291482 
L 196.403551 199.291482 
L 196.459852 198.227576 
L 196.576607 198.227576 
L 196.576607 197.518306 
L 196.743472 197.518306 
L 196.743472 197.163671 
L 196.96368 197.163671 
L 196.96368 196.809035 
L 197.077359 196.809035 
L 197.176832 196.099765 
L 197.199366 196.099765 
L 197.262318 194.326588 
L 197.320586 194.326588 
L 197.320586 193.971953 
L 197.47657 193.971953 
L 197.569544 192.553412 
L 197.70157 192.553412 
L 197.784711 191.489506 
L 198.246182 191.489506 
L 198.314224 189.361694 
L 198.642451 189.361694 
L 198.642451 189.007059 
L 198.758893 189.007059 
L 198.825109 187.943153 
L 198.989637 187.943153 
L 199.095813 186.879247 
L 199.160856 186.879247 
L 199.258 185.815341 
L 199.274142 185.815341 
L 199.306385 185.106071 
L 199.490715 185.106071 
L 199.578239 184.3968 
L 199.645593 184.3968 
L 199.696936 183.332894 
L 199.826645 183.332894 
L 199.904823 182.623624 
L 200.129719 182.623624 
L 200.202811 181.914353 
L 200.264142 181.914353 
L 200.363382 180.850447 
L 200.533915 180.850447 
L 200.605456 180.141176 
L 200.844454 180.141176 
L 200.918523 179.077271 
L 200.959137 179.077271 
L 200.999663 178.368 
L 201.095107 178.368 
L 201.138995 177.658729 
L 201.284554 177.658729 
L 201.284554 177.304094 
L 201.500802 177.304094 
L 201.500802 176.949459 
L 201.629367 176.949459 
L 201.711048 176.240188 
L 201.767662 176.240188 
L 201.852264 175.530918 
L 201.925979 175.530918 
L 201.974963 174.821647 
L 202.08645 174.821647 
L 202.183462 173.403106 
L 202.386256 173.403106 
L 202.386256 173.048471 
L 202.617304 173.048471 
L 202.624057 172.3392 
L 202.842213 172.3392 
L 202.932093 171.275294 
L 203.028155 171.275294 
L 203.117154 170.211388 
L 203.169695 170.211388 
L 203.169695 169.856753 
L 203.297154 169.856753 
L 203.316687 169.147482 
L 203.571993 169.147482 
L 203.632882 168.438212 
L 203.699952 168.438212 
L 203.757251 167.728941 
L 203.827047 167.728941 
L 203.874487 166.665035 
L 204.106789 166.665035 
L 204.106789 166.3104 
L 204.228074 166.3104 
L 204.32701 164.891859 
L 204.357821 164.891859 
L 204.357821 164.537224 
L 204.520281 164.537224 
L 204.520281 164.182588 
L 204.69345 164.182588 
L 204.753836 162.764047 
L 204.906947 162.764047 
L 204.942793 161.345506 
L 205.12396 161.345506 
L 205.126915 160.636235 
L 205.238881 160.636235 
L 205.318032 159.572329 
L 205.611197 159.572329 
L 205.611197 159.217694 
L 205.780362 159.217694 
L 205.862956 158.153788 
L 205.897027 158.153788 
L 205.897027 157.799153 
L 206.046775 157.799153 
L 206.046775 157.444518 
L 206.178579 157.444518 
L 206.265012 156.025976 
L 206.370422 156.025976 
L 206.475245 154.2528 
L 206.740201 154.2528 
L 206.797074 153.188894 
L 206.856472 153.188894 
L 206.953266 151.415718 
L 207.105511 151.415718 
L 207.182499 150.706447 
L 207.335536 150.706447 
L 207.403737 149.642541 
L 207.547198 149.642541 
L 207.604277 148.933271 
L 207.800139 148.933271 
L 207.894759 147.869365 
L 207.940619 147.869365 
L 207.948252 147.160094 
L 208.052253 147.160094 
L 208.062369 146.096188 
L 208.348406 146.096188 
L 208.422961 145.032282 
L 208.487338 145.032282 
L 208.534243 143.968376 
L 208.610523 143.968376 
L 208.649772 143.259106 
L 208.827816 143.259106 
L 208.936736 142.549835 
L 208.958444 142.549835 
L 208.958444 142.1952 
L 209.157472 142.1952 
L 209.169395 141.485929 
L 209.290576 141.485929 
L 209.356777 140.422024 
L 209.408628 140.422024 
L 209.511905 139.003482 
L 209.528283 139.003482 
L 209.607632 137.939576 
L 209.670407 137.939576 
L 209.746849 137.230306 
L 209.921723 137.230306 
L 209.962904 136.521035 
L 210.1878 136.521035 
L 210.230656 135.457129 
L 210.396645 135.457129 
L 210.396645 135.102494 
L 210.539031 135.102494 
L 210.539031 134.393224 
L 210.759374 134.393224 
L 210.833706 133.329318 
L 211.031222 133.329318 
L 211.115241 132.265412 
L 211.222411 132.265412 
L 211.222411 131.910776 
L 211.46028 131.910776 
L 211.46028 131.556141 
L 211.642999 131.556141 
L 211.642999 131.201506 
L 211.871512 131.201506 
L 211.968309 129.428329 
L 212.213215 129.428329 
L 212.286069 128.364424 
L 212.642204 128.364424 
L 212.693663 127.655153 
L 212.762715 127.655153 
L 212.762715 127.300518 
L 212.876588 127.300518 
L 212.966413 126.236612 
L 213.001446 126.236612 
L 213.092614 125.172706 
L 213.164074 125.172706 
L 213.239105 124.463435 
L 213.504115 124.463435 
L 213.543829 123.044894 
L 213.67561 123.044894 
L 213.67561 122.690259 
L 213.988166 122.690259 
L 214.0655 121.980988 
L 214.144348 121.980988 
L 214.231975 120.917082 
L 214.255638 120.917082 
L 214.348181 120.207812 
L 214.481654 120.207812 
L 214.565938 119.498541 
L 214.635591 119.498541 
L 214.720965 117.370729 
L 214.867682 117.370729 
L 214.876484 116.661459 
L 215.041199 116.661459 
L 215.041199 116.306824 
L 215.218316 116.306824 
L 215.244222 115.597553 
L 215.45532 115.597553 
L 215.528563 114.888282 
L 215.711275 114.888282 
L 215.817043 112.760471 
L 216.066504 112.760471 
L 216.15715 111.341929 
L 216.258812 111.341929 
L 216.332257 110.278024 
L 216.656853 110.278024 
L 216.690445 109.214118 
L 216.770185 109.214118 
L 216.870179 107.795576 
L 217.021537 107.795576 
L 217.113958 106.0224 
L 217.331462 106.0224 
L 217.377744 105.313129 
L 217.483764 105.313129 
L 217.584618 104.249224 
L 217.65611 104.249224 
L 217.65611 103.185318 
L 217.837421 103.185318 
L 217.945374 102.476047 
L 217.966293 102.476047 
L 218.070541 101.412141 
L 218.113561 101.412141 
L 218.202257 100.702871 
L 218.311075 100.702871 
L 218.407601 99.9936 
L 218.568831 99.9936 
L 218.669802 99.284329 
L 218.715781 99.284329 
L 218.741594 98.575059 
L 219.021817 98.575059 
L 219.021817 98.220424 
L 219.225437 98.220424 
L 219.225437 97.865788 
L 219.41582 97.865788 
L 219.488957 96.801882 
L 219.628918 96.801882 
L 219.628918 96.447247 
L 219.866646 96.447247 
L 219.894973 95.737976 
L 220.011874 95.737976 
L 220.011874 95.383341 
L 220.214387 95.383341 
L 220.214387 95.028706 
L 220.485411 95.028706 
L 220.567524 94.319435 
L 220.857891 94.319435 
L 220.917984 93.255529 
L 221.297096 93.255529 
L 221.297096 92.900894 
L 221.551831 92.900894 
L 221.615902 92.191624 
L 221.805598 92.191624 
L 221.822638 91.482353 
L 221.929394 91.482353 
L 221.929394 91.127718 
L 222.19605 91.127718 
L 222.19605 90.773082 
L 222.477788 90.773082 
L 222.477788 90.418447 
L 222.594918 90.418447 
L 222.698553 89.709176 
L 222.733358 89.709176 
L 222.733358 89.354541 
L 222.984359 89.354541 
L 222.984359 88.999906 
L 223.321017 88.999906 
L 223.321017 88.645271 
L 223.538824 88.645271 
L 223.538824 88.290635 
L 224.175361 88.290635 
L 224.233245 87.581365 
L 224.350607 87.581365 
L 224.441856 86.872094 
L 224.67538 86.872094 
L 224.67538 86.517459 
L 225.216364 86.517459 
L 225.216364 86.162824 
L 225.47462 86.162824 
L 225.47462 85.808188 
L 226.147745 85.808188 
L 226.147745 85.453553 
L 226.423163 85.453553 
L 226.423163 85.098918 
L 226.671117 85.098918 
L 226.671117 84.744282 
L 228.986766 84.744282 
L 228.986766 84.389647 
L 229.16053 84.389647 
L 229.163001 83.680376 
L 229.302483 83.680376 
L 229.302483 83.325741 
L 229.550974 83.325741 
L 229.550974 82.971106 
L 229.668389 82.971106 
L 229.776308 82.261835 
L 229.869341 82.261835 
L 229.957968 81.197929 
L 230.112852 81.197929 
L 230.112852 80.843294 
L 230.234602 80.843294 
L 230.240047 80.134024 
L 230.426546 80.134024 
L 230.434245 79.424753 
L 230.560058 79.424753 
L 230.560058 79.070118 
L 230.671358 79.070118 
L 230.778224 78.006212 
L 230.804658 78.006212 
L 230.808431 76.942306 
L 230.920526 76.942306 
L 230.920526 76.587671 
L 231.154588 76.587671 
L 231.198983 75.169129 
L 231.44714 75.169129 
L 231.533736 73.750588 
L 231.669735 73.750588 
L 231.778977 72.686682 
L 231.986365 72.686682 
L 231.986365 72.332047 
L 232.132509 72.332047 
L 232.14938 71.268141 
L 232.385388 71.268141 
L 232.443584 70.558871 
L 232.496773 70.558871 
L 232.574558 69.494965 
L 232.6171 69.494965 
L 232.704626 68.431059 
L 232.744152 68.431059 
L 232.780878 67.367153 
L 232.979583 67.367153 
L 233.023903 66.303247 
L 233.220071 66.303247 
L 233.2817 64.530071 
L 233.38989 64.530071 
L 233.497462 63.466165 
L 233.659621 63.466165 
L 233.659621 62.756894 
L 233.991912 62.756894 
L 234.091669 61.692988 
L 234.169455 61.692988 
L 234.270161 59.919812 
L 234.418971 59.919812 
L 234.50162 58.146635 
L 234.640002 58.146635 
L 234.720462 56.373459 
L 234.78104 56.373459 
L 234.78104 56.018824 
L 235.04312 56.018824 
L 235.146459 54.600282 
L 235.373365 54.600282 
L 235.43365 53.891012 
L 235.498448 53.891012 
L 235.507266 53.181741 
L 235.632632 53.181741 
L 235.711291 52.472471 
L 235.849744 52.472471 
L 235.949331 51.053929 
L 236.029537 51.053929 
L 236.092887 50.344659 
L 236.27264 50.344659 
L 236.27264 49.990024 
L 236.460752 49.990024 
L 236.460752 49.635388 
L 236.62652 49.635388 
L 236.62652 49.280753 
L 236.871373 49.280753 
L 236.905781 48.571482 
L 237.028157 48.571482 
L 237.028157 48.216847 
L 237.325056 48.216847 
L 237.325056 47.862212 
L 237.783164 47.862212 
L 237.845038 47.152941 
L 237.95786 47.152941 
L 237.95786 46.798306 
L 238.53157 46.798306 
L 238.53157 46.443671 
L 239.45114 46.443671 
L 239.45114 45.7344 
L 241.268775 45.7344 
L 241.268775 45.379765 
L 241.817173 45.379765 
L 241.817173 45.025129 
L 242.321415 45.025129 
L 242.351669 44.315859 
L 242.55563 44.315859 
L 242.648747 43.251953 
L 242.726594 43.251953 
L 242.816878 42.542682 
L 242.878548 42.542682 
L 242.919418 41.833412 
L 243.121269 41.833412 
L 243.223338 40.414871 
L 244.237234 40.414871 
L 244.343731 39.7056 
L 244.361728 39.7056 
L 244.421837 38.996329 
L 244.649892 38.996329 
L 244.649892 38.641694 
L 244.785697 38.641694 
L 244.828719 37.932424 
L 245.11763 37.932424 
L 245.11763 37.577788 
L 245.712222 37.577788 
L 245.712222 36.868518 
L 246.07565 36.868518 
L 246.115489 36.159247 
L 246.866156 36.159247 
L 246.866156 35.449976 
L 248.628697 35.449976 
L 248.701707 34.740706 
L 249.217474 34.740706 
L 249.217474 34.386071 
L 249.358456 34.386071 
L 249.442149 33.6768 
L 249.58786 33.6768 
L 249.67663 32.612894 
L 249.69931 32.612894 
L 249.69931 32.258259 
L 250.009914 32.258259 
L 250.009914 31.903624 
L 250.342739 31.903624 
L 250.393158 31.194353 
L 250.620886 31.194353 
L 250.620886 30.839718 
L 250.948081 30.839718 
L 250.948081 30.485082 
L 252.015019 30.485082 
L 252.015019 30.130447 
L 252.621046 30.130447 
L 252.621046 29.775812 
L 255.259562 29.775812 
L 255.259562 29.421176 
L 255.415236 29.421176 
L 255.415236 29.066541 
L 256.666198 29.066541 
L 256.666198 28.711906 
L 258.286396 28.711906 
L 258.286396 28.357271 
L 259.164944 28.357271 
L 259.164944 28.002635 
L 271.009876 28.002635 
L 271.009876 27.648 
L 360.8064 27.648 
L 360.8064 27.648 
" style="fill:none;stroke:#000080;stroke-linecap:square;stroke-width:1.5;"/>
   </g>
   <g id="line2d_36">
    <defs>
     <path d="M 0 6 
C 1.591219 6 3.117479 5.367802 4.242641 4.242641 
C 5.367802 3.117479 6 1.591219 6 0 
C 6 -1.591219 5.367802 -3.117479 4.242641 -4.242641 
C 3.117479 -5.367802 1.591219 -6 0 -6 
C -1.591219 -6 -3.117479 -5.367802 -4.242641 -4.242641 
C -5.367802 -3.117479 -6 -1.591219 -6 0 
C -6 1.591219 -5.367802 3.117479 -4.242641 4.242641 
C -3.117479 5.367802 -1.591219 6 0 6 
z
" id="m1242eab84a" style="stroke:#000080;stroke-width:1.5;"/>
    </defs>
    <g>
     <use style="fill-opacity:0;stroke:#000080;stroke-width:1.5;" x="174.930512" xlink:href="#m1242eab84a" y="252.486776"/>
     <use style="fill-opacity:0;stroke:#000080;stroke-width:1.5;" x="211.871512" xlink:href="#m1242eab84a" y="131.201506"/>
     <use style="fill-opacity:0;stroke:#000080;stroke-width:1.5;" x="271.009876" xlink:href="#m1242eab84a" y="28.002635"/>
     <use style="fill-opacity:0;stroke:#000080;stroke-width:1.5;" x="271.009876" xlink:href="#m1242eab84a" y="27.648"/>
     <use style="fill-opacity:0;stroke:#000080;stroke-width:1.5;" x="360.8064" xlink:href="#m1242eab84a" y="27.648"/>
    </g>
   </g>
   <g id="line2d_37">
    <path style="fill:none;stroke:#000080;stroke-linecap:square;stroke-width:1.5;"/>
    <g/>
   </g>
   <g id="line2d_38">
    <path clip-path="url(#p74eab7b7e0)" d="M 226.672527 84.744282 
" style="fill:none;stroke:#000080;stroke-linecap:square;stroke-width:1.5;"/>
    <defs>
     <path d="M -12 12 
L 12 -12 
M -12 -12 
L 12 12 
" id="maf2df9adc6" style="stroke:#000080;"/>
    </defs>
    <g clip-path="url(#p74eab7b7e0)">
     <use style="fill:#000080;stroke:#000080;" x="226.672527" xlink:href="#maf2df9adc6" y="84.744282"/>
    </g>
   </g>
   <g id="line2d_39">
    <defs>
     <path d="M 0 1.5 
C 0.397805 1.5 0.77937 1.341951 1.06066 1.06066 
C 1.341951 0.77937 1.5 0.397805 1.5 0 
C 1.5 -0.397805 1.341951 -0.77937 1.06066 -1.06066 
C 0.77937 -1.341951 0.397805 -1.5 0 -1.5 
C -0.397805 -1.5 -0.77937 -1.341951 -1.06066 -1.06066 
C -1.341951 -0.77937 -1.5 -0.397805 -1.5 0 
C -1.5 0.397805 -1.341951 0.77937 -1.06066 1.06066 
C -0.77937 1.341951 -0.397805 1.5 0 1.5 
z
" id="m7ee63efefe" style="stroke:#ff00ff;"/>
    </defs>
    <g>
     <use style="fill:#ff00ff;stroke:#ff00ff;" x="187.762558" xlink:href="#m7ee63efefe" y="27.648"/>
     <use style="fill:#ff00ff;stroke:#ff00ff;" x="187.762558" xlink:href="#m7ee63efefe" y="27.648"/>
    </g>
   </g>
   <g id="line2d_40">
    <path d="M 57.6 298.944 
L 57.6 298.589365 
L 63.929565 298.589365 
L 63.929565 296.816188 
L 72.432107 296.816188 
L 72.432107 296.106918 
L 80.621116 296.106918 
L 80.621116 295.752282 
L 91.922605 295.752282 
L 91.922605 295.397647 
L 93.098709 295.397647 
L 93.098709 295.043012 
L 96.241256 295.043012 
L 96.241256 294.688376 
L 97.18203 294.688376 
L 97.18203 294.333741 
L 98.510456 294.333741 
L 98.510456 291.851294 
L 98.933205 291.851294 
L 98.933205 291.496659 
L 100.147275 291.496659 
L 100.147275 291.142024 
L 101.653002 291.142024 
L 101.653002 290.432753 
L 102.011329 290.432753 
L 102.011329 290.078118 
L 106.42077 290.078118 
L 106.42077 289.014212 
L 106.974091 289.014212 
L 106.974091 288.659576 
L 109.280431 288.659576 
L 109.280431 288.304941 
L 109.990385 288.304941 
L 109.990385 287.595671 
L 110.221204 287.595671 
L 110.221204 286.8864 
L 111.762192 286.8864 
L 111.762192 286.177129 
L 115.402131 286.177129 
L 115.402131 285.822494 
L 116.086263 285.822494 
L 116.086263 285.467859 
L 116.583514 285.467859 
L 116.583514 285.113224 
L 117.067958 285.113224 
L 117.067958 284.758588 
L 117.848632 284.758588 
L 117.848632 284.403953 
L 119.876453 284.403953 
L 119.876453 284.049318 
L 120.41783 284.049318 
L 120.41783 283.694682 
L 120.813877 283.694682 
L 120.813877 283.340047 
L 121.830966 283.340047 
L 121.830966 282.630776 
L 121.954321 282.630776 
L 121.954321 282.276141 
L 122.19863 282.276141 
L 122.19863 281.566871 
L 122.319605 281.566871 
L 122.319605 281.212235 
L 123.260379 281.212235 
L 123.260379 280.8576 
L 124.046648 280.8576 
L 124.046648 279.793694 
L 124.801367 279.793694 
L 124.906754 279.084424 
L 125.011554 279.084424 
L 125.011554 278.729788 
L 125.322496 278.729788 
L 125.425011 277.311247 
L 125.526971 277.311247 
L 125.526971 276.956612 
L 125.829577 276.956612 
L 125.829577 276.601976 
L 126.323346 276.601976 
L 126.323346 276.247341 
L 127.087372 276.247341 
L 127.087372 275.892706 
L 127.273627 275.892706 
L 127.273627 275.538071 
L 128.000734 275.538071 
L 128.089678 274.8288 
L 128.354013 274.8288 
L 128.354013 274.474165 
L 128.528195 274.474165 
L 128.528195 273.410259 
L 128.700779 273.410259 
L 128.700779 273.055624 
L 129.209231 273.055624 
L 129.292652 272.346353 
L 129.54072 272.346353 
L 129.54072 271.991718 
L 129.947033 271.991718 
L 129.947033 271.637082 
L 131.115828 271.637082 
L 131.191226 270.927812 
L 131.489828 270.927812 
L 131.563744 269.863906 
L 131.63737 269.863906 
L 131.63737 269.509271 
L 131.856536 269.509271 
L 131.856536 269.154635 
L 132.001241 269.154635 
L 132.001241 268.8 
L 132.216233 268.8 
L 132.287354 268.090729 
L 132.56918 268.090729 
L 132.56918 267.736094 
L 133.78762 267.736094 
L 133.78762 266.317553 
L 134.176839 266.317553 
L 134.176839 265.962918 
L 134.495147 265.962918 
L 134.495147 265.608282 
L 135.538796 265.608282 
L 135.538796 264.899012 
L 135.657857 264.899012 
L 135.657857 264.544376 
L 135.893741 264.544376 
L 135.893741 264.189741 
L 136.068734 264.189741 
L 136.126705 262.7712 
L 136.356818 262.7712 
L 136.356818 262.416565 
L 136.584151 262.416565 
L 136.584151 262.061929 
L 136.696795 262.061929 
L 136.752866 260.998024 
L 136.808769 260.998024 
L 136.808769 260.288753 
L 136.97549 260.288753 
L 137.085822 258.160941 
L 137.195511 258.160941 
L 137.195511 257.806306 
L 137.520791 257.806306 
L 137.520791 257.451671 
L 138.206842 257.451671 
L 138.258593 256.7424 
L 138.464186 256.7424 
L 138.566146 254.969224 
L 139.067817 254.969224 
L 139.067817 254.614588 
L 139.215746 254.614588 
L 139.215746 253.550682 
L 139.411192 253.550682 
L 139.411192 253.196047 
L 139.604629 253.196047 
L 139.604629 252.841412 
L 139.748412 252.841412 
L 139.748412 252.132141 
L 140.359078 252.132141 
L 140.359078 251.777506 
L 140.49723 251.777506 
L 140.49723 251.422871 
L 140.725251 251.422871 
L 140.725251 251.068235 
L 140.950542 251.068235 
L 140.950542 250.7136 
L 141.084433 250.7136 
L 141.084433 250.358965 
L 141.217377 250.358965 
L 141.305488 248.940424 
L 141.56737 248.940424 
L 141.56737 248.585788 
L 141.782854 248.585788 
L 141.868361 247.876518 
L 141.953481 247.876518 
L 141.953481 247.521882 
L 142.164612 247.521882 
L 142.164612 247.167247 
L 142.290162 247.167247 
L 142.373399 246.103341 
L 142.579895 246.103341 
L 142.661862 244.6848 
L 143.02636 244.6848 
L 143.10641 243.620894 
L 143.18612 243.620894 
L 143.18612 243.266259 
L 143.657415 243.266259 
L 143.657415 242.911624 
L 144.117191 242.911624 
L 144.117191 241.493082 
L 144.2304 241.493082 
L 144.2304 241.138447 
L 144.454795 241.138447 
L 144.454795 240.783812 
L 144.71325 240.783812 
L 144.822939 239.365271 
L 145.112353 239.365271 
L 145.219746 237.946729 
L 145.291002 237.946729 
L 145.397382 236.882824 
L 145.851536 236.882824 
L 145.851536 236.173553 
L 146.193574 236.173553 
L 146.261241 235.464282 
L 146.529503 235.464282 
L 146.629123 234.400376 
L 146.761135 234.400376 
L 146.761135 234.045741 
L 147.119461 234.045741 
L 147.119461 233.691106 
L 147.375841 233.691106 
L 147.375841 233.336471 
L 147.502732 233.336471 
L 147.502732 232.981835 
L 147.753975 232.981835 
L 147.785146 232.272565 
L 147.878349 232.272565 
L 147.878349 231.917929 
L 148.063382 231.917929 
L 148.063382 231.563294 
L 148.246613 231.563294 
L 148.276979 230.854024 
L 148.397954 230.854024 
L 148.428077 229.435482 
L 148.518156 229.435482 
L 148.607806 228.726212 
L 148.667336 228.726212 
L 148.667336 228.371576 
L 148.815343 228.371576 
L 148.815343 228.016941 
L 148.962194 228.016941 
L 148.962194 227.662306 
L 149.395993 227.662306 
L 149.481565 226.243765 
L 149.510002 226.243765 
L 149.538397 225.179859 
L 149.65155 225.179859 
L 149.73597 224.115953 
L 149.820013 224.115953 
L 149.875833 223.052047 
L 150.042308 223.052047 
L 150.042308 222.697412 
L 150.343738 222.697412 
L 150.398028 221.278871 
L 150.667154 221.278871 
L 150.667154 220.924235 
L 151.142085 220.924235 
L 151.194122 219.860329 
L 151.297768 219.860329 
L 151.297768 219.505694 
L 151.50336 219.505694 
L 151.60532 217.023247 
L 151.630724 217.023247 
L 151.630724 216.668612 
L 151.807597 216.668612 
L 151.807597 215.959341 
L 151.932924 215.959341 
L 151.982822 215.250071 
L 152.279463 215.250071 
L 152.352898 213.476894 
L 152.474656 213.476894 
L 152.523139 212.767624 
L 152.595631 212.767624 
L 152.667844 211.703718 
L 152.763699 211.703718 
L 152.763699 210.994447 
L 152.882835 210.994447 
L 152.977604 209.930541 
L 153.071898 209.930541 
L 153.071898 209.575906 
L 153.189104 209.575906 
L 153.189104 209.221271 
L 153.328795 209.221271 
L 153.375128 208.512 
L 153.467455 208.512 
L 153.490466 207.093459 
L 153.650761 207.093459 
L 153.650761 205.674918 
L 153.764426 205.674918 
L 153.854866 204.965647 
L 153.899924 204.965647 
L 153.967309 203.547106 
L 154.056781 203.547106 
L 154.14583 202.4832 
L 154.190197 202.4832 
L 154.300658 201.773929 
L 154.388563 201.773929 
L 154.454223 200.355388 
L 154.584859 200.355388 
L 154.671449 198.582212 
L 154.73613 198.582212 
L 154.843441 196.809035 
L 154.86483 196.809035 
L 154.86483 196.4544 
L 155.161749 196.4544 
L 155.22477 195.745129 
L 155.329337 195.745129 
L 155.329337 195.035859 
L 155.536743 195.035859 
L 155.598521 193.262682 
L 155.680579 193.262682 
L 155.680579 192.553412 
L 155.823323 192.553412 
L 155.924624 190.4256 
L 155.944819 190.4256 
L 156.045469 189.716329 
L 156.065535 189.716329 
L 156.105602 189.007059 
L 156.205398 189.007059 
L 156.304668 187.233882 
L 156.34423 187.233882 
L 156.383708 186.169976 
L 156.482044 186.169976 
L 156.540799 185.460706 
L 156.599372 185.460706 
L 156.677186 184.3968 
L 156.75468 184.3968 
L 156.75468 184.042165 
L 156.927882 184.042165 
L 157.023421 182.268988 
L 157.099504 182.268988 
L 157.175281 180.850447 
L 157.231914 180.850447 
L 157.288377 180.141176 
L 157.344671 180.141176 
L 157.344671 179.431906 
L 157.475372 179.431906 
L 157.475372 178.722635 
L 157.605171 178.722635 
L 157.715719 174.467012 
L 157.789059 174.467012 
L 157.825621 173.403106 
L 157.916719 173.403106 
L 157.971166 171.984565 
L 158.061563 171.984565 
L 158.169469 170.211388 
L 158.436556 170.211388 
L 158.436556 169.856753 
L 158.665004 169.856753 
L 158.752135 167.374306 
L 158.856162 167.374306 
L 158.873444 166.665035 
L 158.976805 166.665035 
L 158.976805 166.3104 
L 159.130788 166.3104 
L 159.14782 165.601129 
L 159.317295 165.601129 
L 159.351007 164.891859 
L 159.568678 164.891859 
L 159.668298 162.764047 
L 159.701388 162.764047 
L 159.800309 161.345506 
L 159.816746 161.345506 
L 159.898714 160.2816 
L 159.931401 160.2816 
L 160.029123 157.799153 
L 160.093991 157.799153 
L 160.174762 157.089882 
L 160.223059 157.089882 
L 160.255188 156.025976 
L 160.367209 156.025976 
L 160.367209 155.671341 
L 160.478568 155.671341 
L 160.526092 153.898165 
L 160.620781 153.898165 
L 160.620781 153.543529 
L 160.746296 153.543529 
L 160.793149 152.479624 
L 160.902022 152.479624 
L 160.979404 150.706447 
L 161.102557 150.706447 
L 161.163832 149.997176 
L 161.240147 149.997176 
L 161.34647 148.578635 
L 161.36161 148.578635 
L 161.467251 146.805459 
L 161.527352 146.805459 
L 161.587261 144.677647 
L 161.751035 144.677647 
L 161.825009 143.613741 
L 161.898693 143.613741 
L 161.97209 141.840565 
L 162.015991 141.840565 
L 162.11803 140.067388 
L 162.147083 140.067388 
L 162.17609 139.003482 
L 162.277267 139.003482 
L 162.306075 138.294212 
L 162.392235 138.294212 
L 162.420867 137.584941 
L 162.520739 137.584941 
L 162.620084 136.1664 
L 162.676617 136.1664 
L 162.761101 134.747859 
L 162.789177 134.747859 
L 162.831214 134.038588 
L 162.901068 134.038588 
L 162.984551 133.329318 
L 163.012297 133.329318 
L 163.122872 130.846871 
L 163.136649 130.846871 
L 163.232801 128.719059 
L 163.260183 128.719059 
L 163.355708 126.236612 
L 163.3965 126.236612 
L 163.504846 124.1088 
L 163.531835 124.1088 
L 163.585698 123.044894 
L 163.679588 123.044894 
L 163.759694 121.271718 
L 163.852722 121.271718 
L 163.945293 119.498541 
L 163.997986 119.498541 
L 164.07675 118.789271 
L 164.129077 118.789271 
L 164.207296 117.725365 
L 164.272231 117.725365 
L 164.349858 116.661459 
L 164.491347 116.661459 
L 164.580835 115.597553 
L 164.63178 115.597553 
L 164.733259 113.115106 
L 164.796406 113.115106 
L 164.871904 109.923388 
L 164.922068 109.923388 
L 164.959603 108.859482 
L 165.046896 108.859482 
L 165.133786 106.377035 
L 165.269521 106.377035 
L 165.367626 104.603859 
L 165.428682 104.603859 
L 165.538087 103.185318 
L 165.658907 103.185318 
L 165.743021 101.412141 
L 165.850619 101.412141 
L 165.957604 100.348235 
L 165.969454 100.348235 
L 166.040396 99.638965 
L 166.111072 99.638965 
L 166.111072 99.284329 
L 166.239959 99.284329 
L 166.298254 98.220424 
L 166.39115 98.220424 
L 166.483591 97.156518 
L 166.529641 97.156518 
L 166.621405 96.092612 
L 166.644276 96.092612 
L 166.689935 95.028706 
L 166.814929 95.028706 
L 166.916583 93.9648 
L 167.240447 93.9648 
L 167.339833 93.255529 
L 167.656552 93.255529 
L 167.689013 92.546259 
L 167.775305 92.546259 
L 167.882616 91.482353 
L 167.936043 91.482353 
L 167.989318 90.773082 
L 168.169334 90.773082 
L 168.242961 89.709176 
L 168.326754 89.709176 
L 168.420577 88.290635 
L 168.441364 88.290635 
L 168.493229 87.581365 
L 168.555279 87.581365 
L 168.627414 86.517459 
L 168.678769 86.517459 
L 168.781062 84.744282 
L 168.79126 84.744282 
L 168.862497 84.035012 
L 168.903083 84.035012 
L 168.994082 82.971106 
L 169.124754 82.971106 
L 169.214689 81.9072 
L 169.264469 81.9072 
L 169.333939 80.843294 
L 169.472115 80.843294 
L 169.491772 79.779388 
L 169.638546 79.779388 
L 169.726065 78.006212 
L 169.822832 78.006212 
L 169.87103 76.942306 
L 169.9383 76.942306 
L 169.967056 76.233035 
L 170.062595 76.233035 
L 170.110183 75.169129 
L 170.421281 75.169129 
L 170.458643 74.105224 
L 170.542436 74.105224 
L 170.579558 73.395953 
L 170.782429 73.395953 
L 170.892171 72.332047 
L 170.919507 72.332047 
L 171.0194 70.558871 
L 171.073664 70.558871 
L 171.127772 68.785694 
L 171.208643 68.785694 
L 171.315934 67.721788 
L 171.360458 67.721788 
L 171.458043 66.657882 
L 171.475731 66.657882 
L 171.502232 65.239341 
L 171.852062 65.239341 
L 171.921254 64.530071 
L 172.015979 64.530071 
L 172.084572 63.466165 
L 172.246485 63.466165 
L 172.246485 63.111529 
L 172.449034 63.111529 
L 172.449034 62.402259 
L 172.724025 62.402259 
L 172.814802 61.338353 
L 172.872342 61.338353 
L 172.872342 60.983718 
L 173.076419 60.983718 
L 173.076419 60.629082 
L 173.213936 60.629082 
L 173.213936 59.919812 
L 173.438268 59.919812 
L 173.485993 59.210541 
L 173.620559 59.210541 
L 173.675691 58.146635 
L 173.847916 58.146635 
L 173.847916 57.792 
L 174.026299 57.792 
L 174.080256 56.373459 
L 174.324962 56.373459 
L 174.431028 54.954918 
L 174.528986 54.954918 
L 174.528986 54.600282 
L 174.656319 54.600282 
L 174.738254 53.536376 
L 174.937868 53.536376 
L 175.047856 52.472471 
L 175.236991 52.472471 
L 175.316441 51.7632 
L 175.460042 51.7632 
L 175.467193 51.053929 
L 175.588351 51.053929 
L 175.623838 49.635388 
L 175.708734 49.635388 
L 175.807298 48.571482 
L 175.919314 48.571482 
L 175.995939 47.862212 
L 176.051472 47.862212 
L 176.086096 47.152941 
L 176.203345 47.152941 
L 176.237692 46.443671 
L 176.550771 46.443671 
L 176.591226 45.7344 
L 176.792206 45.7344 
L 176.878635 45.025129 
L 176.911772 45.025129 
L 176.911772 44.670494 
L 177.194361 44.670494 
L 177.278966 43.606588 
L 177.350259 43.606588 
L 177.350259 43.251953 
L 177.504875 43.251953 
L 177.549733 42.542682 
L 177.626385 42.542682 
L 177.696375 41.478776 
L 177.759778 41.478776 
L 177.810347 40.769506 
L 178.03 40.769506 
L 178.03 40.414871 
L 178.253286 40.414871 
L 178.351679 39.350965 
L 178.370071 39.350965 
L 178.370071 38.996329 
L 178.565137 38.996329 
L 178.667949 37.932424 
L 178.925523 37.932424 
L 179.014551 37.223153 
L 179.109051 37.223153 
L 179.109051 36.868518 
L 179.26161 36.868518 
L 179.26161 36.513882 
L 179.522765 36.513882 
L 179.522765 36.159247 
L 179.734809 36.159247 
L 179.734809 35.804612 
L 180.023223 35.804612 
L 180.023223 35.449976 
L 180.13513 35.449976 
L 180.13513 35.095341 
L 180.846737 35.095341 
L 180.889661 34.386071 
L 181.150457 34.386071 
L 181.150457 34.031435 
L 181.470148 34.031435 
L 181.470148 33.6768 
L 181.697418 33.6768 
L 181.697418 33.322165 
L 181.992867 33.322165 
L 182.068527 32.612894 
L 182.486689 32.612894 
L 182.486689 32.258259 
L 182.852352 32.258259 
L 182.852352 31.903624 
L 183.60482 31.903624 
L 183.669656 31.194353 
L 183.972335 31.194353 
L 184.008694 30.485082 
L 184.417413 30.485082 
L 184.417413 30.130447 
L 184.54582 30.130447 
L 184.54582 29.775812 
L 184.743353 29.775812 
L 184.743353 29.421176 
L 184.934511 29.421176 
L 184.934511 29.066541 
L 186.143988 29.066541 
L 186.143988 28.711906 
L 186.832462 28.711906 
L 186.832462 28.357271 
L 187.560643 28.357271 
L 187.560643 28.002635 
L 187.762558 28.002635 
L 187.762558 27.648 
L 360.8064 27.648 
L 360.8064 27.648 
" style="fill:none;stroke:#ff00ff;stroke-linecap:square;stroke-width:1.5;"/>
   </g>
   <g id="line2d_41">
    <defs>
     <path d="M -0 8.485281 
L 5.091169 0 
L 0 -8.485281 
L -5.091169 -0 
z
" id="me892dae08c" style="stroke:#ff00ff;stroke-linejoin:miter;stroke-width:1.5;"/>
    </defs>
    <g>
     <use style="fill-opacity:0;stroke:#ff00ff;stroke-linejoin:miter;stroke-width:1.5;" x="156.065535" xlink:href="#me892dae08c" y="189.716329"/>
     <use style="fill-opacity:0;stroke:#ff00ff;stroke-linejoin:miter;stroke-width:1.5;" x="187.762558" xlink:href="#me892dae08c" y="28.002635"/>
     <use style="fill-opacity:0;stroke:#ff00ff;stroke-linejoin:miter;stroke-width:1.5;" x="187.762558" xlink:href="#me892dae08c" y="27.648"/>
     <use style="fill-opacity:0;stroke:#ff00ff;stroke-linejoin:miter;stroke-width:1.5;" x="187.762558" xlink:href="#me892dae08c" y="27.648"/>
     <use style="fill-opacity:0;stroke:#ff00ff;stroke-linejoin:miter;stroke-width:1.5;" x="360.8064" xlink:href="#me892dae08c" y="27.648"/>
    </g>
   </g>
   <g id="line2d_42">
    <path style="fill:none;stroke:#ff00ff;stroke-linecap:square;stroke-width:1.5;"/>
    <g/>
   </g>
   <g id="line2d_43">
    <path clip-path="url(#p74eab7b7e0)" d="M 145.112353 238.656 
" style="fill:none;stroke:#ff00ff;stroke-linecap:square;stroke-width:1.5;"/>
    <defs>
     <path d="M -12 12 
L 12 -12 
M -12 -12 
L 12 12 
" id="m67176c313d" style="stroke:#ff00ff;"/>
    </defs>
    <g clip-path="url(#p74eab7b7e0)">
     <use style="fill:#ff00ff;stroke:#ff00ff;" x="145.112353" xlink:href="#m67176c313d" y="238.656"/>
    </g>
   </g>
   <g id="line2d_44">
    <defs>
     <path d="M 0 1.5 
C 0.397805 1.5 0.77937 1.341951 1.06066 1.06066 
C 1.341951 0.77937 1.5 0.397805 1.5 0 
C 1.5 -0.397805 1.341951 -0.77937 1.06066 -1.06066 
C 0.77937 -1.341951 0.397805 -1.5 0 -1.5 
C -0.397805 -1.5 -0.77937 -1.341951 -1.06066 -1.06066 
C -1.341951 -0.77937 -1.5 -0.397805 -1.5 0 
C -1.5 0.397805 -1.341951 0.77937 -1.06066 1.06066 
C -0.77937 1.341951 -0.397805 1.5 0 1.5 
z
" id="md273d0dd8c" style="stroke:#ff7500;"/>
    </defs>
    <g>
     <use style="fill:#ff7500;stroke:#ff7500;" x="196.186156" xlink:href="#md273d0dd8c" y="27.648"/>
     <use style="fill:#ff7500;stroke:#ff7500;" x="196.186156" xlink:href="#md273d0dd8c" y="27.648"/>
    </g>
   </g>
   <g id="line2d_45">
    <path d="M 27.323974 298.944 
L 27.323974 298.589365 
L 75.574654 298.589365 
L 75.574654 298.234729 
L 116.583514 298.234729 
L 116.583514 297.880094 
L 123.825333 297.880094 
L 123.936316 296.106918 
L 126.127391 296.106918 
L 126.127391 294.333741 
L 127.087372 294.333741 
L 127.18073 292.9152 
L 127.273627 292.9152 
L 127.273627 292.205929 
L 127.458055 292.205929 
L 127.458055 291.496659 
L 129.86647 291.496659 
L 129.947033 289.014212 
L 131.115828 289.014212 
L 131.115828 287.595671 
L 134.240933 287.595671 
L 134.240933 287.241035 
L 134.495147 287.241035 
L 134.558167 285.467859 
L 134.683578 285.467859 
L 134.683578 284.758588 
L 134.87014 284.758588 
L 134.87014 284.403953 
L 135.776169 284.403953 
L 135.776169 283.694682 
L 137.787626 283.694682 
L 137.787626 282.630776 
L 138.154948 282.630776 
L 138.154948 282.276141 
L 140.032723 282.276141 
L 140.032723 281.921506 
L 141.523975 281.921506 
L 141.523975 281.212235 
L 142.702713 281.212235 
L 142.702713 279.793694 
L 145.573357 279.793694 
L 145.573357 279.439059 
L 147.183884 279.439059 
L 147.183884 279.084424 
L 147.628773 279.084424 
L 147.628773 278.729788 
L 148.844805 278.729788 
L 148.844805 278.375153 
L 149.223672 278.375153 
L 149.223672 278.020518 
L 150.042308 278.020518 
L 150.124997 275.183435 
L 151.528902 275.183435 
L 151.528902 274.8288 
L 151.681429 274.8288 
L 151.681429 274.474165 
L 151.932924 274.474165 
L 151.982822 273.764894 
L 152.131727 273.764894 
L 152.131727 273.410259 
L 152.811444 273.410259 
L 152.906572 270.927812 
L 152.930279 270.927812 
L 152.953957 270.218541 
L 153.328795 270.218541 
L 153.328795 269.863906 
L 153.467455 269.863906 
L 153.467455 269.509271 
L 154.476059 269.509271 
L 154.476059 269.154635 
L 154.757642 269.154635 
L 154.843441 268.445365 
L 154.992656 268.445365 
L 155.013876 267.736094 
L 155.516105 267.736094 
L 155.516105 267.381459 
L 155.741887 267.381459 
L 155.741887 266.672188 
L 156.045469 266.672188 
L 156.125604 265.253647 
L 156.521235 265.253647 
L 156.521235 264.899012 
L 157.419468 264.899012 
L 157.419468 263.835106 
L 157.898535 263.835106 
L 157.98928 263.125835 
L 158.312387 263.125835 
L 158.312387 262.7712 
L 159.14782 262.7712 
L 159.14782 262.061929 
L 159.435025 262.061929 
L 159.435025 261.352659 
L 159.63515 261.352659 
L 159.63515 260.998024 
L 159.783859 260.998024 
L 159.882349 260.288753 
L 160.110173 260.288753 
L 160.158636 259.224847 
L 160.4627 259.224847 
L 160.4627 258.870212 
L 160.636516 258.870212 
L 160.636516 258.515576 
L 161.041081 258.515576 
L 161.148532 257.806306 
L 161.194395 257.806306 
L 161.194395 257.451671 
L 162.103487 257.451671 
L 162.147083 256.7424 
L 162.363559 256.7424 
L 162.363559 256.387765 
L 162.605924 256.387765 
L 162.605924 256.033129 
L 162.901068 256.033129 
L 162.998429 254.969224 
L 163.012297 254.969224 
L 163.095289 254.259953 
L 163.531835 254.259953 
L 163.639407 253.196047 
L 163.79962 253.196047 
L 163.839461 252.132141 
L 163.984826 252.132141 
L 163.984826 251.777506 
L 164.259262 251.777506 
L 164.324018 250.7136 
L 164.504157 250.7136 
L 164.504157 250.004329 
L 164.909539 250.004329 
L 164.934588 249.295059 
L 165.071763 249.295059 
L 165.121398 247.876518 
L 165.525963 247.876518 
L 165.598594 247.167247 
L 165.778956 247.167247 
L 165.778956 246.812612 
L 165.933882 246.812612 
L 165.933882 246.457976 
L 166.216591 246.457976 
L 166.263299 245.748706 
L 166.356368 245.748706 
L 166.356368 245.394071 
L 166.667119 245.394071 
L 166.678531 244.6848 
L 166.995269 244.6848 
L 166.995269 244.330165 
L 167.162782 244.330165 
L 167.162782 243.975529 
L 167.339833 243.975529 
L 167.339833 243.620894 
L 167.656552 243.620894 
L 167.678199 242.556988 
L 167.796816 242.556988 
L 167.861203 241.847718 
L 167.999955 241.847718 
L 168.084835 240.074541 
L 168.295375 240.074541 
L 168.378936 239.010635 
L 168.441364 239.010635 
L 168.503585 237.592094 
L 168.658244 237.592094 
L 168.740211 236.173553 
L 168.953693 236.173553 
L 169.024318 235.464282 
L 169.314117 235.464282 
L 169.363634 234.400376 
L 169.628797 234.400376 
L 169.687218 232.981835 
L 169.94789 232.981835 
L 170.053063 231.917929 
L 170.19554 231.917929 
L 170.261661 231.208659 
L 170.449309 231.208659 
L 170.458643 230.499388 
L 170.579558 230.499388 
L 170.653583 228.726212 
L 170.745706 228.726212 
L 170.846523 227.307671 
L 170.873925 227.307671 
L 170.964979 226.5984 
L 170.992209 226.5984 
L 170.992209 226.243765 
L 171.163758 226.243765 
L 171.181725 224.825224 
L 171.307016 224.825224 
L 171.396002 223.761318 
L 171.422616 223.761318 
L 171.475731 222.697412 
L 171.704179 222.697412 
L 171.73036 221.988141 
L 171.88669 221.988141 
L 171.981589 220.214965 
L 172.127316 220.214965 
L 172.237998 218.087153 
L 172.482581 218.087153 
L 172.524431 217.023247 
L 172.790088 217.023247 
L 172.839484 215.604706 
L 173.011355 215.604706 
L 173.092649 214.5408 
L 173.318423 214.5408 
L 173.318423 214.186165 
L 173.430302 214.186165 
L 173.501874 213.476894 
L 173.604778 213.476894 
L 173.652083 212.412988 
L 173.75417 212.412988 
L 173.75417 212.058353 
L 173.871279 212.058353 
L 173.956698 210.994447 
L 174.218295 210.994447 
L 174.324962 209.930541 
L 174.332558 209.930541 
L 174.340151 208.866635 
L 174.521469 208.866635 
L 174.626436 207.448094 
L 174.648853 207.448094 
L 174.73082 206.384188 
L 174.77538 206.384188 
L 174.886319 205.674918 
L 175.033228 205.674918 
L 175.047856 204.611012 
L 175.149934 204.611012 
L 175.215265 203.547106 
L 175.395557 203.547106 
L 175.502909 202.128565 
L 175.517176 202.128565 
L 175.616746 200.355388 
L 175.708734 200.355388 
L 175.708734 200.000753 
L 175.961148 200.000753 
L 176.051472 198.936847 
L 176.14826 198.936847 
L 176.237692 198.227576 
L 176.319868 198.227576 
L 176.319868 197.518306 
L 176.469599 197.518306 
L 176.537267 195.390494 
L 176.604692 195.390494 
L 176.638314 194.326588 
L 176.752182 194.326588 
L 176.825495 192.198776 
L 176.872001 192.198776 
L 176.898524 190.780235 
L 177.063452 190.780235 
L 177.122474 190.070965 
L 177.213919 190.070965 
L 177.213919 189.716329 
L 177.330842 189.716329 
L 177.434167 188.297788 
L 177.447043 188.297788 
L 177.517703 186.169976 
L 177.588098 186.169976 
L 177.588098 185.815341 
L 177.810347 185.815341 
L 177.904798 183.687529 
L 178.036239 183.687529 
L 178.104724 179.431906 
L 178.160572 179.431906 
L 178.253286 178.368 
L 178.351679 178.368 
L 178.382322 177.304094 
L 178.498311 177.304094 
L 178.534791 175.885553 
L 178.637769 175.885553 
L 178.680008 174.821647 
L 178.812146 174.821647 
L 178.859967 173.757741 
L 178.973057 173.757741 
L 179.002704 172.3392 
L 179.132603 172.3392 
L 179.214801 170.211388 
L 179.343247 170.211388 
L 179.441905 167.728941 
L 179.459261 167.728941 
L 179.476602 167.019671 
L 179.643407 167.019671 
L 179.6663 165.955765 
L 179.768971 165.955765 
L 179.820097 164.182588 
L 179.916291 164.182588 
L 179.94449 163.473318 
L 180.084854 163.473318 
L 180.157432 162.054776 
L 180.196396 162.054776 
L 180.301752 160.636235 
L 180.318334 160.636235 
L 180.379007 159.217694 
L 180.499771 159.217694 
L 180.499771 158.863059 
L 180.646928 158.863059 
L 180.706553 157.799153 
L 180.771383 157.799153 
L 180.825238 156.380612 
L 180.937834 156.380612 
L 181.001874 152.124988 
L 181.086922 152.124988 
L 181.129302 150.706447 
L 181.240098 150.706447 
L 181.339783 149.287906 
L 181.360702 149.287906 
L 181.44935 147.160094 
L 181.496113 147.160094 
L 181.511675 146.450824 
L 181.67173 146.450824 
L 181.697418 144.677647 
L 181.794715 144.677647 
L 181.886429 142.549835 
L 181.957455 142.549835 
L 182.018121 141.131294 
L 182.07356 141.131294 
L 182.173942 139.712753 
L 182.343372 139.712753 
L 182.363205 139.003482 
L 182.486689 139.003482 
L 182.491612 138.294212 
L 182.624036 138.294212 
L 182.721531 136.521035 
L 182.799165 136.521035 
L 182.862007 135.457129 
L 182.943869 135.457129 
L 182.943869 134.038588 
L 183.07793 134.038588 
L 183.168359 131.910776 
L 183.239445 131.910776 
L 183.258356 129.782965 
L 183.59554 129.782965 
L 183.70199 128.719059 
L 183.734269 128.719059 
L 183.807841 126.945882 
L 183.849099 126.945882 
L 183.954128 124.463435 
L 183.995068 124.463435 
L 184.07668 121.626353 
L 184.117353 121.626353 
L 184.162443 118.789271 
L 184.243334 118.789271 
L 184.346191 115.242918 
L 184.372931 115.242918 
L 184.372931 114.888282 
L 184.497217 114.888282 
L 184.589896 112.0512 
L 184.668973 112.0512 
L 184.704012 111.341929 
L 184.782612 111.341929 
L 184.88257 109.568753 
L 184.921539 109.568753 
L 184.921539 109.214118 
L 185.033667 109.214118 
L 185.132303 107.795576 
L 185.153678 107.795576 
L 185.226169 106.0224 
L 185.33227 106.0224 
L 185.395644 104.958494 
L 185.542692 104.958494 
L 185.647027 102.830682 
L 185.655349 102.830682 
L 185.763199 101.057506 
L 185.783869 101.057506 
L 185.783869 100.348235 
L 185.919723 100.348235 
L 185.989327 98.929694 
L 186.062746 98.929694 
L 186.156144 97.156518 
L 186.184478 97.156518 
L 186.253111 95.028706 
L 186.309445 95.028706 
L 186.409624 93.610165 
L 186.437579 93.610165 
L 186.513247 90.418447 
L 186.560881 90.418447 
L 186.671561 87.581365 
L 186.68732 87.581365 
L 186.722728 86.872094 
L 186.840276 86.872094 
L 186.94156 85.098918 
L 186.960975 85.098918 
L 187.065474 83.680376 
L 187.138663 83.680376 
L 187.242181 81.552565 
L 187.307069 81.552565 
L 187.37553 79.424753 
L 187.424819 79.424753 
L 187.496626 76.587671 
L 187.628189 76.587671 
L 187.699226 75.169129 
L 187.74023 75.169129 
L 187.840499 73.041318 
L 187.866408 73.041318 
L 187.940236 71.268141 
L 188.032117 71.268141 
L 188.061424 70.558871 
L 188.243567 70.558871 
L 188.344801 68.076424 
L 188.413188 68.076424 
L 188.524234 65.593976 
L 188.545651 65.593976 
L 188.616867 64.175435 
L 188.663013 64.175435 
L 188.754966 62.756894 
L 188.825395 62.756894 
L 188.920058 60.629082 
L 188.94103 60.629082 
L 189.049012 59.210541 
L 189.066371 59.210541 
L 189.118351 57.792 
L 189.208111 57.792 
L 189.273435 56.728094 
L 189.352209 56.728094 
L 189.461261 53.891012 
L 189.498603 53.891012 
L 189.552785 52.117835 
L 189.674129 52.117835 
L 189.744553 51.053929 
L 189.788017 51.053929 
L 189.87132 49.635388 
L 189.90122 49.635388 
L 189.987329 47.862212 
L 190.030236 47.862212 
L 190.128881 46.443671 
L 190.141995 46.443671 
L 190.243317 45.025129 
L 190.3019 45.025129 
L 190.3019 44.670494 
L 190.441113 44.670494 
L 190.511942 43.606588 
L 190.659184 43.606588 
L 190.745074 41.833412 
L 190.786289 41.833412 
L 190.855833 40.414871 
L 190.906249 40.414871 
L 190.953392 39.350965 
L 191.153218 39.350965 
L 191.202844 38.641694 
L 191.295543 38.641694 
L 191.406181 37.577788 
L 191.427619 37.577788 
L 191.503983 36.513882 
L 191.707124 36.513882 
L 191.707124 36.159247 
L 191.872257 36.159247 
L 191.872257 35.804612 
L 192.018164 35.804612 
L 192.018164 35.449976 
L 192.198237 35.449976 
L 192.292017 34.386071 
L 192.335815 34.386071 
L 192.423108 32.967529 
L 192.46081 32.967529 
L 192.46081 32.612894 
L 192.765433 32.612894 
L 192.765433 32.258259 
L 193.073618 32.258259 
L 193.160352 31.548988 
L 193.582667 31.548988 
L 193.618117 30.839718 
L 193.786272 30.839718 
L 193.888597 30.130447 
L 194.563807 30.130447 
L 194.600043 29.421176 
L 194.823672 29.421176 
L 194.823672 29.066541 
L 195.082515 29.066541 
L 195.082515 28.711906 
L 195.360209 28.711906 
L 195.380066 28.002635 
L 196.186156 28.002635 
L 196.186156 27.648 
L 360.8064 27.648 
L 360.8064 27.648 
" style="fill:none;stroke:#ff7500;stroke-linecap:square;stroke-width:1.5;"/>
   </g>
   <g id="line2d_46">
    <defs>
     <path d="M 0 -6 
L -1.347084 -1.854102 
L -5.706339 -1.854102 
L -2.179628 0.708204 
L -3.526712 4.854102 
L -0 2.291796 
L 3.526712 4.854102 
L 2.179628 0.708204 
L 5.706339 -1.854102 
L 1.347084 -1.854102 
z
" id="me1e8c14717" style="stroke:#ff7500;stroke-linejoin:bevel;stroke-width:1.5;"/>
    </defs>
    <g>
     <use style="fill-opacity:0;stroke:#ff7500;stroke-linejoin:bevel;stroke-width:1.5;" x="129.947033" xlink:href="#me1e8c14717" y="289.014212"/>
     <use style="fill-opacity:0;stroke:#ff7500;stroke-linejoin:bevel;stroke-width:1.5;" x="180.985884" xlink:href="#me1e8c14717" y="154.962071"/>
     <use style="fill-opacity:0;stroke:#ff7500;stroke-linejoin:bevel;stroke-width:1.5;" x="196.186156" xlink:href="#me1e8c14717" y="28.002635"/>
     <use style="fill-opacity:0;stroke:#ff7500;stroke-linejoin:bevel;stroke-width:1.5;" x="196.186156" xlink:href="#me1e8c14717" y="27.648"/>
     <use style="fill-opacity:0;stroke:#ff7500;stroke-linejoin:bevel;stroke-width:1.5;" x="196.186156" xlink:href="#me1e8c14717" y="27.648"/>
     <use style="fill-opacity:0;stroke:#ff7500;stroke-linejoin:bevel;stroke-width:1.5;" x="360.8064" xlink:href="#me1e8c14717" y="27.648"/>
    </g>
   </g>
   <g id="line2d_47">
    <path style="fill:none;stroke:#ff7500;stroke-linecap:square;stroke-width:1.5;"/>
    <g/>
   </g>
   <g id="line2d_48">
    <path clip-path="url(#p74eab7b7e0)" d="M 146.629123 279.439059 
" style="fill:none;stroke:#ff7500;stroke-linecap:square;stroke-width:1.5;"/>
    <defs>
     <path d="M -12 12 
L 12 -12 
M -12 -12 
L 12 12 
" id="m3fe8ef5447" style="stroke:#ff7500;"/>
    </defs>
    <g clip-path="url(#p74eab7b7e0)">
     <use style="fill:#ff7500;stroke:#ff7500;" x="146.629123" xlink:href="#m3fe8ef5447" y="279.439059"/>
    </g>
   </g>
   <g id="line2d_49">
    <path d="M 360.8064 27.648 
L 380.514816 293.51808 
" style="fill:none;stroke:#000080;stroke-linecap:square;stroke-width:1.5;"/>
    <g>
     <use style="fill-opacity:0;stroke:#000080;stroke-width:1.5;" x="360.8064" xlink:href="#m1242eab84a" y="27.648"/>
     <use style="fill-opacity:0;stroke:#000080;stroke-width:1.5;" x="380.514816" xlink:href="#m1242eab84a" y="293.51808"/>
    </g>
   </g>
   <g id="line2d_50">
    <path d="M 360.8064 27.648 
L 380.514816 206.70336 
" style="fill:none;stroke:#ff7500;stroke-linecap:square;stroke-width:1.5;"/>
    <g>
     <use style="fill-opacity:0;stroke:#ff7500;stroke-linejoin:bevel;stroke-width:1.5;" x="360.8064" xlink:href="#me1e8c14717" y="27.648"/>
     <use style="fill-opacity:0;stroke:#ff7500;stroke-linejoin:bevel;stroke-width:1.5;" x="380.514816" xlink:href="#me1e8c14717" y="206.70336"/>
    </g>
   </g>
   <g id="line2d_51">
    <path d="M 360.8064 27.648 
L 380.514816 119.88864 
" style="fill:none;stroke:#ff00ff;stroke-linecap:square;stroke-width:1.5;"/>
    <g>
     <use style="fill-opacity:0;stroke:#ff00ff;stroke-linejoin:miter;stroke-width:1.5;" x="360.8064" xlink:href="#me892dae08c" y="27.648"/>
     <use style="fill-opacity:0;stroke:#ff00ff;stroke-linejoin:miter;stroke-width:1.5;" x="380.514816" xlink:href="#me892dae08c" y="119.88864"/>
    </g>
   </g>
   <g id="line2d_52">
    <path d="M 360.8064 298.944 
L 360.8064 27.648 
" style="fill:none;stroke:#000000;stroke-linecap:square;stroke-width:1.5;"/>
   </g>
   <g id="patch_3">
    <path d="M 57.6 298.944 
L 360.8064 298.944 
" style="fill:none;stroke:#000000;stroke-linecap:square;stroke-linejoin:miter;stroke-width:0.8;"/>
   </g>
   <g id="patch_4">
    <path d="M 57.6 27.648 
L 360.8064 27.648 
" style="fill:none;stroke:#000000;stroke-linecap:square;stroke-linejoin:miter;stroke-width:0.8;"/>
   </g>
   <g id="text_13">
    <!-- different -->
    <g transform="translate(386.578944 297.381205)scale(0.14 -0.14)">
     <use xlink:href="#DejaVuSans-64"/>
     <use x="63.476562" xlink:href="#DejaVuSans-69"/>
     <use x="91.259766" xlink:href="#DejaVuSans-66"/>
     <use x="126.464844" xlink:href="#DejaVuSans-66"/>
     <use x="161.669922" xlink:href="#DejaVuSans-65"/>
     <use x="223.193359" xlink:href="#DejaVuSans-72"/>
     <use x="262.056641" xlink:href="#DejaVuSans-65"/>
     <use x="323.580078" xlink:href="#DejaVuSans-6e"/>
     <use x="386.958984" xlink:href="#DejaVuSans-74"/>
    </g>
   </g>
   <g id="text_14">
    <!-- diffcma b -->
    <g transform="translate(386.578944 210.566485)scale(0.14 -0.14)">
     <defs>
      <path d="M 3116 1747 
Q 3116 2381 2855 2742 
Q 2594 3103 2138 3103 
Q 1681 3103 1420 2742 
Q 1159 2381 1159 1747 
Q 1159 1113 1420 752 
Q 1681 391 2138 391 
Q 2594 391 2855 752 
Q 3116 1113 3116 1747 
z
M 1159 2969 
Q 1341 3281 1617 3432 
Q 1894 3584 2278 3584 
Q 2916 3584 3314 3078 
Q 3713 2572 3713 1747 
Q 3713 922 3314 415 
Q 2916 -91 2278 -91 
Q 1894 -91 1617 61 
Q 1341 213 1159 525 
L 1159 0 
L 581 0 
L 581 4863 
L 1159 4863 
L 1159 2969 
z
" id="DejaVuSans-62" transform="scale(0.015625)"/>
     </defs>
     <use xlink:href="#DejaVuSans-64"/>
     <use x="63.476562" xlink:href="#DejaVuSans-69"/>
     <use x="91.259766" xlink:href="#DejaVuSans-66"/>
     <use x="126.464844" xlink:href="#DejaVuSans-66"/>
     <use x="161.669922" xlink:href="#DejaVuSans-63"/>
     <use x="216.650391" xlink:href="#DejaVuSans-6d"/>
     <use x="314.0625" xlink:href="#DejaVuSans-61"/>
     <use x="375.341797" xlink:href="#DejaVuSans-20"/>
     <use x="407.128906" xlink:href="#DejaVuSans-62"/>
    </g>
   </g>
   <g id="text_15">
    <!-- cma.fmin  -->
    <g transform="translate(386.578944 123.751765)scale(0.14 -0.14)">
     <use xlink:href="#DejaVuSans-63"/>
     <use x="54.980469" xlink:href="#DejaVuSans-6d"/>
     <use x="152.392578" xlink:href="#DejaVuSans-61"/>
     <use x="213.671875" xlink:href="#DejaVuSans-2e"/>
     <use x="245.458984" xlink:href="#DejaVuSans-66"/>
     <use x="280.664062" xlink:href="#DejaVuSans-6d"/>
     <use x="378.076172" xlink:href="#DejaVuSans-69"/>
     <use x="405.859375" xlink:href="#DejaVuSans-6e"/>
     <use x="469.238281" xlink:href="#DejaVuSans-20"/>
    </g>
   </g>
   <g id="text_16">
    <!-- best 2009 -->
    <g transform="translate(386.578944 36.937045)scale(0.14 -0.14)">
     <defs>
      <path d="M 703 97 
L 703 672 
Q 941 559 1184 500 
Q 1428 441 1663 441 
Q 2288 441 2617 861 
Q 2947 1281 2994 2138 
Q 2813 1869 2534 1725 
Q 2256 1581 1919 1581 
Q 1219 1581 811 2004 
Q 403 2428 403 3163 
Q 403 3881 828 4315 
Q 1253 4750 1959 4750 
Q 2769 4750 3195 4129 
Q 3622 3509 3622 2328 
Q 3622 1225 3098 567 
Q 2575 -91 1691 -91 
Q 1453 -91 1209 -44 
Q 966 3 703 97 
z
M 1959 2075 
Q 2384 2075 2632 2365 
Q 2881 2656 2881 3163 
Q 2881 3666 2632 3958 
Q 2384 4250 1959 4250 
Q 1534 4250 1286 3958 
Q 1038 3666 1038 3163 
Q 1038 2656 1286 2365 
Q 1534 2075 1959 2075 
z
" id="DejaVuSans-39" transform="scale(0.015625)"/>
     </defs>
     <use xlink:href="#DejaVuSans-62"/>
     <use x="63.476562" xlink:href="#DejaVuSans-65"/>
     <use x="125" xlink:href="#DejaVuSans-73"/>
     <use x="177.099609" xlink:href="#DejaVuSans-74"/>
     <use x="216.308594" xlink:href="#DejaVuSans-20"/>
     <use x="248.095703" xlink:href="#DejaVuSans-32"/>
     <use x="311.71875" xlink:href="#DejaVuSans-30"/>
     <use x="375.341797" xlink:href="#DejaVuSans-30"/>
     <use x="438.964844" xlink:href="#DejaVuSans-39"/>
    </g>
   </g>
   <g id="text_17">
    <!-- bbob f6, 5-D -->
    <g transform="translate(60.632064 38.111366)scale(0.102 -0.102)">
     <defs>
      <path d="M 691 4666 
L 3169 4666 
L 3169 4134 
L 1269 4134 
L 1269 2991 
Q 1406 3038 1543 3061 
Q 1681 3084 1819 3084 
Q 2600 3084 3056 2656 
Q 3513 2228 3513 1497 
Q 3513 744 3044 326 
Q 2575 -91 1722 -91 
Q 1428 -91 1123 -41 
Q 819 9 494 109 
L 494 744 
Q 775 591 1075 516 
Q 1375 441 1709 441 
Q 2250 441 2565 725 
Q 2881 1009 2881 1497 
Q 2881 1984 2565 2268 
Q 2250 2553 1709 2553 
Q 1456 2553 1204 2497 
Q 953 2441 691 2322 
L 691 4666 
z
" id="DejaVuSans-35" transform="scale(0.015625)"/>
      <path d="M 1259 4147 
L 1259 519 
L 2022 519 
Q 2988 519 3436 956 
Q 3884 1394 3884 2338 
Q 3884 3275 3436 3711 
Q 2988 4147 2022 4147 
L 1259 4147 
z
M 628 4666 
L 1925 4666 
Q 3281 4666 3915 4102 
Q 4550 3538 4550 2338 
Q 4550 1131 3912 565 
Q 3275 0 1925 0 
L 628 0 
L 628 4666 
z
" id="DejaVuSans-44" transform="scale(0.015625)"/>
     </defs>
     <use xlink:href="#DejaVuSans-62"/>
     <use x="63.476562" xlink:href="#DejaVuSans-62"/>
     <use x="126.953125" xlink:href="#DejaVuSans-6f"/>
     <use x="188.134766" xlink:href="#DejaVuSans-62"/>
     <use x="251.611328" xlink:href="#DejaVuSans-20"/>
     <use x="283.398438" xlink:href="#DejaVuSans-66"/>
     <use x="318.603516" xlink:href="#DejaVuSans-36"/>
     <use x="382.226562" xlink:href="#DejaVuSans-2c"/>
     <use x="414.013672" xlink:href="#DejaVuSans-20"/>
     <use x="445.800781" xlink:href="#DejaVuSans-35"/>
     <use x="509.423828" xlink:href="#DejaVuSans-2d"/>
     <use x="545.507812" xlink:href="#DejaVuSans-44"/>
    </g>
    <!-- 51 targets: 100..1e-08 -->
    <g transform="translate(60.632064 49.533135)scale(0.102 -0.102)">
     <defs>
      <path d="M 750 794 
L 1409 794 
L 1409 0 
L 750 0 
L 750 794 
z
M 750 3309 
L 1409 3309 
L 1409 2516 
L 750 2516 
L 750 3309 
z
" id="DejaVuSans-3a" transform="scale(0.015625)"/>
     </defs>
     <use xlink:href="#DejaVuSans-35"/>
     <use x="63.623047" xlink:href="#DejaVuSans-31"/>
     <use x="127.246094" xlink:href="#DejaVuSans-20"/>
     <use x="159.033203" xlink:href="#DejaVuSans-74"/>
     <use x="198.242188" xlink:href="#DejaVuSans-61"/>
     <use x="259.521484" xlink:href="#DejaVuSans-72"/>
     <use x="298.884766" xlink:href="#DejaVuSans-67"/>
     <use x="362.361328" xlink:href="#DejaVuSans-65"/>
     <use x="423.884766" xlink:href="#DejaVuSans-74"/>
     <use x="463.09375" xlink:href="#DejaVuSans-73"/>
     <use x="515.193359" xlink:href="#DejaVuSans-3a"/>
     <use x="548.884766" xlink:href="#DejaVuSans-20"/>
     <use x="580.671875" xlink:href="#DejaVuSans-31"/>
     <use x="644.294922" xlink:href="#DejaVuSans-30"/>
     <use x="707.917969" xlink:href="#DejaVuSans-30"/>
     <use x="771.541016" xlink:href="#DejaVuSans-2e"/>
     <use x="803.328125" xlink:href="#DejaVuSans-2e"/>
     <use x="835.115234" xlink:href="#DejaVuSans-31"/>
     <use x="898.738281" xlink:href="#DejaVuSans-65"/>
     <use x="960.261719" xlink:href="#DejaVuSans-2d"/>
     <use x="996.345703" xlink:href="#DejaVuSans-30"/>
     <use x="1059.96875" xlink:href="#DejaVuSans-38"/>
    </g>
    <!-- 15 instances -->
    <g transform="translate(60.632064 60.954904)scale(0.102 -0.102)">
     <use xlink:href="#DejaVuSans-31"/>
     <use x="63.623047" xlink:href="#DejaVuSans-35"/>
     <use x="127.246094" xlink:href="#DejaVuSans-20"/>
     <use x="159.033203" xlink:href="#DejaVuSans-69"/>
     <use x="186.816406" xlink:href="#DejaVuSans-6e"/>
     <use x="250.195312" xlink:href="#DejaVuSans-73"/>
     <use x="302.294922" xlink:href="#DejaVuSans-74"/>
     <use x="341.503906" xlink:href="#DejaVuSans-61"/>
     <use x="402.783203" xlink:href="#DejaVuSans-6e"/>
     <use x="466.162109" xlink:href="#DejaVuSans-63"/>
     <use x="521.142578" xlink:href="#DejaVuSans-65"/>
     <use x="582.666016" xlink:href="#DejaVuSans-73"/>
    </g>
   </g>
   <g id="text_18">
    <!-- v2.6 -->
    <g style="fill:#808080;" transform="translate(198.292262 294.151352)scale(0.1 -0.1)">
     <use xlink:href="#DejaVuSans-76"/>
     <use x="59.179688" xlink:href="#DejaVuSans-32"/>
     <use x="122.802734" xlink:href="#DejaVuSans-2e"/>
     <use x="154.589844" xlink:href="#DejaVuSans-36"/>
    </g>
   </g>
   <g id="text_19">
    <!-- 6 Attractive sector -->
    <g transform="translate(116.45945 21.648)scale(0.2 -0.2)">
     <defs>
      <path d="M 2188 4044 
L 1331 1722 
L 3047 1722 
L 2188 4044 
z
M 1831 4666 
L 2547 4666 
L 4325 0 
L 3669 0 
L 3244 1197 
L 1141 1197 
L 716 0 
L 50 0 
L 1831 4666 
z
" id="DejaVuSans-41" transform="scale(0.015625)"/>
     </defs>
     <use xlink:href="#DejaVuSans-36"/>
     <use x="63.623047" xlink:href="#DejaVuSans-20"/>
     <use x="95.410156" xlink:href="#DejaVuSans-41"/>
     <use x="162.068359" xlink:href="#DejaVuSans-74"/>
     <use x="201.277344" xlink:href="#DejaVuSans-74"/>
     <use x="240.486328" xlink:href="#DejaVuSans-72"/>
     <use x="281.599609" xlink:href="#DejaVuSans-61"/>
     <use x="342.878906" xlink:href="#DejaVuSans-63"/>
     <use x="397.859375" xlink:href="#DejaVuSans-74"/>
     <use x="437.068359" xlink:href="#DejaVuSans-69"/>
     <use x="464.851562" xlink:href="#DejaVuSans-76"/>
     <use x="524.03125" xlink:href="#DejaVuSans-65"/>
     <use x="585.554688" xlink:href="#DejaVuSans-20"/>
     <use x="617.341797" xlink:href="#DejaVuSans-73"/>
     <use x="669.441406" xlink:href="#DejaVuSans-65"/>
     <use x="730.964844" xlink:href="#DejaVuSans-63"/>
     <use x="785.945312" xlink:href="#DejaVuSans-74"/>
     <use x="825.154297" xlink:href="#DejaVuSans-6f"/>
     <use x="886.335938" xlink:href="#DejaVuSans-72"/>
    </g>
   </g>
  </g>
 </g>
 <defs>
  <clipPath id="p74eab7b7e0">
   <rect height="271.296" width="303.2064" x="57.6" y="27.648"/>
  </clipPath>
 </defs>
</svg>
