<?xml version="1.0" encoding="utf-8" standalone="no"?>
<!DOCTYPE svg PUBLIC "-//W3C//DTD SVG 1.1//EN"
  "http://www.w3.org/Graphics/SVG/1.1/DTD/svg11.dtd">
<svg height="345.6pt" version="1.1" viewBox="0 0 460.8 345.6" width="460.8pt" xmlns="http://www.w3.org/2000/svg" xmlns:xlink="http://www.w3.org/1999/xlink">
 <metadata>
  <rdf:RDF xmlns:cc="http://creativecommons.org/ns#" xmlns:dc="http://purl.org/dc/elements/1.1/" xmlns:rdf="http://www.w3.org/1999/02/22-rdf-syntax-ns#">
   <cc:Work>
    <dc:type rdf:resource="http://purl.org/dc/dcmitype/StillImage"/>
    <dc:date>2022-05-22T20:53:05.816768</dc:date>
    <dc:format>image/svg+xml</dc:format>
    <dc:creator>
     <cc:Agent>
      <dc:title>Matplotlib v3.4.3, https://matplotlib.org/</dc:title>
     </cc:Agent>
    </dc:creator>
   </cc:Work>
  </rdf:RDF>
 </metadata>
 <defs>
  <style type="text/css">*{stroke-linecap:butt;stroke-linejoin:round;}</style>
 </defs>
 <g id="figure_1">
  <g id="patch_1">
   <path d="M 0 345.6 
L 460.8 345.6 
L 460.8 0 
L 0 0 
z
" style="fill:#ffffff;"/>
  </g>
  <g id="axes_1">
   <g id="patch_2">
    <path d="M 57.6 298.944 
L 360.8064 298.944 
L 360.8064 27.648 
L 57.6 27.648 
z
" style="fill:#ffffff;"/>
   </g>
   <g id="line2d_1">
    <path d="M 44.560826 298.944 
L 44.560826 277.665882 
L 57.6 277.665882 
L 57.6 272.346353 
L 65.227428 272.346353 
L 65.227428 267.026824 
L 78.266603 267.026824 
L 78.266603 261.707294 
L 87.876026 261.707294 
L 87.876026 256.387765 
L 107.244765 256.387765 
L 107.244765 251.068235 
L 114.418881 251.068235 
L 114.418881 245.748706 
L 121.892744 245.748706 
L 121.892744 235.109647 
L 127.227236 235.109647 
L 127.227236 229.790118 
L 129.622688 229.790118 
L 129.622688 224.470588 
L 134.463557 224.470588 
L 134.463557 219.151059 
L 136.555884 219.151059 
L 136.555884 208.512 
L 140.725251 208.512 
L 140.725251 203.192471 
L 144.602918 203.192471 
L 144.602918 197.872941 
L 148.800595 197.872941 
L 148.800595 192.553412 
L 150.221009 192.553412 
L 150.221009 187.233882 
L 153.071898 187.233882 
L 153.071898 181.914353 
L 153.536404 181.914353 
L 153.536404 176.594824 
L 155.13016 176.594824 
L 155.13016 171.275294 
L 155.701037 171.275294 
L 155.701037 165.955765 
L 157.080512 165.955765 
L 157.080512 160.636235 
L 160.142495 160.636235 
L 160.142495 155.316706 
L 162.704821 155.316706 
L 162.704821 149.997176 
L 165.422585 149.997176 
L 165.422585 144.677647 
L 168.816733 144.677647 
L 168.816733 139.358118 
L 168.943582 139.358118 
L 168.943582 134.038588 
L 171.136775 134.038588 
L 171.136775 128.719059 
L 171.248949 128.719059 
L 171.248949 123.399529 
L 175.620293 123.399529 
L 175.620293 118.08 
L 175.761601 118.08 
L 175.761601 112.760471 
L 176.058402 112.760471 
L 176.058402 107.440941 
L 176.520373 107.440941 
L 176.520373 102.121412 
L 177.233457 102.121412 
L 177.233457 96.801882 
L 181.457152 96.801882 
L 181.457152 91.482353 
L 181.522042 91.482353 
L 181.522042 86.162824 
L 181.855908 86.162824 
L 181.855908 80.843294 
L 182.345852 80.843294 
L 182.345852 75.523765 
L 183.063612 75.523765 
L 183.063612 70.204235 
L 183.546742 70.204235 
L 183.546742 64.884706 
L 183.743481 64.884706 
L 183.743481 59.565176 
L 184.006424 59.565176 
L 184.006424 54.245647 
L 184.288124 54.245647 
L 184.288124 48.926118 
L 185.279294 48.926118 
L 185.279294 43.606588 
L 185.553151 43.606588 
L 185.553151 38.287059 
L 185.73008 38.287059 
L 185.73008 32.967529 
L 185.884824 32.967529 
L 185.884824 27.648 
L 360.8064 27.648 
" style="fill:none;stroke:#f5deb3;stroke-linecap:square;stroke-width:4;"/>
   </g>
   <g id="line2d_2">
    <defs>
     <path d="M -0 7.778175 
L 7.778175 0 
L 0 -7.778175 
L -7.778175 -0 
z
" id="me7e59dbc6e" style="stroke:#f5deb3;stroke-linejoin:miter;stroke-width:1.5;"/>
    </defs>
    <g>
     <use style="fill:#f5deb3;stroke:#f5deb3;stroke-linejoin:miter;stroke-width:1.5;" x="78.266603" xlink:href="#me7e59dbc6e" y="267.026824"/>
     <use style="fill:#f5deb3;stroke:#f5deb3;stroke-linejoin:miter;stroke-width:1.5;" x="155.13016" xlink:href="#me7e59dbc6e" y="176.594824"/>
     <use style="fill:#f5deb3;stroke:#f5deb3;stroke-linejoin:miter;stroke-width:1.5;" x="181.457152" xlink:href="#me7e59dbc6e" y="91.482353"/>
     <use style="fill:#f5deb3;stroke:#f5deb3;stroke-linejoin:miter;stroke-width:1.5;" x="185.884824" xlink:href="#me7e59dbc6e" y="27.648"/>
     <use style="fill:#f5deb3;stroke:#f5deb3;stroke-linejoin:miter;stroke-width:1.5;" x="185.884824" xlink:href="#me7e59dbc6e" y="27.648"/>
     <use style="fill:#f5deb3;stroke:#f5deb3;stroke-linejoin:miter;stroke-width:1.5;" x="360.8064" xlink:href="#me7e59dbc6e" y="27.648"/>
    </g>
   </g>
   <g id="line2d_3">
    <path style="fill:none;stroke:#f5deb3;stroke-linecap:square;stroke-width:4;"/>
    <g/>
   </g>
   <g id="line2d_4">
    <path d="M 360.8064 27.648 
L 380.514816 33.07392 
" style="fill:none;stroke:#f5deb3;stroke-linecap:square;stroke-width:4;"/>
    <g>
     <use style="fill:#f5deb3;stroke:#f5deb3;stroke-linejoin:miter;stroke-width:1.5;" x="360.8064" xlink:href="#me7e59dbc6e" y="27.648"/>
     <use style="fill:#f5deb3;stroke:#f5deb3;stroke-linejoin:miter;stroke-width:1.5;" x="380.514816" xlink:href="#me7e59dbc6e" y="33.07392"/>
    </g>
   </g>
   <g id="matplotlib.axis_1">
    <g id="xtick_1">
     <g id="line2d_5">
      <path clip-path="url(#p8d3849f23c)" d="M 57.6 298.944 
L 57.6 27.648 
" style="fill:none;stroke:#b0b0b0;stroke-linecap:square;stroke-width:0.8;"/>
     </g>
     <g id="line2d_6">
      <defs>
       <path d="M 0 0 
L 0 3.5 
" id="m2e6663eb83" style="stroke:#000000;stroke-width:0.8;"/>
      </defs>
      <g>
       <use style="stroke:#000000;stroke-width:0.8;" x="57.6" xlink:href="#m2e6663eb83" y="298.944"/>
      </g>
     </g>
     <g id="text_1">
      <!-- 0 -->
      <g transform="translate(52.191875 318.861344)scale(0.17 -0.17)">
       <defs>
        <path d="M 2034 4250 
Q 1547 4250 1301 3770 
Q 1056 3291 1056 2328 
Q 1056 1369 1301 889 
Q 1547 409 2034 409 
Q 2525 409 2770 889 
Q 3016 1369 3016 2328 
Q 3016 3291 2770 3770 
Q 2525 4250 2034 4250 
z
M 2034 4750 
Q 2819 4750 3233 4129 
Q 3647 3509 3647 2328 
Q 3647 1150 3233 529 
Q 2819 -91 2034 -91 
Q 1250 -91 836 529 
Q 422 1150 422 2328 
Q 422 3509 836 4129 
Q 1250 4750 2034 4750 
z
" id="DejaVuSans-30" transform="scale(0.015625)"/>
       </defs>
       <use xlink:href="#DejaVuSans-30"/>
      </g>
     </g>
    </g>
    <g id="xtick_2">
     <g id="line2d_7">
      <path clip-path="url(#p8d3849f23c)" d="M 144.2304 298.944 
L 144.2304 27.648 
" style="fill:none;stroke:#b0b0b0;stroke-linecap:square;stroke-width:0.8;"/>
     </g>
     <g id="line2d_8">
      <g>
       <use style="stroke:#000000;stroke-width:0.8;" x="144.2304" xlink:href="#m2e6663eb83" y="298.944"/>
      </g>
     </g>
     <g id="text_2">
      <!-- 2 -->
      <g transform="translate(138.822275 318.861344)scale(0.17 -0.17)">
       <defs>
        <path d="M 1228 531 
L 3431 531 
L 3431 0 
L 469 0 
L 469 531 
Q 828 903 1448 1529 
Q 2069 2156 2228 2338 
Q 2531 2678 2651 2914 
Q 2772 3150 2772 3378 
Q 2772 3750 2511 3984 
Q 2250 4219 1831 4219 
Q 1534 4219 1204 4116 
Q 875 4013 500 3803 
L 500 4441 
Q 881 4594 1212 4672 
Q 1544 4750 1819 4750 
Q 2544 4750 2975 4387 
Q 3406 4025 3406 3419 
Q 3406 3131 3298 2873 
Q 3191 2616 2906 2266 
Q 2828 2175 2409 1742 
Q 1991 1309 1228 531 
z
" id="DejaVuSans-32" transform="scale(0.015625)"/>
       </defs>
       <use xlink:href="#DejaVuSans-32"/>
      </g>
     </g>
    </g>
    <g id="xtick_3">
     <g id="line2d_9">
      <path clip-path="url(#p8d3849f23c)" d="M 230.8608 298.944 
L 230.8608 27.648 
" style="fill:none;stroke:#b0b0b0;stroke-linecap:square;stroke-width:0.8;"/>
     </g>
     <g id="line2d_10">
      <g>
       <use style="stroke:#000000;stroke-width:0.8;" x="230.8608" xlink:href="#m2e6663eb83" y="298.944"/>
      </g>
     </g>
     <g id="text_3">
      <!-- 4 -->
      <g transform="translate(225.452675 318.861344)scale(0.17 -0.17)">
       <defs>
        <path d="M 2419 4116 
L 825 1625 
L 2419 1625 
L 2419 4116 
z
M 2253 4666 
L 3047 4666 
L 3047 1625 
L 3713 1625 
L 3713 1100 
L 3047 1100 
L 3047 0 
L 2419 0 
L 2419 1100 
L 313 1100 
L 313 1709 
L 2253 4666 
z
" id="DejaVuSans-34" transform="scale(0.015625)"/>
       </defs>
       <use xlink:href="#DejaVuSans-34"/>
      </g>
     </g>
    </g>
    <g id="xtick_4">
     <g id="line2d_11">
      <path clip-path="url(#p8d3849f23c)" d="M 317.4912 298.944 
L 317.4912 27.648 
" style="fill:none;stroke:#b0b0b0;stroke-linecap:square;stroke-width:0.8;"/>
     </g>
     <g id="line2d_12">
      <g>
       <use style="stroke:#000000;stroke-width:0.8;" x="317.4912" xlink:href="#m2e6663eb83" y="298.944"/>
      </g>
     </g>
     <g id="text_4">
      <!-- 6 -->
      <g transform="translate(312.083075 318.861344)scale(0.17 -0.17)">
       <defs>
        <path d="M 2113 2584 
Q 1688 2584 1439 2293 
Q 1191 2003 1191 1497 
Q 1191 994 1439 701 
Q 1688 409 2113 409 
Q 2538 409 2786 701 
Q 3034 994 3034 1497 
Q 3034 2003 2786 2293 
Q 2538 2584 2113 2584 
z
M 3366 4563 
L 3366 3988 
Q 3128 4100 2886 4159 
Q 2644 4219 2406 4219 
Q 1781 4219 1451 3797 
Q 1122 3375 1075 2522 
Q 1259 2794 1537 2939 
Q 1816 3084 2150 3084 
Q 2853 3084 3261 2657 
Q 3669 2231 3669 1497 
Q 3669 778 3244 343 
Q 2819 -91 2113 -91 
Q 1303 -91 875 529 
Q 447 1150 447 2328 
Q 447 3434 972 4092 
Q 1497 4750 2381 4750 
Q 2619 4750 2861 4703 
Q 3103 4656 3366 4563 
z
" id="DejaVuSans-36" transform="scale(0.015625)"/>
       </defs>
       <use xlink:href="#DejaVuSans-36"/>
      </g>
     </g>
    </g>
    <g id="xtick_5">
     <g id="line2d_13">
      <path clip-path="url(#p8d3849f23c)" d="M 100.9152 298.944 
L 100.9152 27.648 
" style="fill:none;stroke:#b0b0b0;stroke-linecap:square;stroke-width:0.8;"/>
     </g>
     <g id="line2d_14">
      <defs>
       <path d="M 0 0 
L 0 2 
" id="m087100c85b" style="stroke:#000000;stroke-width:0.6;"/>
      </defs>
      <g>
       <use style="stroke:#000000;stroke-width:0.6;" x="100.9152" xlink:href="#m087100c85b" y="298.944"/>
      </g>
     </g>
    </g>
    <g id="xtick_6">
     <g id="line2d_15">
      <path clip-path="url(#p8d3849f23c)" d="M 187.5456 298.944 
L 187.5456 27.648 
" style="fill:none;stroke:#b0b0b0;stroke-linecap:square;stroke-width:0.8;"/>
     </g>
     <g id="line2d_16">
      <g>
       <use style="stroke:#000000;stroke-width:0.6;" x="187.5456" xlink:href="#m087100c85b" y="298.944"/>
      </g>
     </g>
    </g>
    <g id="xtick_7">
     <g id="line2d_17">
      <path clip-path="url(#p8d3849f23c)" d="M 274.176 298.944 
L 274.176 27.648 
" style="fill:none;stroke:#b0b0b0;stroke-linecap:square;stroke-width:0.8;"/>
     </g>
     <g id="line2d_18">
      <g>
       <use style="stroke:#000000;stroke-width:0.6;" x="274.176" xlink:href="#m087100c85b" y="298.944"/>
      </g>
     </g>
    </g>
    <g id="xtick_8">
     <g id="line2d_19">
      <path clip-path="url(#p8d3849f23c)" d="M 360.8064 298.944 
L 360.8064 27.648 
" style="fill:none;stroke:#b0b0b0;stroke-linecap:square;stroke-width:0.8;"/>
     </g>
     <g id="line2d_20">
      <g>
       <use style="stroke:#000000;stroke-width:0.6;" x="360.8064" xlink:href="#m087100c85b" y="298.944"/>
      </g>
     </g>
    </g>
    <g id="text_5">
     <!-- log10(# f-evals / dimension) -->
     <g transform="translate(88.823278 339.314156)scale(0.17 -0.17)">
      <defs>
       <path d="M 603 4863 
L 1178 4863 
L 1178 0 
L 603 0 
L 603 4863 
z
" id="DejaVuSans-6c" transform="scale(0.015625)"/>
       <path d="M 1959 3097 
Q 1497 3097 1228 2736 
Q 959 2375 959 1747 
Q 959 1119 1226 758 
Q 1494 397 1959 397 
Q 2419 397 2687 759 
Q 2956 1122 2956 1747 
Q 2956 2369 2687 2733 
Q 2419 3097 1959 3097 
z
M 1959 3584 
Q 2709 3584 3137 3096 
Q 3566 2609 3566 1747 
Q 3566 888 3137 398 
Q 2709 -91 1959 -91 
Q 1206 -91 779 398 
Q 353 888 353 1747 
Q 353 2609 779 3096 
Q 1206 3584 1959 3584 
z
" id="DejaVuSans-6f" transform="scale(0.015625)"/>
       <path d="M 2906 1791 
Q 2906 2416 2648 2759 
Q 2391 3103 1925 3103 
Q 1463 3103 1205 2759 
Q 947 2416 947 1791 
Q 947 1169 1205 825 
Q 1463 481 1925 481 
Q 2391 481 2648 825 
Q 2906 1169 2906 1791 
z
M 3481 434 
Q 3481 -459 3084 -895 
Q 2688 -1331 1869 -1331 
Q 1566 -1331 1297 -1286 
Q 1028 -1241 775 -1147 
L 775 -588 
Q 1028 -725 1275 -790 
Q 1522 -856 1778 -856 
Q 2344 -856 2625 -561 
Q 2906 -266 2906 331 
L 2906 616 
Q 2728 306 2450 153 
Q 2172 0 1784 0 
Q 1141 0 747 490 
Q 353 981 353 1791 
Q 353 2603 747 3093 
Q 1141 3584 1784 3584 
Q 2172 3584 2450 3431 
Q 2728 3278 2906 2969 
L 2906 3500 
L 3481 3500 
L 3481 434 
z
" id="DejaVuSans-67" transform="scale(0.015625)"/>
       <path d="M 794 531 
L 1825 531 
L 1825 4091 
L 703 3866 
L 703 4441 
L 1819 4666 
L 2450 4666 
L 2450 531 
L 3481 531 
L 3481 0 
L 794 0 
L 794 531 
z
" id="DejaVuSans-31" transform="scale(0.015625)"/>
       <path d="M 1984 4856 
Q 1566 4138 1362 3434 
Q 1159 2731 1159 2009 
Q 1159 1288 1364 580 
Q 1569 -128 1984 -844 
L 1484 -844 
Q 1016 -109 783 600 
Q 550 1309 550 2009 
Q 550 2706 781 3412 
Q 1013 4119 1484 4856 
L 1984 4856 
z
" id="DejaVuSans-28" transform="scale(0.015625)"/>
       <path d="M 3272 2816 
L 2363 2816 
L 2100 1772 
L 3016 1772 
L 3272 2816 
z
M 2803 4594 
L 2478 3297 
L 3391 3297 
L 3719 4594 
L 4219 4594 
L 3897 3297 
L 4872 3297 
L 4872 2816 
L 3775 2816 
L 3519 1772 
L 4513 1772 
L 4513 1294 
L 3397 1294 
L 3072 0 
L 2572 0 
L 2894 1294 
L 1978 1294 
L 1656 0 
L 1153 0 
L 1478 1294 
L 494 1294 
L 494 1772 
L 1594 1772 
L 1856 2816 
L 850 2816 
L 850 3297 
L 1978 3297 
L 2297 4594 
L 2803 4594 
z
" id="DejaVuSans-23" transform="scale(0.015625)"/>
       <path id="DejaVuSans-20" transform="scale(0.015625)"/>
       <path d="M 2375 4863 
L 2375 4384 
L 1825 4384 
Q 1516 4384 1395 4259 
Q 1275 4134 1275 3809 
L 1275 3500 
L 2222 3500 
L 2222 3053 
L 1275 3053 
L 1275 0 
L 697 0 
L 697 3053 
L 147 3053 
L 147 3500 
L 697 3500 
L 697 3744 
Q 697 4328 969 4595 
Q 1241 4863 1831 4863 
L 2375 4863 
z
" id="DejaVuSans-66" transform="scale(0.015625)"/>
       <path d="M 313 2009 
L 1997 2009 
L 1997 1497 
L 313 1497 
L 313 2009 
z
" id="DejaVuSans-2d" transform="scale(0.015625)"/>
       <path d="M 3597 1894 
L 3597 1613 
L 953 1613 
Q 991 1019 1311 708 
Q 1631 397 2203 397 
Q 2534 397 2845 478 
Q 3156 559 3463 722 
L 3463 178 
Q 3153 47 2828 -22 
Q 2503 -91 2169 -91 
Q 1331 -91 842 396 
Q 353 884 353 1716 
Q 353 2575 817 3079 
Q 1281 3584 2069 3584 
Q 2775 3584 3186 3129 
Q 3597 2675 3597 1894 
z
M 3022 2063 
Q 3016 2534 2758 2815 
Q 2500 3097 2075 3097 
Q 1594 3097 1305 2825 
Q 1016 2553 972 2059 
L 3022 2063 
z
" id="DejaVuSans-65" transform="scale(0.015625)"/>
       <path d="M 191 3500 
L 800 3500 
L 1894 563 
L 2988 3500 
L 3597 3500 
L 2284 0 
L 1503 0 
L 191 3500 
z
" id="DejaVuSans-76" transform="scale(0.015625)"/>
       <path d="M 2194 1759 
Q 1497 1759 1228 1600 
Q 959 1441 959 1056 
Q 959 750 1161 570 
Q 1363 391 1709 391 
Q 2188 391 2477 730 
Q 2766 1069 2766 1631 
L 2766 1759 
L 2194 1759 
z
M 3341 1997 
L 3341 0 
L 2766 0 
L 2766 531 
Q 2569 213 2275 61 
Q 1981 -91 1556 -91 
Q 1019 -91 701 211 
Q 384 513 384 1019 
Q 384 1609 779 1909 
Q 1175 2209 1959 2209 
L 2766 2209 
L 2766 2266 
Q 2766 2663 2505 2880 
Q 2244 3097 1772 3097 
Q 1472 3097 1187 3025 
Q 903 2953 641 2809 
L 641 3341 
Q 956 3463 1253 3523 
Q 1550 3584 1831 3584 
Q 2591 3584 2966 3190 
Q 3341 2797 3341 1997 
z
" id="DejaVuSans-61" transform="scale(0.015625)"/>
       <path d="M 2834 3397 
L 2834 2853 
Q 2591 2978 2328 3040 
Q 2066 3103 1784 3103 
Q 1356 3103 1142 2972 
Q 928 2841 928 2578 
Q 928 2378 1081 2264 
Q 1234 2150 1697 2047 
L 1894 2003 
Q 2506 1872 2764 1633 
Q 3022 1394 3022 966 
Q 3022 478 2636 193 
Q 2250 -91 1575 -91 
Q 1294 -91 989 -36 
Q 684 19 347 128 
L 347 722 
Q 666 556 975 473 
Q 1284 391 1588 391 
Q 1994 391 2212 530 
Q 2431 669 2431 922 
Q 2431 1156 2273 1281 
Q 2116 1406 1581 1522 
L 1381 1569 
Q 847 1681 609 1914 
Q 372 2147 372 2553 
Q 372 3047 722 3315 
Q 1072 3584 1716 3584 
Q 2034 3584 2315 3537 
Q 2597 3491 2834 3397 
z
" id="DejaVuSans-73" transform="scale(0.015625)"/>
       <path d="M 1625 4666 
L 2156 4666 
L 531 -594 
L 0 -594 
L 1625 4666 
z
" id="DejaVuSans-2f" transform="scale(0.015625)"/>
       <path d="M 2906 2969 
L 2906 4863 
L 3481 4863 
L 3481 0 
L 2906 0 
L 2906 525 
Q 2725 213 2448 61 
Q 2172 -91 1784 -91 
Q 1150 -91 751 415 
Q 353 922 353 1747 
Q 353 2572 751 3078 
Q 1150 3584 1784 3584 
Q 2172 3584 2448 3432 
Q 2725 3281 2906 2969 
z
M 947 1747 
Q 947 1113 1208 752 
Q 1469 391 1925 391 
Q 2381 391 2643 752 
Q 2906 1113 2906 1747 
Q 2906 2381 2643 2742 
Q 2381 3103 1925 3103 
Q 1469 3103 1208 2742 
Q 947 2381 947 1747 
z
" id="DejaVuSans-64" transform="scale(0.015625)"/>
       <path d="M 603 3500 
L 1178 3500 
L 1178 0 
L 603 0 
L 603 3500 
z
M 603 4863 
L 1178 4863 
L 1178 4134 
L 603 4134 
L 603 4863 
z
" id="DejaVuSans-69" transform="scale(0.015625)"/>
       <path d="M 3328 2828 
Q 3544 3216 3844 3400 
Q 4144 3584 4550 3584 
Q 5097 3584 5394 3201 
Q 5691 2819 5691 2113 
L 5691 0 
L 5113 0 
L 5113 2094 
Q 5113 2597 4934 2840 
Q 4756 3084 4391 3084 
Q 3944 3084 3684 2787 
Q 3425 2491 3425 1978 
L 3425 0 
L 2847 0 
L 2847 2094 
Q 2847 2600 2669 2842 
Q 2491 3084 2119 3084 
Q 1678 3084 1418 2786 
Q 1159 2488 1159 1978 
L 1159 0 
L 581 0 
L 581 3500 
L 1159 3500 
L 1159 2956 
Q 1356 3278 1631 3431 
Q 1906 3584 2284 3584 
Q 2666 3584 2933 3390 
Q 3200 3197 3328 2828 
z
" id="DejaVuSans-6d" transform="scale(0.015625)"/>
       <path d="M 3513 2113 
L 3513 0 
L 2938 0 
L 2938 2094 
Q 2938 2591 2744 2837 
Q 2550 3084 2163 3084 
Q 1697 3084 1428 2787 
Q 1159 2491 1159 1978 
L 1159 0 
L 581 0 
L 581 3500 
L 1159 3500 
L 1159 2956 
Q 1366 3272 1645 3428 
Q 1925 3584 2291 3584 
Q 2894 3584 3203 3211 
Q 3513 2838 3513 2113 
z
" id="DejaVuSans-6e" transform="scale(0.015625)"/>
       <path d="M 513 4856 
L 1013 4856 
Q 1481 4119 1714 3412 
Q 1947 2706 1947 2009 
Q 1947 1309 1714 600 
Q 1481 -109 1013 -844 
L 513 -844 
Q 928 -128 1133 580 
Q 1338 1288 1338 2009 
Q 1338 2731 1133 3434 
Q 928 4138 513 4856 
z
" id="DejaVuSans-29" transform="scale(0.015625)"/>
      </defs>
      <use xlink:href="#DejaVuSans-6c"/>
      <use x="27.783203" xlink:href="#DejaVuSans-6f"/>
      <use x="88.964844" xlink:href="#DejaVuSans-67"/>
      <use x="152.441406" xlink:href="#DejaVuSans-31"/>
      <use x="216.064453" xlink:href="#DejaVuSans-30"/>
      <use x="279.6875" xlink:href="#DejaVuSans-28"/>
      <use x="318.701172" xlink:href="#DejaVuSans-23"/>
      <use x="402.490234" xlink:href="#DejaVuSans-20"/>
      <use x="434.277344" xlink:href="#DejaVuSans-66"/>
      <use x="463.982422" xlink:href="#DejaVuSans-2d"/>
      <use x="500.066406" xlink:href="#DejaVuSans-65"/>
      <use x="561.589844" xlink:href="#DejaVuSans-76"/>
      <use x="620.769531" xlink:href="#DejaVuSans-61"/>
      <use x="682.048828" xlink:href="#DejaVuSans-6c"/>
      <use x="709.832031" xlink:href="#DejaVuSans-73"/>
      <use x="761.931641" xlink:href="#DejaVuSans-20"/>
      <use x="793.71875" xlink:href="#DejaVuSans-2f"/>
      <use x="827.410156" xlink:href="#DejaVuSans-20"/>
      <use x="859.197266" xlink:href="#DejaVuSans-64"/>
      <use x="922.673828" xlink:href="#DejaVuSans-69"/>
      <use x="950.457031" xlink:href="#DejaVuSans-6d"/>
      <use x="1047.869141" xlink:href="#DejaVuSans-65"/>
      <use x="1109.392578" xlink:href="#DejaVuSans-6e"/>
      <use x="1172.771484" xlink:href="#DejaVuSans-73"/>
      <use x="1224.871094" xlink:href="#DejaVuSans-69"/>
      <use x="1252.654297" xlink:href="#DejaVuSans-6f"/>
      <use x="1313.835938" xlink:href="#DejaVuSans-6e"/>
      <use x="1377.214844" xlink:href="#DejaVuSans-29"/>
     </g>
    </g>
   </g>
   <g id="matplotlib.axis_2">
    <g id="ytick_1">
     <g id="line2d_21">
      <path clip-path="url(#p8d3849f23c)" d="M 57.6 298.944 
L 360.8064 298.944 
" style="fill:none;stroke:#b0b0b0;stroke-linecap:square;stroke-width:0.8;"/>
     </g>
     <g id="line2d_22">
      <defs>
       <path d="M 0 0 
L -3.5 0 
" id="meac6986d0d" style="stroke:#000000;stroke-width:0.8;"/>
      </defs>
      <g>
       <use style="stroke:#000000;stroke-width:0.8;" x="57.6" xlink:href="#meac6986d0d" y="298.944"/>
      </g>
     </g>
     <g id="text_6">
      <!-- 0.0 -->
      <g transform="translate(25.155 305.02275)scale(0.16 -0.16)">
       <defs>
        <path d="M 684 794 
L 1344 794 
L 1344 0 
L 684 0 
L 684 794 
z
" id="DejaVuSans-2e" transform="scale(0.015625)"/>
       </defs>
       <use xlink:href="#DejaVuSans-30"/>
       <use x="63.623047" xlink:href="#DejaVuSans-2e"/>
       <use x="95.410156" xlink:href="#DejaVuSans-30"/>
      </g>
     </g>
    </g>
    <g id="ytick_2">
     <g id="line2d_23">
      <path clip-path="url(#p8d3849f23c)" d="M 57.6 244.6848 
L 360.8064 244.6848 
" style="fill:none;stroke:#b0b0b0;stroke-linecap:square;stroke-width:0.8;"/>
     </g>
     <g id="line2d_24">
      <g>
       <use style="stroke:#000000;stroke-width:0.8;" x="57.6" xlink:href="#meac6986d0d" y="244.6848"/>
      </g>
     </g>
     <g id="text_7">
      <!-- 0.2 -->
      <g transform="translate(25.155 250.76355)scale(0.16 -0.16)">
       <use xlink:href="#DejaVuSans-30"/>
       <use x="63.623047" xlink:href="#DejaVuSans-2e"/>
       <use x="95.410156" xlink:href="#DejaVuSans-32"/>
      </g>
     </g>
    </g>
    <g id="ytick_3">
     <g id="line2d_25">
      <path clip-path="url(#p8d3849f23c)" d="M 57.6 190.4256 
L 360.8064 190.4256 
" style="fill:none;stroke:#b0b0b0;stroke-linecap:square;stroke-width:0.8;"/>
     </g>
     <g id="line2d_26">
      <g>
       <use style="stroke:#000000;stroke-width:0.8;" x="57.6" xlink:href="#meac6986d0d" y="190.4256"/>
      </g>
     </g>
     <g id="text_8">
      <!-- 0.4 -->
      <g transform="translate(25.155 196.50435)scale(0.16 -0.16)">
       <use xlink:href="#DejaVuSans-30"/>
       <use x="63.623047" xlink:href="#DejaVuSans-2e"/>
       <use x="95.410156" xlink:href="#DejaVuSans-34"/>
      </g>
     </g>
    </g>
    <g id="ytick_4">
     <g id="line2d_27">
      <path clip-path="url(#p8d3849f23c)" d="M 57.6 136.1664 
L 360.8064 136.1664 
" style="fill:none;stroke:#b0b0b0;stroke-linecap:square;stroke-width:0.8;"/>
     </g>
     <g id="line2d_28">
      <g>
       <use style="stroke:#000000;stroke-width:0.8;" x="57.6" xlink:href="#meac6986d0d" y="136.1664"/>
      </g>
     </g>
     <g id="text_9">
      <!-- 0.6 -->
      <g transform="translate(25.155 142.24515)scale(0.16 -0.16)">
       <use xlink:href="#DejaVuSans-30"/>
       <use x="63.623047" xlink:href="#DejaVuSans-2e"/>
       <use x="95.410156" xlink:href="#DejaVuSans-36"/>
      </g>
     </g>
    </g>
    <g id="ytick_5">
     <g id="line2d_29">
      <path clip-path="url(#p8d3849f23c)" d="M 57.6 81.9072 
L 360.8064 81.9072 
" style="fill:none;stroke:#b0b0b0;stroke-linecap:square;stroke-width:0.8;"/>
     </g>
     <g id="line2d_30">
      <g>
       <use style="stroke:#000000;stroke-width:0.8;" x="57.6" xlink:href="#meac6986d0d" y="81.9072"/>
      </g>
     </g>
     <g id="text_10">
      <!-- 0.8 -->
      <g transform="translate(25.155 87.98595)scale(0.16 -0.16)">
       <defs>
        <path d="M 2034 2216 
Q 1584 2216 1326 1975 
Q 1069 1734 1069 1313 
Q 1069 891 1326 650 
Q 1584 409 2034 409 
Q 2484 409 2743 651 
Q 3003 894 3003 1313 
Q 3003 1734 2745 1975 
Q 2488 2216 2034 2216 
z
M 1403 2484 
Q 997 2584 770 2862 
Q 544 3141 544 3541 
Q 544 4100 942 4425 
Q 1341 4750 2034 4750 
Q 2731 4750 3128 4425 
Q 3525 4100 3525 3541 
Q 3525 3141 3298 2862 
Q 3072 2584 2669 2484 
Q 3125 2378 3379 2068 
Q 3634 1759 3634 1313 
Q 3634 634 3220 271 
Q 2806 -91 2034 -91 
Q 1263 -91 848 271 
Q 434 634 434 1313 
Q 434 1759 690 2068 
Q 947 2378 1403 2484 
z
M 1172 3481 
Q 1172 3119 1398 2916 
Q 1625 2713 2034 2713 
Q 2441 2713 2670 2916 
Q 2900 3119 2900 3481 
Q 2900 3844 2670 4047 
Q 2441 4250 2034 4250 
Q 1625 4250 1398 4047 
Q 1172 3844 1172 3481 
z
" id="DejaVuSans-38" transform="scale(0.015625)"/>
       </defs>
       <use xlink:href="#DejaVuSans-30"/>
       <use x="63.623047" xlink:href="#DejaVuSans-2e"/>
       <use x="95.410156" xlink:href="#DejaVuSans-38"/>
      </g>
     </g>
    </g>
    <g id="ytick_6">
     <g id="line2d_31">
      <path clip-path="url(#p8d3849f23c)" d="M 57.6 27.648 
L 360.8064 27.648 
" style="fill:none;stroke:#b0b0b0;stroke-linecap:square;stroke-width:0.8;"/>
     </g>
     <g id="line2d_32">
      <g>
       <use style="stroke:#000000;stroke-width:0.8;" x="57.6" xlink:href="#meac6986d0d" y="27.648"/>
      </g>
     </g>
     <g id="text_11">
      <!-- 1.0 -->
      <g transform="translate(25.155 33.72675)scale(0.16 -0.16)">
       <use xlink:href="#DejaVuSans-31"/>
       <use x="63.623047" xlink:href="#DejaVuSans-2e"/>
       <use x="95.410156" xlink:href="#DejaVuSans-30"/>
      </g>
     </g>
    </g>
    <g id="text_12">
     <!-- Fraction of function,target pairs -->
     <g transform="translate(17.619531 297.681)rotate(-90)scale(0.17 -0.17)">
      <defs>
       <path d="M 628 4666 
L 3309 4666 
L 3309 4134 
L 1259 4134 
L 1259 2759 
L 3109 2759 
L 3109 2228 
L 1259 2228 
L 1259 0 
L 628 0 
L 628 4666 
z
" id="DejaVuSans-46" transform="scale(0.015625)"/>
       <path d="M 2631 2963 
Q 2534 3019 2420 3045 
Q 2306 3072 2169 3072 
Q 1681 3072 1420 2755 
Q 1159 2438 1159 1844 
L 1159 0 
L 581 0 
L 581 3500 
L 1159 3500 
L 1159 2956 
Q 1341 3275 1631 3429 
Q 1922 3584 2338 3584 
Q 2397 3584 2469 3576 
Q 2541 3569 2628 3553 
L 2631 2963 
z
" id="DejaVuSans-72" transform="scale(0.015625)"/>
       <path d="M 3122 3366 
L 3122 2828 
Q 2878 2963 2633 3030 
Q 2388 3097 2138 3097 
Q 1578 3097 1268 2742 
Q 959 2388 959 1747 
Q 959 1106 1268 751 
Q 1578 397 2138 397 
Q 2388 397 2633 464 
Q 2878 531 3122 666 
L 3122 134 
Q 2881 22 2623 -34 
Q 2366 -91 2075 -91 
Q 1284 -91 818 406 
Q 353 903 353 1747 
Q 353 2603 823 3093 
Q 1294 3584 2113 3584 
Q 2378 3584 2631 3529 
Q 2884 3475 3122 3366 
z
" id="DejaVuSans-63" transform="scale(0.015625)"/>
       <path d="M 1172 4494 
L 1172 3500 
L 2356 3500 
L 2356 3053 
L 1172 3053 
L 1172 1153 
Q 1172 725 1289 603 
Q 1406 481 1766 481 
L 2356 481 
L 2356 0 
L 1766 0 
Q 1100 0 847 248 
Q 594 497 594 1153 
L 594 3053 
L 172 3053 
L 172 3500 
L 594 3500 
L 594 4494 
L 1172 4494 
z
" id="DejaVuSans-74" transform="scale(0.015625)"/>
       <path d="M 544 1381 
L 544 3500 
L 1119 3500 
L 1119 1403 
Q 1119 906 1312 657 
Q 1506 409 1894 409 
Q 2359 409 2629 706 
Q 2900 1003 2900 1516 
L 2900 3500 
L 3475 3500 
L 3475 0 
L 2900 0 
L 2900 538 
Q 2691 219 2414 64 
Q 2138 -91 1772 -91 
Q 1169 -91 856 284 
Q 544 659 544 1381 
z
M 1991 3584 
L 1991 3584 
z
" id="DejaVuSans-75" transform="scale(0.015625)"/>
       <path d="M 750 794 
L 1409 794 
L 1409 256 
L 897 -744 
L 494 -744 
L 750 256 
L 750 794 
z
" id="DejaVuSans-2c" transform="scale(0.015625)"/>
       <path d="M 1159 525 
L 1159 -1331 
L 581 -1331 
L 581 3500 
L 1159 3500 
L 1159 2969 
Q 1341 3281 1617 3432 
Q 1894 3584 2278 3584 
Q 2916 3584 3314 3078 
Q 3713 2572 3713 1747 
Q 3713 922 3314 415 
Q 2916 -91 2278 -91 
Q 1894 -91 1617 61 
Q 1341 213 1159 525 
z
M 3116 1747 
Q 3116 2381 2855 2742 
Q 2594 3103 2138 3103 
Q 1681 3103 1420 2742 
Q 1159 2381 1159 1747 
Q 1159 1113 1420 752 
Q 1681 391 2138 391 
Q 2594 391 2855 752 
Q 3116 1113 3116 1747 
z
" id="DejaVuSans-70" transform="scale(0.015625)"/>
      </defs>
      <use xlink:href="#DejaVuSans-46"/>
      <use x="50.269531" xlink:href="#DejaVuSans-72"/>
      <use x="91.382812" xlink:href="#DejaVuSans-61"/>
      <use x="152.662109" xlink:href="#DejaVuSans-63"/>
      <use x="207.642578" xlink:href="#DejaVuSans-74"/>
      <use x="246.851562" xlink:href="#DejaVuSans-69"/>
      <use x="274.634766" xlink:href="#DejaVuSans-6f"/>
      <use x="335.816406" xlink:href="#DejaVuSans-6e"/>
      <use x="399.195312" xlink:href="#DejaVuSans-20"/>
      <use x="430.982422" xlink:href="#DejaVuSans-6f"/>
      <use x="492.164062" xlink:href="#DejaVuSans-66"/>
      <use x="527.369141" xlink:href="#DejaVuSans-20"/>
      <use x="559.15625" xlink:href="#DejaVuSans-66"/>
      <use x="594.361328" xlink:href="#DejaVuSans-75"/>
      <use x="657.740234" xlink:href="#DejaVuSans-6e"/>
      <use x="721.119141" xlink:href="#DejaVuSans-63"/>
      <use x="776.099609" xlink:href="#DejaVuSans-74"/>
      <use x="815.308594" xlink:href="#DejaVuSans-69"/>
      <use x="843.091797" xlink:href="#DejaVuSans-6f"/>
      <use x="904.273438" xlink:href="#DejaVuSans-6e"/>
      <use x="967.652344" xlink:href="#DejaVuSans-2c"/>
      <use x="999.439453" xlink:href="#DejaVuSans-74"/>
      <use x="1038.648438" xlink:href="#DejaVuSans-61"/>
      <use x="1099.927734" xlink:href="#DejaVuSans-72"/>
      <use x="1139.291016" xlink:href="#DejaVuSans-67"/>
      <use x="1202.767578" xlink:href="#DejaVuSans-65"/>
      <use x="1264.291016" xlink:href="#DejaVuSans-74"/>
      <use x="1303.5" xlink:href="#DejaVuSans-20"/>
      <use x="1335.287109" xlink:href="#DejaVuSans-70"/>
      <use x="1398.763672" xlink:href="#DejaVuSans-61"/>
      <use x="1460.042969" xlink:href="#DejaVuSans-69"/>
      <use x="1487.826172" xlink:href="#DejaVuSans-72"/>
      <use x="1528.939453" xlink:href="#DejaVuSans-73"/>
     </g>
    </g>
   </g>
   <g id="line2d_33">
    <defs>
     <path d="M 0 1.5 
C 0.397805 1.5 0.77937 1.341951 1.06066 1.06066 
C 1.341951 0.77937 1.5 0.397805 1.5 0 
C 1.5 -0.397805 1.341951 -0.77937 1.06066 -1.06066 
C 0.77937 -1.341951 0.397805 -1.5 0 -1.5 
C -0.397805 -1.5 -0.77937 -1.341951 -1.06066 -1.06066 
C -1.341951 -0.77937 -1.5 -0.397805 -1.5 0 
C -1.5 0.397805 -1.341951 0.77937 -1.06066 1.06066 
C -0.77937 1.341951 -0.397805 1.5 0 1.5 
z
" id="m394314643f" style="stroke:#f5deb3;"/>
    </defs>
    <g>
     <use style="fill:#f5deb3;stroke:#f5deb3;" x="185.884824" xlink:href="#m394314643f" y="27.648"/>
     <use style="fill:#f5deb3;stroke:#f5deb3;" x="185.884824" xlink:href="#m394314643f" y="27.648"/>
    </g>
   </g>
   <g id="line2d_34">
    <defs>
     <path d="M 0 1.5 
C 0.397805 1.5 0.77937 1.341951 1.06066 1.06066 
C 1.341951 0.77937 1.5 0.397805 1.5 0 
C 1.5 -0.397805 1.341951 -0.77937 1.06066 -1.06066 
C 0.77937 -1.341951 0.397805 -1.5 0 -1.5 
C -0.397805 -1.5 -0.77937 -1.341951 -1.06066 -1.06066 
C -1.341951 -0.77937 -1.5 -0.397805 -1.5 0 
C -1.5 0.397805 -1.341951 0.77937 -1.06066 1.06066 
C -0.77937 1.341951 -0.397805 1.5 0 1.5 
z
" id="mca1be5079a" style="stroke:#000080;"/>
    </defs>
    <g>
     <use style="fill:#000080;stroke:#000080;" x="225.994139" xlink:href="#mca1be5079a" y="27.648"/>
     <use style="fill:#000080;stroke:#000080;" x="225.994139" xlink:href="#mca1be5079a" y="27.648"/>
    </g>
   </g>
   <g id="line2d_35">
    <path d="M 44.560826 298.944 
L 44.560826 276.956612 
L 57.6 276.956612 
L 57.6 271.637082 
L 65.227428 271.637082 
L 65.227428 266.317553 
L 70.639174 266.317553 
L 70.639174 263.480471 
L 74.836851 263.480471 
L 74.836851 262.416565 
L 81.166416 262.416565 
L 81.166416 260.288753 
L 83.678349 260.288753 
L 83.678349 257.806306 
L 85.894031 257.806306 
L 85.894031 256.033129 
L 87.876026 256.033129 
L 87.876026 254.969224 
L 89.668958 254.969224 
L 89.668958 254.259953 
L 97.857967 254.259953 
L 97.857967 253.905318 
L 110.335561 253.905318 
L 110.335561 253.550682 
L 117.772007 253.550682 
L 117.772007 253.196047 
L 122.499621 253.196047 
L 122.499621 252.841412 
L 123.08753 252.841412 
L 123.08753 252.486776 
L 128.999044 252.486776 
L 128.999044 251.777506 
L 129.417095 251.777506 
L 129.417095 251.422871 
L 131.378407 251.422871 
L 131.378407 251.068235 
L 139.191172 251.068235 
L 139.191172 250.7136 
L 140.14993 250.7136 
L 140.14993 250.358965 
L 140.611586 250.358965 
L 140.611586 250.004329 
L 141.062184 250.004329 
L 141.062184 249.649694 
L 141.718467 249.649694 
L 141.718467 248.940424 
L 142.559347 248.940424 
L 142.559347 247.876518 
L 142.966099 247.876518 
L 142.966099 247.521882 
L 145.237585 247.521882 
L 145.237585 246.812612 
L 145.765046 246.812612 
L 145.765046 246.457976 
L 149.238092 246.457976 
L 149.238092 244.6848 
L 151.024471 244.6848 
L 151.024471 244.330165 
L 152.775647 244.330165 
L 152.775647 243.975529 
L 154.703817 243.975529 
L 154.703817 242.911624 
L 155.13016 242.911624 
L 155.13016 242.556988 
L 156.550574 242.556988 
L 156.550574 241.847718 
L 158.760826 241.847718 
L 158.760826 241.138447 
L 159.61025 241.138447 
L 159.61025 240.429176 
L 161.202028 240.429176 
L 161.202028 239.719906 
L 161.950101 239.719906 
L 161.950101 239.365271 
L 163.294355 239.365271 
L 163.294355 238.301365 
L 165.604634 238.301365 
L 165.604634 237.592094 
L 165.904188 237.592094 
L 165.96353 236.528188 
L 166.888401 236.528188 
L 166.944723 235.109647 
L 167.444174 235.109647 
L 167.444174 234.045741 
L 167.930707 234.045741 
L 167.930707 233.691106 
L 168.404973 233.691106 
L 168.404973 233.336471 
L 168.816733 233.336471 
L 168.816733 232.6272 
L 169.06958 232.6272 
L 169.06958 232.272565 
L 169.467197 232.272565 
L 169.467197 231.917929 
L 171.82171 231.917929 
L 171.82171 231.208659 
L 172.080292 231.208659 
L 172.080292 230.854024 
L 172.752956 230.854024 
L 172.794209 229.790118 
L 172.99913 229.790118 
L 172.99913 229.435482 
L 173.56131 229.435482 
L 173.56131 229.080847 
L 173.991531 229.080847 
L 173.991531 226.953035 
L 174.336355 226.953035 
L 174.336355 226.243765 
L 174.525228 226.243765 
L 174.525228 225.179859 
L 174.934191 225.179859 
L 174.934191 224.470588 
L 175.080727 224.470588 
L 175.080727 221.988141 
L 175.477915 221.988141 
L 175.477915 220.924235 
L 177.314646 220.924235 
L 177.314646 219.860329 
L 177.508083 219.860329 
L 177.508083 219.505694 
L 177.667774 219.505694 
L 177.667774 218.087153 
L 178.29332 218.087153 
L 178.29332 217.732518 
L 179.311218 217.732518 
L 179.398443 216.668612 
L 179.542926 216.668612 
L 179.542926 216.313976 
L 180.524377 216.313976 
L 180.524377 215.959341 
L 180.714669 215.959341 
L 180.714669 215.604706 
L 181.483135 215.604706 
L 181.483135 214.5408 
L 183.123199 214.5408 
L 183.123199 213.831529 
L 183.383162 213.831529 
L 183.383162 212.767624 
L 183.50015 212.767624 
L 183.50015 212.412988 
L 183.75499 212.412988 
L 183.75499 212.058353 
L 184.850033 212.058353 
L 184.850033 211.703718 
L 185.130164 211.703718 
L 185.130164 210.994447 
L 185.698978 210.994447 
L 185.698978 210.285176 
L 186.170316 210.285176 
L 186.170316 209.930541 
L 186.491374 209.930541 
L 186.491374 209.221271 
L 186.885142 209.221271 
L 186.885142 208.866635 
L 187.175151 208.866635 
L 187.175151 208.157365 
L 188.037615 208.157365 
L 188.037615 207.448094 
L 188.579512 207.448094 
L 188.579512 206.738824 
L 188.862265 206.738824 
L 188.862265 205.674918 
L 189.071575 205.674918 
L 189.175363 204.611012 
L 189.449364 204.611012 
L 189.449364 204.256376 
L 189.719432 204.256376 
L 189.786347 203.192471 
L 190.018694 203.192471 
L 190.117399 200.710024 
L 190.810026 200.710024 
L 190.873179 198.936847 
L 191.278582 198.936847 
L 191.278582 198.582212 
L 191.478054 198.582212 
L 191.478054 198.227576 
L 191.795875 198.227576 
L 191.795875 197.518306 
L 192.299324 197.518306 
L 192.401323 196.4544 
L 192.661095 196.4544 
L 192.661095 195.745129 
L 192.803878 195.745129 
L 192.803878 194.681224 
L 192.945585 194.681224 
L 192.945585 193.617318 
L 193.253634 193.617318 
L 193.336779 191.489506 
L 193.597674 191.489506 
L 193.652141 190.780235 
L 194.18831 190.780235 
L 194.18831 189.716329 
L 194.319998 189.716329 
L 194.333116 187.943153 
L 194.463797 187.943153 
L 194.515817 186.169976 
L 194.926874 186.169976 
L 194.95227 184.3968 
L 195.329141 184.3968 
L 195.329141 184.042165 
L 195.514783 184.042165 
L 195.514783 182.978259 
L 196.416468 182.978259 
L 196.416468 182.623624 
L 197.039921 182.623624 
L 197.039921 181.914353 
L 197.254461 181.914353 
L 197.254461 180.141176 
L 197.366401 180.141176 
L 197.366401 178.368 
L 197.47768 178.368 
L 197.555185 177.304094 
L 197.76396 177.304094 
L 197.76396 176.949459 
L 197.894634 176.949459 
L 197.894634 176.240188 
L 198.15329 176.240188 
L 198.15329 175.885553 
L 198.270663 175.885553 
L 198.270663 175.530918 
L 198.888005 175.530918 
L 198.888005 174.821647 
L 199.12328 174.821647 
L 199.12328 174.112376 
L 199.254972 174.112376 
L 199.305378 172.3392 
L 199.693978 172.3392 
L 199.693978 171.984565 
L 199.958382 171.984565 
L 199.987532 170.211388 
L 200.122972 170.211388 
L 200.151868 169.147482 
L 200.295688 169.147482 
L 200.295688 168.792847 
L 200.532971 168.792847 
L 200.598878 167.728941 
L 200.860218 167.728941 
L 200.860218 167.019671 
L 201.026326 167.019671 
L 201.081371 165.955765 
L 201.809129 165.955765 
L 201.844348 165.246494 
L 201.932109 165.246494 
L 201.958358 164.537224 
L 202.687247 164.537224 
L 202.787911 160.990871 
L 202.804636 160.990871 
L 202.804636 159.572329 
L 203.045494 159.572329 
L 203.045494 159.217694 
L 203.201641 159.217694 
L 203.275156 157.799153 
L 203.332136 157.799153 
L 203.332136 157.444518 
L 203.461732 157.444518 
L 203.534239 155.316706 
L 203.622481 155.316706 
L 203.67842 153.543529 
L 203.789802 153.543529 
L 203.88475 151.415718 
L 203.987072 151.415718 
L 204.096647 149.997176 
L 204.436927 149.997176 
L 204.436927 149.642541 
L 204.680593 149.642541 
L 204.680593 147.514729 
L 204.921144 147.514729 
L 204.921144 146.450824 
L 205.385924 146.450824 
L 205.487667 145.386918 
L 205.610477 145.386918 
L 205.617676 144.323012 
L 205.882129 144.323012 
L 205.882129 143.968376 
L 206.044664 143.968376 
L 206.086834 142.1952 
L 206.191849 142.1952 
L 206.191849 141.485929 
L 206.749014 141.485929 
L 206.749014 141.131294 
L 206.917698 141.131294 
L 206.96466 140.067388 
L 207.118143 140.067388 
L 207.118143 139.358118 
L 207.369012 139.358118 
L 207.473648 136.521035 
L 207.512737 136.521035 
L 207.538751 134.747859 
L 207.706972 134.747859 
L 207.739151 134.038588 
L 208.259173 134.038588 
L 208.358986 132.620047 
L 208.922853 132.620047 
L 209.001185 129.428329 
L 209.103128 129.428329 
L 209.103128 128.719059 
L 209.234241 128.719059 
L 209.234241 128.009788 
L 209.52302 128.009788 
L 209.627999 126.591247 
L 209.715036 126.591247 
L 209.715036 125.527341 
L 210.081934 125.527341 
L 210.161248 124.463435 
L 210.39162 124.463435 
L 210.430671 123.044894 
L 210.723743 123.044894 
L 210.833161 121.626353 
L 210.914808 121.626353 
L 210.914808 121.271718 
L 211.168366 121.271718 
L 211.275235 118.789271 
L 211.323129 118.789271 
L 211.386798 117.370729 
L 211.545034 117.370729 
L 211.655013 115.952188 
L 211.681104 115.952188 
L 211.75916 112.405835 
L 211.795476 112.405835 
L 211.795476 112.0512 
L 211.919458 112.0512 
L 211.981143 111.341929 
L 212.068187 111.341929 
L 212.068187 109.568753 
L 212.19039 109.568753 
L 212.19039 109.214118 
L 212.301716 109.214118 
L 212.367191 108.150212 
L 212.522411 108.150212 
L 212.587124 107.440941 
L 212.804516 107.440941 
L 212.804516 107.086306 
L 212.931803 107.086306 
L 213.024279 105.313129 
L 213.072769 105.313129 
L 213.072769 103.894588 
L 213.365879 103.894588 
L 213.442011 99.284329 
L 213.729467 99.284329 
L 213.729467 98.220424 
L 213.878526 98.220424 
L 213.878526 97.156518 
L 214.118255 97.156518 
L 214.118255 96.801882 
L 214.282449 96.801882 
L 214.382089 95.737976 
L 214.404662 95.737976 
L 214.413683 94.674071 
L 214.521602 94.674071 
L 214.521602 94.319435 
L 214.691217 94.319435 
L 214.801978 92.191624 
L 214.920871 92.191624 
L 214.920871 91.836988 
L 215.104336 91.836988 
L 215.208375 90.063812 
L 215.242928 90.063812 
L 215.242928 89.354541 
L 215.423293 89.354541 
L 215.465984 88.290635 
L 215.551075 88.290635 
L 215.635783 87.581365 
L 215.665341 87.581365 
L 215.728524 86.872094 
L 215.883473 86.872094 
L 215.987451 84.744282 
L 216.004034 84.744282 
L 216.049562 81.197929 
L 216.17728 81.197929 
L 216.222392 80.134024 
L 216.304137 80.134024 
L 216.324518 79.070118 
L 216.438245 79.070118 
L 216.53518 78.006212 
L 216.595513 78.006212 
L 216.595513 77.651576 
L 216.711609 77.651576 
L 216.80715 75.523765 
L 216.862659 75.523765 
L 216.914056 74.105224 
L 216.992857 74.105224 
L 217.067412 72.332047 
L 217.118254 72.332047 
L 217.20787 71.622776 
L 217.238941 71.622776 
L 217.238941 71.268141 
L 217.385832 71.268141 
L 217.493338 70.204235 
L 217.569753 70.204235 
L 217.596425 69.140329 
L 217.695164 69.140329 
L 217.774538 67.012518 
L 217.846065 67.012518 
L 217.921063 65.593976 
L 217.962186 65.593976 
L 218.010669 64.884706 
L 218.096143 64.884706 
L 218.177538 63.466165 
L 218.302642 63.466165 
L 218.4014 61.338353 
L 218.448766 61.338353 
L 218.448766 60.983718 
L 218.56847 60.983718 
L 218.665846 59.919812 
L 218.830593 59.919812 
L 218.880449 58.855906 
L 218.983303 58.855906 
L 219.082079 56.728094 
L 219.222294 56.728094 
L 219.222294 56.018824 
L 219.447939 56.018824 
L 219.509949 54.245647 
L 219.588888 54.245647 
L 219.588888 51.053929 
L 219.718588 51.053929 
L 219.772933 50.344659 
L 219.850778 50.344659 
L 219.941753 49.280753 
L 219.971981 49.280753 
L 220.079064 47.507576 
L 220.327679 47.507576 
L 220.327679 47.152941 
L 220.485085 47.152941 
L 220.530748 46.089035 
L 220.7123 46.089035 
L 220.821679 44.315859 
L 220.828093 44.315859 
L 220.895312 43.606588 
L 221.029032 43.606588 
L 221.029032 43.251953 
L 221.221568 43.251953 
L 221.221568 42.897318 
L 221.483516 42.897318 
L 221.585434 41.478776 
L 221.686802 41.478776 
L 221.787628 38.641694 
L 221.881853 38.641694 
L 221.942394 37.932424 
L 222.149777 37.932424 
L 222.206483 37.223153 
L 222.487479 37.223153 
L 222.587034 36.513882 
L 222.715094 36.513882 
L 222.715094 36.159247 
L 222.836524 36.159247 
L 222.836524 35.095341 
L 222.997222 35.095341 
L 222.997222 34.740706 
L 223.280811 34.740706 
L 223.348241 34.031435 
L 223.557416 34.031435 
L 223.557416 32.967529 
L 223.783482 32.967529 
L 223.783482 32.612894 
L 224.028516 32.612894 
L 224.028516 32.258259 
L 224.222271 32.258259 
L 224.222271 31.903624 
L 224.350341 31.903624 
L 224.350341 30.839718 
L 224.606518 30.839718 
L 224.624871 30.130447 
L 224.802229 30.130447 
L 224.802229 29.775812 
L 225.060049 29.775812 
L 225.060049 29.421176 
L 225.334583 29.421176 
L 225.334583 29.066541 
L 225.795734 29.066541 
L 225.886623 28.357271 
L 225.994139 28.357271 
L 225.994139 27.648 
L 360.8064 27.648 
L 360.8064 27.648 
" style="fill:none;stroke:#000080;stroke-linecap:square;stroke-width:1.5;"/>
   </g>
   <g id="line2d_36">
    <defs>
     <path d="M 0 6 
C 1.591219 6 3.117479 5.367802 4.242641 4.242641 
C 5.367802 3.117479 6 1.591219 6 0 
C 6 -1.591219 5.367802 -3.117479 4.242641 -4.242641 
C 3.117479 -5.367802 1.591219 -6 0 -6 
C -1.591219 -6 -3.117479 -5.367802 -4.242641 -4.242641 
C -5.367802 -3.117479 -6 -1.591219 -6 0 
C -6 1.591219 -5.367802 3.117479 -4.242641 4.242641 
C -3.117479 5.367802 -1.591219 6 0 6 
z
" id="m1928ce55f6" style="stroke:#000080;stroke-width:1.5;"/>
    </defs>
    <g>
     <use style="fill-opacity:0;stroke:#000080;stroke-width:1.5;" x="161.202028" xlink:href="#m1928ce55f6" y="239.719906"/>
     <use style="fill-opacity:0;stroke:#000080;stroke-width:1.5;" x="198.15329" xlink:href="#m1928ce55f6" y="176.240188"/>
     <use style="fill-opacity:0;stroke:#000080;stroke-width:1.5;" x="225.994139" xlink:href="#m1928ce55f6" y="28.357271"/>
     <use style="fill-opacity:0;stroke:#000080;stroke-width:1.5;" x="225.994139" xlink:href="#m1928ce55f6" y="27.648"/>
     <use style="fill-opacity:0;stroke:#000080;stroke-width:1.5;" x="225.994139" xlink:href="#m1928ce55f6" y="27.648"/>
     <use style="fill-opacity:0;stroke:#000080;stroke-width:1.5;" x="360.8064" xlink:href="#m1928ce55f6" y="27.648"/>
    </g>
   </g>
   <g id="line2d_37">
    <path style="fill:none;stroke:#000080;stroke-linecap:square;stroke-width:1.5;"/>
    <g/>
   </g>
   <g id="line2d_38">
    <defs>
     <path d="M 0 1.5 
C 0.397805 1.5 0.77937 1.341951 1.06066 1.06066 
C 1.341951 0.77937 1.5 0.397805 1.5 0 
C 1.5 -0.397805 1.341951 -0.77937 1.06066 -1.06066 
C 0.77937 -1.341951 0.397805 -1.5 0 -1.5 
C -0.397805 -1.5 -0.77937 -1.341951 -1.06066 -1.06066 
C -1.341951 -0.77937 -1.5 -0.397805 -1.5 0 
C -1.5 0.397805 -1.341951 0.77937 -1.06066 1.06066 
C -0.77937 1.341951 -0.397805 1.5 0 1.5 
z
" id="mc025214686" style="stroke:#ff00ff;"/>
    </defs>
    <g>
     <use style="fill:#ff00ff;stroke:#ff00ff;" x="306.330969" xlink:href="#mc025214686" y="27.648"/>
     <use style="fill:#ff00ff;stroke:#ff00ff;" x="306.330969" xlink:href="#mc025214686" y="27.648"/>
    </g>
   </g>
   <g id="line2d_39">
    <path d="M 44.560826 298.944 
L 44.560826 271.991718 
L 57.6 271.991718 
L 57.6 268.8 
L 65.227428 268.8 
L 65.227428 266.672188 
L 70.639174 266.672188 
L 70.639174 264.189741 
L 74.836851 264.189741 
L 74.836851 259.579482 
L 81.166416 259.579482 
L 81.166416 258.870212 
L 85.894031 258.870212 
L 85.894031 258.160941 
L 89.668958 258.160941 
L 89.668958 257.806306 
L 92.811505 257.806306 
L 92.811505 257.097035 
L 94.205591 257.097035 
L 94.205591 256.387765 
L 95.503454 256.387765 
L 95.503454 254.614588 
L 97.857967 254.614588 
L 97.857967 254.259953 
L 99.950294 254.259953 
L 99.950294 253.905318 
L 100.9152 253.905318 
L 100.9152 253.550682 
L 101.833019 253.550682 
L 101.833019 253.196047 
L 102.708132 253.196047 
L 102.708132 252.841412 
L 103.544339 252.841412 
L 103.544339 252.486776 
L 104.344952 252.486776 
L 104.344952 251.068235 
L 105.112877 251.068235 
L 105.112877 250.7136 
L 106.560633 250.7136 
L 106.560633 250.004329 
L 107.244765 250.004329 
L 107.244765 249.649694 
L 108.542628 249.649694 
L 108.542628 248.940424 
L 109.159456 248.940424 
L 109.159456 248.585788 
L 110.897141 248.585788 
L 110.897141 248.231153 
L 112.989468 248.231153 
L 112.989468 247.876518 
L 113.478107 247.876518 
L 113.478107 247.167247 
L 115.747307 247.167247 
L 115.747307 246.812612 
L 116.170056 246.812612 
L 116.170056 246.457976 
L 117.384126 246.457976 
L 117.384126 245.748706 
L 120.944062 245.748706 
L 120.944062 245.394071 
L 122.19863 245.394071 
L 122.19863 245.039435 
L 122.499621 245.039435 
L 122.499621 244.6848 
L 123.936316 244.6848 
L 123.936316 244.330165 
L 125.526971 244.330165 
L 125.526971 243.975529 
L 126.274549 243.975529 
L 126.274549 243.620894 
L 126.756923 243.620894 
L 126.756923 242.202353 
L 126.993549 242.202353 
L 126.993549 241.847718 
L 127.458055 241.847718 
L 127.458055 241.493082 
L 127.911368 241.493082 
L 127.911368 240.429176 
L 128.133992 240.429176 
L 128.133992 240.074541 
L 128.57149 240.074541 
L 128.57149 239.719906 
L 128.786481 239.719906 
L 128.786481 239.365271 
L 129.622688 239.365271 
L 129.622688 239.010635 
L 130.027253 239.010635 
L 130.027253 238.656 
L 130.4233 238.656 
L 130.4233 238.301365 
L 131.191226 238.301365 
L 131.191226 237.946729 
L 131.563744 237.946729 
L 131.563744 237.592094 
L 131.747272 237.592094 
L 131.747272 237.237459 
L 131.929028 237.237459 
L 131.929028 236.882824 
L 132.109044 236.882824 
L 132.109044 236.173553 
L 133.154399 236.173553 
L 133.154399 235.464282 
L 133.323114 235.464282 
L 133.323114 235.109647 
L 133.490329 235.109647 
L 133.490329 234.755012 
L 134.14471 234.755012 
L 134.14471 234.045741 
L 134.463557 234.045741 
L 134.463557 233.691106 
L 135.085483 233.691106 
L 135.085483 230.854024 
L 136.696795 230.854024 
L 136.696795 230.499388 
L 137.520791 230.499388 
L 137.520791 228.726212 
L 138.050729 228.726212 
L 138.050729 228.371576 
L 138.438609 228.371576 
L 138.438609 227.662306 
L 138.566146 227.662306 
L 138.566146 226.953035 
L 138.692823 226.953035 
L 138.692823 226.5984 
L 139.067817 226.5984 
L 139.067817 226.243765 
L 139.796097 226.243765 
L 139.796097 225.179859 
L 140.611586 225.179859 
L 140.611586 224.825224 
L 140.950542 224.825224 
L 140.950542 224.470588 
L 141.283499 224.470588 
L 141.283499 224.115953 
L 141.718467 224.115953 
L 141.718467 223.761318 
L 142.248405 223.761318 
L 142.248405 223.052047 
L 142.559347 223.052047 
L 142.559347 222.342776 
L 143.066428 222.342776 
L 143.066428 220.924235 
L 143.364242 220.924235 
L 143.364242 220.214965 
L 143.946089 220.214965 
L 144.041338 219.151059 
L 144.136106 219.151059 
L 144.136106 218.441788 
L 145.237585 218.441788 
L 145.237585 217.377882 
L 145.765046 217.377882 
L 145.765046 216.313976 
L 145.93763 216.313976 
L 145.93763 215.604706 
L 146.193574 215.604706 
L 146.27812 214.895435 
L 147.423525 214.895435 
L 147.423525 213.476894 
L 147.73837 213.476894 
L 147.816265 212.412988 
L 148.048032 212.412988 
L 148.048032 211.703718 
L 148.276979 211.703718 
L 148.352679 210.285176 
L 148.726679 210.285176 
L 148.726679 209.221271 
L 149.093387 209.221271 
L 149.093387 208.866635 
L 149.524205 208.866635 
L 149.524205 208.512 
L 149.665646 208.512 
L 149.665646 207.448094 
L 149.945377 207.448094 
L 150.014665 206.384188 
L 150.152479 206.384188 
L 150.152479 206.029553 
L 150.492661 206.029553 
L 150.492661 205.674918 
L 151.024471 205.674918 
L 151.089903 203.901741 
L 152.045009 203.901741 
L 152.106991 203.192471 
L 152.230346 203.192471 
L 152.230346 202.837835 
L 152.894708 202.837835 
L 152.894708 201.419294 
L 153.478964 201.419294 
L 153.478964 201.064659 
L 153.593669 201.064659 
L 153.593669 200.710024 
L 153.877408 200.710024 
L 153.933646 200.000753 
L 153.989717 200.000753 
L 153.989717 198.227576 
L 154.595705 198.227576 
L 154.595705 196.099765 
L 154.811312 196.099765 
L 154.918196 195.035859 
L 154.971412 195.035859 
L 154.971412 194.681224 
L 155.752086 194.681224 
L 155.752086 194.326588 
L 155.954908 194.326588 
L 155.954908 193.971953 
L 156.105602 193.971953 
L 156.155566 192.908047 
L 156.403417 192.908047 
L 156.501649 190.780235 
L 156.793307 190.780235 
L 156.793307 190.4256 
L 157.080512 190.4256 
L 157.080512 189.007059 
L 157.269574 189.007059 
L 157.269574 187.943153 
L 157.916719 187.943153 
L 157.916719 187.233882 
L 158.976805 187.233882 
L 158.976805 186.879247 
L 159.527013 186.879247 
L 159.527013 186.169976 
L 160.343261 186.169976 
L 160.343261 185.460706 
L 160.777545 185.460706 
L 160.777545 184.751435 
L 161.240147 184.751435 
L 161.240147 182.978259 
L 161.950101 182.978259 
L 161.950101 181.559718 
L 162.810208 181.559718 
L 162.810208 180.850447 
L 162.949812 180.850447 
L 162.949812 180.495812 
L 163.666204 180.495812 
L 163.666204 180.141176 
L 164.161708 180.141176 
L 164.161708 179.786541 
L 164.291668 179.786541 
L 164.291668 179.431906 
L 164.771172 179.431906 
L 164.771172 179.077271 
L 165.483464 179.077271 
L 165.51383 178.013365 
L 166.344759 178.013365 
L 166.344759 177.304094 
L 166.546881 177.304094 
L 166.546881 176.949459 
L 166.775248 176.949459 
L 166.83191 175.885553 
L 167.028891 175.885553 
L 167.028891 174.112376 
L 167.877265 174.112376 
L 167.877265 170.566024 
L 170.261661 170.566024 
L 170.261661 170.211388 
L 170.9104 170.211388 
L 170.9104 169.856753 
L 171.20416 169.856753 
L 171.20416 169.502118 
L 171.537509 169.502118 
L 171.537509 168.083576 
L 171.669213 168.083576 
L 171.778266 166.3104 
L 174.600249 166.3104 
L 174.600249 165.955765 
L 175.189886 165.955765 
L 175.189886 165.601129 
L 177.217177 165.601129 
L 177.217177 164.182588 
L 177.475981 164.182588 
L 177.572122 162.764047 
L 177.715419 162.764047 
L 177.715419 162.409412 
L 178.169864 162.409412 
L 178.169864 162.054776 
L 182.895758 162.054776 
L 182.895758 161.700141 
L 183.300836 161.700141 
L 183.300836 161.345506 
L 183.628001 161.345506 
L 183.651154 159.926965 
L 185.636619 159.926965 
L 185.636619 156.735247 
L 190.297025 156.735247 
L 190.297025 156.380612 
L 191.05357 156.380612 
L 191.05357 156.025976 
L 191.870762 156.025976 
L 191.870762 155.316706 
L 192.034471 155.316706 
L 192.07148 153.188894 
L 192.306628 153.188894 
L 192.386785 152.479624 
L 192.444868 152.479624 
L 192.444868 152.124988 
L 192.5821 152.124988 
L 192.5821 151.770353 
L 192.839405 151.770353 
L 192.853597 150.706447 
L 193.016041 150.706447 
L 193.016041 149.642541 
L 194.062346 149.642541 
L 194.062346 149.287906 
L 195.103926 149.287906 
L 195.198093 147.869365 
L 197.975847 147.869365 
L 197.975847 147.160094 
L 198.270663 147.160094 
L 198.270663 146.805459 
L 199.350628 146.805459 
L 199.350628 146.450824 
L 199.654489 146.450824 
L 199.65943 145.032282 
L 199.782526 145.032282 
L 199.83154 143.613741 
L 199.958382 143.613741 
L 200.031173 142.904471 
L 200.094031 142.904471 
L 200.1663 141.131294 
L 200.433677 141.131294 
L 200.433677 140.067388 
L 201.826747 140.067388 
L 201.826747 138.648847 
L 202.783727 138.648847 
L 202.783727 138.294212 
L 203.510101 138.294212 
L 203.5744 136.875671 
L 203.642478 136.875671 
L 203.642478 136.1664 
L 204.217222 136.1664 
L 204.224974 133.683953 
L 204.363977 133.683953 
L 204.436927 132.974682 
L 204.49814 132.974682 
L 204.501959 131.910776 
L 204.623767 131.910776 
L 204.729705 130.846871 
L 204.793735 130.846871 
L 204.793735 130.1376 
L 206.799778 130.1376 
L 206.799778 129.782965 
L 210.04784 129.782965 
L 210.124466 128.364424 
L 210.178201 128.364424 
L 210.217697 126.945882 
L 210.307664 126.945882 
L 210.335691 126.236612 
L 210.469641 126.236612 
L 210.575013 124.818071 
L 212.659042 124.818071 
L 212.750403 124.1088 
L 212.799603 124.1088 
L 212.860922 123.044894 
L 212.922042 123.044894 
L 212.978098 120.917082 
L 213.055812 120.917082 
L 213.140445 119.143906 
L 213.289439 119.143906 
L 213.356341 116.661459 
L 213.562712 116.661459 
L 213.567429 115.597553 
L 213.67561 115.597553 
L 213.743492 113.824376 
L 213.825094 113.824376 
L 213.825094 113.469741 
L 214.035617 113.469741 
L 214.035617 113.115106 
L 215.652679 113.115106 
L 215.728524 110.987294 
L 215.854256 110.987294 
L 215.945929 109.568753 
L 215.993671 109.568753 
L 216.088794 107.795576 
L 216.11353 107.795576 
L 216.11353 107.440941 
L 217.380055 107.440941 
L 217.380055 107.086306 
L 218.921303 107.086306 
L 219.002746 106.0224 
L 219.032756 106.0224 
L 219.089115 103.894588 
L 223.223023 103.894588 
L 223.223023 103.539953 
L 229.963099 103.539953 
L 229.963099 103.185318 
L 231.403144 103.185318 
L 231.403144 102.830682 
L 232.830752 102.830682 
L 232.830752 102.121412 
L 238.625676 102.121412 
L 238.625676 101.412141 
L 238.968633 101.412141 
L 238.968633 101.057506 
L 239.105056 101.057506 
L 239.105056 100.702871 
L 240.24864 100.702871 
L 240.24864 99.9936 
L 243.146251 99.9936 
L 243.146251 99.284329 
L 249.772556 99.284329 
L 249.772556 98.929694 
L 251.796666 98.929694 
L 251.796666 98.220424 
L 255.714542 98.220424 
L 255.714542 97.865788 
L 260.410397 97.865788 
L 260.410397 97.511153 
L 261.172346 97.511153 
L 261.269729 80.488659 
L 261.294369 80.488659 
L 261.357131 78.715482 
L 261.434872 78.715482 
L 261.4739 77.651576 
L 261.608672 77.651576 
L 261.692872 73.041318 
L 261.840048 73.041318 
L 261.924124 69.494965 
L 261.999023 69.494965 
L 262.056257 65.239341 
L 262.347427 65.239341 
L 262.375276 63.111529 
L 262.521598 63.111529 
L 262.600426 59.565176 
L 262.743459 59.565176 
L 262.77866 58.146635 
L 263.03872 58.146635 
L 263.0411 57.082729 
L 264.909872 57.082729 
L 264.909872 56.728094 
L 270.079866 56.728094 
L 270.079866 56.373459 
L 274.189727 56.373459 
L 274.256997 48.571482 
L 274.328599 48.571482 
L 274.424173 46.089035 
L 274.457005 46.089035 
L 274.540033 44.315859 
L 274.627655 44.315859 
L 274.641149 43.606588 
L 274.788397 43.606588 
L 274.887919 41.833412 
L 274.90177 41.833412 
L 275.010955 38.996329 
L 275.148383 38.996329 
L 275.157134 37.932424 
L 279.174176 37.932424 
L 279.174176 37.577788 
L 281.822418 37.577788 
L 281.835819 34.740706 
L 282.046774 34.740706 
L 282.11474 32.967529 
L 282.223468 32.967529 
L 282.301185 32.258259 
L 282.356796 32.258259 
L 282.462201 31.548988 
L 287.231251 31.548988 
L 287.291863 30.485082 
L 287.448676 30.485082 
L 287.448676 30.130447 
L 287.632087 30.130447 
L 287.632087 29.775812 
L 291.426578 29.775812 
L 291.508696 29.066541 
L 291.544148 29.066541 
L 291.544148 28.711906 
L 291.70123 28.711906 
L 291.70123 28.357271 
L 294.899953 28.357271 
L 294.899953 28.002635 
L 306.330969 28.002635 
L 306.330969 27.648 
L 360.8064 27.648 
L 360.8064 27.648 
" style="fill:none;stroke:#ff00ff;stroke-linecap:square;stroke-width:1.5;"/>
   </g>
   <g id="line2d_40">
    <defs>
     <path d="M -0 8.485281 
L 5.091169 0 
L 0 -8.485281 
L -5.091169 -0 
z
" id="m0d0990a5e3" style="stroke:#ff00ff;stroke-linejoin:miter;stroke-width:1.5;"/>
    </defs>
    <g>
     <use style="fill-opacity:0;stroke:#ff00ff;stroke-linejoin:miter;stroke-width:1.5;" x="113.478107" xlink:href="#m0d0990a5e3" y="247.876518"/>
     <use style="fill-opacity:0;stroke:#ff00ff;stroke-linejoin:miter;stroke-width:1.5;" x="166.83191" xlink:href="#m0d0990a5e3" y="176.594824"/>
     <use style="fill-opacity:0;stroke:#ff00ff;stroke-linejoin:miter;stroke-width:1.5;" x="243.146251" xlink:href="#m0d0990a5e3" y="99.9936"/>
     <use style="fill-opacity:0;stroke:#ff00ff;stroke-linejoin:miter;stroke-width:1.5;" x="306.330969" xlink:href="#m0d0990a5e3" y="28.002635"/>
     <use style="fill-opacity:0;stroke:#ff00ff;stroke-linejoin:miter;stroke-width:1.5;" x="306.330969" xlink:href="#m0d0990a5e3" y="27.648"/>
     <use style="fill-opacity:0;stroke:#ff00ff;stroke-linejoin:miter;stroke-width:1.5;" x="360.8064" xlink:href="#m0d0990a5e3" y="27.648"/>
    </g>
   </g>
   <g id="line2d_41">
    <path style="fill:none;stroke:#ff00ff;stroke-linecap:square;stroke-width:1.5;"/>
    <g/>
   </g>
   <g id="line2d_42">
    <path clip-path="url(#p8d3849f23c)" d="M 261.137202 97.511153 
" style="fill:none;stroke:#ff00ff;stroke-linecap:square;stroke-width:1.5;"/>
    <defs>
     <path d="M -12 12 
L 12 -12 
M -12 -12 
L 12 12 
" id="m372269b584" style="stroke:#ff00ff;"/>
    </defs>
    <g clip-path="url(#p8d3849f23c)">
     <use style="fill:#ff00ff;stroke:#ff00ff;" x="261.137202" xlink:href="#m372269b584" y="97.511153"/>
    </g>
   </g>
   <g id="line2d_43">
    <defs>
     <path d="M 0 1.5 
C 0.397805 1.5 0.77937 1.341951 1.06066 1.06066 
C 1.341951 0.77937 1.5 0.397805 1.5 0 
C 1.5 -0.397805 1.341951 -0.77937 1.06066 -1.06066 
C 0.77937 -1.341951 0.397805 -1.5 0 -1.5 
C -0.397805 -1.5 -0.77937 -1.341951 -1.06066 -1.06066 
C -1.341951 -0.77937 -1.5 -0.397805 -1.5 0 
C -1.5 0.397805 -1.341951 0.77937 -1.06066 1.06066 
C -0.77937 1.341951 -0.397805 1.5 0 1.5 
z
" id="mdb057c29f3" style="stroke:#ff7500;"/>
    </defs>
    <g>
     <use style="fill:#ff7500;stroke:#ff7500;" x="300.461611" xlink:href="#mdb057c29f3" y="27.648"/>
     <use style="fill:#ff7500;stroke:#ff7500;" x="300.461611" xlink:href="#mdb057c29f3" y="27.648"/>
    </g>
   </g>
   <g id="line2d_44">
    <path d="M 44.560826 298.944 
L 44.560826 280.8576 
L 57.6 280.8576 
L 57.6 273.055624 
L 65.227428 273.055624 
L 65.227428 268.445365 
L 70.639174 268.445365 
L 70.639174 266.672188 
L 74.836851 266.672188 
L 74.836851 265.608282 
L 78.266603 265.608282 
L 78.266603 263.835106 
L 81.166416 263.835106 
L 81.166416 263.480471 
L 83.678349 263.480471 
L 83.678349 260.643388 
L 85.894031 260.643388 
L 85.894031 259.224847 
L 91.305777 259.224847 
L 91.305777 258.870212 
L 92.811505 258.870212 
L 92.811505 258.515576 
L 94.205591 258.515576 
L 94.205591 258.160941 
L 96.717523 258.160941 
L 96.717523 257.806306 
L 97.857967 257.806306 
L 97.857967 257.097035 
L 100.9152 257.097035 
L 100.9152 256.7424 
L 102.708132 256.7424 
L 102.708132 256.033129 
L 110.335561 256.033129 
L 110.335561 255.678494 
L 113.954374 255.678494 
L 113.954374 255.323859 
L 119.599808 255.323859 
L 119.599808 254.969224 
L 119.944983 254.969224 
L 119.944983 254.614588 
L 121.892744 254.614588 
L 121.892744 253.905318 
L 122.19863 253.905318 
L 122.19863 253.550682 
L 122.499621 253.550682 
L 122.499621 253.196047 
L 126.756923 253.196047 
L 126.756923 251.422871 
L 126.993549 251.422871 
L 126.993549 250.358965 
L 128.133992 250.358965 
L 128.133992 250.004329 
L 131.002163 250.004329 
L 131.002163 248.585788 
L 142.248405 248.585788 
L 142.248405 247.521882 
L 144.786447 247.521882 
L 144.786447 247.167247 
L 146.193574 247.167247 
L 146.193574 246.812612 
L 147.103321 246.812612 
L 147.103321 246.103341 
L 152.045009 246.103341 
L 152.045009 243.620894 
L 154.322673 243.620894 
L 154.322673 243.266259 
L 155.954908 243.266259 
L 155.954908 242.556988 
L 157.222487 242.556988 
L 157.222487 242.202353 
L 158.14255 242.202353 
L 158.187393 241.493082 
L 162.31327 241.493082 
L 162.31327 240.429176 
L 162.634233 240.429176 
L 162.634233 239.719906 
L 163.498092 239.719906 
L 163.498092 238.301365 
L 166.022686 238.301365 
L 166.022686 236.528188 
L 167.607754 236.528188 
L 167.607754 235.818918 
L 169.219673 235.818918 
L 169.219673 235.464282 
L 169.343842 235.464282 
L 169.343842 234.755012 
L 171.756506 234.755012 
L 171.756506 233.691106 
L 172.670177 233.691106 
L 172.670177 232.981835 
L 173.462145 232.981835 
L 173.462145 232.6272 
L 174.431028 232.6272 
L 174.431028 232.272565 
L 175.849382 232.272565 
L 175.849382 231.917929 
L 176.316452 231.917929 
L 176.316452 231.563294 
L 182.183951 231.563294 
L 182.183951 231.208659 
L 186.129796 231.208659 
L 186.129796 230.144753 
L 188.809572 230.144753 
L 188.809572 229.435482 
L 189.643866 229.435482 
L 189.643866 228.726212 
L 189.944323 228.726212 
L 190.010445 228.016941 
L 190.109194 228.016941 
L 190.109194 227.662306 
L 190.337611 227.662306 
L 190.337611 226.953035 
L 190.579304 226.953035 
L 190.683081 226.243765 
L 191.022322 226.243765 
L 191.022322 225.534494 
L 191.960235 225.534494 
L 191.960235 225.179859 
L 192.240789 225.179859 
L 192.284707 224.470588 
L 192.488313 224.470588 
L 192.509998 223.052047 
L 192.881949 223.052047 
L 192.881949 221.988141 
L 193.001971 221.988141 
L 193.001971 221.633506 
L 193.570381 221.633506 
L 193.570381 220.924235 
L 193.968988 220.924235 
L 193.968988 220.214965 
L 194.214721 220.214965 
L 194.214721 219.505694 
L 194.418162 219.505694 
L 194.496327 217.377882 
L 194.696761 217.377882 
L 194.792984 215.604706 
L 195.116509 215.604706 
L 195.116509 214.895435 
L 195.310476 214.895435 
L 195.310476 214.5408 
L 195.977037 214.5408 
L 196.001054 213.476894 
L 197.06829 213.476894 
L 197.06829 213.122259 
L 197.19824 213.122259 
L 197.215124 211.703718 
L 197.46103 211.703718 
L 197.46103 210.285176 
L 197.692797 210.285176 
L 197.692797 209.575906 
L 197.959632 209.575906 
L 197.959632 208.866635 
L 200.185525 208.866635 
L 200.185525 208.157365 
L 200.528255 208.157365 
L 200.528255 207.093459 
L 200.98954 207.093459 
L 201.049281 205.674918 
L 201.367743 205.674918 
L 201.367743 204.965647 
L 201.583042 204.965647 
L 201.583042 203.901741 
L 202.347756 203.901741 
L 202.347756 203.547106 
L 202.480037 203.547106 
L 202.535234 202.4832 
L 202.754416 202.4832 
L 202.81717 200.710024 
L 203.340262 200.710024 
L 203.445581 200.000753 
L 203.570388 200.000753 
L 203.570388 199.646118 
L 205.775366 199.646118 
L 205.789636 198.227576 
L 205.938822 198.227576 
L 205.938822 197.872941 
L 206.135914 197.872941 
L 206.135914 196.809035 
L 206.755791 196.809035 
L 206.755791 195.035859 
L 207.41159 195.035859 
L 207.41159 194.681224 
L 207.645681 194.681224 
L 207.752007 193.617318 
L 207.816155 193.617318 
L 207.91834 191.844141 
L 208.089528 191.844141 
L 208.183964 190.780235 
L 209.103128 190.780235 
L 209.103128 190.4256 
L 212.38478 190.4256 
L 212.38478 189.361694 
L 212.816792 189.361694 
L 212.816792 188.297788 
L 212.999987 188.297788 
L 213.036413 186.879247 
L 213.133206 186.879247 
L 213.133206 185.815341 
L 213.434887 185.815341 
L 213.477592 185.106071 
L 213.638052 185.106071 
L 213.708411 184.3968 
L 213.764509 184.3968 
L 213.801815 182.978259 
L 214.086161 182.978259 
L 214.086161 182.623624 
L 214.214209 182.623624 
L 214.218766 180.141176 
L 214.341391 180.141176 
L 214.404662 177.658729 
L 214.817432 177.658729 
L 214.909894 175.176282 
L 214.934035 175.176282 
L 215.025927 172.693835 
L 215.065173 172.693835 
L 215.065173 171.984565 
L 215.369794 171.984565 
L 215.369794 170.920659 
L 215.485163 170.920659 
L 215.517085 169.502118 
L 215.659012 169.502118 
L 215.751638 167.728941 
L 215.839631 167.728941 
L 215.86887 165.955765 
L 216.130002 165.955765 
L 216.130002 165.601129 
L 217.324123 165.601129 
L 217.324123 165.246494 
L 217.600233 165.246494 
L 217.647758 163.473318 
L 217.883601 163.473318 
L 217.883601 162.409412 
L 218.118376 162.409412 
L 218.22547 159.926965 
L 220.095741 159.926965 
L 220.095741 159.572329 
L 221.494351 159.572329 
L 221.494351 159.217694 
L 225.272655 159.217694 
L 225.272655 158.863059 
L 227.653584 158.863059 
L 227.705936 157.089882 
L 227.932591 157.089882 
L 227.932591 156.735247 
L 228.071648 156.735247 
L 228.102169 154.962071 
L 228.193435 154.962071 
L 228.285338 152.834259 
L 228.405753 152.834259 
L 228.482758 151.770353 
L 228.571138 151.770353 
L 228.677071 149.642541 
L 228.747714 149.642541 
L 228.778208 147.514729 
L 228.938281 147.514729 
L 228.95286 146.096188 
L 229.794633 146.096188 
L 229.863192 144.677647 
L 230.00252 144.677647 
L 230.00252 144.323012 
L 230.541124 144.323012 
L 230.541124 143.968376 
L 230.704013 143.968376 
L 230.811826 139.003482 
L 231.020022 139.003482 
L 231.100989 137.939576 
L 231.152921 137.939576 
L 231.241616 136.875671 
L 231.291323 136.875671 
L 231.306945 135.457129 
L 235.599176 135.457129 
L 235.700531 132.620047 
L 235.751367 132.620047 
L 235.812913 131.556141 
L 235.872816 131.556141 
L 235.903776 129.782965 
L 239.072258 129.782965 
L 239.072258 129.428329 
L 239.242303 129.428329 
L 239.324053 127.300518 
L 239.926112 127.300518 
L 239.926112 126.236612 
L 240.294267 126.236612 
L 240.294267 124.818071 
L 240.742886 124.818071 
L 240.798426 123.399529 
L 240.881983 123.399529 
L 240.929957 120.562447 
L 245.923638 120.562447 
L 246.007072 117.370729 
L 246.041938 117.370729 
L 246.117746 114.179012 
L 253.613606 114.179012 
L 253.613606 113.824376 
L 256.216239 113.824376 
L 256.216239 111.341929 
L 260.765801 111.341929 
L 260.765801 110.632659 
L 261.171031 110.632659 
L 261.237012 107.440941 
L 261.30705 107.440941 
L 261.343181 106.377035 
L 261.53533 106.377035 
L 261.630307 104.958494 
L 261.666006 104.958494 
L 261.763966 99.9936 
L 261.905714 99.9936 
L 261.94594 99.284329 
L 262.121709 99.284329 
L 262.231712 96.801882 
L 262.5912 96.801882 
L 262.695556 91.127718 
L 262.719955 91.127718 
L 262.782453 87.226729 
L 262.910081 87.226729 
L 262.967173 85.098918 
L 264.129821 85.098918 
L 264.219935 82.971106 
L 264.393343 82.971106 
L 264.404256 81.197929 
L 264.541321 81.197929 
L 264.639331 76.587671 
L 265.475436 76.587671 
L 265.506926 74.459859 
L 266.208986 74.459859 
L 266.208986 74.105224 
L 266.50502 74.105224 
L 266.50502 72.686682 
L 266.61739 72.686682 
L 266.664843 71.268141 
L 268.084042 71.268141 
L 268.120674 67.721788 
L 271.876349 67.721788 
L 271.876349 65.593976 
L 273.991592 65.593976 
L 273.991592 65.239341 
L 274.204854 65.239341 
L 274.261492 63.466165 
L 274.385518 63.466165 
L 274.496253 60.274447 
L 274.593925 60.274447 
L 274.67507 59.210541 
L 274.720994 59.210541 
L 274.723918 58.146635 
L 274.914707 58.146635 
L 275.005646 54.600282 
L 275.097133 54.600282 
L 275.108414 53.536376 
L 275.786692 53.536376 
L 275.802399 52.472471 
L 275.955332 52.472471 
L 276.010272 50.699294 
L 276.460031 50.699294 
L 276.477184 49.635388 
L 277.0511 49.635388 
L 277.142503 47.862212 
L 277.968662 47.862212 
L 277.99033 45.7344 
L 280.30211 45.7344 
L 280.30211 45.025129 
L 282.01214 45.025129 
L 282.083197 43.961224 
L 282.137731 43.961224 
L 282.175762 42.542682 
L 282.334071 42.542682 
L 282.368361 40.769506 
L 282.882631 40.769506 
L 282.892516 39.7056 
L 283.008266 39.7056 
L 283.045048 37.932424 
L 283.37341 37.932424 
L 283.37341 37.577788 
L 283.76824 37.577788 
L 283.81884 35.804612 
L 284.423405 35.804612 
L 284.423405 35.449976 
L 287.229795 35.449976 
L 287.229795 35.095341 
L 287.463951 35.095341 
L 287.489831 34.386071 
L 287.612205 34.386071 
L 287.687342 32.612894 
L 288.154838 32.612894 
L 288.154838 32.258259 
L 288.393247 32.258259 
L 288.404862 30.839718 
L 288.707773 30.839718 
L 288.707773 30.485082 
L 289.213566 30.485082 
L 289.213566 30.130447 
L 291.5188 30.130447 
L 291.58136 29.421176 
L 292.165805 29.421176 
L 292.165805 29.066541 
L 294.856111 29.066541 
L 294.860434 28.357271 
L 295.154932 28.357271 
L 295.154932 28.002635 
L 300.461611 28.002635 
L 300.461611 27.648 
L 360.8064 27.648 
L 360.8064 27.648 
" style="fill:none;stroke:#ff7500;stroke-linecap:square;stroke-width:1.5;"/>
   </g>
   <g id="line2d_45">
    <defs>
     <path d="M 0 -6 
L -1.347084 -1.854102 
L -5.706339 -1.854102 
L -2.179628 0.708204 
L -3.526712 4.854102 
L -0 2.291796 
L 3.526712 4.854102 
L 2.179628 0.708204 
L 5.706339 -1.854102 
L 1.347084 -1.854102 
z
" id="m85d2302f15" style="stroke:#ff7500;stroke-linejoin:bevel;stroke-width:1.5;"/>
    </defs>
    <g>
     <use style="fill-opacity:0;stroke:#ff7500;stroke-linejoin:bevel;stroke-width:1.5;" x="100.9152" xlink:href="#m85d2302f15" y="256.7424"/>
     <use style="fill-opacity:0;stroke:#ff7500;stroke-linejoin:bevel;stroke-width:1.5;" x="203.570388" xlink:href="#m85d2302f15" y="200.000753"/>
     <use style="fill-opacity:0;stroke:#ff7500;stroke-linejoin:bevel;stroke-width:1.5;" x="246.117746" xlink:href="#m85d2302f15" y="114.179012"/>
     <use style="fill-opacity:0;stroke:#ff7500;stroke-linejoin:bevel;stroke-width:1.5;" x="300.461611" xlink:href="#m85d2302f15" y="28.002635"/>
     <use style="fill-opacity:0;stroke:#ff7500;stroke-linejoin:bevel;stroke-width:1.5;" x="300.461611" xlink:href="#m85d2302f15" y="27.648"/>
     <use style="fill-opacity:0;stroke:#ff7500;stroke-linejoin:bevel;stroke-width:1.5;" x="360.8064" xlink:href="#m85d2302f15" y="27.648"/>
    </g>
   </g>
   <g id="line2d_46">
    <path style="fill:none;stroke:#ff7500;stroke-linecap:square;stroke-width:1.5;"/>
    <g/>
   </g>
   <g id="line2d_47">
    <path clip-path="url(#p8d3849f23c)" d="M 261.137202 110.632659 
" style="fill:none;stroke:#ff7500;stroke-linecap:square;stroke-width:1.5;"/>
    <defs>
     <path d="M -12 12 
L 12 -12 
M -12 -12 
L 12 12 
" id="mc3efb68354" style="stroke:#ff7500;"/>
    </defs>
    <g clip-path="url(#p8d3849f23c)">
     <use style="fill:#ff7500;stroke:#ff7500;" x="261.137202" xlink:href="#mc3efb68354" y="110.632659"/>
    </g>
   </g>
   <g id="line2d_48">
    <path d="M 360.8064 27.648 
L 380.514816 293.51808 
" style="fill:none;stroke:#ff00ff;stroke-linecap:square;stroke-width:1.5;"/>
    <g>
     <use style="fill-opacity:0;stroke:#ff00ff;stroke-linejoin:miter;stroke-width:1.5;" x="360.8064" xlink:href="#m0d0990a5e3" y="27.648"/>
     <use style="fill-opacity:0;stroke:#ff00ff;stroke-linejoin:miter;stroke-width:1.5;" x="380.514816" xlink:href="#m0d0990a5e3" y="293.51808"/>
    </g>
   </g>
   <g id="line2d_49">
    <path d="M 360.8064 27.648 
L 380.514816 206.70336 
" style="fill:none;stroke:#ff7500;stroke-linecap:square;stroke-width:1.5;"/>
    <g>
     <use style="fill-opacity:0;stroke:#ff7500;stroke-linejoin:bevel;stroke-width:1.5;" x="360.8064" xlink:href="#m85d2302f15" y="27.648"/>
     <use style="fill-opacity:0;stroke:#ff7500;stroke-linejoin:bevel;stroke-width:1.5;" x="380.514816" xlink:href="#m85d2302f15" y="206.70336"/>
    </g>
   </g>
   <g id="line2d_50">
    <path d="M 360.8064 27.648 
L 380.514816 119.88864 
" style="fill:none;stroke:#000080;stroke-linecap:square;stroke-width:1.5;"/>
    <g>
     <use style="fill-opacity:0;stroke:#000080;stroke-width:1.5;" x="360.8064" xlink:href="#m1928ce55f6" y="27.648"/>
     <use style="fill-opacity:0;stroke:#000080;stroke-width:1.5;" x="380.514816" xlink:href="#m1928ce55f6" y="119.88864"/>
    </g>
   </g>
   <g id="line2d_51">
    <path d="M 360.8064 298.944 
L 360.8064 27.648 
" style="fill:none;stroke:#000000;stroke-linecap:square;stroke-width:1.5;"/>
   </g>
   <g id="patch_3">
    <path d="M 57.6 298.944 
L 360.8064 298.944 
" style="fill:none;stroke:#000000;stroke-linecap:square;stroke-linejoin:miter;stroke-width:0.8;"/>
   </g>
   <g id="patch_4">
    <path d="M 57.6 27.648 
L 360.8064 27.648 
" style="fill:none;stroke:#000000;stroke-linecap:square;stroke-linejoin:miter;stroke-width:0.8;"/>
   </g>
   <g id="text_13">
    <!-- cma.fmin  -->
    <g transform="translate(386.578944 297.381205)scale(0.14 -0.14)">
     <use xlink:href="#DejaVuSans-63"/>
     <use x="54.980469" xlink:href="#DejaVuSans-6d"/>
     <use x="152.392578" xlink:href="#DejaVuSans-61"/>
     <use x="213.671875" xlink:href="#DejaVuSans-2e"/>
     <use x="245.458984" xlink:href="#DejaVuSans-66"/>
     <use x="280.664062" xlink:href="#DejaVuSans-6d"/>
     <use x="378.076172" xlink:href="#DejaVuSans-69"/>
     <use x="405.859375" xlink:href="#DejaVuSans-6e"/>
     <use x="469.238281" xlink:href="#DejaVuSans-20"/>
    </g>
   </g>
   <g id="text_14">
    <!-- diffcma b -->
    <g transform="translate(386.578944 210.566485)scale(0.14 -0.14)">
     <defs>
      <path d="M 3116 1747 
Q 3116 2381 2855 2742 
Q 2594 3103 2138 3103 
Q 1681 3103 1420 2742 
Q 1159 2381 1159 1747 
Q 1159 1113 1420 752 
Q 1681 391 2138 391 
Q 2594 391 2855 752 
Q 3116 1113 3116 1747 
z
M 1159 2969 
Q 1341 3281 1617 3432 
Q 1894 3584 2278 3584 
Q 2916 3584 3314 3078 
Q 3713 2572 3713 1747 
Q 3713 922 3314 415 
Q 2916 -91 2278 -91 
Q 1894 -91 1617 61 
Q 1341 213 1159 525 
L 1159 0 
L 581 0 
L 581 4863 
L 1159 4863 
L 1159 2969 
z
" id="DejaVuSans-62" transform="scale(0.015625)"/>
     </defs>
     <use xlink:href="#DejaVuSans-64"/>
     <use x="63.476562" xlink:href="#DejaVuSans-69"/>
     <use x="91.259766" xlink:href="#DejaVuSans-66"/>
     <use x="126.464844" xlink:href="#DejaVuSans-66"/>
     <use x="161.669922" xlink:href="#DejaVuSans-63"/>
     <use x="216.650391" xlink:href="#DejaVuSans-6d"/>
     <use x="314.0625" xlink:href="#DejaVuSans-61"/>
     <use x="375.341797" xlink:href="#DejaVuSans-20"/>
     <use x="407.128906" xlink:href="#DejaVuSans-62"/>
    </g>
   </g>
   <g id="text_15">
    <!-- different -->
    <g transform="translate(386.578944 123.751765)scale(0.14 -0.14)">
     <use xlink:href="#DejaVuSans-64"/>
     <use x="63.476562" xlink:href="#DejaVuSans-69"/>
     <use x="91.259766" xlink:href="#DejaVuSans-66"/>
     <use x="126.464844" xlink:href="#DejaVuSans-66"/>
     <use x="161.669922" xlink:href="#DejaVuSans-65"/>
     <use x="223.193359" xlink:href="#DejaVuSans-72"/>
     <use x="262.056641" xlink:href="#DejaVuSans-65"/>
     <use x="323.580078" xlink:href="#DejaVuSans-6e"/>
     <use x="386.958984" xlink:href="#DejaVuSans-74"/>
    </g>
   </g>
   <g id="text_16">
    <!-- best 2009 -->
    <g transform="translate(386.578944 36.937045)scale(0.14 -0.14)">
     <defs>
      <path d="M 703 97 
L 703 672 
Q 941 559 1184 500 
Q 1428 441 1663 441 
Q 2288 441 2617 861 
Q 2947 1281 2994 2138 
Q 2813 1869 2534 1725 
Q 2256 1581 1919 1581 
Q 1219 1581 811 2004 
Q 403 2428 403 3163 
Q 403 3881 828 4315 
Q 1253 4750 1959 4750 
Q 2769 4750 3195 4129 
Q 3622 3509 3622 2328 
Q 3622 1225 3098 567 
Q 2575 -91 1691 -91 
Q 1453 -91 1209 -44 
Q 966 3 703 97 
z
M 1959 2075 
Q 2384 2075 2632 2365 
Q 2881 2656 2881 3163 
Q 2881 3666 2632 3958 
Q 2384 4250 1959 4250 
Q 1534 4250 1286 3958 
Q 1038 3666 1038 3163 
Q 1038 2656 1286 2365 
Q 1534 2075 1959 2075 
z
" id="DejaVuSans-39" transform="scale(0.015625)"/>
     </defs>
     <use xlink:href="#DejaVuSans-62"/>
     <use x="63.476562" xlink:href="#DejaVuSans-65"/>
     <use x="125" xlink:href="#DejaVuSans-73"/>
     <use x="177.099609" xlink:href="#DejaVuSans-74"/>
     <use x="216.308594" xlink:href="#DejaVuSans-20"/>
     <use x="248.095703" xlink:href="#DejaVuSans-32"/>
     <use x="311.71875" xlink:href="#DejaVuSans-30"/>
     <use x="375.341797" xlink:href="#DejaVuSans-30"/>
     <use x="438.964844" xlink:href="#DejaVuSans-39"/>
    </g>
   </g>
   <g id="text_17">
    <!-- bbob f17, 2-D -->
    <g transform="translate(60.632064 38.111366)scale(0.102 -0.102)">
     <defs>
      <path d="M 525 4666 
L 3525 4666 
L 3525 4397 
L 1831 0 
L 1172 0 
L 2766 4134 
L 525 4134 
L 525 4666 
z
" id="DejaVuSans-37" transform="scale(0.015625)"/>
      <path d="M 1259 4147 
L 1259 519 
L 2022 519 
Q 2988 519 3436 956 
Q 3884 1394 3884 2338 
Q 3884 3275 3436 3711 
Q 2988 4147 2022 4147 
L 1259 4147 
z
M 628 4666 
L 1925 4666 
Q 3281 4666 3915 4102 
Q 4550 3538 4550 2338 
Q 4550 1131 3912 565 
Q 3275 0 1925 0 
L 628 0 
L 628 4666 
z
" id="DejaVuSans-44" transform="scale(0.015625)"/>
     </defs>
     <use xlink:href="#DejaVuSans-62"/>
     <use x="63.476562" xlink:href="#DejaVuSans-62"/>
     <use x="126.953125" xlink:href="#DejaVuSans-6f"/>
     <use x="188.134766" xlink:href="#DejaVuSans-62"/>
     <use x="251.611328" xlink:href="#DejaVuSans-20"/>
     <use x="283.398438" xlink:href="#DejaVuSans-66"/>
     <use x="318.603516" xlink:href="#DejaVuSans-31"/>
     <use x="382.226562" xlink:href="#DejaVuSans-37"/>
     <use x="445.849609" xlink:href="#DejaVuSans-2c"/>
     <use x="477.636719" xlink:href="#DejaVuSans-20"/>
     <use x="509.423828" xlink:href="#DejaVuSans-32"/>
     <use x="573.046875" xlink:href="#DejaVuSans-2d"/>
     <use x="609.130859" xlink:href="#DejaVuSans-44"/>
    </g>
    <!-- 51 targets: 100..1e-08 -->
    <g transform="translate(60.632064 49.533135)scale(0.102 -0.102)">
     <defs>
      <path d="M 691 4666 
L 3169 4666 
L 3169 4134 
L 1269 4134 
L 1269 2991 
Q 1406 3038 1543 3061 
Q 1681 3084 1819 3084 
Q 2600 3084 3056 2656 
Q 3513 2228 3513 1497 
Q 3513 744 3044 326 
Q 2575 -91 1722 -91 
Q 1428 -91 1123 -41 
Q 819 9 494 109 
L 494 744 
Q 775 591 1075 516 
Q 1375 441 1709 441 
Q 2250 441 2565 725 
Q 2881 1009 2881 1497 
Q 2881 1984 2565 2268 
Q 2250 2553 1709 2553 
Q 1456 2553 1204 2497 
Q 953 2441 691 2322 
L 691 4666 
z
" id="DejaVuSans-35" transform="scale(0.015625)"/>
      <path d="M 750 794 
L 1409 794 
L 1409 0 
L 750 0 
L 750 794 
z
M 750 3309 
L 1409 3309 
L 1409 2516 
L 750 2516 
L 750 3309 
z
" id="DejaVuSans-3a" transform="scale(0.015625)"/>
     </defs>
     <use xlink:href="#DejaVuSans-35"/>
     <use x="63.623047" xlink:href="#DejaVuSans-31"/>
     <use x="127.246094" xlink:href="#DejaVuSans-20"/>
     <use x="159.033203" xlink:href="#DejaVuSans-74"/>
     <use x="198.242188" xlink:href="#DejaVuSans-61"/>
     <use x="259.521484" xlink:href="#DejaVuSans-72"/>
     <use x="298.884766" xlink:href="#DejaVuSans-67"/>
     <use x="362.361328" xlink:href="#DejaVuSans-65"/>
     <use x="423.884766" xlink:href="#DejaVuSans-74"/>
     <use x="463.09375" xlink:href="#DejaVuSans-73"/>
     <use x="515.193359" xlink:href="#DejaVuSans-3a"/>
     <use x="548.884766" xlink:href="#DejaVuSans-20"/>
     <use x="580.671875" xlink:href="#DejaVuSans-31"/>
     <use x="644.294922" xlink:href="#DejaVuSans-30"/>
     <use x="707.917969" xlink:href="#DejaVuSans-30"/>
     <use x="771.541016" xlink:href="#DejaVuSans-2e"/>
     <use x="803.328125" xlink:href="#DejaVuSans-2e"/>
     <use x="835.115234" xlink:href="#DejaVuSans-31"/>
     <use x="898.738281" xlink:href="#DejaVuSans-65"/>
     <use x="960.261719" xlink:href="#DejaVuSans-2d"/>
     <use x="996.345703" xlink:href="#DejaVuSans-30"/>
     <use x="1059.96875" xlink:href="#DejaVuSans-38"/>
    </g>
    <!-- 15 instances -->
    <g transform="translate(60.632064 60.954904)scale(0.102 -0.102)">
     <use xlink:href="#DejaVuSans-31"/>
     <use x="63.623047" xlink:href="#DejaVuSans-35"/>
     <use x="127.246094" xlink:href="#DejaVuSans-20"/>
     <use x="159.033203" xlink:href="#DejaVuSans-69"/>
     <use x="186.816406" xlink:href="#DejaVuSans-6e"/>
     <use x="250.195312" xlink:href="#DejaVuSans-73"/>
     <use x="302.294922" xlink:href="#DejaVuSans-74"/>
     <use x="341.503906" xlink:href="#DejaVuSans-61"/>
     <use x="402.783203" xlink:href="#DejaVuSans-6e"/>
     <use x="466.162109" xlink:href="#DejaVuSans-63"/>
     <use x="521.142578" xlink:href="#DejaVuSans-65"/>
     <use x="582.666016" xlink:href="#DejaVuSans-73"/>
    </g>
   </g>
   <g id="text_18">
    <!-- v2.6 -->
    <g style="fill:#808080;" transform="translate(198.292262 294.151352)scale(0.1 -0.1)">
     <use xlink:href="#DejaVuSans-76"/>
     <use x="59.179688" xlink:href="#DejaVuSans-32"/>
     <use x="122.802734" xlink:href="#DejaVuSans-2e"/>
     <use x="154.589844" xlink:href="#DejaVuSans-36"/>
    </g>
   </g>
   <g id="text_19">
    <!-- 17 Schaffer F7, condition 10 -->
    <g transform="translate(67.895387 21.648)scale(0.2 -0.2)">
     <defs>
      <path d="M 3425 4513 
L 3425 3897 
Q 3066 4069 2747 4153 
Q 2428 4238 2131 4238 
Q 1616 4238 1336 4038 
Q 1056 3838 1056 3469 
Q 1056 3159 1242 3001 
Q 1428 2844 1947 2747 
L 2328 2669 
Q 3034 2534 3370 2195 
Q 3706 1856 3706 1288 
Q 3706 609 3251 259 
Q 2797 -91 1919 -91 
Q 1588 -91 1214 -16 
Q 841 59 441 206 
L 441 856 
Q 825 641 1194 531 
Q 1563 422 1919 422 
Q 2459 422 2753 634 
Q 3047 847 3047 1241 
Q 3047 1584 2836 1778 
Q 2625 1972 2144 2069 
L 1759 2144 
Q 1053 2284 737 2584 
Q 422 2884 422 3419 
Q 422 4038 858 4394 
Q 1294 4750 2059 4750 
Q 2388 4750 2728 4690 
Q 3069 4631 3425 4513 
z
" id="DejaVuSans-53" transform="scale(0.015625)"/>
      <path d="M 3513 2113 
L 3513 0 
L 2938 0 
L 2938 2094 
Q 2938 2591 2744 2837 
Q 2550 3084 2163 3084 
Q 1697 3084 1428 2787 
Q 1159 2491 1159 1978 
L 1159 0 
L 581 0 
L 581 4863 
L 1159 4863 
L 1159 2956 
Q 1366 3272 1645 3428 
Q 1925 3584 2291 3584 
Q 2894 3584 3203 3211 
Q 3513 2838 3513 2113 
z
" id="DejaVuSans-68" transform="scale(0.015625)"/>
     </defs>
     <use xlink:href="#DejaVuSans-31"/>
     <use x="63.623047" xlink:href="#DejaVuSans-37"/>
     <use x="127.246094" xlink:href="#DejaVuSans-20"/>
     <use x="159.033203" xlink:href="#DejaVuSans-53"/>
     <use x="222.509766" xlink:href="#DejaVuSans-63"/>
     <use x="277.490234" xlink:href="#DejaVuSans-68"/>
     <use x="340.869141" xlink:href="#DejaVuSans-61"/>
     <use x="402.148438" xlink:href="#DejaVuSans-66"/>
     <use x="437.353516" xlink:href="#DejaVuSans-66"/>
     <use x="472.558594" xlink:href="#DejaVuSans-65"/>
     <use x="534.082031" xlink:href="#DejaVuSans-72"/>
     <use x="575.195312" xlink:href="#DejaVuSans-20"/>
     <use x="606.982422" xlink:href="#DejaVuSans-46"/>
     <use x="664.501953" xlink:href="#DejaVuSans-37"/>
     <use x="728.125" xlink:href="#DejaVuSans-2c"/>
     <use x="759.912109" xlink:href="#DejaVuSans-20"/>
     <use x="791.699219" xlink:href="#DejaVuSans-63"/>
     <use x="846.679688" xlink:href="#DejaVuSans-6f"/>
     <use x="907.861328" xlink:href="#DejaVuSans-6e"/>
     <use x="971.240234" xlink:href="#DejaVuSans-64"/>
     <use x="1034.716797" xlink:href="#DejaVuSans-69"/>
     <use x="1062.5" xlink:href="#DejaVuSans-74"/>
     <use x="1101.708984" xlink:href="#DejaVuSans-69"/>
     <use x="1129.492188" xlink:href="#DejaVuSans-6f"/>
     <use x="1190.673828" xlink:href="#DejaVuSans-6e"/>
     <use x="1254.052734" xlink:href="#DejaVuSans-20"/>
     <use x="1285.839844" xlink:href="#DejaVuSans-31"/>
     <use x="1349.462891" xlink:href="#DejaVuSans-30"/>
    </g>
   </g>
  </g>
 </g>
 <defs>
  <clipPath id="p8d3849f23c">
   <rect height="271.296" width="303.2064" x="57.6" y="27.648"/>
  </clipPath>
 </defs>
</svg>
