<?xml version="1.0" encoding="utf-8" standalone="no"?>
<!DOCTYPE svg PUBLIC "-//W3C//DTD SVG 1.1//EN"
  "http://www.w3.org/Graphics/SVG/1.1/DTD/svg11.dtd">
<svg height="345.6pt" version="1.1" viewBox="0 0 460.8 345.6" width="460.8pt" xmlns="http://www.w3.org/2000/svg" xmlns:xlink="http://www.w3.org/1999/xlink">
 <metadata>
  <rdf:RDF xmlns:cc="http://creativecommons.org/ns#" xmlns:dc="http://purl.org/dc/elements/1.1/" xmlns:rdf="http://www.w3.org/1999/02/22-rdf-syntax-ns#">
   <cc:Work>
    <dc:type rdf:resource="http://purl.org/dc/dcmitype/StillImage"/>
    <dc:date>2022-05-07T21:25:54.458555</dc:date>
    <dc:format>image/svg+xml</dc:format>
    <dc:creator>
     <cc:Agent>
      <dc:title>Matplotlib v3.4.3, https://matplotlib.org/</dc:title>
     </cc:Agent>
    </dc:creator>
   </cc:Work>
  </rdf:RDF>
 </metadata>
 <defs>
  <style type="text/css">*{stroke-linecap:butt;stroke-linejoin:round;}</style>
 </defs>
 <g id="figure_1">
  <g id="patch_1">
   <path d="M 0 345.6 
L 460.8 345.6 
L 460.8 0 
L 0 0 
z
" style="fill:#ffffff;"/>
  </g>
  <g id="axes_1">
   <g id="patch_2">
    <path d="M 57.6 298.944 
L 360.8064 298.944 
L 360.8064 27.648 
L 57.6 27.648 
z
" style="fill:#ffffff;"/>
   </g>
   <g id="line2d_1">
    <path d="M -1 293.624471 
L 83.678349 293.624471 
L 83.678349 288.304941 
L 95.814395 288.304941 
L 95.814395 282.985412 
L 99.950294 282.985412 
L 99.950294 277.665882 
L 113.57433 277.665882 
L 113.57433 272.346353 
L 118.962067 272.346353 
L 118.962067 267.026824 
L 135.463998 267.026824 
L 135.463998 261.707294 
L 138.36167 261.707294 
L 138.36167 256.387765 
L 143.046405 256.387765 
L 143.046405 251.068235 
L 161.786209 251.068235 
L 161.786209 245.748706 
L 175.552798 245.748706 
L 175.552798 240.429176 
L 204.876274 240.429176 
L 204.876274 235.109647 
L 204.894048 235.109647 
L 204.894048 229.790118 
L 204.897788 229.790118 
L 204.897788 224.470588 
L 204.90134 224.470588 
L 204.90134 219.151059 
L 204.915354 219.151059 
L 204.915354 213.831529 
L 204.922264 213.831529 
L 204.922264 208.512 
L 204.933838 208.512 
L 204.933838 203.192471 
L 204.942793 203.192471 
L 204.942793 197.872941 
L 204.953794 197.872941 
L 204.953794 192.553412 
L 204.969818 192.553412 
L 204.969818 187.233882 
L 204.977081 187.233882 
L 204.977081 181.914353 
L 204.988434 181.914353 
L 204.988434 176.594824 
L 205.011678 176.594824 
L 205.011678 171.275294 
L 205.019296 171.275294 
L 205.019296 165.955765 
L 205.028211 165.955765 
L 205.028211 160.636235 
L 205.050478 160.636235 
L 205.050478 155.316706 
L 205.056968 155.316706 
L 205.056968 149.997176 
L 205.067162 149.997176 
L 205.067162 144.677647 
L 205.081794 144.677647 
L 205.081794 139.358118 
L 205.092714 139.358118 
L 205.092714 134.038588 
L 205.104553 134.038588 
L 205.104553 128.719059 
L 205.111394 128.719059 
L 205.111394 123.399529 
L 205.127654 123.399529 
L 205.127654 118.08 
L 205.13541 118.08 
L 205.13541 112.760471 
L 205.13984 112.760471 
L 205.13984 107.440941 
L 205.1546 107.440941 
L 205.1546 102.121412 
L 205.161423 102.121412 
L 205.161423 96.801882 
L 205.165479 96.801882 
L 205.165479 91.482353 
L 205.175245 91.482353 
L 205.175245 86.162824 
L 205.184639 86.162824 
L 205.184639 80.843294 
L 205.189978 80.843294 
L 205.189978 75.523765 
L 205.200468 75.523765 
L 205.200468 70.204235 
L 205.209481 70.204235 
L 205.209481 64.884706 
L 205.222165 64.884706 
L 205.222165 59.565176 
L 205.230249 59.565176 
L 205.230249 54.245647 
L 205.237779 54.245647 
L 205.237779 48.926118 
L 205.259066 48.926118 
L 205.259066 43.606588 
L 205.264751 43.606588 
L 205.264751 38.287059 
L 205.270434 38.287059 
L 205.270434 32.967529 
L 205.29498 32.967529 
L 205.29498 27.648 
L 360.8064 27.648 
" style="fill:none;stroke:#f5deb3;stroke-linecap:square;stroke-width:4;"/>
   </g>
   <g id="line2d_2">
    <defs>
     <path d="M -0 7.778175 
L 7.778175 0 
L 0 -7.778175 
L -7.778175 -0 
z
" id="mb4524784f9" style="stroke:#f5deb3;stroke-linejoin:miter;stroke-width:1.5;"/>
    </defs>
    <g>
     <use style="fill:#f5deb3;stroke:#f5deb3;stroke-linejoin:miter;stroke-width:1.5;" x="99.950294" xlink:href="#mb4524784f9" y="282.985412"/>
     <use style="fill:#f5deb3;stroke:#f5deb3;stroke-linejoin:miter;stroke-width:1.5;" x="175.552798" xlink:href="#mb4524784f9" y="245.748706"/>
     <use style="fill:#f5deb3;stroke:#f5deb3;stroke-linejoin:miter;stroke-width:1.5;" x="205.165479" xlink:href="#mb4524784f9" y="96.801882"/>
     <use style="fill:#f5deb3;stroke:#f5deb3;stroke-linejoin:miter;stroke-width:1.5;" x="205.29498" xlink:href="#mb4524784f9" y="32.967529"/>
     <use style="fill:#f5deb3;stroke:#f5deb3;stroke-linejoin:miter;stroke-width:1.5;" x="205.29498" xlink:href="#mb4524784f9" y="27.648"/>
     <use style="fill:#f5deb3;stroke:#f5deb3;stroke-linejoin:miter;stroke-width:1.5;" x="360.8064" xlink:href="#mb4524784f9" y="27.648"/>
    </g>
   </g>
   <g id="line2d_3">
    <path style="fill:none;stroke:#f5deb3;stroke-linecap:square;stroke-width:4;"/>
    <g/>
   </g>
   <g id="line2d_4">
    <path d="M 360.8064 27.648 
L 380.514816 33.07392 
" style="fill:none;stroke:#f5deb3;stroke-linecap:square;stroke-width:4;"/>
    <g>
     <use style="fill:#f5deb3;stroke:#f5deb3;stroke-linejoin:miter;stroke-width:1.5;" x="360.8064" xlink:href="#mb4524784f9" y="27.648"/>
     <use style="fill:#f5deb3;stroke:#f5deb3;stroke-linejoin:miter;stroke-width:1.5;" x="380.514816" xlink:href="#mb4524784f9" y="33.07392"/>
    </g>
   </g>
   <g id="matplotlib.axis_1">
    <g id="xtick_1">
     <g id="line2d_5">
      <path clip-path="url(#p9febb19a16)" d="M 57.6 298.944 
L 57.6 27.648 
" style="fill:none;stroke:#b0b0b0;stroke-linecap:square;stroke-width:0.8;"/>
     </g>
     <g id="line2d_6">
      <defs>
       <path d="M 0 0 
L 0 3.5 
" id="madce23125d" style="stroke:#000000;stroke-width:0.8;"/>
      </defs>
      <g>
       <use style="stroke:#000000;stroke-width:0.8;" x="57.6" xlink:href="#madce23125d" y="298.944"/>
      </g>
     </g>
     <g id="text_1">
      <!-- 0 -->
      <g transform="translate(52.191875 318.861344)scale(0.17 -0.17)">
       <defs>
        <path d="M 2034 4250 
Q 1547 4250 1301 3770 
Q 1056 3291 1056 2328 
Q 1056 1369 1301 889 
Q 1547 409 2034 409 
Q 2525 409 2770 889 
Q 3016 1369 3016 2328 
Q 3016 3291 2770 3770 
Q 2525 4250 2034 4250 
z
M 2034 4750 
Q 2819 4750 3233 4129 
Q 3647 3509 3647 2328 
Q 3647 1150 3233 529 
Q 2819 -91 2034 -91 
Q 1250 -91 836 529 
Q 422 1150 422 2328 
Q 422 3509 836 4129 
Q 1250 4750 2034 4750 
z
" id="DejaVuSans-30" transform="scale(0.015625)"/>
       </defs>
       <use xlink:href="#DejaVuSans-30"/>
      </g>
     </g>
    </g>
    <g id="xtick_2">
     <g id="line2d_7">
      <path clip-path="url(#p9febb19a16)" d="M 144.2304 298.944 
L 144.2304 27.648 
" style="fill:none;stroke:#b0b0b0;stroke-linecap:square;stroke-width:0.8;"/>
     </g>
     <g id="line2d_8">
      <g>
       <use style="stroke:#000000;stroke-width:0.8;" x="144.2304" xlink:href="#madce23125d" y="298.944"/>
      </g>
     </g>
     <g id="text_2">
      <!-- 2 -->
      <g transform="translate(138.822275 318.861344)scale(0.17 -0.17)">
       <defs>
        <path d="M 1228 531 
L 3431 531 
L 3431 0 
L 469 0 
L 469 531 
Q 828 903 1448 1529 
Q 2069 2156 2228 2338 
Q 2531 2678 2651 2914 
Q 2772 3150 2772 3378 
Q 2772 3750 2511 3984 
Q 2250 4219 1831 4219 
Q 1534 4219 1204 4116 
Q 875 4013 500 3803 
L 500 4441 
Q 881 4594 1212 4672 
Q 1544 4750 1819 4750 
Q 2544 4750 2975 4387 
Q 3406 4025 3406 3419 
Q 3406 3131 3298 2873 
Q 3191 2616 2906 2266 
Q 2828 2175 2409 1742 
Q 1991 1309 1228 531 
z
" id="DejaVuSans-32" transform="scale(0.015625)"/>
       </defs>
       <use xlink:href="#DejaVuSans-32"/>
      </g>
     </g>
    </g>
    <g id="xtick_3">
     <g id="line2d_9">
      <path clip-path="url(#p9febb19a16)" d="M 230.8608 298.944 
L 230.8608 27.648 
" style="fill:none;stroke:#b0b0b0;stroke-linecap:square;stroke-width:0.8;"/>
     </g>
     <g id="line2d_10">
      <g>
       <use style="stroke:#000000;stroke-width:0.8;" x="230.8608" xlink:href="#madce23125d" y="298.944"/>
      </g>
     </g>
     <g id="text_3">
      <!-- 4 -->
      <g transform="translate(225.452675 318.861344)scale(0.17 -0.17)">
       <defs>
        <path d="M 2419 4116 
L 825 1625 
L 2419 1625 
L 2419 4116 
z
M 2253 4666 
L 3047 4666 
L 3047 1625 
L 3713 1625 
L 3713 1100 
L 3047 1100 
L 3047 0 
L 2419 0 
L 2419 1100 
L 313 1100 
L 313 1709 
L 2253 4666 
z
" id="DejaVuSans-34" transform="scale(0.015625)"/>
       </defs>
       <use xlink:href="#DejaVuSans-34"/>
      </g>
     </g>
    </g>
    <g id="xtick_4">
     <g id="line2d_11">
      <path clip-path="url(#p9febb19a16)" d="M 317.4912 298.944 
L 317.4912 27.648 
" style="fill:none;stroke:#b0b0b0;stroke-linecap:square;stroke-width:0.8;"/>
     </g>
     <g id="line2d_12">
      <g>
       <use style="stroke:#000000;stroke-width:0.8;" x="317.4912" xlink:href="#madce23125d" y="298.944"/>
      </g>
     </g>
     <g id="text_4">
      <!-- 6 -->
      <g transform="translate(312.083075 318.861344)scale(0.17 -0.17)">
       <defs>
        <path d="M 2113 2584 
Q 1688 2584 1439 2293 
Q 1191 2003 1191 1497 
Q 1191 994 1439 701 
Q 1688 409 2113 409 
Q 2538 409 2786 701 
Q 3034 994 3034 1497 
Q 3034 2003 2786 2293 
Q 2538 2584 2113 2584 
z
M 3366 4563 
L 3366 3988 
Q 3128 4100 2886 4159 
Q 2644 4219 2406 4219 
Q 1781 4219 1451 3797 
Q 1122 3375 1075 2522 
Q 1259 2794 1537 2939 
Q 1816 3084 2150 3084 
Q 2853 3084 3261 2657 
Q 3669 2231 3669 1497 
Q 3669 778 3244 343 
Q 2819 -91 2113 -91 
Q 1303 -91 875 529 
Q 447 1150 447 2328 
Q 447 3434 972 4092 
Q 1497 4750 2381 4750 
Q 2619 4750 2861 4703 
Q 3103 4656 3366 4563 
z
" id="DejaVuSans-36" transform="scale(0.015625)"/>
       </defs>
       <use xlink:href="#DejaVuSans-36"/>
      </g>
     </g>
    </g>
    <g id="xtick_5">
     <g id="line2d_13">
      <path clip-path="url(#p9febb19a16)" d="M 100.9152 298.944 
L 100.9152 27.648 
" style="fill:none;stroke:#b0b0b0;stroke-linecap:square;stroke-width:0.8;"/>
     </g>
     <g id="line2d_14">
      <defs>
       <path d="M 0 0 
L 0 2 
" id="m93cea25c8e" style="stroke:#000000;stroke-width:0.6;"/>
      </defs>
      <g>
       <use style="stroke:#000000;stroke-width:0.6;" x="100.9152" xlink:href="#m93cea25c8e" y="298.944"/>
      </g>
     </g>
    </g>
    <g id="xtick_6">
     <g id="line2d_15">
      <path clip-path="url(#p9febb19a16)" d="M 187.5456 298.944 
L 187.5456 27.648 
" style="fill:none;stroke:#b0b0b0;stroke-linecap:square;stroke-width:0.8;"/>
     </g>
     <g id="line2d_16">
      <g>
       <use style="stroke:#000000;stroke-width:0.6;" x="187.5456" xlink:href="#m93cea25c8e" y="298.944"/>
      </g>
     </g>
    </g>
    <g id="xtick_7">
     <g id="line2d_17">
      <path clip-path="url(#p9febb19a16)" d="M 274.176 298.944 
L 274.176 27.648 
" style="fill:none;stroke:#b0b0b0;stroke-linecap:square;stroke-width:0.8;"/>
     </g>
     <g id="line2d_18">
      <g>
       <use style="stroke:#000000;stroke-width:0.6;" x="274.176" xlink:href="#m93cea25c8e" y="298.944"/>
      </g>
     </g>
    </g>
    <g id="xtick_8">
     <g id="line2d_19">
      <path clip-path="url(#p9febb19a16)" d="M 360.8064 298.944 
L 360.8064 27.648 
" style="fill:none;stroke:#b0b0b0;stroke-linecap:square;stroke-width:0.8;"/>
     </g>
     <g id="line2d_20">
      <g>
       <use style="stroke:#000000;stroke-width:0.6;" x="360.8064" xlink:href="#m93cea25c8e" y="298.944"/>
      </g>
     </g>
    </g>
    <g id="text_5">
     <!-- log10(# f-evals / dimension) -->
     <g transform="translate(88.823278 339.314156)scale(0.17 -0.17)">
      <defs>
       <path d="M 603 4863 
L 1178 4863 
L 1178 0 
L 603 0 
L 603 4863 
z
" id="DejaVuSans-6c" transform="scale(0.015625)"/>
       <path d="M 1959 3097 
Q 1497 3097 1228 2736 
Q 959 2375 959 1747 
Q 959 1119 1226 758 
Q 1494 397 1959 397 
Q 2419 397 2687 759 
Q 2956 1122 2956 1747 
Q 2956 2369 2687 2733 
Q 2419 3097 1959 3097 
z
M 1959 3584 
Q 2709 3584 3137 3096 
Q 3566 2609 3566 1747 
Q 3566 888 3137 398 
Q 2709 -91 1959 -91 
Q 1206 -91 779 398 
Q 353 888 353 1747 
Q 353 2609 779 3096 
Q 1206 3584 1959 3584 
z
" id="DejaVuSans-6f" transform="scale(0.015625)"/>
       <path d="M 2906 1791 
Q 2906 2416 2648 2759 
Q 2391 3103 1925 3103 
Q 1463 3103 1205 2759 
Q 947 2416 947 1791 
Q 947 1169 1205 825 
Q 1463 481 1925 481 
Q 2391 481 2648 825 
Q 2906 1169 2906 1791 
z
M 3481 434 
Q 3481 -459 3084 -895 
Q 2688 -1331 1869 -1331 
Q 1566 -1331 1297 -1286 
Q 1028 -1241 775 -1147 
L 775 -588 
Q 1028 -725 1275 -790 
Q 1522 -856 1778 -856 
Q 2344 -856 2625 -561 
Q 2906 -266 2906 331 
L 2906 616 
Q 2728 306 2450 153 
Q 2172 0 1784 0 
Q 1141 0 747 490 
Q 353 981 353 1791 
Q 353 2603 747 3093 
Q 1141 3584 1784 3584 
Q 2172 3584 2450 3431 
Q 2728 3278 2906 2969 
L 2906 3500 
L 3481 3500 
L 3481 434 
z
" id="DejaVuSans-67" transform="scale(0.015625)"/>
       <path d="M 794 531 
L 1825 531 
L 1825 4091 
L 703 3866 
L 703 4441 
L 1819 4666 
L 2450 4666 
L 2450 531 
L 3481 531 
L 3481 0 
L 794 0 
L 794 531 
z
" id="DejaVuSans-31" transform="scale(0.015625)"/>
       <path d="M 1984 4856 
Q 1566 4138 1362 3434 
Q 1159 2731 1159 2009 
Q 1159 1288 1364 580 
Q 1569 -128 1984 -844 
L 1484 -844 
Q 1016 -109 783 600 
Q 550 1309 550 2009 
Q 550 2706 781 3412 
Q 1013 4119 1484 4856 
L 1984 4856 
z
" id="DejaVuSans-28" transform="scale(0.015625)"/>
       <path d="M 3272 2816 
L 2363 2816 
L 2100 1772 
L 3016 1772 
L 3272 2816 
z
M 2803 4594 
L 2478 3297 
L 3391 3297 
L 3719 4594 
L 4219 4594 
L 3897 3297 
L 4872 3297 
L 4872 2816 
L 3775 2816 
L 3519 1772 
L 4513 1772 
L 4513 1294 
L 3397 1294 
L 3072 0 
L 2572 0 
L 2894 1294 
L 1978 1294 
L 1656 0 
L 1153 0 
L 1478 1294 
L 494 1294 
L 494 1772 
L 1594 1772 
L 1856 2816 
L 850 2816 
L 850 3297 
L 1978 3297 
L 2297 4594 
L 2803 4594 
z
" id="DejaVuSans-23" transform="scale(0.015625)"/>
       <path id="DejaVuSans-20" transform="scale(0.015625)"/>
       <path d="M 2375 4863 
L 2375 4384 
L 1825 4384 
Q 1516 4384 1395 4259 
Q 1275 4134 1275 3809 
L 1275 3500 
L 2222 3500 
L 2222 3053 
L 1275 3053 
L 1275 0 
L 697 0 
L 697 3053 
L 147 3053 
L 147 3500 
L 697 3500 
L 697 3744 
Q 697 4328 969 4595 
Q 1241 4863 1831 4863 
L 2375 4863 
z
" id="DejaVuSans-66" transform="scale(0.015625)"/>
       <path d="M 313 2009 
L 1997 2009 
L 1997 1497 
L 313 1497 
L 313 2009 
z
" id="DejaVuSans-2d" transform="scale(0.015625)"/>
       <path d="M 3597 1894 
L 3597 1613 
L 953 1613 
Q 991 1019 1311 708 
Q 1631 397 2203 397 
Q 2534 397 2845 478 
Q 3156 559 3463 722 
L 3463 178 
Q 3153 47 2828 -22 
Q 2503 -91 2169 -91 
Q 1331 -91 842 396 
Q 353 884 353 1716 
Q 353 2575 817 3079 
Q 1281 3584 2069 3584 
Q 2775 3584 3186 3129 
Q 3597 2675 3597 1894 
z
M 3022 2063 
Q 3016 2534 2758 2815 
Q 2500 3097 2075 3097 
Q 1594 3097 1305 2825 
Q 1016 2553 972 2059 
L 3022 2063 
z
" id="DejaVuSans-65" transform="scale(0.015625)"/>
       <path d="M 191 3500 
L 800 3500 
L 1894 563 
L 2988 3500 
L 3597 3500 
L 2284 0 
L 1503 0 
L 191 3500 
z
" id="DejaVuSans-76" transform="scale(0.015625)"/>
       <path d="M 2194 1759 
Q 1497 1759 1228 1600 
Q 959 1441 959 1056 
Q 959 750 1161 570 
Q 1363 391 1709 391 
Q 2188 391 2477 730 
Q 2766 1069 2766 1631 
L 2766 1759 
L 2194 1759 
z
M 3341 1997 
L 3341 0 
L 2766 0 
L 2766 531 
Q 2569 213 2275 61 
Q 1981 -91 1556 -91 
Q 1019 -91 701 211 
Q 384 513 384 1019 
Q 384 1609 779 1909 
Q 1175 2209 1959 2209 
L 2766 2209 
L 2766 2266 
Q 2766 2663 2505 2880 
Q 2244 3097 1772 3097 
Q 1472 3097 1187 3025 
Q 903 2953 641 2809 
L 641 3341 
Q 956 3463 1253 3523 
Q 1550 3584 1831 3584 
Q 2591 3584 2966 3190 
Q 3341 2797 3341 1997 
z
" id="DejaVuSans-61" transform="scale(0.015625)"/>
       <path d="M 2834 3397 
L 2834 2853 
Q 2591 2978 2328 3040 
Q 2066 3103 1784 3103 
Q 1356 3103 1142 2972 
Q 928 2841 928 2578 
Q 928 2378 1081 2264 
Q 1234 2150 1697 2047 
L 1894 2003 
Q 2506 1872 2764 1633 
Q 3022 1394 3022 966 
Q 3022 478 2636 193 
Q 2250 -91 1575 -91 
Q 1294 -91 989 -36 
Q 684 19 347 128 
L 347 722 
Q 666 556 975 473 
Q 1284 391 1588 391 
Q 1994 391 2212 530 
Q 2431 669 2431 922 
Q 2431 1156 2273 1281 
Q 2116 1406 1581 1522 
L 1381 1569 
Q 847 1681 609 1914 
Q 372 2147 372 2553 
Q 372 3047 722 3315 
Q 1072 3584 1716 3584 
Q 2034 3584 2315 3537 
Q 2597 3491 2834 3397 
z
" id="DejaVuSans-73" transform="scale(0.015625)"/>
       <path d="M 1625 4666 
L 2156 4666 
L 531 -594 
L 0 -594 
L 1625 4666 
z
" id="DejaVuSans-2f" transform="scale(0.015625)"/>
       <path d="M 2906 2969 
L 2906 4863 
L 3481 4863 
L 3481 0 
L 2906 0 
L 2906 525 
Q 2725 213 2448 61 
Q 2172 -91 1784 -91 
Q 1150 -91 751 415 
Q 353 922 353 1747 
Q 353 2572 751 3078 
Q 1150 3584 1784 3584 
Q 2172 3584 2448 3432 
Q 2725 3281 2906 2969 
z
M 947 1747 
Q 947 1113 1208 752 
Q 1469 391 1925 391 
Q 2381 391 2643 752 
Q 2906 1113 2906 1747 
Q 2906 2381 2643 2742 
Q 2381 3103 1925 3103 
Q 1469 3103 1208 2742 
Q 947 2381 947 1747 
z
" id="DejaVuSans-64" transform="scale(0.015625)"/>
       <path d="M 603 3500 
L 1178 3500 
L 1178 0 
L 603 0 
L 603 3500 
z
M 603 4863 
L 1178 4863 
L 1178 4134 
L 603 4134 
L 603 4863 
z
" id="DejaVuSans-69" transform="scale(0.015625)"/>
       <path d="M 3328 2828 
Q 3544 3216 3844 3400 
Q 4144 3584 4550 3584 
Q 5097 3584 5394 3201 
Q 5691 2819 5691 2113 
L 5691 0 
L 5113 0 
L 5113 2094 
Q 5113 2597 4934 2840 
Q 4756 3084 4391 3084 
Q 3944 3084 3684 2787 
Q 3425 2491 3425 1978 
L 3425 0 
L 2847 0 
L 2847 2094 
Q 2847 2600 2669 2842 
Q 2491 3084 2119 3084 
Q 1678 3084 1418 2786 
Q 1159 2488 1159 1978 
L 1159 0 
L 581 0 
L 581 3500 
L 1159 3500 
L 1159 2956 
Q 1356 3278 1631 3431 
Q 1906 3584 2284 3584 
Q 2666 3584 2933 3390 
Q 3200 3197 3328 2828 
z
" id="DejaVuSans-6d" transform="scale(0.015625)"/>
       <path d="M 3513 2113 
L 3513 0 
L 2938 0 
L 2938 2094 
Q 2938 2591 2744 2837 
Q 2550 3084 2163 3084 
Q 1697 3084 1428 2787 
Q 1159 2491 1159 1978 
L 1159 0 
L 581 0 
L 581 3500 
L 1159 3500 
L 1159 2956 
Q 1366 3272 1645 3428 
Q 1925 3584 2291 3584 
Q 2894 3584 3203 3211 
Q 3513 2838 3513 2113 
z
" id="DejaVuSans-6e" transform="scale(0.015625)"/>
       <path d="M 513 4856 
L 1013 4856 
Q 1481 4119 1714 3412 
Q 1947 2706 1947 2009 
Q 1947 1309 1714 600 
Q 1481 -109 1013 -844 
L 513 -844 
Q 928 -128 1133 580 
Q 1338 1288 1338 2009 
Q 1338 2731 1133 3434 
Q 928 4138 513 4856 
z
" id="DejaVuSans-29" transform="scale(0.015625)"/>
      </defs>
      <use xlink:href="#DejaVuSans-6c"/>
      <use x="27.783203" xlink:href="#DejaVuSans-6f"/>
      <use x="88.964844" xlink:href="#DejaVuSans-67"/>
      <use x="152.441406" xlink:href="#DejaVuSans-31"/>
      <use x="216.064453" xlink:href="#DejaVuSans-30"/>
      <use x="279.6875" xlink:href="#DejaVuSans-28"/>
      <use x="318.701172" xlink:href="#DejaVuSans-23"/>
      <use x="402.490234" xlink:href="#DejaVuSans-20"/>
      <use x="434.277344" xlink:href="#DejaVuSans-66"/>
      <use x="463.982422" xlink:href="#DejaVuSans-2d"/>
      <use x="500.066406" xlink:href="#DejaVuSans-65"/>
      <use x="561.589844" xlink:href="#DejaVuSans-76"/>
      <use x="620.769531" xlink:href="#DejaVuSans-61"/>
      <use x="682.048828" xlink:href="#DejaVuSans-6c"/>
      <use x="709.832031" xlink:href="#DejaVuSans-73"/>
      <use x="761.931641" xlink:href="#DejaVuSans-20"/>
      <use x="793.71875" xlink:href="#DejaVuSans-2f"/>
      <use x="827.410156" xlink:href="#DejaVuSans-20"/>
      <use x="859.197266" xlink:href="#DejaVuSans-64"/>
      <use x="922.673828" xlink:href="#DejaVuSans-69"/>
      <use x="950.457031" xlink:href="#DejaVuSans-6d"/>
      <use x="1047.869141" xlink:href="#DejaVuSans-65"/>
      <use x="1109.392578" xlink:href="#DejaVuSans-6e"/>
      <use x="1172.771484" xlink:href="#DejaVuSans-73"/>
      <use x="1224.871094" xlink:href="#DejaVuSans-69"/>
      <use x="1252.654297" xlink:href="#DejaVuSans-6f"/>
      <use x="1313.835938" xlink:href="#DejaVuSans-6e"/>
      <use x="1377.214844" xlink:href="#DejaVuSans-29"/>
     </g>
    </g>
   </g>
   <g id="matplotlib.axis_2">
    <g id="ytick_1">
     <g id="line2d_21">
      <path clip-path="url(#p9febb19a16)" d="M 57.6 298.944 
L 360.8064 298.944 
" style="fill:none;stroke:#b0b0b0;stroke-linecap:square;stroke-width:0.8;"/>
     </g>
     <g id="line2d_22">
      <defs>
       <path d="M 0 0 
L -3.5 0 
" id="me05690cdcd" style="stroke:#000000;stroke-width:0.8;"/>
      </defs>
      <g>
       <use style="stroke:#000000;stroke-width:0.8;" x="57.6" xlink:href="#me05690cdcd" y="298.944"/>
      </g>
     </g>
     <g id="text_6">
      <!-- 0.0 -->
      <g transform="translate(25.155 305.02275)scale(0.16 -0.16)">
       <defs>
        <path d="M 684 794 
L 1344 794 
L 1344 0 
L 684 0 
L 684 794 
z
" id="DejaVuSans-2e" transform="scale(0.015625)"/>
       </defs>
       <use xlink:href="#DejaVuSans-30"/>
       <use x="63.623047" xlink:href="#DejaVuSans-2e"/>
       <use x="95.410156" xlink:href="#DejaVuSans-30"/>
      </g>
     </g>
    </g>
    <g id="ytick_2">
     <g id="line2d_23">
      <path clip-path="url(#p9febb19a16)" d="M 57.6 244.6848 
L 360.8064 244.6848 
" style="fill:none;stroke:#b0b0b0;stroke-linecap:square;stroke-width:0.8;"/>
     </g>
     <g id="line2d_24">
      <g>
       <use style="stroke:#000000;stroke-width:0.8;" x="57.6" xlink:href="#me05690cdcd" y="244.6848"/>
      </g>
     </g>
     <g id="text_7">
      <!-- 0.2 -->
      <g transform="translate(25.155 250.76355)scale(0.16 -0.16)">
       <use xlink:href="#DejaVuSans-30"/>
       <use x="63.623047" xlink:href="#DejaVuSans-2e"/>
       <use x="95.410156" xlink:href="#DejaVuSans-32"/>
      </g>
     </g>
    </g>
    <g id="ytick_3">
     <g id="line2d_25">
      <path clip-path="url(#p9febb19a16)" d="M 57.6 190.4256 
L 360.8064 190.4256 
" style="fill:none;stroke:#b0b0b0;stroke-linecap:square;stroke-width:0.8;"/>
     </g>
     <g id="line2d_26">
      <g>
       <use style="stroke:#000000;stroke-width:0.8;" x="57.6" xlink:href="#me05690cdcd" y="190.4256"/>
      </g>
     </g>
     <g id="text_8">
      <!-- 0.4 -->
      <g transform="translate(25.155 196.50435)scale(0.16 -0.16)">
       <use xlink:href="#DejaVuSans-30"/>
       <use x="63.623047" xlink:href="#DejaVuSans-2e"/>
       <use x="95.410156" xlink:href="#DejaVuSans-34"/>
      </g>
     </g>
    </g>
    <g id="ytick_4">
     <g id="line2d_27">
      <path clip-path="url(#p9febb19a16)" d="M 57.6 136.1664 
L 360.8064 136.1664 
" style="fill:none;stroke:#b0b0b0;stroke-linecap:square;stroke-width:0.8;"/>
     </g>
     <g id="line2d_28">
      <g>
       <use style="stroke:#000000;stroke-width:0.8;" x="57.6" xlink:href="#me05690cdcd" y="136.1664"/>
      </g>
     </g>
     <g id="text_9">
      <!-- 0.6 -->
      <g transform="translate(25.155 142.24515)scale(0.16 -0.16)">
       <use xlink:href="#DejaVuSans-30"/>
       <use x="63.623047" xlink:href="#DejaVuSans-2e"/>
       <use x="95.410156" xlink:href="#DejaVuSans-36"/>
      </g>
     </g>
    </g>
    <g id="ytick_5">
     <g id="line2d_29">
      <path clip-path="url(#p9febb19a16)" d="M 57.6 81.9072 
L 360.8064 81.9072 
" style="fill:none;stroke:#b0b0b0;stroke-linecap:square;stroke-width:0.8;"/>
     </g>
     <g id="line2d_30">
      <g>
       <use style="stroke:#000000;stroke-width:0.8;" x="57.6" xlink:href="#me05690cdcd" y="81.9072"/>
      </g>
     </g>
     <g id="text_10">
      <!-- 0.8 -->
      <g transform="translate(25.155 87.98595)scale(0.16 -0.16)">
       <defs>
        <path d="M 2034 2216 
Q 1584 2216 1326 1975 
Q 1069 1734 1069 1313 
Q 1069 891 1326 650 
Q 1584 409 2034 409 
Q 2484 409 2743 651 
Q 3003 894 3003 1313 
Q 3003 1734 2745 1975 
Q 2488 2216 2034 2216 
z
M 1403 2484 
Q 997 2584 770 2862 
Q 544 3141 544 3541 
Q 544 4100 942 4425 
Q 1341 4750 2034 4750 
Q 2731 4750 3128 4425 
Q 3525 4100 3525 3541 
Q 3525 3141 3298 2862 
Q 3072 2584 2669 2484 
Q 3125 2378 3379 2068 
Q 3634 1759 3634 1313 
Q 3634 634 3220 271 
Q 2806 -91 2034 -91 
Q 1263 -91 848 271 
Q 434 634 434 1313 
Q 434 1759 690 2068 
Q 947 2378 1403 2484 
z
M 1172 3481 
Q 1172 3119 1398 2916 
Q 1625 2713 2034 2713 
Q 2441 2713 2670 2916 
Q 2900 3119 2900 3481 
Q 2900 3844 2670 4047 
Q 2441 4250 2034 4250 
Q 1625 4250 1398 4047 
Q 1172 3844 1172 3481 
z
" id="DejaVuSans-38" transform="scale(0.015625)"/>
       </defs>
       <use xlink:href="#DejaVuSans-30"/>
       <use x="63.623047" xlink:href="#DejaVuSans-2e"/>
       <use x="95.410156" xlink:href="#DejaVuSans-38"/>
      </g>
     </g>
    </g>
    <g id="ytick_6">
     <g id="line2d_31">
      <path clip-path="url(#p9febb19a16)" d="M 57.6 27.648 
L 360.8064 27.648 
" style="fill:none;stroke:#b0b0b0;stroke-linecap:square;stroke-width:0.8;"/>
     </g>
     <g id="line2d_32">
      <g>
       <use style="stroke:#000000;stroke-width:0.8;" x="57.6" xlink:href="#me05690cdcd" y="27.648"/>
      </g>
     </g>
     <g id="text_11">
      <!-- 1.0 -->
      <g transform="translate(25.155 33.72675)scale(0.16 -0.16)">
       <use xlink:href="#DejaVuSans-31"/>
       <use x="63.623047" xlink:href="#DejaVuSans-2e"/>
       <use x="95.410156" xlink:href="#DejaVuSans-30"/>
      </g>
     </g>
    </g>
    <g id="text_12">
     <!-- Fraction of function,target pairs -->
     <g transform="translate(17.619531 297.681)rotate(-90)scale(0.17 -0.17)">
      <defs>
       <path d="M 628 4666 
L 3309 4666 
L 3309 4134 
L 1259 4134 
L 1259 2759 
L 3109 2759 
L 3109 2228 
L 1259 2228 
L 1259 0 
L 628 0 
L 628 4666 
z
" id="DejaVuSans-46" transform="scale(0.015625)"/>
       <path d="M 2631 2963 
Q 2534 3019 2420 3045 
Q 2306 3072 2169 3072 
Q 1681 3072 1420 2755 
Q 1159 2438 1159 1844 
L 1159 0 
L 581 0 
L 581 3500 
L 1159 3500 
L 1159 2956 
Q 1341 3275 1631 3429 
Q 1922 3584 2338 3584 
Q 2397 3584 2469 3576 
Q 2541 3569 2628 3553 
L 2631 2963 
z
" id="DejaVuSans-72" transform="scale(0.015625)"/>
       <path d="M 3122 3366 
L 3122 2828 
Q 2878 2963 2633 3030 
Q 2388 3097 2138 3097 
Q 1578 3097 1268 2742 
Q 959 2388 959 1747 
Q 959 1106 1268 751 
Q 1578 397 2138 397 
Q 2388 397 2633 464 
Q 2878 531 3122 666 
L 3122 134 
Q 2881 22 2623 -34 
Q 2366 -91 2075 -91 
Q 1284 -91 818 406 
Q 353 903 353 1747 
Q 353 2603 823 3093 
Q 1294 3584 2113 3584 
Q 2378 3584 2631 3529 
Q 2884 3475 3122 3366 
z
" id="DejaVuSans-63" transform="scale(0.015625)"/>
       <path d="M 1172 4494 
L 1172 3500 
L 2356 3500 
L 2356 3053 
L 1172 3053 
L 1172 1153 
Q 1172 725 1289 603 
Q 1406 481 1766 481 
L 2356 481 
L 2356 0 
L 1766 0 
Q 1100 0 847 248 
Q 594 497 594 1153 
L 594 3053 
L 172 3053 
L 172 3500 
L 594 3500 
L 594 4494 
L 1172 4494 
z
" id="DejaVuSans-74" transform="scale(0.015625)"/>
       <path d="M 544 1381 
L 544 3500 
L 1119 3500 
L 1119 1403 
Q 1119 906 1312 657 
Q 1506 409 1894 409 
Q 2359 409 2629 706 
Q 2900 1003 2900 1516 
L 2900 3500 
L 3475 3500 
L 3475 0 
L 2900 0 
L 2900 538 
Q 2691 219 2414 64 
Q 2138 -91 1772 -91 
Q 1169 -91 856 284 
Q 544 659 544 1381 
z
M 1991 3584 
L 1991 3584 
z
" id="DejaVuSans-75" transform="scale(0.015625)"/>
       <path d="M 750 794 
L 1409 794 
L 1409 256 
L 897 -744 
L 494 -744 
L 750 256 
L 750 794 
z
" id="DejaVuSans-2c" transform="scale(0.015625)"/>
       <path d="M 1159 525 
L 1159 -1331 
L 581 -1331 
L 581 3500 
L 1159 3500 
L 1159 2969 
Q 1341 3281 1617 3432 
Q 1894 3584 2278 3584 
Q 2916 3584 3314 3078 
Q 3713 2572 3713 1747 
Q 3713 922 3314 415 
Q 2916 -91 2278 -91 
Q 1894 -91 1617 61 
Q 1341 213 1159 525 
z
M 3116 1747 
Q 3116 2381 2855 2742 
Q 2594 3103 2138 3103 
Q 1681 3103 1420 2742 
Q 1159 2381 1159 1747 
Q 1159 1113 1420 752 
Q 1681 391 2138 391 
Q 2594 391 2855 752 
Q 3116 1113 3116 1747 
z
" id="DejaVuSans-70" transform="scale(0.015625)"/>
      </defs>
      <use xlink:href="#DejaVuSans-46"/>
      <use x="50.269531" xlink:href="#DejaVuSans-72"/>
      <use x="91.382812" xlink:href="#DejaVuSans-61"/>
      <use x="152.662109" xlink:href="#DejaVuSans-63"/>
      <use x="207.642578" xlink:href="#DejaVuSans-74"/>
      <use x="246.851562" xlink:href="#DejaVuSans-69"/>
      <use x="274.634766" xlink:href="#DejaVuSans-6f"/>
      <use x="335.816406" xlink:href="#DejaVuSans-6e"/>
      <use x="399.195312" xlink:href="#DejaVuSans-20"/>
      <use x="430.982422" xlink:href="#DejaVuSans-6f"/>
      <use x="492.164062" xlink:href="#DejaVuSans-66"/>
      <use x="527.369141" xlink:href="#DejaVuSans-20"/>
      <use x="559.15625" xlink:href="#DejaVuSans-66"/>
      <use x="594.361328" xlink:href="#DejaVuSans-75"/>
      <use x="657.740234" xlink:href="#DejaVuSans-6e"/>
      <use x="721.119141" xlink:href="#DejaVuSans-63"/>
      <use x="776.099609" xlink:href="#DejaVuSans-74"/>
      <use x="815.308594" xlink:href="#DejaVuSans-69"/>
      <use x="843.091797" xlink:href="#DejaVuSans-6f"/>
      <use x="904.273438" xlink:href="#DejaVuSans-6e"/>
      <use x="967.652344" xlink:href="#DejaVuSans-2c"/>
      <use x="999.439453" xlink:href="#DejaVuSans-74"/>
      <use x="1038.648438" xlink:href="#DejaVuSans-61"/>
      <use x="1099.927734" xlink:href="#DejaVuSans-72"/>
      <use x="1139.291016" xlink:href="#DejaVuSans-67"/>
      <use x="1202.767578" xlink:href="#DejaVuSans-65"/>
      <use x="1264.291016" xlink:href="#DejaVuSans-74"/>
      <use x="1303.5" xlink:href="#DejaVuSans-20"/>
      <use x="1335.287109" xlink:href="#DejaVuSans-70"/>
      <use x="1398.763672" xlink:href="#DejaVuSans-61"/>
      <use x="1460.042969" xlink:href="#DejaVuSans-69"/>
      <use x="1487.826172" xlink:href="#DejaVuSans-72"/>
      <use x="1528.939453" xlink:href="#DejaVuSans-73"/>
     </g>
    </g>
   </g>
   <g id="line2d_33">
    <defs>
     <path d="M 0 1.5 
C 0.397805 1.5 0.77937 1.341951 1.06066 1.06066 
C 1.341951 0.77937 1.5 0.397805 1.5 0 
C 1.5 -0.397805 1.341951 -0.77937 1.06066 -1.06066 
C 0.77937 -1.341951 0.397805 -1.5 0 -1.5 
C -0.397805 -1.5 -0.77937 -1.341951 -1.06066 -1.06066 
C -1.341951 -0.77937 -1.5 -0.397805 -1.5 0 
C -1.5 0.397805 -1.341951 0.77937 -1.06066 1.06066 
C -0.77937 1.341951 -0.397805 1.5 0 1.5 
z
" id="m1a03a84d4c" style="stroke:#f5deb3;"/>
    </defs>
    <g>
     <use style="fill:#f5deb3;stroke:#f5deb3;" x="205.29498" xlink:href="#m1a03a84d4c" y="27.648"/>
     <use style="fill:#f5deb3;stroke:#f5deb3;" x="205.29498" xlink:href="#m1a03a84d4c" y="27.648"/>
    </g>
   </g>
   <g id="line2d_34">
    <defs>
     <path d="M 0 1.5 
C 0.397805 1.5 0.77937 1.341951 1.06066 1.06066 
C 1.341951 0.77937 1.5 0.397805 1.5 0 
C 1.5 -0.397805 1.341951 -0.77937 1.06066 -1.06066 
C 0.77937 -1.341951 0.397805 -1.5 0 -1.5 
C -0.397805 -1.5 -0.77937 -1.341951 -1.06066 -1.06066 
C -1.341951 -0.77937 -1.5 -0.397805 -1.5 0 
C -1.5 0.397805 -1.341951 0.77937 -1.06066 1.06066 
C -0.77937 1.341951 -0.397805 1.5 0 1.5 
z
" id="m961790074e" style="stroke:#000080;"/>
    </defs>
    <g>
     <use style="fill:#000080;stroke:#000080;" x="248.278927" xlink:href="#m961790074e" y="240.429176"/>
     <use style="fill:#000080;stroke:#000080;" x="248.278927" xlink:href="#m961790074e" y="240.429176"/>
    </g>
   </g>
   <g id="line2d_35">
    <path d="M -1 293.624471 
L 127.697406 293.624471 
L 127.697406 293.269835 
L 128.582298 293.269835 
L 128.582298 292.9152 
L 129.448078 292.9152 
L 129.448078 292.560565 
L 132.855458 292.560565 
L 132.855458 292.205929 
L 134.120577 292.205929 
L 134.120577 291.851294 
L 135.754042 291.851294 
L 135.754042 291.496659 
L 136.633516 291.496659 
L 136.633516 291.142024 
L 137.161302 291.142024 
L 137.161302 290.787388 
L 137.365629 290.787388 
L 137.365629 290.432753 
L 138.057259 290.432753 
L 138.057259 290.078118 
L 138.355245 290.078118 
L 138.355245 289.723482 
L 138.887503 289.723482 
L 138.887503 289.368847 
L 139.778229 289.368847 
L 139.778229 289.014212 
L 140.341738 289.014212 
L 140.341738 288.659576 
L 140.480016 288.659576 
L 140.480016 288.304941 
L 142.451101 288.304941 
L 142.451101 287.950306 
L 142.839931 287.950306 
L 142.839931 287.595671 
L 143.051412 287.595671 
L 143.051412 287.241035 
L 143.290229 287.241035 
L 143.290229 286.8864 
L 143.681641 286.8864 
L 143.681641 286.531765 
L 143.883918 286.531765 
L 143.883918 286.177129 
L 144.347606 286.177129 
L 144.412924 285.113224 
L 145.54268 285.113224 
L 145.64765 284.049318 
L 145.717307 284.049318 
L 145.786706 283.340047 
L 145.873097 283.340047 
L 145.967671 282.630776 
L 146.019057 282.630776 
L 146.019057 282.276141 
L 147.115427 282.276141 
L 147.147673 281.566871 
L 147.300092 281.566871 
L 147.300092 281.212235 
L 147.522481 281.212235 
L 147.522481 280.8576 
L 147.905447 280.8576 
L 147.94409 280.148329 
L 148.105531 280.148329 
L 148.174298 279.439059 
L 148.782143 279.439059 
L 148.782143 279.084424 
L 149.456646 279.084424 
L 149.456646 278.729788 
L 150.353929 278.729788 
L 150.353929 278.375153 
L 150.522977 278.375153 
L 150.522977 278.020518 
L 150.922601 278.020518 
L 150.975248 277.311247 
L 151.468184 277.311247 
L 151.525711 276.601976 
L 152.245709 276.601976 
L 152.337622 275.892706 
L 152.429089 275.892706 
L 152.429089 275.538071 
L 152.867985 275.538071 
L 152.867985 275.183435 
L 152.992369 275.183435 
L 153.063078 274.474165 
L 153.127662 274.474165 
L 153.127662 274.119529 
L 153.493341 274.119529 
L 153.493341 273.764894 
L 153.64791 273.764894 
L 153.64791 273.410259 
L 154.143054 273.410259 
L 154.143054 273.055624 
L 154.413212 273.055624 
L 154.413212 272.700988 
L 154.690337 272.700988 
L 154.690337 272.346353 
L 155.539321 272.346353 
L 155.539321 271.991718 
L 156.858312 271.991718 
L 156.968545 271.282447 
L 157.049609 271.282447 
L 157.049609 270.927812 
L 157.23427 270.927812 
L 157.23427 270.573176 
L 157.491646 270.573176 
L 157.491646 270.218541 
L 157.982489 270.218541 
L 157.982489 269.863906 
L 158.345727 269.863906 
L 158.345727 269.509271 
L 158.509346 269.509271 
L 158.509346 269.154635 
L 159.149948 269.154635 
L 159.154203 268.445365 
L 159.44969 268.445365 
L 159.44969 268.090729 
L 159.761215 268.090729 
L 159.863921 267.026824 
L 160.148549 267.026824 
L 160.148549 266.672188 
L 160.83405 266.672188 
L 160.83405 265.608282 
L 161.245858 265.608282 
L 161.245858 265.253647 
L 161.962931 265.253647 
L 161.962931 264.899012 
L 162.49404 264.899012 
L 162.49404 264.544376 
L 162.979345 264.544376 
L 162.979345 264.189741 
L 163.472746 264.189741 
L 163.516658 263.480471 
L 165.126044 263.480471 
L 165.126044 263.125835 
L 165.277204 263.125835 
L 165.366097 262.416565 
L 165.393599 262.416565 
L 165.393599 262.061929 
L 165.717526 262.061929 
L 165.717526 261.707294 
L 165.867003 261.707294 
L 165.867003 261.352659 
L 166.346211 261.352659 
L 166.346211 260.998024 
L 167.382463 260.998024 
L 167.382463 260.643388 
L 168.63127 260.643388 
L 168.63127 260.288753 
L 168.774685 260.288753 
L 168.774685 259.934118 
L 168.965061 259.934118 
L 168.965061 259.579482 
L 169.143526 259.579482 
L 169.143526 259.224847 
L 169.300476 259.224847 
L 169.300476 258.870212 
L 172.119843 258.870212 
L 172.119843 258.515576 
L 172.433288 258.515576 
L 172.433288 258.160941 
L 173.210914 258.160941 
L 173.210914 257.806306 
L 173.93441 257.806306 
L 173.969284 257.097035 
L 175.266824 257.097035 
L 175.266824 256.7424 
L 181.687789 256.7424 
L 181.687789 256.387765 
L 184.426852 256.387765 
L 184.426852 256.033129 
L 190.070168 256.033129 
L 190.070168 255.678494 
L 191.020367 255.678494 
L 191.020367 255.323859 
L 191.421879 255.323859 
L 191.421879 254.969224 
L 191.850946 254.969224 
L 191.850946 254.614588 
L 192.541396 254.614588 
L 192.541396 254.259953 
L 192.83266 254.259953 
L 192.83266 253.905318 
L 193.091487 253.905318 
L 193.091487 253.550682 
L 193.417838 253.550682 
L 193.456347 252.841412 
L 193.556378 252.841412 
L 193.599378 252.132141 
L 195.002009 252.132141 
L 195.002009 251.777506 
L 197.888393 251.777506 
L 197.888393 251.422871 
L 201.705954 251.422871 
L 201.705954 251.068235 
L 202.045373 251.068235 
L 202.045373 250.7136 
L 202.165958 250.7136 
L 202.165958 250.358965 
L 202.406543 250.358965 
L 202.486626 249.649694 
L 202.637345 249.649694 
L 202.637345 249.295059 
L 203.272098 249.295059 
L 203.272098 248.940424 
L 203.77532 248.940424 
L 203.77532 248.585788 
L 206.461658 248.585788 
L 206.461658 248.231153 
L 209.162093 248.231153 
L 209.162093 247.876518 
L 209.283914 247.876518 
L 209.283914 247.167247 
L 209.504149 247.167247 
L 209.504149 246.812612 
L 214.37294 246.812612 
L 214.435654 246.103341 
L 214.835189 246.103341 
L 214.835189 245.748706 
L 218.670612 245.748706 
L 218.670612 245.394071 
L 221.799432 245.394071 
L 221.799432 245.039435 
L 221.963009 245.039435 
L 221.966782 244.330165 
L 224.696472 244.330165 
L 224.720996 243.620894 
L 227.201641 243.620894 
L 227.201641 243.266259 
L 229.361808 243.266259 
L 229.361808 242.911624 
L 233.049415 242.911624 
L 233.049415 242.202353 
L 236.10951 242.202353 
L 236.10951 241.847718 
L 237.503939 241.847718 
L 237.505591 241.138447 
L 238.78322 241.138447 
L 238.78322 240.783812 
L 248.278927 240.783812 
L 248.278927 240.429176 
L 360.8064 240.429176 
L 360.8064 240.429176 
" style="fill:none;stroke:#000080;stroke-linecap:square;stroke-width:1.5;"/>
   </g>
   <g id="line2d_36">
    <defs>
     <path d="M 0 6 
C 1.591219 6 3.117479 5.367802 4.242641 4.242641 
C 5.367802 3.117479 6 1.591219 6 0 
C 6 -1.591219 5.367802 -3.117479 4.242641 -4.242641 
C 3.117479 -5.367802 1.591219 -6 0 -6 
C -1.591219 -6 -3.117479 -5.367802 -4.242641 -4.242641 
C -5.367802 -3.117479 -6 -1.591219 -6 0 
C -6 1.591219 -5.367802 3.117479 -4.242641 4.242641 
C -3.117479 5.367802 -1.591219 6 0 6 
z
" id="mc3c24c00d2" style="stroke:#000080;stroke-width:1.5;"/>
    </defs>
    <g>
     <use style="fill-opacity:0;stroke:#000080;stroke-width:1.5;" x="169.300476" xlink:href="#mc3c24c00d2" y="259.224847"/>
     <use style="fill-opacity:0;stroke:#000080;stroke-width:1.5;" x="238.78322" xlink:href="#mc3c24c00d2" y="240.783812"/>
     <use style="fill-opacity:0;stroke:#000080;stroke-width:1.5;" x="248.278927" xlink:href="#mc3c24c00d2" y="240.429176"/>
     <use style="fill-opacity:0;stroke:#000080;stroke-width:1.5;" x="248.278927" xlink:href="#mc3c24c00d2" y="240.429176"/>
     <use style="fill-opacity:0;stroke:#000080;stroke-width:1.5;" x="360.8064" xlink:href="#mc3c24c00d2" y="240.429176"/>
    </g>
   </g>
   <g id="line2d_37">
    <path style="fill:none;stroke:#000080;stroke-linecap:square;stroke-width:1.5;"/>
    <g/>
   </g>
   <g id="line2d_38">
    <path clip-path="url(#p9febb19a16)" d="M 187.555003 256.033129 
" style="fill:none;stroke:#000080;stroke-linecap:square;stroke-width:1.5;"/>
    <defs>
     <path d="M -12 12 
L 12 -12 
M -12 -12 
L 12 12 
" id="mb7299d20a5" style="stroke:#000080;"/>
    </defs>
    <g clip-path="url(#p9febb19a16)">
     <use style="fill:#000080;stroke:#000080;" x="187.555003" xlink:href="#mb7299d20a5" y="256.033129"/>
    </g>
   </g>
   <g id="line2d_39">
    <defs>
     <path d="M 0 1.5 
C 0.397805 1.5 0.77937 1.341951 1.06066 1.06066 
C 1.341951 0.77937 1.5 0.397805 1.5 0 
C 1.5 -0.397805 1.341951 -0.77937 1.06066 -1.06066 
C 0.77937 -1.341951 0.397805 -1.5 0 -1.5 
C -0.397805 -1.5 -0.77937 -1.341951 -1.06066 -1.06066 
C -1.341951 -0.77937 -1.5 -0.397805 -1.5 0 
C -1.5 0.397805 -1.341951 0.77937 -1.06066 1.06066 
C -0.77937 1.341951 -0.397805 1.5 0 1.5 
z
" id="mcb566c7e7b" style="stroke:#ff00ff;"/>
    </defs>
    <g>
     <use style="fill:#ff00ff;stroke:#ff00ff;" x="240.311747" xlink:href="#mcb566c7e7b" y="27.648"/>
     <use style="fill:#ff00ff;stroke:#ff00ff;" x="240.311747" xlink:href="#mcb566c7e7b" y="27.648"/>
    </g>
   </g>
   <g id="line2d_40">
    <path d="M -1 293.624471 
L 86.204973 293.624471 
L 86.204973 293.269835 
L 87.009868 293.269835 
L 87.009868 292.9152 
L 87.781732 292.9152 
L 87.781732 292.560565 
L 88.88321 292.560565 
L 88.88321 292.205929 
L 90.423197 292.205929 
L 90.423197 291.851294 
L 93.027318 291.851294 
L 93.027318 291.496659 
L 93.169831 291.496659 
L 93.169831 291.142024 
L 93.729323 291.142024 
L 93.729323 290.787388 
L 94.138286 290.787388 
L 94.138286 290.432753 
L 95.937347 290.432753 
L 95.937347 290.078118 
L 96.241256 290.078118 
L 96.241256 289.723482 
L 97.579272 289.723482 
L 97.635342 289.014212 
L 98.775785 289.014212 
L 98.775785 288.659576 
L 102.66533 288.659576 
L 102.750837 287.595671 
L 103.089032 287.595671 
L 103.089032 287.241035 
L 103.214303 287.241035 
L 103.297357 286.531765 
L 103.788121 286.531765 
L 103.788121 286.177129 
L 105.037479 286.177129 
L 105.037479 285.822494 
L 105.225409 285.822494 
L 105.26277 285.113224 
L 105.778187 285.113224 
L 105.778187 284.758588 
L 106.734013 284.758588 
L 106.734013 284.403953 
L 107.31183 284.403953 
L 107.31183 284.049318 
L 107.610695 284.049318 
L 107.610695 283.694682 
L 107.872426 283.694682 
L 107.872426 283.340047 
L 108.194549 283.340047 
L 108.194549 282.985412 
L 108.667622 282.985412 
L 108.760826 281.566871 
L 109.007134 281.566871 
L 109.068211 280.8576 
L 109.490283 280.8576 
L 109.490283 280.502965 
L 111.253379 280.502965 
L 111.280505 279.793694 
L 112.36026 279.793694 
L 112.436886 279.084424 
L 112.53857 279.084424 
L 112.53857 278.729788 
L 114.578786 278.729788 
L 114.578786 278.375153 
L 115.249102 278.375153 
L 115.358535 277.665882 
L 116.480998 277.665882 
L 116.480998 277.311247 
L 116.927946 277.311247 
L 116.927946 276.956612 
L 117.206936 276.956612 
L 117.206936 276.601976 
L 117.44282 276.601976 
L 117.44282 276.247341 
L 118.208401 276.247341 
L 118.208401 275.892706 
L 118.320598 275.892706 
L 118.320598 275.538071 
L 119.634612 275.538071 
L 119.634612 275.183435 
L 120.64987 275.183435 
L 120.64987 274.8288 
L 121.057239 274.8288 
L 121.057239 274.474165 
L 121.908157 274.474165 
L 121.908157 274.119529 
L 122.484686 274.119529 
L 122.484686 273.764894 
L 124.854134 273.764894 
L 124.854134 273.410259 
L 124.985409 273.410259 
L 124.985409 273.055624 
L 125.141738 273.055624 
L 125.141738 272.700988 
L 125.283908 272.700988 
L 125.283908 272.346353 
L 125.817065 272.346353 
L 125.817065 271.991718 
L 125.929373 271.991718 
L 125.929373 271.637082 
L 126.139698 271.637082 
L 126.139698 271.282447 
L 128.310214 271.282447 
L 128.310214 270.927812 
L 128.818519 270.927812 
L 128.818519 270.573176 
L 129.499602 270.573176 
L 129.499602 270.218541 
L 129.926925 270.218541 
L 129.977156 269.509271 
L 131.040128 269.509271 
L 131.040128 269.154635 
L 131.910931 269.154635 
L 131.910931 268.8 
L 132.542938 268.8 
L 132.542938 268.445365 
L 133.111983 268.445365 
L 133.111983 268.090729 
L 133.869374 268.090729 
L 133.869374 267.736094 
L 134.605294 267.736094 
L 134.605294 267.381459 
L 134.993495 267.381459 
L 134.993495 267.026824 
L 136.017862 267.026824 
L 136.017862 266.672188 
L 136.555884 266.672188 
L 136.570023 265.962918 
L 137.674683 265.962918 
L 137.674683 265.608282 
L 137.840541 265.608282 
L 137.840541 264.899012 
L 138.648583 264.899012 
L 138.648583 264.544376 
L 139.005835 264.544376 
L 139.005835 264.189741 
L 139.209605 264.189741 
L 139.209605 263.835106 
L 139.465798 263.835106 
L 139.465798 263.480471 
L 140.543056 263.480471 
L 140.543056 263.125835 
L 140.978515 263.125835 
L 141.084433 262.416565 
L 141.761416 262.416565 
L 141.761416 262.061929 
L 142.196078 262.061929 
L 142.196078 261.707294 
L 142.440759 261.707294 
L 142.440759 261.352659 
L 142.839931 261.352659 
L 142.839931 260.998024 
L 143.807116 260.998024 
L 143.91742 259.934118 
L 144.398947 259.934118 
L 144.398947 259.579482 
L 144.909324 259.579482 
L 144.909324 259.224847 
L 145.107865 259.224847 
L 145.107865 258.870212 
L 145.233127 258.870212 
L 145.233127 258.515576 
L 145.428297 258.515576 
L 145.476774 257.806306 
L 145.643288 257.806306 
L 145.743361 256.7424 
L 145.838588 256.7424 
L 145.838588 256.387765 
L 146.159649 256.387765 
L 146.244347 255.678494 
L 146.458619 255.678494 
L 146.462796 254.259953 
L 146.740569 254.259953 
L 146.773464 253.550682 
L 146.985887 253.550682 
L 146.985887 253.196047 
L 147.240074 253.196047 
L 147.240074 252.841412 
L 147.431461 252.841412 
L 147.431461 252.132141 
L 147.901578 252.132141 
L 147.901578 251.777506 
L 148.105531 251.777506 
L 148.105531 251.422871 
L 149.241696 251.422871 
L 149.241696 250.7136 
L 149.662123 250.7136 
L 149.662123 250.358965 
L 149.973123 250.358965 
L 150.007747 249.649694 
L 152.319275 249.649694 
L 152.319275 249.295059 
L 153.066018 249.295059 
L 153.066018 248.940424 
L 153.82665 248.940424 
L 153.82665 248.231153 
L 155.237872 248.231153 
L 155.237872 247.876518 
L 156.2799 247.876518 
L 156.2799 247.521882 
L 156.396028 247.521882 
L 156.396028 247.167247 
L 156.872727 247.167247 
L 156.872727 246.812612 
L 157.059123 246.812612 
L 157.059123 246.457976 
L 157.903082 246.457976 
L 157.964369 245.748706 
L 158.405591 245.748706 
L 158.418868 245.039435 
L 158.732566 245.039435 
L 158.732566 244.6848 
L 159.40776 244.6848 
L 159.504058 243.620894 
L 159.703454 243.620894 
L 159.779744 242.202353 
L 159.91915 242.202353 
L 160.020999 241.493082 
L 160.251175 241.493082 
L 160.251175 241.138447 
L 160.403075 241.138447 
L 160.403075 240.783812 
L 160.66991 240.783812 
L 160.66991 240.429176 
L 161.041081 240.429176 
L 161.142791 239.365271 
L 161.832391 239.365271 
L 161.832391 239.010635 
L 162.123481 239.010635 
L 162.127114 238.301365 
L 162.413713 238.301365 
L 162.413713 237.946729 
L 162.620084 237.946729 
L 162.66956 236.882824 
L 162.897582 236.882824 
L 162.897582 236.528188 
L 163.367615 236.528188 
L 163.367615 236.173553 
L 163.589059 236.173553 
L 163.589059 235.818918 
L 163.743034 235.818918 
L 163.839461 235.109647 
L 164.319169 235.109647 
L 164.319169 234.755012 
L 164.444837 234.755012 
L 164.444837 234.400376 
L 165.1152 234.400376 
L 165.1152 234.045741 
L 165.286419 234.045741 
L 165.329364 232.981835 
L 165.820792 232.981835 
L 165.820792 232.6272 
L 165.962049 232.6272 
L 165.962049 232.272565 
L 166.125763 232.272565 
L 166.150711 231.563294 
L 166.321521 231.563294 
L 166.321521 231.208659 
L 166.701332 231.208659 
L 166.701332 230.499388 
L 167.010687 230.499388 
L 167.116864 229.790118 
L 167.359097 229.790118 
L 167.437327 229.080847 
L 168.267876 229.080847 
L 168.267876 228.726212 
L 168.424477 228.726212 
L 168.510055 228.016941 
L 168.566891 228.016941 
L 168.566891 227.662306 
L 168.685179 227.662306 
L 168.685179 227.307671 
L 169.020541 227.307671 
L 169.020541 226.953035 
L 169.224656 226.953035 
L 169.224656 226.5984 
L 169.367342 226.5984 
L 169.367342 226.243765 
L 169.507728 226.243765 
L 169.576307 225.534494 
L 169.770882 225.534494 
L 169.850561 224.825224 
L 169.990987 224.825224 
L 169.990987 224.470588 
L 170.123249 224.470588 
L 170.214455 223.761318 
L 170.273444 223.761318 
L 170.273444 223.406682 
L 170.472634 223.406682 
L 170.564486 222.697412 
L 170.827089 222.697412 
L 170.89787 220.924235 
L 171.037505 220.924235 
L 171.037505 220.5696 
L 171.518777 220.5696 
L 171.518777 220.214965 
L 171.659367 220.214965 
L 171.659367 219.860329 
L 171.797828 219.860329 
L 171.891014 218.441788 
L 172.093129 218.441788 
L 172.173158 217.732518 
L 172.257088 217.732518 
L 172.355415 217.023247 
L 172.431187 217.023247 
L 172.431187 216.668612 
L 172.568273 216.668612 
L 172.634885 215.959341 
L 172.731262 215.959341 
L 172.731262 215.604706 
L 173.069313 215.604706 
L 173.081492 214.895435 
L 173.390421 214.895435 
L 173.477053 214.186165 
L 173.94798 214.186165 
L 174.024369 213.122259 
L 174.322113 213.122259 
L 174.39227 212.058353 
L 174.668446 212.058353 
L 174.765178 210.994447 
L 174.828158 210.994447 
L 174.828158 210.639812 
L 175.120826 210.639812 
L 175.19986 209.575906 
L 175.309232 209.575906 
L 175.309232 209.221271 
L 175.451099 209.221271 
L 175.451099 208.866635 
L 176.010706 208.866635 
L 176.112886 208.157365 
L 176.155155 208.157365 
L 176.255699 206.738824 
L 176.43058 206.738824 
L 176.451796 205.674918 
L 176.748008 205.674918 
L 176.748008 205.320282 
L 177.007539 205.320282 
L 177.007539 204.965647 
L 177.328414 204.965647 
L 177.328414 204.611012 
L 177.719384 204.611012 
L 177.719384 204.256376 
L 177.858419 204.256376 
L 177.858419 203.901741 
L 178.148176 203.901741 
L 178.240179 203.192471 
L 178.314842 203.192471 
L 178.314842 202.837835 
L 178.7552 202.837835 
L 178.813642 201.773929 
L 179.264532 201.773929 
L 179.369413 201.064659 
L 179.404244 201.064659 
L 179.481656 200.000753 
L 179.59754 200.000753 
L 179.59754 199.646118 
L 179.717705 199.646118 
L 179.828604 198.936847 
L 179.847732 198.936847 
L 179.938853 198.227576 
L 180.038649 198.227576 
L 180.142102 197.518306 
L 180.257464 197.518306 
L 180.257464 197.163671 
L 180.385202 197.163671 
L 180.435369 196.4544 
L 180.734944 196.4544 
L 180.741697 195.745129 
L 180.907071 195.745129 
L 180.907071 195.390494 
L 181.182144 195.390494 
L 181.229574 194.681224 
L 181.475993 194.681224 
L 181.475993 194.326588 
L 181.775552 194.326588 
L 181.775552 193.971953 
L 181.959353 193.971953 
L 182.04082 193.262682 
L 182.094936 193.262682 
L 182.094936 192.908047 
L 182.215819 192.908047 
L 182.274414 191.844141 
L 182.358249 191.844141 
L 182.457743 190.780235 
L 182.571423 190.780235 
L 182.646017 189.716329 
L 182.843901 189.716329 
L 182.853559 189.007059 
L 182.978673 189.007059 
L 182.978673 188.652424 
L 183.174293 188.652424 
L 183.247721 187.943153 
L 183.493734 187.943153 
L 183.560697 187.233882 
L 183.721594 187.233882 
L 183.744632 186.169976 
L 183.963234 186.169976 
L 183.963234 185.815341 
L 184.074417 185.815341 
L 184.152871 185.106071 
L 184.202932 185.106071 
L 184.202932 184.751435 
L 184.498876 184.751435 
L 184.581089 183.687529 
L 184.722054 183.687529 
L 184.758085 182.268988 
L 184.99062 182.268988 
L 184.99062 181.914353 
L 185.113046 181.914353 
L 185.194222 181.205082 
L 185.254344 181.205082 
L 185.332799 179.786541 
L 185.371376 179.786541 
L 185.396698 179.077271 
L 185.511802 179.077271 
L 185.590236 178.013365 
L 185.743024 178.013365 
L 185.743024 177.658729 
L 185.889446 177.658729 
L 185.965813 176.240188 
L 186.278784 176.240188 
L 186.377124 175.176282 
L 186.406626 175.176282 
L 186.4635 174.467012 
L 186.541545 174.467012 
L 186.550472 173.757741 
L 186.816825 173.757741 
L 186.881732 172.693835 
L 187.002651 172.693835 
L 187.002651 172.3392 
L 187.125202 172.3392 
L 187.137221 171.629929 
L 187.390709 171.629929 
L 187.487194 170.920659 
L 187.696893 170.920659 
L 187.781609 169.856753 
L 187.98853 169.856753 
L 188.014235 169.147482 
L 188.208187 169.147482 
L 188.227699 168.438212 
L 188.484011 168.438212 
L 188.484011 168.083576 
L 188.809572 168.083576 
L 188.809572 167.728941 
L 188.930547 167.728941 
L 188.998146 167.019671 
L 189.050749 167.019671 
L 189.103638 166.3104 
L 189.243809 166.3104 
L 189.343235 165.246494 
L 189.399145 165.246494 
L 189.506655 164.537224 
L 189.615662 164.537224 
L 189.709374 163.827953 
L 189.730322 163.827953 
L 189.730322 163.473318 
L 190.323416 163.473318 
L 190.323416 163.118682 
L 190.491848 163.118682 
L 190.571298 162.409412 
L 190.624478 162.409412 
L 190.624478 162.054776 
L 190.749041 162.054776 
L 190.749041 161.700141 
L 190.974568 161.700141 
L 190.974568 161.345506 
L 191.100346 161.345506 
L 191.181149 160.2816 
L 191.375897 160.2816 
L 191.484921 159.217694 
L 191.547372 159.217694 
L 191.556114 158.508424 
L 191.672789 158.508424 
L 191.672789 158.153788 
L 191.944235 158.153788 
L 192.018906 157.444518 
L 192.061125 157.444518 
L 192.061125 157.089882 
L 192.292017 157.089882 
L 192.355492 156.025976 
L 192.403866 156.025976 
L 192.51072 154.2528 
L 192.525523 154.2528 
L 192.613738 152.834259 
L 192.752601 152.834259 
L 192.819163 151.770353 
L 193.133815 151.770353 
L 193.213663 150.706447 
L 193.291788 150.706447 
L 193.291788 150.351812 
L 193.41887 150.351812 
L 193.492378 149.287906 
L 193.534499 149.287906 
L 193.534499 148.933271 
L 193.734901 148.933271 
L 193.775469 148.224 
L 193.91979 148.224 
L 193.91979 147.869365 
L 194.117144 147.869365 
L 194.117144 147.514729 
L 194.276642 147.514729 
L 194.381574 146.450824 
L 194.584522 146.450824 
L 194.584522 146.096188 
L 194.696439 146.096188 
L 194.780503 145.032282 
L 194.823672 145.032282 
L 194.906533 143.968376 
L 194.936719 143.968376 
L 194.964003 142.904471 
L 195.098575 142.904471 
L 195.167384 141.840565 
L 195.297399 141.840565 
L 195.297399 141.485929 
L 195.540628 141.485929 
L 195.594356 140.422024 
L 195.855581 140.422024 
L 195.855581 140.067388 
L 195.970727 140.067388 
L 196.080094 139.358118 
L 196.123664 139.358118 
L 196.166835 138.294212 
L 196.288963 138.294212 
L 196.2931 137.584941 
L 196.443741 137.584941 
L 196.443741 137.230306 
L 196.634714 137.230306 
L 196.680781 136.1664 
L 196.760192 136.1664 
L 196.846155 134.747859 
L 196.999563 134.747859 
L 197.109067 134.038588 
L 197.306876 134.038588 
L 197.39484 133.329318 
L 197.515919 133.329318 
L 197.608698 132.620047 
L 197.627144 132.620047 
L 197.654092 131.556141 
L 197.740725 131.556141 
L 197.740725 131.201506 
L 197.888936 131.201506 
L 197.953684 130.492235 
L 198.103184 130.492235 
L 198.103184 130.1376 
L 198.262151 130.1376 
L 198.262151 129.782965 
L 198.48957 129.782965 
L 198.568522 129.073694 
L 198.606176 129.073694 
L 198.691923 127.655153 
L 198.728033 127.655153 
L 198.825625 126.945882 
L 199.059892 126.945882 
L 199.059892 126.591247 
L 199.175307 126.591247 
L 199.244369 125.881976 
L 199.34862 125.881976 
L 199.34862 125.527341 
L 199.529305 125.527341 
L 199.614917 124.818071 
L 199.777618 124.818071 
L 199.8836 124.1088 
L 200.039889 124.1088 
L 200.039889 123.754165 
L 200.164857 123.754165 
L 200.19729 122.690259 
L 200.307147 122.690259 
L 200.307147 122.335624 
L 200.457603 122.335624 
L 200.552297 121.626353 
L 200.602637 121.626353 
L 200.622829 120.917082 
L 200.731635 120.917082 
L 200.731635 120.562447 
L 200.84515 120.562447 
L 200.84515 120.207812 
L 201.003803 120.207812 
L 201.003803 119.853176 
L 201.237598 119.853176 
L 201.305385 119.143906 
L 201.368194 119.143906 
L 201.368194 118.789271 
L 201.741367 118.789271 
L 201.741367 118.434635 
L 201.876868 118.434635 
L 201.912399 117.725365 
L 202.092311 117.725365 
L 202.092311 117.370729 
L 202.345829 117.370729 
L 202.365304 116.661459 
L 202.501285 116.661459 
L 202.584773 114.533647 
L 202.65273 114.533647 
L 202.65273 114.179012 
L 202.77452 114.179012 
L 202.835956 113.115106 
L 203.067968 113.115106 
L 203.147958 111.696565 
L 203.373136 111.696565 
L 203.373136 111.341929 
L 203.513321 111.341929 
L 203.623681 109.568753 
L 204.110494 109.568753 
L 204.221099 108.504847 
L 204.320263 108.504847 
L 204.353202 107.795576 
L 204.584076 107.795576 
L 204.67454 106.377035 
L 204.834487 106.377035 
L 204.911618 105.313129 
L 205.098265 105.313129 
L 205.098265 104.958494 
L 205.22584 104.958494 
L 205.296628 103.894588 
L 205.422869 103.894588 
L 205.533634 102.121412 
L 205.631887 102.121412 
L 205.685573 101.412141 
L 205.90589 101.412141 
L 205.981936 100.702871 
L 206.037626 100.702871 
L 206.137489 98.929694 
L 206.167223 98.929694 
L 206.180675 98.220424 
L 206.365927 98.220424 
L 206.413594 97.511153 
L 206.642643 97.511153 
L 206.661888 96.801882 
L 207.023532 96.801882 
L 207.023532 96.447247 
L 207.230457 96.447247 
L 207.330772 95.028706 
L 207.408155 95.028706 
L 207.408155 94.674071 
L 207.520057 94.674071 
L 207.520057 94.319435 
L 207.701818 94.319435 
L 207.701818 93.9648 
L 208.188673 93.9648 
L 208.188673 93.610165 
L 208.41986 93.610165 
L 208.488264 92.191624 
L 208.559037 92.191624 
L 208.573498 91.482353 
L 208.803526 91.482353 
L 208.803526 91.127718 
L 208.968235 91.127718 
L 209.013207 90.418447 
L 209.219685 90.418447 
L 209.306704 88.999906 
L 209.333308 88.999906 
L 209.431268 87.936 
L 209.459017 87.936 
L 209.538658 86.872094 
L 209.583455 86.872094 
L 209.583455 86.517459 
L 209.783511 86.517459 
L 209.783511 86.162824 
L 209.899523 86.162824 
L 209.899523 85.808188 
L 210.067452 85.808188 
L 210.08832 85.098918 
L 210.279034 85.098918 
L 210.310469 84.035012 
L 210.587729 84.035012 
L 210.688595 83.325741 
L 210.734988 83.325741 
L 210.734988 82.971106 
L 210.986366 82.971106 
L 211.010023 82.261835 
L 211.167964 82.261835 
L 211.243105 81.552565 
L 211.394874 81.552565 
L 211.50231 79.424753 
L 211.544246 79.424753 
L 211.578882 78.715482 
L 211.774214 78.715482 
L 211.782125 78.006212 
L 211.907483 78.006212 
L 211.907483 77.651576 
L 212.044034 77.651576 
L 212.12926 76.942306 
L 212.302473 76.942306 
L 212.302473 76.587671 
L 212.511812 76.587671 
L 212.62039 74.814494 
L 212.624482 74.814494 
L 212.646167 74.105224 
L 212.964709 74.105224 
L 212.964709 73.750588 
L 213.175878 73.750588 
L 213.187313 73.041318 
L 213.297097 73.041318 
L 213.318021 71.977412 
L 213.557403 71.977412 
L 213.581929 71.268141 
L 213.722334 71.268141 
L 213.762175 70.558871 
L 213.851132 70.558871 
L 213.871565 69.494965 
L 214.009603 69.494965 
L 214.009603 69.140329 
L 214.197909 69.140329 
L 214.248701 68.431059 
L 214.4504 68.431059 
L 214.4504 68.076424 
L 214.647397 68.076424 
L 214.739478 67.012518 
L 214.998407 67.012518 
L 215.022872 66.303247 
L 215.238504 66.303247 
L 215.238504 65.948612 
L 215.371401 65.948612 
L 215.477813 65.239341 
L 215.540566 65.239341 
L 215.608612 64.175435 
L 215.677257 64.175435 
L 215.785732 63.111529 
L 215.960576 63.111529 
L 215.960576 62.756894 
L 216.11147 62.756894 
L 216.175946 61.692988 
L 216.257075 61.692988 
L 216.362978 60.629082 
L 216.376186 60.629082 
L 216.376186 60.274447 
L 216.493034 60.274447 
L 216.493034 59.919812 
L 216.617486 59.919812 
L 216.617486 59.565176 
L 216.784403 59.565176 
L 216.784403 59.210541 
L 216.905171 59.210541 
L 217.005238 57.437365 
L 217.018199 57.437365 
L 217.018199 57.082729 
L 217.48137 57.082729 
L 217.576901 56.373459 
L 217.655067 56.373459 
L 217.725347 54.954918 
L 217.790938 54.954918 
L 217.790938 54.600282 
L 217.998933 54.600282 
L 217.998933 54.245647 
L 218.187411 54.245647 
L 218.23541 53.181741 
L 218.339646 53.181741 
L 218.339646 52.827106 
L 218.49202 52.827106 
L 218.500006 51.7632 
L 218.626866 51.7632 
L 218.626866 51.408565 
L 218.926448 51.408565 
L 219.03011 50.344659 
L 219.040603 50.344659 
L 219.104935 49.635388 
L 219.279395 49.635388 
L 219.350549 48.926118 
L 219.436979 48.926118 
L 219.507885 48.216847 
L 219.681476 48.216847 
L 219.681476 47.862212 
L 219.956789 47.862212 
L 219.975839 47.152941 
L 220.111904 47.152941 
L 220.215877 46.089035 
L 220.328667 46.089035 
L 220.375039 45.379765 
L 220.628064 45.379765 
L 220.634382 44.670494 
L 221.14006 44.670494 
L 221.14006 44.315859 
L 221.568717 44.315859 
L 221.568717 43.961224 
L 221.896779 43.961224 
L 221.896779 43.606588 
L 222.225769 43.606588 
L 222.225769 43.251953 
L 222.413054 43.251953 
L 222.423147 42.188047 
L 222.683088 42.188047 
L 222.720531 41.478776 
L 222.835155 41.478776 
L 222.835155 41.124141 
L 223.183455 41.124141 
L 223.183455 40.769506 
L 223.346488 40.769506 
L 223.346488 40.414871 
L 223.636089 40.414871 
L 223.704943 39.7056 
L 223.927214 39.7056 
L 223.927214 39.350965 
L 224.372598 39.350965 
L 224.372598 38.996329 
L 224.743925 38.996329 
L 224.743925 38.641694 
L 225.132375 38.641694 
L 225.178425 37.932424 
L 225.653424 37.932424 
L 225.653424 37.577788 
L 225.767334 37.577788 
L 225.767334 37.223153 
L 226.07577 37.223153 
L 226.07577 36.868518 
L 226.283019 36.868518 
L 226.367052 35.804612 
L 226.435484 35.804612 
L 226.44179 35.095341 
L 226.830854 35.095341 
L 226.830854 34.740706 
L 227.441129 34.740706 
L 227.503578 33.6768 
L 227.991679 33.6768 
L 227.991679 33.322165 
L 228.492201 33.322165 
L 228.492201 32.967529 
L 228.672739 32.967529 
L 228.672739 32.612894 
L 228.814213 32.612894 
L 228.837217 31.903624 
L 229.768684 31.903624 
L 229.768684 31.548988 
L 230.227064 31.548988 
L 230.260596 30.839718 
L 230.607355 30.839718 
L 230.607355 30.485082 
L 230.78257 30.485082 
L 230.793381 29.775812 
L 231.144028 29.775812 
L 231.144028 29.421176 
L 231.391489 29.421176 
L 231.488123 28.711906 
L 233.519156 28.711906 
L 233.519156 28.357271 
L 238.820098 28.357271 
L 238.820098 28.002635 
L 240.311747 28.002635 
L 240.311747 27.648 
L 360.8064 27.648 
L 360.8064 27.648 
" style="fill:none;stroke:#ff00ff;stroke-linecap:square;stroke-width:1.5;"/>
   </g>
   <g id="line2d_41">
    <defs>
     <path d="M -0 8.485281 
L 5.091169 0 
L 0 -8.485281 
L -5.091169 -0 
z
" id="mc044bad5af" style="stroke:#ff00ff;stroke-linejoin:miter;stroke-width:1.5;"/>
    </defs>
    <g>
     <use style="fill-opacity:0;stroke:#ff00ff;stroke-linejoin:miter;stroke-width:1.5;" x="160.403075" xlink:href="#mc044bad5af" y="240.783812"/>
     <use style="fill-opacity:0;stroke:#ff00ff;stroke-linejoin:miter;stroke-width:1.5;" x="202.584773" xlink:href="#mc044bad5af" y="114.888282"/>
     <use style="fill-opacity:0;stroke:#ff00ff;stroke-linejoin:miter;stroke-width:1.5;" x="240.311747" xlink:href="#mc044bad5af" y="28.002635"/>
     <use style="fill-opacity:0;stroke:#ff00ff;stroke-linejoin:miter;stroke-width:1.5;" x="240.311747" xlink:href="#mc044bad5af" y="27.648"/>
     <use style="fill-opacity:0;stroke:#ff00ff;stroke-linejoin:miter;stroke-width:1.5;" x="360.8064" xlink:href="#mc044bad5af" y="27.648"/>
    </g>
   </g>
   <g id="line2d_42">
    <path style="fill:none;stroke:#ff00ff;stroke-linecap:square;stroke-width:1.5;"/>
    <g/>
   </g>
   <g id="line2d_43">
    <path clip-path="url(#p9febb19a16)" d="M 156.504099 247.167247 
" style="fill:none;stroke:#ff00ff;stroke-linecap:square;stroke-width:1.5;"/>
    <defs>
     <path d="M -12 12 
L 12 -12 
M -12 -12 
L 12 12 
" id="m0d0ae3a85d" style="stroke:#ff00ff;"/>
    </defs>
    <g clip-path="url(#p9febb19a16)">
     <use style="fill:#ff00ff;stroke:#ff00ff;" x="156.504099" xlink:href="#m0d0ae3a85d" y="247.167247"/>
    </g>
   </g>
   <g id="line2d_44">
    <defs>
     <path d="M 0 1.5 
C 0.397805 1.5 0.77937 1.341951 1.06066 1.06066 
C 1.341951 0.77937 1.5 0.397805 1.5 0 
C 1.5 -0.397805 1.341951 -0.77937 1.06066 -1.06066 
C 0.77937 -1.341951 0.397805 -1.5 0 -1.5 
C -0.397805 -1.5 -0.77937 -1.341951 -1.06066 -1.06066 
C -1.341951 -0.77937 -1.5 -0.397805 -1.5 0 
C -1.5 0.397805 -1.341951 0.77937 -1.06066 1.06066 
C -0.77937 1.341951 -0.397805 1.5 0 1.5 
z
" id="m976485879d" style="stroke:#ff7500;"/>
    </defs>
    <g>
     <use style="fill:#ff7500;stroke:#ff7500;" x="231.418308" xlink:href="#m976485879d" y="27.648"/>
     <use style="fill:#ff7500;stroke:#ff7500;" x="231.418308" xlink:href="#m976485879d" y="27.648"/>
    </g>
   </g>
   <g id="line2d_45">
    <path d="M -1 293.624471 
L 110.869457 293.624471 
L 110.869457 293.269835 
L 112.462359 293.269835 
L 112.462359 292.9152 
L 113.954374 292.9152 
L 113.954374 292.560565 
L 114.349932 292.560565 
L 114.349932 292.205929 
L 116.624364 292.205929 
L 116.624364 291.851294 
L 117.087875 291.851294 
L 117.087875 291.496659 
L 117.695068 291.496659 
L 117.733577 290.787388 
L 117.905897 290.787388 
L 117.905897 290.432753 
L 118.283273 290.432753 
L 118.283273 290.078118 
L 119.016046 290.078118 
L 119.016046 289.723482 
L 119.927874 289.723482 
L 119.927874 289.368847 
L 120.047313 289.368847 
L 120.064314 288.304941 
L 120.879082 288.304941 
L 120.879082 287.595671 
L 121.923558 287.595671 
L 122.031009 286.8864 
L 123.188551 286.8864 
L 123.188551 286.531765 
L 124.278976 286.531765 
L 124.346766 285.822494 
L 124.454723 285.822494 
L 124.454723 285.467859 
L 124.682096 285.467859 
L 124.682096 285.113224 
L 125.615735 285.113224 
L 125.615735 284.758588 
L 126.529336 284.758588 
L 126.529336 284.403953 
L 127.561007 284.403953 
L 127.561007 284.049318 
L 130.017244 284.049318 
L 130.017244 283.694682 
L 131.572963 283.694682 
L 131.572963 283.340047 
L 132.941356 283.340047 
L 132.941356 282.985412 
L 133.697279 282.985412 
L 133.697279 282.630776 
L 134.248929 282.630776 
L 134.248929 282.276141 
L 134.550301 282.276141 
L 134.597448 281.566871 
L 135.14656 281.566871 
L 135.14656 281.212235 
L 135.55372 281.212235 
L 135.55372 280.8576 
L 135.827697 280.8576 
L 135.827697 280.502965 
L 136.591211 280.502965 
L 136.591211 280.148329 
L 136.961653 280.148329 
L 137.003134 279.439059 
L 137.304564 279.439059 
L 137.412988 278.729788 
L 137.419744 278.729788 
L 137.419744 278.375153 
L 138.303759 278.375153 
L 138.303759 278.020518 
L 138.604239 278.020518 
L 138.604239 277.665882 
L 138.83119 277.665882 
L 138.83119 277.311247 
L 139.012042 277.311247 
L 139.012042 276.956612 
L 139.221885 276.956612 
L 139.289277 275.892706 
L 140.318592 275.892706 
L 140.318592 275.538071 
L 140.713916 275.538071 
L 140.713916 275.183435 
L 141.393187 275.183435 
L 141.393187 274.8288 
L 141.529405 274.8288 
L 141.529405 274.474165 
L 142.038218 274.474165 
L 142.038218 273.410259 
L 142.321419 273.410259 
L 142.363015 272.346353 
L 142.492411 272.346353 
L 142.492411 271.991718 
L 142.976156 271.991718 
L 143.011313 270.927812 
L 143.608869 270.927812 
L 143.608869 270.573176 
L 144.136106 270.573176 
L 144.136106 270.218541 
L 144.92746 270.218541 
L 144.945579 269.509271 
L 145.219746 269.509271 
L 145.219746 269.154635 
L 145.485575 269.154635 
L 145.595238 267.736094 
L 146.057504 267.736094 
L 146.057504 267.381459 
L 146.649811 267.381459 
L 146.649811 266.672188 
L 147.002129 266.672188 
L 147.002129 266.317553 
L 147.199956 266.317553 
L 147.199956 265.962918 
L 147.439393 265.962918 
L 147.518533 265.253647 
L 147.679737 265.253647 
L 147.679737 264.899012 
L 148.074887 264.899012 
L 148.074887 264.544376 
L 148.461907 264.544376 
L 148.47317 263.835106 
L 148.589164 263.835106 
L 148.589164 263.480471 
L 148.844805 263.480471 
L 148.95122 262.061929 
L 149.024261 262.061929 
L 149.027905 261.352659 
L 149.306439 261.352659 
L 149.313619 260.288753 
L 150.193627 260.288753 
L 150.193627 259.934118 
L 150.350533 259.934118 
L 150.350533 259.579482 
L 150.553245 259.579482 
L 150.553245 259.224847 
L 151.151853 259.224847 
L 151.151853 258.870212 
L 151.268675 258.870212 
L 151.268675 258.515576 
L 151.54166 258.515576 
L 151.54166 258.160941 
L 151.923554 258.160941 
L 152.0015 257.451671 
L 152.094611 257.451671 
L 152.106991 256.7424 
L 152.811444 256.7424 
L 152.811444 256.387765 
L 152.94804 256.387765 
L 152.94804 256.033129 
L 153.092462 256.033129 
L 153.092462 255.678494 
L 153.372236 255.678494 
L 153.441534 254.969224 
L 153.789906 254.969224 
L 153.88867 254.259953 
L 154.1375 254.259953 
L 154.20404 253.196047 
L 154.552285 253.196047 
L 154.552285 252.486776 
L 154.944823 252.486776 
L 155.019177 251.422871 
L 155.355388 251.422871 
L 155.355388 251.068235 
L 155.759731 251.068235 
L 155.795369 250.358965 
L 155.917045 250.358965 
L 155.917045 250.004329 
L 156.217836 250.004329 
L 156.217836 249.649694 
L 156.37138 249.649694 
L 156.43294 248.940424 
L 156.660192 248.940424 
L 156.682039 247.876518 
L 156.836668 247.876518 
L 156.836668 247.521882 
L 156.968545 247.521882 
L 156.987651 246.457976 
L 157.241336 246.457976 
L 157.274277 245.748706 
L 157.632869 245.748706 
L 157.642093 245.039435 
L 157.91899 245.039435 
L 157.975696 244.330165 
L 158.043518 244.330165 
L 158.043518 243.975529 
L 158.216484 243.975529 
L 158.216484 243.620894 
L 158.381225 243.620894 
L 158.387873 242.911624 
L 158.493929 242.911624 
L 158.498335 242.202353 
L 158.920889 242.202353 
L 158.989685 241.493082 
L 159.249688 241.493082 
L 159.249688 241.138447 
L 159.378354 241.138447 
L 159.378354 240.783812 
L 159.495704 240.783812 
L 159.60402 239.010635 
L 159.655874 239.010635 
L 159.664158 238.301365 
L 159.831116 238.301365 
L 159.831116 237.946729 
L 159.992537 237.946729 
L 160.029123 236.528188 
L 160.142495 236.528188 
L 160.142495 236.173553 
L 160.353243 236.173553 
L 160.353243 235.818918 
L 160.636516 235.818918 
L 160.705204 234.755012 
L 161.198212 234.755012 
L 161.287687 233.336471 
L 161.314257 233.336471 
L 161.314257 232.981835 
L 161.517974 232.981835 
L 161.527352 232.272565 
L 161.72322 232.272565 
L 161.72322 231.917929 
L 162.284473 231.917929 
L 162.345614 230.499388 
L 162.420867 230.499388 
L 162.511844 229.790118 
L 162.658969 229.790118 
L 162.736499 229.080847 
L 162.876649 229.080847 
L 162.876649 228.726212 
L 163.189937 228.726212 
L 163.189937 228.371576 
L 163.330169 228.371576 
L 163.435508 227.307671 
L 163.95848 227.307671 
L 164.040691 226.5984 
L 164.215425 226.5984 
L 164.215425 226.243765 
L 164.454469 226.243765 
L 164.454469 225.889129 
L 164.696853 225.889129 
L 164.696853 225.534494 
L 164.886026 225.534494 
L 164.990826 224.470588 
L 165.021997 224.470588 
L 165.121398 223.406682 
L 165.166266 223.406682 
L 165.166266 223.052047 
L 165.340085 223.052047 
L 165.378325 222.342776 
L 165.457615 222.342776 
L 165.457615 221.988141 
L 165.581974 221.988141 
L 165.581974 221.633506 
L 165.729528 221.633506 
L 165.832729 220.214965 
L 165.843167 220.214965 
L 165.853599 219.151059 
L 166.108133 219.151059 
L 166.153644 218.441788 
L 166.282241 218.441788 
L 166.349113 217.732518 
L 166.422978 217.732518 
L 166.528203 216.313976 
L 166.619974 216.313976 
L 166.619974 215.959341 
L 166.762476 215.959341 
L 166.788012 214.186165 
L 166.892631 214.186165 
L 166.991062 212.767624 
L 167.041484 212.767624 
L 167.041484 212.412988 
L 167.214132 212.412988 
L 167.262578 211.703718 
L 167.611825 211.703718 
L 167.713323 209.575906 
L 167.803533 209.575906 
L 167.873251 208.512 
L 167.986658 208.512 
L 168.092773 207.448094 
L 168.099386 207.448094 
L 168.204869 206.384188 
L 168.283595 206.384188 
L 168.348949 205.674918 
L 168.408875 205.674918 
L 168.473796 204.611012 
L 168.706955 204.611012 
L 168.812914 202.837835 
L 168.851067 202.837835 
L 168.892945 202.128565 
L 168.985255 202.128565 
L 169.088408 201.419294 
L 169.099695 201.419294 
L 169.110975 200.000753 
L 169.340129 200.000753 
L 169.424115 199.291482 
L 169.699366 199.291482 
L 169.709079 198.582212 
L 169.907097 198.582212 
L 169.907097 198.227576 
L 170.154095 198.227576 
L 170.170684 197.518306 
L 170.483121 197.518306 
L 170.483121 197.163671 
L 171.032981 197.163671 
L 171.032981 196.809035 
L 171.199675 196.809035 
L 171.231046 196.099765 
L 171.335983 196.099765 
L 171.335983 195.745129 
L 171.523186 195.745129 
L 171.523186 195.390494 
L 171.743437 195.390494 
L 171.784789 194.326588 
L 172.623453 194.326588 
L 172.623453 193.971953 
L 172.765341 193.971953 
L 172.847704 192.908047 
L 172.90924 192.908047 
L 172.90924 192.553412 
L 173.122032 192.553412 
L 173.208898 191.489506 
L 173.387427 191.489506 
L 173.481027 190.4256 
L 173.510801 190.4256 
L 173.550428 189.007059 
L 174.033052 189.007059 
L 174.107176 188.297788 
L 174.509247 188.297788 
L 174.509247 187.943153 
L 175.337152 187.943153 
L 175.337152 187.588518 
L 175.73871 187.588518 
L 175.73871 187.233882 
L 176.254842 187.233882 
L 176.254842 186.879247 
L 176.660975 186.879247 
L 176.660975 186.524612 
L 177.108555 186.524612 
L 177.147012 185.815341 
L 177.608049 185.815341 
L 177.608049 185.460706 
L 177.808769 185.460706 
L 177.808769 185.106071 
L 178.43201 185.106071 
L 178.43201 184.751435 
L 178.680761 184.751435 
L 178.680761 184.3968 
L 179.669874 184.3968 
L 179.669874 184.042165 
L 179.844191 184.042165 
L 179.844191 183.687529 
L 181.740368 183.687529 
L 181.740368 183.332894 
L 182.079221 183.332894 
L 182.079221 182.978259 
L 182.347092 182.978259 
L 182.347092 182.623624 
L 183.113678 182.623624 
L 183.217555 181.559718 
L 183.53103 181.559718 
L 183.53103 181.205082 
L 184.135402 181.205082 
L 184.148364 180.495812 
L 184.389068 180.495812 
L 184.49058 179.431906 
L 184.522639 179.431906 
L 184.609696 178.722635 
L 184.749902 178.722635 
L 184.749902 178.368 
L 185.068571 178.368 
L 185.068571 178.013365 
L 185.236274 178.013365 
L 185.288311 176.949459 
L 185.391953 176.949459 
L 185.488208 176.240188 
L 185.766818 176.240188 
L 185.766818 175.885553 
L 186.165762 175.885553 
L 186.165762 175.530918 
L 186.287837 175.530918 
L 186.379626 174.467012 
L 186.628158 174.467012 
L 186.673532 173.757741 
L 186.9731 173.757741 
L 186.9731 173.403106 
L 187.172273 173.403106 
L 187.172273 173.048471 
L 187.34751 173.048471 
L 187.414877 170.920659 
L 187.481532 170.920659 
L 187.570509 170.211388 
L 187.624443 170.211388 
L 187.724864 169.147482 
L 187.742092 169.147482 
L 187.742092 168.792847 
L 187.925955 168.792847 
L 188.007812 167.728941 
L 188.063712 167.728941 
L 188.090686 166.3104 
L 188.209549 166.3104 
L 188.271642 165.246494 
L 188.431143 165.246494 
L 188.505027 163.827953 
L 188.547435 163.827953 
L 188.63596 161.700141 
L 188.716118 161.700141 
L 188.805174 160.2816 
L 188.874101 160.2816 
L 188.968519 159.217694 
L 189.007286 159.217694 
L 189.112727 156.735247 
L 189.157242 156.735247 
L 189.157242 156.380612 
L 189.281155 156.380612 
L 189.386356 154.962071 
L 189.41448 154.962071 
L 189.510892 153.898165 
L 189.544753 153.898165 
L 189.637556 151.770353 
L 189.662366 151.770353 
L 189.764208 149.997176 
L 189.800536 149.997176 
L 189.8979 148.578635 
L 189.914907 148.578635 
L 189.924442 147.514729 
L 190.09811 147.514729 
L 190.207018 146.450824 
L 190.220893 146.450824 
L 190.307586 145.032282 
L 190.434258 145.032282 
L 190.506318 144.323012 
L 190.554473 144.323012 
L 190.554473 143.968376 
L 190.718871 143.968376 
L 190.806467 142.904471 
L 190.858199 142.904471 
L 190.858199 142.549835 
L 190.978095 142.549835 
L 191.067615 141.485929 
L 191.118634 141.485929 
L 191.186963 140.776659 
L 191.358241 140.776659 
L 191.382034 140.067388 
L 191.663724 140.067388 
L 191.714284 139.358118 
L 191.81425 139.358118 
L 191.848702 138.294212 
L 192.070371 138.294212 
L 192.111368 137.584941 
L 192.249581 137.584941 
L 192.33144 136.1664 
L 192.458637 136.1664 
L 192.500243 135.102494 
L 192.66432 135.102494 
L 192.66432 134.747859 
L 192.83124 134.747859 
L 192.83124 134.393224 
L 194.016726 134.393224 
L 194.059685 133.683953 
L 194.227583 133.683953 
L 194.227583 133.329318 
L 194.634919 133.329318 
L 194.634919 132.974682 
L 194.980798 132.974682 
L 195.016241 132.265412 
L 195.310787 132.265412 
L 195.319189 131.556141 
L 195.523402 131.556141 
L 195.523402 131.201506 
L 196.149578 131.201506 
L 196.16743 130.1376 
L 196.483846 130.1376 
L 196.483846 129.782965 
L 196.631523 129.782965 
L 196.737703 128.719059 
L 196.820321 128.719059 
L 196.820321 128.364424 
L 196.996433 128.364424 
L 197.045882 127.655153 
L 197.13366 127.655153 
L 197.13366 127.300518 
L 197.436583 127.300518 
L 197.503735 126.236612 
L 197.564298 126.236612 
L 197.646672 125.172706 
L 197.692249 125.172706 
L 197.778979 124.1088 
L 197.822059 124.1088 
L 197.896533 122.690259 
L 197.978008 122.690259 
L 198.057517 121.626353 
L 198.115254 121.626353 
L 198.150347 120.917082 
L 198.32722 120.917082 
L 198.389686 120.207812 
L 198.450892 120.207812 
L 198.537348 119.143906 
L 198.617405 119.143906 
L 198.625497 118.434635 
L 198.75967 118.434635 
L 198.841627 117.016094 
L 199.053261 117.016094 
L 199.091486 115.952188 
L 199.166942 115.952188 
L 199.274898 114.888282 
L 199.349624 114.888282 
L 199.441303 113.824376 
L 199.498689 113.824376 
L 199.569306 112.760471 
L 199.610955 112.760471 
L 199.674737 111.696565 
L 199.733138 111.696565 
L 199.836435 110.278024 
L 199.876276 110.278024 
L 199.986076 108.859482 
L 200.05489 108.859482 
L 200.164617 107.795576 
L 200.219121 107.795576 
L 200.286612 106.731671 
L 200.392386 106.731671 
L 200.501585 106.0224 
L 200.518819 106.0224 
L 200.518819 105.667765 
L 200.642531 105.667765 
L 200.642531 105.313129 
L 200.770792 105.313129 
L 200.795688 104.603859 
L 200.904195 104.603859 
L 200.904195 104.249224 
L 201.198492 104.249224 
L 201.244637 103.539953 
L 201.32642 103.539953 
L 201.398619 102.476047 
L 201.445624 102.476047 
L 201.51222 101.766776 
L 201.674469 101.766776 
L 201.771857 100.702871 
L 201.905605 100.702871 
L 201.97125 99.284329 
L 202.111617 99.284329 
L 202.153632 98.575059 
L 202.350967 98.575059 
L 202.395441 97.865788 
L 202.468978 97.865788 
L 202.513599 97.156518 
L 202.613083 97.156518 
L 202.708053 96.447247 
L 202.751692 96.447247 
L 202.751692 96.092612 
L 203.116743 96.092612 
L 203.116743 95.737976 
L 203.243539 95.737976 
L 203.243539 95.383341 
L 203.406155 95.383341 
L 203.500034 94.319435 
L 203.546698 94.319435 
L 203.546698 93.9648 
L 203.980203 93.9648 
L 204.005314 93.255529 
L 204.132316 93.255529 
L 204.143997 92.546259 
L 204.280699 92.546259 
L 204.280699 92.191624 
L 204.441908 92.191624 
L 204.441908 91.836988 
L 204.662428 91.836988 
L 204.760805 91.127718 
L 204.839176 91.127718 
L 204.942979 88.999906 
L 205.031181 88.999906 
L 205.085126 86.872094 
L 205.193843 86.872094 
L 205.273184 85.453553 
L 205.318397 85.453553 
L 205.421051 84.744282 
L 205.460105 84.744282 
L 205.502519 83.680376 
L 205.615697 83.680376 
L 205.650578 82.971106 
L 205.72945 82.971106 
L 205.815295 81.552565 
L 205.940945 81.552565 
L 205.991112 80.843294 
L 206.132237 80.843294 
L 206.145015 79.779388 
L 206.26136 79.779388 
L 206.296107 79.070118 
L 206.379583 79.070118 
L 206.449783 78.006212 
L 206.639405 78.006212 
L 206.74715 76.942306 
L 206.760702 76.942306 
L 206.760702 76.587671 
L 206.900226 76.587671 
L 206.947734 75.8784 
L 207.017018 75.8784 
L 207.10601 74.459859 
L 207.143547 74.459859 
L 207.146533 73.750588 
L 207.278952 73.750588 
L 207.350476 72.686682 
L 208.164015 72.686682 
L 208.240712 70.913506 
L 208.731839 70.913506 
L 208.731839 70.558871 
L 208.896872 70.558871 
L 208.967181 69.494965 
L 209.049977 69.494965 
L 209.049977 69.140329 
L 209.278878 69.140329 
L 209.278878 68.785694 
L 209.477933 68.785694 
L 209.477933 68.431059 
L 209.846566 68.431059 
L 209.896083 67.721788 
L 210.139187 67.721788 
L 210.239807 67.012518 
L 210.317058 67.012518 
L 210.317058 66.657882 
L 210.430671 66.657882 
L 210.430671 66.303247 
L 210.61879 66.303247 
L 210.702058 65.239341 
L 210.84216 65.239341 
L 210.870355 64.530071 
L 210.955635 64.530071 
L 211.043903 63.466165 
L 211.184302 63.466165 
L 211.258044 62.047624 
L 211.393947 62.047624 
L 211.393947 61.692988 
L 211.539256 61.692988 
L 211.60678 60.629082 
L 211.798456 60.629082 
L 211.798456 60.274447 
L 212.14809 60.274447 
L 212.14809 59.919812 
L 212.367694 59.919812 
L 212.367694 59.565176 
L 212.488847 59.565176 
L 212.488847 59.210541 
L 212.635513 59.210541 
L 212.64691 58.501271 
L 212.905804 58.501271 
L 212.905804 58.146635 
L 213.117028 58.146635 
L 213.117028 57.792 
L 213.281418 57.792 
L 213.376128 57.082729 
L 213.399582 57.082729 
L 213.399582 56.728094 
L 213.707358 56.728094 
L 213.707358 56.373459 
L 214.053323 56.373459 
L 214.053323 56.018824 
L 214.315797 56.018824 
L 214.318517 55.309553 
L 214.447812 55.309553 
L 214.499057 54.600282 
L 214.674546 54.600282 
L 214.758416 53.536376 
L 214.883193 53.536376 
L 214.918128 52.827106 
L 215.07029 52.827106 
L 215.145587 52.117835 
L 215.304102 52.117835 
L 215.304102 51.7632 
L 215.766437 51.7632 
L 215.857806 50.699294 
L 215.880658 50.699294 
L 215.880658 50.344659 
L 216.057932 50.344659 
L 216.057932 49.990024 
L 216.176972 49.990024 
L 216.176972 49.635388 
L 216.355353 49.635388 
L 216.359623 48.926118 
L 216.550382 48.926118 
L 216.61919 47.862212 
L 216.696637 47.862212 
L 216.696637 47.507576 
L 217.274707 47.507576 
L 217.332137 46.798306 
L 217.610889 46.798306 
L 217.697058 46.089035 
L 217.860619 46.089035 
L 217.95621 45.379765 
L 218.005547 45.379765 
L 218.03412 44.315859 
L 218.233386 44.315859 
L 218.233386 43.961224 
L 218.484213 43.961224 
L 218.522492 42.897318 
L 218.649561 42.897318 
L 218.69936 42.188047 
L 218.809633 42.188047 
L 218.809633 41.833412 
L 218.962865 41.833412 
L 218.968088 41.124141 
L 219.100542 41.124141 
L 219.143903 40.414871 
L 219.445695 40.414871 
L 219.471216 39.7056 
L 220.210328 39.7056 
L 220.244924 38.641694 
L 220.400725 38.641694 
L 220.400725 38.287059 
L 220.657614 38.287059 
L 220.657614 37.932424 
L 221.200517 37.932424 
L 221.200517 37.577788 
L 221.511907 37.577788 
L 221.511907 37.223153 
L 222.05501 37.223153 
L 222.05501 36.868518 
L 222.221601 36.868518 
L 222.297304 35.804612 
L 222.457362 35.804612 
L 222.457362 35.449976 
L 222.723213 35.449976 
L 222.723213 35.095341 
L 222.94056 35.095341 
L 222.95467 34.386071 
L 223.60914 34.386071 
L 223.617505 33.322165 
L 224.063445 33.322165 
L 224.063445 32.967529 
L 224.214707 32.967529 
L 224.237191 32.258259 
L 224.328658 32.258259 
L 224.328658 31.903624 
L 224.909267 31.903624 
L 224.971371 31.194353 
L 225.264298 31.194353 
L 225.358982 30.485082 
L 225.391276 30.485082 
L 225.486952 29.775812 
L 226.832719 29.775812 
L 226.832719 29.421176 
L 226.971906 29.421176 
L 226.971906 29.066541 
L 228.147803 29.066541 
L 228.147803 28.711906 
L 228.875931 28.711906 
L 228.875931 28.357271 
L 231.408992 28.357271 
L 231.418308 27.648 
L 360.8064 27.648 
L 360.8064 27.648 
" style="fill:none;stroke:#ff7500;stroke-linecap:square;stroke-width:1.5;"/>
   </g>
   <g id="line2d_46">
    <defs>
     <path d="M 0 -6 
L -1.347084 -1.854102 
L -5.706339 -1.854102 
L -2.179628 0.708204 
L -3.526712 4.854102 
L -0 2.291796 
L 3.526712 4.854102 
L 2.179628 0.708204 
L 5.706339 -1.854102 
L 1.347084 -1.854102 
z
" id="m3ad084ea4f" style="stroke:#ff7500;stroke-linejoin:bevel;stroke-width:1.5;"/>
    </defs>
    <g>
     <use style="fill-opacity:0;stroke:#ff7500;stroke-linejoin:bevel;stroke-width:1.5;" x="159.992537" xlink:href="#m3ad084ea4f" y="237.946729"/>
     <use style="fill-opacity:0;stroke:#ff7500;stroke-linejoin:bevel;stroke-width:1.5;" x="208.902011" xlink:href="#m3ad084ea4f" y="70.204235"/>
     <use style="fill-opacity:0;stroke:#ff7500;stroke-linejoin:bevel;stroke-width:1.5;" x="231.418308" xlink:href="#m3ad084ea4f" y="27.648"/>
     <use style="fill-opacity:0;stroke:#ff7500;stroke-linejoin:bevel;stroke-width:1.5;" x="231.418308" xlink:href="#m3ad084ea4f" y="27.648"/>
     <use style="fill-opacity:0;stroke:#ff7500;stroke-linejoin:bevel;stroke-width:1.5;" x="360.8064" xlink:href="#m3ad084ea4f" y="27.648"/>
    </g>
   </g>
   <g id="line2d_47">
    <path style="fill:none;stroke:#ff7500;stroke-linecap:square;stroke-width:1.5;"/>
    <g/>
   </g>
   <g id="line2d_48">
    <path clip-path="url(#p9febb19a16)" d="M 145.080914 269.509271 
" style="fill:none;stroke:#ff7500;stroke-linecap:square;stroke-width:1.5;"/>
    <defs>
     <path d="M -12 12 
L 12 -12 
M -12 -12 
L 12 12 
" id="m9d4a8325ed" style="stroke:#ff7500;"/>
    </defs>
    <g clip-path="url(#p9febb19a16)">
     <use style="fill:#ff7500;stroke:#ff7500;" x="145.080914" xlink:href="#m9d4a8325ed" y="269.509271"/>
    </g>
   </g>
   <g id="line2d_49">
    <path d="M 360.8064 240.429176 
L 380.514816 293.51808 
" style="fill:none;stroke:#000080;stroke-linecap:square;stroke-width:1.5;"/>
    <g>
     <use style="fill-opacity:0;stroke:#000080;stroke-width:1.5;" x="360.8064" xlink:href="#mc3c24c00d2" y="240.429176"/>
     <use style="fill-opacity:0;stroke:#000080;stroke-width:1.5;" x="380.514816" xlink:href="#mc3c24c00d2" y="293.51808"/>
    </g>
   </g>
   <g id="line2d_50">
    <path d="M 360.8064 27.648 
L 380.514816 206.70336 
" style="fill:none;stroke:#ff00ff;stroke-linecap:square;stroke-width:1.5;"/>
    <g>
     <use style="fill-opacity:0;stroke:#ff00ff;stroke-linejoin:miter;stroke-width:1.5;" x="360.8064" xlink:href="#mc044bad5af" y="27.648"/>
     <use style="fill-opacity:0;stroke:#ff00ff;stroke-linejoin:miter;stroke-width:1.5;" x="380.514816" xlink:href="#mc044bad5af" y="206.70336"/>
    </g>
   </g>
   <g id="line2d_51">
    <path d="M 360.8064 27.648 
L 380.514816 119.88864 
" style="fill:none;stroke:#ff7500;stroke-linecap:square;stroke-width:1.5;"/>
    <g>
     <use style="fill-opacity:0;stroke:#ff7500;stroke-linejoin:bevel;stroke-width:1.5;" x="360.8064" xlink:href="#m3ad084ea4f" y="27.648"/>
     <use style="fill-opacity:0;stroke:#ff7500;stroke-linejoin:bevel;stroke-width:1.5;" x="380.514816" xlink:href="#m3ad084ea4f" y="119.88864"/>
    </g>
   </g>
   <g id="line2d_52">
    <path d="M 360.8064 298.944 
L 360.8064 27.648 
" style="fill:none;stroke:#000000;stroke-linecap:square;stroke-width:1.5;"/>
   </g>
   <g id="patch_3">
    <path d="M 57.6 298.944 
L 360.8064 298.944 
" style="fill:none;stroke:#000000;stroke-linecap:square;stroke-linejoin:miter;stroke-width:0.8;"/>
   </g>
   <g id="patch_4">
    <path d="M 57.6 27.648 
L 360.8064 27.648 
" style="fill:none;stroke:#000000;stroke-linecap:square;stroke-linejoin:miter;stroke-width:0.8;"/>
   </g>
   <g id="text_13">
    <!-- different -->
    <g transform="translate(386.578944 297.381205)scale(0.14 -0.14)">
     <use xlink:href="#DejaVuSans-64"/>
     <use x="63.476562" xlink:href="#DejaVuSans-69"/>
     <use x="91.259766" xlink:href="#DejaVuSans-66"/>
     <use x="126.464844" xlink:href="#DejaVuSans-66"/>
     <use x="161.669922" xlink:href="#DejaVuSans-65"/>
     <use x="223.193359" xlink:href="#DejaVuSans-72"/>
     <use x="262.056641" xlink:href="#DejaVuSans-65"/>
     <use x="323.580078" xlink:href="#DejaVuSans-6e"/>
     <use x="386.958984" xlink:href="#DejaVuSans-74"/>
    </g>
   </g>
   <g id="text_14">
    <!-- cma.fmin  -->
    <g transform="translate(386.578944 210.566485)scale(0.14 -0.14)">
     <use xlink:href="#DejaVuSans-63"/>
     <use x="54.980469" xlink:href="#DejaVuSans-6d"/>
     <use x="152.392578" xlink:href="#DejaVuSans-61"/>
     <use x="213.671875" xlink:href="#DejaVuSans-2e"/>
     <use x="245.458984" xlink:href="#DejaVuSans-66"/>
     <use x="280.664062" xlink:href="#DejaVuSans-6d"/>
     <use x="378.076172" xlink:href="#DejaVuSans-69"/>
     <use x="405.859375" xlink:href="#DejaVuSans-6e"/>
     <use x="469.238281" xlink:href="#DejaVuSans-20"/>
    </g>
   </g>
   <g id="text_15">
    <!-- diffcma b -->
    <g transform="translate(386.578944 123.751765)scale(0.14 -0.14)">
     <defs>
      <path d="M 3116 1747 
Q 3116 2381 2855 2742 
Q 2594 3103 2138 3103 
Q 1681 3103 1420 2742 
Q 1159 2381 1159 1747 
Q 1159 1113 1420 752 
Q 1681 391 2138 391 
Q 2594 391 2855 752 
Q 3116 1113 3116 1747 
z
M 1159 2969 
Q 1341 3281 1617 3432 
Q 1894 3584 2278 3584 
Q 2916 3584 3314 3078 
Q 3713 2572 3713 1747 
Q 3713 922 3314 415 
Q 2916 -91 2278 -91 
Q 1894 -91 1617 61 
Q 1341 213 1159 525 
L 1159 0 
L 581 0 
L 581 4863 
L 1159 4863 
L 1159 2969 
z
" id="DejaVuSans-62" transform="scale(0.015625)"/>
     </defs>
     <use xlink:href="#DejaVuSans-64"/>
     <use x="63.476562" xlink:href="#DejaVuSans-69"/>
     <use x="91.259766" xlink:href="#DejaVuSans-66"/>
     <use x="126.464844" xlink:href="#DejaVuSans-66"/>
     <use x="161.669922" xlink:href="#DejaVuSans-63"/>
     <use x="216.650391" xlink:href="#DejaVuSans-6d"/>
     <use x="314.0625" xlink:href="#DejaVuSans-61"/>
     <use x="375.341797" xlink:href="#DejaVuSans-20"/>
     <use x="407.128906" xlink:href="#DejaVuSans-62"/>
    </g>
   </g>
   <g id="text_16">
    <!-- best 2009 -->
    <g transform="translate(386.578944 36.937045)scale(0.14 -0.14)">
     <defs>
      <path d="M 703 97 
L 703 672 
Q 941 559 1184 500 
Q 1428 441 1663 441 
Q 2288 441 2617 861 
Q 2947 1281 2994 2138 
Q 2813 1869 2534 1725 
Q 2256 1581 1919 1581 
Q 1219 1581 811 2004 
Q 403 2428 403 3163 
Q 403 3881 828 4315 
Q 1253 4750 1959 4750 
Q 2769 4750 3195 4129 
Q 3622 3509 3622 2328 
Q 3622 1225 3098 567 
Q 2575 -91 1691 -91 
Q 1453 -91 1209 -44 
Q 966 3 703 97 
z
M 1959 2075 
Q 2384 2075 2632 2365 
Q 2881 2656 2881 3163 
Q 2881 3666 2632 3958 
Q 2384 4250 1959 4250 
Q 1534 4250 1286 3958 
Q 1038 3666 1038 3163 
Q 1038 2656 1286 2365 
Q 1534 2075 1959 2075 
z
" id="DejaVuSans-39" transform="scale(0.015625)"/>
     </defs>
     <use xlink:href="#DejaVuSans-62"/>
     <use x="63.476562" xlink:href="#DejaVuSans-65"/>
     <use x="125" xlink:href="#DejaVuSans-73"/>
     <use x="177.099609" xlink:href="#DejaVuSans-74"/>
     <use x="216.308594" xlink:href="#DejaVuSans-20"/>
     <use x="248.095703" xlink:href="#DejaVuSans-32"/>
     <use x="311.71875" xlink:href="#DejaVuSans-30"/>
     <use x="375.341797" xlink:href="#DejaVuSans-30"/>
     <use x="438.964844" xlink:href="#DejaVuSans-39"/>
    </g>
   </g>
   <g id="text_17">
    <!-- bbob f21, 40-D -->
    <g transform="translate(60.632064 38.111366)scale(0.102 -0.102)">
     <defs>
      <path d="M 1259 4147 
L 1259 519 
L 2022 519 
Q 2988 519 3436 956 
Q 3884 1394 3884 2338 
Q 3884 3275 3436 3711 
Q 2988 4147 2022 4147 
L 1259 4147 
z
M 628 4666 
L 1925 4666 
Q 3281 4666 3915 4102 
Q 4550 3538 4550 2338 
Q 4550 1131 3912 565 
Q 3275 0 1925 0 
L 628 0 
L 628 4666 
z
" id="DejaVuSans-44" transform="scale(0.015625)"/>
     </defs>
     <use xlink:href="#DejaVuSans-62"/>
     <use x="63.476562" xlink:href="#DejaVuSans-62"/>
     <use x="126.953125" xlink:href="#DejaVuSans-6f"/>
     <use x="188.134766" xlink:href="#DejaVuSans-62"/>
     <use x="251.611328" xlink:href="#DejaVuSans-20"/>
     <use x="283.398438" xlink:href="#DejaVuSans-66"/>
     <use x="318.603516" xlink:href="#DejaVuSans-32"/>
     <use x="382.226562" xlink:href="#DejaVuSans-31"/>
     <use x="445.849609" xlink:href="#DejaVuSans-2c"/>
     <use x="477.636719" xlink:href="#DejaVuSans-20"/>
     <use x="509.423828" xlink:href="#DejaVuSans-34"/>
     <use x="573.046875" xlink:href="#DejaVuSans-30"/>
     <use x="636.669922" xlink:href="#DejaVuSans-2d"/>
     <use x="672.753906" xlink:href="#DejaVuSans-44"/>
    </g>
    <!-- 51 targets: 100..1e-08 -->
    <g transform="translate(60.632064 49.533135)scale(0.102 -0.102)">
     <defs>
      <path d="M 691 4666 
L 3169 4666 
L 3169 4134 
L 1269 4134 
L 1269 2991 
Q 1406 3038 1543 3061 
Q 1681 3084 1819 3084 
Q 2600 3084 3056 2656 
Q 3513 2228 3513 1497 
Q 3513 744 3044 326 
Q 2575 -91 1722 -91 
Q 1428 -91 1123 -41 
Q 819 9 494 109 
L 494 744 
Q 775 591 1075 516 
Q 1375 441 1709 441 
Q 2250 441 2565 725 
Q 2881 1009 2881 1497 
Q 2881 1984 2565 2268 
Q 2250 2553 1709 2553 
Q 1456 2553 1204 2497 
Q 953 2441 691 2322 
L 691 4666 
z
" id="DejaVuSans-35" transform="scale(0.015625)"/>
      <path d="M 750 794 
L 1409 794 
L 1409 0 
L 750 0 
L 750 794 
z
M 750 3309 
L 1409 3309 
L 1409 2516 
L 750 2516 
L 750 3309 
z
" id="DejaVuSans-3a" transform="scale(0.015625)"/>
     </defs>
     <use xlink:href="#DejaVuSans-35"/>
     <use x="63.623047" xlink:href="#DejaVuSans-31"/>
     <use x="127.246094" xlink:href="#DejaVuSans-20"/>
     <use x="159.033203" xlink:href="#DejaVuSans-74"/>
     <use x="198.242188" xlink:href="#DejaVuSans-61"/>
     <use x="259.521484" xlink:href="#DejaVuSans-72"/>
     <use x="298.884766" xlink:href="#DejaVuSans-67"/>
     <use x="362.361328" xlink:href="#DejaVuSans-65"/>
     <use x="423.884766" xlink:href="#DejaVuSans-74"/>
     <use x="463.09375" xlink:href="#DejaVuSans-73"/>
     <use x="515.193359" xlink:href="#DejaVuSans-3a"/>
     <use x="548.884766" xlink:href="#DejaVuSans-20"/>
     <use x="580.671875" xlink:href="#DejaVuSans-31"/>
     <use x="644.294922" xlink:href="#DejaVuSans-30"/>
     <use x="707.917969" xlink:href="#DejaVuSans-30"/>
     <use x="771.541016" xlink:href="#DejaVuSans-2e"/>
     <use x="803.328125" xlink:href="#DejaVuSans-2e"/>
     <use x="835.115234" xlink:href="#DejaVuSans-31"/>
     <use x="898.738281" xlink:href="#DejaVuSans-65"/>
     <use x="960.261719" xlink:href="#DejaVuSans-2d"/>
     <use x="996.345703" xlink:href="#DejaVuSans-30"/>
     <use x="1059.96875" xlink:href="#DejaVuSans-38"/>
    </g>
    <!-- 15 instances -->
    <g transform="translate(60.632064 60.954904)scale(0.102 -0.102)">
     <use xlink:href="#DejaVuSans-31"/>
     <use x="63.623047" xlink:href="#DejaVuSans-35"/>
     <use x="127.246094" xlink:href="#DejaVuSans-20"/>
     <use x="159.033203" xlink:href="#DejaVuSans-69"/>
     <use x="186.816406" xlink:href="#DejaVuSans-6e"/>
     <use x="250.195312" xlink:href="#DejaVuSans-73"/>
     <use x="302.294922" xlink:href="#DejaVuSans-74"/>
     <use x="341.503906" xlink:href="#DejaVuSans-61"/>
     <use x="402.783203" xlink:href="#DejaVuSans-6e"/>
     <use x="466.162109" xlink:href="#DejaVuSans-63"/>
     <use x="521.142578" xlink:href="#DejaVuSans-65"/>
     <use x="582.666016" xlink:href="#DejaVuSans-73"/>
    </g>
   </g>
   <g id="text_18">
    <!-- v2.6 -->
    <g style="fill:#808080;" transform="translate(198.292262 294.151352)scale(0.1 -0.1)">
     <use xlink:href="#DejaVuSans-76"/>
     <use x="59.179688" xlink:href="#DejaVuSans-32"/>
     <use x="122.802734" xlink:href="#DejaVuSans-2e"/>
     <use x="154.589844" xlink:href="#DejaVuSans-36"/>
    </g>
   </g>
   <g id="text_19">
    <!-- 21 Gallagher 101 peaks -->
    <g transform="translate(89.7157 21.648)scale(0.2 -0.2)">
     <defs>
      <path d="M 3809 666 
L 3809 1919 
L 2778 1919 
L 2778 2438 
L 4434 2438 
L 4434 434 
Q 4069 175 3628 42 
Q 3188 -91 2688 -91 
Q 1594 -91 976 548 
Q 359 1188 359 2328 
Q 359 3472 976 4111 
Q 1594 4750 2688 4750 
Q 3144 4750 3555 4637 
Q 3966 4525 4313 4306 
L 4313 3634 
Q 3963 3931 3569 4081 
Q 3175 4231 2741 4231 
Q 1884 4231 1454 3753 
Q 1025 3275 1025 2328 
Q 1025 1384 1454 906 
Q 1884 428 2741 428 
Q 3075 428 3337 486 
Q 3600 544 3809 666 
z
" id="DejaVuSans-47" transform="scale(0.015625)"/>
      <path d="M 3513 2113 
L 3513 0 
L 2938 0 
L 2938 2094 
Q 2938 2591 2744 2837 
Q 2550 3084 2163 3084 
Q 1697 3084 1428 2787 
Q 1159 2491 1159 1978 
L 1159 0 
L 581 0 
L 581 4863 
L 1159 4863 
L 1159 2956 
Q 1366 3272 1645 3428 
Q 1925 3584 2291 3584 
Q 2894 3584 3203 3211 
Q 3513 2838 3513 2113 
z
" id="DejaVuSans-68" transform="scale(0.015625)"/>
      <path d="M 581 4863 
L 1159 4863 
L 1159 1991 
L 2875 3500 
L 3609 3500 
L 1753 1863 
L 3688 0 
L 2938 0 
L 1159 1709 
L 1159 0 
L 581 0 
L 581 4863 
z
" id="DejaVuSans-6b" transform="scale(0.015625)"/>
     </defs>
     <use xlink:href="#DejaVuSans-32"/>
     <use x="63.623047" xlink:href="#DejaVuSans-31"/>
     <use x="127.246094" xlink:href="#DejaVuSans-20"/>
     <use x="159.033203" xlink:href="#DejaVuSans-47"/>
     <use x="236.523438" xlink:href="#DejaVuSans-61"/>
     <use x="297.802734" xlink:href="#DejaVuSans-6c"/>
     <use x="325.585938" xlink:href="#DejaVuSans-6c"/>
     <use x="353.369141" xlink:href="#DejaVuSans-61"/>
     <use x="414.648438" xlink:href="#DejaVuSans-67"/>
     <use x="478.125" xlink:href="#DejaVuSans-68"/>
     <use x="541.503906" xlink:href="#DejaVuSans-65"/>
     <use x="603.027344" xlink:href="#DejaVuSans-72"/>
     <use x="644.140625" xlink:href="#DejaVuSans-20"/>
     <use x="675.927734" xlink:href="#DejaVuSans-31"/>
     <use x="739.550781" xlink:href="#DejaVuSans-30"/>
     <use x="803.173828" xlink:href="#DejaVuSans-31"/>
     <use x="866.796875" xlink:href="#DejaVuSans-20"/>
     <use x="898.583984" xlink:href="#DejaVuSans-70"/>
     <use x="962.060547" xlink:href="#DejaVuSans-65"/>
     <use x="1023.583984" xlink:href="#DejaVuSans-61"/>
     <use x="1084.863281" xlink:href="#DejaVuSans-6b"/>
     <use x="1142.773438" xlink:href="#DejaVuSans-73"/>
    </g>
   </g>
  </g>
 </g>
 <defs>
  <clipPath id="p9febb19a16">
   <rect height="271.296" width="303.2064" x="57.6" y="27.648"/>
  </clipPath>
 </defs>
</svg>
