<?xml version="1.0" encoding="utf-8" standalone="no"?>
<!DOCTYPE svg PUBLIC "-//W3C//DTD SVG 1.1//EN"
  "http://www.w3.org/Graphics/SVG/1.1/DTD/svg11.dtd">
<svg height="345.6pt" version="1.1" viewBox="0 0 460.8 345.6" width="460.8pt" xmlns="http://www.w3.org/2000/svg" xmlns:xlink="http://www.w3.org/1999/xlink">
 <metadata>
  <rdf:RDF xmlns:cc="http://creativecommons.org/ns#" xmlns:dc="http://purl.org/dc/elements/1.1/" xmlns:rdf="http://www.w3.org/1999/02/22-rdf-syntax-ns#">
   <cc:Work>
    <dc:type rdf:resource="http://purl.org/dc/dcmitype/StillImage"/>
    <dc:date>2022-05-07T21:25:06.816475</dc:date>
    <dc:format>image/svg+xml</dc:format>
    <dc:creator>
     <cc:Agent>
      <dc:title>Matplotlib v3.4.3, https://matplotlib.org/</dc:title>
     </cc:Agent>
    </dc:creator>
   </cc:Work>
  </rdf:RDF>
 </metadata>
 <defs>
  <style type="text/css">*{stroke-linecap:butt;stroke-linejoin:round;}</style>
 </defs>
 <g id="figure_1">
  <g id="patch_1">
   <path d="M 0 345.6 
L 460.8 345.6 
L 460.8 0 
L 0 0 
z
" style="fill:#ffffff;"/>
  </g>
  <g id="axes_1">
   <g id="patch_2">
    <path d="M 57.6 298.944 
L 360.8064 298.944 
L 360.8064 27.648 
L 57.6 27.648 
z
" style="fill:#ffffff;"/>
   </g>
   <g id="line2d_1">
    <path d="M 101.287718 298.944 
L 101.287718 293.624471 
L 106.699465 293.624471 
L 106.699465 288.304941 
L 116.583514 288.304941 
L 116.583514 282.985412 
L 120.48442 282.985412 
L 120.48442 277.665882 
L 123.880906 277.665882 
L 123.880906 272.346353 
L 127.549596 272.346353 
L 127.549596 267.026824 
L 129.622688 267.026824 
L 129.622688 261.707294 
L 131.341119 261.707294 
L 131.341119 256.387765 
L 132.984158 256.387765 
L 132.984158 251.068235 
L 133.853052 251.068235 
L 133.853052 245.748706 
L 135.328609 245.748706 
L 135.328609 240.429176 
L 136.413909 240.429176 
L 136.413909 235.109647 
L 137.140746 235.109647 
L 137.140746 229.790118 
L 138.335954 229.790118 
L 138.335954 224.470588 
L 139.748412 224.470588 
L 139.748412 219.151059 
L 140.634374 219.151059 
L 140.634374 213.831529 
L 141.953481 213.831529 
L 141.953481 208.512 
L 142.804452 208.512 
L 142.804452 203.192471 
L 143.423243 203.192471 
L 143.423243 197.872941 
L 144.436197 197.872941 
L 144.436197 192.553412 
L 144.950106 192.553412 
L 144.950106 187.233882 
L 145.765046 187.233882 
L 145.765046 181.914353 
L 146.529503 181.914353 
L 146.529503 176.594824 
L 147.135588 176.594824 
L 147.135588 171.275294 
L 148.307296 171.275294 
L 148.307296 165.955765 
L 149.049758 165.955765 
L 149.049758 160.636235 
L 149.750003 160.636235 
L 149.750003 155.316706 
L 150.533072 155.316706 
L 150.533072 149.997176 
L 151.375128 149.997176 
L 151.375128 144.677647 
L 151.920429 144.677647 
L 151.920429 139.358118 
L 152.739781 139.358118 
L 152.739781 134.038588 
L 153.398253 134.038588 
L 153.398253 128.719059 
L 154.101358 128.719059 
L 154.101358 123.399529 
L 154.779128 123.399529 
L 154.779128 118.08 
L 155.24573 118.08 
L 155.24573 112.760471 
L 155.711258 112.760471 
L 155.711258 107.440941 
L 156.165543 107.440941 
L 156.165543 102.121412 
L 156.657763 102.121412 
L 156.657763 96.801882 
L 157.30716 96.801882 
L 157.30716 91.482353 
L 157.779907 91.482353 
L 157.779907 86.162824 
L 158.070579 86.162824 
L 158.070579 80.843294 
L 158.638786 80.843294 
L 158.638786 75.523765 
L 159.258152 75.523765 
L 159.258152 70.204235 
L 159.651731 70.204235 
L 159.651731 64.884706 
L 160.102084 64.884706 
L 160.102084 59.565176 
L 160.4627 59.565176 
L 160.4627 54.245647 
L 160.730652 54.245647 
L 160.730652 48.926118 
L 161.079527 48.926118 
L 161.079527 43.606588 
L 161.437128 43.606588 
L 161.437128 38.287059 
L 161.832391 38.287059 
L 161.832391 32.967529 
L 162.370732 32.967529 
L 162.370732 27.648 
L 360.8064 27.648 
" style="fill:none;stroke:#f5deb3;stroke-linecap:square;stroke-width:4;"/>
   </g>
   <g id="line2d_2">
    <defs>
     <path d="M -0 7.778175 
L 7.778175 0 
L 0 -7.778175 
L -7.778175 -0 
z
" id="m262f09e73b" style="stroke:#f5deb3;stroke-linejoin:miter;stroke-width:1.5;"/>
    </defs>
    <g>
     <use style="fill:#f5deb3;stroke:#f5deb3;stroke-linejoin:miter;stroke-width:1.5;" x="140.634374" xlink:href="#m262f09e73b" y="213.831529"/>
     <use style="fill:#f5deb3;stroke:#f5deb3;stroke-linejoin:miter;stroke-width:1.5;" x="159.258152" xlink:href="#m262f09e73b" y="70.204235"/>
     <use style="fill:#f5deb3;stroke:#f5deb3;stroke-linejoin:miter;stroke-width:1.5;" x="162.370732" xlink:href="#m262f09e73b" y="27.648"/>
     <use style="fill:#f5deb3;stroke:#f5deb3;stroke-linejoin:miter;stroke-width:1.5;" x="162.370732" xlink:href="#m262f09e73b" y="27.648"/>
     <use style="fill:#f5deb3;stroke:#f5deb3;stroke-linejoin:miter;stroke-width:1.5;" x="360.8064" xlink:href="#m262f09e73b" y="27.648"/>
    </g>
   </g>
   <g id="line2d_3">
    <path style="fill:none;stroke:#f5deb3;stroke-linecap:square;stroke-width:4;"/>
    <g/>
   </g>
   <g id="line2d_4">
    <path d="M 360.8064 27.648 
L 380.514816 33.07392 
" style="fill:none;stroke:#f5deb3;stroke-linecap:square;stroke-width:4;"/>
    <g>
     <use style="fill:#f5deb3;stroke:#f5deb3;stroke-linejoin:miter;stroke-width:1.5;" x="360.8064" xlink:href="#m262f09e73b" y="27.648"/>
     <use style="fill:#f5deb3;stroke:#f5deb3;stroke-linejoin:miter;stroke-width:1.5;" x="380.514816" xlink:href="#m262f09e73b" y="33.07392"/>
    </g>
   </g>
   <g id="matplotlib.axis_1">
    <g id="xtick_1">
     <g id="line2d_5">
      <path clip-path="url(#p8f4e215709)" d="M 57.6 298.944 
L 57.6 27.648 
" style="fill:none;stroke:#b0b0b0;stroke-linecap:square;stroke-width:0.8;"/>
     </g>
     <g id="line2d_6">
      <defs>
       <path d="M 0 0 
L 0 3.5 
" id="mdc7bfe5d02" style="stroke:#000000;stroke-width:0.8;"/>
      </defs>
      <g>
       <use style="stroke:#000000;stroke-width:0.8;" x="57.6" xlink:href="#mdc7bfe5d02" y="298.944"/>
      </g>
     </g>
     <g id="text_1">
      <!-- 0 -->
      <g transform="translate(52.191875 318.861344)scale(0.17 -0.17)">
       <defs>
        <path d="M 2034 4250 
Q 1547 4250 1301 3770 
Q 1056 3291 1056 2328 
Q 1056 1369 1301 889 
Q 1547 409 2034 409 
Q 2525 409 2770 889 
Q 3016 1369 3016 2328 
Q 3016 3291 2770 3770 
Q 2525 4250 2034 4250 
z
M 2034 4750 
Q 2819 4750 3233 4129 
Q 3647 3509 3647 2328 
Q 3647 1150 3233 529 
Q 2819 -91 2034 -91 
Q 1250 -91 836 529 
Q 422 1150 422 2328 
Q 422 3509 836 4129 
Q 1250 4750 2034 4750 
z
" id="DejaVuSans-30" transform="scale(0.015625)"/>
       </defs>
       <use xlink:href="#DejaVuSans-30"/>
      </g>
     </g>
    </g>
    <g id="xtick_2">
     <g id="line2d_7">
      <path clip-path="url(#p8f4e215709)" d="M 144.2304 298.944 
L 144.2304 27.648 
" style="fill:none;stroke:#b0b0b0;stroke-linecap:square;stroke-width:0.8;"/>
     </g>
     <g id="line2d_8">
      <g>
       <use style="stroke:#000000;stroke-width:0.8;" x="144.2304" xlink:href="#mdc7bfe5d02" y="298.944"/>
      </g>
     </g>
     <g id="text_2">
      <!-- 2 -->
      <g transform="translate(138.822275 318.861344)scale(0.17 -0.17)">
       <defs>
        <path d="M 1228 531 
L 3431 531 
L 3431 0 
L 469 0 
L 469 531 
Q 828 903 1448 1529 
Q 2069 2156 2228 2338 
Q 2531 2678 2651 2914 
Q 2772 3150 2772 3378 
Q 2772 3750 2511 3984 
Q 2250 4219 1831 4219 
Q 1534 4219 1204 4116 
Q 875 4013 500 3803 
L 500 4441 
Q 881 4594 1212 4672 
Q 1544 4750 1819 4750 
Q 2544 4750 2975 4387 
Q 3406 4025 3406 3419 
Q 3406 3131 3298 2873 
Q 3191 2616 2906 2266 
Q 2828 2175 2409 1742 
Q 1991 1309 1228 531 
z
" id="DejaVuSans-32" transform="scale(0.015625)"/>
       </defs>
       <use xlink:href="#DejaVuSans-32"/>
      </g>
     </g>
    </g>
    <g id="xtick_3">
     <g id="line2d_9">
      <path clip-path="url(#p8f4e215709)" d="M 230.8608 298.944 
L 230.8608 27.648 
" style="fill:none;stroke:#b0b0b0;stroke-linecap:square;stroke-width:0.8;"/>
     </g>
     <g id="line2d_10">
      <g>
       <use style="stroke:#000000;stroke-width:0.8;" x="230.8608" xlink:href="#mdc7bfe5d02" y="298.944"/>
      </g>
     </g>
     <g id="text_3">
      <!-- 4 -->
      <g transform="translate(225.452675 318.861344)scale(0.17 -0.17)">
       <defs>
        <path d="M 2419 4116 
L 825 1625 
L 2419 1625 
L 2419 4116 
z
M 2253 4666 
L 3047 4666 
L 3047 1625 
L 3713 1625 
L 3713 1100 
L 3047 1100 
L 3047 0 
L 2419 0 
L 2419 1100 
L 313 1100 
L 313 1709 
L 2253 4666 
z
" id="DejaVuSans-34" transform="scale(0.015625)"/>
       </defs>
       <use xlink:href="#DejaVuSans-34"/>
      </g>
     </g>
    </g>
    <g id="xtick_4">
     <g id="line2d_11">
      <path clip-path="url(#p8f4e215709)" d="M 317.4912 298.944 
L 317.4912 27.648 
" style="fill:none;stroke:#b0b0b0;stroke-linecap:square;stroke-width:0.8;"/>
     </g>
     <g id="line2d_12">
      <g>
       <use style="stroke:#000000;stroke-width:0.8;" x="317.4912" xlink:href="#mdc7bfe5d02" y="298.944"/>
      </g>
     </g>
     <g id="text_4">
      <!-- 6 -->
      <g transform="translate(312.083075 318.861344)scale(0.17 -0.17)">
       <defs>
        <path d="M 2113 2584 
Q 1688 2584 1439 2293 
Q 1191 2003 1191 1497 
Q 1191 994 1439 701 
Q 1688 409 2113 409 
Q 2538 409 2786 701 
Q 3034 994 3034 1497 
Q 3034 2003 2786 2293 
Q 2538 2584 2113 2584 
z
M 3366 4563 
L 3366 3988 
Q 3128 4100 2886 4159 
Q 2644 4219 2406 4219 
Q 1781 4219 1451 3797 
Q 1122 3375 1075 2522 
Q 1259 2794 1537 2939 
Q 1816 3084 2150 3084 
Q 2853 3084 3261 2657 
Q 3669 2231 3669 1497 
Q 3669 778 3244 343 
Q 2819 -91 2113 -91 
Q 1303 -91 875 529 
Q 447 1150 447 2328 
Q 447 3434 972 4092 
Q 1497 4750 2381 4750 
Q 2619 4750 2861 4703 
Q 3103 4656 3366 4563 
z
" id="DejaVuSans-36" transform="scale(0.015625)"/>
       </defs>
       <use xlink:href="#DejaVuSans-36"/>
      </g>
     </g>
    </g>
    <g id="xtick_5">
     <g id="line2d_13">
      <path clip-path="url(#p8f4e215709)" d="M 100.9152 298.944 
L 100.9152 27.648 
" style="fill:none;stroke:#b0b0b0;stroke-linecap:square;stroke-width:0.8;"/>
     </g>
     <g id="line2d_14">
      <defs>
       <path d="M 0 0 
L 0 2 
" id="m6a14c85331" style="stroke:#000000;stroke-width:0.6;"/>
      </defs>
      <g>
       <use style="stroke:#000000;stroke-width:0.6;" x="100.9152" xlink:href="#m6a14c85331" y="298.944"/>
      </g>
     </g>
    </g>
    <g id="xtick_6">
     <g id="line2d_15">
      <path clip-path="url(#p8f4e215709)" d="M 187.5456 298.944 
L 187.5456 27.648 
" style="fill:none;stroke:#b0b0b0;stroke-linecap:square;stroke-width:0.8;"/>
     </g>
     <g id="line2d_16">
      <g>
       <use style="stroke:#000000;stroke-width:0.6;" x="187.5456" xlink:href="#m6a14c85331" y="298.944"/>
      </g>
     </g>
    </g>
    <g id="xtick_7">
     <g id="line2d_17">
      <path clip-path="url(#p8f4e215709)" d="M 274.176 298.944 
L 274.176 27.648 
" style="fill:none;stroke:#b0b0b0;stroke-linecap:square;stroke-width:0.8;"/>
     </g>
     <g id="line2d_18">
      <g>
       <use style="stroke:#000000;stroke-width:0.6;" x="274.176" xlink:href="#m6a14c85331" y="298.944"/>
      </g>
     </g>
    </g>
    <g id="xtick_8">
     <g id="line2d_19">
      <path clip-path="url(#p8f4e215709)" d="M 360.8064 298.944 
L 360.8064 27.648 
" style="fill:none;stroke:#b0b0b0;stroke-linecap:square;stroke-width:0.8;"/>
     </g>
     <g id="line2d_20">
      <g>
       <use style="stroke:#000000;stroke-width:0.6;" x="360.8064" xlink:href="#m6a14c85331" y="298.944"/>
      </g>
     </g>
    </g>
    <g id="text_5">
     <!-- log10(# f-evals / dimension) -->
     <g transform="translate(88.823278 339.314156)scale(0.17 -0.17)">
      <defs>
       <path d="M 603 4863 
L 1178 4863 
L 1178 0 
L 603 0 
L 603 4863 
z
" id="DejaVuSans-6c" transform="scale(0.015625)"/>
       <path d="M 1959 3097 
Q 1497 3097 1228 2736 
Q 959 2375 959 1747 
Q 959 1119 1226 758 
Q 1494 397 1959 397 
Q 2419 397 2687 759 
Q 2956 1122 2956 1747 
Q 2956 2369 2687 2733 
Q 2419 3097 1959 3097 
z
M 1959 3584 
Q 2709 3584 3137 3096 
Q 3566 2609 3566 1747 
Q 3566 888 3137 398 
Q 2709 -91 1959 -91 
Q 1206 -91 779 398 
Q 353 888 353 1747 
Q 353 2609 779 3096 
Q 1206 3584 1959 3584 
z
" id="DejaVuSans-6f" transform="scale(0.015625)"/>
       <path d="M 2906 1791 
Q 2906 2416 2648 2759 
Q 2391 3103 1925 3103 
Q 1463 3103 1205 2759 
Q 947 2416 947 1791 
Q 947 1169 1205 825 
Q 1463 481 1925 481 
Q 2391 481 2648 825 
Q 2906 1169 2906 1791 
z
M 3481 434 
Q 3481 -459 3084 -895 
Q 2688 -1331 1869 -1331 
Q 1566 -1331 1297 -1286 
Q 1028 -1241 775 -1147 
L 775 -588 
Q 1028 -725 1275 -790 
Q 1522 -856 1778 -856 
Q 2344 -856 2625 -561 
Q 2906 -266 2906 331 
L 2906 616 
Q 2728 306 2450 153 
Q 2172 0 1784 0 
Q 1141 0 747 490 
Q 353 981 353 1791 
Q 353 2603 747 3093 
Q 1141 3584 1784 3584 
Q 2172 3584 2450 3431 
Q 2728 3278 2906 2969 
L 2906 3500 
L 3481 3500 
L 3481 434 
z
" id="DejaVuSans-67" transform="scale(0.015625)"/>
       <path d="M 794 531 
L 1825 531 
L 1825 4091 
L 703 3866 
L 703 4441 
L 1819 4666 
L 2450 4666 
L 2450 531 
L 3481 531 
L 3481 0 
L 794 0 
L 794 531 
z
" id="DejaVuSans-31" transform="scale(0.015625)"/>
       <path d="M 1984 4856 
Q 1566 4138 1362 3434 
Q 1159 2731 1159 2009 
Q 1159 1288 1364 580 
Q 1569 -128 1984 -844 
L 1484 -844 
Q 1016 -109 783 600 
Q 550 1309 550 2009 
Q 550 2706 781 3412 
Q 1013 4119 1484 4856 
L 1984 4856 
z
" id="DejaVuSans-28" transform="scale(0.015625)"/>
       <path d="M 3272 2816 
L 2363 2816 
L 2100 1772 
L 3016 1772 
L 3272 2816 
z
M 2803 4594 
L 2478 3297 
L 3391 3297 
L 3719 4594 
L 4219 4594 
L 3897 3297 
L 4872 3297 
L 4872 2816 
L 3775 2816 
L 3519 1772 
L 4513 1772 
L 4513 1294 
L 3397 1294 
L 3072 0 
L 2572 0 
L 2894 1294 
L 1978 1294 
L 1656 0 
L 1153 0 
L 1478 1294 
L 494 1294 
L 494 1772 
L 1594 1772 
L 1856 2816 
L 850 2816 
L 850 3297 
L 1978 3297 
L 2297 4594 
L 2803 4594 
z
" id="DejaVuSans-23" transform="scale(0.015625)"/>
       <path id="DejaVuSans-20" transform="scale(0.015625)"/>
       <path d="M 2375 4863 
L 2375 4384 
L 1825 4384 
Q 1516 4384 1395 4259 
Q 1275 4134 1275 3809 
L 1275 3500 
L 2222 3500 
L 2222 3053 
L 1275 3053 
L 1275 0 
L 697 0 
L 697 3053 
L 147 3053 
L 147 3500 
L 697 3500 
L 697 3744 
Q 697 4328 969 4595 
Q 1241 4863 1831 4863 
L 2375 4863 
z
" id="DejaVuSans-66" transform="scale(0.015625)"/>
       <path d="M 313 2009 
L 1997 2009 
L 1997 1497 
L 313 1497 
L 313 2009 
z
" id="DejaVuSans-2d" transform="scale(0.015625)"/>
       <path d="M 3597 1894 
L 3597 1613 
L 953 1613 
Q 991 1019 1311 708 
Q 1631 397 2203 397 
Q 2534 397 2845 478 
Q 3156 559 3463 722 
L 3463 178 
Q 3153 47 2828 -22 
Q 2503 -91 2169 -91 
Q 1331 -91 842 396 
Q 353 884 353 1716 
Q 353 2575 817 3079 
Q 1281 3584 2069 3584 
Q 2775 3584 3186 3129 
Q 3597 2675 3597 1894 
z
M 3022 2063 
Q 3016 2534 2758 2815 
Q 2500 3097 2075 3097 
Q 1594 3097 1305 2825 
Q 1016 2553 972 2059 
L 3022 2063 
z
" id="DejaVuSans-65" transform="scale(0.015625)"/>
       <path d="M 191 3500 
L 800 3500 
L 1894 563 
L 2988 3500 
L 3597 3500 
L 2284 0 
L 1503 0 
L 191 3500 
z
" id="DejaVuSans-76" transform="scale(0.015625)"/>
       <path d="M 2194 1759 
Q 1497 1759 1228 1600 
Q 959 1441 959 1056 
Q 959 750 1161 570 
Q 1363 391 1709 391 
Q 2188 391 2477 730 
Q 2766 1069 2766 1631 
L 2766 1759 
L 2194 1759 
z
M 3341 1997 
L 3341 0 
L 2766 0 
L 2766 531 
Q 2569 213 2275 61 
Q 1981 -91 1556 -91 
Q 1019 -91 701 211 
Q 384 513 384 1019 
Q 384 1609 779 1909 
Q 1175 2209 1959 2209 
L 2766 2209 
L 2766 2266 
Q 2766 2663 2505 2880 
Q 2244 3097 1772 3097 
Q 1472 3097 1187 3025 
Q 903 2953 641 2809 
L 641 3341 
Q 956 3463 1253 3523 
Q 1550 3584 1831 3584 
Q 2591 3584 2966 3190 
Q 3341 2797 3341 1997 
z
" id="DejaVuSans-61" transform="scale(0.015625)"/>
       <path d="M 2834 3397 
L 2834 2853 
Q 2591 2978 2328 3040 
Q 2066 3103 1784 3103 
Q 1356 3103 1142 2972 
Q 928 2841 928 2578 
Q 928 2378 1081 2264 
Q 1234 2150 1697 2047 
L 1894 2003 
Q 2506 1872 2764 1633 
Q 3022 1394 3022 966 
Q 3022 478 2636 193 
Q 2250 -91 1575 -91 
Q 1294 -91 989 -36 
Q 684 19 347 128 
L 347 722 
Q 666 556 975 473 
Q 1284 391 1588 391 
Q 1994 391 2212 530 
Q 2431 669 2431 922 
Q 2431 1156 2273 1281 
Q 2116 1406 1581 1522 
L 1381 1569 
Q 847 1681 609 1914 
Q 372 2147 372 2553 
Q 372 3047 722 3315 
Q 1072 3584 1716 3584 
Q 2034 3584 2315 3537 
Q 2597 3491 2834 3397 
z
" id="DejaVuSans-73" transform="scale(0.015625)"/>
       <path d="M 1625 4666 
L 2156 4666 
L 531 -594 
L 0 -594 
L 1625 4666 
z
" id="DejaVuSans-2f" transform="scale(0.015625)"/>
       <path d="M 2906 2969 
L 2906 4863 
L 3481 4863 
L 3481 0 
L 2906 0 
L 2906 525 
Q 2725 213 2448 61 
Q 2172 -91 1784 -91 
Q 1150 -91 751 415 
Q 353 922 353 1747 
Q 353 2572 751 3078 
Q 1150 3584 1784 3584 
Q 2172 3584 2448 3432 
Q 2725 3281 2906 2969 
z
M 947 1747 
Q 947 1113 1208 752 
Q 1469 391 1925 391 
Q 2381 391 2643 752 
Q 2906 1113 2906 1747 
Q 2906 2381 2643 2742 
Q 2381 3103 1925 3103 
Q 1469 3103 1208 2742 
Q 947 2381 947 1747 
z
" id="DejaVuSans-64" transform="scale(0.015625)"/>
       <path d="M 603 3500 
L 1178 3500 
L 1178 0 
L 603 0 
L 603 3500 
z
M 603 4863 
L 1178 4863 
L 1178 4134 
L 603 4134 
L 603 4863 
z
" id="DejaVuSans-69" transform="scale(0.015625)"/>
       <path d="M 3328 2828 
Q 3544 3216 3844 3400 
Q 4144 3584 4550 3584 
Q 5097 3584 5394 3201 
Q 5691 2819 5691 2113 
L 5691 0 
L 5113 0 
L 5113 2094 
Q 5113 2597 4934 2840 
Q 4756 3084 4391 3084 
Q 3944 3084 3684 2787 
Q 3425 2491 3425 1978 
L 3425 0 
L 2847 0 
L 2847 2094 
Q 2847 2600 2669 2842 
Q 2491 3084 2119 3084 
Q 1678 3084 1418 2786 
Q 1159 2488 1159 1978 
L 1159 0 
L 581 0 
L 581 3500 
L 1159 3500 
L 1159 2956 
Q 1356 3278 1631 3431 
Q 1906 3584 2284 3584 
Q 2666 3584 2933 3390 
Q 3200 3197 3328 2828 
z
" id="DejaVuSans-6d" transform="scale(0.015625)"/>
       <path d="M 3513 2113 
L 3513 0 
L 2938 0 
L 2938 2094 
Q 2938 2591 2744 2837 
Q 2550 3084 2163 3084 
Q 1697 3084 1428 2787 
Q 1159 2491 1159 1978 
L 1159 0 
L 581 0 
L 581 3500 
L 1159 3500 
L 1159 2956 
Q 1366 3272 1645 3428 
Q 1925 3584 2291 3584 
Q 2894 3584 3203 3211 
Q 3513 2838 3513 2113 
z
" id="DejaVuSans-6e" transform="scale(0.015625)"/>
       <path d="M 513 4856 
L 1013 4856 
Q 1481 4119 1714 3412 
Q 1947 2706 1947 2009 
Q 1947 1309 1714 600 
Q 1481 -109 1013 -844 
L 513 -844 
Q 928 -128 1133 580 
Q 1338 1288 1338 2009 
Q 1338 2731 1133 3434 
Q 928 4138 513 4856 
z
" id="DejaVuSans-29" transform="scale(0.015625)"/>
      </defs>
      <use xlink:href="#DejaVuSans-6c"/>
      <use x="27.783203" xlink:href="#DejaVuSans-6f"/>
      <use x="88.964844" xlink:href="#DejaVuSans-67"/>
      <use x="152.441406" xlink:href="#DejaVuSans-31"/>
      <use x="216.064453" xlink:href="#DejaVuSans-30"/>
      <use x="279.6875" xlink:href="#DejaVuSans-28"/>
      <use x="318.701172" xlink:href="#DejaVuSans-23"/>
      <use x="402.490234" xlink:href="#DejaVuSans-20"/>
      <use x="434.277344" xlink:href="#DejaVuSans-66"/>
      <use x="463.982422" xlink:href="#DejaVuSans-2d"/>
      <use x="500.066406" xlink:href="#DejaVuSans-65"/>
      <use x="561.589844" xlink:href="#DejaVuSans-76"/>
      <use x="620.769531" xlink:href="#DejaVuSans-61"/>
      <use x="682.048828" xlink:href="#DejaVuSans-6c"/>
      <use x="709.832031" xlink:href="#DejaVuSans-73"/>
      <use x="761.931641" xlink:href="#DejaVuSans-20"/>
      <use x="793.71875" xlink:href="#DejaVuSans-2f"/>
      <use x="827.410156" xlink:href="#DejaVuSans-20"/>
      <use x="859.197266" xlink:href="#DejaVuSans-64"/>
      <use x="922.673828" xlink:href="#DejaVuSans-69"/>
      <use x="950.457031" xlink:href="#DejaVuSans-6d"/>
      <use x="1047.869141" xlink:href="#DejaVuSans-65"/>
      <use x="1109.392578" xlink:href="#DejaVuSans-6e"/>
      <use x="1172.771484" xlink:href="#DejaVuSans-73"/>
      <use x="1224.871094" xlink:href="#DejaVuSans-69"/>
      <use x="1252.654297" xlink:href="#DejaVuSans-6f"/>
      <use x="1313.835938" xlink:href="#DejaVuSans-6e"/>
      <use x="1377.214844" xlink:href="#DejaVuSans-29"/>
     </g>
    </g>
   </g>
   <g id="matplotlib.axis_2">
    <g id="ytick_1">
     <g id="line2d_21">
      <path clip-path="url(#p8f4e215709)" d="M 57.6 298.944 
L 360.8064 298.944 
" style="fill:none;stroke:#b0b0b0;stroke-linecap:square;stroke-width:0.8;"/>
     </g>
     <g id="line2d_22">
      <defs>
       <path d="M 0 0 
L -3.5 0 
" id="m74b3698047" style="stroke:#000000;stroke-width:0.8;"/>
      </defs>
      <g>
       <use style="stroke:#000000;stroke-width:0.8;" x="57.6" xlink:href="#m74b3698047" y="298.944"/>
      </g>
     </g>
     <g id="text_6">
      <!-- 0.0 -->
      <g transform="translate(25.155 305.02275)scale(0.16 -0.16)">
       <defs>
        <path d="M 684 794 
L 1344 794 
L 1344 0 
L 684 0 
L 684 794 
z
" id="DejaVuSans-2e" transform="scale(0.015625)"/>
       </defs>
       <use xlink:href="#DejaVuSans-30"/>
       <use x="63.623047" xlink:href="#DejaVuSans-2e"/>
       <use x="95.410156" xlink:href="#DejaVuSans-30"/>
      </g>
     </g>
    </g>
    <g id="ytick_2">
     <g id="line2d_23">
      <path clip-path="url(#p8f4e215709)" d="M 57.6 244.6848 
L 360.8064 244.6848 
" style="fill:none;stroke:#b0b0b0;stroke-linecap:square;stroke-width:0.8;"/>
     </g>
     <g id="line2d_24">
      <g>
       <use style="stroke:#000000;stroke-width:0.8;" x="57.6" xlink:href="#m74b3698047" y="244.6848"/>
      </g>
     </g>
     <g id="text_7">
      <!-- 0.2 -->
      <g transform="translate(25.155 250.76355)scale(0.16 -0.16)">
       <use xlink:href="#DejaVuSans-30"/>
       <use x="63.623047" xlink:href="#DejaVuSans-2e"/>
       <use x="95.410156" xlink:href="#DejaVuSans-32"/>
      </g>
     </g>
    </g>
    <g id="ytick_3">
     <g id="line2d_25">
      <path clip-path="url(#p8f4e215709)" d="M 57.6 190.4256 
L 360.8064 190.4256 
" style="fill:none;stroke:#b0b0b0;stroke-linecap:square;stroke-width:0.8;"/>
     </g>
     <g id="line2d_26">
      <g>
       <use style="stroke:#000000;stroke-width:0.8;" x="57.6" xlink:href="#m74b3698047" y="190.4256"/>
      </g>
     </g>
     <g id="text_8">
      <!-- 0.4 -->
      <g transform="translate(25.155 196.50435)scale(0.16 -0.16)">
       <use xlink:href="#DejaVuSans-30"/>
       <use x="63.623047" xlink:href="#DejaVuSans-2e"/>
       <use x="95.410156" xlink:href="#DejaVuSans-34"/>
      </g>
     </g>
    </g>
    <g id="ytick_4">
     <g id="line2d_27">
      <path clip-path="url(#p8f4e215709)" d="M 57.6 136.1664 
L 360.8064 136.1664 
" style="fill:none;stroke:#b0b0b0;stroke-linecap:square;stroke-width:0.8;"/>
     </g>
     <g id="line2d_28">
      <g>
       <use style="stroke:#000000;stroke-width:0.8;" x="57.6" xlink:href="#m74b3698047" y="136.1664"/>
      </g>
     </g>
     <g id="text_9">
      <!-- 0.6 -->
      <g transform="translate(25.155 142.24515)scale(0.16 -0.16)">
       <use xlink:href="#DejaVuSans-30"/>
       <use x="63.623047" xlink:href="#DejaVuSans-2e"/>
       <use x="95.410156" xlink:href="#DejaVuSans-36"/>
      </g>
     </g>
    </g>
    <g id="ytick_5">
     <g id="line2d_29">
      <path clip-path="url(#p8f4e215709)" d="M 57.6 81.9072 
L 360.8064 81.9072 
" style="fill:none;stroke:#b0b0b0;stroke-linecap:square;stroke-width:0.8;"/>
     </g>
     <g id="line2d_30">
      <g>
       <use style="stroke:#000000;stroke-width:0.8;" x="57.6" xlink:href="#m74b3698047" y="81.9072"/>
      </g>
     </g>
     <g id="text_10">
      <!-- 0.8 -->
      <g transform="translate(25.155 87.98595)scale(0.16 -0.16)">
       <defs>
        <path d="M 2034 2216 
Q 1584 2216 1326 1975 
Q 1069 1734 1069 1313 
Q 1069 891 1326 650 
Q 1584 409 2034 409 
Q 2484 409 2743 651 
Q 3003 894 3003 1313 
Q 3003 1734 2745 1975 
Q 2488 2216 2034 2216 
z
M 1403 2484 
Q 997 2584 770 2862 
Q 544 3141 544 3541 
Q 544 4100 942 4425 
Q 1341 4750 2034 4750 
Q 2731 4750 3128 4425 
Q 3525 4100 3525 3541 
Q 3525 3141 3298 2862 
Q 3072 2584 2669 2484 
Q 3125 2378 3379 2068 
Q 3634 1759 3634 1313 
Q 3634 634 3220 271 
Q 2806 -91 2034 -91 
Q 1263 -91 848 271 
Q 434 634 434 1313 
Q 434 1759 690 2068 
Q 947 2378 1403 2484 
z
M 1172 3481 
Q 1172 3119 1398 2916 
Q 1625 2713 2034 2713 
Q 2441 2713 2670 2916 
Q 2900 3119 2900 3481 
Q 2900 3844 2670 4047 
Q 2441 4250 2034 4250 
Q 1625 4250 1398 4047 
Q 1172 3844 1172 3481 
z
" id="DejaVuSans-38" transform="scale(0.015625)"/>
       </defs>
       <use xlink:href="#DejaVuSans-30"/>
       <use x="63.623047" xlink:href="#DejaVuSans-2e"/>
       <use x="95.410156" xlink:href="#DejaVuSans-38"/>
      </g>
     </g>
    </g>
    <g id="ytick_6">
     <g id="line2d_31">
      <path clip-path="url(#p8f4e215709)" d="M 57.6 27.648 
L 360.8064 27.648 
" style="fill:none;stroke:#b0b0b0;stroke-linecap:square;stroke-width:0.8;"/>
     </g>
     <g id="line2d_32">
      <g>
       <use style="stroke:#000000;stroke-width:0.8;" x="57.6" xlink:href="#m74b3698047" y="27.648"/>
      </g>
     </g>
     <g id="text_11">
      <!-- 1.0 -->
      <g transform="translate(25.155 33.72675)scale(0.16 -0.16)">
       <use xlink:href="#DejaVuSans-31"/>
       <use x="63.623047" xlink:href="#DejaVuSans-2e"/>
       <use x="95.410156" xlink:href="#DejaVuSans-30"/>
      </g>
     </g>
    </g>
    <g id="text_12">
     <!-- Fraction of function,target pairs -->
     <g transform="translate(17.619531 297.681)rotate(-90)scale(0.17 -0.17)">
      <defs>
       <path d="M 628 4666 
L 3309 4666 
L 3309 4134 
L 1259 4134 
L 1259 2759 
L 3109 2759 
L 3109 2228 
L 1259 2228 
L 1259 0 
L 628 0 
L 628 4666 
z
" id="DejaVuSans-46" transform="scale(0.015625)"/>
       <path d="M 2631 2963 
Q 2534 3019 2420 3045 
Q 2306 3072 2169 3072 
Q 1681 3072 1420 2755 
Q 1159 2438 1159 1844 
L 1159 0 
L 581 0 
L 581 3500 
L 1159 3500 
L 1159 2956 
Q 1341 3275 1631 3429 
Q 1922 3584 2338 3584 
Q 2397 3584 2469 3576 
Q 2541 3569 2628 3553 
L 2631 2963 
z
" id="DejaVuSans-72" transform="scale(0.015625)"/>
       <path d="M 3122 3366 
L 3122 2828 
Q 2878 2963 2633 3030 
Q 2388 3097 2138 3097 
Q 1578 3097 1268 2742 
Q 959 2388 959 1747 
Q 959 1106 1268 751 
Q 1578 397 2138 397 
Q 2388 397 2633 464 
Q 2878 531 3122 666 
L 3122 134 
Q 2881 22 2623 -34 
Q 2366 -91 2075 -91 
Q 1284 -91 818 406 
Q 353 903 353 1747 
Q 353 2603 823 3093 
Q 1294 3584 2113 3584 
Q 2378 3584 2631 3529 
Q 2884 3475 3122 3366 
z
" id="DejaVuSans-63" transform="scale(0.015625)"/>
       <path d="M 1172 4494 
L 1172 3500 
L 2356 3500 
L 2356 3053 
L 1172 3053 
L 1172 1153 
Q 1172 725 1289 603 
Q 1406 481 1766 481 
L 2356 481 
L 2356 0 
L 1766 0 
Q 1100 0 847 248 
Q 594 497 594 1153 
L 594 3053 
L 172 3053 
L 172 3500 
L 594 3500 
L 594 4494 
L 1172 4494 
z
" id="DejaVuSans-74" transform="scale(0.015625)"/>
       <path d="M 544 1381 
L 544 3500 
L 1119 3500 
L 1119 1403 
Q 1119 906 1312 657 
Q 1506 409 1894 409 
Q 2359 409 2629 706 
Q 2900 1003 2900 1516 
L 2900 3500 
L 3475 3500 
L 3475 0 
L 2900 0 
L 2900 538 
Q 2691 219 2414 64 
Q 2138 -91 1772 -91 
Q 1169 -91 856 284 
Q 544 659 544 1381 
z
M 1991 3584 
L 1991 3584 
z
" id="DejaVuSans-75" transform="scale(0.015625)"/>
       <path d="M 750 794 
L 1409 794 
L 1409 256 
L 897 -744 
L 494 -744 
L 750 256 
L 750 794 
z
" id="DejaVuSans-2c" transform="scale(0.015625)"/>
       <path d="M 1159 525 
L 1159 -1331 
L 581 -1331 
L 581 3500 
L 1159 3500 
L 1159 2969 
Q 1341 3281 1617 3432 
Q 1894 3584 2278 3584 
Q 2916 3584 3314 3078 
Q 3713 2572 3713 1747 
Q 3713 922 3314 415 
Q 2916 -91 2278 -91 
Q 1894 -91 1617 61 
Q 1341 213 1159 525 
z
M 3116 1747 
Q 3116 2381 2855 2742 
Q 2594 3103 2138 3103 
Q 1681 3103 1420 2742 
Q 1159 2381 1159 1747 
Q 1159 1113 1420 752 
Q 1681 391 2138 391 
Q 2594 391 2855 752 
Q 3116 1113 3116 1747 
z
" id="DejaVuSans-70" transform="scale(0.015625)"/>
      </defs>
      <use xlink:href="#DejaVuSans-46"/>
      <use x="50.269531" xlink:href="#DejaVuSans-72"/>
      <use x="91.382812" xlink:href="#DejaVuSans-61"/>
      <use x="152.662109" xlink:href="#DejaVuSans-63"/>
      <use x="207.642578" xlink:href="#DejaVuSans-74"/>
      <use x="246.851562" xlink:href="#DejaVuSans-69"/>
      <use x="274.634766" xlink:href="#DejaVuSans-6f"/>
      <use x="335.816406" xlink:href="#DejaVuSans-6e"/>
      <use x="399.195312" xlink:href="#DejaVuSans-20"/>
      <use x="430.982422" xlink:href="#DejaVuSans-6f"/>
      <use x="492.164062" xlink:href="#DejaVuSans-66"/>
      <use x="527.369141" xlink:href="#DejaVuSans-20"/>
      <use x="559.15625" xlink:href="#DejaVuSans-66"/>
      <use x="594.361328" xlink:href="#DejaVuSans-75"/>
      <use x="657.740234" xlink:href="#DejaVuSans-6e"/>
      <use x="721.119141" xlink:href="#DejaVuSans-63"/>
      <use x="776.099609" xlink:href="#DejaVuSans-74"/>
      <use x="815.308594" xlink:href="#DejaVuSans-69"/>
      <use x="843.091797" xlink:href="#DejaVuSans-6f"/>
      <use x="904.273438" xlink:href="#DejaVuSans-6e"/>
      <use x="967.652344" xlink:href="#DejaVuSans-2c"/>
      <use x="999.439453" xlink:href="#DejaVuSans-74"/>
      <use x="1038.648438" xlink:href="#DejaVuSans-61"/>
      <use x="1099.927734" xlink:href="#DejaVuSans-72"/>
      <use x="1139.291016" xlink:href="#DejaVuSans-67"/>
      <use x="1202.767578" xlink:href="#DejaVuSans-65"/>
      <use x="1264.291016" xlink:href="#DejaVuSans-74"/>
      <use x="1303.5" xlink:href="#DejaVuSans-20"/>
      <use x="1335.287109" xlink:href="#DejaVuSans-70"/>
      <use x="1398.763672" xlink:href="#DejaVuSans-61"/>
      <use x="1460.042969" xlink:href="#DejaVuSans-69"/>
      <use x="1487.826172" xlink:href="#DejaVuSans-72"/>
      <use x="1528.939453" xlink:href="#DejaVuSans-73"/>
     </g>
    </g>
   </g>
   <g id="line2d_33">
    <defs>
     <path d="M 0 1.5 
C 0.397805 1.5 0.77937 1.341951 1.06066 1.06066 
C 1.341951 0.77937 1.5 0.397805 1.5 0 
C 1.5 -0.397805 1.341951 -0.77937 1.06066 -1.06066 
C 0.77937 -1.341951 0.397805 -1.5 0 -1.5 
C -0.397805 -1.5 -0.77937 -1.341951 -1.06066 -1.06066 
C -1.341951 -0.77937 -1.5 -0.397805 -1.5 0 
C -1.5 0.397805 -1.341951 0.77937 -1.06066 1.06066 
C -0.77937 1.341951 -0.397805 1.5 0 1.5 
z
" id="m7457fcc2d6" style="stroke:#f5deb3;"/>
    </defs>
    <g>
     <use style="fill:#f5deb3;stroke:#f5deb3;" x="162.370732" xlink:href="#m7457fcc2d6" y="27.648"/>
     <use style="fill:#f5deb3;stroke:#f5deb3;" x="162.370732" xlink:href="#m7457fcc2d6" y="27.648"/>
    </g>
   </g>
   <g id="line2d_34">
    <defs>
     <path d="M 0 1.5 
C 0.397805 1.5 0.77937 1.341951 1.06066 1.06066 
C 1.341951 0.77937 1.5 0.397805 1.5 0 
C 1.5 -0.397805 1.341951 -0.77937 1.06066 -1.06066 
C 0.77937 -1.341951 0.397805 -1.5 0 -1.5 
C -0.397805 -1.5 -0.77937 -1.341951 -1.06066 -1.06066 
C -1.341951 -0.77937 -1.5 -0.397805 -1.5 0 
C -1.5 0.397805 -1.341951 0.77937 -1.06066 1.06066 
C -0.77937 1.341951 -0.397805 1.5 0 1.5 
z
" id="m95d1c49696" style="stroke:#000080;"/>
    </defs>
    <g>
     <use style="fill:#000080;stroke:#000080;" x="277.529583" xlink:href="#m95d1c49696" y="43.606588"/>
     <use style="fill:#000080;stroke:#000080;" x="277.529583" xlink:href="#m95d1c49696" y="43.606588"/>
    </g>
   </g>
   <g id="line2d_35">
    <path d="M 128.57149 298.944 
L 128.57149 298.589365 
L 129.167381 298.589365 
L 129.167381 297.880094 
L 132.109044 297.880094 
L 132.109044 297.525459 
L 137.919637 297.525459 
L 137.919637 297.170824 
L 138.438609 297.170824 
L 138.438609 296.816188 
L 139.240288 296.816188 
L 139.240288 296.461553 
L 139.435481 296.461553 
L 139.435481 296.106918 
L 141.632274 296.106918 
L 141.632274 295.752282 
L 142.394151 295.752282 
L 142.394151 294.688376 
L 143.638012 294.688376 
L 143.638012 294.333741 
L 145.730339 294.333741 
L 145.730339 293.979106 
L 146.108646 293.979106 
L 146.108646 293.624471 
L 146.379077 293.624471 
L 146.379077 293.269835 
L 146.973697 293.269835 
L 146.973697 292.9152 
L 147.831805 292.9152 
L 147.893838 292.205929 
L 148.68219 292.205929 
L 148.68219 291.851294 
L 148.800595 291.851294 
L 148.800595 291.496659 
L 150.166205 291.496659 
L 150.166205 291.142024 
L 150.680509 291.142024 
L 150.680509 290.787388 
L 151.439354 290.787388 
L 151.439354 290.432753 
L 152.119363 290.432753 
L 152.119363 289.723482 
L 152.51103 289.723482 
L 152.51103 289.368847 
L 152.703847 289.368847 
L 152.703847 289.014212 
L 153.317193 289.014212 
L 153.317193 288.659576 
L 153.684932 288.659576 
L 153.684932 288.304941 
L 154.067935 288.304941 
L 154.067935 287.950306 
L 155.066821 287.950306 
L 155.066821 287.595671 
L 155.214281 287.595671 
L 155.214281 287.241035 
L 155.934724 287.241035 
L 155.934724 286.8864 
L 156.314566 286.8864 
L 156.314566 286.531765 
L 156.491849 286.531765 
L 156.491849 286.177129 
L 157.032948 286.177129 
L 157.032948 285.822494 
L 157.521831 285.822494 
L 157.632869 285.113224 
L 158.374574 285.113224 
L 158.374574 284.758588 
L 159.15633 284.758588 
L 159.15633 284.403953 
L 159.939564 284.403953 
L 159.939564 284.049318 
L 160.644379 284.049318 
L 160.644379 283.694682 
L 161.125559 283.694682 
L 161.202028 282.985412 
L 161.459725 282.985412 
L 161.534851 281.921506 
L 162.037903 281.921506 
L 162.037903 281.566871 
L 162.613005 281.566871 
L 162.613005 281.212235 
L 162.740015 281.212235 
L 162.740015 280.8576 
L 162.852198 280.8576 
L 162.852198 280.502965 
L 163.484578 280.502965 
L 163.484578 280.148329 
L 164.265747 280.148329 
L 164.265747 279.793694 
L 164.433594 279.793694 
L 164.484939 278.729788 
L 165.077974 278.729788 
L 165.139977 278.020518 
L 165.300233 278.020518 
L 165.300233 277.665882 
L 165.568365 277.665882 
L 165.568365 277.311247 
L 165.904188 277.311247 
L 165.904188 276.956612 
L 166.034495 276.956612 
L 166.034495 276.247341 
L 167.201654 276.247341 
L 167.201654 275.892706 
L 167.823671 275.892706 
L 167.823671 275.538071 
L 167.962699 275.538071 
L 167.962699 275.183435 
L 168.394562 275.183435 
L 168.394562 274.8288 
L 168.653109 274.8288 
L 168.653109 274.474165 
L 169.179765 274.474165 
L 169.179765 273.764894 
L 169.368578 273.764894 
L 169.368578 273.410259 
L 169.692078 273.410259 
L 169.692078 273.055624 
L 169.846947 273.055624 
L 169.846947 272.700988 
L 170.124436 272.700988 
L 170.219181 271.991718 
L 171.014871 271.991718 
L 171.014871 271.637082 
L 171.435909 271.637082 
L 171.435909 271.282447 
L 171.73472 271.282447 
L 171.73472 270.927812 
L 171.891014 270.927812 
L 171.891014 270.573176 
L 172.037442 270.573176 
L 172.105956 269.863906 
L 172.343812 269.863906 
L 172.343812 269.509271 
L 173.047981 269.509271 
L 173.137212 268.445365 
L 173.402394 268.445365 
L 173.402394 268.090729 
L 173.553396 268.090729 
L 173.553396 267.736094 
L 173.914037 267.736094 
L 173.960572 267.026824 
L 174.068707 267.026824 
L 174.068707 266.672188 
L 174.260272 266.672188 
L 174.366702 265.608282 
L 174.381858 265.608282 
L 174.381858 265.253647 
L 174.615217 265.253647 
L 174.615217 264.899012 
L 175.391968 264.899012 
L 175.391968 264.544376 
L 176.096471 264.544376 
L 176.12411 263.835106 
L 176.574381 263.835106 
L 176.587858 263.125835 
L 176.855405 263.125835 
L 176.855405 262.7712 
L 177.11265 262.7712 
L 177.11265 262.416565 
L 177.262725 262.416565 
L 177.262725 262.061929 
L 177.405164 262.061929 
L 177.405164 261.707294 
L 177.559332 261.707294 
L 177.610441 260.643388 
L 177.686847 260.643388 
L 177.686847 260.288753 
L 177.832428 260.288753 
L 177.901658 259.579482 
L 178.026881 259.579482 
L 178.026881 259.224847 
L 178.250202 259.224847 
L 178.305621 258.515576 
L 178.856981 258.515576 
L 178.856981 258.160941 
L 179.094317 258.160941 
L 179.094317 257.806306 
L 179.317046 257.806306 
L 179.410043 257.097035 
L 179.634816 257.097035 
L 179.66344 256.387765 
L 179.964204 256.387765 
L 179.997952 255.678494 
L 180.121178 255.678494 
L 180.121178 255.323859 
L 180.265776 255.323859 
L 180.359723 254.259953 
L 180.491561 254.259953 
L 180.491561 253.550682 
L 180.784861 253.550682 
L 180.784861 253.196047 
L 180.919115 253.196047 
L 180.919115 252.841412 
L 181.052417 252.841412 
L 181.052417 252.486776 
L 181.226942 252.486776 
L 181.226942 252.132141 
L 181.399863 252.132141 
L 181.410292 251.422871 
L 181.766602 251.422871 
L 181.766602 251.068235 
L 181.965049 251.068235 
L 181.965049 250.7136 
L 182.096193 250.7136 
L 182.096193 250.358965 
L 182.226429 250.358965 
L 182.226429 250.004329 
L 182.410224 250.004329 
L 182.459592 249.295059 
L 182.611814 249.295059 
L 182.611814 248.940424 
L 183.146981 248.940424 
L 183.180226 248.231153 
L 183.265442 248.231153 
L 183.265442 247.876518 
L 183.528119 247.876518 
L 183.528119 247.521882 
L 183.658094 247.521882 
L 183.658094 247.167247 
L 183.86512 247.167247 
L 183.915382 246.457976 
L 184.010964 246.457976 
L 184.05631 245.748706 
L 184.182699 245.748706 
L 184.182699 245.394071 
L 184.31718 245.394071 
L 184.375157 244.6848 
L 184.428517 244.6848 
L 184.428517 244.330165 
L 184.570075 244.330165 
L 184.570075 243.975529 
L 184.776074 243.975529 
L 184.837003 243.266259 
L 185.078761 243.266259 
L 185.125886 242.202353 
L 185.385096 242.202353 
L 185.385096 241.847718 
L 185.632455 241.847718 
L 185.632455 241.493082 
L 185.835444 241.493082 
L 185.921774 240.783812 
L 185.958651 240.783812 
L 185.958651 240.429176 
L 186.487395 240.429176 
L 186.487395 240.074541 
L 186.638031 240.074541 
L 186.73648 238.656 
L 186.810958 238.656 
L 186.865648 237.946729 
L 187.009426 237.946729 
L 187.009426 237.592094 
L 187.13674 237.592094 
L 187.178988 236.882824 
L 187.438067 236.882824 
L 187.438067 236.528188 
L 187.674954 236.528188 
L 187.745814 235.109647 
L 187.894127 235.109647 
L 187.993582 234.045741 
L 188.037615 234.045741 
L 188.037615 233.691106 
L 188.176379 233.691106 
L 188.270737 232.272565 
L 188.339392 232.272565 
L 188.339392 231.917929 
L 188.472374 231.917929 
L 188.565262 231.208659 
L 188.647052 231.208659 
L 188.66833 230.499388 
L 189.043801 230.499388 
L 189.043801 230.144753 
L 189.486729 230.144753 
L 189.584883 229.435482 
L 189.61861 229.435482 
L 189.669089 228.726212 
L 189.776325 228.726212 
L 189.776325 228.371576 
L 190.14691 228.371576 
L 190.254722 227.662306 
L 190.277512 227.662306 
L 190.300275 226.953035 
L 190.471731 226.953035 
L 190.507122 225.889129 
L 190.632063 225.889129 
L 190.635255 225.179859 
L 190.756179 225.179859 
L 190.756179 224.825224 
L 191.045763 224.825224 
L 191.045763 224.470588 
L 191.266238 224.470588 
L 191.361697 223.406682 
L 191.648227 223.406682 
L 191.648227 223.052047 
L 191.804878 223.052047 
L 191.837849 221.988141 
L 192.00778 221.988141 
L 192.075916 221.278871 
L 192.158533 221.278871 
L 192.199706 220.5696 
L 192.34019 220.5696 
L 192.444868 219.505694 
L 192.577782 219.505694 
L 192.623794 218.796424 
L 192.761157 218.796424 
L 192.766859 218.087153 
L 192.956876 218.087153 
L 193.038531 217.377882 
L 193.206355 217.377882 
L 193.206355 217.023247 
L 193.411297 217.023247 
L 193.512937 215.959341 
L 193.701027 215.959341 
L 193.801117 215.250071 
L 193.91141 215.250071 
L 193.91141 214.895435 
L 194.053031 214.895435 
L 194.161861 214.186165 
L 194.193595 214.186165 
L 194.259536 213.476894 
L 194.393342 213.476894 
L 194.393342 213.122259 
L 194.523608 213.122259 
L 194.523608 212.767624 
L 194.796823 212.767624 
L 194.870884 212.058353 
L 194.990298 212.058353 
L 195.076213 210.639812 
L 195.146673 210.639812 
L 195.149185 209.930541 
L 195.519709 209.930541 
L 195.559066 208.866635 
L 195.85165 208.866635 
L 195.9048 208.157365 
L 195.969826 208.157365 
L 196.020246 207.093459 
L 196.170701 207.093459 
L 196.272706 205.674918 
L 196.303436 205.674918 
L 196.315242 204.965647 
L 196.656748 204.965647 
L 196.656748 204.611012 
L 196.825204 204.611012 
L 196.919159 203.547106 
L 197.064888 203.547106 
L 197.110198 202.4832 
L 197.207247 202.4832 
L 197.261196 201.419294 
L 197.488772 201.419294 
L 197.51315 200.710024 
L 197.612554 200.710024 
L 197.612554 200.355388 
L 197.829411 200.355388 
L 197.829411 200.000753 
L 197.985569 200.000753 
L 197.998524 199.291482 
L 198.245117 199.291482 
L 198.245117 198.936847 
L 198.36827 198.936847 
L 198.450628 198.227576 
L 198.749563 198.227576 
L 198.857099 196.809035 
L 198.883887 196.809035 
L 198.978371 194.681224 
L 199.066266 194.681224 
L 199.066266 194.326588 
L 199.178095 194.326588 
L 199.190254 193.617318 
L 199.319468 193.617318 
L 199.377726 192.553412 
L 199.465776 192.553412 
L 199.501678 191.844141 
L 199.954492 191.844141 
L 200.061178 190.070965 
L 200.128755 190.070965 
L 200.222957 189.007059 
L 200.295688 189.007059 
L 200.34529 188.297788 
L 200.483862 188.297788 
L 200.585715 186.879247 
L 200.621421 186.879247 
L 200.621421 186.524612 
L 200.800803 186.524612 
L 200.862072 185.815341 
L 200.982174 185.815341 
L 201.083203 184.751435 
L 201.138082 184.751435 
L 201.220101 183.687529 
L 201.359621 183.687529 
L 201.359621 183.332894 
L 201.55001 183.332894 
L 201.655153 181.914353 
L 202.056031 181.914353 
L 202.099472 181.205082 
L 202.170498 181.205082 
L 202.272238 180.141176 
L 202.354606 180.141176 
L 202.397363 179.077271 
L 202.492789 179.077271 
L 202.548796 178.013365 
L 202.692293 178.013365 
L 202.692293 177.658729 
L 202.806308 177.658729 
L 202.911326 176.949459 
L 202.947861 176.949459 
L 202.947861 176.594824 
L 203.106463 176.594824 
L 203.147547 175.885553 
L 203.244151 175.885553 
L 203.351632 174.112376 
L 203.356503 174.112376 
L 203.367864 173.403106 
L 203.584026 173.403106 
L 203.665648 172.693835 
L 203.711904 172.693835 
L 203.770755 171.629929 
L 203.906836 171.629929 
L 203.906836 171.275294 
L 204.085718 171.275294 
L 204.163642 170.211388 
L 204.35859 170.211388 
L 204.467558 168.438212 
L 204.470619 168.438212 
L 204.488971 167.728941 
L 204.591108 167.728941 
L 204.701765 166.665035 
L 204.710831 166.665035 
L 204.733477 165.955765 
L 205.152756 165.955765 
L 205.199916 164.891859 
L 205.268968 164.891859 
L 205.33046 164.182588 
L 205.423778 164.182588 
L 205.476067 163.118682 
L 205.705286 163.118682 
L 205.812446 160.2816 
L 205.865087 160.2816 
L 205.93316 158.863059 
L 206.123306 158.863059 
L 206.223936 158.153788 
L 206.251794 158.153788 
L 206.251794 157.799153 
L 206.508913 157.799153 
L 206.611604 156.025976 
L 206.683835 156.025976 
L 206.683835 155.671341 
L 206.823422 155.671341 
L 206.90157 154.2528 
L 207.018188 154.2528 
L 207.123459 153.543529 
L 207.209635 153.543529 
L 207.221536 152.834259 
L 207.32305 152.834259 
L 207.401773 151.061082 
L 207.444931 151.061082 
L 207.444931 150.706447 
L 207.599743 150.706447 
L 207.696663 149.642541 
L 207.764854 149.642541 
L 207.868594 148.578635 
L 207.899223 148.578635 
L 208.007299 147.160094 
L 208.019973 147.160094 
L 208.068057 146.450824 
L 208.134917 146.450824 
L 208.230378 145.386918 
L 208.392553 145.386918 
L 208.458272 143.613741 
L 208.517593 143.613741 
L 208.536092 142.904471 
L 208.636903 142.904471 
L 208.636903 142.549835 
L 208.862376 142.549835 
L 208.95302 141.131294 
L 208.981933 141.131294 
L 209.040829 140.422024 
L 209.205712 140.422024 
L 209.241366 139.358118 
L 209.380952 139.358118 
L 209.489069 137.939576 
L 209.505467 137.939576 
L 209.505467 137.584941 
L 209.839666 137.584941 
L 209.93031 135.811765 
L 209.987455 135.811765 
L 210.095555 134.747859 
L 210.145412 134.747859 
L 210.236851 133.329318 
L 210.268357 133.329318 
L 210.320001 132.265412 
L 210.431786 132.265412 
L 210.431786 131.910776 
L 210.545125 131.910776 
L 210.587176 131.201506 
L 210.680898 131.201506 
L 210.759922 130.1376 
L 210.825522 130.1376 
L 210.90829 128.009788 
L 211.096423 128.009788 
L 211.193 126.945882 
L 211.209048 126.945882 
L 211.25711 125.881976 
L 211.336942 125.881976 
L 211.413263 124.818071 
L 211.540832 124.818071 
L 211.548186 124.1088 
L 211.652924 124.1088 
L 211.762276 123.399529 
L 211.839997 123.399529 
L 211.879253 121.980988 
L 211.977037 121.980988 
L 211.977037 121.626353 
L 212.094731 121.626353 
L 212.158897 120.207812 
L 212.459476 120.207812 
L 212.459476 119.853176 
L 212.593087 119.853176 
L 212.593087 119.498541 
L 212.707988 119.498541 
L 212.776003 118.434635 
L 212.826117 118.434635 
L 212.923995 117.725365 
L 212.994153 117.725365 
L 213.096967 116.661459 
L 213.142375 116.661459 
L 213.232864 115.597553 
L 213.278904 115.597553 
L 213.370647 114.888282 
L 213.40208 114.888282 
L 213.40208 114.533647 
L 213.532964 114.533647 
L 213.613129 113.824376 
L 216.658053 113.824376 
L 216.658053 113.469741 
L 217.976371 113.469741 
L 217.976371 113.115106 
L 218.582928 113.115106 
L 218.582928 112.760471 
L 218.72403 112.760471 
L 218.826314 111.696565 
L 218.846277 111.696565 
L 218.846277 111.341929 
L 219.322606 111.341929 
L 219.322606 110.987294 
L 219.841994 110.987294 
L 219.841994 110.632659 
L 220.160308 110.632659 
L 220.169609 109.923388 
L 220.707782 109.923388 
L 220.717461 109.214118 
L 220.892116 109.214118 
L 220.892116 108.859482 
L 221.161809 108.859482 
L 221.269866 108.150212 
L 221.621129 108.150212 
L 221.621129 107.795576 
L 222.065297 107.795576 
L 222.065297 107.440941 
L 222.186208 107.440941 
L 222.231499 106.731671 
L 222.498045 106.731671 
L 222.60163 105.667765 
L 222.612133 105.667765 
L 222.612133 105.313129 
L 222.914175 105.313129 
L 222.924504 104.603859 
L 223.160524 104.603859 
L 223.208618 102.830682 
L 223.516878 102.830682 
L 223.516878 102.476047 
L 223.780742 102.476047 
L 223.781838 101.766776 
L 223.935235 101.766776 
L 223.982476 101.057506 
L 224.234047 101.057506 
L 224.288016 99.638965 
L 224.437886 99.638965 
L 224.441592 98.929694 
L 224.668322 98.929694 
L 224.721582 98.220424 
L 224.871155 98.220424 
L 224.895969 96.801882 
L 225.088706 96.801882 
L 225.191715 95.737976 
L 225.320951 95.737976 
L 225.359297 95.028706 
L 225.485888 95.028706 
L 225.595214 92.546259 
L 225.655347 92.546259 
L 225.708363 91.482353 
L 225.799181 91.482353 
L 225.815915 90.063812 
L 225.935082 90.063812 
L 225.935082 89.709176 
L 226.273239 89.709176 
L 226.372366 88.999906 
L 226.406246 88.999906 
L 226.473348 87.581365 
L 226.541633 87.581365 
L 226.541633 87.226729 
L 226.662418 87.226729 
L 226.662418 86.872094 
L 231.308965 86.872094 
L 231.308965 86.162824 
L 231.430905 86.162824 
L 231.430905 85.808188 
L 231.549883 85.808188 
L 231.622283 84.744282 
L 231.765177 84.744282 
L 231.765177 84.389647 
L 231.917667 84.389647 
L 232.009563 83.680376 
L 232.304898 83.680376 
L 232.304898 83.325741 
L 232.422993 83.325741 
L 232.521416 82.261835 
L 232.639533 82.261835 
L 232.639533 81.9072 
L 232.777311 81.9072 
L 232.842437 81.197929 
L 232.936674 81.197929 
L 232.936674 80.134024 
L 233.234502 80.134024 
L 233.32581 79.070118 
L 233.378211 79.070118 
L 233.434732 78.006212 
L 233.517237 78.006212 
L 233.573017 76.587671 
L 233.630256 76.587671 
L 233.630256 76.233035 
L 233.763892 76.233035 
L 233.763892 75.8784 
L 233.99653 75.8784 
L 234.010537 74.814494 
L 234.137716 74.814494 
L 234.137716 73.750588 
L 234.293216 73.750588 
L 234.293216 73.395953 
L 237.433207 73.395953 
L 237.433207 73.041318 
L 238.301826 73.041318 
L 238.301826 72.686682 
L 238.581428 72.686682 
L 238.629286 71.977412 
L 238.698614 71.977412 
L 238.698614 71.622776 
L 238.852015 71.622776 
L 238.925185 70.913506 
L 239.048049 70.913506 
L 239.066544 70.204235 
L 239.169148 70.204235 
L 239.280096 68.785694 
L 239.288271 68.785694 
L 239.311093 68.076424 
L 239.513117 68.076424 
L 239.562219 67.012518 
L 239.706648 67.012518 
L 239.706648 66.657882 
L 243.10332 66.657882 
L 243.20939 65.593976 
L 243.270178 65.593976 
L 243.330965 64.530071 
L 243.428626 64.530071 
L 243.529621 63.466165 
L 243.5714 63.466165 
L 243.5714 62.402259 
L 243.727911 62.402259 
L 243.829959 61.338353 
L 243.857129 61.338353 
L 243.857129 60.983718 
L 246.624483 60.983718 
L 246.635547 60.274447 
L 246.818456 60.274447 
L 246.907324 59.210541 
L 246.986836 59.210541 
L 247.052496 58.501271 
L 247.1485 58.501271 
L 247.234093 57.437365 
L 249.752514 57.437365 
L 249.752514 57.082729 
L 252.353928 57.082729 
L 252.46116 56.373459 
L 252.487276 56.373459 
L 252.502524 55.664188 
L 254.523018 55.664188 
L 254.523018 55.309553 
L 254.727353 55.309553 
L 254.779542 54.245647 
L 256.465631 54.245647 
L 256.465631 53.891012 
L 256.635204 53.891012 
L 256.733405 53.181741 
L 256.834407 53.181741 
L 256.908885 51.408565 
L 258.507184 51.408565 
L 258.588611 50.699294 
L 258.684265 50.699294 
L 258.684265 50.344659 
L 260.139456 50.344659 
L 260.199186 49.635388 
L 260.345254 49.635388 
L 260.345254 49.280753 
L 261.835626 49.280753 
L 261.835626 48.571482 
L 262.934443 48.571482 
L 262.979798 47.862212 
L 263.164526 47.862212 
L 263.221593 46.798306 
L 264.469983 46.798306 
L 264.549545 45.7344 
L 265.7406 45.7344 
L 265.7406 45.379765 
L 267.830344 45.379765 
L 267.830344 45.025129 
L 271.682139 45.025129 
L 271.682139 44.670494 
L 274.121877 44.670494 
L 274.121877 44.315859 
L 274.862126 44.315859 
L 274.862126 43.961224 
L 277.529583 43.961224 
L 277.529583 43.606588 
L 360.8064 43.606588 
L 360.8064 43.606588 
" style="fill:none;stroke:#000080;stroke-linecap:square;stroke-width:1.5;"/>
   </g>
   <g id="line2d_36">
    <defs>
     <path d="M 0 6 
C 1.591219 6 3.117479 5.367802 4.242641 4.242641 
C 5.367802 3.117479 6 1.591219 6 0 
C 6 -1.591219 5.367802 -3.117479 4.242641 -4.242641 
C 3.117479 -5.367802 1.591219 -6 0 -6 
C -1.591219 -6 -3.117479 -5.367802 -4.242641 -4.242641 
C -5.367802 -3.117479 -6 -1.591219 -6 0 
C -6 1.591219 -5.367802 3.117479 -4.242641 4.242641 
C -3.117479 5.367802 -1.591219 6 0 6 
z
" id="md27186f030" style="stroke:#000080;stroke-width:1.5;"/>
    </defs>
    <g>
     <use style="fill-opacity:0;stroke:#000080;stroke-width:1.5;" x="204.085718" xlink:href="#md27186f030" y="170.920659"/>
     <use style="fill-opacity:0;stroke:#000080;stroke-width:1.5;" x="265.7406" xlink:href="#md27186f030" y="45.379765"/>
     <use style="fill-opacity:0;stroke:#000080;stroke-width:1.5;" x="277.529583" xlink:href="#md27186f030" y="43.606588"/>
     <use style="fill-opacity:0;stroke:#000080;stroke-width:1.5;" x="277.529583" xlink:href="#md27186f030" y="43.606588"/>
     <use style="fill-opacity:0;stroke:#000080;stroke-width:1.5;" x="360.8064" xlink:href="#md27186f030" y="43.606588"/>
    </g>
   </g>
   <g id="line2d_37">
    <path style="fill:none;stroke:#000080;stroke-linecap:square;stroke-width:1.5;"/>
    <g/>
   </g>
   <g id="line2d_38">
    <path clip-path="url(#p8f4e215709)" d="M 213.633352 113.824376 
" style="fill:none;stroke:#000080;stroke-linecap:square;stroke-width:1.5;"/>
    <defs>
     <path d="M -12 12 
L 12 -12 
M -12 -12 
L 12 12 
" id="m7e85d59cbf" style="stroke:#000080;"/>
    </defs>
    <g clip-path="url(#p8f4e215709)">
     <use style="fill:#000080;stroke:#000080;" x="213.633352" xlink:href="#m7e85d59cbf" y="113.824376"/>
    </g>
   </g>
   <g id="line2d_39">
    <defs>
     <path d="M 0 1.5 
C 0.397805 1.5 0.77937 1.341951 1.06066 1.06066 
C 1.341951 0.77937 1.5 0.397805 1.5 0 
C 1.5 -0.397805 1.341951 -0.77937 1.06066 -1.06066 
C 0.77937 -1.341951 0.397805 -1.5 0 -1.5 
C -0.397805 -1.5 -0.77937 -1.341951 -1.06066 -1.06066 
C -1.341951 -0.77937 -1.5 -0.397805 -1.5 0 
C -1.5 0.397805 -1.341951 0.77937 -1.06066 1.06066 
C -0.77937 1.341951 -0.397805 1.5 0 1.5 
z
" id="m27f45f19e7" style="stroke:#ff00ff;"/>
    </defs>
    <g>
     <use style="fill:#ff00ff;stroke:#ff00ff;" x="191.210587" xlink:href="#m27f45f19e7" y="27.648"/>
     <use style="fill:#ff00ff;stroke:#ff00ff;" x="191.210587" xlink:href="#m27f45f19e7" y="27.648"/>
    </g>
   </g>
   <g id="line2d_40">
    <path d="M 89.323782 298.944 
L 89.323782 298.589365 
L 91.616719 298.589365 
L 91.616719 298.234729 
L 105.559021 298.234729 
L 105.559021 297.880094 
L 108.915146 297.880094 
L 108.915146 297.525459 
L 110.562208 297.525459 
L 110.562208 297.170824 
L 115.050503 297.170824 
L 115.050503 296.816188 
L 115.314838 296.816188 
L 115.314838 296.461553 
L 118.000953 296.461553 
L 118.000953 296.106918 
L 118.227147 296.106918 
L 118.227147 295.752282 
L 118.376446 295.752282 
L 118.376446 295.397647 
L 119.807672 295.397647 
L 119.807672 295.043012 
L 120.0813 295.043012 
L 120.0813 294.688376 
L 120.48442 294.688376 
L 120.48442 294.333741 
L 121.008818 294.333741 
L 121.008818 293.979106 
L 123.544976 293.979106 
L 123.544976 293.624471 
L 124.210942 293.624471 
L 124.210942 293.269835 
L 125.115773 293.269835 
L 125.167667 292.560565 
L 125.526971 292.560565 
L 125.628382 291.851294 
L 125.929373 291.851294 
L 125.929373 291.496659 
L 126.176572 291.496659 
L 126.225624 290.787388 
L 126.993549 290.787388 
L 126.993549 290.432753 
L 127.731351 290.432753 
L 127.731351 290.078118 
L 128.133992 290.078118 
L 128.133992 289.723482 
L 128.614685 289.723482 
L 128.614685 289.368847 
L 129.987186 289.368847 
L 129.987186 289.014212 
L 130.265881 289.014212 
L 130.265881 288.304941 
L 130.4233 288.304941 
L 130.4233 287.950306 
L 130.540507 287.950306 
L 130.540507 287.595671 
L 130.656987 287.595671 
L 130.656987 287.241035 
L 131.674076 287.241035 
L 131.674076 286.8864 
L 131.856536 286.8864 
L 131.929028 286.177129 
L 132.499119 286.177129 
L 132.499119 285.822494 
L 132.673786 285.822494 
L 132.708526 285.113224 
L 133.885683 285.113224 
L 133.885683 284.758588 
L 134.558167 284.758588 
L 134.558167 284.403953 
L 134.839175 284.403953 
L 134.839175 284.049318 
L 135.177024 284.049318 
L 135.237805 283.340047 
L 135.298389 283.340047 
L 135.298389 282.985412 
L 135.835047 282.985412 
L 135.92302 281.921506 
L 136.668697 281.921506 
L 136.668697 281.566871 
L 137.085822 281.566871 
L 137.140746 280.8576 
L 137.627979 280.8576 
L 137.654681 280.148329 
L 137.866944 280.148329 
L 137.866944 279.793694 
L 138.154948 279.793694 
L 138.180913 279.084424 
L 138.718057 279.084424 
L 138.768422 278.020518 
L 139.483965 278.020518 
L 139.483965 277.665882 
L 140.219905 277.665882 
L 140.26641 276.956612 
L 140.657135 276.956612 
L 140.657135 276.601976 
L 140.793122 276.601976 
L 140.793122 276.247341 
L 140.950542 276.247341 
L 140.950542 275.892706 
L 141.062184 275.892706 
L 141.128852 275.183435 
L 141.217377 275.183435 
L 141.217377 274.8288 
L 141.782854 274.8288 
L 141.84702 274.119529 
L 142.206555 274.119529 
L 142.206555 273.764894 
L 142.641404 273.764894 
L 142.702713 273.055624 
L 142.966099 273.055624 
L 143.006295 271.991718 
L 143.344534 271.991718 
L 143.344534 271.637082 
L 143.462475 271.637082 
L 143.462475 271.282447 
L 143.715505 271.282447 
L 143.715505 270.927812 
L 143.907854 270.927812 
L 143.907854 270.573176 
L 144.079302 270.573176 
L 144.079302 270.218541 
L 144.2304 270.218541 
L 144.2304 269.863906 
L 144.491935 269.863906 
L 144.491935 269.154635 
L 144.877544 269.154635 
L 144.968202 268.090729 
L 145.094395 268.090729 
L 145.112353 267.381459 
L 145.379694 267.381459 
L 145.379694 266.672188 
L 146.074567 266.672188 
L 146.176619 265.962918 
L 146.261241 265.962918 
L 146.261241 265.608282 
L 146.379077 265.608282 
L 146.462796 264.899012 
L 146.496179 264.899012 
L 146.496179 264.544376 
L 146.87589 264.544376 
L 146.908549 263.835106 
L 147.103321 263.835106 
L 147.135588 263.125835 
L 147.359919 263.125835 
L 147.359919 262.7712 
L 147.486917 262.7712 
L 147.486917 262.416565 
L 147.644469 262.416565 
L 147.660152 261.707294 
L 147.769567 261.707294 
L 147.769567 261.352659 
L 148.063382 261.352659 
L 148.07872 260.288753 
L 148.322436 260.288753 
L 148.322436 259.934118 
L 148.47317 259.934118 
L 148.47317 259.579482 
L 148.652472 259.579482 
L 148.697031 258.870212 
L 148.947561 258.870212 
L 149.049758 257.806306 
L 149.20924 257.806306 
L 149.2669 257.097035 
L 149.35306 257.097035 
L 149.42456 256.387765 
L 149.693807 256.387765 
L 149.778038 255.323859 
L 149.973123 255.323859 
L 150.083698 254.614588 
L 150.097474 254.614588 
L 150.124997 253.905318 
L 150.452162 253.905318 
L 150.546523 253.196047 
L 150.600232 253.196047 
L 150.600232 252.841412 
L 150.72052 252.841412 
L 150.8268 251.422871 
L 151.116012 251.422871 
L 151.116012 251.068235 
L 151.349377 251.068235 
L 151.375128 250.358965 
L 151.592605 250.358965 
L 151.592605 250.004329 
L 151.70673 250.004329 
L 151.795018 249.295059 
L 151.820167 249.295059 
L 151.820167 248.940424 
L 151.945411 248.940424 
L 151.945411 248.585788 
L 152.082223 248.585788 
L 152.181101 247.521882 
L 152.20574 247.521882 
L 152.20574 247.167247 
L 152.365109 247.167247 
L 152.365109 246.812612 
L 152.498913 246.812612 
L 152.595631 245.394071 
L 152.631772 245.394071 
L 152.703847 244.330165 
L 152.823362 244.330165 
L 152.823362 243.975529 
L 152.953957 243.975529 
L 152.953957 243.620894 
L 153.189104 243.620894 
L 153.293969 242.556988 
L 153.317193 242.556988 
L 153.363556 241.847718 
L 153.52493 241.847718 
L 153.58223 240.074541 
L 153.707679 240.074541 
L 153.798392 239.365271 
L 153.899924 239.365271 
L 153.967309 238.301365 
L 154.112486 238.301365 
L 154.112486 237.946729 
L 154.333671 237.946729 
L 154.443296 236.882824 
L 154.660647 236.882824 
L 154.768388 236.173553 
L 154.789862 236.173553 
L 154.875516 235.109647 
L 154.950144 235.109647 
L 155.045661 234.045741 
L 155.098517 234.045741 
L 155.13016 233.336471 
L 155.24573 233.336471 
L 155.339761 231.563294 
L 155.443693 231.563294 
L 155.526427 230.499388 
L 155.639595 230.499388 
L 155.721473 229.435482 
L 155.802997 229.435482 
L 155.884169 228.371576 
L 155.954908 228.371576 
L 156.005274 226.953035 
L 156.145584 226.953035 
L 156.245169 226.243765 
L 156.294765 226.243765 
L 156.294765 225.889129 
L 156.472233 225.889129 
L 156.501649 225.179859 
L 156.609116 225.179859 
L 156.648044 224.470588 
L 156.84148 224.470588 
L 156.899125 223.406682 
L 156.956595 223.406682 
L 156.956595 223.052047 
L 157.118477 223.052047 
L 157.118477 222.697412 
L 157.3353 222.697412 
L 157.428797 220.5696 
L 157.53111 220.5696 
L 157.595929 218.441788 
L 157.669736 218.441788 
L 157.770751 217.732518 
L 157.834751 217.732518 
L 157.934885 216.313976 
L 158.061563 216.313976 
L 158.133569 215.250071 
L 158.187393 215.250071 
L 158.294582 214.5408 
L 158.401163 214.5408 
L 158.498335 213.831529 
L 158.542339 213.831529 
L 158.568692 212.767624 
L 159.045398 212.767624 
L 159.14782 211.703718 
L 159.173339 211.703718 
L 159.275069 210.285176 
L 159.325729 210.285176 
L 159.401463 209.221271 
L 159.518669 209.221271 
L 159.577 208.157365 
L 159.693121 208.157365 
L 159.767393 207.093459 
L 159.947723 207.093459 
L 160.00474 205.674918 
L 160.077795 205.674918 
L 160.174762 204.611012 
L 160.255188 204.611012 
L 160.255188 204.256376 
L 160.383158 204.256376 
L 160.478568 203.192471 
L 160.510264 203.192471 
L 160.565603 202.4832 
L 160.636516 202.4832 
L 160.722826 200.355388 
L 160.761927 200.355388 
L 160.87098 198.582212 
L 160.940753 198.582212 
L 161.002557 197.872941 
L 161.064158 197.872941 
L 161.163832 196.099765 
L 161.23253 196.099765 
L 161.338896 194.326588 
L 161.406958 194.326588 
L 161.482294 193.262682 
L 161.564818 193.262682 
L 161.639526 191.844141 
L 161.691646 191.844141 
L 161.795455 190.780235 
L 161.802848 190.780235 
L 161.906046 190.070965 
L 161.994053 190.070965 
L 162.06708 189.361694 
L 162.197817 189.361694 
L 162.226747 188.652424 
L 162.320462 188.652424 
L 162.413713 186.879247 
L 162.442313 186.879247 
L 162.513623 185.815341 
L 162.55628 185.815341 
L 162.634233 184.3968 
L 162.683672 184.3968 
L 162.697774 183.332894 
L 162.824215 183.332894 
L 162.887118 182.268988 
L 162.956765 182.268988 
L 163.026155 180.850447 
L 163.157294 180.850447 
L 163.253342 179.431906 
L 163.348901 179.431906 
L 163.430425 176.949459 
L 163.464289 176.949459 
L 163.572247 175.530918 
L 163.612572 175.530918 
L 163.713007 173.757741 
L 163.746367 173.757741 
L 163.786321 172.693835 
L 163.984826 172.693835 
L 164.070199 171.629929 
L 164.102932 171.629929 
L 164.168227 169.856753 
L 164.220301 169.856753 
L 164.317552 167.728941 
L 164.343401 167.728941 
L 164.440019 167.019671 
L 164.459284 167.019671 
L 164.55531 165.601129 
L 164.612692 165.601129 
L 164.612692 165.246494 
L 164.777484 165.246494 
L 164.865624 163.118682 
L 164.915805 163.118682 
L 164.972099 161.700141 
L 165.158538 161.700141 
L 165.158538 161.345506 
L 165.281812 161.345506 
L 165.392072 159.217694 
L 165.398179 159.217694 
L 165.507761 156.380612 
L 165.592552 156.380612 
L 165.64686 154.607435 
L 165.707018 154.607435 
L 165.796897 153.543529 
L 165.838694 153.543529 
L 165.945747 152.124988 
L 165.993131 152.124988 
L 166.087543 149.997176 
L 166.122826 149.997176 
L 166.181484 148.578635 
L 166.298254 148.578635 
L 166.367969 147.160094 
L 166.425869 147.160094 
L 166.523891 145.386918 
L 166.592777 145.386918 
L 166.655701 143.968376 
L 166.741169 143.968376 
L 166.820591 142.549835 
L 166.854526 142.549835 
L 166.950346 141.840565 
L 167.012088 141.840565 
L 167.095955 140.776659 
L 167.190556 140.776659 
L 167.229371 139.358118 
L 167.317792 139.358118 
L 167.411287 136.875671 
L 167.44965 136.875671 
L 167.553385 135.102494 
L 167.569712 135.102494 
L 167.672789 133.329318 
L 167.683607 133.329318 
L 167.775305 132.265412 
L 167.80219 132.265412 
L 167.807563 131.556141 
L 167.941377 131.556141 
L 168.026521 129.782965 
L 168.05305 129.782965 
L 168.137692 127.300518 
L 168.195663 127.300518 
L 168.274427 125.527341 
L 168.358081 125.527341 
L 168.425776 123.399529 
L 168.488049 123.399529 
L 168.596533 121.626353 
L 168.62227 121.626353 
L 168.704395 119.498541 
L 168.770857 119.498541 
L 168.842171 118.08 
L 168.898015 118.08 
L 168.973898 116.661459 
L 169.039418 116.661459 
L 169.134768 115.597553 
L 169.15978 115.597553 
L 169.219673 114.179012 
L 169.319074 114.179012 
L 169.388343 112.405835 
L 169.437666 112.405835 
L 169.535924 110.632659 
L 169.599518 110.632659 
L 169.706651 108.859482 
L 169.711507 108.859482 
L 169.798687 107.795576 
L 169.8614 107.795576 
L 169.967056 104.603859 
L 169.981418 104.603859 
L 170.081645 103.185318 
L 170.09592 103.185318 
L 170.148167 102.476047 
L 170.214455 102.476047 
L 170.308749 100.702871 
L 170.346334 100.702871 
L 170.453976 98.929694 
L 170.467971 98.929694 
L 170.570284 97.511153 
L 170.616607 97.511153 
L 170.727317 95.737976 
L 170.791599 95.737976 
L 170.901288 93.610165 
L 171.032981 93.610165 
L 171.060113 92.900894 
L 171.195189 92.900894 
L 171.293632 91.482353 
L 171.324847 91.482353 
L 171.364905 90.418447 
L 171.453618 90.418447 
L 171.546318 88.999906 
L 171.686704 88.999906 
L 171.79131 86.872094 
L 171.955755 86.872094 
L 171.994493 85.098918 
L 172.067447 85.098918 
L 172.178481 82.261835 
L 172.233753 82.261835 
L 172.335368 80.843294 
L 172.402808 80.843294 
L 172.465815 80.134024 
L 172.516068 80.134024 
L 172.607852 78.715482 
L 172.678471 78.715482 
L 172.773594 77.296941 
L 172.794209 77.296941 
L 172.794209 76.942306 
L 172.925616 76.942306 
L 172.978738 75.523765 
L 173.129118 75.523765 
L 173.217966 74.459859 
L 173.246148 74.459859 
L 173.32243 73.395953 
L 173.434285 73.395953 
L 173.517742 72.332047 
L 173.671758 72.332047 
L 173.781561 70.558871 
L 173.793288 70.558871 
L 173.88295 69.8496 
L 173.929561 69.8496 
L 173.972187 69.140329 
L 174.137895 69.140329 
L 174.210652 68.076424 
L 174.275513 68.076424 
L 174.37807 66.657882 
L 174.453679 66.657882 
L 174.562776 64.530071 
L 174.678701 64.530071 
L 174.767961 62.047624 
L 174.838326 62.047624 
L 174.923154 61.338353 
L 175.033228 61.338353 
L 175.139024 59.919812 
L 175.15357 59.919812 
L 175.157205 59.210541 
L 175.32725 59.210541 
L 175.431409 58.146635 
L 175.474342 58.146635 
L 175.531433 56.373459 
L 175.602554 56.373459 
L 175.662797 55.664188 
L 175.722847 55.664188 
L 175.722847 55.309553 
L 175.96463 55.309553 
L 176.075715 53.536376 
L 176.162047 53.536376 
L 176.162047 53.181741 
L 176.439069 53.181741 
L 176.439069 52.827106 
L 176.614785 52.827106 
L 176.708725 51.408565 
L 176.785541 51.408565 
L 176.785541 51.053929 
L 176.941545 51.053929 
L 177.030582 49.990024 
L 177.122474 49.990024 
L 177.220434 48.926118 
L 177.288704 48.926118 
L 177.337316 47.862212 
L 177.405164 47.862212 
L 177.405164 47.507576 
L 177.530521 47.507576 
L 177.530521 47.152941 
L 177.750281 47.152941 
L 177.845034 46.443671 
L 177.882802 46.443671 
L 177.986274 45.025129 
L 178.020639 45.025129 
L 178.064285 44.315859 
L 178.145075 44.315859 
L 178.234779 43.251953 
L 178.256368 43.251953 
L 178.284089 42.188047 
L 178.437353 42.188047 
L 178.504396 41.478776 
L 178.595434 41.478776 
L 178.595434 41.124141 
L 178.803166 41.124141 
L 178.803166 40.769506 
L 179.132603 40.769506 
L 179.132603 40.060235 
L 179.808747 40.060235 
L 179.808747 39.7056 
L 180.25192 39.7056 
L 180.279621 38.996329 
L 180.370745 38.996329 
L 180.444974 38.287059 
L 180.494298 38.287059 
L 180.494298 37.932424 
L 180.674054 37.932424 
L 180.765989 36.513882 
L 180.835991 36.513882 
L 180.846737 35.804612 
L 181.0072 35.804612 
L 181.033812 35.095341 
L 181.142526 35.095341 
L 181.142526 34.740706 
L 181.29263 34.740706 
L 181.376377 34.031435 
L 181.501302 34.031435 
L 181.501302 33.6768 
L 181.707684 33.6768 
L 181.707684 33.322165 
L 181.899132 33.322165 
L 181.899132 32.967529 
L 182.311099 32.967529 
L 182.326001 31.903624 
L 183.246539 31.903624 
L 183.246539 31.548988 
L 183.810136 31.548988 
L 183.810136 31.194353 
L 184.640456 31.194353 
L 184.712762 30.485082 
L 185.050858 30.485082 
L 185.050858 30.130447 
L 185.968882 30.130447 
L 185.968882 29.775812 
L 186.255126 29.775812 
L 186.255126 29.421176 
L 186.560881 29.421176 
L 186.560881 29.066541 
L 188.467002 29.066541 
L 188.467002 28.711906 
L 188.890308 28.711906 
L 188.890308 28.357271 
L 190.228643 28.357271 
L 190.228643 28.002635 
L 191.210587 28.002635 
L 191.210587 27.648 
L 360.8064 27.648 
L 360.8064 27.648 
" style="fill:none;stroke:#ff00ff;stroke-linecap:square;stroke-width:1.5;"/>
   </g>
   <g id="line2d_41">
    <defs>
     <path d="M -0 8.485281 
L 5.091169 0 
L 0 -8.485281 
L -5.091169 -0 
z
" id="m07dda4acb3" style="stroke:#ff00ff;stroke-linejoin:miter;stroke-width:1.5;"/>
    </defs>
    <g>
     <use style="fill-opacity:0;stroke:#ff00ff;stroke-linejoin:miter;stroke-width:1.5;" x="147.135588" xlink:href="#m07dda4acb3" y="263.125835"/>
     <use style="fill-opacity:0;stroke:#ff00ff;stroke-linejoin:miter;stroke-width:1.5;" x="175.157205" xlink:href="#m07dda4acb3" y="59.210541"/>
     <use style="fill-opacity:0;stroke:#ff00ff;stroke-linejoin:miter;stroke-width:1.5;" x="191.210587" xlink:href="#m07dda4acb3" y="27.648"/>
     <use style="fill-opacity:0;stroke:#ff00ff;stroke-linejoin:miter;stroke-width:1.5;" x="191.210587" xlink:href="#m07dda4acb3" y="27.648"/>
     <use style="fill-opacity:0;stroke:#ff00ff;stroke-linejoin:miter;stroke-width:1.5;" x="360.8064" xlink:href="#m07dda4acb3" y="27.648"/>
    </g>
   </g>
   <g id="line2d_42">
    <path style="fill:none;stroke:#ff00ff;stroke-linecap:square;stroke-width:1.5;"/>
    <g/>
   </g>
   <g id="line2d_43">
    <path clip-path="url(#p8f4e215709)" d="M 145.538293 266.672188 
" style="fill:none;stroke:#ff00ff;stroke-linecap:square;stroke-width:1.5;"/>
    <defs>
     <path d="M -12 12 
L 12 -12 
M -12 -12 
L 12 12 
" id="m759deecd81" style="stroke:#ff00ff;"/>
    </defs>
    <g clip-path="url(#p8f4e215709)">
     <use style="fill:#ff00ff;stroke:#ff00ff;" x="145.538293" xlink:href="#m759deecd81" y="266.672188"/>
    </g>
   </g>
   <g id="line2d_44">
    <defs>
     <path d="M 0 1.5 
C 0.397805 1.5 0.77937 1.341951 1.06066 1.06066 
C 1.341951 0.77937 1.5 0.397805 1.5 0 
C 1.5 -0.397805 1.341951 -0.77937 1.06066 -1.06066 
C 0.77937 -1.341951 0.397805 -1.5 0 -1.5 
C -0.397805 -1.5 -0.77937 -1.341951 -1.06066 -1.06066 
C -1.341951 -0.77937 -1.5 -0.397805 -1.5 0 
C -1.5 0.397805 -1.341951 0.77937 -1.06066 1.06066 
C -0.77937 1.341951 -0.397805 1.5 0 1.5 
z
" id="ma94d7e3db5" style="stroke:#ff7500;"/>
    </defs>
    <g>
     <use style="fill:#ff7500;stroke:#ff7500;" x="200.76823" xlink:href="#ma94d7e3db5" y="27.648"/>
     <use style="fill:#ff7500;stroke:#ff7500;" x="200.76823" xlink:href="#ma94d7e3db5" y="27.648"/>
    </g>
   </g>
   <g id="line2d_45">
    <path d="M 121.39274 298.944 
L 121.39274 298.589365 
L 121.768984 298.589365 
L 121.768984 297.880094 
L 127.503881 297.880094 
L 127.549596 296.816188 
L 129.663538 296.816188 
L 129.663538 296.461553 
L 130.849533 296.461553 
L 130.849533 295.752282 
L 131.191226 295.752282 
L 131.191226 295.397647 
L 133.154399 295.397647 
L 133.154399 295.043012 
L 133.853052 295.043012 
L 133.853052 294.688376 
L 134.7148 294.688376 
L 134.7148 294.333741 
L 135.74666 294.333741 
L 135.74666 293.979106 
L 137.439996 293.979106 
L 137.439996 293.624471 
L 141.195285 293.624471 
L 141.195285 293.269835 
L 141.393187 293.269835 
L 141.393187 292.9152 
L 141.718467 292.9152 
L 141.718467 292.560565 
L 142.059343 292.560565 
L 142.059343 292.205929 
L 142.227492 292.205929 
L 142.227492 291.851294 
L 142.352625 291.851294 
L 142.352625 291.496659 
L 142.518184 291.496659 
L 142.518184 291.142024 
L 142.925817 291.142024 
L 142.925817 290.787388 
L 144.06033 290.787388 
L 144.06033 290.432753 
L 144.529002 290.432753 
L 144.529002 290.078118 
L 145.022388 290.078118 
L 145.022388 289.723482 
L 146.040426 289.723482 
L 146.074567 288.304941 
L 146.159649 288.304941 
L 146.159649 287.950306 
L 146.27812 287.950306 
L 146.311833 287.241035 
L 147.087167 287.241035 
L 147.087167 286.8864 
L 147.216013 286.8864 
L 147.216013 286.531765 
L 148.139946 286.531765 
L 148.139946 286.177129 
L 149.637443 286.177129 
L 149.637443 285.822494 
L 150.262008 285.822494 
L 150.262008 285.467859 
L 150.546523 285.467859 
L 150.546523 285.113224 
L 150.773735 285.113224 
L 150.773735 284.758588 
L 151.284843 284.758588 
L 151.284843 284.403953 
L 152.340678 284.403953 
L 152.340678 284.049318 
L 152.486788 284.049318 
L 152.486788 283.694682 
L 152.667844 283.694682 
L 152.667844 283.340047 
L 153.224124 283.340047 
L 153.224124 282.985412 
L 153.409804 282.985412 
L 153.478964 282.276141 
L 153.605101 282.276141 
L 153.616527 281.566871 
L 154.079083 281.566871 
L 154.156931 280.8576 
L 154.432362 280.8576 
L 154.497869 280.148329 
L 154.563149 280.148329 
L 154.584859 279.439059 
L 155.350181 279.439059 
L 155.350181 279.084424 
L 155.690811 279.084424 
L 155.731683 278.375153 
L 156.618856 278.375153 
L 156.667477 277.665882 
L 156.802952 277.665882 
L 156.802952 277.311247 
L 156.99481 277.311247 
L 156.99481 276.956612 
L 157.241336 276.956612 
L 157.241336 276.601976 
L 157.391454 276.601976 
L 157.484673 275.538071 
L 157.503261 275.538071 
L 157.503261 275.183435 
L 157.614408 275.183435 
L 157.614408 274.8288 
L 158.178433 274.8288 
L 158.178433 274.474165 
L 158.498335 274.474165 
L 158.515949 273.764894 
L 158.847515 273.764894 
L 158.91658 273.055624 
L 159.742668 273.055624 
L 159.841374 271.637082 
L 160.126341 271.637082 
L 160.190875 270.927812 
L 160.343261 270.927812 
L 160.343261 270.573176 
L 160.4627 270.573176 
L 160.502345 269.509271 
L 161.033383 269.509271 
L 161.033383 269.154635 
L 161.156184 269.154635 
L 161.156184 268.8 
L 161.414505 268.8 
L 161.414505 268.445365 
L 161.579783 268.445365 
L 161.654432 267.381459 
L 161.743622 267.381459 
L 161.743622 267.026824 
L 161.891338 267.026824 
L 161.994053 266.317553 
L 162.052497 266.317553 
L 162.052497 265.962918 
L 162.284473 265.962918 
L 162.342023 265.253647 
L 162.605924 265.253647 
L 162.613005 264.544376 
L 162.768124 264.544376 
L 162.873158 263.480471 
L 162.908039 263.480471 
L 162.908039 263.125835 
L 163.184786 263.125835 
L 163.280694 262.416565 
L 163.348901 262.416565 
L 163.40329 261.707294 
L 163.464289 261.707294 
L 163.504846 260.998024 
L 163.925494 260.998024 
L 163.984826 260.288753 
L 164.089846 260.288753 
L 164.09639 259.579482 
L 164.726932 259.579482 
L 164.726932 259.224847 
L 165.195605 259.224847 
L 165.251069 258.160941 
L 165.477385 258.160941 
L 165.568365 257.451671 
L 165.592552 257.451671 
L 165.701011 256.7424 
L 165.731028 256.7424 
L 165.731028 256.387765 
L 165.856578 256.387765 
L 165.868492 255.678494 
L 165.993131 255.678494 
L 165.993131 254.969224 
L 166.140442 254.969224 
L 166.199045 253.905318 
L 166.460523 253.905318 
L 166.489353 253.196047 
L 166.775248 253.196047 
L 166.797933 252.132141 
L 166.916583 252.132141 
L 166.933472 251.422871 
L 167.312278 251.422871 
L 167.312278 251.068235 
L 167.433218 251.068235 
L 167.537044 250.358965 
L 167.569712 250.358965 
L 167.580589 249.649694 
L 167.683607 249.649694 
L 167.721419 248.940424 
L 167.877265 248.940424 
L 167.973351 247.521882 
L 168.111282 247.521882 
L 168.221954 246.457976 
L 168.237711 246.457976 
L 168.237711 246.103341 
L 168.384146 246.103341 
L 168.384146 245.748706 
L 168.606832 245.748706 
L 168.606832 245.394071 
L 168.806548 245.394071 
L 168.90815 244.330165 
L 168.938524 244.330165 
L 168.999125 242.556988 
L 169.244573 242.556988 
L 169.328985 241.847718 
L 169.378463 241.847718 
L 169.378463 241.493082 
L 169.721213 241.493082 
L 169.721213 241.138447 
L 169.928705 241.138447 
L 169.981418 240.429176 
L 170.214455 240.429176 
L 170.219181 239.719906 
L 170.37916 239.719906 
L 170.37916 239.010635 
L 170.54708 239.010635 
L 170.621233 237.592094 
L 170.704306 237.592094 
L 170.704306 237.237459 
L 170.869361 237.237459 
L 170.978599 236.528188 
L 171.307016 236.528188 
L 171.382681 235.818918 
L 171.444765 235.818918 
L 171.528696 234.045741 
L 171.717274 234.045741 
L 171.81737 232.6272 
L 171.9083 232.6272 
L 171.9083 232.272565 
L 172.352251 232.272565 
L 172.402808 231.563294 
L 172.503517 231.563294 
L 172.607852 229.435482 
L 172.670177 229.435482 
L 172.744694 227.662306 
L 172.827147 227.662306 
L 172.827147 227.307671 
L 172.946065 227.307671 
L 173.043915 226.243765 
L 173.177632 226.243765 
L 173.258213 224.825224 
L 173.394413 224.825224 
L 173.497905 223.406682 
L 173.592933 223.406682 
L 173.624503 222.697412 
L 173.781561 222.697412 
L 173.867387 221.988141 
L 173.960572 221.988141 
L 173.999263 221.278871 
L 174.11486 221.278871 
L 174.13022 220.5696 
L 174.252647 220.5696 
L 174.286936 219.505694 
L 174.393216 219.505694 
L 174.449906 218.441788 
L 174.559024 218.441788 
L 174.663783 217.023247 
L 174.727102 217.023247 
L 174.73082 216.313976 
L 174.856799 216.313976 
L 174.95257 215.604706 
L 174.992942 215.604706 
L 175.10261 214.5408 
L 175.255078 214.5408 
L 175.363232 212.767624 
L 175.37042 212.767624 
L 175.37042 212.412988 
L 175.520741 212.412988 
L 175.577692 211.349082 
L 175.740472 211.349082 
L 175.740472 210.994447 
L 175.859888 210.994447 
L 175.866889 210.285176 
L 175.978552 210.285176 
L 176.054937 209.575906 
L 176.179266 209.575906 
L 176.285672 207.802729 
L 176.299358 207.802729 
L 176.357413 207.093459 
L 176.550771 207.093459 
L 176.550771 206.738824 
L 176.715418 206.738824 
L 176.808858 205.320282 
L 176.938239 205.320282 
L 177.014125 203.547106 
L 177.086427 203.547106 
L 177.187837 202.4832 
L 177.272471 202.4832 
L 177.372886 201.064659 
L 177.434167 201.064659 
L 177.533725 200.000753 
L 177.61682 200.000753 
L 177.702725 198.582212 
L 177.731273 198.582212 
L 177.781919 197.872941 
L 177.882802 197.872941 
L 177.976891 196.809035 
L 178.03 196.809035 
L 178.138873 195.745129 
L 178.145075 195.745129 
L 178.237865 195.035859 
L 178.308695 195.035859 
L 178.367007 193.262682 
L 178.610565 193.262682 
L 178.707112 191.489506 
L 178.734177 191.489506 
L 178.821121 190.780235 
L 178.964153 190.780235 
L 179.070718 189.361694 
L 179.085471 189.361694 
L 179.185485 188.297788 
L 179.246995 188.297788 
L 179.273294 187.233882 
L 179.363602 187.233882 
L 179.462152 186.169976 
L 179.55156 186.169976 
L 179.657718 184.751435 
L 179.6663 184.751435 
L 179.740507 184.042165 
L 179.783186 184.042165 
L 179.865426 182.978259 
L 179.947307 182.978259 
L 180.054064 181.559718 
L 180.118386 181.559718 
L 180.185272 180.850447 
L 180.298987 180.850447 
L 180.409271 179.431906 
L 180.608887 179.431906 
L 180.698433 177.304094 
L 180.765989 177.304094 
L 180.822549 176.240188 
L 180.945851 176.240188 
L 181.036471 174.112376 
L 181.184782 174.112376 
L 181.221678 173.403106 
L 181.373765 173.403106 
L 181.472746 171.984565 
L 181.503895 171.984565 
L 181.571209 170.566024 
L 181.625402 170.566024 
L 181.725635 168.792847 
L 181.820236 168.792847 
L 181.921976 167.374306 
L 181.987812 167.374306 
L 182.093679 165.601129 
L 182.118798 165.601129 
L 182.178947 164.537224 
L 182.291211 164.537224 
L 182.333448 163.118682 
L 182.410224 163.118682 
L 182.511289 162.054776 
L 182.523577 162.054776 
L 182.589793 161.345506 
L 182.653338 161.345506 
L 182.738541 158.863059 
L 182.772514 158.863059 
L 182.869244 156.735247 
L 182.907797 156.735247 
L 183.003836 155.316706 
L 183.092238 155.316706 
L 183.094621 154.607435 
L 183.279608 154.607435 
L 183.380815 153.543529 
L 183.420677 153.543529 
L 183.48148 152.479624 
L 183.556046 152.479624 
L 183.632634 151.770353 
L 183.68121 151.770353 
L 183.782583 150.351812 
L 183.794068 150.351812 
L 183.869695 147.160094 
L 183.910818 147.160094 
L 183.933625 146.450824 
L 184.02458 146.450824 
L 184.12638 145.032282 
L 184.184948 145.032282 
L 184.276936 142.549835 
L 184.299304 142.549835 
L 184.323878 141.485929 
L 184.45514 141.485929 
L 184.561258 138.294212 
L 184.600899 138.294212 
L 184.699636 136.875671 
L 184.721507 136.875671 
L 184.74117 135.811765 
L 184.88907 135.811765 
L 184.994929 134.393224 
L 185.080905 134.393224 
L 185.183561 131.910776 
L 185.219784 131.910776 
L 185.268681 131.201506 
L 185.334385 131.201506 
L 185.429356 128.719059 
L 185.492405 128.719059 
L 185.557334 126.945882 
L 185.630372 126.945882 
L 185.717645 124.818071 
L 185.77767 124.818071 
L 185.84986 123.754165 
L 185.901255 123.754165 
L 186.00975 122.690259 
L 186.028112 122.690259 
L 186.133852 120.562447 
L 186.174363 120.562447 
L 186.230933 118.789271 
L 186.33153 118.789271 
L 186.435583 116.661459 
L 186.447553 116.661459 
L 186.552951 115.242918 
L 186.645926 115.242918 
L 186.752184 114.179012 
L 186.807045 114.179012 
L 186.881245 112.405835 
L 186.92018 112.405835 
L 187.021036 110.632659 
L 187.061614 110.632659 
L 187.123278 108.859482 
L 187.19241 108.859482 
L 187.267018 107.440941 
L 187.388813 107.440941 
L 187.492854 104.958494 
L 187.517361 104.958494 
L 187.57943 103.185318 
L 187.656262 103.185318 
L 187.764418 99.9936 
L 187.794144 99.9936 
L 187.834942 98.575059 
L 187.929181 98.575059 
L 188.021115 96.447247 
L 188.101647 96.447247 
L 188.129022 95.737976 
L 188.230874 95.737976 
L 188.294252 93.9648 
L 188.357418 93.9648 
L 188.463419 91.482353 
L 188.483116 91.482353 
L 188.558133 89.709176 
L 188.599088 89.709176 
L 188.677189 87.581365 
L 188.726721 87.581365 
L 188.830667 86.162824 
L 188.864019 86.162824 
L 188.935789 84.035012 
L 189.012507 84.035012 
L 189.106235 81.552565 
L 189.14947 81.552565 
L 189.182262 80.488659 
L 189.276866 80.488659 
L 189.360751 79.779388 
L 189.428952 79.779388 
L 189.527407 76.942306 
L 189.566307 76.942306 
L 189.664047 75.169129 
L 189.699311 75.169129 
L 189.794695 73.041318 
L 189.836378 73.041318 
L 189.944323 70.913506 
L 189.96253 70.913506 
L 190.054946 67.721788 
L 190.107552 67.721788 
L 190.212325 66.303247 
L 190.329501 66.303247 
L 190.433048 63.466165 
L 190.458846 63.466165 
L 190.552068 62.047624 
L 190.659184 62.047624 
L 190.764108 60.983718 
L 190.775202 60.983718 
L 190.822674 59.565176 
L 190.888934 59.565176 
L 190.983188 57.792 
L 191.023885 57.792 
L 191.067615 56.373459 
L 191.19045 56.373459 
L 191.281667 54.245647 
L 191.343258 54.245647 
L 191.386253 53.536376 
L 191.503983 53.536376 
L 191.557254 52.472471 
L 191.622496 52.472471 
L 191.722196 51.408565 
L 191.737256 51.408565 
L 191.82137 48.216847 
L 191.924497 48.216847 
L 192.02113 46.798306 
L 192.040398 46.798306 
L 192.148226 45.7344 
L 192.217324 45.7344 
L 192.217324 45.379765 
L 192.386785 45.379765 
L 192.423108 44.670494 
L 192.499881 44.670494 
L 192.572023 43.606588 
L 192.672558 43.606588 
L 192.769709 41.478776 
L 192.786801 41.478776 
L 192.839405 40.414871 
L 193.072216 40.414871 
L 193.144993 39.350965 
L 193.295253 39.350965 
L 193.349219 38.641694 
L 193.540313 38.641694 
L 193.586761 37.932424 
L 193.661656 37.932424 
L 193.661656 37.577788 
L 193.775469 37.577788 
L 193.883225 36.159247 
L 193.96364 36.159247 
L 193.96364 35.804612 
L 194.241095 35.804612 
L 194.342293 35.095341 
L 194.64395 35.095341 
L 194.668442 34.386071 
L 194.937037 34.386071 
L 195.013079 33.6768 
L 195.096372 33.6768 
L 195.096372 33.322165 
L 195.337846 33.322165 
L 195.376344 32.258259 
L 195.698611 32.258259 
L 195.712021 31.548988 
L 196.292804 31.548988 
L 196.292804 31.194353 
L 196.723849 31.194353 
L 196.735394 30.485082 
L 197.028561 30.485082 
L 197.028561 30.130447 
L 197.612554 30.130447 
L 197.612554 29.775812 
L 197.773792 29.775812 
L 197.882693 29.066541 
L 197.993127 29.066541 
L 197.993127 28.711906 
L 198.89418 28.711906 
L 198.89418 28.357271 
L 199.302357 28.357271 
L 199.302357 28.002635 
L 200.76823 28.002635 
L 200.76823 27.648 
L 360.8064 27.648 
L 360.8064 27.648 
" style="fill:none;stroke:#ff7500;stroke-linecap:square;stroke-width:1.5;"/>
   </g>
   <g id="line2d_46">
    <defs>
     <path d="M 0 -6 
L -1.347084 -1.854102 
L -5.706339 -1.854102 
L -2.179628 0.708204 
L -3.526712 4.854102 
L -0 2.291796 
L 3.526712 4.854102 
L 2.179628 0.708204 
L 5.706339 -1.854102 
L 1.347084 -1.854102 
z
" id="m2f8f1059df" style="stroke:#ff7500;stroke-linejoin:bevel;stroke-width:1.5;"/>
    </defs>
    <g>
     <use style="fill-opacity:0;stroke:#ff7500;stroke-linejoin:bevel;stroke-width:1.5;" x="180.698433" xlink:href="#m2f8f1059df" y="177.304094"/>
     <use style="fill-opacity:0;stroke:#ff7500;stroke-linejoin:bevel;stroke-width:1.5;" x="200.76823" xlink:href="#m2f8f1059df" y="28.002635"/>
     <use style="fill-opacity:0;stroke:#ff7500;stroke-linejoin:bevel;stroke-width:1.5;" x="200.76823" xlink:href="#m2f8f1059df" y="27.648"/>
     <use style="fill-opacity:0;stroke:#ff7500;stroke-linejoin:bevel;stroke-width:1.5;" x="200.76823" xlink:href="#m2f8f1059df" y="27.648"/>
     <use style="fill-opacity:0;stroke:#ff7500;stroke-linejoin:bevel;stroke-width:1.5;" x="360.8064" xlink:href="#m2f8f1059df" y="27.648"/>
    </g>
   </g>
   <g id="line2d_47">
    <path style="fill:none;stroke:#ff7500;stroke-linecap:square;stroke-width:1.5;"/>
    <g/>
   </g>
   <g id="line2d_48">
    <path clip-path="url(#p8f4e215709)" d="M 147.343984 286.531765 
" style="fill:none;stroke:#ff7500;stroke-linecap:square;stroke-width:1.5;"/>
    <defs>
     <path d="M -12 12 
L 12 -12 
M -12 -12 
L 12 12 
" id="mf11e3dd214" style="stroke:#ff7500;"/>
    </defs>
    <g clip-path="url(#p8f4e215709)">
     <use style="fill:#ff7500;stroke:#ff7500;" x="147.343984" xlink:href="#mf11e3dd214" y="286.531765"/>
    </g>
   </g>
   <g id="line2d_49">
    <path d="M 360.8064 43.606588 
L 380.514816 293.51808 
" style="fill:none;stroke:#000080;stroke-linecap:square;stroke-width:1.5;"/>
    <g>
     <use style="fill-opacity:0;stroke:#000080;stroke-width:1.5;" x="360.8064" xlink:href="#md27186f030" y="43.606588"/>
     <use style="fill-opacity:0;stroke:#000080;stroke-width:1.5;" x="380.514816" xlink:href="#md27186f030" y="293.51808"/>
    </g>
   </g>
   <g id="line2d_50">
    <path d="M 360.8064 27.648 
L 380.514816 206.70336 
" style="fill:none;stroke:#ff7500;stroke-linecap:square;stroke-width:1.5;"/>
    <g>
     <use style="fill-opacity:0;stroke:#ff7500;stroke-linejoin:bevel;stroke-width:1.5;" x="360.8064" xlink:href="#m2f8f1059df" y="27.648"/>
     <use style="fill-opacity:0;stroke:#ff7500;stroke-linejoin:bevel;stroke-width:1.5;" x="380.514816" xlink:href="#m2f8f1059df" y="206.70336"/>
    </g>
   </g>
   <g id="line2d_51">
    <path d="M 360.8064 27.648 
L 380.514816 119.88864 
" style="fill:none;stroke:#ff00ff;stroke-linecap:square;stroke-width:1.5;"/>
    <g>
     <use style="fill-opacity:0;stroke:#ff00ff;stroke-linejoin:miter;stroke-width:1.5;" x="360.8064" xlink:href="#m07dda4acb3" y="27.648"/>
     <use style="fill-opacity:0;stroke:#ff00ff;stroke-linejoin:miter;stroke-width:1.5;" x="380.514816" xlink:href="#m07dda4acb3" y="119.88864"/>
    </g>
   </g>
   <g id="line2d_52">
    <path d="M 360.8064 298.944 
L 360.8064 27.648 
" style="fill:none;stroke:#000000;stroke-linecap:square;stroke-width:1.5;"/>
   </g>
   <g id="patch_3">
    <path d="M 57.6 298.944 
L 360.8064 298.944 
" style="fill:none;stroke:#000000;stroke-linecap:square;stroke-linejoin:miter;stroke-width:0.8;"/>
   </g>
   <g id="patch_4">
    <path d="M 57.6 27.648 
L 360.8064 27.648 
" style="fill:none;stroke:#000000;stroke-linecap:square;stroke-linejoin:miter;stroke-width:0.8;"/>
   </g>
   <g id="text_13">
    <!-- different -->
    <g transform="translate(386.578944 297.381205)scale(0.14 -0.14)">
     <use xlink:href="#DejaVuSans-64"/>
     <use x="63.476562" xlink:href="#DejaVuSans-69"/>
     <use x="91.259766" xlink:href="#DejaVuSans-66"/>
     <use x="126.464844" xlink:href="#DejaVuSans-66"/>
     <use x="161.669922" xlink:href="#DejaVuSans-65"/>
     <use x="223.193359" xlink:href="#DejaVuSans-72"/>
     <use x="262.056641" xlink:href="#DejaVuSans-65"/>
     <use x="323.580078" xlink:href="#DejaVuSans-6e"/>
     <use x="386.958984" xlink:href="#DejaVuSans-74"/>
    </g>
   </g>
   <g id="text_14">
    <!-- diffcma b -->
    <g transform="translate(386.578944 210.566485)scale(0.14 -0.14)">
     <defs>
      <path d="M 3116 1747 
Q 3116 2381 2855 2742 
Q 2594 3103 2138 3103 
Q 1681 3103 1420 2742 
Q 1159 2381 1159 1747 
Q 1159 1113 1420 752 
Q 1681 391 2138 391 
Q 2594 391 2855 752 
Q 3116 1113 3116 1747 
z
M 1159 2969 
Q 1341 3281 1617 3432 
Q 1894 3584 2278 3584 
Q 2916 3584 3314 3078 
Q 3713 2572 3713 1747 
Q 3713 922 3314 415 
Q 2916 -91 2278 -91 
Q 1894 -91 1617 61 
Q 1341 213 1159 525 
L 1159 0 
L 581 0 
L 581 4863 
L 1159 4863 
L 1159 2969 
z
" id="DejaVuSans-62" transform="scale(0.015625)"/>
     </defs>
     <use xlink:href="#DejaVuSans-64"/>
     <use x="63.476562" xlink:href="#DejaVuSans-69"/>
     <use x="91.259766" xlink:href="#DejaVuSans-66"/>
     <use x="126.464844" xlink:href="#DejaVuSans-66"/>
     <use x="161.669922" xlink:href="#DejaVuSans-63"/>
     <use x="216.650391" xlink:href="#DejaVuSans-6d"/>
     <use x="314.0625" xlink:href="#DejaVuSans-61"/>
     <use x="375.341797" xlink:href="#DejaVuSans-20"/>
     <use x="407.128906" xlink:href="#DejaVuSans-62"/>
    </g>
   </g>
   <g id="text_15">
    <!-- cma.fmin  -->
    <g transform="translate(386.578944 123.751765)scale(0.14 -0.14)">
     <use xlink:href="#DejaVuSans-63"/>
     <use x="54.980469" xlink:href="#DejaVuSans-6d"/>
     <use x="152.392578" xlink:href="#DejaVuSans-61"/>
     <use x="213.671875" xlink:href="#DejaVuSans-2e"/>
     <use x="245.458984" xlink:href="#DejaVuSans-66"/>
     <use x="280.664062" xlink:href="#DejaVuSans-6d"/>
     <use x="378.076172" xlink:href="#DejaVuSans-69"/>
     <use x="405.859375" xlink:href="#DejaVuSans-6e"/>
     <use x="469.238281" xlink:href="#DejaVuSans-20"/>
    </g>
   </g>
   <g id="text_16">
    <!-- best 2009 -->
    <g transform="translate(386.578944 36.937045)scale(0.14 -0.14)">
     <defs>
      <path d="M 703 97 
L 703 672 
Q 941 559 1184 500 
Q 1428 441 1663 441 
Q 2288 441 2617 861 
Q 2947 1281 2994 2138 
Q 2813 1869 2534 1725 
Q 2256 1581 1919 1581 
Q 1219 1581 811 2004 
Q 403 2428 403 3163 
Q 403 3881 828 4315 
Q 1253 4750 1959 4750 
Q 2769 4750 3195 4129 
Q 3622 3509 3622 2328 
Q 3622 1225 3098 567 
Q 2575 -91 1691 -91 
Q 1453 -91 1209 -44 
Q 966 3 703 97 
z
M 1959 2075 
Q 2384 2075 2632 2365 
Q 2881 2656 2881 3163 
Q 2881 3666 2632 3958 
Q 2384 4250 1959 4250 
Q 1534 4250 1286 3958 
Q 1038 3666 1038 3163 
Q 1038 2656 1286 2365 
Q 1534 2075 1959 2075 
z
" id="DejaVuSans-39" transform="scale(0.015625)"/>
     </defs>
     <use xlink:href="#DejaVuSans-62"/>
     <use x="63.476562" xlink:href="#DejaVuSans-65"/>
     <use x="125" xlink:href="#DejaVuSans-73"/>
     <use x="177.099609" xlink:href="#DejaVuSans-74"/>
     <use x="216.308594" xlink:href="#DejaVuSans-20"/>
     <use x="248.095703" xlink:href="#DejaVuSans-32"/>
     <use x="311.71875" xlink:href="#DejaVuSans-30"/>
     <use x="375.341797" xlink:href="#DejaVuSans-30"/>
     <use x="438.964844" xlink:href="#DejaVuSans-39"/>
    </g>
   </g>
   <g id="text_17">
    <!-- bbob f6, 10-D -->
    <g transform="translate(60.632064 38.111366)scale(0.102 -0.102)">
     <defs>
      <path d="M 1259 4147 
L 1259 519 
L 2022 519 
Q 2988 519 3436 956 
Q 3884 1394 3884 2338 
Q 3884 3275 3436 3711 
Q 2988 4147 2022 4147 
L 1259 4147 
z
M 628 4666 
L 1925 4666 
Q 3281 4666 3915 4102 
Q 4550 3538 4550 2338 
Q 4550 1131 3912 565 
Q 3275 0 1925 0 
L 628 0 
L 628 4666 
z
" id="DejaVuSans-44" transform="scale(0.015625)"/>
     </defs>
     <use xlink:href="#DejaVuSans-62"/>
     <use x="63.476562" xlink:href="#DejaVuSans-62"/>
     <use x="126.953125" xlink:href="#DejaVuSans-6f"/>
     <use x="188.134766" xlink:href="#DejaVuSans-62"/>
     <use x="251.611328" xlink:href="#DejaVuSans-20"/>
     <use x="283.398438" xlink:href="#DejaVuSans-66"/>
     <use x="318.603516" xlink:href="#DejaVuSans-36"/>
     <use x="382.226562" xlink:href="#DejaVuSans-2c"/>
     <use x="414.013672" xlink:href="#DejaVuSans-20"/>
     <use x="445.800781" xlink:href="#DejaVuSans-31"/>
     <use x="509.423828" xlink:href="#DejaVuSans-30"/>
     <use x="573.046875" xlink:href="#DejaVuSans-2d"/>
     <use x="609.130859" xlink:href="#DejaVuSans-44"/>
    </g>
    <!-- 51 targets: 100..1e-08 -->
    <g transform="translate(60.632064 49.533135)scale(0.102 -0.102)">
     <defs>
      <path d="M 691 4666 
L 3169 4666 
L 3169 4134 
L 1269 4134 
L 1269 2991 
Q 1406 3038 1543 3061 
Q 1681 3084 1819 3084 
Q 2600 3084 3056 2656 
Q 3513 2228 3513 1497 
Q 3513 744 3044 326 
Q 2575 -91 1722 -91 
Q 1428 -91 1123 -41 
Q 819 9 494 109 
L 494 744 
Q 775 591 1075 516 
Q 1375 441 1709 441 
Q 2250 441 2565 725 
Q 2881 1009 2881 1497 
Q 2881 1984 2565 2268 
Q 2250 2553 1709 2553 
Q 1456 2553 1204 2497 
Q 953 2441 691 2322 
L 691 4666 
z
" id="DejaVuSans-35" transform="scale(0.015625)"/>
      <path d="M 750 794 
L 1409 794 
L 1409 0 
L 750 0 
L 750 794 
z
M 750 3309 
L 1409 3309 
L 1409 2516 
L 750 2516 
L 750 3309 
z
" id="DejaVuSans-3a" transform="scale(0.015625)"/>
     </defs>
     <use xlink:href="#DejaVuSans-35"/>
     <use x="63.623047" xlink:href="#DejaVuSans-31"/>
     <use x="127.246094" xlink:href="#DejaVuSans-20"/>
     <use x="159.033203" xlink:href="#DejaVuSans-74"/>
     <use x="198.242188" xlink:href="#DejaVuSans-61"/>
     <use x="259.521484" xlink:href="#DejaVuSans-72"/>
     <use x="298.884766" xlink:href="#DejaVuSans-67"/>
     <use x="362.361328" xlink:href="#DejaVuSans-65"/>
     <use x="423.884766" xlink:href="#DejaVuSans-74"/>
     <use x="463.09375" xlink:href="#DejaVuSans-73"/>
     <use x="515.193359" xlink:href="#DejaVuSans-3a"/>
     <use x="548.884766" xlink:href="#DejaVuSans-20"/>
     <use x="580.671875" xlink:href="#DejaVuSans-31"/>
     <use x="644.294922" xlink:href="#DejaVuSans-30"/>
     <use x="707.917969" xlink:href="#DejaVuSans-30"/>
     <use x="771.541016" xlink:href="#DejaVuSans-2e"/>
     <use x="803.328125" xlink:href="#DejaVuSans-2e"/>
     <use x="835.115234" xlink:href="#DejaVuSans-31"/>
     <use x="898.738281" xlink:href="#DejaVuSans-65"/>
     <use x="960.261719" xlink:href="#DejaVuSans-2d"/>
     <use x="996.345703" xlink:href="#DejaVuSans-30"/>
     <use x="1059.96875" xlink:href="#DejaVuSans-38"/>
    </g>
    <!-- 15 instances -->
    <g transform="translate(60.632064 60.954904)scale(0.102 -0.102)">
     <use xlink:href="#DejaVuSans-31"/>
     <use x="63.623047" xlink:href="#DejaVuSans-35"/>
     <use x="127.246094" xlink:href="#DejaVuSans-20"/>
     <use x="159.033203" xlink:href="#DejaVuSans-69"/>
     <use x="186.816406" xlink:href="#DejaVuSans-6e"/>
     <use x="250.195312" xlink:href="#DejaVuSans-73"/>
     <use x="302.294922" xlink:href="#DejaVuSans-74"/>
     <use x="341.503906" xlink:href="#DejaVuSans-61"/>
     <use x="402.783203" xlink:href="#DejaVuSans-6e"/>
     <use x="466.162109" xlink:href="#DejaVuSans-63"/>
     <use x="521.142578" xlink:href="#DejaVuSans-65"/>
     <use x="582.666016" xlink:href="#DejaVuSans-73"/>
    </g>
   </g>
   <g id="text_18">
    <!-- v2.6 -->
    <g style="fill:#808080;" transform="translate(198.292262 294.151352)scale(0.1 -0.1)">
     <use xlink:href="#DejaVuSans-76"/>
     <use x="59.179688" xlink:href="#DejaVuSans-32"/>
     <use x="122.802734" xlink:href="#DejaVuSans-2e"/>
     <use x="154.589844" xlink:href="#DejaVuSans-36"/>
    </g>
   </g>
   <g id="text_19">
    <!-- 6 Attractive sector -->
    <g transform="translate(116.45945 21.648)scale(0.2 -0.2)">
     <defs>
      <path d="M 2188 4044 
L 1331 1722 
L 3047 1722 
L 2188 4044 
z
M 1831 4666 
L 2547 4666 
L 4325 0 
L 3669 0 
L 3244 1197 
L 1141 1197 
L 716 0 
L 50 0 
L 1831 4666 
z
" id="DejaVuSans-41" transform="scale(0.015625)"/>
     </defs>
     <use xlink:href="#DejaVuSans-36"/>
     <use x="63.623047" xlink:href="#DejaVuSans-20"/>
     <use x="95.410156" xlink:href="#DejaVuSans-41"/>
     <use x="162.068359" xlink:href="#DejaVuSans-74"/>
     <use x="201.277344" xlink:href="#DejaVuSans-74"/>
     <use x="240.486328" xlink:href="#DejaVuSans-72"/>
     <use x="281.599609" xlink:href="#DejaVuSans-61"/>
     <use x="342.878906" xlink:href="#DejaVuSans-63"/>
     <use x="397.859375" xlink:href="#DejaVuSans-74"/>
     <use x="437.068359" xlink:href="#DejaVuSans-69"/>
     <use x="464.851562" xlink:href="#DejaVuSans-76"/>
     <use x="524.03125" xlink:href="#DejaVuSans-65"/>
     <use x="585.554688" xlink:href="#DejaVuSans-20"/>
     <use x="617.341797" xlink:href="#DejaVuSans-73"/>
     <use x="669.441406" xlink:href="#DejaVuSans-65"/>
     <use x="730.964844" xlink:href="#DejaVuSans-63"/>
     <use x="785.945312" xlink:href="#DejaVuSans-74"/>
     <use x="825.154297" xlink:href="#DejaVuSans-6f"/>
     <use x="886.335938" xlink:href="#DejaVuSans-72"/>
    </g>
   </g>
  </g>
 </g>
 <defs>
  <clipPath id="p8f4e215709">
   <rect height="271.296" width="303.2064" x="57.6" y="27.648"/>
  </clipPath>
 </defs>
</svg>
