<?xml version="1.0" encoding="utf-8" standalone="no"?>
<!DOCTYPE svg PUBLIC "-//W3C//DTD SVG 1.1//EN"
  "http://www.w3.org/Graphics/SVG/1.1/DTD/svg11.dtd">
<svg height="345.6pt" version="1.1" viewBox="0 0 460.8 345.6" width="460.8pt" xmlns="http://www.w3.org/2000/svg" xmlns:xlink="http://www.w3.org/1999/xlink">
 <metadata>
  <rdf:RDF xmlns:cc="http://creativecommons.org/ns#" xmlns:dc="http://purl.org/dc/elements/1.1/" xmlns:rdf="http://www.w3.org/1999/02/22-rdf-syntax-ns#">
   <cc:Work>
    <dc:type rdf:resource="http://purl.org/dc/dcmitype/StillImage"/>
    <dc:date>2022-05-07T21:25:15.968220</dc:date>
    <dc:format>image/svg+xml</dc:format>
    <dc:creator>
     <cc:Agent>
      <dc:title>Matplotlib v3.4.3, https://matplotlib.org/</dc:title>
     </cc:Agent>
    </dc:creator>
   </cc:Work>
  </rdf:RDF>
 </metadata>
 <defs>
  <style type="text/css">*{stroke-linecap:butt;stroke-linejoin:round;}</style>
 </defs>
 <g id="figure_1">
  <g id="patch_1">
   <path d="M 0 345.6 
L 460.8 345.6 
L 460.8 0 
L 0 0 
z
" style="fill:#ffffff;"/>
  </g>
  <g id="axes_1">
   <g id="patch_2">
    <path d="M 57.6 298.944 
L 360.8064 298.944 
L 360.8064 27.648 
L 57.6 27.648 
z
" style="fill:#ffffff;"/>
   </g>
   <g id="line2d_1">
    <path d="M 111.97238 298.944 
L 111.97238 293.624471 
L 112.989468 293.624471 
L 112.989468 288.304941 
L 113.954374 288.304941 
L 113.954374 282.985412 
L 118.64712 282.985412 
L 118.64712 277.665882 
L 121.789667 277.665882 
L 121.789667 272.346353 
L 126.028642 272.346353 
L 126.028642 267.026824 
L 127.610376 267.026824 
L 127.610376 261.707294 
L 128.928456 261.707294 
L 128.928456 256.387765 
L 129.348062 256.387765 
L 129.348062 251.068235 
L 130.938718 251.068235 
L 130.938718 245.748706 
L 131.440389 245.748706 
L 131.440389 240.429176 
L 131.808053 240.429176 
L 131.808053 235.109647 
L 132.168669 235.109647 
L 132.168669 229.790118 
L 132.405295 229.790118 
L 132.405295 224.470588 
L 132.984158 224.470588 
L 132.984158 219.151059 
L 133.323114 219.151059 
L 133.323114 213.831529 
L 133.765759 213.831529 
L 133.765759 208.512 
L 133.983236 208.512 
L 133.983236 203.192471 
L 134.198228 203.192471 
L 134.198228 197.872941 
L 134.41079 197.872941 
L 134.41079 192.553412 
L 134.620977 192.553412 
L 134.620977 187.233882 
L 135.136394 187.233882 
L 135.136394 181.914353 
L 135.338671 181.914353 
L 135.338671 176.594824 
L 135.638065 176.594824 
L 135.638065 171.275294 
L 135.835047 171.275294 
L 135.835047 165.955765 
L 136.029987 165.955765 
L 136.029987 160.636235 
L 136.222928 160.636235 
L 136.222928 155.316706 
L 136.508678 155.316706 
L 136.508678 149.997176 
L 136.790153 149.997176 
L 136.790153 144.677647 
L 136.97549 144.677647 
L 136.97549 139.358118 
L 137.250116 139.358118 
L 137.250116 134.038588 
L 137.430998 134.038588 
L 137.430998 128.719059 
L 137.699101 128.719059 
L 137.699101 123.399529 
L 137.875736 123.399529 
L 137.875736 118.08 
L 138.050729 118.08 
L 138.050729 112.760471 
L 138.224108 112.760471 
L 138.224108 107.440941 
L 138.395904 107.440941 
L 138.395904 102.121412 
L 138.73486 102.121412 
L 138.73486 96.801882 
L 138.902075 96.801882 
L 138.902075 91.482353 
L 139.067817 91.482353 
L 139.067817 86.162824 
L 139.232111 86.162824 
L 139.232111 80.843294 
L 139.394983 80.843294 
L 139.394983 75.523765 
L 139.636676 75.523765 
L 139.636676 70.204235 
L 139.796097 70.204235 
L 139.796097 64.884706 
L 140.032723 64.884706 
L 140.032723 59.565176 
L 140.188837 59.565176 
L 140.188837 54.245647 
L 140.343665 54.245647 
L 140.343665 48.926118 
L 140.49723 48.926118 
L 140.49723 43.606588 
L 140.725251 43.606588 
L 140.725251 38.287059 
L 140.950542 38.287059 
L 140.950542 32.967529 
L 141.099251 32.967529 
L 141.099251 27.648 
L 360.8064 27.648 
" style="fill:none;stroke:#f5deb3;stroke-linecap:square;stroke-width:4;"/>
   </g>
   <g id="line2d_2">
    <defs>
     <path d="M -0 7.778175 
L 7.778175 0 
L 0 -7.778175 
L -7.778175 -0 
z
" id="me05eef127a" style="stroke:#f5deb3;stroke-linejoin:miter;stroke-width:1.5;"/>
    </defs>
    <g>
     <use style="fill:#f5deb3;stroke:#f5deb3;stroke-linejoin:miter;stroke-width:1.5;" x="136.222928" xlink:href="#me05eef127a" y="155.316706"/>
     <use style="fill:#f5deb3;stroke:#f5deb3;stroke-linejoin:miter;stroke-width:1.5;" x="140.950542" xlink:href="#me05eef127a" y="38.287059"/>
     <use style="fill:#f5deb3;stroke:#f5deb3;stroke-linejoin:miter;stroke-width:1.5;" x="141.099251" xlink:href="#me05eef127a" y="27.648"/>
     <use style="fill:#f5deb3;stroke:#f5deb3;stroke-linejoin:miter;stroke-width:1.5;" x="141.099251" xlink:href="#me05eef127a" y="27.648"/>
     <use style="fill:#f5deb3;stroke:#f5deb3;stroke-linejoin:miter;stroke-width:1.5;" x="360.8064" xlink:href="#me05eef127a" y="27.648"/>
    </g>
   </g>
   <g id="line2d_3">
    <path style="fill:none;stroke:#f5deb3;stroke-linecap:square;stroke-width:4;"/>
    <g/>
   </g>
   <g id="line2d_4">
    <path d="M 360.8064 27.648 
L 380.514816 33.07392 
" style="fill:none;stroke:#f5deb3;stroke-linecap:square;stroke-width:4;"/>
    <g>
     <use style="fill:#f5deb3;stroke:#f5deb3;stroke-linejoin:miter;stroke-width:1.5;" x="360.8064" xlink:href="#me05eef127a" y="27.648"/>
     <use style="fill:#f5deb3;stroke:#f5deb3;stroke-linejoin:miter;stroke-width:1.5;" x="380.514816" xlink:href="#me05eef127a" y="33.07392"/>
    </g>
   </g>
   <g id="matplotlib.axis_1">
    <g id="xtick_1">
     <g id="line2d_5">
      <path clip-path="url(#p4c29d9da0b)" d="M 57.6 298.944 
L 57.6 27.648 
" style="fill:none;stroke:#b0b0b0;stroke-linecap:square;stroke-width:0.8;"/>
     </g>
     <g id="line2d_6">
      <defs>
       <path d="M 0 0 
L 0 3.5 
" id="m2c53a920fb" style="stroke:#000000;stroke-width:0.8;"/>
      </defs>
      <g>
       <use style="stroke:#000000;stroke-width:0.8;" x="57.6" xlink:href="#m2c53a920fb" y="298.944"/>
      </g>
     </g>
     <g id="text_1">
      <!-- 0 -->
      <g transform="translate(52.191875 318.861344)scale(0.17 -0.17)">
       <defs>
        <path d="M 2034 4250 
Q 1547 4250 1301 3770 
Q 1056 3291 1056 2328 
Q 1056 1369 1301 889 
Q 1547 409 2034 409 
Q 2525 409 2770 889 
Q 3016 1369 3016 2328 
Q 3016 3291 2770 3770 
Q 2525 4250 2034 4250 
z
M 2034 4750 
Q 2819 4750 3233 4129 
Q 3647 3509 3647 2328 
Q 3647 1150 3233 529 
Q 2819 -91 2034 -91 
Q 1250 -91 836 529 
Q 422 1150 422 2328 
Q 422 3509 836 4129 
Q 1250 4750 2034 4750 
z
" id="DejaVuSans-30" transform="scale(0.015625)"/>
       </defs>
       <use xlink:href="#DejaVuSans-30"/>
      </g>
     </g>
    </g>
    <g id="xtick_2">
     <g id="line2d_7">
      <path clip-path="url(#p4c29d9da0b)" d="M 144.2304 298.944 
L 144.2304 27.648 
" style="fill:none;stroke:#b0b0b0;stroke-linecap:square;stroke-width:0.8;"/>
     </g>
     <g id="line2d_8">
      <g>
       <use style="stroke:#000000;stroke-width:0.8;" x="144.2304" xlink:href="#m2c53a920fb" y="298.944"/>
      </g>
     </g>
     <g id="text_2">
      <!-- 2 -->
      <g transform="translate(138.822275 318.861344)scale(0.17 -0.17)">
       <defs>
        <path d="M 1228 531 
L 3431 531 
L 3431 0 
L 469 0 
L 469 531 
Q 828 903 1448 1529 
Q 2069 2156 2228 2338 
Q 2531 2678 2651 2914 
Q 2772 3150 2772 3378 
Q 2772 3750 2511 3984 
Q 2250 4219 1831 4219 
Q 1534 4219 1204 4116 
Q 875 4013 500 3803 
L 500 4441 
Q 881 4594 1212 4672 
Q 1544 4750 1819 4750 
Q 2544 4750 2975 4387 
Q 3406 4025 3406 3419 
Q 3406 3131 3298 2873 
Q 3191 2616 2906 2266 
Q 2828 2175 2409 1742 
Q 1991 1309 1228 531 
z
" id="DejaVuSans-32" transform="scale(0.015625)"/>
       </defs>
       <use xlink:href="#DejaVuSans-32"/>
      </g>
     </g>
    </g>
    <g id="xtick_3">
     <g id="line2d_9">
      <path clip-path="url(#p4c29d9da0b)" d="M 230.8608 298.944 
L 230.8608 27.648 
" style="fill:none;stroke:#b0b0b0;stroke-linecap:square;stroke-width:0.8;"/>
     </g>
     <g id="line2d_10">
      <g>
       <use style="stroke:#000000;stroke-width:0.8;" x="230.8608" xlink:href="#m2c53a920fb" y="298.944"/>
      </g>
     </g>
     <g id="text_3">
      <!-- 4 -->
      <g transform="translate(225.452675 318.861344)scale(0.17 -0.17)">
       <defs>
        <path d="M 2419 4116 
L 825 1625 
L 2419 1625 
L 2419 4116 
z
M 2253 4666 
L 3047 4666 
L 3047 1625 
L 3713 1625 
L 3713 1100 
L 3047 1100 
L 3047 0 
L 2419 0 
L 2419 1100 
L 313 1100 
L 313 1709 
L 2253 4666 
z
" id="DejaVuSans-34" transform="scale(0.015625)"/>
       </defs>
       <use xlink:href="#DejaVuSans-34"/>
      </g>
     </g>
    </g>
    <g id="xtick_4">
     <g id="line2d_11">
      <path clip-path="url(#p4c29d9da0b)" d="M 317.4912 298.944 
L 317.4912 27.648 
" style="fill:none;stroke:#b0b0b0;stroke-linecap:square;stroke-width:0.8;"/>
     </g>
     <g id="line2d_12">
      <g>
       <use style="stroke:#000000;stroke-width:0.8;" x="317.4912" xlink:href="#m2c53a920fb" y="298.944"/>
      </g>
     </g>
     <g id="text_4">
      <!-- 6 -->
      <g transform="translate(312.083075 318.861344)scale(0.17 -0.17)">
       <defs>
        <path d="M 2113 2584 
Q 1688 2584 1439 2293 
Q 1191 2003 1191 1497 
Q 1191 994 1439 701 
Q 1688 409 2113 409 
Q 2538 409 2786 701 
Q 3034 994 3034 1497 
Q 3034 2003 2786 2293 
Q 2538 2584 2113 2584 
z
M 3366 4563 
L 3366 3988 
Q 3128 4100 2886 4159 
Q 2644 4219 2406 4219 
Q 1781 4219 1451 3797 
Q 1122 3375 1075 2522 
Q 1259 2794 1537 2939 
Q 1816 3084 2150 3084 
Q 2853 3084 3261 2657 
Q 3669 2231 3669 1497 
Q 3669 778 3244 343 
Q 2819 -91 2113 -91 
Q 1303 -91 875 529 
Q 447 1150 447 2328 
Q 447 3434 972 4092 
Q 1497 4750 2381 4750 
Q 2619 4750 2861 4703 
Q 3103 4656 3366 4563 
z
" id="DejaVuSans-36" transform="scale(0.015625)"/>
       </defs>
       <use xlink:href="#DejaVuSans-36"/>
      </g>
     </g>
    </g>
    <g id="xtick_5">
     <g id="line2d_13">
      <path clip-path="url(#p4c29d9da0b)" d="M 100.9152 298.944 
L 100.9152 27.648 
" style="fill:none;stroke:#b0b0b0;stroke-linecap:square;stroke-width:0.8;"/>
     </g>
     <g id="line2d_14">
      <defs>
       <path d="M 0 0 
L 0 2 
" id="mde4a075fe7" style="stroke:#000000;stroke-width:0.6;"/>
      </defs>
      <g>
       <use style="stroke:#000000;stroke-width:0.6;" x="100.9152" xlink:href="#mde4a075fe7" y="298.944"/>
      </g>
     </g>
    </g>
    <g id="xtick_6">
     <g id="line2d_15">
      <path clip-path="url(#p4c29d9da0b)" d="M 187.5456 298.944 
L 187.5456 27.648 
" style="fill:none;stroke:#b0b0b0;stroke-linecap:square;stroke-width:0.8;"/>
     </g>
     <g id="line2d_16">
      <g>
       <use style="stroke:#000000;stroke-width:0.6;" x="187.5456" xlink:href="#mde4a075fe7" y="298.944"/>
      </g>
     </g>
    </g>
    <g id="xtick_7">
     <g id="line2d_17">
      <path clip-path="url(#p4c29d9da0b)" d="M 274.176 298.944 
L 274.176 27.648 
" style="fill:none;stroke:#b0b0b0;stroke-linecap:square;stroke-width:0.8;"/>
     </g>
     <g id="line2d_18">
      <g>
       <use style="stroke:#000000;stroke-width:0.6;" x="274.176" xlink:href="#mde4a075fe7" y="298.944"/>
      </g>
     </g>
    </g>
    <g id="xtick_8">
     <g id="line2d_19">
      <path clip-path="url(#p4c29d9da0b)" d="M 360.8064 298.944 
L 360.8064 27.648 
" style="fill:none;stroke:#b0b0b0;stroke-linecap:square;stroke-width:0.8;"/>
     </g>
     <g id="line2d_20">
      <g>
       <use style="stroke:#000000;stroke-width:0.6;" x="360.8064" xlink:href="#mde4a075fe7" y="298.944"/>
      </g>
     </g>
    </g>
    <g id="text_5">
     <!-- log10(# f-evals / dimension) -->
     <g transform="translate(88.823278 339.314156)scale(0.17 -0.17)">
      <defs>
       <path d="M 603 4863 
L 1178 4863 
L 1178 0 
L 603 0 
L 603 4863 
z
" id="DejaVuSans-6c" transform="scale(0.015625)"/>
       <path d="M 1959 3097 
Q 1497 3097 1228 2736 
Q 959 2375 959 1747 
Q 959 1119 1226 758 
Q 1494 397 1959 397 
Q 2419 397 2687 759 
Q 2956 1122 2956 1747 
Q 2956 2369 2687 2733 
Q 2419 3097 1959 3097 
z
M 1959 3584 
Q 2709 3584 3137 3096 
Q 3566 2609 3566 1747 
Q 3566 888 3137 398 
Q 2709 -91 1959 -91 
Q 1206 -91 779 398 
Q 353 888 353 1747 
Q 353 2609 779 3096 
Q 1206 3584 1959 3584 
z
" id="DejaVuSans-6f" transform="scale(0.015625)"/>
       <path d="M 2906 1791 
Q 2906 2416 2648 2759 
Q 2391 3103 1925 3103 
Q 1463 3103 1205 2759 
Q 947 2416 947 1791 
Q 947 1169 1205 825 
Q 1463 481 1925 481 
Q 2391 481 2648 825 
Q 2906 1169 2906 1791 
z
M 3481 434 
Q 3481 -459 3084 -895 
Q 2688 -1331 1869 -1331 
Q 1566 -1331 1297 -1286 
Q 1028 -1241 775 -1147 
L 775 -588 
Q 1028 -725 1275 -790 
Q 1522 -856 1778 -856 
Q 2344 -856 2625 -561 
Q 2906 -266 2906 331 
L 2906 616 
Q 2728 306 2450 153 
Q 2172 0 1784 0 
Q 1141 0 747 490 
Q 353 981 353 1791 
Q 353 2603 747 3093 
Q 1141 3584 1784 3584 
Q 2172 3584 2450 3431 
Q 2728 3278 2906 2969 
L 2906 3500 
L 3481 3500 
L 3481 434 
z
" id="DejaVuSans-67" transform="scale(0.015625)"/>
       <path d="M 794 531 
L 1825 531 
L 1825 4091 
L 703 3866 
L 703 4441 
L 1819 4666 
L 2450 4666 
L 2450 531 
L 3481 531 
L 3481 0 
L 794 0 
L 794 531 
z
" id="DejaVuSans-31" transform="scale(0.015625)"/>
       <path d="M 1984 4856 
Q 1566 4138 1362 3434 
Q 1159 2731 1159 2009 
Q 1159 1288 1364 580 
Q 1569 -128 1984 -844 
L 1484 -844 
Q 1016 -109 783 600 
Q 550 1309 550 2009 
Q 550 2706 781 3412 
Q 1013 4119 1484 4856 
L 1984 4856 
z
" id="DejaVuSans-28" transform="scale(0.015625)"/>
       <path d="M 3272 2816 
L 2363 2816 
L 2100 1772 
L 3016 1772 
L 3272 2816 
z
M 2803 4594 
L 2478 3297 
L 3391 3297 
L 3719 4594 
L 4219 4594 
L 3897 3297 
L 4872 3297 
L 4872 2816 
L 3775 2816 
L 3519 1772 
L 4513 1772 
L 4513 1294 
L 3397 1294 
L 3072 0 
L 2572 0 
L 2894 1294 
L 1978 1294 
L 1656 0 
L 1153 0 
L 1478 1294 
L 494 1294 
L 494 1772 
L 1594 1772 
L 1856 2816 
L 850 2816 
L 850 3297 
L 1978 3297 
L 2297 4594 
L 2803 4594 
z
" id="DejaVuSans-23" transform="scale(0.015625)"/>
       <path id="DejaVuSans-20" transform="scale(0.015625)"/>
       <path d="M 2375 4863 
L 2375 4384 
L 1825 4384 
Q 1516 4384 1395 4259 
Q 1275 4134 1275 3809 
L 1275 3500 
L 2222 3500 
L 2222 3053 
L 1275 3053 
L 1275 0 
L 697 0 
L 697 3053 
L 147 3053 
L 147 3500 
L 697 3500 
L 697 3744 
Q 697 4328 969 4595 
Q 1241 4863 1831 4863 
L 2375 4863 
z
" id="DejaVuSans-66" transform="scale(0.015625)"/>
       <path d="M 313 2009 
L 1997 2009 
L 1997 1497 
L 313 1497 
L 313 2009 
z
" id="DejaVuSans-2d" transform="scale(0.015625)"/>
       <path d="M 3597 1894 
L 3597 1613 
L 953 1613 
Q 991 1019 1311 708 
Q 1631 397 2203 397 
Q 2534 397 2845 478 
Q 3156 559 3463 722 
L 3463 178 
Q 3153 47 2828 -22 
Q 2503 -91 2169 -91 
Q 1331 -91 842 396 
Q 353 884 353 1716 
Q 353 2575 817 3079 
Q 1281 3584 2069 3584 
Q 2775 3584 3186 3129 
Q 3597 2675 3597 1894 
z
M 3022 2063 
Q 3016 2534 2758 2815 
Q 2500 3097 2075 3097 
Q 1594 3097 1305 2825 
Q 1016 2553 972 2059 
L 3022 2063 
z
" id="DejaVuSans-65" transform="scale(0.015625)"/>
       <path d="M 191 3500 
L 800 3500 
L 1894 563 
L 2988 3500 
L 3597 3500 
L 2284 0 
L 1503 0 
L 191 3500 
z
" id="DejaVuSans-76" transform="scale(0.015625)"/>
       <path d="M 2194 1759 
Q 1497 1759 1228 1600 
Q 959 1441 959 1056 
Q 959 750 1161 570 
Q 1363 391 1709 391 
Q 2188 391 2477 730 
Q 2766 1069 2766 1631 
L 2766 1759 
L 2194 1759 
z
M 3341 1997 
L 3341 0 
L 2766 0 
L 2766 531 
Q 2569 213 2275 61 
Q 1981 -91 1556 -91 
Q 1019 -91 701 211 
Q 384 513 384 1019 
Q 384 1609 779 1909 
Q 1175 2209 1959 2209 
L 2766 2209 
L 2766 2266 
Q 2766 2663 2505 2880 
Q 2244 3097 1772 3097 
Q 1472 3097 1187 3025 
Q 903 2953 641 2809 
L 641 3341 
Q 956 3463 1253 3523 
Q 1550 3584 1831 3584 
Q 2591 3584 2966 3190 
Q 3341 2797 3341 1997 
z
" id="DejaVuSans-61" transform="scale(0.015625)"/>
       <path d="M 2834 3397 
L 2834 2853 
Q 2591 2978 2328 3040 
Q 2066 3103 1784 3103 
Q 1356 3103 1142 2972 
Q 928 2841 928 2578 
Q 928 2378 1081 2264 
Q 1234 2150 1697 2047 
L 1894 2003 
Q 2506 1872 2764 1633 
Q 3022 1394 3022 966 
Q 3022 478 2636 193 
Q 2250 -91 1575 -91 
Q 1294 -91 989 -36 
Q 684 19 347 128 
L 347 722 
Q 666 556 975 473 
Q 1284 391 1588 391 
Q 1994 391 2212 530 
Q 2431 669 2431 922 
Q 2431 1156 2273 1281 
Q 2116 1406 1581 1522 
L 1381 1569 
Q 847 1681 609 1914 
Q 372 2147 372 2553 
Q 372 3047 722 3315 
Q 1072 3584 1716 3584 
Q 2034 3584 2315 3537 
Q 2597 3491 2834 3397 
z
" id="DejaVuSans-73" transform="scale(0.015625)"/>
       <path d="M 1625 4666 
L 2156 4666 
L 531 -594 
L 0 -594 
L 1625 4666 
z
" id="DejaVuSans-2f" transform="scale(0.015625)"/>
       <path d="M 2906 2969 
L 2906 4863 
L 3481 4863 
L 3481 0 
L 2906 0 
L 2906 525 
Q 2725 213 2448 61 
Q 2172 -91 1784 -91 
Q 1150 -91 751 415 
Q 353 922 353 1747 
Q 353 2572 751 3078 
Q 1150 3584 1784 3584 
Q 2172 3584 2448 3432 
Q 2725 3281 2906 2969 
z
M 947 1747 
Q 947 1113 1208 752 
Q 1469 391 1925 391 
Q 2381 391 2643 752 
Q 2906 1113 2906 1747 
Q 2906 2381 2643 2742 
Q 2381 3103 1925 3103 
Q 1469 3103 1208 2742 
Q 947 2381 947 1747 
z
" id="DejaVuSans-64" transform="scale(0.015625)"/>
       <path d="M 603 3500 
L 1178 3500 
L 1178 0 
L 603 0 
L 603 3500 
z
M 603 4863 
L 1178 4863 
L 1178 4134 
L 603 4134 
L 603 4863 
z
" id="DejaVuSans-69" transform="scale(0.015625)"/>
       <path d="M 3328 2828 
Q 3544 3216 3844 3400 
Q 4144 3584 4550 3584 
Q 5097 3584 5394 3201 
Q 5691 2819 5691 2113 
L 5691 0 
L 5113 0 
L 5113 2094 
Q 5113 2597 4934 2840 
Q 4756 3084 4391 3084 
Q 3944 3084 3684 2787 
Q 3425 2491 3425 1978 
L 3425 0 
L 2847 0 
L 2847 2094 
Q 2847 2600 2669 2842 
Q 2491 3084 2119 3084 
Q 1678 3084 1418 2786 
Q 1159 2488 1159 1978 
L 1159 0 
L 581 0 
L 581 3500 
L 1159 3500 
L 1159 2956 
Q 1356 3278 1631 3431 
Q 1906 3584 2284 3584 
Q 2666 3584 2933 3390 
Q 3200 3197 3328 2828 
z
" id="DejaVuSans-6d" transform="scale(0.015625)"/>
       <path d="M 3513 2113 
L 3513 0 
L 2938 0 
L 2938 2094 
Q 2938 2591 2744 2837 
Q 2550 3084 2163 3084 
Q 1697 3084 1428 2787 
Q 1159 2491 1159 1978 
L 1159 0 
L 581 0 
L 581 3500 
L 1159 3500 
L 1159 2956 
Q 1366 3272 1645 3428 
Q 1925 3584 2291 3584 
Q 2894 3584 3203 3211 
Q 3513 2838 3513 2113 
z
" id="DejaVuSans-6e" transform="scale(0.015625)"/>
       <path d="M 513 4856 
L 1013 4856 
Q 1481 4119 1714 3412 
Q 1947 2706 1947 2009 
Q 1947 1309 1714 600 
Q 1481 -109 1013 -844 
L 513 -844 
Q 928 -128 1133 580 
Q 1338 1288 1338 2009 
Q 1338 2731 1133 3434 
Q 928 4138 513 4856 
z
" id="DejaVuSans-29" transform="scale(0.015625)"/>
      </defs>
      <use xlink:href="#DejaVuSans-6c"/>
      <use x="27.783203" xlink:href="#DejaVuSans-6f"/>
      <use x="88.964844" xlink:href="#DejaVuSans-67"/>
      <use x="152.441406" xlink:href="#DejaVuSans-31"/>
      <use x="216.064453" xlink:href="#DejaVuSans-30"/>
      <use x="279.6875" xlink:href="#DejaVuSans-28"/>
      <use x="318.701172" xlink:href="#DejaVuSans-23"/>
      <use x="402.490234" xlink:href="#DejaVuSans-20"/>
      <use x="434.277344" xlink:href="#DejaVuSans-66"/>
      <use x="463.982422" xlink:href="#DejaVuSans-2d"/>
      <use x="500.066406" xlink:href="#DejaVuSans-65"/>
      <use x="561.589844" xlink:href="#DejaVuSans-76"/>
      <use x="620.769531" xlink:href="#DejaVuSans-61"/>
      <use x="682.048828" xlink:href="#DejaVuSans-6c"/>
      <use x="709.832031" xlink:href="#DejaVuSans-73"/>
      <use x="761.931641" xlink:href="#DejaVuSans-20"/>
      <use x="793.71875" xlink:href="#DejaVuSans-2f"/>
      <use x="827.410156" xlink:href="#DejaVuSans-20"/>
      <use x="859.197266" xlink:href="#DejaVuSans-64"/>
      <use x="922.673828" xlink:href="#DejaVuSans-69"/>
      <use x="950.457031" xlink:href="#DejaVuSans-6d"/>
      <use x="1047.869141" xlink:href="#DejaVuSans-65"/>
      <use x="1109.392578" xlink:href="#DejaVuSans-6e"/>
      <use x="1172.771484" xlink:href="#DejaVuSans-73"/>
      <use x="1224.871094" xlink:href="#DejaVuSans-69"/>
      <use x="1252.654297" xlink:href="#DejaVuSans-6f"/>
      <use x="1313.835938" xlink:href="#DejaVuSans-6e"/>
      <use x="1377.214844" xlink:href="#DejaVuSans-29"/>
     </g>
    </g>
   </g>
   <g id="matplotlib.axis_2">
    <g id="ytick_1">
     <g id="line2d_21">
      <path clip-path="url(#p4c29d9da0b)" d="M 57.6 298.944 
L 360.8064 298.944 
" style="fill:none;stroke:#b0b0b0;stroke-linecap:square;stroke-width:0.8;"/>
     </g>
     <g id="line2d_22">
      <defs>
       <path d="M 0 0 
L -3.5 0 
" id="mfaf739ffff" style="stroke:#000000;stroke-width:0.8;"/>
      </defs>
      <g>
       <use style="stroke:#000000;stroke-width:0.8;" x="57.6" xlink:href="#mfaf739ffff" y="298.944"/>
      </g>
     </g>
     <g id="text_6">
      <!-- 0.0 -->
      <g transform="translate(25.155 305.02275)scale(0.16 -0.16)">
       <defs>
        <path d="M 684 794 
L 1344 794 
L 1344 0 
L 684 0 
L 684 794 
z
" id="DejaVuSans-2e" transform="scale(0.015625)"/>
       </defs>
       <use xlink:href="#DejaVuSans-30"/>
       <use x="63.623047" xlink:href="#DejaVuSans-2e"/>
       <use x="95.410156" xlink:href="#DejaVuSans-30"/>
      </g>
     </g>
    </g>
    <g id="ytick_2">
     <g id="line2d_23">
      <path clip-path="url(#p4c29d9da0b)" d="M 57.6 244.6848 
L 360.8064 244.6848 
" style="fill:none;stroke:#b0b0b0;stroke-linecap:square;stroke-width:0.8;"/>
     </g>
     <g id="line2d_24">
      <g>
       <use style="stroke:#000000;stroke-width:0.8;" x="57.6" xlink:href="#mfaf739ffff" y="244.6848"/>
      </g>
     </g>
     <g id="text_7">
      <!-- 0.2 -->
      <g transform="translate(25.155 250.76355)scale(0.16 -0.16)">
       <use xlink:href="#DejaVuSans-30"/>
       <use x="63.623047" xlink:href="#DejaVuSans-2e"/>
       <use x="95.410156" xlink:href="#DejaVuSans-32"/>
      </g>
     </g>
    </g>
    <g id="ytick_3">
     <g id="line2d_25">
      <path clip-path="url(#p4c29d9da0b)" d="M 57.6 190.4256 
L 360.8064 190.4256 
" style="fill:none;stroke:#b0b0b0;stroke-linecap:square;stroke-width:0.8;"/>
     </g>
     <g id="line2d_26">
      <g>
       <use style="stroke:#000000;stroke-width:0.8;" x="57.6" xlink:href="#mfaf739ffff" y="190.4256"/>
      </g>
     </g>
     <g id="text_8">
      <!-- 0.4 -->
      <g transform="translate(25.155 196.50435)scale(0.16 -0.16)">
       <use xlink:href="#DejaVuSans-30"/>
       <use x="63.623047" xlink:href="#DejaVuSans-2e"/>
       <use x="95.410156" xlink:href="#DejaVuSans-34"/>
      </g>
     </g>
    </g>
    <g id="ytick_4">
     <g id="line2d_27">
      <path clip-path="url(#p4c29d9da0b)" d="M 57.6 136.1664 
L 360.8064 136.1664 
" style="fill:none;stroke:#b0b0b0;stroke-linecap:square;stroke-width:0.8;"/>
     </g>
     <g id="line2d_28">
      <g>
       <use style="stroke:#000000;stroke-width:0.8;" x="57.6" xlink:href="#mfaf739ffff" y="136.1664"/>
      </g>
     </g>
     <g id="text_9">
      <!-- 0.6 -->
      <g transform="translate(25.155 142.24515)scale(0.16 -0.16)">
       <use xlink:href="#DejaVuSans-30"/>
       <use x="63.623047" xlink:href="#DejaVuSans-2e"/>
       <use x="95.410156" xlink:href="#DejaVuSans-36"/>
      </g>
     </g>
    </g>
    <g id="ytick_5">
     <g id="line2d_29">
      <path clip-path="url(#p4c29d9da0b)" d="M 57.6 81.9072 
L 360.8064 81.9072 
" style="fill:none;stroke:#b0b0b0;stroke-linecap:square;stroke-width:0.8;"/>
     </g>
     <g id="line2d_30">
      <g>
       <use style="stroke:#000000;stroke-width:0.8;" x="57.6" xlink:href="#mfaf739ffff" y="81.9072"/>
      </g>
     </g>
     <g id="text_10">
      <!-- 0.8 -->
      <g transform="translate(25.155 87.98595)scale(0.16 -0.16)">
       <defs>
        <path d="M 2034 2216 
Q 1584 2216 1326 1975 
Q 1069 1734 1069 1313 
Q 1069 891 1326 650 
Q 1584 409 2034 409 
Q 2484 409 2743 651 
Q 3003 894 3003 1313 
Q 3003 1734 2745 1975 
Q 2488 2216 2034 2216 
z
M 1403 2484 
Q 997 2584 770 2862 
Q 544 3141 544 3541 
Q 544 4100 942 4425 
Q 1341 4750 2034 4750 
Q 2731 4750 3128 4425 
Q 3525 4100 3525 3541 
Q 3525 3141 3298 2862 
Q 3072 2584 2669 2484 
Q 3125 2378 3379 2068 
Q 3634 1759 3634 1313 
Q 3634 634 3220 271 
Q 2806 -91 2034 -91 
Q 1263 -91 848 271 
Q 434 634 434 1313 
Q 434 1759 690 2068 
Q 947 2378 1403 2484 
z
M 1172 3481 
Q 1172 3119 1398 2916 
Q 1625 2713 2034 2713 
Q 2441 2713 2670 2916 
Q 2900 3119 2900 3481 
Q 2900 3844 2670 4047 
Q 2441 4250 2034 4250 
Q 1625 4250 1398 4047 
Q 1172 3844 1172 3481 
z
" id="DejaVuSans-38" transform="scale(0.015625)"/>
       </defs>
       <use xlink:href="#DejaVuSans-30"/>
       <use x="63.623047" xlink:href="#DejaVuSans-2e"/>
       <use x="95.410156" xlink:href="#DejaVuSans-38"/>
      </g>
     </g>
    </g>
    <g id="ytick_6">
     <g id="line2d_31">
      <path clip-path="url(#p4c29d9da0b)" d="M 57.6 27.648 
L 360.8064 27.648 
" style="fill:none;stroke:#b0b0b0;stroke-linecap:square;stroke-width:0.8;"/>
     </g>
     <g id="line2d_32">
      <g>
       <use style="stroke:#000000;stroke-width:0.8;" x="57.6" xlink:href="#mfaf739ffff" y="27.648"/>
      </g>
     </g>
     <g id="text_11">
      <!-- 1.0 -->
      <g transform="translate(25.155 33.72675)scale(0.16 -0.16)">
       <use xlink:href="#DejaVuSans-31"/>
       <use x="63.623047" xlink:href="#DejaVuSans-2e"/>
       <use x="95.410156" xlink:href="#DejaVuSans-30"/>
      </g>
     </g>
    </g>
    <g id="text_12">
     <!-- Fraction of function,target pairs -->
     <g transform="translate(17.619531 297.681)rotate(-90)scale(0.17 -0.17)">
      <defs>
       <path d="M 628 4666 
L 3309 4666 
L 3309 4134 
L 1259 4134 
L 1259 2759 
L 3109 2759 
L 3109 2228 
L 1259 2228 
L 1259 0 
L 628 0 
L 628 4666 
z
" id="DejaVuSans-46" transform="scale(0.015625)"/>
       <path d="M 2631 2963 
Q 2534 3019 2420 3045 
Q 2306 3072 2169 3072 
Q 1681 3072 1420 2755 
Q 1159 2438 1159 1844 
L 1159 0 
L 581 0 
L 581 3500 
L 1159 3500 
L 1159 2956 
Q 1341 3275 1631 3429 
Q 1922 3584 2338 3584 
Q 2397 3584 2469 3576 
Q 2541 3569 2628 3553 
L 2631 2963 
z
" id="DejaVuSans-72" transform="scale(0.015625)"/>
       <path d="M 3122 3366 
L 3122 2828 
Q 2878 2963 2633 3030 
Q 2388 3097 2138 3097 
Q 1578 3097 1268 2742 
Q 959 2388 959 1747 
Q 959 1106 1268 751 
Q 1578 397 2138 397 
Q 2388 397 2633 464 
Q 2878 531 3122 666 
L 3122 134 
Q 2881 22 2623 -34 
Q 2366 -91 2075 -91 
Q 1284 -91 818 406 
Q 353 903 353 1747 
Q 353 2603 823 3093 
Q 1294 3584 2113 3584 
Q 2378 3584 2631 3529 
Q 2884 3475 3122 3366 
z
" id="DejaVuSans-63" transform="scale(0.015625)"/>
       <path d="M 1172 4494 
L 1172 3500 
L 2356 3500 
L 2356 3053 
L 1172 3053 
L 1172 1153 
Q 1172 725 1289 603 
Q 1406 481 1766 481 
L 2356 481 
L 2356 0 
L 1766 0 
Q 1100 0 847 248 
Q 594 497 594 1153 
L 594 3053 
L 172 3053 
L 172 3500 
L 594 3500 
L 594 4494 
L 1172 4494 
z
" id="DejaVuSans-74" transform="scale(0.015625)"/>
       <path d="M 544 1381 
L 544 3500 
L 1119 3500 
L 1119 1403 
Q 1119 906 1312 657 
Q 1506 409 1894 409 
Q 2359 409 2629 706 
Q 2900 1003 2900 1516 
L 2900 3500 
L 3475 3500 
L 3475 0 
L 2900 0 
L 2900 538 
Q 2691 219 2414 64 
Q 2138 -91 1772 -91 
Q 1169 -91 856 284 
Q 544 659 544 1381 
z
M 1991 3584 
L 1991 3584 
z
" id="DejaVuSans-75" transform="scale(0.015625)"/>
       <path d="M 750 794 
L 1409 794 
L 1409 256 
L 897 -744 
L 494 -744 
L 750 256 
L 750 794 
z
" id="DejaVuSans-2c" transform="scale(0.015625)"/>
       <path d="M 1159 525 
L 1159 -1331 
L 581 -1331 
L 581 3500 
L 1159 3500 
L 1159 2969 
Q 1341 3281 1617 3432 
Q 1894 3584 2278 3584 
Q 2916 3584 3314 3078 
Q 3713 2572 3713 1747 
Q 3713 922 3314 415 
Q 2916 -91 2278 -91 
Q 1894 -91 1617 61 
Q 1341 213 1159 525 
z
M 3116 1747 
Q 3116 2381 2855 2742 
Q 2594 3103 2138 3103 
Q 1681 3103 1420 2742 
Q 1159 2381 1159 1747 
Q 1159 1113 1420 752 
Q 1681 391 2138 391 
Q 2594 391 2855 752 
Q 3116 1113 3116 1747 
z
" id="DejaVuSans-70" transform="scale(0.015625)"/>
      </defs>
      <use xlink:href="#DejaVuSans-46"/>
      <use x="50.269531" xlink:href="#DejaVuSans-72"/>
      <use x="91.382812" xlink:href="#DejaVuSans-61"/>
      <use x="152.662109" xlink:href="#DejaVuSans-63"/>
      <use x="207.642578" xlink:href="#DejaVuSans-74"/>
      <use x="246.851562" xlink:href="#DejaVuSans-69"/>
      <use x="274.634766" xlink:href="#DejaVuSans-6f"/>
      <use x="335.816406" xlink:href="#DejaVuSans-6e"/>
      <use x="399.195312" xlink:href="#DejaVuSans-20"/>
      <use x="430.982422" xlink:href="#DejaVuSans-6f"/>
      <use x="492.164062" xlink:href="#DejaVuSans-66"/>
      <use x="527.369141" xlink:href="#DejaVuSans-20"/>
      <use x="559.15625" xlink:href="#DejaVuSans-66"/>
      <use x="594.361328" xlink:href="#DejaVuSans-75"/>
      <use x="657.740234" xlink:href="#DejaVuSans-6e"/>
      <use x="721.119141" xlink:href="#DejaVuSans-63"/>
      <use x="776.099609" xlink:href="#DejaVuSans-74"/>
      <use x="815.308594" xlink:href="#DejaVuSans-69"/>
      <use x="843.091797" xlink:href="#DejaVuSans-6f"/>
      <use x="904.273438" xlink:href="#DejaVuSans-6e"/>
      <use x="967.652344" xlink:href="#DejaVuSans-2c"/>
      <use x="999.439453" xlink:href="#DejaVuSans-74"/>
      <use x="1038.648438" xlink:href="#DejaVuSans-61"/>
      <use x="1099.927734" xlink:href="#DejaVuSans-72"/>
      <use x="1139.291016" xlink:href="#DejaVuSans-67"/>
      <use x="1202.767578" xlink:href="#DejaVuSans-65"/>
      <use x="1264.291016" xlink:href="#DejaVuSans-74"/>
      <use x="1303.5" xlink:href="#DejaVuSans-20"/>
      <use x="1335.287109" xlink:href="#DejaVuSans-70"/>
      <use x="1398.763672" xlink:href="#DejaVuSans-61"/>
      <use x="1460.042969" xlink:href="#DejaVuSans-69"/>
      <use x="1487.826172" xlink:href="#DejaVuSans-72"/>
      <use x="1528.939453" xlink:href="#DejaVuSans-73"/>
     </g>
    </g>
   </g>
   <g id="line2d_33">
    <defs>
     <path d="M 0 1.5 
C 0.397805 1.5 0.77937 1.341951 1.06066 1.06066 
C 1.341951 0.77937 1.5 0.397805 1.5 0 
C 1.5 -0.397805 1.341951 -0.77937 1.06066 -1.06066 
C 0.77937 -1.341951 0.397805 -1.5 0 -1.5 
C -0.397805 -1.5 -0.77937 -1.341951 -1.06066 -1.06066 
C -1.341951 -0.77937 -1.5 -0.397805 -1.5 0 
C -1.5 0.397805 -1.341951 0.77937 -1.06066 1.06066 
C -0.77937 1.341951 -0.397805 1.5 0 1.5 
z
" id="m7597b4141f" style="stroke:#f5deb3;"/>
    </defs>
    <g>
     <use style="fill:#f5deb3;stroke:#f5deb3;" x="141.099251" xlink:href="#m7597b4141f" y="27.648"/>
     <use style="fill:#f5deb3;stroke:#f5deb3;" x="141.099251" xlink:href="#m7597b4141f" y="27.648"/>
    </g>
   </g>
   <g id="line2d_34">
    <defs>
     <path d="M 0 1.5 
C 0.397805 1.5 0.77937 1.341951 1.06066 1.06066 
C 1.341951 0.77937 1.5 0.397805 1.5 0 
C 1.5 -0.397805 1.341951 -0.77937 1.06066 -1.06066 
C 0.77937 -1.341951 0.397805 -1.5 0 -1.5 
C -0.397805 -1.5 -0.77937 -1.341951 -1.06066 -1.06066 
C -1.341951 -0.77937 -1.5 -0.397805 -1.5 0 
C -1.5 0.397805 -1.341951 0.77937 -1.06066 1.06066 
C -0.77937 1.341951 -0.397805 1.5 0 1.5 
z
" id="m4ab8422507" style="stroke:#000080;"/>
    </defs>
    <g>
     <use style="fill:#000080;stroke:#000080;" x="248.481723" xlink:href="#m4ab8422507" y="27.648"/>
     <use style="fill:#000080;stroke:#000080;" x="248.481723" xlink:href="#m4ab8422507" y="27.648"/>
    </g>
   </g>
   <g id="line2d_35">
    <path d="M 161.290852 298.944 
L 161.290852 298.589365 
L 169.880655 298.589365 
L 169.880655 298.234729 
L 171.061619 298.234729 
L 171.061619 297.880094 
L 176.104537 297.880094 
L 176.104537 297.170824 
L 176.514738 297.170824 
L 176.514738 296.106918 
L 176.805529 296.106918 
L 176.805529 295.752282 
L 177.967504 295.752282 
L 177.967504 295.043012 
L 180.188981 295.043012 
L 180.188981 292.9152 
L 180.538033 292.9152 
L 180.538033 292.560565 
L 182.125491 292.560565 
L 182.125491 291.142024 
L 183.418335 291.142024 
L 183.418335 290.432753 
L 183.957164 290.432753 
L 184.048005 287.950306 
L 184.288124 287.950306 
L 184.392219 287.241035 
L 185.33227 287.241035 
L 185.33227 286.531765 
L 185.528737 286.531765 
L 185.528737 285.822494 
L 186.106119 285.822494 
L 186.160194 285.113224 
L 186.254454 285.113224 
L 186.254454 284.049318 
L 186.534433 284.049318 
L 186.534433 283.340047 
L 187.426081 283.340047 
L 187.426081 282.630776 
L 188.180623 282.630776 
L 188.180623 280.502965 
L 188.623973 280.502965 
L 188.623973 279.793694 
L 189.13795 279.793694 
L 189.13795 279.084424 
L 189.638257 279.084424 
L 189.638257 278.375153 
L 189.794695 278.375153 
L 189.794695 277.311247 
L 189.960876 277.311247 
L 189.960876 276.247341 
L 190.299733 276.247341 
L 190.299733 275.538071 
L 190.653869 275.538071 
L 190.653869 275.183435 
L 191.798376 275.183435 
L 191.798376 274.8288 
L 192.763533 274.8288 
L 192.763533 274.474165 
L 192.980846 274.474165 
L 192.980846 272.346353 
L 193.214243 272.346353 
L 193.214243 271.991718 
L 193.888597 271.991718 
L 193.888597 271.637082 
L 194.357142 271.637082 
L 194.452942 269.154635 
L 194.625883 269.154635 
L 194.625883 267.736094 
L 195.034568 267.736094 
L 195.034568 267.381459 
L 195.177208 267.381459 
L 195.177208 267.026824 
L 196.114719 267.026824 
L 196.114719 265.608282 
L 196.257322 265.608282 
L 196.257322 264.899012 
L 196.492616 264.899012 
L 196.492616 264.544376 
L 196.755773 264.544376 
L 196.755773 264.189741 
L 197.707417 264.189741 
L 197.707417 263.480471 
L 197.85299 263.480471 
L 197.85299 262.7712 
L 198.261797 262.7712 
L 198.261797 261.707294 
L 198.431303 261.707294 
L 198.431303 260.998024 
L 198.543465 260.998024 
L 198.543465 259.934118 
L 198.889721 259.934118 
L 198.889721 258.870212 
L 199.510643 258.870212 
L 199.510643 258.515576 
L 200.040857 258.515576 
L 200.040857 257.806306 
L 200.812267 257.806306 
L 200.812267 257.097035 
L 201.052339 257.097035 
L 201.162117 255.323859 
L 201.198568 255.323859 
L 201.198568 254.259953 
L 201.463736 254.259953 
L 201.565194 252.841412 
L 201.636484 252.841412 
L 201.695686 251.422871 
L 202.12231 251.422871 
L 202.12231 251.068235 
L 202.254746 251.068235 
L 202.254746 250.7136 
L 202.511193 250.7136 
L 202.511193 250.358965 
L 202.674626 250.358965 
L 202.725059 249.649694 
L 203.368675 249.649694 
L 203.422677 247.521882 
L 203.801697 247.521882 
L 203.801697 247.167247 
L 204.136925 247.167247 
L 204.235306 246.457976 
L 204.338313 246.457976 
L 204.338313 245.394071 
L 204.51214 245.394071 
L 204.51214 244.6848 
L 204.719641 244.6848 
L 204.74479 242.556988 
L 205.103259 242.556988 
L 205.103259 241.847718 
L 205.411411 241.847718 
L 205.411411 240.783812 
L 205.575642 240.783812 
L 205.575642 240.429176 
L 206.329807 240.429176 
L 206.329807 240.074541 
L 206.559415 240.074541 
L 206.559415 237.946729 
L 206.889689 237.946729 
L 206.889689 237.592094 
L 207.214264 237.592094 
L 207.240694 236.173553 
L 207.332908 236.173553 
L 207.350421 234.755012 
L 207.524664 234.755012 
L 207.524664 234.400376 
L 207.680115 234.400376 
L 207.705899 233.336471 
L 207.957576 233.336471 
L 207.957576 232.981835 
L 208.384892 232.981835 
L 208.409728 229.790118 
L 208.903723 229.790118 
L 209.000183 228.726212 
L 209.028224 228.726212 
L 209.108112 226.5984 
L 209.310303 226.5984 
L 209.310303 226.243765 
L 209.428232 226.243765 
L 209.533739 225.179859 
L 209.685102 225.179859 
L 209.685102 224.470588 
L 209.976611 224.470588 
L 210.056369 222.697412 
L 210.21112 222.697412 
L 210.24492 221.278871 
L 210.843159 221.278871 
L 210.883099 220.214965 
L 211.092298 220.214965 
L 211.092298 219.860329 
L 211.594866 219.860329 
L 211.594866 218.441788 
L 211.841203 218.441788 
L 211.879081 217.023247 
L 212.005932 217.023247 
L 212.005932 214.895435 
L 212.165843 214.895435 
L 212.165843 213.831529 
L 212.696957 213.831529 
L 212.696957 213.122259 
L 212.824972 213.122259 
L 212.880502 211.703718 
L 213.010518 211.703718 
L 213.049348 210.285176 
L 213.184625 210.285176 
L 213.245504 207.802729 
L 213.302998 207.802729 
L 213.302998 206.738824 
L 213.493384 206.738824 
L 213.591 204.256376 
L 214.016436 204.256376 
L 214.093043 202.837835 
L 214.402406 202.837835 
L 214.402406 202.4832 
L 214.626676 202.4832 
L 214.727471 199.291482 
L 214.783563 199.291482 
L 214.783563 198.936847 
L 214.912822 198.936847 
L 214.959606 197.518306 
L 215.15426 197.518306 
L 215.183141 195.745129 
L 215.512123 195.745129 
L 215.594183 193.971953 
L 215.827085 193.971953 
L 215.905009 193.262682 
L 216.04336 193.262682 
L 216.048873 191.844141 
L 216.164274 191.844141 
L 216.235359 187.588518 
L 216.352336 187.588518 
L 216.43352 186.169976 
L 216.476675 186.169976 
L 216.58681 185.106071 
L 216.6109 185.106071 
L 216.6109 182.623624 
L 216.783973 182.623624 
L 216.805164 181.205082 
L 217.015778 181.205082 
L 217.015778 179.077271 
L 217.435182 179.077271 
L 217.488871 178.013365 
L 217.802805 178.013365 
L 217.802805 177.658729 
L 217.922935 177.658729 
L 217.922935 176.594824 
L 218.069551 176.594824 
L 218.106645 174.821647 
L 218.391061 174.821647 
L 218.391061 173.048471 
L 218.616019 173.048471 
L 218.673638 170.566024 
L 218.824055 170.566024 
L 218.921303 168.438212 
L 219.03452 168.438212 
L 219.03452 166.665035 
L 219.390915 166.665035 
L 219.413976 165.955765 
L 219.606576 165.955765 
L 219.661244 163.118682 
L 219.758796 163.118682 
L 219.758796 161.345506 
L 220.09074 161.345506 
L 220.177245 158.863059 
L 220.623364 158.863059 
L 220.726813 154.962071 
L 220.859599 154.962071 
L 220.923515 153.543529 
L 221.092903 153.543529 
L 221.137116 149.642541 
L 221.379485 149.642541 
L 221.464409 147.514729 
L 221.528366 147.514729 
L 221.606469 146.805459 
L 221.883369 146.805459 
L 221.883369 146.450824 
L 222.042363 146.450824 
L 222.138316 145.032282 
L 222.229813 145.032282 
L 222.229813 143.613741 
L 222.342575 143.613741 
L 222.34652 142.904471 
L 222.581679 142.904471 
L 222.649718 140.776659 
L 222.995793 140.776659 
L 223.092701 139.003482 
L 223.162696 139.003482 
L 223.271896 137.230306 
L 223.527345 137.230306 
L 223.577282 133.683953 
L 223.691454 133.683953 
L 223.691454 132.974682 
L 224.069497 132.974682 
L 224.175361 131.910776 
L 224.252143 131.910776 
L 224.305527 131.201506 
L 224.376471 131.201506 
L 224.378241 128.719059 
L 224.494705 128.719059 
L 224.494705 128.009788 
L 224.633168 128.009788 
L 224.647133 125.881976 
L 224.810448 125.881976 
L 224.810448 125.527341 
L 224.927713 125.527341 
L 224.943179 123.754165 
L 225.313963 123.754165 
L 225.313963 121.626353 
L 225.51832 121.626353 
L 225.554936 120.562447 
L 225.812553 120.562447 
L 225.869871 119.853176 
L 225.927014 119.853176 
L 226.016461 117.370729 
L 226.165138 117.370729 
L 226.248656 113.469741 
L 226.328613 113.469741 
L 226.328613 111.341929 
L 226.468518 111.341929 
L 226.569617 109.923388 
L 226.674877 109.923388 
L 226.674877 109.568753 
L 226.979461 109.568753 
L 227.053308 108.504847 
L 227.146738 108.504847 
L 227.239706 107.440941 
L 227.304966 107.440941 
L 227.304966 106.731671 
L 227.431801 106.731671 
L 227.431801 106.377035 
L 227.562271 106.377035 
L 227.562271 106.0224 
L 227.717056 106.0224 
L 227.817578 101.766776 
L 227.863226 101.766776 
L 227.952728 100.702871 
L 227.980519 100.702871 
L 228.022858 99.284329 
L 228.198492 99.284329 
L 228.198492 98.929694 
L 228.358181 98.929694 
L 228.462468 96.801882 
L 228.544915 96.801882 
L 228.655227 95.737976 
L 228.700296 95.737976 
L 228.759286 93.9648 
L 228.8125 93.9648 
L 228.8125 92.191624 
L 228.936545 92.191624 
L 228.936545 91.836988 
L 229.139653 91.836988 
L 229.153391 89.709176 
L 229.260201 89.709176 
L 229.260201 88.999906 
L 229.381338 88.999906 
L 229.396256 87.936 
L 229.513829 87.936 
L 229.550168 85.453553 
L 229.654755 85.453553 
L 229.686819 83.325741 
L 229.787996 83.325741 
L 229.872777 80.134024 
L 229.903153 80.134024 
L 229.950598 78.715482 
L 230.026788 78.715482 
L 230.026788 78.360847 
L 230.162636 78.360847 
L 230.209432 76.942306 
L 230.285876 76.942306 
L 230.347839 75.169129 
L 230.421155 75.169129 
L 230.49163 73.750588 
L 230.533788 73.750588 
L 230.643214 71.977412 
L 230.768397 71.977412 
L 230.842607 70.204235 
L 230.931524 70.204235 
L 231.039908 66.657882 
L 231.098202 66.657882 
L 231.203171 64.175435 
L 231.527927 64.175435 
L 231.632938 62.756894 
L 231.640159 62.756894 
L 231.701423 61.692988 
L 231.760097 61.692988 
L 231.830503 58.855906 
L 231.912509 58.855906 
L 231.944502 56.373459 
L 232.124772 56.373459 
L 232.169278 55.664188 
L 232.266125 55.664188 
L 232.317264 54.954918 
L 232.415663 54.954918 
L 232.500911 53.536376 
L 232.544537 53.536376 
L 232.566312 49.635388 
L 232.690749 49.635388 
L 232.690749 47.507576 
L 232.824539 47.507576 
L 232.919202 46.443671 
L 233.010036 46.443671 
L 233.097093 45.379765 
L 233.230246 45.379765 
L 233.293164 41.833412 
L 233.410709 41.833412 
L 233.410709 40.769506 
L 233.527525 40.769506 
L 233.551453 39.7056 
L 233.684677 39.7056 
L 233.779416 37.223153 
L 233.842668 37.223153 
L 233.917438 35.095341 
L 234.133659 35.095341 
L 234.19048 33.6768 
L 234.276438 33.6768 
L 234.276438 32.967529 
L 234.563936 32.967529 
L 234.563936 32.612894 
L 234.922038 32.612894 
L 234.922038 32.258259 
L 235.034885 32.258259 
L 235.112076 30.839718 
L 235.317043 30.839718 
L 235.421648 30.130447 
L 235.701985 30.130447 
L 235.717492 29.421176 
L 247.554895 29.421176 
L 247.611091 28.711906 
L 248.175995 28.711906 
L 248.175995 28.357271 
L 248.304441 28.357271 
L 248.304441 28.002635 
L 248.481723 28.002635 
L 248.481723 27.648 
L 360.8064 27.648 
L 360.8064 27.648 
" style="fill:none;stroke:#000080;stroke-linecap:square;stroke-width:1.5;"/>
   </g>
   <g id="line2d_36">
    <defs>
     <path d="M 0 6 
C 1.591219 6 3.117479 5.367802 4.242641 4.242641 
C 5.367802 3.117479 6 1.591219 6 0 
C 6 -1.591219 5.367802 -3.117479 4.242641 -4.242641 
C 3.117479 -5.367802 1.591219 -6 0 -6 
C -1.591219 -6 -3.117479 -5.367802 -4.242641 -4.242641 
C -5.367802 -3.117479 -6 -1.591219 -6 0 
C -6 1.591219 -5.367802 3.117479 -4.242641 4.242641 
C -3.117479 5.367802 -1.591219 6 0 6 
z
" id="m3450ddcfb1" style="stroke:#000080;stroke-width:1.5;"/>
    </defs>
    <g>
     <use style="fill-opacity:0;stroke:#000080;stroke-width:1.5;" x="235.317043" xlink:href="#m3450ddcfb1" y="30.839718"/>
     <use style="fill-opacity:0;stroke:#000080;stroke-width:1.5;" x="248.481723" xlink:href="#m3450ddcfb1" y="27.648"/>
     <use style="fill-opacity:0;stroke:#000080;stroke-width:1.5;" x="248.481723" xlink:href="#m3450ddcfb1" y="27.648"/>
     <use style="fill-opacity:0;stroke:#000080;stroke-width:1.5;" x="360.8064" xlink:href="#m3450ddcfb1" y="27.648"/>
    </g>
   </g>
   <g id="line2d_37">
    <path style="fill:none;stroke:#000080;stroke-linecap:square;stroke-width:1.5;"/>
    <g/>
   </g>
   <g id="line2d_38">
    <path clip-path="url(#p4c29d9da0b)" d="M 236.28195 29.421176 
" style="fill:none;stroke:#000080;stroke-linecap:square;stroke-width:1.5;"/>
    <defs>
     <path d="M -12 12 
L 12 -12 
M -12 -12 
L 12 12 
" id="mb73f4e2c73" style="stroke:#000080;"/>
    </defs>
    <g clip-path="url(#p4c29d9da0b)">
     <use style="fill:#000080;stroke:#000080;" x="236.28195" xlink:href="#mb73f4e2c73" y="29.421176"/>
    </g>
   </g>
   <g id="line2d_39">
    <defs>
     <path d="M 0 1.5 
C 0.397805 1.5 0.77937 1.341951 1.06066 1.06066 
C 1.341951 0.77937 1.5 0.397805 1.5 0 
C 1.5 -0.397805 1.341951 -0.77937 1.06066 -1.06066 
C 0.77937 -1.341951 0.397805 -1.5 0 -1.5 
C -0.397805 -1.5 -0.77937 -1.341951 -1.06066 -1.06066 
C -1.341951 -0.77937 -1.5 -0.397805 -1.5 0 
C -1.5 0.397805 -1.341951 0.77937 -1.06066 1.06066 
C -0.77937 1.341951 -0.397805 1.5 0 1.5 
z
" id="mcbadb15689" style="stroke:#ff00ff;"/>
    </defs>
    <g>
     <use style="fill:#ff00ff;stroke:#ff00ff;" x="207.41159" xlink:href="#mcbadb15689" y="27.648"/>
     <use style="fill:#ff00ff;stroke:#ff00ff;" x="207.41159" xlink:href="#mcbadb15689" y="27.648"/>
    </g>
   </g>
   <g id="line2d_40">
    <path d="M 110.144579 298.944 
L 110.144579 297.525459 
L 124.659926 297.525459 
L 124.659926 296.106918 
L 127.761474 296.106918 
L 127.761474 295.043012 
L 128.643427 295.043012 
L 128.643427 294.333741 
L 129.069367 294.333741 
L 129.069367 293.624471 
L 130.811181 293.624471 
L 130.811181 293.269835 
L 131.191226 293.269835 
L 131.191226 292.9152 
L 131.686295 292.9152 
L 131.686295 292.560565 
L 131.808053 292.560565 
L 131.808053 292.205929 
L 131.929028 292.205929 
L 131.929028 291.851294 
L 132.754746 291.851294 
L 132.754746 290.787388 
L 133.323114 290.787388 
L 133.323114 290.078118 
L 133.874812 290.078118 
L 133.874812 289.368847 
L 134.828842 289.368847 
L 134.828842 289.014212 
L 135.136394 289.014212 
L 135.136394 287.241035 
L 135.338671 287.241035 
L 135.338671 286.531765 
L 136.029987 286.531765 
L 136.029987 286.177129 
L 136.222928 286.177129 
L 136.318661 285.113224 
L 138.050729 285.113224 
L 138.050729 284.758588 
L 138.395904 284.758588 
L 138.395904 282.630776 
L 138.985129 282.630776 
L 138.985129 282.276141 
L 139.394983 282.276141 
L 139.394983 281.921506 
L 140.110942 281.921506 
L 140.110942 281.566871 
L 140.649551 281.566871 
L 140.725251 280.502965 
L 141.465959 280.502965 
L 141.465959 280.148329 
L 141.610664 280.148329 
L 141.610664 279.084424 
L 141.754265 279.084424 
L 141.825656 278.375153 
L 142.108542 278.375153 
L 142.108542 278.020518 
L 143.592659 278.020518 
L 143.592659 277.665882 
L 143.721949 277.665882 
L 143.721949 277.311247 
L 143.977892 277.311247 
L 143.977892 276.956612 
L 144.293001 276.956612 
L 144.355394 276.247341 
L 144.417581 276.247341 
L 144.479563 274.474165 
L 144.541342 274.474165 
L 144.541342 274.119529 
L 144.664294 274.119529 
L 144.664294 273.764894 
L 144.907812 273.764894 
L 144.907812 273.410259 
L 145.26728 273.410259 
L 145.326529 271.991718 
L 145.620007 271.991718 
L 145.620007 271.637082 
L 146.080251 271.637082 
L 146.080251 271.282447 
L 146.24998 271.282447 
L 146.24998 270.927812 
L 146.47393 270.927812 
L 146.47393 269.509271 
L 146.804934 269.509271 
L 146.913986 267.736094 
L 147.237402 267.736094 
L 147.237402 265.962918 
L 147.712333 265.962918 
L 147.712333 265.608282 
L 148.022421 265.608282 
L 148.022421 264.899012 
L 148.226342 264.899012 
L 148.276979 263.835106 
L 148.627671 263.835106 
L 148.627671 263.480471 
L 148.775988 263.480471 
L 148.775988 262.7712 
L 149.020615 262.7712 
L 149.117582 260.643388 
L 149.262102 260.643388 
L 149.357835 259.579482 
L 149.595059 259.579482 
L 149.595059 259.224847 
L 149.829328 259.224847 
L 149.875833 257.806306 
L 150.106653 257.806306 
L 150.106653 257.451671 
L 150.243797 257.451671 
L 150.289291 256.033129 
L 150.379949 256.033129 
L 150.470172 253.196047 
L 150.515122 253.196047 
L 150.515122 252.486776 
L 150.8268 252.486776 
L 150.8268 251.422871 
L 151.046307 251.422871 
L 151.046307 249.295059 
L 151.263283 249.295059 
L 151.306379 246.812612 
L 151.435079 246.812612 
L 151.477784 246.103341 
L 151.647641 246.103341 
L 151.689867 245.394071 
L 151.815978 245.394071 
L 151.899585 244.330165 
L 152.1482 244.330165 
L 152.230346 238.656 
L 152.352898 238.656 
L 152.393571 236.882824 
L 152.474656 236.882824 
L 152.474656 236.528188 
L 152.635783 236.528188 
L 152.675851 235.464282 
L 152.795543 235.464282 
L 152.874916 232.272565 
L 152.953957 232.272565 
L 152.953957 231.917929 
L 153.189104 231.917929 
L 153.189104 231.563294 
L 153.305585 231.563294 
L 153.305585 231.208659 
L 153.421349 231.208659 
L 153.421349 230.854024 
L 153.5746 230.854024 
L 153.5746 230.144753 
L 153.726614 230.144753 
L 153.726614 229.790118 
L 153.914919 229.790118 
L 153.914919 228.726212 
L 154.064218 228.726212 
L 154.138425 226.5984 
L 154.212341 226.5984 
L 154.285968 223.406682 
L 154.468783 223.406682 
L 154.505134 220.214965 
L 154.721776 220.214965 
L 154.721776 219.505694 
L 154.86483 219.505694 
L 154.86483 218.441788 
L 155.006805 218.441788 
L 155.006805 218.087153 
L 155.18278 218.087153 
L 155.18278 216.313976 
L 155.357123 216.313976 
L 155.426411 215.250071 
L 155.564225 215.250071 
L 155.632755 213.831529 
L 155.802997 213.831529 
L 155.904407 212.767624 
L 156.072219 212.767624 
L 156.172192 209.575906 
L 156.205398 209.575906 
L 156.205398 209.221271 
L 156.370558 209.221271 
L 156.436218 208.512 
L 156.53428 208.512 
L 156.631834 207.093459 
L 156.696589 207.093459 
L 156.761123 206.029553 
L 156.921495 206.029553 
L 157.017067 204.256376 
L 157.048816 204.256376 
L 157.048816 203.901741 
L 157.206765 203.901741 
L 157.206765 201.773929 
L 157.518738 201.773929 
L 157.580516 197.518306 
L 157.734081 197.518306 
L 157.825621 193.617318 
L 157.916719 193.617318 
L 158.007377 190.4256 
L 158.0976 190.4256 
L 158.0976 190.070965 
L 158.336102 190.070965 
L 158.336102 189.007059 
L 158.483644 189.007059 
L 158.571617 187.943153 
L 158.659181 187.943153 
L 158.746339 185.460706 
L 158.861925 185.460706 
L 158.948151 184.042165 
L 159.005416 184.042165 
L 159.033983 182.623624 
L 159.119425 182.623624 
L 159.204482 181.914353 
L 159.317295 181.914353 
L 159.345393 181.205082 
L 159.513105 181.205082 
L 159.596403 179.077271 
L 159.844108 179.077271 
L 159.898714 176.949459 
L 160.088594 176.949459 
L 160.142495 175.530918 
L 160.249837 175.530918 
L 160.329943 174.467012 
L 160.409709 174.467012 
L 160.515541 173.048471 
L 160.620781 173.048471 
L 160.673181 170.566024 
L 160.82951 170.566024 
L 160.907191 167.019671 
L 160.984551 167.019671 
L 161.061595 166.3104 
L 161.189305 166.3104 
L 161.290852 164.537224 
L 161.341421 164.537224 
L 161.442152 163.827953 
L 161.492316 163.827953 
L 161.567313 163.118682 
L 161.716414 163.118682 
L 161.790524 161.345506 
L 161.913396 161.345506 
L 161.986735 159.217694 
L 162.084079 159.217694 
L 162.180921 157.089882 
L 162.205054 157.089882 
L 162.301277 154.962071 
L 162.325256 154.962071 
L 162.420867 153.898165 
L 162.444694 153.898165 
L 162.515995 150.706447 
L 162.587027 150.706447 
L 162.657792 147.869365 
L 162.704821 147.869365 
L 162.798527 146.805459 
L 162.891769 146.805459 
L 162.961399 144.677647 
L 163.007676 144.677647 
L 163.099889 142.904471 
L 163.145827 142.904471 
L 163.237368 141.485929 
L 163.260183 141.485929 
L 163.260183 140.776659 
L 163.419123 140.776659 
L 163.464289 139.712753 
L 163.688506 139.712753 
L 163.710781 139.003482 
L 163.865975 139.003482 
L 163.932096 136.1664 
L 164.019898 136.1664 
L 164.085482 134.038588 
L 164.150838 134.038588 
L 164.237627 132.620047 
L 164.431451 132.620047 
L 164.495618 131.910776 
L 164.559567 131.910776 
L 164.580835 131.201506 
L 164.729041 131.201506 
L 164.834193 130.1376 
L 164.876089 130.1376 
L 164.959603 128.719059 
L 165.001222 128.719059 
L 165.104867 127.300518 
L 165.207944 127.300518 
L 165.31046 125.881976 
L 165.35131 125.881976 
L 165.392072 123.044894 
L 165.493592 123.044894 
L 165.574415 122.335624 
L 165.634805 122.335624 
L 165.715025 120.917082 
L 165.755007 120.917082 
L 165.794904 119.853176 
L 165.973402 119.853176 
L 166.052194 118.789271 
L 166.091467 118.789271 
L 166.091467 118.434635 
L 166.208795 118.434635 
L 166.306012 117.370729 
L 166.325396 117.370729 
L 166.422014 115.952188 
L 166.441278 115.952188 
L 166.518139 115.242918 
L 166.594686 115.242918 
L 166.670924 114.533647 
L 166.860176 114.533647 
L 166.935348 113.115106 
L 166.991529 113.115106 
L 167.028891 112.405835 
L 167.103392 112.405835 
L 167.196106 110.632659 
L 167.251516 110.632659 
L 167.306762 109.923388 
L 167.416772 109.923388 
L 167.507957 108.859482 
L 167.562457 108.859482 
L 167.6168 108.150212 
L 167.76095 108.150212 
L 167.778892 107.440941 
L 168.045979 107.440941 
L 168.134173 105.313129 
L 168.169334 105.313129 
L 168.221954 104.249224 
L 168.309328 104.249224 
L 168.413644 103.185318 
L 168.6034 103.185318 
L 168.706102 102.121412 
L 168.723164 102.121412 
L 168.825216 101.057506 
L 168.859111 101.057506 
L 168.926718 99.638965 
L 169.010886 99.638965 
L 169.111393 98.220424 
L 169.128092 98.220424 
L 169.178101 96.447247 
L 169.294273 96.447247 
L 169.360337 94.319435 
L 169.426169 94.319435 
L 169.508137 92.546259 
L 169.606029 92.546259 
L 169.606029 92.191624 
L 169.816397 92.191624 
L 169.912702 90.418447 
L 169.944694 90.418447 
L 169.96067 89.709176 
L 170.167131 89.709176 
L 170.167131 89.354541 
L 170.418164 89.354541 
L 170.511445 87.936 
L 170.635104 87.936 
L 170.71198 86.517459 
L 170.773255 86.517459 
L 170.819081 85.098918 
L 171.061619 85.098918 
L 171.061619 84.744282 
L 171.196684 84.744282 
L 171.301069 84.035012 
L 171.449192 84.035012 
L 171.449192 83.680376 
L 171.566857 83.680376 
L 171.654625 82.971106 
L 171.727453 82.971106 
L 171.814477 82.261835 
L 172.115927 82.261835 
L 172.215347 81.197929 
L 172.229507 81.197929 
L 172.243656 80.488659 
L 172.454629 80.488659 
L 172.552279 79.779388 
L 172.663262 79.779388 
L 172.732295 79.070118 
L 172.828518 79.070118 
L 172.85592 78.360847 
L 172.978738 78.360847 
L 172.992335 77.296941 
L 173.114269 77.296941 
L 173.154738 76.587671 
L 173.262233 76.587671 
L 173.369117 74.814494 
L 173.395744 74.814494 
L 173.448884 73.750588 
L 173.620559 73.750588 
L 173.712355 71.977412 
L 173.881654 71.977412 
L 173.946365 70.913506 
L 174.11358 70.913506 
L 174.11358 70.558871 
L 174.317363 70.558871 
L 174.317363 70.204235 
L 174.443616 70.204235 
L 174.443616 69.8496 
L 174.569026 69.8496 
L 174.569026 69.494965 
L 174.718424 69.494965 
L 174.718424 69.140329 
L 174.940319 69.140329 
L 175.050293 68.076424 
L 175.074644 68.076424 
L 175.074644 67.721788 
L 175.195931 67.721788 
L 175.304425 66.657882 
L 175.32845 66.657882 
L 175.400341 65.593976 
L 175.460042 65.593976 
L 175.483869 64.530071 
L 175.578877 64.530071 
L 175.638014 63.8208 
L 175.732249 63.8208 
L 175.837702 62.756894 
L 175.919314 62.756894 
L 176.000573 62.047624 
L 176.139064 62.047624 
L 176.139064 61.692988 
L 176.287954 61.692988 
L 176.287954 61.338353 
L 176.413023 61.338353 
L 176.503464 59.919812 
L 176.559769 59.919812 
L 176.649508 59.210541 
L 176.694218 59.210541 
L 176.694218 58.501271 
L 176.805529 58.501271 
L 176.916185 57.082729 
L 176.938239 57.082729 
L 176.938239 56.728094 
L 177.080959 56.728094 
L 177.179135 55.664188 
L 177.244302 55.664188 
L 177.330842 54.245647 
L 177.427726 54.245647 
L 177.524113 53.181741 
L 177.556133 53.181741 
L 177.556133 52.827106 
L 177.704841 52.827106 
L 177.704841 52.472471 
L 177.925723 52.472471 
L 177.967504 51.7632 
L 178.123358 51.7632 
L 178.205956 49.990024 
L 178.236837 49.990024 
L 178.288192 49.280753 
L 178.349634 49.280753 
L 178.431246 48.216847 
L 178.563116 48.216847 
L 178.603505 47.152941 
L 178.724157 47.152941 
L 178.834079 45.7344 
L 178.91362 45.7344 
L 178.91362 45.379765 
L 179.052014 45.379765 
L 179.052014 45.025129 
L 179.345187 45.025129 
L 179.354881 44.315859 
L 179.557313 44.315859 
L 179.557313 43.961224 
L 179.672018 43.961224 
L 179.672018 43.606588 
L 179.974522 43.606588 
L 180.077394 42.188047 
L 180.272238 42.188047 
L 180.364317 41.124141 
L 180.853898 41.124141 
L 180.853898 40.769506 
L 181.190936 40.769506 
L 181.296127 39.7056 
L 181.753809 39.7056 
L 181.830435 38.996329 
L 182.083622 38.996329 
L 182.083622 38.641694 
L 182.316895 38.641694 
L 182.399511 37.932424 
L 182.563662 37.932424 
L 182.604477 37.223153 
L 182.983869 37.223153 
L 183.023783 36.513882 
L 183.472918 36.513882 
L 183.472918 36.159247 
L 183.60482 36.159247 
L 183.60482 35.804612 
L 183.804781 35.804612 
L 183.804781 35.449976 
L 183.972335 35.449976 
L 184.017773 34.740706 
L 184.243334 34.740706 
L 184.243334 34.386071 
L 184.693799 34.386071 
L 184.693799 34.031435 
L 184.831933 34.031435 
L 184.831933 33.6768 
L 185.098054 33.6768 
L 185.14798 32.612894 
L 185.211977 32.612894 
L 185.304035 31.903624 
L 185.833384 31.903624 
L 185.833384 31.548988 
L 186.241017 31.548988 
L 186.241017 31.194353 
L 186.888389 31.194353 
L 186.888389 30.839718 
L 188.065084 30.839718 
L 188.065084 30.485082 
L 188.204857 30.485082 
L 188.204857 30.130447 
L 188.830081 30.130447 
L 188.917726 29.421176 
L 188.958488 29.421176 
L 188.958488 29.066541 
L 189.166736 29.066541 
L 189.166736 28.711906 
L 189.960876 28.711906 
L 189.960876 28.357271 
L 190.261779 28.357271 
L 190.261779 28.002635 
L 207.41159 28.002635 
L 207.41159 27.648 
L 360.8064 27.648 
L 360.8064 27.648 
" style="fill:none;stroke:#ff00ff;stroke-linecap:square;stroke-width:1.5;"/>
   </g>
   <g id="line2d_41">
    <defs>
     <path d="M -0 8.485281 
L 5.091169 0 
L 0 -8.485281 
L -5.091169 -0 
z
" id="ma60b8de070" style="stroke:#ff00ff;stroke-linejoin:miter;stroke-width:1.5;"/>
    </defs>
    <g>
     <use style="fill-opacity:0;stroke:#ff00ff;stroke-linejoin:miter;stroke-width:1.5;" x="152.795543" xlink:href="#ma60b8de070" y="235.464282"/>
     <use style="fill-opacity:0;stroke:#ff00ff;stroke-linejoin:miter;stroke-width:1.5;" x="176.938239" xlink:href="#ma60b8de070" y="56.728094"/>
     <use style="fill-opacity:0;stroke:#ff00ff;stroke-linejoin:miter;stroke-width:1.5;" x="207.41159" xlink:href="#ma60b8de070" y="28.002635"/>
     <use style="fill-opacity:0;stroke:#ff00ff;stroke-linejoin:miter;stroke-width:1.5;" x="207.41159" xlink:href="#ma60b8de070" y="27.648"/>
     <use style="fill-opacity:0;stroke:#ff00ff;stroke-linejoin:miter;stroke-width:1.5;" x="360.8064" xlink:href="#ma60b8de070" y="27.648"/>
    </g>
   </g>
   <g id="line2d_42">
    <path style="fill:none;stroke:#ff00ff;stroke-linecap:square;stroke-width:1.5;"/>
    <g/>
   </g>
   <g id="line2d_43">
    <path clip-path="url(#p4c29d9da0b)" d="M 147.237402 265.962918 
" style="fill:none;stroke:#ff00ff;stroke-linecap:square;stroke-width:1.5;"/>
    <defs>
     <path d="M -12 12 
L 12 -12 
M -12 -12 
L 12 12 
" id="m6fb1aaec9b" style="stroke:#ff00ff;"/>
    </defs>
    <g clip-path="url(#p4c29d9da0b)">
     <use style="fill:#ff00ff;stroke:#ff00ff;" x="147.237402" xlink:href="#m6fb1aaec9b" y="265.962918"/>
    </g>
   </g>
   <g id="line2d_44">
    <defs>
     <path d="M 0 1.5 
C 0.397805 1.5 0.77937 1.341951 1.06066 1.06066 
C 1.341951 0.77937 1.5 0.397805 1.5 0 
C 1.5 -0.397805 1.341951 -0.77937 1.06066 -1.06066 
C 0.77937 -1.341951 0.397805 -1.5 0 -1.5 
C -0.397805 -1.5 -0.77937 -1.341951 -1.06066 -1.06066 
C -1.341951 -0.77937 -1.5 -0.397805 -1.5 0 
C -1.5 0.397805 -1.341951 0.77937 -1.06066 1.06066 
C -0.77937 1.341951 -0.397805 1.5 0 1.5 
z
" id="md325a9232f" style="stroke:#ff7500;"/>
    </defs>
    <g>
     <use style="fill:#ff7500;stroke:#ff7500;" x="218.486936" xlink:href="#md325a9232f" y="27.648"/>
     <use style="fill:#ff7500;stroke:#ff7500;" x="218.486936" xlink:href="#md325a9232f" y="27.648"/>
    </g>
   </g>
   <g id="line2d_45">
    <path d="M 107.68741 298.944 
L 107.68741 297.880094 
L 123.750979 297.880094 
L 123.750979 297.525459 
L 137.430998 297.525459 
L 137.430998 296.816188 
L 142.038218 296.816188 
L 142.038218 295.043012 
L 156.696589 295.043012 
L 156.696589 294.688376 
L 159.624087 294.688376 
L 159.624087 293.979106 
L 161.391854 293.979106 
L 161.391854 291.851294 
L 166.383426 291.851294 
L 166.383426 291.496659 
L 166.708927 291.496659 
L 166.784704 290.787388 
L 166.916583 290.787388 
L 166.916583 290.078118 
L 169.800298 290.078118 
L 169.800298 289.723482 
L 170.71198 289.723482 
L 170.71198 289.368847 
L 170.925576 289.368847 
L 171.001277 287.950306 
L 171.345629 287.950306 
L 171.360458 286.531765 
L 171.741985 286.531765 
L 171.741985 285.822494 
L 172.992335 285.822494 
L 172.992335 285.467859 
L 173.235417 285.467859 
L 173.235417 284.758588 
L 173.855707 284.758588 
L 173.920507 284.049318 
L 174.431028 284.049318 
L 174.468765 282.985412 
L 175.111113 282.985412 
L 175.14751 281.566871 
L 175.32845 281.566871 
L 175.32845 281.212235 
L 175.77919 281.212235 
L 175.77919 280.502965 
L 175.919314 280.502965 
L 175.919314 280.148329 
L 176.150559 280.148329 
L 176.150559 279.439059 
L 176.378996 279.439059 
L 176.435674 278.729788 
L 176.627113 278.729788 
L 176.627113 278.375153 
L 176.761083 278.375153 
L 176.761083 278.020518 
L 178.834079 278.020518 
L 178.834079 277.665882 
L 179.267453 277.665882 
L 179.267453 277.311247 
L 179.461189 277.311247 
L 179.461189 276.956612 
L 179.795498 276.956612 
L 179.899351 273.764894 
L 180.272238 273.764894 
L 180.272238 273.410259 
L 182.612629 273.410259 
L 182.710183 272.700988 
L 183.039725 272.700988 
L 183.039725 272.346353 
L 184.198438 272.346353 
L 184.198438 271.991718 
L 185.019329 271.991718 
L 185.019329 271.637082 
L 185.169337 271.637082 
L 185.169337 271.282447 
L 185.521755 271.282447 
L 185.521755 270.927812 
L 186.06546 270.927812 
L 186.06546 270.573176 
L 186.381628 270.573176 
L 186.488058 269.509271 
L 186.49469 269.509271 
L 186.521195 268.8 
L 186.881894 268.8 
L 186.881894 268.445365 
L 187.210292 268.445365 
L 187.210292 268.090729 
L 187.394502 268.090729 
L 187.40714 267.381459 
L 187.645662 267.381459 
L 187.645662 267.026824 
L 187.763798 267.026824 
L 187.77619 266.317553 
L 188.113819 266.317553 
L 188.119902 265.608282 
L 188.319544 265.608282 
L 188.373626 264.899012 
L 188.433535 264.899012 
L 188.433535 264.544376 
L 188.600274 264.544376 
L 188.600274 264.189741 
L 188.865188 264.189741 
L 188.95267 263.480471 
L 189.091801 263.480471 
L 189.11489 261.707294 
L 189.247103 261.707294 
L 189.327128 260.643388 
L 189.42952 260.643388 
L 189.42952 259.934118 
L 189.738973 259.934118 
L 189.750131 259.224847 
L 190.015945 259.224847 
L 190.015945 258.870212 
L 190.19109 258.870212 
L 190.24549 258.160941 
L 190.337611 258.160941 
L 190.337611 257.451671 
L 190.488362 257.451671 
L 190.488362 257.097035 
L 190.637916 257.097035 
L 190.643235 256.387765 
L 190.802117 256.387765 
L 190.896806 254.969224 
L 190.980576 254.969224 
L 191.079571 253.905318 
L 191.095154 253.905318 
L 191.095154 252.486776 
L 191.209038 252.486776 
L 191.209038 251.422871 
L 191.36835 251.422871 
L 191.455146 250.004329 
L 191.516173 250.004329 
L 191.531398 248.585788 
L 191.652764 248.585788 
L 191.657804 247.167247 
L 191.942871 247.167247 
L 191.942871 246.812612 
L 192.07148 246.812612 
L 192.096112 245.748706 
L 192.209006 245.748706 
L 192.238346 243.975529 
L 192.345535 243.975529 
L 192.427946 241.138447 
L 192.485902 241.138447 
L 192.591693 235.818918 
L 192.615654 235.818918 
L 192.696893 232.981835 
L 192.768284 232.981835 
L 192.806249 231.917929 
L 192.881949 231.917929 
L 192.976149 231.208659 
L 193.023072 231.208659 
L 193.130553 227.662306 
L 193.158491 227.662306 
L 193.181741 226.243765 
L 193.288323 226.243765 
L 193.288323 223.406682 
L 193.403491 223.406682 
L 193.417264 222.697412 
L 193.536209 222.697412 
L 193.631734 219.151059 
L 193.717745 219.151059 
L 193.803365 217.023247 
L 193.897546 217.023247 
L 193.995709 212.058353 
L 194.04016 212.058353 
L 194.09779 208.157365 
L 194.168477 208.157365 
L 194.238899 207.448094 
L 194.282779 207.448094 
L 194.291543 204.965647 
L 194.405103 204.965647 
L 194.452942 202.4832 
L 194.526636 202.4832 
L 194.552577 200.355388 
L 194.647389 200.355388 
L 194.720327 196.809035 
L 194.771643 196.809035 
L 194.792984 195.745129 
L 194.92052 195.745129 
L 195.0135 193.617318 
L 195.093433 193.617318 
L 195.131178 189.716329 
L 195.24396 189.716329 
L 195.327068 186.879247 
L 195.364348 186.879247 
L 195.459283 184.751435 
L 195.475745 184.751435 
L 195.586485 181.914353 
L 195.619173 181.914353 
L 195.729075 180.141176 
L 195.741247 180.141176 
L 195.834303 176.594824 
L 195.862534 176.594824 
L 195.950983 171.275294 
L 196.039019 171.275294 
L 196.07093 170.566024 
L 196.150471 170.566024 
L 196.245479 169.502118 
L 196.265213 169.502118 
L 196.284925 168.083576 
L 196.391017 168.083576 
L 196.496513 162.764047 
L 196.531548 162.764047 
L 196.624655 158.863059 
L 196.713453 158.863059 
L 196.81333 156.380612 
L 196.87835 156.380612 
L 196.943145 151.770353 
L 197.000132 151.770353 
L 197.060729 149.642541 
L 197.132436 149.642541 
L 197.241358 146.450824 
L 197.31238 146.450824 
L 197.420268 142.904471 
L 197.472131 142.904471 
L 197.557026 140.422024 
L 197.659862 140.422024 
L 197.743916 136.1664 
L 197.776704 136.1664 
L 197.88197 133.683953 
L 197.914519 133.683953 
L 198.008234 131.556141 
L 198.087169 131.556141 
L 198.176467 128.009788 
L 198.208511 128.009788 
L 198.318469 126.236612 
L 198.325541 126.236612 
L 198.385546 124.818071 
L 198.455896 124.818071 
L 198.56093 121.980988 
L 198.57489 121.980988 
L 198.682733 119.498541 
L 198.745069 119.498541 
L 198.851943 118.08 
L 198.879425 118.08 
L 198.975298 117.016094 
L 198.99919 117.016094 
L 198.99919 116.661459 
L 199.111417 116.661459 
L 199.155444 115.597553 
L 199.249924 115.597553 
L 199.343931 113.824376 
L 199.377392 113.824376 
L 199.487392 111.696565 
L 199.540494 111.696565 
L 199.629766 109.923388 
L 199.744862 109.923388 
L 199.751418 109.214118 
L 199.875544 109.214118 
L 199.985914 106.731671 
L 199.995621 106.731671 
L 199.995621 106.377035 
L 200.114937 106.377035 
L 200.169506 105.667765 
L 200.255849 105.667765 
L 200.32591 104.603859 
L 200.402045 104.603859 
L 200.493632 103.539953 
L 200.518819 103.539953 
L 200.628617 100.348235 
L 200.631745 100.348235 
L 200.712883 98.575059 
L 200.756428 98.575059 
L 200.84631 97.511153 
L 200.871029 97.511153 
L 200.911129 96.447247 
L 201.030919 96.447247 
L 201.125596 94.319435 
L 201.146908 94.319435 
L 201.250085 92.191624 
L 201.27428 92.191624 
L 201.382774 88.645271 
L 201.463736 88.645271 
L 201.565194 87.226729 
L 201.577094 87.226729 
L 201.669068 85.808188 
L 201.704551 85.808188 
L 201.80766 84.389647 
L 201.889743 84.389647 
L 201.892668 83.325741 
L 202.015105 83.325741 
L 202.12231 81.552565 
L 202.154064 81.552565 
L 202.205911 79.779388 
L 202.374856 79.779388 
L 202.482871 78.360847 
L 202.508363 78.360847 
L 202.61843 75.8784 
L 202.621244 75.8784 
L 202.697057 74.105224 
L 202.733451 74.105224 
L 202.769775 72.686682 
L 202.85889 72.686682 
L 202.944819 70.913506 
L 202.975216 70.913506 
L 203.055119 70.204235 
L 203.159308 70.204235 
L 203.211187 69.140329 
L 203.29824 69.140329 
L 203.401095 67.721788 
L 203.441541 67.721788 
L 203.551652 65.593976 
L 203.573063 65.593976 
L 203.650471 64.884706 
L 203.740822 64.884706 
L 203.833379 62.756894 
L 203.865009 62.756894 
L 203.94385 62.047624 
L 203.983147 62.047624 
L 204.066708 61.338353 
L 204.232724 61.338353 
L 204.294604 60.629082 
L 204.358847 60.629082 
L 204.445866 59.919812 
L 204.50705 59.919812 
L 204.570573 59.210541 
L 204.727189 59.210541 
L 204.794988 57.437365 
L 205.039038 57.437365 
L 205.1279 56.018824 
L 205.191819 56.018824 
L 205.240839 54.954918 
L 205.336063 54.954918 
L 205.423536 54.245647 
L 205.517842 54.245647 
L 205.62847 52.827106 
L 205.647643 52.827106 
L 205.733683 51.7632 
L 205.840682 51.7632 
L 205.8975 51.053929 
L 206.031759 51.053929 
L 206.031759 50.699294 
L 206.151079 50.699294 
L 206.160406 49.990024 
L 206.269647 49.990024 
L 206.345971 48.926118 
L 206.396683 48.926118 
L 206.396683 48.571482 
L 206.568542 48.571482 
L 206.655021 46.798306 
L 206.691315 46.798306 
L 206.738845 45.7344 
L 206.873986 45.7344 
L 206.873986 45.025129 
L 207.17455 45.025129 
L 207.223079 43.961224 
L 207.804411 43.961224 
L 207.804411 43.606588 
L 208.052675 43.606588 
L 208.128409 42.542682 
L 208.283135 42.542682 
L 208.378678 41.478776 
L 208.498457 41.478776 
L 208.590867 40.414871 
L 208.952015 40.414871 
L 209.048227 38.996329 
L 209.070207 38.996329 
L 209.179722 37.577788 
L 209.330009 37.577788 
L 209.428232 36.513882 
L 209.461511 36.513882 
L 209.469333 35.804612 
L 209.578499 35.804612 
L 209.685102 34.740706 
L 209.946138 34.740706 
L 210.024127 34.031435 
L 210.167843 34.031435 
L 210.167843 33.6768 
L 210.837706 33.6768 
L 210.888538 32.612894 
L 211.194249 32.612894 
L 211.288551 31.903624 
L 212.019595 31.903624 
L 212.019595 31.548988 
L 212.999177 31.548988 
L 212.999177 31.194353 
L 213.5202 31.194353 
L 213.5202 30.839718 
L 213.697484 30.839718 
L 213.697484 30.485082 
L 214.762917 30.485082 
L 214.762917 30.130447 
L 215.022289 30.130447 
L 215.047014 29.421176 
L 215.436822 29.421176 
L 215.436822 29.066541 
L 216.35098 29.066541 
L 216.35098 28.711906 
L 216.872554 28.711906 
L 216.872554 28.357271 
L 216.994822 28.357271 
L 216.994822 28.002635 
L 218.486936 28.002635 
L 218.486936 27.648 
L 360.8064 27.648 
L 360.8064 27.648 
" style="fill:none;stroke:#ff7500;stroke-linecap:square;stroke-width:1.5;"/>
   </g>
   <g id="line2d_46">
    <defs>
     <path d="M 0 -6 
L -1.347084 -1.854102 
L -5.706339 -1.854102 
L -2.179628 0.708204 
L -3.526712 4.854102 
L -0 2.291796 
L 3.526712 4.854102 
L 2.179628 0.708204 
L 5.706339 -1.854102 
L 1.347084 -1.854102 
z
" id="m870185b1f3" style="stroke:#ff7500;stroke-linejoin:bevel;stroke-width:1.5;"/>
    </defs>
    <g>
     <use style="fill-opacity:0;stroke:#ff7500;stroke-linejoin:bevel;stroke-width:1.5;" x="193.798869" xlink:href="#m870185b1f3" y="218.796424"/>
     <use style="fill-opacity:0;stroke:#ff7500;stroke-linejoin:bevel;stroke-width:1.5;" x="218.486936" xlink:href="#m870185b1f3" y="28.002635"/>
     <use style="fill-opacity:0;stroke:#ff7500;stroke-linejoin:bevel;stroke-width:1.5;" x="218.486936" xlink:href="#m870185b1f3" y="27.648"/>
     <use style="fill-opacity:0;stroke:#ff7500;stroke-linejoin:bevel;stroke-width:1.5;" x="218.486936" xlink:href="#m870185b1f3" y="27.648"/>
     <use style="fill-opacity:0;stroke:#ff7500;stroke-linejoin:bevel;stroke-width:1.5;" x="360.8064" xlink:href="#m870185b1f3" y="27.648"/>
    </g>
   </g>
   <g id="line2d_47">
    <path style="fill:none;stroke:#ff7500;stroke-linecap:square;stroke-width:1.5;"/>
    <g/>
   </g>
   <g id="line2d_48">
    <path clip-path="url(#p4c29d9da0b)" d="M 166.091467 291.851294 
" style="fill:none;stroke:#ff7500;stroke-linecap:square;stroke-width:1.5;"/>
    <defs>
     <path d="M -12 12 
L 12 -12 
M -12 -12 
L 12 12 
" id="mc9a0a18cb9" style="stroke:#ff7500;"/>
    </defs>
    <g clip-path="url(#p4c29d9da0b)">
     <use style="fill:#ff7500;stroke:#ff7500;" x="166.091467" xlink:href="#mc9a0a18cb9" y="291.851294"/>
    </g>
   </g>
   <g id="line2d_49">
    <path d="M 360.8064 27.648 
L 380.514816 293.51808 
" style="fill:none;stroke:#000080;stroke-linecap:square;stroke-width:1.5;"/>
    <g>
     <use style="fill-opacity:0;stroke:#000080;stroke-width:1.5;" x="360.8064" xlink:href="#m3450ddcfb1" y="27.648"/>
     <use style="fill-opacity:0;stroke:#000080;stroke-width:1.5;" x="380.514816" xlink:href="#m3450ddcfb1" y="293.51808"/>
    </g>
   </g>
   <g id="line2d_50">
    <path d="M 360.8064 27.648 
L 380.514816 206.70336 
" style="fill:none;stroke:#ff7500;stroke-linecap:square;stroke-width:1.5;"/>
    <g>
     <use style="fill-opacity:0;stroke:#ff7500;stroke-linejoin:bevel;stroke-width:1.5;" x="360.8064" xlink:href="#m870185b1f3" y="27.648"/>
     <use style="fill-opacity:0;stroke:#ff7500;stroke-linejoin:bevel;stroke-width:1.5;" x="380.514816" xlink:href="#m870185b1f3" y="206.70336"/>
    </g>
   </g>
   <g id="line2d_51">
    <path d="M 360.8064 27.648 
L 380.514816 119.88864 
" style="fill:none;stroke:#ff00ff;stroke-linecap:square;stroke-width:1.5;"/>
    <g>
     <use style="fill-opacity:0;stroke:#ff00ff;stroke-linejoin:miter;stroke-width:1.5;" x="360.8064" xlink:href="#ma60b8de070" y="27.648"/>
     <use style="fill-opacity:0;stroke:#ff00ff;stroke-linejoin:miter;stroke-width:1.5;" x="380.514816" xlink:href="#ma60b8de070" y="119.88864"/>
    </g>
   </g>
   <g id="line2d_52">
    <path d="M 360.8064 298.944 
L 360.8064 27.648 
" style="fill:none;stroke:#000000;stroke-linecap:square;stroke-width:1.5;"/>
   </g>
   <g id="patch_3">
    <path d="M 57.6 298.944 
L 360.8064 298.944 
" style="fill:none;stroke:#000000;stroke-linecap:square;stroke-linejoin:miter;stroke-width:0.8;"/>
   </g>
   <g id="patch_4">
    <path d="M 57.6 27.648 
L 360.8064 27.648 
" style="fill:none;stroke:#000000;stroke-linecap:square;stroke-linejoin:miter;stroke-width:0.8;"/>
   </g>
   <g id="text_13">
    <!-- different -->
    <g transform="translate(386.578944 297.381205)scale(0.14 -0.14)">
     <use xlink:href="#DejaVuSans-64"/>
     <use x="63.476562" xlink:href="#DejaVuSans-69"/>
     <use x="91.259766" xlink:href="#DejaVuSans-66"/>
     <use x="126.464844" xlink:href="#DejaVuSans-66"/>
     <use x="161.669922" xlink:href="#DejaVuSans-65"/>
     <use x="223.193359" xlink:href="#DejaVuSans-72"/>
     <use x="262.056641" xlink:href="#DejaVuSans-65"/>
     <use x="323.580078" xlink:href="#DejaVuSans-6e"/>
     <use x="386.958984" xlink:href="#DejaVuSans-74"/>
    </g>
   </g>
   <g id="text_14">
    <!-- diffcma b -->
    <g transform="translate(386.578944 210.566485)scale(0.14 -0.14)">
     <defs>
      <path d="M 3116 1747 
Q 3116 2381 2855 2742 
Q 2594 3103 2138 3103 
Q 1681 3103 1420 2742 
Q 1159 2381 1159 1747 
Q 1159 1113 1420 752 
Q 1681 391 2138 391 
Q 2594 391 2855 752 
Q 3116 1113 3116 1747 
z
M 1159 2969 
Q 1341 3281 1617 3432 
Q 1894 3584 2278 3584 
Q 2916 3584 3314 3078 
Q 3713 2572 3713 1747 
Q 3713 922 3314 415 
Q 2916 -91 2278 -91 
Q 1894 -91 1617 61 
Q 1341 213 1159 525 
L 1159 0 
L 581 0 
L 581 4863 
L 1159 4863 
L 1159 2969 
z
" id="DejaVuSans-62" transform="scale(0.015625)"/>
     </defs>
     <use xlink:href="#DejaVuSans-64"/>
     <use x="63.476562" xlink:href="#DejaVuSans-69"/>
     <use x="91.259766" xlink:href="#DejaVuSans-66"/>
     <use x="126.464844" xlink:href="#DejaVuSans-66"/>
     <use x="161.669922" xlink:href="#DejaVuSans-63"/>
     <use x="216.650391" xlink:href="#DejaVuSans-6d"/>
     <use x="314.0625" xlink:href="#DejaVuSans-61"/>
     <use x="375.341797" xlink:href="#DejaVuSans-20"/>
     <use x="407.128906" xlink:href="#DejaVuSans-62"/>
    </g>
   </g>
   <g id="text_15">
    <!-- cma.fmin  -->
    <g transform="translate(386.578944 123.751765)scale(0.14 -0.14)">
     <use xlink:href="#DejaVuSans-63"/>
     <use x="54.980469" xlink:href="#DejaVuSans-6d"/>
     <use x="152.392578" xlink:href="#DejaVuSans-61"/>
     <use x="213.671875" xlink:href="#DejaVuSans-2e"/>
     <use x="245.458984" xlink:href="#DejaVuSans-66"/>
     <use x="280.664062" xlink:href="#DejaVuSans-6d"/>
     <use x="378.076172" xlink:href="#DejaVuSans-69"/>
     <use x="405.859375" xlink:href="#DejaVuSans-6e"/>
     <use x="469.238281" xlink:href="#DejaVuSans-20"/>
    </g>
   </g>
   <g id="text_16">
    <!-- best 2009 -->
    <g transform="translate(386.578944 36.937045)scale(0.14 -0.14)">
     <defs>
      <path d="M 703 97 
L 703 672 
Q 941 559 1184 500 
Q 1428 441 1663 441 
Q 2288 441 2617 861 
Q 2947 1281 2994 2138 
Q 2813 1869 2534 1725 
Q 2256 1581 1919 1581 
Q 1219 1581 811 2004 
Q 403 2428 403 3163 
Q 403 3881 828 4315 
Q 1253 4750 1959 4750 
Q 2769 4750 3195 4129 
Q 3622 3509 3622 2328 
Q 3622 1225 3098 567 
Q 2575 -91 1691 -91 
Q 1453 -91 1209 -44 
Q 966 3 703 97 
z
M 1959 2075 
Q 2384 2075 2632 2365 
Q 2881 2656 2881 3163 
Q 2881 3666 2632 3958 
Q 2384 4250 1959 4250 
Q 1534 4250 1286 3958 
Q 1038 3666 1038 3163 
Q 1038 2656 1286 2365 
Q 1534 2075 1959 2075 
z
" id="DejaVuSans-39" transform="scale(0.015625)"/>
     </defs>
     <use xlink:href="#DejaVuSans-62"/>
     <use x="63.476562" xlink:href="#DejaVuSans-65"/>
     <use x="125" xlink:href="#DejaVuSans-73"/>
     <use x="177.099609" xlink:href="#DejaVuSans-74"/>
     <use x="216.308594" xlink:href="#DejaVuSans-20"/>
     <use x="248.095703" xlink:href="#DejaVuSans-32"/>
     <use x="311.71875" xlink:href="#DejaVuSans-30"/>
     <use x="375.341797" xlink:href="#DejaVuSans-30"/>
     <use x="438.964844" xlink:href="#DejaVuSans-39"/>
    </g>
   </g>
   <g id="text_17">
    <!-- bbob f10, 3-D -->
    <g transform="translate(60.632064 38.111366)scale(0.102 -0.102)">
     <defs>
      <path d="M 2597 2516 
Q 3050 2419 3304 2112 
Q 3559 1806 3559 1356 
Q 3559 666 3084 287 
Q 2609 -91 1734 -91 
Q 1441 -91 1130 -33 
Q 819 25 488 141 
L 488 750 
Q 750 597 1062 519 
Q 1375 441 1716 441 
Q 2309 441 2620 675 
Q 2931 909 2931 1356 
Q 2931 1769 2642 2001 
Q 2353 2234 1838 2234 
L 1294 2234 
L 1294 2753 
L 1863 2753 
Q 2328 2753 2575 2939 
Q 2822 3125 2822 3475 
Q 2822 3834 2567 4026 
Q 2313 4219 1838 4219 
Q 1578 4219 1281 4162 
Q 984 4106 628 3988 
L 628 4550 
Q 988 4650 1302 4700 
Q 1616 4750 1894 4750 
Q 2613 4750 3031 4423 
Q 3450 4097 3450 3541 
Q 3450 3153 3228 2886 
Q 3006 2619 2597 2516 
z
" id="DejaVuSans-33" transform="scale(0.015625)"/>
      <path d="M 1259 4147 
L 1259 519 
L 2022 519 
Q 2988 519 3436 956 
Q 3884 1394 3884 2338 
Q 3884 3275 3436 3711 
Q 2988 4147 2022 4147 
L 1259 4147 
z
M 628 4666 
L 1925 4666 
Q 3281 4666 3915 4102 
Q 4550 3538 4550 2338 
Q 4550 1131 3912 565 
Q 3275 0 1925 0 
L 628 0 
L 628 4666 
z
" id="DejaVuSans-44" transform="scale(0.015625)"/>
     </defs>
     <use xlink:href="#DejaVuSans-62"/>
     <use x="63.476562" xlink:href="#DejaVuSans-62"/>
     <use x="126.953125" xlink:href="#DejaVuSans-6f"/>
     <use x="188.134766" xlink:href="#DejaVuSans-62"/>
     <use x="251.611328" xlink:href="#DejaVuSans-20"/>
     <use x="283.398438" xlink:href="#DejaVuSans-66"/>
     <use x="318.603516" xlink:href="#DejaVuSans-31"/>
     <use x="382.226562" xlink:href="#DejaVuSans-30"/>
     <use x="445.849609" xlink:href="#DejaVuSans-2c"/>
     <use x="477.636719" xlink:href="#DejaVuSans-20"/>
     <use x="509.423828" xlink:href="#DejaVuSans-33"/>
     <use x="573.046875" xlink:href="#DejaVuSans-2d"/>
     <use x="609.130859" xlink:href="#DejaVuSans-44"/>
    </g>
    <!-- 51 targets: 100..1e-08 -->
    <g transform="translate(60.632064 49.533135)scale(0.102 -0.102)">
     <defs>
      <path d="M 691 4666 
L 3169 4666 
L 3169 4134 
L 1269 4134 
L 1269 2991 
Q 1406 3038 1543 3061 
Q 1681 3084 1819 3084 
Q 2600 3084 3056 2656 
Q 3513 2228 3513 1497 
Q 3513 744 3044 326 
Q 2575 -91 1722 -91 
Q 1428 -91 1123 -41 
Q 819 9 494 109 
L 494 744 
Q 775 591 1075 516 
Q 1375 441 1709 441 
Q 2250 441 2565 725 
Q 2881 1009 2881 1497 
Q 2881 1984 2565 2268 
Q 2250 2553 1709 2553 
Q 1456 2553 1204 2497 
Q 953 2441 691 2322 
L 691 4666 
z
" id="DejaVuSans-35" transform="scale(0.015625)"/>
      <path d="M 750 794 
L 1409 794 
L 1409 0 
L 750 0 
L 750 794 
z
M 750 3309 
L 1409 3309 
L 1409 2516 
L 750 2516 
L 750 3309 
z
" id="DejaVuSans-3a" transform="scale(0.015625)"/>
     </defs>
     <use xlink:href="#DejaVuSans-35"/>
     <use x="63.623047" xlink:href="#DejaVuSans-31"/>
     <use x="127.246094" xlink:href="#DejaVuSans-20"/>
     <use x="159.033203" xlink:href="#DejaVuSans-74"/>
     <use x="198.242188" xlink:href="#DejaVuSans-61"/>
     <use x="259.521484" xlink:href="#DejaVuSans-72"/>
     <use x="298.884766" xlink:href="#DejaVuSans-67"/>
     <use x="362.361328" xlink:href="#DejaVuSans-65"/>
     <use x="423.884766" xlink:href="#DejaVuSans-74"/>
     <use x="463.09375" xlink:href="#DejaVuSans-73"/>
     <use x="515.193359" xlink:href="#DejaVuSans-3a"/>
     <use x="548.884766" xlink:href="#DejaVuSans-20"/>
     <use x="580.671875" xlink:href="#DejaVuSans-31"/>
     <use x="644.294922" xlink:href="#DejaVuSans-30"/>
     <use x="707.917969" xlink:href="#DejaVuSans-30"/>
     <use x="771.541016" xlink:href="#DejaVuSans-2e"/>
     <use x="803.328125" xlink:href="#DejaVuSans-2e"/>
     <use x="835.115234" xlink:href="#DejaVuSans-31"/>
     <use x="898.738281" xlink:href="#DejaVuSans-65"/>
     <use x="960.261719" xlink:href="#DejaVuSans-2d"/>
     <use x="996.345703" xlink:href="#DejaVuSans-30"/>
     <use x="1059.96875" xlink:href="#DejaVuSans-38"/>
    </g>
    <!-- 15 instances -->
    <g transform="translate(60.632064 60.954904)scale(0.102 -0.102)">
     <use xlink:href="#DejaVuSans-31"/>
     <use x="63.623047" xlink:href="#DejaVuSans-35"/>
     <use x="127.246094" xlink:href="#DejaVuSans-20"/>
     <use x="159.033203" xlink:href="#DejaVuSans-69"/>
     <use x="186.816406" xlink:href="#DejaVuSans-6e"/>
     <use x="250.195312" xlink:href="#DejaVuSans-73"/>
     <use x="302.294922" xlink:href="#DejaVuSans-74"/>
     <use x="341.503906" xlink:href="#DejaVuSans-61"/>
     <use x="402.783203" xlink:href="#DejaVuSans-6e"/>
     <use x="466.162109" xlink:href="#DejaVuSans-63"/>
     <use x="521.142578" xlink:href="#DejaVuSans-65"/>
     <use x="582.666016" xlink:href="#DejaVuSans-73"/>
    </g>
   </g>
   <g id="text_18">
    <!-- v2.6 -->
    <g style="fill:#808080;" transform="translate(198.292262 294.151352)scale(0.1 -0.1)">
     <use xlink:href="#DejaVuSans-76"/>
     <use x="59.179688" xlink:href="#DejaVuSans-32"/>
     <use x="122.802734" xlink:href="#DejaVuSans-2e"/>
     <use x="154.589844" xlink:href="#DejaVuSans-36"/>
    </g>
   </g>
   <g id="text_19">
    <!-- 10 Ellipsoid -->
    <g transform="translate(151.843825 21.648)scale(0.2 -0.2)">
     <defs>
      <path d="M 628 4666 
L 3578 4666 
L 3578 4134 
L 1259 4134 
L 1259 2753 
L 3481 2753 
L 3481 2222 
L 1259 2222 
L 1259 531 
L 3634 531 
L 3634 0 
L 628 0 
L 628 4666 
z
" id="DejaVuSans-45" transform="scale(0.015625)"/>
     </defs>
     <use xlink:href="#DejaVuSans-31"/>
     <use x="63.623047" xlink:href="#DejaVuSans-30"/>
     <use x="127.246094" xlink:href="#DejaVuSans-20"/>
     <use x="159.033203" xlink:href="#DejaVuSans-45"/>
     <use x="222.216797" xlink:href="#DejaVuSans-6c"/>
     <use x="250" xlink:href="#DejaVuSans-6c"/>
     <use x="277.783203" xlink:href="#DejaVuSans-69"/>
     <use x="305.566406" xlink:href="#DejaVuSans-70"/>
     <use x="369.042969" xlink:href="#DejaVuSans-73"/>
     <use x="421.142578" xlink:href="#DejaVuSans-6f"/>
     <use x="482.324219" xlink:href="#DejaVuSans-69"/>
     <use x="510.107422" xlink:href="#DejaVuSans-64"/>
    </g>
   </g>
  </g>
 </g>
 <defs>
  <clipPath id="p4c29d9da0b">
   <rect height="271.296" width="303.2064" x="57.6" y="27.648"/>
  </clipPath>
 </defs>
</svg>
