<?xml version="1.0" encoding="utf-8" standalone="no"?>
<!DOCTYPE svg PUBLIC "-//W3C//DTD SVG 1.1//EN"
  "http://www.w3.org/Graphics/SVG/1.1/DTD/svg11.dtd">
<svg height="345.6pt" version="1.1" viewBox="0 0 460.8 345.6" width="460.8pt" xmlns="http://www.w3.org/2000/svg" xmlns:xlink="http://www.w3.org/1999/xlink">
 <metadata>
  <rdf:RDF xmlns:cc="http://creativecommons.org/ns#" xmlns:dc="http://purl.org/dc/elements/1.1/" xmlns:rdf="http://www.w3.org/1999/02/22-rdf-syntax-ns#">
   <cc:Work>
    <dc:type rdf:resource="http://purl.org/dc/dcmitype/StillImage"/>
    <dc:date>2022-05-07T21:24:50.958677</dc:date>
    <dc:format>image/svg+xml</dc:format>
    <dc:creator>
     <cc:Agent>
      <dc:title>Matplotlib v3.4.3, https://matplotlib.org/</dc:title>
     </cc:Agent>
    </dc:creator>
   </cc:Work>
  </rdf:RDF>
 </metadata>
 <defs>
  <style type="text/css">*{stroke-linecap:butt;stroke-linejoin:round;}</style>
 </defs>
 <g id="figure_1">
  <g id="patch_1">
   <path d="M 0 345.6 
L 460.8 345.6 
L 460.8 0 
L 0 0 
z
" style="fill:#ffffff;"/>
  </g>
  <g id="axes_1">
   <g id="patch_2">
    <path d="M 57.6 298.944 
L 360.8064 298.944 
L 360.8064 27.648 
L 57.6 27.648 
z
" style="fill:#ffffff;"/>
   </g>
   <g id="line2d_1">
    <path d="M 14.2848 298.944 
L 14.2848 293.624471 
L 34.951403 293.624471 
L 34.951403 288.304941 
L 53.402323 288.304941 
L 53.402323 282.985412 
L 66.441498 282.985412 
L 66.441498 277.665882 
L 72.432107 277.665882 
L 72.432107 251.068235 
L 73.268314 251.068235 
L 73.268314 27.648 
L 360.8064 27.648 
" style="fill:none;stroke:#f5deb3;stroke-linecap:square;stroke-width:4;"/>
   </g>
   <g id="line2d_2">
    <defs>
     <path d="M -0 7.778175 
L 7.778175 0 
L 0 -7.778175 
L -7.778175 -0 
z
" id="m6224798d85" style="stroke:#f5deb3;stroke-linejoin:miter;stroke-width:1.5;"/>
    </defs>
    <g>
     <use style="fill:#f5deb3;stroke:#f5deb3;stroke-linejoin:miter;stroke-width:1.5;" x="72.432107" xlink:href="#m6224798d85" y="251.068235"/>
     <use style="fill:#f5deb3;stroke:#f5deb3;stroke-linejoin:miter;stroke-width:1.5;" x="73.268314" xlink:href="#m6224798d85" y="251.068235"/>
     <use style="fill:#f5deb3;stroke:#f5deb3;stroke-linejoin:miter;stroke-width:1.5;" x="73.268314" xlink:href="#m6224798d85" y="251.068235"/>
     <use style="fill:#f5deb3;stroke:#f5deb3;stroke-linejoin:miter;stroke-width:1.5;" x="73.268314" xlink:href="#m6224798d85" y="27.648"/>
     <use style="fill:#f5deb3;stroke:#f5deb3;stroke-linejoin:miter;stroke-width:1.5;" x="73.268314" xlink:href="#m6224798d85" y="27.648"/>
     <use style="fill:#f5deb3;stroke:#f5deb3;stroke-linejoin:miter;stroke-width:1.5;" x="360.8064" xlink:href="#m6224798d85" y="27.648"/>
    </g>
   </g>
   <g id="line2d_3">
    <path style="fill:none;stroke:#f5deb3;stroke-linecap:square;stroke-width:4;"/>
    <g/>
   </g>
   <g id="line2d_4">
    <path d="M 360.8064 27.648 
L 380.514816 33.07392 
" style="fill:none;stroke:#f5deb3;stroke-linecap:square;stroke-width:4;"/>
    <g>
     <use style="fill:#f5deb3;stroke:#f5deb3;stroke-linejoin:miter;stroke-width:1.5;" x="360.8064" xlink:href="#m6224798d85" y="27.648"/>
     <use style="fill:#f5deb3;stroke:#f5deb3;stroke-linejoin:miter;stroke-width:1.5;" x="380.514816" xlink:href="#m6224798d85" y="33.07392"/>
    </g>
   </g>
   <g id="matplotlib.axis_1">
    <g id="xtick_1">
     <g id="line2d_5">
      <path clip-path="url(#p6ef7a8e31f)" d="M 57.6 298.944 
L 57.6 27.648 
" style="fill:none;stroke:#b0b0b0;stroke-linecap:square;stroke-width:0.8;"/>
     </g>
     <g id="line2d_6">
      <defs>
       <path d="M 0 0 
L 0 3.5 
" id="m97b20bd5db" style="stroke:#000000;stroke-width:0.8;"/>
      </defs>
      <g>
       <use style="stroke:#000000;stroke-width:0.8;" x="57.6" xlink:href="#m97b20bd5db" y="298.944"/>
      </g>
     </g>
     <g id="text_1">
      <!-- 0 -->
      <g transform="translate(52.191875 318.861344)scale(0.17 -0.17)">
       <defs>
        <path d="M 2034 4250 
Q 1547 4250 1301 3770 
Q 1056 3291 1056 2328 
Q 1056 1369 1301 889 
Q 1547 409 2034 409 
Q 2525 409 2770 889 
Q 3016 1369 3016 2328 
Q 3016 3291 2770 3770 
Q 2525 4250 2034 4250 
z
M 2034 4750 
Q 2819 4750 3233 4129 
Q 3647 3509 3647 2328 
Q 3647 1150 3233 529 
Q 2819 -91 2034 -91 
Q 1250 -91 836 529 
Q 422 1150 422 2328 
Q 422 3509 836 4129 
Q 1250 4750 2034 4750 
z
" id="DejaVuSans-30" transform="scale(0.015625)"/>
       </defs>
       <use xlink:href="#DejaVuSans-30"/>
      </g>
     </g>
    </g>
    <g id="xtick_2">
     <g id="line2d_7">
      <path clip-path="url(#p6ef7a8e31f)" d="M 144.2304 298.944 
L 144.2304 27.648 
" style="fill:none;stroke:#b0b0b0;stroke-linecap:square;stroke-width:0.8;"/>
     </g>
     <g id="line2d_8">
      <g>
       <use style="stroke:#000000;stroke-width:0.8;" x="144.2304" xlink:href="#m97b20bd5db" y="298.944"/>
      </g>
     </g>
     <g id="text_2">
      <!-- 2 -->
      <g transform="translate(138.822275 318.861344)scale(0.17 -0.17)">
       <defs>
        <path d="M 1228 531 
L 3431 531 
L 3431 0 
L 469 0 
L 469 531 
Q 828 903 1448 1529 
Q 2069 2156 2228 2338 
Q 2531 2678 2651 2914 
Q 2772 3150 2772 3378 
Q 2772 3750 2511 3984 
Q 2250 4219 1831 4219 
Q 1534 4219 1204 4116 
Q 875 4013 500 3803 
L 500 4441 
Q 881 4594 1212 4672 
Q 1544 4750 1819 4750 
Q 2544 4750 2975 4387 
Q 3406 4025 3406 3419 
Q 3406 3131 3298 2873 
Q 3191 2616 2906 2266 
Q 2828 2175 2409 1742 
Q 1991 1309 1228 531 
z
" id="DejaVuSans-32" transform="scale(0.015625)"/>
       </defs>
       <use xlink:href="#DejaVuSans-32"/>
      </g>
     </g>
    </g>
    <g id="xtick_3">
     <g id="line2d_9">
      <path clip-path="url(#p6ef7a8e31f)" d="M 230.8608 298.944 
L 230.8608 27.648 
" style="fill:none;stroke:#b0b0b0;stroke-linecap:square;stroke-width:0.8;"/>
     </g>
     <g id="line2d_10">
      <g>
       <use style="stroke:#000000;stroke-width:0.8;" x="230.8608" xlink:href="#m97b20bd5db" y="298.944"/>
      </g>
     </g>
     <g id="text_3">
      <!-- 4 -->
      <g transform="translate(225.452675 318.861344)scale(0.17 -0.17)">
       <defs>
        <path d="M 2419 4116 
L 825 1625 
L 2419 1625 
L 2419 4116 
z
M 2253 4666 
L 3047 4666 
L 3047 1625 
L 3713 1625 
L 3713 1100 
L 3047 1100 
L 3047 0 
L 2419 0 
L 2419 1100 
L 313 1100 
L 313 1709 
L 2253 4666 
z
" id="DejaVuSans-34" transform="scale(0.015625)"/>
       </defs>
       <use xlink:href="#DejaVuSans-34"/>
      </g>
     </g>
    </g>
    <g id="xtick_4">
     <g id="line2d_11">
      <path clip-path="url(#p6ef7a8e31f)" d="M 317.4912 298.944 
L 317.4912 27.648 
" style="fill:none;stroke:#b0b0b0;stroke-linecap:square;stroke-width:0.8;"/>
     </g>
     <g id="line2d_12">
      <g>
       <use style="stroke:#000000;stroke-width:0.8;" x="317.4912" xlink:href="#m97b20bd5db" y="298.944"/>
      </g>
     </g>
     <g id="text_4">
      <!-- 6 -->
      <g transform="translate(312.083075 318.861344)scale(0.17 -0.17)">
       <defs>
        <path d="M 2113 2584 
Q 1688 2584 1439 2293 
Q 1191 2003 1191 1497 
Q 1191 994 1439 701 
Q 1688 409 2113 409 
Q 2538 409 2786 701 
Q 3034 994 3034 1497 
Q 3034 2003 2786 2293 
Q 2538 2584 2113 2584 
z
M 3366 4563 
L 3366 3988 
Q 3128 4100 2886 4159 
Q 2644 4219 2406 4219 
Q 1781 4219 1451 3797 
Q 1122 3375 1075 2522 
Q 1259 2794 1537 2939 
Q 1816 3084 2150 3084 
Q 2853 3084 3261 2657 
Q 3669 2231 3669 1497 
Q 3669 778 3244 343 
Q 2819 -91 2113 -91 
Q 1303 -91 875 529 
Q 447 1150 447 2328 
Q 447 3434 972 4092 
Q 1497 4750 2381 4750 
Q 2619 4750 2861 4703 
Q 3103 4656 3366 4563 
z
" id="DejaVuSans-36" transform="scale(0.015625)"/>
       </defs>
       <use xlink:href="#DejaVuSans-36"/>
      </g>
     </g>
    </g>
    <g id="xtick_5">
     <g id="line2d_13">
      <path clip-path="url(#p6ef7a8e31f)" d="M 100.9152 298.944 
L 100.9152 27.648 
" style="fill:none;stroke:#b0b0b0;stroke-linecap:square;stroke-width:0.8;"/>
     </g>
     <g id="line2d_14">
      <defs>
       <path d="M 0 0 
L 0 2 
" id="m5a5f85c901" style="stroke:#000000;stroke-width:0.6;"/>
      </defs>
      <g>
       <use style="stroke:#000000;stroke-width:0.6;" x="100.9152" xlink:href="#m5a5f85c901" y="298.944"/>
      </g>
     </g>
    </g>
    <g id="xtick_6">
     <g id="line2d_15">
      <path clip-path="url(#p6ef7a8e31f)" d="M 187.5456 298.944 
L 187.5456 27.648 
" style="fill:none;stroke:#b0b0b0;stroke-linecap:square;stroke-width:0.8;"/>
     </g>
     <g id="line2d_16">
      <g>
       <use style="stroke:#000000;stroke-width:0.6;" x="187.5456" xlink:href="#m5a5f85c901" y="298.944"/>
      </g>
     </g>
    </g>
    <g id="xtick_7">
     <g id="line2d_17">
      <path clip-path="url(#p6ef7a8e31f)" d="M 274.176 298.944 
L 274.176 27.648 
" style="fill:none;stroke:#b0b0b0;stroke-linecap:square;stroke-width:0.8;"/>
     </g>
     <g id="line2d_18">
      <g>
       <use style="stroke:#000000;stroke-width:0.6;" x="274.176" xlink:href="#m5a5f85c901" y="298.944"/>
      </g>
     </g>
    </g>
    <g id="xtick_8">
     <g id="line2d_19">
      <path clip-path="url(#p6ef7a8e31f)" d="M 360.8064 298.944 
L 360.8064 27.648 
" style="fill:none;stroke:#b0b0b0;stroke-linecap:square;stroke-width:0.8;"/>
     </g>
     <g id="line2d_20">
      <g>
       <use style="stroke:#000000;stroke-width:0.6;" x="360.8064" xlink:href="#m5a5f85c901" y="298.944"/>
      </g>
     </g>
    </g>
    <g id="text_5">
     <!-- log10(# f-evals / dimension) -->
     <g transform="translate(88.823278 339.314156)scale(0.17 -0.17)">
      <defs>
       <path d="M 603 4863 
L 1178 4863 
L 1178 0 
L 603 0 
L 603 4863 
z
" id="DejaVuSans-6c" transform="scale(0.015625)"/>
       <path d="M 1959 3097 
Q 1497 3097 1228 2736 
Q 959 2375 959 1747 
Q 959 1119 1226 758 
Q 1494 397 1959 397 
Q 2419 397 2687 759 
Q 2956 1122 2956 1747 
Q 2956 2369 2687 2733 
Q 2419 3097 1959 3097 
z
M 1959 3584 
Q 2709 3584 3137 3096 
Q 3566 2609 3566 1747 
Q 3566 888 3137 398 
Q 2709 -91 1959 -91 
Q 1206 -91 779 398 
Q 353 888 353 1747 
Q 353 2609 779 3096 
Q 1206 3584 1959 3584 
z
" id="DejaVuSans-6f" transform="scale(0.015625)"/>
       <path d="M 2906 1791 
Q 2906 2416 2648 2759 
Q 2391 3103 1925 3103 
Q 1463 3103 1205 2759 
Q 947 2416 947 1791 
Q 947 1169 1205 825 
Q 1463 481 1925 481 
Q 2391 481 2648 825 
Q 2906 1169 2906 1791 
z
M 3481 434 
Q 3481 -459 3084 -895 
Q 2688 -1331 1869 -1331 
Q 1566 -1331 1297 -1286 
Q 1028 -1241 775 -1147 
L 775 -588 
Q 1028 -725 1275 -790 
Q 1522 -856 1778 -856 
Q 2344 -856 2625 -561 
Q 2906 -266 2906 331 
L 2906 616 
Q 2728 306 2450 153 
Q 2172 0 1784 0 
Q 1141 0 747 490 
Q 353 981 353 1791 
Q 353 2603 747 3093 
Q 1141 3584 1784 3584 
Q 2172 3584 2450 3431 
Q 2728 3278 2906 2969 
L 2906 3500 
L 3481 3500 
L 3481 434 
z
" id="DejaVuSans-67" transform="scale(0.015625)"/>
       <path d="M 794 531 
L 1825 531 
L 1825 4091 
L 703 3866 
L 703 4441 
L 1819 4666 
L 2450 4666 
L 2450 531 
L 3481 531 
L 3481 0 
L 794 0 
L 794 531 
z
" id="DejaVuSans-31" transform="scale(0.015625)"/>
       <path d="M 1984 4856 
Q 1566 4138 1362 3434 
Q 1159 2731 1159 2009 
Q 1159 1288 1364 580 
Q 1569 -128 1984 -844 
L 1484 -844 
Q 1016 -109 783 600 
Q 550 1309 550 2009 
Q 550 2706 781 3412 
Q 1013 4119 1484 4856 
L 1984 4856 
z
" id="DejaVuSans-28" transform="scale(0.015625)"/>
       <path d="M 3272 2816 
L 2363 2816 
L 2100 1772 
L 3016 1772 
L 3272 2816 
z
M 2803 4594 
L 2478 3297 
L 3391 3297 
L 3719 4594 
L 4219 4594 
L 3897 3297 
L 4872 3297 
L 4872 2816 
L 3775 2816 
L 3519 1772 
L 4513 1772 
L 4513 1294 
L 3397 1294 
L 3072 0 
L 2572 0 
L 2894 1294 
L 1978 1294 
L 1656 0 
L 1153 0 
L 1478 1294 
L 494 1294 
L 494 1772 
L 1594 1772 
L 1856 2816 
L 850 2816 
L 850 3297 
L 1978 3297 
L 2297 4594 
L 2803 4594 
z
" id="DejaVuSans-23" transform="scale(0.015625)"/>
       <path id="DejaVuSans-20" transform="scale(0.015625)"/>
       <path d="M 2375 4863 
L 2375 4384 
L 1825 4384 
Q 1516 4384 1395 4259 
Q 1275 4134 1275 3809 
L 1275 3500 
L 2222 3500 
L 2222 3053 
L 1275 3053 
L 1275 0 
L 697 0 
L 697 3053 
L 147 3053 
L 147 3500 
L 697 3500 
L 697 3744 
Q 697 4328 969 4595 
Q 1241 4863 1831 4863 
L 2375 4863 
z
" id="DejaVuSans-66" transform="scale(0.015625)"/>
       <path d="M 313 2009 
L 1997 2009 
L 1997 1497 
L 313 1497 
L 313 2009 
z
" id="DejaVuSans-2d" transform="scale(0.015625)"/>
       <path d="M 3597 1894 
L 3597 1613 
L 953 1613 
Q 991 1019 1311 708 
Q 1631 397 2203 397 
Q 2534 397 2845 478 
Q 3156 559 3463 722 
L 3463 178 
Q 3153 47 2828 -22 
Q 2503 -91 2169 -91 
Q 1331 -91 842 396 
Q 353 884 353 1716 
Q 353 2575 817 3079 
Q 1281 3584 2069 3584 
Q 2775 3584 3186 3129 
Q 3597 2675 3597 1894 
z
M 3022 2063 
Q 3016 2534 2758 2815 
Q 2500 3097 2075 3097 
Q 1594 3097 1305 2825 
Q 1016 2553 972 2059 
L 3022 2063 
z
" id="DejaVuSans-65" transform="scale(0.015625)"/>
       <path d="M 191 3500 
L 800 3500 
L 1894 563 
L 2988 3500 
L 3597 3500 
L 2284 0 
L 1503 0 
L 191 3500 
z
" id="DejaVuSans-76" transform="scale(0.015625)"/>
       <path d="M 2194 1759 
Q 1497 1759 1228 1600 
Q 959 1441 959 1056 
Q 959 750 1161 570 
Q 1363 391 1709 391 
Q 2188 391 2477 730 
Q 2766 1069 2766 1631 
L 2766 1759 
L 2194 1759 
z
M 3341 1997 
L 3341 0 
L 2766 0 
L 2766 531 
Q 2569 213 2275 61 
Q 1981 -91 1556 -91 
Q 1019 -91 701 211 
Q 384 513 384 1019 
Q 384 1609 779 1909 
Q 1175 2209 1959 2209 
L 2766 2209 
L 2766 2266 
Q 2766 2663 2505 2880 
Q 2244 3097 1772 3097 
Q 1472 3097 1187 3025 
Q 903 2953 641 2809 
L 641 3341 
Q 956 3463 1253 3523 
Q 1550 3584 1831 3584 
Q 2591 3584 2966 3190 
Q 3341 2797 3341 1997 
z
" id="DejaVuSans-61" transform="scale(0.015625)"/>
       <path d="M 2834 3397 
L 2834 2853 
Q 2591 2978 2328 3040 
Q 2066 3103 1784 3103 
Q 1356 3103 1142 2972 
Q 928 2841 928 2578 
Q 928 2378 1081 2264 
Q 1234 2150 1697 2047 
L 1894 2003 
Q 2506 1872 2764 1633 
Q 3022 1394 3022 966 
Q 3022 478 2636 193 
Q 2250 -91 1575 -91 
Q 1294 -91 989 -36 
Q 684 19 347 128 
L 347 722 
Q 666 556 975 473 
Q 1284 391 1588 391 
Q 1994 391 2212 530 
Q 2431 669 2431 922 
Q 2431 1156 2273 1281 
Q 2116 1406 1581 1522 
L 1381 1569 
Q 847 1681 609 1914 
Q 372 2147 372 2553 
Q 372 3047 722 3315 
Q 1072 3584 1716 3584 
Q 2034 3584 2315 3537 
Q 2597 3491 2834 3397 
z
" id="DejaVuSans-73" transform="scale(0.015625)"/>
       <path d="M 1625 4666 
L 2156 4666 
L 531 -594 
L 0 -594 
L 1625 4666 
z
" id="DejaVuSans-2f" transform="scale(0.015625)"/>
       <path d="M 2906 2969 
L 2906 4863 
L 3481 4863 
L 3481 0 
L 2906 0 
L 2906 525 
Q 2725 213 2448 61 
Q 2172 -91 1784 -91 
Q 1150 -91 751 415 
Q 353 922 353 1747 
Q 353 2572 751 3078 
Q 1150 3584 1784 3584 
Q 2172 3584 2448 3432 
Q 2725 3281 2906 2969 
z
M 947 1747 
Q 947 1113 1208 752 
Q 1469 391 1925 391 
Q 2381 391 2643 752 
Q 2906 1113 2906 1747 
Q 2906 2381 2643 2742 
Q 2381 3103 1925 3103 
Q 1469 3103 1208 2742 
Q 947 2381 947 1747 
z
" id="DejaVuSans-64" transform="scale(0.015625)"/>
       <path d="M 603 3500 
L 1178 3500 
L 1178 0 
L 603 0 
L 603 3500 
z
M 603 4863 
L 1178 4863 
L 1178 4134 
L 603 4134 
L 603 4863 
z
" id="DejaVuSans-69" transform="scale(0.015625)"/>
       <path d="M 3328 2828 
Q 3544 3216 3844 3400 
Q 4144 3584 4550 3584 
Q 5097 3584 5394 3201 
Q 5691 2819 5691 2113 
L 5691 0 
L 5113 0 
L 5113 2094 
Q 5113 2597 4934 2840 
Q 4756 3084 4391 3084 
Q 3944 3084 3684 2787 
Q 3425 2491 3425 1978 
L 3425 0 
L 2847 0 
L 2847 2094 
Q 2847 2600 2669 2842 
Q 2491 3084 2119 3084 
Q 1678 3084 1418 2786 
Q 1159 2488 1159 1978 
L 1159 0 
L 581 0 
L 581 3500 
L 1159 3500 
L 1159 2956 
Q 1356 3278 1631 3431 
Q 1906 3584 2284 3584 
Q 2666 3584 2933 3390 
Q 3200 3197 3328 2828 
z
" id="DejaVuSans-6d" transform="scale(0.015625)"/>
       <path d="M 3513 2113 
L 3513 0 
L 2938 0 
L 2938 2094 
Q 2938 2591 2744 2837 
Q 2550 3084 2163 3084 
Q 1697 3084 1428 2787 
Q 1159 2491 1159 1978 
L 1159 0 
L 581 0 
L 581 3500 
L 1159 3500 
L 1159 2956 
Q 1366 3272 1645 3428 
Q 1925 3584 2291 3584 
Q 2894 3584 3203 3211 
Q 3513 2838 3513 2113 
z
" id="DejaVuSans-6e" transform="scale(0.015625)"/>
       <path d="M 513 4856 
L 1013 4856 
Q 1481 4119 1714 3412 
Q 1947 2706 1947 2009 
Q 1947 1309 1714 600 
Q 1481 -109 1013 -844 
L 513 -844 
Q 928 -128 1133 580 
Q 1338 1288 1338 2009 
Q 1338 2731 1133 3434 
Q 928 4138 513 4856 
z
" id="DejaVuSans-29" transform="scale(0.015625)"/>
      </defs>
      <use xlink:href="#DejaVuSans-6c"/>
      <use x="27.783203" xlink:href="#DejaVuSans-6f"/>
      <use x="88.964844" xlink:href="#DejaVuSans-67"/>
      <use x="152.441406" xlink:href="#DejaVuSans-31"/>
      <use x="216.064453" xlink:href="#DejaVuSans-30"/>
      <use x="279.6875" xlink:href="#DejaVuSans-28"/>
      <use x="318.701172" xlink:href="#DejaVuSans-23"/>
      <use x="402.490234" xlink:href="#DejaVuSans-20"/>
      <use x="434.277344" xlink:href="#DejaVuSans-66"/>
      <use x="463.982422" xlink:href="#DejaVuSans-2d"/>
      <use x="500.066406" xlink:href="#DejaVuSans-65"/>
      <use x="561.589844" xlink:href="#DejaVuSans-76"/>
      <use x="620.769531" xlink:href="#DejaVuSans-61"/>
      <use x="682.048828" xlink:href="#DejaVuSans-6c"/>
      <use x="709.832031" xlink:href="#DejaVuSans-73"/>
      <use x="761.931641" xlink:href="#DejaVuSans-20"/>
      <use x="793.71875" xlink:href="#DejaVuSans-2f"/>
      <use x="827.410156" xlink:href="#DejaVuSans-20"/>
      <use x="859.197266" xlink:href="#DejaVuSans-64"/>
      <use x="922.673828" xlink:href="#DejaVuSans-69"/>
      <use x="950.457031" xlink:href="#DejaVuSans-6d"/>
      <use x="1047.869141" xlink:href="#DejaVuSans-65"/>
      <use x="1109.392578" xlink:href="#DejaVuSans-6e"/>
      <use x="1172.771484" xlink:href="#DejaVuSans-73"/>
      <use x="1224.871094" xlink:href="#DejaVuSans-69"/>
      <use x="1252.654297" xlink:href="#DejaVuSans-6f"/>
      <use x="1313.835938" xlink:href="#DejaVuSans-6e"/>
      <use x="1377.214844" xlink:href="#DejaVuSans-29"/>
     </g>
    </g>
   </g>
   <g id="matplotlib.axis_2">
    <g id="ytick_1">
     <g id="line2d_21">
      <path clip-path="url(#p6ef7a8e31f)" d="M 57.6 298.944 
L 360.8064 298.944 
" style="fill:none;stroke:#b0b0b0;stroke-linecap:square;stroke-width:0.8;"/>
     </g>
     <g id="line2d_22">
      <defs>
       <path d="M 0 0 
L -3.5 0 
" id="m73114b2a73" style="stroke:#000000;stroke-width:0.8;"/>
      </defs>
      <g>
       <use style="stroke:#000000;stroke-width:0.8;" x="57.6" xlink:href="#m73114b2a73" y="298.944"/>
      </g>
     </g>
     <g id="text_6">
      <!-- 0.0 -->
      <g transform="translate(25.155 305.02275)scale(0.16 -0.16)">
       <defs>
        <path d="M 684 794 
L 1344 794 
L 1344 0 
L 684 0 
L 684 794 
z
" id="DejaVuSans-2e" transform="scale(0.015625)"/>
       </defs>
       <use xlink:href="#DejaVuSans-30"/>
       <use x="63.623047" xlink:href="#DejaVuSans-2e"/>
       <use x="95.410156" xlink:href="#DejaVuSans-30"/>
      </g>
     </g>
    </g>
    <g id="ytick_2">
     <g id="line2d_23">
      <path clip-path="url(#p6ef7a8e31f)" d="M 57.6 244.6848 
L 360.8064 244.6848 
" style="fill:none;stroke:#b0b0b0;stroke-linecap:square;stroke-width:0.8;"/>
     </g>
     <g id="line2d_24">
      <g>
       <use style="stroke:#000000;stroke-width:0.8;" x="57.6" xlink:href="#m73114b2a73" y="244.6848"/>
      </g>
     </g>
     <g id="text_7">
      <!-- 0.2 -->
      <g transform="translate(25.155 250.76355)scale(0.16 -0.16)">
       <use xlink:href="#DejaVuSans-30"/>
       <use x="63.623047" xlink:href="#DejaVuSans-2e"/>
       <use x="95.410156" xlink:href="#DejaVuSans-32"/>
      </g>
     </g>
    </g>
    <g id="ytick_3">
     <g id="line2d_25">
      <path clip-path="url(#p6ef7a8e31f)" d="M 57.6 190.4256 
L 360.8064 190.4256 
" style="fill:none;stroke:#b0b0b0;stroke-linecap:square;stroke-width:0.8;"/>
     </g>
     <g id="line2d_26">
      <g>
       <use style="stroke:#000000;stroke-width:0.8;" x="57.6" xlink:href="#m73114b2a73" y="190.4256"/>
      </g>
     </g>
     <g id="text_8">
      <!-- 0.4 -->
      <g transform="translate(25.155 196.50435)scale(0.16 -0.16)">
       <use xlink:href="#DejaVuSans-30"/>
       <use x="63.623047" xlink:href="#DejaVuSans-2e"/>
       <use x="95.410156" xlink:href="#DejaVuSans-34"/>
      </g>
     </g>
    </g>
    <g id="ytick_4">
     <g id="line2d_27">
      <path clip-path="url(#p6ef7a8e31f)" d="M 57.6 136.1664 
L 360.8064 136.1664 
" style="fill:none;stroke:#b0b0b0;stroke-linecap:square;stroke-width:0.8;"/>
     </g>
     <g id="line2d_28">
      <g>
       <use style="stroke:#000000;stroke-width:0.8;" x="57.6" xlink:href="#m73114b2a73" y="136.1664"/>
      </g>
     </g>
     <g id="text_9">
      <!-- 0.6 -->
      <g transform="translate(25.155 142.24515)scale(0.16 -0.16)">
       <use xlink:href="#DejaVuSans-30"/>
       <use x="63.623047" xlink:href="#DejaVuSans-2e"/>
       <use x="95.410156" xlink:href="#DejaVuSans-36"/>
      </g>
     </g>
    </g>
    <g id="ytick_5">
     <g id="line2d_29">
      <path clip-path="url(#p6ef7a8e31f)" d="M 57.6 81.9072 
L 360.8064 81.9072 
" style="fill:none;stroke:#b0b0b0;stroke-linecap:square;stroke-width:0.8;"/>
     </g>
     <g id="line2d_30">
      <g>
       <use style="stroke:#000000;stroke-width:0.8;" x="57.6" xlink:href="#m73114b2a73" y="81.9072"/>
      </g>
     </g>
     <g id="text_10">
      <!-- 0.8 -->
      <g transform="translate(25.155 87.98595)scale(0.16 -0.16)">
       <defs>
        <path d="M 2034 2216 
Q 1584 2216 1326 1975 
Q 1069 1734 1069 1313 
Q 1069 891 1326 650 
Q 1584 409 2034 409 
Q 2484 409 2743 651 
Q 3003 894 3003 1313 
Q 3003 1734 2745 1975 
Q 2488 2216 2034 2216 
z
M 1403 2484 
Q 997 2584 770 2862 
Q 544 3141 544 3541 
Q 544 4100 942 4425 
Q 1341 4750 2034 4750 
Q 2731 4750 3128 4425 
Q 3525 4100 3525 3541 
Q 3525 3141 3298 2862 
Q 3072 2584 2669 2484 
Q 3125 2378 3379 2068 
Q 3634 1759 3634 1313 
Q 3634 634 3220 271 
Q 2806 -91 2034 -91 
Q 1263 -91 848 271 
Q 434 634 434 1313 
Q 434 1759 690 2068 
Q 947 2378 1403 2484 
z
M 1172 3481 
Q 1172 3119 1398 2916 
Q 1625 2713 2034 2713 
Q 2441 2713 2670 2916 
Q 2900 3119 2900 3481 
Q 2900 3844 2670 4047 
Q 2441 4250 2034 4250 
Q 1625 4250 1398 4047 
Q 1172 3844 1172 3481 
z
" id="DejaVuSans-38" transform="scale(0.015625)"/>
       </defs>
       <use xlink:href="#DejaVuSans-30"/>
       <use x="63.623047" xlink:href="#DejaVuSans-2e"/>
       <use x="95.410156" xlink:href="#DejaVuSans-38"/>
      </g>
     </g>
    </g>
    <g id="ytick_6">
     <g id="line2d_31">
      <path clip-path="url(#p6ef7a8e31f)" d="M 57.6 27.648 
L 360.8064 27.648 
" style="fill:none;stroke:#b0b0b0;stroke-linecap:square;stroke-width:0.8;"/>
     </g>
     <g id="line2d_32">
      <g>
       <use style="stroke:#000000;stroke-width:0.8;" x="57.6" xlink:href="#m73114b2a73" y="27.648"/>
      </g>
     </g>
     <g id="text_11">
      <!-- 1.0 -->
      <g transform="translate(25.155 33.72675)scale(0.16 -0.16)">
       <use xlink:href="#DejaVuSans-31"/>
       <use x="63.623047" xlink:href="#DejaVuSans-2e"/>
       <use x="95.410156" xlink:href="#DejaVuSans-30"/>
      </g>
     </g>
    </g>
    <g id="text_12">
     <!-- Fraction of function,target pairs -->
     <g transform="translate(17.619531 297.681)rotate(-90)scale(0.17 -0.17)">
      <defs>
       <path d="M 628 4666 
L 3309 4666 
L 3309 4134 
L 1259 4134 
L 1259 2759 
L 3109 2759 
L 3109 2228 
L 1259 2228 
L 1259 0 
L 628 0 
L 628 4666 
z
" id="DejaVuSans-46" transform="scale(0.015625)"/>
       <path d="M 2631 2963 
Q 2534 3019 2420 3045 
Q 2306 3072 2169 3072 
Q 1681 3072 1420 2755 
Q 1159 2438 1159 1844 
L 1159 0 
L 581 0 
L 581 3500 
L 1159 3500 
L 1159 2956 
Q 1341 3275 1631 3429 
Q 1922 3584 2338 3584 
Q 2397 3584 2469 3576 
Q 2541 3569 2628 3553 
L 2631 2963 
z
" id="DejaVuSans-72" transform="scale(0.015625)"/>
       <path d="M 3122 3366 
L 3122 2828 
Q 2878 2963 2633 3030 
Q 2388 3097 2138 3097 
Q 1578 3097 1268 2742 
Q 959 2388 959 1747 
Q 959 1106 1268 751 
Q 1578 397 2138 397 
Q 2388 397 2633 464 
Q 2878 531 3122 666 
L 3122 134 
Q 2881 22 2623 -34 
Q 2366 -91 2075 -91 
Q 1284 -91 818 406 
Q 353 903 353 1747 
Q 353 2603 823 3093 
Q 1294 3584 2113 3584 
Q 2378 3584 2631 3529 
Q 2884 3475 3122 3366 
z
" id="DejaVuSans-63" transform="scale(0.015625)"/>
       <path d="M 1172 4494 
L 1172 3500 
L 2356 3500 
L 2356 3053 
L 1172 3053 
L 1172 1153 
Q 1172 725 1289 603 
Q 1406 481 1766 481 
L 2356 481 
L 2356 0 
L 1766 0 
Q 1100 0 847 248 
Q 594 497 594 1153 
L 594 3053 
L 172 3053 
L 172 3500 
L 594 3500 
L 594 4494 
L 1172 4494 
z
" id="DejaVuSans-74" transform="scale(0.015625)"/>
       <path d="M 544 1381 
L 544 3500 
L 1119 3500 
L 1119 1403 
Q 1119 906 1312 657 
Q 1506 409 1894 409 
Q 2359 409 2629 706 
Q 2900 1003 2900 1516 
L 2900 3500 
L 3475 3500 
L 3475 0 
L 2900 0 
L 2900 538 
Q 2691 219 2414 64 
Q 2138 -91 1772 -91 
Q 1169 -91 856 284 
Q 544 659 544 1381 
z
M 1991 3584 
L 1991 3584 
z
" id="DejaVuSans-75" transform="scale(0.015625)"/>
       <path d="M 750 794 
L 1409 794 
L 1409 256 
L 897 -744 
L 494 -744 
L 750 256 
L 750 794 
z
" id="DejaVuSans-2c" transform="scale(0.015625)"/>
       <path d="M 1159 525 
L 1159 -1331 
L 581 -1331 
L 581 3500 
L 1159 3500 
L 1159 2969 
Q 1341 3281 1617 3432 
Q 1894 3584 2278 3584 
Q 2916 3584 3314 3078 
Q 3713 2572 3713 1747 
Q 3713 922 3314 415 
Q 2916 -91 2278 -91 
Q 1894 -91 1617 61 
Q 1341 213 1159 525 
z
M 3116 1747 
Q 3116 2381 2855 2742 
Q 2594 3103 2138 3103 
Q 1681 3103 1420 2742 
Q 1159 2381 1159 1747 
Q 1159 1113 1420 752 
Q 1681 391 2138 391 
Q 2594 391 2855 752 
Q 3116 1113 3116 1747 
z
" id="DejaVuSans-70" transform="scale(0.015625)"/>
      </defs>
      <use xlink:href="#DejaVuSans-46"/>
      <use x="50.269531" xlink:href="#DejaVuSans-72"/>
      <use x="91.382812" xlink:href="#DejaVuSans-61"/>
      <use x="152.662109" xlink:href="#DejaVuSans-63"/>
      <use x="207.642578" xlink:href="#DejaVuSans-74"/>
      <use x="246.851562" xlink:href="#DejaVuSans-69"/>
      <use x="274.634766" xlink:href="#DejaVuSans-6f"/>
      <use x="335.816406" xlink:href="#DejaVuSans-6e"/>
      <use x="399.195312" xlink:href="#DejaVuSans-20"/>
      <use x="430.982422" xlink:href="#DejaVuSans-6f"/>
      <use x="492.164062" xlink:href="#DejaVuSans-66"/>
      <use x="527.369141" xlink:href="#DejaVuSans-20"/>
      <use x="559.15625" xlink:href="#DejaVuSans-66"/>
      <use x="594.361328" xlink:href="#DejaVuSans-75"/>
      <use x="657.740234" xlink:href="#DejaVuSans-6e"/>
      <use x="721.119141" xlink:href="#DejaVuSans-63"/>
      <use x="776.099609" xlink:href="#DejaVuSans-74"/>
      <use x="815.308594" xlink:href="#DejaVuSans-69"/>
      <use x="843.091797" xlink:href="#DejaVuSans-6f"/>
      <use x="904.273438" xlink:href="#DejaVuSans-6e"/>
      <use x="967.652344" xlink:href="#DejaVuSans-2c"/>
      <use x="999.439453" xlink:href="#DejaVuSans-74"/>
      <use x="1038.648438" xlink:href="#DejaVuSans-61"/>
      <use x="1099.927734" xlink:href="#DejaVuSans-72"/>
      <use x="1139.291016" xlink:href="#DejaVuSans-67"/>
      <use x="1202.767578" xlink:href="#DejaVuSans-65"/>
      <use x="1264.291016" xlink:href="#DejaVuSans-74"/>
      <use x="1303.5" xlink:href="#DejaVuSans-20"/>
      <use x="1335.287109" xlink:href="#DejaVuSans-70"/>
      <use x="1398.763672" xlink:href="#DejaVuSans-61"/>
      <use x="1460.042969" xlink:href="#DejaVuSans-69"/>
      <use x="1487.826172" xlink:href="#DejaVuSans-72"/>
      <use x="1528.939453" xlink:href="#DejaVuSans-73"/>
     </g>
    </g>
   </g>
   <g id="line2d_33">
    <defs>
     <path d="M 0 1.5 
C 0.397805 1.5 0.77937 1.341951 1.06066 1.06066 
C 1.341951 0.77937 1.5 0.397805 1.5 0 
C 1.5 -0.397805 1.341951 -0.77937 1.06066 -1.06066 
C 0.77937 -1.341951 0.397805 -1.5 0 -1.5 
C -0.397805 -1.5 -0.77937 -1.341951 -1.06066 -1.06066 
C -1.341951 -0.77937 -1.5 -0.397805 -1.5 0 
C -1.5 0.397805 -1.341951 0.77937 -1.06066 1.06066 
C -0.77937 1.341951 -0.397805 1.5 0 1.5 
z
" id="m1066161702" style="stroke:#f5deb3;"/>
    </defs>
    <g>
     <use style="fill:#f5deb3;stroke:#f5deb3;" x="73.268314" xlink:href="#m1066161702" y="27.648"/>
     <use style="fill:#f5deb3;stroke:#f5deb3;" x="73.268314" xlink:href="#m1066161702" y="27.648"/>
    </g>
   </g>
   <g id="line2d_34">
    <defs>
     <path d="M 0 1.5 
C 0.397805 1.5 0.77937 1.341951 1.06066 1.06066 
C 1.341951 0.77937 1.5 0.397805 1.5 0 
C 1.5 -0.397805 1.341951 -0.77937 1.06066 -1.06066 
C 0.77937 -1.341951 0.397805 -1.5 0 -1.5 
C -0.397805 -1.5 -0.77937 -1.341951 -1.06066 -1.06066 
C -1.341951 -0.77937 -1.5 -0.397805 -1.5 0 
C -1.5 0.397805 -1.341951 0.77937 -1.06066 1.06066 
C -0.77937 1.341951 -0.397805 1.5 0 1.5 
z
" id="m8cc69468c9" style="stroke:#000080;"/>
    </defs>
    <g>
     <use style="fill:#000080;stroke:#000080;" x="183.644211" xlink:href="#m8cc69468c9" y="27.648"/>
     <use style="fill:#000080;stroke:#000080;" x="183.644211" xlink:href="#m8cc69468c9" y="27.648"/>
    </g>
   </g>
   <g id="line2d_35">
    <path d="M 14.2848 298.944 
L 14.2848 297.170824 
L 27.323974 297.170824 
L 27.323974 296.106918 
L 34.951403 296.106918 
L 34.951403 295.397647 
L 40.363149 295.397647 
L 40.363149 293.979106 
L 44.560826 293.979106 
L 44.560826 293.269835 
L 47.990577 293.269835 
L 47.990577 292.560565 
L 50.890391 292.560565 
L 50.890391 292.205929 
L 53.402323 292.205929 
L 53.402323 291.851294 
L 57.6 291.851294 
L 57.6 291.142024 
L 61.029752 291.142024 
L 61.029752 290.078118 
L 62.535479 290.078118 
L 62.535479 289.368847 
L 69.674268 289.368847 
L 69.674268 288.659576 
L 80.059535 288.659576 
L 80.059535 288.304941 
L 85.038813 288.304941 
L 85.038813 287.950306 
L 86.712053 287.950306 
L 86.712053 287.595671 
L 88.972154 287.595671 
L 88.972154 287.241035 
L 95.998523 287.241035 
L 95.998523 286.8864 
L 96.480897 286.8864 
L 96.480897 285.467859 
L 98.723018 285.467859 
L 98.723018 285.113224 
L 103.214303 285.113224 
L 103.214303 284.758588 
L 104.809458 284.758588 
L 104.809458 284.403953 
L 105.99483 284.403953 
L 105.99483 284.049318 
L 106.837279 284.049318 
L 106.837279 283.694682 
L 107.109915 283.694682 
L 107.109915 283.340047 
L 107.643612 283.340047 
L 107.643612 282.985412 
L 109.873904 282.985412 
L 109.873904 282.276141 
L 111.226215 282.276141 
L 111.226215 281.921506 
L 113.670063 281.921506 
L 113.670063 281.212235 
L 113.860081 281.212235 
L 113.860081 280.8576 
L 114.418881 280.8576 
L 114.418881 280.502965 
L 114.7824 280.502965 
L 114.7824 279.793694 
L 115.489021 279.793694 
L 115.489021 279.084424 
L 115.83262 279.084424 
L 115.83262 278.729788 
L 116.336531 278.729788 
L 116.336531 278.375153 
L 116.501546 278.375153 
L 116.501546 278.020518 
L 117.772007 278.020518 
L 117.772007 277.665882 
L 117.924947 277.665882 
L 117.924947 277.311247 
L 118.524569 277.311247 
L 118.524569 276.956612 
L 119.389621 276.956612 
L 119.389621 276.601976 
L 122.854567 276.601976 
L 122.854567 276.247341 
L 123.202939 276.247341 
L 123.202939 275.538071 
L 123.544976 275.538071 
L 123.544976 275.183435 
L 126.661432 275.183435 
L 126.661432 274.8288 
L 126.851931 274.8288 
L 126.851931 274.119529 
L 127.134109 274.119529 
L 127.227236 273.410259 
L 127.503881 273.410259 
L 127.503881 273.055624 
L 127.686077 273.055624 
L 127.686077 272.346353 
L 128.045258 272.346353 
L 128.045258 271.991718 
L 128.57149 271.991718 
L 128.57149 271.637082 
L 128.914307 271.637082 
L 128.914307 271.282447 
L 130.772751 271.282447 
L 130.772751 270.927812 
L 131.526822 270.927812 
L 131.526822 270.573176 
L 131.820186 270.573176 
L 131.820186 269.863906 
L 132.251827 269.863906 
L 132.251827 268.445365 
L 132.949924 268.445365 
L 132.949924 268.090729 
L 133.222067 268.090729 
L 133.222067 267.736094 
L 133.356676 267.736094 
L 133.356676 267.026824 
L 133.556801 267.026824 
L 133.556801 266.672188 
L 133.885683 266.672188 
L 133.885683 266.317553 
L 134.080287 266.317553 
L 134.080287 265.962918 
L 134.463557 265.962918 
L 134.463557 265.608282 
L 134.839175 265.608282 
L 134.839175 265.253647 
L 135.207439 265.253647 
L 135.207439 264.544376 
L 135.568632 264.544376 
L 135.568632 264.189741 
L 135.864417 264.189741 
L 135.864417 263.835106 
L 135.981441 263.835106 
L 135.981441 263.480471 
L 136.385386 263.480471 
L 136.385386 263.125835 
L 136.499223 263.125835 
L 136.499223 262.7712 
L 137.113304 262.7712 
L 137.113304 262.416565 
L 138.232735 262.416565 
L 138.232735 262.061929 
L 138.743257 262.061929 
L 138.743257 261.707294 
L 138.993414 261.707294 
L 138.993414 260.998024 
L 139.191172 260.998024 
L 139.191172 260.643388 
L 139.628669 260.643388 
L 139.628669 260.288753 
L 139.77227 260.288753 
L 139.77227 259.934118 
L 140.14993 259.934118 
L 140.14993 259.579482 
L 140.335954 259.579482 
L 140.382174 258.870212 
L 141.017607 258.870212 
L 141.017607 258.515576 
L 141.151022 258.515576 
L 141.151022 258.160941 
L 141.283499 258.160941 
L 141.283499 257.806306 
L 141.458695 257.806306 
L 141.458695 257.451671 
L 141.632274 257.451671 
L 141.632274 257.097035 
L 141.761416 257.097035 
L 141.761416 256.7424 
L 142.059343 256.7424 
L 142.059343 256.033129 
L 142.185595 256.033129 
L 142.185595 255.678494 
L 142.723105 255.678494 
L 142.723105 255.323859 
L 142.844994 255.323859 
L 142.885449 254.614588 
L 143.006295 254.614588 
L 143.006295 253.905318 
L 143.364242 253.905318 
L 143.364242 253.550682 
L 143.792681 253.550682 
L 143.792681 253.196047 
L 144.361622 253.196047 
L 144.361622 252.841412 
L 144.473374 252.841412 
L 144.473374 252.486776 
L 144.694906 252.486776 
L 144.731576 251.777506 
L 144.950106 251.777506 
L 144.950106 251.422871 
L 145.201889 251.422871 
L 145.201889 251.068235 
L 145.62583 251.068235 
L 145.62583 250.7136 
L 146.040426 250.7136 
L 146.142663 249.649694 
L 146.311833 249.649694 
L 146.311833 248.585788 
L 146.645676 248.585788 
L 146.645676 247.876518 
L 146.973697 247.876518 
L 147.070998 246.457976 
L 147.391749 246.457976 
L 147.391749 246.103341 
L 147.862847 246.103341 
L 147.893838 245.394071 
L 148.017294 245.394071 
L 148.017294 245.039435 
L 148.231412 245.039435 
L 148.231412 244.330165 
L 148.413021 244.330165 
L 148.503173 243.620894 
L 148.622706 243.620894 
L 148.711861 242.911624 
L 149.064312 242.911624 
L 149.064312 242.556988 
L 149.2669 242.556988 
L 149.2669 241.847718 
L 149.410282 241.847718 
L 149.410282 241.493082 
L 149.524205 241.493082 
L 149.524205 241.138447 
L 149.721926 241.138447 
L 149.721926 240.783812 
L 150.138743 240.783812 
L 150.138743 240.429176 
L 150.275654 240.429176 
L 150.302917 239.719906 
L 150.411576 239.719906 
L 150.519611 239.010635 
L 150.573397 239.010635 
L 150.680509 238.301365 
L 151.284843 238.301365 
L 151.284843 237.946729 
L 151.618026 237.946729 
L 151.618026 237.592094 
L 151.769835 237.592094 
L 151.795018 236.882824 
L 151.97036 236.882824 
L 151.97036 236.528188 
L 152.291722 236.528188 
L 152.365109 235.818918 
L 152.775647 235.818918 
L 152.847174 234.400376 
L 153.270716 234.400376 
L 153.270716 234.045741 
L 153.455939 234.045741 
L 153.455939 233.691106 
L 153.639356 233.691106 
L 153.639356 233.336471 
L 153.798392 233.336471 
L 153.798392 232.981835 
L 154.134722 232.981835 
L 154.245509 231.917929 
L 154.421422 231.917929 
L 154.421422 231.563294 
L 154.682245 231.563294 
L 154.789862 230.499388 
L 154.854139 230.499388 
L 154.960781 229.435482 
L 155.109071 229.435482 
L 155.214281 227.662306 
L 155.277126 227.662306 
L 155.277126 227.307671 
L 155.547053 227.307671 
L 155.649849 226.5984 
L 155.85377 226.5984 
L 155.954908 225.179859 
L 156.07556 225.179859 
L 156.175515 224.470588 
L 156.294765 224.470588 
L 156.354107 222.697412 
L 156.413263 222.697412 
L 156.413263 222.342776 
L 156.648044 222.342776 
L 156.648044 221.988141 
L 156.87993 221.988141 
L 156.899125 220.924235 
L 156.99481 220.924235 
L 156.99481 220.5696 
L 157.241336 220.5696 
L 157.241336 220.214965 
L 157.410135 220.214965 
L 157.503261 218.796424 
L 157.925804 218.796424 
L 158.034489 217.732518 
L 158.070579 217.732518 
L 158.1605 216.668612 
L 158.515949 216.668612 
L 158.533546 215.959341 
L 158.951018 215.959341 
L 159.053954 213.831529 
L 159.071056 213.831529 
L 159.173339 212.767624 
L 159.224273 212.767624 
L 159.224273 212.412988 
L 159.476894 212.412988 
L 159.476894 212.058353 
L 159.61025 212.058353 
L 159.643442 210.639812 
L 159.742668 210.639812 
L 159.775628 209.930541 
L 159.939564 209.930541 
L 159.939564 209.221271 
L 160.150567 209.221271 
L 160.150567 208.866635 
L 160.263211 208.866635 
L 160.327278 208.157365 
L 160.375185 208.157365 
L 160.375185 207.802729 
L 160.518179 207.802729 
L 160.518179 207.448094 
L 160.675797 207.448094 
L 160.707162 206.384188 
L 160.894266 206.384188 
L 161.002557 204.256376 
L 161.140877 204.256376 
L 161.202028 203.547106 
L 161.293384 203.547106 
L 161.369176 202.837835 
L 161.414505 202.837835 
L 161.504837 201.419294 
L 161.594737 201.419294 
L 161.654432 200.355388 
L 161.802848 200.355388 
L 161.832391 198.227576 
L 162.037903 198.227576 
L 162.06708 197.518306 
L 162.197817 197.518306 
L 162.226747 196.809035 
L 162.342023 196.809035 
L 162.342023 196.4544 
L 162.499383 196.4544 
L 162.542072 195.745129 
L 162.782162 195.745129 
L 162.824215 195.035859 
L 163.22595 195.035859 
L 163.280694 193.971953 
L 163.362513 193.971953 
L 163.362513 193.617318 
L 163.552052 193.617318 
L 163.605857 191.844141 
L 163.686277 191.844141 
L 163.686277 191.489506 
L 163.819551 191.489506 
L 163.925494 190.070965 
L 164.004562 190.070965 
L 164.09639 188.652424 
L 164.148663 188.652424 
L 164.148663 188.297788 
L 164.317552 188.297788 
L 164.317552 187.943153 
L 164.433594 187.943153 
L 164.446443 187.233882 
L 164.574457 187.233882 
L 164.574457 186.879247 
L 164.726932 186.879247 
L 164.8279 186.169976 
L 164.878182 186.169976 
L 164.903272 185.460706 
L 164.990826 185.460706 
L 164.990826 185.106071 
L 165.152353 185.106071 
L 165.214111 184.042165 
L 165.34927 184.042165 
L 165.434777 182.978259 
L 165.471304 182.978259 
L 165.471304 182.623624 
L 165.592552 182.623624 
L 165.676963 181.559718 
L 165.868492 181.559718 
L 165.96353 180.141176 
L 166.081656 180.141176 
L 166.175626 179.431906 
L 166.257466 179.431906 
L 166.257466 179.077271 
L 166.396941 179.077271 
L 166.489353 178.013365 
L 166.535389 178.013365 
L 166.558365 177.304094 
L 166.707029 177.304094 
L 166.718416 176.594824 
L 166.899679 176.594824 
L 167.000877 174.467012 
L 167.023292 174.467012 
L 167.023292 174.112376 
L 167.16834 174.112376 
L 167.16834 173.757741 
L 167.378342 173.757741 
L 167.455124 173.048471 
L 167.520688 173.048471 
L 167.520688 172.693835 
L 167.651136 172.693835 
L 167.694418 171.275294 
L 168.005271 171.275294 
L 168.068949 170.566024 
L 168.164064 170.566024 
L 168.258701 168.792847 
L 168.342424 168.792847 
L 168.342424 168.438212 
L 168.498408 168.438212 
L 168.498408 168.083576 
L 168.62227 168.083576 
L 168.653109 165.601129 
L 168.77596 165.601129 
L 168.816733 164.537224 
L 168.90815 164.537224 
L 168.90815 164.182588 
L 169.039418 164.182588 
L 169.039418 163.827953 
L 169.229637 163.827953 
L 169.338891 162.409412 
L 169.398218 162.409412 
L 169.398218 162.054776 
L 169.594634 162.054776 
L 169.594634 161.700141 
L 169.721213 161.700141 
L 169.818006 158.508424 
L 169.875843 158.508424 
L 169.962267 157.444518 
L 170.00055 157.444518 
L 170.09592 156.025976 
L 170.190808 156.025976 
L 170.190808 155.316706 
L 170.332249 155.316706 
L 170.4353 153.898165 
L 170.528496 153.898165 
L 170.630481 151.415718 
L 170.639725 151.415718 
L 170.685877 150.351812 
L 170.905844 150.351812 
L 170.978599 148.933271 
L 171.248949 148.933271 
L 171.347112 147.869365 
L 171.47131 147.869365 
L 171.568323 146.450824 
L 171.621029 146.450824 
L 171.621029 146.096188 
L 171.83906 146.096188 
L 171.934199 143.968376 
L 171.977286 143.968376 
L 171.985891 143.259106 
L 172.088851 143.259106 
L 172.088851 142.904471 
L 172.267686 142.904471 
L 172.301557 141.131294 
L 172.419631 141.131294 
L 172.503517 138.648847 
L 172.570358 138.648847 
L 172.595363 137.939576 
L 172.752956 137.939576 
L 172.860027 136.875671 
L 172.89285 136.875671 
L 172.966493 135.457129 
L 173.104813 135.457129 
L 173.209906 133.683953 
L 173.234075 133.683953 
L 173.242125 132.974682 
L 173.370449 132.974682 
L 173.418347 130.492235 
L 173.505842 130.492235 
L 173.60083 128.719059 
L 173.820621 128.719059 
L 173.867387 127.655153 
L 173.937319 127.655153 
L 174.037874 126.591247 
L 174.053297 126.591247 
L 174.13022 125.172706 
L 174.18388 125.172706 
L 174.275513 124.1088 
L 174.305959 124.1088 
L 174.404568 121.626353 
L 174.502663 121.626353 
L 174.607735 120.562447 
L 174.630174 120.562447 
L 174.734538 119.498541 
L 174.786503 119.498541 
L 174.897377 117.370729 
L 174.970932 117.370729 
L 175.036886 115.597553 
L 175.146298 115.597553 
L 175.226131 114.888282 
L 175.262307 114.888282 
L 175.334451 113.469741 
L 175.40632 113.469741 
L 175.506477 112.405835 
L 175.584799 112.405835 
L 175.648639 110.987294 
L 175.75456 110.987294 
L 175.831859 108.504847 
L 175.887877 108.504847 
L 175.950698 107.795576 
L 176.041072 107.795576 
L 176.151708 106.377035 
L 176.241123 106.377035 
L 176.350592 104.249224 
L 176.384671 104.249224 
L 176.486539 101.766776 
L 176.547396 101.766776 
L 176.601326 100.348235 
L 176.748842 100.348235 
L 176.788874 99.638965 
L 176.994358 99.638965 
L 177.086427 96.801882 
L 177.171518 96.801882 
L 177.236711 95.028706 
L 177.295193 95.028706 
L 177.372886 92.546259 
L 177.437387 92.546259 
L 177.437387 91.836988 
L 177.60406 91.836988 
L 177.667774 91.127718 
L 177.762943 91.127718 
L 177.813503 90.063812 
L 177.920494 90.063812 
L 177.983147 89.354541 
L 178.039357 89.354541 
L 178.138873 87.936 
L 178.200804 87.936 
L 178.305621 86.162824 
L 178.336339 86.162824 
L 178.446509 84.389647 
L 178.458711 84.389647 
L 178.51352 82.971106 
L 178.616613 82.971106 
L 178.71313 81.197929 
L 178.74319 81.197929 
L 178.83906 79.424753 
L 178.856981 79.424753 
L 178.964153 77.651576 
L 179.01159 77.651576 
L 179.070718 76.587671 
L 179.176682 76.587671 
L 179.258688 75.169129 
L 179.340338 75.169129 
L 179.41584 73.395953 
L 179.462152 73.395953 
L 179.560189 71.622776 
L 179.594669 71.622776 
L 179.697731 70.204235 
L 179.709147 70.204235 
L 179.788869 69.140329 
L 179.941672 69.140329 
L 180.014803 66.303247 
L 180.059666 66.303247 
L 180.110009 65.593976 
L 180.171357 65.593976 
L 180.265776 63.8208 
L 180.326619 63.8208 
L 180.414768 62.402259 
L 180.44223 62.402259 
L 180.518912 61.338353 
L 180.611606 61.338353 
L 180.682184 59.919812 
L 180.736294 59.919812 
L 180.822549 57.792 
L 180.919115 57.792 
L 180.983218 56.373459 
L 181.05773 56.373459 
L 181.163666 53.891012 
L 181.168947 53.891012 
L 181.237468 52.472471 
L 181.331933 52.472471 
L 181.399863 50.699294 
L 181.446749 50.699294 
L 181.540171 47.862212 
L 181.56604 47.862212 
L 181.653727 46.443671 
L 181.715379 46.443671 
L 181.74613 45.379765 
L 181.843176 45.379765 
L 181.899132 44.315859 
L 181.954923 44.315859 
L 182.06601 41.478776 
L 182.176445 41.478776 
L 182.23641 39.7056 
L 182.291211 39.7056 
L 182.390441 37.577788 
L 182.410224 37.577788 
L 182.513747 35.095341 
L 182.592241 35.095341 
L 182.675284 33.6768 
L 182.723962 33.6768 
L 182.7919 31.903624 
L 182.835445 31.903624 
L 182.835445 31.548988 
L 182.951076 31.548988 
L 183.051672 30.839718 
L 183.094621 30.839718 
L 183.113678 30.130447 
L 183.218147 30.130447 
L 183.31733 28.711906 
L 183.444086 28.711906 
L 183.444086 28.357271 
L 183.62105 28.357271 
L 183.644211 27.648 
L 360.8064 27.648 
L 360.8064 27.648 
" style="fill:none;stroke:#000080;stroke-linecap:square;stroke-width:1.5;"/>
   </g>
   <g id="line2d_36">
    <defs>
     <path d="M 0 6 
C 1.591219 6 3.117479 5.367802 4.242641 4.242641 
C 5.367802 3.117479 6 1.591219 6 0 
C 6 -1.591219 5.367802 -3.117479 4.242641 -4.242641 
C 3.117479 -5.367802 1.591219 -6 0 -6 
C -1.591219 -6 -3.117479 -5.367802 -4.242641 -4.242641 
C -5.367802 -3.117479 -6 -1.591219 -6 0 
C -6 1.591219 -5.367802 3.117479 -4.242641 4.242641 
C -3.117479 5.367802 -1.591219 6 0 6 
z
" id="m95dbfda1eb" style="stroke:#000080;stroke-width:1.5;"/>
    </defs>
    <g>
     <use style="fill-opacity:0;stroke:#000080;stroke-width:1.5;" x="111.226215" xlink:href="#m95dbfda1eb" y="282.276141"/>
     <use style="fill-opacity:0;stroke:#000080;stroke-width:1.5;" x="169.338891" xlink:href="#m95dbfda1eb" y="162.409412"/>
     <use style="fill-opacity:0;stroke:#000080;stroke-width:1.5;" x="183.644211" xlink:href="#m95dbfda1eb" y="28.002635"/>
     <use style="fill-opacity:0;stroke:#000080;stroke-width:1.5;" x="183.644211" xlink:href="#m95dbfda1eb" y="27.648"/>
     <use style="fill-opacity:0;stroke:#000080;stroke-width:1.5;" x="183.644211" xlink:href="#m95dbfda1eb" y="27.648"/>
     <use style="fill-opacity:0;stroke:#000080;stroke-width:1.5;" x="360.8064" xlink:href="#m95dbfda1eb" y="27.648"/>
    </g>
   </g>
   <g id="line2d_37">
    <path style="fill:none;stroke:#000080;stroke-linecap:square;stroke-width:1.5;"/>
    <g/>
   </g>
   <g id="line2d_38">
    <defs>
     <path d="M 0 1.5 
C 0.397805 1.5 0.77937 1.341951 1.06066 1.06066 
C 1.341951 0.77937 1.5 0.397805 1.5 0 
C 1.5 -0.397805 1.341951 -0.77937 1.06066 -1.06066 
C 0.77937 -1.341951 0.397805 -1.5 0 -1.5 
C -0.397805 -1.5 -0.77937 -1.341951 -1.06066 -1.06066 
C -1.341951 -0.77937 -1.5 -0.397805 -1.5 0 
C -1.5 0.397805 -1.341951 0.77937 -1.06066 1.06066 
C -0.77937 1.341951 -0.397805 1.5 0 1.5 
z
" id="m5d1dbfbd76" style="stroke:#ff00ff;"/>
    </defs>
    <g>
     <use style="fill:#ff00ff;stroke:#ff00ff;" x="187.464536" xlink:href="#m5d1dbfbd76" y="27.648"/>
     <use style="fill:#ff00ff;stroke:#ff00ff;" x="187.464536" xlink:href="#m5d1dbfbd76" y="27.648"/>
    </g>
   </g>
   <g id="line2d_39">
    <path d="M 14.2848 298.944 
L 14.2848 294.688376 
L 27.323974 294.688376 
L 27.323974 293.269835 
L 34.951403 293.269835 
L 34.951403 292.9152 
L 40.363149 292.9152 
L 40.363149 290.787388 
L 44.560826 290.787388 
L 44.560826 290.078118 
L 47.990577 290.078118 
L 47.990577 289.014212 
L 50.890391 289.014212 
L 50.890391 288.304941 
L 53.402323 288.304941 
L 53.402323 287.950306 
L 55.618005 287.950306 
L 55.618005 287.595671 
L 57.6 287.595671 
L 57.6 287.241035 
L 59.392932 287.241035 
L 59.392932 286.531765 
L 67.581941 286.531765 
L 67.581941 286.177129 
L 72.432107 286.177129 
L 72.432107 285.822494 
L 73.268314 285.822494 
L 73.268314 285.113224 
L 76.284608 285.113224 
L 76.284608 284.049318 
L 77.628862 284.049318 
L 77.628862 283.694682 
L 78.266603 283.694682 
L 78.266603 283.340047 
L 78.88343 283.340047 
L 78.88343 282.985412 
L 79.480672 282.985412 
L 79.480672 282.276141 
L 80.059535 282.276141 
L 80.059535 281.921506 
L 80.621116 281.921506 
L 80.621116 281.212235 
L 83.678349 281.212235 
L 83.678349 280.8576 
L 84.596168 280.8576 
L 84.596168 280.502965 
L 85.894031 280.502965 
L 85.894031 280.148329 
L 86.307488 280.148329 
L 86.307488 279.793694 
L 86.712053 279.793694 
L 86.712053 279.439059 
L 88.248544 279.439059 
L 88.248544 278.729788 
L 89.323782 278.729788 
L 89.323782 278.375153 
L 89.668958 278.375153 
L 89.668958 278.020518 
L 90.007914 278.020518 
L 90.007914 277.665882 
L 90.340871 277.665882 
L 90.340871 277.311247 
L 91.616719 277.311247 
L 91.616719 276.956612 
L 92.223596 276.956612 
L 92.223596 276.601976 
L 92.519847 276.601976 
L 92.519847 276.247341 
L 94.472426 276.247341 
L 94.472426 275.892706 
L 94.735529 275.892706 
L 94.735529 275.538071 
L 94.995002 275.538071 
L 94.995002 274.8288 
L 96.480897 274.8288 
L 96.480897 274.474165 
L 96.717523 274.474165 
L 96.717523 274.119529 
L 96.95121 274.119529 
L 96.95121 273.764894 
L 97.410051 273.764894 
L 97.410051 273.055624 
L 98.510456 273.055624 
L 98.510456 272.700988 
L 99.14107 272.700988 
L 99.14107 272.346353 
L 99.751228 272.346353 
L 99.751228 271.991718 
L 100.147275 271.991718 
L 100.147275 271.637082 
L 100.726138 271.637082 
L 100.726138 270.927812 
L 101.102381 270.927812 
L 101.102381 270.218541 
L 101.287718 270.218541 
L 101.287718 269.863906 
L 102.362957 269.863906 
L 102.362957 269.509271 
L 104.501065 269.509271 
L 104.501065 269.154635 
L 104.961779 269.154635 
L 104.961779 268.8 
L 105.112877 268.8 
L 105.112877 268.445365 
L 105.559021 268.445365 
L 105.559021 268.090729 
L 106.699465 268.090729 
L 106.699465 267.381459 
L 107.378656 267.381459 
L 107.378656 266.672188 
L 108.034177 266.672188 
L 108.034177 266.317553 
L 108.915146 266.317553 
L 108.915146 265.962918 
L 109.520071 265.962918 
L 109.520071 265.608282 
L 109.638757 265.608282 
L 109.638757 265.253647 
L 111.007473 265.253647 
L 111.117162 263.125835 
L 112.790402 263.125835 
L 112.790402 262.7712 
L 113.088217 262.7712 
L 113.186449 261.707294 
L 114.048198 261.707294 
L 114.048198 261.352659 
L 114.510421 261.352659 
L 114.510421 260.643388 
L 114.7824 260.643388 
L 114.872193 259.934118 
L 115.050503 259.934118 
L 115.139028 258.870212 
L 115.661605 258.870212 
L 115.661605 258.160941 
L 116.002095 258.160941 
L 116.086263 257.451671 
L 116.170056 257.451671 
L 116.170056 256.7424 
L 116.501546 256.7424 
L 116.501546 256.387765 
L 116.665126 256.387765 
L 116.665126 255.678494 
L 117.462345 255.678494 
L 117.540239 254.969224 
L 117.924947 254.969224 
L 117.924947 254.614588 
L 118.301945 254.614588 
L 118.376446 253.905318 
L 118.889854 253.905318 
L 118.962067 252.132141 
L 119.319033 252.132141 
L 119.319033 251.777506 
L 120.748446 251.777506 
L 120.813877 250.358965 
L 120.944062 250.358965 
L 120.944062 250.004329 
L 121.073351 250.004329 
L 121.073351 249.649694 
L 121.265635 249.649694 
L 121.265635 249.295059 
L 121.39274 249.295059 
L 121.39274 248.940424 
L 121.706797 248.940424 
L 121.706797 248.585788 
L 121.892744 248.585788 
L 121.954321 247.521882 
L 122.19863 247.521882 
L 122.19863 247.167247 
L 122.559246 247.167247 
L 122.559246 246.812612 
L 122.854567 246.812612 
L 122.913079 245.748706 
L 123.029559 245.748706 
L 123.029559 245.394071 
L 123.202939 245.394071 
L 123.202939 244.330165 
L 123.601383 244.330165 
L 123.601383 243.975529 
L 123.769595 243.975529 
L 123.769595 242.911624 
L 124.373813 242.911624 
L 124.373813 242.556988 
L 124.588805 242.556988 
L 124.588805 242.202353 
L 124.854134 242.202353 
L 124.854134 241.847718 
L 125.011554 241.847718 
L 125.011554 241.493082 
L 125.322496 241.493082 
L 125.322496 240.783812 
L 125.979073 240.783812 
L 126.028642 240.074541 
L 126.127391 240.074541 
L 126.225624 239.365271 
L 126.372018 239.365271 
L 126.372018 239.010635 
L 126.565455 239.010635 
L 126.565455 238.656 
L 126.709238 238.656 
L 126.709238 238.301365 
L 127.273627 238.301365 
L 127.319904 237.592094 
L 127.5952 237.592094 
L 127.686077 236.882824 
L 128.045258 236.882824 
L 128.045258 236.528188 
L 128.266313 236.528188 
L 128.266313 235.464282 
L 128.441306 235.464282 
L 128.441306 235.109647 
L 128.57149 235.109647 
L 128.657782 234.045741 
L 128.786481 234.045741 
L 128.786481 233.336471 
L 128.914307 233.336471 
L 128.956723 232.6272 
L 129.209231 232.6272 
L 129.292652 231.917929 
L 129.744974 231.917929 
L 129.744974 231.563294 
L 129.86647 231.563294 
L 129.86647 231.208659 
L 130.146945 231.208659 
L 130.146945 230.854024 
L 130.656987 230.854024 
L 130.734242 229.790118 
L 130.772751 229.790118 
L 130.772751 229.435482 
L 131.115828 229.435482 
L 131.115828 229.080847 
L 131.266322 229.080847 
L 131.303758 228.371576 
L 131.378407 228.371576 
L 131.452761 226.953035 
L 131.489828 226.953035 
L 131.489828 226.5984 
L 131.965169 226.5984 
L 131.965169 226.243765 
L 132.109044 226.243765 
L 132.109044 225.889129 
L 132.358208 225.889129 
L 132.46399 224.825224 
L 132.743202 224.825224 
L 132.743202 224.470588 
L 132.881269 224.470588 
L 132.881269 223.761318 
L 133.05244 223.761318 
L 133.05244 223.406682 
L 133.589949 223.406682 
L 133.589949 223.052047 
L 133.754819 223.052047 
L 133.754819 221.988141 
L 133.983236 221.988141 
L 134.047992 221.278871 
L 134.683578 221.278871 
L 134.683578 220.5696 
L 134.901055 220.5696 
L 134.962732 219.151059 
L 135.085483 219.151059 
L 135.085483 218.087153 
L 136.155623 218.087153 
L 136.242113 216.668612 
L 136.299553 216.668612 
L 136.356818 215.959341 
L 136.413909 215.959341 
L 136.413909 215.604706 
L 136.752866 215.604706 
L 136.780838 214.186165 
L 137.195511 214.186165 
L 137.27736 213.122259 
L 137.520791 213.122259 
L 137.601239 211.703718 
L 137.814102 211.703718 
L 137.840541 210.639812 
L 137.998402 210.639812 
L 138.024583 209.221271 
L 138.128947 209.221271 
L 138.128947 208.512 
L 138.335954 208.512 
L 138.335954 208.157365 
L 138.489728 208.157365 
L 138.515235 207.448094 
L 139.289277 207.448094 
L 139.338138 204.965647 
L 139.411192 204.965647 
L 139.411192 204.611012 
L 139.532323 204.611012 
L 139.604629 203.901741 
L 139.676658 203.901741 
L 139.676658 203.547106 
L 139.796097 203.547106 
L 139.867398 202.128565 
L 139.962047 202.128565 
L 140.009194 201.419294 
L 140.26641 201.419294 
L 140.28962 200.710024 
L 140.405242 200.710024 
L 140.405242 200.000753 
L 140.565927 200.000753 
L 140.565927 199.646118 
L 140.702573 199.646118 
L 140.702573 199.291482 
L 140.815692 199.291482 
L 140.905699 198.227576 
L 140.950542 198.227576 
L 140.972924 197.518306 
L 141.128852 197.518306 
L 141.239443 196.4544 
L 141.261484 196.4544 
L 141.261484 196.099765 
L 141.415049 196.099765 
L 141.48048 195.035859 
L 141.545685 195.035859 
L 141.545685 194.681224 
L 141.761416 194.681224 
L 141.761416 194.326588 
L 141.974701 194.326588 
L 142.059343 193.617318 
L 142.206555 193.617318 
L 142.206555 193.262682 
L 142.41488 193.262682 
L 142.41488 192.553412 
L 142.538777 192.553412 
L 142.538777 192.198776 
L 142.702713 192.198776 
L 142.784148 190.4256 
L 142.905644 190.4256 
L 143.006295 189.716329 
L 143.146307 189.716329 
L 143.166224 189.007059 
L 143.403597 189.007059 
L 143.462475 188.297788 
L 143.657415 188.297788 
L 143.754133 186.879247 
L 143.83115 186.879247 
L 143.83115 186.524612 
L 144.249202 186.524612 
L 144.342932 184.751435 
L 144.380294 184.751435 
L 144.454795 183.687529 
L 144.510478 183.687529 
L 144.621352 182.623624 
L 144.639767 182.623624 
L 144.71325 181.559718 
L 144.841158 181.559718 
L 144.895711 180.850447 
L 145.004344 180.850447 
L 145.112353 179.431906 
L 145.308773 179.431906 
L 145.415054 178.722635 
L 145.46797 178.722635 
L 145.555833 177.658729 
L 145.62583 177.658729 
L 145.730339 175.176282 
L 145.7477 175.176282 
L 145.79969 174.467012 
L 145.954802 174.467012 
L 146.040426 171.984565 
L 146.108646 171.984565 
L 146.108646 171.629929 
L 146.395851 171.629929 
L 146.446082 169.856753 
L 146.512849 169.856753 
L 146.512849 169.502118 
L 146.645676 169.502118 
L 146.728219 167.374306 
L 146.761135 167.374306 
L 146.859539 166.3104 
L 146.892226 166.3104 
L 146.924857 165.246494 
L 147.022411 165.246494 
L 147.119461 164.182588 
L 147.135588 164.182588 
L 147.216013 162.764047 
L 147.359919 162.764047 
L 147.359919 162.409412 
L 147.691478 162.409412 
L 147.769567 159.926965 
L 147.831805 159.926965 
L 147.831805 159.572329 
L 147.971093 159.572329 
L 148.063382 156.380612 
L 148.109358 156.380612 
L 148.155221 154.2528 
L 148.307296 154.2528 
L 148.413021 153.543529 
L 148.503173 153.543529 
L 148.607806 150.706447 
L 148.637595 150.706447 
L 148.697031 148.933271 
L 148.771063 148.933271 
L 148.859519 147.160094 
L 148.903591 147.160094 
L 148.991428 146.096188 
L 149.064312 146.096188 
L 149.136916 144.677647 
L 149.194798 144.677647 
L 149.2669 143.613741 
L 149.31003 143.613741 
L 149.395993 142.549835 
L 149.453084 142.549835 
L 149.538397 141.131294 
L 149.566749 141.131294 
L 149.665646 139.003482 
L 149.679732 139.003482 
L 149.707872 137.939576 
L 149.806031 137.939576 
L 149.889763 137.230306 
L 149.91759 137.230306 
L 150.014665 136.1664 
L 150.11124 136.1664 
L 150.207323 135.457129 
L 150.262008 135.457129 
L 150.357325 132.265412 
L 150.38447 132.265412 
L 150.492661 130.846871 
L 150.546523 130.846871 
L 150.62703 129.073694 
L 150.760445 129.073694 
L 150.760445 128.719059 
L 150.879716 128.719059 
L 150.919305 128.009788 
L 151.024471 128.009788 
L 151.129053 126.236612 
L 151.142085 126.236612 
L 151.168122 125.172706 
L 151.32359 125.172706 
L 151.349377 124.463435 
L 151.464982 124.463435 
L 151.554409 123.044894 
L 151.757231 123.044894 
L 151.757231 122.690259 
L 151.895414 122.690259 
L 151.982822 121.271718 
L 152.057422 121.271718 
L 152.106991 120.207812 
L 152.450367 120.207812 
L 152.450367 119.498541 
L 152.619733 119.498541 
L 152.619733 118.789271 
L 152.751744 118.789271 
L 152.787587 117.016094 
L 152.870956 117.016094 
L 152.870956 116.661459 
L 153.154019 116.661459 
L 153.247435 115.952188 
L 153.730398 115.952188 
L 153.832297 114.888282 
L 153.899924 114.888282 
L 153.911171 113.469741 
L 154.223403 113.469741 
L 154.333671 112.0512 
L 154.421422 112.0512 
L 154.508765 110.278024 
L 154.703817 110.278024 
L 154.714595 109.568753 
L 154.960781 109.568753 
L 155.024477 107.795576 
L 155.077392 107.795576 
L 155.18278 107.086306 
L 155.193286 107.086306 
L 155.28758 106.377035 
L 155.412574 106.377035 
L 155.412574 106.0224 
L 155.557358 106.0224 
L 155.557358 105.667765 
L 155.874041 105.667765 
L 155.985143 104.603859 
L 156.185481 104.603859 
L 156.294765 103.539953 
L 156.383708 103.539953 
L 156.383708 103.185318 
L 156.696589 103.185318 
L 156.745011 102.476047 
L 156.860715 102.476047 
L 156.899125 101.412141 
L 157.004352 101.412141 
L 157.032948 100.702871 
L 157.288377 100.702871 
L 157.288377 99.284329 
L 157.456756 99.284329 
L 157.475372 98.575059 
L 157.586683 98.575059 
L 157.660526 97.865788 
L 157.962102 97.865788 
L 158.016419 97.156518 
L 158.07959 97.156518 
L 158.1605 96.092612 
L 158.196349 96.092612 
L 158.214248 95.028706 
L 158.418868 95.028706 
L 158.418868 93.9648 
L 158.551127 93.9648 
L 158.630038 92.546259 
L 158.665004 92.546259 
L 158.717331 91.127718 
L 158.778196 91.127718 
L 158.804221 90.063812 
L 158.890711 90.063812 
L 158.976805 88.645271 
L 159.096679 88.645271 
L 159.173339 86.872094 
L 159.24122 86.872094 
L 159.342585 84.389647 
L 159.560352 84.389647 
L 159.618554 82.261835 
L 159.693121 82.261835 
L 159.726167 81.197929 
L 160.102084 81.197929 
L 160.190875 78.715482 
L 160.247161 78.715482 
L 160.351247 78.006212 
L 160.35923 78.006212 
L 160.35923 77.651576 
L 160.494422 77.651576 
L 160.605032 75.169129 
L 160.667947 75.169129 
L 160.667947 74.814494 
L 160.994842 74.814494 
L 161.102557 73.395953 
L 161.255373 73.395953 
L 161.293384 72.686682 
L 161.414505 72.686682 
L 161.51985 71.268141 
L 161.624608 71.268141 
L 161.669327 70.204235 
L 161.736206 70.204235 
L 161.817625 68.785694 
L 162.023298 68.785694 
L 162.023298 68.431059 
L 162.634233 68.431059 
L 162.732982 67.367153 
L 162.782162 67.367153 
L 162.782162 67.012518 
L 163.012297 67.012518 
L 163.102189 65.948612 
L 163.376115 65.948612 
L 163.484578 64.884706 
L 163.612572 64.884706 
L 163.612572 64.530071 
L 163.766354 64.530071 
L 163.812909 63.466165 
L 164.037409 63.466165 
L 164.122545 62.402259 
L 164.362764 62.402259 
L 164.362764 62.047624 
L 164.55531 62.047624 
L 164.55531 61.692988 
L 165.040674 61.692988 
L 165.071763 60.629082 
L 165.170902 60.629082 
L 165.251069 59.565176 
L 165.398179 59.565176 
L 165.398179 59.210541 
L 165.538087 59.210541 
L 165.580463 58.501271 
L 165.96353 58.501271 
L 165.96353 58.146635 
L 166.146311 58.146635 
L 166.239959 57.082729 
L 166.304073 57.082729 
L 166.304073 56.728094 
L 166.466293 56.728094 
L 166.552624 55.664188 
L 166.632844 55.664188 
L 166.632844 55.309553 
L 166.752536 55.309553 
L 166.854526 53.181741 
L 166.877116 53.181741 
L 166.877116 52.472471 
L 167.118257 52.472471 
L 167.207201 51.408565 
L 167.229371 51.408565 
L 167.339833 50.344659 
L 167.48247 50.344659 
L 167.515233 48.926118 
L 167.618609 48.926118 
L 167.710623 48.216847 
L 167.80219 48.216847 
L 167.839765 47.152941 
L 167.968026 47.152941 
L 167.968026 46.798306 
L 168.456938 46.798306 
L 168.456938 46.443671 
L 168.62227 46.443671 
L 168.632555 45.7344 
L 168.898015 45.7344 
L 168.923343 45.025129 
L 169.269439 45.025129 
L 169.269439 44.670494 
L 169.516314 44.670494 
L 169.550619 43.961224 
L 169.735764 43.961224 
L 169.798687 43.251953 
L 170.176605 43.251953 
L 170.176605 42.897318 
L 170.66743 42.897318 
L 170.777843 41.833412 
L 170.819081 41.833412 
L 170.819081 41.478776 
L 170.992209 41.478776 
L 170.992209 41.124141 
L 171.11426 41.124141 
L 171.177235 40.414871 
L 171.244475 40.414871 
L 171.320391 39.350965 
L 171.356011 39.350965 
L 171.356011 38.996329 
L 171.642946 38.996329 
L 171.642946 38.641694 
L 171.813029 38.641694 
L 171.830387 37.932424 
L 172.084572 37.932424 
L 172.161441 36.868518 
L 172.250727 36.868518 
L 172.250727 36.513882 
L 172.436438 36.513882 
L 172.436438 36.159247 
L 172.674324 36.159247 
L 172.719888 35.449976 
L 173.173594 35.449976 
L 173.173594 35.095341 
L 173.454189 35.095341 
L 173.454189 34.740706 
L 174.157069 34.740706 
L 174.157069 34.386071 
L 174.842022 34.386071 
L 174.842022 34.031435 
L 175.262307 34.031435 
L 175.356041 33.322165 
L 175.662797 33.322165 
L 175.687546 32.612894 
L 176.054937 32.612894 
L 176.054937 32.258259 
L 176.186149 32.258259 
L 176.292516 31.548988 
L 177.54013 31.548988 
L 177.565728 30.839718 
L 178.25945 30.839718 
L 178.25945 30.485082 
L 178.5196 30.485082 
L 178.5196 30.130447 
L 180.996545 30.130447 
L 180.996545 29.775812 
L 181.110772 29.775812 
L 181.110772 29.421176 
L 182.126328 29.421176 
L 182.158919 28.711906 
L 186.212769 28.711906 
L 186.212769 28.357271 
L 186.980371 28.357271 
L 186.980371 28.002635 
L 187.464536 28.002635 
L 187.464536 27.648 
L 360.8064 27.648 
L 360.8064 27.648 
" style="fill:none;stroke:#ff00ff;stroke-linecap:square;stroke-width:1.5;"/>
   </g>
   <g id="line2d_40">
    <defs>
     <path d="M -0 8.485281 
L 5.091169 0 
L 0 -8.485281 
L -5.091169 -0 
z
" id="m077851da4e" style="stroke:#ff00ff;stroke-linejoin:miter;stroke-width:1.5;"/>
    </defs>
    <g>
     <use style="fill-opacity:0;stroke:#ff00ff;stroke-linejoin:miter;stroke-width:1.5;" x="90.340871" xlink:href="#m077851da4e" y="277.665882"/>
     <use style="fill-opacity:0;stroke:#ff00ff;stroke-linejoin:miter;stroke-width:1.5;" x="146.924857" xlink:href="#m077851da4e" y="165.246494"/>
     <use style="fill-opacity:0;stroke:#ff00ff;stroke-linejoin:miter;stroke-width:1.5;" x="187.464536" xlink:href="#m077851da4e" y="28.002635"/>
     <use style="fill-opacity:0;stroke:#ff00ff;stroke-linejoin:miter;stroke-width:1.5;" x="187.464536" xlink:href="#m077851da4e" y="27.648"/>
     <use style="fill-opacity:0;stroke:#ff00ff;stroke-linejoin:miter;stroke-width:1.5;" x="187.464536" xlink:href="#m077851da4e" y="27.648"/>
     <use style="fill-opacity:0;stroke:#ff00ff;stroke-linejoin:miter;stroke-width:1.5;" x="360.8064" xlink:href="#m077851da4e" y="27.648"/>
    </g>
   </g>
   <g id="line2d_41">
    <path style="fill:none;stroke:#ff00ff;stroke-linecap:square;stroke-width:1.5;"/>
    <g/>
   </g>
   <g id="line2d_42">
    <path clip-path="url(#p6ef7a8e31f)" d="M 144.249202 185.106071 
" style="fill:none;stroke:#ff00ff;stroke-linecap:square;stroke-width:1.5;"/>
    <defs>
     <path d="M -12 12 
L 12 -12 
M -12 -12 
L 12 12 
" id="mff5c9e16e8" style="stroke:#ff00ff;"/>
    </defs>
    <g clip-path="url(#p6ef7a8e31f)">
     <use style="fill:#ff00ff;stroke:#ff00ff;" x="144.249202" xlink:href="#mff5c9e16e8" y="185.106071"/>
    </g>
   </g>
   <g id="line2d_43">
    <defs>
     <path d="M 0 1.5 
C 0.397805 1.5 0.77937 1.341951 1.06066 1.06066 
C 1.341951 0.77937 1.5 0.397805 1.5 0 
C 1.5 -0.397805 1.341951 -0.77937 1.06066 -1.06066 
C 0.77937 -1.341951 0.397805 -1.5 0 -1.5 
C -0.397805 -1.5 -0.77937 -1.341951 -1.06066 -1.06066 
C -1.341951 -0.77937 -1.5 -0.397805 -1.5 0 
C -1.5 0.397805 -1.341951 0.77937 -1.06066 1.06066 
C -0.77937 1.341951 -0.397805 1.5 0 1.5 
z
" id="m3b70549ae1" style="stroke:#ff7500;"/>
    </defs>
    <g>
     <use style="fill:#ff7500;stroke:#ff7500;" x="191.430679" xlink:href="#m3b70549ae1" y="27.648"/>
     <use style="fill:#ff7500;stroke:#ff7500;" x="191.430679" xlink:href="#m3b70549ae1" y="27.648"/>
    </g>
   </g>
   <g id="line2d_44">
    <path d="M 14.2848 298.944 
L 14.2848 289.368847 
L 27.323974 289.368847 
L 27.323974 288.659576 
L 34.951403 288.659576 
L 34.951403 288.304941 
L 40.363149 288.304941 
L 40.363149 287.595671 
L 88.248544 287.595671 
L 88.248544 286.8864 
L 88.972154 286.8864 
L 88.972154 286.531765 
L 90.340871 286.531765 
L 90.340871 286.177129 
L 93.381595 286.177129 
L 93.381595 285.822494 
L 106.279859 285.822494 
L 106.279859 285.467859 
L 106.42077 285.467859 
L 106.42077 285.113224 
L 111.334639 285.113224 
L 111.334639 284.758588 
L 115.139028 284.758588 
L 115.227139 284.049318 
L 115.575511 284.049318 
L 115.575511 283.694682 
L 115.83262 283.694682 
L 115.83262 283.340047 
L 116.170056 283.340047 
L 116.170056 282.985412 
L 117.305581 282.985412 
L 117.305581 282.630776 
L 118.301945 282.630776 
L 118.301945 282.276141 
L 118.671535 282.276141 
L 118.671535 281.921506 
L 121.137664 281.921506 
L 121.137664 281.566871 
L 121.265635 281.566871 
L 121.329295 280.502965 
L 121.455972 280.502965 
L 121.455972 280.148329 
L 123.601383 280.148329 
L 123.601383 279.793694 
L 123.880906 279.793694 
L 123.880906 279.439059 
L 124.319679 279.439059 
L 124.319679 279.084424 
L 124.535287 279.084424 
L 124.535287 278.729788 
L 125.577745 278.729788 
L 125.577745 278.375153 
L 125.779479 278.375153 
L 125.829577 277.665882 
L 125.929373 277.665882 
L 125.979073 276.956612 
L 126.851931 276.956612 
L 126.851931 276.601976 
L 127.503881 276.601976 
L 127.5952 275.183435 
L 127.731351 275.183435 
L 127.731351 274.8288 
L 127.911368 274.8288 
L 127.911368 274.474165 
L 128.222309 274.474165 
L 128.222309 274.119529 
L 129.334225 274.119529 
L 129.375706 273.410259 
L 130.305359 273.410259 
L 130.384069 272.700988 
L 130.849533 272.700988 
L 130.887807 271.637082 
L 131.002163 271.637082 
L 131.002163 270.927812 
L 131.452761 270.927812 
L 131.452761 270.573176 
L 132.109044 270.573176 
L 132.180571 269.863906 
L 132.56918 269.863906 
L 132.56918 269.509271 
L 133.289492 269.509271 
L 133.289492 269.154635 
L 134.745971 269.154635 
L 134.745971 268.8 
L 135.237805 268.8 
L 135.237805 268.445365 
L 135.893741 268.445365 
L 135.893741 268.090729 
L 136.126705 268.090729 
L 136.126705 267.736094 
L 136.242113 267.736094 
L 136.299553 266.672188 
L 136.612375 266.672188 
L 136.612375 266.317553 
L 137.331728 266.317553 
L 137.439996 265.608282 
L 137.466966 265.608282 
L 137.466966 265.253647 
L 138.076838 265.253647 
L 138.076838 264.899012 
L 138.258593 264.899012 
L 138.258593 264.544376 
L 139.166565 264.544376 
L 139.166565 263.835106 
L 139.459738 263.835106 
L 139.459738 263.125835 
L 140.219905 263.125835 
L 140.219905 262.7712 
L 140.474275 262.7712 
L 140.474275 262.416565 
L 141.239443 262.416565 
L 141.283499 261.707294 
L 141.545685 261.707294 
L 141.545685 260.998024 
L 142.038218 260.998024 
L 142.038218 260.643388 
L 142.905644 260.643388 
L 142.986208 259.934118 
L 143.02636 259.934118 
L 143.02636 259.579482 
L 143.501625 259.579482 
L 143.501625 259.224847 
L 143.773417 259.224847 
L 143.773417 258.515576 
L 144.249202 258.515576 
L 144.267986 257.451671 
L 144.398947 257.451671 
L 144.491935 256.387765 
L 144.694906 256.387765 
L 144.694906 256.033129 
L 144.950106 256.033129 
L 144.950106 255.678494 
L 145.166126 255.678494 
L 145.184016 254.614588 
L 145.765046 254.614588 
L 145.816988 253.550682 
L 145.971958 253.550682 
L 146.074567 252.841412 
L 146.496179 252.841412 
L 146.595975 251.777506 
L 146.711739 251.777506 
L 146.711739 251.422871 
L 147.248088 251.422871 
L 147.264104 250.358965 
L 147.831805 250.358965 
L 147.831805 249.649694 
L 147.986506 249.649694 
L 147.986506 249.295059 
L 148.261802 249.295059 
L 148.261802 248.585788 
L 148.382875 248.585788 
L 148.458151 247.876518 
L 148.533127 247.876518 
L 148.533127 247.521882 
L 148.947561 247.521882 
L 148.962194 246.812612 
L 149.078856 246.812612 
L 149.136916 244.6848 
L 149.65155 244.6848 
L 149.65155 244.330165 
L 149.778038 244.330165 
L 149.778038 243.975529 
L 150.042308 243.975529 
L 150.152479 242.911624 
L 150.166205 242.911624 
L 150.275654 240.783812 
L 150.707193 240.783812 
L 150.733838 239.010635 
L 151.168122 239.010635 
L 151.258968 238.301365 
L 151.54166 238.301365 
L 151.592605 237.592094 
L 151.681429 237.592094 
L 151.769835 236.528188 
L 151.807597 236.528188 
L 151.845283 235.464282 
L 151.945411 235.464282 
L 151.945411 235.109647 
L 152.193425 235.109647 
L 152.218047 234.400376 
L 152.413875 234.400376 
L 152.413875 234.045741 
L 152.739781 234.045741 
L 152.835271 232.6272 
L 152.965784 232.6272 
L 152.965784 232.272565 
L 153.095398 232.272565 
L 153.095398 231.917929 
L 153.235783 231.917929 
L 153.235783 231.563294 
L 153.707679 231.563294 
L 153.719042 230.854024 
L 153.843585 230.854024 
L 153.866141 230.144753 
L 154.123607 230.144753 
L 154.168026 228.726212 
L 154.377597 228.726212 
L 154.377597 228.371576 
L 154.584859 228.371576 
L 154.628204 227.662306 
L 155.035072 227.662306 
L 155.077392 226.5984 
L 155.318906 226.5984 
L 155.318906 226.243765 
L 155.454055 226.243765 
L 155.547053 225.179859 
L 155.711258 225.179859 
L 155.741887 224.115953 
L 155.85377 224.115953 
L 155.894291 223.052047 
L 156.035428 223.052047 
L 156.135597 222.342776 
L 156.618856 222.342776 
L 156.706284 220.924235 
L 156.764344 220.924235 
L 156.764344 220.5696 
L 156.927882 220.5696 
L 157.004352 219.860329 
L 157.04247 219.860329 
L 157.04247 219.505694 
L 157.278978 219.505694 
L 157.354037 217.732518 
L 157.400797 217.732518 
L 157.400797 215.959341 
L 157.632869 215.959341 
L 157.715719 214.5408 
L 157.752425 214.5408 
L 157.789059 213.476894 
L 157.907629 213.476894 
L 157.907629 213.122259 
L 158.088598 213.122259 
L 158.106599 211.703718 
L 158.339064 211.703718 
L 158.436556 210.994447 
L 158.480705 210.994447 
L 158.52475 209.575906 
L 158.830209 209.575906 
L 158.933807 208.512 
L 159.15633 208.512 
L 159.15633 207.802729 
L 159.393063 207.802729 
L 159.476894 206.384188 
L 159.535354 206.384188 
L 159.535354 206.029553 
L 159.759155 206.029553 
L 159.857774 203.901741 
L 159.874161 203.901741 
L 159.874161 203.547106 
L 160.053475 203.547106 
L 160.053475 203.192471 
L 160.174762 203.192471 
L 160.215018 202.128565 
L 160.311282 202.128565 
L 160.415015 200.710024 
L 160.422971 200.710024 
L 160.470635 199.646118 
L 160.714996 199.646118 
L 160.800947 198.227576 
L 160.847664 198.227576 
L 160.878745 197.518306 
L 161.094883 197.518306 
L 161.156184 196.099765 
L 161.247762 196.099765 
L 161.354042 194.681224 
L 161.36161 194.681224 
L 161.437128 191.489506 
L 161.489811 191.489506 
L 161.489811 191.134871 
L 161.669327 191.134871 
L 161.713939 190.4256 
L 161.802848 190.4256 
L 161.906046 189.007059 
L 161.942766 189.007059 
L 162.045202 187.588518 
L 162.11076 187.588518 
L 162.139824 186.879247 
L 162.255632 186.879247 
L 162.31327 186.169976 
L 162.38507 186.169976 
L 162.470869 185.460706 
L 162.513623 185.460706 
L 162.605924 184.3968 
L 162.838212 184.3968 
L 162.928937 182.268988 
L 163.212239 182.268988 
L 163.280694 181.559718 
L 163.348901 181.559718 
L 163.437203 179.786541 
L 163.464289 179.786541 
L 163.504846 179.077271 
L 163.686277 179.077271 
L 163.686277 178.722635 
L 163.846093 178.722635 
L 163.899064 177.658729 
L 163.96507 177.658729 
L 163.997986 176.240188 
L 164.083299 176.240188 
L 164.187772 174.112376 
L 164.20079 174.112376 
L 164.291668 172.3392 
L 164.478528 172.3392 
L 164.574457 170.211388 
L 164.669899 170.211388 
L 164.720604 169.502118 
L 164.890731 169.502118 
L 164.984586 167.374306 
L 165.195605 167.374306 
L 165.244914 165.955765 
L 165.324768 165.955765 
L 165.398179 164.891859 
L 165.44087 164.891859 
L 165.471304 163.118682 
L 165.713024 163.118682 
L 165.743021 161.700141 
L 165.91013 161.700141 
L 166.01087 159.926965 
L 166.122826 159.926965 
L 166.193193 157.799153 
L 166.23412 157.799153 
L 166.23412 157.089882 
L 166.431649 157.089882 
L 166.431649 156.735247 
L 166.592777 156.735247 
L 166.684234 153.543529 
L 166.729796 153.543529 
L 166.752536 152.834259 
L 166.882759 152.834259 
L 166.989659 152.124988 
L 167.051272 152.124988 
L 167.051272 151.770353 
L 167.301245 151.770353 
L 167.378342 149.997176 
L 167.498859 149.997176 
L 167.537044 148.578635 
L 167.6403 148.578635 
L 167.732209 146.805459 
L 167.753769 146.805459 
L 167.845127 145.032282 
L 167.962699 145.032282 
L 168.037137 143.259106 
L 168.090128 143.259106 
L 168.17987 142.1952 
L 168.221954 142.1952 
L 168.300609 140.776659 
L 168.347644 140.776659 
L 168.456938 139.003482 
L 168.519108 139.003482 
L 168.617126 136.1664 
L 168.745323 136.1664 
L 168.842171 134.038588 
L 168.90815 134.038588 
L 169.009206 132.620047 
L 169.019282 132.620047 
L 169.06958 131.201506 
L 169.244573 131.201506 
L 169.244573 130.492235 
L 169.408088 130.492235 
L 169.437666 129.428329 
L 169.545722 129.428329 
L 169.619042 127.655153 
L 169.67263 127.655153 
L 169.750303 126.591247 
L 169.78902 126.591247 
L 169.866216 125.172706 
L 169.904695 125.172706 
L 170.00533 123.754165 
L 170.024438 123.754165 
L 170.067359 123.044894 
L 170.186075 123.044894 
L 170.209728 121.980988 
L 170.388529 121.980988 
L 170.481956 121.271718 
L 170.500586 121.271718 
L 170.598091 118.789271 
L 170.639725 118.789271 
L 170.7503 116.661459 
L 170.754894 116.661459 
L 170.764077 115.952188 
L 170.869361 115.952188 
L 170.946803 114.888282 
L 170.996743 114.888282 
L 171.073664 113.115106 
L 171.150271 113.115106 
L 171.231046 112.405835 
L 171.275772 112.405835 
L 171.275772 111.341929 
L 171.427048 111.341929 
L 171.48015 109.568753 
L 171.603476 109.568753 
L 171.647326 107.440941 
L 171.76086 107.440941 
L 171.76086 107.086306 
L 171.934199 107.086306 
L 172.020274 103.539953 
L 172.127316 103.539953 
L 172.22526 101.766776 
L 172.284629 101.766776 
L 172.293095 100.348235 
L 172.419631 100.348235 
L 172.524431 95.737976 
L 172.536968 95.737976 
L 172.536968 95.383341 
L 172.661879 95.383341 
L 172.711612 93.9648 
L 172.85592 93.9648 
L 172.933798 91.836988 
L 172.986898 91.836988 
L 173.080478 89.709176 
L 173.125069 89.709176 
L 173.201843 87.936 
L 173.262233 87.936 
L 173.350456 86.872094 
L 173.378441 86.872094 
L 173.470098 85.098918 
L 173.521707 85.098918 
L 173.604778 84.035012 
L 173.652083 84.035012 
L 173.659955 83.325741 
L 173.797195 83.325741 
L 173.8985 81.552565 
L 173.914037 81.552565 
L 173.999263 80.134024 
L 174.076407 80.134024 
L 174.18388 78.006212 
L 174.218295 78.006212 
L 174.313562 75.169129 
L 174.370492 75.169129 
L 174.423472 74.105224 
L 174.559024 74.105224 
L 174.652586 73.041318 
L 174.723384 73.041318 
L 174.823534 71.622776 
L 174.834629 71.622776 
L 174.912111 69.8496 
L 174.956244 69.8496 
L 175.018589 68.785694 
L 175.120826 68.785694 
L 175.189886 67.367153 
L 175.233372 67.367153 
L 175.320045 65.593976 
L 175.427827 65.593976 
L 175.485059 63.8208 
L 175.574138 63.8208 
L 175.620293 62.756894 
L 175.712263 62.756894 
L 175.817828 61.338353 
L 175.870389 61.338353 
L 175.898362 60.274447 
L 175.982031 60.274447 
L 176.016783 58.855906 
L 176.14826 58.855906 
L 176.251413 57.792 
L 176.261697 57.792 
L 176.302778 57.082729 
L 176.41529 57.082729 
L 176.442464 55.664188 
L 176.540644 55.664188 
L 176.634955 54.245647 
L 176.678581 54.245647 
L 176.788874 53.181741 
L 176.858725 53.181741 
L 176.908461 51.7632 
L 176.997654 51.7632 
L 177.086427 50.344659 
L 177.109374 50.344659 
L 177.109374 49.990024 
L 177.233457 49.990024 
L 177.233457 49.635388 
L 177.347024 49.635388 
L 177.379346 48.571482 
L 177.690023 48.571482 
L 177.74078 47.152941 
L 177.863928 47.152941 
L 177.863928 46.798306 
L 177.992527 46.798306 
L 178.08296 46.089035 
L 178.117149 46.089035 
L 178.117149 45.379765 
L 178.231693 45.379765 
L 178.231693 45.025129 
L 178.348612 45.025129 
L 178.348612 44.670494 
L 178.58635 44.670494 
L 178.58635 44.315859 
L 178.71313 44.315859 
L 178.824112 42.897318 
L 179.173747 42.897318 
L 179.173747 42.542682 
L 179.401344 42.542682 
L 179.43322 41.124141 
L 179.57169 41.124141 
L 179.57169 40.769506 
L 179.714853 40.769506 
L 179.774658 39.7056 
L 179.910646 39.7056 
L 179.997952 38.996329 
L 180.082057 38.996329 
L 180.082057 38.641694 
L 180.323858 38.641694 
L 180.33214 37.932424 
L 180.450461 37.932424 
L 180.55168 37.223153 
L 180.630634 37.223153 
L 180.687602 35.804612 
L 180.967213 35.804612 
L 180.967213 35.449976 
L 181.242728 35.449976 
L 181.35286 34.740706 
L 181.394646 34.740706 
L 181.394646 34.386071 
L 182.103731 34.386071 
L 182.136362 33.6768 
L 182.432456 33.6768 
L 182.442328 32.967529 
L 182.633809 32.967529 
L 182.633809 32.612894 
L 182.847523 32.612894 
L 182.847523 32.258259 
L 183.015807 32.258259 
L 183.108916 31.548988 
L 183.413649 31.548988 
L 183.472139 30.839718 
L 183.625684 30.839718 
L 183.625684 30.485082 
L 184.142166 30.485082 
L 184.142166 30.130447 
L 184.306009 30.130447 
L 184.306009 29.775812 
L 184.622885 29.775812 
L 184.622885 29.421176 
L 184.930188 29.421176 
L 184.930188 29.066541 
L 185.538506 29.066541 
L 185.538506 28.711906 
L 185.966836 28.711906 
L 185.966836 28.357271 
L 187.337526 28.357271 
L 187.337526 28.002635 
L 191.430679 28.002635 
L 191.430679 27.648 
L 360.8064 27.648 
L 360.8064 27.648 
" style="fill:none;stroke:#ff7500;stroke-linecap:square;stroke-width:1.5;"/>
   </g>
   <g id="line2d_45">
    <defs>
     <path d="M 0 -6 
L -1.347084 -1.854102 
L -5.706339 -1.854102 
L -2.179628 0.708204 
L -3.526712 4.854102 
L -0 2.291796 
L 3.526712 4.854102 
L 2.179628 0.708204 
L 5.706339 -1.854102 
L 1.347084 -1.854102 
z
" id="m5537fffb31" style="stroke:#ff7500;stroke-linejoin:bevel;stroke-width:1.5;"/>
    </defs>
    <g>
     <use style="fill-opacity:0;stroke:#ff7500;stroke-linejoin:bevel;stroke-width:1.5;" x="144.398947" xlink:href="#m5537fffb31" y="256.7424"/>
     <use style="fill-opacity:0;stroke:#ff7500;stroke-linejoin:bevel;stroke-width:1.5;" x="168.565601" xlink:href="#m5537fffb31" y="137.584941"/>
     <use style="fill-opacity:0;stroke:#ff7500;stroke-linejoin:bevel;stroke-width:1.5;" x="191.430679" xlink:href="#m5537fffb31" y="28.002635"/>
     <use style="fill-opacity:0;stroke:#ff7500;stroke-linejoin:bevel;stroke-width:1.5;" x="191.430679" xlink:href="#m5537fffb31" y="27.648"/>
     <use style="fill-opacity:0;stroke:#ff7500;stroke-linejoin:bevel;stroke-width:1.5;" x="191.430679" xlink:href="#m5537fffb31" y="27.648"/>
     <use style="fill-opacity:0;stroke:#ff7500;stroke-linejoin:bevel;stroke-width:1.5;" x="360.8064" xlink:href="#m5537fffb31" y="27.648"/>
    </g>
   </g>
   <g id="line2d_46">
    <path style="fill:none;stroke:#ff7500;stroke-linecap:square;stroke-width:1.5;"/>
    <g/>
   </g>
   <g id="line2d_47">
    <path clip-path="url(#p6ef7a8e31f)" d="M 144.2304 258.515576 
" style="fill:none;stroke:#ff7500;stroke-linecap:square;stroke-width:1.5;"/>
    <defs>
     <path d="M -12 12 
L 12 -12 
M -12 -12 
L 12 12 
" id="mf1144f4199" style="stroke:#ff7500;"/>
    </defs>
    <g clip-path="url(#p6ef7a8e31f)">
     <use style="fill:#ff7500;stroke:#ff7500;" x="144.2304" xlink:href="#mf1144f4199" y="258.515576"/>
    </g>
   </g>
   <g id="line2d_48">
    <path d="M 360.8064 27.648 
L 380.514816 293.51808 
" style="fill:none;stroke:#ff7500;stroke-linecap:square;stroke-width:1.5;"/>
    <g>
     <use style="fill-opacity:0;stroke:#ff7500;stroke-linejoin:bevel;stroke-width:1.5;" x="360.8064" xlink:href="#m5537fffb31" y="27.648"/>
     <use style="fill-opacity:0;stroke:#ff7500;stroke-linejoin:bevel;stroke-width:1.5;" x="380.514816" xlink:href="#m5537fffb31" y="293.51808"/>
    </g>
   </g>
   <g id="line2d_49">
    <path d="M 360.8064 27.648 
L 380.514816 206.70336 
" style="fill:none;stroke:#ff00ff;stroke-linecap:square;stroke-width:1.5;"/>
    <g>
     <use style="fill-opacity:0;stroke:#ff00ff;stroke-linejoin:miter;stroke-width:1.5;" x="360.8064" xlink:href="#m077851da4e" y="27.648"/>
     <use style="fill-opacity:0;stroke:#ff00ff;stroke-linejoin:miter;stroke-width:1.5;" x="380.514816" xlink:href="#m077851da4e" y="206.70336"/>
    </g>
   </g>
   <g id="line2d_50">
    <path d="M 360.8064 27.648 
L 380.514816 119.88864 
" style="fill:none;stroke:#000080;stroke-linecap:square;stroke-width:1.5;"/>
    <g>
     <use style="fill-opacity:0;stroke:#000080;stroke-width:1.5;" x="360.8064" xlink:href="#m95dbfda1eb" y="27.648"/>
     <use style="fill-opacity:0;stroke:#000080;stroke-width:1.5;" x="380.514816" xlink:href="#m95dbfda1eb" y="119.88864"/>
    </g>
   </g>
   <g id="line2d_51">
    <path d="M 360.8064 298.944 
L 360.8064 27.648 
" style="fill:none;stroke:#000000;stroke-linecap:square;stroke-width:1.5;"/>
   </g>
   <g id="patch_3">
    <path d="M 57.6 298.944 
L 360.8064 298.944 
" style="fill:none;stroke:#000000;stroke-linecap:square;stroke-linejoin:miter;stroke-width:0.8;"/>
   </g>
   <g id="patch_4">
    <path d="M 57.6 27.648 
L 360.8064 27.648 
" style="fill:none;stroke:#000000;stroke-linecap:square;stroke-linejoin:miter;stroke-width:0.8;"/>
   </g>
   <g id="text_13">
    <!-- diffcma b -->
    <g transform="translate(386.578944 297.381205)scale(0.14 -0.14)">
     <defs>
      <path d="M 3116 1747 
Q 3116 2381 2855 2742 
Q 2594 3103 2138 3103 
Q 1681 3103 1420 2742 
Q 1159 2381 1159 1747 
Q 1159 1113 1420 752 
Q 1681 391 2138 391 
Q 2594 391 2855 752 
Q 3116 1113 3116 1747 
z
M 1159 2969 
Q 1341 3281 1617 3432 
Q 1894 3584 2278 3584 
Q 2916 3584 3314 3078 
Q 3713 2572 3713 1747 
Q 3713 922 3314 415 
Q 2916 -91 2278 -91 
Q 1894 -91 1617 61 
Q 1341 213 1159 525 
L 1159 0 
L 581 0 
L 581 4863 
L 1159 4863 
L 1159 2969 
z
" id="DejaVuSans-62" transform="scale(0.015625)"/>
     </defs>
     <use xlink:href="#DejaVuSans-64"/>
     <use x="63.476562" xlink:href="#DejaVuSans-69"/>
     <use x="91.259766" xlink:href="#DejaVuSans-66"/>
     <use x="126.464844" xlink:href="#DejaVuSans-66"/>
     <use x="161.669922" xlink:href="#DejaVuSans-63"/>
     <use x="216.650391" xlink:href="#DejaVuSans-6d"/>
     <use x="314.0625" xlink:href="#DejaVuSans-61"/>
     <use x="375.341797" xlink:href="#DejaVuSans-20"/>
     <use x="407.128906" xlink:href="#DejaVuSans-62"/>
    </g>
   </g>
   <g id="text_14">
    <!-- cma.fmin  -->
    <g transform="translate(386.578944 210.566485)scale(0.14 -0.14)">
     <use xlink:href="#DejaVuSans-63"/>
     <use x="54.980469" xlink:href="#DejaVuSans-6d"/>
     <use x="152.392578" xlink:href="#DejaVuSans-61"/>
     <use x="213.671875" xlink:href="#DejaVuSans-2e"/>
     <use x="245.458984" xlink:href="#DejaVuSans-66"/>
     <use x="280.664062" xlink:href="#DejaVuSans-6d"/>
     <use x="378.076172" xlink:href="#DejaVuSans-69"/>
     <use x="405.859375" xlink:href="#DejaVuSans-6e"/>
     <use x="469.238281" xlink:href="#DejaVuSans-20"/>
    </g>
   </g>
   <g id="text_15">
    <!-- different -->
    <g transform="translate(386.578944 123.751765)scale(0.14 -0.14)">
     <use xlink:href="#DejaVuSans-64"/>
     <use x="63.476562" xlink:href="#DejaVuSans-69"/>
     <use x="91.259766" xlink:href="#DejaVuSans-66"/>
     <use x="126.464844" xlink:href="#DejaVuSans-66"/>
     <use x="161.669922" xlink:href="#DejaVuSans-65"/>
     <use x="223.193359" xlink:href="#DejaVuSans-72"/>
     <use x="262.056641" xlink:href="#DejaVuSans-65"/>
     <use x="323.580078" xlink:href="#DejaVuSans-6e"/>
     <use x="386.958984" xlink:href="#DejaVuSans-74"/>
    </g>
   </g>
   <g id="text_16">
    <!-- best 2009 -->
    <g transform="translate(386.578944 36.937045)scale(0.14 -0.14)">
     <defs>
      <path d="M 703 97 
L 703 672 
Q 941 559 1184 500 
Q 1428 441 1663 441 
Q 2288 441 2617 861 
Q 2947 1281 2994 2138 
Q 2813 1869 2534 1725 
Q 2256 1581 1919 1581 
Q 1219 1581 811 2004 
Q 403 2428 403 3163 
Q 403 3881 828 4315 
Q 1253 4750 1959 4750 
Q 2769 4750 3195 4129 
Q 3622 3509 3622 2328 
Q 3622 1225 3098 567 
Q 2575 -91 1691 -91 
Q 1453 -91 1209 -44 
Q 966 3 703 97 
z
M 1959 2075 
Q 2384 2075 2632 2365 
Q 2881 2656 2881 3163 
Q 2881 3666 2632 3958 
Q 2384 4250 1959 4250 
Q 1534 4250 1286 3958 
Q 1038 3666 1038 3163 
Q 1038 2656 1286 2365 
Q 1534 2075 1959 2075 
z
" id="DejaVuSans-39" transform="scale(0.015625)"/>
     </defs>
     <use xlink:href="#DejaVuSans-62"/>
     <use x="63.476562" xlink:href="#DejaVuSans-65"/>
     <use x="125" xlink:href="#DejaVuSans-73"/>
     <use x="177.099609" xlink:href="#DejaVuSans-74"/>
     <use x="216.308594" xlink:href="#DejaVuSans-20"/>
     <use x="248.095703" xlink:href="#DejaVuSans-32"/>
     <use x="311.71875" xlink:href="#DejaVuSans-30"/>
     <use x="375.341797" xlink:href="#DejaVuSans-30"/>
     <use x="438.964844" xlink:href="#DejaVuSans-39"/>
    </g>
   </g>
   <g id="text_17">
    <!-- bbob f1, 10-D -->
    <g transform="translate(60.632064 38.111366)scale(0.102 -0.102)">
     <defs>
      <path d="M 1259 4147 
L 1259 519 
L 2022 519 
Q 2988 519 3436 956 
Q 3884 1394 3884 2338 
Q 3884 3275 3436 3711 
Q 2988 4147 2022 4147 
L 1259 4147 
z
M 628 4666 
L 1925 4666 
Q 3281 4666 3915 4102 
Q 4550 3538 4550 2338 
Q 4550 1131 3912 565 
Q 3275 0 1925 0 
L 628 0 
L 628 4666 
z
" id="DejaVuSans-44" transform="scale(0.015625)"/>
     </defs>
     <use xlink:href="#DejaVuSans-62"/>
     <use x="63.476562" xlink:href="#DejaVuSans-62"/>
     <use x="126.953125" xlink:href="#DejaVuSans-6f"/>
     <use x="188.134766" xlink:href="#DejaVuSans-62"/>
     <use x="251.611328" xlink:href="#DejaVuSans-20"/>
     <use x="283.398438" xlink:href="#DejaVuSans-66"/>
     <use x="318.603516" xlink:href="#DejaVuSans-31"/>
     <use x="382.226562" xlink:href="#DejaVuSans-2c"/>
     <use x="414.013672" xlink:href="#DejaVuSans-20"/>
     <use x="445.800781" xlink:href="#DejaVuSans-31"/>
     <use x="509.423828" xlink:href="#DejaVuSans-30"/>
     <use x="573.046875" xlink:href="#DejaVuSans-2d"/>
     <use x="609.130859" xlink:href="#DejaVuSans-44"/>
    </g>
    <!-- 51 targets: 100..1e-08 -->
    <g transform="translate(60.632064 49.533135)scale(0.102 -0.102)">
     <defs>
      <path d="M 691 4666 
L 3169 4666 
L 3169 4134 
L 1269 4134 
L 1269 2991 
Q 1406 3038 1543 3061 
Q 1681 3084 1819 3084 
Q 2600 3084 3056 2656 
Q 3513 2228 3513 1497 
Q 3513 744 3044 326 
Q 2575 -91 1722 -91 
Q 1428 -91 1123 -41 
Q 819 9 494 109 
L 494 744 
Q 775 591 1075 516 
Q 1375 441 1709 441 
Q 2250 441 2565 725 
Q 2881 1009 2881 1497 
Q 2881 1984 2565 2268 
Q 2250 2553 1709 2553 
Q 1456 2553 1204 2497 
Q 953 2441 691 2322 
L 691 4666 
z
" id="DejaVuSans-35" transform="scale(0.015625)"/>
      <path d="M 750 794 
L 1409 794 
L 1409 0 
L 750 0 
L 750 794 
z
M 750 3309 
L 1409 3309 
L 1409 2516 
L 750 2516 
L 750 3309 
z
" id="DejaVuSans-3a" transform="scale(0.015625)"/>
     </defs>
     <use xlink:href="#DejaVuSans-35"/>
     <use x="63.623047" xlink:href="#DejaVuSans-31"/>
     <use x="127.246094" xlink:href="#DejaVuSans-20"/>
     <use x="159.033203" xlink:href="#DejaVuSans-74"/>
     <use x="198.242188" xlink:href="#DejaVuSans-61"/>
     <use x="259.521484" xlink:href="#DejaVuSans-72"/>
     <use x="298.884766" xlink:href="#DejaVuSans-67"/>
     <use x="362.361328" xlink:href="#DejaVuSans-65"/>
     <use x="423.884766" xlink:href="#DejaVuSans-74"/>
     <use x="463.09375" xlink:href="#DejaVuSans-73"/>
     <use x="515.193359" xlink:href="#DejaVuSans-3a"/>
     <use x="548.884766" xlink:href="#DejaVuSans-20"/>
     <use x="580.671875" xlink:href="#DejaVuSans-31"/>
     <use x="644.294922" xlink:href="#DejaVuSans-30"/>
     <use x="707.917969" xlink:href="#DejaVuSans-30"/>
     <use x="771.541016" xlink:href="#DejaVuSans-2e"/>
     <use x="803.328125" xlink:href="#DejaVuSans-2e"/>
     <use x="835.115234" xlink:href="#DejaVuSans-31"/>
     <use x="898.738281" xlink:href="#DejaVuSans-65"/>
     <use x="960.261719" xlink:href="#DejaVuSans-2d"/>
     <use x="996.345703" xlink:href="#DejaVuSans-30"/>
     <use x="1059.96875" xlink:href="#DejaVuSans-38"/>
    </g>
    <!-- 15 instances -->
    <g transform="translate(60.632064 60.954904)scale(0.102 -0.102)">
     <use xlink:href="#DejaVuSans-31"/>
     <use x="63.623047" xlink:href="#DejaVuSans-35"/>
     <use x="127.246094" xlink:href="#DejaVuSans-20"/>
     <use x="159.033203" xlink:href="#DejaVuSans-69"/>
     <use x="186.816406" xlink:href="#DejaVuSans-6e"/>
     <use x="250.195312" xlink:href="#DejaVuSans-73"/>
     <use x="302.294922" xlink:href="#DejaVuSans-74"/>
     <use x="341.503906" xlink:href="#DejaVuSans-61"/>
     <use x="402.783203" xlink:href="#DejaVuSans-6e"/>
     <use x="466.162109" xlink:href="#DejaVuSans-63"/>
     <use x="521.142578" xlink:href="#DejaVuSans-65"/>
     <use x="582.666016" xlink:href="#DejaVuSans-73"/>
    </g>
   </g>
   <g id="text_18">
    <!-- v2.6 -->
    <g style="fill:#808080;" transform="translate(198.292262 294.151352)scale(0.1 -0.1)">
     <use xlink:href="#DejaVuSans-76"/>
     <use x="59.179688" xlink:href="#DejaVuSans-32"/>
     <use x="122.802734" xlink:href="#DejaVuSans-2e"/>
     <use x="154.589844" xlink:href="#DejaVuSans-36"/>
    </g>
   </g>
   <g id="text_19">
    <!-- 1 Sphere -->
    <g transform="translate(164.436012 21.648)scale(0.2 -0.2)">
     <defs>
      <path d="M 3425 4513 
L 3425 3897 
Q 3066 4069 2747 4153 
Q 2428 4238 2131 4238 
Q 1616 4238 1336 4038 
Q 1056 3838 1056 3469 
Q 1056 3159 1242 3001 
Q 1428 2844 1947 2747 
L 2328 2669 
Q 3034 2534 3370 2195 
Q 3706 1856 3706 1288 
Q 3706 609 3251 259 
Q 2797 -91 1919 -91 
Q 1588 -91 1214 -16 
Q 841 59 441 206 
L 441 856 
Q 825 641 1194 531 
Q 1563 422 1919 422 
Q 2459 422 2753 634 
Q 3047 847 3047 1241 
Q 3047 1584 2836 1778 
Q 2625 1972 2144 2069 
L 1759 2144 
Q 1053 2284 737 2584 
Q 422 2884 422 3419 
Q 422 4038 858 4394 
Q 1294 4750 2059 4750 
Q 2388 4750 2728 4690 
Q 3069 4631 3425 4513 
z
" id="DejaVuSans-53" transform="scale(0.015625)"/>
      <path d="M 3513 2113 
L 3513 0 
L 2938 0 
L 2938 2094 
Q 2938 2591 2744 2837 
Q 2550 3084 2163 3084 
Q 1697 3084 1428 2787 
Q 1159 2491 1159 1978 
L 1159 0 
L 581 0 
L 581 4863 
L 1159 4863 
L 1159 2956 
Q 1366 3272 1645 3428 
Q 1925 3584 2291 3584 
Q 2894 3584 3203 3211 
Q 3513 2838 3513 2113 
z
" id="DejaVuSans-68" transform="scale(0.015625)"/>
     </defs>
     <use xlink:href="#DejaVuSans-31"/>
     <use x="63.623047" xlink:href="#DejaVuSans-20"/>
     <use x="95.410156" xlink:href="#DejaVuSans-53"/>
     <use x="158.886719" xlink:href="#DejaVuSans-70"/>
     <use x="222.363281" xlink:href="#DejaVuSans-68"/>
     <use x="285.742188" xlink:href="#DejaVuSans-65"/>
     <use x="347.265625" xlink:href="#DejaVuSans-72"/>
     <use x="386.128906" xlink:href="#DejaVuSans-65"/>
    </g>
   </g>
  </g>
 </g>
 <defs>
  <clipPath id="p6ef7a8e31f">
   <rect height="271.296" width="303.2064" x="57.6" y="27.648"/>
  </clipPath>
 </defs>
</svg>
