<?xml version="1.0" encoding="utf-8" standalone="no"?>
<!DOCTYPE svg PUBLIC "-//W3C//DTD SVG 1.1//EN"
  "http://www.w3.org/Graphics/SVG/1.1/DTD/svg11.dtd">
<svg height="345.6pt" version="1.1" viewBox="0 0 460.8 345.6" width="460.8pt" xmlns="http://www.w3.org/2000/svg" xmlns:xlink="http://www.w3.org/1999/xlink">
 <metadata>
  <rdf:RDF xmlns:cc="http://creativecommons.org/ns#" xmlns:dc="http://purl.org/dc/elements/1.1/" xmlns:rdf="http://www.w3.org/1999/02/22-rdf-syntax-ns#">
   <cc:Work>
    <dc:type rdf:resource="http://purl.org/dc/dcmitype/StillImage"/>
    <dc:date>2022-05-22T20:52:24.108507</dc:date>
    <dc:format>image/svg+xml</dc:format>
    <dc:creator>
     <cc:Agent>
      <dc:title>Matplotlib v3.4.3, https://matplotlib.org/</dc:title>
     </cc:Agent>
    </dc:creator>
   </cc:Work>
  </rdf:RDF>
 </metadata>
 <defs>
  <style type="text/css">*{stroke-linecap:butt;stroke-linejoin:round;}</style>
 </defs>
 <g id="figure_1">
  <g id="patch_1">
   <path d="M 0 345.6 
L 460.8 345.6 
L 460.8 0 
L 0 0 
z
" style="fill:#ffffff;"/>
  </g>
  <g id="axes_1">
   <g id="patch_2">
    <path d="M 57.6 298.944 
L 360.8064 298.944 
L 360.8064 27.648 
L 57.6 27.648 
z
" style="fill:#ffffff;"/>
   </g>
   <g id="line2d_1">
    <path d="M 113.789049 298.944 
L 113.789049 293.624471 
L 113.812756 293.624471 
L 113.812756 282.985412 
L 113.836433 282.985412 
L 113.836433 277.665882 
L 113.860081 277.665882 
L 113.860081 261.707294 
L 113.883699 261.707294 
L 113.883699 240.429176 
L 113.907287 240.429176 
L 113.907287 224.470588 
L 113.930845 224.470588 
L 113.930845 181.914353 
L 113.954374 181.914353 
L 113.954374 155.316706 
L 113.977874 155.316706 
L 113.977874 118.08 
L 114.001345 118.08 
L 114.001345 75.523765 
L 114.024786 75.523765 
L 114.024786 59.565176 
L 114.048198 59.565176 
L 114.048198 54.245647 
L 114.211271 54.245647 
L 114.211271 48.926118 
L 114.624224 48.926118 
L 114.624224 43.606588 
L 116.542574 43.606588 
L 116.542574 38.287059 
L 118.835511 38.287059 
L 118.835511 32.967529 
L 121.39274 32.967529 
L 121.39274 27.648 
L 360.8064 27.648 
" style="fill:none;stroke:#f5deb3;stroke-linecap:square;stroke-width:4;"/>
   </g>
   <g id="line2d_2">
    <defs>
     <path d="M -0 7.778175 
L 7.778175 0 
L 0 -7.778175 
L -7.778175 -0 
z
" id="m6d76722ef9" style="stroke:#f5deb3;stroke-linejoin:miter;stroke-width:1.5;"/>
    </defs>
    <g>
     <use style="fill:#f5deb3;stroke:#f5deb3;stroke-linejoin:miter;stroke-width:1.5;" x="113.930845" xlink:href="#m6d76722ef9" y="224.470588"/>
     <use style="fill:#f5deb3;stroke:#f5deb3;stroke-linejoin:miter;stroke-width:1.5;" x="113.977874" xlink:href="#m6d76722ef9" y="118.08"/>
     <use style="fill:#f5deb3;stroke:#f5deb3;stroke-linejoin:miter;stroke-width:1.5;" x="121.39274" xlink:href="#m6d76722ef9" y="32.967529"/>
     <use style="fill:#f5deb3;stroke:#f5deb3;stroke-linejoin:miter;stroke-width:1.5;" x="121.39274" xlink:href="#m6d76722ef9" y="27.648"/>
     <use style="fill:#f5deb3;stroke:#f5deb3;stroke-linejoin:miter;stroke-width:1.5;" x="360.8064" xlink:href="#m6d76722ef9" y="27.648"/>
    </g>
   </g>
   <g id="line2d_3">
    <path style="fill:none;stroke:#f5deb3;stroke-linecap:square;stroke-width:4;"/>
    <g/>
   </g>
   <g id="line2d_4">
    <path d="M 360.8064 27.648 
L 380.514816 33.07392 
" style="fill:none;stroke:#f5deb3;stroke-linecap:square;stroke-width:4;"/>
    <g>
     <use style="fill:#f5deb3;stroke:#f5deb3;stroke-linejoin:miter;stroke-width:1.5;" x="360.8064" xlink:href="#m6d76722ef9" y="27.648"/>
     <use style="fill:#f5deb3;stroke:#f5deb3;stroke-linejoin:miter;stroke-width:1.5;" x="380.514816" xlink:href="#m6d76722ef9" y="33.07392"/>
    </g>
   </g>
   <g id="matplotlib.axis_1">
    <g id="xtick_1">
     <g id="line2d_5">
      <path clip-path="url(#p88c8466416)" d="M 57.6 298.944 
L 57.6 27.648 
" style="fill:none;stroke:#b0b0b0;stroke-linecap:square;stroke-width:0.8;"/>
     </g>
     <g id="line2d_6">
      <defs>
       <path d="M 0 0 
L 0 3.5 
" id="med3d096bd7" style="stroke:#000000;stroke-width:0.8;"/>
      </defs>
      <g>
       <use style="stroke:#000000;stroke-width:0.8;" x="57.6" xlink:href="#med3d096bd7" y="298.944"/>
      </g>
     </g>
     <g id="text_1">
      <!-- 0 -->
      <g transform="translate(52.191875 318.861344)scale(0.17 -0.17)">
       <defs>
        <path d="M 2034 4250 
Q 1547 4250 1301 3770 
Q 1056 3291 1056 2328 
Q 1056 1369 1301 889 
Q 1547 409 2034 409 
Q 2525 409 2770 889 
Q 3016 1369 3016 2328 
Q 3016 3291 2770 3770 
Q 2525 4250 2034 4250 
z
M 2034 4750 
Q 2819 4750 3233 4129 
Q 3647 3509 3647 2328 
Q 3647 1150 3233 529 
Q 2819 -91 2034 -91 
Q 1250 -91 836 529 
Q 422 1150 422 2328 
Q 422 3509 836 4129 
Q 1250 4750 2034 4750 
z
" id="DejaVuSans-30" transform="scale(0.015625)"/>
       </defs>
       <use xlink:href="#DejaVuSans-30"/>
      </g>
     </g>
    </g>
    <g id="xtick_2">
     <g id="line2d_7">
      <path clip-path="url(#p88c8466416)" d="M 144.2304 298.944 
L 144.2304 27.648 
" style="fill:none;stroke:#b0b0b0;stroke-linecap:square;stroke-width:0.8;"/>
     </g>
     <g id="line2d_8">
      <g>
       <use style="stroke:#000000;stroke-width:0.8;" x="144.2304" xlink:href="#med3d096bd7" y="298.944"/>
      </g>
     </g>
     <g id="text_2">
      <!-- 2 -->
      <g transform="translate(138.822275 318.861344)scale(0.17 -0.17)">
       <defs>
        <path d="M 1228 531 
L 3431 531 
L 3431 0 
L 469 0 
L 469 531 
Q 828 903 1448 1529 
Q 2069 2156 2228 2338 
Q 2531 2678 2651 2914 
Q 2772 3150 2772 3378 
Q 2772 3750 2511 3984 
Q 2250 4219 1831 4219 
Q 1534 4219 1204 4116 
Q 875 4013 500 3803 
L 500 4441 
Q 881 4594 1212 4672 
Q 1544 4750 1819 4750 
Q 2544 4750 2975 4387 
Q 3406 4025 3406 3419 
Q 3406 3131 3298 2873 
Q 3191 2616 2906 2266 
Q 2828 2175 2409 1742 
Q 1991 1309 1228 531 
z
" id="DejaVuSans-32" transform="scale(0.015625)"/>
       </defs>
       <use xlink:href="#DejaVuSans-32"/>
      </g>
     </g>
    </g>
    <g id="xtick_3">
     <g id="line2d_9">
      <path clip-path="url(#p88c8466416)" d="M 230.8608 298.944 
L 230.8608 27.648 
" style="fill:none;stroke:#b0b0b0;stroke-linecap:square;stroke-width:0.8;"/>
     </g>
     <g id="line2d_10">
      <g>
       <use style="stroke:#000000;stroke-width:0.8;" x="230.8608" xlink:href="#med3d096bd7" y="298.944"/>
      </g>
     </g>
     <g id="text_3">
      <!-- 4 -->
      <g transform="translate(225.452675 318.861344)scale(0.17 -0.17)">
       <defs>
        <path d="M 2419 4116 
L 825 1625 
L 2419 1625 
L 2419 4116 
z
M 2253 4666 
L 3047 4666 
L 3047 1625 
L 3713 1625 
L 3713 1100 
L 3047 1100 
L 3047 0 
L 2419 0 
L 2419 1100 
L 313 1100 
L 313 1709 
L 2253 4666 
z
" id="DejaVuSans-34" transform="scale(0.015625)"/>
       </defs>
       <use xlink:href="#DejaVuSans-34"/>
      </g>
     </g>
    </g>
    <g id="xtick_4">
     <g id="line2d_11">
      <path clip-path="url(#p88c8466416)" d="M 317.4912 298.944 
L 317.4912 27.648 
" style="fill:none;stroke:#b0b0b0;stroke-linecap:square;stroke-width:0.8;"/>
     </g>
     <g id="line2d_12">
      <g>
       <use style="stroke:#000000;stroke-width:0.8;" x="317.4912" xlink:href="#med3d096bd7" y="298.944"/>
      </g>
     </g>
     <g id="text_4">
      <!-- 6 -->
      <g transform="translate(312.083075 318.861344)scale(0.17 -0.17)">
       <defs>
        <path d="M 2113 2584 
Q 1688 2584 1439 2293 
Q 1191 2003 1191 1497 
Q 1191 994 1439 701 
Q 1688 409 2113 409 
Q 2538 409 2786 701 
Q 3034 994 3034 1497 
Q 3034 2003 2786 2293 
Q 2538 2584 2113 2584 
z
M 3366 4563 
L 3366 3988 
Q 3128 4100 2886 4159 
Q 2644 4219 2406 4219 
Q 1781 4219 1451 3797 
Q 1122 3375 1075 2522 
Q 1259 2794 1537 2939 
Q 1816 3084 2150 3084 
Q 2853 3084 3261 2657 
Q 3669 2231 3669 1497 
Q 3669 778 3244 343 
Q 2819 -91 2113 -91 
Q 1303 -91 875 529 
Q 447 1150 447 2328 
Q 447 3434 972 4092 
Q 1497 4750 2381 4750 
Q 2619 4750 2861 4703 
Q 3103 4656 3366 4563 
z
" id="DejaVuSans-36" transform="scale(0.015625)"/>
       </defs>
       <use xlink:href="#DejaVuSans-36"/>
      </g>
     </g>
    </g>
    <g id="xtick_5">
     <g id="line2d_13">
      <path clip-path="url(#p88c8466416)" d="M 100.9152 298.944 
L 100.9152 27.648 
" style="fill:none;stroke:#b0b0b0;stroke-linecap:square;stroke-width:0.8;"/>
     </g>
     <g id="line2d_14">
      <defs>
       <path d="M 0 0 
L 0 2 
" id="m6af7199ae9" style="stroke:#000000;stroke-width:0.6;"/>
      </defs>
      <g>
       <use style="stroke:#000000;stroke-width:0.6;" x="100.9152" xlink:href="#m6af7199ae9" y="298.944"/>
      </g>
     </g>
    </g>
    <g id="xtick_6">
     <g id="line2d_15">
      <path clip-path="url(#p88c8466416)" d="M 187.5456 298.944 
L 187.5456 27.648 
" style="fill:none;stroke:#b0b0b0;stroke-linecap:square;stroke-width:0.8;"/>
     </g>
     <g id="line2d_16">
      <g>
       <use style="stroke:#000000;stroke-width:0.6;" x="187.5456" xlink:href="#m6af7199ae9" y="298.944"/>
      </g>
     </g>
    </g>
    <g id="xtick_7">
     <g id="line2d_17">
      <path clip-path="url(#p88c8466416)" d="M 274.176 298.944 
L 274.176 27.648 
" style="fill:none;stroke:#b0b0b0;stroke-linecap:square;stroke-width:0.8;"/>
     </g>
     <g id="line2d_18">
      <g>
       <use style="stroke:#000000;stroke-width:0.6;" x="274.176" xlink:href="#m6af7199ae9" y="298.944"/>
      </g>
     </g>
    </g>
    <g id="xtick_8">
     <g id="line2d_19">
      <path clip-path="url(#p88c8466416)" d="M 360.8064 298.944 
L 360.8064 27.648 
" style="fill:none;stroke:#b0b0b0;stroke-linecap:square;stroke-width:0.8;"/>
     </g>
     <g id="line2d_20">
      <g>
       <use style="stroke:#000000;stroke-width:0.6;" x="360.8064" xlink:href="#m6af7199ae9" y="298.944"/>
      </g>
     </g>
    </g>
    <g id="text_5">
     <!-- log10(# f-evals / dimension) -->
     <g transform="translate(88.823278 339.314156)scale(0.17 -0.17)">
      <defs>
       <path d="M 603 4863 
L 1178 4863 
L 1178 0 
L 603 0 
L 603 4863 
z
" id="DejaVuSans-6c" transform="scale(0.015625)"/>
       <path d="M 1959 3097 
Q 1497 3097 1228 2736 
Q 959 2375 959 1747 
Q 959 1119 1226 758 
Q 1494 397 1959 397 
Q 2419 397 2687 759 
Q 2956 1122 2956 1747 
Q 2956 2369 2687 2733 
Q 2419 3097 1959 3097 
z
M 1959 3584 
Q 2709 3584 3137 3096 
Q 3566 2609 3566 1747 
Q 3566 888 3137 398 
Q 2709 -91 1959 -91 
Q 1206 -91 779 398 
Q 353 888 353 1747 
Q 353 2609 779 3096 
Q 1206 3584 1959 3584 
z
" id="DejaVuSans-6f" transform="scale(0.015625)"/>
       <path d="M 2906 1791 
Q 2906 2416 2648 2759 
Q 2391 3103 1925 3103 
Q 1463 3103 1205 2759 
Q 947 2416 947 1791 
Q 947 1169 1205 825 
Q 1463 481 1925 481 
Q 2391 481 2648 825 
Q 2906 1169 2906 1791 
z
M 3481 434 
Q 3481 -459 3084 -895 
Q 2688 -1331 1869 -1331 
Q 1566 -1331 1297 -1286 
Q 1028 -1241 775 -1147 
L 775 -588 
Q 1028 -725 1275 -790 
Q 1522 -856 1778 -856 
Q 2344 -856 2625 -561 
Q 2906 -266 2906 331 
L 2906 616 
Q 2728 306 2450 153 
Q 2172 0 1784 0 
Q 1141 0 747 490 
Q 353 981 353 1791 
Q 353 2603 747 3093 
Q 1141 3584 1784 3584 
Q 2172 3584 2450 3431 
Q 2728 3278 2906 2969 
L 2906 3500 
L 3481 3500 
L 3481 434 
z
" id="DejaVuSans-67" transform="scale(0.015625)"/>
       <path d="M 794 531 
L 1825 531 
L 1825 4091 
L 703 3866 
L 703 4441 
L 1819 4666 
L 2450 4666 
L 2450 531 
L 3481 531 
L 3481 0 
L 794 0 
L 794 531 
z
" id="DejaVuSans-31" transform="scale(0.015625)"/>
       <path d="M 1984 4856 
Q 1566 4138 1362 3434 
Q 1159 2731 1159 2009 
Q 1159 1288 1364 580 
Q 1569 -128 1984 -844 
L 1484 -844 
Q 1016 -109 783 600 
Q 550 1309 550 2009 
Q 550 2706 781 3412 
Q 1013 4119 1484 4856 
L 1984 4856 
z
" id="DejaVuSans-28" transform="scale(0.015625)"/>
       <path d="M 3272 2816 
L 2363 2816 
L 2100 1772 
L 3016 1772 
L 3272 2816 
z
M 2803 4594 
L 2478 3297 
L 3391 3297 
L 3719 4594 
L 4219 4594 
L 3897 3297 
L 4872 3297 
L 4872 2816 
L 3775 2816 
L 3519 1772 
L 4513 1772 
L 4513 1294 
L 3397 1294 
L 3072 0 
L 2572 0 
L 2894 1294 
L 1978 1294 
L 1656 0 
L 1153 0 
L 1478 1294 
L 494 1294 
L 494 1772 
L 1594 1772 
L 1856 2816 
L 850 2816 
L 850 3297 
L 1978 3297 
L 2297 4594 
L 2803 4594 
z
" id="DejaVuSans-23" transform="scale(0.015625)"/>
       <path id="DejaVuSans-20" transform="scale(0.015625)"/>
       <path d="M 2375 4863 
L 2375 4384 
L 1825 4384 
Q 1516 4384 1395 4259 
Q 1275 4134 1275 3809 
L 1275 3500 
L 2222 3500 
L 2222 3053 
L 1275 3053 
L 1275 0 
L 697 0 
L 697 3053 
L 147 3053 
L 147 3500 
L 697 3500 
L 697 3744 
Q 697 4328 969 4595 
Q 1241 4863 1831 4863 
L 2375 4863 
z
" id="DejaVuSans-66" transform="scale(0.015625)"/>
       <path d="M 313 2009 
L 1997 2009 
L 1997 1497 
L 313 1497 
L 313 2009 
z
" id="DejaVuSans-2d" transform="scale(0.015625)"/>
       <path d="M 3597 1894 
L 3597 1613 
L 953 1613 
Q 991 1019 1311 708 
Q 1631 397 2203 397 
Q 2534 397 2845 478 
Q 3156 559 3463 722 
L 3463 178 
Q 3153 47 2828 -22 
Q 2503 -91 2169 -91 
Q 1331 -91 842 396 
Q 353 884 353 1716 
Q 353 2575 817 3079 
Q 1281 3584 2069 3584 
Q 2775 3584 3186 3129 
Q 3597 2675 3597 1894 
z
M 3022 2063 
Q 3016 2534 2758 2815 
Q 2500 3097 2075 3097 
Q 1594 3097 1305 2825 
Q 1016 2553 972 2059 
L 3022 2063 
z
" id="DejaVuSans-65" transform="scale(0.015625)"/>
       <path d="M 191 3500 
L 800 3500 
L 1894 563 
L 2988 3500 
L 3597 3500 
L 2284 0 
L 1503 0 
L 191 3500 
z
" id="DejaVuSans-76" transform="scale(0.015625)"/>
       <path d="M 2194 1759 
Q 1497 1759 1228 1600 
Q 959 1441 959 1056 
Q 959 750 1161 570 
Q 1363 391 1709 391 
Q 2188 391 2477 730 
Q 2766 1069 2766 1631 
L 2766 1759 
L 2194 1759 
z
M 3341 1997 
L 3341 0 
L 2766 0 
L 2766 531 
Q 2569 213 2275 61 
Q 1981 -91 1556 -91 
Q 1019 -91 701 211 
Q 384 513 384 1019 
Q 384 1609 779 1909 
Q 1175 2209 1959 2209 
L 2766 2209 
L 2766 2266 
Q 2766 2663 2505 2880 
Q 2244 3097 1772 3097 
Q 1472 3097 1187 3025 
Q 903 2953 641 2809 
L 641 3341 
Q 956 3463 1253 3523 
Q 1550 3584 1831 3584 
Q 2591 3584 2966 3190 
Q 3341 2797 3341 1997 
z
" id="DejaVuSans-61" transform="scale(0.015625)"/>
       <path d="M 2834 3397 
L 2834 2853 
Q 2591 2978 2328 3040 
Q 2066 3103 1784 3103 
Q 1356 3103 1142 2972 
Q 928 2841 928 2578 
Q 928 2378 1081 2264 
Q 1234 2150 1697 2047 
L 1894 2003 
Q 2506 1872 2764 1633 
Q 3022 1394 3022 966 
Q 3022 478 2636 193 
Q 2250 -91 1575 -91 
Q 1294 -91 989 -36 
Q 684 19 347 128 
L 347 722 
Q 666 556 975 473 
Q 1284 391 1588 391 
Q 1994 391 2212 530 
Q 2431 669 2431 922 
Q 2431 1156 2273 1281 
Q 2116 1406 1581 1522 
L 1381 1569 
Q 847 1681 609 1914 
Q 372 2147 372 2553 
Q 372 3047 722 3315 
Q 1072 3584 1716 3584 
Q 2034 3584 2315 3537 
Q 2597 3491 2834 3397 
z
" id="DejaVuSans-73" transform="scale(0.015625)"/>
       <path d="M 1625 4666 
L 2156 4666 
L 531 -594 
L 0 -594 
L 1625 4666 
z
" id="DejaVuSans-2f" transform="scale(0.015625)"/>
       <path d="M 2906 2969 
L 2906 4863 
L 3481 4863 
L 3481 0 
L 2906 0 
L 2906 525 
Q 2725 213 2448 61 
Q 2172 -91 1784 -91 
Q 1150 -91 751 415 
Q 353 922 353 1747 
Q 353 2572 751 3078 
Q 1150 3584 1784 3584 
Q 2172 3584 2448 3432 
Q 2725 3281 2906 2969 
z
M 947 1747 
Q 947 1113 1208 752 
Q 1469 391 1925 391 
Q 2381 391 2643 752 
Q 2906 1113 2906 1747 
Q 2906 2381 2643 2742 
Q 2381 3103 1925 3103 
Q 1469 3103 1208 2742 
Q 947 2381 947 1747 
z
" id="DejaVuSans-64" transform="scale(0.015625)"/>
       <path d="M 603 3500 
L 1178 3500 
L 1178 0 
L 603 0 
L 603 3500 
z
M 603 4863 
L 1178 4863 
L 1178 4134 
L 603 4134 
L 603 4863 
z
" id="DejaVuSans-69" transform="scale(0.015625)"/>
       <path d="M 3328 2828 
Q 3544 3216 3844 3400 
Q 4144 3584 4550 3584 
Q 5097 3584 5394 3201 
Q 5691 2819 5691 2113 
L 5691 0 
L 5113 0 
L 5113 2094 
Q 5113 2597 4934 2840 
Q 4756 3084 4391 3084 
Q 3944 3084 3684 2787 
Q 3425 2491 3425 1978 
L 3425 0 
L 2847 0 
L 2847 2094 
Q 2847 2600 2669 2842 
Q 2491 3084 2119 3084 
Q 1678 3084 1418 2786 
Q 1159 2488 1159 1978 
L 1159 0 
L 581 0 
L 581 3500 
L 1159 3500 
L 1159 2956 
Q 1356 3278 1631 3431 
Q 1906 3584 2284 3584 
Q 2666 3584 2933 3390 
Q 3200 3197 3328 2828 
z
" id="DejaVuSans-6d" transform="scale(0.015625)"/>
       <path d="M 3513 2113 
L 3513 0 
L 2938 0 
L 2938 2094 
Q 2938 2591 2744 2837 
Q 2550 3084 2163 3084 
Q 1697 3084 1428 2787 
Q 1159 2491 1159 1978 
L 1159 0 
L 581 0 
L 581 3500 
L 1159 3500 
L 1159 2956 
Q 1366 3272 1645 3428 
Q 1925 3584 2291 3584 
Q 2894 3584 3203 3211 
Q 3513 2838 3513 2113 
z
" id="DejaVuSans-6e" transform="scale(0.015625)"/>
       <path d="M 513 4856 
L 1013 4856 
Q 1481 4119 1714 3412 
Q 1947 2706 1947 2009 
Q 1947 1309 1714 600 
Q 1481 -109 1013 -844 
L 513 -844 
Q 928 -128 1133 580 
Q 1338 1288 1338 2009 
Q 1338 2731 1133 3434 
Q 928 4138 513 4856 
z
" id="DejaVuSans-29" transform="scale(0.015625)"/>
      </defs>
      <use xlink:href="#DejaVuSans-6c"/>
      <use x="27.783203" xlink:href="#DejaVuSans-6f"/>
      <use x="88.964844" xlink:href="#DejaVuSans-67"/>
      <use x="152.441406" xlink:href="#DejaVuSans-31"/>
      <use x="216.064453" xlink:href="#DejaVuSans-30"/>
      <use x="279.6875" xlink:href="#DejaVuSans-28"/>
      <use x="318.701172" xlink:href="#DejaVuSans-23"/>
      <use x="402.490234" xlink:href="#DejaVuSans-20"/>
      <use x="434.277344" xlink:href="#DejaVuSans-66"/>
      <use x="463.982422" xlink:href="#DejaVuSans-2d"/>
      <use x="500.066406" xlink:href="#DejaVuSans-65"/>
      <use x="561.589844" xlink:href="#DejaVuSans-76"/>
      <use x="620.769531" xlink:href="#DejaVuSans-61"/>
      <use x="682.048828" xlink:href="#DejaVuSans-6c"/>
      <use x="709.832031" xlink:href="#DejaVuSans-73"/>
      <use x="761.931641" xlink:href="#DejaVuSans-20"/>
      <use x="793.71875" xlink:href="#DejaVuSans-2f"/>
      <use x="827.410156" xlink:href="#DejaVuSans-20"/>
      <use x="859.197266" xlink:href="#DejaVuSans-64"/>
      <use x="922.673828" xlink:href="#DejaVuSans-69"/>
      <use x="950.457031" xlink:href="#DejaVuSans-6d"/>
      <use x="1047.869141" xlink:href="#DejaVuSans-65"/>
      <use x="1109.392578" xlink:href="#DejaVuSans-6e"/>
      <use x="1172.771484" xlink:href="#DejaVuSans-73"/>
      <use x="1224.871094" xlink:href="#DejaVuSans-69"/>
      <use x="1252.654297" xlink:href="#DejaVuSans-6f"/>
      <use x="1313.835938" xlink:href="#DejaVuSans-6e"/>
      <use x="1377.214844" xlink:href="#DejaVuSans-29"/>
     </g>
    </g>
   </g>
   <g id="matplotlib.axis_2">
    <g id="ytick_1">
     <g id="line2d_21">
      <path clip-path="url(#p88c8466416)" d="M 57.6 298.944 
L 360.8064 298.944 
" style="fill:none;stroke:#b0b0b0;stroke-linecap:square;stroke-width:0.8;"/>
     </g>
     <g id="line2d_22">
      <defs>
       <path d="M 0 0 
L -3.5 0 
" id="m4c138463cc" style="stroke:#000000;stroke-width:0.8;"/>
      </defs>
      <g>
       <use style="stroke:#000000;stroke-width:0.8;" x="57.6" xlink:href="#m4c138463cc" y="298.944"/>
      </g>
     </g>
     <g id="text_6">
      <!-- 0.0 -->
      <g transform="translate(25.155 305.02275)scale(0.16 -0.16)">
       <defs>
        <path d="M 684 794 
L 1344 794 
L 1344 0 
L 684 0 
L 684 794 
z
" id="DejaVuSans-2e" transform="scale(0.015625)"/>
       </defs>
       <use xlink:href="#DejaVuSans-30"/>
       <use x="63.623047" xlink:href="#DejaVuSans-2e"/>
       <use x="95.410156" xlink:href="#DejaVuSans-30"/>
      </g>
     </g>
    </g>
    <g id="ytick_2">
     <g id="line2d_23">
      <path clip-path="url(#p88c8466416)" d="M 57.6 244.6848 
L 360.8064 244.6848 
" style="fill:none;stroke:#b0b0b0;stroke-linecap:square;stroke-width:0.8;"/>
     </g>
     <g id="line2d_24">
      <g>
       <use style="stroke:#000000;stroke-width:0.8;" x="57.6" xlink:href="#m4c138463cc" y="244.6848"/>
      </g>
     </g>
     <g id="text_7">
      <!-- 0.2 -->
      <g transform="translate(25.155 250.76355)scale(0.16 -0.16)">
       <use xlink:href="#DejaVuSans-30"/>
       <use x="63.623047" xlink:href="#DejaVuSans-2e"/>
       <use x="95.410156" xlink:href="#DejaVuSans-32"/>
      </g>
     </g>
    </g>
    <g id="ytick_3">
     <g id="line2d_25">
      <path clip-path="url(#p88c8466416)" d="M 57.6 190.4256 
L 360.8064 190.4256 
" style="fill:none;stroke:#b0b0b0;stroke-linecap:square;stroke-width:0.8;"/>
     </g>
     <g id="line2d_26">
      <g>
       <use style="stroke:#000000;stroke-width:0.8;" x="57.6" xlink:href="#m4c138463cc" y="190.4256"/>
      </g>
     </g>
     <g id="text_8">
      <!-- 0.4 -->
      <g transform="translate(25.155 196.50435)scale(0.16 -0.16)">
       <use xlink:href="#DejaVuSans-30"/>
       <use x="63.623047" xlink:href="#DejaVuSans-2e"/>
       <use x="95.410156" xlink:href="#DejaVuSans-34"/>
      </g>
     </g>
    </g>
    <g id="ytick_4">
     <g id="line2d_27">
      <path clip-path="url(#p88c8466416)" d="M 57.6 136.1664 
L 360.8064 136.1664 
" style="fill:none;stroke:#b0b0b0;stroke-linecap:square;stroke-width:0.8;"/>
     </g>
     <g id="line2d_28">
      <g>
       <use style="stroke:#000000;stroke-width:0.8;" x="57.6" xlink:href="#m4c138463cc" y="136.1664"/>
      </g>
     </g>
     <g id="text_9">
      <!-- 0.6 -->
      <g transform="translate(25.155 142.24515)scale(0.16 -0.16)">
       <use xlink:href="#DejaVuSans-30"/>
       <use x="63.623047" xlink:href="#DejaVuSans-2e"/>
       <use x="95.410156" xlink:href="#DejaVuSans-36"/>
      </g>
     </g>
    </g>
    <g id="ytick_5">
     <g id="line2d_29">
      <path clip-path="url(#p88c8466416)" d="M 57.6 81.9072 
L 360.8064 81.9072 
" style="fill:none;stroke:#b0b0b0;stroke-linecap:square;stroke-width:0.8;"/>
     </g>
     <g id="line2d_30">
      <g>
       <use style="stroke:#000000;stroke-width:0.8;" x="57.6" xlink:href="#m4c138463cc" y="81.9072"/>
      </g>
     </g>
     <g id="text_10">
      <!-- 0.8 -->
      <g transform="translate(25.155 87.98595)scale(0.16 -0.16)">
       <defs>
        <path d="M 2034 2216 
Q 1584 2216 1326 1975 
Q 1069 1734 1069 1313 
Q 1069 891 1326 650 
Q 1584 409 2034 409 
Q 2484 409 2743 651 
Q 3003 894 3003 1313 
Q 3003 1734 2745 1975 
Q 2488 2216 2034 2216 
z
M 1403 2484 
Q 997 2584 770 2862 
Q 544 3141 544 3541 
Q 544 4100 942 4425 
Q 1341 4750 2034 4750 
Q 2731 4750 3128 4425 
Q 3525 4100 3525 3541 
Q 3525 3141 3298 2862 
Q 3072 2584 2669 2484 
Q 3125 2378 3379 2068 
Q 3634 1759 3634 1313 
Q 3634 634 3220 271 
Q 2806 -91 2034 -91 
Q 1263 -91 848 271 
Q 434 634 434 1313 
Q 434 1759 690 2068 
Q 947 2378 1403 2484 
z
M 1172 3481 
Q 1172 3119 1398 2916 
Q 1625 2713 2034 2713 
Q 2441 2713 2670 2916 
Q 2900 3119 2900 3481 
Q 2900 3844 2670 4047 
Q 2441 4250 2034 4250 
Q 1625 4250 1398 4047 
Q 1172 3844 1172 3481 
z
" id="DejaVuSans-38" transform="scale(0.015625)"/>
       </defs>
       <use xlink:href="#DejaVuSans-30"/>
       <use x="63.623047" xlink:href="#DejaVuSans-2e"/>
       <use x="95.410156" xlink:href="#DejaVuSans-38"/>
      </g>
     </g>
    </g>
    <g id="ytick_6">
     <g id="line2d_31">
      <path clip-path="url(#p88c8466416)" d="M 57.6 27.648 
L 360.8064 27.648 
" style="fill:none;stroke:#b0b0b0;stroke-linecap:square;stroke-width:0.8;"/>
     </g>
     <g id="line2d_32">
      <g>
       <use style="stroke:#000000;stroke-width:0.8;" x="57.6" xlink:href="#m4c138463cc" y="27.648"/>
      </g>
     </g>
     <g id="text_11">
      <!-- 1.0 -->
      <g transform="translate(25.155 33.72675)scale(0.16 -0.16)">
       <use xlink:href="#DejaVuSans-31"/>
       <use x="63.623047" xlink:href="#DejaVuSans-2e"/>
       <use x="95.410156" xlink:href="#DejaVuSans-30"/>
      </g>
     </g>
    </g>
    <g id="text_12">
     <!-- Fraction of function,target pairs -->
     <g transform="translate(17.619531 297.681)rotate(-90)scale(0.17 -0.17)">
      <defs>
       <path d="M 628 4666 
L 3309 4666 
L 3309 4134 
L 1259 4134 
L 1259 2759 
L 3109 2759 
L 3109 2228 
L 1259 2228 
L 1259 0 
L 628 0 
L 628 4666 
z
" id="DejaVuSans-46" transform="scale(0.015625)"/>
       <path d="M 2631 2963 
Q 2534 3019 2420 3045 
Q 2306 3072 2169 3072 
Q 1681 3072 1420 2755 
Q 1159 2438 1159 1844 
L 1159 0 
L 581 0 
L 581 3500 
L 1159 3500 
L 1159 2956 
Q 1341 3275 1631 3429 
Q 1922 3584 2338 3584 
Q 2397 3584 2469 3576 
Q 2541 3569 2628 3553 
L 2631 2963 
z
" id="DejaVuSans-72" transform="scale(0.015625)"/>
       <path d="M 3122 3366 
L 3122 2828 
Q 2878 2963 2633 3030 
Q 2388 3097 2138 3097 
Q 1578 3097 1268 2742 
Q 959 2388 959 1747 
Q 959 1106 1268 751 
Q 1578 397 2138 397 
Q 2388 397 2633 464 
Q 2878 531 3122 666 
L 3122 134 
Q 2881 22 2623 -34 
Q 2366 -91 2075 -91 
Q 1284 -91 818 406 
Q 353 903 353 1747 
Q 353 2603 823 3093 
Q 1294 3584 2113 3584 
Q 2378 3584 2631 3529 
Q 2884 3475 3122 3366 
z
" id="DejaVuSans-63" transform="scale(0.015625)"/>
       <path d="M 1172 4494 
L 1172 3500 
L 2356 3500 
L 2356 3053 
L 1172 3053 
L 1172 1153 
Q 1172 725 1289 603 
Q 1406 481 1766 481 
L 2356 481 
L 2356 0 
L 1766 0 
Q 1100 0 847 248 
Q 594 497 594 1153 
L 594 3053 
L 172 3053 
L 172 3500 
L 594 3500 
L 594 4494 
L 1172 4494 
z
" id="DejaVuSans-74" transform="scale(0.015625)"/>
       <path d="M 544 1381 
L 544 3500 
L 1119 3500 
L 1119 1403 
Q 1119 906 1312 657 
Q 1506 409 1894 409 
Q 2359 409 2629 706 
Q 2900 1003 2900 1516 
L 2900 3500 
L 3475 3500 
L 3475 0 
L 2900 0 
L 2900 538 
Q 2691 219 2414 64 
Q 2138 -91 1772 -91 
Q 1169 -91 856 284 
Q 544 659 544 1381 
z
M 1991 3584 
L 1991 3584 
z
" id="DejaVuSans-75" transform="scale(0.015625)"/>
       <path d="M 750 794 
L 1409 794 
L 1409 256 
L 897 -744 
L 494 -744 
L 750 256 
L 750 794 
z
" id="DejaVuSans-2c" transform="scale(0.015625)"/>
       <path d="M 1159 525 
L 1159 -1331 
L 581 -1331 
L 581 3500 
L 1159 3500 
L 1159 2969 
Q 1341 3281 1617 3432 
Q 1894 3584 2278 3584 
Q 2916 3584 3314 3078 
Q 3713 2572 3713 1747 
Q 3713 922 3314 415 
Q 2916 -91 2278 -91 
Q 1894 -91 1617 61 
Q 1341 213 1159 525 
z
M 3116 1747 
Q 3116 2381 2855 2742 
Q 2594 3103 2138 3103 
Q 1681 3103 1420 2742 
Q 1159 2381 1159 1747 
Q 1159 1113 1420 752 
Q 1681 391 2138 391 
Q 2594 391 2855 752 
Q 3116 1113 3116 1747 
z
" id="DejaVuSans-70" transform="scale(0.015625)"/>
      </defs>
      <use xlink:href="#DejaVuSans-46"/>
      <use x="50.269531" xlink:href="#DejaVuSans-72"/>
      <use x="91.382812" xlink:href="#DejaVuSans-61"/>
      <use x="152.662109" xlink:href="#DejaVuSans-63"/>
      <use x="207.642578" xlink:href="#DejaVuSans-74"/>
      <use x="246.851562" xlink:href="#DejaVuSans-69"/>
      <use x="274.634766" xlink:href="#DejaVuSans-6f"/>
      <use x="335.816406" xlink:href="#DejaVuSans-6e"/>
      <use x="399.195312" xlink:href="#DejaVuSans-20"/>
      <use x="430.982422" xlink:href="#DejaVuSans-6f"/>
      <use x="492.164062" xlink:href="#DejaVuSans-66"/>
      <use x="527.369141" xlink:href="#DejaVuSans-20"/>
      <use x="559.15625" xlink:href="#DejaVuSans-66"/>
      <use x="594.361328" xlink:href="#DejaVuSans-75"/>
      <use x="657.740234" xlink:href="#DejaVuSans-6e"/>
      <use x="721.119141" xlink:href="#DejaVuSans-63"/>
      <use x="776.099609" xlink:href="#DejaVuSans-74"/>
      <use x="815.308594" xlink:href="#DejaVuSans-69"/>
      <use x="843.091797" xlink:href="#DejaVuSans-6f"/>
      <use x="904.273438" xlink:href="#DejaVuSans-6e"/>
      <use x="967.652344" xlink:href="#DejaVuSans-2c"/>
      <use x="999.439453" xlink:href="#DejaVuSans-74"/>
      <use x="1038.648438" xlink:href="#DejaVuSans-61"/>
      <use x="1099.927734" xlink:href="#DejaVuSans-72"/>
      <use x="1139.291016" xlink:href="#DejaVuSans-67"/>
      <use x="1202.767578" xlink:href="#DejaVuSans-65"/>
      <use x="1264.291016" xlink:href="#DejaVuSans-74"/>
      <use x="1303.5" xlink:href="#DejaVuSans-20"/>
      <use x="1335.287109" xlink:href="#DejaVuSans-70"/>
      <use x="1398.763672" xlink:href="#DejaVuSans-61"/>
      <use x="1460.042969" xlink:href="#DejaVuSans-69"/>
      <use x="1487.826172" xlink:href="#DejaVuSans-72"/>
      <use x="1528.939453" xlink:href="#DejaVuSans-73"/>
     </g>
    </g>
   </g>
   <g id="line2d_33">
    <defs>
     <path d="M 0 1.5 
C 0.397805 1.5 0.77937 1.341951 1.06066 1.06066 
C 1.341951 0.77937 1.5 0.397805 1.5 0 
C 1.5 -0.397805 1.341951 -0.77937 1.06066 -1.06066 
C 0.77937 -1.341951 0.397805 -1.5 0 -1.5 
C -0.397805 -1.5 -0.77937 -1.341951 -1.06066 -1.06066 
C -1.341951 -0.77937 -1.5 -0.397805 -1.5 0 
C -1.5 0.397805 -1.341951 0.77937 -1.06066 1.06066 
C -0.77937 1.341951 -0.397805 1.5 0 1.5 
z
" id="m724d08a43e" style="stroke:#f5deb3;"/>
    </defs>
    <g>
     <use style="fill:#f5deb3;stroke:#f5deb3;" x="121.39274" xlink:href="#m724d08a43e" y="27.648"/>
     <use style="fill:#f5deb3;stroke:#f5deb3;" x="121.39274" xlink:href="#m724d08a43e" y="27.648"/>
    </g>
   </g>
   <g id="line2d_34">
    <defs>
     <path d="M 0 1.5 
C 0.397805 1.5 0.77937 1.341951 1.06066 1.06066 
C 1.341951 0.77937 1.5 0.397805 1.5 0 
C 1.5 -0.397805 1.341951 -0.77937 1.06066 -1.06066 
C 0.77937 -1.341951 0.397805 -1.5 0 -1.5 
C -0.397805 -1.5 -0.77937 -1.341951 -1.06066 -1.06066 
C -1.341951 -0.77937 -1.5 -0.397805 -1.5 0 
C -1.5 0.397805 -1.341951 0.77937 -1.06066 1.06066 
C -0.77937 1.341951 -0.397805 1.5 0 1.5 
z
" id="m6605a6b8cb" style="stroke:#000080;"/>
    </defs>
    <g>
     <use style="fill:#000080;stroke:#000080;" x="221.228083" xlink:href="#m6605a6b8cb" y="27.648"/>
     <use style="fill:#000080;stroke:#000080;" x="221.228083" xlink:href="#m6605a6b8cb" y="27.648"/>
    </g>
   </g>
   <g id="line2d_35">
    <path d="M 160.393119 298.944 
L 160.393119 298.589365 
L 160.911712 298.589365 
L 160.911712 298.234729 
L 161.192487 298.234729 
L 161.283888 297.170824 
L 161.480415 297.170824 
L 161.536725 296.461553 
L 161.756593 296.461553 
L 161.775109 295.752282 
L 161.88214 295.752282 
L 161.988565 294.688376 
L 161.995883 294.688376 
L 162.036078 293.979106 
L 162.318664 293.979106 
L 162.422655 292.9152 
L 162.479784 292.9152 
L 162.522518 292.205929 
L 162.681909 292.205929 
L 162.769879 291.496659 
L 162.871412 291.496659 
L 162.923715 290.787388 
L 163.217381 290.787388 
L 163.265313 290.078118 
L 163.401592 290.078118 
L 163.486268 289.014212 
L 163.667878 289.014212 
L 163.687949 287.595671 
L 163.797958 287.595671 
L 163.851065 286.177129 
L 163.970011 286.177129 
L 164.071837 285.113224 
L 164.556906 285.113224 
L 164.576051 284.049318 
L 164.687344 284.049318 
L 164.750645 282.630776 
L 164.892299 282.630776 
L 164.998624 280.8576 
L 165.187889 280.8576 
L 165.283348 278.729788 
L 165.445438 278.729788 
L 165.445438 278.375153 
L 165.65439 278.375153 
L 165.741523 277.311247 
L 165.786433 277.311247 
L 165.881886 276.601976 
L 165.917556 276.601976 
L 166.024162 275.892706 
L 166.07724 275.892706 
L 166.14191 274.8288 
L 166.209282 274.8288 
L 166.293888 273.764894 
L 166.331691 273.764894 
L 166.363619 273.055624 
L 166.525328 273.055624 
L 166.634273 272.346353 
L 166.637132 272.346353 
L 166.742591 271.637082 
L 166.94894 271.637082 
L 166.94894 271.282447 
L 167.091771 271.282447 
L 167.18084 269.154635 
L 167.205814 269.154635 
L 167.316414 268.090729 
L 167.335702 268.090729 
L 167.426367 267.381459 
L 167.609111 267.381459 
L 167.709273 265.962918 
L 167.749728 265.962918 
L 167.749728 265.608282 
L 167.958703 265.608282 
L 168.027849 264.899012 
L 168.083512 264.899012 
L 168.146926 263.835106 
L 168.210127 263.835106 
L 168.260012 263.125835 
L 168.330673 263.125835 
L 168.432273 260.998024 
L 168.55657 260.998024 
L 168.64412 260.288753 
L 168.797632 260.288753 
L 168.884069 259.579482 
L 168.942317 259.579482 
L 168.942317 259.224847 
L 169.108469 259.224847 
L 169.198483 258.160941 
L 169.295514 258.160941 
L 169.404387 256.033129 
L 169.524896 256.033129 
L 169.617823 254.969224 
L 169.690863 254.969224 
L 169.785394 253.905318 
L 169.802311 253.905318 
L 169.831276 253.196047 
L 169.968254 253.196047 
L 169.968254 252.841412 
L 170.09473 252.841412 
L 170.201453 251.422871 
L 170.236893 251.422871 
L 170.345161 250.358965 
L 170.359237 250.358965 
L 170.469137 248.940424 
L 170.478461 248.940424 
L 170.50175 248.231153 
L 170.666276 248.231153 
L 170.668583 247.521882 
L 170.785869 247.521882 
L 170.843095 246.457976 
L 170.913816 246.457976 
L 170.913816 246.103341 
L 171.117639 246.103341 
L 171.209764 245.394071 
L 171.241119 245.394071 
L 171.332643 244.330165 
L 171.381571 244.330165 
L 171.421508 242.911624 
L 171.518777 242.911624 
L 171.628703 241.847718 
L 171.72927 241.847718 
L 171.796742 240.429176 
L 171.898578 240.429176 
L 171.924491 239.719906 
L 172.049235 239.719906 
L 172.119843 237.946729 
L 172.243302 237.946729 
L 172.353306 237.237459 
L 172.361741 237.237459 
L 172.460572 236.173553 
L 172.494099 236.173553 
L 172.494099 235.818918 
L 172.650463 235.818918 
L 172.706437 234.755012 
L 172.79524 234.755012 
L 172.895924 233.336471 
L 172.93073 233.336471 
L 173.022554 231.563294 
L 173.079463 231.563294 
L 173.079463 231.208659 
L 173.335448 231.208659 
L 173.445235 228.016941 
L 173.488971 228.016941 
L 173.512785 227.307671 
L 173.664874 227.307671 
L 173.708103 226.243765 
L 173.860575 226.243765 
L 173.97122 224.825224 
L 174.015682 224.825224 
L 174.102372 223.761318 
L 174.127341 223.761318 
L 174.238341 223.052047 
L 174.282177 223.052047 
L 174.35438 221.633506 
L 174.409296 221.633506 
L 174.471592 220.924235 
L 174.526167 220.924235 
L 174.546827 219.505694 
L 174.642317 219.505694 
L 174.670311 218.441788 
L 174.768888 218.441788 
L 174.809656 217.732518 
L 174.901983 217.732518 
L 174.942464 217.023247 
L 175.045114 217.023247 
L 175.136295 216.313976 
L 175.15993 216.313976 
L 175.250558 214.5408 
L 175.272244 214.5408 
L 175.31554 213.122259 
L 175.42514 213.122259 
L 175.535886 212.058353 
L 175.649524 212.058353 
L 175.649524 211.703718 
L 175.771277 211.703718 
L 175.87826 209.221271 
L 175.892246 209.221271 
L 175.92542 208.512 
L 176.080041 208.512 
L 176.162908 207.448094 
L 176.202486 207.448094 
L 176.23855 206.384188 
L 176.330969 206.384188 
L 176.438221 205.674918 
L 176.468752 205.674918 
L 176.558363 204.256376 
L 176.602168 204.256376 
L 176.662653 202.128565 
L 176.746338 202.128565 
L 176.791373 200.710024 
L 176.887754 200.710024 
L 176.991886 200.000753 
L 177.014948 200.000753 
L 177.116744 198.582212 
L 177.156001 198.582212 
L 177.195176 197.518306 
L 177.304111 197.518306 
L 177.412419 195.745129 
L 177.434972 195.745129 
L 177.542531 194.326588 
L 177.588896 194.326588 
L 177.623994 192.908047 
L 177.70828 192.908047 
L 177.819025 191.844141 
L 177.861567 191.844141 
L 177.957328 189.361694 
L 177.993309 189.361694 
L 178.04793 188.297788 
L 178.162895 188.297788 
L 178.241721 187.233882 
L 178.311 187.233882 
L 178.372368 185.106071 
L 178.430483 185.106071 
L 178.509719 183.332894 
L 178.558313 183.332894 
L 178.638524 181.914353 
L 178.709369 181.914353 
L 178.764953 180.850447 
L 178.832335 180.850447 
L 178.892028 179.431906 
L 178.945591 179.431906 
L 179.044872 178.368 
L 179.105369 178.368 
L 179.211139 176.240188 
L 179.247726 176.240188 
L 179.278404 175.530918 
L 179.431049 175.530918 
L 179.540767 173.403106 
L 179.593951 173.403106 
L 179.669874 171.275294 
L 179.768259 171.275294 
L 179.768259 170.920659 
L 179.894407 170.920659 
L 180.000059 168.792847 
L 180.012697 168.792847 
L 180.114896 166.3104 
L 180.169269 166.3104 
L 180.258157 165.246494 
L 180.288615 165.246494 
L 180.325929 164.182588 
L 180.463486 164.182588 
L 180.53462 161.700141 
L 180.589156 161.700141 
L 180.673376 160.2816 
L 180.70317 160.2816 
L 180.801695 159.572329 
L 180.827255 159.572329 
L 180.927808 157.799153 
L 181.038465 157.799153 
L 181.139221 156.025976 
L 181.149796 156.025976 
L 181.251274 154.2528 
L 181.264412 154.2528 
L 181.374418 152.834259 
L 181.390081 152.834259 
L 181.495464 151.061082 
L 181.604131 151.061082 
L 181.714738 148.933271 
L 181.735245 148.933271 
L 181.805566 147.160094 
L 181.873082 147.160094 
L 181.944158 145.741553 
L 181.989708 145.741553 
L 182.046491 143.968376 
L 182.1257 143.968376 
L 182.189579 142.904471 
L 182.248256 142.904471 
L 182.347712 140.422024 
L 182.419491 140.422024 
L 182.498378 139.003482 
L 182.535243 139.003482 
L 182.63564 136.875671 
L 182.649068 136.875671 
L 182.753715 135.457129 
L 182.823964 135.457129 
L 182.922836 133.683953 
L 182.93606 133.683953 
L 183.03315 131.910776 
L 183.077334 131.910776 
L 183.159455 129.782965 
L 183.18912 129.782965 
L 183.202158 129.073694 
L 183.307317 129.073694 
L 183.40486 126.236612 
L 183.429459 126.236612 
L 183.520548 124.463435 
L 183.578707 124.463435 
L 183.687562 122.690259 
L 183.696797 122.690259 
L 183.756716 121.980988 
L 183.810709 121.980988 
L 183.920515 120.207812 
L 183.939893 120.207812 
L 184.025147 117.370729 
L 184.060272 117.370729 
L 184.147238 115.952188 
L 184.182136 115.952188 
L 184.199 115.242918 
L 184.314388 115.242918 
L 184.405747 112.405835 
L 184.430182 112.405835 
L 184.517668 110.278024 
L 184.545268 110.278024 
L 184.584942 109.214118 
L 184.755903 109.214118 
L 184.857087 106.377035 
L 184.877693 106.377035 
L 184.984693 104.603859 
L 184.999776 104.603859 
L 185.097518 102.121412 
L 185.157416 102.121412 
L 185.2118 100.702871 
L 185.293612 100.702871 
L 185.390898 97.865788 
L 185.468786 97.865788 
L 185.562037 94.674071 
L 185.581885 94.674071 
L 185.606926 93.9648 
L 185.704684 93.9648 
L 185.782319 92.546259 
L 185.842139 92.546259 
L 185.928437 90.773082 
L 185.988816 90.773082 
L 186.091729 87.936 
L 186.125232 87.936 
L 186.233455 85.808188 
L 186.267714 85.808188 
L 186.378125 83.680376 
L 186.391131 83.680376 
L 186.493861 81.9072 
L 186.515731 81.9072 
L 186.617785 80.134024 
L 186.627664 80.134024 
L 186.73206 79.070118 
L 186.751693 79.070118 
L 186.84467 76.942306 
L 186.86321 76.942306 
L 186.947872 74.459859 
L 187.031189 74.459859 
L 187.132414 72.686682 
L 187.14587 72.686682 
L 187.153555 71.622776 
L 187.262721 71.622776 
L 187.360812 68.785694 
L 187.39308 68.785694 
L 187.470675 67.367153 
L 187.509353 67.367153 
L 187.509353 67.012518 
L 192.153748 67.012518 
L 192.252144 65.948612 
L 192.411856 65.948612 
L 192.411856 65.593976 
L 193.040287 65.593976 
L 193.040287 65.239341 
L 193.272721 65.239341 
L 193.272721 64.884706 
L 193.485864 64.884706 
L 193.485864 64.530071 
L 193.723729 64.530071 
L 193.830435 63.111529 
L 193.8513 63.111529 
L 193.8513 62.756894 
L 193.984692 62.756894 
L 193.984692 62.402259 
L 194.116481 62.402259 
L 194.194586 61.338353 
L 194.267104 61.338353 
L 194.267104 60.983718 
L 194.455005 60.983718 
L 194.48885 60.274447 
L 194.593254 60.274447 
L 194.668764 59.565176 
L 194.990615 59.565176 
L 195.04562 58.855906 
L 195.312032 58.855906 
L 195.36052 58.146635 
L 195.718418 58.146635 
L 195.747634 57.437365 
L 195.856186 57.437365 
L 195.906911 56.373459 
L 196.006754 56.373459 
L 196.006754 56.018824 
L 196.18051 56.018824 
L 196.18051 55.664188 
L 196.329104 55.664188 
L 196.372101 54.954918 
L 196.508101 54.954918 
L 196.508101 54.600282 
L 196.733952 54.600282 
L 196.747797 53.536376 
L 196.967386 53.536376 
L 197.010656 52.117835 
L 197.616684 52.117835 
L 197.710613 50.699294 
L 197.732517 50.699294 
L 197.779525 49.990024 
L 198.03545 49.990024 
L 198.03545 49.635388 
L 198.157839 49.635388 
L 198.209667 48.571482 
L 198.3844 48.571482 
L 198.414509 47.862212 
L 198.504021 47.862212 
L 198.597292 46.089035 
L 198.616622 46.089035 
L 198.616622 45.7344 
L 198.763815 45.7344 
L 198.851685 44.670494 
L 198.96223 44.670494 
L 198.96223 44.315859 
L 199.397022 44.315859 
L 199.433556 43.606588 
L 199.519354 43.606588 
L 199.519354 43.251953 
L 199.757234 43.251953 
L 199.853799 42.188047 
L 199.925534 42.188047 
L 200.014941 41.478776 
L 200.108748 41.478776 
L 200.211208 40.414871 
L 200.242364 40.414871 
L 200.346957 38.641694 
L 200.46139 38.641694 
L 200.552061 36.868518 
L 203.533636 36.868518 
L 203.533636 36.513882 
L 204.561629 36.513882 
L 204.561629 36.159247 
L 205.241267 36.159247 
L 205.241267 35.804612 
L 205.420687 35.804612 
L 205.420687 35.449976 
L 205.789101 35.449976 
L 205.789101 35.095341 
L 206.154985 35.095341 
L 206.154985 34.740706 
L 206.597431 34.740706 
L 206.597431 34.386071 
L 206.987261 34.386071 
L 207.092039 33.6768 
L 207.370815 33.6768 
L 207.457826 32.967529 
L 207.511923 32.967529 
L 207.58662 32.258259 
L 207.738668 32.258259 
L 207.738668 31.903624 
L 208.002068 31.903624 
L 208.086215 31.194353 
L 208.124682 31.194353 
L 208.124682 30.839718 
L 213.510148 30.839718 
L 213.584992 29.421176 
L 217.475239 29.421176 
L 217.475239 29.066541 
L 217.73253 29.066541 
L 217.73253 28.711906 
L 221.126099 28.711906 
L 221.228083 27.648 
L 360.8064 27.648 
L 360.8064 27.648 
" style="fill:none;stroke:#000080;stroke-linecap:square;stroke-width:1.5;"/>
   </g>
   <g id="line2d_36">
    <defs>
     <path d="M 0 6 
C 1.591219 6 3.117479 5.367802 4.242641 4.242641 
C 5.367802 3.117479 6 1.591219 6 0 
C 6 -1.591219 5.367802 -3.117479 4.242641 -4.242641 
C 3.117479 -5.367802 1.591219 -6 0 -6 
C -1.591219 -6 -3.117479 -5.367802 -4.242641 -4.242641 
C -5.367802 -3.117479 -6 -1.591219 -6 0 
C -6 1.591219 -5.367802 3.117479 -4.242641 4.242641 
C -3.117479 5.367802 -1.591219 6 0 6 
z
" id="m1bfb71f290" style="stroke:#000080;stroke-width:1.5;"/>
    </defs>
    <g>
     <use style="fill-opacity:0;stroke:#000080;stroke-width:1.5;" x="181.755729" xlink:href="#m1bfb71f290" y="148.578635"/>
     <use style="fill-opacity:0;stroke:#000080;stroke-width:1.5;" x="221.228083" xlink:href="#m1bfb71f290" y="28.002635"/>
     <use style="fill-opacity:0;stroke:#000080;stroke-width:1.5;" x="221.228083" xlink:href="#m1bfb71f290" y="27.648"/>
     <use style="fill-opacity:0;stroke:#000080;stroke-width:1.5;" x="360.8064" xlink:href="#m1bfb71f290" y="27.648"/>
    </g>
   </g>
   <g id="line2d_37">
    <path style="fill:none;stroke:#000080;stroke-linecap:square;stroke-width:1.5;"/>
    <g/>
   </g>
   <g id="line2d_38">
    <path clip-path="url(#p88c8466416)" d="M 187.555003 67.012518 
" style="fill:none;stroke:#000080;stroke-linecap:square;stroke-width:1.5;"/>
    <defs>
     <path d="M -12 12 
L 12 -12 
M -12 -12 
L 12 12 
" id="mb71f161bb4" style="stroke:#000080;"/>
    </defs>
    <g clip-path="url(#p88c8466416)">
     <use style="fill:#000080;stroke:#000080;" x="187.555003" xlink:href="#mb71f161bb4" y="67.012518"/>
    </g>
   </g>
   <g id="line2d_39">
    <defs>
     <path d="M 0 1.5 
C 0.397805 1.5 0.77937 1.341951 1.06066 1.06066 
C 1.341951 0.77937 1.5 0.397805 1.5 0 
C 1.5 -0.397805 1.341951 -0.77937 1.06066 -1.06066 
C 0.77937 -1.341951 0.397805 -1.5 0 -1.5 
C -0.397805 -1.5 -0.77937 -1.341951 -1.06066 -1.06066 
C -1.341951 -0.77937 -1.5 -0.397805 -1.5 0 
C -1.5 0.397805 -1.341951 0.77937 -1.06066 1.06066 
C -0.77937 1.341951 -0.397805 1.5 0 1.5 
z
" id="md0946686ea" style="stroke:#ff00ff;"/>
    </defs>
    <g>
     <use style="fill:#ff00ff;stroke:#ff00ff;" x="262.540681" xlink:href="#md0946686ea" y="27.648"/>
     <use style="fill:#ff00ff;stroke:#ff00ff;" x="262.540681" xlink:href="#md0946686ea" y="27.648"/>
    </g>
   </g>
   <g id="line2d_40">
    <path d="M 173.523689 298.944 
L 173.523689 298.589365 
L 174.587142 298.589365 
L 174.587142 298.234729 
L 175.22251 298.234729 
L 175.30743 297.525459 
L 175.545679 297.525459 
L 175.545679 297.170824 
L 176.285672 297.170824 
L 176.285672 296.816188 
L 176.59796 296.816188 
L 176.59796 296.461553 
L 177.002597 296.461553 
L 177.002597 296.106918 
L 177.521709 296.106918 
L 177.630368 295.397647 
L 177.641518 295.397647 
L 177.641518 295.043012 
L 177.760569 295.043012 
L 177.760569 294.688376 
L 177.994871 294.688376 
L 178.063507 293.624471 
L 178.73643 293.624471 
L 178.821121 292.9152 
L 179.100949 292.9152 
L 179.100949 292.560565 
L 179.478046 292.560565 
L 179.478046 292.205929 
L 179.781054 292.205929 
L 179.880982 291.142024 
L 180.242216 291.142024 
L 180.325238 290.078118 
L 180.451833 290.078118 
L 180.451833 289.723482 
L 180.89502 289.723482 
L 180.938502 288.659576 
L 181.199285 288.659576 
L 181.275573 287.950306 
L 181.41811 287.950306 
L 181.483784 287.241035 
L 181.551169 287.241035 
L 181.551169 286.8864 
L 181.914364 286.8864 
L 181.914364 286.531765 
L 182.082365 286.531765 
L 182.113777 285.822494 
L 182.316688 285.822494 
L 182.316688 285.467859 
L 182.566522 285.467859 
L 182.58306 284.758588 
L 182.703898 284.758588 
L 182.703898 284.403953 
L 182.984668 284.403953 
L 182.984668 284.049318 
L 183.432971 284.049318 
L 183.542088 283.340047 
L 183.568252 283.340047 
L 183.568252 282.985412 
L 183.749236 282.985412 
L 183.749236 282.630776 
L 184.056876 282.630776 
L 184.112838 281.921506 
L 184.499429 281.921506 
L 184.533681 281.212235 
L 184.814721 281.212235 
L 184.909099 280.148329 
L 185.049247 280.148329 
L 185.156348 279.084424 
L 185.367152 279.084424 
L 185.451973 278.375153 
L 185.511802 278.375153 
L 185.541646 277.665882 
L 185.691195 277.665882 
L 185.691195 277.311247 
L 185.888933 277.311247 
L 185.888933 276.956612 
L 186.201659 276.956612 
L 186.289345 276.247341 
L 186.329524 276.247341 
L 186.435583 275.183435 
L 186.586633 275.183435 
L 186.690273 274.119529 
L 186.777185 274.119529 
L 186.860771 272.700988 
L 186.889038 272.700988 
L 186.889038 272.346353 
L 187.02152 272.346353 
L 187.054857 271.282447 
L 187.288961 271.282447 
L 187.360338 270.573176 
L 187.420085 270.573176 
L 187.420085 270.218541 
L 187.611325 270.218541 
L 187.677289 269.154635 
L 187.974284 269.154635 
L 188.05227 268.090729 
L 188.181381 268.090729 
L 188.181381 267.736094 
L 188.302837 267.736094 
L 188.398811 266.672188 
L 188.510836 266.672188 
L 188.600422 265.962918 
L 188.641285 265.962918 
L 188.749232 265.253647 
L 188.849544 265.253647 
L 188.915249 263.835106 
L 189.032941 263.835106 
L 189.065069 263.125835 
L 189.161126 263.125835 
L 189.256695 261.707294 
L 189.280298 261.707294 
L 189.371424 260.643388 
L 189.451489 260.643388 
L 189.532062 259.934118 
L 189.564195 259.934118 
L 189.668669 258.870212 
L 189.76588 258.870212 
L 189.856769 257.451671 
L 189.962117 257.451671 
L 190.067289 255.678494 
L 190.1055 255.678494 
L 190.196401 254.259953 
L 190.288084 254.259953 
L 190.363135 253.196047 
L 190.41408 253.196047 
L 190.514352 251.777506 
L 190.55327 251.777506 
L 190.627672 250.7136 
L 190.672331 250.7136 
L 190.780746 249.295059 
L 190.810026 249.295059 
L 190.917653 248.585788 
L 190.928657 248.585788 
L 191.030529 247.876518 
L 191.091 247.876518 
L 191.194324 246.812612 
L 191.229542 246.812612 
L 191.320955 245.039435 
L 191.376281 245.039435 
L 191.460493 242.911624 
L 191.492167 242.911624 
L 191.577761 239.719906 
L 191.618709 239.719906 
L 191.717675 236.528188 
L 191.731986 236.528188 
L 191.839346 232.6272 
L 191.857305 232.6272 
L 191.965441 228.371576 
L 192.00073 228.371576 
L 192.106202 224.470588 
L 192.119852 224.470588 
L 192.230893 220.5696 
L 192.234192 220.5696 
L 192.344927 216.668612 
L 192.350392 216.668612 
L 192.451391 212.412988 
L 192.462258 212.412988 
L 192.545002 209.575906 
L 192.576702 209.575906 
L 192.667186 207.802729 
L 192.718339 207.802729 
L 192.817031 206.384188 
L 210.236429 206.384188 
L 210.300791 205.320282 
L 210.451419 205.320282 
L 210.451419 204.965647 
L 210.596155 204.965647 
L 210.660264 204.256376 
L 210.796987 204.256376 
L 210.844068 203.192471 
L 211.066275 203.192471 
L 211.116987 202.128565 
L 211.367985 202.128565 
L 211.367985 201.773929 
L 211.542802 201.773929 
L 211.550024 201.064659 
L 211.790811 201.064659 
L 211.845038 200.355388 
L 212.014856 200.355388 
L 212.079039 198.936847 
L 212.237657 198.936847 
L 212.297805 196.809035 
L 212.392314 196.809035 
L 212.486849 195.745129 
L 212.527272 195.745129 
L 212.633654 194.681224 
L 212.646043 194.681224 
L 212.71823 193.617318 
L 212.809427 193.617318 
L 212.809427 193.262682 
L 212.946191 193.262682 
L 213.05254 191.134871 
L 213.065019 191.134871 
L 213.140324 188.652424 
L 213.248583 188.652424 
L 213.329131 185.460706 
L 213.383631 185.460706 
L 213.487779 183.332894 
L 213.508965 183.332894 
L 213.6136 179.786541 
L 213.622656 179.786541 
L 213.731104 174.112376 
L 213.73578 174.112376 
L 213.836257 171.275294 
L 213.884209 171.275294 
L 213.966358 169.856753 
L 213.996237 169.856753 
L 214.053323 168.438212 
L 214.33041 168.438212 
L 214.425404 166.3104 
L 214.458274 166.3104 
L 214.557885 163.827953 
L 214.570187 163.827953 
L 214.665538 158.863059 
L 214.687884 158.863059 
L 214.793141 156.735247 
L 214.848303 156.735247 
L 214.956393 153.898165 
L 214.986053 153.898165 
L 215.088028 149.997176 
L 215.100641 149.997176 
L 215.19378 148.578635 
L 215.214427 148.578635 
L 215.298295 145.386918 
L 215.33966 145.386918 
L 215.33966 145.032282 
L 215.476961 145.032282 
L 215.550332 143.259106 
L 215.702434 143.259106 
L 215.702434 142.904471 
L 221.691244 142.904471 
L 221.691244 142.549835 
L 222.000029 142.549835 
L 222.000029 142.1952 
L 222.146713 142.1952 
L 222.146713 141.840565 
L 222.428964 141.840565 
L 222.533881 141.131294 
L 222.645642 141.131294 
L 222.647826 140.422024 
L 222.813599 140.422024 
L 222.917403 138.648847 
L 222.942495 138.648847 
L 222.944501 137.939576 
L 223.142386 137.939576 
L 223.174046 137.230306 
L 223.289464 137.230306 
L 223.380536 135.457129 
L 223.431143 135.457129 
L 223.522645 134.393224 
L 223.557693 134.393224 
L 223.657827 132.620047 
L 223.681124 132.620047 
L 223.779234 130.1376 
L 223.830695 130.1376 
L 223.933196 126.945882 
L 223.96776 126.945882 
L 224.078424 123.044894 
L 224.08692 123.044894 
L 224.196753 120.917082 
L 224.220263 120.917082 
L 224.330122 118.789271 
L 224.384612 118.789271 
L 224.495233 115.597553 
L 224.542406 115.597553 
L 224.648834 114.179012 
L 224.681063 114.179012 
L 224.783854 112.760471 
L 224.792362 112.760471 
L 224.886603 111.341929 
L 224.923265 111.341929 
L 225.034169 108.859482 
L 225.105254 108.859482 
L 225.205886 107.440941 
L 225.24472 107.440941 
L 225.276832 106.731671 
L 225.417675 106.731671 
L 225.500652 105.313129 
L 225.640084 105.313129 
L 225.640084 104.958494 
L 228.384629 104.958494 
L 228.384629 104.603859 
L 228.7874 104.603859 
L 228.7874 104.249224 
L 229.228512 104.249224 
L 229.335051 103.185318 
L 229.418509 103.185318 
L 229.526101 102.121412 
L 229.612939 102.121412 
L 229.68827 101.412141 
L 229.749187 101.412141 
L 229.846473 100.348235 
L 229.872463 100.348235 
L 229.872463 99.9936 
L 229.993559 99.9936 
L 230.084398 98.220424 
L 230.106293 98.220424 
L 230.199173 96.447247 
L 230.263461 96.447247 
L 230.365905 95.028706 
L 230.459725 95.028706 
L 230.552314 92.900894 
L 230.607688 92.900894 
L 230.693624 91.482353 
L 230.725056 91.482353 
L 230.827286 88.999906 
L 230.869404 88.999906 
L 230.964448 86.872094 
L 230.993096 86.872094 
L 231.083382 85.098918 
L 231.105538 85.098918 
L 231.209881 82.971106 
L 231.263264 82.971106 
L 231.332646 81.9072 
L 231.383852 81.9072 
L 231.431908 80.843294 
L 231.600818 80.843294 
L 231.617314 80.134024 
L 231.725109 80.134024 
L 231.760201 79.424753 
L 234.134831 79.424753 
L 234.134831 79.070118 
L 234.52238 79.070118 
L 234.52238 78.715482 
L 234.888862 78.715482 
L 234.888862 78.360847 
L 235.051929 78.360847 
L 235.137732 76.942306 
L 235.191567 76.942306 
L 235.283243 75.8784 
L 235.347782 75.8784 
L 235.419963 74.459859 
L 235.465341 74.459859 
L 235.564524 72.332047 
L 235.587986 72.332047 
L 235.687946 71.268141 
L 235.711945 71.268141 
L 235.787016 69.8496 
L 235.825198 69.8496 
L 235.825198 69.494965 
L 235.94768 69.494965 
L 235.969594 68.785694 
L 236.068372 68.785694 
L 236.149351 67.367153 
L 236.186806 67.367153 
L 236.290691 66.657882 
L 236.326247 66.657882 
L 236.326247 66.303247 
L 236.503446 66.303247 
L 236.518526 65.593976 
L 236.624651 65.593976 
L 236.653569 64.884706 
L 238.395699 64.884706 
L 238.395699 64.530071 
L 238.660503 64.530071 
L 238.660503 64.175435 
L 238.842387 64.175435 
L 238.934955 63.466165 
L 238.98629 63.466165 
L 239.037821 62.402259 
L 239.099502 62.402259 
L 239.17861 61.338353 
L 239.229105 61.338353 
L 239.328431 59.565176 
L 239.423596 59.565176 
L 239.505307 58.146635 
L 239.535786 58.146635 
L 239.636637 57.437365 
L 239.649198 57.437365 
L 239.709351 56.373459 
L 239.779063 56.373459 
L 239.884909 54.245647 
L 239.972846 54.245647 
L 240.030877 53.181741 
L 240.086253 53.181741 
L 240.165428 52.472471 
L 240.233958 52.472471 
L 240.316186 51.408565 
L 240.416232 51.408565 
L 240.416232 51.053929 
L 241.229222 51.053929 
L 241.229222 50.699294 
L 242.156517 50.699294 
L 242.156517 50.344659 
L 242.358561 50.344659 
L 242.358561 49.990024 
L 242.493928 49.990024 
L 242.527979 49.280753 
L 242.619445 49.280753 
L 242.706586 47.507576 
L 242.805441 47.507576 
L 242.859845 46.798306 
L 242.958444 46.798306 
L 243.067839 45.025129 
L 243.126537 45.025129 
L 243.12666 44.315859 
L 243.295667 44.315859 
L 243.358405 43.251953 
L 244.610059 43.251953 
L 244.610059 42.897318 
L 244.857457 42.897318 
L 244.892755 42.188047 
L 245.007347 42.188047 
L 245.115602 40.769506 
L 245.309307 40.769506 
L 245.386555 39.7056 
L 245.428768 39.7056 
L 245.484358 38.996329 
L 245.590426 38.996329 
L 245.671903 37.932424 
L 245.977681 37.932424 
L 245.977681 37.577788 
L 246.11877 37.577788 
L 246.179465 36.868518 
L 247.342557 36.868518 
L 247.342557 36.513882 
L 247.645043 36.513882 
L 247.645043 36.159247 
L 247.829433 36.159247 
L 247.931889 35.095341 
L 248.012525 35.095341 
L 248.034772 34.386071 
L 248.584534 34.386071 
L 248.584534 34.031435 
L 249.933988 34.031435 
L 249.933988 33.6768 
L 250.157768 33.6768 
L 250.22702 32.612894 
L 250.366098 32.612894 
L 250.366098 32.258259 
L 250.812246 32.258259 
L 250.812246 31.903624 
L 252.077193 31.903624 
L 252.077193 31.548988 
L 253.66188 31.548988 
L 253.728573 30.839718 
L 253.822011 30.839718 
L 253.872258 30.130447 
L 254.437278 30.130447 
L 254.437278 29.775812 
L 254.678611 29.775812 
L 254.679725 29.066541 
L 254.971988 29.066541 
L 254.971988 28.711906 
L 255.266849 28.711906 
L 255.266849 28.357271 
L 256.953781 28.357271 
L 256.953781 28.002635 
L 262.540681 28.002635 
L 262.540681 27.648 
L 360.8064 27.648 
L 360.8064 27.648 
" style="fill:none;stroke:#ff00ff;stroke-linecap:square;stroke-width:1.5;"/>
   </g>
   <g id="line2d_41">
    <defs>
     <path d="M -0 8.485281 
L 5.091169 0 
L 0 -8.485281 
L -5.091169 -0 
z
" id="m4ce8ce1a83" style="stroke:#ff00ff;stroke-linejoin:miter;stroke-width:1.5;"/>
    </defs>
    <g>
     <use style="fill-opacity:0;stroke:#ff00ff;stroke-linejoin:miter;stroke-width:1.5;" x="192.817031" xlink:href="#m4ce8ce1a83" y="206.384188"/>
     <use style="fill-opacity:0;stroke:#ff00ff;stroke-linejoin:miter;stroke-width:1.5;" x="262.540681" xlink:href="#m4ce8ce1a83" y="28.002635"/>
     <use style="fill-opacity:0;stroke:#ff00ff;stroke-linejoin:miter;stroke-width:1.5;" x="262.540681" xlink:href="#m4ce8ce1a83" y="27.648"/>
     <use style="fill-opacity:0;stroke:#ff00ff;stroke-linejoin:miter;stroke-width:1.5;" x="360.8064" xlink:href="#m4ce8ce1a83" y="27.648"/>
    </g>
   </g>
   <g id="line2d_42">
    <path style="fill:none;stroke:#ff00ff;stroke-linecap:square;stroke-width:1.5;"/>
    <g/>
   </g>
   <g id="line2d_43">
    <path clip-path="url(#p88c8466416)" d="M 207.849746 206.384188 
" style="fill:none;stroke:#ff00ff;stroke-linecap:square;stroke-width:1.5;"/>
    <defs>
     <path d="M -12 12 
L 12 -12 
M -12 -12 
L 12 12 
" id="m01362934ee" style="stroke:#ff00ff;"/>
    </defs>
    <g clip-path="url(#p88c8466416)">
     <use style="fill:#ff00ff;stroke:#ff00ff;" x="207.849746" xlink:href="#m01362934ee" y="206.384188"/>
    </g>
   </g>
   <g id="line2d_44">
    <path clip-path="url(#p88c8466416)" d="M 57.6 298.944 
L 57.6 298.944 
L 57.6 298.944 
L 57.6 298.944 
L 360.8064 298.944 
" style="fill:none;stroke:#ff7500;stroke-linecap:square;stroke-width:1.5;"/>
   </g>
   <g id="line2d_45">
    <defs>
     <path d="M 0 -6 
L -1.347084 -1.854102 
L -5.706339 -1.854102 
L -2.179628 0.708204 
L -3.526712 4.854102 
L -0 2.291796 
L 3.526712 4.854102 
L 2.179628 0.708204 
L 5.706339 -1.854102 
L 1.347084 -1.854102 
z
" id="mc941a2dbd2" style="stroke:#ff7500;stroke-linejoin:bevel;stroke-width:1.5;"/>
    </defs>
    <g clip-path="url(#p88c8466416)">
     <use style="fill-opacity:0;stroke:#ff7500;stroke-linejoin:bevel;stroke-width:1.5;" x="57.6" xlink:href="#mc941a2dbd2" y="298.944"/>
    </g>
   </g>
   <g id="line2d_46">
    <path clip-path="url(#p88c8466416)" style="fill:none;stroke:#ff7500;stroke-linecap:square;stroke-width:1.5;"/>
    <g clip-path="url(#p88c8466416)">
     <use style="fill-opacity:0;stroke:#ff7500;stroke-linejoin:bevel;stroke-width:1.5;" x="-1" xlink:href="#mc941a2dbd2" y="570.24"/>
     <use style="fill-opacity:0;stroke:#ff7500;stroke-linejoin:bevel;stroke-width:1.5;" x="360.8064" xlink:href="#mc941a2dbd2" y="570.24"/>
    </g>
   </g>
   <g id="line2d_47">
    <path clip-path="url(#p88c8466416)" d="M 204.858484 298.944 
" style="fill:none;stroke:#ff7500;stroke-linecap:square;stroke-width:1.5;"/>
    <defs>
     <path d="M -12 12 
L 12 -12 
M -12 -12 
L 12 12 
" id="mcd9b5ab521" style="stroke:#ff7500;"/>
    </defs>
    <g clip-path="url(#p88c8466416)">
     <use style="fill:#ff7500;stroke:#ff7500;" x="204.858484" xlink:href="#mcd9b5ab521" y="298.944"/>
    </g>
   </g>
   <g id="line2d_48">
    <path d="M 360.8064 298.944 
L 380.514816 293.51808 
" style="fill:none;stroke:#ff7500;stroke-linecap:square;stroke-width:1.5;"/>
    <g>
     <use style="fill-opacity:0;stroke:#ff7500;stroke-linejoin:bevel;stroke-width:1.5;" x="360.8064" xlink:href="#mc941a2dbd2" y="298.944"/>
     <use style="fill-opacity:0;stroke:#ff7500;stroke-linejoin:bevel;stroke-width:1.5;" x="380.514816" xlink:href="#mc941a2dbd2" y="293.51808"/>
    </g>
   </g>
   <g id="line2d_49">
    <path d="M 360.8064 27.648 
L 380.514816 206.70336 
" style="fill:none;stroke:#ff00ff;stroke-linecap:square;stroke-width:1.5;"/>
    <g>
     <use style="fill-opacity:0;stroke:#ff00ff;stroke-linejoin:miter;stroke-width:1.5;" x="360.8064" xlink:href="#m4ce8ce1a83" y="27.648"/>
     <use style="fill-opacity:0;stroke:#ff00ff;stroke-linejoin:miter;stroke-width:1.5;" x="380.514816" xlink:href="#m4ce8ce1a83" y="206.70336"/>
    </g>
   </g>
   <g id="line2d_50">
    <path d="M 360.8064 27.648 
L 380.514816 119.88864 
" style="fill:none;stroke:#000080;stroke-linecap:square;stroke-width:1.5;"/>
    <g>
     <use style="fill-opacity:0;stroke:#000080;stroke-width:1.5;" x="360.8064" xlink:href="#m1bfb71f290" y="27.648"/>
     <use style="fill-opacity:0;stroke:#000080;stroke-width:1.5;" x="380.514816" xlink:href="#m1bfb71f290" y="119.88864"/>
    </g>
   </g>
   <g id="line2d_51">
    <path d="M 360.8064 298.944 
L 360.8064 27.648 
" style="fill:none;stroke:#000000;stroke-linecap:square;stroke-width:1.5;"/>
   </g>
   <g id="patch_3">
    <path d="M 57.6 298.944 
L 360.8064 298.944 
" style="fill:none;stroke:#000000;stroke-linecap:square;stroke-linejoin:miter;stroke-width:0.8;"/>
   </g>
   <g id="patch_4">
    <path d="M 57.6 27.648 
L 360.8064 27.648 
" style="fill:none;stroke:#000000;stroke-linecap:square;stroke-linejoin:miter;stroke-width:0.8;"/>
   </g>
   <g id="text_13">
    <!-- diffcma b -->
    <g transform="translate(386.578944 297.381205)scale(0.14 -0.14)">
     <defs>
      <path d="M 3116 1747 
Q 3116 2381 2855 2742 
Q 2594 3103 2138 3103 
Q 1681 3103 1420 2742 
Q 1159 2381 1159 1747 
Q 1159 1113 1420 752 
Q 1681 391 2138 391 
Q 2594 391 2855 752 
Q 3116 1113 3116 1747 
z
M 1159 2969 
Q 1341 3281 1617 3432 
Q 1894 3584 2278 3584 
Q 2916 3584 3314 3078 
Q 3713 2572 3713 1747 
Q 3713 922 3314 415 
Q 2916 -91 2278 -91 
Q 1894 -91 1617 61 
Q 1341 213 1159 525 
L 1159 0 
L 581 0 
L 581 4863 
L 1159 4863 
L 1159 2969 
z
" id="DejaVuSans-62" transform="scale(0.015625)"/>
     </defs>
     <use xlink:href="#DejaVuSans-64"/>
     <use x="63.476562" xlink:href="#DejaVuSans-69"/>
     <use x="91.259766" xlink:href="#DejaVuSans-66"/>
     <use x="126.464844" xlink:href="#DejaVuSans-66"/>
     <use x="161.669922" xlink:href="#DejaVuSans-63"/>
     <use x="216.650391" xlink:href="#DejaVuSans-6d"/>
     <use x="314.0625" xlink:href="#DejaVuSans-61"/>
     <use x="375.341797" xlink:href="#DejaVuSans-20"/>
     <use x="407.128906" xlink:href="#DejaVuSans-62"/>
    </g>
   </g>
   <g id="text_14">
    <!-- cma.fmin  -->
    <g transform="translate(386.578944 210.566485)scale(0.14 -0.14)">
     <use xlink:href="#DejaVuSans-63"/>
     <use x="54.980469" xlink:href="#DejaVuSans-6d"/>
     <use x="152.392578" xlink:href="#DejaVuSans-61"/>
     <use x="213.671875" xlink:href="#DejaVuSans-2e"/>
     <use x="245.458984" xlink:href="#DejaVuSans-66"/>
     <use x="280.664062" xlink:href="#DejaVuSans-6d"/>
     <use x="378.076172" xlink:href="#DejaVuSans-69"/>
     <use x="405.859375" xlink:href="#DejaVuSans-6e"/>
     <use x="469.238281" xlink:href="#DejaVuSans-20"/>
    </g>
   </g>
   <g id="text_15">
    <!-- different -->
    <g transform="translate(386.578944 123.751765)scale(0.14 -0.14)">
     <use xlink:href="#DejaVuSans-64"/>
     <use x="63.476562" xlink:href="#DejaVuSans-69"/>
     <use x="91.259766" xlink:href="#DejaVuSans-66"/>
     <use x="126.464844" xlink:href="#DejaVuSans-66"/>
     <use x="161.669922" xlink:href="#DejaVuSans-65"/>
     <use x="223.193359" xlink:href="#DejaVuSans-72"/>
     <use x="262.056641" xlink:href="#DejaVuSans-65"/>
     <use x="323.580078" xlink:href="#DejaVuSans-6e"/>
     <use x="386.958984" xlink:href="#DejaVuSans-74"/>
    </g>
   </g>
   <g id="text_16">
    <!-- best 2009 -->
    <g transform="translate(386.578944 36.937045)scale(0.14 -0.14)">
     <defs>
      <path d="M 703 97 
L 703 672 
Q 941 559 1184 500 
Q 1428 441 1663 441 
Q 2288 441 2617 861 
Q 2947 1281 2994 2138 
Q 2813 1869 2534 1725 
Q 2256 1581 1919 1581 
Q 1219 1581 811 2004 
Q 403 2428 403 3163 
Q 403 3881 828 4315 
Q 1253 4750 1959 4750 
Q 2769 4750 3195 4129 
Q 3622 3509 3622 2328 
Q 3622 1225 3098 567 
Q 2575 -91 1691 -91 
Q 1453 -91 1209 -44 
Q 966 3 703 97 
z
M 1959 2075 
Q 2384 2075 2632 2365 
Q 2881 2656 2881 3163 
Q 2881 3666 2632 3958 
Q 2384 4250 1959 4250 
Q 1534 4250 1286 3958 
Q 1038 3666 1038 3163 
Q 1038 2656 1286 2365 
Q 1534 2075 1959 2075 
z
" id="DejaVuSans-39" transform="scale(0.015625)"/>
     </defs>
     <use xlink:href="#DejaVuSans-62"/>
     <use x="63.476562" xlink:href="#DejaVuSans-65"/>
     <use x="125" xlink:href="#DejaVuSans-73"/>
     <use x="177.099609" xlink:href="#DejaVuSans-74"/>
     <use x="216.308594" xlink:href="#DejaVuSans-20"/>
     <use x="248.095703" xlink:href="#DejaVuSans-32"/>
     <use x="311.71875" xlink:href="#DejaVuSans-30"/>
     <use x="375.341797" xlink:href="#DejaVuSans-30"/>
     <use x="438.964844" xlink:href="#DejaVuSans-39"/>
    </g>
   </g>
   <g id="text_17">
    <!-- bbob f2, 40-D -->
    <g transform="translate(60.632064 38.111366)scale(0.102 -0.102)">
     <defs>
      <path d="M 1259 4147 
L 1259 519 
L 2022 519 
Q 2988 519 3436 956 
Q 3884 1394 3884 2338 
Q 3884 3275 3436 3711 
Q 2988 4147 2022 4147 
L 1259 4147 
z
M 628 4666 
L 1925 4666 
Q 3281 4666 3915 4102 
Q 4550 3538 4550 2338 
Q 4550 1131 3912 565 
Q 3275 0 1925 0 
L 628 0 
L 628 4666 
z
" id="DejaVuSans-44" transform="scale(0.015625)"/>
     </defs>
     <use xlink:href="#DejaVuSans-62"/>
     <use x="63.476562" xlink:href="#DejaVuSans-62"/>
     <use x="126.953125" xlink:href="#DejaVuSans-6f"/>
     <use x="188.134766" xlink:href="#DejaVuSans-62"/>
     <use x="251.611328" xlink:href="#DejaVuSans-20"/>
     <use x="283.398438" xlink:href="#DejaVuSans-66"/>
     <use x="318.603516" xlink:href="#DejaVuSans-32"/>
     <use x="382.226562" xlink:href="#DejaVuSans-2c"/>
     <use x="414.013672" xlink:href="#DejaVuSans-20"/>
     <use x="445.800781" xlink:href="#DejaVuSans-34"/>
     <use x="509.423828" xlink:href="#DejaVuSans-30"/>
     <use x="573.046875" xlink:href="#DejaVuSans-2d"/>
     <use x="609.130859" xlink:href="#DejaVuSans-44"/>
    </g>
    <!-- 51 targets: 100..1e-08 -->
    <g transform="translate(60.632064 49.533135)scale(0.102 -0.102)">
     <defs>
      <path d="M 691 4666 
L 3169 4666 
L 3169 4134 
L 1269 4134 
L 1269 2991 
Q 1406 3038 1543 3061 
Q 1681 3084 1819 3084 
Q 2600 3084 3056 2656 
Q 3513 2228 3513 1497 
Q 3513 744 3044 326 
Q 2575 -91 1722 -91 
Q 1428 -91 1123 -41 
Q 819 9 494 109 
L 494 744 
Q 775 591 1075 516 
Q 1375 441 1709 441 
Q 2250 441 2565 725 
Q 2881 1009 2881 1497 
Q 2881 1984 2565 2268 
Q 2250 2553 1709 2553 
Q 1456 2553 1204 2497 
Q 953 2441 691 2322 
L 691 4666 
z
" id="DejaVuSans-35" transform="scale(0.015625)"/>
      <path d="M 750 794 
L 1409 794 
L 1409 0 
L 750 0 
L 750 794 
z
M 750 3309 
L 1409 3309 
L 1409 2516 
L 750 2516 
L 750 3309 
z
" id="DejaVuSans-3a" transform="scale(0.015625)"/>
     </defs>
     <use xlink:href="#DejaVuSans-35"/>
     <use x="63.623047" xlink:href="#DejaVuSans-31"/>
     <use x="127.246094" xlink:href="#DejaVuSans-20"/>
     <use x="159.033203" xlink:href="#DejaVuSans-74"/>
     <use x="198.242188" xlink:href="#DejaVuSans-61"/>
     <use x="259.521484" xlink:href="#DejaVuSans-72"/>
     <use x="298.884766" xlink:href="#DejaVuSans-67"/>
     <use x="362.361328" xlink:href="#DejaVuSans-65"/>
     <use x="423.884766" xlink:href="#DejaVuSans-74"/>
     <use x="463.09375" xlink:href="#DejaVuSans-73"/>
     <use x="515.193359" xlink:href="#DejaVuSans-3a"/>
     <use x="548.884766" xlink:href="#DejaVuSans-20"/>
     <use x="580.671875" xlink:href="#DejaVuSans-31"/>
     <use x="644.294922" xlink:href="#DejaVuSans-30"/>
     <use x="707.917969" xlink:href="#DejaVuSans-30"/>
     <use x="771.541016" xlink:href="#DejaVuSans-2e"/>
     <use x="803.328125" xlink:href="#DejaVuSans-2e"/>
     <use x="835.115234" xlink:href="#DejaVuSans-31"/>
     <use x="898.738281" xlink:href="#DejaVuSans-65"/>
     <use x="960.261719" xlink:href="#DejaVuSans-2d"/>
     <use x="996.345703" xlink:href="#DejaVuSans-30"/>
     <use x="1059.96875" xlink:href="#DejaVuSans-38"/>
    </g>
    <!-- 15 instances -->
    <g transform="translate(60.632064 60.954904)scale(0.102 -0.102)">
     <use xlink:href="#DejaVuSans-31"/>
     <use x="63.623047" xlink:href="#DejaVuSans-35"/>
     <use x="127.246094" xlink:href="#DejaVuSans-20"/>
     <use x="159.033203" xlink:href="#DejaVuSans-69"/>
     <use x="186.816406" xlink:href="#DejaVuSans-6e"/>
     <use x="250.195312" xlink:href="#DejaVuSans-73"/>
     <use x="302.294922" xlink:href="#DejaVuSans-74"/>
     <use x="341.503906" xlink:href="#DejaVuSans-61"/>
     <use x="402.783203" xlink:href="#DejaVuSans-6e"/>
     <use x="466.162109" xlink:href="#DejaVuSans-63"/>
     <use x="521.142578" xlink:href="#DejaVuSans-65"/>
     <use x="582.666016" xlink:href="#DejaVuSans-73"/>
    </g>
   </g>
   <g id="text_18">
    <!-- v2.6 -->
    <g style="fill:#808080;" transform="translate(198.292262 294.151352)scale(0.1 -0.1)">
     <use xlink:href="#DejaVuSans-76"/>
     <use x="59.179688" xlink:href="#DejaVuSans-32"/>
     <use x="122.802734" xlink:href="#DejaVuSans-2e"/>
     <use x="154.589844" xlink:href="#DejaVuSans-36"/>
    </g>
   </g>
   <g id="text_19">
    <!-- 2 Ellipsoid separable -->
    <g transform="translate(105.670387 21.648)scale(0.2 -0.2)">
     <defs>
      <path d="M 628 4666 
L 3578 4666 
L 3578 4134 
L 1259 4134 
L 1259 2753 
L 3481 2753 
L 3481 2222 
L 1259 2222 
L 1259 531 
L 3634 531 
L 3634 0 
L 628 0 
L 628 4666 
z
" id="DejaVuSans-45" transform="scale(0.015625)"/>
     </defs>
     <use xlink:href="#DejaVuSans-32"/>
     <use x="63.623047" xlink:href="#DejaVuSans-20"/>
     <use x="95.410156" xlink:href="#DejaVuSans-45"/>
     <use x="158.59375" xlink:href="#DejaVuSans-6c"/>
     <use x="186.376953" xlink:href="#DejaVuSans-6c"/>
     <use x="214.160156" xlink:href="#DejaVuSans-69"/>
     <use x="241.943359" xlink:href="#DejaVuSans-70"/>
     <use x="305.419922" xlink:href="#DejaVuSans-73"/>
     <use x="357.519531" xlink:href="#DejaVuSans-6f"/>
     <use x="418.701172" xlink:href="#DejaVuSans-69"/>
     <use x="446.484375" xlink:href="#DejaVuSans-64"/>
     <use x="509.960938" xlink:href="#DejaVuSans-20"/>
     <use x="541.748047" xlink:href="#DejaVuSans-73"/>
     <use x="593.847656" xlink:href="#DejaVuSans-65"/>
     <use x="655.371094" xlink:href="#DejaVuSans-70"/>
     <use x="718.847656" xlink:href="#DejaVuSans-61"/>
     <use x="780.126953" xlink:href="#DejaVuSans-72"/>
     <use x="821.240234" xlink:href="#DejaVuSans-61"/>
     <use x="882.519531" xlink:href="#DejaVuSans-62"/>
     <use x="945.996094" xlink:href="#DejaVuSans-6c"/>
     <use x="973.779297" xlink:href="#DejaVuSans-65"/>
    </g>
   </g>
  </g>
 </g>
 <defs>
  <clipPath id="p88c8466416">
   <rect height="271.296" width="303.2064" x="57.6" y="27.648"/>
  </clipPath>
 </defs>
</svg>
