<?xml version="1.0" encoding="utf-8" standalone="no"?>
<!DOCTYPE svg PUBLIC "-//W3C//DTD SVG 1.1//EN"
  "http://www.w3.org/Graphics/SVG/1.1/DTD/svg11.dtd">
<svg height="345.6pt" version="1.1" viewBox="0 0 460.8 345.6" width="460.8pt" xmlns="http://www.w3.org/2000/svg" xmlns:xlink="http://www.w3.org/1999/xlink">
 <metadata>
  <rdf:RDF xmlns:cc="http://creativecommons.org/ns#" xmlns:dc="http://purl.org/dc/elements/1.1/" xmlns:rdf="http://www.w3.org/1999/02/22-rdf-syntax-ns#">
   <cc:Work>
    <dc:type rdf:resource="http://purl.org/dc/dcmitype/StillImage"/>
    <dc:date>2022-05-22T20:53:12.579004</dc:date>
    <dc:format>image/svg+xml</dc:format>
    <dc:creator>
     <cc:Agent>
      <dc:title>Matplotlib v3.4.3, https://matplotlib.org/</dc:title>
     </cc:Agent>
    </dc:creator>
   </cc:Work>
  </rdf:RDF>
 </metadata>
 <defs>
  <style type="text/css">*{stroke-linecap:butt;stroke-linejoin:round;}</style>
 </defs>
 <g id="figure_1">
  <g id="patch_1">
   <path d="M 0 345.6 
L 460.8 345.6 
L 460.8 0 
L 0 0 
z
" style="fill:#ffffff;"/>
  </g>
  <g id="axes_1">
   <g id="patch_2">
    <path d="M 57.6 298.944 
L 360.8064 298.944 
L 360.8064 27.648 
L 57.6 27.648 
z
" style="fill:#ffffff;"/>
   </g>
   <g id="line2d_1">
    <path d="M 78.266603 298.944 
L 78.266603 282.985412 
L 79.480672 282.985412 
L 79.480672 261.707294 
L 83.678349 261.707294 
L 83.678349 256.387765 
L 106.974091 256.387765 
L 106.974091 251.068235 
L 125.729248 251.068235 
L 125.729248 245.748706 
L 154.234459 245.748706 
L 154.234459 240.429176 
L 164.997064 240.429176 
L 164.997064 235.109647 
L 204.285335 235.109647 
L 204.285335 229.790118 
L 205.528934 229.790118 
L 205.528934 224.470588 
L 222.88574 224.470588 
L 222.88574 219.151059 
L 225.753086 219.151059 
L 225.753086 213.831529 
L 227.168878 213.831529 
L 227.168878 208.512 
L 228.420109 208.512 
L 228.420109 203.192471 
L 230.234991 203.192471 
L 230.234991 197.872941 
L 231.103774 197.872941 
L 231.103774 192.553412 
L 231.366372 192.553412 
L 231.366372 187.233882 
L 231.812986 187.233882 
L 231.812986 181.914353 
L 232.071577 181.914353 
L 232.071577 176.594824 
L 232.297057 176.594824 
L 232.297057 171.275294 
L 232.45534 171.275294 
L 232.45534 165.955765 
L 232.471578 165.955765 
L 232.471578 160.636235 
L 232.479175 160.636235 
L 232.479175 155.316706 
L 232.484007 155.316706 
L 232.484007 149.997176 
L 232.491253 149.997176 
L 232.491253 144.677647 
L 232.514354 144.677647 
L 232.514354 139.358118 
L 232.518144 139.358118 
L 232.518144 134.038588 
L 232.526066 134.038588 
L 232.526066 128.719059 
L 232.528132 128.719059 
L 232.528132 123.399529 
L 232.537426 123.399529 
L 232.537426 118.08 
L 232.56047 118.08 
L 232.56047 112.760471 
L 232.60613 112.760471 
L 232.60613 107.440941 
L 232.64997 107.440941 
L 232.64997 102.121412 
L 232.664674 102.121412 
L 232.664674 96.801882 
L 232.670484 96.801882 
L 232.670484 91.482353 
L 232.714174 91.482353 
L 232.714174 86.162824 
L 232.723036 86.162824 
L 232.723036 80.843294 
L 232.727466 80.843294 
L 232.727466 75.523765 
L 232.732916 75.523765 
L 232.732916 70.204235 
L 232.738365 70.204235 
L 232.738365 64.884706 
L 232.746194 64.884706 
L 232.746194 59.565176 
L 232.760484 59.565176 
L 232.760484 54.245647 
L 232.768984 54.245647 
L 232.768984 48.926118 
L 232.772723 48.926118 
L 232.772723 43.606588 
L 232.780199 43.606588 
L 232.780199 38.287059 
L 232.786653 38.287059 
L 232.786653 32.967529 
L 232.792086 32.967529 
L 232.792086 27.648 
L 360.8064 27.648 
" style="fill:none;stroke:#f5deb3;stroke-linecap:square;stroke-width:4;"/>
   </g>
   <g id="line2d_2">
    <defs>
     <path d="M -0 7.778175 
L 7.778175 0 
L 0 -7.778175 
L -7.778175 -0 
z
" id="me1cb94f74c" style="stroke:#f5deb3;stroke-linejoin:miter;stroke-width:1.5;"/>
    </defs>
    <g>
     <use style="fill:#f5deb3;stroke:#f5deb3;stroke-linejoin:miter;stroke-width:1.5;" x="225.753086" xlink:href="#me1cb94f74c" y="219.151059"/>
     <use style="fill:#f5deb3;stroke:#f5deb3;stroke-linejoin:miter;stroke-width:1.5;" x="232.746194" xlink:href="#me1cb94f74c" y="59.565176"/>
     <use style="fill:#f5deb3;stroke:#f5deb3;stroke-linejoin:miter;stroke-width:1.5;" x="232.792086" xlink:href="#me1cb94f74c" y="27.648"/>
     <use style="fill:#f5deb3;stroke:#f5deb3;stroke-linejoin:miter;stroke-width:1.5;" x="232.792086" xlink:href="#me1cb94f74c" y="27.648"/>
     <use style="fill:#f5deb3;stroke:#f5deb3;stroke-linejoin:miter;stroke-width:1.5;" x="360.8064" xlink:href="#me1cb94f74c" y="27.648"/>
    </g>
   </g>
   <g id="line2d_3">
    <path style="fill:none;stroke:#f5deb3;stroke-linecap:square;stroke-width:4;"/>
    <g/>
   </g>
   <g id="line2d_4">
    <path d="M 360.8064 27.648 
L 380.514816 33.07392 
" style="fill:none;stroke:#f5deb3;stroke-linecap:square;stroke-width:4;"/>
    <g>
     <use style="fill:#f5deb3;stroke:#f5deb3;stroke-linejoin:miter;stroke-width:1.5;" x="360.8064" xlink:href="#me1cb94f74c" y="27.648"/>
     <use style="fill:#f5deb3;stroke:#f5deb3;stroke-linejoin:miter;stroke-width:1.5;" x="380.514816" xlink:href="#me1cb94f74c" y="33.07392"/>
    </g>
   </g>
   <g id="matplotlib.axis_1">
    <g id="xtick_1">
     <g id="line2d_5">
      <path clip-path="url(#p27fbb42e26)" d="M 57.6 298.944 
L 57.6 27.648 
" style="fill:none;stroke:#b0b0b0;stroke-linecap:square;stroke-width:0.8;"/>
     </g>
     <g id="line2d_6">
      <defs>
       <path d="M 0 0 
L 0 3.5 
" id="mc6f9a152b2" style="stroke:#000000;stroke-width:0.8;"/>
      </defs>
      <g>
       <use style="stroke:#000000;stroke-width:0.8;" x="57.6" xlink:href="#mc6f9a152b2" y="298.944"/>
      </g>
     </g>
     <g id="text_1">
      <!-- 0 -->
      <g transform="translate(52.191875 318.861344)scale(0.17 -0.17)">
       <defs>
        <path d="M 2034 4250 
Q 1547 4250 1301 3770 
Q 1056 3291 1056 2328 
Q 1056 1369 1301 889 
Q 1547 409 2034 409 
Q 2525 409 2770 889 
Q 3016 1369 3016 2328 
Q 3016 3291 2770 3770 
Q 2525 4250 2034 4250 
z
M 2034 4750 
Q 2819 4750 3233 4129 
Q 3647 3509 3647 2328 
Q 3647 1150 3233 529 
Q 2819 -91 2034 -91 
Q 1250 -91 836 529 
Q 422 1150 422 2328 
Q 422 3509 836 4129 
Q 1250 4750 2034 4750 
z
" id="DejaVuSans-30" transform="scale(0.015625)"/>
       </defs>
       <use xlink:href="#DejaVuSans-30"/>
      </g>
     </g>
    </g>
    <g id="xtick_2">
     <g id="line2d_7">
      <path clip-path="url(#p27fbb42e26)" d="M 144.2304 298.944 
L 144.2304 27.648 
" style="fill:none;stroke:#b0b0b0;stroke-linecap:square;stroke-width:0.8;"/>
     </g>
     <g id="line2d_8">
      <g>
       <use style="stroke:#000000;stroke-width:0.8;" x="144.2304" xlink:href="#mc6f9a152b2" y="298.944"/>
      </g>
     </g>
     <g id="text_2">
      <!-- 2 -->
      <g transform="translate(138.822275 318.861344)scale(0.17 -0.17)">
       <defs>
        <path d="M 1228 531 
L 3431 531 
L 3431 0 
L 469 0 
L 469 531 
Q 828 903 1448 1529 
Q 2069 2156 2228 2338 
Q 2531 2678 2651 2914 
Q 2772 3150 2772 3378 
Q 2772 3750 2511 3984 
Q 2250 4219 1831 4219 
Q 1534 4219 1204 4116 
Q 875 4013 500 3803 
L 500 4441 
Q 881 4594 1212 4672 
Q 1544 4750 1819 4750 
Q 2544 4750 2975 4387 
Q 3406 4025 3406 3419 
Q 3406 3131 3298 2873 
Q 3191 2616 2906 2266 
Q 2828 2175 2409 1742 
Q 1991 1309 1228 531 
z
" id="DejaVuSans-32" transform="scale(0.015625)"/>
       </defs>
       <use xlink:href="#DejaVuSans-32"/>
      </g>
     </g>
    </g>
    <g id="xtick_3">
     <g id="line2d_9">
      <path clip-path="url(#p27fbb42e26)" d="M 230.8608 298.944 
L 230.8608 27.648 
" style="fill:none;stroke:#b0b0b0;stroke-linecap:square;stroke-width:0.8;"/>
     </g>
     <g id="line2d_10">
      <g>
       <use style="stroke:#000000;stroke-width:0.8;" x="230.8608" xlink:href="#mc6f9a152b2" y="298.944"/>
      </g>
     </g>
     <g id="text_3">
      <!-- 4 -->
      <g transform="translate(225.452675 318.861344)scale(0.17 -0.17)">
       <defs>
        <path d="M 2419 4116 
L 825 1625 
L 2419 1625 
L 2419 4116 
z
M 2253 4666 
L 3047 4666 
L 3047 1625 
L 3713 1625 
L 3713 1100 
L 3047 1100 
L 3047 0 
L 2419 0 
L 2419 1100 
L 313 1100 
L 313 1709 
L 2253 4666 
z
" id="DejaVuSans-34" transform="scale(0.015625)"/>
       </defs>
       <use xlink:href="#DejaVuSans-34"/>
      </g>
     </g>
    </g>
    <g id="xtick_4">
     <g id="line2d_11">
      <path clip-path="url(#p27fbb42e26)" d="M 317.4912 298.944 
L 317.4912 27.648 
" style="fill:none;stroke:#b0b0b0;stroke-linecap:square;stroke-width:0.8;"/>
     </g>
     <g id="line2d_12">
      <g>
       <use style="stroke:#000000;stroke-width:0.8;" x="317.4912" xlink:href="#mc6f9a152b2" y="298.944"/>
      </g>
     </g>
     <g id="text_4">
      <!-- 6 -->
      <g transform="translate(312.083075 318.861344)scale(0.17 -0.17)">
       <defs>
        <path d="M 2113 2584 
Q 1688 2584 1439 2293 
Q 1191 2003 1191 1497 
Q 1191 994 1439 701 
Q 1688 409 2113 409 
Q 2538 409 2786 701 
Q 3034 994 3034 1497 
Q 3034 2003 2786 2293 
Q 2538 2584 2113 2584 
z
M 3366 4563 
L 3366 3988 
Q 3128 4100 2886 4159 
Q 2644 4219 2406 4219 
Q 1781 4219 1451 3797 
Q 1122 3375 1075 2522 
Q 1259 2794 1537 2939 
Q 1816 3084 2150 3084 
Q 2853 3084 3261 2657 
Q 3669 2231 3669 1497 
Q 3669 778 3244 343 
Q 2819 -91 2113 -91 
Q 1303 -91 875 529 
Q 447 1150 447 2328 
Q 447 3434 972 4092 
Q 1497 4750 2381 4750 
Q 2619 4750 2861 4703 
Q 3103 4656 3366 4563 
z
" id="DejaVuSans-36" transform="scale(0.015625)"/>
       </defs>
       <use xlink:href="#DejaVuSans-36"/>
      </g>
     </g>
    </g>
    <g id="xtick_5">
     <g id="line2d_13">
      <path clip-path="url(#p27fbb42e26)" d="M 100.9152 298.944 
L 100.9152 27.648 
" style="fill:none;stroke:#b0b0b0;stroke-linecap:square;stroke-width:0.8;"/>
     </g>
     <g id="line2d_14">
      <defs>
       <path d="M 0 0 
L 0 2 
" id="m152e34fc7e" style="stroke:#000000;stroke-width:0.6;"/>
      </defs>
      <g>
       <use style="stroke:#000000;stroke-width:0.6;" x="100.9152" xlink:href="#m152e34fc7e" y="298.944"/>
      </g>
     </g>
    </g>
    <g id="xtick_6">
     <g id="line2d_15">
      <path clip-path="url(#p27fbb42e26)" d="M 187.5456 298.944 
L 187.5456 27.648 
" style="fill:none;stroke:#b0b0b0;stroke-linecap:square;stroke-width:0.8;"/>
     </g>
     <g id="line2d_16">
      <g>
       <use style="stroke:#000000;stroke-width:0.6;" x="187.5456" xlink:href="#m152e34fc7e" y="298.944"/>
      </g>
     </g>
    </g>
    <g id="xtick_7">
     <g id="line2d_17">
      <path clip-path="url(#p27fbb42e26)" d="M 274.176 298.944 
L 274.176 27.648 
" style="fill:none;stroke:#b0b0b0;stroke-linecap:square;stroke-width:0.8;"/>
     </g>
     <g id="line2d_18">
      <g>
       <use style="stroke:#000000;stroke-width:0.6;" x="274.176" xlink:href="#m152e34fc7e" y="298.944"/>
      </g>
     </g>
    </g>
    <g id="xtick_8">
     <g id="line2d_19">
      <path clip-path="url(#p27fbb42e26)" d="M 360.8064 298.944 
L 360.8064 27.648 
" style="fill:none;stroke:#b0b0b0;stroke-linecap:square;stroke-width:0.8;"/>
     </g>
     <g id="line2d_20">
      <g>
       <use style="stroke:#000000;stroke-width:0.6;" x="360.8064" xlink:href="#m152e34fc7e" y="298.944"/>
      </g>
     </g>
    </g>
    <g id="text_5">
     <!-- log10(# f-evals / dimension) -->
     <g transform="translate(88.823278 339.314156)scale(0.17 -0.17)">
      <defs>
       <path d="M 603 4863 
L 1178 4863 
L 1178 0 
L 603 0 
L 603 4863 
z
" id="DejaVuSans-6c" transform="scale(0.015625)"/>
       <path d="M 1959 3097 
Q 1497 3097 1228 2736 
Q 959 2375 959 1747 
Q 959 1119 1226 758 
Q 1494 397 1959 397 
Q 2419 397 2687 759 
Q 2956 1122 2956 1747 
Q 2956 2369 2687 2733 
Q 2419 3097 1959 3097 
z
M 1959 3584 
Q 2709 3584 3137 3096 
Q 3566 2609 3566 1747 
Q 3566 888 3137 398 
Q 2709 -91 1959 -91 
Q 1206 -91 779 398 
Q 353 888 353 1747 
Q 353 2609 779 3096 
Q 1206 3584 1959 3584 
z
" id="DejaVuSans-6f" transform="scale(0.015625)"/>
       <path d="M 2906 1791 
Q 2906 2416 2648 2759 
Q 2391 3103 1925 3103 
Q 1463 3103 1205 2759 
Q 947 2416 947 1791 
Q 947 1169 1205 825 
Q 1463 481 1925 481 
Q 2391 481 2648 825 
Q 2906 1169 2906 1791 
z
M 3481 434 
Q 3481 -459 3084 -895 
Q 2688 -1331 1869 -1331 
Q 1566 -1331 1297 -1286 
Q 1028 -1241 775 -1147 
L 775 -588 
Q 1028 -725 1275 -790 
Q 1522 -856 1778 -856 
Q 2344 -856 2625 -561 
Q 2906 -266 2906 331 
L 2906 616 
Q 2728 306 2450 153 
Q 2172 0 1784 0 
Q 1141 0 747 490 
Q 353 981 353 1791 
Q 353 2603 747 3093 
Q 1141 3584 1784 3584 
Q 2172 3584 2450 3431 
Q 2728 3278 2906 2969 
L 2906 3500 
L 3481 3500 
L 3481 434 
z
" id="DejaVuSans-67" transform="scale(0.015625)"/>
       <path d="M 794 531 
L 1825 531 
L 1825 4091 
L 703 3866 
L 703 4441 
L 1819 4666 
L 2450 4666 
L 2450 531 
L 3481 531 
L 3481 0 
L 794 0 
L 794 531 
z
" id="DejaVuSans-31" transform="scale(0.015625)"/>
       <path d="M 1984 4856 
Q 1566 4138 1362 3434 
Q 1159 2731 1159 2009 
Q 1159 1288 1364 580 
Q 1569 -128 1984 -844 
L 1484 -844 
Q 1016 -109 783 600 
Q 550 1309 550 2009 
Q 550 2706 781 3412 
Q 1013 4119 1484 4856 
L 1984 4856 
z
" id="DejaVuSans-28" transform="scale(0.015625)"/>
       <path d="M 3272 2816 
L 2363 2816 
L 2100 1772 
L 3016 1772 
L 3272 2816 
z
M 2803 4594 
L 2478 3297 
L 3391 3297 
L 3719 4594 
L 4219 4594 
L 3897 3297 
L 4872 3297 
L 4872 2816 
L 3775 2816 
L 3519 1772 
L 4513 1772 
L 4513 1294 
L 3397 1294 
L 3072 0 
L 2572 0 
L 2894 1294 
L 1978 1294 
L 1656 0 
L 1153 0 
L 1478 1294 
L 494 1294 
L 494 1772 
L 1594 1772 
L 1856 2816 
L 850 2816 
L 850 3297 
L 1978 3297 
L 2297 4594 
L 2803 4594 
z
" id="DejaVuSans-23" transform="scale(0.015625)"/>
       <path id="DejaVuSans-20" transform="scale(0.015625)"/>
       <path d="M 2375 4863 
L 2375 4384 
L 1825 4384 
Q 1516 4384 1395 4259 
Q 1275 4134 1275 3809 
L 1275 3500 
L 2222 3500 
L 2222 3053 
L 1275 3053 
L 1275 0 
L 697 0 
L 697 3053 
L 147 3053 
L 147 3500 
L 697 3500 
L 697 3744 
Q 697 4328 969 4595 
Q 1241 4863 1831 4863 
L 2375 4863 
z
" id="DejaVuSans-66" transform="scale(0.015625)"/>
       <path d="M 313 2009 
L 1997 2009 
L 1997 1497 
L 313 1497 
L 313 2009 
z
" id="DejaVuSans-2d" transform="scale(0.015625)"/>
       <path d="M 3597 1894 
L 3597 1613 
L 953 1613 
Q 991 1019 1311 708 
Q 1631 397 2203 397 
Q 2534 397 2845 478 
Q 3156 559 3463 722 
L 3463 178 
Q 3153 47 2828 -22 
Q 2503 -91 2169 -91 
Q 1331 -91 842 396 
Q 353 884 353 1716 
Q 353 2575 817 3079 
Q 1281 3584 2069 3584 
Q 2775 3584 3186 3129 
Q 3597 2675 3597 1894 
z
M 3022 2063 
Q 3016 2534 2758 2815 
Q 2500 3097 2075 3097 
Q 1594 3097 1305 2825 
Q 1016 2553 972 2059 
L 3022 2063 
z
" id="DejaVuSans-65" transform="scale(0.015625)"/>
       <path d="M 191 3500 
L 800 3500 
L 1894 563 
L 2988 3500 
L 3597 3500 
L 2284 0 
L 1503 0 
L 191 3500 
z
" id="DejaVuSans-76" transform="scale(0.015625)"/>
       <path d="M 2194 1759 
Q 1497 1759 1228 1600 
Q 959 1441 959 1056 
Q 959 750 1161 570 
Q 1363 391 1709 391 
Q 2188 391 2477 730 
Q 2766 1069 2766 1631 
L 2766 1759 
L 2194 1759 
z
M 3341 1997 
L 3341 0 
L 2766 0 
L 2766 531 
Q 2569 213 2275 61 
Q 1981 -91 1556 -91 
Q 1019 -91 701 211 
Q 384 513 384 1019 
Q 384 1609 779 1909 
Q 1175 2209 1959 2209 
L 2766 2209 
L 2766 2266 
Q 2766 2663 2505 2880 
Q 2244 3097 1772 3097 
Q 1472 3097 1187 3025 
Q 903 2953 641 2809 
L 641 3341 
Q 956 3463 1253 3523 
Q 1550 3584 1831 3584 
Q 2591 3584 2966 3190 
Q 3341 2797 3341 1997 
z
" id="DejaVuSans-61" transform="scale(0.015625)"/>
       <path d="M 2834 3397 
L 2834 2853 
Q 2591 2978 2328 3040 
Q 2066 3103 1784 3103 
Q 1356 3103 1142 2972 
Q 928 2841 928 2578 
Q 928 2378 1081 2264 
Q 1234 2150 1697 2047 
L 1894 2003 
Q 2506 1872 2764 1633 
Q 3022 1394 3022 966 
Q 3022 478 2636 193 
Q 2250 -91 1575 -91 
Q 1294 -91 989 -36 
Q 684 19 347 128 
L 347 722 
Q 666 556 975 473 
Q 1284 391 1588 391 
Q 1994 391 2212 530 
Q 2431 669 2431 922 
Q 2431 1156 2273 1281 
Q 2116 1406 1581 1522 
L 1381 1569 
Q 847 1681 609 1914 
Q 372 2147 372 2553 
Q 372 3047 722 3315 
Q 1072 3584 1716 3584 
Q 2034 3584 2315 3537 
Q 2597 3491 2834 3397 
z
" id="DejaVuSans-73" transform="scale(0.015625)"/>
       <path d="M 1625 4666 
L 2156 4666 
L 531 -594 
L 0 -594 
L 1625 4666 
z
" id="DejaVuSans-2f" transform="scale(0.015625)"/>
       <path d="M 2906 2969 
L 2906 4863 
L 3481 4863 
L 3481 0 
L 2906 0 
L 2906 525 
Q 2725 213 2448 61 
Q 2172 -91 1784 -91 
Q 1150 -91 751 415 
Q 353 922 353 1747 
Q 353 2572 751 3078 
Q 1150 3584 1784 3584 
Q 2172 3584 2448 3432 
Q 2725 3281 2906 2969 
z
M 947 1747 
Q 947 1113 1208 752 
Q 1469 391 1925 391 
Q 2381 391 2643 752 
Q 2906 1113 2906 1747 
Q 2906 2381 2643 2742 
Q 2381 3103 1925 3103 
Q 1469 3103 1208 2742 
Q 947 2381 947 1747 
z
" id="DejaVuSans-64" transform="scale(0.015625)"/>
       <path d="M 603 3500 
L 1178 3500 
L 1178 0 
L 603 0 
L 603 3500 
z
M 603 4863 
L 1178 4863 
L 1178 4134 
L 603 4134 
L 603 4863 
z
" id="DejaVuSans-69" transform="scale(0.015625)"/>
       <path d="M 3328 2828 
Q 3544 3216 3844 3400 
Q 4144 3584 4550 3584 
Q 5097 3584 5394 3201 
Q 5691 2819 5691 2113 
L 5691 0 
L 5113 0 
L 5113 2094 
Q 5113 2597 4934 2840 
Q 4756 3084 4391 3084 
Q 3944 3084 3684 2787 
Q 3425 2491 3425 1978 
L 3425 0 
L 2847 0 
L 2847 2094 
Q 2847 2600 2669 2842 
Q 2491 3084 2119 3084 
Q 1678 3084 1418 2786 
Q 1159 2488 1159 1978 
L 1159 0 
L 581 0 
L 581 3500 
L 1159 3500 
L 1159 2956 
Q 1356 3278 1631 3431 
Q 1906 3584 2284 3584 
Q 2666 3584 2933 3390 
Q 3200 3197 3328 2828 
z
" id="DejaVuSans-6d" transform="scale(0.015625)"/>
       <path d="M 3513 2113 
L 3513 0 
L 2938 0 
L 2938 2094 
Q 2938 2591 2744 2837 
Q 2550 3084 2163 3084 
Q 1697 3084 1428 2787 
Q 1159 2491 1159 1978 
L 1159 0 
L 581 0 
L 581 3500 
L 1159 3500 
L 1159 2956 
Q 1366 3272 1645 3428 
Q 1925 3584 2291 3584 
Q 2894 3584 3203 3211 
Q 3513 2838 3513 2113 
z
" id="DejaVuSans-6e" transform="scale(0.015625)"/>
       <path d="M 513 4856 
L 1013 4856 
Q 1481 4119 1714 3412 
Q 1947 2706 1947 2009 
Q 1947 1309 1714 600 
Q 1481 -109 1013 -844 
L 513 -844 
Q 928 -128 1133 580 
Q 1338 1288 1338 2009 
Q 1338 2731 1133 3434 
Q 928 4138 513 4856 
z
" id="DejaVuSans-29" transform="scale(0.015625)"/>
      </defs>
      <use xlink:href="#DejaVuSans-6c"/>
      <use x="27.783203" xlink:href="#DejaVuSans-6f"/>
      <use x="88.964844" xlink:href="#DejaVuSans-67"/>
      <use x="152.441406" xlink:href="#DejaVuSans-31"/>
      <use x="216.064453" xlink:href="#DejaVuSans-30"/>
      <use x="279.6875" xlink:href="#DejaVuSans-28"/>
      <use x="318.701172" xlink:href="#DejaVuSans-23"/>
      <use x="402.490234" xlink:href="#DejaVuSans-20"/>
      <use x="434.277344" xlink:href="#DejaVuSans-66"/>
      <use x="463.982422" xlink:href="#DejaVuSans-2d"/>
      <use x="500.066406" xlink:href="#DejaVuSans-65"/>
      <use x="561.589844" xlink:href="#DejaVuSans-76"/>
      <use x="620.769531" xlink:href="#DejaVuSans-61"/>
      <use x="682.048828" xlink:href="#DejaVuSans-6c"/>
      <use x="709.832031" xlink:href="#DejaVuSans-73"/>
      <use x="761.931641" xlink:href="#DejaVuSans-20"/>
      <use x="793.71875" xlink:href="#DejaVuSans-2f"/>
      <use x="827.410156" xlink:href="#DejaVuSans-20"/>
      <use x="859.197266" xlink:href="#DejaVuSans-64"/>
      <use x="922.673828" xlink:href="#DejaVuSans-69"/>
      <use x="950.457031" xlink:href="#DejaVuSans-6d"/>
      <use x="1047.869141" xlink:href="#DejaVuSans-65"/>
      <use x="1109.392578" xlink:href="#DejaVuSans-6e"/>
      <use x="1172.771484" xlink:href="#DejaVuSans-73"/>
      <use x="1224.871094" xlink:href="#DejaVuSans-69"/>
      <use x="1252.654297" xlink:href="#DejaVuSans-6f"/>
      <use x="1313.835938" xlink:href="#DejaVuSans-6e"/>
      <use x="1377.214844" xlink:href="#DejaVuSans-29"/>
     </g>
    </g>
   </g>
   <g id="matplotlib.axis_2">
    <g id="ytick_1">
     <g id="line2d_21">
      <path clip-path="url(#p27fbb42e26)" d="M 57.6 298.944 
L 360.8064 298.944 
" style="fill:none;stroke:#b0b0b0;stroke-linecap:square;stroke-width:0.8;"/>
     </g>
     <g id="line2d_22">
      <defs>
       <path d="M 0 0 
L -3.5 0 
" id="mc906538fb5" style="stroke:#000000;stroke-width:0.8;"/>
      </defs>
      <g>
       <use style="stroke:#000000;stroke-width:0.8;" x="57.6" xlink:href="#mc906538fb5" y="298.944"/>
      </g>
     </g>
     <g id="text_6">
      <!-- 0.0 -->
      <g transform="translate(25.155 305.02275)scale(0.16 -0.16)">
       <defs>
        <path d="M 684 794 
L 1344 794 
L 1344 0 
L 684 0 
L 684 794 
z
" id="DejaVuSans-2e" transform="scale(0.015625)"/>
       </defs>
       <use xlink:href="#DejaVuSans-30"/>
       <use x="63.623047" xlink:href="#DejaVuSans-2e"/>
       <use x="95.410156" xlink:href="#DejaVuSans-30"/>
      </g>
     </g>
    </g>
    <g id="ytick_2">
     <g id="line2d_23">
      <path clip-path="url(#p27fbb42e26)" d="M 57.6 244.6848 
L 360.8064 244.6848 
" style="fill:none;stroke:#b0b0b0;stroke-linecap:square;stroke-width:0.8;"/>
     </g>
     <g id="line2d_24">
      <g>
       <use style="stroke:#000000;stroke-width:0.8;" x="57.6" xlink:href="#mc906538fb5" y="244.6848"/>
      </g>
     </g>
     <g id="text_7">
      <!-- 0.2 -->
      <g transform="translate(25.155 250.76355)scale(0.16 -0.16)">
       <use xlink:href="#DejaVuSans-30"/>
       <use x="63.623047" xlink:href="#DejaVuSans-2e"/>
       <use x="95.410156" xlink:href="#DejaVuSans-32"/>
      </g>
     </g>
    </g>
    <g id="ytick_3">
     <g id="line2d_25">
      <path clip-path="url(#p27fbb42e26)" d="M 57.6 190.4256 
L 360.8064 190.4256 
" style="fill:none;stroke:#b0b0b0;stroke-linecap:square;stroke-width:0.8;"/>
     </g>
     <g id="line2d_26">
      <g>
       <use style="stroke:#000000;stroke-width:0.8;" x="57.6" xlink:href="#mc906538fb5" y="190.4256"/>
      </g>
     </g>
     <g id="text_8">
      <!-- 0.4 -->
      <g transform="translate(25.155 196.50435)scale(0.16 -0.16)">
       <use xlink:href="#DejaVuSans-30"/>
       <use x="63.623047" xlink:href="#DejaVuSans-2e"/>
       <use x="95.410156" xlink:href="#DejaVuSans-34"/>
      </g>
     </g>
    </g>
    <g id="ytick_4">
     <g id="line2d_27">
      <path clip-path="url(#p27fbb42e26)" d="M 57.6 136.1664 
L 360.8064 136.1664 
" style="fill:none;stroke:#b0b0b0;stroke-linecap:square;stroke-width:0.8;"/>
     </g>
     <g id="line2d_28">
      <g>
       <use style="stroke:#000000;stroke-width:0.8;" x="57.6" xlink:href="#mc906538fb5" y="136.1664"/>
      </g>
     </g>
     <g id="text_9">
      <!-- 0.6 -->
      <g transform="translate(25.155 142.24515)scale(0.16 -0.16)">
       <use xlink:href="#DejaVuSans-30"/>
       <use x="63.623047" xlink:href="#DejaVuSans-2e"/>
       <use x="95.410156" xlink:href="#DejaVuSans-36"/>
      </g>
     </g>
    </g>
    <g id="ytick_5">
     <g id="line2d_29">
      <path clip-path="url(#p27fbb42e26)" d="M 57.6 81.9072 
L 360.8064 81.9072 
" style="fill:none;stroke:#b0b0b0;stroke-linecap:square;stroke-width:0.8;"/>
     </g>
     <g id="line2d_30">
      <g>
       <use style="stroke:#000000;stroke-width:0.8;" x="57.6" xlink:href="#mc906538fb5" y="81.9072"/>
      </g>
     </g>
     <g id="text_10">
      <!-- 0.8 -->
      <g transform="translate(25.155 87.98595)scale(0.16 -0.16)">
       <defs>
        <path d="M 2034 2216 
Q 1584 2216 1326 1975 
Q 1069 1734 1069 1313 
Q 1069 891 1326 650 
Q 1584 409 2034 409 
Q 2484 409 2743 651 
Q 3003 894 3003 1313 
Q 3003 1734 2745 1975 
Q 2488 2216 2034 2216 
z
M 1403 2484 
Q 997 2584 770 2862 
Q 544 3141 544 3541 
Q 544 4100 942 4425 
Q 1341 4750 2034 4750 
Q 2731 4750 3128 4425 
Q 3525 4100 3525 3541 
Q 3525 3141 3298 2862 
Q 3072 2584 2669 2484 
Q 3125 2378 3379 2068 
Q 3634 1759 3634 1313 
Q 3634 634 3220 271 
Q 2806 -91 2034 -91 
Q 1263 -91 848 271 
Q 434 634 434 1313 
Q 434 1759 690 2068 
Q 947 2378 1403 2484 
z
M 1172 3481 
Q 1172 3119 1398 2916 
Q 1625 2713 2034 2713 
Q 2441 2713 2670 2916 
Q 2900 3119 2900 3481 
Q 2900 3844 2670 4047 
Q 2441 4250 2034 4250 
Q 1625 4250 1398 4047 
Q 1172 3844 1172 3481 
z
" id="DejaVuSans-38" transform="scale(0.015625)"/>
       </defs>
       <use xlink:href="#DejaVuSans-30"/>
       <use x="63.623047" xlink:href="#DejaVuSans-2e"/>
       <use x="95.410156" xlink:href="#DejaVuSans-38"/>
      </g>
     </g>
    </g>
    <g id="ytick_6">
     <g id="line2d_31">
      <path clip-path="url(#p27fbb42e26)" d="M 57.6 27.648 
L 360.8064 27.648 
" style="fill:none;stroke:#b0b0b0;stroke-linecap:square;stroke-width:0.8;"/>
     </g>
     <g id="line2d_32">
      <g>
       <use style="stroke:#000000;stroke-width:0.8;" x="57.6" xlink:href="#mc906538fb5" y="27.648"/>
      </g>
     </g>
     <g id="text_11">
      <!-- 1.0 -->
      <g transform="translate(25.155 33.72675)scale(0.16 -0.16)">
       <use xlink:href="#DejaVuSans-31"/>
       <use x="63.623047" xlink:href="#DejaVuSans-2e"/>
       <use x="95.410156" xlink:href="#DejaVuSans-30"/>
      </g>
     </g>
    </g>
    <g id="text_12">
     <!-- Fraction of function,target pairs -->
     <g transform="translate(17.619531 297.681)rotate(-90)scale(0.17 -0.17)">
      <defs>
       <path d="M 628 4666 
L 3309 4666 
L 3309 4134 
L 1259 4134 
L 1259 2759 
L 3109 2759 
L 3109 2228 
L 1259 2228 
L 1259 0 
L 628 0 
L 628 4666 
z
" id="DejaVuSans-46" transform="scale(0.015625)"/>
       <path d="M 2631 2963 
Q 2534 3019 2420 3045 
Q 2306 3072 2169 3072 
Q 1681 3072 1420 2755 
Q 1159 2438 1159 1844 
L 1159 0 
L 581 0 
L 581 3500 
L 1159 3500 
L 1159 2956 
Q 1341 3275 1631 3429 
Q 1922 3584 2338 3584 
Q 2397 3584 2469 3576 
Q 2541 3569 2628 3553 
L 2631 2963 
z
" id="DejaVuSans-72" transform="scale(0.015625)"/>
       <path d="M 3122 3366 
L 3122 2828 
Q 2878 2963 2633 3030 
Q 2388 3097 2138 3097 
Q 1578 3097 1268 2742 
Q 959 2388 959 1747 
Q 959 1106 1268 751 
Q 1578 397 2138 397 
Q 2388 397 2633 464 
Q 2878 531 3122 666 
L 3122 134 
Q 2881 22 2623 -34 
Q 2366 -91 2075 -91 
Q 1284 -91 818 406 
Q 353 903 353 1747 
Q 353 2603 823 3093 
Q 1294 3584 2113 3584 
Q 2378 3584 2631 3529 
Q 2884 3475 3122 3366 
z
" id="DejaVuSans-63" transform="scale(0.015625)"/>
       <path d="M 1172 4494 
L 1172 3500 
L 2356 3500 
L 2356 3053 
L 1172 3053 
L 1172 1153 
Q 1172 725 1289 603 
Q 1406 481 1766 481 
L 2356 481 
L 2356 0 
L 1766 0 
Q 1100 0 847 248 
Q 594 497 594 1153 
L 594 3053 
L 172 3053 
L 172 3500 
L 594 3500 
L 594 4494 
L 1172 4494 
z
" id="DejaVuSans-74" transform="scale(0.015625)"/>
       <path d="M 544 1381 
L 544 3500 
L 1119 3500 
L 1119 1403 
Q 1119 906 1312 657 
Q 1506 409 1894 409 
Q 2359 409 2629 706 
Q 2900 1003 2900 1516 
L 2900 3500 
L 3475 3500 
L 3475 0 
L 2900 0 
L 2900 538 
Q 2691 219 2414 64 
Q 2138 -91 1772 -91 
Q 1169 -91 856 284 
Q 544 659 544 1381 
z
M 1991 3584 
L 1991 3584 
z
" id="DejaVuSans-75" transform="scale(0.015625)"/>
       <path d="M 750 794 
L 1409 794 
L 1409 256 
L 897 -744 
L 494 -744 
L 750 256 
L 750 794 
z
" id="DejaVuSans-2c" transform="scale(0.015625)"/>
       <path d="M 1159 525 
L 1159 -1331 
L 581 -1331 
L 581 3500 
L 1159 3500 
L 1159 2969 
Q 1341 3281 1617 3432 
Q 1894 3584 2278 3584 
Q 2916 3584 3314 3078 
Q 3713 2572 3713 1747 
Q 3713 922 3314 415 
Q 2916 -91 2278 -91 
Q 1894 -91 1617 61 
Q 1341 213 1159 525 
z
M 3116 1747 
Q 3116 2381 2855 2742 
Q 2594 3103 2138 3103 
Q 1681 3103 1420 2742 
Q 1159 2381 1159 1747 
Q 1159 1113 1420 752 
Q 1681 391 2138 391 
Q 2594 391 2855 752 
Q 3116 1113 3116 1747 
z
" id="DejaVuSans-70" transform="scale(0.015625)"/>
      </defs>
      <use xlink:href="#DejaVuSans-46"/>
      <use x="50.269531" xlink:href="#DejaVuSans-72"/>
      <use x="91.382812" xlink:href="#DejaVuSans-61"/>
      <use x="152.662109" xlink:href="#DejaVuSans-63"/>
      <use x="207.642578" xlink:href="#DejaVuSans-74"/>
      <use x="246.851562" xlink:href="#DejaVuSans-69"/>
      <use x="274.634766" xlink:href="#DejaVuSans-6f"/>
      <use x="335.816406" xlink:href="#DejaVuSans-6e"/>
      <use x="399.195312" xlink:href="#DejaVuSans-20"/>
      <use x="430.982422" xlink:href="#DejaVuSans-6f"/>
      <use x="492.164062" xlink:href="#DejaVuSans-66"/>
      <use x="527.369141" xlink:href="#DejaVuSans-20"/>
      <use x="559.15625" xlink:href="#DejaVuSans-66"/>
      <use x="594.361328" xlink:href="#DejaVuSans-75"/>
      <use x="657.740234" xlink:href="#DejaVuSans-6e"/>
      <use x="721.119141" xlink:href="#DejaVuSans-63"/>
      <use x="776.099609" xlink:href="#DejaVuSans-74"/>
      <use x="815.308594" xlink:href="#DejaVuSans-69"/>
      <use x="843.091797" xlink:href="#DejaVuSans-6f"/>
      <use x="904.273438" xlink:href="#DejaVuSans-6e"/>
      <use x="967.652344" xlink:href="#DejaVuSans-2c"/>
      <use x="999.439453" xlink:href="#DejaVuSans-74"/>
      <use x="1038.648438" xlink:href="#DejaVuSans-61"/>
      <use x="1099.927734" xlink:href="#DejaVuSans-72"/>
      <use x="1139.291016" xlink:href="#DejaVuSans-67"/>
      <use x="1202.767578" xlink:href="#DejaVuSans-65"/>
      <use x="1264.291016" xlink:href="#DejaVuSans-74"/>
      <use x="1303.5" xlink:href="#DejaVuSans-20"/>
      <use x="1335.287109" xlink:href="#DejaVuSans-70"/>
      <use x="1398.763672" xlink:href="#DejaVuSans-61"/>
      <use x="1460.042969" xlink:href="#DejaVuSans-69"/>
      <use x="1487.826172" xlink:href="#DejaVuSans-72"/>
      <use x="1528.939453" xlink:href="#DejaVuSans-73"/>
     </g>
    </g>
   </g>
   <g id="line2d_33">
    <defs>
     <path d="M 0 1.5 
C 0.397805 1.5 0.77937 1.341951 1.06066 1.06066 
C 1.341951 0.77937 1.5 0.397805 1.5 0 
C 1.5 -0.397805 1.341951 -0.77937 1.06066 -1.06066 
C 0.77937 -1.341951 0.397805 -1.5 0 -1.5 
C -0.397805 -1.5 -0.77937 -1.341951 -1.06066 -1.06066 
C -1.341951 -0.77937 -1.5 -0.397805 -1.5 0 
C -1.5 0.397805 -1.341951 0.77937 -1.06066 1.06066 
C -0.77937 1.341951 -0.397805 1.5 0 1.5 
z
" id="m3e34301c65" style="stroke:#f5deb3;"/>
    </defs>
    <g>
     <use style="fill:#f5deb3;stroke:#f5deb3;" x="232.792086" xlink:href="#m3e34301c65" y="27.648"/>
     <use style="fill:#f5deb3;stroke:#f5deb3;" x="232.792086" xlink:href="#m3e34301c65" y="27.648"/>
    </g>
   </g>
   <g id="line2d_34">
    <defs>
     <path d="M 0 1.5 
C 0.397805 1.5 0.77937 1.341951 1.06066 1.06066 
C 1.341951 0.77937 1.5 0.397805 1.5 0 
C 1.5 -0.397805 1.341951 -0.77937 1.06066 -1.06066 
C 0.77937 -1.341951 0.397805 -1.5 0 -1.5 
C -0.397805 -1.5 -0.77937 -1.341951 -1.06066 -1.06066 
C -1.341951 -0.77937 -1.5 -0.397805 -1.5 0 
C -1.5 0.397805 -1.341951 0.77937 -1.06066 1.06066 
C -0.77937 1.341951 -0.397805 1.5 0 1.5 
z
" id="m4bcee825fd" style="stroke:#000080;"/>
    </defs>
    <g>
     <use style="fill:#000080;stroke:#000080;" x="254.432698" xlink:href="#m4bcee825fd" y="27.648"/>
     <use style="fill:#000080;stroke:#000080;" x="254.432698" xlink:href="#m4bcee825fd" y="27.648"/>
    </g>
   </g>
   <g id="line2d_35">
    <path d="M 104.655893 298.944 
L 104.655893 296.106918 
L 117.540239 296.106918 
L 117.540239 295.752282 
L 119.876453 295.752282 
L 119.876453 295.397647 
L 120.149089 295.397647 
L 120.149089 295.043012 
L 122.913079 295.043012 
L 122.913079 294.333741 
L 123.374735 294.333741 
L 123.374735 293.624471 
L 124.046648 293.624471 
L 124.046648 291.142024 
L 125.322496 291.142024 
L 125.322496 290.787388 
L 127.458055 290.787388 
L 127.458055 287.950306 
L 128.178203 287.950306 
L 128.178203 285.822494 
L 129.54072 285.822494 
L 129.54072 285.113224 
L 129.86647 285.113224 
L 129.86647 282.630776 
L 130.027253 282.630776 
L 130.027253 280.8576 
L 130.811181 280.8576 
L 130.811181 278.375153 
L 131.266322 278.375153 
L 131.266322 275.892706 
L 131.563744 275.892706 
L 131.563744 274.474165 
L 131.71071 274.474165 
L 131.71071 274.119529 
L 132.428795 274.119529 
L 132.428795 271.637082 
L 133.523594 271.637082 
L 133.523594 271.282447 
L 133.656071 271.282447 
L 133.656071 269.509271 
L 134.047992 269.509271 
L 134.047992 269.154635 
L 134.558167 269.154635 
L 134.558167 268.445365 
L 136.126705 268.445365 
L 136.126705 267.736094 
L 136.808769 267.736094 
L 136.808769 266.672188 
L 136.92008 266.672188 
L 136.92008 266.317553 
L 137.998402 266.317553 
L 138.10291 264.899012 
L 138.818654 264.899012 
L 138.918715 263.480471 
L 139.215746 263.480471 
L 139.215746 260.998024 
L 140.26641 260.998024 
L 140.26641 260.643388 
L 140.451292 260.643388 
L 140.451292 258.515576 
L 143.10641 258.515576 
L 143.10641 258.160941 
L 143.501625 258.160941 
L 143.501625 257.097035 
L 143.888708 257.097035 
L 143.888708 256.7424 
L 144.041338 256.7424 
L 144.117191 255.678494 
L 144.267986 255.678494 
L 144.342932 254.969224 
L 145.851536 254.969224 
L 145.851536 254.614588 
L 146.859539 254.614588 
L 146.859539 254.259953 
L 147.691478 254.259953 
L 147.691478 253.905318 
L 151.528902 253.905318 
L 151.528902 253.550682 
L 152.230346 253.550682 
L 152.230346 253.196047 
L 153.421349 253.196047 
L 153.421349 252.841412 
L 155.013876 252.841412 
L 155.013876 252.486776 
L 155.22477 252.486776 
L 155.22477 252.132141 
L 155.598521 252.132141 
L 155.598521 251.777506 
L 157.288377 251.777506 
L 157.288377 251.422871 
L 158.630038 251.422871 
L 158.630038 251.068235 
L 159.249688 251.068235 
L 159.249688 250.7136 
L 161.331318 250.7136 
L 161.331318 250.358965 
L 161.898693 250.358965 
L 161.898693 250.004329 
L 162.901068 250.004329 
L 162.901068 249.649694 
L 163.95848 249.649694 
L 163.95848 249.295059 
L 165.477385 249.295059 
L 165.477385 248.940424 
L 165.766985 248.940424 
L 165.766985 248.585788 
L 167.91469 248.585788 
L 167.91469 248.231153 
L 168.750432 248.231153 
L 168.750432 247.876518 
L 169.234617 247.876518 
L 169.234617 247.521882 
L 169.432739 247.521882 
L 169.432739 247.167247 
L 169.726065 247.167247 
L 169.726065 246.812612 
L 170.072123 246.812612 
L 170.072123 246.457976 
L 172.864133 246.457976 
L 172.864133 246.103341 
L 174.544011 246.103341 
L 174.633911 244.330165 
L 176.631594 244.330165 
L 176.671876 243.620894 
L 176.832146 243.620894 
L 176.832146 243.266259 
L 177.004244 243.266259 
L 177.004244 242.911624 
L 178.129566 242.911624 
L 178.129566 242.556988 
L 179.26161 242.556988 
L 179.26161 242.202353 
L 179.447692 242.202353 
L 179.447692 241.847718 
L 180.362479 241.847718 
L 180.362479 241.493082 
L 181.371153 241.493082 
L 181.371153 241.138447 
L 181.568624 241.138447 
L 181.568624 240.783812 
L 182.506372 240.783812 
L 182.506372 240.074541 
L 184.198438 240.074541 
L 184.198438 239.719906 
L 184.904229 239.719906 
L 184.904229 239.365271 
L 185.997499 239.365271 
L 185.997499 237.946729 
L 187.177069 237.946729 
L 187.177069 237.237459 
L 187.307069 237.237459 
L 187.307069 236.528188 
L 187.825678 236.528188 
L 187.862709 235.818918 
L 187.973365 235.818918 
L 188.07606 235.109647 
L 188.871033 235.109647 
L 188.871033 234.755012 
L 189.080246 234.755012 
L 189.080246 234.400376 
L 189.21844 234.400376 
L 189.21844 234.045741 
L 189.525714 234.045741 
L 189.552785 233.336471 
L 190.2954 233.336471 
L 190.2954 232.981835 
L 191.233795 232.981835 
L 191.233795 232.6272 
L 193.36027 232.6272 
L 193.36027 231.563294 
L 193.623565 231.563294 
L 193.645341 230.854024 
L 193.888597 230.854024 
L 193.952938 229.080847 
L 194.102215 229.080847 
L 194.102215 228.726212 
L 194.454679 228.726212 
L 194.454679 228.371576 
L 194.651688 228.371576 
L 194.687755 227.662306 
L 195.270595 227.662306 
L 195.270595 227.307671 
L 195.816537 227.307671 
L 195.816537 226.953035 
L 196.384746 226.953035 
L 196.384746 226.5984 
L 196.557975 226.5984 
L 196.557975 225.889129 
L 196.73424 225.889129 
L 196.73424 224.470588 
L 197.077359 224.470588 
L 197.127161 223.406682 
L 197.257829 223.406682 
L 197.325061 222.342776 
L 198.318469 222.342776 
L 198.318469 221.988141 
L 198.432709 221.988141 
L 198.432709 221.633506 
L 198.592326 221.633506 
L 198.592326 221.278871 
L 198.738153 221.278871 
L 198.808577 219.860329 
L 199.006011 219.860329 
L 199.018282 219.151059 
L 199.160856 219.151059 
L 199.160856 218.796424 
L 199.334552 218.796424 
L 199.402782 217.377882 
L 199.613927 217.377882 
L 199.641637 216.668612 
L 199.881403 216.668612 
L 199.971019 214.5408 
L 200.02536 214.5408 
L 200.125864 213.122259 
L 200.237334 213.122259 
L 200.344338 211.703718 
L 200.582893 211.703718 
L 200.665491 210.994447 
L 200.799873 210.994447 
L 200.859291 209.930541 
L 201.113406 209.930541 
L 201.164549 208.512 
L 201.450566 208.512 
L 201.51513 207.802729 
L 201.608 207.802729 
L 201.672028 206.384188 
L 201.960981 206.384188 
L 201.960981 206.029553 
L 202.08645 206.029553 
L 202.169633 204.611012 
L 202.235227 204.611012 
L 202.235227 203.901741 
L 202.358886 203.901741 
L 202.358886 203.547106 
L 202.508929 203.547106 
L 202.539473 202.4832 
L 202.688088 202.4832 
L 202.698178 201.773929 
L 202.835538 201.773929 
L 202.8922 200.355388 
L 202.958642 200.355388 
L 202.958642 199.291482 
L 203.087534 199.291482 
L 203.087534 198.936847 
L 203.215549 198.936847 
L 203.316687 196.809035 
L 203.339449 196.809035 
L 203.339449 196.099765 
L 203.510906 196.099765 
L 203.552724 194.681224 
L 203.645676 194.681224 
L 203.734989 192.908047 
L 203.798525 192.908047 
L 203.89974 191.489506 
L 203.946997 191.489506 
L 204.009823 190.070965 
L 204.075564 190.070965 
L 204.178411 189.007059 
L 204.200155 189.007059 
L 204.200155 187.233882 
L 204.314671 187.233882 
L 204.394727 185.460706 
L 204.477503 185.460706 
L 204.55687 183.332894 
L 204.608584 183.332894 
L 204.717628 179.077271 
L 204.789974 179.077271 
L 204.802005 177.304094 
L 204.909937 177.304094 
L 204.993458 176.240188 
L 205.085497 176.240188 
L 205.147591 174.821647 
L 205.206538 174.821647 
L 205.294614 173.403106 
L 205.385195 173.403106 
L 205.455024 172.3392 
L 205.524594 172.3392 
L 205.62847 170.920659 
L 205.671583 170.920659 
L 205.731775 168.792847 
L 205.897027 168.792847 
L 205.973463 164.891859 
L 206.027065 164.891859 
L 206.12821 162.054776 
L 206.15621 162.054776 
L 206.26223 160.990871 
L 206.362122 160.990871 
L 206.370422 159.926965 
L 206.55759 159.926965 
L 206.55759 159.572329 
L 206.67227 159.572329 
L 206.748336 157.799153 
L 206.799778 157.799153 
L 206.904931 154.607435 
L 206.91837 154.607435 
L 206.934484 153.188894 
L 207.078891 153.188894 
L 207.137407 151.415718 
L 207.259173 151.415718 
L 207.335536 150.351812 
L 207.382778 150.351812 
L 207.492551 149.287906 
L 207.50818 149.287906 
L 207.59132 145.741553 
L 207.65085 145.741553 
L 207.753934 144.677647 
L 207.774484 144.677647 
L 207.861568 143.613741 
L 207.973671 143.613741 
L 208.037069 141.485929 
L 208.09016 141.485929 
L 208.180824 137.939576 
L 208.225993 137.939576 
L 208.316006 136.1664 
L 208.370803 136.1664 
L 208.479921 134.747859 
L 208.499692 134.747859 
L 208.593325 132.974682 
L 208.622797 132.974682 
L 208.723145 130.492235 
L 208.747539 130.492235 
L 208.818104 128.364424 
L 208.936736 128.364424 
L 209.033027 123.044894 
L 209.057022 123.044894 
L 209.135992 121.626353 
L 209.171778 121.626353 
L 209.171778 120.917082 
L 209.295312 120.917082 
L 209.406274 119.853176 
L 209.422745 119.853176 
L 209.490826 119.143906 
L 209.54932 119.143906 
L 209.623927 117.016094 
L 209.665764 117.016094 
L 209.742225 114.888282 
L 209.7838 114.888282 
L 209.827585 113.824376 
L 209.907977 113.824376 
L 210.013114 110.987294 
L 210.049546 110.987294 
L 210.101794 107.795576 
L 210.167466 107.795576 
L 210.271167 105.667765 
L 210.365354 105.667765 
L 210.389944 104.249224 
L 210.527946 104.249224 
L 210.600988 102.121412 
L 210.647322 102.121412 
L 210.717707 101.057506 
L 210.781267 101.057506 
L 210.831524 99.638965 
L 210.996644 99.638965 
L 211.106641 97.156518 
L 211.143164 97.156518 
L 211.235231 95.737976 
L 211.271505 95.737976 
L 211.358704 93.255529 
L 211.386268 93.255529 
L 211.432824 90.773082 
L 211.515072 90.773082 
L 211.611622 89.709176 
L 211.784589 89.709176 
L 211.852919 87.581365 
L 212.046208 87.581365 
L 212.154321 85.808188 
L 212.304238 85.808188 
L 212.414895 83.680376 
L 212.528893 83.680376 
L 212.528893 83.325741 
L 212.794197 83.325741 
L 212.794197 82.971106 
L 213.026707 82.971106 
L 213.108088 81.552565 
L 213.142858 81.552565 
L 213.142858 81.197929 
L 213.262132 81.197929 
L 213.262132 80.488659 
L 213.414924 80.488659 
L 213.414924 80.134024 
L 215.716325 80.134024 
L 215.716325 79.779388 
L 216.736735 79.779388 
L 216.736735 79.424753 
L 217.631803 79.424753 
L 217.631803 79.070118 
L 218.131334 79.070118 
L 218.131334 78.715482 
L 218.625154 78.715482 
L 218.625154 77.651576 
L 218.877248 77.651576 
L 218.877248 76.942306 
L 219.090873 76.942306 
L 219.090873 76.587671 
L 219.207271 76.587671 
L 219.290968 75.8784 
L 219.429641 75.8784 
L 219.523358 74.814494 
L 219.54946 74.814494 
L 219.54946 74.459859 
L 219.676704 74.459859 
L 219.756985 71.977412 
L 219.946122 71.977412 
L 219.946122 71.268141 
L 220.265998 71.268141 
L 220.265998 70.913506 
L 220.39244 70.913506 
L 220.39244 70.558871 
L 220.585723 70.558871 
L 220.638918 69.494965 
L 220.760312 69.494965 
L 220.784754 68.785694 
L 220.914154 68.785694 
L 221.01729 67.367153 
L 221.201775 67.367153 
L 221.201775 67.012518 
L 230.21748 67.012518 
L 230.21748 66.657882 
L 230.678197 66.657882 
L 230.777469 64.530071 
L 230.867947 64.530071 
L 230.867947 64.175435 
L 231.310251 64.175435 
L 231.36747 62.402259 
L 231.54172 62.402259 
L 231.64882 60.983718 
L 231.6755 60.983718 
L 231.770376 58.855906 
L 231.790439 58.855906 
L 231.873333 56.728094 
L 232.011863 56.728094 
L 232.114919 53.891012 
L 232.223714 53.891012 
L 232.316567 52.117835 
L 232.358307 52.117835 
L 232.45534 51.053929 
L 232.489873 51.053929 
L 232.534673 50.344659 
L 232.627378 50.344659 
L 232.652022 49.635388 
L 232.773403 49.635388 
L 232.881169 48.216847 
L 232.993696 48.216847 
L 233.102215 46.089035 
L 233.183528 46.089035 
L 233.273097 44.315859 
L 233.356313 44.315859 
L 233.46211 42.897318 
L 233.505963 42.897318 
L 233.594665 39.7056 
L 233.649891 39.7056 
L 233.703663 38.641694 
L 234.126491 38.641694 
L 234.177027 37.932424 
L 236.436711 37.932424 
L 236.547712 37.223153 
L 236.913419 37.223153 
L 236.98691 36.513882 
L 237.095801 36.513882 
L 237.095801 36.159247 
L 241.535589 36.159247 
L 241.535589 35.804612 
L 241.823896 35.804612 
L 241.823896 35.449976 
L 242.409995 35.449976 
L 242.511531 34.386071 
L 242.524083 34.386071 
L 242.524083 34.031435 
L 242.833609 34.031435 
L 242.928532 32.967529 
L 243.066683 32.967529 
L 243.066683 32.612894 
L 243.254123 32.612894 
L 243.254123 32.258259 
L 243.372509 32.258259 
L 243.460137 31.548988 
L 243.504375 31.548988 
L 243.504375 31.194353 
L 245.019337 31.194353 
L 245.019337 30.839718 
L 245.220323 30.839718 
L 245.220323 30.485082 
L 248.912135 30.485082 
L 248.912135 30.130447 
L 249.070855 30.130447 
L 249.070855 29.775812 
L 249.289369 29.775812 
L 249.333389 29.066541 
L 249.543596 29.066541 
L 249.543596 28.711906 
L 249.939089 28.711906 
L 249.939089 28.357271 
L 254.427969 28.357271 
L 254.432698 27.648 
L 360.8064 27.648 
L 360.8064 27.648 
" style="fill:none;stroke:#000080;stroke-linecap:square;stroke-width:1.5;"/>
   </g>
   <g id="line2d_36">
    <defs>
     <path d="M 0 6 
C 1.591219 6 3.117479 5.367802 4.242641 4.242641 
C 5.367802 3.117479 6 1.591219 6 0 
C 6 -1.591219 5.367802 -3.117479 4.242641 -4.242641 
C 3.117479 -5.367802 1.591219 -6 0 -6 
C -1.591219 -6 -3.117479 -5.367802 -4.242641 -4.242641 
C -5.367802 -3.117479 -6 -1.591219 -6 0 
C -6 1.591219 -5.367802 3.117479 -4.242641 4.242641 
C -3.117479 5.367802 -1.591219 6 0 6 
z
" id="me17c2281f6" style="stroke:#000080;stroke-width:1.5;"/>
    </defs>
    <g>
     <use style="fill-opacity:0;stroke:#000080;stroke-width:1.5;" x="177.004244" xlink:href="#me17c2281f6" y="242.911624"/>
     <use style="fill-opacity:0;stroke:#000080;stroke-width:1.5;" x="211.515072" xlink:href="#me17c2281f6" y="90.063812"/>
     <use style="fill-opacity:0;stroke:#000080;stroke-width:1.5;" x="254.432698" xlink:href="#me17c2281f6" y="28.002635"/>
     <use style="fill-opacity:0;stroke:#000080;stroke-width:1.5;" x="254.432698" xlink:href="#me17c2281f6" y="27.648"/>
     <use style="fill-opacity:0;stroke:#000080;stroke-width:1.5;" x="360.8064" xlink:href="#me17c2281f6" y="27.648"/>
    </g>
   </g>
   <g id="line2d_37">
    <path style="fill:none;stroke:#000080;stroke-linecap:square;stroke-width:1.5;"/>
    <g/>
   </g>
   <g id="line2d_38">
    <path clip-path="url(#p27fbb42e26)" d="M 226.672527 67.012518 
" style="fill:none;stroke:#000080;stroke-linecap:square;stroke-width:1.5;"/>
    <defs>
     <path d="M -12 12 
L 12 -12 
M -12 -12 
L 12 12 
" id="m4fa172473f" style="stroke:#000080;"/>
    </defs>
    <g clip-path="url(#p27fbb42e26)">
     <use style="fill:#000080;stroke:#000080;" x="226.672527" xlink:href="#m4fa172473f" y="67.012518"/>
    </g>
   </g>
   <g id="line2d_39">
    <defs>
     <path d="M 0 1.5 
C 0.397805 1.5 0.77937 1.341951 1.06066 1.06066 
C 1.341951 0.77937 1.5 0.397805 1.5 0 
C 1.5 -0.397805 1.341951 -0.77937 1.06066 -1.06066 
C 0.77937 -1.341951 0.397805 -1.5 0 -1.5 
C -0.397805 -1.5 -0.77937 -1.341951 -1.06066 -1.06066 
C -1.341951 -0.77937 -1.5 -0.397805 -1.5 0 
C -1.5 0.397805 -1.341951 0.77937 -1.06066 1.06066 
C -0.77937 1.341951 -0.397805 1.5 0 1.5 
z
" id="me4a945ee3e" style="stroke:#ff00ff;"/>
    </defs>
    <g>
     <use style="fill:#ff00ff;stroke:#ff00ff;" x="293.697779" xlink:href="#me4a945ee3e" y="235.109647"/>
     <use style="fill:#ff00ff;stroke:#ff00ff;" x="293.697779" xlink:href="#me4a945ee3e" y="235.109647"/>
    </g>
   </g>
   <g id="line2d_40">
    <path d="M 27.323974 298.944 
L 27.323974 298.234729 
L 53.402323 298.234729 
L 53.402323 295.752282 
L 61.029752 295.752282 
L 61.029752 295.397647 
L 66.441498 295.397647 
L 66.441498 292.9152 
L 76.96874 292.9152 
L 76.96874 290.078118 
L 78.266603 290.078118 
L 78.266603 289.723482 
L 79.480672 289.723482 
L 79.480672 287.241035 
L 80.621116 287.241035 
L 80.621116 282.985412 
L 84.596168 282.985412 
L 84.596168 280.502965 
L 87.876026 280.502965 
L 87.876026 273.055624 
L 88.613828 273.055624 
L 88.613828 271.637082 
L 93.66029 271.637082 
L 93.66029 269.863906 
L 94.205591 269.863906 
L 94.205591 269.509271 
L 94.735529 269.509271 
L 94.735529 267.381459 
L 97.18203 267.381459 
L 97.18203 267.026824 
L 97.635342 267.026824 
L 97.635342 264.189741 
L 98.510456 264.189741 
L 98.510456 261.707294 
L 99.751228 261.707294 
L 99.751228 259.934118 
L 101.287718 259.934118 
L 101.287718 259.224847 
L 105.559021 259.224847 
L 105.559021 258.870212 
L 106.137884 258.870212 
L 106.137884 258.515576 
L 106.699465 258.515576 
L 106.699465 258.160941 
L 108.29012 258.160941 
L 108.29012 257.451671 
L 108.542628 257.451671 
L 108.542628 257.097035 
L 117.067958 257.097035 
L 117.067958 256.7424 
L 120.41783 256.7424 
L 120.41783 256.387765 
L 124.373813 256.387765 
L 124.373813 256.033129 
L 126.323346 256.033129 
L 126.323346 255.678494 
L 127.640693 255.678494 
L 127.640693 255.323859 
L 128.614685 255.323859 
L 128.614685 254.969224 
L 129.7043 254.969224 
L 129.7043 254.614588 
L 132.56918 254.614588 
L 132.56918 254.259953 
L 136.97549 254.259953 
L 136.97549 253.905318 
L 139.313723 253.905318 
L 139.313723 253.550682 
L 140.905699 253.550682 
L 140.905699 253.196047 
L 141.953481 253.196047 
L 141.953481 252.841412 
L 143.618588 252.841412 
L 143.618588 252.486776 
L 144.895711 252.486776 
L 144.895711 252.132141 
L 145.219746 252.132141 
L 145.219746 251.777506 
L 145.7477 251.777506 
L 145.7477 251.422871 
L 149.136916 251.422871 
L 149.136916 251.068235 
L 153.832297 251.068235 
L 153.832297 250.7136 
L 159.701388 250.7136 
L 159.701388 250.358965 
L 164.440019 250.358965 
L 164.440019 250.004329 
L 165.658907 250.004329 
L 165.658907 249.649694 
L 171.118765 249.649694 
L 171.118765 249.295059 
L 177.168252 249.295059 
L 177.168252 248.940424 
L 181.609934 248.940424 
L 181.609934 248.585788 
L 187.729056 248.585788 
L 187.729056 248.231153 
L 193.011821 248.231153 
L 193.011821 247.876518 
L 196.059767 247.876518 
L 196.059767 247.521882 
L 196.311701 247.521882 
L 196.311701 247.167247 
L 214.495129 247.167247 
L 214.495129 246.812612 
L 226.163689 246.812612 
L 226.163689 246.457976 
L 228.428246 246.457976 
L 228.428246 246.103341 
L 229.446213 246.103341 
L 229.446213 245.748706 
L 230.44348 245.748706 
L 230.44348 245.394071 
L 235.951914 245.394071 
L 235.951914 245.039435 
L 236.571056 245.039435 
L 236.571056 244.6848 
L 238.228347 244.6848 
L 238.228347 244.330165 
L 239.299205 244.330165 
L 239.299205 243.975529 
L 240.813284 243.975529 
L 240.813284 243.620894 
L 244.029889 243.620894 
L 244.029889 243.266259 
L 244.833552 243.266259 
L 244.833552 242.911624 
L 245.326643 242.911624 
L 245.326643 242.556988 
L 250.752553 242.556988 
L 250.756081 241.847718 
L 251.071447 241.847718 
L 251.071447 241.493082 
L 253.632735 241.493082 
L 253.633744 240.783812 
L 257.67668 240.783812 
L 257.67668 240.429176 
L 260.680459 240.429176 
L 260.680459 240.074541 
L 262.964681 240.074541 
L 262.964681 239.719906 
L 264.988273 239.719906 
L 264.988273 239.365271 
L 265.154558 239.365271 
L 265.154558 239.010635 
L 265.839986 239.010635 
L 265.839986 238.656 
L 268.287781 238.656 
L 268.287781 238.301365 
L 270.945971 238.301365 
L 270.945971 237.946729 
L 274.369364 237.946729 
L 274.369364 237.592094 
L 275.817628 237.592094 
L 275.817628 237.237459 
L 277.858875 237.237459 
L 277.860143 236.528188 
L 279.605214 236.528188 
L 279.605214 236.173553 
L 279.800436 236.173553 
L 279.800436 235.818918 
L 290.774809 235.818918 
L 290.774809 235.464282 
L 293.697779 235.464282 
L 293.697779 235.109647 
L 360.8064 235.109647 
L 360.8064 235.109647 
" style="fill:none;stroke:#ff00ff;stroke-linecap:square;stroke-width:1.5;"/>
   </g>
   <g id="line2d_41">
    <defs>
     <path d="M -0 8.485281 
L 5.091169 0 
L 0 -8.485281 
L -5.091169 -0 
z
" id="m28864497ef" style="stroke:#ff00ff;stroke-linejoin:miter;stroke-width:1.5;"/>
    </defs>
    <g>
     <use style="fill-opacity:0;stroke:#ff00ff;stroke-linejoin:miter;stroke-width:1.5;" x="66.441498" xlink:href="#m28864497ef" y="292.9152"/>
     <use style="fill-opacity:0;stroke:#ff00ff;stroke-linejoin:miter;stroke-width:1.5;" x="145.219746" xlink:href="#m28864497ef" y="252.132141"/>
     <use style="fill-opacity:0;stroke:#ff00ff;stroke-linejoin:miter;stroke-width:1.5;" x="196.311701" xlink:href="#m28864497ef" y="247.521882"/>
     <use style="fill-opacity:0;stroke:#ff00ff;stroke-linejoin:miter;stroke-width:1.5;" x="279.800436" xlink:href="#m28864497ef" y="236.173553"/>
     <use style="fill-opacity:0;stroke:#ff00ff;stroke-linejoin:miter;stroke-width:1.5;" x="293.697779" xlink:href="#m28864497ef" y="235.109647"/>
     <use style="fill-opacity:0;stroke:#ff00ff;stroke-linejoin:miter;stroke-width:1.5;" x="360.8064" xlink:href="#m28864497ef" y="235.109647"/>
    </g>
   </g>
   <g id="line2d_42">
    <path style="fill:none;stroke:#ff00ff;stroke-linecap:square;stroke-width:1.5;"/>
    <g/>
   </g>
   <g id="line2d_43">
    <path clip-path="url(#p27fbb42e26)" d="M 243.90731 243.620894 
" style="fill:none;stroke:#ff00ff;stroke-linecap:square;stroke-width:1.5;"/>
    <defs>
     <path d="M -12 12 
L 12 -12 
M -12 -12 
L 12 12 
" id="mb66c4e2019" style="stroke:#ff00ff;"/>
    </defs>
    <g clip-path="url(#p27fbb42e26)">
     <use style="fill:#ff00ff;stroke:#ff00ff;" x="243.90731" xlink:href="#mb66c4e2019" y="243.620894"/>
    </g>
   </g>
   <g id="line2d_44">
    <defs>
     <path d="M 0 1.5 
C 0.397805 1.5 0.77937 1.341951 1.06066 1.06066 
C 1.341951 0.77937 1.5 0.397805 1.5 0 
C 1.5 -0.397805 1.341951 -0.77937 1.06066 -1.06066 
C 0.77937 -1.341951 0.397805 -1.5 0 -1.5 
C -0.397805 -1.5 -0.77937 -1.341951 -1.06066 -1.06066 
C -1.341951 -0.77937 -1.5 -0.397805 -1.5 0 
C -1.5 0.397805 -1.341951 0.77937 -1.06066 1.06066 
C -0.77937 1.341951 -0.397805 1.5 0 1.5 
z
" id="m4ff96a29ee" style="stroke:#ff7500;"/>
    </defs>
    <g>
     <use style="fill:#ff7500;stroke:#ff7500;" x="316.544439" xlink:href="#m4ff96a29ee" y="235.109647"/>
     <use style="fill:#ff7500;stroke:#ff7500;" x="316.544439" xlink:href="#m4ff96a29ee" y="235.109647"/>
    </g>
   </g>
   <g id="line2d_45">
    <path d="M 109.756698 298.944 
L 109.756698 297.880094 
L 110.674517 297.880094 
L 110.674517 297.170824 
L 111.762192 297.170824 
L 111.762192 294.688376 
L 115.050503 294.688376 
L 115.050503 292.205929 
L 115.227139 292.205929 
L 115.227139 291.496659 
L 115.747307 291.496659 
L 115.747307 287.950306 
L 116.086263 287.950306 
L 116.086263 286.531765 
L 119.319033 286.531765 
L 119.319033 286.177129 
L 119.459944 286.177129 
L 119.459944 284.403953 
L 119.738639 284.403953 
L 119.738639 283.694682 
L 120.013265 283.694682 
L 120.013265 281.921506 
L 120.149089 281.921506 
L 120.149089 278.375153 
L 122.913079 278.375153 
L 122.913079 277.665882 
L 123.029559 277.665882 
L 123.029559 276.956612 
L 123.374735 276.956612 
L 123.374735 276.247341 
L 123.601383 276.247341 
L 123.601383 274.474165 
L 123.713691 274.474165 
L 123.713691 274.119529 
L 125.929373 274.119529 
L 125.929373 273.764894 
L 126.420564 273.764894 
L 126.420564 273.410259 
L 128.528195 273.410259 
L 128.528195 271.282447 
L 128.700779 271.282447 
L 128.700779 270.218541 
L 133.05244 270.218541 
L 133.05244 268.090729 
L 133.323114 268.090729 
L 133.323114 267.736094 
L 134.745971 267.736094 
L 134.808158 263.835106 
L 136.696795 263.835106 
L 136.696795 263.480471 
L 137.893309 263.480471 
L 137.998402 261.707294 
L 138.050729 261.707294 
L 138.050729 261.352659 
L 138.206842 261.352659 
L 138.206842 260.998024 
L 140.950542 260.998024 
L 140.950542 260.643388 
L 143.10641 260.643388 
L 143.10641 260.288753 
L 143.926981 260.288753 
L 143.926981 258.515576 
L 148.815343 258.515576 
L 148.815343 258.160941 
L 149.707872 258.160941 
L 149.707872 257.806306 
L 155.18278 257.806306 
L 155.18278 257.451671 
L 159.367841 257.451671 
L 159.384659 256.033129 
L 162.8032 256.033129 
L 162.8032 255.678494 
L 173.084536 255.678494 
L 173.084536 255.323859 
L 174.393216 255.323859 
L 174.393216 254.969224 
L 175.567027 254.969224 
L 175.567027 254.614588 
L 185.247437 254.614588 
L 185.247437 254.259953 
L 189.474849 254.259953 
L 189.474849 253.905318 
L 191.025449 253.905318 
L 191.025449 253.550682 
L 203.804867 253.550682 
L 203.804867 253.196047 
L 204.061496 253.196047 
L 204.061496 252.841412 
L 207.101521 252.841412 
L 207.101521 252.486776 
L 207.715344 252.486776 
L 207.715344 252.132141 
L 215.872209 252.132141 
L 215.872209 251.777506 
L 221.562319 251.777506 
L 221.562319 251.422871 
L 222.150674 251.422871 
L 222.150674 251.068235 
L 224.566342 251.068235 
L 224.566342 250.7136 
L 224.902942 250.7136 
L 224.902942 250.358965 
L 225.372146 250.358965 
L 225.372649 249.649694 
L 226.921412 249.649694 
L 226.921412 249.295059 
L 231.098202 249.295059 
L 231.098202 248.940424 
L 231.716887 248.940424 
L 231.716887 248.585788 
L 233.205794 248.585788 
L 233.205794 248.231153 
L 239.015031 248.231153 
L 239.015031 247.521882 
L 241.034961 247.521882 
L 241.034961 247.167247 
L 244.076536 247.167247 
L 244.076536 246.812612 
L 245.007458 246.812612 
L 245.007458 246.103341 
L 246.017581 246.103341 
L 246.017581 245.748706 
L 249.053699 245.748706 
L 249.053699 245.394071 
L 249.749827 245.394071 
L 249.749827 245.039435 
L 251.612863 245.039435 
L 251.612863 244.6848 
L 254.659894 244.6848 
L 254.659894 243.975529 
L 257.461927 243.975529 
L 257.461927 243.620894 
L 258.031994 243.620894 
L 258.046455 242.911624 
L 260.167404 242.911624 
L 260.167404 242.556988 
L 261.318344 242.556988 
L 261.318344 241.847718 
L 263.081416 241.847718 
L 263.081416 241.493082 
L 264.919659 241.493082 
L 264.919659 241.138447 
L 266.781757 241.138447 
L 266.781757 240.783812 
L 268.877982 240.783812 
L 268.877982 240.429176 
L 270.029374 240.429176 
L 270.029374 240.074541 
L 271.626148 240.074541 
L 271.626148 239.719906 
L 272.299056 239.719906 
L 272.299056 239.010635 
L 272.477378 239.010635 
L 272.477378 238.656 
L 279.187036 238.656 
L 279.187036 237.946729 
L 281.870128 237.946729 
L 281.870128 237.592094 
L 284.217865 237.592094 
L 284.217865 236.882824 
L 288.183234 236.882824 
L 288.183234 236.528188 
L 289.890974 236.528188 
L 289.890974 236.173553 
L 299.809312 236.173553 
L 299.809312 235.818918 
L 304.098682 235.818918 
L 304.098682 235.464282 
L 316.544439 235.464282 
L 316.544439 235.109647 
L 360.8064 235.109647 
L 360.8064 235.109647 
" style="fill:none;stroke:#ff7500;stroke-linecap:square;stroke-width:1.5;"/>
   </g>
   <g id="line2d_46">
    <defs>
     <path d="M 0 -6 
L -1.347084 -1.854102 
L -5.706339 -1.854102 
L -2.179628 0.708204 
L -3.526712 4.854102 
L -0 2.291796 
L 3.526712 4.854102 
L 2.179628 0.708204 
L 5.706339 -1.854102 
L 1.347084 -1.854102 
z
" id="ma0daeb4735" style="stroke:#ff7500;stroke-linejoin:bevel;stroke-width:1.5;"/>
    </defs>
    <g>
     <use style="fill-opacity:0;stroke:#ff7500;stroke-linejoin:bevel;stroke-width:1.5;" x="162.8032" xlink:href="#ma0daeb4735" y="255.678494"/>
     <use style="fill-opacity:0;stroke:#ff7500;stroke-linejoin:bevel;stroke-width:1.5;" x="233.205794" xlink:href="#ma0daeb4735" y="248.231153"/>
     <use style="fill-opacity:0;stroke:#ff7500;stroke-linejoin:bevel;stroke-width:1.5;" x="316.544439" xlink:href="#ma0daeb4735" y="235.464282"/>
     <use style="fill-opacity:0;stroke:#ff7500;stroke-linejoin:bevel;stroke-width:1.5;" x="316.544439" xlink:href="#ma0daeb4735" y="235.109647"/>
     <use style="fill-opacity:0;stroke:#ff7500;stroke-linejoin:bevel;stroke-width:1.5;" x="360.8064" xlink:href="#ma0daeb4735" y="235.109647"/>
    </g>
   </g>
   <g id="line2d_47">
    <path style="fill:none;stroke:#ff7500;stroke-linecap:square;stroke-width:1.5;"/>
    <g/>
   </g>
   <g id="line2d_48">
    <path clip-path="url(#p27fbb42e26)" d="M 243.909002 247.167247 
" style="fill:none;stroke:#ff7500;stroke-linecap:square;stroke-width:1.5;"/>
    <defs>
     <path d="M -12 12 
L 12 -12 
M -12 -12 
L 12 12 
" id="m04178264ca" style="stroke:#ff7500;"/>
    </defs>
    <g clip-path="url(#p27fbb42e26)">
     <use style="fill:#ff7500;stroke:#ff7500;" x="243.909002" xlink:href="#m04178264ca" y="247.167247"/>
    </g>
   </g>
   <g id="line2d_49">
    <path d="M 360.8064 235.109647 
L 380.514816 293.51808 
" style="fill:none;stroke:#ff7500;stroke-linecap:square;stroke-width:1.5;"/>
    <g>
     <use style="fill-opacity:0;stroke:#ff7500;stroke-linejoin:bevel;stroke-width:1.5;" x="360.8064" xlink:href="#ma0daeb4735" y="235.109647"/>
     <use style="fill-opacity:0;stroke:#ff7500;stroke-linejoin:bevel;stroke-width:1.5;" x="380.514816" xlink:href="#ma0daeb4735" y="293.51808"/>
    </g>
   </g>
   <g id="line2d_50">
    <path d="M 360.8064 235.109647 
L 380.514816 206.70336 
" style="fill:none;stroke:#ff00ff;stroke-linecap:square;stroke-width:1.5;"/>
    <g>
     <use style="fill-opacity:0;stroke:#ff00ff;stroke-linejoin:miter;stroke-width:1.5;" x="360.8064" xlink:href="#m28864497ef" y="235.109647"/>
     <use style="fill-opacity:0;stroke:#ff00ff;stroke-linejoin:miter;stroke-width:1.5;" x="380.514816" xlink:href="#m28864497ef" y="206.70336"/>
    </g>
   </g>
   <g id="line2d_51">
    <path d="M 360.8064 27.648 
L 380.514816 119.88864 
" style="fill:none;stroke:#000080;stroke-linecap:square;stroke-width:1.5;"/>
    <g>
     <use style="fill-opacity:0;stroke:#000080;stroke-width:1.5;" x="360.8064" xlink:href="#me17c2281f6" y="27.648"/>
     <use style="fill-opacity:0;stroke:#000080;stroke-width:1.5;" x="380.514816" xlink:href="#me17c2281f6" y="119.88864"/>
    </g>
   </g>
   <g id="line2d_52">
    <path d="M 360.8064 298.944 
L 360.8064 27.648 
" style="fill:none;stroke:#000000;stroke-linecap:square;stroke-width:1.5;"/>
   </g>
   <g id="patch_3">
    <path d="M 57.6 298.944 
L 360.8064 298.944 
" style="fill:none;stroke:#000000;stroke-linecap:square;stroke-linejoin:miter;stroke-width:0.8;"/>
   </g>
   <g id="patch_4">
    <path d="M 57.6 27.648 
L 360.8064 27.648 
" style="fill:none;stroke:#000000;stroke-linecap:square;stroke-linejoin:miter;stroke-width:0.8;"/>
   </g>
   <g id="text_13">
    <!-- diffcma b -->
    <g transform="translate(386.578944 297.381205)scale(0.14 -0.14)">
     <defs>
      <path d="M 3116 1747 
Q 3116 2381 2855 2742 
Q 2594 3103 2138 3103 
Q 1681 3103 1420 2742 
Q 1159 2381 1159 1747 
Q 1159 1113 1420 752 
Q 1681 391 2138 391 
Q 2594 391 2855 752 
Q 3116 1113 3116 1747 
z
M 1159 2969 
Q 1341 3281 1617 3432 
Q 1894 3584 2278 3584 
Q 2916 3584 3314 3078 
Q 3713 2572 3713 1747 
Q 3713 922 3314 415 
Q 2916 -91 2278 -91 
Q 1894 -91 1617 61 
Q 1341 213 1159 525 
L 1159 0 
L 581 0 
L 581 4863 
L 1159 4863 
L 1159 2969 
z
" id="DejaVuSans-62" transform="scale(0.015625)"/>
     </defs>
     <use xlink:href="#DejaVuSans-64"/>
     <use x="63.476562" xlink:href="#DejaVuSans-69"/>
     <use x="91.259766" xlink:href="#DejaVuSans-66"/>
     <use x="126.464844" xlink:href="#DejaVuSans-66"/>
     <use x="161.669922" xlink:href="#DejaVuSans-63"/>
     <use x="216.650391" xlink:href="#DejaVuSans-6d"/>
     <use x="314.0625" xlink:href="#DejaVuSans-61"/>
     <use x="375.341797" xlink:href="#DejaVuSans-20"/>
     <use x="407.128906" xlink:href="#DejaVuSans-62"/>
    </g>
   </g>
   <g id="text_14">
    <!-- cma.fmin  -->
    <g transform="translate(386.578944 210.566485)scale(0.14 -0.14)">
     <use xlink:href="#DejaVuSans-63"/>
     <use x="54.980469" xlink:href="#DejaVuSans-6d"/>
     <use x="152.392578" xlink:href="#DejaVuSans-61"/>
     <use x="213.671875" xlink:href="#DejaVuSans-2e"/>
     <use x="245.458984" xlink:href="#DejaVuSans-66"/>
     <use x="280.664062" xlink:href="#DejaVuSans-6d"/>
     <use x="378.076172" xlink:href="#DejaVuSans-69"/>
     <use x="405.859375" xlink:href="#DejaVuSans-6e"/>
     <use x="469.238281" xlink:href="#DejaVuSans-20"/>
    </g>
   </g>
   <g id="text_15">
    <!-- different -->
    <g transform="translate(386.578944 123.751765)scale(0.14 -0.14)">
     <use xlink:href="#DejaVuSans-64"/>
     <use x="63.476562" xlink:href="#DejaVuSans-69"/>
     <use x="91.259766" xlink:href="#DejaVuSans-66"/>
     <use x="126.464844" xlink:href="#DejaVuSans-66"/>
     <use x="161.669922" xlink:href="#DejaVuSans-65"/>
     <use x="223.193359" xlink:href="#DejaVuSans-72"/>
     <use x="262.056641" xlink:href="#DejaVuSans-65"/>
     <use x="323.580078" xlink:href="#DejaVuSans-6e"/>
     <use x="386.958984" xlink:href="#DejaVuSans-74"/>
    </g>
   </g>
   <g id="text_16">
    <!-- best 2009 -->
    <g transform="translate(386.578944 36.937045)scale(0.14 -0.14)">
     <defs>
      <path d="M 703 97 
L 703 672 
Q 941 559 1184 500 
Q 1428 441 1663 441 
Q 2288 441 2617 861 
Q 2947 1281 2994 2138 
Q 2813 1869 2534 1725 
Q 2256 1581 1919 1581 
Q 1219 1581 811 2004 
Q 403 2428 403 3163 
Q 403 3881 828 4315 
Q 1253 4750 1959 4750 
Q 2769 4750 3195 4129 
Q 3622 3509 3622 2328 
Q 3622 1225 3098 567 
Q 2575 -91 1691 -91 
Q 1453 -91 1209 -44 
Q 966 3 703 97 
z
M 1959 2075 
Q 2384 2075 2632 2365 
Q 2881 2656 2881 3163 
Q 2881 3666 2632 3958 
Q 2384 4250 1959 4250 
Q 1534 4250 1286 3958 
Q 1038 3666 1038 3163 
Q 1038 2656 1286 2365 
Q 1534 2075 1959 2075 
z
" id="DejaVuSans-39" transform="scale(0.015625)"/>
     </defs>
     <use xlink:href="#DejaVuSans-62"/>
     <use x="63.476562" xlink:href="#DejaVuSans-65"/>
     <use x="125" xlink:href="#DejaVuSans-73"/>
     <use x="177.099609" xlink:href="#DejaVuSans-74"/>
     <use x="216.308594" xlink:href="#DejaVuSans-20"/>
     <use x="248.095703" xlink:href="#DejaVuSans-32"/>
     <use x="311.71875" xlink:href="#DejaVuSans-30"/>
     <use x="375.341797" xlink:href="#DejaVuSans-30"/>
     <use x="438.964844" xlink:href="#DejaVuSans-39"/>
    </g>
   </g>
   <g id="text_17">
    <!-- bbob f20, 5-D -->
    <g transform="translate(60.632064 38.111366)scale(0.102 -0.102)">
     <defs>
      <path d="M 691 4666 
L 3169 4666 
L 3169 4134 
L 1269 4134 
L 1269 2991 
Q 1406 3038 1543 3061 
Q 1681 3084 1819 3084 
Q 2600 3084 3056 2656 
Q 3513 2228 3513 1497 
Q 3513 744 3044 326 
Q 2575 -91 1722 -91 
Q 1428 -91 1123 -41 
Q 819 9 494 109 
L 494 744 
Q 775 591 1075 516 
Q 1375 441 1709 441 
Q 2250 441 2565 725 
Q 2881 1009 2881 1497 
Q 2881 1984 2565 2268 
Q 2250 2553 1709 2553 
Q 1456 2553 1204 2497 
Q 953 2441 691 2322 
L 691 4666 
z
" id="DejaVuSans-35" transform="scale(0.015625)"/>
      <path d="M 1259 4147 
L 1259 519 
L 2022 519 
Q 2988 519 3436 956 
Q 3884 1394 3884 2338 
Q 3884 3275 3436 3711 
Q 2988 4147 2022 4147 
L 1259 4147 
z
M 628 4666 
L 1925 4666 
Q 3281 4666 3915 4102 
Q 4550 3538 4550 2338 
Q 4550 1131 3912 565 
Q 3275 0 1925 0 
L 628 0 
L 628 4666 
z
" id="DejaVuSans-44" transform="scale(0.015625)"/>
     </defs>
     <use xlink:href="#DejaVuSans-62"/>
     <use x="63.476562" xlink:href="#DejaVuSans-62"/>
     <use x="126.953125" xlink:href="#DejaVuSans-6f"/>
     <use x="188.134766" xlink:href="#DejaVuSans-62"/>
     <use x="251.611328" xlink:href="#DejaVuSans-20"/>
     <use x="283.398438" xlink:href="#DejaVuSans-66"/>
     <use x="318.603516" xlink:href="#DejaVuSans-32"/>
     <use x="382.226562" xlink:href="#DejaVuSans-30"/>
     <use x="445.849609" xlink:href="#DejaVuSans-2c"/>
     <use x="477.636719" xlink:href="#DejaVuSans-20"/>
     <use x="509.423828" xlink:href="#DejaVuSans-35"/>
     <use x="573.046875" xlink:href="#DejaVuSans-2d"/>
     <use x="609.130859" xlink:href="#DejaVuSans-44"/>
    </g>
    <!-- 51 targets: 100..1e-08 -->
    <g transform="translate(60.632064 49.533135)scale(0.102 -0.102)">
     <defs>
      <path d="M 750 794 
L 1409 794 
L 1409 0 
L 750 0 
L 750 794 
z
M 750 3309 
L 1409 3309 
L 1409 2516 
L 750 2516 
L 750 3309 
z
" id="DejaVuSans-3a" transform="scale(0.015625)"/>
     </defs>
     <use xlink:href="#DejaVuSans-35"/>
     <use x="63.623047" xlink:href="#DejaVuSans-31"/>
     <use x="127.246094" xlink:href="#DejaVuSans-20"/>
     <use x="159.033203" xlink:href="#DejaVuSans-74"/>
     <use x="198.242188" xlink:href="#DejaVuSans-61"/>
     <use x="259.521484" xlink:href="#DejaVuSans-72"/>
     <use x="298.884766" xlink:href="#DejaVuSans-67"/>
     <use x="362.361328" xlink:href="#DejaVuSans-65"/>
     <use x="423.884766" xlink:href="#DejaVuSans-74"/>
     <use x="463.09375" xlink:href="#DejaVuSans-73"/>
     <use x="515.193359" xlink:href="#DejaVuSans-3a"/>
     <use x="548.884766" xlink:href="#DejaVuSans-20"/>
     <use x="580.671875" xlink:href="#DejaVuSans-31"/>
     <use x="644.294922" xlink:href="#DejaVuSans-30"/>
     <use x="707.917969" xlink:href="#DejaVuSans-30"/>
     <use x="771.541016" xlink:href="#DejaVuSans-2e"/>
     <use x="803.328125" xlink:href="#DejaVuSans-2e"/>
     <use x="835.115234" xlink:href="#DejaVuSans-31"/>
     <use x="898.738281" xlink:href="#DejaVuSans-65"/>
     <use x="960.261719" xlink:href="#DejaVuSans-2d"/>
     <use x="996.345703" xlink:href="#DejaVuSans-30"/>
     <use x="1059.96875" xlink:href="#DejaVuSans-38"/>
    </g>
    <!-- 15 instances -->
    <g transform="translate(60.632064 60.954904)scale(0.102 -0.102)">
     <use xlink:href="#DejaVuSans-31"/>
     <use x="63.623047" xlink:href="#DejaVuSans-35"/>
     <use x="127.246094" xlink:href="#DejaVuSans-20"/>
     <use x="159.033203" xlink:href="#DejaVuSans-69"/>
     <use x="186.816406" xlink:href="#DejaVuSans-6e"/>
     <use x="250.195312" xlink:href="#DejaVuSans-73"/>
     <use x="302.294922" xlink:href="#DejaVuSans-74"/>
     <use x="341.503906" xlink:href="#DejaVuSans-61"/>
     <use x="402.783203" xlink:href="#DejaVuSans-6e"/>
     <use x="466.162109" xlink:href="#DejaVuSans-63"/>
     <use x="521.142578" xlink:href="#DejaVuSans-65"/>
     <use x="582.666016" xlink:href="#DejaVuSans-73"/>
    </g>
   </g>
   <g id="text_18">
    <!-- v2.6 -->
    <g style="fill:#808080;" transform="translate(198.292262 294.151352)scale(0.1 -0.1)">
     <use xlink:href="#DejaVuSans-76"/>
     <use x="59.179688" xlink:href="#DejaVuSans-32"/>
     <use x="122.802734" xlink:href="#DejaVuSans-2e"/>
     <use x="154.589844" xlink:href="#DejaVuSans-36"/>
    </g>
   </g>
   <g id="text_19">
    <!-- 20 Schwefel x*sin(x) -->
    <g transform="translate(106.189137 21.648)scale(0.2 -0.2)">
     <defs>
      <path d="M 3425 4513 
L 3425 3897 
Q 3066 4069 2747 4153 
Q 2428 4238 2131 4238 
Q 1616 4238 1336 4038 
Q 1056 3838 1056 3469 
Q 1056 3159 1242 3001 
Q 1428 2844 1947 2747 
L 2328 2669 
Q 3034 2534 3370 2195 
Q 3706 1856 3706 1288 
Q 3706 609 3251 259 
Q 2797 -91 1919 -91 
Q 1588 -91 1214 -16 
Q 841 59 441 206 
L 441 856 
Q 825 641 1194 531 
Q 1563 422 1919 422 
Q 2459 422 2753 634 
Q 3047 847 3047 1241 
Q 3047 1584 2836 1778 
Q 2625 1972 2144 2069 
L 1759 2144 
Q 1053 2284 737 2584 
Q 422 2884 422 3419 
Q 422 4038 858 4394 
Q 1294 4750 2059 4750 
Q 2388 4750 2728 4690 
Q 3069 4631 3425 4513 
z
" id="DejaVuSans-53" transform="scale(0.015625)"/>
      <path d="M 3513 2113 
L 3513 0 
L 2938 0 
L 2938 2094 
Q 2938 2591 2744 2837 
Q 2550 3084 2163 3084 
Q 1697 3084 1428 2787 
Q 1159 2491 1159 1978 
L 1159 0 
L 581 0 
L 581 4863 
L 1159 4863 
L 1159 2956 
Q 1366 3272 1645 3428 
Q 1925 3584 2291 3584 
Q 2894 3584 3203 3211 
Q 3513 2838 3513 2113 
z
" id="DejaVuSans-68" transform="scale(0.015625)"/>
      <path d="M 269 3500 
L 844 3500 
L 1563 769 
L 2278 3500 
L 2956 3500 
L 3675 769 
L 4391 3500 
L 4966 3500 
L 4050 0 
L 3372 0 
L 2619 2869 
L 1863 0 
L 1184 0 
L 269 3500 
z
" id="DejaVuSans-77" transform="scale(0.015625)"/>
      <path d="M 3513 3500 
L 2247 1797 
L 3578 0 
L 2900 0 
L 1881 1375 
L 863 0 
L 184 0 
L 1544 1831 
L 300 3500 
L 978 3500 
L 1906 2253 
L 2834 3500 
L 3513 3500 
z
" id="DejaVuSans-78" transform="scale(0.015625)"/>
      <path d="M 3009 3897 
L 1888 3291 
L 3009 2681 
L 2828 2375 
L 1778 3009 
L 1778 1831 
L 1422 1831 
L 1422 3009 
L 372 2375 
L 191 2681 
L 1313 3291 
L 191 3897 
L 372 4206 
L 1422 3572 
L 1422 4750 
L 1778 4750 
L 1778 3572 
L 2828 4206 
L 3009 3897 
z
" id="DejaVuSans-2a" transform="scale(0.015625)"/>
     </defs>
     <use xlink:href="#DejaVuSans-32"/>
     <use x="63.623047" xlink:href="#DejaVuSans-30"/>
     <use x="127.246094" xlink:href="#DejaVuSans-20"/>
     <use x="159.033203" xlink:href="#DejaVuSans-53"/>
     <use x="222.509766" xlink:href="#DejaVuSans-63"/>
     <use x="277.490234" xlink:href="#DejaVuSans-68"/>
     <use x="340.869141" xlink:href="#DejaVuSans-77"/>
     <use x="422.65625" xlink:href="#DejaVuSans-65"/>
     <use x="484.179688" xlink:href="#DejaVuSans-66"/>
     <use x="519.384766" xlink:href="#DejaVuSans-65"/>
     <use x="580.908203" xlink:href="#DejaVuSans-6c"/>
     <use x="608.691406" xlink:href="#DejaVuSans-20"/>
     <use x="640.478516" xlink:href="#DejaVuSans-78"/>
     <use x="699.658203" xlink:href="#DejaVuSans-2a"/>
     <use x="749.658203" xlink:href="#DejaVuSans-73"/>
     <use x="801.757812" xlink:href="#DejaVuSans-69"/>
     <use x="829.541016" xlink:href="#DejaVuSans-6e"/>
     <use x="892.919922" xlink:href="#DejaVuSans-28"/>
     <use x="931.933594" xlink:href="#DejaVuSans-78"/>
     <use x="991.113281" xlink:href="#DejaVuSans-29"/>
    </g>
   </g>
  </g>
 </g>
 <defs>
  <clipPath id="p27fbb42e26">
   <rect height="271.296" width="303.2064" x="57.6" y="27.648"/>
  </clipPath>
 </defs>
</svg>
