<?xml version="1.0" encoding="utf-8" standalone="no"?>
<!DOCTYPE svg PUBLIC "-//W3C//DTD SVG 1.1//EN"
  "http://www.w3.org/Graphics/SVG/1.1/DTD/svg11.dtd">
<svg height="345.6pt" version="1.1" viewBox="0 0 460.8 345.6" width="460.8pt" xmlns="http://www.w3.org/2000/svg" xmlns:xlink="http://www.w3.org/1999/xlink">
 <metadata>
  <rdf:RDF xmlns:cc="http://creativecommons.org/ns#" xmlns:dc="http://purl.org/dc/elements/1.1/" xmlns:rdf="http://www.w3.org/1999/02/22-rdf-syntax-ns#">
   <cc:Work>
    <dc:type rdf:resource="http://purl.org/dc/dcmitype/StillImage"/>
    <dc:date>2022-05-07T21:25:55.484912</dc:date>
    <dc:format>image/svg+xml</dc:format>
    <dc:creator>
     <cc:Agent>
      <dc:title>Matplotlib v3.4.3, https://matplotlib.org/</dc:title>
     </cc:Agent>
    </dc:creator>
   </cc:Work>
  </rdf:RDF>
 </metadata>
 <defs>
  <style type="text/css">*{stroke-linecap:butt;stroke-linejoin:round;}</style>
 </defs>
 <g id="figure_1">
  <g id="patch_1">
   <path d="M 0 345.6 
L 460.8 345.6 
L 460.8 0 
L 0 0 
z
" style="fill:#ffffff;"/>
  </g>
  <g id="axes_1">
   <g id="patch_2">
    <path d="M 57.6 298.944 
L 360.8064 298.944 
L 360.8064 27.648 
L 57.6 27.648 
z
" style="fill:#ffffff;"/>
   </g>
   <g id="line2d_1">
    <path d="M 36.933397 298.944 
L 36.933397 288.304941 
L 57.6 288.304941 
L 57.6 282.985412 
L 67.209423 282.985412 
L 67.209423 277.665882 
L 78.266603 277.665882 
L 78.266603 272.346353 
L 91.305777 272.346353 
L 91.305777 267.026824 
L 102.708132 267.026824 
L 102.708132 261.707294 
L 114.571202 261.707294 
L 114.571202 256.387765 
L 120.506564 256.387765 
L 120.506564 251.068235 
L 131.065395 251.068235 
L 131.065395 245.748706 
L 133.545739 245.748706 
L 133.545739 240.429176 
L 145.503164 240.429176 
L 145.503164 235.109647 
L 146.136998 235.109647 
L 146.136998 229.790118 
L 146.193574 229.790118 
L 146.193574 224.470588 
L 147.130214 224.470588 
L 147.130214 219.151059 
L 147.343984 219.151059 
L 147.343984 213.831529 
L 147.449964 213.831529 
L 147.449964 208.512 
L 147.502732 208.512 
L 147.502732 203.192471 
L 147.555352 203.192471 
L 147.555352 197.872941 
L 147.607824 197.872941 
L 147.607824 192.553412 
L 147.764371 192.553412 
L 147.764371 187.233882 
L 147.816265 187.233882 
L 147.816265 181.914353 
L 147.868016 181.914353 
L 147.868016 176.594824 
L 148.073609 176.594824 
L 148.073609 171.275294 
L 148.775988 171.275294 
L 148.775988 165.955765 
L 148.874221 165.955765 
L 148.874221 160.636235 
L 149.117582 160.636235 
L 149.117582 155.316706 
L 149.165879 155.316706 
L 149.165879 149.997176 
L 149.214052 149.997176 
L 149.214052 144.677647 
L 149.31003 144.677647 
L 149.31003 139.358118 
L 149.40552 139.358118 
L 149.40552 134.038588 
L 149.453084 134.038588 
L 149.453084 123.399529 
L 149.547853 123.399529 
L 149.547853 118.08 
L 149.689117 118.08 
L 149.689117 107.440941 
L 149.782707 107.440941 
L 149.782707 102.121412 
L 149.875833 102.121412 
L 149.875833 96.801882 
L 149.922224 96.801882 
L 149.922224 91.482353 
L 150.014665 91.482353 
L 150.014665 86.162824 
L 150.060715 86.162824 
L 150.060715 80.843294 
L 150.106653 80.843294 
L 150.106653 75.523765 
L 150.152479 75.523765 
L 150.152479 70.204235 
L 150.198193 70.204235 
L 150.198193 64.884706 
L 150.243797 64.884706 
L 150.243797 59.565176 
L 150.289291 59.565176 
L 150.289291 54.245647 
L 150.334674 54.245647 
L 150.334674 48.926118 
L 150.425115 48.926118 
L 150.425115 38.287059 
L 150.470172 38.287059 
L 150.470172 32.967529 
L 153.344252 32.967529 
L 153.344252 27.648 
L 360.8064 27.648 
" style="fill:none;stroke:#f5deb3;stroke-linecap:square;stroke-width:4;"/>
   </g>
   <g id="line2d_2">
    <defs>
     <path d="M -0 7.778175 
L 7.778175 0 
L 0 -7.778175 
L -7.778175 -0 
z
" id="m0e5a620de1" style="stroke:#f5deb3;stroke-linejoin:miter;stroke-width:1.5;"/>
    </defs>
    <g>
     <use style="fill:#f5deb3;stroke:#f5deb3;stroke-linejoin:miter;stroke-width:1.5;" x="131.065395" xlink:href="#m0e5a620de1" y="251.068235"/>
     <use style="fill:#f5deb3;stroke:#f5deb3;stroke-linejoin:miter;stroke-width:1.5;" x="149.40552" xlink:href="#m0e5a620de1" y="139.358118"/>
     <use style="fill:#f5deb3;stroke:#f5deb3;stroke-linejoin:miter;stroke-width:1.5;" x="153.344252" xlink:href="#m0e5a620de1" y="32.967529"/>
     <use style="fill:#f5deb3;stroke:#f5deb3;stroke-linejoin:miter;stroke-width:1.5;" x="153.344252" xlink:href="#m0e5a620de1" y="27.648"/>
     <use style="fill:#f5deb3;stroke:#f5deb3;stroke-linejoin:miter;stroke-width:1.5;" x="153.344252" xlink:href="#m0e5a620de1" y="27.648"/>
     <use style="fill:#f5deb3;stroke:#f5deb3;stroke-linejoin:miter;stroke-width:1.5;" x="360.8064" xlink:href="#m0e5a620de1" y="27.648"/>
    </g>
   </g>
   <g id="line2d_3">
    <path style="fill:none;stroke:#f5deb3;stroke-linecap:square;stroke-width:4;"/>
    <g/>
   </g>
   <g id="line2d_4">
    <path d="M 360.8064 27.648 
L 380.514816 33.07392 
" style="fill:none;stroke:#f5deb3;stroke-linecap:square;stroke-width:4;"/>
    <g>
     <use style="fill:#f5deb3;stroke:#f5deb3;stroke-linejoin:miter;stroke-width:1.5;" x="360.8064" xlink:href="#m0e5a620de1" y="27.648"/>
     <use style="fill:#f5deb3;stroke:#f5deb3;stroke-linejoin:miter;stroke-width:1.5;" x="380.514816" xlink:href="#m0e5a620de1" y="33.07392"/>
    </g>
   </g>
   <g id="matplotlib.axis_1">
    <g id="xtick_1">
     <g id="line2d_5">
      <path clip-path="url(#p7262ea0568)" d="M 57.6 298.944 
L 57.6 27.648 
" style="fill:none;stroke:#b0b0b0;stroke-linecap:square;stroke-width:0.8;"/>
     </g>
     <g id="line2d_6">
      <defs>
       <path d="M 0 0 
L 0 3.5 
" id="m6d81f909ce" style="stroke:#000000;stroke-width:0.8;"/>
      </defs>
      <g>
       <use style="stroke:#000000;stroke-width:0.8;" x="57.6" xlink:href="#m6d81f909ce" y="298.944"/>
      </g>
     </g>
     <g id="text_1">
      <!-- 0 -->
      <g transform="translate(52.191875 318.861344)scale(0.17 -0.17)">
       <defs>
        <path d="M 2034 4250 
Q 1547 4250 1301 3770 
Q 1056 3291 1056 2328 
Q 1056 1369 1301 889 
Q 1547 409 2034 409 
Q 2525 409 2770 889 
Q 3016 1369 3016 2328 
Q 3016 3291 2770 3770 
Q 2525 4250 2034 4250 
z
M 2034 4750 
Q 2819 4750 3233 4129 
Q 3647 3509 3647 2328 
Q 3647 1150 3233 529 
Q 2819 -91 2034 -91 
Q 1250 -91 836 529 
Q 422 1150 422 2328 
Q 422 3509 836 4129 
Q 1250 4750 2034 4750 
z
" id="DejaVuSans-30" transform="scale(0.015625)"/>
       </defs>
       <use xlink:href="#DejaVuSans-30"/>
      </g>
     </g>
    </g>
    <g id="xtick_2">
     <g id="line2d_7">
      <path clip-path="url(#p7262ea0568)" d="M 144.2304 298.944 
L 144.2304 27.648 
" style="fill:none;stroke:#b0b0b0;stroke-linecap:square;stroke-width:0.8;"/>
     </g>
     <g id="line2d_8">
      <g>
       <use style="stroke:#000000;stroke-width:0.8;" x="144.2304" xlink:href="#m6d81f909ce" y="298.944"/>
      </g>
     </g>
     <g id="text_2">
      <!-- 2 -->
      <g transform="translate(138.822275 318.861344)scale(0.17 -0.17)">
       <defs>
        <path d="M 1228 531 
L 3431 531 
L 3431 0 
L 469 0 
L 469 531 
Q 828 903 1448 1529 
Q 2069 2156 2228 2338 
Q 2531 2678 2651 2914 
Q 2772 3150 2772 3378 
Q 2772 3750 2511 3984 
Q 2250 4219 1831 4219 
Q 1534 4219 1204 4116 
Q 875 4013 500 3803 
L 500 4441 
Q 881 4594 1212 4672 
Q 1544 4750 1819 4750 
Q 2544 4750 2975 4387 
Q 3406 4025 3406 3419 
Q 3406 3131 3298 2873 
Q 3191 2616 2906 2266 
Q 2828 2175 2409 1742 
Q 1991 1309 1228 531 
z
" id="DejaVuSans-32" transform="scale(0.015625)"/>
       </defs>
       <use xlink:href="#DejaVuSans-32"/>
      </g>
     </g>
    </g>
    <g id="xtick_3">
     <g id="line2d_9">
      <path clip-path="url(#p7262ea0568)" d="M 230.8608 298.944 
L 230.8608 27.648 
" style="fill:none;stroke:#b0b0b0;stroke-linecap:square;stroke-width:0.8;"/>
     </g>
     <g id="line2d_10">
      <g>
       <use style="stroke:#000000;stroke-width:0.8;" x="230.8608" xlink:href="#m6d81f909ce" y="298.944"/>
      </g>
     </g>
     <g id="text_3">
      <!-- 4 -->
      <g transform="translate(225.452675 318.861344)scale(0.17 -0.17)">
       <defs>
        <path d="M 2419 4116 
L 825 1625 
L 2419 1625 
L 2419 4116 
z
M 2253 4666 
L 3047 4666 
L 3047 1625 
L 3713 1625 
L 3713 1100 
L 3047 1100 
L 3047 0 
L 2419 0 
L 2419 1100 
L 313 1100 
L 313 1709 
L 2253 4666 
z
" id="DejaVuSans-34" transform="scale(0.015625)"/>
       </defs>
       <use xlink:href="#DejaVuSans-34"/>
      </g>
     </g>
    </g>
    <g id="xtick_4">
     <g id="line2d_11">
      <path clip-path="url(#p7262ea0568)" d="M 317.4912 298.944 
L 317.4912 27.648 
" style="fill:none;stroke:#b0b0b0;stroke-linecap:square;stroke-width:0.8;"/>
     </g>
     <g id="line2d_12">
      <g>
       <use style="stroke:#000000;stroke-width:0.8;" x="317.4912" xlink:href="#m6d81f909ce" y="298.944"/>
      </g>
     </g>
     <g id="text_4">
      <!-- 6 -->
      <g transform="translate(312.083075 318.861344)scale(0.17 -0.17)">
       <defs>
        <path d="M 2113 2584 
Q 1688 2584 1439 2293 
Q 1191 2003 1191 1497 
Q 1191 994 1439 701 
Q 1688 409 2113 409 
Q 2538 409 2786 701 
Q 3034 994 3034 1497 
Q 3034 2003 2786 2293 
Q 2538 2584 2113 2584 
z
M 3366 4563 
L 3366 3988 
Q 3128 4100 2886 4159 
Q 2644 4219 2406 4219 
Q 1781 4219 1451 3797 
Q 1122 3375 1075 2522 
Q 1259 2794 1537 2939 
Q 1816 3084 2150 3084 
Q 2853 3084 3261 2657 
Q 3669 2231 3669 1497 
Q 3669 778 3244 343 
Q 2819 -91 2113 -91 
Q 1303 -91 875 529 
Q 447 1150 447 2328 
Q 447 3434 972 4092 
Q 1497 4750 2381 4750 
Q 2619 4750 2861 4703 
Q 3103 4656 3366 4563 
z
" id="DejaVuSans-36" transform="scale(0.015625)"/>
       </defs>
       <use xlink:href="#DejaVuSans-36"/>
      </g>
     </g>
    </g>
    <g id="xtick_5">
     <g id="line2d_13">
      <path clip-path="url(#p7262ea0568)" d="M 100.9152 298.944 
L 100.9152 27.648 
" style="fill:none;stroke:#b0b0b0;stroke-linecap:square;stroke-width:0.8;"/>
     </g>
     <g id="line2d_14">
      <defs>
       <path d="M 0 0 
L 0 2 
" id="m0df71bf67a" style="stroke:#000000;stroke-width:0.6;"/>
      </defs>
      <g>
       <use style="stroke:#000000;stroke-width:0.6;" x="100.9152" xlink:href="#m0df71bf67a" y="298.944"/>
      </g>
     </g>
    </g>
    <g id="xtick_6">
     <g id="line2d_15">
      <path clip-path="url(#p7262ea0568)" d="M 187.5456 298.944 
L 187.5456 27.648 
" style="fill:none;stroke:#b0b0b0;stroke-linecap:square;stroke-width:0.8;"/>
     </g>
     <g id="line2d_16">
      <g>
       <use style="stroke:#000000;stroke-width:0.6;" x="187.5456" xlink:href="#m0df71bf67a" y="298.944"/>
      </g>
     </g>
    </g>
    <g id="xtick_7">
     <g id="line2d_17">
      <path clip-path="url(#p7262ea0568)" d="M 274.176 298.944 
L 274.176 27.648 
" style="fill:none;stroke:#b0b0b0;stroke-linecap:square;stroke-width:0.8;"/>
     </g>
     <g id="line2d_18">
      <g>
       <use style="stroke:#000000;stroke-width:0.6;" x="274.176" xlink:href="#m0df71bf67a" y="298.944"/>
      </g>
     </g>
    </g>
    <g id="xtick_8">
     <g id="line2d_19">
      <path clip-path="url(#p7262ea0568)" d="M 360.8064 298.944 
L 360.8064 27.648 
" style="fill:none;stroke:#b0b0b0;stroke-linecap:square;stroke-width:0.8;"/>
     </g>
     <g id="line2d_20">
      <g>
       <use style="stroke:#000000;stroke-width:0.6;" x="360.8064" xlink:href="#m0df71bf67a" y="298.944"/>
      </g>
     </g>
    </g>
    <g id="text_5">
     <!-- log10(# f-evals / dimension) -->
     <g transform="translate(88.823278 339.314156)scale(0.17 -0.17)">
      <defs>
       <path d="M 603 4863 
L 1178 4863 
L 1178 0 
L 603 0 
L 603 4863 
z
" id="DejaVuSans-6c" transform="scale(0.015625)"/>
       <path d="M 1959 3097 
Q 1497 3097 1228 2736 
Q 959 2375 959 1747 
Q 959 1119 1226 758 
Q 1494 397 1959 397 
Q 2419 397 2687 759 
Q 2956 1122 2956 1747 
Q 2956 2369 2687 2733 
Q 2419 3097 1959 3097 
z
M 1959 3584 
Q 2709 3584 3137 3096 
Q 3566 2609 3566 1747 
Q 3566 888 3137 398 
Q 2709 -91 1959 -91 
Q 1206 -91 779 398 
Q 353 888 353 1747 
Q 353 2609 779 3096 
Q 1206 3584 1959 3584 
z
" id="DejaVuSans-6f" transform="scale(0.015625)"/>
       <path d="M 2906 1791 
Q 2906 2416 2648 2759 
Q 2391 3103 1925 3103 
Q 1463 3103 1205 2759 
Q 947 2416 947 1791 
Q 947 1169 1205 825 
Q 1463 481 1925 481 
Q 2391 481 2648 825 
Q 2906 1169 2906 1791 
z
M 3481 434 
Q 3481 -459 3084 -895 
Q 2688 -1331 1869 -1331 
Q 1566 -1331 1297 -1286 
Q 1028 -1241 775 -1147 
L 775 -588 
Q 1028 -725 1275 -790 
Q 1522 -856 1778 -856 
Q 2344 -856 2625 -561 
Q 2906 -266 2906 331 
L 2906 616 
Q 2728 306 2450 153 
Q 2172 0 1784 0 
Q 1141 0 747 490 
Q 353 981 353 1791 
Q 353 2603 747 3093 
Q 1141 3584 1784 3584 
Q 2172 3584 2450 3431 
Q 2728 3278 2906 2969 
L 2906 3500 
L 3481 3500 
L 3481 434 
z
" id="DejaVuSans-67" transform="scale(0.015625)"/>
       <path d="M 794 531 
L 1825 531 
L 1825 4091 
L 703 3866 
L 703 4441 
L 1819 4666 
L 2450 4666 
L 2450 531 
L 3481 531 
L 3481 0 
L 794 0 
L 794 531 
z
" id="DejaVuSans-31" transform="scale(0.015625)"/>
       <path d="M 1984 4856 
Q 1566 4138 1362 3434 
Q 1159 2731 1159 2009 
Q 1159 1288 1364 580 
Q 1569 -128 1984 -844 
L 1484 -844 
Q 1016 -109 783 600 
Q 550 1309 550 2009 
Q 550 2706 781 3412 
Q 1013 4119 1484 4856 
L 1984 4856 
z
" id="DejaVuSans-28" transform="scale(0.015625)"/>
       <path d="M 3272 2816 
L 2363 2816 
L 2100 1772 
L 3016 1772 
L 3272 2816 
z
M 2803 4594 
L 2478 3297 
L 3391 3297 
L 3719 4594 
L 4219 4594 
L 3897 3297 
L 4872 3297 
L 4872 2816 
L 3775 2816 
L 3519 1772 
L 4513 1772 
L 4513 1294 
L 3397 1294 
L 3072 0 
L 2572 0 
L 2894 1294 
L 1978 1294 
L 1656 0 
L 1153 0 
L 1478 1294 
L 494 1294 
L 494 1772 
L 1594 1772 
L 1856 2816 
L 850 2816 
L 850 3297 
L 1978 3297 
L 2297 4594 
L 2803 4594 
z
" id="DejaVuSans-23" transform="scale(0.015625)"/>
       <path id="DejaVuSans-20" transform="scale(0.015625)"/>
       <path d="M 2375 4863 
L 2375 4384 
L 1825 4384 
Q 1516 4384 1395 4259 
Q 1275 4134 1275 3809 
L 1275 3500 
L 2222 3500 
L 2222 3053 
L 1275 3053 
L 1275 0 
L 697 0 
L 697 3053 
L 147 3053 
L 147 3500 
L 697 3500 
L 697 3744 
Q 697 4328 969 4595 
Q 1241 4863 1831 4863 
L 2375 4863 
z
" id="DejaVuSans-66" transform="scale(0.015625)"/>
       <path d="M 313 2009 
L 1997 2009 
L 1997 1497 
L 313 1497 
L 313 2009 
z
" id="DejaVuSans-2d" transform="scale(0.015625)"/>
       <path d="M 3597 1894 
L 3597 1613 
L 953 1613 
Q 991 1019 1311 708 
Q 1631 397 2203 397 
Q 2534 397 2845 478 
Q 3156 559 3463 722 
L 3463 178 
Q 3153 47 2828 -22 
Q 2503 -91 2169 -91 
Q 1331 -91 842 396 
Q 353 884 353 1716 
Q 353 2575 817 3079 
Q 1281 3584 2069 3584 
Q 2775 3584 3186 3129 
Q 3597 2675 3597 1894 
z
M 3022 2063 
Q 3016 2534 2758 2815 
Q 2500 3097 2075 3097 
Q 1594 3097 1305 2825 
Q 1016 2553 972 2059 
L 3022 2063 
z
" id="DejaVuSans-65" transform="scale(0.015625)"/>
       <path d="M 191 3500 
L 800 3500 
L 1894 563 
L 2988 3500 
L 3597 3500 
L 2284 0 
L 1503 0 
L 191 3500 
z
" id="DejaVuSans-76" transform="scale(0.015625)"/>
       <path d="M 2194 1759 
Q 1497 1759 1228 1600 
Q 959 1441 959 1056 
Q 959 750 1161 570 
Q 1363 391 1709 391 
Q 2188 391 2477 730 
Q 2766 1069 2766 1631 
L 2766 1759 
L 2194 1759 
z
M 3341 1997 
L 3341 0 
L 2766 0 
L 2766 531 
Q 2569 213 2275 61 
Q 1981 -91 1556 -91 
Q 1019 -91 701 211 
Q 384 513 384 1019 
Q 384 1609 779 1909 
Q 1175 2209 1959 2209 
L 2766 2209 
L 2766 2266 
Q 2766 2663 2505 2880 
Q 2244 3097 1772 3097 
Q 1472 3097 1187 3025 
Q 903 2953 641 2809 
L 641 3341 
Q 956 3463 1253 3523 
Q 1550 3584 1831 3584 
Q 2591 3584 2966 3190 
Q 3341 2797 3341 1997 
z
" id="DejaVuSans-61" transform="scale(0.015625)"/>
       <path d="M 2834 3397 
L 2834 2853 
Q 2591 2978 2328 3040 
Q 2066 3103 1784 3103 
Q 1356 3103 1142 2972 
Q 928 2841 928 2578 
Q 928 2378 1081 2264 
Q 1234 2150 1697 2047 
L 1894 2003 
Q 2506 1872 2764 1633 
Q 3022 1394 3022 966 
Q 3022 478 2636 193 
Q 2250 -91 1575 -91 
Q 1294 -91 989 -36 
Q 684 19 347 128 
L 347 722 
Q 666 556 975 473 
Q 1284 391 1588 391 
Q 1994 391 2212 530 
Q 2431 669 2431 922 
Q 2431 1156 2273 1281 
Q 2116 1406 1581 1522 
L 1381 1569 
Q 847 1681 609 1914 
Q 372 2147 372 2553 
Q 372 3047 722 3315 
Q 1072 3584 1716 3584 
Q 2034 3584 2315 3537 
Q 2597 3491 2834 3397 
z
" id="DejaVuSans-73" transform="scale(0.015625)"/>
       <path d="M 1625 4666 
L 2156 4666 
L 531 -594 
L 0 -594 
L 1625 4666 
z
" id="DejaVuSans-2f" transform="scale(0.015625)"/>
       <path d="M 2906 2969 
L 2906 4863 
L 3481 4863 
L 3481 0 
L 2906 0 
L 2906 525 
Q 2725 213 2448 61 
Q 2172 -91 1784 -91 
Q 1150 -91 751 415 
Q 353 922 353 1747 
Q 353 2572 751 3078 
Q 1150 3584 1784 3584 
Q 2172 3584 2448 3432 
Q 2725 3281 2906 2969 
z
M 947 1747 
Q 947 1113 1208 752 
Q 1469 391 1925 391 
Q 2381 391 2643 752 
Q 2906 1113 2906 1747 
Q 2906 2381 2643 2742 
Q 2381 3103 1925 3103 
Q 1469 3103 1208 2742 
Q 947 2381 947 1747 
z
" id="DejaVuSans-64" transform="scale(0.015625)"/>
       <path d="M 603 3500 
L 1178 3500 
L 1178 0 
L 603 0 
L 603 3500 
z
M 603 4863 
L 1178 4863 
L 1178 4134 
L 603 4134 
L 603 4863 
z
" id="DejaVuSans-69" transform="scale(0.015625)"/>
       <path d="M 3328 2828 
Q 3544 3216 3844 3400 
Q 4144 3584 4550 3584 
Q 5097 3584 5394 3201 
Q 5691 2819 5691 2113 
L 5691 0 
L 5113 0 
L 5113 2094 
Q 5113 2597 4934 2840 
Q 4756 3084 4391 3084 
Q 3944 3084 3684 2787 
Q 3425 2491 3425 1978 
L 3425 0 
L 2847 0 
L 2847 2094 
Q 2847 2600 2669 2842 
Q 2491 3084 2119 3084 
Q 1678 3084 1418 2786 
Q 1159 2488 1159 1978 
L 1159 0 
L 581 0 
L 581 3500 
L 1159 3500 
L 1159 2956 
Q 1356 3278 1631 3431 
Q 1906 3584 2284 3584 
Q 2666 3584 2933 3390 
Q 3200 3197 3328 2828 
z
" id="DejaVuSans-6d" transform="scale(0.015625)"/>
       <path d="M 3513 2113 
L 3513 0 
L 2938 0 
L 2938 2094 
Q 2938 2591 2744 2837 
Q 2550 3084 2163 3084 
Q 1697 3084 1428 2787 
Q 1159 2491 1159 1978 
L 1159 0 
L 581 0 
L 581 3500 
L 1159 3500 
L 1159 2956 
Q 1366 3272 1645 3428 
Q 1925 3584 2291 3584 
Q 2894 3584 3203 3211 
Q 3513 2838 3513 2113 
z
" id="DejaVuSans-6e" transform="scale(0.015625)"/>
       <path d="M 513 4856 
L 1013 4856 
Q 1481 4119 1714 3412 
Q 1947 2706 1947 2009 
Q 1947 1309 1714 600 
Q 1481 -109 1013 -844 
L 513 -844 
Q 928 -128 1133 580 
Q 1338 1288 1338 2009 
Q 1338 2731 1133 3434 
Q 928 4138 513 4856 
z
" id="DejaVuSans-29" transform="scale(0.015625)"/>
      </defs>
      <use xlink:href="#DejaVuSans-6c"/>
      <use x="27.783203" xlink:href="#DejaVuSans-6f"/>
      <use x="88.964844" xlink:href="#DejaVuSans-67"/>
      <use x="152.441406" xlink:href="#DejaVuSans-31"/>
      <use x="216.064453" xlink:href="#DejaVuSans-30"/>
      <use x="279.6875" xlink:href="#DejaVuSans-28"/>
      <use x="318.701172" xlink:href="#DejaVuSans-23"/>
      <use x="402.490234" xlink:href="#DejaVuSans-20"/>
      <use x="434.277344" xlink:href="#DejaVuSans-66"/>
      <use x="463.982422" xlink:href="#DejaVuSans-2d"/>
      <use x="500.066406" xlink:href="#DejaVuSans-65"/>
      <use x="561.589844" xlink:href="#DejaVuSans-76"/>
      <use x="620.769531" xlink:href="#DejaVuSans-61"/>
      <use x="682.048828" xlink:href="#DejaVuSans-6c"/>
      <use x="709.832031" xlink:href="#DejaVuSans-73"/>
      <use x="761.931641" xlink:href="#DejaVuSans-20"/>
      <use x="793.71875" xlink:href="#DejaVuSans-2f"/>
      <use x="827.410156" xlink:href="#DejaVuSans-20"/>
      <use x="859.197266" xlink:href="#DejaVuSans-64"/>
      <use x="922.673828" xlink:href="#DejaVuSans-69"/>
      <use x="950.457031" xlink:href="#DejaVuSans-6d"/>
      <use x="1047.869141" xlink:href="#DejaVuSans-65"/>
      <use x="1109.392578" xlink:href="#DejaVuSans-6e"/>
      <use x="1172.771484" xlink:href="#DejaVuSans-73"/>
      <use x="1224.871094" xlink:href="#DejaVuSans-69"/>
      <use x="1252.654297" xlink:href="#DejaVuSans-6f"/>
      <use x="1313.835938" xlink:href="#DejaVuSans-6e"/>
      <use x="1377.214844" xlink:href="#DejaVuSans-29"/>
     </g>
    </g>
   </g>
   <g id="matplotlib.axis_2">
    <g id="ytick_1">
     <g id="line2d_21">
      <path clip-path="url(#p7262ea0568)" d="M 57.6 298.944 
L 360.8064 298.944 
" style="fill:none;stroke:#b0b0b0;stroke-linecap:square;stroke-width:0.8;"/>
     </g>
     <g id="line2d_22">
      <defs>
       <path d="M 0 0 
L -3.5 0 
" id="m321f0454d6" style="stroke:#000000;stroke-width:0.8;"/>
      </defs>
      <g>
       <use style="stroke:#000000;stroke-width:0.8;" x="57.6" xlink:href="#m321f0454d6" y="298.944"/>
      </g>
     </g>
     <g id="text_6">
      <!-- 0.0 -->
      <g transform="translate(25.155 305.02275)scale(0.16 -0.16)">
       <defs>
        <path d="M 684 794 
L 1344 794 
L 1344 0 
L 684 0 
L 684 794 
z
" id="DejaVuSans-2e" transform="scale(0.015625)"/>
       </defs>
       <use xlink:href="#DejaVuSans-30"/>
       <use x="63.623047" xlink:href="#DejaVuSans-2e"/>
       <use x="95.410156" xlink:href="#DejaVuSans-30"/>
      </g>
     </g>
    </g>
    <g id="ytick_2">
     <g id="line2d_23">
      <path clip-path="url(#p7262ea0568)" d="M 57.6 244.6848 
L 360.8064 244.6848 
" style="fill:none;stroke:#b0b0b0;stroke-linecap:square;stroke-width:0.8;"/>
     </g>
     <g id="line2d_24">
      <g>
       <use style="stroke:#000000;stroke-width:0.8;" x="57.6" xlink:href="#m321f0454d6" y="244.6848"/>
      </g>
     </g>
     <g id="text_7">
      <!-- 0.2 -->
      <g transform="translate(25.155 250.76355)scale(0.16 -0.16)">
       <use xlink:href="#DejaVuSans-30"/>
       <use x="63.623047" xlink:href="#DejaVuSans-2e"/>
       <use x="95.410156" xlink:href="#DejaVuSans-32"/>
      </g>
     </g>
    </g>
    <g id="ytick_3">
     <g id="line2d_25">
      <path clip-path="url(#p7262ea0568)" d="M 57.6 190.4256 
L 360.8064 190.4256 
" style="fill:none;stroke:#b0b0b0;stroke-linecap:square;stroke-width:0.8;"/>
     </g>
     <g id="line2d_26">
      <g>
       <use style="stroke:#000000;stroke-width:0.8;" x="57.6" xlink:href="#m321f0454d6" y="190.4256"/>
      </g>
     </g>
     <g id="text_8">
      <!-- 0.4 -->
      <g transform="translate(25.155 196.50435)scale(0.16 -0.16)">
       <use xlink:href="#DejaVuSans-30"/>
       <use x="63.623047" xlink:href="#DejaVuSans-2e"/>
       <use x="95.410156" xlink:href="#DejaVuSans-34"/>
      </g>
     </g>
    </g>
    <g id="ytick_4">
     <g id="line2d_27">
      <path clip-path="url(#p7262ea0568)" d="M 57.6 136.1664 
L 360.8064 136.1664 
" style="fill:none;stroke:#b0b0b0;stroke-linecap:square;stroke-width:0.8;"/>
     </g>
     <g id="line2d_28">
      <g>
       <use style="stroke:#000000;stroke-width:0.8;" x="57.6" xlink:href="#m321f0454d6" y="136.1664"/>
      </g>
     </g>
     <g id="text_9">
      <!-- 0.6 -->
      <g transform="translate(25.155 142.24515)scale(0.16 -0.16)">
       <use xlink:href="#DejaVuSans-30"/>
       <use x="63.623047" xlink:href="#DejaVuSans-2e"/>
       <use x="95.410156" xlink:href="#DejaVuSans-36"/>
      </g>
     </g>
    </g>
    <g id="ytick_5">
     <g id="line2d_29">
      <path clip-path="url(#p7262ea0568)" d="M 57.6 81.9072 
L 360.8064 81.9072 
" style="fill:none;stroke:#b0b0b0;stroke-linecap:square;stroke-width:0.8;"/>
     </g>
     <g id="line2d_30">
      <g>
       <use style="stroke:#000000;stroke-width:0.8;" x="57.6" xlink:href="#m321f0454d6" y="81.9072"/>
      </g>
     </g>
     <g id="text_10">
      <!-- 0.8 -->
      <g transform="translate(25.155 87.98595)scale(0.16 -0.16)">
       <defs>
        <path d="M 2034 2216 
Q 1584 2216 1326 1975 
Q 1069 1734 1069 1313 
Q 1069 891 1326 650 
Q 1584 409 2034 409 
Q 2484 409 2743 651 
Q 3003 894 3003 1313 
Q 3003 1734 2745 1975 
Q 2488 2216 2034 2216 
z
M 1403 2484 
Q 997 2584 770 2862 
Q 544 3141 544 3541 
Q 544 4100 942 4425 
Q 1341 4750 2034 4750 
Q 2731 4750 3128 4425 
Q 3525 4100 3525 3541 
Q 3525 3141 3298 2862 
Q 3072 2584 2669 2484 
Q 3125 2378 3379 2068 
Q 3634 1759 3634 1313 
Q 3634 634 3220 271 
Q 2806 -91 2034 -91 
Q 1263 -91 848 271 
Q 434 634 434 1313 
Q 434 1759 690 2068 
Q 947 2378 1403 2484 
z
M 1172 3481 
Q 1172 3119 1398 2916 
Q 1625 2713 2034 2713 
Q 2441 2713 2670 2916 
Q 2900 3119 2900 3481 
Q 2900 3844 2670 4047 
Q 2441 4250 2034 4250 
Q 1625 4250 1398 4047 
Q 1172 3844 1172 3481 
z
" id="DejaVuSans-38" transform="scale(0.015625)"/>
       </defs>
       <use xlink:href="#DejaVuSans-30"/>
       <use x="63.623047" xlink:href="#DejaVuSans-2e"/>
       <use x="95.410156" xlink:href="#DejaVuSans-38"/>
      </g>
     </g>
    </g>
    <g id="ytick_6">
     <g id="line2d_31">
      <path clip-path="url(#p7262ea0568)" d="M 57.6 27.648 
L 360.8064 27.648 
" style="fill:none;stroke:#b0b0b0;stroke-linecap:square;stroke-width:0.8;"/>
     </g>
     <g id="line2d_32">
      <g>
       <use style="stroke:#000000;stroke-width:0.8;" x="57.6" xlink:href="#m321f0454d6" y="27.648"/>
      </g>
     </g>
     <g id="text_11">
      <!-- 1.0 -->
      <g transform="translate(25.155 33.72675)scale(0.16 -0.16)">
       <use xlink:href="#DejaVuSans-31"/>
       <use x="63.623047" xlink:href="#DejaVuSans-2e"/>
       <use x="95.410156" xlink:href="#DejaVuSans-30"/>
      </g>
     </g>
    </g>
    <g id="text_12">
     <!-- Fraction of function,target pairs -->
     <g transform="translate(17.619531 297.681)rotate(-90)scale(0.17 -0.17)">
      <defs>
       <path d="M 628 4666 
L 3309 4666 
L 3309 4134 
L 1259 4134 
L 1259 2759 
L 3109 2759 
L 3109 2228 
L 1259 2228 
L 1259 0 
L 628 0 
L 628 4666 
z
" id="DejaVuSans-46" transform="scale(0.015625)"/>
       <path d="M 2631 2963 
Q 2534 3019 2420 3045 
Q 2306 3072 2169 3072 
Q 1681 3072 1420 2755 
Q 1159 2438 1159 1844 
L 1159 0 
L 581 0 
L 581 3500 
L 1159 3500 
L 1159 2956 
Q 1341 3275 1631 3429 
Q 1922 3584 2338 3584 
Q 2397 3584 2469 3576 
Q 2541 3569 2628 3553 
L 2631 2963 
z
" id="DejaVuSans-72" transform="scale(0.015625)"/>
       <path d="M 3122 3366 
L 3122 2828 
Q 2878 2963 2633 3030 
Q 2388 3097 2138 3097 
Q 1578 3097 1268 2742 
Q 959 2388 959 1747 
Q 959 1106 1268 751 
Q 1578 397 2138 397 
Q 2388 397 2633 464 
Q 2878 531 3122 666 
L 3122 134 
Q 2881 22 2623 -34 
Q 2366 -91 2075 -91 
Q 1284 -91 818 406 
Q 353 903 353 1747 
Q 353 2603 823 3093 
Q 1294 3584 2113 3584 
Q 2378 3584 2631 3529 
Q 2884 3475 3122 3366 
z
" id="DejaVuSans-63" transform="scale(0.015625)"/>
       <path d="M 1172 4494 
L 1172 3500 
L 2356 3500 
L 2356 3053 
L 1172 3053 
L 1172 1153 
Q 1172 725 1289 603 
Q 1406 481 1766 481 
L 2356 481 
L 2356 0 
L 1766 0 
Q 1100 0 847 248 
Q 594 497 594 1153 
L 594 3053 
L 172 3053 
L 172 3500 
L 594 3500 
L 594 4494 
L 1172 4494 
z
" id="DejaVuSans-74" transform="scale(0.015625)"/>
       <path d="M 544 1381 
L 544 3500 
L 1119 3500 
L 1119 1403 
Q 1119 906 1312 657 
Q 1506 409 1894 409 
Q 2359 409 2629 706 
Q 2900 1003 2900 1516 
L 2900 3500 
L 3475 3500 
L 3475 0 
L 2900 0 
L 2900 538 
Q 2691 219 2414 64 
Q 2138 -91 1772 -91 
Q 1169 -91 856 284 
Q 544 659 544 1381 
z
M 1991 3584 
L 1991 3584 
z
" id="DejaVuSans-75" transform="scale(0.015625)"/>
       <path d="M 750 794 
L 1409 794 
L 1409 256 
L 897 -744 
L 494 -744 
L 750 256 
L 750 794 
z
" id="DejaVuSans-2c" transform="scale(0.015625)"/>
       <path d="M 1159 525 
L 1159 -1331 
L 581 -1331 
L 581 3500 
L 1159 3500 
L 1159 2969 
Q 1341 3281 1617 3432 
Q 1894 3584 2278 3584 
Q 2916 3584 3314 3078 
Q 3713 2572 3713 1747 
Q 3713 922 3314 415 
Q 2916 -91 2278 -91 
Q 1894 -91 1617 61 
Q 1341 213 1159 525 
z
M 3116 1747 
Q 3116 2381 2855 2742 
Q 2594 3103 2138 3103 
Q 1681 3103 1420 2742 
Q 1159 2381 1159 1747 
Q 1159 1113 1420 752 
Q 1681 391 2138 391 
Q 2594 391 2855 752 
Q 3116 1113 3116 1747 
z
" id="DejaVuSans-70" transform="scale(0.015625)"/>
      </defs>
      <use xlink:href="#DejaVuSans-46"/>
      <use x="50.269531" xlink:href="#DejaVuSans-72"/>
      <use x="91.382812" xlink:href="#DejaVuSans-61"/>
      <use x="152.662109" xlink:href="#DejaVuSans-63"/>
      <use x="207.642578" xlink:href="#DejaVuSans-74"/>
      <use x="246.851562" xlink:href="#DejaVuSans-69"/>
      <use x="274.634766" xlink:href="#DejaVuSans-6f"/>
      <use x="335.816406" xlink:href="#DejaVuSans-6e"/>
      <use x="399.195312" xlink:href="#DejaVuSans-20"/>
      <use x="430.982422" xlink:href="#DejaVuSans-6f"/>
      <use x="492.164062" xlink:href="#DejaVuSans-66"/>
      <use x="527.369141" xlink:href="#DejaVuSans-20"/>
      <use x="559.15625" xlink:href="#DejaVuSans-66"/>
      <use x="594.361328" xlink:href="#DejaVuSans-75"/>
      <use x="657.740234" xlink:href="#DejaVuSans-6e"/>
      <use x="721.119141" xlink:href="#DejaVuSans-63"/>
      <use x="776.099609" xlink:href="#DejaVuSans-74"/>
      <use x="815.308594" xlink:href="#DejaVuSans-69"/>
      <use x="843.091797" xlink:href="#DejaVuSans-6f"/>
      <use x="904.273438" xlink:href="#DejaVuSans-6e"/>
      <use x="967.652344" xlink:href="#DejaVuSans-2c"/>
      <use x="999.439453" xlink:href="#DejaVuSans-74"/>
      <use x="1038.648438" xlink:href="#DejaVuSans-61"/>
      <use x="1099.927734" xlink:href="#DejaVuSans-72"/>
      <use x="1139.291016" xlink:href="#DejaVuSans-67"/>
      <use x="1202.767578" xlink:href="#DejaVuSans-65"/>
      <use x="1264.291016" xlink:href="#DejaVuSans-74"/>
      <use x="1303.5" xlink:href="#DejaVuSans-20"/>
      <use x="1335.287109" xlink:href="#DejaVuSans-70"/>
      <use x="1398.763672" xlink:href="#DejaVuSans-61"/>
      <use x="1460.042969" xlink:href="#DejaVuSans-69"/>
      <use x="1487.826172" xlink:href="#DejaVuSans-72"/>
      <use x="1528.939453" xlink:href="#DejaVuSans-73"/>
     </g>
    </g>
   </g>
   <g id="line2d_33">
    <defs>
     <path d="M 0 1.5 
C 0.397805 1.5 0.77937 1.341951 1.06066 1.06066 
C 1.341951 0.77937 1.5 0.397805 1.5 0 
C 1.5 -0.397805 1.341951 -0.77937 1.06066 -1.06066 
C 0.77937 -1.341951 0.397805 -1.5 0 -1.5 
C -0.397805 -1.5 -0.77937 -1.341951 -1.06066 -1.06066 
C -1.341951 -0.77937 -1.5 -0.397805 -1.5 0 
C -1.5 0.397805 -1.341951 0.77937 -1.06066 1.06066 
C -0.77937 1.341951 -0.397805 1.5 0 1.5 
z
" id="md0fff10cbf" style="stroke:#f5deb3;"/>
    </defs>
    <g>
     <use style="fill:#f5deb3;stroke:#f5deb3;" x="153.344252" xlink:href="#md0fff10cbf" y="27.648"/>
     <use style="fill:#f5deb3;stroke:#f5deb3;" x="153.344252" xlink:href="#md0fff10cbf" y="27.648"/>
    </g>
   </g>
   <g id="line2d_34">
    <defs>
     <path d="M 0 1.5 
C 0.397805 1.5 0.77937 1.341951 1.06066 1.06066 
C 1.341951 0.77937 1.5 0.397805 1.5 0 
C 1.5 -0.397805 1.341951 -0.77937 1.06066 -1.06066 
C 0.77937 -1.341951 0.397805 -1.5 0 -1.5 
C -0.397805 -1.5 -0.77937 -1.341951 -1.06066 -1.06066 
C -1.341951 -0.77937 -1.5 -0.397805 -1.5 0 
C -1.5 0.397805 -1.341951 0.77937 -1.06066 1.06066 
C -0.77937 1.341951 -0.397805 1.5 0 1.5 
z
" id="mea797cc54f" style="stroke:#000080;"/>
    </defs>
    <g>
     <use style="fill:#000080;stroke:#000080;" x="263.835303" xlink:href="#mea797cc54f" y="27.648"/>
     <use style="fill:#000080;stroke:#000080;" x="263.835303" xlink:href="#mea797cc54f" y="27.648"/>
    </g>
   </g>
   <g id="line2d_35">
    <path d="M 36.933397 298.944 
L 36.933397 286.531765 
L 49.972572 286.531765 
L 49.972572 284.049318 
L 57.6 284.049318 
L 57.6 283.694682 
L 63.011746 283.694682 
L 63.011746 280.502965 
L 67.209423 280.502965 
L 67.209423 278.020518 
L 70.639174 278.020518 
L 70.639174 277.311247 
L 73.538988 277.311247 
L 73.538988 276.601976 
L 82.04153 276.601976 
L 82.04153 274.119529 
L 83.678349 274.119529 
L 83.678349 273.410259 
L 86.578163 273.410259 
L 86.578163 272.700988 
L 87.876026 272.700988 
L 87.876026 270.573176 
L 89.090095 270.573176 
L 89.090095 270.218541 
L 90.230539 270.218541 
L 90.230539 268.445365 
L 93.287772 268.445365 
L 93.287772 267.736094 
L 97.485448 267.736094 
L 97.485448 267.381459 
L 105.850679 267.381459 
L 105.850679 265.962918 
L 109.360651 265.962918 
L 109.360651 265.608282 
L 111.620752 265.608282 
L 111.620752 265.253647 
L 112.317555 265.253647 
L 112.317555 262.7712 
L 114.872193 262.7712 
L 114.872193 262.061929 
L 122.990812 262.061929 
L 122.990812 261.707294 
L 123.374735 261.707294 
L 123.374735 261.352659 
L 128.354013 261.352659 
L 128.354013 260.998024 
L 128.643427 260.998024 
L 128.643427 260.288753 
L 132.984158 260.288753 
L 132.984158 259.224847 
L 133.210806 259.224847 
L 133.210806 254.614588 
L 134.516177 254.614588 
L 134.516177 253.905318 
L 136.126705 253.905318 
L 136.126705 253.196047 
L 136.508678 253.196047 
L 136.508678 250.004329 
L 136.696795 250.004329 
L 136.696795 249.649694 
L 136.88305 249.649694 
L 136.88305 249.295059 
L 139.636676 249.295059 
L 139.636676 248.940424 
L 139.796097 248.940424 
L 139.796097 248.585788 
L 144.417581 248.585788 
L 144.417581 248.231153 
L 144.907812 248.231153 
L 144.907812 247.876518 
L 145.148219 247.876518 
L 145.148219 247.521882 
L 146.968277 247.521882 
L 146.968277 247.167247 
L 150.425115 247.167247 
L 150.425115 245.748706 
L 153.032666 245.748706 
L 153.032666 243.620894 
L 153.5746 243.620894 
L 153.5746 243.266259 
L 154.17542 243.266259 
L 154.17542 242.911624 
L 156.005274 242.911624 
L 156.005274 242.202353 
L 157.61133 242.202353 
L 157.61133 241.493082 
L 157.916719 241.493082 
L 157.977206 240.429176 
L 159.816746 240.429176 
L 159.816746 238.656 
L 160.4627 238.656 
L 160.4627 238.301365 
L 161.986735 238.301365 
L 161.986735 237.592094 
L 162.373122 237.592094 
L 162.373122 237.237459 
L 162.704821 237.237459 
L 162.704821 236.173553 
L 163.44172 236.173553 
L 163.44172 235.818918 
L 164.150838 235.818918 
L 164.194282 234.400376 
L 164.452864 234.400376 
L 164.452864 234.045741 
L 164.917893 234.045741 
L 164.917893 232.981835 
L 165.207944 232.981835 
L 165.249018 230.499388 
L 165.973402 230.499388 
L 165.973402 230.144753 
L 166.208795 230.144753 
L 166.208795 228.726212 
L 168.239461 228.726212 
L 168.309328 226.243765 
L 168.757243 226.243765 
L 168.79126 223.052047 
L 171.330787 223.052047 
L 171.330787 221.633506 
L 172.978738 221.633506 
L 172.978738 221.278871 
L 173.409043 221.278871 
L 173.409043 220.924235 
L 173.933441 220.924235 
L 173.933441 220.214965 
L 176.173528 220.214965 
L 176.173528 216.668612 
L 177.736555 216.668612 
L 177.736555 216.313976 
L 178.863946 216.313976 
L 178.863946 214.5408 
L 179.022444 214.5408 
L 179.081538 213.831529 
L 180.773181 213.831529 
L 180.773181 213.122259 
L 181.63399 213.122259 
L 181.63399 212.058353 
L 182.225597 212.058353 
L 182.225597 209.575906 
L 182.489971 209.575906 
L 182.489971 207.802729 
L 182.669597 207.802729 
L 182.669597 207.093459 
L 184.407043 207.093459 
L 184.407043 205.320282 
L 185.318157 205.320282 
L 185.318157 204.965647 
L 185.970245 204.965647 
L 186.024713 203.901741 
L 186.348244 203.901741 
L 186.348244 202.128565 
L 186.613667 202.128565 
L 186.613667 201.773929 
L 188.421569 201.773929 
L 188.421569 201.064659 
L 189.057115 201.064659 
L 189.057115 200.710024 
L 189.660685 200.710024 
L 189.660685 200.000753 
L 190.515156 200.000753 
L 190.515156 199.646118 
L 191.363232 199.646118 
L 191.363232 199.291482 
L 191.597235 199.291482 
L 191.597235 197.518306 
L 192.086263 197.518306 
L 192.086263 197.163671 
L 192.398901 197.163671 
L 192.398901 195.745129 
L 192.896109 195.745129 
L 192.896109 195.035859 
L 194.004608 195.035859 
L 194.004608 194.681224 
L 194.164066 194.681224 
L 194.234505 191.489506 
L 194.651688 191.489506 
L 194.651688 190.070965 
L 195.042989 190.070965 
L 195.042989 189.716329 
L 195.582396 189.716329 
L 195.582396 189.007059 
L 196.146502 189.007059 
L 196.249428 187.943153 
L 196.701894 187.943153 
L 196.701894 185.106071 
L 196.992544 185.106071 
L 196.992544 184.751435 
L 197.590142 184.751435 
L 197.590142 184.3968 
L 198.140799 184.3968 
L 198.155074 182.623624 
L 198.882858 182.623624 
L 198.882858 181.914353 
L 199.470766 181.914353 
L 199.523916 180.850447 
L 199.787433 180.850447 
L 199.865774 178.013365 
L 200.021484 178.013365 
L 200.021484 177.304094 
L 200.360844 177.304094 
L 200.360844 176.949459 
L 200.493632 176.949459 
L 200.581639 174.467012 
L 200.768851 174.467012 
L 200.768851 173.048471 
L 201.571145 173.048471 
L 201.624621 171.984565 
L 201.731118 171.984565 
L 201.731118 171.629929 
L 202.012199 171.629929 
L 202.012199 171.275294 
L 202.128088 171.275294 
L 202.128088 170.211388 
L 202.511193 170.211388 
L 202.511193 169.502118 
L 202.786517 169.502118 
L 202.786517 169.147482 
L 203.422677 169.147482 
L 203.524855 167.728941 
L 203.653135 167.728941 
L 203.653135 167.019671 
L 203.769961 167.019671 
L 203.865009 160.636235 
L 203.94385 160.636235 
L 203.94385 160.2816 
L 204.131732 160.2816 
L 204.131732 159.926965 
L 204.28688 159.926965 
L 204.29203 158.863059 
L 204.537568 158.863059 
L 204.537568 157.089882 
L 204.845052 157.089882 
L 204.845052 155.671341 
L 205.004367 155.671341 
L 205.098326 154.962071 
L 205.196726 154.962071 
L 205.226146 152.124988 
L 205.319007 152.124988 
L 205.38228 151.415718 
L 205.522665 151.415718 
L 205.599673 147.514729 
L 205.757513 147.514729 
L 205.757513 146.096188 
L 205.961216 146.096188 
L 206.031759 144.677647 
L 206.582223 144.677647 
L 206.582223 144.323012 
L 206.723015 144.323012 
L 206.772721 140.776659 
L 207.046006 140.776659 
L 207.046006 138.648847 
L 207.310993 138.648847 
L 207.337288 137.230306 
L 207.502972 137.230306 
L 207.502972 136.521035 
L 207.684414 136.521035 
L 207.684414 135.457129 
L 208.27272 135.457129 
L 208.330967 133.329318 
L 208.549852 133.329318 
L 208.549852 132.265412 
L 208.762161 132.265412 
L 208.762161 131.556141 
L 209.036228 131.556141 
L 209.09615 130.492235 
L 209.424313 130.492235 
L 209.424313 130.1376 
L 209.723717 130.1376 
L 209.827585 126.236612 
L 210.271167 126.236612 
L 210.334758 124.818071 
L 211.006015 124.818071 
L 211.092298 121.980988 
L 211.22811 121.980988 
L 211.249464 120.917082 
L 211.46872 120.917082 
L 211.535402 118.789271 
L 211.813608 118.789271 
L 211.8722 117.370729 
L 211.968309 117.370729 
L 211.968309 116.306824 
L 212.398171 116.306824 
L 212.398171 115.597553 
L 212.601199 115.597553 
L 212.634274 113.469741 
L 212.815156 113.469741 
L 212.815156 109.214118 
L 213.264688 109.214118 
L 213.264688 108.859482 
L 213.65371 108.859482 
L 213.65371 108.504847 
L 213.815786 108.504847 
L 213.815786 108.150212 
L 213.945681 108.150212 
L 213.945681 107.440941 
L 214.287747 107.440941 
L 214.375313 105.313129 
L 214.438469 105.313129 
L 214.438469 104.249224 
L 215.211978 104.249224 
L 215.211978 103.894588 
L 215.352642 103.894588 
L 215.352642 103.539953 
L 215.644937 103.539953 
L 215.650568 99.638965 
L 216.696304 99.638965 
L 216.696304 98.929694 
L 218.383759 98.929694 
L 218.383759 97.865788 
L 218.709561 97.865788 
L 218.726301 96.092612 
L 219.020405 96.092612 
L 219.020405 95.028706 
L 219.499055 95.028706 
L 219.499055 93.610165 
L 236.360285 93.610165 
L 236.375259 92.546259 
L 236.505769 92.546259 
L 236.505769 91.482353 
L 236.700771 91.482353 
L 236.794318 89.709176 
L 236.868275 89.709176 
L 236.868275 88.999906 
L 237.03701 88.999906 
L 237.03701 86.872094 
L 237.15046 86.872094 
L 237.15046 86.517459 
L 237.284634 86.517459 
L 237.315804 85.808188 
L 237.539596 85.808188 
L 237.560688 85.098918 
L 237.797221 85.098918 
L 237.797221 84.744282 
L 238.023962 84.744282 
L 238.068471 83.325741 
L 238.193729 83.325741 
L 238.234449 81.9072 
L 238.446797 81.9072 
L 238.446797 79.779388 
L 238.608654 79.779388 
L 238.608654 79.424753 
L 238.768306 79.424753 
L 238.837371 76.587671 
L 238.880818 76.587671 
L 238.933965 74.814494 
L 239.041434 74.814494 
L 239.118401 73.750588 
L 239.172494 73.750588 
L 239.211957 73.041318 
L 239.357013 73.041318 
L 239.436678 69.8496 
L 239.474797 69.8496 
L 239.579229 66.657882 
L 239.632015 66.657882 
L 239.71601 63.111529 
L 239.841691 63.111529 
L 239.93792 62.047624 
L 239.96963 62.047624 
L 240.002057 60.983718 
L 240.119716 60.983718 
L 240.200039 60.274447 
L 240.251875 60.274447 
L 240.32633 59.210541 
L 240.405022 59.210541 
L 240.505931 58.146635 
L 240.660756 58.146635 
L 240.753637 57.082729 
L 240.846061 57.082729 
L 240.846061 56.373459 
L 240.989341 56.373459 
L 241.031748 54.245647 
L 241.289966 54.245647 
L 241.289966 53.891012 
L 241.406307 53.891012 
L 241.406307 53.536376 
L 241.701098 53.536376 
L 241.701098 53.181741 
L 242.604463 53.181741 
L 242.604463 52.472471 
L 242.742338 52.472471 
L 242.742338 51.7632 
L 249.360333 51.7632 
L 249.360333 51.053929 
L 249.702442 51.053929 
L 249.702442 50.699294 
L 250.17594 50.699294 
L 250.212288 48.926118 
L 250.29772 48.926118 
L 250.30129 47.862212 
L 250.434672 47.862212 
L 250.521308 47.152941 
L 250.608863 47.152941 
L 250.680714 45.025129 
L 250.784064 45.025129 
L 250.784064 44.670494 
L 250.91192 44.670494 
L 250.985206 42.897318 
L 251.077485 42.897318 
L 251.180388 41.478776 
L 251.381993 41.478776 
L 251.381993 41.124141 
L 251.544325 41.124141 
L 251.627672 40.060235 
L 251.68165 40.060235 
L 251.689526 39.350965 
L 251.845539 39.350965 
L 251.845539 38.996329 
L 252.225168 38.996329 
L 252.225973 38.287059 
L 252.642255 38.287059 
L 252.698117 37.577788 
L 256.974701 37.577788 
L 256.974701 37.223153 
L 257.089198 37.223153 
L 257.089198 36.868518 
L 257.299522 36.868518 
L 257.342226 36.159247 
L 257.522723 36.159247 
L 257.522723 35.804612 
L 257.698193 35.804612 
L 257.757121 34.740706 
L 257.962226 34.740706 
L 258.0508 33.6768 
L 258.074132 33.6768 
L 258.124244 32.258259 
L 258.316667 32.258259 
L 258.316667 31.903624 
L 258.459486 31.903624 
L 258.459486 31.548988 
L 258.596062 31.548988 
L 258.651962 30.839718 
L 258.801925 30.839718 
L 258.801925 30.485082 
L 258.934072 30.485082 
L 258.934072 30.130447 
L 262.440858 30.130447 
L 262.508602 29.066541 
L 263.052374 29.066541 
L 263.052374 28.711906 
L 263.266362 28.711906 
L 263.266362 28.357271 
L 263.581748 28.357271 
L 263.581748 28.002635 
L 263.835303 28.002635 
L 263.835303 27.648 
L 360.8064 27.648 
L 360.8064 27.648 
" style="fill:none;stroke:#000080;stroke-linecap:square;stroke-width:1.5;"/>
   </g>
   <g id="line2d_36">
    <defs>
     <path d="M 0 6 
C 1.591219 6 3.117479 5.367802 4.242641 4.242641 
C 5.367802 3.117479 6 1.591219 6 0 
C 6 -1.591219 5.367802 -3.117479 4.242641 -4.242641 
C 3.117479 -5.367802 1.591219 -6 0 -6 
C -1.591219 -6 -3.117479 -5.367802 -4.242641 -4.242641 
C -5.367802 -3.117479 -6 -1.591219 -6 0 
C -6 1.591219 -5.367802 3.117479 -4.242641 4.242641 
C -3.117479 5.367802 -1.591219 6 0 6 
z
" id="m959607dc5b" style="stroke:#000080;stroke-width:1.5;"/>
    </defs>
    <g>
     <use style="fill-opacity:0;stroke:#000080;stroke-width:1.5;" x="132.984158" xlink:href="#m959607dc5b" y="259.224847"/>
     <use style="fill-opacity:0;stroke:#000080;stroke-width:1.5;" x="205.196726" xlink:href="#m959607dc5b" y="154.962071"/>
     <use style="fill-opacity:0;stroke:#000080;stroke-width:1.5;" x="252.698117" xlink:href="#m959607dc5b" y="37.932424"/>
     <use style="fill-opacity:0;stroke:#000080;stroke-width:1.5;" x="263.835303" xlink:href="#m959607dc5b" y="27.648"/>
     <use style="fill-opacity:0;stroke:#000080;stroke-width:1.5;" x="263.835303" xlink:href="#m959607dc5b" y="27.648"/>
     <use style="fill-opacity:0;stroke:#000080;stroke-width:1.5;" x="360.8064" xlink:href="#m959607dc5b" y="27.648"/>
    </g>
   </g>
   <g id="line2d_37">
    <path style="fill:none;stroke:#000080;stroke-linecap:square;stroke-width:1.5;"/>
    <g/>
   </g>
   <g id="line2d_38">
    <path clip-path="url(#p7262ea0568)" d="M 236.28195 93.610165 
" style="fill:none;stroke:#000080;stroke-linecap:square;stroke-width:1.5;"/>
    <defs>
     <path d="M -12 12 
L 12 -12 
M -12 -12 
L 12 12 
" id="m58e6e8727c" style="stroke:#000080;"/>
    </defs>
    <g clip-path="url(#p7262ea0568)">
     <use style="fill:#000080;stroke:#000080;" x="236.28195" xlink:href="#m58e6e8727c" y="93.610165"/>
    </g>
   </g>
   <g id="line2d_39">
    <defs>
     <path d="M 0 1.5 
C 0.397805 1.5 0.77937 1.341951 1.06066 1.06066 
C 1.341951 0.77937 1.5 0.397805 1.5 0 
C 1.5 -0.397805 1.341951 -0.77937 1.06066 -1.06066 
C 0.77937 -1.341951 0.397805 -1.5 0 -1.5 
C -0.397805 -1.5 -0.77937 -1.341951 -1.06066 -1.06066 
C -1.341951 -0.77937 -1.5 -0.397805 -1.5 0 
C -1.5 0.397805 -1.341951 0.77937 -1.06066 1.06066 
C -0.77937 1.341951 -0.397805 1.5 0 1.5 
z
" id="maec089a606" style="stroke:#ff00ff;"/>
    </defs>
    <g>
     <use style="fill:#ff00ff;stroke:#ff00ff;" x="226.38995" xlink:href="#maec089a606" y="27.648"/>
     <use style="fill:#ff00ff;stroke:#ff00ff;" x="226.38995" xlink:href="#maec089a606" y="27.648"/>
    </g>
   </g>
   <g id="line2d_40">
    <path d="M 36.933397 298.944 
L 36.933397 286.531765 
L 49.972572 286.531765 
L 49.972572 284.049318 
L 57.6 284.049318 
L 57.6 282.276141 
L 63.011746 282.276141 
L 63.011746 277.665882 
L 67.209423 277.665882 
L 67.209423 277.311247 
L 70.639174 277.311247 
L 70.639174 276.601976 
L 73.538988 276.601976 
L 73.538988 276.247341 
L 76.050921 276.247341 
L 76.050921 274.8288 
L 80.248597 274.8288 
L 80.248597 274.119529 
L 82.04153 274.119529 
L 82.04153 273.410259 
L 83.678349 273.410259 
L 83.678349 272.346353 
L 85.184077 272.346353 
L 85.184077 270.927812 
L 87.876026 270.927812 
L 87.876026 270.218541 
L 92.322865 270.218541 
L 92.322865 269.509271 
L 93.287772 269.509271 
L 93.287772 268.8 
L 95.080704 268.8 
L 95.080704 268.445365 
L 95.916911 268.445365 
L 95.916911 263.125835 
L 96.717523 263.125835 
L 96.717523 262.416565 
L 97.485448 262.416565 
L 97.485448 262.061929 
L 98.223251 262.061929 
L 98.223251 260.288753 
L 101.532027 260.288753 
L 101.532027 259.934118 
L 102.708132 259.934118 
L 102.708132 259.579482 
L 104.344952 259.579482 
L 104.344952 258.870212 
L 105.36204 258.870212 
L 105.36204 255.678494 
L 106.791453 255.678494 
L 106.791453 255.323859 
L 108.119879 255.323859 
L 108.119879 253.196047 
L 109.756698 253.196047 
L 109.756698 252.841412 
L 111.262425 252.841412 
L 111.262425 252.132141 
L 112.989468 252.132141 
L 112.989468 247.876518 
L 113.954374 247.876518 
L 113.954374 247.167247 
L 116.308887 247.167247 
L 116.308887 246.457976 
L 116.583514 246.457976 
L 116.583514 246.103341 
L 117.899543 246.103341 
L 117.899543 245.748706 
L 121.371615 245.748706 
L 121.371615 243.975529 
L 122.795872 243.975529 
L 122.795872 242.911624 
L 123.936316 242.911624 
L 123.936316 242.556988 
L 124.836562 242.556988 
L 124.836562 241.847718 
L 127.761474 241.847718 
L 127.761474 241.493082 
L 128.786481 241.493082 
L 128.786481 241.138447 
L 130.160198 241.138447 
L 130.160198 240.429176 
L 130.4233 240.429176 
L 130.4233 238.656 
L 131.191226 238.656 
L 131.191226 237.946729 
L 131.440389 237.946729 
L 131.440389 237.237459 
L 131.808053 237.237459 
L 131.808053 236.882824 
L 132.04923 236.882824 
L 132.04923 235.818918 
L 132.405295 235.818918 
L 132.405295 235.464282 
L 132.754746 235.464282 
L 132.754746 235.109647 
L 133.545739 235.109647 
L 133.545739 234.045741 
L 133.765759 234.045741 
L 133.765759 233.691106 
L 133.983236 233.691106 
L 133.983236 231.917929 
L 135.034434 231.917929 
L 135.034434 231.208659 
L 135.438999 231.208659 
L 135.438999 230.144753 
L 136.126705 230.144753 
L 136.126705 229.435482 
L 138.566146 229.435482 
L 138.650692 228.371576 
L 139.067817 228.371576 
L 139.067817 228.016941 
L 139.556456 228.016941 
L 139.556456 227.307671 
L 140.032723 227.307671 
L 140.110942 226.5984 
L 140.26641 226.5984 
L 140.343665 222.342776 
L 140.649551 222.342776 
L 140.649551 221.278871 
L 140.875745 221.278871 
L 140.875745 220.924235 
L 141.025043 220.924235 
L 141.025043 219.151059 
L 143.850356 219.151059 
L 143.850356 218.796424 
L 144.786447 218.796424 
L 144.786447 218.441788 
L 145.851536 218.441788 
L 145.851536 218.087153 
L 146.136998 218.087153 
L 146.136998 217.732518 
L 146.306218 217.732518 
L 146.306218 217.377882 
L 146.695245 217.377882 
L 146.695245 217.023247 
L 147.022411 217.023247 
L 147.076389 215.250071 
L 147.555352 215.250071 
L 147.555352 214.5408 
L 147.712333 214.5408 
L 147.712333 213.831529 
L 148.775988 213.831529 
L 148.775988 213.122259 
L 149.165879 213.122259 
L 149.165879 212.767624 
L 149.500528 212.767624 
L 149.500528 212.412988 
L 149.689117 212.412988 
L 149.689117 212.058353 
L 151.774035 212.058353 
L 151.774035 210.639812 
L 152.024303 210.639812 
L 152.024303 210.285176 
L 152.189318 210.285176 
L 152.189318 209.930541 
L 152.993353 209.930541 
L 152.993353 208.866635 
L 153.726614 208.866635 
L 153.726614 208.512 
L 155.322384 208.512 
L 155.322384 208.157365 
L 155.529866 208.157365 
L 155.564225 207.093459 
L 155.701037 207.093459 
L 155.802997 205.674918 
L 155.870664 205.674918 
L 155.870664 205.320282 
L 158.067574 205.320282 
L 158.067574 204.965647 
L 158.659181 204.965647 
L 158.659181 204.611012 
L 158.861925 204.611012 
L 158.919453 203.547106 
L 159.204482 203.547106 
L 159.204482 202.837835 
L 159.706897 202.837835 
L 159.789344 202.128565 
L 160.276577 202.128565 
L 160.276577 201.773929 
L 160.436223 201.773929 
L 160.436223 201.419294 
L 161.163832 201.419294 
L 161.163832 201.064659 
L 161.542347 201.064659 
L 161.642011 200.355388 
L 161.666845 200.355388 
L 161.666845 200.000753 
L 162.011118 200.000753 
L 162.05979 198.582212 
L 162.205054 198.582212 
L 162.301277 197.518306 
L 162.515995 197.518306 
L 162.610645 196.809035 
L 162.634233 196.809035 
L 162.634233 196.4544 
L 162.938218 196.4544 
L 163.007676 195.390494 
L 163.260183 195.390494 
L 163.260183 195.035859 
L 163.373849 195.035859 
L 163.3965 194.326588 
L 163.79962 194.326588 
L 163.843882 192.908047 
L 163.997986 192.908047 
L 164.041785 191.844141 
L 164.150838 191.844141 
L 164.259262 190.4256 
L 164.324018 190.4256 
L 164.324018 190.070965 
L 164.474253 190.070965 
L 164.474253 189.716329 
L 165.042749 189.716329 
L 165.042749 189.007059 
L 165.166781 189.007059 
L 165.166781 188.652424 
L 165.45305 188.652424 
L 165.534047 187.943153 
L 165.735027 187.943153 
L 165.735027 187.588518 
L 165.894279 187.588518 
L 165.894279 187.233882 
L 166.071841 187.233882 
L 166.071841 186.879247 
L 166.189291 186.879247 
L 166.267186 185.815341 
L 166.479748 185.815341 
L 166.575579 185.106071 
L 166.878997 185.106071 
L 166.8978 184.3968 
L 167.121972 184.3968 
L 167.121972 184.042165 
L 167.526142 184.042165 
L 167.544308 182.268988 
L 167.670986 182.268988 
L 167.670986 181.914353 
L 167.904005 181.914353 
L 167.992864 180.850447 
L 168.063651 180.850447 
L 168.063651 180.495812 
L 168.274427 180.495812 
L 168.344164 179.786541 
L 168.534619 179.786541 
L 168.534619 179.431906 
L 168.926718 179.431906 
L 169.027674 178.368 
L 169.044448 178.368 
L 169.044448 178.013365 
L 169.343842 178.013365 
L 169.343842 177.658729 
L 169.458999 177.658729 
L 169.491772 176.949459 
L 169.589749 176.949459 
L 169.671008 175.885553 
L 169.896685 175.885553 
L 169.896685 175.530918 
L 170.214455 175.530918 
L 170.214455 175.176282 
L 170.355719 175.176282 
L 170.355719 174.821647 
L 170.588827 174.821647 
L 170.635104 174.112376 
L 170.727317 174.112376 
L 170.819081 173.048471 
L 170.925576 173.048471 
L 171.016381 172.3392 
L 171.091717 172.3392 
L 171.106748 171.629929 
L 171.211632 171.629929 
L 171.315934 170.566024 
L 171.375276 170.566024 
L 171.375276 169.856753 
L 171.522819 169.856753 
L 171.566857 169.147482 
L 171.872269 169.147482 
L 171.88669 168.438212 
L 172.03029 168.438212 
L 172.03029 168.083576 
L 172.144386 168.083576 
L 172.144386 167.728941 
L 172.440637 167.728941 
L 172.482581 167.019671 
L 172.801076 167.019671 
L 172.801076 166.3104 
L 173.060174 166.3104 
L 173.060174 165.955765 
L 173.24883 165.955765 
L 173.302386 164.891859 
L 173.803705 164.891859 
L 173.803705 164.537224 
L 173.985085 164.537224 
L 174.087951 163.827953 
L 174.10077 163.827953 
L 174.11358 163.118682 
L 174.292011 163.118682 
L 174.292011 162.764047 
L 174.73082 162.764047 
L 174.817367 161.700141 
L 174.866645 161.700141 
L 174.92806 160.990871 
L 175.256283 160.990871 
L 175.316441 160.2816 
L 175.424244 160.2816 
L 175.531433 159.572329 
L 175.567027 159.572329 
L 175.649819 158.863059 
L 175.755734 158.863059 
L 175.755734 158.508424 
L 176.150559 158.508424 
L 176.150559 158.153788 
L 176.276542 158.153788 
L 176.310755 157.089882 
L 176.446989 157.089882 
L 176.446989 156.735247 
L 176.615906 156.735247 
L 176.705378 155.316706 
L 176.72768 155.316706 
L 176.72768 154.962071 
L 176.838794 154.962071 
L 176.838794 154.607435 
L 177.10282 154.607435 
L 177.190012 153.898165 
L 177.255141 153.898165 
L 177.341632 152.124988 
L 177.406239 152.124988 
L 177.406239 151.770353 
L 177.577449 151.770353 
L 177.577449 151.415718 
L 177.747115 151.415718 
L 177.747115 151.061082 
L 177.967504 151.061082 
L 177.967504 150.706447 
L 178.247119 150.706447 
L 178.247119 150.351812 
L 178.704102 150.351812 
L 178.814141 147.869365 
L 178.834079 147.869365 
L 178.84404 147.160094 
L 178.963164 147.160094 
L 179.042162 146.450824 
L 179.160042 146.450824 
L 179.189397 145.741553 
L 179.470823 145.741553 
L 179.509312 144.677647 
L 179.710098 144.677647 
L 179.748101 143.968376 
L 180.105353 143.968376 
L 180.161146 143.259106 
L 180.309124 143.259106 
L 180.345937 142.549835 
L 180.465085 142.549835 
L 180.52893 141.840565 
L 180.601632 141.840565 
L 180.601632 141.485929 
L 181.014301 141.485929 
L 181.023172 140.776659 
L 181.173347 140.776659 
L 181.252369 139.712753 
L 181.304866 139.712753 
L 181.392038 138.294212 
L 181.565178 138.294212 
L 181.63399 137.230306 
L 181.770864 137.230306 
L 181.881346 136.1664 
L 181.932119 136.1664 
L 181.932119 135.811765 
L 182.183951 135.811765 
L 182.183951 135.457129 
L 182.300329 135.457129 
L 182.391266 134.747859 
L 182.489971 134.747859 
L 182.547311 133.683953 
L 182.637065 133.683953 
L 182.718289 132.620047 
L 182.799165 132.620047 
L 182.887728 131.201506 
L 182.911809 131.201506 
L 182.983869 130.1376 
L 183.055653 130.1376 
L 183.055653 129.782965 
L 183.222093 129.782965 
L 183.222093 129.428329 
L 183.394894 129.428329 
L 183.480702 128.364424 
L 183.64344 128.364424 
L 183.751154 127.300518 
L 183.81243 127.300518 
L 183.81243 126.945882 
L 183.949574 126.945882 
L 183.995068 125.881976 
L 184.145923 125.881976 
L 184.228381 125.172706 
L 184.377384 125.172706 
L 184.377384 124.818071 
L 184.715677 124.818071 
L 184.766627 124.1088 
L 184.831933 124.1088 
L 184.831933 123.754165 
L 185.14798 123.754165 
L 185.17645 123.044894 
L 185.409698 123.044894 
L 185.409698 122.690259 
L 185.723173 122.690259 
L 185.819643 120.917082 
L 185.922457 120.917082 
L 185.922457 120.562447 
L 186.038305 120.562447 
L 186.139934 119.498541 
L 186.166943 119.498541 
L 186.214115 118.789271 
L 186.294707 118.789271 
L 186.334874 118.08 
L 186.65316 118.08 
L 186.692569 117.016094 
L 186.764607 117.016094 
L 186.803784 116.306824 
L 186.946739 116.306824 
L 187.037149 115.597553 
L 187.107881 115.597553 
L 187.216674 114.179012 
L 187.318496 114.179012 
L 187.356538 113.469741 
L 187.639423 113.469741 
L 187.683048 112.405835 
L 187.887355 112.405835 
L 187.91197 111.696565 
L 188.010106 111.696565 
L 188.101647 110.987294 
L 188.156358 110.987294 
L 188.253232 109.923388 
L 188.355616 109.923388 
L 188.445494 108.504847 
L 188.824224 108.504847 
L 188.865188 107.086306 
L 188.97593 107.086306 
L 189.028161 106.377035 
L 189.298587 106.377035 
L 189.367013 105.667765 
L 189.457863 105.667765 
L 189.457863 105.313129 
L 189.582069 105.313129 
L 189.582069 104.958494 
L 189.750131 104.958494 
L 189.750131 104.603859 
L 189.96639 104.603859 
L 190.054397 103.894588 
L 190.627272 103.894588 
L 190.637916 103.185318 
L 190.860039 103.185318 
L 190.949206 101.057506 
L 191.04316 101.057506 
L 191.110724 99.638965 
L 191.39392 99.638965 
L 191.465331 97.511153 
L 191.64268 97.511153 
L 191.64268 96.801882 
L 192.120712 96.801882 
L 192.120712 96.447247 
L 192.408587 96.447247 
L 192.481079 95.383341 
L 192.658706 95.383341 
L 192.658706 95.028706 
L 192.825202 95.028706 
L 192.89139 94.319435 
L 193.292943 94.319435 
L 193.306797 93.610165 
L 193.408083 93.610165 
L 193.408083 93.255529 
L 193.568105 93.255529 
L 193.568105 92.900894 
L 193.713228 92.900894 
L 193.803365 91.482353 
L 193.919901 91.482353 
L 193.919901 91.127718 
L 194.057911 91.127718 
L 194.057911 90.773082 
L 194.326558 90.773082 
L 194.426863 89.709176 
L 194.517981 89.709176 
L 194.617274 88.645271 
L 194.7631 88.645271 
L 194.839848 87.581365 
L 194.88235 87.581365 
L 194.88235 86.872094 
L 195.038779 86.872094 
L 195.038779 86.517459 
L 195.231462 86.517459 
L 195.231462 86.162824 
L 195.35193 86.162824 
L 195.376758 85.453553 
L 195.516836 85.453553 
L 195.516836 85.098918 
L 195.680309 85.098918 
L 195.680309 84.744282 
L 195.995053 84.744282 
L 196.074915 83.680376 
L 196.269157 83.680376 
L 196.269157 83.325741 
L 196.457509 83.325741 
L 196.457509 82.971106 
L 196.582038 82.971106 
L 196.663314 81.9072 
L 196.748086 81.9072 
L 196.805666 80.843294 
L 197.000132 80.843294 
L 197.007718 80.134024 
L 197.117362 80.134024 
L 197.166307 79.070118 
L 197.233866 79.070118 
L 197.233866 78.715482 
L 197.371981 78.715482 
L 197.446218 78.006212 
L 197.527541 78.006212 
L 197.590142 76.942306 
L 197.64154 76.942306 
L 197.64154 76.587671 
L 197.849364 76.587671 
L 197.950618 75.523765 
L 197.968642 75.523765 
L 197.968642 75.169129 
L 198.094328 75.169129 
L 198.201395 74.459859 
L 198.427787 74.459859 
L 198.427787 74.105224 
L 198.56093 74.105224 
L 198.62019 73.041318 
L 198.841627 73.041318 
L 198.930846 72.332047 
L 198.995779 72.332047 
L 199.084272 70.558871 
L 199.199369 70.558871 
L 199.27347 69.8496 
L 199.340582 69.8496 
L 199.343931 69.140329 
L 199.636362 69.140329 
L 199.636362 68.785694 
L 199.754695 68.785694 
L 199.754695 68.431059 
L 200.092422 68.431059 
L 200.182322 67.721788 
L 200.265418 67.721788 
L 200.360844 67.012518 
L 200.392545 67.012518 
L 200.446315 66.303247 
L 200.584774 66.303247 
L 200.691072 64.884706 
L 200.781266 64.884706 
L 200.796773 64.175435 
L 201.040102 64.175435 
L 201.149951 63.466165 
L 201.195533 63.466165 
L 201.195533 63.111529 
L 201.388783 63.111529 
L 201.493633 62.402259 
L 201.606813 62.402259 
L 201.606813 62.047624 
L 201.778258 62.047624 
L 201.778258 61.692988 
L 202.012199 61.692988 
L 202.026724 60.983718 
L 202.154064 60.983718 
L 202.174244 60.274447 
L 202.294868 60.274447 
L 202.374856 59.210541 
L 202.420412 59.210541 
L 202.420412 58.855906 
L 202.539473 58.855906 
L 202.539473 58.501271 
L 202.833869 58.501271 
L 202.833869 58.146635 
L 203.151104 58.146635 
L 203.164776 57.437365 
L 203.265642 57.437365 
L 203.363266 56.728094 
L 203.436153 56.728094 
L 203.436153 56.373459 
L 203.708983 56.373459 
L 203.769961 55.664188 
L 204.279153 55.664188 
L 204.379358 54.600282 
L 204.479032 54.600282 
L 204.479032 54.245647 
L 204.623767 54.245647 
L 204.707054 53.181741 
L 204.797494 53.181741 
L 204.797494 52.827106 
L 204.914919 52.827106 
L 204.914919 52.472471 
L 205.267746 52.472471 
L 205.267746 52.117835 
L 205.413837 52.117835 
L 205.413837 51.7632 
L 205.599673 51.7632 
L 205.657223 50.344659 
L 205.90459 50.344659 
L 205.94236 49.635388 
L 206.113727 49.635388 
L 206.218592 48.926118 
L 206.362122 48.926118 
L 206.442666 48.216847 
L 206.479371 48.216847 
L 206.573103 47.507576 
L 206.891932 47.507576 
L 206.923295 46.443671 
L 207.083774 46.443671 
L 207.083774 46.089035 
L 207.289053 46.089035 
L 207.289053 45.7344 
L 207.561484 45.7344 
L 207.561484 45.379765 
L 207.701604 45.379765 
L 207.701604 45.025129 
L 207.970284 45.025129 
L 208.002015 44.315859 
L 208.739818 44.315859 
L 208.739818 43.961224 
L 208.919834 43.961224 
L 209.016211 42.542682 
L 209.696695 42.542682 
L 209.696695 42.188047 
L 209.894602 42.188047 
L 209.970901 41.124141 
L 210.128242 41.124141 
L 210.128242 40.769506 
L 210.36088 40.769506 
L 210.42231 40.060235 
L 210.502055 40.060235 
L 210.529794 39.350965 
L 210.660539 39.350965 
L 210.739283 38.641694 
L 211.095885 38.641694 
L 211.142448 37.932424 
L 211.396506 37.932424 
L 211.417671 37.223153 
L 211.568655 37.223153 
L 211.634986 36.513882 
L 211.897992 36.513882 
L 211.976866 35.449976 
L 212.761074 35.449976 
L 212.761074 35.095341 
L 212.887024 35.095341 
L 212.887024 34.740706 
L 213.054196 34.740706 
L 213.054196 34.386071 
L 213.41429 34.386071 
L 213.45546 33.6768 
L 213.697484 33.6768 
L 213.697484 33.322165 
L 213.942599 33.322165 
L 214.025645 32.612894 
L 214.111382 32.612894 
L 214.111382 32.258259 
L 214.51338 32.258259 
L 214.51338 31.903624 
L 215.019379 31.903624 
L 215.019379 31.548988 
L 215.342629 31.548988 
L 215.342629 31.194353 
L 216.315689 31.194353 
L 216.315689 30.839718 
L 218.44088 30.839718 
L 218.44088 30.485082 
L 218.949671 30.485082 
L 218.949671 30.130447 
L 219.138875 30.130447 
L 219.138875 29.775812 
L 219.427799 29.775812 
L 219.427799 29.421176 
L 220.345782 29.421176 
L 220.345782 29.066541 
L 221.14973 29.066541 
L 221.14973 28.711906 
L 222.241714 28.711906 
L 222.241714 28.357271 
L 225.837139 28.357271 
L 225.837139 28.002635 
L 226.38995 28.002635 
L 226.38995 27.648 
L 360.8064 27.648 
L 360.8064 27.648 
" style="fill:none;stroke:#ff00ff;stroke-linecap:square;stroke-width:1.5;"/>
   </g>
   <g id="line2d_41">
    <defs>
     <path d="M -0 8.485281 
L 5.091169 0 
L 0 -8.485281 
L -5.091169 -0 
z
" id="m95e4938a7b" style="stroke:#ff00ff;stroke-linejoin:miter;stroke-width:1.5;"/>
    </defs>
    <g>
     <use style="fill-opacity:0;stroke:#ff00ff;stroke-linejoin:miter;stroke-width:1.5;" x="104.344952" xlink:href="#m95e4938a7b" y="259.579482"/>
     <use style="fill-opacity:0;stroke:#ff00ff;stroke-linejoin:miter;stroke-width:1.5;" x="170.925576" xlink:href="#m95e4938a7b" y="173.048471"/>
     <use style="fill-opacity:0;stroke:#ff00ff;stroke-linejoin:miter;stroke-width:1.5;" x="211.142448" xlink:href="#m95e4938a7b" y="38.287059"/>
     <use style="fill-opacity:0;stroke:#ff00ff;stroke-linejoin:miter;stroke-width:1.5;" x="226.38995" xlink:href="#m95e4938a7b" y="27.648"/>
     <use style="fill-opacity:0;stroke:#ff00ff;stroke-linejoin:miter;stroke-width:1.5;" x="226.38995" xlink:href="#m95e4938a7b" y="27.648"/>
     <use style="fill-opacity:0;stroke:#ff00ff;stroke-linejoin:miter;stroke-width:1.5;" x="360.8064" xlink:href="#m95e4938a7b" y="27.648"/>
    </g>
   </g>
   <g id="line2d_42">
    <path style="fill:none;stroke:#ff00ff;stroke-linecap:square;stroke-width:1.5;"/>
    <g/>
   </g>
   <g id="line2d_43">
    <path clip-path="url(#p7262ea0568)" d="M 157.363398 205.320282 
" style="fill:none;stroke:#ff00ff;stroke-linecap:square;stroke-width:1.5;"/>
    <defs>
     <path d="M -12 12 
L 12 -12 
M -12 -12 
L 12 12 
" id="m78d5b85373" style="stroke:#ff00ff;"/>
    </defs>
    <g clip-path="url(#p7262ea0568)">
     <use style="fill:#ff00ff;stroke:#ff00ff;" x="157.363398" xlink:href="#m78d5b85373" y="205.320282"/>
    </g>
   </g>
   <g id="line2d_44">
    <defs>
     <path d="M 0 1.5 
C 0.397805 1.5 0.77937 1.341951 1.06066 1.06066 
C 1.341951 0.77937 1.5 0.397805 1.5 0 
C 1.5 -0.397805 1.341951 -0.77937 1.06066 -1.06066 
C 0.77937 -1.341951 0.397805 -1.5 0 -1.5 
C -0.397805 -1.5 -0.77937 -1.341951 -1.06066 -1.06066 
C -1.341951 -0.77937 -1.5 -0.397805 -1.5 0 
C -1.5 0.397805 -1.341951 0.77937 -1.06066 1.06066 
C -0.77937 1.341951 -0.397805 1.5 0 1.5 
z
" id="m0507070c18" style="stroke:#ff7500;"/>
    </defs>
    <g>
     <use style="fill:#ff7500;stroke:#ff7500;" x="249.034332" xlink:href="#m0507070c18" y="27.648"/>
     <use style="fill:#ff7500;stroke:#ff7500;" x="249.034332" xlink:href="#m0507070c18" y="27.648"/>
    </g>
   </g>
   <g id="line2d_45">
    <path d="M 36.933397 298.944 
L 36.933397 289.368847 
L 49.972572 289.368847 
L 49.972572 287.950306 
L 57.6 287.950306 
L 57.6 287.241035 
L 76.050921 287.241035 
L 76.050921 286.8864 
L 89.090095 286.8864 
L 89.090095 286.531765 
L 95.916911 286.531765 
L 95.916911 286.177129 
L 97.485448 286.177129 
L 97.485448 285.822494 
L 102.12927 285.822494 
L 102.12927 285.467859 
L 104.344952 285.467859 
L 104.344952 284.403953 
L 104.860369 284.403953 
L 104.860369 284.049318 
L 105.36204 284.049318 
L 105.36204 283.694682 
L 115.168444 283.694682 
L 115.168444 282.985412 
L 119.129494 282.985412 
L 119.129494 282.630776 
L 121.99526 282.630776 
L 121.99526 281.212235 
L 126.028642 281.212235 
L 126.028642 280.8576 
L 127.149662 280.8576 
L 127.149662 280.502965 
L 127.458055 280.502965 
L 127.458055 280.148329 
L 127.610376 280.148329 
L 127.610376 279.439059 
L 130.938718 279.439059 
L 130.938718 278.020518 
L 131.31622 278.020518 
L 131.31622 275.892706 
L 131.686295 275.892706 
L 131.686295 275.538071 
L 134.828842 275.538071 
L 134.828842 274.8288 
L 135.736814 274.8288 
L 135.736814 274.119529 
L 136.126705 274.119529 
L 136.126705 273.764894 
L 137.340774 273.764894 
L 137.430998 272.700988 
L 139.394983 272.700988 
L 139.475893 270.573176 
L 139.556456 270.573176 
L 139.556456 269.863906 
L 140.420604 269.863906 
L 140.420604 269.509271 
L 141.610664 269.509271 
L 141.610664 269.154635 
L 141.96763 269.154635 
L 141.96763 268.445365 
L 146.804934 268.445365 
L 146.804934 268.090729 
L 148.67724 268.090729 
L 148.67724 267.736094 
L 149.31003 267.736094 
L 149.31003 267.381459 
L 151.089903 267.381459 
L 151.089903 267.026824 
L 151.94125 267.026824 
L 151.94125 266.672188 
L 153.49813 266.672188 
L 153.49813 266.317553 
L 153.612719 266.317553 
L 153.612719 265.962918 
L 155.042132 265.962918 
L 155.042132 265.253647 
L 155.28758 265.253647 
L 155.28758 264.899012 
L 155.666927 264.899012 
L 155.666927 264.544376 
L 156.038776 264.544376 
L 156.038776 264.189741 
L 156.205398 264.189741 
L 156.205398 263.835106 
L 156.337642 263.835106 
L 156.337642 262.416565 
L 158.976805 262.416565 
L 158.976805 262.061929 
L 159.232748 262.061929 
L 159.232748 261.707294 
L 161.035949 261.707294 
L 161.035949 261.352659 
L 161.542347 261.352659 
L 161.542347 260.998024 
L 162.492258 260.998024 
L 162.492258 260.643388 
L 163.888041 260.643388 
L 163.888041 260.288753 
L 164.302457 260.288753 
L 164.410013 259.224847 
L 165.063478 259.224847 
L 165.125528 258.515576 
L 166.689935 258.515576 
L 166.784704 257.806306 
L 167.269949 257.806306 
L 167.288365 257.097035 
L 168.256952 257.097035 
L 168.256952 256.7424 
L 169.111393 256.7424 
L 169.144777 256.033129 
L 169.654784 256.033129 
L 169.654784 255.323859 
L 169.992581 255.323859 
L 169.992581 254.969224 
L 170.449309 254.969224 
L 170.449309 254.614588 
L 170.588827 254.614588 
L 170.588827 254.259953 
L 170.9104 254.259953 
L 170.986161 253.196047 
L 171.972982 253.196047 
L 171.972982 252.841412 
L 172.130162 252.841412 
L 172.130162 252.486776 
L 172.28604 252.486776 
L 172.28604 252.132141 
L 173.6337 252.132141 
L 173.725432 251.422871 
L 173.933441 251.422871 
L 173.933441 251.068235 
L 174.292011 251.068235 
L 174.292011 250.7136 
L 174.606487 250.7136 
L 174.606487 250.358965 
L 174.755589 250.358965 
L 174.79268 248.940424 
L 176.424352 248.940424 
L 176.424352 248.585788 
L 176.615906 248.585788 
L 176.615906 248.231153 
L 176.761083 248.231153 
L 176.761083 247.876518 
L 177.004244 247.876518 
L 177.10282 245.748706 
L 177.168252 245.748706 
L 177.168252 245.394071 
L 177.352415 245.394071 
L 177.352415 245.039435 
L 177.641253 245.039435 
L 177.704841 242.556988 
L 177.768216 242.556988 
L 177.768216 242.202353 
L 178.205956 242.202353 
L 178.267667 241.493082 
L 178.482075 241.493082 
L 178.573221 238.301365 
L 179.509312 238.301365 
L 179.509312 237.946729 
L 180.049394 237.946729 
L 180.049394 237.592094 
L 180.419348 237.592094 
L 180.465085 236.528188 
L 180.574402 236.528188 
L 180.628823 235.818918 
L 181.032039 235.818918 
L 181.129302 235.109647 
L 181.365929 235.109647 
L 181.392038 233.336471 
L 181.685435 233.336471 
L 181.685435 232.981835 
L 181.90675 232.981835 
L 181.90675 231.208659 
L 182.142212 231.208659 
L 182.142212 230.854024 
L 182.951876 230.854024 
L 183.031755 229.435482 
L 183.079521 229.435482 
L 183.190504 226.953035 
L 183.511809 226.953035 
L 183.511809 225.179859 
L 183.689679 225.179859 
L 183.774156 221.988141 
L 184.093261 221.988141 
L 184.093261 221.633506 
L 184.606031 221.633506 
L 184.606031 221.278871 
L 184.730249 221.278871 
L 184.781159 219.860329 
L 185.16222 219.860329 
L 185.254521 218.796424 
L 185.33227 218.796424 
L 185.43076 217.023247 
L 186.004306 217.023247 
L 186.011111 216.313976 
L 186.274591 216.313976 
L 186.274591 215.604706 
L 186.744988 215.604706 
L 186.836369 214.5408 
L 186.875397 214.5408 
L 186.907859 213.831529 
L 187.00491 213.831529 
L 187.00491 213.476894 
L 187.159156 213.476894 
L 187.159156 213.122259 
L 187.286736 213.122259 
L 187.343866 212.412988 
L 187.539328 212.412988 
L 187.608201 211.703718 
L 187.676822 211.703718 
L 187.676822 211.349082 
L 187.831855 211.349082 
L 187.831855 210.994447 
L 188.150287 210.994447 
L 188.150287 210.639812 
L 188.277372 210.639812 
L 188.277372 210.285176 
L 188.570607 210.285176 
L 188.570607 209.930541 
L 189.367013 209.930541 
L 189.367013 209.575906 
L 189.480507 209.575906 
L 189.480507 209.221271 
L 189.604565 209.221271 
L 189.604565 208.866635 
L 190.691041 208.866635 
L 190.701648 208.157365 
L 190.991021 208.157365 
L 191.079571 207.448094 
L 191.115912 207.448094 
L 191.115912 207.093459 
L 191.531398 207.093459 
L 191.531398 206.738824 
L 191.828363 206.738824 
L 191.932941 206.029553 
L 192.101035 206.029553 
L 192.101035 205.674918 
L 192.223682 205.674918 
L 192.243232 204.965647 
L 192.374662 204.965647 
L 192.374662 204.611012 
L 192.66826 204.611012 
L 192.758781 203.901741 
L 192.796765 203.901741 
L 192.796765 203.547106 
L 193.10724 203.547106 
L 193.191033 202.837835 
L 193.417264 202.837835 
L 193.417264 202.4832 
L 193.545328 202.4832 
L 193.590854 201.419294 
L 193.686103 201.419294 
L 193.686103 201.064659 
L 193.995709 201.064659 
L 193.995709 200.710024 
L 194.15083 200.710024 
L 194.203721 200.000753 
L 194.31781 200.000753 
L 194.31781 199.646118 
L 194.677457 199.646118 
L 194.707477 198.936847 
L 194.8143 198.936847 
L 194.916283 197.872941 
L 195.164666 197.872941 
L 195.260611 195.745129 
L 195.380893 195.745129 
L 195.4634 193.971953 
L 195.602836 193.971953 
L 195.647728 193.262682 
L 195.716895 193.262682 
L 195.757464 192.198776 
L 195.983044 192.198776 
L 195.999054 191.489506 
L 196.469219 191.489506 
L 196.519877 189.716329 
L 196.613042 189.716329 
L 196.674897 188.297788 
L 196.843956 188.297788 
L 196.950753 186.879247 
L 196.958358 186.879247 
L 197.045598 186.169976 
L 197.094729 186.169976 
L 197.155023 185.106071 
L 197.267555 185.106071 
L 197.342204 183.687529 
L 197.435101 183.687529 
L 197.49062 181.914353 
L 197.608514 181.914353 
L 197.608514 181.205082 
L 197.842111 181.205082 
L 197.860239 180.495812 
L 197.975847 180.495812 
L 198.047743 179.077271 
L 198.097907 179.077271 
L 198.197836 177.658729 
L 198.272436 177.658729 
L 198.272436 177.304094 
L 198.494476 177.304094 
L 198.581866 176.594824 
L 198.779611 176.594824 
L 198.779611 176.240188 
L 198.937692 176.240188 
L 199.04348 175.176282 
L 199.094456 175.176282 
L 199.179109 173.757741 
L 199.253289 173.757741 
L 199.333882 172.693835 
L 199.430806 172.693835 
L 199.49736 170.920659 
L 199.570299 170.920659 
L 199.570299 170.566024 
L 199.846219 170.566024 
L 199.924316 169.502118 
L 200.073102 169.502118 
L 200.137426 168.083576 
L 200.227112 168.083576 
L 200.329089 167.374306 
L 200.750214 167.374306 
L 200.799873 166.3104 
L 200.948069 166.3104 
L 200.948069 165.601129 
L 201.101209 165.601129 
L 201.134733 164.891859 
L 201.292406 164.891859 
L 201.292406 164.537224 
L 201.439783 164.537224 
L 201.439783 164.182588 
L 201.974381 164.182588 
L 201.974381 163.827953 
L 202.130976 163.827953 
L 202.220287 162.764047 
L 202.292005 162.764047 
L 202.292005 162.409412 
L 202.406188 162.409412 
L 202.480037 161.700141 
L 202.530993 161.700141 
L 202.629683 160.2816 
L 202.660593 160.2816 
L 202.660593 159.926965 
L 202.917143 159.926965 
L 203.011077 158.863059 
L 203.063366 158.863059 
L 203.172974 158.153788 
L 203.279232 158.153788 
L 203.279232 157.799153 
L 203.591777 157.799153 
L 203.591777 157.444518 
L 203.849201 157.444518 
L 203.909726 156.735247 
L 204.116147 156.735247 
L 204.217222 156.025976 
L 204.227558 156.025976 
L 204.227558 155.671341 
L 204.389605 155.671341 
L 204.476483 154.962071 
L 204.611115 154.962071 
L 204.611115 154.607435 
L 204.794988 154.607435 
L 204.889996 153.898165 
L 204.999409 153.898165 
L 204.999409 153.543529 
L 205.157428 153.543529 
L 205.157428 153.188894 
L 205.328755 153.188894 
L 205.406559 152.124988 
L 205.481626 152.124988 
L 205.582854 151.061082 
L 205.604476 151.061082 
L 205.611677 150.351812 
L 205.726528 150.351812 
L 205.738451 149.642541 
L 205.895136 149.642541 
L 206.001223 148.578635 
L 206.146414 148.578635 
L 206.146414 148.224 
L 206.408189 148.224 
L 206.454144 147.514729 
L 206.677713 147.514729 
L 206.695847 146.805459 
L 206.869497 146.805459 
L 206.896415 145.741553 
L 207.105955 145.741553 
L 207.214264 144.323012 
L 207.350421 144.323012 
L 207.448632 143.259106 
L 207.565811 143.259106 
L 207.637063 142.1952 
L 207.703751 142.1952 
L 207.703751 141.840565 
L 207.815088 141.840565 
L 207.864124 140.776659 
L 208.05689 140.776659 
L 208.145198 139.712753 
L 208.268553 139.712753 
L 208.312264 139.003482 
L 208.393174 139.003482 
L 208.467553 137.230306 
L 208.523144 137.230306 
L 208.601107 135.811765 
L 208.658347 135.811765 
L 208.658347 135.457129 
L 208.782449 135.457129 
L 208.87146 134.747859 
L 208.907752 134.747859 
L 208.93392 134.038588 
L 209.06821 134.038588 
L 209.06821 133.683953 
L 209.578499 133.683953 
L 209.578499 133.329318 
L 209.748775 133.329318 
L 209.829503 132.265412 
L 209.86591 132.265412 
L 209.909886 131.201506 
L 209.980417 131.201506 
L 209.995632 130.492235 
L 210.098013 130.492235 
L 210.098013 130.1376 
L 210.288021 130.1376 
L 210.342225 129.428329 
L 210.416733 129.428329 
L 210.424168 128.719059 
L 210.824977 128.719059 
L 210.903037 128.009788 
L 211.137082 128.009788 
L 211.226329 127.300518 
L 211.400035 127.300518 
L 211.400035 126.945882 
L 211.678497 126.945882 
L 211.785972 125.527341 
L 211.832584 125.527341 
L 211.870479 124.463435 
L 212.060523 124.463435 
L 212.125144 123.754165 
L 212.198001 123.754165 
L 212.198001 123.399529 
L 212.589609 123.399529 
L 212.663992 121.271718 
L 212.815156 121.271718 
L 212.888654 119.853176 
L 212.960243 119.853176 
L 213.060658 117.725365 
L 213.105832 117.725365 
L 213.178206 117.016094 
L 213.306187 117.016094 
L 213.385735 115.242918 
L 213.445968 115.242918 
L 213.554846 114.533647 
L 213.631785 114.533647 
L 213.699045 113.824376 
L 213.755171 113.824376 
L 213.755171 113.469741 
L 213.967243 113.469741 
L 213.967243 113.115106 
L 214.114437 113.115106 
L 214.114437 112.760471 
L 214.236225 112.760471 
L 214.331581 112.0512 
L 214.375313 112.0512 
L 214.442972 111.341929 
L 214.708243 111.341929 
L 214.802714 110.632659 
L 214.852709 110.632659 
L 214.852709 110.278024 
L 215.023745 110.278024 
L 215.023745 109.923388 
L 215.214859 109.923388 
L 215.301091 109.214118 
L 215.355501 109.214118 
L 215.371222 108.150212 
L 215.534796 108.150212 
L 215.534796 107.795576 
L 215.698363 107.795576 
L 215.748838 106.731671 
L 215.849382 106.731671 
L 215.917502 106.0224 
L 216.065402 106.0224 
L 216.065402 105.667765 
L 216.425417 105.667765 
L 216.521075 103.539953 
L 216.70296 103.539953 
L 216.754795 102.476047 
L 216.888375 102.476047 
L 216.96072 101.057506 
L 217.01316 101.057506 
L 217.030171 100.348235 
L 217.169608 100.348235 
L 217.225354 99.284329 
L 217.557675 99.284329 
L 217.651555 97.865788 
L 217.937897 97.865788 
L 218.039823 96.447247 
L 218.127633 96.447247 
L 218.1301 95.737976 
L 218.282461 95.737976 
L 218.282461 95.383341 
L 218.611209 95.383341 
L 218.714345 94.674071 
L 218.797878 94.674071 
L 218.797878 94.319435 
L 219.115475 94.319435 
L 219.211232 92.546259 
L 219.352804 92.546259 
L 219.352804 92.191624 
L 219.468057 92.191624 
L 219.493318 91.127718 
L 219.579182 91.127718 
L 219.628234 90.418447 
L 219.710083 90.418447 
L 219.788189 89.354541 
L 220.004951 89.354541 
L 220.09074 87.936 
L 220.189413 87.936 
L 220.279869 87.226729 
L 220.30846 87.226729 
L 220.407093 86.162824 
L 220.443129 86.162824 
L 220.443129 85.808188 
L 220.653595 85.808188 
L 220.720364 85.098918 
L 220.817936 85.098918 
L 220.841449 84.389647 
L 221.013692 84.389647 
L 221.086579 83.680376 
L 221.211622 83.680376 
L 221.296262 82.971106 
L 221.342081 82.971106 
L 221.380523 81.552565 
L 221.477837 81.552565 
L 221.523216 80.843294 
L 221.67199 80.843294 
L 221.736264 79.070118 
L 221.895492 79.070118 
L 221.915679 78.360847 
L 222.138316 78.360847 
L 222.246671 77.296941 
L 222.439956 77.296941 
L 222.535858 76.587671 
L 222.569017 76.587671 
L 222.67105 75.523765 
L 222.840846 75.523765 
L 222.900298 74.814494 
L 222.999603 74.814494 
L 223.047159 73.395953 
L 223.185341 73.395953 
L 223.219258 72.686682 
L 223.428933 72.686682 
L 223.428933 72.332047 
L 223.598512 72.332047 
L 223.64366 71.622776 
L 223.771146 71.622776 
L 223.848682 70.558871 
L 223.990157 70.558871 
L 224.082987 69.8496 
L 224.186094 69.8496 
L 224.186094 69.494965 
L 224.400354 69.494965 
L 224.456845 68.785694 
L 224.695058 68.785694 
L 224.695058 68.431059 
L 224.811313 68.431059 
L 224.811313 68.076424 
L 224.984359 68.076424 
L 224.995497 67.367153 
L 225.254079 67.367153 
L 225.34089 66.657882 
L 225.387083 66.657882 
L 225.491645 65.239341 
L 225.730367 65.239341 
L 225.796965 64.530071 
L 225.896015 64.530071 
L 225.950637 63.8208 
L 226.039972 63.8208 
L 226.039972 63.466165 
L 226.196501 63.466165 
L 226.202124 62.756894 
L 226.984085 62.756894 
L 227.034105 62.047624 
L 227.116921 62.047624 
L 227.116921 61.692988 
L 227.313297 61.692988 
L 227.416746 59.919812 
L 227.544329 59.919812 
L 227.544329 59.565176 
L 227.809467 59.565176 
L 227.887478 58.855906 
L 227.947605 58.855906 
L 228.053458 58.146635 
L 228.117411 58.146635 
L 228.150754 57.082729 
L 228.24755 57.082729 
L 228.324486 56.018824 
L 228.795712 56.018824 
L 228.864168 55.309553 
L 228.924733 55.309553 
L 229.014178 54.245647 
L 229.055636 54.245647 
L 229.055636 53.891012 
L 229.182893 53.891012 
L 229.202078 53.181741 
L 229.350787 53.181741 
L 229.382016 52.117835 
L 229.468643 52.117835 
L 229.575698 51.408565 
L 229.815857 51.408565 
L 229.815857 51.053929 
L 230.045132 51.053929 
L 230.045132 50.699294 
L 230.605114 50.699294 
L 230.605114 50.344659 
L 230.721709 50.344659 
L 230.769657 49.635388 
L 230.890874 49.635388 
L 230.983925 48.571482 
L 231.431452 48.571482 
L 231.527927 47.507576 
L 231.716408 47.507576 
L 231.789365 46.089035 
L 231.955745 46.089035 
L 232.05546 45.025129 
L 232.090148 45.025129 
L 232.187986 44.315859 
L 232.728829 44.315859 
L 232.783822 43.606588 
L 233.54493 43.606588 
L 233.594881 42.897318 
L 233.725107 42.897318 
L 233.757388 42.188047 
L 233.940876 42.188047 
L 233.940876 41.833412 
L 234.22879 41.833412 
L 234.22879 41.478776 
L 234.4062 41.478776 
L 234.4062 41.124141 
L 234.542809 41.124141 
L 234.542809 40.769506 
L 234.742309 40.769506 
L 234.835942 40.060235 
L 234.883597 40.060235 
L 234.883597 39.7056 
L 235.345225 39.7056 
L 235.397522 38.996329 
L 235.532035 38.996329 
L 235.532035 38.641694 
L 235.647613 38.641694 
L 235.647613 38.287059 
L 235.804959 38.287059 
L 235.811708 37.577788 
L 236.048298 37.577788 
L 236.075407 36.868518 
L 236.562815 36.868518 
L 236.562815 36.513882 
L 236.684675 36.513882 
L 236.684675 36.159247 
L 236.829506 36.159247 
L 236.829506 35.804612 
L 237.102822 35.804612 
L 237.102822 35.449976 
L 238.798759 35.449976 
L 238.798759 35.095341 
L 239.755522 35.095341 
L 239.755522 34.740706 
L 240.069052 34.740706 
L 240.069052 34.386071 
L 240.293318 34.386071 
L 240.293318 34.031435 
L 240.51982 34.031435 
L 240.552438 33.322165 
L 240.87959 33.322165 
L 240.943903 32.612894 
L 241.290327 32.612894 
L 241.290327 32.258259 
L 241.72223 32.258259 
L 241.72223 31.903624 
L 241.86146 31.903624 
L 241.86146 31.548988 
L 242.248442 31.548988 
L 242.248442 31.194353 
L 242.493971 31.194353 
L 242.493971 30.839718 
L 243.094454 30.839718 
L 243.094454 30.485082 
L 243.584125 30.485082 
L 243.584125 30.130447 
L 244.002843 30.130447 
L 244.002843 29.775812 
L 244.201354 29.775812 
L 244.298909 29.066541 
L 245.011477 29.066541 
L 245.011477 28.711906 
L 245.575109 28.711906 
L 245.575109 28.357271 
L 247.2884 28.357271 
L 247.2884 28.002635 
L 249.034332 28.002635 
L 249.034332 27.648 
L 360.8064 27.648 
L 360.8064 27.648 
" style="fill:none;stroke:#ff7500;stroke-linecap:square;stroke-width:1.5;"/>
   </g>
   <g id="line2d_46">
    <defs>
     <path d="M 0 -6 
L -1.347084 -1.854102 
L -5.706339 -1.854102 
L -2.179628 0.708204 
L -3.526712 4.854102 
L -0 2.291796 
L 3.526712 4.854102 
L 2.179628 0.708204 
L 5.706339 -1.854102 
L 1.347084 -1.854102 
z
" id="m148cb896bc" style="stroke:#ff7500;stroke-linejoin:bevel;stroke-width:1.5;"/>
    </defs>
    <g>
     <use style="fill-opacity:0;stroke:#ff7500;stroke-linejoin:bevel;stroke-width:1.5;" x="151.94125" xlink:href="#m148cb896bc" y="267.026824"/>
     <use style="fill-opacity:0;stroke:#ff7500;stroke-linejoin:bevel;stroke-width:1.5;" x="206.408189" xlink:href="#m148cb896bc" y="147.869365"/>
     <use style="fill-opacity:0;stroke:#ff7500;stroke-linejoin:bevel;stroke-width:1.5;" x="241.290327" xlink:href="#m148cb896bc" y="32.612894"/>
     <use style="fill-opacity:0;stroke:#ff7500;stroke-linejoin:bevel;stroke-width:1.5;" x="249.034332" xlink:href="#m148cb896bc" y="27.648"/>
     <use style="fill-opacity:0;stroke:#ff7500;stroke-linejoin:bevel;stroke-width:1.5;" x="249.034332" xlink:href="#m148cb896bc" y="27.648"/>
     <use style="fill-opacity:0;stroke:#ff7500;stroke-linejoin:bevel;stroke-width:1.5;" x="360.8064" xlink:href="#m148cb896bc" y="27.648"/>
    </g>
   </g>
   <g id="line2d_47">
    <path style="fill:none;stroke:#ff7500;stroke-linecap:square;stroke-width:1.5;"/>
    <g/>
   </g>
   <g id="line2d_48">
    <path clip-path="url(#p7262ea0568)" d="M 184.317924 221.633506 
" style="fill:none;stroke:#ff7500;stroke-linecap:square;stroke-width:1.5;"/>
    <defs>
     <path d="M -12 12 
L 12 -12 
M -12 -12 
L 12 12 
" id="m4a61305a8f" style="stroke:#ff7500;"/>
    </defs>
    <g clip-path="url(#p7262ea0568)">
     <use style="fill:#ff7500;stroke:#ff7500;" x="184.317924" xlink:href="#m4a61305a8f" y="221.633506"/>
    </g>
   </g>
   <g id="line2d_49">
    <path d="M 360.8064 27.648 
L 380.514816 293.51808 
" style="fill:none;stroke:#000080;stroke-linecap:square;stroke-width:1.5;"/>
    <g>
     <use style="fill-opacity:0;stroke:#000080;stroke-width:1.5;" x="360.8064" xlink:href="#m959607dc5b" y="27.648"/>
     <use style="fill-opacity:0;stroke:#000080;stroke-width:1.5;" x="380.514816" xlink:href="#m959607dc5b" y="293.51808"/>
    </g>
   </g>
   <g id="line2d_50">
    <path d="M 360.8064 27.648 
L 380.514816 206.70336 
" style="fill:none;stroke:#ff7500;stroke-linecap:square;stroke-width:1.5;"/>
    <g>
     <use style="fill-opacity:0;stroke:#ff7500;stroke-linejoin:bevel;stroke-width:1.5;" x="360.8064" xlink:href="#m148cb896bc" y="27.648"/>
     <use style="fill-opacity:0;stroke:#ff7500;stroke-linejoin:bevel;stroke-width:1.5;" x="380.514816" xlink:href="#m148cb896bc" y="206.70336"/>
    </g>
   </g>
   <g id="line2d_51">
    <path d="M 360.8064 27.648 
L 380.514816 119.88864 
" style="fill:none;stroke:#ff00ff;stroke-linecap:square;stroke-width:1.5;"/>
    <g>
     <use style="fill-opacity:0;stroke:#ff00ff;stroke-linejoin:miter;stroke-width:1.5;" x="360.8064" xlink:href="#m95e4938a7b" y="27.648"/>
     <use style="fill-opacity:0;stroke:#ff00ff;stroke-linejoin:miter;stroke-width:1.5;" x="380.514816" xlink:href="#m95e4938a7b" y="119.88864"/>
    </g>
   </g>
   <g id="line2d_52">
    <path d="M 360.8064 298.944 
L 360.8064 27.648 
" style="fill:none;stroke:#000000;stroke-linecap:square;stroke-width:1.5;"/>
   </g>
   <g id="patch_3">
    <path d="M 57.6 298.944 
L 360.8064 298.944 
" style="fill:none;stroke:#000000;stroke-linecap:square;stroke-linejoin:miter;stroke-width:0.8;"/>
   </g>
   <g id="patch_4">
    <path d="M 57.6 27.648 
L 360.8064 27.648 
" style="fill:none;stroke:#000000;stroke-linecap:square;stroke-linejoin:miter;stroke-width:0.8;"/>
   </g>
   <g id="text_13">
    <!-- different -->
    <g transform="translate(386.578944 297.381205)scale(0.14 -0.14)">
     <use xlink:href="#DejaVuSans-64"/>
     <use x="63.476562" xlink:href="#DejaVuSans-69"/>
     <use x="91.259766" xlink:href="#DejaVuSans-66"/>
     <use x="126.464844" xlink:href="#DejaVuSans-66"/>
     <use x="161.669922" xlink:href="#DejaVuSans-65"/>
     <use x="223.193359" xlink:href="#DejaVuSans-72"/>
     <use x="262.056641" xlink:href="#DejaVuSans-65"/>
     <use x="323.580078" xlink:href="#DejaVuSans-6e"/>
     <use x="386.958984" xlink:href="#DejaVuSans-74"/>
    </g>
   </g>
   <g id="text_14">
    <!-- diffcma b -->
    <g transform="translate(386.578944 210.566485)scale(0.14 -0.14)">
     <defs>
      <path d="M 3116 1747 
Q 3116 2381 2855 2742 
Q 2594 3103 2138 3103 
Q 1681 3103 1420 2742 
Q 1159 2381 1159 1747 
Q 1159 1113 1420 752 
Q 1681 391 2138 391 
Q 2594 391 2855 752 
Q 3116 1113 3116 1747 
z
M 1159 2969 
Q 1341 3281 1617 3432 
Q 1894 3584 2278 3584 
Q 2916 3584 3314 3078 
Q 3713 2572 3713 1747 
Q 3713 922 3314 415 
Q 2916 -91 2278 -91 
Q 1894 -91 1617 61 
Q 1341 213 1159 525 
L 1159 0 
L 581 0 
L 581 4863 
L 1159 4863 
L 1159 2969 
z
" id="DejaVuSans-62" transform="scale(0.015625)"/>
     </defs>
     <use xlink:href="#DejaVuSans-64"/>
     <use x="63.476562" xlink:href="#DejaVuSans-69"/>
     <use x="91.259766" xlink:href="#DejaVuSans-66"/>
     <use x="126.464844" xlink:href="#DejaVuSans-66"/>
     <use x="161.669922" xlink:href="#DejaVuSans-63"/>
     <use x="216.650391" xlink:href="#DejaVuSans-6d"/>
     <use x="314.0625" xlink:href="#DejaVuSans-61"/>
     <use x="375.341797" xlink:href="#DejaVuSans-20"/>
     <use x="407.128906" xlink:href="#DejaVuSans-62"/>
    </g>
   </g>
   <g id="text_15">
    <!-- cma.fmin  -->
    <g transform="translate(386.578944 123.751765)scale(0.14 -0.14)">
     <use xlink:href="#DejaVuSans-63"/>
     <use x="54.980469" xlink:href="#DejaVuSans-6d"/>
     <use x="152.392578" xlink:href="#DejaVuSans-61"/>
     <use x="213.671875" xlink:href="#DejaVuSans-2e"/>
     <use x="245.458984" xlink:href="#DejaVuSans-66"/>
     <use x="280.664062" xlink:href="#DejaVuSans-6d"/>
     <use x="378.076172" xlink:href="#DejaVuSans-69"/>
     <use x="405.859375" xlink:href="#DejaVuSans-6e"/>
     <use x="469.238281" xlink:href="#DejaVuSans-20"/>
    </g>
   </g>
   <g id="text_16">
    <!-- best 2009 -->
    <g transform="translate(386.578944 36.937045)scale(0.14 -0.14)">
     <defs>
      <path d="M 703 97 
L 703 672 
Q 941 559 1184 500 
Q 1428 441 1663 441 
Q 2288 441 2617 861 
Q 2947 1281 2994 2138 
Q 2813 1869 2534 1725 
Q 2256 1581 1919 1581 
Q 1219 1581 811 2004 
Q 403 2428 403 3163 
Q 403 3881 828 4315 
Q 1253 4750 1959 4750 
Q 2769 4750 3195 4129 
Q 3622 3509 3622 2328 
Q 3622 1225 3098 567 
Q 2575 -91 1691 -91 
Q 1453 -91 1209 -44 
Q 966 3 703 97 
z
M 1959 2075 
Q 2384 2075 2632 2365 
Q 2881 2656 2881 3163 
Q 2881 3666 2632 3958 
Q 2384 4250 1959 4250 
Q 1534 4250 1286 3958 
Q 1038 3666 1038 3163 
Q 1038 2656 1286 2365 
Q 1534 2075 1959 2075 
z
" id="DejaVuSans-39" transform="scale(0.015625)"/>
     </defs>
     <use xlink:href="#DejaVuSans-62"/>
     <use x="63.476562" xlink:href="#DejaVuSans-65"/>
     <use x="125" xlink:href="#DejaVuSans-73"/>
     <use x="177.099609" xlink:href="#DejaVuSans-74"/>
     <use x="216.308594" xlink:href="#DejaVuSans-20"/>
     <use x="248.095703" xlink:href="#DejaVuSans-32"/>
     <use x="311.71875" xlink:href="#DejaVuSans-30"/>
     <use x="375.341797" xlink:href="#DejaVuSans-30"/>
     <use x="438.964844" xlink:href="#DejaVuSans-39"/>
    </g>
   </g>
   <g id="text_17">
    <!-- bbob f22, 3-D -->
    <g transform="translate(60.632064 38.111366)scale(0.102 -0.102)">
     <defs>
      <path d="M 2597 2516 
Q 3050 2419 3304 2112 
Q 3559 1806 3559 1356 
Q 3559 666 3084 287 
Q 2609 -91 1734 -91 
Q 1441 -91 1130 -33 
Q 819 25 488 141 
L 488 750 
Q 750 597 1062 519 
Q 1375 441 1716 441 
Q 2309 441 2620 675 
Q 2931 909 2931 1356 
Q 2931 1769 2642 2001 
Q 2353 2234 1838 2234 
L 1294 2234 
L 1294 2753 
L 1863 2753 
Q 2328 2753 2575 2939 
Q 2822 3125 2822 3475 
Q 2822 3834 2567 4026 
Q 2313 4219 1838 4219 
Q 1578 4219 1281 4162 
Q 984 4106 628 3988 
L 628 4550 
Q 988 4650 1302 4700 
Q 1616 4750 1894 4750 
Q 2613 4750 3031 4423 
Q 3450 4097 3450 3541 
Q 3450 3153 3228 2886 
Q 3006 2619 2597 2516 
z
" id="DejaVuSans-33" transform="scale(0.015625)"/>
      <path d="M 1259 4147 
L 1259 519 
L 2022 519 
Q 2988 519 3436 956 
Q 3884 1394 3884 2338 
Q 3884 3275 3436 3711 
Q 2988 4147 2022 4147 
L 1259 4147 
z
M 628 4666 
L 1925 4666 
Q 3281 4666 3915 4102 
Q 4550 3538 4550 2338 
Q 4550 1131 3912 565 
Q 3275 0 1925 0 
L 628 0 
L 628 4666 
z
" id="DejaVuSans-44" transform="scale(0.015625)"/>
     </defs>
     <use xlink:href="#DejaVuSans-62"/>
     <use x="63.476562" xlink:href="#DejaVuSans-62"/>
     <use x="126.953125" xlink:href="#DejaVuSans-6f"/>
     <use x="188.134766" xlink:href="#DejaVuSans-62"/>
     <use x="251.611328" xlink:href="#DejaVuSans-20"/>
     <use x="283.398438" xlink:href="#DejaVuSans-66"/>
     <use x="318.603516" xlink:href="#DejaVuSans-32"/>
     <use x="382.226562" xlink:href="#DejaVuSans-32"/>
     <use x="445.849609" xlink:href="#DejaVuSans-2c"/>
     <use x="477.636719" xlink:href="#DejaVuSans-20"/>
     <use x="509.423828" xlink:href="#DejaVuSans-33"/>
     <use x="573.046875" xlink:href="#DejaVuSans-2d"/>
     <use x="609.130859" xlink:href="#DejaVuSans-44"/>
    </g>
    <!-- 51 targets: 100..1e-08 -->
    <g transform="translate(60.632064 49.533135)scale(0.102 -0.102)">
     <defs>
      <path d="M 691 4666 
L 3169 4666 
L 3169 4134 
L 1269 4134 
L 1269 2991 
Q 1406 3038 1543 3061 
Q 1681 3084 1819 3084 
Q 2600 3084 3056 2656 
Q 3513 2228 3513 1497 
Q 3513 744 3044 326 
Q 2575 -91 1722 -91 
Q 1428 -91 1123 -41 
Q 819 9 494 109 
L 494 744 
Q 775 591 1075 516 
Q 1375 441 1709 441 
Q 2250 441 2565 725 
Q 2881 1009 2881 1497 
Q 2881 1984 2565 2268 
Q 2250 2553 1709 2553 
Q 1456 2553 1204 2497 
Q 953 2441 691 2322 
L 691 4666 
z
" id="DejaVuSans-35" transform="scale(0.015625)"/>
      <path d="M 750 794 
L 1409 794 
L 1409 0 
L 750 0 
L 750 794 
z
M 750 3309 
L 1409 3309 
L 1409 2516 
L 750 2516 
L 750 3309 
z
" id="DejaVuSans-3a" transform="scale(0.015625)"/>
     </defs>
     <use xlink:href="#DejaVuSans-35"/>
     <use x="63.623047" xlink:href="#DejaVuSans-31"/>
     <use x="127.246094" xlink:href="#DejaVuSans-20"/>
     <use x="159.033203" xlink:href="#DejaVuSans-74"/>
     <use x="198.242188" xlink:href="#DejaVuSans-61"/>
     <use x="259.521484" xlink:href="#DejaVuSans-72"/>
     <use x="298.884766" xlink:href="#DejaVuSans-67"/>
     <use x="362.361328" xlink:href="#DejaVuSans-65"/>
     <use x="423.884766" xlink:href="#DejaVuSans-74"/>
     <use x="463.09375" xlink:href="#DejaVuSans-73"/>
     <use x="515.193359" xlink:href="#DejaVuSans-3a"/>
     <use x="548.884766" xlink:href="#DejaVuSans-20"/>
     <use x="580.671875" xlink:href="#DejaVuSans-31"/>
     <use x="644.294922" xlink:href="#DejaVuSans-30"/>
     <use x="707.917969" xlink:href="#DejaVuSans-30"/>
     <use x="771.541016" xlink:href="#DejaVuSans-2e"/>
     <use x="803.328125" xlink:href="#DejaVuSans-2e"/>
     <use x="835.115234" xlink:href="#DejaVuSans-31"/>
     <use x="898.738281" xlink:href="#DejaVuSans-65"/>
     <use x="960.261719" xlink:href="#DejaVuSans-2d"/>
     <use x="996.345703" xlink:href="#DejaVuSans-30"/>
     <use x="1059.96875" xlink:href="#DejaVuSans-38"/>
    </g>
    <!-- 15 instances -->
    <g transform="translate(60.632064 60.954904)scale(0.102 -0.102)">
     <use xlink:href="#DejaVuSans-31"/>
     <use x="63.623047" xlink:href="#DejaVuSans-35"/>
     <use x="127.246094" xlink:href="#DejaVuSans-20"/>
     <use x="159.033203" xlink:href="#DejaVuSans-69"/>
     <use x="186.816406" xlink:href="#DejaVuSans-6e"/>
     <use x="250.195312" xlink:href="#DejaVuSans-73"/>
     <use x="302.294922" xlink:href="#DejaVuSans-74"/>
     <use x="341.503906" xlink:href="#DejaVuSans-61"/>
     <use x="402.783203" xlink:href="#DejaVuSans-6e"/>
     <use x="466.162109" xlink:href="#DejaVuSans-63"/>
     <use x="521.142578" xlink:href="#DejaVuSans-65"/>
     <use x="582.666016" xlink:href="#DejaVuSans-73"/>
    </g>
   </g>
   <g id="text_18">
    <!-- v2.6 -->
    <g style="fill:#808080;" transform="translate(198.292262 294.151352)scale(0.1 -0.1)">
     <use xlink:href="#DejaVuSans-76"/>
     <use x="59.179688" xlink:href="#DejaVuSans-32"/>
     <use x="122.802734" xlink:href="#DejaVuSans-2e"/>
     <use x="154.589844" xlink:href="#DejaVuSans-36"/>
    </g>
   </g>
   <g id="text_19">
    <!-- 22 Gallagher 21 peaks -->
    <g transform="translate(96.0782 21.648)scale(0.2 -0.2)">
     <defs>
      <path d="M 3809 666 
L 3809 1919 
L 2778 1919 
L 2778 2438 
L 4434 2438 
L 4434 434 
Q 4069 175 3628 42 
Q 3188 -91 2688 -91 
Q 1594 -91 976 548 
Q 359 1188 359 2328 
Q 359 3472 976 4111 
Q 1594 4750 2688 4750 
Q 3144 4750 3555 4637 
Q 3966 4525 4313 4306 
L 4313 3634 
Q 3963 3931 3569 4081 
Q 3175 4231 2741 4231 
Q 1884 4231 1454 3753 
Q 1025 3275 1025 2328 
Q 1025 1384 1454 906 
Q 1884 428 2741 428 
Q 3075 428 3337 486 
Q 3600 544 3809 666 
z
" id="DejaVuSans-47" transform="scale(0.015625)"/>
      <path d="M 3513 2113 
L 3513 0 
L 2938 0 
L 2938 2094 
Q 2938 2591 2744 2837 
Q 2550 3084 2163 3084 
Q 1697 3084 1428 2787 
Q 1159 2491 1159 1978 
L 1159 0 
L 581 0 
L 581 4863 
L 1159 4863 
L 1159 2956 
Q 1366 3272 1645 3428 
Q 1925 3584 2291 3584 
Q 2894 3584 3203 3211 
Q 3513 2838 3513 2113 
z
" id="DejaVuSans-68" transform="scale(0.015625)"/>
      <path d="M 581 4863 
L 1159 4863 
L 1159 1991 
L 2875 3500 
L 3609 3500 
L 1753 1863 
L 3688 0 
L 2938 0 
L 1159 1709 
L 1159 0 
L 581 0 
L 581 4863 
z
" id="DejaVuSans-6b" transform="scale(0.015625)"/>
     </defs>
     <use xlink:href="#DejaVuSans-32"/>
     <use x="63.623047" xlink:href="#DejaVuSans-32"/>
     <use x="127.246094" xlink:href="#DejaVuSans-20"/>
     <use x="159.033203" xlink:href="#DejaVuSans-47"/>
     <use x="236.523438" xlink:href="#DejaVuSans-61"/>
     <use x="297.802734" xlink:href="#DejaVuSans-6c"/>
     <use x="325.585938" xlink:href="#DejaVuSans-6c"/>
     <use x="353.369141" xlink:href="#DejaVuSans-61"/>
     <use x="414.648438" xlink:href="#DejaVuSans-67"/>
     <use x="478.125" xlink:href="#DejaVuSans-68"/>
     <use x="541.503906" xlink:href="#DejaVuSans-65"/>
     <use x="603.027344" xlink:href="#DejaVuSans-72"/>
     <use x="644.140625" xlink:href="#DejaVuSans-20"/>
     <use x="675.927734" xlink:href="#DejaVuSans-32"/>
     <use x="739.550781" xlink:href="#DejaVuSans-31"/>
     <use x="803.173828" xlink:href="#DejaVuSans-20"/>
     <use x="834.960938" xlink:href="#DejaVuSans-70"/>
     <use x="898.4375" xlink:href="#DejaVuSans-65"/>
     <use x="959.960938" xlink:href="#DejaVuSans-61"/>
     <use x="1021.240234" xlink:href="#DejaVuSans-6b"/>
     <use x="1079.150391" xlink:href="#DejaVuSans-73"/>
    </g>
   </g>
  </g>
 </g>
 <defs>
  <clipPath id="p7262ea0568">
   <rect height="271.296" width="303.2064" x="57.6" y="27.648"/>
  </clipPath>
 </defs>
</svg>
