<?xml version="1.0" encoding="utf-8" standalone="no"?>
<!DOCTYPE svg PUBLIC "-//W3C//DTD SVG 1.1//EN"
  "http://www.w3.org/Graphics/SVG/1.1/DTD/svg11.dtd">
<svg height="345.6pt" version="1.1" viewBox="0 0 460.8 345.6" width="460.8pt" xmlns="http://www.w3.org/2000/svg" xmlns:xlink="http://www.w3.org/1999/xlink">
 <metadata>
  <rdf:RDF xmlns:cc="http://creativecommons.org/ns#" xmlns:dc="http://purl.org/dc/elements/1.1/" xmlns:rdf="http://www.w3.org/1999/02/22-rdf-syntax-ns#">
   <cc:Work>
    <dc:type rdf:resource="http://purl.org/dc/dcmitype/StillImage"/>
    <dc:date>2022-05-07T21:25:40.910896</dc:date>
    <dc:format>image/svg+xml</dc:format>
    <dc:creator>
     <cc:Agent>
      <dc:title>Matplotlib v3.4.3, https://matplotlib.org/</dc:title>
     </cc:Agent>
    </dc:creator>
   </cc:Work>
  </rdf:RDF>
 </metadata>
 <defs>
  <style type="text/css">*{stroke-linecap:butt;stroke-linejoin:round;}</style>
 </defs>
 <g id="figure_1">
  <g id="patch_1">
   <path d="M 0 345.6 
L 460.8 345.6 
L 460.8 0 
L 0 0 
z
" style="fill:#ffffff;"/>
  </g>
  <g id="axes_1">
   <g id="patch_2">
    <path d="M 57.6 298.944 
L 360.8064 298.944 
L 360.8064 27.648 
L 57.6 27.648 
z
" style="fill:#ffffff;"/>
   </g>
   <g id="line2d_1">
    <path d="M 36.933397 298.944 
L 36.933397 277.665882 
L 49.972572 277.665882 
L 49.972572 272.346353 
L 63.011746 272.346353 
L 63.011746 267.026824 
L 86.578163 267.026824 
L 86.578163 261.707294 
L 98.933205 261.707294 
L 98.933205 256.387765 
L 103.269713 256.387765 
L 103.269713 251.068235 
L 111.620752 251.068235 
L 111.620752 245.748706 
L 118.889854 245.748706 
L 118.889854 240.429176 
L 123.563797 240.429176 
L 123.563797 235.109647 
L 129.485876 235.109647 
L 129.485876 229.790118 
L 135.538796 229.790118 
L 135.538796 224.470588 
L 141.610664 224.470588 
L 141.610664 219.151059 
L 143.066428 219.151059 
L 143.066428 213.831529 
L 146.023332 213.831529 
L 146.023332 208.512 
L 147.712333 208.512 
L 147.712333 203.192471 
L 149.922224 203.192471 
L 149.922224 197.872941 
L 152.106991 197.872941 
L 152.106991 192.553412 
L 153.49813 192.553412 
L 153.49813 187.233882 
L 155.632755 187.233882 
L 155.632755 181.914353 
L 162.492258 181.914353 
L 162.492258 176.594824 
L 165.614697 176.594824 
L 165.614697 171.275294 
L 167.471536 171.275294 
L 167.471536 165.955765 
L 169.244573 165.955765 
L 169.244573 160.636235 
L 173.554715 160.636235 
L 173.554715 155.316706 
L 173.84272 155.316706 
L 173.84272 149.997176 
L 174.693607 149.997176 
L 174.693607 144.677647 
L 175.930944 144.677647 
L 175.930944 139.358118 
L 178.009191 139.358118 
L 178.009191 134.038588 
L 178.195651 134.038588 
L 178.195651 128.719059 
L 179.335488 128.719059 
L 179.335488 123.399529 
L 180.871788 123.399529 
L 180.871788 118.08 
L 181.287383 118.08 
L 181.287383 112.760471 
L 182.927846 112.760471 
L 182.927846 107.440941 
L 186.361605 107.440941 
L 186.361605 102.121412 
L 187.5456 102.121412 
L 187.5456 96.801882 
L 187.732781 96.801882 
L 187.732781 91.482353 
L 188.505176 91.482353 
L 188.505176 86.162824 
L 188.923555 86.162824 
L 188.923555 80.843294 
L 189.224176 80.843294 
L 189.224176 75.523765 
L 189.598943 75.523765 
L 189.598943 70.204235 
L 189.805819 70.204235 
L 189.805819 64.884706 
L 190.081815 64.884706 
L 190.081815 59.565176 
L 190.278055 59.565176 
L 190.278055 54.245647 
L 190.45616 54.245647 
L 190.45616 48.926118 
L 190.536563 48.926118 
L 190.536563 43.606588 
L 190.706949 43.606588 
L 190.706949 38.287059 
L 190.833733 38.287059 
L 190.833733 32.967529 
L 190.923024 32.967529 
L 190.923024 27.648 
L 360.8064 27.648 
" style="fill:none;stroke:#f5deb3;stroke-linecap:square;stroke-width:4;"/>
   </g>
   <g id="line2d_2">
    <defs>
     <path d="M -0 7.778175 
L 7.778175 0 
L 0 -7.778175 
L -7.778175 -0 
z
" id="mb18569d2f5" style="stroke:#f5deb3;stroke-linejoin:miter;stroke-width:1.5;"/>
    </defs>
    <g>
     <use style="fill:#f5deb3;stroke:#f5deb3;stroke-linejoin:miter;stroke-width:1.5;" x="103.269713" xlink:href="#mb18569d2f5" y="251.068235"/>
     <use style="fill:#f5deb3;stroke:#f5deb3;stroke-linejoin:miter;stroke-width:1.5;" x="149.922224" xlink:href="#mb18569d2f5" y="197.872941"/>
     <use style="fill:#f5deb3;stroke:#f5deb3;stroke-linejoin:miter;stroke-width:1.5;" x="189.224176" xlink:href="#mb18569d2f5" y="75.523765"/>
     <use style="fill:#f5deb3;stroke:#f5deb3;stroke-linejoin:miter;stroke-width:1.5;" x="190.923024" xlink:href="#mb18569d2f5" y="32.967529"/>
     <use style="fill:#f5deb3;stroke:#f5deb3;stroke-linejoin:miter;stroke-width:1.5;" x="190.923024" xlink:href="#mb18569d2f5" y="27.648"/>
     <use style="fill:#f5deb3;stroke:#f5deb3;stroke-linejoin:miter;stroke-width:1.5;" x="360.8064" xlink:href="#mb18569d2f5" y="27.648"/>
    </g>
   </g>
   <g id="line2d_3">
    <path style="fill:none;stroke:#f5deb3;stroke-linecap:square;stroke-width:4;"/>
    <g/>
   </g>
   <g id="line2d_4">
    <path d="M 360.8064 27.648 
L 380.514816 33.07392 
" style="fill:none;stroke:#f5deb3;stroke-linecap:square;stroke-width:4;"/>
    <g>
     <use style="fill:#f5deb3;stroke:#f5deb3;stroke-linejoin:miter;stroke-width:1.5;" x="360.8064" xlink:href="#mb18569d2f5" y="27.648"/>
     <use style="fill:#f5deb3;stroke:#f5deb3;stroke-linejoin:miter;stroke-width:1.5;" x="380.514816" xlink:href="#mb18569d2f5" y="33.07392"/>
    </g>
   </g>
   <g id="matplotlib.axis_1">
    <g id="xtick_1">
     <g id="line2d_5">
      <path clip-path="url(#p7bc057463e)" d="M 57.6 298.944 
L 57.6 27.648 
" style="fill:none;stroke:#b0b0b0;stroke-linecap:square;stroke-width:0.8;"/>
     </g>
     <g id="line2d_6">
      <defs>
       <path d="M 0 0 
L 0 3.5 
" id="m4f0b01e2dd" style="stroke:#000000;stroke-width:0.8;"/>
      </defs>
      <g>
       <use style="stroke:#000000;stroke-width:0.8;" x="57.6" xlink:href="#m4f0b01e2dd" y="298.944"/>
      </g>
     </g>
     <g id="text_1">
      <!-- 0 -->
      <g transform="translate(52.191875 318.861344)scale(0.17 -0.17)">
       <defs>
        <path d="M 2034 4250 
Q 1547 4250 1301 3770 
Q 1056 3291 1056 2328 
Q 1056 1369 1301 889 
Q 1547 409 2034 409 
Q 2525 409 2770 889 
Q 3016 1369 3016 2328 
Q 3016 3291 2770 3770 
Q 2525 4250 2034 4250 
z
M 2034 4750 
Q 2819 4750 3233 4129 
Q 3647 3509 3647 2328 
Q 3647 1150 3233 529 
Q 2819 -91 2034 -91 
Q 1250 -91 836 529 
Q 422 1150 422 2328 
Q 422 3509 836 4129 
Q 1250 4750 2034 4750 
z
" id="DejaVuSans-30" transform="scale(0.015625)"/>
       </defs>
       <use xlink:href="#DejaVuSans-30"/>
      </g>
     </g>
    </g>
    <g id="xtick_2">
     <g id="line2d_7">
      <path clip-path="url(#p7bc057463e)" d="M 144.2304 298.944 
L 144.2304 27.648 
" style="fill:none;stroke:#b0b0b0;stroke-linecap:square;stroke-width:0.8;"/>
     </g>
     <g id="line2d_8">
      <g>
       <use style="stroke:#000000;stroke-width:0.8;" x="144.2304" xlink:href="#m4f0b01e2dd" y="298.944"/>
      </g>
     </g>
     <g id="text_2">
      <!-- 2 -->
      <g transform="translate(138.822275 318.861344)scale(0.17 -0.17)">
       <defs>
        <path d="M 1228 531 
L 3431 531 
L 3431 0 
L 469 0 
L 469 531 
Q 828 903 1448 1529 
Q 2069 2156 2228 2338 
Q 2531 2678 2651 2914 
Q 2772 3150 2772 3378 
Q 2772 3750 2511 3984 
Q 2250 4219 1831 4219 
Q 1534 4219 1204 4116 
Q 875 4013 500 3803 
L 500 4441 
Q 881 4594 1212 4672 
Q 1544 4750 1819 4750 
Q 2544 4750 2975 4387 
Q 3406 4025 3406 3419 
Q 3406 3131 3298 2873 
Q 3191 2616 2906 2266 
Q 2828 2175 2409 1742 
Q 1991 1309 1228 531 
z
" id="DejaVuSans-32" transform="scale(0.015625)"/>
       </defs>
       <use xlink:href="#DejaVuSans-32"/>
      </g>
     </g>
    </g>
    <g id="xtick_3">
     <g id="line2d_9">
      <path clip-path="url(#p7bc057463e)" d="M 230.8608 298.944 
L 230.8608 27.648 
" style="fill:none;stroke:#b0b0b0;stroke-linecap:square;stroke-width:0.8;"/>
     </g>
     <g id="line2d_10">
      <g>
       <use style="stroke:#000000;stroke-width:0.8;" x="230.8608" xlink:href="#m4f0b01e2dd" y="298.944"/>
      </g>
     </g>
     <g id="text_3">
      <!-- 4 -->
      <g transform="translate(225.452675 318.861344)scale(0.17 -0.17)">
       <defs>
        <path d="M 2419 4116 
L 825 1625 
L 2419 1625 
L 2419 4116 
z
M 2253 4666 
L 3047 4666 
L 3047 1625 
L 3713 1625 
L 3713 1100 
L 3047 1100 
L 3047 0 
L 2419 0 
L 2419 1100 
L 313 1100 
L 313 1709 
L 2253 4666 
z
" id="DejaVuSans-34" transform="scale(0.015625)"/>
       </defs>
       <use xlink:href="#DejaVuSans-34"/>
      </g>
     </g>
    </g>
    <g id="xtick_4">
     <g id="line2d_11">
      <path clip-path="url(#p7bc057463e)" d="M 317.4912 298.944 
L 317.4912 27.648 
" style="fill:none;stroke:#b0b0b0;stroke-linecap:square;stroke-width:0.8;"/>
     </g>
     <g id="line2d_12">
      <g>
       <use style="stroke:#000000;stroke-width:0.8;" x="317.4912" xlink:href="#m4f0b01e2dd" y="298.944"/>
      </g>
     </g>
     <g id="text_4">
      <!-- 6 -->
      <g transform="translate(312.083075 318.861344)scale(0.17 -0.17)">
       <defs>
        <path d="M 2113 2584 
Q 1688 2584 1439 2293 
Q 1191 2003 1191 1497 
Q 1191 994 1439 701 
Q 1688 409 2113 409 
Q 2538 409 2786 701 
Q 3034 994 3034 1497 
Q 3034 2003 2786 2293 
Q 2538 2584 2113 2584 
z
M 3366 4563 
L 3366 3988 
Q 3128 4100 2886 4159 
Q 2644 4219 2406 4219 
Q 1781 4219 1451 3797 
Q 1122 3375 1075 2522 
Q 1259 2794 1537 2939 
Q 1816 3084 2150 3084 
Q 2853 3084 3261 2657 
Q 3669 2231 3669 1497 
Q 3669 778 3244 343 
Q 2819 -91 2113 -91 
Q 1303 -91 875 529 
Q 447 1150 447 2328 
Q 447 3434 972 4092 
Q 1497 4750 2381 4750 
Q 2619 4750 2861 4703 
Q 3103 4656 3366 4563 
z
" id="DejaVuSans-36" transform="scale(0.015625)"/>
       </defs>
       <use xlink:href="#DejaVuSans-36"/>
      </g>
     </g>
    </g>
    <g id="xtick_5">
     <g id="line2d_13">
      <path clip-path="url(#p7bc057463e)" d="M 100.9152 298.944 
L 100.9152 27.648 
" style="fill:none;stroke:#b0b0b0;stroke-linecap:square;stroke-width:0.8;"/>
     </g>
     <g id="line2d_14">
      <defs>
       <path d="M 0 0 
L 0 2 
" id="mdbd45a148d" style="stroke:#000000;stroke-width:0.6;"/>
      </defs>
      <g>
       <use style="stroke:#000000;stroke-width:0.6;" x="100.9152" xlink:href="#mdbd45a148d" y="298.944"/>
      </g>
     </g>
    </g>
    <g id="xtick_6">
     <g id="line2d_15">
      <path clip-path="url(#p7bc057463e)" d="M 187.5456 298.944 
L 187.5456 27.648 
" style="fill:none;stroke:#b0b0b0;stroke-linecap:square;stroke-width:0.8;"/>
     </g>
     <g id="line2d_16">
      <g>
       <use style="stroke:#000000;stroke-width:0.6;" x="187.5456" xlink:href="#mdbd45a148d" y="298.944"/>
      </g>
     </g>
    </g>
    <g id="xtick_7">
     <g id="line2d_17">
      <path clip-path="url(#p7bc057463e)" d="M 274.176 298.944 
L 274.176 27.648 
" style="fill:none;stroke:#b0b0b0;stroke-linecap:square;stroke-width:0.8;"/>
     </g>
     <g id="line2d_18">
      <g>
       <use style="stroke:#000000;stroke-width:0.6;" x="274.176" xlink:href="#mdbd45a148d" y="298.944"/>
      </g>
     </g>
    </g>
    <g id="xtick_8">
     <g id="line2d_19">
      <path clip-path="url(#p7bc057463e)" d="M 360.8064 298.944 
L 360.8064 27.648 
" style="fill:none;stroke:#b0b0b0;stroke-linecap:square;stroke-width:0.8;"/>
     </g>
     <g id="line2d_20">
      <g>
       <use style="stroke:#000000;stroke-width:0.6;" x="360.8064" xlink:href="#mdbd45a148d" y="298.944"/>
      </g>
     </g>
    </g>
    <g id="text_5">
     <!-- log10(# f-evals / dimension) -->
     <g transform="translate(88.823278 339.314156)scale(0.17 -0.17)">
      <defs>
       <path d="M 603 4863 
L 1178 4863 
L 1178 0 
L 603 0 
L 603 4863 
z
" id="DejaVuSans-6c" transform="scale(0.015625)"/>
       <path d="M 1959 3097 
Q 1497 3097 1228 2736 
Q 959 2375 959 1747 
Q 959 1119 1226 758 
Q 1494 397 1959 397 
Q 2419 397 2687 759 
Q 2956 1122 2956 1747 
Q 2956 2369 2687 2733 
Q 2419 3097 1959 3097 
z
M 1959 3584 
Q 2709 3584 3137 3096 
Q 3566 2609 3566 1747 
Q 3566 888 3137 398 
Q 2709 -91 1959 -91 
Q 1206 -91 779 398 
Q 353 888 353 1747 
Q 353 2609 779 3096 
Q 1206 3584 1959 3584 
z
" id="DejaVuSans-6f" transform="scale(0.015625)"/>
       <path d="M 2906 1791 
Q 2906 2416 2648 2759 
Q 2391 3103 1925 3103 
Q 1463 3103 1205 2759 
Q 947 2416 947 1791 
Q 947 1169 1205 825 
Q 1463 481 1925 481 
Q 2391 481 2648 825 
Q 2906 1169 2906 1791 
z
M 3481 434 
Q 3481 -459 3084 -895 
Q 2688 -1331 1869 -1331 
Q 1566 -1331 1297 -1286 
Q 1028 -1241 775 -1147 
L 775 -588 
Q 1028 -725 1275 -790 
Q 1522 -856 1778 -856 
Q 2344 -856 2625 -561 
Q 2906 -266 2906 331 
L 2906 616 
Q 2728 306 2450 153 
Q 2172 0 1784 0 
Q 1141 0 747 490 
Q 353 981 353 1791 
Q 353 2603 747 3093 
Q 1141 3584 1784 3584 
Q 2172 3584 2450 3431 
Q 2728 3278 2906 2969 
L 2906 3500 
L 3481 3500 
L 3481 434 
z
" id="DejaVuSans-67" transform="scale(0.015625)"/>
       <path d="M 794 531 
L 1825 531 
L 1825 4091 
L 703 3866 
L 703 4441 
L 1819 4666 
L 2450 4666 
L 2450 531 
L 3481 531 
L 3481 0 
L 794 0 
L 794 531 
z
" id="DejaVuSans-31" transform="scale(0.015625)"/>
       <path d="M 1984 4856 
Q 1566 4138 1362 3434 
Q 1159 2731 1159 2009 
Q 1159 1288 1364 580 
Q 1569 -128 1984 -844 
L 1484 -844 
Q 1016 -109 783 600 
Q 550 1309 550 2009 
Q 550 2706 781 3412 
Q 1013 4119 1484 4856 
L 1984 4856 
z
" id="DejaVuSans-28" transform="scale(0.015625)"/>
       <path d="M 3272 2816 
L 2363 2816 
L 2100 1772 
L 3016 1772 
L 3272 2816 
z
M 2803 4594 
L 2478 3297 
L 3391 3297 
L 3719 4594 
L 4219 4594 
L 3897 3297 
L 4872 3297 
L 4872 2816 
L 3775 2816 
L 3519 1772 
L 4513 1772 
L 4513 1294 
L 3397 1294 
L 3072 0 
L 2572 0 
L 2894 1294 
L 1978 1294 
L 1656 0 
L 1153 0 
L 1478 1294 
L 494 1294 
L 494 1772 
L 1594 1772 
L 1856 2816 
L 850 2816 
L 850 3297 
L 1978 3297 
L 2297 4594 
L 2803 4594 
z
" id="DejaVuSans-23" transform="scale(0.015625)"/>
       <path id="DejaVuSans-20" transform="scale(0.015625)"/>
       <path d="M 2375 4863 
L 2375 4384 
L 1825 4384 
Q 1516 4384 1395 4259 
Q 1275 4134 1275 3809 
L 1275 3500 
L 2222 3500 
L 2222 3053 
L 1275 3053 
L 1275 0 
L 697 0 
L 697 3053 
L 147 3053 
L 147 3500 
L 697 3500 
L 697 3744 
Q 697 4328 969 4595 
Q 1241 4863 1831 4863 
L 2375 4863 
z
" id="DejaVuSans-66" transform="scale(0.015625)"/>
       <path d="M 313 2009 
L 1997 2009 
L 1997 1497 
L 313 1497 
L 313 2009 
z
" id="DejaVuSans-2d" transform="scale(0.015625)"/>
       <path d="M 3597 1894 
L 3597 1613 
L 953 1613 
Q 991 1019 1311 708 
Q 1631 397 2203 397 
Q 2534 397 2845 478 
Q 3156 559 3463 722 
L 3463 178 
Q 3153 47 2828 -22 
Q 2503 -91 2169 -91 
Q 1331 -91 842 396 
Q 353 884 353 1716 
Q 353 2575 817 3079 
Q 1281 3584 2069 3584 
Q 2775 3584 3186 3129 
Q 3597 2675 3597 1894 
z
M 3022 2063 
Q 3016 2534 2758 2815 
Q 2500 3097 2075 3097 
Q 1594 3097 1305 2825 
Q 1016 2553 972 2059 
L 3022 2063 
z
" id="DejaVuSans-65" transform="scale(0.015625)"/>
       <path d="M 191 3500 
L 800 3500 
L 1894 563 
L 2988 3500 
L 3597 3500 
L 2284 0 
L 1503 0 
L 191 3500 
z
" id="DejaVuSans-76" transform="scale(0.015625)"/>
       <path d="M 2194 1759 
Q 1497 1759 1228 1600 
Q 959 1441 959 1056 
Q 959 750 1161 570 
Q 1363 391 1709 391 
Q 2188 391 2477 730 
Q 2766 1069 2766 1631 
L 2766 1759 
L 2194 1759 
z
M 3341 1997 
L 3341 0 
L 2766 0 
L 2766 531 
Q 2569 213 2275 61 
Q 1981 -91 1556 -91 
Q 1019 -91 701 211 
Q 384 513 384 1019 
Q 384 1609 779 1909 
Q 1175 2209 1959 2209 
L 2766 2209 
L 2766 2266 
Q 2766 2663 2505 2880 
Q 2244 3097 1772 3097 
Q 1472 3097 1187 3025 
Q 903 2953 641 2809 
L 641 3341 
Q 956 3463 1253 3523 
Q 1550 3584 1831 3584 
Q 2591 3584 2966 3190 
Q 3341 2797 3341 1997 
z
" id="DejaVuSans-61" transform="scale(0.015625)"/>
       <path d="M 2834 3397 
L 2834 2853 
Q 2591 2978 2328 3040 
Q 2066 3103 1784 3103 
Q 1356 3103 1142 2972 
Q 928 2841 928 2578 
Q 928 2378 1081 2264 
Q 1234 2150 1697 2047 
L 1894 2003 
Q 2506 1872 2764 1633 
Q 3022 1394 3022 966 
Q 3022 478 2636 193 
Q 2250 -91 1575 -91 
Q 1294 -91 989 -36 
Q 684 19 347 128 
L 347 722 
Q 666 556 975 473 
Q 1284 391 1588 391 
Q 1994 391 2212 530 
Q 2431 669 2431 922 
Q 2431 1156 2273 1281 
Q 2116 1406 1581 1522 
L 1381 1569 
Q 847 1681 609 1914 
Q 372 2147 372 2553 
Q 372 3047 722 3315 
Q 1072 3584 1716 3584 
Q 2034 3584 2315 3537 
Q 2597 3491 2834 3397 
z
" id="DejaVuSans-73" transform="scale(0.015625)"/>
       <path d="M 1625 4666 
L 2156 4666 
L 531 -594 
L 0 -594 
L 1625 4666 
z
" id="DejaVuSans-2f" transform="scale(0.015625)"/>
       <path d="M 2906 2969 
L 2906 4863 
L 3481 4863 
L 3481 0 
L 2906 0 
L 2906 525 
Q 2725 213 2448 61 
Q 2172 -91 1784 -91 
Q 1150 -91 751 415 
Q 353 922 353 1747 
Q 353 2572 751 3078 
Q 1150 3584 1784 3584 
Q 2172 3584 2448 3432 
Q 2725 3281 2906 2969 
z
M 947 1747 
Q 947 1113 1208 752 
Q 1469 391 1925 391 
Q 2381 391 2643 752 
Q 2906 1113 2906 1747 
Q 2906 2381 2643 2742 
Q 2381 3103 1925 3103 
Q 1469 3103 1208 2742 
Q 947 2381 947 1747 
z
" id="DejaVuSans-64" transform="scale(0.015625)"/>
       <path d="M 603 3500 
L 1178 3500 
L 1178 0 
L 603 0 
L 603 3500 
z
M 603 4863 
L 1178 4863 
L 1178 4134 
L 603 4134 
L 603 4863 
z
" id="DejaVuSans-69" transform="scale(0.015625)"/>
       <path d="M 3328 2828 
Q 3544 3216 3844 3400 
Q 4144 3584 4550 3584 
Q 5097 3584 5394 3201 
Q 5691 2819 5691 2113 
L 5691 0 
L 5113 0 
L 5113 2094 
Q 5113 2597 4934 2840 
Q 4756 3084 4391 3084 
Q 3944 3084 3684 2787 
Q 3425 2491 3425 1978 
L 3425 0 
L 2847 0 
L 2847 2094 
Q 2847 2600 2669 2842 
Q 2491 3084 2119 3084 
Q 1678 3084 1418 2786 
Q 1159 2488 1159 1978 
L 1159 0 
L 581 0 
L 581 3500 
L 1159 3500 
L 1159 2956 
Q 1356 3278 1631 3431 
Q 1906 3584 2284 3584 
Q 2666 3584 2933 3390 
Q 3200 3197 3328 2828 
z
" id="DejaVuSans-6d" transform="scale(0.015625)"/>
       <path d="M 3513 2113 
L 3513 0 
L 2938 0 
L 2938 2094 
Q 2938 2591 2744 2837 
Q 2550 3084 2163 3084 
Q 1697 3084 1428 2787 
Q 1159 2491 1159 1978 
L 1159 0 
L 581 0 
L 581 3500 
L 1159 3500 
L 1159 2956 
Q 1366 3272 1645 3428 
Q 1925 3584 2291 3584 
Q 2894 3584 3203 3211 
Q 3513 2838 3513 2113 
z
" id="DejaVuSans-6e" transform="scale(0.015625)"/>
       <path d="M 513 4856 
L 1013 4856 
Q 1481 4119 1714 3412 
Q 1947 2706 1947 2009 
Q 1947 1309 1714 600 
Q 1481 -109 1013 -844 
L 513 -844 
Q 928 -128 1133 580 
Q 1338 1288 1338 2009 
Q 1338 2731 1133 3434 
Q 928 4138 513 4856 
z
" id="DejaVuSans-29" transform="scale(0.015625)"/>
      </defs>
      <use xlink:href="#DejaVuSans-6c"/>
      <use x="27.783203" xlink:href="#DejaVuSans-6f"/>
      <use x="88.964844" xlink:href="#DejaVuSans-67"/>
      <use x="152.441406" xlink:href="#DejaVuSans-31"/>
      <use x="216.064453" xlink:href="#DejaVuSans-30"/>
      <use x="279.6875" xlink:href="#DejaVuSans-28"/>
      <use x="318.701172" xlink:href="#DejaVuSans-23"/>
      <use x="402.490234" xlink:href="#DejaVuSans-20"/>
      <use x="434.277344" xlink:href="#DejaVuSans-66"/>
      <use x="463.982422" xlink:href="#DejaVuSans-2d"/>
      <use x="500.066406" xlink:href="#DejaVuSans-65"/>
      <use x="561.589844" xlink:href="#DejaVuSans-76"/>
      <use x="620.769531" xlink:href="#DejaVuSans-61"/>
      <use x="682.048828" xlink:href="#DejaVuSans-6c"/>
      <use x="709.832031" xlink:href="#DejaVuSans-73"/>
      <use x="761.931641" xlink:href="#DejaVuSans-20"/>
      <use x="793.71875" xlink:href="#DejaVuSans-2f"/>
      <use x="827.410156" xlink:href="#DejaVuSans-20"/>
      <use x="859.197266" xlink:href="#DejaVuSans-64"/>
      <use x="922.673828" xlink:href="#DejaVuSans-69"/>
      <use x="950.457031" xlink:href="#DejaVuSans-6d"/>
      <use x="1047.869141" xlink:href="#DejaVuSans-65"/>
      <use x="1109.392578" xlink:href="#DejaVuSans-6e"/>
      <use x="1172.771484" xlink:href="#DejaVuSans-73"/>
      <use x="1224.871094" xlink:href="#DejaVuSans-69"/>
      <use x="1252.654297" xlink:href="#DejaVuSans-6f"/>
      <use x="1313.835938" xlink:href="#DejaVuSans-6e"/>
      <use x="1377.214844" xlink:href="#DejaVuSans-29"/>
     </g>
    </g>
   </g>
   <g id="matplotlib.axis_2">
    <g id="ytick_1">
     <g id="line2d_21">
      <path clip-path="url(#p7bc057463e)" d="M 57.6 298.944 
L 360.8064 298.944 
" style="fill:none;stroke:#b0b0b0;stroke-linecap:square;stroke-width:0.8;"/>
     </g>
     <g id="line2d_22">
      <defs>
       <path d="M 0 0 
L -3.5 0 
" id="m77b4b9dce9" style="stroke:#000000;stroke-width:0.8;"/>
      </defs>
      <g>
       <use style="stroke:#000000;stroke-width:0.8;" x="57.6" xlink:href="#m77b4b9dce9" y="298.944"/>
      </g>
     </g>
     <g id="text_6">
      <!-- 0.0 -->
      <g transform="translate(25.155 305.02275)scale(0.16 -0.16)">
       <defs>
        <path d="M 684 794 
L 1344 794 
L 1344 0 
L 684 0 
L 684 794 
z
" id="DejaVuSans-2e" transform="scale(0.015625)"/>
       </defs>
       <use xlink:href="#DejaVuSans-30"/>
       <use x="63.623047" xlink:href="#DejaVuSans-2e"/>
       <use x="95.410156" xlink:href="#DejaVuSans-30"/>
      </g>
     </g>
    </g>
    <g id="ytick_2">
     <g id="line2d_23">
      <path clip-path="url(#p7bc057463e)" d="M 57.6 244.6848 
L 360.8064 244.6848 
" style="fill:none;stroke:#b0b0b0;stroke-linecap:square;stroke-width:0.8;"/>
     </g>
     <g id="line2d_24">
      <g>
       <use style="stroke:#000000;stroke-width:0.8;" x="57.6" xlink:href="#m77b4b9dce9" y="244.6848"/>
      </g>
     </g>
     <g id="text_7">
      <!-- 0.2 -->
      <g transform="translate(25.155 250.76355)scale(0.16 -0.16)">
       <use xlink:href="#DejaVuSans-30"/>
       <use x="63.623047" xlink:href="#DejaVuSans-2e"/>
       <use x="95.410156" xlink:href="#DejaVuSans-32"/>
      </g>
     </g>
    </g>
    <g id="ytick_3">
     <g id="line2d_25">
      <path clip-path="url(#p7bc057463e)" d="M 57.6 190.4256 
L 360.8064 190.4256 
" style="fill:none;stroke:#b0b0b0;stroke-linecap:square;stroke-width:0.8;"/>
     </g>
     <g id="line2d_26">
      <g>
       <use style="stroke:#000000;stroke-width:0.8;" x="57.6" xlink:href="#m77b4b9dce9" y="190.4256"/>
      </g>
     </g>
     <g id="text_8">
      <!-- 0.4 -->
      <g transform="translate(25.155 196.50435)scale(0.16 -0.16)">
       <use xlink:href="#DejaVuSans-30"/>
       <use x="63.623047" xlink:href="#DejaVuSans-2e"/>
       <use x="95.410156" xlink:href="#DejaVuSans-34"/>
      </g>
     </g>
    </g>
    <g id="ytick_4">
     <g id="line2d_27">
      <path clip-path="url(#p7bc057463e)" d="M 57.6 136.1664 
L 360.8064 136.1664 
" style="fill:none;stroke:#b0b0b0;stroke-linecap:square;stroke-width:0.8;"/>
     </g>
     <g id="line2d_28">
      <g>
       <use style="stroke:#000000;stroke-width:0.8;" x="57.6" xlink:href="#m77b4b9dce9" y="136.1664"/>
      </g>
     </g>
     <g id="text_9">
      <!-- 0.6 -->
      <g transform="translate(25.155 142.24515)scale(0.16 -0.16)">
       <use xlink:href="#DejaVuSans-30"/>
       <use x="63.623047" xlink:href="#DejaVuSans-2e"/>
       <use x="95.410156" xlink:href="#DejaVuSans-36"/>
      </g>
     </g>
    </g>
    <g id="ytick_5">
     <g id="line2d_29">
      <path clip-path="url(#p7bc057463e)" d="M 57.6 81.9072 
L 360.8064 81.9072 
" style="fill:none;stroke:#b0b0b0;stroke-linecap:square;stroke-width:0.8;"/>
     </g>
     <g id="line2d_30">
      <g>
       <use style="stroke:#000000;stroke-width:0.8;" x="57.6" xlink:href="#m77b4b9dce9" y="81.9072"/>
      </g>
     </g>
     <g id="text_10">
      <!-- 0.8 -->
      <g transform="translate(25.155 87.98595)scale(0.16 -0.16)">
       <defs>
        <path d="M 2034 2216 
Q 1584 2216 1326 1975 
Q 1069 1734 1069 1313 
Q 1069 891 1326 650 
Q 1584 409 2034 409 
Q 2484 409 2743 651 
Q 3003 894 3003 1313 
Q 3003 1734 2745 1975 
Q 2488 2216 2034 2216 
z
M 1403 2484 
Q 997 2584 770 2862 
Q 544 3141 544 3541 
Q 544 4100 942 4425 
Q 1341 4750 2034 4750 
Q 2731 4750 3128 4425 
Q 3525 4100 3525 3541 
Q 3525 3141 3298 2862 
Q 3072 2584 2669 2484 
Q 3125 2378 3379 2068 
Q 3634 1759 3634 1313 
Q 3634 634 3220 271 
Q 2806 -91 2034 -91 
Q 1263 -91 848 271 
Q 434 634 434 1313 
Q 434 1759 690 2068 
Q 947 2378 1403 2484 
z
M 1172 3481 
Q 1172 3119 1398 2916 
Q 1625 2713 2034 2713 
Q 2441 2713 2670 2916 
Q 2900 3119 2900 3481 
Q 2900 3844 2670 4047 
Q 2441 4250 2034 4250 
Q 1625 4250 1398 4047 
Q 1172 3844 1172 3481 
z
" id="DejaVuSans-38" transform="scale(0.015625)"/>
       </defs>
       <use xlink:href="#DejaVuSans-30"/>
       <use x="63.623047" xlink:href="#DejaVuSans-2e"/>
       <use x="95.410156" xlink:href="#DejaVuSans-38"/>
      </g>
     </g>
    </g>
    <g id="ytick_6">
     <g id="line2d_31">
      <path clip-path="url(#p7bc057463e)" d="M 57.6 27.648 
L 360.8064 27.648 
" style="fill:none;stroke:#b0b0b0;stroke-linecap:square;stroke-width:0.8;"/>
     </g>
     <g id="line2d_32">
      <g>
       <use style="stroke:#000000;stroke-width:0.8;" x="57.6" xlink:href="#m77b4b9dce9" y="27.648"/>
      </g>
     </g>
     <g id="text_11">
      <!-- 1.0 -->
      <g transform="translate(25.155 33.72675)scale(0.16 -0.16)">
       <use xlink:href="#DejaVuSans-31"/>
       <use x="63.623047" xlink:href="#DejaVuSans-2e"/>
       <use x="95.410156" xlink:href="#DejaVuSans-30"/>
      </g>
     </g>
    </g>
    <g id="text_12">
     <!-- Fraction of function,target pairs -->
     <g transform="translate(17.619531 297.681)rotate(-90)scale(0.17 -0.17)">
      <defs>
       <path d="M 628 4666 
L 3309 4666 
L 3309 4134 
L 1259 4134 
L 1259 2759 
L 3109 2759 
L 3109 2228 
L 1259 2228 
L 1259 0 
L 628 0 
L 628 4666 
z
" id="DejaVuSans-46" transform="scale(0.015625)"/>
       <path d="M 2631 2963 
Q 2534 3019 2420 3045 
Q 2306 3072 2169 3072 
Q 1681 3072 1420 2755 
Q 1159 2438 1159 1844 
L 1159 0 
L 581 0 
L 581 3500 
L 1159 3500 
L 1159 2956 
Q 1341 3275 1631 3429 
Q 1922 3584 2338 3584 
Q 2397 3584 2469 3576 
Q 2541 3569 2628 3553 
L 2631 2963 
z
" id="DejaVuSans-72" transform="scale(0.015625)"/>
       <path d="M 3122 3366 
L 3122 2828 
Q 2878 2963 2633 3030 
Q 2388 3097 2138 3097 
Q 1578 3097 1268 2742 
Q 959 2388 959 1747 
Q 959 1106 1268 751 
Q 1578 397 2138 397 
Q 2388 397 2633 464 
Q 2878 531 3122 666 
L 3122 134 
Q 2881 22 2623 -34 
Q 2366 -91 2075 -91 
Q 1284 -91 818 406 
Q 353 903 353 1747 
Q 353 2603 823 3093 
Q 1294 3584 2113 3584 
Q 2378 3584 2631 3529 
Q 2884 3475 3122 3366 
z
" id="DejaVuSans-63" transform="scale(0.015625)"/>
       <path d="M 1172 4494 
L 1172 3500 
L 2356 3500 
L 2356 3053 
L 1172 3053 
L 1172 1153 
Q 1172 725 1289 603 
Q 1406 481 1766 481 
L 2356 481 
L 2356 0 
L 1766 0 
Q 1100 0 847 248 
Q 594 497 594 1153 
L 594 3053 
L 172 3053 
L 172 3500 
L 594 3500 
L 594 4494 
L 1172 4494 
z
" id="DejaVuSans-74" transform="scale(0.015625)"/>
       <path d="M 544 1381 
L 544 3500 
L 1119 3500 
L 1119 1403 
Q 1119 906 1312 657 
Q 1506 409 1894 409 
Q 2359 409 2629 706 
Q 2900 1003 2900 1516 
L 2900 3500 
L 3475 3500 
L 3475 0 
L 2900 0 
L 2900 538 
Q 2691 219 2414 64 
Q 2138 -91 1772 -91 
Q 1169 -91 856 284 
Q 544 659 544 1381 
z
M 1991 3584 
L 1991 3584 
z
" id="DejaVuSans-75" transform="scale(0.015625)"/>
       <path d="M 750 794 
L 1409 794 
L 1409 256 
L 897 -744 
L 494 -744 
L 750 256 
L 750 794 
z
" id="DejaVuSans-2c" transform="scale(0.015625)"/>
       <path d="M 1159 525 
L 1159 -1331 
L 581 -1331 
L 581 3500 
L 1159 3500 
L 1159 2969 
Q 1341 3281 1617 3432 
Q 1894 3584 2278 3584 
Q 2916 3584 3314 3078 
Q 3713 2572 3713 1747 
Q 3713 922 3314 415 
Q 2916 -91 2278 -91 
Q 1894 -91 1617 61 
Q 1341 213 1159 525 
z
M 3116 1747 
Q 3116 2381 2855 2742 
Q 2594 3103 2138 3103 
Q 1681 3103 1420 2742 
Q 1159 2381 1159 1747 
Q 1159 1113 1420 752 
Q 1681 391 2138 391 
Q 2594 391 2855 752 
Q 3116 1113 3116 1747 
z
" id="DejaVuSans-70" transform="scale(0.015625)"/>
      </defs>
      <use xlink:href="#DejaVuSans-46"/>
      <use x="50.269531" xlink:href="#DejaVuSans-72"/>
      <use x="91.382812" xlink:href="#DejaVuSans-61"/>
      <use x="152.662109" xlink:href="#DejaVuSans-63"/>
      <use x="207.642578" xlink:href="#DejaVuSans-74"/>
      <use x="246.851562" xlink:href="#DejaVuSans-69"/>
      <use x="274.634766" xlink:href="#DejaVuSans-6f"/>
      <use x="335.816406" xlink:href="#DejaVuSans-6e"/>
      <use x="399.195312" xlink:href="#DejaVuSans-20"/>
      <use x="430.982422" xlink:href="#DejaVuSans-6f"/>
      <use x="492.164062" xlink:href="#DejaVuSans-66"/>
      <use x="527.369141" xlink:href="#DejaVuSans-20"/>
      <use x="559.15625" xlink:href="#DejaVuSans-66"/>
      <use x="594.361328" xlink:href="#DejaVuSans-75"/>
      <use x="657.740234" xlink:href="#DejaVuSans-6e"/>
      <use x="721.119141" xlink:href="#DejaVuSans-63"/>
      <use x="776.099609" xlink:href="#DejaVuSans-74"/>
      <use x="815.308594" xlink:href="#DejaVuSans-69"/>
      <use x="843.091797" xlink:href="#DejaVuSans-6f"/>
      <use x="904.273438" xlink:href="#DejaVuSans-6e"/>
      <use x="967.652344" xlink:href="#DejaVuSans-2c"/>
      <use x="999.439453" xlink:href="#DejaVuSans-74"/>
      <use x="1038.648438" xlink:href="#DejaVuSans-61"/>
      <use x="1099.927734" xlink:href="#DejaVuSans-72"/>
      <use x="1139.291016" xlink:href="#DejaVuSans-67"/>
      <use x="1202.767578" xlink:href="#DejaVuSans-65"/>
      <use x="1264.291016" xlink:href="#DejaVuSans-74"/>
      <use x="1303.5" xlink:href="#DejaVuSans-20"/>
      <use x="1335.287109" xlink:href="#DejaVuSans-70"/>
      <use x="1398.763672" xlink:href="#DejaVuSans-61"/>
      <use x="1460.042969" xlink:href="#DejaVuSans-69"/>
      <use x="1487.826172" xlink:href="#DejaVuSans-72"/>
      <use x="1528.939453" xlink:href="#DejaVuSans-73"/>
     </g>
    </g>
   </g>
   <g id="line2d_33">
    <defs>
     <path d="M 0 1.5 
C 0.397805 1.5 0.77937 1.341951 1.06066 1.06066 
C 1.341951 0.77937 1.5 0.397805 1.5 0 
C 1.5 -0.397805 1.341951 -0.77937 1.06066 -1.06066 
C 0.77937 -1.341951 0.397805 -1.5 0 -1.5 
C -0.397805 -1.5 -0.77937 -1.341951 -1.06066 -1.06066 
C -1.341951 -0.77937 -1.5 -0.397805 -1.5 0 
C -1.5 0.397805 -1.341951 0.77937 -1.06066 1.06066 
C -0.77937 1.341951 -0.397805 1.5 0 1.5 
z
" id="m9432ed839d" style="stroke:#f5deb3;"/>
    </defs>
    <g>
     <use style="fill:#f5deb3;stroke:#f5deb3;" x="190.923024" xlink:href="#m9432ed839d" y="27.648"/>
     <use style="fill:#f5deb3;stroke:#f5deb3;" x="190.923024" xlink:href="#m9432ed839d" y="27.648"/>
    </g>
   </g>
   <g id="line2d_34">
    <defs>
     <path d="M 0 1.5 
C 0.397805 1.5 0.77937 1.341951 1.06066 1.06066 
C 1.341951 0.77937 1.5 0.397805 1.5 0 
C 1.5 -0.397805 1.341951 -0.77937 1.06066 -1.06066 
C 0.77937 -1.341951 0.397805 -1.5 0 -1.5 
C -0.397805 -1.5 -0.77937 -1.341951 -1.06066 -1.06066 
C -1.341951 -0.77937 -1.5 -0.397805 -1.5 0 
C -1.5 0.397805 -1.341951 0.77937 -1.06066 1.06066 
C -0.77937 1.341951 -0.397805 1.5 0 1.5 
z
" id="mdc0308db0e" style="stroke:#000080;"/>
    </defs>
    <g>
     <use style="fill:#000080;stroke:#000080;" x="232.537655" xlink:href="#mdc0308db0e" y="27.648"/>
     <use style="fill:#000080;stroke:#000080;" x="232.537655" xlink:href="#mdc0308db0e" y="27.648"/>
    </g>
   </g>
   <g id="line2d_35">
    <path d="M 36.933397 298.944 
L 36.933397 278.375153 
L 49.972572 278.375153 
L 49.972572 274.119529 
L 57.6 274.119529 
L 57.6 271.991718 
L 63.011746 271.991718 
L 63.011746 270.927812 
L 67.209423 270.927812 
L 67.209423 269.509271 
L 70.639174 269.509271 
L 70.639174 268.8 
L 73.538988 268.8 
L 73.538988 266.672188 
L 76.050921 266.672188 
L 76.050921 266.317553 
L 78.266603 266.317553 
L 78.266603 265.962918 
L 80.248597 265.962918 
L 80.248597 265.253647 
L 82.04153 265.253647 
L 82.04153 264.189741 
L 86.578163 264.189741 
L 86.578163 263.480471 
L 87.876026 263.480471 
L 87.876026 263.125835 
L 89.090095 263.125835 
L 89.090095 262.7712 
L 91.305777 262.7712 
L 91.305777 262.416565 
L 93.287772 262.416565 
L 93.287772 260.998024 
L 95.916911 260.998024 
L 95.916911 260.288753 
L 105.850679 260.288753 
L 105.850679 259.224847 
L 110.144579 259.224847 
L 110.144579 258.515576 
L 110.897141 258.515576 
L 110.897141 257.806306 
L 113.638206 257.806306 
L 113.638206 257.097035 
L 118.64712 257.097035 
L 118.64712 256.7424 
L 119.129494 256.7424 
L 119.129494 256.387765 
L 120.944062 256.387765 
L 120.944062 255.678494 
L 122.598891 255.678494 
L 122.598891 254.969224 
L 123.750979 254.969224 
L 123.750979 254.259953 
L 129.209231 254.259953 
L 129.209231 253.550682 
L 135.538796 253.550682 
L 135.538796 253.196047 
L 137.250116 253.196047 
L 137.250116 252.841412 
L 137.963436 252.841412 
L 137.963436 251.422871 
L 139.313723 251.422871 
L 139.313723 250.358965 
L 140.26641 250.358965 
L 140.26641 249.295059 
L 142.45627 249.295059 
L 142.45627 248.940424 
L 143.52768 248.940424 
L 143.52768 248.585788 
L 145.148219 248.585788 
L 145.148219 248.231153 
L 147.607824 248.231153 
L 147.607824 247.876518 
L 151.220087 247.876518 
L 151.220087 247.167247 
L 151.392277 247.167247 
L 151.392277 246.812612 
L 152.953957 246.812612 
L 152.953957 246.457976 
L 155.18278 246.457976 
L 155.18278 246.103341 
L 155.460959 246.103341 
L 155.460959 245.748706 
L 155.870664 245.748706 
L 155.870664 245.394071 
L 156.468962 245.394071 
L 156.468962 245.039435 
L 156.985263 245.039435 
L 156.985263 244.6848 
L 157.112155 244.6848 
L 157.112155 244.330165 
L 157.61133 244.330165 
L 157.61133 243.620894 
L 157.734081 243.620894 
L 157.734081 243.266259 
L 160.777545 243.266259 
L 160.881333 242.202353 
L 160.933013 242.202353 
L 160.933013 241.847718 
L 161.087207 241.847718 
L 161.087207 241.493082 
L 161.391854 241.493082 
L 161.391854 241.138447 
L 162.180921 241.138447 
L 162.180921 240.783812 
L 162.420867 240.783812 
L 162.468491 240.074541 
L 162.845206 240.074541 
L 162.845206 239.719906 
L 163.030771 239.719906 
L 163.030771 239.010635 
L 164.580835 239.010635 
L 164.665667 237.237459 
L 165.084184 237.237459 
L 165.084184 236.173553 
L 165.290001 236.173553 
L 165.290001 235.464282 
L 166.130658 235.464282 
L 166.130658 235.109647 
L 167.306762 235.109647 
L 167.306762 234.400376 
L 167.489756 234.400376 
L 167.489756 234.045741 
L 168.028291 234.045741 
L 168.028291 233.691106 
L 168.309328 233.691106 
L 168.309328 233.336471 
L 168.825216 233.336471 
L 168.825216 232.981835 
L 169.294273 232.981835 
L 169.294273 232.6272 
L 169.589749 232.6272 
L 169.589749 232.272565 
L 170.819081 232.272565 
L 170.819081 231.917929 
L 171.031472 231.917929 
L 171.061619 231.208659 
L 171.449192 231.208659 
L 171.449192 230.499388 
L 171.88669 230.499388 
L 171.88669 230.144753 
L 172.869606 230.144753 
L 172.869606 229.790118 
L 173.24883 229.790118 
L 173.24883 229.435482 
L 173.829724 229.435482 
L 173.829724 229.080847 
L 173.985085 229.080847 
L 173.985085 228.726212 
L 174.215747 228.726212 
L 174.215747 228.371576 
L 174.443616 228.371576 
L 174.518962 227.662306 
L 174.569026 227.662306 
L 174.569026 227.307671 
L 175.352444 227.307671 
L 175.352444 226.953035 
L 175.732249 226.953035 
L 175.732249 226.5984 
L 175.942567 226.5984 
L 175.942567 226.243765 
L 176.173528 226.243765 
L 176.173528 225.889129 
L 176.84987 225.889129 
L 176.84987 225.534494 
L 177.244302 225.534494 
L 177.244302 225.179859 
L 178.154375 225.179859 
L 178.154375 224.470588 
L 178.277932 224.470588 
L 178.339408 223.406682 
L 178.883832 223.406682 
L 178.903696 222.342776 
L 179.470823 222.342776 
L 179.566899 221.278871 
L 179.946368 221.278871 
L 179.946368 220.5696 
L 180.188981 220.5696 
L 180.188981 220.214965 
L 180.755196 220.214965 
L 180.755196 219.860329 
L 180.969881 219.860329 
L 180.969881 219.151059 
L 181.269884 219.151059 
L 181.269884 218.796424 
L 181.651154 218.796424 
L 181.651154 218.441788 
L 182.275451 218.441788 
L 182.275451 218.087153 
L 183.103358 218.087153 
L 183.103358 217.732518 
L 183.324394 217.732518 
L 183.324394 217.377882 
L 183.60482 217.377882 
L 183.60482 217.023247 
L 183.758825 217.023247 
L 183.758825 216.668612 
L 183.926786 216.668612 
L 183.926786 216.313976 
L 184.213415 216.313976 
L 184.213415 215.959341 
L 184.332807 215.959341 
L 184.332807 215.604706 
L 184.598699 215.604706 
L 184.657279 213.831529 
L 184.715677 213.831529 
L 184.715677 213.476894 
L 185.219074 213.476894 
L 185.219074 213.122259 
L 185.542692 213.122259 
L 185.542692 212.767624 
L 185.695519 212.767624 
L 185.695519 211.703718 
L 185.847115 211.703718 
L 185.942953 210.285176 
L 186.692569 210.285176 
L 186.692569 209.930541 
L 187.689272 209.930541 
L 187.751397 208.157365 
L 187.887355 208.157365 
L 187.887355 207.802729 
L 188.022338 207.802729 
L 188.022338 207.448094 
L 188.24115 207.448094 
L 188.24115 207.093459 
L 188.505176 207.093459 
L 188.505176 206.738824 
L 189.206963 206.738824 
L 189.298587 205.674918 
L 189.423846 205.674918 
L 189.435192 204.965647 
L 190.136532 204.965647 
L 190.19109 204.256376 
L 190.440038 204.256376 
L 190.440038 203.901741 
L 190.557946 203.901741 
L 190.557946 203.547106 
L 190.706949 203.547106 
L 190.706949 203.192471 
L 190.833733 203.192471 
L 190.865296 202.128565 
L 190.970125 202.128565 
L 190.970125 201.773929 
L 191.424558 201.773929 
L 191.47551 201.064659 
L 191.566878 201.064659 
L 191.637636 200.000753 
L 191.728221 200.000753 
L 191.728221 198.936847 
L 191.967672 198.936847 
L 192.056685 198.227576 
L 192.330954 198.227576 
L 192.330954 197.872941 
L 193.102574 197.872941 
L 193.102574 197.163671 
L 193.325253 197.163671 
L 193.325253 196.4544 
L 193.481405 196.4544 
L 193.590854 194.681224 
L 193.735803 194.681224 
L 193.798869 193.971953 
L 194.899324 193.971953 
L 194.899324 192.908047 
L 195.093433 192.908047 
L 195.093433 191.844141 
L 195.293869 191.844141 
L 195.293869 191.489506 
L 195.574213 191.489506 
L 195.574213 191.134871 
L 195.729075 191.134871 
L 195.818153 190.070965 
L 195.866563 190.070965 
L 195.866563 189.361694 
L 196.96216 189.361694 
L 196.96216 189.007059 
L 197.293716 189.007059 
L 197.301184 186.524612 
L 197.88197 186.524612 
L 197.990248 185.815341 
L 198.311394 185.815341 
L 198.311394 185.460706 
L 198.869124 185.460706 
L 198.896581 184.751435 
L 199.040077 184.751435 
L 199.074082 184.042165 
L 199.404118 184.042165 
L 199.464112 182.268988 
L 199.576915 182.268988 
L 199.576915 181.914353 
L 199.689046 181.914353 
L 199.689046 181.559718 
L 199.911323 181.559718 
L 199.911323 181.205082 
L 200.163094 181.205082 
L 200.233501 180.141176 
L 200.512525 180.141176 
L 200.543972 179.077271 
L 200.781266 179.077271 
L 200.781266 178.722635 
L 201.343668 178.722635 
L 201.343668 178.368 
L 201.499607 178.368 
L 201.600873 177.304094 
L 202.162715 177.304094 
L 202.243267 176.240188 
L 202.369154 176.240188 
L 202.414724 174.467012 
L 202.669014 174.467012 
L 202.674626 173.757741 
L 202.864446 173.757741 
L 202.864446 173.403106 
L 203.178438 173.403106 
L 203.28738 171.984565 
L 203.384892 171.984565 
L 203.492648 171.275294 
L 203.540938 171.275294 
L 203.637148 170.566024 
L 203.653135 170.566024 
L 203.727562 169.502118 
L 204.017139 169.502118 
L 204.017139 169.147482 
L 204.19912 169.147482 
L 204.19912 168.438212 
L 204.450973 168.438212 
L 204.450973 168.083576 
L 204.588321 168.083576 
L 204.618707 167.374306 
L 204.709572 167.374306 
L 204.709572 167.019671 
L 204.880018 167.019671 
L 204.949755 164.891859 
L 205.201633 164.891859 
L 205.250628 162.764047 
L 205.372559 162.764047 
L 205.421112 161.700141 
L 205.527487 161.700141 
L 205.618876 160.990871 
L 205.762275 160.990871 
L 205.781313 160.2816 
L 205.880946 160.2816 
L 205.880946 159.926965 
L 205.994169 159.926965 
L 206.027065 158.863059 
L 206.190685 158.863059 
L 206.190685 158.508424 
L 206.325187 158.508424 
L 206.421987 157.444518 
L 207.014847 157.444518 
L 207.112604 155.671341 
L 207.4421 155.671341 
L 207.4421 154.607435 
L 207.671512 154.607435 
L 207.744508 152.834259 
L 207.94486 152.834259 
L 208.050567 152.124988 
L 208.092684 152.124988 
L 208.092684 151.770353 
L 208.243529 151.770353 
L 208.33512 150.706447 
L 208.422134 150.706447 
L 208.422134 150.351812 
L 208.566269 150.351812 
L 208.566269 149.997176 
L 208.721518 149.997176 
L 208.798664 148.933271 
L 208.867423 148.933271 
L 208.927884 146.096188 
L 209.032226 146.096188 
L 209.132012 145.032282 
L 209.219388 145.032282 
L 209.219388 144.677647 
L 209.357563 144.677647 
L 209.357563 144.323012 
L 209.522045 144.323012 
L 209.537636 142.1952 
L 209.839091 142.1952 
L 209.904156 141.131294 
L 210.271167 141.131294 
L 210.342225 138.648847 
L 210.405576 138.648847 
L 210.405576 137.939576 
L 210.770324 137.939576 
L 210.770324 137.584941 
L 210.991596 137.584941 
L 211.027623 136.875671 
L 211.124553 136.875671 
L 211.210296 136.1664 
L 211.249464 136.1664 
L 211.260132 135.457129 
L 211.380617 135.457129 
L 211.380617 135.102494 
L 211.507354 135.102494 
L 211.507354 134.038588 
L 211.713233 134.038588 
L 211.799795 132.974682 
L 211.854986 132.974682 
L 211.854986 132.620047 
L 211.971732 132.620047 
L 212.070741 131.201506 
L 212.111558 131.201506 
L 212.19631 130.1376 
L 212.22335 130.1376 
L 212.324406 128.719059 
L 212.411551 128.719059 
L 212.481644 126.945882 
L 212.594577 126.945882 
L 212.640882 126.236612 
L 212.929363 126.236612 
L 212.929363 125.881976 
L 213.084872 125.881976 
L 213.162147 124.463435 
L 213.219895 124.463435 
L 213.261492 123.399529 
L 213.357136 123.399529 
L 213.430136 121.626353 
L 213.518623 121.626353 
L 213.578433 120.562447 
L 213.880846 120.562447 
L 213.924094 119.143906 
L 214.068563 119.143906 
L 214.175429 117.016094 
L 214.257457 117.016094 
L 214.357229 115.242918 
L 214.423451 115.242918 
L 214.498421 113.469741 
L 214.647472 113.469741 
L 214.71564 112.405835 
L 214.836549 112.405835 
L 214.904037 111.341929 
L 215.017923 111.341929 
L 215.041199 109.923388 
L 215.21774 109.923388 
L 215.32402 109.214118 
L 215.335474 109.214118 
L 215.395492 108.504847 
L 215.463852 108.504847 
L 215.463852 108.150212 
L 215.734831 108.150212 
L 215.815927 106.0224 
L 215.896675 106.0224 
L 215.982611 103.539953 
L 216.03233 103.539953 
L 216.142347 101.766776 
L 216.20805 101.766776 
L 216.273524 101.057506 
L 216.36047 101.057506 
L 216.425417 99.9936 
L 216.562689 99.9936 
L 216.562689 99.284329 
L 216.688314 99.284329 
L 216.741518 98.220424 
L 216.844834 98.220424 
L 216.952841 94.319435 
L 216.986958 94.319435 
L 216.986958 93.9648 
L 217.216291 93.9648 
L 217.324767 92.546259 
L 217.404433 92.546259 
L 217.491423 91.127718 
L 217.805315 91.127718 
L 217.82288 90.418447 
L 218.118993 90.418447 
L 218.183075 88.290635 
L 218.286132 88.290635 
L 218.286132 87.936 
L 218.46877 87.936 
L 218.553398 86.517459 
L 218.704775 86.517459 
L 218.740639 85.098918 
L 218.835941 85.098918 
L 218.909471 84.035012 
L 219.055672 84.035012 
L 219.118987 82.616471 
L 219.242655 82.616471 
L 219.242655 82.261835 
L 219.402449 82.261835 
L 219.48758 80.843294 
L 219.658969 80.843294 
L 219.658969 79.779388 
L 219.78367 79.779388 
L 219.88059 79.070118 
L 219.999367 79.070118 
L 220.077396 76.587671 
L 220.119619 76.587671 
L 220.132933 75.169129 
L 220.29417 75.169129 
L 220.397253 74.105224 
L 220.443129 74.105224 
L 220.47583 72.686682 
L 220.60174 72.686682 
L 220.711762 71.622776 
L 220.827559 71.622776 
L 220.857464 70.913506 
L 221.040133 70.913506 
L 221.040133 70.558871 
L 221.162334 70.558871 
L 221.262869 69.140329 
L 221.33792 69.140329 
L 221.439593 68.076424 
L 221.532485 68.076424 
L 221.62492 66.657882 
L 221.769845 66.657882 
L 221.80438 65.948612 
L 221.921731 65.948612 
L 222.002239 63.8208 
L 222.138316 63.8208 
L 222.138316 63.466165 
L 222.348492 63.466165 
L 222.44486 62.402259 
L 222.487968 62.402259 
L 222.573888 60.629082 
L 222.618645 60.629082 
L 222.620588 59.919812 
L 222.767713 59.919812 
L 222.796616 58.855906 
L 222.884973 58.855906 
L 222.953835 56.373459 
L 223.143804 56.373459 
L 223.143804 55.664188 
L 223.277527 55.664188 
L 223.277527 55.309553 
L 223.495835 55.309553 
L 223.495835 54.954918 
L 223.616031 54.954918 
L 223.706135 54.245647 
L 223.894143 54.245647 
L 223.894143 53.536376 
L 224.013633 53.536376 
L 224.013633 53.181741 
L 224.155669 53.181741 
L 224.155669 52.827106 
L 224.355216 52.827106 
L 224.35876 52.117835 
L 224.561435 52.117835 
L 224.561435 51.7632 
L 224.79141 51.7632 
L 224.79141 51.053929 
L 224.925994 51.053929 
L 224.925994 50.699294 
L 225.124381 50.699294 
L 225.231256 49.990024 
L 225.275186 49.990024 
L 225.324065 48.216847 
L 225.680882 48.216847 
L 225.703992 46.443671 
L 225.848602 46.443671 
L 225.946566 45.025129 
L 225.996982 45.025129 
L 225.996982 44.670494 
L 226.108715 44.670494 
L 226.140977 43.961224 
L 226.555433 43.961224 
L 226.646656 41.833412 
L 226.698362 41.833412 
L 226.698362 41.478776 
L 226.818459 41.478776 
L 226.919247 38.996329 
L 227.175744 38.996329 
L 227.197089 37.932424 
L 227.353385 37.932424 
L 227.353385 37.577788 
L 227.556292 37.577788 
L 227.590644 35.804612 
L 227.725947 35.804612 
L 227.730391 35.095341 
L 228.150754 35.095341 
L 228.150754 34.740706 
L 228.438233 34.740706 
L 228.54917 33.6768 
L 228.580342 33.6768 
L 228.604394 31.903624 
L 229.486865 31.903624 
L 229.486865 31.548988 
L 229.610577 31.548988 
L 229.661439 30.485082 
L 229.753444 30.485082 
L 229.753444 30.130447 
L 230.296217 30.130447 
L 230.296217 29.421176 
L 230.542719 29.421176 
L 230.542719 29.066541 
L 231.654592 29.066541 
L 231.654592 28.711906 
L 231.818588 28.711906 
L 231.818588 28.357271 
L 232.254483 28.357271 
L 232.254483 28.002635 
L 232.537655 28.002635 
L 232.537655 27.648 
L 360.8064 27.648 
L 360.8064 27.648 
" style="fill:none;stroke:#000080;stroke-linecap:square;stroke-width:1.5;"/>
   </g>
   <g id="line2d_36">
    <defs>
     <path d="M 0 6 
C 1.591219 6 3.117479 5.367802 4.242641 4.242641 
C 5.367802 3.117479 6 1.591219 6 0 
C 6 -1.591219 5.367802 -3.117479 4.242641 -4.242641 
C 3.117479 -5.367802 1.591219 -6 0 -6 
C -1.591219 -6 -3.117479 -5.367802 -4.242641 -4.242641 
C -5.367802 -3.117479 -6 -1.591219 -6 0 
C -6 1.591219 -5.367802 3.117479 -4.242641 4.242641 
C -3.117479 5.367802 -1.591219 6 0 6 
z
" id="m91563e3a18" style="stroke:#000080;stroke-width:1.5;"/>
    </defs>
    <g>
     <use style="fill-opacity:0;stroke:#000080;stroke-width:1.5;" x="86.578163" xlink:href="#m91563e3a18" y="263.480471"/>
     <use style="fill-opacity:0;stroke:#000080;stroke-width:1.5;" x="177.244302" xlink:href="#m91563e3a18" y="225.534494"/>
     <use style="fill-opacity:0;stroke:#000080;stroke-width:1.5;" x="214.151056" xlink:href="#m91563e3a18" y="118.789271"/>
     <use style="fill-opacity:0;stroke:#000080;stroke-width:1.5;" x="232.537655" xlink:href="#m91563e3a18" y="28.002635"/>
     <use style="fill-opacity:0;stroke:#000080;stroke-width:1.5;" x="232.537655" xlink:href="#m91563e3a18" y="27.648"/>
     <use style="fill-opacity:0;stroke:#000080;stroke-width:1.5;" x="360.8064" xlink:href="#m91563e3a18" y="27.648"/>
    </g>
   </g>
   <g id="line2d_37">
    <path style="fill:none;stroke:#000080;stroke-linecap:square;stroke-width:1.5;"/>
    <g/>
   </g>
   <g id="line2d_38">
    <defs>
     <path d="M 0 1.5 
C 0.397805 1.5 0.77937 1.341951 1.06066 1.06066 
C 1.341951 0.77937 1.5 0.397805 1.5 0 
C 1.5 -0.397805 1.341951 -0.77937 1.06066 -1.06066 
C 0.77937 -1.341951 0.397805 -1.5 0 -1.5 
C -0.397805 -1.5 -0.77937 -1.341951 -1.06066 -1.06066 
C -1.341951 -0.77937 -1.5 -0.397805 -1.5 0 
C -1.5 0.397805 -1.341951 0.77937 -1.06066 1.06066 
C -0.77937 1.341951 -0.397805 1.5 0 1.5 
z
" id="m39b96fc3e8" style="stroke:#ff00ff;"/>
    </defs>
    <g>
     <use style="fill:#ff00ff;stroke:#ff00ff;" x="255.27803" xlink:href="#m39b96fc3e8" y="27.648"/>
     <use style="fill:#ff00ff;stroke:#ff00ff;" x="255.27803" xlink:href="#m39b96fc3e8" y="27.648"/>
    </g>
   </g>
   <g id="line2d_39">
    <path d="M 36.933397 298.944 
L 36.933397 276.601976 
L 49.972572 276.601976 
L 49.972572 271.637082 
L 57.6 271.637082 
L 57.6 269.863906 
L 63.011746 269.863906 
L 63.011746 268.8 
L 67.209423 268.8 
L 67.209423 267.026824 
L 70.639174 267.026824 
L 70.639174 265.608282 
L 73.538988 265.608282 
L 73.538988 265.253647 
L 76.050921 265.253647 
L 76.050921 264.899012 
L 78.266603 264.899012 
L 78.266603 263.835106 
L 80.248597 263.835106 
L 80.248597 262.7712 
L 83.678349 262.7712 
L 83.678349 261.707294 
L 86.578163 261.707294 
L 86.578163 260.288753 
L 90.230539 260.288753 
L 90.230539 259.579482 
L 91.305777 259.579482 
L 91.305777 258.515576 
L 92.322865 258.515576 
L 92.322865 258.160941 
L 94.205591 258.160941 
L 94.205591 257.806306 
L 98.933205 257.806306 
L 98.933205 257.451671 
L 101.532027 257.451671 
L 101.532027 257.097035 
L 103.269713 257.097035 
L 103.269713 256.7424 
L 104.860369 256.7424 
L 104.860369 256.387765 
L 107.68741 256.387765 
L 107.68741 256.033129 
L 108.119879 256.033129 
L 108.119879 255.678494 
L 108.542628 255.678494 
L 108.542628 255.323859 
L 109.360651 255.323859 
L 109.360651 254.614588 
L 110.144579 254.614588 
L 110.144579 254.259953 
L 110.524623 254.259953 
L 110.524623 253.905318 
L 111.97238 253.905318 
L 111.97238 252.486776 
L 113.316634 252.486776 
L 113.316634 251.422871 
L 114.872193 251.422871 
L 114.872193 250.7136 
L 115.168444 250.7136 
L 115.168444 250.004329 
L 115.747307 250.004329 
L 115.747307 249.649694 
L 116.030193 249.649694 
L 116.030193 249.295059 
L 116.308887 249.295059 
L 116.308887 248.231153 
L 116.583514 248.231153 
L 116.583514 247.521882 
L 117.384126 247.521882 
L 117.384126 247.167247 
L 118.152051 247.167247 
L 118.152051 246.812612 
L 118.889854 246.812612 
L 118.889854 246.457976 
L 119.129494 246.457976 
L 119.129494 246.103341 
L 121.159053 246.103341 
L 121.159053 245.394071 
L 121.371615 245.394071 
L 121.371615 245.039435 
L 123.563797 245.039435 
L 123.563797 244.6848 
L 123.750979 244.6848 
L 123.750979 244.330165 
L 124.119844 244.330165 
L 124.119844 243.975529 
L 124.3016 243.975529 
L 124.3016 243.620894 
L 125.184934 243.620894 
L 125.184934 242.911624 
L 125.695686 242.911624 
L 125.695686 242.202353 
L 126.028642 242.202353 
L 126.028642 241.847718 
L 127.304491 241.847718 
L 127.304491 241.493082 
L 127.911368 241.493082 
L 127.911368 241.138447 
L 128.060076 241.138447 
L 128.060076 240.429176 
L 128.207619 240.429176 
L 128.207619 240.074541 
L 129.348062 240.074541 
L 129.348062 239.719906 
L 130.553485 239.719906 
L 130.553485 239.365271 
L 130.811181 239.365271 
L 130.811181 239.010635 
L 130.938718 239.010635 
L 130.938718 238.301365 
L 131.31622 238.301365 
L 131.31622 237.946729 
L 131.440389 237.946729 
L 131.440389 237.237459 
L 131.929028 237.237459 
L 131.929028 236.528188 
L 132.04923 236.528188 
L 132.04923 236.173553 
L 132.405295 236.173553 
L 132.405295 235.464282 
L 133.545739 235.464282 
L 133.545739 235.109647 
L 133.765759 235.109647 
L 133.765759 234.755012 
L 134.091039 234.755012 
L 134.091039 234.400376 
L 134.304809 234.400376 
L 134.304809 234.045741 
L 135.338671 234.045741 
L 135.338671 233.336471 
L 135.638065 233.336471 
L 135.638065 232.981835 
L 137.067478 232.981835 
L 137.159019 231.917929 
L 137.340774 231.917929 
L 137.340774 231.563294 
L 137.520791 231.563294 
L 137.520791 230.499388 
L 137.875736 230.499388 
L 137.875736 230.144753 
L 139.636676 230.144753 
L 139.636676 229.435482 
L 140.032723 229.435482 
L 140.032723 228.371576 
L 140.573544 228.371576 
L 140.573544 228.016941 
L 141.320133 228.016941 
L 141.320133 227.662306 
L 141.465959 227.662306 
L 141.465959 226.953035 
L 141.610664 226.953035 
L 141.610664 225.889129 
L 141.754265 225.889129 
L 141.754265 225.534494 
L 142.038218 225.534494 
L 142.038218 225.179859 
L 142.45627 225.179859 
L 142.45627 224.470588 
L 142.661862 224.470588 
L 142.729897 223.052047 
L 143.397043 223.052047 
L 143.397043 222.697412 
L 143.721949 222.697412 
L 143.721949 222.342776 
L 144.16759 222.342776 
L 144.16759 221.633506 
L 144.417581 221.633506 
L 144.417581 220.924235 
L 144.786447 220.924235 
L 144.786447 220.214965 
L 145.148219 220.214965 
L 145.148219 219.860329 
L 145.385592 219.860329 
L 145.385592 219.505694 
L 145.678157 219.505694 
L 145.678157 219.151059 
L 146.023332 219.151059 
L 146.023332 218.796424 
L 146.306218 218.796424 
L 146.306218 218.087153 
L 146.529503 218.087153 
L 146.64016 216.668612 
L 146.695245 216.668612 
L 146.695245 216.313976 
L 147.502732 216.313976 
L 147.555352 213.476894 
L 147.764371 213.476894 
L 147.764371 213.122259 
L 147.919625 213.122259 
L 147.919625 212.767624 
L 148.124658 212.767624 
L 148.226342 212.058353 
L 149.165879 212.058353 
L 149.262102 210.994447 
L 149.689117 210.994447 
L 149.782707 209.575906 
L 149.829328 209.575906 
L 149.922224 208.866635 
L 150.014665 208.866635 
L 150.014665 207.448094 
L 150.379949 207.448094 
L 150.470172 206.738824 
L 150.515122 206.738824 
L 150.604701 203.547106 
L 150.914911 203.547106 
L 150.914911 203.192471 
L 151.046307 203.192471 
L 151.046307 202.837835 
L 151.306379 202.837835 
L 151.306379 202.4832 
L 151.435079 202.4832 
L 151.520392 201.773929 
L 151.815978 201.773929 
L 151.899585 200.710024 
L 152.106991 200.710024 
L 152.106991 200.000753 
L 152.271285 200.000753 
L 152.271285 199.646118 
L 152.434157 199.646118 
L 152.474656 198.936847 
L 152.555392 198.936847 
L 152.555392 198.227576 
L 152.795543 198.227576 
L 152.874916 197.163671 
L 153.032666 197.163671 
L 153.032666 196.809035 
L 153.802162 196.809035 
L 153.802162 196.4544 
L 153.952355 196.4544 
L 154.027004 195.745129 
L 154.064218 195.745129 
L 154.064218 194.681224 
L 154.17542 194.681224 
L 154.212341 193.971953 
L 154.39587 193.971953 
L 154.39587 193.617318 
L 154.649839 193.617318 
L 154.649839 193.262682 
L 155.077392 193.262682 
L 155.077392 192.908047 
L 155.217778 192.908047 
L 155.252711 191.844141 
L 155.357123 191.844141 
L 155.426411 190.780235 
L 155.904407 190.780235 
L 156.005274 189.716329 
L 156.038776 189.716329 
L 156.138926 187.943153 
L 156.172192 187.943153 
L 156.172192 187.588518 
L 156.501649 187.588518 
L 156.501649 187.233882 
L 156.631834 187.233882 
L 156.631834 186.524612 
L 157.080512 186.524612 
L 157.175281 185.815341 
L 157.456756 185.815341 
L 157.487772 184.751435 
L 157.672805 184.751435 
L 157.764644 183.687529 
L 157.825621 183.687529 
L 157.825621 183.332894 
L 158.306454 183.332894 
L 158.306454 182.978259 
L 158.571617 182.978259 
L 158.571617 182.623624 
L 158.861925 182.623624 
L 158.861925 181.914353 
L 159.119425 181.914353 
L 159.119425 180.495812 
L 159.260973 180.495812 
L 159.260973 180.141176 
L 159.373449 180.141176 
L 159.373449 179.786541 
L 159.624087 179.786541 
L 159.624087 179.431906 
L 159.925957 179.431906 
L 160.007451 178.722635 
L 160.249837 178.722635 
L 160.329943 177.658729 
L 160.436223 177.658729 
L 160.436223 176.949459 
L 160.568234 176.949459 
L 160.673181 176.240188 
L 160.699326 176.240188 
L 160.777545 173.403106 
L 160.82951 173.403106 
L 160.82951 172.693835 
L 160.9588 172.693835 
L 160.9588 172.3392 
L 161.138325 172.3392 
L 161.138325 170.920659 
L 161.316153 170.920659 
L 161.391854 169.856753 
L 161.442152 169.856753 
L 161.542347 169.147482 
L 161.592245 169.147482 
L 161.642011 167.728941 
L 161.716414 167.728941 
L 161.716414 167.374306 
L 161.96232 167.374306 
L 162.011118 164.891859 
L 162.492258 164.891859 
L 162.56338 164.182588 
L 162.751732 164.182588 
L 162.751732 163.827953 
L 162.984551 163.827953 
L 162.984551 163.473318 
L 163.122872 163.473318 
L 163.122872 163.118682 
L 163.643876 163.118682 
L 163.666204 162.409412 
L 164.150838 162.409412 
L 164.215967 161.345506 
L 164.410013 161.345506 
L 164.410013 160.990871 
L 164.559567 160.990871 
L 164.580835 159.926965 
L 164.834193 159.926965 
L 164.917893 159.217694 
L 164.980424 159.217694 
L 164.980424 158.863059 
L 165.104867 158.863059 
L 165.104867 158.508424 
L 165.31046 158.508424 
L 165.35131 157.799153 
L 165.695002 157.799153 
L 165.695002 157.089882 
L 166.267186 157.089882 
L 166.325396 156.380612 
L 167.047544 156.380612 
L 167.084795 155.316706 
L 167.471536 155.316706 
L 167.471536 154.962071 
L 167.689013 154.962071 
L 167.778892 154.2528 
L 167.92181 154.2528 
L 168.010586 153.543529 
L 168.221954 153.543529 
L 168.221954 152.479624 
L 168.378936 152.479624 
L 168.378936 152.124988 
L 168.892945 152.124988 
L 168.943582 151.061082 
L 169.094679 151.061082 
L 169.178101 149.642541 
L 169.557146 149.642541 
L 169.557146 149.287906 
L 169.671008 149.287906 
L 169.768058 148.224 
L 170.119687 148.224 
L 170.119687 147.869365 
L 170.635104 147.869365 
L 170.681267 147.160094 
L 170.971033 147.160094 
L 170.971033 146.805459 
L 171.434432 146.805459 
L 171.434432 146.450824 
L 172.03029 146.450824 
L 172.073157 145.386918 
L 172.384567 145.386918 
L 172.412623 144.677647 
L 172.704712 144.677647 
L 172.704712 144.323012 
L 172.85592 144.323012 
L 172.951515 143.613741 
L 172.992335 143.613741 
L 172.992335 143.259106 
L 173.289011 143.259106 
L 173.289011 142.904471 
L 173.48864 142.904471 
L 173.48864 142.549835 
L 173.803705 142.549835 
L 173.803705 142.1952 
L 174.203007 142.1952 
L 174.203007 141.840565 
L 174.556523 141.840565 
L 174.556523 141.485929 
L 174.989276 141.485929 
L 174.989276 141.131294 
L 175.183838 141.131294 
L 175.183838 140.776659 
L 175.400341 140.776659 
L 175.400341 140.422024 
L 175.942567 140.422024 
L 176.035292 139.712753 
L 176.116053 139.712753 
L 176.116053 139.358118 
L 176.230828 139.358118 
L 176.242267 138.648847 
L 176.401688 138.648847 
L 176.401688 138.294212 
L 176.660695 138.294212 
L 176.660695 137.939576 
L 176.872001 137.939576 
L 176.960266 137.230306 
L 177.222605 137.230306 
L 177.255141 136.521035 
L 177.363192 136.521035 
L 177.395487 135.457129 
L 177.513428 135.457129 
L 177.534792 134.747859 
L 177.747115 134.747859 
L 177.810347 134.038588 
L 178.040396 134.038588 
L 178.040396 133.683953 
L 178.175024 133.683953 
L 178.175024 133.329318 
L 178.38028 133.329318 
L 178.431246 132.620047 
L 178.573221 132.620047 
L 178.573221 132.265412 
L 178.724157 132.265412 
L 178.814141 131.556141 
L 179.30636 131.556141 
L 179.335488 130.846871 
L 179.432255 130.846871 
L 179.432255 130.492235 
L 179.889933 130.492235 
L 179.993268 129.073694 
L 180.318334 129.073694 
L 180.401022 127.655153 
L 180.510711 127.655153 
L 180.510711 127.300518 
L 180.665016 127.300518 
L 180.764191 126.236612 
L 180.871788 126.236612 
L 180.871788 125.881976 
L 181.252369 125.881976 
L 181.304866 124.818071 
L 181.616811 124.818071 
L 181.65973 124.1088 
L 182.092004 124.1088 
L 182.092004 123.754165 
L 182.29204 123.754165 
L 182.29204 123.399529 
L 182.440683 123.399529 
L 182.440683 123.044894 
L 182.555488 123.044894 
L 182.555488 122.690259 
L 182.774938 122.690259 
L 182.774938 121.980988 
L 183.285113 121.980988 
L 183.285113 121.626353 
L 183.566121 121.626353 
L 183.666573 120.917082 
L 183.789475 120.917082 
L 183.789475 120.562447 
L 183.995068 120.562447 
L 184.085726 119.853176 
L 184.153434 119.853176 
L 184.153434 119.498541 
L 184.288124 119.498541 
L 184.288124 119.143906 
L 184.554643 119.143906 
L 184.554643 118.789271 
L 184.99062 118.789271 
L 185.012156 118.08 
L 185.353418 118.08 
L 185.353418 117.370729 
L 185.633149 117.370729 
L 185.695519 116.661459 
L 186.187174 116.661459 
L 186.187174 116.306824 
L 186.626841 116.306824 
L 186.659734 114.888282 
L 186.959682 114.888282 
L 186.959682 114.533647 
L 187.203908 114.533647 
L 187.305798 113.824376 
L 187.318496 113.824376 
L 187.318496 113.469741 
L 187.432391 113.469741 
L 187.432391 113.115106 
L 187.676822 113.115106 
L 187.676822 112.760471 
L 188.313525 112.760471 
L 188.313525 112.405835 
L 188.800775 112.405835 
L 188.800775 112.0512 
L 188.970118 112.0512 
L 189.016566 111.341929 
L 189.13795 111.341929 
L 189.13795 110.987294 
L 189.42952 110.987294 
L 189.42952 110.632659 
L 189.587696 110.632659 
L 189.587696 110.278024 
L 189.800258 110.278024 
L 189.894579 109.214118 
L 189.933281 109.214118 
L 189.977413 108.504847 
L 190.109194 108.504847 
L 190.212869 107.440941 
L 190.305149 107.440941 
L 190.305149 107.086306 
L 190.4669 107.086306 
L 190.4669 106.731671 
L 190.680428 106.731671 
L 190.680428 106.377035 
L 191.172877 106.377035 
L 191.239978 105.313129 
L 191.526325 105.313129 
L 191.577002 104.603859 
L 191.708129 104.603859 
L 191.708129 104.249224 
L 191.828363 104.249224 
L 191.828363 103.894588 
L 192.017176 103.894588 
L 192.017176 103.539953 
L 192.174719 103.539953 
L 192.223682 102.830682 
L 192.374662 102.830682 
L 192.374662 102.476047 
L 192.567702 102.476047 
L 192.567702 102.121412 
L 193.04649 102.121412 
L 193.04649 101.766776 
L 193.246689 101.766776 
L 193.246689 101.412141 
L 193.380514 101.412141 
L 193.453943 100.702871 
L 193.495121 100.702871 
L 193.495121 100.348235 
L 194.194916 100.348235 
L 194.194916 99.9936 
L 194.474647 99.9936 
L 194.474647 99.638965 
L 194.634489 99.638965 
L 194.651688 98.929694 
L 194.844102 98.929694 
L 194.844102 98.575059 
L 195.000848 98.575059 
L 195.000848 98.220424 
L 195.438686 98.220424 
L 195.438686 97.865788 
L 195.91485 97.865788 
L 195.91485 97.511153 
L 196.343939 97.511153 
L 196.449699 96.801882 
L 196.48482 96.801882 
L 196.48482 96.447247 
L 196.601421 96.447247 
L 196.601421 96.092612 
L 196.721154 96.092612 
L 196.778817 95.383341 
L 196.836304 95.383341 
L 196.836304 95.028706 
L 197.20387 95.028706 
L 197.20387 94.674071 
L 197.31984 94.674071 
L 197.31984 94.319435 
L 197.645206 94.319435 
L 197.645206 93.9648 
L 197.834855 93.9648 
L 197.834855 93.610165 
L 198.019017 93.610165 
L 198.076424 92.900894 
L 198.346741 92.900894 
L 198.410198 92.191624 
L 199.053686 92.191624 
L 199.091062 91.482353 
L 199.82338 91.482353 
L 199.82338 91.127718 
L 200.021484 91.127718 
L 200.021484 90.773082 
L 200.348148 90.773082 
L 200.348148 90.418447 
L 200.659871 90.418447 
L 200.691072 88.645271 
L 200.821558 88.645271 
L 200.852493 87.581365 
L 201.061512 87.581365 
L 201.061512 87.226729 
L 201.734068 87.226729 
L 201.751756 86.517459 
L 201.933569 86.517459 
L 201.933569 86.162824 
L 202.067335 86.162824 
L 202.087608 85.453553 
L 203.022097 85.453553 
L 203.022097 85.098918 
L 203.311806 85.098918 
L 203.38219 84.035012 
L 203.438847 84.035012 
L 203.438847 83.680376 
L 203.888696 83.680376 
L 203.998843 82.616471 
L 204.011913 82.616471 
L 204.017139 81.9072 
L 204.129136 81.9072 
L 204.129136 81.552565 
L 204.575645 81.552565 
L 204.580717 80.843294 
L 204.691938 80.843294 
L 204.691938 80.488659 
L 205.061293 80.488659 
L 205.118048 79.779388 
L 205.177087 79.779388 
L 205.213893 78.360847 
L 205.301935 78.360847 
L 205.301935 78.006212 
L 205.652434 78.006212 
L 205.740835 77.296941 
L 205.788447 77.296941 
L 205.788447 76.942306 
L 205.956504 76.942306 
L 205.956504 76.587671 
L 206.144082 76.587671 
L 206.225562 75.8784 
L 206.389776 75.8784 
L 206.389776 75.523765 
L 206.559415 75.523765 
L 206.623207 74.459859 
L 206.729801 74.459859 
L 206.729801 74.105224 
L 207.068232 74.105224 
L 207.068232 73.750588 
L 207.520328 73.750588 
L 207.591752 73.041318 
L 207.795865 73.041318 
L 207.795865 72.686682 
L 208.004129 72.686682 
L 208.004129 72.332047 
L 208.166162 72.332047 
L 208.274803 71.622776 
L 208.644054 71.622776 
L 208.644054 71.268141 
L 208.827007 71.268141 
L 208.827007 70.913506 
L 209.022218 70.913506 
L 209.022218 70.558871 
L 209.568777 70.558871 
L 209.568777 70.204235 
L 209.967093 70.204235 
L 209.967093 69.8496 
L 210.182907 69.8496 
L 210.182907 69.494965 
L 210.586992 69.494965 
L 210.678881 68.785694 
L 210.84861 68.785694 
L 210.84861 68.431059 
L 211.579144 68.431059 
L 211.675019 67.721788 
L 211.834308 67.721788 
L 211.834308 67.367153 
L 211.98713 67.367153 
L 211.98713 67.012518 
L 212.270577 67.012518 
L 212.376407 65.948612 
L 212.569723 65.948612 
L 212.592921 65.239341 
L 212.806972 65.239341 
L 212.806972 64.884706 
L 213.113887 64.884706 
L 213.113887 64.530071 
L 213.349185 64.530071 
L 213.349185 64.175435 
L 213.893213 64.175435 
L 213.893213 63.8208 
L 214.039451 63.8208 
L 214.067032 63.111529 
L 214.170862 63.111529 
L 214.170862 62.756894 
L 214.720078 62.756894 
L 214.801241 61.338353 
L 214.93038 61.338353 
L 214.93038 60.983718 
L 215.07606 60.983718 
L 215.07606 60.629082 
L 215.191797 60.629082 
L 215.22494 59.919812 
L 215.733429 59.919812 
L 215.733429 59.565176 
L 216.210783 59.565176 
L 216.210783 59.210541 
L 216.460503 59.210541 
L 216.460503 58.855906 
L 216.676322 58.855906 
L 216.749485 58.146635 
L 216.941017 58.146635 
L 216.977779 57.437365 
L 217.406998 57.437365 
L 217.417251 56.728094 
L 217.705893 56.728094 
L 217.705893 56.373459 
L 217.830402 56.373459 
L 217.835416 55.664188 
L 218.205206 55.664188 
L 218.205206 55.309553 
L 219.243818 55.309553 
L 219.243818 54.954918 
L 219.752006 54.954918 
L 219.752006 54.600282 
L 219.944554 54.600282 
L 219.945674 53.891012 
L 220.167284 53.891012 
L 220.167284 53.536376 
L 220.564923 53.536376 
L 220.673004 52.827106 
L 221.039076 52.827106 
L 221.138168 52.117835 
L 221.277486 52.117835 
L 221.293134 51.408565 
L 221.508789 51.408565 
L 221.508789 51.053929 
L 221.84189 51.053929 
L 221.84189 50.699294 
L 222.20996 50.699294 
L 222.20996 50.344659 
L 222.412465 50.344659 
L 222.412465 49.990024 
L 222.569017 49.990024 
L 222.649718 48.926118 
L 222.690423 48.926118 
L 222.690423 48.571482 
L 222.80624 48.571482 
L 222.870596 47.862212 
L 223.171191 47.862212 
L 223.171191 47.507576 
L 223.855053 47.507576 
L 223.855053 47.152941 
L 224.438328 47.152941 
L 224.438328 46.798306 
L 224.694188 46.798306 
L 224.694188 46.443671 
L 225.504153 46.443671 
L 225.521651 45.7344 
L 226.72963 45.7344 
L 226.72963 45.379765 
L 227.345828 45.379765 
L 227.345828 45.025129 
L 227.60556 45.025129 
L 227.684419 43.961224 
L 227.784376 43.961224 
L 227.784376 43.606588 
L 228.392531 43.606588 
L 228.392531 43.251953 
L 228.550588 43.251953 
L 228.550588 42.897318 
L 228.983717 42.897318 
L 228.983717 42.542682 
L 229.125218 42.542682 
L 229.125218 42.188047 
L 229.771392 42.188047 
L 229.771392 41.833412 
L 230.195145 41.833412 
L 230.195145 41.478776 
L 230.390963 41.478776 
L 230.49163 40.414871 
L 230.95899 40.414871 
L 231.013182 39.350965 
L 231.363808 39.350965 
L 231.363808 38.996329 
L 231.749334 38.996329 
L 231.749334 38.641694 
L 232.107174 38.641694 
L 232.19266 37.577788 
L 232.303911 37.577788 
L 232.303911 37.223153 
L 232.435858 37.223153 
L 232.435858 36.868518 
L 232.775895 36.868518 
L 232.775895 36.513882 
L 233.464294 36.513882 
L 233.464294 36.159247 
L 233.895571 36.159247 
L 233.895571 35.804612 
L 234.071379 35.804612 
L 234.071379 35.449976 
L 234.780531 35.449976 
L 234.780531 35.095341 
L 235.237212 35.095341 
L 235.237212 34.740706 
L 235.541816 34.740706 
L 235.541816 34.386071 
L 235.844933 34.386071 
L 235.844933 34.031435 
L 235.991577 34.031435 
L 236.083959 33.322165 
L 236.345769 33.322165 
L 236.345769 32.967529 
L 237.23242 32.967529 
L 237.23242 32.612894 
L 237.416088 32.612894 
L 237.416088 32.258259 
L 238.3544 32.258259 
L 238.3544 31.903624 
L 239.847914 31.903624 
L 239.920496 31.194353 
L 241.015674 31.194353 
L 241.015674 30.839718 
L 241.42062 30.839718 
L 241.42062 30.485082 
L 242.273755 30.485082 
L 242.273755 30.130447 
L 242.71865 30.130447 
L 242.71865 29.775812 
L 243.0558 29.775812 
L 243.08267 29.066541 
L 243.715978 29.066541 
L 243.715978 28.711906 
L 248.851364 28.711906 
L 248.851364 28.357271 
L 249.904488 28.357271 
L 249.904488 28.002635 
L 255.27803 28.002635 
L 255.27803 27.648 
L 360.8064 27.648 
L 360.8064 27.648 
" style="fill:none;stroke:#ff00ff;stroke-linecap:square;stroke-width:1.5;"/>
   </g>
   <g id="line2d_40">
    <defs>
     <path d="M -0 8.485281 
L 5.091169 0 
L 0 -8.485281 
L -5.091169 -0 
z
" id="me14707a05a" style="stroke:#ff00ff;stroke-linejoin:miter;stroke-width:1.5;"/>
    </defs>
    <g>
     <use style="fill-opacity:0;stroke:#ff00ff;stroke-linejoin:miter;stroke-width:1.5;" x="143.721949" xlink:href="#me14707a05a" y="222.697412"/>
     <use style="fill-opacity:0;stroke:#ff00ff;stroke-linejoin:miter;stroke-width:1.5;" x="179.30636" xlink:href="#me14707a05a" y="131.201506"/>
     <use style="fill-opacity:0;stroke:#ff00ff;stroke-linejoin:miter;stroke-width:1.5;" x="249.904488" xlink:href="#me14707a05a" y="28.357271"/>
     <use style="fill-opacity:0;stroke:#ff00ff;stroke-linejoin:miter;stroke-width:1.5;" x="255.27803" xlink:href="#me14707a05a" y="27.648"/>
     <use style="fill-opacity:0;stroke:#ff00ff;stroke-linejoin:miter;stroke-width:1.5;" x="255.27803" xlink:href="#me14707a05a" y="27.648"/>
     <use style="fill-opacity:0;stroke:#ff00ff;stroke-linejoin:miter;stroke-width:1.5;" x="360.8064" xlink:href="#me14707a05a" y="27.648"/>
    </g>
   </g>
   <g id="line2d_41">
    <path style="fill:none;stroke:#ff00ff;stroke-linecap:square;stroke-width:1.5;"/>
    <g/>
   </g>
   <g id="line2d_42">
    <path clip-path="url(#p7bc057463e)" d="M 144.664294 220.924235 
" style="fill:none;stroke:#ff00ff;stroke-linecap:square;stroke-width:1.5;"/>
    <defs>
     <path d="M -12 12 
L 12 -12 
M -12 -12 
L 12 12 
" id="mde55a589a1" style="stroke:#ff00ff;"/>
    </defs>
    <g clip-path="url(#p7bc057463e)">
     <use style="fill:#ff00ff;stroke:#ff00ff;" x="144.664294" xlink:href="#mde55a589a1" y="220.924235"/>
    </g>
   </g>
   <g id="line2d_43">
    <defs>
     <path d="M 0 1.5 
C 0.397805 1.5 0.77937 1.341951 1.06066 1.06066 
C 1.341951 0.77937 1.5 0.397805 1.5 0 
C 1.5 -0.397805 1.341951 -0.77937 1.06066 -1.06066 
C 0.77937 -1.341951 0.397805 -1.5 0 -1.5 
C -0.397805 -1.5 -0.77937 -1.341951 -1.06066 -1.06066 
C -1.341951 -0.77937 -1.5 -0.397805 -1.5 0 
C -1.5 0.397805 -1.341951 0.77937 -1.06066 1.06066 
C -0.77937 1.341951 -0.397805 1.5 0 1.5 
z
" id="m50edec7d5e" style="stroke:#ff7500;"/>
    </defs>
    <g>
     <use style="fill:#ff7500;stroke:#ff7500;" x="268.974847" xlink:href="#m50edec7d5e" y="213.831529"/>
     <use style="fill:#ff7500;stroke:#ff7500;" x="268.974847" xlink:href="#m50edec7d5e" y="213.831529"/>
    </g>
   </g>
   <g id="line2d_44">
    <path d="M 36.933397 298.944 
L 36.933397 271.282447 
L 49.972572 271.282447 
L 49.972572 268.445365 
L 57.6 268.445365 
L 57.6 267.736094 
L 63.011746 267.736094 
L 63.011746 267.381459 
L 67.209423 267.381459 
L 67.209423 267.026824 
L 70.639174 267.026824 
L 70.639174 266.317553 
L 73.538988 266.317553 
L 73.538988 265.962918 
L 78.266603 265.962918 
L 78.266603 265.608282 
L 80.248597 265.608282 
L 80.248597 265.253647 
L 94.205591 265.253647 
L 94.205591 264.899012 
L 102.12927 264.899012 
L 102.12927 264.544376 
L 104.344952 264.544376 
L 104.344952 264.189741 
L 106.326946 264.189741 
L 106.326946 263.835106 
L 111.620752 263.835106 
L 111.620752 263.480471 
L 115.168444 263.480471 
L 115.168444 262.7712 
L 118.152051 262.7712 
L 118.152051 262.061929 
L 124.836562 262.061929 
L 124.836562 261.707294 
L 134.41079 261.707294 
L 134.41079 260.998024 
L 137.340774 260.998024 
L 137.430998 260.288753 
L 144.417581 260.288753 
L 144.417581 259.224847 
L 144.541342 259.224847 
L 144.541342 258.870212 
L 145.44447 258.870212 
L 145.44447 258.160941 
L 146.64016 258.160941 
L 146.64016 257.451671 
L 154.359307 257.451671 
L 154.359307 257.097035 
L 158.542339 257.097035 
L 158.542339 256.7424 
L 159.260973 256.7424 
L 159.260973 256.387765 
L 159.540912 256.387765 
L 159.540912 256.033129 
L 160.4627 256.033129 
L 160.4627 255.678494 
L 165.35131 255.678494 
L 165.35131 255.323859 
L 167.103392 255.323859 
L 167.103392 254.969224 
L 168.943582 254.969224 
L 168.943582 254.614588 
L 169.96067 254.614588 
L 169.96067 254.259953 
L 171.972982 254.259953 
L 171.972982 253.905318 
L 174.241203 253.905318 
L 174.241203 253.550682 
L 179.643407 253.550682 
L 179.643407 253.196047 
L 182.579998 253.196047 
L 182.604477 252.486776 
L 184.532577 252.486776 
L 184.532577 252.132141 
L 184.99062 252.132141 
L 185.019329 251.422871 
L 185.140856 251.422871 
L 185.140856 250.358965 
L 185.584495 250.358965 
L 185.584495 250.004329 
L 187.356538 250.004329 
L 187.356538 249.649694 
L 187.757599 249.649694 
L 187.757599 249.295059 
L 187.930409 249.295059 
L 187.942692 248.585788 
L 188.367624 248.585788 
L 188.367624 248.231153 
L 188.594344 248.231153 
L 188.594344 247.876518 
L 188.818364 247.876518 
L 188.818364 247.521882 
L 189.057115 247.521882 
L 189.057115 247.167247 
L 189.688683 247.167247 
L 189.688683 246.812612 
L 190.054397 246.812612 
L 190.054397 246.457976 
L 190.321387 246.457976 
L 190.359221 245.039435 
L 191.342746 245.039435 
L 191.342746 244.6848 
L 191.657804 244.6848 
L 191.657804 244.330165 
L 192.184522 244.330165 
L 192.184522 243.975529 
L 193.604491 243.975529 
L 193.604491 243.620894 
L 195.627336 243.620894 
L 195.627336 243.266259 
L 195.94296 243.266259 
L 195.94296 242.911624 
L 197.267555 242.911624 
L 197.267555 242.556988 
L 198.553946 242.556988 
L 198.553946 242.202353 
L 199.17573 242.202353 
L 199.185864 241.493082 
L 199.530549 241.493082 
L 199.619868 240.783812 
L 199.744862 240.783812 
L 199.744862 240.429176 
L 200.587909 240.429176 
L 200.684836 239.719906 
L 200.944993 239.719906 
L 200.944993 239.365271 
L 201.621654 239.365271 
L 201.621654 239.010635 
L 202.983498 239.010635 
L 203.05237 238.301365 
L 204.219806 238.301365 
L 204.219806 237.946729 
L 204.392166 237.946729 
L 204.392166 237.237459 
L 204.87253 237.237459 
L 204.87253 236.882824 
L 205.130363 236.882824 
L 205.130363 236.528188 
L 205.457444 236.528188 
L 205.457444 236.173553 
L 206.23253 236.173553 
L 206.23253 235.818918 
L 206.634575 235.818918 
L 206.636848 235.109647 
L 206.918818 235.109647 
L 206.918818 234.755012 
L 208.241442 234.755012 
L 208.314343 234.045741 
L 208.611341 234.045741 
L 208.611341 233.691106 
L 209.233251 233.691106 
L 209.233251 233.336471 
L 210.351554 233.336471 
L 210.351554 232.981835 
L 210.544571 232.981835 
L 210.544571 232.6272 
L 210.779444 232.6272 
L 210.779444 232.272565 
L 211.204948 232.272565 
L 211.204948 231.917929 
L 211.405328 231.917929 
L 211.405328 231.563294 
L 212.082655 231.563294 
L 212.126841 230.499388 
L 213.614541 230.499388 
L 213.724011 229.790118 
L 214.179996 229.790118 
L 214.201291 229.080847 
L 214.683069 229.080847 
L 214.683069 228.726212 
L 215.80895 228.726212 
L 215.80895 228.371576 
L 216.310254 228.371576 
L 216.310254 228.016941 
L 218.908287 228.016941 
L 218.908287 227.662306 
L 219.090873 227.662306 
L 219.090873 227.307671 
L 220.526947 227.307671 
L 220.526947 226.953035 
L 221.442697 226.953035 
L 221.442697 226.5984 
L 222.069399 226.5984 
L 222.165214 225.889129 
L 222.457607 225.889129 
L 222.457607 225.534494 
L 225.596459 225.534494 
L 225.596459 225.179859 
L 225.727896 225.179859 
L 225.727896 224.825224 
L 226.735096 224.825224 
L 226.735096 224.470588 
L 227.106206 224.470588 
L 227.106206 224.115953 
L 229.528642 224.115953 
L 229.528642 223.761318 
L 230.329142 223.761318 
L 230.433989 223.052047 
L 231.082716 223.052047 
L 231.082716 222.697412 
L 231.995931 222.697412 
L 231.995931 222.342776 
L 232.821714 222.342776 
L 232.821714 221.988141 
L 233.118795 221.988141 
L 233.118795 221.633506 
L 233.538405 221.633506 
L 233.538405 221.278871 
L 234.193107 221.278871 
L 234.193107 220.924235 
L 234.993653 220.924235 
L 234.993653 220.5696 
L 235.593082 220.5696 
L 235.593082 220.214965 
L 236.792945 220.214965 
L 236.792945 219.860329 
L 237.763364 219.860329 
L 237.763364 219.505694 
L 238.504942 219.505694 
L 238.504942 219.151059 
L 239.09332 219.151059 
L 239.185389 218.441788 
L 239.873175 218.441788 
L 239.873175 218.087153 
L 240.976527 218.087153 
L 240.976527 217.732518 
L 241.91136 217.732518 
L 241.91136 217.377882 
L 242.232348 217.377882 
L 242.232348 217.023247 
L 242.769992 217.023247 
L 242.769992 216.668612 
L 243.811667 216.668612 
L 243.811667 216.313976 
L 244.862827 216.313976 
L 244.862827 215.959341 
L 246.689012 215.959341 
L 246.689012 215.604706 
L 248.264458 215.604706 
L 248.264458 215.250071 
L 251.942087 215.250071 
L 251.942087 214.895435 
L 256.42957 214.895435 
L 256.42957 214.5408 
L 256.654679 214.5408 
L 256.654679 214.186165 
L 268.974847 214.186165 
L 268.974847 213.831529 
L 360.8064 213.831529 
L 360.8064 213.831529 
" style="fill:none;stroke:#ff7500;stroke-linecap:square;stroke-width:1.5;"/>
   </g>
   <g id="line2d_45">
    <defs>
     <path d="M 0 -6 
L -1.347084 -1.854102 
L -5.706339 -1.854102 
L -2.179628 0.708204 
L -3.526712 4.854102 
L -0 2.291796 
L 3.526712 4.854102 
L 2.179628 0.708204 
L 5.706339 -1.854102 
L 1.347084 -1.854102 
z
" id="m4a753ceef0" style="stroke:#ff7500;stroke-linejoin:bevel;stroke-width:1.5;"/>
    </defs>
    <g>
     <use style="fill-opacity:0;stroke:#ff7500;stroke-linejoin:bevel;stroke-width:1.5;" x="78.266603" xlink:href="#m4a753ceef0" y="265.962918"/>
     <use style="fill-opacity:0;stroke:#ff7500;stroke-linejoin:bevel;stroke-width:1.5;" x="146.64016" xlink:href="#m4a753ceef0" y="258.160941"/>
     <use style="fill-opacity:0;stroke:#ff7500;stroke-linejoin:bevel;stroke-width:1.5;" x="227.106206" xlink:href="#m4a753ceef0" y="224.115953"/>
     <use style="fill-opacity:0;stroke:#ff7500;stroke-linejoin:bevel;stroke-width:1.5;" x="268.974847" xlink:href="#m4a753ceef0" y="214.186165"/>
     <use style="fill-opacity:0;stroke:#ff7500;stroke-linejoin:bevel;stroke-width:1.5;" x="268.974847" xlink:href="#m4a753ceef0" y="213.831529"/>
     <use style="fill-opacity:0;stroke:#ff7500;stroke-linejoin:bevel;stroke-width:1.5;" x="360.8064" xlink:href="#m4a753ceef0" y="213.831529"/>
    </g>
   </g>
   <g id="line2d_46">
    <path style="fill:none;stroke:#ff7500;stroke-linecap:square;stroke-width:1.5;"/>
    <g/>
   </g>
   <g id="line2d_47">
    <path clip-path="url(#p7bc057463e)" d="M 184.525216 252.486776 
" style="fill:none;stroke:#ff7500;stroke-linecap:square;stroke-width:1.5;"/>
    <defs>
     <path d="M -12 12 
L 12 -12 
M -12 -12 
L 12 12 
" id="m78b792b673" style="stroke:#ff7500;"/>
    </defs>
    <g clip-path="url(#p7bc057463e)">
     <use style="fill:#ff7500;stroke:#ff7500;" x="184.525216" xlink:href="#m78b792b673" y="252.486776"/>
    </g>
   </g>
   <g id="line2d_48">
    <path d="M 360.8064 213.831529 
L 380.514816 293.51808 
" style="fill:none;stroke:#ff7500;stroke-linecap:square;stroke-width:1.5;"/>
    <g>
     <use style="fill-opacity:0;stroke:#ff7500;stroke-linejoin:bevel;stroke-width:1.5;" x="360.8064" xlink:href="#m4a753ceef0" y="213.831529"/>
     <use style="fill-opacity:0;stroke:#ff7500;stroke-linejoin:bevel;stroke-width:1.5;" x="380.514816" xlink:href="#m4a753ceef0" y="293.51808"/>
    </g>
   </g>
   <g id="line2d_49">
    <path d="M 360.8064 27.648 
L 380.514816 206.70336 
" style="fill:none;stroke:#ff00ff;stroke-linecap:square;stroke-width:1.5;"/>
    <g>
     <use style="fill-opacity:0;stroke:#ff00ff;stroke-linejoin:miter;stroke-width:1.5;" x="360.8064" xlink:href="#me14707a05a" y="27.648"/>
     <use style="fill-opacity:0;stroke:#ff00ff;stroke-linejoin:miter;stroke-width:1.5;" x="380.514816" xlink:href="#me14707a05a" y="206.70336"/>
    </g>
   </g>
   <g id="line2d_50">
    <path d="M 360.8064 27.648 
L 380.514816 119.88864 
" style="fill:none;stroke:#000080;stroke-linecap:square;stroke-width:1.5;"/>
    <g>
     <use style="fill-opacity:0;stroke:#000080;stroke-width:1.5;" x="360.8064" xlink:href="#m91563e3a18" y="27.648"/>
     <use style="fill-opacity:0;stroke:#000080;stroke-width:1.5;" x="380.514816" xlink:href="#m91563e3a18" y="119.88864"/>
    </g>
   </g>
   <g id="line2d_51">
    <path d="M 360.8064 298.944 
L 360.8064 27.648 
" style="fill:none;stroke:#000000;stroke-linecap:square;stroke-width:1.5;"/>
   </g>
   <g id="patch_3">
    <path d="M 57.6 298.944 
L 360.8064 298.944 
" style="fill:none;stroke:#000000;stroke-linecap:square;stroke-linejoin:miter;stroke-width:0.8;"/>
   </g>
   <g id="patch_4">
    <path d="M 57.6 27.648 
L 360.8064 27.648 
" style="fill:none;stroke:#000000;stroke-linecap:square;stroke-linejoin:miter;stroke-width:0.8;"/>
   </g>
   <g id="text_13">
    <!-- diffcma b -->
    <g transform="translate(386.578944 297.381205)scale(0.14 -0.14)">
     <defs>
      <path d="M 3116 1747 
Q 3116 2381 2855 2742 
Q 2594 3103 2138 3103 
Q 1681 3103 1420 2742 
Q 1159 2381 1159 1747 
Q 1159 1113 1420 752 
Q 1681 391 2138 391 
Q 2594 391 2855 752 
Q 3116 1113 3116 1747 
z
M 1159 2969 
Q 1341 3281 1617 3432 
Q 1894 3584 2278 3584 
Q 2916 3584 3314 3078 
Q 3713 2572 3713 1747 
Q 3713 922 3314 415 
Q 2916 -91 2278 -91 
Q 1894 -91 1617 61 
Q 1341 213 1159 525 
L 1159 0 
L 581 0 
L 581 4863 
L 1159 4863 
L 1159 2969 
z
" id="DejaVuSans-62" transform="scale(0.015625)"/>
     </defs>
     <use xlink:href="#DejaVuSans-64"/>
     <use x="63.476562" xlink:href="#DejaVuSans-69"/>
     <use x="91.259766" xlink:href="#DejaVuSans-66"/>
     <use x="126.464844" xlink:href="#DejaVuSans-66"/>
     <use x="161.669922" xlink:href="#DejaVuSans-63"/>
     <use x="216.650391" xlink:href="#DejaVuSans-6d"/>
     <use x="314.0625" xlink:href="#DejaVuSans-61"/>
     <use x="375.341797" xlink:href="#DejaVuSans-20"/>
     <use x="407.128906" xlink:href="#DejaVuSans-62"/>
    </g>
   </g>
   <g id="text_14">
    <!-- cma.fmin  -->
    <g transform="translate(386.578944 210.566485)scale(0.14 -0.14)">
     <use xlink:href="#DejaVuSans-63"/>
     <use x="54.980469" xlink:href="#DejaVuSans-6d"/>
     <use x="152.392578" xlink:href="#DejaVuSans-61"/>
     <use x="213.671875" xlink:href="#DejaVuSans-2e"/>
     <use x="245.458984" xlink:href="#DejaVuSans-66"/>
     <use x="280.664062" xlink:href="#DejaVuSans-6d"/>
     <use x="378.076172" xlink:href="#DejaVuSans-69"/>
     <use x="405.859375" xlink:href="#DejaVuSans-6e"/>
     <use x="469.238281" xlink:href="#DejaVuSans-20"/>
    </g>
   </g>
   <g id="text_15">
    <!-- different -->
    <g transform="translate(386.578944 123.751765)scale(0.14 -0.14)">
     <use xlink:href="#DejaVuSans-64"/>
     <use x="63.476562" xlink:href="#DejaVuSans-69"/>
     <use x="91.259766" xlink:href="#DejaVuSans-66"/>
     <use x="126.464844" xlink:href="#DejaVuSans-66"/>
     <use x="161.669922" xlink:href="#DejaVuSans-65"/>
     <use x="223.193359" xlink:href="#DejaVuSans-72"/>
     <use x="262.056641" xlink:href="#DejaVuSans-65"/>
     <use x="323.580078" xlink:href="#DejaVuSans-6e"/>
     <use x="386.958984" xlink:href="#DejaVuSans-74"/>
    </g>
   </g>
   <g id="text_16">
    <!-- best 2009 -->
    <g transform="translate(386.578944 36.937045)scale(0.14 -0.14)">
     <defs>
      <path d="M 703 97 
L 703 672 
Q 941 559 1184 500 
Q 1428 441 1663 441 
Q 2288 441 2617 861 
Q 2947 1281 2994 2138 
Q 2813 1869 2534 1725 
Q 2256 1581 1919 1581 
Q 1219 1581 811 2004 
Q 403 2428 403 3163 
Q 403 3881 828 4315 
Q 1253 4750 1959 4750 
Q 2769 4750 3195 4129 
Q 3622 3509 3622 2328 
Q 3622 1225 3098 567 
Q 2575 -91 1691 -91 
Q 1453 -91 1209 -44 
Q 966 3 703 97 
z
M 1959 2075 
Q 2384 2075 2632 2365 
Q 2881 2656 2881 3163 
Q 2881 3666 2632 3958 
Q 2384 4250 1959 4250 
Q 1534 4250 1286 3958 
Q 1038 3666 1038 3163 
Q 1038 2656 1286 2365 
Q 1534 2075 1959 2075 
z
" id="DejaVuSans-39" transform="scale(0.015625)"/>
     </defs>
     <use xlink:href="#DejaVuSans-62"/>
     <use x="63.476562" xlink:href="#DejaVuSans-65"/>
     <use x="125" xlink:href="#DejaVuSans-73"/>
     <use x="177.099609" xlink:href="#DejaVuSans-74"/>
     <use x="216.308594" xlink:href="#DejaVuSans-20"/>
     <use x="248.095703" xlink:href="#DejaVuSans-32"/>
     <use x="311.71875" xlink:href="#DejaVuSans-30"/>
     <use x="375.341797" xlink:href="#DejaVuSans-30"/>
     <use x="438.964844" xlink:href="#DejaVuSans-39"/>
    </g>
   </g>
   <g id="text_17">
    <!-- bbob f17, 3-D -->
    <g transform="translate(60.632064 38.111366)scale(0.102 -0.102)">
     <defs>
      <path d="M 525 4666 
L 3525 4666 
L 3525 4397 
L 1831 0 
L 1172 0 
L 2766 4134 
L 525 4134 
L 525 4666 
z
" id="DejaVuSans-37" transform="scale(0.015625)"/>
      <path d="M 2597 2516 
Q 3050 2419 3304 2112 
Q 3559 1806 3559 1356 
Q 3559 666 3084 287 
Q 2609 -91 1734 -91 
Q 1441 -91 1130 -33 
Q 819 25 488 141 
L 488 750 
Q 750 597 1062 519 
Q 1375 441 1716 441 
Q 2309 441 2620 675 
Q 2931 909 2931 1356 
Q 2931 1769 2642 2001 
Q 2353 2234 1838 2234 
L 1294 2234 
L 1294 2753 
L 1863 2753 
Q 2328 2753 2575 2939 
Q 2822 3125 2822 3475 
Q 2822 3834 2567 4026 
Q 2313 4219 1838 4219 
Q 1578 4219 1281 4162 
Q 984 4106 628 3988 
L 628 4550 
Q 988 4650 1302 4700 
Q 1616 4750 1894 4750 
Q 2613 4750 3031 4423 
Q 3450 4097 3450 3541 
Q 3450 3153 3228 2886 
Q 3006 2619 2597 2516 
z
" id="DejaVuSans-33" transform="scale(0.015625)"/>
      <path d="M 1259 4147 
L 1259 519 
L 2022 519 
Q 2988 519 3436 956 
Q 3884 1394 3884 2338 
Q 3884 3275 3436 3711 
Q 2988 4147 2022 4147 
L 1259 4147 
z
M 628 4666 
L 1925 4666 
Q 3281 4666 3915 4102 
Q 4550 3538 4550 2338 
Q 4550 1131 3912 565 
Q 3275 0 1925 0 
L 628 0 
L 628 4666 
z
" id="DejaVuSans-44" transform="scale(0.015625)"/>
     </defs>
     <use xlink:href="#DejaVuSans-62"/>
     <use x="63.476562" xlink:href="#DejaVuSans-62"/>
     <use x="126.953125" xlink:href="#DejaVuSans-6f"/>
     <use x="188.134766" xlink:href="#DejaVuSans-62"/>
     <use x="251.611328" xlink:href="#DejaVuSans-20"/>
     <use x="283.398438" xlink:href="#DejaVuSans-66"/>
     <use x="318.603516" xlink:href="#DejaVuSans-31"/>
     <use x="382.226562" xlink:href="#DejaVuSans-37"/>
     <use x="445.849609" xlink:href="#DejaVuSans-2c"/>
     <use x="477.636719" xlink:href="#DejaVuSans-20"/>
     <use x="509.423828" xlink:href="#DejaVuSans-33"/>
     <use x="573.046875" xlink:href="#DejaVuSans-2d"/>
     <use x="609.130859" xlink:href="#DejaVuSans-44"/>
    </g>
    <!-- 51 targets: 100..1e-08 -->
    <g transform="translate(60.632064 49.533135)scale(0.102 -0.102)">
     <defs>
      <path d="M 691 4666 
L 3169 4666 
L 3169 4134 
L 1269 4134 
L 1269 2991 
Q 1406 3038 1543 3061 
Q 1681 3084 1819 3084 
Q 2600 3084 3056 2656 
Q 3513 2228 3513 1497 
Q 3513 744 3044 326 
Q 2575 -91 1722 -91 
Q 1428 -91 1123 -41 
Q 819 9 494 109 
L 494 744 
Q 775 591 1075 516 
Q 1375 441 1709 441 
Q 2250 441 2565 725 
Q 2881 1009 2881 1497 
Q 2881 1984 2565 2268 
Q 2250 2553 1709 2553 
Q 1456 2553 1204 2497 
Q 953 2441 691 2322 
L 691 4666 
z
" id="DejaVuSans-35" transform="scale(0.015625)"/>
      <path d="M 750 794 
L 1409 794 
L 1409 0 
L 750 0 
L 750 794 
z
M 750 3309 
L 1409 3309 
L 1409 2516 
L 750 2516 
L 750 3309 
z
" id="DejaVuSans-3a" transform="scale(0.015625)"/>
     </defs>
     <use xlink:href="#DejaVuSans-35"/>
     <use x="63.623047" xlink:href="#DejaVuSans-31"/>
     <use x="127.246094" xlink:href="#DejaVuSans-20"/>
     <use x="159.033203" xlink:href="#DejaVuSans-74"/>
     <use x="198.242188" xlink:href="#DejaVuSans-61"/>
     <use x="259.521484" xlink:href="#DejaVuSans-72"/>
     <use x="298.884766" xlink:href="#DejaVuSans-67"/>
     <use x="362.361328" xlink:href="#DejaVuSans-65"/>
     <use x="423.884766" xlink:href="#DejaVuSans-74"/>
     <use x="463.09375" xlink:href="#DejaVuSans-73"/>
     <use x="515.193359" xlink:href="#DejaVuSans-3a"/>
     <use x="548.884766" xlink:href="#DejaVuSans-20"/>
     <use x="580.671875" xlink:href="#DejaVuSans-31"/>
     <use x="644.294922" xlink:href="#DejaVuSans-30"/>
     <use x="707.917969" xlink:href="#DejaVuSans-30"/>
     <use x="771.541016" xlink:href="#DejaVuSans-2e"/>
     <use x="803.328125" xlink:href="#DejaVuSans-2e"/>
     <use x="835.115234" xlink:href="#DejaVuSans-31"/>
     <use x="898.738281" xlink:href="#DejaVuSans-65"/>
     <use x="960.261719" xlink:href="#DejaVuSans-2d"/>
     <use x="996.345703" xlink:href="#DejaVuSans-30"/>
     <use x="1059.96875" xlink:href="#DejaVuSans-38"/>
    </g>
    <!-- 15 instances -->
    <g transform="translate(60.632064 60.954904)scale(0.102 -0.102)">
     <use xlink:href="#DejaVuSans-31"/>
     <use x="63.623047" xlink:href="#DejaVuSans-35"/>
     <use x="127.246094" xlink:href="#DejaVuSans-20"/>
     <use x="159.033203" xlink:href="#DejaVuSans-69"/>
     <use x="186.816406" xlink:href="#DejaVuSans-6e"/>
     <use x="250.195312" xlink:href="#DejaVuSans-73"/>
     <use x="302.294922" xlink:href="#DejaVuSans-74"/>
     <use x="341.503906" xlink:href="#DejaVuSans-61"/>
     <use x="402.783203" xlink:href="#DejaVuSans-6e"/>
     <use x="466.162109" xlink:href="#DejaVuSans-63"/>
     <use x="521.142578" xlink:href="#DejaVuSans-65"/>
     <use x="582.666016" xlink:href="#DejaVuSans-73"/>
    </g>
   </g>
   <g id="text_18">
    <!-- v2.6 -->
    <g style="fill:#808080;" transform="translate(198.292262 294.151352)scale(0.1 -0.1)">
     <use xlink:href="#DejaVuSans-76"/>
     <use x="59.179688" xlink:href="#DejaVuSans-32"/>
     <use x="122.802734" xlink:href="#DejaVuSans-2e"/>
     <use x="154.589844" xlink:href="#DejaVuSans-36"/>
    </g>
   </g>
   <g id="text_19">
    <!-- 17 Schaffer F7, condition 10 -->
    <g transform="translate(67.895387 21.648)scale(0.2 -0.2)">
     <defs>
      <path d="M 3425 4513 
L 3425 3897 
Q 3066 4069 2747 4153 
Q 2428 4238 2131 4238 
Q 1616 4238 1336 4038 
Q 1056 3838 1056 3469 
Q 1056 3159 1242 3001 
Q 1428 2844 1947 2747 
L 2328 2669 
Q 3034 2534 3370 2195 
Q 3706 1856 3706 1288 
Q 3706 609 3251 259 
Q 2797 -91 1919 -91 
Q 1588 -91 1214 -16 
Q 841 59 441 206 
L 441 856 
Q 825 641 1194 531 
Q 1563 422 1919 422 
Q 2459 422 2753 634 
Q 3047 847 3047 1241 
Q 3047 1584 2836 1778 
Q 2625 1972 2144 2069 
L 1759 2144 
Q 1053 2284 737 2584 
Q 422 2884 422 3419 
Q 422 4038 858 4394 
Q 1294 4750 2059 4750 
Q 2388 4750 2728 4690 
Q 3069 4631 3425 4513 
z
" id="DejaVuSans-53" transform="scale(0.015625)"/>
      <path d="M 3513 2113 
L 3513 0 
L 2938 0 
L 2938 2094 
Q 2938 2591 2744 2837 
Q 2550 3084 2163 3084 
Q 1697 3084 1428 2787 
Q 1159 2491 1159 1978 
L 1159 0 
L 581 0 
L 581 4863 
L 1159 4863 
L 1159 2956 
Q 1366 3272 1645 3428 
Q 1925 3584 2291 3584 
Q 2894 3584 3203 3211 
Q 3513 2838 3513 2113 
z
" id="DejaVuSans-68" transform="scale(0.015625)"/>
     </defs>
     <use xlink:href="#DejaVuSans-31"/>
     <use x="63.623047" xlink:href="#DejaVuSans-37"/>
     <use x="127.246094" xlink:href="#DejaVuSans-20"/>
     <use x="159.033203" xlink:href="#DejaVuSans-53"/>
     <use x="222.509766" xlink:href="#DejaVuSans-63"/>
     <use x="277.490234" xlink:href="#DejaVuSans-68"/>
     <use x="340.869141" xlink:href="#DejaVuSans-61"/>
     <use x="402.148438" xlink:href="#DejaVuSans-66"/>
     <use x="437.353516" xlink:href="#DejaVuSans-66"/>
     <use x="472.558594" xlink:href="#DejaVuSans-65"/>
     <use x="534.082031" xlink:href="#DejaVuSans-72"/>
     <use x="575.195312" xlink:href="#DejaVuSans-20"/>
     <use x="606.982422" xlink:href="#DejaVuSans-46"/>
     <use x="664.501953" xlink:href="#DejaVuSans-37"/>
     <use x="728.125" xlink:href="#DejaVuSans-2c"/>
     <use x="759.912109" xlink:href="#DejaVuSans-20"/>
     <use x="791.699219" xlink:href="#DejaVuSans-63"/>
     <use x="846.679688" xlink:href="#DejaVuSans-6f"/>
     <use x="907.861328" xlink:href="#DejaVuSans-6e"/>
     <use x="971.240234" xlink:href="#DejaVuSans-64"/>
     <use x="1034.716797" xlink:href="#DejaVuSans-69"/>
     <use x="1062.5" xlink:href="#DejaVuSans-74"/>
     <use x="1101.708984" xlink:href="#DejaVuSans-69"/>
     <use x="1129.492188" xlink:href="#DejaVuSans-6f"/>
     <use x="1190.673828" xlink:href="#DejaVuSans-6e"/>
     <use x="1254.052734" xlink:href="#DejaVuSans-20"/>
     <use x="1285.839844" xlink:href="#DejaVuSans-31"/>
     <use x="1349.462891" xlink:href="#DejaVuSans-30"/>
    </g>
   </g>
  </g>
 </g>
 <defs>
  <clipPath id="p7bc057463e">
   <rect height="271.296" width="303.2064" x="57.6" y="27.648"/>
  </clipPath>
 </defs>
</svg>
