<?xml version="1.0" encoding="utf-8" standalone="no"?>
<!DOCTYPE svg PUBLIC "-//W3C//DTD SVG 1.1//EN"
  "http://www.w3.org/Graphics/SVG/1.1/DTD/svg11.dtd">
<svg height="345.6pt" version="1.1" viewBox="0 0 460.8 345.6" width="460.8pt" xmlns="http://www.w3.org/2000/svg" xmlns:xlink="http://www.w3.org/1999/xlink">
 <metadata>
  <rdf:RDF xmlns:cc="http://creativecommons.org/ns#" xmlns:dc="http://purl.org/dc/elements/1.1/" xmlns:rdf="http://www.w3.org/1999/02/22-rdf-syntax-ns#">
   <cc:Work>
    <dc:type rdf:resource="http://purl.org/dc/dcmitype/StillImage"/>
    <dc:date>2022-05-07T21:25:29.150060</dc:date>
    <dc:format>image/svg+xml</dc:format>
    <dc:creator>
     <cc:Agent>
      <dc:title>Matplotlib v3.4.3, https://matplotlib.org/</dc:title>
     </cc:Agent>
    </dc:creator>
   </cc:Work>
  </rdf:RDF>
 </metadata>
 <defs>
  <style type="text/css">*{stroke-linecap:butt;stroke-linejoin:round;}</style>
 </defs>
 <g id="figure_1">
  <g id="patch_1">
   <path d="M 0 345.6 
L 460.8 345.6 
L 460.8 0 
L 0 0 
z
" style="fill:#ffffff;"/>
  </g>
  <g id="axes_1">
   <g id="patch_2">
    <path d="M 57.6 298.944 
L 360.8064 298.944 
L 360.8064 27.648 
L 57.6 27.648 
z
" style="fill:#ffffff;"/>
   </g>
   <g id="line2d_1">
    <path d="M 49.972572 298.944 
L 49.972572 293.624471 
L 70.639174 293.624471 
L 70.639174 288.304941 
L 83.678349 288.304941 
L 83.678349 282.985412 
L 94.205591 282.985412 
L 94.205591 277.665882 
L 116.308887 277.665882 
L 116.308887 272.346353 
L 127.149662 272.346353 
L 127.149662 267.026824 
L 138.481218 267.026824 
L 138.481218 261.707294 
L 149.73597 261.707294 
L 149.73597 256.387765 
L 157.764644 256.387765 
L 157.764644 251.068235 
L 172.426636 251.068235 
L 172.426636 245.748706 
L 172.828518 245.748706 
L 172.828518 240.429176 
L 201.137777 240.429176 
L 201.137777 235.109647 
L 201.189462 235.109647 
L 201.189462 229.790118 
L 201.262187 229.790118 
L 201.262187 224.470588 
L 201.358718 224.470588 
L 201.358718 219.151059 
L 201.45775 219.151059 
L 201.45775 213.831529 
L 201.514533 213.831529 
L 201.514533 208.512 
L 202.254746 208.512 
L 202.254746 203.192471 
L 206.451849 203.192471 
L 206.451849 197.872941 
L 206.559415 197.872941 
L 206.559415 192.553412 
L 206.648208 192.553412 
L 206.648208 187.233882 
L 206.686782 187.233882 
L 206.686782 181.914353 
L 206.761436 181.914353 
L 206.761436 176.594824 
L 206.829047 176.594824 
L 206.829047 171.275294 
L 206.918818 171.275294 
L 206.918818 165.955765 
L 206.979172 165.955765 
L 206.979172 160.636235 
L 207.003706 160.636235 
L 207.003706 155.316706 
L 207.094868 155.316706 
L 207.094868 149.997176 
L 207.176758 149.997176 
L 207.176758 144.677647 
L 207.229686 144.677647 
L 207.229686 139.358118 
L 207.330718 139.358118 
L 207.330718 134.038588 
L 207.439922 134.038588 
L 207.439922 128.719059 
L 207.522496 128.719059 
L 207.522496 123.399529 
L 207.565811 123.399529 
L 207.565811 118.08 
L 207.649989 118.08 
L 207.649989 112.760471 
L 207.761643 112.760471 
L 207.761643 107.440941 
L 207.793728 107.440941 
L 207.793728 102.121412 
L 207.857735 102.121412 
L 207.857735 96.801882 
L 207.915155 96.801882 
L 207.915155 91.482353 
L 208.02314 91.482353 
L 208.02314 86.162824 
L 208.035804 86.162824 
L 208.035804 80.843294 
L 208.109504 80.843294 
L 208.109504 75.523765 
L 208.161971 75.523765 
L 208.161971 70.204235 
L 208.214293 70.204235 
L 208.214293 64.884706 
L 208.285217 64.884706 
L 208.285217 59.565176 
L 208.297705 59.565176 
L 208.297705 54.245647 
L 208.393174 54.245647 
L 208.393174 48.926118 
L 208.47786 48.926118 
L 208.47786 43.606588 
L 208.588819 43.606588 
L 208.588819 38.287059 
L 208.631793 38.287059 
L 208.631793 32.967529 
L 208.731687 32.967529 
L 208.731687 27.648 
L 360.8064 27.648 
" style="fill:none;stroke:#f5deb3;stroke-linecap:square;stroke-width:4;"/>
   </g>
   <g id="line2d_2">
    <defs>
     <path d="M -0 7.778175 
L 7.778175 0 
L 0 -7.778175 
L -7.778175 -0 
z
" id="mbc98e9ffa8" style="stroke:#f5deb3;stroke-linejoin:miter;stroke-width:1.5;"/>
    </defs>
    <g>
     <use style="fill:#f5deb3;stroke:#f5deb3;stroke-linejoin:miter;stroke-width:1.5;" x="157.764644" xlink:href="#mbc98e9ffa8" y="256.387765"/>
     <use style="fill:#f5deb3;stroke:#f5deb3;stroke-linejoin:miter;stroke-width:1.5;" x="207.176758" xlink:href="#mbc98e9ffa8" y="149.997176"/>
     <use style="fill:#f5deb3;stroke:#f5deb3;stroke-linejoin:miter;stroke-width:1.5;" x="208.297705" xlink:href="#mbc98e9ffa8" y="54.245647"/>
     <use style="fill:#f5deb3;stroke:#f5deb3;stroke-linejoin:miter;stroke-width:1.5;" x="208.731687" xlink:href="#mbc98e9ffa8" y="27.648"/>
     <use style="fill:#f5deb3;stroke:#f5deb3;stroke-linejoin:miter;stroke-width:1.5;" x="208.731687" xlink:href="#mbc98e9ffa8" y="27.648"/>
     <use style="fill:#f5deb3;stroke:#f5deb3;stroke-linejoin:miter;stroke-width:1.5;" x="360.8064" xlink:href="#mbc98e9ffa8" y="27.648"/>
    </g>
   </g>
   <g id="line2d_3">
    <path style="fill:none;stroke:#f5deb3;stroke-linecap:square;stroke-width:4;"/>
    <g/>
   </g>
   <g id="line2d_4">
    <path d="M 360.8064 27.648 
L 380.514816 33.07392 
" style="fill:none;stroke:#f5deb3;stroke-linecap:square;stroke-width:4;"/>
    <g>
     <use style="fill:#f5deb3;stroke:#f5deb3;stroke-linejoin:miter;stroke-width:1.5;" x="360.8064" xlink:href="#mbc98e9ffa8" y="27.648"/>
     <use style="fill:#f5deb3;stroke:#f5deb3;stroke-linejoin:miter;stroke-width:1.5;" x="380.514816" xlink:href="#mbc98e9ffa8" y="33.07392"/>
    </g>
   </g>
   <g id="matplotlib.axis_1">
    <g id="xtick_1">
     <g id="line2d_5">
      <path clip-path="url(#p4a43a7df23)" d="M 57.6 298.944 
L 57.6 27.648 
" style="fill:none;stroke:#b0b0b0;stroke-linecap:square;stroke-width:0.8;"/>
     </g>
     <g id="line2d_6">
      <defs>
       <path d="M 0 0 
L 0 3.5 
" id="m0166a787d3" style="stroke:#000000;stroke-width:0.8;"/>
      </defs>
      <g>
       <use style="stroke:#000000;stroke-width:0.8;" x="57.6" xlink:href="#m0166a787d3" y="298.944"/>
      </g>
     </g>
     <g id="text_1">
      <!-- 0 -->
      <g transform="translate(52.191875 318.861344)scale(0.17 -0.17)">
       <defs>
        <path d="M 2034 4250 
Q 1547 4250 1301 3770 
Q 1056 3291 1056 2328 
Q 1056 1369 1301 889 
Q 1547 409 2034 409 
Q 2525 409 2770 889 
Q 3016 1369 3016 2328 
Q 3016 3291 2770 3770 
Q 2525 4250 2034 4250 
z
M 2034 4750 
Q 2819 4750 3233 4129 
Q 3647 3509 3647 2328 
Q 3647 1150 3233 529 
Q 2819 -91 2034 -91 
Q 1250 -91 836 529 
Q 422 1150 422 2328 
Q 422 3509 836 4129 
Q 1250 4750 2034 4750 
z
" id="DejaVuSans-30" transform="scale(0.015625)"/>
       </defs>
       <use xlink:href="#DejaVuSans-30"/>
      </g>
     </g>
    </g>
    <g id="xtick_2">
     <g id="line2d_7">
      <path clip-path="url(#p4a43a7df23)" d="M 144.2304 298.944 
L 144.2304 27.648 
" style="fill:none;stroke:#b0b0b0;stroke-linecap:square;stroke-width:0.8;"/>
     </g>
     <g id="line2d_8">
      <g>
       <use style="stroke:#000000;stroke-width:0.8;" x="144.2304" xlink:href="#m0166a787d3" y="298.944"/>
      </g>
     </g>
     <g id="text_2">
      <!-- 2 -->
      <g transform="translate(138.822275 318.861344)scale(0.17 -0.17)">
       <defs>
        <path d="M 1228 531 
L 3431 531 
L 3431 0 
L 469 0 
L 469 531 
Q 828 903 1448 1529 
Q 2069 2156 2228 2338 
Q 2531 2678 2651 2914 
Q 2772 3150 2772 3378 
Q 2772 3750 2511 3984 
Q 2250 4219 1831 4219 
Q 1534 4219 1204 4116 
Q 875 4013 500 3803 
L 500 4441 
Q 881 4594 1212 4672 
Q 1544 4750 1819 4750 
Q 2544 4750 2975 4387 
Q 3406 4025 3406 3419 
Q 3406 3131 3298 2873 
Q 3191 2616 2906 2266 
Q 2828 2175 2409 1742 
Q 1991 1309 1228 531 
z
" id="DejaVuSans-32" transform="scale(0.015625)"/>
       </defs>
       <use xlink:href="#DejaVuSans-32"/>
      </g>
     </g>
    </g>
    <g id="xtick_3">
     <g id="line2d_9">
      <path clip-path="url(#p4a43a7df23)" d="M 230.8608 298.944 
L 230.8608 27.648 
" style="fill:none;stroke:#b0b0b0;stroke-linecap:square;stroke-width:0.8;"/>
     </g>
     <g id="line2d_10">
      <g>
       <use style="stroke:#000000;stroke-width:0.8;" x="230.8608" xlink:href="#m0166a787d3" y="298.944"/>
      </g>
     </g>
     <g id="text_3">
      <!-- 4 -->
      <g transform="translate(225.452675 318.861344)scale(0.17 -0.17)">
       <defs>
        <path d="M 2419 4116 
L 825 1625 
L 2419 1625 
L 2419 4116 
z
M 2253 4666 
L 3047 4666 
L 3047 1625 
L 3713 1625 
L 3713 1100 
L 3047 1100 
L 3047 0 
L 2419 0 
L 2419 1100 
L 313 1100 
L 313 1709 
L 2253 4666 
z
" id="DejaVuSans-34" transform="scale(0.015625)"/>
       </defs>
       <use xlink:href="#DejaVuSans-34"/>
      </g>
     </g>
    </g>
    <g id="xtick_4">
     <g id="line2d_11">
      <path clip-path="url(#p4a43a7df23)" d="M 317.4912 298.944 
L 317.4912 27.648 
" style="fill:none;stroke:#b0b0b0;stroke-linecap:square;stroke-width:0.8;"/>
     </g>
     <g id="line2d_12">
      <g>
       <use style="stroke:#000000;stroke-width:0.8;" x="317.4912" xlink:href="#m0166a787d3" y="298.944"/>
      </g>
     </g>
     <g id="text_4">
      <!-- 6 -->
      <g transform="translate(312.083075 318.861344)scale(0.17 -0.17)">
       <defs>
        <path d="M 2113 2584 
Q 1688 2584 1439 2293 
Q 1191 2003 1191 1497 
Q 1191 994 1439 701 
Q 1688 409 2113 409 
Q 2538 409 2786 701 
Q 3034 994 3034 1497 
Q 3034 2003 2786 2293 
Q 2538 2584 2113 2584 
z
M 3366 4563 
L 3366 3988 
Q 3128 4100 2886 4159 
Q 2644 4219 2406 4219 
Q 1781 4219 1451 3797 
Q 1122 3375 1075 2522 
Q 1259 2794 1537 2939 
Q 1816 3084 2150 3084 
Q 2853 3084 3261 2657 
Q 3669 2231 3669 1497 
Q 3669 778 3244 343 
Q 2819 -91 2113 -91 
Q 1303 -91 875 529 
Q 447 1150 447 2328 
Q 447 3434 972 4092 
Q 1497 4750 2381 4750 
Q 2619 4750 2861 4703 
Q 3103 4656 3366 4563 
z
" id="DejaVuSans-36" transform="scale(0.015625)"/>
       </defs>
       <use xlink:href="#DejaVuSans-36"/>
      </g>
     </g>
    </g>
    <g id="xtick_5">
     <g id="line2d_13">
      <path clip-path="url(#p4a43a7df23)" d="M 100.9152 298.944 
L 100.9152 27.648 
" style="fill:none;stroke:#b0b0b0;stroke-linecap:square;stroke-width:0.8;"/>
     </g>
     <g id="line2d_14">
      <defs>
       <path d="M 0 0 
L 0 2 
" id="m1e899e9ac2" style="stroke:#000000;stroke-width:0.6;"/>
      </defs>
      <g>
       <use style="stroke:#000000;stroke-width:0.6;" x="100.9152" xlink:href="#m1e899e9ac2" y="298.944"/>
      </g>
     </g>
    </g>
    <g id="xtick_6">
     <g id="line2d_15">
      <path clip-path="url(#p4a43a7df23)" d="M 187.5456 298.944 
L 187.5456 27.648 
" style="fill:none;stroke:#b0b0b0;stroke-linecap:square;stroke-width:0.8;"/>
     </g>
     <g id="line2d_16">
      <g>
       <use style="stroke:#000000;stroke-width:0.6;" x="187.5456" xlink:href="#m1e899e9ac2" y="298.944"/>
      </g>
     </g>
    </g>
    <g id="xtick_7">
     <g id="line2d_17">
      <path clip-path="url(#p4a43a7df23)" d="M 274.176 298.944 
L 274.176 27.648 
" style="fill:none;stroke:#b0b0b0;stroke-linecap:square;stroke-width:0.8;"/>
     </g>
     <g id="line2d_18">
      <g>
       <use style="stroke:#000000;stroke-width:0.6;" x="274.176" xlink:href="#m1e899e9ac2" y="298.944"/>
      </g>
     </g>
    </g>
    <g id="xtick_8">
     <g id="line2d_19">
      <path clip-path="url(#p4a43a7df23)" d="M 360.8064 298.944 
L 360.8064 27.648 
" style="fill:none;stroke:#b0b0b0;stroke-linecap:square;stroke-width:0.8;"/>
     </g>
     <g id="line2d_20">
      <g>
       <use style="stroke:#000000;stroke-width:0.6;" x="360.8064" xlink:href="#m1e899e9ac2" y="298.944"/>
      </g>
     </g>
    </g>
    <g id="text_5">
     <!-- log10(# f-evals / dimension) -->
     <g transform="translate(88.823278 339.314156)scale(0.17 -0.17)">
      <defs>
       <path d="M 603 4863 
L 1178 4863 
L 1178 0 
L 603 0 
L 603 4863 
z
" id="DejaVuSans-6c" transform="scale(0.015625)"/>
       <path d="M 1959 3097 
Q 1497 3097 1228 2736 
Q 959 2375 959 1747 
Q 959 1119 1226 758 
Q 1494 397 1959 397 
Q 2419 397 2687 759 
Q 2956 1122 2956 1747 
Q 2956 2369 2687 2733 
Q 2419 3097 1959 3097 
z
M 1959 3584 
Q 2709 3584 3137 3096 
Q 3566 2609 3566 1747 
Q 3566 888 3137 398 
Q 2709 -91 1959 -91 
Q 1206 -91 779 398 
Q 353 888 353 1747 
Q 353 2609 779 3096 
Q 1206 3584 1959 3584 
z
" id="DejaVuSans-6f" transform="scale(0.015625)"/>
       <path d="M 2906 1791 
Q 2906 2416 2648 2759 
Q 2391 3103 1925 3103 
Q 1463 3103 1205 2759 
Q 947 2416 947 1791 
Q 947 1169 1205 825 
Q 1463 481 1925 481 
Q 2391 481 2648 825 
Q 2906 1169 2906 1791 
z
M 3481 434 
Q 3481 -459 3084 -895 
Q 2688 -1331 1869 -1331 
Q 1566 -1331 1297 -1286 
Q 1028 -1241 775 -1147 
L 775 -588 
Q 1028 -725 1275 -790 
Q 1522 -856 1778 -856 
Q 2344 -856 2625 -561 
Q 2906 -266 2906 331 
L 2906 616 
Q 2728 306 2450 153 
Q 2172 0 1784 0 
Q 1141 0 747 490 
Q 353 981 353 1791 
Q 353 2603 747 3093 
Q 1141 3584 1784 3584 
Q 2172 3584 2450 3431 
Q 2728 3278 2906 2969 
L 2906 3500 
L 3481 3500 
L 3481 434 
z
" id="DejaVuSans-67" transform="scale(0.015625)"/>
       <path d="M 794 531 
L 1825 531 
L 1825 4091 
L 703 3866 
L 703 4441 
L 1819 4666 
L 2450 4666 
L 2450 531 
L 3481 531 
L 3481 0 
L 794 0 
L 794 531 
z
" id="DejaVuSans-31" transform="scale(0.015625)"/>
       <path d="M 1984 4856 
Q 1566 4138 1362 3434 
Q 1159 2731 1159 2009 
Q 1159 1288 1364 580 
Q 1569 -128 1984 -844 
L 1484 -844 
Q 1016 -109 783 600 
Q 550 1309 550 2009 
Q 550 2706 781 3412 
Q 1013 4119 1484 4856 
L 1984 4856 
z
" id="DejaVuSans-28" transform="scale(0.015625)"/>
       <path d="M 3272 2816 
L 2363 2816 
L 2100 1772 
L 3016 1772 
L 3272 2816 
z
M 2803 4594 
L 2478 3297 
L 3391 3297 
L 3719 4594 
L 4219 4594 
L 3897 3297 
L 4872 3297 
L 4872 2816 
L 3775 2816 
L 3519 1772 
L 4513 1772 
L 4513 1294 
L 3397 1294 
L 3072 0 
L 2572 0 
L 2894 1294 
L 1978 1294 
L 1656 0 
L 1153 0 
L 1478 1294 
L 494 1294 
L 494 1772 
L 1594 1772 
L 1856 2816 
L 850 2816 
L 850 3297 
L 1978 3297 
L 2297 4594 
L 2803 4594 
z
" id="DejaVuSans-23" transform="scale(0.015625)"/>
       <path id="DejaVuSans-20" transform="scale(0.015625)"/>
       <path d="M 2375 4863 
L 2375 4384 
L 1825 4384 
Q 1516 4384 1395 4259 
Q 1275 4134 1275 3809 
L 1275 3500 
L 2222 3500 
L 2222 3053 
L 1275 3053 
L 1275 0 
L 697 0 
L 697 3053 
L 147 3053 
L 147 3500 
L 697 3500 
L 697 3744 
Q 697 4328 969 4595 
Q 1241 4863 1831 4863 
L 2375 4863 
z
" id="DejaVuSans-66" transform="scale(0.015625)"/>
       <path d="M 313 2009 
L 1997 2009 
L 1997 1497 
L 313 1497 
L 313 2009 
z
" id="DejaVuSans-2d" transform="scale(0.015625)"/>
       <path d="M 3597 1894 
L 3597 1613 
L 953 1613 
Q 991 1019 1311 708 
Q 1631 397 2203 397 
Q 2534 397 2845 478 
Q 3156 559 3463 722 
L 3463 178 
Q 3153 47 2828 -22 
Q 2503 -91 2169 -91 
Q 1331 -91 842 396 
Q 353 884 353 1716 
Q 353 2575 817 3079 
Q 1281 3584 2069 3584 
Q 2775 3584 3186 3129 
Q 3597 2675 3597 1894 
z
M 3022 2063 
Q 3016 2534 2758 2815 
Q 2500 3097 2075 3097 
Q 1594 3097 1305 2825 
Q 1016 2553 972 2059 
L 3022 2063 
z
" id="DejaVuSans-65" transform="scale(0.015625)"/>
       <path d="M 191 3500 
L 800 3500 
L 1894 563 
L 2988 3500 
L 3597 3500 
L 2284 0 
L 1503 0 
L 191 3500 
z
" id="DejaVuSans-76" transform="scale(0.015625)"/>
       <path d="M 2194 1759 
Q 1497 1759 1228 1600 
Q 959 1441 959 1056 
Q 959 750 1161 570 
Q 1363 391 1709 391 
Q 2188 391 2477 730 
Q 2766 1069 2766 1631 
L 2766 1759 
L 2194 1759 
z
M 3341 1997 
L 3341 0 
L 2766 0 
L 2766 531 
Q 2569 213 2275 61 
Q 1981 -91 1556 -91 
Q 1019 -91 701 211 
Q 384 513 384 1019 
Q 384 1609 779 1909 
Q 1175 2209 1959 2209 
L 2766 2209 
L 2766 2266 
Q 2766 2663 2505 2880 
Q 2244 3097 1772 3097 
Q 1472 3097 1187 3025 
Q 903 2953 641 2809 
L 641 3341 
Q 956 3463 1253 3523 
Q 1550 3584 1831 3584 
Q 2591 3584 2966 3190 
Q 3341 2797 3341 1997 
z
" id="DejaVuSans-61" transform="scale(0.015625)"/>
       <path d="M 2834 3397 
L 2834 2853 
Q 2591 2978 2328 3040 
Q 2066 3103 1784 3103 
Q 1356 3103 1142 2972 
Q 928 2841 928 2578 
Q 928 2378 1081 2264 
Q 1234 2150 1697 2047 
L 1894 2003 
Q 2506 1872 2764 1633 
Q 3022 1394 3022 966 
Q 3022 478 2636 193 
Q 2250 -91 1575 -91 
Q 1294 -91 989 -36 
Q 684 19 347 128 
L 347 722 
Q 666 556 975 473 
Q 1284 391 1588 391 
Q 1994 391 2212 530 
Q 2431 669 2431 922 
Q 2431 1156 2273 1281 
Q 2116 1406 1581 1522 
L 1381 1569 
Q 847 1681 609 1914 
Q 372 2147 372 2553 
Q 372 3047 722 3315 
Q 1072 3584 1716 3584 
Q 2034 3584 2315 3537 
Q 2597 3491 2834 3397 
z
" id="DejaVuSans-73" transform="scale(0.015625)"/>
       <path d="M 1625 4666 
L 2156 4666 
L 531 -594 
L 0 -594 
L 1625 4666 
z
" id="DejaVuSans-2f" transform="scale(0.015625)"/>
       <path d="M 2906 2969 
L 2906 4863 
L 3481 4863 
L 3481 0 
L 2906 0 
L 2906 525 
Q 2725 213 2448 61 
Q 2172 -91 1784 -91 
Q 1150 -91 751 415 
Q 353 922 353 1747 
Q 353 2572 751 3078 
Q 1150 3584 1784 3584 
Q 2172 3584 2448 3432 
Q 2725 3281 2906 2969 
z
M 947 1747 
Q 947 1113 1208 752 
Q 1469 391 1925 391 
Q 2381 391 2643 752 
Q 2906 1113 2906 1747 
Q 2906 2381 2643 2742 
Q 2381 3103 1925 3103 
Q 1469 3103 1208 2742 
Q 947 2381 947 1747 
z
" id="DejaVuSans-64" transform="scale(0.015625)"/>
       <path d="M 603 3500 
L 1178 3500 
L 1178 0 
L 603 0 
L 603 3500 
z
M 603 4863 
L 1178 4863 
L 1178 4134 
L 603 4134 
L 603 4863 
z
" id="DejaVuSans-69" transform="scale(0.015625)"/>
       <path d="M 3328 2828 
Q 3544 3216 3844 3400 
Q 4144 3584 4550 3584 
Q 5097 3584 5394 3201 
Q 5691 2819 5691 2113 
L 5691 0 
L 5113 0 
L 5113 2094 
Q 5113 2597 4934 2840 
Q 4756 3084 4391 3084 
Q 3944 3084 3684 2787 
Q 3425 2491 3425 1978 
L 3425 0 
L 2847 0 
L 2847 2094 
Q 2847 2600 2669 2842 
Q 2491 3084 2119 3084 
Q 1678 3084 1418 2786 
Q 1159 2488 1159 1978 
L 1159 0 
L 581 0 
L 581 3500 
L 1159 3500 
L 1159 2956 
Q 1356 3278 1631 3431 
Q 1906 3584 2284 3584 
Q 2666 3584 2933 3390 
Q 3200 3197 3328 2828 
z
" id="DejaVuSans-6d" transform="scale(0.015625)"/>
       <path d="M 3513 2113 
L 3513 0 
L 2938 0 
L 2938 2094 
Q 2938 2591 2744 2837 
Q 2550 3084 2163 3084 
Q 1697 3084 1428 2787 
Q 1159 2491 1159 1978 
L 1159 0 
L 581 0 
L 581 3500 
L 1159 3500 
L 1159 2956 
Q 1366 3272 1645 3428 
Q 1925 3584 2291 3584 
Q 2894 3584 3203 3211 
Q 3513 2838 3513 2113 
z
" id="DejaVuSans-6e" transform="scale(0.015625)"/>
       <path d="M 513 4856 
L 1013 4856 
Q 1481 4119 1714 3412 
Q 1947 2706 1947 2009 
Q 1947 1309 1714 600 
Q 1481 -109 1013 -844 
L 513 -844 
Q 928 -128 1133 580 
Q 1338 1288 1338 2009 
Q 1338 2731 1133 3434 
Q 928 4138 513 4856 
z
" id="DejaVuSans-29" transform="scale(0.015625)"/>
      </defs>
      <use xlink:href="#DejaVuSans-6c"/>
      <use x="27.783203" xlink:href="#DejaVuSans-6f"/>
      <use x="88.964844" xlink:href="#DejaVuSans-67"/>
      <use x="152.441406" xlink:href="#DejaVuSans-31"/>
      <use x="216.064453" xlink:href="#DejaVuSans-30"/>
      <use x="279.6875" xlink:href="#DejaVuSans-28"/>
      <use x="318.701172" xlink:href="#DejaVuSans-23"/>
      <use x="402.490234" xlink:href="#DejaVuSans-20"/>
      <use x="434.277344" xlink:href="#DejaVuSans-66"/>
      <use x="463.982422" xlink:href="#DejaVuSans-2d"/>
      <use x="500.066406" xlink:href="#DejaVuSans-65"/>
      <use x="561.589844" xlink:href="#DejaVuSans-76"/>
      <use x="620.769531" xlink:href="#DejaVuSans-61"/>
      <use x="682.048828" xlink:href="#DejaVuSans-6c"/>
      <use x="709.832031" xlink:href="#DejaVuSans-73"/>
      <use x="761.931641" xlink:href="#DejaVuSans-20"/>
      <use x="793.71875" xlink:href="#DejaVuSans-2f"/>
      <use x="827.410156" xlink:href="#DejaVuSans-20"/>
      <use x="859.197266" xlink:href="#DejaVuSans-64"/>
      <use x="922.673828" xlink:href="#DejaVuSans-69"/>
      <use x="950.457031" xlink:href="#DejaVuSans-6d"/>
      <use x="1047.869141" xlink:href="#DejaVuSans-65"/>
      <use x="1109.392578" xlink:href="#DejaVuSans-6e"/>
      <use x="1172.771484" xlink:href="#DejaVuSans-73"/>
      <use x="1224.871094" xlink:href="#DejaVuSans-69"/>
      <use x="1252.654297" xlink:href="#DejaVuSans-6f"/>
      <use x="1313.835938" xlink:href="#DejaVuSans-6e"/>
      <use x="1377.214844" xlink:href="#DejaVuSans-29"/>
     </g>
    </g>
   </g>
   <g id="matplotlib.axis_2">
    <g id="ytick_1">
     <g id="line2d_21">
      <path clip-path="url(#p4a43a7df23)" d="M 57.6 298.944 
L 360.8064 298.944 
" style="fill:none;stroke:#b0b0b0;stroke-linecap:square;stroke-width:0.8;"/>
     </g>
     <g id="line2d_22">
      <defs>
       <path d="M 0 0 
L -3.5 0 
" id="mecae10f8a9" style="stroke:#000000;stroke-width:0.8;"/>
      </defs>
      <g>
       <use style="stroke:#000000;stroke-width:0.8;" x="57.6" xlink:href="#mecae10f8a9" y="298.944"/>
      </g>
     </g>
     <g id="text_6">
      <!-- 0.0 -->
      <g transform="translate(25.155 305.02275)scale(0.16 -0.16)">
       <defs>
        <path d="M 684 794 
L 1344 794 
L 1344 0 
L 684 0 
L 684 794 
z
" id="DejaVuSans-2e" transform="scale(0.015625)"/>
       </defs>
       <use xlink:href="#DejaVuSans-30"/>
       <use x="63.623047" xlink:href="#DejaVuSans-2e"/>
       <use x="95.410156" xlink:href="#DejaVuSans-30"/>
      </g>
     </g>
    </g>
    <g id="ytick_2">
     <g id="line2d_23">
      <path clip-path="url(#p4a43a7df23)" d="M 57.6 244.6848 
L 360.8064 244.6848 
" style="fill:none;stroke:#b0b0b0;stroke-linecap:square;stroke-width:0.8;"/>
     </g>
     <g id="line2d_24">
      <g>
       <use style="stroke:#000000;stroke-width:0.8;" x="57.6" xlink:href="#mecae10f8a9" y="244.6848"/>
      </g>
     </g>
     <g id="text_7">
      <!-- 0.2 -->
      <g transform="translate(25.155 250.76355)scale(0.16 -0.16)">
       <use xlink:href="#DejaVuSans-30"/>
       <use x="63.623047" xlink:href="#DejaVuSans-2e"/>
       <use x="95.410156" xlink:href="#DejaVuSans-32"/>
      </g>
     </g>
    </g>
    <g id="ytick_3">
     <g id="line2d_25">
      <path clip-path="url(#p4a43a7df23)" d="M 57.6 190.4256 
L 360.8064 190.4256 
" style="fill:none;stroke:#b0b0b0;stroke-linecap:square;stroke-width:0.8;"/>
     </g>
     <g id="line2d_26">
      <g>
       <use style="stroke:#000000;stroke-width:0.8;" x="57.6" xlink:href="#mecae10f8a9" y="190.4256"/>
      </g>
     </g>
     <g id="text_8">
      <!-- 0.4 -->
      <g transform="translate(25.155 196.50435)scale(0.16 -0.16)">
       <use xlink:href="#DejaVuSans-30"/>
       <use x="63.623047" xlink:href="#DejaVuSans-2e"/>
       <use x="95.410156" xlink:href="#DejaVuSans-34"/>
      </g>
     </g>
    </g>
    <g id="ytick_4">
     <g id="line2d_27">
      <path clip-path="url(#p4a43a7df23)" d="M 57.6 136.1664 
L 360.8064 136.1664 
" style="fill:none;stroke:#b0b0b0;stroke-linecap:square;stroke-width:0.8;"/>
     </g>
     <g id="line2d_28">
      <g>
       <use style="stroke:#000000;stroke-width:0.8;" x="57.6" xlink:href="#mecae10f8a9" y="136.1664"/>
      </g>
     </g>
     <g id="text_9">
      <!-- 0.6 -->
      <g transform="translate(25.155 142.24515)scale(0.16 -0.16)">
       <use xlink:href="#DejaVuSans-30"/>
       <use x="63.623047" xlink:href="#DejaVuSans-2e"/>
       <use x="95.410156" xlink:href="#DejaVuSans-36"/>
      </g>
     </g>
    </g>
    <g id="ytick_5">
     <g id="line2d_29">
      <path clip-path="url(#p4a43a7df23)" d="M 57.6 81.9072 
L 360.8064 81.9072 
" style="fill:none;stroke:#b0b0b0;stroke-linecap:square;stroke-width:0.8;"/>
     </g>
     <g id="line2d_30">
      <g>
       <use style="stroke:#000000;stroke-width:0.8;" x="57.6" xlink:href="#mecae10f8a9" y="81.9072"/>
      </g>
     </g>
     <g id="text_10">
      <!-- 0.8 -->
      <g transform="translate(25.155 87.98595)scale(0.16 -0.16)">
       <defs>
        <path d="M 2034 2216 
Q 1584 2216 1326 1975 
Q 1069 1734 1069 1313 
Q 1069 891 1326 650 
Q 1584 409 2034 409 
Q 2484 409 2743 651 
Q 3003 894 3003 1313 
Q 3003 1734 2745 1975 
Q 2488 2216 2034 2216 
z
M 1403 2484 
Q 997 2584 770 2862 
Q 544 3141 544 3541 
Q 544 4100 942 4425 
Q 1341 4750 2034 4750 
Q 2731 4750 3128 4425 
Q 3525 4100 3525 3541 
Q 3525 3141 3298 2862 
Q 3072 2584 2669 2484 
Q 3125 2378 3379 2068 
Q 3634 1759 3634 1313 
Q 3634 634 3220 271 
Q 2806 -91 2034 -91 
Q 1263 -91 848 271 
Q 434 634 434 1313 
Q 434 1759 690 2068 
Q 947 2378 1403 2484 
z
M 1172 3481 
Q 1172 3119 1398 2916 
Q 1625 2713 2034 2713 
Q 2441 2713 2670 2916 
Q 2900 3119 2900 3481 
Q 2900 3844 2670 4047 
Q 2441 4250 2034 4250 
Q 1625 4250 1398 4047 
Q 1172 3844 1172 3481 
z
" id="DejaVuSans-38" transform="scale(0.015625)"/>
       </defs>
       <use xlink:href="#DejaVuSans-30"/>
       <use x="63.623047" xlink:href="#DejaVuSans-2e"/>
       <use x="95.410156" xlink:href="#DejaVuSans-38"/>
      </g>
     </g>
    </g>
    <g id="ytick_6">
     <g id="line2d_31">
      <path clip-path="url(#p4a43a7df23)" d="M 57.6 27.648 
L 360.8064 27.648 
" style="fill:none;stroke:#b0b0b0;stroke-linecap:square;stroke-width:0.8;"/>
     </g>
     <g id="line2d_32">
      <g>
       <use style="stroke:#000000;stroke-width:0.8;" x="57.6" xlink:href="#mecae10f8a9" y="27.648"/>
      </g>
     </g>
     <g id="text_11">
      <!-- 1.0 -->
      <g transform="translate(25.155 33.72675)scale(0.16 -0.16)">
       <use xlink:href="#DejaVuSans-31"/>
       <use x="63.623047" xlink:href="#DejaVuSans-2e"/>
       <use x="95.410156" xlink:href="#DejaVuSans-30"/>
      </g>
     </g>
    </g>
    <g id="text_12">
     <!-- Fraction of function,target pairs -->
     <g transform="translate(17.619531 297.681)rotate(-90)scale(0.17 -0.17)">
      <defs>
       <path d="M 628 4666 
L 3309 4666 
L 3309 4134 
L 1259 4134 
L 1259 2759 
L 3109 2759 
L 3109 2228 
L 1259 2228 
L 1259 0 
L 628 0 
L 628 4666 
z
" id="DejaVuSans-46" transform="scale(0.015625)"/>
       <path d="M 2631 2963 
Q 2534 3019 2420 3045 
Q 2306 3072 2169 3072 
Q 1681 3072 1420 2755 
Q 1159 2438 1159 1844 
L 1159 0 
L 581 0 
L 581 3500 
L 1159 3500 
L 1159 2956 
Q 1341 3275 1631 3429 
Q 1922 3584 2338 3584 
Q 2397 3584 2469 3576 
Q 2541 3569 2628 3553 
L 2631 2963 
z
" id="DejaVuSans-72" transform="scale(0.015625)"/>
       <path d="M 3122 3366 
L 3122 2828 
Q 2878 2963 2633 3030 
Q 2388 3097 2138 3097 
Q 1578 3097 1268 2742 
Q 959 2388 959 1747 
Q 959 1106 1268 751 
Q 1578 397 2138 397 
Q 2388 397 2633 464 
Q 2878 531 3122 666 
L 3122 134 
Q 2881 22 2623 -34 
Q 2366 -91 2075 -91 
Q 1284 -91 818 406 
Q 353 903 353 1747 
Q 353 2603 823 3093 
Q 1294 3584 2113 3584 
Q 2378 3584 2631 3529 
Q 2884 3475 3122 3366 
z
" id="DejaVuSans-63" transform="scale(0.015625)"/>
       <path d="M 1172 4494 
L 1172 3500 
L 2356 3500 
L 2356 3053 
L 1172 3053 
L 1172 1153 
Q 1172 725 1289 603 
Q 1406 481 1766 481 
L 2356 481 
L 2356 0 
L 1766 0 
Q 1100 0 847 248 
Q 594 497 594 1153 
L 594 3053 
L 172 3053 
L 172 3500 
L 594 3500 
L 594 4494 
L 1172 4494 
z
" id="DejaVuSans-74" transform="scale(0.015625)"/>
       <path d="M 544 1381 
L 544 3500 
L 1119 3500 
L 1119 1403 
Q 1119 906 1312 657 
Q 1506 409 1894 409 
Q 2359 409 2629 706 
Q 2900 1003 2900 1516 
L 2900 3500 
L 3475 3500 
L 3475 0 
L 2900 0 
L 2900 538 
Q 2691 219 2414 64 
Q 2138 -91 1772 -91 
Q 1169 -91 856 284 
Q 544 659 544 1381 
z
M 1991 3584 
L 1991 3584 
z
" id="DejaVuSans-75" transform="scale(0.015625)"/>
       <path d="M 750 794 
L 1409 794 
L 1409 256 
L 897 -744 
L 494 -744 
L 750 256 
L 750 794 
z
" id="DejaVuSans-2c" transform="scale(0.015625)"/>
       <path d="M 1159 525 
L 1159 -1331 
L 581 -1331 
L 581 3500 
L 1159 3500 
L 1159 2969 
Q 1341 3281 1617 3432 
Q 1894 3584 2278 3584 
Q 2916 3584 3314 3078 
Q 3713 2572 3713 1747 
Q 3713 922 3314 415 
Q 2916 -91 2278 -91 
Q 1894 -91 1617 61 
Q 1341 213 1159 525 
z
M 3116 1747 
Q 3116 2381 2855 2742 
Q 2594 3103 2138 3103 
Q 1681 3103 1420 2742 
Q 1159 2381 1159 1747 
Q 1159 1113 1420 752 
Q 1681 391 2138 391 
Q 2594 391 2855 752 
Q 3116 1113 3116 1747 
z
" id="DejaVuSans-70" transform="scale(0.015625)"/>
      </defs>
      <use xlink:href="#DejaVuSans-46"/>
      <use x="50.269531" xlink:href="#DejaVuSans-72"/>
      <use x="91.382812" xlink:href="#DejaVuSans-61"/>
      <use x="152.662109" xlink:href="#DejaVuSans-63"/>
      <use x="207.642578" xlink:href="#DejaVuSans-74"/>
      <use x="246.851562" xlink:href="#DejaVuSans-69"/>
      <use x="274.634766" xlink:href="#DejaVuSans-6f"/>
      <use x="335.816406" xlink:href="#DejaVuSans-6e"/>
      <use x="399.195312" xlink:href="#DejaVuSans-20"/>
      <use x="430.982422" xlink:href="#DejaVuSans-6f"/>
      <use x="492.164062" xlink:href="#DejaVuSans-66"/>
      <use x="527.369141" xlink:href="#DejaVuSans-20"/>
      <use x="559.15625" xlink:href="#DejaVuSans-66"/>
      <use x="594.361328" xlink:href="#DejaVuSans-75"/>
      <use x="657.740234" xlink:href="#DejaVuSans-6e"/>
      <use x="721.119141" xlink:href="#DejaVuSans-63"/>
      <use x="776.099609" xlink:href="#DejaVuSans-74"/>
      <use x="815.308594" xlink:href="#DejaVuSans-69"/>
      <use x="843.091797" xlink:href="#DejaVuSans-6f"/>
      <use x="904.273438" xlink:href="#DejaVuSans-6e"/>
      <use x="967.652344" xlink:href="#DejaVuSans-2c"/>
      <use x="999.439453" xlink:href="#DejaVuSans-74"/>
      <use x="1038.648438" xlink:href="#DejaVuSans-61"/>
      <use x="1099.927734" xlink:href="#DejaVuSans-72"/>
      <use x="1139.291016" xlink:href="#DejaVuSans-67"/>
      <use x="1202.767578" xlink:href="#DejaVuSans-65"/>
      <use x="1264.291016" xlink:href="#DejaVuSans-74"/>
      <use x="1303.5" xlink:href="#DejaVuSans-20"/>
      <use x="1335.287109" xlink:href="#DejaVuSans-70"/>
      <use x="1398.763672" xlink:href="#DejaVuSans-61"/>
      <use x="1460.042969" xlink:href="#DejaVuSans-69"/>
      <use x="1487.826172" xlink:href="#DejaVuSans-72"/>
      <use x="1528.939453" xlink:href="#DejaVuSans-73"/>
     </g>
    </g>
   </g>
   <g id="line2d_33">
    <defs>
     <path d="M 0 1.5 
C 0.397805 1.5 0.77937 1.341951 1.06066 1.06066 
C 1.341951 0.77937 1.5 0.397805 1.5 0 
C 1.5 -0.397805 1.341951 -0.77937 1.06066 -1.06066 
C 0.77937 -1.341951 0.397805 -1.5 0 -1.5 
C -0.397805 -1.5 -0.77937 -1.341951 -1.06066 -1.06066 
C -1.341951 -0.77937 -1.5 -0.397805 -1.5 0 
C -1.5 0.397805 -1.341951 0.77937 -1.06066 1.06066 
C -0.77937 1.341951 -0.397805 1.5 0 1.5 
z
" id="ma05db892f0" style="stroke:#f5deb3;"/>
    </defs>
    <g>
     <use style="fill:#f5deb3;stroke:#f5deb3;" x="208.731687" xlink:href="#ma05db892f0" y="27.648"/>
     <use style="fill:#f5deb3;stroke:#f5deb3;" x="208.731687" xlink:href="#ma05db892f0" y="27.648"/>
    </g>
   </g>
   <g id="line2d_34">
    <defs>
     <path d="M 0 1.5 
C 0.397805 1.5 0.77937 1.341951 1.06066 1.06066 
C 1.341951 0.77937 1.5 0.397805 1.5 0 
C 1.5 -0.397805 1.341951 -0.77937 1.06066 -1.06066 
C 0.77937 -1.341951 0.397805 -1.5 0 -1.5 
C -0.397805 -1.5 -0.77937 -1.341951 -1.06066 -1.06066 
C -1.341951 -0.77937 -1.5 -0.397805 -1.5 0 
C -1.5 0.397805 -1.341951 0.77937 -1.06066 1.06066 
C -0.77937 1.341951 -0.397805 1.5 0 1.5 
z
" id="md9c052e975" style="stroke:#000080;"/>
    </defs>
    <g>
     <use style="fill:#000080;stroke:#000080;" x="268.975673" xlink:href="#md9c052e975" y="27.648"/>
     <use style="fill:#000080;stroke:#000080;" x="268.975673" xlink:href="#md9c052e975" y="27.648"/>
    </g>
   </g>
   <g id="line2d_35">
    <path d="M 36.933397 298.944 
L 36.933397 297.880094 
L 49.972572 297.880094 
L 49.972572 297.170824 
L 57.6 297.170824 
L 57.6 295.752282 
L 63.011746 295.752282 
L 63.011746 293.269835 
L 67.209423 293.269835 
L 67.209423 292.9152 
L 73.538988 292.9152 
L 73.538988 291.851294 
L 76.050921 291.851294 
L 76.050921 290.787388 
L 78.266603 290.787388 
L 78.266603 290.432753 
L 80.248597 290.432753 
L 80.248597 288.659576 
L 82.04153 288.659576 
L 82.04153 288.304941 
L 85.184077 288.304941 
L 85.184077 287.950306 
L 91.305777 287.950306 
L 91.305777 287.595671 
L 92.322865 287.595671 
L 92.322865 286.177129 
L 97.485448 286.177129 
L 97.485448 285.467859 
L 98.933205 285.467859 
L 98.933205 285.113224 
L 100.277459 285.113224 
L 100.277459 284.403953 
L 102.708132 284.403953 
L 102.708132 284.049318 
L 105.850679 284.049318 
L 105.850679 283.340047 
L 106.791453 283.340047 
L 106.791453 282.985412 
L 109.360651 282.985412 
L 109.360651 282.630776 
L 121.371615 282.630776 
L 121.371615 282.276141 
L 122.19863 282.276141 
L 122.19863 281.566871 
L 124.481616 281.566871 
L 124.481616 281.212235 
L 126.517282 281.212235 
L 126.517282 280.8576 
L 128.060076 280.8576 
L 128.060076 280.502965 
L 133.210806 280.502965 
L 133.210806 280.148329 
L 135.538796 280.148329 
L 135.538796 279.439059 
L 135.736814 279.439059 
L 135.736814 279.084424 
L 137.067478 279.084424 
L 137.067478 278.375153 
L 137.250116 278.375153 
L 137.250116 278.020518 
L 142.038218 278.020518 
L 142.038218 277.665882 
L 144.293001 277.665882 
L 144.293001 276.956612 
L 144.664294 276.956612 
L 144.664294 276.601976 
L 146.859539 276.601976 
L 146.859539 276.247341 
L 147.607824 276.247341 
L 147.607824 275.892706 
L 150.870907 275.892706 
L 150.870907 275.538071 
L 151.392277 275.538071 
L 151.392277 274.8288 
L 151.899585 274.8288 
L 151.899585 274.474165 
L 152.1482 274.474165 
L 152.230346 273.410259 
L 153.421349 273.410259 
L 153.421349 273.055624 
L 153.5746 273.055624 
L 153.5746 272.700988 
L 154.39587 272.700988 
L 154.39587 272.346353 
L 154.757642 272.346353 
L 154.757642 271.637082 
L 156.793307 271.637082 
L 156.857511 270.927812 
L 157.238196 270.927812 
L 157.238196 270.573176 
L 157.672805 270.573176 
L 157.672805 270.218541 
L 158.861925 270.218541 
L 158.861925 269.863906 
L 158.976805 269.863906 
L 158.976805 269.509271 
L 161.492316 269.509271 
L 161.492316 269.154635 
L 162.420867 269.154635 
L 162.420867 268.8 
L 164.237627 268.8 
L 164.237627 268.445365 
L 164.580835 268.445365 
L 164.580835 268.090729 
L 165.001222 268.090729 
L 165.001222 267.736094 
L 165.814821 267.736094 
L 165.854592 267.026824 
L 166.632844 267.026824 
L 166.632844 266.672188 
L 167.670986 266.672188 
L 167.707023 265.253647 
L 170.261661 265.253647 
L 170.261661 264.899012 
L 171.001277 264.899012 
L 171.001277 264.544376 
L 172.172803 264.544376 
L 172.172803 264.189741 
L 172.510491 264.189741 
L 172.510491 263.835106 
L 172.649425 263.835106 
L 172.649425 263.480471 
L 173.221995 263.480471 
L 173.221995 262.7712 
L 173.620559 262.7712 
L 173.620559 262.416565 
L 174.317363 262.416565 
L 174.317363 262.061929 
L 175.826014 262.061929 
L 175.826014 261.352659 
L 176.310755 261.352659 
L 176.310755 260.998024 
L 177.820865 260.998024 
L 177.820865 260.288753 
L 178.623668 260.288753 
L 178.623668 259.934118 
L 180.170429 259.934118 
L 180.170429 259.579482 
L 181.444147 259.579482 
L 181.444147 258.870212 
L 183.527342 258.870212 
L 183.527342 258.160941 
L 183.926786 258.160941 
L 184.017773 256.387765 
L 184.377384 256.387765 
L 184.377384 256.033129 
L 186.758069 256.033129 
L 186.758069 255.678494 
L 187.651898 255.678494 
L 187.651898 255.323859 
L 188.445494 255.323859 
L 188.445494 254.969224 
L 189.206963 254.969224 
L 189.206963 254.614588 
L 190.504443 254.614588 
L 190.504443 253.905318 
L 190.664497 253.905318 
L 190.664497 253.550682 
L 193.167795 253.550682 
L 193.167795 253.196047 
L 195.026144 253.196047 
L 195.026144 252.841412 
L 195.442807 252.841412 
L 195.442807 252.486776 
L 197.412847 252.486776 
L 197.412847 252.132141 
L 197.538603 252.132141 
L 197.538603 251.777506 
L 197.794896 251.777506 
L 197.794896 251.422871 
L 198.297237 251.422871 
L 198.311394 250.358965 
L 198.834746 250.358965 
L 198.937692 249.295059 
L 199.209491 249.295059 
L 199.209491 248.940424 
L 199.689046 248.940424 
L 199.689046 248.585788 
L 201.529448 248.585788 
L 201.529448 248.231153 
L 204.022362 248.231153 
L 204.05889 246.812612 
L 204.734735 246.812612 
L 204.734735 246.457976 
L 205.357969 246.457976 
L 205.357969 245.748706 
L 205.561208 245.748706 
L 205.561208 245.394071 
L 206.130078 245.394071 
L 206.130078 244.6848 
L 206.582223 244.6848 
L 206.582223 244.330165 
L 206.750144 244.330165 
L 206.750144 243.975529 
L 207.675814 243.975529 
L 207.675814 243.620894 
L 207.825759 243.620894 
L 207.825759 243.266259 
L 209.163832 243.266259 
L 209.163832 242.911624 
L 209.634783 242.911624 
L 209.685102 241.493082 
L 209.816073 241.493082 
L 209.816073 241.138447 
L 210.07531 241.138447 
L 210.07531 240.783812 
L 210.282405 240.783812 
L 210.316077 240.074541 
L 210.697205 240.074541 
L 210.697205 238.301365 
L 210.9555 238.301365 
L 210.9555 237.592094 
L 211.730577 237.592094 
L 211.730577 237.237459 
L 211.848096 237.237459 
L 211.8722 236.173553 
L 212.354618 236.173553 
L 212.448299 234.045741 
L 212.700251 234.045741 
L 212.700251 233.691106 
L 212.900062 233.691106 
L 212.994315 232.6272 
L 213.117108 232.6272 
L 213.216691 231.917929 
L 213.287045 231.917929 
L 213.334863 230.854024 
L 213.458623 230.854024 
L 213.458623 230.144753 
L 213.587859 230.144753 
L 213.684987 229.435482 
L 213.734923 229.435482 
L 213.784726 228.371576 
L 213.868471 228.371576 
L 213.914835 225.889129 
L 213.988781 225.889129 
L 213.988781 225.534494 
L 214.184561 225.534494 
L 214.184561 224.825224 
L 214.474463 224.825224 
L 214.474463 223.761318 
L 214.968365 223.761318 
L 214.997533 222.697412 
L 215.081863 222.697412 
L 215.165818 220.214965 
L 215.25515 220.214965 
L 215.25515 219.860329 
L 215.659012 219.860329 
L 215.684319 218.796424 
L 215.779617 218.796424 
L 215.790797 218.087153 
L 215.990907 218.087153 
L 215.990907 217.732518 
L 216.262628 217.732518 
L 216.352336 217.023247 
L 216.395678 217.023247 
L 216.482062 214.5408 
L 216.642972 214.5408 
L 216.642972 214.186165 
L 216.813105 214.186165 
L 216.887057 213.122259 
L 216.994822 213.122259 
L 216.994822 212.412988 
L 217.117603 212.412988 
L 217.2137 211.703718 
L 217.363357 211.703718 
L 217.470991 210.639812 
L 217.57293 210.639812 
L 217.651555 208.866635 
L 217.692007 208.866635 
L 217.692007 208.512 
L 217.852952 208.512 
L 217.852952 208.157365 
L 218.20029 208.157365 
L 218.210121 206.738824 
L 218.388627 206.738824 
L 218.456649 203.547106 
L 218.582326 203.547106 
L 218.582326 202.837835 
L 218.76928 202.837835 
L 218.776434 201.064659 
L 218.89763 201.064659 
L 218.89763 200.710024 
L 219.15407 200.710024 
L 219.15407 200.000753 
L 219.397837 200.000753 
L 219.494466 198.936847 
L 219.620258 198.936847 
L 219.697601 196.4544 
L 219.916526 196.4544 
L 219.983723 191.844141 
L 220.300766 191.844141 
L 220.300766 191.134871 
L 220.469294 191.134871 
L 220.469294 190.780235 
L 220.597412 190.780235 
L 220.632006 189.007059 
L 221.012634 189.007059 
L 221.10344 188.297788 
L 221.145526 188.297788 
L 221.229417 187.233882 
L 221.275399 187.233882 
L 221.298347 185.815341 
L 221.497446 185.815341 
L 221.497446 185.106071 
L 221.688334 185.106071 
L 221.753571 184.042165 
L 221.808439 184.042165 
L 221.808439 183.332894 
L 221.933829 183.332894 
L 221.933829 182.978259 
L 222.136321 182.978259 
L 222.202013 181.914353 
L 222.283311 181.914353 
L 222.38395 176.240188 
L 222.641954 176.240188 
L 222.641954 175.885553 
L 222.812012 175.885553 
L 222.812012 174.821647 
L 222.950016 174.821647 
L 223.014834 174.112376 
L 223.069944 174.112376 
L 223.069944 173.757741 
L 223.190998 173.757741 
L 223.28128 172.693835 
L 223.328131 172.693835 
L 223.328131 170.920659 
L 223.542155 170.920659 
L 223.542155 170.211388 
L 223.75743 170.211388 
L 223.75743 169.856753 
L 224.082088 169.856753 
L 224.121606 168.792847 
L 224.22361 168.792847 
L 224.22361 168.083576 
L 224.346352 168.083576 
L 224.387089 167.374306 
L 224.457726 167.374306 
L 224.457726 167.019671 
L 224.722017 167.019671 
L 224.777551 164.537224 
L 225.12268 164.537224 
L 225.188918 162.409412 
L 225.33248 162.409412 
L 225.423118 160.2816 
L 225.631267 160.2816 
L 225.687488 158.863059 
L 225.791219 158.863059 
L 225.791219 158.508424 
L 225.930274 158.508424 
L 225.930274 157.799153 
L 226.047263 157.799153 
L 226.121626 157.089882 
L 226.176402 157.089882 
L 226.181228 154.607435 
L 226.288677 154.607435 
L 226.358908 152.834259 
L 226.449501 152.834259 
L 226.451087 151.061082 
L 226.575918 151.061082 
L 226.63567 148.224 
L 226.696797 148.224 
L 226.79668 145.741553 
L 226.865044 145.741553 
L 226.934705 145.032282 
L 227.13604 145.032282 
L 227.13604 144.323012 
L 227.248825 144.323012 
L 227.353385 142.904471 
L 227.476893 142.904471 
L 227.521877 141.485929 
L 227.589152 141.485929 
L 227.687388 138.648847 
L 227.727429 138.648847 
L 227.793974 137.230306 
L 227.907297 137.230306 
L 227.990748 135.811765 
L 228.111606 135.811765 
L 228.221594 133.329318 
L 228.320898 133.329318 
L 228.415396 130.846871 
L 228.461043 130.846871 
L 228.564763 127.655153 
L 228.764895 127.655153 
L 228.790112 126.236612 
L 229.032154 126.236612 
L 229.032154 125.527341 
L 229.184949 125.527341 
L 229.216455 123.754165 
L 229.504396 123.754165 
L 229.504396 122.335624 
L 229.641379 122.335624 
L 229.641379 121.626353 
L 229.764082 121.626353 
L 229.764082 121.271718 
L 229.95981 121.271718 
L 230.056916 120.562447 
L 230.265176 120.562447 
L 230.356858 118.08 
L 230.381317 118.08 
L 230.381317 117.725365 
L 230.503137 117.725365 
L 230.580945 117.016094 
L 230.672371 117.016094 
L 230.672371 116.661459 
L 230.794844 116.661459 
L 230.890248 114.179012 
L 230.975202 114.179012 
L 230.975202 113.824376 
L 231.1279 113.824376 
L 231.237621 112.0512 
L 231.240079 112.0512 
L 231.325918 109.568753 
L 231.361366 109.568753 
L 231.361366 108.859482 
L 231.60885 108.859482 
L 231.694226 106.731671 
L 231.781604 106.731671 
L 231.88165 102.121412 
L 231.962252 102.121412 
L 231.962252 100.702871 
L 232.389088 100.702871 
L 232.473305 99.284329 
L 232.718038 99.284329 
L 232.718038 98.575059 
L 238.626921 98.575059 
L 238.626921 98.220424 
L 239.605247 98.220424 
L 239.605247 97.511153 
L 239.732451 97.511153 
L 239.732451 96.092612 
L 240.36723 96.092612 
L 240.36723 95.383341 
L 240.579389 95.383341 
L 240.579389 95.028706 
L 240.825397 95.028706 
L 240.825397 94.674071 
L 241.138076 94.674071 
L 241.240917 92.191624 
L 241.271948 92.191624 
L 241.282761 91.127718 
L 241.414896 91.127718 
L 241.414896 90.773082 
L 241.541134 90.773082 
L 241.582317 89.354541 
L 241.710963 89.354541 
L 241.710963 88.999906 
L 241.857616 88.999906 
L 241.914147 86.872094 
L 242.000361 86.872094 
L 242.106195 84.744282 
L 242.175048 84.744282 
L 242.234746 82.971106 
L 242.376707 82.971106 
L 242.376707 82.616471 
L 242.712974 82.616471 
L 242.800265 81.552565 
L 242.864641 81.552565 
L 242.884506 80.134024 
L 243.068256 80.134024 
L 243.07874 79.424753 
L 243.222948 79.424753 
L 243.261909 77.296941 
L 243.594963 77.296941 
L 243.627437 75.169129 
L 243.766883 75.169129 
L 243.766883 74.814494 
L 243.937873 74.814494 
L 243.937873 74.459859 
L 244.082499 74.459859 
L 244.082499 74.105224 
L 244.298602 74.105224 
L 244.298602 73.750588 
L 244.420983 73.750588 
L 244.435007 72.686682 
L 244.580713 72.686682 
L 244.580713 71.268141 
L 244.98042 71.268141 
L 245.040713 69.8496 
L 245.144882 69.8496 
L 245.195873 68.431059 
L 245.381666 68.431059 
L 245.443576 66.657882 
L 245.719395 66.657882 
L 245.82611 64.530071 
L 245.845345 64.530071 
L 245.945726 62.402259 
L 246.105342 62.402259 
L 246.118164 60.629082 
L 246.235943 60.629082 
L 246.292349 59.210541 
L 246.590899 59.210541 
L 246.590899 58.501271 
L 246.724661 58.501271 
L 246.817785 56.728094 
L 246.968601 56.728094 
L 247.021262 55.309553 
L 247.129312 55.309553 
L 247.207841 52.827106 
L 247.249344 52.827106 
L 247.249344 51.7632 
L 251.056065 51.7632 
L 251.056065 51.408565 
L 251.474447 51.408565 
L 251.474447 51.053929 
L 251.592295 51.053929 
L 251.592295 50.699294 
L 251.788319 50.699294 
L 251.788319 50.344659 
L 251.911597 50.344659 
L 251.987218 48.926118 
L 252.06213 48.926118 
L 252.157373 47.507576 
L 252.407959 47.507576 
L 252.513377 46.798306 
L 252.643042 46.798306 
L 252.705186 46.089035 
L 252.847965 46.089035 
L 252.908659 44.670494 
L 252.966061 44.670494 
L 253.024832 43.961224 
L 253.141442 43.961224 
L 253.18245 42.897318 
L 253.330783 42.897318 
L 253.433434 41.478776 
L 253.473433 41.478776 
L 253.579059 39.7056 
L 253.824101 39.7056 
L 253.824101 39.350965 
L 254.184692 39.350965 
L 254.262207 37.932424 
L 254.509984 37.932424 
L 254.568043 36.868518 
L 254.673374 36.868518 
L 254.684687 36.159247 
L 254.866886 36.159247 
L 254.948966 35.449976 
L 255.173113 35.449976 
L 255.173113 35.095341 
L 255.291211 35.095341 
L 255.291211 34.740706 
L 255.412652 34.740706 
L 255.412652 34.386071 
L 255.54007 34.386071 
L 255.593019 32.967529 
L 258.492713 32.967529 
L 258.492713 32.612894 
L 259.035873 32.612894 
L 259.144377 31.903624 
L 259.381016 31.903624 
L 259.381016 31.548988 
L 259.666858 31.548988 
L 259.703165 30.485082 
L 260.208714 30.485082 
L 260.208714 30.130447 
L 260.341578 30.130447 
L 260.36485 29.421176 
L 264.09449 29.421176 
L 264.09449 29.066541 
L 264.528602 29.066541 
L 264.528602 28.711906 
L 264.960497 28.711906 
L 264.960497 28.357271 
L 265.314526 28.357271 
L 265.314526 28.002635 
L 268.975673 28.002635 
L 268.975673 27.648 
L 360.8064 27.648 
L 360.8064 27.648 
" style="fill:none;stroke:#000080;stroke-linecap:square;stroke-width:1.5;"/>
   </g>
   <g id="line2d_36">
    <defs>
     <path d="M 0 6 
C 1.591219 6 3.117479 5.367802 4.242641 4.242641 
C 5.367802 3.117479 6 1.591219 6 0 
C 6 -1.591219 5.367802 -3.117479 4.242641 -4.242641 
C 3.117479 -5.367802 1.591219 -6 0 -6 
C -1.591219 -6 -3.117479 -5.367802 -4.242641 -4.242641 
C -5.367802 -3.117479 -6 -1.591219 -6 0 
C -6 1.591219 -5.367802 3.117479 -4.242641 4.242641 
C -3.117479 5.367802 -1.591219 6 0 6 
z
" id="m983464371c" style="stroke:#000080;stroke-width:1.5;"/>
    </defs>
    <g>
     <use style="fill-opacity:0;stroke:#000080;stroke-width:1.5;" x="137.250116" xlink:href="#m983464371c" y="278.375153"/>
     <use style="fill-opacity:0;stroke:#000080;stroke-width:1.5;" x="213.893213" xlink:href="#m983464371c" y="228.016941"/>
     <use style="fill-opacity:0;stroke:#000080;stroke-width:1.5;" x="230.265176" xlink:href="#m983464371c" y="120.207812"/>
     <use style="fill-opacity:0;stroke:#000080;stroke-width:1.5;" x="268.975673" xlink:href="#m983464371c" y="28.002635"/>
     <use style="fill-opacity:0;stroke:#000080;stroke-width:1.5;" x="268.975673" xlink:href="#m983464371c" y="27.648"/>
     <use style="fill-opacity:0;stroke:#000080;stroke-width:1.5;" x="360.8064" xlink:href="#m983464371c" y="27.648"/>
    </g>
   </g>
   <g id="line2d_37">
    <path style="fill:none;stroke:#000080;stroke-linecap:square;stroke-width:1.5;"/>
    <g/>
   </g>
   <g id="line2d_38">
    <path clip-path="url(#p4a43a7df23)" d="M 236.28195 98.575059 
" style="fill:none;stroke:#000080;stroke-linecap:square;stroke-width:1.5;"/>
    <defs>
     <path d="M -12 12 
L 12 -12 
M -12 -12 
L 12 12 
" id="mc10f6c7e19" style="stroke:#000080;"/>
    </defs>
    <g clip-path="url(#p4a43a7df23)">
     <use style="fill:#000080;stroke:#000080;" x="236.28195" xlink:href="#mc10f6c7e19" y="98.575059"/>
    </g>
   </g>
   <g id="line2d_39">
    <defs>
     <path d="M 0 1.5 
C 0.397805 1.5 0.77937 1.341951 1.06066 1.06066 
C 1.341951 0.77937 1.5 0.397805 1.5 0 
C 1.5 -0.397805 1.341951 -0.77937 1.06066 -1.06066 
C 0.77937 -1.341951 0.397805 -1.5 0 -1.5 
C -0.397805 -1.5 -0.77937 -1.341951 -1.06066 -1.06066 
C -1.341951 -0.77937 -1.5 -0.397805 -1.5 0 
C -1.5 0.397805 -1.341951 0.77937 -1.06066 1.06066 
C -0.77937 1.341951 -0.397805 1.5 0 1.5 
z
" id="mb3978168f5" style="stroke:#ff00ff;"/>
    </defs>
    <g>
     <use style="fill:#ff00ff;stroke:#ff00ff;" x="245.311117" xlink:href="#mb3978168f5" y="27.648"/>
     <use style="fill:#ff00ff;stroke:#ff00ff;" x="245.311117" xlink:href="#mb3978168f5" y="27.648"/>
    </g>
   </g>
   <g id="line2d_40">
    <path d="M 36.933397 298.944 
L 36.933397 296.816188 
L 49.972572 296.816188 
L 49.972572 295.752282 
L 57.6 295.752282 
L 57.6 293.979106 
L 63.011746 293.979106 
L 63.011746 293.624471 
L 67.209423 293.624471 
L 67.209423 291.851294 
L 70.639174 291.851294 
L 70.639174 291.142024 
L 76.050921 291.142024 
L 76.050921 290.787388 
L 78.266603 290.787388 
L 78.266603 290.432753 
L 82.04153 290.432753 
L 82.04153 290.078118 
L 83.678349 290.078118 
L 83.678349 289.014212 
L 87.876026 289.014212 
L 87.876026 287.950306 
L 89.090095 287.950306 
L 89.090095 286.531765 
L 93.287772 286.531765 
L 93.287772 285.467859 
L 94.205591 285.467859 
L 94.205591 284.758588 
L 95.080704 284.758588 
L 95.080704 284.403953 
L 95.916911 284.403953 
L 95.916911 283.694682 
L 96.717523 283.694682 
L 96.717523 283.340047 
L 99.617337 283.340047 
L 99.617337 282.985412 
L 100.9152 282.985412 
L 100.9152 282.630776 
L 101.532027 282.630776 
L 101.532027 281.921506 
L 103.269713 281.921506 
L 103.269713 281.566871 
L 103.815014 281.566871 
L 103.815014 280.502965 
L 104.344952 280.502965 
L 104.344952 280.148329 
L 108.542628 280.148329 
L 108.542628 279.439059 
L 113.316634 279.439059 
L 113.316634 279.084424 
L 114.571202 279.084424 
L 114.571202 277.311247 
L 114.872193 277.311247 
L 114.872193 276.956612 
L 118.889854 276.956612 
L 118.889854 276.601976 
L 119.129494 276.601976 
L 119.129494 275.892706 
L 120.058649 275.892706 
L 120.058649 275.183435 
L 121.581803 275.183435 
L 121.581803 274.474165 
L 123.374735 274.474165 
L 123.374735 274.119529 
L 125.184934 274.119529 
L 125.184934 273.410259 
L 125.695686 273.410259 
L 125.695686 272.700988 
L 128.499277 272.700988 
L 128.499277 271.991718 
L 128.786481 271.991718 
L 128.786481 271.637082 
L 130.292209 271.637082 
L 130.292209 271.282447 
L 131.686295 271.282447 
L 131.686295 270.927812 
L 134.516177 270.927812 
L 134.516177 270.573176 
L 134.931919 270.573176 
L 134.931919 270.218541 
L 136.696795 270.218541 
L 136.696795 269.863906 
L 138.310202 269.863906 
L 138.310202 269.509271 
L 139.556456 269.509271 
L 139.556456 268.8 
L 139.796097 268.8 
L 139.796097 268.445365 
L 140.800648 268.445365 
L 140.800648 268.090729 
L 140.950542 268.090729 
L 140.950542 267.381459 
L 141.246793 267.381459 
L 141.246793 267.026824 
L 141.96763 267.026824 
L 141.96763 266.672188 
L 143.462475 266.672188 
L 143.52768 265.253647 
L 144.602918 265.253647 
L 144.602918 264.544376 
L 145.385592 264.544376 
L 145.385592 264.189741 
L 145.736128 264.189741 
L 145.736128 263.835106 
L 146.695245 263.835106 
L 146.695245 263.480471 
L 147.397049 263.480471 
L 147.397049 263.125835 
L 148.874221 263.125835 
L 148.874221 261.707294 
L 149.31003 261.707294 
L 149.357835 260.643388 
L 149.829328 260.643388 
L 149.829328 259.934118 
L 150.243797 259.934118 
L 150.243797 259.579482 
L 150.559965 259.579482 
L 150.559965 259.224847 
L 151.133398 259.224847 
L 151.133398 258.870212 
L 151.60532 258.870212 
L 151.60532 258.515576 
L 152.106991 258.515576 
L 152.106991 256.7424 
L 152.434157 256.7424 
L 152.434157 256.387765 
L 152.795543 256.387765 
L 152.795543 255.323859 
L 152.953957 255.323859 
L 152.953957 254.259953 
L 153.5746 254.259953 
L 153.5746 253.905318 
L 155.529866 253.905318 
L 155.598521 251.777506 
L 157.143744 251.777506 
L 157.238196 250.7136 
L 157.363398 250.7136 
L 157.363398 249.649694 
L 157.764644 249.649694 
L 157.764644 249.295059 
L 158.067574 249.295059 
L 158.067574 248.940424 
L 158.276759 248.940424 
L 158.336102 247.876518 
L 158.717331 247.876518 
L 158.717331 246.457976 
L 160.196243 246.457976 
L 160.196243 245.748706 
L 160.489139 245.748706 
L 160.489139 245.394071 
L 160.907191 245.394071 
L 160.984551 243.975529 
L 161.214743 243.975529 
L 161.214743 243.620894 
L 161.74115 243.620894 
L 161.74115 243.266259 
L 161.96232 243.266259 
L 161.96232 242.911624 
L 162.373122 242.911624 
L 162.468491 241.847718 
L 162.634233 241.847718 
L 162.634233 241.493082 
L 162.751732 241.493082 
L 162.751732 241.138447 
L 163.145827 241.138447 
L 163.145827 240.783812 
L 164.063646 240.783812 
L 164.085482 239.365271 
L 164.345553 239.365271 
L 164.345553 239.010635 
L 164.516958 239.010635 
L 164.516958 238.656 
L 165.392072 238.656 
L 165.392072 238.301365 
L 165.654892 238.301365 
L 165.654892 237.946729 
L 165.774966 237.946729 
L 165.774966 237.592094 
L 165.973402 237.592094 
L 166.071841 236.882824 
L 166.150222 236.882824 
L 166.150222 236.528188 
L 166.991529 236.528188 
L 167.028891 235.818918 
L 167.306762 235.818918 
L 167.416772 234.755012 
L 167.598703 234.755012 
L 167.707023 233.691106 
L 167.725016 233.691106 
L 167.725016 233.336471 
L 168.274427 233.336471 
L 168.274427 232.981835 
L 168.465585 232.981835 
L 168.465585 232.6272 
L 168.637696 232.6272 
L 168.740211 231.917929 
L 170.588827 231.917929 
L 170.588827 231.563294 
L 170.757955 231.563294 
L 170.864796 230.499388 
L 171.166753 230.499388 
L 171.166753 230.144753 
L 171.449192 230.144753 
L 171.449192 229.790118 
L 171.669213 229.790118 
L 171.756506 228.726212 
L 171.88669 228.726212 
L 171.901099 228.016941 
L 172.1586 228.016941 
L 172.1586 227.662306 
L 172.412623 227.662306 
L 172.412623 227.307671 
L 172.524431 227.307671 
L 172.524431 226.953035 
L 172.663262 226.953035 
L 172.759838 225.534494 
L 172.842224 225.534494 
L 172.842224 225.179859 
L 173.046626 225.179859 
L 173.046626 224.825224 
L 173.369117 224.825224 
L 173.448884 224.115953 
L 173.567903 224.115953 
L 173.673069 223.406682 
L 173.972187 223.406682 
L 173.972187 222.342776 
L 174.139174 222.342776 
L 174.139174 221.988141 
L 174.405829 221.988141 
L 174.481327 221.278871 
L 174.668757 221.278871 
L 174.668757 220.924235 
L 174.878944 220.924235 
L 174.878944 220.5696 
L 175.02591 220.5696 
L 175.111113 219.860329 
L 175.519553 219.860329 
L 175.519553 219.505694 
L 175.77919 219.505694 
L 175.826014 218.441788 
L 176.127562 218.441788 
L 176.207929 217.732518 
L 176.378996 217.732518 
L 176.378996 217.377882 
L 176.794427 217.377882 
L 176.894106 216.313976 
L 176.960266 216.313976 
L 177.04812 215.250071 
L 177.091893 215.250071 
L 177.091893 214.895435 
L 177.233457 214.895435 
L 177.233457 214.5408 
L 177.470626 214.5408 
L 177.470626 214.186165 
L 177.651866 214.186165 
L 177.704841 213.476894 
L 177.88385 213.476894 
L 177.988359 212.767624 
L 178.040396 212.767624 
L 178.133703 212.058353 
L 178.18534 212.058353 
L 178.18534 211.703718 
L 178.573221 211.703718 
L 178.573221 211.349082 
L 178.824112 211.349082 
L 178.933453 210.285176 
L 179.012577 210.285176 
L 179.012577 209.930541 
L 179.189397 209.930541 
L 179.267453 208.866635 
L 179.374254 208.866635 
L 179.374254 208.512 
L 179.538128 208.512 
L 179.576479 207.448094 
L 179.729109 207.448094 
L 179.795498 206.738824 
L 179.936974 206.738824 
L 179.965142 205.674918 
L 180.049394 205.674918 
L 180.049394 205.320282 
L 180.318334 205.320282 
L 180.318334 204.965647 
L 180.474219 204.965647 
L 180.474219 204.611012 
L 180.59256 204.611012 
L 180.59256 204.256376 
L 181.269884 204.256376 
L 181.304866 203.547106 
L 181.547935 203.547106 
L 181.651154 202.4832 
L 181.770864 202.4832 
L 181.770864 202.128565 
L 181.923667 202.128565 
L 182.024849 201.419294 
L 182.20895 201.419294 
L 182.283747 200.710024 
L 182.465343 200.710024 
L 182.522758 200.000753 
L 182.919829 200.000753 
L 182.919829 199.646118 
L 183.103358 199.646118 
L 183.182598 198.582212 
L 183.496262 198.582212 
L 183.496262 198.227576 
L 183.735804 198.227576 
L 183.79713 197.518306 
L 183.972335 197.518306 
L 183.972335 197.163671 
L 184.554643 197.163671 
L 184.576684 196.4544 
L 184.693799 196.4544 
L 184.693799 196.099765 
L 184.853651 196.099765 
L 184.904229 195.390494 
L 185.076616 195.390494 
L 185.155102 194.681224 
L 185.233261 194.681224 
L 185.233261 194.326588 
L 185.444788 194.326588 
L 185.521755 193.617318 
L 185.591453 193.617318 
L 185.591453 193.262682 
L 185.750786 193.262682 
L 185.750786 192.908047 
L 186.220844 192.908047 
L 186.308106 191.844141 
L 186.507947 191.844141 
L 186.507947 191.489506 
L 186.659734 191.489506 
L 186.659734 191.134871 
L 186.959682 191.134871 
L 187.050029 190.070965 
L 187.229432 190.070965 
L 187.274017 189.361694 
L 187.37553 189.361694 
L 187.37553 189.007059 
L 187.539328 189.007059 
L 187.645662 186.879247 
L 187.664364 186.879247 
L 187.701713 186.169976 
L 187.979494 186.169976 
L 187.979494 185.815341 
L 188.289431 185.815341 
L 188.373626 185.106071 
L 188.871033 185.106071 
L 188.917726 184.3968 
L 189.384081 184.3968 
L 189.384081 184.042165 
L 189.542638 184.042165 
L 189.649474 183.332894 
L 189.727809 183.332894 
L 189.766855 182.623624 
L 189.911175 182.623624 
L 190.010445 181.914353 
L 190.037927 181.914353 
L 190.087294 181.205082 
L 190.541911 181.205082 
L 190.632595 180.495812 
L 191.006678 180.495812 
L 191.006678 180.141176 
L 191.39392 180.141176 
L 191.465331 179.077271 
L 191.541542 179.077271 
L 191.541542 178.722635 
L 191.67795 178.722635 
L 191.67795 178.368 
L 191.952795 178.368 
L 191.952795 178.013365 
L 192.105956 178.013365 
L 192.160005 176.949459 
L 192.355249 176.949459 
L 192.355249 176.594824 
L 192.572503 176.594824 
L 192.586897 175.885553 
L 192.72072 175.885553 
L 192.72072 175.530918 
L 192.990238 175.530918 
L 193.05117 174.467012 
L 193.163144 174.467012 
L 193.163144 174.112376 
L 193.283701 174.112376 
L 193.316027 173.403106 
L 193.421853 173.403106 
L 193.522523 172.693835 
L 193.554442 172.693835 
L 193.554442 172.3392 
L 193.897546 172.3392 
L 193.995709 171.275294 
L 194.017948 171.275294 
L 194.128748 170.211388 
L 194.164066 170.211388 
L 194.21692 169.147482 
L 194.409457 169.147482 
L 194.509322 168.438212 
L 194.561216 168.438212 
L 194.561216 168.083576 
L 194.698904 168.083576 
L 194.792984 166.3104 
L 194.839848 166.3104 
L 194.895082 165.246494 
L 195.106023 165.246494 
L 195.106023 164.891859 
L 195.314626 164.891859 
L 195.347788 164.182588 
L 195.451047 164.182588 
L 195.508625 163.118682 
L 195.594663 163.118682 
L 195.61509 162.409412 
L 195.78581 162.409412 
L 195.830267 160.990871 
L 195.91485 160.990871 
L 195.91485 160.636235 
L 196.146502 160.636235 
L 196.23758 159.572329 
L 196.477021 159.572329 
L 196.566517 158.153788 
L 196.59367 158.153788 
L 196.667176 157.444518 
L 196.855427 157.444518 
L 196.870712 156.735247 
L 196.988749 156.735247 
L 197.056948 155.671341 
L 197.106049 155.671341 
L 197.207622 153.543529 
L 197.248846 153.543529 
L 197.248846 153.188894 
L 197.394283 153.188894 
L 197.501704 151.770353 
L 197.71107 151.770353 
L 197.71107 151.415718 
L 198.080007 151.415718 
L 198.144369 150.706447 
L 198.304317 150.706447 
L 198.403158 148.933271 
L 198.438333 148.933271 
L 198.494476 147.514729 
L 198.658435 147.514729 
L 198.658435 147.160094 
L 198.937692 147.160094 
L 198.988954 146.450824 
L 199.080876 146.450824 
L 199.182487 145.741553 
L 199.233087 145.741553 
L 199.330531 143.968376 
L 199.364015 143.968376 
L 199.427472 142.904471 
L 199.51728 142.904471 
L 199.51728 142.549835 
L 199.78089 142.549835 
L 199.882054 141.840565 
L 199.960003 141.840565 
L 200.034401 140.776659 
L 200.153473 140.776659 
L 200.243082 140.067388 
L 200.367188 140.067388 
L 200.367188 139.712753 
L 200.518819 139.712753 
L 200.597311 139.003482 
L 200.712883 139.003482 
L 200.712883 138.648847 
L 200.830843 138.648847 
L 200.84631 137.939576 
L 201.009474 137.939576 
L 201.113406 135.811765 
L 201.174275 135.811765 
L 201.189462 135.102494 
L 201.376763 135.102494 
L 201.376763 134.747859 
L 201.609782 134.747859 
L 201.627587 134.038588 
L 201.74881 134.038588 
L 201.83995 133.329318 
L 201.869256 133.329318 
L 201.971469 132.265412 
L 202.394801 132.265412 
L 202.426099 131.556141 
L 202.53382 131.556141 
L 202.53382 131.201506 
L 202.736248 131.201506 
L 202.819954 130.1376 
L 202.961406 130.1376 
L 203.063366 128.719059 
L 203.131946 128.719059 
L 203.19209 127.655153 
L 203.28738 127.655153 
L 203.306381 126.945882 
L 203.904471 126.945882 
L 203.904471 126.591247 
L 204.056283 126.591247 
L 204.123941 125.527341 
L 204.279153 125.527341 
L 204.279153 125.172706 
L 204.458629 125.172706 
L 204.458629 124.818071 
L 204.580717 124.818071 
L 204.674288 122.690259 
L 204.825042 122.690259 
L 204.850051 121.626353 
L 205.041513 121.626353 
L 205.076115 120.562447 
L 205.265301 120.562447 
L 205.323881 119.853176 
L 205.759894 119.853176 
L 205.795579 119.143906 
L 205.899864 119.143906 
L 205.899864 118.789271 
L 206.015323 118.789271 
L 206.066932 117.725365 
L 206.213944 117.725365 
L 206.218592 117.016094 
L 206.463321 117.016094 
L 206.463321 116.661459 
L 206.627755 116.661459 
L 206.725277 115.952188 
L 206.815544 115.952188 
L 206.869497 115.242918 
L 207.074894 115.242918 
L 207.172341 114.533647 
L 207.433388 114.533647 
L 207.433388 114.179012 
L 207.652142 114.179012 
L 207.738079 113.469741 
L 207.774484 113.469741 
L 207.774484 113.115106 
L 208.04635 113.115106 
L 208.12631 112.405835 
L 208.199657 112.405835 
L 208.23518 111.696565 
L 208.355874 111.696565 
L 208.355874 111.341929 
L 208.652223 111.341929 
L 208.652223 110.987294 
L 208.76622 110.987294 
L 208.76622 110.632659 
L 209.006195 110.632659 
L 209.080189 109.568753 
L 209.124048 109.568753 
L 209.209479 108.504847 
L 209.284654 108.504847 
L 209.394894 107.795576 
L 209.408628 107.795576 
L 209.477151 107.086306 
L 209.520096 107.086306 
L 209.630907 105.667765 
L 209.744922 105.667765 
L 209.744922 105.313129 
L 209.885043 105.313129 
L 209.885043 104.958494 
L 210.012734 104.958494 
L 210.07531 104.249224 
L 210.158421 104.249224 
L 210.158421 103.894588 
L 210.308599 103.894588 
L 210.366472 103.185318 
L 210.470568 103.185318 
L 210.553801 101.412141 
L 210.636668 101.412141 
L 210.74111 100.702871 
L 211.112016 100.702871 
L 211.212078 99.638965 
L 211.23701 99.638965 
L 211.23701 99.284329 
L 211.431767 99.284329 
L 211.470477 98.220424 
L 211.579144 98.220424 
L 211.579144 97.865788 
L 211.699346 97.865788 
L 211.804976 96.801882 
L 211.818785 96.801882 
L 211.854986 96.092612 
L 212.026422 96.092612 
L 212.026422 95.737976 
L 212.184468 95.737976 
L 212.184468 95.383341 
L 212.327765 95.383341 
L 212.406535 93.9648 
L 212.754508 93.9648 
L 212.754508 93.610165 
L 212.87724 93.610165 
L 212.981342 92.191624 
L 212.989451 92.191624 
L 213.060658 91.482353 
L 213.282256 91.482353 
L 213.355546 90.773082 
L 213.42063 90.773082 
L 213.42063 90.418447 
L 213.789388 90.418447 
L 213.789388 90.063812 
L 213.942599 90.063812 
L 214.048649 88.645271 
L 214.11291 88.645271 
L 214.15258 87.936 
L 214.424953 87.936 
L 214.528326 87.226729 
L 214.562658 87.226729 
L 214.562658 86.872094 
L 214.700842 86.872094 
L 214.734861 85.808188 
L 215.17015 85.808188 
L 215.186027 84.389647 
L 215.298223 84.389647 
L 215.358361 83.680376 
L 215.416881 83.680376 
L 215.443939 82.616471 
L 215.550368 82.616471 
L 215.550368 82.261835 
L 215.702575 82.261835 
L 215.702575 81.9072 
L 216.331985 81.9072 
L 216.340128 81.197929 
L 216.554642 81.197929 
L 216.622933 79.779388 
L 216.869915 79.779388 
L 216.962032 78.006212 
L 217.154022 78.006212 
L 217.248641 76.587671 
L 217.574201 76.587671 
L 217.632563 75.523765 
L 217.728592 75.523765 
L 217.826641 74.814494 
L 218.53288 74.814494 
L 218.53288 74.459859 
L 218.682026 74.459859 
L 218.715541 73.395953 
L 218.796688 73.395953 
L 218.827622 72.332047 
L 219.090873 72.332047 
L 219.193752 70.913506 
L 219.371292 70.913506 
L 219.448514 69.8496 
L 219.527711 69.8496 
L 219.527711 69.140329 
L 219.742949 69.140329 
L 219.742949 68.785694 
L 219.85922 68.785694 
L 219.868221 67.367153 
L 220.198257 67.367153 
L 220.286471 66.657882 
L 220.602822 66.657882 
L 220.664381 65.948612 
L 220.776182 65.948612 
L 220.87773 63.8208 
L 220.981914 63.8208 
L 221.074978 63.111529 
L 221.117128 63.111529 
L 221.145526 62.402259 
L 221.23151 62.402259 
L 221.248242 61.692988 
L 221.546893 61.692988 
L 221.546893 61.338353 
L 221.837839 61.338353 
L 221.936853 59.919812 
L 221.990184 59.919812 
L 222.073402 58.501271 
L 222.114373 58.501271 
L 222.114373 58.146635 
L 222.247662 58.146635 
L 222.287268 57.437365 
L 222.378045 57.437365 
L 222.378045 57.082729 
L 222.534882 57.082729 
L 222.633217 56.373459 
L 222.889764 56.373459 
L 222.967195 55.664188 
L 223.016737 55.664188 
L 223.016737 55.309553 
L 223.165528 55.309553 
L 223.165528 54.954918 
L 223.361792 54.954918 
L 223.467988 54.245647 
L 224.073095 54.245647 
L 224.182517 53.536376 
L 224.378241 53.536376 
L 224.378241 53.181741 
L 224.620066 53.181741 
L 224.700279 52.472471 
L 224.891577 52.472471 
L 224.97493 51.7632 
L 225.022028 51.7632 
L 225.030579 51.053929 
L 225.342572 51.053929 
L 225.445709 50.344659 
L 225.710589 50.344659 
L 225.710589 49.990024 
L 226.023761 49.990024 
L 226.079631 49.280753 
L 226.355721 49.280753 
L 226.355721 48.926118 
L 226.513606 48.926118 
L 226.513606 48.571482 
L 226.746805 48.571482 
L 226.807573 47.507576 
L 226.9177 47.507576 
L 227.011805 46.089035 
L 227.116921 46.089035 
L 227.116921 45.7344 
L 227.305723 45.7344 
L 227.305723 45.379765 
L 227.683677 45.379765 
L 227.683677 45.025129 
L 227.890415 45.025129 
L 227.890415 44.670494 
L 228.023587 44.670494 
L 228.112332 43.606588 
L 228.423963 43.606588 
L 228.503737 42.897318 
L 228.667209 42.897318 
L 228.738942 42.188047 
L 228.86626 42.188047 
L 228.86626 41.833412 
L 229.125906 41.833412 
L 229.176722 41.124141 
L 229.27658 41.124141 
L 229.27658 40.769506 
L 229.890612 40.769506 
L 229.890612 40.414871 
L 230.103323 40.414871 
L 230.103323 40.060235 
L 230.301385 40.060235 
L 230.338815 38.641694 
L 230.609563 38.641694 
L 230.61274 37.932424 
L 230.817484 37.932424 
L 230.884613 37.223153 
L 231.029968 37.223153 
L 231.029968 36.868518 
L 231.342428 36.868518 
L 231.342428 36.513882 
L 231.495823 36.513882 
L 231.495823 36.159247 
L 232.305653 36.159247 
L 232.374051 35.449976 
L 232.527328 35.449976 
L 232.527328 35.095341 
L 232.710083 35.095341 
L 232.710083 34.740706 
L 233.177098 34.740706 
L 233.177098 34.386071 
L 233.373438 34.386071 
L 233.373438 34.031435 
L 234.393212 34.031435 
L 234.393212 33.6768 
L 234.734655 33.6768 
L 234.736696 32.967529 
L 234.887141 32.967529 
L 234.954854 32.258259 
L 235.175994 32.258259 
L 235.175994 31.903624 
L 235.524696 31.903624 
L 235.524696 31.548988 
L 235.663649 31.548988 
L 235.732501 30.839718 
L 236.261256 30.839718 
L 236.321862 30.130447 
L 236.494153 30.130447 
L 236.494153 29.775812 
L 236.783794 29.775812 
L 236.783794 29.421176 
L 237.002207 29.421176 
L 237.002207 29.066541 
L 237.4183 29.066541 
L 237.4183 28.711906 
L 239.926693 28.711906 
L 239.926693 28.357271 
L 244.484309 28.357271 
L 244.484309 28.002635 
L 245.311117 28.002635 
L 245.311117 27.648 
L 360.8064 27.648 
L 360.8064 27.648 
" style="fill:none;stroke:#ff00ff;stroke-linecap:square;stroke-width:1.5;"/>
   </g>
   <g id="line2d_41">
    <defs>
     <path d="M -0 8.485281 
L 5.091169 0 
L 0 -8.485281 
L -5.091169 -0 
z
" id="m0d324608da" style="stroke:#ff00ff;stroke-linejoin:miter;stroke-width:1.5;"/>
    </defs>
    <g>
     <use style="fill-opacity:0;stroke:#ff00ff;stroke-linejoin:miter;stroke-width:1.5;" x="83.678349" xlink:href="#m0d324608da" y="289.014212"/>
     <use style="fill-opacity:0;stroke:#ff00ff;stroke-linejoin:miter;stroke-width:1.5;" x="167.416772" xlink:href="#m0d324608da" y="235.109647"/>
     <use style="fill-opacity:0;stroke:#ff00ff;stroke-linejoin:miter;stroke-width:1.5;" x="211.699346" xlink:href="#m0d324608da" y="97.865788"/>
     <use style="fill-opacity:0;stroke:#ff00ff;stroke-linejoin:miter;stroke-width:1.5;" x="245.311117" xlink:href="#m0d324608da" y="28.002635"/>
     <use style="fill-opacity:0;stroke:#ff00ff;stroke-linejoin:miter;stroke-width:1.5;" x="245.311117" xlink:href="#m0d324608da" y="27.648"/>
     <use style="fill-opacity:0;stroke:#ff00ff;stroke-linejoin:miter;stroke-width:1.5;" x="360.8064" xlink:href="#m0d324608da" y="27.648"/>
    </g>
   </g>
   <g id="line2d_42">
    <path style="fill:none;stroke:#ff00ff;stroke-linecap:square;stroke-width:1.5;"/>
    <g/>
   </g>
   <g id="line2d_43">
    <path clip-path="url(#p4a43a7df23)" d="M 146.968277 263.480471 
" style="fill:none;stroke:#ff00ff;stroke-linecap:square;stroke-width:1.5;"/>
    <defs>
     <path d="M -12 12 
L 12 -12 
M -12 -12 
L 12 12 
" id="m4984bf6311" style="stroke:#ff00ff;"/>
    </defs>
    <g clip-path="url(#p4a43a7df23)">
     <use style="fill:#ff00ff;stroke:#ff00ff;" x="146.968277" xlink:href="#m4984bf6311" y="263.480471"/>
    </g>
   </g>
   <g id="line2d_44">
    <defs>
     <path d="M 0 1.5 
C 0.397805 1.5 0.77937 1.341951 1.06066 1.06066 
C 1.341951 0.77937 1.5 0.397805 1.5 0 
C 1.5 -0.397805 1.341951 -0.77937 1.06066 -1.06066 
C 0.77937 -1.341951 0.397805 -1.5 0 -1.5 
C -0.397805 -1.5 -0.77937 -1.341951 -1.06066 -1.06066 
C -1.341951 -0.77937 -1.5 -0.397805 -1.5 0 
C -1.5 0.397805 -1.341951 0.77937 -1.06066 1.06066 
C -0.77937 1.341951 -0.397805 1.5 0 1.5 
z
" id="mfd123482d2" style="stroke:#ff7500;"/>
    </defs>
    <g>
     <use style="fill:#ff7500;stroke:#ff7500;" x="264.472493" xlink:href="#mfd123482d2" y="251.068235"/>
     <use style="fill:#ff7500;stroke:#ff7500;" x="264.472493" xlink:href="#mfd123482d2" y="251.068235"/>
    </g>
   </g>
   <g id="line2d_45">
    <path d="M 36.933397 298.944 
L 36.933397 295.752282 
L 49.972572 295.752282 
L 49.972572 295.397647 
L 63.011746 295.397647 
L 63.011746 295.043012 
L 73.538988 295.043012 
L 73.538988 294.688376 
L 76.050921 294.688376 
L 76.050921 294.333741 
L 95.916911 294.333741 
L 95.916911 293.979106 
L 98.933205 293.979106 
L 98.933205 293.624471 
L 109.360651 293.624471 
L 109.360651 293.269835 
L 115.460102 293.269835 
L 115.460102 292.560565 
L 115.747307 292.560565 
L 115.747307 292.205929 
L 116.030193 292.205929 
L 116.030193 291.851294 
L 122.598891 291.851294 
L 122.598891 291.496659 
L 125.862901 291.496659 
L 125.862901 291.142024 
L 126.192937 291.142024 
L 126.192937 290.787388 
L 127.304491 290.787388 
L 127.304491 290.078118 
L 127.458055 290.078118 
L 127.458055 289.723482 
L 129.485876 289.723482 
L 129.485876 289.368847 
L 130.938718 289.368847 
L 130.938718 289.014212 
L 131.191226 289.014212 
L 131.191226 288.304941 
L 132.287354 288.304941 
L 132.287354 287.950306 
L 134.725196 287.950306 
L 134.725196 287.595671 
L 135.136394 287.595671 
L 135.136394 287.241035 
L 135.538796 287.241035 
L 135.538796 286.8864 
L 136.602972 286.8864 
L 136.602972 286.531765 
L 137.340774 286.531765 
L 137.340774 286.177129 
L 137.875736 286.177129 
L 137.875736 285.822494 
L 139.796097 285.822494 
L 139.796097 285.467859 
L 141.610664 285.467859 
L 141.610664 284.758588 
L 141.825656 284.758588 
L 141.825656 284.403953 
L 143.066428 284.403953 
L 143.066428 284.049318 
L 143.657415 284.049318 
L 143.657415 283.694682 
L 143.786262 283.694682 
L 143.850356 282.985412 
L 144.293001 282.985412 
L 144.293001 281.212235 
L 145.326529 281.212235 
L 145.326529 280.8576 
L 146.080251 280.8576 
L 146.080251 280.148329 
L 146.695245 280.148329 
L 146.695245 279.793694 
L 146.968277 279.793694 
L 146.968277 279.084424 
L 147.555352 279.084424 
L 147.555352 278.729788 
L 151.562904 278.729788 
L 151.562904 278.375153 
L 152.993353 278.375153 
L 152.993353 278.020518 
L 153.5746 278.020518 
L 153.5746 277.665882 
L 154.39587 277.665882 
L 154.39587 277.311247 
L 156.599372 277.311247 
L 156.599372 276.956612 
L 158.0375 276.956612 
L 158.0375 276.601976 
L 158.217229 276.601976 
L 158.217229 276.247341 
L 158.804221 276.247341 
L 158.804221 275.892706 
L 159.373449 275.892706 
L 159.373449 275.538071 
L 160.541906 275.538071 
L 160.541906 275.183435 
L 160.777545 275.183435 
L 160.777545 274.8288 
L 168.221954 274.8288 
L 168.221954 274.474165 
L 170.940741 274.474165 
L 170.940741 274.119529 
L 171.434432 274.119529 
L 171.434432 273.764894 
L 171.756506 273.764894 
L 171.756506 273.410259 
L 175.507666 273.410259 
L 175.614382 272.346353 
L 175.685191 272.346353 
L 175.685191 271.991718 
L 179.071702 271.991718 
L 179.071702 271.637082 
L 187.438698 271.637082 
L 187.438698 271.282447 
L 187.626941 271.282447 
L 187.626941 270.927812 
L 187.782383 270.927812 
L 187.782383 270.573176 
L 188.54684 270.573176 
L 188.54684 270.218541 
L 188.876876 270.218541 
L 188.876876 269.863906 
L 189.201221 269.863906 
L 189.201221 269.509271 
L 189.520069 269.509271 
L 189.520069 268.8 
L 190.196537 268.8 
L 190.272631 268.090729 
L 190.531213 268.090729 
L 190.632595 267.381459 
L 190.975352 267.381459 
L 190.975352 267.026824 
L 191.214199 267.026824 
L 191.214199 266.672188 
L 192.169816 266.672188 
L 192.169816 266.317553 
L 192.292017 266.317553 
L 192.292017 265.962918 
L 192.408587 265.962918 
L 192.442452 265.253647 
L 192.553292 265.253647 
L 192.644367 264.544376 
L 193.843786 264.544376 
L 193.843786 264.189741 
L 194.339671 264.189741 
L 194.339671 263.835106 
L 195.405683 263.835106 
L 195.405683 263.480471 
L 200.329089 263.480471 
L 200.329089 263.125835 
L 200.637999 263.125835 
L 200.637999 262.7712 
L 201.174275 262.7712 
L 201.186425 262.061929 
L 201.343668 262.061929 
L 201.343668 261.707294 
L 202.015105 261.707294 
L 202.015105 261.352659 
L 203.626482 261.352659 
L 203.695701 260.643388 
L 204.004072 260.643388 
L 204.004072 260.288753 
L 205.892772 260.288753 
L 205.892772 259.934118 
L 208.539584 259.934118 
L 208.539584 259.579482 
L 209.469333 259.579482 
L 209.469333 259.224847 
L 209.665764 259.224847 
L 209.665764 258.870212 
L 215.719411 258.870212 
L 215.719411 258.515576 
L 216.008868 258.515576 
L 216.008868 258.160941 
L 217.237001 258.160941 
L 217.237001 257.806306 
L 218.72152 257.806306 
L 218.72152 257.451671 
L 220.655753 257.451671 
L 220.655753 257.097035 
L 220.791181 257.097035 
L 220.791181 256.7424 
L 223.707052 256.7424 
L 223.707052 256.387765 
L 224.634914 256.387765 
L 224.634914 256.033129 
L 227.412981 256.033129 
L 227.412981 255.678494 
L 228.568305 255.678494 
L 228.568305 255.323859 
L 229.7787 255.323859 
L 229.7787 254.969224 
L 229.963757 254.969224 
L 229.963757 254.614588 
L 237.02391 254.614588 
L 237.02391 254.259953 
L 238.966188 254.259953 
L 238.966188 253.905318 
L 244.446278 253.905318 
L 244.471843 253.196047 
L 245.805156 253.196047 
L 245.805156 252.841412 
L 246.762127 252.841412 
L 246.762127 252.486776 
L 250.235809 252.486776 
L 250.235809 252.132141 
L 250.602058 252.132141 
L 250.602058 251.777506 
L 258.197697 251.777506 
L 258.197697 251.422871 
L 264.472493 251.422871 
L 264.472493 251.068235 
L 360.8064 251.068235 
L 360.8064 251.068235 
" style="fill:none;stroke:#ff7500;stroke-linecap:square;stroke-width:1.5;"/>
   </g>
   <g id="line2d_46">
    <defs>
     <path d="M 0 -6 
L -1.347084 -1.854102 
L -5.706339 -1.854102 
L -2.179628 0.708204 
L -3.526712 4.854102 
L -0 2.291796 
L 3.526712 4.854102 
L 2.179628 0.708204 
L 5.706339 -1.854102 
L 1.347084 -1.854102 
z
" id="m3b455c3661" style="stroke:#ff7500;stroke-linejoin:bevel;stroke-width:1.5;"/>
    </defs>
    <g>
     <use style="fill-opacity:0;stroke:#ff7500;stroke-linejoin:bevel;stroke-width:1.5;" x="98.933205" xlink:href="#m3b455c3661" y="293.979106"/>
     <use style="fill-opacity:0;stroke:#ff7500;stroke-linejoin:bevel;stroke-width:1.5;" x="158.804221" xlink:href="#m3b455c3661" y="276.247341"/>
     <use style="fill-opacity:0;stroke:#ff7500;stroke-linejoin:bevel;stroke-width:1.5;" x="220.791181" xlink:href="#m3b455c3661" y="257.097035"/>
     <use style="fill-opacity:0;stroke:#ff7500;stroke-linejoin:bevel;stroke-width:1.5;" x="264.472493" xlink:href="#m3b455c3661" y="251.422871"/>
     <use style="fill-opacity:0;stroke:#ff7500;stroke-linejoin:bevel;stroke-width:1.5;" x="264.472493" xlink:href="#m3b455c3661" y="251.068235"/>
     <use style="fill-opacity:0;stroke:#ff7500;stroke-linejoin:bevel;stroke-width:1.5;" x="360.8064" xlink:href="#m3b455c3661" y="251.068235"/>
    </g>
   </g>
   <g id="line2d_47">
    <path style="fill:none;stroke:#ff7500;stroke-linecap:square;stroke-width:1.5;"/>
    <g/>
   </g>
   <g id="line2d_48">
    <path clip-path="url(#p4a43a7df23)" d="M 187.738989 270.927812 
" style="fill:none;stroke:#ff7500;stroke-linecap:square;stroke-width:1.5;"/>
    <defs>
     <path d="M -12 12 
L 12 -12 
M -12 -12 
L 12 12 
" id="m5a182b873d" style="stroke:#ff7500;"/>
    </defs>
    <g clip-path="url(#p4a43a7df23)">
     <use style="fill:#ff7500;stroke:#ff7500;" x="187.738989" xlink:href="#m5a182b873d" y="270.927812"/>
    </g>
   </g>
   <g id="line2d_49">
    <path d="M 360.8064 251.068235 
L 380.514816 293.51808 
" style="fill:none;stroke:#ff7500;stroke-linecap:square;stroke-width:1.5;"/>
    <g>
     <use style="fill-opacity:0;stroke:#ff7500;stroke-linejoin:bevel;stroke-width:1.5;" x="360.8064" xlink:href="#m3b455c3661" y="251.068235"/>
     <use style="fill-opacity:0;stroke:#ff7500;stroke-linejoin:bevel;stroke-width:1.5;" x="380.514816" xlink:href="#m3b455c3661" y="293.51808"/>
    </g>
   </g>
   <g id="line2d_50">
    <path d="M 360.8064 27.648 
L 380.514816 206.70336 
" style="fill:none;stroke:#000080;stroke-linecap:square;stroke-width:1.5;"/>
    <g>
     <use style="fill-opacity:0;stroke:#000080;stroke-width:1.5;" x="360.8064" xlink:href="#m983464371c" y="27.648"/>
     <use style="fill-opacity:0;stroke:#000080;stroke-width:1.5;" x="380.514816" xlink:href="#m983464371c" y="206.70336"/>
    </g>
   </g>
   <g id="line2d_51">
    <path d="M 360.8064 27.648 
L 380.514816 119.88864 
" style="fill:none;stroke:#ff00ff;stroke-linecap:square;stroke-width:1.5;"/>
    <g>
     <use style="fill-opacity:0;stroke:#ff00ff;stroke-linejoin:miter;stroke-width:1.5;" x="360.8064" xlink:href="#m0d324608da" y="27.648"/>
     <use style="fill-opacity:0;stroke:#ff00ff;stroke-linejoin:miter;stroke-width:1.5;" x="380.514816" xlink:href="#m0d324608da" y="119.88864"/>
    </g>
   </g>
   <g id="line2d_52">
    <path d="M 360.8064 298.944 
L 360.8064 27.648 
" style="fill:none;stroke:#000000;stroke-linecap:square;stroke-width:1.5;"/>
   </g>
   <g id="patch_3">
    <path d="M 57.6 298.944 
L 360.8064 298.944 
" style="fill:none;stroke:#000000;stroke-linecap:square;stroke-linejoin:miter;stroke-width:0.8;"/>
   </g>
   <g id="patch_4">
    <path d="M 57.6 27.648 
L 360.8064 27.648 
" style="fill:none;stroke:#000000;stroke-linecap:square;stroke-linejoin:miter;stroke-width:0.8;"/>
   </g>
   <g id="text_13">
    <!-- diffcma b -->
    <g transform="translate(386.578944 297.381205)scale(0.14 -0.14)">
     <defs>
      <path d="M 3116 1747 
Q 3116 2381 2855 2742 
Q 2594 3103 2138 3103 
Q 1681 3103 1420 2742 
Q 1159 2381 1159 1747 
Q 1159 1113 1420 752 
Q 1681 391 2138 391 
Q 2594 391 2855 752 
Q 3116 1113 3116 1747 
z
M 1159 2969 
Q 1341 3281 1617 3432 
Q 1894 3584 2278 3584 
Q 2916 3584 3314 3078 
Q 3713 2572 3713 1747 
Q 3713 922 3314 415 
Q 2916 -91 2278 -91 
Q 1894 -91 1617 61 
Q 1341 213 1159 525 
L 1159 0 
L 581 0 
L 581 4863 
L 1159 4863 
L 1159 2969 
z
" id="DejaVuSans-62" transform="scale(0.015625)"/>
     </defs>
     <use xlink:href="#DejaVuSans-64"/>
     <use x="63.476562" xlink:href="#DejaVuSans-69"/>
     <use x="91.259766" xlink:href="#DejaVuSans-66"/>
     <use x="126.464844" xlink:href="#DejaVuSans-66"/>
     <use x="161.669922" xlink:href="#DejaVuSans-63"/>
     <use x="216.650391" xlink:href="#DejaVuSans-6d"/>
     <use x="314.0625" xlink:href="#DejaVuSans-61"/>
     <use x="375.341797" xlink:href="#DejaVuSans-20"/>
     <use x="407.128906" xlink:href="#DejaVuSans-62"/>
    </g>
   </g>
   <g id="text_14">
    <!-- different -->
    <g transform="translate(386.578944 210.566485)scale(0.14 -0.14)">
     <use xlink:href="#DejaVuSans-64"/>
     <use x="63.476562" xlink:href="#DejaVuSans-69"/>
     <use x="91.259766" xlink:href="#DejaVuSans-66"/>
     <use x="126.464844" xlink:href="#DejaVuSans-66"/>
     <use x="161.669922" xlink:href="#DejaVuSans-65"/>
     <use x="223.193359" xlink:href="#DejaVuSans-72"/>
     <use x="262.056641" xlink:href="#DejaVuSans-65"/>
     <use x="323.580078" xlink:href="#DejaVuSans-6e"/>
     <use x="386.958984" xlink:href="#DejaVuSans-74"/>
    </g>
   </g>
   <g id="text_15">
    <!-- cma.fmin  -->
    <g transform="translate(386.578944 123.751765)scale(0.14 -0.14)">
     <use xlink:href="#DejaVuSans-63"/>
     <use x="54.980469" xlink:href="#DejaVuSans-6d"/>
     <use x="152.392578" xlink:href="#DejaVuSans-61"/>
     <use x="213.671875" xlink:href="#DejaVuSans-2e"/>
     <use x="245.458984" xlink:href="#DejaVuSans-66"/>
     <use x="280.664062" xlink:href="#DejaVuSans-6d"/>
     <use x="378.076172" xlink:href="#DejaVuSans-69"/>
     <use x="405.859375" xlink:href="#DejaVuSans-6e"/>
     <use x="469.238281" xlink:href="#DejaVuSans-20"/>
    </g>
   </g>
   <g id="text_16">
    <!-- best 2009 -->
    <g transform="translate(386.578944 36.937045)scale(0.14 -0.14)">
     <defs>
      <path d="M 703 97 
L 703 672 
Q 941 559 1184 500 
Q 1428 441 1663 441 
Q 2288 441 2617 861 
Q 2947 1281 2994 2138 
Q 2813 1869 2534 1725 
Q 2256 1581 1919 1581 
Q 1219 1581 811 2004 
Q 403 2428 403 3163 
Q 403 3881 828 4315 
Q 1253 4750 1959 4750 
Q 2769 4750 3195 4129 
Q 3622 3509 3622 2328 
Q 3622 1225 3098 567 
Q 2575 -91 1691 -91 
Q 1453 -91 1209 -44 
Q 966 3 703 97 
z
M 1959 2075 
Q 2384 2075 2632 2365 
Q 2881 2656 2881 3163 
Q 2881 3666 2632 3958 
Q 2384 4250 1959 4250 
Q 1534 4250 1286 3958 
Q 1038 3666 1038 3163 
Q 1038 2656 1286 2365 
Q 1534 2075 1959 2075 
z
" id="DejaVuSans-39" transform="scale(0.015625)"/>
     </defs>
     <use xlink:href="#DejaVuSans-62"/>
     <use x="63.476562" xlink:href="#DejaVuSans-65"/>
     <use x="125" xlink:href="#DejaVuSans-73"/>
     <use x="177.099609" xlink:href="#DejaVuSans-74"/>
     <use x="216.308594" xlink:href="#DejaVuSans-20"/>
     <use x="248.095703" xlink:href="#DejaVuSans-32"/>
     <use x="311.71875" xlink:href="#DejaVuSans-30"/>
     <use x="375.341797" xlink:href="#DejaVuSans-30"/>
     <use x="438.964844" xlink:href="#DejaVuSans-39"/>
    </g>
   </g>
   <g id="text_17">
    <!-- bbob f15, 3-D -->
    <g transform="translate(60.632064 38.111366)scale(0.102 -0.102)">
     <defs>
      <path d="M 691 4666 
L 3169 4666 
L 3169 4134 
L 1269 4134 
L 1269 2991 
Q 1406 3038 1543 3061 
Q 1681 3084 1819 3084 
Q 2600 3084 3056 2656 
Q 3513 2228 3513 1497 
Q 3513 744 3044 326 
Q 2575 -91 1722 -91 
Q 1428 -91 1123 -41 
Q 819 9 494 109 
L 494 744 
Q 775 591 1075 516 
Q 1375 441 1709 441 
Q 2250 441 2565 725 
Q 2881 1009 2881 1497 
Q 2881 1984 2565 2268 
Q 2250 2553 1709 2553 
Q 1456 2553 1204 2497 
Q 953 2441 691 2322 
L 691 4666 
z
" id="DejaVuSans-35" transform="scale(0.015625)"/>
      <path d="M 2597 2516 
Q 3050 2419 3304 2112 
Q 3559 1806 3559 1356 
Q 3559 666 3084 287 
Q 2609 -91 1734 -91 
Q 1441 -91 1130 -33 
Q 819 25 488 141 
L 488 750 
Q 750 597 1062 519 
Q 1375 441 1716 441 
Q 2309 441 2620 675 
Q 2931 909 2931 1356 
Q 2931 1769 2642 2001 
Q 2353 2234 1838 2234 
L 1294 2234 
L 1294 2753 
L 1863 2753 
Q 2328 2753 2575 2939 
Q 2822 3125 2822 3475 
Q 2822 3834 2567 4026 
Q 2313 4219 1838 4219 
Q 1578 4219 1281 4162 
Q 984 4106 628 3988 
L 628 4550 
Q 988 4650 1302 4700 
Q 1616 4750 1894 4750 
Q 2613 4750 3031 4423 
Q 3450 4097 3450 3541 
Q 3450 3153 3228 2886 
Q 3006 2619 2597 2516 
z
" id="DejaVuSans-33" transform="scale(0.015625)"/>
      <path d="M 1259 4147 
L 1259 519 
L 2022 519 
Q 2988 519 3436 956 
Q 3884 1394 3884 2338 
Q 3884 3275 3436 3711 
Q 2988 4147 2022 4147 
L 1259 4147 
z
M 628 4666 
L 1925 4666 
Q 3281 4666 3915 4102 
Q 4550 3538 4550 2338 
Q 4550 1131 3912 565 
Q 3275 0 1925 0 
L 628 0 
L 628 4666 
z
" id="DejaVuSans-44" transform="scale(0.015625)"/>
     </defs>
     <use xlink:href="#DejaVuSans-62"/>
     <use x="63.476562" xlink:href="#DejaVuSans-62"/>
     <use x="126.953125" xlink:href="#DejaVuSans-6f"/>
     <use x="188.134766" xlink:href="#DejaVuSans-62"/>
     <use x="251.611328" xlink:href="#DejaVuSans-20"/>
     <use x="283.398438" xlink:href="#DejaVuSans-66"/>
     <use x="318.603516" xlink:href="#DejaVuSans-31"/>
     <use x="382.226562" xlink:href="#DejaVuSans-35"/>
     <use x="445.849609" xlink:href="#DejaVuSans-2c"/>
     <use x="477.636719" xlink:href="#DejaVuSans-20"/>
     <use x="509.423828" xlink:href="#DejaVuSans-33"/>
     <use x="573.046875" xlink:href="#DejaVuSans-2d"/>
     <use x="609.130859" xlink:href="#DejaVuSans-44"/>
    </g>
    <!-- 51 targets: 100..1e-08 -->
    <g transform="translate(60.632064 49.533135)scale(0.102 -0.102)">
     <defs>
      <path d="M 750 794 
L 1409 794 
L 1409 0 
L 750 0 
L 750 794 
z
M 750 3309 
L 1409 3309 
L 1409 2516 
L 750 2516 
L 750 3309 
z
" id="DejaVuSans-3a" transform="scale(0.015625)"/>
     </defs>
     <use xlink:href="#DejaVuSans-35"/>
     <use x="63.623047" xlink:href="#DejaVuSans-31"/>
     <use x="127.246094" xlink:href="#DejaVuSans-20"/>
     <use x="159.033203" xlink:href="#DejaVuSans-74"/>
     <use x="198.242188" xlink:href="#DejaVuSans-61"/>
     <use x="259.521484" xlink:href="#DejaVuSans-72"/>
     <use x="298.884766" xlink:href="#DejaVuSans-67"/>
     <use x="362.361328" xlink:href="#DejaVuSans-65"/>
     <use x="423.884766" xlink:href="#DejaVuSans-74"/>
     <use x="463.09375" xlink:href="#DejaVuSans-73"/>
     <use x="515.193359" xlink:href="#DejaVuSans-3a"/>
     <use x="548.884766" xlink:href="#DejaVuSans-20"/>
     <use x="580.671875" xlink:href="#DejaVuSans-31"/>
     <use x="644.294922" xlink:href="#DejaVuSans-30"/>
     <use x="707.917969" xlink:href="#DejaVuSans-30"/>
     <use x="771.541016" xlink:href="#DejaVuSans-2e"/>
     <use x="803.328125" xlink:href="#DejaVuSans-2e"/>
     <use x="835.115234" xlink:href="#DejaVuSans-31"/>
     <use x="898.738281" xlink:href="#DejaVuSans-65"/>
     <use x="960.261719" xlink:href="#DejaVuSans-2d"/>
     <use x="996.345703" xlink:href="#DejaVuSans-30"/>
     <use x="1059.96875" xlink:href="#DejaVuSans-38"/>
    </g>
    <!-- 15 instances -->
    <g transform="translate(60.632064 60.954904)scale(0.102 -0.102)">
     <use xlink:href="#DejaVuSans-31"/>
     <use x="63.623047" xlink:href="#DejaVuSans-35"/>
     <use x="127.246094" xlink:href="#DejaVuSans-20"/>
     <use x="159.033203" xlink:href="#DejaVuSans-69"/>
     <use x="186.816406" xlink:href="#DejaVuSans-6e"/>
     <use x="250.195312" xlink:href="#DejaVuSans-73"/>
     <use x="302.294922" xlink:href="#DejaVuSans-74"/>
     <use x="341.503906" xlink:href="#DejaVuSans-61"/>
     <use x="402.783203" xlink:href="#DejaVuSans-6e"/>
     <use x="466.162109" xlink:href="#DejaVuSans-63"/>
     <use x="521.142578" xlink:href="#DejaVuSans-65"/>
     <use x="582.666016" xlink:href="#DejaVuSans-73"/>
    </g>
   </g>
   <g id="text_18">
    <!-- v2.6 -->
    <g style="fill:#808080;" transform="translate(198.292262 294.151352)scale(0.1 -0.1)">
     <use xlink:href="#DejaVuSans-76"/>
     <use x="59.179688" xlink:href="#DejaVuSans-32"/>
     <use x="122.802734" xlink:href="#DejaVuSans-2e"/>
     <use x="154.589844" xlink:href="#DejaVuSans-36"/>
    </g>
   </g>
   <g id="text_19">
    <!-- 15 Rastrigin -->
    <g transform="translate(148.9657 21.648)scale(0.2 -0.2)">
     <defs>
      <path d="M 2841 2188 
Q 3044 2119 3236 1894 
Q 3428 1669 3622 1275 
L 4263 0 
L 3584 0 
L 2988 1197 
Q 2756 1666 2539 1819 
Q 2322 1972 1947 1972 
L 1259 1972 
L 1259 0 
L 628 0 
L 628 4666 
L 2053 4666 
Q 2853 4666 3247 4331 
Q 3641 3997 3641 3322 
Q 3641 2881 3436 2590 
Q 3231 2300 2841 2188 
z
M 1259 4147 
L 1259 2491 
L 2053 2491 
Q 2509 2491 2742 2702 
Q 2975 2913 2975 3322 
Q 2975 3731 2742 3939 
Q 2509 4147 2053 4147 
L 1259 4147 
z
" id="DejaVuSans-52" transform="scale(0.015625)"/>
     </defs>
     <use xlink:href="#DejaVuSans-31"/>
     <use x="63.623047" xlink:href="#DejaVuSans-35"/>
     <use x="127.246094" xlink:href="#DejaVuSans-20"/>
     <use x="159.033203" xlink:href="#DejaVuSans-52"/>
     <use x="226.265625" xlink:href="#DejaVuSans-61"/>
     <use x="287.544922" xlink:href="#DejaVuSans-73"/>
     <use x="339.644531" xlink:href="#DejaVuSans-74"/>
     <use x="378.853516" xlink:href="#DejaVuSans-72"/>
     <use x="419.966797" xlink:href="#DejaVuSans-69"/>
     <use x="447.75" xlink:href="#DejaVuSans-67"/>
     <use x="511.226562" xlink:href="#DejaVuSans-69"/>
     <use x="539.009766" xlink:href="#DejaVuSans-6e"/>
    </g>
   </g>
  </g>
 </g>
 <defs>
  <clipPath id="p4a43a7df23">
   <rect height="271.296" width="303.2064" x="57.6" y="27.648"/>
  </clipPath>
 </defs>
</svg>
