<?xml version="1.0" encoding="utf-8" standalone="no"?>
<!DOCTYPE svg PUBLIC "-//W3C//DTD SVG 1.1//EN"
  "http://www.w3.org/Graphics/SVG/1.1/DTD/svg11.dtd">
<svg height="345.6pt" version="1.1" viewBox="0 0 460.8 345.6" width="460.8pt" xmlns="http://www.w3.org/2000/svg" xmlns:xlink="http://www.w3.org/1999/xlink">
 <metadata>
  <rdf:RDF xmlns:cc="http://creativecommons.org/ns#" xmlns:dc="http://purl.org/dc/elements/1.1/" xmlns:rdf="http://www.w3.org/1999/02/22-rdf-syntax-ns#">
   <cc:Work>
    <dc:type rdf:resource="http://purl.org/dc/dcmitype/StillImage"/>
    <dc:date>2022-05-07T21:25:26.913301</dc:date>
    <dc:format>image/svg+xml</dc:format>
    <dc:creator>
     <cc:Agent>
      <dc:title>Matplotlib v3.4.3, https://matplotlib.org/</dc:title>
     </cc:Agent>
    </dc:creator>
   </cc:Work>
  </rdf:RDF>
 </metadata>
 <defs>
  <style type="text/css">*{stroke-linecap:butt;stroke-linejoin:round;}</style>
 </defs>
 <g id="figure_1">
  <g id="patch_1">
   <path d="M 0 345.6 
L 460.8 345.6 
L 460.8 0 
L 0 0 
z
" style="fill:#ffffff;"/>
  </g>
  <g id="axes_1">
   <g id="patch_2">
    <path d="M 57.6 298.944 
L 360.8064 298.944 
L 360.8064 27.648 
L 57.6 27.648 
z
" style="fill:#ffffff;"/>
   </g>
   <g id="line2d_1">
    <path d="M 27.323974 298.944 
L 27.323974 288.304941 
L 40.363149 288.304941 
L 40.363149 277.665882 
L 47.990577 277.665882 
L 47.990577 272.346353 
L 70.639174 272.346353 
L 70.639174 267.026824 
L 78.266603 267.026824 
L 78.266603 261.707294 
L 85.471281 261.707294 
L 85.471281 256.387765 
L 90.668036 256.387765 
L 90.668036 251.068235 
L 94.205591 251.068235 
L 94.205591 245.748706 
L 97.18203 245.748706 
L 97.18203 240.429176 
L 99.346662 240.429176 
L 99.346662 235.109647 
L 100.535156 235.109647 
L 100.535156 229.790118 
L 102.011329 229.790118 
L 102.011329 224.470588 
L 102.708132 224.470588 
L 102.708132 219.151059 
L 103.707211 219.151059 
L 103.707211 213.831529 
L 105.26277 213.831529 
L 105.26277 208.512 
L 106.974091 208.512 
L 106.974091 203.192471 
L 107.774703 203.192471 
L 107.774703 197.872941 
L 110.221204 197.872941 
L 110.221204 192.553412 
L 111.97238 192.553412 
L 111.97238 187.233882 
L 113.765312 187.233882 
L 113.765312 181.914353 
L 115.575511 181.914353 
L 115.575511 176.594824 
L 117.226706 176.594824 
L 117.226706 171.275294 
L 118.450653 171.275294 
L 118.450653 165.955765 
L 120.149089 165.955765 
L 120.149089 160.636235 
L 123.145323 160.636235 
L 123.145323 155.316706 
L 124.906754 155.316706 
L 124.906754 149.997176 
L 126.804487 149.997176 
L 126.804487 144.677647 
L 127.366067 144.677647 
L 127.366067 139.358118 
L 128.000734 139.358118 
L 128.000734 134.038588 
L 128.700779 134.038588 
L 128.700779 128.719059 
L 129.375706 128.719059 
L 129.375706 123.399529 
L 130.344755 123.399529 
L 130.344755 118.08 
L 130.734242 118.08 
L 130.734242 112.760471 
L 131.266322 112.760471 
L 131.266322 107.440941 
L 131.929028 107.440941 
L 131.929028 102.121412 
L 138.36167 102.121412 
L 138.36167 96.801882 
L 138.868751 96.801882 
L 138.868751 91.482353 
L 139.508159 91.482353 
L 139.508159 86.162824 
L 140.126547 86.162824 
L 140.126547 80.843294 
L 140.679868 80.843294 
L 140.679868 75.523765 
L 141.217377 75.523765 
L 141.217377 70.204235 
L 142.122575 70.204235 
L 142.122575 64.884706 
L 142.824734 64.884706 
L 142.824734 59.565176 
L 143.305055 59.565176 
L 143.305055 54.245647 
L 143.850356 54.245647 
L 143.850356 48.926118 
L 144.529002 48.926118 
L 144.529002 43.606588 
L 144.968202 43.606588 
L 144.968202 38.287059 
L 145.538293 38.287059 
L 145.538293 32.967529 
L 145.851536 32.967529 
L 145.851536 27.648 
L 360.8064 27.648 
" style="fill:none;stroke:#f5deb3;stroke-linecap:square;stroke-width:4;"/>
   </g>
   <g id="line2d_2">
    <defs>
     <path d="M -0 7.778175 
L 7.778175 0 
L 0 -7.778175 
L -7.778175 -0 
z
" id="mba7b319f19" style="stroke:#f5deb3;stroke-linejoin:miter;stroke-width:1.5;"/>
    </defs>
    <g>
     <use style="fill:#f5deb3;stroke:#f5deb3;stroke-linejoin:miter;stroke-width:1.5;" x="97.18203" xlink:href="#mba7b319f19" y="240.429176"/>
     <use style="fill:#f5deb3;stroke:#f5deb3;stroke-linejoin:miter;stroke-width:1.5;" x="123.145323" xlink:href="#mba7b319f19" y="155.316706"/>
     <use style="fill:#f5deb3;stroke:#f5deb3;stroke-linejoin:miter;stroke-width:1.5;" x="145.851536" xlink:href="#mba7b319f19" y="32.967529"/>
     <use style="fill:#f5deb3;stroke:#f5deb3;stroke-linejoin:miter;stroke-width:1.5;" x="145.851536" xlink:href="#mba7b319f19" y="27.648"/>
     <use style="fill:#f5deb3;stroke:#f5deb3;stroke-linejoin:miter;stroke-width:1.5;" x="145.851536" xlink:href="#mba7b319f19" y="27.648"/>
     <use style="fill:#f5deb3;stroke:#f5deb3;stroke-linejoin:miter;stroke-width:1.5;" x="360.8064" xlink:href="#mba7b319f19" y="27.648"/>
    </g>
   </g>
   <g id="line2d_3">
    <path style="fill:none;stroke:#f5deb3;stroke-linecap:square;stroke-width:4;"/>
    <g/>
   </g>
   <g id="line2d_4">
    <path d="M 360.8064 27.648 
L 380.514816 33.07392 
" style="fill:none;stroke:#f5deb3;stroke-linecap:square;stroke-width:4;"/>
    <g>
     <use style="fill:#f5deb3;stroke:#f5deb3;stroke-linejoin:miter;stroke-width:1.5;" x="360.8064" xlink:href="#mba7b319f19" y="27.648"/>
     <use style="fill:#f5deb3;stroke:#f5deb3;stroke-linejoin:miter;stroke-width:1.5;" x="380.514816" xlink:href="#mba7b319f19" y="33.07392"/>
    </g>
   </g>
   <g id="matplotlib.axis_1">
    <g id="xtick_1">
     <g id="line2d_5">
      <path clip-path="url(#pc2bca8d988)" d="M 57.6 298.944 
L 57.6 27.648 
" style="fill:none;stroke:#b0b0b0;stroke-linecap:square;stroke-width:0.8;"/>
     </g>
     <g id="line2d_6">
      <defs>
       <path d="M 0 0 
L 0 3.5 
" id="m092e6c4bba" style="stroke:#000000;stroke-width:0.8;"/>
      </defs>
      <g>
       <use style="stroke:#000000;stroke-width:0.8;" x="57.6" xlink:href="#m092e6c4bba" y="298.944"/>
      </g>
     </g>
     <g id="text_1">
      <!-- 0 -->
      <g transform="translate(52.191875 318.861344)scale(0.17 -0.17)">
       <defs>
        <path d="M 2034 4250 
Q 1547 4250 1301 3770 
Q 1056 3291 1056 2328 
Q 1056 1369 1301 889 
Q 1547 409 2034 409 
Q 2525 409 2770 889 
Q 3016 1369 3016 2328 
Q 3016 3291 2770 3770 
Q 2525 4250 2034 4250 
z
M 2034 4750 
Q 2819 4750 3233 4129 
Q 3647 3509 3647 2328 
Q 3647 1150 3233 529 
Q 2819 -91 2034 -91 
Q 1250 -91 836 529 
Q 422 1150 422 2328 
Q 422 3509 836 4129 
Q 1250 4750 2034 4750 
z
" id="DejaVuSans-30" transform="scale(0.015625)"/>
       </defs>
       <use xlink:href="#DejaVuSans-30"/>
      </g>
     </g>
    </g>
    <g id="xtick_2">
     <g id="line2d_7">
      <path clip-path="url(#pc2bca8d988)" d="M 144.2304 298.944 
L 144.2304 27.648 
" style="fill:none;stroke:#b0b0b0;stroke-linecap:square;stroke-width:0.8;"/>
     </g>
     <g id="line2d_8">
      <g>
       <use style="stroke:#000000;stroke-width:0.8;" x="144.2304" xlink:href="#m092e6c4bba" y="298.944"/>
      </g>
     </g>
     <g id="text_2">
      <!-- 2 -->
      <g transform="translate(138.822275 318.861344)scale(0.17 -0.17)">
       <defs>
        <path d="M 1228 531 
L 3431 531 
L 3431 0 
L 469 0 
L 469 531 
Q 828 903 1448 1529 
Q 2069 2156 2228 2338 
Q 2531 2678 2651 2914 
Q 2772 3150 2772 3378 
Q 2772 3750 2511 3984 
Q 2250 4219 1831 4219 
Q 1534 4219 1204 4116 
Q 875 4013 500 3803 
L 500 4441 
Q 881 4594 1212 4672 
Q 1544 4750 1819 4750 
Q 2544 4750 2975 4387 
Q 3406 4025 3406 3419 
Q 3406 3131 3298 2873 
Q 3191 2616 2906 2266 
Q 2828 2175 2409 1742 
Q 1991 1309 1228 531 
z
" id="DejaVuSans-32" transform="scale(0.015625)"/>
       </defs>
       <use xlink:href="#DejaVuSans-32"/>
      </g>
     </g>
    </g>
    <g id="xtick_3">
     <g id="line2d_9">
      <path clip-path="url(#pc2bca8d988)" d="M 230.8608 298.944 
L 230.8608 27.648 
" style="fill:none;stroke:#b0b0b0;stroke-linecap:square;stroke-width:0.8;"/>
     </g>
     <g id="line2d_10">
      <g>
       <use style="stroke:#000000;stroke-width:0.8;" x="230.8608" xlink:href="#m092e6c4bba" y="298.944"/>
      </g>
     </g>
     <g id="text_3">
      <!-- 4 -->
      <g transform="translate(225.452675 318.861344)scale(0.17 -0.17)">
       <defs>
        <path d="M 2419 4116 
L 825 1625 
L 2419 1625 
L 2419 4116 
z
M 2253 4666 
L 3047 4666 
L 3047 1625 
L 3713 1625 
L 3713 1100 
L 3047 1100 
L 3047 0 
L 2419 0 
L 2419 1100 
L 313 1100 
L 313 1709 
L 2253 4666 
z
" id="DejaVuSans-34" transform="scale(0.015625)"/>
       </defs>
       <use xlink:href="#DejaVuSans-34"/>
      </g>
     </g>
    </g>
    <g id="xtick_4">
     <g id="line2d_11">
      <path clip-path="url(#pc2bca8d988)" d="M 317.4912 298.944 
L 317.4912 27.648 
" style="fill:none;stroke:#b0b0b0;stroke-linecap:square;stroke-width:0.8;"/>
     </g>
     <g id="line2d_12">
      <g>
       <use style="stroke:#000000;stroke-width:0.8;" x="317.4912" xlink:href="#m092e6c4bba" y="298.944"/>
      </g>
     </g>
     <g id="text_4">
      <!-- 6 -->
      <g transform="translate(312.083075 318.861344)scale(0.17 -0.17)">
       <defs>
        <path d="M 2113 2584 
Q 1688 2584 1439 2293 
Q 1191 2003 1191 1497 
Q 1191 994 1439 701 
Q 1688 409 2113 409 
Q 2538 409 2786 701 
Q 3034 994 3034 1497 
Q 3034 2003 2786 2293 
Q 2538 2584 2113 2584 
z
M 3366 4563 
L 3366 3988 
Q 3128 4100 2886 4159 
Q 2644 4219 2406 4219 
Q 1781 4219 1451 3797 
Q 1122 3375 1075 2522 
Q 1259 2794 1537 2939 
Q 1816 3084 2150 3084 
Q 2853 3084 3261 2657 
Q 3669 2231 3669 1497 
Q 3669 778 3244 343 
Q 2819 -91 2113 -91 
Q 1303 -91 875 529 
Q 447 1150 447 2328 
Q 447 3434 972 4092 
Q 1497 4750 2381 4750 
Q 2619 4750 2861 4703 
Q 3103 4656 3366 4563 
z
" id="DejaVuSans-36" transform="scale(0.015625)"/>
       </defs>
       <use xlink:href="#DejaVuSans-36"/>
      </g>
     </g>
    </g>
    <g id="xtick_5">
     <g id="line2d_13">
      <path clip-path="url(#pc2bca8d988)" d="M 100.9152 298.944 
L 100.9152 27.648 
" style="fill:none;stroke:#b0b0b0;stroke-linecap:square;stroke-width:0.8;"/>
     </g>
     <g id="line2d_14">
      <defs>
       <path d="M 0 0 
L 0 2 
" id="mccf6f2d2f2" style="stroke:#000000;stroke-width:0.6;"/>
      </defs>
      <g>
       <use style="stroke:#000000;stroke-width:0.6;" x="100.9152" xlink:href="#mccf6f2d2f2" y="298.944"/>
      </g>
     </g>
    </g>
    <g id="xtick_6">
     <g id="line2d_15">
      <path clip-path="url(#pc2bca8d988)" d="M 187.5456 298.944 
L 187.5456 27.648 
" style="fill:none;stroke:#b0b0b0;stroke-linecap:square;stroke-width:0.8;"/>
     </g>
     <g id="line2d_16">
      <g>
       <use style="stroke:#000000;stroke-width:0.6;" x="187.5456" xlink:href="#mccf6f2d2f2" y="298.944"/>
      </g>
     </g>
    </g>
    <g id="xtick_7">
     <g id="line2d_17">
      <path clip-path="url(#pc2bca8d988)" d="M 274.176 298.944 
L 274.176 27.648 
" style="fill:none;stroke:#b0b0b0;stroke-linecap:square;stroke-width:0.8;"/>
     </g>
     <g id="line2d_18">
      <g>
       <use style="stroke:#000000;stroke-width:0.6;" x="274.176" xlink:href="#mccf6f2d2f2" y="298.944"/>
      </g>
     </g>
    </g>
    <g id="xtick_8">
     <g id="line2d_19">
      <path clip-path="url(#pc2bca8d988)" d="M 360.8064 298.944 
L 360.8064 27.648 
" style="fill:none;stroke:#b0b0b0;stroke-linecap:square;stroke-width:0.8;"/>
     </g>
     <g id="line2d_20">
      <g>
       <use style="stroke:#000000;stroke-width:0.6;" x="360.8064" xlink:href="#mccf6f2d2f2" y="298.944"/>
      </g>
     </g>
    </g>
    <g id="text_5">
     <!-- log10(# f-evals / dimension) -->
     <g transform="translate(88.823278 339.314156)scale(0.17 -0.17)">
      <defs>
       <path d="M 603 4863 
L 1178 4863 
L 1178 0 
L 603 0 
L 603 4863 
z
" id="DejaVuSans-6c" transform="scale(0.015625)"/>
       <path d="M 1959 3097 
Q 1497 3097 1228 2736 
Q 959 2375 959 1747 
Q 959 1119 1226 758 
Q 1494 397 1959 397 
Q 2419 397 2687 759 
Q 2956 1122 2956 1747 
Q 2956 2369 2687 2733 
Q 2419 3097 1959 3097 
z
M 1959 3584 
Q 2709 3584 3137 3096 
Q 3566 2609 3566 1747 
Q 3566 888 3137 398 
Q 2709 -91 1959 -91 
Q 1206 -91 779 398 
Q 353 888 353 1747 
Q 353 2609 779 3096 
Q 1206 3584 1959 3584 
z
" id="DejaVuSans-6f" transform="scale(0.015625)"/>
       <path d="M 2906 1791 
Q 2906 2416 2648 2759 
Q 2391 3103 1925 3103 
Q 1463 3103 1205 2759 
Q 947 2416 947 1791 
Q 947 1169 1205 825 
Q 1463 481 1925 481 
Q 2391 481 2648 825 
Q 2906 1169 2906 1791 
z
M 3481 434 
Q 3481 -459 3084 -895 
Q 2688 -1331 1869 -1331 
Q 1566 -1331 1297 -1286 
Q 1028 -1241 775 -1147 
L 775 -588 
Q 1028 -725 1275 -790 
Q 1522 -856 1778 -856 
Q 2344 -856 2625 -561 
Q 2906 -266 2906 331 
L 2906 616 
Q 2728 306 2450 153 
Q 2172 0 1784 0 
Q 1141 0 747 490 
Q 353 981 353 1791 
Q 353 2603 747 3093 
Q 1141 3584 1784 3584 
Q 2172 3584 2450 3431 
Q 2728 3278 2906 2969 
L 2906 3500 
L 3481 3500 
L 3481 434 
z
" id="DejaVuSans-67" transform="scale(0.015625)"/>
       <path d="M 794 531 
L 1825 531 
L 1825 4091 
L 703 3866 
L 703 4441 
L 1819 4666 
L 2450 4666 
L 2450 531 
L 3481 531 
L 3481 0 
L 794 0 
L 794 531 
z
" id="DejaVuSans-31" transform="scale(0.015625)"/>
       <path d="M 1984 4856 
Q 1566 4138 1362 3434 
Q 1159 2731 1159 2009 
Q 1159 1288 1364 580 
Q 1569 -128 1984 -844 
L 1484 -844 
Q 1016 -109 783 600 
Q 550 1309 550 2009 
Q 550 2706 781 3412 
Q 1013 4119 1484 4856 
L 1984 4856 
z
" id="DejaVuSans-28" transform="scale(0.015625)"/>
       <path d="M 3272 2816 
L 2363 2816 
L 2100 1772 
L 3016 1772 
L 3272 2816 
z
M 2803 4594 
L 2478 3297 
L 3391 3297 
L 3719 4594 
L 4219 4594 
L 3897 3297 
L 4872 3297 
L 4872 2816 
L 3775 2816 
L 3519 1772 
L 4513 1772 
L 4513 1294 
L 3397 1294 
L 3072 0 
L 2572 0 
L 2894 1294 
L 1978 1294 
L 1656 0 
L 1153 0 
L 1478 1294 
L 494 1294 
L 494 1772 
L 1594 1772 
L 1856 2816 
L 850 2816 
L 850 3297 
L 1978 3297 
L 2297 4594 
L 2803 4594 
z
" id="DejaVuSans-23" transform="scale(0.015625)"/>
       <path id="DejaVuSans-20" transform="scale(0.015625)"/>
       <path d="M 2375 4863 
L 2375 4384 
L 1825 4384 
Q 1516 4384 1395 4259 
Q 1275 4134 1275 3809 
L 1275 3500 
L 2222 3500 
L 2222 3053 
L 1275 3053 
L 1275 0 
L 697 0 
L 697 3053 
L 147 3053 
L 147 3500 
L 697 3500 
L 697 3744 
Q 697 4328 969 4595 
Q 1241 4863 1831 4863 
L 2375 4863 
z
" id="DejaVuSans-66" transform="scale(0.015625)"/>
       <path d="M 313 2009 
L 1997 2009 
L 1997 1497 
L 313 1497 
L 313 2009 
z
" id="DejaVuSans-2d" transform="scale(0.015625)"/>
       <path d="M 3597 1894 
L 3597 1613 
L 953 1613 
Q 991 1019 1311 708 
Q 1631 397 2203 397 
Q 2534 397 2845 478 
Q 3156 559 3463 722 
L 3463 178 
Q 3153 47 2828 -22 
Q 2503 -91 2169 -91 
Q 1331 -91 842 396 
Q 353 884 353 1716 
Q 353 2575 817 3079 
Q 1281 3584 2069 3584 
Q 2775 3584 3186 3129 
Q 3597 2675 3597 1894 
z
M 3022 2063 
Q 3016 2534 2758 2815 
Q 2500 3097 2075 3097 
Q 1594 3097 1305 2825 
Q 1016 2553 972 2059 
L 3022 2063 
z
" id="DejaVuSans-65" transform="scale(0.015625)"/>
       <path d="M 191 3500 
L 800 3500 
L 1894 563 
L 2988 3500 
L 3597 3500 
L 2284 0 
L 1503 0 
L 191 3500 
z
" id="DejaVuSans-76" transform="scale(0.015625)"/>
       <path d="M 2194 1759 
Q 1497 1759 1228 1600 
Q 959 1441 959 1056 
Q 959 750 1161 570 
Q 1363 391 1709 391 
Q 2188 391 2477 730 
Q 2766 1069 2766 1631 
L 2766 1759 
L 2194 1759 
z
M 3341 1997 
L 3341 0 
L 2766 0 
L 2766 531 
Q 2569 213 2275 61 
Q 1981 -91 1556 -91 
Q 1019 -91 701 211 
Q 384 513 384 1019 
Q 384 1609 779 1909 
Q 1175 2209 1959 2209 
L 2766 2209 
L 2766 2266 
Q 2766 2663 2505 2880 
Q 2244 3097 1772 3097 
Q 1472 3097 1187 3025 
Q 903 2953 641 2809 
L 641 3341 
Q 956 3463 1253 3523 
Q 1550 3584 1831 3584 
Q 2591 3584 2966 3190 
Q 3341 2797 3341 1997 
z
" id="DejaVuSans-61" transform="scale(0.015625)"/>
       <path d="M 2834 3397 
L 2834 2853 
Q 2591 2978 2328 3040 
Q 2066 3103 1784 3103 
Q 1356 3103 1142 2972 
Q 928 2841 928 2578 
Q 928 2378 1081 2264 
Q 1234 2150 1697 2047 
L 1894 2003 
Q 2506 1872 2764 1633 
Q 3022 1394 3022 966 
Q 3022 478 2636 193 
Q 2250 -91 1575 -91 
Q 1294 -91 989 -36 
Q 684 19 347 128 
L 347 722 
Q 666 556 975 473 
Q 1284 391 1588 391 
Q 1994 391 2212 530 
Q 2431 669 2431 922 
Q 2431 1156 2273 1281 
Q 2116 1406 1581 1522 
L 1381 1569 
Q 847 1681 609 1914 
Q 372 2147 372 2553 
Q 372 3047 722 3315 
Q 1072 3584 1716 3584 
Q 2034 3584 2315 3537 
Q 2597 3491 2834 3397 
z
" id="DejaVuSans-73" transform="scale(0.015625)"/>
       <path d="M 1625 4666 
L 2156 4666 
L 531 -594 
L 0 -594 
L 1625 4666 
z
" id="DejaVuSans-2f" transform="scale(0.015625)"/>
       <path d="M 2906 2969 
L 2906 4863 
L 3481 4863 
L 3481 0 
L 2906 0 
L 2906 525 
Q 2725 213 2448 61 
Q 2172 -91 1784 -91 
Q 1150 -91 751 415 
Q 353 922 353 1747 
Q 353 2572 751 3078 
Q 1150 3584 1784 3584 
Q 2172 3584 2448 3432 
Q 2725 3281 2906 2969 
z
M 947 1747 
Q 947 1113 1208 752 
Q 1469 391 1925 391 
Q 2381 391 2643 752 
Q 2906 1113 2906 1747 
Q 2906 2381 2643 2742 
Q 2381 3103 1925 3103 
Q 1469 3103 1208 2742 
Q 947 2381 947 1747 
z
" id="DejaVuSans-64" transform="scale(0.015625)"/>
       <path d="M 603 3500 
L 1178 3500 
L 1178 0 
L 603 0 
L 603 3500 
z
M 603 4863 
L 1178 4863 
L 1178 4134 
L 603 4134 
L 603 4863 
z
" id="DejaVuSans-69" transform="scale(0.015625)"/>
       <path d="M 3328 2828 
Q 3544 3216 3844 3400 
Q 4144 3584 4550 3584 
Q 5097 3584 5394 3201 
Q 5691 2819 5691 2113 
L 5691 0 
L 5113 0 
L 5113 2094 
Q 5113 2597 4934 2840 
Q 4756 3084 4391 3084 
Q 3944 3084 3684 2787 
Q 3425 2491 3425 1978 
L 3425 0 
L 2847 0 
L 2847 2094 
Q 2847 2600 2669 2842 
Q 2491 3084 2119 3084 
Q 1678 3084 1418 2786 
Q 1159 2488 1159 1978 
L 1159 0 
L 581 0 
L 581 3500 
L 1159 3500 
L 1159 2956 
Q 1356 3278 1631 3431 
Q 1906 3584 2284 3584 
Q 2666 3584 2933 3390 
Q 3200 3197 3328 2828 
z
" id="DejaVuSans-6d" transform="scale(0.015625)"/>
       <path d="M 3513 2113 
L 3513 0 
L 2938 0 
L 2938 2094 
Q 2938 2591 2744 2837 
Q 2550 3084 2163 3084 
Q 1697 3084 1428 2787 
Q 1159 2491 1159 1978 
L 1159 0 
L 581 0 
L 581 3500 
L 1159 3500 
L 1159 2956 
Q 1366 3272 1645 3428 
Q 1925 3584 2291 3584 
Q 2894 3584 3203 3211 
Q 3513 2838 3513 2113 
z
" id="DejaVuSans-6e" transform="scale(0.015625)"/>
       <path d="M 513 4856 
L 1013 4856 
Q 1481 4119 1714 3412 
Q 1947 2706 1947 2009 
Q 1947 1309 1714 600 
Q 1481 -109 1013 -844 
L 513 -844 
Q 928 -128 1133 580 
Q 1338 1288 1338 2009 
Q 1338 2731 1133 3434 
Q 928 4138 513 4856 
z
" id="DejaVuSans-29" transform="scale(0.015625)"/>
      </defs>
      <use xlink:href="#DejaVuSans-6c"/>
      <use x="27.783203" xlink:href="#DejaVuSans-6f"/>
      <use x="88.964844" xlink:href="#DejaVuSans-67"/>
      <use x="152.441406" xlink:href="#DejaVuSans-31"/>
      <use x="216.064453" xlink:href="#DejaVuSans-30"/>
      <use x="279.6875" xlink:href="#DejaVuSans-28"/>
      <use x="318.701172" xlink:href="#DejaVuSans-23"/>
      <use x="402.490234" xlink:href="#DejaVuSans-20"/>
      <use x="434.277344" xlink:href="#DejaVuSans-66"/>
      <use x="463.982422" xlink:href="#DejaVuSans-2d"/>
      <use x="500.066406" xlink:href="#DejaVuSans-65"/>
      <use x="561.589844" xlink:href="#DejaVuSans-76"/>
      <use x="620.769531" xlink:href="#DejaVuSans-61"/>
      <use x="682.048828" xlink:href="#DejaVuSans-6c"/>
      <use x="709.832031" xlink:href="#DejaVuSans-73"/>
      <use x="761.931641" xlink:href="#DejaVuSans-20"/>
      <use x="793.71875" xlink:href="#DejaVuSans-2f"/>
      <use x="827.410156" xlink:href="#DejaVuSans-20"/>
      <use x="859.197266" xlink:href="#DejaVuSans-64"/>
      <use x="922.673828" xlink:href="#DejaVuSans-69"/>
      <use x="950.457031" xlink:href="#DejaVuSans-6d"/>
      <use x="1047.869141" xlink:href="#DejaVuSans-65"/>
      <use x="1109.392578" xlink:href="#DejaVuSans-6e"/>
      <use x="1172.771484" xlink:href="#DejaVuSans-73"/>
      <use x="1224.871094" xlink:href="#DejaVuSans-69"/>
      <use x="1252.654297" xlink:href="#DejaVuSans-6f"/>
      <use x="1313.835938" xlink:href="#DejaVuSans-6e"/>
      <use x="1377.214844" xlink:href="#DejaVuSans-29"/>
     </g>
    </g>
   </g>
   <g id="matplotlib.axis_2">
    <g id="ytick_1">
     <g id="line2d_21">
      <path clip-path="url(#pc2bca8d988)" d="M 57.6 298.944 
L 360.8064 298.944 
" style="fill:none;stroke:#b0b0b0;stroke-linecap:square;stroke-width:0.8;"/>
     </g>
     <g id="line2d_22">
      <defs>
       <path d="M 0 0 
L -3.5 0 
" id="m4d649a12f0" style="stroke:#000000;stroke-width:0.8;"/>
      </defs>
      <g>
       <use style="stroke:#000000;stroke-width:0.8;" x="57.6" xlink:href="#m4d649a12f0" y="298.944"/>
      </g>
     </g>
     <g id="text_6">
      <!-- 0.0 -->
      <g transform="translate(25.155 305.02275)scale(0.16 -0.16)">
       <defs>
        <path d="M 684 794 
L 1344 794 
L 1344 0 
L 684 0 
L 684 794 
z
" id="DejaVuSans-2e" transform="scale(0.015625)"/>
       </defs>
       <use xlink:href="#DejaVuSans-30"/>
       <use x="63.623047" xlink:href="#DejaVuSans-2e"/>
       <use x="95.410156" xlink:href="#DejaVuSans-30"/>
      </g>
     </g>
    </g>
    <g id="ytick_2">
     <g id="line2d_23">
      <path clip-path="url(#pc2bca8d988)" d="M 57.6 244.6848 
L 360.8064 244.6848 
" style="fill:none;stroke:#b0b0b0;stroke-linecap:square;stroke-width:0.8;"/>
     </g>
     <g id="line2d_24">
      <g>
       <use style="stroke:#000000;stroke-width:0.8;" x="57.6" xlink:href="#m4d649a12f0" y="244.6848"/>
      </g>
     </g>
     <g id="text_7">
      <!-- 0.2 -->
      <g transform="translate(25.155 250.76355)scale(0.16 -0.16)">
       <use xlink:href="#DejaVuSans-30"/>
       <use x="63.623047" xlink:href="#DejaVuSans-2e"/>
       <use x="95.410156" xlink:href="#DejaVuSans-32"/>
      </g>
     </g>
    </g>
    <g id="ytick_3">
     <g id="line2d_25">
      <path clip-path="url(#pc2bca8d988)" d="M 57.6 190.4256 
L 360.8064 190.4256 
" style="fill:none;stroke:#b0b0b0;stroke-linecap:square;stroke-width:0.8;"/>
     </g>
     <g id="line2d_26">
      <g>
       <use style="stroke:#000000;stroke-width:0.8;" x="57.6" xlink:href="#m4d649a12f0" y="190.4256"/>
      </g>
     </g>
     <g id="text_8">
      <!-- 0.4 -->
      <g transform="translate(25.155 196.50435)scale(0.16 -0.16)">
       <use xlink:href="#DejaVuSans-30"/>
       <use x="63.623047" xlink:href="#DejaVuSans-2e"/>
       <use x="95.410156" xlink:href="#DejaVuSans-34"/>
      </g>
     </g>
    </g>
    <g id="ytick_4">
     <g id="line2d_27">
      <path clip-path="url(#pc2bca8d988)" d="M 57.6 136.1664 
L 360.8064 136.1664 
" style="fill:none;stroke:#b0b0b0;stroke-linecap:square;stroke-width:0.8;"/>
     </g>
     <g id="line2d_28">
      <g>
       <use style="stroke:#000000;stroke-width:0.8;" x="57.6" xlink:href="#m4d649a12f0" y="136.1664"/>
      </g>
     </g>
     <g id="text_9">
      <!-- 0.6 -->
      <g transform="translate(25.155 142.24515)scale(0.16 -0.16)">
       <use xlink:href="#DejaVuSans-30"/>
       <use x="63.623047" xlink:href="#DejaVuSans-2e"/>
       <use x="95.410156" xlink:href="#DejaVuSans-36"/>
      </g>
     </g>
    </g>
    <g id="ytick_5">
     <g id="line2d_29">
      <path clip-path="url(#pc2bca8d988)" d="M 57.6 81.9072 
L 360.8064 81.9072 
" style="fill:none;stroke:#b0b0b0;stroke-linecap:square;stroke-width:0.8;"/>
     </g>
     <g id="line2d_30">
      <g>
       <use style="stroke:#000000;stroke-width:0.8;" x="57.6" xlink:href="#m4d649a12f0" y="81.9072"/>
      </g>
     </g>
     <g id="text_10">
      <!-- 0.8 -->
      <g transform="translate(25.155 87.98595)scale(0.16 -0.16)">
       <defs>
        <path d="M 2034 2216 
Q 1584 2216 1326 1975 
Q 1069 1734 1069 1313 
Q 1069 891 1326 650 
Q 1584 409 2034 409 
Q 2484 409 2743 651 
Q 3003 894 3003 1313 
Q 3003 1734 2745 1975 
Q 2488 2216 2034 2216 
z
M 1403 2484 
Q 997 2584 770 2862 
Q 544 3141 544 3541 
Q 544 4100 942 4425 
Q 1341 4750 2034 4750 
Q 2731 4750 3128 4425 
Q 3525 4100 3525 3541 
Q 3525 3141 3298 2862 
Q 3072 2584 2669 2484 
Q 3125 2378 3379 2068 
Q 3634 1759 3634 1313 
Q 3634 634 3220 271 
Q 2806 -91 2034 -91 
Q 1263 -91 848 271 
Q 434 634 434 1313 
Q 434 1759 690 2068 
Q 947 2378 1403 2484 
z
M 1172 3481 
Q 1172 3119 1398 2916 
Q 1625 2713 2034 2713 
Q 2441 2713 2670 2916 
Q 2900 3119 2900 3481 
Q 2900 3844 2670 4047 
Q 2441 4250 2034 4250 
Q 1625 4250 1398 4047 
Q 1172 3844 1172 3481 
z
" id="DejaVuSans-38" transform="scale(0.015625)"/>
       </defs>
       <use xlink:href="#DejaVuSans-30"/>
       <use x="63.623047" xlink:href="#DejaVuSans-2e"/>
       <use x="95.410156" xlink:href="#DejaVuSans-38"/>
      </g>
     </g>
    </g>
    <g id="ytick_6">
     <g id="line2d_31">
      <path clip-path="url(#pc2bca8d988)" d="M 57.6 27.648 
L 360.8064 27.648 
" style="fill:none;stroke:#b0b0b0;stroke-linecap:square;stroke-width:0.8;"/>
     </g>
     <g id="line2d_32">
      <g>
       <use style="stroke:#000000;stroke-width:0.8;" x="57.6" xlink:href="#m4d649a12f0" y="27.648"/>
      </g>
     </g>
     <g id="text_11">
      <!-- 1.0 -->
      <g transform="translate(25.155 33.72675)scale(0.16 -0.16)">
       <use xlink:href="#DejaVuSans-31"/>
       <use x="63.623047" xlink:href="#DejaVuSans-2e"/>
       <use x="95.410156" xlink:href="#DejaVuSans-30"/>
      </g>
     </g>
    </g>
    <g id="text_12">
     <!-- Fraction of function,target pairs -->
     <g transform="translate(17.619531 297.681)rotate(-90)scale(0.17 -0.17)">
      <defs>
       <path d="M 628 4666 
L 3309 4666 
L 3309 4134 
L 1259 4134 
L 1259 2759 
L 3109 2759 
L 3109 2228 
L 1259 2228 
L 1259 0 
L 628 0 
L 628 4666 
z
" id="DejaVuSans-46" transform="scale(0.015625)"/>
       <path d="M 2631 2963 
Q 2534 3019 2420 3045 
Q 2306 3072 2169 3072 
Q 1681 3072 1420 2755 
Q 1159 2438 1159 1844 
L 1159 0 
L 581 0 
L 581 3500 
L 1159 3500 
L 1159 2956 
Q 1341 3275 1631 3429 
Q 1922 3584 2338 3584 
Q 2397 3584 2469 3576 
Q 2541 3569 2628 3553 
L 2631 2963 
z
" id="DejaVuSans-72" transform="scale(0.015625)"/>
       <path d="M 3122 3366 
L 3122 2828 
Q 2878 2963 2633 3030 
Q 2388 3097 2138 3097 
Q 1578 3097 1268 2742 
Q 959 2388 959 1747 
Q 959 1106 1268 751 
Q 1578 397 2138 397 
Q 2388 397 2633 464 
Q 2878 531 3122 666 
L 3122 134 
Q 2881 22 2623 -34 
Q 2366 -91 2075 -91 
Q 1284 -91 818 406 
Q 353 903 353 1747 
Q 353 2603 823 3093 
Q 1294 3584 2113 3584 
Q 2378 3584 2631 3529 
Q 2884 3475 3122 3366 
z
" id="DejaVuSans-63" transform="scale(0.015625)"/>
       <path d="M 1172 4494 
L 1172 3500 
L 2356 3500 
L 2356 3053 
L 1172 3053 
L 1172 1153 
Q 1172 725 1289 603 
Q 1406 481 1766 481 
L 2356 481 
L 2356 0 
L 1766 0 
Q 1100 0 847 248 
Q 594 497 594 1153 
L 594 3053 
L 172 3053 
L 172 3500 
L 594 3500 
L 594 4494 
L 1172 4494 
z
" id="DejaVuSans-74" transform="scale(0.015625)"/>
       <path d="M 544 1381 
L 544 3500 
L 1119 3500 
L 1119 1403 
Q 1119 906 1312 657 
Q 1506 409 1894 409 
Q 2359 409 2629 706 
Q 2900 1003 2900 1516 
L 2900 3500 
L 3475 3500 
L 3475 0 
L 2900 0 
L 2900 538 
Q 2691 219 2414 64 
Q 2138 -91 1772 -91 
Q 1169 -91 856 284 
Q 544 659 544 1381 
z
M 1991 3584 
L 1991 3584 
z
" id="DejaVuSans-75" transform="scale(0.015625)"/>
       <path d="M 750 794 
L 1409 794 
L 1409 256 
L 897 -744 
L 494 -744 
L 750 256 
L 750 794 
z
" id="DejaVuSans-2c" transform="scale(0.015625)"/>
       <path d="M 1159 525 
L 1159 -1331 
L 581 -1331 
L 581 3500 
L 1159 3500 
L 1159 2969 
Q 1341 3281 1617 3432 
Q 1894 3584 2278 3584 
Q 2916 3584 3314 3078 
Q 3713 2572 3713 1747 
Q 3713 922 3314 415 
Q 2916 -91 2278 -91 
Q 1894 -91 1617 61 
Q 1341 213 1159 525 
z
M 3116 1747 
Q 3116 2381 2855 2742 
Q 2594 3103 2138 3103 
Q 1681 3103 1420 2742 
Q 1159 2381 1159 1747 
Q 1159 1113 1420 752 
Q 1681 391 2138 391 
Q 2594 391 2855 752 
Q 3116 1113 3116 1747 
z
" id="DejaVuSans-70" transform="scale(0.015625)"/>
      </defs>
      <use xlink:href="#DejaVuSans-46"/>
      <use x="50.269531" xlink:href="#DejaVuSans-72"/>
      <use x="91.382812" xlink:href="#DejaVuSans-61"/>
      <use x="152.662109" xlink:href="#DejaVuSans-63"/>
      <use x="207.642578" xlink:href="#DejaVuSans-74"/>
      <use x="246.851562" xlink:href="#DejaVuSans-69"/>
      <use x="274.634766" xlink:href="#DejaVuSans-6f"/>
      <use x="335.816406" xlink:href="#DejaVuSans-6e"/>
      <use x="399.195312" xlink:href="#DejaVuSans-20"/>
      <use x="430.982422" xlink:href="#DejaVuSans-6f"/>
      <use x="492.164062" xlink:href="#DejaVuSans-66"/>
      <use x="527.369141" xlink:href="#DejaVuSans-20"/>
      <use x="559.15625" xlink:href="#DejaVuSans-66"/>
      <use x="594.361328" xlink:href="#DejaVuSans-75"/>
      <use x="657.740234" xlink:href="#DejaVuSans-6e"/>
      <use x="721.119141" xlink:href="#DejaVuSans-63"/>
      <use x="776.099609" xlink:href="#DejaVuSans-74"/>
      <use x="815.308594" xlink:href="#DejaVuSans-69"/>
      <use x="843.091797" xlink:href="#DejaVuSans-6f"/>
      <use x="904.273438" xlink:href="#DejaVuSans-6e"/>
      <use x="967.652344" xlink:href="#DejaVuSans-2c"/>
      <use x="999.439453" xlink:href="#DejaVuSans-74"/>
      <use x="1038.648438" xlink:href="#DejaVuSans-61"/>
      <use x="1099.927734" xlink:href="#DejaVuSans-72"/>
      <use x="1139.291016" xlink:href="#DejaVuSans-67"/>
      <use x="1202.767578" xlink:href="#DejaVuSans-65"/>
      <use x="1264.291016" xlink:href="#DejaVuSans-74"/>
      <use x="1303.5" xlink:href="#DejaVuSans-20"/>
      <use x="1335.287109" xlink:href="#DejaVuSans-70"/>
      <use x="1398.763672" xlink:href="#DejaVuSans-61"/>
      <use x="1460.042969" xlink:href="#DejaVuSans-69"/>
      <use x="1487.826172" xlink:href="#DejaVuSans-72"/>
      <use x="1528.939453" xlink:href="#DejaVuSans-73"/>
     </g>
    </g>
   </g>
   <g id="line2d_33">
    <defs>
     <path d="M 0 1.5 
C 0.397805 1.5 0.77937 1.341951 1.06066 1.06066 
C 1.341951 0.77937 1.5 0.397805 1.5 0 
C 1.5 -0.397805 1.341951 -0.77937 1.06066 -1.06066 
C 0.77937 -1.341951 0.397805 -1.5 0 -1.5 
C -0.397805 -1.5 -0.77937 -1.341951 -1.06066 -1.06066 
C -1.341951 -0.77937 -1.5 -0.397805 -1.5 0 
C -1.5 0.397805 -1.341951 0.77937 -1.06066 1.06066 
C -0.77937 1.341951 -0.397805 1.5 0 1.5 
z
" id="m56f968d826" style="stroke:#f5deb3;"/>
    </defs>
    <g>
     <use style="fill:#f5deb3;stroke:#f5deb3;" x="145.851536" xlink:href="#m56f968d826" y="27.648"/>
     <use style="fill:#f5deb3;stroke:#f5deb3;" x="145.851536" xlink:href="#m56f968d826" y="27.648"/>
    </g>
   </g>
   <g id="line2d_34">
    <defs>
     <path d="M 0 1.5 
C 0.397805 1.5 0.77937 1.341951 1.06066 1.06066 
C 1.341951 0.77937 1.5 0.397805 1.5 0 
C 1.5 -0.397805 1.341951 -0.77937 1.06066 -1.06066 
C 0.77937 -1.341951 0.397805 -1.5 0 -1.5 
C -0.397805 -1.5 -0.77937 -1.341951 -1.06066 -1.06066 
C -1.341951 -0.77937 -1.5 -0.397805 -1.5 0 
C -1.5 0.397805 -1.341951 0.77937 -1.06066 1.06066 
C -0.77937 1.341951 -0.397805 1.5 0 1.5 
z
" id="m0639dfb394" style="stroke:#000080;"/>
    </defs>
    <g>
     <use style="fill:#000080;stroke:#000080;" x="306.315264" xlink:href="#m0639dfb394" y="96.801882"/>
     <use style="fill:#000080;stroke:#000080;" x="306.315264" xlink:href="#m0639dfb394" y="96.801882"/>
    </g>
   </g>
   <g id="line2d_35">
    <path d="M 27.323974 298.944 
L 27.323974 289.368847 
L 40.363149 289.368847 
L 40.363149 280.502965 
L 47.990577 280.502965 
L 47.990577 276.247341 
L 53.402323 276.247341 
L 53.402323 273.055624 
L 57.6 273.055624 
L 57.6 271.991718 
L 61.029752 271.991718 
L 61.029752 270.927812 
L 63.929565 270.927812 
L 63.929565 270.573176 
L 68.65718 270.573176 
L 68.65718 269.863906 
L 70.639174 269.863906 
L 70.639174 269.509271 
L 72.432107 269.509271 
L 72.432107 269.154635 
L 74.068926 269.154635 
L 74.068926 268.8 
L 75.574654 268.8 
L 75.574654 268.445365 
L 76.96874 268.445365 
L 76.96874 267.736094 
L 79.480672 267.736094 
L 79.480672 266.317553 
L 84.596168 266.317553 
L 84.596168 265.253647 
L 86.307488 265.253647 
L 86.307488 263.125835 
L 91.922605 263.125835 
L 91.922605 262.7712 
L 98.077987 262.7712 
L 98.077987 262.416565 
L 104.028784 262.416565 
L 104.028784 262.061929 
L 104.655893 262.061929 
L 104.655893 260.998024 
L 106.42077 260.998024 
L 106.42077 260.643388 
L 108.034177 260.643388 
L 108.034177 259.934118 
L 109.520071 259.934118 
L 109.520071 259.579482 
L 110.897141 259.579482 
L 110.897141 259.224847 
L 112.589207 259.224847 
L 112.589207 258.160941 
L 116.907859 258.160941 
L 116.907859 257.806306 
L 117.226706 257.806306 
L 117.226706 257.451671 
L 122.439807 257.451671 
L 122.439807 257.097035 
L 123.145323 257.097035 
L 123.145323 256.7424 
L 123.825333 256.7424 
L 123.825333 256.033129 
L 125.115773 256.033129 
L 125.115773 255.678494 
L 125.526971 255.678494 
L 125.526971 255.323859 
L 125.929373 255.323859 
L 125.929373 254.969224 
L 127.087372 254.969224 
L 127.087372 254.614588 
L 127.821575 254.614588 
L 127.821575 254.259953 
L 128.871795 254.259953 
L 128.871795 253.905318 
L 129.041269 253.905318 
L 129.041269 252.841412 
L 130.186674 252.841412 
L 130.186674 252.486776 
L 130.501519 252.486776 
L 130.501519 252.132141 
L 131.41562 252.132141 
L 131.41562 251.777506 
L 133.656071 251.777506 
L 133.656071 251.422871 
L 136.584151 251.422871 
L 136.584151 251.068235 
L 136.92008 251.068235 
L 136.92008 250.7136 
L 137.787626 250.7136 
L 137.787626 250.358965 
L 138.616919 250.358965 
L 138.616919 250.004329 
L 139.018248 250.004329 
L 139.018248 249.649694 
L 140.173284 249.649694 
L 140.26641 248.940424 
L 141.349389 248.940424 
L 141.349389 248.585788 
L 141.782854 248.585788 
L 141.782854 247.876518 
L 142.702713 247.876518 
L 142.702713 247.521882 
L 143.10641 247.521882 
L 143.18612 246.812612 
L 143.344534 246.812612 
L 143.344534 245.748706 
L 143.888708 245.748706 
L 143.888708 245.039435 
L 145.361989 245.039435 
L 145.361989 244.330165 
L 147.439393 244.330165 
L 147.439393 243.975529 
L 147.565858 243.975529 
L 147.565858 243.620894 
L 147.753975 243.620894 
L 147.753975 242.911624 
L 148.844805 242.911624 
L 148.844805 242.556988 
L 149.078856 242.556988 
L 149.078856 242.202353 
L 149.31003 242.202353 
L 149.31003 241.493082 
L 149.42456 241.493082 
L 149.42456 241.138447 
L 149.820013 241.138447 
L 149.875833 240.429176 
L 150.042308 240.429176 
L 150.042308 239.719906 
L 150.370903 239.719906 
L 150.370903 239.365271 
L 150.958812 239.365271 
L 150.958812 239.010635 
L 151.528902 239.010635 
L 151.528902 238.301365 
L 152.715833 238.301365 
L 152.715833 237.946729 
L 152.906572 237.946729 
L 152.906572 237.237459 
L 154.012098 237.237459 
L 154.012098 235.109647 
L 154.454223 235.109647 
L 154.497869 234.045741 
L 154.843441 234.045741 
L 154.843441 233.691106 
L 155.098517 233.691106 
L 155.098517 233.336471 
L 155.474761 233.336471 
L 155.474761 232.981835 
L 155.843627 232.981835 
L 155.843627 231.563294 
L 156.125604 231.563294 
L 156.165543 230.854024 
L 156.442771 230.854024 
L 156.442771 230.144753 
L 156.793307 230.144753 
L 156.793307 229.790118 
L 157.213055 229.790118 
L 157.213055 229.080847 
L 157.363398 229.080847 
L 157.363398 228.726212 
L 157.953034 228.726212 
L 157.953034 226.953035 
L 158.418868 226.953035 
L 158.418868 226.243765 
L 158.559911 226.243765 
L 158.559911 225.889129 
L 158.699905 225.889129 
L 158.699905 225.534494 
L 158.907961 225.534494 
L 158.907961 225.179859 
L 159.113741 225.179859 
L 159.113741 224.825224 
L 159.283522 224.825224 
L 159.317295 223.761318 
L 159.816746 223.761318 
L 159.816746 223.406682 
L 160.012872 223.406682 
L 160.012872 223.052047 
L 160.23913 223.052047 
L 160.335271 221.988141 
L 160.714996 221.988141 
L 160.714996 221.633506 
L 160.963953 221.633506 
L 161.056469 220.924235 
L 161.087207 220.924235 
L 161.148532 220.214965 
L 161.331318 220.214965 
L 161.422049 219.151059 
L 161.721364 219.151059 
L 161.751035 217.377882 
L 162.132562 217.377882 
L 162.219518 216.313976 
L 162.478002 216.313976 
L 162.506504 215.250071 
L 162.620084 215.250071 
L 162.620084 214.5408 
L 162.789177 214.5408 
L 162.789177 214.186165 
L 163.773012 214.186165 
L 163.773012 213.831529 
L 164.011136 213.831529 
L 164.063646 212.058353 
L 164.758543 212.058353 
L 164.758543 211.349082 
L 164.909539 211.349082 
L 164.909539 210.639812 
L 165.232599 210.639812 
L 165.232599 209.930541 
L 165.35539 209.930541 
L 165.404283 209.221271 
L 165.525963 209.221271 
L 165.525963 208.866635 
L 165.814821 208.866635 
L 165.838694 208.157365 
L 166.169767 208.157365 
L 166.169767 207.802729 
L 166.356368 207.802729 
L 166.356368 207.448094 
L 166.701332 207.448094 
L 166.792265 206.384188 
L 166.882759 206.384188 
L 166.905315 205.674918 
L 167.218289 205.674918 
L 167.218289 204.965647 
L 167.350843 204.965647 
L 167.350843 204.611012 
L 167.504319 204.611012 
L 167.613182 201.773929 
L 168.021211 201.773929 
L 168.021211 201.419294 
L 168.211442 201.419294 
L 168.211442 201.064659 
L 168.378936 201.064659 
L 168.420577 200.355388 
L 168.586228 200.355388 
L 168.647973 198.582212 
L 168.832 198.582212 
L 168.832 198.227576 
L 169.134768 198.227576 
L 169.134768 197.872941 
L 169.842126 197.872941 
L 169.899889 197.163671 
L 170.223906 197.163671 
L 170.28051 196.099765 
L 170.336945 196.099765 
L 170.374474 195.390494 
L 171.037505 195.390494 
L 171.055593 194.681224 
L 171.342661 194.681224 
L 171.413749 192.908047 
L 171.71291 192.908047 
L 171.71291 191.844141 
L 172.041731 191.844141 
L 172.127316 190.780235 
L 172.449034 190.780235 
L 172.449034 190.4256 
L 172.79833 190.4256 
L 172.83126 189.361694 
L 172.995054 189.361694 
L 173.060174 188.297788 
L 173.254192 188.297788 
L 173.254192 187.943153 
L 173.948949 187.943153 
L 173.948949 187.588518 
L 174.118701 187.588518 
L 174.118701 186.524612 
L 174.302156 186.524612 
L 174.302156 186.169976 
L 174.513949 186.169976 
L 174.513949 185.815341 
L 174.693607 185.815341 
L 174.79762 185.106071 
L 174.930512 185.106071 
L 174.930512 184.751435 
L 175.193513 184.751435 
L 175.193513 184.3968 
L 175.581246 184.3968 
L 175.581246 184.042165 
L 175.919314 184.042165 
L 175.919314 183.687529 
L 176.658458 183.687529 
L 176.738821 182.623624 
L 176.778874 182.623624 
L 176.885267 181.559718 
L 176.97787 181.559718 
L 176.97787 180.850447 
L 177.816658 180.850447 
L 177.816658 179.431906 
L 178.067399 179.431906 
L 178.067399 179.077271 
L 178.191527 179.077271 
L 178.191527 178.722635 
L 178.412915 178.722635 
L 178.498311 177.304094 
L 178.667949 177.304094 
L 178.667949 176.949459 
L 178.871903 176.949459 
L 178.871903 176.594824 
L 179.631951 176.594824 
L 179.631951 176.240188 
L 179.780344 176.240188 
L 179.780344 175.530918 
L 180.051262 175.530918 
L 180.051262 175.176282 
L 180.240829 175.176282 
L 180.240829 174.467012 
L 180.384513 174.467012 
L 180.384513 174.112376 
L 180.711964 174.112376 
L 180.711964 173.757741 
L 181.392038 173.757741 
L 181.392038 173.403106 
L 181.537582 173.403106 
L 181.537582 172.3392 
L 181.682009 172.3392 
L 181.682009 171.984565 
L 181.987812 171.984565 
L 181.987812 170.920659 
L 182.33841 170.920659 
L 182.397862 169.856753 
L 183.15411 169.856753 
L 183.15411 169.502118 
L 183.34322 169.502118 
L 183.446426 168.083576 
L 183.549068 168.083576 
L 183.549068 167.019671 
L 183.725052 167.019671 
L 183.725052 166.665035 
L 184.099287 166.665035 
L 184.099287 166.3104 
L 184.332807 166.3104 
L 184.332807 165.955765 
L 184.572278 165.955765 
L 184.572278 165.601129 
L 184.860885 165.601129 
L 184.860885 164.537224 
L 185.196353 164.537224 
L 185.196353 164.182588 
L 186.265197 164.182588 
L 186.265197 163.827953 
L 186.38563 163.827953 
L 186.38563 163.473318 
L 186.600485 163.473318 
L 186.68732 162.054776 
L 188.054101 162.054776 
L 188.054101 161.700141 
L 189.273435 161.700141 
L 189.273435 161.345506 
L 189.573064 161.345506 
L 189.573064 160.990871 
L 190.079623 160.990871 
L 190.125601 159.926965 
L 190.751421 159.926965 
L 190.751421 159.572329 
L 191.540528 159.572329 
L 191.540528 159.217694 
L 191.794375 159.217694 
L 191.794375 158.508424 
L 191.973619 158.508424 
L 191.973619 157.799153 
L 192.754027 157.799153 
L 192.754027 157.089882 
L 192.93005 157.089882 
L 192.93005 156.380612 
L 194.428603 156.380612 
L 194.428603 156.025976 
L 194.759682 156.025976 
L 194.759682 155.671341 
L 195.816537 155.671341 
L 195.816537 155.316706 
L 196.109947 155.316706 
L 196.109947 153.898165 
L 196.262057 153.898165 
L 196.262057 153.543529 
L 196.515985 153.543529 
L 196.613816 152.479624 
L 197.347418 152.479624 
L 197.347418 152.124988 
L 197.543027 152.124988 
L 197.543027 151.415718 
L 197.732244 151.415718 
L 197.732244 151.061082 
L 198.592326 151.061082 
L 198.609049 150.351812 
L 199.594108 150.351812 
L 199.594108 149.642541 
L 200.017607 149.642541 
L 200.079544 148.224 
L 200.168223 148.224 
L 200.168223 147.514729 
L 200.885228 147.514729 
L 200.885228 147.160094 
L 201.058455 147.160094 
L 201.058455 146.450824 
L 201.504385 146.450824 
L 201.504385 146.096188 
L 201.640041 146.096188 
L 201.679128 145.386918 
L 202.772008 145.386918 
L 202.778706 144.323012 
L 203.120442 144.323012 
L 203.120442 143.968376 
L 203.527001 143.968376 
L 203.527001 143.613741 
L 203.975294 143.613741 
L 204.075564 142.1952 
L 205.073646 142.1952 
L 205.073646 141.840565 
L 205.268235 141.840565 
L 205.329729 141.131294 
L 205.711732 141.131294 
L 205.711732 140.422024 
L 206.571279 140.422024 
L 206.571279 140.067388 
L 206.761887 140.067388 
L 206.770013 139.003482 
L 206.998802 139.003482 
L 206.998802 138.648847 
L 207.195741 138.648847 
L 207.195741 138.294212 
L 208.034538 138.294212 
L 208.034538 137.939576 
L 208.652223 137.939576 
L 208.652223 137.584941 
L 209.085777 137.584941 
L 209.128827 136.521035 
L 209.962904 136.521035 
L 209.962904 136.1664 
L 210.381006 136.1664 
L 210.381006 135.811765 
L 210.781267 135.811765 
L 210.781267 135.457129 
L 211.039857 135.457129 
L 211.039857 135.102494 
L 211.968309 135.102494 
L 211.968309 134.747859 
L 212.380761 134.747859 
L 212.47098 134.038588 
L 212.98783 134.038588 
L 213.034472 133.329318 
L 213.108088 133.329318 
L 213.216051 131.910776 
L 213.313838 131.910776 
L 213.313838 131.556141 
L 213.534381 131.556141 
L 213.534381 131.201506 
L 214.120545 131.201506 
L 214.120545 130.492235 
L 214.603476 130.492235 
L 214.603476 129.782965 
L 215.699486 129.782965 
L 215.726421 127.300518 
L 215.872209 127.300518 
L 215.872209 126.945882 
L 216.048322 126.945882 
L 216.150573 125.881976 
L 216.652049 125.881976 
L 216.652049 125.527341 
L 216.963345 125.527341 
L 216.963345 125.172706 
L 217.831405 125.172706 
L 217.831405 124.818071 
L 218.284664 124.818071 
L 218.284664 124.463435 
L 218.430927 124.463435 
L 218.430927 124.1088 
L 218.544228 124.1088 
L 218.554363 122.335624 
L 219.016168 122.335624 
L 219.016168 121.980988 
L 219.421349 121.980988 
L 219.421349 121.626353 
L 220.423919 121.626353 
L 220.423919 120.917082 
L 220.583124 120.917082 
L 220.583124 120.562447 
L 220.752587 120.562447 
L 220.752587 120.207812 
L 221.083205 120.207812 
L 221.083205 119.853176 
L 221.928184 119.853176 
L 221.999427 118.434635 
L 222.362289 118.434635 
L 222.362289 118.08 
L 222.578563 118.08 
L 222.650882 117.370729 
L 223.435261 117.370729 
L 223.435261 117.016094 
L 223.94203 117.016094 
L 224.051494 114.888282 
L 224.524236 114.888282 
L 224.524236 114.533647 
L 224.856406 114.533647 
L 224.954513 113.824376 
L 225.178743 113.824376 
L 225.26911 113.115106 
L 225.367108 113.115106 
L 225.367108 112.760471 
L 226.007049 112.760471 
L 226.059569 112.0512 
L 226.156444 112.0512 
L 226.156444 111.341929 
L 234.126491 111.341929 
L 234.126491 110.632659 
L 235.01418 110.632659 
L 235.01418 109.923388 
L 236.845662 109.923388 
L 236.845662 109.568753 
L 237.488703 109.568753 
L 237.488703 109.214118 
L 237.775872 109.214118 
L 237.808146 108.504847 
L 238.446797 108.504847 
L 238.446797 108.150212 
L 238.8723 108.150212 
L 238.8723 107.795576 
L 239.407719 107.795576 
L 239.455429 104.603859 
L 246.070957 104.603859 
L 246.070957 104.249224 
L 246.472266 104.249224 
L 246.50538 103.539953 
L 247.16867 103.539953 
L 247.16867 103.185318 
L 250.548366 103.185318 
L 250.548366 102.830682 
L 251.992276 102.830682 
L 251.992276 102.476047 
L 252.129053 102.476047 
L 252.129053 102.121412 
L 252.623176 102.121412 
L 252.623176 101.412141 
L 256.197953 101.412141 
L 256.197953 101.057506 
L 260.151552 101.057506 
L 260.151552 100.702871 
L 262.925311 100.702871 
L 262.925311 100.348235 
L 263.205252 100.348235 
L 263.205252 99.9936 
L 267.949084 99.9936 
L 267.949084 99.284329 
L 271.548176 99.284329 
L 271.548176 98.929694 
L 274.884006 98.929694 
L 274.884006 98.575059 
L 289.999026 98.575059 
L 289.999026 97.865788 
L 290.637353 97.865788 
L 290.637353 97.511153 
L 295.576751 97.511153 
L 295.576751 97.156518 
L 306.315264 97.156518 
L 306.315264 96.801882 
L 360.8064 96.801882 
L 360.8064 96.801882 
" style="fill:none;stroke:#000080;stroke-linecap:square;stroke-width:1.5;"/>
   </g>
   <g id="line2d_36">
    <defs>
     <path d="M 0 6 
C 1.591219 6 3.117479 5.367802 4.242641 4.242641 
C 5.367802 3.117479 6 1.591219 6 0 
C 6 -1.591219 5.367802 -3.117479 4.242641 -4.242641 
C 3.117479 -5.367802 1.591219 -6 0 -6 
C -1.591219 -6 -3.117479 -5.367802 -4.242641 -4.242641 
C -5.367802 -3.117479 -6 -1.591219 -6 0 
C -6 1.591219 -5.367802 3.117479 -4.242641 4.242641 
C -3.117479 5.367802 -1.591219 6 0 6 
z
" id="ma9ad489a4e" style="stroke:#000080;stroke-width:1.5;"/>
    </defs>
    <g>
     <use style="fill-opacity:0;stroke:#000080;stroke-width:1.5;" x="91.922605" xlink:href="#ma9ad489a4e" y="262.7712"/>
     <use style="fill-opacity:0;stroke:#000080;stroke-width:1.5;" x="164.063646" xlink:href="#ma9ad489a4e" y="212.058353"/>
     <use style="fill-opacity:0;stroke:#000080;stroke-width:1.5;" x="210.781267" xlink:href="#ma9ad489a4e" y="135.811765"/>
     <use style="fill-opacity:0;stroke:#000080;stroke-width:1.5;" x="295.576751" xlink:href="#ma9ad489a4e" y="97.156518"/>
     <use style="fill-opacity:0;stroke:#000080;stroke-width:1.5;" x="306.315264" xlink:href="#ma9ad489a4e" y="96.801882"/>
     <use style="fill-opacity:0;stroke:#000080;stroke-width:1.5;" x="360.8064" xlink:href="#ma9ad489a4e" y="96.801882"/>
    </g>
   </g>
   <g id="line2d_37">
    <path style="fill:none;stroke:#000080;stroke-linecap:square;stroke-width:1.5;"/>
    <g/>
   </g>
   <g id="line2d_38">
    <path clip-path="url(#pc2bca8d988)" d="M 226.672527 111.341929 
" style="fill:none;stroke:#000080;stroke-linecap:square;stroke-width:1.5;"/>
    <defs>
     <path d="M -12 12 
L 12 -12 
M -12 -12 
L 12 12 
" id="mb2e256794c" style="stroke:#000080;"/>
    </defs>
    <g clip-path="url(#pc2bca8d988)">
     <use style="fill:#000080;stroke:#000080;" x="226.672527" xlink:href="#mb2e256794c" y="111.341929"/>
    </g>
   </g>
   <g id="line2d_39">
    <defs>
     <path d="M 0 1.5 
C 0.397805 1.5 0.77937 1.341951 1.06066 1.06066 
C 1.341951 0.77937 1.5 0.397805 1.5 0 
C 1.5 -0.397805 1.341951 -0.77937 1.06066 -1.06066 
C 0.77937 -1.341951 0.397805 -1.5 0 -1.5 
C -0.397805 -1.5 -0.77937 -1.341951 -1.06066 -1.06066 
C -1.341951 -0.77937 -1.5 -0.397805 -1.5 0 
C -1.5 0.397805 -1.341951 0.77937 -1.06066 1.06066 
C -0.77937 1.341951 -0.397805 1.5 0 1.5 
z
" id="me4fd4b1204" style="stroke:#ff00ff;"/>
    </defs>
    <g>
     <use style="fill:#ff00ff;stroke:#ff00ff;" x="213.29279" xlink:href="#me4fd4b1204" y="27.648"/>
     <use style="fill:#ff00ff;stroke:#ff00ff;" x="213.29279" xlink:href="#me4fd4b1204" y="27.648"/>
    </g>
   </g>
   <g id="line2d_40">
    <path d="M 27.323974 298.944 
L 27.323974 278.729788 
L 40.363149 278.729788 
L 40.363149 276.247341 
L 47.990577 276.247341 
L 47.990577 273.764894 
L 53.402323 273.764894 
L 53.402323 271.991718 
L 57.6 271.991718 
L 57.6 270.573176 
L 61.029752 270.573176 
L 61.029752 268.445365 
L 63.929565 268.445365 
L 63.929565 265.962918 
L 66.441498 265.962918 
L 66.441498 265.608282 
L 68.65718 265.608282 
L 68.65718 263.480471 
L 72.432107 263.480471 
L 72.432107 262.416565 
L 74.068926 262.416565 
L 74.068926 261.707294 
L 75.574654 261.707294 
L 75.574654 261.352659 
L 78.266603 261.352659 
L 78.266603 260.643388 
L 79.480672 260.643388 
L 79.480672 260.288753 
L 87.1081 260.288753 
L 87.1081 259.934118 
L 89.323782 259.934118 
L 89.323782 259.224847 
L 90.668036 259.224847 
L 90.668036 258.870212 
L 91.922605 258.870212 
L 91.922605 258.515576 
L 92.519847 258.515576 
L 92.519847 258.160941 
L 93.66029 258.160941 
L 93.66029 257.806306 
L 94.735529 257.806306 
L 94.735529 256.7424 
L 100.147275 256.7424 
L 100.147275 256.387765 
L 100.535156 256.387765 
L 100.535156 255.323859 
L 100.9152 255.323859 
L 100.9152 254.969224 
L 101.653002 254.969224 
L 101.653002 254.614588 
L 102.362957 254.614588 
L 102.362957 254.259953 
L 102.708132 254.259953 
L 102.708132 253.905318 
L 106.137884 253.905318 
L 106.137884 253.196047 
L 107.774703 253.196047 
L 107.774703 252.841412 
L 109.990385 252.841412 
L 109.990385 252.486776 
L 114.141556 252.486776 
L 114.141556 252.132141 
L 114.326893 252.132141 
L 114.326893 251.777506 
L 115.747307 251.777506 
L 115.747307 251.422871 
L 117.695068 251.422871 
L 117.695068 251.068235 
L 118.301945 251.068235 
L 118.301945 250.358965 
L 118.74459 250.358965 
L 118.74459 250.004329 
L 119.599808 250.004329 
L 119.599808 249.649694 
L 122.19863 249.649694 
L 122.19863 249.295059 
L 122.319605 249.295059 
L 122.319605 248.940424 
L 122.439807 248.940424 
L 122.439807 247.876518 
L 122.677931 247.876518 
L 122.677931 246.812612 
L 123.4884 246.812612 
L 123.4884 246.457976 
L 125.115773 246.457976 
L 125.115773 246.103341 
L 126.993549 246.103341 
L 126.993549 245.394071 
L 127.18073 245.394071 
L 127.18073 245.039435 
L 127.549596 245.039435 
L 127.549596 244.330165 
L 127.821575 244.330165 
L 127.821575 243.620894 
L 128.956723 243.620894 
L 128.956723 243.266259 
L 129.458394 243.266259 
L 129.458394 242.911624 
L 130.811181 242.911624 
L 130.811181 242.556988 
L 131.115828 242.556988 
L 131.191226 241.138447 
L 131.63737 241.138447 
L 131.63737 240.429176 
L 133.78762 240.429176 
L 133.853052 239.010635 
L 134.558167 239.010635 
L 134.558167 237.946729 
L 135.116046 237.946729 
L 135.116046 237.592094 
L 136.010584 237.592094 
L 136.010584 237.237459 
L 136.356818 237.237459 
L 136.356818 236.882824 
L 137.085822 236.882824 
L 137.085822 236.173553 
L 137.520791 236.173553 
L 137.520791 235.818918 
L 137.734561 235.818918 
L 137.734561 235.464282 
L 138.206842 235.464282 
L 138.206842 234.755012 
L 138.412998 234.755012 
L 138.412998 234.400376 
L 139.067817 234.400376 
L 139.067817 234.045741 
L 140.49723 234.045741 
L 140.49723 233.691106 
L 140.860749 233.691106 
L 140.860749 232.981835 
L 141.910969 232.981835 
L 141.910969 232.6272 
L 142.122575 232.6272 
L 142.122575 231.208659 
L 144.267986 231.208659 
L 144.267986 230.854024 
L 144.895711 230.854024 
L 144.895711 230.499388 
L 145.326529 230.499388 
L 145.326529 230.144753 
L 145.920443 230.144753 
L 145.989098 229.435482 
L 146.125662 229.435482 
L 146.125662 228.726212 
L 146.294984 228.726212 
L 146.294984 228.371576 
L 146.695245 228.371576 
L 146.793994 227.307671 
L 146.892226 227.307671 
L 146.989949 226.5984 
L 147.280107 226.5984 
L 147.280107 226.243765 
L 147.753975 226.243765 
L 147.753975 225.889129 
L 149.165879 225.889129 
L 149.194798 225.179859 
L 149.42456 225.179859 
L 149.481565 222.342776 
L 149.538397 222.342776 
L 149.595059 221.278871 
L 149.73597 221.278871 
L 149.79204 220.5696 
L 149.903682 220.5696 
L 149.903682 220.214965 
L 150.097474 220.214965 
L 150.179921 219.505694 
L 150.262008 219.505694 
L 150.289291 218.441788 
L 150.640414 218.441788 
L 150.640414 218.087153 
L 150.800286 218.087153 
L 150.906118 215.250071 
L 150.958812 215.250071 
L 151.037576 214.186165 
L 151.375128 214.186165 
L 151.452172 213.476894 
L 151.656094 213.476894 
L 151.656094 213.122259 
L 151.932924 213.122259 
L 151.95789 212.058353 
L 152.057422 212.058353 
L 152.057422 211.703718 
L 152.835271 211.703718 
L 152.882835 209.221271 
L 153.118868 209.221271 
L 153.189104 208.157365 
L 153.282346 208.157365 
L 153.351976 207.448094 
L 153.650761 207.448094 
L 153.696309 206.384188 
L 153.8097 206.384188 
L 153.832297 205.320282 
L 154.123607 205.320282 
L 154.168026 204.611012 
L 154.256552 204.611012 
L 154.322673 203.192471 
L 154.432362 203.192471 
L 154.432362 202.837835 
L 154.584859 202.837835 
L 154.628204 201.773929 
L 155.140696 201.773929 
L 155.140696 201.419294 
L 155.495444 201.419294 
L 155.495444 201.064659 
L 155.701037 201.064659 
L 155.701037 200.710024 
L 155.924624 200.710024 
L 155.924624 200.355388 
L 156.165543 200.355388 
L 156.165543 200.000753 
L 156.324459 200.000753 
L 156.324459 199.291482 
L 156.831855 199.291482 
L 156.870325 198.227576 
L 157.04247 198.227576 
L 157.04247 197.872941 
L 157.363398 197.872941 
L 157.363398 197.518306 
L 157.678942 197.518306 
L 157.734081 196.4544 
L 157.825621 196.4544 
L 157.934885 195.390494 
L 157.98928 195.390494 
L 157.98928 195.035859 
L 158.115593 195.035859 
L 158.2053 193.617318 
L 158.241064 193.617318 
L 158.312387 192.553412 
L 158.365703 192.553412 
L 158.365703 191.489506 
L 158.612531 191.489506 
L 158.665004 190.780235 
L 158.769513 190.780235 
L 158.786875 190.070965 
L 158.890711 190.070965 
L 158.890711 189.716329 
L 159.14782 189.716329 
L 159.249688 189.007059 
L 159.283522 189.007059 
L 159.283522 188.652424 
L 159.568678 188.652424 
L 159.568678 188.297788 
L 159.865969 188.297788 
L 159.964032 186.524612 
L 160.061585 186.524612 
L 160.158636 183.687529 
L 160.174762 183.687529 
L 160.174762 183.332894 
L 160.319282 183.332894 
L 160.367209 181.914353 
L 160.510264 181.914353 
L 160.605032 179.431906 
L 160.82432 179.431906 
L 160.902022 178.013365 
L 161.010268 178.013365 
L 161.010268 177.658729 
L 161.163832 177.658729 
L 161.163832 177.304094 
L 161.406958 177.304094 
L 161.512345 175.885553 
L 161.587261 175.885553 
L 161.587261 175.530918 
L 161.706511 175.530918 
L 161.810238 174.467012 
L 162.103487 174.467012 
L 162.11803 173.757741 
L 162.277267 173.757741 
L 162.363559 171.984565 
L 162.392235 171.984565 
L 162.435167 170.211388 
L 162.520739 170.211388 
L 162.520739 169.856753 
L 162.718906 169.856753 
L 162.817213 169.147482 
L 163.109086 169.147482 
L 163.205379 168.083576 
L 163.246497 168.083576 
L 163.246497 167.728941 
L 163.746367 167.728941 
L 163.746367 167.374306 
L 163.945293 167.374306 
L 163.984826 165.955765 
L 164.063646 165.955765 
L 164.063646 165.601129 
L 164.220301 165.601129 
L 164.311084 164.182588 
L 164.414303 164.182588 
L 164.414303 163.827953 
L 164.644495 163.827953 
L 164.644495 163.473318 
L 164.796406 163.473318 
L 164.796406 163.118682 
L 165.133786 163.118682 
L 165.133786 162.764047 
L 165.244914 162.764047 
L 165.257222 162.054776 
L 165.392072 162.054776 
L 165.392072 161.700141 
L 165.51383 161.700141 
L 165.598594 160.990871 
L 165.862536 160.990871 
L 165.969454 159.217694 
L 166.063985 159.217694 
L 166.063985 158.508424 
L 166.712723 158.508424 
L 166.712723 158.153788 
L 166.837566 158.153788 
L 166.927844 156.025976 
L 167.051272 156.025976 
L 167.15166 153.898165 
L 167.438697 153.898165 
L 167.537044 150.351812 
L 167.667378 150.351812 
L 167.667378 149.997176 
L 167.796816 149.997176 
L 167.871912 148.933271 
L 167.978675 148.933271 
L 168.084835 146.450824 
L 168.305841 146.450824 
L 168.3163 145.741553 
L 168.420577 145.741553 
L 168.52428 143.613741 
L 168.534619 143.613741 
L 168.596533 142.549835 
L 168.740211 142.549835 
L 168.811641 140.776659 
L 168.862497 140.776659 
L 168.963798 139.712753 
L 169.004166 139.712753 
L 169.104709 138.648847 
L 169.144777 138.648847 
L 169.234617 137.939576 
L 169.491772 137.939576 
L 169.579974 136.875671 
L 169.628797 136.875671 
L 169.726065 134.747859 
L 169.745458 134.747859 
L 169.745458 134.393224 
L 169.8614 134.393224 
L 169.8614 134.038588 
L 169.986203 134.038588 
L 169.986203 133.683953 
L 170.167131 133.683953 
L 170.167131 133.329318 
L 170.289928 133.329318 
L 170.289928 132.974682 
L 170.635104 132.974682 
L 170.736514 131.556141 
L 170.764077 131.556141 
L 170.855662 130.492235 
L 170.937709 130.492235 
L 170.937709 130.1376 
L 171.064631 130.1376 
L 171.172743 128.009788 
L 171.208643 128.009788 
L 171.208643 127.655153 
L 171.396002 127.655153 
L 171.449192 126.945882 
L 171.782615 126.945882 
L 171.869384 125.172706 
L 171.990192 125.172706 
L 172.041731 123.754165 
L 172.254968 123.754165 
L 172.331145 123.044894 
L 172.390182 123.044894 
L 172.465815 121.980988 
L 172.557844 121.980988 
L 172.649425 120.207812 
L 172.732295 120.207812 
L 172.732295 119.853176 
L 172.937888 119.853176 
L 173.043915 119.143906 
L 173.052046 119.143906 
L 173.11697 117.370729 
L 173.165515 117.370729 
L 173.165515 117.016094 
L 173.956698 117.016094 
L 174.026299 116.306824 
L 174.264083 116.306824 
L 174.264083 115.952188 
L 174.40835 115.952188 
L 174.438582 114.533647 
L 174.693607 114.533647 
L 174.693607 114.179012 
L 174.812433 114.179012 
L 174.923154 113.469741 
L 174.967261 113.469741 
L 175.055166 112.0512 
L 175.193513 112.0512 
L 175.251462 110.987294 
L 175.402733 110.987294 
L 175.402733 110.278024 
L 175.574138 110.278024 
L 175.574138 109.923388 
L 175.687546 109.923388 
L 175.793249 107.086306 
L 175.807298 107.086306 
L 175.807298 106.731671 
L 176.00289 106.731671 
L 176.11375 105.667765 
L 176.244554 105.667765 
L 176.25827 104.958494 
L 176.36764 104.958494 
L 176.469599 103.894588 
L 176.496696 103.894588 
L 176.496696 103.539953 
L 176.665168 103.539953 
L 176.671876 102.830682 
L 176.785541 102.830682 
L 176.858725 100.348235 
L 176.984467 100.348235 
L 176.997654 99.638965 
L 177.096265 99.638965 
L 177.200883 97.156518 
L 177.213919 97.156518 
L 177.213919 96.801882 
L 177.427726 96.801882 
L 177.45991 96.092612 
L 177.556133 96.092612 
L 177.664594 95.383341 
L 177.677313 95.383341 
L 177.759778 94.674071 
L 177.967504 94.674071 
L 177.967504 94.319435 
L 178.253286 94.319435 
L 178.284089 93.610165 
L 178.388444 93.610165 
L 178.388444 93.255529 
L 178.830093 93.255529 
L 178.830093 92.900894 
L 178.973057 92.900894 
L 179.044133 91.836988 
L 179.103159 91.836988 
L 179.20308 90.063812 
L 179.284971 90.063812 
L 179.372318 88.999906 
L 179.499697 88.999906 
L 179.59754 86.872094 
L 179.780344 86.872094 
L 179.882396 84.744282 
L 179.893701 84.744282 
L 179.972646 83.680376 
L 180.13513 83.680376 
L 180.22973 82.971106 
L 180.439486 82.971106 
L 180.510711 81.552565 
L 180.641498 81.552565 
L 180.684893 80.488659 
L 180.825238 80.488659 
L 180.825238 80.134024 
L 181.081618 80.134024 
L 181.102826 79.070118 
L 181.229574 79.070118 
L 181.229574 78.715482 
L 181.371153 78.715482 
L 181.386819 78.006212 
L 181.640858 78.006212 
L 181.640858 77.651576 
L 181.779386 77.651576 
L 181.871175 75.523765 
L 181.916902 75.523765 
L 181.916902 75.169129 
L 182.118798 75.169129 
L 182.118798 74.814494 
L 182.26383 74.814494 
L 182.26383 74.459859 
L 182.462057 74.459859 
L 182.506372 73.395953 
L 182.682594 73.395953 
L 182.765239 72.686682 
L 182.799165 72.686682 
L 182.799165 72.332047 
L 183.073159 72.332047 
L 183.082701 71.622776 
L 183.244174 71.622776 
L 183.329102 70.558871 
L 183.362027 70.558871 
L 183.362027 70.204235 
L 183.706604 70.204235 
L 183.725052 69.140329 
L 183.821604 69.140329 
L 183.835357 68.431059 
L 184.063102 68.431059 
L 184.135402 67.721788 
L 184.180449 67.721788 
L 184.283649 64.884706 
L 184.319413 64.884706 
L 184.426297 64.175435 
L 184.435177 64.175435 
L 184.479512 63.111529 
L 184.611895 63.111529 
L 184.63826 62.402259 
L 184.843519 62.402259 
L 184.843519 62.047624 
L 184.994929 62.047624 
L 185.098054 61.338353 
L 185.238933 61.338353 
L 185.311097 60.629082 
L 185.353418 60.629082 
L 185.450396 59.919812 
L 185.800388 59.919812 
L 185.890987 59.210541 
L 186.111533 59.210541 
L 186.111533 58.855906 
L 186.313462 58.855906 
L 186.349581 57.437365 
L 186.533109 57.437365 
L 186.564846 56.728094 
L 186.710932 56.728094 
L 186.726658 55.309553 
L 186.863698 55.309553 
L 186.863698 54.954918 
L 187.050029 54.954918 
L 187.050029 54.600282 
L 187.364137 54.600282 
L 187.364137 54.245647 
L 187.624443 54.245647 
L 187.624443 53.891012 
L 187.862709 53.891012 
L 187.951286 53.181741 
L 188.22906 53.181741 
L 188.312321 51.7632 
L 188.431143 51.7632 
L 188.452666 51.053929 
L 188.797255 51.053929 
L 188.797255 50.699294 
L 189.049012 50.699294 
L 189.049012 50.344659 
L 189.21844 50.344659 
L 189.21844 49.990024 
L 189.36929 49.990024 
L 189.382944 49.280753 
L 189.596694 49.280753 
L 189.670769 48.571482 
L 190.256351 48.571482 
L 190.256351 48.216847 
L 190.4669 48.216847 
L 190.486217 47.507576 
L 190.912542 47.507576 
L 190.912542 47.152941 
L 191.1128 47.152941 
L 191.212135 45.7344 
L 191.261606 45.7344 
L 191.301706 45.025129 
L 191.570928 45.025129 
L 191.601279 44.315859 
L 191.794375 44.315859 
L 191.881223 42.188047 
L 192.027061 42.188047 
L 192.027061 41.833412 
L 192.195299 41.833412 
L 192.195299 41.478776 
L 193.031506 41.478776 
L 193.031506 41.124141 
L 193.318796 41.124141 
L 193.332631 40.414871 
L 193.445696 40.414871 
L 193.497863 39.350965 
L 194.226594 39.350965 
L 194.226594 38.996329 
L 194.439038 38.996329 
L 194.439038 38.641694 
L 194.849206 38.641694 
L 194.849206 38.287059 
L 195.090075 38.287059 
L 195.090075 37.932424 
L 195.533247 37.932424 
L 195.533247 37.577788 
L 195.908419 37.577788 
L 195.908419 37.223153 
L 196.354149 37.223153 
L 196.354149 36.868518 
L 196.583589 36.868518 
L 196.627751 36.159247 
L 196.956838 36.159247 
L 197.027425 35.449976 
L 197.891378 35.449976 
L 197.988808 34.740706 
L 198.682039 34.740706 
L 198.682039 34.386071 
L 199.534528 34.386071 
L 199.534528 34.031435 
L 199.787433 34.031435 
L 199.787433 33.6768 
L 200.054407 33.6768 
L 200.054407 33.322165 
L 200.344338 33.322165 
L 200.344338 32.967529 
L 200.695436 32.967529 
L 200.695436 32.612894 
L 201.010701 32.612894 
L 201.107918 31.903624 
L 201.472112 31.903624 
L 201.472112 31.548988 
L 201.659595 31.548988 
L 201.659595 31.194353 
L 202.30746 31.194353 
L 202.30746 30.839718 
L 202.52251 30.839718 
L 202.52251 30.485082 
L 203.182808 30.485082 
L 203.241701 29.421176 
L 204.558393 29.421176 
L 204.558393 29.066541 
L 205.756084 29.066541 
L 205.756084 28.711906 
L 206.205109 28.711906 
L 206.251098 28.002635 
L 213.29279 28.002635 
L 213.29279 27.648 
L 360.8064 27.648 
L 360.8064 27.648 
" style="fill:none;stroke:#ff00ff;stroke-linecap:square;stroke-width:1.5;"/>
   </g>
   <g id="line2d_41">
    <defs>
     <path d="M -0 8.485281 
L 5.091169 0 
L 0 -8.485281 
L -5.091169 -0 
z
" id="m49e8c7f536" style="stroke:#ff00ff;stroke-linejoin:miter;stroke-width:1.5;"/>
    </defs>
    <g>
     <use style="fill-opacity:0;stroke:#ff00ff;stroke-linejoin:miter;stroke-width:1.5;" x="150.179921" xlink:href="#m49e8c7f536" y="219.505694"/>
     <use style="fill-opacity:0;stroke:#ff00ff;stroke-linejoin:miter;stroke-width:1.5;" x="170.855662" xlink:href="#m49e8c7f536" y="130.492235"/>
     <use style="fill-opacity:0;stroke:#ff00ff;stroke-linejoin:miter;stroke-width:1.5;" x="213.29279" xlink:href="#m49e8c7f536" y="28.002635"/>
     <use style="fill-opacity:0;stroke:#ff00ff;stroke-linejoin:miter;stroke-width:1.5;" x="213.29279" xlink:href="#m49e8c7f536" y="27.648"/>
     <use style="fill-opacity:0;stroke:#ff00ff;stroke-linejoin:miter;stroke-width:1.5;" x="213.29279" xlink:href="#m49e8c7f536" y="27.648"/>
     <use style="fill-opacity:0;stroke:#ff00ff;stroke-linejoin:miter;stroke-width:1.5;" x="360.8064" xlink:href="#m49e8c7f536" y="27.648"/>
    </g>
   </g>
   <g id="line2d_42">
    <path style="fill:none;stroke:#ff00ff;stroke-linecap:square;stroke-width:1.5;"/>
    <g/>
   </g>
   <g id="line2d_43">
    <path clip-path="url(#pc2bca8d988)" d="M 144.380294 230.854024 
" style="fill:none;stroke:#ff00ff;stroke-linecap:square;stroke-width:1.5;"/>
    <defs>
     <path d="M -12 12 
L 12 -12 
M -12 -12 
L 12 12 
" id="m92b7279b7d" style="stroke:#ff00ff;"/>
    </defs>
    <g clip-path="url(#pc2bca8d988)">
     <use style="fill:#ff00ff;stroke:#ff00ff;" x="144.380294" xlink:href="#m92b7279b7d" y="230.854024"/>
    </g>
   </g>
   <g id="line2d_44">
    <defs>
     <path d="M 0 1.5 
C 0.397805 1.5 0.77937 1.341951 1.06066 1.06066 
C 1.341951 0.77937 1.5 0.397805 1.5 0 
C 1.5 -0.397805 1.341951 -0.77937 1.06066 -1.06066 
C 0.77937 -1.341951 0.397805 -1.5 0 -1.5 
C -0.397805 -1.5 -0.77937 -1.341951 -1.06066 -1.06066 
C -1.341951 -0.77937 -1.5 -0.397805 -1.5 0 
C -1.5 0.397805 -1.341951 0.77937 -1.06066 1.06066 
C -0.77937 1.341951 -0.397805 1.5 0 1.5 
z
" id="m82ff599f16" style="stroke:#ff7500;"/>
    </defs>
    <g>
     <use style="fill:#ff7500;stroke:#ff7500;" x="216.17687" xlink:href="#m82ff599f16" y="27.648"/>
     <use style="fill:#ff7500;stroke:#ff7500;" x="216.17687" xlink:href="#m82ff599f16" y="27.648"/>
    </g>
   </g>
   <g id="line2d_45">
    <path d="M 27.323974 298.944 
L 27.323974 277.311247 
L 40.363149 277.311247 
L 40.363149 276.601976 
L 47.990577 276.601976 
L 47.990577 275.892706 
L 57.6 275.892706 
L 57.6 275.183435 
L 61.029752 275.183435 
L 61.029752 274.8288 
L 63.929565 274.8288 
L 63.929565 274.474165 
L 66.441498 274.474165 
L 66.441498 273.764894 
L 70.639174 273.764894 
L 70.639174 273.410259 
L 84.596168 273.410259 
L 84.596168 273.055624 
L 87.876026 273.055624 
L 87.876026 272.700988 
L 107.244765 272.700988 
L 107.244765 272.346353 
L 108.034177 272.346353 
L 108.034177 271.991718 
L 115.050503 271.991718 
L 115.050503 270.927812 
L 120.149089 270.927812 
L 120.149089 270.573176 
L 124.156336 270.573176 
L 124.156336 270.218541 
L 126.028642 270.218541 
L 126.028642 269.863906 
L 127.18073 269.863906 
L 127.18073 269.509271 
L 127.458055 269.509271 
L 127.458055 269.154635 
L 129.86647 269.154635 
L 129.86647 268.445365 
L 130.265881 268.445365 
L 130.265881 268.090729 
L 132.499119 268.090729 
L 132.499119 267.381459 
L 132.708526 267.381459 
L 132.708526 267.026824 
L 134.304809 267.026824 
L 134.304809 266.672188 
L 136.413909 266.672188 
L 136.413909 265.962918 
L 139.652679 265.962918 
L 139.652679 265.608282 
L 140.543056 265.608282 
L 140.543056 265.253647 
L 140.725251 265.253647 
L 140.725251 264.189741 
L 141.393187 264.189741 
L 141.393187 262.7712 
L 144.417581 262.7712 
L 144.491935 260.643388 
L 144.639767 260.643388 
L 144.639767 259.934118 
L 145.148219 259.934118 
L 145.148219 259.579482 
L 146.125662 259.579482 
L 146.125662 259.224847 
L 146.294984 259.224847 
L 146.294984 258.870212 
L 146.826795 258.870212 
L 146.826795 258.515576 
L 147.312072 258.515576 
L 147.312072 257.806306 
L 147.971093 257.806306 
L 147.971093 256.7424 
L 148.124658 256.7424 
L 148.124658 256.387765 
L 148.428077 256.387765 
L 148.428077 256.033129 
L 149.65155 256.033129 
L 149.65155 255.678494 
L 149.903682 255.678494 
L 149.903682 255.323859 
L 150.234685 255.323859 
L 150.234685 254.969224 
L 150.398028 254.969224 
L 150.398028 254.614588 
L 151.089903 254.614588 
L 151.089903 254.259953 
L 151.528902 254.259953 
L 151.60532 253.550682 
L 151.70673 253.550682 
L 151.70673 252.486776 
L 151.95789 252.486776 
L 151.95789 252.132141 
L 152.401695 252.132141 
L 152.401695 251.422871 
L 152.835271 251.422871 
L 152.835271 251.068235 
L 153.048369 251.068235 
L 153.048369 250.7136 
L 153.212458 250.7136 
L 153.212458 250.358965 
L 153.854866 250.358965 
L 153.854866 250.004329 
L 154.034453 250.004329 
L 154.034453 249.295059 
L 154.563149 249.295059 
L 154.563149 248.940424 
L 154.907535 248.940424 
L 154.907535 248.585788 
L 155.329337 248.585788 
L 155.329337 248.231153 
L 155.680579 248.231153 
L 155.680579 247.167247 
L 155.924624 247.167247 
L 155.985143 246.457976 
L 157.438121 246.457976 
L 157.475372 245.394071 
L 157.549652 245.394071 
L 157.549652 245.039435 
L 157.789059 245.039435 
L 157.789059 244.6848 
L 158.312387 244.6848 
L 158.312387 244.330165 
L 158.942415 244.330165 
L 158.942415 243.975529 
L 159.300416 243.975529 
L 159.300416 243.620894 
L 159.552023 243.620894 
L 159.618554 242.556988 
L 159.964032 242.556988 
L 160.012872 241.138447 
L 160.557708 241.138447 
L 160.667947 240.074541 
L 160.855439 240.074541 
L 160.855439 239.719906 
L 161.071844 239.719906 
L 161.071844 239.010635 
L 161.331318 239.010635 
L 161.437128 236.882824 
L 161.795455 236.882824 
L 161.854518 236.173553 
L 162.747046 236.173553 
L 162.747046 235.818918 
L 162.859187 235.818918 
L 162.942856 234.045741 
L 163.191653 234.045741 
L 163.191653 233.691106 
L 163.410077 233.691106 
L 163.410077 233.336471 
L 163.59914 233.336471 
L 163.59914 232.981835 
L 163.839461 232.981835 
L 163.905675 232.272565 
L 164.063646 232.272565 
L 164.102932 229.790118 
L 164.272231 229.790118 
L 164.375662 229.080847 
L 165.059334 229.080847 
L 165.084184 228.016941 
L 166.075768 228.016941 
L 166.075768 227.662306 
L 166.228279 227.662306 
L 166.321521 226.5984 
L 166.379563 226.5984 
L 166.379563 226.243765 
L 166.50663 226.243765 
L 166.541136 225.179859 
L 166.769573 225.179859 
L 166.814929 223.406682 
L 166.972821 223.406682 
L 167.073627 222.342776 
L 167.350843 222.342776 
L 167.350843 221.988141 
L 167.526142 221.988141 
L 167.526142 221.278871 
L 167.742992 221.278871 
L 167.850487 218.441788 
L 168.042443 218.441788 
L 168.042443 218.087153 
L 168.284904 218.087153 
L 168.284904 217.732518 
L 168.760648 217.732518 
L 168.842171 215.959341 
L 168.903083 215.959341 
L 168.903083 215.604706 
L 169.084644 215.604706 
L 169.084644 215.250071 
L 169.383404 215.250071 
L 169.442591 214.5408 
L 169.726065 214.5408 
L 169.726065 214.186165 
L 169.957476 214.186165 
L 169.957476 213.476894 
L 170.186075 213.476894 
L 170.186075 213.122259 
L 170.745706 213.122259 
L 170.745706 212.412988 
L 170.9104 212.412988 
L 170.983137 210.994447 
L 171.100737 210.994447 
L 171.100737 210.639812 
L 171.351562 210.639812 
L 171.387122 209.575906 
L 171.563924 209.575906 
L 171.590302 208.866635 
L 171.765213 208.866635 
L 171.800001 207.802729 
L 171.88669 207.802729 
L 171.921254 207.093459 
L 172.093129 207.093459 
L 172.152916 205.674918 
L 172.348032 205.674918 
L 172.348032 205.320282 
L 172.516068 205.320282 
L 172.574528 204.611012 
L 172.83126 204.611012 
L 172.913335 203.901741 
L 172.970575 203.901741 
L 173.027642 203.192471 
L 173.75417 203.192471 
L 173.847916 202.4832 
L 174.095643 202.4832 
L 174.195358 201.064659 
L 174.25646 201.064659 
L 174.25646 200.355388 
L 174.438582 200.355388 
L 174.461224 199.646118 
L 174.663783 199.646118 
L 174.678701 198.936847 
L 174.886319 198.936847 
L 174.886319 197.518306 
L 175.018589 197.518306 
L 175.077078 196.4544 
L 175.280369 196.4544 
L 175.374013 195.745129 
L 175.431409 195.745129 
L 175.431409 195.035859 
L 175.715792 195.035859 
L 175.715792 194.681224 
L 175.835365 194.681224 
L 175.835365 193.971953 
L 175.975072 193.971953 
L 176.051472 192.198776 
L 176.168936 192.198776 
L 176.203345 191.134871 
L 176.36764 191.134871 
L 176.388076 190.070965 
L 176.852084 190.070965 
L 176.898524 189.361694 
L 177.024001 189.361694 
L 177.063452 188.652424 
L 177.414837 188.652424 
L 177.414837 188.297788 
L 177.620009 188.297788 
L 177.702725 187.588518 
L 178.104724 187.588518 
L 178.210076 186.524612 
L 178.277932 186.524612 
L 178.388444 185.106071 
L 178.504396 185.106071 
L 178.5712 184.042165 
L 178.734177 184.042165 
L 178.830093 182.978259 
L 178.967121 182.978259 
L 178.973057 181.914353 
L 179.191352 181.914353 
L 179.273294 180.850447 
L 179.302473 180.850447 
L 179.366508 179.786541 
L 179.522765 179.786541 
L 179.540047 178.722635 
L 179.837108 178.722635 
L 179.837108 178.368 
L 180.034443 178.368 
L 180.112802 177.658729 
L 180.488824 177.658729 
L 180.587114 176.594824 
L 180.765989 176.594824 
L 180.846737 175.885553 
L 181.001874 175.885553 
L 181.03913 175.176282 
L 181.150457 175.176282 
L 181.150457 174.821647 
L 181.287383 174.821647 
L 181.287383 174.467012 
L 181.496113 174.467012 
L 181.501302 173.757741 
L 181.74869 173.757741 
L 181.825336 172.3392 
L 181.937189 172.3392 
L 182.008023 170.211388 
L 182.078592 170.211388 
L 182.088652 169.502118 
L 182.228925 169.502118 
L 182.228925 169.147482 
L 182.427518 169.147482 
L 182.427518 168.792847 
L 182.579998 168.792847 
L 182.667971 167.728941 
L 182.706939 167.728941 
L 182.706939 167.019671 
L 182.967879 167.019671 
L 183.07793 165.955765 
L 183.130337 165.955765 
L 183.149358 165.246494 
L 183.362027 165.246494 
L 183.42302 164.537224 
L 183.530448 164.537224 
L 183.530448 164.182588 
L 183.641896 164.182588 
L 183.688139 163.118682 
L 183.81243 163.118682 
L 183.862832 162.409412 
L 183.949574 162.409412 
L 183.985978 161.700141 
L 184.243334 161.700141 
L 184.243334 161.345506 
L 184.589896 161.345506 
L 184.589896 160.990871 
L 184.708387 160.990871 
L 184.708387 160.636235 
L 184.973374 160.636235 
L 184.973374 160.2816 
L 185.183561 160.2816 
L 185.183561 159.926965 
L 185.328037 159.926965 
L 185.404078 159.217694 
L 185.530133 159.217694 
L 185.530133 158.863059 
L 185.882769 158.863059 
L 185.948414 158.153788 
L 186.058675 158.153788 
L 186.127768 156.735247 
L 186.337549 156.735247 
L 186.41362 156.025976 
L 186.663677 156.025976 
L 186.66762 155.316706 
L 186.871498 155.316706 
L 186.964856 154.2528 
L 187.030705 154.2528 
L 187.088617 153.188894 
L 187.165556 153.188894 
L 187.184741 152.479624 
L 187.598199 152.479624 
L 187.650651 151.770353 
L 187.947603 151.770353 
L 188.057763 149.997176 
L 188.28702 149.997176 
L 188.366424 149.287906 
L 188.445494 149.287906 
L 188.542083 147.869365 
L 188.776123 147.869365 
L 188.885053 146.450824 
L 189.052485 146.450824 
L 189.076778 145.741553 
L 189.166736 145.741553 
L 189.166736 145.386918 
L 189.290587 145.386918 
L 189.290587 145.032282 
L 189.754592 145.032282 
L 189.818049 143.968376 
L 189.974107 143.968376 
L 190.033533 142.904471 
L 190.197626 142.904471 
L 190.197626 142.549835 
L 190.327878 142.549835 
L 190.327878 142.1952 
L 190.540841 142.1952 
L 190.620884 140.776659 
L 190.852677 140.776659 
L 190.881058 140.067388 
L 191.171843 140.067388 
L 191.277039 139.358118 
L 191.427619 139.358118 
L 191.436799 138.648847 
L 191.546612 138.648847 
L 191.546612 138.294212 
L 191.689021 138.294212 
L 191.689021 137.939576 
L 192.030025 137.939576 
L 192.095128 136.875671 
L 192.306628 136.875671 
L 192.364958 135.811765 
L 192.478185 135.811765 
L 192.478185 135.457129 
L 192.596488 135.457129 
L 192.67399 134.747859 
L 192.719767 134.747859 
L 192.748322 133.683953 
L 192.870614 133.683953 
L 192.870614 133.329318 
L 193.006193 133.329318 
L 193.02026 132.620047 
L 193.188246 132.620047 
L 193.221664 131.910776 
L 193.385111 131.910776 
L 193.434695 130.846871 
L 193.506086 130.846871 
L 193.506086 130.492235 
L 193.661656 130.492235 
L 193.772767 129.428329 
L 193.82673 129.428329 
L 193.82673 129.073694 
L 193.982354 129.073694 
L 194.014392 128.364424 
L 194.176412 128.364424 
L 194.284533 126.945882 
L 194.449467 126.945882 
L 194.449467 126.591247 
L 194.762246 126.591247 
L 194.803219 125.881976 
L 194.92052 125.881976 
L 194.981432 124.818071 
L 195.072431 124.818071 
L 195.072431 124.463435 
L 195.293038 124.463435 
L 195.312966 123.399529 
L 195.412288 123.399529 
L 195.449399 122.690259 
L 195.535708 122.690259 
L 195.535708 122.335624 
L 195.799562 122.335624 
L 195.799562 121.980988 
L 195.959004 121.980988 
L 196.050194 120.562447 
L 196.102787 120.562447 
L 196.159994 119.853176 
L 196.302255 119.853176 
L 196.302255 119.498541 
L 196.415294 119.498541 
L 196.415294 119.143906 
L 196.553314 119.143906 
L 196.650952 118.434635 
L 196.748086 118.434635 
L 196.842426 117.016094 
L 197.133942 117.016094 
L 197.219624 114.533647 
L 197.710339 114.533647 
L 197.727865 113.824376 
L 197.860964 113.824376 
L 197.913073 112.760471 
L 198.25683 112.760471 
L 198.284486 111.696565 
L 198.468531 111.696565 
L 198.468531 111.341929 
L 198.619494 111.341929 
L 198.619494 110.987294 
L 198.800305 110.987294 
L 198.84369 109.923388 
L 198.926053 109.923388 
L 198.975298 108.859482 
L 199.247904 108.859482 
L 199.247904 108.504847 
L 199.380735 108.504847 
L 199.45679 107.440941 
L 199.980735 107.440941 
L 200.060211 106.731671 
L 200.096927 106.731671 
L 200.096927 106.377035 
L 200.283267 106.377035 
L 200.334809 104.603859 
L 200.481025 104.603859 
L 200.481025 104.249224 
L 200.872264 104.249224 
L 200.872264 103.894588 
L 201.056621 103.894588 
L 201.093276 103.185318 
L 201.31534 103.185318 
L 201.358718 102.476047 
L 201.568765 102.476047 
L 201.679128 101.766776 
L 201.776492 101.766776 
L 201.885647 99.284329 
L 201.899686 99.284329 
L 201.999408 98.220424 
L 202.140215 98.220424 
L 202.212813 96.447247 
L 202.257615 96.447247 
L 202.257615 96.092612 
L 202.464723 96.092612 
L 202.464723 95.737976 
L 202.672943 95.737976 
L 202.773683 94.319435 
L 202.810486 94.319435 
L 202.890536 93.255529 
L 202.971903 93.255529 
L 203.043018 92.546259 
L 203.166416 92.546259 
L 203.225361 91.836988 
L 203.28738 91.836988 
L 203.367053 90.418447 
L 203.483513 90.418447 
L 203.507685 89.709176 
L 203.644077 89.709176 
L 203.652069 88.999906 
L 204.031762 88.999906 
L 204.106789 87.581365 
L 204.184626 87.581365 
L 204.280699 86.872094 
L 204.302325 86.872094 
L 204.405478 84.744282 
L 204.442291 84.744282 
L 204.506541 84.035012 
L 204.564484 84.035012 
L 204.591868 82.971106 
L 204.685889 82.971106 
L 204.750821 81.9072 
L 204.817033 81.9072 
L 204.920397 80.488659 
L 205.005359 80.488659 
L 205.109176 78.360847 
L 205.147591 78.360847 
L 205.246223 76.587671 
L 205.331191 76.587671 
L 205.43323 75.523765 
L 205.526041 75.523765 
L 205.616956 73.395953 
L 205.664404 73.395953 
L 205.740358 71.977412 
L 205.798906 71.977412 
L 205.909788 70.204235 
L 205.925373 70.204235 
L 205.993229 69.494965 
L 206.053809 69.494965 
L 206.149214 67.367153 
L 206.212084 67.367153 
L 206.212084 67.012518 
L 206.327497 67.012518 
L 206.435316 64.884706 
L 206.495865 64.884706 
L 206.594527 62.402259 
L 206.646391 62.402259 
L 206.684515 61.692988 
L 206.783549 61.692988 
L 206.84164 60.629082 
L 206.906276 60.629082 
L 207.014847 59.919812 
L 207.077559 59.919812 
L 207.182499 58.855906 
L 207.219553 58.855906 
L 207.321077 57.437365 
L 207.344731 57.437365 
L 207.441665 54.954918 
L 207.504274 54.954918 
L 207.532901 54.245647 
L 207.714056 54.245647 
L 207.820637 53.181741 
L 207.84623 53.181741 
L 207.94698 51.053929 
L 208.002861 51.053929 
L 208.100255 48.926118 
L 208.274803 48.926118 
L 208.378263 47.507576 
L 208.473738 47.507576 
L 208.550263 45.379765 
L 208.628931 45.379765 
L 208.725586 43.251953 
L 208.836311 43.251953 
L 208.933115 41.478776 
L 208.972903 41.478776 
L 209.030625 40.414871 
L 209.086974 40.414871 
L 209.16105 39.7056 
L 209.218199 39.7056 
L 209.218199 39.350965 
L 209.381542 39.350965 
L 209.381542 38.996329 
L 209.494341 38.996329 
L 209.494341 38.641694 
L 209.654152 38.641694 
L 209.752627 36.868518 
L 209.767643 36.868518 
L 209.767643 36.513882 
L 209.904538 36.513882 
L 209.904538 36.159247 
L 210.344091 36.159247 
L 210.344091 35.804612 
L 210.756088 35.804612 
L 210.835888 35.095341 
L 211.025823 35.095341 
L 211.07974 34.031435 
L 211.179616 34.031435 
L 211.179616 33.322165 
L 211.537154 33.322165 
L 211.537154 32.967529 
L 211.674324 32.967529 
L 211.674324 32.612894 
L 211.836377 32.612894 
L 211.836377 32.258259 
L 212.011398 32.258259 
L 212.011398 31.903624 
L 212.175666 31.903624 
L 212.269903 31.194353 
L 212.851124 31.194353 
L 212.948872 30.485082 
L 213.377795 30.485082 
L 213.445334 29.775812 
L 214.25018 29.775812 
L 214.25018 29.421176 
L 214.36356 29.421176 
L 214.36356 29.066541 
L 215.129966 29.066541 
L 215.129966 28.711906 
L 215.637896 28.711906 
L 215.683476 28.002635 
L 216.17687 28.002635 
L 216.17687 27.648 
L 360.8064 27.648 
L 360.8064 27.648 
" style="fill:none;stroke:#ff7500;stroke-linecap:square;stroke-width:1.5;"/>
   </g>
   <g id="line2d_46">
    <defs>
     <path d="M 0 -6 
L -1.347084 -1.854102 
L -5.706339 -1.854102 
L -2.179628 0.708204 
L -3.526712 4.854102 
L -0 2.291796 
L 3.526712 4.854102 
L 2.179628 0.708204 
L 5.706339 -1.854102 
L 1.347084 -1.854102 
z
" id="m0d36d9d434" style="stroke:#ff7500;stroke-linejoin:bevel;stroke-width:1.5;"/>
    </defs>
    <g>
     <use style="fill-opacity:0;stroke:#ff7500;stroke-linejoin:bevel;stroke-width:1.5;" x="134.304809" xlink:href="#m0d36d9d434" y="266.672188"/>
     <use style="fill-opacity:0;stroke:#ff7500;stroke-linejoin:bevel;stroke-width:1.5;" x="177.620009" xlink:href="#m0d36d9d434" y="188.297788"/>
     <use style="fill-opacity:0;stroke:#ff7500;stroke-linejoin:bevel;stroke-width:1.5;" x="210.344091" xlink:href="#m0d36d9d434" y="35.804612"/>
     <use style="fill-opacity:0;stroke:#ff7500;stroke-linejoin:bevel;stroke-width:1.5;" x="216.17687" xlink:href="#m0d36d9d434" y="27.648"/>
     <use style="fill-opacity:0;stroke:#ff7500;stroke-linejoin:bevel;stroke-width:1.5;" x="216.17687" xlink:href="#m0d36d9d434" y="27.648"/>
     <use style="fill-opacity:0;stroke:#ff7500;stroke-linejoin:bevel;stroke-width:1.5;" x="360.8064" xlink:href="#m0d36d9d434" y="27.648"/>
    </g>
   </g>
   <g id="line2d_47">
    <path style="fill:none;stroke:#ff7500;stroke-linecap:square;stroke-width:1.5;"/>
    <g/>
   </g>
   <g id="line2d_48">
    <path clip-path="url(#pc2bca8d988)" d="M 144.380294 262.7712 
" style="fill:none;stroke:#ff7500;stroke-linecap:square;stroke-width:1.5;"/>
    <defs>
     <path d="M -12 12 
L 12 -12 
M -12 -12 
L 12 12 
" id="md2395fde9b" style="stroke:#ff7500;"/>
    </defs>
    <g clip-path="url(#pc2bca8d988)">
     <use style="fill:#ff7500;stroke:#ff7500;" x="144.380294" xlink:href="#md2395fde9b" y="262.7712"/>
    </g>
   </g>
   <g id="line2d_49">
    <path d="M 360.8064 96.801882 
L 380.514816 293.51808 
" style="fill:none;stroke:#000080;stroke-linecap:square;stroke-width:1.5;"/>
    <g>
     <use style="fill-opacity:0;stroke:#000080;stroke-width:1.5;" x="360.8064" xlink:href="#ma9ad489a4e" y="96.801882"/>
     <use style="fill-opacity:0;stroke:#000080;stroke-width:1.5;" x="380.514816" xlink:href="#ma9ad489a4e" y="293.51808"/>
    </g>
   </g>
   <g id="line2d_50">
    <path d="M 360.8064 27.648 
L 380.514816 206.70336 
" style="fill:none;stroke:#ff7500;stroke-linecap:square;stroke-width:1.5;"/>
    <g>
     <use style="fill-opacity:0;stroke:#ff7500;stroke-linejoin:bevel;stroke-width:1.5;" x="360.8064" xlink:href="#m0d36d9d434" y="27.648"/>
     <use style="fill-opacity:0;stroke:#ff7500;stroke-linejoin:bevel;stroke-width:1.5;" x="380.514816" xlink:href="#m0d36d9d434" y="206.70336"/>
    </g>
   </g>
   <g id="line2d_51">
    <path d="M 360.8064 27.648 
L 380.514816 119.88864 
" style="fill:none;stroke:#ff00ff;stroke-linecap:square;stroke-width:1.5;"/>
    <g>
     <use style="fill-opacity:0;stroke:#ff00ff;stroke-linejoin:miter;stroke-width:1.5;" x="360.8064" xlink:href="#m49e8c7f536" y="27.648"/>
     <use style="fill-opacity:0;stroke:#ff00ff;stroke-linejoin:miter;stroke-width:1.5;" x="380.514816" xlink:href="#m49e8c7f536" y="119.88864"/>
    </g>
   </g>
   <g id="line2d_52">
    <path d="M 360.8064 298.944 
L 360.8064 27.648 
" style="fill:none;stroke:#000000;stroke-linecap:square;stroke-width:1.5;"/>
   </g>
   <g id="patch_3">
    <path d="M 57.6 298.944 
L 360.8064 298.944 
" style="fill:none;stroke:#000000;stroke-linecap:square;stroke-linejoin:miter;stroke-width:0.8;"/>
   </g>
   <g id="patch_4">
    <path d="M 57.6 27.648 
L 360.8064 27.648 
" style="fill:none;stroke:#000000;stroke-linecap:square;stroke-linejoin:miter;stroke-width:0.8;"/>
   </g>
   <g id="text_13">
    <!-- different -->
    <g transform="translate(386.578944 297.381205)scale(0.14 -0.14)">
     <use xlink:href="#DejaVuSans-64"/>
     <use x="63.476562" xlink:href="#DejaVuSans-69"/>
     <use x="91.259766" xlink:href="#DejaVuSans-66"/>
     <use x="126.464844" xlink:href="#DejaVuSans-66"/>
     <use x="161.669922" xlink:href="#DejaVuSans-65"/>
     <use x="223.193359" xlink:href="#DejaVuSans-72"/>
     <use x="262.056641" xlink:href="#DejaVuSans-65"/>
     <use x="323.580078" xlink:href="#DejaVuSans-6e"/>
     <use x="386.958984" xlink:href="#DejaVuSans-74"/>
    </g>
   </g>
   <g id="text_14">
    <!-- diffcma b -->
    <g transform="translate(386.578944 210.566485)scale(0.14 -0.14)">
     <defs>
      <path d="M 3116 1747 
Q 3116 2381 2855 2742 
Q 2594 3103 2138 3103 
Q 1681 3103 1420 2742 
Q 1159 2381 1159 1747 
Q 1159 1113 1420 752 
Q 1681 391 2138 391 
Q 2594 391 2855 752 
Q 3116 1113 3116 1747 
z
M 1159 2969 
Q 1341 3281 1617 3432 
Q 1894 3584 2278 3584 
Q 2916 3584 3314 3078 
Q 3713 2572 3713 1747 
Q 3713 922 3314 415 
Q 2916 -91 2278 -91 
Q 1894 -91 1617 61 
Q 1341 213 1159 525 
L 1159 0 
L 581 0 
L 581 4863 
L 1159 4863 
L 1159 2969 
z
" id="DejaVuSans-62" transform="scale(0.015625)"/>
     </defs>
     <use xlink:href="#DejaVuSans-64"/>
     <use x="63.476562" xlink:href="#DejaVuSans-69"/>
     <use x="91.259766" xlink:href="#DejaVuSans-66"/>
     <use x="126.464844" xlink:href="#DejaVuSans-66"/>
     <use x="161.669922" xlink:href="#DejaVuSans-63"/>
     <use x="216.650391" xlink:href="#DejaVuSans-6d"/>
     <use x="314.0625" xlink:href="#DejaVuSans-61"/>
     <use x="375.341797" xlink:href="#DejaVuSans-20"/>
     <use x="407.128906" xlink:href="#DejaVuSans-62"/>
    </g>
   </g>
   <g id="text_15">
    <!-- cma.fmin  -->
    <g transform="translate(386.578944 123.751765)scale(0.14 -0.14)">
     <use xlink:href="#DejaVuSans-63"/>
     <use x="54.980469" xlink:href="#DejaVuSans-6d"/>
     <use x="152.392578" xlink:href="#DejaVuSans-61"/>
     <use x="213.671875" xlink:href="#DejaVuSans-2e"/>
     <use x="245.458984" xlink:href="#DejaVuSans-66"/>
     <use x="280.664062" xlink:href="#DejaVuSans-6d"/>
     <use x="378.076172" xlink:href="#DejaVuSans-69"/>
     <use x="405.859375" xlink:href="#DejaVuSans-6e"/>
     <use x="469.238281" xlink:href="#DejaVuSans-20"/>
    </g>
   </g>
   <g id="text_16">
    <!-- best 2009 -->
    <g transform="translate(386.578944 36.937045)scale(0.14 -0.14)">
     <defs>
      <path d="M 703 97 
L 703 672 
Q 941 559 1184 500 
Q 1428 441 1663 441 
Q 2288 441 2617 861 
Q 2947 1281 2994 2138 
Q 2813 1869 2534 1725 
Q 2256 1581 1919 1581 
Q 1219 1581 811 2004 
Q 403 2428 403 3163 
Q 403 3881 828 4315 
Q 1253 4750 1959 4750 
Q 2769 4750 3195 4129 
Q 3622 3509 3622 2328 
Q 3622 1225 3098 567 
Q 2575 -91 1691 -91 
Q 1453 -91 1209 -44 
Q 966 3 703 97 
z
M 1959 2075 
Q 2384 2075 2632 2365 
Q 2881 2656 2881 3163 
Q 2881 3666 2632 3958 
Q 2384 4250 1959 4250 
Q 1534 4250 1286 3958 
Q 1038 3666 1038 3163 
Q 1038 2656 1286 2365 
Q 1534 2075 1959 2075 
z
" id="DejaVuSans-39" transform="scale(0.015625)"/>
     </defs>
     <use xlink:href="#DejaVuSans-62"/>
     <use x="63.476562" xlink:href="#DejaVuSans-65"/>
     <use x="125" xlink:href="#DejaVuSans-73"/>
     <use x="177.099609" xlink:href="#DejaVuSans-74"/>
     <use x="216.308594" xlink:href="#DejaVuSans-20"/>
     <use x="248.095703" xlink:href="#DejaVuSans-32"/>
     <use x="311.71875" xlink:href="#DejaVuSans-30"/>
     <use x="375.341797" xlink:href="#DejaVuSans-30"/>
     <use x="438.964844" xlink:href="#DejaVuSans-39"/>
    </g>
   </g>
   <g id="text_17">
    <!-- bbob f14, 5-D -->
    <g transform="translate(60.632064 38.111366)scale(0.102 -0.102)">
     <defs>
      <path d="M 691 4666 
L 3169 4666 
L 3169 4134 
L 1269 4134 
L 1269 2991 
Q 1406 3038 1543 3061 
Q 1681 3084 1819 3084 
Q 2600 3084 3056 2656 
Q 3513 2228 3513 1497 
Q 3513 744 3044 326 
Q 2575 -91 1722 -91 
Q 1428 -91 1123 -41 
Q 819 9 494 109 
L 494 744 
Q 775 591 1075 516 
Q 1375 441 1709 441 
Q 2250 441 2565 725 
Q 2881 1009 2881 1497 
Q 2881 1984 2565 2268 
Q 2250 2553 1709 2553 
Q 1456 2553 1204 2497 
Q 953 2441 691 2322 
L 691 4666 
z
" id="DejaVuSans-35" transform="scale(0.015625)"/>
      <path d="M 1259 4147 
L 1259 519 
L 2022 519 
Q 2988 519 3436 956 
Q 3884 1394 3884 2338 
Q 3884 3275 3436 3711 
Q 2988 4147 2022 4147 
L 1259 4147 
z
M 628 4666 
L 1925 4666 
Q 3281 4666 3915 4102 
Q 4550 3538 4550 2338 
Q 4550 1131 3912 565 
Q 3275 0 1925 0 
L 628 0 
L 628 4666 
z
" id="DejaVuSans-44" transform="scale(0.015625)"/>
     </defs>
     <use xlink:href="#DejaVuSans-62"/>
     <use x="63.476562" xlink:href="#DejaVuSans-62"/>
     <use x="126.953125" xlink:href="#DejaVuSans-6f"/>
     <use x="188.134766" xlink:href="#DejaVuSans-62"/>
     <use x="251.611328" xlink:href="#DejaVuSans-20"/>
     <use x="283.398438" xlink:href="#DejaVuSans-66"/>
     <use x="318.603516" xlink:href="#DejaVuSans-31"/>
     <use x="382.226562" xlink:href="#DejaVuSans-34"/>
     <use x="445.849609" xlink:href="#DejaVuSans-2c"/>
     <use x="477.636719" xlink:href="#DejaVuSans-20"/>
     <use x="509.423828" xlink:href="#DejaVuSans-35"/>
     <use x="573.046875" xlink:href="#DejaVuSans-2d"/>
     <use x="609.130859" xlink:href="#DejaVuSans-44"/>
    </g>
    <!-- 51 targets: 100..1e-08 -->
    <g transform="translate(60.632064 49.533135)scale(0.102 -0.102)">
     <defs>
      <path d="M 750 794 
L 1409 794 
L 1409 0 
L 750 0 
L 750 794 
z
M 750 3309 
L 1409 3309 
L 1409 2516 
L 750 2516 
L 750 3309 
z
" id="DejaVuSans-3a" transform="scale(0.015625)"/>
     </defs>
     <use xlink:href="#DejaVuSans-35"/>
     <use x="63.623047" xlink:href="#DejaVuSans-31"/>
     <use x="127.246094" xlink:href="#DejaVuSans-20"/>
     <use x="159.033203" xlink:href="#DejaVuSans-74"/>
     <use x="198.242188" xlink:href="#DejaVuSans-61"/>
     <use x="259.521484" xlink:href="#DejaVuSans-72"/>
     <use x="298.884766" xlink:href="#DejaVuSans-67"/>
     <use x="362.361328" xlink:href="#DejaVuSans-65"/>
     <use x="423.884766" xlink:href="#DejaVuSans-74"/>
     <use x="463.09375" xlink:href="#DejaVuSans-73"/>
     <use x="515.193359" xlink:href="#DejaVuSans-3a"/>
     <use x="548.884766" xlink:href="#DejaVuSans-20"/>
     <use x="580.671875" xlink:href="#DejaVuSans-31"/>
     <use x="644.294922" xlink:href="#DejaVuSans-30"/>
     <use x="707.917969" xlink:href="#DejaVuSans-30"/>
     <use x="771.541016" xlink:href="#DejaVuSans-2e"/>
     <use x="803.328125" xlink:href="#DejaVuSans-2e"/>
     <use x="835.115234" xlink:href="#DejaVuSans-31"/>
     <use x="898.738281" xlink:href="#DejaVuSans-65"/>
     <use x="960.261719" xlink:href="#DejaVuSans-2d"/>
     <use x="996.345703" xlink:href="#DejaVuSans-30"/>
     <use x="1059.96875" xlink:href="#DejaVuSans-38"/>
    </g>
    <!-- 15 instances -->
    <g transform="translate(60.632064 60.954904)scale(0.102 -0.102)">
     <use xlink:href="#DejaVuSans-31"/>
     <use x="63.623047" xlink:href="#DejaVuSans-35"/>
     <use x="127.246094" xlink:href="#DejaVuSans-20"/>
     <use x="159.033203" xlink:href="#DejaVuSans-69"/>
     <use x="186.816406" xlink:href="#DejaVuSans-6e"/>
     <use x="250.195312" xlink:href="#DejaVuSans-73"/>
     <use x="302.294922" xlink:href="#DejaVuSans-74"/>
     <use x="341.503906" xlink:href="#DejaVuSans-61"/>
     <use x="402.783203" xlink:href="#DejaVuSans-6e"/>
     <use x="466.162109" xlink:href="#DejaVuSans-63"/>
     <use x="521.142578" xlink:href="#DejaVuSans-65"/>
     <use x="582.666016" xlink:href="#DejaVuSans-73"/>
    </g>
   </g>
   <g id="text_18">
    <!-- v2.6 -->
    <g style="fill:#808080;" transform="translate(198.292262 294.151352)scale(0.1 -0.1)">
     <use xlink:href="#DejaVuSans-76"/>
     <use x="59.179688" xlink:href="#DejaVuSans-32"/>
     <use x="122.802734" xlink:href="#DejaVuSans-2e"/>
     <use x="154.589844" xlink:href="#DejaVuSans-36"/>
    </g>
   </g>
   <g id="text_19">
    <!-- 14 Sum of different powers -->
    <g transform="translate(72.964137 21.648)scale(0.2 -0.2)">
     <defs>
      <path d="M 3425 4513 
L 3425 3897 
Q 3066 4069 2747 4153 
Q 2428 4238 2131 4238 
Q 1616 4238 1336 4038 
Q 1056 3838 1056 3469 
Q 1056 3159 1242 3001 
Q 1428 2844 1947 2747 
L 2328 2669 
Q 3034 2534 3370 2195 
Q 3706 1856 3706 1288 
Q 3706 609 3251 259 
Q 2797 -91 1919 -91 
Q 1588 -91 1214 -16 
Q 841 59 441 206 
L 441 856 
Q 825 641 1194 531 
Q 1563 422 1919 422 
Q 2459 422 2753 634 
Q 3047 847 3047 1241 
Q 3047 1584 2836 1778 
Q 2625 1972 2144 2069 
L 1759 2144 
Q 1053 2284 737 2584 
Q 422 2884 422 3419 
Q 422 4038 858 4394 
Q 1294 4750 2059 4750 
Q 2388 4750 2728 4690 
Q 3069 4631 3425 4513 
z
" id="DejaVuSans-53" transform="scale(0.015625)"/>
      <path d="M 269 3500 
L 844 3500 
L 1563 769 
L 2278 3500 
L 2956 3500 
L 3675 769 
L 4391 3500 
L 4966 3500 
L 4050 0 
L 3372 0 
L 2619 2869 
L 1863 0 
L 1184 0 
L 269 3500 
z
" id="DejaVuSans-77" transform="scale(0.015625)"/>
     </defs>
     <use xlink:href="#DejaVuSans-31"/>
     <use x="63.623047" xlink:href="#DejaVuSans-34"/>
     <use x="127.246094" xlink:href="#DejaVuSans-20"/>
     <use x="159.033203" xlink:href="#DejaVuSans-53"/>
     <use x="222.509766" xlink:href="#DejaVuSans-75"/>
     <use x="285.888672" xlink:href="#DejaVuSans-6d"/>
     <use x="383.300781" xlink:href="#DejaVuSans-20"/>
     <use x="415.087891" xlink:href="#DejaVuSans-6f"/>
     <use x="476.269531" xlink:href="#DejaVuSans-66"/>
     <use x="511.474609" xlink:href="#DejaVuSans-20"/>
     <use x="543.261719" xlink:href="#DejaVuSans-64"/>
     <use x="606.738281" xlink:href="#DejaVuSans-69"/>
     <use x="634.521484" xlink:href="#DejaVuSans-66"/>
     <use x="669.726562" xlink:href="#DejaVuSans-66"/>
     <use x="704.931641" xlink:href="#DejaVuSans-65"/>
     <use x="766.455078" xlink:href="#DejaVuSans-72"/>
     <use x="805.318359" xlink:href="#DejaVuSans-65"/>
     <use x="866.841797" xlink:href="#DejaVuSans-6e"/>
     <use x="930.220703" xlink:href="#DejaVuSans-74"/>
     <use x="969.429688" xlink:href="#DejaVuSans-20"/>
     <use x="1001.216797" xlink:href="#DejaVuSans-70"/>
     <use x="1064.693359" xlink:href="#DejaVuSans-6f"/>
     <use x="1125.875" xlink:href="#DejaVuSans-77"/>
     <use x="1207.662109" xlink:href="#DejaVuSans-65"/>
     <use x="1269.185547" xlink:href="#DejaVuSans-72"/>
     <use x="1310.298828" xlink:href="#DejaVuSans-73"/>
    </g>
   </g>
  </g>
 </g>
 <defs>
  <clipPath id="pc2bca8d988">
   <rect height="271.296" width="303.2064" x="57.6" y="27.648"/>
  </clipPath>
 </defs>
</svg>
