<?xml version="1.0" encoding="utf-8" standalone="no"?>
<!DOCTYPE svg PUBLIC "-//W3C//DTD SVG 1.1//EN"
  "http://www.w3.org/Graphics/SVG/1.1/DTD/svg11.dtd">
<svg height="345.6pt" version="1.1" viewBox="0 0 460.8 345.6" width="460.8pt" xmlns="http://www.w3.org/2000/svg" xmlns:xlink="http://www.w3.org/1999/xlink">
 <metadata>
  <rdf:RDF xmlns:cc="http://creativecommons.org/ns#" xmlns:dc="http://purl.org/dc/elements/1.1/" xmlns:rdf="http://www.w3.org/1999/02/22-rdf-syntax-ns#">
   <cc:Work>
    <dc:type rdf:resource="http://purl.org/dc/dcmitype/StillImage"/>
    <dc:date>2022-05-07T21:25:39.995409</dc:date>
    <dc:format>image/svg+xml</dc:format>
    <dc:creator>
     <cc:Agent>
      <dc:title>Matplotlib v3.4.3, https://matplotlib.org/</dc:title>
     </cc:Agent>
    </dc:creator>
   </cc:Work>
  </rdf:RDF>
 </metadata>
 <defs>
  <style type="text/css">*{stroke-linecap:butt;stroke-linejoin:round;}</style>
 </defs>
 <g id="figure_1">
  <g id="patch_1">
   <path d="M 0 345.6 
L 460.8 345.6 
L 460.8 0 
L 0 0 
z
" style="fill:#ffffff;"/>
  </g>
  <g id="axes_1">
   <g id="patch_2">
    <path d="M 57.6 298.944 
L 360.8064 298.944 
L 360.8064 27.648 
L 57.6 27.648 
z
" style="fill:#ffffff;"/>
   </g>
   <g id="line2d_1">
    <path d="M 44.560826 298.944 
L 44.560826 277.665882 
L 57.6 277.665882 
L 57.6 272.346353 
L 65.227428 272.346353 
L 65.227428 267.026824 
L 78.266603 267.026824 
L 78.266603 261.707294 
L 87.876026 261.707294 
L 87.876026 256.387765 
L 107.244765 256.387765 
L 107.244765 251.068235 
L 114.418881 251.068235 
L 114.418881 245.748706 
L 121.892744 245.748706 
L 121.892744 235.109647 
L 127.227236 235.109647 
L 127.227236 229.790118 
L 129.622688 229.790118 
L 129.622688 224.470588 
L 134.463557 224.470588 
L 134.463557 219.151059 
L 136.555884 219.151059 
L 136.555884 208.512 
L 140.725251 208.512 
L 140.725251 203.192471 
L 144.602918 203.192471 
L 144.602918 197.872941 
L 148.800595 197.872941 
L 148.800595 192.553412 
L 150.221009 192.553412 
L 150.221009 187.233882 
L 153.071898 187.233882 
L 153.071898 181.914353 
L 153.536404 181.914353 
L 153.536404 176.594824 
L 155.13016 176.594824 
L 155.13016 171.275294 
L 155.701037 171.275294 
L 155.701037 165.955765 
L 157.080512 165.955765 
L 157.080512 160.636235 
L 160.142495 160.636235 
L 160.142495 155.316706 
L 162.704821 155.316706 
L 162.704821 149.997176 
L 165.422585 149.997176 
L 165.422585 144.677647 
L 168.816733 144.677647 
L 168.816733 139.358118 
L 168.943582 139.358118 
L 168.943582 134.038588 
L 171.136775 134.038588 
L 171.136775 128.719059 
L 171.248949 128.719059 
L 171.248949 123.399529 
L 175.620293 123.399529 
L 175.620293 118.08 
L 175.761601 118.08 
L 175.761601 112.760471 
L 176.058402 112.760471 
L 176.058402 107.440941 
L 176.520373 107.440941 
L 176.520373 102.121412 
L 177.233457 102.121412 
L 177.233457 96.801882 
L 181.457152 96.801882 
L 181.457152 91.482353 
L 181.522042 91.482353 
L 181.522042 86.162824 
L 181.855908 86.162824 
L 181.855908 80.843294 
L 182.345852 80.843294 
L 182.345852 75.523765 
L 183.063612 75.523765 
L 183.063612 70.204235 
L 183.546742 70.204235 
L 183.546742 64.884706 
L 183.743481 64.884706 
L 183.743481 59.565176 
L 184.006424 59.565176 
L 184.006424 54.245647 
L 184.288124 54.245647 
L 184.288124 48.926118 
L 185.279294 48.926118 
L 185.279294 43.606588 
L 185.553151 43.606588 
L 185.553151 38.287059 
L 185.73008 38.287059 
L 185.73008 32.967529 
L 185.884824 32.967529 
L 185.884824 27.648 
L 360.8064 27.648 
" style="fill:none;stroke:#f5deb3;stroke-linecap:square;stroke-width:4;"/>
   </g>
   <g id="line2d_2">
    <defs>
     <path d="M -0 7.778175 
L 7.778175 0 
L 0 -7.778175 
L -7.778175 -0 
z
" id="m5db110a650" style="stroke:#f5deb3;stroke-linejoin:miter;stroke-width:1.5;"/>
    </defs>
    <g>
     <use style="fill:#f5deb3;stroke:#f5deb3;stroke-linejoin:miter;stroke-width:1.5;" x="78.266603" xlink:href="#m5db110a650" y="261.707294"/>
     <use style="fill:#f5deb3;stroke:#f5deb3;stroke-linejoin:miter;stroke-width:1.5;" x="153.536404" xlink:href="#m5db110a650" y="176.594824"/>
     <use style="fill:#f5deb3;stroke:#f5deb3;stroke-linejoin:miter;stroke-width:1.5;" x="181.855908" xlink:href="#m5db110a650" y="80.843294"/>
     <use style="fill:#f5deb3;stroke:#f5deb3;stroke-linejoin:miter;stroke-width:1.5;" x="185.884824" xlink:href="#m5db110a650" y="32.967529"/>
     <use style="fill:#f5deb3;stroke:#f5deb3;stroke-linejoin:miter;stroke-width:1.5;" x="185.884824" xlink:href="#m5db110a650" y="27.648"/>
     <use style="fill:#f5deb3;stroke:#f5deb3;stroke-linejoin:miter;stroke-width:1.5;" x="360.8064" xlink:href="#m5db110a650" y="27.648"/>
    </g>
   </g>
   <g id="line2d_3">
    <path style="fill:none;stroke:#f5deb3;stroke-linecap:square;stroke-width:4;"/>
    <g/>
   </g>
   <g id="line2d_4">
    <path d="M 360.8064 27.648 
L 380.514816 33.07392 
" style="fill:none;stroke:#f5deb3;stroke-linecap:square;stroke-width:4;"/>
    <g>
     <use style="fill:#f5deb3;stroke:#f5deb3;stroke-linejoin:miter;stroke-width:1.5;" x="360.8064" xlink:href="#m5db110a650" y="27.648"/>
     <use style="fill:#f5deb3;stroke:#f5deb3;stroke-linejoin:miter;stroke-width:1.5;" x="380.514816" xlink:href="#m5db110a650" y="33.07392"/>
    </g>
   </g>
   <g id="matplotlib.axis_1">
    <g id="xtick_1">
     <g id="line2d_5">
      <path clip-path="url(#p8333d0476a)" d="M 57.6 298.944 
L 57.6 27.648 
" style="fill:none;stroke:#b0b0b0;stroke-linecap:square;stroke-width:0.8;"/>
     </g>
     <g id="line2d_6">
      <defs>
       <path d="M 0 0 
L 0 3.5 
" id="mc9a6825024" style="stroke:#000000;stroke-width:0.8;"/>
      </defs>
      <g>
       <use style="stroke:#000000;stroke-width:0.8;" x="57.6" xlink:href="#mc9a6825024" y="298.944"/>
      </g>
     </g>
     <g id="text_1">
      <!-- 0 -->
      <g transform="translate(52.191875 318.861344)scale(0.17 -0.17)">
       <defs>
        <path d="M 2034 4250 
Q 1547 4250 1301 3770 
Q 1056 3291 1056 2328 
Q 1056 1369 1301 889 
Q 1547 409 2034 409 
Q 2525 409 2770 889 
Q 3016 1369 3016 2328 
Q 3016 3291 2770 3770 
Q 2525 4250 2034 4250 
z
M 2034 4750 
Q 2819 4750 3233 4129 
Q 3647 3509 3647 2328 
Q 3647 1150 3233 529 
Q 2819 -91 2034 -91 
Q 1250 -91 836 529 
Q 422 1150 422 2328 
Q 422 3509 836 4129 
Q 1250 4750 2034 4750 
z
" id="DejaVuSans-30" transform="scale(0.015625)"/>
       </defs>
       <use xlink:href="#DejaVuSans-30"/>
      </g>
     </g>
    </g>
    <g id="xtick_2">
     <g id="line2d_7">
      <path clip-path="url(#p8333d0476a)" d="M 144.2304 298.944 
L 144.2304 27.648 
" style="fill:none;stroke:#b0b0b0;stroke-linecap:square;stroke-width:0.8;"/>
     </g>
     <g id="line2d_8">
      <g>
       <use style="stroke:#000000;stroke-width:0.8;" x="144.2304" xlink:href="#mc9a6825024" y="298.944"/>
      </g>
     </g>
     <g id="text_2">
      <!-- 2 -->
      <g transform="translate(138.822275 318.861344)scale(0.17 -0.17)">
       <defs>
        <path d="M 1228 531 
L 3431 531 
L 3431 0 
L 469 0 
L 469 531 
Q 828 903 1448 1529 
Q 2069 2156 2228 2338 
Q 2531 2678 2651 2914 
Q 2772 3150 2772 3378 
Q 2772 3750 2511 3984 
Q 2250 4219 1831 4219 
Q 1534 4219 1204 4116 
Q 875 4013 500 3803 
L 500 4441 
Q 881 4594 1212 4672 
Q 1544 4750 1819 4750 
Q 2544 4750 2975 4387 
Q 3406 4025 3406 3419 
Q 3406 3131 3298 2873 
Q 3191 2616 2906 2266 
Q 2828 2175 2409 1742 
Q 1991 1309 1228 531 
z
" id="DejaVuSans-32" transform="scale(0.015625)"/>
       </defs>
       <use xlink:href="#DejaVuSans-32"/>
      </g>
     </g>
    </g>
    <g id="xtick_3">
     <g id="line2d_9">
      <path clip-path="url(#p8333d0476a)" d="M 230.8608 298.944 
L 230.8608 27.648 
" style="fill:none;stroke:#b0b0b0;stroke-linecap:square;stroke-width:0.8;"/>
     </g>
     <g id="line2d_10">
      <g>
       <use style="stroke:#000000;stroke-width:0.8;" x="230.8608" xlink:href="#mc9a6825024" y="298.944"/>
      </g>
     </g>
     <g id="text_3">
      <!-- 4 -->
      <g transform="translate(225.452675 318.861344)scale(0.17 -0.17)">
       <defs>
        <path d="M 2419 4116 
L 825 1625 
L 2419 1625 
L 2419 4116 
z
M 2253 4666 
L 3047 4666 
L 3047 1625 
L 3713 1625 
L 3713 1100 
L 3047 1100 
L 3047 0 
L 2419 0 
L 2419 1100 
L 313 1100 
L 313 1709 
L 2253 4666 
z
" id="DejaVuSans-34" transform="scale(0.015625)"/>
       </defs>
       <use xlink:href="#DejaVuSans-34"/>
      </g>
     </g>
    </g>
    <g id="xtick_4">
     <g id="line2d_11">
      <path clip-path="url(#p8333d0476a)" d="M 317.4912 298.944 
L 317.4912 27.648 
" style="fill:none;stroke:#b0b0b0;stroke-linecap:square;stroke-width:0.8;"/>
     </g>
     <g id="line2d_12">
      <g>
       <use style="stroke:#000000;stroke-width:0.8;" x="317.4912" xlink:href="#mc9a6825024" y="298.944"/>
      </g>
     </g>
     <g id="text_4">
      <!-- 6 -->
      <g transform="translate(312.083075 318.861344)scale(0.17 -0.17)">
       <defs>
        <path d="M 2113 2584 
Q 1688 2584 1439 2293 
Q 1191 2003 1191 1497 
Q 1191 994 1439 701 
Q 1688 409 2113 409 
Q 2538 409 2786 701 
Q 3034 994 3034 1497 
Q 3034 2003 2786 2293 
Q 2538 2584 2113 2584 
z
M 3366 4563 
L 3366 3988 
Q 3128 4100 2886 4159 
Q 2644 4219 2406 4219 
Q 1781 4219 1451 3797 
Q 1122 3375 1075 2522 
Q 1259 2794 1537 2939 
Q 1816 3084 2150 3084 
Q 2853 3084 3261 2657 
Q 3669 2231 3669 1497 
Q 3669 778 3244 343 
Q 2819 -91 2113 -91 
Q 1303 -91 875 529 
Q 447 1150 447 2328 
Q 447 3434 972 4092 
Q 1497 4750 2381 4750 
Q 2619 4750 2861 4703 
Q 3103 4656 3366 4563 
z
" id="DejaVuSans-36" transform="scale(0.015625)"/>
       </defs>
       <use xlink:href="#DejaVuSans-36"/>
      </g>
     </g>
    </g>
    <g id="xtick_5">
     <g id="line2d_13">
      <path clip-path="url(#p8333d0476a)" d="M 100.9152 298.944 
L 100.9152 27.648 
" style="fill:none;stroke:#b0b0b0;stroke-linecap:square;stroke-width:0.8;"/>
     </g>
     <g id="line2d_14">
      <defs>
       <path d="M 0 0 
L 0 2 
" id="m0bb738486f" style="stroke:#000000;stroke-width:0.6;"/>
      </defs>
      <g>
       <use style="stroke:#000000;stroke-width:0.6;" x="100.9152" xlink:href="#m0bb738486f" y="298.944"/>
      </g>
     </g>
    </g>
    <g id="xtick_6">
     <g id="line2d_15">
      <path clip-path="url(#p8333d0476a)" d="M 187.5456 298.944 
L 187.5456 27.648 
" style="fill:none;stroke:#b0b0b0;stroke-linecap:square;stroke-width:0.8;"/>
     </g>
     <g id="line2d_16">
      <g>
       <use style="stroke:#000000;stroke-width:0.6;" x="187.5456" xlink:href="#m0bb738486f" y="298.944"/>
      </g>
     </g>
    </g>
    <g id="xtick_7">
     <g id="line2d_17">
      <path clip-path="url(#p8333d0476a)" d="M 274.176 298.944 
L 274.176 27.648 
" style="fill:none;stroke:#b0b0b0;stroke-linecap:square;stroke-width:0.8;"/>
     </g>
     <g id="line2d_18">
      <g>
       <use style="stroke:#000000;stroke-width:0.6;" x="274.176" xlink:href="#m0bb738486f" y="298.944"/>
      </g>
     </g>
    </g>
    <g id="xtick_8">
     <g id="line2d_19">
      <path clip-path="url(#p8333d0476a)" d="M 360.8064 298.944 
L 360.8064 27.648 
" style="fill:none;stroke:#b0b0b0;stroke-linecap:square;stroke-width:0.8;"/>
     </g>
     <g id="line2d_20">
      <g>
       <use style="stroke:#000000;stroke-width:0.6;" x="360.8064" xlink:href="#m0bb738486f" y="298.944"/>
      </g>
     </g>
    </g>
    <g id="text_5">
     <!-- log10(# f-evals / dimension) -->
     <g transform="translate(88.823278 339.314156)scale(0.17 -0.17)">
      <defs>
       <path d="M 603 4863 
L 1178 4863 
L 1178 0 
L 603 0 
L 603 4863 
z
" id="DejaVuSans-6c" transform="scale(0.015625)"/>
       <path d="M 1959 3097 
Q 1497 3097 1228 2736 
Q 959 2375 959 1747 
Q 959 1119 1226 758 
Q 1494 397 1959 397 
Q 2419 397 2687 759 
Q 2956 1122 2956 1747 
Q 2956 2369 2687 2733 
Q 2419 3097 1959 3097 
z
M 1959 3584 
Q 2709 3584 3137 3096 
Q 3566 2609 3566 1747 
Q 3566 888 3137 398 
Q 2709 -91 1959 -91 
Q 1206 -91 779 398 
Q 353 888 353 1747 
Q 353 2609 779 3096 
Q 1206 3584 1959 3584 
z
" id="DejaVuSans-6f" transform="scale(0.015625)"/>
       <path d="M 2906 1791 
Q 2906 2416 2648 2759 
Q 2391 3103 1925 3103 
Q 1463 3103 1205 2759 
Q 947 2416 947 1791 
Q 947 1169 1205 825 
Q 1463 481 1925 481 
Q 2391 481 2648 825 
Q 2906 1169 2906 1791 
z
M 3481 434 
Q 3481 -459 3084 -895 
Q 2688 -1331 1869 -1331 
Q 1566 -1331 1297 -1286 
Q 1028 -1241 775 -1147 
L 775 -588 
Q 1028 -725 1275 -790 
Q 1522 -856 1778 -856 
Q 2344 -856 2625 -561 
Q 2906 -266 2906 331 
L 2906 616 
Q 2728 306 2450 153 
Q 2172 0 1784 0 
Q 1141 0 747 490 
Q 353 981 353 1791 
Q 353 2603 747 3093 
Q 1141 3584 1784 3584 
Q 2172 3584 2450 3431 
Q 2728 3278 2906 2969 
L 2906 3500 
L 3481 3500 
L 3481 434 
z
" id="DejaVuSans-67" transform="scale(0.015625)"/>
       <path d="M 794 531 
L 1825 531 
L 1825 4091 
L 703 3866 
L 703 4441 
L 1819 4666 
L 2450 4666 
L 2450 531 
L 3481 531 
L 3481 0 
L 794 0 
L 794 531 
z
" id="DejaVuSans-31" transform="scale(0.015625)"/>
       <path d="M 1984 4856 
Q 1566 4138 1362 3434 
Q 1159 2731 1159 2009 
Q 1159 1288 1364 580 
Q 1569 -128 1984 -844 
L 1484 -844 
Q 1016 -109 783 600 
Q 550 1309 550 2009 
Q 550 2706 781 3412 
Q 1013 4119 1484 4856 
L 1984 4856 
z
" id="DejaVuSans-28" transform="scale(0.015625)"/>
       <path d="M 3272 2816 
L 2363 2816 
L 2100 1772 
L 3016 1772 
L 3272 2816 
z
M 2803 4594 
L 2478 3297 
L 3391 3297 
L 3719 4594 
L 4219 4594 
L 3897 3297 
L 4872 3297 
L 4872 2816 
L 3775 2816 
L 3519 1772 
L 4513 1772 
L 4513 1294 
L 3397 1294 
L 3072 0 
L 2572 0 
L 2894 1294 
L 1978 1294 
L 1656 0 
L 1153 0 
L 1478 1294 
L 494 1294 
L 494 1772 
L 1594 1772 
L 1856 2816 
L 850 2816 
L 850 3297 
L 1978 3297 
L 2297 4594 
L 2803 4594 
z
" id="DejaVuSans-23" transform="scale(0.015625)"/>
       <path id="DejaVuSans-20" transform="scale(0.015625)"/>
       <path d="M 2375 4863 
L 2375 4384 
L 1825 4384 
Q 1516 4384 1395 4259 
Q 1275 4134 1275 3809 
L 1275 3500 
L 2222 3500 
L 2222 3053 
L 1275 3053 
L 1275 0 
L 697 0 
L 697 3053 
L 147 3053 
L 147 3500 
L 697 3500 
L 697 3744 
Q 697 4328 969 4595 
Q 1241 4863 1831 4863 
L 2375 4863 
z
" id="DejaVuSans-66" transform="scale(0.015625)"/>
       <path d="M 313 2009 
L 1997 2009 
L 1997 1497 
L 313 1497 
L 313 2009 
z
" id="DejaVuSans-2d" transform="scale(0.015625)"/>
       <path d="M 3597 1894 
L 3597 1613 
L 953 1613 
Q 991 1019 1311 708 
Q 1631 397 2203 397 
Q 2534 397 2845 478 
Q 3156 559 3463 722 
L 3463 178 
Q 3153 47 2828 -22 
Q 2503 -91 2169 -91 
Q 1331 -91 842 396 
Q 353 884 353 1716 
Q 353 2575 817 3079 
Q 1281 3584 2069 3584 
Q 2775 3584 3186 3129 
Q 3597 2675 3597 1894 
z
M 3022 2063 
Q 3016 2534 2758 2815 
Q 2500 3097 2075 3097 
Q 1594 3097 1305 2825 
Q 1016 2553 972 2059 
L 3022 2063 
z
" id="DejaVuSans-65" transform="scale(0.015625)"/>
       <path d="M 191 3500 
L 800 3500 
L 1894 563 
L 2988 3500 
L 3597 3500 
L 2284 0 
L 1503 0 
L 191 3500 
z
" id="DejaVuSans-76" transform="scale(0.015625)"/>
       <path d="M 2194 1759 
Q 1497 1759 1228 1600 
Q 959 1441 959 1056 
Q 959 750 1161 570 
Q 1363 391 1709 391 
Q 2188 391 2477 730 
Q 2766 1069 2766 1631 
L 2766 1759 
L 2194 1759 
z
M 3341 1997 
L 3341 0 
L 2766 0 
L 2766 531 
Q 2569 213 2275 61 
Q 1981 -91 1556 -91 
Q 1019 -91 701 211 
Q 384 513 384 1019 
Q 384 1609 779 1909 
Q 1175 2209 1959 2209 
L 2766 2209 
L 2766 2266 
Q 2766 2663 2505 2880 
Q 2244 3097 1772 3097 
Q 1472 3097 1187 3025 
Q 903 2953 641 2809 
L 641 3341 
Q 956 3463 1253 3523 
Q 1550 3584 1831 3584 
Q 2591 3584 2966 3190 
Q 3341 2797 3341 1997 
z
" id="DejaVuSans-61" transform="scale(0.015625)"/>
       <path d="M 2834 3397 
L 2834 2853 
Q 2591 2978 2328 3040 
Q 2066 3103 1784 3103 
Q 1356 3103 1142 2972 
Q 928 2841 928 2578 
Q 928 2378 1081 2264 
Q 1234 2150 1697 2047 
L 1894 2003 
Q 2506 1872 2764 1633 
Q 3022 1394 3022 966 
Q 3022 478 2636 193 
Q 2250 -91 1575 -91 
Q 1294 -91 989 -36 
Q 684 19 347 128 
L 347 722 
Q 666 556 975 473 
Q 1284 391 1588 391 
Q 1994 391 2212 530 
Q 2431 669 2431 922 
Q 2431 1156 2273 1281 
Q 2116 1406 1581 1522 
L 1381 1569 
Q 847 1681 609 1914 
Q 372 2147 372 2553 
Q 372 3047 722 3315 
Q 1072 3584 1716 3584 
Q 2034 3584 2315 3537 
Q 2597 3491 2834 3397 
z
" id="DejaVuSans-73" transform="scale(0.015625)"/>
       <path d="M 1625 4666 
L 2156 4666 
L 531 -594 
L 0 -594 
L 1625 4666 
z
" id="DejaVuSans-2f" transform="scale(0.015625)"/>
       <path d="M 2906 2969 
L 2906 4863 
L 3481 4863 
L 3481 0 
L 2906 0 
L 2906 525 
Q 2725 213 2448 61 
Q 2172 -91 1784 -91 
Q 1150 -91 751 415 
Q 353 922 353 1747 
Q 353 2572 751 3078 
Q 1150 3584 1784 3584 
Q 2172 3584 2448 3432 
Q 2725 3281 2906 2969 
z
M 947 1747 
Q 947 1113 1208 752 
Q 1469 391 1925 391 
Q 2381 391 2643 752 
Q 2906 1113 2906 1747 
Q 2906 2381 2643 2742 
Q 2381 3103 1925 3103 
Q 1469 3103 1208 2742 
Q 947 2381 947 1747 
z
" id="DejaVuSans-64" transform="scale(0.015625)"/>
       <path d="M 603 3500 
L 1178 3500 
L 1178 0 
L 603 0 
L 603 3500 
z
M 603 4863 
L 1178 4863 
L 1178 4134 
L 603 4134 
L 603 4863 
z
" id="DejaVuSans-69" transform="scale(0.015625)"/>
       <path d="M 3328 2828 
Q 3544 3216 3844 3400 
Q 4144 3584 4550 3584 
Q 5097 3584 5394 3201 
Q 5691 2819 5691 2113 
L 5691 0 
L 5113 0 
L 5113 2094 
Q 5113 2597 4934 2840 
Q 4756 3084 4391 3084 
Q 3944 3084 3684 2787 
Q 3425 2491 3425 1978 
L 3425 0 
L 2847 0 
L 2847 2094 
Q 2847 2600 2669 2842 
Q 2491 3084 2119 3084 
Q 1678 3084 1418 2786 
Q 1159 2488 1159 1978 
L 1159 0 
L 581 0 
L 581 3500 
L 1159 3500 
L 1159 2956 
Q 1356 3278 1631 3431 
Q 1906 3584 2284 3584 
Q 2666 3584 2933 3390 
Q 3200 3197 3328 2828 
z
" id="DejaVuSans-6d" transform="scale(0.015625)"/>
       <path d="M 3513 2113 
L 3513 0 
L 2938 0 
L 2938 2094 
Q 2938 2591 2744 2837 
Q 2550 3084 2163 3084 
Q 1697 3084 1428 2787 
Q 1159 2491 1159 1978 
L 1159 0 
L 581 0 
L 581 3500 
L 1159 3500 
L 1159 2956 
Q 1366 3272 1645 3428 
Q 1925 3584 2291 3584 
Q 2894 3584 3203 3211 
Q 3513 2838 3513 2113 
z
" id="DejaVuSans-6e" transform="scale(0.015625)"/>
       <path d="M 513 4856 
L 1013 4856 
Q 1481 4119 1714 3412 
Q 1947 2706 1947 2009 
Q 1947 1309 1714 600 
Q 1481 -109 1013 -844 
L 513 -844 
Q 928 -128 1133 580 
Q 1338 1288 1338 2009 
Q 1338 2731 1133 3434 
Q 928 4138 513 4856 
z
" id="DejaVuSans-29" transform="scale(0.015625)"/>
      </defs>
      <use xlink:href="#DejaVuSans-6c"/>
      <use x="27.783203" xlink:href="#DejaVuSans-6f"/>
      <use x="88.964844" xlink:href="#DejaVuSans-67"/>
      <use x="152.441406" xlink:href="#DejaVuSans-31"/>
      <use x="216.064453" xlink:href="#DejaVuSans-30"/>
      <use x="279.6875" xlink:href="#DejaVuSans-28"/>
      <use x="318.701172" xlink:href="#DejaVuSans-23"/>
      <use x="402.490234" xlink:href="#DejaVuSans-20"/>
      <use x="434.277344" xlink:href="#DejaVuSans-66"/>
      <use x="463.982422" xlink:href="#DejaVuSans-2d"/>
      <use x="500.066406" xlink:href="#DejaVuSans-65"/>
      <use x="561.589844" xlink:href="#DejaVuSans-76"/>
      <use x="620.769531" xlink:href="#DejaVuSans-61"/>
      <use x="682.048828" xlink:href="#DejaVuSans-6c"/>
      <use x="709.832031" xlink:href="#DejaVuSans-73"/>
      <use x="761.931641" xlink:href="#DejaVuSans-20"/>
      <use x="793.71875" xlink:href="#DejaVuSans-2f"/>
      <use x="827.410156" xlink:href="#DejaVuSans-20"/>
      <use x="859.197266" xlink:href="#DejaVuSans-64"/>
      <use x="922.673828" xlink:href="#DejaVuSans-69"/>
      <use x="950.457031" xlink:href="#DejaVuSans-6d"/>
      <use x="1047.869141" xlink:href="#DejaVuSans-65"/>
      <use x="1109.392578" xlink:href="#DejaVuSans-6e"/>
      <use x="1172.771484" xlink:href="#DejaVuSans-73"/>
      <use x="1224.871094" xlink:href="#DejaVuSans-69"/>
      <use x="1252.654297" xlink:href="#DejaVuSans-6f"/>
      <use x="1313.835938" xlink:href="#DejaVuSans-6e"/>
      <use x="1377.214844" xlink:href="#DejaVuSans-29"/>
     </g>
    </g>
   </g>
   <g id="matplotlib.axis_2">
    <g id="ytick_1">
     <g id="line2d_21">
      <path clip-path="url(#p8333d0476a)" d="M 57.6 298.944 
L 360.8064 298.944 
" style="fill:none;stroke:#b0b0b0;stroke-linecap:square;stroke-width:0.8;"/>
     </g>
     <g id="line2d_22">
      <defs>
       <path d="M 0 0 
L -3.5 0 
" id="m0d6752f111" style="stroke:#000000;stroke-width:0.8;"/>
      </defs>
      <g>
       <use style="stroke:#000000;stroke-width:0.8;" x="57.6" xlink:href="#m0d6752f111" y="298.944"/>
      </g>
     </g>
     <g id="text_6">
      <!-- 0.0 -->
      <g transform="translate(25.155 305.02275)scale(0.16 -0.16)">
       <defs>
        <path d="M 684 794 
L 1344 794 
L 1344 0 
L 684 0 
L 684 794 
z
" id="DejaVuSans-2e" transform="scale(0.015625)"/>
       </defs>
       <use xlink:href="#DejaVuSans-30"/>
       <use x="63.623047" xlink:href="#DejaVuSans-2e"/>
       <use x="95.410156" xlink:href="#DejaVuSans-30"/>
      </g>
     </g>
    </g>
    <g id="ytick_2">
     <g id="line2d_23">
      <path clip-path="url(#p8333d0476a)" d="M 57.6 244.6848 
L 360.8064 244.6848 
" style="fill:none;stroke:#b0b0b0;stroke-linecap:square;stroke-width:0.8;"/>
     </g>
     <g id="line2d_24">
      <g>
       <use style="stroke:#000000;stroke-width:0.8;" x="57.6" xlink:href="#m0d6752f111" y="244.6848"/>
      </g>
     </g>
     <g id="text_7">
      <!-- 0.2 -->
      <g transform="translate(25.155 250.76355)scale(0.16 -0.16)">
       <use xlink:href="#DejaVuSans-30"/>
       <use x="63.623047" xlink:href="#DejaVuSans-2e"/>
       <use x="95.410156" xlink:href="#DejaVuSans-32"/>
      </g>
     </g>
    </g>
    <g id="ytick_3">
     <g id="line2d_25">
      <path clip-path="url(#p8333d0476a)" d="M 57.6 190.4256 
L 360.8064 190.4256 
" style="fill:none;stroke:#b0b0b0;stroke-linecap:square;stroke-width:0.8;"/>
     </g>
     <g id="line2d_26">
      <g>
       <use style="stroke:#000000;stroke-width:0.8;" x="57.6" xlink:href="#m0d6752f111" y="190.4256"/>
      </g>
     </g>
     <g id="text_8">
      <!-- 0.4 -->
      <g transform="translate(25.155 196.50435)scale(0.16 -0.16)">
       <use xlink:href="#DejaVuSans-30"/>
       <use x="63.623047" xlink:href="#DejaVuSans-2e"/>
       <use x="95.410156" xlink:href="#DejaVuSans-34"/>
      </g>
     </g>
    </g>
    <g id="ytick_4">
     <g id="line2d_27">
      <path clip-path="url(#p8333d0476a)" d="M 57.6 136.1664 
L 360.8064 136.1664 
" style="fill:none;stroke:#b0b0b0;stroke-linecap:square;stroke-width:0.8;"/>
     </g>
     <g id="line2d_28">
      <g>
       <use style="stroke:#000000;stroke-width:0.8;" x="57.6" xlink:href="#m0d6752f111" y="136.1664"/>
      </g>
     </g>
     <g id="text_9">
      <!-- 0.6 -->
      <g transform="translate(25.155 142.24515)scale(0.16 -0.16)">
       <use xlink:href="#DejaVuSans-30"/>
       <use x="63.623047" xlink:href="#DejaVuSans-2e"/>
       <use x="95.410156" xlink:href="#DejaVuSans-36"/>
      </g>
     </g>
    </g>
    <g id="ytick_5">
     <g id="line2d_29">
      <path clip-path="url(#p8333d0476a)" d="M 57.6 81.9072 
L 360.8064 81.9072 
" style="fill:none;stroke:#b0b0b0;stroke-linecap:square;stroke-width:0.8;"/>
     </g>
     <g id="line2d_30">
      <g>
       <use style="stroke:#000000;stroke-width:0.8;" x="57.6" xlink:href="#m0d6752f111" y="81.9072"/>
      </g>
     </g>
     <g id="text_10">
      <!-- 0.8 -->
      <g transform="translate(25.155 87.98595)scale(0.16 -0.16)">
       <defs>
        <path d="M 2034 2216 
Q 1584 2216 1326 1975 
Q 1069 1734 1069 1313 
Q 1069 891 1326 650 
Q 1584 409 2034 409 
Q 2484 409 2743 651 
Q 3003 894 3003 1313 
Q 3003 1734 2745 1975 
Q 2488 2216 2034 2216 
z
M 1403 2484 
Q 997 2584 770 2862 
Q 544 3141 544 3541 
Q 544 4100 942 4425 
Q 1341 4750 2034 4750 
Q 2731 4750 3128 4425 
Q 3525 4100 3525 3541 
Q 3525 3141 3298 2862 
Q 3072 2584 2669 2484 
Q 3125 2378 3379 2068 
Q 3634 1759 3634 1313 
Q 3634 634 3220 271 
Q 2806 -91 2034 -91 
Q 1263 -91 848 271 
Q 434 634 434 1313 
Q 434 1759 690 2068 
Q 947 2378 1403 2484 
z
M 1172 3481 
Q 1172 3119 1398 2916 
Q 1625 2713 2034 2713 
Q 2441 2713 2670 2916 
Q 2900 3119 2900 3481 
Q 2900 3844 2670 4047 
Q 2441 4250 2034 4250 
Q 1625 4250 1398 4047 
Q 1172 3844 1172 3481 
z
" id="DejaVuSans-38" transform="scale(0.015625)"/>
       </defs>
       <use xlink:href="#DejaVuSans-30"/>
       <use x="63.623047" xlink:href="#DejaVuSans-2e"/>
       <use x="95.410156" xlink:href="#DejaVuSans-38"/>
      </g>
     </g>
    </g>
    <g id="ytick_6">
     <g id="line2d_31">
      <path clip-path="url(#p8333d0476a)" d="M 57.6 27.648 
L 360.8064 27.648 
" style="fill:none;stroke:#b0b0b0;stroke-linecap:square;stroke-width:0.8;"/>
     </g>
     <g id="line2d_32">
      <g>
       <use style="stroke:#000000;stroke-width:0.8;" x="57.6" xlink:href="#m0d6752f111" y="27.648"/>
      </g>
     </g>
     <g id="text_11">
      <!-- 1.0 -->
      <g transform="translate(25.155 33.72675)scale(0.16 -0.16)">
       <use xlink:href="#DejaVuSans-31"/>
       <use x="63.623047" xlink:href="#DejaVuSans-2e"/>
       <use x="95.410156" xlink:href="#DejaVuSans-30"/>
      </g>
     </g>
    </g>
    <g id="text_12">
     <!-- Fraction of function,target pairs -->
     <g transform="translate(17.619531 297.681)rotate(-90)scale(0.17 -0.17)">
      <defs>
       <path d="M 628 4666 
L 3309 4666 
L 3309 4134 
L 1259 4134 
L 1259 2759 
L 3109 2759 
L 3109 2228 
L 1259 2228 
L 1259 0 
L 628 0 
L 628 4666 
z
" id="DejaVuSans-46" transform="scale(0.015625)"/>
       <path d="M 2631 2963 
Q 2534 3019 2420 3045 
Q 2306 3072 2169 3072 
Q 1681 3072 1420 2755 
Q 1159 2438 1159 1844 
L 1159 0 
L 581 0 
L 581 3500 
L 1159 3500 
L 1159 2956 
Q 1341 3275 1631 3429 
Q 1922 3584 2338 3584 
Q 2397 3584 2469 3576 
Q 2541 3569 2628 3553 
L 2631 2963 
z
" id="DejaVuSans-72" transform="scale(0.015625)"/>
       <path d="M 3122 3366 
L 3122 2828 
Q 2878 2963 2633 3030 
Q 2388 3097 2138 3097 
Q 1578 3097 1268 2742 
Q 959 2388 959 1747 
Q 959 1106 1268 751 
Q 1578 397 2138 397 
Q 2388 397 2633 464 
Q 2878 531 3122 666 
L 3122 134 
Q 2881 22 2623 -34 
Q 2366 -91 2075 -91 
Q 1284 -91 818 406 
Q 353 903 353 1747 
Q 353 2603 823 3093 
Q 1294 3584 2113 3584 
Q 2378 3584 2631 3529 
Q 2884 3475 3122 3366 
z
" id="DejaVuSans-63" transform="scale(0.015625)"/>
       <path d="M 1172 4494 
L 1172 3500 
L 2356 3500 
L 2356 3053 
L 1172 3053 
L 1172 1153 
Q 1172 725 1289 603 
Q 1406 481 1766 481 
L 2356 481 
L 2356 0 
L 1766 0 
Q 1100 0 847 248 
Q 594 497 594 1153 
L 594 3053 
L 172 3053 
L 172 3500 
L 594 3500 
L 594 4494 
L 1172 4494 
z
" id="DejaVuSans-74" transform="scale(0.015625)"/>
       <path d="M 544 1381 
L 544 3500 
L 1119 3500 
L 1119 1403 
Q 1119 906 1312 657 
Q 1506 409 1894 409 
Q 2359 409 2629 706 
Q 2900 1003 2900 1516 
L 2900 3500 
L 3475 3500 
L 3475 0 
L 2900 0 
L 2900 538 
Q 2691 219 2414 64 
Q 2138 -91 1772 -91 
Q 1169 -91 856 284 
Q 544 659 544 1381 
z
M 1991 3584 
L 1991 3584 
z
" id="DejaVuSans-75" transform="scale(0.015625)"/>
       <path d="M 750 794 
L 1409 794 
L 1409 256 
L 897 -744 
L 494 -744 
L 750 256 
L 750 794 
z
" id="DejaVuSans-2c" transform="scale(0.015625)"/>
       <path d="M 1159 525 
L 1159 -1331 
L 581 -1331 
L 581 3500 
L 1159 3500 
L 1159 2969 
Q 1341 3281 1617 3432 
Q 1894 3584 2278 3584 
Q 2916 3584 3314 3078 
Q 3713 2572 3713 1747 
Q 3713 922 3314 415 
Q 2916 -91 2278 -91 
Q 1894 -91 1617 61 
Q 1341 213 1159 525 
z
M 3116 1747 
Q 3116 2381 2855 2742 
Q 2594 3103 2138 3103 
Q 1681 3103 1420 2742 
Q 1159 2381 1159 1747 
Q 1159 1113 1420 752 
Q 1681 391 2138 391 
Q 2594 391 2855 752 
Q 3116 1113 3116 1747 
z
" id="DejaVuSans-70" transform="scale(0.015625)"/>
      </defs>
      <use xlink:href="#DejaVuSans-46"/>
      <use x="50.269531" xlink:href="#DejaVuSans-72"/>
      <use x="91.382812" xlink:href="#DejaVuSans-61"/>
      <use x="152.662109" xlink:href="#DejaVuSans-63"/>
      <use x="207.642578" xlink:href="#DejaVuSans-74"/>
      <use x="246.851562" xlink:href="#DejaVuSans-69"/>
      <use x="274.634766" xlink:href="#DejaVuSans-6f"/>
      <use x="335.816406" xlink:href="#DejaVuSans-6e"/>
      <use x="399.195312" xlink:href="#DejaVuSans-20"/>
      <use x="430.982422" xlink:href="#DejaVuSans-6f"/>
      <use x="492.164062" xlink:href="#DejaVuSans-66"/>
      <use x="527.369141" xlink:href="#DejaVuSans-20"/>
      <use x="559.15625" xlink:href="#DejaVuSans-66"/>
      <use x="594.361328" xlink:href="#DejaVuSans-75"/>
      <use x="657.740234" xlink:href="#DejaVuSans-6e"/>
      <use x="721.119141" xlink:href="#DejaVuSans-63"/>
      <use x="776.099609" xlink:href="#DejaVuSans-74"/>
      <use x="815.308594" xlink:href="#DejaVuSans-69"/>
      <use x="843.091797" xlink:href="#DejaVuSans-6f"/>
      <use x="904.273438" xlink:href="#DejaVuSans-6e"/>
      <use x="967.652344" xlink:href="#DejaVuSans-2c"/>
      <use x="999.439453" xlink:href="#DejaVuSans-74"/>
      <use x="1038.648438" xlink:href="#DejaVuSans-61"/>
      <use x="1099.927734" xlink:href="#DejaVuSans-72"/>
      <use x="1139.291016" xlink:href="#DejaVuSans-67"/>
      <use x="1202.767578" xlink:href="#DejaVuSans-65"/>
      <use x="1264.291016" xlink:href="#DejaVuSans-74"/>
      <use x="1303.5" xlink:href="#DejaVuSans-20"/>
      <use x="1335.287109" xlink:href="#DejaVuSans-70"/>
      <use x="1398.763672" xlink:href="#DejaVuSans-61"/>
      <use x="1460.042969" xlink:href="#DejaVuSans-69"/>
      <use x="1487.826172" xlink:href="#DejaVuSans-72"/>
      <use x="1528.939453" xlink:href="#DejaVuSans-73"/>
     </g>
    </g>
   </g>
   <g id="line2d_33">
    <defs>
     <path d="M 0 1.5 
C 0.397805 1.5 0.77937 1.341951 1.06066 1.06066 
C 1.341951 0.77937 1.5 0.397805 1.5 0 
C 1.5 -0.397805 1.341951 -0.77937 1.06066 -1.06066 
C 0.77937 -1.341951 0.397805 -1.5 0 -1.5 
C -0.397805 -1.5 -0.77937 -1.341951 -1.06066 -1.06066 
C -1.341951 -0.77937 -1.5 -0.397805 -1.5 0 
C -1.5 0.397805 -1.341951 0.77937 -1.06066 1.06066 
C -0.77937 1.341951 -0.397805 1.5 0 1.5 
z
" id="m3cf9bfb80a" style="stroke:#f5deb3;"/>
    </defs>
    <g>
     <use style="fill:#f5deb3;stroke:#f5deb3;" x="185.884824" xlink:href="#m3cf9bfb80a" y="27.648"/>
     <use style="fill:#f5deb3;stroke:#f5deb3;" x="185.884824" xlink:href="#m3cf9bfb80a" y="27.648"/>
    </g>
   </g>
   <g id="line2d_34">
    <defs>
     <path d="M 0 1.5 
C 0.397805 1.5 0.77937 1.341951 1.06066 1.06066 
C 1.341951 0.77937 1.5 0.397805 1.5 0 
C 1.5 -0.397805 1.341951 -0.77937 1.06066 -1.06066 
C 0.77937 -1.341951 0.397805 -1.5 0 -1.5 
C -0.397805 -1.5 -0.77937 -1.341951 -1.06066 -1.06066 
C -1.341951 -0.77937 -1.5 -0.397805 -1.5 0 
C -1.5 0.397805 -1.341951 0.77937 -1.06066 1.06066 
C -0.77937 1.341951 -0.397805 1.5 0 1.5 
z
" id="madb3f6fb0e" style="stroke:#000080;"/>
    </defs>
    <g>
     <use style="fill:#000080;stroke:#000080;" x="225.994139" xlink:href="#madb3f6fb0e" y="27.648"/>
     <use style="fill:#000080;stroke:#000080;" x="225.994139" xlink:href="#madb3f6fb0e" y="27.648"/>
    </g>
   </g>
   <g id="line2d_35">
    <path d="M 44.560826 298.944 
L 44.560826 276.956612 
L 57.6 276.956612 
L 57.6 271.637082 
L 65.227428 271.637082 
L 65.227428 266.317553 
L 70.639174 266.317553 
L 70.639174 263.480471 
L 74.836851 263.480471 
L 74.836851 262.416565 
L 81.166416 262.416565 
L 81.166416 260.288753 
L 83.678349 260.288753 
L 83.678349 257.806306 
L 85.894031 257.806306 
L 85.894031 256.033129 
L 87.876026 256.033129 
L 87.876026 254.969224 
L 89.668958 254.969224 
L 89.668958 254.259953 
L 97.857967 254.259953 
L 97.857967 253.905318 
L 110.335561 253.905318 
L 110.335561 253.550682 
L 117.772007 253.550682 
L 117.772007 253.196047 
L 122.499621 253.196047 
L 122.499621 252.841412 
L 123.08753 252.841412 
L 123.08753 252.486776 
L 128.999044 252.486776 
L 128.999044 251.777506 
L 129.417095 251.777506 
L 129.417095 251.422871 
L 131.378407 251.422871 
L 131.378407 251.068235 
L 139.191172 251.068235 
L 139.191172 250.7136 
L 140.14993 250.7136 
L 140.14993 250.358965 
L 140.611586 250.358965 
L 140.611586 250.004329 
L 141.062184 250.004329 
L 141.062184 249.649694 
L 141.718467 249.649694 
L 141.718467 248.940424 
L 142.559347 248.940424 
L 142.559347 247.876518 
L 142.966099 247.876518 
L 142.966099 247.521882 
L 145.237585 247.521882 
L 145.237585 246.812612 
L 145.765046 246.812612 
L 145.765046 246.457976 
L 149.238092 246.457976 
L 149.238092 244.6848 
L 151.024471 244.6848 
L 151.024471 244.330165 
L 152.775647 244.330165 
L 152.775647 243.975529 
L 154.703817 243.975529 
L 154.703817 242.911624 
L 155.13016 242.911624 
L 155.13016 242.556988 
L 156.550574 242.556988 
L 156.550574 241.847718 
L 158.760826 241.847718 
L 158.760826 241.138447 
L 159.61025 241.138447 
L 159.61025 240.429176 
L 161.202028 240.429176 
L 161.202028 239.719906 
L 161.950101 239.719906 
L 161.950101 239.365271 
L 163.294355 239.365271 
L 163.294355 238.301365 
L 165.604634 238.301365 
L 165.604634 237.592094 
L 165.904188 237.592094 
L 165.96353 236.528188 
L 166.888401 236.528188 
L 166.944723 235.109647 
L 167.444174 235.109647 
L 167.444174 234.045741 
L 167.930707 234.045741 
L 167.930707 233.691106 
L 168.404973 233.691106 
L 168.404973 233.336471 
L 168.816733 233.336471 
L 168.816733 232.6272 
L 169.06958 232.6272 
L 169.06958 232.272565 
L 169.467197 232.272565 
L 169.467197 231.917929 
L 171.82171 231.917929 
L 171.82171 231.208659 
L 172.080292 231.208659 
L 172.080292 230.854024 
L 172.752956 230.854024 
L 172.794209 229.790118 
L 172.99913 229.790118 
L 172.99913 229.435482 
L 173.56131 229.435482 
L 173.56131 229.080847 
L 173.991531 229.080847 
L 173.991531 226.953035 
L 174.336355 226.953035 
L 174.336355 226.243765 
L 174.525228 226.243765 
L 174.525228 225.179859 
L 174.934191 225.179859 
L 174.934191 224.470588 
L 175.080727 224.470588 
L 175.080727 221.988141 
L 175.477915 221.988141 
L 175.477915 220.924235 
L 177.314646 220.924235 
L 177.314646 219.860329 
L 177.508083 219.860329 
L 177.508083 219.505694 
L 177.667774 219.505694 
L 177.667774 218.087153 
L 178.29332 218.087153 
L 178.29332 217.732518 
L 179.311218 217.732518 
L 179.398443 216.668612 
L 179.542926 216.668612 
L 179.542926 216.313976 
L 180.524377 216.313976 
L 180.524377 215.959341 
L 180.714669 215.959341 
L 180.714669 215.604706 
L 181.483135 215.604706 
L 181.483135 214.5408 
L 183.123199 214.5408 
L 183.123199 213.831529 
L 183.383162 213.831529 
L 183.383162 212.767624 
L 183.50015 212.767624 
L 183.50015 212.412988 
L 183.75499 212.412988 
L 183.75499 212.058353 
L 184.850033 212.058353 
L 184.850033 211.703718 
L 185.130164 211.703718 
L 185.130164 210.994447 
L 185.698978 210.994447 
L 185.698978 210.285176 
L 186.170316 210.285176 
L 186.170316 209.930541 
L 186.491374 209.930541 
L 186.491374 209.221271 
L 186.885142 209.221271 
L 186.885142 208.866635 
L 187.175151 208.866635 
L 187.175151 208.157365 
L 188.037615 208.157365 
L 188.037615 207.448094 
L 188.579512 207.448094 
L 188.579512 206.738824 
L 188.862265 206.738824 
L 188.862265 205.674918 
L 189.071575 205.674918 
L 189.175363 204.611012 
L 189.449364 204.611012 
L 189.449364 204.256376 
L 189.719432 204.256376 
L 189.786347 203.192471 
L 190.018694 203.192471 
L 190.117399 200.710024 
L 190.810026 200.710024 
L 190.873179 198.936847 
L 191.278582 198.936847 
L 191.278582 198.582212 
L 191.478054 198.582212 
L 191.478054 198.227576 
L 191.795875 198.227576 
L 191.795875 197.518306 
L 192.299324 197.518306 
L 192.401323 196.4544 
L 192.661095 196.4544 
L 192.661095 195.745129 
L 192.803878 195.745129 
L 192.803878 194.681224 
L 192.945585 194.681224 
L 192.945585 193.617318 
L 193.253634 193.617318 
L 193.336779 191.489506 
L 193.597674 191.489506 
L 193.652141 190.780235 
L 194.18831 190.780235 
L 194.18831 189.716329 
L 194.319998 189.716329 
L 194.333116 187.943153 
L 194.463797 187.943153 
L 194.515817 186.169976 
L 194.926874 186.169976 
L 194.95227 184.3968 
L 195.329141 184.3968 
L 195.329141 184.042165 
L 195.514783 184.042165 
L 195.514783 182.978259 
L 196.416468 182.978259 
L 196.416468 182.623624 
L 197.039921 182.623624 
L 197.039921 181.914353 
L 197.254461 181.914353 
L 197.254461 180.141176 
L 197.366401 180.141176 
L 197.366401 178.368 
L 197.47768 178.368 
L 197.555185 177.304094 
L 197.76396 177.304094 
L 197.76396 176.949459 
L 197.894634 176.949459 
L 197.894634 176.240188 
L 198.15329 176.240188 
L 198.15329 175.885553 
L 198.270663 175.885553 
L 198.270663 175.530918 
L 198.888005 175.530918 
L 198.888005 174.821647 
L 199.12328 174.821647 
L 199.12328 174.112376 
L 199.254972 174.112376 
L 199.305378 172.3392 
L 199.693978 172.3392 
L 199.693978 171.984565 
L 199.958382 171.984565 
L 199.987532 170.211388 
L 200.122972 170.211388 
L 200.151868 169.147482 
L 200.295688 169.147482 
L 200.295688 168.792847 
L 200.532971 168.792847 
L 200.598878 167.728941 
L 200.860218 167.728941 
L 200.860218 167.019671 
L 201.026326 167.019671 
L 201.081371 165.955765 
L 201.809129 165.955765 
L 201.844348 165.246494 
L 201.932109 165.246494 
L 201.958358 164.537224 
L 202.687247 164.537224 
L 202.787911 160.990871 
L 202.804636 160.990871 
L 202.804636 159.572329 
L 203.045494 159.572329 
L 203.045494 159.217694 
L 203.201641 159.217694 
L 203.275156 157.799153 
L 203.332136 157.799153 
L 203.332136 157.444518 
L 203.461732 157.444518 
L 203.534239 155.316706 
L 203.622481 155.316706 
L 203.67842 153.543529 
L 203.789802 153.543529 
L 203.88475 151.415718 
L 203.987072 151.415718 
L 204.096647 149.997176 
L 204.436927 149.997176 
L 204.436927 149.642541 
L 204.680593 149.642541 
L 204.680593 147.514729 
L 204.921144 147.514729 
L 204.921144 146.450824 
L 205.385924 146.450824 
L 205.487667 145.386918 
L 205.610477 145.386918 
L 205.617676 144.323012 
L 205.882129 144.323012 
L 205.882129 143.968376 
L 206.044664 143.968376 
L 206.086834 142.1952 
L 206.191849 142.1952 
L 206.191849 141.485929 
L 206.749014 141.485929 
L 206.749014 141.131294 
L 206.917698 141.131294 
L 206.96466 140.067388 
L 207.118143 140.067388 
L 207.118143 139.358118 
L 207.369012 139.358118 
L 207.473648 136.521035 
L 207.512737 136.521035 
L 207.538751 134.747859 
L 207.706972 134.747859 
L 207.739151 134.038588 
L 208.259173 134.038588 
L 208.358986 132.620047 
L 208.922853 132.620047 
L 209.001185 129.428329 
L 209.103128 129.428329 
L 209.103128 128.719059 
L 209.234241 128.719059 
L 209.234241 128.009788 
L 209.52302 128.009788 
L 209.627999 126.591247 
L 209.715036 126.591247 
L 209.715036 125.527341 
L 210.081934 125.527341 
L 210.161248 124.463435 
L 210.39162 124.463435 
L 210.430671 123.044894 
L 210.723743 123.044894 
L 210.833161 121.626353 
L 210.914808 121.626353 
L 210.914808 121.271718 
L 211.168366 121.271718 
L 211.275235 118.789271 
L 211.323129 118.789271 
L 211.386798 117.370729 
L 211.545034 117.370729 
L 211.655013 115.952188 
L 211.681104 115.952188 
L 211.75916 112.405835 
L 211.795476 112.405835 
L 211.795476 112.0512 
L 211.919458 112.0512 
L 211.981143 111.341929 
L 212.068187 111.341929 
L 212.068187 109.568753 
L 212.19039 109.568753 
L 212.19039 109.214118 
L 212.301716 109.214118 
L 212.367191 108.150212 
L 212.522411 108.150212 
L 212.587124 107.440941 
L 212.804516 107.440941 
L 212.804516 107.086306 
L 212.931803 107.086306 
L 213.024279 105.313129 
L 213.072769 105.313129 
L 213.072769 103.894588 
L 213.365879 103.894588 
L 213.442011 99.284329 
L 213.729467 99.284329 
L 213.729467 98.220424 
L 213.878526 98.220424 
L 213.878526 97.156518 
L 214.118255 97.156518 
L 214.118255 96.801882 
L 214.282449 96.801882 
L 214.382089 95.737976 
L 214.404662 95.737976 
L 214.413683 94.674071 
L 214.521602 94.674071 
L 214.521602 94.319435 
L 214.691217 94.319435 
L 214.801978 92.191624 
L 214.920871 92.191624 
L 214.920871 91.836988 
L 215.104336 91.836988 
L 215.208375 90.063812 
L 215.242928 90.063812 
L 215.242928 89.354541 
L 215.423293 89.354541 
L 215.465984 88.290635 
L 215.551075 88.290635 
L 215.635783 87.581365 
L 215.665341 87.581365 
L 215.728524 86.872094 
L 215.883473 86.872094 
L 215.987451 84.744282 
L 216.004034 84.744282 
L 216.049562 81.197929 
L 216.17728 81.197929 
L 216.222392 80.134024 
L 216.304137 80.134024 
L 216.324518 79.070118 
L 216.438245 79.070118 
L 216.53518 78.006212 
L 216.595513 78.006212 
L 216.595513 77.651576 
L 216.711609 77.651576 
L 216.80715 75.523765 
L 216.862659 75.523765 
L 216.914056 74.105224 
L 216.992857 74.105224 
L 217.067412 72.332047 
L 217.118254 72.332047 
L 217.20787 71.622776 
L 217.238941 71.622776 
L 217.238941 71.268141 
L 217.385832 71.268141 
L 217.493338 70.204235 
L 217.569753 70.204235 
L 217.596425 69.140329 
L 217.695164 69.140329 
L 217.774538 67.012518 
L 217.846065 67.012518 
L 217.921063 65.593976 
L 217.962186 65.593976 
L 218.010669 64.884706 
L 218.096143 64.884706 
L 218.177538 63.466165 
L 218.302642 63.466165 
L 218.4014 61.338353 
L 218.448766 61.338353 
L 218.448766 60.983718 
L 218.56847 60.983718 
L 218.665846 59.919812 
L 218.830593 59.919812 
L 218.880449 58.855906 
L 218.983303 58.855906 
L 219.082079 56.728094 
L 219.222294 56.728094 
L 219.222294 56.018824 
L 219.447939 56.018824 
L 219.509949 54.245647 
L 219.588888 54.245647 
L 219.588888 51.053929 
L 219.718588 51.053929 
L 219.772933 50.344659 
L 219.850778 50.344659 
L 219.941753 49.280753 
L 219.971981 49.280753 
L 220.079064 47.507576 
L 220.327679 47.507576 
L 220.327679 47.152941 
L 220.485085 47.152941 
L 220.530748 46.089035 
L 220.7123 46.089035 
L 220.821679 44.315859 
L 220.828093 44.315859 
L 220.895312 43.606588 
L 221.029032 43.606588 
L 221.029032 43.251953 
L 221.221568 43.251953 
L 221.221568 42.897318 
L 221.483516 42.897318 
L 221.585434 41.478776 
L 221.686802 41.478776 
L 221.787628 38.641694 
L 221.881853 38.641694 
L 221.942394 37.932424 
L 222.149777 37.932424 
L 222.206483 37.223153 
L 222.487479 37.223153 
L 222.587034 36.513882 
L 222.715094 36.513882 
L 222.715094 36.159247 
L 222.836524 36.159247 
L 222.836524 35.095341 
L 222.997222 35.095341 
L 222.997222 34.740706 
L 223.280811 34.740706 
L 223.348241 34.031435 
L 223.557416 34.031435 
L 223.557416 32.967529 
L 223.783482 32.967529 
L 223.783482 32.612894 
L 224.028516 32.612894 
L 224.028516 32.258259 
L 224.222271 32.258259 
L 224.222271 31.903624 
L 224.350341 31.903624 
L 224.350341 30.839718 
L 224.606518 30.839718 
L 224.624871 30.130447 
L 224.802229 30.130447 
L 224.802229 29.775812 
L 225.060049 29.775812 
L 225.060049 29.421176 
L 225.334583 29.421176 
L 225.334583 29.066541 
L 225.795734 29.066541 
L 225.886623 28.357271 
L 225.994139 28.357271 
L 225.994139 27.648 
L 360.8064 27.648 
L 360.8064 27.648 
" style="fill:none;stroke:#000080;stroke-linecap:square;stroke-width:1.5;"/>
   </g>
   <g id="line2d_36">
    <defs>
     <path d="M 0 6 
C 1.591219 6 3.117479 5.367802 4.242641 4.242641 
C 5.367802 3.117479 6 1.591219 6 0 
C 6 -1.591219 5.367802 -3.117479 4.242641 -4.242641 
C 3.117479 -5.367802 1.591219 -6 0 -6 
C -1.591219 -6 -3.117479 -5.367802 -4.242641 -4.242641 
C -5.367802 -3.117479 -6 -1.591219 -6 0 
C -6 1.591219 -5.367802 3.117479 -4.242641 4.242641 
C -3.117479 5.367802 -1.591219 6 0 6 
z
" id="m63bbf88fca" style="stroke:#000080;stroke-width:1.5;"/>
    </defs>
    <g>
     <use style="fill-opacity:0;stroke:#000080;stroke-width:1.5;" x="97.857967" xlink:href="#m63bbf88fca" y="254.259953"/>
     <use style="fill-opacity:0;stroke:#000080;stroke-width:1.5;" x="184.850033" xlink:href="#m63bbf88fca" y="211.703718"/>
     <use style="fill-opacity:0;stroke:#000080;stroke-width:1.5;" x="216.898257" xlink:href="#m63bbf88fca" y="74.459859"/>
     <use style="fill-opacity:0;stroke:#000080;stroke-width:1.5;" x="225.994139" xlink:href="#m63bbf88fca" y="27.648"/>
     <use style="fill-opacity:0;stroke:#000080;stroke-width:1.5;" x="225.994139" xlink:href="#m63bbf88fca" y="27.648"/>
     <use style="fill-opacity:0;stroke:#000080;stroke-width:1.5;" x="360.8064" xlink:href="#m63bbf88fca" y="27.648"/>
    </g>
   </g>
   <g id="line2d_37">
    <path style="fill:none;stroke:#000080;stroke-linecap:square;stroke-width:1.5;"/>
    <g/>
   </g>
   <g id="line2d_38">
    <defs>
     <path d="M 0 1.5 
C 0.397805 1.5 0.77937 1.341951 1.06066 1.06066 
C 1.341951 0.77937 1.5 0.397805 1.5 0 
C 1.5 -0.397805 1.341951 -0.77937 1.06066 -1.06066 
C 0.77937 -1.341951 0.397805 -1.5 0 -1.5 
C -0.397805 -1.5 -0.77937 -1.341951 -1.06066 -1.06066 
C -1.341951 -0.77937 -1.5 -0.397805 -1.5 0 
C -1.5 0.397805 -1.341951 0.77937 -1.06066 1.06066 
C -0.77937 1.341951 -0.397805 1.5 0 1.5 
z
" id="mda36eac70f" style="stroke:#ff00ff;"/>
    </defs>
    <g>
     <use style="fill:#ff00ff;stroke:#ff00ff;" x="240.399358" xlink:href="#mda36eac70f" y="27.648"/>
     <use style="fill:#ff00ff;stroke:#ff00ff;" x="240.399358" xlink:href="#mda36eac70f" y="27.648"/>
    </g>
   </g>
   <g id="line2d_39">
    <path d="M 44.560826 298.944 
L 44.560826 275.183435 
L 57.6 275.183435 
L 57.6 265.608282 
L 65.227428 265.608282 
L 65.227428 264.899012 
L 70.639174 264.899012 
L 70.639174 264.544376 
L 74.836851 264.544376 
L 74.836851 263.125835 
L 78.266603 263.125835 
L 78.266603 262.416565 
L 81.166416 262.416565 
L 81.166416 261.707294 
L 83.678349 261.707294 
L 83.678349 260.288753 
L 87.876026 260.288753 
L 87.876026 258.870212 
L 89.668958 258.870212 
L 89.668958 257.451671 
L 92.811505 257.451671 
L 92.811505 257.097035 
L 94.205591 257.097035 
L 94.205591 256.033129 
L 97.857967 256.033129 
L 97.857967 255.323859 
L 99.950294 255.323859 
L 99.950294 254.969224 
L 100.9152 254.969224 
L 100.9152 254.614588 
L 103.544339 254.614588 
L 103.544339 253.905318 
L 104.344952 253.905318 
L 104.344952 253.550682 
L 105.850679 253.550682 
L 105.850679 252.486776 
L 106.560633 252.486776 
L 106.560633 251.422871 
L 107.244765 251.422871 
L 107.244765 250.358965 
L 109.159456 250.358965 
L 109.159456 249.649694 
L 110.335561 249.649694 
L 110.335561 249.295059 
L 114.418881 249.295059 
L 114.418881 248.231153 
L 116.170056 248.231153 
L 116.170056 247.521882 
L 117.772007 247.521882 
L 117.772007 246.457976 
L 118.152051 246.457976 
L 118.152051 246.103341 
L 118.524569 246.103341 
L 118.524569 245.748706 
L 119.24818 245.748706 
L 119.24818 245.039435 
L 121.265635 245.039435 
L 121.265635 244.330165 
L 121.581803 244.330165 
L 121.581803 242.911624 
L 124.210942 242.911624 
L 124.210942 241.847718 
L 125.011554 241.847718 
L 125.011554 241.493082 
L 125.271028 241.493082 
L 125.271028 240.074541 
L 125.526971 240.074541 
L 125.526971 238.656 
L 126.517282 238.656 
L 126.517282 238.301365 
L 127.911368 238.301365 
L 127.911368 236.882824 
L 128.354013 236.882824 
L 128.354013 236.528188 
L 128.999044 236.528188 
L 128.999044 236.173553 
L 129.209231 236.173553 
L 129.209231 235.818918 
L 129.417095 235.818918 
L 129.417095 235.464282 
L 129.826058 235.464282 
L 129.826058 233.336471 
L 130.027253 233.336471 
L 130.027253 232.981835 
L 130.811181 232.981835 
L 130.811181 231.563294 
L 131.563744 231.563294 
L 131.563744 231.208659 
L 132.109044 231.208659 
L 132.109044 230.854024 
L 132.287354 230.854024 
L 132.287354 230.144753 
L 132.984158 230.144753 
L 132.984158 229.790118 
L 133.154399 229.790118 
L 133.154399 229.435482 
L 133.490329 229.435482 
L 133.490329 228.726212 
L 133.656071 228.726212 
L 133.656071 228.016941 
L 134.620977 228.016941 
L 134.620977 227.662306 
L 134.77709 227.662306 
L 134.77709 226.953035 
L 135.538796 226.953035 
L 135.538796 225.179859 
L 135.835047 225.179859 
L 135.835047 224.825224 
L 135.981441 224.825224 
L 135.981441 224.470588 
L 136.555884 224.470588 
L 136.555884 224.115953 
L 137.38594 224.115953 
L 137.38594 223.761318 
L 138.438609 223.761318 
L 138.438609 223.052047 
L 138.566146 223.052047 
L 138.566146 221.988141 
L 138.818654 221.988141 
L 138.818654 221.278871 
L 138.943648 221.278871 
L 138.943648 220.924235 
L 139.067817 220.924235 
L 139.067817 220.5696 
L 139.556456 220.5696 
L 139.556456 220.214965 
L 139.676658 220.214965 
L 139.676658 218.796424 
L 139.914782 218.796424 
L 139.914782 218.087153 
L 140.26641 218.087153 
L 140.26641 217.377882 
L 140.725251 217.377882 
L 140.725251 216.668612 
L 140.950542 216.668612 
L 140.950542 216.313976 
L 142.45627 216.313976 
L 142.559347 215.250071 
L 142.865233 215.250071 
L 142.865233 213.476894 
L 143.364242 213.476894 
L 143.364242 212.058353 
L 143.560197 212.058353 
L 143.657415 210.285176 
L 143.850356 210.285176 
L 143.850356 209.930541 
L 144.510478 209.930541 
L 144.510478 209.575906 
L 145.415054 209.575906 
L 145.503164 208.512 
L 145.851536 208.512 
L 145.851536 207.093459 
L 146.108646 207.093459 
L 146.193574 206.029553 
L 146.362288 206.029553 
L 146.362288 204.965647 
L 146.529503 204.965647 
L 146.529503 204.256376 
L 146.859539 204.256376 
L 146.859539 203.901741 
L 147.343984 203.901741 
L 147.343984 203.192471 
L 147.893838 203.192471 
L 147.893838 201.064659 
L 148.57797 201.064659 
L 148.57797 200.710024 
L 149.238092 200.710024 
L 149.238092 199.646118 
L 149.381693 199.646118 
L 149.381693 199.291482 
L 149.806031 199.291482 
L 149.806031 197.872941 
L 150.014665 197.872941 
L 150.083698 197.163671 
L 150.357325 197.163671 
L 150.425115 196.099765 
L 150.492661 196.099765 
L 150.492661 195.745129 
L 150.62703 195.745129 
L 150.693856 192.553412 
L 150.958812 192.553412 
L 151.024471 191.134871 
L 151.155108 191.134871 
L 151.220087 189.716329 
L 151.41369 189.716329 
L 151.477784 189.007059 
L 151.668766 189.007059 
L 151.731998 188.297788 
L 151.920429 188.297788 
L 151.920429 187.943153 
L 152.16877 187.943153 
L 152.16877 187.588518 
L 152.352898 187.588518 
L 152.413875 185.815341 
L 152.835271 185.815341 
L 152.894708 184.751435 
L 153.189104 184.751435 
L 153.189104 183.332894 
L 153.421349 183.332894 
L 153.478964 181.914353 
L 153.593669 181.914353 
L 153.593669 181.205082 
L 153.764426 181.205082 
L 153.764426 180.141176 
L 153.989717 180.141176 
L 153.989717 179.786541 
L 154.486967 179.786541 
L 154.486967 179.431906 
L 154.649839 179.431906 
L 154.757642 178.722635 
L 155.024477 178.722635 
L 155.13016 178.013365 
L 155.235253 178.013365 
L 155.28758 176.594824 
L 155.391799 176.594824 
L 155.443693 175.885553 
L 155.547053 175.885553 
L 155.598521 175.176282 
L 155.85377 175.176282 
L 155.85377 174.821647 
L 156.005274 174.821647 
L 156.105602 173.403106 
L 156.550574 173.403106 
L 156.599372 172.693835 
L 156.745011 172.693835 
L 156.745011 172.3392 
L 156.985263 172.3392 
L 157.080512 169.502118 
L 157.127956 169.502118 
L 157.127956 169.147482 
L 157.595929 169.147482 
L 157.595929 168.792847 
L 158.052543 168.792847 
L 158.052543 168.438212 
L 158.365703 168.438212 
L 158.365703 168.083576 
L 158.498335 168.083576 
L 158.58624 167.019671 
L 158.630038 167.019671 
L 158.630038 166.665035 
L 159.651731 166.665035 
L 159.734419 164.182588 
L 159.775628 164.182588 
L 159.775628 163.827953 
L 160.020999 163.827953 
L 160.061585 162.764047 
L 160.263211 162.764047 
L 160.303279 162.054776 
L 160.383158 162.054776 
L 160.422971 160.2816 
L 160.502345 160.2816 
L 160.502345 159.926965 
L 160.660094 159.926965 
L 160.738476 159.217694 
L 160.816532 159.217694 
L 160.894266 157.444518 
L 160.97168 157.444518 
L 160.97168 157.089882 
L 161.42959 157.089882 
L 161.42959 156.735247 
L 161.617145 156.735247 
L 161.617145 156.380612 
L 161.802848 156.380612 
L 161.876619 154.962071 
L 162.420867 154.962071 
L 162.527853 153.898165 
L 163.191653 153.898165 
L 163.191653 153.543529 
L 163.531835 153.543529 
L 163.531835 153.188894 
L 163.766354 153.188894 
L 163.79962 152.479624 
L 163.899064 152.479624 
L 163.899064 152.124988 
L 164.063646 152.124988 
L 164.161708 149.997176 
L 164.548924 149.997176 
L 164.548924 149.642541 
L 164.865624 149.642541 
L 164.865624 149.287906 
L 165.1152 149.287906 
L 165.1152 148.224 
L 165.634805 148.224 
L 165.664928 147.514729 
L 165.874446 147.514729 
L 165.904188 146.450824 
L 166.286609 146.450824 
L 166.373767 145.741553 
L 166.632844 145.741553 
L 166.632844 144.677647 
L 166.8036 144.677647 
L 166.8036 144.323012 
L 167.223831 144.323012 
L 167.223831 143.968376 
L 167.607754 143.968376 
L 167.607754 142.904471 
L 167.877265 142.904471 
L 167.877265 142.549835 
L 168.456938 142.549835 
L 168.534619 141.840565 
L 168.663377 141.840565 
L 168.663377 141.485929 
L 169.019282 141.485929 
L 169.094679 140.776659 
L 169.417952 140.776659 
L 169.491772 140.067388 
L 169.832482 140.067388 
L 169.832482 139.712753 
L 170.143423 139.712753 
L 170.143423 139.358118 
L 170.542436 139.358118 
L 170.635104 138.294212 
L 170.841952 138.294212 
L 170.864796 137.584941 
L 171.069148 137.584941 
L 171.069148 137.230306 
L 171.691074 137.230306 
L 171.73472 136.521035 
L 172.250727 136.521035 
L 172.335368 135.457129 
L 172.62865 135.457129 
L 172.690906 134.747859 
L 173.080478 134.747859 
L 173.10076 134.038588 
L 173.32243 134.038588 
L 173.32243 133.683953 
L 173.60083 133.683953 
L 173.679622 132.974682 
L 173.718895 132.974682 
L 173.718895 132.620047 
L 173.836223 132.620047 
L 173.836223 132.265412 
L 174.010854 132.265412 
L 174.049442 131.201506 
L 174.126381 131.201506 
L 174.126381 130.846871 
L 174.412132 130.846871 
L 174.468765 130.1376 
L 174.600249 130.1376 
L 174.656319 129.428329 
L 174.7494 129.428329 
L 174.7494 129.073694 
L 174.934191 129.073694 
L 174.934191 128.719059 
L 175.15357 128.719059 
L 175.15357 128.364424 
L 175.298414 128.364424 
L 175.334451 127.655153 
L 175.988986 127.655153 
L 175.988986 127.300518 
L 176.127562 127.300518 
L 176.127562 126.945882 
L 176.435674 126.945882 
L 176.503464 125.881976 
L 176.671876 125.881976 
L 176.671876 125.527341 
L 176.971271 125.527341 
L 176.971271 125.172706 
L 177.10282 125.172706 
L 177.10282 124.818071 
L 177.298436 124.818071 
L 177.395487 123.754165 
L 177.572122 123.754165 
L 177.572122 123.399529 
L 177.731273 123.399529 
L 177.762943 122.690259 
L 177.951847 122.690259 
L 178.045592 121.626353 
L 178.09229 121.626353 
L 178.09229 121.271718 
L 178.354746 121.271718 
L 178.354746 120.917082 
L 178.492224 120.917082 
L 178.583321 119.853176 
L 178.643809 119.853176 
L 178.643809 119.498541 
L 178.779198 119.498541 
L 178.853996 118.434635 
L 178.958215 118.434635 
L 178.958215 118.08 
L 179.135545 118.08 
L 179.23822 117.016094 
L 179.325784 117.016094 
L 179.412941 116.306824 
L 179.528527 116.306824 
L 179.528527 115.952188 
L 179.686307 115.952188 
L 179.771814 115.242918 
L 179.927575 115.242918 
L 179.927575 114.888282 
L 180.040051 114.888282 
L 180.054064 114.179012 
L 180.193616 114.179012 
L 180.193616 113.824376 
L 180.33214 113.824376 
L 180.44223 112.760471 
L 180.59256 112.760471 
L 180.59256 112.405835 
L 180.862845 112.405835 
L 180.876258 111.696565 
L 181.612513 111.696565 
L 181.715379 110.632659 
L 182.108755 110.632659 
L 182.108755 109.923388 
L 182.444795 109.923388 
L 182.543221 109.214118 
L 182.907797 109.214118 
L 182.907797 108.859482 
L 183.265442 108.859482 
L 183.336163 108.150212 
L 183.68583 108.150212 
L 183.68583 107.795576 
L 183.869695 107.795576 
L 183.869695 107.440941 
L 184.299304 107.440941 
L 184.388512 106.731671 
L 184.421855 106.731671 
L 184.421855 106.377035 
L 184.664589 106.377035 
L 184.719321 105.313129 
L 184.79568 105.313129 
L 184.839175 104.603859 
L 185.044414 104.603859 
L 185.044414 104.249224 
L 185.750786 104.249224 
L 185.761131 103.539953 
L 185.90536 103.539953 
L 185.966836 102.830682 
L 186.281299 102.830682 
L 186.281299 102.476047 
L 186.550968 102.476047 
L 186.550968 102.121412 
L 186.758069 102.121412 
L 186.865648 101.057506 
L 187.13674 101.057506 
L 187.23262 99.9936 
L 187.270836 99.9936 
L 187.328014 98.929694 
L 187.403982 98.929694 
L 187.479644 98.220424 
L 187.68616 98.220424 
L 187.68616 97.865788 
L 188.165461 97.865788 
L 188.165461 97.511153 
L 188.400609 97.511153 
L 188.463419 96.801882 
L 188.906064 96.801882 
L 188.906064 96.447247 
L 189.819716 96.447247 
L 189.819716 96.092612 
L 190.125601 96.092612 
L 190.125601 95.737976 
L 190.547257 95.737976 
L 190.547257 95.383341 
L 190.683081 95.383341 
L 190.730786 94.674071 
L 190.904676 94.674071 
L 190.904676 94.319435 
L 191.667879 94.319435 
L 191.667879 93.9648 
L 191.825866 93.9648 
L 191.825866 93.610165 
L 192.204112 93.610165 
L 192.306628 92.546259 
L 192.924397 92.546259 
L 193.0301 91.836988 
L 193.114237 91.836988 
L 193.114237 91.482353 
L 193.343691 91.482353 
L 193.343691 91.127718 
L 193.590854 91.127718 
L 193.590854 90.773082 
L 193.753843 90.773082 
L 193.834811 90.063812 
L 194.567693 90.063812 
L 194.567693 89.709176 
L 194.914164 89.709176 
L 194.914164 89.354541 
L 195.091334 89.354541 
L 195.173028 88.290635 
L 195.814113 88.290635 
L 195.922885 87.226729 
L 196.215841 87.226729 
L 196.215841 86.872094 
L 196.351793 86.872094 
L 196.351793 86.517459 
L 196.591732 86.517459 
L 196.684543 85.808188 
L 196.736549 85.808188 
L 196.736549 85.453553 
L 197.005822 85.453553 
L 197.113592 84.744282 
L 197.265685 84.744282 
L 197.344067 84.035012 
L 197.455477 84.035012 
L 197.555185 83.325741 
L 197.621365 83.325741 
L 197.621365 82.971106 
L 197.736622 82.971106 
L 197.823965 81.9072 
L 197.970444 81.9072 
L 197.970444 81.552565 
L 198.11579 81.552565 
L 198.11579 81.197929 
L 198.644537 81.197929 
L 198.722582 80.488659 
L 199.158827 80.488659 
L 199.158827 80.134024 
L 199.425804 80.134024 
L 199.535522 78.715482 
L 199.753056 78.715482 
L 199.753056 78.360847 
L 200.414704 78.360847 
L 200.414704 78.006212 
L 200.832391 78.006212 
L 200.92499 77.296941 
L 201.358718 77.296941 
L 201.358718 76.942306 
L 201.658707 76.942306 
L 201.742914 75.8784 
L 202.274818 75.8784 
L 202.274818 75.523765 
L 202.526752 75.523765 
L 202.526752 75.169129 
L 202.653572 75.169129 
L 202.653572 74.814494 
L 202.958642 74.814494 
L 202.958642 74.459859 
L 203.336199 74.459859 
L 203.336199 74.105224 
L 203.654466 74.105224 
L 203.682409 72.686682 
L 203.829422 72.686682 
L 203.829422 72.332047 
L 204.151196 72.332047 
L 204.162864 71.622776 
L 204.410083 71.622776 
L 204.410083 71.268141 
L 204.67681 71.268141 
L 204.74479 70.558871 
L 205.010563 70.558871 
L 205.010563 70.204235 
L 205.169718 70.204235 
L 205.169718 69.8496 
L 205.49129 69.8496 
L 205.49129 69.494965 
L 205.796767 69.494965 
L 205.796767 69.140329 
L 206.114896 69.140329 
L 206.209294 68.431059 
L 206.285863 68.431059 
L 206.285863 68.076424 
L 206.517149 68.076424 
L 206.582223 67.367153 
L 206.782872 67.367153 
L 206.782872 67.012518 
L 207.071563 67.012518 
L 207.118143 66.303247 
L 207.787315 66.303247 
L 207.892846 65.593976 
L 207.962872 65.593976 
L 207.962872 65.239341 
L 208.095839 65.239341 
L 208.095839 64.884706 
L 208.725586 64.884706 
L 208.740834 64.175435 
L 208.889615 64.175435 
L 208.889615 63.8208 
L 209.189646 63.8208 
L 209.263912 63.111529 
L 209.563915 63.111529 
L 209.657056 62.047624 
L 209.72661 62.047624 
L 209.78726 60.983718 
L 209.925159 60.983718 
L 209.925159 60.629082 
L 210.186671 60.629082 
L 210.186671 60.274447 
L 210.621962 60.274447 
L 210.712767 59.210541 
L 211.192465 59.210541 
L 211.192465 58.855906 
L 211.439691 58.855906 
L 211.526642 58.146635 
L 212.324406 58.146635 
L 212.324406 57.792 
L 212.587124 57.792 
L 212.624358 57.082729 
L 213.019423 57.082729 
L 213.019423 56.728094 
L 213.275071 56.728094 
L 213.32292 56.018824 
L 213.394465 56.018824 
L 213.394465 55.664188 
L 213.904027 55.664188 
L 213.93412 54.600282 
L 214.232431 54.600282 
L 214.232431 54.245647 
L 214.711202 54.245647 
L 214.711202 53.891012 
L 214.97785 53.891012 
L 215.08694 53.181741 
L 215.720112 53.181741 
L 215.814532 52.117835 
L 216.281693 52.117835 
L 216.293938 51.408565 
L 216.504942 51.408565 
L 216.504942 51.053929 
L 216.872554 51.053929 
L 216.872554 50.699294 
L 217.349217 50.699294 
L 217.349217 50.344659 
L 217.502907 50.344659 
L 217.502907 49.990024 
L 217.802805 49.990024 
L 217.823507 49.280753 
L 218.003218 49.280753 
L 218.034864 48.571482 
L 218.423276 48.571482 
L 218.423276 48.216847 
L 219.048624 48.216847 
L 219.148812 47.152941 
L 219.454839 47.152941 
L 219.564898 46.089035 
L 220.163962 46.089035 
L 220.163962 45.7344 
L 220.676776 45.7344 
L 220.676776 45.379765 
L 220.847323 45.379765 
L 220.847323 45.025129 
L 221.461825 45.025129 
L 221.461825 44.670494 
L 221.795244 44.670494 
L 221.795244 44.315859 
L 222.167703 44.315859 
L 222.197541 43.606588 
L 222.478669 43.606588 
L 222.478669 43.251953 
L 222.674442 43.251953 
L 222.674442 42.897318 
L 222.788913 42.897318 
L 222.855247 41.833412 
L 222.919914 41.833412 
L 223.01864 40.769506 
L 223.608656 40.769506 
L 223.668031 39.7056 
L 223.751941 39.7056 
L 223.751941 39.350965 
L 224.143127 39.350965 
L 224.143127 38.996329 
L 224.778851 38.996329 
L 224.778851 38.641694 
L 224.99464 38.641694 
L 225.074127 37.932424 
L 225.529146 37.932424 
L 225.529146 37.577788 
L 225.838777 37.577788 
L 225.846146 36.868518 
L 226.479998 36.868518 
L 226.479998 36.513882 
L 226.997565 36.513882 
L 227.101229 35.449976 
L 227.123041 35.449976 
L 227.196327 34.740706 
L 227.33978 34.740706 
L 227.33978 34.386071 
L 227.519256 34.386071 
L 227.519256 34.031435 
L 227.779207 34.031435 
L 227.779207 33.6768 
L 228.524337 33.6768 
L 228.524337 33.322165 
L 228.765596 33.322165 
L 228.765596 32.967529 
L 228.947655 32.967529 
L 228.947655 32.612894 
L 229.288173 32.612894 
L 229.288173 32.258259 
L 229.846324 32.258259 
L 229.846324 31.903624 
L 230.323659 31.903624 
L 230.323659 31.548988 
L 230.957431 31.548988 
L 230.957431 31.194353 
L 231.406799 31.194353 
L 231.457895 30.485082 
L 231.613067 30.485082 
L 231.613067 30.130447 
L 232.270198 30.130447 
L 232.270198 29.775812 
L 235.931093 29.775812 
L 235.931093 29.421176 
L 236.370581 29.421176 
L 236.370581 29.066541 
L 237.55366 29.066541 
L 237.55366 28.711906 
L 238.389522 28.711906 
L 238.389522 28.357271 
L 239.463885 28.357271 
L 239.463885 28.002635 
L 240.399358 28.002635 
L 240.399358 27.648 
L 360.8064 27.648 
L 360.8064 27.648 
" style="fill:none;stroke:#ff00ff;stroke-linecap:square;stroke-width:1.5;"/>
   </g>
   <g id="line2d_40">
    <defs>
     <path d="M -0 8.485281 
L 5.091169 0 
L 0 -8.485281 
L -5.091169 -0 
z
" id="m01e4bc9c3f" style="stroke:#ff00ff;stroke-linejoin:miter;stroke-width:1.5;"/>
    </defs>
    <g>
     <use style="fill-opacity:0;stroke:#ff00ff;stroke-linejoin:miter;stroke-width:1.5;" x="78.266603" xlink:href="#m01e4bc9c3f" y="262.416565"/>
     <use style="fill-opacity:0;stroke:#ff00ff;stroke-linejoin:miter;stroke-width:1.5;" x="153.593669" xlink:href="#m01e4bc9c3f" y="181.205082"/>
     <use style="fill-opacity:0;stroke:#ff00ff;stroke-linejoin:miter;stroke-width:1.5;" x="195.922885" xlink:href="#m01e4bc9c3f" y="87.226729"/>
     <use style="fill-opacity:0;stroke:#ff00ff;stroke-linejoin:miter;stroke-width:1.5;" x="240.399358" xlink:href="#m01e4bc9c3f" y="28.002635"/>
     <use style="fill-opacity:0;stroke:#ff00ff;stroke-linejoin:miter;stroke-width:1.5;" x="240.399358" xlink:href="#m01e4bc9c3f" y="27.648"/>
     <use style="fill-opacity:0;stroke:#ff00ff;stroke-linejoin:miter;stroke-width:1.5;" x="360.8064" xlink:href="#m01e4bc9c3f" y="27.648"/>
    </g>
   </g>
   <g id="line2d_41">
    <path style="fill:none;stroke:#ff00ff;stroke-linecap:square;stroke-width:1.5;"/>
    <g/>
   </g>
   <g id="line2d_42">
    <path clip-path="url(#p8333d0476a)" d="M 144.510478 209.575906 
" style="fill:none;stroke:#ff00ff;stroke-linecap:square;stroke-width:1.5;"/>
    <defs>
     <path d="M -12 12 
L 12 -12 
M -12 -12 
L 12 12 
" id="m235df32f12" style="stroke:#ff00ff;"/>
    </defs>
    <g clip-path="url(#p8333d0476a)">
     <use style="fill:#ff00ff;stroke:#ff00ff;" x="144.510478" xlink:href="#m235df32f12" y="209.575906"/>
    </g>
   </g>
   <g id="line2d_43">
    <defs>
     <path d="M 0 1.5 
C 0.397805 1.5 0.77937 1.341951 1.06066 1.06066 
C 1.341951 0.77937 1.5 0.397805 1.5 0 
C 1.5 -0.397805 1.341951 -0.77937 1.06066 -1.06066 
C 0.77937 -1.341951 0.397805 -1.5 0 -1.5 
C -0.397805 -1.5 -0.77937 -1.341951 -1.06066 -1.06066 
C -1.341951 -0.77937 -1.5 -0.397805 -1.5 0 
C -1.5 0.397805 -1.341951 0.77937 -1.06066 1.06066 
C -0.77937 1.341951 -0.397805 1.5 0 1.5 
z
" id="mb101641840" style="stroke:#ff7500;"/>
    </defs>
    <g>
     <use style="fill:#ff7500;stroke:#ff7500;" x="266.561218" xlink:href="#mb101641840" y="80.843294"/>
     <use style="fill:#ff7500;stroke:#ff7500;" x="266.561218" xlink:href="#mb101641840" y="80.843294"/>
    </g>
   </g>
   <g id="line2d_44">
    <path d="M 44.560826 298.944 
L 44.560826 275.183435 
L 57.6 275.183435 
L 57.6 270.927812 
L 65.227428 270.927812 
L 65.227428 268.445365 
L 70.639174 268.445365 
L 70.639174 266.672188 
L 74.836851 266.672188 
L 74.836851 265.962918 
L 78.266603 265.962918 
L 78.266603 265.608282 
L 92.811505 265.608282 
L 92.811505 265.253647 
L 96.717523 265.253647 
L 96.717523 264.899012 
L 103.544339 264.899012 
L 103.544339 264.544376 
L 109.756698 264.544376 
L 109.756698 264.189741 
L 110.335561 264.189741 
L 110.335561 263.835106 
L 111.97238 263.835106 
L 111.97238 263.480471 
L 120.28394 263.480471 
L 120.28394 263.125835 
L 126.517282 263.125835 
L 126.517282 262.7712 
L 126.756923 262.7712 
L 126.756923 262.416565 
L 126.993549 262.416565 
L 126.993549 262.061929 
L 127.686077 262.061929 
L 127.686077 261.707294 
L 129.826058 261.707294 
L 129.826058 260.998024 
L 132.109044 260.998024 
L 132.109044 260.643388 
L 134.14471 260.643388 
L 134.14471 260.288753 
L 136.555884 260.288753 
L 136.555884 259.934118 
L 141.718467 259.934118 
L 141.825656 258.515576 
L 144.786447 258.515576 
L 144.786447 258.160941 
L 146.941151 258.160941 
L 146.941151 257.806306 
L 148.800595 257.806306 
L 148.800595 256.7424 
L 156.055505 256.7424 
L 156.055505 256.387765 
L 160.660094 256.387765 
L 160.660094 255.678494 
L 166.689935 255.678494 
L 166.689935 255.323859 
L 167.334325 255.323859 
L 167.334325 254.969224 
L 167.661966 254.969224 
L 167.661966 254.614588 
L 170.887612 254.614588 
L 170.887612 254.259953 
L 171.951446 254.259953 
L 171.994493 253.196047 
L 172.250727 253.196047 
L 172.250727 252.841412 
L 174.260272 252.841412 
L 174.260272 252.486776 
L 175.655719 252.486776 
L 175.743995 251.777506 
L 175.936756 251.777506 
L 175.971592 251.068235 
L 176.144812 251.068235 
L 176.144812 250.7136 
L 178.446509 250.7136 
L 178.446509 250.358965 
L 178.958215 250.358965 
L 178.958215 250.004329 
L 179.485266 250.004329 
L 179.485266 248.585788 
L 180.768686 248.585788 
L 180.768686 248.231153 
L 182.221437 248.231153 
L 182.296185 246.457976 
L 184.675548 246.457976 
L 184.74117 245.039435 
L 185.119467 245.039435 
L 185.119467 242.911624 
L 185.91562 242.911624 
L 185.91562 242.556988 
L 186.311454 242.556988 
L 186.311454 242.202353 
L 186.679442 242.202353 
L 186.758069 241.138447 
L 186.846134 241.138447 
L 186.846134 240.429176 
L 187.04037 240.429176 
L 187.04037 240.074541 
L 187.184741 240.074541 
L 187.289914 239.365271 
L 187.5456 239.365271 
L 187.60195 238.301365 
L 188.265306 238.301365 
L 188.265306 237.946729 
L 188.543867 237.946729 
L 188.543867 237.592094 
L 189.045539 237.592094 
L 189.088913 234.755012 
L 189.278582 234.755012 
L 189.278582 234.400376 
L 189.584883 234.400376 
L 189.584883 234.045741 
L 190.264493 234.045741 
L 190.264493 233.691106 
L 190.458846 233.691106 
L 190.458846 233.336471 
L 191.232248 233.336471 
L 191.232248 232.981835 
L 191.630067 232.981835 
L 191.630067 232.6272 
L 192.034471 232.6272 
L 192.034471 232.272565 
L 192.226127 232.272565 
L 192.226127 231.917929 
L 192.704044 231.917929 
L 192.803878 231.208659 
L 193.309105 231.208659 
L 193.309105 230.854024 
L 194.606506 230.854024 
L 194.606506 230.499388 
L 195.92891 230.499388 
L 195.92891 230.144753 
L 196.132604 230.144753 
L 196.132604 229.080847 
L 196.298711 229.080847 
L 196.298711 228.726212 
L 196.585916 228.726212 
L 196.661383 228.016941 
L 197.209498 228.016941 
L 197.24323 227.307671 
L 198.029795 227.307671 
L 198.029795 226.953035 
L 198.196056 226.953035 
L 198.196056 226.5984 
L 198.482209 226.5984 
L 198.53997 225.534494 
L 198.732964 225.534494 
L 198.732964 225.179859 
L 199.097849 225.179859 
L 199.113112 224.115953 
L 199.224663 224.115953 
L 199.224663 223.761318 
L 199.355649 223.761318 
L 199.435805 223.052047 
L 199.580223 223.052047 
L 199.639659 222.342776 
L 199.698908 222.342776 
L 199.698908 221.988141 
L 200.026329 221.988141 
L 200.026329 221.633506 
L 200.180721 221.633506 
L 200.180721 221.278871 
L 200.457366 221.278871 
L 200.457366 220.924235 
L 200.655186 220.924235 
L 200.720666 220.214965 
L 201.444277 220.214965 
L 201.444277 219.860329 
L 201.556264 219.860329 
L 201.556264 219.505694 
L 202.084713 219.505694 
L 202.084713 219.151059 
L 202.21885 219.151059 
L 202.270518 218.441788 
L 202.458764 218.441788 
L 202.458764 218.087153 
L 202.812993 218.087153 
L 202.812993 217.732518 
L 203.111398 217.732518 
L 203.111398 217.377882 
L 203.283306 217.377882 
L 203.324006 216.668612 
L 203.582422 216.668612 
L 203.582422 216.313976 
L 203.920232 216.313976 
L 204.02628 215.604706 
L 204.065405 215.604706 
L 204.166752 214.895435 
L 204.290742 214.895435 
L 204.290742 214.5408 
L 204.718383 214.5408 
L 204.801253 213.831529 
L 204.838801 213.831529 
L 204.928612 212.767624 
L 205.268968 212.767624 
L 205.312912 211.703718 
L 205.75394 211.703718 
L 205.764656 210.994447 
L 205.87148 210.994447 
L 205.87148 210.639812 
L 206.191849 210.639812 
L 206.191849 210.285176 
L 206.337891 210.285176 
L 206.341355 209.575906 
L 206.482808 209.575906 
L 206.482808 209.221271 
L 206.870619 209.221271 
L 206.870619 208.866635 
L 207.09154 208.866635 
L 207.111496 208.157365 
L 207.447543 208.157365 
L 207.463863 207.448094 
L 207.889657 207.448094 
L 207.889657 207.093459 
L 208.12736 207.093459 
L 208.193382 206.029553 
L 208.67365 206.029553 
L 208.734736 205.320282 
L 209.013207 205.320282 
L 209.013207 204.965647 
L 209.502539 204.965647 
L 209.546399 204.256376 
L 209.767065 204.256376 
L 209.767065 203.901741 
L 210.03077 203.901741 
L 210.087611 203.192471 
L 210.149938 203.192471 
L 210.149938 202.837835 
L 210.784002 202.837835 
L 210.784002 202.4832 
L 210.90666 202.4832 
L 210.90666 202.128565 
L 211.829135 202.128565 
L 211.829135 201.773929 
L 211.955466 201.773929 
L 211.955466 201.419294 
L 212.258782 201.419294 
L 212.281524 200.710024 
L 212.559773 200.710024 
L 212.559773 200.355388 
L 212.775019 200.355388 
L 212.775019 200.000753 
L 212.902505 200.000753 
L 212.902505 199.646118 
L 213.09213 199.646118 
L 213.106637 198.936847 
L 213.212686 198.936847 
L 213.291832 198.227576 
L 213.663881 198.227576 
L 213.663881 197.872941 
L 213.920237 197.872941 
L 214.024111 196.809035 
L 214.404662 196.809035 
L 214.449725 195.390494 
L 214.726731 195.390494 
L 214.824052 194.681224 
L 215.034656 194.681224 
L 215.097815 193.971953 
L 215.165096 193.971953 
L 215.20189 193.262682 
L 215.311843 193.262682 
L 215.350496 192.553412 
L 215.427567 192.553412 
L 215.478772 191.844141 
L 215.804064 191.844141 
L 215.895981 190.780235 
L 216.444318 190.780235 
L 216.541222 190.070965 
L 216.665656 190.070965 
L 216.75944 189.361694 
L 216.781322 189.361694 
L 216.781322 189.007059 
L 216.923924 189.007059 
L 217.008577 187.943153 
L 217.252519 187.943153 
L 217.252519 187.588518 
L 217.437742 187.588518 
L 217.497166 186.524612 
L 217.666735 186.524612 
L 217.666735 186.169976 
L 217.954716 186.169976 
L 217.954716 185.815341 
L 218.437846 185.815341 
L 218.437846 185.460706 
L 218.557619 185.460706 
L 218.577507 184.751435 
L 218.857318 184.751435 
L 218.873335 184.042165 
L 219.089115 184.042165 
L 219.089115 183.687529 
L 219.468631 183.687529 
L 219.530574 182.623624 
L 219.698169 182.623624 
L 219.698169 182.268988 
L 219.857532 182.268988 
L 219.946794 180.850447 
L 220.012208 180.850447 
L 220.109072 180.141176 
L 220.129051 180.141176 
L 220.129051 179.786541 
L 220.26831 179.786541 
L 220.365511 178.722635 
L 220.718752 178.722635 
L 220.828093 177.658729 
L 220.832903 177.658729 
L 220.93202 176.949459 
L 221.038548 176.949459 
L 221.038548 176.594824 
L 221.186994 176.594824 
L 221.212145 175.885553 
L 221.382599 175.885553 
L 221.461825 175.176282 
L 221.498993 175.176282 
L 221.512912 174.467012 
L 221.646934 174.467012 
L 221.646934 174.112376 
L 221.866687 174.112376 
L 221.872755 173.403106 
L 221.999728 173.403106 
L 221.999728 173.048471 
L 222.197541 173.048471 
L 222.263019 171.984565 
L 222.334191 171.984565 
L 222.393296 171.275294 
L 222.497751 171.275294 
L 222.546105 170.566024 
L 222.659902 170.566024 
L 222.761445 169.502118 
L 222.819225 169.502118 
L 222.928519 168.438212 
L 223.079904 168.438212 
L 223.165056 167.374306 
L 223.244185 167.374306 
L 223.345436 166.665035 
L 223.384665 166.665035 
L 223.451725 165.246494 
L 223.608656 165.246494 
L 223.608656 164.891859 
L 223.939041 164.891859 
L 224.042036 164.182588 
L 224.085235 164.182588 
L 224.190117 163.118682 
L 224.37293 163.118682 
L 224.482827 162.054776 
L 224.705933 162.054776 
L 224.735916 161.345506 
L 224.938025 161.345506 
L 224.962493 160.2816 
L 225.075407 160.2816 
L 225.075407 159.926965 
L 225.213062 159.926965 
L 225.213062 159.572329 
L 225.591481 159.572329 
L 225.674688 158.508424 
L 225.893974 158.508424 
L 225.953893 157.799153 
L 226.037946 157.799153 
L 226.113154 157.089882 
L 226.195295 157.089882 
L 226.219386 156.380612 
L 226.427688 156.380612 
L 226.496612 155.671341 
L 226.650186 155.671341 
L 226.746415 153.898165 
L 226.785003 153.898165 
L 226.886357 152.834259 
L 227.112712 152.834259 
L 227.195184 152.124988 
L 227.29322 152.124988 
L 227.365848 151.415718 
L 227.405447 151.415718 
L 227.405447 151.061082 
L 227.568621 151.061082 
L 227.582062 149.997176 
L 227.718168 149.997176 
L 227.741497 149.287906 
L 227.840048 149.287906 
L 227.914999 147.869365 
L 228.182593 147.869365 
L 228.265914 146.805459 
L 228.697131 146.805459 
L 228.697131 146.450824 
L 228.848473 146.450824 
L 228.848473 146.096188 
L 229.137248 146.096188 
L 229.14034 145.386918 
L 229.252348 145.386918 
L 229.343312 143.968376 
L 229.401339 143.968376 
L 229.490575 143.259106 
L 229.541089 143.259106 
L 229.625649 142.1952 
L 229.791647 142.1952 
L 229.847317 141.485929 
L 229.916674 141.485929 
L 229.916674 141.131294 
L 230.123223 141.131294 
L 230.174996 140.422024 
L 230.268412 140.422024 
L 230.372953 139.003482 
L 230.568848 139.003482 
L 230.586036 138.294212 
L 230.708754 138.294212 
L 230.708754 137.939576 
L 230.847627 137.939576 
L 230.871144 137.230306 
L 230.976137 137.230306 
L 231.02282 136.1664 
L 231.191776 136.1664 
L 231.278449 135.102494 
L 231.437838 135.102494 
L 231.479751 134.393224 
L 231.678923 134.393224 
L 231.678923 134.038588 
L 232.042804 134.038588 
L 232.042804 133.683953 
L 232.169571 133.683953 
L 232.169571 133.329318 
L 232.424032 133.329318 
L 232.438741 132.620047 
L 232.572325 132.620047 
L 232.658007 131.201506 
L 232.929598 131.201506 
L 233.023736 130.1376 
L 233.097372 130.1376 
L 233.12908 129.428329 
L 233.24047 129.428329 
L 233.271939 128.719059 
L 233.3545 128.719059 
L 233.3545 128.364424 
L 233.47603 128.364424 
L 233.47603 128.009788 
L 233.844006 128.009788 
L 233.844006 127.655153 
L 234.029303 127.655153 
L 234.132341 126.591247 
L 234.231673 126.591247 
L 234.253676 125.881976 
L 234.420995 125.881976 
L 234.478509 124.818071 
L 234.589154 124.818071 
L 234.589154 124.463435 
L 234.880812 124.463435 
L 234.880812 124.1088 
L 235.0276 124.1088 
L 235.114077 123.044894 
L 235.244168 123.044894 
L 235.244168 122.690259 
L 235.405157 122.690259 
L 235.405157 122.335624 
L 235.559653 122.335624 
L 235.559653 121.980988 
L 235.816527 121.980988 
L 235.879301 121.271718 
L 235.949761 121.271718 
L 236.019959 120.562447 
L 236.085621 120.562447 
L 236.085621 120.207812 
L 236.322097 120.207812 
L 236.322097 119.853176 
L 236.439928 119.853176 
L 236.481134 119.143906 
L 236.648522 119.143906 
L 236.648522 118.789271 
L 237.135867 118.789271 
L 237.135867 118.434635 
L 237.382202 118.434635 
L 237.382202 118.08 
L 237.515399 118.08 
L 237.515399 117.725365 
L 237.677798 117.725365 
L 237.758801 115.952188 
L 238.019677 115.952188 
L 238.085135 115.242918 
L 238.318158 115.242918 
L 238.318158 114.888282 
L 238.44114 114.888282 
L 238.485093 113.824376 
L 238.768924 113.824376 
L 238.768924 113.469741 
L 239.035141 113.469741 
L 239.128101 112.760471 
L 239.150512 112.760471 
L 239.150512 112.405835 
L 239.474599 112.405835 
L 239.570746 111.696565 
L 239.755717 111.696565 
L 239.755717 111.341929 
L 239.945852 111.341929 
L 239.945852 110.987294 
L 240.127189 110.987294 
L 240.127189 110.632659 
L 240.502739 110.632659 
L 240.57808 109.568753 
L 240.613957 109.568753 
L 240.704467 108.859482 
L 240.836654 108.859482 
L 240.836654 108.504847 
L 240.973414 108.504847 
L 241.009094 107.440941 
L 241.571497 107.440941 
L 241.571497 107.086306 
L 241.898636 107.086306 
L 241.92895 106.0224 
L 242.220182 106.0224 
L 242.287424 105.313129 
L 242.366676 105.313129 
L 242.366676 104.958494 
L 242.487719 104.958494 
L 242.502922 104.249224 
L 243.061865 104.249224 
L 243.061865 103.894588 
L 243.551097 103.894588 
L 243.551097 103.539953 
L 243.800481 103.539953 
L 243.895741 102.121412 
L 243.915018 102.121412 
L 243.99988 101.412141 
L 244.287702 101.412141 
L 244.366775 100.702871 
L 244.544392 100.702871 
L 244.642751 99.638965 
L 244.663535 99.638965 
L 244.663535 99.284329 
L 244.946346 99.284329 
L 244.946346 98.929694 
L 245.311554 98.929694 
L 245.311554 98.575059 
L 245.467534 98.575059 
L 245.556026 97.865788 
L 245.687348 97.865788 
L 245.687348 97.511153 
L 245.815211 97.511153 
L 245.876278 96.801882 
L 245.936725 96.801882 
L 246.022203 96.092612 
L 246.090976 96.092612 
L 246.090976 95.737976 
L 246.53034 95.737976 
L 246.53034 95.383341 
L 246.744616 95.383341 
L 246.840189 94.674071 
L 247.029095 94.674071 
L 247.055359 93.9648 
L 247.149766 93.9648 
L 247.149766 93.610165 
L 247.540562 93.610165 
L 247.639897 92.900894 
L 248.13073 92.900894 
L 248.13073 92.546259 
L 248.662828 92.546259 
L 248.733887 91.127718 
L 249.26145 91.127718 
L 249.26145 90.773082 
L 249.76877 90.773082 
L 249.76877 90.418447 
L 250.277515 90.418447 
L 250.325368 89.709176 
L 250.517228 89.709176 
L 250.521197 88.999906 
L 250.733659 88.999906 
L 250.733659 88.645271 
L 250.978644 88.645271 
L 251.067528 87.936 
L 251.6552 87.936 
L 251.668896 87.226729 
L 251.812731 87.226729 
L 251.812731 86.872094 
L 251.943825 86.872094 
L 251.943825 86.517459 
L 252.574664 86.517459 
L 252.574664 86.162824 
L 253.582713 86.162824 
L 253.681393 85.453553 
L 253.835105 85.453553 
L 253.835105 85.098918 
L 254.178067 85.098918 
L 254.178067 84.744282 
L 254.562441 84.744282 
L 254.578709 84.035012 
L 254.755684 84.035012 
L 254.755684 83.680376 
L 255.530189 83.680376 
L 255.622717 82.971106 
L 256.349915 82.971106 
L 256.349915 82.616471 
L 256.548304 82.616471 
L 256.548304 82.261835 
L 256.794924 82.261835 
L 256.794924 81.9072 
L 257.062664 81.9072 
L 257.062664 81.552565 
L 262.807084 81.552565 
L 262.807084 81.197929 
L 266.561218 81.197929 
L 266.561218 80.843294 
L 360.8064 80.843294 
L 360.8064 80.843294 
" style="fill:none;stroke:#ff7500;stroke-linecap:square;stroke-width:1.5;"/>
   </g>
   <g id="line2d_45">
    <defs>
     <path d="M 0 -6 
L -1.347084 -1.854102 
L -5.706339 -1.854102 
L -2.179628 0.708204 
L -3.526712 4.854102 
L -0 2.291796 
L 3.526712 4.854102 
L 2.179628 0.708204 
L 5.706339 -1.854102 
L 1.347084 -1.854102 
z
" id="md7844e047f" style="stroke:#ff7500;stroke-linejoin:bevel;stroke-width:1.5;"/>
    </defs>
    <g>
     <use style="fill-opacity:0;stroke:#ff7500;stroke-linejoin:bevel;stroke-width:1.5;" x="144.786447" xlink:href="#md7844e047f" y="258.160941"/>
     <use style="fill-opacity:0;stroke:#ff7500;stroke-linejoin:bevel;stroke-width:1.5;" x="213.920237" xlink:href="#md7844e047f" y="197.518306"/>
     <use style="fill-opacity:0;stroke:#ff7500;stroke-linejoin:bevel;stroke-width:1.5;" x="243.99988" xlink:href="#md7844e047f" y="101.766776"/>
     <use style="fill-opacity:0;stroke:#ff7500;stroke-linejoin:bevel;stroke-width:1.5;" x="266.561218" xlink:href="#md7844e047f" y="80.843294"/>
     <use style="fill-opacity:0;stroke:#ff7500;stroke-linejoin:bevel;stroke-width:1.5;" x="266.561218" xlink:href="#md7844e047f" y="80.843294"/>
     <use style="fill-opacity:0;stroke:#ff7500;stroke-linejoin:bevel;stroke-width:1.5;" x="360.8064" xlink:href="#md7844e047f" y="80.843294"/>
    </g>
   </g>
   <g id="line2d_46">
    <path style="fill:none;stroke:#ff7500;stroke-linecap:square;stroke-width:1.5;"/>
    <g/>
   </g>
   <g id="line2d_47">
    <path clip-path="url(#p8333d0476a)" d="M 184.860885 245.039435 
" style="fill:none;stroke:#ff7500;stroke-linecap:square;stroke-width:1.5;"/>
    <defs>
     <path d="M -12 12 
L 12 -12 
M -12 -12 
L 12 12 
" id="mc869c800b1" style="stroke:#ff7500;"/>
    </defs>
    <g clip-path="url(#p8333d0476a)">
     <use style="fill:#ff7500;stroke:#ff7500;" x="184.860885" xlink:href="#mc869c800b1" y="245.039435"/>
    </g>
   </g>
   <g id="line2d_48">
    <path d="M 360.8064 80.843294 
L 380.514816 293.51808 
" style="fill:none;stroke:#ff7500;stroke-linecap:square;stroke-width:1.5;"/>
    <g>
     <use style="fill-opacity:0;stroke:#ff7500;stroke-linejoin:bevel;stroke-width:1.5;" x="360.8064" xlink:href="#md7844e047f" y="80.843294"/>
     <use style="fill-opacity:0;stroke:#ff7500;stroke-linejoin:bevel;stroke-width:1.5;" x="380.514816" xlink:href="#md7844e047f" y="293.51808"/>
    </g>
   </g>
   <g id="line2d_49">
    <path d="M 360.8064 27.648 
L 380.514816 206.70336 
" style="fill:none;stroke:#ff00ff;stroke-linecap:square;stroke-width:1.5;"/>
    <g>
     <use style="fill-opacity:0;stroke:#ff00ff;stroke-linejoin:miter;stroke-width:1.5;" x="360.8064" xlink:href="#m01e4bc9c3f" y="27.648"/>
     <use style="fill-opacity:0;stroke:#ff00ff;stroke-linejoin:miter;stroke-width:1.5;" x="380.514816" xlink:href="#m01e4bc9c3f" y="206.70336"/>
    </g>
   </g>
   <g id="line2d_50">
    <path d="M 360.8064 27.648 
L 380.514816 119.88864 
" style="fill:none;stroke:#000080;stroke-linecap:square;stroke-width:1.5;"/>
    <g>
     <use style="fill-opacity:0;stroke:#000080;stroke-width:1.5;" x="360.8064" xlink:href="#m63bbf88fca" y="27.648"/>
     <use style="fill-opacity:0;stroke:#000080;stroke-width:1.5;" x="380.514816" xlink:href="#m63bbf88fca" y="119.88864"/>
    </g>
   </g>
   <g id="line2d_51">
    <path d="M 360.8064 298.944 
L 360.8064 27.648 
" style="fill:none;stroke:#000000;stroke-linecap:square;stroke-width:1.5;"/>
   </g>
   <g id="patch_3">
    <path d="M 57.6 298.944 
L 360.8064 298.944 
" style="fill:none;stroke:#000000;stroke-linecap:square;stroke-linejoin:miter;stroke-width:0.8;"/>
   </g>
   <g id="patch_4">
    <path d="M 57.6 27.648 
L 360.8064 27.648 
" style="fill:none;stroke:#000000;stroke-linecap:square;stroke-linejoin:miter;stroke-width:0.8;"/>
   </g>
   <g id="text_13">
    <!-- diffcma b -->
    <g transform="translate(386.578944 297.381205)scale(0.14 -0.14)">
     <defs>
      <path d="M 3116 1747 
Q 3116 2381 2855 2742 
Q 2594 3103 2138 3103 
Q 1681 3103 1420 2742 
Q 1159 2381 1159 1747 
Q 1159 1113 1420 752 
Q 1681 391 2138 391 
Q 2594 391 2855 752 
Q 3116 1113 3116 1747 
z
M 1159 2969 
Q 1341 3281 1617 3432 
Q 1894 3584 2278 3584 
Q 2916 3584 3314 3078 
Q 3713 2572 3713 1747 
Q 3713 922 3314 415 
Q 2916 -91 2278 -91 
Q 1894 -91 1617 61 
Q 1341 213 1159 525 
L 1159 0 
L 581 0 
L 581 4863 
L 1159 4863 
L 1159 2969 
z
" id="DejaVuSans-62" transform="scale(0.015625)"/>
     </defs>
     <use xlink:href="#DejaVuSans-64"/>
     <use x="63.476562" xlink:href="#DejaVuSans-69"/>
     <use x="91.259766" xlink:href="#DejaVuSans-66"/>
     <use x="126.464844" xlink:href="#DejaVuSans-66"/>
     <use x="161.669922" xlink:href="#DejaVuSans-63"/>
     <use x="216.650391" xlink:href="#DejaVuSans-6d"/>
     <use x="314.0625" xlink:href="#DejaVuSans-61"/>
     <use x="375.341797" xlink:href="#DejaVuSans-20"/>
     <use x="407.128906" xlink:href="#DejaVuSans-62"/>
    </g>
   </g>
   <g id="text_14">
    <!-- cma.fmin  -->
    <g transform="translate(386.578944 210.566485)scale(0.14 -0.14)">
     <use xlink:href="#DejaVuSans-63"/>
     <use x="54.980469" xlink:href="#DejaVuSans-6d"/>
     <use x="152.392578" xlink:href="#DejaVuSans-61"/>
     <use x="213.671875" xlink:href="#DejaVuSans-2e"/>
     <use x="245.458984" xlink:href="#DejaVuSans-66"/>
     <use x="280.664062" xlink:href="#DejaVuSans-6d"/>
     <use x="378.076172" xlink:href="#DejaVuSans-69"/>
     <use x="405.859375" xlink:href="#DejaVuSans-6e"/>
     <use x="469.238281" xlink:href="#DejaVuSans-20"/>
    </g>
   </g>
   <g id="text_15">
    <!-- different -->
    <g transform="translate(386.578944 123.751765)scale(0.14 -0.14)">
     <use xlink:href="#DejaVuSans-64"/>
     <use x="63.476562" xlink:href="#DejaVuSans-69"/>
     <use x="91.259766" xlink:href="#DejaVuSans-66"/>
     <use x="126.464844" xlink:href="#DejaVuSans-66"/>
     <use x="161.669922" xlink:href="#DejaVuSans-65"/>
     <use x="223.193359" xlink:href="#DejaVuSans-72"/>
     <use x="262.056641" xlink:href="#DejaVuSans-65"/>
     <use x="323.580078" xlink:href="#DejaVuSans-6e"/>
     <use x="386.958984" xlink:href="#DejaVuSans-74"/>
    </g>
   </g>
   <g id="text_16">
    <!-- best 2009 -->
    <g transform="translate(386.578944 36.937045)scale(0.14 -0.14)">
     <defs>
      <path d="M 703 97 
L 703 672 
Q 941 559 1184 500 
Q 1428 441 1663 441 
Q 2288 441 2617 861 
Q 2947 1281 2994 2138 
Q 2813 1869 2534 1725 
Q 2256 1581 1919 1581 
Q 1219 1581 811 2004 
Q 403 2428 403 3163 
Q 403 3881 828 4315 
Q 1253 4750 1959 4750 
Q 2769 4750 3195 4129 
Q 3622 3509 3622 2328 
Q 3622 1225 3098 567 
Q 2575 -91 1691 -91 
Q 1453 -91 1209 -44 
Q 966 3 703 97 
z
M 1959 2075 
Q 2384 2075 2632 2365 
Q 2881 2656 2881 3163 
Q 2881 3666 2632 3958 
Q 2384 4250 1959 4250 
Q 1534 4250 1286 3958 
Q 1038 3666 1038 3163 
Q 1038 2656 1286 2365 
Q 1534 2075 1959 2075 
z
" id="DejaVuSans-39" transform="scale(0.015625)"/>
     </defs>
     <use xlink:href="#DejaVuSans-62"/>
     <use x="63.476562" xlink:href="#DejaVuSans-65"/>
     <use x="125" xlink:href="#DejaVuSans-73"/>
     <use x="177.099609" xlink:href="#DejaVuSans-74"/>
     <use x="216.308594" xlink:href="#DejaVuSans-20"/>
     <use x="248.095703" xlink:href="#DejaVuSans-32"/>
     <use x="311.71875" xlink:href="#DejaVuSans-30"/>
     <use x="375.341797" xlink:href="#DejaVuSans-30"/>
     <use x="438.964844" xlink:href="#DejaVuSans-39"/>
    </g>
   </g>
   <g id="text_17">
    <!-- bbob f17, 2-D -->
    <g transform="translate(60.632064 38.111366)scale(0.102 -0.102)">
     <defs>
      <path d="M 525 4666 
L 3525 4666 
L 3525 4397 
L 1831 0 
L 1172 0 
L 2766 4134 
L 525 4134 
L 525 4666 
z
" id="DejaVuSans-37" transform="scale(0.015625)"/>
      <path d="M 1259 4147 
L 1259 519 
L 2022 519 
Q 2988 519 3436 956 
Q 3884 1394 3884 2338 
Q 3884 3275 3436 3711 
Q 2988 4147 2022 4147 
L 1259 4147 
z
M 628 4666 
L 1925 4666 
Q 3281 4666 3915 4102 
Q 4550 3538 4550 2338 
Q 4550 1131 3912 565 
Q 3275 0 1925 0 
L 628 0 
L 628 4666 
z
" id="DejaVuSans-44" transform="scale(0.015625)"/>
     </defs>
     <use xlink:href="#DejaVuSans-62"/>
     <use x="63.476562" xlink:href="#DejaVuSans-62"/>
     <use x="126.953125" xlink:href="#DejaVuSans-6f"/>
     <use x="188.134766" xlink:href="#DejaVuSans-62"/>
     <use x="251.611328" xlink:href="#DejaVuSans-20"/>
     <use x="283.398438" xlink:href="#DejaVuSans-66"/>
     <use x="318.603516" xlink:href="#DejaVuSans-31"/>
     <use x="382.226562" xlink:href="#DejaVuSans-37"/>
     <use x="445.849609" xlink:href="#DejaVuSans-2c"/>
     <use x="477.636719" xlink:href="#DejaVuSans-20"/>
     <use x="509.423828" xlink:href="#DejaVuSans-32"/>
     <use x="573.046875" xlink:href="#DejaVuSans-2d"/>
     <use x="609.130859" xlink:href="#DejaVuSans-44"/>
    </g>
    <!-- 51 targets: 100..1e-08 -->
    <g transform="translate(60.632064 49.533135)scale(0.102 -0.102)">
     <defs>
      <path d="M 691 4666 
L 3169 4666 
L 3169 4134 
L 1269 4134 
L 1269 2991 
Q 1406 3038 1543 3061 
Q 1681 3084 1819 3084 
Q 2600 3084 3056 2656 
Q 3513 2228 3513 1497 
Q 3513 744 3044 326 
Q 2575 -91 1722 -91 
Q 1428 -91 1123 -41 
Q 819 9 494 109 
L 494 744 
Q 775 591 1075 516 
Q 1375 441 1709 441 
Q 2250 441 2565 725 
Q 2881 1009 2881 1497 
Q 2881 1984 2565 2268 
Q 2250 2553 1709 2553 
Q 1456 2553 1204 2497 
Q 953 2441 691 2322 
L 691 4666 
z
" id="DejaVuSans-35" transform="scale(0.015625)"/>
      <path d="M 750 794 
L 1409 794 
L 1409 0 
L 750 0 
L 750 794 
z
M 750 3309 
L 1409 3309 
L 1409 2516 
L 750 2516 
L 750 3309 
z
" id="DejaVuSans-3a" transform="scale(0.015625)"/>
     </defs>
     <use xlink:href="#DejaVuSans-35"/>
     <use x="63.623047" xlink:href="#DejaVuSans-31"/>
     <use x="127.246094" xlink:href="#DejaVuSans-20"/>
     <use x="159.033203" xlink:href="#DejaVuSans-74"/>
     <use x="198.242188" xlink:href="#DejaVuSans-61"/>
     <use x="259.521484" xlink:href="#DejaVuSans-72"/>
     <use x="298.884766" xlink:href="#DejaVuSans-67"/>
     <use x="362.361328" xlink:href="#DejaVuSans-65"/>
     <use x="423.884766" xlink:href="#DejaVuSans-74"/>
     <use x="463.09375" xlink:href="#DejaVuSans-73"/>
     <use x="515.193359" xlink:href="#DejaVuSans-3a"/>
     <use x="548.884766" xlink:href="#DejaVuSans-20"/>
     <use x="580.671875" xlink:href="#DejaVuSans-31"/>
     <use x="644.294922" xlink:href="#DejaVuSans-30"/>
     <use x="707.917969" xlink:href="#DejaVuSans-30"/>
     <use x="771.541016" xlink:href="#DejaVuSans-2e"/>
     <use x="803.328125" xlink:href="#DejaVuSans-2e"/>
     <use x="835.115234" xlink:href="#DejaVuSans-31"/>
     <use x="898.738281" xlink:href="#DejaVuSans-65"/>
     <use x="960.261719" xlink:href="#DejaVuSans-2d"/>
     <use x="996.345703" xlink:href="#DejaVuSans-30"/>
     <use x="1059.96875" xlink:href="#DejaVuSans-38"/>
    </g>
    <!-- 15 instances -->
    <g transform="translate(60.632064 60.954904)scale(0.102 -0.102)">
     <use xlink:href="#DejaVuSans-31"/>
     <use x="63.623047" xlink:href="#DejaVuSans-35"/>
     <use x="127.246094" xlink:href="#DejaVuSans-20"/>
     <use x="159.033203" xlink:href="#DejaVuSans-69"/>
     <use x="186.816406" xlink:href="#DejaVuSans-6e"/>
     <use x="250.195312" xlink:href="#DejaVuSans-73"/>
     <use x="302.294922" xlink:href="#DejaVuSans-74"/>
     <use x="341.503906" xlink:href="#DejaVuSans-61"/>
     <use x="402.783203" xlink:href="#DejaVuSans-6e"/>
     <use x="466.162109" xlink:href="#DejaVuSans-63"/>
     <use x="521.142578" xlink:href="#DejaVuSans-65"/>
     <use x="582.666016" xlink:href="#DejaVuSans-73"/>
    </g>
   </g>
   <g id="text_18">
    <!-- v2.6 -->
    <g style="fill:#808080;" transform="translate(198.292262 294.151352)scale(0.1 -0.1)">
     <use xlink:href="#DejaVuSans-76"/>
     <use x="59.179688" xlink:href="#DejaVuSans-32"/>
     <use x="122.802734" xlink:href="#DejaVuSans-2e"/>
     <use x="154.589844" xlink:href="#DejaVuSans-36"/>
    </g>
   </g>
   <g id="text_19">
    <!-- 17 Schaffer F7, condition 10 -->
    <g transform="translate(67.895387 21.648)scale(0.2 -0.2)">
     <defs>
      <path d="M 3425 4513 
L 3425 3897 
Q 3066 4069 2747 4153 
Q 2428 4238 2131 4238 
Q 1616 4238 1336 4038 
Q 1056 3838 1056 3469 
Q 1056 3159 1242 3001 
Q 1428 2844 1947 2747 
L 2328 2669 
Q 3034 2534 3370 2195 
Q 3706 1856 3706 1288 
Q 3706 609 3251 259 
Q 2797 -91 1919 -91 
Q 1588 -91 1214 -16 
Q 841 59 441 206 
L 441 856 
Q 825 641 1194 531 
Q 1563 422 1919 422 
Q 2459 422 2753 634 
Q 3047 847 3047 1241 
Q 3047 1584 2836 1778 
Q 2625 1972 2144 2069 
L 1759 2144 
Q 1053 2284 737 2584 
Q 422 2884 422 3419 
Q 422 4038 858 4394 
Q 1294 4750 2059 4750 
Q 2388 4750 2728 4690 
Q 3069 4631 3425 4513 
z
" id="DejaVuSans-53" transform="scale(0.015625)"/>
      <path d="M 3513 2113 
L 3513 0 
L 2938 0 
L 2938 2094 
Q 2938 2591 2744 2837 
Q 2550 3084 2163 3084 
Q 1697 3084 1428 2787 
Q 1159 2491 1159 1978 
L 1159 0 
L 581 0 
L 581 4863 
L 1159 4863 
L 1159 2956 
Q 1366 3272 1645 3428 
Q 1925 3584 2291 3584 
Q 2894 3584 3203 3211 
Q 3513 2838 3513 2113 
z
" id="DejaVuSans-68" transform="scale(0.015625)"/>
     </defs>
     <use xlink:href="#DejaVuSans-31"/>
     <use x="63.623047" xlink:href="#DejaVuSans-37"/>
     <use x="127.246094" xlink:href="#DejaVuSans-20"/>
     <use x="159.033203" xlink:href="#DejaVuSans-53"/>
     <use x="222.509766" xlink:href="#DejaVuSans-63"/>
     <use x="277.490234" xlink:href="#DejaVuSans-68"/>
     <use x="340.869141" xlink:href="#DejaVuSans-61"/>
     <use x="402.148438" xlink:href="#DejaVuSans-66"/>
     <use x="437.353516" xlink:href="#DejaVuSans-66"/>
     <use x="472.558594" xlink:href="#DejaVuSans-65"/>
     <use x="534.082031" xlink:href="#DejaVuSans-72"/>
     <use x="575.195312" xlink:href="#DejaVuSans-20"/>
     <use x="606.982422" xlink:href="#DejaVuSans-46"/>
     <use x="664.501953" xlink:href="#DejaVuSans-37"/>
     <use x="728.125" xlink:href="#DejaVuSans-2c"/>
     <use x="759.912109" xlink:href="#DejaVuSans-20"/>
     <use x="791.699219" xlink:href="#DejaVuSans-63"/>
     <use x="846.679688" xlink:href="#DejaVuSans-6f"/>
     <use x="907.861328" xlink:href="#DejaVuSans-6e"/>
     <use x="971.240234" xlink:href="#DejaVuSans-64"/>
     <use x="1034.716797" xlink:href="#DejaVuSans-69"/>
     <use x="1062.5" xlink:href="#DejaVuSans-74"/>
     <use x="1101.708984" xlink:href="#DejaVuSans-69"/>
     <use x="1129.492188" xlink:href="#DejaVuSans-6f"/>
     <use x="1190.673828" xlink:href="#DejaVuSans-6e"/>
     <use x="1254.052734" xlink:href="#DejaVuSans-20"/>
     <use x="1285.839844" xlink:href="#DejaVuSans-31"/>
     <use x="1349.462891" xlink:href="#DejaVuSans-30"/>
    </g>
   </g>
  </g>
 </g>
 <defs>
  <clipPath id="p8333d0476a">
   <rect height="271.296" width="303.2064" x="57.6" y="27.648"/>
  </clipPath>
 </defs>
</svg>
