<?xml version="1.0" encoding="utf-8" standalone="no"?>
<!DOCTYPE svg PUBLIC "-//W3C//DTD SVG 1.1//EN"
  "http://www.w3.org/Graphics/SVG/1.1/DTD/svg11.dtd">
<svg height="345.6pt" version="1.1" viewBox="0 0 460.8 345.6" width="460.8pt" xmlns="http://www.w3.org/2000/svg" xmlns:xlink="http://www.w3.org/1999/xlink">
 <metadata>
  <rdf:RDF xmlns:cc="http://creativecommons.org/ns#" xmlns:dc="http://purl.org/dc/elements/1.1/" xmlns:rdf="http://www.w3.org/1999/02/22-rdf-syntax-ns#">
   <cc:Work>
    <dc:type rdf:resource="http://purl.org/dc/dcmitype/StillImage"/>
    <dc:date>2022-05-07T21:24:52.157127</dc:date>
    <dc:format>image/svg+xml</dc:format>
    <dc:creator>
     <cc:Agent>
      <dc:title>Matplotlib v3.4.3, https://matplotlib.org/</dc:title>
     </cc:Agent>
    </dc:creator>
   </cc:Work>
  </rdf:RDF>
 </metadata>
 <defs>
  <style type="text/css">*{stroke-linecap:butt;stroke-linejoin:round;}</style>
 </defs>
 <g id="figure_1">
  <g id="patch_1">
   <path d="M 0 345.6 
L 460.8 345.6 
L 460.8 0 
L 0 0 
z
" style="fill:#ffffff;"/>
  </g>
  <g id="axes_1">
   <g id="patch_2">
    <path d="M 57.6 298.944 
L 360.8064 298.944 
L 360.8064 27.648 
L 57.6 27.648 
z
" style="fill:#ffffff;"/>
   </g>
   <g id="line2d_1">
    <path d="M 91.305777 298.944 
L 91.305777 293.624471 
L 92.811505 293.624471 
L 92.811505 288.304941 
L 94.205591 288.304941 
L 94.205591 282.985412 
L 95.503454 282.985412 
L 95.503454 272.346353 
L 96.717523 272.346353 
L 96.717523 267.026824 
L 98.933205 267.026824 
L 98.933205 261.707294 
L 99.950294 261.707294 
L 99.950294 240.429176 
L 100.9152 240.429176 
L 100.9152 235.109647 
L 104.344952 235.109647 
L 104.344952 219.151059 
L 105.112877 219.151059 
L 105.112877 181.914353 
L 105.850679 181.914353 
L 105.850679 149.997176 
L 106.560633 149.997176 
L 106.560633 123.399529 
L 107.244765 123.399529 
L 107.244765 75.523765 
L 107.904887 75.523765 
L 107.904887 48.926118 
L 108.542628 48.926118 
L 108.542628 27.648 
L 360.8064 27.648 
" style="fill:none;stroke:#f5deb3;stroke-linecap:square;stroke-width:4;"/>
   </g>
   <g id="line2d_2">
    <defs>
     <path d="M -0 7.778175 
L 7.778175 0 
L 0 -7.778175 
L -7.778175 -0 
z
" id="m421c45605f" style="stroke:#f5deb3;stroke-linejoin:miter;stroke-width:1.5;"/>
    </defs>
    <g>
     <use style="fill:#f5deb3;stroke:#f5deb3;stroke-linejoin:miter;stroke-width:1.5;" x="104.344952" xlink:href="#m421c45605f" y="219.151059"/>
     <use style="fill:#f5deb3;stroke:#f5deb3;stroke-linejoin:miter;stroke-width:1.5;" x="107.904887" xlink:href="#m421c45605f" y="48.926118"/>
     <use style="fill:#f5deb3;stroke:#f5deb3;stroke-linejoin:miter;stroke-width:1.5;" x="108.542628" xlink:href="#m421c45605f" y="27.648"/>
     <use style="fill:#f5deb3;stroke:#f5deb3;stroke-linejoin:miter;stroke-width:1.5;" x="108.542628" xlink:href="#m421c45605f" y="27.648"/>
     <use style="fill:#f5deb3;stroke:#f5deb3;stroke-linejoin:miter;stroke-width:1.5;" x="360.8064" xlink:href="#m421c45605f" y="27.648"/>
    </g>
   </g>
   <g id="line2d_3">
    <path style="fill:none;stroke:#f5deb3;stroke-linecap:square;stroke-width:4;"/>
    <g/>
   </g>
   <g id="line2d_4">
    <path d="M 360.8064 27.648 
L 380.514816 33.07392 
" style="fill:none;stroke:#f5deb3;stroke-linecap:square;stroke-width:4;"/>
    <g>
     <use style="fill:#f5deb3;stroke:#f5deb3;stroke-linejoin:miter;stroke-width:1.5;" x="360.8064" xlink:href="#m421c45605f" y="27.648"/>
     <use style="fill:#f5deb3;stroke:#f5deb3;stroke-linejoin:miter;stroke-width:1.5;" x="380.514816" xlink:href="#m421c45605f" y="33.07392"/>
    </g>
   </g>
   <g id="matplotlib.axis_1">
    <g id="xtick_1">
     <g id="line2d_5">
      <path clip-path="url(#pe29e0ab85e)" d="M 57.6 298.944 
L 57.6 27.648 
" style="fill:none;stroke:#b0b0b0;stroke-linecap:square;stroke-width:0.8;"/>
     </g>
     <g id="line2d_6">
      <defs>
       <path d="M 0 0 
L 0 3.5 
" id="m93f531b4ad" style="stroke:#000000;stroke-width:0.8;"/>
      </defs>
      <g>
       <use style="stroke:#000000;stroke-width:0.8;" x="57.6" xlink:href="#m93f531b4ad" y="298.944"/>
      </g>
     </g>
     <g id="text_1">
      <!-- 0 -->
      <g transform="translate(52.191875 318.861344)scale(0.17 -0.17)">
       <defs>
        <path d="M 2034 4250 
Q 1547 4250 1301 3770 
Q 1056 3291 1056 2328 
Q 1056 1369 1301 889 
Q 1547 409 2034 409 
Q 2525 409 2770 889 
Q 3016 1369 3016 2328 
Q 3016 3291 2770 3770 
Q 2525 4250 2034 4250 
z
M 2034 4750 
Q 2819 4750 3233 4129 
Q 3647 3509 3647 2328 
Q 3647 1150 3233 529 
Q 2819 -91 2034 -91 
Q 1250 -91 836 529 
Q 422 1150 422 2328 
Q 422 3509 836 4129 
Q 1250 4750 2034 4750 
z
" id="DejaVuSans-30" transform="scale(0.015625)"/>
       </defs>
       <use xlink:href="#DejaVuSans-30"/>
      </g>
     </g>
    </g>
    <g id="xtick_2">
     <g id="line2d_7">
      <path clip-path="url(#pe29e0ab85e)" d="M 144.2304 298.944 
L 144.2304 27.648 
" style="fill:none;stroke:#b0b0b0;stroke-linecap:square;stroke-width:0.8;"/>
     </g>
     <g id="line2d_8">
      <g>
       <use style="stroke:#000000;stroke-width:0.8;" x="144.2304" xlink:href="#m93f531b4ad" y="298.944"/>
      </g>
     </g>
     <g id="text_2">
      <!-- 2 -->
      <g transform="translate(138.822275 318.861344)scale(0.17 -0.17)">
       <defs>
        <path d="M 1228 531 
L 3431 531 
L 3431 0 
L 469 0 
L 469 531 
Q 828 903 1448 1529 
Q 2069 2156 2228 2338 
Q 2531 2678 2651 2914 
Q 2772 3150 2772 3378 
Q 2772 3750 2511 3984 
Q 2250 4219 1831 4219 
Q 1534 4219 1204 4116 
Q 875 4013 500 3803 
L 500 4441 
Q 881 4594 1212 4672 
Q 1544 4750 1819 4750 
Q 2544 4750 2975 4387 
Q 3406 4025 3406 3419 
Q 3406 3131 3298 2873 
Q 3191 2616 2906 2266 
Q 2828 2175 2409 1742 
Q 1991 1309 1228 531 
z
" id="DejaVuSans-32" transform="scale(0.015625)"/>
       </defs>
       <use xlink:href="#DejaVuSans-32"/>
      </g>
     </g>
    </g>
    <g id="xtick_3">
     <g id="line2d_9">
      <path clip-path="url(#pe29e0ab85e)" d="M 230.8608 298.944 
L 230.8608 27.648 
" style="fill:none;stroke:#b0b0b0;stroke-linecap:square;stroke-width:0.8;"/>
     </g>
     <g id="line2d_10">
      <g>
       <use style="stroke:#000000;stroke-width:0.8;" x="230.8608" xlink:href="#m93f531b4ad" y="298.944"/>
      </g>
     </g>
     <g id="text_3">
      <!-- 4 -->
      <g transform="translate(225.452675 318.861344)scale(0.17 -0.17)">
       <defs>
        <path d="M 2419 4116 
L 825 1625 
L 2419 1625 
L 2419 4116 
z
M 2253 4666 
L 3047 4666 
L 3047 1625 
L 3713 1625 
L 3713 1100 
L 3047 1100 
L 3047 0 
L 2419 0 
L 2419 1100 
L 313 1100 
L 313 1709 
L 2253 4666 
z
" id="DejaVuSans-34" transform="scale(0.015625)"/>
       </defs>
       <use xlink:href="#DejaVuSans-34"/>
      </g>
     </g>
    </g>
    <g id="xtick_4">
     <g id="line2d_11">
      <path clip-path="url(#pe29e0ab85e)" d="M 317.4912 298.944 
L 317.4912 27.648 
" style="fill:none;stroke:#b0b0b0;stroke-linecap:square;stroke-width:0.8;"/>
     </g>
     <g id="line2d_12">
      <g>
       <use style="stroke:#000000;stroke-width:0.8;" x="317.4912" xlink:href="#m93f531b4ad" y="298.944"/>
      </g>
     </g>
     <g id="text_4">
      <!-- 6 -->
      <g transform="translate(312.083075 318.861344)scale(0.17 -0.17)">
       <defs>
        <path d="M 2113 2584 
Q 1688 2584 1439 2293 
Q 1191 2003 1191 1497 
Q 1191 994 1439 701 
Q 1688 409 2113 409 
Q 2538 409 2786 701 
Q 3034 994 3034 1497 
Q 3034 2003 2786 2293 
Q 2538 2584 2113 2584 
z
M 3366 4563 
L 3366 3988 
Q 3128 4100 2886 4159 
Q 2644 4219 2406 4219 
Q 1781 4219 1451 3797 
Q 1122 3375 1075 2522 
Q 1259 2794 1537 2939 
Q 1816 3084 2150 3084 
Q 2853 3084 3261 2657 
Q 3669 2231 3669 1497 
Q 3669 778 3244 343 
Q 2819 -91 2113 -91 
Q 1303 -91 875 529 
Q 447 1150 447 2328 
Q 447 3434 972 4092 
Q 1497 4750 2381 4750 
Q 2619 4750 2861 4703 
Q 3103 4656 3366 4563 
z
" id="DejaVuSans-36" transform="scale(0.015625)"/>
       </defs>
       <use xlink:href="#DejaVuSans-36"/>
      </g>
     </g>
    </g>
    <g id="xtick_5">
     <g id="line2d_13">
      <path clip-path="url(#pe29e0ab85e)" d="M 100.9152 298.944 
L 100.9152 27.648 
" style="fill:none;stroke:#b0b0b0;stroke-linecap:square;stroke-width:0.8;"/>
     </g>
     <g id="line2d_14">
      <defs>
       <path d="M 0 0 
L 0 2 
" id="m417eeddb40" style="stroke:#000000;stroke-width:0.6;"/>
      </defs>
      <g>
       <use style="stroke:#000000;stroke-width:0.6;" x="100.9152" xlink:href="#m417eeddb40" y="298.944"/>
      </g>
     </g>
    </g>
    <g id="xtick_6">
     <g id="line2d_15">
      <path clip-path="url(#pe29e0ab85e)" d="M 187.5456 298.944 
L 187.5456 27.648 
" style="fill:none;stroke:#b0b0b0;stroke-linecap:square;stroke-width:0.8;"/>
     </g>
     <g id="line2d_16">
      <g>
       <use style="stroke:#000000;stroke-width:0.6;" x="187.5456" xlink:href="#m417eeddb40" y="298.944"/>
      </g>
     </g>
    </g>
    <g id="xtick_7">
     <g id="line2d_17">
      <path clip-path="url(#pe29e0ab85e)" d="M 274.176 298.944 
L 274.176 27.648 
" style="fill:none;stroke:#b0b0b0;stroke-linecap:square;stroke-width:0.8;"/>
     </g>
     <g id="line2d_18">
      <g>
       <use style="stroke:#000000;stroke-width:0.6;" x="274.176" xlink:href="#m417eeddb40" y="298.944"/>
      </g>
     </g>
    </g>
    <g id="xtick_8">
     <g id="line2d_19">
      <path clip-path="url(#pe29e0ab85e)" d="M 360.8064 298.944 
L 360.8064 27.648 
" style="fill:none;stroke:#b0b0b0;stroke-linecap:square;stroke-width:0.8;"/>
     </g>
     <g id="line2d_20">
      <g>
       <use style="stroke:#000000;stroke-width:0.6;" x="360.8064" xlink:href="#m417eeddb40" y="298.944"/>
      </g>
     </g>
    </g>
    <g id="text_5">
     <!-- log10(# f-evals / dimension) -->
     <g transform="translate(88.823278 339.314156)scale(0.17 -0.17)">
      <defs>
       <path d="M 603 4863 
L 1178 4863 
L 1178 0 
L 603 0 
L 603 4863 
z
" id="DejaVuSans-6c" transform="scale(0.015625)"/>
       <path d="M 1959 3097 
Q 1497 3097 1228 2736 
Q 959 2375 959 1747 
Q 959 1119 1226 758 
Q 1494 397 1959 397 
Q 2419 397 2687 759 
Q 2956 1122 2956 1747 
Q 2956 2369 2687 2733 
Q 2419 3097 1959 3097 
z
M 1959 3584 
Q 2709 3584 3137 3096 
Q 3566 2609 3566 1747 
Q 3566 888 3137 398 
Q 2709 -91 1959 -91 
Q 1206 -91 779 398 
Q 353 888 353 1747 
Q 353 2609 779 3096 
Q 1206 3584 1959 3584 
z
" id="DejaVuSans-6f" transform="scale(0.015625)"/>
       <path d="M 2906 1791 
Q 2906 2416 2648 2759 
Q 2391 3103 1925 3103 
Q 1463 3103 1205 2759 
Q 947 2416 947 1791 
Q 947 1169 1205 825 
Q 1463 481 1925 481 
Q 2391 481 2648 825 
Q 2906 1169 2906 1791 
z
M 3481 434 
Q 3481 -459 3084 -895 
Q 2688 -1331 1869 -1331 
Q 1566 -1331 1297 -1286 
Q 1028 -1241 775 -1147 
L 775 -588 
Q 1028 -725 1275 -790 
Q 1522 -856 1778 -856 
Q 2344 -856 2625 -561 
Q 2906 -266 2906 331 
L 2906 616 
Q 2728 306 2450 153 
Q 2172 0 1784 0 
Q 1141 0 747 490 
Q 353 981 353 1791 
Q 353 2603 747 3093 
Q 1141 3584 1784 3584 
Q 2172 3584 2450 3431 
Q 2728 3278 2906 2969 
L 2906 3500 
L 3481 3500 
L 3481 434 
z
" id="DejaVuSans-67" transform="scale(0.015625)"/>
       <path d="M 794 531 
L 1825 531 
L 1825 4091 
L 703 3866 
L 703 4441 
L 1819 4666 
L 2450 4666 
L 2450 531 
L 3481 531 
L 3481 0 
L 794 0 
L 794 531 
z
" id="DejaVuSans-31" transform="scale(0.015625)"/>
       <path d="M 1984 4856 
Q 1566 4138 1362 3434 
Q 1159 2731 1159 2009 
Q 1159 1288 1364 580 
Q 1569 -128 1984 -844 
L 1484 -844 
Q 1016 -109 783 600 
Q 550 1309 550 2009 
Q 550 2706 781 3412 
Q 1013 4119 1484 4856 
L 1984 4856 
z
" id="DejaVuSans-28" transform="scale(0.015625)"/>
       <path d="M 3272 2816 
L 2363 2816 
L 2100 1772 
L 3016 1772 
L 3272 2816 
z
M 2803 4594 
L 2478 3297 
L 3391 3297 
L 3719 4594 
L 4219 4594 
L 3897 3297 
L 4872 3297 
L 4872 2816 
L 3775 2816 
L 3519 1772 
L 4513 1772 
L 4513 1294 
L 3397 1294 
L 3072 0 
L 2572 0 
L 2894 1294 
L 1978 1294 
L 1656 0 
L 1153 0 
L 1478 1294 
L 494 1294 
L 494 1772 
L 1594 1772 
L 1856 2816 
L 850 2816 
L 850 3297 
L 1978 3297 
L 2297 4594 
L 2803 4594 
z
" id="DejaVuSans-23" transform="scale(0.015625)"/>
       <path id="DejaVuSans-20" transform="scale(0.015625)"/>
       <path d="M 2375 4863 
L 2375 4384 
L 1825 4384 
Q 1516 4384 1395 4259 
Q 1275 4134 1275 3809 
L 1275 3500 
L 2222 3500 
L 2222 3053 
L 1275 3053 
L 1275 0 
L 697 0 
L 697 3053 
L 147 3053 
L 147 3500 
L 697 3500 
L 697 3744 
Q 697 4328 969 4595 
Q 1241 4863 1831 4863 
L 2375 4863 
z
" id="DejaVuSans-66" transform="scale(0.015625)"/>
       <path d="M 313 2009 
L 1997 2009 
L 1997 1497 
L 313 1497 
L 313 2009 
z
" id="DejaVuSans-2d" transform="scale(0.015625)"/>
       <path d="M 3597 1894 
L 3597 1613 
L 953 1613 
Q 991 1019 1311 708 
Q 1631 397 2203 397 
Q 2534 397 2845 478 
Q 3156 559 3463 722 
L 3463 178 
Q 3153 47 2828 -22 
Q 2503 -91 2169 -91 
Q 1331 -91 842 396 
Q 353 884 353 1716 
Q 353 2575 817 3079 
Q 1281 3584 2069 3584 
Q 2775 3584 3186 3129 
Q 3597 2675 3597 1894 
z
M 3022 2063 
Q 3016 2534 2758 2815 
Q 2500 3097 2075 3097 
Q 1594 3097 1305 2825 
Q 1016 2553 972 2059 
L 3022 2063 
z
" id="DejaVuSans-65" transform="scale(0.015625)"/>
       <path d="M 191 3500 
L 800 3500 
L 1894 563 
L 2988 3500 
L 3597 3500 
L 2284 0 
L 1503 0 
L 191 3500 
z
" id="DejaVuSans-76" transform="scale(0.015625)"/>
       <path d="M 2194 1759 
Q 1497 1759 1228 1600 
Q 959 1441 959 1056 
Q 959 750 1161 570 
Q 1363 391 1709 391 
Q 2188 391 2477 730 
Q 2766 1069 2766 1631 
L 2766 1759 
L 2194 1759 
z
M 3341 1997 
L 3341 0 
L 2766 0 
L 2766 531 
Q 2569 213 2275 61 
Q 1981 -91 1556 -91 
Q 1019 -91 701 211 
Q 384 513 384 1019 
Q 384 1609 779 1909 
Q 1175 2209 1959 2209 
L 2766 2209 
L 2766 2266 
Q 2766 2663 2505 2880 
Q 2244 3097 1772 3097 
Q 1472 3097 1187 3025 
Q 903 2953 641 2809 
L 641 3341 
Q 956 3463 1253 3523 
Q 1550 3584 1831 3584 
Q 2591 3584 2966 3190 
Q 3341 2797 3341 1997 
z
" id="DejaVuSans-61" transform="scale(0.015625)"/>
       <path d="M 2834 3397 
L 2834 2853 
Q 2591 2978 2328 3040 
Q 2066 3103 1784 3103 
Q 1356 3103 1142 2972 
Q 928 2841 928 2578 
Q 928 2378 1081 2264 
Q 1234 2150 1697 2047 
L 1894 2003 
Q 2506 1872 2764 1633 
Q 3022 1394 3022 966 
Q 3022 478 2636 193 
Q 2250 -91 1575 -91 
Q 1294 -91 989 -36 
Q 684 19 347 128 
L 347 722 
Q 666 556 975 473 
Q 1284 391 1588 391 
Q 1994 391 2212 530 
Q 2431 669 2431 922 
Q 2431 1156 2273 1281 
Q 2116 1406 1581 1522 
L 1381 1569 
Q 847 1681 609 1914 
Q 372 2147 372 2553 
Q 372 3047 722 3315 
Q 1072 3584 1716 3584 
Q 2034 3584 2315 3537 
Q 2597 3491 2834 3397 
z
" id="DejaVuSans-73" transform="scale(0.015625)"/>
       <path d="M 1625 4666 
L 2156 4666 
L 531 -594 
L 0 -594 
L 1625 4666 
z
" id="DejaVuSans-2f" transform="scale(0.015625)"/>
       <path d="M 2906 2969 
L 2906 4863 
L 3481 4863 
L 3481 0 
L 2906 0 
L 2906 525 
Q 2725 213 2448 61 
Q 2172 -91 1784 -91 
Q 1150 -91 751 415 
Q 353 922 353 1747 
Q 353 2572 751 3078 
Q 1150 3584 1784 3584 
Q 2172 3584 2448 3432 
Q 2725 3281 2906 2969 
z
M 947 1747 
Q 947 1113 1208 752 
Q 1469 391 1925 391 
Q 2381 391 2643 752 
Q 2906 1113 2906 1747 
Q 2906 2381 2643 2742 
Q 2381 3103 1925 3103 
Q 1469 3103 1208 2742 
Q 947 2381 947 1747 
z
" id="DejaVuSans-64" transform="scale(0.015625)"/>
       <path d="M 603 3500 
L 1178 3500 
L 1178 0 
L 603 0 
L 603 3500 
z
M 603 4863 
L 1178 4863 
L 1178 4134 
L 603 4134 
L 603 4863 
z
" id="DejaVuSans-69" transform="scale(0.015625)"/>
       <path d="M 3328 2828 
Q 3544 3216 3844 3400 
Q 4144 3584 4550 3584 
Q 5097 3584 5394 3201 
Q 5691 2819 5691 2113 
L 5691 0 
L 5113 0 
L 5113 2094 
Q 5113 2597 4934 2840 
Q 4756 3084 4391 3084 
Q 3944 3084 3684 2787 
Q 3425 2491 3425 1978 
L 3425 0 
L 2847 0 
L 2847 2094 
Q 2847 2600 2669 2842 
Q 2491 3084 2119 3084 
Q 1678 3084 1418 2786 
Q 1159 2488 1159 1978 
L 1159 0 
L 581 0 
L 581 3500 
L 1159 3500 
L 1159 2956 
Q 1356 3278 1631 3431 
Q 1906 3584 2284 3584 
Q 2666 3584 2933 3390 
Q 3200 3197 3328 2828 
z
" id="DejaVuSans-6d" transform="scale(0.015625)"/>
       <path d="M 3513 2113 
L 3513 0 
L 2938 0 
L 2938 2094 
Q 2938 2591 2744 2837 
Q 2550 3084 2163 3084 
Q 1697 3084 1428 2787 
Q 1159 2491 1159 1978 
L 1159 0 
L 581 0 
L 581 3500 
L 1159 3500 
L 1159 2956 
Q 1366 3272 1645 3428 
Q 1925 3584 2291 3584 
Q 2894 3584 3203 3211 
Q 3513 2838 3513 2113 
z
" id="DejaVuSans-6e" transform="scale(0.015625)"/>
       <path d="M 513 4856 
L 1013 4856 
Q 1481 4119 1714 3412 
Q 1947 2706 1947 2009 
Q 1947 1309 1714 600 
Q 1481 -109 1013 -844 
L 513 -844 
Q 928 -128 1133 580 
Q 1338 1288 1338 2009 
Q 1338 2731 1133 3434 
Q 928 4138 513 4856 
z
" id="DejaVuSans-29" transform="scale(0.015625)"/>
      </defs>
      <use xlink:href="#DejaVuSans-6c"/>
      <use x="27.783203" xlink:href="#DejaVuSans-6f"/>
      <use x="88.964844" xlink:href="#DejaVuSans-67"/>
      <use x="152.441406" xlink:href="#DejaVuSans-31"/>
      <use x="216.064453" xlink:href="#DejaVuSans-30"/>
      <use x="279.6875" xlink:href="#DejaVuSans-28"/>
      <use x="318.701172" xlink:href="#DejaVuSans-23"/>
      <use x="402.490234" xlink:href="#DejaVuSans-20"/>
      <use x="434.277344" xlink:href="#DejaVuSans-66"/>
      <use x="463.982422" xlink:href="#DejaVuSans-2d"/>
      <use x="500.066406" xlink:href="#DejaVuSans-65"/>
      <use x="561.589844" xlink:href="#DejaVuSans-76"/>
      <use x="620.769531" xlink:href="#DejaVuSans-61"/>
      <use x="682.048828" xlink:href="#DejaVuSans-6c"/>
      <use x="709.832031" xlink:href="#DejaVuSans-73"/>
      <use x="761.931641" xlink:href="#DejaVuSans-20"/>
      <use x="793.71875" xlink:href="#DejaVuSans-2f"/>
      <use x="827.410156" xlink:href="#DejaVuSans-20"/>
      <use x="859.197266" xlink:href="#DejaVuSans-64"/>
      <use x="922.673828" xlink:href="#DejaVuSans-69"/>
      <use x="950.457031" xlink:href="#DejaVuSans-6d"/>
      <use x="1047.869141" xlink:href="#DejaVuSans-65"/>
      <use x="1109.392578" xlink:href="#DejaVuSans-6e"/>
      <use x="1172.771484" xlink:href="#DejaVuSans-73"/>
      <use x="1224.871094" xlink:href="#DejaVuSans-69"/>
      <use x="1252.654297" xlink:href="#DejaVuSans-6f"/>
      <use x="1313.835938" xlink:href="#DejaVuSans-6e"/>
      <use x="1377.214844" xlink:href="#DejaVuSans-29"/>
     </g>
    </g>
   </g>
   <g id="matplotlib.axis_2">
    <g id="ytick_1">
     <g id="line2d_21">
      <path clip-path="url(#pe29e0ab85e)" d="M 57.6 298.944 
L 360.8064 298.944 
" style="fill:none;stroke:#b0b0b0;stroke-linecap:square;stroke-width:0.8;"/>
     </g>
     <g id="line2d_22">
      <defs>
       <path d="M 0 0 
L -3.5 0 
" id="m1a59e8a622" style="stroke:#000000;stroke-width:0.8;"/>
      </defs>
      <g>
       <use style="stroke:#000000;stroke-width:0.8;" x="57.6" xlink:href="#m1a59e8a622" y="298.944"/>
      </g>
     </g>
     <g id="text_6">
      <!-- 0.0 -->
      <g transform="translate(25.155 305.02275)scale(0.16 -0.16)">
       <defs>
        <path d="M 684 794 
L 1344 794 
L 1344 0 
L 684 0 
L 684 794 
z
" id="DejaVuSans-2e" transform="scale(0.015625)"/>
       </defs>
       <use xlink:href="#DejaVuSans-30"/>
       <use x="63.623047" xlink:href="#DejaVuSans-2e"/>
       <use x="95.410156" xlink:href="#DejaVuSans-30"/>
      </g>
     </g>
    </g>
    <g id="ytick_2">
     <g id="line2d_23">
      <path clip-path="url(#pe29e0ab85e)" d="M 57.6 244.6848 
L 360.8064 244.6848 
" style="fill:none;stroke:#b0b0b0;stroke-linecap:square;stroke-width:0.8;"/>
     </g>
     <g id="line2d_24">
      <g>
       <use style="stroke:#000000;stroke-width:0.8;" x="57.6" xlink:href="#m1a59e8a622" y="244.6848"/>
      </g>
     </g>
     <g id="text_7">
      <!-- 0.2 -->
      <g transform="translate(25.155 250.76355)scale(0.16 -0.16)">
       <use xlink:href="#DejaVuSans-30"/>
       <use x="63.623047" xlink:href="#DejaVuSans-2e"/>
       <use x="95.410156" xlink:href="#DejaVuSans-32"/>
      </g>
     </g>
    </g>
    <g id="ytick_3">
     <g id="line2d_25">
      <path clip-path="url(#pe29e0ab85e)" d="M 57.6 190.4256 
L 360.8064 190.4256 
" style="fill:none;stroke:#b0b0b0;stroke-linecap:square;stroke-width:0.8;"/>
     </g>
     <g id="line2d_26">
      <g>
       <use style="stroke:#000000;stroke-width:0.8;" x="57.6" xlink:href="#m1a59e8a622" y="190.4256"/>
      </g>
     </g>
     <g id="text_8">
      <!-- 0.4 -->
      <g transform="translate(25.155 196.50435)scale(0.16 -0.16)">
       <use xlink:href="#DejaVuSans-30"/>
       <use x="63.623047" xlink:href="#DejaVuSans-2e"/>
       <use x="95.410156" xlink:href="#DejaVuSans-34"/>
      </g>
     </g>
    </g>
    <g id="ytick_4">
     <g id="line2d_27">
      <path clip-path="url(#pe29e0ab85e)" d="M 57.6 136.1664 
L 360.8064 136.1664 
" style="fill:none;stroke:#b0b0b0;stroke-linecap:square;stroke-width:0.8;"/>
     </g>
     <g id="line2d_28">
      <g>
       <use style="stroke:#000000;stroke-width:0.8;" x="57.6" xlink:href="#m1a59e8a622" y="136.1664"/>
      </g>
     </g>
     <g id="text_9">
      <!-- 0.6 -->
      <g transform="translate(25.155 142.24515)scale(0.16 -0.16)">
       <use xlink:href="#DejaVuSans-30"/>
       <use x="63.623047" xlink:href="#DejaVuSans-2e"/>
       <use x="95.410156" xlink:href="#DejaVuSans-36"/>
      </g>
     </g>
    </g>
    <g id="ytick_5">
     <g id="line2d_29">
      <path clip-path="url(#pe29e0ab85e)" d="M 57.6 81.9072 
L 360.8064 81.9072 
" style="fill:none;stroke:#b0b0b0;stroke-linecap:square;stroke-width:0.8;"/>
     </g>
     <g id="line2d_30">
      <g>
       <use style="stroke:#000000;stroke-width:0.8;" x="57.6" xlink:href="#m1a59e8a622" y="81.9072"/>
      </g>
     </g>
     <g id="text_10">
      <!-- 0.8 -->
      <g transform="translate(25.155 87.98595)scale(0.16 -0.16)">
       <defs>
        <path d="M 2034 2216 
Q 1584 2216 1326 1975 
Q 1069 1734 1069 1313 
Q 1069 891 1326 650 
Q 1584 409 2034 409 
Q 2484 409 2743 651 
Q 3003 894 3003 1313 
Q 3003 1734 2745 1975 
Q 2488 2216 2034 2216 
z
M 1403 2484 
Q 997 2584 770 2862 
Q 544 3141 544 3541 
Q 544 4100 942 4425 
Q 1341 4750 2034 4750 
Q 2731 4750 3128 4425 
Q 3525 4100 3525 3541 
Q 3525 3141 3298 2862 
Q 3072 2584 2669 2484 
Q 3125 2378 3379 2068 
Q 3634 1759 3634 1313 
Q 3634 634 3220 271 
Q 2806 -91 2034 -91 
Q 1263 -91 848 271 
Q 434 634 434 1313 
Q 434 1759 690 2068 
Q 947 2378 1403 2484 
z
M 1172 3481 
Q 1172 3119 1398 2916 
Q 1625 2713 2034 2713 
Q 2441 2713 2670 2916 
Q 2900 3119 2900 3481 
Q 2900 3844 2670 4047 
Q 2441 4250 2034 4250 
Q 1625 4250 1398 4047 
Q 1172 3844 1172 3481 
z
" id="DejaVuSans-38" transform="scale(0.015625)"/>
       </defs>
       <use xlink:href="#DejaVuSans-30"/>
       <use x="63.623047" xlink:href="#DejaVuSans-2e"/>
       <use x="95.410156" xlink:href="#DejaVuSans-38"/>
      </g>
     </g>
    </g>
    <g id="ytick_6">
     <g id="line2d_31">
      <path clip-path="url(#pe29e0ab85e)" d="M 57.6 27.648 
L 360.8064 27.648 
" style="fill:none;stroke:#b0b0b0;stroke-linecap:square;stroke-width:0.8;"/>
     </g>
     <g id="line2d_32">
      <g>
       <use style="stroke:#000000;stroke-width:0.8;" x="57.6" xlink:href="#m1a59e8a622" y="27.648"/>
      </g>
     </g>
     <g id="text_11">
      <!-- 1.0 -->
      <g transform="translate(25.155 33.72675)scale(0.16 -0.16)">
       <use xlink:href="#DejaVuSans-31"/>
       <use x="63.623047" xlink:href="#DejaVuSans-2e"/>
       <use x="95.410156" xlink:href="#DejaVuSans-30"/>
      </g>
     </g>
    </g>
    <g id="text_12">
     <!-- Fraction of function,target pairs -->
     <g transform="translate(17.619531 297.681)rotate(-90)scale(0.17 -0.17)">
      <defs>
       <path d="M 628 4666 
L 3309 4666 
L 3309 4134 
L 1259 4134 
L 1259 2759 
L 3109 2759 
L 3109 2228 
L 1259 2228 
L 1259 0 
L 628 0 
L 628 4666 
z
" id="DejaVuSans-46" transform="scale(0.015625)"/>
       <path d="M 2631 2963 
Q 2534 3019 2420 3045 
Q 2306 3072 2169 3072 
Q 1681 3072 1420 2755 
Q 1159 2438 1159 1844 
L 1159 0 
L 581 0 
L 581 3500 
L 1159 3500 
L 1159 2956 
Q 1341 3275 1631 3429 
Q 1922 3584 2338 3584 
Q 2397 3584 2469 3576 
Q 2541 3569 2628 3553 
L 2631 2963 
z
" id="DejaVuSans-72" transform="scale(0.015625)"/>
       <path d="M 3122 3366 
L 3122 2828 
Q 2878 2963 2633 3030 
Q 2388 3097 2138 3097 
Q 1578 3097 1268 2742 
Q 959 2388 959 1747 
Q 959 1106 1268 751 
Q 1578 397 2138 397 
Q 2388 397 2633 464 
Q 2878 531 3122 666 
L 3122 134 
Q 2881 22 2623 -34 
Q 2366 -91 2075 -91 
Q 1284 -91 818 406 
Q 353 903 353 1747 
Q 353 2603 823 3093 
Q 1294 3584 2113 3584 
Q 2378 3584 2631 3529 
Q 2884 3475 3122 3366 
z
" id="DejaVuSans-63" transform="scale(0.015625)"/>
       <path d="M 1172 4494 
L 1172 3500 
L 2356 3500 
L 2356 3053 
L 1172 3053 
L 1172 1153 
Q 1172 725 1289 603 
Q 1406 481 1766 481 
L 2356 481 
L 2356 0 
L 1766 0 
Q 1100 0 847 248 
Q 594 497 594 1153 
L 594 3053 
L 172 3053 
L 172 3500 
L 594 3500 
L 594 4494 
L 1172 4494 
z
" id="DejaVuSans-74" transform="scale(0.015625)"/>
       <path d="M 544 1381 
L 544 3500 
L 1119 3500 
L 1119 1403 
Q 1119 906 1312 657 
Q 1506 409 1894 409 
Q 2359 409 2629 706 
Q 2900 1003 2900 1516 
L 2900 3500 
L 3475 3500 
L 3475 0 
L 2900 0 
L 2900 538 
Q 2691 219 2414 64 
Q 2138 -91 1772 -91 
Q 1169 -91 856 284 
Q 544 659 544 1381 
z
M 1991 3584 
L 1991 3584 
z
" id="DejaVuSans-75" transform="scale(0.015625)"/>
       <path d="M 750 794 
L 1409 794 
L 1409 256 
L 897 -744 
L 494 -744 
L 750 256 
L 750 794 
z
" id="DejaVuSans-2c" transform="scale(0.015625)"/>
       <path d="M 1159 525 
L 1159 -1331 
L 581 -1331 
L 581 3500 
L 1159 3500 
L 1159 2969 
Q 1341 3281 1617 3432 
Q 1894 3584 2278 3584 
Q 2916 3584 3314 3078 
Q 3713 2572 3713 1747 
Q 3713 922 3314 415 
Q 2916 -91 2278 -91 
Q 1894 -91 1617 61 
Q 1341 213 1159 525 
z
M 3116 1747 
Q 3116 2381 2855 2742 
Q 2594 3103 2138 3103 
Q 1681 3103 1420 2742 
Q 1159 2381 1159 1747 
Q 1159 1113 1420 752 
Q 1681 391 2138 391 
Q 2594 391 2855 752 
Q 3116 1113 3116 1747 
z
" id="DejaVuSans-70" transform="scale(0.015625)"/>
      </defs>
      <use xlink:href="#DejaVuSans-46"/>
      <use x="50.269531" xlink:href="#DejaVuSans-72"/>
      <use x="91.382812" xlink:href="#DejaVuSans-61"/>
      <use x="152.662109" xlink:href="#DejaVuSans-63"/>
      <use x="207.642578" xlink:href="#DejaVuSans-74"/>
      <use x="246.851562" xlink:href="#DejaVuSans-69"/>
      <use x="274.634766" xlink:href="#DejaVuSans-6f"/>
      <use x="335.816406" xlink:href="#DejaVuSans-6e"/>
      <use x="399.195312" xlink:href="#DejaVuSans-20"/>
      <use x="430.982422" xlink:href="#DejaVuSans-6f"/>
      <use x="492.164062" xlink:href="#DejaVuSans-66"/>
      <use x="527.369141" xlink:href="#DejaVuSans-20"/>
      <use x="559.15625" xlink:href="#DejaVuSans-66"/>
      <use x="594.361328" xlink:href="#DejaVuSans-75"/>
      <use x="657.740234" xlink:href="#DejaVuSans-6e"/>
      <use x="721.119141" xlink:href="#DejaVuSans-63"/>
      <use x="776.099609" xlink:href="#DejaVuSans-74"/>
      <use x="815.308594" xlink:href="#DejaVuSans-69"/>
      <use x="843.091797" xlink:href="#DejaVuSans-6f"/>
      <use x="904.273438" xlink:href="#DejaVuSans-6e"/>
      <use x="967.652344" xlink:href="#DejaVuSans-2c"/>
      <use x="999.439453" xlink:href="#DejaVuSans-74"/>
      <use x="1038.648438" xlink:href="#DejaVuSans-61"/>
      <use x="1099.927734" xlink:href="#DejaVuSans-72"/>
      <use x="1139.291016" xlink:href="#DejaVuSans-67"/>
      <use x="1202.767578" xlink:href="#DejaVuSans-65"/>
      <use x="1264.291016" xlink:href="#DejaVuSans-74"/>
      <use x="1303.5" xlink:href="#DejaVuSans-20"/>
      <use x="1335.287109" xlink:href="#DejaVuSans-70"/>
      <use x="1398.763672" xlink:href="#DejaVuSans-61"/>
      <use x="1460.042969" xlink:href="#DejaVuSans-69"/>
      <use x="1487.826172" xlink:href="#DejaVuSans-72"/>
      <use x="1528.939453" xlink:href="#DejaVuSans-73"/>
     </g>
    </g>
   </g>
   <g id="line2d_33">
    <defs>
     <path d="M 0 1.5 
C 0.397805 1.5 0.77937 1.341951 1.06066 1.06066 
C 1.341951 0.77937 1.5 0.397805 1.5 0 
C 1.5 -0.397805 1.341951 -0.77937 1.06066 -1.06066 
C 0.77937 -1.341951 0.397805 -1.5 0 -1.5 
C -0.397805 -1.5 -0.77937 -1.341951 -1.06066 -1.06066 
C -1.341951 -0.77937 -1.5 -0.397805 -1.5 0 
C -1.5 0.397805 -1.341951 0.77937 -1.06066 1.06066 
C -0.77937 1.341951 -0.397805 1.5 0 1.5 
z
" id="m920555f8dd" style="stroke:#f5deb3;"/>
    </defs>
    <g>
     <use style="fill:#f5deb3;stroke:#f5deb3;" x="108.542628" xlink:href="#m920555f8dd" y="27.648"/>
     <use style="fill:#f5deb3;stroke:#f5deb3;" x="108.542628" xlink:href="#m920555f8dd" y="27.648"/>
    </g>
   </g>
   <g id="line2d_34">
    <defs>
     <path d="M 0 1.5 
C 0.397805 1.5 0.77937 1.341951 1.06066 1.06066 
C 1.341951 0.77937 1.5 0.397805 1.5 0 
C 1.5 -0.397805 1.341951 -0.77937 1.06066 -1.06066 
C 0.77937 -1.341951 0.397805 -1.5 0 -1.5 
C -0.397805 -1.5 -0.77937 -1.341951 -1.06066 -1.06066 
C -1.341951 -0.77937 -1.5 -0.397805 -1.5 0 
C -1.5 0.397805 -1.341951 0.77937 -1.06066 1.06066 
C -0.77937 1.341951 -0.397805 1.5 0 1.5 
z
" id="m6a56f91281" style="stroke:#000080;"/>
    </defs>
    <g>
     <use style="fill:#000080;stroke:#000080;" x="196.788411" xlink:href="#m6a56f91281" y="27.648"/>
     <use style="fill:#000080;stroke:#000080;" x="196.788411" xlink:href="#m6a56f91281" y="27.648"/>
    </g>
   </g>
   <g id="line2d_35">
    <path d="M 94.205591 298.944 
L 94.205591 297.880094 
L 137.38594 297.880094 
L 137.38594 297.525459 
L 148.200973 297.525459 
L 148.200973 297.170824 
L 150.221009 297.170824 
L 150.221009 295.397647 
L 152.291722 295.397647 
L 152.291722 291.142024 
L 156.354107 291.142024 
L 156.354107 290.432753 
L 157.032948 290.432753 
L 157.032948 290.078118 
L 160.343261 290.078118 
L 160.422971 287.595671 
L 161.654432 287.595671 
L 161.654432 287.241035 
L 162.456597 287.241035 
L 162.527853 285.822494 
L 162.949812 285.822494 
L 162.949812 284.403953 
L 163.96507 284.403953 
L 164.030845 281.212235 
L 164.09639 281.212235 
L 164.09639 280.148329 
L 164.548924 280.148329 
L 164.548924 278.375153 
L 165.784938 278.375153 
L 165.784938 278.020518 
L 165.904188 278.020518 
L 165.904188 274.119529 
L 166.718416 274.119529 
L 166.718416 273.410259 
L 166.83191 273.410259 
L 166.83191 273.055624 
L 166.944723 273.055624 
L 166.944723 269.863906 
L 167.607754 269.863906 
L 167.607754 269.509271 
L 167.823671 269.509271 
L 167.823671 267.381459 
L 168.037137 267.381459 
L 168.037137 265.962918 
L 168.867575 265.962918 
L 168.867575 264.189741 
L 169.368578 264.189741 
L 169.368578 263.480471 
L 169.516314 263.480471 
L 169.614163 258.160941 
L 169.711507 258.160941 
L 169.711507 256.387765 
L 170.00055 256.387765 
L 170.00055 256.033129 
L 170.28522 256.033129 
L 170.28522 253.905318 
L 171.248949 253.905318 
L 171.248949 253.550682 
L 171.515469 253.550682 
L 171.515469 253.196047 
L 171.73472 253.196047 
L 171.82171 251.777506 
L 172.165703 251.777506 
L 172.208263 248.585788 
L 172.377547 248.585788 
L 172.419631 244.330165 
L 172.794209 244.330165 
L 172.876446 241.493082 
L 172.958324 241.493082 
L 172.99913 240.074541 
L 173.12102 240.074541 
L 173.12102 239.719906 
L 173.914037 239.719906 
L 173.991531 237.592094 
L 174.107176 237.592094 
L 174.107176 233.691106 
L 174.487605 233.691106 
L 174.487605 233.336471 
L 174.674972 233.336471 
L 174.674972 231.563294 
L 174.860492 231.563294 
L 174.860492 230.499388 
L 175.0442 230.499388 
L 175.0442 228.726212 
L 175.477915 228.726212 
L 175.477915 227.307671 
L 176.179266 227.307671 
L 176.179266 223.052047 
L 176.452644 223.052047 
L 176.452644 222.697412 
L 176.822169 222.697412 
L 176.855405 218.441788 
L 176.954762 218.441788 
L 176.954762 217.732518 
L 177.314646 217.732518 
L 177.314646 217.377882 
L 177.508083 217.377882 
L 177.508083 216.313976 
L 177.857632 216.313976 
L 177.951847 211.703718 
L 178.076737 211.703718 
L 178.138873 209.930541 
L 178.324058 209.930541 
L 178.324058 209.221271 
L 178.507438 209.221271 
L 178.598461 206.384188 
L 178.628705 206.384188 
L 178.689047 203.901741 
L 178.749196 203.901741 
L 178.779198 201.773929 
L 178.958215 201.773929 
L 179.047089 201.064659 
L 179.106105 201.064659 
L 179.106105 198.936847 
L 179.340338 198.936847 
L 179.369413 197.163671 
L 179.514118 197.163671 
L 179.514118 195.035859 
L 179.885223 195.035859 
L 179.969833 193.617318 
L 180.469652 193.617318 
L 180.578943 190.070965 
L 180.876258 190.070965 
L 180.876258 188.652424 
L 181.009863 188.652424 
L 181.063041 187.233882 
L 181.586709 187.233882 
L 181.638283 185.460706 
L 181.843176 185.460706 
L 181.843176 182.978259 
L 182.045861 182.978259 
L 182.045861 181.559718 
L 182.221437 181.559718 
L 182.221437 180.850447 
L 182.518663 180.850447 
L 182.543221 178.722635 
L 182.931853 178.722635 
L 182.931853 176.949459 
L 183.075545 176.949459 
L 183.075545 175.176282 
L 183.24181 175.176282 
L 183.24181 174.821647 
L 183.406618 174.821647 
L 183.406618 170.920659 
L 183.616414 170.920659 
L 183.66272 166.665035 
L 183.823897 166.665035 
L 183.869695 165.601129 
L 184.006424 165.601129 
L 184.006424 163.827953 
L 184.209672 163.827953 
L 184.299304 161.345506 
L 184.343961 161.345506 
L 184.343961 158.153788 
L 184.45514 158.153788 
L 184.565667 156.025976 
L 184.697447 156.025976 
L 184.784791 154.2528 
L 185.363983 154.2528 
L 185.427251 153.543529 
L 185.781803 153.543529 
L 185.781803 151.415718 
L 185.925875 151.415718 
L 185.966836 149.997176 
L 186.089188 149.997176 
L 186.129796 148.224 
L 186.271237 148.224 
L 186.311454 146.450824 
L 186.411622 146.450824 
L 186.431592 143.968376 
L 186.630133 143.968376 
L 186.708966 140.422024 
L 186.78747 140.422024 
L 186.885142 139.358118 
L 186.982309 139.358118 
L 186.982309 138.294212 
L 187.13674 138.294212 
L 187.175151 134.747859 
L 187.251738 134.747859 
L 187.328014 132.265412 
L 187.498512 132.265412 
L 187.517361 131.556141 
L 187.611325 131.556141 
L 187.611325 130.846871 
L 187.723466 130.846871 
L 187.723466 129.428329 
L 187.834942 129.428329 
L 187.834942 128.364424 
L 187.982557 128.364424 
L 188.000928 126.591247 
L 188.274356 126.591247 
L 188.328568 125.881976 
L 188.543867 125.881976 
L 188.6506 122.335624 
L 188.72142 122.335624 
L 188.827153 115.952188 
L 188.914811 115.952188 
L 188.914811 114.888282 
L 189.071575 114.888282 
L 189.088913 112.405835 
L 189.278582 112.405835 
L 189.278582 111.341929 
L 189.432356 111.341929 
L 189.466358 107.086306 
L 189.601754 107.086306 
L 189.685885 101.766776 
L 189.886276 101.766776 
L 189.886276 100.348235 
L 190.035181 100.348235 
L 190.035181 99.9936 
L 190.215589 99.9936 
L 190.231905 98.929694 
L 190.345717 98.929694 
L 190.394284 98.220424 
L 190.539237 98.220424 
L 190.587307 95.028706 
L 190.667153 95.028706 
L 190.667153 93.255529 
L 190.77837 93.255529 
L 190.841629 90.773082 
L 190.967512 90.773082 
L 191.045763 85.453553 
L 191.139237 85.453553 
L 191.154771 84.744282 
L 191.340184 84.744282 
L 191.401584 82.971106 
L 191.539007 82.971106 
L 191.539007 81.552565 
L 191.705616 81.552565 
L 191.780862 80.488659 
L 191.885704 80.488659 
L 191.975105 78.006212 
L 192.078873 78.006212 
L 192.09365 75.8784 
L 192.196768 75.8784 
L 192.299324 74.105224 
L 192.357677 74.105224 
L 192.401323 71.268141 
L 192.51722 71.268141 
L 192.603677 67.367153 
L 192.632408 67.367153 
L 192.704044 65.948612 
L 192.775408 65.948612 
L 192.803878 64.884706 
L 192.917329 64.884706 
L 192.945585 62.047624 
L 193.044149 62.047624 
L 193.142199 58.855906 
L 193.17012 58.855906 
L 193.17012 58.146635 
L 193.43332 58.146635 
L 193.501975 54.245647 
L 193.70645 54.245647 
L 193.787622 48.216847 
L 193.948923 48.216847 
L 193.975672 47.152941 
L 194.135375 47.152941 
L 194.214721 40.060235 
L 194.280588 40.060235 
L 194.280588 39.7056 
L 194.39857 39.7056 
L 194.476816 38.287059 
L 194.515817 38.287059 
L 194.554737 36.513882 
L 194.709619 36.513882 
L 194.812169 34.740706 
L 194.888717 34.740706 
L 194.888717 34.386071 
L 195.229378 34.386071 
L 195.329141 32.967529 
L 195.403618 32.967529 
L 195.403618 32.258259 
L 195.576259 32.258259 
L 195.674204 30.839718 
L 196.203973 30.839718 
L 196.203973 30.130447 
L 196.334116 30.130447 
L 196.381218 28.711906 
L 196.638195 28.711906 
L 196.638195 28.357271 
L 196.788411 28.357271 
L 196.788411 27.648 
L 360.8064 27.648 
L 360.8064 27.648 
" style="fill:none;stroke:#000080;stroke-linecap:square;stroke-width:1.5;"/>
   </g>
   <g id="line2d_36">
    <defs>
     <path d="M 0 6 
C 1.591219 6 3.117479 5.367802 4.242641 4.242641 
C 5.367802 3.117479 6 1.591219 6 0 
C 6 -1.591219 5.367802 -3.117479 4.242641 -4.242641 
C 3.117479 -5.367802 1.591219 -6 0 -6 
C -1.591219 -6 -3.117479 -5.367802 -4.242641 -4.242641 
C -5.367802 -3.117479 -6 -1.591219 -6 0 
C -6 1.591219 -5.367802 3.117479 -4.242641 4.242641 
C -3.117479 5.367802 -1.591219 6 0 6 
z
" id="mbe7c7aa117" style="stroke:#000080;stroke-width:1.5;"/>
    </defs>
    <g>
     <use style="fill-opacity:0;stroke:#000080;stroke-width:1.5;" x="188.791974" xlink:href="#mbe7c7aa117" y="120.207812"/>
     <use style="fill-opacity:0;stroke:#000080;stroke-width:1.5;" x="196.788411" xlink:href="#mbe7c7aa117" y="28.357271"/>
     <use style="fill-opacity:0;stroke:#000080;stroke-width:1.5;" x="196.788411" xlink:href="#mbe7c7aa117" y="27.648"/>
     <use style="fill-opacity:0;stroke:#000080;stroke-width:1.5;" x="196.788411" xlink:href="#mbe7c7aa117" y="27.648"/>
     <use style="fill-opacity:0;stroke:#000080;stroke-width:1.5;" x="360.8064" xlink:href="#mbe7c7aa117" y="27.648"/>
    </g>
   </g>
   <g id="line2d_37">
    <path style="fill:none;stroke:#000080;stroke-linecap:square;stroke-width:1.5;"/>
    <g/>
   </g>
   <g id="line2d_38">
    <defs>
     <path d="M 0 1.5 
C 0.397805 1.5 0.77937 1.341951 1.06066 1.06066 
C 1.341951 0.77937 1.5 0.397805 1.5 0 
C 1.5 -0.397805 1.341951 -0.77937 1.06066 -1.06066 
C 0.77937 -1.341951 0.397805 -1.5 0 -1.5 
C -0.397805 -1.5 -0.77937 -1.341951 -1.06066 -1.06066 
C -1.341951 -0.77937 -1.5 -0.397805 -1.5 0 
C -1.5 0.397805 -1.341951 0.77937 -1.06066 1.06066 
C -0.77937 1.341951 -0.397805 1.5 0 1.5 
z
" id="maaf3af33f8" style="stroke:#ff00ff;"/>
    </defs>
    <g>
     <use style="fill:#ff00ff;stroke:#ff00ff;" x="204.988248" xlink:href="#maaf3af33f8" y="27.648"/>
     <use style="fill:#ff00ff;stroke:#ff00ff;" x="204.988248" xlink:href="#maaf3af33f8" y="27.648"/>
    </g>
   </g>
   <g id="line2d_39">
    <path d="M 94.205591 298.944 
L 94.205591 298.234729 
L 95.503454 298.234729 
L 95.503454 297.170824 
L 110.335561 297.170824 
L 110.335561 296.816188 
L 112.989468 296.816188 
L 112.989468 295.752282 
L 114.872193 295.752282 
L 114.872193 294.688376 
L 115.314838 294.688376 
L 115.314838 290.432753 
L 115.747307 290.432753 
L 115.747307 285.822494 
L 116.170056 285.822494 
L 116.170056 284.049318 
L 118.152051 284.049318 
L 118.152051 279.793694 
L 119.944983 279.793694 
L 119.944983 278.375153 
L 121.581803 278.375153 
L 121.581803 276.956612 
L 121.892744 276.956612 
L 121.892744 276.247341 
L 122.795872 276.247341 
L 122.795872 275.538071 
L 123.08753 275.538071 
L 123.08753 273.410259 
L 125.526971 273.410259 
L 125.526971 271.282447 
L 128.786481 271.282447 
L 128.786481 270.927812 
L 132.984158 270.927812 
L 132.984158 270.218541 
L 134.304809 270.218541 
L 134.304809 269.863906 
L 135.981441 269.863906 
L 135.981441 269.509271 
L 136.555884 269.509271 
L 136.555884 269.154635 
L 136.696795 269.154635 
L 136.696795 268.090729 
L 137.654681 268.090729 
L 137.654681 267.736094 
L 140.950542 267.736094 
L 140.950542 267.381459 
L 141.062184 267.381459 
L 141.173167 266.672188 
L 141.825656 266.672188 
L 141.825656 265.608282 
L 142.248405 265.608282 
L 142.248405 262.061929 
L 143.166224 262.061929 
L 143.166224 261.707294 
L 143.946089 261.707294 
L 143.946089 259.224847 
L 144.510478 259.224847 
L 144.510478 257.806306 
L 144.877544 257.806306 
L 144.877544 256.387765 
L 145.058426 256.387765 
L 145.058426 255.678494 
L 146.695245 255.678494 
L 146.695245 255.323859 
L 148.048032 255.323859 
L 148.048032 254.969224 
L 148.428077 254.969224 
L 148.503173 253.905318 
L 148.874221 253.905318 
L 148.947561 252.841412 
L 149.020615 252.841412 
L 149.093387 249.649694 
L 149.453084 249.649694 
L 149.524205 248.940424 
L 149.73597 248.940424 
L 149.806031 248.231153 
L 149.875833 248.231153 
L 149.945377 246.812612 
L 150.014665 246.812612 
L 150.014665 237.946729 
L 150.62703 237.946729 
L 150.62703 237.592094 
L 150.958812 237.592094 
L 150.958812 237.237459 
L 151.41369 237.237459 
L 151.41369 236.882824 
L 151.795018 236.882824 
L 151.795018 236.528188 
L 152.413875 236.528188 
L 152.413875 236.173553 
L 152.595631 236.173553 
L 152.655828 231.208659 
L 152.835271 231.208659 
L 152.835271 229.790118 
L 153.01302 229.790118 
L 153.071898 228.371576 
L 153.189104 228.371576 
L 153.189104 228.016941 
L 153.363556 228.016941 
L 153.363556 226.953035 
L 153.593669 226.953035 
L 153.593669 226.5984 
L 153.707679 226.5984 
L 153.707679 223.052047 
L 153.821002 223.052047 
L 153.821002 222.697412 
L 154.212341 222.697412 
L 154.267588 221.988141 
L 154.486967 221.988141 
L 154.486967 221.278871 
L 154.649839 221.278871 
L 154.649839 220.924235 
L 154.86483 220.924235 
L 154.86483 220.214965 
L 155.077392 220.214965 
L 155.18278 218.087153 
L 155.235253 218.087153 
L 155.339761 215.604706 
L 155.649849 215.604706 
L 155.649849 215.250071 
L 155.802997 215.250071 
L 155.904407 214.186165 
L 155.954908 214.186165 
L 155.954908 212.767624 
L 156.205398 212.767624 
L 156.255099 210.639812 
L 156.403417 210.639812 
L 156.501649 209.221271 
L 156.648044 209.221271 
L 156.648044 208.512 
L 156.793307 208.512 
L 156.84148 207.093459 
L 157.080512 207.093459 
L 157.175281 205.320282 
L 157.269574 205.320282 
L 157.363398 204.256376 
L 157.410135 204.256376 
L 157.503261 202.128565 
L 157.549652 202.128565 
L 157.549652 200.710024 
L 157.779907 200.710024 
L 157.871225 199.291482 
L 157.962102 199.291482 
L 158.052543 197.872941 
L 158.14255 197.872941 
L 158.14255 197.518306 
L 158.365703 197.518306 
L 158.365703 197.163671 
L 158.498335 197.163671 
L 158.58624 193.617318 
L 158.673735 193.617318 
L 158.673735 192.553412 
L 158.847515 192.553412 
L 158.847515 191.844141 
L 159.105212 191.844141 
L 159.105212 191.489506 
L 159.443406 191.489506 
L 159.443406 190.780235 
L 159.568678 190.780235 
L 159.568678 187.588518 
L 160.020999 187.588518 
L 160.061585 186.524612 
L 160.343261 186.524612 
L 160.343261 185.815341 
L 160.502345 185.815341 
L 160.581385 181.559718 
L 160.660094 181.559718 
L 160.660094 180.495812 
L 160.777545 180.495812 
L 160.777545 180.141176 
L 160.894266 180.141176 
L 160.933013 178.722635 
L 161.048777 178.722635 
L 161.125559 177.304094 
L 161.240147 177.304094 
L 161.316153 175.885553 
L 161.354042 175.885553 
L 161.354042 175.176282 
L 161.467251 175.176282 
L 161.467251 174.821647 
L 161.617145 174.821647 
L 161.617145 173.757741 
L 161.728786 173.757741 
L 161.839769 172.693835 
L 161.950101 172.693835 
L 161.950101 172.3392 
L 162.096211 172.3392 
L 162.205054 167.019671 
L 162.241195 167.019671 
L 162.241195 166.3104 
L 162.492258 166.3104 
L 162.56338 165.601129 
L 162.634233 165.601129 
L 162.66956 164.537224 
L 162.775144 164.537224 
L 162.880139 163.118682 
L 162.949812 163.118682 
L 163.053839 161.345506 
L 163.088387 161.345506 
L 163.157294 159.572329 
L 163.22595 159.572329 
L 163.328465 158.153788 
L 163.362513 158.153788 
L 163.362513 156.025976 
L 163.565517 156.025976 
L 163.565517 155.671341 
L 163.699647 155.671341 
L 163.73303 154.2528 
L 163.865975 154.2528 
L 163.96507 151.770353 
L 164.194282 151.770353 
L 164.291668 149.997176 
L 164.420735 149.997176 
L 164.420735 149.642541 
L 164.548924 149.642541 
L 164.644495 147.514729 
L 164.771172 147.514729 
L 164.834193 146.805459 
L 165.021997 146.805459 
L 165.084184 146.096188 
L 165.207944 146.096188 
L 165.238758 145.386918 
L 165.330896 145.386918 
L 165.330896 145.032282 
L 165.634805 145.032282 
L 165.634805 144.677647 
L 165.755007 144.677647 
L 165.844657 142.549835 
L 165.904188 142.549835 
L 165.904188 142.1952 
L 166.022686 142.1952 
L 166.111072 140.067388 
L 166.140442 140.067388 
L 166.228279 139.003482 
L 166.315707 139.003482 
L 166.373767 138.294212 
L 166.460523 138.294212 
L 166.518139 137.584941 
L 166.83191 137.584941 
L 166.916583 136.1664 
L 166.972821 136.1664 
L 166.972821 135.811765 
L 167.084795 135.811765 
L 167.16834 135.102494 
L 167.334325 135.102494 
L 167.334325 134.393224 
L 167.471536 134.393224 
L 167.526142 132.265412 
L 167.689013 132.265412 
L 167.769923 130.1376 
L 167.823671 130.1376 
L 167.930707 128.719059 
L 167.983997 128.719059 
L 168.037137 127.655153 
L 168.142969 127.655153 
L 168.248209 126.591247 
L 168.274427 126.591247 
L 168.274427 126.236612 
L 168.430973 126.236612 
L 168.534619 124.818071 
L 168.560441 124.818071 
L 168.637696 123.044894 
L 168.714635 123.044894 
L 168.816733 122.335624 
L 168.892945 122.335624 
L 168.968849 121.626353 
L 169.119745 121.626353 
L 169.219673 119.143906 
L 169.294273 119.143906 
L 169.368578 118.08 
L 169.417952 118.08 
L 169.491772 116.661459 
L 169.662898 116.661459 
L 169.735764 115.952188 
L 170.024438 115.952188 
L 170.048295 115.242918 
L 170.28522 115.242918 
L 170.37916 114.179012 
L 170.425955 114.179012 
L 170.519197 113.115106 
L 170.565646 113.115106 
L 170.6582 111.341929 
L 170.727317 111.341929 
L 170.796182 110.278024 
L 170.93316 110.278024 
L 170.978599 109.214118 
L 171.046551 109.214118 
L 171.091717 108.150212 
L 171.271304 108.150212 
L 171.271304 107.795576 
L 171.382681 107.795576 
L 171.449192 107.086306 
L 171.537509 107.086306 
L 171.625414 105.667765 
L 171.669213 105.667765 
L 171.778266 104.603859 
L 171.82171 104.603859 
L 171.929885 103.539953 
L 171.951446 103.539953 
L 171.972982 102.830682 
L 172.144386 102.830682 
L 172.250727 101.412141 
L 172.356469 101.412141 
L 172.440637 99.284329 
L 172.566188 99.284329 
L 172.566188 98.575059 
L 172.732295 98.575059 
L 172.835373 96.801882 
L 172.978738 96.801882 
L 172.99913 95.737976 
L 173.10076 95.737976 
L 173.12102 94.674071 
L 173.262233 94.674071 
L 173.362455 93.255529 
L 173.382435 93.255529 
L 173.382435 92.900894 
L 173.501874 92.900894 
L 173.581081 91.836988 
L 173.797195 91.836988 
L 173.894614 91.127718 
L 173.933441 91.127718 
L 174.010854 90.063812 
L 174.107176 90.063812 
L 174.164733 88.999906 
L 174.241203 88.999906 
L 174.260272 88.290635 
L 174.355328 88.290635 
L 174.412132 87.581365 
L 174.544011 87.581365 
L 174.544011 87.226729 
L 174.693607 87.226729 
L 174.693607 86.872094 
L 174.842022 86.872094 
L 174.934191 86.162824 
L 175.189886 86.162824 
L 175.298414 85.098918 
L 175.51361 85.098918 
L 175.620293 84.035012 
L 175.638014 84.035012 
L 175.743995 82.971106 
L 175.761601 82.971106 
L 175.849382 80.843294 
L 176.023726 80.843294 
L 176.110296 79.070118 
L 176.144812 79.070118 
L 176.179266 78.360847 
L 176.316452 78.360847 
L 176.316452 77.651576 
L 176.688635 77.651576 
L 176.772205 76.587671 
L 176.954762 76.587671 
L 176.954762 76.233035 
L 177.070019 76.233035 
L 177.086427 75.523765 
L 177.184574 75.523765 
L 177.184574 74.814494 
L 177.411613 74.814494 
L 177.427726 74.105224 
L 177.715419 74.105224 
L 177.794559 73.395953 
L 178.014396 73.395953 
L 178.014396 73.041318 
L 178.154375 73.041318 
L 178.18534 71.977412 
L 178.277932 71.977412 
L 178.339408 71.268141 
L 178.431246 71.268141 
L 178.431246 70.913506 
L 178.628705 70.913506 
L 178.734177 69.494965 
L 178.898732 69.494965 
L 178.958215 68.431059 
L 179.017511 68.431059 
L 179.017511 67.721788 
L 179.164938 67.721788 
L 179.223586 66.657882 
L 179.369413 66.657882 
L 179.369413 65.948612 
L 179.686307 65.948612 
L 179.75759 65.239341 
L 179.871084 65.239341 
L 179.955757 64.175435 
L 180.082057 64.175435 
L 180.082057 63.8208 
L 180.318334 63.8208 
L 180.33214 63.111529 
L 180.510711 63.111529 
L 180.538033 62.047624 
L 180.674054 62.047624 
L 180.782166 61.338353 
L 180.809098 61.338353 
L 180.916439 60.629082 
L 181.009863 60.629082 
L 181.116069 59.565176 
L 181.195331 59.565176 
L 181.221678 58.855906 
L 181.41811 58.855906 
L 181.41811 58.501271 
L 181.560869 58.501271 
L 181.560869 58.146635 
L 181.715379 58.146635 
L 181.804928 57.082729 
L 182.133854 57.082729 
L 182.233915 56.373459 
L 182.345852 56.373459 
L 182.345852 56.018824 
L 182.677721 56.018824 
L 182.762814 55.309553 
L 182.847523 55.309553 
L 182.943869 53.891012 
L 183.075545 53.891012 
L 183.158861 53.181741 
L 183.229982 53.181741 
L 183.289045 51.408565 
L 183.394894 51.408565 
L 183.46513 50.699294 
L 183.535105 50.699294 
L 183.535105 50.344659 
L 183.75499 50.344659 
L 183.858256 49.635388 
L 183.881127 49.635388 
L 183.881127 49.280753 
L 183.995068 49.280753 
L 183.995068 48.926118 
L 184.499429 48.926118 
L 184.499429 48.216847 
L 184.730249 48.216847 
L 184.839175 47.152941 
L 185.044414 47.152941 
L 185.087338 46.443671 
L 185.532226 46.443671 
L 185.553151 45.7344 
L 185.79213 45.7344 
L 185.864265 45.025129 
L 186.058675 45.025129 
L 186.119652 44.315859 
L 186.190544 44.315859 
L 186.251096 43.606588 
L 186.42161 43.606588 
L 186.42161 42.542682 
L 186.550968 42.542682 
L 186.550968 42.188047 
L 186.748259 42.188047 
L 186.836369 41.478776 
L 186.962916 41.478776 
L 186.962916 41.124141 
L 187.14635 41.124141 
L 187.14635 40.769506 
L 187.318496 40.769506 
L 187.385018 40.060235 
L 187.432391 40.060235 
L 187.432391 39.7056 
L 187.555003 39.7056 
L 187.555003 39.350965 
L 187.862709 39.350965 
L 187.862709 38.996329 
L 188.238128 38.996329 
L 188.328568 38.287059 
L 188.418576 38.287059 
L 188.418576 37.932424 
L 188.570607 37.932424 
L 188.641729 37.223153 
L 188.774361 37.223153 
L 188.871033 36.513882 
L 189.002064 36.513882 
L 189.080246 35.804612 
L 189.398292 35.804612 
L 189.398292 35.449976 
L 189.660685 35.449976 
L 189.660685 34.386071 
L 189.936042 34.386071 
L 189.952601 33.6768 
L 190.059884 33.6768 
L 190.059884 33.322165 
L 190.19926 33.322165 
L 190.19926 32.967529 
L 190.667153 32.967529 
L 190.691041 31.903624 
L 190.888934 31.903624 
L 190.888934 31.548988 
L 191.10813 31.548988 
L 191.1858 30.839718 
L 192.73976 30.839718 
L 192.810989 30.130447 
L 193.128223 30.130447 
L 193.128223 29.775812 
L 196.221772 29.775812 
L 196.292804 29.066541 
L 198.350272 29.066541 
L 198.350272 28.711906 
L 200.021484 28.711906 
L 200.021484 28.357271 
L 201.231919 28.357271 
L 201.231919 28.002635 
L 204.988248 28.002635 
L 204.988248 27.648 
L 360.8064 27.648 
L 360.8064 27.648 
" style="fill:none;stroke:#ff00ff;stroke-linecap:square;stroke-width:1.5;"/>
   </g>
   <g id="line2d_40">
    <defs>
     <path d="M -0 8.485281 
L 5.091169 0 
L 0 -8.485281 
L -5.091169 -0 
z
" id="m001180fbb4" style="stroke:#ff00ff;stroke-linejoin:miter;stroke-width:1.5;"/>
    </defs>
    <g>
     <use style="fill-opacity:0;stroke:#ff00ff;stroke-linejoin:miter;stroke-width:1.5;" x="160.020999" xlink:href="#m001180fbb4" y="186.879247"/>
     <use style="fill-opacity:0;stroke:#ff00ff;stroke-linejoin:miter;stroke-width:1.5;" x="204.988248" xlink:href="#m001180fbb4" y="28.002635"/>
     <use style="fill-opacity:0;stroke:#ff00ff;stroke-linejoin:miter;stroke-width:1.5;" x="204.988248" xlink:href="#m001180fbb4" y="27.648"/>
     <use style="fill-opacity:0;stroke:#ff00ff;stroke-linejoin:miter;stroke-width:1.5;" x="204.988248" xlink:href="#m001180fbb4" y="27.648"/>
     <use style="fill-opacity:0;stroke:#ff00ff;stroke-linejoin:miter;stroke-width:1.5;" x="360.8064" xlink:href="#m001180fbb4" y="27.648"/>
    </g>
   </g>
   <g id="line2d_41">
    <path style="fill:none;stroke:#ff00ff;stroke-linecap:square;stroke-width:1.5;"/>
    <g/>
   </g>
   <g id="line2d_42">
    <path clip-path="url(#pe29e0ab85e)" d="M 146.193574 255.678494 
" style="fill:none;stroke:#ff00ff;stroke-linecap:square;stroke-width:1.5;"/>
    <defs>
     <path d="M -12 12 
L 12 -12 
M -12 -12 
L 12 12 
" id="me460c3f88c" style="stroke:#ff00ff;"/>
    </defs>
    <g clip-path="url(#pe29e0ab85e)">
     <use style="fill:#ff00ff;stroke:#ff00ff;" x="146.193574" xlink:href="#me460c3f88c" y="255.678494"/>
    </g>
   </g>
   <g id="line2d_43">
    <defs>
     <path d="M 0 1.5 
C 0.397805 1.5 0.77937 1.341951 1.06066 1.06066 
C 1.341951 0.77937 1.5 0.397805 1.5 0 
C 1.5 -0.397805 1.341951 -0.77937 1.06066 -1.06066 
C 0.77937 -1.341951 0.397805 -1.5 0 -1.5 
C -0.397805 -1.5 -0.77937 -1.341951 -1.06066 -1.06066 
C -1.341951 -0.77937 -1.5 -0.397805 -1.5 0 
C -1.5 0.397805 -1.341951 0.77937 -1.06066 1.06066 
C -0.77937 1.341951 -0.397805 1.5 0 1.5 
z
" id="ma824892005" style="stroke:#ff7500;"/>
    </defs>
    <g>
     <use style="fill:#ff7500;stroke:#ff7500;" x="216.373342" xlink:href="#ma824892005" y="27.648"/>
     <use style="fill:#ff7500;stroke:#ff7500;" x="216.373342" xlink:href="#ma824892005" y="27.648"/>
    </g>
   </g>
   <g id="line2d_44">
    <path d="M 57.6 298.944 
L 57.6 298.589365 
L 101.833019 298.589365 
L 101.833019 297.170824 
L 121.892744 297.170824 
L 121.892744 296.461553 
L 123.08753 296.461553 
L 123.08753 295.043012 
L 126.756923 295.043012 
L 126.756923 293.979106 
L 130.027253 293.979106 
L 130.027253 293.624471 
L 135.687504 293.624471 
L 135.687504 293.269835 
L 139.676658 293.269835 
L 139.676658 292.9152 
L 142.248405 292.9152 
L 142.248405 292.560565 
L 144.324223 292.560565 
L 144.324223 292.205929 
L 144.602918 292.205929 
L 144.602918 289.723482 
L 149.806031 289.723482 
L 149.806031 289.368847 
L 149.945377 289.368847 
L 149.945377 287.595671 
L 150.083698 287.595671 
L 150.083698 286.8864 
L 150.357325 286.8864 
L 150.357325 286.531765 
L 151.60532 286.531765 
L 151.60532 286.177129 
L 153.478964 286.177129 
L 153.478964 285.822494 
L 154.212341 285.822494 
L 154.212341 284.403953 
L 154.595705 284.403953 
L 154.595705 282.985412 
L 155.85377 282.985412 
L 155.904407 281.566871 
L 157.032948 281.566871 
L 157.127956 275.183435 
L 158.052543 275.183435 
L 158.052543 273.764894 
L 158.673735 273.764894 
L 158.717331 270.218541 
L 159.14782 270.218541 
L 159.14782 269.509271 
L 159.693121 269.509271 
L 159.693121 265.962918 
L 159.898714 265.962918 
L 159.980326 263.835106 
L 160.738476 263.835106 
L 160.738476 263.480471 
L 160.894266 263.480471 
L 160.894266 263.125835 
L 161.728786 263.125835 
L 161.839769 261.707294 
L 162.740015 261.707294 
L 162.740015 259.934118 
L 163.766354 259.934118 
L 163.766354 258.870212 
L 163.932096 258.870212 
L 163.932096 258.515576 
L 164.865624 258.515576 
L 164.865624 257.097035 
L 165.422585 257.097035 
L 165.422585 256.387765 
L 165.604634 256.387765 
L 165.604634 256.033129 
L 165.904188 256.033129 
L 165.904188 255.678494 
L 166.022686 255.678494 
L 166.022686 254.969224 
L 166.661411 254.969224 
L 166.689935 252.841412 
L 167.279159 252.841412 
L 167.361848 251.777506 
L 167.957371 251.777506 
L 167.957371 251.422871 
L 168.090128 251.422871 
L 168.090128 251.068235 
L 168.765753 251.068235 
L 168.765753 250.004329 
L 168.968849 250.004329 
L 168.968849 248.940424 
L 169.219673 248.940424 
L 169.219673 248.585788 
L 169.368578 248.585788 
L 169.417952 247.167247 
L 169.516314 247.167247 
L 169.516314 246.812612 
L 170.238073 246.812612 
L 170.238073 246.103341 
L 170.93316 246.103341 
L 170.93316 245.748706 
L 171.248949 245.748706 
L 171.338209 245.039435 
L 171.47131 245.039435 
L 171.47131 243.975529 
L 171.603476 243.975529 
L 171.603476 243.620894 
L 171.972982 243.620894 
L 171.972982 243.266259 
L 172.144386 243.266259 
L 172.144386 242.556988 
L 172.711612 242.556988 
L 172.711612 242.202353 
L 172.835373 242.202353 
L 172.835373 241.847718 
L 173.161475 241.847718 
L 173.161475 241.138447 
L 173.362455 241.138447 
L 173.362455 240.783812 
L 173.640268 240.783812 
L 173.640268 240.429176 
L 173.836223 240.429176 
L 173.836223 239.719906 
L 173.972187 239.719906 
L 173.972187 239.010635 
L 174.145567 239.010635 
L 174.222115 238.301365 
L 174.260272 238.301365 
L 174.260272 237.946729 
L 174.449906 237.946729 
L 174.525228 236.882824 
L 174.860492 236.882824 
L 174.860492 236.528188 
L 175.37042 236.528188 
L 175.37042 235.818918 
L 175.549238 235.818918 
L 175.549238 235.464282 
L 175.673408 235.464282 
L 175.726373 233.691106 
L 175.901855 233.691106 
L 175.901855 233.336471 
L 176.265124 233.336471 
L 176.265124 232.981835 
L 176.452644 232.981835 
L 176.452644 232.6272 
L 176.921701 232.6272 
L 176.921701 231.917929 
L 177.086427 231.917929 
L 177.086427 231.563294 
L 177.572122 231.563294 
L 177.572122 230.144753 
L 178.107831 230.144753 
L 178.107831 229.790118 
L 178.779198 229.790118 
L 178.809153 228.371576 
L 178.973057 228.371576 
L 179.017511 227.662306 
L 179.135545 227.662306 
L 179.150247 226.953035 
L 179.800231 226.953035 
L 179.800231 226.243765 
L 180.276853 226.243765 
L 180.276853 225.889129 
L 180.728188 225.889129 
L 180.728188 225.534494 
L 181.036471 225.534494 
L 181.116069 224.825224 
L 181.483135 224.825224 
L 181.483135 224.470588 
L 181.944791 224.470588 
L 181.944791 224.115953 
L 182.096193 224.115953 
L 182.158919 222.697412 
L 182.283747 222.697412 
L 182.308614 221.988141 
L 182.979872 221.988141 
L 183.075545 220.5696 
L 183.25363 220.5696 
L 183.25363 220.214965 
L 183.441747 220.214965 
L 183.441747 219.860329 
L 183.616414 219.860329 
L 183.616414 219.505694 
L 183.892552 219.505694 
L 183.892552 219.151059 
L 184.23212 219.151059 
L 184.23212 218.796424 
L 184.343961 218.796424 
L 184.343961 218.441788 
L 184.477298 218.441788 
L 184.477298 218.087153 
L 184.620688 218.087153 
L 184.686501 217.377882 
L 184.828311 217.377882 
L 184.828311 217.023247 
L 185.001391 217.023247 
L 185.001391 216.668612 
L 185.215526 216.668612 
L 185.215526 216.313976 
L 185.553151 216.313976 
L 185.553151 215.959341 
L 185.802452 215.959341 
L 185.802452 215.604706 
L 185.987283 215.604706 
L 185.987283 215.250071 
L 186.57079 215.250071 
L 186.600485 214.5408 
L 186.689288 214.5408 
L 186.689288 214.186165 
L 186.807045 214.186165 
L 186.885142 213.476894 
L 187.078977 213.476894 
L 187.088617 212.767624 
L 187.194327 212.767624 
L 187.194327 212.412988 
L 187.347034 212.412988 
L 187.347034 212.058353 
L 187.742092 212.058353 
L 187.779287 210.994447 
L 187.862709 210.994447 
L 187.862709 210.639812 
L 187.982557 210.639812 
L 187.991745 208.512 
L 188.310515 208.512 
L 188.310515 208.157365 
L 188.561698 208.157365 
L 188.561698 207.802729 
L 188.70374 207.802729 
L 188.70374 206.384188 
L 189.010767 206.384188 
L 189.010767 204.965647 
L 189.209833 204.965647 
L 189.29573 203.901741 
L 189.474849 203.901741 
L 189.474849 203.547106 
L 189.601754 203.547106 
L 189.669089 202.837835 
L 189.736183 202.837835 
L 189.786347 202.128565 
L 189.952601 202.128565 
L 190.059884 200.710024 
L 190.068111 200.710024 
L 190.100984 199.291482 
L 190.288897 199.291482 
L 190.321387 197.872941 
L 190.426593 197.872941 
L 190.450788 196.809035 
L 190.539237 196.809035 
L 190.619286 195.745129 
L 190.714898 195.745129 
L 190.746661 195.035859 
L 190.85741 195.035859 
L 190.888934 194.326588 
L 190.975352 194.326588 
L 191.084767 189.007059 
L 191.131465 189.007059 
L 191.239978 187.588518 
L 191.255429 187.588518 
L 191.309408 186.524612 
L 191.409245 186.524612 
L 191.493311 184.3968 
L 191.561813 184.3968 
L 191.637636 180.850447 
L 191.705616 180.850447 
L 191.795875 177.658729 
L 191.930458 177.658729 
L 192.004812 175.530918 
L 192.09365 175.530918 
L 192.204112 173.048471 
L 192.343105 173.048471 
L 192.401323 168.792847 
L 192.466603 168.792847 
L 192.574902 163.473318 
L 192.603677 163.473318 
L 192.704044 159.572329 
L 192.775408 159.572329 
L 192.818097 156.380612 
L 192.931463 156.380612 
L 193.037126 154.962071 
L 193.05117 154.962071 
L 193.05117 154.607435 
L 193.191033 154.607435 
L 193.295253 153.188894 
L 193.336779 153.188894 
L 193.447071 152.124988 
L 193.488264 152.124988 
L 193.577208 149.642541 
L 193.686103 149.642541 
L 193.787622 148.933271 
L 193.828077 148.933271 
L 193.908727 147.160094 
L 193.948923 147.160094 
L 194.029057 143.613741 
L 194.068997 143.613741 
L 194.155243 139.003482 
L 194.181701 139.003482 
L 194.18831 137.939576 
L 194.319998 137.939576 
L 194.392035 136.521035 
L 194.463797 136.521035 
L 194.528799 134.393224 
L 194.64524 134.393224 
L 194.735309 132.265412 
L 194.773779 132.265412 
L 194.850482 128.009788 
L 194.926874 128.009788 
L 194.977631 126.591247 
L 195.040884 126.591247 
L 195.135367 124.818071 
L 195.19183 124.818071 
L 195.279326 123.399529 
L 195.30425 123.399529 
L 195.409811 118.434635 
L 195.416002 118.434635 
L 195.527095 114.888282 
L 195.539398 114.888282 
L 195.649766 110.987294 
L 195.722986 110.987294 
L 195.808051 109.214118 
L 195.844391 109.214118 
L 195.916859 107.795576 
L 196.013051 107.795576 
L 196.102787 106.377035 
L 196.168322 106.377035 
L 196.251402 105.313129 
L 196.286895 105.313129 
L 196.286895 104.249224 
L 196.422337 104.249224 
L 196.521822 102.121412 
L 196.533492 102.121412 
L 196.638195 99.638965 
L 196.672967 99.638965 
L 196.719229 96.801882 
L 196.794164 96.801882 
L 196.880259 95.383341 
L 196.977358 95.383341 
L 197.073959 93.610165 
L 197.119247 93.610165 
L 197.220748 92.546259 
L 197.254461 92.546259 
L 197.288113 91.836988 
L 197.38871 91.836988 
L 197.488772 89.354541 
L 197.516472 89.354541 
L 197.593818 87.226729 
L 197.632372 87.226729 
L 197.632372 86.872094 
L 197.785802 86.872094 
L 197.883779 84.035012 
L 197.916325 84.035012 
L 198.019017 80.488659 
L 198.185374 80.488659 
L 198.281297 78.360847 
L 198.302547 78.360847 
L 198.397876 77.296941 
L 198.555692 77.296941 
L 198.62367 75.8784 
L 198.675794 75.8784 
L 198.774433 73.750588 
L 198.836466 73.750588 
L 198.888005 72.332047 
L 198.959923 72.332047 
L 199.041779 69.8496 
L 199.082574 69.8496 
L 199.163899 68.076424 
L 199.209491 68.076424 
L 199.305378 67.012518 
L 199.345606 67.012518 
L 199.455791 65.593976 
L 199.500681 65.593976 
L 199.525574 64.530071 
L 199.654489 64.530071 
L 199.743223 63.111529 
L 199.865774 63.111529 
L 199.948655 61.692988 
L 200.045697 61.692988 
L 200.045697 61.338353 
L 200.171108 61.338353 
L 200.267012 59.210541 
L 200.286135 59.210541 
L 200.371945 57.792 
L 200.466833 57.792 
L 200.499931 57.082729 
L 200.636435 57.082729 
L 200.641125 56.373459 
L 200.74866 56.373459 
L 200.841671 55.309553 
L 200.864852 55.309553 
L 200.901883 53.891012 
L 201.035511 53.891012 
L 201.145387 52.827106 
L 201.245545 52.827106 
L 201.354204 51.7632 
L 201.381271 51.7632 
L 201.4083 50.699294 
L 201.507072 50.699294 
L 201.596417 49.990024 
L 201.627587 49.990024 
L 201.627587 49.635388 
L 201.747336 49.635388 
L 201.747336 49.280753 
L 201.88828 49.280753 
L 201.940863 48.571482 
L 202.032531 48.571482 
L 202.128088 46.443671 
L 202.175684 46.443671 
L 202.236089 45.7344 
L 202.437467 45.7344 
L 202.488539 45.025129 
L 202.564888 45.025129 
L 202.674626 43.961224 
L 202.712463 43.961224 
L 202.81717 41.833412 
L 202.838042 41.833412 
L 202.937904 40.414871 
L 203.037239 40.414871 
L 203.078475 39.350965 
L 203.295526 39.350965 
L 203.384892 37.577788 
L 203.457695 37.577788 
L 203.457695 37.223153 
L 203.630482 37.223153 
L 203.630482 36.868518 
L 203.742147 36.868518 
L 203.742147 36.513882 
L 203.983147 36.513882 
L 203.983147 36.159247 
L 205.257966 36.159247 
L 205.257966 35.804612 
L 205.750367 35.804612 
L 205.757513 35.095341 
L 205.98123 35.095341 
L 205.98123 34.740706 
L 206.170893 34.740706 
L 206.170893 34.386071 
L 206.303222 34.386071 
L 206.389776 32.967529 
L 206.602726 32.967529 
L 206.602726 32.612894 
L 207.058234 32.612894 
L 207.058234 32.258259 
L 207.257194 32.258259 
L 207.257194 31.903624 
L 207.427941 31.903624 
L 207.427941 31.548988 
L 207.603629 31.548988 
L 207.603629 31.194353 
L 207.764854 31.194353 
L 207.764854 30.839718 
L 207.975576 30.839718 
L 207.975576 30.485082 
L 208.740834 30.485082 
L 208.819925 29.775812 
L 210.751158 29.775812 
L 210.751158 29.421176 
L 211.208513 29.421176 
L 211.208513 29.066541 
L 211.555536 29.066541 
L 211.555536 28.711906 
L 212.789773 28.711906 
L 212.789773 28.357271 
L 214.512632 28.357271 
L 214.512632 28.002635 
L 216.373342 28.002635 
L 216.373342 27.648 
L 360.8064 27.648 
L 360.8064 27.648 
" style="fill:none;stroke:#ff7500;stroke-linecap:square;stroke-width:1.5;"/>
   </g>
   <g id="line2d_45">
    <defs>
     <path d="M 0 -6 
L -1.347084 -1.854102 
L -5.706339 -1.854102 
L -2.179628 0.708204 
L -3.526712 4.854102 
L -0 2.291796 
L 3.526712 4.854102 
L 2.179628 0.708204 
L 5.706339 -1.854102 
L 1.347084 -1.854102 
z
" id="m98cacdacb7" style="stroke:#ff7500;stroke-linejoin:bevel;stroke-width:1.5;"/>
    </defs>
    <g>
     <use style="fill-opacity:0;stroke:#ff7500;stroke-linejoin:bevel;stroke-width:1.5;" x="193.447071" xlink:href="#m98cacdacb7" y="152.479624"/>
     <use style="fill-opacity:0;stroke:#ff7500;stroke-linejoin:bevel;stroke-width:1.5;" x="216.373342" xlink:href="#m98cacdacb7" y="28.002635"/>
     <use style="fill-opacity:0;stroke:#ff7500;stroke-linejoin:bevel;stroke-width:1.5;" x="216.373342" xlink:href="#m98cacdacb7" y="27.648"/>
     <use style="fill-opacity:0;stroke:#ff7500;stroke-linejoin:bevel;stroke-width:1.5;" x="216.373342" xlink:href="#m98cacdacb7" y="27.648"/>
     <use style="fill-opacity:0;stroke:#ff7500;stroke-linejoin:bevel;stroke-width:1.5;" x="360.8064" xlink:href="#m98cacdacb7" y="27.648"/>
    </g>
   </g>
   <g id="line2d_46">
    <path style="fill:none;stroke:#ff7500;stroke-linecap:square;stroke-width:1.5;"/>
    <g/>
   </g>
   <g id="line2d_47">
    <path clip-path="url(#pe29e0ab85e)" d="M 155.598521 282.985412 
" style="fill:none;stroke:#ff7500;stroke-linecap:square;stroke-width:1.5;"/>
    <defs>
     <path d="M -12 12 
L 12 -12 
M -12 -12 
L 12 12 
" id="m02c4e909f9" style="stroke:#ff7500;"/>
    </defs>
    <g clip-path="url(#pe29e0ab85e)">
     <use style="fill:#ff7500;stroke:#ff7500;" x="155.598521" xlink:href="#m02c4e909f9" y="282.985412"/>
    </g>
   </g>
   <g id="line2d_48">
    <path d="M 360.8064 27.648 
L 380.514816 293.51808 
" style="fill:none;stroke:#ff7500;stroke-linecap:square;stroke-width:1.5;"/>
    <g>
     <use style="fill-opacity:0;stroke:#ff7500;stroke-linejoin:bevel;stroke-width:1.5;" x="360.8064" xlink:href="#m98cacdacb7" y="27.648"/>
     <use style="fill-opacity:0;stroke:#ff7500;stroke-linejoin:bevel;stroke-width:1.5;" x="380.514816" xlink:href="#m98cacdacb7" y="293.51808"/>
    </g>
   </g>
   <g id="line2d_49">
    <path d="M 360.8064 27.648 
L 380.514816 206.70336 
" style="fill:none;stroke:#ff00ff;stroke-linecap:square;stroke-width:1.5;"/>
    <g>
     <use style="fill-opacity:0;stroke:#ff00ff;stroke-linejoin:miter;stroke-width:1.5;" x="360.8064" xlink:href="#m001180fbb4" y="27.648"/>
     <use style="fill-opacity:0;stroke:#ff00ff;stroke-linejoin:miter;stroke-width:1.5;" x="380.514816" xlink:href="#m001180fbb4" y="206.70336"/>
    </g>
   </g>
   <g id="line2d_50">
    <path d="M 360.8064 27.648 
L 380.514816 119.88864 
" style="fill:none;stroke:#000080;stroke-linecap:square;stroke-width:1.5;"/>
    <g>
     <use style="fill-opacity:0;stroke:#000080;stroke-width:1.5;" x="360.8064" xlink:href="#mbe7c7aa117" y="27.648"/>
     <use style="fill-opacity:0;stroke:#000080;stroke-width:1.5;" x="380.514816" xlink:href="#mbe7c7aa117" y="119.88864"/>
    </g>
   </g>
   <g id="line2d_51">
    <path d="M 360.8064 298.944 
L 360.8064 27.648 
" style="fill:none;stroke:#000000;stroke-linecap:square;stroke-width:1.5;"/>
   </g>
   <g id="patch_3">
    <path d="M 57.6 298.944 
L 360.8064 298.944 
" style="fill:none;stroke:#000000;stroke-linecap:square;stroke-linejoin:miter;stroke-width:0.8;"/>
   </g>
   <g id="patch_4">
    <path d="M 57.6 27.648 
L 360.8064 27.648 
" style="fill:none;stroke:#000000;stroke-linecap:square;stroke-linejoin:miter;stroke-width:0.8;"/>
   </g>
   <g id="text_13">
    <!-- diffcma b -->
    <g transform="translate(386.578944 297.381205)scale(0.14 -0.14)">
     <defs>
      <path d="M 3116 1747 
Q 3116 2381 2855 2742 
Q 2594 3103 2138 3103 
Q 1681 3103 1420 2742 
Q 1159 2381 1159 1747 
Q 1159 1113 1420 752 
Q 1681 391 2138 391 
Q 2594 391 2855 752 
Q 3116 1113 3116 1747 
z
M 1159 2969 
Q 1341 3281 1617 3432 
Q 1894 3584 2278 3584 
Q 2916 3584 3314 3078 
Q 3713 2572 3713 1747 
Q 3713 922 3314 415 
Q 2916 -91 2278 -91 
Q 1894 -91 1617 61 
Q 1341 213 1159 525 
L 1159 0 
L 581 0 
L 581 4863 
L 1159 4863 
L 1159 2969 
z
" id="DejaVuSans-62" transform="scale(0.015625)"/>
     </defs>
     <use xlink:href="#DejaVuSans-64"/>
     <use x="63.476562" xlink:href="#DejaVuSans-69"/>
     <use x="91.259766" xlink:href="#DejaVuSans-66"/>
     <use x="126.464844" xlink:href="#DejaVuSans-66"/>
     <use x="161.669922" xlink:href="#DejaVuSans-63"/>
     <use x="216.650391" xlink:href="#DejaVuSans-6d"/>
     <use x="314.0625" xlink:href="#DejaVuSans-61"/>
     <use x="375.341797" xlink:href="#DejaVuSans-20"/>
     <use x="407.128906" xlink:href="#DejaVuSans-62"/>
    </g>
   </g>
   <g id="text_14">
    <!-- cma.fmin  -->
    <g transform="translate(386.578944 210.566485)scale(0.14 -0.14)">
     <use xlink:href="#DejaVuSans-63"/>
     <use x="54.980469" xlink:href="#DejaVuSans-6d"/>
     <use x="152.392578" xlink:href="#DejaVuSans-61"/>
     <use x="213.671875" xlink:href="#DejaVuSans-2e"/>
     <use x="245.458984" xlink:href="#DejaVuSans-66"/>
     <use x="280.664062" xlink:href="#DejaVuSans-6d"/>
     <use x="378.076172" xlink:href="#DejaVuSans-69"/>
     <use x="405.859375" xlink:href="#DejaVuSans-6e"/>
     <use x="469.238281" xlink:href="#DejaVuSans-20"/>
    </g>
   </g>
   <g id="text_15">
    <!-- different -->
    <g transform="translate(386.578944 123.751765)scale(0.14 -0.14)">
     <use xlink:href="#DejaVuSans-64"/>
     <use x="63.476562" xlink:href="#DejaVuSans-69"/>
     <use x="91.259766" xlink:href="#DejaVuSans-66"/>
     <use x="126.464844" xlink:href="#DejaVuSans-66"/>
     <use x="161.669922" xlink:href="#DejaVuSans-65"/>
     <use x="223.193359" xlink:href="#DejaVuSans-72"/>
     <use x="262.056641" xlink:href="#DejaVuSans-65"/>
     <use x="323.580078" xlink:href="#DejaVuSans-6e"/>
     <use x="386.958984" xlink:href="#DejaVuSans-74"/>
    </g>
   </g>
   <g id="text_16">
    <!-- best 2009 -->
    <g transform="translate(386.578944 36.937045)scale(0.14 -0.14)">
     <defs>
      <path d="M 703 97 
L 703 672 
Q 941 559 1184 500 
Q 1428 441 1663 441 
Q 2288 441 2617 861 
Q 2947 1281 2994 2138 
Q 2813 1869 2534 1725 
Q 2256 1581 1919 1581 
Q 1219 1581 811 2004 
Q 403 2428 403 3163 
Q 403 3881 828 4315 
Q 1253 4750 1959 4750 
Q 2769 4750 3195 4129 
Q 3622 3509 3622 2328 
Q 3622 1225 3098 567 
Q 2575 -91 1691 -91 
Q 1453 -91 1209 -44 
Q 966 3 703 97 
z
M 1959 2075 
Q 2384 2075 2632 2365 
Q 2881 2656 2881 3163 
Q 2881 3666 2632 3958 
Q 2384 4250 1959 4250 
Q 1534 4250 1286 3958 
Q 1038 3666 1038 3163 
Q 1038 2656 1286 2365 
Q 1534 2075 1959 2075 
z
" id="DejaVuSans-39" transform="scale(0.015625)"/>
     </defs>
     <use xlink:href="#DejaVuSans-62"/>
     <use x="63.476562" xlink:href="#DejaVuSans-65"/>
     <use x="125" xlink:href="#DejaVuSans-73"/>
     <use x="177.099609" xlink:href="#DejaVuSans-74"/>
     <use x="216.308594" xlink:href="#DejaVuSans-20"/>
     <use x="248.095703" xlink:href="#DejaVuSans-32"/>
     <use x="311.71875" xlink:href="#DejaVuSans-30"/>
     <use x="375.341797" xlink:href="#DejaVuSans-30"/>
     <use x="438.964844" xlink:href="#DejaVuSans-39"/>
    </g>
   </g>
   <g id="text_17">
    <!-- bbob f2, 2-D -->
    <g transform="translate(60.632064 38.111366)scale(0.102 -0.102)">
     <defs>
      <path d="M 1259 4147 
L 1259 519 
L 2022 519 
Q 2988 519 3436 956 
Q 3884 1394 3884 2338 
Q 3884 3275 3436 3711 
Q 2988 4147 2022 4147 
L 1259 4147 
z
M 628 4666 
L 1925 4666 
Q 3281 4666 3915 4102 
Q 4550 3538 4550 2338 
Q 4550 1131 3912 565 
Q 3275 0 1925 0 
L 628 0 
L 628 4666 
z
" id="DejaVuSans-44" transform="scale(0.015625)"/>
     </defs>
     <use xlink:href="#DejaVuSans-62"/>
     <use x="63.476562" xlink:href="#DejaVuSans-62"/>
     <use x="126.953125" xlink:href="#DejaVuSans-6f"/>
     <use x="188.134766" xlink:href="#DejaVuSans-62"/>
     <use x="251.611328" xlink:href="#DejaVuSans-20"/>
     <use x="283.398438" xlink:href="#DejaVuSans-66"/>
     <use x="318.603516" xlink:href="#DejaVuSans-32"/>
     <use x="382.226562" xlink:href="#DejaVuSans-2c"/>
     <use x="414.013672" xlink:href="#DejaVuSans-20"/>
     <use x="445.800781" xlink:href="#DejaVuSans-32"/>
     <use x="509.423828" xlink:href="#DejaVuSans-2d"/>
     <use x="545.507812" xlink:href="#DejaVuSans-44"/>
    </g>
    <!-- 51 targets: 100..1e-08 -->
    <g transform="translate(60.632064 49.533135)scale(0.102 -0.102)">
     <defs>
      <path d="M 691 4666 
L 3169 4666 
L 3169 4134 
L 1269 4134 
L 1269 2991 
Q 1406 3038 1543 3061 
Q 1681 3084 1819 3084 
Q 2600 3084 3056 2656 
Q 3513 2228 3513 1497 
Q 3513 744 3044 326 
Q 2575 -91 1722 -91 
Q 1428 -91 1123 -41 
Q 819 9 494 109 
L 494 744 
Q 775 591 1075 516 
Q 1375 441 1709 441 
Q 2250 441 2565 725 
Q 2881 1009 2881 1497 
Q 2881 1984 2565 2268 
Q 2250 2553 1709 2553 
Q 1456 2553 1204 2497 
Q 953 2441 691 2322 
L 691 4666 
z
" id="DejaVuSans-35" transform="scale(0.015625)"/>
      <path d="M 750 794 
L 1409 794 
L 1409 0 
L 750 0 
L 750 794 
z
M 750 3309 
L 1409 3309 
L 1409 2516 
L 750 2516 
L 750 3309 
z
" id="DejaVuSans-3a" transform="scale(0.015625)"/>
     </defs>
     <use xlink:href="#DejaVuSans-35"/>
     <use x="63.623047" xlink:href="#DejaVuSans-31"/>
     <use x="127.246094" xlink:href="#DejaVuSans-20"/>
     <use x="159.033203" xlink:href="#DejaVuSans-74"/>
     <use x="198.242188" xlink:href="#DejaVuSans-61"/>
     <use x="259.521484" xlink:href="#DejaVuSans-72"/>
     <use x="298.884766" xlink:href="#DejaVuSans-67"/>
     <use x="362.361328" xlink:href="#DejaVuSans-65"/>
     <use x="423.884766" xlink:href="#DejaVuSans-74"/>
     <use x="463.09375" xlink:href="#DejaVuSans-73"/>
     <use x="515.193359" xlink:href="#DejaVuSans-3a"/>
     <use x="548.884766" xlink:href="#DejaVuSans-20"/>
     <use x="580.671875" xlink:href="#DejaVuSans-31"/>
     <use x="644.294922" xlink:href="#DejaVuSans-30"/>
     <use x="707.917969" xlink:href="#DejaVuSans-30"/>
     <use x="771.541016" xlink:href="#DejaVuSans-2e"/>
     <use x="803.328125" xlink:href="#DejaVuSans-2e"/>
     <use x="835.115234" xlink:href="#DejaVuSans-31"/>
     <use x="898.738281" xlink:href="#DejaVuSans-65"/>
     <use x="960.261719" xlink:href="#DejaVuSans-2d"/>
     <use x="996.345703" xlink:href="#DejaVuSans-30"/>
     <use x="1059.96875" xlink:href="#DejaVuSans-38"/>
    </g>
    <!-- 15 instances -->
    <g transform="translate(60.632064 60.954904)scale(0.102 -0.102)">
     <use xlink:href="#DejaVuSans-31"/>
     <use x="63.623047" xlink:href="#DejaVuSans-35"/>
     <use x="127.246094" xlink:href="#DejaVuSans-20"/>
     <use x="159.033203" xlink:href="#DejaVuSans-69"/>
     <use x="186.816406" xlink:href="#DejaVuSans-6e"/>
     <use x="250.195312" xlink:href="#DejaVuSans-73"/>
     <use x="302.294922" xlink:href="#DejaVuSans-74"/>
     <use x="341.503906" xlink:href="#DejaVuSans-61"/>
     <use x="402.783203" xlink:href="#DejaVuSans-6e"/>
     <use x="466.162109" xlink:href="#DejaVuSans-63"/>
     <use x="521.142578" xlink:href="#DejaVuSans-65"/>
     <use x="582.666016" xlink:href="#DejaVuSans-73"/>
    </g>
   </g>
   <g id="text_18">
    <!-- v2.6 -->
    <g style="fill:#808080;" transform="translate(198.292262 294.151352)scale(0.1 -0.1)">
     <use xlink:href="#DejaVuSans-76"/>
     <use x="59.179688" xlink:href="#DejaVuSans-32"/>
     <use x="122.802734" xlink:href="#DejaVuSans-2e"/>
     <use x="154.589844" xlink:href="#DejaVuSans-36"/>
    </g>
   </g>
   <g id="text_19">
    <!-- 2 Ellipsoid separable -->
    <g transform="translate(105.670387 21.648)scale(0.2 -0.2)">
     <defs>
      <path d="M 628 4666 
L 3578 4666 
L 3578 4134 
L 1259 4134 
L 1259 2753 
L 3481 2753 
L 3481 2222 
L 1259 2222 
L 1259 531 
L 3634 531 
L 3634 0 
L 628 0 
L 628 4666 
z
" id="DejaVuSans-45" transform="scale(0.015625)"/>
     </defs>
     <use xlink:href="#DejaVuSans-32"/>
     <use x="63.623047" xlink:href="#DejaVuSans-20"/>
     <use x="95.410156" xlink:href="#DejaVuSans-45"/>
     <use x="158.59375" xlink:href="#DejaVuSans-6c"/>
     <use x="186.376953" xlink:href="#DejaVuSans-6c"/>
     <use x="214.160156" xlink:href="#DejaVuSans-69"/>
     <use x="241.943359" xlink:href="#DejaVuSans-70"/>
     <use x="305.419922" xlink:href="#DejaVuSans-73"/>
     <use x="357.519531" xlink:href="#DejaVuSans-6f"/>
     <use x="418.701172" xlink:href="#DejaVuSans-69"/>
     <use x="446.484375" xlink:href="#DejaVuSans-64"/>
     <use x="509.960938" xlink:href="#DejaVuSans-20"/>
     <use x="541.748047" xlink:href="#DejaVuSans-73"/>
     <use x="593.847656" xlink:href="#DejaVuSans-65"/>
     <use x="655.371094" xlink:href="#DejaVuSans-70"/>
     <use x="718.847656" xlink:href="#DejaVuSans-61"/>
     <use x="780.126953" xlink:href="#DejaVuSans-72"/>
     <use x="821.240234" xlink:href="#DejaVuSans-61"/>
     <use x="882.519531" xlink:href="#DejaVuSans-62"/>
     <use x="945.996094" xlink:href="#DejaVuSans-6c"/>
     <use x="973.779297" xlink:href="#DejaVuSans-65"/>
    </g>
   </g>
  </g>
 </g>
 <defs>
  <clipPath id="pe29e0ab85e">
   <rect height="271.296" width="303.2064" x="57.6" y="27.648"/>
  </clipPath>
 </defs>
</svg>
