<?xml version="1.0" encoding="utf-8" standalone="no"?>
<!DOCTYPE svg PUBLIC "-//W3C//DTD SVG 1.1//EN"
  "http://www.w3.org/Graphics/SVG/1.1/DTD/svg11.dtd">
<svg height="345.6pt" version="1.1" viewBox="0 0 460.8 345.6" width="460.8pt" xmlns="http://www.w3.org/2000/svg" xmlns:xlink="http://www.w3.org/1999/xlink">
 <metadata>
  <rdf:RDF xmlns:cc="http://creativecommons.org/ns#" xmlns:dc="http://purl.org/dc/elements/1.1/" xmlns:rdf="http://www.w3.org/1999/02/22-rdf-syntax-ns#">
   <cc:Work>
    <dc:type rdf:resource="http://purl.org/dc/dcmitype/StillImage"/>
    <dc:date>2022-05-07T21:25:04.182957</dc:date>
    <dc:format>image/svg+xml</dc:format>
    <dc:creator>
     <cc:Agent>
      <dc:title>Matplotlib v3.4.3, https://matplotlib.org/</dc:title>
     </cc:Agent>
    </dc:creator>
   </cc:Work>
  </rdf:RDF>
 </metadata>
 <defs>
  <style type="text/css">*{stroke-linecap:butt;stroke-linejoin:round;}</style>
 </defs>
 <g id="figure_1">
  <g id="patch_1">
   <path d="M 0 345.6 
L 460.8 345.6 
L 460.8 0 
L 0 0 
z
" style="fill:#ffffff;"/>
  </g>
  <g id="axes_1">
   <g id="patch_2">
    <path d="M 57.6 298.944 
L 360.8064 298.944 
L 360.8064 27.648 
L 57.6 27.648 
z
" style="fill:#ffffff;"/>
   </g>
   <g id="line2d_1">
    <path d="M 66.441498 298.944 
L 66.441498 293.624471 
L 69.674268 293.624471 
L 69.674268 288.304941 
L 70.639174 288.304941 
L 70.639174 27.648 
L 360.8064 27.648 
" style="fill:none;stroke:#f5deb3;stroke-linecap:square;stroke-width:4;"/>
   </g>
   <g id="line2d_2">
    <defs>
     <path d="M -0 7.778175 
L 7.778175 0 
L 0 -7.778175 
L -7.778175 -0 
z
" id="m3b8111bd4f" style="stroke:#f5deb3;stroke-linejoin:miter;stroke-width:1.5;"/>
    </defs>
    <g>
     <use style="fill:#f5deb3;stroke:#f5deb3;stroke-linejoin:miter;stroke-width:1.5;" x="69.674268" xlink:href="#m3b8111bd4f" y="288.304941"/>
     <use style="fill:#f5deb3;stroke:#f5deb3;stroke-linejoin:miter;stroke-width:1.5;" x="70.639174" xlink:href="#m3b8111bd4f" y="288.304941"/>
     <use style="fill:#f5deb3;stroke:#f5deb3;stroke-linejoin:miter;stroke-width:1.5;" x="70.639174" xlink:href="#m3b8111bd4f" y="288.304941"/>
     <use style="fill:#f5deb3;stroke:#f5deb3;stroke-linejoin:miter;stroke-width:1.5;" x="70.639174" xlink:href="#m3b8111bd4f" y="27.648"/>
     <use style="fill:#f5deb3;stroke:#f5deb3;stroke-linejoin:miter;stroke-width:1.5;" x="360.8064" xlink:href="#m3b8111bd4f" y="27.648"/>
    </g>
   </g>
   <g id="line2d_3">
    <path style="fill:none;stroke:#f5deb3;stroke-linecap:square;stroke-width:4;"/>
    <g/>
   </g>
   <g id="line2d_4">
    <path d="M 360.8064 27.648 
L 380.514816 33.07392 
" style="fill:none;stroke:#f5deb3;stroke-linecap:square;stroke-width:4;"/>
    <g>
     <use style="fill:#f5deb3;stroke:#f5deb3;stroke-linejoin:miter;stroke-width:1.5;" x="360.8064" xlink:href="#m3b8111bd4f" y="27.648"/>
     <use style="fill:#f5deb3;stroke:#f5deb3;stroke-linejoin:miter;stroke-width:1.5;" x="380.514816" xlink:href="#m3b8111bd4f" y="33.07392"/>
    </g>
   </g>
   <g id="matplotlib.axis_1">
    <g id="xtick_1">
     <g id="line2d_5">
      <path clip-path="url(#p05be462f31)" d="M 57.6 298.944 
L 57.6 27.648 
" style="fill:none;stroke:#b0b0b0;stroke-linecap:square;stroke-width:0.8;"/>
     </g>
     <g id="line2d_6">
      <defs>
       <path d="M 0 0 
L 0 3.5 
" id="md4c7903566" style="stroke:#000000;stroke-width:0.8;"/>
      </defs>
      <g>
       <use style="stroke:#000000;stroke-width:0.8;" x="57.6" xlink:href="#md4c7903566" y="298.944"/>
      </g>
     </g>
     <g id="text_1">
      <!-- 0 -->
      <g transform="translate(52.191875 318.861344)scale(0.17 -0.17)">
       <defs>
        <path d="M 2034 4250 
Q 1547 4250 1301 3770 
Q 1056 3291 1056 2328 
Q 1056 1369 1301 889 
Q 1547 409 2034 409 
Q 2525 409 2770 889 
Q 3016 1369 3016 2328 
Q 3016 3291 2770 3770 
Q 2525 4250 2034 4250 
z
M 2034 4750 
Q 2819 4750 3233 4129 
Q 3647 3509 3647 2328 
Q 3647 1150 3233 529 
Q 2819 -91 2034 -91 
Q 1250 -91 836 529 
Q 422 1150 422 2328 
Q 422 3509 836 4129 
Q 1250 4750 2034 4750 
z
" id="DejaVuSans-30" transform="scale(0.015625)"/>
       </defs>
       <use xlink:href="#DejaVuSans-30"/>
      </g>
     </g>
    </g>
    <g id="xtick_2">
     <g id="line2d_7">
      <path clip-path="url(#p05be462f31)" d="M 144.2304 298.944 
L 144.2304 27.648 
" style="fill:none;stroke:#b0b0b0;stroke-linecap:square;stroke-width:0.8;"/>
     </g>
     <g id="line2d_8">
      <g>
       <use style="stroke:#000000;stroke-width:0.8;" x="144.2304" xlink:href="#md4c7903566" y="298.944"/>
      </g>
     </g>
     <g id="text_2">
      <!-- 2 -->
      <g transform="translate(138.822275 318.861344)scale(0.17 -0.17)">
       <defs>
        <path d="M 1228 531 
L 3431 531 
L 3431 0 
L 469 0 
L 469 531 
Q 828 903 1448 1529 
Q 2069 2156 2228 2338 
Q 2531 2678 2651 2914 
Q 2772 3150 2772 3378 
Q 2772 3750 2511 3984 
Q 2250 4219 1831 4219 
Q 1534 4219 1204 4116 
Q 875 4013 500 3803 
L 500 4441 
Q 881 4594 1212 4672 
Q 1544 4750 1819 4750 
Q 2544 4750 2975 4387 
Q 3406 4025 3406 3419 
Q 3406 3131 3298 2873 
Q 3191 2616 2906 2266 
Q 2828 2175 2409 1742 
Q 1991 1309 1228 531 
z
" id="DejaVuSans-32" transform="scale(0.015625)"/>
       </defs>
       <use xlink:href="#DejaVuSans-32"/>
      </g>
     </g>
    </g>
    <g id="xtick_3">
     <g id="line2d_9">
      <path clip-path="url(#p05be462f31)" d="M 230.8608 298.944 
L 230.8608 27.648 
" style="fill:none;stroke:#b0b0b0;stroke-linecap:square;stroke-width:0.8;"/>
     </g>
     <g id="line2d_10">
      <g>
       <use style="stroke:#000000;stroke-width:0.8;" x="230.8608" xlink:href="#md4c7903566" y="298.944"/>
      </g>
     </g>
     <g id="text_3">
      <!-- 4 -->
      <g transform="translate(225.452675 318.861344)scale(0.17 -0.17)">
       <defs>
        <path d="M 2419 4116 
L 825 1625 
L 2419 1625 
L 2419 4116 
z
M 2253 4666 
L 3047 4666 
L 3047 1625 
L 3713 1625 
L 3713 1100 
L 3047 1100 
L 3047 0 
L 2419 0 
L 2419 1100 
L 313 1100 
L 313 1709 
L 2253 4666 
z
" id="DejaVuSans-34" transform="scale(0.015625)"/>
       </defs>
       <use xlink:href="#DejaVuSans-34"/>
      </g>
     </g>
    </g>
    <g id="xtick_4">
     <g id="line2d_11">
      <path clip-path="url(#p05be462f31)" d="M 317.4912 298.944 
L 317.4912 27.648 
" style="fill:none;stroke:#b0b0b0;stroke-linecap:square;stroke-width:0.8;"/>
     </g>
     <g id="line2d_12">
      <g>
       <use style="stroke:#000000;stroke-width:0.8;" x="317.4912" xlink:href="#md4c7903566" y="298.944"/>
      </g>
     </g>
     <g id="text_4">
      <!-- 6 -->
      <g transform="translate(312.083075 318.861344)scale(0.17 -0.17)">
       <defs>
        <path d="M 2113 2584 
Q 1688 2584 1439 2293 
Q 1191 2003 1191 1497 
Q 1191 994 1439 701 
Q 1688 409 2113 409 
Q 2538 409 2786 701 
Q 3034 994 3034 1497 
Q 3034 2003 2786 2293 
Q 2538 2584 2113 2584 
z
M 3366 4563 
L 3366 3988 
Q 3128 4100 2886 4159 
Q 2644 4219 2406 4219 
Q 1781 4219 1451 3797 
Q 1122 3375 1075 2522 
Q 1259 2794 1537 2939 
Q 1816 3084 2150 3084 
Q 2853 3084 3261 2657 
Q 3669 2231 3669 1497 
Q 3669 778 3244 343 
Q 2819 -91 2113 -91 
Q 1303 -91 875 529 
Q 447 1150 447 2328 
Q 447 3434 972 4092 
Q 1497 4750 2381 4750 
Q 2619 4750 2861 4703 
Q 3103 4656 3366 4563 
z
" id="DejaVuSans-36" transform="scale(0.015625)"/>
       </defs>
       <use xlink:href="#DejaVuSans-36"/>
      </g>
     </g>
    </g>
    <g id="xtick_5">
     <g id="line2d_13">
      <path clip-path="url(#p05be462f31)" d="M 100.9152 298.944 
L 100.9152 27.648 
" style="fill:none;stroke:#b0b0b0;stroke-linecap:square;stroke-width:0.8;"/>
     </g>
     <g id="line2d_14">
      <defs>
       <path d="M 0 0 
L 0 2 
" id="m61cdaac620" style="stroke:#000000;stroke-width:0.6;"/>
      </defs>
      <g>
       <use style="stroke:#000000;stroke-width:0.6;" x="100.9152" xlink:href="#m61cdaac620" y="298.944"/>
      </g>
     </g>
    </g>
    <g id="xtick_6">
     <g id="line2d_15">
      <path clip-path="url(#p05be462f31)" d="M 187.5456 298.944 
L 187.5456 27.648 
" style="fill:none;stroke:#b0b0b0;stroke-linecap:square;stroke-width:0.8;"/>
     </g>
     <g id="line2d_16">
      <g>
       <use style="stroke:#000000;stroke-width:0.6;" x="187.5456" xlink:href="#m61cdaac620" y="298.944"/>
      </g>
     </g>
    </g>
    <g id="xtick_7">
     <g id="line2d_17">
      <path clip-path="url(#p05be462f31)" d="M 274.176 298.944 
L 274.176 27.648 
" style="fill:none;stroke:#b0b0b0;stroke-linecap:square;stroke-width:0.8;"/>
     </g>
     <g id="line2d_18">
      <g>
       <use style="stroke:#000000;stroke-width:0.6;" x="274.176" xlink:href="#m61cdaac620" y="298.944"/>
      </g>
     </g>
    </g>
    <g id="xtick_8">
     <g id="line2d_19">
      <path clip-path="url(#p05be462f31)" d="M 360.8064 298.944 
L 360.8064 27.648 
" style="fill:none;stroke:#b0b0b0;stroke-linecap:square;stroke-width:0.8;"/>
     </g>
     <g id="line2d_20">
      <g>
       <use style="stroke:#000000;stroke-width:0.6;" x="360.8064" xlink:href="#m61cdaac620" y="298.944"/>
      </g>
     </g>
    </g>
    <g id="text_5">
     <!-- log10(# f-evals / dimension) -->
     <g transform="translate(88.823278 339.314156)scale(0.17 -0.17)">
      <defs>
       <path d="M 603 4863 
L 1178 4863 
L 1178 0 
L 603 0 
L 603 4863 
z
" id="DejaVuSans-6c" transform="scale(0.015625)"/>
       <path d="M 1959 3097 
Q 1497 3097 1228 2736 
Q 959 2375 959 1747 
Q 959 1119 1226 758 
Q 1494 397 1959 397 
Q 2419 397 2687 759 
Q 2956 1122 2956 1747 
Q 2956 2369 2687 2733 
Q 2419 3097 1959 3097 
z
M 1959 3584 
Q 2709 3584 3137 3096 
Q 3566 2609 3566 1747 
Q 3566 888 3137 398 
Q 2709 -91 1959 -91 
Q 1206 -91 779 398 
Q 353 888 353 1747 
Q 353 2609 779 3096 
Q 1206 3584 1959 3584 
z
" id="DejaVuSans-6f" transform="scale(0.015625)"/>
       <path d="M 2906 1791 
Q 2906 2416 2648 2759 
Q 2391 3103 1925 3103 
Q 1463 3103 1205 2759 
Q 947 2416 947 1791 
Q 947 1169 1205 825 
Q 1463 481 1925 481 
Q 2391 481 2648 825 
Q 2906 1169 2906 1791 
z
M 3481 434 
Q 3481 -459 3084 -895 
Q 2688 -1331 1869 -1331 
Q 1566 -1331 1297 -1286 
Q 1028 -1241 775 -1147 
L 775 -588 
Q 1028 -725 1275 -790 
Q 1522 -856 1778 -856 
Q 2344 -856 2625 -561 
Q 2906 -266 2906 331 
L 2906 616 
Q 2728 306 2450 153 
Q 2172 0 1784 0 
Q 1141 0 747 490 
Q 353 981 353 1791 
Q 353 2603 747 3093 
Q 1141 3584 1784 3584 
Q 2172 3584 2450 3431 
Q 2728 3278 2906 2969 
L 2906 3500 
L 3481 3500 
L 3481 434 
z
" id="DejaVuSans-67" transform="scale(0.015625)"/>
       <path d="M 794 531 
L 1825 531 
L 1825 4091 
L 703 3866 
L 703 4441 
L 1819 4666 
L 2450 4666 
L 2450 531 
L 3481 531 
L 3481 0 
L 794 0 
L 794 531 
z
" id="DejaVuSans-31" transform="scale(0.015625)"/>
       <path d="M 1984 4856 
Q 1566 4138 1362 3434 
Q 1159 2731 1159 2009 
Q 1159 1288 1364 580 
Q 1569 -128 1984 -844 
L 1484 -844 
Q 1016 -109 783 600 
Q 550 1309 550 2009 
Q 550 2706 781 3412 
Q 1013 4119 1484 4856 
L 1984 4856 
z
" id="DejaVuSans-28" transform="scale(0.015625)"/>
       <path d="M 3272 2816 
L 2363 2816 
L 2100 1772 
L 3016 1772 
L 3272 2816 
z
M 2803 4594 
L 2478 3297 
L 3391 3297 
L 3719 4594 
L 4219 4594 
L 3897 3297 
L 4872 3297 
L 4872 2816 
L 3775 2816 
L 3519 1772 
L 4513 1772 
L 4513 1294 
L 3397 1294 
L 3072 0 
L 2572 0 
L 2894 1294 
L 1978 1294 
L 1656 0 
L 1153 0 
L 1478 1294 
L 494 1294 
L 494 1772 
L 1594 1772 
L 1856 2816 
L 850 2816 
L 850 3297 
L 1978 3297 
L 2297 4594 
L 2803 4594 
z
" id="DejaVuSans-23" transform="scale(0.015625)"/>
       <path id="DejaVuSans-20" transform="scale(0.015625)"/>
       <path d="M 2375 4863 
L 2375 4384 
L 1825 4384 
Q 1516 4384 1395 4259 
Q 1275 4134 1275 3809 
L 1275 3500 
L 2222 3500 
L 2222 3053 
L 1275 3053 
L 1275 0 
L 697 0 
L 697 3053 
L 147 3053 
L 147 3500 
L 697 3500 
L 697 3744 
Q 697 4328 969 4595 
Q 1241 4863 1831 4863 
L 2375 4863 
z
" id="DejaVuSans-66" transform="scale(0.015625)"/>
       <path d="M 313 2009 
L 1997 2009 
L 1997 1497 
L 313 1497 
L 313 2009 
z
" id="DejaVuSans-2d" transform="scale(0.015625)"/>
       <path d="M 3597 1894 
L 3597 1613 
L 953 1613 
Q 991 1019 1311 708 
Q 1631 397 2203 397 
Q 2534 397 2845 478 
Q 3156 559 3463 722 
L 3463 178 
Q 3153 47 2828 -22 
Q 2503 -91 2169 -91 
Q 1331 -91 842 396 
Q 353 884 353 1716 
Q 353 2575 817 3079 
Q 1281 3584 2069 3584 
Q 2775 3584 3186 3129 
Q 3597 2675 3597 1894 
z
M 3022 2063 
Q 3016 2534 2758 2815 
Q 2500 3097 2075 3097 
Q 1594 3097 1305 2825 
Q 1016 2553 972 2059 
L 3022 2063 
z
" id="DejaVuSans-65" transform="scale(0.015625)"/>
       <path d="M 191 3500 
L 800 3500 
L 1894 563 
L 2988 3500 
L 3597 3500 
L 2284 0 
L 1503 0 
L 191 3500 
z
" id="DejaVuSans-76" transform="scale(0.015625)"/>
       <path d="M 2194 1759 
Q 1497 1759 1228 1600 
Q 959 1441 959 1056 
Q 959 750 1161 570 
Q 1363 391 1709 391 
Q 2188 391 2477 730 
Q 2766 1069 2766 1631 
L 2766 1759 
L 2194 1759 
z
M 3341 1997 
L 3341 0 
L 2766 0 
L 2766 531 
Q 2569 213 2275 61 
Q 1981 -91 1556 -91 
Q 1019 -91 701 211 
Q 384 513 384 1019 
Q 384 1609 779 1909 
Q 1175 2209 1959 2209 
L 2766 2209 
L 2766 2266 
Q 2766 2663 2505 2880 
Q 2244 3097 1772 3097 
Q 1472 3097 1187 3025 
Q 903 2953 641 2809 
L 641 3341 
Q 956 3463 1253 3523 
Q 1550 3584 1831 3584 
Q 2591 3584 2966 3190 
Q 3341 2797 3341 1997 
z
" id="DejaVuSans-61" transform="scale(0.015625)"/>
       <path d="M 2834 3397 
L 2834 2853 
Q 2591 2978 2328 3040 
Q 2066 3103 1784 3103 
Q 1356 3103 1142 2972 
Q 928 2841 928 2578 
Q 928 2378 1081 2264 
Q 1234 2150 1697 2047 
L 1894 2003 
Q 2506 1872 2764 1633 
Q 3022 1394 3022 966 
Q 3022 478 2636 193 
Q 2250 -91 1575 -91 
Q 1294 -91 989 -36 
Q 684 19 347 128 
L 347 722 
Q 666 556 975 473 
Q 1284 391 1588 391 
Q 1994 391 2212 530 
Q 2431 669 2431 922 
Q 2431 1156 2273 1281 
Q 2116 1406 1581 1522 
L 1381 1569 
Q 847 1681 609 1914 
Q 372 2147 372 2553 
Q 372 3047 722 3315 
Q 1072 3584 1716 3584 
Q 2034 3584 2315 3537 
Q 2597 3491 2834 3397 
z
" id="DejaVuSans-73" transform="scale(0.015625)"/>
       <path d="M 1625 4666 
L 2156 4666 
L 531 -594 
L 0 -594 
L 1625 4666 
z
" id="DejaVuSans-2f" transform="scale(0.015625)"/>
       <path d="M 2906 2969 
L 2906 4863 
L 3481 4863 
L 3481 0 
L 2906 0 
L 2906 525 
Q 2725 213 2448 61 
Q 2172 -91 1784 -91 
Q 1150 -91 751 415 
Q 353 922 353 1747 
Q 353 2572 751 3078 
Q 1150 3584 1784 3584 
Q 2172 3584 2448 3432 
Q 2725 3281 2906 2969 
z
M 947 1747 
Q 947 1113 1208 752 
Q 1469 391 1925 391 
Q 2381 391 2643 752 
Q 2906 1113 2906 1747 
Q 2906 2381 2643 2742 
Q 2381 3103 1925 3103 
Q 1469 3103 1208 2742 
Q 947 2381 947 1747 
z
" id="DejaVuSans-64" transform="scale(0.015625)"/>
       <path d="M 603 3500 
L 1178 3500 
L 1178 0 
L 603 0 
L 603 3500 
z
M 603 4863 
L 1178 4863 
L 1178 4134 
L 603 4134 
L 603 4863 
z
" id="DejaVuSans-69" transform="scale(0.015625)"/>
       <path d="M 3328 2828 
Q 3544 3216 3844 3400 
Q 4144 3584 4550 3584 
Q 5097 3584 5394 3201 
Q 5691 2819 5691 2113 
L 5691 0 
L 5113 0 
L 5113 2094 
Q 5113 2597 4934 2840 
Q 4756 3084 4391 3084 
Q 3944 3084 3684 2787 
Q 3425 2491 3425 1978 
L 3425 0 
L 2847 0 
L 2847 2094 
Q 2847 2600 2669 2842 
Q 2491 3084 2119 3084 
Q 1678 3084 1418 2786 
Q 1159 2488 1159 1978 
L 1159 0 
L 581 0 
L 581 3500 
L 1159 3500 
L 1159 2956 
Q 1356 3278 1631 3431 
Q 1906 3584 2284 3584 
Q 2666 3584 2933 3390 
Q 3200 3197 3328 2828 
z
" id="DejaVuSans-6d" transform="scale(0.015625)"/>
       <path d="M 3513 2113 
L 3513 0 
L 2938 0 
L 2938 2094 
Q 2938 2591 2744 2837 
Q 2550 3084 2163 3084 
Q 1697 3084 1428 2787 
Q 1159 2491 1159 1978 
L 1159 0 
L 581 0 
L 581 3500 
L 1159 3500 
L 1159 2956 
Q 1366 3272 1645 3428 
Q 1925 3584 2291 3584 
Q 2894 3584 3203 3211 
Q 3513 2838 3513 2113 
z
" id="DejaVuSans-6e" transform="scale(0.015625)"/>
       <path d="M 513 4856 
L 1013 4856 
Q 1481 4119 1714 3412 
Q 1947 2706 1947 2009 
Q 1947 1309 1714 600 
Q 1481 -109 1013 -844 
L 513 -844 
Q 928 -128 1133 580 
Q 1338 1288 1338 2009 
Q 1338 2731 1133 3434 
Q 928 4138 513 4856 
z
" id="DejaVuSans-29" transform="scale(0.015625)"/>
      </defs>
      <use xlink:href="#DejaVuSans-6c"/>
      <use x="27.783203" xlink:href="#DejaVuSans-6f"/>
      <use x="88.964844" xlink:href="#DejaVuSans-67"/>
      <use x="152.441406" xlink:href="#DejaVuSans-31"/>
      <use x="216.064453" xlink:href="#DejaVuSans-30"/>
      <use x="279.6875" xlink:href="#DejaVuSans-28"/>
      <use x="318.701172" xlink:href="#DejaVuSans-23"/>
      <use x="402.490234" xlink:href="#DejaVuSans-20"/>
      <use x="434.277344" xlink:href="#DejaVuSans-66"/>
      <use x="463.982422" xlink:href="#DejaVuSans-2d"/>
      <use x="500.066406" xlink:href="#DejaVuSans-65"/>
      <use x="561.589844" xlink:href="#DejaVuSans-76"/>
      <use x="620.769531" xlink:href="#DejaVuSans-61"/>
      <use x="682.048828" xlink:href="#DejaVuSans-6c"/>
      <use x="709.832031" xlink:href="#DejaVuSans-73"/>
      <use x="761.931641" xlink:href="#DejaVuSans-20"/>
      <use x="793.71875" xlink:href="#DejaVuSans-2f"/>
      <use x="827.410156" xlink:href="#DejaVuSans-20"/>
      <use x="859.197266" xlink:href="#DejaVuSans-64"/>
      <use x="922.673828" xlink:href="#DejaVuSans-69"/>
      <use x="950.457031" xlink:href="#DejaVuSans-6d"/>
      <use x="1047.869141" xlink:href="#DejaVuSans-65"/>
      <use x="1109.392578" xlink:href="#DejaVuSans-6e"/>
      <use x="1172.771484" xlink:href="#DejaVuSans-73"/>
      <use x="1224.871094" xlink:href="#DejaVuSans-69"/>
      <use x="1252.654297" xlink:href="#DejaVuSans-6f"/>
      <use x="1313.835938" xlink:href="#DejaVuSans-6e"/>
      <use x="1377.214844" xlink:href="#DejaVuSans-29"/>
     </g>
    </g>
   </g>
   <g id="matplotlib.axis_2">
    <g id="ytick_1">
     <g id="line2d_21">
      <path clip-path="url(#p05be462f31)" d="M 57.6 298.944 
L 360.8064 298.944 
" style="fill:none;stroke:#b0b0b0;stroke-linecap:square;stroke-width:0.8;"/>
     </g>
     <g id="line2d_22">
      <defs>
       <path d="M 0 0 
L -3.5 0 
" id="mc10cf9ac57" style="stroke:#000000;stroke-width:0.8;"/>
      </defs>
      <g>
       <use style="stroke:#000000;stroke-width:0.8;" x="57.6" xlink:href="#mc10cf9ac57" y="298.944"/>
      </g>
     </g>
     <g id="text_6">
      <!-- 0.0 -->
      <g transform="translate(25.155 305.02275)scale(0.16 -0.16)">
       <defs>
        <path d="M 684 794 
L 1344 794 
L 1344 0 
L 684 0 
L 684 794 
z
" id="DejaVuSans-2e" transform="scale(0.015625)"/>
       </defs>
       <use xlink:href="#DejaVuSans-30"/>
       <use x="63.623047" xlink:href="#DejaVuSans-2e"/>
       <use x="95.410156" xlink:href="#DejaVuSans-30"/>
      </g>
     </g>
    </g>
    <g id="ytick_2">
     <g id="line2d_23">
      <path clip-path="url(#p05be462f31)" d="M 57.6 244.6848 
L 360.8064 244.6848 
" style="fill:none;stroke:#b0b0b0;stroke-linecap:square;stroke-width:0.8;"/>
     </g>
     <g id="line2d_24">
      <g>
       <use style="stroke:#000000;stroke-width:0.8;" x="57.6" xlink:href="#mc10cf9ac57" y="244.6848"/>
      </g>
     </g>
     <g id="text_7">
      <!-- 0.2 -->
      <g transform="translate(25.155 250.76355)scale(0.16 -0.16)">
       <use xlink:href="#DejaVuSans-30"/>
       <use x="63.623047" xlink:href="#DejaVuSans-2e"/>
       <use x="95.410156" xlink:href="#DejaVuSans-32"/>
      </g>
     </g>
    </g>
    <g id="ytick_3">
     <g id="line2d_25">
      <path clip-path="url(#p05be462f31)" d="M 57.6 190.4256 
L 360.8064 190.4256 
" style="fill:none;stroke:#b0b0b0;stroke-linecap:square;stroke-width:0.8;"/>
     </g>
     <g id="line2d_26">
      <g>
       <use style="stroke:#000000;stroke-width:0.8;" x="57.6" xlink:href="#mc10cf9ac57" y="190.4256"/>
      </g>
     </g>
     <g id="text_8">
      <!-- 0.4 -->
      <g transform="translate(25.155 196.50435)scale(0.16 -0.16)">
       <use xlink:href="#DejaVuSans-30"/>
       <use x="63.623047" xlink:href="#DejaVuSans-2e"/>
       <use x="95.410156" xlink:href="#DejaVuSans-34"/>
      </g>
     </g>
    </g>
    <g id="ytick_4">
     <g id="line2d_27">
      <path clip-path="url(#p05be462f31)" d="M 57.6 136.1664 
L 360.8064 136.1664 
" style="fill:none;stroke:#b0b0b0;stroke-linecap:square;stroke-width:0.8;"/>
     </g>
     <g id="line2d_28">
      <g>
       <use style="stroke:#000000;stroke-width:0.8;" x="57.6" xlink:href="#mc10cf9ac57" y="136.1664"/>
      </g>
     </g>
     <g id="text_9">
      <!-- 0.6 -->
      <g transform="translate(25.155 142.24515)scale(0.16 -0.16)">
       <use xlink:href="#DejaVuSans-30"/>
       <use x="63.623047" xlink:href="#DejaVuSans-2e"/>
       <use x="95.410156" xlink:href="#DejaVuSans-36"/>
      </g>
     </g>
    </g>
    <g id="ytick_5">
     <g id="line2d_29">
      <path clip-path="url(#p05be462f31)" d="M 57.6 81.9072 
L 360.8064 81.9072 
" style="fill:none;stroke:#b0b0b0;stroke-linecap:square;stroke-width:0.8;"/>
     </g>
     <g id="line2d_30">
      <g>
       <use style="stroke:#000000;stroke-width:0.8;" x="57.6" xlink:href="#mc10cf9ac57" y="81.9072"/>
      </g>
     </g>
     <g id="text_10">
      <!-- 0.8 -->
      <g transform="translate(25.155 87.98595)scale(0.16 -0.16)">
       <defs>
        <path d="M 2034 2216 
Q 1584 2216 1326 1975 
Q 1069 1734 1069 1313 
Q 1069 891 1326 650 
Q 1584 409 2034 409 
Q 2484 409 2743 651 
Q 3003 894 3003 1313 
Q 3003 1734 2745 1975 
Q 2488 2216 2034 2216 
z
M 1403 2484 
Q 997 2584 770 2862 
Q 544 3141 544 3541 
Q 544 4100 942 4425 
Q 1341 4750 2034 4750 
Q 2731 4750 3128 4425 
Q 3525 4100 3525 3541 
Q 3525 3141 3298 2862 
Q 3072 2584 2669 2484 
Q 3125 2378 3379 2068 
Q 3634 1759 3634 1313 
Q 3634 634 3220 271 
Q 2806 -91 2034 -91 
Q 1263 -91 848 271 
Q 434 634 434 1313 
Q 434 1759 690 2068 
Q 947 2378 1403 2484 
z
M 1172 3481 
Q 1172 3119 1398 2916 
Q 1625 2713 2034 2713 
Q 2441 2713 2670 2916 
Q 2900 3119 2900 3481 
Q 2900 3844 2670 4047 
Q 2441 4250 2034 4250 
Q 1625 4250 1398 4047 
Q 1172 3844 1172 3481 
z
" id="DejaVuSans-38" transform="scale(0.015625)"/>
       </defs>
       <use xlink:href="#DejaVuSans-30"/>
       <use x="63.623047" xlink:href="#DejaVuSans-2e"/>
       <use x="95.410156" xlink:href="#DejaVuSans-38"/>
      </g>
     </g>
    </g>
    <g id="ytick_6">
     <g id="line2d_31">
      <path clip-path="url(#p05be462f31)" d="M 57.6 27.648 
L 360.8064 27.648 
" style="fill:none;stroke:#b0b0b0;stroke-linecap:square;stroke-width:0.8;"/>
     </g>
     <g id="line2d_32">
      <g>
       <use style="stroke:#000000;stroke-width:0.8;" x="57.6" xlink:href="#mc10cf9ac57" y="27.648"/>
      </g>
     </g>
     <g id="text_11">
      <!-- 1.0 -->
      <g transform="translate(25.155 33.72675)scale(0.16 -0.16)">
       <use xlink:href="#DejaVuSans-31"/>
       <use x="63.623047" xlink:href="#DejaVuSans-2e"/>
       <use x="95.410156" xlink:href="#DejaVuSans-30"/>
      </g>
     </g>
    </g>
    <g id="text_12">
     <!-- Fraction of function,target pairs -->
     <g transform="translate(17.619531 297.681)rotate(-90)scale(0.17 -0.17)">
      <defs>
       <path d="M 628 4666 
L 3309 4666 
L 3309 4134 
L 1259 4134 
L 1259 2759 
L 3109 2759 
L 3109 2228 
L 1259 2228 
L 1259 0 
L 628 0 
L 628 4666 
z
" id="DejaVuSans-46" transform="scale(0.015625)"/>
       <path d="M 2631 2963 
Q 2534 3019 2420 3045 
Q 2306 3072 2169 3072 
Q 1681 3072 1420 2755 
Q 1159 2438 1159 1844 
L 1159 0 
L 581 0 
L 581 3500 
L 1159 3500 
L 1159 2956 
Q 1341 3275 1631 3429 
Q 1922 3584 2338 3584 
Q 2397 3584 2469 3576 
Q 2541 3569 2628 3553 
L 2631 2963 
z
" id="DejaVuSans-72" transform="scale(0.015625)"/>
       <path d="M 3122 3366 
L 3122 2828 
Q 2878 2963 2633 3030 
Q 2388 3097 2138 3097 
Q 1578 3097 1268 2742 
Q 959 2388 959 1747 
Q 959 1106 1268 751 
Q 1578 397 2138 397 
Q 2388 397 2633 464 
Q 2878 531 3122 666 
L 3122 134 
Q 2881 22 2623 -34 
Q 2366 -91 2075 -91 
Q 1284 -91 818 406 
Q 353 903 353 1747 
Q 353 2603 823 3093 
Q 1294 3584 2113 3584 
Q 2378 3584 2631 3529 
Q 2884 3475 3122 3366 
z
" id="DejaVuSans-63" transform="scale(0.015625)"/>
       <path d="M 1172 4494 
L 1172 3500 
L 2356 3500 
L 2356 3053 
L 1172 3053 
L 1172 1153 
Q 1172 725 1289 603 
Q 1406 481 1766 481 
L 2356 481 
L 2356 0 
L 1766 0 
Q 1100 0 847 248 
Q 594 497 594 1153 
L 594 3053 
L 172 3053 
L 172 3500 
L 594 3500 
L 594 4494 
L 1172 4494 
z
" id="DejaVuSans-74" transform="scale(0.015625)"/>
       <path d="M 544 1381 
L 544 3500 
L 1119 3500 
L 1119 1403 
Q 1119 906 1312 657 
Q 1506 409 1894 409 
Q 2359 409 2629 706 
Q 2900 1003 2900 1516 
L 2900 3500 
L 3475 3500 
L 3475 0 
L 2900 0 
L 2900 538 
Q 2691 219 2414 64 
Q 2138 -91 1772 -91 
Q 1169 -91 856 284 
Q 544 659 544 1381 
z
M 1991 3584 
L 1991 3584 
z
" id="DejaVuSans-75" transform="scale(0.015625)"/>
       <path d="M 750 794 
L 1409 794 
L 1409 256 
L 897 -744 
L 494 -744 
L 750 256 
L 750 794 
z
" id="DejaVuSans-2c" transform="scale(0.015625)"/>
       <path d="M 1159 525 
L 1159 -1331 
L 581 -1331 
L 581 3500 
L 1159 3500 
L 1159 2969 
Q 1341 3281 1617 3432 
Q 1894 3584 2278 3584 
Q 2916 3584 3314 3078 
Q 3713 2572 3713 1747 
Q 3713 922 3314 415 
Q 2916 -91 2278 -91 
Q 1894 -91 1617 61 
Q 1341 213 1159 525 
z
M 3116 1747 
Q 3116 2381 2855 2742 
Q 2594 3103 2138 3103 
Q 1681 3103 1420 2742 
Q 1159 2381 1159 1747 
Q 1159 1113 1420 752 
Q 1681 391 2138 391 
Q 2594 391 2855 752 
Q 3116 1113 3116 1747 
z
" id="DejaVuSans-70" transform="scale(0.015625)"/>
      </defs>
      <use xlink:href="#DejaVuSans-46"/>
      <use x="50.269531" xlink:href="#DejaVuSans-72"/>
      <use x="91.382812" xlink:href="#DejaVuSans-61"/>
      <use x="152.662109" xlink:href="#DejaVuSans-63"/>
      <use x="207.642578" xlink:href="#DejaVuSans-74"/>
      <use x="246.851562" xlink:href="#DejaVuSans-69"/>
      <use x="274.634766" xlink:href="#DejaVuSans-6f"/>
      <use x="335.816406" xlink:href="#DejaVuSans-6e"/>
      <use x="399.195312" xlink:href="#DejaVuSans-20"/>
      <use x="430.982422" xlink:href="#DejaVuSans-6f"/>
      <use x="492.164062" xlink:href="#DejaVuSans-66"/>
      <use x="527.369141" xlink:href="#DejaVuSans-20"/>
      <use x="559.15625" xlink:href="#DejaVuSans-66"/>
      <use x="594.361328" xlink:href="#DejaVuSans-75"/>
      <use x="657.740234" xlink:href="#DejaVuSans-6e"/>
      <use x="721.119141" xlink:href="#DejaVuSans-63"/>
      <use x="776.099609" xlink:href="#DejaVuSans-74"/>
      <use x="815.308594" xlink:href="#DejaVuSans-69"/>
      <use x="843.091797" xlink:href="#DejaVuSans-6f"/>
      <use x="904.273438" xlink:href="#DejaVuSans-6e"/>
      <use x="967.652344" xlink:href="#DejaVuSans-2c"/>
      <use x="999.439453" xlink:href="#DejaVuSans-74"/>
      <use x="1038.648438" xlink:href="#DejaVuSans-61"/>
      <use x="1099.927734" xlink:href="#DejaVuSans-72"/>
      <use x="1139.291016" xlink:href="#DejaVuSans-67"/>
      <use x="1202.767578" xlink:href="#DejaVuSans-65"/>
      <use x="1264.291016" xlink:href="#DejaVuSans-74"/>
      <use x="1303.5" xlink:href="#DejaVuSans-20"/>
      <use x="1335.287109" xlink:href="#DejaVuSans-70"/>
      <use x="1398.763672" xlink:href="#DejaVuSans-61"/>
      <use x="1460.042969" xlink:href="#DejaVuSans-69"/>
      <use x="1487.826172" xlink:href="#DejaVuSans-72"/>
      <use x="1528.939453" xlink:href="#DejaVuSans-73"/>
     </g>
    </g>
   </g>
   <g id="line2d_33">
    <defs>
     <path d="M 0 1.5 
C 0.397805 1.5 0.77937 1.341951 1.06066 1.06066 
C 1.341951 0.77937 1.5 0.397805 1.5 0 
C 1.5 -0.397805 1.341951 -0.77937 1.06066 -1.06066 
C 0.77937 -1.341951 0.397805 -1.5 0 -1.5 
C -0.397805 -1.5 -0.77937 -1.341951 -1.06066 -1.06066 
C -1.341951 -0.77937 -1.5 -0.397805 -1.5 0 
C -1.5 0.397805 -1.341951 0.77937 -1.06066 1.06066 
C -0.77937 1.341951 -0.397805 1.5 0 1.5 
z
" id="m9d4523822d" style="stroke:#f5deb3;"/>
    </defs>
    <g>
     <use style="fill:#f5deb3;stroke:#f5deb3;" x="70.639174" xlink:href="#m9d4523822d" y="27.648"/>
     <use style="fill:#f5deb3;stroke:#f5deb3;" x="70.639174" xlink:href="#m9d4523822d" y="27.648"/>
    </g>
   </g>
   <g id="line2d_34">
    <defs>
     <path d="M 0 1.5 
C 0.397805 1.5 0.77937 1.341951 1.06066 1.06066 
C 1.341951 0.77937 1.5 0.397805 1.5 0 
C 1.5 -0.397805 1.341951 -0.77937 1.06066 -1.06066 
C 0.77937 -1.341951 0.397805 -1.5 0 -1.5 
C -0.397805 -1.5 -0.77937 -1.341951 -1.06066 -1.06066 
C -1.341951 -0.77937 -1.5 -0.397805 -1.5 0 
C -1.5 0.397805 -1.341951 0.77937 -1.06066 1.06066 
C -0.77937 1.341951 -0.397805 1.5 0 1.5 
z
" id="m4b9533688b" style="stroke:#000080;"/>
    </defs>
    <g>
     <use style="fill:#000080;stroke:#000080;" x="160.894266" xlink:href="#m4b9533688b" y="27.648"/>
     <use style="fill:#000080;stroke:#000080;" x="160.894266" xlink:href="#m4b9533688b" y="27.648"/>
    </g>
   </g>
   <g id="line2d_35">
    <path d="M 47.990577 298.944 
L 47.990577 298.589365 
L 50.890391 298.589365 
L 50.890391 298.234729 
L 57.6 298.234729 
L 57.6 297.880094 
L 68.65718 297.880094 
L 68.65718 297.525459 
L 80.059535 297.525459 
L 80.059535 296.816188 
L 89.668958 296.816188 
L 89.668958 296.461553 
L 91.616719 296.461553 
L 91.616719 296.106918 
L 92.223596 296.106918 
L 92.223596 295.752282 
L 95.998523 295.752282 
L 95.998523 295.397647 
L 97.857967 295.397647 
L 97.857967 295.043012 
L 98.295464 295.043012 
L 98.295464 294.688376 
L 99.950294 294.688376 
L 99.950294 293.979106 
L 102.878374 293.979106 
L 102.878374 293.624471 
L 103.214303 293.624471 
L 103.214303 293.269835 
L 107.378656 293.269835 
L 107.378656 292.9152 
L 107.643612 292.9152 
L 107.643612 292.560565 
L 109.400633 292.560565 
L 109.400633 291.851294 
L 112.690074 291.851294 
L 112.690074 291.496659 
L 115.314838 291.496659 
L 115.314838 291.142024 
L 116.170056 291.142024 
L 116.170056 290.787388 
L 116.501546 290.787388 
L 116.501546 290.432753 
L 117.1475 290.432753 
L 117.1475 290.078118 
L 117.772007 290.078118 
L 117.772007 289.723482 
L 119.105667 289.723482 
L 119.105667 289.368847 
L 119.530006 289.368847 
L 119.530006 289.014212 
L 120.48442 289.014212 
L 120.48442 288.659576 
L 121.265635 288.659576 
L 121.265635 288.304941 
L 121.39274 288.304941 
L 121.39274 287.950306 
L 122.618682 287.950306 
L 122.618682 287.595671 
L 122.854567 287.595671 
L 122.854567 287.241035 
L 123.202939 287.241035 
L 123.202939 286.8864 
L 123.769595 286.8864 
L 123.769595 286.531765 
L 124.854134 286.531765 
L 124.854134 285.822494 
L 125.063736 285.822494 
L 125.063736 285.467859 
L 126.372018 285.467859 
L 126.372018 285.113224 
L 126.851931 285.113224 
L 126.851931 284.403953 
L 127.227236 284.403953 
L 127.319904 283.694682 
L 127.503881 283.694682 
L 127.503881 283.340047 
L 127.776517 283.340047 
L 127.776517 282.985412 
L 128.045258 282.985412 
L 128.045258 282.630776 
L 128.743679 282.630776 
L 128.829186 281.921506 
L 129.0834 281.921506 
L 129.0834 281.566871 
L 129.906795 281.566871 
L 129.906795 281.212235 
L 130.305359 281.212235 
L 130.305359 280.8576 
L 130.849533 280.8576 
L 130.849533 280.502965 
L 131.378407 280.502965 
L 131.452761 279.793694 
L 131.820186 279.793694 
L 131.892817 278.729788 
L 132.180571 278.729788 
L 132.180571 278.375153 
L 132.322814 278.375153 
L 132.322814 278.020518 
L 133.01833 278.020518 
L 133.01833 277.665882 
L 133.820365 277.665882 
L 133.820365 277.311247 
L 134.208913 277.311247 
L 134.208913 276.601976 
L 134.652304 276.601976 
L 134.652304 276.247341 
L 135.388902 276.247341 
L 135.388902 275.892706 
L 135.568632 275.892706 
L 135.568632 275.538071 
L 135.805631 275.538071 
L 135.805631 274.8288 
L 136.039681 274.8288 
L 136.039681 274.474165 
L 136.385386 274.474165 
L 136.385386 274.119529 
L 136.499223 274.119529 
L 136.499223 273.764894 
L 136.612375 273.764894 
L 136.612375 273.410259 
L 136.724851 273.410259 
L 136.780838 272.700988 
L 136.892314 272.700988 
L 136.892314 272.346353 
L 137.0583 272.346353 
L 137.0583 271.991718 
L 137.331728 271.991718 
L 137.331728 271.637082 
L 138.076838 271.637082 
L 138.076838 271.282447 
L 139.043049 271.282447 
L 139.141927 270.573176 
L 139.580558 270.573176 
L 139.676658 268.445365 
L 139.724525 268.445365 
L 139.724525 267.736094 
L 140.243172 267.736094 
L 140.335954 266.317553 
L 140.428281 266.317553 
L 140.520157 264.189741 
L 140.565927 264.189741 
L 140.657135 263.480471 
L 140.928134 263.480471 
L 140.928134 263.125835 
L 141.804267 263.125835 
L 141.804267 262.7712 
L 142.143605 262.7712 
L 142.143605 262.416565 
L 142.269295 262.416565 
L 142.311006 261.352659 
L 142.559347 261.352659 
L 142.641404 260.643388 
L 143.046405 260.643388 
L 143.046405 260.288753 
L 143.599145 260.288753 
L 143.676798 258.870212 
L 143.907854 258.870212 
L 143.907854 258.515576 
L 144.022326 258.515576 
L 144.098256 257.097035 
L 144.173881 257.097035 
L 144.249202 255.678494 
L 144.510478 255.678494 
L 144.621352 254.614588 
L 144.658165 254.614588 
L 144.658165 254.259953 
L 144.91386 254.259953 
L 144.91386 253.550682 
L 145.058426 253.550682 
L 145.166126 252.841412 
L 145.379694 252.841412 
L 145.379694 252.486776 
L 145.695567 252.486776 
L 145.695567 252.132141 
L 145.971958 252.132141 
L 146.040426 250.7136 
L 146.176619 250.7136 
L 146.210514 249.295059 
L 146.379077 249.295059 
L 146.412609 248.231153 
L 146.579379 248.231153 
L 146.678736 247.521882 
L 147.232057 247.521882 
L 147.232057 247.167247 
L 147.455248 247.167247 
L 147.455248 246.812612 
L 147.581606 246.812612 
L 147.581606 246.103341 
L 147.707122 246.103341 
L 147.707122 245.394071 
L 147.831805 245.394071 
L 147.893838 229.080847 
L 148.261802 229.080847 
L 148.292143 225.179859 
L 148.47317 225.179859 
L 148.47317 224.470588 
L 148.859519 224.470588 
L 148.947561 223.406682 
L 149.180344 223.406682 
L 149.180344 222.342776 
L 149.324384 222.342776 
L 149.324384 221.988141 
L 149.438827 221.988141 
L 149.495789 220.214965 
L 149.665646 220.214965 
L 149.750003 218.087153 
L 149.945377 218.087153 
L 150.056115 177.658729 
L 150.083698 177.658729 
L 150.193627 176.240188 
L 150.707193 176.240188 
L 150.707193 175.885553 
L 150.998235 175.885553 
L 150.998235 175.530918 
L 151.207109 175.530918 
L 151.207109 163.473318 
L 151.362257 163.473318 
L 151.362257 162.409412 
L 151.56715 162.409412 
L 151.592605 151.061082 
L 151.895414 151.061082 
L 151.97036 149.997176 
L 152.094611 149.997176 
L 152.16877 148.578635 
L 152.267196 148.578635 
L 152.365109 147.869365 
L 152.462515 147.869365 
L 152.55942 146.805459 
L 152.751744 146.805459 
L 152.751744 146.450824 
L 153.060137 146.450824 
L 153.060137 145.741553 
L 153.224124 145.741553 
L 153.247435 132.974682 
L 153.340389 132.974682 
L 153.340389 132.265412 
L 153.684932 132.265412 
L 153.775755 127.655153 
L 153.798392 127.655153 
L 153.798392 126.945882 
L 154.04562 126.945882 
L 154.067935 125.527341 
L 154.245509 125.527341 
L 154.311669 124.463435 
L 154.530538 124.463435 
L 154.530538 124.1088 
L 154.832738 124.1088 
L 154.832738 123.754165 
L 155.13016 123.754165 
L 155.13016 123.399529 
L 155.298028 123.399529 
L 155.298028 123.044894 
L 155.608798 123.044894 
L 155.690811 111.341929 
L 155.792826 111.341929 
L 155.792826 109.923388 
L 156.015331 109.923388 
L 156.015331 109.568753 
L 156.334347 109.568753 
L 156.393565 107.086306 
L 156.783658 107.086306 
L 156.822226 94.674071 
L 156.975712 94.674071 
L 156.975712 93.9648 
L 157.3353 93.9648 
L 157.3353 93.610165 
L 158.196349 93.610165 
L 158.267842 91.836988 
L 158.410018 91.836988 
L 158.480705 82.261835 
L 158.58624 82.261835 
L 158.58624 78.715482 
L 158.760826 78.715482 
L 158.760826 78.360847 
L 159.019705 78.360847 
L 159.019705 77.651576 
L 159.291971 77.651576 
L 159.291971 76.233035 
L 159.527013 76.233035 
L 159.527013 75.8784 
L 159.643442 75.8784 
L 159.643442 66.657882 
L 159.792086 66.657882 
L 159.824959 54.954918 
L 160.198926 54.954918 
L 160.198926 45.379765 
L 160.675797 45.379765 
L 160.691486 35.804612 
L 160.894266 35.804612 
L 160.894266 27.648 
L 360.8064 27.648 
L 360.8064 27.648 
" style="fill:none;stroke:#000080;stroke-linecap:square;stroke-width:1.5;"/>
   </g>
   <g id="line2d_36">
    <defs>
     <path d="M 0 6 
C 1.591219 6 3.117479 5.367802 4.242641 4.242641 
C 5.367802 3.117479 6 1.591219 6 0 
C 6 -1.591219 5.367802 -3.117479 4.242641 -4.242641 
C 3.117479 -5.367802 1.591219 -6 0 -6 
C -1.591219 -6 -3.117479 -5.367802 -4.242641 -4.242641 
C -5.367802 -3.117479 -6 -1.591219 -6 0 
C -6 1.591219 -5.367802 3.117479 -4.242641 4.242641 
C -3.117479 5.367802 -1.591219 6 0 6 
z
" id="m50042e9ea7" style="stroke:#000080;stroke-width:1.5;"/>
    </defs>
    <g>
     <use style="fill-opacity:0;stroke:#000080;stroke-width:1.5;" x="123.202939" xlink:href="#m50042e9ea7" y="286.8864"/>
     <use style="fill-opacity:0;stroke:#000080;stroke-width:1.5;" x="153.224124" xlink:href="#m50042e9ea7" y="145.386918"/>
     <use style="fill-opacity:0;stroke:#000080;stroke-width:1.5;" x="160.894266" xlink:href="#m50042e9ea7" y="35.804612"/>
     <use style="fill-opacity:0;stroke:#000080;stroke-width:1.5;" x="160.894266" xlink:href="#m50042e9ea7" y="27.648"/>
     <use style="fill-opacity:0;stroke:#000080;stroke-width:1.5;" x="160.894266" xlink:href="#m50042e9ea7" y="27.648"/>
     <use style="fill-opacity:0;stroke:#000080;stroke-width:1.5;" x="360.8064" xlink:href="#m50042e9ea7" y="27.648"/>
    </g>
   </g>
   <g id="line2d_37">
    <path style="fill:none;stroke:#000080;stroke-linecap:square;stroke-width:1.5;"/>
    <g/>
   </g>
   <g id="line2d_38">
    <defs>
     <path d="M 0 1.5 
C 0.397805 1.5 0.77937 1.341951 1.06066 1.06066 
C 1.341951 0.77937 1.5 0.397805 1.5 0 
C 1.5 -0.397805 1.341951 -0.77937 1.06066 -1.06066 
C 0.77937 -1.341951 0.397805 -1.5 0 -1.5 
C -0.397805 -1.5 -0.77937 -1.341951 -1.06066 -1.06066 
C -1.341951 -0.77937 -1.5 -0.397805 -1.5 0 
C -1.5 0.397805 -1.341951 0.77937 -1.06066 1.06066 
C -0.77937 1.341951 -0.397805 1.5 0 1.5 
z
" id="m92a2379bde" style="stroke:#ff00ff;"/>
    </defs>
    <g>
     <use style="fill:#ff00ff;stroke:#ff00ff;" x="184.198438" xlink:href="#m92a2379bde" y="27.648"/>
     <use style="fill:#ff00ff;stroke:#ff00ff;" x="184.198438" xlink:href="#m92a2379bde" y="27.648"/>
    </g>
   </g>
   <g id="line2d_39">
    <path d="M 63.929565 298.944 
L 63.929565 298.589365 
L 71.556993 298.589365 
L 71.556993 297.880094 
L 72.432107 297.880094 
L 72.432107 296.816188 
L 74.068926 296.816188 
L 74.068926 296.461553 
L 75.574654 296.461553 
L 75.574654 296.106918 
L 78.88343 296.106918 
L 78.88343 295.043012 
L 79.480672 295.043012 
L 79.480672 294.688376 
L 80.621116 294.688376 
L 80.621116 294.333741 
L 81.166416 294.333741 
L 81.166416 293.979106 
L 82.211771 293.979106 
L 82.211771 293.624471 
L 84.596168 293.624471 
L 84.596168 292.560565 
L 85.038813 292.560565 
L 85.038813 292.205929 
L 85.471281 292.205929 
L 85.471281 291.851294 
L 85.894031 291.851294 
L 85.894031 291.496659 
L 86.712053 291.496659 
L 86.712053 291.142024 
L 87.1081 291.142024 
L 87.1081 290.432753 
L 87.495981 290.432753 
L 87.495981 289.723482 
L 88.613828 289.723482 
L 88.613828 289.014212 
L 89.323782 289.014212 
L 89.323782 288.659576 
L 90.340871 288.659576 
L 90.340871 288.304941 
L 91.305777 288.304941 
L 91.305777 287.595671 
L 91.616719 287.595671 
L 91.616719 286.8864 
L 91.922605 286.8864 
L 91.922605 286.531765 
L 92.223596 286.531765 
L 92.223596 285.822494 
L 92.519847 285.822494 
L 92.519847 285.467859 
L 92.811505 285.467859 
L 92.811505 285.113224 
L 93.098709 285.113224 
L 93.098709 284.758588 
L 93.381595 284.758588 
L 93.381595 284.049318 
L 94.472426 284.049318 
L 94.472426 283.694682 
L 94.735529 283.694682 
L 94.735529 283.340047 
L 94.995002 283.340047 
L 94.995002 267.736094 
L 95.752617 267.736094 
L 95.752617 267.381459 
L 96.241256 267.381459 
L 96.241256 265.608282 
L 96.95121 265.608282 
L 96.95121 265.253647 
L 98.295464 265.253647 
L 98.295464 264.899012 
L 98.510456 264.899012 
L 98.510456 264.544376 
L 99.346662 264.544376 
L 99.346662 249.649694 
L 99.950294 249.649694 
L 99.950294 234.755012 
L 100.147275 234.755012 
L 100.147275 234.400376 
L 100.342215 234.400376 
L 100.342215 232.981835 
L 100.726138 232.981835 
L 100.726138 232.6272 
L 101.102381 232.6272 
L 101.102381 232.272565 
L 101.471247 232.272565 
L 101.471247 231.563294 
L 101.653002 231.563294 
L 101.653002 231.208659 
L 103.047088 231.208659 
L 103.047088 230.854024 
L 104.028784 230.854024 
L 104.028784 230.499388 
L 104.961779 230.499388 
L 104.961779 215.604706 
L 105.26277 215.604706 
L 105.26277 214.5408 
L 105.411479 214.5408 
L 105.411479 213.831529 
L 105.850679 213.831529 
L 105.850679 213.476894 
L 105.99483 213.476894 
L 105.99483 213.122259 
L 106.279859 213.122259 
L 106.279859 212.412988 
L 106.560633 212.412988 
L 106.560633 212.058353 
L 106.837279 212.058353 
L 106.837279 197.163671 
L 108.29012 197.163671 
L 108.29012 196.099765 
L 108.667622 196.099765 
L 108.667622 195.745129 
L 109.990385 195.745129 
L 109.990385 195.390494 
L 110.106149 195.390494 
L 110.106149 193.262682 
L 110.335561 193.262682 
L 110.335561 178.368 
L 111.762192 178.368 
L 111.762192 165.601129 
L 115.661605 165.601129 
L 115.747307 164.891859 
L 119.24818 164.891859 
L 119.24818 164.537224 
L 130.579414 164.537224 
L 130.579414 163.827953 
L 136.385386 163.827953 
L 136.385386 163.473318 
L 141.825656 163.473318 
L 141.825656 163.118682 
L 144.91386 163.118682 
L 144.986282 162.409412 
L 145.201889 162.409412 
L 145.219746 161.700141 
L 145.326529 161.700141 
L 145.326529 161.345506 
L 145.573357 161.345506 
L 145.66073 157.444518 
L 145.712961 157.444518 
L 145.816988 153.188894 
L 145.851536 153.188894 
L 145.93763 151.770353 
L 145.989098 151.770353 
L 146.091614 145.741553 
L 146.125662 145.741553 
L 146.210514 138.294212 
L 146.244347 138.294212 
L 146.345485 136.875671 
L 146.429353 136.875671 
L 146.529503 132.620047 
L 146.562769 132.620047 
L 146.662213 124.463435 
L 146.678736 124.463435 
L 146.777571 118.08 
L 146.793994 118.08 
L 146.892226 112.405835 
L 147.054816 112.405835 
L 147.119461 110.632659 
L 147.167799 110.632659 
L 147.264104 106.0224 
L 147.280107 106.0224 
L 147.312072 102.830682 
L 147.391749 102.830682 
L 147.502732 99.284329 
L 147.518533 99.284329 
L 147.550096 96.801882 
L 147.691478 96.801882 
L 147.707122 96.092612 
L 147.831805 96.092612 
L 147.924778 94.319435 
L 147.955668 94.319435 
L 148.03267 92.900894 
L 148.155221 92.900894 
L 148.155221 92.546259 
L 153.821002 92.546259 
L 153.821002 92.191624 
L 157.798206 92.191624 
L 157.798206 91.836988 
L 157.998331 91.836988 
L 158.106599 90.773082 
L 158.14255 90.773082 
L 158.249994 89.709176 
L 158.267842 89.709176 
L 158.374574 84.389647 
L 158.392304 84.389647 
L 158.489522 83.325741 
L 158.507144 83.325741 
L 158.603771 80.488659 
L 158.621287 80.488659 
L 158.726038 76.587671 
L 158.752135 76.587671 
L 158.856162 74.814494 
L 158.864805 74.814494 
L 158.951018 72.332047 
L 158.976805 72.332047 
L 159.079601 68.076424 
L 159.139306 68.076424 
L 159.249688 65.948612 
L 159.258152 65.948612 
L 159.367841 64.175435 
L 159.376252 64.175435 
L 159.443406 62.756894 
L 159.717911 62.756894 
L 159.717911 62.402259 
L 161.437128 62.402259 
L 161.437128 62.047624 
L 165.489541 62.047624 
L 165.592552 60.983718 
L 165.622743 60.983718 
L 165.713024 59.565176 
L 165.749015 59.565176 
L 165.808848 57.792 
L 165.862536 57.792 
L 165.945747 56.018824 
L 165.987215 56.018824 
L 166.093428 53.891012 
L 166.099311 53.891012 
L 166.175626 52.117835 
L 166.210744 52.117835 
L 166.274957 49.635388 
L 166.367969 49.635388 
L 166.425869 48.926118 
L 166.546881 48.926118 
L 166.546881 48.571482 
L 166.752536 48.571482 
L 166.752536 48.216847 
L 167.839765 48.216847 
L 167.839765 47.862212 
L 170.855662 47.862212 
L 170.960436 45.379765 
L 171.014871 45.379765 
L 171.118765 43.606588 
L 171.199675 43.606588 
L 171.307016 40.414871 
L 171.396002 40.414871 
L 171.502232 37.932424 
L 171.524288 37.932424 
L 171.621029 36.513882 
L 171.664838 36.513882 
L 171.765213 35.449976 
L 175.018589 35.449976 
L 175.117184 34.740706 
L 175.273147 34.740706 
L 175.348847 32.967529 
L 175.417077 32.967529 
L 175.502909 31.194353 
L 175.584799 31.194353 
L 175.602554 30.485082 
L 178.680008 30.485082 
L 178.680008 30.130447 
L 178.83906 30.130447 
L 178.83906 29.775812 
L 181.360702 29.775812 
L 181.360702 29.421176 
L 181.496113 29.421176 
L 181.555696 28.711906 
L 181.615092 28.711906 
L 181.646006 28.002635 
L 184.198438 28.002635 
L 184.198438 27.648 
L 360.8064 27.648 
L 360.8064 27.648 
" style="fill:none;stroke:#ff00ff;stroke-linecap:square;stroke-width:1.5;"/>
   </g>
   <g id="line2d_40">
    <defs>
     <path d="M -0 8.485281 
L 5.091169 0 
L 0 -8.485281 
L -5.091169 -0 
z
" id="m576f1f0744" style="stroke:#ff00ff;stroke-linejoin:miter;stroke-width:1.5;"/>
    </defs>
    <g>
     <use style="fill-opacity:0;stroke:#ff00ff;stroke-linejoin:miter;stroke-width:1.5;" x="146.040426" xlink:href="#m576f1f0744" y="147.869365"/>
     <use style="fill-opacity:0;stroke:#ff00ff;stroke-linejoin:miter;stroke-width:1.5;" x="184.198438" xlink:href="#m576f1f0744" y="28.002635"/>
     <use style="fill-opacity:0;stroke:#ff00ff;stroke-linejoin:miter;stroke-width:1.5;" x="184.198438" xlink:href="#m576f1f0744" y="27.648"/>
     <use style="fill-opacity:0;stroke:#ff00ff;stroke-linejoin:miter;stroke-width:1.5;" x="184.198438" xlink:href="#m576f1f0744" y="27.648"/>
     <use style="fill-opacity:0;stroke:#ff00ff;stroke-linejoin:miter;stroke-width:1.5;" x="360.8064" xlink:href="#m576f1f0744" y="27.648"/>
    </g>
   </g>
   <g id="line2d_41">
    <path style="fill:none;stroke:#ff00ff;stroke-linecap:square;stroke-width:1.5;"/>
    <g/>
   </g>
   <g id="line2d_42">
    <path clip-path="url(#p05be462f31)" d="M 144.454795 163.118682 
" style="fill:none;stroke:#ff00ff;stroke-linecap:square;stroke-width:1.5;"/>
    <defs>
     <path d="M -12 12 
L 12 -12 
M -12 -12 
L 12 12 
" id="m7124561863" style="stroke:#ff00ff;"/>
    </defs>
    <g clip-path="url(#p05be462f31)">
     <use style="fill:#ff00ff;stroke:#ff00ff;" x="144.454795" xlink:href="#m7124561863" y="163.118682"/>
    </g>
   </g>
   <g id="line2d_43">
    <defs>
     <path d="M 0 1.5 
C 0.397805 1.5 0.77937 1.341951 1.06066 1.06066 
C 1.341951 0.77937 1.5 0.397805 1.5 0 
C 1.5 -0.397805 1.341951 -0.77937 1.06066 -1.06066 
C 0.77937 -1.341951 0.397805 -1.5 0 -1.5 
C -0.397805 -1.5 -0.77937 -1.341951 -1.06066 -1.06066 
C -1.341951 -0.77937 -1.5 -0.397805 -1.5 0 
C -1.5 0.397805 -1.341951 0.77937 -1.06066 1.06066 
C -0.77937 1.341951 -0.397805 1.5 0 1.5 
z
" id="m0694f27383" style="stroke:#ff7500;"/>
    </defs>
    <g>
     <use style="fill:#ff7500;stroke:#ff7500;" x="189.660685" xlink:href="#m0694f27383" y="27.648"/>
     <use style="fill:#ff7500;stroke:#ff7500;" x="189.660685" xlink:href="#m0694f27383" y="27.648"/>
    </g>
   </g>
   <g id="line2d_44">
    <path d="M 127.686077 298.944 
L 127.731351 297.880094 
L 128.222309 297.880094 
L 128.222309 297.525459 
L 129.250988 297.525459 
L 129.292652 296.816188 
L 129.375706 296.816188 
L 129.458394 295.752282 
L 129.54072 295.752282 
L 129.54072 295.397647 
L 130.146945 295.397647 
L 130.146945 295.043012 
L 130.501519 295.043012 
L 130.501519 294.688376 
L 130.849533 294.688376 
L 130.887807 293.979106 
L 130.964122 293.979106 
L 130.964122 293.624471 
L 131.115828 293.624471 
L 131.115828 293.269835 
L 131.600593 293.269835 
L 131.600593 292.9152 
L 131.965169 292.9152 
L 131.965169 292.560565 
L 132.322814 292.560565 
L 132.428795 290.787388 
L 132.534182 290.787388 
L 132.534182 290.432753 
L 133.72196 290.432753 
L 133.78762 289.368847 
L 133.885683 289.368847 
L 133.885683 289.014212 
L 134.208913 289.014212 
L 134.208913 288.659576 
L 135.024208 288.659576 
L 135.024208 287.950306 
L 135.14656 287.950306 
L 135.237805 287.241035 
L 135.388902 287.241035 
L 135.388902 286.8864 
L 135.687504 286.8864 
L 135.687504 286.531765 
L 135.805631 286.531765 
L 135.805631 286.177129 
L 136.213327 286.177129 
L 136.213327 285.113224 
L 136.385386 285.113224 
L 136.385386 284.049318 
L 136.555884 284.049318 
L 136.555884 283.694682 
L 137.38594 283.694682 
L 137.493898 282.630776 
L 137.547645 282.630776 
L 137.547645 281.921506 
L 138.36167 281.921506 
L 138.438609 263.835106 
L 138.489728 263.835106 
L 138.566146 262.7712 
L 140.312801 262.7712 
L 140.359078 261.352659 
L 140.49723 261.352659 
L 140.565927 260.643388 
L 140.611586 260.643388 
L 140.611586 260.288753 
L 140.972924 260.288753 
L 140.972924 259.934118 
L 141.261484 259.934118 
L 141.283499 244.6848 
L 141.393187 244.6848 
L 141.393187 230.144753 
L 141.632274 230.144753 
L 141.632274 229.790118 
L 142.101521 229.790118 
L 142.122575 228.726212 
L 142.248405 228.726212 
L 142.352625 213.476894 
L 142.394151 213.476894 
L 142.394151 198.936847 
L 142.925817 198.936847 
L 142.925817 197.872941 
L 143.166224 197.872941 
L 143.166224 197.163671 
L 143.676798 197.163671 
L 143.754133 181.205082 
L 143.869541 181.205082 
L 143.869541 167.019671 
L 147.502732 167.019671 
L 147.502732 166.665035 
L 149.223672 166.665035 
L 149.223672 166.3104 
L 150.773735 166.3104 
L 150.773735 165.955765 
L 152.007722 165.955765 
L 152.007722 165.601129 
L 153.224124 165.601129 
L 153.224124 165.246494 
L 153.432886 165.246494 
L 153.432886 164.891859 
L 153.75309 164.891859 
L 153.75309 164.537224 
L 153.956095 164.537224 
L 153.956095 163.827953 
L 154.344662 163.827953 
L 154.344662 163.473318 
L 154.595705 163.473318 
L 154.595705 163.118682 
L 154.811312 163.118682 
L 154.811312 161.700141 
L 155.214281 161.700141 
L 155.298028 160.636235 
L 155.339761 160.636235 
L 155.339761 160.2816 
L 155.649849 160.2816 
L 155.721473 158.153788 
L 155.843627 158.153788 
L 155.904407 156.025976 
L 156.045469 156.025976 
L 156.115606 151.061082 
L 156.354107 151.061082 
L 156.373846 148.578635 
L 156.550574 148.578635 
L 156.570108 147.160094 
L 156.812591 147.160094 
L 156.918301 142.549835 
L 157.032948 142.549835 
L 157.09001 141.485929 
L 157.222487 141.485929 
L 157.316545 135.457129 
L 157.3353 135.457129 
L 157.354037 134.038588 
L 157.568177 134.038588 
L 157.568177 133.683953 
L 157.688143 133.683953 
L 157.706532 129.073694 
L 157.962102 129.073694 
L 158.052543 124.463435 
L 158.321284 124.463435 
L 158.427714 120.207812 
L 158.830209 120.207812 
L 158.830209 119.853176 
L 159.019705 119.853176 
L 159.105212 114.888282 
L 159.14782 114.888282 
L 159.14782 113.824376 
L 159.351007 113.824376 
L 159.460157 110.278024 
L 159.527013 110.278024 
L 159.54369 108.150212 
L 160.020999 108.150212 
L 160.102084 104.958494 
L 160.150567 104.958494 
L 160.150567 104.249224 
L 162.428019 104.249224 
L 162.428019 103.894588 
L 163.294355 103.894588 
L 163.294355 102.830682 
L 163.443978 102.830682 
L 163.443978 102.476047 
L 163.832826 102.476047 
L 163.872597 101.766776 
L 164.109472 101.766776 
L 164.2138 101.057506 
L 164.2268 101.057506 
L 164.2268 99.9936 
L 164.433594 99.9936 
L 164.484939 98.575059 
L 164.644495 98.575059 
L 164.739583 97.156518 
L 164.859342 97.156518 
L 164.865624 96.447247 
L 165.232599 96.447247 
L 165.312505 95.383341 
L 165.361509 95.383341 
L 165.361509 95.028706 
L 165.483464 95.028706 
L 165.544147 92.546259 
L 165.725029 92.546259 
L 165.796897 90.063812 
L 165.96353 90.063812 
L 166.022686 88.290635 
L 166.111072 88.290635 
L 166.199045 86.517459 
L 166.228279 86.517459 
L 166.315707 85.453553 
L 166.350564 85.453553 
L 166.385358 84.389647 
L 166.489353 84.389647 
L 166.489353 84.035012 
L 166.661411 84.035012 
L 166.695635 81.552565 
L 166.860176 81.552565 
L 166.955967 78.360847 
L 166.972821 78.360847 
L 166.972821 78.006212 
L 167.23491 78.006212 
L 167.312278 77.296941 
L 167.38933 77.296941 
L 167.444174 75.8784 
L 167.553385 75.8784 
L 167.618609 74.459859 
L 167.672789 74.459859 
L 167.672789 74.105224 
L 168.037137 74.105224 
L 168.090128 73.041318 
L 168.642835 73.041318 
L 168.694149 71.977412 
L 169.079624 71.977412 
L 169.079624 71.622776 
L 169.798687 71.622776 
L 169.904695 70.913506 
L 170.37916 70.913506 
L 170.37916 70.558871 
L 170.500586 70.558871 
L 170.588827 69.494965 
L 170.621233 69.494965 
L 170.6582 68.785694 
L 170.7503 68.785694 
L 170.796182 68.076424 
L 170.93316 68.076424 
L 170.987673 67.367153 
L 171.20416 67.367153 
L 171.293632 65.239341 
L 171.320391 65.239341 
L 171.382681 63.8208 
L 171.435909 63.8208 
L 171.435909 63.466165 
L 171.581513 63.466165 
L 171.673587 61.692988 
L 171.76086 61.692988 
L 171.865055 60.983718 
L 171.951446 60.983718 
L 172.037442 59.565176 
L 172.114503 59.565176 
L 172.19125 57.792 
L 172.229507 57.792 
L 172.276159 56.373459 
L 172.377547 56.373459 
L 172.470008 54.245647 
L 172.503517 54.245647 
L 172.503517 53.891012 
L 172.62865 53.891012 
L 172.678471 52.827106 
L 172.802449 52.827106 
L 172.802449 52.472471 
L 173.080478 52.472471 
L 173.141258 51.408565 
L 173.28232 51.408565 
L 173.342453 49.635388 
L 173.442249 49.635388 
L 173.489964 48.926118 
L 173.56131 48.926118 
L 173.56131 48.571482 
L 174.374282 48.571482 
L 174.374282 48.216847 
L 174.622697 48.216847 
L 174.622697 47.862212 
L 175.262307 47.862212 
L 175.37042 47.152941 
L 175.51361 47.152941 
L 175.620293 46.443671 
L 175.796762 46.443671 
L 175.866889 45.379765 
L 175.908841 45.379765 
L 176.006364 44.315859 
L 176.027196 44.315859 
L 176.110296 43.606588 
L 176.144812 43.606588 
L 176.213656 42.897318 
L 176.418689 42.897318 
L 176.418689 42.542682 
L 176.604692 42.542682 
L 176.604692 42.188047 
L 176.77554 42.188047 
L 176.822169 41.124141 
L 176.895211 41.124141 
L 176.895211 40.769506 
L 177.184574 40.769506 
L 177.265975 39.350965 
L 177.411613 39.350965 
L 177.411613 38.996329 
L 177.655049 38.996329 
L 177.655049 38.641694 
L 177.800876 38.641694 
L 177.832428 37.932424 
L 178.231693 37.932424 
L 178.247119 37.223153 
L 178.446509 37.223153 
L 178.507438 36.513882 
L 179.258688 36.513882 
L 179.258688 36.159247 
L 179.462152 36.159247 
L 179.499697 35.449976 
L 179.885223 35.449976 
L 179.885223 35.095341 
L 180.070865 35.095341 
L 180.070865 34.740706 
L 180.193616 34.740706 
L 180.304517 33.6768 
L 180.676764 33.6768 
L 180.768686 32.967529 
L 180.795637 32.967529 
L 180.795637 32.612894 
L 181.142526 32.612894 
L 181.142526 32.258259 
L 181.405079 32.258259 
L 181.405079 31.903624 
L 182.111266 31.903624 
L 182.111266 31.548988 
L 182.311099 31.548988 
L 182.321035 30.839718 
L 183.027769 30.839718 
L 183.027769 30.485082 
L 183.289045 30.485082 
L 183.289045 30.130447 
L 183.814724 30.130447 
L 183.814724 29.775812 
L 185.51547 29.775812 
L 185.51547 29.421176 
L 186.139934 29.421176 
L 186.139934 29.066541 
L 186.807045 29.066541 
L 186.807045 28.711906 
L 188.490273 28.711906 
L 188.490273 28.357271 
L 189.25283 28.357271 
L 189.25283 28.002635 
L 189.660685 28.002635 
L 189.660685 27.648 
L 360.8064 27.648 
L 360.8064 27.648 
" style="fill:none;stroke:#ff7500;stroke-linecap:square;stroke-width:1.5;"/>
   </g>
   <g id="line2d_45">
    <defs>
     <path d="M 0 -6 
L -1.347084 -1.854102 
L -5.706339 -1.854102 
L -2.179628 0.708204 
L -3.526712 4.854102 
L -0 2.291796 
L 3.526712 4.854102 
L 2.179628 0.708204 
L 5.706339 -1.854102 
L 1.347084 -1.854102 
z
" id="m4a171a104f" style="stroke:#ff7500;stroke-linejoin:bevel;stroke-width:1.5;"/>
    </defs>
    <g>
     <use style="fill-opacity:0;stroke:#ff7500;stroke-linejoin:bevel;stroke-width:1.5;" x="159.54369" xlink:href="#m4a171a104f" y="108.859482"/>
     <use style="fill-opacity:0;stroke:#ff7500;stroke-linejoin:bevel;stroke-width:1.5;" x="189.660685" xlink:href="#m4a171a104f" y="28.002635"/>
     <use style="fill-opacity:0;stroke:#ff7500;stroke-linejoin:bevel;stroke-width:1.5;" x="189.660685" xlink:href="#m4a171a104f" y="27.648"/>
     <use style="fill-opacity:0;stroke:#ff7500;stroke-linejoin:bevel;stroke-width:1.5;" x="189.660685" xlink:href="#m4a171a104f" y="27.648"/>
     <use style="fill-opacity:0;stroke:#ff7500;stroke-linejoin:bevel;stroke-width:1.5;" x="360.8064" xlink:href="#m4a171a104f" y="27.648"/>
    </g>
   </g>
   <g id="line2d_46">
    <path style="fill:none;stroke:#ff7500;stroke-linecap:square;stroke-width:1.5;"/>
    <g/>
   </g>
   <g id="line2d_47">
    <path clip-path="url(#p05be462f31)" d="M 146.695245 167.019671 
" style="fill:none;stroke:#ff7500;stroke-linecap:square;stroke-width:1.5;"/>
    <defs>
     <path d="M -12 12 
L 12 -12 
M -12 -12 
L 12 12 
" id="m2c9a196408" style="stroke:#ff7500;"/>
    </defs>
    <g clip-path="url(#p05be462f31)">
     <use style="fill:#ff7500;stroke:#ff7500;" x="146.695245" xlink:href="#m2c9a196408" y="167.019671"/>
    </g>
   </g>
   <g id="line2d_48">
    <path d="M 360.8064 27.648 
L 380.514816 293.51808 
" style="fill:none;stroke:#ff7500;stroke-linecap:square;stroke-width:1.5;"/>
    <g>
     <use style="fill-opacity:0;stroke:#ff7500;stroke-linejoin:bevel;stroke-width:1.5;" x="360.8064" xlink:href="#m4a171a104f" y="27.648"/>
     <use style="fill-opacity:0;stroke:#ff7500;stroke-linejoin:bevel;stroke-width:1.5;" x="380.514816" xlink:href="#m4a171a104f" y="293.51808"/>
    </g>
   </g>
   <g id="line2d_49">
    <path d="M 360.8064 27.648 
L 380.514816 206.70336 
" style="fill:none;stroke:#ff00ff;stroke-linecap:square;stroke-width:1.5;"/>
    <g>
     <use style="fill-opacity:0;stroke:#ff00ff;stroke-linejoin:miter;stroke-width:1.5;" x="360.8064" xlink:href="#m576f1f0744" y="27.648"/>
     <use style="fill-opacity:0;stroke:#ff00ff;stroke-linejoin:miter;stroke-width:1.5;" x="380.514816" xlink:href="#m576f1f0744" y="206.70336"/>
    </g>
   </g>
   <g id="line2d_50">
    <path d="M 360.8064 27.648 
L 380.514816 119.88864 
" style="fill:none;stroke:#000080;stroke-linecap:square;stroke-width:1.5;"/>
    <g>
     <use style="fill-opacity:0;stroke:#000080;stroke-width:1.5;" x="360.8064" xlink:href="#m50042e9ea7" y="27.648"/>
     <use style="fill-opacity:0;stroke:#000080;stroke-width:1.5;" x="380.514816" xlink:href="#m50042e9ea7" y="119.88864"/>
    </g>
   </g>
   <g id="line2d_51">
    <path d="M 360.8064 298.944 
L 360.8064 27.648 
" style="fill:none;stroke:#000000;stroke-linecap:square;stroke-width:1.5;"/>
   </g>
   <g id="patch_3">
    <path d="M 57.6 298.944 
L 360.8064 298.944 
" style="fill:none;stroke:#000000;stroke-linecap:square;stroke-linejoin:miter;stroke-width:0.8;"/>
   </g>
   <g id="patch_4">
    <path d="M 57.6 27.648 
L 360.8064 27.648 
" style="fill:none;stroke:#000000;stroke-linecap:square;stroke-linejoin:miter;stroke-width:0.8;"/>
   </g>
   <g id="text_13">
    <!-- diffcma b -->
    <g transform="translate(386.578944 297.381205)scale(0.14 -0.14)">
     <defs>
      <path d="M 3116 1747 
Q 3116 2381 2855 2742 
Q 2594 3103 2138 3103 
Q 1681 3103 1420 2742 
Q 1159 2381 1159 1747 
Q 1159 1113 1420 752 
Q 1681 391 2138 391 
Q 2594 391 2855 752 
Q 3116 1113 3116 1747 
z
M 1159 2969 
Q 1341 3281 1617 3432 
Q 1894 3584 2278 3584 
Q 2916 3584 3314 3078 
Q 3713 2572 3713 1747 
Q 3713 922 3314 415 
Q 2916 -91 2278 -91 
Q 1894 -91 1617 61 
Q 1341 213 1159 525 
L 1159 0 
L 581 0 
L 581 4863 
L 1159 4863 
L 1159 2969 
z
" id="DejaVuSans-62" transform="scale(0.015625)"/>
     </defs>
     <use xlink:href="#DejaVuSans-64"/>
     <use x="63.476562" xlink:href="#DejaVuSans-69"/>
     <use x="91.259766" xlink:href="#DejaVuSans-66"/>
     <use x="126.464844" xlink:href="#DejaVuSans-66"/>
     <use x="161.669922" xlink:href="#DejaVuSans-63"/>
     <use x="216.650391" xlink:href="#DejaVuSans-6d"/>
     <use x="314.0625" xlink:href="#DejaVuSans-61"/>
     <use x="375.341797" xlink:href="#DejaVuSans-20"/>
     <use x="407.128906" xlink:href="#DejaVuSans-62"/>
    </g>
   </g>
   <g id="text_14">
    <!-- cma.fmin  -->
    <g transform="translate(386.578944 210.566485)scale(0.14 -0.14)">
     <use xlink:href="#DejaVuSans-63"/>
     <use x="54.980469" xlink:href="#DejaVuSans-6d"/>
     <use x="152.392578" xlink:href="#DejaVuSans-61"/>
     <use x="213.671875" xlink:href="#DejaVuSans-2e"/>
     <use x="245.458984" xlink:href="#DejaVuSans-66"/>
     <use x="280.664062" xlink:href="#DejaVuSans-6d"/>
     <use x="378.076172" xlink:href="#DejaVuSans-69"/>
     <use x="405.859375" xlink:href="#DejaVuSans-6e"/>
     <use x="469.238281" xlink:href="#DejaVuSans-20"/>
    </g>
   </g>
   <g id="text_15">
    <!-- different -->
    <g transform="translate(386.578944 123.751765)scale(0.14 -0.14)">
     <use xlink:href="#DejaVuSans-64"/>
     <use x="63.476562" xlink:href="#DejaVuSans-69"/>
     <use x="91.259766" xlink:href="#DejaVuSans-66"/>
     <use x="126.464844" xlink:href="#DejaVuSans-66"/>
     <use x="161.669922" xlink:href="#DejaVuSans-65"/>
     <use x="223.193359" xlink:href="#DejaVuSans-72"/>
     <use x="262.056641" xlink:href="#DejaVuSans-65"/>
     <use x="323.580078" xlink:href="#DejaVuSans-6e"/>
     <use x="386.958984" xlink:href="#DejaVuSans-74"/>
    </g>
   </g>
   <g id="text_16">
    <!-- best 2009 -->
    <g transform="translate(386.578944 36.937045)scale(0.14 -0.14)">
     <defs>
      <path d="M 703 97 
L 703 672 
Q 941 559 1184 500 
Q 1428 441 1663 441 
Q 2288 441 2617 861 
Q 2947 1281 2994 2138 
Q 2813 1869 2534 1725 
Q 2256 1581 1919 1581 
Q 1219 1581 811 2004 
Q 403 2428 403 3163 
Q 403 3881 828 4315 
Q 1253 4750 1959 4750 
Q 2769 4750 3195 4129 
Q 3622 3509 3622 2328 
Q 3622 1225 3098 567 
Q 2575 -91 1691 -91 
Q 1453 -91 1209 -44 
Q 966 3 703 97 
z
M 1959 2075 
Q 2384 2075 2632 2365 
Q 2881 2656 2881 3163 
Q 2881 3666 2632 3958 
Q 2384 4250 1959 4250 
Q 1534 4250 1286 3958 
Q 1038 3666 1038 3163 
Q 1038 2656 1286 2365 
Q 1534 2075 1959 2075 
z
" id="DejaVuSans-39" transform="scale(0.015625)"/>
     </defs>
     <use xlink:href="#DejaVuSans-62"/>
     <use x="63.476562" xlink:href="#DejaVuSans-65"/>
     <use x="125" xlink:href="#DejaVuSans-73"/>
     <use x="177.099609" xlink:href="#DejaVuSans-74"/>
     <use x="216.308594" xlink:href="#DejaVuSans-20"/>
     <use x="248.095703" xlink:href="#DejaVuSans-32"/>
     <use x="311.71875" xlink:href="#DejaVuSans-30"/>
     <use x="375.341797" xlink:href="#DejaVuSans-30"/>
     <use x="438.964844" xlink:href="#DejaVuSans-39"/>
    </g>
   </g>
   <g id="text_17">
    <!-- bbob f5, 10-D -->
    <g transform="translate(60.632064 38.111366)scale(0.102 -0.102)">
     <defs>
      <path d="M 691 4666 
L 3169 4666 
L 3169 4134 
L 1269 4134 
L 1269 2991 
Q 1406 3038 1543 3061 
Q 1681 3084 1819 3084 
Q 2600 3084 3056 2656 
Q 3513 2228 3513 1497 
Q 3513 744 3044 326 
Q 2575 -91 1722 -91 
Q 1428 -91 1123 -41 
Q 819 9 494 109 
L 494 744 
Q 775 591 1075 516 
Q 1375 441 1709 441 
Q 2250 441 2565 725 
Q 2881 1009 2881 1497 
Q 2881 1984 2565 2268 
Q 2250 2553 1709 2553 
Q 1456 2553 1204 2497 
Q 953 2441 691 2322 
L 691 4666 
z
" id="DejaVuSans-35" transform="scale(0.015625)"/>
      <path d="M 1259 4147 
L 1259 519 
L 2022 519 
Q 2988 519 3436 956 
Q 3884 1394 3884 2338 
Q 3884 3275 3436 3711 
Q 2988 4147 2022 4147 
L 1259 4147 
z
M 628 4666 
L 1925 4666 
Q 3281 4666 3915 4102 
Q 4550 3538 4550 2338 
Q 4550 1131 3912 565 
Q 3275 0 1925 0 
L 628 0 
L 628 4666 
z
" id="DejaVuSans-44" transform="scale(0.015625)"/>
     </defs>
     <use xlink:href="#DejaVuSans-62"/>
     <use x="63.476562" xlink:href="#DejaVuSans-62"/>
     <use x="126.953125" xlink:href="#DejaVuSans-6f"/>
     <use x="188.134766" xlink:href="#DejaVuSans-62"/>
     <use x="251.611328" xlink:href="#DejaVuSans-20"/>
     <use x="283.398438" xlink:href="#DejaVuSans-66"/>
     <use x="318.603516" xlink:href="#DejaVuSans-35"/>
     <use x="382.226562" xlink:href="#DejaVuSans-2c"/>
     <use x="414.013672" xlink:href="#DejaVuSans-20"/>
     <use x="445.800781" xlink:href="#DejaVuSans-31"/>
     <use x="509.423828" xlink:href="#DejaVuSans-30"/>
     <use x="573.046875" xlink:href="#DejaVuSans-2d"/>
     <use x="609.130859" xlink:href="#DejaVuSans-44"/>
    </g>
    <!-- 51 targets: 100..1e-08 -->
    <g transform="translate(60.632064 49.533135)scale(0.102 -0.102)">
     <defs>
      <path d="M 750 794 
L 1409 794 
L 1409 0 
L 750 0 
L 750 794 
z
M 750 3309 
L 1409 3309 
L 1409 2516 
L 750 2516 
L 750 3309 
z
" id="DejaVuSans-3a" transform="scale(0.015625)"/>
     </defs>
     <use xlink:href="#DejaVuSans-35"/>
     <use x="63.623047" xlink:href="#DejaVuSans-31"/>
     <use x="127.246094" xlink:href="#DejaVuSans-20"/>
     <use x="159.033203" xlink:href="#DejaVuSans-74"/>
     <use x="198.242188" xlink:href="#DejaVuSans-61"/>
     <use x="259.521484" xlink:href="#DejaVuSans-72"/>
     <use x="298.884766" xlink:href="#DejaVuSans-67"/>
     <use x="362.361328" xlink:href="#DejaVuSans-65"/>
     <use x="423.884766" xlink:href="#DejaVuSans-74"/>
     <use x="463.09375" xlink:href="#DejaVuSans-73"/>
     <use x="515.193359" xlink:href="#DejaVuSans-3a"/>
     <use x="548.884766" xlink:href="#DejaVuSans-20"/>
     <use x="580.671875" xlink:href="#DejaVuSans-31"/>
     <use x="644.294922" xlink:href="#DejaVuSans-30"/>
     <use x="707.917969" xlink:href="#DejaVuSans-30"/>
     <use x="771.541016" xlink:href="#DejaVuSans-2e"/>
     <use x="803.328125" xlink:href="#DejaVuSans-2e"/>
     <use x="835.115234" xlink:href="#DejaVuSans-31"/>
     <use x="898.738281" xlink:href="#DejaVuSans-65"/>
     <use x="960.261719" xlink:href="#DejaVuSans-2d"/>
     <use x="996.345703" xlink:href="#DejaVuSans-30"/>
     <use x="1059.96875" xlink:href="#DejaVuSans-38"/>
    </g>
    <!-- 15 instances -->
    <g transform="translate(60.632064 60.954904)scale(0.102 -0.102)">
     <use xlink:href="#DejaVuSans-31"/>
     <use x="63.623047" xlink:href="#DejaVuSans-35"/>
     <use x="127.246094" xlink:href="#DejaVuSans-20"/>
     <use x="159.033203" xlink:href="#DejaVuSans-69"/>
     <use x="186.816406" xlink:href="#DejaVuSans-6e"/>
     <use x="250.195312" xlink:href="#DejaVuSans-73"/>
     <use x="302.294922" xlink:href="#DejaVuSans-74"/>
     <use x="341.503906" xlink:href="#DejaVuSans-61"/>
     <use x="402.783203" xlink:href="#DejaVuSans-6e"/>
     <use x="466.162109" xlink:href="#DejaVuSans-63"/>
     <use x="521.142578" xlink:href="#DejaVuSans-65"/>
     <use x="582.666016" xlink:href="#DejaVuSans-73"/>
    </g>
   </g>
   <g id="text_18">
    <!-- v2.6 -->
    <g style="fill:#808080;" transform="translate(198.292262 294.151352)scale(0.1 -0.1)">
     <use xlink:href="#DejaVuSans-76"/>
     <use x="59.179688" xlink:href="#DejaVuSans-32"/>
     <use x="122.802734" xlink:href="#DejaVuSans-2e"/>
     <use x="154.589844" xlink:href="#DejaVuSans-36"/>
    </g>
   </g>
   <g id="text_19">
    <!-- 5 Linear slope -->
    <g transform="translate(138.79695 21.648)scale(0.2 -0.2)">
     <defs>
      <path d="M 628 4666 
L 1259 4666 
L 1259 531 
L 3531 531 
L 3531 0 
L 628 0 
L 628 4666 
z
" id="DejaVuSans-4c" transform="scale(0.015625)"/>
     </defs>
     <use xlink:href="#DejaVuSans-35"/>
     <use x="63.623047" xlink:href="#DejaVuSans-20"/>
     <use x="95.410156" xlink:href="#DejaVuSans-4c"/>
     <use x="151.123047" xlink:href="#DejaVuSans-69"/>
     <use x="178.90625" xlink:href="#DejaVuSans-6e"/>
     <use x="242.285156" xlink:href="#DejaVuSans-65"/>
     <use x="303.808594" xlink:href="#DejaVuSans-61"/>
     <use x="365.087891" xlink:href="#DejaVuSans-72"/>
     <use x="406.201172" xlink:href="#DejaVuSans-20"/>
     <use x="437.988281" xlink:href="#DejaVuSans-73"/>
     <use x="490.087891" xlink:href="#DejaVuSans-6c"/>
     <use x="517.871094" xlink:href="#DejaVuSans-6f"/>
     <use x="579.052734" xlink:href="#DejaVuSans-70"/>
     <use x="642.529297" xlink:href="#DejaVuSans-65"/>
    </g>
   </g>
  </g>
 </g>
 <defs>
  <clipPath id="p05be462f31">
   <rect height="271.296" width="303.2064" x="57.6" y="27.648"/>
  </clipPath>
 </defs>
</svg>
