<?xml version="1.0" encoding="utf-8" standalone="no"?>
<!DOCTYPE svg PUBLIC "-//W3C//DTD SVG 1.1//EN"
  "http://www.w3.org/Graphics/SVG/1.1/DTD/svg11.dtd">
<svg height="345.6pt" version="1.1" viewBox="0 0 460.8 345.6" width="460.8pt" xmlns="http://www.w3.org/2000/svg" xmlns:xlink="http://www.w3.org/1999/xlink">
 <metadata>
  <rdf:RDF xmlns:cc="http://creativecommons.org/ns#" xmlns:dc="http://purl.org/dc/elements/1.1/" xmlns:rdf="http://www.w3.org/1999/02/22-rdf-syntax-ns#">
   <cc:Work>
    <dc:type rdf:resource="http://purl.org/dc/dcmitype/StillImage"/>
    <dc:date>2022-05-07T21:25:17.604225</dc:date>
    <dc:format>image/svg+xml</dc:format>
    <dc:creator>
     <cc:Agent>
      <dc:title>Matplotlib v3.4.3, https://matplotlib.org/</dc:title>
     </cc:Agent>
    </dc:creator>
   </cc:Work>
  </rdf:RDF>
 </metadata>
 <defs>
  <style type="text/css">*{stroke-linecap:butt;stroke-linejoin:round;}</style>
 </defs>
 <g id="figure_1">
  <g id="patch_1">
   <path d="M 0 345.6 
L 460.8 345.6 
L 460.8 0 
L 0 0 
z
" style="fill:#ffffff;"/>
  </g>
  <g id="axes_1">
   <g id="patch_2">
    <path d="M 57.6 298.944 
L 360.8064 298.944 
L 360.8064 27.648 
L 57.6 27.648 
z
" style="fill:#ffffff;"/>
   </g>
   <g id="line2d_1">
    <path d="M 89.668958 298.944 
L 89.668958 293.624471 
L 99.950294 293.624471 
L 99.950294 288.304941 
L 103.544339 288.304941 
L 103.544339 282.985412 
L 109.159456 282.985412 
L 109.159456 277.665882 
L 110.335561 277.665882 
L 110.335561 272.346353 
L 111.442442 272.346353 
L 111.442442 267.026824 
L 112.989468 267.026824 
L 112.989468 261.707294 
L 113.954374 261.707294 
L 113.954374 256.387765 
L 114.872193 256.387765 
L 114.872193 251.068235 
L 115.747307 251.068235 
L 115.747307 245.748706 
L 116.170056 245.748706 
L 116.170056 240.429176 
L 116.583514 240.429176 
L 116.583514 235.109647 
L 117.384126 235.109647 
L 117.384126 229.790118 
L 117.772007 229.790118 
L 117.772007 224.470588 
L 118.152051 224.470588 
L 118.152051 213.831529 
L 118.524569 213.831529 
L 118.524569 208.512 
L 119.599808 208.512 
L 119.599808 203.192471 
L 120.28394 203.192471 
L 120.28394 197.872941 
L 121.581803 197.872941 
L 121.581803 192.553412 
L 122.19863 192.553412 
L 122.19863 181.914353 
L 122.795872 181.914353 
L 122.795872 176.594824 
L 123.08753 176.594824 
L 123.08753 165.955765 
L 123.657621 165.955765 
L 123.657621 160.636235 
L 123.936316 160.636235 
L 123.936316 155.316706 
L 124.481616 155.316706 
L 124.481616 149.997176 
L 125.271028 149.997176 
L 125.271028 144.677647 
L 125.526971 144.677647 
L 125.526971 139.358118 
L 125.779479 139.358118 
L 125.779479 134.038588 
L 126.028642 134.038588 
L 126.028642 128.719059 
L 126.517282 128.719059 
L 126.517282 123.399529 
L 126.993549 123.399529 
L 126.993549 118.08 
L 127.227236 118.08 
L 127.227236 107.440941 
L 127.686077 107.440941 
L 127.686077 102.121412 
L 127.911368 102.121412 
L 127.911368 96.801882 
L 128.57149 96.801882 
L 128.57149 91.482353 
L 128.786481 91.482353 
L 128.786481 86.162824 
L 129.209231 86.162824 
L 129.209231 80.843294 
L 129.417095 80.843294 
L 129.417095 75.523765 
L 129.622688 75.523765 
L 129.622688 70.204235 
L 130.027253 70.204235 
L 130.027253 64.884706 
L 130.4233 64.884706 
L 130.4233 59.565176 
L 130.618241 59.565176 
L 130.618241 54.245647 
L 131.002163 54.245647 
L 131.002163 48.926118 
L 131.191226 48.926118 
L 131.191226 43.606588 
L 131.378407 43.606588 
L 131.378407 38.287059 
L 131.563744 38.287059 
L 131.563744 32.967529 
L 132.109044 32.967529 
L 132.109044 27.648 
L 360.8064 27.648 
" style="fill:none;stroke:#f5deb3;stroke-linecap:square;stroke-width:4;"/>
   </g>
   <g id="line2d_2">
    <defs>
     <path d="M -0 7.778175 
L 7.778175 0 
L 0 -7.778175 
L -7.778175 -0 
z
" id="m2068831da8" style="stroke:#f5deb3;stroke-linejoin:miter;stroke-width:1.5;"/>
    </defs>
    <g>
     <use style="fill:#f5deb3;stroke:#f5deb3;stroke-linejoin:miter;stroke-width:1.5;" x="122.19863" xlink:href="#m2068831da8" y="181.914353"/>
     <use style="fill:#f5deb3;stroke:#f5deb3;stroke-linejoin:miter;stroke-width:1.5;" x="130.4233" xlink:href="#m2068831da8" y="59.565176"/>
     <use style="fill:#f5deb3;stroke:#f5deb3;stroke-linejoin:miter;stroke-width:1.5;" x="132.109044" xlink:href="#m2068831da8" y="32.967529"/>
     <use style="fill:#f5deb3;stroke:#f5deb3;stroke-linejoin:miter;stroke-width:1.5;" x="132.109044" xlink:href="#m2068831da8" y="27.648"/>
     <use style="fill:#f5deb3;stroke:#f5deb3;stroke-linejoin:miter;stroke-width:1.5;" x="360.8064" xlink:href="#m2068831da8" y="27.648"/>
    </g>
   </g>
   <g id="line2d_3">
    <path style="fill:none;stroke:#f5deb3;stroke-linecap:square;stroke-width:4;"/>
    <g/>
   </g>
   <g id="line2d_4">
    <path d="M 360.8064 27.648 
L 380.514816 33.07392 
" style="fill:none;stroke:#f5deb3;stroke-linecap:square;stroke-width:4;"/>
    <g>
     <use style="fill:#f5deb3;stroke:#f5deb3;stroke-linejoin:miter;stroke-width:1.5;" x="360.8064" xlink:href="#m2068831da8" y="27.648"/>
     <use style="fill:#f5deb3;stroke:#f5deb3;stroke-linejoin:miter;stroke-width:1.5;" x="380.514816" xlink:href="#m2068831da8" y="33.07392"/>
    </g>
   </g>
   <g id="matplotlib.axis_1">
    <g id="xtick_1">
     <g id="line2d_5">
      <path clip-path="url(#pa2583e7835)" d="M 57.6 298.944 
L 57.6 27.648 
" style="fill:none;stroke:#b0b0b0;stroke-linecap:square;stroke-width:0.8;"/>
     </g>
     <g id="line2d_6">
      <defs>
       <path d="M 0 0 
L 0 3.5 
" id="me90812170a" style="stroke:#000000;stroke-width:0.8;"/>
      </defs>
      <g>
       <use style="stroke:#000000;stroke-width:0.8;" x="57.6" xlink:href="#me90812170a" y="298.944"/>
      </g>
     </g>
     <g id="text_1">
      <!-- 0 -->
      <g transform="translate(52.191875 318.861344)scale(0.17 -0.17)">
       <defs>
        <path d="M 2034 4250 
Q 1547 4250 1301 3770 
Q 1056 3291 1056 2328 
Q 1056 1369 1301 889 
Q 1547 409 2034 409 
Q 2525 409 2770 889 
Q 3016 1369 3016 2328 
Q 3016 3291 2770 3770 
Q 2525 4250 2034 4250 
z
M 2034 4750 
Q 2819 4750 3233 4129 
Q 3647 3509 3647 2328 
Q 3647 1150 3233 529 
Q 2819 -91 2034 -91 
Q 1250 -91 836 529 
Q 422 1150 422 2328 
Q 422 3509 836 4129 
Q 1250 4750 2034 4750 
z
" id="DejaVuSans-30" transform="scale(0.015625)"/>
       </defs>
       <use xlink:href="#DejaVuSans-30"/>
      </g>
     </g>
    </g>
    <g id="xtick_2">
     <g id="line2d_7">
      <path clip-path="url(#pa2583e7835)" d="M 144.2304 298.944 
L 144.2304 27.648 
" style="fill:none;stroke:#b0b0b0;stroke-linecap:square;stroke-width:0.8;"/>
     </g>
     <g id="line2d_8">
      <g>
       <use style="stroke:#000000;stroke-width:0.8;" x="144.2304" xlink:href="#me90812170a" y="298.944"/>
      </g>
     </g>
     <g id="text_2">
      <!-- 2 -->
      <g transform="translate(138.822275 318.861344)scale(0.17 -0.17)">
       <defs>
        <path d="M 1228 531 
L 3431 531 
L 3431 0 
L 469 0 
L 469 531 
Q 828 903 1448 1529 
Q 2069 2156 2228 2338 
Q 2531 2678 2651 2914 
Q 2772 3150 2772 3378 
Q 2772 3750 2511 3984 
Q 2250 4219 1831 4219 
Q 1534 4219 1204 4116 
Q 875 4013 500 3803 
L 500 4441 
Q 881 4594 1212 4672 
Q 1544 4750 1819 4750 
Q 2544 4750 2975 4387 
Q 3406 4025 3406 3419 
Q 3406 3131 3298 2873 
Q 3191 2616 2906 2266 
Q 2828 2175 2409 1742 
Q 1991 1309 1228 531 
z
" id="DejaVuSans-32" transform="scale(0.015625)"/>
       </defs>
       <use xlink:href="#DejaVuSans-32"/>
      </g>
     </g>
    </g>
    <g id="xtick_3">
     <g id="line2d_9">
      <path clip-path="url(#pa2583e7835)" d="M 230.8608 298.944 
L 230.8608 27.648 
" style="fill:none;stroke:#b0b0b0;stroke-linecap:square;stroke-width:0.8;"/>
     </g>
     <g id="line2d_10">
      <g>
       <use style="stroke:#000000;stroke-width:0.8;" x="230.8608" xlink:href="#me90812170a" y="298.944"/>
      </g>
     </g>
     <g id="text_3">
      <!-- 4 -->
      <g transform="translate(225.452675 318.861344)scale(0.17 -0.17)">
       <defs>
        <path d="M 2419 4116 
L 825 1625 
L 2419 1625 
L 2419 4116 
z
M 2253 4666 
L 3047 4666 
L 3047 1625 
L 3713 1625 
L 3713 1100 
L 3047 1100 
L 3047 0 
L 2419 0 
L 2419 1100 
L 313 1100 
L 313 1709 
L 2253 4666 
z
" id="DejaVuSans-34" transform="scale(0.015625)"/>
       </defs>
       <use xlink:href="#DejaVuSans-34"/>
      </g>
     </g>
    </g>
    <g id="xtick_4">
     <g id="line2d_11">
      <path clip-path="url(#pa2583e7835)" d="M 317.4912 298.944 
L 317.4912 27.648 
" style="fill:none;stroke:#b0b0b0;stroke-linecap:square;stroke-width:0.8;"/>
     </g>
     <g id="line2d_12">
      <g>
       <use style="stroke:#000000;stroke-width:0.8;" x="317.4912" xlink:href="#me90812170a" y="298.944"/>
      </g>
     </g>
     <g id="text_4">
      <!-- 6 -->
      <g transform="translate(312.083075 318.861344)scale(0.17 -0.17)">
       <defs>
        <path d="M 2113 2584 
Q 1688 2584 1439 2293 
Q 1191 2003 1191 1497 
Q 1191 994 1439 701 
Q 1688 409 2113 409 
Q 2538 409 2786 701 
Q 3034 994 3034 1497 
Q 3034 2003 2786 2293 
Q 2538 2584 2113 2584 
z
M 3366 4563 
L 3366 3988 
Q 3128 4100 2886 4159 
Q 2644 4219 2406 4219 
Q 1781 4219 1451 3797 
Q 1122 3375 1075 2522 
Q 1259 2794 1537 2939 
Q 1816 3084 2150 3084 
Q 2853 3084 3261 2657 
Q 3669 2231 3669 1497 
Q 3669 778 3244 343 
Q 2819 -91 2113 -91 
Q 1303 -91 875 529 
Q 447 1150 447 2328 
Q 447 3434 972 4092 
Q 1497 4750 2381 4750 
Q 2619 4750 2861 4703 
Q 3103 4656 3366 4563 
z
" id="DejaVuSans-36" transform="scale(0.015625)"/>
       </defs>
       <use xlink:href="#DejaVuSans-36"/>
      </g>
     </g>
    </g>
    <g id="xtick_5">
     <g id="line2d_13">
      <path clip-path="url(#pa2583e7835)" d="M 100.9152 298.944 
L 100.9152 27.648 
" style="fill:none;stroke:#b0b0b0;stroke-linecap:square;stroke-width:0.8;"/>
     </g>
     <g id="line2d_14">
      <defs>
       <path d="M 0 0 
L 0 2 
" id="m81b94b67fd" style="stroke:#000000;stroke-width:0.6;"/>
      </defs>
      <g>
       <use style="stroke:#000000;stroke-width:0.6;" x="100.9152" xlink:href="#m81b94b67fd" y="298.944"/>
      </g>
     </g>
    </g>
    <g id="xtick_6">
     <g id="line2d_15">
      <path clip-path="url(#pa2583e7835)" d="M 187.5456 298.944 
L 187.5456 27.648 
" style="fill:none;stroke:#b0b0b0;stroke-linecap:square;stroke-width:0.8;"/>
     </g>
     <g id="line2d_16">
      <g>
       <use style="stroke:#000000;stroke-width:0.6;" x="187.5456" xlink:href="#m81b94b67fd" y="298.944"/>
      </g>
     </g>
    </g>
    <g id="xtick_7">
     <g id="line2d_17">
      <path clip-path="url(#pa2583e7835)" d="M 274.176 298.944 
L 274.176 27.648 
" style="fill:none;stroke:#b0b0b0;stroke-linecap:square;stroke-width:0.8;"/>
     </g>
     <g id="line2d_18">
      <g>
       <use style="stroke:#000000;stroke-width:0.6;" x="274.176" xlink:href="#m81b94b67fd" y="298.944"/>
      </g>
     </g>
    </g>
    <g id="xtick_8">
     <g id="line2d_19">
      <path clip-path="url(#pa2583e7835)" d="M 360.8064 298.944 
L 360.8064 27.648 
" style="fill:none;stroke:#b0b0b0;stroke-linecap:square;stroke-width:0.8;"/>
     </g>
     <g id="line2d_20">
      <g>
       <use style="stroke:#000000;stroke-width:0.6;" x="360.8064" xlink:href="#m81b94b67fd" y="298.944"/>
      </g>
     </g>
    </g>
    <g id="text_5">
     <!-- log10(# f-evals / dimension) -->
     <g transform="translate(88.823278 339.314156)scale(0.17 -0.17)">
      <defs>
       <path d="M 603 4863 
L 1178 4863 
L 1178 0 
L 603 0 
L 603 4863 
z
" id="DejaVuSans-6c" transform="scale(0.015625)"/>
       <path d="M 1959 3097 
Q 1497 3097 1228 2736 
Q 959 2375 959 1747 
Q 959 1119 1226 758 
Q 1494 397 1959 397 
Q 2419 397 2687 759 
Q 2956 1122 2956 1747 
Q 2956 2369 2687 2733 
Q 2419 3097 1959 3097 
z
M 1959 3584 
Q 2709 3584 3137 3096 
Q 3566 2609 3566 1747 
Q 3566 888 3137 398 
Q 2709 -91 1959 -91 
Q 1206 -91 779 398 
Q 353 888 353 1747 
Q 353 2609 779 3096 
Q 1206 3584 1959 3584 
z
" id="DejaVuSans-6f" transform="scale(0.015625)"/>
       <path d="M 2906 1791 
Q 2906 2416 2648 2759 
Q 2391 3103 1925 3103 
Q 1463 3103 1205 2759 
Q 947 2416 947 1791 
Q 947 1169 1205 825 
Q 1463 481 1925 481 
Q 2391 481 2648 825 
Q 2906 1169 2906 1791 
z
M 3481 434 
Q 3481 -459 3084 -895 
Q 2688 -1331 1869 -1331 
Q 1566 -1331 1297 -1286 
Q 1028 -1241 775 -1147 
L 775 -588 
Q 1028 -725 1275 -790 
Q 1522 -856 1778 -856 
Q 2344 -856 2625 -561 
Q 2906 -266 2906 331 
L 2906 616 
Q 2728 306 2450 153 
Q 2172 0 1784 0 
Q 1141 0 747 490 
Q 353 981 353 1791 
Q 353 2603 747 3093 
Q 1141 3584 1784 3584 
Q 2172 3584 2450 3431 
Q 2728 3278 2906 2969 
L 2906 3500 
L 3481 3500 
L 3481 434 
z
" id="DejaVuSans-67" transform="scale(0.015625)"/>
       <path d="M 794 531 
L 1825 531 
L 1825 4091 
L 703 3866 
L 703 4441 
L 1819 4666 
L 2450 4666 
L 2450 531 
L 3481 531 
L 3481 0 
L 794 0 
L 794 531 
z
" id="DejaVuSans-31" transform="scale(0.015625)"/>
       <path d="M 1984 4856 
Q 1566 4138 1362 3434 
Q 1159 2731 1159 2009 
Q 1159 1288 1364 580 
Q 1569 -128 1984 -844 
L 1484 -844 
Q 1016 -109 783 600 
Q 550 1309 550 2009 
Q 550 2706 781 3412 
Q 1013 4119 1484 4856 
L 1984 4856 
z
" id="DejaVuSans-28" transform="scale(0.015625)"/>
       <path d="M 3272 2816 
L 2363 2816 
L 2100 1772 
L 3016 1772 
L 3272 2816 
z
M 2803 4594 
L 2478 3297 
L 3391 3297 
L 3719 4594 
L 4219 4594 
L 3897 3297 
L 4872 3297 
L 4872 2816 
L 3775 2816 
L 3519 1772 
L 4513 1772 
L 4513 1294 
L 3397 1294 
L 3072 0 
L 2572 0 
L 2894 1294 
L 1978 1294 
L 1656 0 
L 1153 0 
L 1478 1294 
L 494 1294 
L 494 1772 
L 1594 1772 
L 1856 2816 
L 850 2816 
L 850 3297 
L 1978 3297 
L 2297 4594 
L 2803 4594 
z
" id="DejaVuSans-23" transform="scale(0.015625)"/>
       <path id="DejaVuSans-20" transform="scale(0.015625)"/>
       <path d="M 2375 4863 
L 2375 4384 
L 1825 4384 
Q 1516 4384 1395 4259 
Q 1275 4134 1275 3809 
L 1275 3500 
L 2222 3500 
L 2222 3053 
L 1275 3053 
L 1275 0 
L 697 0 
L 697 3053 
L 147 3053 
L 147 3500 
L 697 3500 
L 697 3744 
Q 697 4328 969 4595 
Q 1241 4863 1831 4863 
L 2375 4863 
z
" id="DejaVuSans-66" transform="scale(0.015625)"/>
       <path d="M 313 2009 
L 1997 2009 
L 1997 1497 
L 313 1497 
L 313 2009 
z
" id="DejaVuSans-2d" transform="scale(0.015625)"/>
       <path d="M 3597 1894 
L 3597 1613 
L 953 1613 
Q 991 1019 1311 708 
Q 1631 397 2203 397 
Q 2534 397 2845 478 
Q 3156 559 3463 722 
L 3463 178 
Q 3153 47 2828 -22 
Q 2503 -91 2169 -91 
Q 1331 -91 842 396 
Q 353 884 353 1716 
Q 353 2575 817 3079 
Q 1281 3584 2069 3584 
Q 2775 3584 3186 3129 
Q 3597 2675 3597 1894 
z
M 3022 2063 
Q 3016 2534 2758 2815 
Q 2500 3097 2075 3097 
Q 1594 3097 1305 2825 
Q 1016 2553 972 2059 
L 3022 2063 
z
" id="DejaVuSans-65" transform="scale(0.015625)"/>
       <path d="M 191 3500 
L 800 3500 
L 1894 563 
L 2988 3500 
L 3597 3500 
L 2284 0 
L 1503 0 
L 191 3500 
z
" id="DejaVuSans-76" transform="scale(0.015625)"/>
       <path d="M 2194 1759 
Q 1497 1759 1228 1600 
Q 959 1441 959 1056 
Q 959 750 1161 570 
Q 1363 391 1709 391 
Q 2188 391 2477 730 
Q 2766 1069 2766 1631 
L 2766 1759 
L 2194 1759 
z
M 3341 1997 
L 3341 0 
L 2766 0 
L 2766 531 
Q 2569 213 2275 61 
Q 1981 -91 1556 -91 
Q 1019 -91 701 211 
Q 384 513 384 1019 
Q 384 1609 779 1909 
Q 1175 2209 1959 2209 
L 2766 2209 
L 2766 2266 
Q 2766 2663 2505 2880 
Q 2244 3097 1772 3097 
Q 1472 3097 1187 3025 
Q 903 2953 641 2809 
L 641 3341 
Q 956 3463 1253 3523 
Q 1550 3584 1831 3584 
Q 2591 3584 2966 3190 
Q 3341 2797 3341 1997 
z
" id="DejaVuSans-61" transform="scale(0.015625)"/>
       <path d="M 2834 3397 
L 2834 2853 
Q 2591 2978 2328 3040 
Q 2066 3103 1784 3103 
Q 1356 3103 1142 2972 
Q 928 2841 928 2578 
Q 928 2378 1081 2264 
Q 1234 2150 1697 2047 
L 1894 2003 
Q 2506 1872 2764 1633 
Q 3022 1394 3022 966 
Q 3022 478 2636 193 
Q 2250 -91 1575 -91 
Q 1294 -91 989 -36 
Q 684 19 347 128 
L 347 722 
Q 666 556 975 473 
Q 1284 391 1588 391 
Q 1994 391 2212 530 
Q 2431 669 2431 922 
Q 2431 1156 2273 1281 
Q 2116 1406 1581 1522 
L 1381 1569 
Q 847 1681 609 1914 
Q 372 2147 372 2553 
Q 372 3047 722 3315 
Q 1072 3584 1716 3584 
Q 2034 3584 2315 3537 
Q 2597 3491 2834 3397 
z
" id="DejaVuSans-73" transform="scale(0.015625)"/>
       <path d="M 1625 4666 
L 2156 4666 
L 531 -594 
L 0 -594 
L 1625 4666 
z
" id="DejaVuSans-2f" transform="scale(0.015625)"/>
       <path d="M 2906 2969 
L 2906 4863 
L 3481 4863 
L 3481 0 
L 2906 0 
L 2906 525 
Q 2725 213 2448 61 
Q 2172 -91 1784 -91 
Q 1150 -91 751 415 
Q 353 922 353 1747 
Q 353 2572 751 3078 
Q 1150 3584 1784 3584 
Q 2172 3584 2448 3432 
Q 2725 3281 2906 2969 
z
M 947 1747 
Q 947 1113 1208 752 
Q 1469 391 1925 391 
Q 2381 391 2643 752 
Q 2906 1113 2906 1747 
Q 2906 2381 2643 2742 
Q 2381 3103 1925 3103 
Q 1469 3103 1208 2742 
Q 947 2381 947 1747 
z
" id="DejaVuSans-64" transform="scale(0.015625)"/>
       <path d="M 603 3500 
L 1178 3500 
L 1178 0 
L 603 0 
L 603 3500 
z
M 603 4863 
L 1178 4863 
L 1178 4134 
L 603 4134 
L 603 4863 
z
" id="DejaVuSans-69" transform="scale(0.015625)"/>
       <path d="M 3328 2828 
Q 3544 3216 3844 3400 
Q 4144 3584 4550 3584 
Q 5097 3584 5394 3201 
Q 5691 2819 5691 2113 
L 5691 0 
L 5113 0 
L 5113 2094 
Q 5113 2597 4934 2840 
Q 4756 3084 4391 3084 
Q 3944 3084 3684 2787 
Q 3425 2491 3425 1978 
L 3425 0 
L 2847 0 
L 2847 2094 
Q 2847 2600 2669 2842 
Q 2491 3084 2119 3084 
Q 1678 3084 1418 2786 
Q 1159 2488 1159 1978 
L 1159 0 
L 581 0 
L 581 3500 
L 1159 3500 
L 1159 2956 
Q 1356 3278 1631 3431 
Q 1906 3584 2284 3584 
Q 2666 3584 2933 3390 
Q 3200 3197 3328 2828 
z
" id="DejaVuSans-6d" transform="scale(0.015625)"/>
       <path d="M 3513 2113 
L 3513 0 
L 2938 0 
L 2938 2094 
Q 2938 2591 2744 2837 
Q 2550 3084 2163 3084 
Q 1697 3084 1428 2787 
Q 1159 2491 1159 1978 
L 1159 0 
L 581 0 
L 581 3500 
L 1159 3500 
L 1159 2956 
Q 1366 3272 1645 3428 
Q 1925 3584 2291 3584 
Q 2894 3584 3203 3211 
Q 3513 2838 3513 2113 
z
" id="DejaVuSans-6e" transform="scale(0.015625)"/>
       <path d="M 513 4856 
L 1013 4856 
Q 1481 4119 1714 3412 
Q 1947 2706 1947 2009 
Q 1947 1309 1714 600 
Q 1481 -109 1013 -844 
L 513 -844 
Q 928 -128 1133 580 
Q 1338 1288 1338 2009 
Q 1338 2731 1133 3434 
Q 928 4138 513 4856 
z
" id="DejaVuSans-29" transform="scale(0.015625)"/>
      </defs>
      <use xlink:href="#DejaVuSans-6c"/>
      <use x="27.783203" xlink:href="#DejaVuSans-6f"/>
      <use x="88.964844" xlink:href="#DejaVuSans-67"/>
      <use x="152.441406" xlink:href="#DejaVuSans-31"/>
      <use x="216.064453" xlink:href="#DejaVuSans-30"/>
      <use x="279.6875" xlink:href="#DejaVuSans-28"/>
      <use x="318.701172" xlink:href="#DejaVuSans-23"/>
      <use x="402.490234" xlink:href="#DejaVuSans-20"/>
      <use x="434.277344" xlink:href="#DejaVuSans-66"/>
      <use x="463.982422" xlink:href="#DejaVuSans-2d"/>
      <use x="500.066406" xlink:href="#DejaVuSans-65"/>
      <use x="561.589844" xlink:href="#DejaVuSans-76"/>
      <use x="620.769531" xlink:href="#DejaVuSans-61"/>
      <use x="682.048828" xlink:href="#DejaVuSans-6c"/>
      <use x="709.832031" xlink:href="#DejaVuSans-73"/>
      <use x="761.931641" xlink:href="#DejaVuSans-20"/>
      <use x="793.71875" xlink:href="#DejaVuSans-2f"/>
      <use x="827.410156" xlink:href="#DejaVuSans-20"/>
      <use x="859.197266" xlink:href="#DejaVuSans-64"/>
      <use x="922.673828" xlink:href="#DejaVuSans-69"/>
      <use x="950.457031" xlink:href="#DejaVuSans-6d"/>
      <use x="1047.869141" xlink:href="#DejaVuSans-65"/>
      <use x="1109.392578" xlink:href="#DejaVuSans-6e"/>
      <use x="1172.771484" xlink:href="#DejaVuSans-73"/>
      <use x="1224.871094" xlink:href="#DejaVuSans-69"/>
      <use x="1252.654297" xlink:href="#DejaVuSans-6f"/>
      <use x="1313.835938" xlink:href="#DejaVuSans-6e"/>
      <use x="1377.214844" xlink:href="#DejaVuSans-29"/>
     </g>
    </g>
   </g>
   <g id="matplotlib.axis_2">
    <g id="ytick_1">
     <g id="line2d_21">
      <path clip-path="url(#pa2583e7835)" d="M 57.6 298.944 
L 360.8064 298.944 
" style="fill:none;stroke:#b0b0b0;stroke-linecap:square;stroke-width:0.8;"/>
     </g>
     <g id="line2d_22">
      <defs>
       <path d="M 0 0 
L -3.5 0 
" id="md3facda545" style="stroke:#000000;stroke-width:0.8;"/>
      </defs>
      <g>
       <use style="stroke:#000000;stroke-width:0.8;" x="57.6" xlink:href="#md3facda545" y="298.944"/>
      </g>
     </g>
     <g id="text_6">
      <!-- 0.0 -->
      <g transform="translate(25.155 305.02275)scale(0.16 -0.16)">
       <defs>
        <path d="M 684 794 
L 1344 794 
L 1344 0 
L 684 0 
L 684 794 
z
" id="DejaVuSans-2e" transform="scale(0.015625)"/>
       </defs>
       <use xlink:href="#DejaVuSans-30"/>
       <use x="63.623047" xlink:href="#DejaVuSans-2e"/>
       <use x="95.410156" xlink:href="#DejaVuSans-30"/>
      </g>
     </g>
    </g>
    <g id="ytick_2">
     <g id="line2d_23">
      <path clip-path="url(#pa2583e7835)" d="M 57.6 244.6848 
L 360.8064 244.6848 
" style="fill:none;stroke:#b0b0b0;stroke-linecap:square;stroke-width:0.8;"/>
     </g>
     <g id="line2d_24">
      <g>
       <use style="stroke:#000000;stroke-width:0.8;" x="57.6" xlink:href="#md3facda545" y="244.6848"/>
      </g>
     </g>
     <g id="text_7">
      <!-- 0.2 -->
      <g transform="translate(25.155 250.76355)scale(0.16 -0.16)">
       <use xlink:href="#DejaVuSans-30"/>
       <use x="63.623047" xlink:href="#DejaVuSans-2e"/>
       <use x="95.410156" xlink:href="#DejaVuSans-32"/>
      </g>
     </g>
    </g>
    <g id="ytick_3">
     <g id="line2d_25">
      <path clip-path="url(#pa2583e7835)" d="M 57.6 190.4256 
L 360.8064 190.4256 
" style="fill:none;stroke:#b0b0b0;stroke-linecap:square;stroke-width:0.8;"/>
     </g>
     <g id="line2d_26">
      <g>
       <use style="stroke:#000000;stroke-width:0.8;" x="57.6" xlink:href="#md3facda545" y="190.4256"/>
      </g>
     </g>
     <g id="text_8">
      <!-- 0.4 -->
      <g transform="translate(25.155 196.50435)scale(0.16 -0.16)">
       <use xlink:href="#DejaVuSans-30"/>
       <use x="63.623047" xlink:href="#DejaVuSans-2e"/>
       <use x="95.410156" xlink:href="#DejaVuSans-34"/>
      </g>
     </g>
    </g>
    <g id="ytick_4">
     <g id="line2d_27">
      <path clip-path="url(#pa2583e7835)" d="M 57.6 136.1664 
L 360.8064 136.1664 
" style="fill:none;stroke:#b0b0b0;stroke-linecap:square;stroke-width:0.8;"/>
     </g>
     <g id="line2d_28">
      <g>
       <use style="stroke:#000000;stroke-width:0.8;" x="57.6" xlink:href="#md3facda545" y="136.1664"/>
      </g>
     </g>
     <g id="text_9">
      <!-- 0.6 -->
      <g transform="translate(25.155 142.24515)scale(0.16 -0.16)">
       <use xlink:href="#DejaVuSans-30"/>
       <use x="63.623047" xlink:href="#DejaVuSans-2e"/>
       <use x="95.410156" xlink:href="#DejaVuSans-36"/>
      </g>
     </g>
    </g>
    <g id="ytick_5">
     <g id="line2d_29">
      <path clip-path="url(#pa2583e7835)" d="M 57.6 81.9072 
L 360.8064 81.9072 
" style="fill:none;stroke:#b0b0b0;stroke-linecap:square;stroke-width:0.8;"/>
     </g>
     <g id="line2d_30">
      <g>
       <use style="stroke:#000000;stroke-width:0.8;" x="57.6" xlink:href="#md3facda545" y="81.9072"/>
      </g>
     </g>
     <g id="text_10">
      <!-- 0.8 -->
      <g transform="translate(25.155 87.98595)scale(0.16 -0.16)">
       <defs>
        <path d="M 2034 2216 
Q 1584 2216 1326 1975 
Q 1069 1734 1069 1313 
Q 1069 891 1326 650 
Q 1584 409 2034 409 
Q 2484 409 2743 651 
Q 3003 894 3003 1313 
Q 3003 1734 2745 1975 
Q 2488 2216 2034 2216 
z
M 1403 2484 
Q 997 2584 770 2862 
Q 544 3141 544 3541 
Q 544 4100 942 4425 
Q 1341 4750 2034 4750 
Q 2731 4750 3128 4425 
Q 3525 4100 3525 3541 
Q 3525 3141 3298 2862 
Q 3072 2584 2669 2484 
Q 3125 2378 3379 2068 
Q 3634 1759 3634 1313 
Q 3634 634 3220 271 
Q 2806 -91 2034 -91 
Q 1263 -91 848 271 
Q 434 634 434 1313 
Q 434 1759 690 2068 
Q 947 2378 1403 2484 
z
M 1172 3481 
Q 1172 3119 1398 2916 
Q 1625 2713 2034 2713 
Q 2441 2713 2670 2916 
Q 2900 3119 2900 3481 
Q 2900 3844 2670 4047 
Q 2441 4250 2034 4250 
Q 1625 4250 1398 4047 
Q 1172 3844 1172 3481 
z
" id="DejaVuSans-38" transform="scale(0.015625)"/>
       </defs>
       <use xlink:href="#DejaVuSans-30"/>
       <use x="63.623047" xlink:href="#DejaVuSans-2e"/>
       <use x="95.410156" xlink:href="#DejaVuSans-38"/>
      </g>
     </g>
    </g>
    <g id="ytick_6">
     <g id="line2d_31">
      <path clip-path="url(#pa2583e7835)" d="M 57.6 27.648 
L 360.8064 27.648 
" style="fill:none;stroke:#b0b0b0;stroke-linecap:square;stroke-width:0.8;"/>
     </g>
     <g id="line2d_32">
      <g>
       <use style="stroke:#000000;stroke-width:0.8;" x="57.6" xlink:href="#md3facda545" y="27.648"/>
      </g>
     </g>
     <g id="text_11">
      <!-- 1.0 -->
      <g transform="translate(25.155 33.72675)scale(0.16 -0.16)">
       <use xlink:href="#DejaVuSans-31"/>
       <use x="63.623047" xlink:href="#DejaVuSans-2e"/>
       <use x="95.410156" xlink:href="#DejaVuSans-30"/>
      </g>
     </g>
    </g>
    <g id="text_12">
     <!-- Fraction of function,target pairs -->
     <g transform="translate(17.619531 297.681)rotate(-90)scale(0.17 -0.17)">
      <defs>
       <path d="M 628 4666 
L 3309 4666 
L 3309 4134 
L 1259 4134 
L 1259 2759 
L 3109 2759 
L 3109 2228 
L 1259 2228 
L 1259 0 
L 628 0 
L 628 4666 
z
" id="DejaVuSans-46" transform="scale(0.015625)"/>
       <path d="M 2631 2963 
Q 2534 3019 2420 3045 
Q 2306 3072 2169 3072 
Q 1681 3072 1420 2755 
Q 1159 2438 1159 1844 
L 1159 0 
L 581 0 
L 581 3500 
L 1159 3500 
L 1159 2956 
Q 1341 3275 1631 3429 
Q 1922 3584 2338 3584 
Q 2397 3584 2469 3576 
Q 2541 3569 2628 3553 
L 2631 2963 
z
" id="DejaVuSans-72" transform="scale(0.015625)"/>
       <path d="M 3122 3366 
L 3122 2828 
Q 2878 2963 2633 3030 
Q 2388 3097 2138 3097 
Q 1578 3097 1268 2742 
Q 959 2388 959 1747 
Q 959 1106 1268 751 
Q 1578 397 2138 397 
Q 2388 397 2633 464 
Q 2878 531 3122 666 
L 3122 134 
Q 2881 22 2623 -34 
Q 2366 -91 2075 -91 
Q 1284 -91 818 406 
Q 353 903 353 1747 
Q 353 2603 823 3093 
Q 1294 3584 2113 3584 
Q 2378 3584 2631 3529 
Q 2884 3475 3122 3366 
z
" id="DejaVuSans-63" transform="scale(0.015625)"/>
       <path d="M 1172 4494 
L 1172 3500 
L 2356 3500 
L 2356 3053 
L 1172 3053 
L 1172 1153 
Q 1172 725 1289 603 
Q 1406 481 1766 481 
L 2356 481 
L 2356 0 
L 1766 0 
Q 1100 0 847 248 
Q 594 497 594 1153 
L 594 3053 
L 172 3053 
L 172 3500 
L 594 3500 
L 594 4494 
L 1172 4494 
z
" id="DejaVuSans-74" transform="scale(0.015625)"/>
       <path d="M 544 1381 
L 544 3500 
L 1119 3500 
L 1119 1403 
Q 1119 906 1312 657 
Q 1506 409 1894 409 
Q 2359 409 2629 706 
Q 2900 1003 2900 1516 
L 2900 3500 
L 3475 3500 
L 3475 0 
L 2900 0 
L 2900 538 
Q 2691 219 2414 64 
Q 2138 -91 1772 -91 
Q 1169 -91 856 284 
Q 544 659 544 1381 
z
M 1991 3584 
L 1991 3584 
z
" id="DejaVuSans-75" transform="scale(0.015625)"/>
       <path d="M 750 794 
L 1409 794 
L 1409 256 
L 897 -744 
L 494 -744 
L 750 256 
L 750 794 
z
" id="DejaVuSans-2c" transform="scale(0.015625)"/>
       <path d="M 1159 525 
L 1159 -1331 
L 581 -1331 
L 581 3500 
L 1159 3500 
L 1159 2969 
Q 1341 3281 1617 3432 
Q 1894 3584 2278 3584 
Q 2916 3584 3314 3078 
Q 3713 2572 3713 1747 
Q 3713 922 3314 415 
Q 2916 -91 2278 -91 
Q 1894 -91 1617 61 
Q 1341 213 1159 525 
z
M 3116 1747 
Q 3116 2381 2855 2742 
Q 2594 3103 2138 3103 
Q 1681 3103 1420 2742 
Q 1159 2381 1159 1747 
Q 1159 1113 1420 752 
Q 1681 391 2138 391 
Q 2594 391 2855 752 
Q 3116 1113 3116 1747 
z
" id="DejaVuSans-70" transform="scale(0.015625)"/>
      </defs>
      <use xlink:href="#DejaVuSans-46"/>
      <use x="50.269531" xlink:href="#DejaVuSans-72"/>
      <use x="91.382812" xlink:href="#DejaVuSans-61"/>
      <use x="152.662109" xlink:href="#DejaVuSans-63"/>
      <use x="207.642578" xlink:href="#DejaVuSans-74"/>
      <use x="246.851562" xlink:href="#DejaVuSans-69"/>
      <use x="274.634766" xlink:href="#DejaVuSans-6f"/>
      <use x="335.816406" xlink:href="#DejaVuSans-6e"/>
      <use x="399.195312" xlink:href="#DejaVuSans-20"/>
      <use x="430.982422" xlink:href="#DejaVuSans-6f"/>
      <use x="492.164062" xlink:href="#DejaVuSans-66"/>
      <use x="527.369141" xlink:href="#DejaVuSans-20"/>
      <use x="559.15625" xlink:href="#DejaVuSans-66"/>
      <use x="594.361328" xlink:href="#DejaVuSans-75"/>
      <use x="657.740234" xlink:href="#DejaVuSans-6e"/>
      <use x="721.119141" xlink:href="#DejaVuSans-63"/>
      <use x="776.099609" xlink:href="#DejaVuSans-74"/>
      <use x="815.308594" xlink:href="#DejaVuSans-69"/>
      <use x="843.091797" xlink:href="#DejaVuSans-6f"/>
      <use x="904.273438" xlink:href="#DejaVuSans-6e"/>
      <use x="967.652344" xlink:href="#DejaVuSans-2c"/>
      <use x="999.439453" xlink:href="#DejaVuSans-74"/>
      <use x="1038.648438" xlink:href="#DejaVuSans-61"/>
      <use x="1099.927734" xlink:href="#DejaVuSans-72"/>
      <use x="1139.291016" xlink:href="#DejaVuSans-67"/>
      <use x="1202.767578" xlink:href="#DejaVuSans-65"/>
      <use x="1264.291016" xlink:href="#DejaVuSans-74"/>
      <use x="1303.5" xlink:href="#DejaVuSans-20"/>
      <use x="1335.287109" xlink:href="#DejaVuSans-70"/>
      <use x="1398.763672" xlink:href="#DejaVuSans-61"/>
      <use x="1460.042969" xlink:href="#DejaVuSans-69"/>
      <use x="1487.826172" xlink:href="#DejaVuSans-72"/>
      <use x="1528.939453" xlink:href="#DejaVuSans-73"/>
     </g>
    </g>
   </g>
   <g id="line2d_33">
    <defs>
     <path d="M 0 1.5 
C 0.397805 1.5 0.77937 1.341951 1.06066 1.06066 
C 1.341951 0.77937 1.5 0.397805 1.5 0 
C 1.5 -0.397805 1.341951 -0.77937 1.06066 -1.06066 
C 0.77937 -1.341951 0.397805 -1.5 0 -1.5 
C -0.397805 -1.5 -0.77937 -1.341951 -1.06066 -1.06066 
C -1.341951 -0.77937 -1.5 -0.397805 -1.5 0 
C -1.5 0.397805 -1.341951 0.77937 -1.06066 1.06066 
C -0.77937 1.341951 -0.397805 1.5 0 1.5 
z
" id="mcf2b351f82" style="stroke:#f5deb3;"/>
    </defs>
    <g>
     <use style="fill:#f5deb3;stroke:#f5deb3;" x="132.109044" xlink:href="#mcf2b351f82" y="27.648"/>
     <use style="fill:#f5deb3;stroke:#f5deb3;" x="132.109044" xlink:href="#mcf2b351f82" y="27.648"/>
    </g>
   </g>
   <g id="line2d_34">
    <defs>
     <path d="M 0 1.5 
C 0.397805 1.5 0.77937 1.341951 1.06066 1.06066 
C 1.341951 0.77937 1.5 0.397805 1.5 0 
C 1.5 -0.397805 1.341951 -0.77937 1.06066 -1.06066 
C 0.77937 -1.341951 0.397805 -1.5 0 -1.5 
C -0.397805 -1.5 -0.77937 -1.341951 -1.06066 -1.06066 
C -1.341951 -0.77937 -1.5 -0.397805 -1.5 0 
C -1.5 0.397805 -1.341951 0.77937 -1.06066 1.06066 
C -0.77937 1.341951 -0.397805 1.5 0 1.5 
z
" id="m9c092e357c" style="stroke:#000080;"/>
    </defs>
    <g>
     <use style="fill:#000080;stroke:#000080;" x="220.10574" xlink:href="#m9c092e357c" y="27.648"/>
     <use style="fill:#000080;stroke:#000080;" x="220.10574" xlink:href="#m9c092e357c" y="27.648"/>
    </g>
   </g>
   <g id="line2d_35">
    <path d="M 95.503454 298.944 
L 95.503454 298.234729 
L 130.618241 298.234729 
L 130.618241 297.880094 
L 139.676658 297.880094 
L 139.676658 297.170824 
L 141.50224 297.170824 
L 141.50224 295.043012 
L 151.024471 295.043012 
L 151.024471 294.688376 
L 153.478964 294.688376 
L 153.478964 293.624471 
L 158.321284 293.624471 
L 158.321284 293.269835 
L 158.933807 293.269835 
L 158.933807 292.9152 
L 159.275069 292.9152 
L 159.275069 290.787388 
L 161.654432 290.787388 
L 161.654432 289.723482 
L 161.950101 289.723482 
L 161.950101 289.368847 
L 162.31327 289.368847 
L 162.31327 286.531765 
L 163.565517 286.531765 
L 163.565517 284.049318 
L 165.422585 284.049318 
L 165.422585 283.694682 
L 165.664928 283.694682 
L 165.664928 282.276141 
L 167.877265 282.276141 
L 167.930707 279.793694 
L 168.968849 279.793694 
L 168.968849 278.729788 
L 169.808349 278.729788 
L 169.808349 278.375153 
L 171.427048 278.375153 
L 171.427048 275.892706 
L 171.9083 275.892706 
L 171.994493 274.8288 
L 173.28232 274.8288 
L 173.28232 272.346353 
L 173.679622 272.346353 
L 173.679622 271.991718 
L 173.87517 271.991718 
L 173.87517 269.863906 
L 174.260272 269.863906 
L 174.336355 267.736094 
L 174.7494 267.736094 
L 174.7494 266.317553 
L 176.316452 266.317553 
L 176.316452 264.899012 
L 176.822169 264.899012 
L 176.822169 264.189741 
L 177.794559 264.189741 
L 177.889089 263.480471 
L 179.106105 263.480471 
L 179.106105 260.643388 
L 179.369413 260.643388 
L 179.369413 257.806306 
L 179.485266 257.806306 
L 179.542926 254.259953 
L 179.969833 254.259953 
L 179.969833 251.777506 
L 180.660496 251.777506 
L 180.687602 248.585788 
L 182.979872 248.585788 
L 182.979872 248.231153 
L 184.45514 248.231153 
L 184.45514 247.167247 
L 185.469311 247.167247 
L 185.469311 246.457976 
L 186.190544 246.457976 
L 186.190544 245.394071 
L 186.33153 245.394071 
L 186.33153 243.975529 
L 186.630133 243.975529 
L 186.630133 243.620894 
L 186.78747 243.620894 
L 186.78747 242.911624 
L 187.611325 242.911624 
L 187.611325 242.202353 
L 188.037615 242.202353 
L 188.037615 241.847718 
L 188.346604 241.847718 
L 188.400609 240.074541 
L 188.70374 240.074541 
L 188.809572 238.301365 
L 189.32998 238.301365 
L 189.398292 236.882824 
L 189.61861 236.882824 
L 189.61861 235.464282 
L 190.166558 235.464282 
L 190.166558 234.400376 
L 190.378109 234.400376 
L 190.426593 232.272565 
L 191.355553 232.272565 
L 191.355553 230.144753 
L 191.840843 230.144753 
L 191.930458 226.5984 
L 192.444868 226.5984 
L 192.444868 225.534494 
L 192.589295 225.534494 
L 192.589295 225.179859 
L 193.0301 225.179859 
L 193.058188 222.342776 
L 193.419559 222.342776 
L 193.419559 221.988141 
L 193.89531 221.988141 
L 193.89531 220.5696 
L 194.161861 220.5696 
L 194.254269 219.860329 
L 194.593578 219.860329 
L 194.593578 219.151059 
L 194.990298 219.151059 
L 195.078734 217.377882 
L 195.329141 217.377882 
L 195.329141 216.313976 
L 196.096818 216.313976 
L 196.096818 215.604706 
L 196.227702 215.604706 
L 196.322322 212.412988 
L 196.868802 212.412988 
L 196.868802 211.703718 
L 197.209498 211.703718 
L 197.254461 209.930541 
L 197.332889 209.930541 
L 197.332889 209.575906 
L 198.056711 209.575906 
L 198.056711 208.866635 
L 198.206732 208.866635 
L 198.206732 208.512 
L 198.344975 208.512 
L 198.408438 207.448094 
L 198.524234 207.448094 
L 198.618449 205.674918 
L 199.102938 205.674918 
L 199.102938 204.965647 
L 199.365688 204.965647 
L 199.365688 204.611012 
L 199.505663 204.611012 
L 199.525574 203.901741 
L 199.958382 203.901741 
L 199.958382 202.4832 
L 200.36243 202.4832 
L 200.36243 201.773929 
L 200.476296 201.773929 
L 200.476296 201.064659 
L 200.776611 201.064659 
L 200.804522 198.936847 
L 200.943456 198.936847 
L 200.943456 198.227576 
L 201.108833 198.227576 
L 201.209186 197.163671 
L 201.309006 197.163671 
L 201.399294 195.390494 
L 201.45326 195.390494 
L 201.45326 194.681224 
L 201.667588 194.681224 
L 201.667588 191.844141 
L 201.809129 191.844141 
L 201.809129 191.489506 
L 201.958358 191.489506 
L 201.9933 190.070965 
L 202.13242 190.070965 
L 202.15839 186.169976 
L 202.339189 186.169976 
L 202.339189 183.332894 
L 202.577583 183.332894 
L 202.577583 182.978259 
L 202.854722 182.978259 
L 202.904676 181.205082 
L 203.168876 181.205082 
L 203.193455 180.495812 
L 203.283306 180.495812 
L 203.356503 179.077271 
L 203.445581 179.077271 
L 203.445581 178.722635 
L 203.566375 178.722635 
L 203.5744 176.240188 
L 203.837336 176.240188 
L 203.916293 173.048471 
L 204.127837 173.048471 
L 204.127837 172.3392 
L 204.650307 172.3392 
L 204.74102 169.502118 
L 204.950998 169.502118 
L 204.988248 168.083576 
L 205.114351 168.083576 
L 205.114351 167.728941 
L 205.239615 167.728941 
L 205.312912 165.955765 
L 205.356753 165.955765 
L 205.451393 163.827953 
L 205.473166 163.827953 
L 205.494913 160.990871 
L 205.682345 160.990871 
L 205.682345 160.636235 
L 205.882129 160.636235 
L 205.924665 156.735247 
L 206.016497 156.735247 
L 206.016497 156.025976 
L 206.400135 156.025976 
L 206.427733 149.642541 
L 206.578803 149.642541 
L 206.578803 149.287906 
L 206.715095 149.287906 
L 206.796398 147.514729 
L 206.91098 147.514729 
L 206.91098 147.160094 
L 207.031546 147.160094 
L 207.104846 145.741553 
L 207.257194 145.741553 
L 207.257194 145.032282 
L 207.395225 145.032282 
L 207.467125 143.259106 
L 207.532251 143.259106 
L 207.532251 141.485929 
L 207.867317 141.485929 
L 207.867317 141.131294 
L 208.544719 141.131294 
L 208.612364 138.648847 
L 208.734736 138.648847 
L 208.753024 136.1664 
L 208.940959 136.1664 
L 208.95302 134.747859 
L 209.499612 134.747859 
L 209.610543 131.910776 
L 209.622182 131.910776 
L 209.720824 128.719059 
L 209.738178 128.719059 
L 209.738178 126.591247 
L 209.928021 126.591247 
L 209.928021 126.236612 
L 210.042152 126.236612 
L 210.144281 123.399529 
L 210.21206 123.399529 
L 210.234599 121.271718 
L 210.580543 121.271718 
L 210.674297 119.143906 
L 210.712767 119.143906 
L 210.822248 118.08 
L 210.838615 118.08 
L 210.920239 116.306824 
L 210.969044 116.306824 
L 211.077048 113.824376 
L 211.109329 113.824376 
L 211.179081 112.0512 
L 211.370901 112.0512 
L 211.386798 108.859482 
L 211.566032 108.859482 
L 211.566032 108.150212 
L 211.696741 108.150212 
L 211.696741 106.377035 
L 211.945185 106.377035 
L 212.011911 103.185318 
L 212.306761 103.185318 
L 212.372218 101.057506 
L 212.45247 101.057506 
L 212.45247 100.348235 
L 212.71095 100.348235 
L 212.794688 97.156518 
L 212.848674 97.156518 
L 212.95131 95.028706 
L 213.087291 95.028706 
L 213.179008 94.319435 
L 213.432511 94.319435 
L 213.532018 91.836988 
L 213.607482 91.836988 
L 213.701387 88.999906 
L 213.748164 88.999906 
L 213.748164 87.936 
L 213.887803 87.936 
L 213.966474 81.197929 
L 214.14572 81.197929 
L 214.173146 79.779388 
L 214.305141 79.779388 
L 214.305141 79.424753 
L 214.557437 79.424753 
L 214.624446 77.296941 
L 214.691217 77.296941 
L 214.691217 75.8784 
L 214.81081 75.8784 
L 214.81081 74.105224 
L 214.9866 74.105224 
L 215.056459 72.686682 
L 215.1304 72.686682 
L 215.13908 70.913506 
L 215.286029 70.913506 
L 215.350496 68.431059 
L 215.491552 68.431059 
L 215.593477 60.629082 
L 215.694853 60.629082 
L 215.753738 59.565176 
L 215.925133 59.565176 
L 215.999889 57.437365 
L 216.226488 57.437365 
L 216.324518 55.664188 
L 216.393648 55.664188 
L 216.393648 53.891012 
L 216.803179 53.891012 
L 216.803179 52.472471 
L 216.984991 52.472471 
L 217.032133 50.699294 
L 217.118254 50.699294 
L 217.118254 49.635388 
L 217.381981 49.635388 
L 217.455013 47.862212 
L 217.516295 47.862212 
L 217.592617 45.379765 
L 217.649657 45.379765 
L 217.653453 43.251953 
L 217.861088 43.251953 
L 217.950979 38.641694 
L 217.984578 38.641694 
L 218.081305 36.868518 
L 218.136884 36.868518 
L 218.166459 36.159247 
L 218.379499 36.159247 
L 218.383151 34.740706 
L 218.561237 34.740706 
L 218.561237 33.322165 
L 218.673039 33.322165 
L 218.712551 31.548988 
L 218.812756 31.548988 
L 218.812756 30.839718 
L 219.036283 30.839718 
L 219.110206 29.066541 
L 219.278089 29.066541 
L 219.278089 28.711906 
L 219.924939 28.711906 
L 219.924939 28.357271 
L 220.10574 28.357271 
L 220.10574 27.648 
L 360.8064 27.648 
L 360.8064 27.648 
" style="fill:none;stroke:#000080;stroke-linecap:square;stroke-width:1.5;"/>
   </g>
   <g id="line2d_36">
    <defs>
     <path d="M 0 6 
C 1.591219 6 3.117479 5.367802 4.242641 4.242641 
C 5.367802 3.117479 6 1.591219 6 0 
C 6 -1.591219 5.367802 -3.117479 4.242641 -4.242641 
C 3.117479 -5.367802 1.591219 -6 0 -6 
C -1.591219 -6 -3.117479 -5.367802 -4.242641 -4.242641 
C -5.367802 -3.117479 -6 -1.591219 -6 0 
C -6 1.591219 -5.367802 3.117479 -4.242641 4.242641 
C -3.117479 5.367802 -1.591219 6 0 6 
z
" id="m782757eb3d" style="stroke:#000080;stroke-width:1.5;"/>
    </defs>
    <g>
     <use style="fill-opacity:0;stroke:#000080;stroke-width:1.5;" x="193.419559" xlink:href="#m782757eb3d" y="221.988141"/>
     <use style="fill-opacity:0;stroke:#000080;stroke-width:1.5;" x="220.10574" xlink:href="#m782757eb3d" y="28.357271"/>
     <use style="fill-opacity:0;stroke:#000080;stroke-width:1.5;" x="220.10574" xlink:href="#m782757eb3d" y="27.648"/>
     <use style="fill-opacity:0;stroke:#000080;stroke-width:1.5;" x="220.10574" xlink:href="#m782757eb3d" y="27.648"/>
     <use style="fill-opacity:0;stroke:#000080;stroke-width:1.5;" x="360.8064" xlink:href="#m782757eb3d" y="27.648"/>
    </g>
   </g>
   <g id="line2d_37">
    <path style="fill:none;stroke:#000080;stroke-linecap:square;stroke-width:1.5;"/>
    <g/>
   </g>
   <g id="line2d_38">
    <defs>
     <path d="M 0 1.5 
C 0.397805 1.5 0.77937 1.341951 1.06066 1.06066 
C 1.341951 0.77937 1.5 0.397805 1.5 0 
C 1.5 -0.397805 1.341951 -0.77937 1.06066 -1.06066 
C 0.77937 -1.341951 0.397805 -1.5 0 -1.5 
C -0.397805 -1.5 -0.77937 -1.341951 -1.06066 -1.06066 
C -1.341951 -0.77937 -1.5 -0.397805 -1.5 0 
C -1.5 0.397805 -1.341951 0.77937 -1.06066 1.06066 
C -0.77937 1.341951 -0.397805 1.5 0 1.5 
z
" id="m4e9dde2cab" style="stroke:#ff00ff;"/>
    </defs>
    <g>
     <use style="fill:#ff00ff;stroke:#ff00ff;" x="196.304617" xlink:href="#m4e9dde2cab" y="27.648"/>
     <use style="fill:#ff00ff;stroke:#ff00ff;" x="196.304617" xlink:href="#m4e9dde2cab" y="27.648"/>
    </g>
   </g>
   <g id="line2d_39">
    <path d="M 115.747307 298.944 
L 115.747307 296.106918 
L 118.524569 296.106918 
L 118.524569 294.688376 
L 118.889854 294.688376 
L 118.889854 293.624471 
L 119.599808 293.624471 
L 119.599808 291.851294 
L 120.28394 291.851294 
L 120.28394 291.496659 
L 123.374735 291.496659 
L 123.374735 290.078118 
L 123.657621 290.078118 
L 123.657621 286.8864 
L 125.526971 286.8864 
L 125.526971 285.822494 
L 125.779479 285.822494 
L 125.779479 285.113224 
L 127.686077 285.113224 
L 127.686077 282.985412 
L 128.133992 282.985412 
L 128.133992 279.793694 
L 128.57149 279.793694 
L 128.57149 278.020518 
L 129.417095 278.020518 
L 129.417095 277.311247 
L 129.622688 277.311247 
L 129.622688 276.956612 
L 129.826058 276.956612 
L 129.826058 275.183435 
L 130.027253 275.183435 
L 130.027253 274.474165 
L 131.002163 274.474165 
L 131.002163 274.119529 
L 131.191226 274.119529 
L 131.191226 273.764894 
L 132.287354 273.764894 
L 132.287354 273.055624 
L 133.656071 273.055624 
L 133.656071 271.991718 
L 135.237805 271.991718 
L 135.237805 271.637082 
L 135.687504 271.637082 
L 135.687504 270.573176 
L 135.835047 270.573176 
L 135.835047 270.218541 
L 136.270855 270.218541 
L 136.270855 269.154635 
L 136.555884 269.154635 
L 136.555884 266.672188 
L 136.836659 266.672188 
L 136.836659 266.317553 
L 136.97549 266.317553 
L 136.97549 265.253647 
L 137.38594 265.253647 
L 137.38594 264.544376 
L 137.520791 264.544376 
L 137.520791 264.189741 
L 138.692823 264.189741 
L 138.692823 263.835106 
L 138.818654 263.835106 
L 138.818654 263.480471 
L 140.382174 263.480471 
L 140.382174 263.125835 
L 140.49723 263.125835 
L 140.49723 262.7712 
L 140.611586 262.7712 
L 140.611586 262.061929 
L 141.062184 262.061929 
L 141.062184 261.707294 
L 141.283499 261.707294 
L 141.393187 259.934118 
L 142.248405 259.934118 
L 142.248405 259.579482 
L 143.754133 259.579482 
L 143.850356 258.870212 
L 143.946089 258.870212 
L 143.946089 257.097035 
L 144.786447 257.097035 
L 144.786447 253.550682 
L 145.237585 253.550682 
L 145.237585 253.196047 
L 145.415054 253.196047 
L 145.415054 252.486776 
L 145.765046 252.486776 
L 145.765046 251.777506 
L 146.023332 251.777506 
L 146.023332 251.068235 
L 146.612557 251.068235 
L 146.612557 250.358965 
L 147.022411 250.358965 
L 147.022411 250.004329 
L 147.264104 250.004329 
L 147.264104 248.940424 
L 147.816265 248.940424 
L 147.816265 248.585788 
L 147.971093 248.585788 
L 147.971093 247.167247 
L 148.352679 247.167247 
L 148.352679 246.812612 
L 148.503173 246.812612 
L 148.503173 246.457976 
L 148.726679 246.457976 
L 148.726679 246.103341 
L 148.947561 246.103341 
L 148.947561 243.975529 
L 149.165879 243.975529 
L 149.165879 242.202353 
L 149.381693 242.202353 
L 149.453084 240.783812 
L 149.73597 240.783812 
L 149.806031 240.074541 
L 149.945377 240.074541 
L 149.945377 239.719906 
L 150.083698 239.719906 
L 150.152479 239.010635 
L 150.425115 239.010635 
L 150.492661 229.790118 
L 150.559965 229.790118 
L 150.559965 228.726212 
L 150.760445 228.726212 
L 150.760445 228.016941 
L 150.958812 228.016941 
L 151.024471 225.179859 
L 151.220087 225.179859 
L 151.220087 224.825224 
L 151.41369 224.825224 
L 151.41369 224.470588 
L 151.54166 224.470588 
L 151.60532 221.633506 
L 151.795018 221.633506 
L 151.795018 221.278871 
L 151.920429 221.278871 
L 151.920429 220.924235 
L 152.045009 220.924235 
L 152.045009 220.214965 
L 152.16877 220.214965 
L 152.16877 219.505694 
L 152.291722 219.505694 
L 152.352898 218.087153 
L 152.413875 218.087153 
L 152.474656 216.668612 
L 152.595631 216.668612 
L 152.655828 213.122259 
L 152.835271 213.122259 
L 152.835271 212.412988 
L 152.953957 212.412988 
L 153.01302 210.994447 
L 153.189104 210.994447 
L 153.247435 207.093459 
L 153.478964 207.093459 
L 153.536404 206.384188 
L 153.707679 206.384188 
L 153.707679 205.320282 
L 153.821002 205.320282 
L 153.877408 204.256376 
L 153.933646 204.256376 
L 153.933646 203.901741 
L 154.04562 203.901741 
L 154.04562 202.837835 
L 154.156931 202.837835 
L 154.212341 201.419294 
L 154.377597 201.419294 
L 154.432362 200.710024 
L 154.541415 200.710024 
L 154.541415 199.291482 
L 154.703817 199.291482 
L 154.757642 196.4544 
L 154.918196 196.4544 
L 154.971412 195.390494 
L 155.235253 195.390494 
L 155.339761 194.681224 
L 155.391799 194.681224 
L 155.391799 194.326588 
L 155.598521 194.326588 
L 155.649849 193.617318 
L 155.752086 193.617318 
L 155.752086 190.070965 
L 155.904407 190.070965 
L 156.005274 187.943153 
L 156.105602 187.943153 
L 156.155566 185.460706 
L 156.255099 185.460706 
L 156.354107 181.205082 
L 156.403417 181.205082 
L 156.403417 179.786541 
L 156.599372 179.786541 
L 156.599372 179.431906 
L 156.793307 179.431906 
L 156.88953 175.530918 
L 156.937458 175.530918 
L 157.032948 172.3392 
L 157.175281 172.3392 
L 157.175281 170.920659 
L 157.410135 170.920659 
L 157.503261 170.211388 
L 157.549652 170.211388 
L 157.642093 166.3104 
L 157.688143 166.3104 
L 157.779907 165.246494 
L 157.871225 165.246494 
L 157.916719 164.182588 
L 158.007377 164.182588 
L 158.007377 163.827953 
L 158.14255 163.827953 
L 158.14255 163.473318 
L 158.276759 163.473318 
L 158.276759 162.409412 
L 158.454228 162.409412 
L 158.454228 162.054776 
L 158.630038 162.054776 
L 158.630038 161.700141 
L 158.804221 161.700141 
L 158.804221 160.636235 
L 158.933807 160.636235 
L 158.933807 160.2816 
L 159.105212 160.2816 
L 159.190332 158.153788 
L 159.443406 158.153788 
L 159.527013 157.089882 
L 159.568678 157.089882 
L 159.568678 155.316706 
L 159.775628 155.316706 
L 159.857774 154.2528 
L 159.898714 154.2528 
L 159.980326 153.543529 
L 160.020999 153.543529 
L 160.102084 152.124988 
L 160.18282 152.124988 
L 160.263211 150.351812 
L 160.343261 150.351812 
L 160.343261 149.287906 
L 160.620781 149.287906 
L 160.699326 146.450824 
L 160.738476 146.450824 
L 160.777545 145.741553 
L 160.855439 145.741553 
L 160.894266 142.549835 
L 161.010268 142.549835 
L 161.010268 142.1952 
L 161.202028 142.1952 
L 161.202028 141.840565 
L 161.42959 141.840565 
L 161.504837 141.131294 
L 161.802848 141.131294 
L 161.839769 140.067388 
L 161.950101 140.067388 
L 162.023298 137.939576 
L 162.168843 137.939576 
L 162.277267 135.102494 
L 162.31327 135.102494 
L 162.420867 134.038588 
L 162.492258 134.038588 
L 162.527853 133.329318 
L 162.66956 133.329318 
L 162.775144 131.556141 
L 162.810208 131.556141 
L 162.810208 130.1376 
L 162.984551 130.1376 
L 163.019227 128.364424 
L 163.122872 128.364424 
L 163.191653 126.945882 
L 163.260183 126.945882 
L 163.294355 125.172706 
L 163.3965 125.172706 
L 163.3965 124.463435 
L 163.59914 124.463435 
L 163.666204 123.044894 
L 163.79962 123.044894 
L 163.899064 121.626353 
L 164.194282 121.626353 
L 164.259262 120.917082 
L 164.356312 120.917082 
L 164.356312 119.853176 
L 164.548924 119.853176 
L 164.644495 117.016094 
L 164.676244 117.016094 
L 164.70794 115.952188 
L 164.834193 115.952188 
L 164.928329 114.888282 
L 164.959603 114.888282 
L 165.053116 112.760471 
L 165.084184 112.760471 
L 165.146166 111.696565 
L 165.269521 111.696565 
L 165.300233 110.278024 
L 165.422585 110.278024 
L 165.51383 108.504847 
L 165.574415 108.504847 
L 165.634805 106.0224 
L 165.695002 106.0224 
L 165.784938 103.894588 
L 165.844657 103.894588 
L 165.874446 103.185318 
L 165.993131 103.185318 
L 165.993131 102.830682 
L 166.111072 102.830682 
L 166.199045 101.766776 
L 166.228279 101.766776 
L 166.228279 101.412141 
L 166.373767 101.412141 
L 166.40273 100.702871 
L 166.489353 100.702871 
L 166.575579 99.284329 
L 166.632844 99.284329 
L 166.718416 98.575059 
L 166.746854 98.575059 
L 166.83191 96.092612 
L 166.972821 96.092612 
L 167.028891 94.674071 
L 167.279159 94.674071 
L 167.38933 93.255529 
L 167.444174 93.255529 
L 167.553385 91.836988 
L 167.689013 91.836988 
L 167.716022 91.127718 
L 167.930707 91.127718 
L 168.037137 89.709176 
L 168.116567 89.709176 
L 168.221954 87.936 
L 168.248209 87.936 
L 168.352863 86.162824 
L 168.430973 86.162824 
L 168.508761 85.098918 
L 168.586228 85.098918 
L 168.611979 84.035012 
L 168.714635 84.035012 
L 168.740211 83.325741 
L 168.91828 83.325741 
L 169.019282 82.616471 
L 169.094679 82.616471 
L 169.144777 81.552565 
L 169.219673 81.552565 
L 169.319074 79.424753 
L 169.343842 79.424753 
L 169.368578 78.715482 
L 169.491772 78.715482 
L 169.491772 78.360847 
L 169.614163 78.360847 
L 169.687218 77.296941 
L 169.735764 77.296941 
L 169.832482 76.233035 
L 169.880655 76.233035 
L 169.952684 75.523765 
L 170.00055 75.523765 
L 170.09592 74.814494 
L 170.214455 74.814494 
L 170.308749 73.750588 
L 170.472634 73.750588 
L 170.542436 72.686682 
L 170.6582 72.686682 
L 170.6582 72.332047 
L 170.978599 72.332047 
L 171.069148 70.204235 
L 171.226568 70.204235 
L 171.248949 69.140329 
L 171.360458 69.140329 
L 171.382681 68.431059 
L 171.537509 68.431059 
L 171.647326 67.012518 
L 171.691074 67.012518 
L 171.691074 66.657882 
L 171.865055 66.657882 
L 171.865055 66.303247 
L 172.080292 66.303247 
L 172.123046 65.239341 
L 172.314244 65.239341 
L 172.419631 64.530071 
L 172.461621 64.530071 
L 172.545321 62.756894 
L 172.752956 62.756894 
L 172.752956 62.402259 
L 173.039848 62.402259 
L 173.141258 61.692988 
L 173.161475 61.692988 
L 173.161475 61.338353 
L 173.48202 61.338353 
L 173.581081 60.274447 
L 173.640268 60.274447 
L 173.718895 59.210541 
L 173.894614 59.210541 
L 173.991531 57.792 
L 174.107176 57.792 
L 174.18388 57.082729 
L 174.260272 57.082729 
L 174.355328 54.954918 
L 174.374282 54.954918 
L 174.374282 54.600282 
L 174.544011 54.600282 
L 174.581522 53.536376 
L 174.693607 53.536376 
L 174.7494 52.472471 
L 174.842022 52.472471 
L 174.842022 52.117835 
L 175.098964 52.117835 
L 175.171736 51.053929 
L 175.226131 51.053929 
L 175.316441 49.990024 
L 175.388379 49.990024 
L 175.495771 48.926118 
L 175.584799 48.926118 
L 175.584799 48.571482 
L 175.743995 48.571482 
L 175.743995 48.216847 
L 176.023726 48.216847 
L 176.127562 47.507576 
L 176.162047 47.507576 
L 176.162047 47.152941 
L 176.384671 47.152941 
L 176.418689 46.089035 
L 176.705378 46.089035 
L 176.772205 45.025129 
L 176.822169 45.025129 
L 176.822169 44.670494 
L 176.954762 44.670494 
L 177.053597 43.606588 
L 177.070019 43.606588 
L 177.1192 42.897318 
L 177.282212 42.897318 
L 177.282212 42.188047 
L 177.45991 42.188047 
L 177.524113 41.478776 
L 177.620009 41.478776 
L 177.620009 41.124141 
L 178.076737 41.124141 
L 178.123358 40.414871 
L 178.324058 40.414871 
L 178.354746 39.7056 
L 178.446509 39.7056 
L 178.446509 39.350965 
L 178.67398 39.350965 
L 178.67398 38.641694 
L 178.86892 38.641694 
L 178.86892 38.287059 
L 179.120831 38.287059 
L 179.120831 37.932424 
L 179.311218 37.932424 
L 179.311218 37.577788 
L 179.586055 37.577788 
L 179.586055 37.223153 
L 179.714853 37.223153 
L 179.714853 36.868518 
L 179.899351 36.868518 
L 179.899351 36.513882 
L 180.193616 36.513882 
L 180.193616 36.159247 
L 180.660496 36.159247 
L 180.674054 35.449976 
L 180.889661 35.449976 
L 180.889661 35.095341 
L 181.063041 35.095341 
L 181.063041 34.740706 
L 181.195331 34.740706 
L 181.195331 34.386071 
L 181.470148 34.386071 
L 181.470148 34.031435 
L 181.599615 34.031435 
L 181.599615 33.6768 
L 181.881346 33.6768 
L 181.881346 33.322165 
L 182.308614 33.322165 
L 182.333448 32.612894 
L 183.628001 32.612894 
L 183.639581 31.903624 
L 184.220899 31.903624 
L 184.220899 31.548988 
L 184.355108 31.548988 
L 184.355108 31.194353 
L 185.226169 31.194353 
L 185.226169 30.839718 
L 185.427251 30.839718 
L 185.427251 30.485082 
L 186.461507 30.485082 
L 186.461507 30.130447 
L 187.011362 30.130447 
L 187.050029 29.421176 
L 188.391619 29.421176 
L 188.391619 29.066541 
L 189.844703 29.066541 
L 189.844703 28.711906 
L 191.885704 28.711906 
L 191.885704 28.357271 
L 196.280984 28.357271 
L 196.304617 27.648 
L 360.8064 27.648 
L 360.8064 27.648 
" style="fill:none;stroke:#ff00ff;stroke-linecap:square;stroke-width:1.5;"/>
   </g>
   <g id="line2d_40">
    <defs>
     <path d="M -0 8.485281 
L 5.091169 0 
L 0 -8.485281 
L -5.091169 -0 
z
" id="mb9a9f7a739" style="stroke:#ff00ff;stroke-linejoin:miter;stroke-width:1.5;"/>
    </defs>
    <g>
     <use style="fill-opacity:0;stroke:#ff00ff;stroke-linejoin:miter;stroke-width:1.5;" x="166.40273" xlink:href="#mb9a9f7a739" y="101.057506"/>
     <use style="fill-opacity:0;stroke:#ff00ff;stroke-linejoin:miter;stroke-width:1.5;" x="196.304617" xlink:href="#mb9a9f7a739" y="28.002635"/>
     <use style="fill-opacity:0;stroke:#ff00ff;stroke-linejoin:miter;stroke-width:1.5;" x="196.304617" xlink:href="#mb9a9f7a739" y="27.648"/>
     <use style="fill-opacity:0;stroke:#ff00ff;stroke-linejoin:miter;stroke-width:1.5;" x="196.304617" xlink:href="#mb9a9f7a739" y="27.648"/>
     <use style="fill-opacity:0;stroke:#ff00ff;stroke-linejoin:miter;stroke-width:1.5;" x="360.8064" xlink:href="#mb9a9f7a739" y="27.648"/>
    </g>
   </g>
   <g id="line2d_41">
    <path style="fill:none;stroke:#ff00ff;stroke-linecap:square;stroke-width:1.5;"/>
    <g/>
   </g>
   <g id="line2d_42">
    <path clip-path="url(#pa2583e7835)" d="M 145.503164 252.486776 
" style="fill:none;stroke:#ff00ff;stroke-linecap:square;stroke-width:1.5;"/>
    <defs>
     <path d="M -12 12 
L 12 -12 
M -12 -12 
L 12 12 
" id="ma6d65d19aa" style="stroke:#ff00ff;"/>
    </defs>
    <g clip-path="url(#pa2583e7835)">
     <use style="fill:#ff00ff;stroke:#ff00ff;" x="145.503164" xlink:href="#ma6d65d19aa" y="252.486776"/>
    </g>
   </g>
   <g id="line2d_43">
    <defs>
     <path d="M 0 1.5 
C 0.397805 1.5 0.77937 1.341951 1.06066 1.06066 
C 1.341951 0.77937 1.5 0.397805 1.5 0 
C 1.5 -0.397805 1.341951 -0.77937 1.06066 -1.06066 
C 0.77937 -1.341951 0.397805 -1.5 0 -1.5 
C -0.397805 -1.5 -0.77937 -1.341951 -1.06066 -1.06066 
C -1.341951 -0.77937 -1.5 -0.397805 -1.5 0 
C -1.5 0.397805 -1.341951 0.77937 -1.06066 1.06066 
C -0.77937 1.341951 -0.397805 1.5 0 1.5 
z
" id="mf26d456dd8" style="stroke:#ff7500;"/>
    </defs>
    <g>
     <use style="fill:#ff7500;stroke:#ff7500;" x="209.165819" xlink:href="#mf26d456dd8" y="27.648"/>
     <use style="fill:#ff7500;stroke:#ff7500;" x="209.165819" xlink:href="#mf26d456dd8" y="27.648"/>
    </g>
   </g>
   <g id="line2d_44">
    <path d="M 127.227236 298.944 
L 127.227236 297.170824 
L 131.191226 297.170824 
L 131.191226 295.043012 
L 132.812362 295.043012 
L 132.812362 293.979106 
L 135.835047 293.979106 
L 135.835047 293.269835 
L 142.248405 293.269835 
L 142.248405 292.205929 
L 142.559347 292.205929 
L 142.559347 290.787388 
L 143.946089 290.787388 
L 143.946089 286.531765 
L 144.2304 286.531765 
L 144.2304 286.177129 
L 144.417581 286.177129 
L 144.417581 285.113224 
L 145.590864 285.113224 
L 145.590864 284.758588 
L 147.264104 284.758588 
L 147.264104 280.148329 
L 147.581606 280.148329 
L 147.581606 279.439059 
L 148.947561 279.439059 
L 148.947561 278.375153 
L 149.73597 278.375153 
L 149.73597 278.020518 
L 149.875833 278.020518 
L 149.875833 276.247341 
L 150.152479 276.247341 
L 150.152479 274.474165 
L 151.731998 274.474165 
L 151.795018 272.346353 
L 153.130592 272.346353 
L 153.130592 270.927812 
L 153.593669 270.927812 
L 153.593669 268.090729 
L 154.703817 268.090729 
L 154.703817 266.672188 
L 156.84148 266.672188 
L 156.84148 265.962918 
L 158.58624 265.962918 
L 158.673735 264.899012 
L 159.190332 264.899012 
L 159.232748 263.835106 
L 159.816746 263.835106 
L 159.816746 262.7712 
L 160.620781 262.7712 
L 160.620781 262.416565 
L 160.738476 262.416565 
L 160.738476 262.061929 
L 161.913396 262.061929 
L 161.950101 258.160941 
L 162.05979 258.160941 
L 162.05979 257.806306 
L 162.205054 257.806306 
L 162.31327 257.097035 
L 162.740015 257.097035 
L 162.740015 256.7424 
L 163.294355 256.7424 
L 163.294355 253.196047 
L 163.666204 253.196047 
L 163.699647 251.068235 
L 163.865975 251.068235 
L 163.865975 250.7136 
L 164.09639 250.7136 
L 164.09639 250.358965 
L 164.739583 250.358965 
L 164.739583 250.004329 
L 165.392072 250.004329 
L 165.392072 249.649694 
L 165.784938 249.649694 
L 165.784938 249.295059 
L 166.022686 249.295059 
L 166.022686 248.940424 
L 168.248209 248.940424 
L 168.248209 248.585788 
L 168.663377 248.585788 
L 168.663377 248.231153 
L 169.219673 248.231153 
L 169.319074 247.167247 
L 169.491772 247.167247 
L 169.491772 246.457976 
L 169.952684 246.457976 
L 169.952684 246.103341 
L 170.09592 246.103341 
L 170.09592 245.394071 
L 170.519197 245.394071 
L 170.61198 244.6848 
L 171.47131 244.6848 
L 171.47131 244.330165 
L 172.62865 244.330165 
L 172.62865 243.975529 
L 173.10076 243.975529 
L 173.10076 243.620894 
L 173.914037 243.620894 
L 173.914037 242.911624 
L 174.431028 242.911624 
L 174.431028 239.719906 
L 176.503464 239.719906 
L 176.520373 238.656 
L 177.217177 238.656 
L 177.298436 237.946729 
L 177.508083 237.946729 
L 177.508083 237.592094 
L 177.936177 237.592094 
L 177.951847 236.882824 
L 178.809153 236.882824 
L 178.809153 236.528188 
L 179.941672 236.528188 
L 179.983897 235.109647 
L 180.318334 235.109647 
L 180.318334 234.400376 
L 180.903055 234.400376 
L 180.903055 234.045741 
L 181.67687 234.045741 
L 181.67687 233.691106 
L 181.843176 233.691106 
L 181.843176 233.336471 
L 181.982756 233.336471 
L 181.982756 232.981835 
L 182.296185 232.981835 
L 182.296185 232.6272 
L 182.653338 232.6272 
L 182.653338 232.272565 
L 182.799165 232.272565 
L 182.907797 231.563294 
L 183.488484 231.563294 
L 183.488484 231.208659 
L 183.674278 231.208659 
L 183.674278 230.854024 
L 183.789475 230.854024 
L 183.800956 230.144753 
L 184.499429 230.144753 
L 184.499429 229.790118 
L 184.697447 229.790118 
L 184.697447 229.435482 
L 184.87173 229.435482 
L 184.88257 228.726212 
L 185.119467 228.726212 
L 185.183561 228.016941 
L 185.385096 228.016941 
L 185.385096 227.662306 
L 186.139934 227.662306 
L 186.139934 227.307671 
L 186.391631 227.307671 
L 186.391631 226.953035 
L 186.728623 226.953035 
L 186.728623 226.5984 
L 186.875397 226.5984 
L 186.875397 226.243765 
L 187.13674 226.243765 
L 187.13674 225.889129 
L 187.337526 225.889129 
L 187.356538 224.825224 
L 187.479644 224.825224 
L 187.5456 224.115953 
L 187.704822 224.115953 
L 187.807135 220.5696 
L 187.991745 220.5696 
L 187.991745 220.214965 
L 188.156358 220.214965 
L 188.247192 218.796424 
L 188.454459 218.796424 
L 188.463419 217.732518 
L 188.632853 217.732518 
L 188.632853 217.377882 
L 188.844717 217.377882 
L 188.897312 215.959341 
L 189.054221 215.959341 
L 189.054221 215.604706 
L 189.270002 215.604706 
L 189.312863 213.122259 
L 189.466358 213.122259 
L 189.517246 209.575906 
L 189.643866 209.575906 
L 189.711051 206.738824 
L 189.869658 206.738824 
L 189.886276 205.674918 
L 190.026939 205.674918 
L 190.084555 202.4832 
L 190.182916 202.4832 
L 190.182916 201.064659 
L 190.31327 201.064659 
L 190.31327 200.710024 
L 190.474951 200.710024 
L 190.474951 199.291482 
L 190.643235 199.291482 
L 190.738725 196.809035 
L 190.841629 196.809035 
L 190.904676 194.326588 
L 191.030139 194.326588 
L 191.115912 191.844141 
L 191.1858 191.844141 
L 191.294001 189.007059 
L 191.301706 189.007059 
L 191.309408 187.588518 
L 191.424558 187.588518 
L 191.508555 185.815341 
L 191.599763 185.815341 
L 191.705616 179.077271 
L 191.780862 179.077271 
L 191.855809 176.949459 
L 191.952795 176.949459 
L 192.027061 174.821647 
L 192.130543 174.821647 
L 192.226127 173.048471 
L 192.25544 173.048471 
L 192.343105 170.920659 
L 192.386785 170.920659 
L 192.488313 168.792847 
L 192.502772 168.792847 
L 192.553292 167.374306 
L 192.632408 167.374306 
L 192.66826 164.891859 
L 192.803878 164.891859 
L 192.889031 162.054776 
L 192.931463 162.054776 
L 193.016041 160.636235 
L 193.072216 160.636235 
L 193.072216 160.2816 
L 193.191033 160.2816 
L 193.260577 158.508424 
L 193.309105 158.508424 
L 193.405787 154.962071 
L 193.447071 154.962071 
L 193.549885 152.479624 
L 193.590854 152.479624 
L 193.692888 145.741553 
L 193.760604 145.741553 
L 193.868445 142.904471 
L 193.89531 142.904471 
L 193.975672 141.840565 
L 194.009056 141.840565 
L 194.055693 140.422024 
L 194.148623 140.422024 
L 194.194916 138.294212 
L 194.293734 138.294212 
L 194.359325 136.875671 
L 194.470308 136.875671 
L 194.554737 132.974682 
L 194.58711 132.974682 
L 194.696761 128.009788 
L 194.722468 128.009788 
L 194.831336 126.591247 
L 194.850482 126.591247 
L 194.92052 125.172706 
L 194.977631 125.172706 
L 195.085035 120.562447 
L 195.116509 120.562447 
L 195.223125 119.143906 
L 195.27309 119.143906 
L 195.378825 116.306824 
L 195.385027 116.306824 
L 195.477801 114.179012 
L 195.508625 114.179012 
L 195.619173 112.405835 
L 195.661989 112.405835 
L 195.753411 109.214118 
L 195.820172 109.214118 
L 195.910831 106.0224 
L 195.934933 106.0224 
L 196.025041 103.894588 
L 196.120683 103.894588 
L 196.227702 101.057506 
L 196.245479 101.057506 
L 196.298711 99.638965 
L 196.357682 99.638965 
L 196.439931 98.575059 
L 196.492616 98.575059 
L 196.574279 97.511153 
L 196.609169 97.511153 
L 196.690328 93.610165 
L 196.725004 93.610165 
L 196.817161 92.191624 
L 196.914586 92.191624 
L 196.983054 88.999906 
L 197.028561 88.999906 
L 197.119247 87.581365 
L 197.14185 87.581365 
L 197.248846 82.971106 
L 197.254461 82.971106 
L 197.36082 80.843294 
L 197.366401 80.843294 
L 197.455477 78.360847 
L 197.510935 78.360847 
L 197.571752 75.8784 
L 197.648871 75.8784 
L 197.758496 73.750588 
L 197.791259 73.750588 
L 197.900059 69.140329 
L 197.916325 69.140329 
L 197.986649 67.012518 
L 198.072842 67.012518 
L 198.18003 65.593976 
L 198.233396 65.593976 
L 198.329076 63.8208 
L 198.371444 63.8208 
L 198.471688 61.338353 
L 198.60278 61.338353 
L 198.670588 59.919812 
L 198.758893 59.919812 
L 198.795134 58.855906 
L 198.929134 58.855906 
L 199.006011 57.082729 
L 199.046883 57.082729 
L 199.138523 54.954918 
L 199.189241 54.954918 
L 199.275151 53.536376 
L 199.345606 53.536376 
L 199.345606 53.181741 
L 199.540494 53.181741 
L 199.540494 52.827106 
L 199.733384 52.827106 
L 199.841328 51.7632 
L 199.97782 51.7632 
L 200.084374 50.344659 
L 200.089203 50.344659 
L 200.180721 48.571482 
L 200.281356 48.571482 
L 200.390961 47.862212 
L 200.471565 47.862212 
L 200.537687 47.152941 
L 200.655186 47.152941 
L 200.711326 46.443671 
L 200.795223 46.443671 
L 200.813816 45.7344 
L 201.01254 45.7344 
L 201.01254 45.379765 
L 201.140821 45.379765 
L 201.19098 44.315859 
L 201.268234 44.315859 
L 201.372253 43.251953 
L 201.421799 43.251953 
L 201.493633 42.542682 
L 201.56073 42.542682 
L 201.614235 41.124141 
L 201.734068 41.124141 
L 201.822344 40.414871 
L 201.848746 40.414871 
L 201.949613 39.7056 
L 202.010746 39.7056 
L 202.071681 38.641694 
L 202.261917 38.641694 
L 202.334905 37.932424 
L 202.377707 37.932424 
L 202.377707 37.577788 
L 202.55642 37.577788 
L 202.55642 37.223153 
L 202.754416 37.223153 
L 202.812993 36.513882 
L 202.900518 36.513882 
L 202.966931 35.804612 
L 203.078475 35.804612 
L 203.078475 35.449976 
L 203.44962 35.449976 
L 203.502048 34.740706 
L 203.662454 34.740706 
L 203.738171 34.031435 
L 203.7779 34.031435 
L 203.7779 33.6768 
L 203.916293 33.6768 
L 203.916293 33.322165 
L 204.053676 33.322165 
L 204.131732 32.258259 
L 204.49432 32.258259 
L 204.54773 31.548988 
L 204.691938 31.548988 
L 204.691938 31.194353 
L 204.846302 31.194353 
L 204.846302 30.839718 
L 205.084756 30.839718 
L 205.084756 30.485082 
L 205.243287 30.485082 
L 205.243287 30.130447 
L 205.821704 30.130447 
L 205.87503 29.421176 
L 207.220875 29.421176 
L 207.220875 29.066541 
L 207.463863 29.066541 
L 207.463863 28.711906 
L 207.632752 28.711906 
L 207.632752 28.357271 
L 208.980128 28.357271 
L 208.980128 28.002635 
L 209.165819 28.002635 
L 209.165819 27.648 
L 360.8064 27.648 
L 360.8064 27.648 
" style="fill:none;stroke:#ff7500;stroke-linecap:square;stroke-width:1.5;"/>
   </g>
   <g id="line2d_45">
    <defs>
     <path d="M 0 -6 
L -1.347084 -1.854102 
L -5.706339 -1.854102 
L -2.179628 0.708204 
L -3.526712 4.854102 
L -0 2.291796 
L 3.526712 4.854102 
L 2.179628 0.708204 
L 5.706339 -1.854102 
L 1.347084 -1.854102 
z
" id="mda72b8a80c" style="stroke:#ff7500;stroke-linejoin:bevel;stroke-width:1.5;"/>
    </defs>
    <g>
     <use style="fill-opacity:0;stroke:#ff7500;stroke-linejoin:bevel;stroke-width:1.5;" x="185.119467" xlink:href="#mda72b8a80c" y="228.726212"/>
     <use style="fill-opacity:0;stroke:#ff7500;stroke-linejoin:bevel;stroke-width:1.5;" x="196.245479" xlink:href="#mda72b8a80c" y="100.702871"/>
     <use style="fill-opacity:0;stroke:#ff7500;stroke-linejoin:bevel;stroke-width:1.5;" x="209.165819" xlink:href="#mda72b8a80c" y="27.648"/>
     <use style="fill-opacity:0;stroke:#ff7500;stroke-linejoin:bevel;stroke-width:1.5;" x="209.165819" xlink:href="#mda72b8a80c" y="27.648"/>
     <use style="fill-opacity:0;stroke:#ff7500;stroke-linejoin:bevel;stroke-width:1.5;" x="360.8064" xlink:href="#mda72b8a80c" y="27.648"/>
    </g>
   </g>
   <g id="line2d_46">
    <path style="fill:none;stroke:#ff7500;stroke-linecap:square;stroke-width:1.5;"/>
    <g/>
   </g>
   <g id="line2d_47">
    <path clip-path="url(#pa2583e7835)" d="M 154.322673 268.090729 
" style="fill:none;stroke:#ff7500;stroke-linecap:square;stroke-width:1.5;"/>
    <defs>
     <path d="M -12 12 
L 12 -12 
M -12 -12 
L 12 12 
" id="m276c3bcdc1" style="stroke:#ff7500;"/>
    </defs>
    <g clip-path="url(#pa2583e7835)">
     <use style="fill:#ff7500;stroke:#ff7500;" x="154.322673" xlink:href="#m276c3bcdc1" y="268.090729"/>
    </g>
   </g>
   <g id="line2d_48">
    <path d="M 360.8064 27.648 
L 380.514816 293.51808 
" style="fill:none;stroke:#000080;stroke-linecap:square;stroke-width:1.5;"/>
    <g>
     <use style="fill-opacity:0;stroke:#000080;stroke-width:1.5;" x="360.8064" xlink:href="#m782757eb3d" y="27.648"/>
     <use style="fill-opacity:0;stroke:#000080;stroke-width:1.5;" x="380.514816" xlink:href="#m782757eb3d" y="293.51808"/>
    </g>
   </g>
   <g id="line2d_49">
    <path d="M 360.8064 27.648 
L 380.514816 206.70336 
" style="fill:none;stroke:#ff7500;stroke-linecap:square;stroke-width:1.5;"/>
    <g>
     <use style="fill-opacity:0;stroke:#ff7500;stroke-linejoin:bevel;stroke-width:1.5;" x="360.8064" xlink:href="#mda72b8a80c" y="27.648"/>
     <use style="fill-opacity:0;stroke:#ff7500;stroke-linejoin:bevel;stroke-width:1.5;" x="380.514816" xlink:href="#mda72b8a80c" y="206.70336"/>
    </g>
   </g>
   <g id="line2d_50">
    <path d="M 360.8064 27.648 
L 380.514816 119.88864 
" style="fill:none;stroke:#ff00ff;stroke-linecap:square;stroke-width:1.5;"/>
    <g>
     <use style="fill-opacity:0;stroke:#ff00ff;stroke-linejoin:miter;stroke-width:1.5;" x="360.8064" xlink:href="#mb9a9f7a739" y="27.648"/>
     <use style="fill-opacity:0;stroke:#ff00ff;stroke-linejoin:miter;stroke-width:1.5;" x="380.514816" xlink:href="#mb9a9f7a739" y="119.88864"/>
    </g>
   </g>
   <g id="line2d_51">
    <path d="M 360.8064 298.944 
L 360.8064 27.648 
" style="fill:none;stroke:#000000;stroke-linecap:square;stroke-width:1.5;"/>
   </g>
   <g id="patch_3">
    <path d="M 57.6 298.944 
L 360.8064 298.944 
" style="fill:none;stroke:#000000;stroke-linecap:square;stroke-linejoin:miter;stroke-width:0.8;"/>
   </g>
   <g id="patch_4">
    <path d="M 57.6 27.648 
L 360.8064 27.648 
" style="fill:none;stroke:#000000;stroke-linecap:square;stroke-linejoin:miter;stroke-width:0.8;"/>
   </g>
   <g id="text_13">
    <!-- different -->
    <g transform="translate(386.578944 297.381205)scale(0.14 -0.14)">
     <use xlink:href="#DejaVuSans-64"/>
     <use x="63.476562" xlink:href="#DejaVuSans-69"/>
     <use x="91.259766" xlink:href="#DejaVuSans-66"/>
     <use x="126.464844" xlink:href="#DejaVuSans-66"/>
     <use x="161.669922" xlink:href="#DejaVuSans-65"/>
     <use x="223.193359" xlink:href="#DejaVuSans-72"/>
     <use x="262.056641" xlink:href="#DejaVuSans-65"/>
     <use x="323.580078" xlink:href="#DejaVuSans-6e"/>
     <use x="386.958984" xlink:href="#DejaVuSans-74"/>
    </g>
   </g>
   <g id="text_14">
    <!-- diffcma b -->
    <g transform="translate(386.578944 210.566485)scale(0.14 -0.14)">
     <defs>
      <path d="M 3116 1747 
Q 3116 2381 2855 2742 
Q 2594 3103 2138 3103 
Q 1681 3103 1420 2742 
Q 1159 2381 1159 1747 
Q 1159 1113 1420 752 
Q 1681 391 2138 391 
Q 2594 391 2855 752 
Q 3116 1113 3116 1747 
z
M 1159 2969 
Q 1341 3281 1617 3432 
Q 1894 3584 2278 3584 
Q 2916 3584 3314 3078 
Q 3713 2572 3713 1747 
Q 3713 922 3314 415 
Q 2916 -91 2278 -91 
Q 1894 -91 1617 61 
Q 1341 213 1159 525 
L 1159 0 
L 581 0 
L 581 4863 
L 1159 4863 
L 1159 2969 
z
" id="DejaVuSans-62" transform="scale(0.015625)"/>
     </defs>
     <use xlink:href="#DejaVuSans-64"/>
     <use x="63.476562" xlink:href="#DejaVuSans-69"/>
     <use x="91.259766" xlink:href="#DejaVuSans-66"/>
     <use x="126.464844" xlink:href="#DejaVuSans-66"/>
     <use x="161.669922" xlink:href="#DejaVuSans-63"/>
     <use x="216.650391" xlink:href="#DejaVuSans-6d"/>
     <use x="314.0625" xlink:href="#DejaVuSans-61"/>
     <use x="375.341797" xlink:href="#DejaVuSans-20"/>
     <use x="407.128906" xlink:href="#DejaVuSans-62"/>
    </g>
   </g>
   <g id="text_15">
    <!-- cma.fmin  -->
    <g transform="translate(386.578944 123.751765)scale(0.14 -0.14)">
     <use xlink:href="#DejaVuSans-63"/>
     <use x="54.980469" xlink:href="#DejaVuSans-6d"/>
     <use x="152.392578" xlink:href="#DejaVuSans-61"/>
     <use x="213.671875" xlink:href="#DejaVuSans-2e"/>
     <use x="245.458984" xlink:href="#DejaVuSans-66"/>
     <use x="280.664062" xlink:href="#DejaVuSans-6d"/>
     <use x="378.076172" xlink:href="#DejaVuSans-69"/>
     <use x="405.859375" xlink:href="#DejaVuSans-6e"/>
     <use x="469.238281" xlink:href="#DejaVuSans-20"/>
    </g>
   </g>
   <g id="text_16">
    <!-- best 2009 -->
    <g transform="translate(386.578944 36.937045)scale(0.14 -0.14)">
     <defs>
      <path d="M 703 97 
L 703 672 
Q 941 559 1184 500 
Q 1428 441 1663 441 
Q 2288 441 2617 861 
Q 2947 1281 2994 2138 
Q 2813 1869 2534 1725 
Q 2256 1581 1919 1581 
Q 1219 1581 811 2004 
Q 403 2428 403 3163 
Q 403 3881 828 4315 
Q 1253 4750 1959 4750 
Q 2769 4750 3195 4129 
Q 3622 3509 3622 2328 
Q 3622 1225 3098 567 
Q 2575 -91 1691 -91 
Q 1453 -91 1209 -44 
Q 966 3 703 97 
z
M 1959 2075 
Q 2384 2075 2632 2365 
Q 2881 2656 2881 3163 
Q 2881 3666 2632 3958 
Q 2384 4250 1959 4250 
Q 1534 4250 1286 3958 
Q 1038 3666 1038 3163 
Q 1038 2656 1286 2365 
Q 1534 2075 1959 2075 
z
" id="DejaVuSans-39" transform="scale(0.015625)"/>
     </defs>
     <use xlink:href="#DejaVuSans-62"/>
     <use x="63.476562" xlink:href="#DejaVuSans-65"/>
     <use x="125" xlink:href="#DejaVuSans-73"/>
     <use x="177.099609" xlink:href="#DejaVuSans-74"/>
     <use x="216.308594" xlink:href="#DejaVuSans-20"/>
     <use x="248.095703" xlink:href="#DejaVuSans-32"/>
     <use x="311.71875" xlink:href="#DejaVuSans-30"/>
     <use x="375.341797" xlink:href="#DejaVuSans-30"/>
     <use x="438.964844" xlink:href="#DejaVuSans-39"/>
    </g>
   </g>
   <g id="text_17">
    <!-- bbob f11, 2-D -->
    <g transform="translate(60.632064 38.111366)scale(0.102 -0.102)">
     <defs>
      <path d="M 1259 4147 
L 1259 519 
L 2022 519 
Q 2988 519 3436 956 
Q 3884 1394 3884 2338 
Q 3884 3275 3436 3711 
Q 2988 4147 2022 4147 
L 1259 4147 
z
M 628 4666 
L 1925 4666 
Q 3281 4666 3915 4102 
Q 4550 3538 4550 2338 
Q 4550 1131 3912 565 
Q 3275 0 1925 0 
L 628 0 
L 628 4666 
z
" id="DejaVuSans-44" transform="scale(0.015625)"/>
     </defs>
     <use xlink:href="#DejaVuSans-62"/>
     <use x="63.476562" xlink:href="#DejaVuSans-62"/>
     <use x="126.953125" xlink:href="#DejaVuSans-6f"/>
     <use x="188.134766" xlink:href="#DejaVuSans-62"/>
     <use x="251.611328" xlink:href="#DejaVuSans-20"/>
     <use x="283.398438" xlink:href="#DejaVuSans-66"/>
     <use x="318.603516" xlink:href="#DejaVuSans-31"/>
     <use x="382.226562" xlink:href="#DejaVuSans-31"/>
     <use x="445.849609" xlink:href="#DejaVuSans-2c"/>
     <use x="477.636719" xlink:href="#DejaVuSans-20"/>
     <use x="509.423828" xlink:href="#DejaVuSans-32"/>
     <use x="573.046875" xlink:href="#DejaVuSans-2d"/>
     <use x="609.130859" xlink:href="#DejaVuSans-44"/>
    </g>
    <!-- 51 targets: 100..1e-08 -->
    <g transform="translate(60.632064 49.533135)scale(0.102 -0.102)">
     <defs>
      <path d="M 691 4666 
L 3169 4666 
L 3169 4134 
L 1269 4134 
L 1269 2991 
Q 1406 3038 1543 3061 
Q 1681 3084 1819 3084 
Q 2600 3084 3056 2656 
Q 3513 2228 3513 1497 
Q 3513 744 3044 326 
Q 2575 -91 1722 -91 
Q 1428 -91 1123 -41 
Q 819 9 494 109 
L 494 744 
Q 775 591 1075 516 
Q 1375 441 1709 441 
Q 2250 441 2565 725 
Q 2881 1009 2881 1497 
Q 2881 1984 2565 2268 
Q 2250 2553 1709 2553 
Q 1456 2553 1204 2497 
Q 953 2441 691 2322 
L 691 4666 
z
" id="DejaVuSans-35" transform="scale(0.015625)"/>
      <path d="M 750 794 
L 1409 794 
L 1409 0 
L 750 0 
L 750 794 
z
M 750 3309 
L 1409 3309 
L 1409 2516 
L 750 2516 
L 750 3309 
z
" id="DejaVuSans-3a" transform="scale(0.015625)"/>
     </defs>
     <use xlink:href="#DejaVuSans-35"/>
     <use x="63.623047" xlink:href="#DejaVuSans-31"/>
     <use x="127.246094" xlink:href="#DejaVuSans-20"/>
     <use x="159.033203" xlink:href="#DejaVuSans-74"/>
     <use x="198.242188" xlink:href="#DejaVuSans-61"/>
     <use x="259.521484" xlink:href="#DejaVuSans-72"/>
     <use x="298.884766" xlink:href="#DejaVuSans-67"/>
     <use x="362.361328" xlink:href="#DejaVuSans-65"/>
     <use x="423.884766" xlink:href="#DejaVuSans-74"/>
     <use x="463.09375" xlink:href="#DejaVuSans-73"/>
     <use x="515.193359" xlink:href="#DejaVuSans-3a"/>
     <use x="548.884766" xlink:href="#DejaVuSans-20"/>
     <use x="580.671875" xlink:href="#DejaVuSans-31"/>
     <use x="644.294922" xlink:href="#DejaVuSans-30"/>
     <use x="707.917969" xlink:href="#DejaVuSans-30"/>
     <use x="771.541016" xlink:href="#DejaVuSans-2e"/>
     <use x="803.328125" xlink:href="#DejaVuSans-2e"/>
     <use x="835.115234" xlink:href="#DejaVuSans-31"/>
     <use x="898.738281" xlink:href="#DejaVuSans-65"/>
     <use x="960.261719" xlink:href="#DejaVuSans-2d"/>
     <use x="996.345703" xlink:href="#DejaVuSans-30"/>
     <use x="1059.96875" xlink:href="#DejaVuSans-38"/>
    </g>
    <!-- 15 instances -->
    <g transform="translate(60.632064 60.954904)scale(0.102 -0.102)">
     <use xlink:href="#DejaVuSans-31"/>
     <use x="63.623047" xlink:href="#DejaVuSans-35"/>
     <use x="127.246094" xlink:href="#DejaVuSans-20"/>
     <use x="159.033203" xlink:href="#DejaVuSans-69"/>
     <use x="186.816406" xlink:href="#DejaVuSans-6e"/>
     <use x="250.195312" xlink:href="#DejaVuSans-73"/>
     <use x="302.294922" xlink:href="#DejaVuSans-74"/>
     <use x="341.503906" xlink:href="#DejaVuSans-61"/>
     <use x="402.783203" xlink:href="#DejaVuSans-6e"/>
     <use x="466.162109" xlink:href="#DejaVuSans-63"/>
     <use x="521.142578" xlink:href="#DejaVuSans-65"/>
     <use x="582.666016" xlink:href="#DejaVuSans-73"/>
    </g>
   </g>
   <g id="text_18">
    <!-- v2.6 -->
    <g style="fill:#808080;" transform="translate(198.292262 294.151352)scale(0.1 -0.1)">
     <use xlink:href="#DejaVuSans-76"/>
     <use x="59.179688" xlink:href="#DejaVuSans-32"/>
     <use x="122.802734" xlink:href="#DejaVuSans-2e"/>
     <use x="154.589844" xlink:href="#DejaVuSans-36"/>
    </g>
   </g>
   <g id="text_19">
    <!-- 11 Discus -->
    <g transform="translate(160.567262 21.648)scale(0.2 -0.2)">
     <use xlink:href="#DejaVuSans-31"/>
     <use x="63.623047" xlink:href="#DejaVuSans-31"/>
     <use x="127.246094" xlink:href="#DejaVuSans-20"/>
     <use x="159.033203" xlink:href="#DejaVuSans-44"/>
     <use x="236.035156" xlink:href="#DejaVuSans-69"/>
     <use x="263.818359" xlink:href="#DejaVuSans-73"/>
     <use x="315.917969" xlink:href="#DejaVuSans-63"/>
     <use x="370.898438" xlink:href="#DejaVuSans-75"/>
     <use x="434.277344" xlink:href="#DejaVuSans-73"/>
    </g>
   </g>
  </g>
 </g>
 <defs>
  <clipPath id="pa2583e7835">
   <rect height="271.296" width="303.2064" x="57.6" y="27.648"/>
  </clipPath>
 </defs>
</svg>
