<?xml version="1.0" encoding="utf-8" standalone="no"?>
<!DOCTYPE svg PUBLIC "-//W3C//DTD SVG 1.1//EN"
  "http://www.w3.org/Graphics/SVG/1.1/DTD/svg11.dtd">
<svg height="345.6pt" version="1.1" viewBox="0 0 460.8 345.6" width="460.8pt" xmlns="http://www.w3.org/2000/svg" xmlns:xlink="http://www.w3.org/1999/xlink">
 <metadata>
  <rdf:RDF xmlns:cc="http://creativecommons.org/ns#" xmlns:dc="http://purl.org/dc/elements/1.1/" xmlns:rdf="http://www.w3.org/1999/02/22-rdf-syntax-ns#">
   <cc:Work>
    <dc:type rdf:resource="http://purl.org/dc/dcmitype/StillImage"/>
    <dc:date>2022-05-07T21:25:56.890876</dc:date>
    <dc:format>image/svg+xml</dc:format>
    <dc:creator>
     <cc:Agent>
      <dc:title>Matplotlib v3.4.3, https://matplotlib.org/</dc:title>
     </cc:Agent>
    </dc:creator>
   </cc:Work>
  </rdf:RDF>
 </metadata>
 <defs>
  <style type="text/css">*{stroke-linecap:butt;stroke-linejoin:round;}</style>
 </defs>
 <g id="figure_1">
  <g id="patch_1">
   <path d="M 0 345.6 
L 460.8 345.6 
L 460.8 0 
L 0 0 
z
" style="fill:#ffffff;"/>
  </g>
  <g id="axes_1">
   <g id="patch_2">
    <path d="M 57.6 298.944 
L 360.8064 298.944 
L 360.8064 27.648 
L 57.6 27.648 
z
" style="fill:#ffffff;"/>
   </g>
   <g id="line2d_1">
    <path d="M -1 293.624471 
L 83.678349 293.624471 
L 83.678349 288.304941 
L 90.586777 288.304941 
L 90.586777 282.985412 
L 111.0898 282.985412 
L 111.0898 277.665882 
L 124.373813 277.665882 
L 124.373813 272.346353 
L 139.374701 272.346353 
L 139.374701 267.026824 
L 157.196538 267.026824 
L 157.196538 261.707294 
L 157.811919 261.707294 
L 157.811919 256.387765 
L 163.372716 256.387765 
L 163.372716 251.068235 
L 185.247437 251.068235 
L 185.247437 245.748706 
L 185.269743 245.748706 
L 185.269743 240.429176 
L 233.848058 240.429176 
L 233.848058 235.109647 
L 239.938655 235.109647 
L 239.938655 229.790118 
L 239.939845 229.790118 
L 239.939845 224.470588 
L 239.942051 224.470588 
L 239.942051 219.151059 
L 239.947535 219.151059 
L 239.947535 213.831529 
L 239.950378 213.831529 
L 239.950378 208.512 
L 239.954091 208.512 
L 239.954091 203.192471 
L 239.95789 203.192471 
L 239.95789 197.872941 
L 239.962934 197.872941 
L 239.962934 192.553412 
L 239.970876 192.553412 
L 239.970876 187.233882 
L 239.972643 187.233882 
L 239.972643 181.914353 
L 239.977018 181.914353 
L 239.977018 176.594824 
L 239.987964 176.594824 
L 239.987964 171.275294 
L 239.990135 171.275294 
L 239.990135 165.955765 
L 239.994361 165.955765 
L 239.994361 160.636235 
L 240.004748 160.636235 
L 240.004748 155.316706 
L 240.007032 155.316706 
L 240.007032 149.997176 
L 240.011197 149.997176 
L 240.011197 144.677647 
L 240.016227 144.677647 
L 240.016227 139.358118 
L 240.02088 139.358118 
L 240.02088 134.038588 
L 240.027179 134.038588 
L 240.027179 128.719059 
L 240.030992 128.719059 
L 240.030992 123.399529 
L 240.04133 123.399529 
L 240.04133 118.08 
L 240.046093 118.08 
L 240.046093 112.760471 
L 240.048575 112.760471 
L 240.048575 107.440941 
L 240.062161 107.440941 
L 240.062161 102.121412 
L 240.066601 102.121412 
L 240.066601 96.801882 
L 240.068562 96.801882 
L 240.068562 91.482353 
L 240.077092 91.482353 
L 240.077092 86.162824 
L 240.082969 86.162824 
L 240.082969 80.843294 
L 240.085475 80.843294 
L 240.085475 75.523765 
L 240.092962 75.523765 
L 240.092962 70.204235 
L 240.098172 70.204235 
L 240.098172 64.884706 
L 240.105912 64.884706 
L 240.105912 59.565176 
L 240.109968 59.565176 
L 240.109968 54.245647 
L 240.11319 54.245647 
L 240.11319 48.926118 
L 240.122074 48.926118 
L 240.122074 43.606588 
L 240.124172 43.606588 
L 240.124172 38.287059 
L 240.126414 38.287059 
L 240.126414 32.967529 
L 240.1342 32.967529 
L 240.1342 27.648 
L 360.8064 27.648 
" style="fill:none;stroke:#f5deb3;stroke-linecap:square;stroke-width:4;"/>
   </g>
   <g id="line2d_2">
    <defs>
     <path d="M -0 7.778175 
L 7.778175 0 
L 0 -7.778175 
L -7.778175 -0 
z
" id="m856587ee61" style="stroke:#f5deb3;stroke-linejoin:miter;stroke-width:1.5;"/>
    </defs>
    <g>
     <use style="fill:#f5deb3;stroke:#f5deb3;stroke-linejoin:miter;stroke-width:1.5;" x="124.373813" xlink:href="#m856587ee61" y="272.346353"/>
     <use style="fill:#f5deb3;stroke:#f5deb3;stroke-linejoin:miter;stroke-width:1.5;" x="239.938655" xlink:href="#m856587ee61" y="229.790118"/>
     <use style="fill:#f5deb3;stroke:#f5deb3;stroke-linejoin:miter;stroke-width:1.5;" x="240.046093" xlink:href="#m856587ee61" y="112.760471"/>
     <use style="fill:#f5deb3;stroke:#f5deb3;stroke-linejoin:miter;stroke-width:1.5;" x="240.1342" xlink:href="#m856587ee61" y="32.967529"/>
     <use style="fill:#f5deb3;stroke:#f5deb3;stroke-linejoin:miter;stroke-width:1.5;" x="240.1342" xlink:href="#m856587ee61" y="27.648"/>
     <use style="fill:#f5deb3;stroke:#f5deb3;stroke-linejoin:miter;stroke-width:1.5;" x="360.8064" xlink:href="#m856587ee61" y="27.648"/>
    </g>
   </g>
   <g id="line2d_3">
    <path style="fill:none;stroke:#f5deb3;stroke-linecap:square;stroke-width:4;"/>
    <g/>
   </g>
   <g id="line2d_4">
    <path d="M 360.8064 27.648 
L 380.514816 33.07392 
" style="fill:none;stroke:#f5deb3;stroke-linecap:square;stroke-width:4;"/>
    <g>
     <use style="fill:#f5deb3;stroke:#f5deb3;stroke-linejoin:miter;stroke-width:1.5;" x="360.8064" xlink:href="#m856587ee61" y="27.648"/>
     <use style="fill:#f5deb3;stroke:#f5deb3;stroke-linejoin:miter;stroke-width:1.5;" x="380.514816" xlink:href="#m856587ee61" y="33.07392"/>
    </g>
   </g>
   <g id="matplotlib.axis_1">
    <g id="xtick_1">
     <g id="line2d_5">
      <path clip-path="url(#pc6e5461536)" d="M 57.6 298.944 
L 57.6 27.648 
" style="fill:none;stroke:#b0b0b0;stroke-linecap:square;stroke-width:0.8;"/>
     </g>
     <g id="line2d_6">
      <defs>
       <path d="M 0 0 
L 0 3.5 
" id="mb20de0d8db" style="stroke:#000000;stroke-width:0.8;"/>
      </defs>
      <g>
       <use style="stroke:#000000;stroke-width:0.8;" x="57.6" xlink:href="#mb20de0d8db" y="298.944"/>
      </g>
     </g>
     <g id="text_1">
      <!-- 0 -->
      <g transform="translate(52.191875 318.861344)scale(0.17 -0.17)">
       <defs>
        <path d="M 2034 4250 
Q 1547 4250 1301 3770 
Q 1056 3291 1056 2328 
Q 1056 1369 1301 889 
Q 1547 409 2034 409 
Q 2525 409 2770 889 
Q 3016 1369 3016 2328 
Q 3016 3291 2770 3770 
Q 2525 4250 2034 4250 
z
M 2034 4750 
Q 2819 4750 3233 4129 
Q 3647 3509 3647 2328 
Q 3647 1150 3233 529 
Q 2819 -91 2034 -91 
Q 1250 -91 836 529 
Q 422 1150 422 2328 
Q 422 3509 836 4129 
Q 1250 4750 2034 4750 
z
" id="DejaVuSans-30" transform="scale(0.015625)"/>
       </defs>
       <use xlink:href="#DejaVuSans-30"/>
      </g>
     </g>
    </g>
    <g id="xtick_2">
     <g id="line2d_7">
      <path clip-path="url(#pc6e5461536)" d="M 144.2304 298.944 
L 144.2304 27.648 
" style="fill:none;stroke:#b0b0b0;stroke-linecap:square;stroke-width:0.8;"/>
     </g>
     <g id="line2d_8">
      <g>
       <use style="stroke:#000000;stroke-width:0.8;" x="144.2304" xlink:href="#mb20de0d8db" y="298.944"/>
      </g>
     </g>
     <g id="text_2">
      <!-- 2 -->
      <g transform="translate(138.822275 318.861344)scale(0.17 -0.17)">
       <defs>
        <path d="M 1228 531 
L 3431 531 
L 3431 0 
L 469 0 
L 469 531 
Q 828 903 1448 1529 
Q 2069 2156 2228 2338 
Q 2531 2678 2651 2914 
Q 2772 3150 2772 3378 
Q 2772 3750 2511 3984 
Q 2250 4219 1831 4219 
Q 1534 4219 1204 4116 
Q 875 4013 500 3803 
L 500 4441 
Q 881 4594 1212 4672 
Q 1544 4750 1819 4750 
Q 2544 4750 2975 4387 
Q 3406 4025 3406 3419 
Q 3406 3131 3298 2873 
Q 3191 2616 2906 2266 
Q 2828 2175 2409 1742 
Q 1991 1309 1228 531 
z
" id="DejaVuSans-32" transform="scale(0.015625)"/>
       </defs>
       <use xlink:href="#DejaVuSans-32"/>
      </g>
     </g>
    </g>
    <g id="xtick_3">
     <g id="line2d_9">
      <path clip-path="url(#pc6e5461536)" d="M 230.8608 298.944 
L 230.8608 27.648 
" style="fill:none;stroke:#b0b0b0;stroke-linecap:square;stroke-width:0.8;"/>
     </g>
     <g id="line2d_10">
      <g>
       <use style="stroke:#000000;stroke-width:0.8;" x="230.8608" xlink:href="#mb20de0d8db" y="298.944"/>
      </g>
     </g>
     <g id="text_3">
      <!-- 4 -->
      <g transform="translate(225.452675 318.861344)scale(0.17 -0.17)">
       <defs>
        <path d="M 2419 4116 
L 825 1625 
L 2419 1625 
L 2419 4116 
z
M 2253 4666 
L 3047 4666 
L 3047 1625 
L 3713 1625 
L 3713 1100 
L 3047 1100 
L 3047 0 
L 2419 0 
L 2419 1100 
L 313 1100 
L 313 1709 
L 2253 4666 
z
" id="DejaVuSans-34" transform="scale(0.015625)"/>
       </defs>
       <use xlink:href="#DejaVuSans-34"/>
      </g>
     </g>
    </g>
    <g id="xtick_4">
     <g id="line2d_11">
      <path clip-path="url(#pc6e5461536)" d="M 317.4912 298.944 
L 317.4912 27.648 
" style="fill:none;stroke:#b0b0b0;stroke-linecap:square;stroke-width:0.8;"/>
     </g>
     <g id="line2d_12">
      <g>
       <use style="stroke:#000000;stroke-width:0.8;" x="317.4912" xlink:href="#mb20de0d8db" y="298.944"/>
      </g>
     </g>
     <g id="text_4">
      <!-- 6 -->
      <g transform="translate(312.083075 318.861344)scale(0.17 -0.17)">
       <defs>
        <path d="M 2113 2584 
Q 1688 2584 1439 2293 
Q 1191 2003 1191 1497 
Q 1191 994 1439 701 
Q 1688 409 2113 409 
Q 2538 409 2786 701 
Q 3034 994 3034 1497 
Q 3034 2003 2786 2293 
Q 2538 2584 2113 2584 
z
M 3366 4563 
L 3366 3988 
Q 3128 4100 2886 4159 
Q 2644 4219 2406 4219 
Q 1781 4219 1451 3797 
Q 1122 3375 1075 2522 
Q 1259 2794 1537 2939 
Q 1816 3084 2150 3084 
Q 2853 3084 3261 2657 
Q 3669 2231 3669 1497 
Q 3669 778 3244 343 
Q 2819 -91 2113 -91 
Q 1303 -91 875 529 
Q 447 1150 447 2328 
Q 447 3434 972 4092 
Q 1497 4750 2381 4750 
Q 2619 4750 2861 4703 
Q 3103 4656 3366 4563 
z
" id="DejaVuSans-36" transform="scale(0.015625)"/>
       </defs>
       <use xlink:href="#DejaVuSans-36"/>
      </g>
     </g>
    </g>
    <g id="xtick_5">
     <g id="line2d_13">
      <path clip-path="url(#pc6e5461536)" d="M 100.9152 298.944 
L 100.9152 27.648 
" style="fill:none;stroke:#b0b0b0;stroke-linecap:square;stroke-width:0.8;"/>
     </g>
     <g id="line2d_14">
      <defs>
       <path d="M 0 0 
L 0 2 
" id="me726bd4448" style="stroke:#000000;stroke-width:0.6;"/>
      </defs>
      <g>
       <use style="stroke:#000000;stroke-width:0.6;" x="100.9152" xlink:href="#me726bd4448" y="298.944"/>
      </g>
     </g>
    </g>
    <g id="xtick_6">
     <g id="line2d_15">
      <path clip-path="url(#pc6e5461536)" d="M 187.5456 298.944 
L 187.5456 27.648 
" style="fill:none;stroke:#b0b0b0;stroke-linecap:square;stroke-width:0.8;"/>
     </g>
     <g id="line2d_16">
      <g>
       <use style="stroke:#000000;stroke-width:0.6;" x="187.5456" xlink:href="#me726bd4448" y="298.944"/>
      </g>
     </g>
    </g>
    <g id="xtick_7">
     <g id="line2d_17">
      <path clip-path="url(#pc6e5461536)" d="M 274.176 298.944 
L 274.176 27.648 
" style="fill:none;stroke:#b0b0b0;stroke-linecap:square;stroke-width:0.8;"/>
     </g>
     <g id="line2d_18">
      <g>
       <use style="stroke:#000000;stroke-width:0.6;" x="274.176" xlink:href="#me726bd4448" y="298.944"/>
      </g>
     </g>
    </g>
    <g id="xtick_8">
     <g id="line2d_19">
      <path clip-path="url(#pc6e5461536)" d="M 360.8064 298.944 
L 360.8064 27.648 
" style="fill:none;stroke:#b0b0b0;stroke-linecap:square;stroke-width:0.8;"/>
     </g>
     <g id="line2d_20">
      <g>
       <use style="stroke:#000000;stroke-width:0.6;" x="360.8064" xlink:href="#me726bd4448" y="298.944"/>
      </g>
     </g>
    </g>
    <g id="text_5">
     <!-- log10(# f-evals / dimension) -->
     <g transform="translate(88.823278 339.314156)scale(0.17 -0.17)">
      <defs>
       <path d="M 603 4863 
L 1178 4863 
L 1178 0 
L 603 0 
L 603 4863 
z
" id="DejaVuSans-6c" transform="scale(0.015625)"/>
       <path d="M 1959 3097 
Q 1497 3097 1228 2736 
Q 959 2375 959 1747 
Q 959 1119 1226 758 
Q 1494 397 1959 397 
Q 2419 397 2687 759 
Q 2956 1122 2956 1747 
Q 2956 2369 2687 2733 
Q 2419 3097 1959 3097 
z
M 1959 3584 
Q 2709 3584 3137 3096 
Q 3566 2609 3566 1747 
Q 3566 888 3137 398 
Q 2709 -91 1959 -91 
Q 1206 -91 779 398 
Q 353 888 353 1747 
Q 353 2609 779 3096 
Q 1206 3584 1959 3584 
z
" id="DejaVuSans-6f" transform="scale(0.015625)"/>
       <path d="M 2906 1791 
Q 2906 2416 2648 2759 
Q 2391 3103 1925 3103 
Q 1463 3103 1205 2759 
Q 947 2416 947 1791 
Q 947 1169 1205 825 
Q 1463 481 1925 481 
Q 2391 481 2648 825 
Q 2906 1169 2906 1791 
z
M 3481 434 
Q 3481 -459 3084 -895 
Q 2688 -1331 1869 -1331 
Q 1566 -1331 1297 -1286 
Q 1028 -1241 775 -1147 
L 775 -588 
Q 1028 -725 1275 -790 
Q 1522 -856 1778 -856 
Q 2344 -856 2625 -561 
Q 2906 -266 2906 331 
L 2906 616 
Q 2728 306 2450 153 
Q 2172 0 1784 0 
Q 1141 0 747 490 
Q 353 981 353 1791 
Q 353 2603 747 3093 
Q 1141 3584 1784 3584 
Q 2172 3584 2450 3431 
Q 2728 3278 2906 2969 
L 2906 3500 
L 3481 3500 
L 3481 434 
z
" id="DejaVuSans-67" transform="scale(0.015625)"/>
       <path d="M 794 531 
L 1825 531 
L 1825 4091 
L 703 3866 
L 703 4441 
L 1819 4666 
L 2450 4666 
L 2450 531 
L 3481 531 
L 3481 0 
L 794 0 
L 794 531 
z
" id="DejaVuSans-31" transform="scale(0.015625)"/>
       <path d="M 1984 4856 
Q 1566 4138 1362 3434 
Q 1159 2731 1159 2009 
Q 1159 1288 1364 580 
Q 1569 -128 1984 -844 
L 1484 -844 
Q 1016 -109 783 600 
Q 550 1309 550 2009 
Q 550 2706 781 3412 
Q 1013 4119 1484 4856 
L 1984 4856 
z
" id="DejaVuSans-28" transform="scale(0.015625)"/>
       <path d="M 3272 2816 
L 2363 2816 
L 2100 1772 
L 3016 1772 
L 3272 2816 
z
M 2803 4594 
L 2478 3297 
L 3391 3297 
L 3719 4594 
L 4219 4594 
L 3897 3297 
L 4872 3297 
L 4872 2816 
L 3775 2816 
L 3519 1772 
L 4513 1772 
L 4513 1294 
L 3397 1294 
L 3072 0 
L 2572 0 
L 2894 1294 
L 1978 1294 
L 1656 0 
L 1153 0 
L 1478 1294 
L 494 1294 
L 494 1772 
L 1594 1772 
L 1856 2816 
L 850 2816 
L 850 3297 
L 1978 3297 
L 2297 4594 
L 2803 4594 
z
" id="DejaVuSans-23" transform="scale(0.015625)"/>
       <path id="DejaVuSans-20" transform="scale(0.015625)"/>
       <path d="M 2375 4863 
L 2375 4384 
L 1825 4384 
Q 1516 4384 1395 4259 
Q 1275 4134 1275 3809 
L 1275 3500 
L 2222 3500 
L 2222 3053 
L 1275 3053 
L 1275 0 
L 697 0 
L 697 3053 
L 147 3053 
L 147 3500 
L 697 3500 
L 697 3744 
Q 697 4328 969 4595 
Q 1241 4863 1831 4863 
L 2375 4863 
z
" id="DejaVuSans-66" transform="scale(0.015625)"/>
       <path d="M 313 2009 
L 1997 2009 
L 1997 1497 
L 313 1497 
L 313 2009 
z
" id="DejaVuSans-2d" transform="scale(0.015625)"/>
       <path d="M 3597 1894 
L 3597 1613 
L 953 1613 
Q 991 1019 1311 708 
Q 1631 397 2203 397 
Q 2534 397 2845 478 
Q 3156 559 3463 722 
L 3463 178 
Q 3153 47 2828 -22 
Q 2503 -91 2169 -91 
Q 1331 -91 842 396 
Q 353 884 353 1716 
Q 353 2575 817 3079 
Q 1281 3584 2069 3584 
Q 2775 3584 3186 3129 
Q 3597 2675 3597 1894 
z
M 3022 2063 
Q 3016 2534 2758 2815 
Q 2500 3097 2075 3097 
Q 1594 3097 1305 2825 
Q 1016 2553 972 2059 
L 3022 2063 
z
" id="DejaVuSans-65" transform="scale(0.015625)"/>
       <path d="M 191 3500 
L 800 3500 
L 1894 563 
L 2988 3500 
L 3597 3500 
L 2284 0 
L 1503 0 
L 191 3500 
z
" id="DejaVuSans-76" transform="scale(0.015625)"/>
       <path d="M 2194 1759 
Q 1497 1759 1228 1600 
Q 959 1441 959 1056 
Q 959 750 1161 570 
Q 1363 391 1709 391 
Q 2188 391 2477 730 
Q 2766 1069 2766 1631 
L 2766 1759 
L 2194 1759 
z
M 3341 1997 
L 3341 0 
L 2766 0 
L 2766 531 
Q 2569 213 2275 61 
Q 1981 -91 1556 -91 
Q 1019 -91 701 211 
Q 384 513 384 1019 
Q 384 1609 779 1909 
Q 1175 2209 1959 2209 
L 2766 2209 
L 2766 2266 
Q 2766 2663 2505 2880 
Q 2244 3097 1772 3097 
Q 1472 3097 1187 3025 
Q 903 2953 641 2809 
L 641 3341 
Q 956 3463 1253 3523 
Q 1550 3584 1831 3584 
Q 2591 3584 2966 3190 
Q 3341 2797 3341 1997 
z
" id="DejaVuSans-61" transform="scale(0.015625)"/>
       <path d="M 2834 3397 
L 2834 2853 
Q 2591 2978 2328 3040 
Q 2066 3103 1784 3103 
Q 1356 3103 1142 2972 
Q 928 2841 928 2578 
Q 928 2378 1081 2264 
Q 1234 2150 1697 2047 
L 1894 2003 
Q 2506 1872 2764 1633 
Q 3022 1394 3022 966 
Q 3022 478 2636 193 
Q 2250 -91 1575 -91 
Q 1294 -91 989 -36 
Q 684 19 347 128 
L 347 722 
Q 666 556 975 473 
Q 1284 391 1588 391 
Q 1994 391 2212 530 
Q 2431 669 2431 922 
Q 2431 1156 2273 1281 
Q 2116 1406 1581 1522 
L 1381 1569 
Q 847 1681 609 1914 
Q 372 2147 372 2553 
Q 372 3047 722 3315 
Q 1072 3584 1716 3584 
Q 2034 3584 2315 3537 
Q 2597 3491 2834 3397 
z
" id="DejaVuSans-73" transform="scale(0.015625)"/>
       <path d="M 1625 4666 
L 2156 4666 
L 531 -594 
L 0 -594 
L 1625 4666 
z
" id="DejaVuSans-2f" transform="scale(0.015625)"/>
       <path d="M 2906 2969 
L 2906 4863 
L 3481 4863 
L 3481 0 
L 2906 0 
L 2906 525 
Q 2725 213 2448 61 
Q 2172 -91 1784 -91 
Q 1150 -91 751 415 
Q 353 922 353 1747 
Q 353 2572 751 3078 
Q 1150 3584 1784 3584 
Q 2172 3584 2448 3432 
Q 2725 3281 2906 2969 
z
M 947 1747 
Q 947 1113 1208 752 
Q 1469 391 1925 391 
Q 2381 391 2643 752 
Q 2906 1113 2906 1747 
Q 2906 2381 2643 2742 
Q 2381 3103 1925 3103 
Q 1469 3103 1208 2742 
Q 947 2381 947 1747 
z
" id="DejaVuSans-64" transform="scale(0.015625)"/>
       <path d="M 603 3500 
L 1178 3500 
L 1178 0 
L 603 0 
L 603 3500 
z
M 603 4863 
L 1178 4863 
L 1178 4134 
L 603 4134 
L 603 4863 
z
" id="DejaVuSans-69" transform="scale(0.015625)"/>
       <path d="M 3328 2828 
Q 3544 3216 3844 3400 
Q 4144 3584 4550 3584 
Q 5097 3584 5394 3201 
Q 5691 2819 5691 2113 
L 5691 0 
L 5113 0 
L 5113 2094 
Q 5113 2597 4934 2840 
Q 4756 3084 4391 3084 
Q 3944 3084 3684 2787 
Q 3425 2491 3425 1978 
L 3425 0 
L 2847 0 
L 2847 2094 
Q 2847 2600 2669 2842 
Q 2491 3084 2119 3084 
Q 1678 3084 1418 2786 
Q 1159 2488 1159 1978 
L 1159 0 
L 581 0 
L 581 3500 
L 1159 3500 
L 1159 2956 
Q 1356 3278 1631 3431 
Q 1906 3584 2284 3584 
Q 2666 3584 2933 3390 
Q 3200 3197 3328 2828 
z
" id="DejaVuSans-6d" transform="scale(0.015625)"/>
       <path d="M 3513 2113 
L 3513 0 
L 2938 0 
L 2938 2094 
Q 2938 2591 2744 2837 
Q 2550 3084 2163 3084 
Q 1697 3084 1428 2787 
Q 1159 2491 1159 1978 
L 1159 0 
L 581 0 
L 581 3500 
L 1159 3500 
L 1159 2956 
Q 1366 3272 1645 3428 
Q 1925 3584 2291 3584 
Q 2894 3584 3203 3211 
Q 3513 2838 3513 2113 
z
" id="DejaVuSans-6e" transform="scale(0.015625)"/>
       <path d="M 513 4856 
L 1013 4856 
Q 1481 4119 1714 3412 
Q 1947 2706 1947 2009 
Q 1947 1309 1714 600 
Q 1481 -109 1013 -844 
L 513 -844 
Q 928 -128 1133 580 
Q 1338 1288 1338 2009 
Q 1338 2731 1133 3434 
Q 928 4138 513 4856 
z
" id="DejaVuSans-29" transform="scale(0.015625)"/>
      </defs>
      <use xlink:href="#DejaVuSans-6c"/>
      <use x="27.783203" xlink:href="#DejaVuSans-6f"/>
      <use x="88.964844" xlink:href="#DejaVuSans-67"/>
      <use x="152.441406" xlink:href="#DejaVuSans-31"/>
      <use x="216.064453" xlink:href="#DejaVuSans-30"/>
      <use x="279.6875" xlink:href="#DejaVuSans-28"/>
      <use x="318.701172" xlink:href="#DejaVuSans-23"/>
      <use x="402.490234" xlink:href="#DejaVuSans-20"/>
      <use x="434.277344" xlink:href="#DejaVuSans-66"/>
      <use x="463.982422" xlink:href="#DejaVuSans-2d"/>
      <use x="500.066406" xlink:href="#DejaVuSans-65"/>
      <use x="561.589844" xlink:href="#DejaVuSans-76"/>
      <use x="620.769531" xlink:href="#DejaVuSans-61"/>
      <use x="682.048828" xlink:href="#DejaVuSans-6c"/>
      <use x="709.832031" xlink:href="#DejaVuSans-73"/>
      <use x="761.931641" xlink:href="#DejaVuSans-20"/>
      <use x="793.71875" xlink:href="#DejaVuSans-2f"/>
      <use x="827.410156" xlink:href="#DejaVuSans-20"/>
      <use x="859.197266" xlink:href="#DejaVuSans-64"/>
      <use x="922.673828" xlink:href="#DejaVuSans-69"/>
      <use x="950.457031" xlink:href="#DejaVuSans-6d"/>
      <use x="1047.869141" xlink:href="#DejaVuSans-65"/>
      <use x="1109.392578" xlink:href="#DejaVuSans-6e"/>
      <use x="1172.771484" xlink:href="#DejaVuSans-73"/>
      <use x="1224.871094" xlink:href="#DejaVuSans-69"/>
      <use x="1252.654297" xlink:href="#DejaVuSans-6f"/>
      <use x="1313.835938" xlink:href="#DejaVuSans-6e"/>
      <use x="1377.214844" xlink:href="#DejaVuSans-29"/>
     </g>
    </g>
   </g>
   <g id="matplotlib.axis_2">
    <g id="ytick_1">
     <g id="line2d_21">
      <path clip-path="url(#pc6e5461536)" d="M 57.6 298.944 
L 360.8064 298.944 
" style="fill:none;stroke:#b0b0b0;stroke-linecap:square;stroke-width:0.8;"/>
     </g>
     <g id="line2d_22">
      <defs>
       <path d="M 0 0 
L -3.5 0 
" id="mc2e9cd1e08" style="stroke:#000000;stroke-width:0.8;"/>
      </defs>
      <g>
       <use style="stroke:#000000;stroke-width:0.8;" x="57.6" xlink:href="#mc2e9cd1e08" y="298.944"/>
      </g>
     </g>
     <g id="text_6">
      <!-- 0.0 -->
      <g transform="translate(25.155 305.02275)scale(0.16 -0.16)">
       <defs>
        <path d="M 684 794 
L 1344 794 
L 1344 0 
L 684 0 
L 684 794 
z
" id="DejaVuSans-2e" transform="scale(0.015625)"/>
       </defs>
       <use xlink:href="#DejaVuSans-30"/>
       <use x="63.623047" xlink:href="#DejaVuSans-2e"/>
       <use x="95.410156" xlink:href="#DejaVuSans-30"/>
      </g>
     </g>
    </g>
    <g id="ytick_2">
     <g id="line2d_23">
      <path clip-path="url(#pc6e5461536)" d="M 57.6 244.6848 
L 360.8064 244.6848 
" style="fill:none;stroke:#b0b0b0;stroke-linecap:square;stroke-width:0.8;"/>
     </g>
     <g id="line2d_24">
      <g>
       <use style="stroke:#000000;stroke-width:0.8;" x="57.6" xlink:href="#mc2e9cd1e08" y="244.6848"/>
      </g>
     </g>
     <g id="text_7">
      <!-- 0.2 -->
      <g transform="translate(25.155 250.76355)scale(0.16 -0.16)">
       <use xlink:href="#DejaVuSans-30"/>
       <use x="63.623047" xlink:href="#DejaVuSans-2e"/>
       <use x="95.410156" xlink:href="#DejaVuSans-32"/>
      </g>
     </g>
    </g>
    <g id="ytick_3">
     <g id="line2d_25">
      <path clip-path="url(#pc6e5461536)" d="M 57.6 190.4256 
L 360.8064 190.4256 
" style="fill:none;stroke:#b0b0b0;stroke-linecap:square;stroke-width:0.8;"/>
     </g>
     <g id="line2d_26">
      <g>
       <use style="stroke:#000000;stroke-width:0.8;" x="57.6" xlink:href="#mc2e9cd1e08" y="190.4256"/>
      </g>
     </g>
     <g id="text_8">
      <!-- 0.4 -->
      <g transform="translate(25.155 196.50435)scale(0.16 -0.16)">
       <use xlink:href="#DejaVuSans-30"/>
       <use x="63.623047" xlink:href="#DejaVuSans-2e"/>
       <use x="95.410156" xlink:href="#DejaVuSans-34"/>
      </g>
     </g>
    </g>
    <g id="ytick_4">
     <g id="line2d_27">
      <path clip-path="url(#pc6e5461536)" d="M 57.6 136.1664 
L 360.8064 136.1664 
" style="fill:none;stroke:#b0b0b0;stroke-linecap:square;stroke-width:0.8;"/>
     </g>
     <g id="line2d_28">
      <g>
       <use style="stroke:#000000;stroke-width:0.8;" x="57.6" xlink:href="#mc2e9cd1e08" y="136.1664"/>
      </g>
     </g>
     <g id="text_9">
      <!-- 0.6 -->
      <g transform="translate(25.155 142.24515)scale(0.16 -0.16)">
       <use xlink:href="#DejaVuSans-30"/>
       <use x="63.623047" xlink:href="#DejaVuSans-2e"/>
       <use x="95.410156" xlink:href="#DejaVuSans-36"/>
      </g>
     </g>
    </g>
    <g id="ytick_5">
     <g id="line2d_29">
      <path clip-path="url(#pc6e5461536)" d="M 57.6 81.9072 
L 360.8064 81.9072 
" style="fill:none;stroke:#b0b0b0;stroke-linecap:square;stroke-width:0.8;"/>
     </g>
     <g id="line2d_30">
      <g>
       <use style="stroke:#000000;stroke-width:0.8;" x="57.6" xlink:href="#mc2e9cd1e08" y="81.9072"/>
      </g>
     </g>
     <g id="text_10">
      <!-- 0.8 -->
      <g transform="translate(25.155 87.98595)scale(0.16 -0.16)">
       <defs>
        <path d="M 2034 2216 
Q 1584 2216 1326 1975 
Q 1069 1734 1069 1313 
Q 1069 891 1326 650 
Q 1584 409 2034 409 
Q 2484 409 2743 651 
Q 3003 894 3003 1313 
Q 3003 1734 2745 1975 
Q 2488 2216 2034 2216 
z
M 1403 2484 
Q 997 2584 770 2862 
Q 544 3141 544 3541 
Q 544 4100 942 4425 
Q 1341 4750 2034 4750 
Q 2731 4750 3128 4425 
Q 3525 4100 3525 3541 
Q 3525 3141 3298 2862 
Q 3072 2584 2669 2484 
Q 3125 2378 3379 2068 
Q 3634 1759 3634 1313 
Q 3634 634 3220 271 
Q 2806 -91 2034 -91 
Q 1263 -91 848 271 
Q 434 634 434 1313 
Q 434 1759 690 2068 
Q 947 2378 1403 2484 
z
M 1172 3481 
Q 1172 3119 1398 2916 
Q 1625 2713 2034 2713 
Q 2441 2713 2670 2916 
Q 2900 3119 2900 3481 
Q 2900 3844 2670 4047 
Q 2441 4250 2034 4250 
Q 1625 4250 1398 4047 
Q 1172 3844 1172 3481 
z
" id="DejaVuSans-38" transform="scale(0.015625)"/>
       </defs>
       <use xlink:href="#DejaVuSans-30"/>
       <use x="63.623047" xlink:href="#DejaVuSans-2e"/>
       <use x="95.410156" xlink:href="#DejaVuSans-38"/>
      </g>
     </g>
    </g>
    <g id="ytick_6">
     <g id="line2d_31">
      <path clip-path="url(#pc6e5461536)" d="M 57.6 27.648 
L 360.8064 27.648 
" style="fill:none;stroke:#b0b0b0;stroke-linecap:square;stroke-width:0.8;"/>
     </g>
     <g id="line2d_32">
      <g>
       <use style="stroke:#000000;stroke-width:0.8;" x="57.6" xlink:href="#mc2e9cd1e08" y="27.648"/>
      </g>
     </g>
     <g id="text_11">
      <!-- 1.0 -->
      <g transform="translate(25.155 33.72675)scale(0.16 -0.16)">
       <use xlink:href="#DejaVuSans-31"/>
       <use x="63.623047" xlink:href="#DejaVuSans-2e"/>
       <use x="95.410156" xlink:href="#DejaVuSans-30"/>
      </g>
     </g>
    </g>
    <g id="text_12">
     <!-- Fraction of function,target pairs -->
     <g transform="translate(17.619531 297.681)rotate(-90)scale(0.17 -0.17)">
      <defs>
       <path d="M 628 4666 
L 3309 4666 
L 3309 4134 
L 1259 4134 
L 1259 2759 
L 3109 2759 
L 3109 2228 
L 1259 2228 
L 1259 0 
L 628 0 
L 628 4666 
z
" id="DejaVuSans-46" transform="scale(0.015625)"/>
       <path d="M 2631 2963 
Q 2534 3019 2420 3045 
Q 2306 3072 2169 3072 
Q 1681 3072 1420 2755 
Q 1159 2438 1159 1844 
L 1159 0 
L 581 0 
L 581 3500 
L 1159 3500 
L 1159 2956 
Q 1341 3275 1631 3429 
Q 1922 3584 2338 3584 
Q 2397 3584 2469 3576 
Q 2541 3569 2628 3553 
L 2631 2963 
z
" id="DejaVuSans-72" transform="scale(0.015625)"/>
       <path d="M 3122 3366 
L 3122 2828 
Q 2878 2963 2633 3030 
Q 2388 3097 2138 3097 
Q 1578 3097 1268 2742 
Q 959 2388 959 1747 
Q 959 1106 1268 751 
Q 1578 397 2138 397 
Q 2388 397 2633 464 
Q 2878 531 3122 666 
L 3122 134 
Q 2881 22 2623 -34 
Q 2366 -91 2075 -91 
Q 1284 -91 818 406 
Q 353 903 353 1747 
Q 353 2603 823 3093 
Q 1294 3584 2113 3584 
Q 2378 3584 2631 3529 
Q 2884 3475 3122 3366 
z
" id="DejaVuSans-63" transform="scale(0.015625)"/>
       <path d="M 1172 4494 
L 1172 3500 
L 2356 3500 
L 2356 3053 
L 1172 3053 
L 1172 1153 
Q 1172 725 1289 603 
Q 1406 481 1766 481 
L 2356 481 
L 2356 0 
L 1766 0 
Q 1100 0 847 248 
Q 594 497 594 1153 
L 594 3053 
L 172 3053 
L 172 3500 
L 594 3500 
L 594 4494 
L 1172 4494 
z
" id="DejaVuSans-74" transform="scale(0.015625)"/>
       <path d="M 544 1381 
L 544 3500 
L 1119 3500 
L 1119 1403 
Q 1119 906 1312 657 
Q 1506 409 1894 409 
Q 2359 409 2629 706 
Q 2900 1003 2900 1516 
L 2900 3500 
L 3475 3500 
L 3475 0 
L 2900 0 
L 2900 538 
Q 2691 219 2414 64 
Q 2138 -91 1772 -91 
Q 1169 -91 856 284 
Q 544 659 544 1381 
z
M 1991 3584 
L 1991 3584 
z
" id="DejaVuSans-75" transform="scale(0.015625)"/>
       <path d="M 750 794 
L 1409 794 
L 1409 256 
L 897 -744 
L 494 -744 
L 750 256 
L 750 794 
z
" id="DejaVuSans-2c" transform="scale(0.015625)"/>
       <path d="M 1159 525 
L 1159 -1331 
L 581 -1331 
L 581 3500 
L 1159 3500 
L 1159 2969 
Q 1341 3281 1617 3432 
Q 1894 3584 2278 3584 
Q 2916 3584 3314 3078 
Q 3713 2572 3713 1747 
Q 3713 922 3314 415 
Q 2916 -91 2278 -91 
Q 1894 -91 1617 61 
Q 1341 213 1159 525 
z
M 3116 1747 
Q 3116 2381 2855 2742 
Q 2594 3103 2138 3103 
Q 1681 3103 1420 2742 
Q 1159 2381 1159 1747 
Q 1159 1113 1420 752 
Q 1681 391 2138 391 
Q 2594 391 2855 752 
Q 3116 1113 3116 1747 
z
" id="DejaVuSans-70" transform="scale(0.015625)"/>
      </defs>
      <use xlink:href="#DejaVuSans-46"/>
      <use x="50.269531" xlink:href="#DejaVuSans-72"/>
      <use x="91.382812" xlink:href="#DejaVuSans-61"/>
      <use x="152.662109" xlink:href="#DejaVuSans-63"/>
      <use x="207.642578" xlink:href="#DejaVuSans-74"/>
      <use x="246.851562" xlink:href="#DejaVuSans-69"/>
      <use x="274.634766" xlink:href="#DejaVuSans-6f"/>
      <use x="335.816406" xlink:href="#DejaVuSans-6e"/>
      <use x="399.195312" xlink:href="#DejaVuSans-20"/>
      <use x="430.982422" xlink:href="#DejaVuSans-6f"/>
      <use x="492.164062" xlink:href="#DejaVuSans-66"/>
      <use x="527.369141" xlink:href="#DejaVuSans-20"/>
      <use x="559.15625" xlink:href="#DejaVuSans-66"/>
      <use x="594.361328" xlink:href="#DejaVuSans-75"/>
      <use x="657.740234" xlink:href="#DejaVuSans-6e"/>
      <use x="721.119141" xlink:href="#DejaVuSans-63"/>
      <use x="776.099609" xlink:href="#DejaVuSans-74"/>
      <use x="815.308594" xlink:href="#DejaVuSans-69"/>
      <use x="843.091797" xlink:href="#DejaVuSans-6f"/>
      <use x="904.273438" xlink:href="#DejaVuSans-6e"/>
      <use x="967.652344" xlink:href="#DejaVuSans-2c"/>
      <use x="999.439453" xlink:href="#DejaVuSans-74"/>
      <use x="1038.648438" xlink:href="#DejaVuSans-61"/>
      <use x="1099.927734" xlink:href="#DejaVuSans-72"/>
      <use x="1139.291016" xlink:href="#DejaVuSans-67"/>
      <use x="1202.767578" xlink:href="#DejaVuSans-65"/>
      <use x="1264.291016" xlink:href="#DejaVuSans-74"/>
      <use x="1303.5" xlink:href="#DejaVuSans-20"/>
      <use x="1335.287109" xlink:href="#DejaVuSans-70"/>
      <use x="1398.763672" xlink:href="#DejaVuSans-61"/>
      <use x="1460.042969" xlink:href="#DejaVuSans-69"/>
      <use x="1487.826172" xlink:href="#DejaVuSans-72"/>
      <use x="1528.939453" xlink:href="#DejaVuSans-73"/>
     </g>
    </g>
   </g>
   <g id="line2d_33">
    <defs>
     <path d="M 0 1.5 
C 0.397805 1.5 0.77937 1.341951 1.06066 1.06066 
C 1.341951 0.77937 1.5 0.397805 1.5 0 
C 1.5 -0.397805 1.341951 -0.77937 1.06066 -1.06066 
C 0.77937 -1.341951 0.397805 -1.5 0 -1.5 
C -0.397805 -1.5 -0.77937 -1.341951 -1.06066 -1.06066 
C -1.341951 -0.77937 -1.5 -0.397805 -1.5 0 
C -1.5 0.397805 -1.341951 0.77937 -1.06066 1.06066 
C -0.77937 1.341951 -0.397805 1.5 0 1.5 
z
" id="m621308c6bc" style="stroke:#f5deb3;"/>
    </defs>
    <g>
     <use style="fill:#f5deb3;stroke:#f5deb3;" x="240.1342" xlink:href="#m621308c6bc" y="27.648"/>
     <use style="fill:#f5deb3;stroke:#f5deb3;" x="240.1342" xlink:href="#m621308c6bc" y="27.648"/>
    </g>
   </g>
   <g id="line2d_34">
    <defs>
     <path d="M 0 1.5 
C 0.397805 1.5 0.77937 1.341951 1.06066 1.06066 
C 1.341951 0.77937 1.5 0.397805 1.5 0 
C 1.5 -0.397805 1.341951 -0.77937 1.06066 -1.06066 
C 0.77937 -1.341951 0.397805 -1.5 0 -1.5 
C -0.397805 -1.5 -0.77937 -1.341951 -1.06066 -1.06066 
C -1.341951 -0.77937 -1.5 -0.397805 -1.5 0 
C -1.5 0.397805 -1.341951 0.77937 -1.06066 1.06066 
C -0.77937 1.341951 -0.397805 1.5 0 1.5 
z
" id="me7cb2becf5" style="stroke:#000080;"/>
    </defs>
    <g>
     <use style="fill:#000080;stroke:#000080;" x="224.627819" xlink:href="#me7cb2becf5" y="240.429176"/>
     <use style="fill:#000080;stroke:#000080;" x="224.627819" xlink:href="#me7cb2becf5" y="240.429176"/>
    </g>
   </g>
   <g id="line2d_35">
    <path d="M -1 293.624471 
L 122.810563 293.624471 
L 122.810563 293.269835 
L 125.615735 293.269835 
L 125.641019 292.560565 
L 127.169086 292.560565 
L 127.169086 292.205929 
L 130.472225 292.205929 
L 130.472225 291.851294 
L 131.313105 291.851294 
L 131.313105 291.496659 
L 131.756402 291.496659 
L 131.756402 291.142024 
L 132.699847 291.142024 
L 132.699847 290.787388 
L 133.264236 290.787388 
L 133.264236 290.432753 
L 133.498651 290.432753 
L 133.498651 290.078118 
L 134.877874 290.078118 
L 134.877874 289.723482 
L 136.89926 289.723482 
L 136.89926 289.368847 
L 137.02384 289.368847 
L 137.106437 288.304941 
L 137.594548 288.304941 
L 137.594548 287.950306 
L 137.727917 287.950306 
L 137.727917 287.595671 
L 137.978741 287.595671 
L 137.978741 287.241035 
L 139.209605 287.241035 
L 139.209605 286.8864 
L 139.417268 286.8864 
L 139.417268 286.531765 
L 139.64668 286.531765 
L 139.682648 285.822494 
L 139.790143 285.822494 
L 139.790143 285.467859 
L 140.411004 285.467859 
L 140.411004 285.113224 
L 140.989692 285.113224 
L 140.989692 284.758588 
L 141.20081 284.758588 
L 141.20081 284.403953 
L 142.043501 284.403953 
L 142.043501 284.049318 
L 142.646521 284.049318 
L 142.646521 283.694682 
L 142.860175 283.694682 
L 142.860175 283.340047 
L 143.652566 283.340047 
L 143.662263 282.630776 
L 144.131379 282.630776 
L 144.131379 282.276141 
L 144.635165 282.276141 
L 144.635165 281.921506 
L 144.836605 281.921506 
L 144.836605 281.566871 
L 145.242042 281.566871 
L 145.242042 281.212235 
L 145.673802 281.212235 
L 145.673802 280.8576 
L 145.924741 280.8576 
L 145.924741 280.502965 
L 146.036154 280.502965 
L 146.112901 279.793694 
L 146.789889 279.793694 
L 146.789889 279.439059 
L 146.937079 279.439059 
L 146.937079 278.729788 
L 147.276108 278.729788 
L 147.276108 278.375153 
L 147.687565 278.375153 
L 147.687565 278.020518 
L 147.94409 278.020518 
L 147.94409 277.665882 
L 148.090215 277.665882 
L 148.090215 277.311247 
L 149.227278 277.311247 
L 149.227278 276.956612 
L 149.385269 276.956612 
L 149.485122 276.247341 
L 149.795539 276.247341 
L 149.795539 275.892706 
L 150.496032 275.892706 
L 150.496032 275.538071 
L 151.053944 275.538071 
L 151.053944 275.183435 
L 151.236297 275.183435 
L 151.236297 274.8288 
L 151.772985 274.8288 
L 151.772985 274.474165 
L 152.25185 274.474165 
L 152.25185 274.119529 
L 152.586584 274.119529 
L 152.586584 273.764894 
L 152.718828 273.764894 
L 152.718828 273.410259 
L 153.354871 273.410259 
L 153.354871 273.055624 
L 154.087439 273.055624 
L 154.087439 272.700988 
L 154.336419 272.700988 
L 154.336419 272.346353 
L 154.576721 272.346353 
L 154.576721 271.991718 
L 154.878186 271.991718 
L 154.878186 271.637082 
L 156.326932 271.637082 
L 156.381243 270.927812 
L 157.864392 270.927812 
L 157.864392 270.573176 
L 158.162743 270.573176 
L 158.162743 270.218541 
L 158.776026 270.218541 
L 158.776026 269.863906 
L 159.666228 269.863906 
L 159.666228 269.509271 
L 159.957918 269.509271 
L 159.982361 268.8 
L 160.393119 268.8 
L 160.393119 268.445365 
L 162.206862 268.445365 
L 162.206862 268.090729 
L 162.558055 268.090729 
L 162.558055 267.736094 
L 162.73474 267.736094 
L 162.73474 267.381459 
L 163.667878 267.381459 
L 163.667878 267.026824 
L 164.614283 267.026824 
L 164.703189 266.317553 
L 166.699908 266.317553 
L 166.699908 265.962918 
L 167.638945 265.962918 
L 167.717371 265.253647 
L 169.593413 265.253647 
L 169.593413 264.899012 
L 170.279333 264.899012 
L 170.349854 264.189741 
L 171.198553 264.189741 
L 171.198553 263.835106 
L 171.512161 263.835106 
L 171.512161 263.480471 
L 171.685611 263.480471 
L 171.685611 263.125835 
L 173.093663 263.125835 
L 173.093663 262.7712 
L 174.486663 262.7712 
L 174.486663 262.416565 
L 175.939371 262.416565 
L 175.939371 262.061929 
L 176.924183 262.061929 
L 176.924183 261.707294 
L 177.393066 261.707294 
L 177.393066 261.352659 
L 177.899302 261.352659 
L 178.004246 260.643388 
L 179.332334 260.643388 
L 179.332334 260.288753 
L 183.142822 260.288753 
L 183.142822 259.934118 
L 183.469219 259.934118 
L 183.469219 259.579482 
L 183.632055 259.579482 
L 183.632055 259.224847 
L 186.545513 259.224847 
L 186.640498 258.515576 
L 189.526137 258.515576 
L 189.609763 257.451671 
L 190.234758 257.451671 
L 190.279546 256.7424 
L 190.560483 256.7424 
L 190.605302 255.678494 
L 191.083598 255.678494 
L 191.083598 255.323859 
L 191.901007 255.323859 
L 192.011118 254.614588 
L 192.443781 254.614588 
L 192.443781 254.259953 
L 193.157212 254.259953 
L 193.157212 253.905318 
L 193.680333 253.905318 
L 193.680333 253.550682 
L 194.140344 253.550682 
L 194.140344 253.196047 
L 196.191206 253.196047 
L 196.191206 252.841412 
L 201.346303 252.841412 
L 201.439109 252.132141 
L 201.649598 252.132141 
L 201.649598 251.422871 
L 201.797889 251.422871 
L 201.797889 250.358965 
L 202.005732 250.358965 
L 202.005732 250.004329 
L 202.181086 250.004329 
L 202.181086 249.649694 
L 202.307246 249.649694 
L 202.307246 249.295059 
L 203.196935 249.295059 
L 203.196935 248.940424 
L 203.603063 248.940424 
L 203.603063 248.585788 
L 203.905062 248.585788 
L 203.905062 248.231153 
L 204.029217 248.231153 
L 204.029217 247.876518 
L 205.085311 247.876518 
L 205.085311 247.521882 
L 207.002647 247.521882 
L 207.002647 247.167247 
L 207.891092 247.167247 
L 207.921684 246.457976 
L 209.157919 246.457976 
L 209.157919 246.103341 
L 209.380805 246.103341 
L 209.380805 245.748706 
L 209.614763 245.748706 
L 209.614763 245.394071 
L 209.905255 245.394071 
L 209.905255 245.039435 
L 211.560391 245.039435 
L 211.560391 244.6848 
L 212.692057 244.6848 
L 212.692057 244.330165 
L 214.352366 244.330165 
L 214.352366 243.975529 
L 216.132369 243.975529 
L 216.132369 243.620894 
L 216.256462 243.620894 
L 216.256462 243.266259 
L 217.109171 243.266259 
L 217.109171 242.556988 
L 217.633418 242.556988 
L 217.633418 242.202353 
L 221.546662 242.202353 
L 221.546662 241.847718 
L 221.970253 241.847718 
L 221.970253 241.493082 
L 223.647823 241.493082 
L 223.647823 241.138447 
L 224.567591 241.138447 
L 224.627819 240.429176 
L 360.8064 240.429176 
L 360.8064 240.429176 
" style="fill:none;stroke:#000080;stroke-linecap:square;stroke-width:1.5;"/>
   </g>
   <g id="line2d_36">
    <defs>
     <path d="M 0 6 
C 1.591219 6 3.117479 5.367802 4.242641 4.242641 
C 5.367802 3.117479 6 1.591219 6 0 
C 6 -1.591219 5.367802 -3.117479 4.242641 -4.242641 
C 3.117479 -5.367802 1.591219 -6 0 -6 
C -1.591219 -6 -3.117479 -5.367802 -4.242641 -4.242641 
C -5.367802 -3.117479 -6 -1.591219 -6 0 
C -6 1.591219 -5.367802 3.117479 -4.242641 4.242641 
C -3.117479 5.367802 -1.591219 6 0 6 
z
" id="m0252b348bc" style="stroke:#000080;stroke-width:1.5;"/>
    </defs>
    <g>
     <use style="fill-opacity:0;stroke:#000080;stroke-width:1.5;" x="196.191206" xlink:href="#m0252b348bc" y="253.196047"/>
     <use style="fill-opacity:0;stroke:#000080;stroke-width:1.5;" x="224.627819" xlink:href="#m0252b348bc" y="240.429176"/>
     <use style="fill-opacity:0;stroke:#000080;stroke-width:1.5;" x="224.627819" xlink:href="#m0252b348bc" y="240.429176"/>
     <use style="fill-opacity:0;stroke:#000080;stroke-width:1.5;" x="360.8064" xlink:href="#m0252b348bc" y="240.429176"/>
    </g>
   </g>
   <g id="line2d_37">
    <path style="fill:none;stroke:#000080;stroke-linecap:square;stroke-width:1.5;"/>
    <g/>
   </g>
   <g id="line2d_38">
    <path clip-path="url(#pc6e5461536)" d="M 187.555003 258.515576 
" style="fill:none;stroke:#000080;stroke-linecap:square;stroke-width:1.5;"/>
    <defs>
     <path d="M -12 12 
L 12 -12 
M -12 -12 
L 12 12 
" id="m737987bfb0" style="stroke:#000080;"/>
    </defs>
    <g clip-path="url(#pc6e5461536)">
     <use style="fill:#000080;stroke:#000080;" x="187.555003" xlink:href="#m737987bfb0" y="258.515576"/>
    </g>
   </g>
   <g id="line2d_39">
    <defs>
     <path d="M 0 1.5 
C 0.397805 1.5 0.77937 1.341951 1.06066 1.06066 
C 1.341951 0.77937 1.5 0.397805 1.5 0 
C 1.5 -0.397805 1.341951 -0.77937 1.06066 -1.06066 
C 0.77937 -1.341951 0.397805 -1.5 0 -1.5 
C -0.397805 -1.5 -0.77937 -1.341951 -1.06066 -1.06066 
C -1.341951 -0.77937 -1.5 -0.397805 -1.5 0 
C -1.5 0.397805 -1.341951 0.77937 -1.06066 1.06066 
C -0.77937 1.341951 -0.397805 1.5 0 1.5 
z
" id="m2f0042413e" style="stroke:#ff00ff;"/>
    </defs>
    <g>
     <use style="fill:#ff00ff;stroke:#ff00ff;" x="233.200355" xlink:href="#m2f0042413e" y="240.429176"/>
     <use style="fill:#ff00ff;stroke:#ff00ff;" x="233.200355" xlink:href="#m2f0042413e" y="240.429176"/>
    </g>
   </g>
   <g id="line2d_40">
    <path d="M -1 293.624471 
L 82.959349 293.624471 
L 82.959349 293.269835 
L 87.969849 293.269835 
L 87.969849 292.9152 
L 89.583256 292.9152 
L 89.583256 292.560565 
L 90.668036 292.560565 
L 90.668036 292.205929 
L 91.46189 292.205929 
L 91.46189 291.851294 
L 92.666241 291.851294 
L 92.666241 291.496659 
L 93.591002 291.496659 
L 93.591002 291.142024 
L 94.735529 291.142024 
L 94.735529 290.787388 
L 95.566055 290.787388 
L 95.566055 290.432753 
L 95.752617 290.432753 
L 95.752617 290.078118 
L 96.361458 290.078118 
L 96.361458 289.723482 
L 97.466628 289.723482 
L 97.466628 289.368847 
L 97.635342 289.368847 
L 97.635342 289.014212 
L 98.403267 289.014212 
L 98.403267 288.659576 
L 100.293669 288.659576 
L 100.293669 288.304941 
L 102.187964 288.304941 
L 102.275664 287.595671 
L 102.319361 287.595671 
L 102.319361 287.241035 
L 102.920695 287.241035 
L 102.920695 286.8864 
L 103.089032 286.8864 
L 103.130882 286.177129 
L 103.666625 286.177129 
L 103.666625 285.822494 
L 104.539892 285.822494 
L 104.539892 285.467859 
L 104.655893 285.467859 
L 104.655893 285.113224 
L 105.150462 285.113224 
L 105.150462 284.403953 
L 105.668924 284.403953 
L 105.705415 283.694682 
L 106.42077 283.694682 
L 106.42077 283.340047 
L 108.542628 283.340047 
L 108.605229 282.630776 
L 108.976522 282.630776 
L 108.976522 282.276141 
L 109.340628 282.276141 
L 109.340628 281.566871 
L 109.69782 281.566871 
L 109.69782 281.212235 
L 109.932235 281.212235 
L 109.932235 280.8576 
L 111.117162 280.8576 
L 111.117162 280.502965 
L 111.280505 280.502965 
L 111.280505 280.148329 
L 111.496112 280.148329 
L 111.496112 279.793694 
L 111.629623 279.793694 
L 111.629623 279.439059 
L 111.893834 279.439059 
L 111.893834 279.084424 
L 112.024561 279.084424 
L 112.024561 278.729788 
L 112.915065 278.729788 
L 112.9647 278.020518 
L 113.693921 278.020518 
L 113.693921 277.665882 
L 113.954374 277.665882 
L 113.954374 276.956612 
L 114.624224 276.956612 
L 114.624224 276.601976 
L 118.524569 276.601976 
L 118.543003 275.892706 
L 119.704027 275.892706 
L 119.704027 275.538071 
L 120.63339 275.538071 
L 120.63339 275.183435 
L 120.9116 275.183435 
L 120.9116 274.8288 
L 122.092135 274.8288 
L 122.092135 274.474165 
L 122.334672 274.474165 
L 122.334672 274.119529 
L 124.735199 274.119529 
L 124.735199 273.764894 
L 125.501533 273.764894 
L 125.501533 273.410259 
L 132.419986 273.410259 
L 132.419986 273.055624 
L 144.941051 273.055624 
L 144.941051 272.700988 
L 145.608355 272.700988 
L 145.652011 271.637082 
L 145.7477 271.637082 
L 145.7477 271.282447 
L 146.450262 271.282447 
L 146.450262 270.927812 
L 146.595975 270.927812 
L 146.595975 270.218541 
L 147.498779 270.218541 
L 147.498779 269.509271 
L 148.734084 269.509271 
L 148.748884 268.8 
L 149.284883 268.8 
L 149.342312 268.090729 
L 150.028491 268.090729 
L 150.028491 267.736094 
L 157.39379 267.736094 
L 157.39379 267.381459 
L 158.383441 267.381459 
L 158.383441 267.026824 
L 158.686825 267.026824 
L 158.686825 266.672188 
L 159.631002 266.672188 
L 159.631002 266.317553 
L 159.783859 266.317553 
L 159.783859 265.962918 
L 160.144513 265.962918 
L 160.144513 265.608282 
L 160.528069 265.608282 
L 160.528069 265.253647 
L 161.138963 265.253647 
L 161.138963 264.899012 
L 162.699536 264.899012 
L 162.699536 264.544376 
L 163.381213 264.544376 
L 163.381213 264.189741 
L 165.347739 264.189741 
L 165.347739 263.835106 
L 165.495616 263.835106 
L 165.58802 263.125835 
L 165.957604 263.125835 
L 165.957604 262.7712 
L 166.272043 262.7712 
L 166.32588 262.061929 
L 166.492234 262.061929 
L 166.492234 261.707294 
L 169.265711 261.707294 
L 169.265711 261.352659 
L 170.52501 261.352659 
L 170.635104 260.643388 
L 171.058983 260.643388 
L 171.058983 260.288753 
L 171.921254 260.288753 
L 171.921254 259.934118 
L 172.103819 259.934118 
L 172.103819 259.579482 
L 172.508748 259.579482 
L 172.508748 259.224847 
L 173.400399 259.224847 
L 173.400399 258.870212 
L 173.697305 258.870212 
L 173.697305 258.515576 
L 173.820621 258.515576 
L 173.820621 258.160941 
L 174.293596 258.160941 
L 174.293596 257.806306 
L 175.07799 257.806306 
L 175.07799 257.451671 
L 175.365928 257.451671 
L 175.365928 257.097035 
L 175.993332 257.097035 
L 175.993332 256.7424 
L 176.484846 256.7424 
L 176.50008 256.033129 
L 184.19057 256.033129 
L 184.19057 255.678494 
L 185.319569 255.678494 
L 185.319569 255.323859 
L 185.705203 255.323859 
L 185.705203 254.969224 
L 185.975018 254.969224 
L 185.975018 254.614588 
L 186.489882 254.614588 
L 186.489882 254.259953 
L 187.724398 254.259953 
L 187.724398 253.905318 
L 188.965903 253.905318 
L 188.965903 253.550682 
L 189.518516 253.550682 
L 189.518516 253.196047 
L 191.007069 253.196047 
L 191.08126 252.486776 
L 193.303912 252.486776 
L 193.303912 252.132141 
L 195.171147 252.132141 
L 195.171147 251.777506 
L 197.351049 251.777506 
L 197.351049 251.422871 
L 197.468524 251.422871 
L 197.468524 251.068235 
L 198.169606 251.068235 
L 198.169606 250.7136 
L 198.35742 250.7136 
L 198.35742 250.358965 
L 199.065757 250.358965 
L 199.065757 250.004329 
L 199.326508 250.004329 
L 199.326508 249.649694 
L 199.838147 249.649694 
L 199.838147 249.295059 
L 201.156339 249.295059 
L 201.177541 248.585788 
L 202.614772 248.585788 
L 202.614772 248.231153 
L 202.773892 248.231153 
L 202.773892 247.876518 
L 203.007701 247.876518 
L 203.007701 247.521882 
L 204.552681 247.521882 
L 204.552681 247.167247 
L 204.802569 247.167247 
L 204.802569 246.812612 
L 205.682166 246.812612 
L 205.698657 246.103341 
L 208.616047 246.103341 
L 208.616047 245.748706 
L 211.051723 245.748706 
L 211.051723 245.394071 
L 211.448405 245.394071 
L 211.448405 245.039435 
L 211.791329 245.039435 
L 211.791329 244.6848 
L 211.951482 244.6848 
L 211.951482 244.330165 
L 212.415271 244.330165 
L 212.49072 243.620894 
L 217.029975 243.620894 
L 217.029975 243.266259 
L 217.473802 243.266259 
L 217.473802 242.911624 
L 217.905807 242.911624 
L 217.905807 242.556988 
L 219.314702 242.556988 
L 219.314702 242.202353 
L 220.32315 242.202353 
L 220.32315 241.847718 
L 223.244608 241.847718 
L 223.244608 241.493082 
L 225.530831 241.493082 
L 225.530831 241.138447 
L 225.701125 241.138447 
L 225.701125 240.783812 
L 233.200355 240.783812 
L 233.200355 240.429176 
L 360.8064 240.429176 
L 360.8064 240.429176 
" style="fill:none;stroke:#ff00ff;stroke-linecap:square;stroke-width:1.5;"/>
   </g>
   <g id="line2d_41">
    <defs>
     <path d="M -0 8.485281 
L 5.091169 0 
L 0 -8.485281 
L -5.091169 -0 
z
" id="mb3a0689cba" style="stroke:#ff00ff;stroke-linejoin:miter;stroke-width:1.5;"/>
    </defs>
    <g>
     <use style="fill-opacity:0;stroke:#ff00ff;stroke-linejoin:miter;stroke-width:1.5;" x="147.498779" xlink:href="#mb3a0689cba" y="269.509271"/>
     <use style="fill-opacity:0;stroke:#ff00ff;stroke-linejoin:miter;stroke-width:1.5;" x="233.200355" xlink:href="#mb3a0689cba" y="240.783812"/>
     <use style="fill-opacity:0;stroke:#ff00ff;stroke-linejoin:miter;stroke-width:1.5;" x="233.200355" xlink:href="#mb3a0689cba" y="240.429176"/>
     <use style="fill-opacity:0;stroke:#ff00ff;stroke-linejoin:miter;stroke-width:1.5;" x="233.200355" xlink:href="#mb3a0689cba" y="240.429176"/>
     <use style="fill-opacity:0;stroke:#ff00ff;stroke-linejoin:miter;stroke-width:1.5;" x="360.8064" xlink:href="#mb3a0689cba" y="240.429176"/>
    </g>
   </g>
   <g id="line2d_42">
    <path style="fill:none;stroke:#ff00ff;stroke-linecap:square;stroke-width:1.5;"/>
    <g/>
   </g>
   <g id="line2d_43">
    <path clip-path="url(#pc6e5461536)" d="M 157.365737 267.736094 
" style="fill:none;stroke:#ff00ff;stroke-linecap:square;stroke-width:1.5;"/>
    <defs>
     <path d="M -12 12 
L 12 -12 
M -12 -12 
L 12 12 
" id="mac33342d8c" style="stroke:#ff00ff;"/>
    </defs>
    <g clip-path="url(#pc6e5461536)">
     <use style="fill:#ff00ff;stroke:#ff00ff;" x="157.365737" xlink:href="#mac33342d8c" y="267.736094"/>
    </g>
   </g>
   <g id="line2d_44">
    <defs>
     <path d="M 0 1.5 
C 0.397805 1.5 0.77937 1.341951 1.06066 1.06066 
C 1.341951 0.77937 1.5 0.397805 1.5 0 
C 1.5 -0.397805 1.341951 -0.77937 1.06066 -1.06066 
C 0.77937 -1.341951 0.397805 -1.5 0 -1.5 
C -0.397805 -1.5 -0.77937 -1.341951 -1.06066 -1.06066 
C -1.341951 -0.77937 -1.5 -0.397805 -1.5 0 
C -1.5 0.397805 -1.341951 0.77937 -1.06066 1.06066 
C -0.77937 1.341951 -0.397805 1.5 0 1.5 
z
" id="m4a1f3a5e73" style="stroke:#ff7500;"/>
    </defs>
    <g>
     <use style="fill:#ff7500;stroke:#ff7500;" x="222.651173" xlink:href="#m4a1f3a5e73" y="240.429176"/>
     <use style="fill:#ff7500;stroke:#ff7500;" x="222.651173" xlink:href="#m4a1f3a5e73" y="240.429176"/>
    </g>
   </g>
   <g id="line2d_45">
    <path d="M -1 293.624471 
L 110.841731 293.624471 
L 110.841731 293.269835 
L 116.665126 293.269835 
L 116.705799 292.560565 
L 116.927946 292.560565 
L 116.927946 292.205929 
L 117.962989 292.205929 
L 117.962989 291.851294 
L 118.432129 291.851294 
L 118.432129 291.496659 
L 118.962067 291.496659 
L 118.962067 291.142024 
L 119.962077 291.142024 
L 119.962077 290.432753 
L 120.879082 290.432753 
L 120.960272 289.723482 
L 121.041112 289.723482 
L 121.041112 289.368847 
L 121.408568 289.368847 
L 121.408568 289.014212 
L 121.84643 289.014212 
L 121.84643 288.659576 
L 122.046309 288.659576 
L 122.046309 288.304941 
L 122.183453 288.304941 
L 122.183453 287.950306 
L 122.736994 287.950306 
L 122.736994 287.595671 
L 123.797484 287.595671 
L 123.797484 287.241035 
L 126.613505 287.241035 
L 126.613505 286.8864 
L 127.319904 286.8864 
L 127.319904 286.531765 
L 129.612462 286.531765 
L 129.612462 286.177129 
L 130.354591 286.177129 
L 130.354591 285.822494 
L 131.738138 285.822494 
L 131.738138 285.467859 
L 133.779425 285.467859 
L 133.779425 285.113224 
L 134.216923 285.113224 
L 134.28886 284.403953 
L 134.815917 284.403953 
L 134.815917 284.049318 
L 135.321058 284.049318 
L 135.321058 283.694682 
L 135.739276 283.694682 
L 135.739276 283.340047 
L 136.046948 283.340047 
L 136.148398 282.630776 
L 136.605323 282.630776 
L 136.703813 281.921506 
L 137.030737 281.921506 
L 137.037631 281.212235 
L 137.794248 281.212235 
L 137.827326 280.502965 
L 138.10291 280.502965 
L 138.10291 280.148329 
L 138.837456 280.148329 
L 138.837456 279.793694 
L 139.706589 279.793694 
L 139.706589 279.439059 
L 140.393711 279.439059 
L 140.416765 278.729788 
L 140.640067 278.729788 
L 140.651447 277.665882 
L 141.062184 277.665882 
L 141.062184 277.311247 
L 141.382247 277.311247 
L 141.398655 276.247341 
L 141.772138 276.247341 
L 141.772138 275.892706 
L 142.006486 275.892706 
L 142.006486 275.538071 
L 142.661862 275.538071 
L 142.661862 275.183435 
L 142.850056 275.183435 
L 142.940933 274.474165 
L 143.787867 274.474165 
L 143.787867 274.119529 
L 144.145557 274.119529 
L 144.145557 273.764894 
L 145.989098 273.764894 
L 145.989098 273.410259 
L 146.471147 273.410259 
L 146.471147 273.055624 
L 146.928932 273.055624 
L 146.928932 272.700988 
L 147.490872 272.700988 
L 147.490872 272.346353 
L 147.967238 272.346353 
L 147.967238 271.991718 
L 148.80797 271.991718 
L 148.822713 271.282447 
L 149.024261 271.282447 
L 149.060675 270.218541 
L 149.345895 270.218541 
L 149.345895 269.863906 
L 149.545489 269.863906 
L 149.57029 269.154635 
L 150.128434 269.154635 
L 150.128434 268.8 
L 150.469047 268.8 
L 150.469047 268.445365 
L 152.057422 268.445365 
L 152.128637 267.381459 
L 152.82634 267.381459 
L 152.82634 267.026824 
L 153.513449 267.026824 
L 153.513449 266.672188 
L 155.577951 266.672188 
L 155.577951 266.317553 
L 155.919572 266.317553 
L 155.919572 265.962918 
L 156.523681 265.962918 
L 156.523681 265.608282 
L 156.648044 265.608282 
L 156.648044 265.253647 
L 158.180674 265.253647 
L 158.180674 264.899012 
L 158.493929 264.899012 
L 158.493929 264.544376 
L 158.981099 264.544376 
L 158.981099 264.189741 
L 159.098812 264.189741 
L 159.098812 263.835106 
L 159.24122 263.835106 
L 159.24122 263.480471 
L 159.829064 263.480471 
L 159.829064 263.125835 
L 160.138458 263.125835 
L 160.138458 262.7712 
L 160.45873 262.7712 
L 160.45873 262.416565 
L 161.639526 262.416565 
L 161.639526 262.061929 
L 162.268255 262.061929 
L 162.268255 261.707294 
L 163.012297 261.707294 
L 163.084935 260.998024 
L 163.932096 260.998024 
L 164.016065 260.288753 
L 166.528203 260.288753 
L 166.528203 259.934118 
L 167.223831 259.934118 
L 167.223831 259.579482 
L 185.574575 259.579482 
L 185.574575 259.224847 
L 186.37262 259.224847 
L 186.37262 258.870212 
L 187.732781 258.870212 
L 187.732781 258.515576 
L 188.427553 258.515576 
L 188.427553 258.160941 
L 188.655921 258.160941 
L 188.655921 257.806306 
L 189.049012 257.806306 
L 189.049012 257.451671 
L 191.435269 257.451671 
L 191.435269 257.097035 
L 191.587248 257.097035 
L 191.587248 256.7424 
L 192.125014 256.7424 
L 192.125014 256.387765 
L 192.818452 256.387765 
L 192.818452 256.033129 
L 192.950879 256.033129 
L 192.950879 255.678494 
L 193.559453 255.678494 
L 193.559453 255.323859 
L 194.23022 255.323859 
L 194.311466 254.614588 
L 194.359652 254.614588 
L 194.43806 253.905318 
L 195.662294 253.905318 
L 195.662294 253.550682 
L 195.865556 253.550682 
L 195.901784 252.841412 
L 196.224737 252.841412 
L 196.224737 252.486776 
L 197.559328 252.486776 
L 197.559328 252.132141 
L 199.244874 252.132141 
L 199.256738 251.422871 
L 199.443552 251.422871 
L 199.443552 251.068235 
L 199.661652 251.068235 
L 199.661652 250.7136 
L 200.46139 250.7136 
L 200.46139 250.358965 
L 200.894483 250.358965 
L 200.894483 250.004329 
L 201.346528 250.004329 
L 201.346528 249.649694 
L 201.79392 249.649694 
L 201.854682 248.940424 
L 202.331262 248.940424 
L 202.331262 248.585788 
L 202.632706 248.585788 
L 202.632706 248.231153 
L 202.982049 248.231153 
L 203.072089 247.521882 
L 203.132973 247.521882 
L 203.132973 247.167247 
L 205.163635 247.167247 
L 205.163635 246.812612 
L 205.306327 246.812612 
L 205.306327 246.457976 
L 206.540464 246.457976 
L 206.566318 245.394071 
L 206.762565 245.394071 
L 206.762565 245.039435 
L 209.882461 245.039435 
L 209.972614 244.330165 
L 210.946284 244.330165 
L 210.987584 243.620894 
L 213.006063 243.620894 
L 213.006063 243.266259 
L 213.848576 243.266259 
L 213.848576 242.911624 
L 214.044817 242.911624 
L 214.044817 242.556988 
L 215.59263 242.556988 
L 215.59263 242.202353 
L 216.965117 242.202353 
L 216.965117 241.847718 
L 219.461392 241.847718 
L 219.461392 241.493082 
L 219.710678 241.493082 
L 219.710678 241.138447 
L 220.749769 241.138447 
L 220.749769 240.783812 
L 222.651173 240.783812 
L 222.651173 240.429176 
L 360.8064 240.429176 
L 360.8064 240.429176 
" style="fill:none;stroke:#ff7500;stroke-linecap:square;stroke-width:1.5;"/>
   </g>
   <g id="line2d_46">
    <defs>
     <path d="M 0 -6 
L -1.347084 -1.854102 
L -5.706339 -1.854102 
L -2.179628 0.708204 
L -3.526712 4.854102 
L -0 2.291796 
L 3.526712 4.854102 
L 2.179628 0.708204 
L 5.706339 -1.854102 
L 1.347084 -1.854102 
z
" id="m71239edba1" style="stroke:#ff7500;stroke-linejoin:bevel;stroke-width:1.5;"/>
    </defs>
    <g>
     <use style="fill-opacity:0;stroke:#ff7500;stroke-linejoin:bevel;stroke-width:1.5;" x="187.732781" xlink:href="#m71239edba1" y="258.515576"/>
     <use style="fill-opacity:0;stroke:#ff7500;stroke-linejoin:bevel;stroke-width:1.5;" x="222.651173" xlink:href="#m71239edba1" y="240.783812"/>
     <use style="fill-opacity:0;stroke:#ff7500;stroke-linejoin:bevel;stroke-width:1.5;" x="222.651173" xlink:href="#m71239edba1" y="240.429176"/>
     <use style="fill-opacity:0;stroke:#ff7500;stroke-linejoin:bevel;stroke-width:1.5;" x="222.651173" xlink:href="#m71239edba1" y="240.429176"/>
     <use style="fill-opacity:0;stroke:#ff7500;stroke-linejoin:bevel;stroke-width:1.5;" x="360.8064" xlink:href="#m71239edba1" y="240.429176"/>
    </g>
   </g>
   <g id="line2d_47">
    <path style="fill:none;stroke:#ff7500;stroke-linecap:square;stroke-width:1.5;"/>
    <g/>
   </g>
   <g id="line2d_48">
    <path clip-path="url(#pc6e5461536)" d="M 181.878168 259.579482 
" style="fill:none;stroke:#ff7500;stroke-linecap:square;stroke-width:1.5;"/>
    <defs>
     <path d="M -12 12 
L 12 -12 
M -12 -12 
L 12 12 
" id="m0c71b4cab1" style="stroke:#ff7500;"/>
    </defs>
    <g clip-path="url(#pc6e5461536)">
     <use style="fill:#ff7500;stroke:#ff7500;" x="181.878168" xlink:href="#m0c71b4cab1" y="259.579482"/>
    </g>
   </g>
   <g id="line2d_49">
    <path d="M 360.8064 240.429176 
L 380.514816 293.51808 
" style="fill:none;stroke:#ff00ff;stroke-linecap:square;stroke-width:1.5;"/>
    <g>
     <use style="fill-opacity:0;stroke:#ff00ff;stroke-linejoin:miter;stroke-width:1.5;" x="360.8064" xlink:href="#mb3a0689cba" y="240.429176"/>
     <use style="fill-opacity:0;stroke:#ff00ff;stroke-linejoin:miter;stroke-width:1.5;" x="380.514816" xlink:href="#mb3a0689cba" y="293.51808"/>
    </g>
   </g>
   <g id="line2d_50">
    <path d="M 360.8064 240.429176 
L 380.514816 206.70336 
" style="fill:none;stroke:#000080;stroke-linecap:square;stroke-width:1.5;"/>
    <g>
     <use style="fill-opacity:0;stroke:#000080;stroke-width:1.5;" x="360.8064" xlink:href="#m0252b348bc" y="240.429176"/>
     <use style="fill-opacity:0;stroke:#000080;stroke-width:1.5;" x="380.514816" xlink:href="#m0252b348bc" y="206.70336"/>
    </g>
   </g>
   <g id="line2d_51">
    <path d="M 360.8064 240.429176 
L 380.514816 119.88864 
" style="fill:none;stroke:#ff7500;stroke-linecap:square;stroke-width:1.5;"/>
    <g>
     <use style="fill-opacity:0;stroke:#ff7500;stroke-linejoin:bevel;stroke-width:1.5;" x="360.8064" xlink:href="#m71239edba1" y="240.429176"/>
     <use style="fill-opacity:0;stroke:#ff7500;stroke-linejoin:bevel;stroke-width:1.5;" x="380.514816" xlink:href="#m71239edba1" y="119.88864"/>
    </g>
   </g>
   <g id="line2d_52">
    <path d="M 360.8064 298.944 
L 360.8064 27.648 
" style="fill:none;stroke:#000000;stroke-linecap:square;stroke-width:1.5;"/>
   </g>
   <g id="patch_3">
    <path d="M 57.6 298.944 
L 360.8064 298.944 
" style="fill:none;stroke:#000000;stroke-linecap:square;stroke-linejoin:miter;stroke-width:0.8;"/>
   </g>
   <g id="patch_4">
    <path d="M 57.6 27.648 
L 360.8064 27.648 
" style="fill:none;stroke:#000000;stroke-linecap:square;stroke-linejoin:miter;stroke-width:0.8;"/>
   </g>
   <g id="text_13">
    <!-- cma.fmin  -->
    <g transform="translate(386.578944 297.381205)scale(0.14 -0.14)">
     <use xlink:href="#DejaVuSans-63"/>
     <use x="54.980469" xlink:href="#DejaVuSans-6d"/>
     <use x="152.392578" xlink:href="#DejaVuSans-61"/>
     <use x="213.671875" xlink:href="#DejaVuSans-2e"/>
     <use x="245.458984" xlink:href="#DejaVuSans-66"/>
     <use x="280.664062" xlink:href="#DejaVuSans-6d"/>
     <use x="378.076172" xlink:href="#DejaVuSans-69"/>
     <use x="405.859375" xlink:href="#DejaVuSans-6e"/>
     <use x="469.238281" xlink:href="#DejaVuSans-20"/>
    </g>
   </g>
   <g id="text_14">
    <!-- different -->
    <g transform="translate(386.578944 210.566485)scale(0.14 -0.14)">
     <use xlink:href="#DejaVuSans-64"/>
     <use x="63.476562" xlink:href="#DejaVuSans-69"/>
     <use x="91.259766" xlink:href="#DejaVuSans-66"/>
     <use x="126.464844" xlink:href="#DejaVuSans-66"/>
     <use x="161.669922" xlink:href="#DejaVuSans-65"/>
     <use x="223.193359" xlink:href="#DejaVuSans-72"/>
     <use x="262.056641" xlink:href="#DejaVuSans-65"/>
     <use x="323.580078" xlink:href="#DejaVuSans-6e"/>
     <use x="386.958984" xlink:href="#DejaVuSans-74"/>
    </g>
   </g>
   <g id="text_15">
    <!-- diffcma b -->
    <g transform="translate(386.578944 123.751765)scale(0.14 -0.14)">
     <defs>
      <path d="M 3116 1747 
Q 3116 2381 2855 2742 
Q 2594 3103 2138 3103 
Q 1681 3103 1420 2742 
Q 1159 2381 1159 1747 
Q 1159 1113 1420 752 
Q 1681 391 2138 391 
Q 2594 391 2855 752 
Q 3116 1113 3116 1747 
z
M 1159 2969 
Q 1341 3281 1617 3432 
Q 1894 3584 2278 3584 
Q 2916 3584 3314 3078 
Q 3713 2572 3713 1747 
Q 3713 922 3314 415 
Q 2916 -91 2278 -91 
Q 1894 -91 1617 61 
Q 1341 213 1159 525 
L 1159 0 
L 581 0 
L 581 4863 
L 1159 4863 
L 1159 2969 
z
" id="DejaVuSans-62" transform="scale(0.015625)"/>
     </defs>
     <use xlink:href="#DejaVuSans-64"/>
     <use x="63.476562" xlink:href="#DejaVuSans-69"/>
     <use x="91.259766" xlink:href="#DejaVuSans-66"/>
     <use x="126.464844" xlink:href="#DejaVuSans-66"/>
     <use x="161.669922" xlink:href="#DejaVuSans-63"/>
     <use x="216.650391" xlink:href="#DejaVuSans-6d"/>
     <use x="314.0625" xlink:href="#DejaVuSans-61"/>
     <use x="375.341797" xlink:href="#DejaVuSans-20"/>
     <use x="407.128906" xlink:href="#DejaVuSans-62"/>
    </g>
   </g>
   <g id="text_16">
    <!-- best 2009 -->
    <g transform="translate(386.578944 36.937045)scale(0.14 -0.14)">
     <defs>
      <path d="M 703 97 
L 703 672 
Q 941 559 1184 500 
Q 1428 441 1663 441 
Q 2288 441 2617 861 
Q 2947 1281 2994 2138 
Q 2813 1869 2534 1725 
Q 2256 1581 1919 1581 
Q 1219 1581 811 2004 
Q 403 2428 403 3163 
Q 403 3881 828 4315 
Q 1253 4750 1959 4750 
Q 2769 4750 3195 4129 
Q 3622 3509 3622 2328 
Q 3622 1225 3098 567 
Q 2575 -91 1691 -91 
Q 1453 -91 1209 -44 
Q 966 3 703 97 
z
M 1959 2075 
Q 2384 2075 2632 2365 
Q 2881 2656 2881 3163 
Q 2881 3666 2632 3958 
Q 2384 4250 1959 4250 
Q 1534 4250 1286 3958 
Q 1038 3666 1038 3163 
Q 1038 2656 1286 2365 
Q 1534 2075 1959 2075 
z
" id="DejaVuSans-39" transform="scale(0.015625)"/>
     </defs>
     <use xlink:href="#DejaVuSans-62"/>
     <use x="63.476562" xlink:href="#DejaVuSans-65"/>
     <use x="125" xlink:href="#DejaVuSans-73"/>
     <use x="177.099609" xlink:href="#DejaVuSans-74"/>
     <use x="216.308594" xlink:href="#DejaVuSans-20"/>
     <use x="248.095703" xlink:href="#DejaVuSans-32"/>
     <use x="311.71875" xlink:href="#DejaVuSans-30"/>
     <use x="375.341797" xlink:href="#DejaVuSans-30"/>
     <use x="438.964844" xlink:href="#DejaVuSans-39"/>
    </g>
   </g>
   <g id="text_17">
    <!-- bbob f22, 40-D -->
    <g transform="translate(60.632064 38.111366)scale(0.102 -0.102)">
     <defs>
      <path d="M 1259 4147 
L 1259 519 
L 2022 519 
Q 2988 519 3436 956 
Q 3884 1394 3884 2338 
Q 3884 3275 3436 3711 
Q 2988 4147 2022 4147 
L 1259 4147 
z
M 628 4666 
L 1925 4666 
Q 3281 4666 3915 4102 
Q 4550 3538 4550 2338 
Q 4550 1131 3912 565 
Q 3275 0 1925 0 
L 628 0 
L 628 4666 
z
" id="DejaVuSans-44" transform="scale(0.015625)"/>
     </defs>
     <use xlink:href="#DejaVuSans-62"/>
     <use x="63.476562" xlink:href="#DejaVuSans-62"/>
     <use x="126.953125" xlink:href="#DejaVuSans-6f"/>
     <use x="188.134766" xlink:href="#DejaVuSans-62"/>
     <use x="251.611328" xlink:href="#DejaVuSans-20"/>
     <use x="283.398438" xlink:href="#DejaVuSans-66"/>
     <use x="318.603516" xlink:href="#DejaVuSans-32"/>
     <use x="382.226562" xlink:href="#DejaVuSans-32"/>
     <use x="445.849609" xlink:href="#DejaVuSans-2c"/>
     <use x="477.636719" xlink:href="#DejaVuSans-20"/>
     <use x="509.423828" xlink:href="#DejaVuSans-34"/>
     <use x="573.046875" xlink:href="#DejaVuSans-30"/>
     <use x="636.669922" xlink:href="#DejaVuSans-2d"/>
     <use x="672.753906" xlink:href="#DejaVuSans-44"/>
    </g>
    <!-- 51 targets: 100..1e-08 -->
    <g transform="translate(60.632064 49.533135)scale(0.102 -0.102)">
     <defs>
      <path d="M 691 4666 
L 3169 4666 
L 3169 4134 
L 1269 4134 
L 1269 2991 
Q 1406 3038 1543 3061 
Q 1681 3084 1819 3084 
Q 2600 3084 3056 2656 
Q 3513 2228 3513 1497 
Q 3513 744 3044 326 
Q 2575 -91 1722 -91 
Q 1428 -91 1123 -41 
Q 819 9 494 109 
L 494 744 
Q 775 591 1075 516 
Q 1375 441 1709 441 
Q 2250 441 2565 725 
Q 2881 1009 2881 1497 
Q 2881 1984 2565 2268 
Q 2250 2553 1709 2553 
Q 1456 2553 1204 2497 
Q 953 2441 691 2322 
L 691 4666 
z
" id="DejaVuSans-35" transform="scale(0.015625)"/>
      <path d="M 750 794 
L 1409 794 
L 1409 0 
L 750 0 
L 750 794 
z
M 750 3309 
L 1409 3309 
L 1409 2516 
L 750 2516 
L 750 3309 
z
" id="DejaVuSans-3a" transform="scale(0.015625)"/>
     </defs>
     <use xlink:href="#DejaVuSans-35"/>
     <use x="63.623047" xlink:href="#DejaVuSans-31"/>
     <use x="127.246094" xlink:href="#DejaVuSans-20"/>
     <use x="159.033203" xlink:href="#DejaVuSans-74"/>
     <use x="198.242188" xlink:href="#DejaVuSans-61"/>
     <use x="259.521484" xlink:href="#DejaVuSans-72"/>
     <use x="298.884766" xlink:href="#DejaVuSans-67"/>
     <use x="362.361328" xlink:href="#DejaVuSans-65"/>
     <use x="423.884766" xlink:href="#DejaVuSans-74"/>
     <use x="463.09375" xlink:href="#DejaVuSans-73"/>
     <use x="515.193359" xlink:href="#DejaVuSans-3a"/>
     <use x="548.884766" xlink:href="#DejaVuSans-20"/>
     <use x="580.671875" xlink:href="#DejaVuSans-31"/>
     <use x="644.294922" xlink:href="#DejaVuSans-30"/>
     <use x="707.917969" xlink:href="#DejaVuSans-30"/>
     <use x="771.541016" xlink:href="#DejaVuSans-2e"/>
     <use x="803.328125" xlink:href="#DejaVuSans-2e"/>
     <use x="835.115234" xlink:href="#DejaVuSans-31"/>
     <use x="898.738281" xlink:href="#DejaVuSans-65"/>
     <use x="960.261719" xlink:href="#DejaVuSans-2d"/>
     <use x="996.345703" xlink:href="#DejaVuSans-30"/>
     <use x="1059.96875" xlink:href="#DejaVuSans-38"/>
    </g>
    <!-- 15 instances -->
    <g transform="translate(60.632064 60.954904)scale(0.102 -0.102)">
     <use xlink:href="#DejaVuSans-31"/>
     <use x="63.623047" xlink:href="#DejaVuSans-35"/>
     <use x="127.246094" xlink:href="#DejaVuSans-20"/>
     <use x="159.033203" xlink:href="#DejaVuSans-69"/>
     <use x="186.816406" xlink:href="#DejaVuSans-6e"/>
     <use x="250.195312" xlink:href="#DejaVuSans-73"/>
     <use x="302.294922" xlink:href="#DejaVuSans-74"/>
     <use x="341.503906" xlink:href="#DejaVuSans-61"/>
     <use x="402.783203" xlink:href="#DejaVuSans-6e"/>
     <use x="466.162109" xlink:href="#DejaVuSans-63"/>
     <use x="521.142578" xlink:href="#DejaVuSans-65"/>
     <use x="582.666016" xlink:href="#DejaVuSans-73"/>
    </g>
   </g>
   <g id="text_18">
    <!-- v2.6 -->
    <g style="fill:#808080;" transform="translate(198.292262 294.151352)scale(0.1 -0.1)">
     <use xlink:href="#DejaVuSans-76"/>
     <use x="59.179688" xlink:href="#DejaVuSans-32"/>
     <use x="122.802734" xlink:href="#DejaVuSans-2e"/>
     <use x="154.589844" xlink:href="#DejaVuSans-36"/>
    </g>
   </g>
   <g id="text_19">
    <!-- 22 Gallagher 21 peaks -->
    <g transform="translate(96.0782 21.648)scale(0.2 -0.2)">
     <defs>
      <path d="M 3809 666 
L 3809 1919 
L 2778 1919 
L 2778 2438 
L 4434 2438 
L 4434 434 
Q 4069 175 3628 42 
Q 3188 -91 2688 -91 
Q 1594 -91 976 548 
Q 359 1188 359 2328 
Q 359 3472 976 4111 
Q 1594 4750 2688 4750 
Q 3144 4750 3555 4637 
Q 3966 4525 4313 4306 
L 4313 3634 
Q 3963 3931 3569 4081 
Q 3175 4231 2741 4231 
Q 1884 4231 1454 3753 
Q 1025 3275 1025 2328 
Q 1025 1384 1454 906 
Q 1884 428 2741 428 
Q 3075 428 3337 486 
Q 3600 544 3809 666 
z
" id="DejaVuSans-47" transform="scale(0.015625)"/>
      <path d="M 3513 2113 
L 3513 0 
L 2938 0 
L 2938 2094 
Q 2938 2591 2744 2837 
Q 2550 3084 2163 3084 
Q 1697 3084 1428 2787 
Q 1159 2491 1159 1978 
L 1159 0 
L 581 0 
L 581 4863 
L 1159 4863 
L 1159 2956 
Q 1366 3272 1645 3428 
Q 1925 3584 2291 3584 
Q 2894 3584 3203 3211 
Q 3513 2838 3513 2113 
z
" id="DejaVuSans-68" transform="scale(0.015625)"/>
      <path d="M 581 4863 
L 1159 4863 
L 1159 1991 
L 2875 3500 
L 3609 3500 
L 1753 1863 
L 3688 0 
L 2938 0 
L 1159 1709 
L 1159 0 
L 581 0 
L 581 4863 
z
" id="DejaVuSans-6b" transform="scale(0.015625)"/>
     </defs>
     <use xlink:href="#DejaVuSans-32"/>
     <use x="63.623047" xlink:href="#DejaVuSans-32"/>
     <use x="127.246094" xlink:href="#DejaVuSans-20"/>
     <use x="159.033203" xlink:href="#DejaVuSans-47"/>
     <use x="236.523438" xlink:href="#DejaVuSans-61"/>
     <use x="297.802734" xlink:href="#DejaVuSans-6c"/>
     <use x="325.585938" xlink:href="#DejaVuSans-6c"/>
     <use x="353.369141" xlink:href="#DejaVuSans-61"/>
     <use x="414.648438" xlink:href="#DejaVuSans-67"/>
     <use x="478.125" xlink:href="#DejaVuSans-68"/>
     <use x="541.503906" xlink:href="#DejaVuSans-65"/>
     <use x="603.027344" xlink:href="#DejaVuSans-72"/>
     <use x="644.140625" xlink:href="#DejaVuSans-20"/>
     <use x="675.927734" xlink:href="#DejaVuSans-32"/>
     <use x="739.550781" xlink:href="#DejaVuSans-31"/>
     <use x="803.173828" xlink:href="#DejaVuSans-20"/>
     <use x="834.960938" xlink:href="#DejaVuSans-70"/>
     <use x="898.4375" xlink:href="#DejaVuSans-65"/>
     <use x="959.960938" xlink:href="#DejaVuSans-61"/>
     <use x="1021.240234" xlink:href="#DejaVuSans-6b"/>
     <use x="1079.150391" xlink:href="#DejaVuSans-73"/>
    </g>
   </g>
  </g>
 </g>
 <defs>
  <clipPath id="pc6e5461536">
   <rect height="271.296" width="303.2064" x="57.6" y="27.648"/>
  </clipPath>
 </defs>
</svg>
