<?xml version="1.0" encoding="utf-8" standalone="no"?>
<!DOCTYPE svg PUBLIC "-//W3C//DTD SVG 1.1//EN"
  "http://www.w3.org/Graphics/SVG/1.1/DTD/svg11.dtd">
<svg height="345.6pt" version="1.1" viewBox="0 0 460.8 345.6" width="460.8pt" xmlns="http://www.w3.org/2000/svg" xmlns:xlink="http://www.w3.org/1999/xlink">
 <metadata>
  <rdf:RDF xmlns:cc="http://creativecommons.org/ns#" xmlns:dc="http://purl.org/dc/elements/1.1/" xmlns:rdf="http://www.w3.org/1999/02/22-rdf-syntax-ns#">
   <cc:Work>
    <dc:type rdf:resource="http://purl.org/dc/dcmitype/StillImage"/>
    <dc:date>2022-05-07T21:25:33.518038</dc:date>
    <dc:format>image/svg+xml</dc:format>
    <dc:creator>
     <cc:Agent>
      <dc:title>Matplotlib v3.4.3, https://matplotlib.org/</dc:title>
     </cc:Agent>
    </dc:creator>
   </cc:Work>
  </rdf:RDF>
 </metadata>
 <defs>
  <style type="text/css">*{stroke-linecap:butt;stroke-linejoin:round;}</style>
 </defs>
 <g id="figure_1">
  <g id="patch_1">
   <path d="M 0 345.6 
L 460.8 345.6 
L 460.8 0 
L 0 0 
z
" style="fill:#ffffff;"/>
  </g>
  <g id="axes_1">
   <g id="patch_2">
    <path d="M 57.6 298.944 
L 360.8064 298.944 
L 360.8064 27.648 
L 57.6 27.648 
z
" style="fill:#ffffff;"/>
   </g>
   <g id="line2d_1">
    <path d="M 44.560826 298.944 
L 44.560826 288.304941 
L 57.6 288.304941 
L 57.6 282.985412 
L 70.639174 282.985412 
L 70.639174 277.665882 
L 78.266603 277.665882 
L 78.266603 272.346353 
L 85.894031 272.346353 
L 85.894031 267.026824 
L 97.857967 267.026824 
L 97.857967 261.707294 
L 109.159456 261.707294 
L 109.159456 256.387765 
L 113.954374 256.387765 
L 113.954374 251.068235 
L 116.583514 251.068235 
L 116.583514 245.748706 
L 118.152051 245.748706 
L 118.152051 240.429176 
L 122.499621 240.429176 
L 122.499621 235.109647 
L 125.271028 235.109647 
L 125.271028 229.790118 
L 135.687504 229.790118 
L 135.687504 224.470588 
L 139.556456 224.470588 
L 139.556456 219.151059 
L 141.610664 219.151059 
L 141.610664 213.831529 
L 141.932237 213.831529 
L 141.932237 208.512 
L 145.237585 208.512 
L 145.237585 203.192471 
L 151.982822 203.192471 
L 151.982822 197.872941 
L 153.189104 197.872941 
L 153.189104 192.553412 
L 153.421349 192.553412 
L 153.421349 187.233882 
L 153.989717 187.233882 
L 153.989717 181.914353 
L 154.322673 181.914353 
L 154.322673 176.594824 
L 154.649839 176.594824 
L 154.649839 171.275294 
L 155.13016 171.275294 
L 155.13016 165.955765 
L 155.18278 165.955765 
L 155.18278 160.636235 
L 156.501649 160.636235 
L 156.501649 155.316706 
L 156.648044 155.316706 
L 156.648044 149.997176 
L 156.696589 149.997176 
L 156.696589 144.677647 
L 156.793307 144.677647 
L 156.793307 139.358118 
L 156.84148 139.358118 
L 156.84148 134.038588 
L 156.937458 134.038588 
L 156.937458 128.719059 
L 157.363398 128.719059 
L 157.363398 123.399529 
L 157.503261 123.399529 
L 157.503261 118.08 
L 157.642093 118.08 
L 157.642093 112.760471 
L 157.688143 112.760471 
L 157.688143 107.440941 
L 157.871225 107.440941 
L 157.871225 102.121412 
L 160.142495 102.121412 
L 160.142495 96.801882 
L 162.38507 96.801882 
L 162.38507 91.482353 
L 162.456597 91.482353 
L 162.456597 80.843294 
L 162.56338 80.843294 
L 162.56338 75.523765 
L 162.634233 75.523765 
L 162.634233 70.204235 
L 162.740015 70.204235 
L 162.740015 64.884706 
L 162.775144 64.884706 
L 162.775144 59.565176 
L 162.845206 59.565176 
L 162.845206 54.245647 
L 163.430425 54.245647 
L 163.430425 48.926118 
L 163.464289 48.926118 
L 163.464289 43.606588 
L 163.531835 43.606588 
L 163.531835 32.967529 
L 163.59914 32.967529 
L 163.59914 27.648 
L 360.8064 27.648 
" style="fill:none;stroke:#f5deb3;stroke-linecap:square;stroke-width:4;"/>
   </g>
   <g id="line2d_2">
    <defs>
     <path d="M -0 7.778175 
L 7.778175 0 
L 0 -7.778175 
L -7.778175 -0 
z
" id="m75aa0d779a" style="stroke:#f5deb3;stroke-linejoin:miter;stroke-width:1.5;"/>
    </defs>
    <g>
     <use style="fill:#f5deb3;stroke:#f5deb3;stroke-linejoin:miter;stroke-width:1.5;" x="125.271028" xlink:href="#m75aa0d779a" y="229.790118"/>
     <use style="fill:#f5deb3;stroke:#f5deb3;stroke-linejoin:miter;stroke-width:1.5;" x="156.501649" xlink:href="#m75aa0d779a" y="155.316706"/>
     <use style="fill:#f5deb3;stroke:#f5deb3;stroke-linejoin:miter;stroke-width:1.5;" x="163.59914" xlink:href="#m75aa0d779a" y="32.967529"/>
     <use style="fill:#f5deb3;stroke:#f5deb3;stroke-linejoin:miter;stroke-width:1.5;" x="163.59914" xlink:href="#m75aa0d779a" y="27.648"/>
     <use style="fill:#f5deb3;stroke:#f5deb3;stroke-linejoin:miter;stroke-width:1.5;" x="163.59914" xlink:href="#m75aa0d779a" y="27.648"/>
     <use style="fill:#f5deb3;stroke:#f5deb3;stroke-linejoin:miter;stroke-width:1.5;" x="360.8064" xlink:href="#m75aa0d779a" y="27.648"/>
    </g>
   </g>
   <g id="line2d_3">
    <path style="fill:none;stroke:#f5deb3;stroke-linecap:square;stroke-width:4;"/>
    <g/>
   </g>
   <g id="line2d_4">
    <path d="M 360.8064 27.648 
L 380.514816 33.07392 
" style="fill:none;stroke:#f5deb3;stroke-linecap:square;stroke-width:4;"/>
    <g>
     <use style="fill:#f5deb3;stroke:#f5deb3;stroke-linejoin:miter;stroke-width:1.5;" x="360.8064" xlink:href="#m75aa0d779a" y="27.648"/>
     <use style="fill:#f5deb3;stroke:#f5deb3;stroke-linejoin:miter;stroke-width:1.5;" x="380.514816" xlink:href="#m75aa0d779a" y="33.07392"/>
    </g>
   </g>
   <g id="matplotlib.axis_1">
    <g id="xtick_1">
     <g id="line2d_5">
      <path clip-path="url(#p482ff7b2d5)" d="M 57.6 298.944 
L 57.6 27.648 
" style="fill:none;stroke:#b0b0b0;stroke-linecap:square;stroke-width:0.8;"/>
     </g>
     <g id="line2d_6">
      <defs>
       <path d="M 0 0 
L 0 3.5 
" id="m52defac382" style="stroke:#000000;stroke-width:0.8;"/>
      </defs>
      <g>
       <use style="stroke:#000000;stroke-width:0.8;" x="57.6" xlink:href="#m52defac382" y="298.944"/>
      </g>
     </g>
     <g id="text_1">
      <!-- 0 -->
      <g transform="translate(52.191875 318.861344)scale(0.17 -0.17)">
       <defs>
        <path d="M 2034 4250 
Q 1547 4250 1301 3770 
Q 1056 3291 1056 2328 
Q 1056 1369 1301 889 
Q 1547 409 2034 409 
Q 2525 409 2770 889 
Q 3016 1369 3016 2328 
Q 3016 3291 2770 3770 
Q 2525 4250 2034 4250 
z
M 2034 4750 
Q 2819 4750 3233 4129 
Q 3647 3509 3647 2328 
Q 3647 1150 3233 529 
Q 2819 -91 2034 -91 
Q 1250 -91 836 529 
Q 422 1150 422 2328 
Q 422 3509 836 4129 
Q 1250 4750 2034 4750 
z
" id="DejaVuSans-30" transform="scale(0.015625)"/>
       </defs>
       <use xlink:href="#DejaVuSans-30"/>
      </g>
     </g>
    </g>
    <g id="xtick_2">
     <g id="line2d_7">
      <path clip-path="url(#p482ff7b2d5)" d="M 144.2304 298.944 
L 144.2304 27.648 
" style="fill:none;stroke:#b0b0b0;stroke-linecap:square;stroke-width:0.8;"/>
     </g>
     <g id="line2d_8">
      <g>
       <use style="stroke:#000000;stroke-width:0.8;" x="144.2304" xlink:href="#m52defac382" y="298.944"/>
      </g>
     </g>
     <g id="text_2">
      <!-- 2 -->
      <g transform="translate(138.822275 318.861344)scale(0.17 -0.17)">
       <defs>
        <path d="M 1228 531 
L 3431 531 
L 3431 0 
L 469 0 
L 469 531 
Q 828 903 1448 1529 
Q 2069 2156 2228 2338 
Q 2531 2678 2651 2914 
Q 2772 3150 2772 3378 
Q 2772 3750 2511 3984 
Q 2250 4219 1831 4219 
Q 1534 4219 1204 4116 
Q 875 4013 500 3803 
L 500 4441 
Q 881 4594 1212 4672 
Q 1544 4750 1819 4750 
Q 2544 4750 2975 4387 
Q 3406 4025 3406 3419 
Q 3406 3131 3298 2873 
Q 3191 2616 2906 2266 
Q 2828 2175 2409 1742 
Q 1991 1309 1228 531 
z
" id="DejaVuSans-32" transform="scale(0.015625)"/>
       </defs>
       <use xlink:href="#DejaVuSans-32"/>
      </g>
     </g>
    </g>
    <g id="xtick_3">
     <g id="line2d_9">
      <path clip-path="url(#p482ff7b2d5)" d="M 230.8608 298.944 
L 230.8608 27.648 
" style="fill:none;stroke:#b0b0b0;stroke-linecap:square;stroke-width:0.8;"/>
     </g>
     <g id="line2d_10">
      <g>
       <use style="stroke:#000000;stroke-width:0.8;" x="230.8608" xlink:href="#m52defac382" y="298.944"/>
      </g>
     </g>
     <g id="text_3">
      <!-- 4 -->
      <g transform="translate(225.452675 318.861344)scale(0.17 -0.17)">
       <defs>
        <path d="M 2419 4116 
L 825 1625 
L 2419 1625 
L 2419 4116 
z
M 2253 4666 
L 3047 4666 
L 3047 1625 
L 3713 1625 
L 3713 1100 
L 3047 1100 
L 3047 0 
L 2419 0 
L 2419 1100 
L 313 1100 
L 313 1709 
L 2253 4666 
z
" id="DejaVuSans-34" transform="scale(0.015625)"/>
       </defs>
       <use xlink:href="#DejaVuSans-34"/>
      </g>
     </g>
    </g>
    <g id="xtick_4">
     <g id="line2d_11">
      <path clip-path="url(#p482ff7b2d5)" d="M 317.4912 298.944 
L 317.4912 27.648 
" style="fill:none;stroke:#b0b0b0;stroke-linecap:square;stroke-width:0.8;"/>
     </g>
     <g id="line2d_12">
      <g>
       <use style="stroke:#000000;stroke-width:0.8;" x="317.4912" xlink:href="#m52defac382" y="298.944"/>
      </g>
     </g>
     <g id="text_4">
      <!-- 6 -->
      <g transform="translate(312.083075 318.861344)scale(0.17 -0.17)">
       <defs>
        <path d="M 2113 2584 
Q 1688 2584 1439 2293 
Q 1191 2003 1191 1497 
Q 1191 994 1439 701 
Q 1688 409 2113 409 
Q 2538 409 2786 701 
Q 3034 994 3034 1497 
Q 3034 2003 2786 2293 
Q 2538 2584 2113 2584 
z
M 3366 4563 
L 3366 3988 
Q 3128 4100 2886 4159 
Q 2644 4219 2406 4219 
Q 1781 4219 1451 3797 
Q 1122 3375 1075 2522 
Q 1259 2794 1537 2939 
Q 1816 3084 2150 3084 
Q 2853 3084 3261 2657 
Q 3669 2231 3669 1497 
Q 3669 778 3244 343 
Q 2819 -91 2113 -91 
Q 1303 -91 875 529 
Q 447 1150 447 2328 
Q 447 3434 972 4092 
Q 1497 4750 2381 4750 
Q 2619 4750 2861 4703 
Q 3103 4656 3366 4563 
z
" id="DejaVuSans-36" transform="scale(0.015625)"/>
       </defs>
       <use xlink:href="#DejaVuSans-36"/>
      </g>
     </g>
    </g>
    <g id="xtick_5">
     <g id="line2d_13">
      <path clip-path="url(#p482ff7b2d5)" d="M 100.9152 298.944 
L 100.9152 27.648 
" style="fill:none;stroke:#b0b0b0;stroke-linecap:square;stroke-width:0.8;"/>
     </g>
     <g id="line2d_14">
      <defs>
       <path d="M 0 0 
L 0 2 
" id="m8b820ee571" style="stroke:#000000;stroke-width:0.6;"/>
      </defs>
      <g>
       <use style="stroke:#000000;stroke-width:0.6;" x="100.9152" xlink:href="#m8b820ee571" y="298.944"/>
      </g>
     </g>
    </g>
    <g id="xtick_6">
     <g id="line2d_15">
      <path clip-path="url(#p482ff7b2d5)" d="M 187.5456 298.944 
L 187.5456 27.648 
" style="fill:none;stroke:#b0b0b0;stroke-linecap:square;stroke-width:0.8;"/>
     </g>
     <g id="line2d_16">
      <g>
       <use style="stroke:#000000;stroke-width:0.6;" x="187.5456" xlink:href="#m8b820ee571" y="298.944"/>
      </g>
     </g>
    </g>
    <g id="xtick_7">
     <g id="line2d_17">
      <path clip-path="url(#p482ff7b2d5)" d="M 274.176 298.944 
L 274.176 27.648 
" style="fill:none;stroke:#b0b0b0;stroke-linecap:square;stroke-width:0.8;"/>
     </g>
     <g id="line2d_18">
      <g>
       <use style="stroke:#000000;stroke-width:0.6;" x="274.176" xlink:href="#m8b820ee571" y="298.944"/>
      </g>
     </g>
    </g>
    <g id="xtick_8">
     <g id="line2d_19">
      <path clip-path="url(#p482ff7b2d5)" d="M 360.8064 298.944 
L 360.8064 27.648 
" style="fill:none;stroke:#b0b0b0;stroke-linecap:square;stroke-width:0.8;"/>
     </g>
     <g id="line2d_20">
      <g>
       <use style="stroke:#000000;stroke-width:0.6;" x="360.8064" xlink:href="#m8b820ee571" y="298.944"/>
      </g>
     </g>
    </g>
    <g id="text_5">
     <!-- log10(# f-evals / dimension) -->
     <g transform="translate(88.823278 339.314156)scale(0.17 -0.17)">
      <defs>
       <path d="M 603 4863 
L 1178 4863 
L 1178 0 
L 603 0 
L 603 4863 
z
" id="DejaVuSans-6c" transform="scale(0.015625)"/>
       <path d="M 1959 3097 
Q 1497 3097 1228 2736 
Q 959 2375 959 1747 
Q 959 1119 1226 758 
Q 1494 397 1959 397 
Q 2419 397 2687 759 
Q 2956 1122 2956 1747 
Q 2956 2369 2687 2733 
Q 2419 3097 1959 3097 
z
M 1959 3584 
Q 2709 3584 3137 3096 
Q 3566 2609 3566 1747 
Q 3566 888 3137 398 
Q 2709 -91 1959 -91 
Q 1206 -91 779 398 
Q 353 888 353 1747 
Q 353 2609 779 3096 
Q 1206 3584 1959 3584 
z
" id="DejaVuSans-6f" transform="scale(0.015625)"/>
       <path d="M 2906 1791 
Q 2906 2416 2648 2759 
Q 2391 3103 1925 3103 
Q 1463 3103 1205 2759 
Q 947 2416 947 1791 
Q 947 1169 1205 825 
Q 1463 481 1925 481 
Q 2391 481 2648 825 
Q 2906 1169 2906 1791 
z
M 3481 434 
Q 3481 -459 3084 -895 
Q 2688 -1331 1869 -1331 
Q 1566 -1331 1297 -1286 
Q 1028 -1241 775 -1147 
L 775 -588 
Q 1028 -725 1275 -790 
Q 1522 -856 1778 -856 
Q 2344 -856 2625 -561 
Q 2906 -266 2906 331 
L 2906 616 
Q 2728 306 2450 153 
Q 2172 0 1784 0 
Q 1141 0 747 490 
Q 353 981 353 1791 
Q 353 2603 747 3093 
Q 1141 3584 1784 3584 
Q 2172 3584 2450 3431 
Q 2728 3278 2906 2969 
L 2906 3500 
L 3481 3500 
L 3481 434 
z
" id="DejaVuSans-67" transform="scale(0.015625)"/>
       <path d="M 794 531 
L 1825 531 
L 1825 4091 
L 703 3866 
L 703 4441 
L 1819 4666 
L 2450 4666 
L 2450 531 
L 3481 531 
L 3481 0 
L 794 0 
L 794 531 
z
" id="DejaVuSans-31" transform="scale(0.015625)"/>
       <path d="M 1984 4856 
Q 1566 4138 1362 3434 
Q 1159 2731 1159 2009 
Q 1159 1288 1364 580 
Q 1569 -128 1984 -844 
L 1484 -844 
Q 1016 -109 783 600 
Q 550 1309 550 2009 
Q 550 2706 781 3412 
Q 1013 4119 1484 4856 
L 1984 4856 
z
" id="DejaVuSans-28" transform="scale(0.015625)"/>
       <path d="M 3272 2816 
L 2363 2816 
L 2100 1772 
L 3016 1772 
L 3272 2816 
z
M 2803 4594 
L 2478 3297 
L 3391 3297 
L 3719 4594 
L 4219 4594 
L 3897 3297 
L 4872 3297 
L 4872 2816 
L 3775 2816 
L 3519 1772 
L 4513 1772 
L 4513 1294 
L 3397 1294 
L 3072 0 
L 2572 0 
L 2894 1294 
L 1978 1294 
L 1656 0 
L 1153 0 
L 1478 1294 
L 494 1294 
L 494 1772 
L 1594 1772 
L 1856 2816 
L 850 2816 
L 850 3297 
L 1978 3297 
L 2297 4594 
L 2803 4594 
z
" id="DejaVuSans-23" transform="scale(0.015625)"/>
       <path id="DejaVuSans-20" transform="scale(0.015625)"/>
       <path d="M 2375 4863 
L 2375 4384 
L 1825 4384 
Q 1516 4384 1395 4259 
Q 1275 4134 1275 3809 
L 1275 3500 
L 2222 3500 
L 2222 3053 
L 1275 3053 
L 1275 0 
L 697 0 
L 697 3053 
L 147 3053 
L 147 3500 
L 697 3500 
L 697 3744 
Q 697 4328 969 4595 
Q 1241 4863 1831 4863 
L 2375 4863 
z
" id="DejaVuSans-66" transform="scale(0.015625)"/>
       <path d="M 313 2009 
L 1997 2009 
L 1997 1497 
L 313 1497 
L 313 2009 
z
" id="DejaVuSans-2d" transform="scale(0.015625)"/>
       <path d="M 3597 1894 
L 3597 1613 
L 953 1613 
Q 991 1019 1311 708 
Q 1631 397 2203 397 
Q 2534 397 2845 478 
Q 3156 559 3463 722 
L 3463 178 
Q 3153 47 2828 -22 
Q 2503 -91 2169 -91 
Q 1331 -91 842 396 
Q 353 884 353 1716 
Q 353 2575 817 3079 
Q 1281 3584 2069 3584 
Q 2775 3584 3186 3129 
Q 3597 2675 3597 1894 
z
M 3022 2063 
Q 3016 2534 2758 2815 
Q 2500 3097 2075 3097 
Q 1594 3097 1305 2825 
Q 1016 2553 972 2059 
L 3022 2063 
z
" id="DejaVuSans-65" transform="scale(0.015625)"/>
       <path d="M 191 3500 
L 800 3500 
L 1894 563 
L 2988 3500 
L 3597 3500 
L 2284 0 
L 1503 0 
L 191 3500 
z
" id="DejaVuSans-76" transform="scale(0.015625)"/>
       <path d="M 2194 1759 
Q 1497 1759 1228 1600 
Q 959 1441 959 1056 
Q 959 750 1161 570 
Q 1363 391 1709 391 
Q 2188 391 2477 730 
Q 2766 1069 2766 1631 
L 2766 1759 
L 2194 1759 
z
M 3341 1997 
L 3341 0 
L 2766 0 
L 2766 531 
Q 2569 213 2275 61 
Q 1981 -91 1556 -91 
Q 1019 -91 701 211 
Q 384 513 384 1019 
Q 384 1609 779 1909 
Q 1175 2209 1959 2209 
L 2766 2209 
L 2766 2266 
Q 2766 2663 2505 2880 
Q 2244 3097 1772 3097 
Q 1472 3097 1187 3025 
Q 903 2953 641 2809 
L 641 3341 
Q 956 3463 1253 3523 
Q 1550 3584 1831 3584 
Q 2591 3584 2966 3190 
Q 3341 2797 3341 1997 
z
" id="DejaVuSans-61" transform="scale(0.015625)"/>
       <path d="M 2834 3397 
L 2834 2853 
Q 2591 2978 2328 3040 
Q 2066 3103 1784 3103 
Q 1356 3103 1142 2972 
Q 928 2841 928 2578 
Q 928 2378 1081 2264 
Q 1234 2150 1697 2047 
L 1894 2003 
Q 2506 1872 2764 1633 
Q 3022 1394 3022 966 
Q 3022 478 2636 193 
Q 2250 -91 1575 -91 
Q 1294 -91 989 -36 
Q 684 19 347 128 
L 347 722 
Q 666 556 975 473 
Q 1284 391 1588 391 
Q 1994 391 2212 530 
Q 2431 669 2431 922 
Q 2431 1156 2273 1281 
Q 2116 1406 1581 1522 
L 1381 1569 
Q 847 1681 609 1914 
Q 372 2147 372 2553 
Q 372 3047 722 3315 
Q 1072 3584 1716 3584 
Q 2034 3584 2315 3537 
Q 2597 3491 2834 3397 
z
" id="DejaVuSans-73" transform="scale(0.015625)"/>
       <path d="M 1625 4666 
L 2156 4666 
L 531 -594 
L 0 -594 
L 1625 4666 
z
" id="DejaVuSans-2f" transform="scale(0.015625)"/>
       <path d="M 2906 2969 
L 2906 4863 
L 3481 4863 
L 3481 0 
L 2906 0 
L 2906 525 
Q 2725 213 2448 61 
Q 2172 -91 1784 -91 
Q 1150 -91 751 415 
Q 353 922 353 1747 
Q 353 2572 751 3078 
Q 1150 3584 1784 3584 
Q 2172 3584 2448 3432 
Q 2725 3281 2906 2969 
z
M 947 1747 
Q 947 1113 1208 752 
Q 1469 391 1925 391 
Q 2381 391 2643 752 
Q 2906 1113 2906 1747 
Q 2906 2381 2643 2742 
Q 2381 3103 1925 3103 
Q 1469 3103 1208 2742 
Q 947 2381 947 1747 
z
" id="DejaVuSans-64" transform="scale(0.015625)"/>
       <path d="M 603 3500 
L 1178 3500 
L 1178 0 
L 603 0 
L 603 3500 
z
M 603 4863 
L 1178 4863 
L 1178 4134 
L 603 4134 
L 603 4863 
z
" id="DejaVuSans-69" transform="scale(0.015625)"/>
       <path d="M 3328 2828 
Q 3544 3216 3844 3400 
Q 4144 3584 4550 3584 
Q 5097 3584 5394 3201 
Q 5691 2819 5691 2113 
L 5691 0 
L 5113 0 
L 5113 2094 
Q 5113 2597 4934 2840 
Q 4756 3084 4391 3084 
Q 3944 3084 3684 2787 
Q 3425 2491 3425 1978 
L 3425 0 
L 2847 0 
L 2847 2094 
Q 2847 2600 2669 2842 
Q 2491 3084 2119 3084 
Q 1678 3084 1418 2786 
Q 1159 2488 1159 1978 
L 1159 0 
L 581 0 
L 581 3500 
L 1159 3500 
L 1159 2956 
Q 1356 3278 1631 3431 
Q 1906 3584 2284 3584 
Q 2666 3584 2933 3390 
Q 3200 3197 3328 2828 
z
" id="DejaVuSans-6d" transform="scale(0.015625)"/>
       <path d="M 3513 2113 
L 3513 0 
L 2938 0 
L 2938 2094 
Q 2938 2591 2744 2837 
Q 2550 3084 2163 3084 
Q 1697 3084 1428 2787 
Q 1159 2491 1159 1978 
L 1159 0 
L 581 0 
L 581 3500 
L 1159 3500 
L 1159 2956 
Q 1366 3272 1645 3428 
Q 1925 3584 2291 3584 
Q 2894 3584 3203 3211 
Q 3513 2838 3513 2113 
z
" id="DejaVuSans-6e" transform="scale(0.015625)"/>
       <path d="M 513 4856 
L 1013 4856 
Q 1481 4119 1714 3412 
Q 1947 2706 1947 2009 
Q 1947 1309 1714 600 
Q 1481 -109 1013 -844 
L 513 -844 
Q 928 -128 1133 580 
Q 1338 1288 1338 2009 
Q 1338 2731 1133 3434 
Q 928 4138 513 4856 
z
" id="DejaVuSans-29" transform="scale(0.015625)"/>
      </defs>
      <use xlink:href="#DejaVuSans-6c"/>
      <use x="27.783203" xlink:href="#DejaVuSans-6f"/>
      <use x="88.964844" xlink:href="#DejaVuSans-67"/>
      <use x="152.441406" xlink:href="#DejaVuSans-31"/>
      <use x="216.064453" xlink:href="#DejaVuSans-30"/>
      <use x="279.6875" xlink:href="#DejaVuSans-28"/>
      <use x="318.701172" xlink:href="#DejaVuSans-23"/>
      <use x="402.490234" xlink:href="#DejaVuSans-20"/>
      <use x="434.277344" xlink:href="#DejaVuSans-66"/>
      <use x="463.982422" xlink:href="#DejaVuSans-2d"/>
      <use x="500.066406" xlink:href="#DejaVuSans-65"/>
      <use x="561.589844" xlink:href="#DejaVuSans-76"/>
      <use x="620.769531" xlink:href="#DejaVuSans-61"/>
      <use x="682.048828" xlink:href="#DejaVuSans-6c"/>
      <use x="709.832031" xlink:href="#DejaVuSans-73"/>
      <use x="761.931641" xlink:href="#DejaVuSans-20"/>
      <use x="793.71875" xlink:href="#DejaVuSans-2f"/>
      <use x="827.410156" xlink:href="#DejaVuSans-20"/>
      <use x="859.197266" xlink:href="#DejaVuSans-64"/>
      <use x="922.673828" xlink:href="#DejaVuSans-69"/>
      <use x="950.457031" xlink:href="#DejaVuSans-6d"/>
      <use x="1047.869141" xlink:href="#DejaVuSans-65"/>
      <use x="1109.392578" xlink:href="#DejaVuSans-6e"/>
      <use x="1172.771484" xlink:href="#DejaVuSans-73"/>
      <use x="1224.871094" xlink:href="#DejaVuSans-69"/>
      <use x="1252.654297" xlink:href="#DejaVuSans-6f"/>
      <use x="1313.835938" xlink:href="#DejaVuSans-6e"/>
      <use x="1377.214844" xlink:href="#DejaVuSans-29"/>
     </g>
    </g>
   </g>
   <g id="matplotlib.axis_2">
    <g id="ytick_1">
     <g id="line2d_21">
      <path clip-path="url(#p482ff7b2d5)" d="M 57.6 298.944 
L 360.8064 298.944 
" style="fill:none;stroke:#b0b0b0;stroke-linecap:square;stroke-width:0.8;"/>
     </g>
     <g id="line2d_22">
      <defs>
       <path d="M 0 0 
L -3.5 0 
" id="m2fd3fd0dee" style="stroke:#000000;stroke-width:0.8;"/>
      </defs>
      <g>
       <use style="stroke:#000000;stroke-width:0.8;" x="57.6" xlink:href="#m2fd3fd0dee" y="298.944"/>
      </g>
     </g>
     <g id="text_6">
      <!-- 0.0 -->
      <g transform="translate(25.155 305.02275)scale(0.16 -0.16)">
       <defs>
        <path d="M 684 794 
L 1344 794 
L 1344 0 
L 684 0 
L 684 794 
z
" id="DejaVuSans-2e" transform="scale(0.015625)"/>
       </defs>
       <use xlink:href="#DejaVuSans-30"/>
       <use x="63.623047" xlink:href="#DejaVuSans-2e"/>
       <use x="95.410156" xlink:href="#DejaVuSans-30"/>
      </g>
     </g>
    </g>
    <g id="ytick_2">
     <g id="line2d_23">
      <path clip-path="url(#p482ff7b2d5)" d="M 57.6 244.6848 
L 360.8064 244.6848 
" style="fill:none;stroke:#b0b0b0;stroke-linecap:square;stroke-width:0.8;"/>
     </g>
     <g id="line2d_24">
      <g>
       <use style="stroke:#000000;stroke-width:0.8;" x="57.6" xlink:href="#m2fd3fd0dee" y="244.6848"/>
      </g>
     </g>
     <g id="text_7">
      <!-- 0.2 -->
      <g transform="translate(25.155 250.76355)scale(0.16 -0.16)">
       <use xlink:href="#DejaVuSans-30"/>
       <use x="63.623047" xlink:href="#DejaVuSans-2e"/>
       <use x="95.410156" xlink:href="#DejaVuSans-32"/>
      </g>
     </g>
    </g>
    <g id="ytick_3">
     <g id="line2d_25">
      <path clip-path="url(#p482ff7b2d5)" d="M 57.6 190.4256 
L 360.8064 190.4256 
" style="fill:none;stroke:#b0b0b0;stroke-linecap:square;stroke-width:0.8;"/>
     </g>
     <g id="line2d_26">
      <g>
       <use style="stroke:#000000;stroke-width:0.8;" x="57.6" xlink:href="#m2fd3fd0dee" y="190.4256"/>
      </g>
     </g>
     <g id="text_8">
      <!-- 0.4 -->
      <g transform="translate(25.155 196.50435)scale(0.16 -0.16)">
       <use xlink:href="#DejaVuSans-30"/>
       <use x="63.623047" xlink:href="#DejaVuSans-2e"/>
       <use x="95.410156" xlink:href="#DejaVuSans-34"/>
      </g>
     </g>
    </g>
    <g id="ytick_4">
     <g id="line2d_27">
      <path clip-path="url(#p482ff7b2d5)" d="M 57.6 136.1664 
L 360.8064 136.1664 
" style="fill:none;stroke:#b0b0b0;stroke-linecap:square;stroke-width:0.8;"/>
     </g>
     <g id="line2d_28">
      <g>
       <use style="stroke:#000000;stroke-width:0.8;" x="57.6" xlink:href="#m2fd3fd0dee" y="136.1664"/>
      </g>
     </g>
     <g id="text_9">
      <!-- 0.6 -->
      <g transform="translate(25.155 142.24515)scale(0.16 -0.16)">
       <use xlink:href="#DejaVuSans-30"/>
       <use x="63.623047" xlink:href="#DejaVuSans-2e"/>
       <use x="95.410156" xlink:href="#DejaVuSans-36"/>
      </g>
     </g>
    </g>
    <g id="ytick_5">
     <g id="line2d_29">
      <path clip-path="url(#p482ff7b2d5)" d="M 57.6 81.9072 
L 360.8064 81.9072 
" style="fill:none;stroke:#b0b0b0;stroke-linecap:square;stroke-width:0.8;"/>
     </g>
     <g id="line2d_30">
      <g>
       <use style="stroke:#000000;stroke-width:0.8;" x="57.6" xlink:href="#m2fd3fd0dee" y="81.9072"/>
      </g>
     </g>
     <g id="text_10">
      <!-- 0.8 -->
      <g transform="translate(25.155 87.98595)scale(0.16 -0.16)">
       <defs>
        <path d="M 2034 2216 
Q 1584 2216 1326 1975 
Q 1069 1734 1069 1313 
Q 1069 891 1326 650 
Q 1584 409 2034 409 
Q 2484 409 2743 651 
Q 3003 894 3003 1313 
Q 3003 1734 2745 1975 
Q 2488 2216 2034 2216 
z
M 1403 2484 
Q 997 2584 770 2862 
Q 544 3141 544 3541 
Q 544 4100 942 4425 
Q 1341 4750 2034 4750 
Q 2731 4750 3128 4425 
Q 3525 4100 3525 3541 
Q 3525 3141 3298 2862 
Q 3072 2584 2669 2484 
Q 3125 2378 3379 2068 
Q 3634 1759 3634 1313 
Q 3634 634 3220 271 
Q 2806 -91 2034 -91 
Q 1263 -91 848 271 
Q 434 634 434 1313 
Q 434 1759 690 2068 
Q 947 2378 1403 2484 
z
M 1172 3481 
Q 1172 3119 1398 2916 
Q 1625 2713 2034 2713 
Q 2441 2713 2670 2916 
Q 2900 3119 2900 3481 
Q 2900 3844 2670 4047 
Q 2441 4250 2034 4250 
Q 1625 4250 1398 4047 
Q 1172 3844 1172 3481 
z
" id="DejaVuSans-38" transform="scale(0.015625)"/>
       </defs>
       <use xlink:href="#DejaVuSans-30"/>
       <use x="63.623047" xlink:href="#DejaVuSans-2e"/>
       <use x="95.410156" xlink:href="#DejaVuSans-38"/>
      </g>
     </g>
    </g>
    <g id="ytick_6">
     <g id="line2d_31">
      <path clip-path="url(#p482ff7b2d5)" d="M 57.6 27.648 
L 360.8064 27.648 
" style="fill:none;stroke:#b0b0b0;stroke-linecap:square;stroke-width:0.8;"/>
     </g>
     <g id="line2d_32">
      <g>
       <use style="stroke:#000000;stroke-width:0.8;" x="57.6" xlink:href="#m2fd3fd0dee" y="27.648"/>
      </g>
     </g>
     <g id="text_11">
      <!-- 1.0 -->
      <g transform="translate(25.155 33.72675)scale(0.16 -0.16)">
       <use xlink:href="#DejaVuSans-31"/>
       <use x="63.623047" xlink:href="#DejaVuSans-2e"/>
       <use x="95.410156" xlink:href="#DejaVuSans-30"/>
      </g>
     </g>
    </g>
    <g id="text_12">
     <!-- Fraction of function,target pairs -->
     <g transform="translate(17.619531 297.681)rotate(-90)scale(0.17 -0.17)">
      <defs>
       <path d="M 628 4666 
L 3309 4666 
L 3309 4134 
L 1259 4134 
L 1259 2759 
L 3109 2759 
L 3109 2228 
L 1259 2228 
L 1259 0 
L 628 0 
L 628 4666 
z
" id="DejaVuSans-46" transform="scale(0.015625)"/>
       <path d="M 2631 2963 
Q 2534 3019 2420 3045 
Q 2306 3072 2169 3072 
Q 1681 3072 1420 2755 
Q 1159 2438 1159 1844 
L 1159 0 
L 581 0 
L 581 3500 
L 1159 3500 
L 1159 2956 
Q 1341 3275 1631 3429 
Q 1922 3584 2338 3584 
Q 2397 3584 2469 3576 
Q 2541 3569 2628 3553 
L 2631 2963 
z
" id="DejaVuSans-72" transform="scale(0.015625)"/>
       <path d="M 3122 3366 
L 3122 2828 
Q 2878 2963 2633 3030 
Q 2388 3097 2138 3097 
Q 1578 3097 1268 2742 
Q 959 2388 959 1747 
Q 959 1106 1268 751 
Q 1578 397 2138 397 
Q 2388 397 2633 464 
Q 2878 531 3122 666 
L 3122 134 
Q 2881 22 2623 -34 
Q 2366 -91 2075 -91 
Q 1284 -91 818 406 
Q 353 903 353 1747 
Q 353 2603 823 3093 
Q 1294 3584 2113 3584 
Q 2378 3584 2631 3529 
Q 2884 3475 3122 3366 
z
" id="DejaVuSans-63" transform="scale(0.015625)"/>
       <path d="M 1172 4494 
L 1172 3500 
L 2356 3500 
L 2356 3053 
L 1172 3053 
L 1172 1153 
Q 1172 725 1289 603 
Q 1406 481 1766 481 
L 2356 481 
L 2356 0 
L 1766 0 
Q 1100 0 847 248 
Q 594 497 594 1153 
L 594 3053 
L 172 3053 
L 172 3500 
L 594 3500 
L 594 4494 
L 1172 4494 
z
" id="DejaVuSans-74" transform="scale(0.015625)"/>
       <path d="M 544 1381 
L 544 3500 
L 1119 3500 
L 1119 1403 
Q 1119 906 1312 657 
Q 1506 409 1894 409 
Q 2359 409 2629 706 
Q 2900 1003 2900 1516 
L 2900 3500 
L 3475 3500 
L 3475 0 
L 2900 0 
L 2900 538 
Q 2691 219 2414 64 
Q 2138 -91 1772 -91 
Q 1169 -91 856 284 
Q 544 659 544 1381 
z
M 1991 3584 
L 1991 3584 
z
" id="DejaVuSans-75" transform="scale(0.015625)"/>
       <path d="M 750 794 
L 1409 794 
L 1409 256 
L 897 -744 
L 494 -744 
L 750 256 
L 750 794 
z
" id="DejaVuSans-2c" transform="scale(0.015625)"/>
       <path d="M 1159 525 
L 1159 -1331 
L 581 -1331 
L 581 3500 
L 1159 3500 
L 1159 2969 
Q 1341 3281 1617 3432 
Q 1894 3584 2278 3584 
Q 2916 3584 3314 3078 
Q 3713 2572 3713 1747 
Q 3713 922 3314 415 
Q 2916 -91 2278 -91 
Q 1894 -91 1617 61 
Q 1341 213 1159 525 
z
M 3116 1747 
Q 3116 2381 2855 2742 
Q 2594 3103 2138 3103 
Q 1681 3103 1420 2742 
Q 1159 2381 1159 1747 
Q 1159 1113 1420 752 
Q 1681 391 2138 391 
Q 2594 391 2855 752 
Q 3116 1113 3116 1747 
z
" id="DejaVuSans-70" transform="scale(0.015625)"/>
      </defs>
      <use xlink:href="#DejaVuSans-46"/>
      <use x="50.269531" xlink:href="#DejaVuSans-72"/>
      <use x="91.382812" xlink:href="#DejaVuSans-61"/>
      <use x="152.662109" xlink:href="#DejaVuSans-63"/>
      <use x="207.642578" xlink:href="#DejaVuSans-74"/>
      <use x="246.851562" xlink:href="#DejaVuSans-69"/>
      <use x="274.634766" xlink:href="#DejaVuSans-6f"/>
      <use x="335.816406" xlink:href="#DejaVuSans-6e"/>
      <use x="399.195312" xlink:href="#DejaVuSans-20"/>
      <use x="430.982422" xlink:href="#DejaVuSans-6f"/>
      <use x="492.164062" xlink:href="#DejaVuSans-66"/>
      <use x="527.369141" xlink:href="#DejaVuSans-20"/>
      <use x="559.15625" xlink:href="#DejaVuSans-66"/>
      <use x="594.361328" xlink:href="#DejaVuSans-75"/>
      <use x="657.740234" xlink:href="#DejaVuSans-6e"/>
      <use x="721.119141" xlink:href="#DejaVuSans-63"/>
      <use x="776.099609" xlink:href="#DejaVuSans-74"/>
      <use x="815.308594" xlink:href="#DejaVuSans-69"/>
      <use x="843.091797" xlink:href="#DejaVuSans-6f"/>
      <use x="904.273438" xlink:href="#DejaVuSans-6e"/>
      <use x="967.652344" xlink:href="#DejaVuSans-2c"/>
      <use x="999.439453" xlink:href="#DejaVuSans-74"/>
      <use x="1038.648438" xlink:href="#DejaVuSans-61"/>
      <use x="1099.927734" xlink:href="#DejaVuSans-72"/>
      <use x="1139.291016" xlink:href="#DejaVuSans-67"/>
      <use x="1202.767578" xlink:href="#DejaVuSans-65"/>
      <use x="1264.291016" xlink:href="#DejaVuSans-74"/>
      <use x="1303.5" xlink:href="#DejaVuSans-20"/>
      <use x="1335.287109" xlink:href="#DejaVuSans-70"/>
      <use x="1398.763672" xlink:href="#DejaVuSans-61"/>
      <use x="1460.042969" xlink:href="#DejaVuSans-69"/>
      <use x="1487.826172" xlink:href="#DejaVuSans-72"/>
      <use x="1528.939453" xlink:href="#DejaVuSans-73"/>
     </g>
    </g>
   </g>
   <g id="line2d_33">
    <defs>
     <path d="M 0 1.5 
C 0.397805 1.5 0.77937 1.341951 1.06066 1.06066 
C 1.341951 0.77937 1.5 0.397805 1.5 0 
C 1.5 -0.397805 1.341951 -0.77937 1.06066 -1.06066 
C 0.77937 -1.341951 0.397805 -1.5 0 -1.5 
C -0.397805 -1.5 -0.77937 -1.341951 -1.06066 -1.06066 
C -1.341951 -0.77937 -1.5 -0.397805 -1.5 0 
C -1.5 0.397805 -1.341951 0.77937 -1.06066 1.06066 
C -0.77937 1.341951 -0.397805 1.5 0 1.5 
z
" id="mde9b4aa001" style="stroke:#f5deb3;"/>
    </defs>
    <g>
     <use style="fill:#f5deb3;stroke:#f5deb3;" x="163.59914" xlink:href="#mde9b4aa001" y="27.648"/>
     <use style="fill:#f5deb3;stroke:#f5deb3;" x="163.59914" xlink:href="#mde9b4aa001" y="27.648"/>
    </g>
   </g>
   <g id="line2d_34">
    <defs>
     <path d="M 0 1.5 
C 0.397805 1.5 0.77937 1.341951 1.06066 1.06066 
C 1.341951 0.77937 1.5 0.397805 1.5 0 
C 1.5 -0.397805 1.341951 -0.77937 1.06066 -1.06066 
C 0.77937 -1.341951 0.397805 -1.5 0 -1.5 
C -0.397805 -1.5 -0.77937 -1.341951 -1.06066 -1.06066 
C -1.341951 -0.77937 -1.5 -0.397805 -1.5 0 
C -1.5 0.397805 -1.341951 0.77937 -1.06066 1.06066 
C -0.77937 1.341951 -0.397805 1.5 0 1.5 
z
" id="m985ad8d8ea" style="stroke:#000080;"/>
    </defs>
    <g>
     <use style="fill:#000080;stroke:#000080;" x="265.710708" xlink:href="#m985ad8d8ea" y="27.648"/>
     <use style="fill:#000080;stroke:#000080;" x="265.710708" xlink:href="#m985ad8d8ea" y="27.648"/>
    </g>
   </g>
   <g id="line2d_35">
    <path d="M 44.560826 298.944 
L 44.560826 295.397647 
L 57.6 295.397647 
L 57.6 289.723482 
L 65.227428 289.723482 
L 65.227428 286.8864 
L 70.639174 286.8864 
L 70.639174 282.985412 
L 74.836851 282.985412 
L 74.836851 281.566871 
L 78.266603 281.566871 
L 78.266603 275.183435 
L 81.166416 275.183435 
L 81.166416 273.410259 
L 83.678349 273.410259 
L 83.678349 272.700988 
L 89.668958 272.700988 
L 89.668958 271.282447 
L 92.811505 271.282447 
L 92.811505 270.573176 
L 96.717523 270.573176 
L 96.717523 268.8 
L 97.857967 268.8 
L 97.857967 267.381459 
L 98.933205 267.381459 
L 98.933205 266.672188 
L 101.833019 266.672188 
L 101.833019 266.317553 
L 112.487797 266.317553 
L 112.487797 265.608282 
L 116.170056 265.608282 
L 116.170056 263.835106 
L 117.772007 263.835106 
L 117.772007 263.480471 
L 119.944983 263.480471 
L 119.944983 262.7712 
L 121.892744 262.7712 
L 121.892744 262.061929 
L 122.499621 262.061929 
L 122.499621 259.579482 
L 127.686077 259.579482 
L 127.686077 258.160941 
L 133.490329 258.160941 
L 133.490329 257.806306 
L 135.981441 257.806306 
L 135.981441 257.451671 
L 139.435481 257.451671 
L 139.435481 257.097035 
L 140.611586 257.097035 
L 140.611586 256.7424 
L 140.838234 256.7424 
L 140.838234 256.387765 
L 142.352625 256.387765 
L 142.352625 256.033129 
L 143.754133 256.033129 
L 143.754133 253.905318 
L 144.324223 253.905318 
L 144.324223 253.550682 
L 146.446082 253.550682 
L 146.446082 252.486776 
L 146.612557 252.486776 
L 146.612557 252.132141 
L 147.103321 252.132141 
L 147.103321 251.777506 
L 147.423525 251.777506 
L 147.423525 251.068235 
L 155.649849 251.068235 
L 155.649849 249.295059 
L 158.933807 249.295059 
L 158.933807 247.167247 
L 159.857774 247.167247 
L 159.857774 246.103341 
L 160.816532 246.103341 
L 160.816532 245.748706 
L 161.278189 245.748706 
L 161.278189 245.394071 
L 162.023298 245.394071 
L 162.023298 245.039435 
L 163.632702 245.039435 
L 163.632702 242.911624 
L 164.09639 242.911624 
L 164.09639 239.010635 
L 165.483464 239.010635 
L 165.483464 232.981835 
L 165.725029 232.981835 
L 165.725029 232.6272 
L 166.546881 232.6272 
L 166.546881 232.272565 
L 167.16834 232.272565 
L 167.16834 231.917929 
L 167.769923 231.917929 
L 167.769923 231.563294 
L 168.037137 231.563294 
L 168.037137 230.854024 
L 170.841952 230.854024 
L 170.841952 229.790118 
L 171.559524 229.790118 
L 171.559524 229.435482 
L 171.778266 229.435482 
L 171.778266 229.080847 
L 173.679622 229.080847 
L 173.679622 228.726212 
L 176.213656 228.726212 
L 176.213656 222.342776 
L 179.282053 222.342776 
L 179.282053 221.988141 
L 180.469652 221.988141 
L 180.497035 219.860329 
L 180.822549 219.860329 
L 180.822549 217.377882 
L 182.955878 217.377882 
L 182.955878 215.959341 
L 183.546742 215.959341 
L 183.546742 215.604706 
L 189.071575 215.604706 
L 189.071575 215.250071 
L 190.619286 215.250071 
L 190.619286 213.122259 
L 193.225837 213.122259 
L 193.225837 212.767624 
L 193.543048 212.767624 
L 193.543048 212.058353 
L 195.965017 212.058353 
L 195.989049 210.639812 
L 196.108754 210.639812 
L 196.108754 210.285176 
L 196.822906 210.285176 
L 196.822906 209.930541 
L 196.983054 209.930541 
L 197.073959 209.221271 
L 197.544132 209.221271 
L 197.544132 207.802729 
L 198.142584 207.802729 
L 198.142584 207.448094 
L 198.64975 207.448094 
L 198.64975 206.384188 
L 199.475756 206.384188 
L 199.475756 204.965647 
L 199.624818 204.965647 
L 199.664369 203.547106 
L 199.938923 203.547106 
L 200.026329 202.837835 
L 200.390961 202.837835 
L 200.390961 202.128565 
L 201.127119 202.128565 
L 201.127119 201.773929 
L 201.444277 201.773929 
L 201.444277 201.064659 
L 201.605328 201.064659 
L 201.694208 197.872941 
L 201.879502 197.872941 
L 201.879502 197.518306 
L 202.645144 197.518306 
L 202.645144 197.163671 
L 202.879716 197.163671 
L 202.879716 196.4544 
L 203.340262 196.4544 
L 203.340262 195.390494 
L 203.734193 195.390494 
L 203.734193 194.681224 
L 204.221099 194.681224 
L 204.221099 194.326588 
L 204.521044 194.326588 
L 204.521044 193.262682 
L 205.938822 193.262682 
L 205.938822 192.908047 
L 206.170893 192.908047 
L 206.170893 191.134871 
L 206.344817 191.134871 
L 206.344817 190.4256 
L 206.530867 190.4256 
L 206.530867 189.361694 
L 206.957959 189.361694 
L 207.00482 187.588518 
L 207.09154 187.588518 
L 207.09154 186.524612 
L 207.336193 186.524612 
L 207.336193 186.169976 
L 207.4606 186.169976 
L 207.4606 185.815341 
L 207.616578 185.815341 
L 207.616578 185.460706 
L 207.764854 185.460706 
L 207.764854 185.106071 
L 207.924708 185.106071 
L 207.981925 182.268988 
L 208.315383 182.268988 
L 208.315383 181.914353 
L 208.685883 181.914353 
L 208.783463 180.141176 
L 208.916814 180.141176 
L 208.916814 178.722635 
L 209.186669 178.722635 
L 209.186669 176.594824 
L 209.622182 176.594824 
L 209.622182 175.530918 
L 209.738178 175.530918 
L 209.818951 174.467012 
L 209.859208 174.467012 
L 209.950902 173.048471 
L 210.436243 173.048471 
L 210.475202 170.566024 
L 210.838615 170.566024 
L 210.838615 170.211388 
L 211.20584 170.211388 
L 211.232561 167.374306 
L 211.738377 167.374306 
L 211.842065 165.601129 
L 212.00166 165.601129 
L 212.052855 164.182588 
L 212.164996 164.182588 
L 212.164996 163.827953 
L 212.321886 163.827953 
L 212.321886 163.118682 
L 212.715886 163.118682 
L 212.715886 161.345506 
L 213.04369 161.345506 
L 213.116303 158.863059 
L 213.327698 158.863059 
L 213.384941 156.025976 
L 213.752836 156.025976 
L 213.752836 154.962071 
L 214.708983 154.962071 
L 214.708983 154.607435 
L 214.850507 154.607435 
L 214.929648 152.124988 
L 215.030292 152.124988 
L 215.126059 150.706447 
L 215.255869 150.706447 
L 215.255869 149.287906 
L 215.427567 149.287906 
L 215.508578 145.741553 
L 215.644233 145.741553 
L 215.644233 143.613741 
L 215.962548 143.613741 
L 216.004034 141.131294 
L 216.340807 141.131294 
L 216.434195 139.712753 
L 217.374277 139.712753 
L 217.435822 137.230306 
L 217.634463 137.230306 
L 217.642061 134.393224 
L 217.898595 134.393224 
L 217.898595 133.683953 
L 218.047879 133.683953 
L 218.047879 133.329318 
L 218.240194 133.329318 
L 218.313641 131.201506 
L 218.488752 131.201506 
L 218.488752 130.846871 
L 218.698193 130.846871 
L 218.698193 130.1376 
L 218.923077 130.1376 
L 218.923077 129.073694 
L 219.385723 129.073694 
L 219.475524 125.881976 
L 219.558038 125.881976 
L 219.582037 123.399529 
L 219.708381 123.399529 
L 219.786494 118.434635 
L 220.082401 118.434635 
L 220.112403 115.597553 
L 220.218693 115.597553 
L 220.301316 113.115106 
L 220.455671 113.115106 
L 220.455671 112.405835 
L 220.641185 112.405835 
L 220.641185 110.278024 
L 220.770286 110.278024 
L 220.770286 109.923388 
L 220.978203 109.923388 
L 220.978203 109.568753 
L 221.161809 109.568753 
L 221.259214 108.859482 
L 221.318665 108.859482 
L 221.318665 107.795576 
L 221.573109 107.795576 
L 221.573109 107.440941 
L 221.760184 107.440941 
L 221.811989 106.377035 
L 221.881853 106.377035 
L 221.957499 104.958494 
L 222.143798 104.958494 
L 222.23626 103.185318 
L 222.27193 103.185318 
L 222.357855 101.412141 
L 222.458097 101.412141 
L 222.510951 99.9936 
L 222.674442 99.9936 
L 222.773015 99.284329 
L 222.824993 99.284329 
L 222.839406 96.092612 
L 222.982929 96.092612 
L 222.982929 95.737976 
L 223.148056 95.737976 
L 223.148056 95.028706 
L 223.266733 95.028706 
L 223.272365 92.900894 
L 223.679057 92.900894 
L 223.753314 91.482353 
L 223.870972 91.482353 
L 223.870972 90.418447 
L 224.157908 90.418447 
L 224.157908 90.063812 
L 225.136711 90.063812 
L 225.146909 86.872094 
L 225.253656 86.872094 
L 225.253656 86.517459 
L 225.427722 86.517459 
L 225.477876 85.453553 
L 225.597703 85.453553 
L 225.667251 82.971106 
L 225.800658 82.971106 
L 225.830176 81.552565 
L 226.441968 81.552565 
L 226.534531 80.488659 
L 226.577099 80.488659 
L 226.577099 79.070118 
L 226.701882 79.070118 
L 226.751097 76.233035 
L 226.948992 76.233035 
L 226.948992 75.169129 
L 227.115008 75.169129 
L 227.115008 73.750588 
L 227.532732 73.750588 
L 227.640195 71.268141 
L 227.742607 71.268141 
L 227.804673 67.367153 
L 228.313361 67.367153 
L 228.313361 66.657882 
L 229.651746 66.657882 
L 229.651746 66.303247 
L 229.79961 66.303247 
L 229.79961 65.239341 
L 230.373918 65.239341 
L 230.475956 62.047624 
L 231.034007 62.047624 
L 231.141805 60.629082 
L 231.228707 60.629082 
L 231.228707 60.274447 
L 231.47611 60.274447 
L 231.47611 59.919812 
L 231.608548 59.919812 
L 231.608548 58.501271 
L 231.784888 58.501271 
L 231.784888 57.792 
L 232.048103 57.792 
L 232.048103 57.437365 
L 232.185356 57.437365 
L 232.185356 56.373459 
L 232.340753 56.373459 
L 232.415374 55.664188 
L 232.669972 55.664188 
L 232.669972 54.245647 
L 232.82821 54.245647 
L 232.875592 52.472471 
L 233.045522 52.472471 
L 233.045522 52.117835 
L 233.182364 52.117835 
L 233.182364 51.408565 
L 233.428497 51.408565 
L 233.428497 50.344659 
L 244.417171 50.344659 
L 244.417171 49.280753 
L 245.159988 49.280753 
L 245.159988 48.926118 
L 245.796512 48.926118 
L 245.796512 48.571482 
L 245.969193 48.571482 
L 246.062491 47.507576 
L 246.095161 47.507576 
L 246.095161 47.152941 
L 246.378428 47.152941 
L 246.39491 46.443671 
L 246.848233 46.443671 
L 246.955679 45.7344 
L 246.959677 45.7344 
L 247.036262 44.315859 
L 247.189292 44.315859 
L 247.189292 43.961224 
L 247.522727 43.961224 
L 247.522727 43.606588 
L 247.747911 43.606588 
L 247.835862 42.542682 
L 248.021121 42.542682 
L 248.067905 41.478776 
L 248.150625 41.478776 
L 248.150625 41.124141 
L 248.497813 41.124141 
L 248.586001 38.641694 
L 248.627746 38.641694 
L 248.703674 37.577788 
L 248.992882 37.577788 
L 249.074499 36.868518 
L 249.22109 36.868518 
L 249.297489 36.159247 
L 249.554115 36.159247 
L 249.554115 35.804612 
L 249.905285 35.804612 
L 249.993934 34.386071 
L 250.173357 34.386071 
L 250.261425 33.322165 
L 250.366432 33.322165 
L 250.366432 32.967529 
L 250.488756 32.967529 
L 250.550942 32.258259 
L 251.846669 32.258259 
L 251.846669 31.903624 
L 251.985484 31.903624 
L 251.985484 31.548988 
L 252.229296 31.548988 
L 252.229296 31.194353 
L 252.428791 31.194353 
L 252.428791 30.839718 
L 257.204162 30.839718 
L 257.204162 30.485082 
L 258.23234 30.485082 
L 258.23234 30.130447 
L 259.364142 30.130447 
L 259.474611 29.066541 
L 260.132472 29.066541 
L 260.132472 28.711906 
L 261.063884 28.711906 
L 261.063884 28.002635 
L 265.710708 28.002635 
L 265.710708 27.648 
L 360.8064 27.648 
L 360.8064 27.648 
" style="fill:none;stroke:#000080;stroke-linecap:square;stroke-width:1.5;"/>
   </g>
   <g id="line2d_36">
    <defs>
     <path d="M 0 6 
C 1.591219 6 3.117479 5.367802 4.242641 4.242641 
C 5.367802 3.117479 6 1.591219 6 0 
C 6 -1.591219 5.367802 -3.117479 4.242641 -4.242641 
C 3.117479 -5.367802 1.591219 -6 0 -6 
C -1.591219 -6 -3.117479 -5.367802 -4.242641 -4.242641 
C -5.367802 -3.117479 -6 -1.591219 -6 0 
C -6 1.591219 -5.367802 3.117479 -4.242641 4.242641 
C -3.117479 5.367802 -1.591219 6 0 6 
z
" id="m0db82ece40" style="stroke:#000080;stroke-width:1.5;"/>
    </defs>
    <g>
     <use style="fill-opacity:0;stroke:#000080;stroke-width:1.5;" x="127.686077" xlink:href="#m0db82ece40" y="258.160941"/>
     <use style="fill-opacity:0;stroke:#000080;stroke-width:1.5;" x="201.605328" xlink:href="#m0db82ece40" y="201.064659"/>
     <use style="fill-opacity:0;stroke:#000080;stroke-width:1.5;" x="229.651746" xlink:href="#m0db82ece40" y="66.303247"/>
     <use style="fill-opacity:0;stroke:#000080;stroke-width:1.5;" x="265.710708" xlink:href="#m0db82ece40" y="27.648"/>
     <use style="fill-opacity:0;stroke:#000080;stroke-width:1.5;" x="265.710708" xlink:href="#m0db82ece40" y="27.648"/>
     <use style="fill-opacity:0;stroke:#000080;stroke-width:1.5;" x="360.8064" xlink:href="#m0db82ece40" y="27.648"/>
    </g>
   </g>
   <g id="line2d_37">
    <path style="fill:none;stroke:#000080;stroke-linecap:square;stroke-width:1.5;"/>
    <g/>
   </g>
   <g id="line2d_38">
    <path clip-path="url(#p482ff7b2d5)" d="M 243.909378 50.344659 
" style="fill:none;stroke:#000080;stroke-linecap:square;stroke-width:1.5;"/>
    <defs>
     <path d="M -12 12 
L 12 -12 
M -12 -12 
L 12 12 
" id="m6676b02088" style="stroke:#000080;"/>
    </defs>
    <g clip-path="url(#p482ff7b2d5)">
     <use style="fill:#000080;stroke:#000080;" x="243.909378" xlink:href="#m6676b02088" y="50.344659"/>
    </g>
   </g>
   <g id="line2d_39">
    <defs>
     <path d="M 0 1.5 
C 0.397805 1.5 0.77937 1.341951 1.06066 1.06066 
C 1.341951 0.77937 1.5 0.397805 1.5 0 
C 1.5 -0.397805 1.341951 -0.77937 1.06066 -1.06066 
C 0.77937 -1.341951 0.397805 -1.5 0 -1.5 
C -0.397805 -1.5 -0.77937 -1.341951 -1.06066 -1.06066 
C -1.341951 -0.77937 -1.5 -0.397805 -1.5 0 
C -1.5 0.397805 -1.341951 0.77937 -1.06066 1.06066 
C -0.77937 1.341951 -0.397805 1.5 0 1.5 
z
" id="m7b4cae23c1" style="stroke:#ff00ff;"/>
    </defs>
    <g>
     <use style="fill:#ff00ff;stroke:#ff00ff;" x="210.369268" xlink:href="#m7b4cae23c1" y="27.648"/>
     <use style="fill:#ff00ff;stroke:#ff00ff;" x="210.369268" xlink:href="#m7b4cae23c1" y="27.648"/>
    </g>
   </g>
   <g id="line2d_40">
    <path d="M 44.560826 298.944 
L 44.560826 286.531765 
L 57.6 286.531765 
L 57.6 279.793694 
L 65.227428 279.793694 
L 65.227428 278.729788 
L 70.639174 278.729788 
L 70.639174 274.8288 
L 74.836851 274.8288 
L 74.836851 273.764894 
L 78.266603 273.764894 
L 78.266603 271.282447 
L 83.678349 271.282447 
L 83.678349 270.218541 
L 85.894031 270.218541 
L 85.894031 269.154635 
L 89.668958 269.154635 
L 89.668958 268.445365 
L 94.205591 268.445365 
L 94.205591 267.381459 
L 95.503454 267.381459 
L 95.503454 266.317553 
L 97.857967 266.317553 
L 97.857967 265.608282 
L 99.950294 265.608282 
L 99.950294 264.189741 
L 103.544339 264.189741 
L 103.544339 261.707294 
L 107.244765 261.707294 
L 107.244765 260.643388 
L 108.542628 260.643388 
L 108.542628 259.934118 
L 110.335561 259.934118 
L 110.335561 259.579482 
L 111.97238 259.579482 
L 111.97238 256.033129 
L 112.487797 256.033129 
L 112.487797 255.323859 
L 113.478107 255.323859 
L 113.478107 254.969224 
L 114.872193 254.969224 
L 114.872193 253.196047 
L 118.889854 253.196047 
L 118.889854 252.841412 
L 121.265635 252.841412 
L 121.265635 252.132141 
L 122.795872 252.132141 
L 122.795872 250.7136 
L 123.374735 250.7136 
L 123.374735 250.358965 
L 124.210942 250.358965 
L 124.210942 249.295059 
L 124.748451 249.295059 
L 124.748451 248.940424 
L 125.011554 248.940424 
L 125.011554 247.521882 
L 129.622688 247.521882 
L 129.622688 247.167247 
L 131.378407 247.167247 
L 131.378407 246.812612 
L 131.563744 246.812612 
L 131.563744 246.457976 
L 132.287354 246.457976 
L 132.287354 246.103341 
L 135.687504 246.103341 
L 135.687504 244.6848 
L 136.696795 244.6848 
L 136.696795 243.266259 
L 138.310202 243.266259 
L 138.310202 242.911624 
L 138.943648 242.911624 
L 138.943648 241.847718 
L 139.313723 241.847718 
L 139.313723 241.493082 
L 140.14993 241.493082 
L 140.14993 241.138447 
L 140.382174 241.138447 
L 140.382174 240.074541 
L 140.725251 240.074541 
L 140.725251 239.719906 
L 141.173167 239.719906 
L 141.173167 237.592094 
L 141.393187 237.592094 
L 141.393187 237.237459 
L 141.718467 237.237459 
L 141.718467 236.528188 
L 141.932237 236.528188 
L 141.932237 235.464282 
L 142.143605 235.464282 
L 142.143605 234.400376 
L 142.559347 234.400376 
L 142.661862 233.336471 
L 143.265494 233.336471 
L 143.265494 232.981835 
L 143.462475 232.981835 
L 143.560197 231.917929 
L 143.657415 231.917929 
L 143.657415 231.563294 
L 144.324223 231.563294 
L 144.417581 230.854024 
L 144.694906 230.854024 
L 144.694906 230.499388 
L 144.877544 230.499388 
L 144.877544 229.790118 
L 145.678157 229.790118 
L 145.678157 226.5984 
L 145.851536 226.5984 
L 145.851536 225.889129 
L 146.27812 225.889129 
L 146.27812 224.470588 
L 146.446082 224.470588 
L 146.529503 223.406682 
L 147.893838 223.406682 
L 147.893838 222.342776 
L 148.048032 222.342776 
L 148.048032 221.633506 
L 148.276979 221.633506 
L 148.276979 220.924235 
L 148.57797 220.924235 
L 148.57797 220.214965 
L 148.800595 220.214965 
L 148.800595 218.087153 
L 149.595059 218.087153 
L 149.595059 217.023247 
L 149.806031 217.023247 
L 149.806031 216.313976 
L 150.014665 216.313976 
L 150.083698 215.604706 
L 150.221009 215.604706 
L 150.289291 214.186165 
L 150.357325 214.186165 
L 150.357325 213.476894 
L 150.492661 213.476894 
L 150.492661 213.122259 
L 150.62703 213.122259 
L 150.62703 210.639812 
L 151.155108 210.639812 
L 151.220087 209.575906 
L 151.284843 209.575906 
L 151.284843 209.221271 
L 151.41369 209.221271 
L 151.41369 208.512 
L 151.54166 208.512 
L 151.54166 208.157365 
L 151.982822 208.157365 
L 152.045009 205.674918 
L 152.16877 205.674918 
L 152.16877 202.837835 
L 152.413875 202.837835 
L 152.413875 199.646118 
L 152.953957 199.646118 
L 152.953957 198.227576 
L 153.363556 198.227576 
L 153.363556 195.390494 
L 153.478964 195.390494 
L 153.478964 192.553412 
L 153.877408 192.553412 
L 153.877408 192.198776 
L 154.04562 192.198776 
L 154.04562 191.844141 
L 154.918196 191.844141 
L 154.918196 189.716329 
L 155.13016 189.716329 
L 155.13016 189.361694 
L 155.547053 189.361694 
L 155.598521 186.879247 
L 155.752086 186.879247 
L 155.85377 185.815341 
L 155.954908 185.815341 
L 155.954908 182.623624 
L 156.105602 182.623624 
L 156.205398 180.495812 
L 156.304668 180.495812 
L 156.304668 180.141176 
L 156.452597 180.141176 
L 156.550574 179.431906 
L 156.599372 179.431906 
L 156.696589 178.013365 
L 156.745011 178.013365 
L 156.84148 173.757741 
L 157.080512 173.757741 
L 157.080512 173.403106 
L 157.363398 173.403106 
L 157.456756 172.693835 
L 157.549652 172.693835 
L 157.549652 172.3392 
L 158.052543 172.3392 
L 158.14255 171.275294 
L 158.232129 171.275294 
L 158.232129 170.920659 
L 158.365703 170.920659 
L 158.454228 169.856753 
L 158.542339 169.856753 
L 158.58624 167.374306 
L 158.673735 167.374306 
L 158.673735 167.019671 
L 158.847515 167.019671 
L 158.847515 166.3104 
L 159.317295 166.3104 
L 159.317295 165.955765 
L 159.61025 165.955765 
L 159.693121 165.246494 
L 159.734419 165.246494 
L 159.816746 164.182588 
L 160.18282 164.182588 
L 160.263211 163.473318 
L 160.4627 163.473318 
L 160.502345 162.764047 
L 160.581385 162.764047 
L 160.581385 162.409412 
L 160.699326 162.409412 
L 160.777545 161.345506 
L 160.855439 161.345506 
L 160.855439 160.990871 
L 161.163832 160.990871 
L 161.163832 160.636235 
L 161.316153 160.636235 
L 161.316153 159.926965 
L 161.617145 159.926965 
L 161.617145 159.572329 
L 161.839769 159.572329 
L 161.913396 156.380612 
L 162.023298 156.380612 
L 162.023298 156.025976 
L 162.168843 156.025976 
L 162.241195 154.962071 
L 162.420867 154.962071 
L 162.492258 152.834259 
L 162.56338 152.834259 
L 162.56338 152.479624 
L 163.362513 152.479624 
L 163.464289 151.061082 
L 163.531835 151.061082 
L 163.565517 150.351812 
L 163.865975 150.351812 
L 163.899064 148.224 
L 163.997986 148.224 
L 164.063646 146.805459 
L 164.129077 146.805459 
L 164.2268 146.096188 
L 164.291668 146.096188 
L 164.291668 145.032282 
L 164.484939 145.032282 
L 164.580835 143.968376 
L 164.644495 143.968376 
L 164.739583 141.485929 
L 164.865624 141.485929 
L 164.865624 141.131294 
L 165.084184 141.131294 
L 165.084184 140.776659 
L 165.300233 140.776659 
L 165.392072 140.067388 
L 165.51383 140.067388 
L 165.574415 139.358118 
L 165.634805 139.358118 
L 165.634805 139.003482 
L 165.814821 139.003482 
L 165.814821 138.648847 
L 165.96353 138.648847 
L 166.052194 137.584941 
L 166.140442 137.584941 
L 166.140442 137.230306 
L 166.373767 137.230306 
L 166.373767 136.875671 
L 167.112684 136.875671 
L 167.112684 136.521035 
L 167.306762 136.521035 
L 167.306762 136.1664 
L 167.471536 136.1664 
L 167.471536 135.811765 
L 167.769923 135.811765 
L 167.769923 135.102494 
L 168.037137 135.102494 
L 168.090128 133.683953 
L 168.560441 133.683953 
L 168.611979 132.620047 
L 168.740211 132.620047 
L 168.816733 131.910776 
L 169.343842 131.910776 
L 169.343842 131.556141 
L 169.467197 131.556141 
L 169.467197 131.201506 
L 169.638546 131.201506 
L 169.662898 130.492235 
L 169.784185 130.492235 
L 169.808349 129.782965 
L 170.072123 129.782965 
L 170.167131 129.073694 
L 170.190808 129.073694 
L 170.214455 128.364424 
L 171.800001 128.364424 
L 171.800001 128.009788 
L 171.972982 128.009788 
L 172.080292 127.300518 
L 172.229507 127.300518 
L 172.314244 126.236612 
L 172.482581 126.236612 
L 172.545321 125.527341 
L 172.814802 125.527341 
L 172.814802 124.818071 
L 173.221995 124.818071 
L 173.28232 123.044894 
L 173.362455 123.044894 
L 173.362455 122.690259 
L 173.48202 122.690259 
L 173.56131 121.980988 
L 173.699269 121.980988 
L 173.699269 121.626353 
L 174.010854 121.626353 
L 174.087951 120.562447 
L 174.126381 120.562447 
L 174.18388 119.498541 
L 174.786503 119.498541 
L 174.897377 118.434635 
L 174.989276 118.434635 
L 175.007602 117.370729 
L 175.117184 117.370729 
L 175.208017 116.661459 
L 175.244228 116.661459 
L 175.244228 116.306824 
L 175.567027 116.306824 
L 175.638014 115.242918 
L 175.708734 115.242918 
L 175.708734 114.888282 
L 175.849382 114.888282 
L 175.849382 114.179012 
L 175.988986 114.179012 
L 176.075715 112.760471 
L 176.144812 112.760471 
L 176.230828 111.696565 
L 176.299358 111.696565 
L 176.299358 111.341929 
L 176.469599 111.341929 
L 176.57101 110.278024 
L 176.671876 110.278024 
L 176.671876 109.923388 
L 176.805529 109.923388 
L 176.855405 109.214118 
L 176.971271 109.214118 
L 176.987765 108.504847 
L 177.1192 108.504847 
L 177.1192 108.150212 
L 177.298436 108.150212 
L 177.298436 107.795576 
L 177.556133 107.795576 
L 177.60406 106.731671 
L 177.715419 106.731671 
L 177.747115 106.0224 
L 177.889089 106.0224 
L 177.889089 105.667765 
L 178.09229 105.667765 
L 178.169864 104.958494 
L 178.262532 104.958494 
L 178.354746 103.185318 
L 178.415971 103.185318 
L 178.492224 102.476047 
L 178.613589 102.476047 
L 178.613589 102.121412 
L 178.749196 102.121412 
L 178.749196 101.766776 
L 178.91362 101.766776 
L 178.987886 101.057506 
L 179.032306 101.057506 
L 179.07662 100.348235 
L 179.179617 100.348235 
L 179.223586 99.638965 
L 179.427429 99.638965 
L 179.427429 98.929694 
L 179.557313 98.929694 
L 179.614753 98.220424 
L 179.800231 98.220424 
L 179.842775 97.156518 
L 179.913468 97.156518 
L 179.927575 96.092612 
L 180.082057 96.092612 
L 180.096038 95.383341 
L 180.263006 95.383341 
L 180.263006 95.028706 
L 180.455946 95.028706 
L 180.483348 94.319435 
L 180.59256 94.319435 
L 180.674054 93.255529 
L 180.903055 93.255529 
L 180.903055 92.900894 
L 181.35286 92.900894 
L 181.392038 91.482353 
L 181.522042 91.482353 
L 181.522042 91.127718 
L 181.67687 91.127718 
L 181.67687 90.773082 
L 181.894052 90.773082 
L 181.894052 90.418447 
L 182.083622 90.418447 
L 182.083622 90.063812 
L 182.221437 90.063812 
L 182.283747 88.999906 
L 182.358249 88.999906 
L 182.444795 87.226729 
L 182.604477 87.226729 
L 182.689901 86.162824 
L 182.799165 86.162824 
L 182.799165 85.808188 
L 183.075545 85.808188 
L 183.146981 84.389647 
L 183.430044 84.389647 
L 183.430044 84.035012 
L 183.639581 84.035012 
L 183.639581 83.680376 
L 183.800956 83.680376 
L 183.90397 82.616471 
L 183.983705 82.616471 
L 184.05178 81.9072 
L 184.288124 81.9072 
L 184.288124 81.552565 
L 184.444052 81.552565 
L 184.444052 81.197929 
L 184.653623 81.197929 
L 184.653623 80.843294 
L 184.87173 80.843294 
L 184.979843 79.779388 
L 185.001391 79.779388 
L 185.087338 78.006212 
L 185.183561 78.006212 
L 185.279294 76.942306 
L 185.300502 76.942306 
L 185.385096 75.8784 
L 185.469311 75.8784 
L 185.469311 75.523765 
L 185.647027 75.523765 
L 185.647027 75.169129 
L 185.761131 75.169129 
L 185.761131 74.814494 
L 186.089188 74.814494 
L 186.109503 73.395953 
L 186.210749 73.395953 
L 186.321495 72.686682 
L 186.34156 72.686682 
L 186.34156 72.332047 
L 186.461507 72.332047 
L 186.51126 71.268141 
L 186.620255 71.268141 
L 186.620255 70.913506 
L 186.962916 70.913506 
L 186.962916 70.558871 
L 187.242181 70.558871 
L 187.280377 69.8496 
L 187.385018 69.8496 
L 187.385018 69.494965 
L 187.498512 69.494965 
L 187.526779 68.431059 
L 187.620696 68.431059 
L 187.714147 67.721788 
L 187.769995 67.721788 
L 187.862709 66.303247 
L 188.119902 66.303247 
L 188.156358 65.239341 
L 188.256251 65.239341 
L 188.274356 64.530071 
L 188.409595 64.530071 
L 188.409595 64.175435 
L 188.61509 64.175435 
L 188.623973 63.466165 
L 188.800775 63.466165 
L 188.800775 63.111529 
L 189.028161 63.111529 
L 189.071575 62.047624 
L 189.175363 62.047624 
L 189.183987 61.338353 
L 189.304298 61.338353 
L 189.415332 60.629082 
L 189.432356 60.629082 
L 189.432356 60.274447 
L 189.61861 60.274447 
L 189.685885 59.565176 
L 189.761282 59.565176 
L 189.761282 59.210541 
L 189.919468 59.210541 
L 189.977413 58.501271 
L 190.035181 58.501271 
L 190.035181 58.146635 
L 190.166558 58.146635 
L 190.240057 57.437365 
L 190.386198 57.437365 
L 190.386198 57.082729 
L 190.515156 57.082729 
L 190.531213 56.018824 
L 190.627272 56.018824 
L 190.651211 55.309553 
L 191.100346 55.309553 
L 191.100346 54.954918 
L 191.224515 54.954918 
L 191.324802 53.181741 
L 191.78837 53.181741 
L 191.78837 52.827106 
L 192.019647 52.827106 
L 192.019647 52.472471 
L 192.189421 52.472471 
L 192.189421 52.117835 
L 192.394056 52.117835 
L 192.430364 51.408565 
L 192.531658 51.408565 
L 192.618048 50.699294 
L 192.775408 50.699294 
L 192.775408 50.344659 
L 192.952643 50.344659 
L 192.952643 49.990024 
L 193.336779 49.990024 
L 193.419559 48.926118 
L 193.543048 48.926118 
L 193.543048 48.571482 
L 193.995709 48.571482 
L 193.995709 48.216847 
L 194.444253 48.216847 
L 194.470308 47.507576 
L 194.58064 47.507576 
L 194.58064 47.152941 
L 194.760964 47.152941 
L 194.760964 46.443671 
L 195.154207 46.443671 
L 195.154207 46.089035 
L 195.502464 46.089035 
L 195.502464 45.7344 
L 195.619173 45.7344 
L 195.619173 45.379765 
L 196.019047 45.379765 
L 196.019047 45.025129 
L 196.257322 45.025129 
L 196.257322 44.670494 
L 196.805666 44.670494 
L 196.805666 44.315859 
L 196.948851 44.315859 
L 196.948851 43.961224 
L 197.276902 43.961224 
L 197.276902 43.606588 
L 197.433247 43.606588 
L 197.433247 43.251953 
L 197.626869 43.251953 
L 197.626869 42.897318 
L 197.796714 42.897318 
L 197.900059 41.833412 
L 198.206732 41.833412 
L 198.281297 41.124141 
L 198.660172 41.124141 
L 198.660172 40.769506 
L 199.158827 40.769506 
L 199.184176 40.060235 
L 199.37572 40.060235 
L 199.37572 39.7056 
L 199.865774 39.7056 
L 199.865774 39.350965 
L 200.026329 39.350965 
L 200.065046 38.641694 
L 200.428935 38.641694 
L 200.428935 38.287059 
L 200.608274 38.287059 
L 200.608274 37.932424 
L 200.771956 37.932424 
L 200.771956 37.577788 
L 201.003343 37.577788 
L 201.058455 36.868518 
L 201.322577 36.868518 
L 201.322577 36.513882 
L 201.507072 36.513882 
L 201.507072 36.159247 
L 201.698641 36.159247 
L 201.698641 35.804612 
L 201.848746 35.804612 
L 201.905824 35.095341 
L 201.9671 35.095341 
L 201.9671 34.740706 
L 202.283413 34.740706 
L 202.283413 34.386071 
L 202.607171 34.386071 
L 202.607171 34.031435 
L 202.912988 34.031435 
L 202.912988 33.6768 
L 203.352444 33.6768 
L 203.352444 33.322165 
L 203.682409 33.322165 
L 203.762018 32.612894 
L 204.722158 32.612894 
L 204.722158 32.258259 
L 205.162345 32.258259 
L 205.162345 31.903624 
L 205.294614 31.903624 
L 205.298275 31.194353 
L 205.57444 31.194353 
L 205.57444 30.839718 
L 205.782502 30.839718 
L 205.782502 30.485082 
L 206.051699 30.485082 
L 206.051699 30.130447 
L 206.27544 30.130447 
L 206.27544 29.775812 
L 206.469055 29.775812 
L 206.469055 29.421176 
L 207.790522 29.421176 
L 207.790522 29.066541 
L 208.337197 29.066541 
L 208.337197 28.711906 
L 209.052226 28.711906 
L 209.052226 28.357271 
L 209.691865 28.357271 
L 209.691865 28.002635 
L 210.369268 28.002635 
L 210.369268 27.648 
L 360.8064 27.648 
L 360.8064 27.648 
" style="fill:none;stroke:#ff00ff;stroke-linecap:square;stroke-width:1.5;"/>
   </g>
   <g id="line2d_41">
    <defs>
     <path d="M -0 8.485281 
L 5.091169 0 
L 0 -8.485281 
L -5.091169 -0 
z
" id="m2daf216af9" style="stroke:#ff00ff;stroke-linejoin:miter;stroke-width:1.5;"/>
    </defs>
    <g>
     <use style="fill-opacity:0;stroke:#ff00ff;stroke-linejoin:miter;stroke-width:1.5;" x="131.563744" xlink:href="#m2daf216af9" y="246.812612"/>
     <use style="fill-opacity:0;stroke:#ff00ff;stroke-linejoin:miter;stroke-width:1.5;" x="175.708734" xlink:href="#m2daf216af9" y="114.888282"/>
     <use style="fill-opacity:0;stroke:#ff00ff;stroke-linejoin:miter;stroke-width:1.5;" x="205.298275" xlink:href="#m2daf216af9" y="31.548988"/>
     <use style="fill-opacity:0;stroke:#ff00ff;stroke-linejoin:miter;stroke-width:1.5;" x="210.369268" xlink:href="#m2daf216af9" y="27.648"/>
     <use style="fill-opacity:0;stroke:#ff00ff;stroke-linejoin:miter;stroke-width:1.5;" x="210.369268" xlink:href="#m2daf216af9" y="27.648"/>
     <use style="fill-opacity:0;stroke:#ff00ff;stroke-linejoin:miter;stroke-width:1.5;" x="360.8064" xlink:href="#m2daf216af9" y="27.648"/>
    </g>
   </g>
   <g id="line2d_42">
    <path style="fill:none;stroke:#ff00ff;stroke-linecap:square;stroke-width:1.5;"/>
    <g/>
   </g>
   <g id="line2d_43">
    <path clip-path="url(#p482ff7b2d5)" d="M 144.510478 230.854024 
" style="fill:none;stroke:#ff00ff;stroke-linecap:square;stroke-width:1.5;"/>
    <defs>
     <path d="M -12 12 
L 12 -12 
M -12 -12 
L 12 12 
" id="m6f15698e24" style="stroke:#ff00ff;"/>
    </defs>
    <g clip-path="url(#p482ff7b2d5)">
     <use style="fill:#ff00ff;stroke:#ff00ff;" x="144.510478" xlink:href="#m6f15698e24" y="230.854024"/>
    </g>
   </g>
   <g id="line2d_44">
    <defs>
     <path d="M 0 1.5 
C 0.397805 1.5 0.77937 1.341951 1.06066 1.06066 
C 1.341951 0.77937 1.5 0.397805 1.5 0 
C 1.5 -0.397805 1.341951 -0.77937 1.06066 -1.06066 
C 0.77937 -1.341951 0.397805 -1.5 0 -1.5 
C -0.397805 -1.5 -0.77937 -1.341951 -1.06066 -1.06066 
C -1.341951 -0.77937 -1.5 -0.397805 -1.5 0 
C -1.5 0.397805 -1.341951 0.77937 -1.06066 1.06066 
C -0.77937 1.341951 -0.397805 1.5 0 1.5 
z
" id="m23b8a337a2" style="stroke:#ff7500;"/>
    </defs>
    <g>
     <use style="fill:#ff7500;stroke:#ff7500;" x="244.148519" xlink:href="#m23b8a337a2" y="219.151059"/>
     <use style="fill:#ff7500;stroke:#ff7500;" x="244.148519" xlink:href="#m23b8a337a2" y="219.151059"/>
    </g>
   </g>
   <g id="line2d_45">
    <path d="M 44.560826 298.944 
L 44.560826 292.9152 
L 57.6 292.9152 
L 57.6 290.787388 
L 65.227428 290.787388 
L 65.227428 286.8864 
L 70.639174 286.8864 
L 70.639174 283.694682 
L 74.836851 283.694682 
L 74.836851 282.276141 
L 78.266603 282.276141 
L 78.266603 281.566871 
L 83.678349 281.566871 
L 83.678349 280.502965 
L 89.668958 280.502965 
L 89.668958 278.729788 
L 91.305777 278.729788 
L 91.305777 277.311247 
L 92.811505 277.311247 
L 92.811505 276.956612 
L 97.857967 276.956612 
L 97.857967 276.247341 
L 99.950294 276.247341 
L 99.950294 275.892706 
L 100.9152 275.892706 
L 100.9152 275.538071 
L 105.112877 275.538071 
L 105.112877 275.183435 
L 109.159456 275.183435 
L 109.159456 274.8288 
L 109.756698 274.8288 
L 109.756698 273.764894 
L 110.335561 273.764894 
L 110.335561 273.410259 
L 110.897141 273.410259 
L 110.897141 272.700988 
L 111.442442 272.700988 
L 111.442442 271.991718 
L 115.314838 271.991718 
L 115.314838 271.637082 
L 118.524569 271.637082 
L 118.524569 270.573176 
L 119.944983 270.573176 
L 119.944983 269.509271 
L 121.265635 269.509271 
L 121.265635 269.154635 
L 122.19863 269.154635 
L 122.19863 268.8 
L 124.748451 268.8 
L 124.748451 268.090729 
L 125.271028 268.090729 
L 125.271028 267.381459 
L 126.517282 267.381459 
L 126.517282 267.026824 
L 127.227236 267.026824 
L 127.227236 265.608282 
L 130.811181 265.608282 
L 130.811181 265.253647 
L 131.747272 265.253647 
L 131.747272 264.544376 
L 133.154399 264.544376 
L 133.154399 264.189741 
L 133.490329 264.189741 
L 133.490329 263.835106 
L 135.085483 263.835106 
L 135.085483 263.480471 
L 135.237805 263.480471 
L 135.237805 263.125835 
L 135.687504 263.125835 
L 135.687504 262.7712 
L 137.654681 262.7712 
L 137.654681 262.416565 
L 139.191172 262.416565 
L 139.191172 262.061929 
L 141.173167 262.061929 
L 141.173167 261.707294 
L 141.825656 261.707294 
L 141.825656 261.352659 
L 144.136106 261.352659 
L 144.136106 260.998024 
L 144.968202 260.998024 
L 144.968202 260.643388 
L 145.678157 260.643388 
L 145.678157 260.288753 
L 146.27812 260.288753 
L 146.27812 259.934118 
L 147.502732 259.934118 
L 147.502732 259.579482 
L 148.200973 259.579482 
L 148.200973 259.224847 
L 148.352679 259.224847 
L 148.352679 258.870212 
L 148.800595 258.870212 
L 148.800595 258.515576 
L 149.595059 258.515576 
L 149.595059 258.160941 
L 150.221009 258.160941 
L 150.221009 257.806306 
L 150.357325 257.806306 
L 150.357325 257.451671 
L 150.892922 257.451671 
L 150.892922 257.097035 
L 151.60532 257.097035 
L 151.60532 256.387765 
L 152.413875 256.387765 
L 152.413875 256.033129 
L 152.894708 256.033129 
L 152.894708 255.323859 
L 153.071898 255.323859 
L 153.071898 254.969224 
L 153.247435 254.969224 
L 153.247435 254.614588 
L 153.478964 254.614588 
L 153.478964 253.905318 
L 155.443693 253.905318 
L 155.443693 253.550682 
L 156.005274 253.550682 
L 156.005274 253.196047 
L 158.542339 253.196047 
L 158.542339 252.841412 
L 158.976805 252.841412 
L 158.976805 252.486776 
L 159.527013 252.486776 
L 159.527013 252.132141 
L 159.693121 252.132141 
L 159.693121 251.777506 
L 160.738476 251.777506 
L 160.738476 251.422871 
L 161.048777 251.422871 
L 161.125559 250.7136 
L 161.467251 250.7136 
L 161.467251 249.295059 
L 163.632702 249.295059 
L 163.632702 248.940424 
L 164.990826 248.940424 
L 164.990826 248.585788 
L 166.661411 248.585788 
L 166.661411 248.231153 
L 167.580589 248.231153 
L 167.580589 247.876518 
L 167.904005 247.876518 
L 167.904005 247.521882 
L 169.219673 247.521882 
L 169.319074 246.812612 
L 169.467197 246.812612 
L 169.467197 246.457976 
L 170.565646 246.457976 
L 170.565646 246.103341 
L 172.440637 246.103341 
L 172.440637 245.748706 
L 192.415849 245.748706 
L 192.415849 245.394071 
L 192.689739 245.394071 
L 192.689739 245.039435 
L 192.973799 245.039435 
L 192.973799 244.6848 
L 193.17012 244.6848 
L 193.17012 244.330165 
L 193.55672 244.330165 
L 193.55672 243.975529 
L 193.69967 243.975529 
L 193.69967 243.620894 
L 194.20152 243.620894 
L 194.20152 243.266259 
L 194.470308 243.266259 
L 194.470308 242.911624 
L 194.683894 242.911624 
L 194.683894 242.556988 
L 195.397423 242.556988 
L 195.403618 241.847718 
L 195.527095 241.847718 
L 195.56398 241.138447 
L 195.910831 241.138447 
L 195.910831 240.783812 
L 196.375337 240.783812 
L 196.375337 240.429176 
L 196.62659 240.429176 
L 196.62659 240.074541 
L 197.14185 240.074541 
L 197.14185 239.719906 
L 197.449922 239.719906 
L 197.533073 238.656 
L 197.834855 238.656 
L 197.872918 237.946729 
L 197.975847 237.946729 
L 197.975847 237.592094 
L 198.302547 237.592094 
L 198.302547 236.882824 
L 198.524234 236.882824 
L 198.524234 236.528188 
L 199.17404 236.528188 
L 199.17404 236.173553 
L 199.713691 236.173553 
L 199.713691 235.818918 
L 200.701981 235.818918 
L 200.701981 235.464282 
L 205.924665 235.464282 
L 205.924665 235.109647 
L 206.420838 235.109647 
L 206.420838 234.755012 
L 206.612969 234.755012 
L 206.612969 234.400376 
L 206.978056 234.400376 
L 206.978056 234.045741 
L 207.21757 234.045741 
L 207.21757 233.691106 
L 207.880086 233.691106 
L 207.981925 232.981835 
L 207.994616 232.981835 
L 207.994616 232.6272 
L 208.296665 232.6272 
L 208.296665 232.272565 
L 208.606225 232.272565 
L 208.695053 231.208659 
L 209.118074 231.208659 
L 209.118074 230.854024 
L 209.482036 230.854024 
L 209.482036 230.499388 
L 209.968045 230.499388 
L 209.968045 230.144753 
L 211.405328 230.144753 
L 211.405328 229.790118 
L 216.181386 229.790118 
L 216.181386 229.435482 
L 216.456458 229.435482 
L 216.456458 229.080847 
L 220.663841 229.080847 
L 220.663841 228.726212 
L 221.180701 228.726212 
L 221.180701 228.371576 
L 221.610058 228.371576 
L 221.610058 228.016941 
L 221.73881 228.016941 
L 221.73881 227.662306 
L 224.440533 227.662306 
L 224.464335 226.953035 
L 225.345935 226.953035 
L 225.345935 226.5984 
L 226.639594 226.5984 
L 226.639594 226.243765 
L 227.435939 226.243765 
L 227.435939 225.889129 
L 228.283181 225.889129 
L 228.309052 224.825224 
L 228.869397 224.825224 
L 228.869397 224.470588 
L 229.185635 224.470588 
L 229.185635 224.115953 
L 230.358468 224.115953 
L 230.358468 223.761318 
L 230.539211 223.761318 
L 230.539211 223.406682 
L 231.603124 223.406682 
L 231.603124 223.052047 
L 232.302459 223.052047 
L 232.302459 222.697412 
L 232.980928 222.697412 
L 232.980928 222.342776 
L 233.758732 222.342776 
L 233.758732 221.988141 
L 237.422061 221.988141 
L 237.422061 221.633506 
L 238.148451 221.633506 
L 238.148451 221.278871 
L 238.823825 221.278871 
L 238.823825 220.924235 
L 239.374967 220.924235 
L 239.374967 220.5696 
L 241.932083 220.5696 
L 241.932083 220.214965 
L 242.971171 220.214965 
L 242.971171 219.860329 
L 243.880683 219.860329 
L 243.880683 219.505694 
L 244.148519 219.505694 
L 244.148519 219.151059 
L 360.8064 219.151059 
L 360.8064 219.151059 
" style="fill:none;stroke:#ff7500;stroke-linecap:square;stroke-width:1.5;"/>
   </g>
   <g id="line2d_46">
    <defs>
     <path d="M 0 -6 
L -1.347084 -1.854102 
L -5.706339 -1.854102 
L -2.179628 0.708204 
L -3.526712 4.854102 
L -0 2.291796 
L 3.526712 4.854102 
L 2.179628 0.708204 
L 5.706339 -1.854102 
L 1.347084 -1.854102 
z
" id="m10be3292ac" style="stroke:#ff7500;stroke-linejoin:bevel;stroke-width:1.5;"/>
    </defs>
    <g>
     <use style="fill-opacity:0;stroke:#ff7500;stroke-linejoin:bevel;stroke-width:1.5;" x="118.524569" xlink:href="#m10be3292ac" y="271.637082"/>
     <use style="fill-opacity:0;stroke:#ff7500;stroke-linejoin:bevel;stroke-width:1.5;" x="172.440637" xlink:href="#m10be3292ac" y="246.103341"/>
     <use style="fill-opacity:0;stroke:#ff7500;stroke-linejoin:bevel;stroke-width:1.5;" x="244.148519" xlink:href="#m10be3292ac" y="219.505694"/>
     <use style="fill-opacity:0;stroke:#ff7500;stroke-linejoin:bevel;stroke-width:1.5;" x="244.148519" xlink:href="#m10be3292ac" y="219.151059"/>
     <use style="fill-opacity:0;stroke:#ff7500;stroke-linejoin:bevel;stroke-width:1.5;" x="244.148519" xlink:href="#m10be3292ac" y="219.151059"/>
     <use style="fill-opacity:0;stroke:#ff7500;stroke-linejoin:bevel;stroke-width:1.5;" x="360.8064" xlink:href="#m10be3292ac" y="219.151059"/>
    </g>
   </g>
   <g id="line2d_47">
    <path style="fill:none;stroke:#ff7500;stroke-linecap:square;stroke-width:1.5;"/>
    <g/>
   </g>
   <g id="line2d_48">
    <path clip-path="url(#p482ff7b2d5)" d="M 157.080512 253.196047 
" style="fill:none;stroke:#ff7500;stroke-linecap:square;stroke-width:1.5;"/>
    <defs>
     <path d="M -12 12 
L 12 -12 
M -12 -12 
L 12 12 
" id="maae6ac9ed2" style="stroke:#ff7500;"/>
    </defs>
    <g clip-path="url(#p482ff7b2d5)">
     <use style="fill:#ff7500;stroke:#ff7500;" x="157.080512" xlink:href="#maae6ac9ed2" y="253.196047"/>
    </g>
   </g>
   <g id="line2d_49">
    <path d="M 360.8064 219.151059 
L 380.514816 293.51808 
" style="fill:none;stroke:#ff7500;stroke-linecap:square;stroke-width:1.5;"/>
    <g>
     <use style="fill-opacity:0;stroke:#ff7500;stroke-linejoin:bevel;stroke-width:1.5;" x="360.8064" xlink:href="#m10be3292ac" y="219.151059"/>
     <use style="fill-opacity:0;stroke:#ff7500;stroke-linejoin:bevel;stroke-width:1.5;" x="380.514816" xlink:href="#m10be3292ac" y="293.51808"/>
    </g>
   </g>
   <g id="line2d_50">
    <path d="M 360.8064 27.648 
L 380.514816 206.70336 
" style="fill:none;stroke:#000080;stroke-linecap:square;stroke-width:1.5;"/>
    <g>
     <use style="fill-opacity:0;stroke:#000080;stroke-width:1.5;" x="360.8064" xlink:href="#m0db82ece40" y="27.648"/>
     <use style="fill-opacity:0;stroke:#000080;stroke-width:1.5;" x="380.514816" xlink:href="#m0db82ece40" y="206.70336"/>
    </g>
   </g>
   <g id="line2d_51">
    <path d="M 360.8064 27.648 
L 380.514816 119.88864 
" style="fill:none;stroke:#ff00ff;stroke-linecap:square;stroke-width:1.5;"/>
    <g>
     <use style="fill-opacity:0;stroke:#ff00ff;stroke-linejoin:miter;stroke-width:1.5;" x="360.8064" xlink:href="#m2daf216af9" y="27.648"/>
     <use style="fill-opacity:0;stroke:#ff00ff;stroke-linejoin:miter;stroke-width:1.5;" x="380.514816" xlink:href="#m2daf216af9" y="119.88864"/>
    </g>
   </g>
   <g id="line2d_52">
    <path d="M 360.8064 298.944 
L 360.8064 27.648 
" style="fill:none;stroke:#000000;stroke-linecap:square;stroke-width:1.5;"/>
   </g>
   <g id="patch_3">
    <path d="M 57.6 298.944 
L 360.8064 298.944 
" style="fill:none;stroke:#000000;stroke-linecap:square;stroke-linejoin:miter;stroke-width:0.8;"/>
   </g>
   <g id="patch_4">
    <path d="M 57.6 27.648 
L 360.8064 27.648 
" style="fill:none;stroke:#000000;stroke-linecap:square;stroke-linejoin:miter;stroke-width:0.8;"/>
   </g>
   <g id="text_13">
    <!-- diffcma b -->
    <g transform="translate(386.578944 297.381205)scale(0.14 -0.14)">
     <defs>
      <path d="M 3116 1747 
Q 3116 2381 2855 2742 
Q 2594 3103 2138 3103 
Q 1681 3103 1420 2742 
Q 1159 2381 1159 1747 
Q 1159 1113 1420 752 
Q 1681 391 2138 391 
Q 2594 391 2855 752 
Q 3116 1113 3116 1747 
z
M 1159 2969 
Q 1341 3281 1617 3432 
Q 1894 3584 2278 3584 
Q 2916 3584 3314 3078 
Q 3713 2572 3713 1747 
Q 3713 922 3314 415 
Q 2916 -91 2278 -91 
Q 1894 -91 1617 61 
Q 1341 213 1159 525 
L 1159 0 
L 581 0 
L 581 4863 
L 1159 4863 
L 1159 2969 
z
" id="DejaVuSans-62" transform="scale(0.015625)"/>
     </defs>
     <use xlink:href="#DejaVuSans-64"/>
     <use x="63.476562" xlink:href="#DejaVuSans-69"/>
     <use x="91.259766" xlink:href="#DejaVuSans-66"/>
     <use x="126.464844" xlink:href="#DejaVuSans-66"/>
     <use x="161.669922" xlink:href="#DejaVuSans-63"/>
     <use x="216.650391" xlink:href="#DejaVuSans-6d"/>
     <use x="314.0625" xlink:href="#DejaVuSans-61"/>
     <use x="375.341797" xlink:href="#DejaVuSans-20"/>
     <use x="407.128906" xlink:href="#DejaVuSans-62"/>
    </g>
   </g>
   <g id="text_14">
    <!-- different -->
    <g transform="translate(386.578944 210.566485)scale(0.14 -0.14)">
     <use xlink:href="#DejaVuSans-64"/>
     <use x="63.476562" xlink:href="#DejaVuSans-69"/>
     <use x="91.259766" xlink:href="#DejaVuSans-66"/>
     <use x="126.464844" xlink:href="#DejaVuSans-66"/>
     <use x="161.669922" xlink:href="#DejaVuSans-65"/>
     <use x="223.193359" xlink:href="#DejaVuSans-72"/>
     <use x="262.056641" xlink:href="#DejaVuSans-65"/>
     <use x="323.580078" xlink:href="#DejaVuSans-6e"/>
     <use x="386.958984" xlink:href="#DejaVuSans-74"/>
    </g>
   </g>
   <g id="text_15">
    <!-- cma.fmin  -->
    <g transform="translate(386.578944 123.751765)scale(0.14 -0.14)">
     <use xlink:href="#DejaVuSans-63"/>
     <use x="54.980469" xlink:href="#DejaVuSans-6d"/>
     <use x="152.392578" xlink:href="#DejaVuSans-61"/>
     <use x="213.671875" xlink:href="#DejaVuSans-2e"/>
     <use x="245.458984" xlink:href="#DejaVuSans-66"/>
     <use x="280.664062" xlink:href="#DejaVuSans-6d"/>
     <use x="378.076172" xlink:href="#DejaVuSans-69"/>
     <use x="405.859375" xlink:href="#DejaVuSans-6e"/>
     <use x="469.238281" xlink:href="#DejaVuSans-20"/>
    </g>
   </g>
   <g id="text_16">
    <!-- best 2009 -->
    <g transform="translate(386.578944 36.937045)scale(0.14 -0.14)">
     <defs>
      <path d="M 703 97 
L 703 672 
Q 941 559 1184 500 
Q 1428 441 1663 441 
Q 2288 441 2617 861 
Q 2947 1281 2994 2138 
Q 2813 1869 2534 1725 
Q 2256 1581 1919 1581 
Q 1219 1581 811 2004 
Q 403 2428 403 3163 
Q 403 3881 828 4315 
Q 1253 4750 1959 4750 
Q 2769 4750 3195 4129 
Q 3622 3509 3622 2328 
Q 3622 1225 3098 567 
Q 2575 -91 1691 -91 
Q 1453 -91 1209 -44 
Q 966 3 703 97 
z
M 1959 2075 
Q 2384 2075 2632 2365 
Q 2881 2656 2881 3163 
Q 2881 3666 2632 3958 
Q 2384 4250 1959 4250 
Q 1534 4250 1286 3958 
Q 1038 3666 1038 3163 
Q 1038 2656 1286 2365 
Q 1534 2075 1959 2075 
z
" id="DejaVuSans-39" transform="scale(0.015625)"/>
     </defs>
     <use xlink:href="#DejaVuSans-62"/>
     <use x="63.476562" xlink:href="#DejaVuSans-65"/>
     <use x="125" xlink:href="#DejaVuSans-73"/>
     <use x="177.099609" xlink:href="#DejaVuSans-74"/>
     <use x="216.308594" xlink:href="#DejaVuSans-20"/>
     <use x="248.095703" xlink:href="#DejaVuSans-32"/>
     <use x="311.71875" xlink:href="#DejaVuSans-30"/>
     <use x="375.341797" xlink:href="#DejaVuSans-30"/>
     <use x="438.964844" xlink:href="#DejaVuSans-39"/>
    </g>
   </g>
   <g id="text_17">
    <!-- bbob f16, 2-D -->
    <g transform="translate(60.632064 38.111366)scale(0.102 -0.102)">
     <defs>
      <path d="M 1259 4147 
L 1259 519 
L 2022 519 
Q 2988 519 3436 956 
Q 3884 1394 3884 2338 
Q 3884 3275 3436 3711 
Q 2988 4147 2022 4147 
L 1259 4147 
z
M 628 4666 
L 1925 4666 
Q 3281 4666 3915 4102 
Q 4550 3538 4550 2338 
Q 4550 1131 3912 565 
Q 3275 0 1925 0 
L 628 0 
L 628 4666 
z
" id="DejaVuSans-44" transform="scale(0.015625)"/>
     </defs>
     <use xlink:href="#DejaVuSans-62"/>
     <use x="63.476562" xlink:href="#DejaVuSans-62"/>
     <use x="126.953125" xlink:href="#DejaVuSans-6f"/>
     <use x="188.134766" xlink:href="#DejaVuSans-62"/>
     <use x="251.611328" xlink:href="#DejaVuSans-20"/>
     <use x="283.398438" xlink:href="#DejaVuSans-66"/>
     <use x="318.603516" xlink:href="#DejaVuSans-31"/>
     <use x="382.226562" xlink:href="#DejaVuSans-36"/>
     <use x="445.849609" xlink:href="#DejaVuSans-2c"/>
     <use x="477.636719" xlink:href="#DejaVuSans-20"/>
     <use x="509.423828" xlink:href="#DejaVuSans-32"/>
     <use x="573.046875" xlink:href="#DejaVuSans-2d"/>
     <use x="609.130859" xlink:href="#DejaVuSans-44"/>
    </g>
    <!-- 51 targets: 100..1e-08 -->
    <g transform="translate(60.632064 49.533135)scale(0.102 -0.102)">
     <defs>
      <path d="M 691 4666 
L 3169 4666 
L 3169 4134 
L 1269 4134 
L 1269 2991 
Q 1406 3038 1543 3061 
Q 1681 3084 1819 3084 
Q 2600 3084 3056 2656 
Q 3513 2228 3513 1497 
Q 3513 744 3044 326 
Q 2575 -91 1722 -91 
Q 1428 -91 1123 -41 
Q 819 9 494 109 
L 494 744 
Q 775 591 1075 516 
Q 1375 441 1709 441 
Q 2250 441 2565 725 
Q 2881 1009 2881 1497 
Q 2881 1984 2565 2268 
Q 2250 2553 1709 2553 
Q 1456 2553 1204 2497 
Q 953 2441 691 2322 
L 691 4666 
z
" id="DejaVuSans-35" transform="scale(0.015625)"/>
      <path d="M 750 794 
L 1409 794 
L 1409 0 
L 750 0 
L 750 794 
z
M 750 3309 
L 1409 3309 
L 1409 2516 
L 750 2516 
L 750 3309 
z
" id="DejaVuSans-3a" transform="scale(0.015625)"/>
     </defs>
     <use xlink:href="#DejaVuSans-35"/>
     <use x="63.623047" xlink:href="#DejaVuSans-31"/>
     <use x="127.246094" xlink:href="#DejaVuSans-20"/>
     <use x="159.033203" xlink:href="#DejaVuSans-74"/>
     <use x="198.242188" xlink:href="#DejaVuSans-61"/>
     <use x="259.521484" xlink:href="#DejaVuSans-72"/>
     <use x="298.884766" xlink:href="#DejaVuSans-67"/>
     <use x="362.361328" xlink:href="#DejaVuSans-65"/>
     <use x="423.884766" xlink:href="#DejaVuSans-74"/>
     <use x="463.09375" xlink:href="#DejaVuSans-73"/>
     <use x="515.193359" xlink:href="#DejaVuSans-3a"/>
     <use x="548.884766" xlink:href="#DejaVuSans-20"/>
     <use x="580.671875" xlink:href="#DejaVuSans-31"/>
     <use x="644.294922" xlink:href="#DejaVuSans-30"/>
     <use x="707.917969" xlink:href="#DejaVuSans-30"/>
     <use x="771.541016" xlink:href="#DejaVuSans-2e"/>
     <use x="803.328125" xlink:href="#DejaVuSans-2e"/>
     <use x="835.115234" xlink:href="#DejaVuSans-31"/>
     <use x="898.738281" xlink:href="#DejaVuSans-65"/>
     <use x="960.261719" xlink:href="#DejaVuSans-2d"/>
     <use x="996.345703" xlink:href="#DejaVuSans-30"/>
     <use x="1059.96875" xlink:href="#DejaVuSans-38"/>
    </g>
    <!-- 15 instances -->
    <g transform="translate(60.632064 60.954904)scale(0.102 -0.102)">
     <use xlink:href="#DejaVuSans-31"/>
     <use x="63.623047" xlink:href="#DejaVuSans-35"/>
     <use x="127.246094" xlink:href="#DejaVuSans-20"/>
     <use x="159.033203" xlink:href="#DejaVuSans-69"/>
     <use x="186.816406" xlink:href="#DejaVuSans-6e"/>
     <use x="250.195312" xlink:href="#DejaVuSans-73"/>
     <use x="302.294922" xlink:href="#DejaVuSans-74"/>
     <use x="341.503906" xlink:href="#DejaVuSans-61"/>
     <use x="402.783203" xlink:href="#DejaVuSans-6e"/>
     <use x="466.162109" xlink:href="#DejaVuSans-63"/>
     <use x="521.142578" xlink:href="#DejaVuSans-65"/>
     <use x="582.666016" xlink:href="#DejaVuSans-73"/>
    </g>
   </g>
   <g id="text_18">
    <!-- v2.6 -->
    <g style="fill:#808080;" transform="translate(198.292262 294.151352)scale(0.1 -0.1)">
     <use xlink:href="#DejaVuSans-76"/>
     <use x="59.179688" xlink:href="#DejaVuSans-32"/>
     <use x="122.802734" xlink:href="#DejaVuSans-2e"/>
     <use x="154.589844" xlink:href="#DejaVuSans-36"/>
    </g>
   </g>
   <g id="text_19">
    <!-- 16 Weierstrass -->
    <g transform="translate(135.017262 21.648)scale(0.2 -0.2)">
     <defs>
      <path d="M 213 4666 
L 850 4666 
L 1831 722 
L 2809 4666 
L 3519 4666 
L 4500 722 
L 5478 4666 
L 6119 4666 
L 4947 0 
L 4153 0 
L 3169 4050 
L 2175 0 
L 1381 0 
L 213 4666 
z
" id="DejaVuSans-57" transform="scale(0.015625)"/>
     </defs>
     <use xlink:href="#DejaVuSans-31"/>
     <use x="63.623047" xlink:href="#DejaVuSans-36"/>
     <use x="127.246094" xlink:href="#DejaVuSans-20"/>
     <use x="159.033203" xlink:href="#DejaVuSans-57"/>
     <use x="252.035156" xlink:href="#DejaVuSans-65"/>
     <use x="313.558594" xlink:href="#DejaVuSans-69"/>
     <use x="341.341797" xlink:href="#DejaVuSans-65"/>
     <use x="402.865234" xlink:href="#DejaVuSans-72"/>
     <use x="443.978516" xlink:href="#DejaVuSans-73"/>
     <use x="496.078125" xlink:href="#DejaVuSans-74"/>
     <use x="535.287109" xlink:href="#DejaVuSans-72"/>
     <use x="576.400391" xlink:href="#DejaVuSans-61"/>
     <use x="637.679688" xlink:href="#DejaVuSans-73"/>
     <use x="689.779297" xlink:href="#DejaVuSans-73"/>
    </g>
   </g>
  </g>
 </g>
 <defs>
  <clipPath id="p482ff7b2d5">
   <rect height="271.296" width="303.2064" x="57.6" y="27.648"/>
  </clipPath>
 </defs>
</svg>
