<?xml version="1.0" encoding="utf-8" standalone="no"?>
<!DOCTYPE svg PUBLIC "-//W3C//DTD SVG 1.1//EN"
  "http://www.w3.org/Graphics/SVG/1.1/DTD/svg11.dtd">
<svg height="345.6pt" version="1.1" viewBox="0 0 460.8 345.6" width="460.8pt" xmlns="http://www.w3.org/2000/svg" xmlns:xlink="http://www.w3.org/1999/xlink">
 <metadata>
  <rdf:RDF xmlns:cc="http://creativecommons.org/ns#" xmlns:dc="http://purl.org/dc/elements/1.1/" xmlns:rdf="http://www.w3.org/1999/02/22-rdf-syntax-ns#">
   <cc:Work>
    <dc:type rdf:resource="http://purl.org/dc/dcmitype/StillImage"/>
    <dc:date>2022-05-07T21:25:08.403154</dc:date>
    <dc:format>image/svg+xml</dc:format>
    <dc:creator>
     <cc:Agent>
      <dc:title>Matplotlib v3.4.3, https://matplotlib.org/</dc:title>
     </cc:Agent>
    </dc:creator>
   </cc:Work>
  </rdf:RDF>
 </metadata>
 <defs>
  <style type="text/css">*{stroke-linecap:butt;stroke-linejoin:round;}</style>
 </defs>
 <g id="figure_1">
  <g id="patch_1">
   <path d="M 0 345.6 
L 460.8 345.6 
L 460.8 0 
L 0 0 
z
" style="fill:#ffffff;"/>
  </g>
  <g id="axes_1">
   <g id="patch_2">
    <path d="M 57.6 298.944 
L 360.8064 298.944 
L 360.8064 27.648 
L 57.6 27.648 
z
" style="fill:#ffffff;"/>
   </g>
   <g id="line2d_1">
    <path d="M 57.6 298.944 
L 57.6 293.624471 
L 63.011746 293.624471 
L 63.011746 288.304941 
L 67.209423 288.304941 
L 67.209423 282.985412 
L 76.050921 282.985412 
L 76.050921 272.346353 
L 82.04153 272.346353 
L 82.04153 267.026824 
L 92.322865 267.026824 
L 92.322865 261.707294 
L 97.485448 261.707294 
L 97.485448 256.387765 
L 105.36204 256.387765 
L 105.36204 251.068235 
L 105.850679 251.068235 
L 105.850679 245.748706 
L 115.460102 245.748706 
L 115.460102 240.429176 
L 119.129494 240.429176 
L 119.129494 235.109647 
L 133.983236 235.109647 
L 133.983236 229.790118 
L 138.050729 229.790118 
L 138.050729 224.470588 
L 140.573544 224.470588 
L 140.573544 219.151059 
L 146.695245 219.151059 
L 146.695245 213.831529 
L 147.502732 213.831529 
L 147.502732 208.512 
L 147.919625 208.512 
L 147.919625 203.192471 
L 148.377845 203.192471 
L 148.377845 197.872941 
L 148.874221 197.872941 
L 148.874221 192.553412 
L 152.434157 192.553412 
L 152.434157 187.233882 
L 152.675851 187.233882 
L 152.675851 181.914353 
L 153.071898 181.914353 
L 153.071898 176.594824 
L 153.150116 176.594824 
L 153.150116 75.523765 
L 153.536404 75.523765 
L 153.536404 70.204235 
L 154.212341 70.204235 
L 154.212341 64.884706 
L 154.577625 64.884706 
L 154.577625 59.565176 
L 155.112587 59.565176 
L 155.112587 54.245647 
L 155.802997 54.245647 
L 155.802997 48.926118 
L 156.238546 48.926118 
L 156.238546 43.606588 
L 156.857511 43.606588 
L 156.857511 38.287059 
L 157.332175 38.287059 
L 157.332175 32.967529 
L 157.703468 32.967529 
L 157.703468 27.648 
L 360.8064 27.648 
" style="fill:none;stroke:#f5deb3;stroke-linecap:square;stroke-width:4;"/>
   </g>
   <g id="line2d_2">
    <defs>
     <path d="M -0 7.778175 
L 7.778175 0 
L 0 -7.778175 
L -7.778175 -0 
z
" id="m64cba46eb3" style="stroke:#f5deb3;stroke-linejoin:miter;stroke-width:1.5;"/>
    </defs>
    <g>
     <use style="fill:#f5deb3;stroke:#f5deb3;stroke-linejoin:miter;stroke-width:1.5;" x="92.322865" xlink:href="#m64cba46eb3" y="261.707294"/>
     <use style="fill:#f5deb3;stroke:#f5deb3;stroke-linejoin:miter;stroke-width:1.5;" x="153.071898" xlink:href="#m64cba46eb3" y="176.594824"/>
     <use style="fill:#f5deb3;stroke:#f5deb3;stroke-linejoin:miter;stroke-width:1.5;" x="157.703468" xlink:href="#m64cba46eb3" y="32.967529"/>
     <use style="fill:#f5deb3;stroke:#f5deb3;stroke-linejoin:miter;stroke-width:1.5;" x="157.703468" xlink:href="#m64cba46eb3" y="27.648"/>
     <use style="fill:#f5deb3;stroke:#f5deb3;stroke-linejoin:miter;stroke-width:1.5;" x="360.8064" xlink:href="#m64cba46eb3" y="27.648"/>
    </g>
   </g>
   <g id="line2d_3">
    <path style="fill:none;stroke:#f5deb3;stroke-linecap:square;stroke-width:4;"/>
    <g/>
   </g>
   <g id="line2d_4">
    <path d="M 360.8064 27.648 
L 380.514816 33.07392 
" style="fill:none;stroke:#f5deb3;stroke-linecap:square;stroke-width:4;"/>
    <g>
     <use style="fill:#f5deb3;stroke:#f5deb3;stroke-linejoin:miter;stroke-width:1.5;" x="360.8064" xlink:href="#m64cba46eb3" y="27.648"/>
     <use style="fill:#f5deb3;stroke:#f5deb3;stroke-linejoin:miter;stroke-width:1.5;" x="380.514816" xlink:href="#m64cba46eb3" y="33.07392"/>
    </g>
   </g>
   <g id="matplotlib.axis_1">
    <g id="xtick_1">
     <g id="line2d_5">
      <path clip-path="url(#p68006dc09b)" d="M 57.6 298.944 
L 57.6 27.648 
" style="fill:none;stroke:#b0b0b0;stroke-linecap:square;stroke-width:0.8;"/>
     </g>
     <g id="line2d_6">
      <defs>
       <path d="M 0 0 
L 0 3.5 
" id="ma0c155b9b2" style="stroke:#000000;stroke-width:0.8;"/>
      </defs>
      <g>
       <use style="stroke:#000000;stroke-width:0.8;" x="57.6" xlink:href="#ma0c155b9b2" y="298.944"/>
      </g>
     </g>
     <g id="text_1">
      <!-- 0 -->
      <g transform="translate(52.191875 318.861344)scale(0.17 -0.17)">
       <defs>
        <path d="M 2034 4250 
Q 1547 4250 1301 3770 
Q 1056 3291 1056 2328 
Q 1056 1369 1301 889 
Q 1547 409 2034 409 
Q 2525 409 2770 889 
Q 3016 1369 3016 2328 
Q 3016 3291 2770 3770 
Q 2525 4250 2034 4250 
z
M 2034 4750 
Q 2819 4750 3233 4129 
Q 3647 3509 3647 2328 
Q 3647 1150 3233 529 
Q 2819 -91 2034 -91 
Q 1250 -91 836 529 
Q 422 1150 422 2328 
Q 422 3509 836 4129 
Q 1250 4750 2034 4750 
z
" id="DejaVuSans-30" transform="scale(0.015625)"/>
       </defs>
       <use xlink:href="#DejaVuSans-30"/>
      </g>
     </g>
    </g>
    <g id="xtick_2">
     <g id="line2d_7">
      <path clip-path="url(#p68006dc09b)" d="M 144.2304 298.944 
L 144.2304 27.648 
" style="fill:none;stroke:#b0b0b0;stroke-linecap:square;stroke-width:0.8;"/>
     </g>
     <g id="line2d_8">
      <g>
       <use style="stroke:#000000;stroke-width:0.8;" x="144.2304" xlink:href="#ma0c155b9b2" y="298.944"/>
      </g>
     </g>
     <g id="text_2">
      <!-- 2 -->
      <g transform="translate(138.822275 318.861344)scale(0.17 -0.17)">
       <defs>
        <path d="M 1228 531 
L 3431 531 
L 3431 0 
L 469 0 
L 469 531 
Q 828 903 1448 1529 
Q 2069 2156 2228 2338 
Q 2531 2678 2651 2914 
Q 2772 3150 2772 3378 
Q 2772 3750 2511 3984 
Q 2250 4219 1831 4219 
Q 1534 4219 1204 4116 
Q 875 4013 500 3803 
L 500 4441 
Q 881 4594 1212 4672 
Q 1544 4750 1819 4750 
Q 2544 4750 2975 4387 
Q 3406 4025 3406 3419 
Q 3406 3131 3298 2873 
Q 3191 2616 2906 2266 
Q 2828 2175 2409 1742 
Q 1991 1309 1228 531 
z
" id="DejaVuSans-32" transform="scale(0.015625)"/>
       </defs>
       <use xlink:href="#DejaVuSans-32"/>
      </g>
     </g>
    </g>
    <g id="xtick_3">
     <g id="line2d_9">
      <path clip-path="url(#p68006dc09b)" d="M 230.8608 298.944 
L 230.8608 27.648 
" style="fill:none;stroke:#b0b0b0;stroke-linecap:square;stroke-width:0.8;"/>
     </g>
     <g id="line2d_10">
      <g>
       <use style="stroke:#000000;stroke-width:0.8;" x="230.8608" xlink:href="#ma0c155b9b2" y="298.944"/>
      </g>
     </g>
     <g id="text_3">
      <!-- 4 -->
      <g transform="translate(225.452675 318.861344)scale(0.17 -0.17)">
       <defs>
        <path d="M 2419 4116 
L 825 1625 
L 2419 1625 
L 2419 4116 
z
M 2253 4666 
L 3047 4666 
L 3047 1625 
L 3713 1625 
L 3713 1100 
L 3047 1100 
L 3047 0 
L 2419 0 
L 2419 1100 
L 313 1100 
L 313 1709 
L 2253 4666 
z
" id="DejaVuSans-34" transform="scale(0.015625)"/>
       </defs>
       <use xlink:href="#DejaVuSans-34"/>
      </g>
     </g>
    </g>
    <g id="xtick_4">
     <g id="line2d_11">
      <path clip-path="url(#p68006dc09b)" d="M 317.4912 298.944 
L 317.4912 27.648 
" style="fill:none;stroke:#b0b0b0;stroke-linecap:square;stroke-width:0.8;"/>
     </g>
     <g id="line2d_12">
      <g>
       <use style="stroke:#000000;stroke-width:0.8;" x="317.4912" xlink:href="#ma0c155b9b2" y="298.944"/>
      </g>
     </g>
     <g id="text_4">
      <!-- 6 -->
      <g transform="translate(312.083075 318.861344)scale(0.17 -0.17)">
       <defs>
        <path d="M 2113 2584 
Q 1688 2584 1439 2293 
Q 1191 2003 1191 1497 
Q 1191 994 1439 701 
Q 1688 409 2113 409 
Q 2538 409 2786 701 
Q 3034 994 3034 1497 
Q 3034 2003 2786 2293 
Q 2538 2584 2113 2584 
z
M 3366 4563 
L 3366 3988 
Q 3128 4100 2886 4159 
Q 2644 4219 2406 4219 
Q 1781 4219 1451 3797 
Q 1122 3375 1075 2522 
Q 1259 2794 1537 2939 
Q 1816 3084 2150 3084 
Q 2853 3084 3261 2657 
Q 3669 2231 3669 1497 
Q 3669 778 3244 343 
Q 2819 -91 2113 -91 
Q 1303 -91 875 529 
Q 447 1150 447 2328 
Q 447 3434 972 4092 
Q 1497 4750 2381 4750 
Q 2619 4750 2861 4703 
Q 3103 4656 3366 4563 
z
" id="DejaVuSans-36" transform="scale(0.015625)"/>
       </defs>
       <use xlink:href="#DejaVuSans-36"/>
      </g>
     </g>
    </g>
    <g id="xtick_5">
     <g id="line2d_13">
      <path clip-path="url(#p68006dc09b)" d="M 100.9152 298.944 
L 100.9152 27.648 
" style="fill:none;stroke:#b0b0b0;stroke-linecap:square;stroke-width:0.8;"/>
     </g>
     <g id="line2d_14">
      <defs>
       <path d="M 0 0 
L 0 2 
" id="ma07343c1f0" style="stroke:#000000;stroke-width:0.6;"/>
      </defs>
      <g>
       <use style="stroke:#000000;stroke-width:0.6;" x="100.9152" xlink:href="#ma07343c1f0" y="298.944"/>
      </g>
     </g>
    </g>
    <g id="xtick_6">
     <g id="line2d_15">
      <path clip-path="url(#p68006dc09b)" d="M 187.5456 298.944 
L 187.5456 27.648 
" style="fill:none;stroke:#b0b0b0;stroke-linecap:square;stroke-width:0.8;"/>
     </g>
     <g id="line2d_16">
      <g>
       <use style="stroke:#000000;stroke-width:0.6;" x="187.5456" xlink:href="#ma07343c1f0" y="298.944"/>
      </g>
     </g>
    </g>
    <g id="xtick_7">
     <g id="line2d_17">
      <path clip-path="url(#p68006dc09b)" d="M 274.176 298.944 
L 274.176 27.648 
" style="fill:none;stroke:#b0b0b0;stroke-linecap:square;stroke-width:0.8;"/>
     </g>
     <g id="line2d_18">
      <g>
       <use style="stroke:#000000;stroke-width:0.6;" x="274.176" xlink:href="#ma07343c1f0" y="298.944"/>
      </g>
     </g>
    </g>
    <g id="xtick_8">
     <g id="line2d_19">
      <path clip-path="url(#p68006dc09b)" d="M 360.8064 298.944 
L 360.8064 27.648 
" style="fill:none;stroke:#b0b0b0;stroke-linecap:square;stroke-width:0.8;"/>
     </g>
     <g id="line2d_20">
      <g>
       <use style="stroke:#000000;stroke-width:0.6;" x="360.8064" xlink:href="#ma07343c1f0" y="298.944"/>
      </g>
     </g>
    </g>
    <g id="text_5">
     <!-- log10(# f-evals / dimension) -->
     <g transform="translate(88.823278 339.314156)scale(0.17 -0.17)">
      <defs>
       <path d="M 603 4863 
L 1178 4863 
L 1178 0 
L 603 0 
L 603 4863 
z
" id="DejaVuSans-6c" transform="scale(0.015625)"/>
       <path d="M 1959 3097 
Q 1497 3097 1228 2736 
Q 959 2375 959 1747 
Q 959 1119 1226 758 
Q 1494 397 1959 397 
Q 2419 397 2687 759 
Q 2956 1122 2956 1747 
Q 2956 2369 2687 2733 
Q 2419 3097 1959 3097 
z
M 1959 3584 
Q 2709 3584 3137 3096 
Q 3566 2609 3566 1747 
Q 3566 888 3137 398 
Q 2709 -91 1959 -91 
Q 1206 -91 779 398 
Q 353 888 353 1747 
Q 353 2609 779 3096 
Q 1206 3584 1959 3584 
z
" id="DejaVuSans-6f" transform="scale(0.015625)"/>
       <path d="M 2906 1791 
Q 2906 2416 2648 2759 
Q 2391 3103 1925 3103 
Q 1463 3103 1205 2759 
Q 947 2416 947 1791 
Q 947 1169 1205 825 
Q 1463 481 1925 481 
Q 2391 481 2648 825 
Q 2906 1169 2906 1791 
z
M 3481 434 
Q 3481 -459 3084 -895 
Q 2688 -1331 1869 -1331 
Q 1566 -1331 1297 -1286 
Q 1028 -1241 775 -1147 
L 775 -588 
Q 1028 -725 1275 -790 
Q 1522 -856 1778 -856 
Q 2344 -856 2625 -561 
Q 2906 -266 2906 331 
L 2906 616 
Q 2728 306 2450 153 
Q 2172 0 1784 0 
Q 1141 0 747 490 
Q 353 981 353 1791 
Q 353 2603 747 3093 
Q 1141 3584 1784 3584 
Q 2172 3584 2450 3431 
Q 2728 3278 2906 2969 
L 2906 3500 
L 3481 3500 
L 3481 434 
z
" id="DejaVuSans-67" transform="scale(0.015625)"/>
       <path d="M 794 531 
L 1825 531 
L 1825 4091 
L 703 3866 
L 703 4441 
L 1819 4666 
L 2450 4666 
L 2450 531 
L 3481 531 
L 3481 0 
L 794 0 
L 794 531 
z
" id="DejaVuSans-31" transform="scale(0.015625)"/>
       <path d="M 1984 4856 
Q 1566 4138 1362 3434 
Q 1159 2731 1159 2009 
Q 1159 1288 1364 580 
Q 1569 -128 1984 -844 
L 1484 -844 
Q 1016 -109 783 600 
Q 550 1309 550 2009 
Q 550 2706 781 3412 
Q 1013 4119 1484 4856 
L 1984 4856 
z
" id="DejaVuSans-28" transform="scale(0.015625)"/>
       <path d="M 3272 2816 
L 2363 2816 
L 2100 1772 
L 3016 1772 
L 3272 2816 
z
M 2803 4594 
L 2478 3297 
L 3391 3297 
L 3719 4594 
L 4219 4594 
L 3897 3297 
L 4872 3297 
L 4872 2816 
L 3775 2816 
L 3519 1772 
L 4513 1772 
L 4513 1294 
L 3397 1294 
L 3072 0 
L 2572 0 
L 2894 1294 
L 1978 1294 
L 1656 0 
L 1153 0 
L 1478 1294 
L 494 1294 
L 494 1772 
L 1594 1772 
L 1856 2816 
L 850 2816 
L 850 3297 
L 1978 3297 
L 2297 4594 
L 2803 4594 
z
" id="DejaVuSans-23" transform="scale(0.015625)"/>
       <path id="DejaVuSans-20" transform="scale(0.015625)"/>
       <path d="M 2375 4863 
L 2375 4384 
L 1825 4384 
Q 1516 4384 1395 4259 
Q 1275 4134 1275 3809 
L 1275 3500 
L 2222 3500 
L 2222 3053 
L 1275 3053 
L 1275 0 
L 697 0 
L 697 3053 
L 147 3053 
L 147 3500 
L 697 3500 
L 697 3744 
Q 697 4328 969 4595 
Q 1241 4863 1831 4863 
L 2375 4863 
z
" id="DejaVuSans-66" transform="scale(0.015625)"/>
       <path d="M 313 2009 
L 1997 2009 
L 1997 1497 
L 313 1497 
L 313 2009 
z
" id="DejaVuSans-2d" transform="scale(0.015625)"/>
       <path d="M 3597 1894 
L 3597 1613 
L 953 1613 
Q 991 1019 1311 708 
Q 1631 397 2203 397 
Q 2534 397 2845 478 
Q 3156 559 3463 722 
L 3463 178 
Q 3153 47 2828 -22 
Q 2503 -91 2169 -91 
Q 1331 -91 842 396 
Q 353 884 353 1716 
Q 353 2575 817 3079 
Q 1281 3584 2069 3584 
Q 2775 3584 3186 3129 
Q 3597 2675 3597 1894 
z
M 3022 2063 
Q 3016 2534 2758 2815 
Q 2500 3097 2075 3097 
Q 1594 3097 1305 2825 
Q 1016 2553 972 2059 
L 3022 2063 
z
" id="DejaVuSans-65" transform="scale(0.015625)"/>
       <path d="M 191 3500 
L 800 3500 
L 1894 563 
L 2988 3500 
L 3597 3500 
L 2284 0 
L 1503 0 
L 191 3500 
z
" id="DejaVuSans-76" transform="scale(0.015625)"/>
       <path d="M 2194 1759 
Q 1497 1759 1228 1600 
Q 959 1441 959 1056 
Q 959 750 1161 570 
Q 1363 391 1709 391 
Q 2188 391 2477 730 
Q 2766 1069 2766 1631 
L 2766 1759 
L 2194 1759 
z
M 3341 1997 
L 3341 0 
L 2766 0 
L 2766 531 
Q 2569 213 2275 61 
Q 1981 -91 1556 -91 
Q 1019 -91 701 211 
Q 384 513 384 1019 
Q 384 1609 779 1909 
Q 1175 2209 1959 2209 
L 2766 2209 
L 2766 2266 
Q 2766 2663 2505 2880 
Q 2244 3097 1772 3097 
Q 1472 3097 1187 3025 
Q 903 2953 641 2809 
L 641 3341 
Q 956 3463 1253 3523 
Q 1550 3584 1831 3584 
Q 2591 3584 2966 3190 
Q 3341 2797 3341 1997 
z
" id="DejaVuSans-61" transform="scale(0.015625)"/>
       <path d="M 2834 3397 
L 2834 2853 
Q 2591 2978 2328 3040 
Q 2066 3103 1784 3103 
Q 1356 3103 1142 2972 
Q 928 2841 928 2578 
Q 928 2378 1081 2264 
Q 1234 2150 1697 2047 
L 1894 2003 
Q 2506 1872 2764 1633 
Q 3022 1394 3022 966 
Q 3022 478 2636 193 
Q 2250 -91 1575 -91 
Q 1294 -91 989 -36 
Q 684 19 347 128 
L 347 722 
Q 666 556 975 473 
Q 1284 391 1588 391 
Q 1994 391 2212 530 
Q 2431 669 2431 922 
Q 2431 1156 2273 1281 
Q 2116 1406 1581 1522 
L 1381 1569 
Q 847 1681 609 1914 
Q 372 2147 372 2553 
Q 372 3047 722 3315 
Q 1072 3584 1716 3584 
Q 2034 3584 2315 3537 
Q 2597 3491 2834 3397 
z
" id="DejaVuSans-73" transform="scale(0.015625)"/>
       <path d="M 1625 4666 
L 2156 4666 
L 531 -594 
L 0 -594 
L 1625 4666 
z
" id="DejaVuSans-2f" transform="scale(0.015625)"/>
       <path d="M 2906 2969 
L 2906 4863 
L 3481 4863 
L 3481 0 
L 2906 0 
L 2906 525 
Q 2725 213 2448 61 
Q 2172 -91 1784 -91 
Q 1150 -91 751 415 
Q 353 922 353 1747 
Q 353 2572 751 3078 
Q 1150 3584 1784 3584 
Q 2172 3584 2448 3432 
Q 2725 3281 2906 2969 
z
M 947 1747 
Q 947 1113 1208 752 
Q 1469 391 1925 391 
Q 2381 391 2643 752 
Q 2906 1113 2906 1747 
Q 2906 2381 2643 2742 
Q 2381 3103 1925 3103 
Q 1469 3103 1208 2742 
Q 947 2381 947 1747 
z
" id="DejaVuSans-64" transform="scale(0.015625)"/>
       <path d="M 603 3500 
L 1178 3500 
L 1178 0 
L 603 0 
L 603 3500 
z
M 603 4863 
L 1178 4863 
L 1178 4134 
L 603 4134 
L 603 4863 
z
" id="DejaVuSans-69" transform="scale(0.015625)"/>
       <path d="M 3328 2828 
Q 3544 3216 3844 3400 
Q 4144 3584 4550 3584 
Q 5097 3584 5394 3201 
Q 5691 2819 5691 2113 
L 5691 0 
L 5113 0 
L 5113 2094 
Q 5113 2597 4934 2840 
Q 4756 3084 4391 3084 
Q 3944 3084 3684 2787 
Q 3425 2491 3425 1978 
L 3425 0 
L 2847 0 
L 2847 2094 
Q 2847 2600 2669 2842 
Q 2491 3084 2119 3084 
Q 1678 3084 1418 2786 
Q 1159 2488 1159 1978 
L 1159 0 
L 581 0 
L 581 3500 
L 1159 3500 
L 1159 2956 
Q 1356 3278 1631 3431 
Q 1906 3584 2284 3584 
Q 2666 3584 2933 3390 
Q 3200 3197 3328 2828 
z
" id="DejaVuSans-6d" transform="scale(0.015625)"/>
       <path d="M 3513 2113 
L 3513 0 
L 2938 0 
L 2938 2094 
Q 2938 2591 2744 2837 
Q 2550 3084 2163 3084 
Q 1697 3084 1428 2787 
Q 1159 2491 1159 1978 
L 1159 0 
L 581 0 
L 581 3500 
L 1159 3500 
L 1159 2956 
Q 1366 3272 1645 3428 
Q 1925 3584 2291 3584 
Q 2894 3584 3203 3211 
Q 3513 2838 3513 2113 
z
" id="DejaVuSans-6e" transform="scale(0.015625)"/>
       <path d="M 513 4856 
L 1013 4856 
Q 1481 4119 1714 3412 
Q 1947 2706 1947 2009 
Q 1947 1309 1714 600 
Q 1481 -109 1013 -844 
L 513 -844 
Q 928 -128 1133 580 
Q 1338 1288 1338 2009 
Q 1338 2731 1133 3434 
Q 928 4138 513 4856 
z
" id="DejaVuSans-29" transform="scale(0.015625)"/>
      </defs>
      <use xlink:href="#DejaVuSans-6c"/>
      <use x="27.783203" xlink:href="#DejaVuSans-6f"/>
      <use x="88.964844" xlink:href="#DejaVuSans-67"/>
      <use x="152.441406" xlink:href="#DejaVuSans-31"/>
      <use x="216.064453" xlink:href="#DejaVuSans-30"/>
      <use x="279.6875" xlink:href="#DejaVuSans-28"/>
      <use x="318.701172" xlink:href="#DejaVuSans-23"/>
      <use x="402.490234" xlink:href="#DejaVuSans-20"/>
      <use x="434.277344" xlink:href="#DejaVuSans-66"/>
      <use x="463.982422" xlink:href="#DejaVuSans-2d"/>
      <use x="500.066406" xlink:href="#DejaVuSans-65"/>
      <use x="561.589844" xlink:href="#DejaVuSans-76"/>
      <use x="620.769531" xlink:href="#DejaVuSans-61"/>
      <use x="682.048828" xlink:href="#DejaVuSans-6c"/>
      <use x="709.832031" xlink:href="#DejaVuSans-73"/>
      <use x="761.931641" xlink:href="#DejaVuSans-20"/>
      <use x="793.71875" xlink:href="#DejaVuSans-2f"/>
      <use x="827.410156" xlink:href="#DejaVuSans-20"/>
      <use x="859.197266" xlink:href="#DejaVuSans-64"/>
      <use x="922.673828" xlink:href="#DejaVuSans-69"/>
      <use x="950.457031" xlink:href="#DejaVuSans-6d"/>
      <use x="1047.869141" xlink:href="#DejaVuSans-65"/>
      <use x="1109.392578" xlink:href="#DejaVuSans-6e"/>
      <use x="1172.771484" xlink:href="#DejaVuSans-73"/>
      <use x="1224.871094" xlink:href="#DejaVuSans-69"/>
      <use x="1252.654297" xlink:href="#DejaVuSans-6f"/>
      <use x="1313.835938" xlink:href="#DejaVuSans-6e"/>
      <use x="1377.214844" xlink:href="#DejaVuSans-29"/>
     </g>
    </g>
   </g>
   <g id="matplotlib.axis_2">
    <g id="ytick_1">
     <g id="line2d_21">
      <path clip-path="url(#p68006dc09b)" d="M 57.6 298.944 
L 360.8064 298.944 
" style="fill:none;stroke:#b0b0b0;stroke-linecap:square;stroke-width:0.8;"/>
     </g>
     <g id="line2d_22">
      <defs>
       <path d="M 0 0 
L -3.5 0 
" id="me3c64a08ff" style="stroke:#000000;stroke-width:0.8;"/>
      </defs>
      <g>
       <use style="stroke:#000000;stroke-width:0.8;" x="57.6" xlink:href="#me3c64a08ff" y="298.944"/>
      </g>
     </g>
     <g id="text_6">
      <!-- 0.0 -->
      <g transform="translate(25.155 305.02275)scale(0.16 -0.16)">
       <defs>
        <path d="M 684 794 
L 1344 794 
L 1344 0 
L 684 0 
L 684 794 
z
" id="DejaVuSans-2e" transform="scale(0.015625)"/>
       </defs>
       <use xlink:href="#DejaVuSans-30"/>
       <use x="63.623047" xlink:href="#DejaVuSans-2e"/>
       <use x="95.410156" xlink:href="#DejaVuSans-30"/>
      </g>
     </g>
    </g>
    <g id="ytick_2">
     <g id="line2d_23">
      <path clip-path="url(#p68006dc09b)" d="M 57.6 244.6848 
L 360.8064 244.6848 
" style="fill:none;stroke:#b0b0b0;stroke-linecap:square;stroke-width:0.8;"/>
     </g>
     <g id="line2d_24">
      <g>
       <use style="stroke:#000000;stroke-width:0.8;" x="57.6" xlink:href="#me3c64a08ff" y="244.6848"/>
      </g>
     </g>
     <g id="text_7">
      <!-- 0.2 -->
      <g transform="translate(25.155 250.76355)scale(0.16 -0.16)">
       <use xlink:href="#DejaVuSans-30"/>
       <use x="63.623047" xlink:href="#DejaVuSans-2e"/>
       <use x="95.410156" xlink:href="#DejaVuSans-32"/>
      </g>
     </g>
    </g>
    <g id="ytick_3">
     <g id="line2d_25">
      <path clip-path="url(#p68006dc09b)" d="M 57.6 190.4256 
L 360.8064 190.4256 
" style="fill:none;stroke:#b0b0b0;stroke-linecap:square;stroke-width:0.8;"/>
     </g>
     <g id="line2d_26">
      <g>
       <use style="stroke:#000000;stroke-width:0.8;" x="57.6" xlink:href="#me3c64a08ff" y="190.4256"/>
      </g>
     </g>
     <g id="text_8">
      <!-- 0.4 -->
      <g transform="translate(25.155 196.50435)scale(0.16 -0.16)">
       <use xlink:href="#DejaVuSans-30"/>
       <use x="63.623047" xlink:href="#DejaVuSans-2e"/>
       <use x="95.410156" xlink:href="#DejaVuSans-34"/>
      </g>
     </g>
    </g>
    <g id="ytick_4">
     <g id="line2d_27">
      <path clip-path="url(#p68006dc09b)" d="M 57.6 136.1664 
L 360.8064 136.1664 
" style="fill:none;stroke:#b0b0b0;stroke-linecap:square;stroke-width:0.8;"/>
     </g>
     <g id="line2d_28">
      <g>
       <use style="stroke:#000000;stroke-width:0.8;" x="57.6" xlink:href="#me3c64a08ff" y="136.1664"/>
      </g>
     </g>
     <g id="text_9">
      <!-- 0.6 -->
      <g transform="translate(25.155 142.24515)scale(0.16 -0.16)">
       <use xlink:href="#DejaVuSans-30"/>
       <use x="63.623047" xlink:href="#DejaVuSans-2e"/>
       <use x="95.410156" xlink:href="#DejaVuSans-36"/>
      </g>
     </g>
    </g>
    <g id="ytick_5">
     <g id="line2d_29">
      <path clip-path="url(#p68006dc09b)" d="M 57.6 81.9072 
L 360.8064 81.9072 
" style="fill:none;stroke:#b0b0b0;stroke-linecap:square;stroke-width:0.8;"/>
     </g>
     <g id="line2d_30">
      <g>
       <use style="stroke:#000000;stroke-width:0.8;" x="57.6" xlink:href="#me3c64a08ff" y="81.9072"/>
      </g>
     </g>
     <g id="text_10">
      <!-- 0.8 -->
      <g transform="translate(25.155 87.98595)scale(0.16 -0.16)">
       <defs>
        <path d="M 2034 2216 
Q 1584 2216 1326 1975 
Q 1069 1734 1069 1313 
Q 1069 891 1326 650 
Q 1584 409 2034 409 
Q 2484 409 2743 651 
Q 3003 894 3003 1313 
Q 3003 1734 2745 1975 
Q 2488 2216 2034 2216 
z
M 1403 2484 
Q 997 2584 770 2862 
Q 544 3141 544 3541 
Q 544 4100 942 4425 
Q 1341 4750 2034 4750 
Q 2731 4750 3128 4425 
Q 3525 4100 3525 3541 
Q 3525 3141 3298 2862 
Q 3072 2584 2669 2484 
Q 3125 2378 3379 2068 
Q 3634 1759 3634 1313 
Q 3634 634 3220 271 
Q 2806 -91 2034 -91 
Q 1263 -91 848 271 
Q 434 634 434 1313 
Q 434 1759 690 2068 
Q 947 2378 1403 2484 
z
M 1172 3481 
Q 1172 3119 1398 2916 
Q 1625 2713 2034 2713 
Q 2441 2713 2670 2916 
Q 2900 3119 2900 3481 
Q 2900 3844 2670 4047 
Q 2441 4250 2034 4250 
Q 1625 4250 1398 4047 
Q 1172 3844 1172 3481 
z
" id="DejaVuSans-38" transform="scale(0.015625)"/>
       </defs>
       <use xlink:href="#DejaVuSans-30"/>
       <use x="63.623047" xlink:href="#DejaVuSans-2e"/>
       <use x="95.410156" xlink:href="#DejaVuSans-38"/>
      </g>
     </g>
    </g>
    <g id="ytick_6">
     <g id="line2d_31">
      <path clip-path="url(#p68006dc09b)" d="M 57.6 27.648 
L 360.8064 27.648 
" style="fill:none;stroke:#b0b0b0;stroke-linecap:square;stroke-width:0.8;"/>
     </g>
     <g id="line2d_32">
      <g>
       <use style="stroke:#000000;stroke-width:0.8;" x="57.6" xlink:href="#me3c64a08ff" y="27.648"/>
      </g>
     </g>
     <g id="text_11">
      <!-- 1.0 -->
      <g transform="translate(25.155 33.72675)scale(0.16 -0.16)">
       <use xlink:href="#DejaVuSans-31"/>
       <use x="63.623047" xlink:href="#DejaVuSans-2e"/>
       <use x="95.410156" xlink:href="#DejaVuSans-30"/>
      </g>
     </g>
    </g>
    <g id="text_12">
     <!-- Fraction of function,target pairs -->
     <g transform="translate(17.619531 297.681)rotate(-90)scale(0.17 -0.17)">
      <defs>
       <path d="M 628 4666 
L 3309 4666 
L 3309 4134 
L 1259 4134 
L 1259 2759 
L 3109 2759 
L 3109 2228 
L 1259 2228 
L 1259 0 
L 628 0 
L 628 4666 
z
" id="DejaVuSans-46" transform="scale(0.015625)"/>
       <path d="M 2631 2963 
Q 2534 3019 2420 3045 
Q 2306 3072 2169 3072 
Q 1681 3072 1420 2755 
Q 1159 2438 1159 1844 
L 1159 0 
L 581 0 
L 581 3500 
L 1159 3500 
L 1159 2956 
Q 1341 3275 1631 3429 
Q 1922 3584 2338 3584 
Q 2397 3584 2469 3576 
Q 2541 3569 2628 3553 
L 2631 2963 
z
" id="DejaVuSans-72" transform="scale(0.015625)"/>
       <path d="M 3122 3366 
L 3122 2828 
Q 2878 2963 2633 3030 
Q 2388 3097 2138 3097 
Q 1578 3097 1268 2742 
Q 959 2388 959 1747 
Q 959 1106 1268 751 
Q 1578 397 2138 397 
Q 2388 397 2633 464 
Q 2878 531 3122 666 
L 3122 134 
Q 2881 22 2623 -34 
Q 2366 -91 2075 -91 
Q 1284 -91 818 406 
Q 353 903 353 1747 
Q 353 2603 823 3093 
Q 1294 3584 2113 3584 
Q 2378 3584 2631 3529 
Q 2884 3475 3122 3366 
z
" id="DejaVuSans-63" transform="scale(0.015625)"/>
       <path d="M 1172 4494 
L 1172 3500 
L 2356 3500 
L 2356 3053 
L 1172 3053 
L 1172 1153 
Q 1172 725 1289 603 
Q 1406 481 1766 481 
L 2356 481 
L 2356 0 
L 1766 0 
Q 1100 0 847 248 
Q 594 497 594 1153 
L 594 3053 
L 172 3053 
L 172 3500 
L 594 3500 
L 594 4494 
L 1172 4494 
z
" id="DejaVuSans-74" transform="scale(0.015625)"/>
       <path d="M 544 1381 
L 544 3500 
L 1119 3500 
L 1119 1403 
Q 1119 906 1312 657 
Q 1506 409 1894 409 
Q 2359 409 2629 706 
Q 2900 1003 2900 1516 
L 2900 3500 
L 3475 3500 
L 3475 0 
L 2900 0 
L 2900 538 
Q 2691 219 2414 64 
Q 2138 -91 1772 -91 
Q 1169 -91 856 284 
Q 544 659 544 1381 
z
M 1991 3584 
L 1991 3584 
z
" id="DejaVuSans-75" transform="scale(0.015625)"/>
       <path d="M 750 794 
L 1409 794 
L 1409 256 
L 897 -744 
L 494 -744 
L 750 256 
L 750 794 
z
" id="DejaVuSans-2c" transform="scale(0.015625)"/>
       <path d="M 1159 525 
L 1159 -1331 
L 581 -1331 
L 581 3500 
L 1159 3500 
L 1159 2969 
Q 1341 3281 1617 3432 
Q 1894 3584 2278 3584 
Q 2916 3584 3314 3078 
Q 3713 2572 3713 1747 
Q 3713 922 3314 415 
Q 2916 -91 2278 -91 
Q 1894 -91 1617 61 
Q 1341 213 1159 525 
z
M 3116 1747 
Q 3116 2381 2855 2742 
Q 2594 3103 2138 3103 
Q 1681 3103 1420 2742 
Q 1159 2381 1159 1747 
Q 1159 1113 1420 752 
Q 1681 391 2138 391 
Q 2594 391 2855 752 
Q 3116 1113 3116 1747 
z
" id="DejaVuSans-70" transform="scale(0.015625)"/>
      </defs>
      <use xlink:href="#DejaVuSans-46"/>
      <use x="50.269531" xlink:href="#DejaVuSans-72"/>
      <use x="91.382812" xlink:href="#DejaVuSans-61"/>
      <use x="152.662109" xlink:href="#DejaVuSans-63"/>
      <use x="207.642578" xlink:href="#DejaVuSans-74"/>
      <use x="246.851562" xlink:href="#DejaVuSans-69"/>
      <use x="274.634766" xlink:href="#DejaVuSans-6f"/>
      <use x="335.816406" xlink:href="#DejaVuSans-6e"/>
      <use x="399.195312" xlink:href="#DejaVuSans-20"/>
      <use x="430.982422" xlink:href="#DejaVuSans-6f"/>
      <use x="492.164062" xlink:href="#DejaVuSans-66"/>
      <use x="527.369141" xlink:href="#DejaVuSans-20"/>
      <use x="559.15625" xlink:href="#DejaVuSans-66"/>
      <use x="594.361328" xlink:href="#DejaVuSans-75"/>
      <use x="657.740234" xlink:href="#DejaVuSans-6e"/>
      <use x="721.119141" xlink:href="#DejaVuSans-63"/>
      <use x="776.099609" xlink:href="#DejaVuSans-74"/>
      <use x="815.308594" xlink:href="#DejaVuSans-69"/>
      <use x="843.091797" xlink:href="#DejaVuSans-6f"/>
      <use x="904.273438" xlink:href="#DejaVuSans-6e"/>
      <use x="967.652344" xlink:href="#DejaVuSans-2c"/>
      <use x="999.439453" xlink:href="#DejaVuSans-74"/>
      <use x="1038.648438" xlink:href="#DejaVuSans-61"/>
      <use x="1099.927734" xlink:href="#DejaVuSans-72"/>
      <use x="1139.291016" xlink:href="#DejaVuSans-67"/>
      <use x="1202.767578" xlink:href="#DejaVuSans-65"/>
      <use x="1264.291016" xlink:href="#DejaVuSans-74"/>
      <use x="1303.5" xlink:href="#DejaVuSans-20"/>
      <use x="1335.287109" xlink:href="#DejaVuSans-70"/>
      <use x="1398.763672" xlink:href="#DejaVuSans-61"/>
      <use x="1460.042969" xlink:href="#DejaVuSans-69"/>
      <use x="1487.826172" xlink:href="#DejaVuSans-72"/>
      <use x="1528.939453" xlink:href="#DejaVuSans-73"/>
     </g>
    </g>
   </g>
   <g id="line2d_33">
    <defs>
     <path d="M 0 1.5 
C 0.397805 1.5 0.77937 1.341951 1.06066 1.06066 
C 1.341951 0.77937 1.5 0.397805 1.5 0 
C 1.5 -0.397805 1.341951 -0.77937 1.06066 -1.06066 
C 0.77937 -1.341951 0.397805 -1.5 0 -1.5 
C -0.397805 -1.5 -0.77937 -1.341951 -1.06066 -1.06066 
C -1.341951 -0.77937 -1.5 -0.397805 -1.5 0 
C -1.5 0.397805 -1.341951 0.77937 -1.06066 1.06066 
C -0.77937 1.341951 -0.397805 1.5 0 1.5 
z
" id="maf2e7b3ba5" style="stroke:#f5deb3;"/>
    </defs>
    <g>
     <use style="fill:#f5deb3;stroke:#f5deb3;" x="157.703468" xlink:href="#maf2e7b3ba5" y="27.648"/>
     <use style="fill:#f5deb3;stroke:#f5deb3;" x="157.703468" xlink:href="#maf2e7b3ba5" y="27.648"/>
    </g>
   </g>
   <g id="line2d_34">
    <defs>
     <path d="M 0 1.5 
C 0.397805 1.5 0.77937 1.341951 1.06066 1.06066 
C 1.341951 0.77937 1.5 0.397805 1.5 0 
C 1.5 -0.397805 1.341951 -0.77937 1.06066 -1.06066 
C 0.77937 -1.341951 0.397805 -1.5 0 -1.5 
C -0.397805 -1.5 -0.77937 -1.341951 -1.06066 -1.06066 
C -1.341951 -0.77937 -1.5 -0.397805 -1.5 0 
C -1.5 0.397805 -1.341951 0.77937 -1.06066 1.06066 
C -0.77937 1.341951 -0.397805 1.5 0 1.5 
z
" id="mc910fb6ef4" style="stroke:#000080;"/>
    </defs>
    <g>
     <use style="fill:#000080;stroke:#000080;" x="208.434532" xlink:href="#mc910fb6ef4" y="27.648"/>
     <use style="fill:#000080;stroke:#000080;" x="208.434532" xlink:href="#mc910fb6ef4" y="27.648"/>
    </g>
   </g>
   <g id="line2d_35">
    <path d="M 36.933397 298.944 
L 36.933397 296.106918 
L 49.972572 296.106918 
L 49.972572 295.752282 
L 57.6 295.752282 
L 57.6 293.624471 
L 63.011746 293.624471 
L 63.011746 291.496659 
L 67.209423 291.496659 
L 67.209423 290.078118 
L 70.639174 290.078118 
L 70.639174 289.014212 
L 73.538988 289.014212 
L 73.538988 286.177129 
L 78.266603 286.177129 
L 78.266603 284.403953 
L 80.248597 284.403953 
L 80.248597 282.630776 
L 82.04153 282.630776 
L 82.04153 281.212235 
L 83.678349 281.212235 
L 83.678349 280.502965 
L 86.578163 280.502965 
L 86.578163 277.311247 
L 90.230539 277.311247 
L 90.230539 276.956612 
L 92.322865 276.956612 
L 92.322865 275.892706 
L 104.860369 275.892706 
L 104.860369 275.183435 
L 106.791453 275.183435 
L 106.791453 273.764894 
L 108.542628 273.764894 
L 108.542628 273.055624 
L 109.360651 273.055624 
L 109.360651 271.991718 
L 110.897141 271.991718 
L 110.897141 271.637082 
L 112.317555 271.637082 
L 112.317555 270.218541 
L 114.265316 270.218541 
L 114.265316 269.863906 
L 119.129494 269.863906 
L 119.129494 268.8 
L 119.599808 268.8 
L 119.599808 268.090729 
L 120.058649 268.090729 
L 120.058649 266.672188 
L 121.789667 266.672188 
L 121.789667 265.253647 
L 127.761474 265.253647 
L 127.761474 264.544376 
L 129.758512 264.544376 
L 129.758512 263.835106 
L 130.811181 263.835106 
L 130.811181 262.7712 
L 132.287354 262.7712 
L 132.287354 262.416565 
L 134.725196 262.416565 
L 134.725196 262.061929 
L 134.931919 262.061929 
L 134.931919 261.707294 
L 136.696795 261.707294 
L 136.696795 260.998024 
L 136.88305 260.998024 
L 136.88305 260.288753 
L 137.067478 260.288753 
L 137.067478 259.934118 
L 138.985129 259.934118 
L 138.985129 258.870212 
L 141.610664 258.870212 
L 141.610664 258.515576 
L 141.896777 258.515576 
L 141.896777 257.806306 
L 142.317949 257.806306 
L 142.317949 255.323859 
L 144.786447 255.323859 
L 144.786447 253.905318 
L 145.26728 253.905318 
L 145.26728 252.841412 
L 145.503164 252.841412 
L 145.503164 252.486776 
L 146.64016 252.486776 
L 146.64016 252.132141 
L 147.712333 252.132141 
L 147.712333 251.777506 
L 149.595059 251.777506 
L 149.595059 251.422871 
L 150.152479 251.422871 
L 150.152479 250.358965 
L 151.133398 250.358965 
L 151.133398 249.295059 
L 152.953957 249.295059 
L 152.953957 246.457976 
L 153.421349 246.457976 
L 153.49813 245.394071 
L 154.322673 245.394071 
L 154.322673 245.039435 
L 154.829169 245.039435 
L 154.829169 244.6848 
L 155.18278 244.6848 
L 155.18278 243.620894 
L 155.598521 243.620894 
L 155.598521 242.911624 
L 156.793307 242.911624 
L 156.793307 242.202353 
L 157.238196 242.202353 
L 157.238196 241.138447 
L 157.795157 241.138447 
L 157.795157 240.429176 
L 158.513014 240.429176 
L 158.513014 240.074541 
L 158.746339 240.074541 
L 158.746339 238.656 
L 159.260973 238.656 
L 159.260973 238.301365 
L 159.651731 238.301365 
L 159.651731 237.237459 
L 160.303279 237.237459 
L 160.303279 236.882824 
L 161.138325 236.882824 
L 161.138325 236.528188 
L 162.56338 236.528188 
L 162.56338 236.173553 
L 163.755253 236.173553 
L 163.79962 235.109647 
L 164.410013 235.109647 
L 164.452864 234.400376 
L 164.665667 234.400376 
L 164.665667 234.045741 
L 165.125528 234.045741 
L 165.125528 233.691106 
L 165.249018 233.691106 
L 165.249018 233.336471 
L 166.8978 233.336471 
L 166.8978 232.981835 
L 167.886182 232.981835 
L 167.886182 231.917929 
L 168.378936 231.917929 
L 168.378936 231.563294 
L 168.620556 231.563294 
L 168.620556 230.854024 
L 169.128092 230.854024 
L 169.161446 229.790118 
L 169.261154 229.790118 
L 169.261154 229.435482 
L 169.816397 229.435482 
L 169.816397 228.726212 
L 170.604265 228.726212 
L 170.665892 227.307671 
L 170.788543 227.307671 
L 170.788543 225.889129 
L 170.940741 225.889129 
L 170.940741 225.179859 
L 172.342405 225.179859 
L 172.342405 224.825224 
L 172.482581 224.825224 
L 172.482581 223.761318 
L 173.141258 223.761318 
L 173.141258 223.052047 
L 174.036588 223.052047 
L 174.036588 222.697412 
L 174.518962 222.697412 
L 174.518962 222.342776 
L 175.256283 222.342776 
L 175.256283 221.278871 
L 175.661617 221.278871 
L 175.661617 219.860329 
L 176.401688 219.860329 
L 176.492182 218.441788 
L 176.671876 218.441788 
L 176.671876 218.087153 
L 177.287622 218.087153 
L 177.287622 217.023247 
L 177.799823 217.023247 
L 177.799823 216.668612 
L 178.903696 216.668612 
L 178.903696 216.313976 
L 179.432255 216.313976 
L 179.528527 214.895435 
L 179.643407 214.895435 
L 179.643407 214.5408 
L 180.170429 214.5408 
L 180.170429 213.476894 
L 180.318334 213.476894 
L 180.355129 212.058353 
L 180.665016 212.058353 
L 180.719176 209.930541 
L 181.076312 209.930541 
L 181.076312 208.866635 
L 181.199724 208.866635 
L 181.199724 208.512 
L 181.339783 208.512 
L 181.392038 207.448094 
L 182.058457 207.448094 
L 182.058457 206.384188 
L 182.308614 206.384188 
L 182.308614 205.674918 
L 182.522758 205.674918 
L 182.522758 204.965647 
L 182.927846 204.965647 
L 182.927846 198.227576 
L 183.245751 198.227576 
L 183.245751 197.872941 
L 183.911579 197.872941 
L 183.911579 189.716329 
L 184.078188 189.716329 
L 184.078188 189.007059 
L 184.288124 189.007059 
L 184.392219 188.297788 
L 184.56934 188.297788 
L 184.56934 187.233882 
L 185.542692 187.233882 
L 185.542692 186.169976 
L 185.667825 186.169976 
L 185.667825 176.594824 
L 185.888248 176.594824 
L 185.888248 175.176282 
L 186.173689 175.176282 
L 186.173689 174.821647 
L 186.374956 174.821647 
L 186.374956 174.467012 
L 186.600485 174.467012 
L 186.600485 167.374306 
L 186.784206 167.374306 
L 186.888389 165.246494 
L 187.476498 165.246494 
L 187.576926 164.182588 
L 187.689272 164.182588 
L 187.689272 163.473318 
L 188.058983 163.473318 
L 188.095558 156.025976 
L 188.253232 156.025976 
L 188.253232 155.671341 
L 188.552785 155.671341 
L 188.612127 150.706447 
L 189.14947 150.706447 
L 189.241374 148.933271 
L 189.344232 148.933271 
L 189.378393 147.869365 
L 189.59332 147.869365 
L 189.59332 146.805459 
L 189.982923 146.805459 
L 190.092771 146.096188 
L 190.991021 146.096188 
L 191.04316 144.323012 
L 191.239978 144.323012 
L 191.239978 135.102494 
L 191.516173 135.102494 
L 191.516173 134.393224 
L 191.657804 134.393224 
L 191.657804 134.038588 
L 192.301759 134.038588 
L 192.301759 133.683953 
L 192.437618 133.683953 
L 192.52444 124.818071 
L 192.725482 124.818071 
L 192.725482 124.463435 
L 192.962049 124.463435 
L 192.962049 124.1088 
L 193.334475 124.1088 
L 193.44478 123.044894 
L 193.508827 123.044894 
L 193.563551 121.626353 
L 193.852757 121.626353 
L 193.933301 112.405835 
L 194.617274 112.405835 
L 194.617274 110.987294 
L 194.873857 110.987294 
L 194.873857 102.830682 
L 195.210614 102.830682 
L 195.28556 93.255529 
L 195.467515 93.255529 
L 195.467515 92.546259 
L 195.801988 92.546259 
L 195.801988 91.127718 
L 196.019047 91.127718 
L 196.019047 83.680376 
L 196.469219 83.680376 
L 196.469219 82.261835 
L 196.632393 82.261835 
L 196.632393 81.552565 
L 197.060729 81.552565 
L 197.143733 64.530071 
L 197.353376 64.530071 
L 197.353376 63.466165 
L 197.663524 63.466165 
L 197.765781 54.245647 
L 197.939796 54.245647 
L 197.939796 53.536376 
L 198.22629 53.536376 
L 198.22629 53.181741 
L 198.360861 53.181741 
L 198.44536 51.7632 
L 198.654961 51.7632 
L 198.654961 51.408565 
L 198.862253 51.408565 
L 198.862253 50.344659 
L 199.148677 50.344659 
L 199.222978 46.443671 
L 200.512525 46.443671 
L 200.556536 45.7344 
L 200.768851 45.7344 
L 200.768851 45.025129 
L 200.886462 45.025129 
L 200.886462 44.670494 
L 201.301462 44.670494 
L 201.301462 36.868518 
L 201.895592 36.868518 
L 201.895592 36.513882 
L 202.029628 36.513882 
L 202.128088 35.804612 
L 203.079848 35.804612 
L 203.079848 35.449976 
L 203.222091 35.449976 
L 203.222091 34.386071 
L 203.384892 34.386071 
L 203.384892 34.031435 
L 203.658461 34.031435 
L 203.658461 31.903624 
L 204.022362 31.903624 
L 204.022362 30.839718 
L 204.353715 30.839718 
L 204.353715 30.130447 
L 205.527487 30.130447 
L 205.527487 29.775812 
L 206.116064 29.775812 
L 206.116064 28.711906 
L 208.434532 28.711906 
L 208.434532 27.648 
L 360.8064 27.648 
L 360.8064 27.648 
" style="fill:none;stroke:#000080;stroke-linecap:square;stroke-width:1.5;"/>
   </g>
   <g id="line2d_36">
    <defs>
     <path d="M 0 6 
C 1.591219 6 3.117479 5.367802 4.242641 4.242641 
C 5.367802 3.117479 6 1.591219 6 0 
C 6 -1.591219 5.367802 -3.117479 4.242641 -4.242641 
C 3.117479 -5.367802 1.591219 -6 0 -6 
C -1.591219 -6 -3.117479 -5.367802 -4.242641 -4.242641 
C -5.367802 -3.117479 -6 -1.591219 -6 0 
C -6 1.591219 -5.367802 3.117479 -4.242641 4.242641 
C -3.117479 5.367802 -1.591219 6 0 6 
z
" id="m80fb43fc3e" style="stroke:#000080;stroke-width:1.5;"/>
    </defs>
    <g>
     <use style="fill-opacity:0;stroke:#000080;stroke-width:1.5;" x="86.578163" xlink:href="#m80fb43fc3e" y="277.311247"/>
     <use style="fill-opacity:0;stroke:#000080;stroke-width:1.5;" x="164.665667" xlink:href="#m80fb43fc3e" y="234.045741"/>
     <use style="fill-opacity:0;stroke:#000080;stroke-width:1.5;" x="195.210614" xlink:href="#m80fb43fc3e" y="102.830682"/>
     <use style="fill-opacity:0;stroke:#000080;stroke-width:1.5;" x="208.434532" xlink:href="#m80fb43fc3e" y="28.711906"/>
     <use style="fill-opacity:0;stroke:#000080;stroke-width:1.5;" x="208.434532" xlink:href="#m80fb43fc3e" y="27.648"/>
     <use style="fill-opacity:0;stroke:#000080;stroke-width:1.5;" x="360.8064" xlink:href="#m80fb43fc3e" y="27.648"/>
    </g>
   </g>
   <g id="line2d_37">
    <path style="fill:none;stroke:#000080;stroke-linecap:square;stroke-width:1.5;"/>
    <g/>
   </g>
   <g id="line2d_38">
    <defs>
     <path d="M 0 1.5 
C 0.397805 1.5 0.77937 1.341951 1.06066 1.06066 
C 1.341951 0.77937 1.5 0.397805 1.5 0 
C 1.5 -0.397805 1.341951 -0.77937 1.06066 -1.06066 
C 0.77937 -1.341951 0.397805 -1.5 0 -1.5 
C -0.397805 -1.5 -0.77937 -1.341951 -1.06066 -1.06066 
C -1.341951 -0.77937 -1.5 -0.397805 -1.5 0 
C -1.5 0.397805 -1.341951 0.77937 -1.06066 1.06066 
C -0.77937 1.341951 -0.397805 1.5 0 1.5 
z
" id="me6feb6f9b3" style="stroke:#ff00ff;"/>
    </defs>
    <g>
     <use style="fill:#ff00ff;stroke:#ff00ff;" x="206.029412" xlink:href="#me6feb6f9b3" y="27.648"/>
     <use style="fill:#ff00ff;stroke:#ff00ff;" x="206.029412" xlink:href="#me6feb6f9b3" y="27.648"/>
    </g>
   </g>
   <g id="line2d_39">
    <path d="M 36.933397 298.944 
L 36.933397 295.397647 
L 49.972572 295.397647 
L 49.972572 292.9152 
L 57.6 292.9152 
L 57.6 292.205929 
L 63.011746 292.205929 
L 63.011746 290.787388 
L 67.209423 290.787388 
L 67.209423 289.723482 
L 70.639174 289.723482 
L 70.639174 289.368847 
L 73.538988 289.368847 
L 73.538988 289.014212 
L 76.050921 289.014212 
L 76.050921 286.8864 
L 78.266603 286.8864 
L 78.266603 285.113224 
L 80.248597 285.113224 
L 80.248597 284.403953 
L 82.04153 284.403953 
L 82.04153 283.694682 
L 83.678349 283.694682 
L 83.678349 282.276141 
L 85.184077 282.276141 
L 85.184077 281.212235 
L 86.578163 281.212235 
L 86.578163 280.8576 
L 87.876026 280.8576 
L 87.876026 274.8288 
L 89.090095 274.8288 
L 89.090095 273.410259 
L 90.230539 273.410259 
L 90.230539 273.055624 
L 92.322865 273.055624 
L 92.322865 272.700988 
L 93.287772 272.700988 
L 93.287772 272.346353 
L 95.080704 272.346353 
L 95.080704 271.637082 
L 96.717523 271.637082 
L 96.717523 269.509271 
L 98.933205 269.509271 
L 98.933205 268.090729 
L 101.532027 268.090729 
L 101.532027 266.317553 
L 102.12927 266.317553 
L 102.12927 262.7712 
L 103.815014 262.7712 
L 103.815014 262.416565 
L 104.860369 262.416565 
L 104.860369 260.643388 
L 108.119879 260.643388 
L 108.119879 260.288753 
L 110.897141 260.288753 
L 110.897141 259.224847 
L 113.316634 259.224847 
L 113.316634 258.515576 
L 113.638206 258.515576 
L 113.638206 257.451671 
L 114.265316 257.451671 
L 114.265316 256.033129 
L 115.168444 256.033129 
L 115.168444 255.678494 
L 116.308887 255.678494 
L 116.308887 255.323859 
L 117.6436 255.323859 
L 117.6436 254.614588 
L 118.64712 254.614588 
L 118.64712 253.905318 
L 118.889854 253.905318 
L 118.889854 253.196047 
L 119.129494 253.196047 
L 119.129494 252.132141 
L 119.366121 252.132141 
L 119.366121 251.777506 
L 119.599808 251.777506 
L 119.599808 250.004329 
L 120.28394 250.004329 
L 120.28394 249.649694 
L 120.506564 249.649694 
L 120.506564 248.940424 
L 120.726585 248.940424 
L 120.726585 248.585788 
L 121.371615 248.585788 
L 121.371615 248.231153 
L 122.795872 248.231153 
L 122.795872 247.521882 
L 122.990812 247.521882 
L 122.990812 247.167247 
L 123.563797 247.167247 
L 123.563797 246.812612 
L 125.184934 246.812612 
L 125.184934 246.457976 
L 125.526971 246.457976 
L 125.526971 245.394071 
L 125.695686 245.394071 
L 125.695686 244.330165 
L 125.862901 244.330165 
L 125.862901 243.620894 
L 126.517282 243.620894 
L 126.517282 243.266259 
L 127.458055 243.266259 
L 127.458055 242.911624 
L 128.207619 242.911624 
L 128.207619 242.556988 
L 128.354013 242.556988 
L 128.354013 242.202353 
L 128.499277 242.202353 
L 128.499277 241.138447 
L 129.348062 241.138447 
L 129.348062 240.429176 
L 129.622688 240.429176 
L 129.622688 239.365271 
L 130.160198 239.365271 
L 130.160198 238.301365 
L 131.065395 238.301365 
L 131.065395 237.946729 
L 131.191226 237.946729 
L 131.191226 236.528188 
L 132.754746 236.528188 
L 132.754746 227.662306 
L 132.984158 227.662306 
L 132.984158 227.307671 
L 134.516177 227.307671 
L 134.516177 226.953035 
L 134.931919 226.953035 
L 134.931919 226.5984 
L 135.136394 226.5984 
L 135.136394 226.243765 
L 135.338671 226.243765 
L 135.338671 224.825224 
L 135.835047 224.825224 
L 135.835047 215.604706 
L 136.413909 215.604706 
L 136.413909 215.250071 
L 136.88305 215.250071 
L 136.88305 214.895435 
L 137.875736 214.895435 
L 137.963436 214.186165 
L 138.224108 214.186165 
L 138.224108 213.831529 
L 138.985129 213.831529 
L 138.985129 212.767624 
L 140.725251 212.767624 
L 140.725251 212.412988 
L 141.246793 212.412988 
L 141.246793 212.058353 
L 143.199372 212.058353 
L 143.199372 211.703718 
L 143.462475 211.703718 
L 143.462475 211.349082 
L 143.592659 211.349082 
L 143.592659 210.994447 
L 145.26728 210.994447 
L 145.326529 209.930541 
L 145.385592 209.930541 
L 145.385592 209.575906 
L 146.750169 209.575906 
L 146.859539 208.512 
L 147.607824 208.512 
L 147.607824 208.157365 
L 148.175569 208.157365 
L 148.175569 207.448094 
L 148.775988 207.448094 
L 148.775988 207.093459 
L 149.117582 207.093459 
L 149.165879 205.674918 
L 149.40552 205.674918 
L 149.500528 204.611012 
L 150.198193 204.611012 
L 150.243797 203.547106 
L 150.379949 203.547106 
L 150.425115 202.837835 
L 150.559965 202.837835 
L 150.604701 202.128565 
L 151.089903 202.128565 
L 151.176793 201.419294 
L 151.306379 201.419294 
L 151.349377 200.710024 
L 151.731998 200.710024 
L 151.731998 200.355388 
L 151.899585 200.355388 
L 151.899585 200.000753 
L 152.106991 200.000753 
L 152.189318 198.582212 
L 152.230346 198.582212 
L 152.312136 190.4256 
L 152.434157 190.4256 
L 152.434157 189.716329 
L 152.555392 189.716329 
L 152.635783 187.943153 
L 152.675851 187.943153 
L 152.75573 186.524612 
L 153.111048 186.524612 
L 153.111048 185.815341 
L 153.536404 185.815341 
L 153.5746 185.106071 
L 153.688725 185.106071 
L 153.726614 183.687529 
L 153.839823 183.687529 
L 153.877408 182.623624 
L 154.24919 182.623624 
L 154.359307 179.786541 
L 154.39587 179.786541 
L 154.39587 179.431906 
L 154.649839 179.431906 
L 154.649839 179.077271 
L 154.793439 179.077271 
L 154.793439 178.722635 
L 154.971412 178.722635 
L 154.971412 178.368 
L 155.252711 178.368 
L 155.252711 178.013365 
L 155.391799 178.013365 
L 155.495444 177.304094 
L 155.529866 177.304094 
L 155.632755 169.147482 
L 156.105602 169.147482 
L 156.105602 168.792847 
L 156.337642 168.792847 
L 156.337642 168.438212 
L 156.501649 168.438212 
L 156.566854 167.728941 
L 157.080512 167.728941 
L 157.080512 167.019671 
L 157.238196 167.019671 
L 157.238196 166.3104 
L 157.856036 166.3104 
L 157.916719 164.891859 
L 158.127579 164.891859 
L 158.127579 164.182588 
L 158.306454 164.182588 
L 158.365703 163.473318 
L 158.513014 163.473318 
L 158.513014 163.118682 
L 158.630038 163.118682 
L 158.717331 161.700141 
L 159.14782 161.700141 
L 159.232748 160.2816 
L 159.289155 160.2816 
L 159.289155 159.926965 
L 159.568678 159.926965 
L 159.568678 159.572329 
L 159.734419 159.572329 
L 159.734419 159.217694 
L 159.898714 159.217694 
L 159.898714 158.863059 
L 160.088594 158.863059 
L 160.088594 158.153788 
L 160.489139 158.153788 
L 160.515541 157.089882 
L 160.855439 157.089882 
L 160.855439 156.380612 
L 161.087207 156.380612 
L 161.087207 156.025976 
L 161.240147 156.025976 
L 161.240147 155.316706 
L 161.567313 155.316706 
L 161.567313 154.962071 
L 161.74115 154.962071 
L 161.839769 153.543529 
L 161.864343 153.543529 
L 161.96232 150.706447 
L 161.986735 150.706447 
L 162.084079 149.642541 
L 162.156757 149.642541 
L 162.253227 147.869365 
L 162.277267 147.869365 
L 162.373122 147.160094 
L 162.587027 147.160094 
L 162.587027 146.805459 
L 162.728291 146.805459 
L 162.798527 145.386918 
L 162.961399 145.386918 
L 163.053839 144.323012 
L 163.099889 144.323012 
L 163.145827 142.904471 
L 163.214524 142.904471 
L 163.282972 142.1952 
L 163.373849 142.1952 
L 163.419123 141.485929 
L 163.843882 141.485929 
L 163.932096 139.358118 
L 163.997986 139.358118 
L 164.063646 137.939576 
L 164.237627 137.939576 
L 164.237627 137.584941 
L 164.431451 137.584941 
L 164.431451 137.230306 
L 164.686815 137.230306 
L 164.686815 136.875671 
L 164.834193 136.875671 
L 164.917893 135.457129 
L 164.959603 135.457129 
L 165.042749 134.747859 
L 165.166781 134.747859 
L 165.249018 134.038588 
L 165.432746 134.038588 
L 165.51383 132.974682 
L 165.554242 132.974682 
L 165.654892 131.910776 
L 165.735027 131.910776 
L 165.814821 130.846871 
L 165.894279 130.846871 
L 165.973402 129.782965 
L 166.286609 129.782965 
L 166.286609 129.428329 
L 166.613775 129.428329 
L 166.708927 128.009788 
L 166.784704 128.009788 
L 166.784704 126.945882 
L 166.916583 126.945882 
L 166.935348 126.236612 
L 167.159075 126.236612 
L 167.269949 124.1088 
L 167.435044 124.1088 
L 167.453299 123.044894 
L 167.707023 123.044894 
L 167.707023 122.690259 
L 168.151762 122.690259 
L 168.221954 121.271718 
L 168.396298 121.271718 
L 168.500134 118.434635 
L 168.517384 118.434635 
L 168.6034 117.725365 
L 168.757243 117.725365 
L 168.825216 116.661459 
L 168.892945 116.661459 
L 168.994082 115.952188 
L 169.044448 115.952188 
L 169.094679 115.242918 
L 169.161446 115.242918 
L 169.261154 114.533647 
L 169.327334 114.533647 
L 169.327334 113.824376 
L 169.491772 113.824376 
L 169.508137 113.115106 
L 169.703414 113.115106 
L 169.800298 112.0512 
L 169.96067 112.0512 
L 170.040346 111.341929 
L 170.230204 111.341929 
L 170.261661 110.632659 
L 170.480403 110.632659 
L 170.588827 109.923388 
L 170.803818 109.923388 
L 170.803818 109.568753 
L 170.925576 109.568753 
L 170.925576 109.214118 
L 171.046551 109.214118 
L 171.15177 107.440941 
L 171.286192 107.440941 
L 171.375276 106.377035 
L 171.419661 106.377035 
L 171.419661 106.0224 
L 171.669213 106.0224 
L 171.756506 104.958494 
L 171.814477 104.958494 
L 171.88669 104.249224 
L 172.186995 104.249224 
L 172.28604 102.476047 
L 172.370523 102.476047 
L 172.412623 101.766776 
L 172.814802 101.766776 
L 172.924252 100.702871 
L 173.046626 100.702871 
L 173.154738 98.929694 
L 173.195121 98.929694 
L 173.195121 98.575059 
L 173.342453 98.575059 
L 173.342453 98.220424 
L 173.475398 98.220424 
L 173.581081 97.156518 
L 173.620559 97.156518 
L 173.673069 96.092612 
L 173.972187 96.092612 
L 173.997974 95.383341 
L 174.126381 95.383341 
L 174.126381 95.028706 
L 174.253918 95.028706 
L 174.355328 93.9648 
L 174.431028 93.9648 
L 174.506426 92.900894 
L 174.581522 92.900894 
L 174.63142 92.191624 
L 174.829699 92.191624 
L 174.915793 91.482353 
L 174.964813 91.482353 
L 174.964813 91.127718 
L 175.183838 91.127718 
L 175.26833 90.418447 
L 175.32845 90.418447 
L 175.352444 89.709176 
L 175.471959 89.709176 
L 175.471959 89.354541 
L 175.696966 89.354541 
L 175.696966 88.999906 
L 175.861055 88.999906 
L 175.896032 88.290635 
L 176.023726 88.290635 
L 176.069946 87.581365 
L 176.344907 87.581365 
L 176.378996 86.872094 
L 176.638314 86.872094 
L 176.738821 85.453553 
L 176.749956 85.453553 
L 176.860939 83.680376 
L 177.190012 83.680376 
L 177.200883 82.971106 
L 177.330842 82.971106 
L 177.43846 81.552565 
L 177.524113 81.552565 
L 177.577449 80.134024 
L 177.673074 80.134024 
L 177.72599 79.424753 
L 178.040396 79.424753 
L 178.09229 78.715482 
L 178.175024 78.715482 
L 178.175024 78.360847 
L 178.329176 78.360847 
L 178.329176 78.006212 
L 178.47192 78.006212 
L 178.573221 76.233035 
L 178.593416 76.233035 
L 178.643809 75.169129 
L 178.834079 75.169129 
L 178.883832 74.459859 
L 179.081538 74.459859 
L 179.179617 73.750588 
L 179.199172 73.750588 
L 179.23822 73.041318 
L 179.325784 73.041318 
L 179.422601 71.622776 
L 179.662486 71.622776 
L 179.662486 70.913506 
L 179.776554 70.913506 
L 179.871084 70.204235 
L 180.077394 70.204235 
L 180.123969 69.494965 
L 180.355129 69.494965 
L 180.355129 69.140329 
L 180.547132 69.140329 
L 180.637878 68.076424 
L 180.674054 68.076424 
L 180.782166 67.012518 
L 180.818066 67.012518 
L 180.862845 65.948612 
L 181.014301 65.948612 
L 181.014301 65.593976 
L 181.226065 65.593976 
L 181.226065 65.239341 
L 181.383339 65.239341 
L 181.487462 64.530071 
L 181.496113 64.530071 
L 181.573793 63.8208 
L 181.762339 63.8208 
L 181.87287 62.756894 
L 181.91521 62.756894 
L 181.91521 62.402259 
L 182.041661 62.402259 
L 182.142212 61.338353 
L 182.192288 61.338353 
L 182.20895 60.629082 
L 182.358249 60.629082 
L 182.358249 60.274447 
L 182.612629 60.274447 
L 182.653338 59.210541 
L 183.182598 59.210541 
L 183.182598 58.855906 
L 183.324394 58.855906 
L 183.402711 57.792 
L 183.457339 57.792 
L 183.457339 57.437365 
L 183.573867 57.437365 
L 183.666573 56.373459 
L 183.766492 56.373459 
L 183.766492 56.018824 
L 183.941981 56.018824 
L 184.010208 55.309553 
L 184.085726 55.309553 
L 184.085726 54.954918 
L 184.265742 54.954918 
L 184.332807 54.245647 
L 184.436656 54.245647 
L 184.451445 53.536376 
L 184.613361 53.536376 
L 184.693799 52.472471 
L 184.744809 52.472471 
L 184.846414 51.7632 
L 185.098054 51.7632 
L 185.183561 51.053929 
L 185.486809 51.053929 
L 185.486809 50.699294 
L 185.812768 50.699294 
L 185.895095 48.926118 
L 186.0858 48.926118 
L 186.0858 48.571482 
L 186.308106 48.571482 
L 186.308106 48.216847 
L 186.448217 48.216847 
L 186.534433 46.798306 
L 186.560881 46.798306 
L 186.607077 45.7344 
L 186.692569 45.7344 
L 186.692569 45.379765 
L 186.816825 45.379765 
L 186.816825 45.025129 
L 187.299446 45.025129 
L 187.36287 44.315859 
L 187.738989 44.315859 
L 187.751397 43.606588 
L 188.022338 43.606588 
L 188.132062 42.542682 
L 188.24115 42.542682 
L 188.349609 41.833412 
L 188.487291 41.833412 
L 188.588413 41.124141 
L 189.389767 41.124141 
L 189.389767 40.769506 
L 189.582069 40.769506 
L 189.582069 40.414871 
L 190.196537 40.414871 
L 190.196537 40.060235 
L 190.391589 40.060235 
L 190.391589 39.7056 
L 190.928264 39.7056 
L 191.032744 38.996329 
L 191.069175 38.996329 
L 191.069175 38.641694 
L 192.022119 38.641694 
L 192.081337 37.932424 
L 193.861723 37.932424 
L 193.888597 37.223153 
L 194.0446 37.223153 
L 194.0446 36.868518 
L 194.378958 36.868518 
L 194.378958 36.513882 
L 194.561216 36.513882 
L 194.561216 36.159247 
L 194.686039 36.159247 
L 194.686039 35.804612 
L 194.844102 35.804612 
L 194.844102 35.449976 
L 195.475745 35.449976 
L 195.475745 35.095341 
L 195.639574 35.095341 
L 195.741247 34.386071 
L 195.878647 34.386071 
L 195.987048 33.322165 
L 196.30068 33.322165 
L 196.30068 32.967529 
L 196.671037 32.967529 
L 196.671037 32.612894 
L 197.827596 32.612894 
L 197.827596 32.258259 
L 198.343209 32.258259 
L 198.343209 31.903624 
L 198.906867 31.903624 
L 198.906867 31.548988 
L 199.283552 31.548988 
L 199.283552 31.194353 
L 200.131003 31.194353 
L 200.131003 30.839718 
L 201.040102 30.839718 
L 201.040102 30.485082 
L 202.246137 30.485082 
L 202.246137 30.130447 
L 202.411879 30.130447 
L 202.411879 29.775812 
L 203.284664 29.775812 
L 203.284664 29.421176 
L 204.274 29.421176 
L 204.274 29.066541 
L 204.621237 29.066541 
L 204.704536 28.357271 
L 204.894983 28.357271 
L 204.894983 28.002635 
L 206.029412 28.002635 
L 206.029412 27.648 
L 360.8064 27.648 
L 360.8064 27.648 
" style="fill:none;stroke:#ff00ff;stroke-linecap:square;stroke-width:1.5;"/>
   </g>
   <g id="line2d_40">
    <defs>
     <path d="M -0 8.485281 
L 5.091169 0 
L 0 -8.485281 
L -5.091169 -0 
z
" id="mc7d0128958" style="stroke:#ff00ff;stroke-linejoin:miter;stroke-width:1.5;"/>
    </defs>
    <g>
     <use style="fill-opacity:0;stroke:#ff00ff;stroke-linejoin:miter;stroke-width:1.5;" x="114.265316" xlink:href="#mc7d0128958" y="256.033129"/>
     <use style="fill-opacity:0;stroke:#ff00ff;stroke-linejoin:miter;stroke-width:1.5;" x="163.373849" xlink:href="#mc7d0128958" y="141.840565"/>
     <use style="fill-opacity:0;stroke:#ff00ff;stroke-linejoin:miter;stroke-width:1.5;" x="206.029412" xlink:href="#mc7d0128958" y="28.002635"/>
     <use style="fill-opacity:0;stroke:#ff00ff;stroke-linejoin:miter;stroke-width:1.5;" x="206.029412" xlink:href="#mc7d0128958" y="27.648"/>
     <use style="fill-opacity:0;stroke:#ff00ff;stroke-linejoin:miter;stroke-width:1.5;" x="206.029412" xlink:href="#mc7d0128958" y="27.648"/>
     <use style="fill-opacity:0;stroke:#ff00ff;stroke-linejoin:miter;stroke-width:1.5;" x="360.8064" xlink:href="#mc7d0128958" y="27.648"/>
    </g>
   </g>
   <g id="line2d_41">
    <path style="fill:none;stroke:#ff00ff;stroke-linecap:square;stroke-width:1.5;"/>
    <g/>
   </g>
   <g id="line2d_42">
    <path clip-path="url(#p68006dc09b)" d="M 145.385592 209.575906 
" style="fill:none;stroke:#ff00ff;stroke-linecap:square;stroke-width:1.5;"/>
    <defs>
     <path d="M -12 12 
L 12 -12 
M -12 -12 
L 12 12 
" id="m065b11cb9f" style="stroke:#ff00ff;"/>
    </defs>
    <g clip-path="url(#p68006dc09b)">
     <use style="fill:#ff00ff;stroke:#ff00ff;" x="145.385592" xlink:href="#m065b11cb9f" y="209.575906"/>
    </g>
   </g>
   <g id="line2d_43">
    <defs>
     <path d="M 0 1.5 
C 0.397805 1.5 0.77937 1.341951 1.06066 1.06066 
C 1.341951 0.77937 1.5 0.397805 1.5 0 
C 1.5 -0.397805 1.341951 -0.77937 1.06066 -1.06066 
C 0.77937 -1.341951 0.397805 -1.5 0 -1.5 
C -0.397805 -1.5 -0.77937 -1.341951 -1.06066 -1.06066 
C -1.341951 -0.77937 -1.5 -0.397805 -1.5 0 
C -1.5 0.397805 -1.341951 0.77937 -1.06066 1.06066 
C -0.77937 1.341951 -0.397805 1.5 0 1.5 
z
" id="m9f5f123c6c" style="stroke:#ff7500;"/>
    </defs>
    <g>
     <use style="fill:#ff7500;stroke:#ff7500;" x="227.788807" xlink:href="#m9f5f123c6c" y="27.648"/>
     <use style="fill:#ff7500;stroke:#ff7500;" x="227.788807" xlink:href="#m9f5f123c6c" y="27.648"/>
    </g>
   </g>
   <g id="line2d_44">
    <path d="M 36.933397 298.944 
L 36.933397 290.078118 
L 49.972572 290.078118 
L 49.972572 287.595671 
L 63.011746 287.595671 
L 63.011746 286.8864 
L 73.538988 286.8864 
L 73.538988 286.531765 
L 82.04153 286.531765 
L 82.04153 286.177129 
L 104.344952 286.177129 
L 104.344952 284.403953 
L 104.860369 284.403953 
L 104.860369 284.049318 
L 116.854188 284.049318 
L 116.854188 283.694682 
L 117.6436 283.694682 
L 117.6436 283.340047 
L 118.889854 283.340047 
L 118.889854 282.985412 
L 119.129494 282.985412 
L 119.129494 282.630776 
L 121.99526 282.630776 
L 121.99526 281.921506 
L 123.183753 281.921506 
L 123.183753 281.566871 
L 124.481616 281.566871 
L 124.481616 281.212235 
L 126.993549 281.212235 
L 126.993549 280.8576 
L 127.304491 280.8576 
L 127.304491 280.502965 
L 127.458055 280.502965 
L 127.458055 280.148329 
L 127.911368 280.148329 
L 127.911368 279.084424 
L 130.292209 279.084424 
L 130.292209 277.311247 
L 130.553485 277.311247 
L 130.553485 276.956612 
L 131.191226 276.956612 
L 131.191226 276.601976 
L 131.440389 276.601976 
L 131.440389 276.247341 
L 131.563744 276.247341 
L 131.563744 275.892706 
L 131.686295 275.892706 
L 131.686295 273.410259 
L 133.210806 273.410259 
L 133.210806 273.055624 
L 133.656071 273.055624 
L 133.656071 272.700988 
L 134.198228 272.700988 
L 134.198228 271.991718 
L 136.126705 271.991718 
L 136.126705 271.637082 
L 136.508678 271.637082 
L 136.508678 271.282447 
L 137.159019 271.282447 
L 137.159019 269.863906 
L 137.430998 269.863906 
L 137.430998 269.509271 
L 138.481218 269.509271 
L 138.481218 269.154635 
L 139.475893 269.154635 
L 139.475893 267.026824 
L 139.875304 267.026824 
L 139.875304 265.962918 
L 140.110942 265.962918 
L 140.110942 265.608282 
L 140.343665 265.608282 
L 140.343665 264.899012 
L 140.875745 264.899012 
L 140.875745 264.189741 
L 141.610664 264.189741 
L 141.610664 263.835106 
L 142.178603 263.835106 
L 142.178603 263.480471 
L 143.066428 263.480471 
L 143.066428 263.125835 
L 143.462475 263.125835 
L 143.52768 262.416565 
L 143.721949 262.416565 
L 143.721949 262.061929 
L 144.355394 262.061929 
L 144.355394 261.707294 
L 144.664294 261.707294 
L 144.664294 261.352659 
L 144.968202 261.352659 
L 144.968202 260.998024 
L 145.736128 260.998024 
L 145.736128 260.288753 
L 145.851536 260.288753 
L 145.851536 259.579482 
L 146.023332 259.579482 
L 146.023332 258.870212 
L 146.362288 258.870212 
L 146.418192 258.160941 
L 146.859539 258.160941 
L 146.913986 257.097035 
L 147.076389 257.097035 
L 147.076389 256.387765 
L 147.290768 256.387765 
L 147.290768 255.323859 
L 147.607824 255.323859 
L 147.607824 253.550682 
L 148.32748 253.550682 
L 148.32748 253.196047 
L 149.020615 253.196047 
L 149.020615 252.486776 
L 149.214052 252.486776 
L 149.214052 252.132141 
L 150.334674 252.132141 
L 150.334674 251.777506 
L 150.958812 251.777506 
L 151.00261 249.295059 
L 152.024303 249.295059 
L 152.065693 248.231153 
L 152.230346 248.231153 
L 152.230346 247.167247 
L 153.38284 247.167247 
L 153.38284 246.812612 
L 154.541415 246.812612 
L 154.541415 246.457976 
L 154.721776 246.457976 
L 154.721776 246.103341 
L 155.112587 246.103341 
L 155.112587 245.748706 
L 155.252711 245.748706 
L 155.357123 245.039435 
L 155.529866 245.039435 
L 155.598521 243.620894 
L 155.701037 243.620894 
L 155.701037 243.266259 
L 156.53428 243.266259 
L 156.53428 242.911624 
L 156.953406 242.911624 
L 156.953406 242.556988 
L 157.080512 242.556988 
L 157.080512 241.493082 
L 157.269574 241.493082 
L 157.269574 240.783812 
L 158.007377 240.783812 
L 158.0375 239.719906 
L 158.571617 239.719906 
L 158.571617 239.365271 
L 158.804221 239.365271 
L 158.804221 239.010635 
L 159.232748 239.010635 
L 159.232748 238.656 
L 159.485256 238.656 
L 159.568678 237.946729 
L 159.953161 237.946729 
L 160.034538 236.882824 
L 160.196243 236.882824 
L 160.196243 236.173553 
L 160.673181 236.173553 
L 160.673181 235.818918 
L 160.9588 235.818918 
L 160.9588 234.755012 
L 162.03547 234.755012 
L 162.03547 234.045741 
L 162.180921 234.045741 
L 162.180921 233.691106 
L 162.420867 233.691106 
L 162.515995 230.854024 
L 162.775144 230.854024 
L 162.775144 230.499388 
L 163.554297 230.499388 
L 163.554297 230.144753 
L 164.150838 230.144753 
L 164.150838 229.435482 
L 164.792203 229.435482 
L 164.792203 228.726212 
L 165.021997 228.726212 
L 165.021997 228.371576 
L 165.634805 228.371576 
L 165.634805 228.016941 
L 165.794904 228.016941 
L 165.854592 227.307671 
L 166.052194 227.307671 
L 166.150222 226.243765 
L 166.40273 226.243765 
L 166.40273 225.889129 
L 166.632844 225.889129 
L 166.632844 225.534494 
L 166.916583 225.534494 
L 166.935348 224.825224 
L 167.269949 224.825224 
L 167.343504 223.406682 
L 167.957371 223.406682 
L 167.992864 222.342776 
L 168.291886 222.342776 
L 168.309328 212.767624 
L 168.482867 212.767624 
L 168.569041 212.058353 
L 169.044448 212.058353 
L 169.044448 211.703718 
L 169.194741 211.703718 
L 169.194741 210.994447 
L 169.816397 210.994447 
L 169.816397 209.930541 
L 170.261661 209.930541 
L 170.261661 209.575906 
L 170.511445 209.575906 
L 170.542436 208.866635 
L 170.84957 208.866635 
L 170.880009 208.157365 
L 171.001277 208.157365 
L 171.091717 207.448094 
L 171.196684 207.448094 
L 171.256404 206.738824 
L 171.478677 206.738824 
L 171.478677 206.384188 
L 171.640025 206.384188 
L 171.727453 205.674918 
L 171.771015 205.674918 
L 171.843395 204.965647 
L 172.058879 204.965647 
L 172.130162 203.901741 
L 172.271923 203.901741 
L 172.342405 203.192471 
L 172.510491 203.192471 
L 172.566188 202.128565 
L 172.62172 202.128565 
L 172.690906 194.326588 
L 172.869606 194.326588 
L 172.951515 191.489506 
L 173.073712 191.489506 
L 173.073712 191.134871 
L 173.302386 191.134871 
L 173.342453 182.623624 
L 173.594249 182.623624 
L 173.594249 181.914353 
L 173.725432 181.914353 
L 173.725432 181.559718 
L 174.023726 181.559718 
L 174.126381 180.495812 
L 174.266624 180.495812 
L 174.330027 179.786541 
L 174.49388 179.786541 
L 174.49388 179.077271 
L 174.668757 179.077271 
L 174.743209 177.658729 
L 175.614382 177.658729 
L 175.614382 177.304094 
L 175.942567 177.304094 
L 175.988986 175.530918 
L 176.104537 175.530918 
L 176.104537 175.176282 
L 176.390345 175.176282 
L 176.469599 173.048471 
L 176.582244 173.048471 
L 176.582244 172.693835 
L 176.816624 172.693835 
L 176.816624 172.3392 
L 176.938239 172.3392 
L 176.982268 170.920659 
L 177.200883 170.920659 
L 177.287622 170.211388 
L 177.384728 170.211388 
L 177.45991 169.147482 
L 177.513428 169.147482 
L 177.513428 168.792847 
L 177.799823 168.792847 
L 177.799823 168.438212 
L 178.081923 168.438212 
L 178.081923 168.083576 
L 178.226549 168.083576 
L 178.226549 167.728941 
L 178.431246 167.728941 
L 178.431246 167.374306 
L 178.67398 167.374306 
L 178.67398 167.019671 
L 178.933453 167.019671 
L 178.933453 166.665035 
L 179.150247 166.665035 
L 179.150247 165.955765 
L 179.30636 165.955765 
L 179.30636 165.601129 
L 179.422601 165.601129 
L 179.422601 165.246494 
L 179.748101 165.246494 
L 179.804963 163.118682 
L 179.993268 163.118682 
L 180.030704 161.345506 
L 180.207514 161.345506 
L 180.29069 159.572329 
L 180.364317 159.572329 
L 180.3735 158.508424 
L 180.492474 158.508424 
L 180.492474 158.153788 
L 180.665016 158.153788 
L 180.737195 157.444518 
L 181.217289 157.444518 
L 181.278636 156.735247 
L 181.478807 156.735247 
L 181.522042 155.316706 
L 181.608215 155.316706 
L 181.702552 153.898165 
L 181.745276 153.898165 
L 181.787904 153.188894 
L 181.881346 153.188894 
L 181.957455 150.706447 
L 182.066849 150.706447 
L 182.117125 149.997176 
L 182.258848 149.997176 
L 182.258848 149.642541 
L 182.407753 149.642541 
L 182.407753 149.287906 
L 182.555488 149.287906 
L 182.661469 147.514729 
L 182.702072 147.514729 
L 182.702072 147.160094 
L 182.879694 147.160094 
L 182.879694 146.805459 
L 183.08747 146.805459 
L 183.111297 146.096188 
L 183.237868 146.096188 
L 183.237868 145.741553 
L 183.58161 145.741553 
L 183.58161 145.386918 
L 183.735804 145.386918 
L 183.781817 144.677647 
L 183.850626 144.677647 
L 183.949574 143.613741 
L 183.972335 143.613741 
L 183.972335 142.549835 
L 184.115848 142.549835 
L 184.183448 141.131294 
L 184.325367 141.131294 
L 184.414451 139.358118 
L 184.436656 139.358118 
L 184.547291 138.648847 
L 184.635333 138.648847 
L 184.73753 136.1664 
L 184.759357 136.1664 
L 184.831933 134.747859 
L 184.940274 134.747859 
L 184.976249 134.038588 
L 185.211977 134.038588 
L 185.28283 133.329318 
L 185.458805 133.329318 
L 185.458805 132.974682 
L 185.681677 132.974682 
L 185.764578 132.265412 
L 185.956604 132.265412 
L 185.956604 131.556141 
L 186.099348 131.556141 
L 186.207383 130.492235 
L 186.254454 130.492235 
L 186.301408 129.073694 
L 186.521195 129.073694 
L 186.59389 126.945882 
L 186.640005 126.945882 
L 186.718797 125.172706 
L 186.777675 125.172706 
L 186.777675 124.818071 
L 186.914345 124.818071 
L 187.02426 123.044894 
L 187.305798 123.044894 
L 187.305798 122.690259 
L 187.526779 122.690259 
L 187.526779 122.335624 
L 187.676822 122.335624 
L 187.676822 121.980988 
L 187.905819 121.980988 
L 187.930409 121.271718 
L 188.046776 121.271718 
L 188.058983 120.207812 
L 188.216963 120.207812 
L 188.22906 118.789271 
L 188.3436 118.789271 
L 188.3436 118.434635 
L 188.457446 118.434635 
L 188.475359 117.725365 
L 188.594344 117.725365 
L 188.618051 117.016094 
L 188.747909 117.016094 
L 188.771423 116.306824 
L 188.876876 116.306824 
L 188.917726 115.597553 
L 189.033955 115.597553 
L 189.033955 115.242918 
L 189.206963 115.242918 
L 189.292873 114.179012 
L 189.327128 114.179012 
L 189.412493 113.469741 
L 189.683086 113.469741 
L 189.683086 113.115106 
L 189.982923 113.115106 
L 190.059884 112.0512 
L 190.098247 112.0512 
L 190.147456 110.632659 
L 190.234623 110.632659 
L 190.234623 109.923388 
L 190.402367 109.923388 
L 190.402367 109.214118 
L 190.573967 109.214118 
L 190.573967 108.150212 
L 190.717547 108.150212 
L 190.744016 107.086306 
L 190.943973 107.086306 
L 191.04316 104.958494 
L 191.286293 104.958494 
L 191.286293 104.603859 
L 191.39903 104.603859 
L 191.450051 103.894588 
L 191.571941 103.894588 
L 191.592179 103.185318 
L 191.838348 103.185318 
L 191.838348 102.830682 
L 192.07148 102.830682 
L 192.140369 102.121412 
L 192.476255 102.121412 
L 192.481079 101.057506 
L 192.649148 101.057506 
L 192.758781 100.348235 
L 192.777782 100.348235 
L 192.777782 99.9936 
L 192.924397 99.9936 
L 192.947938 99.284329 
L 193.139871 99.284329 
L 193.242057 98.575059 
L 193.274455 98.575059 
L 193.274455 98.220424 
L 193.49055 98.220424 
L 193.554442 97.156518 
L 193.776369 97.156518 
L 193.794371 96.092612 
L 193.888597 96.092612 
L 193.915432 95.383341 
L 194.013502 95.383341 
L 194.09779 94.674071 
L 194.146415 94.674071 
L 194.190512 93.9648 
L 194.374597 93.9648 
L 194.400748 93.255529 
L 194.535287 93.255529 
L 194.582797 91.482353 
L 194.82282 91.482353 
L 194.82282 91.127718 
L 195.0135 91.127718 
L 195.097631 90.418447 
L 195.376758 90.418447 
L 195.376758 90.063812 
L 195.537348 90.063812 
L 195.61509 89.354541 
L 195.680309 89.354541 
L 195.720956 88.290635 
L 195.870592 88.290635 
L 195.918868 87.581365 
L 196.324288 87.581365 
L 196.34001 86.872094 
L 196.527658 86.872094 
L 196.566517 85.808188 
L 196.725004 85.808188 
L 196.759616 84.035012 
L 196.984953 84.035012 
L 196.984953 83.680376 
L 197.155023 83.680376 
L 197.158785 82.971106 
L 197.316111 82.971106 
L 197.338479 81.9072 
L 197.516472 81.9072 
L 197.604841 79.779388 
L 197.722025 79.779388 
L 197.809436 79.070118 
L 197.892825 79.070118 
L 197.892825 78.715482 
L 198.069258 78.715482 
L 198.069258 78.360847 
L 198.258249 78.360847 
L 198.265344 77.651576 
L 198.64106 77.651576 
L 198.710463 75.523765 
L 198.758893 75.523765 
L 198.820977 73.750588 
L 199.219607 73.750588 
L 199.320474 73.041318 
L 199.444135 73.041318 
L 199.500681 72.332047 
L 199.761247 72.332047 
L 199.761247 71.977412 
L 199.937301 71.977412 
L 200.011789 70.558871 
L 200.073102 70.558871 
L 200.172711 69.140329 
L 200.191929 69.140329 
L 200.274982 68.076424 
L 200.578503 68.076424 
L 200.584774 67.367153 
L 200.709769 67.367153 
L 200.734668 66.657882 
L 201.067625 66.657882 
L 201.174275 65.593976 
L 201.253111 65.593976 
L 201.3527 64.884706 
L 201.4158 64.884706 
L 201.442779 63.8208 
L 201.553286 63.8208 
L 201.651302 62.402259 
L 202.064437 62.402259 
L 202.107859 61.692988 
L 202.297731 61.692988 
L 202.320616 60.983718 
L 202.508363 60.983718 
L 202.508363 60.629082 
L 202.778148 60.629082 
L 202.778148 60.274447 
L 202.900518 60.274447 
L 203.005564 58.855906 
L 203.145632 58.855906 
L 203.145632 58.501271 
L 203.414586 58.501271 
L 203.414586 58.146635 
L 203.655798 58.146635 
L 203.67975 57.437365 
L 203.785835 57.437365 
L 203.841292 55.664188 
L 204.29203 55.664188 
L 204.29203 55.309553 
L 204.532485 55.309553 
L 204.613646 54.245647 
L 204.719641 54.245647 
L 204.719641 53.891012 
L 204.880018 53.891012 
L 204.967149 53.181741 
L 205.041513 53.181741 
L 205.120511 51.7632 
L 205.189364 51.7632 
L 205.189364 51.408565 
L 205.355536 51.408565 
L 205.355536 51.053929 
L 205.50095 51.053929 
L 205.602074 49.635388 
L 205.906953 49.635388 
L 205.965927 48.216847 
L 206.113727 48.216847 
L 206.18603 47.152941 
L 206.290494 47.152941 
L 206.290494 46.798306 
L 206.506853 46.798306 
L 206.506853 46.443671 
L 206.643665 46.443671 
L 206.713963 45.7344 
L 206.829047 45.7344 
L 206.849283 45.025129 
L 207.143602 45.025129 
L 207.143602 44.670494 
L 207.291248 44.670494 
L 207.291248 44.315859 
L 207.452985 44.315859 
L 207.452985 43.961224 
L 207.574462 43.961224 
L 207.658601 42.542682 
L 207.927892 42.542682 
L 207.927892 42.188047 
L 208.195474 42.188047 
L 208.195474 41.833412 
L 208.432466 41.833412 
L 208.432466 41.478776 
L 208.55601 41.478776 
L 208.55601 41.124141 
L 208.869442 41.124141 
L 208.891631 40.414871 
L 208.996173 40.414871 
L 208.996173 40.060235 
L 209.48106 40.060235 
L 209.529842 38.996329 
L 210.086665 38.996329 
L 210.086665 38.641694 
L 210.810418 38.641694 
L 210.810418 38.287059 
L 211.063581 38.287059 
L 211.133503 37.223153 
L 211.21386 37.223153 
L 211.21386 36.868518 
L 211.608831 36.868518 
L 211.608831 36.513882 
L 211.777327 36.513882 
L 211.777327 36.159247 
L 212.00764 36.159247 
L 212.00764 35.804612 
L 212.257096 35.804612 
L 212.257096 35.449976 
L 212.662342 35.449976 
L 212.662342 35.095341 
L 212.974853 35.095341 
L 212.974853 34.740706 
L 213.223098 34.740706 
L 213.223098 34.386071 
L 213.531231 34.386071 
L 213.531231 34.031435 
L 213.761397 34.031435 
L 213.761397 33.6768 
L 215.089116 33.6768 
L 215.089116 33.322165 
L 215.29392 33.322165 
L 215.29392 32.967529 
L 215.822902 32.967529 
L 215.911951 31.903624 
L 217.661676 31.903624 
L 217.661676 31.548988 
L 218.620827 31.548988 
L 218.620827 31.194353 
L 218.757351 31.194353 
L 218.81573 30.485082 
L 219.061543 30.485082 
L 219.083838 29.775812 
L 219.759927 29.775812 
L 219.759927 29.421176 
L 220.221453 29.421176 
L 220.221453 29.066541 
L 220.365511 29.066541 
L 220.365511 28.711906 
L 223.503254 28.711906 
L 223.503254 28.357271 
L 224.883824 28.357271 
L 224.883824 28.002635 
L 227.788807 28.002635 
L 227.788807 27.648 
L 360.8064 27.648 
L 360.8064 27.648 
" style="fill:none;stroke:#ff7500;stroke-linecap:square;stroke-width:1.5;"/>
   </g>
   <g id="line2d_45">
    <defs>
     <path d="M 0 -6 
L -1.347084 -1.854102 
L -5.706339 -1.854102 
L -2.179628 0.708204 
L -3.526712 4.854102 
L -0 2.291796 
L 3.526712 4.854102 
L 2.179628 0.708204 
L 5.706339 -1.854102 
L 1.347084 -1.854102 
z
" id="m596452a0c5" style="stroke:#ff7500;stroke-linejoin:bevel;stroke-width:1.5;"/>
    </defs>
    <g>
     <use style="fill-opacity:0;stroke:#ff7500;stroke-linejoin:bevel;stroke-width:1.5;" x="152.230346" xlink:href="#m596452a0c5" y="247.167247"/>
     <use style="fill-opacity:0;stroke:#ff7500;stroke-linejoin:bevel;stroke-width:1.5;" x="191.571941" xlink:href="#m596452a0c5" y="103.539953"/>
     <use style="fill-opacity:0;stroke:#ff7500;stroke-linejoin:bevel;stroke-width:1.5;" x="227.788807" xlink:href="#m596452a0c5" y="28.002635"/>
     <use style="fill-opacity:0;stroke:#ff7500;stroke-linejoin:bevel;stroke-width:1.5;" x="227.788807" xlink:href="#m596452a0c5" y="27.648"/>
     <use style="fill-opacity:0;stroke:#ff7500;stroke-linejoin:bevel;stroke-width:1.5;" x="227.788807" xlink:href="#m596452a0c5" y="27.648"/>
     <use style="fill-opacity:0;stroke:#ff7500;stroke-linejoin:bevel;stroke-width:1.5;" x="360.8064" xlink:href="#m596452a0c5" y="27.648"/>
    </g>
   </g>
   <g id="line2d_46">
    <path style="fill:none;stroke:#ff7500;stroke-linecap:square;stroke-width:1.5;"/>
    <g/>
   </g>
   <g id="line2d_47">
    <path clip-path="url(#p68006dc09b)" d="M 158.187393 239.719906 
" style="fill:none;stroke:#ff7500;stroke-linecap:square;stroke-width:1.5;"/>
    <defs>
     <path d="M -12 12 
L 12 -12 
M -12 -12 
L 12 12 
" id="m9ce68df6e8" style="stroke:#ff7500;"/>
    </defs>
    <g clip-path="url(#p68006dc09b)">
     <use style="fill:#ff7500;stroke:#ff7500;" x="158.187393" xlink:href="#m9ce68df6e8" y="239.719906"/>
    </g>
   </g>
   <g id="line2d_48">
    <path d="M 360.8064 27.648 
L 380.514816 293.51808 
" style="fill:none;stroke:#ff7500;stroke-linecap:square;stroke-width:1.5;"/>
    <g>
     <use style="fill-opacity:0;stroke:#ff7500;stroke-linejoin:bevel;stroke-width:1.5;" x="360.8064" xlink:href="#m596452a0c5" y="27.648"/>
     <use style="fill-opacity:0;stroke:#ff7500;stroke-linejoin:bevel;stroke-width:1.5;" x="380.514816" xlink:href="#m596452a0c5" y="293.51808"/>
    </g>
   </g>
   <g id="line2d_49">
    <path d="M 360.8064 27.648 
L 380.514816 206.70336 
" style="fill:none;stroke:#000080;stroke-linecap:square;stroke-width:1.5;"/>
    <g>
     <use style="fill-opacity:0;stroke:#000080;stroke-width:1.5;" x="360.8064" xlink:href="#m80fb43fc3e" y="27.648"/>
     <use style="fill-opacity:0;stroke:#000080;stroke-width:1.5;" x="380.514816" xlink:href="#m80fb43fc3e" y="206.70336"/>
    </g>
   </g>
   <g id="line2d_50">
    <path d="M 360.8064 27.648 
L 380.514816 119.88864 
" style="fill:none;stroke:#ff00ff;stroke-linecap:square;stroke-width:1.5;"/>
    <g>
     <use style="fill-opacity:0;stroke:#ff00ff;stroke-linejoin:miter;stroke-width:1.5;" x="360.8064" xlink:href="#mc7d0128958" y="27.648"/>
     <use style="fill-opacity:0;stroke:#ff00ff;stroke-linejoin:miter;stroke-width:1.5;" x="380.514816" xlink:href="#mc7d0128958" y="119.88864"/>
    </g>
   </g>
   <g id="line2d_51">
    <path d="M 360.8064 298.944 
L 360.8064 27.648 
" style="fill:none;stroke:#000000;stroke-linecap:square;stroke-width:1.5;"/>
   </g>
   <g id="patch_3">
    <path d="M 57.6 298.944 
L 360.8064 298.944 
" style="fill:none;stroke:#000000;stroke-linecap:square;stroke-linejoin:miter;stroke-width:0.8;"/>
   </g>
   <g id="patch_4">
    <path d="M 57.6 27.648 
L 360.8064 27.648 
" style="fill:none;stroke:#000000;stroke-linecap:square;stroke-linejoin:miter;stroke-width:0.8;"/>
   </g>
   <g id="text_13">
    <!-- diffcma b -->
    <g transform="translate(386.578944 297.381205)scale(0.14 -0.14)">
     <defs>
      <path d="M 3116 1747 
Q 3116 2381 2855 2742 
Q 2594 3103 2138 3103 
Q 1681 3103 1420 2742 
Q 1159 2381 1159 1747 
Q 1159 1113 1420 752 
Q 1681 391 2138 391 
Q 2594 391 2855 752 
Q 3116 1113 3116 1747 
z
M 1159 2969 
Q 1341 3281 1617 3432 
Q 1894 3584 2278 3584 
Q 2916 3584 3314 3078 
Q 3713 2572 3713 1747 
Q 3713 922 3314 415 
Q 2916 -91 2278 -91 
Q 1894 -91 1617 61 
Q 1341 213 1159 525 
L 1159 0 
L 581 0 
L 581 4863 
L 1159 4863 
L 1159 2969 
z
" id="DejaVuSans-62" transform="scale(0.015625)"/>
     </defs>
     <use xlink:href="#DejaVuSans-64"/>
     <use x="63.476562" xlink:href="#DejaVuSans-69"/>
     <use x="91.259766" xlink:href="#DejaVuSans-66"/>
     <use x="126.464844" xlink:href="#DejaVuSans-66"/>
     <use x="161.669922" xlink:href="#DejaVuSans-63"/>
     <use x="216.650391" xlink:href="#DejaVuSans-6d"/>
     <use x="314.0625" xlink:href="#DejaVuSans-61"/>
     <use x="375.341797" xlink:href="#DejaVuSans-20"/>
     <use x="407.128906" xlink:href="#DejaVuSans-62"/>
    </g>
   </g>
   <g id="text_14">
    <!-- different -->
    <g transform="translate(386.578944 210.566485)scale(0.14 -0.14)">
     <use xlink:href="#DejaVuSans-64"/>
     <use x="63.476562" xlink:href="#DejaVuSans-69"/>
     <use x="91.259766" xlink:href="#DejaVuSans-66"/>
     <use x="126.464844" xlink:href="#DejaVuSans-66"/>
     <use x="161.669922" xlink:href="#DejaVuSans-65"/>
     <use x="223.193359" xlink:href="#DejaVuSans-72"/>
     <use x="262.056641" xlink:href="#DejaVuSans-65"/>
     <use x="323.580078" xlink:href="#DejaVuSans-6e"/>
     <use x="386.958984" xlink:href="#DejaVuSans-74"/>
    </g>
   </g>
   <g id="text_15">
    <!-- cma.fmin  -->
    <g transform="translate(386.578944 123.751765)scale(0.14 -0.14)">
     <use xlink:href="#DejaVuSans-63"/>
     <use x="54.980469" xlink:href="#DejaVuSans-6d"/>
     <use x="152.392578" xlink:href="#DejaVuSans-61"/>
     <use x="213.671875" xlink:href="#DejaVuSans-2e"/>
     <use x="245.458984" xlink:href="#DejaVuSans-66"/>
     <use x="280.664062" xlink:href="#DejaVuSans-6d"/>
     <use x="378.076172" xlink:href="#DejaVuSans-69"/>
     <use x="405.859375" xlink:href="#DejaVuSans-6e"/>
     <use x="469.238281" xlink:href="#DejaVuSans-20"/>
    </g>
   </g>
   <g id="text_16">
    <!-- best 2009 -->
    <g transform="translate(386.578944 36.937045)scale(0.14 -0.14)">
     <defs>
      <path d="M 703 97 
L 703 672 
Q 941 559 1184 500 
Q 1428 441 1663 441 
Q 2288 441 2617 861 
Q 2947 1281 2994 2138 
Q 2813 1869 2534 1725 
Q 2256 1581 1919 1581 
Q 1219 1581 811 2004 
Q 403 2428 403 3163 
Q 403 3881 828 4315 
Q 1253 4750 1959 4750 
Q 2769 4750 3195 4129 
Q 3622 3509 3622 2328 
Q 3622 1225 3098 567 
Q 2575 -91 1691 -91 
Q 1453 -91 1209 -44 
Q 966 3 703 97 
z
M 1959 2075 
Q 2384 2075 2632 2365 
Q 2881 2656 2881 3163 
Q 2881 3666 2632 3958 
Q 2384 4250 1959 4250 
Q 1534 4250 1286 3958 
Q 1038 3666 1038 3163 
Q 1038 2656 1286 2365 
Q 1534 2075 1959 2075 
z
" id="DejaVuSans-39" transform="scale(0.015625)"/>
     </defs>
     <use xlink:href="#DejaVuSans-62"/>
     <use x="63.476562" xlink:href="#DejaVuSans-65"/>
     <use x="125" xlink:href="#DejaVuSans-73"/>
     <use x="177.099609" xlink:href="#DejaVuSans-74"/>
     <use x="216.308594" xlink:href="#DejaVuSans-20"/>
     <use x="248.095703" xlink:href="#DejaVuSans-32"/>
     <use x="311.71875" xlink:href="#DejaVuSans-30"/>
     <use x="375.341797" xlink:href="#DejaVuSans-30"/>
     <use x="438.964844" xlink:href="#DejaVuSans-39"/>
    </g>
   </g>
   <g id="text_17">
    <!-- bbob f7, 3-D -->
    <g transform="translate(60.632064 38.111366)scale(0.102 -0.102)">
     <defs>
      <path d="M 525 4666 
L 3525 4666 
L 3525 4397 
L 1831 0 
L 1172 0 
L 2766 4134 
L 525 4134 
L 525 4666 
z
" id="DejaVuSans-37" transform="scale(0.015625)"/>
      <path d="M 2597 2516 
Q 3050 2419 3304 2112 
Q 3559 1806 3559 1356 
Q 3559 666 3084 287 
Q 2609 -91 1734 -91 
Q 1441 -91 1130 -33 
Q 819 25 488 141 
L 488 750 
Q 750 597 1062 519 
Q 1375 441 1716 441 
Q 2309 441 2620 675 
Q 2931 909 2931 1356 
Q 2931 1769 2642 2001 
Q 2353 2234 1838 2234 
L 1294 2234 
L 1294 2753 
L 1863 2753 
Q 2328 2753 2575 2939 
Q 2822 3125 2822 3475 
Q 2822 3834 2567 4026 
Q 2313 4219 1838 4219 
Q 1578 4219 1281 4162 
Q 984 4106 628 3988 
L 628 4550 
Q 988 4650 1302 4700 
Q 1616 4750 1894 4750 
Q 2613 4750 3031 4423 
Q 3450 4097 3450 3541 
Q 3450 3153 3228 2886 
Q 3006 2619 2597 2516 
z
" id="DejaVuSans-33" transform="scale(0.015625)"/>
      <path d="M 1259 4147 
L 1259 519 
L 2022 519 
Q 2988 519 3436 956 
Q 3884 1394 3884 2338 
Q 3884 3275 3436 3711 
Q 2988 4147 2022 4147 
L 1259 4147 
z
M 628 4666 
L 1925 4666 
Q 3281 4666 3915 4102 
Q 4550 3538 4550 2338 
Q 4550 1131 3912 565 
Q 3275 0 1925 0 
L 628 0 
L 628 4666 
z
" id="DejaVuSans-44" transform="scale(0.015625)"/>
     </defs>
     <use xlink:href="#DejaVuSans-62"/>
     <use x="63.476562" xlink:href="#DejaVuSans-62"/>
     <use x="126.953125" xlink:href="#DejaVuSans-6f"/>
     <use x="188.134766" xlink:href="#DejaVuSans-62"/>
     <use x="251.611328" xlink:href="#DejaVuSans-20"/>
     <use x="283.398438" xlink:href="#DejaVuSans-66"/>
     <use x="318.603516" xlink:href="#DejaVuSans-37"/>
     <use x="382.226562" xlink:href="#DejaVuSans-2c"/>
     <use x="414.013672" xlink:href="#DejaVuSans-20"/>
     <use x="445.800781" xlink:href="#DejaVuSans-33"/>
     <use x="509.423828" xlink:href="#DejaVuSans-2d"/>
     <use x="545.507812" xlink:href="#DejaVuSans-44"/>
    </g>
    <!-- 51 targets: 100..1e-08 -->
    <g transform="translate(60.632064 49.533135)scale(0.102 -0.102)">
     <defs>
      <path d="M 691 4666 
L 3169 4666 
L 3169 4134 
L 1269 4134 
L 1269 2991 
Q 1406 3038 1543 3061 
Q 1681 3084 1819 3084 
Q 2600 3084 3056 2656 
Q 3513 2228 3513 1497 
Q 3513 744 3044 326 
Q 2575 -91 1722 -91 
Q 1428 -91 1123 -41 
Q 819 9 494 109 
L 494 744 
Q 775 591 1075 516 
Q 1375 441 1709 441 
Q 2250 441 2565 725 
Q 2881 1009 2881 1497 
Q 2881 1984 2565 2268 
Q 2250 2553 1709 2553 
Q 1456 2553 1204 2497 
Q 953 2441 691 2322 
L 691 4666 
z
" id="DejaVuSans-35" transform="scale(0.015625)"/>
      <path d="M 750 794 
L 1409 794 
L 1409 0 
L 750 0 
L 750 794 
z
M 750 3309 
L 1409 3309 
L 1409 2516 
L 750 2516 
L 750 3309 
z
" id="DejaVuSans-3a" transform="scale(0.015625)"/>
     </defs>
     <use xlink:href="#DejaVuSans-35"/>
     <use x="63.623047" xlink:href="#DejaVuSans-31"/>
     <use x="127.246094" xlink:href="#DejaVuSans-20"/>
     <use x="159.033203" xlink:href="#DejaVuSans-74"/>
     <use x="198.242188" xlink:href="#DejaVuSans-61"/>
     <use x="259.521484" xlink:href="#DejaVuSans-72"/>
     <use x="298.884766" xlink:href="#DejaVuSans-67"/>
     <use x="362.361328" xlink:href="#DejaVuSans-65"/>
     <use x="423.884766" xlink:href="#DejaVuSans-74"/>
     <use x="463.09375" xlink:href="#DejaVuSans-73"/>
     <use x="515.193359" xlink:href="#DejaVuSans-3a"/>
     <use x="548.884766" xlink:href="#DejaVuSans-20"/>
     <use x="580.671875" xlink:href="#DejaVuSans-31"/>
     <use x="644.294922" xlink:href="#DejaVuSans-30"/>
     <use x="707.917969" xlink:href="#DejaVuSans-30"/>
     <use x="771.541016" xlink:href="#DejaVuSans-2e"/>
     <use x="803.328125" xlink:href="#DejaVuSans-2e"/>
     <use x="835.115234" xlink:href="#DejaVuSans-31"/>
     <use x="898.738281" xlink:href="#DejaVuSans-65"/>
     <use x="960.261719" xlink:href="#DejaVuSans-2d"/>
     <use x="996.345703" xlink:href="#DejaVuSans-30"/>
     <use x="1059.96875" xlink:href="#DejaVuSans-38"/>
    </g>
    <!-- 15 instances -->
    <g transform="translate(60.632064 60.954904)scale(0.102 -0.102)">
     <use xlink:href="#DejaVuSans-31"/>
     <use x="63.623047" xlink:href="#DejaVuSans-35"/>
     <use x="127.246094" xlink:href="#DejaVuSans-20"/>
     <use x="159.033203" xlink:href="#DejaVuSans-69"/>
     <use x="186.816406" xlink:href="#DejaVuSans-6e"/>
     <use x="250.195312" xlink:href="#DejaVuSans-73"/>
     <use x="302.294922" xlink:href="#DejaVuSans-74"/>
     <use x="341.503906" xlink:href="#DejaVuSans-61"/>
     <use x="402.783203" xlink:href="#DejaVuSans-6e"/>
     <use x="466.162109" xlink:href="#DejaVuSans-63"/>
     <use x="521.142578" xlink:href="#DejaVuSans-65"/>
     <use x="582.666016" xlink:href="#DejaVuSans-73"/>
    </g>
   </g>
   <g id="text_18">
    <!-- v2.6 -->
    <g style="fill:#808080;" transform="translate(198.292262 294.151352)scale(0.1 -0.1)">
     <use xlink:href="#DejaVuSans-76"/>
     <use x="59.179688" xlink:href="#DejaVuSans-32"/>
     <use x="122.802734" xlink:href="#DejaVuSans-2e"/>
     <use x="154.589844" xlink:href="#DejaVuSans-36"/>
    </g>
   </g>
   <g id="text_19">
    <!-- 7 Step-ellipsoid -->
    <g transform="translate(131.993825 21.648)scale(0.2 -0.2)">
     <defs>
      <path d="M 3425 4513 
L 3425 3897 
Q 3066 4069 2747 4153 
Q 2428 4238 2131 4238 
Q 1616 4238 1336 4038 
Q 1056 3838 1056 3469 
Q 1056 3159 1242 3001 
Q 1428 2844 1947 2747 
L 2328 2669 
Q 3034 2534 3370 2195 
Q 3706 1856 3706 1288 
Q 3706 609 3251 259 
Q 2797 -91 1919 -91 
Q 1588 -91 1214 -16 
Q 841 59 441 206 
L 441 856 
Q 825 641 1194 531 
Q 1563 422 1919 422 
Q 2459 422 2753 634 
Q 3047 847 3047 1241 
Q 3047 1584 2836 1778 
Q 2625 1972 2144 2069 
L 1759 2144 
Q 1053 2284 737 2584 
Q 422 2884 422 3419 
Q 422 4038 858 4394 
Q 1294 4750 2059 4750 
Q 2388 4750 2728 4690 
Q 3069 4631 3425 4513 
z
" id="DejaVuSans-53" transform="scale(0.015625)"/>
     </defs>
     <use xlink:href="#DejaVuSans-37"/>
     <use x="63.623047" xlink:href="#DejaVuSans-20"/>
     <use x="95.410156" xlink:href="#DejaVuSans-53"/>
     <use x="158.886719" xlink:href="#DejaVuSans-74"/>
     <use x="198.095703" xlink:href="#DejaVuSans-65"/>
     <use x="259.619141" xlink:href="#DejaVuSans-70"/>
     <use x="323.095703" xlink:href="#DejaVuSans-2d"/>
     <use x="359.179688" xlink:href="#DejaVuSans-65"/>
     <use x="420.703125" xlink:href="#DejaVuSans-6c"/>
     <use x="448.486328" xlink:href="#DejaVuSans-6c"/>
     <use x="476.269531" xlink:href="#DejaVuSans-69"/>
     <use x="504.052734" xlink:href="#DejaVuSans-70"/>
     <use x="567.529297" xlink:href="#DejaVuSans-73"/>
     <use x="619.628906" xlink:href="#DejaVuSans-6f"/>
     <use x="680.810547" xlink:href="#DejaVuSans-69"/>
     <use x="708.59375" xlink:href="#DejaVuSans-64"/>
    </g>
   </g>
  </g>
 </g>
 <defs>
  <clipPath id="p68006dc09b">
   <rect height="271.296" width="303.2064" x="57.6" y="27.648"/>
  </clipPath>
 </defs>
</svg>
