<?xml version="1.0" encoding="utf-8" standalone="no"?>
<!DOCTYPE svg PUBLIC "-//W3C//DTD SVG 1.1//EN"
  "http://www.w3.org/Graphics/SVG/1.1/DTD/svg11.dtd">
<svg height="345.6pt" version="1.1" viewBox="0 0 460.8 345.6" width="460.8pt" xmlns="http://www.w3.org/2000/svg" xmlns:xlink="http://www.w3.org/1999/xlink">
 <metadata>
  <rdf:RDF xmlns:cc="http://creativecommons.org/ns#" xmlns:dc="http://purl.org/dc/elements/1.1/" xmlns:rdf="http://www.w3.org/1999/02/22-rdf-syntax-ns#">
   <cc:Work>
    <dc:type rdf:resource="http://purl.org/dc/dcmitype/StillImage"/>
    <dc:date>2022-05-07T21:25:16.628978</dc:date>
    <dc:format>image/svg+xml</dc:format>
    <dc:creator>
     <cc:Agent>
      <dc:title>Matplotlib v3.4.3, https://matplotlib.org/</dc:title>
     </cc:Agent>
    </dc:creator>
   </cc:Work>
  </rdf:RDF>
 </metadata>
 <defs>
  <style type="text/css">*{stroke-linecap:butt;stroke-linejoin:round;}</style>
 </defs>
 <g id="figure_1">
  <g id="patch_1">
   <path d="M 0 345.6 
L 460.8 345.6 
L 460.8 0 
L 0 0 
z
" style="fill:#ffffff;"/>
  </g>
  <g id="axes_1">
   <g id="patch_2">
    <path d="M 57.6 298.944 
L 360.8064 298.944 
L 360.8064 27.648 
L 57.6 27.648 
z
" style="fill:#ffffff;"/>
   </g>
   <g id="line2d_1">
    <path d="M 144.931992 298.944 
L 144.931992 293.624471 
L 150.866501 293.624471 
L 150.866501 288.304941 
L 151.832729 288.304941 
L 151.832729 282.985412 
L 153.978516 282.985412 
L 153.978516 277.665882 
L 154.476059 277.665882 
L 154.476059 272.346353 
L 155.649849 272.346353 
L 155.649849 267.026824 
L 156.155566 267.026824 
L 156.155566 261.707294 
L 156.462418 261.707294 
L 156.462418 256.387765 
L 157.540383 256.387765 
L 157.540383 251.068235 
L 158.241064 251.068235 
L 158.241064 245.748706 
L 158.821551 245.748706 
L 158.821551 240.429176 
L 159.113741 240.429176 
L 159.113741 235.109647 
L 159.734419 235.109647 
L 159.734419 229.790118 
L 160.486497 229.790118 
L 160.486497 224.470588 
L 160.605032 224.470588 
L 160.605032 219.151059 
L 161.125559 219.151059 
L 161.125559 213.831529 
L 161.217285 213.831529 
L 161.217285 208.512 
L 161.300977 208.512 
L 161.300977 203.192471 
L 161.369176 203.192471 
L 161.369176 197.872941 
L 163.019227 197.872941 
L 163.019227 192.553412 
L 163.109086 192.553412 
L 163.109086 187.233882 
L 163.239651 187.233882 
L 163.239651 181.914353 
L 163.3965 181.914353 
L 163.3965 176.594824 
L 163.437203 176.594824 
L 163.437203 171.275294 
L 163.538576 171.275294 
L 163.538576 165.955765 
L 163.612572 165.955765 
L 163.612572 160.636235 
L 163.686277 160.636235 
L 163.686277 155.316706 
L 163.779668 155.316706 
L 163.779668 149.997176 
L 163.852722 149.997176 
L 163.852722 144.677647 
L 163.938695 144.677647 
L 163.938695 139.358118 
L 165.404283 139.358118 
L 165.404283 134.038588 
L 165.525963 134.038588 
L 165.525963 128.719059 
L 165.628775 128.719059 
L 165.628775 123.399529 
L 169.044448 123.399529 
L 169.044448 118.08 
L 172.499332 118.08 
L 172.499332 112.760471 
L 172.703332 112.760471 
L 172.703332 107.440941 
L 172.79833 107.440941 
L 172.79833 102.121412 
L 172.876446 102.121412 
L 172.876446 96.801882 
L 172.946065 96.801882 
L 172.946065 91.482353 
L 172.995054 91.482353 
L 172.995054 86.162824 
L 173.096705 86.162824 
L 173.096705 80.843294 
L 173.169555 80.843294 
L 173.169555 75.523765 
L 173.262233 75.523765 
L 173.262233 70.204235 
L 173.334447 70.204235 
L 173.334447 64.884706 
L 173.410372 64.884706 
L 173.410372 59.565176 
L 173.497905 59.565176 
L 173.497905 54.245647 
L 173.573175 54.245647 
L 173.573175 48.926118 
L 173.632387 48.926118 
L 173.632387 43.606588 
L 173.687483 43.606588 
L 173.687483 38.287059 
L 173.765914 38.287059 
L 173.765914 32.967529 
L 173.844019 32.967529 
L 173.844019 27.648 
L 360.8064 27.648 
" style="fill:none;stroke:#f5deb3;stroke-linecap:square;stroke-width:4;"/>
   </g>
   <g id="line2d_2">
    <defs>
     <path d="M -0 7.778175 
L 7.778175 0 
L 0 -7.778175 
L -7.778175 -0 
z
" id="mb4e3549bcc" style="stroke:#f5deb3;stroke-linejoin:miter;stroke-width:1.5;"/>
    </defs>
    <g>
     <use style="fill:#f5deb3;stroke:#f5deb3;stroke-linejoin:miter;stroke-width:1.5;" x="163.686277" xlink:href="#mb4e3549bcc" y="155.316706"/>
     <use style="fill:#f5deb3;stroke:#f5deb3;stroke-linejoin:miter;stroke-width:1.5;" x="173.632387" xlink:href="#mb4e3549bcc" y="43.606588"/>
     <use style="fill:#f5deb3;stroke:#f5deb3;stroke-linejoin:miter;stroke-width:1.5;" x="173.844019" xlink:href="#mb4e3549bcc" y="27.648"/>
     <use style="fill:#f5deb3;stroke:#f5deb3;stroke-linejoin:miter;stroke-width:1.5;" x="173.844019" xlink:href="#mb4e3549bcc" y="27.648"/>
     <use style="fill:#f5deb3;stroke:#f5deb3;stroke-linejoin:miter;stroke-width:1.5;" x="360.8064" xlink:href="#mb4e3549bcc" y="27.648"/>
    </g>
   </g>
   <g id="line2d_3">
    <path style="fill:none;stroke:#f5deb3;stroke-linecap:square;stroke-width:4;"/>
    <g/>
   </g>
   <g id="line2d_4">
    <path d="M 360.8064 27.648 
L 380.514816 33.07392 
" style="fill:none;stroke:#f5deb3;stroke-linecap:square;stroke-width:4;"/>
    <g>
     <use style="fill:#f5deb3;stroke:#f5deb3;stroke-linejoin:miter;stroke-width:1.5;" x="360.8064" xlink:href="#mb4e3549bcc" y="27.648"/>
     <use style="fill:#f5deb3;stroke:#f5deb3;stroke-linejoin:miter;stroke-width:1.5;" x="380.514816" xlink:href="#mb4e3549bcc" y="33.07392"/>
    </g>
   </g>
   <g id="matplotlib.axis_1">
    <g id="xtick_1">
     <g id="line2d_5">
      <path clip-path="url(#pbdf6a79667)" d="M 57.6 298.944 
L 57.6 27.648 
" style="fill:none;stroke:#b0b0b0;stroke-linecap:square;stroke-width:0.8;"/>
     </g>
     <g id="line2d_6">
      <defs>
       <path d="M 0 0 
L 0 3.5 
" id="m39feb60074" style="stroke:#000000;stroke-width:0.8;"/>
      </defs>
      <g>
       <use style="stroke:#000000;stroke-width:0.8;" x="57.6" xlink:href="#m39feb60074" y="298.944"/>
      </g>
     </g>
     <g id="text_1">
      <!-- 0 -->
      <g transform="translate(52.191875 318.861344)scale(0.17 -0.17)">
       <defs>
        <path d="M 2034 4250 
Q 1547 4250 1301 3770 
Q 1056 3291 1056 2328 
Q 1056 1369 1301 889 
Q 1547 409 2034 409 
Q 2525 409 2770 889 
Q 3016 1369 3016 2328 
Q 3016 3291 2770 3770 
Q 2525 4250 2034 4250 
z
M 2034 4750 
Q 2819 4750 3233 4129 
Q 3647 3509 3647 2328 
Q 3647 1150 3233 529 
Q 2819 -91 2034 -91 
Q 1250 -91 836 529 
Q 422 1150 422 2328 
Q 422 3509 836 4129 
Q 1250 4750 2034 4750 
z
" id="DejaVuSans-30" transform="scale(0.015625)"/>
       </defs>
       <use xlink:href="#DejaVuSans-30"/>
      </g>
     </g>
    </g>
    <g id="xtick_2">
     <g id="line2d_7">
      <path clip-path="url(#pbdf6a79667)" d="M 144.2304 298.944 
L 144.2304 27.648 
" style="fill:none;stroke:#b0b0b0;stroke-linecap:square;stroke-width:0.8;"/>
     </g>
     <g id="line2d_8">
      <g>
       <use style="stroke:#000000;stroke-width:0.8;" x="144.2304" xlink:href="#m39feb60074" y="298.944"/>
      </g>
     </g>
     <g id="text_2">
      <!-- 2 -->
      <g transform="translate(138.822275 318.861344)scale(0.17 -0.17)">
       <defs>
        <path d="M 1228 531 
L 3431 531 
L 3431 0 
L 469 0 
L 469 531 
Q 828 903 1448 1529 
Q 2069 2156 2228 2338 
Q 2531 2678 2651 2914 
Q 2772 3150 2772 3378 
Q 2772 3750 2511 3984 
Q 2250 4219 1831 4219 
Q 1534 4219 1204 4116 
Q 875 4013 500 3803 
L 500 4441 
Q 881 4594 1212 4672 
Q 1544 4750 1819 4750 
Q 2544 4750 2975 4387 
Q 3406 4025 3406 3419 
Q 3406 3131 3298 2873 
Q 3191 2616 2906 2266 
Q 2828 2175 2409 1742 
Q 1991 1309 1228 531 
z
" id="DejaVuSans-32" transform="scale(0.015625)"/>
       </defs>
       <use xlink:href="#DejaVuSans-32"/>
      </g>
     </g>
    </g>
    <g id="xtick_3">
     <g id="line2d_9">
      <path clip-path="url(#pbdf6a79667)" d="M 230.8608 298.944 
L 230.8608 27.648 
" style="fill:none;stroke:#b0b0b0;stroke-linecap:square;stroke-width:0.8;"/>
     </g>
     <g id="line2d_10">
      <g>
       <use style="stroke:#000000;stroke-width:0.8;" x="230.8608" xlink:href="#m39feb60074" y="298.944"/>
      </g>
     </g>
     <g id="text_3">
      <!-- 4 -->
      <g transform="translate(225.452675 318.861344)scale(0.17 -0.17)">
       <defs>
        <path d="M 2419 4116 
L 825 1625 
L 2419 1625 
L 2419 4116 
z
M 2253 4666 
L 3047 4666 
L 3047 1625 
L 3713 1625 
L 3713 1100 
L 3047 1100 
L 3047 0 
L 2419 0 
L 2419 1100 
L 313 1100 
L 313 1709 
L 2253 4666 
z
" id="DejaVuSans-34" transform="scale(0.015625)"/>
       </defs>
       <use xlink:href="#DejaVuSans-34"/>
      </g>
     </g>
    </g>
    <g id="xtick_4">
     <g id="line2d_11">
      <path clip-path="url(#pbdf6a79667)" d="M 317.4912 298.944 
L 317.4912 27.648 
" style="fill:none;stroke:#b0b0b0;stroke-linecap:square;stroke-width:0.8;"/>
     </g>
     <g id="line2d_12">
      <g>
       <use style="stroke:#000000;stroke-width:0.8;" x="317.4912" xlink:href="#m39feb60074" y="298.944"/>
      </g>
     </g>
     <g id="text_4">
      <!-- 6 -->
      <g transform="translate(312.083075 318.861344)scale(0.17 -0.17)">
       <defs>
        <path d="M 2113 2584 
Q 1688 2584 1439 2293 
Q 1191 2003 1191 1497 
Q 1191 994 1439 701 
Q 1688 409 2113 409 
Q 2538 409 2786 701 
Q 3034 994 3034 1497 
Q 3034 2003 2786 2293 
Q 2538 2584 2113 2584 
z
M 3366 4563 
L 3366 3988 
Q 3128 4100 2886 4159 
Q 2644 4219 2406 4219 
Q 1781 4219 1451 3797 
Q 1122 3375 1075 2522 
Q 1259 2794 1537 2939 
Q 1816 3084 2150 3084 
Q 2853 3084 3261 2657 
Q 3669 2231 3669 1497 
Q 3669 778 3244 343 
Q 2819 -91 2113 -91 
Q 1303 -91 875 529 
Q 447 1150 447 2328 
Q 447 3434 972 4092 
Q 1497 4750 2381 4750 
Q 2619 4750 2861 4703 
Q 3103 4656 3366 4563 
z
" id="DejaVuSans-36" transform="scale(0.015625)"/>
       </defs>
       <use xlink:href="#DejaVuSans-36"/>
      </g>
     </g>
    </g>
    <g id="xtick_5">
     <g id="line2d_13">
      <path clip-path="url(#pbdf6a79667)" d="M 100.9152 298.944 
L 100.9152 27.648 
" style="fill:none;stroke:#b0b0b0;stroke-linecap:square;stroke-width:0.8;"/>
     </g>
     <g id="line2d_14">
      <defs>
       <path d="M 0 0 
L 0 2 
" id="mf1f1ff7a69" style="stroke:#000000;stroke-width:0.6;"/>
      </defs>
      <g>
       <use style="stroke:#000000;stroke-width:0.6;" x="100.9152" xlink:href="#mf1f1ff7a69" y="298.944"/>
      </g>
     </g>
    </g>
    <g id="xtick_6">
     <g id="line2d_15">
      <path clip-path="url(#pbdf6a79667)" d="M 187.5456 298.944 
L 187.5456 27.648 
" style="fill:none;stroke:#b0b0b0;stroke-linecap:square;stroke-width:0.8;"/>
     </g>
     <g id="line2d_16">
      <g>
       <use style="stroke:#000000;stroke-width:0.6;" x="187.5456" xlink:href="#mf1f1ff7a69" y="298.944"/>
      </g>
     </g>
    </g>
    <g id="xtick_7">
     <g id="line2d_17">
      <path clip-path="url(#pbdf6a79667)" d="M 274.176 298.944 
L 274.176 27.648 
" style="fill:none;stroke:#b0b0b0;stroke-linecap:square;stroke-width:0.8;"/>
     </g>
     <g id="line2d_18">
      <g>
       <use style="stroke:#000000;stroke-width:0.6;" x="274.176" xlink:href="#mf1f1ff7a69" y="298.944"/>
      </g>
     </g>
    </g>
    <g id="xtick_8">
     <g id="line2d_19">
      <path clip-path="url(#pbdf6a79667)" d="M 360.8064 298.944 
L 360.8064 27.648 
" style="fill:none;stroke:#b0b0b0;stroke-linecap:square;stroke-width:0.8;"/>
     </g>
     <g id="line2d_20">
      <g>
       <use style="stroke:#000000;stroke-width:0.6;" x="360.8064" xlink:href="#mf1f1ff7a69" y="298.944"/>
      </g>
     </g>
    </g>
    <g id="text_5">
     <!-- log10(# f-evals / dimension) -->
     <g transform="translate(88.823278 339.314156)scale(0.17 -0.17)">
      <defs>
       <path d="M 603 4863 
L 1178 4863 
L 1178 0 
L 603 0 
L 603 4863 
z
" id="DejaVuSans-6c" transform="scale(0.015625)"/>
       <path d="M 1959 3097 
Q 1497 3097 1228 2736 
Q 959 2375 959 1747 
Q 959 1119 1226 758 
Q 1494 397 1959 397 
Q 2419 397 2687 759 
Q 2956 1122 2956 1747 
Q 2956 2369 2687 2733 
Q 2419 3097 1959 3097 
z
M 1959 3584 
Q 2709 3584 3137 3096 
Q 3566 2609 3566 1747 
Q 3566 888 3137 398 
Q 2709 -91 1959 -91 
Q 1206 -91 779 398 
Q 353 888 353 1747 
Q 353 2609 779 3096 
Q 1206 3584 1959 3584 
z
" id="DejaVuSans-6f" transform="scale(0.015625)"/>
       <path d="M 2906 1791 
Q 2906 2416 2648 2759 
Q 2391 3103 1925 3103 
Q 1463 3103 1205 2759 
Q 947 2416 947 1791 
Q 947 1169 1205 825 
Q 1463 481 1925 481 
Q 2391 481 2648 825 
Q 2906 1169 2906 1791 
z
M 3481 434 
Q 3481 -459 3084 -895 
Q 2688 -1331 1869 -1331 
Q 1566 -1331 1297 -1286 
Q 1028 -1241 775 -1147 
L 775 -588 
Q 1028 -725 1275 -790 
Q 1522 -856 1778 -856 
Q 2344 -856 2625 -561 
Q 2906 -266 2906 331 
L 2906 616 
Q 2728 306 2450 153 
Q 2172 0 1784 0 
Q 1141 0 747 490 
Q 353 981 353 1791 
Q 353 2603 747 3093 
Q 1141 3584 1784 3584 
Q 2172 3584 2450 3431 
Q 2728 3278 2906 2969 
L 2906 3500 
L 3481 3500 
L 3481 434 
z
" id="DejaVuSans-67" transform="scale(0.015625)"/>
       <path d="M 794 531 
L 1825 531 
L 1825 4091 
L 703 3866 
L 703 4441 
L 1819 4666 
L 2450 4666 
L 2450 531 
L 3481 531 
L 3481 0 
L 794 0 
L 794 531 
z
" id="DejaVuSans-31" transform="scale(0.015625)"/>
       <path d="M 1984 4856 
Q 1566 4138 1362 3434 
Q 1159 2731 1159 2009 
Q 1159 1288 1364 580 
Q 1569 -128 1984 -844 
L 1484 -844 
Q 1016 -109 783 600 
Q 550 1309 550 2009 
Q 550 2706 781 3412 
Q 1013 4119 1484 4856 
L 1984 4856 
z
" id="DejaVuSans-28" transform="scale(0.015625)"/>
       <path d="M 3272 2816 
L 2363 2816 
L 2100 1772 
L 3016 1772 
L 3272 2816 
z
M 2803 4594 
L 2478 3297 
L 3391 3297 
L 3719 4594 
L 4219 4594 
L 3897 3297 
L 4872 3297 
L 4872 2816 
L 3775 2816 
L 3519 1772 
L 4513 1772 
L 4513 1294 
L 3397 1294 
L 3072 0 
L 2572 0 
L 2894 1294 
L 1978 1294 
L 1656 0 
L 1153 0 
L 1478 1294 
L 494 1294 
L 494 1772 
L 1594 1772 
L 1856 2816 
L 850 2816 
L 850 3297 
L 1978 3297 
L 2297 4594 
L 2803 4594 
z
" id="DejaVuSans-23" transform="scale(0.015625)"/>
       <path id="DejaVuSans-20" transform="scale(0.015625)"/>
       <path d="M 2375 4863 
L 2375 4384 
L 1825 4384 
Q 1516 4384 1395 4259 
Q 1275 4134 1275 3809 
L 1275 3500 
L 2222 3500 
L 2222 3053 
L 1275 3053 
L 1275 0 
L 697 0 
L 697 3053 
L 147 3053 
L 147 3500 
L 697 3500 
L 697 3744 
Q 697 4328 969 4595 
Q 1241 4863 1831 4863 
L 2375 4863 
z
" id="DejaVuSans-66" transform="scale(0.015625)"/>
       <path d="M 313 2009 
L 1997 2009 
L 1997 1497 
L 313 1497 
L 313 2009 
z
" id="DejaVuSans-2d" transform="scale(0.015625)"/>
       <path d="M 3597 1894 
L 3597 1613 
L 953 1613 
Q 991 1019 1311 708 
Q 1631 397 2203 397 
Q 2534 397 2845 478 
Q 3156 559 3463 722 
L 3463 178 
Q 3153 47 2828 -22 
Q 2503 -91 2169 -91 
Q 1331 -91 842 396 
Q 353 884 353 1716 
Q 353 2575 817 3079 
Q 1281 3584 2069 3584 
Q 2775 3584 3186 3129 
Q 3597 2675 3597 1894 
z
M 3022 2063 
Q 3016 2534 2758 2815 
Q 2500 3097 2075 3097 
Q 1594 3097 1305 2825 
Q 1016 2553 972 2059 
L 3022 2063 
z
" id="DejaVuSans-65" transform="scale(0.015625)"/>
       <path d="M 191 3500 
L 800 3500 
L 1894 563 
L 2988 3500 
L 3597 3500 
L 2284 0 
L 1503 0 
L 191 3500 
z
" id="DejaVuSans-76" transform="scale(0.015625)"/>
       <path d="M 2194 1759 
Q 1497 1759 1228 1600 
Q 959 1441 959 1056 
Q 959 750 1161 570 
Q 1363 391 1709 391 
Q 2188 391 2477 730 
Q 2766 1069 2766 1631 
L 2766 1759 
L 2194 1759 
z
M 3341 1997 
L 3341 0 
L 2766 0 
L 2766 531 
Q 2569 213 2275 61 
Q 1981 -91 1556 -91 
Q 1019 -91 701 211 
Q 384 513 384 1019 
Q 384 1609 779 1909 
Q 1175 2209 1959 2209 
L 2766 2209 
L 2766 2266 
Q 2766 2663 2505 2880 
Q 2244 3097 1772 3097 
Q 1472 3097 1187 3025 
Q 903 2953 641 2809 
L 641 3341 
Q 956 3463 1253 3523 
Q 1550 3584 1831 3584 
Q 2591 3584 2966 3190 
Q 3341 2797 3341 1997 
z
" id="DejaVuSans-61" transform="scale(0.015625)"/>
       <path d="M 2834 3397 
L 2834 2853 
Q 2591 2978 2328 3040 
Q 2066 3103 1784 3103 
Q 1356 3103 1142 2972 
Q 928 2841 928 2578 
Q 928 2378 1081 2264 
Q 1234 2150 1697 2047 
L 1894 2003 
Q 2506 1872 2764 1633 
Q 3022 1394 3022 966 
Q 3022 478 2636 193 
Q 2250 -91 1575 -91 
Q 1294 -91 989 -36 
Q 684 19 347 128 
L 347 722 
Q 666 556 975 473 
Q 1284 391 1588 391 
Q 1994 391 2212 530 
Q 2431 669 2431 922 
Q 2431 1156 2273 1281 
Q 2116 1406 1581 1522 
L 1381 1569 
Q 847 1681 609 1914 
Q 372 2147 372 2553 
Q 372 3047 722 3315 
Q 1072 3584 1716 3584 
Q 2034 3584 2315 3537 
Q 2597 3491 2834 3397 
z
" id="DejaVuSans-73" transform="scale(0.015625)"/>
       <path d="M 1625 4666 
L 2156 4666 
L 531 -594 
L 0 -594 
L 1625 4666 
z
" id="DejaVuSans-2f" transform="scale(0.015625)"/>
       <path d="M 2906 2969 
L 2906 4863 
L 3481 4863 
L 3481 0 
L 2906 0 
L 2906 525 
Q 2725 213 2448 61 
Q 2172 -91 1784 -91 
Q 1150 -91 751 415 
Q 353 922 353 1747 
Q 353 2572 751 3078 
Q 1150 3584 1784 3584 
Q 2172 3584 2448 3432 
Q 2725 3281 2906 2969 
z
M 947 1747 
Q 947 1113 1208 752 
Q 1469 391 1925 391 
Q 2381 391 2643 752 
Q 2906 1113 2906 1747 
Q 2906 2381 2643 2742 
Q 2381 3103 1925 3103 
Q 1469 3103 1208 2742 
Q 947 2381 947 1747 
z
" id="DejaVuSans-64" transform="scale(0.015625)"/>
       <path d="M 603 3500 
L 1178 3500 
L 1178 0 
L 603 0 
L 603 3500 
z
M 603 4863 
L 1178 4863 
L 1178 4134 
L 603 4134 
L 603 4863 
z
" id="DejaVuSans-69" transform="scale(0.015625)"/>
       <path d="M 3328 2828 
Q 3544 3216 3844 3400 
Q 4144 3584 4550 3584 
Q 5097 3584 5394 3201 
Q 5691 2819 5691 2113 
L 5691 0 
L 5113 0 
L 5113 2094 
Q 5113 2597 4934 2840 
Q 4756 3084 4391 3084 
Q 3944 3084 3684 2787 
Q 3425 2491 3425 1978 
L 3425 0 
L 2847 0 
L 2847 2094 
Q 2847 2600 2669 2842 
Q 2491 3084 2119 3084 
Q 1678 3084 1418 2786 
Q 1159 2488 1159 1978 
L 1159 0 
L 581 0 
L 581 3500 
L 1159 3500 
L 1159 2956 
Q 1356 3278 1631 3431 
Q 1906 3584 2284 3584 
Q 2666 3584 2933 3390 
Q 3200 3197 3328 2828 
z
" id="DejaVuSans-6d" transform="scale(0.015625)"/>
       <path d="M 3513 2113 
L 3513 0 
L 2938 0 
L 2938 2094 
Q 2938 2591 2744 2837 
Q 2550 3084 2163 3084 
Q 1697 3084 1428 2787 
Q 1159 2491 1159 1978 
L 1159 0 
L 581 0 
L 581 3500 
L 1159 3500 
L 1159 2956 
Q 1366 3272 1645 3428 
Q 1925 3584 2291 3584 
Q 2894 3584 3203 3211 
Q 3513 2838 3513 2113 
z
" id="DejaVuSans-6e" transform="scale(0.015625)"/>
       <path d="M 513 4856 
L 1013 4856 
Q 1481 4119 1714 3412 
Q 1947 2706 1947 2009 
Q 1947 1309 1714 600 
Q 1481 -109 1013 -844 
L 513 -844 
Q 928 -128 1133 580 
Q 1338 1288 1338 2009 
Q 1338 2731 1133 3434 
Q 928 4138 513 4856 
z
" id="DejaVuSans-29" transform="scale(0.015625)"/>
      </defs>
      <use xlink:href="#DejaVuSans-6c"/>
      <use x="27.783203" xlink:href="#DejaVuSans-6f"/>
      <use x="88.964844" xlink:href="#DejaVuSans-67"/>
      <use x="152.441406" xlink:href="#DejaVuSans-31"/>
      <use x="216.064453" xlink:href="#DejaVuSans-30"/>
      <use x="279.6875" xlink:href="#DejaVuSans-28"/>
      <use x="318.701172" xlink:href="#DejaVuSans-23"/>
      <use x="402.490234" xlink:href="#DejaVuSans-20"/>
      <use x="434.277344" xlink:href="#DejaVuSans-66"/>
      <use x="463.982422" xlink:href="#DejaVuSans-2d"/>
      <use x="500.066406" xlink:href="#DejaVuSans-65"/>
      <use x="561.589844" xlink:href="#DejaVuSans-76"/>
      <use x="620.769531" xlink:href="#DejaVuSans-61"/>
      <use x="682.048828" xlink:href="#DejaVuSans-6c"/>
      <use x="709.832031" xlink:href="#DejaVuSans-73"/>
      <use x="761.931641" xlink:href="#DejaVuSans-20"/>
      <use x="793.71875" xlink:href="#DejaVuSans-2f"/>
      <use x="827.410156" xlink:href="#DejaVuSans-20"/>
      <use x="859.197266" xlink:href="#DejaVuSans-64"/>
      <use x="922.673828" xlink:href="#DejaVuSans-69"/>
      <use x="950.457031" xlink:href="#DejaVuSans-6d"/>
      <use x="1047.869141" xlink:href="#DejaVuSans-65"/>
      <use x="1109.392578" xlink:href="#DejaVuSans-6e"/>
      <use x="1172.771484" xlink:href="#DejaVuSans-73"/>
      <use x="1224.871094" xlink:href="#DejaVuSans-69"/>
      <use x="1252.654297" xlink:href="#DejaVuSans-6f"/>
      <use x="1313.835938" xlink:href="#DejaVuSans-6e"/>
      <use x="1377.214844" xlink:href="#DejaVuSans-29"/>
     </g>
    </g>
   </g>
   <g id="matplotlib.axis_2">
    <g id="ytick_1">
     <g id="line2d_21">
      <path clip-path="url(#pbdf6a79667)" d="M 57.6 298.944 
L 360.8064 298.944 
" style="fill:none;stroke:#b0b0b0;stroke-linecap:square;stroke-width:0.8;"/>
     </g>
     <g id="line2d_22">
      <defs>
       <path d="M 0 0 
L -3.5 0 
" id="ma702ccbf3c" style="stroke:#000000;stroke-width:0.8;"/>
      </defs>
      <g>
       <use style="stroke:#000000;stroke-width:0.8;" x="57.6" xlink:href="#ma702ccbf3c" y="298.944"/>
      </g>
     </g>
     <g id="text_6">
      <!-- 0.0 -->
      <g transform="translate(25.155 305.02275)scale(0.16 -0.16)">
       <defs>
        <path d="M 684 794 
L 1344 794 
L 1344 0 
L 684 0 
L 684 794 
z
" id="DejaVuSans-2e" transform="scale(0.015625)"/>
       </defs>
       <use xlink:href="#DejaVuSans-30"/>
       <use x="63.623047" xlink:href="#DejaVuSans-2e"/>
       <use x="95.410156" xlink:href="#DejaVuSans-30"/>
      </g>
     </g>
    </g>
    <g id="ytick_2">
     <g id="line2d_23">
      <path clip-path="url(#pbdf6a79667)" d="M 57.6 244.6848 
L 360.8064 244.6848 
" style="fill:none;stroke:#b0b0b0;stroke-linecap:square;stroke-width:0.8;"/>
     </g>
     <g id="line2d_24">
      <g>
       <use style="stroke:#000000;stroke-width:0.8;" x="57.6" xlink:href="#ma702ccbf3c" y="244.6848"/>
      </g>
     </g>
     <g id="text_7">
      <!-- 0.2 -->
      <g transform="translate(25.155 250.76355)scale(0.16 -0.16)">
       <use xlink:href="#DejaVuSans-30"/>
       <use x="63.623047" xlink:href="#DejaVuSans-2e"/>
       <use x="95.410156" xlink:href="#DejaVuSans-32"/>
      </g>
     </g>
    </g>
    <g id="ytick_3">
     <g id="line2d_25">
      <path clip-path="url(#pbdf6a79667)" d="M 57.6 190.4256 
L 360.8064 190.4256 
" style="fill:none;stroke:#b0b0b0;stroke-linecap:square;stroke-width:0.8;"/>
     </g>
     <g id="line2d_26">
      <g>
       <use style="stroke:#000000;stroke-width:0.8;" x="57.6" xlink:href="#ma702ccbf3c" y="190.4256"/>
      </g>
     </g>
     <g id="text_8">
      <!-- 0.4 -->
      <g transform="translate(25.155 196.50435)scale(0.16 -0.16)">
       <use xlink:href="#DejaVuSans-30"/>
       <use x="63.623047" xlink:href="#DejaVuSans-2e"/>
       <use x="95.410156" xlink:href="#DejaVuSans-34"/>
      </g>
     </g>
    </g>
    <g id="ytick_4">
     <g id="line2d_27">
      <path clip-path="url(#pbdf6a79667)" d="M 57.6 136.1664 
L 360.8064 136.1664 
" style="fill:none;stroke:#b0b0b0;stroke-linecap:square;stroke-width:0.8;"/>
     </g>
     <g id="line2d_28">
      <g>
       <use style="stroke:#000000;stroke-width:0.8;" x="57.6" xlink:href="#ma702ccbf3c" y="136.1664"/>
      </g>
     </g>
     <g id="text_9">
      <!-- 0.6 -->
      <g transform="translate(25.155 142.24515)scale(0.16 -0.16)">
       <use xlink:href="#DejaVuSans-30"/>
       <use x="63.623047" xlink:href="#DejaVuSans-2e"/>
       <use x="95.410156" xlink:href="#DejaVuSans-36"/>
      </g>
     </g>
    </g>
    <g id="ytick_5">
     <g id="line2d_29">
      <path clip-path="url(#pbdf6a79667)" d="M 57.6 81.9072 
L 360.8064 81.9072 
" style="fill:none;stroke:#b0b0b0;stroke-linecap:square;stroke-width:0.8;"/>
     </g>
     <g id="line2d_30">
      <g>
       <use style="stroke:#000000;stroke-width:0.8;" x="57.6" xlink:href="#ma702ccbf3c" y="81.9072"/>
      </g>
     </g>
     <g id="text_10">
      <!-- 0.8 -->
      <g transform="translate(25.155 87.98595)scale(0.16 -0.16)">
       <defs>
        <path d="M 2034 2216 
Q 1584 2216 1326 1975 
Q 1069 1734 1069 1313 
Q 1069 891 1326 650 
Q 1584 409 2034 409 
Q 2484 409 2743 651 
Q 3003 894 3003 1313 
Q 3003 1734 2745 1975 
Q 2488 2216 2034 2216 
z
M 1403 2484 
Q 997 2584 770 2862 
Q 544 3141 544 3541 
Q 544 4100 942 4425 
Q 1341 4750 2034 4750 
Q 2731 4750 3128 4425 
Q 3525 4100 3525 3541 
Q 3525 3141 3298 2862 
Q 3072 2584 2669 2484 
Q 3125 2378 3379 2068 
Q 3634 1759 3634 1313 
Q 3634 634 3220 271 
Q 2806 -91 2034 -91 
Q 1263 -91 848 271 
Q 434 634 434 1313 
Q 434 1759 690 2068 
Q 947 2378 1403 2484 
z
M 1172 3481 
Q 1172 3119 1398 2916 
Q 1625 2713 2034 2713 
Q 2441 2713 2670 2916 
Q 2900 3119 2900 3481 
Q 2900 3844 2670 4047 
Q 2441 4250 2034 4250 
Q 1625 4250 1398 4047 
Q 1172 3844 1172 3481 
z
" id="DejaVuSans-38" transform="scale(0.015625)"/>
       </defs>
       <use xlink:href="#DejaVuSans-30"/>
       <use x="63.623047" xlink:href="#DejaVuSans-2e"/>
       <use x="95.410156" xlink:href="#DejaVuSans-38"/>
      </g>
     </g>
    </g>
    <g id="ytick_6">
     <g id="line2d_31">
      <path clip-path="url(#pbdf6a79667)" d="M 57.6 27.648 
L 360.8064 27.648 
" style="fill:none;stroke:#b0b0b0;stroke-linecap:square;stroke-width:0.8;"/>
     </g>
     <g id="line2d_32">
      <g>
       <use style="stroke:#000000;stroke-width:0.8;" x="57.6" xlink:href="#ma702ccbf3c" y="27.648"/>
      </g>
     </g>
     <g id="text_11">
      <!-- 1.0 -->
      <g transform="translate(25.155 33.72675)scale(0.16 -0.16)">
       <use xlink:href="#DejaVuSans-31"/>
       <use x="63.623047" xlink:href="#DejaVuSans-2e"/>
       <use x="95.410156" xlink:href="#DejaVuSans-30"/>
      </g>
     </g>
    </g>
    <g id="text_12">
     <!-- Fraction of function,target pairs -->
     <g transform="translate(17.619531 297.681)rotate(-90)scale(0.17 -0.17)">
      <defs>
       <path d="M 628 4666 
L 3309 4666 
L 3309 4134 
L 1259 4134 
L 1259 2759 
L 3109 2759 
L 3109 2228 
L 1259 2228 
L 1259 0 
L 628 0 
L 628 4666 
z
" id="DejaVuSans-46" transform="scale(0.015625)"/>
       <path d="M 2631 2963 
Q 2534 3019 2420 3045 
Q 2306 3072 2169 3072 
Q 1681 3072 1420 2755 
Q 1159 2438 1159 1844 
L 1159 0 
L 581 0 
L 581 3500 
L 1159 3500 
L 1159 2956 
Q 1341 3275 1631 3429 
Q 1922 3584 2338 3584 
Q 2397 3584 2469 3576 
Q 2541 3569 2628 3553 
L 2631 2963 
z
" id="DejaVuSans-72" transform="scale(0.015625)"/>
       <path d="M 3122 3366 
L 3122 2828 
Q 2878 2963 2633 3030 
Q 2388 3097 2138 3097 
Q 1578 3097 1268 2742 
Q 959 2388 959 1747 
Q 959 1106 1268 751 
Q 1578 397 2138 397 
Q 2388 397 2633 464 
Q 2878 531 3122 666 
L 3122 134 
Q 2881 22 2623 -34 
Q 2366 -91 2075 -91 
Q 1284 -91 818 406 
Q 353 903 353 1747 
Q 353 2603 823 3093 
Q 1294 3584 2113 3584 
Q 2378 3584 2631 3529 
Q 2884 3475 3122 3366 
z
" id="DejaVuSans-63" transform="scale(0.015625)"/>
       <path d="M 1172 4494 
L 1172 3500 
L 2356 3500 
L 2356 3053 
L 1172 3053 
L 1172 1153 
Q 1172 725 1289 603 
Q 1406 481 1766 481 
L 2356 481 
L 2356 0 
L 1766 0 
Q 1100 0 847 248 
Q 594 497 594 1153 
L 594 3053 
L 172 3053 
L 172 3500 
L 594 3500 
L 594 4494 
L 1172 4494 
z
" id="DejaVuSans-74" transform="scale(0.015625)"/>
       <path d="M 544 1381 
L 544 3500 
L 1119 3500 
L 1119 1403 
Q 1119 906 1312 657 
Q 1506 409 1894 409 
Q 2359 409 2629 706 
Q 2900 1003 2900 1516 
L 2900 3500 
L 3475 3500 
L 3475 0 
L 2900 0 
L 2900 538 
Q 2691 219 2414 64 
Q 2138 -91 1772 -91 
Q 1169 -91 856 284 
Q 544 659 544 1381 
z
M 1991 3584 
L 1991 3584 
z
" id="DejaVuSans-75" transform="scale(0.015625)"/>
       <path d="M 750 794 
L 1409 794 
L 1409 256 
L 897 -744 
L 494 -744 
L 750 256 
L 750 794 
z
" id="DejaVuSans-2c" transform="scale(0.015625)"/>
       <path d="M 1159 525 
L 1159 -1331 
L 581 -1331 
L 581 3500 
L 1159 3500 
L 1159 2969 
Q 1341 3281 1617 3432 
Q 1894 3584 2278 3584 
Q 2916 3584 3314 3078 
Q 3713 2572 3713 1747 
Q 3713 922 3314 415 
Q 2916 -91 2278 -91 
Q 1894 -91 1617 61 
Q 1341 213 1159 525 
z
M 3116 1747 
Q 3116 2381 2855 2742 
Q 2594 3103 2138 3103 
Q 1681 3103 1420 2742 
Q 1159 2381 1159 1747 
Q 1159 1113 1420 752 
Q 1681 391 2138 391 
Q 2594 391 2855 752 
Q 3116 1113 3116 1747 
z
" id="DejaVuSans-70" transform="scale(0.015625)"/>
      </defs>
      <use xlink:href="#DejaVuSans-46"/>
      <use x="50.269531" xlink:href="#DejaVuSans-72"/>
      <use x="91.382812" xlink:href="#DejaVuSans-61"/>
      <use x="152.662109" xlink:href="#DejaVuSans-63"/>
      <use x="207.642578" xlink:href="#DejaVuSans-74"/>
      <use x="246.851562" xlink:href="#DejaVuSans-69"/>
      <use x="274.634766" xlink:href="#DejaVuSans-6f"/>
      <use x="335.816406" xlink:href="#DejaVuSans-6e"/>
      <use x="399.195312" xlink:href="#DejaVuSans-20"/>
      <use x="430.982422" xlink:href="#DejaVuSans-6f"/>
      <use x="492.164062" xlink:href="#DejaVuSans-66"/>
      <use x="527.369141" xlink:href="#DejaVuSans-20"/>
      <use x="559.15625" xlink:href="#DejaVuSans-66"/>
      <use x="594.361328" xlink:href="#DejaVuSans-75"/>
      <use x="657.740234" xlink:href="#DejaVuSans-6e"/>
      <use x="721.119141" xlink:href="#DejaVuSans-63"/>
      <use x="776.099609" xlink:href="#DejaVuSans-74"/>
      <use x="815.308594" xlink:href="#DejaVuSans-69"/>
      <use x="843.091797" xlink:href="#DejaVuSans-6f"/>
      <use x="904.273438" xlink:href="#DejaVuSans-6e"/>
      <use x="967.652344" xlink:href="#DejaVuSans-2c"/>
      <use x="999.439453" xlink:href="#DejaVuSans-74"/>
      <use x="1038.648438" xlink:href="#DejaVuSans-61"/>
      <use x="1099.927734" xlink:href="#DejaVuSans-72"/>
      <use x="1139.291016" xlink:href="#DejaVuSans-67"/>
      <use x="1202.767578" xlink:href="#DejaVuSans-65"/>
      <use x="1264.291016" xlink:href="#DejaVuSans-74"/>
      <use x="1303.5" xlink:href="#DejaVuSans-20"/>
      <use x="1335.287109" xlink:href="#DejaVuSans-70"/>
      <use x="1398.763672" xlink:href="#DejaVuSans-61"/>
      <use x="1460.042969" xlink:href="#DejaVuSans-69"/>
      <use x="1487.826172" xlink:href="#DejaVuSans-72"/>
      <use x="1528.939453" xlink:href="#DejaVuSans-73"/>
     </g>
    </g>
   </g>
   <g id="line2d_33">
    <defs>
     <path d="M 0 1.5 
C 0.397805 1.5 0.77937 1.341951 1.06066 1.06066 
C 1.341951 0.77937 1.5 0.397805 1.5 0 
C 1.5 -0.397805 1.341951 -0.77937 1.06066 -1.06066 
C 0.77937 -1.341951 0.397805 -1.5 0 -1.5 
C -0.397805 -1.5 -0.77937 -1.341951 -1.06066 -1.06066 
C -1.341951 -0.77937 -1.5 -0.397805 -1.5 0 
C -1.5 0.397805 -1.341951 0.77937 -1.06066 1.06066 
C -0.77937 1.341951 -0.397805 1.5 0 1.5 
z
" id="mb5862171d4" style="stroke:#f5deb3;"/>
    </defs>
    <g>
     <use style="fill:#f5deb3;stroke:#f5deb3;" x="173.844019" xlink:href="#mb5862171d4" y="27.648"/>
     <use style="fill:#f5deb3;stroke:#f5deb3;" x="173.844019" xlink:href="#mb5862171d4" y="27.648"/>
    </g>
   </g>
   <g id="line2d_34">
    <path clip-path="url(#pbdf6a79667)" d="M 57.6 298.944 
L 57.6 298.944 
L 57.6 298.944 
L 57.6 298.944 
L 360.8064 298.944 
" style="fill:none;stroke:#000080;stroke-linecap:square;stroke-width:1.5;"/>
   </g>
   <g id="line2d_35">
    <defs>
     <path d="M 0 6 
C 1.591219 6 3.117479 5.367802 4.242641 4.242641 
C 5.367802 3.117479 6 1.591219 6 0 
C 6 -1.591219 5.367802 -3.117479 4.242641 -4.242641 
C 3.117479 -5.367802 1.591219 -6 0 -6 
C -1.591219 -6 -3.117479 -5.367802 -4.242641 -4.242641 
C -5.367802 -3.117479 -6 -1.591219 -6 0 
C -6 1.591219 -5.367802 3.117479 -4.242641 4.242641 
C -3.117479 5.367802 -1.591219 6 0 6 
z
" id="m49d4bf56a0" style="stroke:#000080;stroke-width:1.5;"/>
    </defs>
    <g clip-path="url(#pbdf6a79667)">
     <use style="fill-opacity:0;stroke:#000080;stroke-width:1.5;" x="57.6" xlink:href="#m49d4bf56a0" y="298.944"/>
    </g>
   </g>
   <g id="line2d_36">
    <path clip-path="url(#pbdf6a79667)" style="fill:none;stroke:#000080;stroke-linecap:square;stroke-width:1.5;"/>
    <g clip-path="url(#pbdf6a79667)">
     <use style="fill-opacity:0;stroke:#000080;stroke-width:1.5;" x="-1" xlink:href="#m49d4bf56a0" y="570.24"/>
     <use style="fill-opacity:0;stroke:#000080;stroke-width:1.5;" x="360.8064" xlink:href="#m49d4bf56a0" y="570.24"/>
    </g>
   </g>
   <g id="line2d_37">
    <path clip-path="url(#pbdf6a79667)" d="M 213.633352 298.944 
" style="fill:none;stroke:#000080;stroke-linecap:square;stroke-width:1.5;"/>
    <defs>
     <path d="M -12 12 
L 12 -12 
M -12 -12 
L 12 12 
" id="mae5920a0ed" style="stroke:#000080;"/>
    </defs>
    <g clip-path="url(#pbdf6a79667)">
     <use style="fill:#000080;stroke:#000080;" x="213.633352" xlink:href="#mae5920a0ed" y="298.944"/>
    </g>
   </g>
   <g id="line2d_38">
    <defs>
     <path d="M 0 1.5 
C 0.397805 1.5 0.77937 1.341951 1.06066 1.06066 
C 1.341951 0.77937 1.5 0.397805 1.5 0 
C 1.5 -0.397805 1.341951 -0.77937 1.06066 -1.06066 
C 0.77937 -1.341951 0.397805 -1.5 0 -1.5 
C -0.397805 -1.5 -0.77937 -1.341951 -1.06066 -1.06066 
C -1.341951 -0.77937 -1.5 -0.397805 -1.5 0 
C -1.5 0.397805 -1.341951 0.77937 -1.06066 1.06066 
C -0.77937 1.341951 -0.397805 1.5 0 1.5 
z
" id="m2065885b4a" style="stroke:#ff00ff;"/>
    </defs>
    <g>
     <use style="fill:#ff00ff;stroke:#ff00ff;" x="199.874567" xlink:href="#m2065885b4a" y="27.648"/>
     <use style="fill:#ff00ff;stroke:#ff00ff;" x="199.874567" xlink:href="#m2065885b4a" y="27.648"/>
    </g>
   </g>
   <g id="line2d_39">
    <path d="M 150.248351 298.944 
L 150.248351 298.589365 
L 150.533072 298.589365 
L 150.533072 298.234729 
L 150.840043 298.234729 
L 150.840043 297.880094 
L 151.037576 297.880094 
L 151.089903 297.170824 
L 151.744619 297.170824 
L 151.744619 296.816188 
L 152.020159 296.816188 
L 152.020159 296.461553 
L 152.389508 296.461553 
L 152.474656 295.752282 
L 152.655828 295.752282 
L 152.655828 295.397647 
L 153.130592 295.397647 
L 153.130592 295.043012 
L 153.247435 295.043012 
L 153.247435 294.688376 
L 153.911171 294.688376 
L 153.911171 294.333741 
L 154.067935 294.333741 
L 154.067935 293.979106 
L 154.454223 293.979106 
L 154.454223 293.624471 
L 154.606544 293.624471 
L 154.606544 293.269835 
L 155.214281 293.269835 
L 155.214281 292.9152 
L 155.464411 292.9152 
L 155.464411 292.560565 
L 155.639595 292.560565 
L 155.639595 292.205929 
L 156.205398 292.205929 
L 156.205398 291.851294 
L 156.491849 291.851294 
L 156.531019 291.142024 
L 156.62859 291.142024 
L 156.62859 290.787388 
L 156.88953 290.787388 
L 156.88953 290.432753 
L 157.080512 290.432753 
L 157.156365 289.723482 
L 157.623641 289.723482 
L 157.69734 289.014212 
L 157.807349 289.014212 
L 157.807349 288.659576 
L 157.980225 288.659576 
L 157.980225 288.304941 
L 158.25892 288.304941 
L 158.294582 287.595671 
L 158.401163 287.595671 
L 158.401163 287.241035 
L 158.515949 287.241035 
L 158.515949 286.8864 
L 158.933807 286.8864 
L 158.933807 286.531765 
L 159.139306 286.531765 
L 159.139306 286.177129 
L 159.393063 286.177129 
L 159.393063 285.822494 
L 159.518669 285.822494 
L 159.568678 284.758588 
L 159.668298 284.758588 
L 159.668298 284.403953 
L 159.808529 284.403953 
L 159.808529 284.049318 
L 160.327278 284.049318 
L 160.343261 283.340047 
L 160.486497 283.340047 
L 160.597153 282.630776 
L 160.691486 282.630776 
L 160.691486 282.276141 
L 161.156184 282.276141 
L 161.156184 281.921506 
L 161.270586 281.921506 
L 161.293384 281.212235 
L 161.406958 281.212235 
L 161.406958 280.8576 
L 161.661881 280.8576 
L 161.728786 279.793694 
L 161.876619 279.793694 
L 161.950101 278.729788 
L 162.190578 278.729788 
L 162.284473 277.665882 
L 162.413713 277.665882 
L 162.420867 276.956612 
L 162.527853 276.956612 
L 162.634233 275.538071 
L 162.655437 275.538071 
L 162.747046 274.8288 
L 162.775144 274.8288 
L 162.873158 274.119529 
L 162.949812 274.119529 
L 163.040002 271.991718 
L 163.081483 271.991718 
L 163.081483 271.637082 
L 163.253342 271.637082 
L 163.348901 270.573176 
L 163.464289 270.573176 
L 163.538576 269.509271 
L 163.578974 269.509271 
L 163.64611 266.317553 
L 163.806266 266.317553 
L 163.879217 265.608282 
L 163.991407 265.608282 
L 164.037409 264.544376 
L 164.142137 264.544376 
L 164.142137 262.7712 
L 164.272231 262.7712 
L 164.349858 261.352659 
L 164.394992 261.352659 
L 164.427166 259.579482 
L 164.510559 259.579482 
L 164.619057 257.806306 
L 164.63178 257.806306 
L 164.733259 256.387765 
L 164.752225 256.387765 
L 164.752225 256.033129 
L 164.903272 256.033129 
L 165.009535 254.969224 
L 165.015767 254.969224 
L 165.1152 253.905318 
L 165.127593 253.905318 
L 165.207944 252.841412 
L 165.238758 252.841412 
L 165.34927 250.358965 
L 165.379853 250.358965 
L 165.489541 249.295059 
L 165.538087 249.295059 
L 165.610672 246.457976 
L 165.658907 246.457976 
L 165.766985 245.039435 
L 165.832729 245.039435 
L 165.939815 243.266259 
L 165.993131 243.266259 
L 166.093428 242.202353 
L 166.175626 242.202353 
L 166.257466 240.074541 
L 166.333144 240.074541 
L 166.443204 237.592094 
L 166.454752 237.592094 
L 166.512385 236.173553 
L 166.581313 236.173553 
L 166.684234 234.400376 
L 166.707029 234.400376 
L 166.797933 232.272565 
L 166.871471 232.272565 
L 166.972821 230.144753 
L 167.023292 230.144753 
L 167.090376 228.371576 
L 167.15166 228.371576 
L 167.262578 227.662306 
L 167.328816 227.662306 
L 167.378342 226.5984 
L 167.444174 226.5984 
L 167.531594 222.697412 
L 167.586025 222.697412 
L 167.678199 220.924235 
L 167.710623 220.924235 
L 167.791441 218.796424 
L 167.850487 218.796424 
L 167.957371 215.959341 
L 168.010586 215.959341 
L 168.116567 213.831529 
L 168.132413 213.831529 
L 168.242961 212.412988 
L 168.248209 212.412988 
L 168.347644 209.930541 
L 168.394562 209.930541 
L 168.503585 208.157365 
L 168.52945 208.157365 
L 168.601683 204.256376 
L 168.647973 204.256376 
L 168.750432 202.128565 
L 168.786162 202.128565 
L 168.847255 200.710024 
L 168.898015 200.710024 
L 168.963798 199.291482 
L 169.034386 199.291482 
L 169.114734 196.809035 
L 169.174771 196.809035 
L 169.274409 193.262682 
L 169.304197 193.262682 
L 169.408088 188.652424 
L 169.417952 188.652424 
L 169.511408 186.879247 
L 169.545722 186.879247 
L 169.619042 185.106071 
L 169.662898 185.106071 
L 169.764832 184.042165 
L 169.784185 184.042165 
L 169.890274 180.495812 
L 169.909499 180.495812 
L 169.9383 179.786541 
L 170.024438 179.786541 
L 170.114936 178.368 
L 170.138678 178.368 
L 170.242793 175.885553 
L 170.256946 175.885553 
L 170.346334 173.403106 
L 170.369787 173.403106 
L 170.472634 171.984565 
L 170.53779 171.984565 
L 170.621233 170.211388 
L 170.648965 170.211388 
L 170.741111 167.728941 
L 170.773255 167.728941 
L 170.782429 167.019671 
L 170.89673 167.019671 
L 170.983137 165.246494 
L 171.010341 165.246494 
L 171.096228 163.827953 
L 171.172743 163.827953 
L 171.275772 161.700141 
L 171.284704 161.700141 
L 171.329302 160.990871 
L 171.458043 160.990871 
L 171.555123 158.863059 
L 171.581513 158.863059 
L 171.67796 157.444518 
L 171.725999 157.444518 
L 171.830387 156.025976 
L 171.88669 156.025976 
L 171.934199 154.2528 
L 172.024567 154.2528 
L 172.07173 153.188894 
L 172.135853 153.188894 
L 172.22526 151.415718 
L 172.293095 151.415718 
L 172.348032 150.706447 
L 172.428036 150.706447 
L 172.428036 150.351812 
L 172.607852 150.351812 
L 172.71575 148.933271 
L 172.864133 148.933271 
L 172.91743 148.224 
L 172.982818 148.224 
L 173.043915 147.160094 
L 173.125069 147.160094 
L 173.221995 145.741553 
L 173.274288 145.741553 
L 173.382435 143.968376 
L 173.418347 143.968376 
L 173.493935 141.840565 
L 173.533597 141.840565 
L 173.640268 140.422024 
L 173.656019 140.422024 
L 173.656019 140.067388 
L 173.917919 140.067388 
L 174.014717 137.584941 
L 174.037874 137.584941 
L 174.122542 135.811765 
L 174.160901 135.811765 
L 174.160901 135.457129 
L 174.275513 135.457129 
L 174.374282 133.683953 
L 174.400785 133.683953 
L 174.495135 131.201506 
L 174.5365 131.201506 
L 174.603992 130.492235 
L 174.660051 130.492235 
L 174.7494 128.364424 
L 174.771671 128.364424 
L 174.827233 127.300518 
L 174.904746 127.300518 
L 175.007602 125.881976 
L 175.029569 125.881976 
L 175.051511 125.172706 
L 175.142661 125.172706 
L 175.24061 122.690259 
L 175.269534 122.690259 
L 175.348847 120.207812 
L 175.391968 120.207812 
L 175.474342 117.725365 
L 175.549238 117.725365 
L 175.602554 116.661459 
L 175.676943 116.661459 
L 175.747517 115.597553 
L 175.789735 115.597553 
L 175.894867 113.824376 
L 175.905348 113.824376 
L 175.968112 112.760471 
L 176.023726 112.760471 
L 176.12411 111.696565 
L 176.175823 111.696565 
L 176.223961 110.632659 
L 176.289094 110.632659 
L 176.364231 108.859482 
L 176.405089 108.859482 
L 176.489925 107.086306 
L 176.537267 107.086306 
L 176.645031 104.958494 
L 176.658458 104.958494 
L 176.745503 103.894588 
L 176.77554 103.894588 
L 176.881951 102.476047 
L 176.94485 102.476047 
L 177.027292 100.348235 
L 177.056883 100.348235 
L 177.083146 99.638965 
L 177.184574 99.638965 
L 177.285458 98.575059 
L 177.314646 98.575059 
L 177.424504 97.156518 
L 177.45026 97.156518 
L 177.54013 95.028706 
L 177.565728 95.028706 
L 177.572122 94.319435 
L 177.715419 94.319435 
L 177.822968 92.546259 
L 177.917356 92.546259 
L 178.020639 90.773082 
L 178.045592 90.773082 
L 178.129566 89.354541 
L 178.19462 89.354541 
L 178.19462 88.999906 
L 178.534791 88.999906 
L 178.559072 88.290635 
L 178.683021 88.290635 
L 178.728166 87.581365 
L 178.797177 87.581365 
L 178.797177 87.226729 
L 178.990851 87.226729 
L 178.990851 86.872094 
L 179.114942 86.872094 
L 179.20308 85.453553 
L 179.249919 85.453553 
L 179.337428 84.389647 
L 179.363602 84.389647 
L 179.412941 82.971106 
L 179.545804 82.971106 
L 179.574564 82.261835 
L 179.686307 82.261835 
L 179.794551 80.488659 
L 179.805909 80.488659 
L 179.851272 79.779388 
L 179.947307 79.779388 
L 180.054064 77.651576 
L 180.104422 77.651576 
L 180.151859 76.233035 
L 180.221402 76.233035 
L 180.323858 74.459859 
L 180.450461 74.459859 
L 180.464171 73.750588 
L 180.570768 73.750588 
L 180.65507 72.686682 
L 180.747098 72.686682 
L 180.857477 70.204235 
L 180.905733 70.204235 
L 180.937834 68.431059 
L 181.092225 68.431059 
L 181.200603 66.657882 
L 181.219045 66.657882 
L 181.266382 65.948612 
L 181.331933 65.948612 
L 181.433737 63.8208 
L 181.451951 63.8208 
L 181.516859 63.111529 
L 181.643432 63.111529 
L 181.717944 62.047624 
L 181.987812 62.047624 
L 182.0509 60.983718 
L 182.126328 60.983718 
L 182.126328 60.629082 
L 182.251372 60.629082 
L 182.340891 59.565176 
L 182.429987 59.565176 
L 182.429987 59.210541 
L 182.837861 59.210541 
L 182.948674 57.792 
L 182.98227 57.792 
L 182.98227 57.437365 
L 183.357327 57.437365 
L 183.453442 56.373459 
L 183.780285 56.373459 
L 183.780285 56.018824 
L 183.89712 56.018824 
L 183.990523 54.600282 
L 184.013234 54.600282 
L 184.042718 53.891012 
L 184.218654 53.891012 
L 184.310478 52.827106 
L 184.3395 52.827106 
L 184.408525 51.7632 
L 184.578887 51.7632 
L 184.666781 50.344659 
L 184.7062 50.344659 
L 184.762993 48.571482 
L 184.895568 48.571482 
L 184.895568 48.216847 
L 185.076616 48.216847 
L 185.13658 47.152941 
L 185.215526 47.152941 
L 185.281416 46.443671 
L 185.431461 46.443671 
L 185.431461 46.089035 
L 185.750786 46.089035 
L 185.750786 45.7344 
L 185.872491 45.7344 
L 185.927925 44.670494 
L 186.026072 44.670494 
L 186.026072 44.315859 
L 186.287334 44.315859 
L 186.287334 43.961224 
L 186.795302 43.961224 
L 186.799217 43.251953 
L 187.019102 43.251953 
L 187.084762 42.188047 
L 187.23262 42.188047 
L 187.23262 41.833412 
L 187.753258 41.833412 
L 187.821971 40.769506 
L 187.995418 40.769506 
L 188.103473 39.7056 
L 188.533161 39.7056 
L 188.551002 38.996329 
L 188.671874 38.996329 
L 188.671874 38.641694 
L 188.795495 38.641694 
L 188.872786 37.577788 
L 188.935789 37.577788 
L 188.935789 37.223153 
L 189.650596 37.223153 
L 189.650596 36.868518 
L 189.791356 36.868518 
L 189.791356 36.513882 
L 190.431434 36.513882 
L 190.539237 35.449976 
L 190.592108 35.449976 
L 190.592108 35.095341 
L 191.033265 35.095341 
L 191.12369 34.386071 
L 191.267781 34.386071 
L 191.267781 34.031435 
L 192.046322 34.031435 
L 192.046322 33.6768 
L 192.522997 33.6768 
L 192.522997 33.322165 
L 192.917329 33.322165 
L 192.946997 32.258259 
L 193.351983 32.258259 
L 193.351983 31.903624 
L 193.567649 31.903624 
L 193.672525 31.194353 
L 193.863068 31.194353 
L 193.863068 30.839718 
L 194.429907 30.839718 
L 194.429907 30.485082 
L 196.27034 30.485082 
L 196.27034 30.130447 
L 196.721539 30.130447 
L 196.721539 29.775812 
L 197.161042 29.775812 
L 197.161042 29.421176 
L 197.806529 29.421176 
L 197.806529 29.066541 
L 198.633063 29.066541 
L 198.715312 28.357271 
L 199.080536 28.357271 
L 199.080536 28.002635 
L 199.874567 28.002635 
L 199.874567 27.648 
L 360.8064 27.648 
L 360.8064 27.648 
" style="fill:none;stroke:#ff00ff;stroke-linecap:square;stroke-width:1.5;"/>
   </g>
   <g id="line2d_40">
    <defs>
     <path d="M -0 8.485281 
L 5.091169 0 
L 0 -8.485281 
L -5.091169 -0 
z
" id="mf85583613d" style="stroke:#ff00ff;stroke-linejoin:miter;stroke-width:1.5;"/>
    </defs>
    <g>
     <use style="fill-opacity:0;stroke:#ff00ff;stroke-linejoin:miter;stroke-width:1.5;" x="180.827927" xlink:href="#mf85583613d" y="70.913506"/>
     <use style="fill-opacity:0;stroke:#ff00ff;stroke-linejoin:miter;stroke-width:1.5;" x="199.874567" xlink:href="#mf85583613d" y="28.002635"/>
     <use style="fill-opacity:0;stroke:#ff00ff;stroke-linejoin:miter;stroke-width:1.5;" x="199.874567" xlink:href="#mf85583613d" y="27.648"/>
     <use style="fill-opacity:0;stroke:#ff00ff;stroke-linejoin:miter;stroke-width:1.5;" x="199.874567" xlink:href="#mf85583613d" y="27.648"/>
     <use style="fill-opacity:0;stroke:#ff00ff;stroke-linejoin:miter;stroke-width:1.5;" x="360.8064" xlink:href="#mf85583613d" y="27.648"/>
    </g>
   </g>
   <g id="line2d_41">
    <path style="fill:none;stroke:#ff00ff;stroke-linecap:square;stroke-width:1.5;"/>
    <g/>
   </g>
   <g id="line2d_42">
    <path clip-path="url(#pbdf6a79667)" d="M 151.995276 296.816188 
" style="fill:none;stroke:#ff00ff;stroke-linecap:square;stroke-width:1.5;"/>
    <defs>
     <path d="M -12 12 
L 12 -12 
M -12 -12 
L 12 12 
" id="m8508ba38ba" style="stroke:#ff00ff;"/>
    </defs>
    <g clip-path="url(#pbdf6a79667)">
     <use style="fill:#ff00ff;stroke:#ff00ff;" x="151.995276" xlink:href="#m8508ba38ba" y="296.816188"/>
    </g>
   </g>
   <g id="line2d_43">
    <defs>
     <path d="M 0 1.5 
C 0.397805 1.5 0.77937 1.341951 1.06066 1.06066 
C 1.341951 0.77937 1.5 0.397805 1.5 0 
C 1.5 -0.397805 1.341951 -0.77937 1.06066 -1.06066 
C 0.77937 -1.341951 0.397805 -1.5 0 -1.5 
C -0.397805 -1.5 -0.77937 -1.341951 -1.06066 -1.06066 
C -1.341951 -0.77937 -1.5 -0.397805 -1.5 0 
C -1.5 0.397805 -1.341951 0.77937 -1.06066 1.06066 
C -0.77937 1.341951 -0.397805 1.5 0 1.5 
z
" id="mc06d778b5e" style="stroke:#ff7500;"/>
    </defs>
    <g>
     <use style="fill:#ff7500;stroke:#ff7500;" x="238.17257" xlink:href="#mc06d778b5e" y="27.648"/>
     <use style="fill:#ff7500;stroke:#ff7500;" x="238.17257" xlink:href="#mc06d778b5e" y="27.648"/>
    </g>
   </g>
   <g id="line2d_44">
    <path d="M 182.912611 298.944 
L 182.912611 298.589365 
L 185.682369 298.589365 
L 185.682369 298.234729 
L 188.16 298.234729 
L 188.16 297.880094 
L 188.66124 297.880094 
L 188.66124 297.525459 
L 189.233924 297.525459 
L 189.233924 297.170824 
L 189.413629 297.170824 
L 189.413629 296.816188 
L 189.704343 296.816188 
L 189.764626 296.106918 
L 189.838043 296.106918 
L 189.838043 295.752282 
L 190.168195 295.752282 
L 190.168195 295.397647 
L 190.284019 295.397647 
L 190.284019 295.043012 
L 190.431434 295.043012 
L 190.431434 294.688376 
L 190.678304 294.688376 
L 190.678304 294.333741 
L 190.871602 294.333741 
L 190.871602 293.979106 
L 190.997286 293.979106 
L 190.998851 293.269835 
L 191.485684 293.269835 
L 191.485684 292.9152 
L 191.810877 292.9152 
L 191.810877 292.560565 
L 192.389694 292.560565 
L 192.389694 291.851294 
L 192.852179 291.851294 
L 192.9046 291.142024 
L 193.185459 291.142024 
L 193.185459 290.787388 
L 193.930176 290.787388 
L 193.930176 290.432753 
L 194.428603 290.432753 
L 194.428603 290.078118 
L 194.63879 290.078118 
L 194.63879 289.723482 
L 194.872158 289.723482 
L 194.872158 289.368847 
L 194.986499 289.368847 
L 195.037095 288.659576 
L 195.288053 288.659576 
L 195.337846 287.950306 
L 195.477801 287.950306 
L 195.495069 286.8864 
L 195.635087 286.8864 
L 195.73151 286.177129 
L 195.875828 286.177129 
L 195.875828 285.822494 
L 196.070531 285.822494 
L 196.165943 285.113224 
L 196.211094 285.113224 
L 196.306978 284.049318 
L 196.448136 284.049318 
L 196.448136 283.694682 
L 196.597546 283.694682 
L 196.597546 283.340047 
L 196.857339 283.340047 
L 196.910013 282.630776 
L 197.264563 282.630776 
L 197.264563 282.276141 
L 198.361919 282.276141 
L 198.361919 281.921506 
L 199.600056 281.921506 
L 199.600056 281.566871 
L 199.87359 281.566871 
L 199.951574 280.8576 
L 200.254572 280.8576 
L 200.330996 279.793694 
L 200.486699 279.793694 
L 200.522594 279.084424 
L 200.624237 279.084424 
L 200.715997 277.665882 
L 200.751457 277.665882 
L 200.784058 276.956612 
L 200.863926 276.956612 
L 200.972962 275.538071 
L 201.008861 275.538071 
L 201.09236 274.119529 
L 201.250993 274.119529 
L 201.360524 271.991718 
L 201.511549 271.991718 
L 201.597308 270.927812 
L 201.624028 270.927812 
L 201.734068 269.509271 
L 201.824105 269.509271 
L 201.931234 268.090729 
L 202.04472 268.090729 
L 202.118554 266.317553 
L 202.352894 266.317553 
L 202.458764 264.899012 
L 202.493639 264.899012 
L 202.493639 264.544376 
L 202.660312 264.544376 
L 202.758606 263.835106 
L 202.853889 263.835106 
L 202.959471 262.7712 
L 202.96776 262.7712 
L 202.96776 262.416565 
L 203.324006 262.416565 
L 203.324006 262.061929 
L 203.876856 262.061929 
L 203.876856 261.707294 
L 203.998843 261.707294 
L 203.998843 261.352659 
L 204.340881 261.352659 
L 204.340881 260.998024 
L 204.549253 260.998024 
L 204.591108 260.288753 
L 204.673026 260.288753 
L 204.773419 259.224847 
L 204.797494 259.224847 
L 204.829046 258.515576 
L 205.066977 258.515576 
L 205.091419 257.806306 
L 205.208745 257.806306 
L 205.301203 256.7424 
L 205.383009 256.7424 
L 205.439044 255.678494 
L 205.501433 255.678494 
L 205.560727 254.614588 
L 205.614797 254.614588 
L 205.642133 253.905318 
L 205.730344 253.905318 
L 205.821704 252.132141 
L 205.846608 252.132141 
L 205.931037 249.649694 
L 205.988289 249.649694 
L 206.095959 246.457976 
L 206.103676 246.457976 
L 206.211387 243.620894 
L 206.242745 243.620894 
L 206.351741 240.074541 
L 206.433937 240.074541 
L 206.54252 236.528188 
L 206.550056 236.528188 
L 206.652523 233.336471 
L 206.67227 233.336471 
L 206.782872 228.726212 
L 206.78896 228.726212 
L 206.892828 224.825224 
L 206.926429 224.825224 
L 207.031546 220.214965 
L 207.081554 220.214965 
L 207.191108 214.5408 
L 207.195741 214.5408 
L 207.273021 210.639812 
L 207.322392 210.639812 
L 207.429248 204.611012 
L 207.450808 204.611012 
L 207.559536 201.419294 
L 207.581596 201.419294 
L 207.686994 196.809035 
L 207.71148 196.809035 
L 207.813594 192.198776 
L 207.839195 192.198776 
L 207.94698 186.169976 
L 207.962237 186.169976 
L 208.064897 182.268988 
L 208.095839 182.268988 
L 208.18836 177.304094 
L 208.215965 177.304094 
L 208.315383 172.693835 
L 208.347783 172.693835 
L 208.444651 168.438212 
L 208.468171 168.438212 
L 208.5675 166.3104 
L 208.591482 166.3104 
L 208.669978 163.473318 
L 208.733517 163.473318 
L 208.840556 160.2816 
L 208.952417 160.2816 
L 209.042629 158.508424 
L 209.081586 158.508424 
L 209.176545 157.444518 
L 209.248489 157.444518 
L 209.318976 156.380612 
L 209.405686 156.380612 
L 209.491998 155.316706 
L 209.538804 155.316706 
L 209.538804 154.962071 
L 209.680849 154.962071 
L 209.680849 154.607435 
L 210.062054 154.607435 
L 210.076256 153.898165 
L 210.216006 153.898165 
L 210.312152 152.124988 
L 210.583307 152.124988 
L 210.604301 151.061082 
L 210.907746 151.061082 
L 210.975542 149.642541 
L 211.040936 149.642541 
L 211.146919 148.224 
L 211.208513 148.224 
L 211.250176 147.160094 
L 211.389446 147.160094 
L 211.389446 146.805459 
L 211.526642 146.805459 
L 211.617902 145.741553 
L 211.674324 145.741553 
L 211.779921 143.259106 
L 211.798586 143.259106 
L 211.90452 140.067388 
L 212.004224 140.067388 
L 212.1085 137.939576 
L 212.245123 137.939576 
L 212.354618 135.811765 
L 212.369705 135.811765 
L 212.414393 134.393224 
L 212.492968 134.393224 
L 212.573205 132.620047 
L 212.624854 132.620047 
L 212.709963 130.846871 
L 212.747939 130.846871 
L 212.848184 129.428329 
L 212.90788 129.428329 
L 212.999501 127.655153 
L 213.064534 127.655153 
L 213.161665 126.236612 
L 213.230463 126.236612 
L 213.334863 124.1088 
L 213.36874 124.1088 
L 213.470007 121.626353 
L 213.483752 121.626353 
L 213.591942 118.789271 
L 213.615952 118.789271 
L 213.723855 115.952188 
L 213.727597 115.952188 
L 213.824163 113.115106 
L 213.859958 113.115106 
L 213.952615 111.341929 
L 213.986321 111.341929 
L 214.046197 110.278024 
L 214.101756 110.278024 
L 214.211018 108.504847 
L 214.268821 108.504847 
L 214.354967 106.377035 
L 214.40421 106.377035 
L 214.498272 103.894588 
L 214.517117 103.894588 
L 214.623554 102.830682 
L 214.640493 102.830682 
L 214.749337 99.284329 
L 214.782973 99.284329 
L 214.832874 97.511153 
L 214.931842 97.511153 
L 215.011954 96.092612 
L 215.09738 96.092612 
L 215.169861 94.319435 
L 215.323017 94.319435 
L 215.408756 92.191624 
L 215.489848 92.191624 
L 215.519211 91.482353 
L 215.630712 91.482353 
L 215.73441 89.709176 
L 215.871375 89.709176 
L 215.919306 88.999906 
L 216.032192 88.999906 
L 216.131649 87.581365 
L 216.164547 87.581365 
L 216.217886 85.808188 
L 216.300058 85.808188 
L 216.408255 84.389647 
L 216.413932 84.389647 
L 216.506556 82.971106 
L 216.525509 82.971106 
L 216.570197 82.261835 
L 216.767002 82.261835 
L 216.861867 80.134024 
L 216.9724 80.134024 
L 217.018788 79.070118 
L 217.131138 79.070118 
L 217.206704 77.651576 
L 217.285452 77.651576 
L 217.297062 76.942306 
L 217.471502 76.942306 
L 217.575853 75.523765 
L 217.664459 75.523765 
L 217.773029 73.395953 
L 217.822002 73.395953 
L 217.890725 71.977412 
L 218.045277 71.977412 
L 218.089096 71.268141 
L 218.236514 71.268141 
L 218.337816 70.558871 
L 218.411612 70.558871 
L 218.469133 68.785694 
L 218.6302 68.785694 
L 218.670522 68.076424 
L 218.746609 68.076424 
L 218.846633 67.012518 
L 218.861591 67.012518 
L 218.861591 66.657882 
L 219.068 66.657882 
L 219.071521 65.948612 
L 219.239399 65.948612 
L 219.336149 64.530071 
L 219.397837 64.530071 
L 219.447939 62.756894 
L 219.51442 62.756894 
L 219.6084 62.047624 
L 219.681136 62.047624 
L 219.735248 60.629082 
L 219.899016 60.629082 
L 219.899016 60.274447 
L 220.020578 60.274447 
L 220.099742 59.565176 
L 220.174589 59.565176 
L 220.174589 59.210541 
L 220.415071 59.210541 
L 220.477572 58.501271 
L 220.730037 58.501271 
L 220.766104 57.792 
L 221.099963 57.792 
L 221.142268 56.728094 
L 221.238832 56.728094 
L 221.275503 56.018824 
L 221.386646 56.018824 
L 221.413086 55.309553 
L 221.501778 55.309553 
L 221.525894 54.600282 
L 221.783361 54.600282 
L 221.843916 53.536376 
L 221.978927 53.536376 
L 221.97953 52.827106 
L 222.279056 52.827106 
L 222.358151 51.408565 
L 222.408927 51.408565 
L 222.408927 51.053929 
L 222.584406 51.053929 
L 222.652919 49.990024 
L 222.953167 49.990024 
L 222.998936 49.280753 
L 223.214833 49.280753 
L 223.316804 48.216847 
L 223.329161 48.216847 
L 223.372065 47.507576 
L 223.606997 47.507576 
L 223.618611 46.798306 
L 223.730243 46.798306 
L 223.730243 46.443671 
L 223.933061 46.443671 
L 224.023376 45.7344 
L 224.055546 45.7344 
L 224.086853 45.025129 
L 224.177508 45.025129 
L 224.216648 44.315859 
L 224.343959 44.315859 
L 224.404773 42.897318 
L 224.496024 42.897318 
L 224.522391 42.188047 
L 225.261511 42.188047 
L 225.261511 41.833412 
L 225.492646 41.833412 
L 225.570559 40.769506 
L 225.61412 40.769506 
L 225.61412 40.414871 
L 226.08335 40.414871 
L 226.160067 39.7056 
L 226.209031 39.7056 
L 226.258829 38.996329 
L 226.399809 38.996329 
L 226.428402 38.287059 
L 226.519136 38.287059 
L 226.608019 37.577788 
L 226.675112 37.577788 
L 226.720646 36.513882 
L 227.03518 36.513882 
L 227.03518 36.159247 
L 227.574447 36.159247 
L 227.574447 35.804612 
L 227.803345 35.804612 
L 227.803345 35.449976 
L 228.436379 35.449976 
L 228.436379 35.095341 
L 228.57836 35.095341 
L 228.663756 34.386071 
L 228.763072 34.386071 
L 228.777158 33.6768 
L 229.041136 33.6768 
L 229.041136 33.322165 
L 229.282854 33.322165 
L 229.282854 32.967529 
L 229.395443 32.967529 
L 229.395443 32.612894 
L 230.28413 32.612894 
L 230.28413 32.258259 
L 230.626269 32.258259 
L 230.626269 31.903624 
L 231.161994 31.903624 
L 231.161994 31.548988 
L 231.905748 31.548988 
L 231.905748 31.194353 
L 232.461388 31.194353 
L 232.461388 30.839718 
L 232.761844 30.839718 
L 232.761844 30.485082 
L 233.012497 30.485082 
L 233.060422 29.775812 
L 234.281143 29.775812 
L 234.388118 29.066541 
L 236.663452 29.066541 
L 236.663452 28.711906 
L 237.423919 28.711906 
L 237.423919 28.357271 
L 238.058466 28.357271 
L 238.058466 28.002635 
L 238.17257 28.002635 
L 238.17257 27.648 
L 360.8064 27.648 
L 360.8064 27.648 
" style="fill:none;stroke:#ff7500;stroke-linecap:square;stroke-width:1.5;"/>
   </g>
   <g id="line2d_45">
    <defs>
     <path d="M 0 -6 
L -1.347084 -1.854102 
L -5.706339 -1.854102 
L -2.179628 0.708204 
L -3.526712 4.854102 
L -0 2.291796 
L 3.526712 4.854102 
L 2.179628 0.708204 
L 5.706339 -1.854102 
L 1.347084 -1.854102 
z
" id="m643f666e2d" style="stroke:#ff7500;stroke-linejoin:bevel;stroke-width:1.5;"/>
    </defs>
    <g>
     <use style="fill-opacity:0;stroke:#ff7500;stroke-linejoin:bevel;stroke-width:1.5;" x="220.415071" xlink:href="#m643f666e2d" y="59.210541"/>
     <use style="fill-opacity:0;stroke:#ff7500;stroke-linejoin:bevel;stroke-width:1.5;" x="238.17257" xlink:href="#m643f666e2d" y="27.648"/>
     <use style="fill-opacity:0;stroke:#ff7500;stroke-linejoin:bevel;stroke-width:1.5;" x="238.17257" xlink:href="#m643f666e2d" y="27.648"/>
     <use style="fill-opacity:0;stroke:#ff7500;stroke-linejoin:bevel;stroke-width:1.5;" x="360.8064" xlink:href="#m643f666e2d" y="27.648"/>
    </g>
   </g>
   <g id="line2d_46">
    <path style="fill:none;stroke:#ff7500;stroke-linecap:square;stroke-width:1.5;"/>
    <g/>
   </g>
   <g id="line2d_47">
    <path clip-path="url(#pbdf6a79667)" d="M 190.675119 294.688376 
" style="fill:none;stroke:#ff7500;stroke-linecap:square;stroke-width:1.5;"/>
    <defs>
     <path d="M -12 12 
L 12 -12 
M -12 -12 
L 12 12 
" id="mbcd9dc9420" style="stroke:#ff7500;"/>
    </defs>
    <g clip-path="url(#pbdf6a79667)">
     <use style="fill:#ff7500;stroke:#ff7500;" x="190.675119" xlink:href="#mbcd9dc9420" y="294.688376"/>
    </g>
   </g>
   <g id="line2d_48">
    <path d="M 360.8064 298.944 
L 380.514816 293.51808 
" style="fill:none;stroke:#000080;stroke-linecap:square;stroke-width:1.5;"/>
    <g>
     <use style="fill-opacity:0;stroke:#000080;stroke-width:1.5;" x="360.8064" xlink:href="#m49d4bf56a0" y="298.944"/>
     <use style="fill-opacity:0;stroke:#000080;stroke-width:1.5;" x="380.514816" xlink:href="#m49d4bf56a0" y="293.51808"/>
    </g>
   </g>
   <g id="line2d_49">
    <path d="M 360.8064 27.648 
L 380.514816 206.70336 
" style="fill:none;stroke:#ff7500;stroke-linecap:square;stroke-width:1.5;"/>
    <g>
     <use style="fill-opacity:0;stroke:#ff7500;stroke-linejoin:bevel;stroke-width:1.5;" x="360.8064" xlink:href="#m643f666e2d" y="27.648"/>
     <use style="fill-opacity:0;stroke:#ff7500;stroke-linejoin:bevel;stroke-width:1.5;" x="380.514816" xlink:href="#m643f666e2d" y="206.70336"/>
    </g>
   </g>
   <g id="line2d_50">
    <path d="M 360.8064 27.648 
L 380.514816 119.88864 
" style="fill:none;stroke:#ff00ff;stroke-linecap:square;stroke-width:1.5;"/>
    <g>
     <use style="fill-opacity:0;stroke:#ff00ff;stroke-linejoin:miter;stroke-width:1.5;" x="360.8064" xlink:href="#mf85583613d" y="27.648"/>
     <use style="fill-opacity:0;stroke:#ff00ff;stroke-linejoin:miter;stroke-width:1.5;" x="380.514816" xlink:href="#mf85583613d" y="119.88864"/>
    </g>
   </g>
   <g id="line2d_51">
    <path d="M 360.8064 298.944 
L 360.8064 27.648 
" style="fill:none;stroke:#000000;stroke-linecap:square;stroke-width:1.5;"/>
   </g>
   <g id="patch_3">
    <path d="M 57.6 298.944 
L 360.8064 298.944 
" style="fill:none;stroke:#000000;stroke-linecap:square;stroke-linejoin:miter;stroke-width:0.8;"/>
   </g>
   <g id="patch_4">
    <path d="M 57.6 27.648 
L 360.8064 27.648 
" style="fill:none;stroke:#000000;stroke-linecap:square;stroke-linejoin:miter;stroke-width:0.8;"/>
   </g>
   <g id="text_13">
    <!-- different -->
    <g transform="translate(386.578944 297.381205)scale(0.14 -0.14)">
     <use xlink:href="#DejaVuSans-64"/>
     <use x="63.476562" xlink:href="#DejaVuSans-69"/>
     <use x="91.259766" xlink:href="#DejaVuSans-66"/>
     <use x="126.464844" xlink:href="#DejaVuSans-66"/>
     <use x="161.669922" xlink:href="#DejaVuSans-65"/>
     <use x="223.193359" xlink:href="#DejaVuSans-72"/>
     <use x="262.056641" xlink:href="#DejaVuSans-65"/>
     <use x="323.580078" xlink:href="#DejaVuSans-6e"/>
     <use x="386.958984" xlink:href="#DejaVuSans-74"/>
    </g>
   </g>
   <g id="text_14">
    <!-- diffcma b -->
    <g transform="translate(386.578944 210.566485)scale(0.14 -0.14)">
     <defs>
      <path d="M 3116 1747 
Q 3116 2381 2855 2742 
Q 2594 3103 2138 3103 
Q 1681 3103 1420 2742 
Q 1159 2381 1159 1747 
Q 1159 1113 1420 752 
Q 1681 391 2138 391 
Q 2594 391 2855 752 
Q 3116 1113 3116 1747 
z
M 1159 2969 
Q 1341 3281 1617 3432 
Q 1894 3584 2278 3584 
Q 2916 3584 3314 3078 
Q 3713 2572 3713 1747 
Q 3713 922 3314 415 
Q 2916 -91 2278 -91 
Q 1894 -91 1617 61 
Q 1341 213 1159 525 
L 1159 0 
L 581 0 
L 581 4863 
L 1159 4863 
L 1159 2969 
z
" id="DejaVuSans-62" transform="scale(0.015625)"/>
     </defs>
     <use xlink:href="#DejaVuSans-64"/>
     <use x="63.476562" xlink:href="#DejaVuSans-69"/>
     <use x="91.259766" xlink:href="#DejaVuSans-66"/>
     <use x="126.464844" xlink:href="#DejaVuSans-66"/>
     <use x="161.669922" xlink:href="#DejaVuSans-63"/>
     <use x="216.650391" xlink:href="#DejaVuSans-6d"/>
     <use x="314.0625" xlink:href="#DejaVuSans-61"/>
     <use x="375.341797" xlink:href="#DejaVuSans-20"/>
     <use x="407.128906" xlink:href="#DejaVuSans-62"/>
    </g>
   </g>
   <g id="text_15">
    <!-- cma.fmin  -->
    <g transform="translate(386.578944 123.751765)scale(0.14 -0.14)">
     <use xlink:href="#DejaVuSans-63"/>
     <use x="54.980469" xlink:href="#DejaVuSans-6d"/>
     <use x="152.392578" xlink:href="#DejaVuSans-61"/>
     <use x="213.671875" xlink:href="#DejaVuSans-2e"/>
     <use x="245.458984" xlink:href="#DejaVuSans-66"/>
     <use x="280.664062" xlink:href="#DejaVuSans-6d"/>
     <use x="378.076172" xlink:href="#DejaVuSans-69"/>
     <use x="405.859375" xlink:href="#DejaVuSans-6e"/>
     <use x="469.238281" xlink:href="#DejaVuSans-20"/>
    </g>
   </g>
   <g id="text_16">
    <!-- best 2009 -->
    <g transform="translate(386.578944 36.937045)scale(0.14 -0.14)">
     <defs>
      <path d="M 703 97 
L 703 672 
Q 941 559 1184 500 
Q 1428 441 1663 441 
Q 2288 441 2617 861 
Q 2947 1281 2994 2138 
Q 2813 1869 2534 1725 
Q 2256 1581 1919 1581 
Q 1219 1581 811 2004 
Q 403 2428 403 3163 
Q 403 3881 828 4315 
Q 1253 4750 1959 4750 
Q 2769 4750 3195 4129 
Q 3622 3509 3622 2328 
Q 3622 1225 3098 567 
Q 2575 -91 1691 -91 
Q 1453 -91 1209 -44 
Q 966 3 703 97 
z
M 1959 2075 
Q 2384 2075 2632 2365 
Q 2881 2656 2881 3163 
Q 2881 3666 2632 3958 
Q 2384 4250 1959 4250 
Q 1534 4250 1286 3958 
Q 1038 3666 1038 3163 
Q 1038 2656 1286 2365 
Q 1534 2075 1959 2075 
z
" id="DejaVuSans-39" transform="scale(0.015625)"/>
     </defs>
     <use xlink:href="#DejaVuSans-62"/>
     <use x="63.476562" xlink:href="#DejaVuSans-65"/>
     <use x="125" xlink:href="#DejaVuSans-73"/>
     <use x="177.099609" xlink:href="#DejaVuSans-74"/>
     <use x="216.308594" xlink:href="#DejaVuSans-20"/>
     <use x="248.095703" xlink:href="#DejaVuSans-32"/>
     <use x="311.71875" xlink:href="#DejaVuSans-30"/>
     <use x="375.341797" xlink:href="#DejaVuSans-30"/>
     <use x="438.964844" xlink:href="#DejaVuSans-39"/>
    </g>
   </g>
   <g id="text_17">
    <!-- bbob f10, 10-D -->
    <g transform="translate(60.632064 38.111366)scale(0.102 -0.102)">
     <defs>
      <path d="M 1259 4147 
L 1259 519 
L 2022 519 
Q 2988 519 3436 956 
Q 3884 1394 3884 2338 
Q 3884 3275 3436 3711 
Q 2988 4147 2022 4147 
L 1259 4147 
z
M 628 4666 
L 1925 4666 
Q 3281 4666 3915 4102 
Q 4550 3538 4550 2338 
Q 4550 1131 3912 565 
Q 3275 0 1925 0 
L 628 0 
L 628 4666 
z
" id="DejaVuSans-44" transform="scale(0.015625)"/>
     </defs>
     <use xlink:href="#DejaVuSans-62"/>
     <use x="63.476562" xlink:href="#DejaVuSans-62"/>
     <use x="126.953125" xlink:href="#DejaVuSans-6f"/>
     <use x="188.134766" xlink:href="#DejaVuSans-62"/>
     <use x="251.611328" xlink:href="#DejaVuSans-20"/>
     <use x="283.398438" xlink:href="#DejaVuSans-66"/>
     <use x="318.603516" xlink:href="#DejaVuSans-31"/>
     <use x="382.226562" xlink:href="#DejaVuSans-30"/>
     <use x="445.849609" xlink:href="#DejaVuSans-2c"/>
     <use x="477.636719" xlink:href="#DejaVuSans-20"/>
     <use x="509.423828" xlink:href="#DejaVuSans-31"/>
     <use x="573.046875" xlink:href="#DejaVuSans-30"/>
     <use x="636.669922" xlink:href="#DejaVuSans-2d"/>
     <use x="672.753906" xlink:href="#DejaVuSans-44"/>
    </g>
    <!-- 51 targets: 100..1e-08 -->
    <g transform="translate(60.632064 49.533135)scale(0.102 -0.102)">
     <defs>
      <path d="M 691 4666 
L 3169 4666 
L 3169 4134 
L 1269 4134 
L 1269 2991 
Q 1406 3038 1543 3061 
Q 1681 3084 1819 3084 
Q 2600 3084 3056 2656 
Q 3513 2228 3513 1497 
Q 3513 744 3044 326 
Q 2575 -91 1722 -91 
Q 1428 -91 1123 -41 
Q 819 9 494 109 
L 494 744 
Q 775 591 1075 516 
Q 1375 441 1709 441 
Q 2250 441 2565 725 
Q 2881 1009 2881 1497 
Q 2881 1984 2565 2268 
Q 2250 2553 1709 2553 
Q 1456 2553 1204 2497 
Q 953 2441 691 2322 
L 691 4666 
z
" id="DejaVuSans-35" transform="scale(0.015625)"/>
      <path d="M 750 794 
L 1409 794 
L 1409 0 
L 750 0 
L 750 794 
z
M 750 3309 
L 1409 3309 
L 1409 2516 
L 750 2516 
L 750 3309 
z
" id="DejaVuSans-3a" transform="scale(0.015625)"/>
     </defs>
     <use xlink:href="#DejaVuSans-35"/>
     <use x="63.623047" xlink:href="#DejaVuSans-31"/>
     <use x="127.246094" xlink:href="#DejaVuSans-20"/>
     <use x="159.033203" xlink:href="#DejaVuSans-74"/>
     <use x="198.242188" xlink:href="#DejaVuSans-61"/>
     <use x="259.521484" xlink:href="#DejaVuSans-72"/>
     <use x="298.884766" xlink:href="#DejaVuSans-67"/>
     <use x="362.361328" xlink:href="#DejaVuSans-65"/>
     <use x="423.884766" xlink:href="#DejaVuSans-74"/>
     <use x="463.09375" xlink:href="#DejaVuSans-73"/>
     <use x="515.193359" xlink:href="#DejaVuSans-3a"/>
     <use x="548.884766" xlink:href="#DejaVuSans-20"/>
     <use x="580.671875" xlink:href="#DejaVuSans-31"/>
     <use x="644.294922" xlink:href="#DejaVuSans-30"/>
     <use x="707.917969" xlink:href="#DejaVuSans-30"/>
     <use x="771.541016" xlink:href="#DejaVuSans-2e"/>
     <use x="803.328125" xlink:href="#DejaVuSans-2e"/>
     <use x="835.115234" xlink:href="#DejaVuSans-31"/>
     <use x="898.738281" xlink:href="#DejaVuSans-65"/>
     <use x="960.261719" xlink:href="#DejaVuSans-2d"/>
     <use x="996.345703" xlink:href="#DejaVuSans-30"/>
     <use x="1059.96875" xlink:href="#DejaVuSans-38"/>
    </g>
    <!-- 15 instances -->
    <g transform="translate(60.632064 60.954904)scale(0.102 -0.102)">
     <use xlink:href="#DejaVuSans-31"/>
     <use x="63.623047" xlink:href="#DejaVuSans-35"/>
     <use x="127.246094" xlink:href="#DejaVuSans-20"/>
     <use x="159.033203" xlink:href="#DejaVuSans-69"/>
     <use x="186.816406" xlink:href="#DejaVuSans-6e"/>
     <use x="250.195312" xlink:href="#DejaVuSans-73"/>
     <use x="302.294922" xlink:href="#DejaVuSans-74"/>
     <use x="341.503906" xlink:href="#DejaVuSans-61"/>
     <use x="402.783203" xlink:href="#DejaVuSans-6e"/>
     <use x="466.162109" xlink:href="#DejaVuSans-63"/>
     <use x="521.142578" xlink:href="#DejaVuSans-65"/>
     <use x="582.666016" xlink:href="#DejaVuSans-73"/>
    </g>
   </g>
   <g id="text_18">
    <!-- v2.6 -->
    <g style="fill:#808080;" transform="translate(198.292262 294.151352)scale(0.1 -0.1)">
     <use xlink:href="#DejaVuSans-76"/>
     <use x="59.179688" xlink:href="#DejaVuSans-32"/>
     <use x="122.802734" xlink:href="#DejaVuSans-2e"/>
     <use x="154.589844" xlink:href="#DejaVuSans-36"/>
    </g>
   </g>
   <g id="text_19">
    <!-- 10 Ellipsoid -->
    <g transform="translate(151.843825 21.648)scale(0.2 -0.2)">
     <defs>
      <path d="M 628 4666 
L 3578 4666 
L 3578 4134 
L 1259 4134 
L 1259 2753 
L 3481 2753 
L 3481 2222 
L 1259 2222 
L 1259 531 
L 3634 531 
L 3634 0 
L 628 0 
L 628 4666 
z
" id="DejaVuSans-45" transform="scale(0.015625)"/>
     </defs>
     <use xlink:href="#DejaVuSans-31"/>
     <use x="63.623047" xlink:href="#DejaVuSans-30"/>
     <use x="127.246094" xlink:href="#DejaVuSans-20"/>
     <use x="159.033203" xlink:href="#DejaVuSans-45"/>
     <use x="222.216797" xlink:href="#DejaVuSans-6c"/>
     <use x="250" xlink:href="#DejaVuSans-6c"/>
     <use x="277.783203" xlink:href="#DejaVuSans-69"/>
     <use x="305.566406" xlink:href="#DejaVuSans-70"/>
     <use x="369.042969" xlink:href="#DejaVuSans-73"/>
     <use x="421.142578" xlink:href="#DejaVuSans-6f"/>
     <use x="482.324219" xlink:href="#DejaVuSans-69"/>
     <use x="510.107422" xlink:href="#DejaVuSans-64"/>
    </g>
   </g>
  </g>
 </g>
 <defs>
  <clipPath id="pbdf6a79667">
   <rect height="271.296" width="303.2064" x="57.6" y="27.648"/>
  </clipPath>
 </defs>
</svg>
