<?xml version="1.0" encoding="utf-8" standalone="no"?>
<!DOCTYPE svg PUBLIC "-//W3C//DTD SVG 1.1//EN"
  "http://www.w3.org/Graphics/SVG/1.1/DTD/svg11.dtd">
<svg height="345.6pt" version="1.1" viewBox="0 0 460.8 345.6" width="460.8pt" xmlns="http://www.w3.org/2000/svg" xmlns:xlink="http://www.w3.org/1999/xlink">
 <metadata>
  <rdf:RDF xmlns:cc="http://creativecommons.org/ns#" xmlns:dc="http://purl.org/dc/elements/1.1/" xmlns:rdf="http://www.w3.org/1999/02/22-rdf-syntax-ns#">
   <cc:Work>
    <dc:type rdf:resource="http://purl.org/dc/dcmitype/StillImage"/>
    <dc:date>2022-04-01T21:56:08.408858</dc:date>
    <dc:format>image/svg+xml</dc:format>
    <dc:creator>
     <cc:Agent>
      <dc:title>Matplotlib v3.4.3, https://matplotlib.org/</dc:title>
     </cc:Agent>
    </dc:creator>
   </cc:Work>
  </rdf:RDF>
 </metadata>
 <defs>
  <style type="text/css">*{stroke-linecap:butt;stroke-linejoin:round;}</style>
 </defs>
 <g id="figure_1">
  <g id="patch_1">
   <path d="M 0 345.6 
L 460.8 345.6 
L 460.8 0 
L 0 0 
z
" style="fill:#ffffff;"/>
  </g>
  <g id="axes_1">
   <g id="patch_2">
    <path d="M 62.208 293.76 
L 460.8 293.76 
L 460.8 3.456 
L 62.208 3.456 
z
" style="fill:#ffffff;"/>
   </g>
   <g id="line2d_1">
    <path clip-path="url(#pac713c6fd8)" d="M 310.381457 293.76 
L 310.381457 289.927604 
L 310.381457 289.927604 
L 310.381457 286.095208 
L 310.750398 286.095208 
L 310.750398 282.262812 
L 310.750398 282.262812 
L 310.750398 278.430416 
L 310.750398 278.430416 
L 310.750398 274.59802 
L 310.934015 274.59802 
L 310.934015 270.765624 
L 310.934015 270.765624 
L 310.934015 266.933228 
L 311.481497 266.933228 
L 311.481497 263.100832 
L 313.094391 263.100832 
L 313.094391 259.268436 
L 313.094391 259.268436 
L 313.094391 255.43604 
L 314.145898 255.43604 
L 314.145898 251.603644 
L 314.664774 251.603644 
L 314.664774 247.771248 
L 316.529569 247.771248 
L 316.529569 243.938851 
L 318.660718 243.938851 
L 318.660718 240.106455 
L 320.406308 240.106455 
L 320.406308 236.274059 
L 333.670771 236.274059 
L 333.670771 232.441663 
L 335.03204 232.441663 
L 335.03204 228.609267 
L 335.39796 228.609267 
L 335.39796 224.776871 
L 335.39796 224.776871 
L 335.39796 220.944475 
L 335.640664 220.944475 
L 335.640664 217.112079 
L 336.243135 217.112079 
L 336.243135 213.279683 
L 336.362902 213.279683 
L 336.362902 209.447287 
L 337.076489 209.447287 
L 337.076489 205.614891 
L 337.076489 205.614891 
L 337.076489 201.782495 
L 337.898348 201.782495 
L 337.898348 197.950099 
L 338.247133 197.950099 
L 338.247133 194.117703 
L 338.247133 194.117703 
L 338.247133 190.285307 
L 339.05311 190.285307 
L 339.05311 186.452911 
L 353.683303 186.452911 
L 353.683303 182.620515 
L 354.040094 182.620515 
L 354.040094 178.788119 
L 362.714626 178.788119 
L 362.714626 174.955723 
L 363.856843 174.955723 
L 363.856843 171.123327 
L 366.439829 171.123327 
L 366.439829 167.290931 
L 367.937526 167.290931 
L 367.937526 163.458535 
L 368.776749 163.458535 
L 368.776749 159.626139 
L 368.915478 159.626139 
L 368.915478 155.793743 
L 370.081808 155.793743 
L 370.081808 151.961347 
L 374.34195 151.961347 
L 374.34195 148.12895 
L 385.865845 148.12895 
L 385.865845 144.296554 
L 395.206917 144.296554 
L 395.206917 140.464158 
L 398.543271 140.464158 
L 398.543271 136.631762 
L 403.861032 136.631762 
L 403.861032 132.799366 
L 409.483893 132.799366 
L 409.483893 128.96697 
L 409.483893 128.96697 
L 409.483893 128.96697 
L 460.8 128.96697 
" style="fill:none;stroke:#f5deb3;stroke-linecap:square;stroke-width:1.5;"/>
   </g>
   <g id="line2d_2">
    <path clip-path="url(#pac713c6fd8)" d="M 257.247591 293.76 
L 257.247591 282.262812 
L 257.247591 282.262812 
L 257.247591 270.765624 
L 257.697283 270.765624 
L 257.697283 259.268436 
L 257.697283 259.268436 
L 257.697283 247.771248 
L 257.697283 247.771248 
L 257.697283 236.274059 
L 416.052048 236.274059 
L 416.052048 224.776871 
L 424.555508 224.776871 
L 424.555508 213.279683 
L 424.989636 213.279683 
L 424.989636 201.782495 
L 434.074027 201.782495 
L 434.074027 190.285307 
L 437.479745 190.285307 
L 437.479745 178.788119 
L 461.8 178.788119 
" style="fill:none;stroke:#f5deb3;stroke-linecap:square;stroke-width:1.5;"/>
   </g>
   <g id="line2d_3">
    <path clip-path="url(#pac713c6fd8)" d="M 150.487685 293.76 
L 150.487685 289.927604 
L 150.487685 289.927604 
L 150.487685 286.095208 
L 150.487685 286.095208 
L 150.487685 282.262812 
L 150.487685 282.262812 
L 150.487685 278.430416 
L 150.487685 278.430416 
L 150.487685 274.59802 
L 150.487685 274.59802 
L 150.487685 270.765624 
L 150.487685 270.765624 
L 150.487685 266.933228 
L 150.487685 266.933228 
L 150.487685 263.100832 
L 150.487685 263.100832 
L 150.487685 259.268436 
L 150.487685 259.268436 
L 150.487685 255.43604 
L 150.487685 255.43604 
L 150.487685 251.603644 
L 150.487685 251.603644 
L 150.487685 247.771248 
L 150.487685 247.771248 
L 150.487685 243.938851 
L 150.487685 243.938851 
L 150.487685 240.106455 
L 150.487685 240.106455 
L 150.487685 236.274059 
L 150.487685 236.274059 
L 150.487685 232.441663 
L 150.487685 232.441663 
L 150.487685 228.609267 
L 150.487685 228.609267 
L 150.487685 224.776871 
L 150.487685 224.776871 
L 150.487685 220.944475 
L 153.136292 220.944475 
L 153.136292 217.112079 
L 153.136292 217.112079 
L 153.136292 213.279683 
L 153.136292 213.279683 
L 153.136292 209.447287 
L 155.672157 209.447287 
L 155.672157 205.614891 
L 155.672157 205.614891 
L 155.672157 201.782495 
L 158.104488 201.782495 
L 158.104488 197.950099 
L 158.104488 197.950099 
L 158.104488 194.117703 
L 158.104488 194.117703 
L 158.104488 190.285307 
L 160.441409 190.285307 
L 160.441409 186.452911 
L 162.690122 186.452911 
L 162.690122 182.620515 
L 172.813359 182.620515 
L 172.813359 178.788119 
L 461.8 178.788119 
" style="fill:none;stroke:#f5deb3;stroke-linecap:square;stroke-width:1.5;"/>
   </g>
   <g id="line2d_4">
    <path clip-path="url(#pac713c6fd8)" d="M 114.371788 293.76 
L 114.371788 289.927604 
L 138.530955 289.927604 
L 138.530955 286.095208 
L 153.136292 286.095208 
L 153.136292 282.262812 
L 155.672157 282.262812 
L 155.672157 278.430416 
L 162.690122 278.430416 
L 162.690122 274.59802 
L 168.967906 274.59802 
L 168.967906 270.765624 
L 172.813359 270.765624 
L 172.813359 266.933228 
L 174.646853 266.933228 
L 174.646853 263.100832 
L 174.646853 263.100832 
L 174.646853 259.268436 
L 174.646853 259.268436 
L 174.646853 255.43604 
L 179.831324 255.43604 
L 179.831324 251.603644 
L 184.600576 251.603644 
L 184.600576 247.771248 
L 186.109108 247.771248 
L 186.109108 243.938851 
L 190.418251 243.938851 
L 190.418251 240.106455 
L 199.404857 240.106455 
L 199.404857 236.274059 
L 320.562491 236.274059 
L 320.562491 232.441663 
L 323.898845 232.441663 
L 323.898845 228.609267 
L 325.928661 228.609267 
L 325.928661 224.776871 
L 326.637157 224.776871 
L 326.637157 220.944475 
L 326.777851 220.944475 
L 326.777851 217.112079 
L 327.19795 217.112079 
L 327.19795 213.279683 
L 327.47638 213.279683 
L 327.47638 209.447287 
L 328.303946 209.447287 
L 328.303946 205.614891 
L 328.577267 205.614891 
L 328.577267 201.782495 
L 329.120176 201.782495 
L 329.120176 197.950099 
L 330.456193 197.950099 
L 330.456193 194.117703 
L 333.419892 194.117703 
L 333.419892 190.285307 
L 333.670771 190.285307 
L 333.670771 186.452911 
L 334.663858 186.452911 
L 334.663858 182.620515 
L 337.898348 182.620515 
L 337.898348 178.788119 
L 393.443016 178.788119 
L 393.443016 174.955723 
L 396.529098 174.955723 
L 396.529098 171.123327 
L 396.572669 171.123327 
L 396.572669 167.290931 
L 396.572669 167.290931 
L 396.572669 163.458535 
L 397.265512 163.458535 
L 397.265512 159.626139 
L 398.077935 159.626139 
L 398.077935 155.793743 
L 398.162812 155.793743 
L 398.162812 151.961347 
L 398.627488 151.961347 
L 398.627488 148.12895 
L 400.123395 148.12895 
L 400.123395 144.296554 
L 401.502524 144.296554 
L 401.502524 140.464158 
L 403.39674 140.464158 
L 403.39674 136.631762 
L 403.783901 136.631762 
L 403.783901 132.799366 
L 406.57328 132.799366 
L 406.57328 128.96697 
L 406.793825 128.96697 
L 406.793825 125.134574 
L 408.028391 125.134574 
L 408.028391 121.302178 
L 408.028391 121.302178 
L 408.028391 121.302178 
L 460.8 121.302178 
" style="fill:none;stroke:#f5deb3;stroke-linecap:square;stroke-width:1.5;"/>
   </g>
   <g id="line2d_5">
    <path clip-path="url(#pac713c6fd8)" d="M 327.615108 293.76 
L 327.615108 289.927604 
L 341.076906 289.927604 
L 341.076906 286.095208 
L 343.034216 286.095208 
L 343.034216 282.262812 
L 345.752546 282.262812 
L 345.752546 278.430416 
L 347.266188 278.430416 
L 347.266188 274.59802 
L 355.446267 274.59802 
L 355.446267 270.765624 
L 363.932218 270.765624 
L 363.932218 266.933228 
L 364.007497 266.933228 
L 364.007497 263.100832 
L 366.150235 263.100832 
L 366.150235 259.268436 
L 369.467184 259.268436 
L 369.467184 255.43604 
L 380.06688 255.43604 
L 380.06688 251.603644 
L 380.353479 251.603644 
L 380.353479 247.771248 
L 461.8 247.771248 
" style="fill:none;stroke:#f5deb3;stroke-linecap:square;stroke-width:1.5;"/>
   </g>
   <g id="line2d_6"/>
   <g id="line2d_7">
    <path clip-path="url(#pac713c6fd8)" d="M 253.039926 293.76 
L 253.039926 289.927604 
L 254.946771 289.927604 
L 254.946771 286.095208 
L 259.462859 286.095208 
L 259.462859 282.262812 
L 261.598709 282.262812 
L 261.598709 278.430416 
L 262.84441 278.430416 
L 262.84441 274.59802 
L 265.653596 274.59802 
L 265.653596 266.933228 
L 266.43248 266.933228 
L 266.43248 263.100832 
L 266.818138 263.100832 
L 266.818138 259.268436 
L 267.582044 259.268436 
L 267.582044 255.43604 
L 269.816699 255.43604 
L 269.816699 251.603644 
L 271.261227 251.603644 
L 271.261227 247.771248 
L 271.616952 247.771248 
L 271.616952 243.938851 
L 272.671561 243.938851 
L 272.671561 240.106455 
L 276.712692 240.106455 
L 276.712692 236.274059 
L 364.531809 236.274059 
L 364.531809 232.441663 
L 364.903512 232.441663 
L 364.903512 228.609267 
L 365.640034 228.609267 
L 365.640034 224.776871 
L 366.004908 224.776871 
L 366.004908 220.944475 
L 366.728022 220.944475 
L 366.728022 217.112079 
L 367.30026 217.112079 
L 367.30026 213.279683 
L 367.867055 213.279683 
L 367.867055 209.447287 
L 368.428508 209.447287 
L 368.428508 205.614891 
L 368.915478 205.614891 
L 368.915478 201.782495 
L 369.122967 201.782495 
L 369.122967 197.950099 
L 371.025463 197.950099 
L 371.025463 194.117703 
L 371.358893 194.117703 
L 371.358893 190.285307 
L 371.954406 190.285307 
L 371.954406 186.452911 
L 374.151889 186.452911 
L 374.151889 182.620515 
L 375.593757 182.620515 
L 375.593757 178.788119 
L 427.555907 178.788119 
L 427.555907 174.955723 
L 428.14853 174.955723 
L 428.14853 171.123327 
L 428.276584 171.123327 
L 428.276584 167.290931 
L 428.887445 167.290931 
L 428.887445 163.458535 
L 429.617309 163.458535 
L 429.617309 159.626139 
L 430.511083 159.626139 
L 430.511083 155.793743 
L 430.806053 155.793743 
L 430.806053 151.961347 
L 431.123965 151.961347 
L 431.123965 148.12895 
L 431.899365 148.12895 
L 431.899365 144.296554 
L 432.736063 144.296554 
L 432.736063 140.464158 
L 434.421186 140.464158 
L 434.421186 136.631762 
L 434.835124 136.631762 
L 434.835124 132.799366 
L 436.059958 132.799366 
L 436.059958 128.96697 
L 437.720399 128.96697 
L 437.720399 125.134574 
L 461.8 125.134574 
L 461.8 125.134574 
" style="fill:none;stroke:#f5deb3;stroke-linecap:square;stroke-width:1.5;"/>
   </g>
   <g id="line2d_8">
    <path clip-path="url(#pac713c6fd8)" d="M 419.291763 293.76 
L 419.291763 289.927604 
L 420.731837 289.927604 
L 420.731837 286.095208 
L 421.482055 286.095208 
L 421.539374 278.430416 
L 421.653849 278.430416 
L 421.653849 274.59802 
L 421.995958 274.59802 
L 422.081179 266.933228 
L 422.137925 266.933228 
L 422.137925 263.100832 
L 423.261652 263.100832 
L 423.261652 259.268436 
L 423.456144 259.268436 
L 423.456144 255.43604 
L 424.391891 255.43604 
L 424.391891 251.603644 
L 424.582734 251.603644 
L 424.582734 247.771248 
L 426.246895 247.771248 
L 426.246895 243.938851 
L 443.441013 243.938851 
L 443.441013 240.106455 
L 443.599481 240.106455 
L 443.599481 236.274059 
L 461.8 236.274059 
L 461.8 236.274059 
" style="fill:none;stroke:#f5deb3;stroke-linecap:square;stroke-width:1.5;"/>
   </g>
   <g id="line2d_9">
    <path clip-path="url(#pac713c6fd8)" d="M 178.152795 293.76 
L 178.152795 289.927604 
L 184.600576 289.927604 
L 184.600576 286.095208 
L 189.016213 286.095208 
L 189.016213 282.262812 
L 195.718083 282.262812 
L 195.718083 278.430416 
L 196.972526 278.430416 
L 196.972526 274.59802 
L 211.253155 274.59802 
L 211.253155 270.765624 
L 215.037527 270.765624 
L 215.037527 266.933228 
L 223.564025 266.933228 
L 223.564025 263.100832 
L 223.564025 263.100832 
L 223.564025 259.268436 
L 227.409478 259.268436 
L 227.409478 255.43604 
L 227.409478 255.43604 
L 227.409478 251.603644 
L 231.021725 251.603644 
L 231.021725 247.771248 
L 231.71862 247.771248 
L 231.71862 243.938851 
L 232.407458 243.938851 
L 232.407458 240.106455 
L 233.088424 240.106455 
L 233.088424 236.274059 
L 352.050767 236.274059 
L 352.050767 232.441663 
L 352.325982 232.441663 
L 352.325982 228.609267 
L 354.040094 228.609267 
L 354.040094 224.776871 
L 355.792686 224.776871 
L 355.792686 220.944475 
L 356.479539 220.944475 
L 356.479539 217.112079 
L 356.650022 217.112079 
L 356.650022 213.279683 
L 357.662803 213.279683 
L 357.662803 209.447287 
L 358.245738 209.447287 
L 358.245738 205.614891 
L 358.493832 205.614891 
L 358.493832 201.782495 
L 359.961087 201.782495 
L 359.961087 197.950099 
L 360.202155 197.950099 
L 360.202155 194.117703 
L 361.550084 194.117703 
L 361.550084 190.285307 
L 365.346517 190.285307 
L 365.346517 186.452911 
L 365.420031 186.452911 
L 365.420031 182.620515 
L 365.932112 182.620515 
L 365.932112 178.788119 
L 416.894126 178.788119 
L 416.894126 174.955723 
L 417.937868 174.955723 
L 417.937868 171.123327 
L 418.059468 171.123327 
L 418.059468 167.290931 
L 418.301925 167.290931 
L 418.301925 163.458535 
L 419.558889 163.458535 
L 419.558889 159.626139 
L 421.825149 159.626139 
L 421.825149 155.793743 
L 423.289476 155.793743 
L 423.289476 151.961347 
L 425.070684 151.961347 
L 425.070684 148.12895 
L 425.259369 148.12895 
L 425.259369 144.296554 
L 425.608205 144.296554 
L 425.608205 140.464158 
L 426.721459 140.464158 
L 426.721459 136.631762 
L 427.659396 136.631762 
L 427.659396 132.799366 
L 427.968789 132.799366 
L 427.968789 128.96697 
L 428.14853 128.96697 
L 428.14853 125.134574 
L 430.756993 125.134574 
L 430.756993 121.302178 
L 461.8 121.302178 
" style="fill:none;stroke:#f5deb3;stroke-linecap:square;stroke-width:1.5;"/>
   </g>
   <g id="line2d_10">
    <path clip-path="url(#pac713c6fd8)" d="M 241.298106 293.76 
L 241.298106 289.927604 
L 252.06312 289.927604 
L 252.06312 286.095208 
L 252.553524 286.095208 
L 252.553524 274.59802 
L 254.47575 274.59802 
L 254.47575 270.765624 
L 255.877788 270.765624 
L 255.877788 266.933228 
L 262.016843 266.933228 
L 262.016843 263.100832 
L 262.84441 263.100832 
L 262.84441 259.268436 
L 270.903365 259.268436 
L 270.903365 255.43604 
L 275.062064 255.43604 
L 275.062064 251.603644 
L 284.912702 251.603644 
L 284.912702 247.771248 
L 285.195761 247.771248 
L 285.195761 243.938851 
L 295.062532 243.938851 
L 295.062532 240.106455 
L 296.247141 240.106455 
L 296.247141 236.274059 
L 461.8 236.274059 
L 461.8 236.274059 
" style="fill:none;stroke:#f5deb3;stroke-linecap:square;stroke-width:1.5;"/>
   </g>
   <g id="line2d_11">
    <path clip-path="url(#pac713c6fd8)" d="M 127.667537 293.76 
L 127.667537 289.927604 
L 144.808739 289.927604 
L 144.808739 286.095208 
L 147.715844 286.095208 
L 147.715844 282.262812 
L 147.715844 282.262812 
L 147.715844 278.430416 
L 147.715844 278.430416 
L 147.715844 274.59802 
L 150.487685 274.59802 
L 150.487685 270.765624 
L 150.487685 270.765624 
L 150.487685 266.933228 
L 153.136292 266.933228 
L 153.136292 263.100832 
L 153.136292 263.100832 
L 153.136292 259.268436 
L 162.690122 259.268436 
L 162.690122 255.43604 
L 162.690122 255.43604 
L 162.690122 251.603644 
L 174.646853 251.603644 
L 174.646853 247.771248 
L 174.646853 247.771248 
L 174.646853 243.938851 
L 181.46386 243.938851 
L 181.46386 240.106455 
L 183.052857 240.106455 
L 183.052857 236.274059 
L 311.662879 236.274059 
L 311.662879 232.441663 
L 316.362434 232.441663 
L 316.362434 228.609267 
L 316.362434 228.609267 
L 316.362434 224.776871 
L 316.862441 224.776871 
L 316.862441 220.944475 
L 318.013061 220.944475 
L 318.013061 217.112079 
L 318.981925 217.112079 
L 318.981925 213.279683 
L 319.141882 213.279683 
L 319.141882 209.447287 
L 320.249714 209.447287 
L 320.249714 205.614891 
L 320.562491 205.614891 
L 320.562491 201.782495 
L 323.454739 201.782495 
L 323.454739 197.950099 
L 323.454739 197.950099 
L 323.454739 194.117703 
L 324.631742 194.117703 
L 324.631742 190.285307 
L 324.922396 190.285307 
L 324.922396 186.452911 
L 327.47638 186.452911 
L 327.47638 182.620515 
L 327.8916 182.620515 
L 327.8916 178.788119 
L 461.8 178.788119 
" style="fill:none;stroke:#f5deb3;stroke-linecap:square;stroke-width:1.5;"/>
   </g>
   <g id="line2d_12">
    <path clip-path="url(#pac713c6fd8)" d="M 119.141039 293.76 
L 119.141039 289.927604 
L 119.141039 289.927604 
L 119.141039 286.095208 
L 119.141039 286.095208 
L 119.141039 282.262812 
L 119.141039 282.262812 
L 119.141039 278.430416 
L 119.141039 278.430416 
L 119.141039 274.59802 
L 119.141039 274.59802 
L 119.141039 270.765624 
L 119.141039 270.765624 
L 119.141039 266.933228 
L 119.141039 266.933228 
L 119.141039 263.100832 
L 119.141039 263.100832 
L 119.141039 259.268436 
L 119.141039 259.268436 
L 119.141039 255.43604 
L 119.141039 255.43604 
L 119.141039 251.603644 
L 119.141039 251.603644 
L 119.141039 247.771248 
L 119.141039 247.771248 
L 119.141039 243.938851 
L 119.141039 243.938851 
L 119.141039 240.106455 
L 119.141039 240.106455 
L 119.141039 236.274059 
L 141.752487 236.274059 
L 141.752487 232.441663 
L 141.752487 232.441663 
L 141.752487 228.609267 
L 158.104488 228.609267 
L 158.104488 224.776871 
L 170.92165 224.776871 
L 170.92165 220.944475 
L 170.92165 220.944475 
L 170.92165 217.112079 
L 170.92165 217.112079 
L 170.92165 213.279683 
L 170.92165 213.279683 
L 170.92165 209.447287 
L 170.92165 209.447287 
L 170.92165 205.614891 
L 170.92165 205.614891 
L 170.92165 201.782495 
L 170.92165 201.782495 
L 170.92165 197.950099 
L 170.92165 197.950099 
L 170.92165 194.117703 
L 181.46386 194.117703 
L 181.46386 190.285307 
L 181.46386 190.285307 
L 181.46386 186.452911 
L 181.46386 186.452911 
L 181.46386 182.620515 
L 190.418251 182.620515 
L 190.418251 178.788119 
L 337.898348 178.788119 
L 337.898348 174.955723 
L 339.281401 174.955723 
L 339.281401 171.123327 
L 340.633077 171.123327 
L 340.633077 167.290931 
L 341.297588 167.290931 
L 341.297588 163.458535 
L 343.883911 163.458535 
L 343.883911 159.626139 
L 351.589233 159.626139 
L 351.589233 155.793743 
L 352.690968 155.793743 
L 352.690968 151.961347 
L 356.308567 151.961347 
L 356.308567 148.12895 
L 356.904836 148.12895 
L 356.904836 144.296554 
L 356.904836 144.296554 
L 356.904836 140.464158 
L 363.174144 140.464158 
L 363.174144 136.631762 
L 364.531809 136.631762 
L 364.531809 132.799366 
L 364.903512 132.799366 
L 364.903512 128.96697 
L 374.024845 128.96697 
L 374.024845 125.134574 
L 374.405169 125.134574 
L 374.405169 121.302178 
L 374.405169 121.302178 
L 374.405169 121.302178 
L 460.8 121.302178 
" style="fill:none;stroke:#f5deb3;stroke-linecap:square;stroke-width:1.5;"/>
   </g>
   <g id="line2d_13">
    <path clip-path="url(#pac713c6fd8)" d="M 313.622464 293.76 
L 313.622464 289.927604 
L 313.622464 289.927604 
L 313.622464 286.095208 
L 313.622464 286.095208 
L 313.622464 282.262812 
L 318.660718 282.262812 
L 318.660718 278.430416 
L 318.660718 278.430416 
L 318.660718 274.59802 
L 318.660718 274.59802 
L 318.660718 270.765624 
L 319.141882 270.765624 
L 319.141882 266.933228 
L 319.141882 266.933228 
L 319.141882 263.100832 
L 319.141882 263.100832 
L 319.141882 259.268436 
L 329.791929 259.268436 
L 329.791929 255.43604 
L 329.791929 255.43604 
L 329.791929 251.603644 
L 329.791929 251.603644 
L 329.791929 247.771248 
L 336.482428 247.771248 
L 336.482428 243.938851 
L 336.482428 243.938851 
L 336.482428 240.106455 
L 336.482428 240.106455 
L 336.482428 236.274059 
L 438.565882 236.274059 
L 438.565882 232.441663 
L 440.263542 232.441663 
L 440.263542 228.609267 
L 440.263542 228.609267 
L 440.263542 224.776871 
L 441.094571 224.776871 
L 441.094571 220.944475 
L 443.658798 220.944475 
L 443.658798 217.112079 
L 443.658798 217.112079 
L 443.658798 213.279683 
L 445.813016 213.279683 
L 445.813016 209.447287 
L 445.813016 209.447287 
L 445.813016 205.614891 
L 445.851125 205.614891 
L 445.851125 201.782495 
L 445.851125 201.782495 
L 445.851125 197.950099 
L 445.851125 197.950099 
L 445.851125 194.117703 
L 446.777269 194.117703 
L 446.777269 190.285307 
L 446.777269 190.285307 
L 446.777269 186.452911 
L 449.543995 186.452911 
L 449.543995 182.620515 
L 452.902945 182.620515 
L 452.902945 178.788119 
L 461.8 178.788119 
" style="fill:none;stroke:#f5deb3;stroke-linecap:square;stroke-width:1.5;"/>
   </g>
   <g id="line2d_14">
    <path clip-path="url(#pac713c6fd8)" d="M 178.152795 293.76 
L 178.152795 289.927604 
L 178.152795 289.927604 
L 178.152795 286.095208 
L 179.831324 286.095208 
L 179.831324 282.262812 
L 183.052857 282.262812 
L 183.052857 278.430416 
L 187.580389 278.430416 
L 187.580389 274.59802 
L 187.580389 274.59802 
L 187.580389 270.765624 
L 187.580389 270.765624 
L 187.580389 266.933228 
L 191.788055 266.933228 
L 191.788055 263.100832 
L 194.436661 263.100832 
L 194.436661 259.268436 
L 194.436661 259.268436 
L 194.436661 255.43604 
L 194.436661 255.43604 
L 194.436661 251.603644 
L 194.436661 251.603644 
L 194.436661 247.771248 
L 194.436661 247.771248 
L 194.436661 243.938851 
L 194.436661 243.938851 
L 194.436661 240.106455 
L 194.436661 240.106455 
L 194.436661 236.274059 
L 267.201315 236.274059 
L 267.201315 232.441663 
L 271.261227 232.441663 
L 271.261227 228.609267 
L 274.72638 228.609267 
L 274.72638 224.776871 
L 276.712692 224.776871 
L 276.712692 220.944475 
L 276.712692 220.944475 
L 276.712692 217.112079 
L 278.001041 217.112079 
L 278.001041 213.279683 
L 278.634918 213.279683 
L 278.634918 209.447287 
L 279.262122 209.447287 
L 279.262122 205.614891 
L 281.70693 205.614891 
L 281.70693 201.782495 
L 282.892717 201.782495 
L 282.892717 197.950099 
L 285.477481 197.950099 
L 285.477481 194.117703 
L 286.314739 194.117703 
L 286.314739 190.285307 
L 288.223767 190.285307 
L 288.223767 186.452911 
L 288.223767 186.452911 
L 288.223767 182.620515 
L 297.638266 182.620515 
L 297.638266 178.788119 
L 425.688417 178.788119 
L 425.688417 174.955723 
L 434.766333 174.955723 
L 434.766333 171.123327 
L 451.133933 171.123327 
L 451.133933 167.290931 
L 461.8 167.290931 
" style="fill:none;stroke:#f5deb3;stroke-linecap:square;stroke-width:1.5;"/>
   </g>
   <g id="line2d_15">
    <path clip-path="url(#pac713c6fd8)" style="fill:none;stroke:#f5deb3;stroke-linecap:square;stroke-width:1.5;"/>
   </g>
   <g id="line2d_16">
    <path clip-path="url(#pac713c6fd8)" d="M 338.593887 293.76 
L 338.593887 289.927604 
L 344.617582 289.927604 
L 344.617582 282.262812 
L 350.561094 282.262812 
L 350.561094 278.430416 
L 354.306292 278.430416 
L 354.306292 274.59802 
L 355.965143 274.59802 
L 356.051185 263.100832 
L 356.137102 263.100832 
L 356.222896 255.43604 
L 356.650022 255.43604 
L 356.650022 251.603644 
L 358.493832 251.603644 
L 358.493832 247.771248 
L 358.658656 247.771248 
L 358.658656 243.938851 
L 362.868192 243.938851 
L 362.868192 240.106455 
L 369.191969 240.106455 
L 369.191969 236.274059 
L 411.007328 236.274059 
L 411.007328 232.441663 
L 413.1889 232.441663 
L 413.1889 228.609267 
L 414.298987 228.609267 
L 414.298987 224.776871 
L 414.557206 224.776871 
L 414.557206 220.944475 
L 415.03837 220.944475 
L 415.03837 217.112079 
L 417.571573 217.112079 
L 417.571573 213.279683 
L 420.030842 213.279683 
L 420.030842 209.447287 
L 420.38237 209.447287 
L 420.38237 205.614891 
L 422.194618 205.614891 
L 422.194618 201.782495 
L 423.178104 201.782495 
L 423.178104 197.950099 
L 423.788088 197.950099 
L 423.788088 194.117703 
L 424.528269 194.117703 
L 424.528269 190.285307 
L 424.962595 190.285307 
L 424.962595 186.452911 
L 426.299811 186.452911 
L 426.299811 182.620515 
L 426.511008 182.620515 
L 426.511008 178.788119 
L 426.668916 178.788119 
L 426.668916 174.955723 
L 427.530007 174.955723 
L 427.530007 171.123327 
L 427.9945 171.123327 
L 427.9945 167.290931 
L 430.412434 167.290931 
L 430.412434 163.458535 
L 431.851197 163.458535 
L 431.851197 159.626139 
L 433.091082 159.626139 
L 433.091082 155.793743 
L 434.305691 155.793743 
L 434.305691 151.961347 
L 435.314445 151.961347 
L 435.314445 148.12895 
L 437.698562 148.12895 
L 437.785864 140.464158 
L 437.873039 140.464158 
L 437.873039 136.631762 
L 438.802198 136.631762 
L 438.802198 132.799366 
L 439.314567 132.799366 
L 439.378304 125.134574 
L 439.990942 125.134574 
L 439.990942 121.302178 
L 440.5349 121.302178 
L 440.5349 117.469782 
L 441.444279 117.469782 
L 441.444279 113.637386 
L 442.461093 113.637386 
L 442.461093 109.80499 
L 443.341757 109.80499 
L 443.341757 105.972594 
L 443.639032 105.972594 
L 443.639032 102.140198 
L 445.449757 102.140198 
L 445.449757 98.307802 
L 446.022316 98.307802 
L 446.022316 94.475406 
L 446.589425 94.475406 
L 446.589425 90.64301 
L 448.80538 90.64301 
L 448.80538 86.810614 
L 452.716507 86.810614 
L 452.716507 82.978218 
L 455.291262 82.978218 
L 455.291262 79.145822 
L 461.8 79.145822 
L 461.8 79.145822 
" style="fill:none;stroke:#f5deb3;stroke-linecap:square;stroke-width:1.5;"/>
   </g>
   <g id="line2d_17">
    <path clip-path="url(#pac713c6fd8)" d="M 252.553524 293.76 
L 252.553524 289.927604 
L 259.026345 289.927604 
L 259.026345 286.095208 
L 273.01899 286.095208 
L 273.01899 282.262812 
L 285.477481 282.262812 
L 285.477481 278.430416 
L 287.41309 278.430416 
L 287.41309 274.59802 
L 304.144779 274.59802 
L 304.144779 270.765624 
L 309.260724 270.765624 
L 309.260724 266.933228 
L 309.448983 266.933228 
L 309.448983 263.100832 
L 312.917322 263.100832 
L 312.917322 259.268436 
L 329.120176 259.268436 
L 329.120176 255.43604 
L 341.736513 255.43604 
L 341.736513 251.603644 
L 342.496937 251.603644 
L 342.496937 247.771248 
L 343.034216 247.771248 
L 343.034216 243.938851 
L 376.271203 243.938851 
L 376.271203 240.106455 
L 376.698329 240.106455 
L 376.698329 236.274059 
L 461.8 236.274059 
" style="fill:none;stroke:#f5deb3;stroke-linecap:square;stroke-width:1.5;"/>
   </g>
   <g id="line2d_18">
    <path clip-path="url(#pac713c6fd8)" d="M 114.371788 293.76 
L 114.371788 289.927604 
L 114.371788 289.927604 
L 114.371788 286.095208 
L 114.371788 286.095208 
L 114.371788 282.262812 
L 114.371788 282.262812 
L 114.371788 278.430416 
L 114.371788 278.430416 
L 114.371788 274.59802 
L 114.371788 274.59802 
L 114.371788 270.765624 
L 114.371788 270.765624 
L 114.371788 266.933228 
L 114.371788 266.933228 
L 114.371788 263.100832 
L 114.371788 263.100832 
L 114.371788 259.268436 
L 114.371788 259.268436 
L 114.371788 255.43604 
L 114.371788 255.43604 
L 114.371788 251.603644 
L 114.371788 251.603644 
L 114.371788 247.771248 
L 114.371788 247.771248 
L 114.371788 243.938851 
L 114.371788 243.938851 
L 114.371788 240.106455 
L 114.371788 240.106455 
L 114.371788 236.274059 
L 119.141039 236.274059 
L 119.141039 232.441663 
L 119.141039 232.441663 
L 119.141039 228.609267 
L 119.141039 228.609267 
L 119.141039 224.776871 
L 119.141039 224.776871 
L 119.141039 220.944475 
L 119.141039 220.944475 
L 119.141039 217.112079 
L 123.556677 217.112079 
L 123.556677 213.279683 
L 127.667537 213.279683 
L 127.667537 209.447287 
L 131.51299 209.447287 
L 131.51299 205.614891 
L 131.51299 205.614891 
L 131.51299 201.782495 
L 135.125237 201.782495 
L 135.125237 197.950099 
L 135.125237 197.950099 
L 135.125237 194.117703 
L 135.125237 194.117703 
L 135.125237 190.285307 
L 135.125237 190.285307 
L 135.125237 186.452911 
L 138.530955 186.452911 
L 138.530955 182.620515 
L 147.715844 182.620515 
L 147.715844 178.788119 
L 461.8 178.788119 
" style="fill:none;stroke:#f5deb3;stroke-linecap:square;stroke-width:1.5;"/>
   </g>
   <g id="line2d_19">
    <path clip-path="url(#pac713c6fd8)" d="M 358.576301 293.76 
L 358.576301 289.927604 
L 368.984721 289.927604 
L 368.984721 286.095208 
L 380.009394 286.095208 
L 380.009394 282.262812 
L 397.308549 282.262812 
L 397.308549 278.430416 
L 398.247568 278.430416 
L 398.247568 274.59802 
L 401.221184 274.59802 
L 401.221184 270.765624 
L 405.533137 270.765624 
L 405.533137 266.933228 
L 408.064318 266.933228 
L 408.064318 263.100832 
L 409.868418 263.100832 
L 409.868418 259.268436 
L 413.419144 259.268436 
L 413.419144 255.43604 
L 416.08345 255.43604 
L 416.08345 251.603644 
L 419.083167 251.603644 
L 419.083167 247.771248 
L 420.469929 247.771248 
L 420.469929 243.938851 
L 428.429888 243.938851 
L 428.429888 240.106455 
L 438.952095 240.106455 
L 438.952095 236.274059 
L 461.8 236.274059 
L 461.8 236.274059 
" style="fill:none;stroke:#f5deb3;stroke-linecap:square;stroke-width:1.5;"/>
   </g>
   <g id="line2d_20">
    <path clip-path="url(#pac713c6fd8)" d="M 127.667537 293.76 
L 127.667537 289.927604 
L 135.125237 289.927604 
L 135.125237 286.095208 
L 138.530955 286.095208 
L 138.530955 282.262812 
L 138.530955 282.262812 
L 138.530955 278.430416 
L 147.715844 278.430416 
L 147.715844 274.59802 
L 153.136292 274.59802 
L 153.136292 270.765624 
L 155.672157 270.765624 
L 155.672157 266.933228 
L 160.441409 266.933228 
L 160.441409 263.100832 
L 162.690122 263.100832 
L 162.690122 259.268436 
L 162.690122 259.268436 
L 162.690122 255.43604 
L 164.857046 255.43604 
L 164.857046 251.603644 
L 168.967906 251.603644 
L 168.967906 247.771248 
L 172.813359 247.771248 
L 172.813359 243.938851 
L 174.646853 243.938851 
L 174.646853 240.106455 
L 179.831324 240.106455 
L 179.831324 236.274059 
L 279.573265 236.274059 
L 279.573265 232.441663 
L 284.912702 232.441663 
L 284.912702 228.609267 
L 285.195761 228.609267 
L 285.195761 224.776871 
L 286.036958 224.776871 
L 286.036958 220.944475 
L 287.140394 220.944475 
L 287.140394 217.112079 
L 288.49156 217.112079 
L 288.49156 213.279683 
L 289.550856 213.279683 
L 289.550856 209.447287 
L 290.333149 209.447287 
L 290.333149 205.614891 
L 292.62023 205.614891 
L 292.62023 201.782495 
L 293.116765 201.782495 
L 293.116765 197.950099 
L 295.77612 197.950099 
L 295.77612 194.117703 
L 297.178157 194.117703 
L 297.178157 190.285307 
L 299.665889 190.285307 
L 299.665889 186.452911 
L 302.899079 186.452911 
L 302.899079 182.620515 
L 303.108512 182.620515 
L 303.108512 178.788119 
L 327.19795 178.788119 
L 327.19795 174.955723 
L 343.460578 174.955723 
L 343.460578 171.123327 
L 347.365744 171.123327 
L 347.365744 167.290931 
L 349.610773 167.290931 
L 349.610773 163.458535 
L 357.996607 163.458535 
L 357.996607 159.626139 
L 358.658656 159.626139 
L 358.658656 155.793743 
L 361.940799 155.793743 
L 361.940799 151.961347 
L 368.776749 151.961347 
L 368.776749 148.12895 
L 370.757369 148.12895 
L 370.757369 144.296554 
L 383.200649 144.296554 
L 383.200649 140.464158 
L 387.15503 140.464158 
L 387.15503 136.631762 
L 392.564387 136.631762 
L 392.564387 132.799366 
L 398.627488 132.799366 
L 398.627488 128.96697 
L 410.595693 128.96697 
L 410.595693 125.134574 
L 418.813895 125.134574 
L 418.813895 121.302178 
L 461.8 121.302178 
" style="fill:none;stroke:#f5deb3;stroke-linecap:square;stroke-width:1.5;"/>
   </g>
   <g id="line2d_21">
    <path clip-path="url(#pac713c6fd8)" d="M 393.763483 293.76 
L 393.85473 274.59802 
L 393.9003 274.59802 
L 393.991338 263.100832 
L 394.036804 263.100832 
L 394.127633 251.603644 
L 405.943933 251.603644 
L 405.981138 194.117703 
L 406.499583 194.117703 
L 406.57328 136.631762 
L 407.013557 136.631762 
L 407.12312 121.302178 
L 407.305278 121.302178 
L 407.305278 117.469782 
L 407.450604 117.469782 
L 407.559367 102.140198 
L 407.631765 102.140198 
L 407.704076 94.475406 
L 407.812377 94.475406 
L 407.884469 86.810614 
L 408.136105 86.810614 
L 408.136105 82.978218 
L 408.315197 82.978218 
L 408.315197 71.48103 
L 408.636212 71.48103 
L 408.742834 63.816238 
L 408.81381 63.816238 
L 408.81381 59.983842 
L 414.750138 59.983842 
L 414.750138 56.151446 
L 414.878413 56.151446 
L 414.878413 48.486653 
L 417.510304 48.486653 
L 417.510304 44.654257 
L 417.693922 44.654257 
L 417.693922 33.157069 
L 418.18082 33.157069 
L 418.18082 25.492277 
L 418.452962 25.492277 
L 418.452962 17.827485 
L 418.452962 17.827485 
L 460.8 17.827485 
L 460.8 17.827485 
" style="fill:none;stroke:#f5deb3;stroke-linecap:square;stroke-width:1.5;"/>
   </g>
   <g id="line2d_22">
    <path clip-path="url(#pac713c6fd8)" d="M 138.530955 293.76 
L 138.530955 289.927604 
L 138.530955 289.927604 
L 138.530955 286.095208 
L 147.715844 286.095208 
L 147.715844 282.262812 
L 150.487685 282.262812 
L 150.487685 278.430416 
L 158.104488 278.430416 
L 158.104488 274.59802 
L 158.104488 274.59802 
L 158.104488 270.765624 
L 158.104488 270.765624 
L 158.104488 266.933228 
L 164.857046 266.933228 
L 164.857046 263.100832 
L 179.831324 263.100832 
L 179.831324 259.268436 
L 187.580389 259.268436 
L 187.580389 255.43604 
L 189.016213 255.43604 
L 189.016213 251.603644 
L 195.718083 251.603644 
L 195.718083 247.771248 
L 198.201103 247.771248 
L 198.201103 243.938851 
L 246.384173 243.938851 
L 246.384173 240.106455 
L 256.337897 240.106455 
L 256.337897 236.274059 
L 284.055365 236.274059 
L 284.055365 232.441663 
L 285.195761 232.441663 
L 285.195761 228.609267 
L 286.036958 228.609267 
L 286.036958 224.776871 
L 287.684543 224.776871 
L 287.684543 220.944475 
L 289.023562 220.944475 
L 289.023562 217.112079 
L 290.073524 217.112079 
L 290.073524 213.279683 
L 290.333149 213.279683 
L 290.333149 209.447287 
L 290.84903 209.447287 
L 290.84903 205.614891 
L 291.105305 205.614891 
L 291.105305 201.782495 
L 293.609196 201.782495 
L 293.609196 197.950099 
L 294.097591 197.950099 
L 294.097591 194.117703 
L 295.77612 194.117703 
L 295.77612 190.285307 
L 296.012096 190.285307 
L 296.012096 186.452911 
L 297.866995 186.452911 
L 297.866995 182.620515 
L 301.626777 182.620515 
L 301.626777 178.788119 
L 340.185917 178.788119 
L 340.185917 174.955723 
L 346.4637 174.955723 
L 346.4637 171.123327 
L 348.839451 171.123327 
L 348.839451 167.290931 
L 349.992722 167.290931 
L 349.992722 163.458535 
L 353.23429 163.458535 
L 353.23429 159.626139 
L 355.965143 159.626139 
L 355.965143 155.793743 
L 364.082682 155.793743 
L 364.082682 151.961347 
L 369.053884 151.961347 
L 369.053884 148.12895 
L 369.877637 148.12895 
L 369.877637 144.296554 
L 371.358893 144.296554 
L 371.358893 140.464158 
L 373.385527 140.464158 
L 373.385527 136.631762 
L 373.385527 136.631762 
L 373.385527 132.799366 
L 374.278664 132.799366 
L 374.278664 128.96697 
L 374.657376 128.96697 
L 374.657376 125.134574 
L 408.742834 125.134574 
L 408.742834 121.302178 
L 461.8 121.302178 
" style="fill:none;stroke:#f5deb3;stroke-linecap:square;stroke-width:1.5;"/>
   </g>
   <g id="line2d_23">
    <path clip-path="url(#pac713c6fd8)" d="M 228.149659 293.76 
L 228.149659 289.927604 
L 249.54866 289.927604 
L 249.54866 286.095208 
L 252.06312 286.095208 
L 252.06312 282.262812 
L 253.522388 282.262812 
L 253.522388 278.430416 
L 261.17762 278.430416 
L 261.17762 274.59802 
L 261.17762 274.59802 
L 261.17762 270.765624 
L 267.582044 270.765624 
L 267.582044 266.933228 
L 267.960355 266.933228 
L 267.960355 263.100832 
L 269.450028 263.100832 
L 269.450028 259.268436 
L 269.816699 259.268436 
L 269.816699 255.43604 
L 270.181128 255.43604 
L 270.181128 251.603644 
L 280.19072 251.603644 
L 280.19072 247.771248 
L 286.866445 247.771248 
L 286.866445 243.938851 
L 291.360482 243.938851 
L 291.360482 240.106455 
L 302.266324 240.106455 
L 302.266324 236.274059 
L 461.8 236.274059 
" style="fill:none;stroke:#f5deb3;stroke-linecap:square;stroke-width:1.5;"/>
   </g>
   <g id="line2d_24">
    <path clip-path="url(#pac713c6fd8)" d="M 282.892717 293.76 
L 282.892717 289.927604 
L 282.892717 289.927604 
L 282.892717 286.095208 
L 283.185513 286.095208 
L 283.185513 282.262812 
L 294.582015 282.262812 
L 294.582015 278.430416 
L 294.582015 278.430416 
L 294.582015 274.59802 
L 294.822758 274.59802 
L 294.822758 270.765624 
L 305.364969 270.765624 
L 305.364969 266.933228 
L 305.364969 266.933228 
L 305.364969 263.100832 
L 305.565926 263.100832 
L 305.565926 259.268436 
L 305.766208 259.268436 
L 305.766208 255.43604 
L 314.492317 255.43604 
L 314.492317 251.603644 
L 314.492317 251.603644 
L 314.492317 247.771248 
L 314.664774 247.771248 
L 314.664774 243.938851 
L 314.836733 243.938851 
L 314.836733 240.106455 
L 329.389787 240.106455 
L 329.389787 236.274059 
L 391.102423 236.274059 
L 391.102423 232.441663 
L 397.006639 232.441663 
L 397.006639 228.609267 
L 397.093055 228.609267 
L 397.093055 224.776871 
L 401.341921 224.776871 
L 401.341921 220.944475 
L 401.981754 220.944475 
L 401.981754 217.112079 
L 402.57542 217.112079 
L 402.57542 213.279683 
L 402.850453 213.279683 
L 402.850453 209.447287 
L 406.683655 209.447287 
L 406.683655 205.614891 
L 407.232481 205.614891 
L 407.232481 201.782495 
L 407.920482 201.782495 
L 407.920482 197.950099 
L 409.343447 197.950099 
L 409.343447 194.117703 
L 409.903253 194.117703 
L 409.903253 190.285307 
L 410.836159 190.285307 
L 410.836159 186.452911 
L 418.059468 186.452911 
L 418.059468 182.620515 
L 419.854297 182.620515 
L 419.854297 178.788119 
L 421.482055 178.788119 
L 421.482055 174.955723 
L 422.052785 174.955723 
L 422.052785 171.123327 
L 426.431897 171.123327 
L 426.431897 167.290931 
L 429.567259 167.290931 
L 429.567259 163.458535 
L 429.817087 163.458535 
L 429.817087 159.626139 
L 432.878324 159.626139 
L 432.878324 155.793743 
L 433.091082 155.793743 
L 433.091082 151.961347 
L 433.60798 151.961347 
L 433.60798 148.12895 
L 435.85756 148.12895 
L 435.85756 144.296554 
L 437.017596 144.296554 
L 437.017596 140.464158 
L 437.413942 140.464158 
L 437.413942 136.631762 
L 438.263754 136.631762 
L 438.263754 132.799366 
L 438.458155 132.799366 
L 438.458155 128.96697 
L 438.716373 128.96697 
L 438.716373 125.134574 
L 441.73074 125.134574 
L 441.73074 121.302178 
L 461.8 121.302178 
" style="fill:none;stroke:#f5deb3;stroke-linecap:square;stroke-width:1.5;"/>
   </g>
   <g id="line2d_25">
    <path clip-path="url(#pac713c6fd8)" d="M 242.466454 293.76 
L 242.466454 289.927604 
L 252.553524 289.927604 
L 252.553524 286.095208 
L 254.946771 286.095208 
L 254.946771 282.262812 
L 260.753534 282.262812 
L 260.753534 278.430416 
L 262.016843 278.430416 
L 262.016843 274.59802 
L 269.450028 274.59802 
L 269.450028 270.765624 
L 269.816699 270.765624 
L 269.816699 266.933228 
L 270.543341 266.933228 
L 270.543341 263.100832 
L 270.543341 263.100832 
L 270.543341 259.268436 
L 271.616952 259.268436 
L 271.616952 255.43604 
L 274.049283 255.43604 
L 274.049283 251.603644 
L 275.395868 251.603644 
L 275.395868 247.771248 
L 288.758154 247.771248 
L 288.758154 243.938851 
L 289.550856 243.938851 
L 289.550856 240.106455 
L 290.591648 240.106455 
L 290.591648 236.274059 
L 461.8 236.274059 
" style="fill:none;stroke:#f5deb3;stroke-linecap:square;stroke-width:1.5;"/>
   </g>
   <g id="line2d_26">
    <path clip-path="url(#pac713c6fd8)" d="M 350.182782 293.76 
L 350.182782 289.927604 
L 350.561094 289.927604 
L 350.561094 286.095208 
L 350.843259 286.095208 
L 350.843259 282.262812 
L 353.504104 282.262812 
L 353.504104 278.430416 
L 355.70627 278.430416 
L 355.70627 274.59802 
L 356.051185 274.59802 
L 356.051185 270.765624 
L 356.222896 270.765624 
L 356.308567 259.268436 
L 358.740898 259.268436 
L 358.740898 255.43604 
L 359.31343 255.43604 
L 359.31343 251.603644 
L 361.550084 251.603644 
L 361.550084 247.771248 
L 362.018635 247.771248 
L 362.018635 243.938851 
L 363.326532 243.938851 
L 363.326532 240.106455 
L 363.554386 240.106455 
L 363.554386 236.274059 
L 409.02623 236.274059 
L 409.02623 232.441663 
L 409.448812 232.441663 
L 409.448812 228.609267 
L 409.868418 228.609267 
L 409.868418 224.776871 
L 410.388805 224.776871 
L 410.388805 220.944475 
L 412.392668 220.944475 
L 412.392668 217.112079 
L 413.320577 217.112079 
L 413.320577 213.279683 
L 415.03837 213.279683 
L 415.03837 205.614891 
L 415.166027 205.614891 
L 415.166027 201.782495 
L 415.579033 201.782495 
L 415.610685 190.285307 
L 415.800241 190.285307 
L 415.800241 186.452911 
L 416.708024 186.452911 
L 416.708024 182.620515 
L 417.233812 182.620515 
L 417.233812 178.788119 
L 417.785519 178.788119 
L 417.785519 174.955723 
L 435.223442 174.955723 
L 435.223442 171.123327 
L 440.116913 171.123327 
L 440.116913 167.290931 
L 440.30537 167.290931 
L 440.30537 163.458535 
L 441.17704 163.458535 
L 441.17704 159.626139 
L 454.423322 159.626139 
L 454.423322 155.793743 
L 461.8 155.793743 
L 461.8 155.793743 
" style="fill:none;stroke:#f5deb3;stroke-linecap:square;stroke-width:1.5;"/>
   </g>
   <g id="line2d_27">
    <path clip-path="url(#pac713c6fd8)" d="M 264.465839 293.76 
L 264.465839 289.927604 
L 277.360348 289.927604 
L 277.360348 286.095208 
L 278.001041 286.095208 
L 278.001041 282.262812 
L 280.19072 282.262812 
L 280.19072 278.430416 
L 286.866445 278.430416 
L 286.866445 274.59802 
L 286.866445 274.59802 
L 286.866445 270.765624 
L 287.684543 270.765624 
L 287.684543 266.933228 
L 291.867582 266.933228 
L 291.867582 263.100832 
L 302.266324 263.100832 
L 302.266324 259.268436 
L 305.364969 259.268436 
L 305.364969 255.43604 
L 310.196126 255.43604 
L 310.196126 251.603644 
L 313.094391 251.603644 
L 313.094391 247.771248 
L 314.836733 247.771248 
L 314.836733 243.938851 
L 325.067193 243.938851 
L 325.067193 240.106455 
L 340.855405 240.106455 
L 340.855405 236.274059 
L 343.989275 236.274059 
L 343.989275 232.441663 
L 345.032802 232.441663 
L 345.032802 228.609267 
L 345.032802 228.609267 
L 345.032802 224.776871 
L 346.058367 224.776871 
L 346.058367 220.944475 
L 347.465133 220.944475 
L 347.465133 217.112079 
L 348.936414 217.112079 
L 348.936414 213.279683 
L 349.802054 213.279683 
L 349.802054 209.447287 
L 350.087828 209.447287 
L 350.087828 205.614891 
L 350.466741 205.614891 
L 350.466741 201.782495 
L 351.958746 201.782495 
L 351.958746 197.950099 
L 351.958746 197.950099 
L 351.958746 194.117703 
L 353.23429 194.117703 
L 353.23429 190.285307 
L 354.394761 190.285307 
L 354.394761 186.452911 
L 355.097823 186.452911 
L 355.097823 182.620515 
L 361.314419 182.620515 
L 361.314419 178.788119 
L 461.8 178.788119 
" style="fill:none;stroke:#f5deb3;stroke-linecap:square;stroke-width:1.5;"/>
   </g>
   <g id="line2d_28">
    <path clip-path="url(#pac713c6fd8)" d="M 193.127074 293.76 
L 193.127074 289.927604 
L 215.947222 289.927604 
L 215.947222 286.095208 
L 231.71862 286.095208 
L 231.71862 282.262812 
L 231.71862 282.262812 
L 231.71862 278.430416 
L 233.088424 278.430416 
L 233.088424 274.59802 
L 239.501472 274.59802 
L 239.501472 270.765624 
L 244.736589 270.765624 
L 244.736589 266.933228 
L 244.736589 266.933228 
L 244.736589 263.100832 
L 245.290861 263.100832 
L 245.290861 259.268436 
L 255.414098 259.268436 
L 255.414098 255.43604 
L 255.877788 255.43604 
L 255.877788 251.603644 
L 255.877788 251.603644 
L 255.877788 247.771248 
L 264.864394 247.771248 
L 264.864394 243.938851 
L 278.318822 243.938851 
L 278.318822 240.106455 
L 285.757877 240.106455 
L 285.757877 236.274059 
L 372.217179 236.274059 
L 372.217179 232.441663 
L 372.739275 232.441663 
L 372.739275 228.609267 
L 373.192387 228.609267 
L 373.192387 224.776871 
L 373.513941 224.776871 
L 373.513941 220.944475 
L 373.897529 220.944475 
L 373.897529 217.112079 
L 375.593757 217.112079 
L 375.593757 213.279683 
L 375.840993 213.279683 
L 375.840993 209.447287 
L 376.271203 209.447287 
L 376.271203 205.614891 
L 377.001556 205.614891 
L 377.001556 201.782495 
L 377.423497 201.782495 
L 377.423497 197.950099 
L 378.847879 197.950099 
L 378.847879 194.117703 
L 379.198718 194.117703 
L 379.198718 190.285307 
L 383.581031 190.285307 
L 383.581031 186.452911 
L 385.970012 186.452911 
L 385.970012 182.620515 
L 388.116489 182.620515 
L 388.116489 178.788119 
L 393.763483 178.788119 
L 393.763483 174.955723 
L 400.6138 174.955723 
L 400.6138 171.123327 
L 402.378188 171.123327 
L 402.378188 167.290931 
L 403.319005 167.290931 
L 403.319005 163.458535 
L 405.682845 163.458535 
L 405.682845 159.626139 
L 407.920482 159.626139 
L 407.920482 155.793743 
L 409.37859 155.793743 
L 409.37859 151.961347 
L 410.146523 151.961347 
L 410.146523 148.12895 
L 410.215847 148.12895 
L 410.215847 144.296554 
L 410.698869 144.296554 
L 410.698869 140.464158 
L 412.158415 140.464158 
L 412.158415 136.631762 
L 413.713871 136.631762 
L 413.713871 132.799366 
L 415.989196 132.799366 
L 415.989196 128.96697 
L 422.42085 128.96697 
L 422.42085 125.134574 
L 425.016664 125.134574 
L 425.016664 121.302178 
L 461.8 121.302178 
" style="fill:none;stroke:#f5deb3;stroke-linecap:square;stroke-width:1.5;"/>
   </g>
   <g id="line2d_29">
    <path clip-path="url(#pac713c6fd8)" d="M 103.508369 293.76 
L 103.508369 289.927604 
L 103.508369 289.927604 
L 103.508369 286.095208 
L 103.508369 286.095208 
L 103.508369 282.262812 
L 103.508369 282.262812 
L 103.508369 278.430416 
L 103.508369 278.430416 
L 103.508369 274.59802 
L 103.508369 274.59802 
L 103.508369 270.765624 
L 103.508369 270.765624 
L 103.508369 266.933228 
L 103.508369 266.933228 
L 103.508369 263.100832 
L 103.508369 263.100832 
L 103.508369 259.268436 
L 103.508369 259.268436 
L 103.508369 255.43604 
L 103.508369 255.43604 
L 103.508369 251.603644 
L 103.508369 251.603644 
L 103.508369 247.771248 
L 103.508369 247.771248 
L 103.508369 243.938851 
L 103.508369 243.938851 
L 103.508369 240.106455 
L 103.508369 240.106455 
L 103.508369 236.274059 
L 131.51299 236.274059 
L 131.51299 232.441663 
L 131.51299 232.441663 
L 131.51299 228.609267 
L 131.51299 228.609267 
L 131.51299 224.776871 
L 135.125237 224.776871 
L 135.125237 220.944475 
L 135.125237 220.944475 
L 135.125237 217.112079 
L 135.125237 217.112079 
L 135.125237 213.279683 
L 135.125237 213.279683 
L 135.125237 209.447287 
L 135.125237 209.447287 
L 135.125237 205.614891 
L 135.125237 205.614891 
L 135.125237 201.782495 
L 203.990492 201.782495 
L 203.990492 197.950099 
L 203.990492 197.950099 
L 203.990492 194.117703 
L 203.990492 194.117703 
L 203.990492 190.285307 
L 205.083804 190.285307 
L 205.083804 186.452911 
L 205.083804 186.452911 
L 205.083804 182.620515 
L 205.083804 182.620515 
L 205.083804 178.788119 
L 361.706677 178.788119 
L 361.706677 174.955723 
L 361.706677 174.955723 
L 361.706677 171.123327 
L 361.706677 171.123327 
L 361.706677 167.290931 
L 382.762933 167.290931 
L 382.762933 163.458535 
L 382.762933 163.458535 
L 382.762933 159.626139 
L 382.762933 159.626139 
L 382.762933 155.793743 
L 383.635173 155.793743 
L 383.635173 151.961347 
L 383.635173 151.961347 
L 383.635173 148.12895 
L 383.635173 148.12895 
L 383.635173 144.296554 
L 461.8 144.296554 
" style="fill:none;stroke:#f5deb3;stroke-linecap:square;stroke-width:1.5;"/>
   </g>
   <g id="line2d_30">
    <path clip-path="url(#pac713c6fd8)" d="M 187.580389 293.76 
L 187.580389 289.927604 
L 193.127074 289.927604 
L 193.127074 286.095208 
L 219.453165 286.095208 
L 219.453165 282.262812 
L 220.29834 282.262812 
L 220.29834 278.430416 
L 225.132111 278.430416 
L 225.132111 274.59802 
L 228.149659 274.59802 
L 228.149659 270.765624 
L 229.602995 270.765624 
L 229.602995 266.933228 
L 229.602995 266.933228 
L 229.602995 263.100832 
L 230.316583 263.100832 
L 230.316583 259.268436 
L 230.316583 259.268436 
L 230.316583 255.43604 
L 230.316583 255.43604 
L 230.316583 251.603644 
L 233.088424 251.603644 
L 233.088424 247.771248 
L 233.761695 247.771248 
L 233.761695 243.938851 
L 234.427443 243.938851 
L 234.427443 240.106455 
L 234.427443 240.106455 
L 234.427443 236.274059 
L 234.427443 236.274059 
L 234.427443 232.441663 
L 235.085835 232.441663 
L 235.085835 228.609267 
L 235.737031 228.609267 
L 235.737031 224.776871 
L 235.737031 224.776871 
L 235.737031 220.944475 
L 236.381186 220.944475 
L 236.381186 217.112079 
L 237.648976 217.112079 
L 237.648976 213.279683 
L 238.272896 213.279683 
L 238.272896 209.447287 
L 238.89035 209.447287 
L 238.89035 205.614891 
L 241.885143 205.614891 
L 241.885143 201.782495 
L 243.042147 201.782495 
L 243.042147 197.950099 
L 244.177112 197.950099 
L 244.177112 194.117703 
L 244.177112 194.117703 
L 244.177112 190.285307 
L 245.290861 190.285307 
L 245.290861 186.452911 
L 245.840025 186.452911 
L 245.840025 182.620515 
L 251.070033 182.620515 
L 251.070033 178.788119 
L 261.598709 178.788119 
L 261.598709 174.955723 
L 261.598709 174.955723 
L 261.598709 171.123327 
L 261.598709 171.123327 
L 261.598709 167.290931 
L 261.598709 167.290931 
L 261.598709 163.458535 
L 261.598709 163.458535 
L 261.598709 159.626139 
L 261.598709 159.626139 
L 261.598709 155.793743 
L 261.598709 155.793743 
L 261.598709 151.961347 
L 261.598709 151.961347 
L 261.598709 148.12895 
L 261.598709 148.12895 
L 261.598709 144.296554 
L 261.598709 144.296554 
L 261.598709 140.464158 
L 261.598709 140.464158 
L 261.598709 136.631762 
L 261.598709 136.631762 
L 261.598709 132.799366 
L 261.598709 132.799366 
L 261.598709 128.96697 
L 261.598709 128.96697 
L 261.598709 125.134574 
L 261.598709 125.134574 
L 261.598709 121.302178 
L 261.598709 121.302178 
L 261.598709 121.302178 
L 460.8 121.302178 
" style="fill:none;stroke:#f5deb3;stroke-linecap:square;stroke-width:1.5;"/>
   </g>
   <g id="matplotlib.axis_1">
    <g id="xtick_1">
     <g id="line2d_31">
      <path clip-path="url(#pac713c6fd8)" d="M 62.208 293.76 
L 62.208 3.456 
" style="fill:none;stroke:#b0b0b0;stroke-linecap:square;stroke-width:0.8;"/>
     </g>
     <g id="line2d_32">
      <defs>
       <path d="M 0 0 
L 0 3.5 
" id="m62a2abf2f5" style="stroke:#000000;stroke-width:0.8;"/>
      </defs>
      <g>
       <use style="stroke:#000000;stroke-width:0.8;" x="62.208" xlink:href="#m62a2abf2f5" y="293.76"/>
      </g>
     </g>
     <g id="text_1">
      <!-- 0 -->
      <g transform="translate(55.8455 315.956875)scale(0.2 -0.2)">
       <defs>
        <path d="M 2034 4250 
Q 1547 4250 1301 3770 
Q 1056 3291 1056 2328 
Q 1056 1369 1301 889 
Q 1547 409 2034 409 
Q 2525 409 2770 889 
Q 3016 1369 3016 2328 
Q 3016 3291 2770 3770 
Q 2525 4250 2034 4250 
z
M 2034 4750 
Q 2819 4750 3233 4129 
Q 3647 3509 3647 2328 
Q 3647 1150 3233 529 
Q 2819 -91 2034 -91 
Q 1250 -91 836 529 
Q 422 1150 422 2328 
Q 422 3509 836 4129 
Q 1250 4750 2034 4750 
z
" id="DejaVuSans-30" transform="scale(0.015625)"/>
       </defs>
       <use xlink:href="#DejaVuSans-30"/>
      </g>
     </g>
    </g>
    <g id="xtick_2">
     <g id="line2d_33">
      <path clip-path="url(#pac713c6fd8)" d="M 336.601715 293.76 
L 336.601715 3.456 
" style="fill:none;stroke:#b0b0b0;stroke-linecap:square;stroke-width:0.8;"/>
     </g>
     <g id="line2d_34">
      <g>
       <use style="stroke:#000000;stroke-width:0.8;" x="336.601715" xlink:href="#m62a2abf2f5" y="293.76"/>
      </g>
     </g>
     <g id="text_2">
      <!-- 2 -->
      <g transform="translate(330.239215 315.956875)scale(0.2 -0.2)">
       <defs>
        <path d="M 1228 531 
L 3431 531 
L 3431 0 
L 469 0 
L 469 531 
Q 828 903 1448 1529 
Q 2069 2156 2228 2338 
Q 2531 2678 2651 2914 
Q 2772 3150 2772 3378 
Q 2772 3750 2511 3984 
Q 2250 4219 1831 4219 
Q 1534 4219 1204 4116 
Q 875 4013 500 3803 
L 500 4441 
Q 881 4594 1212 4672 
Q 1544 4750 1819 4750 
Q 2544 4750 2975 4387 
Q 3406 4025 3406 3419 
Q 3406 3131 3298 2873 
Q 3191 2616 2906 2266 
Q 2828 2175 2409 1742 
Q 1991 1309 1228 531 
z
" id="DejaVuSans-32" transform="scale(0.015625)"/>
       </defs>
       <use xlink:href="#DejaVuSans-32"/>
      </g>
     </g>
    </g>
    <g id="xtick_3">
     <g id="line2d_35">
      <path clip-path="url(#pac713c6fd8)" d="M 103.508369 293.76 
L 103.508369 3.456 
" style="fill:none;stroke:#b0b0b0;stroke-linecap:square;stroke-width:0.8;"/>
     </g>
     <g id="line2d_36">
      <defs>
       <path d="M 0 0 
L 0 2 
" id="mcb97bdbd65" style="stroke:#000000;stroke-width:0.6;"/>
      </defs>
      <g>
       <use style="stroke:#000000;stroke-width:0.6;" x="103.508369" xlink:href="#mcb97bdbd65" y="293.76"/>
      </g>
     </g>
    </g>
    <g id="xtick_4">
     <g id="line2d_37">
      <path clip-path="url(#pac713c6fd8)" d="M 127.667537 293.76 
L 127.667537 3.456 
" style="fill:none;stroke:#b0b0b0;stroke-linecap:square;stroke-width:0.8;"/>
     </g>
     <g id="line2d_38">
      <g>
       <use style="stroke:#000000;stroke-width:0.6;" x="127.667537" xlink:href="#mcb97bdbd65" y="293.76"/>
      </g>
     </g>
    </g>
    <g id="xtick_5">
     <g id="line2d_39">
      <path clip-path="url(#pac713c6fd8)" d="M 144.808739 293.76 
L 144.808739 3.456 
" style="fill:none;stroke:#b0b0b0;stroke-linecap:square;stroke-width:0.8;"/>
     </g>
     <g id="line2d_40">
      <g>
       <use style="stroke:#000000;stroke-width:0.6;" x="144.808739" xlink:href="#mcb97bdbd65" y="293.76"/>
      </g>
     </g>
    </g>
    <g id="xtick_6">
     <g id="line2d_41">
      <path clip-path="url(#pac713c6fd8)" d="M 158.104488 293.76 
L 158.104488 3.456 
" style="fill:none;stroke:#b0b0b0;stroke-linecap:square;stroke-width:0.8;"/>
     </g>
     <g id="line2d_42">
      <g>
       <use style="stroke:#000000;stroke-width:0.6;" x="158.104488" xlink:href="#mcb97bdbd65" y="293.76"/>
      </g>
     </g>
    </g>
    <g id="xtick_7">
     <g id="line2d_43">
      <path clip-path="url(#pac713c6fd8)" d="M 168.967906 293.76 
L 168.967906 3.456 
" style="fill:none;stroke:#b0b0b0;stroke-linecap:square;stroke-width:0.8;"/>
     </g>
     <g id="line2d_44">
      <g>
       <use style="stroke:#000000;stroke-width:0.6;" x="168.967906" xlink:href="#mcb97bdbd65" y="293.76"/>
      </g>
     </g>
    </g>
    <g id="xtick_8">
     <g id="line2d_45">
      <path clip-path="url(#pac713c6fd8)" d="M 178.152795 293.76 
L 178.152795 3.456 
" style="fill:none;stroke:#b0b0b0;stroke-linecap:square;stroke-width:0.8;"/>
     </g>
     <g id="line2d_46">
      <g>
       <use style="stroke:#000000;stroke-width:0.6;" x="178.152795" xlink:href="#mcb97bdbd65" y="293.76"/>
      </g>
     </g>
    </g>
    <g id="xtick_9">
     <g id="line2d_47">
      <path clip-path="url(#pac713c6fd8)" d="M 186.109108 293.76 
L 186.109108 3.456 
" style="fill:none;stroke:#b0b0b0;stroke-linecap:square;stroke-width:0.8;"/>
     </g>
     <g id="line2d_48">
      <g>
       <use style="stroke:#000000;stroke-width:0.6;" x="186.109108" xlink:href="#mcb97bdbd65" y="293.76"/>
      </g>
     </g>
    </g>
    <g id="xtick_10">
     <g id="line2d_49">
      <path clip-path="url(#pac713c6fd8)" d="M 193.127074 293.76 
L 193.127074 3.456 
" style="fill:none;stroke:#b0b0b0;stroke-linecap:square;stroke-width:0.8;"/>
     </g>
     <g id="line2d_50">
      <g>
       <use style="stroke:#000000;stroke-width:0.6;" x="193.127074" xlink:href="#mcb97bdbd65" y="293.76"/>
      </g>
     </g>
    </g>
    <g id="xtick_11">
     <g id="line2d_51">
      <path clip-path="url(#pac713c6fd8)" d="M 240.705227 293.76 
L 240.705227 3.456 
" style="fill:none;stroke:#b0b0b0;stroke-linecap:square;stroke-width:0.8;"/>
     </g>
     <g id="line2d_52">
      <g>
       <use style="stroke:#000000;stroke-width:0.6;" x="240.705227" xlink:href="#mcb97bdbd65" y="293.76"/>
      </g>
     </g>
    </g>
    <g id="xtick_12">
     <g id="line2d_53">
      <path clip-path="url(#pac713c6fd8)" d="M 264.864394 293.76 
L 264.864394 3.456 
" style="fill:none;stroke:#b0b0b0;stroke-linecap:square;stroke-width:0.8;"/>
     </g>
     <g id="line2d_54">
      <g>
       <use style="stroke:#000000;stroke-width:0.6;" x="264.864394" xlink:href="#mcb97bdbd65" y="293.76"/>
      </g>
     </g>
    </g>
    <g id="xtick_13">
     <g id="line2d_55">
      <path clip-path="url(#pac713c6fd8)" d="M 282.005596 293.76 
L 282.005596 3.456 
" style="fill:none;stroke:#b0b0b0;stroke-linecap:square;stroke-width:0.8;"/>
     </g>
     <g id="line2d_56">
      <g>
       <use style="stroke:#000000;stroke-width:0.6;" x="282.005596" xlink:href="#mcb97bdbd65" y="293.76"/>
      </g>
     </g>
    </g>
    <g id="xtick_14">
     <g id="line2d_57">
      <path clip-path="url(#pac713c6fd8)" d="M 295.301346 293.76 
L 295.301346 3.456 
" style="fill:none;stroke:#b0b0b0;stroke-linecap:square;stroke-width:0.8;"/>
     </g>
     <g id="line2d_58">
      <g>
       <use style="stroke:#000000;stroke-width:0.6;" x="295.301346" xlink:href="#mcb97bdbd65" y="293.76"/>
      </g>
     </g>
    </g>
    <g id="xtick_15">
     <g id="line2d_59">
      <path clip-path="url(#pac713c6fd8)" d="M 306.164764 293.76 
L 306.164764 3.456 
" style="fill:none;stroke:#b0b0b0;stroke-linecap:square;stroke-width:0.8;"/>
     </g>
     <g id="line2d_60">
      <g>
       <use style="stroke:#000000;stroke-width:0.6;" x="306.164764" xlink:href="#mcb97bdbd65" y="293.76"/>
      </g>
     </g>
    </g>
    <g id="xtick_16">
     <g id="line2d_61">
      <path clip-path="url(#pac713c6fd8)" d="M 315.349653 293.76 
L 315.349653 3.456 
" style="fill:none;stroke:#b0b0b0;stroke-linecap:square;stroke-width:0.8;"/>
     </g>
     <g id="line2d_62">
      <g>
       <use style="stroke:#000000;stroke-width:0.6;" x="315.349653" xlink:href="#mcb97bdbd65" y="293.76"/>
      </g>
     </g>
    </g>
    <g id="xtick_17">
     <g id="line2d_63">
      <path clip-path="url(#pac713c6fd8)" d="M 323.305966 293.76 
L 323.305966 3.456 
" style="fill:none;stroke:#b0b0b0;stroke-linecap:square;stroke-width:0.8;"/>
     </g>
     <g id="line2d_64">
      <g>
       <use style="stroke:#000000;stroke-width:0.6;" x="323.305966" xlink:href="#mcb97bdbd65" y="293.76"/>
      </g>
     </g>
    </g>
    <g id="xtick_18">
     <g id="line2d_65">
      <path clip-path="url(#pac713c6fd8)" d="M 330.323931 293.76 
L 330.323931 3.456 
" style="fill:none;stroke:#b0b0b0;stroke-linecap:square;stroke-width:0.8;"/>
     </g>
     <g id="line2d_66">
      <g>
       <use style="stroke:#000000;stroke-width:0.6;" x="330.323931" xlink:href="#mcb97bdbd65" y="293.76"/>
      </g>
     </g>
    </g>
    <g id="xtick_19">
     <g id="line2d_67">
      <path clip-path="url(#pac713c6fd8)" d="M 377.902084 293.76 
L 377.902084 3.456 
" style="fill:none;stroke:#b0b0b0;stroke-linecap:square;stroke-width:0.8;"/>
     </g>
     <g id="line2d_68">
      <g>
       <use style="stroke:#000000;stroke-width:0.6;" x="377.902084" xlink:href="#mcb97bdbd65" y="293.76"/>
      </g>
     </g>
    </g>
    <g id="xtick_20">
     <g id="line2d_69">
      <path clip-path="url(#pac713c6fd8)" d="M 402.061252 293.76 
L 402.061252 3.456 
" style="fill:none;stroke:#b0b0b0;stroke-linecap:square;stroke-width:0.8;"/>
     </g>
     <g id="line2d_70">
      <g>
       <use style="stroke:#000000;stroke-width:0.6;" x="402.061252" xlink:href="#mcb97bdbd65" y="293.76"/>
      </g>
     </g>
    </g>
    <g id="xtick_21">
     <g id="line2d_71">
      <path clip-path="url(#pac713c6fd8)" d="M 419.202454 293.76 
L 419.202454 3.456 
" style="fill:none;stroke:#b0b0b0;stroke-linecap:square;stroke-width:0.8;"/>
     </g>
     <g id="line2d_72">
      <g>
       <use style="stroke:#000000;stroke-width:0.6;" x="419.202454" xlink:href="#mcb97bdbd65" y="293.76"/>
      </g>
     </g>
    </g>
    <g id="xtick_22">
     <g id="line2d_73">
      <path clip-path="url(#pac713c6fd8)" d="M 432.498203 293.76 
L 432.498203 3.456 
" style="fill:none;stroke:#b0b0b0;stroke-linecap:square;stroke-width:0.8;"/>
     </g>
     <g id="line2d_74">
      <g>
       <use style="stroke:#000000;stroke-width:0.6;" x="432.498203" xlink:href="#mcb97bdbd65" y="293.76"/>
      </g>
     </g>
    </g>
    <g id="xtick_23">
     <g id="line2d_75">
      <path clip-path="url(#pac713c6fd8)" d="M 443.361621 293.76 
L 443.361621 3.456 
" style="fill:none;stroke:#b0b0b0;stroke-linecap:square;stroke-width:0.8;"/>
     </g>
     <g id="line2d_76">
      <g>
       <use style="stroke:#000000;stroke-width:0.6;" x="443.361621" xlink:href="#mcb97bdbd65" y="293.76"/>
      </g>
     </g>
    </g>
    <g id="xtick_24">
     <g id="line2d_77">
      <path clip-path="url(#pac713c6fd8)" d="M 452.54651 293.76 
L 452.54651 3.456 
" style="fill:none;stroke:#b0b0b0;stroke-linecap:square;stroke-width:0.8;"/>
     </g>
     <g id="line2d_78">
      <g>
       <use style="stroke:#000000;stroke-width:0.6;" x="452.54651" xlink:href="#mcb97bdbd65" y="293.76"/>
      </g>
     </g>
    </g>
    <g id="xtick_25">
     <g id="line2d_79">
      <path clip-path="url(#pac713c6fd8)" d="M 460.502823 293.76 
L 460.502823 3.456 
" style="fill:none;stroke:#b0b0b0;stroke-linecap:square;stroke-width:0.8;"/>
     </g>
     <g id="line2d_80">
      <g>
       <use style="stroke:#000000;stroke-width:0.6;" x="460.502823" xlink:href="#mcb97bdbd65" y="293.76"/>
      </g>
     </g>
    </g>
    <g id="text_3">
     <!-- log10 of FEvals / DIM -->
     <g transform="translate(156.430563 339.313125)scale(0.2 -0.2)">
      <defs>
       <path d="M 603 4863 
L 1178 4863 
L 1178 0 
L 603 0 
L 603 4863 
z
" id="DejaVuSans-6c" transform="scale(0.015625)"/>
       <path d="M 1959 3097 
Q 1497 3097 1228 2736 
Q 959 2375 959 1747 
Q 959 1119 1226 758 
Q 1494 397 1959 397 
Q 2419 397 2687 759 
Q 2956 1122 2956 1747 
Q 2956 2369 2687 2733 
Q 2419 3097 1959 3097 
z
M 1959 3584 
Q 2709 3584 3137 3096 
Q 3566 2609 3566 1747 
Q 3566 888 3137 398 
Q 2709 -91 1959 -91 
Q 1206 -91 779 398 
Q 353 888 353 1747 
Q 353 2609 779 3096 
Q 1206 3584 1959 3584 
z
" id="DejaVuSans-6f" transform="scale(0.015625)"/>
       <path d="M 2906 1791 
Q 2906 2416 2648 2759 
Q 2391 3103 1925 3103 
Q 1463 3103 1205 2759 
Q 947 2416 947 1791 
Q 947 1169 1205 825 
Q 1463 481 1925 481 
Q 2391 481 2648 825 
Q 2906 1169 2906 1791 
z
M 3481 434 
Q 3481 -459 3084 -895 
Q 2688 -1331 1869 -1331 
Q 1566 -1331 1297 -1286 
Q 1028 -1241 775 -1147 
L 775 -588 
Q 1028 -725 1275 -790 
Q 1522 -856 1778 -856 
Q 2344 -856 2625 -561 
Q 2906 -266 2906 331 
L 2906 616 
Q 2728 306 2450 153 
Q 2172 0 1784 0 
Q 1141 0 747 490 
Q 353 981 353 1791 
Q 353 2603 747 3093 
Q 1141 3584 1784 3584 
Q 2172 3584 2450 3431 
Q 2728 3278 2906 2969 
L 2906 3500 
L 3481 3500 
L 3481 434 
z
" id="DejaVuSans-67" transform="scale(0.015625)"/>
       <path d="M 794 531 
L 1825 531 
L 1825 4091 
L 703 3866 
L 703 4441 
L 1819 4666 
L 2450 4666 
L 2450 531 
L 3481 531 
L 3481 0 
L 794 0 
L 794 531 
z
" id="DejaVuSans-31" transform="scale(0.015625)"/>
       <path id="DejaVuSans-20" transform="scale(0.015625)"/>
       <path d="M 2375 4863 
L 2375 4384 
L 1825 4384 
Q 1516 4384 1395 4259 
Q 1275 4134 1275 3809 
L 1275 3500 
L 2222 3500 
L 2222 3053 
L 1275 3053 
L 1275 0 
L 697 0 
L 697 3053 
L 147 3053 
L 147 3500 
L 697 3500 
L 697 3744 
Q 697 4328 969 4595 
Q 1241 4863 1831 4863 
L 2375 4863 
z
" id="DejaVuSans-66" transform="scale(0.015625)"/>
       <path d="M 628 4666 
L 3309 4666 
L 3309 4134 
L 1259 4134 
L 1259 2759 
L 3109 2759 
L 3109 2228 
L 1259 2228 
L 1259 0 
L 628 0 
L 628 4666 
z
" id="DejaVuSans-46" transform="scale(0.015625)"/>
       <path d="M 628 4666 
L 3578 4666 
L 3578 4134 
L 1259 4134 
L 1259 2753 
L 3481 2753 
L 3481 2222 
L 1259 2222 
L 1259 531 
L 3634 531 
L 3634 0 
L 628 0 
L 628 4666 
z
" id="DejaVuSans-45" transform="scale(0.015625)"/>
       <path d="M 191 3500 
L 800 3500 
L 1894 563 
L 2988 3500 
L 3597 3500 
L 2284 0 
L 1503 0 
L 191 3500 
z
" id="DejaVuSans-76" transform="scale(0.015625)"/>
       <path d="M 2194 1759 
Q 1497 1759 1228 1600 
Q 959 1441 959 1056 
Q 959 750 1161 570 
Q 1363 391 1709 391 
Q 2188 391 2477 730 
Q 2766 1069 2766 1631 
L 2766 1759 
L 2194 1759 
z
M 3341 1997 
L 3341 0 
L 2766 0 
L 2766 531 
Q 2569 213 2275 61 
Q 1981 -91 1556 -91 
Q 1019 -91 701 211 
Q 384 513 384 1019 
Q 384 1609 779 1909 
Q 1175 2209 1959 2209 
L 2766 2209 
L 2766 2266 
Q 2766 2663 2505 2880 
Q 2244 3097 1772 3097 
Q 1472 3097 1187 3025 
Q 903 2953 641 2809 
L 641 3341 
Q 956 3463 1253 3523 
Q 1550 3584 1831 3584 
Q 2591 3584 2966 3190 
Q 3341 2797 3341 1997 
z
" id="DejaVuSans-61" transform="scale(0.015625)"/>
       <path d="M 2834 3397 
L 2834 2853 
Q 2591 2978 2328 3040 
Q 2066 3103 1784 3103 
Q 1356 3103 1142 2972 
Q 928 2841 928 2578 
Q 928 2378 1081 2264 
Q 1234 2150 1697 2047 
L 1894 2003 
Q 2506 1872 2764 1633 
Q 3022 1394 3022 966 
Q 3022 478 2636 193 
Q 2250 -91 1575 -91 
Q 1294 -91 989 -36 
Q 684 19 347 128 
L 347 722 
Q 666 556 975 473 
Q 1284 391 1588 391 
Q 1994 391 2212 530 
Q 2431 669 2431 922 
Q 2431 1156 2273 1281 
Q 2116 1406 1581 1522 
L 1381 1569 
Q 847 1681 609 1914 
Q 372 2147 372 2553 
Q 372 3047 722 3315 
Q 1072 3584 1716 3584 
Q 2034 3584 2315 3537 
Q 2597 3491 2834 3397 
z
" id="DejaVuSans-73" transform="scale(0.015625)"/>
       <path d="M 1625 4666 
L 2156 4666 
L 531 -594 
L 0 -594 
L 1625 4666 
z
" id="DejaVuSans-2f" transform="scale(0.015625)"/>
       <path d="M 1259 4147 
L 1259 519 
L 2022 519 
Q 2988 519 3436 956 
Q 3884 1394 3884 2338 
Q 3884 3275 3436 3711 
Q 2988 4147 2022 4147 
L 1259 4147 
z
M 628 4666 
L 1925 4666 
Q 3281 4666 3915 4102 
Q 4550 3538 4550 2338 
Q 4550 1131 3912 565 
Q 3275 0 1925 0 
L 628 0 
L 628 4666 
z
" id="DejaVuSans-44" transform="scale(0.015625)"/>
       <path d="M 628 4666 
L 1259 4666 
L 1259 0 
L 628 0 
L 628 4666 
z
" id="DejaVuSans-49" transform="scale(0.015625)"/>
       <path d="M 628 4666 
L 1569 4666 
L 2759 1491 
L 3956 4666 
L 4897 4666 
L 4897 0 
L 4281 0 
L 4281 4097 
L 3078 897 
L 2444 897 
L 1241 4097 
L 1241 0 
L 628 0 
L 628 4666 
z
" id="DejaVuSans-4d" transform="scale(0.015625)"/>
      </defs>
      <use xlink:href="#DejaVuSans-6c"/>
      <use x="27.783203" xlink:href="#DejaVuSans-6f"/>
      <use x="88.964844" xlink:href="#DejaVuSans-67"/>
      <use x="152.441406" xlink:href="#DejaVuSans-31"/>
      <use x="216.064453" xlink:href="#DejaVuSans-30"/>
      <use x="279.6875" xlink:href="#DejaVuSans-20"/>
      <use x="311.474609" xlink:href="#DejaVuSans-6f"/>
      <use x="372.65625" xlink:href="#DejaVuSans-66"/>
      <use x="407.861328" xlink:href="#DejaVuSans-20"/>
      <use x="439.648438" xlink:href="#DejaVuSans-46"/>
      <use x="497.167969" xlink:href="#DejaVuSans-45"/>
      <use x="560.351562" xlink:href="#DejaVuSans-76"/>
      <use x="619.53125" xlink:href="#DejaVuSans-61"/>
      <use x="680.810547" xlink:href="#DejaVuSans-6c"/>
      <use x="708.59375" xlink:href="#DejaVuSans-73"/>
      <use x="760.693359" xlink:href="#DejaVuSans-20"/>
      <use x="792.480469" xlink:href="#DejaVuSans-2f"/>
      <use x="826.171875" xlink:href="#DejaVuSans-20"/>
      <use x="857.958984" xlink:href="#DejaVuSans-44"/>
      <use x="934.960938" xlink:href="#DejaVuSans-49"/>
      <use x="964.453125" xlink:href="#DejaVuSans-4d"/>
     </g>
    </g>
   </g>
   <g id="matplotlib.axis_2">
    <g id="ytick_1">
     <g id="line2d_81">
      <path clip-path="url(#pac713c6fd8)" d="M 62.208 293.76 
L 460.8 293.76 
" style="fill:none;stroke:#b0b0b0;stroke-linecap:square;stroke-width:0.8;"/>
     </g>
     <g id="line2d_82">
      <defs>
       <path d="M 0 0 
L -3.5 0 
" id="m4bc85d7b63" style="stroke:#000000;stroke-width:0.8;"/>
      </defs>
      <g>
       <use style="stroke:#000000;stroke-width:0.8;" x="62.208" xlink:href="#m4bc85d7b63" y="293.76"/>
      </g>
     </g>
     <g id="text_4">
      <!-- 0.0 -->
      <g transform="translate(29.763 299.83875)scale(0.16 -0.16)">
       <defs>
        <path d="M 684 794 
L 1344 794 
L 1344 0 
L 684 0 
L 684 794 
z
" id="DejaVuSans-2e" transform="scale(0.015625)"/>
       </defs>
       <use xlink:href="#DejaVuSans-30"/>
       <use x="63.623047" xlink:href="#DejaVuSans-2e"/>
       <use x="95.410156" xlink:href="#DejaVuSans-30"/>
      </g>
     </g>
    </g>
    <g id="ytick_2">
     <g id="line2d_83">
      <path clip-path="url(#pac713c6fd8)" d="M 62.208 236.274059 
L 460.8 236.274059 
" style="fill:none;stroke:#b0b0b0;stroke-linecap:square;stroke-width:0.8;"/>
     </g>
     <g id="line2d_84">
      <g>
       <use style="stroke:#000000;stroke-width:0.8;" x="62.208" xlink:href="#m4bc85d7b63" y="236.274059"/>
      </g>
     </g>
     <g id="text_5">
      <!-- 0.2 -->
      <g transform="translate(29.763 242.352809)scale(0.16 -0.16)">
       <use xlink:href="#DejaVuSans-30"/>
       <use x="63.623047" xlink:href="#DejaVuSans-2e"/>
       <use x="95.410156" xlink:href="#DejaVuSans-32"/>
      </g>
     </g>
    </g>
    <g id="ytick_3">
     <g id="line2d_85">
      <path clip-path="url(#pac713c6fd8)" d="M 62.208 178.788119 
L 460.8 178.788119 
" style="fill:none;stroke:#b0b0b0;stroke-linecap:square;stroke-width:0.8;"/>
     </g>
     <g id="line2d_86">
      <g>
       <use style="stroke:#000000;stroke-width:0.8;" x="62.208" xlink:href="#m4bc85d7b63" y="178.788119"/>
      </g>
     </g>
     <g id="text_6">
      <!-- 0.4 -->
      <g transform="translate(29.763 184.866869)scale(0.16 -0.16)">
       <defs>
        <path d="M 2419 4116 
L 825 1625 
L 2419 1625 
L 2419 4116 
z
M 2253 4666 
L 3047 4666 
L 3047 1625 
L 3713 1625 
L 3713 1100 
L 3047 1100 
L 3047 0 
L 2419 0 
L 2419 1100 
L 313 1100 
L 313 1709 
L 2253 4666 
z
" id="DejaVuSans-34" transform="scale(0.015625)"/>
       </defs>
       <use xlink:href="#DejaVuSans-30"/>
       <use x="63.623047" xlink:href="#DejaVuSans-2e"/>
       <use x="95.410156" xlink:href="#DejaVuSans-34"/>
      </g>
     </g>
    </g>
    <g id="ytick_4">
     <g id="line2d_87">
      <path clip-path="url(#pac713c6fd8)" d="M 62.208 121.302178 
L 460.8 121.302178 
" style="fill:none;stroke:#b0b0b0;stroke-linecap:square;stroke-width:0.8;"/>
     </g>
     <g id="line2d_88">
      <g>
       <use style="stroke:#000000;stroke-width:0.8;" x="62.208" xlink:href="#m4bc85d7b63" y="121.302178"/>
      </g>
     </g>
     <g id="text_7">
      <!-- 0.6 -->
      <g transform="translate(29.763 127.380928)scale(0.16 -0.16)">
       <defs>
        <path d="M 2113 2584 
Q 1688 2584 1439 2293 
Q 1191 2003 1191 1497 
Q 1191 994 1439 701 
Q 1688 409 2113 409 
Q 2538 409 2786 701 
Q 3034 994 3034 1497 
Q 3034 2003 2786 2293 
Q 2538 2584 2113 2584 
z
M 3366 4563 
L 3366 3988 
Q 3128 4100 2886 4159 
Q 2644 4219 2406 4219 
Q 1781 4219 1451 3797 
Q 1122 3375 1075 2522 
Q 1259 2794 1537 2939 
Q 1816 3084 2150 3084 
Q 2853 3084 3261 2657 
Q 3669 2231 3669 1497 
Q 3669 778 3244 343 
Q 2819 -91 2113 -91 
Q 1303 -91 875 529 
Q 447 1150 447 2328 
Q 447 3434 972 4092 
Q 1497 4750 2381 4750 
Q 2619 4750 2861 4703 
Q 3103 4656 3366 4563 
z
" id="DejaVuSans-36" transform="scale(0.015625)"/>
       </defs>
       <use xlink:href="#DejaVuSans-30"/>
       <use x="63.623047" xlink:href="#DejaVuSans-2e"/>
       <use x="95.410156" xlink:href="#DejaVuSans-36"/>
      </g>
     </g>
    </g>
    <g id="ytick_5">
     <g id="line2d_89">
      <path clip-path="url(#pac713c6fd8)" d="M 62.208 63.816238 
L 460.8 63.816238 
" style="fill:none;stroke:#b0b0b0;stroke-linecap:square;stroke-width:0.8;"/>
     </g>
     <g id="line2d_90">
      <g>
       <use style="stroke:#000000;stroke-width:0.8;" x="62.208" xlink:href="#m4bc85d7b63" y="63.816238"/>
      </g>
     </g>
     <g id="text_8">
      <!-- 0.8 -->
      <g transform="translate(29.763 69.894988)scale(0.16 -0.16)">
       <defs>
        <path d="M 2034 2216 
Q 1584 2216 1326 1975 
Q 1069 1734 1069 1313 
Q 1069 891 1326 650 
Q 1584 409 2034 409 
Q 2484 409 2743 651 
Q 3003 894 3003 1313 
Q 3003 1734 2745 1975 
Q 2488 2216 2034 2216 
z
M 1403 2484 
Q 997 2584 770 2862 
Q 544 3141 544 3541 
Q 544 4100 942 4425 
Q 1341 4750 2034 4750 
Q 2731 4750 3128 4425 
Q 3525 4100 3525 3541 
Q 3525 3141 3298 2862 
Q 3072 2584 2669 2484 
Q 3125 2378 3379 2068 
Q 3634 1759 3634 1313 
Q 3634 634 3220 271 
Q 2806 -91 2034 -91 
Q 1263 -91 848 271 
Q 434 634 434 1313 
Q 434 1759 690 2068 
Q 947 2378 1403 2484 
z
M 1172 3481 
Q 1172 3119 1398 2916 
Q 1625 2713 2034 2713 
Q 2441 2713 2670 2916 
Q 2900 3119 2900 3481 
Q 2900 3844 2670 4047 
Q 2441 4250 2034 4250 
Q 1625 4250 1398 4047 
Q 1172 3844 1172 3481 
z
" id="DejaVuSans-38" transform="scale(0.015625)"/>
       </defs>
       <use xlink:href="#DejaVuSans-30"/>
       <use x="63.623047" xlink:href="#DejaVuSans-2e"/>
       <use x="95.410156" xlink:href="#DejaVuSans-38"/>
      </g>
     </g>
    </g>
    <g id="ytick_6">
     <g id="line2d_91">
      <path clip-path="url(#pac713c6fd8)" d="M 62.208 6.330297 
L 460.8 6.330297 
" style="fill:none;stroke:#b0b0b0;stroke-linecap:square;stroke-width:0.8;"/>
     </g>
     <g id="line2d_92">
      <g>
       <use style="stroke:#000000;stroke-width:0.8;" x="62.208" xlink:href="#m4bc85d7b63" y="6.330297"/>
      </g>
     </g>
     <g id="text_9">
      <!-- 1.0 -->
      <g transform="translate(29.763 12.409047)scale(0.16 -0.16)">
       <use xlink:href="#DejaVuSans-31"/>
       <use x="63.623047" xlink:href="#DejaVuSans-2e"/>
       <use x="95.410156" xlink:href="#DejaVuSans-30"/>
      </g>
     </g>
    </g>
    <g id="text_10">
     <!-- proportion of trials -->
     <g transform="translate(21.603625 241.61425)rotate(-90)scale(0.2 -0.2)">
      <defs>
       <path d="M 1159 525 
L 1159 -1331 
L 581 -1331 
L 581 3500 
L 1159 3500 
L 1159 2969 
Q 1341 3281 1617 3432 
Q 1894 3584 2278 3584 
Q 2916 3584 3314 3078 
Q 3713 2572 3713 1747 
Q 3713 922 3314 415 
Q 2916 -91 2278 -91 
Q 1894 -91 1617 61 
Q 1341 213 1159 525 
z
M 3116 1747 
Q 3116 2381 2855 2742 
Q 2594 3103 2138 3103 
Q 1681 3103 1420 2742 
Q 1159 2381 1159 1747 
Q 1159 1113 1420 752 
Q 1681 391 2138 391 
Q 2594 391 2855 752 
Q 3116 1113 3116 1747 
z
" id="DejaVuSans-70" transform="scale(0.015625)"/>
       <path d="M 2631 2963 
Q 2534 3019 2420 3045 
Q 2306 3072 2169 3072 
Q 1681 3072 1420 2755 
Q 1159 2438 1159 1844 
L 1159 0 
L 581 0 
L 581 3500 
L 1159 3500 
L 1159 2956 
Q 1341 3275 1631 3429 
Q 1922 3584 2338 3584 
Q 2397 3584 2469 3576 
Q 2541 3569 2628 3553 
L 2631 2963 
z
" id="DejaVuSans-72" transform="scale(0.015625)"/>
       <path d="M 1172 4494 
L 1172 3500 
L 2356 3500 
L 2356 3053 
L 1172 3053 
L 1172 1153 
Q 1172 725 1289 603 
Q 1406 481 1766 481 
L 2356 481 
L 2356 0 
L 1766 0 
Q 1100 0 847 248 
Q 594 497 594 1153 
L 594 3053 
L 172 3053 
L 172 3500 
L 594 3500 
L 594 4494 
L 1172 4494 
z
" id="DejaVuSans-74" transform="scale(0.015625)"/>
       <path d="M 603 3500 
L 1178 3500 
L 1178 0 
L 603 0 
L 603 3500 
z
M 603 4863 
L 1178 4863 
L 1178 4134 
L 603 4134 
L 603 4863 
z
" id="DejaVuSans-69" transform="scale(0.015625)"/>
       <path d="M 3513 2113 
L 3513 0 
L 2938 0 
L 2938 2094 
Q 2938 2591 2744 2837 
Q 2550 3084 2163 3084 
Q 1697 3084 1428 2787 
Q 1159 2491 1159 1978 
L 1159 0 
L 581 0 
L 581 3500 
L 1159 3500 
L 1159 2956 
Q 1366 3272 1645 3428 
Q 1925 3584 2291 3584 
Q 2894 3584 3203 3211 
Q 3513 2838 3513 2113 
z
" id="DejaVuSans-6e" transform="scale(0.015625)"/>
      </defs>
      <use xlink:href="#DejaVuSans-70"/>
      <use x="63.476562" xlink:href="#DejaVuSans-72"/>
      <use x="102.339844" xlink:href="#DejaVuSans-6f"/>
      <use x="163.521484" xlink:href="#DejaVuSans-70"/>
      <use x="226.998047" xlink:href="#DejaVuSans-6f"/>
      <use x="288.179688" xlink:href="#DejaVuSans-72"/>
      <use x="329.292969" xlink:href="#DejaVuSans-74"/>
      <use x="368.501953" xlink:href="#DejaVuSans-69"/>
      <use x="396.285156" xlink:href="#DejaVuSans-6f"/>
      <use x="457.466797" xlink:href="#DejaVuSans-6e"/>
      <use x="520.845703" xlink:href="#DejaVuSans-20"/>
      <use x="552.632812" xlink:href="#DejaVuSans-6f"/>
      <use x="613.814453" xlink:href="#DejaVuSans-66"/>
      <use x="649.019531" xlink:href="#DejaVuSans-20"/>
      <use x="680.806641" xlink:href="#DejaVuSans-74"/>
      <use x="720.015625" xlink:href="#DejaVuSans-72"/>
      <use x="761.128906" xlink:href="#DejaVuSans-69"/>
      <use x="788.912109" xlink:href="#DejaVuSans-61"/>
      <use x="850.191406" xlink:href="#DejaVuSans-6c"/>
      <use x="877.974609" xlink:href="#DejaVuSans-73"/>
     </g>
    </g>
   </g>
   <g id="line2d_93">
    <path clip-path="url(#pac713c6fd8)" d="M 103.508369 293.76 
L 103.508369 289.927604 
L 138.530955 289.927604 
L 138.530955 286.095208 
L 153.136292 286.095208 
L 153.136292 282.262812 
L 213.175381 282.262812 
L 213.175381 278.430416 
L 232.407458 278.430416 
L 232.407458 274.59802 
L 243.612332 274.59802 
L 243.612332 270.765624 
L 247.987423 270.765624 
L 247.987423 266.933228 
L 252.06312 266.933228 
L 252.06312 263.100832 
L 254.946771 263.100832 
L 254.946771 259.268436 
L 257.697283 259.268436 
L 257.697283 255.43604 
L 262.016843 255.43604 
L 262.016843 251.603644 
L 263.660639 251.603644 
L 263.660639 247.771248 
L 271.970567 247.771248 
L 271.970567 243.938851 
L 276.057918 243.938851 
L 276.057918 240.106455 
L 278.634918 240.106455 
L 278.634918 232.441663 
L 280.497064 232.441663 
L 280.497064 228.609267 
L 284.628291 228.609267 
L 284.628291 224.776871 
L 296.481262 224.776871 
L 296.481262 220.944475 
L 298.321836 220.944475 
L 298.321836 217.112079 
L 300.107253 217.112079 
L 300.107253 213.279683 
L 302.266324 213.279683 
L 302.266324 209.447287 
L 307.539081 209.447287 
L 307.539081 205.614891 
L 314.145898 205.614891 
L 314.145898 201.782495 
L 315.17917 201.782495 
L 315.17917 197.950099 
L 316.194828 197.950099 
L 316.194828 194.117703 
L 321.337324 194.117703 
L 321.337324 190.285307 
L 321.644458 190.285307 
L 321.644458 186.452911 
L 327.19795 186.452911 
L 327.19795 182.620515 
L 329.120176 182.620515 
L 329.120176 178.788119 
L 373.385527 178.788119 
L 373.385527 174.955723 
L 379.721132 174.955723 
L 379.721132 171.123327 
L 379.836604 171.123327 
L 379.836604 167.290931 
L 384.17391 167.290931 
L 384.17391 159.626139 
L 389.505684 159.626139 
L 389.505684 151.961347 
L 391.150147 151.961347 
L 391.150147 148.12895 
L 394.489571 148.12895 
L 394.489571 144.296554 
L 396.616209 144.296554 
L 396.616209 140.464158 
L 397.651725 140.464158 
L 397.651725 136.631762 
L 399.005 136.631762 
L 399.005 128.96697 
L 399.255353 128.96697 
L 399.255353 125.134574 
L 400.409955 125.134574 
L 400.409955 121.302178 
L 400.573087 121.302178 
L 400.654485 113.637386 
L 401.862307 113.637386 
L 401.862307 109.80499 
L 402.81124 109.80499 
L 402.81124 105.972594 
L 402.967937 105.972594 
L 402.967937 98.307802 
L 403.590635 98.307802 
L 403.590635 94.475406 
L 405.345471 94.475406 
L 405.420608 86.810614 
L 405.495651 86.810614 
L 405.495651 82.978218 
L 405.645453 82.978218 
L 405.645453 79.145822 
L 406.536443 79.145822 
L 406.610094 71.48103 
L 408.064318 71.48103 
L 408.064318 67.648634 
L 409.413711 67.648634 
L 409.413711 63.816238 
L 410.181195 63.816238 
L 410.181195 59.983842 
L 411.754683 59.983842 
L 411.754683 56.151446 
L 412.024141 56.151446 
L 412.024141 52.31905 
L 413.419144 52.31905 
L 413.484765 44.654257 
L 414.201866 44.654257 
L 414.201866 40.821861 
L 414.974439 40.821861 
L 414.974439 36.989465 
L 415.166027 36.989465 
L 415.166027 33.157069 
L 415.737122 33.157069 
L 415.737122 29.324673 
L 416.98696 29.324673 
L 416.98696 25.492277 
L 418.392593 25.492277 
L 418.392593 21.659881 
L 422.533645 21.659881 
L 422.533645 17.827485 
L 426.193931 17.827485 
L 426.193931 13.995089 
L 428.122886 13.995089 
L 428.122886 10.162693 
L 434.25943 10.162693 
L 434.25943 6.330297 
L 434.25943 6.330297 
L 460.8 6.330297 
L 460.8 6.330297 
" style="fill:none;stroke:#000000;stroke-linecap:square;stroke-width:1.5;"/>
   </g>
   <g id="line2d_94">
    <path clip-path="url(#pac713c6fd8)" style="fill:none;stroke:#000000;stroke-linecap:square;stroke-width:1.5;"/>
   </g>
   <g id="line2d_95">
    <path clip-path="url(#pac713c6fd8)" d="M 311.662879 293.76 
L 311.662879 289.927604 
L 336.720764 289.927604 
L 336.720764 286.095208 
L 339.281401 286.095208 
L 339.281401 282.262812 
L 347.564357 282.262812 
L 347.564357 278.430416 
L 347.76231 278.430416 
L 347.76231 274.59802 
L 351.403613 274.59802 
L 351.403613 270.765624 
L 354.483098 270.765624 
L 354.483098 266.933228 
L 354.835146 266.933228 
L 354.835146 263.100832 
L 357.579059 263.100832 
L 357.579059 259.268436 
L 359.231976 259.268436 
L 359.231976 255.43604 
L 364.232767 255.43604 
L 364.232767 251.603644 
L 364.531809 251.603644 
L 364.531809 247.771248 
L 364.680768 247.771248 
L 364.680768 243.938851 
L 364.680768 243.938851 
L 364.680768 240.106455 
L 366.004908 240.106455 
L 366.004908 236.274059 
L 366.871597 236.274059 
L 366.871597 232.441663 
L 368.707264 232.441663 
L 368.707264 228.609267 
L 370.622868 228.609267 
L 370.622868 224.776871 
L 371.292356 224.776871 
L 371.292356 220.944475 
L 374.024845 220.944475 
L 374.024845 217.112079 
L 375.033696 217.112079 
L 375.033696 213.279683 
L 377.842471 213.279683 
L 377.842471 209.447287 
L 379.721132 209.447287 
L 379.721132 205.614891 
L 379.721132 205.614891 
L 379.721132 201.782495 
L 380.524779 201.782495 
L 380.524779 197.950099 
L 381.205097 197.950099 
L 381.205097 194.117703 
L 384.494829 194.117703 
L 384.494829 190.285307 
L 386.073998 190.285307 
L 386.073998 186.452911 
L 388.416912 186.452911 
L 388.416912 182.620515 
L 389.013253 182.620515 
L 389.013253 178.788119 
L 424.255199 178.788119 
L 424.255199 174.955723 
L 425.554671 174.955723 
L 425.554671 171.123327 
L 425.608205 171.123327 
L 425.608205 167.290931 
L 428.327729 167.290931 
L 428.327729 163.458535 
L 429.240909 163.458535 
L 429.240909 159.626139 
L 430.977447 159.626139 
L 430.977447 155.793743 
L 431.947494 155.793743 
L 431.947494 151.961347 
L 433.748177 151.961347 
L 433.748177 148.12895 
L 435.812489 148.12895 
L 435.812489 144.296554 
L 435.947599 144.296554 
L 435.947599 140.464158 
L 437.326093 140.464158 
L 437.326093 136.631762 
L 437.981828 136.631762 
L 437.981828 132.799366 
L 440.284459 132.799366 
L 440.284459 128.96697 
L 441.362179 128.96697 
L 441.362179 125.134574 
L 441.975187 125.134574 
L 441.975187 121.302178 
L 455.030572 121.302178 
L 455.030572 117.469782 
L 457.399513 117.469782 
L 457.399513 113.637386 
L 457.399513 113.637386 
L 457.399513 113.637386 
L 460.8 113.637386 
" style="fill:none;stroke:#00bfbf;stroke-linecap:square;stroke-width:1.5;"/>
   </g>
   <g id="line2d_96">
    <path clip-path="url(#pac713c6fd8)" style="fill:none;stroke:#00bfbf;stroke-linecap:square;stroke-width:1.5;"/>
   </g>
   <g id="line2d_97">
    <path clip-path="url(#pac713c6fd8)" d="M 336.720764 293.76 
L 336.720764 289.927604 
L 339.281401 289.927604 
L 339.281401 286.095208 
L 347.564357 286.095208 
L 347.564357 282.262812 
L 347.76231 282.262812 
L 347.76231 278.430416 
L 354.483098 278.430416 
L 354.483098 274.59802 
L 354.835146 274.59802 
L 354.835146 270.765624 
L 356.904836 270.765624 
L 356.904836 266.933228 
L 357.579059 266.933228 
L 357.579059 263.100832 
L 359.231976 263.100832 
L 359.231976 259.268436 
L 361.314419 259.268436 
L 361.314419 255.43604 
L 364.680768 255.43604 
L 364.680768 251.603644 
L 366.871597 251.603644 
L 366.871597 247.771248 
L 371.954406 247.771248 
L 371.954406 243.938851 
L 374.024845 243.938851 
L 374.024845 240.106455 
L 386.177803 240.106455 
L 386.177803 236.274059 
L 411.687128 236.274059 
L 411.687128 232.441663 
L 417.907429 232.441663 
L 417.907429 228.609267 
L 423.372868 228.609267 
L 423.372868 224.776871 
L 424.528269 224.776871 
L 424.528269 220.944475 
L 425.393778 220.944475 
L 425.393778 217.112079 
L 425.608205 217.112079 
L 425.608205 213.279683 
L 428.020199 213.279683 
L 428.020199 209.447287 
L 428.582797 209.447287 
L 428.582797 205.614891 
L 428.68452 205.614891 
L 428.68452 201.782495 
L 430.830568 201.782495 
L 430.830568 197.950099 
L 431.706459 197.950099 
L 431.706459 194.117703 
L 432.187559 194.117703 
L 432.187559 190.285307 
L 432.996617 190.285307 
L 432.996617 186.452911 
L 433.60798 186.452911 
L 433.60798 182.620515 
L 438.759301 182.620515 
L 438.759301 178.788119 
L 449.310789 178.788119 
L 449.310789 174.955723 
L 452.902945 174.955723 
L 452.902945 171.123327 
L 453.676335 171.123327 
L 453.676335 167.290931 
L 456.162763 167.290931 
L 456.162763 163.458535 
L 456.194798 163.458535 
L 456.194798 159.626139 
L 456.258815 159.626139 
L 456.258815 155.793743 
L 456.386643 155.793743 
L 456.386643 151.961347 
L 459.888937 151.961347 
L 459.888937 148.12895 
L 459.888937 148.12895 
L 459.888937 148.12895 
L 460.8 148.12895 
" style="fill:none;stroke:#bf00bf;stroke-linecap:square;stroke-width:1.5;"/>
   </g>
   <g id="line2d_98">
    <path clip-path="url(#pac713c6fd8)" style="fill:none;stroke:#bf00bf;stroke-linecap:square;stroke-width:1.5;"/>
   </g>
   <g id="line2d_99">
    <path clip-path="url(#pac713c6fd8)" d="M 336.720764 293.76 
L 336.720764 289.927604 
L 339.281401 289.927604 
L 339.281401 286.095208 
L 347.564357 286.095208 
L 347.564357 282.262812 
L 347.76231 282.262812 
L 347.76231 278.430416 
L 354.483098 278.430416 
L 354.483098 274.59802 
L 354.835146 274.59802 
L 354.835146 270.765624 
L 356.904836 270.765624 
L 356.904836 266.933228 
L 357.579059 266.933228 
L 357.579059 263.100832 
L 359.231976 263.100832 
L 359.231976 259.268436 
L 361.314419 259.268436 
L 361.314419 255.43604 
L 364.680768 255.43604 
L 364.680768 251.603644 
L 366.871597 251.603644 
L 366.871597 247.771248 
L 371.954406 247.771248 
L 371.954406 243.938851 
L 374.024845 243.938851 
L 374.024845 240.106455 
L 386.177803 240.106455 
L 386.177803 236.274059 
L 458.917852 236.274059 
L 458.917852 232.441663 
L 460.278964 232.441663 
L 460.278964 228.609267 
L 460.30886 228.609267 
L 460.30886 224.776871 
L 460.725845 224.776871 
L 460.725845 220.944475 
L 460.725845 220.944475 
L 460.725845 220.944475 
L 460.8 220.944475 
" style="fill:none;stroke:#ff0000;stroke-linecap:square;stroke-width:3;"/>
   </g>
   <g id="line2d_100">
    <path clip-path="url(#pac713c6fd8)" style="fill:none;stroke:#ff0000;stroke-linecap:square;stroke-width:3;"/>
   </g>
   <g id="line2d_101">
    <path clip-path="url(#pac713c6fd8)" d="M 460.8 293.76 
L 460.8 3.456 
" style="fill:none;stroke:#000000;stroke-linecap:square;stroke-width:1.5;"/>
   </g>
   <g id="patch_3">
    <path d="M 62.208 293.76 
L 62.208 3.456 
" style="fill:none;stroke:#000000;stroke-linecap:square;stroke-linejoin:miter;stroke-width:0.8;"/>
   </g>
   <g id="patch_4">
    <path d="M 460.8 293.76 
L 460.8 3.456 
" style="fill:none;stroke:#000000;stroke-linecap:square;stroke-linejoin:miter;stroke-width:0.8;"/>
   </g>
   <g id="patch_5">
    <path d="M 62.208 293.76 
L 460.8 293.76 
" style="fill:none;stroke:#000000;stroke-linecap:square;stroke-linejoin:miter;stroke-width:0.8;"/>
   </g>
   <g id="patch_6">
    <path d="M 62.208 3.456 
L 460.8 3.456 
" style="fill:none;stroke:#000000;stroke-linecap:square;stroke-linejoin:miter;stroke-width:0.8;"/>
   </g>
   <g id="text_11">
    <!-- {f1-f5}, 5-D -->
    <g transform="translate(201.379 24.458955)scale(0.2 -0.2)">
     <defs>
      <path d="M 3272 -594 
L 3272 -1044 
L 3078 -1044 
Q 2300 -1044 2036 -812 
Q 1772 -581 1772 109 
L 1772 856 
Q 1772 1328 1603 1509 
Q 1434 1691 991 1691 
L 800 1691 
L 800 2138 
L 991 2138 
Q 1438 2138 1605 2317 
Q 1772 2497 1772 2963 
L 1772 3713 
Q 1772 4403 2036 4633 
Q 2300 4863 3078 4863 
L 3272 4863 
L 3272 4416 
L 3059 4416 
Q 2619 4416 2484 4278 
Q 2350 4141 2350 3700 
L 2350 2925 
Q 2350 2434 2208 2212 
Q 2066 1991 1722 1913 
Q 2069 1828 2209 1606 
Q 2350 1384 2350 897 
L 2350 122 
Q 2350 -319 2484 -456 
Q 2619 -594 3059 -594 
L 3272 -594 
z
" id="DejaVuSans-7b" transform="scale(0.015625)"/>
      <path d="M 313 2009 
L 1997 2009 
L 1997 1497 
L 313 1497 
L 313 2009 
z
" id="DejaVuSans-2d" transform="scale(0.015625)"/>
      <path d="M 691 4666 
L 3169 4666 
L 3169 4134 
L 1269 4134 
L 1269 2991 
Q 1406 3038 1543 3061 
Q 1681 3084 1819 3084 
Q 2600 3084 3056 2656 
Q 3513 2228 3513 1497 
Q 3513 744 3044 326 
Q 2575 -91 1722 -91 
Q 1428 -91 1123 -41 
Q 819 9 494 109 
L 494 744 
Q 775 591 1075 516 
Q 1375 441 1709 441 
Q 2250 441 2565 725 
Q 2881 1009 2881 1497 
Q 2881 1984 2565 2268 
Q 2250 2553 1709 2553 
Q 1456 2553 1204 2497 
Q 953 2441 691 2322 
L 691 4666 
z
" id="DejaVuSans-35" transform="scale(0.015625)"/>
      <path d="M 800 -594 
L 1019 -594 
Q 1456 -594 1589 -459 
Q 1722 -325 1722 122 
L 1722 897 
Q 1722 1384 1862 1606 
Q 2003 1828 2350 1913 
Q 2003 1991 1862 2212 
Q 1722 2434 1722 2925 
L 1722 3700 
Q 1722 4144 1589 4280 
Q 1456 4416 1019 4416 
L 800 4416 
L 800 4863 
L 997 4863 
Q 1775 4863 2036 4633 
Q 2297 4403 2297 3713 
L 2297 2963 
Q 2297 2497 2465 2317 
Q 2634 2138 3078 2138 
L 3272 2138 
L 3272 1691 
L 3078 1691 
Q 2634 1691 2465 1509 
Q 2297 1328 2297 856 
L 2297 109 
Q 2297 -581 2036 -812 
Q 1775 -1044 997 -1044 
L 800 -1044 
L 800 -594 
z
" id="DejaVuSans-7d" transform="scale(0.015625)"/>
      <path d="M 750 794 
L 1409 794 
L 1409 256 
L 897 -744 
L 494 -744 
L 750 256 
L 750 794 
z
" id="DejaVuSans-2c" transform="scale(0.015625)"/>
     </defs>
     <use xlink:href="#DejaVuSans-7b"/>
     <use x="63.623047" xlink:href="#DejaVuSans-66"/>
     <use x="98.828125" xlink:href="#DejaVuSans-31"/>
     <use x="162.451172" xlink:href="#DejaVuSans-2d"/>
     <use x="198.535156" xlink:href="#DejaVuSans-66"/>
     <use x="233.740234" xlink:href="#DejaVuSans-35"/>
     <use x="297.363281" xlink:href="#DejaVuSans-7d"/>
     <use x="360.986328" xlink:href="#DejaVuSans-2c"/>
     <use x="392.773438" xlink:href="#DejaVuSans-20"/>
     <use x="424.560547" xlink:href="#DejaVuSans-35"/>
     <use x="488.183594" xlink:href="#DejaVuSans-2d"/>
     <use x="524.267578" xlink:href="#DejaVuSans-44"/>
    </g>
   </g>
   <g id="text_12">
    <!-- absolute targets -->
    <g transform="translate(62.208 609.932673)scale(0.14 -0.14)">
     <defs>
      <path d="M 3116 1747 
Q 3116 2381 2855 2742 
Q 2594 3103 2138 3103 
Q 1681 3103 1420 2742 
Q 1159 2381 1159 1747 
Q 1159 1113 1420 752 
Q 1681 391 2138 391 
Q 2594 391 2855 752 
Q 3116 1113 3116 1747 
z
M 1159 2969 
Q 1341 3281 1617 3432 
Q 1894 3584 2278 3584 
Q 2916 3584 3314 3078 
Q 3713 2572 3713 1747 
Q 3713 922 3314 415 
Q 2916 -91 2278 -91 
Q 1894 -91 1617 61 
Q 1341 213 1159 525 
L 1159 0 
L 581 0 
L 581 4863 
L 1159 4863 
L 1159 2969 
z
" id="DejaVuSans-62" transform="scale(0.015625)"/>
      <path d="M 544 1381 
L 544 3500 
L 1119 3500 
L 1119 1403 
Q 1119 906 1312 657 
Q 1506 409 1894 409 
Q 2359 409 2629 706 
Q 2900 1003 2900 1516 
L 2900 3500 
L 3475 3500 
L 3475 0 
L 2900 0 
L 2900 538 
Q 2691 219 2414 64 
Q 2138 -91 1772 -91 
Q 1169 -91 856 284 
Q 544 659 544 1381 
z
M 1991 3584 
L 1991 3584 
z
" id="DejaVuSans-75" transform="scale(0.015625)"/>
      <path d="M 3597 1894 
L 3597 1613 
L 953 1613 
Q 991 1019 1311 708 
Q 1631 397 2203 397 
Q 2534 397 2845 478 
Q 3156 559 3463 722 
L 3463 178 
Q 3153 47 2828 -22 
Q 2503 -91 2169 -91 
Q 1331 -91 842 396 
Q 353 884 353 1716 
Q 353 2575 817 3079 
Q 1281 3584 2069 3584 
Q 2775 3584 3186 3129 
Q 3597 2675 3597 1894 
z
M 3022 2063 
Q 3016 2534 2758 2815 
Q 2500 3097 2075 3097 
Q 1594 3097 1305 2825 
Q 1016 2553 972 2059 
L 3022 2063 
z
" id="DejaVuSans-65" transform="scale(0.015625)"/>
     </defs>
     <use xlink:href="#DejaVuSans-61"/>
     <use x="61.279297" xlink:href="#DejaVuSans-62"/>
     <use x="124.755859" xlink:href="#DejaVuSans-73"/>
     <use x="176.855469" xlink:href="#DejaVuSans-6f"/>
     <use x="238.037109" xlink:href="#DejaVuSans-6c"/>
     <use x="265.820312" xlink:href="#DejaVuSans-75"/>
     <use x="329.199219" xlink:href="#DejaVuSans-74"/>
     <use x="368.408203" xlink:href="#DejaVuSans-65"/>
     <use x="429.931641" xlink:href="#DejaVuSans-20"/>
     <use x="461.71875" xlink:href="#DejaVuSans-74"/>
     <use x="500.927734" xlink:href="#DejaVuSans-61"/>
     <use x="562.207031" xlink:href="#DejaVuSans-72"/>
     <use x="601.570312" xlink:href="#DejaVuSans-67"/>
     <use x="665.046875" xlink:href="#DejaVuSans-65"/>
     <use x="726.570312" xlink:href="#DejaVuSans-74"/>
     <use x="765.779297" xlink:href="#DejaVuSans-73"/>
    </g>
   </g>
   <g id="text_13">
    <!-- v2.6 -->
    <g style="fill:#808080;" transform="translate(250.593063 288.777272)scale(0.1 -0.1)">
     <use xlink:href="#DejaVuSans-76"/>
     <use x="59.179688" xlink:href="#DejaVuSans-32"/>
     <use x="122.802734" xlink:href="#DejaVuSans-2e"/>
     <use x="154.589844" xlink:href="#DejaVuSans-36"/>
    </g>
   </g>
   <g id="legend_1">
    <g id="patch_7">
     <path d="M 76.208 136.881 
L 205.429875 136.881 
Q 209.429875 136.881 209.429875 132.881 
L 209.429875 17.456 
Q 209.429875 13.456 205.429875 13.456 
L 76.208 13.456 
Q 72.208 13.456 72.208 17.456 
L 72.208 132.881 
Q 72.208 136.881 76.208 136.881 
z
" style="fill:#ffffff;opacity:0.2;stroke:#cccccc;stroke-linejoin:miter;"/>
    </g>
    <g id="line2d_102">
     <path d="M 80.208 29.652875 
L 120.208 29.652875 
" style="fill:none;stroke:#000000;stroke-linecap:square;stroke-width:1.5;"/>
    </g>
    <g id="line2d_103"/>
    <g id="text_14">
     <!-- 1: 5/5 -->
     <g transform="translate(136.208 36.652875)scale(0.2 -0.2)">
      <defs>
       <path d="M 750 794 
L 1409 794 
L 1409 0 
L 750 0 
L 750 794 
z
M 750 3309 
L 1409 3309 
L 1409 2516 
L 750 2516 
L 750 3309 
z
" id="DejaVuSans-3a" transform="scale(0.015625)"/>
      </defs>
      <use xlink:href="#DejaVuSans-31"/>
      <use x="63.623047" xlink:href="#DejaVuSans-3a"/>
      <use x="97.314453" xlink:href="#DejaVuSans-20"/>
      <use x="129.101562" xlink:href="#DejaVuSans-35"/>
      <use x="192.724609" xlink:href="#DejaVuSans-2f"/>
      <use x="226.416016" xlink:href="#DejaVuSans-35"/>
     </g>
    </g>
    <g id="line2d_104">
     <path d="M 80.208 59.009125 
L 120.208 59.009125 
" style="fill:none;stroke:#00bfbf;stroke-linecap:square;stroke-width:1.5;"/>
    </g>
    <g id="line2d_105"/>
    <g id="text_15">
     <!-- -1: 4/5 -->
     <g transform="translate(136.208 66.009125)scale(0.2 -0.2)">
      <use xlink:href="#DejaVuSans-2d"/>
      <use x="36.083984" xlink:href="#DejaVuSans-31"/>
      <use x="99.707031" xlink:href="#DejaVuSans-3a"/>
      <use x="133.398438" xlink:href="#DejaVuSans-20"/>
      <use x="165.185547" xlink:href="#DejaVuSans-34"/>
      <use x="228.808594" xlink:href="#DejaVuSans-2f"/>
      <use x="262.5" xlink:href="#DejaVuSans-35"/>
     </g>
    </g>
    <g id="line2d_106">
     <path d="M 80.208 88.365375 
L 120.208 88.365375 
" style="fill:none;stroke:#bf00bf;stroke-linecap:square;stroke-width:1.5;"/>
    </g>
    <g id="line2d_107"/>
    <g id="text_16">
     <!-- -4: 3/5 -->
     <g transform="translate(136.208 95.365375)scale(0.2 -0.2)">
      <defs>
       <path d="M 2597 2516 
Q 3050 2419 3304 2112 
Q 3559 1806 3559 1356 
Q 3559 666 3084 287 
Q 2609 -91 1734 -91 
Q 1441 -91 1130 -33 
Q 819 25 488 141 
L 488 750 
Q 750 597 1062 519 
Q 1375 441 1716 441 
Q 2309 441 2620 675 
Q 2931 909 2931 1356 
Q 2931 1769 2642 2001 
Q 2353 2234 1838 2234 
L 1294 2234 
L 1294 2753 
L 1863 2753 
Q 2328 2753 2575 2939 
Q 2822 3125 2822 3475 
Q 2822 3834 2567 4026 
Q 2313 4219 1838 4219 
Q 1578 4219 1281 4162 
Q 984 4106 628 3988 
L 628 4550 
Q 988 4650 1302 4700 
Q 1616 4750 1894 4750 
Q 2613 4750 3031 4423 
Q 3450 4097 3450 3541 
Q 3450 3153 3228 2886 
Q 3006 2619 2597 2516 
z
" id="DejaVuSans-33" transform="scale(0.015625)"/>
      </defs>
      <use xlink:href="#DejaVuSans-2d"/>
      <use x="36.083984" xlink:href="#DejaVuSans-34"/>
      <use x="99.707031" xlink:href="#DejaVuSans-3a"/>
      <use x="133.398438" xlink:href="#DejaVuSans-20"/>
      <use x="165.185547" xlink:href="#DejaVuSans-33"/>
      <use x="228.808594" xlink:href="#DejaVuSans-2f"/>
      <use x="262.5" xlink:href="#DejaVuSans-35"/>
     </g>
    </g>
    <g id="line2d_108">
     <path d="M 80.208 117.721625 
L 120.208 117.721625 
" style="fill:none;stroke:#ff0000;stroke-linecap:square;stroke-width:3;"/>
    </g>
    <g id="line2d_109"/>
    <g id="text_17">
     <!-- -8: 2/5 -->
     <g transform="translate(136.208 124.721625)scale(0.2 -0.2)">
      <use xlink:href="#DejaVuSans-2d"/>
      <use x="36.083984" xlink:href="#DejaVuSans-38"/>
      <use x="99.707031" xlink:href="#DejaVuSans-3a"/>
      <use x="133.398438" xlink:href="#DejaVuSans-20"/>
      <use x="165.185547" xlink:href="#DejaVuSans-32"/>
      <use x="228.808594" xlink:href="#DejaVuSans-2f"/>
      <use x="262.5" xlink:href="#DejaVuSans-35"/>
     </g>
    </g>
   </g>
  </g>
 </g>
 <defs>
  <clipPath id="pac713c6fd8">
   <rect height="290.304" width="398.592" x="62.208" y="3.456"/>
  </clipPath>
 </defs>
</svg>
