<?xml version="1.0" encoding="utf-8" standalone="no"?>
<!DOCTYPE svg PUBLIC "-//W3C//DTD SVG 1.1//EN"
  "http://www.w3.org/Graphics/SVG/1.1/DTD/svg11.dtd">
<svg height="345.6pt" version="1.1" viewBox="0 0 460.8 345.6" width="460.8pt" xmlns="http://www.w3.org/2000/svg" xmlns:xlink="http://www.w3.org/1999/xlink">
 <metadata>
  <rdf:RDF xmlns:cc="http://creativecommons.org/ns#" xmlns:dc="http://purl.org/dc/elements/1.1/" xmlns:rdf="http://www.w3.org/1999/02/22-rdf-syntax-ns#">
   <cc:Work>
    <dc:type rdf:resource="http://purl.org/dc/dcmitype/StillImage"/>
    <dc:date>2022-05-22T20:52:10.085227</dc:date>
    <dc:format>image/svg+xml</dc:format>
    <dc:creator>
     <cc:Agent>
      <dc:title>Matplotlib v3.4.3, https://matplotlib.org/</dc:title>
     </cc:Agent>
    </dc:creator>
   </cc:Work>
  </rdf:RDF>
 </metadata>
 <defs>
  <style type="text/css">*{stroke-linecap:butt;stroke-linejoin:round;}</style>
 </defs>
 <g id="figure_1">
  <g id="patch_1">
   <path d="M 0 345.6 
L 460.8 345.6 
L 460.8 0 
L 0 0 
z
" style="fill:#ffffff;"/>
  </g>
  <g id="axes_1">
   <g id="patch_2">
    <path d="M 57.6 298.944 
L 360.8064 298.944 
L 360.8064 6.912 
L 57.6 6.912 
z
" style="fill:#ffffff;"/>
   </g>
   <g id="line2d_1">
    <path d="M 1.245626 298.944 
L 1.245626 290.927435 
L 21.912228 290.927435 
L 21.912228 289.782212 
L 64.589687 289.782212 
L 64.589687 288.636988 
L 68.65718 288.636988 
L 68.65718 287.491765 
L 72.854856 287.491765 
L 72.854856 286.346541 
L 80.621116 286.346541 
L 80.621116 285.201318 
L 81.433251 285.201318 
L 81.433251 284.056094 
L 82.211771 284.056094 
L 82.211771 282.910871 
L 82.464279 282.910871 
L 82.464279 281.765647 
L 82.959349 281.765647 
L 82.959349 280.620424 
L 83.202082 280.620424 
L 83.202082 279.4752 
L 83.678349 279.4752 
L 83.678349 278.329976 
L 84.142855 278.329976 
L 84.142855 277.184753 
L 85.038813 277.184753 
L 85.038813 276.039529 
L 86.510858 276.039529 
L 86.510858 274.894306 
L 88.063207 274.894306 
L 88.063207 273.749082 
L 90.989609 273.749082 
L 90.989609 272.603859 
L 96.120281 272.603859 
L 96.120281 271.458635 
L 103.625951 271.458635 
L 103.625951 270.313412 
L 105.112877 270.313412 
L 105.112877 269.168188 
L 108.915146 269.168188 
L 108.915146 268.022965 
L 116.419219 268.022965 
L 116.419219 266.877741 
L 116.86762 266.877741 
L 116.86762 265.732518 
L 119.389621 265.732518 
L 119.389621 264.587294 
L 120.317502 264.587294 
L 120.317502 263.442071 
L 129.581749 263.442071 
L 129.581749 262.296847 
L 132.881269 262.296847 
L 132.881269 261.151624 
L 134.916493 261.151624 
L 134.916493 260.0064 
L 140.196609 260.0064 
L 140.196609 258.861176 
L 144.445498 258.861176 
L 144.445498 257.715953 
L 148.697031 257.715953 
L 148.697031 256.570729 
L 150.465671 256.570729 
L 150.553245 254.280282 
L 157.410135 254.280282 
L 157.410135 253.135059 
L 163.3965 253.135059 
L 163.3965 251.989835 
L 163.531835 251.989835 
L 163.531835 250.844612 
L 165.957604 250.844612 
L 165.957604 249.699388 
L 166.521015 249.699388 
L 166.521015 248.554165 
L 166.769573 248.554165 
L 166.769573 247.408941 
L 174.288839 247.408941 
L 174.288839 246.263718 
L 180.720078 246.263718 
L 180.825238 243.973271 
L 180.858819 243.973271 
L 180.904394 241.682824 
L 180.973883 241.682824 
L 181.052417 238.247153 
L 181.092225 238.247153 
L 181.141204 235.956706 
L 181.258501 235.956706 
L 181.343707 232.521035 
L 181.525928 232.521035 
L 181.602196 230.230588 
L 181.680725 230.230588 
L 181.680725 229.085365 
L 181.855908 229.085365 
L 181.902941 226.794918 
L 181.97011 226.794918 
L 181.97011 225.649694 
L 182.099962 225.649694 
L 182.099962 224.504471 
L 182.241399 224.504471 
L 182.241399 223.359247 
L 182.361966 223.359247 
L 182.416403 221.0688 
L 182.646017 221.0688 
L 182.646017 219.923576 
L 182.794322 219.923576 
L 182.83182 217.633129 
L 183.314974 217.633129 
L 183.314974 216.487906 
L 183.511809 216.487906 
L 183.511809 215.342682 
L 183.641896 215.342682 
L 183.641896 214.197459 
L 183.921085 214.197459 
L 183.921085 213.052235 
L 184.11961 213.052235 
L 184.11961 211.907012 
L 185.014308 211.907012 
L 185.10448 207.326118 
L 185.129095 207.326118 
L 185.235743 200.454776 
L 185.280355 200.454776 
L 185.280355 199.309553 
L 190.101805 199.309553 
L 190.101805 198.164329 
L 190.304337 198.164329 
L 190.406406 194.728659 
L 190.572098 194.728659 
L 190.642437 192.438212 
L 190.745867 192.438212 
L 190.812398 190.147765 
L 190.921976 190.147765 
L 190.921976 189.002541 
L 191.102681 189.002541 
L 191.18735 185.566871 
L 191.59673 185.566871 
L 191.704108 182.1312 
L 192.021872 182.1312 
L 192.089957 179.840753 
L 192.170306 179.840753 
L 192.170306 178.695529 
L 192.34602 178.695529 
L 192.34602 177.550306 
L 192.58282 177.550306 
L 192.622357 175.259859 
L 192.712622 175.259859 
L 192.784666 172.969412 
L 192.906722 172.969412 
L 192.906722 171.824188 
L 193.084131 171.824188 
L 193.084131 170.678965 
L 196.167727 170.678965 
L 196.167727 169.533741 
L 199.181136 169.533741 
L 199.276663 166.098071 
L 199.442803 166.098071 
L 199.442803 164.952847 
L 203.275156 164.952847 
L 203.275156 163.807624 
L 203.475045 163.807624 
L 203.475045 162.6624 
L 207.219884 162.6624 
L 207.219884 161.517176 
L 210.415897 161.517176 
L 210.415897 160.371953 
L 213.472377 160.371953 
L 213.472377 159.226729 
L 214.831331 159.226729 
L 214.865921 156.936282 
L 217.065846 156.936282 
L 217.065846 155.791059 
L 223.40998 155.791059 
L 223.486 145.484047 
L 227.370151 145.484047 
L 227.370151 144.338824 
L 227.779871 144.338824 
L 227.779871 143.1936 
L 235.170111 143.1936 
L 235.170111 142.048376 
L 237.583949 142.048376 
L 237.583949 140.903153 
L 242.20408 140.903153 
L 242.20408 139.757929 
L 245.620428 139.757929 
L 245.620428 138.612706 
L 246.507713 138.612706 
L 246.507713 137.467482 
L 246.63392 137.467482 
L 246.63392 136.322259 
L 247.533469 136.322259 
L 247.533469 135.177035 
L 247.673097 135.177035 
L 247.673097 134.031812 
L 247.847228 134.031812 
L 247.847228 132.886588 
L 248.021687 132.886588 
L 248.021687 131.741365 
L 248.165326 131.741365 
L 248.165326 130.596141 
L 248.361264 130.596141 
L 248.470649 128.305694 
L 248.603186 128.305694 
L 248.603186 127.160471 
L 248.730322 127.160471 
L 248.730322 126.015247 
L 250.964047 126.015247 
L 250.964047 124.870024 
L 257.056729 124.870024 
L 257.137153 122.579576 
L 257.196417 122.579576 
L 257.259124 120.289129 
L 257.318351 120.289129 
L 257.379873 117.998682 
L 257.443118 117.998682 
L 257.510577 115.708235 
L 257.571133 115.708235 
L 257.634328 113.417788 
L 257.688615 113.417788 
L 257.751214 111.127341 
L 257.810104 111.127341 
L 257.920863 107.691671 
L 257.975443 107.691671 
L 258.023805 105.401224 
L 258.094967 105.401224 
L 258.094967 104.256 
L 262.7012 104.256 
L 262.7012 103.110776 
L 266.602864 103.110776 
L 266.602864 101.965553 
L 266.968695 101.965553 
L 266.968695 100.820329 
L 275.334653 100.820329 
L 275.334653 99.675106 
L 278.898357 99.675106 
L 278.898357 98.529882 
L 282.413531 98.529882 
L 282.413531 97.384659 
L 282.528082 97.384659 
L 282.528082 96.239435 
L 284.490021 96.239435 
L 284.557171 93.948988 
L 293.164538 93.948988 
L 293.269283 88.222871 
L 293.287392 88.222871 
L 293.386018 80.206306 
L 293.401151 80.206306 
L 293.494217 72.189741 
L 293.51354 72.189741 
L 293.616265 63.027953 
L 293.635966 63.027953 
L 293.743189 53.866165 
L 298.990176 53.866165 
L 298.990176 52.720941 
L 306.192193 52.720941 
L 306.192193 51.575718 
L 314.786024 51.575718 
L 314.786024 50.430494 
L 325.59356 50.430494 
L 325.59356 49.285271 
L 335.441939 49.285271 
L 335.487261 6.912 
L 360.8064 6.912 
L 360.8064 6.912 
" style="fill:none;stroke:#f5deb3;stroke-linecap:square;stroke-width:4;"/>
   </g>
   <g id="line2d_2">
    <defs>
     <path d="M -0 7.778175 
L 7.778175 0 
L 0 -7.778175 
L -7.778175 -0 
z
" id="m68a1d7e779" style="stroke:#f5deb3;stroke-linejoin:miter;stroke-width:1.5;"/>
    </defs>
    <g>
     <use style="fill:#f5deb3;stroke:#f5deb3;stroke-linejoin:miter;stroke-width:1.5;" x="86.510858" xlink:href="#m68a1d7e779" y="276.039529"/>
     <use style="fill:#f5deb3;stroke:#f5deb3;stroke-linejoin:miter;stroke-width:1.5;" x="183.921085" xlink:href="#m68a1d7e779" y="213.052235"/>
     <use style="fill:#f5deb3;stroke:#f5deb3;stroke-linejoin:miter;stroke-width:1.5;" x="247.533469" xlink:href="#m68a1d7e779" y="136.322259"/>
     <use style="fill:#f5deb3;stroke:#f5deb3;stroke-linejoin:miter;stroke-width:1.5;" x="306.192193" xlink:href="#m68a1d7e779" y="52.720941"/>
     <use style="fill:#f5deb3;stroke:#f5deb3;stroke-linejoin:miter;stroke-width:1.5;" x="335.487261" xlink:href="#m68a1d7e779" y="6.912"/>
     <use style="fill:#f5deb3;stroke:#f5deb3;stroke-linejoin:miter;stroke-width:1.5;" x="360.8064" xlink:href="#m68a1d7e779" y="6.912"/>
    </g>
   </g>
   <g id="line2d_3">
    <path style="fill:none;stroke:#f5deb3;stroke-linecap:square;stroke-width:4;"/>
    <g/>
   </g>
   <g id="line2d_4">
    <path d="M 360.8064 6.912 
L 380.514816 12.75264 
" style="fill:none;stroke:#f5deb3;stroke-linecap:square;stroke-width:4;"/>
    <g>
     <use style="fill:#f5deb3;stroke:#f5deb3;stroke-linejoin:miter;stroke-width:1.5;" x="360.8064" xlink:href="#m68a1d7e779" y="6.912"/>
     <use style="fill:#f5deb3;stroke:#f5deb3;stroke-linejoin:miter;stroke-width:1.5;" x="380.514816" xlink:href="#m68a1d7e779" y="12.75264"/>
    </g>
   </g>
   <g id="matplotlib.axis_1">
    <g id="xtick_1">
     <g id="line2d_5">
      <path clip-path="url(#pf73cff19ed)" d="M 57.6 298.944 
L 57.6 6.912 
" style="fill:none;stroke:#b0b0b0;stroke-linecap:square;stroke-width:0.8;"/>
     </g>
     <g id="line2d_6">
      <defs>
       <path d="M 0 0 
L 0 3.5 
" id="ma574f8cbb6" style="stroke:#000000;stroke-width:0.8;"/>
      </defs>
      <g>
       <use style="stroke:#000000;stroke-width:0.8;" x="57.6" xlink:href="#ma574f8cbb6" y="298.944"/>
      </g>
     </g>
     <g id="text_1">
      <!-- 0 -->
      <g transform="translate(52.191875 318.861344)scale(0.17 -0.17)">
       <defs>
        <path d="M 2034 4250 
Q 1547 4250 1301 3770 
Q 1056 3291 1056 2328 
Q 1056 1369 1301 889 
Q 1547 409 2034 409 
Q 2525 409 2770 889 
Q 3016 1369 3016 2328 
Q 3016 3291 2770 3770 
Q 2525 4250 2034 4250 
z
M 2034 4750 
Q 2819 4750 3233 4129 
Q 3647 3509 3647 2328 
Q 3647 1150 3233 529 
Q 2819 -91 2034 -91 
Q 1250 -91 836 529 
Q 422 1150 422 2328 
Q 422 3509 836 4129 
Q 1250 4750 2034 4750 
z
" id="DejaVuSans-30" transform="scale(0.015625)"/>
       </defs>
       <use xlink:href="#DejaVuSans-30"/>
      </g>
     </g>
    </g>
    <g id="xtick_2">
     <g id="line2d_7">
      <path clip-path="url(#pf73cff19ed)" d="M 144.2304 298.944 
L 144.2304 6.912 
" style="fill:none;stroke:#b0b0b0;stroke-linecap:square;stroke-width:0.8;"/>
     </g>
     <g id="line2d_8">
      <g>
       <use style="stroke:#000000;stroke-width:0.8;" x="144.2304" xlink:href="#ma574f8cbb6" y="298.944"/>
      </g>
     </g>
     <g id="text_2">
      <!-- 2 -->
      <g transform="translate(138.822275 318.861344)scale(0.17 -0.17)">
       <defs>
        <path d="M 1228 531 
L 3431 531 
L 3431 0 
L 469 0 
L 469 531 
Q 828 903 1448 1529 
Q 2069 2156 2228 2338 
Q 2531 2678 2651 2914 
Q 2772 3150 2772 3378 
Q 2772 3750 2511 3984 
Q 2250 4219 1831 4219 
Q 1534 4219 1204 4116 
Q 875 4013 500 3803 
L 500 4441 
Q 881 4594 1212 4672 
Q 1544 4750 1819 4750 
Q 2544 4750 2975 4387 
Q 3406 4025 3406 3419 
Q 3406 3131 3298 2873 
Q 3191 2616 2906 2266 
Q 2828 2175 2409 1742 
Q 1991 1309 1228 531 
z
" id="DejaVuSans-32" transform="scale(0.015625)"/>
       </defs>
       <use xlink:href="#DejaVuSans-32"/>
      </g>
     </g>
    </g>
    <g id="xtick_3">
     <g id="line2d_9">
      <path clip-path="url(#pf73cff19ed)" d="M 230.8608 298.944 
L 230.8608 6.912 
" style="fill:none;stroke:#b0b0b0;stroke-linecap:square;stroke-width:0.8;"/>
     </g>
     <g id="line2d_10">
      <g>
       <use style="stroke:#000000;stroke-width:0.8;" x="230.8608" xlink:href="#ma574f8cbb6" y="298.944"/>
      </g>
     </g>
     <g id="text_3">
      <!-- 4 -->
      <g transform="translate(225.452675 318.861344)scale(0.17 -0.17)">
       <defs>
        <path d="M 2419 4116 
L 825 1625 
L 2419 1625 
L 2419 4116 
z
M 2253 4666 
L 3047 4666 
L 3047 1625 
L 3713 1625 
L 3713 1100 
L 3047 1100 
L 3047 0 
L 2419 0 
L 2419 1100 
L 313 1100 
L 313 1709 
L 2253 4666 
z
" id="DejaVuSans-34" transform="scale(0.015625)"/>
       </defs>
       <use xlink:href="#DejaVuSans-34"/>
      </g>
     </g>
    </g>
    <g id="xtick_4">
     <g id="line2d_11">
      <path clip-path="url(#pf73cff19ed)" d="M 317.4912 298.944 
L 317.4912 6.912 
" style="fill:none;stroke:#b0b0b0;stroke-linecap:square;stroke-width:0.8;"/>
     </g>
     <g id="line2d_12">
      <g>
       <use style="stroke:#000000;stroke-width:0.8;" x="317.4912" xlink:href="#ma574f8cbb6" y="298.944"/>
      </g>
     </g>
     <g id="text_4">
      <!-- 6 -->
      <g transform="translate(312.083075 318.861344)scale(0.17 -0.17)">
       <defs>
        <path d="M 2113 2584 
Q 1688 2584 1439 2293 
Q 1191 2003 1191 1497 
Q 1191 994 1439 701 
Q 1688 409 2113 409 
Q 2538 409 2786 701 
Q 3034 994 3034 1497 
Q 3034 2003 2786 2293 
Q 2538 2584 2113 2584 
z
M 3366 4563 
L 3366 3988 
Q 3128 4100 2886 4159 
Q 2644 4219 2406 4219 
Q 1781 4219 1451 3797 
Q 1122 3375 1075 2522 
Q 1259 2794 1537 2939 
Q 1816 3084 2150 3084 
Q 2853 3084 3261 2657 
Q 3669 2231 3669 1497 
Q 3669 778 3244 343 
Q 2819 -91 2113 -91 
Q 1303 -91 875 529 
Q 447 1150 447 2328 
Q 447 3434 972 4092 
Q 1497 4750 2381 4750 
Q 2619 4750 2861 4703 
Q 3103 4656 3366 4563 
z
" id="DejaVuSans-36" transform="scale(0.015625)"/>
       </defs>
       <use xlink:href="#DejaVuSans-36"/>
      </g>
     </g>
    </g>
    <g id="xtick_5">
     <g id="line2d_13">
      <path clip-path="url(#pf73cff19ed)" d="M 100.9152 298.944 
L 100.9152 6.912 
" style="fill:none;stroke:#b0b0b0;stroke-linecap:square;stroke-width:0.8;"/>
     </g>
     <g id="line2d_14">
      <defs>
       <path d="M 0 0 
L 0 2 
" id="mb6df06832e" style="stroke:#000000;stroke-width:0.6;"/>
      </defs>
      <g>
       <use style="stroke:#000000;stroke-width:0.6;" x="100.9152" xlink:href="#mb6df06832e" y="298.944"/>
      </g>
     </g>
    </g>
    <g id="xtick_6">
     <g id="line2d_15">
      <path clip-path="url(#pf73cff19ed)" d="M 187.5456 298.944 
L 187.5456 6.912 
" style="fill:none;stroke:#b0b0b0;stroke-linecap:square;stroke-width:0.8;"/>
     </g>
     <g id="line2d_16">
      <g>
       <use style="stroke:#000000;stroke-width:0.6;" x="187.5456" xlink:href="#mb6df06832e" y="298.944"/>
      </g>
     </g>
    </g>
    <g id="xtick_7">
     <g id="line2d_17">
      <path clip-path="url(#pf73cff19ed)" d="M 274.176 298.944 
L 274.176 6.912 
" style="fill:none;stroke:#b0b0b0;stroke-linecap:square;stroke-width:0.8;"/>
     </g>
     <g id="line2d_18">
      <g>
       <use style="stroke:#000000;stroke-width:0.6;" x="274.176" xlink:href="#mb6df06832e" y="298.944"/>
      </g>
     </g>
    </g>
    <g id="xtick_8">
     <g id="line2d_19">
      <path clip-path="url(#pf73cff19ed)" d="M 360.8064 298.944 
L 360.8064 6.912 
" style="fill:none;stroke:#b0b0b0;stroke-linecap:square;stroke-width:0.8;"/>
     </g>
     <g id="line2d_20">
      <g>
       <use style="stroke:#000000;stroke-width:0.6;" x="360.8064" xlink:href="#mb6df06832e" y="298.944"/>
      </g>
     </g>
    </g>
    <g id="text_5">
     <!-- log10(# f-evals / dimension) -->
     <g transform="translate(88.823278 339.314156)scale(0.17 -0.17)">
      <defs>
       <path d="M 603 4863 
L 1178 4863 
L 1178 0 
L 603 0 
L 603 4863 
z
" id="DejaVuSans-6c" transform="scale(0.015625)"/>
       <path d="M 1959 3097 
Q 1497 3097 1228 2736 
Q 959 2375 959 1747 
Q 959 1119 1226 758 
Q 1494 397 1959 397 
Q 2419 397 2687 759 
Q 2956 1122 2956 1747 
Q 2956 2369 2687 2733 
Q 2419 3097 1959 3097 
z
M 1959 3584 
Q 2709 3584 3137 3096 
Q 3566 2609 3566 1747 
Q 3566 888 3137 398 
Q 2709 -91 1959 -91 
Q 1206 -91 779 398 
Q 353 888 353 1747 
Q 353 2609 779 3096 
Q 1206 3584 1959 3584 
z
" id="DejaVuSans-6f" transform="scale(0.015625)"/>
       <path d="M 2906 1791 
Q 2906 2416 2648 2759 
Q 2391 3103 1925 3103 
Q 1463 3103 1205 2759 
Q 947 2416 947 1791 
Q 947 1169 1205 825 
Q 1463 481 1925 481 
Q 2391 481 2648 825 
Q 2906 1169 2906 1791 
z
M 3481 434 
Q 3481 -459 3084 -895 
Q 2688 -1331 1869 -1331 
Q 1566 -1331 1297 -1286 
Q 1028 -1241 775 -1147 
L 775 -588 
Q 1028 -725 1275 -790 
Q 1522 -856 1778 -856 
Q 2344 -856 2625 -561 
Q 2906 -266 2906 331 
L 2906 616 
Q 2728 306 2450 153 
Q 2172 0 1784 0 
Q 1141 0 747 490 
Q 353 981 353 1791 
Q 353 2603 747 3093 
Q 1141 3584 1784 3584 
Q 2172 3584 2450 3431 
Q 2728 3278 2906 2969 
L 2906 3500 
L 3481 3500 
L 3481 434 
z
" id="DejaVuSans-67" transform="scale(0.015625)"/>
       <path d="M 794 531 
L 1825 531 
L 1825 4091 
L 703 3866 
L 703 4441 
L 1819 4666 
L 2450 4666 
L 2450 531 
L 3481 531 
L 3481 0 
L 794 0 
L 794 531 
z
" id="DejaVuSans-31" transform="scale(0.015625)"/>
       <path d="M 1984 4856 
Q 1566 4138 1362 3434 
Q 1159 2731 1159 2009 
Q 1159 1288 1364 580 
Q 1569 -128 1984 -844 
L 1484 -844 
Q 1016 -109 783 600 
Q 550 1309 550 2009 
Q 550 2706 781 3412 
Q 1013 4119 1484 4856 
L 1984 4856 
z
" id="DejaVuSans-28" transform="scale(0.015625)"/>
       <path d="M 3272 2816 
L 2363 2816 
L 2100 1772 
L 3016 1772 
L 3272 2816 
z
M 2803 4594 
L 2478 3297 
L 3391 3297 
L 3719 4594 
L 4219 4594 
L 3897 3297 
L 4872 3297 
L 4872 2816 
L 3775 2816 
L 3519 1772 
L 4513 1772 
L 4513 1294 
L 3397 1294 
L 3072 0 
L 2572 0 
L 2894 1294 
L 1978 1294 
L 1656 0 
L 1153 0 
L 1478 1294 
L 494 1294 
L 494 1772 
L 1594 1772 
L 1856 2816 
L 850 2816 
L 850 3297 
L 1978 3297 
L 2297 4594 
L 2803 4594 
z
" id="DejaVuSans-23" transform="scale(0.015625)"/>
       <path id="DejaVuSans-20" transform="scale(0.015625)"/>
       <path d="M 2375 4863 
L 2375 4384 
L 1825 4384 
Q 1516 4384 1395 4259 
Q 1275 4134 1275 3809 
L 1275 3500 
L 2222 3500 
L 2222 3053 
L 1275 3053 
L 1275 0 
L 697 0 
L 697 3053 
L 147 3053 
L 147 3500 
L 697 3500 
L 697 3744 
Q 697 4328 969 4595 
Q 1241 4863 1831 4863 
L 2375 4863 
z
" id="DejaVuSans-66" transform="scale(0.015625)"/>
       <path d="M 313 2009 
L 1997 2009 
L 1997 1497 
L 313 1497 
L 313 2009 
z
" id="DejaVuSans-2d" transform="scale(0.015625)"/>
       <path d="M 3597 1894 
L 3597 1613 
L 953 1613 
Q 991 1019 1311 708 
Q 1631 397 2203 397 
Q 2534 397 2845 478 
Q 3156 559 3463 722 
L 3463 178 
Q 3153 47 2828 -22 
Q 2503 -91 2169 -91 
Q 1331 -91 842 396 
Q 353 884 353 1716 
Q 353 2575 817 3079 
Q 1281 3584 2069 3584 
Q 2775 3584 3186 3129 
Q 3597 2675 3597 1894 
z
M 3022 2063 
Q 3016 2534 2758 2815 
Q 2500 3097 2075 3097 
Q 1594 3097 1305 2825 
Q 1016 2553 972 2059 
L 3022 2063 
z
" id="DejaVuSans-65" transform="scale(0.015625)"/>
       <path d="M 191 3500 
L 800 3500 
L 1894 563 
L 2988 3500 
L 3597 3500 
L 2284 0 
L 1503 0 
L 191 3500 
z
" id="DejaVuSans-76" transform="scale(0.015625)"/>
       <path d="M 2194 1759 
Q 1497 1759 1228 1600 
Q 959 1441 959 1056 
Q 959 750 1161 570 
Q 1363 391 1709 391 
Q 2188 391 2477 730 
Q 2766 1069 2766 1631 
L 2766 1759 
L 2194 1759 
z
M 3341 1997 
L 3341 0 
L 2766 0 
L 2766 531 
Q 2569 213 2275 61 
Q 1981 -91 1556 -91 
Q 1019 -91 701 211 
Q 384 513 384 1019 
Q 384 1609 779 1909 
Q 1175 2209 1959 2209 
L 2766 2209 
L 2766 2266 
Q 2766 2663 2505 2880 
Q 2244 3097 1772 3097 
Q 1472 3097 1187 3025 
Q 903 2953 641 2809 
L 641 3341 
Q 956 3463 1253 3523 
Q 1550 3584 1831 3584 
Q 2591 3584 2966 3190 
Q 3341 2797 3341 1997 
z
" id="DejaVuSans-61" transform="scale(0.015625)"/>
       <path d="M 2834 3397 
L 2834 2853 
Q 2591 2978 2328 3040 
Q 2066 3103 1784 3103 
Q 1356 3103 1142 2972 
Q 928 2841 928 2578 
Q 928 2378 1081 2264 
Q 1234 2150 1697 2047 
L 1894 2003 
Q 2506 1872 2764 1633 
Q 3022 1394 3022 966 
Q 3022 478 2636 193 
Q 2250 -91 1575 -91 
Q 1294 -91 989 -36 
Q 684 19 347 128 
L 347 722 
Q 666 556 975 473 
Q 1284 391 1588 391 
Q 1994 391 2212 530 
Q 2431 669 2431 922 
Q 2431 1156 2273 1281 
Q 2116 1406 1581 1522 
L 1381 1569 
Q 847 1681 609 1914 
Q 372 2147 372 2553 
Q 372 3047 722 3315 
Q 1072 3584 1716 3584 
Q 2034 3584 2315 3537 
Q 2597 3491 2834 3397 
z
" id="DejaVuSans-73" transform="scale(0.015625)"/>
       <path d="M 1625 4666 
L 2156 4666 
L 531 -594 
L 0 -594 
L 1625 4666 
z
" id="DejaVuSans-2f" transform="scale(0.015625)"/>
       <path d="M 2906 2969 
L 2906 4863 
L 3481 4863 
L 3481 0 
L 2906 0 
L 2906 525 
Q 2725 213 2448 61 
Q 2172 -91 1784 -91 
Q 1150 -91 751 415 
Q 353 922 353 1747 
Q 353 2572 751 3078 
Q 1150 3584 1784 3584 
Q 2172 3584 2448 3432 
Q 2725 3281 2906 2969 
z
M 947 1747 
Q 947 1113 1208 752 
Q 1469 391 1925 391 
Q 2381 391 2643 752 
Q 2906 1113 2906 1747 
Q 2906 2381 2643 2742 
Q 2381 3103 1925 3103 
Q 1469 3103 1208 2742 
Q 947 2381 947 1747 
z
" id="DejaVuSans-64" transform="scale(0.015625)"/>
       <path d="M 603 3500 
L 1178 3500 
L 1178 0 
L 603 0 
L 603 3500 
z
M 603 4863 
L 1178 4863 
L 1178 4134 
L 603 4134 
L 603 4863 
z
" id="DejaVuSans-69" transform="scale(0.015625)"/>
       <path d="M 3328 2828 
Q 3544 3216 3844 3400 
Q 4144 3584 4550 3584 
Q 5097 3584 5394 3201 
Q 5691 2819 5691 2113 
L 5691 0 
L 5113 0 
L 5113 2094 
Q 5113 2597 4934 2840 
Q 4756 3084 4391 3084 
Q 3944 3084 3684 2787 
Q 3425 2491 3425 1978 
L 3425 0 
L 2847 0 
L 2847 2094 
Q 2847 2600 2669 2842 
Q 2491 3084 2119 3084 
Q 1678 3084 1418 2786 
Q 1159 2488 1159 1978 
L 1159 0 
L 581 0 
L 581 3500 
L 1159 3500 
L 1159 2956 
Q 1356 3278 1631 3431 
Q 1906 3584 2284 3584 
Q 2666 3584 2933 3390 
Q 3200 3197 3328 2828 
z
" id="DejaVuSans-6d" transform="scale(0.015625)"/>
       <path d="M 3513 2113 
L 3513 0 
L 2938 0 
L 2938 2094 
Q 2938 2591 2744 2837 
Q 2550 3084 2163 3084 
Q 1697 3084 1428 2787 
Q 1159 2491 1159 1978 
L 1159 0 
L 581 0 
L 581 3500 
L 1159 3500 
L 1159 2956 
Q 1366 3272 1645 3428 
Q 1925 3584 2291 3584 
Q 2894 3584 3203 3211 
Q 3513 2838 3513 2113 
z
" id="DejaVuSans-6e" transform="scale(0.015625)"/>
       <path d="M 513 4856 
L 1013 4856 
Q 1481 4119 1714 3412 
Q 1947 2706 1947 2009 
Q 1947 1309 1714 600 
Q 1481 -109 1013 -844 
L 513 -844 
Q 928 -128 1133 580 
Q 1338 1288 1338 2009 
Q 1338 2731 1133 3434 
Q 928 4138 513 4856 
z
" id="DejaVuSans-29" transform="scale(0.015625)"/>
      </defs>
      <use xlink:href="#DejaVuSans-6c"/>
      <use x="27.783203" xlink:href="#DejaVuSans-6f"/>
      <use x="88.964844" xlink:href="#DejaVuSans-67"/>
      <use x="152.441406" xlink:href="#DejaVuSans-31"/>
      <use x="216.064453" xlink:href="#DejaVuSans-30"/>
      <use x="279.6875" xlink:href="#DejaVuSans-28"/>
      <use x="318.701172" xlink:href="#DejaVuSans-23"/>
      <use x="402.490234" xlink:href="#DejaVuSans-20"/>
      <use x="434.277344" xlink:href="#DejaVuSans-66"/>
      <use x="463.982422" xlink:href="#DejaVuSans-2d"/>
      <use x="500.066406" xlink:href="#DejaVuSans-65"/>
      <use x="561.589844" xlink:href="#DejaVuSans-76"/>
      <use x="620.769531" xlink:href="#DejaVuSans-61"/>
      <use x="682.048828" xlink:href="#DejaVuSans-6c"/>
      <use x="709.832031" xlink:href="#DejaVuSans-73"/>
      <use x="761.931641" xlink:href="#DejaVuSans-20"/>
      <use x="793.71875" xlink:href="#DejaVuSans-2f"/>
      <use x="827.410156" xlink:href="#DejaVuSans-20"/>
      <use x="859.197266" xlink:href="#DejaVuSans-64"/>
      <use x="922.673828" xlink:href="#DejaVuSans-69"/>
      <use x="950.457031" xlink:href="#DejaVuSans-6d"/>
      <use x="1047.869141" xlink:href="#DejaVuSans-65"/>
      <use x="1109.392578" xlink:href="#DejaVuSans-6e"/>
      <use x="1172.771484" xlink:href="#DejaVuSans-73"/>
      <use x="1224.871094" xlink:href="#DejaVuSans-69"/>
      <use x="1252.654297" xlink:href="#DejaVuSans-6f"/>
      <use x="1313.835938" xlink:href="#DejaVuSans-6e"/>
      <use x="1377.214844" xlink:href="#DejaVuSans-29"/>
     </g>
    </g>
   </g>
   <g id="matplotlib.axis_2">
    <g id="ytick_1">
     <g id="line2d_21">
      <path clip-path="url(#pf73cff19ed)" d="M 57.6 298.944 
L 360.8064 298.944 
" style="fill:none;stroke:#b0b0b0;stroke-linecap:square;stroke-width:0.8;"/>
     </g>
     <g id="line2d_22">
      <defs>
       <path d="M 0 0 
L -3.5 0 
" id="mc5d15ba219" style="stroke:#000000;stroke-width:0.8;"/>
      </defs>
      <g>
       <use style="stroke:#000000;stroke-width:0.8;" x="57.6" xlink:href="#mc5d15ba219" y="298.944"/>
      </g>
     </g>
     <g id="text_6">
      <!-- 0.0 -->
      <g transform="translate(25.155 305.02275)scale(0.16 -0.16)">
       <defs>
        <path d="M 684 794 
L 1344 794 
L 1344 0 
L 684 0 
L 684 794 
z
" id="DejaVuSans-2e" transform="scale(0.015625)"/>
       </defs>
       <use xlink:href="#DejaVuSans-30"/>
       <use x="63.623047" xlink:href="#DejaVuSans-2e"/>
       <use x="95.410156" xlink:href="#DejaVuSans-30"/>
      </g>
     </g>
    </g>
    <g id="ytick_2">
     <g id="line2d_23">
      <path clip-path="url(#pf73cff19ed)" d="M 57.6 240.5376 
L 360.8064 240.5376 
" style="fill:none;stroke:#b0b0b0;stroke-linecap:square;stroke-width:0.8;"/>
     </g>
     <g id="line2d_24">
      <g>
       <use style="stroke:#000000;stroke-width:0.8;" x="57.6" xlink:href="#mc5d15ba219" y="240.5376"/>
      </g>
     </g>
     <g id="text_7">
      <!-- 0.2 -->
      <g transform="translate(25.155 246.61635)scale(0.16 -0.16)">
       <use xlink:href="#DejaVuSans-30"/>
       <use x="63.623047" xlink:href="#DejaVuSans-2e"/>
       <use x="95.410156" xlink:href="#DejaVuSans-32"/>
      </g>
     </g>
    </g>
    <g id="ytick_3">
     <g id="line2d_25">
      <path clip-path="url(#pf73cff19ed)" d="M 57.6 182.1312 
L 360.8064 182.1312 
" style="fill:none;stroke:#b0b0b0;stroke-linecap:square;stroke-width:0.8;"/>
     </g>
     <g id="line2d_26">
      <g>
       <use style="stroke:#000000;stroke-width:0.8;" x="57.6" xlink:href="#mc5d15ba219" y="182.1312"/>
      </g>
     </g>
     <g id="text_8">
      <!-- 0.4 -->
      <g transform="translate(25.155 188.20995)scale(0.16 -0.16)">
       <use xlink:href="#DejaVuSans-30"/>
       <use x="63.623047" xlink:href="#DejaVuSans-2e"/>
       <use x="95.410156" xlink:href="#DejaVuSans-34"/>
      </g>
     </g>
    </g>
    <g id="ytick_4">
     <g id="line2d_27">
      <path clip-path="url(#pf73cff19ed)" d="M 57.6 123.7248 
L 360.8064 123.7248 
" style="fill:none;stroke:#b0b0b0;stroke-linecap:square;stroke-width:0.8;"/>
     </g>
     <g id="line2d_28">
      <g>
       <use style="stroke:#000000;stroke-width:0.8;" x="57.6" xlink:href="#mc5d15ba219" y="123.7248"/>
      </g>
     </g>
     <g id="text_9">
      <!-- 0.6 -->
      <g transform="translate(25.155 129.80355)scale(0.16 -0.16)">
       <use xlink:href="#DejaVuSans-30"/>
       <use x="63.623047" xlink:href="#DejaVuSans-2e"/>
       <use x="95.410156" xlink:href="#DejaVuSans-36"/>
      </g>
     </g>
    </g>
    <g id="ytick_5">
     <g id="line2d_29">
      <path clip-path="url(#pf73cff19ed)" d="M 57.6 65.3184 
L 360.8064 65.3184 
" style="fill:none;stroke:#b0b0b0;stroke-linecap:square;stroke-width:0.8;"/>
     </g>
     <g id="line2d_30">
      <g>
       <use style="stroke:#000000;stroke-width:0.8;" x="57.6" xlink:href="#mc5d15ba219" y="65.3184"/>
      </g>
     </g>
     <g id="text_10">
      <!-- 0.8 -->
      <g transform="translate(25.155 71.39715)scale(0.16 -0.16)">
       <defs>
        <path d="M 2034 2216 
Q 1584 2216 1326 1975 
Q 1069 1734 1069 1313 
Q 1069 891 1326 650 
Q 1584 409 2034 409 
Q 2484 409 2743 651 
Q 3003 894 3003 1313 
Q 3003 1734 2745 1975 
Q 2488 2216 2034 2216 
z
M 1403 2484 
Q 997 2584 770 2862 
Q 544 3141 544 3541 
Q 544 4100 942 4425 
Q 1341 4750 2034 4750 
Q 2731 4750 3128 4425 
Q 3525 4100 3525 3541 
Q 3525 3141 3298 2862 
Q 3072 2584 2669 2484 
Q 3125 2378 3379 2068 
Q 3634 1759 3634 1313 
Q 3634 634 3220 271 
Q 2806 -91 2034 -91 
Q 1263 -91 848 271 
Q 434 634 434 1313 
Q 434 1759 690 2068 
Q 947 2378 1403 2484 
z
M 1172 3481 
Q 1172 3119 1398 2916 
Q 1625 2713 2034 2713 
Q 2441 2713 2670 2916 
Q 2900 3119 2900 3481 
Q 2900 3844 2670 4047 
Q 2441 4250 2034 4250 
Q 1625 4250 1398 4047 
Q 1172 3844 1172 3481 
z
" id="DejaVuSans-38" transform="scale(0.015625)"/>
       </defs>
       <use xlink:href="#DejaVuSans-30"/>
       <use x="63.623047" xlink:href="#DejaVuSans-2e"/>
       <use x="95.410156" xlink:href="#DejaVuSans-38"/>
      </g>
     </g>
    </g>
    <g id="ytick_6">
     <g id="line2d_31">
      <path clip-path="url(#pf73cff19ed)" d="M 57.6 6.912 
L 360.8064 6.912 
" style="fill:none;stroke:#b0b0b0;stroke-linecap:square;stroke-width:0.8;"/>
     </g>
     <g id="line2d_32">
      <g>
       <use style="stroke:#000000;stroke-width:0.8;" x="57.6" xlink:href="#mc5d15ba219" y="6.912"/>
      </g>
     </g>
     <g id="text_11">
      <!-- 1.0 -->
      <g transform="translate(25.155 12.99075)scale(0.16 -0.16)">
       <use xlink:href="#DejaVuSans-31"/>
       <use x="63.623047" xlink:href="#DejaVuSans-2e"/>
       <use x="95.410156" xlink:href="#DejaVuSans-30"/>
      </g>
     </g>
    </g>
    <g id="text_12">
     <!-- Fraction of function,target pairs -->
     <g transform="translate(17.619531 287.313)rotate(-90)scale(0.17 -0.17)">
      <defs>
       <path d="M 628 4666 
L 3309 4666 
L 3309 4134 
L 1259 4134 
L 1259 2759 
L 3109 2759 
L 3109 2228 
L 1259 2228 
L 1259 0 
L 628 0 
L 628 4666 
z
" id="DejaVuSans-46" transform="scale(0.015625)"/>
       <path d="M 2631 2963 
Q 2534 3019 2420 3045 
Q 2306 3072 2169 3072 
Q 1681 3072 1420 2755 
Q 1159 2438 1159 1844 
L 1159 0 
L 581 0 
L 581 3500 
L 1159 3500 
L 1159 2956 
Q 1341 3275 1631 3429 
Q 1922 3584 2338 3584 
Q 2397 3584 2469 3576 
Q 2541 3569 2628 3553 
L 2631 2963 
z
" id="DejaVuSans-72" transform="scale(0.015625)"/>
       <path d="M 3122 3366 
L 3122 2828 
Q 2878 2963 2633 3030 
Q 2388 3097 2138 3097 
Q 1578 3097 1268 2742 
Q 959 2388 959 1747 
Q 959 1106 1268 751 
Q 1578 397 2138 397 
Q 2388 397 2633 464 
Q 2878 531 3122 666 
L 3122 134 
Q 2881 22 2623 -34 
Q 2366 -91 2075 -91 
Q 1284 -91 818 406 
Q 353 903 353 1747 
Q 353 2603 823 3093 
Q 1294 3584 2113 3584 
Q 2378 3584 2631 3529 
Q 2884 3475 3122 3366 
z
" id="DejaVuSans-63" transform="scale(0.015625)"/>
       <path d="M 1172 4494 
L 1172 3500 
L 2356 3500 
L 2356 3053 
L 1172 3053 
L 1172 1153 
Q 1172 725 1289 603 
Q 1406 481 1766 481 
L 2356 481 
L 2356 0 
L 1766 0 
Q 1100 0 847 248 
Q 594 497 594 1153 
L 594 3053 
L 172 3053 
L 172 3500 
L 594 3500 
L 594 4494 
L 1172 4494 
z
" id="DejaVuSans-74" transform="scale(0.015625)"/>
       <path d="M 544 1381 
L 544 3500 
L 1119 3500 
L 1119 1403 
Q 1119 906 1312 657 
Q 1506 409 1894 409 
Q 2359 409 2629 706 
Q 2900 1003 2900 1516 
L 2900 3500 
L 3475 3500 
L 3475 0 
L 2900 0 
L 2900 538 
Q 2691 219 2414 64 
Q 2138 -91 1772 -91 
Q 1169 -91 856 284 
Q 544 659 544 1381 
z
M 1991 3584 
L 1991 3584 
z
" id="DejaVuSans-75" transform="scale(0.015625)"/>
       <path d="M 750 794 
L 1409 794 
L 1409 256 
L 897 -744 
L 494 -744 
L 750 256 
L 750 794 
z
" id="DejaVuSans-2c" transform="scale(0.015625)"/>
       <path d="M 1159 525 
L 1159 -1331 
L 581 -1331 
L 581 3500 
L 1159 3500 
L 1159 2969 
Q 1341 3281 1617 3432 
Q 1894 3584 2278 3584 
Q 2916 3584 3314 3078 
Q 3713 2572 3713 1747 
Q 3713 922 3314 415 
Q 2916 -91 2278 -91 
Q 1894 -91 1617 61 
Q 1341 213 1159 525 
z
M 3116 1747 
Q 3116 2381 2855 2742 
Q 2594 3103 2138 3103 
Q 1681 3103 1420 2742 
Q 1159 2381 1159 1747 
Q 1159 1113 1420 752 
Q 1681 391 2138 391 
Q 2594 391 2855 752 
Q 3116 1113 3116 1747 
z
" id="DejaVuSans-70" transform="scale(0.015625)"/>
      </defs>
      <use xlink:href="#DejaVuSans-46"/>
      <use x="50.269531" xlink:href="#DejaVuSans-72"/>
      <use x="91.382812" xlink:href="#DejaVuSans-61"/>
      <use x="152.662109" xlink:href="#DejaVuSans-63"/>
      <use x="207.642578" xlink:href="#DejaVuSans-74"/>
      <use x="246.851562" xlink:href="#DejaVuSans-69"/>
      <use x="274.634766" xlink:href="#DejaVuSans-6f"/>
      <use x="335.816406" xlink:href="#DejaVuSans-6e"/>
      <use x="399.195312" xlink:href="#DejaVuSans-20"/>
      <use x="430.982422" xlink:href="#DejaVuSans-6f"/>
      <use x="492.164062" xlink:href="#DejaVuSans-66"/>
      <use x="527.369141" xlink:href="#DejaVuSans-20"/>
      <use x="559.15625" xlink:href="#DejaVuSans-66"/>
      <use x="594.361328" xlink:href="#DejaVuSans-75"/>
      <use x="657.740234" xlink:href="#DejaVuSans-6e"/>
      <use x="721.119141" xlink:href="#DejaVuSans-63"/>
      <use x="776.099609" xlink:href="#DejaVuSans-74"/>
      <use x="815.308594" xlink:href="#DejaVuSans-69"/>
      <use x="843.091797" xlink:href="#DejaVuSans-6f"/>
      <use x="904.273438" xlink:href="#DejaVuSans-6e"/>
      <use x="967.652344" xlink:href="#DejaVuSans-2c"/>
      <use x="999.439453" xlink:href="#DejaVuSans-74"/>
      <use x="1038.648438" xlink:href="#DejaVuSans-61"/>
      <use x="1099.927734" xlink:href="#DejaVuSans-72"/>
      <use x="1139.291016" xlink:href="#DejaVuSans-67"/>
      <use x="1202.767578" xlink:href="#DejaVuSans-65"/>
      <use x="1264.291016" xlink:href="#DejaVuSans-74"/>
      <use x="1303.5" xlink:href="#DejaVuSans-20"/>
      <use x="1335.287109" xlink:href="#DejaVuSans-70"/>
      <use x="1398.763672" xlink:href="#DejaVuSans-61"/>
      <use x="1460.042969" xlink:href="#DejaVuSans-69"/>
      <use x="1487.826172" xlink:href="#DejaVuSans-72"/>
      <use x="1528.939453" xlink:href="#DejaVuSans-73"/>
     </g>
    </g>
   </g>
   <g id="line2d_33">
    <defs>
     <path d="M 0 1.5 
C 0.397805 1.5 0.77937 1.341951 1.06066 1.06066 
C 1.341951 0.77937 1.5 0.397805 1.5 0 
C 1.5 -0.397805 1.341951 -0.77937 1.06066 -1.06066 
C 0.77937 -1.341951 0.397805 -1.5 0 -1.5 
C -0.397805 -1.5 -0.77937 -1.341951 -1.06066 -1.06066 
C -1.341951 -0.77937 -1.5 -0.397805 -1.5 0 
C -1.5 0.397805 -1.341951 0.77937 -1.06066 1.06066 
C -0.77937 1.341951 -0.397805 1.5 0 1.5 
z
" id="m1a22ee8c3a" style="stroke:#f5deb3;"/>
    </defs>
    <g>
     <use style="fill:#f5deb3;stroke:#f5deb3;" x="335.487261" xlink:href="#m1a22ee8c3a" y="6.912"/>
     <use style="fill:#f5deb3;stroke:#f5deb3;" x="335.487261" xlink:href="#m1a22ee8c3a" y="6.912"/>
    </g>
   </g>
   <g id="line2d_34">
    <defs>
     <path d="M 0 1.5 
C 0.397805 1.5 0.77937 1.341951 1.06066 1.06066 
C 1.341951 0.77937 1.5 0.397805 1.5 0 
C 1.5 -0.397805 1.341951 -0.77937 1.06066 -1.06066 
C 0.77937 -1.341951 0.397805 -1.5 0 -1.5 
C -0.397805 -1.5 -0.77937 -1.341951 -1.06066 -1.06066 
C -1.341951 -0.77937 -1.5 -0.397805 -1.5 0 
C -1.5 0.397805 -1.341951 0.77937 -1.06066 1.06066 
C -0.77937 1.341951 -0.397805 1.5 0 1.5 
z
" id="m38701d3320" style="stroke:#000080;"/>
    </defs>
    <g>
     <use style="fill:#000080;stroke:#000080;" x="275.861649" xlink:href="#m38701d3320" y="245.118494"/>
     <use style="fill:#000080;stroke:#000080;" x="275.861649" xlink:href="#m38701d3320" y="245.118494"/>
    </g>
   </g>
   <g id="line2d_35">
    <path d="M 1.245626 298.944 
L 1.245626 291.385525 
L 14.2848 291.385525 
L 14.2848 290.622042 
L 21.912228 290.622042 
L 21.912228 290.316649 
L 27.323974 290.316649 
L 27.323974 290.163953 
L 37.851216 290.087605 
L 37.851216 289.934908 
L 44.560826 289.85856 
L 44.560826 289.782212 
L 52.188254 289.705864 
L 52.188254 289.553167 
L 61.797677 289.476819 
L 61.797677 289.400471 
L 69.172597 289.324122 
L 69.172597 289.095078 
L 74.456807 289.018729 
L 74.456807 288.942381 
L 87.303041 288.866033 
L 87.303041 288.789685 
L 91.770283 288.713336 
L 91.770283 288.636988 
L 99.851024 288.636988 
L 99.851024 288.484292 
L 114.094935 288.407944 
L 114.094935 288.331595 
L 116.786884 288.255247 
L 116.786884 288.178899 
L 118.853643 288.102551 
L 118.853643 288.026202 
L 120.976468 287.949854 
L 121.041112 287.797158 
L 128.200269 287.720809 
L 128.200269 287.644461 
L 130.24611 287.568113 
L 130.24611 287.491765 
L 131.582177 287.415416 
L 131.582177 287.339068 
L 132.898456 287.26272 
L 132.898456 287.186372 
L 133.934523 287.110024 
L 133.934523 287.033675 
L 136.025138 286.957327 
L 136.025138 286.880979 
L 137.01694 286.804631 
L 137.01694 286.728282 
L 138.115933 286.651934 
L 138.193882 286.041148 
L 138.65491 285.9648 
L 138.65491 285.888452 
L 139.055437 285.812104 
L 139.15425 285.583059 
L 139.688636 285.506711 
L 139.712569 285.277666 
L 140.278019 285.201318 
L 140.278019 285.124969 
L 141.051049 285.048621 
L 141.051049 284.972273 
L 142.006486 284.972273 
L 142.006486 284.361487 
L 142.425236 284.285139 
L 142.466603 284.132442 
L 142.733292 284.056094 
L 142.733292 283.521656 
L 142.895549 283.521656 
L 142.996254 283.139915 
L 143.898283 283.063567 
L 143.974714 282.834522 
L 144.202161 282.758174 
L 144.202161 282.681826 
L 144.408266 282.681826 
L 144.501209 281.536602 
L 144.538258 281.536602 
L 144.538258 281.383906 
L 144.850261 281.307558 
L 144.959156 280.009638 
L 145.049423 279.933289 
L 145.049423 279.856941 
L 145.511953 279.856941 
L 145.599611 279.169807 
L 145.773713 279.093459 
L 145.773713 279.017111 
L 145.963382 279.017111 
L 145.963382 278.864414 
L 146.151158 278.864414 
L 146.151158 278.635369 
L 146.30341 278.559021 
L 146.353889 278.406325 
L 146.471147 278.406325 
L 146.554458 277.566494 
L 147.256098 277.490146 
L 147.256098 277.413798 
L 147.54221 277.337449 
L 147.636622 276.955708 
L 147.714939 276.87936 
L 147.714939 276.803012 
L 147.886095 276.803012 
L 147.886095 276.497619 
L 148.284563 276.497619 
L 148.284563 276.192226 
L 149.042477 276.115878 
L 149.042477 276.039529 
L 149.259702 275.963181 
L 149.259702 275.886833 
L 149.67269 275.810485 
L 149.67269 275.734136 
L 150.021579 275.657788 
L 150.021579 275.58144 
L 150.145612 275.58144 
L 150.145612 275.428744 
L 150.296105 275.428744 
L 150.364115 274.894306 
L 150.512877 274.894306 
L 150.620334 274.665261 
L 150.820175 274.588913 
L 150.912713 274.436216 
L 151.509749 274.359868 
L 151.573517 274.207172 
L 152.125546 274.130824 
L 152.125546 274.054475 
L 152.781618 273.978127 
L 152.876897 273.825431 
L 152.94804 273.825431 
L 152.94804 273.672734 
L 153.253258 273.672734 
L 153.253258 273.520038 
L 153.82665 273.443689 
L 153.82665 273.367341 
L 154.492419 273.290993 
L 154.525097 273.138296 
L 154.795227 273.061948 
L 154.859485 272.909252 
L 154.966097 272.832904 
L 154.966097 272.756555 
L 155.838553 272.680207 
L 155.838553 272.603859 
L 156.140591 272.527511 
L 156.140591 272.451162 
L 156.846291 272.374814 
L 156.846291 272.298466 
L 157.264871 272.222118 
L 157.264871 272.145769 
L 157.591307 272.069421 
L 157.67434 271.840376 
L 157.948499 271.764028 
L 158.048031 271.534984 
L 158.272301 271.458635 
L 158.272301 271.382287 
L 158.590624 271.305939 
L 158.590624 271.229591 
L 159.581159 271.153242 
L 159.672437 270.924198 
L 159.738544 270.847849 
L 159.738544 270.771501 
L 159.951802 270.695153 
L 159.951802 270.618805 
L 160.194901 270.618805 
L 160.227078 270.313412 
L 161.021829 270.237064 
L 161.044929 270.084367 
L 161.281989 270.008019 
L 161.281989 269.931671 
L 161.650707 269.855322 
L 161.650707 269.778974 
L 162.056144 269.702626 
L 162.056144 269.626278 
L 162.374317 269.549929 
L 162.374317 269.473581 
L 162.66603 269.397233 
L 162.680145 269.244536 
L 163.098739 269.168188 
L 163.153855 269.015492 
L 163.842777 268.939144 
L 163.856036 268.786447 
L 164.475322 268.710099 
L 164.564886 268.481054 
L 165.050006 268.404706 
L 165.050006 268.328358 
L 165.43173 268.252009 
L 165.535057 268.099313 
L 165.89527 268.022965 
L 165.930915 267.870268 
L 166.561235 267.79392 
L 166.561235 267.717572 
L 167.093166 267.717572 
L 167.093166 267.564875 
L 167.315036 267.488527 
L 167.315036 267.412179 
L 168.034484 267.335831 
L 168.034484 267.259482 
L 168.859958 267.183134 
L 168.956219 267.030438 
L 169.484403 266.954089 
L 169.484403 266.877741 
L 169.940698 266.801393 
L 169.940698 266.725045 
L 170.3111 266.648696 
L 170.348681 266.419652 
L 170.67435 266.343304 
L 170.67435 266.266955 
L 170.939983 266.190607 
L 170.939983 266.114259 
L 171.81954 266.037911 
L 171.81954 265.961562 
L 172.043875 265.885214 
L 172.043875 265.808866 
L 172.501425 265.732518 
L 172.564102 265.579821 
L 172.738496 265.503473 
L 172.738496 265.427125 
L 172.8949 265.350776 
L 172.8949 265.274428 
L 173.744378 265.19808 
L 173.744378 265.121732 
L 173.931501 265.045384 
L 173.931501 264.969035 
L 174.197271 264.892687 
L 174.258366 264.739991 
L 175.472555 264.663642 
L 175.561692 264.434598 
L 176.101656 264.358249 
L 176.101656 264.281901 
L 176.700357 264.205553 
L 176.700357 264.129205 
L 176.999302 264.052856 
L 176.999302 263.976508 
L 177.2546 263.90016 
L 177.2546 263.823812 
L 177.915787 263.747464 
L 177.915787 263.671115 
L 178.325593 263.594767 
L 178.365474 263.442071 
L 179.489597 263.365722 
L 179.489597 263.289374 
L 180.225567 263.213026 
L 180.225567 263.136678 
L 180.610247 263.060329 
L 180.610247 262.983981 
L 181.500004 262.907633 
L 181.500004 262.831285 
L 182.069785 262.754936 
L 182.069785 262.678588 
L 183.327926 262.60224 
L 183.327926 262.525892 
L 183.654624 262.449544 
L 183.654624 262.373195 
L 184.345076 262.296847 
L 184.376271 262.144151 
L 184.750993 262.067802 
L 184.750993 261.991454 
L 185.700016 261.915106 
L 185.700016 261.838758 
L 186.392631 261.762409 
L 186.392631 261.686061 
L 187.385967 261.609713 
L 187.385967 261.533365 
L 187.702024 261.457016 
L 187.741161 261.30432 
L 188.387122 261.227972 
L 188.482221 260.998927 
L 189.358189 260.922579 
L 189.358189 260.846231 
L 190.565691 260.769882 
L 190.565691 260.693534 
L 191.820621 260.617186 
L 191.820621 260.540838 
L 192.759018 260.464489 
L 192.807434 260.159096 
L 193.720681 260.082748 
L 193.720681 260.0064 
L 194.954173 259.930052 
L 195.022563 259.777355 
L 195.321055 259.701007 
L 195.321055 259.624659 
L 196.502551 259.548311 
L 196.502551 259.395614 
L 199.713199 259.319266 
L 199.713199 259.242918 
L 200.188887 259.166569 
L 200.188887 259.090221 
L 202.939149 259.090221 
L 202.98474 258.784828 
L 203.52338 258.70848 
L 203.52338 258.632132 
L 204.394343 258.555784 
L 204.47865 258.250391 
L 204.610482 258.250391 
L 204.610482 258.097694 
L 205.119895 258.021346 
L 205.119895 257.868649 
L 205.372438 257.868649 
L 205.372438 257.715953 
L 206.133463 257.639605 
L 206.178929 257.486908 
L 207.536476 257.41056 
L 207.536476 257.334212 
L 208.283863 257.334212 
L 208.283863 257.105167 
L 208.503706 257.028819 
L 208.503706 256.952471 
L 210.075972 256.952471 
L 210.140036 256.723426 
L 211.053071 256.647078 
L 211.053071 256.570729 
L 211.485852 256.494381 
L 211.485852 256.418033 
L 211.698565 256.418033 
L 211.698565 256.11264 
L 214.80529 256.036292 
L 214.80529 255.959944 
L 215.388429 255.883595 
L 215.425644 255.730899 
L 215.675676 255.730899 
L 215.675676 255.578202 
L 216.528129 255.578202 
L 216.528129 255.425506 
L 216.837502 255.349158 
L 216.837502 255.272809 
L 217.821061 255.196461 
L 217.821061 255.043765 
L 218.020165 254.967416 
L 218.020165 254.891068 
L 218.997269 254.81472 
L 218.997269 254.738372 
L 219.220723 254.738372 
L 219.220723 254.585675 
L 219.856688 254.585675 
L 219.856688 254.356631 
L 220.971681 254.280282 
L 220.971681 254.203934 
L 221.126651 254.203934 
L 221.126651 254.051238 
L 222.226886 253.974889 
L 222.226886 253.898541 
L 222.448832 253.822193 
L 222.448832 253.669496 
L 224.281746 253.593148 
L 224.281746 253.5168 
L 225.426592 253.440452 
L 225.486264 253.287755 
L 226.45612 253.211407 
L 226.45612 252.906014 
L 227.570526 252.829666 
L 227.675323 252.676969 
L 228.982505 252.600621 
L 228.982505 252.524273 
L 230.119995 252.447925 
L 230.119995 252.142532 
L 231.713921 252.066184 
L 231.713921 251.913487 
L 232.740493 251.837139 
L 232.740493 251.760791 
L 233.202223 251.760791 
L 233.202223 251.608094 
L 234.15596 251.531746 
L 234.15596 251.455398 
L 235.871159 251.379049 
L 235.871159 251.302701 
L 236.666976 251.302701 
L 236.666976 251.150005 
L 237.142402 251.073656 
L 237.142402 250.997308 
L 238.554266 250.92096 
L 238.554266 250.844612 
L 239.127919 250.844612 
L 239.127919 250.691915 
L 239.246339 250.691915 
L 239.246339 250.539219 
L 240.357108 250.462871 
L 240.357108 250.386522 
L 241.202725 250.386522 
L 241.202725 250.233826 
L 241.514299 250.157478 
L 241.514299 250.081129 
L 243.499044 250.004781 
L 243.538013 249.775736 
L 244.335967 249.699388 
L 244.335967 249.62304 
L 245.665824 249.546692 
L 245.665824 249.470344 
L 246.797383 249.470344 
L 246.79827 249.241299 
L 246.951961 249.241299 
L 247.03017 248.859558 
L 248.559845 248.783209 
L 248.559845 248.706861 
L 248.813989 248.706861 
L 248.813989 248.554165 
L 249.776307 248.477816 
L 249.776307 248.401468 
L 249.974433 248.32512 
L 249.974433 248.172424 
L 250.499918 248.096075 
L 250.499918 248.019727 
L 251.227711 248.019727 
L 251.290046 247.790682 
L 253.355559 247.714334 
L 253.355559 247.637986 
L 253.651031 247.561638 
L 253.651031 247.485289 
L 255.204745 247.408941 
L 255.204745 247.332593 
L 255.789105 247.256245 
L 255.789105 247.179896 
L 255.938293 247.179896 
L 255.938293 247.0272 
L 256.763786 246.950852 
L 256.763786 246.874504 
L 258.723251 246.798155 
L 258.723251 246.721807 
L 259.417129 246.645459 
L 259.417129 246.569111 
L 260.208418 246.492762 
L 260.208418 246.416414 
L 260.998562 246.340066 
L 260.998562 246.263718 
L 261.727268 246.187369 
L 261.727268 246.111021 
L 263.908538 246.034673 
L 263.908538 245.958325 
L 265.179869 245.881976 
L 265.179869 245.805628 
L 266.174031 245.72928 
L 266.174031 245.652932 
L 267.598667 245.576584 
L 267.598667 245.500235 
L 269.9777 245.423887 
L 269.9777 245.347539 
L 273.012898 245.271191 
L 273.012898 245.194842 
L 360.8064 245.118494 
L 360.8064 245.118494 
" style="fill:none;stroke:#000080;stroke-linecap:square;stroke-width:1.5;"/>
   </g>
   <g id="line2d_36">
    <defs>
     <path d="M 0 6 
C 1.591219 6 3.117479 5.367802 4.242641 4.242641 
C 5.367802 3.117479 6 1.591219 6 0 
C 6 -1.591219 5.367802 -3.117479 4.242641 -4.242641 
C 3.117479 -5.367802 1.591219 -6 0 -6 
C -1.591219 -6 -3.117479 -5.367802 -4.242641 -4.242641 
C -5.367802 -3.117479 -6 -1.591219 -6 0 
C -6 1.591219 -5.367802 3.117479 -4.242641 4.242641 
C -3.117479 5.367802 -1.591219 6 0 6 
z
" id="m6266f0dd85" style="stroke:#000080;stroke-width:1.5;"/>
    </defs>
    <g>
     <use style="fill-opacity:0;stroke:#000080;stroke-width:1.5;" x="99.851024" xlink:href="#m6266f0dd85" y="288.484292"/>
     <use style="fill-opacity:0;stroke:#000080;stroke-width:1.5;" x="185.419881" xlink:href="#m6266f0dd85" y="261.915106"/>
     <use style="fill-opacity:0;stroke:#000080;stroke-width:1.5;" x="252.519633" xlink:href="#m6266f0dd85" y="247.790682"/>
     <use style="fill-opacity:0;stroke:#000080;stroke-width:1.5;" x="275.861649" xlink:href="#m6266f0dd85" y="245.118494"/>
     <use style="fill-opacity:0;stroke:#000080;stroke-width:1.5;" x="275.861649" xlink:href="#m6266f0dd85" y="245.118494"/>
     <use style="fill-opacity:0;stroke:#000080;stroke-width:1.5;" x="360.8064" xlink:href="#m6266f0dd85" y="245.118494"/>
    </g>
   </g>
   <g id="line2d_37">
    <path style="fill:none;stroke:#000080;stroke-linecap:square;stroke-width:1.5;"/>
    <g/>
   </g>
   <g id="line2d_38">
    <path clip-path="url(#pf73cff19ed)" d="M 200.594178 259.090221 
" style="fill:none;stroke:#000080;stroke-linecap:square;stroke-width:1.5;"/>
    <defs>
     <path d="M -12 12 
L 12 -12 
M -12 -12 
L 12 12 
" id="m1a7755d587" style="stroke:#000080;"/>
    </defs>
    <g clip-path="url(#pf73cff19ed)">
     <use style="fill:#000080;stroke:#000080;" x="200.594178" xlink:href="#m1a7755d587" y="259.090221"/>
    </g>
   </g>
   <g id="line2d_39">
    <defs>
     <path d="M 0 1.5 
C 0.397805 1.5 0.77937 1.341951 1.06066 1.06066 
C 1.341951 0.77937 1.5 0.397805 1.5 0 
C 1.5 -0.397805 1.341951 -0.77937 1.06066 -1.06066 
C 0.77937 -1.341951 0.397805 -1.5 0 -1.5 
C -0.397805 -1.5 -0.77937 -1.341951 -1.06066 -1.06066 
C -1.341951 -0.77937 -1.5 -0.397805 -1.5 0 
C -1.5 0.397805 -1.341951 0.77937 -1.06066 1.06066 
C -0.77937 1.341951 -0.397805 1.5 0 1.5 
z
" id="m924c1d00aa" style="stroke:#ff00ff;"/>
    </defs>
    <g>
     <use style="fill:#ff00ff;stroke:#ff00ff;" x="303.982689" xlink:href="#m924c1d00aa" y="144.338824"/>
     <use style="fill:#ff00ff;stroke:#ff00ff;" x="303.982689" xlink:href="#m924c1d00aa" y="144.338824"/>
    </g>
   </g>
   <g id="line2d_40">
    <path d="M 1.245626 298.944 
L 1.245626 291.385525 
L 14.2848 291.385525 
L 14.2848 291.003784 
L 21.912228 291.003784 
L 21.912228 290.698391 
L 31.521651 290.622042 
L 31.521651 290.392998 
L 34.951403 290.392998 
L 34.951403 290.240301 
L 40.363149 290.240301 
L 40.363149 290.087605 
L 46.353758 290.011256 
L 46.353758 289.782212 
L 57.6 289.705864 
L 57.6 289.629515 
L 59.392932 289.553167 
L 59.392932 289.476819 
L 63.929565 289.400471 
L 63.929565 289.324122 
L 65.227428 289.247774 
L 65.227428 289.171426 
L 68.127242 289.095078 
L 68.127242 289.018729 
L 71.999638 288.942381 
L 71.999638 288.866033 
L 78.88343 288.789685 
L 78.88343 288.713336 
L 80.059535 288.636988 
L 80.059535 288.56064 
L 81.955828 288.484292 
L 81.955828 288.407944 
L 85.038813 288.331595 
L 85.038813 288.255247 
L 86.307488 288.178899 
L 86.307488 288.026202 
L 87.303041 287.949854 
L 87.303041 287.873506 
L 88.972154 287.797158 
L 88.972154 287.720809 
L 89.839199 287.644461 
L 89.839199 287.491765 
L 90.82951 287.415416 
L 90.82951 287.339068 
L 91.616719 287.26272 
L 91.616719 287.110024 
L 92.811505 287.033675 
L 92.811505 286.957327 
L 93.934916 286.880979 
L 93.934916 286.728282 
L 94.604437 286.651934 
L 94.604437 286.575586 
L 94.865713 286.575586 
L 94.865713 285.9648 
L 95.875972 285.888452 
L 95.875972 285.812104 
L 96.361458 285.735755 
L 96.361458 285.201318 
L 96.599582 285.201318 
L 96.599582 284.590532 
L 98.18704 284.514184 
L 98.295464 284.361487 
L 98.617037 284.361487 
L 98.723018 284.132442 
L 99.14107 284.056094 
L 99.14107 283.979746 
L 100.049042 283.903398 
L 100.049042 283.827049 
L 100.244997 283.827049 
L 100.244997 283.674353 
L 101.195278 283.598005 
L 101.195278 283.521656 
L 101.562344 283.445308 
L 101.653002 283.292612 
L 102.187964 283.292612 
L 102.187964 283.139915 
L 102.536336 283.139915 
L 102.536336 282.987219 
L 102.708132 282.987219 
L 102.708132 282.681826 
L 102.96292 282.605478 
L 103.047088 282.300085 
L 103.544339 282.223736 
L 103.625951 282.07104 
L 104.108325 281.994692 
L 104.108325 281.918344 
L 105.037479 281.841995 
L 105.037479 281.765647 
L 105.337272 281.765647 
L 105.337272 281.383906 
L 105.705415 281.307558 
L 105.705415 281.231209 
L 105.850679 281.231209 
L 105.922892 281.002165 
L 106.137884 280.925816 
L 106.209005 280.77312 
L 106.350446 280.77312 
L 106.42077 280.162334 
L 107.244765 280.085986 
L 107.244765 279.704245 
L 107.774703 279.627896 
L 107.774703 279.169807 
L 107.969643 279.169807 
L 108.034177 278.559021 
L 108.416798 278.482673 
L 108.416798 278.406325 
L 108.791791 278.329976 
L 108.85357 278.17728 
L 109.400633 278.100932 
L 109.400633 278.024584 
L 109.69782 277.948235 
L 109.69782 277.871887 
L 109.932235 277.871887 
L 109.932235 277.490146 
L 110.335561 277.413798 
L 110.335561 277.337449 
L 110.674517 277.261101 
L 110.73042 276.803012 
L 111.062397 276.726664 
L 111.062397 276.573967 
L 111.496112 276.573967 
L 111.602996 275.886833 
L 111.762192 275.886833 
L 111.762192 275.734136 
L 112.024561 275.734136 
L 112.076599 275.505092 
L 112.436886 275.428744 
L 112.436886 275.199699 
L 112.939899 275.123351 
L 112.939899 275.047002 
L 113.284172 274.970654 
L 113.284172 274.894306 
L 113.622258 274.817958 
L 113.622258 274.741609 
L 114.372943 274.665261 
L 114.372943 274.512565 
L 114.7824 274.436216 
L 114.7824 274.207172 
L 115.006084 274.130824 
L 115.094818 273.825431 
L 115.704505 273.749082 
L 115.704505 273.672734 
L 116.002095 273.672734 
L 116.002095 273.214645 
L 116.377921 273.214645 
L 116.377921 273.061948 
L 118.227147 272.9856 
L 118.227147 272.909252 
L 119.24818 272.832904 
L 119.24818 272.756555 
L 120.0813 272.680207 
L 120.115225 272.298466 
L 120.616896 272.222118 
L 120.616896 272.145769 
L 121.361044 272.069421 
L 121.39274 271.916725 
L 121.8 271.840376 
L 121.830966 271.611332 
L 123.116449 271.534984 
L 123.174153 271.382287 
L 123.657621 271.382287 
L 123.657621 271.229591 
L 125.063736 271.153242 
L 125.141738 271.000546 
L 125.704082 270.924198 
L 125.704082 270.695153 
L 126.176572 270.618805 
L 126.274549 270.466108 
L 127.18073 270.38976 
L 127.18073 270.313412 
L 128.000734 270.237064 
L 128.000734 270.160715 
L 128.57149 270.160715 
L 128.57149 270.008019 
L 128.807846 269.931671 
L 128.807846 269.855322 
L 129.250988 269.778974 
L 129.250988 269.702626 
L 129.765278 269.626278 
L 129.78556 269.397233 
L 130.964122 269.320885 
L 130.964122 269.244536 
L 132.621556 269.168188 
L 132.621556 269.09184 
L 132.915628 269.09184 
L 132.984158 268.862795 
L 134.400219 268.786447 
L 134.400219 268.710099 
L 135.328609 268.633751 
L 135.418977 268.328358 
L 136.198918 268.252009 
L 136.198918 268.175661 
L 137.085822 268.099313 
L 137.085822 267.870268 
L 138.271509 267.79392 
L 138.271509 267.335831 
L 138.768422 267.259482 
L 138.768422 267.183134 
L 139.104908 267.106786 
L 139.104908 266.954089 
L 139.712569 266.877741 
L 139.712569 266.801393 
L 140.26641 266.725045 
L 140.26641 266.648696 
L 140.622984 266.572348 
L 140.622984 266.496 
L 141.13994 266.419652 
L 141.13994 266.266955 
L 142.059343 266.190607 
L 142.059343 266.037911 
L 143.245681 265.961562 
L 143.245681 265.885214 
L 143.82154 265.808866 
L 143.82154 265.656169 
L 144.445498 265.579821 
L 144.445498 265.503473 
L 144.667357 265.503473 
L 144.667357 265.274428 
L 149.903682 265.19808 
L 149.903682 265.121732 
L 153.950485 265.045384 
L 153.950485 264.969035 
L 157.862113 264.892687 
L 157.862113 264.816339 
L 158.241064 264.739991 
L 158.241064 264.663642 
L 160.411036 264.587294 
L 160.411036 264.510946 
L 160.62865 264.434598 
L 160.660094 264.281901 
L 161.083367 264.205553 
L 161.087207 264.052856 
L 161.221097 264.052856 
L 161.274388 263.823812 
L 161.467251 263.747464 
L 161.546094 263.594767 
L 162.030602 263.518419 
L 162.11076 263.289374 
L 162.841709 263.213026 
L 162.841709 263.136678 
L 163.393104 263.060329 
L 163.477818 262.907633 
L 164.168227 262.831285 
L 164.168227 262.754936 
L 164.484939 262.678588 
L 164.484939 262.60224 
L 165.35539 262.525892 
L 165.35539 262.449544 
L 168.042443 262.373195 
L 168.074246 262.220499 
L 169.024318 262.144151 
L 169.024318 262.067802 
L 169.553067 261.991454 
L 169.553067 261.915106 
L 170.416606 261.838758 
L 170.416606 261.762409 
L 171.362682 261.686061 
L 171.387122 261.533365 
L 172.434338 261.457016 
L 172.434338 261.380668 
L 173.288342 261.30432 
L 173.318423 261.151624 
L 173.791334 261.075275 
L 173.89267 260.922579 
L 175.366826 260.846231 
L 175.366826 260.769882 
L 175.812564 260.693534 
L 175.812564 260.617186 
L 176.00289 260.540838 
L 176.00289 260.464489 
L 176.69031 260.388141 
L 176.79054 260.235445 
L 177.675723 260.159096 
L 177.686847 260.0064 
L 178.317914 259.930052 
L 178.317914 259.853704 
L 179.774658 259.777355 
L 179.820097 259.624659 
L 180.593921 259.548311 
L 180.593921 259.471962 
L 182.120053 259.395614 
L 182.120053 259.319266 
L 183.89712 259.242918 
L 183.89712 259.166569 
L 186.582674 259.090221 
L 186.582674 259.013873 
L 187.287054 258.937525 
L 187.287054 258.861176 
L 187.647845 258.784828 
L 187.743022 258.403087 
L 187.822898 258.326739 
L 187.913507 257.944998 
L 188.022032 257.868649 
L 188.119902 257.715953 
L 188.154537 257.715953 
L 188.263495 257.41056 
L 188.425758 257.334212 
L 188.520662 256.952471 
L 188.678074 256.876122 
L 188.771717 256.570729 
L 188.814848 256.494381 
L 188.889432 256.341685 
L 188.990744 256.265336 
L 189.100174 255.959944 
L 189.190021 255.883595 
L 189.267427 255.654551 
L 189.309438 255.578202 
L 189.370143 255.272809 
L 189.496907 255.196461 
L 189.587414 254.891068 
L 189.701827 254.81472 
L 189.75041 254.585675 
L 189.839709 254.509327 
L 189.89624 254.280282 
L 189.982372 254.203934 
L 190.081267 253.898541 
L 190.825044 253.822193 
L 190.825044 253.745845 
L 191.307098 253.669496 
L 191.370909 253.5168 
L 192.705474 253.440452 
L 192.705474 253.364104 
L 195.136624 253.287755 
L 195.136624 253.211407 
L 196.494955 253.135059 
L 196.494955 253.058711 
L 197.686764 252.982362 
L 197.73881 252.829666 
L 198.221669 252.753318 
L 198.234995 252.600621 
L 198.647143 252.524273 
L 198.682559 252.295228 
L 201.793259 252.21888 
L 201.793259 252.142532 
L 202.346471 252.142532 
L 202.346471 251.989835 
L 202.567004 251.913487 
L 202.567004 251.837139 
L 204.467176 251.760791 
L 204.565626 251.226353 
L 204.596809 251.150005 
L 204.702898 250.539219 
L 204.740266 250.462871 
L 204.839927 249.775736 
L 204.861669 249.699388 
L 204.955099 249.241299 
L 204.994202 249.164951 
L 205.084756 248.477816 
L 205.593908 248.401468 
L 205.645368 248.172424 
L 206.674992 248.096075 
L 206.674992 248.019727 
L 209.178927 247.943379 
L 209.178927 247.867031 
L 211.859119 247.790682 
L 211.859119 247.714334 
L 212.340525 247.637986 
L 212.340525 247.561638 
L 214.702544 247.485289 
L 214.702544 247.408941 
L 215.077366 247.332593 
L 215.077366 247.256245 
L 215.473871 247.179896 
L 215.473871 247.103548 
L 216.526114 247.0272 
L 216.631218 245.72928 
L 216.650648 245.72928 
L 216.755459 244.278664 
L 216.771578 244.202315 
L 216.80298 243.820574 
L 217.433325 243.744226 
L 217.433325 243.667878 
L 217.859211 243.591529 
L 217.96592 241.224734 
L 217.986257 241.148386 
L 218.074996 240.232207 
L 218.107633 240.155859 
L 218.187872 239.621421 
L 218.436208 239.545073 
L 218.486028 239.316028 
L 218.614876 239.23968 
L 218.698013 238.705242 
L 218.736219 238.628894 
L 218.83915 237.560019 
L 218.887205 237.483671 
L 218.949671 237.254626 
L 219.213736 237.178278 
L 219.213736 237.101929 
L 219.695955 237.025581 
L 219.75393 236.720188 
L 220.130881 236.64384 
L 220.166121 236.338447 
L 220.450437 236.262099 
L 220.450437 236.109402 
L 221.100595 236.033054 
L 221.209946 235.804009 
L 221.285833 235.804009 
L 221.382755 235.34592 
L 221.425982 235.269572 
L 221.52852 234.658786 
L 221.557847 234.582438 
L 221.648162 233.513562 
L 221.733005 233.437214 
L 221.824919 232.826428 
L 221.854242 232.75008 
L 221.947078 231.986598 
L 222.152467 231.910249 
L 222.152467 231.833901 
L 224.566474 231.757553 
L 224.672766 231.604856 
L 224.840092 231.528508 
L 224.840092 231.45216 
L 225.376804 231.375812 
L 225.476624 230.459633 
L 225.505154 230.383285 
L 225.543626 229.848847 
L 225.714052 229.772499 
L 225.810257 229.161713 
L 225.862347 229.085365 
L 225.961217 228.703624 
L 225.999986 228.627275 
L 226.104072 228.321882 
L 228.259434 228.321882 
L 228.259434 228.169186 
L 230.234699 228.092838 
L 230.343972 226.871266 
L 230.394659 226.794918 
L 230.488432 226.642221 
L 230.521885 226.565873 
L 230.631411 225.726042 
L 230.650444 225.649694 
L 230.719655 224.733515 
L 230.868135 224.657167 
L 230.966225 223.588292 
L 230.983614 223.511944 
L 231.064457 222.36672 
L 231.238942 222.290372 
L 231.333838 221.679586 
L 231.367837 221.603238 
L 231.433368 221.221496 
L 231.570545 221.145148 
L 231.668563 220.687059 
L 231.876274 220.610711 
L 231.944502 220.458014 
L 232.062315 220.381666 
L 232.077486 220.228969 
L 232.67057 220.228969 
L 232.737173 219.847228 
L 232.804898 219.77088 
L 232.90042 219.312791 
L 232.921675 219.236442 
L 233.029017 218.167567 
L 233.048369 218.091219 
L 233.143332 217.633129 
L 233.219656 217.556781 
L 233.296911 217.251388 
L 233.836459 217.17504 
L 233.889621 216.869647 
L 235.040785 216.793299 
L 235.125252 216.258861 
L 235.235597 216.182513 
L 235.337591 215.571727 
L 235.372107 215.495379 
L 235.405453 215.113638 
L 235.566905 215.037289 
L 235.673605 214.731896 
L 235.856236 214.655548 
L 235.856236 214.5792 
L 238.107096 214.502852 
L 238.207927 213.892066 
L 238.259855 213.815718 
L 238.353495 212.975887 
L 238.377857 212.899539 
L 238.395069 212.594146 
L 238.511415 212.517798 
L 238.612226 211.525271 
L 238.644901 211.448922 
L 238.727488 211.219878 
L 238.775471 211.143529 
L 238.841248 210.761788 
L 238.921203 210.68544 
L 239.023504 210.456395 
L 239.051457 210.380047 
L 239.152994 210.227351 
L 239.184624 210.151002 
L 239.199362 209.921958 
L 239.337124 209.845609 
L 239.337124 209.769261 
L 239.792787 209.692913 
L 239.900127 209.234824 
L 239.918152 209.158475 
L 240.020331 208.165948 
L 240.048805 208.0896 
L 240.148098 207.402466 
L 240.172023 207.326118 
L 240.26 207.097073 
L 240.658484 207.020725 
L 240.658484 206.868028 
L 241.346126 206.79168 
L 241.453981 206.333591 
L 241.50239 206.257242 
L 241.578628 205.875501 
L 241.621729 205.799153 
L 241.715928 205.341064 
L 241.837283 205.264715 
L 241.890474 205.112019 
L 242.203668 205.035671 
L 242.203668 204.959322 
L 242.6494 204.882974 
L 242.6494 204.806626 
L 243.662062 204.730278 
L 243.724446 204.577581 
L 243.821886 204.501233 
L 243.931786 203.890447 
L 243.939672 203.814099 
L 244.049635 203.050616 
L 244.077095 202.974268 
L 244.168929 202.592527 
L 244.250302 202.516179 
L 244.334358 201.981741 
L 244.463599 201.905393 
L 244.474139 201.752696 
L 244.85663 201.676348 
L 244.926229 201.447304 
L 245.013487 201.370955 
L 245.123976 200.225732 
L 245.148197 200.149384 
L 245.252562 199.156856 
L 245.26525 199.080508 
L 245.26525 199.00416 
L 245.600375 198.927812 
L 245.600375 198.851464 
L 246.126647 198.775115 
L 246.221996 198.393374 
L 246.25464 198.317026 
L 246.346577 197.70624 
L 246.381478 197.629892 
L 246.469641 197.324499 
L 247.902013 197.248151 
L 247.990951 197.019106 
L 248.077286 196.942758 
L 248.187281 196.40832 
L 248.240004 196.331972 
L 248.298498 195.950231 
L 248.386734 195.873882 
L 248.493798 195.186748 
L 248.520818 195.1104 
L 248.592708 194.805007 
L 248.675419 194.728659 
L 248.675419 194.652311 
L 248.91037 194.575962 
L 249.020199 193.888828 
L 249.042038 193.81248 
L 249.152598 193.278042 
L 249.153878 193.201694 
L 249.249033 192.438212 
L 249.28453 192.361864 
L 249.28453 192.285515 
L 249.928135 192.209167 
L 250.015691 191.980122 
L 250.155154 191.903774 
L 250.255723 191.598381 
L 251.338657 191.522033 
L 251.426585 191.140292 
L 251.485406 191.063944 
L 251.585097 190.529506 
L 251.653736 190.453158 
L 251.694613 190.147765 
L 251.781299 190.071416 
L 251.834489 189.91872 
L 252.157848 189.842372 
L 252.198069 189.689675 
L 252.28744 189.613327 
L 252.388612 188.544452 
L 252.407501 188.468104 
L 252.51535 187.475576 
L 252.532061 187.399228 
L 252.564193 187.093835 
L 253.247084 187.017487 
L 253.343835 186.483049 
L 253.406698 186.406701 
L 253.438334 186.254005 
L 253.799685 186.177656 
L 253.857223 186.02496 
L 254.188875 185.948612 
L 254.266174 185.795915 
L 254.370616 185.719567 
L 254.441185 185.185129 
L 254.496449 185.108781 
L 254.517884 184.956085 
L 254.62166 184.879736 
L 254.720078 184.421647 
L 254.806952 184.345299 
L 254.849963 184.039906 
L 255.069738 183.963558 
L 255.167887 183.276424 
L 255.215107 183.200075 
L 255.316886 182.360245 
L 255.358953 182.283896 
L 255.440335 182.054852 
L 255.969886 181.978504 
L 255.998632 181.825807 
L 256.414827 181.749459 
L 256.414827 181.673111 
L 256.878973 181.596762 
L 256.878973 181.520414 
L 257.022768 181.444066 
L 257.060304 181.062325 
L 257.191916 180.985976 
L 257.300898 180.604235 
L 257.335121 180.527887 
L 257.33694 180.375191 
L 257.564356 180.298842 
L 257.667317 178.924574 
L 257.675708 178.848226 
L 257.774442 178.390136 
L 258.162732 178.313788 
L 258.257831 178.008395 
L 258.445795 177.932047 
L 258.445795 177.855699 
L 259.238148 177.779351 
L 259.321616 177.550306 
L 259.364597 177.473958 
L 259.394854 177.244913 
L 259.602608 177.168565 
L 259.602608 177.092216 
L 259.757736 177.015868 
L 259.868702 175.6416 
L 259.888392 175.565252 
L 259.90758 175.336207 
L 260.437145 175.259859 
L 260.509188 174.954466 
L 260.814184 174.878118 
L 260.873282 174.725421 
L 261.293007 174.649073 
L 261.337747 174.420028 
L 261.54067 174.34368 
L 261.59197 174.114635 
L 261.69311 174.038287 
L 261.797306 173.198456 
L 261.811612 173.122108 
L 261.902915 172.587671 
L 262.176933 172.511322 
L 262.244468 172.205929 
L 262.353 172.129581 
L 262.426548 171.976885 
L 262.973504 171.900536 
L 262.973504 171.824188 
L 263.151466 171.74784 
L 263.151466 171.671492 
L 263.299543 171.595144 
L 263.299543 171.518795 
L 263.45202 171.442447 
L 263.558255 170.44992 
L 263.565961 170.373572 
L 263.578257 170.220875 
L 263.962634 170.144527 
L 264.072406 169.839134 
L 264.189764 169.762786 
L 264.189764 169.686438 
L 264.825407 169.610089 
L 264.898893 169.381045 
L 265.064654 169.304696 
L 265.173632 168.312169 
L 265.19158 168.235821 
L 265.252803 167.85408 
L 265.551014 167.777732 
L 265.551014 167.701384 
L 266.045646 167.625035 
L 266.045646 167.548687 
L 266.468202 167.472339 
L 266.578989 166.937901 
L 266.590226 166.861553 
L 266.690486 166.327115 
L 266.949355 166.250767 
L 267.049276 165.945374 
L 267.419842 165.869026 
L 267.515438 165.716329 
L 267.713304 165.639981 
L 267.724944 165.410936 
L 267.916681 165.334588 
L 267.994709 164.723802 
L 268.036782 164.647454 
L 268.057771 164.342061 
L 268.661022 164.265713 
L 268.661022 164.189365 
L 269.075245 164.113016 
L 269.167791 163.883972 
L 269.207361 163.807624 
L 269.308291 163.044141 
L 269.34263 162.967793 
L 269.348612 162.815096 
L 269.704991 162.738748 
L 269.709428 162.586052 
L 269.878641 162.509704 
L 269.878641 162.433355 
L 270.180946 162.357007 
L 270.283694 162.127962 
L 270.3665 162.051614 
L 270.461907 161.517176 
L 270.485452 161.440828 
L 270.536744 160.753694 
L 271.004923 160.677346 
L 271.004923 160.600998 
L 271.287434 160.524649 
L 271.353044 160.371953 
L 271.519914 160.295605 
L 271.629681 159.455774 
L 271.931517 159.379426 
L 272.036259 159.226729 
L 272.635393 159.150381 
L 272.693258 158.615944 
L 273.355348 158.539595 
L 273.355348 158.463247 
L 273.555762 158.386899 
L 273.656561 157.928809 
L 273.699086 157.852461 
L 273.732562 157.547068 
L 274.592351 157.47072 
L 274.680097 157.088979 
L 275.325833 157.012631 
L 275.325833 156.936282 
L 275.502029 156.859934 
L 275.570661 156.1728 
L 276.0629 156.096452 
L 276.159203 155.943755 
L 276.368441 155.867407 
L 276.42492 155.180273 
L 277.08234 155.103925 
L 277.162416 154.951228 
L 277.212082 154.87488 
L 277.307151 154.416791 
L 277.967039 154.340442 
L 278.05433 153.958701 
L 278.716634 153.882353 
L 278.808097 153.271567 
L 279.496626 153.195219 
L 279.531003 152.813478 
L 280.181563 152.737129 
L 280.207751 152.508085 
L 280.574156 152.431736 
L 280.574156 152.355388 
L 280.833531 152.27904 
L 280.921295 151.744602 
L 281.512056 151.668254 
L 281.512056 151.591906 
L 281.784274 151.515558 
L 281.784274 151.439209 
L 282.165677 151.362861 
L 282.229158 150.904772 
L 282.730035 150.828424 
L 282.776174 150.293986 
L 283.338323 150.217638 
L 283.384661 149.912245 
L 283.913974 149.835896 
L 284.004975 149.530504 
L 284.543554 149.454155 
L 284.543554 149.377807 
L 285.044033 149.301459 
L 285.096557 149.072414 
L 285.578249 148.996066 
L 285.578249 148.919718 
L 286.14635 148.843369 
L 286.14635 148.767021 
L 286.602017 148.690673 
L 286.602017 148.614325 
L 287.070092 148.537976 
L 287.107959 148.308932 
L 287.511652 148.232584 
L 287.583649 147.850842 
L 288.019176 147.774494 
L 288.057052 147.621798 
L 288.431119 147.545449 
L 288.441657 147.316405 
L 289.009466 147.240056 
L 289.009466 147.163708 
L 289.75855 147.08736 
L 289.766338 146.858315 
L 290.530688 146.781967 
L 290.585556 146.552922 
L 292.10613 146.476574 
L 292.138357 146.323878 
L 292.499927 146.247529 
L 292.499927 146.171181 
L 293.161853 146.094833 
L 293.161853 146.018485 
L 293.533967 145.942136 
L 293.533967 145.865788 
L 293.834376 145.78944 
L 293.834376 145.713092 
L 294.816229 145.636744 
L 294.816229 145.560395 
L 296.04962 145.484047 
L 296.04962 145.407699 
L 296.924889 145.331351 
L 296.924889 145.255002 
L 298.040857 145.178654 
L 298.062098 145.025958 
L 298.858834 144.949609 
L 298.858834 144.873261 
L 300.286982 144.796913 
L 300.286982 144.720565 
L 302.949346 144.644216 
L 302.949346 144.567868 
L 303.784072 144.49152 
L 303.784072 144.415172 
L 360.8064 144.338824 
L 360.8064 144.338824 
" style="fill:none;stroke:#ff00ff;stroke-linecap:square;stroke-width:1.5;"/>
   </g>
   <g id="line2d_41">
    <defs>
     <path d="M -0 8.485281 
L 5.091169 0 
L 0 -8.485281 
L -5.091169 -0 
z
" id="m1de1731aba" style="stroke:#ff00ff;stroke-linejoin:miter;stroke-width:1.5;"/>
    </defs>
    <g>
     <use style="fill-opacity:0;stroke:#ff00ff;stroke-linejoin:miter;stroke-width:1.5;" x="113.622258" xlink:href="#m1de1731aba" y="274.741609"/>
     <use style="fill-opacity:0;stroke:#ff00ff;stroke-linejoin:miter;stroke-width:1.5;" x="198.234995" xlink:href="#m1de1731aba" y="252.676969"/>
     <use style="fill-opacity:0;stroke:#ff00ff;stroke-linejoin:miter;stroke-width:1.5;" x="261.711" xlink:href="#m1de1731aba" y="173.885591"/>
     <use style="fill-opacity:0;stroke:#ff00ff;stroke-linejoin:miter;stroke-width:1.5;" x="303.982689" xlink:href="#m1de1731aba" y="144.338824"/>
     <use style="fill-opacity:0;stroke:#ff00ff;stroke-linejoin:miter;stroke-width:1.5;" x="303.982689" xlink:href="#m1de1731aba" y="144.338824"/>
     <use style="fill-opacity:0;stroke:#ff00ff;stroke-linejoin:miter;stroke-width:1.5;" x="360.8064" xlink:href="#m1de1731aba" y="144.338824"/>
    </g>
   </g>
   <g id="line2d_42">
    <path style="fill:none;stroke:#ff00ff;stroke-linecap:square;stroke-width:1.5;"/>
    <g/>
   </g>
   <g id="line2d_43">
    <path clip-path="url(#pf73cff19ed)" d="M 217.950232 241.377431 
" style="fill:none;stroke:#ff00ff;stroke-linecap:square;stroke-width:1.5;"/>
    <defs>
     <path d="M -12 12 
L 12 -12 
M -12 -12 
L 12 12 
" id="m04d65e0a68" style="stroke:#ff00ff;"/>
    </defs>
    <g clip-path="url(#pf73cff19ed)">
     <use style="fill:#ff00ff;stroke:#ff00ff;" x="217.950232" xlink:href="#m04d65e0a68" y="241.377431"/>
    </g>
   </g>
   <g id="line2d_44">
    <defs>
     <path d="M 0 1.5 
C 0.397805 1.5 0.77937 1.341951 1.06066 1.06066 
C 1.341951 0.77937 1.5 0.397805 1.5 0 
C 1.5 -0.397805 1.341951 -0.77937 1.06066 -1.06066 
C 0.77937 -1.341951 0.397805 -1.5 0 -1.5 
C -0.397805 -1.5 -0.77937 -1.341951 -1.06066 -1.06066 
C -1.341951 -0.77937 -1.5 -0.397805 -1.5 0 
C -1.5 0.397805 -1.341951 0.77937 -1.06066 1.06066 
C -0.77937 1.341951 -0.397805 1.5 0 1.5 
z
" id="m46b03612d6" style="stroke:#ff7500;"/>
    </defs>
    <g>
     <use style="fill:#ff7500;stroke:#ff7500;" x="305.206715" xlink:href="#m46b03612d6" y="147.774494"/>
     <use style="fill:#ff7500;stroke:#ff7500;" x="305.206715" xlink:href="#m46b03612d6" y="147.774494"/>
    </g>
   </g>
   <g id="line2d_45">
    <path d="M 1.245626 298.944 
L 1.245626 291.385525 
L 14.2848 291.385525 
L 14.2848 291.003784 
L 21.912228 291.003784 
L 21.912228 290.698391 
L 27.323974 290.698391 
L 27.323974 290.163953 
L 31.521651 290.163953 
L 31.521651 290.011256 
L 34.951403 290.011256 
L 34.951403 289.85856 
L 37.851216 289.85856 
L 37.851216 289.705864 
L 46.353758 289.705864 
L 46.353758 289.553167 
L 53.402323 289.476819 
L 53.402323 289.400471 
L 57.6 289.324122 
L 57.6 289.247774 
L 59.392932 289.247774 
L 59.392932 289.095078 
L 67.020361 289.018729 
L 67.020361 288.942381 
L 84.818792 288.866033 
L 84.818792 288.789685 
L 85.25629 288.713336 
L 85.25629 288.636988 
L 106.837279 288.56064 
L 106.837279 288.484292 
L 116.542574 288.407944 
L 116.542574 288.331595 
L 119.141397 288.255247 
L 119.141397 288.178899 
L 121.706797 288.102551 
L 121.706797 288.026202 
L 125.245241 287.949854 
L 125.348177 287.797158 
L 129.396412 287.720809 
L 129.458394 287.415416 
L 131.210028 287.415416 
L 131.285049 286.193845 
L 131.359772 286.117496 
L 131.41562 285.583059 
L 132.932784 285.583059 
L 133.001252 284.66688 
L 134.384351 284.590532 
L 134.495147 283.445308 
L 134.526683 283.36896 
L 134.558167 282.605478 
L 135.805631 282.529129 
L 135.908386 282.07104 
L 135.937642 282.07104 
L 135.937642 281.765647 
L 137.12703 281.689299 
L 137.23648 281.536602 
L 138.335954 281.460254 
L 138.438609 280.925816 
L 139.471855 280.849468 
L 139.568511 280.467727 
L 139.604629 280.391379 
L 139.604629 280.238682 
L 140.58877 280.162334 
L 140.657135 279.933289 
L 141.632274 279.856941 
L 141.686191 279.398852 
L 142.631166 279.322504 
L 142.631166 279.246155 
L 143.530934 279.169807 
L 143.569942 278.940762 
L 144.408266 278.864414 
L 144.408266 278.788066 
L 145.219746 278.788066 
L 145.264312 278.100932 
L 146.074567 278.024584 
L 146.074567 277.566494 
L 147.581606 277.490146 
L 147.581606 277.413798 
L 148.284563 277.337449 
L 148.299721 277.108405 
L 148.969507 277.032056 
L 148.991428 276.650315 
L 149.623325 276.573967 
L 149.623325 276.497619 
L 150.214167 276.497619 
L 150.221009 276.268574 
L 150.840043 276.192226 
L 150.88632 275.886833 
L 152.032588 275.810485 
L 152.032588 275.734136 
L 153.130592 275.657788 
L 153.183261 275.276047 
L 153.667854 275.199699 
L 153.696309 274.817958 
L 154.195735 274.741609 
L 154.195735 274.665261 
L 154.698427 274.588913 
L 154.719981 274.436216 
L 155.654974 274.436216 
L 155.680579 273.901779 
L 156.140591 273.825431 
L 156.150576 273.520038 
L 157.009121 273.443689 
L 157.056745 273.290993 
L 157.475372 273.214645 
L 157.475372 273.138296 
L 157.880333 273.061948 
L 157.880333 272.9856 
L 159.122267 272.909252 
L 159.126528 272.756555 
L 159.481075 272.756555 
L 159.481075 272.603859 
L 160.62865 272.527511 
L 160.62865 272.374814 
L 160.956223 272.374814 
L 160.963953 272.145769 
L 161.304772 272.145769 
L 161.308567 271.916725 
L 161.676769 271.840376 
L 161.68049 271.611332 
L 162.974136 271.534984 
L 162.998429 271.076894 
L 163.912284 271.000546 
L 163.912284 270.847849 
L 164.233297 270.771501 
L 164.233297 270.695153 
L 164.625419 270.618805 
L 164.625419 270.542456 
L 164.818457 270.466108 
L 164.818457 270.38976 
L 165.370683 270.313412 
L 165.376797 270.084367 
L 166.726952 270.008019 
L 166.73264 269.855322 
L 166.998073 269.778974 
L 167.01769 269.626278 
L 167.769923 269.549929 
L 167.772614 269.397233 
L 169.854175 269.320885 
L 169.854175 269.244536 
L 170.086404 269.244536 
L 170.086404 269.09184 
L 170.935435 269.015492 
L 170.935435 268.862795 
L 172.364903 268.786447 
L 172.364903 268.710099 
L 172.545321 268.633751 
L 172.545321 268.557402 
L 173.288342 268.481054 
L 173.30038 268.328358 
L 174.193446 268.252009 
L 174.201095 268.099313 
L 174.372387 268.099313 
L 174.372387 267.946616 
L 175.388379 267.870268 
L 175.397351 267.717572 
L 175.721083 267.641224 
L 175.721083 267.564875 
L 176.360823 267.488527 
L 176.360823 267.259482 
L 176.666846 267.259482 
L 176.666846 267.106786 
L 177.125747 267.030438 
L 177.125747 266.954089 
L 178.290243 266.877741 
L 178.290243 266.801393 
L 178.460235 266.725045 
L 178.566653 266.572348 
L 178.843542 266.572348 
L 178.843542 266.419652 
L 179.26161 266.343304 
L 179.26161 266.266955 
L 179.795971 266.190607 
L 179.795971 266.037911 
L 180.052663 265.961562 
L 180.052663 265.885214 
L 180.433996 265.808866 
L 180.433996 265.732518 
L 181.052417 265.656169 
L 181.052417 265.503473 
L 181.41811 265.427125 
L 181.41811 265.350776 
L 182.011811 265.350776 
L 182.011811 265.19808 
L 183.020593 265.121732 
L 183.020593 265.045384 
L 184.197314 264.969035 
L 184.197314 264.892687 
L 185.404078 264.816339 
L 185.404078 264.739991 
L 185.788 264.739991 
L 185.788 264.510946 
L 186.153106 264.510946 
L 186.154118 264.205553 
L 187.851607 264.129205 
L 187.851607 264.052856 
L 188.435629 264.052856 
L 188.435629 263.90016 
L 189.009026 263.823812 
L 189.08198 263.594767 
L 190.174739 263.518419 
L 190.244132 263.365722 
L 190.685469 263.289374 
L 190.685469 263.213026 
L 191.192774 263.213026 
L 191.192774 263.060329 
L 191.82212 262.983981 
L 191.82212 262.907633 
L 192.568422 262.831285 
L 192.568422 262.678588 
L 193.219577 262.60224 
L 193.219577 262.525892 
L 193.538261 262.449544 
L 193.594946 262.296847 
L 193.973667 262.220499 
L 193.973667 262.144151 
L 194.579346 262.067802 
L 194.579346 261.991454 
L 196.008253 261.915106 
L 196.008253 261.838758 
L 196.924301 261.762409 
L 196.924301 261.686061 
L 197.365843 261.609713 
L 197.365843 261.533365 
L 198.19926 261.457016 
L 198.248312 261.30432 
L 199.574765 261.227972 
L 199.614422 261.075275 
L 199.754039 260.998927 
L 199.754039 260.922579 
L 200.765901 260.846231 
L 200.765901 260.769882 
L 201.561176 260.693534 
L 201.561176 260.617186 
L 202.086884 260.540838 
L 202.086884 260.464489 
L 202.573352 260.388141 
L 202.573352 260.311793 
L 203.35975 260.235445 
L 203.35975 260.159096 
L 204.235435 260.082748 
L 204.273356 259.930052 
L 204.798998 259.853704 
L 204.798998 259.777355 
L 205.643571 259.701007 
L 205.643571 259.624659 
L 207.351297 259.548311 
L 207.351297 259.471962 
L 209.728346 259.395614 
L 209.754071 259.166569 
L 210.330369 259.090221 
L 210.330369 259.013873 
L 211.554486 258.937525 
L 211.625225 258.784828 
L 212.077124 258.70848 
L 212.077124 258.632132 
L 212.792722 258.555784 
L 212.792722 258.479435 
L 213.039324 258.403087 
L 213.0609 258.250391 
L 213.61007 258.174042 
L 213.61007 258.097694 
L 213.74022 258.021346 
L 213.74022 257.944998 
L 213.954232 257.868649 
L 213.954232 257.792301 
L 214.436217 257.715953 
L 214.436217 257.639605 
L 214.703211 257.563256 
L 214.703211 257.486908 
L 214.884842 257.41056 
L 214.884842 257.334212 
L 215.327314 257.257864 
L 215.384575 257.105167 
L 215.814741 257.028819 
L 215.814741 256.952471 
L 216.194723 256.876122 
L 216.213993 256.647078 
L 216.624403 256.570729 
L 216.624403 256.494381 
L 217.942944 256.418033 
L 218.045649 255.959944 
L 218.095216 255.883595 
L 218.182152 255.349158 
L 218.265566 255.272809 
L 218.350806 254.280282 
L 218.416898 254.203934 
L 218.501457 253.593148 
L 218.58347 253.5168 
L 218.650192 253.211407 
L 218.814719 253.135059 
L 218.914027 252.295228 
L 219.026934 252.21888 
L 219.124254 251.455398 
L 219.253699 251.379049 
L 219.317221 250.997308 
L 219.445178 250.997308 
L 219.540191 250.691915 
L 219.603097 250.691915 
L 219.697147 250.462871 
L 219.791408 250.462871 
L 219.869008 250.004781 
L 220.05352 249.928433 
L 220.162468 249.317647 
L 220.238225 249.241299 
L 220.313843 248.859558 
L 220.435546 248.783209 
L 220.510376 248.630513 
L 220.569475 248.630513 
L 220.628712 248.32512 
L 220.822321 248.32512 
L 220.9116 247.867031 
L 221.274407 247.790682 
L 221.30335 247.332593 
L 221.403292 247.332593 
L 221.503943 247.103548 
L 221.911088 247.0272 
L 221.911088 246.950852 
L 222.035699 246.950852 
L 222.146339 246.721807 
L 222.187849 246.721807 
L 222.298194 246.492762 
L 222.351203 246.416414 
L 222.392853 246.263718 
L 222.953739 246.187369 
L 222.981071 245.881976 
L 223.473328 245.881976 
L 223.473328 245.72928 
L 223.879562 245.72928 
L 223.879562 245.576584 
L 224.868698 245.500235 
L 224.868698 245.423887 
L 225.059153 245.423887 
L 225.059153 245.194842 
L 225.661424 245.118494 
L 225.740989 244.889449 
L 226.345361 244.813101 
L 226.345361 244.736753 
L 228.207411 244.660405 
L 228.207411 244.584056 
L 228.689004 244.507708 
L 228.689004 244.43136 
L 228.930362 244.355012 
L 228.930987 244.049619 
L 229.300951 243.973271 
L 229.366544 243.744226 
L 229.535035 243.667878 
L 229.535035 243.591529 
L 229.755771 243.515181 
L 229.755771 243.438833 
L 230.450114 243.362485 
L 230.450114 243.286136 
L 231.007054 243.209788 
L 231.101453 242.751699 
L 231.161069 242.675351 
L 231.237744 241.988216 
L 231.322094 241.911868 
L 231.423329 241.301082 
L 231.473652 241.224734 
L 231.507762 240.842993 
L 231.682704 240.766645 
L 231.781843 240.155859 
L 231.822729 240.079511 
L 231.912687 239.23968 
L 232.027163 239.163332 
L 232.108231 238.628894 
L 232.253522 238.552546 
L 232.253522 238.476198 
L 232.532091 238.476198 
L 232.532091 238.323501 
L 232.737088 238.247153 
L 232.799384 237.865412 
L 233.016775 237.789064 
L 233.085927 237.407322 
L 233.285256 237.330974 
L 233.338429 237.025581 
L 234.321487 236.949233 
L 234.321487 236.796536 
L 235.186485 236.720188 
L 235.234479 236.567492 
L 235.513437 236.567492 
L 235.513437 236.414795 
L 236.622505 236.338447 
L 236.622505 236.262099 
L 236.793517 236.262099 
L 236.793517 236.109402 
L 237.402408 236.033054 
L 237.463094 235.651313 
L 237.615109 235.574965 
L 237.615109 235.498616 
L 238.563262 235.422268 
L 238.660565 235.116875 
L 238.689745 235.116875 
L 238.791644 234.353393 
L 238.825672 234.277045 
L 238.910782 233.513562 
L 239.000574 233.513562 
L 239.095769 232.75008 
L 239.135191 232.673732 
L 239.179487 232.062946 
L 239.279495 231.986598 
L 239.356654 231.299464 
L 239.40097 231.299464 
L 239.449949 230.841374 
L 239.711408 230.765026 
L 239.797876 230.306936 
L 240.059422 230.230588 
L 240.122764 229.848847 
L 240.338477 229.772499 
L 240.338477 229.696151 
L 241.311511 229.619802 
L 241.371211 229.390758 
L 242.814088 229.314409 
L 242.814088 229.161713 
L 243.249158 229.085365 
L 243.249158 229.009016 
L 243.99113 228.932668 
L 244.093906 228.398231 
L 244.107167 228.321882 
L 244.217962 227.176659 
L 244.285721 227.100311 
L 244.395792 226.489525 
L 244.420968 226.413176 
L 244.530072 225.344301 
L 244.58883 225.267953 
L 244.642524 224.96256 
L 244.754534 224.886212 
L 244.861859 224.504471 
L 244.956175 224.428122 
L 245.045773 224.046381 
L 245.090677 223.970033 
L 245.179902 223.282899 
L 245.492786 223.206551 
L 245.492786 223.130202 
L 246.056327 223.053854 
L 246.056327 222.977506 
L 247.099567 222.901158 
L 247.099567 222.824809 
L 247.783944 222.824809 
L 247.864834 222.519416 
L 248.18788 222.443068 
L 248.283975 221.374193 
L 248.301178 221.297845 
L 248.410394 220.458014 
L 248.454745 220.381666 
L 248.552905 219.083746 
L 248.566305 219.083746 
L 248.66761 218.167567 
L 248.680855 218.167567 
L 248.784521 217.404085 
L 248.894617 217.327736 
L 249.000343 216.793299 
L 249.019948 216.793299 
L 249.128607 216.335209 
L 249.661575 216.258861 
L 249.661575 216.106165 
L 250.810747 216.029816 
L 250.831483 215.87712 
L 251.022204 215.800772 
L 251.022204 215.724424 
L 251.668678 215.648075 
L 251.7744 214.5792 
L 251.785691 214.5792 
L 251.876576 213.892066 
L 251.907665 213.892066 
L 252.014775 212.441449 
L 252.062556 212.441449 
L 252.154907 212.136056 
L 252.174335 212.136056 
L 252.274337 211.372574 
L 252.321405 211.296226 
L 252.418089 210.838136 
L 252.723563 210.838136 
L 252.723563 210.68544 
L 252.99515 210.609092 
L 253.10148 210.456395 
L 254.221425 210.380047 
L 254.221425 210.303699 
L 254.546212 210.227351 
L 254.639232 208.853082 
L 254.668546 208.853082 
L 254.770836 207.631511 
L 254.780623 207.631511 
L 254.88695 206.868028 
L 254.966453 206.79168 
L 255.038313 206.486287 
L 255.117128 206.486287 
L 255.152896 206.180894 
L 255.557615 206.180894 
L 255.557615 206.028198 
L 256.57714 205.951849 
L 256.57714 205.875501 
L 257.045392 205.799153 
L 257.150574 204.730278 
L 257.184723 204.730278 
L 257.287099 203.356009 
L 257.297668 203.356009 
L 257.371648 202.89792 
L 257.44147 202.821572 
L 257.521135 202.439831 
L 257.590359 202.363482 
L 257.590359 202.287134 
L 257.931997 202.287134 
L 257.931997 202.134438 
L 258.132059 202.058089 
L 258.132059 201.981741 
L 259.25325 201.905393 
L 259.364018 200.225732 
L 259.388579 200.149384 
L 259.481391 198.622419 
L 259.524972 198.546071 
L 259.630264 198.164329 
L 259.656312 198.087981 
L 259.734869 197.171802 
L 260.218948 197.171802 
L 260.218948 197.019106 
L 261.222018 196.942758 
L 261.323429 195.721186 
L 261.347404 195.644838 
L 261.437816 194.805007 
L 261.512718 194.728659 
L 261.61753 194.194221 
L 261.639485 194.194221 
L 261.659731 193.888828 
L 262.646662 193.81248 
L 262.646662 193.736132 
L 263.010457 193.659784 
L 263.121358 192.285515 
L 263.141525 192.209167 
L 263.233275 191.522033 
L 263.271855 191.522033 
L 263.371978 190.682202 
L 264.387488 190.605854 
L 264.436943 190.453158 
L 264.643453 190.376809 
L 264.742347 189.231586 
L 264.763705 189.155238 
L 264.836428 188.697148 
L 264.934192 188.6208 
L 264.993591 188.162711 
L 265.234505 188.086362 
L 265.234505 188.010014 
L 266.108923 187.933666 
L 266.206875 186.941139 
L 266.224093 186.941139 
L 266.329558 186.02496 
L 266.364924 185.948612 
L 266.462874 185.108781 
L 267.500449 185.032433 
L 267.607498 184.421647 
L 267.617257 184.421647 
L 267.698034 183.581816 
L 267.755389 183.505468 
L 267.790566 183.200075 
L 268.82593 183.123727 
L 268.936081 181.749459 
L 268.939449 181.749459 
L 269.034172 180.680584 
L 269.070483 180.604235 
L 269.106785 180.298842 
L 270.037264 180.298842 
L 270.144842 179.229967 
L 270.18126 179.153619 
L 270.265605 178.542833 
L 271.169236 178.466485 
L 271.261457 177.168565 
L 271.30987 177.092216 
L 271.372312 176.710475 
L 272.251303 176.634127 
L 272.349859 175.183511 
L 272.412626 175.107162 
L 272.480003 174.725421 
L 273.27822 174.649073 
L 273.370463 173.656546 
L 273.424665 173.580198 
L 273.479433 172.969412 
L 274.223317 172.893064 
L 274.327471 171.900536 
L 274.379769 171.824188 
L 274.433667 171.442447 
L 275.13649 171.366099 
L 275.227594 170.526268 
L 275.305082 170.44992 
L 275.327107 169.991831 
L 276.030857 169.915482 
L 276.096681 168.693911 
L 276.154336 168.617562 
L 276.176142 168.312169 
L 276.854695 168.235821 
L 276.921362 167.548687 
L 277.003419 167.472339 
L 277.003419 167.395991 
L 277.648914 167.319642 
L 277.72295 166.632508 
L 277.817262 166.55616 
L 277.825832 166.327115 
L 278.424842 166.250767 
L 278.531549 164.723802 
L 279.179966 164.647454 
L 279.268592 164.036668 
L 279.880353 163.96032 
L 279.990581 162.891445 
L 280.537766 162.815096 
L 280.606173 162.127962 
L 280.679138 162.051614 
L 280.680989 161.898918 
L 281.1956 161.822569 
L 281.306144 160.906391 
L 281.83985 160.830042 
L 281.912282 160.142908 
L 281.974094 160.06656 
L 281.979847 159.913864 
L 282.464441 159.913864 
L 282.567759 159.455774 
L 282.591033 159.379426 
L 282.591033 159.303078 
L 283.059295 159.226729 
L 283.144902 158.539595 
L 283.17654 158.463247 
L 283.17654 158.386899 
L 283.635852 158.310551 
L 283.736581 156.936282 
L 284.213028 156.859934 
L 284.27435 156.630889 
L 284.740055 156.630889 
L 284.842377 156.325496 
L 285.259816 156.249148 
L 285.369927 155.638362 
L 285.778275 155.562014 
L 285.886326 155.027576 
L 286.295544 154.951228 
L 286.324649 154.569487 
L 286.761347 154.493139 
L 286.829035 153.958701 
L 287.268603 153.882353 
L 287.278533 153.729656 
L 287.729301 153.653308 
L 287.785662 153.424264 
L 288.227427 153.347915 
L 288.227427 153.271567 
L 288.605748 153.271567 
L 288.683517 152.813478 
L 289.038719 152.737129 
L 289.107294 152.27904 
L 289.447349 152.202692 
L 289.498744 152.049995 
L 289.877368 151.973647 
L 289.888628 151.744602 
L 290.676636 151.668254 
L 290.730535 151.362861 
L 291.116688 151.286513 
L 291.116688 151.210165 
L 291.44747 151.133816 
L 291.515062 150.752075 
L 291.824755 150.675727 
L 291.886256 150.446682 
L 292.252952 150.370334 
L 292.252952 150.293986 
L 292.884741 150.217638 
L 292.884741 150.141289 
L 293.229492 150.064941 
L 293.289391 149.759548 
L 293.617969 149.6832 
L 293.636708 149.530504 
L 294.234797 149.454155 
L 294.234797 149.377807 
L 295.195103 149.301459 
L 295.195103 149.225111 
L 295.800948 149.148762 
L 295.800948 149.072414 
L 296.698039 148.996066 
L 296.698039 148.919718 
L 296.987996 148.843369 
L 296.987996 148.767021 
L 297.809047 148.690673 
L 297.809047 148.614325 
L 298.826369 148.537976 
L 298.826369 148.461628 
L 299.309753 148.38528 
L 299.318622 148.232584 
L 299.795684 148.156235 
L 299.79877 148.003539 
L 301.187938 147.927191 
L 301.187938 147.850842 
L 360.8064 147.774494 
L 360.8064 147.774494 
" style="fill:none;stroke:#ff7500;stroke-linecap:square;stroke-width:1.5;"/>
   </g>
   <g id="line2d_46">
    <defs>
     <path d="M 0 -6 
L -1.347084 -1.854102 
L -5.706339 -1.854102 
L -2.179628 0.708204 
L -3.526712 4.854102 
L -0 2.291796 
L 3.526712 4.854102 
L 2.179628 0.708204 
L 5.706339 -1.854102 
L 1.347084 -1.854102 
z
" id="mfb3efdb65d" style="stroke:#ff7500;stroke-linejoin:bevel;stroke-width:1.5;"/>
    </defs>
    <g>
     <use style="fill-opacity:0;stroke:#ff7500;stroke-linejoin:bevel;stroke-width:1.5;" x="140.657135" xlink:href="#mfb3efdb65d" y="280.009638"/>
     <use style="fill-opacity:0;stroke:#ff7500;stroke-linejoin:bevel;stroke-width:1.5;" x="202.983084" xlink:href="#mfb3efdb65d" y="260.311793"/>
     <use style="fill-opacity:0;stroke:#ff7500;stroke-linejoin:bevel;stroke-width:1.5;" x="282.552237" xlink:href="#mfb3efdb65d" y="159.608471"/>
     <use style="fill-opacity:0;stroke:#ff7500;stroke-linejoin:bevel;stroke-width:1.5;" x="305.206715" xlink:href="#mfb3efdb65d" y="147.774494"/>
     <use style="fill-opacity:0;stroke:#ff7500;stroke-linejoin:bevel;stroke-width:1.5;" x="305.206715" xlink:href="#mfb3efdb65d" y="147.774494"/>
     <use style="fill-opacity:0;stroke:#ff7500;stroke-linejoin:bevel;stroke-width:1.5;" x="360.8064" xlink:href="#mfb3efdb65d" y="147.774494"/>
    </g>
   </g>
   <g id="line2d_47">
    <path style="fill:none;stroke:#ff7500;stroke-linecap:square;stroke-width:1.5;"/>
    <g/>
   </g>
   <g id="line2d_48">
    <path clip-path="url(#pf73cff19ed)" d="M 217.822378 256.418033 
" style="fill:none;stroke:#ff7500;stroke-linecap:square;stroke-width:1.5;"/>
    <defs>
     <path d="M -12 12 
L 12 -12 
M -12 -12 
L 12 12 
" id="m7e667a58fe" style="stroke:#ff7500;"/>
    </defs>
    <g clip-path="url(#pf73cff19ed)">
     <use style="fill:#ff7500;stroke:#ff7500;" x="217.822378" xlink:href="#m7e667a58fe" y="256.418033"/>
    </g>
   </g>
   <g id="line2d_49">
    <path d="M 360.8064 245.118494 
L 380.514816 293.10336 
" style="fill:none;stroke:#000080;stroke-linecap:square;stroke-width:1.5;"/>
    <g>
     <use style="fill-opacity:0;stroke:#000080;stroke-width:1.5;" x="360.8064" xlink:href="#m6266f0dd85" y="245.118494"/>
     <use style="fill-opacity:0;stroke:#000080;stroke-width:1.5;" x="380.514816" xlink:href="#m6266f0dd85" y="293.10336"/>
    </g>
   </g>
   <g id="line2d_50">
    <path d="M 360.8064 147.774494 
L 380.514816 199.65312 
" style="fill:none;stroke:#ff7500;stroke-linecap:square;stroke-width:1.5;"/>
    <g>
     <use style="fill-opacity:0;stroke:#ff7500;stroke-linejoin:bevel;stroke-width:1.5;" x="360.8064" xlink:href="#mfb3efdb65d" y="147.774494"/>
     <use style="fill-opacity:0;stroke:#ff7500;stroke-linejoin:bevel;stroke-width:1.5;" x="380.514816" xlink:href="#mfb3efdb65d" y="199.65312"/>
    </g>
   </g>
   <g id="line2d_51">
    <path d="M 360.8064 144.338824 
L 380.514816 106.20288 
" style="fill:none;stroke:#ff00ff;stroke-linecap:square;stroke-width:1.5;"/>
    <g>
     <use style="fill-opacity:0;stroke:#ff00ff;stroke-linejoin:miter;stroke-width:1.5;" x="360.8064" xlink:href="#m1de1731aba" y="144.338824"/>
     <use style="fill-opacity:0;stroke:#ff00ff;stroke-linejoin:miter;stroke-width:1.5;" x="380.514816" xlink:href="#m1de1731aba" y="106.20288"/>
    </g>
   </g>
   <g id="line2d_52">
    <path d="M 360.8064 298.944 
L 360.8064 6.912 
" style="fill:none;stroke:#000000;stroke-linecap:square;stroke-width:1.5;"/>
   </g>
   <g id="patch_3">
    <path d="M 57.6 298.944 
L 360.8064 298.944 
" style="fill:none;stroke:#000000;stroke-linecap:square;stroke-linejoin:miter;stroke-width:0.8;"/>
   </g>
   <g id="patch_4">
    <path d="M 57.6 6.912 
L 360.8064 6.912 
" style="fill:none;stroke:#000000;stroke-linecap:square;stroke-linejoin:miter;stroke-width:0.8;"/>
   </g>
   <g id="text_13">
    <!-- different -->
    <g transform="translate(386.578944 296.966485)scale(0.14 -0.14)">
     <use xlink:href="#DejaVuSans-64"/>
     <use x="63.476562" xlink:href="#DejaVuSans-69"/>
     <use x="91.259766" xlink:href="#DejaVuSans-66"/>
     <use x="126.464844" xlink:href="#DejaVuSans-66"/>
     <use x="161.669922" xlink:href="#DejaVuSans-65"/>
     <use x="223.193359" xlink:href="#DejaVuSans-72"/>
     <use x="262.056641" xlink:href="#DejaVuSans-65"/>
     <use x="323.580078" xlink:href="#DejaVuSans-6e"/>
     <use x="386.958984" xlink:href="#DejaVuSans-74"/>
    </g>
   </g>
   <g id="text_14">
    <!-- diffcma b -->
    <g transform="translate(386.578944 203.516245)scale(0.14 -0.14)">
     <defs>
      <path d="M 3116 1747 
Q 3116 2381 2855 2742 
Q 2594 3103 2138 3103 
Q 1681 3103 1420 2742 
Q 1159 2381 1159 1747 
Q 1159 1113 1420 752 
Q 1681 391 2138 391 
Q 2594 391 2855 752 
Q 3116 1113 3116 1747 
z
M 1159 2969 
Q 1341 3281 1617 3432 
Q 1894 3584 2278 3584 
Q 2916 3584 3314 3078 
Q 3713 2572 3713 1747 
Q 3713 922 3314 415 
Q 2916 -91 2278 -91 
Q 1894 -91 1617 61 
Q 1341 213 1159 525 
L 1159 0 
L 581 0 
L 581 4863 
L 1159 4863 
L 1159 2969 
z
" id="DejaVuSans-62" transform="scale(0.015625)"/>
     </defs>
     <use xlink:href="#DejaVuSans-64"/>
     <use x="63.476562" xlink:href="#DejaVuSans-69"/>
     <use x="91.259766" xlink:href="#DejaVuSans-66"/>
     <use x="126.464844" xlink:href="#DejaVuSans-66"/>
     <use x="161.669922" xlink:href="#DejaVuSans-63"/>
     <use x="216.650391" xlink:href="#DejaVuSans-6d"/>
     <use x="314.0625" xlink:href="#DejaVuSans-61"/>
     <use x="375.341797" xlink:href="#DejaVuSans-20"/>
     <use x="407.128906" xlink:href="#DejaVuSans-62"/>
    </g>
   </g>
   <g id="text_15">
    <!-- cma.fmin  -->
    <g transform="translate(386.578944 110.066005)scale(0.14 -0.14)">
     <use xlink:href="#DejaVuSans-63"/>
     <use x="54.980469" xlink:href="#DejaVuSans-6d"/>
     <use x="152.392578" xlink:href="#DejaVuSans-61"/>
     <use x="213.671875" xlink:href="#DejaVuSans-2e"/>
     <use x="245.458984" xlink:href="#DejaVuSans-66"/>
     <use x="280.664062" xlink:href="#DejaVuSans-6d"/>
     <use x="378.076172" xlink:href="#DejaVuSans-69"/>
     <use x="405.859375" xlink:href="#DejaVuSans-6e"/>
     <use x="469.238281" xlink:href="#DejaVuSans-20"/>
    </g>
   </g>
   <g id="text_16">
    <!-- best 2009 -->
    <g transform="translate(386.578944 16.615765)scale(0.14 -0.14)">
     <defs>
      <path d="M 703 97 
L 703 672 
Q 941 559 1184 500 
Q 1428 441 1663 441 
Q 2288 441 2617 861 
Q 2947 1281 2994 2138 
Q 2813 1869 2534 1725 
Q 2256 1581 1919 1581 
Q 1219 1581 811 2004 
Q 403 2428 403 3163 
Q 403 3881 828 4315 
Q 1253 4750 1959 4750 
Q 2769 4750 3195 4129 
Q 3622 3509 3622 2328 
Q 3622 1225 3098 567 
Q 2575 -91 1691 -91 
Q 1453 -91 1209 -44 
Q 966 3 703 97 
z
M 1959 2075 
Q 2384 2075 2632 2365 
Q 2881 2656 2881 3163 
Q 2881 3666 2632 3958 
Q 2384 4250 1959 4250 
Q 1534 4250 1286 3958 
Q 1038 3666 1038 3163 
Q 1038 2656 1286 2365 
Q 1534 2075 1959 2075 
z
" id="DejaVuSans-39" transform="scale(0.015625)"/>
     </defs>
     <use xlink:href="#DejaVuSans-62"/>
     <use x="63.476562" xlink:href="#DejaVuSans-65"/>
     <use x="125" xlink:href="#DejaVuSans-73"/>
     <use x="177.099609" xlink:href="#DejaVuSans-74"/>
     <use x="216.308594" xlink:href="#DejaVuSans-20"/>
     <use x="248.095703" xlink:href="#DejaVuSans-32"/>
     <use x="311.71875" xlink:href="#DejaVuSans-30"/>
     <use x="375.341797" xlink:href="#DejaVuSans-30"/>
     <use x="438.964844" xlink:href="#DejaVuSans-39"/>
    </g>
   </g>
   <g id="text_17">
    <!-- bbob f20-f24, 20-D -->
    <g transform="translate(60.632064 17.582726)scale(0.102 -0.102)">
     <defs>
      <path d="M 1259 4147 
L 1259 519 
L 2022 519 
Q 2988 519 3436 956 
Q 3884 1394 3884 2338 
Q 3884 3275 3436 3711 
Q 2988 4147 2022 4147 
L 1259 4147 
z
M 628 4666 
L 1925 4666 
Q 3281 4666 3915 4102 
Q 4550 3538 4550 2338 
Q 4550 1131 3912 565 
Q 3275 0 1925 0 
L 628 0 
L 628 4666 
z
" id="DejaVuSans-44" transform="scale(0.015625)"/>
     </defs>
     <use xlink:href="#DejaVuSans-62"/>
     <use x="63.476562" xlink:href="#DejaVuSans-62"/>
     <use x="126.953125" xlink:href="#DejaVuSans-6f"/>
     <use x="188.134766" xlink:href="#DejaVuSans-62"/>
     <use x="251.611328" xlink:href="#DejaVuSans-20"/>
     <use x="283.398438" xlink:href="#DejaVuSans-66"/>
     <use x="318.603516" xlink:href="#DejaVuSans-32"/>
     <use x="382.226562" xlink:href="#DejaVuSans-30"/>
     <use x="445.849609" xlink:href="#DejaVuSans-2d"/>
     <use x="481.933594" xlink:href="#DejaVuSans-66"/>
     <use x="517.138672" xlink:href="#DejaVuSans-32"/>
     <use x="580.761719" xlink:href="#DejaVuSans-34"/>
     <use x="644.384766" xlink:href="#DejaVuSans-2c"/>
     <use x="676.171875" xlink:href="#DejaVuSans-20"/>
     <use x="707.958984" xlink:href="#DejaVuSans-32"/>
     <use x="771.582031" xlink:href="#DejaVuSans-30"/>
     <use x="835.205078" xlink:href="#DejaVuSans-2d"/>
     <use x="871.289062" xlink:href="#DejaVuSans-44"/>
    </g>
    <!-- 51 targets: 100..1e-08 -->
    <g transform="translate(60.632064 29.004495)scale(0.102 -0.102)">
     <defs>
      <path d="M 691 4666 
L 3169 4666 
L 3169 4134 
L 1269 4134 
L 1269 2991 
Q 1406 3038 1543 3061 
Q 1681 3084 1819 3084 
Q 2600 3084 3056 2656 
Q 3513 2228 3513 1497 
Q 3513 744 3044 326 
Q 2575 -91 1722 -91 
Q 1428 -91 1123 -41 
Q 819 9 494 109 
L 494 744 
Q 775 591 1075 516 
Q 1375 441 1709 441 
Q 2250 441 2565 725 
Q 2881 1009 2881 1497 
Q 2881 1984 2565 2268 
Q 2250 2553 1709 2553 
Q 1456 2553 1204 2497 
Q 953 2441 691 2322 
L 691 4666 
z
" id="DejaVuSans-35" transform="scale(0.015625)"/>
      <path d="M 750 794 
L 1409 794 
L 1409 0 
L 750 0 
L 750 794 
z
M 750 3309 
L 1409 3309 
L 1409 2516 
L 750 2516 
L 750 3309 
z
" id="DejaVuSans-3a" transform="scale(0.015625)"/>
     </defs>
     <use xlink:href="#DejaVuSans-35"/>
     <use x="63.623047" xlink:href="#DejaVuSans-31"/>
     <use x="127.246094" xlink:href="#DejaVuSans-20"/>
     <use x="159.033203" xlink:href="#DejaVuSans-74"/>
     <use x="198.242188" xlink:href="#DejaVuSans-61"/>
     <use x="259.521484" xlink:href="#DejaVuSans-72"/>
     <use x="298.884766" xlink:href="#DejaVuSans-67"/>
     <use x="362.361328" xlink:href="#DejaVuSans-65"/>
     <use x="423.884766" xlink:href="#DejaVuSans-74"/>
     <use x="463.09375" xlink:href="#DejaVuSans-73"/>
     <use x="515.193359" xlink:href="#DejaVuSans-3a"/>
     <use x="548.884766" xlink:href="#DejaVuSans-20"/>
     <use x="580.671875" xlink:href="#DejaVuSans-31"/>
     <use x="644.294922" xlink:href="#DejaVuSans-30"/>
     <use x="707.917969" xlink:href="#DejaVuSans-30"/>
     <use x="771.541016" xlink:href="#DejaVuSans-2e"/>
     <use x="803.328125" xlink:href="#DejaVuSans-2e"/>
     <use x="835.115234" xlink:href="#DejaVuSans-31"/>
     <use x="898.738281" xlink:href="#DejaVuSans-65"/>
     <use x="960.261719" xlink:href="#DejaVuSans-2d"/>
     <use x="996.345703" xlink:href="#DejaVuSans-30"/>
     <use x="1059.96875" xlink:href="#DejaVuSans-38"/>
    </g>
    <!-- 15 instances -->
    <g transform="translate(60.632064 40.426264)scale(0.102 -0.102)">
     <use xlink:href="#DejaVuSans-31"/>
     <use x="63.623047" xlink:href="#DejaVuSans-35"/>
     <use x="127.246094" xlink:href="#DejaVuSans-20"/>
     <use x="159.033203" xlink:href="#DejaVuSans-69"/>
     <use x="186.816406" xlink:href="#DejaVuSans-6e"/>
     <use x="250.195312" xlink:href="#DejaVuSans-73"/>
     <use x="302.294922" xlink:href="#DejaVuSans-74"/>
     <use x="341.503906" xlink:href="#DejaVuSans-61"/>
     <use x="402.783203" xlink:href="#DejaVuSans-6e"/>
     <use x="466.162109" xlink:href="#DejaVuSans-63"/>
     <use x="521.142578" xlink:href="#DejaVuSans-65"/>
     <use x="582.666016" xlink:href="#DejaVuSans-73"/>
    </g>
   </g>
   <g id="text_18">
    <!-- v2.6 -->
    <g style="fill:#808080;" transform="translate(198.292262 293.943992)scale(0.1 -0.1)">
     <use xlink:href="#DejaVuSans-76"/>
     <use x="59.179688" xlink:href="#DejaVuSans-32"/>
     <use x="122.802734" xlink:href="#DejaVuSans-2e"/>
     <use x="154.589844" xlink:href="#DejaVuSans-36"/>
    </g>
   </g>
  </g>
 </g>
 <defs>
  <clipPath id="pf73cff19ed">
   <rect height="292.032" width="303.2064" x="57.6" y="6.912"/>
  </clipPath>
 </defs>
</svg>
