<?xml version="1.0" encoding="utf-8" standalone="no"?>
<!DOCTYPE svg PUBLIC "-//W3C//DTD SVG 1.1//EN"
  "http://www.w3.org/Graphics/SVG/1.1/DTD/svg11.dtd">
<svg height="345.6pt" version="1.1" viewBox="0 0 460.8 345.6" width="460.8pt" xmlns="http://www.w3.org/2000/svg" xmlns:xlink="http://www.w3.org/1999/xlink">
 <metadata>
  <rdf:RDF xmlns:cc="http://creativecommons.org/ns#" xmlns:dc="http://purl.org/dc/elements/1.1/" xmlns:rdf="http://www.w3.org/1999/02/22-rdf-syntax-ns#">
   <cc:Work>
    <dc:type rdf:resource="http://purl.org/dc/dcmitype/StillImage"/>
    <dc:date>2022-05-07T21:24:49.136610</dc:date>
    <dc:format>image/svg+xml</dc:format>
    <dc:creator>
     <cc:Agent>
      <dc:title>Matplotlib v3.4.3, https://matplotlib.org/</dc:title>
     </cc:Agent>
    </dc:creator>
   </cc:Work>
  </rdf:RDF>
 </metadata>
 <defs>
  <style type="text/css">*{stroke-linecap:butt;stroke-linejoin:round;}</style>
 </defs>
 <g id="figure_1">
  <g id="patch_1">
   <path d="M 0 345.6 
L 460.8 345.6 
L 460.8 0 
L 0 0 
z
" style="fill:#ffffff;"/>
  </g>
  <g id="axes_1">
   <g id="patch_2">
    <path d="M 57.6 298.944 
L 360.8064 298.944 
L 360.8064 6.912 
L 57.6 6.912 
z
" style="fill:#ffffff;"/>
   </g>
   <g id="line2d_1">
    <path d="M 1.245626 298.944 
L 1.245626 278.329976 
L 21.912228 278.329976 
L 21.912228 276.039529 
L 37.851216 276.039529 
L 37.851216 273.749082 
L 46.353758 273.749082 
L 46.353758 272.603859 
L 62.535479 272.603859 
L 62.535479 271.458635 
L 79.184421 271.458635 
L 79.184421 270.313412 
L 90.668036 270.313412 
L 90.668036 269.168188 
L 92.372304 269.168188 
L 92.372304 268.022965 
L 105.26277 268.022965 
L 105.26277 266.877741 
L 108.85357 266.877741 
L 108.85357 265.732518 
L 115.314838 265.732518 
L 115.314838 264.587294 
L 116.907859 264.587294 
L 116.907859 263.442071 
L 119.599808 263.442071 
L 119.599808 262.296847 
L 121.892744 262.296847 
L 121.892744 261.151624 
L 122.228947 261.151624 
L 122.228947 260.0064 
L 127.88896 260.0064 
L 127.88896 258.861176 
L 128.023009 258.861176 
L 128.023009 257.715953 
L 131.747272 257.715953 
L 131.747272 256.570729 
L 132.812362 256.570729 
L 132.812362 255.425506 
L 136.399653 255.425506 
L 136.399653 254.280282 
L 137.304564 254.280282 
L 137.304564 253.135059 
L 138.476961 253.135059 
L 138.476961 251.989835 
L 140.849495 251.989835 
L 140.849495 250.844612 
L 142.425236 250.844612 
L 142.425236 249.699388 
L 145.712961 249.699388 
L 145.712961 248.554165 
L 148.984124 248.554165 
L 148.984124 247.408941 
L 151.26544 247.408941 
L 151.26544 246.263718 
L 155.706148 246.263718 
L 155.706148 245.118494 
L 155.85377 245.118494 
L 155.85377 243.973271 
L 157.137431 243.973271 
L 157.137431 242.828047 
L 157.293074 242.828047 
L 157.293074 241.682824 
L 162.309673 241.682824 
L 162.309673 240.5376 
L 163.829508 240.5376 
L 163.829508 239.392376 
L 165.91013 239.392376 
L 165.91013 238.247153 
L 166.055142 238.247153 
L 166.055142 237.101929 
L 166.655701 237.101929 
L 166.661411 234.811482 
L 168.498408 234.811482 
L 168.498408 233.666259 
L 168.819278 233.666259 
L 168.819278 232.521035 
L 170.39087 232.521035 
L 170.39087 231.375812 
L 173.402394 231.375812 
L 173.402394 230.230588 
L 175.978552 230.230588 
L 175.978552 229.085365 
L 178.311769 229.085365 
L 178.311769 227.940141 
L 184.798946 227.940141 
L 184.798946 226.794918 
L 185.075543 226.794918 
L 185.075543 225.649694 
L 185.751821 225.649694 
L 185.751821 224.504471 
L 187.128087 224.504471 
L 187.128087 223.359247 
L 188.0312 223.359247 
L 188.0312 222.214024 
L 188.928799 222.214024 
L 188.928799 221.0688 
L 189.458713 221.0688 
L 189.458713 219.923576 
L 190.322198 219.923576 
L 190.322198 218.778353 
L 191.786118 218.778353 
L 191.786118 217.633129 
L 191.983279 217.633129 
L 191.983279 216.487906 
L 192.994932 216.487906 
L 192.994932 215.342682 
L 193.210531 215.342682 
L 193.210531 214.197459 
L 193.374765 214.197459 
L 193.374765 213.052235 
L 194.24439 213.052235 
L 194.24439 211.907012 
L 195.408573 211.907012 
L 195.408573 210.761788 
L 195.592823 210.761788 
L 195.643651 208.471341 
L 196.49437 208.471341 
L 196.49437 207.326118 
L 196.996718 207.326118 
L 196.996718 206.180894 
L 197.710339 206.180894 
L 197.710339 205.035671 
L 198.838531 205.035671 
L 198.838531 203.890447 
L 199.50367 203.890447 
L 199.50367 202.745224 
L 202.322045 202.745224 
L 202.322045 201.6 
L 202.643036 201.6 
L 202.643036 200.454776 
L 203.319534 200.454776 
L 203.416475 198.164329 
L 205.365509 198.164329 
L 205.447399 195.873882 
L 206.370076 195.873882 
L 206.370076 194.728659 
L 206.509599 194.728659 
L 206.509599 193.583435 
L 206.786593 193.583435 
L 206.786593 192.438212 
L 207.010837 192.438212 
L 207.010837 191.292988 
L 207.214926 191.292988 
L 207.214926 190.147765 
L 208.15128 190.147765 
L 208.15128 189.002541 
L 208.559807 189.002541 
L 208.559807 187.857318 
L 209.596275 187.857318 
L 209.596275 186.712094 
L 209.97033 186.712094 
L 210.00257 184.421647 
L 210.10548 184.421647 
L 210.10548 183.276424 
L 210.447104 183.276424 
L 210.447104 182.1312 
L 210.796577 182.1312 
L 210.796577 180.985976 
L 211.03554 180.985976 
L 211.03554 179.840753 
L 211.380441 179.840753 
L 211.380441 178.695529 
L 211.662322 178.695529 
L 211.662322 177.550306 
L 212.908613 177.550306 
L 212.908613 176.405082 
L 213.039324 176.405082 
L 213.039324 175.259859 
L 213.289678 175.259859 
L 213.289678 174.114635 
L 213.49583 174.114635 
L 213.49583 172.969412 
L 213.734611 172.969412 
L 213.734611 171.824188 
L 214.711202 171.824188 
L 214.711202 170.678965 
L 215.437392 170.678965 
L 215.494107 168.388518 
L 216.212149 168.388518 
L 216.318406 166.098071 
L 216.438852 166.098071 
L 216.438852 164.952847 
L 216.55652 164.952847 
L 216.55652 163.807624 
L 216.679254 163.807624 
L 216.773368 161.517176 
L 217.73546 161.517176 
L 217.73546 160.371953 
L 217.92256 160.371953 
L 217.92256 159.226729 
L 218.613253 159.226729 
L 218.613253 158.081506 
L 219.3299 158.081506 
L 219.3299 156.936282 
L 219.742044 156.936282 
L 219.742044 155.791059 
L 219.950994 155.791059 
L 219.950994 154.645835 
L 220.272604 154.645835 
L 220.272604 153.500612 
L 222.168151 153.500612 
L 222.168151 152.355388 
L 222.660048 152.355388 
L 222.660048 151.210165 
L 222.844448 151.210165 
L 222.844448 150.064941 
L 222.972203 150.064941 
L 223.077628 147.774494 
L 223.157267 147.774494 
L 223.25814 145.484047 
L 223.385645 145.484047 
L 223.385645 144.338824 
L 223.565457 144.338824 
L 223.565457 143.1936 
L 223.849001 143.1936 
L 223.849001 142.048376 
L 224.05244 142.048376 
L 224.05244 140.903153 
L 224.315742 140.903153 
L 224.315742 139.757929 
L 224.55201 139.757929 
L 224.55201 138.612706 
L 224.675641 138.612706 
L 224.675641 137.467482 
L 224.872836 137.467482 
L 224.872836 136.322259 
L 225.008767 136.322259 
L 225.009794 134.031812 
L 225.160159 134.031812 
L 225.261511 130.596141 
L 225.375797 130.596141 
L 225.475497 128.305694 
L 225.579279 128.305694 
L 225.579279 127.160471 
L 228.380873 127.160471 
L 228.380873 126.015247 
L 229.199921 126.015247 
L 229.199921 124.870024 
L 229.690823 124.870024 
L 229.798117 121.434353 
L 229.843644 121.434353 
L 229.917663 119.143906 
L 230.407382 119.143906 
L 230.49975 115.708235 
L 230.560727 115.708235 
L 230.649968 112.272565 
L 230.694526 112.272565 
L 230.750808 109.982118 
L 232.384954 109.982118 
L 232.462597 106.546447 
L 232.499963 106.546447 
L 232.573956 103.110776 
L 232.619327 103.110776 
L 232.72031 98.529882 
L 232.759293 98.529882 
L 232.840406 95.094212 
L 234.930576 95.094212 
L 234.930576 93.948988 
L 237.021515 93.948988 
L 237.126095 90.513318 
L 239.144882 90.513318 
L 239.198758 88.222871 
L 239.257417 88.222871 
L 239.343357 84.7872 
L 239.400373 84.7872 
L 239.500702 81.351529 
L 239.546755 81.351529 
L 239.649316 77.915859 
L 239.697947 77.915859 
L 239.805186 73.334965 
L 239.838131 73.334965 
L 239.874631 69.899294 
L 241.019511 69.899294 
L 241.034907 64.173176 
L 242.10216 64.173176 
L 242.108885 61.882729 
L 246.051924 61.882729 
L 246.136296 58.447059 
L 246.177424 58.447059 
L 246.247709 55.011388 
L 246.290623 55.011388 
L 246.376202 51.575718 
L 246.413477 51.575718 
L 246.491166 48.140047 
L 246.532548 48.140047 
L 246.600177 44.704376 
L 246.649855 44.704376 
L 246.686065 42.413929 
L 290.176555 42.413929 
L 290.176555 41.268706 
L 291.027124 41.268706 
L 291.027124 40.123482 
L 292.254312 40.123482 
L 292.254312 38.978259 
L 293.286752 38.978259 
L 293.286752 37.833035 
L 295.413291 37.833035 
L 295.413291 36.687812 
L 295.526099 36.687812 
L 295.526099 35.542588 
L 296.745344 35.542588 
L 296.842412 27.526024 
L 296.857868 27.526024 
L 296.96189 17.219012 
L 296.978119 17.219012 
L 297.079213 6.912 
L 360.8064 6.912 
L 360.8064 6.912 
" style="fill:none;stroke:#f5deb3;stroke-linecap:square;stroke-width:4;"/>
   </g>
   <g id="line2d_2">
    <defs>
     <path d="M -0 7.778175 
L 7.778175 0 
L 0 -7.778175 
L -7.778175 -0 
z
" id="m8243564b3f" style="stroke:#f5deb3;stroke-linejoin:miter;stroke-width:1.5;"/>
    </defs>
    <g>
     <use style="fill:#f5deb3;stroke:#f5deb3;stroke-linejoin:miter;stroke-width:1.5;" x="148.984124" xlink:href="#m8243564b3f" y="248.554165"/>
     <use style="fill:#f5deb3;stroke:#f5deb3;stroke-linejoin:miter;stroke-width:1.5;" x="203.319534" xlink:href="#m8243564b3f" y="200.454776"/>
     <use style="fill:#f5deb3;stroke:#f5deb3;stroke-linejoin:miter;stroke-width:1.5;" x="246.136296" xlink:href="#m8243564b3f" y="59.592282"/>
     <use style="fill:#f5deb3;stroke:#f5deb3;stroke-linejoin:miter;stroke-width:1.5;" x="297.079213" xlink:href="#m8243564b3f" y="8.057224"/>
     <use style="fill:#f5deb3;stroke:#f5deb3;stroke-linejoin:miter;stroke-width:1.5;" x="297.079213" xlink:href="#m8243564b3f" y="6.912"/>
     <use style="fill:#f5deb3;stroke:#f5deb3;stroke-linejoin:miter;stroke-width:1.5;" x="360.8064" xlink:href="#m8243564b3f" y="6.912"/>
    </g>
   </g>
   <g id="line2d_3">
    <path style="fill:none;stroke:#f5deb3;stroke-linecap:square;stroke-width:4;"/>
    <g/>
   </g>
   <g id="line2d_4">
    <path d="M 360.8064 6.912 
L 380.514816 12.75264 
" style="fill:none;stroke:#f5deb3;stroke-linecap:square;stroke-width:4;"/>
    <g>
     <use style="fill:#f5deb3;stroke:#f5deb3;stroke-linejoin:miter;stroke-width:1.5;" x="360.8064" xlink:href="#m8243564b3f" y="6.912"/>
     <use style="fill:#f5deb3;stroke:#f5deb3;stroke-linejoin:miter;stroke-width:1.5;" x="380.514816" xlink:href="#m8243564b3f" y="12.75264"/>
    </g>
   </g>
   <g id="matplotlib.axis_1">
    <g id="xtick_1">
     <g id="line2d_5">
      <path clip-path="url(#p37082c29d1)" d="M 57.6 298.944 
L 57.6 6.912 
" style="fill:none;stroke:#b0b0b0;stroke-linecap:square;stroke-width:0.8;"/>
     </g>
     <g id="line2d_6">
      <defs>
       <path d="M 0 0 
L 0 3.5 
" id="mcfde377a7c" style="stroke:#000000;stroke-width:0.8;"/>
      </defs>
      <g>
       <use style="stroke:#000000;stroke-width:0.8;" x="57.6" xlink:href="#mcfde377a7c" y="298.944"/>
      </g>
     </g>
     <g id="text_1">
      <!-- 0 -->
      <g transform="translate(52.191875 318.861344)scale(0.17 -0.17)">
       <defs>
        <path d="M 2034 4250 
Q 1547 4250 1301 3770 
Q 1056 3291 1056 2328 
Q 1056 1369 1301 889 
Q 1547 409 2034 409 
Q 2525 409 2770 889 
Q 3016 1369 3016 2328 
Q 3016 3291 2770 3770 
Q 2525 4250 2034 4250 
z
M 2034 4750 
Q 2819 4750 3233 4129 
Q 3647 3509 3647 2328 
Q 3647 1150 3233 529 
Q 2819 -91 2034 -91 
Q 1250 -91 836 529 
Q 422 1150 422 2328 
Q 422 3509 836 4129 
Q 1250 4750 2034 4750 
z
" id="DejaVuSans-30" transform="scale(0.015625)"/>
       </defs>
       <use xlink:href="#DejaVuSans-30"/>
      </g>
     </g>
    </g>
    <g id="xtick_2">
     <g id="line2d_7">
      <path clip-path="url(#p37082c29d1)" d="M 144.2304 298.944 
L 144.2304 6.912 
" style="fill:none;stroke:#b0b0b0;stroke-linecap:square;stroke-width:0.8;"/>
     </g>
     <g id="line2d_8">
      <g>
       <use style="stroke:#000000;stroke-width:0.8;" x="144.2304" xlink:href="#mcfde377a7c" y="298.944"/>
      </g>
     </g>
     <g id="text_2">
      <!-- 2 -->
      <g transform="translate(138.822275 318.861344)scale(0.17 -0.17)">
       <defs>
        <path d="M 1228 531 
L 3431 531 
L 3431 0 
L 469 0 
L 469 531 
Q 828 903 1448 1529 
Q 2069 2156 2228 2338 
Q 2531 2678 2651 2914 
Q 2772 3150 2772 3378 
Q 2772 3750 2511 3984 
Q 2250 4219 1831 4219 
Q 1534 4219 1204 4116 
Q 875 4013 500 3803 
L 500 4441 
Q 881 4594 1212 4672 
Q 1544 4750 1819 4750 
Q 2544 4750 2975 4387 
Q 3406 4025 3406 3419 
Q 3406 3131 3298 2873 
Q 3191 2616 2906 2266 
Q 2828 2175 2409 1742 
Q 1991 1309 1228 531 
z
" id="DejaVuSans-32" transform="scale(0.015625)"/>
       </defs>
       <use xlink:href="#DejaVuSans-32"/>
      </g>
     </g>
    </g>
    <g id="xtick_3">
     <g id="line2d_9">
      <path clip-path="url(#p37082c29d1)" d="M 230.8608 298.944 
L 230.8608 6.912 
" style="fill:none;stroke:#b0b0b0;stroke-linecap:square;stroke-width:0.8;"/>
     </g>
     <g id="line2d_10">
      <g>
       <use style="stroke:#000000;stroke-width:0.8;" x="230.8608" xlink:href="#mcfde377a7c" y="298.944"/>
      </g>
     </g>
     <g id="text_3">
      <!-- 4 -->
      <g transform="translate(225.452675 318.861344)scale(0.17 -0.17)">
       <defs>
        <path d="M 2419 4116 
L 825 1625 
L 2419 1625 
L 2419 4116 
z
M 2253 4666 
L 3047 4666 
L 3047 1625 
L 3713 1625 
L 3713 1100 
L 3047 1100 
L 3047 0 
L 2419 0 
L 2419 1100 
L 313 1100 
L 313 1709 
L 2253 4666 
z
" id="DejaVuSans-34" transform="scale(0.015625)"/>
       </defs>
       <use xlink:href="#DejaVuSans-34"/>
      </g>
     </g>
    </g>
    <g id="xtick_4">
     <g id="line2d_11">
      <path clip-path="url(#p37082c29d1)" d="M 317.4912 298.944 
L 317.4912 6.912 
" style="fill:none;stroke:#b0b0b0;stroke-linecap:square;stroke-width:0.8;"/>
     </g>
     <g id="line2d_12">
      <g>
       <use style="stroke:#000000;stroke-width:0.8;" x="317.4912" xlink:href="#mcfde377a7c" y="298.944"/>
      </g>
     </g>
     <g id="text_4">
      <!-- 6 -->
      <g transform="translate(312.083075 318.861344)scale(0.17 -0.17)">
       <defs>
        <path d="M 2113 2584 
Q 1688 2584 1439 2293 
Q 1191 2003 1191 1497 
Q 1191 994 1439 701 
Q 1688 409 2113 409 
Q 2538 409 2786 701 
Q 3034 994 3034 1497 
Q 3034 2003 2786 2293 
Q 2538 2584 2113 2584 
z
M 3366 4563 
L 3366 3988 
Q 3128 4100 2886 4159 
Q 2644 4219 2406 4219 
Q 1781 4219 1451 3797 
Q 1122 3375 1075 2522 
Q 1259 2794 1537 2939 
Q 1816 3084 2150 3084 
Q 2853 3084 3261 2657 
Q 3669 2231 3669 1497 
Q 3669 778 3244 343 
Q 2819 -91 2113 -91 
Q 1303 -91 875 529 
Q 447 1150 447 2328 
Q 447 3434 972 4092 
Q 1497 4750 2381 4750 
Q 2619 4750 2861 4703 
Q 3103 4656 3366 4563 
z
" id="DejaVuSans-36" transform="scale(0.015625)"/>
       </defs>
       <use xlink:href="#DejaVuSans-36"/>
      </g>
     </g>
    </g>
    <g id="xtick_5">
     <g id="line2d_13">
      <path clip-path="url(#p37082c29d1)" d="M 100.9152 298.944 
L 100.9152 6.912 
" style="fill:none;stroke:#b0b0b0;stroke-linecap:square;stroke-width:0.8;"/>
     </g>
     <g id="line2d_14">
      <defs>
       <path d="M 0 0 
L 0 2 
" id="m34fcc5412a" style="stroke:#000000;stroke-width:0.6;"/>
      </defs>
      <g>
       <use style="stroke:#000000;stroke-width:0.6;" x="100.9152" xlink:href="#m34fcc5412a" y="298.944"/>
      </g>
     </g>
    </g>
    <g id="xtick_6">
     <g id="line2d_15">
      <path clip-path="url(#p37082c29d1)" d="M 187.5456 298.944 
L 187.5456 6.912 
" style="fill:none;stroke:#b0b0b0;stroke-linecap:square;stroke-width:0.8;"/>
     </g>
     <g id="line2d_16">
      <g>
       <use style="stroke:#000000;stroke-width:0.6;" x="187.5456" xlink:href="#m34fcc5412a" y="298.944"/>
      </g>
     </g>
    </g>
    <g id="xtick_7">
     <g id="line2d_17">
      <path clip-path="url(#p37082c29d1)" d="M 274.176 298.944 
L 274.176 6.912 
" style="fill:none;stroke:#b0b0b0;stroke-linecap:square;stroke-width:0.8;"/>
     </g>
     <g id="line2d_18">
      <g>
       <use style="stroke:#000000;stroke-width:0.6;" x="274.176" xlink:href="#m34fcc5412a" y="298.944"/>
      </g>
     </g>
    </g>
    <g id="xtick_8">
     <g id="line2d_19">
      <path clip-path="url(#p37082c29d1)" d="M 360.8064 298.944 
L 360.8064 6.912 
" style="fill:none;stroke:#b0b0b0;stroke-linecap:square;stroke-width:0.8;"/>
     </g>
     <g id="line2d_20">
      <g>
       <use style="stroke:#000000;stroke-width:0.6;" x="360.8064" xlink:href="#m34fcc5412a" y="298.944"/>
      </g>
     </g>
    </g>
    <g id="text_5">
     <!-- log10(# f-evals / dimension) -->
     <g transform="translate(88.823278 339.314156)scale(0.17 -0.17)">
      <defs>
       <path d="M 603 4863 
L 1178 4863 
L 1178 0 
L 603 0 
L 603 4863 
z
" id="DejaVuSans-6c" transform="scale(0.015625)"/>
       <path d="M 1959 3097 
Q 1497 3097 1228 2736 
Q 959 2375 959 1747 
Q 959 1119 1226 758 
Q 1494 397 1959 397 
Q 2419 397 2687 759 
Q 2956 1122 2956 1747 
Q 2956 2369 2687 2733 
Q 2419 3097 1959 3097 
z
M 1959 3584 
Q 2709 3584 3137 3096 
Q 3566 2609 3566 1747 
Q 3566 888 3137 398 
Q 2709 -91 1959 -91 
Q 1206 -91 779 398 
Q 353 888 353 1747 
Q 353 2609 779 3096 
Q 1206 3584 1959 3584 
z
" id="DejaVuSans-6f" transform="scale(0.015625)"/>
       <path d="M 2906 1791 
Q 2906 2416 2648 2759 
Q 2391 3103 1925 3103 
Q 1463 3103 1205 2759 
Q 947 2416 947 1791 
Q 947 1169 1205 825 
Q 1463 481 1925 481 
Q 2391 481 2648 825 
Q 2906 1169 2906 1791 
z
M 3481 434 
Q 3481 -459 3084 -895 
Q 2688 -1331 1869 -1331 
Q 1566 -1331 1297 -1286 
Q 1028 -1241 775 -1147 
L 775 -588 
Q 1028 -725 1275 -790 
Q 1522 -856 1778 -856 
Q 2344 -856 2625 -561 
Q 2906 -266 2906 331 
L 2906 616 
Q 2728 306 2450 153 
Q 2172 0 1784 0 
Q 1141 0 747 490 
Q 353 981 353 1791 
Q 353 2603 747 3093 
Q 1141 3584 1784 3584 
Q 2172 3584 2450 3431 
Q 2728 3278 2906 2969 
L 2906 3500 
L 3481 3500 
L 3481 434 
z
" id="DejaVuSans-67" transform="scale(0.015625)"/>
       <path d="M 794 531 
L 1825 531 
L 1825 4091 
L 703 3866 
L 703 4441 
L 1819 4666 
L 2450 4666 
L 2450 531 
L 3481 531 
L 3481 0 
L 794 0 
L 794 531 
z
" id="DejaVuSans-31" transform="scale(0.015625)"/>
       <path d="M 1984 4856 
Q 1566 4138 1362 3434 
Q 1159 2731 1159 2009 
Q 1159 1288 1364 580 
Q 1569 -128 1984 -844 
L 1484 -844 
Q 1016 -109 783 600 
Q 550 1309 550 2009 
Q 550 2706 781 3412 
Q 1013 4119 1484 4856 
L 1984 4856 
z
" id="DejaVuSans-28" transform="scale(0.015625)"/>
       <path d="M 3272 2816 
L 2363 2816 
L 2100 1772 
L 3016 1772 
L 3272 2816 
z
M 2803 4594 
L 2478 3297 
L 3391 3297 
L 3719 4594 
L 4219 4594 
L 3897 3297 
L 4872 3297 
L 4872 2816 
L 3775 2816 
L 3519 1772 
L 4513 1772 
L 4513 1294 
L 3397 1294 
L 3072 0 
L 2572 0 
L 2894 1294 
L 1978 1294 
L 1656 0 
L 1153 0 
L 1478 1294 
L 494 1294 
L 494 1772 
L 1594 1772 
L 1856 2816 
L 850 2816 
L 850 3297 
L 1978 3297 
L 2297 4594 
L 2803 4594 
z
" id="DejaVuSans-23" transform="scale(0.015625)"/>
       <path id="DejaVuSans-20" transform="scale(0.015625)"/>
       <path d="M 2375 4863 
L 2375 4384 
L 1825 4384 
Q 1516 4384 1395 4259 
Q 1275 4134 1275 3809 
L 1275 3500 
L 2222 3500 
L 2222 3053 
L 1275 3053 
L 1275 0 
L 697 0 
L 697 3053 
L 147 3053 
L 147 3500 
L 697 3500 
L 697 3744 
Q 697 4328 969 4595 
Q 1241 4863 1831 4863 
L 2375 4863 
z
" id="DejaVuSans-66" transform="scale(0.015625)"/>
       <path d="M 313 2009 
L 1997 2009 
L 1997 1497 
L 313 1497 
L 313 2009 
z
" id="DejaVuSans-2d" transform="scale(0.015625)"/>
       <path d="M 3597 1894 
L 3597 1613 
L 953 1613 
Q 991 1019 1311 708 
Q 1631 397 2203 397 
Q 2534 397 2845 478 
Q 3156 559 3463 722 
L 3463 178 
Q 3153 47 2828 -22 
Q 2503 -91 2169 -91 
Q 1331 -91 842 396 
Q 353 884 353 1716 
Q 353 2575 817 3079 
Q 1281 3584 2069 3584 
Q 2775 3584 3186 3129 
Q 3597 2675 3597 1894 
z
M 3022 2063 
Q 3016 2534 2758 2815 
Q 2500 3097 2075 3097 
Q 1594 3097 1305 2825 
Q 1016 2553 972 2059 
L 3022 2063 
z
" id="DejaVuSans-65" transform="scale(0.015625)"/>
       <path d="M 191 3500 
L 800 3500 
L 1894 563 
L 2988 3500 
L 3597 3500 
L 2284 0 
L 1503 0 
L 191 3500 
z
" id="DejaVuSans-76" transform="scale(0.015625)"/>
       <path d="M 2194 1759 
Q 1497 1759 1228 1600 
Q 959 1441 959 1056 
Q 959 750 1161 570 
Q 1363 391 1709 391 
Q 2188 391 2477 730 
Q 2766 1069 2766 1631 
L 2766 1759 
L 2194 1759 
z
M 3341 1997 
L 3341 0 
L 2766 0 
L 2766 531 
Q 2569 213 2275 61 
Q 1981 -91 1556 -91 
Q 1019 -91 701 211 
Q 384 513 384 1019 
Q 384 1609 779 1909 
Q 1175 2209 1959 2209 
L 2766 2209 
L 2766 2266 
Q 2766 2663 2505 2880 
Q 2244 3097 1772 3097 
Q 1472 3097 1187 3025 
Q 903 2953 641 2809 
L 641 3341 
Q 956 3463 1253 3523 
Q 1550 3584 1831 3584 
Q 2591 3584 2966 3190 
Q 3341 2797 3341 1997 
z
" id="DejaVuSans-61" transform="scale(0.015625)"/>
       <path d="M 2834 3397 
L 2834 2853 
Q 2591 2978 2328 3040 
Q 2066 3103 1784 3103 
Q 1356 3103 1142 2972 
Q 928 2841 928 2578 
Q 928 2378 1081 2264 
Q 1234 2150 1697 2047 
L 1894 2003 
Q 2506 1872 2764 1633 
Q 3022 1394 3022 966 
Q 3022 478 2636 193 
Q 2250 -91 1575 -91 
Q 1294 -91 989 -36 
Q 684 19 347 128 
L 347 722 
Q 666 556 975 473 
Q 1284 391 1588 391 
Q 1994 391 2212 530 
Q 2431 669 2431 922 
Q 2431 1156 2273 1281 
Q 2116 1406 1581 1522 
L 1381 1569 
Q 847 1681 609 1914 
Q 372 2147 372 2553 
Q 372 3047 722 3315 
Q 1072 3584 1716 3584 
Q 2034 3584 2315 3537 
Q 2597 3491 2834 3397 
z
" id="DejaVuSans-73" transform="scale(0.015625)"/>
       <path d="M 1625 4666 
L 2156 4666 
L 531 -594 
L 0 -594 
L 1625 4666 
z
" id="DejaVuSans-2f" transform="scale(0.015625)"/>
       <path d="M 2906 2969 
L 2906 4863 
L 3481 4863 
L 3481 0 
L 2906 0 
L 2906 525 
Q 2725 213 2448 61 
Q 2172 -91 1784 -91 
Q 1150 -91 751 415 
Q 353 922 353 1747 
Q 353 2572 751 3078 
Q 1150 3584 1784 3584 
Q 2172 3584 2448 3432 
Q 2725 3281 2906 2969 
z
M 947 1747 
Q 947 1113 1208 752 
Q 1469 391 1925 391 
Q 2381 391 2643 752 
Q 2906 1113 2906 1747 
Q 2906 2381 2643 2742 
Q 2381 3103 1925 3103 
Q 1469 3103 1208 2742 
Q 947 2381 947 1747 
z
" id="DejaVuSans-64" transform="scale(0.015625)"/>
       <path d="M 603 3500 
L 1178 3500 
L 1178 0 
L 603 0 
L 603 3500 
z
M 603 4863 
L 1178 4863 
L 1178 4134 
L 603 4134 
L 603 4863 
z
" id="DejaVuSans-69" transform="scale(0.015625)"/>
       <path d="M 3328 2828 
Q 3544 3216 3844 3400 
Q 4144 3584 4550 3584 
Q 5097 3584 5394 3201 
Q 5691 2819 5691 2113 
L 5691 0 
L 5113 0 
L 5113 2094 
Q 5113 2597 4934 2840 
Q 4756 3084 4391 3084 
Q 3944 3084 3684 2787 
Q 3425 2491 3425 1978 
L 3425 0 
L 2847 0 
L 2847 2094 
Q 2847 2600 2669 2842 
Q 2491 3084 2119 3084 
Q 1678 3084 1418 2786 
Q 1159 2488 1159 1978 
L 1159 0 
L 581 0 
L 581 3500 
L 1159 3500 
L 1159 2956 
Q 1356 3278 1631 3431 
Q 1906 3584 2284 3584 
Q 2666 3584 2933 3390 
Q 3200 3197 3328 2828 
z
" id="DejaVuSans-6d" transform="scale(0.015625)"/>
       <path d="M 3513 2113 
L 3513 0 
L 2938 0 
L 2938 2094 
Q 2938 2591 2744 2837 
Q 2550 3084 2163 3084 
Q 1697 3084 1428 2787 
Q 1159 2491 1159 1978 
L 1159 0 
L 581 0 
L 581 3500 
L 1159 3500 
L 1159 2956 
Q 1366 3272 1645 3428 
Q 1925 3584 2291 3584 
Q 2894 3584 3203 3211 
Q 3513 2838 3513 2113 
z
" id="DejaVuSans-6e" transform="scale(0.015625)"/>
       <path d="M 513 4856 
L 1013 4856 
Q 1481 4119 1714 3412 
Q 1947 2706 1947 2009 
Q 1947 1309 1714 600 
Q 1481 -109 1013 -844 
L 513 -844 
Q 928 -128 1133 580 
Q 1338 1288 1338 2009 
Q 1338 2731 1133 3434 
Q 928 4138 513 4856 
z
" id="DejaVuSans-29" transform="scale(0.015625)"/>
      </defs>
      <use xlink:href="#DejaVuSans-6c"/>
      <use x="27.783203" xlink:href="#DejaVuSans-6f"/>
      <use x="88.964844" xlink:href="#DejaVuSans-67"/>
      <use x="152.441406" xlink:href="#DejaVuSans-31"/>
      <use x="216.064453" xlink:href="#DejaVuSans-30"/>
      <use x="279.6875" xlink:href="#DejaVuSans-28"/>
      <use x="318.701172" xlink:href="#DejaVuSans-23"/>
      <use x="402.490234" xlink:href="#DejaVuSans-20"/>
      <use x="434.277344" xlink:href="#DejaVuSans-66"/>
      <use x="463.982422" xlink:href="#DejaVuSans-2d"/>
      <use x="500.066406" xlink:href="#DejaVuSans-65"/>
      <use x="561.589844" xlink:href="#DejaVuSans-76"/>
      <use x="620.769531" xlink:href="#DejaVuSans-61"/>
      <use x="682.048828" xlink:href="#DejaVuSans-6c"/>
      <use x="709.832031" xlink:href="#DejaVuSans-73"/>
      <use x="761.931641" xlink:href="#DejaVuSans-20"/>
      <use x="793.71875" xlink:href="#DejaVuSans-2f"/>
      <use x="827.410156" xlink:href="#DejaVuSans-20"/>
      <use x="859.197266" xlink:href="#DejaVuSans-64"/>
      <use x="922.673828" xlink:href="#DejaVuSans-69"/>
      <use x="950.457031" xlink:href="#DejaVuSans-6d"/>
      <use x="1047.869141" xlink:href="#DejaVuSans-65"/>
      <use x="1109.392578" xlink:href="#DejaVuSans-6e"/>
      <use x="1172.771484" xlink:href="#DejaVuSans-73"/>
      <use x="1224.871094" xlink:href="#DejaVuSans-69"/>
      <use x="1252.654297" xlink:href="#DejaVuSans-6f"/>
      <use x="1313.835938" xlink:href="#DejaVuSans-6e"/>
      <use x="1377.214844" xlink:href="#DejaVuSans-29"/>
     </g>
    </g>
   </g>
   <g id="matplotlib.axis_2">
    <g id="ytick_1">
     <g id="line2d_21">
      <path clip-path="url(#p37082c29d1)" d="M 57.6 298.944 
L 360.8064 298.944 
" style="fill:none;stroke:#b0b0b0;stroke-linecap:square;stroke-width:0.8;"/>
     </g>
     <g id="line2d_22">
      <defs>
       <path d="M 0 0 
L -3.5 0 
" id="ma609d0c46b" style="stroke:#000000;stroke-width:0.8;"/>
      </defs>
      <g>
       <use style="stroke:#000000;stroke-width:0.8;" x="57.6" xlink:href="#ma609d0c46b" y="298.944"/>
      </g>
     </g>
     <g id="text_6">
      <!-- 0.0 -->
      <g transform="translate(25.155 305.02275)scale(0.16 -0.16)">
       <defs>
        <path d="M 684 794 
L 1344 794 
L 1344 0 
L 684 0 
L 684 794 
z
" id="DejaVuSans-2e" transform="scale(0.015625)"/>
       </defs>
       <use xlink:href="#DejaVuSans-30"/>
       <use x="63.623047" xlink:href="#DejaVuSans-2e"/>
       <use x="95.410156" xlink:href="#DejaVuSans-30"/>
      </g>
     </g>
    </g>
    <g id="ytick_2">
     <g id="line2d_23">
      <path clip-path="url(#p37082c29d1)" d="M 57.6 240.5376 
L 360.8064 240.5376 
" style="fill:none;stroke:#b0b0b0;stroke-linecap:square;stroke-width:0.8;"/>
     </g>
     <g id="line2d_24">
      <g>
       <use style="stroke:#000000;stroke-width:0.8;" x="57.6" xlink:href="#ma609d0c46b" y="240.5376"/>
      </g>
     </g>
     <g id="text_7">
      <!-- 0.2 -->
      <g transform="translate(25.155 246.61635)scale(0.16 -0.16)">
       <use xlink:href="#DejaVuSans-30"/>
       <use x="63.623047" xlink:href="#DejaVuSans-2e"/>
       <use x="95.410156" xlink:href="#DejaVuSans-32"/>
      </g>
     </g>
    </g>
    <g id="ytick_3">
     <g id="line2d_25">
      <path clip-path="url(#p37082c29d1)" d="M 57.6 182.1312 
L 360.8064 182.1312 
" style="fill:none;stroke:#b0b0b0;stroke-linecap:square;stroke-width:0.8;"/>
     </g>
     <g id="line2d_26">
      <g>
       <use style="stroke:#000000;stroke-width:0.8;" x="57.6" xlink:href="#ma609d0c46b" y="182.1312"/>
      </g>
     </g>
     <g id="text_8">
      <!-- 0.4 -->
      <g transform="translate(25.155 188.20995)scale(0.16 -0.16)">
       <use xlink:href="#DejaVuSans-30"/>
       <use x="63.623047" xlink:href="#DejaVuSans-2e"/>
       <use x="95.410156" xlink:href="#DejaVuSans-34"/>
      </g>
     </g>
    </g>
    <g id="ytick_4">
     <g id="line2d_27">
      <path clip-path="url(#p37082c29d1)" d="M 57.6 123.7248 
L 360.8064 123.7248 
" style="fill:none;stroke:#b0b0b0;stroke-linecap:square;stroke-width:0.8;"/>
     </g>
     <g id="line2d_28">
      <g>
       <use style="stroke:#000000;stroke-width:0.8;" x="57.6" xlink:href="#ma609d0c46b" y="123.7248"/>
      </g>
     </g>
     <g id="text_9">
      <!-- 0.6 -->
      <g transform="translate(25.155 129.80355)scale(0.16 -0.16)">
       <use xlink:href="#DejaVuSans-30"/>
       <use x="63.623047" xlink:href="#DejaVuSans-2e"/>
       <use x="95.410156" xlink:href="#DejaVuSans-36"/>
      </g>
     </g>
    </g>
    <g id="ytick_5">
     <g id="line2d_29">
      <path clip-path="url(#p37082c29d1)" d="M 57.6 65.3184 
L 360.8064 65.3184 
" style="fill:none;stroke:#b0b0b0;stroke-linecap:square;stroke-width:0.8;"/>
     </g>
     <g id="line2d_30">
      <g>
       <use style="stroke:#000000;stroke-width:0.8;" x="57.6" xlink:href="#ma609d0c46b" y="65.3184"/>
      </g>
     </g>
     <g id="text_10">
      <!-- 0.8 -->
      <g transform="translate(25.155 71.39715)scale(0.16 -0.16)">
       <defs>
        <path d="M 2034 2216 
Q 1584 2216 1326 1975 
Q 1069 1734 1069 1313 
Q 1069 891 1326 650 
Q 1584 409 2034 409 
Q 2484 409 2743 651 
Q 3003 894 3003 1313 
Q 3003 1734 2745 1975 
Q 2488 2216 2034 2216 
z
M 1403 2484 
Q 997 2584 770 2862 
Q 544 3141 544 3541 
Q 544 4100 942 4425 
Q 1341 4750 2034 4750 
Q 2731 4750 3128 4425 
Q 3525 4100 3525 3541 
Q 3525 3141 3298 2862 
Q 3072 2584 2669 2484 
Q 3125 2378 3379 2068 
Q 3634 1759 3634 1313 
Q 3634 634 3220 271 
Q 2806 -91 2034 -91 
Q 1263 -91 848 271 
Q 434 634 434 1313 
Q 434 1759 690 2068 
Q 947 2378 1403 2484 
z
M 1172 3481 
Q 1172 3119 1398 2916 
Q 1625 2713 2034 2713 
Q 2441 2713 2670 2916 
Q 2900 3119 2900 3481 
Q 2900 3844 2670 4047 
Q 2441 4250 2034 4250 
Q 1625 4250 1398 4047 
Q 1172 3844 1172 3481 
z
" id="DejaVuSans-38" transform="scale(0.015625)"/>
       </defs>
       <use xlink:href="#DejaVuSans-30"/>
       <use x="63.623047" xlink:href="#DejaVuSans-2e"/>
       <use x="95.410156" xlink:href="#DejaVuSans-38"/>
      </g>
     </g>
    </g>
    <g id="ytick_6">
     <g id="line2d_31">
      <path clip-path="url(#p37082c29d1)" d="M 57.6 6.912 
L 360.8064 6.912 
" style="fill:none;stroke:#b0b0b0;stroke-linecap:square;stroke-width:0.8;"/>
     </g>
     <g id="line2d_32">
      <g>
       <use style="stroke:#000000;stroke-width:0.8;" x="57.6" xlink:href="#ma609d0c46b" y="6.912"/>
      </g>
     </g>
     <g id="text_11">
      <!-- 1.0 -->
      <g transform="translate(25.155 12.99075)scale(0.16 -0.16)">
       <use xlink:href="#DejaVuSans-31"/>
       <use x="63.623047" xlink:href="#DejaVuSans-2e"/>
       <use x="95.410156" xlink:href="#DejaVuSans-30"/>
      </g>
     </g>
    </g>
    <g id="text_12">
     <!-- Fraction of function,target pairs -->
     <g transform="translate(17.619531 287.313)rotate(-90)scale(0.17 -0.17)">
      <defs>
       <path d="M 628 4666 
L 3309 4666 
L 3309 4134 
L 1259 4134 
L 1259 2759 
L 3109 2759 
L 3109 2228 
L 1259 2228 
L 1259 0 
L 628 0 
L 628 4666 
z
" id="DejaVuSans-46" transform="scale(0.015625)"/>
       <path d="M 2631 2963 
Q 2534 3019 2420 3045 
Q 2306 3072 2169 3072 
Q 1681 3072 1420 2755 
Q 1159 2438 1159 1844 
L 1159 0 
L 581 0 
L 581 3500 
L 1159 3500 
L 1159 2956 
Q 1341 3275 1631 3429 
Q 1922 3584 2338 3584 
Q 2397 3584 2469 3576 
Q 2541 3569 2628 3553 
L 2631 2963 
z
" id="DejaVuSans-72" transform="scale(0.015625)"/>
       <path d="M 3122 3366 
L 3122 2828 
Q 2878 2963 2633 3030 
Q 2388 3097 2138 3097 
Q 1578 3097 1268 2742 
Q 959 2388 959 1747 
Q 959 1106 1268 751 
Q 1578 397 2138 397 
Q 2388 397 2633 464 
Q 2878 531 3122 666 
L 3122 134 
Q 2881 22 2623 -34 
Q 2366 -91 2075 -91 
Q 1284 -91 818 406 
Q 353 903 353 1747 
Q 353 2603 823 3093 
Q 1294 3584 2113 3584 
Q 2378 3584 2631 3529 
Q 2884 3475 3122 3366 
z
" id="DejaVuSans-63" transform="scale(0.015625)"/>
       <path d="M 1172 4494 
L 1172 3500 
L 2356 3500 
L 2356 3053 
L 1172 3053 
L 1172 1153 
Q 1172 725 1289 603 
Q 1406 481 1766 481 
L 2356 481 
L 2356 0 
L 1766 0 
Q 1100 0 847 248 
Q 594 497 594 1153 
L 594 3053 
L 172 3053 
L 172 3500 
L 594 3500 
L 594 4494 
L 1172 4494 
z
" id="DejaVuSans-74" transform="scale(0.015625)"/>
       <path d="M 544 1381 
L 544 3500 
L 1119 3500 
L 1119 1403 
Q 1119 906 1312 657 
Q 1506 409 1894 409 
Q 2359 409 2629 706 
Q 2900 1003 2900 1516 
L 2900 3500 
L 3475 3500 
L 3475 0 
L 2900 0 
L 2900 538 
Q 2691 219 2414 64 
Q 2138 -91 1772 -91 
Q 1169 -91 856 284 
Q 544 659 544 1381 
z
M 1991 3584 
L 1991 3584 
z
" id="DejaVuSans-75" transform="scale(0.015625)"/>
       <path d="M 750 794 
L 1409 794 
L 1409 256 
L 897 -744 
L 494 -744 
L 750 256 
L 750 794 
z
" id="DejaVuSans-2c" transform="scale(0.015625)"/>
       <path d="M 1159 525 
L 1159 -1331 
L 581 -1331 
L 581 3500 
L 1159 3500 
L 1159 2969 
Q 1341 3281 1617 3432 
Q 1894 3584 2278 3584 
Q 2916 3584 3314 3078 
Q 3713 2572 3713 1747 
Q 3713 922 3314 415 
Q 2916 -91 2278 -91 
Q 1894 -91 1617 61 
Q 1341 213 1159 525 
z
M 3116 1747 
Q 3116 2381 2855 2742 
Q 2594 3103 2138 3103 
Q 1681 3103 1420 2742 
Q 1159 2381 1159 1747 
Q 1159 1113 1420 752 
Q 1681 391 2138 391 
Q 2594 391 2855 752 
Q 3116 1113 3116 1747 
z
" id="DejaVuSans-70" transform="scale(0.015625)"/>
      </defs>
      <use xlink:href="#DejaVuSans-46"/>
      <use x="50.269531" xlink:href="#DejaVuSans-72"/>
      <use x="91.382812" xlink:href="#DejaVuSans-61"/>
      <use x="152.662109" xlink:href="#DejaVuSans-63"/>
      <use x="207.642578" xlink:href="#DejaVuSans-74"/>
      <use x="246.851562" xlink:href="#DejaVuSans-69"/>
      <use x="274.634766" xlink:href="#DejaVuSans-6f"/>
      <use x="335.816406" xlink:href="#DejaVuSans-6e"/>
      <use x="399.195312" xlink:href="#DejaVuSans-20"/>
      <use x="430.982422" xlink:href="#DejaVuSans-6f"/>
      <use x="492.164062" xlink:href="#DejaVuSans-66"/>
      <use x="527.369141" xlink:href="#DejaVuSans-20"/>
      <use x="559.15625" xlink:href="#DejaVuSans-66"/>
      <use x="594.361328" xlink:href="#DejaVuSans-75"/>
      <use x="657.740234" xlink:href="#DejaVuSans-6e"/>
      <use x="721.119141" xlink:href="#DejaVuSans-63"/>
      <use x="776.099609" xlink:href="#DejaVuSans-74"/>
      <use x="815.308594" xlink:href="#DejaVuSans-69"/>
      <use x="843.091797" xlink:href="#DejaVuSans-6f"/>
      <use x="904.273438" xlink:href="#DejaVuSans-6e"/>
      <use x="967.652344" xlink:href="#DejaVuSans-2c"/>
      <use x="999.439453" xlink:href="#DejaVuSans-74"/>
      <use x="1038.648438" xlink:href="#DejaVuSans-61"/>
      <use x="1099.927734" xlink:href="#DejaVuSans-72"/>
      <use x="1139.291016" xlink:href="#DejaVuSans-67"/>
      <use x="1202.767578" xlink:href="#DejaVuSans-65"/>
      <use x="1264.291016" xlink:href="#DejaVuSans-74"/>
      <use x="1303.5" xlink:href="#DejaVuSans-20"/>
      <use x="1335.287109" xlink:href="#DejaVuSans-70"/>
      <use x="1398.763672" xlink:href="#DejaVuSans-61"/>
      <use x="1460.042969" xlink:href="#DejaVuSans-69"/>
      <use x="1487.826172" xlink:href="#DejaVuSans-72"/>
      <use x="1528.939453" xlink:href="#DejaVuSans-73"/>
     </g>
    </g>
   </g>
   <g id="line2d_33">
    <defs>
     <path d="M 0 1.5 
C 0.397805 1.5 0.77937 1.341951 1.06066 1.06066 
C 1.341951 0.77937 1.5 0.397805 1.5 0 
C 1.5 -0.397805 1.341951 -0.77937 1.06066 -1.06066 
C 0.77937 -1.341951 0.397805 -1.5 0 -1.5 
C -0.397805 -1.5 -0.77937 -1.341951 -1.06066 -1.06066 
C -1.341951 -0.77937 -1.5 -0.397805 -1.5 0 
C -1.5 0.397805 -1.341951 0.77937 -1.06066 1.06066 
C -0.77937 1.341951 -0.397805 1.5 0 1.5 
z
" id="m1506c2c0aa" style="stroke:#f5deb3;"/>
    </defs>
    <g>
     <use style="fill:#f5deb3;stroke:#f5deb3;" x="297.079213" xlink:href="#m1506c2c0aa" y="6.912"/>
     <use style="fill:#f5deb3;stroke:#f5deb3;" x="297.079213" xlink:href="#m1506c2c0aa" y="6.912"/>
    </g>
   </g>
   <g id="line2d_34">
    <defs>
     <path d="M 0 1.5 
C 0.397805 1.5 0.77937 1.341951 1.06066 1.06066 
C 1.341951 0.77937 1.5 0.397805 1.5 0 
C 1.5 -0.397805 1.341951 -0.77937 1.06066 -1.06066 
C 0.77937 -1.341951 0.397805 -1.5 0 -1.5 
C -0.397805 -1.5 -0.77937 -1.341951 -1.06066 -1.06066 
C -1.341951 -0.77937 -1.5 -0.397805 -1.5 0 
C -1.5 0.397805 -1.341951 0.77937 -1.06066 1.06066 
C -0.77937 1.341951 -0.397805 1.5 0 1.5 
z
" id="m33effb090d" style="stroke:#000080;"/>
    </defs>
    <g>
     <use style="fill:#000080;stroke:#000080;" x="278.161212" xlink:href="#m33effb090d" y="248.554165"/>
     <use style="fill:#000080;stroke:#000080;" x="278.161212" xlink:href="#m33effb090d" y="248.554165"/>
    </g>
   </g>
   <g id="line2d_35">
    <path d="M 1.245626 298.944 
L 1.245626 292.378052 
L 14.2848 292.378052 
L 14.2848 290.392998 
L 21.912228 290.392998 
L 21.912228 289.553167 
L 27.323974 289.553167 
L 27.323974 288.789685 
L 31.521651 288.789685 
L 31.521651 288.56064 
L 34.951403 288.56064 
L 34.951403 288.026202 
L 40.363149 287.949854 
L 40.363149 287.644461 
L 42.578831 287.644461 
L 42.578831 287.339068 
L 44.560826 287.339068 
L 44.560826 287.033675 
L 47.990577 286.957327 
L 47.990577 286.880979 
L 52.188254 286.804631 
L 52.188254 286.651934 
L 56.635094 286.651934 
L 56.635094 286.499238 
L 57.6 286.499238 
L 57.6 286.346541 
L 61.797677 286.346541 
L 61.797677 286.117496 
L 65.844256 286.117496 
L 65.844256 285.9648 
L 68.127242 285.9648 
L 68.127242 285.812104 
L 69.172597 285.812104 
L 69.172597 285.659407 
L 74.456807 285.583059 
L 74.456807 285.506711 
L 81.433251 285.430362 
L 81.433251 285.277666 
L 81.955828 285.277666 
L 81.955828 285.124969 
L 83.441723 285.124969 
L 83.441723 284.895925 
L 85.683844 284.819576 
L 85.683844 284.66688 
L 87.303041 284.590532 
L 87.303041 284.514184 
L 89.14879 284.437835 
L 89.14879 284.361487 
L 91.46189 284.285139 
L 91.46189 284.132442 
L 92.666241 284.056094 
L 92.666241 283.979746 
L 94.865713 283.903398 
L 94.865713 283.827049 
L 98.18704 283.750701 
L 98.18704 283.674353 
L 99.851024 283.598005 
L 99.851024 283.521656 
L 102.793446 283.445308 
L 102.793446 283.36896 
L 104.732832 283.292612 
L 104.732832 283.139915 
L 106.630177 283.063567 
L 106.630177 282.987219 
L 108.09849 282.910871 
L 108.09849 282.834522 
L 109.22004 282.758174 
L 109.22004 282.681826 
L 110.505802 282.605478 
L 110.505802 282.529129 
L 111.496112 282.452781 
L 111.496112 282.376433 
L 112.024561 282.300085 
L 112.024561 282.223736 
L 113.137397 282.147388 
L 113.137397 282.07104 
L 113.812756 281.994692 
L 113.812756 281.918344 
L 115.618607 281.841995 
L 115.704505 281.689299 
L 116.211813 281.612951 
L 116.211813 281.536602 
L 117.65648 281.460254 
L 117.65648 281.383906 
L 118.853643 281.307558 
L 118.853643 281.231209 
L 119.634612 281.154861 
L 119.634612 281.002165 
L 120.047313 280.925816 
L 120.047313 280.849468 
L 121.297492 280.77312 
L 121.297492 280.696772 
L 122.64833 280.620424 
L 122.64833 280.544075 
L 123.174153 280.467727 
L 123.174153 280.391379 
L 123.573201 280.315031 
L 123.573201 280.238682 
L 124.128974 280.162334 
L 124.128974 280.085986 
L 126.151997 280.009638 
L 126.151997 279.933289 
L 127.708728 279.856941 
L 127.708728 279.780593 
L 128.5931 279.704245 
L 128.679293 279.551548 
L 129.020168 279.4752 
L 129.020168 279.398852 
L 130.206507 279.322504 
L 130.206507 279.246155 
L 130.983152 279.169807 
L 131.021155 279.017111 
L 131.508334 278.940762 
L 131.508334 278.864414 
L 133.238946 278.788066 
L 133.238946 278.711718 
L 133.901977 278.635369 
L 133.901977 278.559021 
L 134.320744 278.559021 
L 134.320744 278.406325 
L 134.761537 278.329976 
L 134.761537 278.253628 
L 135.52386 278.17728 
L 135.52386 278.100932 
L 135.76142 278.024584 
L 135.820345 277.871887 
L 136.371107 277.795539 
L 136.456614 277.642842 
L 137.827326 277.566494 
L 137.827326 277.490146 
L 138.680194 277.413798 
L 138.680194 277.337449 
L 139.664672 277.261101 
L 139.664672 277.184753 
L 140.53161 277.108405 
L 140.53161 276.955708 
L 141.64307 276.87936 
L 141.707715 276.726664 
L 142.196078 276.650315 
L 142.279732 276.497619 
L 143.744483 276.421271 
L 143.744483 276.344922 
L 144.813822 276.268574 
L 144.904788 276.039529 
L 146.353889 275.963181 
L 146.353889 275.886833 
L 147.062909 275.810485 
L 147.159751 275.657788 
L 147.683651 275.58144 
L 147.683651 275.505092 
L 148.299721 275.428744 
L 148.299721 275.352395 
L 149.882799 275.276047 
L 149.882799 275.199699 
L 150.309727 275.123351 
L 150.309727 275.047002 
L 150.633723 274.970654 
L 150.633723 274.894306 
L 151.122534 274.817958 
L 151.13557 274.665261 
L 152.912502 274.588913 
L 152.912502 274.512565 
L 153.905548 274.436216 
L 153.92803 274.28352 
L 154.415949 274.207172 
L 154.415949 274.130824 
L 156.623723 274.054475 
L 156.682039 273.901779 
L 157.236625 273.825431 
L 157.236625 273.749082 
L 157.554285 273.672734 
L 157.554285 273.596386 
L 158.002854 273.520038 
L 158.002854 273.443689 
L 159.032556 273.367341 
L 159.032556 273.290993 
L 159.514496 273.214645 
L 159.514496 273.138296 
L 160.379172 273.061948 
L 160.426947 272.909252 
L 160.734565 272.832904 
L 160.734565 272.756555 
L 161.725076 272.680207 
L 161.821317 272.527511 
L 162.107124 272.451162 
L 162.143454 272.298466 
L 162.736499 272.222118 
L 162.736499 272.145769 
L 163.243074 272.069421 
L 163.311418 271.916725 
L 163.895758 271.840376 
L 163.895758 271.764028 
L 164.906406 271.68768 
L 164.906406 271.611332 
L 165.235679 271.534984 
L 165.235679 271.458635 
L 166.037446 271.382287 
L 166.078712 271.153242 
L 166.58418 271.076894 
L 166.58418 271.000546 
L 167.643009 270.924198 
L 167.648427 270.771501 
L 168.256078 270.695153 
L 168.256078 270.618805 
L 169.182262 270.542456 
L 169.182262 270.466108 
L 169.979025 270.38976 
L 169.979025 270.313412 
L 171.017135 270.237064 
L 171.017135 270.160715 
L 171.278005 270.084367 
L 171.278005 270.008019 
L 171.48236 269.931671 
L 171.48236 269.855322 
L 171.91046 269.778974 
L 172.005239 269.626278 
L 172.543233 269.549929 
L 172.543233 269.473581 
L 173.602804 269.397233 
L 173.602804 269.320885 
L 173.896557 269.244536 
L 173.896557 269.168188 
L 174.212563 269.09184 
L 174.212563 269.015492 
L 174.553396 268.939144 
L 174.661917 268.710099 
L 175.177183 268.633751 
L 175.177183 268.557402 
L 175.661027 268.481054 
L 175.661027 268.404706 
L 176.239408 268.328358 
L 176.304488 268.175661 
L 176.633275 268.099313 
L 176.740492 267.870268 
L 176.972921 267.79392 
L 176.972921 267.717572 
L 177.313026 267.641224 
L 177.313026 267.564875 
L 177.796138 267.488527 
L 177.796138 267.412179 
L 178.037798 267.335831 
L 178.037798 267.259482 
L 178.575747 267.183134 
L 178.575747 267.106786 
L 178.900221 267.030438 
L 178.900221 266.954089 
L 179.184018 266.877741 
L 179.184018 266.801393 
L 179.713427 266.725045 
L 179.713427 266.648696 
L 180.319715 266.572348 
L 180.421637 266.419652 
L 180.931151 266.343304 
L 180.995213 266.037911 
L 181.301808 265.961562 
L 181.301808 265.885214 
L 181.788329 265.808866 
L 181.867359 265.579821 
L 182.042081 265.503473 
L 182.042081 265.427125 
L 182.46329 265.350776 
L 182.529718 265.121732 
L 183.547905 265.045384 
L 183.547905 264.969035 
L 183.877698 264.892687 
L 183.94388 264.663642 
L 184.289242 264.587294 
L 184.289242 264.510946 
L 184.527057 264.434598 
L 184.527057 264.358249 
L 184.753175 264.281901 
L 184.753175 264.205553 
L 185.53118 264.129205 
L 185.53118 264.052856 
L 186.330527 263.976508 
L 186.330527 263.90016 
L 186.715848 263.823812 
L 186.757089 263.671115 
L 186.98134 263.594767 
L 186.98134 263.518419 
L 187.602888 263.442071 
L 187.705755 263.136678 
L 187.822898 263.060329 
L 187.822898 262.983981 
L 188.065999 262.907633 
L 188.065999 262.831285 
L 188.305999 262.754936 
L 188.305999 262.678588 
L 188.889432 262.60224 
L 188.933168 262.373195 
L 189.535024 262.296847 
L 189.545175 262.144151 
L 190.170649 262.067802 
L 190.170649 261.991454 
L 190.36111 261.915106 
L 190.36111 261.838758 
L 190.710924 261.762409 
L 190.710924 261.686061 
L 191.57928 261.609713 
L 191.57928 261.533365 
L 192.404956 261.457016 
L 192.404956 261.380668 
L 192.815965 261.30432 
L 192.824492 261.151624 
L 193.030803 261.075275 
L 193.030803 260.998927 
L 193.312567 260.922579 
L 193.312567 260.846231 
L 193.469738 260.769882 
L 193.469738 260.693534 
L 193.671846 260.617186 
L 193.671846 260.540838 
L 194.134713 260.464489 
L 194.134713 260.388141 
L 194.487874 260.311793 
L 194.487874 260.235445 
L 194.984599 260.159096 
L 195.026355 259.930052 
L 195.353379 259.853704 
L 195.353379 259.777355 
L 195.530171 259.701007 
L 195.60876 259.548311 
L 195.773464 259.471962 
L 195.773464 259.395614 
L 196.097415 259.319266 
L 196.162969 259.090221 
L 196.234222 259.013873 
L 196.319372 258.861176 
L 196.482676 258.784828 
L 196.583008 258.632132 
L 196.709408 258.555784 
L 196.740587 258.403087 
L 196.909441 258.326739 
L 196.909441 258.250391 
L 197.322264 258.174042 
L 197.399297 258.021346 
L 197.737169 257.944998 
L 197.800531 257.792301 
L 198.173082 257.715953 
L 198.173082 257.639605 
L 198.727255 257.563256 
L 198.800822 257.41056 
L 199.253458 257.334212 
L 199.253458 257.257864 
L 199.422303 257.181515 
L 199.422303 257.105167 
L 199.700387 257.028819 
L 199.726986 256.876122 
L 200.035531 256.799774 
L 200.035531 256.723426 
L 200.308578 256.647078 
L 200.366712 256.494381 
L 200.51929 256.418033 
L 200.51929 256.341685 
L 206.893837 256.265336 
L 206.893837 256.188988 
L 208.677015 256.11264 
L 208.686189 255.959944 
L 209.204225 255.959944 
L 209.204225 255.807247 
L 210.229248 255.730899 
L 210.229248 255.654551 
L 211.023393 255.578202 
L 211.036889 255.196461 
L 211.305316 255.120113 
L 211.376996 254.967416 
L 211.734478 254.891068 
L 211.752668 254.585675 
L 212.259034 254.509327 
L 212.259034 254.356631 
L 212.798866 254.280282 
L 212.798866 254.203934 
L 213.204753 254.127586 
L 213.204753 254.051238 
L 213.491095 253.974889 
L 213.595946 253.745845 
L 219.716718 253.669496 
L 219.787002 253.287755 
L 220.061872 253.211407 
L 220.061872 253.135059 
L 220.218527 253.135059 
L 220.218527 252.982362 
L 220.708589 252.906014 
L 220.708589 252.829666 
L 225.923223 252.753318 
L 225.923223 252.676969 
L 226.534413 252.600621 
L 226.56233 252.447925 
L 226.653833 252.447925 
L 226.653833 252.295228 
L 230.332464 252.21888 
L 230.332464 252.142532 
L 230.609595 252.066184 
L 230.641596 251.913487 
L 230.85525 251.837139 
L 230.85525 251.760791 
L 233.786046 251.684442 
L 233.786046 251.608094 
L 234.226562 251.531746 
L 234.226562 251.455398 
L 237.189089 251.379049 
L 237.189089 251.302701 
L 239.462635 251.226353 
L 239.462635 251.150005 
L 239.642771 251.150005 
L 239.642771 250.997308 
L 241.586342 250.92096 
L 241.586342 250.844612 
L 243.46625 250.768264 
L 243.46625 250.691915 
L 245.423738 250.615567 
L 245.423738 250.539219 
L 247.230981 250.462871 
L 247.230981 250.386522 
L 249.923492 250.310174 
L 249.923492 250.233826 
L 251.500075 250.157478 
L 251.531823 249.928433 
L 252.746204 249.852085 
L 252.746204 249.775736 
L 257.862812 249.699388 
L 257.862812 249.62304 
L 260.194934 249.546692 
L 260.194934 249.470344 
L 261.714831 249.393995 
L 261.714831 249.317647 
L 264.573489 249.241299 
L 264.573489 249.164951 
L 267.460061 249.088602 
L 267.460061 249.012254 
L 270.345112 248.935906 
L 270.345112 248.859558 
L 274.547126 248.783209 
L 274.547126 248.706861 
L 278.161212 248.630513 
L 278.161212 248.554165 
L 360.8064 248.554165 
L 360.8064 248.554165 
" style="fill:none;stroke:#000080;stroke-linecap:square;stroke-width:1.5;"/>
   </g>
   <g id="line2d_36">
    <defs>
     <path d="M 0 6 
C 1.591219 6 3.117479 5.367802 4.242641 4.242641 
C 5.367802 3.117479 6 1.591219 6 0 
C 6 -1.591219 5.367802 -3.117479 4.242641 -4.242641 
C 3.117479 -5.367802 1.591219 -6 0 -6 
C -1.591219 -6 -3.117479 -5.367802 -4.242641 -4.242641 
C -5.367802 -3.117479 -6 -1.591219 -6 0 
C -6 1.591219 -5.367802 3.117479 -4.242641 4.242641 
C -3.117479 5.367802 -1.591219 6 0 6 
z
" id="m1179a692c9" style="stroke:#000080;stroke-width:1.5;"/>
    </defs>
    <g>
     <use style="fill-opacity:0;stroke:#000080;stroke-width:1.5;" x="92.073702" xlink:href="#m1179a692c9" y="284.056094"/>
     <use style="fill-opacity:0;stroke:#000080;stroke-width:1.5;" x="169.182262" xlink:href="#m1179a692c9" y="270.542456"/>
     <use style="fill-opacity:0;stroke:#000080;stroke-width:1.5;" x="221.235851" xlink:href="#m1179a692c9" y="252.753318"/>
     <use style="fill-opacity:0;stroke:#000080;stroke-width:1.5;" x="278.161212" xlink:href="#m1179a692c9" y="248.630513"/>
     <use style="fill-opacity:0;stroke:#000080;stroke-width:1.5;" x="278.161212" xlink:href="#m1179a692c9" y="248.554165"/>
     <use style="fill-opacity:0;stroke:#000080;stroke-width:1.5;" x="360.8064" xlink:href="#m1179a692c9" y="248.554165"/>
    </g>
   </g>
   <g id="line2d_37">
    <path style="fill:none;stroke:#000080;stroke-linecap:square;stroke-width:1.5;"/>
    <g/>
   </g>
   <g id="line2d_38">
    <path clip-path="url(#p37082c29d1)" d="M 200.594178 256.341685 
" style="fill:none;stroke:#000080;stroke-linecap:square;stroke-width:1.5;"/>
    <defs>
     <path d="M -12 12 
L 12 -12 
M -12 -12 
L 12 12 
" id="mddde1dd210" style="stroke:#000080;"/>
    </defs>
    <g clip-path="url(#p37082c29d1)">
     <use style="fill:#000080;stroke:#000080;" x="200.594178" xlink:href="#mddde1dd210" y="256.341685"/>
    </g>
   </g>
   <g id="line2d_39">
    <defs>
     <path d="M 0 1.5 
C 0.397805 1.5 0.77937 1.341951 1.06066 1.06066 
C 1.341951 0.77937 1.5 0.397805 1.5 0 
C 1.5 -0.397805 1.341951 -0.77937 1.06066 -1.06066 
C 0.77937 -1.341951 0.397805 -1.5 0 -1.5 
C -0.397805 -1.5 -0.77937 -1.341951 -1.06066 -1.06066 
C -1.341951 -0.77937 -1.5 -0.397805 -1.5 0 
C -1.5 0.397805 -1.341951 0.77937 -1.06066 1.06066 
C -0.77937 1.341951 -0.397805 1.5 0 1.5 
z
" id="m3c43879996" style="stroke:#ff00ff;"/>
    </defs>
    <g>
     <use style="fill:#ff00ff;stroke:#ff00ff;" x="266.26142" xlink:href="#m3c43879996" y="211.907012"/>
     <use style="fill:#ff00ff;stroke:#ff00ff;" x="266.26142" xlink:href="#m3c43879996" y="211.907012"/>
    </g>
   </g>
   <g id="line2d_40">
    <path d="M 1.245626 298.944 
L 1.245626 289.553167 
L 14.2848 289.553167 
L 14.2848 287.797158 
L 21.912228 287.797158 
L 21.912228 286.575586 
L 27.323974 286.575586 
L 27.323974 286.117496 
L 31.521651 286.117496 
L 31.521651 285.812104 
L 34.951403 285.812104 
L 34.951403 285.201318 
L 37.851216 285.201318 
L 37.851216 284.972273 
L 40.363149 284.972273 
L 40.363149 284.819576 
L 42.578831 284.819576 
L 42.578831 284.590532 
L 44.560826 284.590532 
L 44.560826 284.056094 
L 47.990577 283.979746 
L 47.990577 283.827049 
L 49.496305 283.827049 
L 49.496305 283.521656 
L 50.890391 283.521656 
L 50.890391 283.36896 
L 52.188254 283.36896 
L 52.188254 283.216264 
L 55.618005 283.216264 
L 55.618005 282.758174 
L 56.635094 282.758174 
L 56.635094 282.605478 
L 59.392932 282.529129 
L 59.392932 282.376433 
L 60.229139 282.376433 
L 60.229139 282.147388 
L 62.535479 282.147388 
L 62.535479 281.994692 
L 65.844256 281.918344 
L 65.844256 281.841995 
L 67.581941 281.765647 
L 67.581941 281.689299 
L 69.172597 281.612951 
L 69.172597 281.536602 
L 72.854856 281.460254 
L 72.854856 281.383906 
L 75.574654 281.307558 
L 75.574654 281.231209 
L 76.629783 281.154861 
L 76.629783 281.078513 
L 77.950435 281.002165 
L 77.950435 280.925816 
L 82.211771 280.849468 
L 82.211771 280.77312 
L 85.471281 280.696772 
L 85.471281 280.620424 
L 86.911119 280.544075 
L 86.911119 280.467727 
L 87.876026 280.391379 
L 87.876026 280.315031 
L 88.613828 280.238682 
L 88.613828 280.162334 
L 90.668036 280.085986 
L 90.668036 280.009638 
L 91.46189 279.933289 
L 91.46189 279.780593 
L 92.372304 279.704245 
L 92.372304 279.627896 
L 92.955655 279.551548 
L 92.955655 279.398852 
L 94.472426 279.322504 
L 94.472426 279.246155 
L 96.599582 279.169807 
L 96.599582 279.093459 
L 97.968299 279.017111 
L 97.968299 278.940762 
L 98.510456 278.864414 
L 98.510456 278.788066 
L 99.14107 278.711718 
L 99.14107 278.635369 
L 101.102381 278.559021 
L 101.102381 278.482673 
L 101.562344 278.482673 
L 101.562344 278.329976 
L 103.047088 278.253628 
L 103.047088 278.17728 
L 103.625951 278.100932 
L 103.625951 278.024584 
L 104.501065 277.948235 
L 104.501065 277.871887 
L 105.337272 277.795539 
L 105.337272 277.642842 
L 107.244765 277.566494 
L 107.244765 277.490146 
L 109.340628 277.413798 
L 109.340628 277.184753 
L 110.449226 277.184753 
L 110.449226 277.032056 
L 111.656212 276.955708 
L 111.709277 276.803012 
L 112.740305 276.726664 
L 112.740305 276.650315 
L 112.989468 276.573967 
L 112.989468 276.497619 
L 113.429811 276.421271 
L 113.52628 276.268574 
L 113.670063 276.192226 
L 113.670063 276.115878 
L 116.086263 276.039529 
L 116.086263 275.963181 
L 117.848632 275.886833 
L 117.848632 275.810485 
L 118.561419 275.734136 
L 118.561419 275.657788 
L 119.28364 275.58144 
L 119.28364 275.505092 
L 120.0813 275.428744 
L 120.0813 275.352395 
L 120.682786 275.276047 
L 120.715645 275.123351 
L 121.073351 275.047002 
L 121.073351 274.970654 
L 121.830966 274.894306 
L 121.830966 274.817958 
L 123.174153 274.741609 
L 123.174153 274.665261 
L 123.431654 274.588913 
L 123.431654 274.512565 
L 123.825333 274.436216 
L 123.825333 274.359868 
L 124.508471 274.28352 
L 124.508471 274.207172 
L 125.60308 274.130824 
L 125.653649 273.978127 
L 126.709238 273.901779 
L 126.804487 273.672734 
L 127.203997 273.596386 
L 127.273627 273.367341 
L 127.572412 273.290993 
L 127.572412 273.214645 
L 128.023009 273.138296 
L 128.023009 273.061948 
L 128.200269 273.061948 
L 128.244324 272.832904 
L 128.743679 272.756555 
L 128.743679 272.680207 
L 129.622688 272.603859 
L 129.724648 272.451162 
L 130.146945 272.374814 
L 130.186674 272.145769 
L 130.481995 272.069421 
L 130.481995 271.993073 
L 130.618241 271.916725 
L 130.618241 271.840376 
L 131.059082 271.764028 
L 131.059082 271.68768 
L 131.303758 271.611332 
L 131.303758 271.534984 
L 131.929028 271.458635 
L 132.019251 271.305939 
L 133.473674 271.229591 
L 133.473674 271.153242 
L 133.950775 271.076894 
L 133.967012 270.924198 
L 134.096413 270.847849 
L 134.096413 270.771501 
L 134.447743 270.695153 
L 134.447743 270.618805 
L 134.761537 270.542456 
L 134.761537 270.466108 
L 135.52386 270.38976 
L 135.628162 270.160715 
L 136.313886 270.084367 
L 136.313886 270.008019 
L 136.766857 269.931671 
L 136.822719 269.778974 
L 136.933948 269.702626 
L 136.933948 269.626278 
L 137.466966 269.549929 
L 137.480437 269.397233 
L 137.747841 269.320885 
L 137.774373 269.168188 
L 138.193882 269.09184 
L 138.245669 268.939144 
L 138.438609 268.862795 
L 138.438609 268.786447 
L 138.692823 268.710099 
L 138.793555 268.557402 
L 139.301504 268.481054 
L 139.301504 268.404706 
L 139.568511 268.328358 
L 139.568511 268.252009 
L 139.93843 268.175661 
L 139.93843 268.099313 
L 140.079694 268.022965 
L 140.079694 267.946616 
L 140.219905 267.870268 
L 140.243172 267.717572 
L 140.416765 267.641224 
L 140.416765 267.564875 
L 140.645758 267.488527 
L 140.645758 267.412179 
L 140.871997 267.335831 
L 140.871997 267.259482 
L 141.283499 267.183134 
L 141.382247 266.801393 
L 141.513111 266.801393 
L 141.621472 266.572348 
L 141.718467 266.496 
L 141.814964 266.266955 
L 142.248405 266.190607 
L 142.352625 265.961562 
L 142.445931 265.885214 
L 142.445931 265.808866 
L 142.610675 265.732518 
L 142.610675 265.656169 
L 142.855116 265.579821 
L 142.855116 265.503473 
L 143.344534 265.427125 
L 143.403597 265.274428 
L 143.802306 265.19808 
L 143.83115 265.045384 
L 143.965177 265.045384 
L 144.069818 264.739991 
L 144.342932 264.663642 
L 144.445498 264.434598 
L 144.704081 264.358249 
L 144.804702 264.205553 
L 144.904788 264.129205 
L 144.904788 264.052856 
L 145.157174 263.976508 
L 145.157174 263.90016 
L 145.291002 263.823812 
L 145.361989 263.594767 
L 145.494372 263.518419 
L 145.590864 263.289374 
L 145.791035 263.213026 
L 145.851536 262.907633 
L 146.031881 262.831285 
L 146.108646 262.525892 
L 146.244347 262.449544 
L 146.328666 262.220499 
L 146.412609 262.220499 
L 146.412609 262.067802 
L 146.612557 261.991454 
L 146.637401 261.838758 
L 146.859539 261.762409 
L 146.87589 261.609713 
L 147.135588 261.533365 
L 147.135588 261.457016 
L 147.328035 261.380668 
L 147.431461 261.075275 
L 147.518533 260.998927 
L 147.581606 260.846231 
L 147.761772 260.769882 
L 147.831805 260.540838 
L 148.07872 260.464489 
L 148.132303 260.235445 
L 148.239014 260.159096 
L 148.314867 259.930052 
L 148.622706 259.853704 
L 148.719271 259.548311 
L 148.815343 259.471962 
L 148.903591 259.242918 
L 148.947561 259.166569 
L 149.057037 258.861176 
L 149.122418 258.784828 
L 149.216458 258.479435 
L 149.374539 258.403087 
L 149.374539 258.326739 
L 149.616263 258.250391 
L 149.721926 257.792301 
L 149.973123 257.715953 
L 149.993905 257.563256 
L 150.411576 257.486908 
L 150.411576 257.41056 
L 150.58011 257.334212 
L 150.680509 257.105167 
L 150.740493 257.028819 
L 150.740493 256.952471 
L 151.004798 256.876122 
L 151.024471 256.723426 
L 151.284843 256.647078 
L 151.375128 256.418033 
L 151.52252 256.341685 
L 151.52252 256.265336 
L 151.700408 256.188988 
L 151.700408 256.11264 
L 151.889155 256.036292 
L 151.907925 255.883595 
L 152.150258 255.807247 
L 152.150258 255.730899 
L 152.601659 255.654551 
L 152.667844 255.501854 
L 152.876897 255.425506 
L 152.930279 255.272809 
L 153.01302 255.196461 
L 153.01302 255.120113 
L 153.270716 255.043765 
L 153.299778 254.891068 
L 153.645059 254.81472 
L 153.645059 254.662024 
L 153.843585 254.585675 
L 153.843585 254.509327 
L 153.978516 254.432979 
L 153.978516 254.356631 
L 154.383081 254.280282 
L 154.383081 254.203934 
L 154.73613 254.127586 
L 154.80059 253.974889 
L 155.30847 253.898541 
L 155.30847 253.822193 
L 155.433326 253.822193 
L 155.433326 253.745845 
L 155.541899 253.440452 
L 155.85884 253.364104 
L 155.85884 253.287755 
L 156.110604 253.211407 
L 156.110604 253.135059 
L 156.284856 253.058711 
L 156.314566 252.906014 
L 156.53591 252.829666 
L 156.53591 252.753318 
L 157.339986 252.676969 
L 157.391454 252.524273 
L 157.563547 252.447925 
L 157.67434 252.142532 
L 157.811919 252.066184 
L 157.871225 251.837139 
L 157.98928 251.760791 
L 158.011898 251.608094 
L 158.272301 251.531746 
L 158.272301 251.455398 
L 158.498335 251.379049 
L 158.52035 251.226353 
L 158.673735 251.150005 
L 158.673735 251.073656 
L 158.864805 250.997308 
L 158.929502 250.768264 
L 159.126528 250.691915 
L 159.14782 250.539219 
L 159.367841 250.539219 
L 159.409859 250.081129 
L 159.726167 250.004781 
L 159.726167 249.928433 
L 159.943644 249.852085 
L 160.025062 249.62304 
L 160.110173 249.546692 
L 160.210996 249.317647 
L 160.718911 249.241299 
L 160.812637 249.012254 
L 160.952356 248.935906 
L 160.952356 248.859558 
L 161.13322 248.783209 
L 161.236339 248.477816 
L 161.418277 248.401468 
L 161.523601 248.172424 
L 161.624608 248.096075 
L 161.650707 247.867031 
L 161.920743 247.790682 
L 161.920743 247.714334 
L 162.215903 247.637986 
L 162.324057 247.485289 
L 162.566929 247.408941 
L 162.616545 247.256245 
L 162.757588 247.179896 
L 162.81371 247.0272 
L 163.246497 246.950852 
L 163.246497 246.874504 
L 163.726358 246.798155 
L 163.832826 246.645459 
L 164.05709 246.569111 
L 164.05709 246.492762 
L 164.859342 246.416414 
L 164.915805 246.263718 
L 165.610672 246.187369 
L 165.610672 246.111021 
L 166.158043 246.034673 
L 166.187339 245.881976 
L 166.489353 245.805628 
L 166.489353 245.72928 
L 166.83191 245.652932 
L 166.877116 245.500235 
L 167.301245 245.423887 
L 167.301245 245.347539 
L 167.689013 245.271191 
L 167.689013 245.194842 
L 167.920031 245.118494 
L 167.920031 245.042146 
L 168.438767 244.965798 
L 168.52945 244.813101 
L 168.770857 244.736753 
L 168.770857 244.660405 
L 169.077114 244.584056 
L 169.077114 244.507708 
L 169.550619 244.43136 
L 169.550619 244.355012 
L 169.952684 244.278664 
L 169.952684 244.202315 
L 170.407251 244.125967 
L 170.407251 244.049619 
L 170.951349 243.973271 
L 170.951349 243.896922 
L 171.875876 243.820574 
L 171.875876 243.744226 
L 172.144386 243.667878 
L 172.144386 243.591529 
L 173.074389 243.515181 
L 173.114944 243.286136 
L 174.008923 243.209788 
L 174.107176 243.057092 
L 174.568401 242.980744 
L 174.568401 242.904395 
L 175.049684 242.828047 
L 175.049684 242.751699 
L 175.567027 242.675351 
L 175.567027 242.599002 
L 176.476377 242.522654 
L 176.55752 242.369958 
L 177.380961 242.293609 
L 177.380961 242.217261 
L 177.705899 242.140913 
L 177.705899 242.064565 
L 178.615101 241.988216 
L 178.615101 241.911868 
L 179.576 241.83552 
L 179.576 241.759172 
L 180.070865 241.682824 
L 180.181098 241.530127 
L 180.460059 241.453779 
L 180.460059 241.377431 
L 181.157062 241.301082 
L 181.215094 240.995689 
L 181.481837 240.919341 
L 181.549229 240.766645 
L 181.742289 240.690296 
L 181.742289 240.613948 
L 181.996657 240.5376 
L 182.023168 240.384904 
L 182.632587 240.308555 
L 182.632587 240.232207 
L 182.819732 240.155859 
L 182.90539 240.003162 
L 183.224066 239.926814 
L 183.281967 239.621421 
L 183.415992 239.545073 
L 183.491984 239.392376 
L 183.6685 239.316028 
L 183.682365 239.163332 
L 183.949574 239.086984 
L 183.949574 239.010635 
L 184.372931 238.934287 
L 184.372931 238.857939 
L 184.691975 238.781591 
L 184.714948 238.552546 
L 184.963666 238.476198 
L 184.963666 238.323501 
L 185.187826 238.247153 
L 185.203812 238.094456 
L 185.494503 238.018108 
L 185.570919 237.865412 
L 185.869407 237.789064 
L 185.88996 237.636367 
L 186.369616 237.560019 
L 186.461507 237.178278 
L 186.63112 237.101929 
L 186.696178 236.796536 
L 186.799217 236.720188 
L 186.904616 236.567492 
L 186.979401 236.491144 
L 187.079941 236.338447 
L 187.254604 236.262099 
L 187.289914 236.109402 
L 187.409667 236.033054 
L 187.409667 235.956706 
L 187.822898 235.880358 
L 187.905204 235.651313 
L 188.344801 235.574965 
L 188.344801 235.498616 
L 188.649713 235.422268 
L 188.649713 235.34592 
L 188.815727 235.269572 
L 188.815727 235.193224 
L 189.032507 235.116875 
L 189.032507 235.040527 
L 189.25283 234.964179 
L 189.25283 234.887831 
L 189.540946 234.811482 
L 189.571375 234.658786 
L 189.87963 234.582438 
L 189.976587 234.429741 
L 190.096878 234.353393 
L 190.196809 234.200696 
L 190.743487 234.124348 
L 190.794205 233.971652 
L 191.761327 233.895304 
L 191.761327 233.818955 
L 192.126857 233.742607 
L 192.203378 233.589911 
L 192.456463 233.513562 
L 192.541036 233.360866 
L 192.630973 233.284518 
L 192.68115 233.131821 
L 193.095339 233.055473 
L 193.095339 232.979125 
L 193.601764 232.902776 
L 193.660977 232.75008 
L 193.927496 232.673732 
L 194.027058 232.444687 
L 194.371761 232.368339 
L 194.48137 232.139294 
L 194.579346 232.062946 
L 194.579346 231.986598 
L 194.813448 231.910249 
L 194.892536 231.757553 
L 195.098261 231.681205 
L 195.197467 231.375812 
L 195.722986 231.299464 
L 195.748546 231.146767 
L 196.264424 231.070419 
L 196.264424 230.994071 
L 196.591151 230.917722 
L 196.591151 230.841374 
L 196.991595 230.765026 
L 197.046734 230.612329 
L 197.811979 230.535981 
L 197.811979 230.459633 
L 198.072304 230.383285 
L 198.072304 230.306936 
L 198.292456 230.230588 
L 198.397348 230.077892 
L 198.84627 230.001544 
L 198.897781 229.848847 
L 199.272629 229.772499 
L 199.272629 229.696151 
L 199.51363 229.619802 
L 199.51363 229.543454 
L 199.680166 229.467106 
L 199.680166 229.390758 
L 199.97442 229.314409 
L 200.005001 229.161713 
L 200.198011 229.085365 
L 200.198011 229.009016 
L 200.486226 228.932668 
L 200.486226 228.85632 
L 201.23419 228.779972 
L 201.23419 228.703624 
L 201.66226 228.627275 
L 201.66226 228.550927 
L 201.978894 228.474579 
L 201.978894 228.398231 
L 202.605904 228.321882 
L 202.629542 228.092838 
L 203.193864 228.016489 
L 203.260884 227.863793 
L 203.39259 227.787445 
L 203.496006 227.634748 
L 204.152363 227.5584 
L 204.154308 227.405704 
L 204.393191 227.329355 
L 204.493556 227.176659 
L 204.97857 227.100311 
L 204.97857 227.023962 
L 205.350548 226.947614 
L 205.350548 226.871266 
L 205.513379 226.794918 
L 205.513379 226.718569 
L 205.740001 226.642221 
L 205.778578 226.413176 
L 206.828147 226.336828 
L 206.828147 226.26048 
L 207.0609 226.184132 
L 207.085882 226.031435 
L 207.404064 225.955087 
L 207.404064 225.878739 
L 207.706972 225.802391 
L 207.706972 225.726042 
L 208.180196 225.649694 
L 208.180196 225.573346 
L 208.630158 225.496998 
L 208.720399 225.267953 
L 209.212848 225.191605 
L 209.317202 224.96256 
L 209.415982 224.886212 
L 209.415982 224.809864 
L 209.570333 224.733515 
L 209.625091 224.504471 
L 209.844841 224.428122 
L 209.931741 224.275426 
L 210.038738 224.199078 
L 210.123333 223.970033 
L 210.363117 223.893685 
L 210.363117 223.817336 
L 210.79603 223.740988 
L 210.881104 223.511944 
L 211.057114 223.435595 
L 211.147456 223.282899 
L 211.374876 223.206551 
L 211.454475 222.901158 
L 211.813608 222.824809 
L 211.813608 222.748461 
L 212.13626 222.672113 
L 212.174142 222.519416 
L 212.638735 222.443068 
L 212.638735 222.36672 
L 213.566014 222.290372 
L 213.661769 222.061327 
L 213.813458 221.984979 
L 213.813458 221.908631 
L 213.998311 221.832282 
L 213.998311 221.755934 
L 214.41729 221.679586 
L 214.418417 221.526889 
L 214.548261 221.450541 
L 214.640938 221.297845 
L 214.885062 221.221496 
L 214.994691 221.0688 
L 215.202322 220.992452 
L 215.202322 220.916104 
L 215.826458 220.839755 
L 215.851959 220.610711 
L 216.221573 220.534362 
L 216.221573 220.458014 
L 216.534173 220.381666 
L 216.630417 220.152621 
L 216.777544 220.076273 
L 216.777544 219.999925 
L 217.090895 219.923576 
L 217.143234 219.77088 
L 217.944439 219.694532 
L 217.944439 219.618184 
L 218.267587 219.541835 
L 218.267587 219.465487 
L 218.513791 219.389139 
L 218.513791 219.312791 
L 218.796688 219.236442 
L 218.796688 219.160094 
L 219.651119 219.083746 
L 219.651119 219.007398 
L 219.792255 218.931049 
L 219.813419 218.778353 
L 220.399495 218.702005 
L 220.399495 218.625656 
L 220.81077 218.549308 
L 220.841076 218.396612 
L 221.125862 218.320264 
L 221.125862 218.243915 
L 221.678069 218.167567 
L 221.678069 218.091219 
L 222.702762 218.014871 
L 222.779809 217.862174 
L 223.093554 217.785826 
L 223.166047 217.556781 
L 224.325862 217.480433 
L 224.328658 217.327736 
L 224.809756 217.251388 
L 224.913654 217.098692 
L 225.041988 217.022344 
L 225.041988 216.945995 
L 225.559466 216.869647 
L 225.653362 216.716951 
L 226.165983 216.640602 
L 226.165983 216.564254 
L 226.765017 216.487906 
L 226.769343 216.335209 
L 227.471337 216.258861 
L 227.500148 216.106165 
L 228.018993 216.029816 
L 228.018993 215.953468 
L 228.832451 215.87712 
L 228.907419 215.571727 
L 229.697328 215.495379 
L 229.741702 215.342682 
L 229.986269 215.266334 
L 230.022396 215.113638 
L 231.543172 215.037289 
L 231.543172 214.960941 
L 232.759549 214.884593 
L 232.759549 214.808245 
L 232.986221 214.731896 
L 232.986221 214.655548 
L 234.237962 214.5792 
L 234.237962 214.502852 
L 235.4755 214.426504 
L 235.4755 214.350155 
L 236.280681 214.273807 
L 236.280681 214.197459 
L 236.511388 214.121111 
L 236.576888 213.968414 
L 237.165961 213.892066 
L 237.243835 213.663021 
L 237.741324 213.586673 
L 237.787591 213.433976 
L 238.902013 213.357628 
L 238.902013 213.28128 
L 239.142217 213.204932 
L 239.142217 213.128584 
L 241.392986 213.052235 
L 241.392986 212.975887 
L 242.934919 212.899539 
L 242.934919 212.823191 
L 245.439865 212.746842 
L 245.439865 212.670494 
L 246.74781 212.594146 
L 246.74781 212.517798 
L 247.332861 212.441449 
L 247.332861 212.365101 
L 248.019723 212.288753 
L 248.019723 212.212405 
L 251.131836 212.136056 
L 251.131836 212.059708 
L 266.26142 211.98336 
L 266.26142 211.907012 
L 360.8064 211.907012 
L 360.8064 211.907012 
" style="fill:none;stroke:#ff00ff;stroke-linecap:square;stroke-width:1.5;"/>
   </g>
   <g id="line2d_41">
    <defs>
     <path d="M -0 8.485281 
L 5.091169 0 
L 0 -8.485281 
L -5.091169 -0 
z
" id="md03b498ddc" style="stroke:#ff00ff;stroke-linejoin:miter;stroke-width:1.5;"/>
    </defs>
    <g>
     <use style="fill-opacity:0;stroke:#ff00ff;stroke-linejoin:miter;stroke-width:1.5;" x="91.922605" xlink:href="#md03b498ddc" y="279.704245"/>
     <use style="fill-opacity:0;stroke:#ff00ff;stroke-linejoin:miter;stroke-width:1.5;" x="158.886396" xlink:href="#md03b498ddc" y="250.92096"/>
     <use style="fill-opacity:0;stroke:#ff00ff;stroke-linejoin:miter;stroke-width:1.5;" x="216.733746" xlink:href="#md03b498ddc" y="220.152621"/>
     <use style="fill-opacity:0;stroke:#ff00ff;stroke-linejoin:miter;stroke-width:1.5;" x="266.26142" xlink:href="#md03b498ddc" y="211.98336"/>
     <use style="fill-opacity:0;stroke:#ff00ff;stroke-linejoin:miter;stroke-width:1.5;" x="266.26142" xlink:href="#md03b498ddc" y="211.907012"/>
     <use style="fill-opacity:0;stroke:#ff00ff;stroke-linejoin:miter;stroke-width:1.5;" x="360.8064" xlink:href="#md03b498ddc" y="211.907012"/>
    </g>
   </g>
   <g id="line2d_42">
    <path style="fill:none;stroke:#ff00ff;stroke-linecap:square;stroke-width:1.5;"/>
    <g/>
   </g>
   <g id="line2d_43">
    <path clip-path="url(#p37082c29d1)" d="M 167.917361 245.118494 
" style="fill:none;stroke:#ff00ff;stroke-linecap:square;stroke-width:1.5;"/>
    <defs>
     <path d="M -12 12 
L 12 -12 
M -12 -12 
L 12 12 
" id="md839c15001" style="stroke:#ff00ff;"/>
    </defs>
    <g clip-path="url(#p37082c29d1)">
     <use style="fill:#ff00ff;stroke:#ff00ff;" x="167.917361" xlink:href="#md839c15001" y="245.118494"/>
    </g>
   </g>
   <g id="line2d_44">
    <defs>
     <path d="M 0 1.5 
C 0.397805 1.5 0.77937 1.341951 1.06066 1.06066 
C 1.341951 0.77937 1.5 0.397805 1.5 0 
C 1.5 -0.397805 1.341951 -0.77937 1.06066 -1.06066 
C 0.77937 -1.341951 0.397805 -1.5 0 -1.5 
C -0.397805 -1.5 -0.77937 -1.341951 -1.06066 -1.06066 
C -1.341951 -0.77937 -1.5 -0.397805 -1.5 0 
C -1.5 0.397805 -1.341951 0.77937 -1.06066 1.06066 
C -0.77937 1.341951 -0.397805 1.5 0 1.5 
z
" id="m59226fef63" style="stroke:#ff7500;"/>
    </defs>
    <g>
     <use style="fill:#ff7500;stroke:#ff7500;" x="299.474977" xlink:href="#m59226fef63" y="209.616565"/>
     <use style="fill:#ff7500;stroke:#ff7500;" x="299.474977" xlink:href="#m59226fef63" y="209.616565"/>
    </g>
   </g>
   <g id="line2d_45">
    <path d="M 1.245626 298.944 
L 1.245626 285.354014 
L 14.2848 285.354014 
L 14.2848 284.208791 
L 21.912228 284.208791 
L 21.912228 284.056094 
L 27.323974 284.056094 
L 27.323974 283.674353 
L 31.521651 283.674353 
L 31.521651 283.292612 
L 34.951403 283.292612 
L 34.951403 283.063567 
L 37.851216 283.063567 
L 37.851216 282.910871 
L 42.578831 282.910871 
L 42.578831 282.758174 
L 44.560826 282.758174 
L 44.560826 282.605478 
L 56.635094 282.529129 
L 56.635094 282.452781 
L 58.517819 282.376433 
L 58.517819 282.223736 
L 63.245433 282.147388 
L 63.245433 282.07104 
L 67.020361 282.07104 
L 67.020361 281.918344 
L 68.127242 281.841995 
L 68.127242 281.689299 
L 72.854856 281.612951 
L 72.854856 281.536602 
L 73.672879 281.460254 
L 73.672879 281.383906 
L 78.577544 281.307558 
L 78.577544 281.231209 
L 79.77233 281.154861 
L 79.77233 281.078513 
L 81.433251 281.002165 
L 81.433251 280.925816 
L 83.441723 280.849468 
L 83.441723 280.77312 
L 88.613828 280.696772 
L 88.613828 280.620424 
L 91.770283 280.544075 
L 91.770283 280.467727 
L 97.635342 280.391379 
L 97.635342 280.315031 
L 101.653002 280.238682 
L 101.653002 280.162334 
L 105.411479 280.085986 
L 105.411479 280.009638 
L 108.353566 279.933289 
L 108.353566 279.856941 
L 109.579508 279.780593 
L 109.579508 279.704245 
L 112.53857 279.627896 
L 112.53857 279.4752 
L 113.907287 279.398852 
L 113.907287 279.322504 
L 116.128206 279.246155 
L 116.128206 279.169807 
L 118.000953 279.093459 
L 118.000953 278.940762 
L 118.301945 278.864414 
L 118.301945 278.788066 
L 119.91075 278.711718 
L 119.91075 278.635369 
L 121.233724 278.559021 
L 121.233724 278.482673 
L 122.707486 278.406325 
L 122.707486 278.329976 
L 124.346766 278.253628 
L 124.346766 278.17728 
L 124.880463 278.100932 
L 124.880463 278.024584 
L 125.501533 277.948235 
L 125.501533 277.871887 
L 126.875608 277.795539 
L 126.875608 277.719191 
L 127.708728 277.642842 
L 127.708728 277.566494 
L 127.88896 277.490146 
L 127.88896 277.413798 
L 128.807846 277.337449 
L 128.807846 277.261101 
L 129.78556 277.184753 
L 129.78556 277.108405 
L 130.811181 277.032056 
L 130.811181 276.955708 
L 131.63737 276.87936 
L 131.729 276.726664 
L 134.384351 276.650315 
L 134.384351 276.573967 
L 135.568632 276.497619 
L 135.672686 276.268574 
L 136.198918 276.192226 
L 136.198918 276.115878 
L 137.181835 276.039529 
L 137.181835 275.963181 
L 138.219793 275.886833 
L 138.219793 275.810485 
L 139.973845 275.734136 
L 139.973845 275.657788 
L 140.554495 275.58144 
L 140.554495 275.505092 
L 141.294496 275.428744 
L 141.294496 275.352395 
L 142.143605 275.276047 
L 142.143605 275.199699 
L 143.413423 275.123351 
L 143.413423 275.047002 
L 143.850356 274.970654 
L 143.936538 274.817958 
L 144.202161 274.741609 
L 144.28675 274.436216 
L 144.501209 274.359868 
L 144.501209 274.28352 
L 144.85936 274.207172 
L 144.85936 274.130824 
L 145.21082 274.054475 
L 145.21082 273.978127 
L 145.370843 273.901779 
L 145.44153 273.749082 
L 146.235895 273.672734 
L 146.337078 273.520038 
L 146.637401 273.443689 
L 146.736453 273.290993 
L 147.095245 273.214645 
L 147.095245 273.138296 
L 147.707122 273.061948 
L 147.707122 272.9856 
L 148.117009 272.909252 
L 148.155221 272.756555 
L 148.793216 272.680207 
L 148.793216 272.603859 
L 149.700841 272.527511 
L 149.700841 272.451162 
L 150.200476 272.374814 
L 150.296105 272.222118 
L 150.978534 272.145769 
L 150.978534 272.069421 
L 151.381561 271.993073 
L 151.484181 271.840376 
L 152.685854 271.764028 
L 152.685854 271.68768 
L 153.282346 271.611332 
L 153.282346 271.534984 
L 153.519191 271.458635 
L 153.519191 271.382287 
L 153.701995 271.305939 
L 153.701995 271.229591 
L 154.062359 271.153242 
L 154.062359 271.076894 
L 154.633615 271.000546 
L 154.633615 270.924198 
L 154.832738 270.847849 
L 154.907535 270.695153 
L 155.103795 270.618805 
L 155.103795 270.542456 
L 155.588239 270.466108 
L 155.588239 270.38976 
L 155.904407 270.313412 
L 155.970032 270.160715 
L 156.095593 270.084367 
L 156.095593 270.008019 
L 156.521235 269.931671 
L 156.521235 269.855322 
L 156.947029 269.778974 
L 157.032948 269.626278 
L 157.161096 269.549929 
L 157.161096 269.473581 
L 157.302466 269.397233 
L 157.302466 269.320885 
L 157.651312 269.244536 
L 157.752425 269.015492 
L 158.048031 268.939144 
L 158.156014 268.786447 
L 158.877763 268.710099 
L 158.877763 268.633751 
L 159.351007 268.557402 
L 159.351007 268.481054 
L 159.572839 268.404706 
L 159.660016 268.252009 
L 159.70552 268.252009 
L 159.808529 267.946616 
L 160.081845 267.870268 
L 160.170732 267.641224 
L 160.327278 267.564875 
L 160.395111 267.412179 
L 160.773641 267.335831 
L 160.851552 267.183134 
L 160.940753 267.106786 
L 160.940753 267.030438 
L 161.304772 266.954089 
L 161.304772 266.877741 
L 161.583523 266.801393 
L 161.583523 266.725045 
L 162.212287 266.648696 
L 162.233972 266.496 
L 162.495821 266.419652 
L 162.495821 266.343304 
L 162.834713 266.266955 
L 162.908039 266.114259 
L 163.036541 266.037911 
L 163.036541 265.961562 
L 163.321648 265.885214 
L 163.41347 265.732518 
L 163.57561 265.656169 
L 163.669551 265.503473 
L 163.991407 265.427125 
L 164.011136 265.274428 
L 164.135608 265.19808 
L 164.135608 265.121732 
L 164.520157 265.045384 
L 164.520157 264.969035 
L 164.968976 264.892687 
L 164.968976 264.816339 
L 165.14926 264.739991 
L 165.232599 264.587294 
L 165.407335 264.510946 
L 165.504725 264.281901 
L 165.544147 264.205553 
L 165.544147 264.129205 
L 166.093428 264.052856 
L 166.093428 263.976508 
L 166.388254 263.90016 
L 166.469177 263.747464 
L 166.598506 263.747464 
L 166.684234 263.442071 
L 166.905315 263.365722 
L 167.014889 263.060329 
L 167.353595 262.983981 
L 167.441436 262.831285 
L 167.490666 262.754936 
L 167.575151 262.525892 
L 168.007929 262.449544 
L 168.007929 262.373195 
L 168.352863 262.296847 
L 168.454343 261.915106 
L 168.583651 261.838758 
L 168.653109 261.686061 
L 169.142275 261.609713 
L 169.182262 261.457016 
L 169.363634 261.380668 
L 169.363634 261.227972 
L 169.65803 261.151624 
L 169.72849 260.846231 
L 169.911901 260.769882 
L 169.964662 260.617186 
L 170.03637 260.617186 
L 170.05783 260.311793 
L 170.221544 260.311793 
L 170.320502 260.0064 
L 170.507567 260.0064 
L 170.563326 259.701007 
L 170.814504 259.624659 
L 170.832807 259.471962 
L 171.023928 259.395614 
L 171.062372 259.242918 
L 171.257894 259.166569 
L 171.362682 258.937525 
L 171.424832 258.861176 
L 171.522084 258.555784 
L 171.680147 258.479435 
L 171.769565 258.326739 
L 171.90182 258.250391 
L 172.000941 258.021346 
L 172.290979 257.944998 
L 172.360687 257.792301 
L 172.568273 257.715953 
L 172.589115 257.563256 
L 172.703332 257.486908 
L 172.732295 257.334212 
L 173.013391 257.257864 
L 173.090621 257.028819 
L 173.199827 256.952471 
L 173.199827 256.799774 
L 173.535578 256.723426 
L 173.634357 256.341685 
L 173.697305 256.265336 
L 173.805007 255.883595 
L 174.132139 255.807247 
L 174.241203 255.578202 
L 174.476303 255.501854 
L 174.583395 255.349158 
L 174.600249 255.272809 
L 174.658185 255.120113 
L 174.87341 255.043765 
L 174.963589 254.738372 
L 175.361434 254.662024 
L 175.427827 254.432979 
L 175.545679 254.356631 
L 175.648639 253.974889 
L 175.819582 253.898541 
L 175.903602 253.745845 
L 176.277113 253.669496 
L 176.386374 253.287755 
L 176.567638 253.211407 
L 176.673553 252.982362 
L 176.881951 252.906014 
L 176.982818 252.600621 
L 177.107736 252.524273 
L 177.215548 252.295228 
L 177.903228 252.21888 
L 177.903228 252.142532 
L 178.180699 252.066184 
L 178.248661 251.913487 
L 178.530235 251.837139 
L 178.619637 251.684442 
L 178.898732 251.608094 
L 179.004186 251.455398 
L 179.063337 251.379049 
L 179.107579 251.226353 
L 179.328695 251.150005 
L 179.434668 250.92096 
L 179.538607 250.844612 
L 179.576 250.691915 
L 179.726259 250.615567 
L 179.726259 250.539219 
L 179.957165 250.462871 
L 179.957165 250.386522 
L 180.163003 250.310174 
L 180.163003 250.233826 
L 181.199285 250.157478 
L 181.199285 250.081129 
L 181.419413 250.004781 
L 181.444147 249.699388 
L 181.622825 249.62304 
L 181.669159 249.317647 
L 181.811308 249.241299 
L 181.811308 249.164951 
L 182.3024 249.088602 
L 182.360727 248.935906 
L 182.519892 248.935906 
L 182.615481 248.554165 
L 183.394894 248.477816 
L 183.394894 248.401468 
L 183.684675 248.32512 
L 183.684675 248.248772 
L 183.885698 248.248772 
L 183.885698 248.096075 
L 184.163569 248.019727 
L 184.163569 247.943379 
L 184.652526 247.867031 
L 184.707294 247.637986 
L 185.050858 247.561638 
L 185.086266 247.408941 
L 185.380876 247.332593 
L 185.380876 247.256245 
L 185.609533 247.256245 
L 185.609533 247.103548 
L 186.006688 247.0272 
L 186.006688 246.950852 
L 186.560881 246.874504 
L 186.560881 246.798155 
L 187.108844 246.721807 
L 187.108844 246.645459 
L 187.487194 246.569111 
L 187.487194 246.492762 
L 187.872879 246.416414 
L 187.950365 246.187369 
L 188.19547 246.111021 
L 188.263495 245.958325 
L 188.531376 245.881976 
L 188.613312 245.72928 
L 188.992486 245.652932 
L 188.992486 245.576584 
L 189.606813 245.500235 
L 189.639659 245.347539 
L 190.729198 245.271191 
L 190.729198 245.194842 
L 191.487972 245.118494 
L 191.524548 244.965798 
L 192.168835 244.889449 
L 192.259101 244.736753 
L 194.037718 244.660405 
L 194.136038 244.507708 
L 195.241253 244.43136 
L 195.332251 244.278664 
L 197.097749 244.202315 
L 197.097749 244.125967 
L 197.528648 244.049619 
L 197.528648 243.973271 
L 198.358214 243.896922 
L 198.358214 243.820574 
L 198.789443 243.744226 
L 198.814261 243.591529 
L 199.285736 243.515181 
L 199.390259 243.362485 
L 200.704785 243.286136 
L 200.704785 243.209788 
L 202.239965 243.13344 
L 202.239965 243.057092 
L 202.391383 242.980744 
L 202.392237 242.828047 
L 202.944128 242.751699 
L 202.944128 242.675351 
L 203.676425 242.599002 
L 203.676425 242.522654 
L 204.08767 242.446306 
L 204.08767 242.369958 
L 204.623387 242.293609 
L 204.661292 242.140913 
L 205.0966 242.064565 
L 205.188505 241.911868 
L 205.524233 241.83552 
L 205.524233 241.759172 
L 206.018259 241.682824 
L 206.018259 241.606475 
L 206.242048 241.530127 
L 206.306345 241.301082 
L 206.488307 241.224734 
L 206.538751 240.995689 
L 206.989101 240.919341 
L 207.070564 240.613948 
L 207.339806 240.5376 
L 207.448523 240.308555 
L 207.575759 240.232207 
L 207.575759 240.155859 
L 207.817436 240.079511 
L 207.837596 239.926814 
L 207.986685 239.926814 
L 208.070268 239.621421 
L 208.1714 239.545073 
L 208.264801 239.392376 
L 208.662633 239.316028 
L 208.713684 239.163332 
L 208.81112 239.086984 
L 208.81112 239.010635 
L 209.093856 238.934287 
L 209.166713 238.705242 
L 209.558662 238.628894 
L 209.651829 238.399849 
L 209.91886 238.323501 
L 210.00941 238.094456 
L 210.289425 238.018108 
L 210.351648 237.712715 
L 210.677048 237.636367 
L 210.777164 237.330974 
L 211.024473 237.254626 
L 211.087007 237.101929 
L 211.694396 237.025581 
L 211.742795 236.872885 
L 212.092436 236.796536 
L 212.092436 236.720188 
L 212.320374 236.64384 
L 212.320374 236.567492 
L 212.850879 236.491144 
L 212.850879 236.414795 
L 212.986127 236.414795 
L 212.986127 236.262099 
L 213.277706 236.185751 
L 213.305469 236.033054 
L 213.735312 235.956706 
L 213.839512 235.804009 
L 214.326447 235.727661 
L 214.433289 235.422268 
L 214.935132 235.34592 
L 214.996658 235.193224 
L 215.313347 235.116875 
L 215.40512 234.811482 
L 216.376999 234.735134 
L 216.446139 234.582438 
L 216.661455 234.506089 
L 216.753667 234.277045 
L 217.174022 234.200696 
L 217.237971 233.971652 
L 217.569181 233.895304 
L 217.569181 233.818955 
L 217.82802 233.742607 
L 217.82802 233.666259 
L 218.474403 233.589911 
L 218.474403 233.513562 
L 219.401469 233.437214 
L 219.501177 233.284518 
L 219.638656 233.208169 
L 219.64412 233.055473 
L 220.184049 232.979125 
L 220.184049 232.902776 
L 220.311701 232.826428 
L 220.311701 232.75008 
L 220.521787 232.673732 
L 220.550447 232.444687 
L 220.65106 232.368339 
L 220.65106 232.291991 
L 221.026653 232.215642 
L 221.067223 232.062946 
L 221.795092 231.986598 
L 221.795092 231.910249 
L 221.969725 231.833901 
L 221.969725 231.757553 
L 222.182777 231.681205 
L 222.182777 231.604856 
L 222.655392 231.528508 
L 222.655392 231.45216 
L 223.07905 231.375812 
L 223.184304 231.146767 
L 223.560328 231.070419 
L 223.560328 230.994071 
L 223.786907 230.917722 
L 223.786907 230.841374 
L 223.93972 230.765026 
L 223.93972 230.688678 
L 224.300018 230.612329 
L 224.397083 230.230588 
L 224.651582 230.15424 
L 224.651582 230.077892 
L 225.016597 230.001544 
L 225.123956 229.772499 
L 225.477375 229.696151 
L 225.580649 229.467106 
L 225.654107 229.390758 
L 225.654107 229.314409 
L 225.80595 229.238061 
L 225.906217 229.009016 
L 226.206261 228.932668 
L 226.253543 228.703624 
L 226.446132 228.627275 
L 226.519017 228.169186 
L 226.669354 228.092838 
L 226.669354 228.016489 
L 226.816982 227.940141 
L 226.816982 227.863793 
L 227.193241 227.787445 
L 227.298109 227.5584 
L 227.548217 227.482052 
L 227.548217 227.405704 
L 227.834304 227.329355 
L 227.834304 227.253007 
L 228.293534 227.176659 
L 228.293534 227.100311 
L 228.898129 227.023962 
L 228.898129 226.947614 
L 229.51302 226.871266 
L 229.591972 226.642221 
L 229.693125 226.565873 
L 229.696728 226.413176 
L 230.045394 226.336828 
L 230.05276 226.184132 
L 230.371312 226.107784 
L 230.47586 225.955087 
L 230.649778 225.878739 
L 230.687123 225.726042 
L 230.78597 225.649694 
L 230.78597 225.573346 
L 231.179481 225.496998 
L 231.218466 225.267953 
L 231.403053 225.191605 
L 231.496217 224.733515 
L 231.786679 224.657167 
L 231.871462 224.504471 
L 232.045277 224.428122 
L 232.136641 224.275426 
L 232.30725 224.199078 
L 232.30725 224.122729 
L 232.562876 224.046381 
L 232.623096 223.893685 
L 233.045522 223.817336 
L 233.045522 223.740988 
L 233.349804 223.66464 
L 233.349804 223.588292 
L 233.574727 223.511944 
L 233.629931 223.359247 
L 234.118187 223.282899 
L 234.118187 223.206551 
L 235.200381 223.130202 
L 235.200381 223.053854 
L 235.659909 222.977506 
L 235.686563 222.748461 
L 235.781296 222.672113 
L 235.781296 222.595765 
L 235.952273 222.519416 
L 235.952273 222.443068 
L 236.164257 222.36672 
L 236.265726 222.214024 
L 236.84443 222.137675 
L 236.84443 222.061327 
L 237.078102 221.984979 
L 237.111595 221.755934 
L 237.689513 221.679586 
L 237.749804 221.526889 
L 237.870197 221.450541 
L 237.893381 221.297845 
L 238.203662 221.221496 
L 238.23019 221.0688 
L 238.363597 220.992452 
L 238.363597 220.916104 
L 238.8906 220.839755 
L 238.906735 220.687059 
L 239.097165 220.610711 
L 239.097165 220.534362 
L 239.637817 220.458014 
L 239.65633 220.305318 
L 239.921232 220.228969 
L 240.003504 219.999925 
L 240.107869 219.923576 
L 240.107869 219.847228 
L 240.972095 219.77088 
L 241.020333 219.465487 
L 241.618543 219.389139 
L 241.618543 219.312791 
L 241.878224 219.236442 
L 241.969692 219.083746 
L 242.170082 219.007398 
L 242.244951 218.778353 
L 242.466364 218.702005 
L 242.57426 218.47296 
L 242.765547 218.396612 
L 242.765547 218.320264 
L 243.348649 218.243915 
L 243.412272 218.091219 
L 243.830384 218.014871 
L 243.923286 217.785826 
L 244.355348 217.709478 
L 244.355348 217.633129 
L 244.542983 217.556781 
L 244.585475 217.327736 
L 244.687047 217.251388 
L 244.687047 217.17504 
L 245.094385 217.098692 
L 245.094385 217.022344 
L 245.675883 216.945995 
L 245.675883 216.869647 
L 246.333606 216.793299 
L 246.333606 216.716951 
L 246.975458 216.640602 
L 246.975458 216.564254 
L 247.545096 216.487906 
L 247.545096 216.411558 
L 248.167388 216.335209 
L 248.204385 216.106165 
L 248.768554 216.029816 
L 248.872786 215.87712 
L 249.546174 215.800772 
L 249.546174 215.724424 
L 249.83794 215.648075 
L 249.906139 215.419031 
L 250.030872 215.342682 
L 250.12221 215.189986 
L 250.346813 215.113638 
L 250.346813 215.037289 
L 250.479874 214.960941 
L 250.479874 214.884593 
L 251.010252 214.808245 
L 251.010252 214.731896 
L 251.565958 214.655548 
L 251.610959 214.502852 
L 252.527662 214.426504 
L 252.620189 214.197459 
L 253.84298 214.121111 
L 253.84298 214.044762 
L 254.228216 213.968414 
L 254.228216 213.892066 
L 255.088402 213.815718 
L 255.088402 213.739369 
L 256.234142 213.663021 
L 256.234142 213.586673 
L 256.448671 213.510325 
L 256.448671 213.433976 
L 258.164605 213.357628 
L 258.164605 213.28128 
L 258.689558 213.204932 
L 258.741976 213.052235 
L 259.633382 212.975887 
L 259.691529 212.823191 
L 260.583863 212.746842 
L 260.594844 212.594146 
L 261.165642 212.517798 
L 261.165642 212.441449 
L 261.717968 212.365101 
L 261.717968 212.288753 
L 262.467044 212.212405 
L 262.516319 212.059708 
L 262.876051 211.98336 
L 262.919922 211.830664 
L 263.081755 211.754315 
L 263.088183 211.601619 
L 263.765425 211.525271 
L 263.765425 211.448922 
L 264.659215 211.372574 
L 264.721633 211.219878 
L 264.991844 211.143529 
L 264.991844 211.067181 
L 265.521206 210.990833 
L 265.521206 210.914485 
L 266.484985 210.838136 
L 266.484985 210.761788 
L 266.751061 210.68544 
L 266.751061 210.609092 
L 270.619935 210.532744 
L 270.665604 210.380047 
L 275.464993 210.303699 
L 275.464993 210.227351 
L 280.585398 210.151002 
L 280.673666 209.998306 
L 285.673792 209.921958 
L 285.673792 209.845609 
L 288.558849 209.769261 
L 288.558849 209.692913 
L 360.8064 209.616565 
L 360.8064 209.616565 
" style="fill:none;stroke:#ff7500;stroke-linecap:square;stroke-width:1.5;"/>
   </g>
   <g id="line2d_46">
    <defs>
     <path d="M 0 -6 
L -1.347084 -1.854102 
L -5.706339 -1.854102 
L -2.179628 0.708204 
L -3.526712 4.854102 
L -0 2.291796 
L 3.526712 4.854102 
L 2.179628 0.708204 
L 5.706339 -1.854102 
L 1.347084 -1.854102 
z
" id="m0a9f3beae4" style="stroke:#ff7500;stroke-linejoin:bevel;stroke-width:1.5;"/>
    </defs>
    <g>
     <use style="fill-opacity:0;stroke:#ff7500;stroke-linejoin:bevel;stroke-width:1.5;" x="91.770283" xlink:href="#m0a9f3beae4" y="280.544075"/>
     <use style="fill-opacity:0;stroke:#ff7500;stroke-linejoin:bevel;stroke-width:1.5;" x="171.680147" xlink:href="#m0a9f3beae4" y="258.479435"/>
     <use style="fill-opacity:0;stroke:#ff7500;stroke-linejoin:bevel;stroke-width:1.5;" x="243.412272" xlink:href="#m0a9f3beae4" y="218.091219"/>
     <use style="fill-opacity:0;stroke:#ff7500;stroke-linejoin:bevel;stroke-width:1.5;" x="299.474977" xlink:href="#m0a9f3beae4" y="209.692913"/>
     <use style="fill-opacity:0;stroke:#ff7500;stroke-linejoin:bevel;stroke-width:1.5;" x="299.474977" xlink:href="#m0a9f3beae4" y="209.616565"/>
     <use style="fill-opacity:0;stroke:#ff7500;stroke-linejoin:bevel;stroke-width:1.5;" x="360.8064" xlink:href="#m0a9f3beae4" y="209.616565"/>
    </g>
   </g>
   <g id="line2d_47">
    <path style="fill:none;stroke:#ff7500;stroke-linecap:square;stroke-width:1.5;"/>
    <g/>
   </g>
   <g id="line2d_48">
    <path clip-path="url(#p37082c29d1)" d="M 194.350156 244.43136 
" style="fill:none;stroke:#ff7500;stroke-linecap:square;stroke-width:1.5;"/>
    <defs>
     <path d="M -12 12 
L 12 -12 
M -12 -12 
L 12 12 
" id="m6c16ede1ac" style="stroke:#ff7500;"/>
    </defs>
    <g clip-path="url(#p37082c29d1)">
     <use style="fill:#ff7500;stroke:#ff7500;" x="194.350156" xlink:href="#m6c16ede1ac" y="244.43136"/>
    </g>
   </g>
   <g id="line2d_49">
    <path d="M 360.8064 248.554165 
L 380.514816 293.10336 
" style="fill:none;stroke:#000080;stroke-linecap:square;stroke-width:1.5;"/>
    <g>
     <use style="fill-opacity:0;stroke:#000080;stroke-width:1.5;" x="360.8064" xlink:href="#m1179a692c9" y="248.554165"/>
     <use style="fill-opacity:0;stroke:#000080;stroke-width:1.5;" x="380.514816" xlink:href="#m1179a692c9" y="293.10336"/>
    </g>
   </g>
   <g id="line2d_50">
    <path d="M 360.8064 211.907012 
L 380.514816 199.65312 
" style="fill:none;stroke:#ff00ff;stroke-linecap:square;stroke-width:1.5;"/>
    <g>
     <use style="fill-opacity:0;stroke:#ff00ff;stroke-linejoin:miter;stroke-width:1.5;" x="360.8064" xlink:href="#md03b498ddc" y="211.907012"/>
     <use style="fill-opacity:0;stroke:#ff00ff;stroke-linejoin:miter;stroke-width:1.5;" x="380.514816" xlink:href="#md03b498ddc" y="199.65312"/>
    </g>
   </g>
   <g id="line2d_51">
    <path d="M 360.8064 209.616565 
L 380.514816 106.20288 
" style="fill:none;stroke:#ff7500;stroke-linecap:square;stroke-width:1.5;"/>
    <g>
     <use style="fill-opacity:0;stroke:#ff7500;stroke-linejoin:bevel;stroke-width:1.5;" x="360.8064" xlink:href="#m0a9f3beae4" y="209.616565"/>
     <use style="fill-opacity:0;stroke:#ff7500;stroke-linejoin:bevel;stroke-width:1.5;" x="380.514816" xlink:href="#m0a9f3beae4" y="106.20288"/>
    </g>
   </g>
   <g id="line2d_52">
    <path d="M 360.8064 298.944 
L 360.8064 6.912 
" style="fill:none;stroke:#000000;stroke-linecap:square;stroke-width:1.5;"/>
   </g>
   <g id="patch_3">
    <path d="M 57.6 298.944 
L 360.8064 298.944 
" style="fill:none;stroke:#000000;stroke-linecap:square;stroke-linejoin:miter;stroke-width:0.8;"/>
   </g>
   <g id="patch_4">
    <path d="M 57.6 6.912 
L 360.8064 6.912 
" style="fill:none;stroke:#000000;stroke-linecap:square;stroke-linejoin:miter;stroke-width:0.8;"/>
   </g>
   <g id="text_13">
    <!-- different -->
    <g transform="translate(386.578944 296.966485)scale(0.14 -0.14)">
     <use xlink:href="#DejaVuSans-64"/>
     <use x="63.476562" xlink:href="#DejaVuSans-69"/>
     <use x="91.259766" xlink:href="#DejaVuSans-66"/>
     <use x="126.464844" xlink:href="#DejaVuSans-66"/>
     <use x="161.669922" xlink:href="#DejaVuSans-65"/>
     <use x="223.193359" xlink:href="#DejaVuSans-72"/>
     <use x="262.056641" xlink:href="#DejaVuSans-65"/>
     <use x="323.580078" xlink:href="#DejaVuSans-6e"/>
     <use x="386.958984" xlink:href="#DejaVuSans-74"/>
    </g>
   </g>
   <g id="text_14">
    <!-- cma.fmin  -->
    <g transform="translate(386.578944 203.516245)scale(0.14 -0.14)">
     <use xlink:href="#DejaVuSans-63"/>
     <use x="54.980469" xlink:href="#DejaVuSans-6d"/>
     <use x="152.392578" xlink:href="#DejaVuSans-61"/>
     <use x="213.671875" xlink:href="#DejaVuSans-2e"/>
     <use x="245.458984" xlink:href="#DejaVuSans-66"/>
     <use x="280.664062" xlink:href="#DejaVuSans-6d"/>
     <use x="378.076172" xlink:href="#DejaVuSans-69"/>
     <use x="405.859375" xlink:href="#DejaVuSans-6e"/>
     <use x="469.238281" xlink:href="#DejaVuSans-20"/>
    </g>
   </g>
   <g id="text_15">
    <!-- diffcma b -->
    <g transform="translate(386.578944 110.066005)scale(0.14 -0.14)">
     <defs>
      <path d="M 3116 1747 
Q 3116 2381 2855 2742 
Q 2594 3103 2138 3103 
Q 1681 3103 1420 2742 
Q 1159 2381 1159 1747 
Q 1159 1113 1420 752 
Q 1681 391 2138 391 
Q 2594 391 2855 752 
Q 3116 1113 3116 1747 
z
M 1159 2969 
Q 1341 3281 1617 3432 
Q 1894 3584 2278 3584 
Q 2916 3584 3314 3078 
Q 3713 2572 3713 1747 
Q 3713 922 3314 415 
Q 2916 -91 2278 -91 
Q 1894 -91 1617 61 
Q 1341 213 1159 525 
L 1159 0 
L 581 0 
L 581 4863 
L 1159 4863 
L 1159 2969 
z
" id="DejaVuSans-62" transform="scale(0.015625)"/>
     </defs>
     <use xlink:href="#DejaVuSans-64"/>
     <use x="63.476562" xlink:href="#DejaVuSans-69"/>
     <use x="91.259766" xlink:href="#DejaVuSans-66"/>
     <use x="126.464844" xlink:href="#DejaVuSans-66"/>
     <use x="161.669922" xlink:href="#DejaVuSans-63"/>
     <use x="216.650391" xlink:href="#DejaVuSans-6d"/>
     <use x="314.0625" xlink:href="#DejaVuSans-61"/>
     <use x="375.341797" xlink:href="#DejaVuSans-20"/>
     <use x="407.128906" xlink:href="#DejaVuSans-62"/>
    </g>
   </g>
   <g id="text_16">
    <!-- best 2009 -->
    <g transform="translate(386.578944 16.615765)scale(0.14 -0.14)">
     <defs>
      <path d="M 703 97 
L 703 672 
Q 941 559 1184 500 
Q 1428 441 1663 441 
Q 2288 441 2617 861 
Q 2947 1281 2994 2138 
Q 2813 1869 2534 1725 
Q 2256 1581 1919 1581 
Q 1219 1581 811 2004 
Q 403 2428 403 3163 
Q 403 3881 828 4315 
Q 1253 4750 1959 4750 
Q 2769 4750 3195 4129 
Q 3622 3509 3622 2328 
Q 3622 1225 3098 567 
Q 2575 -91 1691 -91 
Q 1453 -91 1209 -44 
Q 966 3 703 97 
z
M 1959 2075 
Q 2384 2075 2632 2365 
Q 2881 2656 2881 3163 
Q 2881 3666 2632 3958 
Q 2384 4250 1959 4250 
Q 1534 4250 1286 3958 
Q 1038 3666 1038 3163 
Q 1038 2656 1286 2365 
Q 1534 2075 1959 2075 
z
" id="DejaVuSans-39" transform="scale(0.015625)"/>
     </defs>
     <use xlink:href="#DejaVuSans-62"/>
     <use x="63.476562" xlink:href="#DejaVuSans-65"/>
     <use x="125" xlink:href="#DejaVuSans-73"/>
     <use x="177.099609" xlink:href="#DejaVuSans-74"/>
     <use x="216.308594" xlink:href="#DejaVuSans-20"/>
     <use x="248.095703" xlink:href="#DejaVuSans-32"/>
     <use x="311.71875" xlink:href="#DejaVuSans-30"/>
     <use x="375.341797" xlink:href="#DejaVuSans-30"/>
     <use x="438.964844" xlink:href="#DejaVuSans-39"/>
    </g>
   </g>
   <g id="text_17">
    <!-- bbob f15-f19, 20-D -->
    <g transform="translate(60.632064 17.582726)scale(0.102 -0.102)">
     <defs>
      <path d="M 691 4666 
L 3169 4666 
L 3169 4134 
L 1269 4134 
L 1269 2991 
Q 1406 3038 1543 3061 
Q 1681 3084 1819 3084 
Q 2600 3084 3056 2656 
Q 3513 2228 3513 1497 
Q 3513 744 3044 326 
Q 2575 -91 1722 -91 
Q 1428 -91 1123 -41 
Q 819 9 494 109 
L 494 744 
Q 775 591 1075 516 
Q 1375 441 1709 441 
Q 2250 441 2565 725 
Q 2881 1009 2881 1497 
Q 2881 1984 2565 2268 
Q 2250 2553 1709 2553 
Q 1456 2553 1204 2497 
Q 953 2441 691 2322 
L 691 4666 
z
" id="DejaVuSans-35" transform="scale(0.015625)"/>
      <path d="M 1259 4147 
L 1259 519 
L 2022 519 
Q 2988 519 3436 956 
Q 3884 1394 3884 2338 
Q 3884 3275 3436 3711 
Q 2988 4147 2022 4147 
L 1259 4147 
z
M 628 4666 
L 1925 4666 
Q 3281 4666 3915 4102 
Q 4550 3538 4550 2338 
Q 4550 1131 3912 565 
Q 3275 0 1925 0 
L 628 0 
L 628 4666 
z
" id="DejaVuSans-44" transform="scale(0.015625)"/>
     </defs>
     <use xlink:href="#DejaVuSans-62"/>
     <use x="63.476562" xlink:href="#DejaVuSans-62"/>
     <use x="126.953125" xlink:href="#DejaVuSans-6f"/>
     <use x="188.134766" xlink:href="#DejaVuSans-62"/>
     <use x="251.611328" xlink:href="#DejaVuSans-20"/>
     <use x="283.398438" xlink:href="#DejaVuSans-66"/>
     <use x="318.603516" xlink:href="#DejaVuSans-31"/>
     <use x="382.226562" xlink:href="#DejaVuSans-35"/>
     <use x="445.849609" xlink:href="#DejaVuSans-2d"/>
     <use x="481.933594" xlink:href="#DejaVuSans-66"/>
     <use x="517.138672" xlink:href="#DejaVuSans-31"/>
     <use x="580.761719" xlink:href="#DejaVuSans-39"/>
     <use x="644.384766" xlink:href="#DejaVuSans-2c"/>
     <use x="676.171875" xlink:href="#DejaVuSans-20"/>
     <use x="707.958984" xlink:href="#DejaVuSans-32"/>
     <use x="771.582031" xlink:href="#DejaVuSans-30"/>
     <use x="835.205078" xlink:href="#DejaVuSans-2d"/>
     <use x="871.289062" xlink:href="#DejaVuSans-44"/>
    </g>
    <!-- 51 targets: 100..1e-08 -->
    <g transform="translate(60.632064 29.004495)scale(0.102 -0.102)">
     <defs>
      <path d="M 750 794 
L 1409 794 
L 1409 0 
L 750 0 
L 750 794 
z
M 750 3309 
L 1409 3309 
L 1409 2516 
L 750 2516 
L 750 3309 
z
" id="DejaVuSans-3a" transform="scale(0.015625)"/>
     </defs>
     <use xlink:href="#DejaVuSans-35"/>
     <use x="63.623047" xlink:href="#DejaVuSans-31"/>
     <use x="127.246094" xlink:href="#DejaVuSans-20"/>
     <use x="159.033203" xlink:href="#DejaVuSans-74"/>
     <use x="198.242188" xlink:href="#DejaVuSans-61"/>
     <use x="259.521484" xlink:href="#DejaVuSans-72"/>
     <use x="298.884766" xlink:href="#DejaVuSans-67"/>
     <use x="362.361328" xlink:href="#DejaVuSans-65"/>
     <use x="423.884766" xlink:href="#DejaVuSans-74"/>
     <use x="463.09375" xlink:href="#DejaVuSans-73"/>
     <use x="515.193359" xlink:href="#DejaVuSans-3a"/>
     <use x="548.884766" xlink:href="#DejaVuSans-20"/>
     <use x="580.671875" xlink:href="#DejaVuSans-31"/>
     <use x="644.294922" xlink:href="#DejaVuSans-30"/>
     <use x="707.917969" xlink:href="#DejaVuSans-30"/>
     <use x="771.541016" xlink:href="#DejaVuSans-2e"/>
     <use x="803.328125" xlink:href="#DejaVuSans-2e"/>
     <use x="835.115234" xlink:href="#DejaVuSans-31"/>
     <use x="898.738281" xlink:href="#DejaVuSans-65"/>
     <use x="960.261719" xlink:href="#DejaVuSans-2d"/>
     <use x="996.345703" xlink:href="#DejaVuSans-30"/>
     <use x="1059.96875" xlink:href="#DejaVuSans-38"/>
    </g>
    <!-- 15 instances -->
    <g transform="translate(60.632064 40.426264)scale(0.102 -0.102)">
     <use xlink:href="#DejaVuSans-31"/>
     <use x="63.623047" xlink:href="#DejaVuSans-35"/>
     <use x="127.246094" xlink:href="#DejaVuSans-20"/>
     <use x="159.033203" xlink:href="#DejaVuSans-69"/>
     <use x="186.816406" xlink:href="#DejaVuSans-6e"/>
     <use x="250.195312" xlink:href="#DejaVuSans-73"/>
     <use x="302.294922" xlink:href="#DejaVuSans-74"/>
     <use x="341.503906" xlink:href="#DejaVuSans-61"/>
     <use x="402.783203" xlink:href="#DejaVuSans-6e"/>
     <use x="466.162109" xlink:href="#DejaVuSans-63"/>
     <use x="521.142578" xlink:href="#DejaVuSans-65"/>
     <use x="582.666016" xlink:href="#DejaVuSans-73"/>
    </g>
   </g>
   <g id="text_18">
    <!-- v2.6 -->
    <g style="fill:#808080;" transform="translate(198.292262 293.943992)scale(0.1 -0.1)">
     <use xlink:href="#DejaVuSans-76"/>
     <use x="59.179688" xlink:href="#DejaVuSans-32"/>
     <use x="122.802734" xlink:href="#DejaVuSans-2e"/>
     <use x="154.589844" xlink:href="#DejaVuSans-36"/>
    </g>
   </g>
  </g>
 </g>
 <defs>
  <clipPath id="p37082c29d1">
   <rect height="292.032" width="303.2064" x="57.6" y="6.912"/>
  </clipPath>
 </defs>
</svg>
