<?xml version="1.0" encoding="utf-8" standalone="no"?>
<!DOCTYPE svg PUBLIC "-//W3C//DTD SVG 1.1//EN"
  "http://www.w3.org/Graphics/SVG/1.1/DTD/svg11.dtd">
<svg height="345.6pt" version="1.1" viewBox="0 0 460.8 345.6" width="460.8pt" xmlns="http://www.w3.org/2000/svg" xmlns:xlink="http://www.w3.org/1999/xlink">
 <metadata>
  <rdf:RDF xmlns:cc="http://creativecommons.org/ns#" xmlns:dc="http://purl.org/dc/elements/1.1/" xmlns:rdf="http://www.w3.org/1999/02/22-rdf-syntax-ns#">
   <cc:Work>
    <dc:type rdf:resource="http://purl.org/dc/dcmitype/StillImage"/>
    <dc:date>2022-04-01T21:56:40.662013</dc:date>
    <dc:format>image/svg+xml</dc:format>
    <dc:creator>
     <cc:Agent>
      <dc:title>Matplotlib v3.4.3, https://matplotlib.org/</dc:title>
     </cc:Agent>
    </dc:creator>
   </cc:Work>
  </rdf:RDF>
 </metadata>
 <defs>
  <style type="text/css">*{stroke-linecap:butt;stroke-linejoin:round;}</style>
 </defs>
 <g id="figure_1">
  <g id="patch_1">
   <path d="M 0 345.6 
L 460.8 345.6 
L 460.8 0 
L 0 0 
z
" style="fill:#ffffff;"/>
  </g>
  <g id="axes_1">
   <g id="patch_2">
    <path d="M 57.6 298.944 
L 360.8064 298.944 
L 360.8064 6.912 
L 57.6 6.912 
z
" style="fill:#ffffff;"/>
   </g>
   <g id="matplotlib.axis_1">
    <g id="xtick_1">
     <g id="line2d_1">
      <path clip-path="url(#p9530a2a9d2)" d="M 57.6 298.944 
L 57.6 6.912 
" style="fill:none;stroke:#b0b0b0;stroke-linecap:square;stroke-width:0.8;"/>
     </g>
     <g id="line2d_2">
      <defs>
       <path d="M 0 0 
L 0 3.5 
" id="m302a3ed6c3" style="stroke:#000000;stroke-width:0.8;"/>
      </defs>
      <g>
       <use style="stroke:#000000;stroke-width:0.8;" x="57.6" xlink:href="#m302a3ed6c3" y="298.944"/>
      </g>
     </g>
     <g id="text_1">
      <!-- 0 -->
      <g transform="translate(52.191875 318.861344)scale(0.17 -0.17)">
       <defs>
        <path d="M 2034 4250 
Q 1547 4250 1301 3770 
Q 1056 3291 1056 2328 
Q 1056 1369 1301 889 
Q 1547 409 2034 409 
Q 2525 409 2770 889 
Q 3016 1369 3016 2328 
Q 3016 3291 2770 3770 
Q 2525 4250 2034 4250 
z
M 2034 4750 
Q 2819 4750 3233 4129 
Q 3647 3509 3647 2328 
Q 3647 1150 3233 529 
Q 2819 -91 2034 -91 
Q 1250 -91 836 529 
Q 422 1150 422 2328 
Q 422 3509 836 4129 
Q 1250 4750 2034 4750 
z
" id="DejaVuSans-30" transform="scale(0.015625)"/>
       </defs>
       <use xlink:href="#DejaVuSans-30"/>
      </g>
     </g>
    </g>
    <g id="xtick_2">
     <g id="line2d_3">
      <path clip-path="url(#p9530a2a9d2)" d="M 144.2304 298.944 
L 144.2304 6.912 
" style="fill:none;stroke:#b0b0b0;stroke-linecap:square;stroke-width:0.8;"/>
     </g>
     <g id="line2d_4">
      <g>
       <use style="stroke:#000000;stroke-width:0.8;" x="144.2304" xlink:href="#m302a3ed6c3" y="298.944"/>
      </g>
     </g>
     <g id="text_2">
      <!-- 2 -->
      <g transform="translate(138.822275 318.861344)scale(0.17 -0.17)">
       <defs>
        <path d="M 1228 531 
L 3431 531 
L 3431 0 
L 469 0 
L 469 531 
Q 828 903 1448 1529 
Q 2069 2156 2228 2338 
Q 2531 2678 2651 2914 
Q 2772 3150 2772 3378 
Q 2772 3750 2511 3984 
Q 2250 4219 1831 4219 
Q 1534 4219 1204 4116 
Q 875 4013 500 3803 
L 500 4441 
Q 881 4594 1212 4672 
Q 1544 4750 1819 4750 
Q 2544 4750 2975 4387 
Q 3406 4025 3406 3419 
Q 3406 3131 3298 2873 
Q 3191 2616 2906 2266 
Q 2828 2175 2409 1742 
Q 1991 1309 1228 531 
z
" id="DejaVuSans-32" transform="scale(0.015625)"/>
       </defs>
       <use xlink:href="#DejaVuSans-32"/>
      </g>
     </g>
    </g>
    <g id="xtick_3">
     <g id="line2d_5">
      <path clip-path="url(#p9530a2a9d2)" d="M 230.8608 298.944 
L 230.8608 6.912 
" style="fill:none;stroke:#b0b0b0;stroke-linecap:square;stroke-width:0.8;"/>
     </g>
     <g id="line2d_6">
      <g>
       <use style="stroke:#000000;stroke-width:0.8;" x="230.8608" xlink:href="#m302a3ed6c3" y="298.944"/>
      </g>
     </g>
     <g id="text_3">
      <!-- 4 -->
      <g transform="translate(225.452675 318.861344)scale(0.17 -0.17)">
       <defs>
        <path d="M 2419 4116 
L 825 1625 
L 2419 1625 
L 2419 4116 
z
M 2253 4666 
L 3047 4666 
L 3047 1625 
L 3713 1625 
L 3713 1100 
L 3047 1100 
L 3047 0 
L 2419 0 
L 2419 1100 
L 313 1100 
L 313 1709 
L 2253 4666 
z
" id="DejaVuSans-34" transform="scale(0.015625)"/>
       </defs>
       <use xlink:href="#DejaVuSans-34"/>
      </g>
     </g>
    </g>
    <g id="xtick_4">
     <g id="line2d_7">
      <path clip-path="url(#p9530a2a9d2)" d="M 317.4912 298.944 
L 317.4912 6.912 
" style="fill:none;stroke:#b0b0b0;stroke-linecap:square;stroke-width:0.8;"/>
     </g>
     <g id="line2d_8">
      <g>
       <use style="stroke:#000000;stroke-width:0.8;" x="317.4912" xlink:href="#m302a3ed6c3" y="298.944"/>
      </g>
     </g>
     <g id="text_4">
      <!-- 6 -->
      <g transform="translate(312.083075 318.861344)scale(0.17 -0.17)">
       <defs>
        <path d="M 2113 2584 
Q 1688 2584 1439 2293 
Q 1191 2003 1191 1497 
Q 1191 994 1439 701 
Q 1688 409 2113 409 
Q 2538 409 2786 701 
Q 3034 994 3034 1497 
Q 3034 2003 2786 2293 
Q 2538 2584 2113 2584 
z
M 3366 4563 
L 3366 3988 
Q 3128 4100 2886 4159 
Q 2644 4219 2406 4219 
Q 1781 4219 1451 3797 
Q 1122 3375 1075 2522 
Q 1259 2794 1537 2939 
Q 1816 3084 2150 3084 
Q 2853 3084 3261 2657 
Q 3669 2231 3669 1497 
Q 3669 778 3244 343 
Q 2819 -91 2113 -91 
Q 1303 -91 875 529 
Q 447 1150 447 2328 
Q 447 3434 972 4092 
Q 1497 4750 2381 4750 
Q 2619 4750 2861 4703 
Q 3103 4656 3366 4563 
z
" id="DejaVuSans-36" transform="scale(0.015625)"/>
       </defs>
       <use xlink:href="#DejaVuSans-36"/>
      </g>
     </g>
    </g>
    <g id="xtick_5">
     <g id="line2d_9">
      <path clip-path="url(#p9530a2a9d2)" d="M 100.9152 298.944 
L 100.9152 6.912 
" style="fill:none;stroke:#b0b0b0;stroke-linecap:square;stroke-width:0.8;"/>
     </g>
     <g id="line2d_10">
      <defs>
       <path d="M 0 0 
L 0 2 
" id="mb62c92e29e" style="stroke:#000000;stroke-width:0.6;"/>
      </defs>
      <g>
       <use style="stroke:#000000;stroke-width:0.6;" x="100.9152" xlink:href="#mb62c92e29e" y="298.944"/>
      </g>
     </g>
    </g>
    <g id="xtick_6">
     <g id="line2d_11">
      <path clip-path="url(#p9530a2a9d2)" d="M 187.5456 298.944 
L 187.5456 6.912 
" style="fill:none;stroke:#b0b0b0;stroke-linecap:square;stroke-width:0.8;"/>
     </g>
     <g id="line2d_12">
      <g>
       <use style="stroke:#000000;stroke-width:0.6;" x="187.5456" xlink:href="#mb62c92e29e" y="298.944"/>
      </g>
     </g>
    </g>
    <g id="xtick_7">
     <g id="line2d_13">
      <path clip-path="url(#p9530a2a9d2)" d="M 274.176 298.944 
L 274.176 6.912 
" style="fill:none;stroke:#b0b0b0;stroke-linecap:square;stroke-width:0.8;"/>
     </g>
     <g id="line2d_14">
      <g>
       <use style="stroke:#000000;stroke-width:0.6;" x="274.176" xlink:href="#mb62c92e29e" y="298.944"/>
      </g>
     </g>
    </g>
    <g id="xtick_8">
     <g id="line2d_15">
      <path clip-path="url(#p9530a2a9d2)" d="M 360.8064 298.944 
L 360.8064 6.912 
" style="fill:none;stroke:#b0b0b0;stroke-linecap:square;stroke-width:0.8;"/>
     </g>
     <g id="line2d_16">
      <g>
       <use style="stroke:#000000;stroke-width:0.6;" x="360.8064" xlink:href="#mb62c92e29e" y="298.944"/>
      </g>
     </g>
    </g>
    <g id="text_5">
     <!-- log10(# f-evals / dimension) -->
     <g transform="translate(88.823278 339.314156)scale(0.17 -0.17)">
      <defs>
       <path d="M 603 4863 
L 1178 4863 
L 1178 0 
L 603 0 
L 603 4863 
z
" id="DejaVuSans-6c" transform="scale(0.015625)"/>
       <path d="M 1959 3097 
Q 1497 3097 1228 2736 
Q 959 2375 959 1747 
Q 959 1119 1226 758 
Q 1494 397 1959 397 
Q 2419 397 2687 759 
Q 2956 1122 2956 1747 
Q 2956 2369 2687 2733 
Q 2419 3097 1959 3097 
z
M 1959 3584 
Q 2709 3584 3137 3096 
Q 3566 2609 3566 1747 
Q 3566 888 3137 398 
Q 2709 -91 1959 -91 
Q 1206 -91 779 398 
Q 353 888 353 1747 
Q 353 2609 779 3096 
Q 1206 3584 1959 3584 
z
" id="DejaVuSans-6f" transform="scale(0.015625)"/>
       <path d="M 2906 1791 
Q 2906 2416 2648 2759 
Q 2391 3103 1925 3103 
Q 1463 3103 1205 2759 
Q 947 2416 947 1791 
Q 947 1169 1205 825 
Q 1463 481 1925 481 
Q 2391 481 2648 825 
Q 2906 1169 2906 1791 
z
M 3481 434 
Q 3481 -459 3084 -895 
Q 2688 -1331 1869 -1331 
Q 1566 -1331 1297 -1286 
Q 1028 -1241 775 -1147 
L 775 -588 
Q 1028 -725 1275 -790 
Q 1522 -856 1778 -856 
Q 2344 -856 2625 -561 
Q 2906 -266 2906 331 
L 2906 616 
Q 2728 306 2450 153 
Q 2172 0 1784 0 
Q 1141 0 747 490 
Q 353 981 353 1791 
Q 353 2603 747 3093 
Q 1141 3584 1784 3584 
Q 2172 3584 2450 3431 
Q 2728 3278 2906 2969 
L 2906 3500 
L 3481 3500 
L 3481 434 
z
" id="DejaVuSans-67" transform="scale(0.015625)"/>
       <path d="M 794 531 
L 1825 531 
L 1825 4091 
L 703 3866 
L 703 4441 
L 1819 4666 
L 2450 4666 
L 2450 531 
L 3481 531 
L 3481 0 
L 794 0 
L 794 531 
z
" id="DejaVuSans-31" transform="scale(0.015625)"/>
       <path d="M 1984 4856 
Q 1566 4138 1362 3434 
Q 1159 2731 1159 2009 
Q 1159 1288 1364 580 
Q 1569 -128 1984 -844 
L 1484 -844 
Q 1016 -109 783 600 
Q 550 1309 550 2009 
Q 550 2706 781 3412 
Q 1013 4119 1484 4856 
L 1984 4856 
z
" id="DejaVuSans-28" transform="scale(0.015625)"/>
       <path d="M 3272 2816 
L 2363 2816 
L 2100 1772 
L 3016 1772 
L 3272 2816 
z
M 2803 4594 
L 2478 3297 
L 3391 3297 
L 3719 4594 
L 4219 4594 
L 3897 3297 
L 4872 3297 
L 4872 2816 
L 3775 2816 
L 3519 1772 
L 4513 1772 
L 4513 1294 
L 3397 1294 
L 3072 0 
L 2572 0 
L 2894 1294 
L 1978 1294 
L 1656 0 
L 1153 0 
L 1478 1294 
L 494 1294 
L 494 1772 
L 1594 1772 
L 1856 2816 
L 850 2816 
L 850 3297 
L 1978 3297 
L 2297 4594 
L 2803 4594 
z
" id="DejaVuSans-23" transform="scale(0.015625)"/>
       <path id="DejaVuSans-20" transform="scale(0.015625)"/>
       <path d="M 2375 4863 
L 2375 4384 
L 1825 4384 
Q 1516 4384 1395 4259 
Q 1275 4134 1275 3809 
L 1275 3500 
L 2222 3500 
L 2222 3053 
L 1275 3053 
L 1275 0 
L 697 0 
L 697 3053 
L 147 3053 
L 147 3500 
L 697 3500 
L 697 3744 
Q 697 4328 969 4595 
Q 1241 4863 1831 4863 
L 2375 4863 
z
" id="DejaVuSans-66" transform="scale(0.015625)"/>
       <path d="M 313 2009 
L 1997 2009 
L 1997 1497 
L 313 1497 
L 313 2009 
z
" id="DejaVuSans-2d" transform="scale(0.015625)"/>
       <path d="M 3597 1894 
L 3597 1613 
L 953 1613 
Q 991 1019 1311 708 
Q 1631 397 2203 397 
Q 2534 397 2845 478 
Q 3156 559 3463 722 
L 3463 178 
Q 3153 47 2828 -22 
Q 2503 -91 2169 -91 
Q 1331 -91 842 396 
Q 353 884 353 1716 
Q 353 2575 817 3079 
Q 1281 3584 2069 3584 
Q 2775 3584 3186 3129 
Q 3597 2675 3597 1894 
z
M 3022 2063 
Q 3016 2534 2758 2815 
Q 2500 3097 2075 3097 
Q 1594 3097 1305 2825 
Q 1016 2553 972 2059 
L 3022 2063 
z
" id="DejaVuSans-65" transform="scale(0.015625)"/>
       <path d="M 191 3500 
L 800 3500 
L 1894 563 
L 2988 3500 
L 3597 3500 
L 2284 0 
L 1503 0 
L 191 3500 
z
" id="DejaVuSans-76" transform="scale(0.015625)"/>
       <path d="M 2194 1759 
Q 1497 1759 1228 1600 
Q 959 1441 959 1056 
Q 959 750 1161 570 
Q 1363 391 1709 391 
Q 2188 391 2477 730 
Q 2766 1069 2766 1631 
L 2766 1759 
L 2194 1759 
z
M 3341 1997 
L 3341 0 
L 2766 0 
L 2766 531 
Q 2569 213 2275 61 
Q 1981 -91 1556 -91 
Q 1019 -91 701 211 
Q 384 513 384 1019 
Q 384 1609 779 1909 
Q 1175 2209 1959 2209 
L 2766 2209 
L 2766 2266 
Q 2766 2663 2505 2880 
Q 2244 3097 1772 3097 
Q 1472 3097 1187 3025 
Q 903 2953 641 2809 
L 641 3341 
Q 956 3463 1253 3523 
Q 1550 3584 1831 3584 
Q 2591 3584 2966 3190 
Q 3341 2797 3341 1997 
z
" id="DejaVuSans-61" transform="scale(0.015625)"/>
       <path d="M 2834 3397 
L 2834 2853 
Q 2591 2978 2328 3040 
Q 2066 3103 1784 3103 
Q 1356 3103 1142 2972 
Q 928 2841 928 2578 
Q 928 2378 1081 2264 
Q 1234 2150 1697 2047 
L 1894 2003 
Q 2506 1872 2764 1633 
Q 3022 1394 3022 966 
Q 3022 478 2636 193 
Q 2250 -91 1575 -91 
Q 1294 -91 989 -36 
Q 684 19 347 128 
L 347 722 
Q 666 556 975 473 
Q 1284 391 1588 391 
Q 1994 391 2212 530 
Q 2431 669 2431 922 
Q 2431 1156 2273 1281 
Q 2116 1406 1581 1522 
L 1381 1569 
Q 847 1681 609 1914 
Q 372 2147 372 2553 
Q 372 3047 722 3315 
Q 1072 3584 1716 3584 
Q 2034 3584 2315 3537 
Q 2597 3491 2834 3397 
z
" id="DejaVuSans-73" transform="scale(0.015625)"/>
       <path d="M 1625 4666 
L 2156 4666 
L 531 -594 
L 0 -594 
L 1625 4666 
z
" id="DejaVuSans-2f" transform="scale(0.015625)"/>
       <path d="M 2906 2969 
L 2906 4863 
L 3481 4863 
L 3481 0 
L 2906 0 
L 2906 525 
Q 2725 213 2448 61 
Q 2172 -91 1784 -91 
Q 1150 -91 751 415 
Q 353 922 353 1747 
Q 353 2572 751 3078 
Q 1150 3584 1784 3584 
Q 2172 3584 2448 3432 
Q 2725 3281 2906 2969 
z
M 947 1747 
Q 947 1113 1208 752 
Q 1469 391 1925 391 
Q 2381 391 2643 752 
Q 2906 1113 2906 1747 
Q 2906 2381 2643 2742 
Q 2381 3103 1925 3103 
Q 1469 3103 1208 2742 
Q 947 2381 947 1747 
z
" id="DejaVuSans-64" transform="scale(0.015625)"/>
       <path d="M 603 3500 
L 1178 3500 
L 1178 0 
L 603 0 
L 603 3500 
z
M 603 4863 
L 1178 4863 
L 1178 4134 
L 603 4134 
L 603 4863 
z
" id="DejaVuSans-69" transform="scale(0.015625)"/>
       <path d="M 3328 2828 
Q 3544 3216 3844 3400 
Q 4144 3584 4550 3584 
Q 5097 3584 5394 3201 
Q 5691 2819 5691 2113 
L 5691 0 
L 5113 0 
L 5113 2094 
Q 5113 2597 4934 2840 
Q 4756 3084 4391 3084 
Q 3944 3084 3684 2787 
Q 3425 2491 3425 1978 
L 3425 0 
L 2847 0 
L 2847 2094 
Q 2847 2600 2669 2842 
Q 2491 3084 2119 3084 
Q 1678 3084 1418 2786 
Q 1159 2488 1159 1978 
L 1159 0 
L 581 0 
L 581 3500 
L 1159 3500 
L 1159 2956 
Q 1356 3278 1631 3431 
Q 1906 3584 2284 3584 
Q 2666 3584 2933 3390 
Q 3200 3197 3328 2828 
z
" id="DejaVuSans-6d" transform="scale(0.015625)"/>
       <path d="M 3513 2113 
L 3513 0 
L 2938 0 
L 2938 2094 
Q 2938 2591 2744 2837 
Q 2550 3084 2163 3084 
Q 1697 3084 1428 2787 
Q 1159 2491 1159 1978 
L 1159 0 
L 581 0 
L 581 3500 
L 1159 3500 
L 1159 2956 
Q 1366 3272 1645 3428 
Q 1925 3584 2291 3584 
Q 2894 3584 3203 3211 
Q 3513 2838 3513 2113 
z
" id="DejaVuSans-6e" transform="scale(0.015625)"/>
       <path d="M 513 4856 
L 1013 4856 
Q 1481 4119 1714 3412 
Q 1947 2706 1947 2009 
Q 1947 1309 1714 600 
Q 1481 -109 1013 -844 
L 513 -844 
Q 928 -128 1133 580 
Q 1338 1288 1338 2009 
Q 1338 2731 1133 3434 
Q 928 4138 513 4856 
z
" id="DejaVuSans-29" transform="scale(0.015625)"/>
      </defs>
      <use xlink:href="#DejaVuSans-6c"/>
      <use x="27.783203" xlink:href="#DejaVuSans-6f"/>
      <use x="88.964844" xlink:href="#DejaVuSans-67"/>
      <use x="152.441406" xlink:href="#DejaVuSans-31"/>
      <use x="216.064453" xlink:href="#DejaVuSans-30"/>
      <use x="279.6875" xlink:href="#DejaVuSans-28"/>
      <use x="318.701172" xlink:href="#DejaVuSans-23"/>
      <use x="402.490234" xlink:href="#DejaVuSans-20"/>
      <use x="434.277344" xlink:href="#DejaVuSans-66"/>
      <use x="463.982422" xlink:href="#DejaVuSans-2d"/>
      <use x="500.066406" xlink:href="#DejaVuSans-65"/>
      <use x="561.589844" xlink:href="#DejaVuSans-76"/>
      <use x="620.769531" xlink:href="#DejaVuSans-61"/>
      <use x="682.048828" xlink:href="#DejaVuSans-6c"/>
      <use x="709.832031" xlink:href="#DejaVuSans-73"/>
      <use x="761.931641" xlink:href="#DejaVuSans-20"/>
      <use x="793.71875" xlink:href="#DejaVuSans-2f"/>
      <use x="827.410156" xlink:href="#DejaVuSans-20"/>
      <use x="859.197266" xlink:href="#DejaVuSans-64"/>
      <use x="922.673828" xlink:href="#DejaVuSans-69"/>
      <use x="950.457031" xlink:href="#DejaVuSans-6d"/>
      <use x="1047.869141" xlink:href="#DejaVuSans-65"/>
      <use x="1109.392578" xlink:href="#DejaVuSans-6e"/>
      <use x="1172.771484" xlink:href="#DejaVuSans-73"/>
      <use x="1224.871094" xlink:href="#DejaVuSans-69"/>
      <use x="1252.654297" xlink:href="#DejaVuSans-6f"/>
      <use x="1313.835938" xlink:href="#DejaVuSans-6e"/>
      <use x="1377.214844" xlink:href="#DejaVuSans-29"/>
     </g>
    </g>
   </g>
   <g id="matplotlib.axis_2">
    <g id="ytick_1">
     <g id="line2d_17">
      <path clip-path="url(#p9530a2a9d2)" d="M 57.6 298.944 
L 360.8064 298.944 
" style="fill:none;stroke:#b0b0b0;stroke-linecap:square;stroke-width:0.8;"/>
     </g>
     <g id="line2d_18">
      <defs>
       <path d="M 0 0 
L -3.5 0 
" id="md292d28f3b" style="stroke:#000000;stroke-width:0.8;"/>
      </defs>
      <g>
       <use style="stroke:#000000;stroke-width:0.8;" x="57.6" xlink:href="#md292d28f3b" y="298.944"/>
      </g>
     </g>
     <g id="text_6">
      <!-- 0.0 -->
      <g transform="translate(25.155 305.02275)scale(0.16 -0.16)">
       <defs>
        <path d="M 684 794 
L 1344 794 
L 1344 0 
L 684 0 
L 684 794 
z
" id="DejaVuSans-2e" transform="scale(0.015625)"/>
       </defs>
       <use xlink:href="#DejaVuSans-30"/>
       <use x="63.623047" xlink:href="#DejaVuSans-2e"/>
       <use x="95.410156" xlink:href="#DejaVuSans-30"/>
      </g>
     </g>
    </g>
    <g id="ytick_2">
     <g id="line2d_19">
      <path clip-path="url(#p9530a2a9d2)" d="M 57.6 240.5376 
L 360.8064 240.5376 
" style="fill:none;stroke:#b0b0b0;stroke-linecap:square;stroke-width:0.8;"/>
     </g>
     <g id="line2d_20">
      <g>
       <use style="stroke:#000000;stroke-width:0.8;" x="57.6" xlink:href="#md292d28f3b" y="240.5376"/>
      </g>
     </g>
     <g id="text_7">
      <!-- 0.2 -->
      <g transform="translate(25.155 246.61635)scale(0.16 -0.16)">
       <use xlink:href="#DejaVuSans-30"/>
       <use x="63.623047" xlink:href="#DejaVuSans-2e"/>
       <use x="95.410156" xlink:href="#DejaVuSans-32"/>
      </g>
     </g>
    </g>
    <g id="ytick_3">
     <g id="line2d_21">
      <path clip-path="url(#p9530a2a9d2)" d="M 57.6 182.1312 
L 360.8064 182.1312 
" style="fill:none;stroke:#b0b0b0;stroke-linecap:square;stroke-width:0.8;"/>
     </g>
     <g id="line2d_22">
      <g>
       <use style="stroke:#000000;stroke-width:0.8;" x="57.6" xlink:href="#md292d28f3b" y="182.1312"/>
      </g>
     </g>
     <g id="text_8">
      <!-- 0.4 -->
      <g transform="translate(25.155 188.20995)scale(0.16 -0.16)">
       <use xlink:href="#DejaVuSans-30"/>
       <use x="63.623047" xlink:href="#DejaVuSans-2e"/>
       <use x="95.410156" xlink:href="#DejaVuSans-34"/>
      </g>
     </g>
    </g>
    <g id="ytick_4">
     <g id="line2d_23">
      <path clip-path="url(#p9530a2a9d2)" d="M 57.6 123.7248 
L 360.8064 123.7248 
" style="fill:none;stroke:#b0b0b0;stroke-linecap:square;stroke-width:0.8;"/>
     </g>
     <g id="line2d_24">
      <g>
       <use style="stroke:#000000;stroke-width:0.8;" x="57.6" xlink:href="#md292d28f3b" y="123.7248"/>
      </g>
     </g>
     <g id="text_9">
      <!-- 0.6 -->
      <g transform="translate(25.155 129.80355)scale(0.16 -0.16)">
       <use xlink:href="#DejaVuSans-30"/>
       <use x="63.623047" xlink:href="#DejaVuSans-2e"/>
       <use x="95.410156" xlink:href="#DejaVuSans-36"/>
      </g>
     </g>
    </g>
    <g id="ytick_5">
     <g id="line2d_25">
      <path clip-path="url(#p9530a2a9d2)" d="M 57.6 65.3184 
L 360.8064 65.3184 
" style="fill:none;stroke:#b0b0b0;stroke-linecap:square;stroke-width:0.8;"/>
     </g>
     <g id="line2d_26">
      <g>
       <use style="stroke:#000000;stroke-width:0.8;" x="57.6" xlink:href="#md292d28f3b" y="65.3184"/>
      </g>
     </g>
     <g id="text_10">
      <!-- 0.8 -->
      <g transform="translate(25.155 71.39715)scale(0.16 -0.16)">
       <defs>
        <path d="M 2034 2216 
Q 1584 2216 1326 1975 
Q 1069 1734 1069 1313 
Q 1069 891 1326 650 
Q 1584 409 2034 409 
Q 2484 409 2743 651 
Q 3003 894 3003 1313 
Q 3003 1734 2745 1975 
Q 2488 2216 2034 2216 
z
M 1403 2484 
Q 997 2584 770 2862 
Q 544 3141 544 3541 
Q 544 4100 942 4425 
Q 1341 4750 2034 4750 
Q 2731 4750 3128 4425 
Q 3525 4100 3525 3541 
Q 3525 3141 3298 2862 
Q 3072 2584 2669 2484 
Q 3125 2378 3379 2068 
Q 3634 1759 3634 1313 
Q 3634 634 3220 271 
Q 2806 -91 2034 -91 
Q 1263 -91 848 271 
Q 434 634 434 1313 
Q 434 1759 690 2068 
Q 947 2378 1403 2484 
z
M 1172 3481 
Q 1172 3119 1398 2916 
Q 1625 2713 2034 2713 
Q 2441 2713 2670 2916 
Q 2900 3119 2900 3481 
Q 2900 3844 2670 4047 
Q 2441 4250 2034 4250 
Q 1625 4250 1398 4047 
Q 1172 3844 1172 3481 
z
" id="DejaVuSans-38" transform="scale(0.015625)"/>
       </defs>
       <use xlink:href="#DejaVuSans-30"/>
       <use x="63.623047" xlink:href="#DejaVuSans-2e"/>
       <use x="95.410156" xlink:href="#DejaVuSans-38"/>
      </g>
     </g>
    </g>
    <g id="ytick_6">
     <g id="line2d_27">
      <path clip-path="url(#p9530a2a9d2)" d="M 57.6 6.912 
L 360.8064 6.912 
" style="fill:none;stroke:#b0b0b0;stroke-linecap:square;stroke-width:0.8;"/>
     </g>
     <g id="line2d_28">
      <g>
       <use style="stroke:#000000;stroke-width:0.8;" x="57.6" xlink:href="#md292d28f3b" y="6.912"/>
      </g>
     </g>
     <g id="text_11">
      <!-- 1.0 -->
      <g transform="translate(25.155 12.99075)scale(0.16 -0.16)">
       <use xlink:href="#DejaVuSans-31"/>
       <use x="63.623047" xlink:href="#DejaVuSans-2e"/>
       <use x="95.410156" xlink:href="#DejaVuSans-30"/>
      </g>
     </g>
    </g>
    <g id="text_12">
     <!-- Fraction of function,target pairs -->
     <g transform="translate(17.619531 287.313)rotate(-90)scale(0.17 -0.17)">
      <defs>
       <path d="M 628 4666 
L 3309 4666 
L 3309 4134 
L 1259 4134 
L 1259 2759 
L 3109 2759 
L 3109 2228 
L 1259 2228 
L 1259 0 
L 628 0 
L 628 4666 
z
" id="DejaVuSans-46" transform="scale(0.015625)"/>
       <path d="M 2631 2963 
Q 2534 3019 2420 3045 
Q 2306 3072 2169 3072 
Q 1681 3072 1420 2755 
Q 1159 2438 1159 1844 
L 1159 0 
L 581 0 
L 581 3500 
L 1159 3500 
L 1159 2956 
Q 1341 3275 1631 3429 
Q 1922 3584 2338 3584 
Q 2397 3584 2469 3576 
Q 2541 3569 2628 3553 
L 2631 2963 
z
" id="DejaVuSans-72" transform="scale(0.015625)"/>
       <path d="M 3122 3366 
L 3122 2828 
Q 2878 2963 2633 3030 
Q 2388 3097 2138 3097 
Q 1578 3097 1268 2742 
Q 959 2388 959 1747 
Q 959 1106 1268 751 
Q 1578 397 2138 397 
Q 2388 397 2633 464 
Q 2878 531 3122 666 
L 3122 134 
Q 2881 22 2623 -34 
Q 2366 -91 2075 -91 
Q 1284 -91 818 406 
Q 353 903 353 1747 
Q 353 2603 823 3093 
Q 1294 3584 2113 3584 
Q 2378 3584 2631 3529 
Q 2884 3475 3122 3366 
z
" id="DejaVuSans-63" transform="scale(0.015625)"/>
       <path d="M 1172 4494 
L 1172 3500 
L 2356 3500 
L 2356 3053 
L 1172 3053 
L 1172 1153 
Q 1172 725 1289 603 
Q 1406 481 1766 481 
L 2356 481 
L 2356 0 
L 1766 0 
Q 1100 0 847 248 
Q 594 497 594 1153 
L 594 3053 
L 172 3053 
L 172 3500 
L 594 3500 
L 594 4494 
L 1172 4494 
z
" id="DejaVuSans-74" transform="scale(0.015625)"/>
       <path d="M 544 1381 
L 544 3500 
L 1119 3500 
L 1119 1403 
Q 1119 906 1312 657 
Q 1506 409 1894 409 
Q 2359 409 2629 706 
Q 2900 1003 2900 1516 
L 2900 3500 
L 3475 3500 
L 3475 0 
L 2900 0 
L 2900 538 
Q 2691 219 2414 64 
Q 2138 -91 1772 -91 
Q 1169 -91 856 284 
Q 544 659 544 1381 
z
M 1991 3584 
L 1991 3584 
z
" id="DejaVuSans-75" transform="scale(0.015625)"/>
       <path d="M 750 794 
L 1409 794 
L 1409 256 
L 897 -744 
L 494 -744 
L 750 256 
L 750 794 
z
" id="DejaVuSans-2c" transform="scale(0.015625)"/>
       <path d="M 1159 525 
L 1159 -1331 
L 581 -1331 
L 581 3500 
L 1159 3500 
L 1159 2969 
Q 1341 3281 1617 3432 
Q 1894 3584 2278 3584 
Q 2916 3584 3314 3078 
Q 3713 2572 3713 1747 
Q 3713 922 3314 415 
Q 2916 -91 2278 -91 
Q 1894 -91 1617 61 
Q 1341 213 1159 525 
z
M 3116 1747 
Q 3116 2381 2855 2742 
Q 2594 3103 2138 3103 
Q 1681 3103 1420 2742 
Q 1159 2381 1159 1747 
Q 1159 1113 1420 752 
Q 1681 391 2138 391 
Q 2594 391 2855 752 
Q 3116 1113 3116 1747 
z
" id="DejaVuSans-70" transform="scale(0.015625)"/>
      </defs>
      <use xlink:href="#DejaVuSans-46"/>
      <use x="50.269531" xlink:href="#DejaVuSans-72"/>
      <use x="91.382812" xlink:href="#DejaVuSans-61"/>
      <use x="152.662109" xlink:href="#DejaVuSans-63"/>
      <use x="207.642578" xlink:href="#DejaVuSans-74"/>
      <use x="246.851562" xlink:href="#DejaVuSans-69"/>
      <use x="274.634766" xlink:href="#DejaVuSans-6f"/>
      <use x="335.816406" xlink:href="#DejaVuSans-6e"/>
      <use x="399.195312" xlink:href="#DejaVuSans-20"/>
      <use x="430.982422" xlink:href="#DejaVuSans-6f"/>
      <use x="492.164062" xlink:href="#DejaVuSans-66"/>
      <use x="527.369141" xlink:href="#DejaVuSans-20"/>
      <use x="559.15625" xlink:href="#DejaVuSans-66"/>
      <use x="594.361328" xlink:href="#DejaVuSans-75"/>
      <use x="657.740234" xlink:href="#DejaVuSans-6e"/>
      <use x="721.119141" xlink:href="#DejaVuSans-63"/>
      <use x="776.099609" xlink:href="#DejaVuSans-74"/>
      <use x="815.308594" xlink:href="#DejaVuSans-69"/>
      <use x="843.091797" xlink:href="#DejaVuSans-6f"/>
      <use x="904.273438" xlink:href="#DejaVuSans-6e"/>
      <use x="967.652344" xlink:href="#DejaVuSans-2c"/>
      <use x="999.439453" xlink:href="#DejaVuSans-74"/>
      <use x="1038.648438" xlink:href="#DejaVuSans-61"/>
      <use x="1099.927734" xlink:href="#DejaVuSans-72"/>
      <use x="1139.291016" xlink:href="#DejaVuSans-67"/>
      <use x="1202.767578" xlink:href="#DejaVuSans-65"/>
      <use x="1264.291016" xlink:href="#DejaVuSans-74"/>
      <use x="1303.5" xlink:href="#DejaVuSans-20"/>
      <use x="1335.287109" xlink:href="#DejaVuSans-70"/>
      <use x="1398.763672" xlink:href="#DejaVuSans-61"/>
      <use x="1460.042969" xlink:href="#DejaVuSans-69"/>
      <use x="1487.826172" xlink:href="#DejaVuSans-72"/>
      <use x="1528.939453" xlink:href="#DejaVuSans-73"/>
     </g>
    </g>
   </g>
   <g id="line2d_29">
    <defs>
     <path d="M 0 1.5 
C 0.397805 1.5 0.77937 1.341951 1.06066 1.06066 
C 1.341951 0.77937 1.5 0.397805 1.5 0 
C 1.5 -0.397805 1.341951 -0.77937 1.06066 -1.06066 
C 0.77937 -1.341951 0.397805 -1.5 0 -1.5 
C -0.397805 -1.5 -0.77937 -1.341951 -1.06066 -1.06066 
C -1.341951 -0.77937 -1.5 -0.397805 -1.5 0 
C -1.5 0.397805 -1.341951 0.77937 -1.06066 1.06066 
C -0.77937 1.341951 -0.397805 1.5 0 1.5 
z
" id="m9daf335eff" style="stroke:#000080;"/>
    </defs>
    <g>
     <use style="fill:#000080;stroke:#000080;" x="266.24759" xlink:href="#m9daf335eff" y="190.147765"/>
     <use style="fill:#000080;stroke:#000080;" x="266.24759" xlink:href="#m9daf335eff" y="190.147765"/>
    </g>
   </g>
   <g id="line2d_30">
    <path d="M 44.560826 298.944 
L 44.560826 291.690918 
L 57.6 291.690918 
L 57.6 286.346541 
L 65.227428 286.346541 
L 65.227428 284.437835 
L 70.639174 284.437835 
L 70.639174 283.674353 
L 78.266603 283.674353 
L 78.266603 283.292612 
L 81.166416 283.292612 
L 81.166416 282.529129 
L 83.678349 282.529129 
L 83.678349 280.238682 
L 85.894031 280.238682 
L 85.894031 279.4752 
L 87.876026 279.4752 
L 87.876026 279.093459 
L 89.668958 279.093459 
L 89.668958 278.329976 
L 91.305777 278.329976 
L 91.305777 277.948235 
L 95.503454 277.948235 
L 95.503454 277.566494 
L 98.933205 277.566494 
L 98.933205 276.803012 
L 99.950294 276.803012 
L 99.950294 276.039529 
L 100.9152 276.039529 
L 100.9152 275.657788 
L 103.544339 275.657788 
L 103.544339 275.276047 
L 105.112877 275.276047 
L 105.112877 274.894306 
L 109.159456 274.894306 
L 109.159456 274.130824 
L 110.335561 274.130824 
L 110.335561 273.749082 
L 118.524569 273.749082 
L 118.524569 273.367341 
L 122.499621 273.367341 
L 122.499621 272.603859 
L 123.08753 272.603859 
L 123.08753 271.840376 
L 126.274549 271.840376 
L 126.274549 270.695153 
L 131.002163 270.695153 
L 131.002163 268.786447 
L 132.46399 268.786447 
L 132.46399 268.404706 
L 136.836659 268.404706 
L 136.836659 268.022965 
L 143.364242 268.022965 
L 143.364242 267.641224 
L 146.777571 267.641224 
L 146.777571 267.259482 
L 148.048032 267.259482 
L 148.048032 266.496 
L 150.492661 266.496 
L 150.492661 266.114259 
L 153.933646 266.114259 
L 153.933646 265.350776 
L 155.649849 265.350776 
L 155.752086 264.587294 
L 157.595929 264.587294 
L 157.595929 264.205553 
L 157.871225 264.205553 
L 157.871225 263.823812 
L 158.232129 263.823812 
L 158.232129 263.060329 
L 158.58624 263.060329 
L 158.58624 262.678588 
L 159.61025 262.678588 
L 159.61025 262.296847 
L 160.343261 262.296847 
L 160.343261 261.915106 
L 161.354042 261.915106 
L 161.354042 261.151624 
L 162.456597 261.151624 
L 162.456597 260.0064 
L 164.676244 260.0064 
L 164.676244 259.624659 
L 165.238758 259.624659 
L 165.238758 259.242918 
L 165.361509 259.242918 
L 165.361509 256.570729 
L 166.140442 256.570729 
L 166.140442 256.188988 
L 166.775248 256.188988 
L 166.775248 254.662024 
L 168.663377 254.662024 
L 168.714635 253.135059 
L 169.169775 253.135059 
L 169.269439 252.371576 
L 169.417952 252.371576 
L 169.417952 251.989835 
L 169.614163 251.989835 
L 169.614163 251.608094 
L 169.808349 251.608094 
L 169.808349 251.226353 
L 169.952684 251.226353 
L 169.952684 250.844612 
L 171.293632 250.844612 
L 171.293632 250.081129 
L 171.427048 250.081129 
L 171.427048 249.699388 
L 172.835373 249.699388 
L 172.835373 249.317647 
L 173.039848 249.317647 
L 173.039848 246.645459 
L 173.797195 246.645459 
L 173.797195 246.263718 
L 176.350592 246.263718 
L 176.452644 244.736753 
L 177.54013 244.736753 
L 177.54013 244.355012 
L 177.983147 244.355012 
L 177.983147 243.973271 
L 178.928497 243.973271 
L 178.928497 242.828047 
L 179.856935 242.828047 
L 179.856935 242.064565 
L 179.997952 242.064565 
L 179.997952 241.682824 
L 180.903055 241.682824 
L 180.903055 240.919341 
L 183.123199 240.919341 
L 183.123199 240.5376 
L 183.708911 240.5376 
L 183.708911 240.155859 
L 185.215526 240.155859 
L 185.215526 239.774118 
L 185.884824 239.774118 
L 185.884824 239.392376 
L 187.573796 239.392376 
L 187.573796 239.010635 
L 187.982557 239.010635 
L 187.982557 238.628894 
L 188.686043 238.628894 
L 188.686043 238.247153 
L 189.449364 238.247153 
L 189.449364 237.483671 
L 189.61861 237.483671 
L 189.61861 237.101929 
L 190.084555 237.101929 
L 190.084555 236.720188 
L 191.569409 236.720188 
L 191.569409 235.574965 
L 191.825866 235.574965 
L 191.825866 234.811482 
L 192.313929 234.811482 
L 192.313929 233.284518 
L 194.227913 233.284518 
L 194.227913 232.902776 
L 195.216871 232.902776 
L 195.216871 232.521035 
L 196.345903 232.521035 
L 196.345903 231.757553 
L 196.765378 231.757553 
L 196.765378 231.375812 
L 197.096617 231.375812 
L 197.096617 230.994071 
L 197.265685 230.994071 
L 197.265685 230.612329 
L 197.862051 230.612329 
L 197.862051 230.230588 
L 198.471688 230.230588 
L 198.471688 229.848847 
L 199.062187 229.848847 
L 199.062187 228.321882 
L 199.48573 228.321882 
L 199.515621 227.176659 
L 199.72354 227.176659 
L 199.72354 226.794918 
L 200.447894 226.794918 
L 200.447894 226.413176 
L 203.356503 226.413176 
L 203.356503 226.031435 
L 204.574377 226.031435 
L 204.574377 224.122729 
L 208.928891 224.122729 
L 208.928891 223.740988 
L 209.807434 223.740988 
L 209.807434 222.595765 
L 211.675889 222.595765 
L 211.675889 221.450541 
L 212.362163 221.450541 
L 212.362163 220.687059 
L 212.646662 220.687059 
L 212.646662 220.305318 
L 212.926923 220.305318 
L 212.926923 219.923576 
L 213.130792 219.923576 
L 213.14527 218.396612 
L 213.602774 218.396612 
L 213.602774 218.014871 
L 215.104336 218.014871 
L 215.104336 217.251388 
L 215.766332 217.251388 
L 215.766332 216.487906 
L 218.129483 216.487906 
L 218.129483 216.106165 
L 218.947899 216.106165 
L 218.947899 215.342682 
L 220.274916 215.342682 
L 220.274916 214.5792 
L 220.637946 214.5792 
L 220.637946 214.197459 
L 220.821679 214.197459 
L 220.821679 213.815718 
L 221.032205 213.815718 
L 221.032205 212.670494 
L 222.280837 212.670494 
L 222.280837 212.288753 
L 222.735386 212.288753 
L 222.735386 211.143529 
L 224.514485 211.143529 
L 224.514485 210.761788 
L 224.988215 210.761788 
L 224.988215 209.616565 
L 225.959996 209.616565 
L 225.959996 209.234824 
L 226.365678 209.234824 
L 226.465746 208.0896 
L 226.52269 208.0896 
L 226.52269 207.707859 
L 227.809099 207.707859 
L 227.809099 206.562635 
L 229.011065 206.562635 
L 229.011065 206.180894 
L 229.553193 206.180894 
L 229.553193 205.799153 
L 230.722024 205.799153 
L 230.722024 205.417412 
L 231.521571 205.417412 
L 231.521571 205.035671 
L 231.801 205.035671 
L 231.801 204.653929 
L 234.190743 204.653929 
L 234.190743 204.272188 
L 234.34612 204.272188 
L 234.34612 203.890447 
L 235.760793 203.890447 
L 235.760793 203.508706 
L 237.11834 203.508706 
L 237.150685 202.745224 
L 237.892604 202.745224 
L 237.892604 201.981741 
L 239.601504 201.981741 
L 239.651084 200.836518 
L 239.767438 200.836518 
L 239.767438 200.454776 
L 240.152461 200.454776 
L 240.152461 199.691294 
L 240.329552 199.691294 
L 240.329552 199.309553 
L 241.246153 199.309553 
L 241.246153 198.164329 
L 241.661764 198.164329 
L 241.661764 197.782588 
L 243.730379 197.782588 
L 243.730379 197.400847 
L 245.645391 197.400847 
L 245.645391 197.019106 
L 246.852253 197.019106 
L 246.852253 196.637365 
L 247.326982 196.637365 
L 247.326982 195.873882 
L 248.726975 195.873882 
L 248.726975 195.492141 
L 248.840156 195.492141 
L 248.840156 195.1104 
L 250.306978 195.1104 
L 250.306978 194.728659 
L 251.544012 194.728659 
L 251.544012 194.346918 
L 252.762917 194.346918 
L 252.762917 193.965176 
L 253.920882 193.965176 
L 253.920882 193.583435 
L 254.986655 193.583435 
L 254.986655 193.201694 
L 255.929884 193.201694 
L 255.929884 192.819953 
L 256.87626 192.819953 
L 256.87626 192.438212 
L 257.801571 192.438212 
L 257.801571 192.056471 
L 259.611791 192.056471 
L 259.611791 191.674729 
L 261.184359 191.674729 
L 261.184359 191.292988 
L 265.176273 191.292988 
L 265.176273 190.911247 
L 265.776678 190.911247 
L 265.776678 190.529506 
L 266.24759 190.529506 
L 266.24759 190.147765 
L 360.8064 190.147765 
L 360.8064 190.147765 
" style="fill:none;stroke:#000080;stroke-linecap:square;stroke-width:1.5;"/>
   </g>
   <g id="line2d_31">
    <defs>
     <path d="M 0 6 
C 1.591219 6 3.117479 5.367802 4.242641 4.242641 
C 5.367802 3.117479 6 1.591219 6 0 
C 6 -1.591219 5.367802 -3.117479 4.242641 -4.242641 
C 3.117479 -5.367802 1.591219 -6 0 -6 
C -1.591219 -6 -3.117479 -5.367802 -4.242641 -4.242641 
C -5.367802 -3.117479 -6 -1.591219 -6 0 
C -6 1.591219 -5.367802 3.117479 -4.242641 4.242641 
C -3.117479 5.367802 -1.591219 6 0 6 
z
" id="m245b5ab5aa" style="stroke:#000080;stroke-width:1.5;"/>
    </defs>
    <g>
     <use style="fill-opacity:0;stroke:#000080;stroke-width:1.5;" x="150.492661" xlink:href="#m245b5ab5aa" y="266.114259"/>
     <use style="fill-opacity:0;stroke:#000080;stroke-width:1.5;" x="203.356503" xlink:href="#m245b5ab5aa" y="226.031435"/>
     <use style="fill-opacity:0;stroke:#000080;stroke-width:1.5;" x="239.601504" xlink:href="#m245b5ab5aa" y="201.6"/>
     <use style="fill-opacity:0;stroke:#000080;stroke-width:1.5;" x="266.24759" xlink:href="#m245b5ab5aa" y="190.147765"/>
     <use style="fill-opacity:0;stroke:#000080;stroke-width:1.5;" x="266.24759" xlink:href="#m245b5ab5aa" y="190.147765"/>
     <use style="fill-opacity:0;stroke:#000080;stroke-width:1.5;" x="360.8064" xlink:href="#m245b5ab5aa" y="190.147765"/>
    </g>
   </g>
   <g id="line2d_32">
    <path style="fill:none;stroke:#000080;stroke-linecap:square;stroke-width:1.5;"/>
    <g/>
   </g>
   <g id="line2d_33">
    <path clip-path="url(#p9530a2a9d2)" d="M 200.678598 226.413176 
" style="fill:none;stroke:#000080;stroke-linecap:square;stroke-width:1.5;"/>
    <defs>
     <path d="M -12 12 
L 12 -12 
M -12 -12 
L 12 12 
" id="mf9ac712af8" style="stroke:#000080;"/>
    </defs>
    <g clip-path="url(#p9530a2a9d2)">
     <use style="fill:#000080;stroke:#000080;" x="200.678598" xlink:href="#mf9ac712af8" y="226.413176"/>
    </g>
   </g>
   <g id="line2d_34">
    <defs>
     <path d="M 0 1.5 
C 0.397805 1.5 0.77937 1.341951 1.06066 1.06066 
C 1.341951 0.77937 1.5 0.397805 1.5 0 
C 1.5 -0.397805 1.341951 -0.77937 1.06066 -1.06066 
C 0.77937 -1.341951 0.397805 -1.5 0 -1.5 
C -0.397805 -1.5 -0.77937 -1.341951 -1.06066 -1.06066 
C -1.341951 -0.77937 -1.5 -0.397805 -1.5 0 
C -1.5 0.397805 -1.341951 0.77937 -1.06066 1.06066 
C -0.77937 1.341951 -0.397805 1.5 0 1.5 
z
" id="m7c0cf2c837" style="stroke:#ff00ff;"/>
    </defs>
    <g>
     <use style="fill:#ff00ff;stroke:#ff00ff;" x="288.160071" xlink:href="#m7c0cf2c837" y="132.886588"/>
     <use style="fill:#ff00ff;stroke:#ff00ff;" x="288.160071" xlink:href="#m7c0cf2c837" y="132.886588"/>
    </g>
   </g>
   <g id="line2d_35">
    <path d="M 44.560826 298.944 
L 44.560826 289.400471 
L 57.6 289.400471 
L 57.6 285.583059 
L 65.227428 285.583059 
L 65.227428 280.620424 
L 70.639174 280.620424 
L 70.639174 275.657788 
L 78.266603 275.657788 
L 78.266603 271.076894 
L 81.166416 271.076894 
L 81.166416 266.496 
L 83.678349 266.496 
L 83.678349 265.732518 
L 87.876026 265.732518 
L 87.876026 262.296847 
L 99.950294 262.296847 
L 99.950294 261.151624 
L 110.335561 261.151624 
L 110.335561 260.769882 
L 114.418881 260.769882 
L 114.418881 260.0064 
L 119.24818 260.0064 
L 119.24818 259.624659 
L 119.944983 259.624659 
L 119.944983 257.334212 
L 121.892744 257.334212 
L 121.892744 256.570729 
L 122.499621 256.570729 
L 122.499621 254.280282 
L 125.779479 254.280282 
L 125.779479 253.898541 
L 128.57149 253.898541 
L 128.57149 253.135059 
L 128.999044 253.135059 
L 128.999044 252.371576 
L 138.438609 252.371576 
L 138.438609 251.608094 
L 139.914782 251.608094 
L 139.914782 251.226353 
L 140.611586 251.226353 
L 140.611586 250.462871 
L 144.324223 250.462871 
L 144.324223 247.790682 
L 145.058426 247.790682 
L 145.058426 247.0272 
L 146.108646 247.0272 
L 146.108646 246.263718 
L 146.446082 246.263718 
L 146.446082 244.736753 
L 146.612557 244.736753 
L 146.612557 244.355012 
L 149.524205 244.355012 
L 149.524205 243.209788 
L 150.892922 243.209788 
L 150.892922 239.010635 
L 151.668766 239.010635 
L 151.668766 237.483671 
L 152.775647 237.483671 
L 152.775647 235.956706 
L 152.894708 235.956706 
L 152.894708 235.574965 
L 155.547053 235.574965 
L 155.547053 234.429741 
L 157.688143 234.429741 
L 157.688143 233.666259 
L 159.857774 233.666259 
L 159.857774 232.521035 
L 162.31327 232.521035 
L 162.31327 232.139294 
L 164.2268 232.139294 
L 164.2268 231.757553 
L 164.739583 231.757553 
L 164.739583 229.467106 
L 166.199045 229.467106 
L 166.199045 228.321882 
L 166.661411 228.321882 
L 166.661411 227.940141 
L 167.334325 227.940141 
L 167.334325 226.413176 
L 167.607754 226.413176 
L 167.607754 226.031435 
L 168.560441 226.031435 
L 168.560441 225.267953 
L 172.670177 225.267953 
L 172.670177 224.886212 
L 173.758086 224.886212 
L 173.758086 223.359247 
L 175.620293 223.359247 
L 175.620293 222.977506 
L 177.951847 222.977506 
L 177.951847 222.214024 
L 180.054064 222.214024 
L 180.054064 221.832282 
L 180.633351 221.832282 
L 180.633351 221.0688 
L 181.431133 221.0688 
L 181.431133 219.923576 
L 187.964168 219.923576 
L 187.964168 218.396612 
L 188.472374 218.396612 
L 188.472374 217.633129 
L 189.071575 217.633129 
L 189.071575 217.251388 
L 189.719432 217.251388 
L 189.719432 216.487906 
L 190.683081 216.487906 
L 190.714898 211.907012 
L 191.930458 211.907012 
L 191.975105 208.471341 
L 192.211453 208.471341 
L 192.211453 206.944376 
L 192.803878 206.944376 
L 192.803878 206.562635 
L 195.453106 206.562635 
L 195.453106 205.799153 
L 195.844391 205.799153 
L 195.844391 205.417412 
L 196.730777 205.417412 
L 196.730777 203.890447 
L 197.164426 203.890447 
L 197.164426 203.126965 
L 198.323773 203.126965 
L 198.408438 199.691294 
L 198.513737 199.691294 
L 198.513737 198.927812 
L 198.939403 198.927812 
L 198.939403 195.873882 
L 199.674244 195.873882 
L 199.674244 195.1104 
L 200.381455 195.1104 
L 200.447894 193.201694 
L 201.9671 193.201694 
L 201.9671 192.438212 
L 203.275156 192.438212 
L 203.275156 192.056471 
L 204.710831 192.056471 
L 204.710831 191.674729 
L 209.376238 191.674729 
L 209.376238 191.292988 
L 209.847715 191.292988 
L 209.956618 187.857318 
L 212.616917 187.857318 
L 212.616917 185.948612 
L 212.868267 185.948612 
L 212.868267 184.421647 
L 213.569788 184.421647 
L 213.574504 183.276424 
L 214.373053 183.276424 
L 214.373053 182.512941 
L 218.564854 182.512941 
L 218.572085 180.604235 
L 218.855538 180.604235 
L 218.859099 179.077271 
L 220.618501 179.077271 
L 220.650898 177.550306 
L 220.783147 177.550306 
L 220.783147 176.405082 
L 221.016338 176.405082 
L 221.016338 176.023341 
L 221.249809 176.023341 
L 221.249809 175.6416 
L 221.784581 175.6416 
L 221.784581 175.259859 
L 224.921265 175.259859 
L 224.923845 172.205929 
L 226.214571 172.205929 
L 226.238637 170.297224 
L 226.510841 170.297224 
L 226.510841 169.915482 
L 227.08744 169.915482 
L 227.08744 169.533741 
L 228.265914 169.533741 
L 228.265914 169.152 
L 230.521981 169.152 
L 230.521981 168.770259 
L 230.757997 168.770259 
L 230.757997 168.388518 
L 232.171325 168.388518 
L 232.171325 168.006776 
L 233.182364 168.006776 
L 233.182364 166.479812 
L 234.105447 166.479812 
L 234.105447 166.098071 
L 234.605348 166.098071 
L 234.605348 165.716329 
L 236.257256 165.716329 
L 236.258668 164.952847 
L 236.989762 164.952847 
L 237.045362 163.807624 
L 237.473752 163.807624 
L 237.473752 163.044141 
L 238.900663 163.044141 
L 238.90189 160.753694 
L 239.526888 160.753694 
L 239.526888 160.371953 
L 240.565731 160.371953 
L 240.565731 159.608471 
L 241.217971 159.608471 
L 241.217971 159.226729 
L 241.772675 159.226729 
L 241.826312 158.081506 
L 241.90282 158.081506 
L 241.90282 157.699765 
L 242.697439 157.699765 
L 242.697439 157.318024 
L 243.280874 157.318024 
L 243.281846 156.1728 
L 243.77872 156.1728 
L 243.826938 155.409318 
L 243.895741 155.409318 
L 243.895741 155.027576 
L 245.139746 155.027576 
L 245.140626 154.264094 
L 245.591307 154.264094 
L 245.591307 153.882353 
L 245.907583 153.882353 
L 245.907583 153.500612 
L 246.832143 153.500612 
L 246.832143 152.737129 
L 248.384029 152.737129 
L 248.384029 151.973647 
L 249.406597 151.973647 
L 249.406597 151.591906 
L 249.81759 151.591906 
L 249.81759 151.210165 
L 251.149598 151.210165 
L 251.149598 150.446682 
L 251.555912 150.446682 
L 251.555912 150.064941 
L 251.709927 150.064941 
L 251.709927 149.6832 
L 252.035599 149.6832 
L 252.035599 149.301459 
L 252.392894 149.301459 
L 252.393493 147.774494 
L 253.560214 147.774494 
L 253.560214 147.392753 
L 254.658249 147.392753 
L 254.65878 145.865788 
L 255.696213 145.865788 
L 255.696213 145.484047 
L 256.395958 145.484047 
L 256.395958 145.102306 
L 256.679887 145.102306 
L 256.680364 143.957082 
L 256.925741 143.957082 
L 256.925741 143.575341 
L 257.614671 143.575341 
L 257.615125 142.811859 
L 258.505626 142.811859 
L 258.505626 142.048376 
L 259.355872 142.048376 
L 259.355872 141.666635 
L 260.168949 141.666635 
L 260.169345 139.757929 
L 260.949093 139.757929 
L 260.949093 138.994447 
L 261.697438 138.994447 
L 261.697803 137.849224 
L 266.80802 137.849224 
L 266.80802 137.467482 
L 267.359534 137.467482 
L 267.359534 137.085741 
L 268.415536 137.085741 
L 268.415791 136.322259 
L 269.415638 136.322259 
L 269.415638 135.940518 
L 269.896433 135.940518 
L 269.896433 135.558776 
L 270.365244 135.558776 
L 270.365244 135.177035 
L 271.705622 135.177035 
L 271.705622 134.795294 
L 272.956612 134.795294 
L 272.956612 134.413553 
L 276.276538 134.413553 
L 276.276538 134.031812 
L 276.940828 134.031812 
L 276.940828 133.650071 
L 281.803742 133.650071 
L 281.803742 133.268329 
L 288.160071 133.268329 
L 288.160071 132.886588 
L 360.8064 132.886588 
L 360.8064 132.886588 
" style="fill:none;stroke:#ff00ff;stroke-linecap:square;stroke-width:1.5;"/>
   </g>
   <g id="line2d_36">
    <defs>
     <path d="M -0 8.485281 
L 5.091169 0 
L 0 -8.485281 
L -5.091169 -0 
z
" id="m3a845c13df" style="stroke:#ff00ff;stroke-linejoin:miter;stroke-width:1.5;"/>
    </defs>
    <g>
     <use style="fill-opacity:0;stroke:#ff00ff;stroke-linejoin:miter;stroke-width:1.5;" x="140.611586" xlink:href="#m3a845c13df" y="250.462871"/>
     <use style="fill-opacity:0;stroke:#ff00ff;stroke-linejoin:miter;stroke-width:1.5;" x="209.956618" xlink:href="#m3a845c13df" y="188.239059"/>
     <use style="fill-opacity:0;stroke:#ff00ff;stroke-linejoin:miter;stroke-width:1.5;" x="276.940828" xlink:href="#m3a845c13df" y="134.031812"/>
     <use style="fill-opacity:0;stroke:#ff00ff;stroke-linejoin:miter;stroke-width:1.5;" x="288.160071" xlink:href="#m3a845c13df" y="132.886588"/>
     <use style="fill-opacity:0;stroke:#ff00ff;stroke-linejoin:miter;stroke-width:1.5;" x="288.160071" xlink:href="#m3a845c13df" y="132.886588"/>
     <use style="fill-opacity:0;stroke:#ff00ff;stroke-linejoin:miter;stroke-width:1.5;" x="360.8064" xlink:href="#m3a845c13df" y="132.886588"/>
    </g>
   </g>
   <g id="line2d_37">
    <path style="fill:none;stroke:#ff00ff;stroke-linecap:square;stroke-width:1.5;"/>
    <g/>
   </g>
   <g id="line2d_38">
    <path clip-path="url(#p9530a2a9d2)" d="M 200.678598 193.201694 
" style="fill:none;stroke:#ff00ff;stroke-linecap:square;stroke-width:1.5;"/>
    <defs>
     <path d="M -12 12 
L 12 -12 
M -12 -12 
L 12 12 
" id="m493f89107c" style="stroke:#ff00ff;"/>
    </defs>
    <g clip-path="url(#p9530a2a9d2)">
     <use style="fill:#ff00ff;stroke:#ff00ff;" x="200.678598" xlink:href="#m493f89107c" y="193.201694"/>
    </g>
   </g>
   <g id="line2d_39">
    <defs>
     <path d="M 0 1.5 
C 0.397805 1.5 0.77937 1.341951 1.06066 1.06066 
C 1.341951 0.77937 1.5 0.397805 1.5 0 
C 1.5 -0.397805 1.341951 -0.77937 1.06066 -1.06066 
C 0.77937 -1.341951 0.397805 -1.5 0 -1.5 
C -0.397805 -1.5 -0.77937 -1.341951 -1.06066 -1.06066 
C -1.341951 -0.77937 -1.5 -0.397805 -1.5 0 
C -1.5 0.397805 -1.341951 0.77937 -1.06066 1.06066 
C -0.77937 1.341951 -0.397805 1.5 0 1.5 
z
" id="mdbf684f5c8" style="stroke:#ff7500;"/>
    </defs>
    <g>
     <use style="fill:#ff7500;stroke:#ff7500;" x="274.595396" xlink:href="#mdbf684f5c8" y="127.160471"/>
     <use style="fill:#ff7500;stroke:#ff7500;" x="274.595396" xlink:href="#mdbf684f5c8" y="127.160471"/>
    </g>
   </g>
   <g id="line2d_40">
    <path d="M 44.560826 298.944 
L 44.560826 275.657788 
L 57.6 275.657788 
L 57.6 271.076894 
L 65.227428 271.076894 
L 65.227428 267.259482 
L 70.639174 267.259482 
L 70.639174 265.350776 
L 74.836851 265.350776 
L 74.836851 263.442071 
L 78.266603 263.442071 
L 78.266603 262.678588 
L 81.166416 262.678588 
L 81.166416 261.533365 
L 83.678349 261.533365 
L 83.678349 260.769882 
L 85.894031 260.769882 
L 85.894031 260.0064 
L 87.876026 260.0064 
L 87.876026 259.242918 
L 89.668958 259.242918 
L 89.668958 258.097694 
L 91.305777 258.097694 
L 91.305777 256.570729 
L 94.205591 256.570729 
L 94.205591 255.043765 
L 96.717523 255.043765 
L 96.717523 254.662024 
L 98.933205 254.662024 
L 98.933205 253.5168 
L 109.159456 253.5168 
L 109.159456 253.135059 
L 113.478107 253.135059 
L 113.478107 252.753318 
L 121.892744 252.753318 
L 121.892744 251.989835 
L 126.274549 251.989835 
L 126.274549 251.608094 
L 130.226319 251.608094 
L 130.226319 250.462871 
L 134.463557 250.462871 
L 134.463557 249.317647 
L 135.085483 249.317647 
L 135.085483 248.554165 
L 135.687504 248.554165 
L 135.687504 247.790682 
L 137.654681 247.790682 
L 137.654681 247.0272 
L 139.435481 247.0272 
L 139.435481 246.263718 
L 140.611586 246.263718 
L 140.611586 245.881976 
L 140.838234 245.881976 
L 140.838234 245.500235 
L 142.352625 245.500235 
L 142.352625 245.118494 
L 143.364242 245.118494 
L 143.364242 244.736753 
L 144.694906 244.736753 
L 144.694906 244.355012 
L 146.108646 244.355012 
L 146.108646 243.591529 
L 150.221009 243.591529 
L 150.221009 242.064565 
L 151.795018 242.064565 
L 151.795018 241.301082 
L 152.045009 241.301082 
L 152.045009 239.774118 
L 153.247435 239.774118 
L 153.247435 238.247153 
L 154.595705 238.247153 
L 154.703817 237.101929 
L 154.918196 237.101929 
L 154.918196 236.720188 
L 157.127956 236.720188 
L 157.127956 236.338447 
L 157.962102 236.338447 
L 157.962102 235.193224 
L 159.527013 235.193224 
L 159.527013 234.048 
L 161.278189 234.048 
L 161.354042 232.902776 
L 162.456597 232.902776 
L 162.456597 231.757553 
L 162.66956 231.757553 
L 162.66956 231.375812 
L 164.356312 231.375812 
L 164.356312 230.994071 
L 164.990826 230.994071 
L 164.990826 229.848847 
L 167.056864 229.848847 
L 167.056864 229.467106 
L 167.38933 229.467106 
L 167.38933 228.703624 
L 167.823671 228.703624 
L 167.823671 228.321882 
L 169.417952 228.321882 
L 169.516314 226.794918 
L 169.904695 226.794918 
L 169.904695 226.031435 
L 170.332249 226.031435 
L 170.332249 225.267953 
L 171.159263 225.267953 
L 171.159263 224.886212 
L 171.603476 224.886212 
L 171.603476 224.504471 
L 171.73472 224.504471 
L 171.82171 223.359247 
L 172.711612 223.359247 
L 172.794209 222.214024 
L 174.712223 222.214024 
L 174.712223 221.832282 
L 175.15357 221.832282 
L 175.15357 221.450541 
L 175.936756 221.450541 
L 175.936756 220.687059 
L 176.418689 220.687059 
L 176.418689 219.923576 
L 177.347024 219.923576 
L 177.347024 219.541835 
L 177.572122 219.541835 
L 177.635944 218.014871 
L 177.731273 218.014871 
L 177.731273 217.633129 
L 177.951847 217.633129 
L 177.951847 217.251388 
L 178.262532 217.251388 
L 178.262532 216.869647 
L 178.537828 216.869647 
L 178.537828 216.487906 
L 178.719145 216.487906 
L 178.719145 216.106165 
L 179.542926 216.106165 
L 179.542926 215.724424 
L 180.221402 215.724424 
L 180.221402 214.960941 
L 180.359723 214.960941 
L 180.359723 214.197459 
L 180.524377 214.197459 
L 180.524377 213.433976 
L 180.903055 213.433976 
L 180.956535 212.670494 
L 181.638283 212.670494 
L 181.638283 212.288753 
L 182.46945 212.288753 
L 182.46945 210.761788 
L 182.689901 210.761788 
L 182.689901 210.380047 
L 183.027769 210.380047 
L 183.051672 208.853082 
L 183.24181 208.853082 
L 183.336163 206.180894 
L 183.383162 206.180894 
L 183.383162 205.035671 
L 183.593219 205.035671 
L 183.593219 204.653929 
L 184.006424 204.653929 
L 184.006424 204.272188 
L 184.142166 204.272188 
L 184.187197 202.745224 
L 184.366249 202.745224 
L 184.366249 201.981741 
L 184.697447 201.981741 
L 184.697447 200.454776 
L 185.678215 200.454776 
L 185.740436 198.927812 
L 185.802452 198.927812 
L 185.843683 197.019106 
L 186.089188 197.019106 
L 186.089188 196.255624 
L 186.943502 196.255624 
L 186.943502 195.492141 
L 187.460757 195.492141 
L 187.460757 195.1104 
L 187.64878 195.1104 
L 187.742092 193.201694 
L 187.779287 193.201694 
L 187.779287 191.292988 
L 188.037615 191.292988 
L 188.037615 190.911247 
L 188.66833 190.911247 
L 188.66833 190.529506 
L 189.036852 190.529506 
L 189.140831 189.002541 
L 189.652278 189.002541 
L 189.685885 187.857318 
L 189.786347 187.857318 
L 189.786347 187.475576 
L 190.100984 187.475576 
L 190.166558 185.566871 
L 190.762522 185.566871 
L 190.762522 184.421647 
L 191.045763 184.421647 
L 191.045763 184.039906 
L 191.278582 184.039906 
L 191.370909 183.276424 
L 191.810877 183.276424 
L 191.810877 182.1312 
L 192.182072 182.1312 
L 192.196768 179.840753 
L 192.945585 179.840753 
L 192.945585 179.077271 
L 193.211923 179.077271 
L 193.225837 178.313788 
L 193.392006 178.313788 
L 193.392006 177.932047 
L 193.665733 177.932047 
L 193.665733 177.550306 
L 193.935534 177.550306 
L 193.948923 176.023341 
L 194.372416 176.023341 
L 194.424688 174.114635 
L 194.722468 174.114635 
L 194.799381 172.587671 
L 194.863236 172.587671 
L 194.863236 172.205929 
L 195.129083 172.205929 
L 195.129083 171.824188 
L 195.266852 171.824188 
L 195.354 170.297224 
L 195.514783 170.297224 
L 195.514783 169.915482 
L 195.637534 169.915482 
L 195.735162 168.006776 
L 196.545154 168.006776 
L 196.568458 166.479812 
L 197.321705 166.479812 
L 197.321705 165.716329 
L 197.927161 165.716329 
L 197.927161 164.952847 
L 198.078216 164.952847 
L 198.15329 162.6624 
L 198.260023 162.6624 
L 198.270663 161.898918 
L 198.429545 161.898918 
L 198.534726 158.844988 
L 198.805475 158.844988 
L 198.908581 158.081506 
L 199.505663 158.081506 
L 199.565335 155.409318 
L 199.772708 155.409318 
L 199.802147 154.645835 
L 199.987532 154.645835 
L 199.987532 154.264094 
L 200.457366 154.264094 
L 200.457366 151.973647 
L 209.405686 151.973647 
L 209.405686 151.591906 
L 210.352487 151.591906 
L 210.352487 151.210165 
L 210.827705 151.210165 
L 210.827705 150.828424 
L 211.006916 150.828424 
L 211.006916 150.446682 
L 212.392314 150.446682 
L 212.497462 149.301459 
L 212.676361 149.301459 
L 212.676361 148.537976 
L 213.140445 148.537976 
L 213.159736 146.629271 
L 213.27028 146.629271 
L 213.27028 146.247529 
L 213.607482 146.247529 
L 213.607482 145.484047 
L 217.917321 145.484047 
L 217.917321 145.102306 
L 219.468631 145.102306 
L 219.468631 144.720565 
L 219.582037 144.720565 
L 219.582037 144.338824 
L 219.810203 144.338824 
L 219.810203 143.957082 
L 220.472018 143.957082 
L 220.530748 143.1936 
L 221.271745 143.1936 
L 221.271745 142.430118 
L 224.246351 142.430118 
L 224.246351 142.048376 
L 225.36736 142.048376 
L 225.450308 140.521412 
L 226.105889 140.521412 
L 226.156685 138.994447 
L 226.470498 138.994447 
L 226.470498 138.230965 
L 226.701882 138.230965 
L 226.701882 137.849224 
L 230.475956 137.849224 
L 230.475956 137.467482 
L 233.469481 137.467482 
L 233.469481 137.085741 
L 233.981556 137.085741 
L 233.981556 136.704 
L 236.939446 136.704 
L 236.939446 136.322259 
L 239.154144 136.322259 
L 239.154144 135.940518 
L 241.744218 135.940518 
L 241.744218 135.177035 
L 245.568081 135.177035 
L 245.568081 134.413553 
L 247.223218 134.413553 
L 247.223218 133.268329 
L 250.151781 133.268329 
L 250.151781 132.886588 
L 251.461132 132.886588 
L 251.461132 132.504847 
L 252.685248 132.504847 
L 252.685248 131.741365 
L 253.83455 131.741365 
L 253.83455 131.359624 
L 254.917661 131.359624 
L 254.917661 130.977882 
L 257.836577 130.977882 
L 257.836577 130.2144 
L 258.716898 130.2144 
L 258.716898 129.450918 
L 261.134756 129.450918 
L 261.134756 128.687435 
L 262.589633 128.687435 
L 262.589633 128.305694 
L 266.944452 128.305694 
L 266.944452 127.923953 
L 267.491769 127.923953 
L 267.491769 127.542212 
L 274.595396 127.542212 
L 274.595396 127.160471 
L 360.8064 127.160471 
L 360.8064 127.160471 
" style="fill:none;stroke:#ff7500;stroke-linecap:square;stroke-width:1.5;"/>
   </g>
   <g id="line2d_41">
    <defs>
     <path d="M 0 -6 
L -1.347084 -1.854102 
L -5.706339 -1.854102 
L -2.179628 0.708204 
L -3.526712 4.854102 
L -0 2.291796 
L 3.526712 4.854102 
L 2.179628 0.708204 
L 5.706339 -1.854102 
L 1.347084 -1.854102 
z
" id="mf4258be4e5" style="stroke:#ff7500;stroke-linejoin:bevel;stroke-width:1.5;"/>
    </defs>
    <g>
     <use style="fill-opacity:0;stroke:#ff7500;stroke-linejoin:bevel;stroke-width:1.5;" x="113.478107" xlink:href="#mf4258be4e5" y="252.753318"/>
     <use style="fill-opacity:0;stroke:#ff7500;stroke-linejoin:bevel;stroke-width:1.5;" x="182.46945" xlink:href="#mf4258be4e5" y="210.761788"/>
     <use style="fill-opacity:0;stroke:#ff7500;stroke-linejoin:bevel;stroke-width:1.5;" x="230.475956" xlink:href="#mf4258be4e5" y="137.849224"/>
     <use style="fill-opacity:0;stroke:#ff7500;stroke-linejoin:bevel;stroke-width:1.5;" x="274.595396" xlink:href="#mf4258be4e5" y="127.160471"/>
     <use style="fill-opacity:0;stroke:#ff7500;stroke-linejoin:bevel;stroke-width:1.5;" x="274.595396" xlink:href="#mf4258be4e5" y="127.160471"/>
     <use style="fill-opacity:0;stroke:#ff7500;stroke-linejoin:bevel;stroke-width:1.5;" x="360.8064" xlink:href="#mf4258be4e5" y="127.160471"/>
    </g>
   </g>
   <g id="line2d_42">
    <path style="fill:none;stroke:#ff7500;stroke-linecap:square;stroke-width:1.5;"/>
    <g/>
   </g>
   <g id="line2d_43">
    <path clip-path="url(#p9530a2a9d2)" d="M 200.678598 151.973647 
" style="fill:none;stroke:#ff7500;stroke-linecap:square;stroke-width:1.5;"/>
    <defs>
     <path d="M -12 12 
L 12 -12 
M -12 -12 
L 12 12 
" id="m1b6991fdf4" style="stroke:#ff7500;"/>
    </defs>
    <g clip-path="url(#p9530a2a9d2)">
     <use style="fill:#ff7500;stroke:#ff7500;" x="200.678598" xlink:href="#m1b6991fdf4" y="151.973647"/>
    </g>
   </g>
   <g id="line2d_44">
    <defs>
     <path d="M 0 1.5 
C 0.397805 1.5 0.77937 1.341951 1.06066 1.06066 
C 1.341951 0.77937 1.5 0.397805 1.5 0 
C 1.5 -0.397805 1.341951 -0.77937 1.06066 -1.06066 
C 0.77937 -1.341951 0.397805 -1.5 0 -1.5 
C -0.397805 -1.5 -0.77937 -1.341951 -1.06066 -1.06066 
C -1.341951 -0.77937 -1.5 -0.397805 -1.5 0 
C -1.5 0.397805 -1.341951 0.77937 -1.06066 1.06066 
C -0.77937 1.341951 -0.397805 1.5 0 1.5 
z
" id="m2e6f5339cd" style="stroke:#6495ed;"/>
    </defs>
    <g>
     <use style="fill:#6495ed;stroke:#6495ed;" x="268.604178" xlink:href="#m2e6f5339cd" y="178.695529"/>
     <use style="fill:#6495ed;stroke:#6495ed;" x="268.604178" xlink:href="#m2e6f5339cd" y="178.695529"/>
    </g>
   </g>
   <g id="line2d_45">
    <path d="M 44.560826 298.944 
L 44.560826 297.417035 
L 57.6 297.417035 
L 57.6 293.599624 
L 65.227428 293.599624 
L 65.227428 290.163953 
L 70.639174 290.163953 
L 70.639174 288.636988 
L 74.836851 288.636988 
L 74.836851 286.346541 
L 78.266603 286.346541 
L 78.266603 284.056094 
L 81.166416 284.056094 
L 81.166416 283.674353 
L 83.678349 283.674353 
L 83.678349 280.620424 
L 85.894031 280.620424 
L 85.894031 279.856941 
L 87.876026 279.856941 
L 87.876026 276.421271 
L 89.668958 276.421271 
L 89.668958 274.512565 
L 91.305777 274.512565 
L 91.305777 273.367341 
L 92.811505 273.367341 
L 92.811505 272.9856 
L 95.503454 272.9856 
L 95.503454 272.603859 
L 96.717523 272.603859 
L 96.717523 270.313412 
L 98.933205 270.313412 
L 98.933205 269.931671 
L 101.833019 269.931671 
L 101.833019 269.549929 
L 107.904887 269.549929 
L 107.904887 269.168188 
L 112.487797 269.168188 
L 112.487797 268.022965 
L 119.944983 268.022965 
L 119.944983 267.259482 
L 122.499621 267.259482 
L 122.499621 266.496 
L 123.657621 266.496 
L 123.657621 266.114259 
L 124.210942 266.114259 
L 124.210942 265.350776 
L 130.618241 265.350776 
L 130.618241 263.823812 
L 134.77709 263.823812 
L 134.77709 263.060329 
L 136.270855 263.060329 
L 136.270855 262.678588 
L 138.438609 262.678588 
L 138.438609 261.533365 
L 138.692823 261.533365 
L 138.692823 260.769882 
L 139.435481 260.769882 
L 139.435481 260.388141 
L 140.838234 260.388141 
L 140.838234 259.242918 
L 142.763822 259.242918 
L 142.763822 258.479435 
L 144.136106 258.479435 
L 144.136106 255.425506 
L 144.694906 255.425506 
L 144.694906 255.043765 
L 147.264104 255.043765 
L 147.264104 254.662024 
L 148.200973 254.662024 
L 148.200973 252.753318 
L 149.945377 252.753318 
L 149.945377 250.462871 
L 152.53524 250.462871 
L 152.53524 250.081129 
L 152.775647 250.081129 
L 152.775647 249.699388 
L 153.593669 249.699388 
L 153.593669 249.317647 
L 154.595705 249.317647 
L 154.703817 248.172424 
L 155.024477 248.172424 
L 155.024477 247.408941 
L 157.779907 247.408941 
L 157.779907 245.881976 
L 159.939564 245.881976 
L 160.020999 244.736753 
L 160.18282 244.736753 
L 160.18282 244.355012 
L 162.023298 244.355012 
L 162.023298 243.591529 
L 162.168843 243.591529 
L 162.168843 243.209788 
L 164.161708 243.209788 
L 164.161708 242.828047 
L 164.484939 242.828047 
L 164.484939 242.446306 
L 167.279159 242.446306 
L 167.279159 242.064565 
L 167.877265 242.064565 
L 167.877265 241.301082 
L 168.142969 241.301082 
L 168.142969 240.919341 
L 168.968849 240.919341 
L 168.968849 240.5376 
L 169.119745 240.5376 
L 169.119745 239.774118 
L 170.09592 239.774118 
L 170.09592 238.628894 
L 170.887612 238.628894 
L 170.887612 238.247153 
L 171.293632 238.247153 
L 171.293632 237.865412 
L 172.037442 237.865412 
L 172.037442 237.101929 
L 172.250727 237.101929 
L 172.250727 236.720188 
L 175.442151 236.720188 
L 175.442151 235.193224 
L 177.151915 235.193224 
L 177.151915 234.811482 
L 177.54013 234.811482 
L 177.54013 234.429741 
L 177.731273 234.429741 
L 177.731273 234.048 
L 178.415971 234.048 
L 178.415971 233.666259 
L 180.221402 233.666259 
L 180.221402 233.284518 
L 180.414768 233.284518 
L 180.414768 232.902776 
L 182.196455 232.902776 
L 182.196455 232.521035 
L 183.731965 232.521035 
L 183.731965 231.375812 
L 183.84681 231.375812 
L 183.84681 230.612329 
L 184.321646 230.612329 
L 184.410747 229.848847 
L 185.087338 229.848847 
L 185.130164 228.321882 
L 186.291356 228.321882 
L 186.291356 227.176659 
L 186.689288 227.176659 
L 186.689288 226.794918 
L 186.904616 226.794918 
L 186.904616 226.413176 
L 187.760698 226.413176 
L 187.760698 226.031435 
L 187.908895 226.031435 
L 187.908895 225.267953 
L 188.346604 225.267953 
L 188.346604 224.886212 
L 188.70374 224.886212 
L 188.70374 224.122729 
L 189.071575 224.122729 
L 189.071575 223.740988 
L 189.261418 223.740988 
L 189.29573 222.214024 
L 189.415332 222.214024 
L 189.432356 221.0688 
L 189.752919 221.0688 
L 189.752919 219.923576 
L 190.458846 219.923576 
L 190.458846 218.396612 
L 190.841629 218.396612 
L 190.841629 218.014871 
L 192.137913 218.014871 
L 192.137913 217.633129 
L 192.357677 217.633129 
L 192.357677 217.251388 
L 192.818097 217.251388 
L 192.832305 216.106165 
L 193.10024 216.106165 
L 193.10024 215.724424 
L 193.225837 215.724424 
L 193.225837 215.342682 
L 194.554737 215.342682 
L 194.554737 214.960941 
L 194.709619 214.960941 
L 194.709619 214.197459 
L 194.824949 214.197459 
L 194.824949 213.433976 
L 195.154207 213.433976 
L 195.154207 213.052235 
L 195.291792 213.052235 
L 195.291792 212.670494 
L 195.722986 212.670494 
L 195.722986 211.907012 
L 195.88066 211.907012 
L 195.88066 210.380047 
L 196.215841 210.380047 
L 196.227702 209.616565 
L 196.392976 209.616565 
L 196.392976 209.234824 
L 197.028561 209.234824 
L 197.028561 208.853082 
L 197.818518 208.853082 
L 197.818518 208.471341 
L 197.937991 208.471341 
L 197.992047 206.944376 
L 198.056711 206.944376 
L 198.056711 206.180894 
L 198.670588 206.180894 
L 198.691403 205.417412 
L 199.345606 205.417412 
L 199.345606 205.035671 
L 199.890189 205.035671 
L 199.890189 204.653929 
L 200.199931 204.653929 
L 200.199931 204.272188 
L 200.371945 204.272188 
L 200.371945 203.890447 
L 200.627053 203.890447 
L 200.627053 201.981741 
L 208.396279 201.981741 
L 208.396279 201.6 
L 208.922853 201.6 
L 208.922853 200.836518 
L 209.928021 200.836518 
L 209.928021 200.454776 
L 210.195138 200.454776 
L 210.20078 199.691294 
L 211.216532 199.691294 
L 211.216532 198.927812 
L 212.397334 198.927812 
L 212.45247 197.400847 
L 213.063081 197.400847 
L 213.063081 197.019106 
L 213.692018 197.019106 
L 213.692018 193.583435 
L 218.357572 193.583435 
L 218.357572 193.201694 
L 221.328034 193.201694 
L 221.328034 191.292988 
L 224.456404 191.292988 
L 224.456404 190.911247 
L 226.134932 190.911247 
L 226.134932 190.529506 
L 226.744074 190.529506 
L 226.744074 188.6208 
L 229.219534 188.6208 
L 229.219534 188.239059 
L 234.375794 188.239059 
L 234.375794 186.712094 
L 236.602829 186.712094 
L 236.602829 186.330353 
L 237.276834 186.330353 
L 237.276834 185.566871 
L 239.789686 185.566871 
L 239.789686 185.185129 
L 243.98865 185.185129 
L 243.98865 184.803388 
L 247.419259 184.803388 
L 247.419259 184.421647 
L 248.925317 184.421647 
L 248.925317 184.039906 
L 250.319686 184.039906 
L 250.319686 183.658165 
L 251.617794 183.658165 
L 251.617794 182.512941 
L 252.832078 182.512941 
L 252.832078 182.1312 
L 255.048118 182.1312 
L 255.048118 181.749459 
L 258.823565 181.749459 
L 258.823565 180.604235 
L 261.22859 180.604235 
L 261.22859 180.222494 
L 261.966472 180.222494 
L 261.966472 179.840753 
L 262.676499 179.840753 
L 262.676499 179.459012 
L 267.013399 179.459012 
L 267.013399 179.077271 
L 268.604178 179.077271 
L 268.604178 178.695529 
L 360.8064 178.695529 
L 360.8064 178.695529 
" style="fill:none;stroke:#6495ed;stroke-linecap:square;stroke-width:1.5;"/>
   </g>
   <g id="line2d_46">
    <defs>
     <path d="M -0 6 
L 6 -6 
L -6 -6 
z
" id="mcc471468ff" style="stroke:#6495ed;stroke-linejoin:miter;stroke-width:1.5;"/>
    </defs>
    <g>
     <use style="fill-opacity:0;stroke:#6495ed;stroke-linejoin:miter;stroke-width:1.5;" x="83.678349" xlink:href="#mcc471468ff" y="283.674353"/>
     <use style="fill-opacity:0;stroke:#6495ed;stroke-linejoin:miter;stroke-width:1.5;" x="172.037442" xlink:href="#mcc471468ff" y="237.101929"/>
     <use style="fill-opacity:0;stroke:#6495ed;stroke-linejoin:miter;stroke-width:1.5;" x="210.20078" xlink:href="#mcc471468ff" y="200.073035"/>
     <use style="fill-opacity:0;stroke:#6495ed;stroke-linejoin:miter;stroke-width:1.5;" x="268.604178" xlink:href="#mcc471468ff" y="179.077271"/>
     <use style="fill-opacity:0;stroke:#6495ed;stroke-linejoin:miter;stroke-width:1.5;" x="268.604178" xlink:href="#mcc471468ff" y="178.695529"/>
     <use style="fill-opacity:0;stroke:#6495ed;stroke-linejoin:miter;stroke-width:1.5;" x="360.8064" xlink:href="#mcc471468ff" y="178.695529"/>
    </g>
   </g>
   <g id="line2d_47">
    <path style="fill:none;stroke:#6495ed;stroke-linecap:square;stroke-width:1.5;"/>
    <g/>
   </g>
   <g id="line2d_48">
    <path clip-path="url(#p9530a2a9d2)" d="M 200.678598 201.981741 
" style="fill:none;stroke:#6495ed;stroke-linecap:square;stroke-width:1.5;"/>
    <defs>
     <path d="M -12 12 
L 12 -12 
M -12 -12 
L 12 12 
" id="md21b57d520" style="stroke:#6495ed;"/>
    </defs>
    <g clip-path="url(#p9530a2a9d2)">
     <use style="fill:#6495ed;stroke:#6495ed;" x="200.678598" xlink:href="#md21b57d520" y="201.981741"/>
    </g>
   </g>
   <g id="line2d_49">
    <defs>
     <path d="M 0 1.5 
C 0.397805 1.5 0.77937 1.341951 1.06066 1.06066 
C 1.341951 0.77937 1.5 0.397805 1.5 0 
C 1.5 -0.397805 1.341951 -0.77937 1.06066 -1.06066 
C 0.77937 -1.341951 0.397805 -1.5 0 -1.5 
C -0.397805 -1.5 -0.77937 -1.341951 -1.06066 -1.06066 
C -1.341951 -0.77937 -1.5 -0.397805 -1.5 0 
C -1.5 0.397805 -1.341951 0.77937 -1.06066 1.06066 
C -0.77937 1.341951 -0.397805 1.5 0 1.5 
z
" id="m4600efc660" style="stroke:#ff0000;"/>
    </defs>
    <g>
     <use style="fill:#ff0000;stroke:#ff0000;" x="280.234413" xlink:href="#m4600efc660" y="58.447059"/>
     <use style="fill:#ff0000;stroke:#ff0000;" x="280.234413" xlink:href="#m4600efc660" y="58.447059"/>
    </g>
   </g>
   <g id="line2d_50">
    <path d="M 44.560826 298.944 
L 44.560826 284.819576 
L 57.6 284.819576 
L 57.6 273.367341 
L 65.227428 273.367341 
L 65.227428 265.732518 
L 70.639174 265.732518 
L 70.639174 253.135059 
L 78.266603 253.135059 
L 78.266603 251.226353 
L 81.166416 251.226353 
L 81.166416 250.081129 
L 85.894031 250.081129 
L 85.894031 248.554165 
L 87.876026 248.554165 
L 87.876026 247.790682 
L 89.668958 247.790682 
L 89.668958 247.0272 
L 94.205591 247.0272 
L 94.205591 246.645459 
L 96.717523 246.645459 
L 96.717523 243.973271 
L 97.857967 243.973271 
L 97.857967 243.591529 
L 98.933205 243.591529 
L 98.933205 242.446306 
L 100.9152 242.446306 
L 100.9152 241.301082 
L 103.544339 241.301082 
L 103.544339 240.5376 
L 105.112877 240.5376 
L 105.112877 239.774118 
L 106.560633 239.774118 
L 106.560633 237.865412 
L 111.442442 237.865412 
L 111.442442 237.483671 
L 115.314838 237.483671 
L 115.314838 237.101929 
L 118.524569 237.101929 
L 118.524569 235.956706 
L 121.892744 235.956706 
L 121.892744 235.574965 
L 123.08753 235.574965 
L 123.08753 235.193224 
L 126.756923 235.193224 
L 126.756923 234.429741 
L 127.686077 234.429741 
L 127.686077 233.666259 
L 130.618241 233.666259 
L 130.618241 232.902776 
L 134.14471 232.902776 
L 134.14471 230.994071 
L 135.981441 230.994071 
L 135.981441 230.612329 
L 136.555884 230.612329 
L 136.555884 229.467106 
L 137.113304 229.467106 
L 137.113304 227.5584 
L 138.692823 227.5584 
L 138.692823 226.031435 
L 141.283499 226.031435 
L 141.283499 224.122729 
L 142.352625 224.122729 
L 142.352625 223.359247 
L 142.966099 223.359247 
L 142.966099 221.832282 
L 143.364242 221.832282 
L 143.364242 220.305318 
L 144.324223 220.305318 
L 144.324223 219.541835 
L 144.694906 219.541835 
L 144.694906 218.396612 
L 144.877544 218.396612 
L 144.877544 218.014871 
L 145.590864 218.014871 
L 145.590864 216.869647 
L 146.777571 216.869647 
L 146.777571 216.487906 
L 152.413875 216.487906 
L 152.413875 216.106165 
L 155.13016 216.106165 
L 155.13016 215.724424 
L 155.339761 215.724424 
L 155.443693 214.5792 
L 155.752086 214.5792 
L 155.752086 213.815718 
L 156.354107 213.815718 
L 156.354107 212.288753 
L 157.962102 212.288753 
L 157.962102 211.907012 
L 159.693121 211.907012 
L 159.693121 211.143529 
L 160.894266 211.143529 
L 160.894266 208.471341 
L 162.880139 208.471341 
L 162.880139 206.180894 
L 167.056864 206.180894 
L 167.056864 205.417412 
L 168.248209 205.417412 
L 168.248209 205.035671 
L 168.404973 205.035671 
L 168.404973 204.272188 
L 170.37916 204.272188 
L 170.37916 202.745224 
L 171.865055 202.745224 
L 171.865055 202.363482 
L 172.958324 202.363482 
L 172.958324 201.981741 
L 175.007602 201.981741 
L 175.007602 201.218259 
L 176.888582 201.218259 
L 176.888582 200.454776 
L 177.217177 200.454776 
L 177.249723 199.309553 
L 177.54013 199.309553 
L 177.54013 197.782588 
L 179.135545 197.782588 
L 179.135545 197.400847 
L 179.252842 197.400847 
L 179.252842 196.637365 
L 179.686307 196.637365 
L 179.686307 195.492141 
L 180.082057 195.492141 
L 180.082057 195.1104 
L 181.009863 195.1104 
L 181.009863 193.965176 
L 181.247987 193.965176 
L 181.247987 192.438212 
L 181.560869 192.438212 
L 181.560869 192.056471 
L 184.850033 192.056471 
L 184.850033 189.766024 
L 185.300502 189.766024 
L 185.300502 189.384282 
L 186.649872 189.384282 
L 186.649872 187.093835 
L 187.347034 187.093835 
L 187.347034 186.330353 
L 188.879797 186.330353 
L 188.897312 184.421647 
L 191.478054 184.421647 
L 191.493311 182.894682 
L 192.718339 182.894682 
L 192.718339 180.604235 
L 194.029057 180.604235 
L 194.029057 179.840753 
L 196.025041 179.840753 
L 196.025041 178.695529 
L 196.730777 178.695529 
L 196.730777 178.313788 
L 197.24323 178.313788 
L 197.24323 177.550306 
L 198.576634 177.550306 
L 198.576634 172.969412 
L 198.826142 172.969412 
L 198.826142 172.205929 
L 199.234772 172.205929 
L 199.234772 169.152 
L 200.026329 169.152 
L 200.026329 168.388518 
L 200.390961 168.388518 
L 200.390961 168.006776 
L 202.821346 168.006776 
L 202.821346 167.625035 
L 203.045494 167.625035 
L 203.045494 166.861553 
L 205.502157 166.861553 
L 205.502157 166.098071 
L 206.407039 166.098071 
L 206.407039 165.716329 
L 207.421402 165.716329 
L 207.421402 164.952847 
L 207.981925 164.952847 
L 207.981925 163.807624 
L 208.728637 163.807624 
L 208.728637 162.6624 
L 209.680269 162.6624 
L 209.680269 162.280659 
L 210.155594 162.280659 
L 210.155594 160.371953 
L 210.685296 160.371953 
L 210.685296 159.990212 
L 211.847234 159.990212 
L 211.847234 159.608471 
L 212.696134 159.608471 
L 212.696134 156.554541 
L 212.814338 156.554541 
L 212.814338 156.1728 
L 213.009708 156.1728 
L 213.009708 152.737129 
L 213.394465 152.737129 
L 213.394465 151.973647 
L 214.938421 151.973647 
L 214.938421 151.591906 
L 216.283734 151.591906 
L 216.283734 150.828424 
L 216.571403 150.828424 
L 216.571403 150.446682 
L 216.799206 150.446682 
L 216.799206 150.064941 
L 217.389682 150.064941 
L 217.389682 149.6832 
L 217.721659 149.6832 
L 217.721659 148.919718 
L 218.170153 148.919718 
L 218.170153 148.156235 
L 219.046861 148.156235 
L 219.046861 146.629271 
L 219.378797 146.629271 
L 219.378797 146.247529 
L 220.119064 146.247529 
L 220.119064 145.484047 
L 220.67031 145.484047 
L 220.67031 143.575341 
L 220.876131 143.575341 
L 220.876131 140.903153 
L 221.130281 140.903153 
L 221.130281 140.139671 
L 223.094123 140.139671 
L 223.094123 139.757929 
L 223.454514 139.757929 
L 223.454514 139.376188 
L 223.870972 139.376188 
L 223.870972 138.994447 
L 224.106797 138.994447 
L 224.106797 138.612706 
L 224.427297 138.612706 
L 224.427297 137.849224 
L 225.060049 137.849224 
L 225.060049 134.795294 
L 225.301748 134.795294 
L 225.301748 134.031812 
L 226.253062 134.031812 
L 226.310652 131.741365 
L 226.406246 131.741365 
L 226.406246 130.596141 
L 228.360688 130.596141 
L 228.360688 129.832659 
L 228.865214 129.832659 
L 228.865214 129.069176 
L 229.609572 129.069176 
L 229.609572 126.778729 
L 229.79961 126.778729 
L 229.79961 126.396988 
L 230.228572 126.396988 
L 230.228572 126.015247 
L 230.552601 126.015247 
L 230.598439 124.106541 
L 230.674588 124.106541 
L 230.674588 123.7248 
L 230.825966 123.7248 
L 230.825966 122.579576 
L 232.659717 122.579576 
L 232.659717 122.197835 
L 232.863758 122.197835 
L 232.863758 121.816094 
L 233.270284 121.816094 
L 233.270284 121.434353 
L 233.781295 121.434353 
L 233.781295 121.052612 
L 234.049956 121.052612 
L 234.151302 117.998682 
L 234.277222 117.998682 
L 234.277222 117.2352 
L 235.988474 117.2352 
L 235.988474 116.089976 
L 236.33335 116.089976 
L 236.33335 115.708235 
L 236.466478 115.708235 
L 236.466478 115.326494 
L 236.768456 115.326494 
L 236.768456 114.563012 
L 236.997909 114.563012 
L 237.084589 111.509082 
L 237.192381 111.509082 
L 237.192381 110.363859 
L 238.517676 110.363859 
L 238.517676 109.982118 
L 238.667337 109.982118 
L 238.667337 108.836894 
L 238.9668 108.836894 
L 238.9668 108.455153 
L 239.545866 108.455153 
L 239.574298 107.309929 
L 239.715814 107.309929 
L 239.715814 106.928188 
L 240.879774 106.928188 
L 240.879774 106.164706 
L 241.011836 106.164706 
L 241.011836 105.782965 
L 241.276454 105.782965 
L 241.378902 104.256 
L 241.611906 104.256 
L 241.611906 103.492518 
L 241.814756 103.492518 
L 241.856743 102.347294 
L 242.978087 102.347294 
L 242.978087 101.965553 
L 243.096254 101.965553 
L 243.096254 101.583812 
L 243.333291 101.583812 
L 243.333291 99.675106 
L 243.793861 99.675106 
L 243.816549 98.529882 
L 244.865657 98.529882 
L 244.972574 97.384659 
L 245.187237 97.384659 
L 245.187237 96.239435 
L 245.460177 96.239435 
L 245.460177 95.857694 
L 245.625664 95.857694 
L 245.625664 95.094212 
L 246.580978 95.094212 
L 246.580978 94.330729 
L 246.87475 94.330729 
L 246.87475 92.040282 
L 247.275958 92.040282 
L 247.307374 91.2768 
L 248.152876 91.2768 
L 248.152876 90.895059 
L 248.423266 90.895059 
L 248.423266 90.131576 
L 248.653333 90.131576 
L 248.653333 89.749835 
L 248.79308 89.749835 
L 248.879898 88.986353 
L 249.603494 88.986353 
L 249.686659 88.222871 
L 249.853951 88.222871 
L 249.853951 87.841129 
L 250.223828 87.841129 
L 250.277515 86.695906 
L 251.183475 86.695906 
L 251.183475 85.932424 
L 251.488171 85.932424 
L 251.578438 84.7872 
L 252.425205 84.7872 
L 252.425205 84.023718 
L 252.748232 84.023718 
L 252.795185 83.260235 
L 253.59002 83.260235 
L 253.59002 82.115012 
L 254.686896 82.115012 
L 254.686896 80.969788 
L 254.852091 80.969788 
L 254.852091 80.588047 
L 255.015328 80.588047 
L 255.015328 79.824565 
L 255.723323 79.824565 
L 255.723323 79.061082 
L 255.974985 79.061082 
L 256.034294 77.534118 
L 256.589553 77.534118 
L 256.589553 77.152376 
L 256.705618 77.152376 
L 256.705618 76.770635 
L 256.944556 76.770635 
L 256.944556 76.388894 
L 257.920238 76.388894 
L 257.920238 76.007153 
L 258.528546 76.007153 
L 258.528546 74.480188 
L 259.22722 74.480188 
L 259.22722 74.098447 
L 259.37778 74.098447 
L 259.37778 73.334965 
L 260.190326 73.334965 
L 260.190326 72.571482 
L 260.379675 72.571482 
L 260.379675 71.808 
L 260.830921 71.808 
L 260.830921 71.426259 
L 260.969223 71.426259 
L 260.969223 71.044518 
L 261.150929 71.044518 
L 261.150929 70.281035 
L 261.717147 70.281035 
L 261.717147 69.517553 
L 261.900476 69.517553 
L 261.900476 69.135812 
L 262.436469 69.135812 
L 262.436469 68.372329 
L 262.654647 68.372329 
L 262.654647 67.990588 
L 263.129296 67.990588 
L 263.129296 67.608847 
L 263.299426 67.608847 
L 263.299426 67.227106 
L 263.797509 67.227106 
L 263.899461 66.463624 
L 263.961728 66.463624 
L 263.961728 66.081882 
L 264.442798 66.081882 
L 264.442798 65.700141 
L 264.601503 65.700141 
L 264.639019 64.936659 
L 265.066685 64.936659 
L 265.066685 64.554918 
L 265.220233 64.554918 
L 265.220233 64.173176 
L 266.34511 64.173176 
L 266.34511 63.791435 
L 267.373852 63.791435 
L 267.373852 63.409694 
L 269.060757 63.409694 
L 269.060757 63.027953 
L 269.428717 63.027953 
L 269.428717 62.646212 
L 270.027991 62.646212 
L 270.027991 62.264471 
L 272.14304 62.264471 
L 272.248584 61.119247 
L 272.662895 61.119247 
L 272.662895 60.737506 
L 273.068278 60.737506 
L 273.068278 60.355765 
L 274.139564 60.355765 
L 274.139564 59.974024 
L 274.995293 59.974024 
L 274.995293 59.592282 
L 275.944376 59.592282 
L 275.944376 59.210541 
L 279.393909 59.210541 
L 279.393909 58.8288 
L 280.234413 58.8288 
L 280.234413 58.447059 
L 360.8064 58.447059 
L 360.8064 58.447059 
" style="fill:none;stroke:#ff0000;stroke-linecap:square;stroke-width:1.5;"/>
   </g>
   <g id="line2d_51">
    <defs>
     <path d="M 0 -6 
L -5.196152 -3 
L -5.196152 3 
L -0 6 
L 5.196152 3 
L 5.196152 -3 
z
" id="mf023e5e92a" style="stroke:#ff0000;stroke-linejoin:miter;stroke-width:1.5;"/>
    </defs>
    <g>
     <use style="fill-opacity:0;stroke:#ff0000;stroke-linejoin:miter;stroke-width:1.5;" x="127.686077" xlink:href="#mf023e5e92a" y="234.429741"/>
     <use style="fill-opacity:0;stroke:#ff0000;stroke-linejoin:miter;stroke-width:1.5;" x="197.24323" xlink:href="#mf023e5e92a" y="177.550306"/>
     <use style="fill-opacity:0;stroke:#ff0000;stroke-linejoin:miter;stroke-width:1.5;" x="253.59002" xlink:href="#mf023e5e92a" y="82.115012"/>
     <use style="fill-opacity:0;stroke:#ff0000;stroke-linejoin:miter;stroke-width:1.5;" x="280.234413" xlink:href="#mf023e5e92a" y="58.447059"/>
     <use style="fill-opacity:0;stroke:#ff0000;stroke-linejoin:miter;stroke-width:1.5;" x="280.234413" xlink:href="#mf023e5e92a" y="58.447059"/>
     <use style="fill-opacity:0;stroke:#ff0000;stroke-linejoin:miter;stroke-width:1.5;" x="360.8064" xlink:href="#mf023e5e92a" y="58.447059"/>
    </g>
   </g>
   <g id="line2d_52">
    <path style="fill:none;stroke:#ff0000;stroke-linecap:square;stroke-width:1.5;"/>
    <g/>
   </g>
   <g id="line2d_53">
    <path clip-path="url(#p9530a2a9d2)" d="M 200.678598 168.006776 
" style="fill:none;stroke:#ff0000;stroke-linecap:square;stroke-width:1.5;"/>
    <defs>
     <path d="M -12 12 
L 12 -12 
M -12 -12 
L 12 12 
" id="m265b6c7824" style="stroke:#ff0000;"/>
    </defs>
    <g clip-path="url(#p9530a2a9d2)">
     <use style="fill:#ff0000;stroke:#ff0000;" x="200.678598" xlink:href="#m265b6c7824" y="168.006776"/>
    </g>
   </g>
   <g id="line2d_54">
    <path d="M 360.8064 190.147765 
L 380.514816 293.10336 
" style="fill:none;stroke:#000080;stroke-linecap:square;stroke-width:1.5;"/>
    <g>
     <use style="fill-opacity:0;stroke:#000080;stroke-width:1.5;" x="360.8064" xlink:href="#m245b5ab5aa" y="190.147765"/>
     <use style="fill-opacity:0;stroke:#000080;stroke-width:1.5;" x="380.514816" xlink:href="#m245b5ab5aa" y="293.10336"/>
    </g>
   </g>
   <g id="line2d_55">
    <path d="M 360.8064 178.695529 
L 380.514816 223.01568 
" style="fill:none;stroke:#6495ed;stroke-linecap:square;stroke-width:1.5;"/>
    <g>
     <use style="fill-opacity:0;stroke:#6495ed;stroke-linejoin:miter;stroke-width:1.5;" x="360.8064" xlink:href="#mcc471468ff" y="178.695529"/>
     <use style="fill-opacity:0;stroke:#6495ed;stroke-linejoin:miter;stroke-width:1.5;" x="380.514816" xlink:href="#mcc471468ff" y="223.01568"/>
    </g>
   </g>
   <g id="line2d_56">
    <path d="M 360.8064 132.886588 
L 380.514816 152.928 
" style="fill:none;stroke:#ff00ff;stroke-linecap:square;stroke-width:1.5;"/>
    <g>
     <use style="fill-opacity:0;stroke:#ff00ff;stroke-linejoin:miter;stroke-width:1.5;" x="360.8064" xlink:href="#m3a845c13df" y="132.886588"/>
     <use style="fill-opacity:0;stroke:#ff00ff;stroke-linejoin:miter;stroke-width:1.5;" x="380.514816" xlink:href="#m3a845c13df" y="152.928"/>
    </g>
   </g>
   <g id="line2d_57">
    <path d="M 360.8064 127.160471 
L 380.514816 82.84032 
" style="fill:none;stroke:#ff7500;stroke-linecap:square;stroke-width:1.5;"/>
    <g>
     <use style="fill-opacity:0;stroke:#ff7500;stroke-linejoin:bevel;stroke-width:1.5;" x="360.8064" xlink:href="#mf4258be4e5" y="127.160471"/>
     <use style="fill-opacity:0;stroke:#ff7500;stroke-linejoin:bevel;stroke-width:1.5;" x="380.514816" xlink:href="#mf4258be4e5" y="82.84032"/>
    </g>
   </g>
   <g id="line2d_58">
    <path d="M 360.8064 58.447059 
L 380.514816 12.75264 
" style="fill:none;stroke:#ff0000;stroke-linecap:square;stroke-width:1.5;"/>
    <g>
     <use style="fill-opacity:0;stroke:#ff0000;stroke-linejoin:miter;stroke-width:1.5;" x="360.8064" xlink:href="#mf023e5e92a" y="58.447059"/>
     <use style="fill-opacity:0;stroke:#ff0000;stroke-linejoin:miter;stroke-width:1.5;" x="380.514816" xlink:href="#mf023e5e92a" y="12.75264"/>
    </g>
   </g>
   <g id="line2d_59">
    <path d="M 360.8064 298.944 
L 360.8064 6.912 
" style="fill:none;stroke:#000000;stroke-linecap:square;stroke-width:1.5;"/>
   </g>
   <g id="patch_3">
    <path d="M 57.6 298.944 
L 360.8064 298.944 
" style="fill:none;stroke:#000000;stroke-linecap:square;stroke-linejoin:miter;stroke-width:0.8;"/>
   </g>
   <g id="patch_4">
    <path d="M 57.6 6.912 
L 360.8064 6.912 
" style="fill:none;stroke:#000000;stroke-linecap:square;stroke-linejoin:miter;stroke-width:0.8;"/>
   </g>
   <g id="text_13">
    <!-- f15 -->
    <g transform="translate(386.578944 296.966485)scale(0.14 -0.14)">
     <defs>
      <path d="M 691 4666 
L 3169 4666 
L 3169 4134 
L 1269 4134 
L 1269 2991 
Q 1406 3038 1543 3061 
Q 1681 3084 1819 3084 
Q 2600 3084 3056 2656 
Q 3513 2228 3513 1497 
Q 3513 744 3044 326 
Q 2575 -91 1722 -91 
Q 1428 -91 1123 -41 
Q 819 9 494 109 
L 494 744 
Q 775 591 1075 516 
Q 1375 441 1709 441 
Q 2250 441 2565 725 
Q 2881 1009 2881 1497 
Q 2881 1984 2565 2268 
Q 2250 2553 1709 2553 
Q 1456 2553 1204 2497 
Q 953 2441 691 2322 
L 691 4666 
z
" id="DejaVuSans-35" transform="scale(0.015625)"/>
     </defs>
     <use xlink:href="#DejaVuSans-66"/>
     <use x="35.205078" xlink:href="#DejaVuSans-31"/>
     <use x="98.828125" xlink:href="#DejaVuSans-35"/>
    </g>
   </g>
   <g id="text_14">
    <!-- f18 -->
    <g transform="translate(386.578944 226.878805)scale(0.14 -0.14)">
     <use xlink:href="#DejaVuSans-66"/>
     <use x="35.205078" xlink:href="#DejaVuSans-31"/>
     <use x="98.828125" xlink:href="#DejaVuSans-38"/>
    </g>
   </g>
   <g id="text_15">
    <!-- f16 -->
    <g transform="translate(386.578944 156.791125)scale(0.14 -0.14)">
     <use xlink:href="#DejaVuSans-66"/>
     <use x="35.205078" xlink:href="#DejaVuSans-31"/>
     <use x="98.828125" xlink:href="#DejaVuSans-36"/>
    </g>
   </g>
   <g id="text_16">
    <!-- f17 -->
    <g transform="translate(386.578944 86.703445)scale(0.14 -0.14)">
     <defs>
      <path d="M 525 4666 
L 3525 4666 
L 3525 4397 
L 1831 0 
L 1172 0 
L 2766 4134 
L 525 4134 
L 525 4666 
z
" id="DejaVuSans-37" transform="scale(0.015625)"/>
     </defs>
     <use xlink:href="#DejaVuSans-66"/>
     <use x="35.205078" xlink:href="#DejaVuSans-31"/>
     <use x="98.828125" xlink:href="#DejaVuSans-37"/>
    </g>
   </g>
   <g id="text_17">
    <!-- f19 -->
    <g transform="translate(386.578944 16.615765)scale(0.14 -0.14)">
     <defs>
      <path d="M 703 97 
L 703 672 
Q 941 559 1184 500 
Q 1428 441 1663 441 
Q 2288 441 2617 861 
Q 2947 1281 2994 2138 
Q 2813 1869 2534 1725 
Q 2256 1581 1919 1581 
Q 1219 1581 811 2004 
Q 403 2428 403 3163 
Q 403 3881 828 4315 
Q 1253 4750 1959 4750 
Q 2769 4750 3195 4129 
Q 3622 3509 3622 2328 
Q 3622 1225 3098 567 
Q 2575 -91 1691 -91 
Q 1453 -91 1209 -44 
Q 966 3 703 97 
z
M 1959 2075 
Q 2384 2075 2632 2365 
Q 2881 2656 2881 3163 
Q 2881 3666 2632 3958 
Q 2384 4250 1959 4250 
Q 1534 4250 1286 3958 
Q 1038 3666 1038 3163 
Q 1038 2656 1286 2365 
Q 1534 2075 1959 2075 
z
" id="DejaVuSans-39" transform="scale(0.015625)"/>
     </defs>
     <use xlink:href="#DejaVuSans-66"/>
     <use x="35.205078" xlink:href="#DejaVuSans-31"/>
     <use x="98.828125" xlink:href="#DejaVuSans-39"/>
    </g>
   </g>
   <g id="text_18">
    <!-- bbob -->
    <g transform="translate(60.632064 17.582726)scale(0.102 -0.102)">
     <defs>
      <path d="M 3116 1747 
Q 3116 2381 2855 2742 
Q 2594 3103 2138 3103 
Q 1681 3103 1420 2742 
Q 1159 2381 1159 1747 
Q 1159 1113 1420 752 
Q 1681 391 2138 391 
Q 2594 391 2855 752 
Q 3116 1113 3116 1747 
z
M 1159 2969 
Q 1341 3281 1617 3432 
Q 1894 3584 2278 3584 
Q 2916 3584 3314 3078 
Q 3713 2572 3713 1747 
Q 3713 922 3314 415 
Q 2916 -91 2278 -91 
Q 1894 -91 1617 61 
Q 1341 213 1159 525 
L 1159 0 
L 581 0 
L 581 4863 
L 1159 4863 
L 1159 2969 
z
" id="DejaVuSans-62" transform="scale(0.015625)"/>
     </defs>
     <use xlink:href="#DejaVuSans-62"/>
     <use x="63.476562" xlink:href="#DejaVuSans-62"/>
     <use x="126.953125" xlink:href="#DejaVuSans-6f"/>
     <use x="188.134766" xlink:href="#DejaVuSans-62"/>
    </g>
    <!-- Multi-modal functions, 2-D -->
    <g transform="translate(60.632064 29.004495)scale(0.102 -0.102)">
     <defs>
      <path d="M 628 4666 
L 1569 4666 
L 2759 1491 
L 3956 4666 
L 4897 4666 
L 4897 0 
L 4281 0 
L 4281 4097 
L 3078 897 
L 2444 897 
L 1241 4097 
L 1241 0 
L 628 0 
L 628 4666 
z
" id="DejaVuSans-4d" transform="scale(0.015625)"/>
      <path d="M 1259 4147 
L 1259 519 
L 2022 519 
Q 2988 519 3436 956 
Q 3884 1394 3884 2338 
Q 3884 3275 3436 3711 
Q 2988 4147 2022 4147 
L 1259 4147 
z
M 628 4666 
L 1925 4666 
Q 3281 4666 3915 4102 
Q 4550 3538 4550 2338 
Q 4550 1131 3912 565 
Q 3275 0 1925 0 
L 628 0 
L 628 4666 
z
" id="DejaVuSans-44" transform="scale(0.015625)"/>
     </defs>
     <use xlink:href="#DejaVuSans-4d"/>
     <use x="86.279297" xlink:href="#DejaVuSans-75"/>
     <use x="149.658203" xlink:href="#DejaVuSans-6c"/>
     <use x="177.441406" xlink:href="#DejaVuSans-74"/>
     <use x="216.650391" xlink:href="#DejaVuSans-69"/>
     <use x="244.433594" xlink:href="#DejaVuSans-2d"/>
     <use x="280.517578" xlink:href="#DejaVuSans-6d"/>
     <use x="377.929688" xlink:href="#DejaVuSans-6f"/>
     <use x="439.111328" xlink:href="#DejaVuSans-64"/>
     <use x="502.587891" xlink:href="#DejaVuSans-61"/>
     <use x="563.867188" xlink:href="#DejaVuSans-6c"/>
     <use x="591.650391" xlink:href="#DejaVuSans-20"/>
     <use x="623.4375" xlink:href="#DejaVuSans-66"/>
     <use x="658.642578" xlink:href="#DejaVuSans-75"/>
     <use x="722.021484" xlink:href="#DejaVuSans-6e"/>
     <use x="785.400391" xlink:href="#DejaVuSans-63"/>
     <use x="840.380859" xlink:href="#DejaVuSans-74"/>
     <use x="879.589844" xlink:href="#DejaVuSans-69"/>
     <use x="907.373047" xlink:href="#DejaVuSans-6f"/>
     <use x="968.554688" xlink:href="#DejaVuSans-6e"/>
     <use x="1031.933594" xlink:href="#DejaVuSans-73"/>
     <use x="1084.033203" xlink:href="#DejaVuSans-2c"/>
     <use x="1115.820312" xlink:href="#DejaVuSans-20"/>
     <use x="1147.607422" xlink:href="#DejaVuSans-32"/>
     <use x="1211.230469" xlink:href="#DejaVuSans-2d"/>
     <use x="1247.314453" xlink:href="#DejaVuSans-44"/>
    </g>
    <!-- 51 targets: 100..1e-08 -->
    <g transform="translate(60.632064 40.426264)scale(0.102 -0.102)">
     <defs>
      <path d="M 750 794 
L 1409 794 
L 1409 0 
L 750 0 
L 750 794 
z
M 750 3309 
L 1409 3309 
L 1409 2516 
L 750 2516 
L 750 3309 
z
" id="DejaVuSans-3a" transform="scale(0.015625)"/>
     </defs>
     <use xlink:href="#DejaVuSans-35"/>
     <use x="63.623047" xlink:href="#DejaVuSans-31"/>
     <use x="127.246094" xlink:href="#DejaVuSans-20"/>
     <use x="159.033203" xlink:href="#DejaVuSans-74"/>
     <use x="198.242188" xlink:href="#DejaVuSans-61"/>
     <use x="259.521484" xlink:href="#DejaVuSans-72"/>
     <use x="298.884766" xlink:href="#DejaVuSans-67"/>
     <use x="362.361328" xlink:href="#DejaVuSans-65"/>
     <use x="423.884766" xlink:href="#DejaVuSans-74"/>
     <use x="463.09375" xlink:href="#DejaVuSans-73"/>
     <use x="515.193359" xlink:href="#DejaVuSans-3a"/>
     <use x="548.884766" xlink:href="#DejaVuSans-20"/>
     <use x="580.671875" xlink:href="#DejaVuSans-31"/>
     <use x="644.294922" xlink:href="#DejaVuSans-30"/>
     <use x="707.917969" xlink:href="#DejaVuSans-30"/>
     <use x="771.541016" xlink:href="#DejaVuSans-2e"/>
     <use x="803.328125" xlink:href="#DejaVuSans-2e"/>
     <use x="835.115234" xlink:href="#DejaVuSans-31"/>
     <use x="898.738281" xlink:href="#DejaVuSans-65"/>
     <use x="960.261719" xlink:href="#DejaVuSans-2d"/>
     <use x="996.345703" xlink:href="#DejaVuSans-30"/>
     <use x="1059.96875" xlink:href="#DejaVuSans-38"/>
    </g>
    <!-- 15 instances -->
    <g transform="translate(60.632064 51.848032)scale(0.102 -0.102)">
     <use xlink:href="#DejaVuSans-31"/>
     <use x="63.623047" xlink:href="#DejaVuSans-35"/>
     <use x="127.246094" xlink:href="#DejaVuSans-20"/>
     <use x="159.033203" xlink:href="#DejaVuSans-69"/>
     <use x="186.816406" xlink:href="#DejaVuSans-6e"/>
     <use x="250.195312" xlink:href="#DejaVuSans-73"/>
     <use x="302.294922" xlink:href="#DejaVuSans-74"/>
     <use x="341.503906" xlink:href="#DejaVuSans-61"/>
     <use x="402.783203" xlink:href="#DejaVuSans-6e"/>
     <use x="466.162109" xlink:href="#DejaVuSans-63"/>
     <use x="521.142578" xlink:href="#DejaVuSans-65"/>
     <use x="582.666016" xlink:href="#DejaVuSans-73"/>
    </g>
   </g>
   <g id="text_19">
    <!-- v2.6 -->
    <g style="fill:#808080;" transform="translate(198.292262 293.943992)scale(0.1 -0.1)">
     <use xlink:href="#DejaVuSans-76"/>
     <use x="59.179688" xlink:href="#DejaVuSans-32"/>
     <use x="122.802734" xlink:href="#DejaVuSans-2e"/>
     <use x="154.589844" xlink:href="#DejaVuSans-36"/>
    </g>
   </g>
  </g>
 </g>
 <defs>
  <clipPath id="p9530a2a9d2">
   <rect height="292.032" width="303.2064" x="57.6" y="6.912"/>
  </clipPath>
 </defs>
</svg>
