<?xml version="1.0" encoding="utf-8" standalone="no"?>
<!DOCTYPE svg PUBLIC "-//W3C//DTD SVG 1.1//EN"
  "http://www.w3.org/Graphics/SVG/1.1/DTD/svg11.dtd">
<svg height="345.6pt" version="1.1" viewBox="0 0 460.8 345.6" width="460.8pt" xmlns="http://www.w3.org/2000/svg" xmlns:xlink="http://www.w3.org/1999/xlink">
 <metadata>
  <rdf:RDF xmlns:cc="http://creativecommons.org/ns#" xmlns:dc="http://purl.org/dc/elements/1.1/" xmlns:rdf="http://www.w3.org/1999/02/22-rdf-syntax-ns#">
   <cc:Work>
    <dc:type rdf:resource="http://purl.org/dc/dcmitype/StillImage"/>
    <dc:date>2022-04-01T21:56:36.995160</dc:date>
    <dc:format>image/svg+xml</dc:format>
    <dc:creator>
     <cc:Agent>
      <dc:title>Matplotlib v3.4.3, https://matplotlib.org/</dc:title>
     </cc:Agent>
    </dc:creator>
   </cc:Work>
  </rdf:RDF>
 </metadata>
 <defs>
  <style type="text/css">*{stroke-linecap:butt;stroke-linejoin:round;}</style>
 </defs>
 <g id="figure_1">
  <g id="patch_1">
   <path d="M 0 345.6 
L 460.8 345.6 
L 460.8 0 
L 0 0 
z
" style="fill:#ffffff;"/>
  </g>
  <g id="axes_1">
   <g id="patch_2">
    <path d="M 57.6 298.944 
L 360.8064 298.944 
L 360.8064 27.648 
L 57.6 27.648 
z
" style="fill:#ffffff;"/>
   </g>
   <g id="matplotlib.axis_1">
    <g id="xtick_1">
     <g id="line2d_1">
      <path clip-path="url(#p1f77ff41a5)" d="M 57.6 298.944 
L 57.6 27.648 
" style="fill:none;stroke:#b0b0b0;stroke-linecap:square;stroke-width:0.8;"/>
     </g>
     <g id="line2d_2">
      <defs>
       <path d="M 0 0 
L 0 3.5 
" id="m439b60947c" style="stroke:#000000;stroke-width:0.8;"/>
      </defs>
      <g>
       <use style="stroke:#000000;stroke-width:0.8;" x="57.6" xlink:href="#m439b60947c" y="298.944"/>
      </g>
     </g>
     <g id="text_1">
      <!-- 0 -->
      <g transform="translate(52.191875 318.861344)scale(0.17 -0.17)">
       <defs>
        <path d="M 2034 4250 
Q 1547 4250 1301 3770 
Q 1056 3291 1056 2328 
Q 1056 1369 1301 889 
Q 1547 409 2034 409 
Q 2525 409 2770 889 
Q 3016 1369 3016 2328 
Q 3016 3291 2770 3770 
Q 2525 4250 2034 4250 
z
M 2034 4750 
Q 2819 4750 3233 4129 
Q 3647 3509 3647 2328 
Q 3647 1150 3233 529 
Q 2819 -91 2034 -91 
Q 1250 -91 836 529 
Q 422 1150 422 2328 
Q 422 3509 836 4129 
Q 1250 4750 2034 4750 
z
" id="DejaVuSans-30" transform="scale(0.015625)"/>
       </defs>
       <use xlink:href="#DejaVuSans-30"/>
      </g>
     </g>
    </g>
    <g id="xtick_2">
     <g id="line2d_3">
      <path clip-path="url(#p1f77ff41a5)" d="M 144.2304 298.944 
L 144.2304 27.648 
" style="fill:none;stroke:#b0b0b0;stroke-linecap:square;stroke-width:0.8;"/>
     </g>
     <g id="line2d_4">
      <g>
       <use style="stroke:#000000;stroke-width:0.8;" x="144.2304" xlink:href="#m439b60947c" y="298.944"/>
      </g>
     </g>
     <g id="text_2">
      <!-- 2 -->
      <g transform="translate(138.822275 318.861344)scale(0.17 -0.17)">
       <defs>
        <path d="M 1228 531 
L 3431 531 
L 3431 0 
L 469 0 
L 469 531 
Q 828 903 1448 1529 
Q 2069 2156 2228 2338 
Q 2531 2678 2651 2914 
Q 2772 3150 2772 3378 
Q 2772 3750 2511 3984 
Q 2250 4219 1831 4219 
Q 1534 4219 1204 4116 
Q 875 4013 500 3803 
L 500 4441 
Q 881 4594 1212 4672 
Q 1544 4750 1819 4750 
Q 2544 4750 2975 4387 
Q 3406 4025 3406 3419 
Q 3406 3131 3298 2873 
Q 3191 2616 2906 2266 
Q 2828 2175 2409 1742 
Q 1991 1309 1228 531 
z
" id="DejaVuSans-32" transform="scale(0.015625)"/>
       </defs>
       <use xlink:href="#DejaVuSans-32"/>
      </g>
     </g>
    </g>
    <g id="xtick_3">
     <g id="line2d_5">
      <path clip-path="url(#p1f77ff41a5)" d="M 230.8608 298.944 
L 230.8608 27.648 
" style="fill:none;stroke:#b0b0b0;stroke-linecap:square;stroke-width:0.8;"/>
     </g>
     <g id="line2d_6">
      <g>
       <use style="stroke:#000000;stroke-width:0.8;" x="230.8608" xlink:href="#m439b60947c" y="298.944"/>
      </g>
     </g>
     <g id="text_3">
      <!-- 4 -->
      <g transform="translate(225.452675 318.861344)scale(0.17 -0.17)">
       <defs>
        <path d="M 2419 4116 
L 825 1625 
L 2419 1625 
L 2419 4116 
z
M 2253 4666 
L 3047 4666 
L 3047 1625 
L 3713 1625 
L 3713 1100 
L 3047 1100 
L 3047 0 
L 2419 0 
L 2419 1100 
L 313 1100 
L 313 1709 
L 2253 4666 
z
" id="DejaVuSans-34" transform="scale(0.015625)"/>
       </defs>
       <use xlink:href="#DejaVuSans-34"/>
      </g>
     </g>
    </g>
    <g id="xtick_4">
     <g id="line2d_7">
      <path clip-path="url(#p1f77ff41a5)" d="M 317.4912 298.944 
L 317.4912 27.648 
" style="fill:none;stroke:#b0b0b0;stroke-linecap:square;stroke-width:0.8;"/>
     </g>
     <g id="line2d_8">
      <g>
       <use style="stroke:#000000;stroke-width:0.8;" x="317.4912" xlink:href="#m439b60947c" y="298.944"/>
      </g>
     </g>
     <g id="text_4">
      <!-- 6 -->
      <g transform="translate(312.083075 318.861344)scale(0.17 -0.17)">
       <defs>
        <path d="M 2113 2584 
Q 1688 2584 1439 2293 
Q 1191 2003 1191 1497 
Q 1191 994 1439 701 
Q 1688 409 2113 409 
Q 2538 409 2786 701 
Q 3034 994 3034 1497 
Q 3034 2003 2786 2293 
Q 2538 2584 2113 2584 
z
M 3366 4563 
L 3366 3988 
Q 3128 4100 2886 4159 
Q 2644 4219 2406 4219 
Q 1781 4219 1451 3797 
Q 1122 3375 1075 2522 
Q 1259 2794 1537 2939 
Q 1816 3084 2150 3084 
Q 2853 3084 3261 2657 
Q 3669 2231 3669 1497 
Q 3669 778 3244 343 
Q 2819 -91 2113 -91 
Q 1303 -91 875 529 
Q 447 1150 447 2328 
Q 447 3434 972 4092 
Q 1497 4750 2381 4750 
Q 2619 4750 2861 4703 
Q 3103 4656 3366 4563 
z
" id="DejaVuSans-36" transform="scale(0.015625)"/>
       </defs>
       <use xlink:href="#DejaVuSans-36"/>
      </g>
     </g>
    </g>
    <g id="xtick_5">
     <g id="line2d_9">
      <path clip-path="url(#p1f77ff41a5)" d="M 100.9152 298.944 
L 100.9152 27.648 
" style="fill:none;stroke:#b0b0b0;stroke-linecap:square;stroke-width:0.8;"/>
     </g>
     <g id="line2d_10">
      <defs>
       <path d="M 0 0 
L 0 2 
" id="m2772f95a7b" style="stroke:#000000;stroke-width:0.6;"/>
      </defs>
      <g>
       <use style="stroke:#000000;stroke-width:0.6;" x="100.9152" xlink:href="#m2772f95a7b" y="298.944"/>
      </g>
     </g>
    </g>
    <g id="xtick_6">
     <g id="line2d_11">
      <path clip-path="url(#p1f77ff41a5)" d="M 187.5456 298.944 
L 187.5456 27.648 
" style="fill:none;stroke:#b0b0b0;stroke-linecap:square;stroke-width:0.8;"/>
     </g>
     <g id="line2d_12">
      <g>
       <use style="stroke:#000000;stroke-width:0.6;" x="187.5456" xlink:href="#m2772f95a7b" y="298.944"/>
      </g>
     </g>
    </g>
    <g id="xtick_7">
     <g id="line2d_13">
      <path clip-path="url(#p1f77ff41a5)" d="M 274.176 298.944 
L 274.176 27.648 
" style="fill:none;stroke:#b0b0b0;stroke-linecap:square;stroke-width:0.8;"/>
     </g>
     <g id="line2d_14">
      <g>
       <use style="stroke:#000000;stroke-width:0.6;" x="274.176" xlink:href="#m2772f95a7b" y="298.944"/>
      </g>
     </g>
    </g>
    <g id="xtick_8">
     <g id="line2d_15">
      <path clip-path="url(#p1f77ff41a5)" d="M 360.8064 298.944 
L 360.8064 27.648 
" style="fill:none;stroke:#b0b0b0;stroke-linecap:square;stroke-width:0.8;"/>
     </g>
     <g id="line2d_16">
      <g>
       <use style="stroke:#000000;stroke-width:0.6;" x="360.8064" xlink:href="#m2772f95a7b" y="298.944"/>
      </g>
     </g>
    </g>
    <g id="text_5">
     <!-- log10(# f-evals / dimension) -->
     <g transform="translate(88.823278 339.314156)scale(0.17 -0.17)">
      <defs>
       <path d="M 603 4863 
L 1178 4863 
L 1178 0 
L 603 0 
L 603 4863 
z
" id="DejaVuSans-6c" transform="scale(0.015625)"/>
       <path d="M 1959 3097 
Q 1497 3097 1228 2736 
Q 959 2375 959 1747 
Q 959 1119 1226 758 
Q 1494 397 1959 397 
Q 2419 397 2687 759 
Q 2956 1122 2956 1747 
Q 2956 2369 2687 2733 
Q 2419 3097 1959 3097 
z
M 1959 3584 
Q 2709 3584 3137 3096 
Q 3566 2609 3566 1747 
Q 3566 888 3137 398 
Q 2709 -91 1959 -91 
Q 1206 -91 779 398 
Q 353 888 353 1747 
Q 353 2609 779 3096 
Q 1206 3584 1959 3584 
z
" id="DejaVuSans-6f" transform="scale(0.015625)"/>
       <path d="M 2906 1791 
Q 2906 2416 2648 2759 
Q 2391 3103 1925 3103 
Q 1463 3103 1205 2759 
Q 947 2416 947 1791 
Q 947 1169 1205 825 
Q 1463 481 1925 481 
Q 2391 481 2648 825 
Q 2906 1169 2906 1791 
z
M 3481 434 
Q 3481 -459 3084 -895 
Q 2688 -1331 1869 -1331 
Q 1566 -1331 1297 -1286 
Q 1028 -1241 775 -1147 
L 775 -588 
Q 1028 -725 1275 -790 
Q 1522 -856 1778 -856 
Q 2344 -856 2625 -561 
Q 2906 -266 2906 331 
L 2906 616 
Q 2728 306 2450 153 
Q 2172 0 1784 0 
Q 1141 0 747 490 
Q 353 981 353 1791 
Q 353 2603 747 3093 
Q 1141 3584 1784 3584 
Q 2172 3584 2450 3431 
Q 2728 3278 2906 2969 
L 2906 3500 
L 3481 3500 
L 3481 434 
z
" id="DejaVuSans-67" transform="scale(0.015625)"/>
       <path d="M 794 531 
L 1825 531 
L 1825 4091 
L 703 3866 
L 703 4441 
L 1819 4666 
L 2450 4666 
L 2450 531 
L 3481 531 
L 3481 0 
L 794 0 
L 794 531 
z
" id="DejaVuSans-31" transform="scale(0.015625)"/>
       <path d="M 1984 4856 
Q 1566 4138 1362 3434 
Q 1159 2731 1159 2009 
Q 1159 1288 1364 580 
Q 1569 -128 1984 -844 
L 1484 -844 
Q 1016 -109 783 600 
Q 550 1309 550 2009 
Q 550 2706 781 3412 
Q 1013 4119 1484 4856 
L 1984 4856 
z
" id="DejaVuSans-28" transform="scale(0.015625)"/>
       <path d="M 3272 2816 
L 2363 2816 
L 2100 1772 
L 3016 1772 
L 3272 2816 
z
M 2803 4594 
L 2478 3297 
L 3391 3297 
L 3719 4594 
L 4219 4594 
L 3897 3297 
L 4872 3297 
L 4872 2816 
L 3775 2816 
L 3519 1772 
L 4513 1772 
L 4513 1294 
L 3397 1294 
L 3072 0 
L 2572 0 
L 2894 1294 
L 1978 1294 
L 1656 0 
L 1153 0 
L 1478 1294 
L 494 1294 
L 494 1772 
L 1594 1772 
L 1856 2816 
L 850 2816 
L 850 3297 
L 1978 3297 
L 2297 4594 
L 2803 4594 
z
" id="DejaVuSans-23" transform="scale(0.015625)"/>
       <path id="DejaVuSans-20" transform="scale(0.015625)"/>
       <path d="M 2375 4863 
L 2375 4384 
L 1825 4384 
Q 1516 4384 1395 4259 
Q 1275 4134 1275 3809 
L 1275 3500 
L 2222 3500 
L 2222 3053 
L 1275 3053 
L 1275 0 
L 697 0 
L 697 3053 
L 147 3053 
L 147 3500 
L 697 3500 
L 697 3744 
Q 697 4328 969 4595 
Q 1241 4863 1831 4863 
L 2375 4863 
z
" id="DejaVuSans-66" transform="scale(0.015625)"/>
       <path d="M 313 2009 
L 1997 2009 
L 1997 1497 
L 313 1497 
L 313 2009 
z
" id="DejaVuSans-2d" transform="scale(0.015625)"/>
       <path d="M 3597 1894 
L 3597 1613 
L 953 1613 
Q 991 1019 1311 708 
Q 1631 397 2203 397 
Q 2534 397 2845 478 
Q 3156 559 3463 722 
L 3463 178 
Q 3153 47 2828 -22 
Q 2503 -91 2169 -91 
Q 1331 -91 842 396 
Q 353 884 353 1716 
Q 353 2575 817 3079 
Q 1281 3584 2069 3584 
Q 2775 3584 3186 3129 
Q 3597 2675 3597 1894 
z
M 3022 2063 
Q 3016 2534 2758 2815 
Q 2500 3097 2075 3097 
Q 1594 3097 1305 2825 
Q 1016 2553 972 2059 
L 3022 2063 
z
" id="DejaVuSans-65" transform="scale(0.015625)"/>
       <path d="M 191 3500 
L 800 3500 
L 1894 563 
L 2988 3500 
L 3597 3500 
L 2284 0 
L 1503 0 
L 191 3500 
z
" id="DejaVuSans-76" transform="scale(0.015625)"/>
       <path d="M 2194 1759 
Q 1497 1759 1228 1600 
Q 959 1441 959 1056 
Q 959 750 1161 570 
Q 1363 391 1709 391 
Q 2188 391 2477 730 
Q 2766 1069 2766 1631 
L 2766 1759 
L 2194 1759 
z
M 3341 1997 
L 3341 0 
L 2766 0 
L 2766 531 
Q 2569 213 2275 61 
Q 1981 -91 1556 -91 
Q 1019 -91 701 211 
Q 384 513 384 1019 
Q 384 1609 779 1909 
Q 1175 2209 1959 2209 
L 2766 2209 
L 2766 2266 
Q 2766 2663 2505 2880 
Q 2244 3097 1772 3097 
Q 1472 3097 1187 3025 
Q 903 2953 641 2809 
L 641 3341 
Q 956 3463 1253 3523 
Q 1550 3584 1831 3584 
Q 2591 3584 2966 3190 
Q 3341 2797 3341 1997 
z
" id="DejaVuSans-61" transform="scale(0.015625)"/>
       <path d="M 2834 3397 
L 2834 2853 
Q 2591 2978 2328 3040 
Q 2066 3103 1784 3103 
Q 1356 3103 1142 2972 
Q 928 2841 928 2578 
Q 928 2378 1081 2264 
Q 1234 2150 1697 2047 
L 1894 2003 
Q 2506 1872 2764 1633 
Q 3022 1394 3022 966 
Q 3022 478 2636 193 
Q 2250 -91 1575 -91 
Q 1294 -91 989 -36 
Q 684 19 347 128 
L 347 722 
Q 666 556 975 473 
Q 1284 391 1588 391 
Q 1994 391 2212 530 
Q 2431 669 2431 922 
Q 2431 1156 2273 1281 
Q 2116 1406 1581 1522 
L 1381 1569 
Q 847 1681 609 1914 
Q 372 2147 372 2553 
Q 372 3047 722 3315 
Q 1072 3584 1716 3584 
Q 2034 3584 2315 3537 
Q 2597 3491 2834 3397 
z
" id="DejaVuSans-73" transform="scale(0.015625)"/>
       <path d="M 1625 4666 
L 2156 4666 
L 531 -594 
L 0 -594 
L 1625 4666 
z
" id="DejaVuSans-2f" transform="scale(0.015625)"/>
       <path d="M 2906 2969 
L 2906 4863 
L 3481 4863 
L 3481 0 
L 2906 0 
L 2906 525 
Q 2725 213 2448 61 
Q 2172 -91 1784 -91 
Q 1150 -91 751 415 
Q 353 922 353 1747 
Q 353 2572 751 3078 
Q 1150 3584 1784 3584 
Q 2172 3584 2448 3432 
Q 2725 3281 2906 2969 
z
M 947 1747 
Q 947 1113 1208 752 
Q 1469 391 1925 391 
Q 2381 391 2643 752 
Q 2906 1113 2906 1747 
Q 2906 2381 2643 2742 
Q 2381 3103 1925 3103 
Q 1469 3103 1208 2742 
Q 947 2381 947 1747 
z
" id="DejaVuSans-64" transform="scale(0.015625)"/>
       <path d="M 603 3500 
L 1178 3500 
L 1178 0 
L 603 0 
L 603 3500 
z
M 603 4863 
L 1178 4863 
L 1178 4134 
L 603 4134 
L 603 4863 
z
" id="DejaVuSans-69" transform="scale(0.015625)"/>
       <path d="M 3328 2828 
Q 3544 3216 3844 3400 
Q 4144 3584 4550 3584 
Q 5097 3584 5394 3201 
Q 5691 2819 5691 2113 
L 5691 0 
L 5113 0 
L 5113 2094 
Q 5113 2597 4934 2840 
Q 4756 3084 4391 3084 
Q 3944 3084 3684 2787 
Q 3425 2491 3425 1978 
L 3425 0 
L 2847 0 
L 2847 2094 
Q 2847 2600 2669 2842 
Q 2491 3084 2119 3084 
Q 1678 3084 1418 2786 
Q 1159 2488 1159 1978 
L 1159 0 
L 581 0 
L 581 3500 
L 1159 3500 
L 1159 2956 
Q 1356 3278 1631 3431 
Q 1906 3584 2284 3584 
Q 2666 3584 2933 3390 
Q 3200 3197 3328 2828 
z
" id="DejaVuSans-6d" transform="scale(0.015625)"/>
       <path d="M 3513 2113 
L 3513 0 
L 2938 0 
L 2938 2094 
Q 2938 2591 2744 2837 
Q 2550 3084 2163 3084 
Q 1697 3084 1428 2787 
Q 1159 2491 1159 1978 
L 1159 0 
L 581 0 
L 581 3500 
L 1159 3500 
L 1159 2956 
Q 1366 3272 1645 3428 
Q 1925 3584 2291 3584 
Q 2894 3584 3203 3211 
Q 3513 2838 3513 2113 
z
" id="DejaVuSans-6e" transform="scale(0.015625)"/>
       <path d="M 513 4856 
L 1013 4856 
Q 1481 4119 1714 3412 
Q 1947 2706 1947 2009 
Q 1947 1309 1714 600 
Q 1481 -109 1013 -844 
L 513 -844 
Q 928 -128 1133 580 
Q 1338 1288 1338 2009 
Q 1338 2731 1133 3434 
Q 928 4138 513 4856 
z
" id="DejaVuSans-29" transform="scale(0.015625)"/>
      </defs>
      <use xlink:href="#DejaVuSans-6c"/>
      <use x="27.783203" xlink:href="#DejaVuSans-6f"/>
      <use x="88.964844" xlink:href="#DejaVuSans-67"/>
      <use x="152.441406" xlink:href="#DejaVuSans-31"/>
      <use x="216.064453" xlink:href="#DejaVuSans-30"/>
      <use x="279.6875" xlink:href="#DejaVuSans-28"/>
      <use x="318.701172" xlink:href="#DejaVuSans-23"/>
      <use x="402.490234" xlink:href="#DejaVuSans-20"/>
      <use x="434.277344" xlink:href="#DejaVuSans-66"/>
      <use x="463.982422" xlink:href="#DejaVuSans-2d"/>
      <use x="500.066406" xlink:href="#DejaVuSans-65"/>
      <use x="561.589844" xlink:href="#DejaVuSans-76"/>
      <use x="620.769531" xlink:href="#DejaVuSans-61"/>
      <use x="682.048828" xlink:href="#DejaVuSans-6c"/>
      <use x="709.832031" xlink:href="#DejaVuSans-73"/>
      <use x="761.931641" xlink:href="#DejaVuSans-20"/>
      <use x="793.71875" xlink:href="#DejaVuSans-2f"/>
      <use x="827.410156" xlink:href="#DejaVuSans-20"/>
      <use x="859.197266" xlink:href="#DejaVuSans-64"/>
      <use x="922.673828" xlink:href="#DejaVuSans-69"/>
      <use x="950.457031" xlink:href="#DejaVuSans-6d"/>
      <use x="1047.869141" xlink:href="#DejaVuSans-65"/>
      <use x="1109.392578" xlink:href="#DejaVuSans-6e"/>
      <use x="1172.771484" xlink:href="#DejaVuSans-73"/>
      <use x="1224.871094" xlink:href="#DejaVuSans-69"/>
      <use x="1252.654297" xlink:href="#DejaVuSans-6f"/>
      <use x="1313.835938" xlink:href="#DejaVuSans-6e"/>
      <use x="1377.214844" xlink:href="#DejaVuSans-29"/>
     </g>
    </g>
   </g>
   <g id="matplotlib.axis_2">
    <g id="ytick_1">
     <g id="line2d_17">
      <path clip-path="url(#p1f77ff41a5)" d="M 57.6 298.944 
L 360.8064 298.944 
" style="fill:none;stroke:#b0b0b0;stroke-linecap:square;stroke-width:0.8;"/>
     </g>
     <g id="line2d_18">
      <defs>
       <path d="M 0 0 
L -3.5 0 
" id="m57087b7e1c" style="stroke:#000000;stroke-width:0.8;"/>
      </defs>
      <g>
       <use style="stroke:#000000;stroke-width:0.8;" x="57.6" xlink:href="#m57087b7e1c" y="298.944"/>
      </g>
     </g>
     <g id="text_6">
      <!-- 0.0 -->
      <g transform="translate(25.155 305.02275)scale(0.16 -0.16)">
       <defs>
        <path d="M 684 794 
L 1344 794 
L 1344 0 
L 684 0 
L 684 794 
z
" id="DejaVuSans-2e" transform="scale(0.015625)"/>
       </defs>
       <use xlink:href="#DejaVuSans-30"/>
       <use x="63.623047" xlink:href="#DejaVuSans-2e"/>
       <use x="95.410156" xlink:href="#DejaVuSans-30"/>
      </g>
     </g>
    </g>
    <g id="ytick_2">
     <g id="line2d_19">
      <path clip-path="url(#p1f77ff41a5)" d="M 57.6 244.6848 
L 360.8064 244.6848 
" style="fill:none;stroke:#b0b0b0;stroke-linecap:square;stroke-width:0.8;"/>
     </g>
     <g id="line2d_20">
      <g>
       <use style="stroke:#000000;stroke-width:0.8;" x="57.6" xlink:href="#m57087b7e1c" y="244.6848"/>
      </g>
     </g>
     <g id="text_7">
      <!-- 0.2 -->
      <g transform="translate(25.155 250.76355)scale(0.16 -0.16)">
       <use xlink:href="#DejaVuSans-30"/>
       <use x="63.623047" xlink:href="#DejaVuSans-2e"/>
       <use x="95.410156" xlink:href="#DejaVuSans-32"/>
      </g>
     </g>
    </g>
    <g id="ytick_3">
     <g id="line2d_21">
      <path clip-path="url(#p1f77ff41a5)" d="M 57.6 190.4256 
L 360.8064 190.4256 
" style="fill:none;stroke:#b0b0b0;stroke-linecap:square;stroke-width:0.8;"/>
     </g>
     <g id="line2d_22">
      <g>
       <use style="stroke:#000000;stroke-width:0.8;" x="57.6" xlink:href="#m57087b7e1c" y="190.4256"/>
      </g>
     </g>
     <g id="text_8">
      <!-- 0.4 -->
      <g transform="translate(25.155 196.50435)scale(0.16 -0.16)">
       <use xlink:href="#DejaVuSans-30"/>
       <use x="63.623047" xlink:href="#DejaVuSans-2e"/>
       <use x="95.410156" xlink:href="#DejaVuSans-34"/>
      </g>
     </g>
    </g>
    <g id="ytick_4">
     <g id="line2d_23">
      <path clip-path="url(#p1f77ff41a5)" d="M 57.6 136.1664 
L 360.8064 136.1664 
" style="fill:none;stroke:#b0b0b0;stroke-linecap:square;stroke-width:0.8;"/>
     </g>
     <g id="line2d_24">
      <g>
       <use style="stroke:#000000;stroke-width:0.8;" x="57.6" xlink:href="#m57087b7e1c" y="136.1664"/>
      </g>
     </g>
     <g id="text_9">
      <!-- 0.6 -->
      <g transform="translate(25.155 142.24515)scale(0.16 -0.16)">
       <use xlink:href="#DejaVuSans-30"/>
       <use x="63.623047" xlink:href="#DejaVuSans-2e"/>
       <use x="95.410156" xlink:href="#DejaVuSans-36"/>
      </g>
     </g>
    </g>
    <g id="ytick_5">
     <g id="line2d_25">
      <path clip-path="url(#p1f77ff41a5)" d="M 57.6 81.9072 
L 360.8064 81.9072 
" style="fill:none;stroke:#b0b0b0;stroke-linecap:square;stroke-width:0.8;"/>
     </g>
     <g id="line2d_26">
      <g>
       <use style="stroke:#000000;stroke-width:0.8;" x="57.6" xlink:href="#m57087b7e1c" y="81.9072"/>
      </g>
     </g>
     <g id="text_10">
      <!-- 0.8 -->
      <g transform="translate(25.155 87.98595)scale(0.16 -0.16)">
       <defs>
        <path d="M 2034 2216 
Q 1584 2216 1326 1975 
Q 1069 1734 1069 1313 
Q 1069 891 1326 650 
Q 1584 409 2034 409 
Q 2484 409 2743 651 
Q 3003 894 3003 1313 
Q 3003 1734 2745 1975 
Q 2488 2216 2034 2216 
z
M 1403 2484 
Q 997 2584 770 2862 
Q 544 3141 544 3541 
Q 544 4100 942 4425 
Q 1341 4750 2034 4750 
Q 2731 4750 3128 4425 
Q 3525 4100 3525 3541 
Q 3525 3141 3298 2862 
Q 3072 2584 2669 2484 
Q 3125 2378 3379 2068 
Q 3634 1759 3634 1313 
Q 3634 634 3220 271 
Q 2806 -91 2034 -91 
Q 1263 -91 848 271 
Q 434 634 434 1313 
Q 434 1759 690 2068 
Q 947 2378 1403 2484 
z
M 1172 3481 
Q 1172 3119 1398 2916 
Q 1625 2713 2034 2713 
Q 2441 2713 2670 2916 
Q 2900 3119 2900 3481 
Q 2900 3844 2670 4047 
Q 2441 4250 2034 4250 
Q 1625 4250 1398 4047 
Q 1172 3844 1172 3481 
z
" id="DejaVuSans-38" transform="scale(0.015625)"/>
       </defs>
       <use xlink:href="#DejaVuSans-30"/>
       <use x="63.623047" xlink:href="#DejaVuSans-2e"/>
       <use x="95.410156" xlink:href="#DejaVuSans-38"/>
      </g>
     </g>
    </g>
    <g id="ytick_6">
     <g id="line2d_27">
      <path clip-path="url(#p1f77ff41a5)" d="M 57.6 27.648 
L 360.8064 27.648 
" style="fill:none;stroke:#b0b0b0;stroke-linecap:square;stroke-width:0.8;"/>
     </g>
     <g id="line2d_28">
      <g>
       <use style="stroke:#000000;stroke-width:0.8;" x="57.6" xlink:href="#m57087b7e1c" y="27.648"/>
      </g>
     </g>
     <g id="text_11">
      <!-- 1.0 -->
      <g transform="translate(25.155 33.72675)scale(0.16 -0.16)">
       <use xlink:href="#DejaVuSans-31"/>
       <use x="63.623047" xlink:href="#DejaVuSans-2e"/>
       <use x="95.410156" xlink:href="#DejaVuSans-30"/>
      </g>
     </g>
    </g>
    <g id="text_12">
     <!-- Fraction of function,target pairs -->
     <g transform="translate(17.619531 297.681)rotate(-90)scale(0.17 -0.17)">
      <defs>
       <path d="M 628 4666 
L 3309 4666 
L 3309 4134 
L 1259 4134 
L 1259 2759 
L 3109 2759 
L 3109 2228 
L 1259 2228 
L 1259 0 
L 628 0 
L 628 4666 
z
" id="DejaVuSans-46" transform="scale(0.015625)"/>
       <path d="M 2631 2963 
Q 2534 3019 2420 3045 
Q 2306 3072 2169 3072 
Q 1681 3072 1420 2755 
Q 1159 2438 1159 1844 
L 1159 0 
L 581 0 
L 581 3500 
L 1159 3500 
L 1159 2956 
Q 1341 3275 1631 3429 
Q 1922 3584 2338 3584 
Q 2397 3584 2469 3576 
Q 2541 3569 2628 3553 
L 2631 2963 
z
" id="DejaVuSans-72" transform="scale(0.015625)"/>
       <path d="M 3122 3366 
L 3122 2828 
Q 2878 2963 2633 3030 
Q 2388 3097 2138 3097 
Q 1578 3097 1268 2742 
Q 959 2388 959 1747 
Q 959 1106 1268 751 
Q 1578 397 2138 397 
Q 2388 397 2633 464 
Q 2878 531 3122 666 
L 3122 134 
Q 2881 22 2623 -34 
Q 2366 -91 2075 -91 
Q 1284 -91 818 406 
Q 353 903 353 1747 
Q 353 2603 823 3093 
Q 1294 3584 2113 3584 
Q 2378 3584 2631 3529 
Q 2884 3475 3122 3366 
z
" id="DejaVuSans-63" transform="scale(0.015625)"/>
       <path d="M 1172 4494 
L 1172 3500 
L 2356 3500 
L 2356 3053 
L 1172 3053 
L 1172 1153 
Q 1172 725 1289 603 
Q 1406 481 1766 481 
L 2356 481 
L 2356 0 
L 1766 0 
Q 1100 0 847 248 
Q 594 497 594 1153 
L 594 3053 
L 172 3053 
L 172 3500 
L 594 3500 
L 594 4494 
L 1172 4494 
z
" id="DejaVuSans-74" transform="scale(0.015625)"/>
       <path d="M 544 1381 
L 544 3500 
L 1119 3500 
L 1119 1403 
Q 1119 906 1312 657 
Q 1506 409 1894 409 
Q 2359 409 2629 706 
Q 2900 1003 2900 1516 
L 2900 3500 
L 3475 3500 
L 3475 0 
L 2900 0 
L 2900 538 
Q 2691 219 2414 64 
Q 2138 -91 1772 -91 
Q 1169 -91 856 284 
Q 544 659 544 1381 
z
M 1991 3584 
L 1991 3584 
z
" id="DejaVuSans-75" transform="scale(0.015625)"/>
       <path d="M 750 794 
L 1409 794 
L 1409 256 
L 897 -744 
L 494 -744 
L 750 256 
L 750 794 
z
" id="DejaVuSans-2c" transform="scale(0.015625)"/>
       <path d="M 1159 525 
L 1159 -1331 
L 581 -1331 
L 581 3500 
L 1159 3500 
L 1159 2969 
Q 1341 3281 1617 3432 
Q 1894 3584 2278 3584 
Q 2916 3584 3314 3078 
Q 3713 2572 3713 1747 
Q 3713 922 3314 415 
Q 2916 -91 2278 -91 
Q 1894 -91 1617 61 
Q 1341 213 1159 525 
z
M 3116 1747 
Q 3116 2381 2855 2742 
Q 2594 3103 2138 3103 
Q 1681 3103 1420 2742 
Q 1159 2381 1159 1747 
Q 1159 1113 1420 752 
Q 1681 391 2138 391 
Q 2594 391 2855 752 
Q 3116 1113 3116 1747 
z
" id="DejaVuSans-70" transform="scale(0.015625)"/>
      </defs>
      <use xlink:href="#DejaVuSans-46"/>
      <use x="50.269531" xlink:href="#DejaVuSans-72"/>
      <use x="91.382812" xlink:href="#DejaVuSans-61"/>
      <use x="152.662109" xlink:href="#DejaVuSans-63"/>
      <use x="207.642578" xlink:href="#DejaVuSans-74"/>
      <use x="246.851562" xlink:href="#DejaVuSans-69"/>
      <use x="274.634766" xlink:href="#DejaVuSans-6f"/>
      <use x="335.816406" xlink:href="#DejaVuSans-6e"/>
      <use x="399.195312" xlink:href="#DejaVuSans-20"/>
      <use x="430.982422" xlink:href="#DejaVuSans-6f"/>
      <use x="492.164062" xlink:href="#DejaVuSans-66"/>
      <use x="527.369141" xlink:href="#DejaVuSans-20"/>
      <use x="559.15625" xlink:href="#DejaVuSans-66"/>
      <use x="594.361328" xlink:href="#DejaVuSans-75"/>
      <use x="657.740234" xlink:href="#DejaVuSans-6e"/>
      <use x="721.119141" xlink:href="#DejaVuSans-63"/>
      <use x="776.099609" xlink:href="#DejaVuSans-74"/>
      <use x="815.308594" xlink:href="#DejaVuSans-69"/>
      <use x="843.091797" xlink:href="#DejaVuSans-6f"/>
      <use x="904.273438" xlink:href="#DejaVuSans-6e"/>
      <use x="967.652344" xlink:href="#DejaVuSans-2c"/>
      <use x="999.439453" xlink:href="#DejaVuSans-74"/>
      <use x="1038.648438" xlink:href="#DejaVuSans-61"/>
      <use x="1099.927734" xlink:href="#DejaVuSans-72"/>
      <use x="1139.291016" xlink:href="#DejaVuSans-67"/>
      <use x="1202.767578" xlink:href="#DejaVuSans-65"/>
      <use x="1264.291016" xlink:href="#DejaVuSans-74"/>
      <use x="1303.5" xlink:href="#DejaVuSans-20"/>
      <use x="1335.287109" xlink:href="#DejaVuSans-70"/>
      <use x="1398.763672" xlink:href="#DejaVuSans-61"/>
      <use x="1460.042969" xlink:href="#DejaVuSans-69"/>
      <use x="1487.826172" xlink:href="#DejaVuSans-72"/>
      <use x="1528.939453" xlink:href="#DejaVuSans-73"/>
     </g>
    </g>
   </g>
   <g id="line2d_29">
    <defs>
     <path d="M 0 1.5 
C 0.397805 1.5 0.77937 1.341951 1.06066 1.06066 
C 1.341951 0.77937 1.5 0.397805 1.5 0 
C 1.5 -0.397805 1.341951 -0.77937 1.06066 -1.06066 
C 0.77937 -1.341951 0.397805 -1.5 0 -1.5 
C -0.397805 -1.5 -0.77937 -1.341951 -1.06066 -1.06066 
C -1.341951 -0.77937 -1.5 -0.397805 -1.5 0 
C -1.5 0.397805 -1.341951 0.77937 -1.06066 1.06066 
C -0.77937 1.341951 -0.397805 1.5 0 1.5 
z
" id="m19c545600e" style="stroke:#00bfbf;"/>
    </defs>
    <g>
     <use style="fill:#00bfbf;stroke:#00bfbf;" x="276.723418" xlink:href="#m19c545600e" y="75.523765"/>
     <use style="fill:#00bfbf;stroke:#00bfbf;" x="276.723418" xlink:href="#m19c545600e" y="75.523765"/>
    </g>
   </g>
   <g id="line2d_30">
    <path d="M 44.560826 298.944 
L 44.560826 285.822494 
L 57.6 285.822494 
L 57.6 275.183435 
L 65.227428 275.183435 
L 65.227428 268.090729 
L 70.639174 268.090729 
L 70.639174 256.387765 
L 78.266603 256.387765 
L 78.266603 254.614588 
L 81.166416 254.614588 
L 81.166416 253.550682 
L 85.894031 253.550682 
L 85.894031 252.132141 
L 87.876026 252.132141 
L 87.876026 251.422871 
L 89.668958 251.422871 
L 89.668958 250.7136 
L 94.205591 250.7136 
L 94.205591 250.358965 
L 96.717523 250.358965 
L 96.717523 247.876518 
L 97.857967 247.876518 
L 97.857967 247.521882 
L 98.933205 247.521882 
L 98.933205 246.457976 
L 100.9152 246.457976 
L 100.9152 245.394071 
L 103.544339 245.394071 
L 103.544339 244.6848 
L 105.112877 244.6848 
L 105.112877 243.975529 
L 106.560633 243.975529 
L 106.560633 242.202353 
L 111.442442 242.202353 
L 111.442442 241.847718 
L 115.314838 241.847718 
L 115.314838 241.493082 
L 118.524569 241.493082 
L 118.524569 240.429176 
L 121.892744 240.429176 
L 121.892744 240.074541 
L 123.08753 240.074541 
L 123.08753 239.719906 
L 126.756923 239.719906 
L 126.756923 239.010635 
L 127.686077 239.010635 
L 127.686077 238.301365 
L 130.618241 238.301365 
L 130.618241 237.592094 
L 134.14471 237.592094 
L 134.14471 235.818918 
L 135.981441 235.818918 
L 135.981441 235.464282 
L 136.555884 235.464282 
L 136.555884 234.400376 
L 137.113304 234.400376 
L 137.113304 232.6272 
L 138.692823 232.6272 
L 138.692823 231.208659 
L 141.283499 231.208659 
L 141.283499 229.435482 
L 142.352625 229.435482 
L 142.352625 228.726212 
L 142.966099 228.726212 
L 142.966099 227.307671 
L 143.364242 227.307671 
L 143.364242 225.889129 
L 144.324223 225.889129 
L 144.324223 225.179859 
L 144.694906 225.179859 
L 144.694906 224.115953 
L 144.877544 224.115953 
L 144.877544 223.761318 
L 145.590864 223.761318 
L 145.590864 222.697412 
L 146.777571 222.697412 
L 146.777571 222.342776 
L 152.413875 222.342776 
L 152.413875 221.988141 
L 155.13016 221.988141 
L 155.13016 221.633506 
L 155.339761 221.633506 
L 155.443693 220.5696 
L 155.752086 220.5696 
L 155.752086 219.860329 
L 156.354107 219.860329 
L 156.354107 218.441788 
L 157.962102 218.441788 
L 157.962102 218.087153 
L 159.693121 218.087153 
L 159.693121 217.377882 
L 160.894266 217.377882 
L 160.894266 214.895435 
L 162.880139 214.895435 
L 162.880139 212.767624 
L 167.056864 212.767624 
L 167.056864 212.058353 
L 168.248209 212.058353 
L 168.248209 211.703718 
L 168.404973 211.703718 
L 168.404973 210.994447 
L 170.37916 210.994447 
L 170.37916 209.575906 
L 171.865055 209.575906 
L 171.865055 209.221271 
L 172.958324 209.221271 
L 172.958324 208.866635 
L 175.007602 208.866635 
L 175.007602 208.157365 
L 176.888582 208.157365 
L 176.888582 207.448094 
L 177.217177 207.448094 
L 177.249723 206.384188 
L 177.54013 206.384188 
L 177.54013 204.965647 
L 179.135545 204.965647 
L 179.135545 204.611012 
L 179.252842 204.611012 
L 179.252842 203.901741 
L 179.686307 203.901741 
L 179.686307 202.837835 
L 180.082057 202.837835 
L 180.082057 202.4832 
L 181.009863 202.4832 
L 181.009863 201.419294 
L 181.247987 201.419294 
L 181.247987 200.000753 
L 181.560869 200.000753 
L 181.560869 199.646118 
L 184.850033 199.646118 
L 184.850033 197.518306 
L 185.300502 197.518306 
L 185.300502 197.163671 
L 186.649872 197.163671 
L 186.649872 195.035859 
L 187.347034 195.035859 
L 187.347034 194.326588 
L 188.879797 194.326588 
L 188.897312 192.553412 
L 191.478054 192.553412 
L 191.493311 191.134871 
L 192.718339 191.134871 
L 192.718339 189.007059 
L 194.029057 189.007059 
L 194.029057 188.297788 
L 196.025041 188.297788 
L 196.025041 187.233882 
L 196.730777 187.233882 
L 196.730777 186.879247 
L 197.24323 186.879247 
L 197.24323 186.169976 
L 198.576634 186.169976 
L 198.576634 181.914353 
L 198.826142 181.914353 
L 198.826142 181.205082 
L 199.234772 181.205082 
L 199.234772 178.368 
L 200.026329 178.368 
L 200.026329 177.658729 
L 200.390961 177.658729 
L 200.390961 177.304094 
L 205.502157 177.304094 
L 205.502157 176.949459 
L 206.009449 176.949459 
L 206.009449 175.885553 
L 206.407039 175.885553 
L 206.407039 174.821647 
L 207.421402 174.821647 
L 207.421402 174.112376 
L 207.981925 174.112376 
L 207.981925 173.048471 
L 208.728637 173.048471 
L 208.728637 172.3392 
L 209.680269 172.3392 
L 209.680269 171.629929 
L 210.155594 171.629929 
L 210.155594 170.566024 
L 211.847234 170.566024 
L 211.847234 170.211388 
L 212.696134 170.211388 
L 212.696134 167.374306 
L 212.814338 167.374306 
L 212.814338 165.955765 
L 213.009708 165.955765 
L 213.009708 163.473318 
L 213.394465 163.473318 
L 213.394465 162.054776 
L 216.571403 162.054776 
L 216.571403 161.700141 
L 216.799206 161.700141 
L 216.799206 160.636235 
L 217.721659 160.636235 
L 217.721659 159.572329 
L 218.170153 159.572329 
L 218.170153 158.508424 
L 218.751981 158.508424 
L 218.751981 158.153788 
L 219.046861 158.153788 
L 219.046861 155.316706 
L 219.378797 155.316706 
L 219.378797 154.962071 
L 220.67031 154.962071 
L 220.747757 151.770353 
L 220.876131 151.770353 
L 220.876131 151.415718 
L 221.130281 151.415718 
L 221.130281 151.061082 
L 222.086902 151.061082 
L 222.086902 150.706447 
L 223.454514 150.706447 
L 223.454514 150.351812 
L 223.870972 150.351812 
L 223.870972 149.997176 
L 224.106797 149.997176 
L 224.106797 149.642541 
L 224.427297 149.642541 
L 224.427297 148.578635 
L 225.060049 148.578635 
L 225.060049 146.096188 
L 225.301748 146.096188 
L 225.301748 145.032282 
L 225.844918 145.032282 
L 225.844918 144.677647 
L 226.253062 144.677647 
L 226.310652 142.549835 
L 226.406246 142.549835 
L 226.406246 141.131294 
L 226.595988 141.131294 
L 226.595988 140.776659 
L 228.360688 140.776659 
L 228.360688 140.422024 
L 228.865214 140.422024 
L 228.865214 138.648847 
L 229.114556 138.648847 
L 229.114556 138.294212 
L 229.609572 138.294212 
L 229.609572 136.875671 
L 230.552601 136.875671 
L 230.598439 135.457129 
L 230.674588 135.457129 
L 230.674588 133.683953 
L 230.825966 133.683953 
L 230.825966 133.329318 
L 232.659717 133.329318 
L 232.659717 132.974682 
L 232.863758 132.974682 
L 232.863758 132.620047 
L 233.270284 132.620047 
L 233.270284 131.201506 
L 233.781295 131.201506 
L 233.781295 130.492235 
L 234.049956 130.492235 
L 234.151302 128.009788 
L 234.277222 128.009788 
L 234.277222 127.300518 
L 235.279153 127.300518 
L 235.279153 126.945882 
L 235.815804 126.945882 
L 235.815804 126.591247 
L 236.33335 126.591247 
L 236.33335 126.236612 
L 236.768456 126.236612 
L 236.768456 125.881976 
L 236.997909 125.881976 
L 237.084589 121.626353 
L 237.192381 121.626353 
L 237.192381 121.271718 
L 238.217281 121.271718 
L 238.217281 120.917082 
L 238.517676 120.917082 
L 238.517676 120.562447 
L 238.667337 120.562447 
L 238.667337 120.207812 
L 238.9668 120.207812 
L 238.9668 119.143906 
L 239.345634 119.143906 
L 239.345634 118.789271 
L 239.545866 118.789271 
L 239.574298 117.370729 
L 239.715814 117.370729 
L 239.715814 117.016094 
L 241.276454 117.016094 
L 241.276454 115.597553 
L 241.611906 115.597553 
L 241.611906 114.888282 
L 241.789519 114.888282 
L 241.856743 113.469741 
L 241.940436 113.469741 
L 241.940436 113.115106 
L 243.333291 113.115106 
L 243.333291 110.632659 
L 243.793861 110.632659 
L 243.854301 109.214118 
L 244.972574 109.214118 
L 244.972574 108.504847 
L 245.187237 108.504847 
L 245.187237 107.795576 
L 245.605057 107.795576 
L 245.605057 107.086306 
L 245.728359 107.086306 
L 245.728359 106.731671 
L 246.678601 106.731671 
L 246.678601 106.377035 
L 246.87475 106.377035 
L 246.87475 105.667765 
L 247.257083 105.667765 
L 247.275958 104.958494 
L 247.370049 104.958494 
L 247.370049 104.603859 
L 248.423266 104.603859 
L 248.423266 102.121412 
L 248.653333 102.121412 
L 248.653333 101.057506 
L 248.822064 101.057506 
L 248.822064 100.702871 
L 249.603494 100.702871 
L 249.603494 100.348235 
L 249.853951 100.348235 
L 249.853951 98.575059 
L 250.180768 98.575059 
L 250.223828 96.801882 
L 251.183475 96.801882 
L 251.183475 96.092612 
L 251.488171 96.092612 
L 251.578438 95.028706 
L 252.425205 95.028706 
L 252.425205 94.674071 
L 252.710584 94.674071 
L 252.795185 93.255529 
L 253.59002 93.255529 
L 253.59002 92.900894 
L 253.93799 92.900894 
L 253.93799 92.546259 
L 254.686896 92.546259 
L 254.686896 92.191624 
L 254.852091 92.191624 
L 254.852091 91.836988 
L 255.723323 91.836988 
L 255.723323 91.127718 
L 256.034294 91.127718 
L 256.034294 90.773082 
L 256.705618 90.773082 
L 256.705618 90.418447 
L 256.944556 90.418447 
L 256.944556 90.063812 
L 257.639155 90.063812 
L 257.639155 88.999906 
L 257.920238 88.999906 
L 257.920238 88.645271 
L 258.528546 88.645271 
L 258.528546 88.290635 
L 258.745544 88.290635 
L 258.745544 87.226729 
L 259.37778 87.226729 
L 259.37778 86.872094 
L 260.313757 86.872094 
L 260.404726 86.162824 
L 260.435993 86.162824 
L 260.435993 85.808188 
L 260.969223 85.808188 
L 260.969223 85.453553 
L 261.204988 85.453553 
L 261.204988 85.098918 
L 261.900476 85.098918 
L 261.900476 84.744282 
L 263.129296 84.744282 
L 263.129296 84.035012 
L 263.299426 84.035012 
L 263.299426 83.680376 
L 263.797509 83.680376 
L 263.797509 83.325741 
L 264.00054 83.325741 
L 264.00054 82.616471 
L 264.442798 82.616471 
L 264.442798 82.261835 
L 264.601503 82.261835 
L 264.601503 81.9072 
L 264.99235 81.9072 
L 265.066685 81.197929 
L 266.823043 81.197929 
L 266.823043 80.843294 
L 268.429329 80.843294 
L 268.429329 80.134024 
L 268.935659 80.134024 
L 269.013293 79.070118 
L 269.060757 79.070118 
L 269.090362 78.360847 
L 269.909182 78.360847 
L 269.909182 78.006212 
L 270.974695 78.006212 
L 270.974695 77.651576 
L 271.824942 77.651576 
L 271.824942 77.296941 
L 272.662895 77.296941 
L 272.662895 76.942306 
L 273.092206 76.942306 
L 273.092206 76.587671 
L 273.366192 76.587671 
L 273.366192 75.8784 
L 276.723418 75.8784 
L 276.723418 75.523765 
L 360.8064 75.523765 
L 360.8064 75.523765 
" style="fill:none;stroke:#00bfbf;stroke-linecap:square;stroke-width:1.5;"/>
   </g>
   <g id="line2d_31">
    <defs>
     <path d="M -6 0 
L 6 0 
M 0 6 
L 0 -6 
" id="m4794bc0575" style="stroke:#00bfbf;stroke-width:1.5;"/>
    </defs>
    <g>
     <use style="fill-opacity:0;stroke:#00bfbf;stroke-width:1.5;" x="85.894031" xlink:href="#m4794bc0575" y="252.132141"/>
     <use style="fill-opacity:0;stroke:#00bfbf;stroke-width:1.5;" x="168.404973" xlink:href="#m4794bc0575" y="210.994447"/>
     <use style="fill-opacity:0;stroke:#00bfbf;stroke-width:1.5;" x="220.67031" xlink:href="#m4794bc0575" y="154.962071"/>
     <use style="fill-opacity:0;stroke:#00bfbf;stroke-width:1.5;" x="255.723323" xlink:href="#m4794bc0575" y="91.836988"/>
     <use style="fill-opacity:0;stroke:#00bfbf;stroke-width:1.5;" x="276.723418" xlink:href="#m4794bc0575" y="75.523765"/>
     <use style="fill-opacity:0;stroke:#00bfbf;stroke-width:1.5;" x="360.8064" xlink:href="#m4794bc0575" y="75.523765"/>
    </g>
   </g>
   <g id="line2d_32">
    <path style="fill:none;stroke:#00bfbf;stroke-linecap:square;stroke-width:1.5;"/>
    <g/>
   </g>
   <g id="line2d_33">
    <path clip-path="url(#p1f77ff41a5)" d="M 200.678598 177.304094 
" style="fill:none;stroke:#00bfbf;stroke-linecap:square;stroke-width:1.5;"/>
    <defs>
     <path d="M -12 12 
L 12 -12 
M -12 -12 
L 12 12 
" id="meb11a58c62" style="stroke:#00bfbf;"/>
    </defs>
    <g clip-path="url(#p1f77ff41a5)">
     <use style="fill:#00bfbf;stroke:#00bfbf;" x="200.678598" xlink:href="#meb11a58c62" y="177.304094"/>
    </g>
   </g>
   <g id="line2d_34">
    <defs>
     <path d="M 0 1.5 
C 0.397805 1.5 0.77937 1.341951 1.06066 1.06066 
C 1.341951 0.77937 1.5 0.397805 1.5 0 
C 1.5 -0.397805 1.341951 -0.77937 1.06066 -1.06066 
C 0.77937 -1.341951 0.397805 -1.5 0 -1.5 
C -0.397805 -1.5 -0.77937 -1.341951 -1.06066 -1.06066 
C -1.341951 -0.77937 -1.5 -0.397805 -1.5 0 
C -1.5 0.397805 -1.341951 0.77937 -1.06066 1.06066 
C -0.77937 1.341951 -0.397805 1.5 0 1.5 
z
" id="mb9c0ce2263" style="stroke:#008000;"/>
    </defs>
    <g>
     <use style="fill:#008000;stroke:#008000;" x="263.24126" xlink:href="#mb9c0ce2263" y="208.512"/>
     <use style="fill:#008000;stroke:#008000;" x="263.24126" xlink:href="#mb9c0ce2263" y="208.512"/>
    </g>
   </g>
   <g id="line2d_35">
    <path d="M 36.933397 298.944 
L 36.933397 282.276141 
L 49.972572 282.276141 
L 49.972572 279.084424 
L 57.6 279.084424 
L 57.6 277.311247 
L 63.011746 277.311247 
L 63.011746 274.474165 
L 67.209423 274.474165 
L 67.209423 272.346353 
L 70.639174 272.346353 
L 70.639174 269.863906 
L 73.538988 269.863906 
L 73.538988 269.509271 
L 76.050921 269.509271 
L 76.050921 269.154635 
L 78.266603 269.154635 
L 78.266603 268.445365 
L 80.248597 268.445365 
L 80.248597 268.090729 
L 82.04153 268.090729 
L 82.04153 266.672188 
L 83.678349 266.672188 
L 83.678349 265.253647 
L 87.876026 265.253647 
L 87.876026 262.416565 
L 89.090095 262.416565 
L 89.090095 261.707294 
L 90.230539 261.707294 
L 90.230539 261.352659 
L 91.305777 261.352659 
L 91.305777 260.643388 
L 92.322865 260.643388 
L 92.322865 260.288753 
L 95.916911 260.288753 
L 95.916911 257.451671 
L 105.850679 257.451671 
L 105.850679 256.7424 
L 112.317555 256.7424 
L 112.317555 253.905318 
L 117.121023 253.905318 
L 117.121023 253.550682 
L 119.129494 253.550682 
L 119.129494 253.196047 
L 119.599808 253.196047 
L 119.599808 252.841412 
L 120.506564 252.841412 
L 120.506564 252.486776 
L 123.750979 252.486776 
L 123.750979 251.068235 
L 124.119844 251.068235 
L 124.119844 250.358965 
L 125.862901 250.358965 
L 125.862901 250.004329 
L 127.458055 250.004329 
L 127.458055 249.649694 
L 127.761474 249.649694 
L 127.761474 248.940424 
L 130.292209 248.940424 
L 130.292209 247.876518 
L 132.984158 247.876518 
L 132.984158 247.521882 
L 135.932769 247.521882 
L 135.932769 246.457976 
L 136.88305 246.457976 
L 136.88305 246.103341 
L 137.067478 246.103341 
L 137.067478 245.394071 
L 137.250116 245.394071 
L 137.250116 244.6848 
L 137.963436 244.6848 
L 137.963436 244.330165 
L 140.26641 244.330165 
L 140.26641 243.620894 
L 142.178603 243.620894 
L 142.178603 243.266259 
L 145.385592 243.266259 
L 145.385592 242.911624 
L 147.397049 242.911624 
L 147.397049 241.138447 
L 147.919625 241.138447 
L 147.919625 240.783812 
L 148.124658 240.783812 
L 148.124658 240.074541 
L 152.715833 240.074541 
L 152.715833 239.719906 
L 153.189104 239.719906 
L 153.189104 239.365271 
L 156.138926 239.365271 
L 156.138926 237.592094 
L 157.795157 237.592094 
L 157.795157 237.237459 
L 158.276759 237.237459 
L 158.276759 236.882824 
L 159.204482 236.882824 
L 159.204482 236.528188 
L 160.777545 236.528188 
L 160.777545 236.173553 
L 161.240147 236.173553 
L 161.240147 235.818918 
L 163.976048 235.818918 
L 163.976048 235.464282 
L 165.614697 235.464282 
L 165.695002 234.755012 
L 166.325396 234.755012 
L 166.325396 232.981835 
L 167.489756 232.981835 
L 167.489756 232.6272 
L 169.393282 232.6272 
L 169.393282 232.272565 
L 169.816397 232.272565 
L 169.816397 231.917929 
L 170.511445 231.917929 
L 170.511445 230.854024 
L 171.972982 230.854024 
L 171.972982 230.144753 
L 172.842224 230.144753 
L 172.842224 229.790118 
L 174.618958 229.790118 
L 174.618958 229.435482 
L 174.891235 229.435482 
L 174.891235 228.726212 
L 175.685191 228.726212 
L 175.685191 228.016941 
L 176.150559 228.016941 
L 176.150559 227.307671 
L 176.649508 227.307671 
L 176.649508 226.5984 
L 178.943362 226.5984 
L 178.943362 226.243765 
L 182.075238 226.243765 
L 182.075238 225.889129 
L 183.007827 225.889129 
L 183.007827 225.179859 
L 184.421855 225.179859 
L 184.421855 224.115953 
L 184.831933 224.115953 
L 184.831933 223.761318 
L 187.133536 223.761318 
L 187.133536 223.406682 
L 188.94103 223.406682 
L 188.94103 223.052047 
L 190.256351 223.052047 
L 190.256351 222.697412 
L 191.667879 222.697412 
L 191.667879 221.988141 
L 192.514813 221.988141 
L 192.514813 221.278871 
L 193.306797 221.278871 
L 193.306797 220.5696 
L 194.64309 220.5696 
L 194.64309 220.214965 
L 197.121132 220.214965 
L 197.121132 219.860329 
L 199.343931 219.860329 
L 199.343931 219.151059 
L 201.731118 219.151059 
L 201.731118 218.796424 
L 202.426099 218.796424 
L 202.426099 218.441788 
L 203.363266 218.441788 
L 203.363266 218.087153 
L 205.411411 218.087153 
L 205.411411 217.732518 
L 205.824077 217.732518 
L 205.824077 216.668612 
L 207.367919 216.668612 
L 207.367919 216.313976 
L 208.23518 216.313976 
L 208.23518 215.959341 
L 209.661894 215.959341 
L 209.661894 215.604706 
L 211.355875 215.604706 
L 211.355875 214.895435 
L 211.944328 214.895435 
L 211.944328 214.5408 
L 214.579055 214.5408 
L 214.579055 214.186165 
L 216.172489 214.186165 
L 216.172489 213.831529 
L 217.815354 213.831529 
L 217.815354 213.476894 
L 220.999928 213.476894 
L 220.999928 213.122259 
L 223.22114 213.122259 
L 223.22114 212.767624 
L 226.799793 212.767624 
L 226.799793 212.412988 
L 228.917086 212.412988 
L 228.917086 212.058353 
L 233.811604 212.058353 
L 233.811604 211.349082 
L 242.329733 211.349082 
L 242.329733 210.994447 
L 243.652232 210.994447 
L 243.652232 210.639812 
L 252.622545 210.639812 
L 252.622545 210.285176 
L 254.144724 210.285176 
L 254.144724 209.930541 
L 256.219334 209.930541 
L 256.219334 209.575906 
L 256.862965 209.575906 
L 256.862965 209.221271 
L 262.78498 209.221271 
L 262.78498 208.866635 
L 263.24126 208.866635 
L 263.24126 208.512 
L 360.8064 208.512 
L 360.8064 208.512 
" style="fill:none;stroke:#008000;stroke-linecap:square;stroke-width:1.5;"/>
   </g>
   <g id="line2d_36">
    <defs>
     <path d="M -0 6 
L 6 -6 
L -6 -6 
z
" id="m71ab61ee1a" style="stroke:#008000;stroke-linejoin:miter;stroke-width:1.5;"/>
    </defs>
    <g>
     <use style="fill-opacity:0;stroke:#008000;stroke-linejoin:miter;stroke-width:1.5;" x="87.876026" xlink:href="#m71ab61ee1a" y="265.253647"/>
     <use style="fill-opacity:0;stroke:#008000;stroke-linejoin:miter;stroke-width:1.5;" x="153.189104" xlink:href="#m71ab61ee1a" y="239.719906"/>
     <use style="fill-opacity:0;stroke:#008000;stroke-linejoin:miter;stroke-width:1.5;" x="217.815354" xlink:href="#m71ab61ee1a" y="213.831529"/>
     <use style="fill-opacity:0;stroke:#008000;stroke-linejoin:miter;stroke-width:1.5;" x="263.24126" xlink:href="#m71ab61ee1a" y="208.866635"/>
     <use style="fill-opacity:0;stroke:#008000;stroke-linejoin:miter;stroke-width:1.5;" x="263.24126" xlink:href="#m71ab61ee1a" y="208.512"/>
     <use style="fill-opacity:0;stroke:#008000;stroke-linejoin:miter;stroke-width:1.5;" x="360.8064" xlink:href="#m71ab61ee1a" y="208.512"/>
    </g>
   </g>
   <g id="line2d_37">
    <path style="fill:none;stroke:#008000;stroke-linecap:square;stroke-width:1.5;"/>
    <g/>
   </g>
   <g id="line2d_38">
    <path clip-path="url(#p1f77ff41a5)" d="M 193.05117 221.278871 
" style="fill:none;stroke:#008000;stroke-linecap:square;stroke-width:1.5;"/>
    <defs>
     <path d="M -12 12 
L 12 -12 
M -12 -12 
L 12 12 
" id="me1f2c0e53e" style="stroke:#008000;"/>
    </defs>
    <g clip-path="url(#p1f77ff41a5)">
     <use style="fill:#008000;stroke:#008000;" x="193.05117" xlink:href="#me1f2c0e53e" y="221.278871"/>
    </g>
   </g>
   <g id="line2d_39">
    <defs>
     <path d="M 0 1.5 
C 0.397805 1.5 0.77937 1.341951 1.06066 1.06066 
C 1.341951 0.77937 1.5 0.397805 1.5 0 
C 1.5 -0.397805 1.341951 -0.77937 1.06066 -1.06066 
C 0.77937 -1.341951 0.397805 -1.5 0 -1.5 
C -0.397805 -1.5 -0.77937 -1.341951 -1.06066 -1.06066 
C -1.341951 -0.77937 -1.5 -0.397805 -1.5 0 
C -1.5 0.397805 -1.341951 0.77937 -1.06066 1.06066 
C -0.77937 1.341951 -0.397805 1.5 0 1.5 
z
" id="mee2871f0a0" style="stroke:#0000ff;"/>
    </defs>
    <g>
     <use style="fill:#0000ff;stroke:#0000ff;" x="254.657665" xlink:href="#mee2871f0a0" y="235.109647"/>
     <use style="fill:#0000ff;stroke:#0000ff;" x="254.657665" xlink:href="#mee2871f0a0" y="235.109647"/>
    </g>
   </g>
   <g id="line2d_40">
    <path d="M 27.323974 298.944 
L 27.323974 287.241035 
L 40.363149 287.241035 
L 40.363149 279.439059 
L 47.990577 279.439059 
L 47.990577 277.665882 
L 53.402323 277.665882 
L 53.402323 276.601976 
L 57.6 276.601976 
L 57.6 275.538071 
L 61.029752 275.538071 
L 61.029752 275.183435 
L 63.929565 275.183435 
L 63.929565 274.119529 
L 66.441498 274.119529 
L 66.441498 273.764894 
L 68.65718 273.764894 
L 68.65718 273.410259 
L 70.639174 273.410259 
L 70.639174 273.055624 
L 74.068926 273.055624 
L 74.068926 272.346353 
L 76.96874 272.346353 
L 76.96874 271.991718 
L 79.480672 271.991718 
L 79.480672 270.573176 
L 80.621116 270.573176 
L 80.621116 270.218541 
L 81.696354 270.218541 
L 81.696354 269.863906 
L 82.713442 269.863906 
L 82.713442 269.509271 
L 83.678349 269.509271 
L 83.678349 269.154635 
L 86.307488 269.154635 
L 86.307488 268.8 
L 93.098709 268.8 
L 93.098709 268.445365 
L 99.751228 268.445365 
L 99.751228 267.381459 
L 100.535156 267.381459 
L 100.535156 267.026824 
L 101.287718 267.026824 
L 101.287718 266.672188 
L 102.011329 266.672188 
L 102.011329 266.317553 
L 109.037698 266.317553 
L 109.037698 265.962918 
L 109.990385 265.962918 
L 109.990385 265.608282 
L 111.762192 265.608282 
L 111.762192 265.253647 
L 114.872193 265.253647 
L 114.872193 264.899012 
L 115.575511 264.899012 
L 115.575511 264.544376 
L 117.226706 264.544376 
L 117.226706 264.189741 
L 121.201758 264.189741 
L 121.201758 263.835106 
L 122.677931 263.835106 
L 122.677931 263.480471 
L 122.913079 263.480471 
L 122.913079 263.125835 
L 125.115773 263.125835 
L 125.115773 262.7712 
L 125.929373 262.7712 
L 125.929373 262.416565 
L 126.517282 262.416565 
L 126.517282 262.061929 
L 133.120474 262.061929 
L 133.120474 259.934118 
L 133.390178 259.934118 
L 133.390178 259.224847 
L 137.250116 259.224847 
L 137.250116 258.870212 
L 141.610664 258.870212 
L 141.610664 258.160941 
L 142.122575 258.160941 
L 142.122575 257.451671 
L 143.501625 257.451671 
L 143.501625 257.097035 
L 144.931992 257.097035 
L 145.004344 255.678494 
L 145.503164 255.678494 
L 145.503164 254.969224 
L 146.057504 254.969224 
L 146.057504 254.614588 
L 147.054816 254.614588 
L 147.054816 254.259953 
L 149.367382 254.259953 
L 149.367382 253.905318 
L 149.595059 253.905318 
L 149.595059 253.550682 
L 150.640414 253.550682 
L 150.640414 252.841412 
L 154.410475 252.841412 
L 154.410475 252.486776 
L 156.521235 252.486776 
L 156.521235 252.132141 
L 157.734081 252.132141 
L 157.734081 251.068235 
L 161.391854 251.068235 
L 161.391854 250.358965 
L 161.542347 250.358965 
L 161.542347 250.004329 
L 161.839769 250.004329 
L 161.839769 249.295059 
L 167.613182 249.295059 
L 167.613182 248.940424 
L 169.491772 248.940424 
L 169.491772 248.585788 
L 170.855662 248.585788 
L 170.855662 248.231153 
L 171.413749 248.231153 
L 171.413749 247.876518 
L 173.541519 247.876518 
L 173.541519 247.521882 
L 176.442464 247.521882 
L 176.442464 247.167247 
L 179.214801 247.167247 
L 179.249919 246.457976 
L 180.174141 246.457976 
L 180.174141 246.103341 
L 182.779786 246.103341 
L 182.779786 245.394071 
L 184.695258 245.394071 
L 184.695258 245.039435 
L 186.47346 245.039435 
L 186.47346 244.6848 
L 188.623973 244.6848 
L 188.623973 244.330165 
L 193.30495 244.330165 
L 193.30495 243.975529 
L 196.152853 243.975529 
L 196.152853 243.620894 
L 204.535535 243.620894 
L 204.535535 242.556988 
L 205.998872 242.556988 
L 205.998872 241.847718 
L 209.356777 241.847718 
L 209.356777 241.493082 
L 209.841391 241.493082 
L 209.841391 241.138447 
L 213.975246 241.138447 
L 213.975246 240.429176 
L 217.362329 240.429176 
L 217.362329 240.074541 
L 220.231606 240.074541 
L 220.231606 239.719906 
L 226.691789 239.719906 
L 226.691789 239.365271 
L 226.886124 239.365271 
L 226.886124 238.301365 
L 227.344316 238.301365 
L 227.344316 237.946729 
L 228.66735 237.946729 
L 228.66735 237.237459 
L 231.791872 237.237459 
L 231.791872 236.882824 
L 233.039994 236.882824 
L 233.039994 236.528188 
L 234.470592 236.528188 
L 234.470592 236.173553 
L 242.481533 236.173553 
L 242.481533 235.818918 
L 247.466707 235.818918 
L 247.466707 235.464282 
L 254.657665 235.464282 
L 254.657665 235.109647 
L 360.8064 235.109647 
L 360.8064 235.109647 
" style="fill:none;stroke:#0000ff;stroke-linecap:square;stroke-width:1.5;"/>
   </g>
   <g id="line2d_41">
    <defs>
     <path d="M 0 -6 
L -1.347084 -1.854102 
L -5.706339 -1.854102 
L -2.179628 0.708204 
L -3.526712 4.854102 
L -0 2.291796 
L 3.526712 4.854102 
L 2.179628 0.708204 
L 5.706339 -1.854102 
L 1.347084 -1.854102 
z
" id="mb680ac71df" style="stroke:#0000ff;stroke-linejoin:bevel;stroke-width:1.5;"/>
    </defs>
    <g>
     <use style="fill-opacity:0;stroke:#0000ff;stroke-linejoin:bevel;stroke-width:1.5;" x="126.517282" xlink:href="#mb680ac71df" y="262.061929"/>
     <use style="fill-opacity:0;stroke:#0000ff;stroke-linejoin:bevel;stroke-width:1.5;" x="193.30495" xlink:href="#mb680ac71df" y="243.975529"/>
     <use style="fill-opacity:0;stroke:#0000ff;stroke-linejoin:bevel;stroke-width:1.5;" x="254.657665" xlink:href="#mb680ac71df" y="235.464282"/>
     <use style="fill-opacity:0;stroke:#0000ff;stroke-linejoin:bevel;stroke-width:1.5;" x="254.657665" xlink:href="#mb680ac71df" y="235.109647"/>
     <use style="fill-opacity:0;stroke:#0000ff;stroke-linejoin:bevel;stroke-width:1.5;" x="254.657665" xlink:href="#mb680ac71df" y="235.109647"/>
     <use style="fill-opacity:0;stroke:#0000ff;stroke-linejoin:bevel;stroke-width:1.5;" x="360.8064" xlink:href="#mb680ac71df" y="235.109647"/>
    </g>
   </g>
   <g id="line2d_42">
    <path style="fill:none;stroke:#0000ff;stroke-linecap:square;stroke-width:1.5;"/>
    <g/>
   </g>
   <g id="line2d_43">
    <path clip-path="url(#p1f77ff41a5)" d="M 183.441747 245.394071 
" style="fill:none;stroke:#0000ff;stroke-linecap:square;stroke-width:1.5;"/>
    <defs>
     <path d="M -12 12 
L 12 -12 
M -12 -12 
L 12 12 
" id="ma767364799" style="stroke:#0000ff;"/>
    </defs>
    <g clip-path="url(#p1f77ff41a5)">
     <use style="fill:#0000ff;stroke:#0000ff;" x="183.441747" xlink:href="#ma767364799" y="245.394071"/>
    </g>
   </g>
   <g id="line2d_44">
    <defs>
     <path d="M 0 1.5 
C 0.397805 1.5 0.77937 1.341951 1.06066 1.06066 
C 1.341951 0.77937 1.5 0.397805 1.5 0 
C 1.5 -0.397805 1.341951 -0.77937 1.06066 -1.06066 
C 0.77937 -1.341951 0.397805 -1.5 0 -1.5 
C -0.397805 -1.5 -0.77937 -1.341951 -1.06066 -1.06066 
C -1.341951 -0.77937 -1.5 -0.397805 -1.5 0 
C -1.5 0.397805 -1.341951 0.77937 -1.06066 1.06066 
C -0.77937 1.341951 -0.397805 1.5 0 1.5 
z
" id="ma452ca1aa8" style="stroke:#000000;"/>
    </defs>
    <g>
     <use style="stroke:#000000;" x="206.721884" xlink:href="#ma452ca1aa8" y="256.387765"/>
     <use style="stroke:#000000;" x="206.721884" xlink:href="#ma452ca1aa8" y="256.387765"/>
    </g>
   </g>
   <g id="line2d_45">
    <path d="M 14.2848 298.944 
L 14.2848 285.467859 
L 27.323974 285.467859 
L 27.323974 282.276141 
L 34.951403 282.276141 
L 34.951403 280.8576 
L 44.560826 280.8576 
L 44.560826 280.148329 
L 47.990577 280.148329 
L 47.990577 279.439059 
L 50.890391 279.439059 
L 50.890391 278.729788 
L 55.618005 278.729788 
L 55.618005 278.020518 
L 59.392932 278.020518 
L 59.392932 277.665882 
L 61.029752 277.665882 
L 61.029752 276.956612 
L 63.929565 276.956612 
L 63.929565 276.247341 
L 66.441498 276.247341 
L 66.441498 275.183435 
L 68.65718 275.183435 
L 68.65718 274.474165 
L 78.88343 274.474165 
L 78.88343 274.119529 
L 88.972154 274.119529 
L 88.972154 273.764894 
L 94.472426 273.764894 
L 94.472426 273.410259 
L 102.536336 273.410259 
L 102.536336 273.055624 
L 104.809458 273.055624 
L 104.809458 272.346353 
L 107.904887 272.346353 
L 107.904887 271.637082 
L 116.501546 271.637082 
L 116.501546 271.282447 
L 122.015696 271.282447 
L 122.015696 270.927812 
L 122.379802 270.927812 
L 122.379802 270.573176 
L 125.47606 270.573176 
L 125.47606 270.218541 
L 127.227236 270.218541 
L 127.227236 269.863906 
L 127.319904 269.863906 
L 127.319904 269.509271 
L 127.5952 269.509271 
L 127.5952 269.154635 
L 127.866525 269.154635 
L 127.866525 268.8 
L 127.956104 268.8 
L 127.956104 268.445365 
L 129.417095 268.445365 
L 129.417095 268.090729 
L 129.663538 268.090729 
L 129.663538 267.736094 
L 130.146945 267.736094 
L 130.146945 267.381459 
L 130.305359 267.381459 
L 130.305359 267.026824 
L 134.015642 267.026824 
L 134.015642 266.672188 
L 135.449003 266.672188 
L 135.449003 266.317553 
L 136.612375 266.317553 
L 136.612375 265.608282 
L 137.331728 265.608282 
L 137.331728 265.253647 
L 137.38594 265.253647 
L 137.38594 264.899012 
L 138.180913 264.899012 
L 138.180913 264.544376 
L 142.227492 264.544376 
L 142.227492 264.189741 
L 143.046405 264.189741 
L 143.046405 263.835106 
L 146.711739 263.835106 
L 146.711739 263.480471 
L 147.199956 263.480471 
L 147.199956 263.125835 
L 148.261802 263.125835 
L 148.261802 262.7712 
L 150.519611 262.7712 
L 150.519611 262.416565 
L 152.655828 262.416565 
L 152.655828 262.061929 
L 153.083651 262.061929 
L 153.083651 261.707294 
L 160.894266 261.707294 
L 160.894266 261.352659 
L 161.474774 261.352659 
L 161.474774 260.998024 
L 167.877265 260.998024 
L 167.877265 260.643388 
L 168.300609 260.643388 
L 168.300609 260.288753 
L 169.229637 260.288753 
L 169.229637 259.934118 
L 169.914303 259.934118 
L 169.914303 259.579482 
L 179.502582 259.579482 
L 179.502582 259.224847 
L 182.221437 259.224847 
L 182.221437 258.515576 
L 182.86442 258.515576 
L 182.86442 258.160941 
L 194.515817 258.160941 
L 194.515817 257.806306 
L 194.61426 257.806306 
L 194.61426 257.451671 
L 195.88066 257.451671 
L 195.88066 257.097035 
L 196.194472 257.097035 
L 196.194472 256.7424 
L 206.721884 256.7424 
L 206.721884 256.387765 
L 360.8064 256.387765 
" style="fill:none;stroke:#000000;stroke-linecap:square;stroke-width:1.5;"/>
   </g>
   <g id="line2d_46">
    <defs>
     <path d="M 0 6 
C 1.591219 6 3.117479 5.367802 4.242641 4.242641 
C 5.367802 3.117479 6 1.591219 6 0 
C 6 -1.591219 5.367802 -3.117479 4.242641 -4.242641 
C 3.117479 -5.367802 1.591219 -6 0 -6 
C -1.591219 -6 -3.117479 -5.367802 -4.242641 -4.242641 
C -5.367802 -3.117479 -6 -1.591219 -6 0 
C -6 1.591219 -5.367802 3.117479 -4.242641 4.242641 
C -3.117479 5.367802 -1.591219 6 0 6 
z
" id="m8a87b89169" style="stroke:#000000;stroke-width:1.5;"/>
    </defs>
    <g>
     <use style="fill-opacity:0;stroke:#000000;stroke-width:1.5;" x="78.88343" xlink:href="#m8a87b89169" y="274.119529"/>
     <use style="fill-opacity:0;stroke:#000000;stroke-width:1.5;" x="153.083651" xlink:href="#m8a87b89169" y="262.061929"/>
     <use style="fill-opacity:0;stroke:#000000;stroke-width:1.5;" x="206.721884" xlink:href="#m8a87b89169" y="256.7424"/>
     <use style="fill-opacity:0;stroke:#000000;stroke-width:1.5;" x="206.721884" xlink:href="#m8a87b89169" y="256.387765"/>
     <use style="fill-opacity:0;stroke:#000000;stroke-width:1.5;" x="206.721884" xlink:href="#m8a87b89169" y="256.387765"/>
     <use style="fill-opacity:0;stroke:#000000;stroke-width:1.5;" x="360.8064" xlink:href="#m8a87b89169" y="256.387765"/>
    </g>
   </g>
   <g id="line2d_47">
    <path style="fill:none;stroke:#000000;stroke-linecap:square;stroke-width:1.5;"/>
    <g/>
   </g>
   <g id="line2d_48">
    <path clip-path="url(#p1f77ff41a5)" d="M 170.402572 259.579482 
" style="fill:none;stroke:#000000;stroke-linecap:square;stroke-width:1.5;"/>
    <defs>
     <path d="M -12 12 
L 12 -12 
M -12 -12 
L 12 12 
" id="mea84964f27" style="stroke:#000000;"/>
    </defs>
    <g clip-path="url(#p1f77ff41a5)">
     <use style="stroke:#000000;" x="170.402572" xlink:href="#mea84964f27" y="259.579482"/>
    </g>
   </g>
   <g id="line2d_49">
    <defs>
     <path d="M 0 1.5 
C 0.397805 1.5 0.77937 1.341951 1.06066 1.06066 
C 1.341951 0.77937 1.5 0.397805 1.5 0 
C 1.5 -0.397805 1.341951 -0.77937 1.06066 -1.06066 
C 0.77937 -1.341951 0.397805 -1.5 0 -1.5 
C -0.397805 -1.5 -0.77937 -1.341951 -1.06066 -1.06066 
C -1.341951 -0.77937 -1.5 -0.397805 -1.5 0 
C -1.5 0.397805 -1.341951 0.77937 -1.06066 1.06066 
C -0.77937 1.341951 -0.397805 1.5 0 1.5 
z
" id="mf06a6be94c" style="stroke:#ff0000;"/>
    </defs>
    <g>
     <use style="fill:#ff0000;stroke:#ff0000;" x="202.31218" xlink:href="#mf06a6be94c" y="261.707294"/>
     <use style="fill:#ff0000;stroke:#ff0000;" x="202.31218" xlink:href="#mf06a6be94c" y="261.707294"/>
    </g>
   </g>
   <g id="line2d_50">
    <path d="M 1.245626 298.944 
L 1.245626 288.304941 
L 14.2848 288.304941 
L 14.2848 286.531765 
L 21.912228 286.531765 
L 21.912228 285.822494 
L 27.323974 285.822494 
L 27.323974 284.758588 
L 34.951403 284.758588 
L 34.951403 284.403953 
L 37.851216 284.403953 
L 37.851216 284.049318 
L 40.363149 284.049318 
L 40.363149 282.985412 
L 42.578831 282.985412 
L 42.578831 282.630776 
L 49.496305 282.630776 
L 49.496305 282.276141 
L 50.890391 282.276141 
L 50.890391 281.566871 
L 52.188254 281.566871 
L 52.188254 281.212235 
L 56.635094 281.212235 
L 56.635094 280.148329 
L 63.245433 280.148329 
L 63.245433 279.793694 
L 72.854856 279.793694 
L 72.854856 279.439059 
L 74.456807 279.439059 
L 74.456807 279.084424 
L 81.955828 279.084424 
L 81.955828 278.729788 
L 87.303041 278.729788 
L 87.303041 278.375153 
L 95.875972 278.375153 
L 95.875972 278.020518 
L 97.746984 278.020518 
L 97.746984 277.665882 
L 101.009023 277.665882 
L 101.009023 277.311247 
L 103.462371 277.311247 
L 103.462371 276.956612 
L 106.066493 276.956612 
L 106.066493 276.601976 
L 107.709271 276.601976 
L 107.709271 276.247341 
L 109.22004 276.247341 
L 109.22004 275.892706 
L 109.460447 275.892706 
L 109.460447 275.538071 
L 111.280505 275.538071 
L 111.280505 275.183435 
L 113.235374 275.183435 
L 113.235374 274.8288 
L 114.001345 274.8288 
L 114.001345 274.474165 
L 114.280729 274.474165 
L 114.280729 274.119529 
L 115.532315 274.119529 
L 115.532315 273.764894 
L 117.423276 273.764894 
L 117.423276 273.410259 
L 122.289434 273.410259 
L 122.289434 273.055624 
L 123.116449 273.055624 
L 123.116449 272.700988 
L 123.460048 272.700988 
L 123.460048 272.346353 
L 123.629523 272.346353 
L 123.629523 271.991718 
L 123.908631 271.991718 
L 123.908631 271.637082 
L 124.668797 271.637082 
L 124.668797 271.282447 
L 129.846275 271.282447 
L 129.846275 270.927812 
L 130.983152 270.927812 
L 130.983152 270.573176 
L 132.162715 270.573176 
L 132.162715 270.218541 
L 133.771227 270.218541 
L 133.771227 269.863906 
L 134.510922 269.863906 
L 134.510922 269.509271 
L 134.885604 269.509271 
L 134.885604 269.154635 
L 135.100771 269.154635 
L 135.100771 268.8 
L 136.598268 268.8 
L 136.598268 268.445365 
L 137.399469 268.445365 
L 137.399469 268.090729 
L 137.747841 268.090729 
L 137.747841 267.736094 
L 138.65491 267.736094 
L 138.65491 267.381459 
L 143.550448 267.381459 
L 143.550448 267.026824 
L 149.460208 267.026824 
L 149.460208 266.672188 
L 153.113003 266.672188 
L 153.113003 266.317553 
L 155.531586 266.317553 
L 155.531586 265.962918 
L 168.397165 265.962918 
L 168.397165 265.253647 
L 169.508954 265.253647 
L 169.508954 264.899012 
L 175.745756 264.899012 
L 175.745756 264.189741 
L 177.438996 264.189741 
L 177.438996 263.835106 
L 183.000244 263.835106 
L 183.000244 263.480471 
L 186.302413 263.480471 
L 186.302413 263.125835 
L 195.999254 263.125835 
L 195.999254 262.416565 
L 196.261465 262.416565 
L 196.261465 262.061929 
L 202.31218 262.061929 
L 202.31218 261.707294 
L 360.8064 261.707294 
" style="fill:none;stroke:#ff0000;stroke-linecap:square;stroke-width:1.5;"/>
   </g>
   <g id="line2d_51">
    <defs>
     <path d="M -6 6 
L 6 6 
L 6 -6 
L -6 -6 
z
" id="m3484363a44" style="stroke:#ff0000;stroke-linejoin:miter;stroke-width:1.5;"/>
    </defs>
    <g>
     <use style="fill-opacity:0;stroke:#ff0000;stroke-linejoin:miter;stroke-width:1.5;" x="117.423276" xlink:href="#m3484363a44" y="273.410259"/>
     <use style="fill-opacity:0;stroke:#ff0000;stroke-linejoin:miter;stroke-width:1.5;" x="202.31218" xlink:href="#m3484363a44" y="262.061929"/>
     <use style="fill-opacity:0;stroke:#ff0000;stroke-linejoin:miter;stroke-width:1.5;" x="202.31218" xlink:href="#m3484363a44" y="261.707294"/>
     <use style="fill-opacity:0;stroke:#ff0000;stroke-linejoin:miter;stroke-width:1.5;" x="202.31218" xlink:href="#m3484363a44" y="261.707294"/>
     <use style="fill-opacity:0;stroke:#ff0000;stroke-linejoin:miter;stroke-width:1.5;" x="360.8064" xlink:href="#m3484363a44" y="261.707294"/>
    </g>
   </g>
   <g id="line2d_52">
    <path style="fill:none;stroke:#ff0000;stroke-linecap:square;stroke-width:1.5;"/>
    <g/>
   </g>
   <g id="line2d_53">
    <path clip-path="url(#p1f77ff41a5)" d="M 157.363398 265.962918 
" style="fill:none;stroke:#ff0000;stroke-linecap:square;stroke-width:1.5;"/>
    <defs>
     <path d="M -12 12 
L 12 -12 
M -12 -12 
L 12 12 
" id="m2bed973599" style="stroke:#ff0000;"/>
    </defs>
    <g clip-path="url(#p1f77ff41a5)">
     <use style="fill:#ff0000;stroke:#ff0000;" x="157.363398" xlink:href="#m2bed973599" y="265.962918"/>
    </g>
   </g>
   <g id="line2d_54">
    <defs>
     <path d="M 0 1.5 
C 0.397805 1.5 0.77937 1.341951 1.06066 1.06066 
C 1.341951 0.77937 1.5 0.397805 1.5 0 
C 1.5 -0.397805 1.341951 -0.77937 1.06066 -1.06066 
C 0.77937 -1.341951 0.397805 -1.5 0 -1.5 
C -0.397805 -1.5 -0.77937 -1.341951 -1.06066 -1.06066 
C -1.341951 -0.77937 -1.5 -0.397805 -1.5 0 
C -1.5 0.397805 -1.341951 0.77937 -1.06066 1.06066 
C -0.77937 1.341951 -0.397805 1.5 0 1.5 
z
" id="m4097a5553d" style="stroke:#bf00bf;"/>
    </defs>
    <g>
     <use style="fill:#bf00bf;stroke:#bf00bf;" x="173.819646" xlink:href="#m4097a5553d" y="267.026824"/>
     <use style="fill:#bf00bf;stroke:#bf00bf;" x="173.819646" xlink:href="#m4097a5553d" y="267.026824"/>
    </g>
   </g>
   <g id="line2d_55">
    <path d="M -1 292.205929 
L 1.245626 292.205929 
L 1.245626 289.368847 
L 8.873054 289.368847 
L 8.873054 288.304941 
L 14.2848 288.304941 
L 14.2848 287.241035 
L 21.912228 287.241035 
L 21.912228 286.8864 
L 24.812042 286.8864 
L 24.812042 286.531765 
L 27.323974 286.531765 
L 27.323974 286.177129 
L 29.539656 286.177129 
L 29.539656 285.822494 
L 39.149079 285.822494 
L 39.149079 285.467859 
L 43.595919 285.467859 
L 43.595919 285.113224 
L 44.560826 285.113224 
L 44.560826 284.758588 
L 50.206259 284.758588 
L 50.206259 284.403953 
L 58.960464 284.403953 
L 58.960464 284.049318 
L 62.893805 284.049318 
L 62.893805 283.694682 
L 69.425105 283.694682 
L 69.425105 283.340047 
L 84.257212 283.340047 
L 84.257212 282.985412 
L 85.147866 282.985412 
L 85.147866 282.630776 
L 86.611725 282.630776 
L 86.611725 282.276141 
L 97.691246 282.276141 
L 97.691246 281.921506 
L 98.775785 281.921506 
L 98.775785 281.566871 
L 103.338746 281.566871 
L 103.338746 281.212235 
L 104.30572 281.212235 
L 104.30572 280.8576 
L 104.462158 280.8576 
L 104.462158 280.502965 
L 105.88682 280.502965 
L 105.88682 280.148329 
L 107.742016 280.148329 
L 107.742016 279.793694 
L 108.001938 279.793694 
L 108.001938 279.439059 
L 108.066361 279.439059 
L 108.066361 279.084424 
L 111.199011 279.084424 
L 111.199011 278.729788 
L 111.841288 278.729788 
L 111.841288 278.375153 
L 112.309003 278.375153 
L 112.309003 278.020518 
L 114.849785 278.020518 
L 114.849785 277.665882 
L 116.522071 277.665882 
L 116.522071 277.311247 
L 117.206936 277.311247 
L 117.206936 276.956612 
L 121.597472 276.956612 
L 121.597472 276.601976 
L 122.663136 276.601976 
L 122.663136 276.247341 
L 123.044069 276.247341 
L 123.044069 275.892706 
L 123.922478 275.892706 
L 123.922478 275.538071 
L 124.521883 275.538071 
L 124.521883 275.183435 
L 124.946123 275.183435 
L 124.946123 274.8288 
L 124.972322 274.8288 
L 124.972322 274.474165 
L 125.076759 274.474165 
L 125.076759 274.119529 
L 127.354537 274.119529 
L 127.354537 273.764894 
L 128.386795 273.764894 
L 128.386795 273.410259 
L 128.430416 273.410259 
L 128.430416 273.055624 
L 128.582298 273.055624 
L 128.582298 272.700988 
L 128.754389 272.700988 
L 128.754389 272.346353 
L 134.007546 272.346353 
L 134.007546 271.991718 
L 138.673876 271.991718 
L 138.673876 271.637082 
L 140.050351 271.637082 
L 140.050351 271.282447 
L 140.434036 271.282447 
L 140.434036 270.927812 
L 140.776178 270.927812 
L 140.776178 270.573176 
L 141.189758 270.573176 
L 141.189758 270.218541 
L 141.211857 270.218541 
L 141.211857 269.863906 
L 141.529405 269.863906 
L 141.529405 269.509271 
L 142.127835 269.509271 
L 142.127835 269.154635 
L 142.768906 269.154635 
L 142.768906 268.8 
L 142.961069 268.8 
L 142.961069 268.445365 
L 152.903607 268.445365 
L 152.903607 268.090729 
L 155.672901 268.090729 
L 155.672901 267.736094 
L 163.880872 267.736094 
L 163.880872 267.381459 
L 173.819646 267.381459 
L 173.819646 267.026824 
L 360.8064 267.026824 
" style="fill:none;stroke:#bf00bf;stroke-linecap:square;stroke-width:1.5;"/>
   </g>
   <g id="line2d_56">
    <defs>
     <path d="M -0 8.485281 
L 8.485281 0 
L 0 -8.485281 
L -8.485281 -0 
z
" id="me5947d24ca" style="stroke:#bf00bf;stroke-linejoin:miter;stroke-width:1.5;"/>
    </defs>
    <g>
     <use style="fill-opacity:0;stroke:#bf00bf;stroke-linejoin:miter;stroke-width:1.5;" x="62.893805" xlink:href="#me5947d24ca" y="284.049318"/>
     <use style="fill-opacity:0;stroke:#bf00bf;stroke-linejoin:miter;stroke-width:1.5;" x="138.673876" xlink:href="#me5947d24ca" y="271.637082"/>
     <use style="fill-opacity:0;stroke:#bf00bf;stroke-linejoin:miter;stroke-width:1.5;" x="173.819646" xlink:href="#me5947d24ca" y="267.381459"/>
     <use style="fill-opacity:0;stroke:#bf00bf;stroke-linejoin:miter;stroke-width:1.5;" x="173.819646" xlink:href="#me5947d24ca" y="267.026824"/>
     <use style="fill-opacity:0;stroke:#bf00bf;stroke-linejoin:miter;stroke-width:1.5;" x="173.819646" xlink:href="#me5947d24ca" y="267.026824"/>
     <use style="fill-opacity:0;stroke:#bf00bf;stroke-linejoin:miter;stroke-width:1.5;" x="360.8064" xlink:href="#me5947d24ca" y="267.026824"/>
    </g>
   </g>
   <g id="line2d_57">
    <path style="fill:none;stroke:#bf00bf;stroke-linecap:square;stroke-width:1.5;"/>
    <g/>
   </g>
   <g id="line2d_58">
    <path clip-path="url(#p1f77ff41a5)" d="M 144.324223 268.445365 
" style="fill:none;stroke:#bf00bf;stroke-linecap:square;stroke-width:1.5;"/>
    <defs>
     <path d="M -12 12 
L 12 -12 
M -12 -12 
L 12 12 
" id="ma27c4ea5aa" style="stroke:#bf00bf;"/>
    </defs>
    <g clip-path="url(#p1f77ff41a5)">
     <use style="fill:#bf00bf;stroke:#bf00bf;" x="144.324223" xlink:href="#ma27c4ea5aa" y="268.445365"/>
    </g>
   </g>
   <g id="line2d_59">
    <path d="M 360.8064 267.026824 
L 380.514816 293.51808 
" style="fill:none;stroke:#bf00bf;stroke-linecap:square;stroke-width:1.5;"/>
    <g>
     <use style="fill-opacity:0;stroke:#bf00bf;stroke-linejoin:miter;stroke-width:1.5;" x="360.8064" xlink:href="#me5947d24ca" y="267.026824"/>
     <use style="fill-opacity:0;stroke:#bf00bf;stroke-linejoin:miter;stroke-width:1.5;" x="380.514816" xlink:href="#me5947d24ca" y="293.51808"/>
    </g>
   </g>
   <g id="line2d_60">
    <path d="M 360.8064 261.707294 
L 380.514816 241.429248 
" style="fill:none;stroke:#ff0000;stroke-linecap:square;stroke-width:1.5;"/>
    <g>
     <use style="fill-opacity:0;stroke:#ff0000;stroke-linejoin:miter;stroke-width:1.5;" x="360.8064" xlink:href="#m3484363a44" y="261.707294"/>
     <use style="fill-opacity:0;stroke:#ff0000;stroke-linejoin:miter;stroke-width:1.5;" x="380.514816" xlink:href="#m3484363a44" y="241.429248"/>
    </g>
   </g>
   <g id="line2d_61">
    <path d="M 360.8064 256.387765 
L 380.514816 189.340416 
" style="fill:none;stroke:#000000;stroke-linecap:square;stroke-width:1.5;"/>
    <g>
     <use style="fill-opacity:0;stroke:#000000;stroke-width:1.5;" x="360.8064" xlink:href="#m8a87b89169" y="256.387765"/>
     <use style="fill-opacity:0;stroke:#000000;stroke-width:1.5;" x="380.514816" xlink:href="#m8a87b89169" y="189.340416"/>
    </g>
   </g>
   <g id="line2d_62">
    <path d="M 360.8064 235.109647 
L 380.514816 137.251584 
" style="fill:none;stroke:#0000ff;stroke-linecap:square;stroke-width:1.5;"/>
    <g>
     <use style="fill-opacity:0;stroke:#0000ff;stroke-linejoin:bevel;stroke-width:1.5;" x="360.8064" xlink:href="#mb680ac71df" y="235.109647"/>
     <use style="fill-opacity:0;stroke:#0000ff;stroke-linejoin:bevel;stroke-width:1.5;" x="380.514816" xlink:href="#mb680ac71df" y="137.251584"/>
    </g>
   </g>
   <g id="line2d_63">
    <path d="M 360.8064 208.512 
L 380.514816 85.162752 
" style="fill:none;stroke:#008000;stroke-linecap:square;stroke-width:1.5;"/>
    <g>
     <use style="fill-opacity:0;stroke:#008000;stroke-linejoin:miter;stroke-width:1.5;" x="360.8064" xlink:href="#m71ab61ee1a" y="208.512"/>
     <use style="fill-opacity:0;stroke:#008000;stroke-linejoin:miter;stroke-width:1.5;" x="380.514816" xlink:href="#m71ab61ee1a" y="85.162752"/>
    </g>
   </g>
   <g id="line2d_64">
    <path d="M 360.8064 75.523765 
L 380.514816 33.07392 
" style="fill:none;stroke:#00bfbf;stroke-linecap:square;stroke-width:1.5;"/>
    <g>
     <use style="fill-opacity:0;stroke:#00bfbf;stroke-width:1.5;" x="360.8064" xlink:href="#m4794bc0575" y="75.523765"/>
     <use style="fill-opacity:0;stroke:#00bfbf;stroke-width:1.5;" x="380.514816" xlink:href="#m4794bc0575" y="33.07392"/>
    </g>
   </g>
   <g id="line2d_65">
    <path d="M 360.8064 298.944 
L 360.8064 27.648 
" style="fill:none;stroke:#000000;stroke-linecap:square;stroke-width:1.5;"/>
   </g>
   <g id="patch_3">
    <path d="M 57.6 298.944 
L 360.8064 298.944 
" style="fill:none;stroke:#000000;stroke-linecap:square;stroke-linejoin:miter;stroke-width:0.8;"/>
   </g>
   <g id="patch_4">
    <path d="M 57.6 27.648 
L 360.8064 27.648 
" style="fill:none;stroke:#000000;stroke-linecap:square;stroke-linejoin:miter;stroke-width:0.8;"/>
   </g>
   <g id="text_13">
    <!-- 40-D -->
    <g transform="translate(386.578944 297.381205)scale(0.14 -0.14)">
     <defs>
      <path d="M 1259 4147 
L 1259 519 
L 2022 519 
Q 2988 519 3436 956 
Q 3884 1394 3884 2338 
Q 3884 3275 3436 3711 
Q 2988 4147 2022 4147 
L 1259 4147 
z
M 628 4666 
L 1925 4666 
Q 3281 4666 3915 4102 
Q 4550 3538 4550 2338 
Q 4550 1131 3912 565 
Q 3275 0 1925 0 
L 628 0 
L 628 4666 
z
" id="DejaVuSans-44" transform="scale(0.015625)"/>
     </defs>
     <use xlink:href="#DejaVuSans-34"/>
     <use x="63.623047" xlink:href="#DejaVuSans-30"/>
     <use x="127.246094" xlink:href="#DejaVuSans-2d"/>
     <use x="163.330078" xlink:href="#DejaVuSans-44"/>
    </g>
   </g>
   <g id="text_14">
    <!-- 20-D -->
    <g transform="translate(386.578944 245.292373)scale(0.14 -0.14)">
     <use xlink:href="#DejaVuSans-32"/>
     <use x="63.623047" xlink:href="#DejaVuSans-30"/>
     <use x="127.246094" xlink:href="#DejaVuSans-2d"/>
     <use x="163.330078" xlink:href="#DejaVuSans-44"/>
    </g>
   </g>
   <g id="text_15">
    <!-- 10-D -->
    <g transform="translate(386.578944 193.203541)scale(0.14 -0.14)">
     <use xlink:href="#DejaVuSans-31"/>
     <use x="63.623047" xlink:href="#DejaVuSans-30"/>
     <use x="127.246094" xlink:href="#DejaVuSans-2d"/>
     <use x="163.330078" xlink:href="#DejaVuSans-44"/>
    </g>
   </g>
   <g id="text_16">
    <!-- 5-D -->
    <g transform="translate(386.578944 141.114709)scale(0.14 -0.14)">
     <defs>
      <path d="M 691 4666 
L 3169 4666 
L 3169 4134 
L 1269 4134 
L 1269 2991 
Q 1406 3038 1543 3061 
Q 1681 3084 1819 3084 
Q 2600 3084 3056 2656 
Q 3513 2228 3513 1497 
Q 3513 744 3044 326 
Q 2575 -91 1722 -91 
Q 1428 -91 1123 -41 
Q 819 9 494 109 
L 494 744 
Q 775 591 1075 516 
Q 1375 441 1709 441 
Q 2250 441 2565 725 
Q 2881 1009 2881 1497 
Q 2881 1984 2565 2268 
Q 2250 2553 1709 2553 
Q 1456 2553 1204 2497 
Q 953 2441 691 2322 
L 691 4666 
z
" id="DejaVuSans-35" transform="scale(0.015625)"/>
     </defs>
     <use xlink:href="#DejaVuSans-35"/>
     <use x="63.623047" xlink:href="#DejaVuSans-2d"/>
     <use x="99.707031" xlink:href="#DejaVuSans-44"/>
    </g>
   </g>
   <g id="text_17">
    <!-- 3-D -->
    <g transform="translate(386.578944 89.025877)scale(0.14 -0.14)">
     <defs>
      <path d="M 2597 2516 
Q 3050 2419 3304 2112 
Q 3559 1806 3559 1356 
Q 3559 666 3084 287 
Q 2609 -91 1734 -91 
Q 1441 -91 1130 -33 
Q 819 25 488 141 
L 488 750 
Q 750 597 1062 519 
Q 1375 441 1716 441 
Q 2309 441 2620 675 
Q 2931 909 2931 1356 
Q 2931 1769 2642 2001 
Q 2353 2234 1838 2234 
L 1294 2234 
L 1294 2753 
L 1863 2753 
Q 2328 2753 2575 2939 
Q 2822 3125 2822 3475 
Q 2822 3834 2567 4026 
Q 2313 4219 1838 4219 
Q 1578 4219 1281 4162 
Q 984 4106 628 3988 
L 628 4550 
Q 988 4650 1302 4700 
Q 1616 4750 1894 4750 
Q 2613 4750 3031 4423 
Q 3450 4097 3450 3541 
Q 3450 3153 3228 2886 
Q 3006 2619 2597 2516 
z
" id="DejaVuSans-33" transform="scale(0.015625)"/>
     </defs>
     <use xlink:href="#DejaVuSans-33"/>
     <use x="63.623047" xlink:href="#DejaVuSans-2d"/>
     <use x="99.707031" xlink:href="#DejaVuSans-44"/>
    </g>
   </g>
   <g id="text_18">
    <!-- 2-D -->
    <g transform="translate(386.578944 36.937045)scale(0.14 -0.14)">
     <use xlink:href="#DejaVuSans-32"/>
     <use x="63.623047" xlink:href="#DejaVuSans-2d"/>
     <use x="99.707031" xlink:href="#DejaVuSans-44"/>
    </g>
   </g>
   <g id="text_19">
    <!-- bbob f19 -->
    <g transform="translate(60.632064 38.111366)scale(0.102 -0.102)">
     <defs>
      <path d="M 3116 1747 
Q 3116 2381 2855 2742 
Q 2594 3103 2138 3103 
Q 1681 3103 1420 2742 
Q 1159 2381 1159 1747 
Q 1159 1113 1420 752 
Q 1681 391 2138 391 
Q 2594 391 2855 752 
Q 3116 1113 3116 1747 
z
M 1159 2969 
Q 1341 3281 1617 3432 
Q 1894 3584 2278 3584 
Q 2916 3584 3314 3078 
Q 3713 2572 3713 1747 
Q 3713 922 3314 415 
Q 2916 -91 2278 -91 
Q 1894 -91 1617 61 
Q 1341 213 1159 525 
L 1159 0 
L 581 0 
L 581 4863 
L 1159 4863 
L 1159 2969 
z
" id="DejaVuSans-62" transform="scale(0.015625)"/>
      <path d="M 703 97 
L 703 672 
Q 941 559 1184 500 
Q 1428 441 1663 441 
Q 2288 441 2617 861 
Q 2947 1281 2994 2138 
Q 2813 1869 2534 1725 
Q 2256 1581 1919 1581 
Q 1219 1581 811 2004 
Q 403 2428 403 3163 
Q 403 3881 828 4315 
Q 1253 4750 1959 4750 
Q 2769 4750 3195 4129 
Q 3622 3509 3622 2328 
Q 3622 1225 3098 567 
Q 2575 -91 1691 -91 
Q 1453 -91 1209 -44 
Q 966 3 703 97 
z
M 1959 2075 
Q 2384 2075 2632 2365 
Q 2881 2656 2881 3163 
Q 2881 3666 2632 3958 
Q 2384 4250 1959 4250 
Q 1534 4250 1286 3958 
Q 1038 3666 1038 3163 
Q 1038 2656 1286 2365 
Q 1534 2075 1959 2075 
z
" id="DejaVuSans-39" transform="scale(0.015625)"/>
     </defs>
     <use xlink:href="#DejaVuSans-62"/>
     <use x="63.476562" xlink:href="#DejaVuSans-62"/>
     <use x="126.953125" xlink:href="#DejaVuSans-6f"/>
     <use x="188.134766" xlink:href="#DejaVuSans-62"/>
     <use x="251.611328" xlink:href="#DejaVuSans-20"/>
     <use x="283.398438" xlink:href="#DejaVuSans-66"/>
     <use x="318.603516" xlink:href="#DejaVuSans-31"/>
     <use x="382.226562" xlink:href="#DejaVuSans-39"/>
    </g>
    <!-- 51 targets: 100..1e-08 -->
    <g transform="translate(60.632064 49.533135)scale(0.102 -0.102)">
     <defs>
      <path d="M 750 794 
L 1409 794 
L 1409 0 
L 750 0 
L 750 794 
z
M 750 3309 
L 1409 3309 
L 1409 2516 
L 750 2516 
L 750 3309 
z
" id="DejaVuSans-3a" transform="scale(0.015625)"/>
     </defs>
     <use xlink:href="#DejaVuSans-35"/>
     <use x="63.623047" xlink:href="#DejaVuSans-31"/>
     <use x="127.246094" xlink:href="#DejaVuSans-20"/>
     <use x="159.033203" xlink:href="#DejaVuSans-74"/>
     <use x="198.242188" xlink:href="#DejaVuSans-61"/>
     <use x="259.521484" xlink:href="#DejaVuSans-72"/>
     <use x="298.884766" xlink:href="#DejaVuSans-67"/>
     <use x="362.361328" xlink:href="#DejaVuSans-65"/>
     <use x="423.884766" xlink:href="#DejaVuSans-74"/>
     <use x="463.09375" xlink:href="#DejaVuSans-73"/>
     <use x="515.193359" xlink:href="#DejaVuSans-3a"/>
     <use x="548.884766" xlink:href="#DejaVuSans-20"/>
     <use x="580.671875" xlink:href="#DejaVuSans-31"/>
     <use x="644.294922" xlink:href="#DejaVuSans-30"/>
     <use x="707.917969" xlink:href="#DejaVuSans-30"/>
     <use x="771.541016" xlink:href="#DejaVuSans-2e"/>
     <use x="803.328125" xlink:href="#DejaVuSans-2e"/>
     <use x="835.115234" xlink:href="#DejaVuSans-31"/>
     <use x="898.738281" xlink:href="#DejaVuSans-65"/>
     <use x="960.261719" xlink:href="#DejaVuSans-2d"/>
     <use x="996.345703" xlink:href="#DejaVuSans-30"/>
     <use x="1059.96875" xlink:href="#DejaVuSans-38"/>
    </g>
    <!-- 15 instances -->
    <g transform="translate(60.632064 60.954904)scale(0.102 -0.102)">
     <use xlink:href="#DejaVuSans-31"/>
     <use x="63.623047" xlink:href="#DejaVuSans-35"/>
     <use x="127.246094" xlink:href="#DejaVuSans-20"/>
     <use x="159.033203" xlink:href="#DejaVuSans-69"/>
     <use x="186.816406" xlink:href="#DejaVuSans-6e"/>
     <use x="250.195312" xlink:href="#DejaVuSans-73"/>
     <use x="302.294922" xlink:href="#DejaVuSans-74"/>
     <use x="341.503906" xlink:href="#DejaVuSans-61"/>
     <use x="402.783203" xlink:href="#DejaVuSans-6e"/>
     <use x="466.162109" xlink:href="#DejaVuSans-63"/>
     <use x="521.142578" xlink:href="#DejaVuSans-65"/>
     <use x="582.666016" xlink:href="#DejaVuSans-73"/>
    </g>
   </g>
   <g id="text_20">
    <!-- v2.6 -->
    <g style="fill:#808080;" transform="translate(198.292262 294.151352)scale(0.1 -0.1)">
     <use xlink:href="#DejaVuSans-76"/>
     <use x="59.179688" xlink:href="#DejaVuSans-32"/>
     <use x="122.802734" xlink:href="#DejaVuSans-2e"/>
     <use x="154.589844" xlink:href="#DejaVuSans-36"/>
    </g>
   </g>
   <g id="text_21">
    <!-- 19 Griewank-Rosenbrock F8F2 -->
    <g transform="translate(57.101637 21.648)scale(0.2 -0.2)">
     <defs>
      <path d="M 3809 666 
L 3809 1919 
L 2778 1919 
L 2778 2438 
L 4434 2438 
L 4434 434 
Q 4069 175 3628 42 
Q 3188 -91 2688 -91 
Q 1594 -91 976 548 
Q 359 1188 359 2328 
Q 359 3472 976 4111 
Q 1594 4750 2688 4750 
Q 3144 4750 3555 4637 
Q 3966 4525 4313 4306 
L 4313 3634 
Q 3963 3931 3569 4081 
Q 3175 4231 2741 4231 
Q 1884 4231 1454 3753 
Q 1025 3275 1025 2328 
Q 1025 1384 1454 906 
Q 1884 428 2741 428 
Q 3075 428 3337 486 
Q 3600 544 3809 666 
z
" id="DejaVuSans-47" transform="scale(0.015625)"/>
      <path d="M 269 3500 
L 844 3500 
L 1563 769 
L 2278 3500 
L 2956 3500 
L 3675 769 
L 4391 3500 
L 4966 3500 
L 4050 0 
L 3372 0 
L 2619 2869 
L 1863 0 
L 1184 0 
L 269 3500 
z
" id="DejaVuSans-77" transform="scale(0.015625)"/>
      <path d="M 581 4863 
L 1159 4863 
L 1159 1991 
L 2875 3500 
L 3609 3500 
L 1753 1863 
L 3688 0 
L 2938 0 
L 1159 1709 
L 1159 0 
L 581 0 
L 581 4863 
z
" id="DejaVuSans-6b" transform="scale(0.015625)"/>
      <path d="M 2841 2188 
Q 3044 2119 3236 1894 
Q 3428 1669 3622 1275 
L 4263 0 
L 3584 0 
L 2988 1197 
Q 2756 1666 2539 1819 
Q 2322 1972 1947 1972 
L 1259 1972 
L 1259 0 
L 628 0 
L 628 4666 
L 2053 4666 
Q 2853 4666 3247 4331 
Q 3641 3997 3641 3322 
Q 3641 2881 3436 2590 
Q 3231 2300 2841 2188 
z
M 1259 4147 
L 1259 2491 
L 2053 2491 
Q 2509 2491 2742 2702 
Q 2975 2913 2975 3322 
Q 2975 3731 2742 3939 
Q 2509 4147 2053 4147 
L 1259 4147 
z
" id="DejaVuSans-52" transform="scale(0.015625)"/>
     </defs>
     <use xlink:href="#DejaVuSans-31"/>
     <use x="63.623047" xlink:href="#DejaVuSans-39"/>
     <use x="127.246094" xlink:href="#DejaVuSans-20"/>
     <use x="159.033203" xlink:href="#DejaVuSans-47"/>
     <use x="236.523438" xlink:href="#DejaVuSans-72"/>
     <use x="277.636719" xlink:href="#DejaVuSans-69"/>
     <use x="305.419922" xlink:href="#DejaVuSans-65"/>
     <use x="366.943359" xlink:href="#DejaVuSans-77"/>
     <use x="448.730469" xlink:href="#DejaVuSans-61"/>
     <use x="510.009766" xlink:href="#DejaVuSans-6e"/>
     <use x="573.388672" xlink:href="#DejaVuSans-6b"/>
     <use x="631.298828" xlink:href="#DejaVuSans-2d"/>
     <use x="667.382812" xlink:href="#DejaVuSans-52"/>
     <use x="732.365234" xlink:href="#DejaVuSans-6f"/>
     <use x="793.546875" xlink:href="#DejaVuSans-73"/>
     <use x="845.646484" xlink:href="#DejaVuSans-65"/>
     <use x="907.169922" xlink:href="#DejaVuSans-6e"/>
     <use x="970.548828" xlink:href="#DejaVuSans-62"/>
     <use x="1034.025391" xlink:href="#DejaVuSans-72"/>
     <use x="1072.888672" xlink:href="#DejaVuSans-6f"/>
     <use x="1134.070312" xlink:href="#DejaVuSans-63"/>
     <use x="1189.050781" xlink:href="#DejaVuSans-6b"/>
     <use x="1246.960938" xlink:href="#DejaVuSans-20"/>
     <use x="1278.748047" xlink:href="#DejaVuSans-46"/>
     <use x="1336.267578" xlink:href="#DejaVuSans-38"/>
     <use x="1399.890625" xlink:href="#DejaVuSans-46"/>
     <use x="1457.410156" xlink:href="#DejaVuSans-32"/>
    </g>
   </g>
  </g>
 </g>
 <defs>
  <clipPath id="p1f77ff41a5">
   <rect height="271.296" width="303.2064" x="57.6" y="27.648"/>
  </clipPath>
 </defs>
</svg>
