<?xml version="1.0" encoding="utf-8" standalone="no"?>
<!DOCTYPE svg PUBLIC "-//W3C//DTD SVG 1.1//EN"
  "http://www.w3.org/Graphics/SVG/1.1/DTD/svg11.dtd">
<svg height="345.6pt" version="1.1" viewBox="0 0 460.8 345.6" width="460.8pt" xmlns="http://www.w3.org/2000/svg" xmlns:xlink="http://www.w3.org/1999/xlink">
 <metadata>
  <rdf:RDF xmlns:cc="http://creativecommons.org/ns#" xmlns:dc="http://purl.org/dc/elements/1.1/" xmlns:rdf="http://www.w3.org/1999/02/22-rdf-syntax-ns#">
   <cc:Work>
    <dc:type rdf:resource="http://purl.org/dc/dcmitype/StillImage"/>
    <dc:date>2022-05-07T15:07:58.956912</dc:date>
    <dc:format>image/svg+xml</dc:format>
    <dc:creator>
     <cc:Agent>
      <dc:title>Matplotlib v3.4.3, https://matplotlib.org/</dc:title>
     </cc:Agent>
    </dc:creator>
   </cc:Work>
  </rdf:RDF>
 </metadata>
 <defs>
  <style type="text/css">*{stroke-linecap:butt;stroke-linejoin:round;}</style>
 </defs>
 <g id="figure_1">
  <g id="patch_1">
   <path d="M 0 345.6 
L 460.8 345.6 
L 460.8 0 
L 0 0 
z
" style="fill:#ffffff;"/>
  </g>
  <g id="axes_1">
   <g id="patch_2">
    <path d="M 57.6 298.944 
L 360.8064 298.944 
L 360.8064 27.648 
L 57.6 27.648 
z
" style="fill:#ffffff;"/>
   </g>
   <g id="line2d_1">
    <path d="M 78.266603 298.944 
L 78.266603 288.304941 
L 78.88343 288.304941 
L 78.88343 272.346353 
L 79.480672 272.346353 
L 79.480672 261.707294 
L 83.678349 261.707294 
L 83.678349 256.387765 
L 104.655893 256.387765 
L 104.655893 251.068235 
L 118.000953 251.068235 
L 118.000953 245.748706 
L 195.699831 245.748706 
L 195.699831 240.429176 
L 214.28699 240.429176 
L 214.28699 235.109647 
L 223.287002 235.109647 
L 223.287002 229.790118 
L 227.866315 229.790118 
L 227.866315 224.470588 
L 240.625603 224.470588 
L 240.625603 219.151059 
L 262.930032 219.151059 
L 262.930032 213.831529 
L 263.051535 213.831529 
L 263.051535 208.512 
L 263.267303 208.512 
L 263.267303 203.192471 
L 263.369422 203.192471 
L 263.369422 197.872941 
L 263.483181 197.872941 
L 263.483181 192.553412 
L 263.515336 192.553412 
L 263.515336 187.233882 
L 263.558354 187.233882 
L 263.558354 181.914353 
L 263.577134 181.914353 
L 263.577134 176.594824 
L 263.621033 176.594824 
L 263.621033 171.275294 
L 263.660719 171.275294 
L 263.660719 165.955765 
L 263.684621 165.955765 
L 263.684621 160.636235 
L 263.712858 160.636235 
L 263.712858 155.316706 
L 263.733319 155.316706 
L 263.733319 149.997176 
L 263.75798 149.997176 
L 263.75798 144.677647 
L 263.794112 144.677647 
L 263.794112 139.358118 
L 263.813343 139.358118 
L 263.813343 134.038588 
L 263.846502 134.038588 
L 263.846502 128.719059 
L 263.87996 128.719059 
L 263.87996 123.399529 
L 263.902936 123.399529 
L 263.902936 118.08 
L 263.924782 118.08 
L 263.924782 112.760471 
L 263.960076 112.760471 
L 263.960076 107.440941 
L 263.985154 107.440941 
L 263.985154 102.121412 
L 264.004998 102.121412 
L 264.004998 96.801882 
L 264.033984 96.801882 
L 264.033984 91.482353 
L 264.063504 91.482353 
L 264.063504 86.162824 
L 264.099826 86.162824 
L 264.099826 80.843294 
L 264.121797 80.843294 
L 264.121797 75.523765 
L 264.145762 75.523765 
L 264.145762 70.204235 
L 264.179493 70.204235 
L 264.179493 64.884706 
L 264.194369 64.884706 
L 264.194369 59.565176 
L 264.22664 59.565176 
L 264.22664 54.245647 
L 264.25009 54.245647 
L 264.25009 48.926118 
L 264.279242 48.926118 
L 264.279242 43.606588 
L 264.302372 43.606588 
L 264.302372 38.287059 
L 264.325791 38.287059 
L 264.325791 32.967529 
L 264.348832 32.967529 
L 264.348832 27.648 
L 360.8064 27.648 
" style="fill:none;stroke:#f5deb3;stroke-linecap:square;stroke-width:4;"/>
   </g>
   <g id="line2d_2">
    <defs>
     <path d="M -0 7.778175 
L 7.778175 0 
L 0 -7.778175 
L -7.778175 -0 
z
" id="mde76f7fa0f" style="stroke:#f5deb3;stroke-linejoin:miter;stroke-width:1.5;"/>
    </defs>
    <g>
     <use style="fill:#f5deb3;stroke:#f5deb3;stroke-linejoin:miter;stroke-width:1.5;" x="118.000953" xlink:href="#mde76f7fa0f" y="251.068235"/>
     <use style="fill:#f5deb3;stroke:#f5deb3;stroke-linejoin:miter;stroke-width:1.5;" x="263.267303" xlink:href="#mde76f7fa0f" y="208.512"/>
     <use style="fill:#f5deb3;stroke:#f5deb3;stroke-linejoin:miter;stroke-width:1.5;" x="264.194369" xlink:href="#mde76f7fa0f" y="59.565176"/>
     <use style="fill:#f5deb3;stroke:#f5deb3;stroke-linejoin:miter;stroke-width:1.5;" x="264.348832" xlink:href="#mde76f7fa0f" y="27.648"/>
     <use style="fill:#f5deb3;stroke:#f5deb3;stroke-linejoin:miter;stroke-width:1.5;" x="360.8064" xlink:href="#mde76f7fa0f" y="27.648"/>
    </g>
   </g>
   <g id="line2d_3">
    <path style="fill:none;stroke:#f5deb3;stroke-linecap:square;stroke-width:4;"/>
    <g/>
   </g>
   <g id="line2d_4">
    <path d="M 360.8064 27.648 
L 380.514816 33.07392 
" style="fill:none;stroke:#f5deb3;stroke-linecap:square;stroke-width:4;"/>
    <g>
     <use style="fill:#f5deb3;stroke:#f5deb3;stroke-linejoin:miter;stroke-width:1.5;" x="360.8064" xlink:href="#mde76f7fa0f" y="27.648"/>
     <use style="fill:#f5deb3;stroke:#f5deb3;stroke-linejoin:miter;stroke-width:1.5;" x="380.514816" xlink:href="#mde76f7fa0f" y="33.07392"/>
    </g>
   </g>
   <g id="matplotlib.axis_1">
    <g id="xtick_1">
     <g id="line2d_5">
      <path clip-path="url(#p53c8c583a1)" d="M 57.6 298.944 
L 57.6 27.648 
" style="fill:none;stroke:#b0b0b0;stroke-linecap:square;stroke-width:0.8;"/>
     </g>
     <g id="line2d_6">
      <defs>
       <path d="M 0 0 
L 0 3.5 
" id="m0f21c52405" style="stroke:#000000;stroke-width:0.8;"/>
      </defs>
      <g>
       <use style="stroke:#000000;stroke-width:0.8;" x="57.6" xlink:href="#m0f21c52405" y="298.944"/>
      </g>
     </g>
     <g id="text_1">
      <!-- 0 -->
      <g transform="translate(52.191875 318.861344)scale(0.17 -0.17)">
       <defs>
        <path d="M 2034 4250 
Q 1547 4250 1301 3770 
Q 1056 3291 1056 2328 
Q 1056 1369 1301 889 
Q 1547 409 2034 409 
Q 2525 409 2770 889 
Q 3016 1369 3016 2328 
Q 3016 3291 2770 3770 
Q 2525 4250 2034 4250 
z
M 2034 4750 
Q 2819 4750 3233 4129 
Q 3647 3509 3647 2328 
Q 3647 1150 3233 529 
Q 2819 -91 2034 -91 
Q 1250 -91 836 529 
Q 422 1150 422 2328 
Q 422 3509 836 4129 
Q 1250 4750 2034 4750 
z
" id="DejaVuSans-30" transform="scale(0.015625)"/>
       </defs>
       <use xlink:href="#DejaVuSans-30"/>
      </g>
     </g>
    </g>
    <g id="xtick_2">
     <g id="line2d_7">
      <path clip-path="url(#p53c8c583a1)" d="M 144.2304 298.944 
L 144.2304 27.648 
" style="fill:none;stroke:#b0b0b0;stroke-linecap:square;stroke-width:0.8;"/>
     </g>
     <g id="line2d_8">
      <g>
       <use style="stroke:#000000;stroke-width:0.8;" x="144.2304" xlink:href="#m0f21c52405" y="298.944"/>
      </g>
     </g>
     <g id="text_2">
      <!-- 2 -->
      <g transform="translate(138.822275 318.861344)scale(0.17 -0.17)">
       <defs>
        <path d="M 1228 531 
L 3431 531 
L 3431 0 
L 469 0 
L 469 531 
Q 828 903 1448 1529 
Q 2069 2156 2228 2338 
Q 2531 2678 2651 2914 
Q 2772 3150 2772 3378 
Q 2772 3750 2511 3984 
Q 2250 4219 1831 4219 
Q 1534 4219 1204 4116 
Q 875 4013 500 3803 
L 500 4441 
Q 881 4594 1212 4672 
Q 1544 4750 1819 4750 
Q 2544 4750 2975 4387 
Q 3406 4025 3406 3419 
Q 3406 3131 3298 2873 
Q 3191 2616 2906 2266 
Q 2828 2175 2409 1742 
Q 1991 1309 1228 531 
z
" id="DejaVuSans-32" transform="scale(0.015625)"/>
       </defs>
       <use xlink:href="#DejaVuSans-32"/>
      </g>
     </g>
    </g>
    <g id="xtick_3">
     <g id="line2d_9">
      <path clip-path="url(#p53c8c583a1)" d="M 230.8608 298.944 
L 230.8608 27.648 
" style="fill:none;stroke:#b0b0b0;stroke-linecap:square;stroke-width:0.8;"/>
     </g>
     <g id="line2d_10">
      <g>
       <use style="stroke:#000000;stroke-width:0.8;" x="230.8608" xlink:href="#m0f21c52405" y="298.944"/>
      </g>
     </g>
     <g id="text_3">
      <!-- 4 -->
      <g transform="translate(225.452675 318.861344)scale(0.17 -0.17)">
       <defs>
        <path d="M 2419 4116 
L 825 1625 
L 2419 1625 
L 2419 4116 
z
M 2253 4666 
L 3047 4666 
L 3047 1625 
L 3713 1625 
L 3713 1100 
L 3047 1100 
L 3047 0 
L 2419 0 
L 2419 1100 
L 313 1100 
L 313 1709 
L 2253 4666 
z
" id="DejaVuSans-34" transform="scale(0.015625)"/>
       </defs>
       <use xlink:href="#DejaVuSans-34"/>
      </g>
     </g>
    </g>
    <g id="xtick_4">
     <g id="line2d_11">
      <path clip-path="url(#p53c8c583a1)" d="M 317.4912 298.944 
L 317.4912 27.648 
" style="fill:none;stroke:#b0b0b0;stroke-linecap:square;stroke-width:0.8;"/>
     </g>
     <g id="line2d_12">
      <g>
       <use style="stroke:#000000;stroke-width:0.8;" x="317.4912" xlink:href="#m0f21c52405" y="298.944"/>
      </g>
     </g>
     <g id="text_4">
      <!-- 6 -->
      <g transform="translate(312.083075 318.861344)scale(0.17 -0.17)">
       <defs>
        <path d="M 2113 2584 
Q 1688 2584 1439 2293 
Q 1191 2003 1191 1497 
Q 1191 994 1439 701 
Q 1688 409 2113 409 
Q 2538 409 2786 701 
Q 3034 994 3034 1497 
Q 3034 2003 2786 2293 
Q 2538 2584 2113 2584 
z
M 3366 4563 
L 3366 3988 
Q 3128 4100 2886 4159 
Q 2644 4219 2406 4219 
Q 1781 4219 1451 3797 
Q 1122 3375 1075 2522 
Q 1259 2794 1537 2939 
Q 1816 3084 2150 3084 
Q 2853 3084 3261 2657 
Q 3669 2231 3669 1497 
Q 3669 778 3244 343 
Q 2819 -91 2113 -91 
Q 1303 -91 875 529 
Q 447 1150 447 2328 
Q 447 3434 972 4092 
Q 1497 4750 2381 4750 
Q 2619 4750 2861 4703 
Q 3103 4656 3366 4563 
z
" id="DejaVuSans-36" transform="scale(0.015625)"/>
       </defs>
       <use xlink:href="#DejaVuSans-36"/>
      </g>
     </g>
    </g>
    <g id="xtick_5">
     <g id="line2d_13">
      <path clip-path="url(#p53c8c583a1)" d="M 100.9152 298.944 
L 100.9152 27.648 
" style="fill:none;stroke:#b0b0b0;stroke-linecap:square;stroke-width:0.8;"/>
     </g>
     <g id="line2d_14">
      <defs>
       <path d="M 0 0 
L 0 2 
" id="mc3fbb6c1bb" style="stroke:#000000;stroke-width:0.6;"/>
      </defs>
      <g>
       <use style="stroke:#000000;stroke-width:0.6;" x="100.9152" xlink:href="#mc3fbb6c1bb" y="298.944"/>
      </g>
     </g>
    </g>
    <g id="xtick_6">
     <g id="line2d_15">
      <path clip-path="url(#p53c8c583a1)" d="M 187.5456 298.944 
L 187.5456 27.648 
" style="fill:none;stroke:#b0b0b0;stroke-linecap:square;stroke-width:0.8;"/>
     </g>
     <g id="line2d_16">
      <g>
       <use style="stroke:#000000;stroke-width:0.6;" x="187.5456" xlink:href="#mc3fbb6c1bb" y="298.944"/>
      </g>
     </g>
    </g>
    <g id="xtick_7">
     <g id="line2d_17">
      <path clip-path="url(#p53c8c583a1)" d="M 274.176 298.944 
L 274.176 27.648 
" style="fill:none;stroke:#b0b0b0;stroke-linecap:square;stroke-width:0.8;"/>
     </g>
     <g id="line2d_18">
      <g>
       <use style="stroke:#000000;stroke-width:0.6;" x="274.176" xlink:href="#mc3fbb6c1bb" y="298.944"/>
      </g>
     </g>
    </g>
    <g id="xtick_8">
     <g id="line2d_19">
      <path clip-path="url(#p53c8c583a1)" d="M 360.8064 298.944 
L 360.8064 27.648 
" style="fill:none;stroke:#b0b0b0;stroke-linecap:square;stroke-width:0.8;"/>
     </g>
     <g id="line2d_20">
      <g>
       <use style="stroke:#000000;stroke-width:0.6;" x="360.8064" xlink:href="#mc3fbb6c1bb" y="298.944"/>
      </g>
     </g>
    </g>
    <g id="text_5">
     <!-- log10(# f-evals / dimension) -->
     <g transform="translate(88.823278 339.314156)scale(0.17 -0.17)">
      <defs>
       <path d="M 603 4863 
L 1178 4863 
L 1178 0 
L 603 0 
L 603 4863 
z
" id="DejaVuSans-6c" transform="scale(0.015625)"/>
       <path d="M 1959 3097 
Q 1497 3097 1228 2736 
Q 959 2375 959 1747 
Q 959 1119 1226 758 
Q 1494 397 1959 397 
Q 2419 397 2687 759 
Q 2956 1122 2956 1747 
Q 2956 2369 2687 2733 
Q 2419 3097 1959 3097 
z
M 1959 3584 
Q 2709 3584 3137 3096 
Q 3566 2609 3566 1747 
Q 3566 888 3137 398 
Q 2709 -91 1959 -91 
Q 1206 -91 779 398 
Q 353 888 353 1747 
Q 353 2609 779 3096 
Q 1206 3584 1959 3584 
z
" id="DejaVuSans-6f" transform="scale(0.015625)"/>
       <path d="M 2906 1791 
Q 2906 2416 2648 2759 
Q 2391 3103 1925 3103 
Q 1463 3103 1205 2759 
Q 947 2416 947 1791 
Q 947 1169 1205 825 
Q 1463 481 1925 481 
Q 2391 481 2648 825 
Q 2906 1169 2906 1791 
z
M 3481 434 
Q 3481 -459 3084 -895 
Q 2688 -1331 1869 -1331 
Q 1566 -1331 1297 -1286 
Q 1028 -1241 775 -1147 
L 775 -588 
Q 1028 -725 1275 -790 
Q 1522 -856 1778 -856 
Q 2344 -856 2625 -561 
Q 2906 -266 2906 331 
L 2906 616 
Q 2728 306 2450 153 
Q 2172 0 1784 0 
Q 1141 0 747 490 
Q 353 981 353 1791 
Q 353 2603 747 3093 
Q 1141 3584 1784 3584 
Q 2172 3584 2450 3431 
Q 2728 3278 2906 2969 
L 2906 3500 
L 3481 3500 
L 3481 434 
z
" id="DejaVuSans-67" transform="scale(0.015625)"/>
       <path d="M 794 531 
L 1825 531 
L 1825 4091 
L 703 3866 
L 703 4441 
L 1819 4666 
L 2450 4666 
L 2450 531 
L 3481 531 
L 3481 0 
L 794 0 
L 794 531 
z
" id="DejaVuSans-31" transform="scale(0.015625)"/>
       <path d="M 1984 4856 
Q 1566 4138 1362 3434 
Q 1159 2731 1159 2009 
Q 1159 1288 1364 580 
Q 1569 -128 1984 -844 
L 1484 -844 
Q 1016 -109 783 600 
Q 550 1309 550 2009 
Q 550 2706 781 3412 
Q 1013 4119 1484 4856 
L 1984 4856 
z
" id="DejaVuSans-28" transform="scale(0.015625)"/>
       <path d="M 3272 2816 
L 2363 2816 
L 2100 1772 
L 3016 1772 
L 3272 2816 
z
M 2803 4594 
L 2478 3297 
L 3391 3297 
L 3719 4594 
L 4219 4594 
L 3897 3297 
L 4872 3297 
L 4872 2816 
L 3775 2816 
L 3519 1772 
L 4513 1772 
L 4513 1294 
L 3397 1294 
L 3072 0 
L 2572 0 
L 2894 1294 
L 1978 1294 
L 1656 0 
L 1153 0 
L 1478 1294 
L 494 1294 
L 494 1772 
L 1594 1772 
L 1856 2816 
L 850 2816 
L 850 3297 
L 1978 3297 
L 2297 4594 
L 2803 4594 
z
" id="DejaVuSans-23" transform="scale(0.015625)"/>
       <path id="DejaVuSans-20" transform="scale(0.015625)"/>
       <path d="M 2375 4863 
L 2375 4384 
L 1825 4384 
Q 1516 4384 1395 4259 
Q 1275 4134 1275 3809 
L 1275 3500 
L 2222 3500 
L 2222 3053 
L 1275 3053 
L 1275 0 
L 697 0 
L 697 3053 
L 147 3053 
L 147 3500 
L 697 3500 
L 697 3744 
Q 697 4328 969 4595 
Q 1241 4863 1831 4863 
L 2375 4863 
z
" id="DejaVuSans-66" transform="scale(0.015625)"/>
       <path d="M 313 2009 
L 1997 2009 
L 1997 1497 
L 313 1497 
L 313 2009 
z
" id="DejaVuSans-2d" transform="scale(0.015625)"/>
       <path d="M 3597 1894 
L 3597 1613 
L 953 1613 
Q 991 1019 1311 708 
Q 1631 397 2203 397 
Q 2534 397 2845 478 
Q 3156 559 3463 722 
L 3463 178 
Q 3153 47 2828 -22 
Q 2503 -91 2169 -91 
Q 1331 -91 842 396 
Q 353 884 353 1716 
Q 353 2575 817 3079 
Q 1281 3584 2069 3584 
Q 2775 3584 3186 3129 
Q 3597 2675 3597 1894 
z
M 3022 2063 
Q 3016 2534 2758 2815 
Q 2500 3097 2075 3097 
Q 1594 3097 1305 2825 
Q 1016 2553 972 2059 
L 3022 2063 
z
" id="DejaVuSans-65" transform="scale(0.015625)"/>
       <path d="M 191 3500 
L 800 3500 
L 1894 563 
L 2988 3500 
L 3597 3500 
L 2284 0 
L 1503 0 
L 191 3500 
z
" id="DejaVuSans-76" transform="scale(0.015625)"/>
       <path d="M 2194 1759 
Q 1497 1759 1228 1600 
Q 959 1441 959 1056 
Q 959 750 1161 570 
Q 1363 391 1709 391 
Q 2188 391 2477 730 
Q 2766 1069 2766 1631 
L 2766 1759 
L 2194 1759 
z
M 3341 1997 
L 3341 0 
L 2766 0 
L 2766 531 
Q 2569 213 2275 61 
Q 1981 -91 1556 -91 
Q 1019 -91 701 211 
Q 384 513 384 1019 
Q 384 1609 779 1909 
Q 1175 2209 1959 2209 
L 2766 2209 
L 2766 2266 
Q 2766 2663 2505 2880 
Q 2244 3097 1772 3097 
Q 1472 3097 1187 3025 
Q 903 2953 641 2809 
L 641 3341 
Q 956 3463 1253 3523 
Q 1550 3584 1831 3584 
Q 2591 3584 2966 3190 
Q 3341 2797 3341 1997 
z
" id="DejaVuSans-61" transform="scale(0.015625)"/>
       <path d="M 2834 3397 
L 2834 2853 
Q 2591 2978 2328 3040 
Q 2066 3103 1784 3103 
Q 1356 3103 1142 2972 
Q 928 2841 928 2578 
Q 928 2378 1081 2264 
Q 1234 2150 1697 2047 
L 1894 2003 
Q 2506 1872 2764 1633 
Q 3022 1394 3022 966 
Q 3022 478 2636 193 
Q 2250 -91 1575 -91 
Q 1294 -91 989 -36 
Q 684 19 347 128 
L 347 722 
Q 666 556 975 473 
Q 1284 391 1588 391 
Q 1994 391 2212 530 
Q 2431 669 2431 922 
Q 2431 1156 2273 1281 
Q 2116 1406 1581 1522 
L 1381 1569 
Q 847 1681 609 1914 
Q 372 2147 372 2553 
Q 372 3047 722 3315 
Q 1072 3584 1716 3584 
Q 2034 3584 2315 3537 
Q 2597 3491 2834 3397 
z
" id="DejaVuSans-73" transform="scale(0.015625)"/>
       <path d="M 1625 4666 
L 2156 4666 
L 531 -594 
L 0 -594 
L 1625 4666 
z
" id="DejaVuSans-2f" transform="scale(0.015625)"/>
       <path d="M 2906 2969 
L 2906 4863 
L 3481 4863 
L 3481 0 
L 2906 0 
L 2906 525 
Q 2725 213 2448 61 
Q 2172 -91 1784 -91 
Q 1150 -91 751 415 
Q 353 922 353 1747 
Q 353 2572 751 3078 
Q 1150 3584 1784 3584 
Q 2172 3584 2448 3432 
Q 2725 3281 2906 2969 
z
M 947 1747 
Q 947 1113 1208 752 
Q 1469 391 1925 391 
Q 2381 391 2643 752 
Q 2906 1113 2906 1747 
Q 2906 2381 2643 2742 
Q 2381 3103 1925 3103 
Q 1469 3103 1208 2742 
Q 947 2381 947 1747 
z
" id="DejaVuSans-64" transform="scale(0.015625)"/>
       <path d="M 603 3500 
L 1178 3500 
L 1178 0 
L 603 0 
L 603 3500 
z
M 603 4863 
L 1178 4863 
L 1178 4134 
L 603 4134 
L 603 4863 
z
" id="DejaVuSans-69" transform="scale(0.015625)"/>
       <path d="M 3328 2828 
Q 3544 3216 3844 3400 
Q 4144 3584 4550 3584 
Q 5097 3584 5394 3201 
Q 5691 2819 5691 2113 
L 5691 0 
L 5113 0 
L 5113 2094 
Q 5113 2597 4934 2840 
Q 4756 3084 4391 3084 
Q 3944 3084 3684 2787 
Q 3425 2491 3425 1978 
L 3425 0 
L 2847 0 
L 2847 2094 
Q 2847 2600 2669 2842 
Q 2491 3084 2119 3084 
Q 1678 3084 1418 2786 
Q 1159 2488 1159 1978 
L 1159 0 
L 581 0 
L 581 3500 
L 1159 3500 
L 1159 2956 
Q 1356 3278 1631 3431 
Q 1906 3584 2284 3584 
Q 2666 3584 2933 3390 
Q 3200 3197 3328 2828 
z
" id="DejaVuSans-6d" transform="scale(0.015625)"/>
       <path d="M 3513 2113 
L 3513 0 
L 2938 0 
L 2938 2094 
Q 2938 2591 2744 2837 
Q 2550 3084 2163 3084 
Q 1697 3084 1428 2787 
Q 1159 2491 1159 1978 
L 1159 0 
L 581 0 
L 581 3500 
L 1159 3500 
L 1159 2956 
Q 1366 3272 1645 3428 
Q 1925 3584 2291 3584 
Q 2894 3584 3203 3211 
Q 3513 2838 3513 2113 
z
" id="DejaVuSans-6e" transform="scale(0.015625)"/>
       <path d="M 513 4856 
L 1013 4856 
Q 1481 4119 1714 3412 
Q 1947 2706 1947 2009 
Q 1947 1309 1714 600 
Q 1481 -109 1013 -844 
L 513 -844 
Q 928 -128 1133 580 
Q 1338 1288 1338 2009 
Q 1338 2731 1133 3434 
Q 928 4138 513 4856 
z
" id="DejaVuSans-29" transform="scale(0.015625)"/>
      </defs>
      <use xlink:href="#DejaVuSans-6c"/>
      <use x="27.783203" xlink:href="#DejaVuSans-6f"/>
      <use x="88.964844" xlink:href="#DejaVuSans-67"/>
      <use x="152.441406" xlink:href="#DejaVuSans-31"/>
      <use x="216.064453" xlink:href="#DejaVuSans-30"/>
      <use x="279.6875" xlink:href="#DejaVuSans-28"/>
      <use x="318.701172" xlink:href="#DejaVuSans-23"/>
      <use x="402.490234" xlink:href="#DejaVuSans-20"/>
      <use x="434.277344" xlink:href="#DejaVuSans-66"/>
      <use x="463.982422" xlink:href="#DejaVuSans-2d"/>
      <use x="500.066406" xlink:href="#DejaVuSans-65"/>
      <use x="561.589844" xlink:href="#DejaVuSans-76"/>
      <use x="620.769531" xlink:href="#DejaVuSans-61"/>
      <use x="682.048828" xlink:href="#DejaVuSans-6c"/>
      <use x="709.832031" xlink:href="#DejaVuSans-73"/>
      <use x="761.931641" xlink:href="#DejaVuSans-20"/>
      <use x="793.71875" xlink:href="#DejaVuSans-2f"/>
      <use x="827.410156" xlink:href="#DejaVuSans-20"/>
      <use x="859.197266" xlink:href="#DejaVuSans-64"/>
      <use x="922.673828" xlink:href="#DejaVuSans-69"/>
      <use x="950.457031" xlink:href="#DejaVuSans-6d"/>
      <use x="1047.869141" xlink:href="#DejaVuSans-65"/>
      <use x="1109.392578" xlink:href="#DejaVuSans-6e"/>
      <use x="1172.771484" xlink:href="#DejaVuSans-73"/>
      <use x="1224.871094" xlink:href="#DejaVuSans-69"/>
      <use x="1252.654297" xlink:href="#DejaVuSans-6f"/>
      <use x="1313.835938" xlink:href="#DejaVuSans-6e"/>
      <use x="1377.214844" xlink:href="#DejaVuSans-29"/>
     </g>
    </g>
   </g>
   <g id="matplotlib.axis_2">
    <g id="ytick_1">
     <g id="line2d_21">
      <path clip-path="url(#p53c8c583a1)" d="M 57.6 298.944 
L 360.8064 298.944 
" style="fill:none;stroke:#b0b0b0;stroke-linecap:square;stroke-width:0.8;"/>
     </g>
     <g id="line2d_22">
      <defs>
       <path d="M 0 0 
L -3.5 0 
" id="m5ae63667cc" style="stroke:#000000;stroke-width:0.8;"/>
      </defs>
      <g>
       <use style="stroke:#000000;stroke-width:0.8;" x="57.6" xlink:href="#m5ae63667cc" y="298.944"/>
      </g>
     </g>
     <g id="text_6">
      <!-- 0.0 -->
      <g transform="translate(25.155 305.02275)scale(0.16 -0.16)">
       <defs>
        <path d="M 684 794 
L 1344 794 
L 1344 0 
L 684 0 
L 684 794 
z
" id="DejaVuSans-2e" transform="scale(0.015625)"/>
       </defs>
       <use xlink:href="#DejaVuSans-30"/>
       <use x="63.623047" xlink:href="#DejaVuSans-2e"/>
       <use x="95.410156" xlink:href="#DejaVuSans-30"/>
      </g>
     </g>
    </g>
    <g id="ytick_2">
     <g id="line2d_23">
      <path clip-path="url(#p53c8c583a1)" d="M 57.6 244.6848 
L 360.8064 244.6848 
" style="fill:none;stroke:#b0b0b0;stroke-linecap:square;stroke-width:0.8;"/>
     </g>
     <g id="line2d_24">
      <g>
       <use style="stroke:#000000;stroke-width:0.8;" x="57.6" xlink:href="#m5ae63667cc" y="244.6848"/>
      </g>
     </g>
     <g id="text_7">
      <!-- 0.2 -->
      <g transform="translate(25.155 250.76355)scale(0.16 -0.16)">
       <use xlink:href="#DejaVuSans-30"/>
       <use x="63.623047" xlink:href="#DejaVuSans-2e"/>
       <use x="95.410156" xlink:href="#DejaVuSans-32"/>
      </g>
     </g>
    </g>
    <g id="ytick_3">
     <g id="line2d_25">
      <path clip-path="url(#p53c8c583a1)" d="M 57.6 190.4256 
L 360.8064 190.4256 
" style="fill:none;stroke:#b0b0b0;stroke-linecap:square;stroke-width:0.8;"/>
     </g>
     <g id="line2d_26">
      <g>
       <use style="stroke:#000000;stroke-width:0.8;" x="57.6" xlink:href="#m5ae63667cc" y="190.4256"/>
      </g>
     </g>
     <g id="text_8">
      <!-- 0.4 -->
      <g transform="translate(25.155 196.50435)scale(0.16 -0.16)">
       <use xlink:href="#DejaVuSans-30"/>
       <use x="63.623047" xlink:href="#DejaVuSans-2e"/>
       <use x="95.410156" xlink:href="#DejaVuSans-34"/>
      </g>
     </g>
    </g>
    <g id="ytick_4">
     <g id="line2d_27">
      <path clip-path="url(#p53c8c583a1)" d="M 57.6 136.1664 
L 360.8064 136.1664 
" style="fill:none;stroke:#b0b0b0;stroke-linecap:square;stroke-width:0.8;"/>
     </g>
     <g id="line2d_28">
      <g>
       <use style="stroke:#000000;stroke-width:0.8;" x="57.6" xlink:href="#m5ae63667cc" y="136.1664"/>
      </g>
     </g>
     <g id="text_9">
      <!-- 0.6 -->
      <g transform="translate(25.155 142.24515)scale(0.16 -0.16)">
       <use xlink:href="#DejaVuSans-30"/>
       <use x="63.623047" xlink:href="#DejaVuSans-2e"/>
       <use x="95.410156" xlink:href="#DejaVuSans-36"/>
      </g>
     </g>
    </g>
    <g id="ytick_5">
     <g id="line2d_29">
      <path clip-path="url(#p53c8c583a1)" d="M 57.6 81.9072 
L 360.8064 81.9072 
" style="fill:none;stroke:#b0b0b0;stroke-linecap:square;stroke-width:0.8;"/>
     </g>
     <g id="line2d_30">
      <g>
       <use style="stroke:#000000;stroke-width:0.8;" x="57.6" xlink:href="#m5ae63667cc" y="81.9072"/>
      </g>
     </g>
     <g id="text_10">
      <!-- 0.8 -->
      <g transform="translate(25.155 87.98595)scale(0.16 -0.16)">
       <defs>
        <path d="M 2034 2216 
Q 1584 2216 1326 1975 
Q 1069 1734 1069 1313 
Q 1069 891 1326 650 
Q 1584 409 2034 409 
Q 2484 409 2743 651 
Q 3003 894 3003 1313 
Q 3003 1734 2745 1975 
Q 2488 2216 2034 2216 
z
M 1403 2484 
Q 997 2584 770 2862 
Q 544 3141 544 3541 
Q 544 4100 942 4425 
Q 1341 4750 2034 4750 
Q 2731 4750 3128 4425 
Q 3525 4100 3525 3541 
Q 3525 3141 3298 2862 
Q 3072 2584 2669 2484 
Q 3125 2378 3379 2068 
Q 3634 1759 3634 1313 
Q 3634 634 3220 271 
Q 2806 -91 2034 -91 
Q 1263 -91 848 271 
Q 434 634 434 1313 
Q 434 1759 690 2068 
Q 947 2378 1403 2484 
z
M 1172 3481 
Q 1172 3119 1398 2916 
Q 1625 2713 2034 2713 
Q 2441 2713 2670 2916 
Q 2900 3119 2900 3481 
Q 2900 3844 2670 4047 
Q 2441 4250 2034 4250 
Q 1625 4250 1398 4047 
Q 1172 3844 1172 3481 
z
" id="DejaVuSans-38" transform="scale(0.015625)"/>
       </defs>
       <use xlink:href="#DejaVuSans-30"/>
       <use x="63.623047" xlink:href="#DejaVuSans-2e"/>
       <use x="95.410156" xlink:href="#DejaVuSans-38"/>
      </g>
     </g>
    </g>
    <g id="ytick_6">
     <g id="line2d_31">
      <path clip-path="url(#p53c8c583a1)" d="M 57.6 27.648 
L 360.8064 27.648 
" style="fill:none;stroke:#b0b0b0;stroke-linecap:square;stroke-width:0.8;"/>
     </g>
     <g id="line2d_32">
      <g>
       <use style="stroke:#000000;stroke-width:0.8;" x="57.6" xlink:href="#m5ae63667cc" y="27.648"/>
      </g>
     </g>
     <g id="text_11">
      <!-- 1.0 -->
      <g transform="translate(25.155 33.72675)scale(0.16 -0.16)">
       <use xlink:href="#DejaVuSans-31"/>
       <use x="63.623047" xlink:href="#DejaVuSans-2e"/>
       <use x="95.410156" xlink:href="#DejaVuSans-30"/>
      </g>
     </g>
    </g>
    <g id="text_12">
     <!-- Fraction of function,target pairs -->
     <g transform="translate(17.619531 297.681)rotate(-90)scale(0.17 -0.17)">
      <defs>
       <path d="M 628 4666 
L 3309 4666 
L 3309 4134 
L 1259 4134 
L 1259 2759 
L 3109 2759 
L 3109 2228 
L 1259 2228 
L 1259 0 
L 628 0 
L 628 4666 
z
" id="DejaVuSans-46" transform="scale(0.015625)"/>
       <path d="M 2631 2963 
Q 2534 3019 2420 3045 
Q 2306 3072 2169 3072 
Q 1681 3072 1420 2755 
Q 1159 2438 1159 1844 
L 1159 0 
L 581 0 
L 581 3500 
L 1159 3500 
L 1159 2956 
Q 1341 3275 1631 3429 
Q 1922 3584 2338 3584 
Q 2397 3584 2469 3576 
Q 2541 3569 2628 3553 
L 2631 2963 
z
" id="DejaVuSans-72" transform="scale(0.015625)"/>
       <path d="M 3122 3366 
L 3122 2828 
Q 2878 2963 2633 3030 
Q 2388 3097 2138 3097 
Q 1578 3097 1268 2742 
Q 959 2388 959 1747 
Q 959 1106 1268 751 
Q 1578 397 2138 397 
Q 2388 397 2633 464 
Q 2878 531 3122 666 
L 3122 134 
Q 2881 22 2623 -34 
Q 2366 -91 2075 -91 
Q 1284 -91 818 406 
Q 353 903 353 1747 
Q 353 2603 823 3093 
Q 1294 3584 2113 3584 
Q 2378 3584 2631 3529 
Q 2884 3475 3122 3366 
z
" id="DejaVuSans-63" transform="scale(0.015625)"/>
       <path d="M 1172 4494 
L 1172 3500 
L 2356 3500 
L 2356 3053 
L 1172 3053 
L 1172 1153 
Q 1172 725 1289 603 
Q 1406 481 1766 481 
L 2356 481 
L 2356 0 
L 1766 0 
Q 1100 0 847 248 
Q 594 497 594 1153 
L 594 3053 
L 172 3053 
L 172 3500 
L 594 3500 
L 594 4494 
L 1172 4494 
z
" id="DejaVuSans-74" transform="scale(0.015625)"/>
       <path d="M 544 1381 
L 544 3500 
L 1119 3500 
L 1119 1403 
Q 1119 906 1312 657 
Q 1506 409 1894 409 
Q 2359 409 2629 706 
Q 2900 1003 2900 1516 
L 2900 3500 
L 3475 3500 
L 3475 0 
L 2900 0 
L 2900 538 
Q 2691 219 2414 64 
Q 2138 -91 1772 -91 
Q 1169 -91 856 284 
Q 544 659 544 1381 
z
M 1991 3584 
L 1991 3584 
z
" id="DejaVuSans-75" transform="scale(0.015625)"/>
       <path d="M 750 794 
L 1409 794 
L 1409 256 
L 897 -744 
L 494 -744 
L 750 256 
L 750 794 
z
" id="DejaVuSans-2c" transform="scale(0.015625)"/>
       <path d="M 1159 525 
L 1159 -1331 
L 581 -1331 
L 581 3500 
L 1159 3500 
L 1159 2969 
Q 1341 3281 1617 3432 
Q 1894 3584 2278 3584 
Q 2916 3584 3314 3078 
Q 3713 2572 3713 1747 
Q 3713 922 3314 415 
Q 2916 -91 2278 -91 
Q 1894 -91 1617 61 
Q 1341 213 1159 525 
z
M 3116 1747 
Q 3116 2381 2855 2742 
Q 2594 3103 2138 3103 
Q 1681 3103 1420 2742 
Q 1159 2381 1159 1747 
Q 1159 1113 1420 752 
Q 1681 391 2138 391 
Q 2594 391 2855 752 
Q 3116 1113 3116 1747 
z
" id="DejaVuSans-70" transform="scale(0.015625)"/>
      </defs>
      <use xlink:href="#DejaVuSans-46"/>
      <use x="50.269531" xlink:href="#DejaVuSans-72"/>
      <use x="91.382812" xlink:href="#DejaVuSans-61"/>
      <use x="152.662109" xlink:href="#DejaVuSans-63"/>
      <use x="207.642578" xlink:href="#DejaVuSans-74"/>
      <use x="246.851562" xlink:href="#DejaVuSans-69"/>
      <use x="274.634766" xlink:href="#DejaVuSans-6f"/>
      <use x="335.816406" xlink:href="#DejaVuSans-6e"/>
      <use x="399.195312" xlink:href="#DejaVuSans-20"/>
      <use x="430.982422" xlink:href="#DejaVuSans-6f"/>
      <use x="492.164062" xlink:href="#DejaVuSans-66"/>
      <use x="527.369141" xlink:href="#DejaVuSans-20"/>
      <use x="559.15625" xlink:href="#DejaVuSans-66"/>
      <use x="594.361328" xlink:href="#DejaVuSans-75"/>
      <use x="657.740234" xlink:href="#DejaVuSans-6e"/>
      <use x="721.119141" xlink:href="#DejaVuSans-63"/>
      <use x="776.099609" xlink:href="#DejaVuSans-74"/>
      <use x="815.308594" xlink:href="#DejaVuSans-69"/>
      <use x="843.091797" xlink:href="#DejaVuSans-6f"/>
      <use x="904.273438" xlink:href="#DejaVuSans-6e"/>
      <use x="967.652344" xlink:href="#DejaVuSans-2c"/>
      <use x="999.439453" xlink:href="#DejaVuSans-74"/>
      <use x="1038.648438" xlink:href="#DejaVuSans-61"/>
      <use x="1099.927734" xlink:href="#DejaVuSans-72"/>
      <use x="1139.291016" xlink:href="#DejaVuSans-67"/>
      <use x="1202.767578" xlink:href="#DejaVuSans-65"/>
      <use x="1264.291016" xlink:href="#DejaVuSans-74"/>
      <use x="1303.5" xlink:href="#DejaVuSans-20"/>
      <use x="1335.287109" xlink:href="#DejaVuSans-70"/>
      <use x="1398.763672" xlink:href="#DejaVuSans-61"/>
      <use x="1460.042969" xlink:href="#DejaVuSans-69"/>
      <use x="1487.826172" xlink:href="#DejaVuSans-72"/>
      <use x="1528.939453" xlink:href="#DejaVuSans-73"/>
     </g>
    </g>
   </g>
   <g id="line2d_33">
    <defs>
     <path d="M 0 1.5 
C 0.397805 1.5 0.77937 1.341951 1.06066 1.06066 
C 1.341951 0.77937 1.5 0.397805 1.5 0 
C 1.5 -0.397805 1.341951 -0.77937 1.06066 -1.06066 
C 0.77937 -1.341951 0.397805 -1.5 0 -1.5 
C -0.397805 -1.5 -0.77937 -1.341951 -1.06066 -1.06066 
C -1.341951 -0.77937 -1.5 -0.397805 -1.5 0 
C -1.5 0.397805 -1.341951 0.77937 -1.06066 1.06066 
C -0.77937 1.341951 -0.397805 1.5 0 1.5 
z
" id="m23e1d0437c" style="stroke:#f5deb3;"/>
    </defs>
    <g>
     <use style="fill:#f5deb3;stroke:#f5deb3;" x="264.348832" xlink:href="#m23e1d0437c" y="27.648"/>
     <use style="fill:#f5deb3;stroke:#f5deb3;" x="264.348832" xlink:href="#m23e1d0437c" y="27.648"/>
    </g>
   </g>
   <g id="line2d_34">
    <defs>
     <path d="M 0 1.5 
C 0.397805 1.5 0.77937 1.341951 1.06066 1.06066 
C 1.341951 0.77937 1.5 0.397805 1.5 0 
C 1.5 -0.397805 1.341951 -0.77937 1.06066 -1.06066 
C 0.77937 -1.341951 0.397805 -1.5 0 -1.5 
C -0.397805 -1.5 -0.77937 -1.341951 -1.06066 -1.06066 
C -1.341951 -0.77937 -1.5 -0.397805 -1.5 0 
C -1.5 0.397805 -1.341951 0.77937 -1.06066 1.06066 
C -0.77937 1.341951 -0.397805 1.5 0 1.5 
z
" id="m86ca15bc15" style="stroke:#000080;"/>
    </defs>
    <g>
     <use style="fill:#000080;stroke:#000080;" x="280.870375" xlink:href="#m86ca15bc15" y="27.648"/>
     <use style="fill:#000080;stroke:#000080;" x="280.870375" xlink:href="#m86ca15bc15" y="27.648"/>
    </g>
   </g>
   <g id="line2d_35">
    <path d="M 133.820365 298.944 
L 133.820365 296.461553 
L 134.652304 296.461553 
L 134.652304 294.688376 
L 135.981441 294.688376 
L 135.981441 291.851294 
L 136.385386 291.851294 
L 136.385386 289.014212 
L 137.113304 289.014212 
L 137.113304 286.531765 
L 137.439996 286.531765 
L 137.439996 286.177129 
L 138.843719 286.177129 
L 138.843719 284.049318 
L 139.386872 284.049318 
L 139.386872 282.276141 
L 139.724525 282.276141 
L 139.724525 281.566871 
L 140.702573 281.566871 
L 140.702573 279.793694 
L 140.972924 279.793694 
L 141.062184 278.729788 
L 141.151022 278.729788 
L 141.239443 276.247341 
L 141.632274 276.247341 
L 141.632274 275.538071 
L 142.352625 275.538071 
L 142.352625 274.474165 
L 142.559347 274.474165 
L 142.641404 273.764894 
L 142.763822 273.764894 
L 142.763822 273.410259 
L 143.205995 273.410259 
L 143.205995 273.055624 
L 143.48206 273.055624 
L 143.48206 271.282447 
L 143.638012 271.282447 
L 143.638012 269.154635 
L 144.022326 269.154635 
L 144.022326 268.445365 
L 144.694906 268.445365 
L 144.768174 262.416565 
L 145.344267 262.416565 
L 145.344267 259.579482 
L 145.93763 259.579482 
L 145.93763 259.224847 
L 146.678736 259.224847 
L 146.678736 258.160941 
L 147.423525 258.160941 
L 147.423525 257.806306 
L 147.675821 257.806306 
L 147.675821 257.451671 
L 147.800712 257.451671 
L 147.800712 257.097035 
L 148.44312 257.097035 
L 148.44312 256.7424 
L 149.006027 256.7424 
L 149.006027 256.387765 
L 154.789862 256.387765 
L 154.789862 256.033129 
L 154.918196 256.033129 
L 154.918196 255.678494 
L 155.402189 255.678494 
L 155.402189 255.323859 
L 155.629335 255.323859 
L 155.629335 254.969224 
L 159.325729 254.969224 
L 159.325729 254.614588 
L 159.61025 254.614588 
L 159.709651 253.905318 
L 159.955879 253.905318 
L 159.955879 253.550682 
L 160.150567 253.550682 
L 160.150567 253.196047 
L 160.486497 253.196047 
L 160.486497 252.841412 
L 160.816532 252.841412 
L 160.816532 252.486776 
L 162.008681 252.486776 
L 162.008681 252.132141 
L 162.485131 252.132141 
L 162.485131 251.777506 
L 163.912284 251.777506 
L 163.912284 251.422871 
L 165.772971 251.422871 
L 165.772971 251.068235 
L 173.983796 251.068235 
L 173.983796 250.7136 
L 174.926834 250.7136 
L 174.926834 250.358965 
L 175.492201 250.358965 
L 175.492201 250.004329 
L 176.054937 250.004329 
L 176.054937 249.649694 
L 178.773202 249.649694 
L 178.773202 249.295059 
L 180.348695 249.295059 
L 180.348695 248.940424 
L 180.99921 248.940424 
L 180.99921 248.585788 
L 181.337167 248.585788 
L 181.337167 248.231153 
L 182.020644 248.231153 
L 182.020644 247.876518 
L 182.390441 247.876518 
L 182.390441 247.521882 
L 182.816104 247.521882 
L 182.816104 247.167247 
L 184.68869 247.167247 
L 184.68869 246.812612 
L 185.194222 246.812612 
L 185.194222 246.457976 
L 187.392606 246.457976 
L 187.392606 246.103341 
L 187.779287 246.103341 
L 187.779287 245.748706 
L 188.490273 245.748706 
L 188.490273 245.394071 
L 188.788453 245.394071 
L 188.879797 244.6848 
L 193.117035 244.6848 
L 193.117035 243.975529 
L 194.280588 243.975529 
L 194.364562 242.911624 
L 195.088815 242.911624 
L 195.088815 242.556988 
L 197.914157 242.556988 
L 197.914157 242.202353 
L 198.037335 242.202353 
L 198.037335 241.847718 
L 198.364036 241.847718 
L 198.364036 241.493082 
L 198.488519 241.493082 
L 198.488519 241.138447 
L 198.799271 241.138447 
L 198.799271 240.783812 
L 199.129379 240.783812 
L 199.129379 240.429176 
L 199.841328 240.429176 
L 199.841328 240.074541 
L 200.331949 240.074541 
L 200.331949 239.719906 
L 200.952681 239.719906 
L 200.952681 239.365271 
L 201.070375 239.365271 
L 201.070375 239.010635 
L 201.939113 239.010635 
L 201.939113 238.656 
L 202.135884 238.656 
L 202.237812 237.946729 
L 202.749387 237.946729 
L 202.749387 237.592094 
L 203.186904 237.592094 
L 203.186904 237.237459 
L 203.452043 237.237459 
L 203.469802 236.173553 
L 203.859477 236.173553 
L 203.859477 235.818918 
L 204.051329 235.818918 
L 204.14964 235.109647 
L 204.207139 235.109647 
L 204.269103 234.045741 
L 204.412386 234.045741 
L 204.412386 233.691106 
L 204.578942 233.691106 
L 204.688157 232.981835 
L 204.719893 232.981835 
L 204.719893 232.6272 
L 204.979315 232.6272 
L 205.017996 231.917929 
L 205.106957 231.917929 
L 205.205802 230.854024 
L 205.304131 230.854024 
L 205.362591 229.790118 
L 205.516636 229.790118 
L 205.516636 229.435482 
L 205.693819 229.435482 
L 205.803895 228.016941 
L 205.921832 228.016941 
L 206.030586 227.307671 
L 206.154111 227.307671 
L 206.154111 226.953035 
L 206.29628 226.953035 
L 206.332348 225.889129 
L 206.420838 225.889129 
L 206.493804 224.115953 
L 206.642983 224.115953 
L 206.655248 223.406682 
L 206.780166 223.406682 
L 206.877352 222.342776 
L 206.979396 222.342776 
L 207.042226 221.278871 
L 207.169911 221.278871 
L 207.273021 219.860329 
L 207.366388 219.860329 
L 207.446237 218.441788 
L 207.673448 218.441788 
L 207.673448 217.732518 
L 207.787957 217.732518 
L 207.787957 217.377882 
L 207.906872 217.377882 
L 207.959059 215.959341 
L 208.118539 215.959341 
L 208.118539 215.604706 
L 208.242903 215.604706 
L 208.242903 215.250071 
L 208.404971 215.250071 
L 208.492898 214.186165 
L 208.521294 214.186165 
L 208.566884 213.122259 
L 208.694442 213.122259 
L 208.729857 211.703718 
L 208.823568 211.703718 
L 208.823568 211.349082 
L 209.012005 211.349082 
L 209.116281 210.285176 
L 209.16403 210.285176 
L 209.16403 209.930541 
L 209.2888 209.930541 
L 209.308923 208.512 
L 209.420981 208.512 
L 209.504296 207.093459 
L 209.560413 207.093459 
L 209.591906 206.384188 
L 209.737021 206.384188 
L 209.783223 205.320282 
L 209.864952 205.320282 
L 209.97604 203.547106 
L 210.009125 203.547106 
L 210.111433 202.128565 
L 210.154463 202.128565 
L 210.257111 201.064659 
L 210.364795 201.064659 
L 210.364795 200.710024 
L 210.5285 200.710024 
L 210.582754 199.646118 
L 210.667694 199.646118 
L 210.667694 199.291482 
L 210.841887 199.291482 
L 210.907203 198.582212 
L 211.000429 198.582212 
L 211.000429 198.227576 
L 211.172653 198.227576 
L 211.247508 197.518306 
L 211.350745 197.518306 
L 211.457641 196.4544 
L 211.468192 196.4544 
L 211.573376 194.681224 
L 211.598533 194.681224 
L 211.706117 193.617318 
L 211.752928 193.617318 
L 211.856536 192.553412 
L 211.922547 192.553412 
L 212.025227 191.844141 
L 212.130406 191.844141 
L 212.185314 190.4256 
L 212.303734 190.4256 
L 212.403357 189.361694 
L 212.426426 189.361694 
L 212.537365 187.943153 
L 212.563256 187.943153 
L 212.64369 186.524612 
L 212.779938 186.524612 
L 212.859453 185.460706 
L 212.906414 185.460706 
L 213.003876 183.687529 
L 213.052418 183.687529 
L 213.158772 180.850447 
L 213.288481 180.850447 
L 213.288481 180.495812 
L 213.446759 180.495812 
L 213.511213 179.786541 
L 213.603716 179.786541 
L 213.603716 179.431906 
L 221.381042 179.431906 
L 221.381042 179.077271 
L 222.006958 179.077271 
L 222.006958 178.722635 
L 222.165314 178.722635 
L 222.262425 177.304094 
L 222.413349 177.304094 
L 222.52209 176.240188 
L 222.567165 176.240188 
L 222.621463 175.530918 
L 222.738863 175.530918 
L 222.838829 174.821647 
L 222.988076 174.821647 
L 222.988076 174.112376 
L 223.118554 174.112376 
L 223.209184 171.275294 
L 223.30219 171.275294 
L 223.40984 169.502118 
L 223.439448 169.502118 
L 223.505201 168.438212 
L 223.717047 168.438212 
L 223.717047 167.374306 
L 223.832198 167.374306 
L 223.927622 165.955765 
L 224.026352 165.955765 
L 224.048522 164.891859 
L 224.169724 164.891859 
L 224.250094 163.473318 
L 224.308814 163.473318 
L 224.380099 161.345506 
L 224.570285 161.345506 
L 224.625395 160.2816 
L 224.704889 160.2816 
L 224.746073 158.863059 
L 224.832318 158.863059 
L 224.932612 157.444518 
L 224.970214 157.444518 
L 224.993869 156.025976 
L 225.109149 156.025976 
L 225.208998 153.543529 
L 225.328525 153.543529 
L 225.328525 153.188894 
L 225.482383 153.188894 
L 225.565824 152.124988 
L 225.601187 152.124988 
L 225.684103 148.933271 
L 225.755801 148.933271 
L 225.755801 148.578635 
L 225.936059 148.578635 
L 226.019463 147.160094 
L 226.06758 147.160094 
L 226.163448 144.323012 
L 226.250659 144.323012 
L 226.312569 142.549835 
L 226.384302 142.549835 
L 226.423877 140.067388 
L 226.579461 140.067388 
L 226.579461 139.712753 
L 231.418125 139.712753 
L 231.481571 139.003482 
L 231.614333 139.003482 
L 231.614333 138.648847 
L 231.832825 138.648847 
L 231.925491 137.230306 
L 232.02513 137.230306 
L 232.121429 135.457129 
L 232.15939 135.457129 
L 232.248717 133.329318 
L 232.305944 133.329318 
L 232.403247 131.556141 
L 232.515215 131.556141 
L 232.579194 129.782965 
L 232.635083 129.782965 
L 232.635083 129.428329 
L 232.757593 129.428329 
L 232.793274 128.719059 
L 232.924878 128.719059 
L 233.011323 126.236612 
L 233.088684 126.236612 
L 233.197655 122.690259 
L 233.210277 122.690259 
L 233.27227 121.626353 
L 233.337028 121.626353 
L 233.434404 119.143906 
L 233.59255 119.143906 
L 233.693795 117.016094 
L 233.72613 117.016094 
L 233.819911 115.597553 
L 233.867107 115.597553 
L 233.962104 113.115106 
L 234.019763 113.115106 
L 234.130444 110.987294 
L 234.134554 110.987294 
L 234.237962 109.923388 
L 237.16253 109.923388 
L 237.16253 109.568753 
L 237.39789 109.568753 
L 237.4279 108.859482 
L 237.592763 108.859482 
L 237.638478 108.150212 
L 237.750717 108.150212 
L 237.750717 107.795576 
L 237.899075 107.795576 
L 237.914597 106.377035 
L 238.01852 106.377035 
L 238.079369 105.313129 
L 238.151005 105.313129 
L 238.218044 104.249224 
L 238.262774 104.249224 
L 238.337763 102.121412 
L 238.436111 102.121412 
L 238.539451 100.702871 
L 238.593154 100.702871 
L 238.600386 99.9936 
L 238.715969 99.9936 
L 238.81409 98.220424 
L 238.856934 98.220424 
L 238.946249 96.801882 
L 238.994166 96.801882 
L 239.087206 93.610165 
L 239.193323 93.610165 
L 239.223981 92.900894 
L 239.388003 92.900894 
L 239.469124 90.418447 
L 239.532583 90.418447 
L 239.587787 87.581365 
L 242.267225 87.581365 
L 242.267225 87.226729 
L 242.428821 87.226729 
L 242.520946 86.162824 
L 242.599525 86.162824 
L 242.681991 83.325741 
L 242.797838 83.325741 
L 242.824149 81.9072 
L 242.977495 81.9072 
L 243.088595 79.779388 
L 243.146838 79.779388 
L 243.255778 76.942306 
L 243.26726 76.942306 
L 243.337168 76.233035 
L 243.394841 76.233035 
L 243.488135 75.169129 
L 243.511194 75.169129 
L 243.548031 73.750588 
L 243.622824 73.750588 
L 243.715567 71.622776 
L 243.741764 71.622776 
L 243.810312 70.204235 
L 243.872207 70.204235 
L 243.903454 69.494965 
L 245.828629 69.494965 
L 245.828629 69.140329 
L 245.980818 69.140329 
L 245.980818 68.785694 
L 246.281385 68.785694 
L 246.385682 65.948612 
L 246.404628 65.948612 
L 246.497762 63.8208 
L 246.541296 63.8208 
L 246.541296 63.466165 
L 246.664153 63.466165 
L 246.699362 62.756894 
L 246.781532 62.756894 
L 246.816845 61.692988 
L 247.011087 61.692988 
L 247.031325 60.629082 
L 247.219907 60.629082 
L 247.250158 58.855906 
L 247.334193 58.855906 
L 247.334193 58.501271 
L 248.968041 58.501271 
L 249.057489 57.792 
L 249.193425 57.792 
L 249.220948 57.082729 
L 249.36922 57.082729 
L 249.36922 56.728094 
L 249.494688 56.728094 
L 249.578056 56.018824 
L 249.611966 56.018824 
L 249.691914 54.600282 
L 249.758026 54.600282 
L 249.782535 52.827106 
L 249.955389 52.827106 
L 250.034708 51.7632 
L 250.119372 51.7632 
L 250.221543 50.344659 
L 250.234712 50.344659 
L 250.234712 49.990024 
L 251.643612 49.990024 
L 251.643612 49.635388 
L 251.890267 49.635388 
L 251.986708 47.862212 
L 252.007625 47.862212 
L 252.054388 46.443671 
L 252.349607 46.443671 
L 252.349607 46.089035 
L 252.617319 46.089035 
L 252.673334 45.025129 
L 254.306381 45.025129 
L 254.371397 43.961224 
L 254.466357 43.961224 
L 254.477617 42.897318 
L 254.606254 42.897318 
L 254.606254 42.542682 
L 254.746386 42.542682 
L 254.854613 41.833412 
L 254.897647 41.833412 
L 254.911585 41.124141 
L 256.410958 41.124141 
L 256.448454 40.414871 
L 256.593289 40.414871 
L 256.628225 39.350965 
L 256.847833 39.350965 
L 256.897859 38.641694 
L 258.157377 38.641694 
L 258.253402 37.223153 
L 258.287578 37.223153 
L 258.287578 36.868518 
L 258.422275 36.868518 
L 258.422275 36.513882 
L 258.592229 36.513882 
L 258.611774 35.804612 
L 259.920869 35.804612 
L 259.920869 35.449976 
L 260.289371 35.449976 
L 260.291418 34.740706 
L 261.362076 34.740706 
L 261.403221 34.031435 
L 261.500378 34.031435 
L 261.594393 33.322165 
L 261.836351 33.322165 
L 261.836351 32.967529 
L 262.762621 32.967529 
L 262.762621 32.612894 
L 263.201915 32.612894 
L 263.201915 32.258259 
L 264.20038 32.258259 
L 264.21163 31.548988 
L 264.316071 31.548988 
L 264.374886 30.839718 
L 264.501722 30.839718 
L 264.501722 30.485082 
L 265.661789 30.485082 
L 265.693471 29.775812 
L 266.609376 29.775812 
L 266.614325 29.066541 
L 266.803622 29.066541 
L 266.803622 28.711906 
L 267.76285 28.711906 
L 267.76285 28.357271 
L 269.637661 28.357271 
L 269.637661 28.002635 
L 280.870375 28.002635 
L 280.870375 27.648 
L 360.8064 27.648 
L 360.8064 27.648 
" style="fill:none;stroke:#000080;stroke-linecap:square;stroke-width:1.5;"/>
   </g>
   <g id="line2d_36">
    <defs>
     <path d="M 0 6 
C 1.591219 6 3.117479 5.367802 4.242641 4.242641 
C 5.367802 3.117479 6 1.591219 6 0 
C 6 -1.591219 5.367802 -3.117479 4.242641 -4.242641 
C 3.117479 -5.367802 1.591219 -6 0 -6 
C -1.591219 -6 -3.117479 -5.367802 -4.242641 -4.242641 
C -5.367802 -3.117479 -6 -1.591219 -6 0 
C -6 1.591219 -5.367802 3.117479 -4.242641 4.242641 
C -3.117479 5.367802 -1.591219 6 0 6 
z
" id="m9a932bb8e6" style="stroke:#000080;stroke-width:1.5;"/>
    </defs>
    <g>
     <use style="fill-opacity:0;stroke:#000080;stroke-width:1.5;" x="188.879797" xlink:href="#m9a932bb8e6" y="244.6848"/>
     <use style="fill-opacity:0;stroke:#000080;stroke-width:1.5;" x="232.15939" xlink:href="#m9a932bb8e6" y="135.457129"/>
     <use style="fill-opacity:0;stroke:#000080;stroke-width:1.5;" x="260.289371" xlink:href="#m9a932bb8e6" y="35.449976"/>
     <use style="fill-opacity:0;stroke:#000080;stroke-width:1.5;" x="280.870375" xlink:href="#m9a932bb8e6" y="27.648"/>
     <use style="fill-opacity:0;stroke:#000080;stroke-width:1.5;" x="360.8064" xlink:href="#m9a932bb8e6" y="27.648"/>
    </g>
   </g>
   <g id="line2d_37">
    <path style="fill:none;stroke:#000080;stroke-linecap:square;stroke-width:1.5;"/>
    <g/>
   </g>
   <g id="line2d_38">
    <path clip-path="url(#p53c8c583a1)" d="M 213.633352 179.431906 
" style="fill:none;stroke:#000080;stroke-linecap:square;stroke-width:1.5;"/>
    <defs>
     <path d="M -12 12 
L 12 -12 
M -12 -12 
L 12 12 
" id="m70f39122e6" style="stroke:#000080;"/>
    </defs>
    <g clip-path="url(#p53c8c583a1)">
     <use style="fill:#000080;stroke:#000080;" x="213.633352" xlink:href="#m70f39122e6" y="179.431906"/>
    </g>
   </g>
   <g id="line2d_39">
    <defs>
     <path d="M 0 1.5 
C 0.397805 1.5 0.77937 1.341951 1.06066 1.06066 
C 1.341951 0.77937 1.5 0.397805 1.5 0 
C 1.5 -0.397805 1.341951 -0.77937 1.06066 -1.06066 
C 0.77937 -1.341951 0.397805 -1.5 0 -1.5 
C -0.397805 -1.5 -0.77937 -1.341951 -1.06066 -1.06066 
C -1.341951 -0.77937 -1.5 -0.397805 -1.5 0 
C -1.5 0.397805 -1.341951 0.77937 -1.06066 1.06066 
C -0.77937 1.341951 -0.397805 1.5 0 1.5 
z
" id="mea51460488" style="stroke:#ff00ff;"/>
    </defs>
    <g>
     <use style="fill:#ff00ff;stroke:#ff00ff;" x="193.77817" xlink:href="#mea51460488" y="245.748706"/>
     <use style="fill:#ff00ff;stroke:#ff00ff;" x="193.77817" xlink:href="#mea51460488" y="245.748706"/>
    </g>
   </g>
   <g id="line2d_40">
    <path d="M 55.618005 298.944 
L 55.618005 296.461553 
L 78.88343 296.461553 
L 78.88343 293.624471 
L 84.142855 293.624471 
L 84.142855 291.142024 
L 85.894031 291.142024 
L 85.894031 288.659576 
L 92.519847 288.659576 
L 92.519847 285.822494 
L 94.735529 285.822494 
L 94.735529 285.113224 
L 95.250946 285.113224 
L 95.250946 282.630776 
L 97.18203 282.630776 
L 97.18203 281.212235 
L 98.295464 281.212235 
L 98.295464 277.311247 
L 98.510456 277.311247 
L 98.510456 275.183435 
L 99.14107 275.183435 
L 99.14107 274.474165 
L 100.535156 274.474165 
L 100.535156 273.764894 
L 101.102381 273.764894 
L 101.102381 273.410259 
L 101.833019 273.410259 
L 101.833019 270.218541 
L 102.187964 270.218541 
L 102.187964 269.863906 
L 102.878374 269.863906 
L 102.878374 269.154635 
L 103.544339 269.154635 
L 103.544339 267.381459 
L 104.655893 267.381459 
L 104.655893 265.608282 
L 105.112877 265.608282 
L 105.112877 265.253647 
L 106.974091 265.253647 
L 106.974091 264.544376 
L 108.034177 264.544376 
L 108.034177 264.189741 
L 110.106149 264.189741 
L 110.106149 263.480471 
L 112.890198 263.480471 
L 112.890198 263.125835 
L 115.050503 263.125835 
L 115.050503 261.707294 
L 115.575511 261.707294 
L 115.575511 260.643388 
L 115.917548 260.643388 
L 115.917548 260.288753 
L 120.48442 260.288753 
L 120.48442 259.934118 
L 123.029559 259.934118 
L 123.029559 259.224847 
L 124.319679 259.224847 
L 124.319679 257.806306 
L 124.642171 257.806306 
L 124.642171 257.451671 
L 129.744974 257.451671 
L 129.744974 257.097035 
L 130.305359 257.097035 
L 130.305359 256.7424 
L 130.579414 256.7424 
L 130.579414 256.387765 
L 131.747272 256.387765 
L 131.747272 256.033129 
L 132.216233 256.033129 
L 132.216233 255.678494 
L 135.024208 255.678494 
L 135.024208 255.323859 
L 136.584151 255.323859 
L 136.584151 254.969224 
L 137.734561 254.969224 
L 137.734561 254.614588 
L 138.642255 254.614588 
L 138.642255 254.259953 
L 140.860749 254.259953 
L 140.860749 253.905318 
L 143.364242 253.905318 
L 143.364242 253.550682 
L 145.308773 253.550682 
L 145.308773 253.196047 
L 145.989098 253.196047 
L 145.989098 252.841412 
L 151.142085 252.841412 
L 151.142085 252.486776 
L 152.799519 252.486776 
L 152.799519 252.132141 
L 153.375128 252.132141 
L 153.375128 251.777506 
L 153.707679 251.777506 
L 153.707679 251.422871 
L 154.14583 251.422871 
L 154.14583 251.068235 
L 156.255099 251.068235 
L 156.255099 250.7136 
L 157.816487 250.7136 
L 157.816487 250.358965 
L 158.88208 250.358965 
L 158.88208 250.004329 
L 161.467251 250.004329 
L 161.467251 249.649694 
L 164.004562 249.649694 
L 164.004562 249.295059 
L 166.292432 249.295059 
L 166.292432 248.940424 
L 166.304073 248.940424 
L 166.304073 248.585788 
L 169.383404 248.585788 
L 169.383404 248.231153 
L 169.943096 248.231153 
L 169.943096 247.876518 
L 170.616607 247.876518 
L 170.616607 247.521882 
L 174.275513 247.521882 
L 174.275513 247.167247 
L 178.537828 247.167247 
L 178.537828 246.812612 
L 184.552438 246.812612 
L 184.552438 246.457976 
L 190.262865 246.457976 
L 190.262865 246.103341 
L 193.77817 246.103341 
L 193.77817 245.748706 
L 360.8064 245.748706 
" style="fill:none;stroke:#ff00ff;stroke-linecap:square;stroke-width:1.5;"/>
   </g>
   <g id="line2d_41">
    <defs>
     <path d="M -0 8.485281 
L 5.091169 0 
L 0 -8.485281 
L -5.091169 -0 
z
" id="m4004a8dedb" style="stroke:#ff00ff;stroke-linejoin:miter;stroke-width:1.5;"/>
    </defs>
    <g>
     <use style="fill-opacity:0;stroke:#ff00ff;stroke-linejoin:miter;stroke-width:1.5;" x="143.364242" xlink:href="#m4004a8dedb" y="253.905318"/>
     <use style="fill-opacity:0;stroke:#ff00ff;stroke-linejoin:miter;stroke-width:1.5;" x="193.77817" xlink:href="#m4004a8dedb" y="246.103341"/>
     <use style="fill-opacity:0;stroke:#ff00ff;stroke-linejoin:miter;stroke-width:1.5;" x="193.77817" xlink:href="#m4004a8dedb" y="246.103341"/>
     <use style="fill-opacity:0;stroke:#ff00ff;stroke-linejoin:miter;stroke-width:1.5;" x="193.77817" xlink:href="#m4004a8dedb" y="245.748706"/>
     <use style="fill-opacity:0;stroke:#ff00ff;stroke-linejoin:miter;stroke-width:1.5;" x="193.77817" xlink:href="#m4004a8dedb" y="245.748706"/>
     <use style="fill-opacity:0;stroke:#ff00ff;stroke-linejoin:miter;stroke-width:1.5;" x="360.8064" xlink:href="#m4004a8dedb" y="245.748706"/>
    </g>
   </g>
   <g id="line2d_42">
    <path style="fill:none;stroke:#ff00ff;stroke-linecap:square;stroke-width:1.5;"/>
    <g/>
   </g>
   <g id="line2d_43">
    <path clip-path="url(#p53c8c583a1)" d="M 146.362288 252.841412 
" style="fill:none;stroke:#ff00ff;stroke-linecap:square;stroke-width:1.5;"/>
    <defs>
     <path d="M -12 12 
L 12 -12 
M -12 -12 
L 12 12 
" id="mae87231e89" style="stroke:#ff00ff;"/>
    </defs>
    <g clip-path="url(#p53c8c583a1)">
     <use style="fill:#ff00ff;stroke:#ff00ff;" x="146.362288" xlink:href="#mae87231e89" y="252.841412"/>
    </g>
   </g>
   <g id="line2d_44">
    <path d="M 360.8064 245.748706 
L 380.514816 293.51808 
" style="fill:none;stroke:#ff00ff;stroke-linecap:square;stroke-width:1.5;"/>
    <g>
     <use style="fill-opacity:0;stroke:#ff00ff;stroke-linejoin:miter;stroke-width:1.5;" x="360.8064" xlink:href="#m4004a8dedb" y="245.748706"/>
     <use style="fill-opacity:0;stroke:#ff00ff;stroke-linejoin:miter;stroke-width:1.5;" x="380.514816" xlink:href="#m4004a8dedb" y="293.51808"/>
    </g>
   </g>
   <g id="line2d_45">
    <path d="M 360.8064 27.648 
L 380.514816 163.296 
" style="fill:none;stroke:#000080;stroke-linecap:square;stroke-width:1.5;"/>
    <g>
     <use style="fill-opacity:0;stroke:#000080;stroke-width:1.5;" x="360.8064" xlink:href="#m9a932bb8e6" y="27.648"/>
     <use style="fill-opacity:0;stroke:#000080;stroke-width:1.5;" x="380.514816" xlink:href="#m9a932bb8e6" y="163.296"/>
    </g>
   </g>
   <g id="line2d_46">
    <path d="M 360.8064 298.944 
L 360.8064 27.648 
" style="fill:none;stroke:#000000;stroke-linecap:square;stroke-width:1.5;"/>
   </g>
   <g id="patch_3">
    <path d="M 57.6 298.944 
L 360.8064 298.944 
" style="fill:none;stroke:#000000;stroke-linecap:square;stroke-linejoin:miter;stroke-width:0.8;"/>
   </g>
   <g id="patch_4">
    <path d="M 57.6 27.648 
L 360.8064 27.648 
" style="fill:none;stroke:#000000;stroke-linecap:square;stroke-linejoin:miter;stroke-width:0.8;"/>
   </g>
   <g id="text_13">
    <!-- cma.fmin  -->
    <g transform="translate(386.578944 297.381205)scale(0.14 -0.14)">
     <use xlink:href="#DejaVuSans-63"/>
     <use x="54.980469" xlink:href="#DejaVuSans-6d"/>
     <use x="152.392578" xlink:href="#DejaVuSans-61"/>
     <use x="213.671875" xlink:href="#DejaVuSans-2e"/>
     <use x="245.458984" xlink:href="#DejaVuSans-66"/>
     <use x="280.664062" xlink:href="#DejaVuSans-6d"/>
     <use x="378.076172" xlink:href="#DejaVuSans-69"/>
     <use x="405.859375" xlink:href="#DejaVuSans-6e"/>
     <use x="469.238281" xlink:href="#DejaVuSans-20"/>
    </g>
   </g>
   <g id="text_14">
    <!-- different -->
    <g transform="translate(386.578944 167.159125)scale(0.14 -0.14)">
     <use xlink:href="#DejaVuSans-64"/>
     <use x="63.476562" xlink:href="#DejaVuSans-69"/>
     <use x="91.259766" xlink:href="#DejaVuSans-66"/>
     <use x="126.464844" xlink:href="#DejaVuSans-66"/>
     <use x="161.669922" xlink:href="#DejaVuSans-65"/>
     <use x="223.193359" xlink:href="#DejaVuSans-72"/>
     <use x="262.056641" xlink:href="#DejaVuSans-65"/>
     <use x="323.580078" xlink:href="#DejaVuSans-6e"/>
     <use x="386.958984" xlink:href="#DejaVuSans-74"/>
    </g>
   </g>
   <g id="text_15">
    <!-- best 2009 -->
    <g transform="translate(386.578944 36.937045)scale(0.14 -0.14)">
     <defs>
      <path d="M 3116 1747 
Q 3116 2381 2855 2742 
Q 2594 3103 2138 3103 
Q 1681 3103 1420 2742 
Q 1159 2381 1159 1747 
Q 1159 1113 1420 752 
Q 1681 391 2138 391 
Q 2594 391 2855 752 
Q 3116 1113 3116 1747 
z
M 1159 2969 
Q 1341 3281 1617 3432 
Q 1894 3584 2278 3584 
Q 2916 3584 3314 3078 
Q 3713 2572 3713 1747 
Q 3713 922 3314 415 
Q 2916 -91 2278 -91 
Q 1894 -91 1617 61 
Q 1341 213 1159 525 
L 1159 0 
L 581 0 
L 581 4863 
L 1159 4863 
L 1159 2969 
z
" id="DejaVuSans-62" transform="scale(0.015625)"/>
      <path d="M 703 97 
L 703 672 
Q 941 559 1184 500 
Q 1428 441 1663 441 
Q 2288 441 2617 861 
Q 2947 1281 2994 2138 
Q 2813 1869 2534 1725 
Q 2256 1581 1919 1581 
Q 1219 1581 811 2004 
Q 403 2428 403 3163 
Q 403 3881 828 4315 
Q 1253 4750 1959 4750 
Q 2769 4750 3195 4129 
Q 3622 3509 3622 2328 
Q 3622 1225 3098 567 
Q 2575 -91 1691 -91 
Q 1453 -91 1209 -44 
Q 966 3 703 97 
z
M 1959 2075 
Q 2384 2075 2632 2365 
Q 2881 2656 2881 3163 
Q 2881 3666 2632 3958 
Q 2384 4250 1959 4250 
Q 1534 4250 1286 3958 
Q 1038 3666 1038 3163 
Q 1038 2656 1286 2365 
Q 1534 2075 1959 2075 
z
" id="DejaVuSans-39" transform="scale(0.015625)"/>
     </defs>
     <use xlink:href="#DejaVuSans-62"/>
     <use x="63.476562" xlink:href="#DejaVuSans-65"/>
     <use x="125" xlink:href="#DejaVuSans-73"/>
     <use x="177.099609" xlink:href="#DejaVuSans-74"/>
     <use x="216.308594" xlink:href="#DejaVuSans-20"/>
     <use x="248.095703" xlink:href="#DejaVuSans-32"/>
     <use x="311.71875" xlink:href="#DejaVuSans-30"/>
     <use x="375.341797" xlink:href="#DejaVuSans-30"/>
     <use x="438.964844" xlink:href="#DejaVuSans-39"/>
    </g>
   </g>
   <g id="text_16">
    <!-- bbob f20, 10-D -->
    <g transform="translate(60.632064 38.111366)scale(0.102 -0.102)">
     <defs>
      <path d="M 1259 4147 
L 1259 519 
L 2022 519 
Q 2988 519 3436 956 
Q 3884 1394 3884 2338 
Q 3884 3275 3436 3711 
Q 2988 4147 2022 4147 
L 1259 4147 
z
M 628 4666 
L 1925 4666 
Q 3281 4666 3915 4102 
Q 4550 3538 4550 2338 
Q 4550 1131 3912 565 
Q 3275 0 1925 0 
L 628 0 
L 628 4666 
z
" id="DejaVuSans-44" transform="scale(0.015625)"/>
     </defs>
     <use xlink:href="#DejaVuSans-62"/>
     <use x="63.476562" xlink:href="#DejaVuSans-62"/>
     <use x="126.953125" xlink:href="#DejaVuSans-6f"/>
     <use x="188.134766" xlink:href="#DejaVuSans-62"/>
     <use x="251.611328" xlink:href="#DejaVuSans-20"/>
     <use x="283.398438" xlink:href="#DejaVuSans-66"/>
     <use x="318.603516" xlink:href="#DejaVuSans-32"/>
     <use x="382.226562" xlink:href="#DejaVuSans-30"/>
     <use x="445.849609" xlink:href="#DejaVuSans-2c"/>
     <use x="477.636719" xlink:href="#DejaVuSans-20"/>
     <use x="509.423828" xlink:href="#DejaVuSans-31"/>
     <use x="573.046875" xlink:href="#DejaVuSans-30"/>
     <use x="636.669922" xlink:href="#DejaVuSans-2d"/>
     <use x="672.753906" xlink:href="#DejaVuSans-44"/>
    </g>
    <!-- 51 targets: 100..1e-08 -->
    <g transform="translate(60.632064 49.533135)scale(0.102 -0.102)">
     <defs>
      <path d="M 691 4666 
L 3169 4666 
L 3169 4134 
L 1269 4134 
L 1269 2991 
Q 1406 3038 1543 3061 
Q 1681 3084 1819 3084 
Q 2600 3084 3056 2656 
Q 3513 2228 3513 1497 
Q 3513 744 3044 326 
Q 2575 -91 1722 -91 
Q 1428 -91 1123 -41 
Q 819 9 494 109 
L 494 744 
Q 775 591 1075 516 
Q 1375 441 1709 441 
Q 2250 441 2565 725 
Q 2881 1009 2881 1497 
Q 2881 1984 2565 2268 
Q 2250 2553 1709 2553 
Q 1456 2553 1204 2497 
Q 953 2441 691 2322 
L 691 4666 
z
" id="DejaVuSans-35" transform="scale(0.015625)"/>
      <path d="M 750 794 
L 1409 794 
L 1409 0 
L 750 0 
L 750 794 
z
M 750 3309 
L 1409 3309 
L 1409 2516 
L 750 2516 
L 750 3309 
z
" id="DejaVuSans-3a" transform="scale(0.015625)"/>
     </defs>
     <use xlink:href="#DejaVuSans-35"/>
     <use x="63.623047" xlink:href="#DejaVuSans-31"/>
     <use x="127.246094" xlink:href="#DejaVuSans-20"/>
     <use x="159.033203" xlink:href="#DejaVuSans-74"/>
     <use x="198.242188" xlink:href="#DejaVuSans-61"/>
     <use x="259.521484" xlink:href="#DejaVuSans-72"/>
     <use x="298.884766" xlink:href="#DejaVuSans-67"/>
     <use x="362.361328" xlink:href="#DejaVuSans-65"/>
     <use x="423.884766" xlink:href="#DejaVuSans-74"/>
     <use x="463.09375" xlink:href="#DejaVuSans-73"/>
     <use x="515.193359" xlink:href="#DejaVuSans-3a"/>
     <use x="548.884766" xlink:href="#DejaVuSans-20"/>
     <use x="580.671875" xlink:href="#DejaVuSans-31"/>
     <use x="644.294922" xlink:href="#DejaVuSans-30"/>
     <use x="707.917969" xlink:href="#DejaVuSans-30"/>
     <use x="771.541016" xlink:href="#DejaVuSans-2e"/>
     <use x="803.328125" xlink:href="#DejaVuSans-2e"/>
     <use x="835.115234" xlink:href="#DejaVuSans-31"/>
     <use x="898.738281" xlink:href="#DejaVuSans-65"/>
     <use x="960.261719" xlink:href="#DejaVuSans-2d"/>
     <use x="996.345703" xlink:href="#DejaVuSans-30"/>
     <use x="1059.96875" xlink:href="#DejaVuSans-38"/>
    </g>
    <!-- 15 instances -->
    <g transform="translate(60.632064 60.954904)scale(0.102 -0.102)">
     <use xlink:href="#DejaVuSans-31"/>
     <use x="63.623047" xlink:href="#DejaVuSans-35"/>
     <use x="127.246094" xlink:href="#DejaVuSans-20"/>
     <use x="159.033203" xlink:href="#DejaVuSans-69"/>
     <use x="186.816406" xlink:href="#DejaVuSans-6e"/>
     <use x="250.195312" xlink:href="#DejaVuSans-73"/>
     <use x="302.294922" xlink:href="#DejaVuSans-74"/>
     <use x="341.503906" xlink:href="#DejaVuSans-61"/>
     <use x="402.783203" xlink:href="#DejaVuSans-6e"/>
     <use x="466.162109" xlink:href="#DejaVuSans-63"/>
     <use x="521.142578" xlink:href="#DejaVuSans-65"/>
     <use x="582.666016" xlink:href="#DejaVuSans-73"/>
    </g>
   </g>
   <g id="text_17">
    <!-- v2.6 -->
    <g style="fill:#808080;" transform="translate(198.292262 294.151352)scale(0.1 -0.1)">
     <use xlink:href="#DejaVuSans-76"/>
     <use x="59.179688" xlink:href="#DejaVuSans-32"/>
     <use x="122.802734" xlink:href="#DejaVuSans-2e"/>
     <use x="154.589844" xlink:href="#DejaVuSans-36"/>
    </g>
   </g>
   <g id="text_18">
    <!-- 20 Schwefel x*sin(x) -->
    <g transform="translate(106.189137 21.648)scale(0.2 -0.2)">
     <defs>
      <path d="M 3425 4513 
L 3425 3897 
Q 3066 4069 2747 4153 
Q 2428 4238 2131 4238 
Q 1616 4238 1336 4038 
Q 1056 3838 1056 3469 
Q 1056 3159 1242 3001 
Q 1428 2844 1947 2747 
L 2328 2669 
Q 3034 2534 3370 2195 
Q 3706 1856 3706 1288 
Q 3706 609 3251 259 
Q 2797 -91 1919 -91 
Q 1588 -91 1214 -16 
Q 841 59 441 206 
L 441 856 
Q 825 641 1194 531 
Q 1563 422 1919 422 
Q 2459 422 2753 634 
Q 3047 847 3047 1241 
Q 3047 1584 2836 1778 
Q 2625 1972 2144 2069 
L 1759 2144 
Q 1053 2284 737 2584 
Q 422 2884 422 3419 
Q 422 4038 858 4394 
Q 1294 4750 2059 4750 
Q 2388 4750 2728 4690 
Q 3069 4631 3425 4513 
z
" id="DejaVuSans-53" transform="scale(0.015625)"/>
      <path d="M 3513 2113 
L 3513 0 
L 2938 0 
L 2938 2094 
Q 2938 2591 2744 2837 
Q 2550 3084 2163 3084 
Q 1697 3084 1428 2787 
Q 1159 2491 1159 1978 
L 1159 0 
L 581 0 
L 581 4863 
L 1159 4863 
L 1159 2956 
Q 1366 3272 1645 3428 
Q 1925 3584 2291 3584 
Q 2894 3584 3203 3211 
Q 3513 2838 3513 2113 
z
" id="DejaVuSans-68" transform="scale(0.015625)"/>
      <path d="M 269 3500 
L 844 3500 
L 1563 769 
L 2278 3500 
L 2956 3500 
L 3675 769 
L 4391 3500 
L 4966 3500 
L 4050 0 
L 3372 0 
L 2619 2869 
L 1863 0 
L 1184 0 
L 269 3500 
z
" id="DejaVuSans-77" transform="scale(0.015625)"/>
      <path d="M 3513 3500 
L 2247 1797 
L 3578 0 
L 2900 0 
L 1881 1375 
L 863 0 
L 184 0 
L 1544 1831 
L 300 3500 
L 978 3500 
L 1906 2253 
L 2834 3500 
L 3513 3500 
z
" id="DejaVuSans-78" transform="scale(0.015625)"/>
      <path d="M 3009 3897 
L 1888 3291 
L 3009 2681 
L 2828 2375 
L 1778 3009 
L 1778 1831 
L 1422 1831 
L 1422 3009 
L 372 2375 
L 191 2681 
L 1313 3291 
L 191 3897 
L 372 4206 
L 1422 3572 
L 1422 4750 
L 1778 4750 
L 1778 3572 
L 2828 4206 
L 3009 3897 
z
" id="DejaVuSans-2a" transform="scale(0.015625)"/>
     </defs>
     <use xlink:href="#DejaVuSans-32"/>
     <use x="63.623047" xlink:href="#DejaVuSans-30"/>
     <use x="127.246094" xlink:href="#DejaVuSans-20"/>
     <use x="159.033203" xlink:href="#DejaVuSans-53"/>
     <use x="222.509766" xlink:href="#DejaVuSans-63"/>
     <use x="277.490234" xlink:href="#DejaVuSans-68"/>
     <use x="340.869141" xlink:href="#DejaVuSans-77"/>
     <use x="422.65625" xlink:href="#DejaVuSans-65"/>
     <use x="484.179688" xlink:href="#DejaVuSans-66"/>
     <use x="519.384766" xlink:href="#DejaVuSans-65"/>
     <use x="580.908203" xlink:href="#DejaVuSans-6c"/>
     <use x="608.691406" xlink:href="#DejaVuSans-20"/>
     <use x="640.478516" xlink:href="#DejaVuSans-78"/>
     <use x="699.658203" xlink:href="#DejaVuSans-2a"/>
     <use x="749.658203" xlink:href="#DejaVuSans-73"/>
     <use x="801.757812" xlink:href="#DejaVuSans-69"/>
     <use x="829.541016" xlink:href="#DejaVuSans-6e"/>
     <use x="892.919922" xlink:href="#DejaVuSans-28"/>
     <use x="931.933594" xlink:href="#DejaVuSans-78"/>
     <use x="991.113281" xlink:href="#DejaVuSans-29"/>
    </g>
   </g>
  </g>
 </g>
 <defs>
  <clipPath id="p53c8c583a1">
   <rect height="271.296" width="303.2064" x="57.6" y="27.648"/>
  </clipPath>
 </defs>
</svg>
