<?xml version="1.0" encoding="utf-8" standalone="no"?>
<!DOCTYPE svg PUBLIC "-//W3C//DTD SVG 1.1//EN"
  "http://www.w3.org/Graphics/SVG/1.1/DTD/svg11.dtd">
<svg height="345.6pt" version="1.1" viewBox="0 0 460.8 345.6" width="460.8pt" xmlns="http://www.w3.org/2000/svg" xmlns:xlink="http://www.w3.org/1999/xlink">
 <metadata>
  <rdf:RDF xmlns:cc="http://creativecommons.org/ns#" xmlns:dc="http://purl.org/dc/elements/1.1/" xmlns:rdf="http://www.w3.org/1999/02/22-rdf-syntax-ns#">
   <cc:Work>
    <dc:type rdf:resource="http://purl.org/dc/dcmitype/StillImage"/>
    <dc:date>2022-05-07T15:07:23.358205</dc:date>
    <dc:format>image/svg+xml</dc:format>
    <dc:creator>
     <cc:Agent>
      <dc:title>Matplotlib v3.4.3, https://matplotlib.org/</dc:title>
     </cc:Agent>
    </dc:creator>
   </cc:Work>
  </rdf:RDF>
 </metadata>
 <defs>
  <style type="text/css">*{stroke-linecap:butt;stroke-linejoin:round;}</style>
 </defs>
 <g id="figure_1">
  <g id="patch_1">
   <path d="M 0 345.6 
L 460.8 345.6 
L 460.8 0 
L 0 0 
z
" style="fill:#ffffff;"/>
  </g>
  <g id="axes_1">
   <g id="patch_2">
    <path d="M 57.6 298.944 
L 360.8064 298.944 
L 360.8064 27.648 
L 57.6 27.648 
z
" style="fill:#ffffff;"/>
   </g>
   <g id="line2d_1">
    <path d="M 108.542628 298.944 
L 108.542628 293.624471 
L 109.280431 293.624471 
L 109.280431 288.304941 
L 110.221204 288.304941 
L 110.221204 282.985412 
L 110.449226 282.985412 
L 110.449226 267.026824 
L 110.897141 267.026824 
L 110.897141 261.707294 
L 111.334639 261.707294 
L 111.334639 240.429176 
L 111.54963 240.429176 
L 111.54963 208.512 
L 111.762192 208.512 
L 111.762192 176.594824 
L 111.97238 176.594824 
L 111.97238 149.997176 
L 112.180244 149.997176 
L 112.180244 118.08 
L 112.385837 118.08 
L 112.385837 102.121412 
L 112.589207 102.121412 
L 112.589207 64.884706 
L 112.790402 64.884706 
L 112.790402 43.606588 
L 112.989468 43.606588 
L 112.989468 27.648 
L 360.8064 27.648 
" style="fill:none;stroke:#f5deb3;stroke-linecap:square;stroke-width:4;"/>
   </g>
   <g id="line2d_2">
    <defs>
     <path d="M -0 7.778175 
L 7.778175 0 
L 0 -7.778175 
L -7.778175 -0 
z
" id="mcb53cc4368" style="stroke:#f5deb3;stroke-linejoin:miter;stroke-width:1.5;"/>
    </defs>
    <g>
     <use style="fill:#f5deb3;stroke:#f5deb3;stroke-linejoin:miter;stroke-width:1.5;" x="111.97238" xlink:href="#mcb53cc4368" y="176.594824"/>
     <use style="fill:#f5deb3;stroke:#f5deb3;stroke-linejoin:miter;stroke-width:1.5;" x="112.989468" xlink:href="#mcb53cc4368" y="43.606588"/>
     <use style="fill:#f5deb3;stroke:#f5deb3;stroke-linejoin:miter;stroke-width:1.5;" x="112.989468" xlink:href="#mcb53cc4368" y="27.648"/>
     <use style="fill:#f5deb3;stroke:#f5deb3;stroke-linejoin:miter;stroke-width:1.5;" x="112.989468" xlink:href="#mcb53cc4368" y="27.648"/>
     <use style="fill:#f5deb3;stroke:#f5deb3;stroke-linejoin:miter;stroke-width:1.5;" x="360.8064" xlink:href="#mcb53cc4368" y="27.648"/>
    </g>
   </g>
   <g id="line2d_3">
    <path style="fill:none;stroke:#f5deb3;stroke-linecap:square;stroke-width:4;"/>
    <g/>
   </g>
   <g id="line2d_4">
    <path d="M 360.8064 27.648 
L 380.514816 33.07392 
" style="fill:none;stroke:#f5deb3;stroke-linecap:square;stroke-width:4;"/>
    <g>
     <use style="fill:#f5deb3;stroke:#f5deb3;stroke-linejoin:miter;stroke-width:1.5;" x="360.8064" xlink:href="#mcb53cc4368" y="27.648"/>
     <use style="fill:#f5deb3;stroke:#f5deb3;stroke-linejoin:miter;stroke-width:1.5;" x="380.514816" xlink:href="#mcb53cc4368" y="33.07392"/>
    </g>
   </g>
   <g id="matplotlib.axis_1">
    <g id="xtick_1">
     <g id="line2d_5">
      <path clip-path="url(#pe99466a212)" d="M 57.6 298.944 
L 57.6 27.648 
" style="fill:none;stroke:#b0b0b0;stroke-linecap:square;stroke-width:0.8;"/>
     </g>
     <g id="line2d_6">
      <defs>
       <path d="M 0 0 
L 0 3.5 
" id="m5a5f258a03" style="stroke:#000000;stroke-width:0.8;"/>
      </defs>
      <g>
       <use style="stroke:#000000;stroke-width:0.8;" x="57.6" xlink:href="#m5a5f258a03" y="298.944"/>
      </g>
     </g>
     <g id="text_1">
      <!-- 0 -->
      <g transform="translate(52.191875 318.861344)scale(0.17 -0.17)">
       <defs>
        <path d="M 2034 4250 
Q 1547 4250 1301 3770 
Q 1056 3291 1056 2328 
Q 1056 1369 1301 889 
Q 1547 409 2034 409 
Q 2525 409 2770 889 
Q 3016 1369 3016 2328 
Q 3016 3291 2770 3770 
Q 2525 4250 2034 4250 
z
M 2034 4750 
Q 2819 4750 3233 4129 
Q 3647 3509 3647 2328 
Q 3647 1150 3233 529 
Q 2819 -91 2034 -91 
Q 1250 -91 836 529 
Q 422 1150 422 2328 
Q 422 3509 836 4129 
Q 1250 4750 2034 4750 
z
" id="DejaVuSans-30" transform="scale(0.015625)"/>
       </defs>
       <use xlink:href="#DejaVuSans-30"/>
      </g>
     </g>
    </g>
    <g id="xtick_2">
     <g id="line2d_7">
      <path clip-path="url(#pe99466a212)" d="M 144.2304 298.944 
L 144.2304 27.648 
" style="fill:none;stroke:#b0b0b0;stroke-linecap:square;stroke-width:0.8;"/>
     </g>
     <g id="line2d_8">
      <g>
       <use style="stroke:#000000;stroke-width:0.8;" x="144.2304" xlink:href="#m5a5f258a03" y="298.944"/>
      </g>
     </g>
     <g id="text_2">
      <!-- 2 -->
      <g transform="translate(138.822275 318.861344)scale(0.17 -0.17)">
       <defs>
        <path d="M 1228 531 
L 3431 531 
L 3431 0 
L 469 0 
L 469 531 
Q 828 903 1448 1529 
Q 2069 2156 2228 2338 
Q 2531 2678 2651 2914 
Q 2772 3150 2772 3378 
Q 2772 3750 2511 3984 
Q 2250 4219 1831 4219 
Q 1534 4219 1204 4116 
Q 875 4013 500 3803 
L 500 4441 
Q 881 4594 1212 4672 
Q 1544 4750 1819 4750 
Q 2544 4750 2975 4387 
Q 3406 4025 3406 3419 
Q 3406 3131 3298 2873 
Q 3191 2616 2906 2266 
Q 2828 2175 2409 1742 
Q 1991 1309 1228 531 
z
" id="DejaVuSans-32" transform="scale(0.015625)"/>
       </defs>
       <use xlink:href="#DejaVuSans-32"/>
      </g>
     </g>
    </g>
    <g id="xtick_3">
     <g id="line2d_9">
      <path clip-path="url(#pe99466a212)" d="M 230.8608 298.944 
L 230.8608 27.648 
" style="fill:none;stroke:#b0b0b0;stroke-linecap:square;stroke-width:0.8;"/>
     </g>
     <g id="line2d_10">
      <g>
       <use style="stroke:#000000;stroke-width:0.8;" x="230.8608" xlink:href="#m5a5f258a03" y="298.944"/>
      </g>
     </g>
     <g id="text_3">
      <!-- 4 -->
      <g transform="translate(225.452675 318.861344)scale(0.17 -0.17)">
       <defs>
        <path d="M 2419 4116 
L 825 1625 
L 2419 1625 
L 2419 4116 
z
M 2253 4666 
L 3047 4666 
L 3047 1625 
L 3713 1625 
L 3713 1100 
L 3047 1100 
L 3047 0 
L 2419 0 
L 2419 1100 
L 313 1100 
L 313 1709 
L 2253 4666 
z
" id="DejaVuSans-34" transform="scale(0.015625)"/>
       </defs>
       <use xlink:href="#DejaVuSans-34"/>
      </g>
     </g>
    </g>
    <g id="xtick_4">
     <g id="line2d_11">
      <path clip-path="url(#pe99466a212)" d="M 317.4912 298.944 
L 317.4912 27.648 
" style="fill:none;stroke:#b0b0b0;stroke-linecap:square;stroke-width:0.8;"/>
     </g>
     <g id="line2d_12">
      <g>
       <use style="stroke:#000000;stroke-width:0.8;" x="317.4912" xlink:href="#m5a5f258a03" y="298.944"/>
      </g>
     </g>
     <g id="text_4">
      <!-- 6 -->
      <g transform="translate(312.083075 318.861344)scale(0.17 -0.17)">
       <defs>
        <path d="M 2113 2584 
Q 1688 2584 1439 2293 
Q 1191 2003 1191 1497 
Q 1191 994 1439 701 
Q 1688 409 2113 409 
Q 2538 409 2786 701 
Q 3034 994 3034 1497 
Q 3034 2003 2786 2293 
Q 2538 2584 2113 2584 
z
M 3366 4563 
L 3366 3988 
Q 3128 4100 2886 4159 
Q 2644 4219 2406 4219 
Q 1781 4219 1451 3797 
Q 1122 3375 1075 2522 
Q 1259 2794 1537 2939 
Q 1816 3084 2150 3084 
Q 2853 3084 3261 2657 
Q 3669 2231 3669 1497 
Q 3669 778 3244 343 
Q 2819 -91 2113 -91 
Q 1303 -91 875 529 
Q 447 1150 447 2328 
Q 447 3434 972 4092 
Q 1497 4750 2381 4750 
Q 2619 4750 2861 4703 
Q 3103 4656 3366 4563 
z
" id="DejaVuSans-36" transform="scale(0.015625)"/>
       </defs>
       <use xlink:href="#DejaVuSans-36"/>
      </g>
     </g>
    </g>
    <g id="xtick_5">
     <g id="line2d_13">
      <path clip-path="url(#pe99466a212)" d="M 100.9152 298.944 
L 100.9152 27.648 
" style="fill:none;stroke:#b0b0b0;stroke-linecap:square;stroke-width:0.8;"/>
     </g>
     <g id="line2d_14">
      <defs>
       <path d="M 0 0 
L 0 2 
" id="md54c7bb9d4" style="stroke:#000000;stroke-width:0.6;"/>
      </defs>
      <g>
       <use style="stroke:#000000;stroke-width:0.6;" x="100.9152" xlink:href="#md54c7bb9d4" y="298.944"/>
      </g>
     </g>
    </g>
    <g id="xtick_6">
     <g id="line2d_15">
      <path clip-path="url(#pe99466a212)" d="M 187.5456 298.944 
L 187.5456 27.648 
" style="fill:none;stroke:#b0b0b0;stroke-linecap:square;stroke-width:0.8;"/>
     </g>
     <g id="line2d_16">
      <g>
       <use style="stroke:#000000;stroke-width:0.6;" x="187.5456" xlink:href="#md54c7bb9d4" y="298.944"/>
      </g>
     </g>
    </g>
    <g id="xtick_7">
     <g id="line2d_17">
      <path clip-path="url(#pe99466a212)" d="M 274.176 298.944 
L 274.176 27.648 
" style="fill:none;stroke:#b0b0b0;stroke-linecap:square;stroke-width:0.8;"/>
     </g>
     <g id="line2d_18">
      <g>
       <use style="stroke:#000000;stroke-width:0.6;" x="274.176" xlink:href="#md54c7bb9d4" y="298.944"/>
      </g>
     </g>
    </g>
    <g id="xtick_8">
     <g id="line2d_19">
      <path clip-path="url(#pe99466a212)" d="M 360.8064 298.944 
L 360.8064 27.648 
" style="fill:none;stroke:#b0b0b0;stroke-linecap:square;stroke-width:0.8;"/>
     </g>
     <g id="line2d_20">
      <g>
       <use style="stroke:#000000;stroke-width:0.6;" x="360.8064" xlink:href="#md54c7bb9d4" y="298.944"/>
      </g>
     </g>
    </g>
    <g id="text_5">
     <!-- log10(# f-evals / dimension) -->
     <g transform="translate(88.823278 339.314156)scale(0.17 -0.17)">
      <defs>
       <path d="M 603 4863 
L 1178 4863 
L 1178 0 
L 603 0 
L 603 4863 
z
" id="DejaVuSans-6c" transform="scale(0.015625)"/>
       <path d="M 1959 3097 
Q 1497 3097 1228 2736 
Q 959 2375 959 1747 
Q 959 1119 1226 758 
Q 1494 397 1959 397 
Q 2419 397 2687 759 
Q 2956 1122 2956 1747 
Q 2956 2369 2687 2733 
Q 2419 3097 1959 3097 
z
M 1959 3584 
Q 2709 3584 3137 3096 
Q 3566 2609 3566 1747 
Q 3566 888 3137 398 
Q 2709 -91 1959 -91 
Q 1206 -91 779 398 
Q 353 888 353 1747 
Q 353 2609 779 3096 
Q 1206 3584 1959 3584 
z
" id="DejaVuSans-6f" transform="scale(0.015625)"/>
       <path d="M 2906 1791 
Q 2906 2416 2648 2759 
Q 2391 3103 1925 3103 
Q 1463 3103 1205 2759 
Q 947 2416 947 1791 
Q 947 1169 1205 825 
Q 1463 481 1925 481 
Q 2391 481 2648 825 
Q 2906 1169 2906 1791 
z
M 3481 434 
Q 3481 -459 3084 -895 
Q 2688 -1331 1869 -1331 
Q 1566 -1331 1297 -1286 
Q 1028 -1241 775 -1147 
L 775 -588 
Q 1028 -725 1275 -790 
Q 1522 -856 1778 -856 
Q 2344 -856 2625 -561 
Q 2906 -266 2906 331 
L 2906 616 
Q 2728 306 2450 153 
Q 2172 0 1784 0 
Q 1141 0 747 490 
Q 353 981 353 1791 
Q 353 2603 747 3093 
Q 1141 3584 1784 3584 
Q 2172 3584 2450 3431 
Q 2728 3278 2906 2969 
L 2906 3500 
L 3481 3500 
L 3481 434 
z
" id="DejaVuSans-67" transform="scale(0.015625)"/>
       <path d="M 794 531 
L 1825 531 
L 1825 4091 
L 703 3866 
L 703 4441 
L 1819 4666 
L 2450 4666 
L 2450 531 
L 3481 531 
L 3481 0 
L 794 0 
L 794 531 
z
" id="DejaVuSans-31" transform="scale(0.015625)"/>
       <path d="M 1984 4856 
Q 1566 4138 1362 3434 
Q 1159 2731 1159 2009 
Q 1159 1288 1364 580 
Q 1569 -128 1984 -844 
L 1484 -844 
Q 1016 -109 783 600 
Q 550 1309 550 2009 
Q 550 2706 781 3412 
Q 1013 4119 1484 4856 
L 1984 4856 
z
" id="DejaVuSans-28" transform="scale(0.015625)"/>
       <path d="M 3272 2816 
L 2363 2816 
L 2100 1772 
L 3016 1772 
L 3272 2816 
z
M 2803 4594 
L 2478 3297 
L 3391 3297 
L 3719 4594 
L 4219 4594 
L 3897 3297 
L 4872 3297 
L 4872 2816 
L 3775 2816 
L 3519 1772 
L 4513 1772 
L 4513 1294 
L 3397 1294 
L 3072 0 
L 2572 0 
L 2894 1294 
L 1978 1294 
L 1656 0 
L 1153 0 
L 1478 1294 
L 494 1294 
L 494 1772 
L 1594 1772 
L 1856 2816 
L 850 2816 
L 850 3297 
L 1978 3297 
L 2297 4594 
L 2803 4594 
z
" id="DejaVuSans-23" transform="scale(0.015625)"/>
       <path id="DejaVuSans-20" transform="scale(0.015625)"/>
       <path d="M 2375 4863 
L 2375 4384 
L 1825 4384 
Q 1516 4384 1395 4259 
Q 1275 4134 1275 3809 
L 1275 3500 
L 2222 3500 
L 2222 3053 
L 1275 3053 
L 1275 0 
L 697 0 
L 697 3053 
L 147 3053 
L 147 3500 
L 697 3500 
L 697 3744 
Q 697 4328 969 4595 
Q 1241 4863 1831 4863 
L 2375 4863 
z
" id="DejaVuSans-66" transform="scale(0.015625)"/>
       <path d="M 313 2009 
L 1997 2009 
L 1997 1497 
L 313 1497 
L 313 2009 
z
" id="DejaVuSans-2d" transform="scale(0.015625)"/>
       <path d="M 3597 1894 
L 3597 1613 
L 953 1613 
Q 991 1019 1311 708 
Q 1631 397 2203 397 
Q 2534 397 2845 478 
Q 3156 559 3463 722 
L 3463 178 
Q 3153 47 2828 -22 
Q 2503 -91 2169 -91 
Q 1331 -91 842 396 
Q 353 884 353 1716 
Q 353 2575 817 3079 
Q 1281 3584 2069 3584 
Q 2775 3584 3186 3129 
Q 3597 2675 3597 1894 
z
M 3022 2063 
Q 3016 2534 2758 2815 
Q 2500 3097 2075 3097 
Q 1594 3097 1305 2825 
Q 1016 2553 972 2059 
L 3022 2063 
z
" id="DejaVuSans-65" transform="scale(0.015625)"/>
       <path d="M 191 3500 
L 800 3500 
L 1894 563 
L 2988 3500 
L 3597 3500 
L 2284 0 
L 1503 0 
L 191 3500 
z
" id="DejaVuSans-76" transform="scale(0.015625)"/>
       <path d="M 2194 1759 
Q 1497 1759 1228 1600 
Q 959 1441 959 1056 
Q 959 750 1161 570 
Q 1363 391 1709 391 
Q 2188 391 2477 730 
Q 2766 1069 2766 1631 
L 2766 1759 
L 2194 1759 
z
M 3341 1997 
L 3341 0 
L 2766 0 
L 2766 531 
Q 2569 213 2275 61 
Q 1981 -91 1556 -91 
Q 1019 -91 701 211 
Q 384 513 384 1019 
Q 384 1609 779 1909 
Q 1175 2209 1959 2209 
L 2766 2209 
L 2766 2266 
Q 2766 2663 2505 2880 
Q 2244 3097 1772 3097 
Q 1472 3097 1187 3025 
Q 903 2953 641 2809 
L 641 3341 
Q 956 3463 1253 3523 
Q 1550 3584 1831 3584 
Q 2591 3584 2966 3190 
Q 3341 2797 3341 1997 
z
" id="DejaVuSans-61" transform="scale(0.015625)"/>
       <path d="M 2834 3397 
L 2834 2853 
Q 2591 2978 2328 3040 
Q 2066 3103 1784 3103 
Q 1356 3103 1142 2972 
Q 928 2841 928 2578 
Q 928 2378 1081 2264 
Q 1234 2150 1697 2047 
L 1894 2003 
Q 2506 1872 2764 1633 
Q 3022 1394 3022 966 
Q 3022 478 2636 193 
Q 2250 -91 1575 -91 
Q 1294 -91 989 -36 
Q 684 19 347 128 
L 347 722 
Q 666 556 975 473 
Q 1284 391 1588 391 
Q 1994 391 2212 530 
Q 2431 669 2431 922 
Q 2431 1156 2273 1281 
Q 2116 1406 1581 1522 
L 1381 1569 
Q 847 1681 609 1914 
Q 372 2147 372 2553 
Q 372 3047 722 3315 
Q 1072 3584 1716 3584 
Q 2034 3584 2315 3537 
Q 2597 3491 2834 3397 
z
" id="DejaVuSans-73" transform="scale(0.015625)"/>
       <path d="M 1625 4666 
L 2156 4666 
L 531 -594 
L 0 -594 
L 1625 4666 
z
" id="DejaVuSans-2f" transform="scale(0.015625)"/>
       <path d="M 2906 2969 
L 2906 4863 
L 3481 4863 
L 3481 0 
L 2906 0 
L 2906 525 
Q 2725 213 2448 61 
Q 2172 -91 1784 -91 
Q 1150 -91 751 415 
Q 353 922 353 1747 
Q 353 2572 751 3078 
Q 1150 3584 1784 3584 
Q 2172 3584 2448 3432 
Q 2725 3281 2906 2969 
z
M 947 1747 
Q 947 1113 1208 752 
Q 1469 391 1925 391 
Q 2381 391 2643 752 
Q 2906 1113 2906 1747 
Q 2906 2381 2643 2742 
Q 2381 3103 1925 3103 
Q 1469 3103 1208 2742 
Q 947 2381 947 1747 
z
" id="DejaVuSans-64" transform="scale(0.015625)"/>
       <path d="M 603 3500 
L 1178 3500 
L 1178 0 
L 603 0 
L 603 3500 
z
M 603 4863 
L 1178 4863 
L 1178 4134 
L 603 4134 
L 603 4863 
z
" id="DejaVuSans-69" transform="scale(0.015625)"/>
       <path d="M 3328 2828 
Q 3544 3216 3844 3400 
Q 4144 3584 4550 3584 
Q 5097 3584 5394 3201 
Q 5691 2819 5691 2113 
L 5691 0 
L 5113 0 
L 5113 2094 
Q 5113 2597 4934 2840 
Q 4756 3084 4391 3084 
Q 3944 3084 3684 2787 
Q 3425 2491 3425 1978 
L 3425 0 
L 2847 0 
L 2847 2094 
Q 2847 2600 2669 2842 
Q 2491 3084 2119 3084 
Q 1678 3084 1418 2786 
Q 1159 2488 1159 1978 
L 1159 0 
L 581 0 
L 581 3500 
L 1159 3500 
L 1159 2956 
Q 1356 3278 1631 3431 
Q 1906 3584 2284 3584 
Q 2666 3584 2933 3390 
Q 3200 3197 3328 2828 
z
" id="DejaVuSans-6d" transform="scale(0.015625)"/>
       <path d="M 3513 2113 
L 3513 0 
L 2938 0 
L 2938 2094 
Q 2938 2591 2744 2837 
Q 2550 3084 2163 3084 
Q 1697 3084 1428 2787 
Q 1159 2491 1159 1978 
L 1159 0 
L 581 0 
L 581 3500 
L 1159 3500 
L 1159 2956 
Q 1366 3272 1645 3428 
Q 1925 3584 2291 3584 
Q 2894 3584 3203 3211 
Q 3513 2838 3513 2113 
z
" id="DejaVuSans-6e" transform="scale(0.015625)"/>
       <path d="M 513 4856 
L 1013 4856 
Q 1481 4119 1714 3412 
Q 1947 2706 1947 2009 
Q 1947 1309 1714 600 
Q 1481 -109 1013 -844 
L 513 -844 
Q 928 -128 1133 580 
Q 1338 1288 1338 2009 
Q 1338 2731 1133 3434 
Q 928 4138 513 4856 
z
" id="DejaVuSans-29" transform="scale(0.015625)"/>
      </defs>
      <use xlink:href="#DejaVuSans-6c"/>
      <use x="27.783203" xlink:href="#DejaVuSans-6f"/>
      <use x="88.964844" xlink:href="#DejaVuSans-67"/>
      <use x="152.441406" xlink:href="#DejaVuSans-31"/>
      <use x="216.064453" xlink:href="#DejaVuSans-30"/>
      <use x="279.6875" xlink:href="#DejaVuSans-28"/>
      <use x="318.701172" xlink:href="#DejaVuSans-23"/>
      <use x="402.490234" xlink:href="#DejaVuSans-20"/>
      <use x="434.277344" xlink:href="#DejaVuSans-66"/>
      <use x="463.982422" xlink:href="#DejaVuSans-2d"/>
      <use x="500.066406" xlink:href="#DejaVuSans-65"/>
      <use x="561.589844" xlink:href="#DejaVuSans-76"/>
      <use x="620.769531" xlink:href="#DejaVuSans-61"/>
      <use x="682.048828" xlink:href="#DejaVuSans-6c"/>
      <use x="709.832031" xlink:href="#DejaVuSans-73"/>
      <use x="761.931641" xlink:href="#DejaVuSans-20"/>
      <use x="793.71875" xlink:href="#DejaVuSans-2f"/>
      <use x="827.410156" xlink:href="#DejaVuSans-20"/>
      <use x="859.197266" xlink:href="#DejaVuSans-64"/>
      <use x="922.673828" xlink:href="#DejaVuSans-69"/>
      <use x="950.457031" xlink:href="#DejaVuSans-6d"/>
      <use x="1047.869141" xlink:href="#DejaVuSans-65"/>
      <use x="1109.392578" xlink:href="#DejaVuSans-6e"/>
      <use x="1172.771484" xlink:href="#DejaVuSans-73"/>
      <use x="1224.871094" xlink:href="#DejaVuSans-69"/>
      <use x="1252.654297" xlink:href="#DejaVuSans-6f"/>
      <use x="1313.835938" xlink:href="#DejaVuSans-6e"/>
      <use x="1377.214844" xlink:href="#DejaVuSans-29"/>
     </g>
    </g>
   </g>
   <g id="matplotlib.axis_2">
    <g id="ytick_1">
     <g id="line2d_21">
      <path clip-path="url(#pe99466a212)" d="M 57.6 298.944 
L 360.8064 298.944 
" style="fill:none;stroke:#b0b0b0;stroke-linecap:square;stroke-width:0.8;"/>
     </g>
     <g id="line2d_22">
      <defs>
       <path d="M 0 0 
L -3.5 0 
" id="md68ba649a6" style="stroke:#000000;stroke-width:0.8;"/>
      </defs>
      <g>
       <use style="stroke:#000000;stroke-width:0.8;" x="57.6" xlink:href="#md68ba649a6" y="298.944"/>
      </g>
     </g>
     <g id="text_6">
      <!-- 0.0 -->
      <g transform="translate(25.155 305.02275)scale(0.16 -0.16)">
       <defs>
        <path d="M 684 794 
L 1344 794 
L 1344 0 
L 684 0 
L 684 794 
z
" id="DejaVuSans-2e" transform="scale(0.015625)"/>
       </defs>
       <use xlink:href="#DejaVuSans-30"/>
       <use x="63.623047" xlink:href="#DejaVuSans-2e"/>
       <use x="95.410156" xlink:href="#DejaVuSans-30"/>
      </g>
     </g>
    </g>
    <g id="ytick_2">
     <g id="line2d_23">
      <path clip-path="url(#pe99466a212)" d="M 57.6 244.6848 
L 360.8064 244.6848 
" style="fill:none;stroke:#b0b0b0;stroke-linecap:square;stroke-width:0.8;"/>
     </g>
     <g id="line2d_24">
      <g>
       <use style="stroke:#000000;stroke-width:0.8;" x="57.6" xlink:href="#md68ba649a6" y="244.6848"/>
      </g>
     </g>
     <g id="text_7">
      <!-- 0.2 -->
      <g transform="translate(25.155 250.76355)scale(0.16 -0.16)">
       <use xlink:href="#DejaVuSans-30"/>
       <use x="63.623047" xlink:href="#DejaVuSans-2e"/>
       <use x="95.410156" xlink:href="#DejaVuSans-32"/>
      </g>
     </g>
    </g>
    <g id="ytick_3">
     <g id="line2d_25">
      <path clip-path="url(#pe99466a212)" d="M 57.6 190.4256 
L 360.8064 190.4256 
" style="fill:none;stroke:#b0b0b0;stroke-linecap:square;stroke-width:0.8;"/>
     </g>
     <g id="line2d_26">
      <g>
       <use style="stroke:#000000;stroke-width:0.8;" x="57.6" xlink:href="#md68ba649a6" y="190.4256"/>
      </g>
     </g>
     <g id="text_8">
      <!-- 0.4 -->
      <g transform="translate(25.155 196.50435)scale(0.16 -0.16)">
       <use xlink:href="#DejaVuSans-30"/>
       <use x="63.623047" xlink:href="#DejaVuSans-2e"/>
       <use x="95.410156" xlink:href="#DejaVuSans-34"/>
      </g>
     </g>
    </g>
    <g id="ytick_4">
     <g id="line2d_27">
      <path clip-path="url(#pe99466a212)" d="M 57.6 136.1664 
L 360.8064 136.1664 
" style="fill:none;stroke:#b0b0b0;stroke-linecap:square;stroke-width:0.8;"/>
     </g>
     <g id="line2d_28">
      <g>
       <use style="stroke:#000000;stroke-width:0.8;" x="57.6" xlink:href="#md68ba649a6" y="136.1664"/>
      </g>
     </g>
     <g id="text_9">
      <!-- 0.6 -->
      <g transform="translate(25.155 142.24515)scale(0.16 -0.16)">
       <use xlink:href="#DejaVuSans-30"/>
       <use x="63.623047" xlink:href="#DejaVuSans-2e"/>
       <use x="95.410156" xlink:href="#DejaVuSans-36"/>
      </g>
     </g>
    </g>
    <g id="ytick_5">
     <g id="line2d_29">
      <path clip-path="url(#pe99466a212)" d="M 57.6 81.9072 
L 360.8064 81.9072 
" style="fill:none;stroke:#b0b0b0;stroke-linecap:square;stroke-width:0.8;"/>
     </g>
     <g id="line2d_30">
      <g>
       <use style="stroke:#000000;stroke-width:0.8;" x="57.6" xlink:href="#md68ba649a6" y="81.9072"/>
      </g>
     </g>
     <g id="text_10">
      <!-- 0.8 -->
      <g transform="translate(25.155 87.98595)scale(0.16 -0.16)">
       <defs>
        <path d="M 2034 2216 
Q 1584 2216 1326 1975 
Q 1069 1734 1069 1313 
Q 1069 891 1326 650 
Q 1584 409 2034 409 
Q 2484 409 2743 651 
Q 3003 894 3003 1313 
Q 3003 1734 2745 1975 
Q 2488 2216 2034 2216 
z
M 1403 2484 
Q 997 2584 770 2862 
Q 544 3141 544 3541 
Q 544 4100 942 4425 
Q 1341 4750 2034 4750 
Q 2731 4750 3128 4425 
Q 3525 4100 3525 3541 
Q 3525 3141 3298 2862 
Q 3072 2584 2669 2484 
Q 3125 2378 3379 2068 
Q 3634 1759 3634 1313 
Q 3634 634 3220 271 
Q 2806 -91 2034 -91 
Q 1263 -91 848 271 
Q 434 634 434 1313 
Q 434 1759 690 2068 
Q 947 2378 1403 2484 
z
M 1172 3481 
Q 1172 3119 1398 2916 
Q 1625 2713 2034 2713 
Q 2441 2713 2670 2916 
Q 2900 3119 2900 3481 
Q 2900 3844 2670 4047 
Q 2441 4250 2034 4250 
Q 1625 4250 1398 4047 
Q 1172 3844 1172 3481 
z
" id="DejaVuSans-38" transform="scale(0.015625)"/>
       </defs>
       <use xlink:href="#DejaVuSans-30"/>
       <use x="63.623047" xlink:href="#DejaVuSans-2e"/>
       <use x="95.410156" xlink:href="#DejaVuSans-38"/>
      </g>
     </g>
    </g>
    <g id="ytick_6">
     <g id="line2d_31">
      <path clip-path="url(#pe99466a212)" d="M 57.6 27.648 
L 360.8064 27.648 
" style="fill:none;stroke:#b0b0b0;stroke-linecap:square;stroke-width:0.8;"/>
     </g>
     <g id="line2d_32">
      <g>
       <use style="stroke:#000000;stroke-width:0.8;" x="57.6" xlink:href="#md68ba649a6" y="27.648"/>
      </g>
     </g>
     <g id="text_11">
      <!-- 1.0 -->
      <g transform="translate(25.155 33.72675)scale(0.16 -0.16)">
       <use xlink:href="#DejaVuSans-31"/>
       <use x="63.623047" xlink:href="#DejaVuSans-2e"/>
       <use x="95.410156" xlink:href="#DejaVuSans-30"/>
      </g>
     </g>
    </g>
    <g id="text_12">
     <!-- Fraction of function,target pairs -->
     <g transform="translate(17.619531 297.681)rotate(-90)scale(0.17 -0.17)">
      <defs>
       <path d="M 628 4666 
L 3309 4666 
L 3309 4134 
L 1259 4134 
L 1259 2759 
L 3109 2759 
L 3109 2228 
L 1259 2228 
L 1259 0 
L 628 0 
L 628 4666 
z
" id="DejaVuSans-46" transform="scale(0.015625)"/>
       <path d="M 2631 2963 
Q 2534 3019 2420 3045 
Q 2306 3072 2169 3072 
Q 1681 3072 1420 2755 
Q 1159 2438 1159 1844 
L 1159 0 
L 581 0 
L 581 3500 
L 1159 3500 
L 1159 2956 
Q 1341 3275 1631 3429 
Q 1922 3584 2338 3584 
Q 2397 3584 2469 3576 
Q 2541 3569 2628 3553 
L 2631 2963 
z
" id="DejaVuSans-72" transform="scale(0.015625)"/>
       <path d="M 3122 3366 
L 3122 2828 
Q 2878 2963 2633 3030 
Q 2388 3097 2138 3097 
Q 1578 3097 1268 2742 
Q 959 2388 959 1747 
Q 959 1106 1268 751 
Q 1578 397 2138 397 
Q 2388 397 2633 464 
Q 2878 531 3122 666 
L 3122 134 
Q 2881 22 2623 -34 
Q 2366 -91 2075 -91 
Q 1284 -91 818 406 
Q 353 903 353 1747 
Q 353 2603 823 3093 
Q 1294 3584 2113 3584 
Q 2378 3584 2631 3529 
Q 2884 3475 3122 3366 
z
" id="DejaVuSans-63" transform="scale(0.015625)"/>
       <path d="M 1172 4494 
L 1172 3500 
L 2356 3500 
L 2356 3053 
L 1172 3053 
L 1172 1153 
Q 1172 725 1289 603 
Q 1406 481 1766 481 
L 2356 481 
L 2356 0 
L 1766 0 
Q 1100 0 847 248 
Q 594 497 594 1153 
L 594 3053 
L 172 3053 
L 172 3500 
L 594 3500 
L 594 4494 
L 1172 4494 
z
" id="DejaVuSans-74" transform="scale(0.015625)"/>
       <path d="M 544 1381 
L 544 3500 
L 1119 3500 
L 1119 1403 
Q 1119 906 1312 657 
Q 1506 409 1894 409 
Q 2359 409 2629 706 
Q 2900 1003 2900 1516 
L 2900 3500 
L 3475 3500 
L 3475 0 
L 2900 0 
L 2900 538 
Q 2691 219 2414 64 
Q 2138 -91 1772 -91 
Q 1169 -91 856 284 
Q 544 659 544 1381 
z
M 1991 3584 
L 1991 3584 
z
" id="DejaVuSans-75" transform="scale(0.015625)"/>
       <path d="M 750 794 
L 1409 794 
L 1409 256 
L 897 -744 
L 494 -744 
L 750 256 
L 750 794 
z
" id="DejaVuSans-2c" transform="scale(0.015625)"/>
       <path d="M 1159 525 
L 1159 -1331 
L 581 -1331 
L 581 3500 
L 1159 3500 
L 1159 2969 
Q 1341 3281 1617 3432 
Q 1894 3584 2278 3584 
Q 2916 3584 3314 3078 
Q 3713 2572 3713 1747 
Q 3713 922 3314 415 
Q 2916 -91 2278 -91 
Q 1894 -91 1617 61 
Q 1341 213 1159 525 
z
M 3116 1747 
Q 3116 2381 2855 2742 
Q 2594 3103 2138 3103 
Q 1681 3103 1420 2742 
Q 1159 2381 1159 1747 
Q 1159 1113 1420 752 
Q 1681 391 2138 391 
Q 2594 391 2855 752 
Q 3116 1113 3116 1747 
z
" id="DejaVuSans-70" transform="scale(0.015625)"/>
      </defs>
      <use xlink:href="#DejaVuSans-46"/>
      <use x="50.269531" xlink:href="#DejaVuSans-72"/>
      <use x="91.382812" xlink:href="#DejaVuSans-61"/>
      <use x="152.662109" xlink:href="#DejaVuSans-63"/>
      <use x="207.642578" xlink:href="#DejaVuSans-74"/>
      <use x="246.851562" xlink:href="#DejaVuSans-69"/>
      <use x="274.634766" xlink:href="#DejaVuSans-6f"/>
      <use x="335.816406" xlink:href="#DejaVuSans-6e"/>
      <use x="399.195312" xlink:href="#DejaVuSans-20"/>
      <use x="430.982422" xlink:href="#DejaVuSans-6f"/>
      <use x="492.164062" xlink:href="#DejaVuSans-66"/>
      <use x="527.369141" xlink:href="#DejaVuSans-20"/>
      <use x="559.15625" xlink:href="#DejaVuSans-66"/>
      <use x="594.361328" xlink:href="#DejaVuSans-75"/>
      <use x="657.740234" xlink:href="#DejaVuSans-6e"/>
      <use x="721.119141" xlink:href="#DejaVuSans-63"/>
      <use x="776.099609" xlink:href="#DejaVuSans-74"/>
      <use x="815.308594" xlink:href="#DejaVuSans-69"/>
      <use x="843.091797" xlink:href="#DejaVuSans-6f"/>
      <use x="904.273438" xlink:href="#DejaVuSans-6e"/>
      <use x="967.652344" xlink:href="#DejaVuSans-2c"/>
      <use x="999.439453" xlink:href="#DejaVuSans-74"/>
      <use x="1038.648438" xlink:href="#DejaVuSans-61"/>
      <use x="1099.927734" xlink:href="#DejaVuSans-72"/>
      <use x="1139.291016" xlink:href="#DejaVuSans-67"/>
      <use x="1202.767578" xlink:href="#DejaVuSans-65"/>
      <use x="1264.291016" xlink:href="#DejaVuSans-74"/>
      <use x="1303.5" xlink:href="#DejaVuSans-20"/>
      <use x="1335.287109" xlink:href="#DejaVuSans-70"/>
      <use x="1398.763672" xlink:href="#DejaVuSans-61"/>
      <use x="1460.042969" xlink:href="#DejaVuSans-69"/>
      <use x="1487.826172" xlink:href="#DejaVuSans-72"/>
      <use x="1528.939453" xlink:href="#DejaVuSans-73"/>
     </g>
    </g>
   </g>
   <g id="line2d_33">
    <defs>
     <path d="M 0 1.5 
C 0.397805 1.5 0.77937 1.341951 1.06066 1.06066 
C 1.341951 0.77937 1.5 0.397805 1.5 0 
C 1.5 -0.397805 1.341951 -0.77937 1.06066 -1.06066 
C 0.77937 -1.341951 0.397805 -1.5 0 -1.5 
C -0.397805 -1.5 -0.77937 -1.341951 -1.06066 -1.06066 
C -1.341951 -0.77937 -1.5 -0.397805 -1.5 0 
C -1.5 0.397805 -1.341951 0.77937 -1.06066 1.06066 
C -0.77937 1.341951 -0.397805 1.5 0 1.5 
z
" id="m3405a48cd9" style="stroke:#f5deb3;"/>
    </defs>
    <g>
     <use style="fill:#f5deb3;stroke:#f5deb3;" x="112.989468" xlink:href="#m3405a48cd9" y="27.648"/>
     <use style="fill:#f5deb3;stroke:#f5deb3;" x="112.989468" xlink:href="#m3405a48cd9" y="27.648"/>
    </g>
   </g>
   <g id="line2d_34">
    <defs>
     <path d="M 0 1.5 
C 0.397805 1.5 0.77937 1.341951 1.06066 1.06066 
C 1.341951 0.77937 1.5 0.397805 1.5 0 
C 1.5 -0.397805 1.341951 -0.77937 1.06066 -1.06066 
C 0.77937 -1.341951 0.397805 -1.5 0 -1.5 
C -0.397805 -1.5 -0.77937 -1.341951 -1.06066 -1.06066 
C -1.341951 -0.77937 -1.5 -0.397805 -1.5 0 
C -1.5 0.397805 -1.341951 0.77937 -1.06066 1.06066 
C -0.77937 1.341951 -0.397805 1.5 0 1.5 
z
" id="m0b5ff58d00" style="stroke:#000080;"/>
    </defs>
    <g>
     <use style="fill:#000080;stroke:#000080;" x="191.949818" xlink:href="#m0b5ff58d00" y="27.648"/>
     <use style="fill:#000080;stroke:#000080;" x="191.949818" xlink:href="#m0b5ff58d00" y="27.648"/>
    </g>
   </g>
   <g id="line2d_35">
    <path d="M 152.230346 298.944 
L 152.230346 297.880094 
L 156.442771 297.880094 
L 156.442771 297.525459 
L 157.325925 297.525459 
L 157.325925 297.170824 
L 158.0976 297.170824 
L 158.0976 296.461553 
L 159.485256 296.461553 
L 159.485256 296.106918 
L 159.618554 296.106918 
L 159.618554 295.752282 
L 159.882349 295.752282 
L 159.882349 295.397647 
L 160.142495 295.397647 
L 160.142495 295.043012 
L 160.777545 295.043012 
L 160.777545 293.624471 
L 161.270586 293.624471 
L 161.270586 292.560565 
L 161.391854 292.560565 
L 161.482294 291.851294 
L 161.691646 291.851294 
L 161.751035 291.142024 
L 162.045202 291.142024 
L 162.045202 290.787388 
L 162.363559 290.787388 
L 162.449456 290.078118 
L 162.591753 290.078118 
L 162.591753 289.368847 
L 162.817213 289.368847 
L 162.817213 289.014212 
L 163.450751 289.014212 
L 163.477818 288.304941 
L 163.692963 288.304941 
L 163.79962 286.531765 
L 163.879217 286.531765 
L 163.932096 285.822494 
L 164.168227 285.822494 
L 164.272231 284.049318 
L 164.324018 284.049318 
L 164.427166 282.630776 
L 164.452864 282.630776 
L 164.452864 281.921506 
L 164.70794 281.921506 
L 164.70794 281.566871 
L 164.909539 281.566871 
L 165.009535 280.502965 
L 165.034451 280.502965 
L 165.034451 279.439059 
L 165.257222 279.439059 
L 165.30637 278.729788 
L 165.525963 278.729788 
L 165.525963 278.375153 
L 165.695002 278.375153 
L 165.766985 277.665882 
L 165.862536 277.665882 
L 165.933882 275.892706 
L 166.004959 275.892706 
L 166.028591 274.8288 
L 166.216591 274.8288 
L 166.216591 274.474165 
L 166.425869 274.474165 
L 166.448979 273.410259 
L 166.541136 273.410259 
L 166.541136 272.346353 
L 166.746854 272.346353 
L 166.837566 271.282447 
L 167.350843 271.282447 
L 167.438697 270.218541 
L 167.48247 270.218541 
L 167.54794 267.736094 
L 167.656552 267.736094 
L 167.699821 265.608282 
L 167.829037 265.608282 
L 167.829037 264.899012 
L 167.957371 264.899012 
L 167.957371 264.189741 
L 168.148245 264.189741 
L 168.253455 262.061929 
L 168.399768 262.061929 
L 168.462127 260.643388 
L 168.544952 260.643388 
L 168.647973 259.579482 
L 168.668509 259.579482 
L 168.668509 259.224847 
L 168.933465 259.224847 
L 169.014245 257.806306 
L 169.254523 257.806306 
L 169.274409 257.097035 
L 169.452437 257.097035 
L 169.452437 256.7424 
L 169.628797 256.7424 
L 169.667764 256.033129 
L 169.803519 256.033129 
L 169.899889 253.550682 
L 169.995769 253.550682 
L 169.995769 253.196047 
L 170.129185 253.196047 
L 170.129185 252.841412 
L 170.261661 252.841412 
L 170.261661 252.132141 
L 170.523847 252.132141 
L 170.523847 251.777506 
L 170.708911 251.777506 
L 170.819081 250.7136 
L 170.92861 250.7136 
L 170.92861 250.358965 
L 171.073664 250.358965 
L 171.181725 249.295059 
L 171.324847 249.295059 
L 171.324847 248.231153 
L 171.466889 248.231153 
L 171.572721 246.457976 
L 171.625414 246.457976 
L 171.73036 245.394071 
L 171.81737 245.394071 
L 171.88669 244.330165 
L 171.938512 244.330165 
L 172.041731 242.911624 
L 172.11023 242.911624 
L 172.161441 242.202353 
L 172.263447 242.202353 
L 172.263447 241.493082 
L 172.415427 241.493082 
L 172.516068 239.719906 
L 172.616174 239.719906 
L 172.616174 239.365271 
L 172.748826 239.365271 
L 172.748826 238.656 
L 172.864133 238.656 
L 172.946065 237.237459 
L 173.060174 237.237459 
L 173.141258 236.528188 
L 173.173594 236.528188 
L 173.173594 236.173553 
L 173.286335 236.173553 
L 173.382435 234.400376 
L 173.430302 234.400376 
L 173.50981 232.6272 
L 173.541519 232.6272 
L 173.636328 230.144753 
L 173.699269 230.144753 
L 173.762 229.435482 
L 173.886839 229.435482 
L 173.995397 228.371576 
L 174.072557 228.371576 
L 174.164733 225.534494 
L 174.332558 225.534494 
L 174.423472 224.470588 
L 174.468765 224.470588 
L 174.574026 222.697412 
L 174.618958 222.697412 
L 174.663783 221.988141 
L 174.767961 221.988141 
L 174.871565 220.924235 
L 174.945221 220.924235 
L 174.945221 220.5696 
L 175.208017 220.5696 
L 175.22251 219.151059 
L 175.352444 219.151059 
L 175.452888 217.377882 
L 175.524306 217.377882 
L 175.581246 216.668612 
L 175.680478 216.668612 
L 175.736948 214.5408 
L 175.877386 214.5408 
L 175.947214 213.122259 
L 175.988986 213.122259 
L 176.058402 212.058353 
L 176.127562 212.058353 
L 176.223961 210.285176 
L 176.265124 210.285176 
L 176.374454 208.512 
L 176.577751 208.512 
L 176.577751 208.157365 
L 176.712072 208.157365 
L 176.818842 206.029553 
L 176.951458 206.029553 
L 176.951458 205.320282 
L 177.083146 205.320282 
L 177.174783 204.256376 
L 177.304922 204.256376 
L 177.395487 203.192471 
L 177.434167 203.192471 
L 177.524113 201.064659 
L 177.588098 201.064659 
L 177.588098 200.710024 
L 177.702725 200.710024 
L 177.74078 199.646118 
L 177.867075 199.646118 
L 177.942447 198.582212 
L 178.054941 198.582212 
L 178.104724 195.390494 
L 178.179151 195.390494 
L 178.216255 194.326588 
L 178.363942 194.326588 
L 178.473951 192.553412 
L 178.486135 192.553412 
L 178.522639 191.134871 
L 178.60754 191.134871 
L 178.716138 189.361694 
L 178.800172 189.361694 
L 178.848023 186.879247 
L 178.919572 186.879247 
L 179.026389 185.815341 
L 179.073669 185.815341 
L 179.073669 185.460706 
L 179.191352 185.460706 
L 179.26161 184.751435 
L 179.308303 184.751435 
L 179.308303 184.3968 
L 179.493926 184.3968 
L 179.586055 181.205082 
L 179.609017 181.205082 
L 179.689164 179.431906 
L 179.84844 179.431906 
L 179.893701 177.304094 
L 179.995142 177.304094 
L 180.073663 174.467012 
L 180.118386 174.467012 
L 180.207514 173.048471 
L 180.296222 173.048471 
L 180.406522 171.629929 
L 180.614326 171.629929 
L 180.679474 169.856753 
L 180.765989 169.856753 
L 180.862845 167.374306 
L 180.89502 167.374306 
L 180.980551 165.246494 
L 181.055074 165.246494 
L 181.129302 162.409412 
L 181.213777 162.409412 
L 181.308361 160.990871 
L 181.339783 160.990871 
L 181.371153 158.863059 
L 181.496113 158.863059 
L 181.589291 157.089882 
L 181.609934 157.089882 
L 181.702552 154.962071 
L 181.733323 154.962071 
L 181.825336 152.834259 
L 181.855908 152.834259 
L 181.937189 151.770353 
L 182.048381 151.770353 
L 182.108755 150.351812 
L 182.248879 150.351812 
L 182.308614 147.869365 
L 182.36816 147.869365 
L 182.36816 147.160094 
L 182.506372 147.160094 
L 182.555488 146.096188 
L 182.760388 146.096188 
L 182.85718 143.613741 
L 182.876479 143.613741 
L 182.953477 139.358118 
L 183.001441 139.358118 
L 183.106534 137.584941 
L 183.15411 137.584941 
L 183.248903 135.811765 
L 183.314974 135.811765 
L 183.352626 134.393224 
L 183.446426 134.393224 
L 183.53976 132.974682 
L 183.567671 132.974682 
L 183.567671 132.265412 
L 183.761892 132.265412 
L 183.780285 131.556141 
L 183.945019 131.556141 
L 184.017773 129.428329 
L 184.072155 129.428329 
L 184.162443 127.655153 
L 184.297069 127.655153 
L 184.323878 126.591247 
L 184.48394 126.591247 
L 184.528161 123.044894 
L 184.607497 123.044894 
L 184.677739 121.626353 
L 184.826137 121.626353 
L 184.904229 119.853176 
L 185.050858 119.853176 
L 185.13658 118.434635 
L 185.187826 118.434635 
L 185.298382 115.242918 
L 185.33227 115.242918 
L 185.382986 112.405835 
L 185.492405 112.405835 
L 185.567785 108.859482 
L 185.642864 108.859482 
L 185.734223 107.795576 
L 185.79213 107.795576 
L 185.882769 105.667765 
L 185.981152 105.667765 
L 186.070886 103.539953 
L 186.095285 103.539953 
L 186.168292 101.766776 
L 186.224881 101.766776 
L 186.329524 98.575059 
L 186.377625 98.575059 
L 186.47346 96.801882 
L 186.529139 96.801882 
L 186.616303 92.900894 
L 186.718797 92.900894 
L 186.828554 89.354541 
L 186.836369 89.354541 
L 186.937675 87.936 
L 187.007491 87.936 
L 187.092471 86.162824 
L 187.14635 86.162824 
L 187.253648 81.9072 
L 187.322304 81.9072 
L 187.398295 80.134024 
L 187.451306 80.134024 
L 187.53431 78.715482 
L 187.616948 78.715482 
L 187.721603 76.233035 
L 187.736506 76.233035 
L 187.818263 74.105224 
L 187.847905 74.105224 
L 187.94392 71.622776 
L 188.010106 71.622776 
L 188.119902 68.431059 
L 188.200013 68.431059 
L 188.258062 67.367153 
L 188.330373 67.367153 
L 188.41678 65.593976 
L 188.459835 65.593976 
L 188.538515 62.047624 
L 188.602645 62.047624 
L 188.694894 60.274447 
L 188.814848 60.274447 
L 188.892059 58.855906 
L 188.94103 58.855906 
L 189.024683 56.373459 
L 189.059429 56.373459 
L 189.170188 54.600282 
L 189.183987 54.600282 
L 189.280298 52.117835 
L 189.314575 52.117835 
L 189.423846 48.926118 
L 189.43746 48.926118 
L 189.498603 47.152941 
L 189.600068 47.152941 
L 189.633768 45.379765 
L 189.788017 45.379765 
L 189.887937 44.315859 
L 189.907857 44.315859 
L 190.000542 41.124141 
L 190.026939 41.124141 
L 190.125601 37.932424 
L 190.217222 37.932424 
L 190.223749 36.513882 
L 190.366778 36.513882 
L 190.450788 35.095341 
L 190.566492 35.095341 
L 190.668746 33.322165 
L 190.789456 33.322165 
L 190.877907 32.258259 
L 191.009808 32.258259 
L 191.115912 30.485082 
L 191.171843 30.485082 
L 191.18425 29.421176 
L 191.350943 29.421176 
L 191.369374 28.711906 
L 191.649739 28.711906 
L 191.649739 28.357271 
L 191.794375 28.357271 
L 191.794375 28.002635 
L 191.949818 28.002635 
L 191.949818 27.648 
L 360.8064 27.648 
L 360.8064 27.648 
" style="fill:none;stroke:#000080;stroke-linecap:square;stroke-width:1.5;"/>
   </g>
   <g id="line2d_36">
    <defs>
     <path d="M 0 6 
C 1.591219 6 3.117479 5.367802 4.242641 4.242641 
C 5.367802 3.117479 6 1.591219 6 0 
C 6 -1.591219 5.367802 -3.117479 4.242641 -4.242641 
C 3.117479 -5.367802 1.591219 -6 0 -6 
C -1.591219 -6 -3.117479 -5.367802 -4.242641 -4.242641 
C -5.367802 -3.117479 -6 -1.591219 -6 0 
C -6 1.591219 -5.367802 3.117479 -4.242641 4.242641 
C -3.117479 5.367802 -1.591219 6 0 6 
z
" id="m4a312f1744" style="stroke:#000080;stroke-width:1.5;"/>
    </defs>
    <g>
     <use style="fill-opacity:0;stroke:#000080;stroke-width:1.5;" x="172.516068" xlink:href="#m4a312f1744" y="240.429176"/>
     <use style="fill-opacity:0;stroke:#000080;stroke-width:1.5;" x="189.907857" xlink:href="#m4a312f1744" y="43.961224"/>
     <use style="fill-opacity:0;stroke:#000080;stroke-width:1.5;" x="191.949818" xlink:href="#m4a312f1744" y="28.002635"/>
     <use style="fill-opacity:0;stroke:#000080;stroke-width:1.5;" x="191.949818" xlink:href="#m4a312f1744" y="27.648"/>
     <use style="fill-opacity:0;stroke:#000080;stroke-width:1.5;" x="360.8064" xlink:href="#m4a312f1744" y="27.648"/>
    </g>
   </g>
   <g id="line2d_37">
    <path style="fill:none;stroke:#000080;stroke-linecap:square;stroke-width:1.5;"/>
    <g/>
   </g>
   <g id="line2d_38">
    <defs>
     <path d="M 0 1.5 
C 0.397805 1.5 0.77937 1.341951 1.06066 1.06066 
C 1.341951 0.77937 1.5 0.397805 1.5 0 
C 1.5 -0.397805 1.341951 -0.77937 1.06066 -1.06066 
C 0.77937 -1.341951 0.397805 -1.5 0 -1.5 
C -0.397805 -1.5 -0.77937 -1.341951 -1.06066 -1.06066 
C -1.341951 -0.77937 -1.5 -0.397805 -1.5 0 
C -1.5 0.397805 -1.341951 0.77937 -1.06066 1.06066 
C -0.77937 1.341951 -0.397805 1.5 0 1.5 
z
" id="m61efd2c15f" style="stroke:#ff00ff;"/>
    </defs>
    <g>
     <use style="fill:#ff00ff;stroke:#ff00ff;" x="204.390118" xlink:href="#m61efd2c15f" y="27.648"/>
     <use style="fill:#ff00ff;stroke:#ff00ff;" x="204.390118" xlink:href="#m61efd2c15f" y="27.648"/>
    </g>
   </g>
   <g id="line2d_39">
    <path d="M 134.240933 298.944 
L 134.240933 298.589365 
L 134.431915 298.589365 
L 134.431915 298.234729 
L 136.299553 298.234729 
L 136.299553 297.880094 
L 136.413909 297.880094 
L 136.413909 297.525459 
L 137.945929 297.525459 
L 137.945929 297.170824 
L 138.818654 297.170824 
L 138.818654 296.816188 
L 139.067817 296.816188 
L 139.067817 296.106918 
L 139.508159 296.106918 
L 139.508159 295.397647 
L 141.953481 295.397647 
L 141.995897 294.688376 
L 142.41488 294.688376 
L 142.41488 294.333741 
L 143.734829 294.333741 
L 143.734829 293.979106 
L 144.117191 293.979106 
L 144.117191 293.624471 
L 144.267986 293.624471 
L 144.267986 292.9152 
L 144.71325 292.9152 
L 144.71325 292.560565 
L 144.85936 292.560565 
L 144.85936 292.205929 
L 145.503164 292.205929 
L 145.503164 291.851294 
L 147.022411 291.851294 
L 147.022411 291.496659 
L 147.691478 291.496659 
L 147.691478 291.142024 
L 148.337564 291.142024 
L 148.337564 290.787388 
L 148.57797 290.787388 
L 148.57797 290.078118 
L 149.481565 290.078118 
L 149.510002 289.368847 
L 149.679732 289.368847 
L 149.679732 289.014212 
L 149.959255 289.014212 
L 149.959255 288.304941 
L 150.667154 288.304941 
L 150.667154 287.950306 
L 151.089903 287.950306 
L 151.168122 287.241035 
L 151.32359 287.241035 
L 151.32359 286.8864 
L 151.832729 286.8864 
L 151.832729 286.531765 
L 152.007722 286.531765 
L 152.106991 285.467859 
L 152.181101 285.467859 
L 152.181101 284.758588 
L 152.498913 284.758588 
L 152.498913 284.049318 
L 152.667844 284.049318 
L 152.667844 283.694682 
L 152.977604 283.694682 
L 152.977604 283.340047 
L 153.142309 283.340047 
L 153.212458 282.630776 
L 153.305585 282.630776 
L 153.398253 281.212235 
L 153.490466 281.212235 
L 153.490466 280.502965 
L 153.877408 280.502965 
L 153.922412 279.084424 
L 154.101358 279.084424 
L 154.101358 278.729788 
L 154.256552 278.729788 
L 154.322673 276.601976 
L 154.432362 276.601976 
L 154.541415 275.183435 
L 154.822028 275.183435 
L 154.886195 274.119529 
L 155.056244 274.119529 
L 155.098517 272.700988 
L 155.24573 272.700988 
L 155.28758 270.573176 
L 155.412574 270.573176 
L 155.516105 268.445365 
L 155.577951 268.445365 
L 155.577951 267.026824 
L 155.802997 267.026824 
L 155.802997 266.317553 
L 156.105602 266.317553 
L 156.185481 265.253647 
L 156.304668 265.253647 
L 156.34423 264.189741 
L 156.501649 264.189741 
L 156.501649 263.480471 
L 156.638319 263.480471 
L 156.696589 261.352659 
L 156.927882 261.352659 
L 156.985263 259.934118 
L 157.04247 259.934118 
L 157.04247 259.579482 
L 157.194177 259.579482 
L 157.288377 258.160941 
L 157.30716 258.160941 
L 157.382107 257.097035 
L 157.549652 257.097035 
L 157.586683 255.323859 
L 157.678942 255.323859 
L 157.678942 254.259953 
L 157.953034 254.259953 
L 158.043518 252.841412 
L 158.169469 252.841412 
L 158.169469 252.486776 
L 158.347948 252.486776 
L 158.347948 252.132141 
L 158.507144 252.132141 
L 158.559911 251.422871 
L 158.630038 251.422871 
L 158.682463 248.585788 
L 158.804221 248.585788 
L 158.890711 246.812612 
L 158.976805 246.812612 
L 158.976805 246.457976 
L 159.249688 246.457976 
L 159.249688 246.103341 
L 159.367841 246.103341 
L 159.468527 243.975529 
L 159.518669 243.975529 
L 159.601943 240.783812 
L 159.68485 240.783812 
L 159.783859 238.301365 
L 159.947723 238.301365 
L 159.947723 237.946729 
L 160.110173 237.946729 
L 160.174762 235.464282 
L 160.23913 235.464282 
L 160.271232 233.691106 
L 160.399093 233.691106 
L 160.415015 232.981835 
L 160.683643 232.981835 
L 160.746296 231.563294 
L 160.839886 231.563294 
L 160.948489 230.499388 
L 160.963953 230.499388 
L 161.010268 228.726212 
L 161.102557 228.726212 
L 161.194395 227.662306 
L 161.240147 227.662306 
L 161.34647 226.5984 
L 161.406958 226.5984 
L 161.406958 225.889129 
L 161.587261 225.889129 
L 161.646981 224.825224 
L 161.706511 224.825224 
L 161.795455 223.406682 
L 161.88398 223.406682 
L 161.957434 222.697412 
L 162.001369 222.697412 
L 162.05979 219.860329 
L 162.147083 219.860329 
L 162.233972 217.377882 
L 162.363559 217.377882 
L 162.463734 216.313976 
L 162.478002 216.313976 
L 162.577572 213.122259 
L 162.591753 213.122259 
L 162.676617 212.412988 
L 162.718906 212.412988 
L 162.775144 209.930541 
L 162.887118 209.930541 
L 162.915008 208.866635 
L 163.026155 208.866635 
L 163.136649 206.738824 
L 163.219095 206.738824 
L 163.260183 205.674918 
L 163.355708 205.674918 
L 163.3965 203.192471 
L 163.491337 203.192471 
L 163.491337 202.837835 
L 163.679588 202.837835 
L 163.719684 202.128565 
L 163.892451 202.128565 
L 163.997986 200.355388 
L 164.011136 200.355388 
L 164.050532 199.646118 
L 164.142137 199.646118 
L 164.246284 198.227576 
L 164.272231 198.227576 
L 164.272231 197.872941 
L 164.478528 197.872941 
L 164.580835 196.809035 
L 164.593584 196.809035 
L 164.669899 195.390494 
L 164.745905 195.390494 
L 164.745905 195.035859 
L 164.9471 195.035859 
L 165.046896 192.908047 
L 165.059334 192.908047 
L 165.059334 192.553412 
L 165.232599 192.553412 
L 165.30637 191.489506 
L 165.428682 191.489506 
L 165.538087 190.070965 
L 165.682978 190.070965 
L 165.755007 189.007059 
L 165.874446 189.007059 
L 165.969454 187.588518 
L 166.063985 187.588518 
L 166.075768 186.879247 
L 166.309891 186.879247 
L 166.379563 186.169976 
L 166.425869 186.169976 
L 166.529641 185.106071 
L 166.552624 185.106071 
L 166.552624 184.751435 
L 166.712723 184.751435 
L 166.814929 184.042165 
L 166.848875 184.042165 
L 166.916583 182.623624 
L 166.984048 182.623624 
L 166.984048 181.914353 
L 167.10711 181.914353 
L 167.10711 181.559718 
L 167.284683 181.559718 
L 167.361848 180.495812 
L 167.438697 180.495812 
L 167.54794 178.013365 
L 167.602324 178.013365 
L 167.699821 176.949459 
L 167.753769 176.949459 
L 167.753769 176.594824 
L 167.978675 176.594824 
L 168.05305 175.530918 
L 168.137692 175.530918 
L 168.148245 174.821647 
L 168.263944 174.821647 
L 168.358081 173.757741 
L 168.378936 173.757741 
L 168.4725 172.3392 
L 168.565601 172.3392 
L 168.617126 170.920659 
L 168.699272 170.920659 
L 168.801454 169.502118 
L 168.973898 169.502118 
L 169.084644 168.083576 
L 169.104709 168.083576 
L 169.15478 167.374306 
L 169.314117 167.374306 
L 169.343842 166.3104 
L 169.511408 166.3104 
L 169.579974 164.182588 
L 169.628797 164.182588 
L 169.696937 163.118682 
L 169.745458 163.118682 
L 169.842126 161.700141 
L 169.94789 161.700141 
L 170.053063 160.636235 
L 170.091163 160.636235 
L 170.186075 159.572329 
L 170.205 159.572329 
L 170.299341 158.863059 
L 170.336945 158.863059 
L 170.439971 155.316706 
L 170.579558 155.316706 
L 170.588827 154.607435 
L 170.819081 154.607435 
L 170.873925 153.543529 
L 170.937709 153.543529 
L 171.0194 151.770353 
L 171.064631 151.770353 
L 171.127772 150.706447 
L 171.190702 150.706447 
L 171.190702 150.351812 
L 171.315934 150.351812 
L 171.378239 149.287906 
L 171.466889 149.287906 
L 171.519879 148.224 
L 171.634182 148.224 
L 171.686704 146.450824 
L 171.782615 146.450824 
L 171.878039 145.032282 
L 171.90398 145.032282 
L 171.90398 144.677647 
L 172.033151 144.677647 
L 172.135853 142.1952 
L 172.212513 142.1952 
L 172.263447 141.485929 
L 172.373333 141.485929 
L 172.482581 140.067388 
L 172.557844 140.067388 
L 172.574528 139.358118 
L 172.724025 139.358118 
L 172.748826 138.648847 
L 172.839484 138.648847 
L 172.85592 137.939576 
L 173.03578 137.939576 
L 173.125069 136.875671 
L 173.18167 136.875671 
L 173.2381 136.1664 
L 173.294362 136.1664 
L 173.294362 135.811765 
L 173.422332 135.811765 
L 173.517742 134.747859 
L 173.683553 134.747859 
L 173.746337 133.683953 
L 173.801101 133.683953 
L 173.808912 132.974682 
L 174.034017 132.974682 
L 174.111019 131.556141 
L 174.195358 131.556141 
L 174.195358 131.201506 
L 174.324962 131.201506 
L 174.415913 130.1376 
L 174.476303 130.1376 
L 174.506426 129.428329 
L 174.663783 129.428329 
L 174.708501 128.719059 
L 174.812433 128.719059 
L 174.827233 128.009788 
L 174.974602 128.009788 
L 175.040543 127.300518 
L 175.106254 127.300518 
L 175.149934 125.527341 
L 175.251462 125.527341 
L 175.330851 124.463435 
L 175.366826 124.463435 
L 175.381197 123.754165 
L 175.481488 123.754165 
L 175.481488 123.399529 
L 175.630928 123.399529 
L 175.729899 122.690259 
L 175.743995 122.690259 
L 175.751039 121.980988 
L 175.905348 121.980988 
L 175.982031 121.271718 
L 176.030666 121.271718 
L 176.079176 119.853176 
L 176.237692 119.853176 
L 176.340357 116.661459 
L 176.401688 116.661459 
L 176.503464 115.597553 
L 176.550771 115.597553 
L 176.645031 114.533647 
L 176.732137 114.533647 
L 176.785541 113.469741 
L 176.858725 113.469741 
L 176.918392 111.696565 
L 177.076584 111.696565 
L 177.076584 111.341929 
L 177.200883 111.341929 
L 177.200883 110.987294 
L 177.317886 110.987294 
L 177.395487 109.923388 
L 177.485617 109.923388 
L 177.543331 108.504847 
L 177.620009 108.504847 
L 177.670954 106.731671 
L 177.753447 106.731671 
L 177.854483 105.313129 
L 177.973763 105.313129 
L 178.067399 104.603859 
L 178.098508 104.603859 
L 178.160572 103.539953 
L 178.216255 103.539953 
L 178.327129 101.412141 
L 178.345544 101.412141 
L 178.44956 99.9936 
L 178.486135 99.9936 
L 178.522639 99.284329 
L 178.601488 99.284329 
L 178.637769 98.220424 
L 178.716138 98.220424 
L 178.81813 96.801882 
L 178.853996 96.801882 
L 178.943362 95.737976 
L 179.03822 95.737976 
L 179.079571 95.028706 
L 179.24407 95.028706 
L 179.349065 93.610165 
L 179.505467 93.610165 
L 179.59754 92.900894 
L 179.706294 92.900894 
L 179.706294 92.546259 
L 179.899351 92.546259 
L 179.950124 91.127718 
L 180.028834 91.127718 
L 180.096038 90.418447 
L 180.218626 90.418447 
L 180.263006 89.354541 
L 180.390018 89.354541 
L 180.428504 88.645271 
L 180.521644 88.645271 
L 180.543493 87.581365 
L 180.646928 87.581365 
L 180.684893 86.162824 
L 180.814479 86.162824 
L 180.873576 84.744282 
L 181.01785 84.744282 
L 181.108124 83.325741 
L 181.134593 83.325741 
L 181.197967 82.261835 
L 181.44935 82.261835 
L 181.44935 81.9072 
L 181.568624 81.9072 
L 181.67687 81.197929 
L 181.733323 81.197929 
L 181.738447 80.488659 
L 181.891511 80.488659 
L 181.967579 79.070118 
L 182.018121 79.070118 
L 182.023168 78.360847 
L 182.213946 78.360847 
L 182.253864 77.651576 
L 182.363205 77.651576 
L 182.392915 76.942306 
L 182.560393 76.942306 
L 182.560393 76.587671 
L 182.716668 76.587671 
L 182.794322 75.8784 
L 182.92464 75.8784 
L 182.991858 75.169129 
L 183.054061 75.169129 
L 183.054061 74.814494 
L 183.192084 74.814494 
L 183.192084 74.459859 
L 183.314974 74.459859 
L 183.408962 72.332047 
L 183.483815 72.332047 
L 183.590898 70.204235 
L 183.60482 70.204235 
L 183.623367 69.494965 
L 183.752689 69.494965 
L 183.839939 68.431059 
L 183.935905 68.431059 
L 183.976883 67.721788 
L 184.094768 67.721788 
L 184.166946 67.012518 
L 184.30154 67.012518 
L 184.364022 65.948612 
L 184.488367 65.948612 
L 184.598699 64.530071 
L 184.616292 64.530071 
L 184.677739 63.8208 
L 184.79568 63.8208 
L 184.79568 63.466165 
L 185.003545 63.466165 
L 185.003545 63.111529 
L 185.119467 63.111529 
L 185.209137 61.338353 
L 185.268681 61.338353 
L 185.268681 60.983718 
L 185.395644 60.983718 
L 185.454601 60.274447 
L 185.775604 60.274447 
L 185.870435 58.855906 
L 186.005667 58.855906 
L 186.074955 58.146635 
L 186.148041 58.146635 
L 186.20873 57.437365 
L 186.337549 57.437365 
L 186.369616 56.728094 
L 186.525167 56.728094 
L 186.525167 56.373459 
L 186.734516 56.373459 
L 186.832462 54.600282 
L 186.88709 54.600282 
L 186.949329 53.536376 
L 187.265108 53.536376 
L 187.360338 52.472471 
L 187.541837 52.472471 
L 187.616948 51.408565 
L 187.717875 51.408565 
L 187.821971 49.990024 
L 187.969687 49.990024 
L 188.013777 48.926118 
L 188.09434 48.926118 
L 188.189109 47.507576 
L 188.370025 47.507576 
L 188.452666 46.443671 
L 188.62042 46.443671 
L 188.631078 45.7344 
L 188.867526 45.7344 
L 188.867526 45.379765 
L 189.028161 45.379765 
L 189.12873 44.670494 
L 189.491819 44.670494 
L 189.491819 44.315859 
L 189.620295 44.315859 
L 189.620295 43.961224 
L 189.828049 43.961224 
L 189.86467 43.251953 
L 190.036829 43.251953 
L 190.036829 42.897318 
L 190.17801 42.897318 
L 190.285645 41.833412 
L 190.340854 41.833412 
L 190.424979 40.769506 
L 190.678304 40.769506 
L 190.751421 40.060235 
L 190.792622 40.060235 
L 190.792622 39.7056 
L 191.150112 39.7056 
L 191.150112 39.350965 
L 191.679963 39.350965 
L 191.679963 38.996329 
L 191.970645 38.996329 
L 191.970645 38.641694 
L 192.115795 38.641694 
L 192.115795 38.287059 
L 192.265688 38.287059 
L 192.265688 37.932424 
L 192.498436 37.932424 
L 192.498436 37.577788 
L 192.819518 37.577788 
L 192.819518 37.223153 
L 193.112838 37.223153 
L 193.112838 36.868518 
L 193.368554 36.868518 
L 193.420935 36.159247 
L 193.645341 36.159247 
L 193.645341 35.804612 
L 193.982354 35.804612 
L 194.022393 34.740706 
L 194.260852 34.740706 
L 194.329181 34.031435 
L 194.527502 34.031435 
L 194.527502 33.6768 
L 195.245626 33.6768 
L 195.268099 32.967529 
L 195.643651 32.967529 
L 195.643651 32.612894 
L 196.288077 32.612894 
L 196.32822 31.903624 
L 196.47156 31.903624 
L 196.47156 31.548988 
L 196.99558 31.548988 
L 196.99558 31.194353 
L 197.140721 31.194353 
L 197.140721 30.839718 
L 197.618061 30.839718 
L 197.618061 30.485082 
L 198.362978 30.485082 
L 198.362978 30.130447 
L 198.725697 30.130447 
L 198.823043 29.421176 
L 200.235418 29.421176 
L 200.235418 29.066541 
L 201.027245 29.066541 
L 201.027245 28.711906 
L 201.684452 28.711906 
L 201.684452 28.357271 
L 202.316041 28.357271 
L 202.316041 28.002635 
L 204.390118 28.002635 
L 204.390118 27.648 
L 360.8064 27.648 
L 360.8064 27.648 
" style="fill:none;stroke:#ff00ff;stroke-linecap:square;stroke-width:1.5;"/>
   </g>
   <g id="line2d_40">
    <defs>
     <path d="M -0 8.485281 
L 5.091169 0 
L 0 -8.485281 
L -5.091169 -0 
z
" id="m91b180d1ea" style="stroke:#ff00ff;stroke-linejoin:miter;stroke-width:1.5;"/>
    </defs>
    <g>
     <use style="fill-opacity:0;stroke:#ff00ff;stroke-linejoin:miter;stroke-width:1.5;" x="161.706511" xlink:href="#m91b180d1ea" y="224.825224"/>
     <use style="fill-opacity:0;stroke:#ff00ff;stroke-linejoin:miter;stroke-width:1.5;" x="186.832462" xlink:href="#m91b180d1ea" y="54.600282"/>
     <use style="fill-opacity:0;stroke:#ff00ff;stroke-linejoin:miter;stroke-width:1.5;" x="204.390118" xlink:href="#m91b180d1ea" y="27.648"/>
     <use style="fill-opacity:0;stroke:#ff00ff;stroke-linejoin:miter;stroke-width:1.5;" x="204.390118" xlink:href="#m91b180d1ea" y="27.648"/>
     <use style="fill-opacity:0;stroke:#ff00ff;stroke-linejoin:miter;stroke-width:1.5;" x="360.8064" xlink:href="#m91b180d1ea" y="27.648"/>
    </g>
   </g>
   <g id="line2d_41">
    <path style="fill:none;stroke:#ff00ff;stroke-linecap:square;stroke-width:1.5;"/>
    <g/>
   </g>
   <g id="line2d_42">
    <path clip-path="url(#pe99466a212)" d="M 150.533072 288.304941 
" style="fill:none;stroke:#ff00ff;stroke-linecap:square;stroke-width:1.5;"/>
    <defs>
     <path d="M -12 12 
L 12 -12 
M -12 -12 
L 12 12 
" id="m5652b8201b" style="stroke:#ff00ff;"/>
    </defs>
    <g clip-path="url(#pe99466a212)">
     <use style="fill:#ff00ff;stroke:#ff00ff;" x="150.533072" xlink:href="#m5652b8201b" y="288.304941"/>
    </g>
   </g>
   <g id="line2d_43">
    <path d="M 360.8064 27.648 
L 380.514816 293.51808 
" style="fill:none;stroke:#ff00ff;stroke-linecap:square;stroke-width:1.5;"/>
    <g>
     <use style="fill-opacity:0;stroke:#ff00ff;stroke-linejoin:miter;stroke-width:1.5;" x="360.8064" xlink:href="#m91b180d1ea" y="27.648"/>
     <use style="fill-opacity:0;stroke:#ff00ff;stroke-linejoin:miter;stroke-width:1.5;" x="380.514816" xlink:href="#m91b180d1ea" y="293.51808"/>
    </g>
   </g>
   <g id="line2d_44">
    <path d="M 360.8064 27.648 
L 380.514816 163.296 
" style="fill:none;stroke:#000080;stroke-linecap:square;stroke-width:1.5;"/>
    <g>
     <use style="fill-opacity:0;stroke:#000080;stroke-width:1.5;" x="360.8064" xlink:href="#m4a312f1744" y="27.648"/>
     <use style="fill-opacity:0;stroke:#000080;stroke-width:1.5;" x="380.514816" xlink:href="#m4a312f1744" y="163.296"/>
    </g>
   </g>
   <g id="line2d_45">
    <path d="M 360.8064 298.944 
L 360.8064 27.648 
" style="fill:none;stroke:#000000;stroke-linecap:square;stroke-width:1.5;"/>
   </g>
   <g id="patch_3">
    <path d="M 57.6 298.944 
L 360.8064 298.944 
" style="fill:none;stroke:#000000;stroke-linecap:square;stroke-linejoin:miter;stroke-width:0.8;"/>
   </g>
   <g id="patch_4">
    <path d="M 57.6 27.648 
L 360.8064 27.648 
" style="fill:none;stroke:#000000;stroke-linecap:square;stroke-linejoin:miter;stroke-width:0.8;"/>
   </g>
   <g id="text_13">
    <!-- cma.fmin  -->
    <g transform="translate(386.578944 297.381205)scale(0.14 -0.14)">
     <use xlink:href="#DejaVuSans-63"/>
     <use x="54.980469" xlink:href="#DejaVuSans-6d"/>
     <use x="152.392578" xlink:href="#DejaVuSans-61"/>
     <use x="213.671875" xlink:href="#DejaVuSans-2e"/>
     <use x="245.458984" xlink:href="#DejaVuSans-66"/>
     <use x="280.664062" xlink:href="#DejaVuSans-6d"/>
     <use x="378.076172" xlink:href="#DejaVuSans-69"/>
     <use x="405.859375" xlink:href="#DejaVuSans-6e"/>
     <use x="469.238281" xlink:href="#DejaVuSans-20"/>
    </g>
   </g>
   <g id="text_14">
    <!-- different -->
    <g transform="translate(386.578944 167.159125)scale(0.14 -0.14)">
     <use xlink:href="#DejaVuSans-64"/>
     <use x="63.476562" xlink:href="#DejaVuSans-69"/>
     <use x="91.259766" xlink:href="#DejaVuSans-66"/>
     <use x="126.464844" xlink:href="#DejaVuSans-66"/>
     <use x="161.669922" xlink:href="#DejaVuSans-65"/>
     <use x="223.193359" xlink:href="#DejaVuSans-72"/>
     <use x="262.056641" xlink:href="#DejaVuSans-65"/>
     <use x="323.580078" xlink:href="#DejaVuSans-6e"/>
     <use x="386.958984" xlink:href="#DejaVuSans-74"/>
    </g>
   </g>
   <g id="text_15">
    <!-- best 2009 -->
    <g transform="translate(386.578944 36.937045)scale(0.14 -0.14)">
     <defs>
      <path d="M 3116 1747 
Q 3116 2381 2855 2742 
Q 2594 3103 2138 3103 
Q 1681 3103 1420 2742 
Q 1159 2381 1159 1747 
Q 1159 1113 1420 752 
Q 1681 391 2138 391 
Q 2594 391 2855 752 
Q 3116 1113 3116 1747 
z
M 1159 2969 
Q 1341 3281 1617 3432 
Q 1894 3584 2278 3584 
Q 2916 3584 3314 3078 
Q 3713 2572 3713 1747 
Q 3713 922 3314 415 
Q 2916 -91 2278 -91 
Q 1894 -91 1617 61 
Q 1341 213 1159 525 
L 1159 0 
L 581 0 
L 581 4863 
L 1159 4863 
L 1159 2969 
z
" id="DejaVuSans-62" transform="scale(0.015625)"/>
      <path d="M 703 97 
L 703 672 
Q 941 559 1184 500 
Q 1428 441 1663 441 
Q 2288 441 2617 861 
Q 2947 1281 2994 2138 
Q 2813 1869 2534 1725 
Q 2256 1581 1919 1581 
Q 1219 1581 811 2004 
Q 403 2428 403 3163 
Q 403 3881 828 4315 
Q 1253 4750 1959 4750 
Q 2769 4750 3195 4129 
Q 3622 3509 3622 2328 
Q 3622 1225 3098 567 
Q 2575 -91 1691 -91 
Q 1453 -91 1209 -44 
Q 966 3 703 97 
z
M 1959 2075 
Q 2384 2075 2632 2365 
Q 2881 2656 2881 3163 
Q 2881 3666 2632 3958 
Q 2384 4250 1959 4250 
Q 1534 4250 1286 3958 
Q 1038 3666 1038 3163 
Q 1038 2656 1286 2365 
Q 1534 2075 1959 2075 
z
" id="DejaVuSans-39" transform="scale(0.015625)"/>
     </defs>
     <use xlink:href="#DejaVuSans-62"/>
     <use x="63.476562" xlink:href="#DejaVuSans-65"/>
     <use x="125" xlink:href="#DejaVuSans-73"/>
     <use x="177.099609" xlink:href="#DejaVuSans-74"/>
     <use x="216.308594" xlink:href="#DejaVuSans-20"/>
     <use x="248.095703" xlink:href="#DejaVuSans-32"/>
     <use x="311.71875" xlink:href="#DejaVuSans-30"/>
     <use x="375.341797" xlink:href="#DejaVuSans-30"/>
     <use x="438.964844" xlink:href="#DejaVuSans-39"/>
    </g>
   </g>
   <g id="text_16">
    <!-- bbob f2, 5-D -->
    <g transform="translate(60.632064 38.111366)scale(0.102 -0.102)">
     <defs>
      <path d="M 691 4666 
L 3169 4666 
L 3169 4134 
L 1269 4134 
L 1269 2991 
Q 1406 3038 1543 3061 
Q 1681 3084 1819 3084 
Q 2600 3084 3056 2656 
Q 3513 2228 3513 1497 
Q 3513 744 3044 326 
Q 2575 -91 1722 -91 
Q 1428 -91 1123 -41 
Q 819 9 494 109 
L 494 744 
Q 775 591 1075 516 
Q 1375 441 1709 441 
Q 2250 441 2565 725 
Q 2881 1009 2881 1497 
Q 2881 1984 2565 2268 
Q 2250 2553 1709 2553 
Q 1456 2553 1204 2497 
Q 953 2441 691 2322 
L 691 4666 
z
" id="DejaVuSans-35" transform="scale(0.015625)"/>
      <path d="M 1259 4147 
L 1259 519 
L 2022 519 
Q 2988 519 3436 956 
Q 3884 1394 3884 2338 
Q 3884 3275 3436 3711 
Q 2988 4147 2022 4147 
L 1259 4147 
z
M 628 4666 
L 1925 4666 
Q 3281 4666 3915 4102 
Q 4550 3538 4550 2338 
Q 4550 1131 3912 565 
Q 3275 0 1925 0 
L 628 0 
L 628 4666 
z
" id="DejaVuSans-44" transform="scale(0.015625)"/>
     </defs>
     <use xlink:href="#DejaVuSans-62"/>
     <use x="63.476562" xlink:href="#DejaVuSans-62"/>
     <use x="126.953125" xlink:href="#DejaVuSans-6f"/>
     <use x="188.134766" xlink:href="#DejaVuSans-62"/>
     <use x="251.611328" xlink:href="#DejaVuSans-20"/>
     <use x="283.398438" xlink:href="#DejaVuSans-66"/>
     <use x="318.603516" xlink:href="#DejaVuSans-32"/>
     <use x="382.226562" xlink:href="#DejaVuSans-2c"/>
     <use x="414.013672" xlink:href="#DejaVuSans-20"/>
     <use x="445.800781" xlink:href="#DejaVuSans-35"/>
     <use x="509.423828" xlink:href="#DejaVuSans-2d"/>
     <use x="545.507812" xlink:href="#DejaVuSans-44"/>
    </g>
    <!-- 51 targets: 100..1e-08 -->
    <g transform="translate(60.632064 49.533135)scale(0.102 -0.102)">
     <defs>
      <path d="M 750 794 
L 1409 794 
L 1409 0 
L 750 0 
L 750 794 
z
M 750 3309 
L 1409 3309 
L 1409 2516 
L 750 2516 
L 750 3309 
z
" id="DejaVuSans-3a" transform="scale(0.015625)"/>
     </defs>
     <use xlink:href="#DejaVuSans-35"/>
     <use x="63.623047" xlink:href="#DejaVuSans-31"/>
     <use x="127.246094" xlink:href="#DejaVuSans-20"/>
     <use x="159.033203" xlink:href="#DejaVuSans-74"/>
     <use x="198.242188" xlink:href="#DejaVuSans-61"/>
     <use x="259.521484" xlink:href="#DejaVuSans-72"/>
     <use x="298.884766" xlink:href="#DejaVuSans-67"/>
     <use x="362.361328" xlink:href="#DejaVuSans-65"/>
     <use x="423.884766" xlink:href="#DejaVuSans-74"/>
     <use x="463.09375" xlink:href="#DejaVuSans-73"/>
     <use x="515.193359" xlink:href="#DejaVuSans-3a"/>
     <use x="548.884766" xlink:href="#DejaVuSans-20"/>
     <use x="580.671875" xlink:href="#DejaVuSans-31"/>
     <use x="644.294922" xlink:href="#DejaVuSans-30"/>
     <use x="707.917969" xlink:href="#DejaVuSans-30"/>
     <use x="771.541016" xlink:href="#DejaVuSans-2e"/>
     <use x="803.328125" xlink:href="#DejaVuSans-2e"/>
     <use x="835.115234" xlink:href="#DejaVuSans-31"/>
     <use x="898.738281" xlink:href="#DejaVuSans-65"/>
     <use x="960.261719" xlink:href="#DejaVuSans-2d"/>
     <use x="996.345703" xlink:href="#DejaVuSans-30"/>
     <use x="1059.96875" xlink:href="#DejaVuSans-38"/>
    </g>
    <!-- 15 instances -->
    <g transform="translate(60.632064 60.954904)scale(0.102 -0.102)">
     <use xlink:href="#DejaVuSans-31"/>
     <use x="63.623047" xlink:href="#DejaVuSans-35"/>
     <use x="127.246094" xlink:href="#DejaVuSans-20"/>
     <use x="159.033203" xlink:href="#DejaVuSans-69"/>
     <use x="186.816406" xlink:href="#DejaVuSans-6e"/>
     <use x="250.195312" xlink:href="#DejaVuSans-73"/>
     <use x="302.294922" xlink:href="#DejaVuSans-74"/>
     <use x="341.503906" xlink:href="#DejaVuSans-61"/>
     <use x="402.783203" xlink:href="#DejaVuSans-6e"/>
     <use x="466.162109" xlink:href="#DejaVuSans-63"/>
     <use x="521.142578" xlink:href="#DejaVuSans-65"/>
     <use x="582.666016" xlink:href="#DejaVuSans-73"/>
    </g>
   </g>
   <g id="text_17">
    <!-- v2.6 -->
    <g style="fill:#808080;" transform="translate(198.292262 294.151352)scale(0.1 -0.1)">
     <use xlink:href="#DejaVuSans-76"/>
     <use x="59.179688" xlink:href="#DejaVuSans-32"/>
     <use x="122.802734" xlink:href="#DejaVuSans-2e"/>
     <use x="154.589844" xlink:href="#DejaVuSans-36"/>
    </g>
   </g>
   <g id="text_18">
    <!-- 2 Ellipsoid separable -->
    <g transform="translate(105.670387 21.648)scale(0.2 -0.2)">
     <defs>
      <path d="M 628 4666 
L 3578 4666 
L 3578 4134 
L 1259 4134 
L 1259 2753 
L 3481 2753 
L 3481 2222 
L 1259 2222 
L 1259 531 
L 3634 531 
L 3634 0 
L 628 0 
L 628 4666 
z
" id="DejaVuSans-45" transform="scale(0.015625)"/>
     </defs>
     <use xlink:href="#DejaVuSans-32"/>
     <use x="63.623047" xlink:href="#DejaVuSans-20"/>
     <use x="95.410156" xlink:href="#DejaVuSans-45"/>
     <use x="158.59375" xlink:href="#DejaVuSans-6c"/>
     <use x="186.376953" xlink:href="#DejaVuSans-6c"/>
     <use x="214.160156" xlink:href="#DejaVuSans-69"/>
     <use x="241.943359" xlink:href="#DejaVuSans-70"/>
     <use x="305.419922" xlink:href="#DejaVuSans-73"/>
     <use x="357.519531" xlink:href="#DejaVuSans-6f"/>
     <use x="418.701172" xlink:href="#DejaVuSans-69"/>
     <use x="446.484375" xlink:href="#DejaVuSans-64"/>
     <use x="509.960938" xlink:href="#DejaVuSans-20"/>
     <use x="541.748047" xlink:href="#DejaVuSans-73"/>
     <use x="593.847656" xlink:href="#DejaVuSans-65"/>
     <use x="655.371094" xlink:href="#DejaVuSans-70"/>
     <use x="718.847656" xlink:href="#DejaVuSans-61"/>
     <use x="780.126953" xlink:href="#DejaVuSans-72"/>
     <use x="821.240234" xlink:href="#DejaVuSans-61"/>
     <use x="882.519531" xlink:href="#DejaVuSans-62"/>
     <use x="945.996094" xlink:href="#DejaVuSans-6c"/>
     <use x="973.779297" xlink:href="#DejaVuSans-65"/>
    </g>
   </g>
  </g>
 </g>
 <defs>
  <clipPath id="pe99466a212">
   <rect height="271.296" width="303.2064" x="57.6" y="27.648"/>
  </clipPath>
 </defs>
</svg>
