<?xml version="1.0" encoding="utf-8" standalone="no"?>
<!DOCTYPE svg PUBLIC "-//W3C//DTD SVG 1.1//EN"
  "http://www.w3.org/Graphics/SVG/1.1/DTD/svg11.dtd">
<svg height="345.6pt" version="1.1" viewBox="0 0 460.8 345.6" width="460.8pt" xmlns="http://www.w3.org/2000/svg" xmlns:xlink="http://www.w3.org/1999/xlink">
 <metadata>
  <rdf:RDF xmlns:cc="http://creativecommons.org/ns#" xmlns:dc="http://purl.org/dc/elements/1.1/" xmlns:rdf="http://www.w3.org/1999/02/22-rdf-syntax-ns#">
   <cc:Work>
    <dc:type rdf:resource="http://purl.org/dc/dcmitype/StillImage"/>
    <dc:date>2022-05-22T15:11:03.328624</dc:date>
    <dc:format>image/svg+xml</dc:format>
    <dc:creator>
     <cc:Agent>
      <dc:title>Matplotlib v3.4.3, https://matplotlib.org/</dc:title>
     </cc:Agent>
    </dc:creator>
   </cc:Work>
  </rdf:RDF>
 </metadata>
 <defs>
  <style type="text/css">*{stroke-linecap:butt;stroke-linejoin:round;}</style>
 </defs>
 <g id="figure_1">
  <g id="patch_1">
   <path d="M 0 345.6 
L 460.8 345.6 
L 460.8 0 
L 0 0 
z
" style="fill:#ffffff;"/>
  </g>
  <g id="axes_1">
   <g id="patch_2">
    <path d="M 57.6 298.944 
L 360.8064 298.944 
L 360.8064 27.648 
L 57.6 27.648 
z
" style="fill:#ffffff;"/>
   </g>
   <g id="line2d_1">
    <path d="M 36.933397 298.944 
L 36.933397 293.624471 
L 49.972572 293.624471 
L 49.972572 288.304941 
L 57.6 288.304941 
L 57.6 282.985412 
L 76.050921 282.985412 
L 76.050921 277.665882 
L 80.248597 277.665882 
L 80.248597 272.346353 
L 106.791453 272.346353 
L 106.791453 267.026824 
L 114.872193 267.026824 
L 114.872193 261.707294 
L 126.836129 261.707294 
L 126.836129 256.387765 
L 137.340774 256.387765 
L 137.340774 251.068235 
L 140.26641 251.068235 
L 140.26641 245.748706 
L 145.385592 245.748706 
L 145.385592 240.429176 
L 148.971944 240.429176 
L 148.971944 235.109647 
L 151.477784 235.109647 
L 151.477784 229.790118 
L 153.071898 229.790118 
L 153.071898 224.470588 
L 155.322384 224.470588 
L 155.322384 219.151059 
L 156.696589 219.151059 
L 156.696589 213.831529 
L 158.804221 213.831529 
L 158.804221 208.512 
L 159.176172 208.512 
L 159.176172 203.192471 
L 159.513105 203.192471 
L 159.513105 197.872941 
L 160.489139 197.872941 
L 160.489139 192.553412 
L 162.420867 192.553412 
L 162.420867 187.233882 
L 171.537509 187.233882 
L 171.537509 181.914353 
L 172.201176 181.914353 
L 172.201176 176.594824 
L 172.704712 176.594824 
L 172.704712 171.275294 
L 173.620559 171.275294 
L 173.620559 165.955765 
L 178.593416 165.955765 
L 178.593416 160.636235 
L 179.101194 160.636235 
L 179.101194 155.316706 
L 179.490078 155.316706 
L 179.490078 149.997176 
L 180.114663 149.997176 
L 180.114663 144.677647 
L 180.665016 144.677647 
L 180.665016 139.358118 
L 181.365929 139.358118 
L 181.365929 134.038588 
L 188.168495 134.038588 
L 188.168495 128.719059 
L 188.433535 128.719059 
L 188.433535 123.399529 
L 188.511134 123.399529 
L 188.511134 118.08 
L 188.653556 118.08 
L 188.653556 112.760471 
L 188.78317 112.760471 
L 188.78317 107.440941 
L 188.95267 107.440941 
L 188.95267 102.121412 
L 189.016566 102.121412 
L 189.016566 96.801882 
L 189.086025 96.801882 
L 189.086025 91.482353 
L 189.22991 91.482353 
L 189.22991 86.162824 
L 189.304298 86.162824 
L 189.304298 80.843294 
L 189.42952 80.843294 
L 189.42952 75.523765 
L 189.469188 75.523765 
L 189.469188 70.204235 
L 189.503124 70.204235 
L 189.503124 64.884706 
L 189.531357 64.884706 
L 189.531357 59.565176 
L 189.683086 59.565176 
L 189.683086 54.245647 
L 189.755707 54.245647 
L 189.755707 48.926118 
L 189.850252 48.926118 
L 189.850252 43.606588 
L 189.916704 43.606588 
L 189.916704 38.287059 
L 189.982923 38.287059 
L 189.982923 32.967529 
L 190.048909 32.967529 
L 190.048909 27.648 
L 360.8064 27.648 
" style="fill:none;stroke:#f5deb3;stroke-linecap:square;stroke-width:4;"/>
   </g>
   <g id="line2d_2">
    <defs>
     <path d="M -0 7.778175 
L 7.778175 0 
L 0 -7.778175 
L -7.778175 -0 
z
" id="m113da58041" style="stroke:#f5deb3;stroke-linejoin:miter;stroke-width:1.5;"/>
    </defs>
    <g>
     <use style="fill:#f5deb3;stroke:#f5deb3;stroke-linejoin:miter;stroke-width:1.5;" x="106.791453" xlink:href="#m113da58041" y="272.346353"/>
     <use style="fill:#f5deb3;stroke:#f5deb3;stroke-linejoin:miter;stroke-width:1.5;" x="172.704712" xlink:href="#m113da58041" y="171.275294"/>
     <use style="fill:#f5deb3;stroke:#f5deb3;stroke-linejoin:miter;stroke-width:1.5;" x="189.22991" xlink:href="#m113da58041" y="86.162824"/>
     <use style="fill:#f5deb3;stroke:#f5deb3;stroke-linejoin:miter;stroke-width:1.5;" x="190.048909" xlink:href="#m113da58041" y="27.648"/>
     <use style="fill:#f5deb3;stroke:#f5deb3;stroke-linejoin:miter;stroke-width:1.5;" x="190.048909" xlink:href="#m113da58041" y="27.648"/>
     <use style="fill:#f5deb3;stroke:#f5deb3;stroke-linejoin:miter;stroke-width:1.5;" x="360.8064" xlink:href="#m113da58041" y="27.648"/>
    </g>
   </g>
   <g id="line2d_3">
    <path style="fill:none;stroke:#f5deb3;stroke-linecap:square;stroke-width:4;"/>
    <g/>
   </g>
   <g id="line2d_4">
    <path d="M 360.8064 27.648 
L 380.514816 33.07392 
" style="fill:none;stroke:#f5deb3;stroke-linecap:square;stroke-width:4;"/>
    <g>
     <use style="fill:#f5deb3;stroke:#f5deb3;stroke-linejoin:miter;stroke-width:1.5;" x="360.8064" xlink:href="#m113da58041" y="27.648"/>
     <use style="fill:#f5deb3;stroke:#f5deb3;stroke-linejoin:miter;stroke-width:1.5;" x="380.514816" xlink:href="#m113da58041" y="33.07392"/>
    </g>
   </g>
   <g id="matplotlib.axis_1">
    <g id="xtick_1">
     <g id="line2d_5">
      <path clip-path="url(#p5cdb16216a)" d="M 57.6 298.944 
L 57.6 27.648 
" style="fill:none;stroke:#b0b0b0;stroke-linecap:square;stroke-width:0.8;"/>
     </g>
     <g id="line2d_6">
      <defs>
       <path d="M 0 0 
L 0 3.5 
" id="m790423b90a" style="stroke:#000000;stroke-width:0.8;"/>
      </defs>
      <g>
       <use style="stroke:#000000;stroke-width:0.8;" x="57.6" xlink:href="#m790423b90a" y="298.944"/>
      </g>
     </g>
     <g id="text_1">
      <!-- 0 -->
      <g transform="translate(52.191875 318.861344)scale(0.17 -0.17)">
       <defs>
        <path d="M 2034 4250 
Q 1547 4250 1301 3770 
Q 1056 3291 1056 2328 
Q 1056 1369 1301 889 
Q 1547 409 2034 409 
Q 2525 409 2770 889 
Q 3016 1369 3016 2328 
Q 3016 3291 2770 3770 
Q 2525 4250 2034 4250 
z
M 2034 4750 
Q 2819 4750 3233 4129 
Q 3647 3509 3647 2328 
Q 3647 1150 3233 529 
Q 2819 -91 2034 -91 
Q 1250 -91 836 529 
Q 422 1150 422 2328 
Q 422 3509 836 4129 
Q 1250 4750 2034 4750 
z
" id="DejaVuSans-30" transform="scale(0.015625)"/>
       </defs>
       <use xlink:href="#DejaVuSans-30"/>
      </g>
     </g>
    </g>
    <g id="xtick_2">
     <g id="line2d_7">
      <path clip-path="url(#p5cdb16216a)" d="M 144.2304 298.944 
L 144.2304 27.648 
" style="fill:none;stroke:#b0b0b0;stroke-linecap:square;stroke-width:0.8;"/>
     </g>
     <g id="line2d_8">
      <g>
       <use style="stroke:#000000;stroke-width:0.8;" x="144.2304" xlink:href="#m790423b90a" y="298.944"/>
      </g>
     </g>
     <g id="text_2">
      <!-- 2 -->
      <g transform="translate(138.822275 318.861344)scale(0.17 -0.17)">
       <defs>
        <path d="M 1228 531 
L 3431 531 
L 3431 0 
L 469 0 
L 469 531 
Q 828 903 1448 1529 
Q 2069 2156 2228 2338 
Q 2531 2678 2651 2914 
Q 2772 3150 2772 3378 
Q 2772 3750 2511 3984 
Q 2250 4219 1831 4219 
Q 1534 4219 1204 4116 
Q 875 4013 500 3803 
L 500 4441 
Q 881 4594 1212 4672 
Q 1544 4750 1819 4750 
Q 2544 4750 2975 4387 
Q 3406 4025 3406 3419 
Q 3406 3131 3298 2873 
Q 3191 2616 2906 2266 
Q 2828 2175 2409 1742 
Q 1991 1309 1228 531 
z
" id="DejaVuSans-32" transform="scale(0.015625)"/>
       </defs>
       <use xlink:href="#DejaVuSans-32"/>
      </g>
     </g>
    </g>
    <g id="xtick_3">
     <g id="line2d_9">
      <path clip-path="url(#p5cdb16216a)" d="M 230.8608 298.944 
L 230.8608 27.648 
" style="fill:none;stroke:#b0b0b0;stroke-linecap:square;stroke-width:0.8;"/>
     </g>
     <g id="line2d_10">
      <g>
       <use style="stroke:#000000;stroke-width:0.8;" x="230.8608" xlink:href="#m790423b90a" y="298.944"/>
      </g>
     </g>
     <g id="text_3">
      <!-- 4 -->
      <g transform="translate(225.452675 318.861344)scale(0.17 -0.17)">
       <defs>
        <path d="M 2419 4116 
L 825 1625 
L 2419 1625 
L 2419 4116 
z
M 2253 4666 
L 3047 4666 
L 3047 1625 
L 3713 1625 
L 3713 1100 
L 3047 1100 
L 3047 0 
L 2419 0 
L 2419 1100 
L 313 1100 
L 313 1709 
L 2253 4666 
z
" id="DejaVuSans-34" transform="scale(0.015625)"/>
       </defs>
       <use xlink:href="#DejaVuSans-34"/>
      </g>
     </g>
    </g>
    <g id="xtick_4">
     <g id="line2d_11">
      <path clip-path="url(#p5cdb16216a)" d="M 317.4912 298.944 
L 317.4912 27.648 
" style="fill:none;stroke:#b0b0b0;stroke-linecap:square;stroke-width:0.8;"/>
     </g>
     <g id="line2d_12">
      <g>
       <use style="stroke:#000000;stroke-width:0.8;" x="317.4912" xlink:href="#m790423b90a" y="298.944"/>
      </g>
     </g>
     <g id="text_4">
      <!-- 6 -->
      <g transform="translate(312.083075 318.861344)scale(0.17 -0.17)">
       <defs>
        <path d="M 2113 2584 
Q 1688 2584 1439 2293 
Q 1191 2003 1191 1497 
Q 1191 994 1439 701 
Q 1688 409 2113 409 
Q 2538 409 2786 701 
Q 3034 994 3034 1497 
Q 3034 2003 2786 2293 
Q 2538 2584 2113 2584 
z
M 3366 4563 
L 3366 3988 
Q 3128 4100 2886 4159 
Q 2644 4219 2406 4219 
Q 1781 4219 1451 3797 
Q 1122 3375 1075 2522 
Q 1259 2794 1537 2939 
Q 1816 3084 2150 3084 
Q 2853 3084 3261 2657 
Q 3669 2231 3669 1497 
Q 3669 778 3244 343 
Q 2819 -91 2113 -91 
Q 1303 -91 875 529 
Q 447 1150 447 2328 
Q 447 3434 972 4092 
Q 1497 4750 2381 4750 
Q 2619 4750 2861 4703 
Q 3103 4656 3366 4563 
z
" id="DejaVuSans-36" transform="scale(0.015625)"/>
       </defs>
       <use xlink:href="#DejaVuSans-36"/>
      </g>
     </g>
    </g>
    <g id="xtick_5">
     <g id="line2d_13">
      <path clip-path="url(#p5cdb16216a)" d="M 100.9152 298.944 
L 100.9152 27.648 
" style="fill:none;stroke:#b0b0b0;stroke-linecap:square;stroke-width:0.8;"/>
     </g>
     <g id="line2d_14">
      <defs>
       <path d="M 0 0 
L 0 2 
" id="mab1a734de9" style="stroke:#000000;stroke-width:0.6;"/>
      </defs>
      <g>
       <use style="stroke:#000000;stroke-width:0.6;" x="100.9152" xlink:href="#mab1a734de9" y="298.944"/>
      </g>
     </g>
    </g>
    <g id="xtick_6">
     <g id="line2d_15">
      <path clip-path="url(#p5cdb16216a)" d="M 187.5456 298.944 
L 187.5456 27.648 
" style="fill:none;stroke:#b0b0b0;stroke-linecap:square;stroke-width:0.8;"/>
     </g>
     <g id="line2d_16">
      <g>
       <use style="stroke:#000000;stroke-width:0.6;" x="187.5456" xlink:href="#mab1a734de9" y="298.944"/>
      </g>
     </g>
    </g>
    <g id="xtick_7">
     <g id="line2d_17">
      <path clip-path="url(#p5cdb16216a)" d="M 274.176 298.944 
L 274.176 27.648 
" style="fill:none;stroke:#b0b0b0;stroke-linecap:square;stroke-width:0.8;"/>
     </g>
     <g id="line2d_18">
      <g>
       <use style="stroke:#000000;stroke-width:0.6;" x="274.176" xlink:href="#mab1a734de9" y="298.944"/>
      </g>
     </g>
    </g>
    <g id="xtick_8">
     <g id="line2d_19">
      <path clip-path="url(#p5cdb16216a)" d="M 360.8064 298.944 
L 360.8064 27.648 
" style="fill:none;stroke:#b0b0b0;stroke-linecap:square;stroke-width:0.8;"/>
     </g>
     <g id="line2d_20">
      <g>
       <use style="stroke:#000000;stroke-width:0.6;" x="360.8064" xlink:href="#mab1a734de9" y="298.944"/>
      </g>
     </g>
    </g>
    <g id="text_5">
     <!-- log10(# f-evals / dimension) -->
     <g transform="translate(88.823278 339.314156)scale(0.17 -0.17)">
      <defs>
       <path d="M 603 4863 
L 1178 4863 
L 1178 0 
L 603 0 
L 603 4863 
z
" id="DejaVuSans-6c" transform="scale(0.015625)"/>
       <path d="M 1959 3097 
Q 1497 3097 1228 2736 
Q 959 2375 959 1747 
Q 959 1119 1226 758 
Q 1494 397 1959 397 
Q 2419 397 2687 759 
Q 2956 1122 2956 1747 
Q 2956 2369 2687 2733 
Q 2419 3097 1959 3097 
z
M 1959 3584 
Q 2709 3584 3137 3096 
Q 3566 2609 3566 1747 
Q 3566 888 3137 398 
Q 2709 -91 1959 -91 
Q 1206 -91 779 398 
Q 353 888 353 1747 
Q 353 2609 779 3096 
Q 1206 3584 1959 3584 
z
" id="DejaVuSans-6f" transform="scale(0.015625)"/>
       <path d="M 2906 1791 
Q 2906 2416 2648 2759 
Q 2391 3103 1925 3103 
Q 1463 3103 1205 2759 
Q 947 2416 947 1791 
Q 947 1169 1205 825 
Q 1463 481 1925 481 
Q 2391 481 2648 825 
Q 2906 1169 2906 1791 
z
M 3481 434 
Q 3481 -459 3084 -895 
Q 2688 -1331 1869 -1331 
Q 1566 -1331 1297 -1286 
Q 1028 -1241 775 -1147 
L 775 -588 
Q 1028 -725 1275 -790 
Q 1522 -856 1778 -856 
Q 2344 -856 2625 -561 
Q 2906 -266 2906 331 
L 2906 616 
Q 2728 306 2450 153 
Q 2172 0 1784 0 
Q 1141 0 747 490 
Q 353 981 353 1791 
Q 353 2603 747 3093 
Q 1141 3584 1784 3584 
Q 2172 3584 2450 3431 
Q 2728 3278 2906 2969 
L 2906 3500 
L 3481 3500 
L 3481 434 
z
" id="DejaVuSans-67" transform="scale(0.015625)"/>
       <path d="M 794 531 
L 1825 531 
L 1825 4091 
L 703 3866 
L 703 4441 
L 1819 4666 
L 2450 4666 
L 2450 531 
L 3481 531 
L 3481 0 
L 794 0 
L 794 531 
z
" id="DejaVuSans-31" transform="scale(0.015625)"/>
       <path d="M 1984 4856 
Q 1566 4138 1362 3434 
Q 1159 2731 1159 2009 
Q 1159 1288 1364 580 
Q 1569 -128 1984 -844 
L 1484 -844 
Q 1016 -109 783 600 
Q 550 1309 550 2009 
Q 550 2706 781 3412 
Q 1013 4119 1484 4856 
L 1984 4856 
z
" id="DejaVuSans-28" transform="scale(0.015625)"/>
       <path d="M 3272 2816 
L 2363 2816 
L 2100 1772 
L 3016 1772 
L 3272 2816 
z
M 2803 4594 
L 2478 3297 
L 3391 3297 
L 3719 4594 
L 4219 4594 
L 3897 3297 
L 4872 3297 
L 4872 2816 
L 3775 2816 
L 3519 1772 
L 4513 1772 
L 4513 1294 
L 3397 1294 
L 3072 0 
L 2572 0 
L 2894 1294 
L 1978 1294 
L 1656 0 
L 1153 0 
L 1478 1294 
L 494 1294 
L 494 1772 
L 1594 1772 
L 1856 2816 
L 850 2816 
L 850 3297 
L 1978 3297 
L 2297 4594 
L 2803 4594 
z
" id="DejaVuSans-23" transform="scale(0.015625)"/>
       <path id="DejaVuSans-20" transform="scale(0.015625)"/>
       <path d="M 2375 4863 
L 2375 4384 
L 1825 4384 
Q 1516 4384 1395 4259 
Q 1275 4134 1275 3809 
L 1275 3500 
L 2222 3500 
L 2222 3053 
L 1275 3053 
L 1275 0 
L 697 0 
L 697 3053 
L 147 3053 
L 147 3500 
L 697 3500 
L 697 3744 
Q 697 4328 969 4595 
Q 1241 4863 1831 4863 
L 2375 4863 
z
" id="DejaVuSans-66" transform="scale(0.015625)"/>
       <path d="M 313 2009 
L 1997 2009 
L 1997 1497 
L 313 1497 
L 313 2009 
z
" id="DejaVuSans-2d" transform="scale(0.015625)"/>
       <path d="M 3597 1894 
L 3597 1613 
L 953 1613 
Q 991 1019 1311 708 
Q 1631 397 2203 397 
Q 2534 397 2845 478 
Q 3156 559 3463 722 
L 3463 178 
Q 3153 47 2828 -22 
Q 2503 -91 2169 -91 
Q 1331 -91 842 396 
Q 353 884 353 1716 
Q 353 2575 817 3079 
Q 1281 3584 2069 3584 
Q 2775 3584 3186 3129 
Q 3597 2675 3597 1894 
z
M 3022 2063 
Q 3016 2534 2758 2815 
Q 2500 3097 2075 3097 
Q 1594 3097 1305 2825 
Q 1016 2553 972 2059 
L 3022 2063 
z
" id="DejaVuSans-65" transform="scale(0.015625)"/>
       <path d="M 191 3500 
L 800 3500 
L 1894 563 
L 2988 3500 
L 3597 3500 
L 2284 0 
L 1503 0 
L 191 3500 
z
" id="DejaVuSans-76" transform="scale(0.015625)"/>
       <path d="M 2194 1759 
Q 1497 1759 1228 1600 
Q 959 1441 959 1056 
Q 959 750 1161 570 
Q 1363 391 1709 391 
Q 2188 391 2477 730 
Q 2766 1069 2766 1631 
L 2766 1759 
L 2194 1759 
z
M 3341 1997 
L 3341 0 
L 2766 0 
L 2766 531 
Q 2569 213 2275 61 
Q 1981 -91 1556 -91 
Q 1019 -91 701 211 
Q 384 513 384 1019 
Q 384 1609 779 1909 
Q 1175 2209 1959 2209 
L 2766 2209 
L 2766 2266 
Q 2766 2663 2505 2880 
Q 2244 3097 1772 3097 
Q 1472 3097 1187 3025 
Q 903 2953 641 2809 
L 641 3341 
Q 956 3463 1253 3523 
Q 1550 3584 1831 3584 
Q 2591 3584 2966 3190 
Q 3341 2797 3341 1997 
z
" id="DejaVuSans-61" transform="scale(0.015625)"/>
       <path d="M 2834 3397 
L 2834 2853 
Q 2591 2978 2328 3040 
Q 2066 3103 1784 3103 
Q 1356 3103 1142 2972 
Q 928 2841 928 2578 
Q 928 2378 1081 2264 
Q 1234 2150 1697 2047 
L 1894 2003 
Q 2506 1872 2764 1633 
Q 3022 1394 3022 966 
Q 3022 478 2636 193 
Q 2250 -91 1575 -91 
Q 1294 -91 989 -36 
Q 684 19 347 128 
L 347 722 
Q 666 556 975 473 
Q 1284 391 1588 391 
Q 1994 391 2212 530 
Q 2431 669 2431 922 
Q 2431 1156 2273 1281 
Q 2116 1406 1581 1522 
L 1381 1569 
Q 847 1681 609 1914 
Q 372 2147 372 2553 
Q 372 3047 722 3315 
Q 1072 3584 1716 3584 
Q 2034 3584 2315 3537 
Q 2597 3491 2834 3397 
z
" id="DejaVuSans-73" transform="scale(0.015625)"/>
       <path d="M 1625 4666 
L 2156 4666 
L 531 -594 
L 0 -594 
L 1625 4666 
z
" id="DejaVuSans-2f" transform="scale(0.015625)"/>
       <path d="M 2906 2969 
L 2906 4863 
L 3481 4863 
L 3481 0 
L 2906 0 
L 2906 525 
Q 2725 213 2448 61 
Q 2172 -91 1784 -91 
Q 1150 -91 751 415 
Q 353 922 353 1747 
Q 353 2572 751 3078 
Q 1150 3584 1784 3584 
Q 2172 3584 2448 3432 
Q 2725 3281 2906 2969 
z
M 947 1747 
Q 947 1113 1208 752 
Q 1469 391 1925 391 
Q 2381 391 2643 752 
Q 2906 1113 2906 1747 
Q 2906 2381 2643 2742 
Q 2381 3103 1925 3103 
Q 1469 3103 1208 2742 
Q 947 2381 947 1747 
z
" id="DejaVuSans-64" transform="scale(0.015625)"/>
       <path d="M 603 3500 
L 1178 3500 
L 1178 0 
L 603 0 
L 603 3500 
z
M 603 4863 
L 1178 4863 
L 1178 4134 
L 603 4134 
L 603 4863 
z
" id="DejaVuSans-69" transform="scale(0.015625)"/>
       <path d="M 3328 2828 
Q 3544 3216 3844 3400 
Q 4144 3584 4550 3584 
Q 5097 3584 5394 3201 
Q 5691 2819 5691 2113 
L 5691 0 
L 5113 0 
L 5113 2094 
Q 5113 2597 4934 2840 
Q 4756 3084 4391 3084 
Q 3944 3084 3684 2787 
Q 3425 2491 3425 1978 
L 3425 0 
L 2847 0 
L 2847 2094 
Q 2847 2600 2669 2842 
Q 2491 3084 2119 3084 
Q 1678 3084 1418 2786 
Q 1159 2488 1159 1978 
L 1159 0 
L 581 0 
L 581 3500 
L 1159 3500 
L 1159 2956 
Q 1356 3278 1631 3431 
Q 1906 3584 2284 3584 
Q 2666 3584 2933 3390 
Q 3200 3197 3328 2828 
z
" id="DejaVuSans-6d" transform="scale(0.015625)"/>
       <path d="M 3513 2113 
L 3513 0 
L 2938 0 
L 2938 2094 
Q 2938 2591 2744 2837 
Q 2550 3084 2163 3084 
Q 1697 3084 1428 2787 
Q 1159 2491 1159 1978 
L 1159 0 
L 581 0 
L 581 3500 
L 1159 3500 
L 1159 2956 
Q 1366 3272 1645 3428 
Q 1925 3584 2291 3584 
Q 2894 3584 3203 3211 
Q 3513 2838 3513 2113 
z
" id="DejaVuSans-6e" transform="scale(0.015625)"/>
       <path d="M 513 4856 
L 1013 4856 
Q 1481 4119 1714 3412 
Q 1947 2706 1947 2009 
Q 1947 1309 1714 600 
Q 1481 -109 1013 -844 
L 513 -844 
Q 928 -128 1133 580 
Q 1338 1288 1338 2009 
Q 1338 2731 1133 3434 
Q 928 4138 513 4856 
z
" id="DejaVuSans-29" transform="scale(0.015625)"/>
      </defs>
      <use xlink:href="#DejaVuSans-6c"/>
      <use x="27.783203" xlink:href="#DejaVuSans-6f"/>
      <use x="88.964844" xlink:href="#DejaVuSans-67"/>
      <use x="152.441406" xlink:href="#DejaVuSans-31"/>
      <use x="216.064453" xlink:href="#DejaVuSans-30"/>
      <use x="279.6875" xlink:href="#DejaVuSans-28"/>
      <use x="318.701172" xlink:href="#DejaVuSans-23"/>
      <use x="402.490234" xlink:href="#DejaVuSans-20"/>
      <use x="434.277344" xlink:href="#DejaVuSans-66"/>
      <use x="463.982422" xlink:href="#DejaVuSans-2d"/>
      <use x="500.066406" xlink:href="#DejaVuSans-65"/>
      <use x="561.589844" xlink:href="#DejaVuSans-76"/>
      <use x="620.769531" xlink:href="#DejaVuSans-61"/>
      <use x="682.048828" xlink:href="#DejaVuSans-6c"/>
      <use x="709.832031" xlink:href="#DejaVuSans-73"/>
      <use x="761.931641" xlink:href="#DejaVuSans-20"/>
      <use x="793.71875" xlink:href="#DejaVuSans-2f"/>
      <use x="827.410156" xlink:href="#DejaVuSans-20"/>
      <use x="859.197266" xlink:href="#DejaVuSans-64"/>
      <use x="922.673828" xlink:href="#DejaVuSans-69"/>
      <use x="950.457031" xlink:href="#DejaVuSans-6d"/>
      <use x="1047.869141" xlink:href="#DejaVuSans-65"/>
      <use x="1109.392578" xlink:href="#DejaVuSans-6e"/>
      <use x="1172.771484" xlink:href="#DejaVuSans-73"/>
      <use x="1224.871094" xlink:href="#DejaVuSans-69"/>
      <use x="1252.654297" xlink:href="#DejaVuSans-6f"/>
      <use x="1313.835938" xlink:href="#DejaVuSans-6e"/>
      <use x="1377.214844" xlink:href="#DejaVuSans-29"/>
     </g>
    </g>
   </g>
   <g id="matplotlib.axis_2">
    <g id="ytick_1">
     <g id="line2d_21">
      <path clip-path="url(#p5cdb16216a)" d="M 57.6 298.944 
L 360.8064 298.944 
" style="fill:none;stroke:#b0b0b0;stroke-linecap:square;stroke-width:0.8;"/>
     </g>
     <g id="line2d_22">
      <defs>
       <path d="M 0 0 
L -3.5 0 
" id="m6094295225" style="stroke:#000000;stroke-width:0.8;"/>
      </defs>
      <g>
       <use style="stroke:#000000;stroke-width:0.8;" x="57.6" xlink:href="#m6094295225" y="298.944"/>
      </g>
     </g>
     <g id="text_6">
      <!-- 0.0 -->
      <g transform="translate(25.155 305.02275)scale(0.16 -0.16)">
       <defs>
        <path d="M 684 794 
L 1344 794 
L 1344 0 
L 684 0 
L 684 794 
z
" id="DejaVuSans-2e" transform="scale(0.015625)"/>
       </defs>
       <use xlink:href="#DejaVuSans-30"/>
       <use x="63.623047" xlink:href="#DejaVuSans-2e"/>
       <use x="95.410156" xlink:href="#DejaVuSans-30"/>
      </g>
     </g>
    </g>
    <g id="ytick_2">
     <g id="line2d_23">
      <path clip-path="url(#p5cdb16216a)" d="M 57.6 244.6848 
L 360.8064 244.6848 
" style="fill:none;stroke:#b0b0b0;stroke-linecap:square;stroke-width:0.8;"/>
     </g>
     <g id="line2d_24">
      <g>
       <use style="stroke:#000000;stroke-width:0.8;" x="57.6" xlink:href="#m6094295225" y="244.6848"/>
      </g>
     </g>
     <g id="text_7">
      <!-- 0.2 -->
      <g transform="translate(25.155 250.76355)scale(0.16 -0.16)">
       <use xlink:href="#DejaVuSans-30"/>
       <use x="63.623047" xlink:href="#DejaVuSans-2e"/>
       <use x="95.410156" xlink:href="#DejaVuSans-32"/>
      </g>
     </g>
    </g>
    <g id="ytick_3">
     <g id="line2d_25">
      <path clip-path="url(#p5cdb16216a)" d="M 57.6 190.4256 
L 360.8064 190.4256 
" style="fill:none;stroke:#b0b0b0;stroke-linecap:square;stroke-width:0.8;"/>
     </g>
     <g id="line2d_26">
      <g>
       <use style="stroke:#000000;stroke-width:0.8;" x="57.6" xlink:href="#m6094295225" y="190.4256"/>
      </g>
     </g>
     <g id="text_8">
      <!-- 0.4 -->
      <g transform="translate(25.155 196.50435)scale(0.16 -0.16)">
       <use xlink:href="#DejaVuSans-30"/>
       <use x="63.623047" xlink:href="#DejaVuSans-2e"/>
       <use x="95.410156" xlink:href="#DejaVuSans-34"/>
      </g>
     </g>
    </g>
    <g id="ytick_4">
     <g id="line2d_27">
      <path clip-path="url(#p5cdb16216a)" d="M 57.6 136.1664 
L 360.8064 136.1664 
" style="fill:none;stroke:#b0b0b0;stroke-linecap:square;stroke-width:0.8;"/>
     </g>
     <g id="line2d_28">
      <g>
       <use style="stroke:#000000;stroke-width:0.8;" x="57.6" xlink:href="#m6094295225" y="136.1664"/>
      </g>
     </g>
     <g id="text_9">
      <!-- 0.6 -->
      <g transform="translate(25.155 142.24515)scale(0.16 -0.16)">
       <use xlink:href="#DejaVuSans-30"/>
       <use x="63.623047" xlink:href="#DejaVuSans-2e"/>
       <use x="95.410156" xlink:href="#DejaVuSans-36"/>
      </g>
     </g>
    </g>
    <g id="ytick_5">
     <g id="line2d_29">
      <path clip-path="url(#p5cdb16216a)" d="M 57.6 81.9072 
L 360.8064 81.9072 
" style="fill:none;stroke:#b0b0b0;stroke-linecap:square;stroke-width:0.8;"/>
     </g>
     <g id="line2d_30">
      <g>
       <use style="stroke:#000000;stroke-width:0.8;" x="57.6" xlink:href="#m6094295225" y="81.9072"/>
      </g>
     </g>
     <g id="text_10">
      <!-- 0.8 -->
      <g transform="translate(25.155 87.98595)scale(0.16 -0.16)">
       <defs>
        <path d="M 2034 2216 
Q 1584 2216 1326 1975 
Q 1069 1734 1069 1313 
Q 1069 891 1326 650 
Q 1584 409 2034 409 
Q 2484 409 2743 651 
Q 3003 894 3003 1313 
Q 3003 1734 2745 1975 
Q 2488 2216 2034 2216 
z
M 1403 2484 
Q 997 2584 770 2862 
Q 544 3141 544 3541 
Q 544 4100 942 4425 
Q 1341 4750 2034 4750 
Q 2731 4750 3128 4425 
Q 3525 4100 3525 3541 
Q 3525 3141 3298 2862 
Q 3072 2584 2669 2484 
Q 3125 2378 3379 2068 
Q 3634 1759 3634 1313 
Q 3634 634 3220 271 
Q 2806 -91 2034 -91 
Q 1263 -91 848 271 
Q 434 634 434 1313 
Q 434 1759 690 2068 
Q 947 2378 1403 2484 
z
M 1172 3481 
Q 1172 3119 1398 2916 
Q 1625 2713 2034 2713 
Q 2441 2713 2670 2916 
Q 2900 3119 2900 3481 
Q 2900 3844 2670 4047 
Q 2441 4250 2034 4250 
Q 1625 4250 1398 4047 
Q 1172 3844 1172 3481 
z
" id="DejaVuSans-38" transform="scale(0.015625)"/>
       </defs>
       <use xlink:href="#DejaVuSans-30"/>
       <use x="63.623047" xlink:href="#DejaVuSans-2e"/>
       <use x="95.410156" xlink:href="#DejaVuSans-38"/>
      </g>
     </g>
    </g>
    <g id="ytick_6">
     <g id="line2d_31">
      <path clip-path="url(#p5cdb16216a)" d="M 57.6 27.648 
L 360.8064 27.648 
" style="fill:none;stroke:#b0b0b0;stroke-linecap:square;stroke-width:0.8;"/>
     </g>
     <g id="line2d_32">
      <g>
       <use style="stroke:#000000;stroke-width:0.8;" x="57.6" xlink:href="#m6094295225" y="27.648"/>
      </g>
     </g>
     <g id="text_11">
      <!-- 1.0 -->
      <g transform="translate(25.155 33.72675)scale(0.16 -0.16)">
       <use xlink:href="#DejaVuSans-31"/>
       <use x="63.623047" xlink:href="#DejaVuSans-2e"/>
       <use x="95.410156" xlink:href="#DejaVuSans-30"/>
      </g>
     </g>
    </g>
    <g id="text_12">
     <!-- Fraction of function,target pairs -->
     <g transform="translate(17.619531 297.681)rotate(-90)scale(0.17 -0.17)">
      <defs>
       <path d="M 628 4666 
L 3309 4666 
L 3309 4134 
L 1259 4134 
L 1259 2759 
L 3109 2759 
L 3109 2228 
L 1259 2228 
L 1259 0 
L 628 0 
L 628 4666 
z
" id="DejaVuSans-46" transform="scale(0.015625)"/>
       <path d="M 2631 2963 
Q 2534 3019 2420 3045 
Q 2306 3072 2169 3072 
Q 1681 3072 1420 2755 
Q 1159 2438 1159 1844 
L 1159 0 
L 581 0 
L 581 3500 
L 1159 3500 
L 1159 2956 
Q 1341 3275 1631 3429 
Q 1922 3584 2338 3584 
Q 2397 3584 2469 3576 
Q 2541 3569 2628 3553 
L 2631 2963 
z
" id="DejaVuSans-72" transform="scale(0.015625)"/>
       <path d="M 3122 3366 
L 3122 2828 
Q 2878 2963 2633 3030 
Q 2388 3097 2138 3097 
Q 1578 3097 1268 2742 
Q 959 2388 959 1747 
Q 959 1106 1268 751 
Q 1578 397 2138 397 
Q 2388 397 2633 464 
Q 2878 531 3122 666 
L 3122 134 
Q 2881 22 2623 -34 
Q 2366 -91 2075 -91 
Q 1284 -91 818 406 
Q 353 903 353 1747 
Q 353 2603 823 3093 
Q 1294 3584 2113 3584 
Q 2378 3584 2631 3529 
Q 2884 3475 3122 3366 
z
" id="DejaVuSans-63" transform="scale(0.015625)"/>
       <path d="M 1172 4494 
L 1172 3500 
L 2356 3500 
L 2356 3053 
L 1172 3053 
L 1172 1153 
Q 1172 725 1289 603 
Q 1406 481 1766 481 
L 2356 481 
L 2356 0 
L 1766 0 
Q 1100 0 847 248 
Q 594 497 594 1153 
L 594 3053 
L 172 3053 
L 172 3500 
L 594 3500 
L 594 4494 
L 1172 4494 
z
" id="DejaVuSans-74" transform="scale(0.015625)"/>
       <path d="M 544 1381 
L 544 3500 
L 1119 3500 
L 1119 1403 
Q 1119 906 1312 657 
Q 1506 409 1894 409 
Q 2359 409 2629 706 
Q 2900 1003 2900 1516 
L 2900 3500 
L 3475 3500 
L 3475 0 
L 2900 0 
L 2900 538 
Q 2691 219 2414 64 
Q 2138 -91 1772 -91 
Q 1169 -91 856 284 
Q 544 659 544 1381 
z
M 1991 3584 
L 1991 3584 
z
" id="DejaVuSans-75" transform="scale(0.015625)"/>
       <path d="M 750 794 
L 1409 794 
L 1409 256 
L 897 -744 
L 494 -744 
L 750 256 
L 750 794 
z
" id="DejaVuSans-2c" transform="scale(0.015625)"/>
       <path d="M 1159 525 
L 1159 -1331 
L 581 -1331 
L 581 3500 
L 1159 3500 
L 1159 2969 
Q 1341 3281 1617 3432 
Q 1894 3584 2278 3584 
Q 2916 3584 3314 3078 
Q 3713 2572 3713 1747 
Q 3713 922 3314 415 
Q 2916 -91 2278 -91 
Q 1894 -91 1617 61 
Q 1341 213 1159 525 
z
M 3116 1747 
Q 3116 2381 2855 2742 
Q 2594 3103 2138 3103 
Q 1681 3103 1420 2742 
Q 1159 2381 1159 1747 
Q 1159 1113 1420 752 
Q 1681 391 2138 391 
Q 2594 391 2855 752 
Q 3116 1113 3116 1747 
z
" id="DejaVuSans-70" transform="scale(0.015625)"/>
      </defs>
      <use xlink:href="#DejaVuSans-46"/>
      <use x="50.269531" xlink:href="#DejaVuSans-72"/>
      <use x="91.382812" xlink:href="#DejaVuSans-61"/>
      <use x="152.662109" xlink:href="#DejaVuSans-63"/>
      <use x="207.642578" xlink:href="#DejaVuSans-74"/>
      <use x="246.851562" xlink:href="#DejaVuSans-69"/>
      <use x="274.634766" xlink:href="#DejaVuSans-6f"/>
      <use x="335.816406" xlink:href="#DejaVuSans-6e"/>
      <use x="399.195312" xlink:href="#DejaVuSans-20"/>
      <use x="430.982422" xlink:href="#DejaVuSans-6f"/>
      <use x="492.164062" xlink:href="#DejaVuSans-66"/>
      <use x="527.369141" xlink:href="#DejaVuSans-20"/>
      <use x="559.15625" xlink:href="#DejaVuSans-66"/>
      <use x="594.361328" xlink:href="#DejaVuSans-75"/>
      <use x="657.740234" xlink:href="#DejaVuSans-6e"/>
      <use x="721.119141" xlink:href="#DejaVuSans-63"/>
      <use x="776.099609" xlink:href="#DejaVuSans-74"/>
      <use x="815.308594" xlink:href="#DejaVuSans-69"/>
      <use x="843.091797" xlink:href="#DejaVuSans-6f"/>
      <use x="904.273438" xlink:href="#DejaVuSans-6e"/>
      <use x="967.652344" xlink:href="#DejaVuSans-2c"/>
      <use x="999.439453" xlink:href="#DejaVuSans-74"/>
      <use x="1038.648438" xlink:href="#DejaVuSans-61"/>
      <use x="1099.927734" xlink:href="#DejaVuSans-72"/>
      <use x="1139.291016" xlink:href="#DejaVuSans-67"/>
      <use x="1202.767578" xlink:href="#DejaVuSans-65"/>
      <use x="1264.291016" xlink:href="#DejaVuSans-74"/>
      <use x="1303.5" xlink:href="#DejaVuSans-20"/>
      <use x="1335.287109" xlink:href="#DejaVuSans-70"/>
      <use x="1398.763672" xlink:href="#DejaVuSans-61"/>
      <use x="1460.042969" xlink:href="#DejaVuSans-69"/>
      <use x="1487.826172" xlink:href="#DejaVuSans-72"/>
      <use x="1528.939453" xlink:href="#DejaVuSans-73"/>
     </g>
    </g>
   </g>
   <g id="line2d_33">
    <defs>
     <path d="M 0 1.5 
C 0.397805 1.5 0.77937 1.341951 1.06066 1.06066 
C 1.341951 0.77937 1.5 0.397805 1.5 0 
C 1.5 -0.397805 1.341951 -0.77937 1.06066 -1.06066 
C 0.77937 -1.341951 0.397805 -1.5 0 -1.5 
C -0.397805 -1.5 -0.77937 -1.341951 -1.06066 -1.06066 
C -1.341951 -0.77937 -1.5 -0.397805 -1.5 0 
C -1.5 0.397805 -1.341951 0.77937 -1.06066 1.06066 
C -0.77937 1.341951 -0.397805 1.5 0 1.5 
z
" id="m9b461a1b6d" style="stroke:#f5deb3;"/>
    </defs>
    <g>
     <use style="fill:#f5deb3;stroke:#f5deb3;" x="190.048909" xlink:href="#m9b461a1b6d" y="27.648"/>
     <use style="fill:#f5deb3;stroke:#f5deb3;" x="190.048909" xlink:href="#m9b461a1b6d" y="27.648"/>
    </g>
   </g>
   <g id="line2d_34">
    <defs>
     <path d="M 0 1.5 
C 0.397805 1.5 0.77937 1.341951 1.06066 1.06066 
C 1.341951 0.77937 1.5 0.397805 1.5 0 
C 1.5 -0.397805 1.341951 -0.77937 1.06066 -1.06066 
C 0.77937 -1.341951 0.397805 -1.5 0 -1.5 
C -0.397805 -1.5 -0.77937 -1.341951 -1.06066 -1.06066 
C -1.341951 -0.77937 -1.5 -0.397805 -1.5 0 
C -1.5 0.397805 -1.341951 0.77937 -1.06066 1.06066 
C -0.77937 1.341951 -0.397805 1.5 0 1.5 
z
" id="m7306778b39" style="stroke:#000080;"/>
    </defs>
    <g>
     <use style="fill:#000080;stroke:#000080;" x="287.038744" xlink:href="#m7306778b39" y="27.648"/>
     <use style="fill:#000080;stroke:#000080;" x="287.038744" xlink:href="#m7306778b39" y="27.648"/>
    </g>
   </g>
   <g id="line2d_35">
    <path d="M 36.933397 298.944 
L 36.933397 289.014212 
L 49.972572 289.014212 
L 49.972572 282.630776 
L 57.6 282.630776 
L 57.6 280.148329 
L 63.011746 280.148329 
L 63.011746 276.247341 
L 67.209423 276.247341 
L 67.209423 275.892706 
L 70.639174 275.892706 
L 70.639174 275.183435 
L 78.266603 275.183435 
L 78.266603 274.8288 
L 83.678349 274.8288 
L 83.678349 273.410259 
L 85.184077 273.410259 
L 85.184077 273.055624 
L 86.578163 273.055624 
L 86.578163 271.991718 
L 87.876026 271.991718 
L 87.876026 270.573176 
L 92.322865 270.573176 
L 92.322865 269.863906 
L 93.287772 269.863906 
L 93.287772 269.509271 
L 97.485448 269.509271 
L 97.485448 268.8 
L 102.708132 268.8 
L 102.708132 268.445365 
L 108.542628 268.445365 
L 108.542628 268.090729 
L 118.152051 268.090729 
L 118.152051 267.736094 
L 120.058649 267.736094 
L 120.058649 267.381459 
L 122.598891 267.381459 
L 122.598891 267.026824 
L 128.643427 267.026824 
L 128.643427 265.608282 
L 129.209231 265.608282 
L 129.209231 265.253647 
L 130.553485 265.253647 
L 130.553485 264.899012 
L 131.31622 264.899012 
L 131.31622 264.544376 
L 131.563744 264.544376 
L 131.563744 263.125835 
L 136.318661 263.125835 
L 136.318661 261.352659 
L 142.45627 261.352659 
L 142.45627 260.998024 
L 146.64016 260.998024 
L 146.64016 260.643388 
L 146.859539 260.643388 
L 146.859539 260.288753 
L 147.712333 260.288753 
L 147.712333 259.224847 
L 152.635783 259.224847 
L 152.635783 258.870212 
L 155.802997 258.870212 
L 155.802997 258.515576 
L 157.856036 258.515576 
L 157.856036 258.160941 
L 160.356569 258.160941 
L 160.356569 257.806306 
L 165.166781 257.806306 
L 165.166781 257.097035 
L 165.330896 257.097035 
L 165.330896 256.387765 
L 169.944694 256.387765 
L 169.944694 254.259953 
L 170.542436 254.259953 
L 170.542436 253.905318 
L 171.001277 253.905318 
L 171.001277 253.550682 
L 174.767961 253.550682 
L 174.767961 252.841412 
L 176.559769 252.841412 
L 176.559769 252.486776 
L 177.244302 252.486776 
L 177.244302 252.132141 
L 179.412941 252.132141 
L 179.412941 251.777506 
L 180.058732 251.777506 
L 180.058732 251.068235 
L 180.318334 251.068235 
L 180.318334 250.7136 
L 181.63399 250.7136 
L 181.63399 249.649694 
L 181.974326 249.649694 
L 182.024849 248.940424 
L 182.29204 248.940424 
L 182.29204 247.521882 
L 183.055653 247.521882 
L 183.055653 247.167247 
L 184.078188 247.167247 
L 184.078188 246.812612 
L 186.600485 246.812612 
L 186.600485 246.457976 
L 188.180623 246.457976 
L 188.180623 246.103341 
L 190.450788 246.103341 
L 190.450788 245.748706 
L 190.664497 245.748706 
L 190.664497 245.394071 
L 191.967672 245.394071 
L 191.967672 245.039435 
L 192.125628 245.039435 
L 192.2139 244.330165 
L 193.508827 244.330165 
L 193.508827 243.975529 
L 194.504991 243.975529 
L 194.504991 243.620894 
L 195.777715 243.620894 
L 195.777715 243.266259 
L 196.146502 243.266259 
L 196.146502 242.556988 
L 196.288865 242.556988 
L 196.288865 242.202353 
L 197.838483 242.202353 
L 197.838483 241.847718 
L 198.473442 241.847718 
L 198.473442 241.493082 
L 198.807199 241.493082 
L 198.862253 240.783812 
L 199.813583 240.783812 
L 199.813583 239.719906 
L 200.569092 239.719906 
L 200.569092 238.656 
L 200.731557 238.656 
L 200.731557 238.301365 
L 201.942322 238.301365 
L 201.942322 237.946729 
L 202.420412 237.946729 
L 202.528166 237.237459 
L 202.635306 237.237459 
L 202.635306 236.882824 
L 202.797669 236.882824 
L 202.797669 235.818918 
L 204.394727 235.818918 
L 204.394727 235.464282 
L 205.093393 235.464282 
L 205.093393 235.109647 
L 205.909316 235.109647 
L 205.909316 234.755012 
L 206.172058 234.755012 
L 206.172058 234.400376 
L 206.371344 234.400376 
L 206.371344 232.981835 
L 206.591338 232.981835 
L 206.591338 232.6272 
L 206.732062 232.6272 
L 206.831296 231.563294 
L 206.956841 231.563294 
L 206.956841 231.208659 
L 207.297832 231.208659 
L 207.297832 229.790118 
L 208.214293 229.790118 
L 208.214293 229.080847 
L 208.66447 229.080847 
L 208.66447 228.726212 
L 208.919834 228.726212 
L 209.028224 228.016941 
L 209.219388 228.016941 
L 209.322129 226.243765 
L 209.529842 226.243765 
L 209.529842 225.889129 
L 209.869738 225.889129 
L 209.869738 224.825224 
L 210.105575 224.825224 
L 210.105575 224.470588 
L 210.490948 224.470588 
L 210.490948 223.761318 
L 211.085123 223.761318 
L 211.085123 223.052047 
L 212.067335 223.052047 
L 212.067335 222.697412 
L 213.666227 222.697412 
L 213.666227 220.924235 
L 213.970322 220.924235 
L 213.970322 220.5696 
L 214.489441 220.5696 
L 214.489441 220.214965 
L 214.754061 220.214965 
L 214.754061 219.505694 
L 215.064447 219.505694 
L 215.064447 218.087153 
L 216.942331 218.087153 
L 216.942331 217.732518 
L 217.280935 217.732518 
L 217.280935 217.377882 
L 217.717246 217.377882 
L 217.765106 216.668612 
L 217.92044 216.668612 
L 217.92044 216.313976 
L 218.227311 216.313976 
L 218.227311 215.959341 
L 218.44452 215.959341 
L 218.51234 213.831529 
L 218.942583 213.831529 
L 218.942583 213.122259 
L 219.293752 213.122259 
L 219.293752 212.767624 
L 219.729356 212.767624 
L 219.729356 212.412988 
L 219.846837 212.412988 
L 219.873844 211.703718 
L 219.961351 211.703718 
L 219.97254 210.639812 
L 220.471473 210.639812 
L 220.471473 210.285176 
L 220.737556 210.285176 
L 220.737556 209.575906 
L 220.93202 209.575906 
L 220.93202 209.221271 
L 221.661767 209.221271 
L 221.767811 208.157365 
L 221.775944 208.157365 
L 221.775944 207.802729 
L 221.925765 207.802729 
L 221.943905 206.738824 
L 222.090401 206.738824 
L 222.090401 205.674918 
L 222.263514 205.674918 
L 222.263514 204.256376 
L 222.480138 204.256376 
L 222.583627 200.710024 
L 222.925173 200.710024 
L 223.031954 197.518306 
L 223.158919 197.518306 
L 223.158919 197.163671 
L 223.361792 197.163671 
L 223.361792 196.809035 
L 223.783025 196.809035 
L 223.790332 195.390494 
L 224.109041 195.390494 
L 224.109041 194.681224 
L 224.232531 194.681224 
L 224.29664 192.908047 
L 224.515803 192.908047 
L 224.606956 192.198776 
L 224.746333 192.198776 
L 224.800066 191.489506 
L 224.924275 191.489506 
L 224.939743 189.716329 
L 225.086917 189.716329 
L 225.151582 189.007059 
L 225.526648 189.007059 
L 225.526648 187.943153 
L 225.982359 187.943153 
L 225.982359 187.588518 
L 226.227811 187.588518 
L 226.229415 184.751435 
L 226.663907 184.751435 
L 226.72963 184.042165 
L 226.894488 184.042165 
L 226.984085 182.978259 
L 227.014882 182.978259 
L 227.047165 181.914353 
L 227.140625 181.914353 
L 227.140625 181.205082 
L 227.297389 181.205082 
L 227.376038 180.141176 
L 227.451354 180.141176 
L 227.451354 179.786541 
L 227.679964 179.786541 
L 227.783638 177.304094 
L 227.833788 177.304094 
L 227.83968 175.176282 
L 228.059281 175.176282 
L 228.059281 174.467012 
L 228.34385 174.467012 
L 228.34385 174.112376 
L 228.515105 174.112376 
L 228.571846 171.984565 
L 228.914305 171.984565 
L 228.914305 171.629929 
L 229.062537 171.629929 
L 229.084602 170.566024 
L 229.434176 170.566024 
L 229.528642 169.147482 
L 229.760093 169.147482 
L 229.784012 167.019671 
L 229.916344 167.019671 
L 229.965072 165.601129 
L 230.077846 165.601129 
L 230.186048 164.537224 
L 230.276822 164.537224 
L 230.276822 164.182588 
L 230.676171 164.182588 
L 230.74696 160.990871 
L 231.01256 160.990871 
L 231.098202 159.217694 
L 231.177292 159.217694 
L 231.177292 158.153788 
L 231.400402 158.153788 
L 231.400402 157.799153 
L 231.543655 157.799153 
L 231.543655 157.444518 
L 231.666611 157.444518 
L 231.775633 156.025976 
L 231.787574 156.025976 
L 231.869768 155.316706 
L 232.070754 155.316706 
L 232.070754 154.2528 
L 232.683921 154.2528 
L 232.777028 150.706447 
L 232.941671 150.706447 
L 232.941671 150.351812 
L 233.069234 150.351812 
L 233.069234 149.997176 
L 233.213653 149.997176 
L 233.281038 147.160094 
L 233.419468 147.160094 
L 233.419468 146.096188 
L 233.550366 146.096188 
L 233.550366 145.741553 
L 233.735335 145.741553 
L 233.840527 143.613741 
L 233.851228 143.613741 
L 233.948327 142.549835 
L 234.000404 142.549835 
L 234.103072 140.422024 
L 234.291074 140.422024 
L 234.33283 139.712753 
L 234.476181 139.712753 
L 234.54951 133.683953 
L 234.665631 133.683953 
L 234.665631 132.974682 
L 234.789183 132.974682 
L 234.856235 130.846871 
L 234.983583 130.846871 
L 235.031871 129.782965 
L 235.102069 129.782965 
L 235.199908 126.591247 
L 235.319022 126.591247 
L 235.384215 122.690259 
L 235.503152 122.690259 
L 235.559897 119.498541 
L 235.693257 119.498541 
L 235.793867 118.434635 
L 235.932291 118.434635 
L 235.932291 117.725365 
L 236.04687 117.725365 
L 236.106746 115.952188 
L 236.192899 115.952188 
L 236.230644 112.405835 
L 240.098239 112.405835 
L 240.098239 112.0512 
L 241.482043 112.0512 
L 241.482043 111.696565 
L 242.254603 111.696565 
L 242.254603 111.341929 
L 242.460832 111.341929 
L 242.460832 110.278024 
L 242.881196 110.278024 
L 242.881196 109.568753 
L 243.110809 109.568753 
L 243.110809 109.214118 
L 243.430459 109.214118 
L 243.533043 107.440941 
L 243.588588 107.440941 
L 243.658585 104.958494 
L 243.804105 104.958494 
L 243.839366 102.830682 
L 244.093673 102.830682 
L 244.202588 101.766776 
L 244.567404 101.766776 
L 244.567404 101.412141 
L 244.958502 101.412141 
L 244.958502 100.702871 
L 245.240888 100.702871 
L 245.264813 99.638965 
L 245.36021 99.638965 
L 245.419299 98.575059 
L 245.508163 98.575059 
L 245.567364 95.737976 
L 245.83573 95.737976 
L 245.847041 94.674071 
L 246.24591 94.674071 
L 246.351339 92.546259 
L 246.406302 92.546259 
L 246.473688 91.127718 
L 246.519024 91.127718 
L 246.519024 90.773082 
L 246.72628 90.773082 
L 246.733832 89.354541 
L 246.907244 89.354541 
L 246.941415 87.581365 
L 247.038252 87.581365 
L 247.038252 86.872094 
L 247.157283 86.872094 
L 247.244096 86.162824 
L 247.333122 86.162824 
L 247.333122 85.453553 
L 247.608002 85.453553 
L 247.650174 83.680376 
L 247.783268 83.680376 
L 247.880445 81.9072 
L 247.944278 81.9072 
L 247.944278 80.843294 
L 248.090878 80.843294 
L 248.190476 79.070118 
L 248.262717 79.070118 
L 248.371797 77.651576 
L 248.439899 77.651576 
L 248.530319 74.105224 
L 248.602246 74.105224 
L 248.695779 73.395953 
L 248.787882 73.395953 
L 248.877612 71.268141 
L 248.937674 71.268141 
L 248.937674 70.558871 
L 249.147107 70.558871 
L 249.233727 69.140329 
L 249.276652 69.140329 
L 249.295489 66.657882 
L 252.663124 66.657882 
L 252.663124 65.593976 
L 253.368727 65.593976 
L 253.455708 64.884706 
L 253.629595 64.884706 
L 253.629595 64.530071 
L 253.799666 64.530071 
L 253.799666 64.175435 
L 254.155269 64.175435 
L 254.155269 63.466165 
L 254.421303 63.466165 
L 254.53102 61.338353 
L 254.698113 61.338353 
L 254.698113 60.983718 
L 255.021665 60.983718 
L 255.098924 59.919812 
L 255.259013 59.919812 
L 255.259013 59.565176 
L 255.563022 59.565176 
L 255.563022 58.855906 
L 255.834287 58.855906 
L 255.851236 57.792 
L 255.980347 57.792 
L 256.041941 56.018824 
L 256.137391 56.018824 
L 256.202387 54.954918 
L 256.24993 54.954918 
L 256.24993 54.600282 
L 256.383448 54.600282 
L 256.42506 53.536376 
L 256.654042 53.536376 
L 256.693789 51.7632 
L 256.787261 51.7632 
L 256.787261 51.408565 
L 256.931466 51.408565 
L 256.931466 50.699294 
L 259.510265 50.699294 
L 259.510265 50.344659 
L 259.992988 50.344659 
L 259.992988 49.990024 
L 260.305173 49.990024 
L 260.305173 49.635388 
L 260.4839 49.635388 
L 260.576894 47.507576 
L 260.667374 47.507576 
L 260.667374 47.152941 
L 260.798326 47.152941 
L 260.885462 46.089035 
L 260.929386 46.089035 
L 260.93395 45.025129 
L 261.107582 45.025129 
L 261.107582 44.670494 
L 261.333317 44.670494 
L 261.333317 44.315859 
L 261.54337 44.315859 
L 261.638856 42.897318 
L 261.755231 42.897318 
L 261.838538 41.833412 
L 261.93807 41.833412 
L 262.044011 40.060235 
L 262.050225 40.060235 
L 262.133904 38.996329 
L 262.301804 38.996329 
L 262.342075 37.932424 
L 264.239459 37.932424 
L 264.239459 37.577788 
L 264.469657 37.577788 
L 264.469657 36.868518 
L 264.721758 36.868518 
L 264.732534 36.159247 
L 265.897366 36.159247 
L 265.983052 35.449976 
L 266.019268 35.449976 
L 266.019268 35.095341 
L 266.224017 35.095341 
L 266.305372 33.6768 
L 266.405532 33.6768 
L 266.405532 33.322165 
L 268.431328 33.322165 
L 268.443069 32.612894 
L 269.447069 32.612894 
L 269.513067 31.903624 
L 269.641499 31.903624 
L 269.751299 30.839718 
L 271.806352 30.839718 
L 271.806352 30.485082 
L 272.478682 30.485082 
L 272.478682 30.130447 
L 272.649605 30.130447 
L 272.649605 29.775812 
L 274.676504 29.775812 
L 274.676504 29.421176 
L 277.477975 29.421176 
L 277.477975 29.066541 
L 279.50928 29.066541 
L 279.50928 28.711906 
L 281.239017 28.711906 
L 281.239017 28.357271 
L 285.528867 28.357271 
L 285.528867 28.002635 
L 287.038744 28.002635 
L 287.038744 27.648 
L 360.8064 27.648 
L 360.8064 27.648 
" style="fill:none;stroke:#000080;stroke-linecap:square;stroke-width:1.5;"/>
   </g>
   <g id="line2d_36">
    <defs>
     <path d="M 0 6 
C 1.591219 6 3.117479 5.367802 4.242641 4.242641 
C 5.367802 3.117479 6 1.591219 6 0 
C 6 -1.591219 5.367802 -3.117479 4.242641 -4.242641 
C 3.117479 -5.367802 1.591219 -6 0 -6 
C -1.591219 -6 -3.117479 -5.367802 -4.242641 -4.242641 
C -5.367802 -3.117479 -6 -1.591219 -6 0 
C -6 1.591219 -5.367802 3.117479 -4.242641 4.242641 
C -3.117479 5.367802 -1.591219 6 0 6 
z
" id="mf821690490" style="stroke:#000080;stroke-width:1.5;"/>
    </defs>
    <g>
     <use style="fill-opacity:0;stroke:#000080;stroke-width:1.5;" x="171.001277" xlink:href="#mf821690490" y="253.905318"/>
     <use style="fill-opacity:0;stroke:#000080;stroke-width:1.5;" x="223.031954" xlink:href="#mf821690490" y="200.000753"/>
     <use style="fill-opacity:0;stroke:#000080;stroke-width:1.5;" x="265.983052" xlink:href="#mf821690490" y="35.804612"/>
     <use style="fill-opacity:0;stroke:#000080;stroke-width:1.5;" x="287.038744" xlink:href="#mf821690490" y="27.648"/>
     <use style="fill-opacity:0;stroke:#000080;stroke-width:1.5;" x="287.038744" xlink:href="#mf821690490" y="27.648"/>
     <use style="fill-opacity:0;stroke:#000080;stroke-width:1.5;" x="360.8064" xlink:href="#mf821690490" y="27.648"/>
    </g>
   </g>
   <g id="line2d_37">
    <path style="fill:none;stroke:#000080;stroke-linecap:square;stroke-width:1.5;"/>
    <g/>
   </g>
   <g id="line2d_38">
    <path clip-path="url(#p5cdb16216a)" d="M 236.28195 112.405835 
" style="fill:none;stroke:#000080;stroke-linecap:square;stroke-width:1.5;"/>
    <defs>
     <path d="M -12 12 
L 12 -12 
M -12 -12 
L 12 12 
" id="mc4a5a32643" style="stroke:#000080;"/>
    </defs>
    <g clip-path="url(#p5cdb16216a)">
     <use style="fill:#000080;stroke:#000080;" x="236.28195" xlink:href="#mc4a5a32643" y="112.405835"/>
    </g>
   </g>
   <g id="line2d_39">
    <defs>
     <path d="M 0 1.5 
C 0.397805 1.5 0.77937 1.341951 1.06066 1.06066 
C 1.341951 0.77937 1.5 0.397805 1.5 0 
C 1.5 -0.397805 1.341951 -0.77937 1.06066 -1.06066 
C 0.77937 -1.341951 0.397805 -1.5 0 -1.5 
C -0.397805 -1.5 -0.77937 -1.341951 -1.06066 -1.06066 
C -1.341951 -0.77937 -1.5 -0.397805 -1.5 0 
C -1.5 0.397805 -1.341951 0.77937 -1.06066 1.06066 
C -0.77937 1.341951 -0.397805 1.5 0 1.5 
z
" id="mbad16e6fe7" style="stroke:#ff00ff;"/>
    </defs>
    <g>
     <use style="fill:#ff00ff;stroke:#ff00ff;" x="296.839434" xlink:href="#mbad16e6fe7" y="27.648"/>
     <use style="fill:#ff00ff;stroke:#ff00ff;" x="296.839434" xlink:href="#mbad16e6fe7" y="27.648"/>
    </g>
   </g>
   <g id="line2d_40">
    <path d="M 36.933397 298.944 
L 36.933397 289.723482 
L 49.972572 289.723482 
L 49.972572 286.8864 
L 57.6 286.8864 
L 57.6 283.694682 
L 63.011746 283.694682 
L 63.011746 281.566871 
L 67.209423 281.566871 
L 67.209423 280.8576 
L 70.639174 280.8576 
L 70.639174 279.793694 
L 76.050921 279.793694 
L 76.050921 279.084424 
L 80.248597 279.084424 
L 80.248597 278.729788 
L 82.04153 278.729788 
L 82.04153 278.375153 
L 87.876026 278.375153 
L 87.876026 278.020518 
L 89.090095 278.020518 
L 89.090095 276.601976 
L 90.230539 276.601976 
L 90.230539 275.892706 
L 92.322865 275.892706 
L 92.322865 275.183435 
L 95.080704 275.183435 
L 95.080704 273.764894 
L 98.933205 273.764894 
L 98.933205 272.346353 
L 99.617337 272.346353 
L 99.617337 271.637082 
L 102.12927 271.637082 
L 102.12927 269.509271 
L 103.269713 269.509271 
L 103.269713 268.8 
L 103.815014 268.8 
L 103.815014 268.445365 
L 104.344952 268.445365 
L 104.344952 267.736094 
L 104.860369 267.736094 
L 104.860369 266.672188 
L 105.850679 266.672188 
L 105.850679 266.317553 
L 106.326946 266.317553 
L 106.326946 265.608282 
L 108.119879 265.608282 
L 108.119879 264.899012 
L 111.620752 264.899012 
L 111.620752 263.125835 
L 112.656511 263.125835 
L 112.656511 262.061929 
L 115.168444 262.061929 
L 115.168444 261.707294 
L 118.401214 261.707294 
L 118.401214 260.998024 
L 120.944062 260.998024 
L 120.944062 260.643388 
L 121.581803 260.643388 
L 121.581803 260.288753 
L 121.789667 260.288753 
L 121.789667 259.934118 
L 124.659926 259.934118 
L 124.659926 259.579482 
L 129.209231 259.579482 
L 129.209231 259.224847 
L 129.485876 259.224847 
L 129.485876 258.515576 
L 129.622688 258.515576 
L 129.622688 257.806306 
L 130.4233 257.806306 
L 130.4233 257.451671 
L 130.553485 257.451671 
L 130.553485 257.097035 
L 130.938718 257.097035 
L 130.938718 256.7424 
L 132.405295 256.7424 
L 132.405295 254.614588 
L 132.522502 254.614588 
L 132.522502 252.486776 
L 132.984158 252.486776 
L 132.984158 252.132141 
L 134.198228 252.132141 
L 134.198228 251.777506 
L 134.828842 251.777506 
L 134.931919 250.7136 
L 135.438999 250.7136 
L 135.438999 249.295059 
L 136.602972 249.295059 
L 136.602972 248.940424 
L 137.610157 248.940424 
L 137.610157 248.585788 
L 137.875736 248.585788 
L 137.875736 248.231153 
L 138.310202 248.231153 
L 138.310202 247.876518 
L 139.394983 247.876518 
L 139.394983 247.521882 
L 139.556456 247.521882 
L 139.556456 246.812612 
L 140.032723 246.812612 
L 140.032723 245.039435 
L 140.188837 245.039435 
L 140.188837 244.6848 
L 140.420604 244.6848 
L 140.420604 244.330165 
L 140.573544 244.330165 
L 140.573544 243.620894 
L 140.950542 243.620894 
L 140.950542 242.911624 
L 141.099251 242.911624 
L 141.099251 242.202353 
L 141.682602 242.202353 
L 141.682602 241.847718 
L 142.248405 241.847718 
L 142.248405 241.138447 
L 142.387236 241.138447 
L 142.387236 240.783812 
L 142.797687 240.783812 
L 142.797687 239.719906 
L 143.066428 239.719906 
L 143.066428 239.010635 
L 143.265494 239.010635 
L 143.265494 237.946729 
L 144.16759 237.946729 
L 144.16759 235.818918 
L 144.664294 235.818918 
L 144.664294 235.464282 
L 144.786447 235.464282 
L 144.786447 234.755012 
L 145.561676 234.755012 
L 145.561676 234.400376 
L 145.678157 234.400376 
L 145.678157 232.272565 
L 145.908976 232.272565 
L 145.908976 231.208659 
L 146.47393 231.208659 
L 146.47393 230.854024 
L 147.130214 230.854024 
L 147.130214 230.144753 
L 147.397049 230.144753 
L 147.397049 228.726212 
L 147.555352 228.726212 
L 147.660152 226.5984 
L 147.764371 226.5984 
L 147.764371 226.243765 
L 148.726679 226.243765 
L 148.726679 225.534494 
L 148.923146 225.534494 
L 148.923146 224.470588 
L 149.262102 224.470588 
L 149.262102 223.761318 
L 149.642146 223.761318 
L 149.642146 223.406682 
L 150.198193 223.406682 
L 150.198193 222.342776 
L 150.78259 222.342776 
L 150.78259 221.988141 
L 151.046307 221.988141 
L 151.046307 220.5696 
L 151.263283 220.5696 
L 151.349377 218.087153 
L 151.562904 218.087153 
L 151.562904 217.732518 
L 152.065693 217.732518 
L 152.065693 217.377882 
L 152.230346 217.377882 
L 152.230346 217.023247 
L 152.874916 217.023247 
L 152.874916 216.313976 
L 153.111048 216.313976 
L 153.189104 214.5408 
L 153.305585 214.5408 
L 153.38284 212.058353 
L 153.421349 212.058353 
L 153.421349 211.703718 
L 153.612719 211.703718 
L 153.612719 210.639812 
L 154.468783 210.639812 
L 154.468783 210.285176 
L 154.649839 210.285176 
L 154.649839 209.221271 
L 154.86483 209.221271 
L 154.86483 208.866635 
L 155.252711 208.866635 
L 155.252711 208.512 
L 155.426411 208.512 
L 155.529866 207.093459 
L 155.701037 207.093459 
L 155.769072 205.674918 
L 160.169388 205.674918 
L 160.169388 204.965647 
L 164.345553 204.965647 
L 164.345553 204.611012 
L 164.750119 204.611012 
L 164.750119 204.256376 
L 167.269949 204.256376 
L 167.269949 203.901741 
L 173.6337 203.901741 
L 173.6337 203.547106 
L 173.816719 203.547106 
L 173.816719 203.192471 
L 174.581522 203.192471 
L 174.581522 202.4832 
L 181.693995 202.4832 
L 181.693995 202.128565 
L 182.183951 202.128565 
L 182.183951 201.773929 
L 182.547311 201.773929 
L 182.547311 201.419294 
L 185.047994 201.419294 
L 185.155102 200.355388 
L 185.28283 200.355388 
L 185.28283 199.291482 
L 185.437775 199.291482 
L 185.437775 198.936847 
L 185.750786 198.936847 
L 185.840251 196.099765 
L 185.867693 196.099765 
L 185.901939 193.971953 
L 185.997499 193.971953 
L 186.0858 191.844141 
L 186.153443 191.844141 
L 186.220844 190.4256 
L 186.281299 190.4256 
L 186.281299 187.943153 
L 186.414952 187.943153 
L 186.414952 187.588518 
L 186.777675 187.588518 
L 186.849388 185.815341 
L 186.953212 185.815341 
L 186.953212 185.460706 
L 187.159156 185.460706 
L 187.210292 182.623624 
L 187.318496 182.623624 
L 187.413456 178.368 
L 187.48279 178.368 
L 187.539328 176.594824 
L 187.645662 176.594824 
L 187.745194 173.757741 
L 187.757599 173.757741 
L 187.80095 172.693835 
L 187.997867 172.693835 
L 188.107734 171.275294 
L 188.247192 171.275294 
L 188.319544 169.147482 
L 188.433535 169.147482 
L 188.439516 167.374306 
L 189.166736 167.374306 
L 189.166736 167.019671 
L 191.100346 167.019671 
L 191.100346 165.955765 
L 191.260577 165.955765 
L 191.260577 164.537224 
L 193.830322 164.537224 
L 193.897546 163.827953 
L 194.026836 163.827953 
L 194.026836 162.054776 
L 194.243292 162.054776 
L 194.243292 161.345506 
L 194.383318 161.345506 
L 194.448598 158.508424 
L 194.556897 158.508424 
L 194.556897 158.153788 
L 194.711761 158.153788 
L 194.767372 156.025976 
L 194.85686 156.025976 
L 194.933226 153.543529 
L 194.975519 153.543529 
L 194.975519 153.188894 
L 195.106023 153.188894 
L 195.106023 152.479624 
L 195.231462 152.479624 
L 195.231462 152.124988 
L 198.434818 152.124988 
L 198.434818 151.770353 
L 202.032531 151.770353 
L 202.032531 151.415718 
L 211.295649 151.415718 
L 211.295649 151.061082 
L 212.263838 151.061082 
L 212.263838 150.706447 
L 213.41746 150.706447 
L 213.41746 150.351812 
L 214.820375 150.351812 
L 214.917213 149.287906 
L 216.069533 149.287906 
L 216.069533 148.578635 
L 220.149562 148.578635 
L 220.149562 147.514729 
L 220.35236 147.514729 
L 220.35236 146.805459 
L 222.290235 146.805459 
L 222.290235 146.450824 
L 225.157526 146.450824 
L 225.265902 141.485929 
L 225.281936 141.485929 
L 225.3661 137.584941 
L 225.403014 137.584941 
L 225.474954 133.683953 
L 232.679936 133.683953 
L 232.679936 133.329318 
L 233.524259 133.329318 
L 233.524259 132.265412 
L 235.981072 132.265412 
L 235.981072 131.910776 
L 243.068584 131.910776 
L 243.068584 130.846871 
L 247.092306 130.846871 
L 247.092306 129.782965 
L 251.66651 129.782965 
L 251.735681 128.009788 
L 253.53966 128.009788 
L 253.625295 109.568753 
L 254.007276 109.568753 
L 254.103759 96.801882 
L 254.284244 96.801882 
L 254.345522 90.063812 
L 255.790513 90.063812 
L 255.790513 89.709176 
L 256.459987 89.709176 
L 256.459987 89.354541 
L 257.273822 89.354541 
L 257.329333 83.680376 
L 262.050702 83.680376 
L 262.051061 82.971106 
L 265.682611 82.971106 
L 265.682611 82.616471 
L 266.564837 82.616471 
L 266.606704 70.913506 
L 266.803334 70.913506 
L 266.847822 63.8208 
L 266.942656 63.8208 
L 266.965853 59.565176 
L 268.53131 59.565176 
L 268.554574 57.082729 
L 274.195742 57.082729 
L 274.217715 51.408565 
L 274.350201 51.408565 
L 274.457128 45.379765 
L 275.523393 45.379765 
L 275.537922 43.251953 
L 279.146754 43.251953 
L 279.146754 42.897318 
L 279.602555 42.897318 
L 279.712709 40.769506 
L 279.716213 40.769506 
L 279.803821 36.868518 
L 280.611997 36.868518 
L 280.615604 36.159247 
L 283.800353 36.159247 
L 283.899787 34.031435 
L 283.946175 34.031435 
L 283.956542 33.322165 
L 284.605959 33.322165 
L 284.616257 32.612894 
L 287.227899 32.612894 
L 287.234227 31.548988 
L 287.351938 31.548988 
L 287.3595 30.485082 
L 287.901899 30.485082 
L 287.901899 30.130447 
L 290.128662 30.130447 
L 290.234331 29.066541 
L 292.639614 29.066541 
L 292.699862 28.002635 
L 296.839434 28.002635 
L 296.839434 27.648 
L 360.8064 27.648 
L 360.8064 27.648 
" style="fill:none;stroke:#ff00ff;stroke-linecap:square;stroke-width:1.5;"/>
   </g>
   <g id="line2d_41">
    <defs>
     <path d="M -0 8.485281 
L 5.091169 0 
L 0 -8.485281 
L -5.091169 -0 
z
" id="mec3718f191" style="stroke:#ff00ff;stroke-linejoin:miter;stroke-width:1.5;"/>
    </defs>
    <g>
     <use style="fill-opacity:0;stroke:#ff00ff;stroke-linejoin:miter;stroke-width:1.5;" x="153.612719" xlink:href="#mec3718f191" y="210.639812"/>
     <use style="fill-opacity:0;stroke:#ff00ff;stroke-linejoin:miter;stroke-width:1.5;" x="225.329114" xlink:href="#mec3718f191" y="139.712753"/>
     <use style="fill-opacity:0;stroke:#ff00ff;stroke-linejoin:miter;stroke-width:1.5;" x="274.195742" xlink:href="#mec3718f191" y="57.082729"/>
     <use style="fill-opacity:0;stroke:#ff00ff;stroke-linejoin:miter;stroke-width:1.5;" x="296.839434" xlink:href="#mec3718f191" y="27.648"/>
     <use style="fill-opacity:0;stroke:#ff00ff;stroke-linejoin:miter;stroke-width:1.5;" x="296.839434" xlink:href="#mec3718f191" y="27.648"/>
     <use style="fill-opacity:0;stroke:#ff00ff;stroke-linejoin:miter;stroke-width:1.5;" x="360.8064" xlink:href="#mec3718f191" y="27.648"/>
    </g>
   </g>
   <g id="line2d_42">
    <path style="fill:none;stroke:#ff00ff;stroke-linecap:square;stroke-width:1.5;"/>
    <g/>
   </g>
   <g id="line2d_43">
    <path clip-path="url(#p5cdb16216a)" d="M 253.510526 128.009788 
" style="fill:none;stroke:#ff00ff;stroke-linecap:square;stroke-width:1.5;"/>
    <defs>
     <path d="M -12 12 
L 12 -12 
M -12 -12 
L 12 12 
" id="m0e6c6e972a" style="stroke:#ff00ff;"/>
    </defs>
    <g clip-path="url(#p5cdb16216a)">
     <use style="fill:#ff00ff;stroke:#ff00ff;" x="253.510526" xlink:href="#m0e6c6e972a" y="128.009788"/>
    </g>
   </g>
   <g id="line2d_44">
    <path d="M 360.8064 27.648 
L 380.514816 293.51808 
" style="fill:none;stroke:#ff00ff;stroke-linecap:square;stroke-width:1.5;"/>
    <g>
     <use style="fill-opacity:0;stroke:#ff00ff;stroke-linejoin:miter;stroke-width:1.5;" x="360.8064" xlink:href="#mec3718f191" y="27.648"/>
     <use style="fill-opacity:0;stroke:#ff00ff;stroke-linejoin:miter;stroke-width:1.5;" x="380.514816" xlink:href="#mec3718f191" y="293.51808"/>
    </g>
   </g>
   <g id="line2d_45">
    <path d="M 360.8064 27.648 
L 380.514816 163.296 
" style="fill:none;stroke:#000080;stroke-linecap:square;stroke-width:1.5;"/>
    <g>
     <use style="fill-opacity:0;stroke:#000080;stroke-width:1.5;" x="360.8064" xlink:href="#mf821690490" y="27.648"/>
     <use style="fill-opacity:0;stroke:#000080;stroke-width:1.5;" x="380.514816" xlink:href="#mf821690490" y="163.296"/>
    </g>
   </g>
   <g id="line2d_46">
    <path d="M 360.8064 298.944 
L 360.8064 27.648 
" style="fill:none;stroke:#000000;stroke-linecap:square;stroke-width:1.5;"/>
   </g>
   <g id="patch_3">
    <path d="M 57.6 298.944 
L 360.8064 298.944 
" style="fill:none;stroke:#000000;stroke-linecap:square;stroke-linejoin:miter;stroke-width:0.8;"/>
   </g>
   <g id="patch_4">
    <path d="M 57.6 27.648 
L 360.8064 27.648 
" style="fill:none;stroke:#000000;stroke-linecap:square;stroke-linejoin:miter;stroke-width:0.8;"/>
   </g>
   <g id="text_13">
    <!-- cma.fmin  -->
    <g transform="translate(386.578944 297.381205)scale(0.14 -0.14)">
     <use xlink:href="#DejaVuSans-63"/>
     <use x="54.980469" xlink:href="#DejaVuSans-6d"/>
     <use x="152.392578" xlink:href="#DejaVuSans-61"/>
     <use x="213.671875" xlink:href="#DejaVuSans-2e"/>
     <use x="245.458984" xlink:href="#DejaVuSans-66"/>
     <use x="280.664062" xlink:href="#DejaVuSans-6d"/>
     <use x="378.076172" xlink:href="#DejaVuSans-69"/>
     <use x="405.859375" xlink:href="#DejaVuSans-6e"/>
     <use x="469.238281" xlink:href="#DejaVuSans-20"/>
    </g>
   </g>
   <g id="text_14">
    <!-- different -->
    <g transform="translate(386.578944 167.159125)scale(0.14 -0.14)">
     <use xlink:href="#DejaVuSans-64"/>
     <use x="63.476562" xlink:href="#DejaVuSans-69"/>
     <use x="91.259766" xlink:href="#DejaVuSans-66"/>
     <use x="126.464844" xlink:href="#DejaVuSans-66"/>
     <use x="161.669922" xlink:href="#DejaVuSans-65"/>
     <use x="223.193359" xlink:href="#DejaVuSans-72"/>
     <use x="262.056641" xlink:href="#DejaVuSans-65"/>
     <use x="323.580078" xlink:href="#DejaVuSans-6e"/>
     <use x="386.958984" xlink:href="#DejaVuSans-74"/>
    </g>
   </g>
   <g id="text_15">
    <!-- best 2009 -->
    <g transform="translate(386.578944 36.937045)scale(0.14 -0.14)">
     <defs>
      <path d="M 3116 1747 
Q 3116 2381 2855 2742 
Q 2594 3103 2138 3103 
Q 1681 3103 1420 2742 
Q 1159 2381 1159 1747 
Q 1159 1113 1420 752 
Q 1681 391 2138 391 
Q 2594 391 2855 752 
Q 3116 1113 3116 1747 
z
M 1159 2969 
Q 1341 3281 1617 3432 
Q 1894 3584 2278 3584 
Q 2916 3584 3314 3078 
Q 3713 2572 3713 1747 
Q 3713 922 3314 415 
Q 2916 -91 2278 -91 
Q 1894 -91 1617 61 
Q 1341 213 1159 525 
L 1159 0 
L 581 0 
L 581 4863 
L 1159 4863 
L 1159 2969 
z
" id="DejaVuSans-62" transform="scale(0.015625)"/>
      <path d="M 703 97 
L 703 672 
Q 941 559 1184 500 
Q 1428 441 1663 441 
Q 2288 441 2617 861 
Q 2947 1281 2994 2138 
Q 2813 1869 2534 1725 
Q 2256 1581 1919 1581 
Q 1219 1581 811 2004 
Q 403 2428 403 3163 
Q 403 3881 828 4315 
Q 1253 4750 1959 4750 
Q 2769 4750 3195 4129 
Q 3622 3509 3622 2328 
Q 3622 1225 3098 567 
Q 2575 -91 1691 -91 
Q 1453 -91 1209 -44 
Q 966 3 703 97 
z
M 1959 2075 
Q 2384 2075 2632 2365 
Q 2881 2656 2881 3163 
Q 2881 3666 2632 3958 
Q 2384 4250 1959 4250 
Q 1534 4250 1286 3958 
Q 1038 3666 1038 3163 
Q 1038 2656 1286 2365 
Q 1534 2075 1959 2075 
z
" id="DejaVuSans-39" transform="scale(0.015625)"/>
     </defs>
     <use xlink:href="#DejaVuSans-62"/>
     <use x="63.476562" xlink:href="#DejaVuSans-65"/>
     <use x="125" xlink:href="#DejaVuSans-73"/>
     <use x="177.099609" xlink:href="#DejaVuSans-74"/>
     <use x="216.308594" xlink:href="#DejaVuSans-20"/>
     <use x="248.095703" xlink:href="#DejaVuSans-32"/>
     <use x="311.71875" xlink:href="#DejaVuSans-30"/>
     <use x="375.341797" xlink:href="#DejaVuSans-30"/>
     <use x="438.964844" xlink:href="#DejaVuSans-39"/>
    </g>
   </g>
   <g id="text_16">
    <!-- bbob f16, 3-D -->
    <g transform="translate(60.632064 38.111366)scale(0.102 -0.102)">
     <defs>
      <path d="M 2597 2516 
Q 3050 2419 3304 2112 
Q 3559 1806 3559 1356 
Q 3559 666 3084 287 
Q 2609 -91 1734 -91 
Q 1441 -91 1130 -33 
Q 819 25 488 141 
L 488 750 
Q 750 597 1062 519 
Q 1375 441 1716 441 
Q 2309 441 2620 675 
Q 2931 909 2931 1356 
Q 2931 1769 2642 2001 
Q 2353 2234 1838 2234 
L 1294 2234 
L 1294 2753 
L 1863 2753 
Q 2328 2753 2575 2939 
Q 2822 3125 2822 3475 
Q 2822 3834 2567 4026 
Q 2313 4219 1838 4219 
Q 1578 4219 1281 4162 
Q 984 4106 628 3988 
L 628 4550 
Q 988 4650 1302 4700 
Q 1616 4750 1894 4750 
Q 2613 4750 3031 4423 
Q 3450 4097 3450 3541 
Q 3450 3153 3228 2886 
Q 3006 2619 2597 2516 
z
" id="DejaVuSans-33" transform="scale(0.015625)"/>
      <path d="M 1259 4147 
L 1259 519 
L 2022 519 
Q 2988 519 3436 956 
Q 3884 1394 3884 2338 
Q 3884 3275 3436 3711 
Q 2988 4147 2022 4147 
L 1259 4147 
z
M 628 4666 
L 1925 4666 
Q 3281 4666 3915 4102 
Q 4550 3538 4550 2338 
Q 4550 1131 3912 565 
Q 3275 0 1925 0 
L 628 0 
L 628 4666 
z
" id="DejaVuSans-44" transform="scale(0.015625)"/>
     </defs>
     <use xlink:href="#DejaVuSans-62"/>
     <use x="63.476562" xlink:href="#DejaVuSans-62"/>
     <use x="126.953125" xlink:href="#DejaVuSans-6f"/>
     <use x="188.134766" xlink:href="#DejaVuSans-62"/>
     <use x="251.611328" xlink:href="#DejaVuSans-20"/>
     <use x="283.398438" xlink:href="#DejaVuSans-66"/>
     <use x="318.603516" xlink:href="#DejaVuSans-31"/>
     <use x="382.226562" xlink:href="#DejaVuSans-36"/>
     <use x="445.849609" xlink:href="#DejaVuSans-2c"/>
     <use x="477.636719" xlink:href="#DejaVuSans-20"/>
     <use x="509.423828" xlink:href="#DejaVuSans-33"/>
     <use x="573.046875" xlink:href="#DejaVuSans-2d"/>
     <use x="609.130859" xlink:href="#DejaVuSans-44"/>
    </g>
    <!-- 51 targets: 100..1e-08 -->
    <g transform="translate(60.632064 49.533135)scale(0.102 -0.102)">
     <defs>
      <path d="M 691 4666 
L 3169 4666 
L 3169 4134 
L 1269 4134 
L 1269 2991 
Q 1406 3038 1543 3061 
Q 1681 3084 1819 3084 
Q 2600 3084 3056 2656 
Q 3513 2228 3513 1497 
Q 3513 744 3044 326 
Q 2575 -91 1722 -91 
Q 1428 -91 1123 -41 
Q 819 9 494 109 
L 494 744 
Q 775 591 1075 516 
Q 1375 441 1709 441 
Q 2250 441 2565 725 
Q 2881 1009 2881 1497 
Q 2881 1984 2565 2268 
Q 2250 2553 1709 2553 
Q 1456 2553 1204 2497 
Q 953 2441 691 2322 
L 691 4666 
z
" id="DejaVuSans-35" transform="scale(0.015625)"/>
      <path d="M 750 794 
L 1409 794 
L 1409 0 
L 750 0 
L 750 794 
z
M 750 3309 
L 1409 3309 
L 1409 2516 
L 750 2516 
L 750 3309 
z
" id="DejaVuSans-3a" transform="scale(0.015625)"/>
     </defs>
     <use xlink:href="#DejaVuSans-35"/>
     <use x="63.623047" xlink:href="#DejaVuSans-31"/>
     <use x="127.246094" xlink:href="#DejaVuSans-20"/>
     <use x="159.033203" xlink:href="#DejaVuSans-74"/>
     <use x="198.242188" xlink:href="#DejaVuSans-61"/>
     <use x="259.521484" xlink:href="#DejaVuSans-72"/>
     <use x="298.884766" xlink:href="#DejaVuSans-67"/>
     <use x="362.361328" xlink:href="#DejaVuSans-65"/>
     <use x="423.884766" xlink:href="#DejaVuSans-74"/>
     <use x="463.09375" xlink:href="#DejaVuSans-73"/>
     <use x="515.193359" xlink:href="#DejaVuSans-3a"/>
     <use x="548.884766" xlink:href="#DejaVuSans-20"/>
     <use x="580.671875" xlink:href="#DejaVuSans-31"/>
     <use x="644.294922" xlink:href="#DejaVuSans-30"/>
     <use x="707.917969" xlink:href="#DejaVuSans-30"/>
     <use x="771.541016" xlink:href="#DejaVuSans-2e"/>
     <use x="803.328125" xlink:href="#DejaVuSans-2e"/>
     <use x="835.115234" xlink:href="#DejaVuSans-31"/>
     <use x="898.738281" xlink:href="#DejaVuSans-65"/>
     <use x="960.261719" xlink:href="#DejaVuSans-2d"/>
     <use x="996.345703" xlink:href="#DejaVuSans-30"/>
     <use x="1059.96875" xlink:href="#DejaVuSans-38"/>
    </g>
    <!-- 15 instances -->
    <g transform="translate(60.632064 60.954904)scale(0.102 -0.102)">
     <use xlink:href="#DejaVuSans-31"/>
     <use x="63.623047" xlink:href="#DejaVuSans-35"/>
     <use x="127.246094" xlink:href="#DejaVuSans-20"/>
     <use x="159.033203" xlink:href="#DejaVuSans-69"/>
     <use x="186.816406" xlink:href="#DejaVuSans-6e"/>
     <use x="250.195312" xlink:href="#DejaVuSans-73"/>
     <use x="302.294922" xlink:href="#DejaVuSans-74"/>
     <use x="341.503906" xlink:href="#DejaVuSans-61"/>
     <use x="402.783203" xlink:href="#DejaVuSans-6e"/>
     <use x="466.162109" xlink:href="#DejaVuSans-63"/>
     <use x="521.142578" xlink:href="#DejaVuSans-65"/>
     <use x="582.666016" xlink:href="#DejaVuSans-73"/>
    </g>
   </g>
   <g id="text_17">
    <!-- v2.6 -->
    <g style="fill:#808080;" transform="translate(198.292262 294.151352)scale(0.1 -0.1)">
     <use xlink:href="#DejaVuSans-76"/>
     <use x="59.179688" xlink:href="#DejaVuSans-32"/>
     <use x="122.802734" xlink:href="#DejaVuSans-2e"/>
     <use x="154.589844" xlink:href="#DejaVuSans-36"/>
    </g>
   </g>
   <g id="text_18">
    <!-- 16 Weierstrass -->
    <g transform="translate(135.017262 21.648)scale(0.2 -0.2)">
     <defs>
      <path d="M 213 4666 
L 850 4666 
L 1831 722 
L 2809 4666 
L 3519 4666 
L 4500 722 
L 5478 4666 
L 6119 4666 
L 4947 0 
L 4153 0 
L 3169 4050 
L 2175 0 
L 1381 0 
L 213 4666 
z
" id="DejaVuSans-57" transform="scale(0.015625)"/>
     </defs>
     <use xlink:href="#DejaVuSans-31"/>
     <use x="63.623047" xlink:href="#DejaVuSans-36"/>
     <use x="127.246094" xlink:href="#DejaVuSans-20"/>
     <use x="159.033203" xlink:href="#DejaVuSans-57"/>
     <use x="252.035156" xlink:href="#DejaVuSans-65"/>
     <use x="313.558594" xlink:href="#DejaVuSans-69"/>
     <use x="341.341797" xlink:href="#DejaVuSans-65"/>
     <use x="402.865234" xlink:href="#DejaVuSans-72"/>
     <use x="443.978516" xlink:href="#DejaVuSans-73"/>
     <use x="496.078125" xlink:href="#DejaVuSans-74"/>
     <use x="535.287109" xlink:href="#DejaVuSans-72"/>
     <use x="576.400391" xlink:href="#DejaVuSans-61"/>
     <use x="637.679688" xlink:href="#DejaVuSans-73"/>
     <use x="689.779297" xlink:href="#DejaVuSans-73"/>
    </g>
   </g>
  </g>
 </g>
 <defs>
  <clipPath id="p5cdb16216a">
   <rect height="271.296" width="303.2064" x="57.6" y="27.648"/>
  </clipPath>
 </defs>
</svg>
