<?xml version="1.0" encoding="utf-8" standalone="no"?>
<!DOCTYPE svg PUBLIC "-//W3C//DTD SVG 1.1//EN"
  "http://www.w3.org/Graphics/SVG/1.1/DTD/svg11.dtd">
<svg height="345.6pt" version="1.1" viewBox="0 0 460.8 345.6" width="460.8pt" xmlns="http://www.w3.org/2000/svg" xmlns:xlink="http://www.w3.org/1999/xlink">
 <metadata>
  <rdf:RDF xmlns:cc="http://creativecommons.org/ns#" xmlns:dc="http://purl.org/dc/elements/1.1/" xmlns:rdf="http://www.w3.org/1999/02/22-rdf-syntax-ns#">
   <cc:Work>
    <dc:type rdf:resource="http://purl.org/dc/dcmitype/StillImage"/>
    <dc:date>2022-05-07T15:07:25.666421</dc:date>
    <dc:format>image/svg+xml</dc:format>
    <dc:creator>
     <cc:Agent>
      <dc:title>Matplotlib v3.4.3, https://matplotlib.org/</dc:title>
     </cc:Agent>
    </dc:creator>
   </cc:Work>
  </rdf:RDF>
 </metadata>
 <defs>
  <style type="text/css">*{stroke-linecap:butt;stroke-linejoin:round;}</style>
 </defs>
 <g id="figure_1">
  <g id="patch_1">
   <path d="M 0 345.6 
L 460.8 345.6 
L 460.8 0 
L 0 0 
z
" style="fill:#ffffff;"/>
  </g>
  <g id="axes_1">
   <g id="patch_2">
    <path d="M 57.6 298.944 
L 360.8064 298.944 
L 360.8064 27.648 
L 57.6 27.648 
z
" style="fill:#ffffff;"/>
   </g>
   <g id="line2d_1">
    <path d="M 93.934916 298.944 
L 93.934916 293.624471 
L 108.162584 293.624471 
L 108.162584 288.304941 
L 126.420564 288.304941 
L 126.420564 282.985412 
L 146.512849 282.985412 
L 146.512849 277.665882 
L 150.919305 277.665882 
L 150.919305 272.346353 
L 154.639024 272.346353 
L 154.639024 267.026824 
L 156.462418 267.026824 
L 156.462418 261.707294 
L 161.527352 261.707294 
L 161.527352 256.387765 
L 168.263944 256.387765 
L 168.263944 251.068235 
L 168.269186 251.068235 
L 168.269186 245.748706 
L 168.326754 245.748706 
L 168.326754 240.429176 
L 168.352863 240.429176 
L 168.352863 235.109647 
L 168.363297 235.109647 
L 168.363297 229.790118 
L 168.368511 229.790118 
L 168.368511 224.470588 
L 168.373724 224.470588 
L 168.373724 213.831529 
L 168.384146 213.831529 
L 168.384146 208.512 
L 168.508761 208.512 
L 168.508761 203.192471 
L 168.513935 203.192471 
L 168.513935 187.233882 
L 168.519108 187.233882 
L 168.519108 171.275294 
L 168.534619 171.275294 
L 168.534619 165.955765 
L 168.544952 165.955765 
L 168.544952 149.997176 
L 168.550116 149.997176 
L 168.550116 134.038588 
L 168.555279 134.038588 
L 168.555279 123.399529 
L 168.565601 123.399529 
L 168.565601 107.440941 
L 168.57076 107.440941 
L 168.57076 86.162824 
L 168.581073 86.162824 
L 168.581073 80.843294 
L 168.586228 80.843294 
L 168.586228 59.565176 
L 168.591381 59.565176 
L 168.591381 54.245647 
L 168.596533 54.245647 
L 168.596533 48.926118 
L 168.601683 48.926118 
L 168.601683 32.967529 
L 168.611979 32.967529 
L 168.611979 27.648 
L 360.8064 27.648 
" style="fill:none;stroke:#f5deb3;stroke-linecap:square;stroke-width:4;"/>
   </g>
   <g id="line2d_2">
    <defs>
     <path d="M -0 7.778175 
L 7.778175 0 
L 0 -7.778175 
L -7.778175 -0 
z
" id="mdaa43827e5" style="stroke:#f5deb3;stroke-linejoin:miter;stroke-width:1.5;"/>
    </defs>
    <g>
     <use style="fill:#f5deb3;stroke:#f5deb3;stroke-linejoin:miter;stroke-width:1.5;" x="168.519108" xlink:href="#mdaa43827e5" y="187.233882"/>
     <use style="fill:#f5deb3;stroke:#f5deb3;stroke-linejoin:miter;stroke-width:1.5;" x="168.611979" xlink:href="#mdaa43827e5" y="32.967529"/>
     <use style="fill:#f5deb3;stroke:#f5deb3;stroke-linejoin:miter;stroke-width:1.5;" x="168.611979" xlink:href="#mdaa43827e5" y="27.648"/>
     <use style="fill:#f5deb3;stroke:#f5deb3;stroke-linejoin:miter;stroke-width:1.5;" x="168.611979" xlink:href="#mdaa43827e5" y="27.648"/>
     <use style="fill:#f5deb3;stroke:#f5deb3;stroke-linejoin:miter;stroke-width:1.5;" x="360.8064" xlink:href="#mdaa43827e5" y="27.648"/>
    </g>
   </g>
   <g id="line2d_3">
    <path style="fill:none;stroke:#f5deb3;stroke-linecap:square;stroke-width:4;"/>
    <g/>
   </g>
   <g id="line2d_4">
    <path d="M 360.8064 27.648 
L 380.514816 33.07392 
" style="fill:none;stroke:#f5deb3;stroke-linecap:square;stroke-width:4;"/>
    <g>
     <use style="fill:#f5deb3;stroke:#f5deb3;stroke-linejoin:miter;stroke-width:1.5;" x="360.8064" xlink:href="#mdaa43827e5" y="27.648"/>
     <use style="fill:#f5deb3;stroke:#f5deb3;stroke-linejoin:miter;stroke-width:1.5;" x="380.514816" xlink:href="#mdaa43827e5" y="33.07392"/>
    </g>
   </g>
   <g id="matplotlib.axis_1">
    <g id="xtick_1">
     <g id="line2d_5">
      <path clip-path="url(#p721d9f7214)" d="M 57.6 298.944 
L 57.6 27.648 
" style="fill:none;stroke:#b0b0b0;stroke-linecap:square;stroke-width:0.8;"/>
     </g>
     <g id="line2d_6">
      <defs>
       <path d="M 0 0 
L 0 3.5 
" id="m4b236fc5d8" style="stroke:#000000;stroke-width:0.8;"/>
      </defs>
      <g>
       <use style="stroke:#000000;stroke-width:0.8;" x="57.6" xlink:href="#m4b236fc5d8" y="298.944"/>
      </g>
     </g>
     <g id="text_1">
      <!-- 0 -->
      <g transform="translate(52.191875 318.861344)scale(0.17 -0.17)">
       <defs>
        <path d="M 2034 4250 
Q 1547 4250 1301 3770 
Q 1056 3291 1056 2328 
Q 1056 1369 1301 889 
Q 1547 409 2034 409 
Q 2525 409 2770 889 
Q 3016 1369 3016 2328 
Q 3016 3291 2770 3770 
Q 2525 4250 2034 4250 
z
M 2034 4750 
Q 2819 4750 3233 4129 
Q 3647 3509 3647 2328 
Q 3647 1150 3233 529 
Q 2819 -91 2034 -91 
Q 1250 -91 836 529 
Q 422 1150 422 2328 
Q 422 3509 836 4129 
Q 1250 4750 2034 4750 
z
" id="DejaVuSans-30" transform="scale(0.015625)"/>
       </defs>
       <use xlink:href="#DejaVuSans-30"/>
      </g>
     </g>
    </g>
    <g id="xtick_2">
     <g id="line2d_7">
      <path clip-path="url(#p721d9f7214)" d="M 144.2304 298.944 
L 144.2304 27.648 
" style="fill:none;stroke:#b0b0b0;stroke-linecap:square;stroke-width:0.8;"/>
     </g>
     <g id="line2d_8">
      <g>
       <use style="stroke:#000000;stroke-width:0.8;" x="144.2304" xlink:href="#m4b236fc5d8" y="298.944"/>
      </g>
     </g>
     <g id="text_2">
      <!-- 2 -->
      <g transform="translate(138.822275 318.861344)scale(0.17 -0.17)">
       <defs>
        <path d="M 1228 531 
L 3431 531 
L 3431 0 
L 469 0 
L 469 531 
Q 828 903 1448 1529 
Q 2069 2156 2228 2338 
Q 2531 2678 2651 2914 
Q 2772 3150 2772 3378 
Q 2772 3750 2511 3984 
Q 2250 4219 1831 4219 
Q 1534 4219 1204 4116 
Q 875 4013 500 3803 
L 500 4441 
Q 881 4594 1212 4672 
Q 1544 4750 1819 4750 
Q 2544 4750 2975 4387 
Q 3406 4025 3406 3419 
Q 3406 3131 3298 2873 
Q 3191 2616 2906 2266 
Q 2828 2175 2409 1742 
Q 1991 1309 1228 531 
z
" id="DejaVuSans-32" transform="scale(0.015625)"/>
       </defs>
       <use xlink:href="#DejaVuSans-32"/>
      </g>
     </g>
    </g>
    <g id="xtick_3">
     <g id="line2d_9">
      <path clip-path="url(#p721d9f7214)" d="M 230.8608 298.944 
L 230.8608 27.648 
" style="fill:none;stroke:#b0b0b0;stroke-linecap:square;stroke-width:0.8;"/>
     </g>
     <g id="line2d_10">
      <g>
       <use style="stroke:#000000;stroke-width:0.8;" x="230.8608" xlink:href="#m4b236fc5d8" y="298.944"/>
      </g>
     </g>
     <g id="text_3">
      <!-- 4 -->
      <g transform="translate(225.452675 318.861344)scale(0.17 -0.17)">
       <defs>
        <path d="M 2419 4116 
L 825 1625 
L 2419 1625 
L 2419 4116 
z
M 2253 4666 
L 3047 4666 
L 3047 1625 
L 3713 1625 
L 3713 1100 
L 3047 1100 
L 3047 0 
L 2419 0 
L 2419 1100 
L 313 1100 
L 313 1709 
L 2253 4666 
z
" id="DejaVuSans-34" transform="scale(0.015625)"/>
       </defs>
       <use xlink:href="#DejaVuSans-34"/>
      </g>
     </g>
    </g>
    <g id="xtick_4">
     <g id="line2d_11">
      <path clip-path="url(#p721d9f7214)" d="M 317.4912 298.944 
L 317.4912 27.648 
" style="fill:none;stroke:#b0b0b0;stroke-linecap:square;stroke-width:0.8;"/>
     </g>
     <g id="line2d_12">
      <g>
       <use style="stroke:#000000;stroke-width:0.8;" x="317.4912" xlink:href="#m4b236fc5d8" y="298.944"/>
      </g>
     </g>
     <g id="text_4">
      <!-- 6 -->
      <g transform="translate(312.083075 318.861344)scale(0.17 -0.17)">
       <defs>
        <path d="M 2113 2584 
Q 1688 2584 1439 2293 
Q 1191 2003 1191 1497 
Q 1191 994 1439 701 
Q 1688 409 2113 409 
Q 2538 409 2786 701 
Q 3034 994 3034 1497 
Q 3034 2003 2786 2293 
Q 2538 2584 2113 2584 
z
M 3366 4563 
L 3366 3988 
Q 3128 4100 2886 4159 
Q 2644 4219 2406 4219 
Q 1781 4219 1451 3797 
Q 1122 3375 1075 2522 
Q 1259 2794 1537 2939 
Q 1816 3084 2150 3084 
Q 2853 3084 3261 2657 
Q 3669 2231 3669 1497 
Q 3669 778 3244 343 
Q 2819 -91 2113 -91 
Q 1303 -91 875 529 
Q 447 1150 447 2328 
Q 447 3434 972 4092 
Q 1497 4750 2381 4750 
Q 2619 4750 2861 4703 
Q 3103 4656 3366 4563 
z
" id="DejaVuSans-36" transform="scale(0.015625)"/>
       </defs>
       <use xlink:href="#DejaVuSans-36"/>
      </g>
     </g>
    </g>
    <g id="xtick_5">
     <g id="line2d_13">
      <path clip-path="url(#p721d9f7214)" d="M 100.9152 298.944 
L 100.9152 27.648 
" style="fill:none;stroke:#b0b0b0;stroke-linecap:square;stroke-width:0.8;"/>
     </g>
     <g id="line2d_14">
      <defs>
       <path d="M 0 0 
L 0 2 
" id="mac7e287508" style="stroke:#000000;stroke-width:0.6;"/>
      </defs>
      <g>
       <use style="stroke:#000000;stroke-width:0.6;" x="100.9152" xlink:href="#mac7e287508" y="298.944"/>
      </g>
     </g>
    </g>
    <g id="xtick_6">
     <g id="line2d_15">
      <path clip-path="url(#p721d9f7214)" d="M 187.5456 298.944 
L 187.5456 27.648 
" style="fill:none;stroke:#b0b0b0;stroke-linecap:square;stroke-width:0.8;"/>
     </g>
     <g id="line2d_16">
      <g>
       <use style="stroke:#000000;stroke-width:0.6;" x="187.5456" xlink:href="#mac7e287508" y="298.944"/>
      </g>
     </g>
    </g>
    <g id="xtick_7">
     <g id="line2d_17">
      <path clip-path="url(#p721d9f7214)" d="M 274.176 298.944 
L 274.176 27.648 
" style="fill:none;stroke:#b0b0b0;stroke-linecap:square;stroke-width:0.8;"/>
     </g>
     <g id="line2d_18">
      <g>
       <use style="stroke:#000000;stroke-width:0.6;" x="274.176" xlink:href="#mac7e287508" y="298.944"/>
      </g>
     </g>
    </g>
    <g id="xtick_8">
     <g id="line2d_19">
      <path clip-path="url(#p721d9f7214)" d="M 360.8064 298.944 
L 360.8064 27.648 
" style="fill:none;stroke:#b0b0b0;stroke-linecap:square;stroke-width:0.8;"/>
     </g>
     <g id="line2d_20">
      <g>
       <use style="stroke:#000000;stroke-width:0.6;" x="360.8064" xlink:href="#mac7e287508" y="298.944"/>
      </g>
     </g>
    </g>
    <g id="text_5">
     <!-- log10(# f-evals / dimension) -->
     <g transform="translate(88.823278 339.314156)scale(0.17 -0.17)">
      <defs>
       <path d="M 603 4863 
L 1178 4863 
L 1178 0 
L 603 0 
L 603 4863 
z
" id="DejaVuSans-6c" transform="scale(0.015625)"/>
       <path d="M 1959 3097 
Q 1497 3097 1228 2736 
Q 959 2375 959 1747 
Q 959 1119 1226 758 
Q 1494 397 1959 397 
Q 2419 397 2687 759 
Q 2956 1122 2956 1747 
Q 2956 2369 2687 2733 
Q 2419 3097 1959 3097 
z
M 1959 3584 
Q 2709 3584 3137 3096 
Q 3566 2609 3566 1747 
Q 3566 888 3137 398 
Q 2709 -91 1959 -91 
Q 1206 -91 779 398 
Q 353 888 353 1747 
Q 353 2609 779 3096 
Q 1206 3584 1959 3584 
z
" id="DejaVuSans-6f" transform="scale(0.015625)"/>
       <path d="M 2906 1791 
Q 2906 2416 2648 2759 
Q 2391 3103 1925 3103 
Q 1463 3103 1205 2759 
Q 947 2416 947 1791 
Q 947 1169 1205 825 
Q 1463 481 1925 481 
Q 2391 481 2648 825 
Q 2906 1169 2906 1791 
z
M 3481 434 
Q 3481 -459 3084 -895 
Q 2688 -1331 1869 -1331 
Q 1566 -1331 1297 -1286 
Q 1028 -1241 775 -1147 
L 775 -588 
Q 1028 -725 1275 -790 
Q 1522 -856 1778 -856 
Q 2344 -856 2625 -561 
Q 2906 -266 2906 331 
L 2906 616 
Q 2728 306 2450 153 
Q 2172 0 1784 0 
Q 1141 0 747 490 
Q 353 981 353 1791 
Q 353 2603 747 3093 
Q 1141 3584 1784 3584 
Q 2172 3584 2450 3431 
Q 2728 3278 2906 2969 
L 2906 3500 
L 3481 3500 
L 3481 434 
z
" id="DejaVuSans-67" transform="scale(0.015625)"/>
       <path d="M 794 531 
L 1825 531 
L 1825 4091 
L 703 3866 
L 703 4441 
L 1819 4666 
L 2450 4666 
L 2450 531 
L 3481 531 
L 3481 0 
L 794 0 
L 794 531 
z
" id="DejaVuSans-31" transform="scale(0.015625)"/>
       <path d="M 1984 4856 
Q 1566 4138 1362 3434 
Q 1159 2731 1159 2009 
Q 1159 1288 1364 580 
Q 1569 -128 1984 -844 
L 1484 -844 
Q 1016 -109 783 600 
Q 550 1309 550 2009 
Q 550 2706 781 3412 
Q 1013 4119 1484 4856 
L 1984 4856 
z
" id="DejaVuSans-28" transform="scale(0.015625)"/>
       <path d="M 3272 2816 
L 2363 2816 
L 2100 1772 
L 3016 1772 
L 3272 2816 
z
M 2803 4594 
L 2478 3297 
L 3391 3297 
L 3719 4594 
L 4219 4594 
L 3897 3297 
L 4872 3297 
L 4872 2816 
L 3775 2816 
L 3519 1772 
L 4513 1772 
L 4513 1294 
L 3397 1294 
L 3072 0 
L 2572 0 
L 2894 1294 
L 1978 1294 
L 1656 0 
L 1153 0 
L 1478 1294 
L 494 1294 
L 494 1772 
L 1594 1772 
L 1856 2816 
L 850 2816 
L 850 3297 
L 1978 3297 
L 2297 4594 
L 2803 4594 
z
" id="DejaVuSans-23" transform="scale(0.015625)"/>
       <path id="DejaVuSans-20" transform="scale(0.015625)"/>
       <path d="M 2375 4863 
L 2375 4384 
L 1825 4384 
Q 1516 4384 1395 4259 
Q 1275 4134 1275 3809 
L 1275 3500 
L 2222 3500 
L 2222 3053 
L 1275 3053 
L 1275 0 
L 697 0 
L 697 3053 
L 147 3053 
L 147 3500 
L 697 3500 
L 697 3744 
Q 697 4328 969 4595 
Q 1241 4863 1831 4863 
L 2375 4863 
z
" id="DejaVuSans-66" transform="scale(0.015625)"/>
       <path d="M 313 2009 
L 1997 2009 
L 1997 1497 
L 313 1497 
L 313 2009 
z
" id="DejaVuSans-2d" transform="scale(0.015625)"/>
       <path d="M 3597 1894 
L 3597 1613 
L 953 1613 
Q 991 1019 1311 708 
Q 1631 397 2203 397 
Q 2534 397 2845 478 
Q 3156 559 3463 722 
L 3463 178 
Q 3153 47 2828 -22 
Q 2503 -91 2169 -91 
Q 1331 -91 842 396 
Q 353 884 353 1716 
Q 353 2575 817 3079 
Q 1281 3584 2069 3584 
Q 2775 3584 3186 3129 
Q 3597 2675 3597 1894 
z
M 3022 2063 
Q 3016 2534 2758 2815 
Q 2500 3097 2075 3097 
Q 1594 3097 1305 2825 
Q 1016 2553 972 2059 
L 3022 2063 
z
" id="DejaVuSans-65" transform="scale(0.015625)"/>
       <path d="M 191 3500 
L 800 3500 
L 1894 563 
L 2988 3500 
L 3597 3500 
L 2284 0 
L 1503 0 
L 191 3500 
z
" id="DejaVuSans-76" transform="scale(0.015625)"/>
       <path d="M 2194 1759 
Q 1497 1759 1228 1600 
Q 959 1441 959 1056 
Q 959 750 1161 570 
Q 1363 391 1709 391 
Q 2188 391 2477 730 
Q 2766 1069 2766 1631 
L 2766 1759 
L 2194 1759 
z
M 3341 1997 
L 3341 0 
L 2766 0 
L 2766 531 
Q 2569 213 2275 61 
Q 1981 -91 1556 -91 
Q 1019 -91 701 211 
Q 384 513 384 1019 
Q 384 1609 779 1909 
Q 1175 2209 1959 2209 
L 2766 2209 
L 2766 2266 
Q 2766 2663 2505 2880 
Q 2244 3097 1772 3097 
Q 1472 3097 1187 3025 
Q 903 2953 641 2809 
L 641 3341 
Q 956 3463 1253 3523 
Q 1550 3584 1831 3584 
Q 2591 3584 2966 3190 
Q 3341 2797 3341 1997 
z
" id="DejaVuSans-61" transform="scale(0.015625)"/>
       <path d="M 2834 3397 
L 2834 2853 
Q 2591 2978 2328 3040 
Q 2066 3103 1784 3103 
Q 1356 3103 1142 2972 
Q 928 2841 928 2578 
Q 928 2378 1081 2264 
Q 1234 2150 1697 2047 
L 1894 2003 
Q 2506 1872 2764 1633 
Q 3022 1394 3022 966 
Q 3022 478 2636 193 
Q 2250 -91 1575 -91 
Q 1294 -91 989 -36 
Q 684 19 347 128 
L 347 722 
Q 666 556 975 473 
Q 1284 391 1588 391 
Q 1994 391 2212 530 
Q 2431 669 2431 922 
Q 2431 1156 2273 1281 
Q 2116 1406 1581 1522 
L 1381 1569 
Q 847 1681 609 1914 
Q 372 2147 372 2553 
Q 372 3047 722 3315 
Q 1072 3584 1716 3584 
Q 2034 3584 2315 3537 
Q 2597 3491 2834 3397 
z
" id="DejaVuSans-73" transform="scale(0.015625)"/>
       <path d="M 1625 4666 
L 2156 4666 
L 531 -594 
L 0 -594 
L 1625 4666 
z
" id="DejaVuSans-2f" transform="scale(0.015625)"/>
       <path d="M 2906 2969 
L 2906 4863 
L 3481 4863 
L 3481 0 
L 2906 0 
L 2906 525 
Q 2725 213 2448 61 
Q 2172 -91 1784 -91 
Q 1150 -91 751 415 
Q 353 922 353 1747 
Q 353 2572 751 3078 
Q 1150 3584 1784 3584 
Q 2172 3584 2448 3432 
Q 2725 3281 2906 2969 
z
M 947 1747 
Q 947 1113 1208 752 
Q 1469 391 1925 391 
Q 2381 391 2643 752 
Q 2906 1113 2906 1747 
Q 2906 2381 2643 2742 
Q 2381 3103 1925 3103 
Q 1469 3103 1208 2742 
Q 947 2381 947 1747 
z
" id="DejaVuSans-64" transform="scale(0.015625)"/>
       <path d="M 603 3500 
L 1178 3500 
L 1178 0 
L 603 0 
L 603 3500 
z
M 603 4863 
L 1178 4863 
L 1178 4134 
L 603 4134 
L 603 4863 
z
" id="DejaVuSans-69" transform="scale(0.015625)"/>
       <path d="M 3328 2828 
Q 3544 3216 3844 3400 
Q 4144 3584 4550 3584 
Q 5097 3584 5394 3201 
Q 5691 2819 5691 2113 
L 5691 0 
L 5113 0 
L 5113 2094 
Q 5113 2597 4934 2840 
Q 4756 3084 4391 3084 
Q 3944 3084 3684 2787 
Q 3425 2491 3425 1978 
L 3425 0 
L 2847 0 
L 2847 2094 
Q 2847 2600 2669 2842 
Q 2491 3084 2119 3084 
Q 1678 3084 1418 2786 
Q 1159 2488 1159 1978 
L 1159 0 
L 581 0 
L 581 3500 
L 1159 3500 
L 1159 2956 
Q 1356 3278 1631 3431 
Q 1906 3584 2284 3584 
Q 2666 3584 2933 3390 
Q 3200 3197 3328 2828 
z
" id="DejaVuSans-6d" transform="scale(0.015625)"/>
       <path d="M 3513 2113 
L 3513 0 
L 2938 0 
L 2938 2094 
Q 2938 2591 2744 2837 
Q 2550 3084 2163 3084 
Q 1697 3084 1428 2787 
Q 1159 2491 1159 1978 
L 1159 0 
L 581 0 
L 581 3500 
L 1159 3500 
L 1159 2956 
Q 1366 3272 1645 3428 
Q 1925 3584 2291 3584 
Q 2894 3584 3203 3211 
Q 3513 2838 3513 2113 
z
" id="DejaVuSans-6e" transform="scale(0.015625)"/>
       <path d="M 513 4856 
L 1013 4856 
Q 1481 4119 1714 3412 
Q 1947 2706 1947 2009 
Q 1947 1309 1714 600 
Q 1481 -109 1013 -844 
L 513 -844 
Q 928 -128 1133 580 
Q 1338 1288 1338 2009 
Q 1338 2731 1133 3434 
Q 928 4138 513 4856 
z
" id="DejaVuSans-29" transform="scale(0.015625)"/>
      </defs>
      <use xlink:href="#DejaVuSans-6c"/>
      <use x="27.783203" xlink:href="#DejaVuSans-6f"/>
      <use x="88.964844" xlink:href="#DejaVuSans-67"/>
      <use x="152.441406" xlink:href="#DejaVuSans-31"/>
      <use x="216.064453" xlink:href="#DejaVuSans-30"/>
      <use x="279.6875" xlink:href="#DejaVuSans-28"/>
      <use x="318.701172" xlink:href="#DejaVuSans-23"/>
      <use x="402.490234" xlink:href="#DejaVuSans-20"/>
      <use x="434.277344" xlink:href="#DejaVuSans-66"/>
      <use x="463.982422" xlink:href="#DejaVuSans-2d"/>
      <use x="500.066406" xlink:href="#DejaVuSans-65"/>
      <use x="561.589844" xlink:href="#DejaVuSans-76"/>
      <use x="620.769531" xlink:href="#DejaVuSans-61"/>
      <use x="682.048828" xlink:href="#DejaVuSans-6c"/>
      <use x="709.832031" xlink:href="#DejaVuSans-73"/>
      <use x="761.931641" xlink:href="#DejaVuSans-20"/>
      <use x="793.71875" xlink:href="#DejaVuSans-2f"/>
      <use x="827.410156" xlink:href="#DejaVuSans-20"/>
      <use x="859.197266" xlink:href="#DejaVuSans-64"/>
      <use x="922.673828" xlink:href="#DejaVuSans-69"/>
      <use x="950.457031" xlink:href="#DejaVuSans-6d"/>
      <use x="1047.869141" xlink:href="#DejaVuSans-65"/>
      <use x="1109.392578" xlink:href="#DejaVuSans-6e"/>
      <use x="1172.771484" xlink:href="#DejaVuSans-73"/>
      <use x="1224.871094" xlink:href="#DejaVuSans-69"/>
      <use x="1252.654297" xlink:href="#DejaVuSans-6f"/>
      <use x="1313.835938" xlink:href="#DejaVuSans-6e"/>
      <use x="1377.214844" xlink:href="#DejaVuSans-29"/>
     </g>
    </g>
   </g>
   <g id="matplotlib.axis_2">
    <g id="ytick_1">
     <g id="line2d_21">
      <path clip-path="url(#p721d9f7214)" d="M 57.6 298.944 
L 360.8064 298.944 
" style="fill:none;stroke:#b0b0b0;stroke-linecap:square;stroke-width:0.8;"/>
     </g>
     <g id="line2d_22">
      <defs>
       <path d="M 0 0 
L -3.5 0 
" id="mac5609e510" style="stroke:#000000;stroke-width:0.8;"/>
      </defs>
      <g>
       <use style="stroke:#000000;stroke-width:0.8;" x="57.6" xlink:href="#mac5609e510" y="298.944"/>
      </g>
     </g>
     <g id="text_6">
      <!-- 0.0 -->
      <g transform="translate(25.155 305.02275)scale(0.16 -0.16)">
       <defs>
        <path d="M 684 794 
L 1344 794 
L 1344 0 
L 684 0 
L 684 794 
z
" id="DejaVuSans-2e" transform="scale(0.015625)"/>
       </defs>
       <use xlink:href="#DejaVuSans-30"/>
       <use x="63.623047" xlink:href="#DejaVuSans-2e"/>
       <use x="95.410156" xlink:href="#DejaVuSans-30"/>
      </g>
     </g>
    </g>
    <g id="ytick_2">
     <g id="line2d_23">
      <path clip-path="url(#p721d9f7214)" d="M 57.6 244.6848 
L 360.8064 244.6848 
" style="fill:none;stroke:#b0b0b0;stroke-linecap:square;stroke-width:0.8;"/>
     </g>
     <g id="line2d_24">
      <g>
       <use style="stroke:#000000;stroke-width:0.8;" x="57.6" xlink:href="#mac5609e510" y="244.6848"/>
      </g>
     </g>
     <g id="text_7">
      <!-- 0.2 -->
      <g transform="translate(25.155 250.76355)scale(0.16 -0.16)">
       <use xlink:href="#DejaVuSans-30"/>
       <use x="63.623047" xlink:href="#DejaVuSans-2e"/>
       <use x="95.410156" xlink:href="#DejaVuSans-32"/>
      </g>
     </g>
    </g>
    <g id="ytick_3">
     <g id="line2d_25">
      <path clip-path="url(#p721d9f7214)" d="M 57.6 190.4256 
L 360.8064 190.4256 
" style="fill:none;stroke:#b0b0b0;stroke-linecap:square;stroke-width:0.8;"/>
     </g>
     <g id="line2d_26">
      <g>
       <use style="stroke:#000000;stroke-width:0.8;" x="57.6" xlink:href="#mac5609e510" y="190.4256"/>
      </g>
     </g>
     <g id="text_8">
      <!-- 0.4 -->
      <g transform="translate(25.155 196.50435)scale(0.16 -0.16)">
       <use xlink:href="#DejaVuSans-30"/>
       <use x="63.623047" xlink:href="#DejaVuSans-2e"/>
       <use x="95.410156" xlink:href="#DejaVuSans-34"/>
      </g>
     </g>
    </g>
    <g id="ytick_4">
     <g id="line2d_27">
      <path clip-path="url(#p721d9f7214)" d="M 57.6 136.1664 
L 360.8064 136.1664 
" style="fill:none;stroke:#b0b0b0;stroke-linecap:square;stroke-width:0.8;"/>
     </g>
     <g id="line2d_28">
      <g>
       <use style="stroke:#000000;stroke-width:0.8;" x="57.6" xlink:href="#mac5609e510" y="136.1664"/>
      </g>
     </g>
     <g id="text_9">
      <!-- 0.6 -->
      <g transform="translate(25.155 142.24515)scale(0.16 -0.16)">
       <use xlink:href="#DejaVuSans-30"/>
       <use x="63.623047" xlink:href="#DejaVuSans-2e"/>
       <use x="95.410156" xlink:href="#DejaVuSans-36"/>
      </g>
     </g>
    </g>
    <g id="ytick_5">
     <g id="line2d_29">
      <path clip-path="url(#p721d9f7214)" d="M 57.6 81.9072 
L 360.8064 81.9072 
" style="fill:none;stroke:#b0b0b0;stroke-linecap:square;stroke-width:0.8;"/>
     </g>
     <g id="line2d_30">
      <g>
       <use style="stroke:#000000;stroke-width:0.8;" x="57.6" xlink:href="#mac5609e510" y="81.9072"/>
      </g>
     </g>
     <g id="text_10">
      <!-- 0.8 -->
      <g transform="translate(25.155 87.98595)scale(0.16 -0.16)">
       <defs>
        <path d="M 2034 2216 
Q 1584 2216 1326 1975 
Q 1069 1734 1069 1313 
Q 1069 891 1326 650 
Q 1584 409 2034 409 
Q 2484 409 2743 651 
Q 3003 894 3003 1313 
Q 3003 1734 2745 1975 
Q 2488 2216 2034 2216 
z
M 1403 2484 
Q 997 2584 770 2862 
Q 544 3141 544 3541 
Q 544 4100 942 4425 
Q 1341 4750 2034 4750 
Q 2731 4750 3128 4425 
Q 3525 4100 3525 3541 
Q 3525 3141 3298 2862 
Q 3072 2584 2669 2484 
Q 3125 2378 3379 2068 
Q 3634 1759 3634 1313 
Q 3634 634 3220 271 
Q 2806 -91 2034 -91 
Q 1263 -91 848 271 
Q 434 634 434 1313 
Q 434 1759 690 2068 
Q 947 2378 1403 2484 
z
M 1172 3481 
Q 1172 3119 1398 2916 
Q 1625 2713 2034 2713 
Q 2441 2713 2670 2916 
Q 2900 3119 2900 3481 
Q 2900 3844 2670 4047 
Q 2441 4250 2034 4250 
Q 1625 4250 1398 4047 
Q 1172 3844 1172 3481 
z
" id="DejaVuSans-38" transform="scale(0.015625)"/>
       </defs>
       <use xlink:href="#DejaVuSans-30"/>
       <use x="63.623047" xlink:href="#DejaVuSans-2e"/>
       <use x="95.410156" xlink:href="#DejaVuSans-38"/>
      </g>
     </g>
    </g>
    <g id="ytick_6">
     <g id="line2d_31">
      <path clip-path="url(#p721d9f7214)" d="M 57.6 27.648 
L 360.8064 27.648 
" style="fill:none;stroke:#b0b0b0;stroke-linecap:square;stroke-width:0.8;"/>
     </g>
     <g id="line2d_32">
      <g>
       <use style="stroke:#000000;stroke-width:0.8;" x="57.6" xlink:href="#mac5609e510" y="27.648"/>
      </g>
     </g>
     <g id="text_11">
      <!-- 1.0 -->
      <g transform="translate(25.155 33.72675)scale(0.16 -0.16)">
       <use xlink:href="#DejaVuSans-31"/>
       <use x="63.623047" xlink:href="#DejaVuSans-2e"/>
       <use x="95.410156" xlink:href="#DejaVuSans-30"/>
      </g>
     </g>
    </g>
    <g id="text_12">
     <!-- Fraction of function,target pairs -->
     <g transform="translate(17.619531 297.681)rotate(-90)scale(0.17 -0.17)">
      <defs>
       <path d="M 628 4666 
L 3309 4666 
L 3309 4134 
L 1259 4134 
L 1259 2759 
L 3109 2759 
L 3109 2228 
L 1259 2228 
L 1259 0 
L 628 0 
L 628 4666 
z
" id="DejaVuSans-46" transform="scale(0.015625)"/>
       <path d="M 2631 2963 
Q 2534 3019 2420 3045 
Q 2306 3072 2169 3072 
Q 1681 3072 1420 2755 
Q 1159 2438 1159 1844 
L 1159 0 
L 581 0 
L 581 3500 
L 1159 3500 
L 1159 2956 
Q 1341 3275 1631 3429 
Q 1922 3584 2338 3584 
Q 2397 3584 2469 3576 
Q 2541 3569 2628 3553 
L 2631 2963 
z
" id="DejaVuSans-72" transform="scale(0.015625)"/>
       <path d="M 3122 3366 
L 3122 2828 
Q 2878 2963 2633 3030 
Q 2388 3097 2138 3097 
Q 1578 3097 1268 2742 
Q 959 2388 959 1747 
Q 959 1106 1268 751 
Q 1578 397 2138 397 
Q 2388 397 2633 464 
Q 2878 531 3122 666 
L 3122 134 
Q 2881 22 2623 -34 
Q 2366 -91 2075 -91 
Q 1284 -91 818 406 
Q 353 903 353 1747 
Q 353 2603 823 3093 
Q 1294 3584 2113 3584 
Q 2378 3584 2631 3529 
Q 2884 3475 3122 3366 
z
" id="DejaVuSans-63" transform="scale(0.015625)"/>
       <path d="M 1172 4494 
L 1172 3500 
L 2356 3500 
L 2356 3053 
L 1172 3053 
L 1172 1153 
Q 1172 725 1289 603 
Q 1406 481 1766 481 
L 2356 481 
L 2356 0 
L 1766 0 
Q 1100 0 847 248 
Q 594 497 594 1153 
L 594 3053 
L 172 3053 
L 172 3500 
L 594 3500 
L 594 4494 
L 1172 4494 
z
" id="DejaVuSans-74" transform="scale(0.015625)"/>
       <path d="M 544 1381 
L 544 3500 
L 1119 3500 
L 1119 1403 
Q 1119 906 1312 657 
Q 1506 409 1894 409 
Q 2359 409 2629 706 
Q 2900 1003 2900 1516 
L 2900 3500 
L 3475 3500 
L 3475 0 
L 2900 0 
L 2900 538 
Q 2691 219 2414 64 
Q 2138 -91 1772 -91 
Q 1169 -91 856 284 
Q 544 659 544 1381 
z
M 1991 3584 
L 1991 3584 
z
" id="DejaVuSans-75" transform="scale(0.015625)"/>
       <path d="M 750 794 
L 1409 794 
L 1409 256 
L 897 -744 
L 494 -744 
L 750 256 
L 750 794 
z
" id="DejaVuSans-2c" transform="scale(0.015625)"/>
       <path d="M 1159 525 
L 1159 -1331 
L 581 -1331 
L 581 3500 
L 1159 3500 
L 1159 2969 
Q 1341 3281 1617 3432 
Q 1894 3584 2278 3584 
Q 2916 3584 3314 3078 
Q 3713 2572 3713 1747 
Q 3713 922 3314 415 
Q 2916 -91 2278 -91 
Q 1894 -91 1617 61 
Q 1341 213 1159 525 
z
M 3116 1747 
Q 3116 2381 2855 2742 
Q 2594 3103 2138 3103 
Q 1681 3103 1420 2742 
Q 1159 2381 1159 1747 
Q 1159 1113 1420 752 
Q 1681 391 2138 391 
Q 2594 391 2855 752 
Q 3116 1113 3116 1747 
z
" id="DejaVuSans-70" transform="scale(0.015625)"/>
      </defs>
      <use xlink:href="#DejaVuSans-46"/>
      <use x="50.269531" xlink:href="#DejaVuSans-72"/>
      <use x="91.382812" xlink:href="#DejaVuSans-61"/>
      <use x="152.662109" xlink:href="#DejaVuSans-63"/>
      <use x="207.642578" xlink:href="#DejaVuSans-74"/>
      <use x="246.851562" xlink:href="#DejaVuSans-69"/>
      <use x="274.634766" xlink:href="#DejaVuSans-6f"/>
      <use x="335.816406" xlink:href="#DejaVuSans-6e"/>
      <use x="399.195312" xlink:href="#DejaVuSans-20"/>
      <use x="430.982422" xlink:href="#DejaVuSans-6f"/>
      <use x="492.164062" xlink:href="#DejaVuSans-66"/>
      <use x="527.369141" xlink:href="#DejaVuSans-20"/>
      <use x="559.15625" xlink:href="#DejaVuSans-66"/>
      <use x="594.361328" xlink:href="#DejaVuSans-75"/>
      <use x="657.740234" xlink:href="#DejaVuSans-6e"/>
      <use x="721.119141" xlink:href="#DejaVuSans-63"/>
      <use x="776.099609" xlink:href="#DejaVuSans-74"/>
      <use x="815.308594" xlink:href="#DejaVuSans-69"/>
      <use x="843.091797" xlink:href="#DejaVuSans-6f"/>
      <use x="904.273438" xlink:href="#DejaVuSans-6e"/>
      <use x="967.652344" xlink:href="#DejaVuSans-2c"/>
      <use x="999.439453" xlink:href="#DejaVuSans-74"/>
      <use x="1038.648438" xlink:href="#DejaVuSans-61"/>
      <use x="1099.927734" xlink:href="#DejaVuSans-72"/>
      <use x="1139.291016" xlink:href="#DejaVuSans-67"/>
      <use x="1202.767578" xlink:href="#DejaVuSans-65"/>
      <use x="1264.291016" xlink:href="#DejaVuSans-74"/>
      <use x="1303.5" xlink:href="#DejaVuSans-20"/>
      <use x="1335.287109" xlink:href="#DejaVuSans-70"/>
      <use x="1398.763672" xlink:href="#DejaVuSans-61"/>
      <use x="1460.042969" xlink:href="#DejaVuSans-69"/>
      <use x="1487.826172" xlink:href="#DejaVuSans-72"/>
      <use x="1528.939453" xlink:href="#DejaVuSans-73"/>
     </g>
    </g>
   </g>
   <g id="line2d_33">
    <defs>
     <path d="M 0 1.5 
C 0.397805 1.5 0.77937 1.341951 1.06066 1.06066 
C 1.341951 0.77937 1.5 0.397805 1.5 0 
C 1.5 -0.397805 1.341951 -0.77937 1.06066 -1.06066 
C 0.77937 -1.341951 0.397805 -1.5 0 -1.5 
C -0.397805 -1.5 -0.77937 -1.341951 -1.06066 -1.06066 
C -1.341951 -0.77937 -1.5 -0.397805 -1.5 0 
C -1.5 0.397805 -1.341951 0.77937 -1.06066 1.06066 
C -0.77937 1.341951 -0.397805 1.5 0 1.5 
z
" id="m5e8776b252" style="stroke:#f5deb3;"/>
    </defs>
    <g>
     <use style="fill:#f5deb3;stroke:#f5deb3;" x="168.611979" xlink:href="#m5e8776b252" y="27.648"/>
     <use style="fill:#f5deb3;stroke:#f5deb3;" x="168.611979" xlink:href="#m5e8776b252" y="27.648"/>
    </g>
   </g>
   <g id="line2d_34">
    <defs>
     <path d="M 0 1.5 
C 0.397805 1.5 0.77937 1.341951 1.06066 1.06066 
C 1.341951 0.77937 1.5 0.397805 1.5 0 
C 1.5 -0.397805 1.341951 -0.77937 1.06066 -1.06066 
C 0.77937 -1.341951 0.397805 -1.5 0 -1.5 
C -0.397805 -1.5 -0.77937 -1.341951 -1.06066 -1.06066 
C -1.341951 -0.77937 -1.5 -0.397805 -1.5 0 
C -1.5 0.397805 -1.341951 0.77937 -1.06066 1.06066 
C -0.77937 1.341951 -0.397805 1.5 0 1.5 
z
" id="mcd1f8f98ad" style="stroke:#000080;"/>
    </defs>
    <g>
     <use style="fill:#000080;stroke:#000080;" x="245.84967" xlink:href="#mcd1f8f98ad" y="27.648"/>
     <use style="fill:#000080;stroke:#000080;" x="245.84967" xlink:href="#mcd1f8f98ad" y="27.648"/>
    </g>
   </g>
   <g id="line2d_35">
    <path d="M 128.57149 298.944 
L 128.57149 298.589365 
L 131.600593 298.589365 
L 131.600593 298.234729 
L 133.754819 298.234729 
L 133.754819 297.880094 
L 134.901055 297.880094 
L 134.901055 297.525459 
L 135.024208 297.525459 
L 135.024208 297.170824 
L 136.213327 297.170824 
L 136.213327 296.816188 
L 136.612375 296.816188 
L 136.612375 296.106918 
L 138.843719 296.106918 
L 138.843719 295.752282 
L 138.993414 295.752282 
L 138.993414 295.397647 
L 139.77227 295.397647 
L 139.867398 294.333741 
L 140.056223 294.333741 
L 140.056223 293.979106 
L 140.28962 293.979106 
L 140.28962 293.624471 
L 140.611586 293.624471 
L 140.611586 293.269835 
L 140.928134 293.269835 
L 140.928134 292.9152 
L 142.101521 292.9152 
L 142.101521 292.560565 
L 143.046405 292.560565 
L 143.046405 292.205929 
L 144.173881 292.205929 
L 144.173881 291.851294 
L 144.324223 291.851294 
L 144.324223 291.496659 
L 145.450347 291.496659 
L 145.450347 291.142024 
L 146.612557 291.142024 
L 146.612557 290.787388 
L 148.382875 290.787388 
L 148.47317 290.078118 
L 150.302917 290.078118 
L 150.302917 289.723482 
L 150.546523 289.723482 
L 150.546523 289.368847 
L 150.840043 289.368847 
L 150.840043 289.014212 
L 151.439354 289.014212 
L 151.439354 288.659576 
L 151.643413 288.659576 
L 151.643413 288.304941 
L 152.631772 288.304941 
L 152.631772 287.950306 
L 153.707679 287.950306 
L 153.775755 287.241035 
L 154.574008 287.241035 
L 154.574008 286.8864 
L 155.109071 286.8864 
L 155.109071 286.177129 
L 155.629335 286.177129 
L 155.629335 285.822494 
L 155.772467 285.822494 
L 155.772467 285.467859 
L 155.894291 285.467859 
L 155.894291 285.113224 
L 156.802952 285.113224 
L 156.802952 284.758588 
L 157.051988 284.758588 
L 157.051988 284.403953 
L 158.864805 284.403953 
L 158.864805 284.049318 
L 159.190332 284.049318 
L 159.190332 283.694682 
L 160.00474 283.694682 
L 160.00474 283.340047 
L 160.707162 283.340047 
L 160.754113 282.630776 
L 165.361509 282.630776 
L 165.361509 282.276141 
L 165.664928 282.276141 
L 165.664928 281.921506 
L 165.987215 281.921506 
L 165.987215 281.566871 
L 166.466293 281.566871 
L 166.466293 281.212235 
L 167.356346 281.212235 
L 167.356346 280.502965 
L 167.586025 280.502965 
L 167.586025 280.148329 
L 167.866558 280.148329 
L 167.866558 279.793694 
L 169.049477 279.793694 
L 169.049477 279.439059 
L 169.19973 279.439059 
L 169.19973 279.084424 
L 169.319074 279.084424 
L 169.319074 278.729788 
L 170.463308 278.729788 
L 170.463308 278.375153 
L 171.960063 278.375153 
L 171.960063 278.020518 
L 172.470008 278.020518 
L 172.478391 277.311247 
L 173.695341 277.311247 
L 173.695341 276.956612 
L 174.022439 276.956612 
L 174.022439 276.601976 
L 175.211641 276.601976 
L 175.211641 276.247341 
L 176.574381 276.247341 
L 176.628234 275.538071 
L 177.45026 275.538071 
L 177.45026 275.183435 
L 178.026881 275.183435 
L 178.026881 274.8288 
L 178.213166 274.8288 
L 178.213166 274.474165 
L 179.005667 274.474165 
L 179.005667 274.119529 
L 179.176682 274.119529 
L 179.176682 273.764894 
L 179.617621 273.764894 
L 179.617621 273.410259 
L 179.771814 273.410259 
L 179.771814 273.055624 
L 180.886981 273.055624 
L 180.886981 272.700988 
L 181.689715 272.700988 
L 181.741008 271.991718 
L 182.04082 271.991718 
L 182.04082 271.637082 
L 182.221437 271.637082 
L 182.23142 270.927812 
L 182.87889 270.927812 
L 182.87889 270.573176 
L 183.180226 270.573176 
L 183.180226 270.218541 
L 183.574642 270.218541 
L 183.574642 269.863906 
L 183.695066 269.863906 
L 183.695066 269.509271 
L 184.388512 269.509271 
L 184.388512 269.154635 
L 184.5392 269.154635 
L 184.570075 268.445365 
L 184.65801 268.445365 
L 184.65801 268.090729 
L 184.837003 268.090729 
L 184.837003 267.736094 
L 185.219784 267.736094 
L 185.219784 267.381459 
L 185.393535 267.381459 
L 185.393535 267.026824 
L 186.210749 267.026824 
L 186.311454 266.317553 
L 186.339555 266.317553 
L 186.339555 265.962918 
L 186.693226 265.962918 
L 186.693226 265.608282 
L 186.850038 265.608282 
L 186.850038 265.253647 
L 186.986185 265.253647 
L 187.001683 264.544376 
L 187.132895 264.544376 
L 187.132895 264.189741 
L 187.403982 264.189741 
L 187.422926 263.480471 
L 187.671217 263.480471 
L 187.775571 262.7712 
L 187.853458 262.7712 
L 187.853458 262.416565 
L 188.008271 262.416565 
L 188.110777 261.707294 
L 188.382625 261.707294 
L 188.382625 261.352659 
L 188.50458 261.352659 
L 188.586633 260.643388 
L 188.760258 260.643388 
L 188.760258 260.288753 
L 188.886805 260.288753 
L 188.963723 259.224847 
L 189.002064 259.224847 
L 189.040327 258.160941 
L 189.442563 258.160941 
L 189.459562 256.387765 
L 190.015395 256.387765 
L 190.015395 256.033129 
L 190.186186 256.033129 
L 190.186186 255.678494 
L 190.355441 255.678494 
L 190.355441 255.323859 
L 190.478171 255.323859 
L 190.56489 254.259953 
L 190.600105 254.259953 
L 190.612895 253.196047 
L 190.873179 253.196047 
L 190.967512 251.422871 
L 191.058253 251.422871 
L 191.058253 251.068235 
L 191.182699 251.068235 
L 191.210587 250.358965 
L 191.337108 250.358965 
L 191.337108 250.004329 
L 191.453617 250.004329 
L 191.453617 249.649694 
L 191.617951 249.649694 
L 191.660323 248.231153 
L 191.861791 248.231153 
L 191.972132 247.167247 
L 192.058165 247.167247 
L 192.137913 245.748706 
L 192.234925 245.748706 
L 192.34602 244.330165 
L 192.363502 244.330165 
L 192.363502 243.620894 
L 192.476737 243.620894 
L 192.58354 242.911624 
L 192.678287 242.911624 
L 192.752601 241.493082 
L 192.835146 241.493082 
L 192.874865 240.429176 
L 192.976618 240.429176 
L 192.993524 239.365271 
L 193.089036 239.365271 
L 193.12263 238.656 
L 193.253634 238.656 
L 193.256412 237.946729 
L 193.380974 237.946729 
L 193.460812 236.173553 
L 193.518415 236.173553 
L 193.624927 235.109647 
L 193.690174 235.109647 
L 193.7579 233.336471 
L 193.811906 233.336471 
L 193.88994 232.272565 
L 193.940891 232.272565 
L 193.978345 231.563294 
L 194.087606 231.563294 
L 194.196237 230.499388 
L 194.20152 230.499388 
L 194.285847 228.016941 
L 194.390728 228.016941 
L 194.484623 225.179859 
L 194.526204 225.179859 
L 194.544367 224.470588 
L 194.652977 224.470588 
L 194.725037 223.052047 
L 194.809613 223.052047 
L 194.896355 221.633506 
L 194.929416 221.633506 
L 195.038358 219.505694 
L 195.09889 219.505694 
L 195.146673 218.087153 
L 195.231879 218.087153 
L 195.274337 217.023247 
L 195.381306 217.023247 
L 195.433327 213.831529 
L 195.495069 213.831529 
L 195.561523 212.412988 
L 195.630192 212.412988 
L 195.691292 210.994447 
L 195.757058 210.994447 
L 195.858907 208.512 
L 195.933728 208.512 
L 196.017848 206.384188 
L 196.056178 206.384188 
L 196.165943 203.192471 
L 196.175458 203.192471 
L 196.282167 200.710024 
L 196.437586 200.710024 
L 196.514817 197.163671 
L 196.603359 197.163671 
L 196.672967 195.035859 
L 196.714608 195.035859 
L 196.811415 191.489506 
L 196.850457 191.489506 
L 196.896286 190.780235 
L 196.969381 190.780235 
L 197.069424 187.943153 
L 197.096617 187.943153 
L 197.204995 186.169976 
L 197.231993 186.169976 
L 197.337361 183.687529 
L 197.38425 183.687529 
L 197.490989 179.431906 
L 197.502073 179.431906 
L 197.583891 176.949459 
L 197.665355 176.949459 
L 197.7727 174.467012 
L 197.783619 174.467012 
L 197.855527 171.984565 
L 197.905483 171.984565 
L 198.00284 169.147482 
L 198.020095 169.147482 
L 198.103989 167.374306 
L 198.161851 167.374306 
L 198.260023 165.246494 
L 198.277044 165.246494 
L 198.385193 163.827953 
L 198.402102 163.827953 
L 198.499031 160.2816 
L 198.532628 160.2816 
L 198.637236 158.153788 
L 198.658088 158.153788 
L 198.757856 156.735247 
L 198.776504 156.735247 
L 198.801339 155.671341 
L 198.902411 155.671341 
L 199.002941 153.543529 
L 199.017259 153.543529 
L 199.100903 150.706447 
L 199.184176 150.706447 
L 199.287247 148.578635 
L 199.30135 148.578635 
L 199.40779 146.450824 
L 199.413796 146.450824 
L 199.521594 144.677647 
L 199.537511 144.677647 
L 199.612936 142.549835 
L 199.664369 142.549835 
L 199.747157 140.422024 
L 199.782526 140.422024 
L 199.88238 138.648847 
L 199.907748 138.648847 
L 200.012759 133.683953 
L 200.107542 133.683953 
L 200.215285 131.910776 
L 200.2804 131.910776 
L 200.370042 128.364424 
L 200.470619 128.364424 
L 200.549941 125.881976 
L 200.589477 125.881976 
L 200.630806 124.1088 
L 200.716931 124.1088 
L 200.824963 122.335624 
L 200.845382 122.335624 
L 200.947146 120.562447 
L 200.998743 120.562447 
L 201.083203 118.434635 
L 201.132601 118.434635 
L 201.23101 117.370729 
L 201.250993 117.370729 
L 201.339753 114.888282 
L 201.447871 114.888282 
L 201.524975 112.405835 
L 201.605328 112.405835 
L 201.701301 110.632659 
L 201.83555 110.632659 
L 201.935611 109.214118 
L 201.965352 109.214118 
L 201.975837 108.504847 
L 202.078633 108.504847 
L 202.189508 106.377035 
L 202.272238 106.377035 
L 202.328905 105.313129 
L 202.429794 105.313129 
L 202.502984 103.539953 
L 202.61646 103.539953 
L 202.624901 102.476047 
L 202.859724 102.476047 
L 202.904676 101.412141 
L 203.017414 101.412141 
L 203.090004 100.348235 
L 203.157394 100.348235 
L 203.21146 99.638965 
L 218.121339 99.638965 
L 218.224734 98.575059 
L 218.480762 98.575059 
L 218.543142 97.156518 
L 218.716857 97.156518 
L 218.774884 96.447247 
L 218.870488 96.447247 
L 218.979058 93.255529 
L 219.08419 93.255529 
L 219.117933 91.836988 
L 219.211814 91.836988 
L 219.303143 89.354541 
L 219.375334 89.354541 
L 219.447248 87.226729 
L 219.534009 87.226729 
L 219.63746 86.162824 
L 219.678409 86.162824 
L 219.764112 84.389647 
L 219.844698 84.389647 
L 219.926285 82.616471 
L 219.976007 82.616471 
L 220.082401 79.070118 
L 220.129716 79.070118 
L 220.23657 77.296941 
L 220.261702 77.296941 
L 220.35532 74.814494 
L 220.406546 74.814494 
L 220.460904 72.332047 
L 220.532051 72.332047 
L 220.598386 70.558871 
L 220.67419 70.558871 
L 220.758703 68.076424 
L 220.833864 68.076424 
L 220.910004 65.593976 
L 220.962928 65.593976 
L 221.063898 64.175435 
L 221.099963 64.175435 
L 221.186365 61.692988 
L 221.259214 61.692988 
L 221.344888 59.919812 
L 221.378551 59.919812 
L 221.482277 57.792 
L 221.558309 57.792 
L 221.610058 56.373459 
L 221.718636 56.373459 
L 221.795549 54.954918 
L 221.856975 54.954918 
L 221.916991 53.891012 
L 222.062894 53.891012 
L 222.154559 53.181741 
L 229.251938 53.181741 
L 229.28715 51.408565 
L 229.418408 51.408565 
L 229.503115 50.699294 
L 229.576168 50.699294 
L 229.576168 50.344659 
L 229.796823 50.344659 
L 229.803192 49.635388 
L 229.913113 49.635388 
L 229.913113 49.280753 
L 230.039696 49.280753 
L 230.118919 47.507576 
L 230.155671 47.507576 
L 230.203654 46.443671 
L 230.272876 46.443671 
L 230.371601 43.961224 
L 230.429049 43.961224 
L 230.523513 42.542682 
L 230.633506 42.542682 
L 230.633506 42.188047 
L 230.749294 42.188047 
L 230.853086 39.7056 
L 230.875279 39.7056 
L 230.96529 38.287059 
L 231.01312 38.287059 
L 231.044069 36.868518 
L 231.2276 36.868518 
L 231.257094 36.159247 
L 231.380467 36.159247 
L 231.380467 35.804612 
L 235.924196 35.804612 
L 235.924196 35.449976 
L 236.2123 35.449976 
L 236.2123 35.095341 
L 236.558137 35.095341 
L 236.665663 34.386071 
L 236.699622 34.386071 
L 236.726084 33.6768 
L 236.904826 33.6768 
L 236.904826 33.322165 
L 237.052402 33.322165 
L 237.131015 31.903624 
L 237.190231 31.903624 
L 237.267736 31.194353 
L 237.301962 31.194353 
L 237.401876 30.485082 
L 237.448852 30.485082 
L 237.540607 29.775812 
L 241.319658 29.775812 
L 241.319658 29.421176 
L 241.698384 29.421176 
L 241.799197 28.711906 
L 241.855904 28.711906 
L 241.855904 28.357271 
L 242.053664 28.357271 
L 242.053664 28.002635 
L 245.84967 28.002635 
L 245.84967 27.648 
L 360.8064 27.648 
L 360.8064 27.648 
" style="fill:none;stroke:#000080;stroke-linecap:square;stroke-width:1.5;"/>
   </g>
   <g id="line2d_36">
    <defs>
     <path d="M 0 6 
C 1.591219 6 3.117479 5.367802 4.242641 4.242641 
C 5.367802 3.117479 6 1.591219 6 0 
C 6 -1.591219 5.367802 -3.117479 4.242641 -4.242641 
C 3.117479 -5.367802 1.591219 -6 0 -6 
C -1.591219 -6 -3.117479 -5.367802 -4.242641 -4.242641 
C -5.367802 -3.117479 -6 -1.591219 -6 0 
C -6 1.591219 -5.367802 3.117479 -4.242641 4.242641 
C -3.117479 5.367802 -1.591219 6 0 6 
z
" id="m8de6c0055f" style="stroke:#000080;stroke-width:1.5;"/>
    </defs>
    <g>
     <use style="fill-opacity:0;stroke:#000080;stroke-width:1.5;" x="179.771814" xlink:href="#m8de6c0055f" y="273.055624"/>
     <use style="fill-opacity:0;stroke:#000080;stroke-width:1.5;" x="202.61646" xlink:href="#m8de6c0055f" y="103.185318"/>
     <use style="fill-opacity:0;stroke:#000080;stroke-width:1.5;" x="245.84967" xlink:href="#m8de6c0055f" y="28.002635"/>
     <use style="fill-opacity:0;stroke:#000080;stroke-width:1.5;" x="245.84967" xlink:href="#m8de6c0055f" y="27.648"/>
     <use style="fill-opacity:0;stroke:#000080;stroke-width:1.5;" x="360.8064" xlink:href="#m8de6c0055f" y="27.648"/>
    </g>
   </g>
   <g id="line2d_37">
    <path style="fill:none;stroke:#000080;stroke-linecap:square;stroke-width:1.5;"/>
    <g/>
   </g>
   <g id="line2d_38">
    <path clip-path="url(#p721d9f7214)" d="M 213.633352 99.638965 
" style="fill:none;stroke:#000080;stroke-linecap:square;stroke-width:1.5;"/>
    <defs>
     <path d="M -12 12 
L 12 -12 
M -12 -12 
L 12 12 
" id="md94d07874c" style="stroke:#000080;"/>
    </defs>
    <g clip-path="url(#p721d9f7214)">
     <use style="fill:#000080;stroke:#000080;" x="213.633352" xlink:href="#md94d07874c" y="99.638965"/>
    </g>
   </g>
   <g id="line2d_39">
    <defs>
     <path d="M 0 1.5 
C 0.397805 1.5 0.77937 1.341951 1.06066 1.06066 
C 1.341951 0.77937 1.5 0.397805 1.5 0 
C 1.5 -0.397805 1.341951 -0.77937 1.06066 -1.06066 
C 0.77937 -1.341951 0.397805 -1.5 0 -1.5 
C -0.397805 -1.5 -0.77937 -1.341951 -1.06066 -1.06066 
C -1.341951 -0.77937 -1.5 -0.397805 -1.5 0 
C -1.5 0.397805 -1.341951 0.77937 -1.06066 1.06066 
C -0.77937 1.341951 -0.397805 1.5 0 1.5 
z
" id="m8e8208acce" style="stroke:#ff00ff;"/>
    </defs>
    <g>
     <use style="fill:#ff00ff;stroke:#ff00ff;" x="209.84944" xlink:href="#m8e8208acce" y="267.026824"/>
     <use style="fill:#ff00ff;stroke:#ff00ff;" x="209.84944" xlink:href="#m8e8208acce" y="267.026824"/>
    </g>
   </g>
   <g id="line2d_40">
    <path d="M 84.142855 298.944 
L 84.142855 298.589365 
L 94.735529 298.589365 
L 94.735529 298.234729 
L 103.047088 298.234729 
L 103.047088 297.880094 
L 106.137884 297.880094 
L 106.137884 297.525459 
L 107.643612 297.525459 
L 107.643612 297.170824 
L 109.280431 297.170824 
L 109.280431 296.816188 
L 109.756698 296.816188 
L 109.756698 296.461553 
L 109.990385 296.461553 
L 109.990385 296.106918 
L 111.007473 296.106918 
L 111.007473 295.752282 
L 111.97238 295.752282 
L 111.97238 295.397647 
L 113.186449 295.397647 
L 113.186449 295.043012 
L 113.670063 295.043012 
L 113.670063 294.688376 
L 115.661605 294.688376 
L 115.661605 294.333741 
L 117.924947 294.333741 
L 117.924947 293.979106 
L 118.524569 293.979106 
L 118.524569 293.624471 
L 123.260379 293.624471 
L 123.260379 293.269835 
L 124.210942 293.269835 
L 124.210942 292.9152 
L 124.695386 292.9152 
L 124.695386 292.560565 
L 126.661432 292.560565 
L 126.661432 292.205929 
L 127.911368 292.205929 
L 127.911368 291.851294 
L 128.266313 291.851294 
L 128.310214 290.787388 
L 132.46399 290.787388 
L 132.46399 290.432753 
L 134.495147 290.432753 
L 134.495147 290.078118 
L 134.745971 290.078118 
L 134.745971 289.723482 
L 135.237805 289.723482 
L 135.237805 289.368847 
L 135.893741 289.368847 
L 135.893741 289.014212 
L 137.0583 289.014212 
L 137.0583 288.659576 
L 138.128947 288.659576 
L 138.128947 288.304941 
L 138.515235 288.304941 
L 138.59155 287.595671 
L 138.918715 287.595671 
L 138.918715 287.241035 
L 139.092553 287.241035 
L 139.092553 286.8864 
L 139.483965 286.8864 
L 139.483965 286.531765 
L 139.676658 286.531765 
L 139.676658 286.177129 
L 140.451292 286.177129 
L 140.451292 285.822494 
L 140.725251 285.822494 
L 140.725251 285.467859 
L 141.039908 285.467859 
L 141.039908 285.113224 
L 142.185595 285.113224 
L 142.290162 284.403953 
L 142.538777 284.403953 
L 142.538777 284.049318 
L 142.682299 284.049318 
L 142.723105 283.340047 
L 142.885449 283.340047 
L 142.885449 282.985412 
L 143.907854 282.985412 
L 143.907854 282.630776 
L 144.305496 282.630776 
L 144.305496 282.276141 
L 144.602918 282.276141 
L 144.71325 281.212235 
L 145.166126 281.212235 
L 145.184016 280.502965 
L 146.579379 280.502965 
L 146.678736 279.793694 
L 147.628773 279.793694 
L 147.628773 279.439059 
L 147.753975 279.439059 
L 147.753975 279.084424 
L 148.261802 279.084424 
L 148.261802 278.729788 
L 149.65155 278.729788 
L 149.65155 278.375153 
L 150.000827 278.375153 
L 150.000827 278.020518 
L 150.546523 278.020518 
L 150.613636 277.311247 
L 151.233056 277.311247 
L 151.233056 276.956612 
L 153.200785 276.956612 
L 153.200785 276.601976 
L 154.73613 276.601976 
L 154.73613 276.247341 
L 155.813163 276.247341 
L 155.813163 275.892706 
L 157.30716 275.892706 
L 157.363398 275.183435 
L 163.33528 275.183435 
L 163.33528 274.8288 
L 164.349858 274.8288 
L 164.349858 274.474165 
L 165.385963 274.474165 
L 165.385963 274.119529 
L 169.373521 274.119529 
L 169.373521 273.764894 
L 169.928705 273.764894 
L 169.928705 273.410259 
L 174.893692 273.410259 
L 174.893692 273.055624 
L 175.584799 273.055624 
L 175.584799 272.700988 
L 183.027769 272.700988 
L 183.027769 272.346353 
L 184.319413 272.346353 
L 184.319413 271.991718 
L 186.447553 271.991718 
L 186.447553 271.637082 
L 189.451064 271.637082 
L 189.451064 271.282447 
L 190.282392 271.282447 
L 190.282392 270.927812 
L 190.403983 270.927812 
L 190.403983 270.573176 
L 190.663966 270.573176 
L 190.663966 270.218541 
L 191.695057 270.218541 
L 191.695057 269.863906 
L 192.236391 269.863906 
L 192.236391 269.509271 
L 193.725422 269.509271 
L 193.725422 269.154635 
L 195.67054 269.154635 
L 195.67054 268.8 
L 201.521395 268.8 
L 201.521395 268.445365 
L 201.698641 268.445365 
L 201.698641 268.090729 
L 203.820713 268.090729 
L 203.820713 267.736094 
L 205.800331 267.736094 
L 205.800331 267.381459 
L 209.84944 267.381459 
L 209.84944 267.026824 
L 360.8064 267.026824 
L 360.8064 267.026824 
" style="fill:none;stroke:#ff00ff;stroke-linecap:square;stroke-width:1.5;"/>
   </g>
   <g id="line2d_41">
    <defs>
     <path d="M -0 8.485281 
L 5.091169 0 
L 0 -8.485281 
L -5.091169 -0 
z
" id="m681049c839" style="stroke:#ff00ff;stroke-linejoin:miter;stroke-width:1.5;"/>
    </defs>
    <g>
     <use style="fill-opacity:0;stroke:#ff00ff;stroke-linejoin:miter;stroke-width:1.5;" x="175.584799" xlink:href="#m681049c839" y="272.700988"/>
     <use style="fill-opacity:0;stroke:#ff00ff;stroke-linejoin:miter;stroke-width:1.5;" x="209.84944" xlink:href="#m681049c839" y="267.381459"/>
     <use style="fill-opacity:0;stroke:#ff00ff;stroke-linejoin:miter;stroke-width:1.5;" x="209.84944" xlink:href="#m681049c839" y="267.026824"/>
     <use style="fill-opacity:0;stroke:#ff00ff;stroke-linejoin:miter;stroke-width:1.5;" x="209.84944" xlink:href="#m681049c839" y="267.026824"/>
     <use style="fill-opacity:0;stroke:#ff00ff;stroke-linejoin:miter;stroke-width:1.5;" x="360.8064" xlink:href="#m681049c839" y="267.026824"/>
    </g>
   </g>
   <g id="line2d_42">
    <path style="fill:none;stroke:#ff00ff;stroke-linecap:square;stroke-width:1.5;"/>
    <g/>
   </g>
   <g id="line2d_43">
    <path clip-path="url(#p721d9f7214)" d="M 165.939815 274.119529 
" style="fill:none;stroke:#ff00ff;stroke-linecap:square;stroke-width:1.5;"/>
    <defs>
     <path d="M -12 12 
L 12 -12 
M -12 -12 
L 12 12 
" id="m619633463a" style="stroke:#ff00ff;"/>
    </defs>
    <g clip-path="url(#p721d9f7214)">
     <use style="fill:#ff00ff;stroke:#ff00ff;" x="165.939815" xlink:href="#m619633463a" y="274.119529"/>
    </g>
   </g>
   <g id="line2d_44">
    <path d="M 360.8064 267.026824 
L 380.514816 293.51808 
" style="fill:none;stroke:#ff00ff;stroke-linecap:square;stroke-width:1.5;"/>
    <g>
     <use style="fill-opacity:0;stroke:#ff00ff;stroke-linejoin:miter;stroke-width:1.5;" x="360.8064" xlink:href="#m681049c839" y="267.026824"/>
     <use style="fill-opacity:0;stroke:#ff00ff;stroke-linejoin:miter;stroke-width:1.5;" x="380.514816" xlink:href="#m681049c839" y="293.51808"/>
    </g>
   </g>
   <g id="line2d_45">
    <path d="M 360.8064 27.648 
L 380.514816 163.296 
" style="fill:none;stroke:#000080;stroke-linecap:square;stroke-width:1.5;"/>
    <g>
     <use style="fill-opacity:0;stroke:#000080;stroke-width:1.5;" x="360.8064" xlink:href="#m8de6c0055f" y="27.648"/>
     <use style="fill-opacity:0;stroke:#000080;stroke-width:1.5;" x="380.514816" xlink:href="#m8de6c0055f" y="163.296"/>
    </g>
   </g>
   <g id="line2d_46">
    <path d="M 360.8064 298.944 
L 360.8064 27.648 
" style="fill:none;stroke:#000000;stroke-linecap:square;stroke-width:1.5;"/>
   </g>
   <g id="patch_3">
    <path d="M 57.6 298.944 
L 360.8064 298.944 
" style="fill:none;stroke:#000000;stroke-linecap:square;stroke-linejoin:miter;stroke-width:0.8;"/>
   </g>
   <g id="patch_4">
    <path d="M 57.6 27.648 
L 360.8064 27.648 
" style="fill:none;stroke:#000000;stroke-linecap:square;stroke-linejoin:miter;stroke-width:0.8;"/>
   </g>
   <g id="text_13">
    <!-- cma.fmin  -->
    <g transform="translate(386.578944 297.381205)scale(0.14 -0.14)">
     <use xlink:href="#DejaVuSans-63"/>
     <use x="54.980469" xlink:href="#DejaVuSans-6d"/>
     <use x="152.392578" xlink:href="#DejaVuSans-61"/>
     <use x="213.671875" xlink:href="#DejaVuSans-2e"/>
     <use x="245.458984" xlink:href="#DejaVuSans-66"/>
     <use x="280.664062" xlink:href="#DejaVuSans-6d"/>
     <use x="378.076172" xlink:href="#DejaVuSans-69"/>
     <use x="405.859375" xlink:href="#DejaVuSans-6e"/>
     <use x="469.238281" xlink:href="#DejaVuSans-20"/>
    </g>
   </g>
   <g id="text_14">
    <!-- different -->
    <g transform="translate(386.578944 167.159125)scale(0.14 -0.14)">
     <use xlink:href="#DejaVuSans-64"/>
     <use x="63.476562" xlink:href="#DejaVuSans-69"/>
     <use x="91.259766" xlink:href="#DejaVuSans-66"/>
     <use x="126.464844" xlink:href="#DejaVuSans-66"/>
     <use x="161.669922" xlink:href="#DejaVuSans-65"/>
     <use x="223.193359" xlink:href="#DejaVuSans-72"/>
     <use x="262.056641" xlink:href="#DejaVuSans-65"/>
     <use x="323.580078" xlink:href="#DejaVuSans-6e"/>
     <use x="386.958984" xlink:href="#DejaVuSans-74"/>
    </g>
   </g>
   <g id="text_15">
    <!-- best 2009 -->
    <g transform="translate(386.578944 36.937045)scale(0.14 -0.14)">
     <defs>
      <path d="M 3116 1747 
Q 3116 2381 2855 2742 
Q 2594 3103 2138 3103 
Q 1681 3103 1420 2742 
Q 1159 2381 1159 1747 
Q 1159 1113 1420 752 
Q 1681 391 2138 391 
Q 2594 391 2855 752 
Q 3116 1113 3116 1747 
z
M 1159 2969 
Q 1341 3281 1617 3432 
Q 1894 3584 2278 3584 
Q 2916 3584 3314 3078 
Q 3713 2572 3713 1747 
Q 3713 922 3314 415 
Q 2916 -91 2278 -91 
Q 1894 -91 1617 61 
Q 1341 213 1159 525 
L 1159 0 
L 581 0 
L 581 4863 
L 1159 4863 
L 1159 2969 
z
" id="DejaVuSans-62" transform="scale(0.015625)"/>
      <path d="M 703 97 
L 703 672 
Q 941 559 1184 500 
Q 1428 441 1663 441 
Q 2288 441 2617 861 
Q 2947 1281 2994 2138 
Q 2813 1869 2534 1725 
Q 2256 1581 1919 1581 
Q 1219 1581 811 2004 
Q 403 2428 403 3163 
Q 403 3881 828 4315 
Q 1253 4750 1959 4750 
Q 2769 4750 3195 4129 
Q 3622 3509 3622 2328 
Q 3622 1225 3098 567 
Q 2575 -91 1691 -91 
Q 1453 -91 1209 -44 
Q 966 3 703 97 
z
M 1959 2075 
Q 2384 2075 2632 2365 
Q 2881 2656 2881 3163 
Q 2881 3666 2632 3958 
Q 2384 4250 1959 4250 
Q 1534 4250 1286 3958 
Q 1038 3666 1038 3163 
Q 1038 2656 1286 2365 
Q 1534 2075 1959 2075 
z
" id="DejaVuSans-39" transform="scale(0.015625)"/>
     </defs>
     <use xlink:href="#DejaVuSans-62"/>
     <use x="63.476562" xlink:href="#DejaVuSans-65"/>
     <use x="125" xlink:href="#DejaVuSans-73"/>
     <use x="177.099609" xlink:href="#DejaVuSans-74"/>
     <use x="216.308594" xlink:href="#DejaVuSans-20"/>
     <use x="248.095703" xlink:href="#DejaVuSans-32"/>
     <use x="311.71875" xlink:href="#DejaVuSans-30"/>
     <use x="375.341797" xlink:href="#DejaVuSans-30"/>
     <use x="438.964844" xlink:href="#DejaVuSans-39"/>
    </g>
   </g>
   <g id="text_16">
    <!-- bbob f3, 10-D -->
    <g transform="translate(60.632064 38.111366)scale(0.102 -0.102)">
     <defs>
      <path d="M 2597 2516 
Q 3050 2419 3304 2112 
Q 3559 1806 3559 1356 
Q 3559 666 3084 287 
Q 2609 -91 1734 -91 
Q 1441 -91 1130 -33 
Q 819 25 488 141 
L 488 750 
Q 750 597 1062 519 
Q 1375 441 1716 441 
Q 2309 441 2620 675 
Q 2931 909 2931 1356 
Q 2931 1769 2642 2001 
Q 2353 2234 1838 2234 
L 1294 2234 
L 1294 2753 
L 1863 2753 
Q 2328 2753 2575 2939 
Q 2822 3125 2822 3475 
Q 2822 3834 2567 4026 
Q 2313 4219 1838 4219 
Q 1578 4219 1281 4162 
Q 984 4106 628 3988 
L 628 4550 
Q 988 4650 1302 4700 
Q 1616 4750 1894 4750 
Q 2613 4750 3031 4423 
Q 3450 4097 3450 3541 
Q 3450 3153 3228 2886 
Q 3006 2619 2597 2516 
z
" id="DejaVuSans-33" transform="scale(0.015625)"/>
      <path d="M 1259 4147 
L 1259 519 
L 2022 519 
Q 2988 519 3436 956 
Q 3884 1394 3884 2338 
Q 3884 3275 3436 3711 
Q 2988 4147 2022 4147 
L 1259 4147 
z
M 628 4666 
L 1925 4666 
Q 3281 4666 3915 4102 
Q 4550 3538 4550 2338 
Q 4550 1131 3912 565 
Q 3275 0 1925 0 
L 628 0 
L 628 4666 
z
" id="DejaVuSans-44" transform="scale(0.015625)"/>
     </defs>
     <use xlink:href="#DejaVuSans-62"/>
     <use x="63.476562" xlink:href="#DejaVuSans-62"/>
     <use x="126.953125" xlink:href="#DejaVuSans-6f"/>
     <use x="188.134766" xlink:href="#DejaVuSans-62"/>
     <use x="251.611328" xlink:href="#DejaVuSans-20"/>
     <use x="283.398438" xlink:href="#DejaVuSans-66"/>
     <use x="318.603516" xlink:href="#DejaVuSans-33"/>
     <use x="382.226562" xlink:href="#DejaVuSans-2c"/>
     <use x="414.013672" xlink:href="#DejaVuSans-20"/>
     <use x="445.800781" xlink:href="#DejaVuSans-31"/>
     <use x="509.423828" xlink:href="#DejaVuSans-30"/>
     <use x="573.046875" xlink:href="#DejaVuSans-2d"/>
     <use x="609.130859" xlink:href="#DejaVuSans-44"/>
    </g>
    <!-- 51 targets: 100..1e-08 -->
    <g transform="translate(60.632064 49.533135)scale(0.102 -0.102)">
     <defs>
      <path d="M 691 4666 
L 3169 4666 
L 3169 4134 
L 1269 4134 
L 1269 2991 
Q 1406 3038 1543 3061 
Q 1681 3084 1819 3084 
Q 2600 3084 3056 2656 
Q 3513 2228 3513 1497 
Q 3513 744 3044 326 
Q 2575 -91 1722 -91 
Q 1428 -91 1123 -41 
Q 819 9 494 109 
L 494 744 
Q 775 591 1075 516 
Q 1375 441 1709 441 
Q 2250 441 2565 725 
Q 2881 1009 2881 1497 
Q 2881 1984 2565 2268 
Q 2250 2553 1709 2553 
Q 1456 2553 1204 2497 
Q 953 2441 691 2322 
L 691 4666 
z
" id="DejaVuSans-35" transform="scale(0.015625)"/>
      <path d="M 750 794 
L 1409 794 
L 1409 0 
L 750 0 
L 750 794 
z
M 750 3309 
L 1409 3309 
L 1409 2516 
L 750 2516 
L 750 3309 
z
" id="DejaVuSans-3a" transform="scale(0.015625)"/>
     </defs>
     <use xlink:href="#DejaVuSans-35"/>
     <use x="63.623047" xlink:href="#DejaVuSans-31"/>
     <use x="127.246094" xlink:href="#DejaVuSans-20"/>
     <use x="159.033203" xlink:href="#DejaVuSans-74"/>
     <use x="198.242188" xlink:href="#DejaVuSans-61"/>
     <use x="259.521484" xlink:href="#DejaVuSans-72"/>
     <use x="298.884766" xlink:href="#DejaVuSans-67"/>
     <use x="362.361328" xlink:href="#DejaVuSans-65"/>
     <use x="423.884766" xlink:href="#DejaVuSans-74"/>
     <use x="463.09375" xlink:href="#DejaVuSans-73"/>
     <use x="515.193359" xlink:href="#DejaVuSans-3a"/>
     <use x="548.884766" xlink:href="#DejaVuSans-20"/>
     <use x="580.671875" xlink:href="#DejaVuSans-31"/>
     <use x="644.294922" xlink:href="#DejaVuSans-30"/>
     <use x="707.917969" xlink:href="#DejaVuSans-30"/>
     <use x="771.541016" xlink:href="#DejaVuSans-2e"/>
     <use x="803.328125" xlink:href="#DejaVuSans-2e"/>
     <use x="835.115234" xlink:href="#DejaVuSans-31"/>
     <use x="898.738281" xlink:href="#DejaVuSans-65"/>
     <use x="960.261719" xlink:href="#DejaVuSans-2d"/>
     <use x="996.345703" xlink:href="#DejaVuSans-30"/>
     <use x="1059.96875" xlink:href="#DejaVuSans-38"/>
    </g>
    <!-- 15 instances -->
    <g transform="translate(60.632064 60.954904)scale(0.102 -0.102)">
     <use xlink:href="#DejaVuSans-31"/>
     <use x="63.623047" xlink:href="#DejaVuSans-35"/>
     <use x="127.246094" xlink:href="#DejaVuSans-20"/>
     <use x="159.033203" xlink:href="#DejaVuSans-69"/>
     <use x="186.816406" xlink:href="#DejaVuSans-6e"/>
     <use x="250.195312" xlink:href="#DejaVuSans-73"/>
     <use x="302.294922" xlink:href="#DejaVuSans-74"/>
     <use x="341.503906" xlink:href="#DejaVuSans-61"/>
     <use x="402.783203" xlink:href="#DejaVuSans-6e"/>
     <use x="466.162109" xlink:href="#DejaVuSans-63"/>
     <use x="521.142578" xlink:href="#DejaVuSans-65"/>
     <use x="582.666016" xlink:href="#DejaVuSans-73"/>
    </g>
   </g>
   <g id="text_17">
    <!-- v2.6 -->
    <g style="fill:#808080;" transform="translate(198.292262 294.151352)scale(0.1 -0.1)">
     <use xlink:href="#DejaVuSans-76"/>
     <use x="59.179688" xlink:href="#DejaVuSans-32"/>
     <use x="122.802734" xlink:href="#DejaVuSans-2e"/>
     <use x="154.589844" xlink:href="#DejaVuSans-36"/>
    </g>
   </g>
   <g id="text_18">
    <!-- 3 Rastrigin separable -->
    <g transform="translate(102.792262 21.648)scale(0.2 -0.2)">
     <defs>
      <path d="M 2841 2188 
Q 3044 2119 3236 1894 
Q 3428 1669 3622 1275 
L 4263 0 
L 3584 0 
L 2988 1197 
Q 2756 1666 2539 1819 
Q 2322 1972 1947 1972 
L 1259 1972 
L 1259 0 
L 628 0 
L 628 4666 
L 2053 4666 
Q 2853 4666 3247 4331 
Q 3641 3997 3641 3322 
Q 3641 2881 3436 2590 
Q 3231 2300 2841 2188 
z
M 1259 4147 
L 1259 2491 
L 2053 2491 
Q 2509 2491 2742 2702 
Q 2975 2913 2975 3322 
Q 2975 3731 2742 3939 
Q 2509 4147 2053 4147 
L 1259 4147 
z
" id="DejaVuSans-52" transform="scale(0.015625)"/>
     </defs>
     <use xlink:href="#DejaVuSans-33"/>
     <use x="63.623047" xlink:href="#DejaVuSans-20"/>
     <use x="95.410156" xlink:href="#DejaVuSans-52"/>
     <use x="162.642578" xlink:href="#DejaVuSans-61"/>
     <use x="223.921875" xlink:href="#DejaVuSans-73"/>
     <use x="276.021484" xlink:href="#DejaVuSans-74"/>
     <use x="315.230469" xlink:href="#DejaVuSans-72"/>
     <use x="356.34375" xlink:href="#DejaVuSans-69"/>
     <use x="384.126953" xlink:href="#DejaVuSans-67"/>
     <use x="447.603516" xlink:href="#DejaVuSans-69"/>
     <use x="475.386719" xlink:href="#DejaVuSans-6e"/>
     <use x="538.765625" xlink:href="#DejaVuSans-20"/>
     <use x="570.552734" xlink:href="#DejaVuSans-73"/>
     <use x="622.652344" xlink:href="#DejaVuSans-65"/>
     <use x="684.175781" xlink:href="#DejaVuSans-70"/>
     <use x="747.652344" xlink:href="#DejaVuSans-61"/>
     <use x="808.931641" xlink:href="#DejaVuSans-72"/>
     <use x="850.044922" xlink:href="#DejaVuSans-61"/>
     <use x="911.324219" xlink:href="#DejaVuSans-62"/>
     <use x="974.800781" xlink:href="#DejaVuSans-6c"/>
     <use x="1002.583984" xlink:href="#DejaVuSans-65"/>
    </g>
   </g>
  </g>
 </g>
 <defs>
  <clipPath id="p721d9f7214">
   <rect height="271.296" width="303.2064" x="57.6" y="27.648"/>
  </clipPath>
 </defs>
</svg>
