<?xml version="1.0" encoding="utf-8" standalone="no"?>
<!DOCTYPE svg PUBLIC "-//W3C//DTD SVG 1.1//EN"
  "http://www.w3.org/Graphics/SVG/1.1/DTD/svg11.dtd">
<svg height="345.6pt" version="1.1" viewBox="0 0 460.8 345.6" width="460.8pt" xmlns="http://www.w3.org/2000/svg" xmlns:xlink="http://www.w3.org/1999/xlink">
 <metadata>
  <rdf:RDF xmlns:cc="http://creativecommons.org/ns#" xmlns:dc="http://purl.org/dc/elements/1.1/" xmlns:rdf="http://www.w3.org/1999/02/22-rdf-syntax-ns#">
   <cc:Work>
    <dc:type rdf:resource="http://purl.org/dc/dcmitype/StillImage"/>
    <dc:date>2022-05-22T15:10:48.051136</dc:date>
    <dc:format>image/svg+xml</dc:format>
    <dc:creator>
     <cc:Agent>
      <dc:title>Matplotlib v3.4.3, https://matplotlib.org/</dc:title>
     </cc:Agent>
    </dc:creator>
   </cc:Work>
  </rdf:RDF>
 </metadata>
 <defs>
  <style type="text/css">*{stroke-linecap:butt;stroke-linejoin:round;}</style>
 </defs>
 <g id="figure_1">
  <g id="patch_1">
   <path d="M 0 345.6 
L 460.8 345.6 
L 460.8 0 
L 0 0 
z
" style="fill:#ffffff;"/>
  </g>
  <g id="axes_1">
   <g id="patch_2">
    <path d="M 57.6 298.944 
L 360.8064 298.944 
L 360.8064 27.648 
L 57.6 27.648 
z
" style="fill:#ffffff;"/>
   </g>
   <g id="line2d_1">
    <path d="M 89.668958 298.944 
L 89.668958 293.624471 
L 94.205591 293.624471 
L 94.205591 288.304941 
L 95.503454 288.304941 
L 95.503454 272.346353 
L 108.542628 272.346353 
L 108.542628 267.026824 
L 112.487797 267.026824 
L 112.487797 261.707294 
L 113.954374 261.707294 
L 113.954374 256.387765 
L 114.872193 256.387765 
L 114.872193 251.068235 
L 116.170056 251.068235 
L 116.170056 245.748706 
L 116.583514 245.748706 
L 116.583514 235.109647 
L 117.384126 235.109647 
L 117.384126 229.790118 
L 118.524569 229.790118 
L 118.524569 224.470588 
L 119.24818 224.470588 
L 119.24818 219.151059 
L 119.599808 219.151059 
L 119.599808 213.831529 
L 119.944983 213.831529 
L 119.944983 208.512 
L 120.28394 208.512 
L 120.28394 203.192471 
L 120.944062 203.192471 
L 120.944062 197.872941 
L 121.265635 197.872941 
L 121.265635 192.553412 
L 121.892744 192.553412 
L 121.892744 187.233882 
L 122.19863 187.233882 
L 122.19863 181.914353 
L 122.795872 181.914353 
L 122.795872 176.594824 
L 123.374735 176.594824 
L 123.374735 171.275294 
L 123.657621 171.275294 
L 123.657621 165.955765 
L 123.936316 165.955765 
L 123.936316 160.636235 
L 124.210942 160.636235 
L 124.210942 155.316706 
L 124.481616 155.316706 
L 124.481616 149.997176 
L 125.271028 149.997176 
L 125.271028 144.677647 
L 125.526971 144.677647 
L 125.526971 139.358118 
L 126.028642 139.358118 
L 126.028642 134.038588 
L 126.274549 134.038588 
L 126.274549 128.719059 
L 126.756923 128.719059 
L 126.756923 123.399529 
L 126.993549 123.399529 
L 126.993549 118.08 
L 127.227236 118.08 
L 127.227236 112.760471 
L 127.458055 112.760471 
L 127.458055 107.440941 
L 127.911368 107.440941 
L 127.911368 102.121412 
L 128.354013 102.121412 
L 128.354013 96.801882 
L 128.786481 96.801882 
L 128.786481 86.162824 
L 129.209231 86.162824 
L 129.209231 80.843294 
L 129.417095 80.843294 
L 129.417095 75.523765 
L 129.826058 75.523765 
L 129.826058 70.204235 
L 130.226319 70.204235 
L 130.226319 64.884706 
L 130.4233 64.884706 
L 130.4233 59.565176 
L 130.811181 59.565176 
L 130.811181 54.245647 
L 131.002163 54.245647 
L 131.002163 48.926118 
L 131.191226 48.926118 
L 131.191226 43.606588 
L 131.378407 43.606588 
L 131.378407 38.287059 
L 131.563744 38.287059 
L 131.563744 32.967529 
L 131.929028 32.967529 
L 131.929028 27.648 
L 360.8064 27.648 
" style="fill:none;stroke:#f5deb3;stroke-linecap:square;stroke-width:4;"/>
   </g>
   <g id="line2d_2">
    <defs>
     <path d="M -0 7.778175 
L 7.778175 0 
L 0 -7.778175 
L -7.778175 -0 
z
" id="m9ab87bae89" style="stroke:#f5deb3;stroke-linejoin:miter;stroke-width:1.5;"/>
    </defs>
    <g>
     <use style="fill:#f5deb3;stroke:#f5deb3;stroke-linejoin:miter;stroke-width:1.5;" x="124.481616" xlink:href="#m9ab87bae89" y="149.997176"/>
     <use style="fill:#f5deb3;stroke:#f5deb3;stroke-linejoin:miter;stroke-width:1.5;" x="131.929028" xlink:href="#m9ab87bae89" y="32.967529"/>
     <use style="fill:#f5deb3;stroke:#f5deb3;stroke-linejoin:miter;stroke-width:1.5;" x="131.929028" xlink:href="#m9ab87bae89" y="27.648"/>
     <use style="fill:#f5deb3;stroke:#f5deb3;stroke-linejoin:miter;stroke-width:1.5;" x="131.929028" xlink:href="#m9ab87bae89" y="27.648"/>
     <use style="fill:#f5deb3;stroke:#f5deb3;stroke-linejoin:miter;stroke-width:1.5;" x="360.8064" xlink:href="#m9ab87bae89" y="27.648"/>
    </g>
   </g>
   <g id="line2d_3">
    <path style="fill:none;stroke:#f5deb3;stroke-linecap:square;stroke-width:4;"/>
    <g/>
   </g>
   <g id="line2d_4">
    <path d="M 360.8064 27.648 
L 380.514816 33.07392 
" style="fill:none;stroke:#f5deb3;stroke-linecap:square;stroke-width:4;"/>
    <g>
     <use style="fill:#f5deb3;stroke:#f5deb3;stroke-linejoin:miter;stroke-width:1.5;" x="360.8064" xlink:href="#m9ab87bae89" y="27.648"/>
     <use style="fill:#f5deb3;stroke:#f5deb3;stroke-linejoin:miter;stroke-width:1.5;" x="380.514816" xlink:href="#m9ab87bae89" y="33.07392"/>
    </g>
   </g>
   <g id="matplotlib.axis_1">
    <g id="xtick_1">
     <g id="line2d_5">
      <path clip-path="url(#p6f61d04e47)" d="M 57.6 298.944 
L 57.6 27.648 
" style="fill:none;stroke:#b0b0b0;stroke-linecap:square;stroke-width:0.8;"/>
     </g>
     <g id="line2d_6">
      <defs>
       <path d="M 0 0 
L 0 3.5 
" id="m8f5c7feae4" style="stroke:#000000;stroke-width:0.8;"/>
      </defs>
      <g>
       <use style="stroke:#000000;stroke-width:0.8;" x="57.6" xlink:href="#m8f5c7feae4" y="298.944"/>
      </g>
     </g>
     <g id="text_1">
      <!-- 0 -->
      <g transform="translate(52.191875 318.861344)scale(0.17 -0.17)">
       <defs>
        <path d="M 2034 4250 
Q 1547 4250 1301 3770 
Q 1056 3291 1056 2328 
Q 1056 1369 1301 889 
Q 1547 409 2034 409 
Q 2525 409 2770 889 
Q 3016 1369 3016 2328 
Q 3016 3291 2770 3770 
Q 2525 4250 2034 4250 
z
M 2034 4750 
Q 2819 4750 3233 4129 
Q 3647 3509 3647 2328 
Q 3647 1150 3233 529 
Q 2819 -91 2034 -91 
Q 1250 -91 836 529 
Q 422 1150 422 2328 
Q 422 3509 836 4129 
Q 1250 4750 2034 4750 
z
" id="DejaVuSans-30" transform="scale(0.015625)"/>
       </defs>
       <use xlink:href="#DejaVuSans-30"/>
      </g>
     </g>
    </g>
    <g id="xtick_2">
     <g id="line2d_7">
      <path clip-path="url(#p6f61d04e47)" d="M 144.2304 298.944 
L 144.2304 27.648 
" style="fill:none;stroke:#b0b0b0;stroke-linecap:square;stroke-width:0.8;"/>
     </g>
     <g id="line2d_8">
      <g>
       <use style="stroke:#000000;stroke-width:0.8;" x="144.2304" xlink:href="#m8f5c7feae4" y="298.944"/>
      </g>
     </g>
     <g id="text_2">
      <!-- 2 -->
      <g transform="translate(138.822275 318.861344)scale(0.17 -0.17)">
       <defs>
        <path d="M 1228 531 
L 3431 531 
L 3431 0 
L 469 0 
L 469 531 
Q 828 903 1448 1529 
Q 2069 2156 2228 2338 
Q 2531 2678 2651 2914 
Q 2772 3150 2772 3378 
Q 2772 3750 2511 3984 
Q 2250 4219 1831 4219 
Q 1534 4219 1204 4116 
Q 875 4013 500 3803 
L 500 4441 
Q 881 4594 1212 4672 
Q 1544 4750 1819 4750 
Q 2544 4750 2975 4387 
Q 3406 4025 3406 3419 
Q 3406 3131 3298 2873 
Q 3191 2616 2906 2266 
Q 2828 2175 2409 1742 
Q 1991 1309 1228 531 
z
" id="DejaVuSans-32" transform="scale(0.015625)"/>
       </defs>
       <use xlink:href="#DejaVuSans-32"/>
      </g>
     </g>
    </g>
    <g id="xtick_3">
     <g id="line2d_9">
      <path clip-path="url(#p6f61d04e47)" d="M 230.8608 298.944 
L 230.8608 27.648 
" style="fill:none;stroke:#b0b0b0;stroke-linecap:square;stroke-width:0.8;"/>
     </g>
     <g id="line2d_10">
      <g>
       <use style="stroke:#000000;stroke-width:0.8;" x="230.8608" xlink:href="#m8f5c7feae4" y="298.944"/>
      </g>
     </g>
     <g id="text_3">
      <!-- 4 -->
      <g transform="translate(225.452675 318.861344)scale(0.17 -0.17)">
       <defs>
        <path d="M 2419 4116 
L 825 1625 
L 2419 1625 
L 2419 4116 
z
M 2253 4666 
L 3047 4666 
L 3047 1625 
L 3713 1625 
L 3713 1100 
L 3047 1100 
L 3047 0 
L 2419 0 
L 2419 1100 
L 313 1100 
L 313 1709 
L 2253 4666 
z
" id="DejaVuSans-34" transform="scale(0.015625)"/>
       </defs>
       <use xlink:href="#DejaVuSans-34"/>
      </g>
     </g>
    </g>
    <g id="xtick_4">
     <g id="line2d_11">
      <path clip-path="url(#p6f61d04e47)" d="M 317.4912 298.944 
L 317.4912 27.648 
" style="fill:none;stroke:#b0b0b0;stroke-linecap:square;stroke-width:0.8;"/>
     </g>
     <g id="line2d_12">
      <g>
       <use style="stroke:#000000;stroke-width:0.8;" x="317.4912" xlink:href="#m8f5c7feae4" y="298.944"/>
      </g>
     </g>
     <g id="text_4">
      <!-- 6 -->
      <g transform="translate(312.083075 318.861344)scale(0.17 -0.17)">
       <defs>
        <path d="M 2113 2584 
Q 1688 2584 1439 2293 
Q 1191 2003 1191 1497 
Q 1191 994 1439 701 
Q 1688 409 2113 409 
Q 2538 409 2786 701 
Q 3034 994 3034 1497 
Q 3034 2003 2786 2293 
Q 2538 2584 2113 2584 
z
M 3366 4563 
L 3366 3988 
Q 3128 4100 2886 4159 
Q 2644 4219 2406 4219 
Q 1781 4219 1451 3797 
Q 1122 3375 1075 2522 
Q 1259 2794 1537 2939 
Q 1816 3084 2150 3084 
Q 2853 3084 3261 2657 
Q 3669 2231 3669 1497 
Q 3669 778 3244 343 
Q 2819 -91 2113 -91 
Q 1303 -91 875 529 
Q 447 1150 447 2328 
Q 447 3434 972 4092 
Q 1497 4750 2381 4750 
Q 2619 4750 2861 4703 
Q 3103 4656 3366 4563 
z
" id="DejaVuSans-36" transform="scale(0.015625)"/>
       </defs>
       <use xlink:href="#DejaVuSans-36"/>
      </g>
     </g>
    </g>
    <g id="xtick_5">
     <g id="line2d_13">
      <path clip-path="url(#p6f61d04e47)" d="M 100.9152 298.944 
L 100.9152 27.648 
" style="fill:none;stroke:#b0b0b0;stroke-linecap:square;stroke-width:0.8;"/>
     </g>
     <g id="line2d_14">
      <defs>
       <path d="M 0 0 
L 0 2 
" id="m12f5a0713c" style="stroke:#000000;stroke-width:0.6;"/>
      </defs>
      <g>
       <use style="stroke:#000000;stroke-width:0.6;" x="100.9152" xlink:href="#m12f5a0713c" y="298.944"/>
      </g>
     </g>
    </g>
    <g id="xtick_6">
     <g id="line2d_15">
      <path clip-path="url(#p6f61d04e47)" d="M 187.5456 298.944 
L 187.5456 27.648 
" style="fill:none;stroke:#b0b0b0;stroke-linecap:square;stroke-width:0.8;"/>
     </g>
     <g id="line2d_16">
      <g>
       <use style="stroke:#000000;stroke-width:0.6;" x="187.5456" xlink:href="#m12f5a0713c" y="298.944"/>
      </g>
     </g>
    </g>
    <g id="xtick_7">
     <g id="line2d_17">
      <path clip-path="url(#p6f61d04e47)" d="M 274.176 298.944 
L 274.176 27.648 
" style="fill:none;stroke:#b0b0b0;stroke-linecap:square;stroke-width:0.8;"/>
     </g>
     <g id="line2d_18">
      <g>
       <use style="stroke:#000000;stroke-width:0.6;" x="274.176" xlink:href="#m12f5a0713c" y="298.944"/>
      </g>
     </g>
    </g>
    <g id="xtick_8">
     <g id="line2d_19">
      <path clip-path="url(#p6f61d04e47)" d="M 360.8064 298.944 
L 360.8064 27.648 
" style="fill:none;stroke:#b0b0b0;stroke-linecap:square;stroke-width:0.8;"/>
     </g>
     <g id="line2d_20">
      <g>
       <use style="stroke:#000000;stroke-width:0.6;" x="360.8064" xlink:href="#m12f5a0713c" y="298.944"/>
      </g>
     </g>
    </g>
    <g id="text_5">
     <!-- log10(# f-evals / dimension) -->
     <g transform="translate(88.823278 339.314156)scale(0.17 -0.17)">
      <defs>
       <path d="M 603 4863 
L 1178 4863 
L 1178 0 
L 603 0 
L 603 4863 
z
" id="DejaVuSans-6c" transform="scale(0.015625)"/>
       <path d="M 1959 3097 
Q 1497 3097 1228 2736 
Q 959 2375 959 1747 
Q 959 1119 1226 758 
Q 1494 397 1959 397 
Q 2419 397 2687 759 
Q 2956 1122 2956 1747 
Q 2956 2369 2687 2733 
Q 2419 3097 1959 3097 
z
M 1959 3584 
Q 2709 3584 3137 3096 
Q 3566 2609 3566 1747 
Q 3566 888 3137 398 
Q 2709 -91 1959 -91 
Q 1206 -91 779 398 
Q 353 888 353 1747 
Q 353 2609 779 3096 
Q 1206 3584 1959 3584 
z
" id="DejaVuSans-6f" transform="scale(0.015625)"/>
       <path d="M 2906 1791 
Q 2906 2416 2648 2759 
Q 2391 3103 1925 3103 
Q 1463 3103 1205 2759 
Q 947 2416 947 1791 
Q 947 1169 1205 825 
Q 1463 481 1925 481 
Q 2391 481 2648 825 
Q 2906 1169 2906 1791 
z
M 3481 434 
Q 3481 -459 3084 -895 
Q 2688 -1331 1869 -1331 
Q 1566 -1331 1297 -1286 
Q 1028 -1241 775 -1147 
L 775 -588 
Q 1028 -725 1275 -790 
Q 1522 -856 1778 -856 
Q 2344 -856 2625 -561 
Q 2906 -266 2906 331 
L 2906 616 
Q 2728 306 2450 153 
Q 2172 0 1784 0 
Q 1141 0 747 490 
Q 353 981 353 1791 
Q 353 2603 747 3093 
Q 1141 3584 1784 3584 
Q 2172 3584 2450 3431 
Q 2728 3278 2906 2969 
L 2906 3500 
L 3481 3500 
L 3481 434 
z
" id="DejaVuSans-67" transform="scale(0.015625)"/>
       <path d="M 794 531 
L 1825 531 
L 1825 4091 
L 703 3866 
L 703 4441 
L 1819 4666 
L 2450 4666 
L 2450 531 
L 3481 531 
L 3481 0 
L 794 0 
L 794 531 
z
" id="DejaVuSans-31" transform="scale(0.015625)"/>
       <path d="M 1984 4856 
Q 1566 4138 1362 3434 
Q 1159 2731 1159 2009 
Q 1159 1288 1364 580 
Q 1569 -128 1984 -844 
L 1484 -844 
Q 1016 -109 783 600 
Q 550 1309 550 2009 
Q 550 2706 781 3412 
Q 1013 4119 1484 4856 
L 1984 4856 
z
" id="DejaVuSans-28" transform="scale(0.015625)"/>
       <path d="M 3272 2816 
L 2363 2816 
L 2100 1772 
L 3016 1772 
L 3272 2816 
z
M 2803 4594 
L 2478 3297 
L 3391 3297 
L 3719 4594 
L 4219 4594 
L 3897 3297 
L 4872 3297 
L 4872 2816 
L 3775 2816 
L 3519 1772 
L 4513 1772 
L 4513 1294 
L 3397 1294 
L 3072 0 
L 2572 0 
L 2894 1294 
L 1978 1294 
L 1656 0 
L 1153 0 
L 1478 1294 
L 494 1294 
L 494 1772 
L 1594 1772 
L 1856 2816 
L 850 2816 
L 850 3297 
L 1978 3297 
L 2297 4594 
L 2803 4594 
z
" id="DejaVuSans-23" transform="scale(0.015625)"/>
       <path id="DejaVuSans-20" transform="scale(0.015625)"/>
       <path d="M 2375 4863 
L 2375 4384 
L 1825 4384 
Q 1516 4384 1395 4259 
Q 1275 4134 1275 3809 
L 1275 3500 
L 2222 3500 
L 2222 3053 
L 1275 3053 
L 1275 0 
L 697 0 
L 697 3053 
L 147 3053 
L 147 3500 
L 697 3500 
L 697 3744 
Q 697 4328 969 4595 
Q 1241 4863 1831 4863 
L 2375 4863 
z
" id="DejaVuSans-66" transform="scale(0.015625)"/>
       <path d="M 313 2009 
L 1997 2009 
L 1997 1497 
L 313 1497 
L 313 2009 
z
" id="DejaVuSans-2d" transform="scale(0.015625)"/>
       <path d="M 3597 1894 
L 3597 1613 
L 953 1613 
Q 991 1019 1311 708 
Q 1631 397 2203 397 
Q 2534 397 2845 478 
Q 3156 559 3463 722 
L 3463 178 
Q 3153 47 2828 -22 
Q 2503 -91 2169 -91 
Q 1331 -91 842 396 
Q 353 884 353 1716 
Q 353 2575 817 3079 
Q 1281 3584 2069 3584 
Q 2775 3584 3186 3129 
Q 3597 2675 3597 1894 
z
M 3022 2063 
Q 3016 2534 2758 2815 
Q 2500 3097 2075 3097 
Q 1594 3097 1305 2825 
Q 1016 2553 972 2059 
L 3022 2063 
z
" id="DejaVuSans-65" transform="scale(0.015625)"/>
       <path d="M 191 3500 
L 800 3500 
L 1894 563 
L 2988 3500 
L 3597 3500 
L 2284 0 
L 1503 0 
L 191 3500 
z
" id="DejaVuSans-76" transform="scale(0.015625)"/>
       <path d="M 2194 1759 
Q 1497 1759 1228 1600 
Q 959 1441 959 1056 
Q 959 750 1161 570 
Q 1363 391 1709 391 
Q 2188 391 2477 730 
Q 2766 1069 2766 1631 
L 2766 1759 
L 2194 1759 
z
M 3341 1997 
L 3341 0 
L 2766 0 
L 2766 531 
Q 2569 213 2275 61 
Q 1981 -91 1556 -91 
Q 1019 -91 701 211 
Q 384 513 384 1019 
Q 384 1609 779 1909 
Q 1175 2209 1959 2209 
L 2766 2209 
L 2766 2266 
Q 2766 2663 2505 2880 
Q 2244 3097 1772 3097 
Q 1472 3097 1187 3025 
Q 903 2953 641 2809 
L 641 3341 
Q 956 3463 1253 3523 
Q 1550 3584 1831 3584 
Q 2591 3584 2966 3190 
Q 3341 2797 3341 1997 
z
" id="DejaVuSans-61" transform="scale(0.015625)"/>
       <path d="M 2834 3397 
L 2834 2853 
Q 2591 2978 2328 3040 
Q 2066 3103 1784 3103 
Q 1356 3103 1142 2972 
Q 928 2841 928 2578 
Q 928 2378 1081 2264 
Q 1234 2150 1697 2047 
L 1894 2003 
Q 2506 1872 2764 1633 
Q 3022 1394 3022 966 
Q 3022 478 2636 193 
Q 2250 -91 1575 -91 
Q 1294 -91 989 -36 
Q 684 19 347 128 
L 347 722 
Q 666 556 975 473 
Q 1284 391 1588 391 
Q 1994 391 2212 530 
Q 2431 669 2431 922 
Q 2431 1156 2273 1281 
Q 2116 1406 1581 1522 
L 1381 1569 
Q 847 1681 609 1914 
Q 372 2147 372 2553 
Q 372 3047 722 3315 
Q 1072 3584 1716 3584 
Q 2034 3584 2315 3537 
Q 2597 3491 2834 3397 
z
" id="DejaVuSans-73" transform="scale(0.015625)"/>
       <path d="M 1625 4666 
L 2156 4666 
L 531 -594 
L 0 -594 
L 1625 4666 
z
" id="DejaVuSans-2f" transform="scale(0.015625)"/>
       <path d="M 2906 2969 
L 2906 4863 
L 3481 4863 
L 3481 0 
L 2906 0 
L 2906 525 
Q 2725 213 2448 61 
Q 2172 -91 1784 -91 
Q 1150 -91 751 415 
Q 353 922 353 1747 
Q 353 2572 751 3078 
Q 1150 3584 1784 3584 
Q 2172 3584 2448 3432 
Q 2725 3281 2906 2969 
z
M 947 1747 
Q 947 1113 1208 752 
Q 1469 391 1925 391 
Q 2381 391 2643 752 
Q 2906 1113 2906 1747 
Q 2906 2381 2643 2742 
Q 2381 3103 1925 3103 
Q 1469 3103 1208 2742 
Q 947 2381 947 1747 
z
" id="DejaVuSans-64" transform="scale(0.015625)"/>
       <path d="M 603 3500 
L 1178 3500 
L 1178 0 
L 603 0 
L 603 3500 
z
M 603 4863 
L 1178 4863 
L 1178 4134 
L 603 4134 
L 603 4863 
z
" id="DejaVuSans-69" transform="scale(0.015625)"/>
       <path d="M 3328 2828 
Q 3544 3216 3844 3400 
Q 4144 3584 4550 3584 
Q 5097 3584 5394 3201 
Q 5691 2819 5691 2113 
L 5691 0 
L 5113 0 
L 5113 2094 
Q 5113 2597 4934 2840 
Q 4756 3084 4391 3084 
Q 3944 3084 3684 2787 
Q 3425 2491 3425 1978 
L 3425 0 
L 2847 0 
L 2847 2094 
Q 2847 2600 2669 2842 
Q 2491 3084 2119 3084 
Q 1678 3084 1418 2786 
Q 1159 2488 1159 1978 
L 1159 0 
L 581 0 
L 581 3500 
L 1159 3500 
L 1159 2956 
Q 1356 3278 1631 3431 
Q 1906 3584 2284 3584 
Q 2666 3584 2933 3390 
Q 3200 3197 3328 2828 
z
" id="DejaVuSans-6d" transform="scale(0.015625)"/>
       <path d="M 3513 2113 
L 3513 0 
L 2938 0 
L 2938 2094 
Q 2938 2591 2744 2837 
Q 2550 3084 2163 3084 
Q 1697 3084 1428 2787 
Q 1159 2491 1159 1978 
L 1159 0 
L 581 0 
L 581 3500 
L 1159 3500 
L 1159 2956 
Q 1366 3272 1645 3428 
Q 1925 3584 2291 3584 
Q 2894 3584 3203 3211 
Q 3513 2838 3513 2113 
z
" id="DejaVuSans-6e" transform="scale(0.015625)"/>
       <path d="M 513 4856 
L 1013 4856 
Q 1481 4119 1714 3412 
Q 1947 2706 1947 2009 
Q 1947 1309 1714 600 
Q 1481 -109 1013 -844 
L 513 -844 
Q 928 -128 1133 580 
Q 1338 1288 1338 2009 
Q 1338 2731 1133 3434 
Q 928 4138 513 4856 
z
" id="DejaVuSans-29" transform="scale(0.015625)"/>
      </defs>
      <use xlink:href="#DejaVuSans-6c"/>
      <use x="27.783203" xlink:href="#DejaVuSans-6f"/>
      <use x="88.964844" xlink:href="#DejaVuSans-67"/>
      <use x="152.441406" xlink:href="#DejaVuSans-31"/>
      <use x="216.064453" xlink:href="#DejaVuSans-30"/>
      <use x="279.6875" xlink:href="#DejaVuSans-28"/>
      <use x="318.701172" xlink:href="#DejaVuSans-23"/>
      <use x="402.490234" xlink:href="#DejaVuSans-20"/>
      <use x="434.277344" xlink:href="#DejaVuSans-66"/>
      <use x="463.982422" xlink:href="#DejaVuSans-2d"/>
      <use x="500.066406" xlink:href="#DejaVuSans-65"/>
      <use x="561.589844" xlink:href="#DejaVuSans-76"/>
      <use x="620.769531" xlink:href="#DejaVuSans-61"/>
      <use x="682.048828" xlink:href="#DejaVuSans-6c"/>
      <use x="709.832031" xlink:href="#DejaVuSans-73"/>
      <use x="761.931641" xlink:href="#DejaVuSans-20"/>
      <use x="793.71875" xlink:href="#DejaVuSans-2f"/>
      <use x="827.410156" xlink:href="#DejaVuSans-20"/>
      <use x="859.197266" xlink:href="#DejaVuSans-64"/>
      <use x="922.673828" xlink:href="#DejaVuSans-69"/>
      <use x="950.457031" xlink:href="#DejaVuSans-6d"/>
      <use x="1047.869141" xlink:href="#DejaVuSans-65"/>
      <use x="1109.392578" xlink:href="#DejaVuSans-6e"/>
      <use x="1172.771484" xlink:href="#DejaVuSans-73"/>
      <use x="1224.871094" xlink:href="#DejaVuSans-69"/>
      <use x="1252.654297" xlink:href="#DejaVuSans-6f"/>
      <use x="1313.835938" xlink:href="#DejaVuSans-6e"/>
      <use x="1377.214844" xlink:href="#DejaVuSans-29"/>
     </g>
    </g>
   </g>
   <g id="matplotlib.axis_2">
    <g id="ytick_1">
     <g id="line2d_21">
      <path clip-path="url(#p6f61d04e47)" d="M 57.6 298.944 
L 360.8064 298.944 
" style="fill:none;stroke:#b0b0b0;stroke-linecap:square;stroke-width:0.8;"/>
     </g>
     <g id="line2d_22">
      <defs>
       <path d="M 0 0 
L -3.5 0 
" id="m0687537805" style="stroke:#000000;stroke-width:0.8;"/>
      </defs>
      <g>
       <use style="stroke:#000000;stroke-width:0.8;" x="57.6" xlink:href="#m0687537805" y="298.944"/>
      </g>
     </g>
     <g id="text_6">
      <!-- 0.0 -->
      <g transform="translate(25.155 305.02275)scale(0.16 -0.16)">
       <defs>
        <path d="M 684 794 
L 1344 794 
L 1344 0 
L 684 0 
L 684 794 
z
" id="DejaVuSans-2e" transform="scale(0.015625)"/>
       </defs>
       <use xlink:href="#DejaVuSans-30"/>
       <use x="63.623047" xlink:href="#DejaVuSans-2e"/>
       <use x="95.410156" xlink:href="#DejaVuSans-30"/>
      </g>
     </g>
    </g>
    <g id="ytick_2">
     <g id="line2d_23">
      <path clip-path="url(#p6f61d04e47)" d="M 57.6 244.6848 
L 360.8064 244.6848 
" style="fill:none;stroke:#b0b0b0;stroke-linecap:square;stroke-width:0.8;"/>
     </g>
     <g id="line2d_24">
      <g>
       <use style="stroke:#000000;stroke-width:0.8;" x="57.6" xlink:href="#m0687537805" y="244.6848"/>
      </g>
     </g>
     <g id="text_7">
      <!-- 0.2 -->
      <g transform="translate(25.155 250.76355)scale(0.16 -0.16)">
       <use xlink:href="#DejaVuSans-30"/>
       <use x="63.623047" xlink:href="#DejaVuSans-2e"/>
       <use x="95.410156" xlink:href="#DejaVuSans-32"/>
      </g>
     </g>
    </g>
    <g id="ytick_3">
     <g id="line2d_25">
      <path clip-path="url(#p6f61d04e47)" d="M 57.6 190.4256 
L 360.8064 190.4256 
" style="fill:none;stroke:#b0b0b0;stroke-linecap:square;stroke-width:0.8;"/>
     </g>
     <g id="line2d_26">
      <g>
       <use style="stroke:#000000;stroke-width:0.8;" x="57.6" xlink:href="#m0687537805" y="190.4256"/>
      </g>
     </g>
     <g id="text_8">
      <!-- 0.4 -->
      <g transform="translate(25.155 196.50435)scale(0.16 -0.16)">
       <use xlink:href="#DejaVuSans-30"/>
       <use x="63.623047" xlink:href="#DejaVuSans-2e"/>
       <use x="95.410156" xlink:href="#DejaVuSans-34"/>
      </g>
     </g>
    </g>
    <g id="ytick_4">
     <g id="line2d_27">
      <path clip-path="url(#p6f61d04e47)" d="M 57.6 136.1664 
L 360.8064 136.1664 
" style="fill:none;stroke:#b0b0b0;stroke-linecap:square;stroke-width:0.8;"/>
     </g>
     <g id="line2d_28">
      <g>
       <use style="stroke:#000000;stroke-width:0.8;" x="57.6" xlink:href="#m0687537805" y="136.1664"/>
      </g>
     </g>
     <g id="text_9">
      <!-- 0.6 -->
      <g transform="translate(25.155 142.24515)scale(0.16 -0.16)">
       <use xlink:href="#DejaVuSans-30"/>
       <use x="63.623047" xlink:href="#DejaVuSans-2e"/>
       <use x="95.410156" xlink:href="#DejaVuSans-36"/>
      </g>
     </g>
    </g>
    <g id="ytick_5">
     <g id="line2d_29">
      <path clip-path="url(#p6f61d04e47)" d="M 57.6 81.9072 
L 360.8064 81.9072 
" style="fill:none;stroke:#b0b0b0;stroke-linecap:square;stroke-width:0.8;"/>
     </g>
     <g id="line2d_30">
      <g>
       <use style="stroke:#000000;stroke-width:0.8;" x="57.6" xlink:href="#m0687537805" y="81.9072"/>
      </g>
     </g>
     <g id="text_10">
      <!-- 0.8 -->
      <g transform="translate(25.155 87.98595)scale(0.16 -0.16)">
       <defs>
        <path d="M 2034 2216 
Q 1584 2216 1326 1975 
Q 1069 1734 1069 1313 
Q 1069 891 1326 650 
Q 1584 409 2034 409 
Q 2484 409 2743 651 
Q 3003 894 3003 1313 
Q 3003 1734 2745 1975 
Q 2488 2216 2034 2216 
z
M 1403 2484 
Q 997 2584 770 2862 
Q 544 3141 544 3541 
Q 544 4100 942 4425 
Q 1341 4750 2034 4750 
Q 2731 4750 3128 4425 
Q 3525 4100 3525 3541 
Q 3525 3141 3298 2862 
Q 3072 2584 2669 2484 
Q 3125 2378 3379 2068 
Q 3634 1759 3634 1313 
Q 3634 634 3220 271 
Q 2806 -91 2034 -91 
Q 1263 -91 848 271 
Q 434 634 434 1313 
Q 434 1759 690 2068 
Q 947 2378 1403 2484 
z
M 1172 3481 
Q 1172 3119 1398 2916 
Q 1625 2713 2034 2713 
Q 2441 2713 2670 2916 
Q 2900 3119 2900 3481 
Q 2900 3844 2670 4047 
Q 2441 4250 2034 4250 
Q 1625 4250 1398 4047 
Q 1172 3844 1172 3481 
z
" id="DejaVuSans-38" transform="scale(0.015625)"/>
       </defs>
       <use xlink:href="#DejaVuSans-30"/>
       <use x="63.623047" xlink:href="#DejaVuSans-2e"/>
       <use x="95.410156" xlink:href="#DejaVuSans-38"/>
      </g>
     </g>
    </g>
    <g id="ytick_6">
     <g id="line2d_31">
      <path clip-path="url(#p6f61d04e47)" d="M 57.6 27.648 
L 360.8064 27.648 
" style="fill:none;stroke:#b0b0b0;stroke-linecap:square;stroke-width:0.8;"/>
     </g>
     <g id="line2d_32">
      <g>
       <use style="stroke:#000000;stroke-width:0.8;" x="57.6" xlink:href="#m0687537805" y="27.648"/>
      </g>
     </g>
     <g id="text_11">
      <!-- 1.0 -->
      <g transform="translate(25.155 33.72675)scale(0.16 -0.16)">
       <use xlink:href="#DejaVuSans-31"/>
       <use x="63.623047" xlink:href="#DejaVuSans-2e"/>
       <use x="95.410156" xlink:href="#DejaVuSans-30"/>
      </g>
     </g>
    </g>
    <g id="text_12">
     <!-- Fraction of function,target pairs -->
     <g transform="translate(17.619531 297.681)rotate(-90)scale(0.17 -0.17)">
      <defs>
       <path d="M 628 4666 
L 3309 4666 
L 3309 4134 
L 1259 4134 
L 1259 2759 
L 3109 2759 
L 3109 2228 
L 1259 2228 
L 1259 0 
L 628 0 
L 628 4666 
z
" id="DejaVuSans-46" transform="scale(0.015625)"/>
       <path d="M 2631 2963 
Q 2534 3019 2420 3045 
Q 2306 3072 2169 3072 
Q 1681 3072 1420 2755 
Q 1159 2438 1159 1844 
L 1159 0 
L 581 0 
L 581 3500 
L 1159 3500 
L 1159 2956 
Q 1341 3275 1631 3429 
Q 1922 3584 2338 3584 
Q 2397 3584 2469 3576 
Q 2541 3569 2628 3553 
L 2631 2963 
z
" id="DejaVuSans-72" transform="scale(0.015625)"/>
       <path d="M 3122 3366 
L 3122 2828 
Q 2878 2963 2633 3030 
Q 2388 3097 2138 3097 
Q 1578 3097 1268 2742 
Q 959 2388 959 1747 
Q 959 1106 1268 751 
Q 1578 397 2138 397 
Q 2388 397 2633 464 
Q 2878 531 3122 666 
L 3122 134 
Q 2881 22 2623 -34 
Q 2366 -91 2075 -91 
Q 1284 -91 818 406 
Q 353 903 353 1747 
Q 353 2603 823 3093 
Q 1294 3584 2113 3584 
Q 2378 3584 2631 3529 
Q 2884 3475 3122 3366 
z
" id="DejaVuSans-63" transform="scale(0.015625)"/>
       <path d="M 1172 4494 
L 1172 3500 
L 2356 3500 
L 2356 3053 
L 1172 3053 
L 1172 1153 
Q 1172 725 1289 603 
Q 1406 481 1766 481 
L 2356 481 
L 2356 0 
L 1766 0 
Q 1100 0 847 248 
Q 594 497 594 1153 
L 594 3053 
L 172 3053 
L 172 3500 
L 594 3500 
L 594 4494 
L 1172 4494 
z
" id="DejaVuSans-74" transform="scale(0.015625)"/>
       <path d="M 544 1381 
L 544 3500 
L 1119 3500 
L 1119 1403 
Q 1119 906 1312 657 
Q 1506 409 1894 409 
Q 2359 409 2629 706 
Q 2900 1003 2900 1516 
L 2900 3500 
L 3475 3500 
L 3475 0 
L 2900 0 
L 2900 538 
Q 2691 219 2414 64 
Q 2138 -91 1772 -91 
Q 1169 -91 856 284 
Q 544 659 544 1381 
z
M 1991 3584 
L 1991 3584 
z
" id="DejaVuSans-75" transform="scale(0.015625)"/>
       <path d="M 750 794 
L 1409 794 
L 1409 256 
L 897 -744 
L 494 -744 
L 750 256 
L 750 794 
z
" id="DejaVuSans-2c" transform="scale(0.015625)"/>
       <path d="M 1159 525 
L 1159 -1331 
L 581 -1331 
L 581 3500 
L 1159 3500 
L 1159 2969 
Q 1341 3281 1617 3432 
Q 1894 3584 2278 3584 
Q 2916 3584 3314 3078 
Q 3713 2572 3713 1747 
Q 3713 922 3314 415 
Q 2916 -91 2278 -91 
Q 1894 -91 1617 61 
Q 1341 213 1159 525 
z
M 3116 1747 
Q 3116 2381 2855 2742 
Q 2594 3103 2138 3103 
Q 1681 3103 1420 2742 
Q 1159 2381 1159 1747 
Q 1159 1113 1420 752 
Q 1681 391 2138 391 
Q 2594 391 2855 752 
Q 3116 1113 3116 1747 
z
" id="DejaVuSans-70" transform="scale(0.015625)"/>
      </defs>
      <use xlink:href="#DejaVuSans-46"/>
      <use x="50.269531" xlink:href="#DejaVuSans-72"/>
      <use x="91.382812" xlink:href="#DejaVuSans-61"/>
      <use x="152.662109" xlink:href="#DejaVuSans-63"/>
      <use x="207.642578" xlink:href="#DejaVuSans-74"/>
      <use x="246.851562" xlink:href="#DejaVuSans-69"/>
      <use x="274.634766" xlink:href="#DejaVuSans-6f"/>
      <use x="335.816406" xlink:href="#DejaVuSans-6e"/>
      <use x="399.195312" xlink:href="#DejaVuSans-20"/>
      <use x="430.982422" xlink:href="#DejaVuSans-6f"/>
      <use x="492.164062" xlink:href="#DejaVuSans-66"/>
      <use x="527.369141" xlink:href="#DejaVuSans-20"/>
      <use x="559.15625" xlink:href="#DejaVuSans-66"/>
      <use x="594.361328" xlink:href="#DejaVuSans-75"/>
      <use x="657.740234" xlink:href="#DejaVuSans-6e"/>
      <use x="721.119141" xlink:href="#DejaVuSans-63"/>
      <use x="776.099609" xlink:href="#DejaVuSans-74"/>
      <use x="815.308594" xlink:href="#DejaVuSans-69"/>
      <use x="843.091797" xlink:href="#DejaVuSans-6f"/>
      <use x="904.273438" xlink:href="#DejaVuSans-6e"/>
      <use x="967.652344" xlink:href="#DejaVuSans-2c"/>
      <use x="999.439453" xlink:href="#DejaVuSans-74"/>
      <use x="1038.648438" xlink:href="#DejaVuSans-61"/>
      <use x="1099.927734" xlink:href="#DejaVuSans-72"/>
      <use x="1139.291016" xlink:href="#DejaVuSans-67"/>
      <use x="1202.767578" xlink:href="#DejaVuSans-65"/>
      <use x="1264.291016" xlink:href="#DejaVuSans-74"/>
      <use x="1303.5" xlink:href="#DejaVuSans-20"/>
      <use x="1335.287109" xlink:href="#DejaVuSans-70"/>
      <use x="1398.763672" xlink:href="#DejaVuSans-61"/>
      <use x="1460.042969" xlink:href="#DejaVuSans-69"/>
      <use x="1487.826172" xlink:href="#DejaVuSans-72"/>
      <use x="1528.939453" xlink:href="#DejaVuSans-73"/>
     </g>
    </g>
   </g>
   <g id="line2d_33">
    <defs>
     <path d="M 0 1.5 
C 0.397805 1.5 0.77937 1.341951 1.06066 1.06066 
C 1.341951 0.77937 1.5 0.397805 1.5 0 
C 1.5 -0.397805 1.341951 -0.77937 1.06066 -1.06066 
C 0.77937 -1.341951 0.397805 -1.5 0 -1.5 
C -0.397805 -1.5 -0.77937 -1.341951 -1.06066 -1.06066 
C -1.341951 -0.77937 -1.5 -0.397805 -1.5 0 
C -1.5 0.397805 -1.341951 0.77937 -1.06066 1.06066 
C -0.77937 1.341951 -0.397805 1.5 0 1.5 
z
" id="m462a08cdf5" style="stroke:#f5deb3;"/>
    </defs>
    <g>
     <use style="fill:#f5deb3;stroke:#f5deb3;" x="131.929028" xlink:href="#m462a08cdf5" y="27.648"/>
     <use style="fill:#f5deb3;stroke:#f5deb3;" x="131.929028" xlink:href="#m462a08cdf5" y="27.648"/>
    </g>
   </g>
   <g id="line2d_34">
    <defs>
     <path d="M 0 1.5 
C 0.397805 1.5 0.77937 1.341951 1.06066 1.06066 
C 1.341951 0.77937 1.5 0.397805 1.5 0 
C 1.5 -0.397805 1.341951 -0.77937 1.06066 -1.06066 
C 0.77937 -1.341951 0.397805 -1.5 0 -1.5 
C -0.397805 -1.5 -0.77937 -1.341951 -1.06066 -1.06066 
C -1.341951 -0.77937 -1.5 -0.397805 -1.5 0 
C -1.5 0.397805 -1.341951 0.77937 -1.06066 1.06066 
C -0.77937 1.341951 -0.397805 1.5 0 1.5 
z
" id="mf9c8862daa" style="stroke:#000080;"/>
    </defs>
    <g>
     <use style="fill:#000080;stroke:#000080;" x="223.786222" xlink:href="#mf9c8862daa" y="27.648"/>
     <use style="fill:#000080;stroke:#000080;" x="223.786222" xlink:href="#mf9c8862daa" y="27.648"/>
    </g>
   </g>
   <g id="line2d_35">
    <path d="M 114.418881 298.944 
L 114.418881 298.589365 
L 148.352679 298.589365 
L 148.352679 297.880094 
L 156.452597 297.880094 
L 156.452597 295.043012 
L 158.498335 295.043012 
L 158.498335 294.688376 
L 159.190332 294.688376 
L 159.190332 292.9152 
L 159.775628 292.9152 
L 159.775628 291.142024 
L 160.738476 291.142024 
L 160.738476 290.787388 
L 162.527853 290.787388 
L 162.527853 289.723482 
L 162.949812 289.723482 
L 162.949812 288.304941 
L 164.030845 288.304941 
L 164.030845 286.177129 
L 165.844657 286.177129 
L 165.844657 285.467859 
L 168.248209 285.467859 
L 168.248209 285.113224 
L 168.714635 285.113224 
L 168.714635 284.403953 
L 169.417952 284.403953 
L 169.417952 283.694682 
L 169.565302 283.694682 
L 169.565302 283.340047 
L 170.332249 283.340047 
L 170.425955 281.212235 
L 171.994493 281.212235 
L 171.994493 279.084424 
L 172.208263 279.084424 
L 172.208263 278.375153 
L 173.442249 278.375153 
L 173.442249 278.020518 
L 176.144812 278.020518 
L 176.213656 275.183435 
L 176.316452 275.183435 
L 176.350592 274.474165 
L 176.822169 274.474165 
L 176.822169 274.119529 
L 176.987765 274.119529 
L 176.987765 273.410259 
L 177.1192 273.410259 
L 177.151915 269.863906 
L 178.537828 269.863906 
L 178.537828 269.509271 
L 179.223586 269.509271 
L 179.223586 268.090729 
L 180.110009 268.090729 
L 180.110009 267.381459 
L 180.687602 267.381459 
L 180.741697 263.125835 
L 180.876258 263.125835 
L 180.876258 262.416565 
L 181.195331 262.416565 
L 181.274261 260.288753 
L 181.586709 260.288753 
L 181.586709 259.579482 
L 181.944791 259.579482 
L 181.944791 257.097035 
L 182.14639 257.097035 
L 182.14639 255.678494 
L 182.518663 255.678494 
L 182.518663 255.323859 
L 182.811266 255.323859 
L 182.811266 254.969224 
L 183.003836 254.969224 
L 183.003836 254.259953 
L 183.406618 254.259953 
L 183.406618 253.905318 
L 183.75499 253.905318 
L 183.75499 253.550682 
L 184.499429 253.550682 
L 184.499429 253.196047 
L 184.893403 253.196047 
L 184.893403 252.486776 
L 185.044414 252.486776 
L 185.044414 250.7136 
L 185.194222 250.7136 
L 185.194222 248.585788 
L 186.630133 248.585788 
L 186.630133 247.521882 
L 186.865648 247.521882 
L 186.865648 246.457976 
L 187.175151 246.457976 
L 187.175151 246.103341 
L 187.964168 246.103341 
L 188.074232 243.975529 
L 188.328568 243.975529 
L 188.400609 243.266259 
L 189.002064 243.266259 
L 189.002064 242.202353 
L 189.449364 242.202353 
L 189.449364 241.138447 
L 190.182916 241.138447 
L 190.248206 239.719906 
L 190.762522 239.719906 
L 190.762522 239.010635 
L 191.324802 239.010635 
L 191.324802 238.656 
L 191.599763 238.656 
L 191.599763 236.882824 
L 191.73575 236.882824 
L 191.795875 235.109647 
L 192.240789 235.109647 
L 192.240789 234.400376 
L 192.430364 234.400376 
L 192.430364 233.691106 
L 193.086233 233.691106 
L 193.086233 232.981835 
L 193.474543 232.981835 
L 193.543048 232.272565 
L 193.881882 232.272565 
L 193.881882 230.854024 
L 194.319998 230.854024 
L 194.319998 229.435482 
L 194.606506 229.435482 
L 194.64524 227.307671 
L 195.028251 227.307671 
L 195.028251 226.5984 
L 195.341575 226.5984 
L 195.341575 226.243765 
L 195.477801 226.243765 
L 195.477801 225.534494 
L 195.649766 225.534494 
L 195.649766 225.179859 
L 195.88066 225.179859 
L 195.916859 222.342776 
L 196.603359 222.342776 
L 196.603359 221.988141 
L 196.834391 221.988141 
L 196.880259 220.924235 
L 197.332889 220.924235 
L 197.399854 219.505694 
L 197.499857 219.505694 
L 197.533073 216.668612 
L 197.829411 216.668612 
L 197.829411 216.313976 
L 197.992047 216.313976 
L 197.992047 215.959341 
L 198.131871 215.959341 
L 198.131871 214.5408 
L 198.270663 214.5408 
L 198.270663 213.122259 
L 198.429545 213.122259 
L 198.429545 212.412988 
L 198.639322 212.412988 
L 198.639322 211.703718 
L 198.815811 211.703718 
L 198.815811 210.639812 
L 199.072383 210.639812 
L 199.143601 209.575906 
L 199.20443 209.575906 
L 199.20443 209.221271 
L 199.39577 209.221271 
L 199.415798 208.512 
L 199.565335 208.512 
L 199.614917 203.547106 
L 199.841328 203.547106 
L 199.841328 200.355388 
L 200.390961 200.355388 
L 200.390961 198.936847 
L 200.542401 198.936847 
L 200.542401 196.4544 
L 200.720666 196.4544 
L 200.813816 193.971953 
L 201.06304 193.971953 
L 201.108833 192.198776 
L 201.372253 192.198776 
L 201.372253 191.489506 
L 202.036885 191.489506 
L 202.036885 189.716329 
L 202.175684 189.716329 
L 202.253311 187.233882 
L 202.670417 187.233882 
L 202.737646 184.3968 
L 202.912988 184.3968 
L 203.012455 178.368 
L 203.242518 178.368 
L 203.242518 177.658729 
L 203.606467 177.658729 
L 203.606467 177.304094 
L 203.781868 177.304094 
L 203.781868 175.885553 
L 203.900528 175.885553 
L 203.900528 175.530918 
L 204.04194 175.530918 
L 204.096647 173.403106 
L 204.306184 173.403106 
L 204.337029 172.3392 
L 204.551539 172.3392 
L 204.551539 171.275294 
L 204.838801 171.275294 
L 204.853799 165.601129 
L 205.092159 165.601129 
L 205.092159 163.827953 
L 205.254297 163.827953 
L 205.254297 162.409412 
L 205.803895 162.409412 
L 205.87503 161.345506 
L 206.205807 161.345506 
L 206.261534 160.2816 
L 206.496552 160.2816 
L 206.496552 159.572329 
L 206.749014 159.572329 
L 206.749014 158.863059 
L 206.863884 158.863059 
L 206.863884 156.380612 
L 207.038221 156.380612 
L 207.038221 155.316706 
L 207.290151 155.316706 
L 207.290151 153.898165 
L 207.558238 153.898165 
L 207.558238 152.479624 
L 207.726286 152.479624 
L 207.726286 151.415718 
L 207.994616 151.415718 
L 208.038968 149.997176 
L 208.108453 149.997176 
L 208.158828 146.096188 
L 208.240399 146.096188 
L 208.265427 143.968376 
L 208.383856 143.968376 
L 208.421101 142.904471 
L 208.618502 142.904471 
L 208.704218 141.131294 
L 208.777379 141.131294 
L 208.88659 140.067388 
L 208.959047 140.067388 
L 209.037228 137.230306 
L 209.435088 137.230306 
L 209.493755 133.683953 
L 209.604721 133.683953 
L 209.715036 131.556141 
L 209.72661 131.556141 
L 209.72661 131.201506 
L 209.841966 131.201506 
L 209.945185 128.719059 
L 209.985173 128.719059 
L 210.002285 126.591247 
L 210.138621 126.591247 
L 210.240229 124.1088 
L 210.296442 124.1088 
L 210.296442 123.399529 
L 210.45295 123.399529 
L 210.45295 123.044894 
L 210.624721 123.044894 
L 210.712767 120.562447 
L 210.89307 120.562447 
L 210.95279 117.370729 
L 211.141554 117.370729 
L 211.243238 113.469741 
L 211.392094 113.469741 
L 211.460807 111.341929 
L 211.727977 111.341929 
L 211.821373 105.667765 
L 211.862734 105.667765 
L 211.934898 104.603859 
L 212.19039 104.603859 
L 212.21068 103.894588 
L 212.331964 103.894588 
L 212.331964 101.412141 
L 212.47248 101.412141 
L 212.532382 99.284329 
L 212.873162 99.284329 
L 212.965926 95.737976 
L 212.999987 95.737976 
L 213.038839 93.9648 
L 213.125963 93.9648 
L 213.212686 89.354541 
L 213.442011 89.354541 
L 213.546191 86.162824 
L 213.799486 86.162824 
L 213.818113 85.453553 
L 213.966474 85.453553 
L 214.040218 82.971106 
L 214.218766 82.971106 
L 214.218766 82.261835 
L 214.341391 82.261835 
L 214.341391 81.9072 
L 214.58427 81.9072 
L 214.691217 79.070118 
L 214.762179 79.070118 
L 214.762179 77.651576 
L 214.955955 77.651576 
L 214.960336 75.169129 
L 215.22134 75.169129 
L 215.311843 70.558871 
L 215.341914 70.558871 
L 215.40619 65.593976 
L 215.470248 65.593976 
L 215.534088 64.530071 
L 215.610411 64.530071 
L 215.682211 60.983718 
L 215.883473 60.983718 
L 215.883473 59.919812 
L 216.222392 59.919812 
L 216.320444 57.792 
L 216.340807 57.792 
L 216.405821 54.245647 
L 216.482736 54.245647 
L 216.519059 52.472471 
L 216.663656 52.472471 
L 216.703625 51.053929 
L 216.81112 51.053929 
L 216.81112 50.344659 
L 216.977123 50.344659 
L 217.036056 49.635388 
L 217.168959 49.635388 
L 217.238941 47.507576 
L 217.28158 47.507576 
L 217.293192 45.025129 
L 217.558311 45.025129 
L 217.56594 44.315859 
L 217.921063 44.315859 
L 217.980848 42.897318 
L 218.036724 42.897318 
L 218.085016 41.478776 
L 218.166459 41.478776 
L 218.166459 40.769506 
L 218.499643 40.769506 
L 218.561237 38.641694 
L 219.03981 38.641694 
L 219.03981 37.223153 
L 219.222294 37.223153 
L 219.288532 36.513882 
L 219.392646 36.513882 
L 219.392646 35.449976 
L 219.640193 35.449976 
L 219.742383 34.386071 
L 219.803432 34.386071 
L 219.911477 31.194353 
L 220.5763 31.194353 
L 220.5763 29.066541 
L 221.945416 29.066541 
L 221.945416 28.711906 
L 223.786222 28.711906 
L 223.786222 27.648 
L 360.8064 27.648 
L 360.8064 27.648 
" style="fill:none;stroke:#000080;stroke-linecap:square;stroke-width:1.5;"/>
   </g>
   <g id="line2d_36">
    <defs>
     <path d="M 0 6 
C 1.591219 6 3.117479 5.367802 4.242641 4.242641 
C 5.367802 3.117479 6 1.591219 6 0 
C 6 -1.591219 5.367802 -3.117479 4.242641 -4.242641 
C 3.117479 -5.367802 1.591219 -6 0 -6 
C -1.591219 -6 -3.117479 -5.367802 -4.242641 -4.242641 
C -5.367802 -3.117479 -6 -1.591219 -6 0 
C -6 1.591219 -5.367802 3.117479 -4.242641 4.242641 
C -3.117479 5.367802 -1.591219 6 0 6 
z
" id="m87177291e6" style="stroke:#000080;stroke-width:1.5;"/>
    </defs>
    <g>
     <use style="fill-opacity:0;stroke:#000080;stroke-width:1.5;" x="179.223586" xlink:href="#m87177291e6" y="269.509271"/>
     <use style="fill-opacity:0;stroke:#000080;stroke-width:1.5;" x="209.985173" xlink:href="#m87177291e6" y="126.945882"/>
     <use style="fill-opacity:0;stroke:#000080;stroke-width:1.5;" x="223.786222" xlink:href="#m87177291e6" y="28.711906"/>
     <use style="fill-opacity:0;stroke:#000080;stroke-width:1.5;" x="223.786222" xlink:href="#m87177291e6" y="27.648"/>
     <use style="fill-opacity:0;stroke:#000080;stroke-width:1.5;" x="360.8064" xlink:href="#m87177291e6" y="27.648"/>
    </g>
   </g>
   <g id="line2d_37">
    <path style="fill:none;stroke:#000080;stroke-linecap:square;stroke-width:1.5;"/>
    <g/>
   </g>
   <g id="line2d_38">
    <defs>
     <path d="M 0 1.5 
C 0.397805 1.5 0.77937 1.341951 1.06066 1.06066 
C 1.341951 0.77937 1.5 0.397805 1.5 0 
C 1.5 -0.397805 1.341951 -0.77937 1.06066 -1.06066 
C 0.77937 -1.341951 0.397805 -1.5 0 -1.5 
C -0.397805 -1.5 -0.77937 -1.341951 -1.06066 -1.06066 
C -1.341951 -0.77937 -1.5 -0.397805 -1.5 0 
C -1.5 0.397805 -1.341951 0.77937 -1.06066 1.06066 
C -0.77937 1.341951 -0.397805 1.5 0 1.5 
z
" id="me6979d6472" style="stroke:#ff00ff;"/>
    </defs>
    <g>
     <use style="fill:#ff00ff;stroke:#ff00ff;" x="306.260873" xlink:href="#me6979d6472" y="27.648"/>
     <use style="fill:#ff00ff;stroke:#ff00ff;" x="306.260873" xlink:href="#me6979d6472" y="27.648"/>
    </g>
   </g>
   <g id="line2d_39">
    <path d="M 74.836851 298.944 
L 74.836851 297.170824 
L 99.950294 297.170824 
L 99.950294 296.106918 
L 107.904887 296.106918 
L 107.904887 295.752282 
L 118.524569 295.752282 
L 118.524569 294.688376 
L 119.599808 294.688376 
L 119.599808 294.333741 
L 122.19863 294.333741 
L 122.19863 292.560565 
L 126.028642 292.560565 
L 126.028642 291.496659 
L 126.274549 291.496659 
L 126.274549 290.432753 
L 127.911368 290.432753 
L 127.911368 289.368847 
L 128.354013 289.368847 
L 128.354013 288.304941 
L 129.826058 288.304941 
L 129.826058 287.950306 
L 130.4233 287.950306 
L 130.4233 287.595671 
L 130.618241 287.595671 
L 130.618241 285.113224 
L 130.811181 285.113224 
L 130.811181 284.403953 
L 131.747272 284.403953 
L 131.747272 284.049318 
L 132.109044 284.049318 
L 132.109044 283.340047 
L 132.638982 283.340047 
L 132.638982 282.985412 
L 132.984158 282.985412 
L 132.984158 281.921506 
L 135.085483 281.921506 
L 135.085483 278.729788 
L 135.538796 278.729788 
L 135.538796 276.956612 
L 135.981441 276.956612 
L 135.981441 276.247341 
L 136.555884 276.247341 
L 136.555884 274.474165 
L 137.654681 274.474165 
L 137.654681 273.410259 
L 138.050729 273.410259 
L 138.050729 273.055624 
L 139.191172 273.055624 
L 139.191172 272.700988 
L 139.435481 272.700988 
L 139.435481 268.8 
L 139.914782 268.8 
L 139.914782 266.317553 
L 141.50224 266.317553 
L 141.610664 265.253647 
L 141.825656 265.253647 
L 141.825656 263.835106 
L 142.143605 263.835106 
L 142.143605 261.707294 
L 143.946089 261.707294 
L 143.946089 261.352659 
L 144.2304 261.352659 
L 144.324223 260.288753 
L 145.058426 260.288753 
L 145.058426 259.934118 
L 145.326529 259.934118 
L 145.326529 259.579482 
L 145.590864 259.579482 
L 145.678157 257.097035 
L 146.193574 257.097035 
L 146.27812 256.033129 
L 146.446082 256.033129 
L 146.446082 254.259953 
L 146.695245 254.259953 
L 146.777571 253.550682 
L 146.859539 253.550682 
L 146.859539 252.486776 
L 147.183884 252.486776 
L 147.183884 251.777506 
L 147.502732 251.777506 
L 147.502732 251.422871 
L 147.73837 251.422871 
L 147.816265 250.004329 
L 148.048032 250.004329 
L 148.048032 249.295059 
L 148.200973 249.295059 
L 148.200973 248.940424 
L 148.428077 248.940424 
L 148.503173 247.167247 
L 148.652472 247.167247 
L 148.652472 246.457976 
L 148.874221 246.457976 
L 148.874221 245.748706 
L 149.020615 245.748706 
L 149.020615 244.6848 
L 149.453084 244.6848 
L 149.453084 241.493082 
L 149.73597 241.493082 
L 149.806031 240.429176 
L 149.875833 240.429176 
L 149.875833 240.074541 
L 150.152479 240.074541 
L 150.152479 239.365271 
L 150.425115 239.365271 
L 150.425115 238.656 
L 150.559965 238.656 
L 150.62703 236.882824 
L 150.760445 236.882824 
L 150.760445 236.173553 
L 150.892922 236.173553 
L 150.958812 234.400376 
L 151.024471 234.400376 
L 151.024471 231.917929 
L 151.155108 231.917929 
L 151.220087 230.499388 
L 151.668766 230.499388 
L 151.731998 227.662306 
L 151.795018 227.662306 
L 151.795018 226.243765 
L 151.982822 226.243765 
L 152.045009 225.179859 
L 152.291722 225.179859 
L 152.291722 224.470588 
L 152.413875 224.470588 
L 152.474656 221.633506 
L 152.53524 221.633506 
L 152.53524 220.214965 
L 152.715833 220.214965 
L 152.775647 218.441788 
L 153.363556 218.441788 
L 153.421349 212.412988 
L 153.764426 212.412988 
L 153.821002 210.994447 
L 154.267588 210.994447 
L 154.377597 208.866635 
L 154.971412 208.866635 
L 155.024477 207.093459 
L 155.13016 207.093459 
L 155.13016 206.738824 
L 155.339761 206.738824 
L 155.339761 205.674918 
L 155.547053 205.674918 
L 155.547053 204.611012 
L 156.005274 204.611012 
L 156.005274 204.256376 
L 156.255099 204.256376 
L 156.354107 201.419294 
L 156.501649 201.419294 
L 156.599372 198.936847 
L 156.648044 198.936847 
L 156.696589 197.163671 
L 156.793307 197.163671 
L 156.88953 195.390494 
L 156.937458 195.390494 
L 157.032948 191.844141 
L 157.127956 191.844141 
L 157.222487 189.007059 
L 157.269574 189.007059 
L 157.269574 188.652424 
L 157.410135 188.652424 
L 157.503261 184.751435 
L 157.549652 184.751435 
L 157.549652 184.3968 
L 157.825621 184.3968 
L 157.825621 182.978259 
L 158.007377 182.978259 
L 158.052543 181.914353 
L 158.14255 181.914353 
L 158.187393 179.786541 
L 158.276759 179.786541 
L 158.276759 178.722635 
L 158.498335 178.722635 
L 158.498335 178.368 
L 158.717331 178.368 
L 158.804221 176.949459 
L 158.933807 176.949459 
L 159.019705 176.240188 
L 159.105212 176.240188 
L 159.190332 169.147482 
L 159.232748 169.147482 
L 159.275069 160.636235 
L 159.359426 160.636235 
L 159.359426 159.572329 
L 159.61025 159.572329 
L 159.61025 159.217694 
L 159.775628 159.217694 
L 159.775628 157.444518 
L 160.020999 157.444518 
L 160.061585 155.671341 
L 160.422971 155.671341 
L 160.422971 154.962071 
L 160.541906 154.962071 
L 160.541906 154.2528 
L 161.802848 154.2528 
L 161.876619 152.124988 
L 162.527853 152.124988 
L 162.527853 151.061082 
L 163.122872 151.061082 
L 163.122872 147.869365 
L 166.83191 147.869365 
L 166.860176 144.323012 
L 167.526142 144.323012 
L 167.526142 143.968376 
L 167.742992 143.968376 
L 167.742992 142.904471 
L 173.855707 142.904471 
L 173.855707 142.1952 
L 178.231693 142.1952 
L 178.231693 141.840565 
L 179.771814 141.840565 
L 179.771814 141.131294 
L 195.674204 141.131294 
L 195.674204 139.358118 
L 196.817161 139.358118 
L 196.828649 137.939576 
L 200.537687 137.939576 
L 200.537687 136.521035 
L 210.522401 136.521035 
L 210.522401 136.1664 
L 210.718256 136.1664 
L 210.718256 134.747859 
L 213.109054 134.747859 
L 213.109054 134.038588 
L 217.116301 134.038588 
L 217.116301 132.974682 
L 218.566662 132.974682 
L 218.566662 130.492235 
L 233.965613 130.492235 
L 233.965613 130.1376 
L 236.55772 130.1376 
L 236.588961 128.719059 
L 237.041976 128.719059 
L 237.041976 128.364424 
L 238.173335 128.364424 
L 238.173335 128.009788 
L 244.36081 128.009788 
L 244.36081 127.300518 
L 247.743311 127.300518 
L 247.743311 126.945882 
L 249.25013 126.945882 
L 249.25013 125.881976 
L 251.227807 125.881976 
L 251.227807 125.527341 
L 254.558171 125.527341 
L 254.558171 124.1088 
L 255.151836 124.1088 
L 255.151836 121.980988 
L 261.179292 121.980988 
L 261.269542 78.715482 
L 265.129015 78.715482 
L 265.129015 78.360847 
L 269.872801 78.360847 
L 269.872801 78.006212 
L 271.420636 78.006212 
L 271.440009 76.942306 
L 274.192265 76.942306 
L 274.250628 54.600282 
L 275.06567 54.600282 
L 275.134801 53.891012 
L 279.8716 53.891012 
L 279.8716 53.536376 
L 281.823358 53.536376 
L 281.853901 42.542682 
L 287.230876 42.542682 
L 287.25459 35.449976 
L 290.359899 35.449976 
L 290.359899 35.095341 
L 291.425977 35.095341 
L 291.452164 31.903624 
L 294.856581 31.903624 
L 294.861655 30.839718 
L 297.756305 30.839718 
L 297.771632 29.066541 
L 300.267912 29.066541 
L 300.271718 28.357271 
L 304.468403 28.357271 
L 304.468403 28.002635 
L 306.260873 28.002635 
L 306.260873 27.648 
L 360.8064 27.648 
L 360.8064 27.648 
" style="fill:none;stroke:#ff00ff;stroke-linecap:square;stroke-width:1.5;"/>
   </g>
   <g id="line2d_40">
    <defs>
     <path d="M -0 8.485281 
L 5.091169 0 
L 0 -8.485281 
L -5.091169 -0 
z
" id="m65a0601292" style="stroke:#ff00ff;stroke-linejoin:miter;stroke-width:1.5;"/>
    </defs>
    <g>
     <use style="fill-opacity:0;stroke:#ff00ff;stroke-linejoin:miter;stroke-width:1.5;" x="159.190332" xlink:href="#m65a0601292" y="170.920659"/>
     <use style="fill-opacity:0;stroke:#ff00ff;stroke-linejoin:miter;stroke-width:1.5;" x="244.36081" xlink:href="#m65a0601292" y="127.300518"/>
     <use style="fill-opacity:0;stroke:#ff00ff;stroke-linejoin:miter;stroke-width:1.5;" x="306.260873" xlink:href="#m65a0601292" y="28.002635"/>
     <use style="fill-opacity:0;stroke:#ff00ff;stroke-linejoin:miter;stroke-width:1.5;" x="306.260873" xlink:href="#m65a0601292" y="27.648"/>
     <use style="fill-opacity:0;stroke:#ff00ff;stroke-linejoin:miter;stroke-width:1.5;" x="360.8064" xlink:href="#m65a0601292" y="27.648"/>
    </g>
   </g>
   <g id="line2d_41">
    <path style="fill:none;stroke:#ff00ff;stroke-linecap:square;stroke-width:1.5;"/>
    <g/>
   </g>
   <g id="line2d_42">
    <path clip-path="url(#p6f61d04e47)" d="M 261.139459 121.980988 
" style="fill:none;stroke:#ff00ff;stroke-linecap:square;stroke-width:1.5;"/>
    <defs>
     <path d="M -12 12 
L 12 -12 
M -12 -12 
L 12 12 
" id="m3b85ba74ea" style="stroke:#ff00ff;"/>
    </defs>
    <g clip-path="url(#p6f61d04e47)">
     <use style="fill:#ff00ff;stroke:#ff00ff;" x="261.139459" xlink:href="#m3b85ba74ea" y="121.980988"/>
    </g>
   </g>
   <g id="line2d_43">
    <path d="M 360.8064 27.648 
L 380.514816 293.51808 
" style="fill:none;stroke:#ff00ff;stroke-linecap:square;stroke-width:1.5;"/>
    <g>
     <use style="fill-opacity:0;stroke:#ff00ff;stroke-linejoin:miter;stroke-width:1.5;" x="360.8064" xlink:href="#m65a0601292" y="27.648"/>
     <use style="fill-opacity:0;stroke:#ff00ff;stroke-linejoin:miter;stroke-width:1.5;" x="380.514816" xlink:href="#m65a0601292" y="293.51808"/>
    </g>
   </g>
   <g id="line2d_44">
    <path d="M 360.8064 27.648 
L 380.514816 163.296 
" style="fill:none;stroke:#000080;stroke-linecap:square;stroke-width:1.5;"/>
    <g>
     <use style="fill-opacity:0;stroke:#000080;stroke-width:1.5;" x="360.8064" xlink:href="#m87177291e6" y="27.648"/>
     <use style="fill-opacity:0;stroke:#000080;stroke-width:1.5;" x="380.514816" xlink:href="#m87177291e6" y="163.296"/>
    </g>
   </g>
   <g id="line2d_45">
    <path d="M 360.8064 298.944 
L 360.8064 27.648 
" style="fill:none;stroke:#000000;stroke-linecap:square;stroke-width:1.5;"/>
   </g>
   <g id="patch_3">
    <path d="M 57.6 298.944 
L 360.8064 298.944 
" style="fill:none;stroke:#000000;stroke-linecap:square;stroke-linejoin:miter;stroke-width:0.8;"/>
   </g>
   <g id="patch_4">
    <path d="M 57.6 27.648 
L 360.8064 27.648 
" style="fill:none;stroke:#000000;stroke-linecap:square;stroke-linejoin:miter;stroke-width:0.8;"/>
   </g>
   <g id="text_13">
    <!-- cma.fmin  -->
    <g transform="translate(386.578944 297.381205)scale(0.14 -0.14)">
     <use xlink:href="#DejaVuSans-63"/>
     <use x="54.980469" xlink:href="#DejaVuSans-6d"/>
     <use x="152.392578" xlink:href="#DejaVuSans-61"/>
     <use x="213.671875" xlink:href="#DejaVuSans-2e"/>
     <use x="245.458984" xlink:href="#DejaVuSans-66"/>
     <use x="280.664062" xlink:href="#DejaVuSans-6d"/>
     <use x="378.076172" xlink:href="#DejaVuSans-69"/>
     <use x="405.859375" xlink:href="#DejaVuSans-6e"/>
     <use x="469.238281" xlink:href="#DejaVuSans-20"/>
    </g>
   </g>
   <g id="text_14">
    <!-- different -->
    <g transform="translate(386.578944 167.159125)scale(0.14 -0.14)">
     <use xlink:href="#DejaVuSans-64"/>
     <use x="63.476562" xlink:href="#DejaVuSans-69"/>
     <use x="91.259766" xlink:href="#DejaVuSans-66"/>
     <use x="126.464844" xlink:href="#DejaVuSans-66"/>
     <use x="161.669922" xlink:href="#DejaVuSans-65"/>
     <use x="223.193359" xlink:href="#DejaVuSans-72"/>
     <use x="262.056641" xlink:href="#DejaVuSans-65"/>
     <use x="323.580078" xlink:href="#DejaVuSans-6e"/>
     <use x="386.958984" xlink:href="#DejaVuSans-74"/>
    </g>
   </g>
   <g id="text_15">
    <!-- best 2009 -->
    <g transform="translate(386.578944 36.937045)scale(0.14 -0.14)">
     <defs>
      <path d="M 3116 1747 
Q 3116 2381 2855 2742 
Q 2594 3103 2138 3103 
Q 1681 3103 1420 2742 
Q 1159 2381 1159 1747 
Q 1159 1113 1420 752 
Q 1681 391 2138 391 
Q 2594 391 2855 752 
Q 3116 1113 3116 1747 
z
M 1159 2969 
Q 1341 3281 1617 3432 
Q 1894 3584 2278 3584 
Q 2916 3584 3314 3078 
Q 3713 2572 3713 1747 
Q 3713 922 3314 415 
Q 2916 -91 2278 -91 
Q 1894 -91 1617 61 
Q 1341 213 1159 525 
L 1159 0 
L 581 0 
L 581 4863 
L 1159 4863 
L 1159 2969 
z
" id="DejaVuSans-62" transform="scale(0.015625)"/>
      <path d="M 703 97 
L 703 672 
Q 941 559 1184 500 
Q 1428 441 1663 441 
Q 2288 441 2617 861 
Q 2947 1281 2994 2138 
Q 2813 1869 2534 1725 
Q 2256 1581 1919 1581 
Q 1219 1581 811 2004 
Q 403 2428 403 3163 
Q 403 3881 828 4315 
Q 1253 4750 1959 4750 
Q 2769 4750 3195 4129 
Q 3622 3509 3622 2328 
Q 3622 1225 3098 567 
Q 2575 -91 1691 -91 
Q 1453 -91 1209 -44 
Q 966 3 703 97 
z
M 1959 2075 
Q 2384 2075 2632 2365 
Q 2881 2656 2881 3163 
Q 2881 3666 2632 3958 
Q 2384 4250 1959 4250 
Q 1534 4250 1286 3958 
Q 1038 3666 1038 3163 
Q 1038 2656 1286 2365 
Q 1534 2075 1959 2075 
z
" id="DejaVuSans-39" transform="scale(0.015625)"/>
     </defs>
     <use xlink:href="#DejaVuSans-62"/>
     <use x="63.476562" xlink:href="#DejaVuSans-65"/>
     <use x="125" xlink:href="#DejaVuSans-73"/>
     <use x="177.099609" xlink:href="#DejaVuSans-74"/>
     <use x="216.308594" xlink:href="#DejaVuSans-20"/>
     <use x="248.095703" xlink:href="#DejaVuSans-32"/>
     <use x="311.71875" xlink:href="#DejaVuSans-30"/>
     <use x="375.341797" xlink:href="#DejaVuSans-30"/>
     <use x="438.964844" xlink:href="#DejaVuSans-39"/>
    </g>
   </g>
   <g id="text_16">
    <!-- bbob f10, 2-D -->
    <g transform="translate(60.632064 38.111366)scale(0.102 -0.102)">
     <defs>
      <path d="M 1259 4147 
L 1259 519 
L 2022 519 
Q 2988 519 3436 956 
Q 3884 1394 3884 2338 
Q 3884 3275 3436 3711 
Q 2988 4147 2022 4147 
L 1259 4147 
z
M 628 4666 
L 1925 4666 
Q 3281 4666 3915 4102 
Q 4550 3538 4550 2338 
Q 4550 1131 3912 565 
Q 3275 0 1925 0 
L 628 0 
L 628 4666 
z
" id="DejaVuSans-44" transform="scale(0.015625)"/>
     </defs>
     <use xlink:href="#DejaVuSans-62"/>
     <use x="63.476562" xlink:href="#DejaVuSans-62"/>
     <use x="126.953125" xlink:href="#DejaVuSans-6f"/>
     <use x="188.134766" xlink:href="#DejaVuSans-62"/>
     <use x="251.611328" xlink:href="#DejaVuSans-20"/>
     <use x="283.398438" xlink:href="#DejaVuSans-66"/>
     <use x="318.603516" xlink:href="#DejaVuSans-31"/>
     <use x="382.226562" xlink:href="#DejaVuSans-30"/>
     <use x="445.849609" xlink:href="#DejaVuSans-2c"/>
     <use x="477.636719" xlink:href="#DejaVuSans-20"/>
     <use x="509.423828" xlink:href="#DejaVuSans-32"/>
     <use x="573.046875" xlink:href="#DejaVuSans-2d"/>
     <use x="609.130859" xlink:href="#DejaVuSans-44"/>
    </g>
    <!-- 51 targets: 100..1e-08 -->
    <g transform="translate(60.632064 49.533135)scale(0.102 -0.102)">
     <defs>
      <path d="M 691 4666 
L 3169 4666 
L 3169 4134 
L 1269 4134 
L 1269 2991 
Q 1406 3038 1543 3061 
Q 1681 3084 1819 3084 
Q 2600 3084 3056 2656 
Q 3513 2228 3513 1497 
Q 3513 744 3044 326 
Q 2575 -91 1722 -91 
Q 1428 -91 1123 -41 
Q 819 9 494 109 
L 494 744 
Q 775 591 1075 516 
Q 1375 441 1709 441 
Q 2250 441 2565 725 
Q 2881 1009 2881 1497 
Q 2881 1984 2565 2268 
Q 2250 2553 1709 2553 
Q 1456 2553 1204 2497 
Q 953 2441 691 2322 
L 691 4666 
z
" id="DejaVuSans-35" transform="scale(0.015625)"/>
      <path d="M 750 794 
L 1409 794 
L 1409 0 
L 750 0 
L 750 794 
z
M 750 3309 
L 1409 3309 
L 1409 2516 
L 750 2516 
L 750 3309 
z
" id="DejaVuSans-3a" transform="scale(0.015625)"/>
     </defs>
     <use xlink:href="#DejaVuSans-35"/>
     <use x="63.623047" xlink:href="#DejaVuSans-31"/>
     <use x="127.246094" xlink:href="#DejaVuSans-20"/>
     <use x="159.033203" xlink:href="#DejaVuSans-74"/>
     <use x="198.242188" xlink:href="#DejaVuSans-61"/>
     <use x="259.521484" xlink:href="#DejaVuSans-72"/>
     <use x="298.884766" xlink:href="#DejaVuSans-67"/>
     <use x="362.361328" xlink:href="#DejaVuSans-65"/>
     <use x="423.884766" xlink:href="#DejaVuSans-74"/>
     <use x="463.09375" xlink:href="#DejaVuSans-73"/>
     <use x="515.193359" xlink:href="#DejaVuSans-3a"/>
     <use x="548.884766" xlink:href="#DejaVuSans-20"/>
     <use x="580.671875" xlink:href="#DejaVuSans-31"/>
     <use x="644.294922" xlink:href="#DejaVuSans-30"/>
     <use x="707.917969" xlink:href="#DejaVuSans-30"/>
     <use x="771.541016" xlink:href="#DejaVuSans-2e"/>
     <use x="803.328125" xlink:href="#DejaVuSans-2e"/>
     <use x="835.115234" xlink:href="#DejaVuSans-31"/>
     <use x="898.738281" xlink:href="#DejaVuSans-65"/>
     <use x="960.261719" xlink:href="#DejaVuSans-2d"/>
     <use x="996.345703" xlink:href="#DejaVuSans-30"/>
     <use x="1059.96875" xlink:href="#DejaVuSans-38"/>
    </g>
    <!-- 15 instances -->
    <g transform="translate(60.632064 60.954904)scale(0.102 -0.102)">
     <use xlink:href="#DejaVuSans-31"/>
     <use x="63.623047" xlink:href="#DejaVuSans-35"/>
     <use x="127.246094" xlink:href="#DejaVuSans-20"/>
     <use x="159.033203" xlink:href="#DejaVuSans-69"/>
     <use x="186.816406" xlink:href="#DejaVuSans-6e"/>
     <use x="250.195312" xlink:href="#DejaVuSans-73"/>
     <use x="302.294922" xlink:href="#DejaVuSans-74"/>
     <use x="341.503906" xlink:href="#DejaVuSans-61"/>
     <use x="402.783203" xlink:href="#DejaVuSans-6e"/>
     <use x="466.162109" xlink:href="#DejaVuSans-63"/>
     <use x="521.142578" xlink:href="#DejaVuSans-65"/>
     <use x="582.666016" xlink:href="#DejaVuSans-73"/>
    </g>
   </g>
   <g id="text_17">
    <!-- v2.6 -->
    <g style="fill:#808080;" transform="translate(198.292262 294.151352)scale(0.1 -0.1)">
     <use xlink:href="#DejaVuSans-76"/>
     <use x="59.179688" xlink:href="#DejaVuSans-32"/>
     <use x="122.802734" xlink:href="#DejaVuSans-2e"/>
     <use x="154.589844" xlink:href="#DejaVuSans-36"/>
    </g>
   </g>
   <g id="text_18">
    <!-- 10 Ellipsoid -->
    <g transform="translate(151.843825 21.648)scale(0.2 -0.2)">
     <defs>
      <path d="M 628 4666 
L 3578 4666 
L 3578 4134 
L 1259 4134 
L 1259 2753 
L 3481 2753 
L 3481 2222 
L 1259 2222 
L 1259 531 
L 3634 531 
L 3634 0 
L 628 0 
L 628 4666 
z
" id="DejaVuSans-45" transform="scale(0.015625)"/>
     </defs>
     <use xlink:href="#DejaVuSans-31"/>
     <use x="63.623047" xlink:href="#DejaVuSans-30"/>
     <use x="127.246094" xlink:href="#DejaVuSans-20"/>
     <use x="159.033203" xlink:href="#DejaVuSans-45"/>
     <use x="222.216797" xlink:href="#DejaVuSans-6c"/>
     <use x="250" xlink:href="#DejaVuSans-6c"/>
     <use x="277.783203" xlink:href="#DejaVuSans-69"/>
     <use x="305.566406" xlink:href="#DejaVuSans-70"/>
     <use x="369.042969" xlink:href="#DejaVuSans-73"/>
     <use x="421.142578" xlink:href="#DejaVuSans-6f"/>
     <use x="482.324219" xlink:href="#DejaVuSans-69"/>
     <use x="510.107422" xlink:href="#DejaVuSans-64"/>
    </g>
   </g>
  </g>
 </g>
 <defs>
  <clipPath id="p6f61d04e47">
   <rect height="271.296" width="303.2064" x="57.6" y="27.648"/>
  </clipPath>
 </defs>
</svg>
