<?xml version="1.0" encoding="utf-8" standalone="no"?>
<!DOCTYPE svg PUBLIC "-//W3C//DTD SVG 1.1//EN"
  "http://www.w3.org/Graphics/SVG/1.1/DTD/svg11.dtd">
<svg height="345.6pt" version="1.1" viewBox="0 0 460.8 345.6" width="460.8pt" xmlns="http://www.w3.org/2000/svg" xmlns:xlink="http://www.w3.org/1999/xlink">
 <metadata>
  <rdf:RDF xmlns:cc="http://creativecommons.org/ns#" xmlns:dc="http://purl.org/dc/elements/1.1/" xmlns:rdf="http://www.w3.org/1999/02/22-rdf-syntax-ns#">
   <cc:Work>
    <dc:type rdf:resource="http://purl.org/dc/dcmitype/StillImage"/>
    <dc:date>2022-05-07T15:07:38.701491</dc:date>
    <dc:format>image/svg+xml</dc:format>
    <dc:creator>
     <cc:Agent>
      <dc:title>Matplotlib v3.4.3, https://matplotlib.org/</dc:title>
     </cc:Agent>
    </dc:creator>
   </cc:Work>
  </rdf:RDF>
 </metadata>
 <defs>
  <style type="text/css">*{stroke-linecap:butt;stroke-linejoin:round;}</style>
 </defs>
 <g id="figure_1">
  <g id="patch_1">
   <path d="M 0 345.6 
L 460.8 345.6 
L 460.8 0 
L 0 0 
z
" style="fill:#ffffff;"/>
  </g>
  <g id="axes_1">
   <g id="patch_2">
    <path d="M 57.6 298.944 
L 360.8064 298.944 
L 360.8064 27.648 
L 57.6 27.648 
z
" style="fill:#ffffff;"/>
   </g>
   <g id="line2d_1">
    <path d="M 111.97238 298.944 
L 111.97238 293.624471 
L 112.989468 293.624471 
L 112.989468 288.304941 
L 113.954374 288.304941 
L 113.954374 282.985412 
L 118.64712 282.985412 
L 118.64712 277.665882 
L 121.789667 277.665882 
L 121.789667 272.346353 
L 126.028642 272.346353 
L 126.028642 267.026824 
L 127.610376 267.026824 
L 127.610376 261.707294 
L 128.928456 261.707294 
L 128.928456 256.387765 
L 129.348062 256.387765 
L 129.348062 251.068235 
L 130.938718 251.068235 
L 130.938718 245.748706 
L 131.440389 245.748706 
L 131.440389 240.429176 
L 131.808053 240.429176 
L 131.808053 235.109647 
L 132.168669 235.109647 
L 132.168669 229.790118 
L 132.405295 229.790118 
L 132.405295 224.470588 
L 132.984158 224.470588 
L 132.984158 219.151059 
L 133.323114 219.151059 
L 133.323114 213.831529 
L 133.765759 213.831529 
L 133.765759 208.512 
L 133.983236 208.512 
L 133.983236 203.192471 
L 134.198228 203.192471 
L 134.198228 197.872941 
L 134.41079 197.872941 
L 134.41079 192.553412 
L 134.620977 192.553412 
L 134.620977 187.233882 
L 135.136394 187.233882 
L 135.136394 181.914353 
L 135.338671 181.914353 
L 135.338671 176.594824 
L 135.638065 176.594824 
L 135.638065 171.275294 
L 135.835047 171.275294 
L 135.835047 165.955765 
L 136.029987 165.955765 
L 136.029987 160.636235 
L 136.222928 160.636235 
L 136.222928 155.316706 
L 136.508678 155.316706 
L 136.508678 149.997176 
L 136.790153 149.997176 
L 136.790153 144.677647 
L 136.97549 144.677647 
L 136.97549 139.358118 
L 137.250116 139.358118 
L 137.250116 134.038588 
L 137.430998 134.038588 
L 137.430998 128.719059 
L 137.699101 128.719059 
L 137.699101 123.399529 
L 137.875736 123.399529 
L 137.875736 118.08 
L 138.050729 118.08 
L 138.050729 112.760471 
L 138.224108 112.760471 
L 138.224108 107.440941 
L 138.395904 107.440941 
L 138.395904 102.121412 
L 138.73486 102.121412 
L 138.73486 96.801882 
L 138.902075 96.801882 
L 138.902075 91.482353 
L 139.067817 91.482353 
L 139.067817 86.162824 
L 139.232111 86.162824 
L 139.232111 80.843294 
L 139.394983 80.843294 
L 139.394983 75.523765 
L 139.636676 75.523765 
L 139.636676 70.204235 
L 139.796097 70.204235 
L 139.796097 64.884706 
L 140.032723 64.884706 
L 140.032723 59.565176 
L 140.188837 59.565176 
L 140.188837 54.245647 
L 140.343665 54.245647 
L 140.343665 48.926118 
L 140.49723 48.926118 
L 140.49723 43.606588 
L 140.725251 43.606588 
L 140.725251 38.287059 
L 140.950542 38.287059 
L 140.950542 32.967529 
L 141.099251 32.967529 
L 141.099251 27.648 
L 360.8064 27.648 
" style="fill:none;stroke:#f5deb3;stroke-linecap:square;stroke-width:4;"/>
   </g>
   <g id="line2d_2">
    <defs>
     <path d="M -0 7.778175 
L 7.778175 0 
L 0 -7.778175 
L -7.778175 -0 
z
" id="mce20e44156" style="stroke:#f5deb3;stroke-linejoin:miter;stroke-width:1.5;"/>
    </defs>
    <g>
     <use style="fill:#f5deb3;stroke:#f5deb3;stroke-linejoin:miter;stroke-width:1.5;" x="136.97549" xlink:href="#mce20e44156" y="144.677647"/>
     <use style="fill:#f5deb3;stroke:#f5deb3;stroke-linejoin:miter;stroke-width:1.5;" x="141.099251" xlink:href="#mce20e44156" y="32.967529"/>
     <use style="fill:#f5deb3;stroke:#f5deb3;stroke-linejoin:miter;stroke-width:1.5;" x="141.099251" xlink:href="#mce20e44156" y="27.648"/>
     <use style="fill:#f5deb3;stroke:#f5deb3;stroke-linejoin:miter;stroke-width:1.5;" x="141.099251" xlink:href="#mce20e44156" y="27.648"/>
     <use style="fill:#f5deb3;stroke:#f5deb3;stroke-linejoin:miter;stroke-width:1.5;" x="360.8064" xlink:href="#mce20e44156" y="27.648"/>
    </g>
   </g>
   <g id="line2d_3">
    <path style="fill:none;stroke:#f5deb3;stroke-linecap:square;stroke-width:4;"/>
    <g/>
   </g>
   <g id="line2d_4">
    <path d="M 360.8064 27.648 
L 380.514816 33.07392 
" style="fill:none;stroke:#f5deb3;stroke-linecap:square;stroke-width:4;"/>
    <g>
     <use style="fill:#f5deb3;stroke:#f5deb3;stroke-linejoin:miter;stroke-width:1.5;" x="360.8064" xlink:href="#mce20e44156" y="27.648"/>
     <use style="fill:#f5deb3;stroke:#f5deb3;stroke-linejoin:miter;stroke-width:1.5;" x="380.514816" xlink:href="#mce20e44156" y="33.07392"/>
    </g>
   </g>
   <g id="matplotlib.axis_1">
    <g id="xtick_1">
     <g id="line2d_5">
      <path clip-path="url(#pfc54b5625a)" d="M 57.6 298.944 
L 57.6 27.648 
" style="fill:none;stroke:#b0b0b0;stroke-linecap:square;stroke-width:0.8;"/>
     </g>
     <g id="line2d_6">
      <defs>
       <path d="M 0 0 
L 0 3.5 
" id="m2bd0c45a15" style="stroke:#000000;stroke-width:0.8;"/>
      </defs>
      <g>
       <use style="stroke:#000000;stroke-width:0.8;" x="57.6" xlink:href="#m2bd0c45a15" y="298.944"/>
      </g>
     </g>
     <g id="text_1">
      <!-- 0 -->
      <g transform="translate(52.191875 318.861344)scale(0.17 -0.17)">
       <defs>
        <path d="M 2034 4250 
Q 1547 4250 1301 3770 
Q 1056 3291 1056 2328 
Q 1056 1369 1301 889 
Q 1547 409 2034 409 
Q 2525 409 2770 889 
Q 3016 1369 3016 2328 
Q 3016 3291 2770 3770 
Q 2525 4250 2034 4250 
z
M 2034 4750 
Q 2819 4750 3233 4129 
Q 3647 3509 3647 2328 
Q 3647 1150 3233 529 
Q 2819 -91 2034 -91 
Q 1250 -91 836 529 
Q 422 1150 422 2328 
Q 422 3509 836 4129 
Q 1250 4750 2034 4750 
z
" id="DejaVuSans-30" transform="scale(0.015625)"/>
       </defs>
       <use xlink:href="#DejaVuSans-30"/>
      </g>
     </g>
    </g>
    <g id="xtick_2">
     <g id="line2d_7">
      <path clip-path="url(#pfc54b5625a)" d="M 144.2304 298.944 
L 144.2304 27.648 
" style="fill:none;stroke:#b0b0b0;stroke-linecap:square;stroke-width:0.8;"/>
     </g>
     <g id="line2d_8">
      <g>
       <use style="stroke:#000000;stroke-width:0.8;" x="144.2304" xlink:href="#m2bd0c45a15" y="298.944"/>
      </g>
     </g>
     <g id="text_2">
      <!-- 2 -->
      <g transform="translate(138.822275 318.861344)scale(0.17 -0.17)">
       <defs>
        <path d="M 1228 531 
L 3431 531 
L 3431 0 
L 469 0 
L 469 531 
Q 828 903 1448 1529 
Q 2069 2156 2228 2338 
Q 2531 2678 2651 2914 
Q 2772 3150 2772 3378 
Q 2772 3750 2511 3984 
Q 2250 4219 1831 4219 
Q 1534 4219 1204 4116 
Q 875 4013 500 3803 
L 500 4441 
Q 881 4594 1212 4672 
Q 1544 4750 1819 4750 
Q 2544 4750 2975 4387 
Q 3406 4025 3406 3419 
Q 3406 3131 3298 2873 
Q 3191 2616 2906 2266 
Q 2828 2175 2409 1742 
Q 1991 1309 1228 531 
z
" id="DejaVuSans-32" transform="scale(0.015625)"/>
       </defs>
       <use xlink:href="#DejaVuSans-32"/>
      </g>
     </g>
    </g>
    <g id="xtick_3">
     <g id="line2d_9">
      <path clip-path="url(#pfc54b5625a)" d="M 230.8608 298.944 
L 230.8608 27.648 
" style="fill:none;stroke:#b0b0b0;stroke-linecap:square;stroke-width:0.8;"/>
     </g>
     <g id="line2d_10">
      <g>
       <use style="stroke:#000000;stroke-width:0.8;" x="230.8608" xlink:href="#m2bd0c45a15" y="298.944"/>
      </g>
     </g>
     <g id="text_3">
      <!-- 4 -->
      <g transform="translate(225.452675 318.861344)scale(0.17 -0.17)">
       <defs>
        <path d="M 2419 4116 
L 825 1625 
L 2419 1625 
L 2419 4116 
z
M 2253 4666 
L 3047 4666 
L 3047 1625 
L 3713 1625 
L 3713 1100 
L 3047 1100 
L 3047 0 
L 2419 0 
L 2419 1100 
L 313 1100 
L 313 1709 
L 2253 4666 
z
" id="DejaVuSans-34" transform="scale(0.015625)"/>
       </defs>
       <use xlink:href="#DejaVuSans-34"/>
      </g>
     </g>
    </g>
    <g id="xtick_4">
     <g id="line2d_11">
      <path clip-path="url(#pfc54b5625a)" d="M 317.4912 298.944 
L 317.4912 27.648 
" style="fill:none;stroke:#b0b0b0;stroke-linecap:square;stroke-width:0.8;"/>
     </g>
     <g id="line2d_12">
      <g>
       <use style="stroke:#000000;stroke-width:0.8;" x="317.4912" xlink:href="#m2bd0c45a15" y="298.944"/>
      </g>
     </g>
     <g id="text_4">
      <!-- 6 -->
      <g transform="translate(312.083075 318.861344)scale(0.17 -0.17)">
       <defs>
        <path d="M 2113 2584 
Q 1688 2584 1439 2293 
Q 1191 2003 1191 1497 
Q 1191 994 1439 701 
Q 1688 409 2113 409 
Q 2538 409 2786 701 
Q 3034 994 3034 1497 
Q 3034 2003 2786 2293 
Q 2538 2584 2113 2584 
z
M 3366 4563 
L 3366 3988 
Q 3128 4100 2886 4159 
Q 2644 4219 2406 4219 
Q 1781 4219 1451 3797 
Q 1122 3375 1075 2522 
Q 1259 2794 1537 2939 
Q 1816 3084 2150 3084 
Q 2853 3084 3261 2657 
Q 3669 2231 3669 1497 
Q 3669 778 3244 343 
Q 2819 -91 2113 -91 
Q 1303 -91 875 529 
Q 447 1150 447 2328 
Q 447 3434 972 4092 
Q 1497 4750 2381 4750 
Q 2619 4750 2861 4703 
Q 3103 4656 3366 4563 
z
" id="DejaVuSans-36" transform="scale(0.015625)"/>
       </defs>
       <use xlink:href="#DejaVuSans-36"/>
      </g>
     </g>
    </g>
    <g id="xtick_5">
     <g id="line2d_13">
      <path clip-path="url(#pfc54b5625a)" d="M 100.9152 298.944 
L 100.9152 27.648 
" style="fill:none;stroke:#b0b0b0;stroke-linecap:square;stroke-width:0.8;"/>
     </g>
     <g id="line2d_14">
      <defs>
       <path d="M 0 0 
L 0 2 
" id="me90f1021e1" style="stroke:#000000;stroke-width:0.6;"/>
      </defs>
      <g>
       <use style="stroke:#000000;stroke-width:0.6;" x="100.9152" xlink:href="#me90f1021e1" y="298.944"/>
      </g>
     </g>
    </g>
    <g id="xtick_6">
     <g id="line2d_15">
      <path clip-path="url(#pfc54b5625a)" d="M 187.5456 298.944 
L 187.5456 27.648 
" style="fill:none;stroke:#b0b0b0;stroke-linecap:square;stroke-width:0.8;"/>
     </g>
     <g id="line2d_16">
      <g>
       <use style="stroke:#000000;stroke-width:0.6;" x="187.5456" xlink:href="#me90f1021e1" y="298.944"/>
      </g>
     </g>
    </g>
    <g id="xtick_7">
     <g id="line2d_17">
      <path clip-path="url(#pfc54b5625a)" d="M 274.176 298.944 
L 274.176 27.648 
" style="fill:none;stroke:#b0b0b0;stroke-linecap:square;stroke-width:0.8;"/>
     </g>
     <g id="line2d_18">
      <g>
       <use style="stroke:#000000;stroke-width:0.6;" x="274.176" xlink:href="#me90f1021e1" y="298.944"/>
      </g>
     </g>
    </g>
    <g id="xtick_8">
     <g id="line2d_19">
      <path clip-path="url(#pfc54b5625a)" d="M 360.8064 298.944 
L 360.8064 27.648 
" style="fill:none;stroke:#b0b0b0;stroke-linecap:square;stroke-width:0.8;"/>
     </g>
     <g id="line2d_20">
      <g>
       <use style="stroke:#000000;stroke-width:0.6;" x="360.8064" xlink:href="#me90f1021e1" y="298.944"/>
      </g>
     </g>
    </g>
    <g id="text_5">
     <!-- log10(# f-evals / dimension) -->
     <g transform="translate(88.823278 339.314156)scale(0.17 -0.17)">
      <defs>
       <path d="M 603 4863 
L 1178 4863 
L 1178 0 
L 603 0 
L 603 4863 
z
" id="DejaVuSans-6c" transform="scale(0.015625)"/>
       <path d="M 1959 3097 
Q 1497 3097 1228 2736 
Q 959 2375 959 1747 
Q 959 1119 1226 758 
Q 1494 397 1959 397 
Q 2419 397 2687 759 
Q 2956 1122 2956 1747 
Q 2956 2369 2687 2733 
Q 2419 3097 1959 3097 
z
M 1959 3584 
Q 2709 3584 3137 3096 
Q 3566 2609 3566 1747 
Q 3566 888 3137 398 
Q 2709 -91 1959 -91 
Q 1206 -91 779 398 
Q 353 888 353 1747 
Q 353 2609 779 3096 
Q 1206 3584 1959 3584 
z
" id="DejaVuSans-6f" transform="scale(0.015625)"/>
       <path d="M 2906 1791 
Q 2906 2416 2648 2759 
Q 2391 3103 1925 3103 
Q 1463 3103 1205 2759 
Q 947 2416 947 1791 
Q 947 1169 1205 825 
Q 1463 481 1925 481 
Q 2391 481 2648 825 
Q 2906 1169 2906 1791 
z
M 3481 434 
Q 3481 -459 3084 -895 
Q 2688 -1331 1869 -1331 
Q 1566 -1331 1297 -1286 
Q 1028 -1241 775 -1147 
L 775 -588 
Q 1028 -725 1275 -790 
Q 1522 -856 1778 -856 
Q 2344 -856 2625 -561 
Q 2906 -266 2906 331 
L 2906 616 
Q 2728 306 2450 153 
Q 2172 0 1784 0 
Q 1141 0 747 490 
Q 353 981 353 1791 
Q 353 2603 747 3093 
Q 1141 3584 1784 3584 
Q 2172 3584 2450 3431 
Q 2728 3278 2906 2969 
L 2906 3500 
L 3481 3500 
L 3481 434 
z
" id="DejaVuSans-67" transform="scale(0.015625)"/>
       <path d="M 794 531 
L 1825 531 
L 1825 4091 
L 703 3866 
L 703 4441 
L 1819 4666 
L 2450 4666 
L 2450 531 
L 3481 531 
L 3481 0 
L 794 0 
L 794 531 
z
" id="DejaVuSans-31" transform="scale(0.015625)"/>
       <path d="M 1984 4856 
Q 1566 4138 1362 3434 
Q 1159 2731 1159 2009 
Q 1159 1288 1364 580 
Q 1569 -128 1984 -844 
L 1484 -844 
Q 1016 -109 783 600 
Q 550 1309 550 2009 
Q 550 2706 781 3412 
Q 1013 4119 1484 4856 
L 1984 4856 
z
" id="DejaVuSans-28" transform="scale(0.015625)"/>
       <path d="M 3272 2816 
L 2363 2816 
L 2100 1772 
L 3016 1772 
L 3272 2816 
z
M 2803 4594 
L 2478 3297 
L 3391 3297 
L 3719 4594 
L 4219 4594 
L 3897 3297 
L 4872 3297 
L 4872 2816 
L 3775 2816 
L 3519 1772 
L 4513 1772 
L 4513 1294 
L 3397 1294 
L 3072 0 
L 2572 0 
L 2894 1294 
L 1978 1294 
L 1656 0 
L 1153 0 
L 1478 1294 
L 494 1294 
L 494 1772 
L 1594 1772 
L 1856 2816 
L 850 2816 
L 850 3297 
L 1978 3297 
L 2297 4594 
L 2803 4594 
z
" id="DejaVuSans-23" transform="scale(0.015625)"/>
       <path id="DejaVuSans-20" transform="scale(0.015625)"/>
       <path d="M 2375 4863 
L 2375 4384 
L 1825 4384 
Q 1516 4384 1395 4259 
Q 1275 4134 1275 3809 
L 1275 3500 
L 2222 3500 
L 2222 3053 
L 1275 3053 
L 1275 0 
L 697 0 
L 697 3053 
L 147 3053 
L 147 3500 
L 697 3500 
L 697 3744 
Q 697 4328 969 4595 
Q 1241 4863 1831 4863 
L 2375 4863 
z
" id="DejaVuSans-66" transform="scale(0.015625)"/>
       <path d="M 313 2009 
L 1997 2009 
L 1997 1497 
L 313 1497 
L 313 2009 
z
" id="DejaVuSans-2d" transform="scale(0.015625)"/>
       <path d="M 3597 1894 
L 3597 1613 
L 953 1613 
Q 991 1019 1311 708 
Q 1631 397 2203 397 
Q 2534 397 2845 478 
Q 3156 559 3463 722 
L 3463 178 
Q 3153 47 2828 -22 
Q 2503 -91 2169 -91 
Q 1331 -91 842 396 
Q 353 884 353 1716 
Q 353 2575 817 3079 
Q 1281 3584 2069 3584 
Q 2775 3584 3186 3129 
Q 3597 2675 3597 1894 
z
M 3022 2063 
Q 3016 2534 2758 2815 
Q 2500 3097 2075 3097 
Q 1594 3097 1305 2825 
Q 1016 2553 972 2059 
L 3022 2063 
z
" id="DejaVuSans-65" transform="scale(0.015625)"/>
       <path d="M 191 3500 
L 800 3500 
L 1894 563 
L 2988 3500 
L 3597 3500 
L 2284 0 
L 1503 0 
L 191 3500 
z
" id="DejaVuSans-76" transform="scale(0.015625)"/>
       <path d="M 2194 1759 
Q 1497 1759 1228 1600 
Q 959 1441 959 1056 
Q 959 750 1161 570 
Q 1363 391 1709 391 
Q 2188 391 2477 730 
Q 2766 1069 2766 1631 
L 2766 1759 
L 2194 1759 
z
M 3341 1997 
L 3341 0 
L 2766 0 
L 2766 531 
Q 2569 213 2275 61 
Q 1981 -91 1556 -91 
Q 1019 -91 701 211 
Q 384 513 384 1019 
Q 384 1609 779 1909 
Q 1175 2209 1959 2209 
L 2766 2209 
L 2766 2266 
Q 2766 2663 2505 2880 
Q 2244 3097 1772 3097 
Q 1472 3097 1187 3025 
Q 903 2953 641 2809 
L 641 3341 
Q 956 3463 1253 3523 
Q 1550 3584 1831 3584 
Q 2591 3584 2966 3190 
Q 3341 2797 3341 1997 
z
" id="DejaVuSans-61" transform="scale(0.015625)"/>
       <path d="M 2834 3397 
L 2834 2853 
Q 2591 2978 2328 3040 
Q 2066 3103 1784 3103 
Q 1356 3103 1142 2972 
Q 928 2841 928 2578 
Q 928 2378 1081 2264 
Q 1234 2150 1697 2047 
L 1894 2003 
Q 2506 1872 2764 1633 
Q 3022 1394 3022 966 
Q 3022 478 2636 193 
Q 2250 -91 1575 -91 
Q 1294 -91 989 -36 
Q 684 19 347 128 
L 347 722 
Q 666 556 975 473 
Q 1284 391 1588 391 
Q 1994 391 2212 530 
Q 2431 669 2431 922 
Q 2431 1156 2273 1281 
Q 2116 1406 1581 1522 
L 1381 1569 
Q 847 1681 609 1914 
Q 372 2147 372 2553 
Q 372 3047 722 3315 
Q 1072 3584 1716 3584 
Q 2034 3584 2315 3537 
Q 2597 3491 2834 3397 
z
" id="DejaVuSans-73" transform="scale(0.015625)"/>
       <path d="M 1625 4666 
L 2156 4666 
L 531 -594 
L 0 -594 
L 1625 4666 
z
" id="DejaVuSans-2f" transform="scale(0.015625)"/>
       <path d="M 2906 2969 
L 2906 4863 
L 3481 4863 
L 3481 0 
L 2906 0 
L 2906 525 
Q 2725 213 2448 61 
Q 2172 -91 1784 -91 
Q 1150 -91 751 415 
Q 353 922 353 1747 
Q 353 2572 751 3078 
Q 1150 3584 1784 3584 
Q 2172 3584 2448 3432 
Q 2725 3281 2906 2969 
z
M 947 1747 
Q 947 1113 1208 752 
Q 1469 391 1925 391 
Q 2381 391 2643 752 
Q 2906 1113 2906 1747 
Q 2906 2381 2643 2742 
Q 2381 3103 1925 3103 
Q 1469 3103 1208 2742 
Q 947 2381 947 1747 
z
" id="DejaVuSans-64" transform="scale(0.015625)"/>
       <path d="M 603 3500 
L 1178 3500 
L 1178 0 
L 603 0 
L 603 3500 
z
M 603 4863 
L 1178 4863 
L 1178 4134 
L 603 4134 
L 603 4863 
z
" id="DejaVuSans-69" transform="scale(0.015625)"/>
       <path d="M 3328 2828 
Q 3544 3216 3844 3400 
Q 4144 3584 4550 3584 
Q 5097 3584 5394 3201 
Q 5691 2819 5691 2113 
L 5691 0 
L 5113 0 
L 5113 2094 
Q 5113 2597 4934 2840 
Q 4756 3084 4391 3084 
Q 3944 3084 3684 2787 
Q 3425 2491 3425 1978 
L 3425 0 
L 2847 0 
L 2847 2094 
Q 2847 2600 2669 2842 
Q 2491 3084 2119 3084 
Q 1678 3084 1418 2786 
Q 1159 2488 1159 1978 
L 1159 0 
L 581 0 
L 581 3500 
L 1159 3500 
L 1159 2956 
Q 1356 3278 1631 3431 
Q 1906 3584 2284 3584 
Q 2666 3584 2933 3390 
Q 3200 3197 3328 2828 
z
" id="DejaVuSans-6d" transform="scale(0.015625)"/>
       <path d="M 3513 2113 
L 3513 0 
L 2938 0 
L 2938 2094 
Q 2938 2591 2744 2837 
Q 2550 3084 2163 3084 
Q 1697 3084 1428 2787 
Q 1159 2491 1159 1978 
L 1159 0 
L 581 0 
L 581 3500 
L 1159 3500 
L 1159 2956 
Q 1366 3272 1645 3428 
Q 1925 3584 2291 3584 
Q 2894 3584 3203 3211 
Q 3513 2838 3513 2113 
z
" id="DejaVuSans-6e" transform="scale(0.015625)"/>
       <path d="M 513 4856 
L 1013 4856 
Q 1481 4119 1714 3412 
Q 1947 2706 1947 2009 
Q 1947 1309 1714 600 
Q 1481 -109 1013 -844 
L 513 -844 
Q 928 -128 1133 580 
Q 1338 1288 1338 2009 
Q 1338 2731 1133 3434 
Q 928 4138 513 4856 
z
" id="DejaVuSans-29" transform="scale(0.015625)"/>
      </defs>
      <use xlink:href="#DejaVuSans-6c"/>
      <use x="27.783203" xlink:href="#DejaVuSans-6f"/>
      <use x="88.964844" xlink:href="#DejaVuSans-67"/>
      <use x="152.441406" xlink:href="#DejaVuSans-31"/>
      <use x="216.064453" xlink:href="#DejaVuSans-30"/>
      <use x="279.6875" xlink:href="#DejaVuSans-28"/>
      <use x="318.701172" xlink:href="#DejaVuSans-23"/>
      <use x="402.490234" xlink:href="#DejaVuSans-20"/>
      <use x="434.277344" xlink:href="#DejaVuSans-66"/>
      <use x="463.982422" xlink:href="#DejaVuSans-2d"/>
      <use x="500.066406" xlink:href="#DejaVuSans-65"/>
      <use x="561.589844" xlink:href="#DejaVuSans-76"/>
      <use x="620.769531" xlink:href="#DejaVuSans-61"/>
      <use x="682.048828" xlink:href="#DejaVuSans-6c"/>
      <use x="709.832031" xlink:href="#DejaVuSans-73"/>
      <use x="761.931641" xlink:href="#DejaVuSans-20"/>
      <use x="793.71875" xlink:href="#DejaVuSans-2f"/>
      <use x="827.410156" xlink:href="#DejaVuSans-20"/>
      <use x="859.197266" xlink:href="#DejaVuSans-64"/>
      <use x="922.673828" xlink:href="#DejaVuSans-69"/>
      <use x="950.457031" xlink:href="#DejaVuSans-6d"/>
      <use x="1047.869141" xlink:href="#DejaVuSans-65"/>
      <use x="1109.392578" xlink:href="#DejaVuSans-6e"/>
      <use x="1172.771484" xlink:href="#DejaVuSans-73"/>
      <use x="1224.871094" xlink:href="#DejaVuSans-69"/>
      <use x="1252.654297" xlink:href="#DejaVuSans-6f"/>
      <use x="1313.835938" xlink:href="#DejaVuSans-6e"/>
      <use x="1377.214844" xlink:href="#DejaVuSans-29"/>
     </g>
    </g>
   </g>
   <g id="matplotlib.axis_2">
    <g id="ytick_1">
     <g id="line2d_21">
      <path clip-path="url(#pfc54b5625a)" d="M 57.6 298.944 
L 360.8064 298.944 
" style="fill:none;stroke:#b0b0b0;stroke-linecap:square;stroke-width:0.8;"/>
     </g>
     <g id="line2d_22">
      <defs>
       <path d="M 0 0 
L -3.5 0 
" id="m4479487701" style="stroke:#000000;stroke-width:0.8;"/>
      </defs>
      <g>
       <use style="stroke:#000000;stroke-width:0.8;" x="57.6" xlink:href="#m4479487701" y="298.944"/>
      </g>
     </g>
     <g id="text_6">
      <!-- 0.0 -->
      <g transform="translate(25.155 305.02275)scale(0.16 -0.16)">
       <defs>
        <path d="M 684 794 
L 1344 794 
L 1344 0 
L 684 0 
L 684 794 
z
" id="DejaVuSans-2e" transform="scale(0.015625)"/>
       </defs>
       <use xlink:href="#DejaVuSans-30"/>
       <use x="63.623047" xlink:href="#DejaVuSans-2e"/>
       <use x="95.410156" xlink:href="#DejaVuSans-30"/>
      </g>
     </g>
    </g>
    <g id="ytick_2">
     <g id="line2d_23">
      <path clip-path="url(#pfc54b5625a)" d="M 57.6 244.6848 
L 360.8064 244.6848 
" style="fill:none;stroke:#b0b0b0;stroke-linecap:square;stroke-width:0.8;"/>
     </g>
     <g id="line2d_24">
      <g>
       <use style="stroke:#000000;stroke-width:0.8;" x="57.6" xlink:href="#m4479487701" y="244.6848"/>
      </g>
     </g>
     <g id="text_7">
      <!-- 0.2 -->
      <g transform="translate(25.155 250.76355)scale(0.16 -0.16)">
       <use xlink:href="#DejaVuSans-30"/>
       <use x="63.623047" xlink:href="#DejaVuSans-2e"/>
       <use x="95.410156" xlink:href="#DejaVuSans-32"/>
      </g>
     </g>
    </g>
    <g id="ytick_3">
     <g id="line2d_25">
      <path clip-path="url(#pfc54b5625a)" d="M 57.6 190.4256 
L 360.8064 190.4256 
" style="fill:none;stroke:#b0b0b0;stroke-linecap:square;stroke-width:0.8;"/>
     </g>
     <g id="line2d_26">
      <g>
       <use style="stroke:#000000;stroke-width:0.8;" x="57.6" xlink:href="#m4479487701" y="190.4256"/>
      </g>
     </g>
     <g id="text_8">
      <!-- 0.4 -->
      <g transform="translate(25.155 196.50435)scale(0.16 -0.16)">
       <use xlink:href="#DejaVuSans-30"/>
       <use x="63.623047" xlink:href="#DejaVuSans-2e"/>
       <use x="95.410156" xlink:href="#DejaVuSans-34"/>
      </g>
     </g>
    </g>
    <g id="ytick_4">
     <g id="line2d_27">
      <path clip-path="url(#pfc54b5625a)" d="M 57.6 136.1664 
L 360.8064 136.1664 
" style="fill:none;stroke:#b0b0b0;stroke-linecap:square;stroke-width:0.8;"/>
     </g>
     <g id="line2d_28">
      <g>
       <use style="stroke:#000000;stroke-width:0.8;" x="57.6" xlink:href="#m4479487701" y="136.1664"/>
      </g>
     </g>
     <g id="text_9">
      <!-- 0.6 -->
      <g transform="translate(25.155 142.24515)scale(0.16 -0.16)">
       <use xlink:href="#DejaVuSans-30"/>
       <use x="63.623047" xlink:href="#DejaVuSans-2e"/>
       <use x="95.410156" xlink:href="#DejaVuSans-36"/>
      </g>
     </g>
    </g>
    <g id="ytick_5">
     <g id="line2d_29">
      <path clip-path="url(#pfc54b5625a)" d="M 57.6 81.9072 
L 360.8064 81.9072 
" style="fill:none;stroke:#b0b0b0;stroke-linecap:square;stroke-width:0.8;"/>
     </g>
     <g id="line2d_30">
      <g>
       <use style="stroke:#000000;stroke-width:0.8;" x="57.6" xlink:href="#m4479487701" y="81.9072"/>
      </g>
     </g>
     <g id="text_10">
      <!-- 0.8 -->
      <g transform="translate(25.155 87.98595)scale(0.16 -0.16)">
       <defs>
        <path d="M 2034 2216 
Q 1584 2216 1326 1975 
Q 1069 1734 1069 1313 
Q 1069 891 1326 650 
Q 1584 409 2034 409 
Q 2484 409 2743 651 
Q 3003 894 3003 1313 
Q 3003 1734 2745 1975 
Q 2488 2216 2034 2216 
z
M 1403 2484 
Q 997 2584 770 2862 
Q 544 3141 544 3541 
Q 544 4100 942 4425 
Q 1341 4750 2034 4750 
Q 2731 4750 3128 4425 
Q 3525 4100 3525 3541 
Q 3525 3141 3298 2862 
Q 3072 2584 2669 2484 
Q 3125 2378 3379 2068 
Q 3634 1759 3634 1313 
Q 3634 634 3220 271 
Q 2806 -91 2034 -91 
Q 1263 -91 848 271 
Q 434 634 434 1313 
Q 434 1759 690 2068 
Q 947 2378 1403 2484 
z
M 1172 3481 
Q 1172 3119 1398 2916 
Q 1625 2713 2034 2713 
Q 2441 2713 2670 2916 
Q 2900 3119 2900 3481 
Q 2900 3844 2670 4047 
Q 2441 4250 2034 4250 
Q 1625 4250 1398 4047 
Q 1172 3844 1172 3481 
z
" id="DejaVuSans-38" transform="scale(0.015625)"/>
       </defs>
       <use xlink:href="#DejaVuSans-30"/>
       <use x="63.623047" xlink:href="#DejaVuSans-2e"/>
       <use x="95.410156" xlink:href="#DejaVuSans-38"/>
      </g>
     </g>
    </g>
    <g id="ytick_6">
     <g id="line2d_31">
      <path clip-path="url(#pfc54b5625a)" d="M 57.6 27.648 
L 360.8064 27.648 
" style="fill:none;stroke:#b0b0b0;stroke-linecap:square;stroke-width:0.8;"/>
     </g>
     <g id="line2d_32">
      <g>
       <use style="stroke:#000000;stroke-width:0.8;" x="57.6" xlink:href="#m4479487701" y="27.648"/>
      </g>
     </g>
     <g id="text_11">
      <!-- 1.0 -->
      <g transform="translate(25.155 33.72675)scale(0.16 -0.16)">
       <use xlink:href="#DejaVuSans-31"/>
       <use x="63.623047" xlink:href="#DejaVuSans-2e"/>
       <use x="95.410156" xlink:href="#DejaVuSans-30"/>
      </g>
     </g>
    </g>
    <g id="text_12">
     <!-- Fraction of function,target pairs -->
     <g transform="translate(17.619531 297.681)rotate(-90)scale(0.17 -0.17)">
      <defs>
       <path d="M 628 4666 
L 3309 4666 
L 3309 4134 
L 1259 4134 
L 1259 2759 
L 3109 2759 
L 3109 2228 
L 1259 2228 
L 1259 0 
L 628 0 
L 628 4666 
z
" id="DejaVuSans-46" transform="scale(0.015625)"/>
       <path d="M 2631 2963 
Q 2534 3019 2420 3045 
Q 2306 3072 2169 3072 
Q 1681 3072 1420 2755 
Q 1159 2438 1159 1844 
L 1159 0 
L 581 0 
L 581 3500 
L 1159 3500 
L 1159 2956 
Q 1341 3275 1631 3429 
Q 1922 3584 2338 3584 
Q 2397 3584 2469 3576 
Q 2541 3569 2628 3553 
L 2631 2963 
z
" id="DejaVuSans-72" transform="scale(0.015625)"/>
       <path d="M 3122 3366 
L 3122 2828 
Q 2878 2963 2633 3030 
Q 2388 3097 2138 3097 
Q 1578 3097 1268 2742 
Q 959 2388 959 1747 
Q 959 1106 1268 751 
Q 1578 397 2138 397 
Q 2388 397 2633 464 
Q 2878 531 3122 666 
L 3122 134 
Q 2881 22 2623 -34 
Q 2366 -91 2075 -91 
Q 1284 -91 818 406 
Q 353 903 353 1747 
Q 353 2603 823 3093 
Q 1294 3584 2113 3584 
Q 2378 3584 2631 3529 
Q 2884 3475 3122 3366 
z
" id="DejaVuSans-63" transform="scale(0.015625)"/>
       <path d="M 1172 4494 
L 1172 3500 
L 2356 3500 
L 2356 3053 
L 1172 3053 
L 1172 1153 
Q 1172 725 1289 603 
Q 1406 481 1766 481 
L 2356 481 
L 2356 0 
L 1766 0 
Q 1100 0 847 248 
Q 594 497 594 1153 
L 594 3053 
L 172 3053 
L 172 3500 
L 594 3500 
L 594 4494 
L 1172 4494 
z
" id="DejaVuSans-74" transform="scale(0.015625)"/>
       <path d="M 544 1381 
L 544 3500 
L 1119 3500 
L 1119 1403 
Q 1119 906 1312 657 
Q 1506 409 1894 409 
Q 2359 409 2629 706 
Q 2900 1003 2900 1516 
L 2900 3500 
L 3475 3500 
L 3475 0 
L 2900 0 
L 2900 538 
Q 2691 219 2414 64 
Q 2138 -91 1772 -91 
Q 1169 -91 856 284 
Q 544 659 544 1381 
z
M 1991 3584 
L 1991 3584 
z
" id="DejaVuSans-75" transform="scale(0.015625)"/>
       <path d="M 750 794 
L 1409 794 
L 1409 256 
L 897 -744 
L 494 -744 
L 750 256 
L 750 794 
z
" id="DejaVuSans-2c" transform="scale(0.015625)"/>
       <path d="M 1159 525 
L 1159 -1331 
L 581 -1331 
L 581 3500 
L 1159 3500 
L 1159 2969 
Q 1341 3281 1617 3432 
Q 1894 3584 2278 3584 
Q 2916 3584 3314 3078 
Q 3713 2572 3713 1747 
Q 3713 922 3314 415 
Q 2916 -91 2278 -91 
Q 1894 -91 1617 61 
Q 1341 213 1159 525 
z
M 3116 1747 
Q 3116 2381 2855 2742 
Q 2594 3103 2138 3103 
Q 1681 3103 1420 2742 
Q 1159 2381 1159 1747 
Q 1159 1113 1420 752 
Q 1681 391 2138 391 
Q 2594 391 2855 752 
Q 3116 1113 3116 1747 
z
" id="DejaVuSans-70" transform="scale(0.015625)"/>
      </defs>
      <use xlink:href="#DejaVuSans-46"/>
      <use x="50.269531" xlink:href="#DejaVuSans-72"/>
      <use x="91.382812" xlink:href="#DejaVuSans-61"/>
      <use x="152.662109" xlink:href="#DejaVuSans-63"/>
      <use x="207.642578" xlink:href="#DejaVuSans-74"/>
      <use x="246.851562" xlink:href="#DejaVuSans-69"/>
      <use x="274.634766" xlink:href="#DejaVuSans-6f"/>
      <use x="335.816406" xlink:href="#DejaVuSans-6e"/>
      <use x="399.195312" xlink:href="#DejaVuSans-20"/>
      <use x="430.982422" xlink:href="#DejaVuSans-6f"/>
      <use x="492.164062" xlink:href="#DejaVuSans-66"/>
      <use x="527.369141" xlink:href="#DejaVuSans-20"/>
      <use x="559.15625" xlink:href="#DejaVuSans-66"/>
      <use x="594.361328" xlink:href="#DejaVuSans-75"/>
      <use x="657.740234" xlink:href="#DejaVuSans-6e"/>
      <use x="721.119141" xlink:href="#DejaVuSans-63"/>
      <use x="776.099609" xlink:href="#DejaVuSans-74"/>
      <use x="815.308594" xlink:href="#DejaVuSans-69"/>
      <use x="843.091797" xlink:href="#DejaVuSans-6f"/>
      <use x="904.273438" xlink:href="#DejaVuSans-6e"/>
      <use x="967.652344" xlink:href="#DejaVuSans-2c"/>
      <use x="999.439453" xlink:href="#DejaVuSans-74"/>
      <use x="1038.648438" xlink:href="#DejaVuSans-61"/>
      <use x="1099.927734" xlink:href="#DejaVuSans-72"/>
      <use x="1139.291016" xlink:href="#DejaVuSans-67"/>
      <use x="1202.767578" xlink:href="#DejaVuSans-65"/>
      <use x="1264.291016" xlink:href="#DejaVuSans-74"/>
      <use x="1303.5" xlink:href="#DejaVuSans-20"/>
      <use x="1335.287109" xlink:href="#DejaVuSans-70"/>
      <use x="1398.763672" xlink:href="#DejaVuSans-61"/>
      <use x="1460.042969" xlink:href="#DejaVuSans-69"/>
      <use x="1487.826172" xlink:href="#DejaVuSans-72"/>
      <use x="1528.939453" xlink:href="#DejaVuSans-73"/>
     </g>
    </g>
   </g>
   <g id="line2d_33">
    <defs>
     <path d="M 0 1.5 
C 0.397805 1.5 0.77937 1.341951 1.06066 1.06066 
C 1.341951 0.77937 1.5 0.397805 1.5 0 
C 1.5 -0.397805 1.341951 -0.77937 1.06066 -1.06066 
C 0.77937 -1.341951 0.397805 -1.5 0 -1.5 
C -0.397805 -1.5 -0.77937 -1.341951 -1.06066 -1.06066 
C -1.341951 -0.77937 -1.5 -0.397805 -1.5 0 
C -1.5 0.397805 -1.341951 0.77937 -1.06066 1.06066 
C -0.77937 1.341951 -0.397805 1.5 0 1.5 
z
" id="md35678bdd0" style="stroke:#f5deb3;"/>
    </defs>
    <g>
     <use style="fill:#f5deb3;stroke:#f5deb3;" x="141.099251" xlink:href="#md35678bdd0" y="27.648"/>
     <use style="fill:#f5deb3;stroke:#f5deb3;" x="141.099251" xlink:href="#md35678bdd0" y="27.648"/>
    </g>
   </g>
   <g id="line2d_34">
    <defs>
     <path d="M 0 1.5 
C 0.397805 1.5 0.77937 1.341951 1.06066 1.06066 
C 1.341951 0.77937 1.5 0.397805 1.5 0 
C 1.5 -0.397805 1.341951 -0.77937 1.06066 -1.06066 
C 0.77937 -1.341951 0.397805 -1.5 0 -1.5 
C -0.397805 -1.5 -0.77937 -1.341951 -1.06066 -1.06066 
C -1.341951 -0.77937 -1.5 -0.397805 -1.5 0 
C -1.5 0.397805 -1.341951 0.77937 -1.06066 1.06066 
C -0.77937 1.341951 -0.397805 1.5 0 1.5 
z
" id="m2f228aba17" style="stroke:#000080;"/>
    </defs>
    <g>
     <use style="fill:#000080;stroke:#000080;" x="247.545083" xlink:href="#m2f228aba17" y="27.648"/>
     <use style="fill:#000080;stroke:#000080;" x="247.545083" xlink:href="#m2f228aba17" y="27.648"/>
    </g>
   </g>
   <g id="line2d_35">
    <path d="M 161.290852 298.944 
L 161.290852 298.589365 
L 169.880655 298.589365 
L 169.880655 298.234729 
L 171.061619 298.234729 
L 171.061619 297.880094 
L 176.104537 297.880094 
L 176.104537 297.170824 
L 176.514738 297.170824 
L 176.514738 296.106918 
L 176.805529 296.106918 
L 176.805529 295.752282 
L 177.967504 295.752282 
L 177.967504 295.043012 
L 180.188981 295.043012 
L 180.188981 292.9152 
L 180.538033 292.9152 
L 180.538033 292.560565 
L 182.125491 292.560565 
L 182.125491 291.142024 
L 183.418335 291.142024 
L 183.418335 290.432753 
L 183.957164 290.432753 
L 184.048005 287.950306 
L 184.288124 287.950306 
L 184.392219 287.241035 
L 185.33227 287.241035 
L 185.33227 286.531765 
L 185.528737 286.531765 
L 185.528737 285.822494 
L 186.106119 285.822494 
L 186.160194 285.113224 
L 186.254454 285.113224 
L 186.254454 284.049318 
L 186.534433 284.049318 
L 186.534433 283.340047 
L 187.426081 283.340047 
L 187.426081 282.630776 
L 188.180623 282.630776 
L 188.180623 280.502965 
L 188.623973 280.502965 
L 188.623973 279.793694 
L 189.13795 279.793694 
L 189.13795 279.084424 
L 189.638257 279.084424 
L 189.638257 278.375153 
L 189.794695 278.375153 
L 189.794695 277.311247 
L 189.960876 277.311247 
L 189.960876 276.247341 
L 190.299733 276.247341 
L 190.299733 275.538071 
L 190.653869 275.538071 
L 190.653869 275.183435 
L 191.798376 275.183435 
L 191.798376 274.8288 
L 192.763533 274.8288 
L 192.763533 274.474165 
L 192.980846 274.474165 
L 192.980846 272.346353 
L 193.214243 272.346353 
L 193.214243 271.991718 
L 193.888597 271.991718 
L 193.888597 271.637082 
L 194.357142 271.637082 
L 194.452942 269.154635 
L 194.625883 269.154635 
L 194.625883 267.736094 
L 195.034568 267.736094 
L 195.034568 267.381459 
L 195.177208 267.381459 
L 195.177208 267.026824 
L 196.114719 267.026824 
L 196.114719 265.608282 
L 196.257322 265.608282 
L 196.257322 264.899012 
L 196.492616 264.899012 
L 196.492616 264.544376 
L 196.755773 264.544376 
L 196.755773 264.189741 
L 197.707417 264.189741 
L 197.707417 263.480471 
L 197.85299 263.480471 
L 197.85299 262.7712 
L 198.261797 262.7712 
L 198.261797 261.707294 
L 198.431303 261.707294 
L 198.431303 260.998024 
L 198.543465 260.998024 
L 198.543465 259.934118 
L 198.889721 259.934118 
L 198.889721 258.870212 
L 199.510643 258.870212 
L 199.510643 258.515576 
L 200.040857 258.515576 
L 200.040857 257.806306 
L 200.812267 257.806306 
L 200.812267 257.097035 
L 201.052339 257.097035 
L 201.162117 255.323859 
L 201.198568 255.323859 
L 201.198568 254.259953 
L 201.463736 254.259953 
L 201.565194 252.841412 
L 201.636484 252.841412 
L 201.695686 251.422871 
L 202.12231 251.422871 
L 202.12231 251.068235 
L 202.254746 251.068235 
L 202.254746 250.7136 
L 202.511193 250.7136 
L 202.511193 250.358965 
L 202.674626 250.358965 
L 202.725059 249.649694 
L 203.368675 249.649694 
L 203.422677 247.521882 
L 203.801697 247.521882 
L 203.801697 247.167247 
L 204.136925 247.167247 
L 204.235306 246.457976 
L 204.338313 246.457976 
L 204.338313 245.394071 
L 204.51214 245.394071 
L 204.51214 244.6848 
L 204.719641 244.6848 
L 204.74479 242.556988 
L 205.103259 242.556988 
L 205.103259 241.847718 
L 205.411411 241.847718 
L 205.411411 240.783812 
L 205.575642 240.783812 
L 205.575642 240.429176 
L 206.329807 240.429176 
L 206.329807 240.074541 
L 206.559415 240.074541 
L 206.559415 237.946729 
L 206.889689 237.946729 
L 206.889689 237.592094 
L 207.214264 237.592094 
L 207.240694 236.173553 
L 207.332908 236.173553 
L 207.350421 234.755012 
L 207.524664 234.755012 
L 207.524664 234.400376 
L 207.680115 234.400376 
L 207.705899 233.336471 
L 207.957576 233.336471 
L 207.957576 232.981835 
L 208.384892 232.981835 
L 208.409728 229.790118 
L 208.903723 229.790118 
L 209.000183 228.726212 
L 209.028224 228.726212 
L 209.108112 226.5984 
L 209.310303 226.5984 
L 209.310303 226.243765 
L 209.428232 226.243765 
L 209.533739 225.179859 
L 209.685102 225.179859 
L 209.685102 224.470588 
L 209.976611 224.470588 
L 210.056369 222.697412 
L 210.21112 222.697412 
L 210.24492 221.278871 
L 210.843159 221.278871 
L 210.883099 220.214965 
L 211.092298 220.214965 
L 211.092298 219.860329 
L 211.594866 219.860329 
L 211.594866 218.441788 
L 211.841203 218.441788 
L 211.879081 217.023247 
L 212.005932 217.023247 
L 212.005932 214.895435 
L 212.165843 214.895435 
L 212.165843 213.831529 
L 212.696957 213.831529 
L 212.696957 213.122259 
L 212.824972 213.122259 
L 212.880502 211.703718 
L 213.010518 211.703718 
L 213.049348 210.285176 
L 213.184625 210.285176 
L 213.245504 207.802729 
L 213.302998 207.802729 
L 213.302998 206.738824 
L 213.493384 206.738824 
L 213.591 204.256376 
L 214.016436 204.256376 
L 214.093043 202.837835 
L 214.402406 202.837835 
L 214.402406 202.4832 
L 214.626676 202.4832 
L 214.727471 199.291482 
L 214.783563 199.291482 
L 214.783563 198.936847 
L 214.912822 198.936847 
L 214.959606 197.518306 
L 215.15426 197.518306 
L 215.183141 195.745129 
L 215.512123 195.745129 
L 215.594183 193.971953 
L 215.827085 193.971953 
L 215.905009 193.262682 
L 216.04336 193.262682 
L 216.048873 191.844141 
L 216.164274 191.844141 
L 216.235359 187.588518 
L 216.352336 187.588518 
L 216.43352 186.169976 
L 216.476675 186.169976 
L 216.58681 185.106071 
L 216.6109 185.106071 
L 216.6109 182.623624 
L 216.783973 182.623624 
L 216.805164 181.205082 
L 217.015778 181.205082 
L 217.015778 179.077271 
L 217.435182 179.077271 
L 217.488871 178.013365 
L 217.802805 178.013365 
L 217.802805 177.658729 
L 217.922935 177.658729 
L 217.922935 176.594824 
L 218.069551 176.594824 
L 218.106645 174.821647 
L 218.391061 174.821647 
L 218.391061 173.048471 
L 218.616019 173.048471 
L 218.673638 170.566024 
L 218.824055 170.566024 
L 218.921303 168.438212 
L 219.03452 168.438212 
L 219.03452 166.665035 
L 219.390915 166.665035 
L 219.413976 165.955765 
L 219.606576 165.955765 
L 219.661244 163.118682 
L 219.758796 163.118682 
L 219.758796 161.345506 
L 220.09074 161.345506 
L 220.177245 158.863059 
L 220.623364 158.863059 
L 220.726813 154.962071 
L 220.859599 154.962071 
L 220.923515 153.543529 
L 221.092903 153.543529 
L 221.137116 149.642541 
L 221.379485 149.642541 
L 221.464409 147.514729 
L 221.528366 147.514729 
L 221.606469 146.805459 
L 221.883369 146.805459 
L 221.883369 146.450824 
L 222.042363 146.450824 
L 222.138316 145.032282 
L 222.229813 145.032282 
L 222.229813 143.613741 
L 222.342575 143.613741 
L 222.34652 142.904471 
L 222.581679 142.904471 
L 222.649718 140.776659 
L 222.995793 140.776659 
L 223.092701 139.003482 
L 223.162696 139.003482 
L 223.271896 137.230306 
L 223.527345 137.230306 
L 223.577282 133.683953 
L 223.691454 133.683953 
L 223.691454 132.974682 
L 224.069497 132.974682 
L 224.175361 131.910776 
L 224.252143 131.910776 
L 224.305527 131.201506 
L 224.376471 131.201506 
L 224.378241 128.719059 
L 224.494705 128.719059 
L 224.494705 128.009788 
L 224.633168 128.009788 
L 224.647133 125.881976 
L 224.810448 125.881976 
L 224.810448 125.527341 
L 224.927713 125.527341 
L 224.943179 123.754165 
L 225.313963 123.754165 
L 225.313963 121.626353 
L 225.51832 121.626353 
L 225.554936 120.562447 
L 225.812553 120.562447 
L 225.869871 119.853176 
L 225.927014 119.853176 
L 226.016461 117.370729 
L 226.165138 117.370729 
L 226.248656 113.469741 
L 226.328613 113.469741 
L 226.328613 111.341929 
L 226.468518 111.341929 
L 226.569617 109.923388 
L 226.674877 109.923388 
L 226.674877 109.568753 
L 226.979461 109.568753 
L 227.053308 108.504847 
L 227.146738 108.504847 
L 227.239706 107.440941 
L 227.304966 107.440941 
L 227.304966 106.731671 
L 227.431801 106.731671 
L 227.431801 106.377035 
L 227.562271 106.377035 
L 227.562271 106.0224 
L 227.717056 106.0224 
L 227.817578 101.766776 
L 227.863226 101.766776 
L 227.952728 100.702871 
L 227.980519 100.702871 
L 228.022858 99.284329 
L 228.198492 99.284329 
L 228.198492 98.929694 
L 228.358181 98.929694 
L 228.462468 96.801882 
L 228.544915 96.801882 
L 228.655227 95.737976 
L 228.700296 95.737976 
L 228.759286 93.9648 
L 228.8125 93.9648 
L 228.8125 92.191624 
L 228.936545 92.191624 
L 228.936545 91.836988 
L 229.139653 91.836988 
L 229.153391 89.709176 
L 229.260201 89.709176 
L 229.260201 88.999906 
L 229.381338 88.999906 
L 229.396256 87.936 
L 229.513829 87.936 
L 229.550168 85.453553 
L 229.654755 85.453553 
L 229.686819 83.325741 
L 229.787996 83.325741 
L 229.872777 80.134024 
L 229.903153 80.134024 
L 229.950598 78.715482 
L 230.026788 78.715482 
L 230.026788 78.360847 
L 230.162636 78.360847 
L 230.209432 76.942306 
L 230.285876 76.942306 
L 230.347839 75.169129 
L 230.421155 75.169129 
L 230.49163 73.750588 
L 230.533788 73.750588 
L 230.643214 71.977412 
L 230.768397 71.977412 
L 230.842607 70.204235 
L 230.931524 70.204235 
L 231.039908 66.657882 
L 231.098202 66.657882 
L 231.203171 64.175435 
L 231.527927 64.175435 
L 231.632938 62.756894 
L 231.640159 62.756894 
L 231.701423 61.692988 
L 231.760097 61.692988 
L 231.830503 58.855906 
L 231.912509 58.855906 
L 231.944502 56.373459 
L 232.124772 56.373459 
L 232.169278 55.664188 
L 232.266125 55.664188 
L 232.317264 54.954918 
L 232.415663 54.954918 
L 232.500911 53.536376 
L 232.544537 53.536376 
L 232.566312 49.635388 
L 232.690749 49.635388 
L 232.690749 47.507576 
L 232.824539 47.507576 
L 232.919202 46.443671 
L 233.010036 46.443671 
L 233.097093 45.379765 
L 233.230246 45.379765 
L 233.293164 41.833412 
L 233.410709 41.833412 
L 233.410709 40.769506 
L 233.527525 40.769506 
L 233.551453 39.7056 
L 233.684677 39.7056 
L 233.779416 37.223153 
L 233.842668 37.223153 
L 233.917438 35.095341 
L 234.133659 35.095341 
L 234.19048 33.6768 
L 234.276438 33.6768 
L 234.276438 32.967529 
L 234.563936 32.967529 
L 234.563936 32.612894 
L 234.922038 32.612894 
L 234.922038 32.258259 
L 235.034885 32.258259 
L 235.112076 30.839718 
L 235.317043 30.839718 
L 235.421648 30.130447 
L 235.701985 30.130447 
L 235.717492 29.421176 
L 243.883978 29.421176 
L 243.883978 29.066541 
L 246.587095 29.066541 
L 246.587095 28.711906 
L 246.765628 28.711906 
L 246.835496 28.002635 
L 247.545083 28.002635 
L 247.545083 27.648 
L 360.8064 27.648 
L 360.8064 27.648 
" style="fill:none;stroke:#000080;stroke-linecap:square;stroke-width:1.5;"/>
   </g>
   <g id="line2d_36">
    <defs>
     <path d="M 0 6 
C 1.591219 6 3.117479 5.367802 4.242641 4.242641 
C 5.367802 3.117479 6 1.591219 6 0 
C 6 -1.591219 5.367802 -3.117479 4.242641 -4.242641 
C 3.117479 -5.367802 1.591219 -6 0 -6 
C -1.591219 -6 -3.117479 -5.367802 -4.242641 -4.242641 
C -5.367802 -3.117479 -6 -1.591219 -6 0 
C -6 1.591219 -5.367802 3.117479 -4.242641 4.242641 
C -3.117479 5.367802 -1.591219 6 0 6 
z
" id="md2d9235b76" style="stroke:#000080;stroke-width:1.5;"/>
    </defs>
    <g>
     <use style="fill-opacity:0;stroke:#000080;stroke-width:1.5;" x="229.787996" xlink:href="#md2d9235b76" y="83.325741"/>
     <use style="fill-opacity:0;stroke:#000080;stroke-width:1.5;" x="247.545083" xlink:href="#md2d9235b76" y="27.648"/>
     <use style="fill-opacity:0;stroke:#000080;stroke-width:1.5;" x="247.545083" xlink:href="#md2d9235b76" y="27.648"/>
     <use style="fill-opacity:0;stroke:#000080;stroke-width:1.5;" x="360.8064" xlink:href="#md2d9235b76" y="27.648"/>
    </g>
   </g>
   <g id="line2d_37">
    <path style="fill:none;stroke:#000080;stroke-linecap:square;stroke-width:1.5;"/>
    <g/>
   </g>
   <g id="line2d_38">
    <path clip-path="url(#pfc54b5625a)" d="M 236.28195 29.421176 
" style="fill:none;stroke:#000080;stroke-linecap:square;stroke-width:1.5;"/>
    <defs>
     <path d="M -12 12 
L 12 -12 
M -12 -12 
L 12 12 
" id="m4777f3ae12" style="stroke:#000080;"/>
    </defs>
    <g clip-path="url(#pfc54b5625a)">
     <use style="fill:#000080;stroke:#000080;" x="236.28195" xlink:href="#m4777f3ae12" y="29.421176"/>
    </g>
   </g>
   <g id="line2d_39">
    <defs>
     <path d="M 0 1.5 
C 0.397805 1.5 0.77937 1.341951 1.06066 1.06066 
C 1.341951 0.77937 1.5 0.397805 1.5 0 
C 1.5 -0.397805 1.341951 -0.77937 1.06066 -1.06066 
C 0.77937 -1.341951 0.397805 -1.5 0 -1.5 
C -0.397805 -1.5 -0.77937 -1.341951 -1.06066 -1.06066 
C -1.341951 -0.77937 -1.5 -0.397805 -1.5 0 
C -1.5 0.397805 -1.341951 0.77937 -1.06066 1.06066 
C -0.77937 1.341951 -0.397805 1.5 0 1.5 
z
" id="m6d7699ec4e" style="stroke:#ff00ff;"/>
    </defs>
    <g>
     <use style="fill:#ff00ff;stroke:#ff00ff;" x="197.060729" xlink:href="#m6d7699ec4e" y="27.648"/>
     <use style="fill:#ff00ff;stroke:#ff00ff;" x="197.060729" xlink:href="#m6d7699ec4e" y="27.648"/>
    </g>
   </g>
   <g id="line2d_40">
    <path d="M 110.144579 298.944 
L 110.144579 297.525459 
L 124.659926 297.525459 
L 124.659926 296.106918 
L 127.761474 296.106918 
L 127.761474 295.043012 
L 128.643427 295.043012 
L 128.643427 294.333741 
L 129.069367 294.333741 
L 129.069367 293.624471 
L 130.811181 293.624471 
L 130.811181 293.269835 
L 131.191226 293.269835 
L 131.191226 292.9152 
L 131.686295 292.9152 
L 131.686295 292.560565 
L 131.808053 292.560565 
L 131.808053 292.205929 
L 131.929028 292.205929 
L 131.929028 291.851294 
L 132.754746 291.851294 
L 132.754746 290.787388 
L 133.323114 290.787388 
L 133.323114 290.078118 
L 133.874812 290.078118 
L 133.874812 289.368847 
L 134.828842 289.368847 
L 134.828842 289.014212 
L 135.136394 289.014212 
L 135.136394 287.241035 
L 135.338671 287.241035 
L 135.338671 286.531765 
L 136.029987 286.531765 
L 136.029987 286.177129 
L 136.222928 286.177129 
L 136.318661 285.113224 
L 138.050729 285.113224 
L 138.050729 284.758588 
L 138.395904 284.758588 
L 138.395904 282.630776 
L 138.985129 282.630776 
L 138.985129 282.276141 
L 139.394983 282.276141 
L 139.394983 281.921506 
L 140.110942 281.921506 
L 140.110942 281.566871 
L 140.649551 281.566871 
L 140.725251 280.502965 
L 141.465959 280.502965 
L 141.465959 280.148329 
L 141.610664 280.148329 
L 141.610664 279.084424 
L 141.754265 279.084424 
L 141.825656 278.375153 
L 142.108542 278.375153 
L 142.108542 278.020518 
L 143.592659 278.020518 
L 143.592659 277.665882 
L 143.721949 277.665882 
L 143.721949 277.311247 
L 143.977892 277.311247 
L 143.977892 276.956612 
L 144.293001 276.956612 
L 144.355394 276.247341 
L 144.417581 276.247341 
L 144.479563 274.474165 
L 144.541342 274.474165 
L 144.541342 274.119529 
L 144.664294 274.119529 
L 144.664294 273.764894 
L 144.907812 273.764894 
L 144.907812 273.410259 
L 145.26728 273.410259 
L 145.326529 271.991718 
L 145.620007 271.991718 
L 145.620007 271.637082 
L 146.080251 271.637082 
L 146.080251 271.282447 
L 146.24998 271.282447 
L 146.24998 270.927812 
L 146.47393 270.927812 
L 146.47393 269.509271 
L 146.804934 269.509271 
L 146.913986 267.736094 
L 147.237402 267.736094 
L 147.237402 265.962918 
L 147.712333 265.962918 
L 147.712333 265.608282 
L 148.022421 265.608282 
L 148.022421 264.544376 
L 148.226342 264.544376 
L 148.276979 263.480471 
L 148.627671 263.480471 
L 148.627671 263.125835 
L 148.775988 263.125835 
L 148.775988 262.416565 
L 149.020615 262.416565 
L 149.117582 260.288753 
L 149.262102 260.288753 
L 149.357835 259.224847 
L 149.595059 259.224847 
L 149.595059 258.870212 
L 149.829328 258.870212 
L 149.875833 257.451671 
L 150.106653 257.451671 
L 150.106653 257.097035 
L 150.243797 257.097035 
L 150.289291 255.678494 
L 150.379949 255.678494 
L 150.470172 252.841412 
L 150.515122 252.841412 
L 150.515122 252.132141 
L 150.8268 252.132141 
L 150.8268 251.068235 
L 151.046307 251.068235 
L 151.046307 248.940424 
L 151.263283 248.940424 
L 151.306379 246.457976 
L 151.435079 246.457976 
L 151.477784 245.748706 
L 151.647641 245.748706 
L 151.647641 245.394071 
L 151.815978 245.394071 
L 151.899585 244.330165 
L 152.1482 244.330165 
L 152.230346 239.010635 
L 152.352898 239.010635 
L 152.393571 237.237459 
L 152.474656 237.237459 
L 152.474656 236.882824 
L 152.635783 236.882824 
L 152.675851 235.818918 
L 152.795543 235.818918 
L 152.874916 232.6272 
L 152.953957 232.6272 
L 152.953957 232.272565 
L 153.189104 232.272565 
L 153.189104 231.917929 
L 153.305585 231.917929 
L 153.305585 231.563294 
L 153.421349 231.563294 
L 153.459779 230.854024 
L 153.5746 230.854024 
L 153.5746 230.144753 
L 153.726614 230.144753 
L 153.726614 229.790118 
L 153.914919 229.790118 
L 153.914919 228.726212 
L 154.064218 228.726212 
L 154.138425 226.5984 
L 154.212341 226.5984 
L 154.285968 223.406682 
L 154.468783 223.406682 
L 154.505134 220.214965 
L 154.721776 220.214965 
L 154.721776 219.505694 
L 154.86483 219.505694 
L 154.86483 218.441788 
L 155.006805 218.441788 
L 155.006805 217.732518 
L 155.18278 217.732518 
L 155.18278 216.668612 
L 155.357123 216.668612 
L 155.391799 215.959341 
L 155.598521 215.959341 
L 155.632755 214.895435 
L 155.735085 214.895435 
L 155.735085 214.5408 
L 155.904407 214.5408 
L 156.005274 213.476894 
L 156.072219 213.476894 
L 156.172192 210.285176 
L 156.205398 210.285176 
L 156.205398 209.930541 
L 156.370558 209.930541 
L 156.436218 209.221271 
L 156.53428 209.221271 
L 156.631834 207.802729 
L 156.696589 207.802729 
L 156.761123 206.384188 
L 156.88953 206.384188 
L 156.953406 204.965647 
L 157.017067 204.965647 
L 157.048816 203.901741 
L 157.206765 203.901741 
L 157.206765 201.773929 
L 157.518738 201.773929 
L 157.580516 197.872941 
L 157.734081 197.872941 
L 157.825621 194.326588 
L 157.916719 194.326588 
L 158.007377 191.134871 
L 158.336102 191.134871 
L 158.336102 189.361694 
L 158.483644 189.361694 
L 158.571617 188.297788 
L 158.659181 188.297788 
L 158.746339 186.524612 
L 158.775302 186.524612 
L 158.861925 185.815341 
L 158.919453 185.815341 
L 159.005416 184.751435 
L 159.033983 184.751435 
L 159.119425 182.978259 
L 159.176172 182.978259 
L 159.176172 182.268988 
L 159.317295 182.268988 
L 159.345393 181.559718 
L 159.513105 181.559718 
L 159.596403 179.786541 
L 159.844108 179.786541 
L 159.844108 178.368 
L 160.088594 178.368 
L 160.169388 175.885553 
L 160.249837 175.885553 
L 160.329943 174.821647 
L 160.409709 174.821647 
L 160.515541 172.693835 
L 160.620781 172.693835 
L 160.673181 170.566024 
L 160.777545 170.566024 
L 160.855439 167.728941 
L 160.933013 167.728941 
L 160.984551 167.019671 
L 161.061595 167.019671 
L 161.061595 166.3104 
L 161.189305 166.3104 
L 161.290852 165.246494 
L 161.366654 165.246494 
L 161.442152 164.182588 
L 161.492316 164.182588 
L 161.542347 163.118682 
L 161.716414 163.118682 
L 161.790524 161.345506 
L 161.913396 161.345506 
L 161.986735 158.863059 
L 162.03547 158.863059 
L 162.084079 157.799153 
L 162.180921 157.799153 
L 162.277267 156.025976 
L 162.301277 156.025976 
L 162.325256 154.607435 
L 162.468491 154.607435 
L 162.56338 151.061082 
L 162.587027 151.061082 
L 162.681321 147.514729 
L 162.728291 147.514729 
L 162.775144 146.805459 
L 162.845206 146.805459 
L 162.938218 144.677647 
L 163.053839 144.677647 
L 163.053839 143.968376 
L 163.168754 143.968376 
L 163.260183 141.485929 
L 163.305732 141.485929 
L 163.373849 140.422024 
L 163.419123 140.422024 
L 163.486831 139.712753 
L 163.59914 139.712753 
L 163.688506 139.003482 
L 163.777449 139.003482 
L 163.888041 137.230306 
L 163.910081 137.230306 
L 164.019898 135.102494 
L 164.041785 135.102494 
L 164.150838 132.620047 
L 164.280872 132.620047 
L 164.388551 130.492235 
L 164.686815 130.492235 
L 164.792203 129.073694 
L 164.897003 129.073694 
L 164.897003 128.719059 
L 165.042749 128.719059 
L 165.146166 128.009788 
L 165.228492 128.009788 
L 165.31046 126.945882 
L 165.35131 126.945882 
L 165.45305 124.1088 
L 165.554242 124.1088 
L 165.634805 122.690259 
L 165.755007 122.690259 
L 165.814821 121.980988 
L 165.914091 121.980988 
L 166.012839 121.271718 
L 166.111072 121.271718 
L 166.169767 120.207812 
L 166.247742 120.207812 
L 166.247742 119.853176 
L 166.364103 119.853176 
L 166.441278 117.370729 
L 166.479748 117.370729 
L 166.537305 116.661459 
L 166.7279 116.661459 
L 166.8036 115.597553 
L 166.991529 115.597553 
L 167.084795 112.760471 
L 167.103392 112.760471 
L 167.196106 110.632659 
L 167.251516 110.632659 
L 167.361848 108.150212 
L 167.453299 108.150212 
L 167.453299 107.795576 
L 167.6168 107.795576 
L 167.707023 107.086306 
L 167.76095 107.086306 
L 167.850487 105.667765 
L 167.886182 105.667765 
L 167.939599 104.249224 
L 168.045979 104.249224 
L 168.134173 103.185318 
L 168.186891 103.185318 
L 168.291886 101.766776 
L 168.344164 101.766776 
L 168.413644 101.057506 
L 168.465585 101.057506 
L 168.551837 99.284329 
L 168.637696 99.284329 
L 168.723164 98.575059 
L 168.825216 98.575059 
L 168.909839 95.737976 
L 169.027674 95.737976 
L 169.111393 93.9648 
L 169.144777 93.9648 
L 169.244573 92.546259 
L 169.343842 92.546259 
L 169.442591 90.418447 
L 169.458999 90.418447 
L 169.540824 87.936 
L 169.573454 87.936 
L 169.654784 86.517459 
L 169.719596 86.517459 
L 169.784185 85.808188 
L 169.832482 85.808188 
L 169.896685 84.744282 
L 170.008516 84.744282 
L 170.008516 84.389647 
L 170.167131 84.389647 
L 170.27737 82.971106 
L 170.418164 82.971106 
L 170.526947 82.261835 
L 170.619691 82.261835 
L 170.665892 81.552565 
L 170.742643 81.552565 
L 170.742643 81.197929 
L 170.895211 81.197929 
L 170.895211 80.843294 
L 171.031472 80.843294 
L 171.091717 79.424753 
L 171.15177 79.424753 
L 171.15177 79.070118 
L 171.345629 79.070118 
L 171.345629 78.715482 
L 171.596158 78.715482 
L 171.698355 77.296941 
L 171.785513 77.296941 
L 171.88669 75.8784 
L 171.901099 75.8784 
L 171.987325 75.169129 
L 172.058879 75.169129 
L 172.101681 74.105224 
L 172.186995 74.105224 
L 172.257795 72.686682 
L 172.370523 72.686682 
L 172.440637 71.977412 
L 172.663262 71.977412 
L 172.704712 70.913506 
L 172.924252 70.913506 
L 173.005923 69.8496 
L 173.060174 69.8496 
L 173.060174 69.494965 
L 173.315751 69.494965 
L 173.315751 69.140329 
L 173.646832 69.140329 
L 173.646832 68.785694 
L 173.816719 68.785694 
L 173.829724 68.076424 
L 173.959281 68.076424 
L 174.049442 67.012518 
L 174.11358 67.012518 
L 174.203007 65.948612 
L 174.304691 65.948612 
L 174.304691 65.593976 
L 174.431028 65.593976 
L 174.443616 64.884706 
L 174.581522 64.884706 
L 174.643874 63.466165 
L 174.718424 63.466165 
L 174.79268 62.756894 
L 175.038105 62.756894 
L 175.123253 62.047624 
L 175.304425 62.047624 
L 175.32845 60.983718 
L 175.424244 60.983718 
L 175.448117 59.919812 
L 175.942567 59.919812 
L 176.000573 58.146635 
L 176.104537 58.146635 
L 176.104537 57.792 
L 176.253699 57.792 
L 176.253699 57.437365 
L 176.36764 57.437365 
L 176.36764 57.082729 
L 176.649508 57.082729 
L 176.649508 56.728094 
L 176.761083 56.728094 
L 176.761083 56.373459 
L 176.894106 56.373459 
L 176.927215 55.309553 
L 177.157362 55.309553 
L 177.157362 54.954918 
L 177.320046 54.954918 
L 177.352415 54.245647 
L 177.778757 54.245647 
L 177.810347 53.536376 
L 177.967504 53.536376 
L 177.967504 53.181741 
L 178.081923 53.181741 
L 178.09229 52.472471 
L 178.236837 52.472471 
L 178.236837 52.117835 
L 178.613589 52.117835 
L 178.623668 51.408565 
L 178.764203 51.408565 
L 178.824112 50.344659 
L 178.893767 50.344659 
L 179.002704 49.635388 
L 179.071702 49.635388 
L 179.071702 49.280753 
L 179.189397 49.280753 
L 179.189397 48.926118 
L 179.335488 48.926118 
L 179.432255 47.862212 
L 179.461189 47.862212 
L 179.509312 47.152941 
L 179.852216 47.152941 
L 179.880511 46.443671 
L 180.002634 46.443671 
L 180.040051 45.379765 
L 180.309124 45.379765 
L 180.327539 44.315859 
L 180.474219 44.315859 
L 180.565316 42.897318 
L 180.996545 42.897318 
L 180.996545 42.542682 
L 181.278636 42.542682 
L 181.278636 42.188047 
L 181.556559 42.188047 
L 181.599615 41.478776 
L 181.923667 41.478776 
L 181.949013 40.769506 
L 182.05006 40.769506 
L 182.05006 40.414871 
L 182.200621 40.414871 
L 182.200621 40.060235 
L 182.677721 40.060235 
L 182.750681 39.350965 
L 182.799165 39.350965 
L 182.799165 38.996329 
L 183.023783 38.996329 
L 183.095416 38.287059 
L 183.712756 38.287059 
L 183.728124 37.577788 
L 184.392219 37.577788 
L 184.392219 37.223153 
L 184.642651 37.223153 
L 184.642651 36.868518 
L 184.781159 36.868518 
L 184.781159 36.513882 
L 185.055154 36.513882 
L 185.055154 36.159247 
L 185.43076 36.159247 
L 185.43076 35.804612 
L 185.674752 35.804612 
L 185.681677 35.095341 
L 186.004306 35.095341 
L 186.004306 34.740706 
L 186.200649 34.740706 
L 186.200649 34.386071 
L 186.640005 34.386071 
L 186.640005 34.031435 
L 186.84288 34.031435 
L 186.84288 33.6768 
L 187.088617 33.6768 
L 187.101462 32.612894 
L 187.229432 32.612894 
L 187.229432 32.258259 
L 187.80095 32.258259 
L 187.80095 31.903624 
L 188.552785 31.903624 
L 188.552785 31.548988 
L 188.688994 31.548988 
L 188.688994 31.194353 
L 189.794695 31.194353 
L 189.794695 30.839718 
L 190.026939 30.839718 
L 190.092771 30.130447 
L 190.326796 30.130447 
L 190.326796 29.775812 
L 190.563288 29.775812 
L 190.563288 29.421176 
L 191.084767 29.421176 
L 191.084767 29.066541 
L 191.203877 29.066541 
L 191.203877 28.711906 
L 191.536471 28.711906 
L 191.536471 28.357271 
L 196.186156 28.357271 
L 196.186156 28.002635 
L 197.060729 28.002635 
L 197.060729 27.648 
L 360.8064 27.648 
L 360.8064 27.648 
" style="fill:none;stroke:#ff00ff;stroke-linecap:square;stroke-width:1.5;"/>
   </g>
   <g id="line2d_41">
    <defs>
     <path d="M -0 8.485281 
L 5.091169 0 
L 0 -8.485281 
L -5.091169 -0 
z
" id="m87bb0324de" style="stroke:#ff00ff;stroke-linejoin:miter;stroke-width:1.5;"/>
    </defs>
    <g>
     <use style="fill-opacity:0;stroke:#ff00ff;stroke-linejoin:miter;stroke-width:1.5;" x="151.899585" xlink:href="#m87bb0324de" y="244.330165"/>
     <use style="fill-opacity:0;stroke:#ff00ff;stroke-linejoin:miter;stroke-width:1.5;" x="186.640005" xlink:href="#m87bb0324de" y="34.386071"/>
     <use style="fill-opacity:0;stroke:#ff00ff;stroke-linejoin:miter;stroke-width:1.5;" x="197.060729" xlink:href="#m87bb0324de" y="28.002635"/>
     <use style="fill-opacity:0;stroke:#ff00ff;stroke-linejoin:miter;stroke-width:1.5;" x="197.060729" xlink:href="#m87bb0324de" y="27.648"/>
     <use style="fill-opacity:0;stroke:#ff00ff;stroke-linejoin:miter;stroke-width:1.5;" x="360.8064" xlink:href="#m87bb0324de" y="27.648"/>
    </g>
   </g>
   <g id="line2d_42">
    <path style="fill:none;stroke:#ff00ff;stroke-linecap:square;stroke-width:1.5;"/>
    <g/>
   </g>
   <g id="line2d_43">
    <path clip-path="url(#pfc54b5625a)" d="M 147.237402 265.962918 
" style="fill:none;stroke:#ff00ff;stroke-linecap:square;stroke-width:1.5;"/>
    <defs>
     <path d="M -12 12 
L 12 -12 
M -12 -12 
L 12 12 
" id="m7d466ea438" style="stroke:#ff00ff;"/>
    </defs>
    <g clip-path="url(#pfc54b5625a)">
     <use style="fill:#ff00ff;stroke:#ff00ff;" x="147.237402" xlink:href="#m7d466ea438" y="265.962918"/>
    </g>
   </g>
   <g id="line2d_44">
    <path d="M 360.8064 27.648 
L 380.514816 293.51808 
" style="fill:none;stroke:#000080;stroke-linecap:square;stroke-width:1.5;"/>
    <g>
     <use style="fill-opacity:0;stroke:#000080;stroke-width:1.5;" x="360.8064" xlink:href="#md2d9235b76" y="27.648"/>
     <use style="fill-opacity:0;stroke:#000080;stroke-width:1.5;" x="380.514816" xlink:href="#md2d9235b76" y="293.51808"/>
    </g>
   </g>
   <g id="line2d_45">
    <path d="M 360.8064 27.648 
L 380.514816 163.296 
" style="fill:none;stroke:#ff00ff;stroke-linecap:square;stroke-width:1.5;"/>
    <g>
     <use style="fill-opacity:0;stroke:#ff00ff;stroke-linejoin:miter;stroke-width:1.5;" x="360.8064" xlink:href="#m87bb0324de" y="27.648"/>
     <use style="fill-opacity:0;stroke:#ff00ff;stroke-linejoin:miter;stroke-width:1.5;" x="380.514816" xlink:href="#m87bb0324de" y="163.296"/>
    </g>
   </g>
   <g id="line2d_46">
    <path d="M 360.8064 298.944 
L 360.8064 27.648 
" style="fill:none;stroke:#000000;stroke-linecap:square;stroke-width:1.5;"/>
   </g>
   <g id="patch_3">
    <path d="M 57.6 298.944 
L 360.8064 298.944 
" style="fill:none;stroke:#000000;stroke-linecap:square;stroke-linejoin:miter;stroke-width:0.8;"/>
   </g>
   <g id="patch_4">
    <path d="M 57.6 27.648 
L 360.8064 27.648 
" style="fill:none;stroke:#000000;stroke-linecap:square;stroke-linejoin:miter;stroke-width:0.8;"/>
   </g>
   <g id="text_13">
    <!-- different -->
    <g transform="translate(386.578944 297.381205)scale(0.14 -0.14)">
     <use xlink:href="#DejaVuSans-64"/>
     <use x="63.476562" xlink:href="#DejaVuSans-69"/>
     <use x="91.259766" xlink:href="#DejaVuSans-66"/>
     <use x="126.464844" xlink:href="#DejaVuSans-66"/>
     <use x="161.669922" xlink:href="#DejaVuSans-65"/>
     <use x="223.193359" xlink:href="#DejaVuSans-72"/>
     <use x="262.056641" xlink:href="#DejaVuSans-65"/>
     <use x="323.580078" xlink:href="#DejaVuSans-6e"/>
     <use x="386.958984" xlink:href="#DejaVuSans-74"/>
    </g>
   </g>
   <g id="text_14">
    <!-- cma.fmin  -->
    <g transform="translate(386.578944 167.159125)scale(0.14 -0.14)">
     <use xlink:href="#DejaVuSans-63"/>
     <use x="54.980469" xlink:href="#DejaVuSans-6d"/>
     <use x="152.392578" xlink:href="#DejaVuSans-61"/>
     <use x="213.671875" xlink:href="#DejaVuSans-2e"/>
     <use x="245.458984" xlink:href="#DejaVuSans-66"/>
     <use x="280.664062" xlink:href="#DejaVuSans-6d"/>
     <use x="378.076172" xlink:href="#DejaVuSans-69"/>
     <use x="405.859375" xlink:href="#DejaVuSans-6e"/>
     <use x="469.238281" xlink:href="#DejaVuSans-20"/>
    </g>
   </g>
   <g id="text_15">
    <!-- best 2009 -->
    <g transform="translate(386.578944 36.937045)scale(0.14 -0.14)">
     <defs>
      <path d="M 3116 1747 
Q 3116 2381 2855 2742 
Q 2594 3103 2138 3103 
Q 1681 3103 1420 2742 
Q 1159 2381 1159 1747 
Q 1159 1113 1420 752 
Q 1681 391 2138 391 
Q 2594 391 2855 752 
Q 3116 1113 3116 1747 
z
M 1159 2969 
Q 1341 3281 1617 3432 
Q 1894 3584 2278 3584 
Q 2916 3584 3314 3078 
Q 3713 2572 3713 1747 
Q 3713 922 3314 415 
Q 2916 -91 2278 -91 
Q 1894 -91 1617 61 
Q 1341 213 1159 525 
L 1159 0 
L 581 0 
L 581 4863 
L 1159 4863 
L 1159 2969 
z
" id="DejaVuSans-62" transform="scale(0.015625)"/>
      <path d="M 703 97 
L 703 672 
Q 941 559 1184 500 
Q 1428 441 1663 441 
Q 2288 441 2617 861 
Q 2947 1281 2994 2138 
Q 2813 1869 2534 1725 
Q 2256 1581 1919 1581 
Q 1219 1581 811 2004 
Q 403 2428 403 3163 
Q 403 3881 828 4315 
Q 1253 4750 1959 4750 
Q 2769 4750 3195 4129 
Q 3622 3509 3622 2328 
Q 3622 1225 3098 567 
Q 2575 -91 1691 -91 
Q 1453 -91 1209 -44 
Q 966 3 703 97 
z
M 1959 2075 
Q 2384 2075 2632 2365 
Q 2881 2656 2881 3163 
Q 2881 3666 2632 3958 
Q 2384 4250 1959 4250 
Q 1534 4250 1286 3958 
Q 1038 3666 1038 3163 
Q 1038 2656 1286 2365 
Q 1534 2075 1959 2075 
z
" id="DejaVuSans-39" transform="scale(0.015625)"/>
     </defs>
     <use xlink:href="#DejaVuSans-62"/>
     <use x="63.476562" xlink:href="#DejaVuSans-65"/>
     <use x="125" xlink:href="#DejaVuSans-73"/>
     <use x="177.099609" xlink:href="#DejaVuSans-74"/>
     <use x="216.308594" xlink:href="#DejaVuSans-20"/>
     <use x="248.095703" xlink:href="#DejaVuSans-32"/>
     <use x="311.71875" xlink:href="#DejaVuSans-30"/>
     <use x="375.341797" xlink:href="#DejaVuSans-30"/>
     <use x="438.964844" xlink:href="#DejaVuSans-39"/>
    </g>
   </g>
   <g id="text_16">
    <!-- bbob f10, 3-D -->
    <g transform="translate(60.632064 38.111366)scale(0.102 -0.102)">
     <defs>
      <path d="M 2597 2516 
Q 3050 2419 3304 2112 
Q 3559 1806 3559 1356 
Q 3559 666 3084 287 
Q 2609 -91 1734 -91 
Q 1441 -91 1130 -33 
Q 819 25 488 141 
L 488 750 
Q 750 597 1062 519 
Q 1375 441 1716 441 
Q 2309 441 2620 675 
Q 2931 909 2931 1356 
Q 2931 1769 2642 2001 
Q 2353 2234 1838 2234 
L 1294 2234 
L 1294 2753 
L 1863 2753 
Q 2328 2753 2575 2939 
Q 2822 3125 2822 3475 
Q 2822 3834 2567 4026 
Q 2313 4219 1838 4219 
Q 1578 4219 1281 4162 
Q 984 4106 628 3988 
L 628 4550 
Q 988 4650 1302 4700 
Q 1616 4750 1894 4750 
Q 2613 4750 3031 4423 
Q 3450 4097 3450 3541 
Q 3450 3153 3228 2886 
Q 3006 2619 2597 2516 
z
" id="DejaVuSans-33" transform="scale(0.015625)"/>
      <path d="M 1259 4147 
L 1259 519 
L 2022 519 
Q 2988 519 3436 956 
Q 3884 1394 3884 2338 
Q 3884 3275 3436 3711 
Q 2988 4147 2022 4147 
L 1259 4147 
z
M 628 4666 
L 1925 4666 
Q 3281 4666 3915 4102 
Q 4550 3538 4550 2338 
Q 4550 1131 3912 565 
Q 3275 0 1925 0 
L 628 0 
L 628 4666 
z
" id="DejaVuSans-44" transform="scale(0.015625)"/>
     </defs>
     <use xlink:href="#DejaVuSans-62"/>
     <use x="63.476562" xlink:href="#DejaVuSans-62"/>
     <use x="126.953125" xlink:href="#DejaVuSans-6f"/>
     <use x="188.134766" xlink:href="#DejaVuSans-62"/>
     <use x="251.611328" xlink:href="#DejaVuSans-20"/>
     <use x="283.398438" xlink:href="#DejaVuSans-66"/>
     <use x="318.603516" xlink:href="#DejaVuSans-31"/>
     <use x="382.226562" xlink:href="#DejaVuSans-30"/>
     <use x="445.849609" xlink:href="#DejaVuSans-2c"/>
     <use x="477.636719" xlink:href="#DejaVuSans-20"/>
     <use x="509.423828" xlink:href="#DejaVuSans-33"/>
     <use x="573.046875" xlink:href="#DejaVuSans-2d"/>
     <use x="609.130859" xlink:href="#DejaVuSans-44"/>
    </g>
    <!-- 51 targets: 100..1e-08 -->
    <g transform="translate(60.632064 49.533135)scale(0.102 -0.102)">
     <defs>
      <path d="M 691 4666 
L 3169 4666 
L 3169 4134 
L 1269 4134 
L 1269 2991 
Q 1406 3038 1543 3061 
Q 1681 3084 1819 3084 
Q 2600 3084 3056 2656 
Q 3513 2228 3513 1497 
Q 3513 744 3044 326 
Q 2575 -91 1722 -91 
Q 1428 -91 1123 -41 
Q 819 9 494 109 
L 494 744 
Q 775 591 1075 516 
Q 1375 441 1709 441 
Q 2250 441 2565 725 
Q 2881 1009 2881 1497 
Q 2881 1984 2565 2268 
Q 2250 2553 1709 2553 
Q 1456 2553 1204 2497 
Q 953 2441 691 2322 
L 691 4666 
z
" id="DejaVuSans-35" transform="scale(0.015625)"/>
      <path d="M 750 794 
L 1409 794 
L 1409 0 
L 750 0 
L 750 794 
z
M 750 3309 
L 1409 3309 
L 1409 2516 
L 750 2516 
L 750 3309 
z
" id="DejaVuSans-3a" transform="scale(0.015625)"/>
     </defs>
     <use xlink:href="#DejaVuSans-35"/>
     <use x="63.623047" xlink:href="#DejaVuSans-31"/>
     <use x="127.246094" xlink:href="#DejaVuSans-20"/>
     <use x="159.033203" xlink:href="#DejaVuSans-74"/>
     <use x="198.242188" xlink:href="#DejaVuSans-61"/>
     <use x="259.521484" xlink:href="#DejaVuSans-72"/>
     <use x="298.884766" xlink:href="#DejaVuSans-67"/>
     <use x="362.361328" xlink:href="#DejaVuSans-65"/>
     <use x="423.884766" xlink:href="#DejaVuSans-74"/>
     <use x="463.09375" xlink:href="#DejaVuSans-73"/>
     <use x="515.193359" xlink:href="#DejaVuSans-3a"/>
     <use x="548.884766" xlink:href="#DejaVuSans-20"/>
     <use x="580.671875" xlink:href="#DejaVuSans-31"/>
     <use x="644.294922" xlink:href="#DejaVuSans-30"/>
     <use x="707.917969" xlink:href="#DejaVuSans-30"/>
     <use x="771.541016" xlink:href="#DejaVuSans-2e"/>
     <use x="803.328125" xlink:href="#DejaVuSans-2e"/>
     <use x="835.115234" xlink:href="#DejaVuSans-31"/>
     <use x="898.738281" xlink:href="#DejaVuSans-65"/>
     <use x="960.261719" xlink:href="#DejaVuSans-2d"/>
     <use x="996.345703" xlink:href="#DejaVuSans-30"/>
     <use x="1059.96875" xlink:href="#DejaVuSans-38"/>
    </g>
    <!-- 15 instances -->
    <g transform="translate(60.632064 60.954904)scale(0.102 -0.102)">
     <use xlink:href="#DejaVuSans-31"/>
     <use x="63.623047" xlink:href="#DejaVuSans-35"/>
     <use x="127.246094" xlink:href="#DejaVuSans-20"/>
     <use x="159.033203" xlink:href="#DejaVuSans-69"/>
     <use x="186.816406" xlink:href="#DejaVuSans-6e"/>
     <use x="250.195312" xlink:href="#DejaVuSans-73"/>
     <use x="302.294922" xlink:href="#DejaVuSans-74"/>
     <use x="341.503906" xlink:href="#DejaVuSans-61"/>
     <use x="402.783203" xlink:href="#DejaVuSans-6e"/>
     <use x="466.162109" xlink:href="#DejaVuSans-63"/>
     <use x="521.142578" xlink:href="#DejaVuSans-65"/>
     <use x="582.666016" xlink:href="#DejaVuSans-73"/>
    </g>
   </g>
   <g id="text_17">
    <!-- v2.6 -->
    <g style="fill:#808080;" transform="translate(198.292262 294.151352)scale(0.1 -0.1)">
     <use xlink:href="#DejaVuSans-76"/>
     <use x="59.179688" xlink:href="#DejaVuSans-32"/>
     <use x="122.802734" xlink:href="#DejaVuSans-2e"/>
     <use x="154.589844" xlink:href="#DejaVuSans-36"/>
    </g>
   </g>
   <g id="text_18">
    <!-- 10 Ellipsoid -->
    <g transform="translate(151.843825 21.648)scale(0.2 -0.2)">
     <defs>
      <path d="M 628 4666 
L 3578 4666 
L 3578 4134 
L 1259 4134 
L 1259 2753 
L 3481 2753 
L 3481 2222 
L 1259 2222 
L 1259 531 
L 3634 531 
L 3634 0 
L 628 0 
L 628 4666 
z
" id="DejaVuSans-45" transform="scale(0.015625)"/>
     </defs>
     <use xlink:href="#DejaVuSans-31"/>
     <use x="63.623047" xlink:href="#DejaVuSans-30"/>
     <use x="127.246094" xlink:href="#DejaVuSans-20"/>
     <use x="159.033203" xlink:href="#DejaVuSans-45"/>
     <use x="222.216797" xlink:href="#DejaVuSans-6c"/>
     <use x="250" xlink:href="#DejaVuSans-6c"/>
     <use x="277.783203" xlink:href="#DejaVuSans-69"/>
     <use x="305.566406" xlink:href="#DejaVuSans-70"/>
     <use x="369.042969" xlink:href="#DejaVuSans-73"/>
     <use x="421.142578" xlink:href="#DejaVuSans-6f"/>
     <use x="482.324219" xlink:href="#DejaVuSans-69"/>
     <use x="510.107422" xlink:href="#DejaVuSans-64"/>
    </g>
   </g>
  </g>
 </g>
 <defs>
  <clipPath id="pfc54b5625a">
   <rect height="271.296" width="303.2064" x="57.6" y="27.648"/>
  </clipPath>
 </defs>
</svg>
