<?xml version="1.0" encoding="utf-8" standalone="no"?>
<!DOCTYPE svg PUBLIC "-//W3C//DTD SVG 1.1//EN"
  "http://www.w3.org/Graphics/SVG/1.1/DTD/svg11.dtd">
<svg height="345.6pt" version="1.1" viewBox="0 0 460.8 345.6" width="460.8pt" xmlns="http://www.w3.org/2000/svg" xmlns:xlink="http://www.w3.org/1999/xlink">
 <metadata>
  <rdf:RDF xmlns:cc="http://creativecommons.org/ns#" xmlns:dc="http://purl.org/dc/elements/1.1/" xmlns:rdf="http://www.w3.org/1999/02/22-rdf-syntax-ns#">
   <cc:Work>
    <dc:type rdf:resource="http://purl.org/dc/dcmitype/StillImage"/>
    <dc:date>2022-05-22T15:10:23.053194</dc:date>
    <dc:format>image/svg+xml</dc:format>
    <dc:creator>
     <cc:Agent>
      <dc:title>Matplotlib v3.4.3, https://matplotlib.org/</dc:title>
     </cc:Agent>
    </dc:creator>
   </cc:Work>
  </rdf:RDF>
 </metadata>
 <defs>
  <style type="text/css">*{stroke-linecap:butt;stroke-linejoin:round;}</style>
 </defs>
 <g id="figure_1">
  <g id="patch_1">
   <path d="M 0 345.6 
L 460.8 345.6 
L 460.8 0 
L 0 0 
z
" style="fill:#ffffff;"/>
  </g>
  <g id="axes_1">
   <g id="patch_2">
    <path d="M 57.6 298.944 
L 360.8064 298.944 
L 360.8064 27.648 
L 57.6 27.648 
z
" style="fill:#ffffff;"/>
   </g>
   <g id="line2d_1">
    <path d="M 27.323974 298.944 
L 27.323974 282.985412 
L 57.6 282.985412 
L 57.6 277.665882 
L 66.441498 277.665882 
L 66.441498 272.346353 
L 72.432107 272.346353 
L 72.432107 267.026824 
L 74.068926 267.026824 
L 74.068926 27.648 
L 360.8064 27.648 
" style="fill:none;stroke:#f5deb3;stroke-linecap:square;stroke-width:4;"/>
   </g>
   <g id="line2d_2">
    <defs>
     <path d="M -0 7.778175 
L 7.778175 0 
L 0 -7.778175 
L -7.778175 -0 
z
" id="mc829cc07ad" style="stroke:#f5deb3;stroke-linejoin:miter;stroke-width:1.5;"/>
    </defs>
    <g>
     <use style="fill:#f5deb3;stroke:#f5deb3;stroke-linejoin:miter;stroke-width:1.5;" x="72.432107" xlink:href="#mc829cc07ad" y="267.026824"/>
     <use style="fill:#f5deb3;stroke:#f5deb3;stroke-linejoin:miter;stroke-width:1.5;" x="74.068926" xlink:href="#mc829cc07ad" y="267.026824"/>
     <use style="fill:#f5deb3;stroke:#f5deb3;stroke-linejoin:miter;stroke-width:1.5;" x="74.068926" xlink:href="#mc829cc07ad" y="267.026824"/>
     <use style="fill:#f5deb3;stroke:#f5deb3;stroke-linejoin:miter;stroke-width:1.5;" x="74.068926" xlink:href="#mc829cc07ad" y="27.648"/>
     <use style="fill:#f5deb3;stroke:#f5deb3;stroke-linejoin:miter;stroke-width:1.5;" x="74.068926" xlink:href="#mc829cc07ad" y="27.648"/>
     <use style="fill:#f5deb3;stroke:#f5deb3;stroke-linejoin:miter;stroke-width:1.5;" x="360.8064" xlink:href="#mc829cc07ad" y="27.648"/>
    </g>
   </g>
   <g id="line2d_3">
    <path style="fill:none;stroke:#f5deb3;stroke-linecap:square;stroke-width:4;"/>
    <g/>
   </g>
   <g id="line2d_4">
    <path d="M 360.8064 27.648 
L 380.514816 33.07392 
" style="fill:none;stroke:#f5deb3;stroke-linecap:square;stroke-width:4;"/>
    <g>
     <use style="fill:#f5deb3;stroke:#f5deb3;stroke-linejoin:miter;stroke-width:1.5;" x="360.8064" xlink:href="#mc829cc07ad" y="27.648"/>
     <use style="fill:#f5deb3;stroke:#f5deb3;stroke-linejoin:miter;stroke-width:1.5;" x="380.514816" xlink:href="#mc829cc07ad" y="33.07392"/>
    </g>
   </g>
   <g id="matplotlib.axis_1">
    <g id="xtick_1">
     <g id="line2d_5">
      <path clip-path="url(#p654b8645b5)" d="M 57.6 298.944 
L 57.6 27.648 
" style="fill:none;stroke:#b0b0b0;stroke-linecap:square;stroke-width:0.8;"/>
     </g>
     <g id="line2d_6">
      <defs>
       <path d="M 0 0 
L 0 3.5 
" id="m79399c1f63" style="stroke:#000000;stroke-width:0.8;"/>
      </defs>
      <g>
       <use style="stroke:#000000;stroke-width:0.8;" x="57.6" xlink:href="#m79399c1f63" y="298.944"/>
      </g>
     </g>
     <g id="text_1">
      <!-- 0 -->
      <g transform="translate(52.191875 318.861344)scale(0.17 -0.17)">
       <defs>
        <path d="M 2034 4250 
Q 1547 4250 1301 3770 
Q 1056 3291 1056 2328 
Q 1056 1369 1301 889 
Q 1547 409 2034 409 
Q 2525 409 2770 889 
Q 3016 1369 3016 2328 
Q 3016 3291 2770 3770 
Q 2525 4250 2034 4250 
z
M 2034 4750 
Q 2819 4750 3233 4129 
Q 3647 3509 3647 2328 
Q 3647 1150 3233 529 
Q 2819 -91 2034 -91 
Q 1250 -91 836 529 
Q 422 1150 422 2328 
Q 422 3509 836 4129 
Q 1250 4750 2034 4750 
z
" id="DejaVuSans-30" transform="scale(0.015625)"/>
       </defs>
       <use xlink:href="#DejaVuSans-30"/>
      </g>
     </g>
    </g>
    <g id="xtick_2">
     <g id="line2d_7">
      <path clip-path="url(#p654b8645b5)" d="M 144.2304 298.944 
L 144.2304 27.648 
" style="fill:none;stroke:#b0b0b0;stroke-linecap:square;stroke-width:0.8;"/>
     </g>
     <g id="line2d_8">
      <g>
       <use style="stroke:#000000;stroke-width:0.8;" x="144.2304" xlink:href="#m79399c1f63" y="298.944"/>
      </g>
     </g>
     <g id="text_2">
      <!-- 2 -->
      <g transform="translate(138.822275 318.861344)scale(0.17 -0.17)">
       <defs>
        <path d="M 1228 531 
L 3431 531 
L 3431 0 
L 469 0 
L 469 531 
Q 828 903 1448 1529 
Q 2069 2156 2228 2338 
Q 2531 2678 2651 2914 
Q 2772 3150 2772 3378 
Q 2772 3750 2511 3984 
Q 2250 4219 1831 4219 
Q 1534 4219 1204 4116 
Q 875 4013 500 3803 
L 500 4441 
Q 881 4594 1212 4672 
Q 1544 4750 1819 4750 
Q 2544 4750 2975 4387 
Q 3406 4025 3406 3419 
Q 3406 3131 3298 2873 
Q 3191 2616 2906 2266 
Q 2828 2175 2409 1742 
Q 1991 1309 1228 531 
z
" id="DejaVuSans-32" transform="scale(0.015625)"/>
       </defs>
       <use xlink:href="#DejaVuSans-32"/>
      </g>
     </g>
    </g>
    <g id="xtick_3">
     <g id="line2d_9">
      <path clip-path="url(#p654b8645b5)" d="M 230.8608 298.944 
L 230.8608 27.648 
" style="fill:none;stroke:#b0b0b0;stroke-linecap:square;stroke-width:0.8;"/>
     </g>
     <g id="line2d_10">
      <g>
       <use style="stroke:#000000;stroke-width:0.8;" x="230.8608" xlink:href="#m79399c1f63" y="298.944"/>
      </g>
     </g>
     <g id="text_3">
      <!-- 4 -->
      <g transform="translate(225.452675 318.861344)scale(0.17 -0.17)">
       <defs>
        <path d="M 2419 4116 
L 825 1625 
L 2419 1625 
L 2419 4116 
z
M 2253 4666 
L 3047 4666 
L 3047 1625 
L 3713 1625 
L 3713 1100 
L 3047 1100 
L 3047 0 
L 2419 0 
L 2419 1100 
L 313 1100 
L 313 1709 
L 2253 4666 
z
" id="DejaVuSans-34" transform="scale(0.015625)"/>
       </defs>
       <use xlink:href="#DejaVuSans-34"/>
      </g>
     </g>
    </g>
    <g id="xtick_4">
     <g id="line2d_11">
      <path clip-path="url(#p654b8645b5)" d="M 317.4912 298.944 
L 317.4912 27.648 
" style="fill:none;stroke:#b0b0b0;stroke-linecap:square;stroke-width:0.8;"/>
     </g>
     <g id="line2d_12">
      <g>
       <use style="stroke:#000000;stroke-width:0.8;" x="317.4912" xlink:href="#m79399c1f63" y="298.944"/>
      </g>
     </g>
     <g id="text_4">
      <!-- 6 -->
      <g transform="translate(312.083075 318.861344)scale(0.17 -0.17)">
       <defs>
        <path d="M 2113 2584 
Q 1688 2584 1439 2293 
Q 1191 2003 1191 1497 
Q 1191 994 1439 701 
Q 1688 409 2113 409 
Q 2538 409 2786 701 
Q 3034 994 3034 1497 
Q 3034 2003 2786 2293 
Q 2538 2584 2113 2584 
z
M 3366 4563 
L 3366 3988 
Q 3128 4100 2886 4159 
Q 2644 4219 2406 4219 
Q 1781 4219 1451 3797 
Q 1122 3375 1075 2522 
Q 1259 2794 1537 2939 
Q 1816 3084 2150 3084 
Q 2853 3084 3261 2657 
Q 3669 2231 3669 1497 
Q 3669 778 3244 343 
Q 2819 -91 2113 -91 
Q 1303 -91 875 529 
Q 447 1150 447 2328 
Q 447 3434 972 4092 
Q 1497 4750 2381 4750 
Q 2619 4750 2861 4703 
Q 3103 4656 3366 4563 
z
" id="DejaVuSans-36" transform="scale(0.015625)"/>
       </defs>
       <use xlink:href="#DejaVuSans-36"/>
      </g>
     </g>
    </g>
    <g id="xtick_5">
     <g id="line2d_13">
      <path clip-path="url(#p654b8645b5)" d="M 100.9152 298.944 
L 100.9152 27.648 
" style="fill:none;stroke:#b0b0b0;stroke-linecap:square;stroke-width:0.8;"/>
     </g>
     <g id="line2d_14">
      <defs>
       <path d="M 0 0 
L 0 2 
" id="m1d41c34688" style="stroke:#000000;stroke-width:0.6;"/>
      </defs>
      <g>
       <use style="stroke:#000000;stroke-width:0.6;" x="100.9152" xlink:href="#m1d41c34688" y="298.944"/>
      </g>
     </g>
    </g>
    <g id="xtick_6">
     <g id="line2d_15">
      <path clip-path="url(#p654b8645b5)" d="M 187.5456 298.944 
L 187.5456 27.648 
" style="fill:none;stroke:#b0b0b0;stroke-linecap:square;stroke-width:0.8;"/>
     </g>
     <g id="line2d_16">
      <g>
       <use style="stroke:#000000;stroke-width:0.6;" x="187.5456" xlink:href="#m1d41c34688" y="298.944"/>
      </g>
     </g>
    </g>
    <g id="xtick_7">
     <g id="line2d_17">
      <path clip-path="url(#p654b8645b5)" d="M 274.176 298.944 
L 274.176 27.648 
" style="fill:none;stroke:#b0b0b0;stroke-linecap:square;stroke-width:0.8;"/>
     </g>
     <g id="line2d_18">
      <g>
       <use style="stroke:#000000;stroke-width:0.6;" x="274.176" xlink:href="#m1d41c34688" y="298.944"/>
      </g>
     </g>
    </g>
    <g id="xtick_8">
     <g id="line2d_19">
      <path clip-path="url(#p654b8645b5)" d="M 360.8064 298.944 
L 360.8064 27.648 
" style="fill:none;stroke:#b0b0b0;stroke-linecap:square;stroke-width:0.8;"/>
     </g>
     <g id="line2d_20">
      <g>
       <use style="stroke:#000000;stroke-width:0.6;" x="360.8064" xlink:href="#m1d41c34688" y="298.944"/>
      </g>
     </g>
    </g>
    <g id="text_5">
     <!-- log10(# f-evals / dimension) -->
     <g transform="translate(88.823278 339.314156)scale(0.17 -0.17)">
      <defs>
       <path d="M 603 4863 
L 1178 4863 
L 1178 0 
L 603 0 
L 603 4863 
z
" id="DejaVuSans-6c" transform="scale(0.015625)"/>
       <path d="M 1959 3097 
Q 1497 3097 1228 2736 
Q 959 2375 959 1747 
Q 959 1119 1226 758 
Q 1494 397 1959 397 
Q 2419 397 2687 759 
Q 2956 1122 2956 1747 
Q 2956 2369 2687 2733 
Q 2419 3097 1959 3097 
z
M 1959 3584 
Q 2709 3584 3137 3096 
Q 3566 2609 3566 1747 
Q 3566 888 3137 398 
Q 2709 -91 1959 -91 
Q 1206 -91 779 398 
Q 353 888 353 1747 
Q 353 2609 779 3096 
Q 1206 3584 1959 3584 
z
" id="DejaVuSans-6f" transform="scale(0.015625)"/>
       <path d="M 2906 1791 
Q 2906 2416 2648 2759 
Q 2391 3103 1925 3103 
Q 1463 3103 1205 2759 
Q 947 2416 947 1791 
Q 947 1169 1205 825 
Q 1463 481 1925 481 
Q 2391 481 2648 825 
Q 2906 1169 2906 1791 
z
M 3481 434 
Q 3481 -459 3084 -895 
Q 2688 -1331 1869 -1331 
Q 1566 -1331 1297 -1286 
Q 1028 -1241 775 -1147 
L 775 -588 
Q 1028 -725 1275 -790 
Q 1522 -856 1778 -856 
Q 2344 -856 2625 -561 
Q 2906 -266 2906 331 
L 2906 616 
Q 2728 306 2450 153 
Q 2172 0 1784 0 
Q 1141 0 747 490 
Q 353 981 353 1791 
Q 353 2603 747 3093 
Q 1141 3584 1784 3584 
Q 2172 3584 2450 3431 
Q 2728 3278 2906 2969 
L 2906 3500 
L 3481 3500 
L 3481 434 
z
" id="DejaVuSans-67" transform="scale(0.015625)"/>
       <path d="M 794 531 
L 1825 531 
L 1825 4091 
L 703 3866 
L 703 4441 
L 1819 4666 
L 2450 4666 
L 2450 531 
L 3481 531 
L 3481 0 
L 794 0 
L 794 531 
z
" id="DejaVuSans-31" transform="scale(0.015625)"/>
       <path d="M 1984 4856 
Q 1566 4138 1362 3434 
Q 1159 2731 1159 2009 
Q 1159 1288 1364 580 
Q 1569 -128 1984 -844 
L 1484 -844 
Q 1016 -109 783 600 
Q 550 1309 550 2009 
Q 550 2706 781 3412 
Q 1013 4119 1484 4856 
L 1984 4856 
z
" id="DejaVuSans-28" transform="scale(0.015625)"/>
       <path d="M 3272 2816 
L 2363 2816 
L 2100 1772 
L 3016 1772 
L 3272 2816 
z
M 2803 4594 
L 2478 3297 
L 3391 3297 
L 3719 4594 
L 4219 4594 
L 3897 3297 
L 4872 3297 
L 4872 2816 
L 3775 2816 
L 3519 1772 
L 4513 1772 
L 4513 1294 
L 3397 1294 
L 3072 0 
L 2572 0 
L 2894 1294 
L 1978 1294 
L 1656 0 
L 1153 0 
L 1478 1294 
L 494 1294 
L 494 1772 
L 1594 1772 
L 1856 2816 
L 850 2816 
L 850 3297 
L 1978 3297 
L 2297 4594 
L 2803 4594 
z
" id="DejaVuSans-23" transform="scale(0.015625)"/>
       <path id="DejaVuSans-20" transform="scale(0.015625)"/>
       <path d="M 2375 4863 
L 2375 4384 
L 1825 4384 
Q 1516 4384 1395 4259 
Q 1275 4134 1275 3809 
L 1275 3500 
L 2222 3500 
L 2222 3053 
L 1275 3053 
L 1275 0 
L 697 0 
L 697 3053 
L 147 3053 
L 147 3500 
L 697 3500 
L 697 3744 
Q 697 4328 969 4595 
Q 1241 4863 1831 4863 
L 2375 4863 
z
" id="DejaVuSans-66" transform="scale(0.015625)"/>
       <path d="M 313 2009 
L 1997 2009 
L 1997 1497 
L 313 1497 
L 313 2009 
z
" id="DejaVuSans-2d" transform="scale(0.015625)"/>
       <path d="M 3597 1894 
L 3597 1613 
L 953 1613 
Q 991 1019 1311 708 
Q 1631 397 2203 397 
Q 2534 397 2845 478 
Q 3156 559 3463 722 
L 3463 178 
Q 3153 47 2828 -22 
Q 2503 -91 2169 -91 
Q 1331 -91 842 396 
Q 353 884 353 1716 
Q 353 2575 817 3079 
Q 1281 3584 2069 3584 
Q 2775 3584 3186 3129 
Q 3597 2675 3597 1894 
z
M 3022 2063 
Q 3016 2534 2758 2815 
Q 2500 3097 2075 3097 
Q 1594 3097 1305 2825 
Q 1016 2553 972 2059 
L 3022 2063 
z
" id="DejaVuSans-65" transform="scale(0.015625)"/>
       <path d="M 191 3500 
L 800 3500 
L 1894 563 
L 2988 3500 
L 3597 3500 
L 2284 0 
L 1503 0 
L 191 3500 
z
" id="DejaVuSans-76" transform="scale(0.015625)"/>
       <path d="M 2194 1759 
Q 1497 1759 1228 1600 
Q 959 1441 959 1056 
Q 959 750 1161 570 
Q 1363 391 1709 391 
Q 2188 391 2477 730 
Q 2766 1069 2766 1631 
L 2766 1759 
L 2194 1759 
z
M 3341 1997 
L 3341 0 
L 2766 0 
L 2766 531 
Q 2569 213 2275 61 
Q 1981 -91 1556 -91 
Q 1019 -91 701 211 
Q 384 513 384 1019 
Q 384 1609 779 1909 
Q 1175 2209 1959 2209 
L 2766 2209 
L 2766 2266 
Q 2766 2663 2505 2880 
Q 2244 3097 1772 3097 
Q 1472 3097 1187 3025 
Q 903 2953 641 2809 
L 641 3341 
Q 956 3463 1253 3523 
Q 1550 3584 1831 3584 
Q 2591 3584 2966 3190 
Q 3341 2797 3341 1997 
z
" id="DejaVuSans-61" transform="scale(0.015625)"/>
       <path d="M 2834 3397 
L 2834 2853 
Q 2591 2978 2328 3040 
Q 2066 3103 1784 3103 
Q 1356 3103 1142 2972 
Q 928 2841 928 2578 
Q 928 2378 1081 2264 
Q 1234 2150 1697 2047 
L 1894 2003 
Q 2506 1872 2764 1633 
Q 3022 1394 3022 966 
Q 3022 478 2636 193 
Q 2250 -91 1575 -91 
Q 1294 -91 989 -36 
Q 684 19 347 128 
L 347 722 
Q 666 556 975 473 
Q 1284 391 1588 391 
Q 1994 391 2212 530 
Q 2431 669 2431 922 
Q 2431 1156 2273 1281 
Q 2116 1406 1581 1522 
L 1381 1569 
Q 847 1681 609 1914 
Q 372 2147 372 2553 
Q 372 3047 722 3315 
Q 1072 3584 1716 3584 
Q 2034 3584 2315 3537 
Q 2597 3491 2834 3397 
z
" id="DejaVuSans-73" transform="scale(0.015625)"/>
       <path d="M 1625 4666 
L 2156 4666 
L 531 -594 
L 0 -594 
L 1625 4666 
z
" id="DejaVuSans-2f" transform="scale(0.015625)"/>
       <path d="M 2906 2969 
L 2906 4863 
L 3481 4863 
L 3481 0 
L 2906 0 
L 2906 525 
Q 2725 213 2448 61 
Q 2172 -91 1784 -91 
Q 1150 -91 751 415 
Q 353 922 353 1747 
Q 353 2572 751 3078 
Q 1150 3584 1784 3584 
Q 2172 3584 2448 3432 
Q 2725 3281 2906 2969 
z
M 947 1747 
Q 947 1113 1208 752 
Q 1469 391 1925 391 
Q 2381 391 2643 752 
Q 2906 1113 2906 1747 
Q 2906 2381 2643 2742 
Q 2381 3103 1925 3103 
Q 1469 3103 1208 2742 
Q 947 2381 947 1747 
z
" id="DejaVuSans-64" transform="scale(0.015625)"/>
       <path d="M 603 3500 
L 1178 3500 
L 1178 0 
L 603 0 
L 603 3500 
z
M 603 4863 
L 1178 4863 
L 1178 4134 
L 603 4134 
L 603 4863 
z
" id="DejaVuSans-69" transform="scale(0.015625)"/>
       <path d="M 3328 2828 
Q 3544 3216 3844 3400 
Q 4144 3584 4550 3584 
Q 5097 3584 5394 3201 
Q 5691 2819 5691 2113 
L 5691 0 
L 5113 0 
L 5113 2094 
Q 5113 2597 4934 2840 
Q 4756 3084 4391 3084 
Q 3944 3084 3684 2787 
Q 3425 2491 3425 1978 
L 3425 0 
L 2847 0 
L 2847 2094 
Q 2847 2600 2669 2842 
Q 2491 3084 2119 3084 
Q 1678 3084 1418 2786 
Q 1159 2488 1159 1978 
L 1159 0 
L 581 0 
L 581 3500 
L 1159 3500 
L 1159 2956 
Q 1356 3278 1631 3431 
Q 1906 3584 2284 3584 
Q 2666 3584 2933 3390 
Q 3200 3197 3328 2828 
z
" id="DejaVuSans-6d" transform="scale(0.015625)"/>
       <path d="M 3513 2113 
L 3513 0 
L 2938 0 
L 2938 2094 
Q 2938 2591 2744 2837 
Q 2550 3084 2163 3084 
Q 1697 3084 1428 2787 
Q 1159 2491 1159 1978 
L 1159 0 
L 581 0 
L 581 3500 
L 1159 3500 
L 1159 2956 
Q 1366 3272 1645 3428 
Q 1925 3584 2291 3584 
Q 2894 3584 3203 3211 
Q 3513 2838 3513 2113 
z
" id="DejaVuSans-6e" transform="scale(0.015625)"/>
       <path d="M 513 4856 
L 1013 4856 
Q 1481 4119 1714 3412 
Q 1947 2706 1947 2009 
Q 1947 1309 1714 600 
Q 1481 -109 1013 -844 
L 513 -844 
Q 928 -128 1133 580 
Q 1338 1288 1338 2009 
Q 1338 2731 1133 3434 
Q 928 4138 513 4856 
z
" id="DejaVuSans-29" transform="scale(0.015625)"/>
      </defs>
      <use xlink:href="#DejaVuSans-6c"/>
      <use x="27.783203" xlink:href="#DejaVuSans-6f"/>
      <use x="88.964844" xlink:href="#DejaVuSans-67"/>
      <use x="152.441406" xlink:href="#DejaVuSans-31"/>
      <use x="216.064453" xlink:href="#DejaVuSans-30"/>
      <use x="279.6875" xlink:href="#DejaVuSans-28"/>
      <use x="318.701172" xlink:href="#DejaVuSans-23"/>
      <use x="402.490234" xlink:href="#DejaVuSans-20"/>
      <use x="434.277344" xlink:href="#DejaVuSans-66"/>
      <use x="463.982422" xlink:href="#DejaVuSans-2d"/>
      <use x="500.066406" xlink:href="#DejaVuSans-65"/>
      <use x="561.589844" xlink:href="#DejaVuSans-76"/>
      <use x="620.769531" xlink:href="#DejaVuSans-61"/>
      <use x="682.048828" xlink:href="#DejaVuSans-6c"/>
      <use x="709.832031" xlink:href="#DejaVuSans-73"/>
      <use x="761.931641" xlink:href="#DejaVuSans-20"/>
      <use x="793.71875" xlink:href="#DejaVuSans-2f"/>
      <use x="827.410156" xlink:href="#DejaVuSans-20"/>
      <use x="859.197266" xlink:href="#DejaVuSans-64"/>
      <use x="922.673828" xlink:href="#DejaVuSans-69"/>
      <use x="950.457031" xlink:href="#DejaVuSans-6d"/>
      <use x="1047.869141" xlink:href="#DejaVuSans-65"/>
      <use x="1109.392578" xlink:href="#DejaVuSans-6e"/>
      <use x="1172.771484" xlink:href="#DejaVuSans-73"/>
      <use x="1224.871094" xlink:href="#DejaVuSans-69"/>
      <use x="1252.654297" xlink:href="#DejaVuSans-6f"/>
      <use x="1313.835938" xlink:href="#DejaVuSans-6e"/>
      <use x="1377.214844" xlink:href="#DejaVuSans-29"/>
     </g>
    </g>
   </g>
   <g id="matplotlib.axis_2">
    <g id="ytick_1">
     <g id="line2d_21">
      <path clip-path="url(#p654b8645b5)" d="M 57.6 298.944 
L 360.8064 298.944 
" style="fill:none;stroke:#b0b0b0;stroke-linecap:square;stroke-width:0.8;"/>
     </g>
     <g id="line2d_22">
      <defs>
       <path d="M 0 0 
L -3.5 0 
" id="m8d010a1923" style="stroke:#000000;stroke-width:0.8;"/>
      </defs>
      <g>
       <use style="stroke:#000000;stroke-width:0.8;" x="57.6" xlink:href="#m8d010a1923" y="298.944"/>
      </g>
     </g>
     <g id="text_6">
      <!-- 0.0 -->
      <g transform="translate(25.155 305.02275)scale(0.16 -0.16)">
       <defs>
        <path d="M 684 794 
L 1344 794 
L 1344 0 
L 684 0 
L 684 794 
z
" id="DejaVuSans-2e" transform="scale(0.015625)"/>
       </defs>
       <use xlink:href="#DejaVuSans-30"/>
       <use x="63.623047" xlink:href="#DejaVuSans-2e"/>
       <use x="95.410156" xlink:href="#DejaVuSans-30"/>
      </g>
     </g>
    </g>
    <g id="ytick_2">
     <g id="line2d_23">
      <path clip-path="url(#p654b8645b5)" d="M 57.6 244.6848 
L 360.8064 244.6848 
" style="fill:none;stroke:#b0b0b0;stroke-linecap:square;stroke-width:0.8;"/>
     </g>
     <g id="line2d_24">
      <g>
       <use style="stroke:#000000;stroke-width:0.8;" x="57.6" xlink:href="#m8d010a1923" y="244.6848"/>
      </g>
     </g>
     <g id="text_7">
      <!-- 0.2 -->
      <g transform="translate(25.155 250.76355)scale(0.16 -0.16)">
       <use xlink:href="#DejaVuSans-30"/>
       <use x="63.623047" xlink:href="#DejaVuSans-2e"/>
       <use x="95.410156" xlink:href="#DejaVuSans-32"/>
      </g>
     </g>
    </g>
    <g id="ytick_3">
     <g id="line2d_25">
      <path clip-path="url(#p654b8645b5)" d="M 57.6 190.4256 
L 360.8064 190.4256 
" style="fill:none;stroke:#b0b0b0;stroke-linecap:square;stroke-width:0.8;"/>
     </g>
     <g id="line2d_26">
      <g>
       <use style="stroke:#000000;stroke-width:0.8;" x="57.6" xlink:href="#m8d010a1923" y="190.4256"/>
      </g>
     </g>
     <g id="text_8">
      <!-- 0.4 -->
      <g transform="translate(25.155 196.50435)scale(0.16 -0.16)">
       <use xlink:href="#DejaVuSans-30"/>
       <use x="63.623047" xlink:href="#DejaVuSans-2e"/>
       <use x="95.410156" xlink:href="#DejaVuSans-34"/>
      </g>
     </g>
    </g>
    <g id="ytick_4">
     <g id="line2d_27">
      <path clip-path="url(#p654b8645b5)" d="M 57.6 136.1664 
L 360.8064 136.1664 
" style="fill:none;stroke:#b0b0b0;stroke-linecap:square;stroke-width:0.8;"/>
     </g>
     <g id="line2d_28">
      <g>
       <use style="stroke:#000000;stroke-width:0.8;" x="57.6" xlink:href="#m8d010a1923" y="136.1664"/>
      </g>
     </g>
     <g id="text_9">
      <!-- 0.6 -->
      <g transform="translate(25.155 142.24515)scale(0.16 -0.16)">
       <use xlink:href="#DejaVuSans-30"/>
       <use x="63.623047" xlink:href="#DejaVuSans-2e"/>
       <use x="95.410156" xlink:href="#DejaVuSans-36"/>
      </g>
     </g>
    </g>
    <g id="ytick_5">
     <g id="line2d_29">
      <path clip-path="url(#p654b8645b5)" d="M 57.6 81.9072 
L 360.8064 81.9072 
" style="fill:none;stroke:#b0b0b0;stroke-linecap:square;stroke-width:0.8;"/>
     </g>
     <g id="line2d_30">
      <g>
       <use style="stroke:#000000;stroke-width:0.8;" x="57.6" xlink:href="#m8d010a1923" y="81.9072"/>
      </g>
     </g>
     <g id="text_10">
      <!-- 0.8 -->
      <g transform="translate(25.155 87.98595)scale(0.16 -0.16)">
       <defs>
        <path d="M 2034 2216 
Q 1584 2216 1326 1975 
Q 1069 1734 1069 1313 
Q 1069 891 1326 650 
Q 1584 409 2034 409 
Q 2484 409 2743 651 
Q 3003 894 3003 1313 
Q 3003 1734 2745 1975 
Q 2488 2216 2034 2216 
z
M 1403 2484 
Q 997 2584 770 2862 
Q 544 3141 544 3541 
Q 544 4100 942 4425 
Q 1341 4750 2034 4750 
Q 2731 4750 3128 4425 
Q 3525 4100 3525 3541 
Q 3525 3141 3298 2862 
Q 3072 2584 2669 2484 
Q 3125 2378 3379 2068 
Q 3634 1759 3634 1313 
Q 3634 634 3220 271 
Q 2806 -91 2034 -91 
Q 1263 -91 848 271 
Q 434 634 434 1313 
Q 434 1759 690 2068 
Q 947 2378 1403 2484 
z
M 1172 3481 
Q 1172 3119 1398 2916 
Q 1625 2713 2034 2713 
Q 2441 2713 2670 2916 
Q 2900 3119 2900 3481 
Q 2900 3844 2670 4047 
Q 2441 4250 2034 4250 
Q 1625 4250 1398 4047 
Q 1172 3844 1172 3481 
z
" id="DejaVuSans-38" transform="scale(0.015625)"/>
       </defs>
       <use xlink:href="#DejaVuSans-30"/>
       <use x="63.623047" xlink:href="#DejaVuSans-2e"/>
       <use x="95.410156" xlink:href="#DejaVuSans-38"/>
      </g>
     </g>
    </g>
    <g id="ytick_6">
     <g id="line2d_31">
      <path clip-path="url(#p654b8645b5)" d="M 57.6 27.648 
L 360.8064 27.648 
" style="fill:none;stroke:#b0b0b0;stroke-linecap:square;stroke-width:0.8;"/>
     </g>
     <g id="line2d_32">
      <g>
       <use style="stroke:#000000;stroke-width:0.8;" x="57.6" xlink:href="#m8d010a1923" y="27.648"/>
      </g>
     </g>
     <g id="text_11">
      <!-- 1.0 -->
      <g transform="translate(25.155 33.72675)scale(0.16 -0.16)">
       <use xlink:href="#DejaVuSans-31"/>
       <use x="63.623047" xlink:href="#DejaVuSans-2e"/>
       <use x="95.410156" xlink:href="#DejaVuSans-30"/>
      </g>
     </g>
    </g>
    <g id="text_12">
     <!-- Fraction of function,target pairs -->
     <g transform="translate(17.619531 297.681)rotate(-90)scale(0.17 -0.17)">
      <defs>
       <path d="M 628 4666 
L 3309 4666 
L 3309 4134 
L 1259 4134 
L 1259 2759 
L 3109 2759 
L 3109 2228 
L 1259 2228 
L 1259 0 
L 628 0 
L 628 4666 
z
" id="DejaVuSans-46" transform="scale(0.015625)"/>
       <path d="M 2631 2963 
Q 2534 3019 2420 3045 
Q 2306 3072 2169 3072 
Q 1681 3072 1420 2755 
Q 1159 2438 1159 1844 
L 1159 0 
L 581 0 
L 581 3500 
L 1159 3500 
L 1159 2956 
Q 1341 3275 1631 3429 
Q 1922 3584 2338 3584 
Q 2397 3584 2469 3576 
Q 2541 3569 2628 3553 
L 2631 2963 
z
" id="DejaVuSans-72" transform="scale(0.015625)"/>
       <path d="M 3122 3366 
L 3122 2828 
Q 2878 2963 2633 3030 
Q 2388 3097 2138 3097 
Q 1578 3097 1268 2742 
Q 959 2388 959 1747 
Q 959 1106 1268 751 
Q 1578 397 2138 397 
Q 2388 397 2633 464 
Q 2878 531 3122 666 
L 3122 134 
Q 2881 22 2623 -34 
Q 2366 -91 2075 -91 
Q 1284 -91 818 406 
Q 353 903 353 1747 
Q 353 2603 823 3093 
Q 1294 3584 2113 3584 
Q 2378 3584 2631 3529 
Q 2884 3475 3122 3366 
z
" id="DejaVuSans-63" transform="scale(0.015625)"/>
       <path d="M 1172 4494 
L 1172 3500 
L 2356 3500 
L 2356 3053 
L 1172 3053 
L 1172 1153 
Q 1172 725 1289 603 
Q 1406 481 1766 481 
L 2356 481 
L 2356 0 
L 1766 0 
Q 1100 0 847 248 
Q 594 497 594 1153 
L 594 3053 
L 172 3053 
L 172 3500 
L 594 3500 
L 594 4494 
L 1172 4494 
z
" id="DejaVuSans-74" transform="scale(0.015625)"/>
       <path d="M 544 1381 
L 544 3500 
L 1119 3500 
L 1119 1403 
Q 1119 906 1312 657 
Q 1506 409 1894 409 
Q 2359 409 2629 706 
Q 2900 1003 2900 1516 
L 2900 3500 
L 3475 3500 
L 3475 0 
L 2900 0 
L 2900 538 
Q 2691 219 2414 64 
Q 2138 -91 1772 -91 
Q 1169 -91 856 284 
Q 544 659 544 1381 
z
M 1991 3584 
L 1991 3584 
z
" id="DejaVuSans-75" transform="scale(0.015625)"/>
       <path d="M 750 794 
L 1409 794 
L 1409 256 
L 897 -744 
L 494 -744 
L 750 256 
L 750 794 
z
" id="DejaVuSans-2c" transform="scale(0.015625)"/>
       <path d="M 1159 525 
L 1159 -1331 
L 581 -1331 
L 581 3500 
L 1159 3500 
L 1159 2969 
Q 1341 3281 1617 3432 
Q 1894 3584 2278 3584 
Q 2916 3584 3314 3078 
Q 3713 2572 3713 1747 
Q 3713 922 3314 415 
Q 2916 -91 2278 -91 
Q 1894 -91 1617 61 
Q 1341 213 1159 525 
z
M 3116 1747 
Q 3116 2381 2855 2742 
Q 2594 3103 2138 3103 
Q 1681 3103 1420 2742 
Q 1159 2381 1159 1747 
Q 1159 1113 1420 752 
Q 1681 391 2138 391 
Q 2594 391 2855 752 
Q 3116 1113 3116 1747 
z
" id="DejaVuSans-70" transform="scale(0.015625)"/>
      </defs>
      <use xlink:href="#DejaVuSans-46"/>
      <use x="50.269531" xlink:href="#DejaVuSans-72"/>
      <use x="91.382812" xlink:href="#DejaVuSans-61"/>
      <use x="152.662109" xlink:href="#DejaVuSans-63"/>
      <use x="207.642578" xlink:href="#DejaVuSans-74"/>
      <use x="246.851562" xlink:href="#DejaVuSans-69"/>
      <use x="274.634766" xlink:href="#DejaVuSans-6f"/>
      <use x="335.816406" xlink:href="#DejaVuSans-6e"/>
      <use x="399.195312" xlink:href="#DejaVuSans-20"/>
      <use x="430.982422" xlink:href="#DejaVuSans-6f"/>
      <use x="492.164062" xlink:href="#DejaVuSans-66"/>
      <use x="527.369141" xlink:href="#DejaVuSans-20"/>
      <use x="559.15625" xlink:href="#DejaVuSans-66"/>
      <use x="594.361328" xlink:href="#DejaVuSans-75"/>
      <use x="657.740234" xlink:href="#DejaVuSans-6e"/>
      <use x="721.119141" xlink:href="#DejaVuSans-63"/>
      <use x="776.099609" xlink:href="#DejaVuSans-74"/>
      <use x="815.308594" xlink:href="#DejaVuSans-69"/>
      <use x="843.091797" xlink:href="#DejaVuSans-6f"/>
      <use x="904.273438" xlink:href="#DejaVuSans-6e"/>
      <use x="967.652344" xlink:href="#DejaVuSans-2c"/>
      <use x="999.439453" xlink:href="#DejaVuSans-74"/>
      <use x="1038.648438" xlink:href="#DejaVuSans-61"/>
      <use x="1099.927734" xlink:href="#DejaVuSans-72"/>
      <use x="1139.291016" xlink:href="#DejaVuSans-67"/>
      <use x="1202.767578" xlink:href="#DejaVuSans-65"/>
      <use x="1264.291016" xlink:href="#DejaVuSans-74"/>
      <use x="1303.5" xlink:href="#DejaVuSans-20"/>
      <use x="1335.287109" xlink:href="#DejaVuSans-70"/>
      <use x="1398.763672" xlink:href="#DejaVuSans-61"/>
      <use x="1460.042969" xlink:href="#DejaVuSans-69"/>
      <use x="1487.826172" xlink:href="#DejaVuSans-72"/>
      <use x="1528.939453" xlink:href="#DejaVuSans-73"/>
     </g>
    </g>
   </g>
   <g id="line2d_33">
    <defs>
     <path d="M 0 1.5 
C 0.397805 1.5 0.77937 1.341951 1.06066 1.06066 
C 1.341951 0.77937 1.5 0.397805 1.5 0 
C 1.5 -0.397805 1.341951 -0.77937 1.06066 -1.06066 
C 0.77937 -1.341951 0.397805 -1.5 0 -1.5 
C -0.397805 -1.5 -0.77937 -1.341951 -1.06066 -1.06066 
C -1.341951 -0.77937 -1.5 -0.397805 -1.5 0 
C -1.5 0.397805 -1.341951 0.77937 -1.06066 1.06066 
C -0.77937 1.341951 -0.397805 1.5 0 1.5 
z
" id="m7d58995984" style="stroke:#f5deb3;"/>
    </defs>
    <g>
     <use style="fill:#f5deb3;stroke:#f5deb3;" x="74.068926" xlink:href="#m7d58995984" y="27.648"/>
     <use style="fill:#f5deb3;stroke:#f5deb3;" x="74.068926" xlink:href="#m7d58995984" y="27.648"/>
    </g>
   </g>
   <g id="line2d_34">
    <defs>
     <path d="M 0 1.5 
C 0.397805 1.5 0.77937 1.341951 1.06066 1.06066 
C 1.341951 0.77937 1.5 0.397805 1.5 0 
C 1.5 -0.397805 1.341951 -0.77937 1.06066 -1.06066 
C 0.77937 -1.341951 0.397805 -1.5 0 -1.5 
C -0.397805 -1.5 -0.77937 -1.341951 -1.06066 -1.06066 
C -1.341951 -0.77937 -1.5 -0.397805 -1.5 0 
C -1.5 0.397805 -1.341951 0.77937 -1.06066 1.06066 
C -0.77937 1.341951 -0.397805 1.5 0 1.5 
z
" id="m9575161b4d" style="stroke:#000080;"/>
    </defs>
    <g>
     <use style="fill:#000080;stroke:#000080;" x="185.956604" xlink:href="#m9575161b4d" y="27.648"/>
     <use style="fill:#000080;stroke:#000080;" x="185.956604" xlink:href="#m9575161b4d" y="27.648"/>
    </g>
   </g>
   <g id="line2d_35">
    <path d="M 27.323974 298.944 
L 27.323974 290.787388 
L 40.363149 290.787388 
L 40.363149 285.467859 
L 47.990577 285.467859 
L 47.990577 282.985412 
L 53.402323 282.985412 
L 53.402323 279.084424 
L 57.6 279.084424 
L 57.6 278.729788 
L 61.029752 278.729788 
L 61.029752 277.311247 
L 63.929565 277.311247 
L 63.929565 276.956612 
L 66.441498 276.956612 
L 66.441498 276.601976 
L 74.068926 276.601976 
L 74.068926 275.892706 
L 76.96874 275.892706 
L 76.96874 274.474165 
L 81.696354 274.474165 
L 81.696354 273.764894 
L 86.307488 273.764894 
L 86.307488 273.410259 
L 89.323782 273.410259 
L 89.323782 272.346353 
L 90.668036 272.346353 
L 90.668036 271.991718 
L 95.250946 271.991718 
L 95.250946 271.282447 
L 97.18203 271.282447 
L 97.18203 270.927812 
L 99.751228 270.927812 
L 99.751228 270.573176 
L 100.535156 270.573176 
L 100.535156 270.218541 
L 105.26277 270.218541 
L 105.26277 269.863906 
L 106.42077 269.863906 
L 106.42077 269.154635 
L 110.449226 269.154635 
L 110.449226 268.8 
L 114.510421 268.8 
L 114.510421 268.090729 
L 114.872193 268.090729 
L 114.872193 267.736094 
L 116.907859 267.736094 
L 116.907859 267.026824 
L 119.319033 267.026824 
L 119.319033 266.317553 
L 123.825333 266.317553 
L 123.825333 265.962918 
L 125.526971 265.962918 
L 125.526971 264.544376 
L 126.709238 264.544376 
L 126.709238 264.189741 
L 127.273627 264.189741 
L 127.273627 263.125835 
L 127.640693 263.125835 
L 127.640693 261.352659 
L 127.821575 261.352659 
L 127.821575 260.998024 
L 128.178203 260.998024 
L 128.178203 259.224847 
L 129.209231 259.224847 
L 129.209231 258.870212 
L 129.375706 258.870212 
L 129.375706 258.160941 
L 130.656987 258.160941 
L 130.656987 257.097035 
L 131.41562 257.097035 
L 131.41562 256.7424 
L 132.001241 256.7424 
L 132.001241 256.387765 
L 133.78762 256.387765 
L 133.78762 256.033129 
L 133.918257 256.033129 
L 133.918257 255.678494 
L 134.047992 255.678494 
L 134.047992 255.323859 
L 134.304809 255.323859 
L 134.304809 254.969224 
L 134.431915 254.969224 
L 134.431915 253.905318 
L 134.931919 253.905318 
L 134.931919 252.841412 
L 136.242113 252.841412 
L 136.242113 252.486776 
L 136.696795 252.486776 
L 136.696795 252.132141 
L 136.808769 252.132141 
L 136.808769 251.777506 
L 136.92008 251.777506 
L 136.92008 251.422871 
L 137.140746 251.422871 
L 137.140746 250.004329 
L 137.358854 250.004329 
L 137.358854 249.295059 
L 138.206842 249.295059 
L 138.206842 248.940424 
L 138.412998 248.940424 
L 138.412998 248.585788 
L 139.018248 248.585788 
L 139.018248 247.876518 
L 139.411192 247.876518 
L 139.411192 247.521882 
L 140.173284 247.521882 
L 140.173284 246.812612 
L 140.451292 246.812612 
L 140.451292 246.457976 
L 140.634374 246.457976 
L 140.634374 245.394071 
L 140.905699 245.394071 
L 140.905699 243.975529 
L 141.436884 243.975529 
L 141.436884 243.620894 
L 142.373399 243.620894 
L 142.373399 241.847718 
L 142.538777 241.847718 
L 142.538777 241.138447 
L 144.417581 241.138447 
L 144.417581 240.783812 
L 144.786447 240.783812 
L 144.786447 240.074541 
L 145.643288 240.074541 
L 145.643288 239.010635 
L 145.782376 239.010635 
L 145.782376 238.301365 
L 145.989098 238.301365 
L 145.989098 237.592094 
L 146.261241 237.592094 
L 146.261241 237.237459 
L 146.595975 237.237459 
L 146.595975 236.882824 
L 146.793994 236.882824 
L 146.793994 236.528188 
L 146.924857 236.528188 
L 146.989949 235.464282 
L 147.816265 235.464282 
L 147.816265 235.109647 
L 148.124658 235.109647 
L 148.124658 234.755012 
L 148.307296 234.755012 
L 148.307296 234.400376 
L 148.667336 234.400376 
L 148.667336 233.691106 
L 148.785835 233.691106 
L 148.785835 233.336471 
L 149.136916 233.336471 
L 149.136916 232.6272 
L 149.481565 232.6272 
L 149.481565 232.272565 
L 149.931489 232.272565 
L 149.931489 231.208659 
L 150.958812 231.208659 
L 150.958812 230.854024 
L 151.116012 230.854024 
L 151.220087 229.790118 
L 151.32359 229.790118 
L 151.32359 229.435482 
L 151.681429 229.435482 
L 151.731998 228.371576 
L 151.832729 228.371576 
L 151.932924 227.307671 
L 152.279463 227.307671 
L 152.279463 226.5984 
L 152.715833 226.5984 
L 152.715833 226.243765 
L 153.189104 226.243765 
L 153.189104 225.179859 
L 153.696309 225.179859 
L 153.696309 224.825224 
L 153.832297 224.825224 
L 153.832297 224.470588 
L 154.14583 224.470588 
L 154.14583 224.115953 
L 154.584859 224.115953 
L 154.671449 223.406682 
L 154.714595 223.406682 
L 154.714595 221.988141 
L 155.013876 221.988141 
L 155.098517 220.924235 
L 155.391799 220.924235 
L 155.474761 219.151059 
L 155.516105 219.151059 
L 155.516105 218.796424 
L 155.802997 218.796424 
L 155.843627 218.087153 
L 156.125604 218.087153 
L 156.125604 217.732518 
L 156.560344 217.732518 
L 156.599372 217.023247 
L 157.061501 217.023247 
L 157.137431 215.250071 
L 157.250754 215.250071 
L 157.250754 214.186165 
L 157.438121 214.186165 
L 157.512549 213.476894 
L 157.734081 213.476894 
L 157.734081 212.412988 
L 158.595008 212.412988 
L 158.699905 210.994447 
L 158.734741 210.994447 
L 158.734741 210.639812 
L 158.873444 210.639812 
L 158.873444 209.930541 
L 159.283522 209.930541 
L 159.283522 209.221271 
L 159.451784 209.221271 
L 159.552023 205.674918 
L 159.783859 205.674918 
L 159.783859 204.965647 
L 160.23913 204.965647 
L 160.23913 204.256376 
L 160.4627 204.256376 
L 160.526092 202.4832 
L 160.808741 202.4832 
L 160.808741 202.128565 
L 161.056469 202.128565 
L 161.148532 200.355388 
L 161.391854 200.355388 
L 161.422049 198.582212 
L 161.721364 198.582212 
L 161.721364 196.4544 
L 162.219518 196.4544 
L 162.219518 195.745129 
L 162.392235 195.745129 
L 162.449456 195.035859 
L 162.506504 195.035859 
L 162.534963 193.617318 
L 162.648372 193.617318 
L 162.648372 192.908047 
L 162.901068 192.908047 
L 162.956765 191.134871 
L 163.122872 191.134871 
L 163.122872 190.780235 
L 163.3965 190.780235 
L 163.477818 186.879247 
L 163.612572 186.879247 
L 163.719684 185.106071 
L 164.142137 185.106071 
L 164.142137 184.751435 
L 164.427166 184.751435 
L 164.478528 184.042165 
L 164.55531 184.042165 
L 164.55531 183.687529 
L 164.884457 183.687529 
L 164.934588 181.914353 
L 165.034451 181.914353 
L 165.084184 181.205082 
L 165.257222 181.205082 
L 165.330896 180.495812 
L 165.719027 180.495812 
L 165.719027 180.141176 
L 165.838694 180.141176 
L 165.838694 179.431906 
L 166.075768 179.431906 
L 166.146311 178.013365 
L 166.379563 178.013365 
L 166.379563 177.658729 
L 166.518139 177.658729 
L 166.518139 176.240188 
L 166.632844 176.240188 
L 166.632844 175.885553 
L 166.746854 175.885553 
L 166.746854 175.530918 
L 166.860176 175.530918 
L 166.860176 175.176282 
L 167.040085 175.176282 
L 167.040085 173.757741 
L 167.218289 173.757741 
L 167.240447 172.693835 
L 167.372845 172.693835 
L 167.394821 171.629929 
L 167.59146 171.629929 
L 167.656552 170.920659 
L 167.721419 170.920659 
L 167.807563 168.083576 
L 167.871912 168.083576 
L 167.871912 167.728941 
L 168.021211 167.728941 
L 168.063651 166.665035 
L 168.1904 166.665035 
L 168.1904 165.955765 
L 168.337202 165.955765 
L 168.420577 164.182588 
L 168.503585 164.182588 
L 168.503585 163.827953 
L 168.627414 163.827953 
L 168.627414 163.473318 
L 168.811641 163.473318 
L 168.892945 162.409412 
L 169.174771 162.409412 
L 169.174771 160.636235 
L 169.333939 160.636235 
L 169.432739 159.926965 
L 169.452437 159.926965 
L 169.511408 158.863059 
L 169.745458 158.863059 
L 169.745458 158.508424 
L 169.899889 158.508424 
L 169.9383 157.444518 
L 170.033985 157.444518 
L 170.033985 157.089882 
L 170.167131 157.089882 
L 170.261661 155.671341 
L 170.374474 155.671341 
L 170.449309 153.898165 
L 170.542436 153.898165 
L 170.542436 153.543529 
L 170.819081 153.543529 
L 170.892171 152.479624 
L 171.109753 152.479624 
L 171.109753 151.770353 
L 171.324847 151.770353 
L 171.396002 150.351812 
L 171.466889 150.351812 
L 171.519879 149.287906 
L 171.660461 149.287906 
L 171.747795 147.160094 
L 171.852062 147.160094 
L 171.90398 146.096188 
L 172.041731 146.096188 
L 172.058879 145.386918 
L 172.161441 145.386918 
L 172.161441 145.032282 
L 172.314244 145.032282 
L 172.314244 144.677647 
L 172.432238 144.677647 
L 172.499332 143.259106 
L 172.582865 143.259106 
L 172.666028 142.549835 
L 172.699191 142.549835 
L 172.765341 140.776659 
L 172.83126 140.776659 
L 172.913335 138.648847 
L 173.043915 138.648847 
L 173.141258 136.1664 
L 173.430302 136.1664 
L 173.478047 135.102494 
L 173.541519 135.102494 
L 173.588983 134.393224 
L 173.793288 134.393224 
L 173.808912 132.620047 
L 173.995397 132.620047 
L 174.072557 130.1376 
L 174.134058 130.1376 
L 174.241203 128.719059 
L 174.25646 128.719059 
L 174.302156 127.300518 
L 174.618958 127.300518 
L 174.723384 126.236612 
L 174.782796 126.236612 
L 174.886319 124.818071 
L 174.974602 124.818071 
L 175.077078 123.399529 
L 175.106254 123.399529 
L 175.164472 121.626353 
L 175.236991 121.626353 
L 175.323647 120.562447 
L 175.467193 120.562447 
L 175.524306 119.143906 
L 175.609652 119.143906 
L 175.708734 117.016094 
L 175.76512 117.016094 
L 175.76512 116.661459 
L 175.891372 116.661459 
L 175.891372 116.306824 
L 176.016783 116.306824 
L 176.016783 115.952188 
L 176.155155 115.952188 
L 176.223961 113.115106 
L 176.564266 113.115106 
L 176.658458 110.632659 
L 176.765533 110.632659 
L 176.84544 109.214118 
L 176.92501 109.214118 
L 176.92501 108.504847 
L 177.083146 108.504847 
L 177.161719 107.086306 
L 177.239965 107.086306 
L 177.252974 105.667765 
L 177.382575 105.667765 
L 177.485617 103.894588 
L 177.51129 103.894588 
L 177.613631 102.830682 
L 177.664594 102.830682 
L 177.702725 99.9936 
L 177.804033 99.9936 
L 177.879658 98.575059 
L 177.967504 98.575059 
L 178.042475 96.801882 
L 178.179151 96.801882 
L 178.253286 94.319435 
L 178.388444 94.319435 
L 178.498311 90.418447 
L 178.619637 90.418447 
L 178.667949 89.709176 
L 178.752198 89.709176 
L 178.752198 88.999906 
L 179.06186 88.999906 
L 179.06186 88.290635 
L 179.226514 88.290635 
L 179.226514 87.936 
L 179.366508 87.936 
L 179.459261 84.035012 
L 179.493926 84.035012 
L 179.540047 81.552565 
L 179.609017 81.552565 
L 179.609017 79.779388 
L 179.723408 79.779388 
L 179.814423 77.651576 
L 180.062466 77.651576 
L 180.062466 77.296941 
L 180.196396 77.296941 
L 180.307281 75.169129 
L 180.395521 75.169129 
L 180.395521 74.459859 
L 180.6252 74.459859 
L 180.657783 73.395953 
L 180.787556 73.395953 
L 180.89502 67.721788 
L 181.033812 67.721788 
L 181.086922 65.948612 
L 181.213777 65.948612 
L 181.213777 65.239341 
L 181.339783 65.239341 
L 181.433737 64.530071 
L 181.464951 64.530071 
L 181.506489 63.466165 
L 181.57896 63.466165 
L 181.630555 61.692988 
L 181.712814 61.692988 
L 181.815135 59.919812 
L 181.825336 59.919812 
L 181.825336 58.855906 
L 181.937189 58.855906 
L 182.038299 57.792 
L 182.118798 57.792 
L 182.188953 56.728094 
L 182.238904 56.728094 
L 182.328483 56.018824 
L 182.36816 56.018824 
L 182.47684 54.954918 
L 182.526034 54.954918 
L 182.633809 53.536376 
L 182.663095 53.536376 
L 182.702072 51.408565 
L 182.789478 51.408565 
L 182.85718 50.344659 
L 182.90539 50.344659 
L 183.011019 49.635388 
L 183.07793 49.635388 
L 183.144604 47.507576 
L 183.192084 47.507576 
L 183.29612 44.670494 
L 183.437067 44.670494 
L 183.493151 42.188047 
L 183.586255 42.188047 
L 183.6789 39.7056 
L 183.706604 39.7056 
L 183.807841 38.287059 
L 183.835357 38.287059 
L 183.890268 35.449976 
L 183.972335 35.449976 
L 184.054045 33.6768 
L 184.207426 33.6768 
L 184.207426 33.322165 
L 184.359566 33.322165 
L 184.41297 31.903624 
L 184.625082 31.903624 
L 184.730249 29.775812 
L 184.808739 29.775812 
L 184.808739 29.066541 
L 185.025066 29.066541 
L 185.025066 28.357271 
L 185.750786 28.357271 
L 185.750786 28.002635 
L 185.956604 28.002635 
L 185.956604 27.648 
L 360.8064 27.648 
L 360.8064 27.648 
" style="fill:none;stroke:#000080;stroke-linecap:square;stroke-width:1.5;"/>
   </g>
   <g id="line2d_36">
    <defs>
     <path d="M 0 6 
C 1.591219 6 3.117479 5.367802 4.242641 4.242641 
C 5.367802 3.117479 6 1.591219 6 0 
C 6 -1.591219 5.367802 -3.117479 4.242641 -4.242641 
C 3.117479 -5.367802 1.591219 -6 0 -6 
C -1.591219 -6 -3.117479 -5.367802 -4.242641 -4.242641 
C -5.367802 -3.117479 -6 -1.591219 -6 0 
C -6 1.591219 -5.367802 3.117479 -4.242641 4.242641 
C -3.117479 5.367802 -1.591219 6 0 6 
z
" id="mc3a7c551e9" style="stroke:#000080;stroke-width:1.5;"/>
    </defs>
    <g>
     <use style="fill-opacity:0;stroke:#000080;stroke-width:1.5;" x="95.250946" xlink:href="#mc3a7c551e9" y="271.282447"/>
     <use style="fill-opacity:0;stroke:#000080;stroke-width:1.5;" x="168.503585" xlink:href="#mc3a7c551e9" y="163.827953"/>
     <use style="fill-opacity:0;stroke:#000080;stroke-width:1.5;" x="185.956604" xlink:href="#mc3a7c551e9" y="28.002635"/>
     <use style="fill-opacity:0;stroke:#000080;stroke-width:1.5;" x="185.956604" xlink:href="#mc3a7c551e9" y="27.648"/>
     <use style="fill-opacity:0;stroke:#000080;stroke-width:1.5;" x="185.956604" xlink:href="#mc3a7c551e9" y="27.648"/>
     <use style="fill-opacity:0;stroke:#000080;stroke-width:1.5;" x="360.8064" xlink:href="#mc3a7c551e9" y="27.648"/>
    </g>
   </g>
   <g id="line2d_37">
    <path style="fill:none;stroke:#000080;stroke-linecap:square;stroke-width:1.5;"/>
    <g/>
   </g>
   <g id="line2d_38">
    <defs>
     <path d="M 0 1.5 
C 0.397805 1.5 0.77937 1.341951 1.06066 1.06066 
C 1.341951 0.77937 1.5 0.397805 1.5 0 
C 1.5 -0.397805 1.341951 -0.77937 1.06066 -1.06066 
C 0.77937 -1.341951 0.397805 -1.5 0 -1.5 
C -0.397805 -1.5 -0.77937 -1.341951 -1.06066 -1.06066 
C -1.341951 -0.77937 -1.5 -0.397805 -1.5 0 
C -1.5 0.397805 -1.341951 0.77937 -1.06066 1.06066 
C -0.77937 1.341951 -0.397805 1.5 0 1.5 
z
" id="me0ab475c37" style="stroke:#ff00ff;"/>
    </defs>
    <g>
     <use style="fill:#ff00ff;stroke:#ff00ff;" x="285.240682" xlink:href="#me0ab475c37" y="27.648"/>
     <use style="fill:#ff00ff;stroke:#ff00ff;" x="285.240682" xlink:href="#me0ab475c37" y="27.648"/>
    </g>
   </g>
   <g id="line2d_39">
    <path d="M 27.323974 298.944 
L 27.323974 285.113224 
L 40.363149 285.113224 
L 40.363149 282.276141 
L 47.990577 282.276141 
L 47.990577 280.8576 
L 57.6 280.8576 
L 57.6 279.084424 
L 61.029752 279.084424 
L 61.029752 278.020518 
L 63.929565 278.020518 
L 63.929565 277.311247 
L 68.65718 277.311247 
L 68.65718 275.538071 
L 70.639174 275.538071 
L 70.639174 275.183435 
L 72.432107 275.183435 
L 72.432107 273.764894 
L 74.068926 273.764894 
L 74.068926 273.410259 
L 78.266603 273.410259 
L 78.266603 273.055624 
L 79.480672 273.055624 
L 79.480672 272.700988 
L 80.621116 272.700988 
L 80.621116 271.637082 
L 81.696354 271.637082 
L 81.696354 271.282447 
L 82.713442 271.282447 
L 82.713442 270.573176 
L 84.596168 270.573176 
L 84.596168 269.863906 
L 85.471281 269.863906 
L 85.471281 269.509271 
L 86.307488 269.509271 
L 86.307488 268.445365 
L 87.876026 268.445365 
L 87.876026 268.090729 
L 88.613828 268.090729 
L 88.613828 267.381459 
L 89.323782 267.381459 
L 89.323782 266.672188 
L 90.007914 266.672188 
L 90.007914 265.962918 
L 90.668036 265.962918 
L 90.668036 265.608282 
L 93.098709 265.608282 
L 93.098709 265.253647 
L 93.66029 265.253647 
L 93.66029 264.899012 
L 94.205591 264.899012 
L 94.205591 264.189741 
L 96.241256 264.189741 
L 96.241256 263.835106 
L 96.717523 263.835106 
L 96.717523 262.416565 
L 98.510456 262.416565 
L 98.510456 262.061929 
L 98.933205 262.061929 
L 98.933205 261.707294 
L 100.9152 261.707294 
L 100.9152 260.998024 
L 101.287718 260.998024 
L 101.287718 260.643388 
L 102.011329 260.643388 
L 102.011329 260.288753 
L 102.362957 260.288753 
L 102.362957 259.934118 
L 103.380045 259.934118 
L 103.380045 259.579482 
L 103.707211 259.579482 
L 103.707211 259.224847 
L 104.344952 259.224847 
L 104.344952 258.870212 
L 105.26277 258.870212 
L 105.26277 257.806306 
L 106.699465 257.806306 
L 106.699465 257.451671 
L 106.974091 257.451671 
L 106.974091 257.097035 
L 107.774703 257.097035 
L 107.774703 256.033129 
L 108.791791 256.033129 
L 108.791791 255.678494 
L 109.037698 255.678494 
L 109.037698 255.323859 
L 109.520071 255.323859 
L 109.520071 254.969224 
L 110.221204 254.969224 
L 110.221204 254.259953 
L 110.674517 254.259953 
L 110.674517 253.905318 
L 111.334639 253.905318 
L 111.334639 252.841412 
L 111.97238 252.841412 
L 111.97238 252.132141 
L 112.180244 252.132141 
L 112.180244 251.777506 
L 113.57433 251.777506 
L 113.57433 251.068235 
L 113.765312 251.068235 
L 113.765312 250.7136 
L 114.141556 250.7136 
L 114.141556 250.358965 
L 114.872193 250.358965 
L 114.872193 250.004329 
L 115.050503 250.004329 
L 115.050503 248.585788 
L 115.227139 248.585788 
L 115.227139 248.231153 
L 115.747307 248.231153 
L 115.747307 247.167247 
L 116.907859 247.167247 
L 116.907859 246.812612 
L 117.067958 246.812612 
L 117.067958 246.457976 
L 118.000953 246.457976 
L 118.000953 246.103341 
L 118.450653 246.103341 
L 118.450653 245.748706 
L 118.598196 245.748706 
L 118.598196 244.6848 
L 118.74459 244.6848 
L 118.74459 243.975529 
L 119.034004 243.975529 
L 119.034004 243.266259 
L 119.319033 243.266259 
L 119.319033 242.911624 
L 119.599808 242.911624 
L 119.599808 242.202353 
L 120.013265 242.202353 
L 120.013265 241.847718 
L 120.149089 241.847718 
L 120.149089 241.493082 
L 120.682786 241.493082 
L 120.682786 240.429176 
L 120.813877 240.429176 
L 120.813877 240.074541 
L 121.201758 240.074541 
L 121.201758 239.719906 
L 121.954321 239.719906 
L 121.954321 239.365271 
L 122.795872 239.365271 
L 122.795872 239.010635 
L 123.029559 239.010635 
L 123.029559 238.656 
L 123.374735 238.656 
L 123.374735 237.946729 
L 123.713691 237.946729 
L 123.713691 237.237459 
L 124.156336 237.237459 
L 124.156336 236.528188 
L 125.011554 236.528188 
L 125.115773 235.109647 
L 125.219419 235.109647 
L 125.219419 234.755012 
L 125.526971 234.755012 
L 125.526971 234.400376 
L 125.829577 234.400376 
L 125.929373 233.691106 
L 126.127391 233.691106 
L 126.127391 233.336471 
L 126.420564 233.336471 
L 126.420564 232.981835 
L 126.709238 232.981835 
L 126.709238 232.6272 
L 126.993549 232.6272 
L 126.993549 231.917929 
L 127.18073 231.917929 
L 127.18073 230.854024 
L 127.731351 230.854024 
L 127.731351 229.790118 
L 127.911368 229.790118 
L 128.000734 228.726212 
L 128.354013 228.726212 
L 128.441306 228.016941 
L 128.528195 228.016941 
L 128.614685 225.534494 
L 129.7043 225.534494 
L 129.7043 224.825224 
L 129.86647 224.825224 
L 129.86647 224.115953 
L 130.027253 224.115953 
L 130.027253 223.761318 
L 130.186674 223.761318 
L 130.265881 223.052047 
L 130.811181 223.052047 
L 130.811181 222.342776 
L 131.115828 222.342776 
L 131.115828 221.633506 
L 131.266322 221.633506 
L 131.341119 220.924235 
L 131.41562 220.924235 
L 131.41562 220.214965 
L 131.71071 220.214965 
L 131.71071 219.860329 
L 132.001241 219.860329 
L 132.073179 217.732518 
L 132.216233 217.732518 
L 132.216233 216.668612 
L 132.777813 216.668612 
L 132.846847 215.959341 
L 133.188264 215.959341 
L 133.188264 214.895435 
L 133.853052 214.895435 
L 133.918257 213.476894 
L 134.176839 213.476894 
L 134.176839 213.122259 
L 134.431915 213.122259 
L 134.495147 212.058353 
L 134.558167 212.058353 
L 134.558167 211.349082 
L 134.993495 211.349082 
L 134.993495 210.994447 
L 135.116046 210.994447 
L 135.177024 208.512 
L 135.418977 208.512 
L 135.418977 207.802729 
L 135.538796 207.802729 
L 135.538796 207.448094 
L 135.657857 207.448094 
L 135.657857 206.384188 
L 136.010584 206.384188 
L 136.010584 204.256376 
L 136.584151 204.256376 
L 136.640557 202.837835 
L 136.752866 202.837835 
L 136.752866 202.4832 
L 137.627979 202.4832 
L 137.627979 202.128565 
L 137.840541 202.128565 
L 137.945929 200.355388 
L 138.050729 200.355388 
L 138.050729 200.000753 
L 138.258593 200.000753 
L 138.36167 198.227576 
L 138.566146 198.227576 
L 138.566146 197.518306 
L 138.768422 197.518306 
L 138.768422 197.163671 
L 138.968547 197.163671 
L 139.067817 193.617318 
L 139.215746 193.617318 
L 139.215746 193.262682 
L 139.362521 193.262682 
L 139.362521 192.908047 
L 139.556456 192.908047 
L 139.556456 192.553412 
L 139.843661 192.553412 
L 139.93843 191.134871 
L 140.312801 191.134871 
L 140.359078 189.716329 
L 140.451292 189.716329 
L 140.451292 188.652424 
L 140.725251 188.652424 
L 140.725251 188.297788 
L 140.905699 188.297788 
L 140.905699 187.943153 
L 141.173167 187.943153 
L 141.173167 187.233882 
L 141.436884 187.233882 
L 141.436884 186.524612 
L 141.610664 186.524612 
L 141.610664 186.169976 
L 141.995897 186.169976 
L 141.995897 185.460706 
L 142.164612 185.460706 
L 142.248405 184.3968 
L 142.331827 184.3968 
L 142.41488 183.687529 
L 142.620923 183.687529 
L 142.620923 183.332894 
L 142.784148 183.332894 
L 142.784148 182.978259 
L 142.905644 182.978259 
L 142.986208 181.205082 
L 143.265494 181.205082 
L 143.265494 180.495812 
L 143.501625 180.495812 
L 143.501625 179.786541 
L 143.965177 179.786541 
L 143.965177 179.077271 
L 144.117191 179.077271 
L 144.192739 177.304094 
L 144.2304 177.304094 
L 144.267986 175.530918 
L 144.380294 175.530918 
L 144.417581 174.467012 
L 144.529002 174.467012 
L 144.639767 172.693835 
L 144.786447 172.693835 
L 144.822939 171.629929 
L 145.004344 171.629929 
L 145.004344 171.275294 
L 145.148219 171.275294 
L 145.184016 170.211388 
L 145.361989 170.211388 
L 145.46797 168.792847 
L 145.503164 168.792847 
L 145.573357 168.083576 
L 145.7477 168.083576 
L 145.816988 164.537224 
L 145.920443 164.537224 
L 145.920443 164.182588 
L 146.057504 164.182588 
L 146.159649 161.700141 
L 146.193574 161.700141 
L 146.261241 160.636235 
L 146.328666 160.636235 
L 146.328666 159.926965 
L 146.562769 159.926965 
L 146.662213 158.863059 
L 147.1517 158.863059 
L 147.183884 157.089882 
L 147.280107 157.089882 
L 147.280107 156.735247 
L 147.439393 156.735247 
L 147.534321 155.316706 
L 147.691478 155.316706 
L 147.691478 154.962071 
L 147.816265 154.962071 
L 147.909315 153.898165 
L 147.940229 153.898165 
L 147.940229 153.188894 
L 148.094045 153.188894 
L 148.094045 152.834259 
L 148.246613 152.834259 
L 148.276979 150.706447 
L 148.428077 150.706447 
L 148.518156 148.933271 
L 148.607806 148.933271 
L 148.607806 148.578635 
L 148.726679 148.578635 
L 148.785835 146.805459 
L 148.932916 146.805459 
L 149.020615 146.096188 
L 149.049758 146.096188 
L 149.049758 145.741553 
L 149.165879 145.741553 
L 149.252502 144.323012 
L 149.338728 144.323012 
L 149.367382 143.613741 
L 149.510002 143.613741 
L 149.510002 143.259106 
L 149.679732 143.259106 
L 149.73597 140.422024 
L 149.820013 140.422024 
L 149.875833 138.294212 
L 150.124997 138.294212 
L 150.179921 137.230306 
L 150.262008 137.230306 
L 150.262008 136.875671 
L 150.559965 136.875671 
L 150.559965 136.521035 
L 150.747146 136.521035 
L 150.800286 135.457129 
L 150.906118 135.457129 
L 150.985103 134.747859 
L 151.063758 134.747859 
L 151.142085 134.038588 
L 151.32359 134.038588 
L 151.32359 133.329318 
L 151.452172 133.329318 
L 151.452172 132.974682 
L 152.007722 132.974682 
L 152.032588 131.910776 
L 152.426047 131.910776 
L 152.426047 131.556141 
L 153.095398 131.556141 
L 153.095398 130.846871 
L 157.971166 130.846871 
L 157.971166 130.492235 
L 164.70794 130.492235 
L 164.70794 130.1376 
L 167.073627 130.1376 
L 167.073627 129.782965 
L 168.420577 129.782965 
L 168.420577 129.428329 
L 168.534619 129.428329 
L 168.534619 129.073694 
L 172.823033 129.073694 
L 172.823033 128.719059 
L 173.334447 128.719059 
L 173.334447 128.364424 
L 178.234779 128.364424 
L 178.234779 128.009788 
L 179.786028 128.009788 
L 179.786028 127.655153 
L 195.255617 127.655153 
L 195.255617 127.300518 
L 198.470636 127.300518 
L 198.48957 126.591247 
L 201.538391 126.591247 
L 201.538391 126.236612 
L 206.135214 126.236612 
L 206.223239 125.527341 
L 206.984082 125.527341 
L 206.984082 125.172706 
L 209.83679 125.172706 
L 209.83679 124.818071 
L 213.605128 124.818071 
L 213.605128 124.463435 
L 214.989662 124.463435 
L 214.989662 124.1088 
L 219.5371 124.1088 
L 219.5371 123.754165 
L 225.780708 123.754165 
L 225.780708 123.399529 
L 227.038408 123.399529 
L 227.038408 123.044894 
L 230.584127 123.044894 
L 230.584127 121.980988 
L 233.016188 121.980988 
L 233.016188 121.626353 
L 233.96673 121.626353 
L 233.96673 121.271718 
L 235.09456 121.271718 
L 235.09456 120.207812 
L 239.375924 120.207812 
L 239.375924 119.853176 
L 240.77001 119.853176 
L 240.77001 119.498541 
L 242.725993 119.498541 
L 242.725993 119.143906 
L 243.921595 119.143906 
L 244.030636 71.622776 
L 244.033812 71.622776 
L 244.049308 68.785694 
L 244.51401 68.785694 
L 244.51401 68.431059 
L 251.436386 68.431059 
L 251.436386 68.076424 
L 253.047942 68.076424 
L 253.047942 67.721788 
L 256.95391 67.721788 
L 257.012278 45.7344 
L 261.082796 45.7344 
L 261.083023 45.025129 
L 264.578111 45.025129 
L 264.615486 35.804612 
L 265.8702 35.804612 
L 265.8702 35.449976 
L 269.989607 35.449976 
L 270.013046 31.194353 
L 274.189276 31.194353 
L 274.202017 29.421176 
L 274.969684 29.421176 
L 274.969684 29.066541 
L 277.619354 29.066541 
L 277.619542 28.357271 
L 280.515345 28.357271 
L 280.515345 28.002635 
L 285.240682 28.002635 
L 285.240682 27.648 
L 360.8064 27.648 
L 360.8064 27.648 
" style="fill:none;stroke:#ff00ff;stroke-linecap:square;stroke-width:1.5;"/>
   </g>
   <g id="line2d_40">
    <defs>
     <path d="M -0 8.485281 
L 5.091169 0 
L 0 -8.485281 
L -5.091169 -0 
z
" id="m1d4f498163" style="stroke:#ff00ff;stroke-linejoin:miter;stroke-width:1.5;"/>
    </defs>
    <g>
     <use style="fill-opacity:0;stroke:#ff00ff;stroke-linejoin:miter;stroke-width:1.5;" x="110.674517" xlink:href="#m1d4f498163" y="253.905318"/>
     <use style="fill-opacity:0;stroke:#ff00ff;stroke-linejoin:miter;stroke-width:1.5;" x="150.906118" xlink:href="#m1d4f498163" y="135.102494"/>
     <use style="fill-opacity:0;stroke:#ff00ff;stroke-linejoin:miter;stroke-width:1.5;" x="233.96673" xlink:href="#m1d4f498163" y="121.271718"/>
     <use style="fill-opacity:0;stroke:#ff00ff;stroke-linejoin:miter;stroke-width:1.5;" x="285.240682" xlink:href="#m1d4f498163" y="28.002635"/>
     <use style="fill-opacity:0;stroke:#ff00ff;stroke-linejoin:miter;stroke-width:1.5;" x="285.240682" xlink:href="#m1d4f498163" y="27.648"/>
     <use style="fill-opacity:0;stroke:#ff00ff;stroke-linejoin:miter;stroke-width:1.5;" x="360.8064" xlink:href="#m1d4f498163" y="27.648"/>
    </g>
   </g>
   <g id="line2d_41">
    <path style="fill:none;stroke:#ff00ff;stroke-linecap:square;stroke-width:1.5;"/>
    <g/>
   </g>
   <g id="line2d_42">
    <path clip-path="url(#p654b8645b5)" d="M 243.901479 119.143906 
" style="fill:none;stroke:#ff00ff;stroke-linecap:square;stroke-width:1.5;"/>
    <defs>
     <path d="M -12 12 
L 12 -12 
M -12 -12 
L 12 12 
" id="madfcec094b" style="stroke:#ff00ff;"/>
    </defs>
    <g clip-path="url(#p654b8645b5)">
     <use style="fill:#ff00ff;stroke:#ff00ff;" x="243.901479" xlink:href="#madfcec094b" y="119.143906"/>
    </g>
   </g>
   <g id="line2d_43">
    <path d="M 360.8064 27.648 
L 380.514816 293.51808 
" style="fill:none;stroke:#ff00ff;stroke-linecap:square;stroke-width:1.5;"/>
    <g>
     <use style="fill-opacity:0;stroke:#ff00ff;stroke-linejoin:miter;stroke-width:1.5;" x="360.8064" xlink:href="#m1d4f498163" y="27.648"/>
     <use style="fill-opacity:0;stroke:#ff00ff;stroke-linejoin:miter;stroke-width:1.5;" x="380.514816" xlink:href="#m1d4f498163" y="293.51808"/>
    </g>
   </g>
   <g id="line2d_44">
    <path d="M 360.8064 27.648 
L 380.514816 163.296 
" style="fill:none;stroke:#000080;stroke-linecap:square;stroke-width:1.5;"/>
    <g>
     <use style="fill-opacity:0;stroke:#000080;stroke-width:1.5;" x="360.8064" xlink:href="#mc3a7c551e9" y="27.648"/>
     <use style="fill-opacity:0;stroke:#000080;stroke-width:1.5;" x="380.514816" xlink:href="#mc3a7c551e9" y="163.296"/>
    </g>
   </g>
   <g id="line2d_45">
    <path d="M 360.8064 298.944 
L 360.8064 27.648 
" style="fill:none;stroke:#000000;stroke-linecap:square;stroke-width:1.5;"/>
   </g>
   <g id="patch_3">
    <path d="M 57.6 298.944 
L 360.8064 298.944 
" style="fill:none;stroke:#000000;stroke-linecap:square;stroke-linejoin:miter;stroke-width:0.8;"/>
   </g>
   <g id="patch_4">
    <path d="M 57.6 27.648 
L 360.8064 27.648 
" style="fill:none;stroke:#000000;stroke-linecap:square;stroke-linejoin:miter;stroke-width:0.8;"/>
   </g>
   <g id="text_13">
    <!-- cma.fmin  -->
    <g transform="translate(386.578944 297.381205)scale(0.14 -0.14)">
     <use xlink:href="#DejaVuSans-63"/>
     <use x="54.980469" xlink:href="#DejaVuSans-6d"/>
     <use x="152.392578" xlink:href="#DejaVuSans-61"/>
     <use x="213.671875" xlink:href="#DejaVuSans-2e"/>
     <use x="245.458984" xlink:href="#DejaVuSans-66"/>
     <use x="280.664062" xlink:href="#DejaVuSans-6d"/>
     <use x="378.076172" xlink:href="#DejaVuSans-69"/>
     <use x="405.859375" xlink:href="#DejaVuSans-6e"/>
     <use x="469.238281" xlink:href="#DejaVuSans-20"/>
    </g>
   </g>
   <g id="text_14">
    <!-- different -->
    <g transform="translate(386.578944 167.159125)scale(0.14 -0.14)">
     <use xlink:href="#DejaVuSans-64"/>
     <use x="63.476562" xlink:href="#DejaVuSans-69"/>
     <use x="91.259766" xlink:href="#DejaVuSans-66"/>
     <use x="126.464844" xlink:href="#DejaVuSans-66"/>
     <use x="161.669922" xlink:href="#DejaVuSans-65"/>
     <use x="223.193359" xlink:href="#DejaVuSans-72"/>
     <use x="262.056641" xlink:href="#DejaVuSans-65"/>
     <use x="323.580078" xlink:href="#DejaVuSans-6e"/>
     <use x="386.958984" xlink:href="#DejaVuSans-74"/>
    </g>
   </g>
   <g id="text_15">
    <!-- best 2009 -->
    <g transform="translate(386.578944 36.937045)scale(0.14 -0.14)">
     <defs>
      <path d="M 3116 1747 
Q 3116 2381 2855 2742 
Q 2594 3103 2138 3103 
Q 1681 3103 1420 2742 
Q 1159 2381 1159 1747 
Q 1159 1113 1420 752 
Q 1681 391 2138 391 
Q 2594 391 2855 752 
Q 3116 1113 3116 1747 
z
M 1159 2969 
Q 1341 3281 1617 3432 
Q 1894 3584 2278 3584 
Q 2916 3584 3314 3078 
Q 3713 2572 3713 1747 
Q 3713 922 3314 415 
Q 2916 -91 2278 -91 
Q 1894 -91 1617 61 
Q 1341 213 1159 525 
L 1159 0 
L 581 0 
L 581 4863 
L 1159 4863 
L 1159 2969 
z
" id="DejaVuSans-62" transform="scale(0.015625)"/>
      <path d="M 703 97 
L 703 672 
Q 941 559 1184 500 
Q 1428 441 1663 441 
Q 2288 441 2617 861 
Q 2947 1281 2994 2138 
Q 2813 1869 2534 1725 
Q 2256 1581 1919 1581 
Q 1219 1581 811 2004 
Q 403 2428 403 3163 
Q 403 3881 828 4315 
Q 1253 4750 1959 4750 
Q 2769 4750 3195 4129 
Q 3622 3509 3622 2328 
Q 3622 1225 3098 567 
Q 2575 -91 1691 -91 
Q 1453 -91 1209 -44 
Q 966 3 703 97 
z
M 1959 2075 
Q 2384 2075 2632 2365 
Q 2881 2656 2881 3163 
Q 2881 3666 2632 3958 
Q 2384 4250 1959 4250 
Q 1534 4250 1286 3958 
Q 1038 3666 1038 3163 
Q 1038 2656 1286 2365 
Q 1534 2075 1959 2075 
z
" id="DejaVuSans-39" transform="scale(0.015625)"/>
     </defs>
     <use xlink:href="#DejaVuSans-62"/>
     <use x="63.476562" xlink:href="#DejaVuSans-65"/>
     <use x="125" xlink:href="#DejaVuSans-73"/>
     <use x="177.099609" xlink:href="#DejaVuSans-74"/>
     <use x="216.308594" xlink:href="#DejaVuSans-20"/>
     <use x="248.095703" xlink:href="#DejaVuSans-32"/>
     <use x="311.71875" xlink:href="#DejaVuSans-30"/>
     <use x="375.341797" xlink:href="#DejaVuSans-30"/>
     <use x="438.964844" xlink:href="#DejaVuSans-39"/>
    </g>
   </g>
   <g id="text_16">
    <!-- bbob f1, 5-D -->
    <g transform="translate(60.632064 38.111366)scale(0.102 -0.102)">
     <defs>
      <path d="M 691 4666 
L 3169 4666 
L 3169 4134 
L 1269 4134 
L 1269 2991 
Q 1406 3038 1543 3061 
Q 1681 3084 1819 3084 
Q 2600 3084 3056 2656 
Q 3513 2228 3513 1497 
Q 3513 744 3044 326 
Q 2575 -91 1722 -91 
Q 1428 -91 1123 -41 
Q 819 9 494 109 
L 494 744 
Q 775 591 1075 516 
Q 1375 441 1709 441 
Q 2250 441 2565 725 
Q 2881 1009 2881 1497 
Q 2881 1984 2565 2268 
Q 2250 2553 1709 2553 
Q 1456 2553 1204 2497 
Q 953 2441 691 2322 
L 691 4666 
z
" id="DejaVuSans-35" transform="scale(0.015625)"/>
      <path d="M 1259 4147 
L 1259 519 
L 2022 519 
Q 2988 519 3436 956 
Q 3884 1394 3884 2338 
Q 3884 3275 3436 3711 
Q 2988 4147 2022 4147 
L 1259 4147 
z
M 628 4666 
L 1925 4666 
Q 3281 4666 3915 4102 
Q 4550 3538 4550 2338 
Q 4550 1131 3912 565 
Q 3275 0 1925 0 
L 628 0 
L 628 4666 
z
" id="DejaVuSans-44" transform="scale(0.015625)"/>
     </defs>
     <use xlink:href="#DejaVuSans-62"/>
     <use x="63.476562" xlink:href="#DejaVuSans-62"/>
     <use x="126.953125" xlink:href="#DejaVuSans-6f"/>
     <use x="188.134766" xlink:href="#DejaVuSans-62"/>
     <use x="251.611328" xlink:href="#DejaVuSans-20"/>
     <use x="283.398438" xlink:href="#DejaVuSans-66"/>
     <use x="318.603516" xlink:href="#DejaVuSans-31"/>
     <use x="382.226562" xlink:href="#DejaVuSans-2c"/>
     <use x="414.013672" xlink:href="#DejaVuSans-20"/>
     <use x="445.800781" xlink:href="#DejaVuSans-35"/>
     <use x="509.423828" xlink:href="#DejaVuSans-2d"/>
     <use x="545.507812" xlink:href="#DejaVuSans-44"/>
    </g>
    <!-- 51 targets: 100..1e-08 -->
    <g transform="translate(60.632064 49.533135)scale(0.102 -0.102)">
     <defs>
      <path d="M 750 794 
L 1409 794 
L 1409 0 
L 750 0 
L 750 794 
z
M 750 3309 
L 1409 3309 
L 1409 2516 
L 750 2516 
L 750 3309 
z
" id="DejaVuSans-3a" transform="scale(0.015625)"/>
     </defs>
     <use xlink:href="#DejaVuSans-35"/>
     <use x="63.623047" xlink:href="#DejaVuSans-31"/>
     <use x="127.246094" xlink:href="#DejaVuSans-20"/>
     <use x="159.033203" xlink:href="#DejaVuSans-74"/>
     <use x="198.242188" xlink:href="#DejaVuSans-61"/>
     <use x="259.521484" xlink:href="#DejaVuSans-72"/>
     <use x="298.884766" xlink:href="#DejaVuSans-67"/>
     <use x="362.361328" xlink:href="#DejaVuSans-65"/>
     <use x="423.884766" xlink:href="#DejaVuSans-74"/>
     <use x="463.09375" xlink:href="#DejaVuSans-73"/>
     <use x="515.193359" xlink:href="#DejaVuSans-3a"/>
     <use x="548.884766" xlink:href="#DejaVuSans-20"/>
     <use x="580.671875" xlink:href="#DejaVuSans-31"/>
     <use x="644.294922" xlink:href="#DejaVuSans-30"/>
     <use x="707.917969" xlink:href="#DejaVuSans-30"/>
     <use x="771.541016" xlink:href="#DejaVuSans-2e"/>
     <use x="803.328125" xlink:href="#DejaVuSans-2e"/>
     <use x="835.115234" xlink:href="#DejaVuSans-31"/>
     <use x="898.738281" xlink:href="#DejaVuSans-65"/>
     <use x="960.261719" xlink:href="#DejaVuSans-2d"/>
     <use x="996.345703" xlink:href="#DejaVuSans-30"/>
     <use x="1059.96875" xlink:href="#DejaVuSans-38"/>
    </g>
    <!-- 15 instances -->
    <g transform="translate(60.632064 60.954904)scale(0.102 -0.102)">
     <use xlink:href="#DejaVuSans-31"/>
     <use x="63.623047" xlink:href="#DejaVuSans-35"/>
     <use x="127.246094" xlink:href="#DejaVuSans-20"/>
     <use x="159.033203" xlink:href="#DejaVuSans-69"/>
     <use x="186.816406" xlink:href="#DejaVuSans-6e"/>
     <use x="250.195312" xlink:href="#DejaVuSans-73"/>
     <use x="302.294922" xlink:href="#DejaVuSans-74"/>
     <use x="341.503906" xlink:href="#DejaVuSans-61"/>
     <use x="402.783203" xlink:href="#DejaVuSans-6e"/>
     <use x="466.162109" xlink:href="#DejaVuSans-63"/>
     <use x="521.142578" xlink:href="#DejaVuSans-65"/>
     <use x="582.666016" xlink:href="#DejaVuSans-73"/>
    </g>
   </g>
   <g id="text_17">
    <!-- v2.6 -->
    <g style="fill:#808080;" transform="translate(198.292262 294.151352)scale(0.1 -0.1)">
     <use xlink:href="#DejaVuSans-76"/>
     <use x="59.179688" xlink:href="#DejaVuSans-32"/>
     <use x="122.802734" xlink:href="#DejaVuSans-2e"/>
     <use x="154.589844" xlink:href="#DejaVuSans-36"/>
    </g>
   </g>
   <g id="text_18">
    <!-- 1 Sphere -->
    <g transform="translate(164.436012 21.648)scale(0.2 -0.2)">
     <defs>
      <path d="M 3425 4513 
L 3425 3897 
Q 3066 4069 2747 4153 
Q 2428 4238 2131 4238 
Q 1616 4238 1336 4038 
Q 1056 3838 1056 3469 
Q 1056 3159 1242 3001 
Q 1428 2844 1947 2747 
L 2328 2669 
Q 3034 2534 3370 2195 
Q 3706 1856 3706 1288 
Q 3706 609 3251 259 
Q 2797 -91 1919 -91 
Q 1588 -91 1214 -16 
Q 841 59 441 206 
L 441 856 
Q 825 641 1194 531 
Q 1563 422 1919 422 
Q 2459 422 2753 634 
Q 3047 847 3047 1241 
Q 3047 1584 2836 1778 
Q 2625 1972 2144 2069 
L 1759 2144 
Q 1053 2284 737 2584 
Q 422 2884 422 3419 
Q 422 4038 858 4394 
Q 1294 4750 2059 4750 
Q 2388 4750 2728 4690 
Q 3069 4631 3425 4513 
z
" id="DejaVuSans-53" transform="scale(0.015625)"/>
      <path d="M 3513 2113 
L 3513 0 
L 2938 0 
L 2938 2094 
Q 2938 2591 2744 2837 
Q 2550 3084 2163 3084 
Q 1697 3084 1428 2787 
Q 1159 2491 1159 1978 
L 1159 0 
L 581 0 
L 581 4863 
L 1159 4863 
L 1159 2956 
Q 1366 3272 1645 3428 
Q 1925 3584 2291 3584 
Q 2894 3584 3203 3211 
Q 3513 2838 3513 2113 
z
" id="DejaVuSans-68" transform="scale(0.015625)"/>
     </defs>
     <use xlink:href="#DejaVuSans-31"/>
     <use x="63.623047" xlink:href="#DejaVuSans-20"/>
     <use x="95.410156" xlink:href="#DejaVuSans-53"/>
     <use x="158.886719" xlink:href="#DejaVuSans-70"/>
     <use x="222.363281" xlink:href="#DejaVuSans-68"/>
     <use x="285.742188" xlink:href="#DejaVuSans-65"/>
     <use x="347.265625" xlink:href="#DejaVuSans-72"/>
     <use x="386.128906" xlink:href="#DejaVuSans-65"/>
    </g>
   </g>
  </g>
 </g>
 <defs>
  <clipPath id="p654b8645b5">
   <rect height="271.296" width="303.2064" x="57.6" y="27.648"/>
  </clipPath>
 </defs>
</svg>
