<?xml version="1.0" encoding="utf-8" standalone="no"?>
<!DOCTYPE svg PUBLIC "-//W3C//DTD SVG 1.1//EN"
  "http://www.w3.org/Graphics/SVG/1.1/DTD/svg11.dtd">
<svg height="345.6pt" version="1.1" viewBox="0 0 460.8 345.6" width="460.8pt" xmlns="http://www.w3.org/2000/svg" xmlns:xlink="http://www.w3.org/1999/xlink">
 <metadata>
  <rdf:RDF xmlns:cc="http://creativecommons.org/ns#" xmlns:dc="http://purl.org/dc/elements/1.1/" xmlns:rdf="http://www.w3.org/1999/02/22-rdf-syntax-ns#">
   <cc:Work>
    <dc:type rdf:resource="http://purl.org/dc/dcmitype/StillImage"/>
    <dc:date>2022-05-07T15:07:47.425414</dc:date>
    <dc:format>image/svg+xml</dc:format>
    <dc:creator>
     <cc:Agent>
      <dc:title>Matplotlib v3.4.3, https://matplotlib.org/</dc:title>
     </cc:Agent>
    </dc:creator>
   </cc:Work>
  </rdf:RDF>
 </metadata>
 <defs>
  <style type="text/css">*{stroke-linecap:butt;stroke-linejoin:round;}</style>
 </defs>
 <g id="figure_1">
  <g id="patch_1">
   <path d="M 0 345.6 
L 460.8 345.6 
L 460.8 0 
L 0 0 
z
" style="fill:#ffffff;"/>
  </g>
  <g id="axes_1">
   <g id="patch_2">
    <path d="M 57.6 298.944 
L 360.8064 298.944 
L 360.8064 27.648 
L 57.6 27.648 
z
" style="fill:#ffffff;"/>
   </g>
   <g id="line2d_1">
    <path d="M 1.245626 298.944 
L 1.245626 288.304941 
L 21.912228 288.304941 
L 21.912228 282.985412 
L 52.188254 282.985412 
L 52.188254 277.665882 
L 71.556993 277.665882 
L 71.556993 272.346353 
L 82.464279 272.346353 
L 82.464279 267.026824 
L 90.505165 267.026824 
L 90.505165 261.707294 
L 97.18203 261.707294 
L 97.18203 256.387765 
L 100.244997 256.387765 
L 100.244997 251.068235 
L 102.62243 251.068235 
L 102.62243 245.748706 
L 104.266406 245.748706 
L 104.266406 240.429176 
L 105.411479 240.429176 
L 105.411479 235.109647 
L 106.350446 235.109647 
L 106.350446 229.790118 
L 107.109915 229.790118 
L 107.109915 224.470588 
L 108.034177 224.470588 
L 108.034177 219.151059 
L 108.791791 219.151059 
L 108.791791 213.831529 
L 109.990385 213.831529 
L 109.990385 208.512 
L 111.54963 208.512 
L 111.54963 203.192471 
L 113.235374 203.192471 
L 113.235374 197.872941 
L 114.601519 197.872941 
L 114.601519 192.553412 
L 116.211813 192.553412 
L 116.211813 187.233882 
L 118.11439 187.233882 
L 118.11439 181.914353 
L 121.265635 181.914353 
L 121.265635 176.594824 
L 124.238185 176.594824 
L 124.238185 171.275294 
L 127.040519 171.275294 
L 127.040519 165.955765 
L 129.86647 165.955765 
L 129.86647 160.636235 
L 133.086488 160.636235 
L 133.086488 155.316706 
L 134.112526 155.316706 
L 134.112526 149.997176 
L 134.901055 149.997176 
L 134.901055 144.677647 
L 135.731889 144.677647 
L 135.731889 139.358118 
L 136.570023 139.358118 
L 136.570023 134.038588 
L 137.345296 134.038588 
L 137.345296 128.719059 
L 138.245669 128.719059 
L 138.245669 123.399529 
L 139.178873 123.399529 
L 139.178873 118.08 
L 139.831781 118.08 
L 139.831781 112.760471 
L 140.58877 112.760471 
L 140.58877 107.440941 
L 141.55653 107.440941 
L 141.55653 102.121412 
L 157.339986 102.121412 
L 157.339986 96.801882 
L 178.00815 96.801882 
L 178.00815 91.482353 
L 179.279134 91.482353 
L 179.279134 86.162824 
L 179.957165 86.162824 
L 179.957165 80.843294 
L 180.634709 80.843294 
L 180.634709 75.523765 
L 181.191376 75.523765 
L 181.191376 70.204235 
L 181.778108 70.204235 
L 181.778108 64.884706 
L 182.392915 64.884706 
L 182.392915 59.565176 
L 182.945071 59.565176 
L 182.945071 54.245647 
L 183.444086 54.245647 
L 183.444086 48.926118 
L 184.043851 48.926118 
L 184.043851 43.606588 
L 184.466222 43.606588 
L 184.466222 38.287059 
L 184.950714 38.287059 
L 184.950714 32.967529 
L 185.427251 32.967529 
L 185.427251 27.648 
L 360.8064 27.648 
" style="fill:none;stroke:#f5deb3;stroke-linecap:square;stroke-width:4;"/>
   </g>
   <g id="line2d_2">
    <defs>
     <path d="M -0 7.778175 
L 7.778175 0 
L 0 -7.778175 
L -7.778175 -0 
z
" id="m5132b1eee3" style="stroke:#f5deb3;stroke-linejoin:miter;stroke-width:1.5;"/>
    </defs>
    <g>
     <use style="fill:#f5deb3;stroke:#f5deb3;stroke-linejoin:miter;stroke-width:1.5;" x="82.464279" xlink:href="#m5132b1eee3" y="272.346353"/>
     <use style="fill:#f5deb3;stroke:#f5deb3;stroke-linejoin:miter;stroke-width:1.5;" x="134.901055" xlink:href="#m5132b1eee3" y="144.677647"/>
     <use style="fill:#f5deb3;stroke:#f5deb3;stroke-linejoin:miter;stroke-width:1.5;" x="179.957165" xlink:href="#m5132b1eee3" y="80.843294"/>
     <use style="fill:#f5deb3;stroke:#f5deb3;stroke-linejoin:miter;stroke-width:1.5;" x="185.427251" xlink:href="#m5132b1eee3" y="27.648"/>
     <use style="fill:#f5deb3;stroke:#f5deb3;stroke-linejoin:miter;stroke-width:1.5;" x="185.427251" xlink:href="#m5132b1eee3" y="27.648"/>
     <use style="fill:#f5deb3;stroke:#f5deb3;stroke-linejoin:miter;stroke-width:1.5;" x="360.8064" xlink:href="#m5132b1eee3" y="27.648"/>
    </g>
   </g>
   <g id="line2d_3">
    <path style="fill:none;stroke:#f5deb3;stroke-linecap:square;stroke-width:4;"/>
    <g/>
   </g>
   <g id="line2d_4">
    <path d="M 360.8064 27.648 
L 380.514816 33.07392 
" style="fill:none;stroke:#f5deb3;stroke-linecap:square;stroke-width:4;"/>
    <g>
     <use style="fill:#f5deb3;stroke:#f5deb3;stroke-linejoin:miter;stroke-width:1.5;" x="360.8064" xlink:href="#m5132b1eee3" y="27.648"/>
     <use style="fill:#f5deb3;stroke:#f5deb3;stroke-linejoin:miter;stroke-width:1.5;" x="380.514816" xlink:href="#m5132b1eee3" y="33.07392"/>
    </g>
   </g>
   <g id="matplotlib.axis_1">
    <g id="xtick_1">
     <g id="line2d_5">
      <path clip-path="url(#pdd9d04265a)" d="M 57.6 298.944 
L 57.6 27.648 
" style="fill:none;stroke:#b0b0b0;stroke-linecap:square;stroke-width:0.8;"/>
     </g>
     <g id="line2d_6">
      <defs>
       <path d="M 0 0 
L 0 3.5 
" id="mcfeb606793" style="stroke:#000000;stroke-width:0.8;"/>
      </defs>
      <g>
       <use style="stroke:#000000;stroke-width:0.8;" x="57.6" xlink:href="#mcfeb606793" y="298.944"/>
      </g>
     </g>
     <g id="text_1">
      <!-- 0 -->
      <g transform="translate(52.191875 318.861344)scale(0.17 -0.17)">
       <defs>
        <path d="M 2034 4250 
Q 1547 4250 1301 3770 
Q 1056 3291 1056 2328 
Q 1056 1369 1301 889 
Q 1547 409 2034 409 
Q 2525 409 2770 889 
Q 3016 1369 3016 2328 
Q 3016 3291 2770 3770 
Q 2525 4250 2034 4250 
z
M 2034 4750 
Q 2819 4750 3233 4129 
Q 3647 3509 3647 2328 
Q 3647 1150 3233 529 
Q 2819 -91 2034 -91 
Q 1250 -91 836 529 
Q 422 1150 422 2328 
Q 422 3509 836 4129 
Q 1250 4750 2034 4750 
z
" id="DejaVuSans-30" transform="scale(0.015625)"/>
       </defs>
       <use xlink:href="#DejaVuSans-30"/>
      </g>
     </g>
    </g>
    <g id="xtick_2">
     <g id="line2d_7">
      <path clip-path="url(#pdd9d04265a)" d="M 144.2304 298.944 
L 144.2304 27.648 
" style="fill:none;stroke:#b0b0b0;stroke-linecap:square;stroke-width:0.8;"/>
     </g>
     <g id="line2d_8">
      <g>
       <use style="stroke:#000000;stroke-width:0.8;" x="144.2304" xlink:href="#mcfeb606793" y="298.944"/>
      </g>
     </g>
     <g id="text_2">
      <!-- 2 -->
      <g transform="translate(138.822275 318.861344)scale(0.17 -0.17)">
       <defs>
        <path d="M 1228 531 
L 3431 531 
L 3431 0 
L 469 0 
L 469 531 
Q 828 903 1448 1529 
Q 2069 2156 2228 2338 
Q 2531 2678 2651 2914 
Q 2772 3150 2772 3378 
Q 2772 3750 2511 3984 
Q 2250 4219 1831 4219 
Q 1534 4219 1204 4116 
Q 875 4013 500 3803 
L 500 4441 
Q 881 4594 1212 4672 
Q 1544 4750 1819 4750 
Q 2544 4750 2975 4387 
Q 3406 4025 3406 3419 
Q 3406 3131 3298 2873 
Q 3191 2616 2906 2266 
Q 2828 2175 2409 1742 
Q 1991 1309 1228 531 
z
" id="DejaVuSans-32" transform="scale(0.015625)"/>
       </defs>
       <use xlink:href="#DejaVuSans-32"/>
      </g>
     </g>
    </g>
    <g id="xtick_3">
     <g id="line2d_9">
      <path clip-path="url(#pdd9d04265a)" d="M 230.8608 298.944 
L 230.8608 27.648 
" style="fill:none;stroke:#b0b0b0;stroke-linecap:square;stroke-width:0.8;"/>
     </g>
     <g id="line2d_10">
      <g>
       <use style="stroke:#000000;stroke-width:0.8;" x="230.8608" xlink:href="#mcfeb606793" y="298.944"/>
      </g>
     </g>
     <g id="text_3">
      <!-- 4 -->
      <g transform="translate(225.452675 318.861344)scale(0.17 -0.17)">
       <defs>
        <path d="M 2419 4116 
L 825 1625 
L 2419 1625 
L 2419 4116 
z
M 2253 4666 
L 3047 4666 
L 3047 1625 
L 3713 1625 
L 3713 1100 
L 3047 1100 
L 3047 0 
L 2419 0 
L 2419 1100 
L 313 1100 
L 313 1709 
L 2253 4666 
z
" id="DejaVuSans-34" transform="scale(0.015625)"/>
       </defs>
       <use xlink:href="#DejaVuSans-34"/>
      </g>
     </g>
    </g>
    <g id="xtick_4">
     <g id="line2d_11">
      <path clip-path="url(#pdd9d04265a)" d="M 317.4912 298.944 
L 317.4912 27.648 
" style="fill:none;stroke:#b0b0b0;stroke-linecap:square;stroke-width:0.8;"/>
     </g>
     <g id="line2d_12">
      <g>
       <use style="stroke:#000000;stroke-width:0.8;" x="317.4912" xlink:href="#mcfeb606793" y="298.944"/>
      </g>
     </g>
     <g id="text_4">
      <!-- 6 -->
      <g transform="translate(312.083075 318.861344)scale(0.17 -0.17)">
       <defs>
        <path d="M 2113 2584 
Q 1688 2584 1439 2293 
Q 1191 2003 1191 1497 
Q 1191 994 1439 701 
Q 1688 409 2113 409 
Q 2538 409 2786 701 
Q 3034 994 3034 1497 
Q 3034 2003 2786 2293 
Q 2538 2584 2113 2584 
z
M 3366 4563 
L 3366 3988 
Q 3128 4100 2886 4159 
Q 2644 4219 2406 4219 
Q 1781 4219 1451 3797 
Q 1122 3375 1075 2522 
Q 1259 2794 1537 2939 
Q 1816 3084 2150 3084 
Q 2853 3084 3261 2657 
Q 3669 2231 3669 1497 
Q 3669 778 3244 343 
Q 2819 -91 2113 -91 
Q 1303 -91 875 529 
Q 447 1150 447 2328 
Q 447 3434 972 4092 
Q 1497 4750 2381 4750 
Q 2619 4750 2861 4703 
Q 3103 4656 3366 4563 
z
" id="DejaVuSans-36" transform="scale(0.015625)"/>
       </defs>
       <use xlink:href="#DejaVuSans-36"/>
      </g>
     </g>
    </g>
    <g id="xtick_5">
     <g id="line2d_13">
      <path clip-path="url(#pdd9d04265a)" d="M 100.9152 298.944 
L 100.9152 27.648 
" style="fill:none;stroke:#b0b0b0;stroke-linecap:square;stroke-width:0.8;"/>
     </g>
     <g id="line2d_14">
      <defs>
       <path d="M 0 0 
L 0 2 
" id="m08edbc93f6" style="stroke:#000000;stroke-width:0.6;"/>
      </defs>
      <g>
       <use style="stroke:#000000;stroke-width:0.6;" x="100.9152" xlink:href="#m08edbc93f6" y="298.944"/>
      </g>
     </g>
    </g>
    <g id="xtick_6">
     <g id="line2d_15">
      <path clip-path="url(#pdd9d04265a)" d="M 187.5456 298.944 
L 187.5456 27.648 
" style="fill:none;stroke:#b0b0b0;stroke-linecap:square;stroke-width:0.8;"/>
     </g>
     <g id="line2d_16">
      <g>
       <use style="stroke:#000000;stroke-width:0.6;" x="187.5456" xlink:href="#m08edbc93f6" y="298.944"/>
      </g>
     </g>
    </g>
    <g id="xtick_7">
     <g id="line2d_17">
      <path clip-path="url(#pdd9d04265a)" d="M 274.176 298.944 
L 274.176 27.648 
" style="fill:none;stroke:#b0b0b0;stroke-linecap:square;stroke-width:0.8;"/>
     </g>
     <g id="line2d_18">
      <g>
       <use style="stroke:#000000;stroke-width:0.6;" x="274.176" xlink:href="#m08edbc93f6" y="298.944"/>
      </g>
     </g>
    </g>
    <g id="xtick_8">
     <g id="line2d_19">
      <path clip-path="url(#pdd9d04265a)" d="M 360.8064 298.944 
L 360.8064 27.648 
" style="fill:none;stroke:#b0b0b0;stroke-linecap:square;stroke-width:0.8;"/>
     </g>
     <g id="line2d_20">
      <g>
       <use style="stroke:#000000;stroke-width:0.6;" x="360.8064" xlink:href="#m08edbc93f6" y="298.944"/>
      </g>
     </g>
    </g>
    <g id="text_5">
     <!-- log10(# f-evals / dimension) -->
     <g transform="translate(88.823278 339.314156)scale(0.17 -0.17)">
      <defs>
       <path d="M 603 4863 
L 1178 4863 
L 1178 0 
L 603 0 
L 603 4863 
z
" id="DejaVuSans-6c" transform="scale(0.015625)"/>
       <path d="M 1959 3097 
Q 1497 3097 1228 2736 
Q 959 2375 959 1747 
Q 959 1119 1226 758 
Q 1494 397 1959 397 
Q 2419 397 2687 759 
Q 2956 1122 2956 1747 
Q 2956 2369 2687 2733 
Q 2419 3097 1959 3097 
z
M 1959 3584 
Q 2709 3584 3137 3096 
Q 3566 2609 3566 1747 
Q 3566 888 3137 398 
Q 2709 -91 1959 -91 
Q 1206 -91 779 398 
Q 353 888 353 1747 
Q 353 2609 779 3096 
Q 1206 3584 1959 3584 
z
" id="DejaVuSans-6f" transform="scale(0.015625)"/>
       <path d="M 2906 1791 
Q 2906 2416 2648 2759 
Q 2391 3103 1925 3103 
Q 1463 3103 1205 2759 
Q 947 2416 947 1791 
Q 947 1169 1205 825 
Q 1463 481 1925 481 
Q 2391 481 2648 825 
Q 2906 1169 2906 1791 
z
M 3481 434 
Q 3481 -459 3084 -895 
Q 2688 -1331 1869 -1331 
Q 1566 -1331 1297 -1286 
Q 1028 -1241 775 -1147 
L 775 -588 
Q 1028 -725 1275 -790 
Q 1522 -856 1778 -856 
Q 2344 -856 2625 -561 
Q 2906 -266 2906 331 
L 2906 616 
Q 2728 306 2450 153 
Q 2172 0 1784 0 
Q 1141 0 747 490 
Q 353 981 353 1791 
Q 353 2603 747 3093 
Q 1141 3584 1784 3584 
Q 2172 3584 2450 3431 
Q 2728 3278 2906 2969 
L 2906 3500 
L 3481 3500 
L 3481 434 
z
" id="DejaVuSans-67" transform="scale(0.015625)"/>
       <path d="M 794 531 
L 1825 531 
L 1825 4091 
L 703 3866 
L 703 4441 
L 1819 4666 
L 2450 4666 
L 2450 531 
L 3481 531 
L 3481 0 
L 794 0 
L 794 531 
z
" id="DejaVuSans-31" transform="scale(0.015625)"/>
       <path d="M 1984 4856 
Q 1566 4138 1362 3434 
Q 1159 2731 1159 2009 
Q 1159 1288 1364 580 
Q 1569 -128 1984 -844 
L 1484 -844 
Q 1016 -109 783 600 
Q 550 1309 550 2009 
Q 550 2706 781 3412 
Q 1013 4119 1484 4856 
L 1984 4856 
z
" id="DejaVuSans-28" transform="scale(0.015625)"/>
       <path d="M 3272 2816 
L 2363 2816 
L 2100 1772 
L 3016 1772 
L 3272 2816 
z
M 2803 4594 
L 2478 3297 
L 3391 3297 
L 3719 4594 
L 4219 4594 
L 3897 3297 
L 4872 3297 
L 4872 2816 
L 3775 2816 
L 3519 1772 
L 4513 1772 
L 4513 1294 
L 3397 1294 
L 3072 0 
L 2572 0 
L 2894 1294 
L 1978 1294 
L 1656 0 
L 1153 0 
L 1478 1294 
L 494 1294 
L 494 1772 
L 1594 1772 
L 1856 2816 
L 850 2816 
L 850 3297 
L 1978 3297 
L 2297 4594 
L 2803 4594 
z
" id="DejaVuSans-23" transform="scale(0.015625)"/>
       <path id="DejaVuSans-20" transform="scale(0.015625)"/>
       <path d="M 2375 4863 
L 2375 4384 
L 1825 4384 
Q 1516 4384 1395 4259 
Q 1275 4134 1275 3809 
L 1275 3500 
L 2222 3500 
L 2222 3053 
L 1275 3053 
L 1275 0 
L 697 0 
L 697 3053 
L 147 3053 
L 147 3500 
L 697 3500 
L 697 3744 
Q 697 4328 969 4595 
Q 1241 4863 1831 4863 
L 2375 4863 
z
" id="DejaVuSans-66" transform="scale(0.015625)"/>
       <path d="M 313 2009 
L 1997 2009 
L 1997 1497 
L 313 1497 
L 313 2009 
z
" id="DejaVuSans-2d" transform="scale(0.015625)"/>
       <path d="M 3597 1894 
L 3597 1613 
L 953 1613 
Q 991 1019 1311 708 
Q 1631 397 2203 397 
Q 2534 397 2845 478 
Q 3156 559 3463 722 
L 3463 178 
Q 3153 47 2828 -22 
Q 2503 -91 2169 -91 
Q 1331 -91 842 396 
Q 353 884 353 1716 
Q 353 2575 817 3079 
Q 1281 3584 2069 3584 
Q 2775 3584 3186 3129 
Q 3597 2675 3597 1894 
z
M 3022 2063 
Q 3016 2534 2758 2815 
Q 2500 3097 2075 3097 
Q 1594 3097 1305 2825 
Q 1016 2553 972 2059 
L 3022 2063 
z
" id="DejaVuSans-65" transform="scale(0.015625)"/>
       <path d="M 191 3500 
L 800 3500 
L 1894 563 
L 2988 3500 
L 3597 3500 
L 2284 0 
L 1503 0 
L 191 3500 
z
" id="DejaVuSans-76" transform="scale(0.015625)"/>
       <path d="M 2194 1759 
Q 1497 1759 1228 1600 
Q 959 1441 959 1056 
Q 959 750 1161 570 
Q 1363 391 1709 391 
Q 2188 391 2477 730 
Q 2766 1069 2766 1631 
L 2766 1759 
L 2194 1759 
z
M 3341 1997 
L 3341 0 
L 2766 0 
L 2766 531 
Q 2569 213 2275 61 
Q 1981 -91 1556 -91 
Q 1019 -91 701 211 
Q 384 513 384 1019 
Q 384 1609 779 1909 
Q 1175 2209 1959 2209 
L 2766 2209 
L 2766 2266 
Q 2766 2663 2505 2880 
Q 2244 3097 1772 3097 
Q 1472 3097 1187 3025 
Q 903 2953 641 2809 
L 641 3341 
Q 956 3463 1253 3523 
Q 1550 3584 1831 3584 
Q 2591 3584 2966 3190 
Q 3341 2797 3341 1997 
z
" id="DejaVuSans-61" transform="scale(0.015625)"/>
       <path d="M 2834 3397 
L 2834 2853 
Q 2591 2978 2328 3040 
Q 2066 3103 1784 3103 
Q 1356 3103 1142 2972 
Q 928 2841 928 2578 
Q 928 2378 1081 2264 
Q 1234 2150 1697 2047 
L 1894 2003 
Q 2506 1872 2764 1633 
Q 3022 1394 3022 966 
Q 3022 478 2636 193 
Q 2250 -91 1575 -91 
Q 1294 -91 989 -36 
Q 684 19 347 128 
L 347 722 
Q 666 556 975 473 
Q 1284 391 1588 391 
Q 1994 391 2212 530 
Q 2431 669 2431 922 
Q 2431 1156 2273 1281 
Q 2116 1406 1581 1522 
L 1381 1569 
Q 847 1681 609 1914 
Q 372 2147 372 2553 
Q 372 3047 722 3315 
Q 1072 3584 1716 3584 
Q 2034 3584 2315 3537 
Q 2597 3491 2834 3397 
z
" id="DejaVuSans-73" transform="scale(0.015625)"/>
       <path d="M 1625 4666 
L 2156 4666 
L 531 -594 
L 0 -594 
L 1625 4666 
z
" id="DejaVuSans-2f" transform="scale(0.015625)"/>
       <path d="M 2906 2969 
L 2906 4863 
L 3481 4863 
L 3481 0 
L 2906 0 
L 2906 525 
Q 2725 213 2448 61 
Q 2172 -91 1784 -91 
Q 1150 -91 751 415 
Q 353 922 353 1747 
Q 353 2572 751 3078 
Q 1150 3584 1784 3584 
Q 2172 3584 2448 3432 
Q 2725 3281 2906 2969 
z
M 947 1747 
Q 947 1113 1208 752 
Q 1469 391 1925 391 
Q 2381 391 2643 752 
Q 2906 1113 2906 1747 
Q 2906 2381 2643 2742 
Q 2381 3103 1925 3103 
Q 1469 3103 1208 2742 
Q 947 2381 947 1747 
z
" id="DejaVuSans-64" transform="scale(0.015625)"/>
       <path d="M 603 3500 
L 1178 3500 
L 1178 0 
L 603 0 
L 603 3500 
z
M 603 4863 
L 1178 4863 
L 1178 4134 
L 603 4134 
L 603 4863 
z
" id="DejaVuSans-69" transform="scale(0.015625)"/>
       <path d="M 3328 2828 
Q 3544 3216 3844 3400 
Q 4144 3584 4550 3584 
Q 5097 3584 5394 3201 
Q 5691 2819 5691 2113 
L 5691 0 
L 5113 0 
L 5113 2094 
Q 5113 2597 4934 2840 
Q 4756 3084 4391 3084 
Q 3944 3084 3684 2787 
Q 3425 2491 3425 1978 
L 3425 0 
L 2847 0 
L 2847 2094 
Q 2847 2600 2669 2842 
Q 2491 3084 2119 3084 
Q 1678 3084 1418 2786 
Q 1159 2488 1159 1978 
L 1159 0 
L 581 0 
L 581 3500 
L 1159 3500 
L 1159 2956 
Q 1356 3278 1631 3431 
Q 1906 3584 2284 3584 
Q 2666 3584 2933 3390 
Q 3200 3197 3328 2828 
z
" id="DejaVuSans-6d" transform="scale(0.015625)"/>
       <path d="M 3513 2113 
L 3513 0 
L 2938 0 
L 2938 2094 
Q 2938 2591 2744 2837 
Q 2550 3084 2163 3084 
Q 1697 3084 1428 2787 
Q 1159 2491 1159 1978 
L 1159 0 
L 581 0 
L 581 3500 
L 1159 3500 
L 1159 2956 
Q 1366 3272 1645 3428 
Q 1925 3584 2291 3584 
Q 2894 3584 3203 3211 
Q 3513 2838 3513 2113 
z
" id="DejaVuSans-6e" transform="scale(0.015625)"/>
       <path d="M 513 4856 
L 1013 4856 
Q 1481 4119 1714 3412 
Q 1947 2706 1947 2009 
Q 1947 1309 1714 600 
Q 1481 -109 1013 -844 
L 513 -844 
Q 928 -128 1133 580 
Q 1338 1288 1338 2009 
Q 1338 2731 1133 3434 
Q 928 4138 513 4856 
z
" id="DejaVuSans-29" transform="scale(0.015625)"/>
      </defs>
      <use xlink:href="#DejaVuSans-6c"/>
      <use x="27.783203" xlink:href="#DejaVuSans-6f"/>
      <use x="88.964844" xlink:href="#DejaVuSans-67"/>
      <use x="152.441406" xlink:href="#DejaVuSans-31"/>
      <use x="216.064453" xlink:href="#DejaVuSans-30"/>
      <use x="279.6875" xlink:href="#DejaVuSans-28"/>
      <use x="318.701172" xlink:href="#DejaVuSans-23"/>
      <use x="402.490234" xlink:href="#DejaVuSans-20"/>
      <use x="434.277344" xlink:href="#DejaVuSans-66"/>
      <use x="463.982422" xlink:href="#DejaVuSans-2d"/>
      <use x="500.066406" xlink:href="#DejaVuSans-65"/>
      <use x="561.589844" xlink:href="#DejaVuSans-76"/>
      <use x="620.769531" xlink:href="#DejaVuSans-61"/>
      <use x="682.048828" xlink:href="#DejaVuSans-6c"/>
      <use x="709.832031" xlink:href="#DejaVuSans-73"/>
      <use x="761.931641" xlink:href="#DejaVuSans-20"/>
      <use x="793.71875" xlink:href="#DejaVuSans-2f"/>
      <use x="827.410156" xlink:href="#DejaVuSans-20"/>
      <use x="859.197266" xlink:href="#DejaVuSans-64"/>
      <use x="922.673828" xlink:href="#DejaVuSans-69"/>
      <use x="950.457031" xlink:href="#DejaVuSans-6d"/>
      <use x="1047.869141" xlink:href="#DejaVuSans-65"/>
      <use x="1109.392578" xlink:href="#DejaVuSans-6e"/>
      <use x="1172.771484" xlink:href="#DejaVuSans-73"/>
      <use x="1224.871094" xlink:href="#DejaVuSans-69"/>
      <use x="1252.654297" xlink:href="#DejaVuSans-6f"/>
      <use x="1313.835938" xlink:href="#DejaVuSans-6e"/>
      <use x="1377.214844" xlink:href="#DejaVuSans-29"/>
     </g>
    </g>
   </g>
   <g id="matplotlib.axis_2">
    <g id="ytick_1">
     <g id="line2d_21">
      <path clip-path="url(#pdd9d04265a)" d="M 57.6 298.944 
L 360.8064 298.944 
" style="fill:none;stroke:#b0b0b0;stroke-linecap:square;stroke-width:0.8;"/>
     </g>
     <g id="line2d_22">
      <defs>
       <path d="M 0 0 
L -3.5 0 
" id="mca2d83f0be" style="stroke:#000000;stroke-width:0.8;"/>
      </defs>
      <g>
       <use style="stroke:#000000;stroke-width:0.8;" x="57.6" xlink:href="#mca2d83f0be" y="298.944"/>
      </g>
     </g>
     <g id="text_6">
      <!-- 0.0 -->
      <g transform="translate(25.155 305.02275)scale(0.16 -0.16)">
       <defs>
        <path d="M 684 794 
L 1344 794 
L 1344 0 
L 684 0 
L 684 794 
z
" id="DejaVuSans-2e" transform="scale(0.015625)"/>
       </defs>
       <use xlink:href="#DejaVuSans-30"/>
       <use x="63.623047" xlink:href="#DejaVuSans-2e"/>
       <use x="95.410156" xlink:href="#DejaVuSans-30"/>
      </g>
     </g>
    </g>
    <g id="ytick_2">
     <g id="line2d_23">
      <path clip-path="url(#pdd9d04265a)" d="M 57.6 244.6848 
L 360.8064 244.6848 
" style="fill:none;stroke:#b0b0b0;stroke-linecap:square;stroke-width:0.8;"/>
     </g>
     <g id="line2d_24">
      <g>
       <use style="stroke:#000000;stroke-width:0.8;" x="57.6" xlink:href="#mca2d83f0be" y="244.6848"/>
      </g>
     </g>
     <g id="text_7">
      <!-- 0.2 -->
      <g transform="translate(25.155 250.76355)scale(0.16 -0.16)">
       <use xlink:href="#DejaVuSans-30"/>
       <use x="63.623047" xlink:href="#DejaVuSans-2e"/>
       <use x="95.410156" xlink:href="#DejaVuSans-32"/>
      </g>
     </g>
    </g>
    <g id="ytick_3">
     <g id="line2d_25">
      <path clip-path="url(#pdd9d04265a)" d="M 57.6 190.4256 
L 360.8064 190.4256 
" style="fill:none;stroke:#b0b0b0;stroke-linecap:square;stroke-width:0.8;"/>
     </g>
     <g id="line2d_26">
      <g>
       <use style="stroke:#000000;stroke-width:0.8;" x="57.6" xlink:href="#mca2d83f0be" y="190.4256"/>
      </g>
     </g>
     <g id="text_8">
      <!-- 0.4 -->
      <g transform="translate(25.155 196.50435)scale(0.16 -0.16)">
       <use xlink:href="#DejaVuSans-30"/>
       <use x="63.623047" xlink:href="#DejaVuSans-2e"/>
       <use x="95.410156" xlink:href="#DejaVuSans-34"/>
      </g>
     </g>
    </g>
    <g id="ytick_4">
     <g id="line2d_27">
      <path clip-path="url(#pdd9d04265a)" d="M 57.6 136.1664 
L 360.8064 136.1664 
" style="fill:none;stroke:#b0b0b0;stroke-linecap:square;stroke-width:0.8;"/>
     </g>
     <g id="line2d_28">
      <g>
       <use style="stroke:#000000;stroke-width:0.8;" x="57.6" xlink:href="#mca2d83f0be" y="136.1664"/>
      </g>
     </g>
     <g id="text_9">
      <!-- 0.6 -->
      <g transform="translate(25.155 142.24515)scale(0.16 -0.16)">
       <use xlink:href="#DejaVuSans-30"/>
       <use x="63.623047" xlink:href="#DejaVuSans-2e"/>
       <use x="95.410156" xlink:href="#DejaVuSans-36"/>
      </g>
     </g>
    </g>
    <g id="ytick_5">
     <g id="line2d_29">
      <path clip-path="url(#pdd9d04265a)" d="M 57.6 81.9072 
L 360.8064 81.9072 
" style="fill:none;stroke:#b0b0b0;stroke-linecap:square;stroke-width:0.8;"/>
     </g>
     <g id="line2d_30">
      <g>
       <use style="stroke:#000000;stroke-width:0.8;" x="57.6" xlink:href="#mca2d83f0be" y="81.9072"/>
      </g>
     </g>
     <g id="text_10">
      <!-- 0.8 -->
      <g transform="translate(25.155 87.98595)scale(0.16 -0.16)">
       <defs>
        <path d="M 2034 2216 
Q 1584 2216 1326 1975 
Q 1069 1734 1069 1313 
Q 1069 891 1326 650 
Q 1584 409 2034 409 
Q 2484 409 2743 651 
Q 3003 894 3003 1313 
Q 3003 1734 2745 1975 
Q 2488 2216 2034 2216 
z
M 1403 2484 
Q 997 2584 770 2862 
Q 544 3141 544 3541 
Q 544 4100 942 4425 
Q 1341 4750 2034 4750 
Q 2731 4750 3128 4425 
Q 3525 4100 3525 3541 
Q 3525 3141 3298 2862 
Q 3072 2584 2669 2484 
Q 3125 2378 3379 2068 
Q 3634 1759 3634 1313 
Q 3634 634 3220 271 
Q 2806 -91 2034 -91 
Q 1263 -91 848 271 
Q 434 634 434 1313 
Q 434 1759 690 2068 
Q 947 2378 1403 2484 
z
M 1172 3481 
Q 1172 3119 1398 2916 
Q 1625 2713 2034 2713 
Q 2441 2713 2670 2916 
Q 2900 3119 2900 3481 
Q 2900 3844 2670 4047 
Q 2441 4250 2034 4250 
Q 1625 4250 1398 4047 
Q 1172 3844 1172 3481 
z
" id="DejaVuSans-38" transform="scale(0.015625)"/>
       </defs>
       <use xlink:href="#DejaVuSans-30"/>
       <use x="63.623047" xlink:href="#DejaVuSans-2e"/>
       <use x="95.410156" xlink:href="#DejaVuSans-38"/>
      </g>
     </g>
    </g>
    <g id="ytick_6">
     <g id="line2d_31">
      <path clip-path="url(#pdd9d04265a)" d="M 57.6 27.648 
L 360.8064 27.648 
" style="fill:none;stroke:#b0b0b0;stroke-linecap:square;stroke-width:0.8;"/>
     </g>
     <g id="line2d_32">
      <g>
       <use style="stroke:#000000;stroke-width:0.8;" x="57.6" xlink:href="#mca2d83f0be" y="27.648"/>
      </g>
     </g>
     <g id="text_11">
      <!-- 1.0 -->
      <g transform="translate(25.155 33.72675)scale(0.16 -0.16)">
       <use xlink:href="#DejaVuSans-31"/>
       <use x="63.623047" xlink:href="#DejaVuSans-2e"/>
       <use x="95.410156" xlink:href="#DejaVuSans-30"/>
      </g>
     </g>
    </g>
    <g id="text_12">
     <!-- Fraction of function,target pairs -->
     <g transform="translate(17.619531 297.681)rotate(-90)scale(0.17 -0.17)">
      <defs>
       <path d="M 628 4666 
L 3309 4666 
L 3309 4134 
L 1259 4134 
L 1259 2759 
L 3109 2759 
L 3109 2228 
L 1259 2228 
L 1259 0 
L 628 0 
L 628 4666 
z
" id="DejaVuSans-46" transform="scale(0.015625)"/>
       <path d="M 2631 2963 
Q 2534 3019 2420 3045 
Q 2306 3072 2169 3072 
Q 1681 3072 1420 2755 
Q 1159 2438 1159 1844 
L 1159 0 
L 581 0 
L 581 3500 
L 1159 3500 
L 1159 2956 
Q 1341 3275 1631 3429 
Q 1922 3584 2338 3584 
Q 2397 3584 2469 3576 
Q 2541 3569 2628 3553 
L 2631 2963 
z
" id="DejaVuSans-72" transform="scale(0.015625)"/>
       <path d="M 3122 3366 
L 3122 2828 
Q 2878 2963 2633 3030 
Q 2388 3097 2138 3097 
Q 1578 3097 1268 2742 
Q 959 2388 959 1747 
Q 959 1106 1268 751 
Q 1578 397 2138 397 
Q 2388 397 2633 464 
Q 2878 531 3122 666 
L 3122 134 
Q 2881 22 2623 -34 
Q 2366 -91 2075 -91 
Q 1284 -91 818 406 
Q 353 903 353 1747 
Q 353 2603 823 3093 
Q 1294 3584 2113 3584 
Q 2378 3584 2631 3529 
Q 2884 3475 3122 3366 
z
" id="DejaVuSans-63" transform="scale(0.015625)"/>
       <path d="M 1172 4494 
L 1172 3500 
L 2356 3500 
L 2356 3053 
L 1172 3053 
L 1172 1153 
Q 1172 725 1289 603 
Q 1406 481 1766 481 
L 2356 481 
L 2356 0 
L 1766 0 
Q 1100 0 847 248 
Q 594 497 594 1153 
L 594 3053 
L 172 3053 
L 172 3500 
L 594 3500 
L 594 4494 
L 1172 4494 
z
" id="DejaVuSans-74" transform="scale(0.015625)"/>
       <path d="M 544 1381 
L 544 3500 
L 1119 3500 
L 1119 1403 
Q 1119 906 1312 657 
Q 1506 409 1894 409 
Q 2359 409 2629 706 
Q 2900 1003 2900 1516 
L 2900 3500 
L 3475 3500 
L 3475 0 
L 2900 0 
L 2900 538 
Q 2691 219 2414 64 
Q 2138 -91 1772 -91 
Q 1169 -91 856 284 
Q 544 659 544 1381 
z
M 1991 3584 
L 1991 3584 
z
" id="DejaVuSans-75" transform="scale(0.015625)"/>
       <path d="M 750 794 
L 1409 794 
L 1409 256 
L 897 -744 
L 494 -744 
L 750 256 
L 750 794 
z
" id="DejaVuSans-2c" transform="scale(0.015625)"/>
       <path d="M 1159 525 
L 1159 -1331 
L 581 -1331 
L 581 3500 
L 1159 3500 
L 1159 2969 
Q 1341 3281 1617 3432 
Q 1894 3584 2278 3584 
Q 2916 3584 3314 3078 
Q 3713 2572 3713 1747 
Q 3713 922 3314 415 
Q 2916 -91 2278 -91 
Q 1894 -91 1617 61 
Q 1341 213 1159 525 
z
M 3116 1747 
Q 3116 2381 2855 2742 
Q 2594 3103 2138 3103 
Q 1681 3103 1420 2742 
Q 1159 2381 1159 1747 
Q 1159 1113 1420 752 
Q 1681 391 2138 391 
Q 2594 391 2855 752 
Q 3116 1113 3116 1747 
z
" id="DejaVuSans-70" transform="scale(0.015625)"/>
      </defs>
      <use xlink:href="#DejaVuSans-46"/>
      <use x="50.269531" xlink:href="#DejaVuSans-72"/>
      <use x="91.382812" xlink:href="#DejaVuSans-61"/>
      <use x="152.662109" xlink:href="#DejaVuSans-63"/>
      <use x="207.642578" xlink:href="#DejaVuSans-74"/>
      <use x="246.851562" xlink:href="#DejaVuSans-69"/>
      <use x="274.634766" xlink:href="#DejaVuSans-6f"/>
      <use x="335.816406" xlink:href="#DejaVuSans-6e"/>
      <use x="399.195312" xlink:href="#DejaVuSans-20"/>
      <use x="430.982422" xlink:href="#DejaVuSans-6f"/>
      <use x="492.164062" xlink:href="#DejaVuSans-66"/>
      <use x="527.369141" xlink:href="#DejaVuSans-20"/>
      <use x="559.15625" xlink:href="#DejaVuSans-66"/>
      <use x="594.361328" xlink:href="#DejaVuSans-75"/>
      <use x="657.740234" xlink:href="#DejaVuSans-6e"/>
      <use x="721.119141" xlink:href="#DejaVuSans-63"/>
      <use x="776.099609" xlink:href="#DejaVuSans-74"/>
      <use x="815.308594" xlink:href="#DejaVuSans-69"/>
      <use x="843.091797" xlink:href="#DejaVuSans-6f"/>
      <use x="904.273438" xlink:href="#DejaVuSans-6e"/>
      <use x="967.652344" xlink:href="#DejaVuSans-2c"/>
      <use x="999.439453" xlink:href="#DejaVuSans-74"/>
      <use x="1038.648438" xlink:href="#DejaVuSans-61"/>
      <use x="1099.927734" xlink:href="#DejaVuSans-72"/>
      <use x="1139.291016" xlink:href="#DejaVuSans-67"/>
      <use x="1202.767578" xlink:href="#DejaVuSans-65"/>
      <use x="1264.291016" xlink:href="#DejaVuSans-74"/>
      <use x="1303.5" xlink:href="#DejaVuSans-20"/>
      <use x="1335.287109" xlink:href="#DejaVuSans-70"/>
      <use x="1398.763672" xlink:href="#DejaVuSans-61"/>
      <use x="1460.042969" xlink:href="#DejaVuSans-69"/>
      <use x="1487.826172" xlink:href="#DejaVuSans-72"/>
      <use x="1528.939453" xlink:href="#DejaVuSans-73"/>
     </g>
    </g>
   </g>
   <g id="line2d_33">
    <defs>
     <path d="M 0 1.5 
C 0.397805 1.5 0.77937 1.341951 1.06066 1.06066 
C 1.341951 0.77937 1.5 0.397805 1.5 0 
C 1.5 -0.397805 1.341951 -0.77937 1.06066 -1.06066 
C 0.77937 -1.341951 0.397805 -1.5 0 -1.5 
C -0.397805 -1.5 -0.77937 -1.341951 -1.06066 -1.06066 
C -1.341951 -0.77937 -1.5 -0.397805 -1.5 0 
C -1.5 0.397805 -1.341951 0.77937 -1.06066 1.06066 
C -0.77937 1.341951 -0.397805 1.5 0 1.5 
z
" id="m0010e6a484" style="stroke:#f5deb3;"/>
    </defs>
    <g>
     <use style="fill:#f5deb3;stroke:#f5deb3;" x="185.427251" xlink:href="#m0010e6a484" y="27.648"/>
     <use style="fill:#f5deb3;stroke:#f5deb3;" x="185.427251" xlink:href="#m0010e6a484" y="27.648"/>
    </g>
   </g>
   <g id="line2d_34">
    <defs>
     <path d="M 0 1.5 
C 0.397805 1.5 0.77937 1.341951 1.06066 1.06066 
C 1.341951 0.77937 1.5 0.397805 1.5 0 
C 1.5 -0.397805 1.341951 -0.77937 1.06066 -1.06066 
C 0.77937 -1.341951 0.397805 -1.5 0 -1.5 
C -0.397805 -1.5 -0.77937 -1.341951 -1.06066 -1.06066 
C -1.341951 -0.77937 -1.5 -0.397805 -1.5 0 
C -1.5 0.397805 -1.341951 0.77937 -1.06066 1.06066 
C -0.77937 1.341951 -0.397805 1.5 0 1.5 
z
" id="me018471d63" style="stroke:#000080;"/>
    </defs>
    <g>
     <use style="fill:#000080;stroke:#000080;" x="263.779357" xlink:href="#me018471d63" y="176.594824"/>
     <use style="fill:#000080;stroke:#000080;" x="263.779357" xlink:href="#me018471d63" y="176.594824"/>
    </g>
   </g>
   <g id="line2d_35">
    <path d="M 1.245626 298.944 
L 1.245626 297.525459 
L 14.2848 297.525459 
L 14.2848 295.397647 
L 21.912228 295.397647 
L 21.912228 293.624471 
L 31.521651 293.624471 
L 31.521651 292.9152 
L 37.851216 292.9152 
L 37.851216 292.560565 
L 40.363149 292.560565 
L 40.363149 292.205929 
L 42.578831 292.205929 
L 42.578831 291.851294 
L 44.560826 291.851294 
L 44.560826 291.142024 
L 49.496305 291.142024 
L 49.496305 290.078118 
L 53.402323 290.078118 
L 53.402323 289.723482 
L 55.618005 289.723482 
L 55.618005 289.368847 
L 60.229139 289.368847 
L 60.229139 289.014212 
L 78.577544 289.014212 
L 78.577544 288.304941 
L 80.895742 288.304941 
L 80.895742 287.595671 
L 88.793844 287.595671 
L 88.793844 287.241035 
L 99.448622 287.241035 
L 99.448622 286.8864 
L 100.438933 286.8864 
L 100.438933 286.531765 
L 101.379706 286.531765 
L 101.379706 286.177129 
L 103.297357 286.177129 
L 103.297357 285.822494 
L 103.948904 285.822494 
L 103.948904 285.467859 
L 106.350446 285.467859 
L 106.350446 285.113224 
L 106.490831 285.113224 
L 106.490831 284.758588 
L 107.839908 284.758588 
L 107.839908 284.403953 
L 108.479818 284.403953 
L 108.479818 284.049318 
L 110.952388 284.049318 
L 111.062397 283.340047 
L 112.639708 283.340047 
L 112.639708 282.985412 
L 113.038907 282.985412 
L 113.038907 282.630776 
L 113.52628 282.630776 
L 113.52628 282.276141 
L 113.717748 282.276141 
L 113.717748 281.921506 
L 114.280729 281.921506 
L 114.280729 281.566871 
L 117.107771 281.566871 
L 117.107771 281.212235 
L 118.339232 281.212235 
L 118.339232 280.8576 
L 118.487648 280.8576 
L 118.487648 280.502965 
L 119.212653 280.502965 
L 119.28364 279.793694 
L 121.923558 279.793694 
L 121.923558 279.084424 
L 123.116449 279.084424 
L 123.116449 278.375153 
L 123.629523 278.375153 
L 123.685677 277.311247 
L 127.157434 277.311247 
L 127.157434 276.956612 
L 129.437756 276.956612 
L 129.437756 276.601976 
L 129.561246 276.601976 
L 129.643124 275.892706 
L 130.24611 275.892706 
L 130.24611 275.183435 
L 131.4342 275.183435 
L 131.4342 274.8288 
L 132.760515 274.8288 
L 132.760515 274.474165 
L 134.320744 274.474165 
L 134.320744 274.119529 
L 134.97812 274.119529 
L 134.97812 273.764894 
L 135.55372 273.764894 
L 135.55372 273.410259 
L 136.025138 273.410259 
L 136.025138 273.055624 
L 138.219793 273.055624 
L 138.219793 272.700988 
L 138.451402 272.700988 
L 138.502486 271.991718 
L 139.399036 271.991718 
L 139.399036 271.637082 
L 140.20826 271.637082 
L 140.20826 271.282447 
L 140.34752 271.282447 
L 140.34752 270.927812 
L 140.961736 270.927812 
L 140.961736 270.573176 
L 141.578203 270.573176 
L 141.578203 270.218541 
L 141.857694 270.218541 
L 141.857694 269.863906 
L 142.549065 269.863906 
L 142.549065 269.509271 
L 142.875344 269.509271 
L 142.875344 269.154635 
L 143.433059 269.154635 
L 143.433059 268.8 
L 144.704081 268.8 
L 144.722415 268.090729 
L 145.476774 268.090729 
L 145.476774 267.736094 
L 146.537825 267.736094 
L 146.637401 266.672188 
L 146.670477 266.672188 
L 146.670477 266.317553 
L 147.510634 266.317553 
L 147.510634 265.962918 
L 147.683651 265.962918 
L 147.683651 265.608282 
L 148.254209 265.608282 
L 148.254209 265.253647 
L 148.763673 265.253647 
L 148.763673 264.899012 
L 148.954879 264.899012 
L 148.998729 264.189741 
L 149.388844 264.189741 
L 149.388844 263.835106 
L 149.910637 263.835106 
L 149.993905 263.125835 
L 150.323339 263.125835 
L 150.323339 262.7712 
L 150.660472 262.7712 
L 150.753797 262.061929 
L 151.174625 262.061929 
L 151.174625 261.707294 
L 151.304226 261.707294 
L 151.304226 261.352659 
L 151.420109 261.352659 
L 151.420109 260.998024 
L 151.548036 260.998024 
L 151.548036 260.643388 
L 151.738309 260.643388 
L 151.738309 260.288753 
L 151.901671 260.288753 
L 151.901671 259.934118 
L 152.297848 259.934118 
L 152.346789 259.224847 
L 152.541288 259.224847 
L 152.541288 258.870212 
L 153.264899 258.870212 
L 153.299778 258.160941 
L 153.758759 258.160941 
L 153.758759 257.806306 
L 154.306165 257.806306 
L 154.361137 257.097035 
L 154.459684 257.097035 
L 154.481514 256.387765 
L 154.644432 256.387765 
L 154.644432 256.033129 
L 155.019177 256.033129 
L 155.019177 255.678494 
L 155.167009 255.678494 
L 155.167009 255.323859 
L 155.33455 255.323859 
L 155.407382 254.259953 
L 155.593381 254.259953 
L 155.593381 253.905318 
L 155.980108 253.905318 
L 156.030406 252.841412 
L 156.100598 252.841412 
L 156.100598 252.486776 
L 156.730497 252.486776 
L 156.730497 252.132141 
L 156.990037 252.132141 
L 157.066255 251.068235 
L 157.293074 251.068235 
L 157.349354 250.358965 
L 157.65592 250.358965 
L 157.738668 249.295059 
L 157.830187 249.295059 
L 157.939424 248.231153 
L 158.048031 248.231153 
L 158.120089 247.521882 
L 158.414443 247.521882 
L 158.476295 246.812612 
L 158.55552 246.812612 
L 158.57308 245.748706 
L 158.686825 245.748706 
L 158.686825 245.394071 
L 158.851839 245.394071 
L 158.938111 244.6848 
L 159.143564 244.6848 
L 159.143564 244.330165 
L 159.338372 244.330165 
L 159.338372 243.975529 
L 159.455971 243.975529 
L 159.539522 242.911624 
L 159.614403 242.911624 
L 159.697255 241.847718 
L 159.870065 241.847718 
L 159.870065 241.493082 
L 159.992537 241.493082 
L 159.992537 241.138447 
L 160.114216 241.138447 
L 160.154602 240.429176 
L 160.2592 240.429176 
L 160.2592 240.074541 
L 160.442846 240.074541 
L 160.442846 239.719906 
L 160.874863 239.719906 
L 160.898144 238.656 
L 161.091045 238.656 
L 161.091045 238.301365 
L 161.22872 238.301365 
L 161.236339 237.592094 
L 161.403183 237.592094 
L 161.403183 237.237459 
L 161.613412 237.237459 
L 161.687928 236.173553 
L 162.04885 236.173553 
L 162.04885 235.464282 
L 162.186957 235.464282 
L 162.25924 234.400376 
L 162.302476 234.400376 
L 162.302476 234.045741 
L 162.467302 234.045741 
L 162.467302 233.691106 
L 162.687199 233.691106 
L 162.687199 233.336471 
L 162.911524 233.336471 
L 162.911524 232.981835 
L 163.036541 232.981835 
L 163.071121 232.272565 
L 163.18822 232.272565 
L 163.222523 231.208659 
L 163.359111 231.208659 
L 163.359111 230.499388 
L 163.541946 230.499388 
L 163.541946 230.144753 
L 163.696305 230.144753 
L 163.796296 229.080847 
L 164.197537 229.080847 
L 164.197537 228.726212 
L 164.552117 228.726212 
L 164.622238 228.016941 
L 164.862483 228.016941 
L 164.875043 227.307671 
L 165.006418 227.307671 
L 165.087288 226.243765 
L 165.173991 226.243765 
L 165.173991 225.889129 
L 165.321703 225.889129 
L 165.401231 224.825224 
L 165.510796 224.825224 
L 165.510796 224.115953 
L 165.841676 224.115953 
L 165.871469 223.052047 
L 166.013824 223.052047 
L 166.061038 221.988141 
L 166.266214 221.988141 
L 166.266214 221.633506 
L 166.388254 221.633506 
L 166.469177 220.924235 
L 166.526766 220.924235 
L 166.532515 220.214965 
L 166.902497 220.214965 
L 166.941911 219.505694 
L 167.042883 219.505694 
L 167.042883 219.151059 
L 167.160002 219.151059 
L 167.160002 218.796424 
L 167.287445 218.796424 
L 167.292966 218.087153 
L 167.441436 218.087153 
L 167.512505 217.377882 
L 167.831719 217.377882 
L 167.831719 217.023247 
L 168.198293 217.023247 
L 168.198293 216.668612 
L 168.318914 216.668612 
L 168.329367 215.959341 
L 168.485458 215.959341 
L 168.500997 215.250071 
L 168.773409 215.250071 
L 168.773409 214.895435 
L 168.915748 214.895435 
L 168.98147 214.186165 
L 169.132265 214.186165 
L 169.132265 213.831529 
L 169.380934 213.831529 
L 169.380934 213.476894 
L 170.022051 213.476894 
L 170.060213 212.767624 
L 170.254588 212.767624 
L 170.254588 212.412988 
L 170.82137 212.412988 
L 170.82137 212.058353 
L 170.953621 212.058353 
L 171.021664 211.349082 
L 171.1075 211.349082 
L 171.188458 210.639812 
L 171.424832 210.639812 
L 171.522084 209.930541 
L 171.90182 209.930541 
L 171.940669 208.866635 
L 172.451132 208.866635 
L 172.459523 208.157365 
L 172.618254 208.157365 
L 172.618254 207.802729 
L 173.292356 207.802729 
L 173.292356 207.448094 
L 173.464134 207.448094 
L 173.464134 207.093459 
L 173.618587 207.093459 
L 173.618587 206.738824 
L 173.81867 206.738824 
L 173.81867 206.384188 
L 174.391324 206.384188 
L 174.391324 206.029553 
L 174.817984 206.029553 
L 174.917634 205.320282 
L 174.998441 205.320282 
L 174.998441 204.965647 
L 175.476128 204.965647 
L 175.476128 204.611012 
L 175.70697 204.611012 
L 175.70697 204.256376 
L 175.941986 204.256376 
L 175.941986 203.901741 
L 176.256556 203.901741 
L 176.256556 203.547106 
L 176.488232 203.547106 
L 176.488232 203.192471 
L 176.623192 203.192471 
L 176.623192 202.837835 
L 176.773872 202.837835 
L 176.773872 202.4832 
L 176.963018 202.4832 
L 177.032227 201.773929 
L 177.244844 201.773929 
L 177.244844 201.419294 
L 178.149726 201.419294 
L 178.149726 201.064659 
L 178.894263 201.064659 
L 178.894263 200.710024 
L 180.156039 200.710024 
L 180.256078 200.000753 
L 180.481979 200.000753 
L 180.481979 199.646118 
L 180.823894 199.646118 
L 180.823894 199.291482 
L 181.588 199.291482 
L 181.588 198.936847 
L 181.874989 198.936847 
L 181.92578 198.227576 
L 182.107499 198.227576 
L 182.107499 197.872941 
L 182.817314 197.872941 
L 182.817314 197.518306 
L 183.470971 197.518306 
L 183.470971 197.163671 
L 183.730813 197.163671 
L 183.758441 196.099765 
L 184.291478 196.099765 
L 184.389624 195.390494 
L 184.718228 195.390494 
L 184.718228 195.035859 
L 184.983077 195.035859 
L 184.983077 194.681224 
L 185.807611 194.681224 
L 185.807611 194.326588 
L 186.018933 194.326588 
L 186.018933 193.971953 
L 186.755127 193.971953 
L 186.755127 193.617318 
L 186.878321 193.617318 
L 186.878321 193.262682 
L 187.083798 193.262682 
L 187.083798 192.908047 
L 187.484363 192.908047 
L 187.484363 192.553412 
L 188.605313 192.553412 
L 188.605313 192.198776 
L 189.735346 192.198776 
L 189.735346 191.844141 
L 190.062353 191.844141 
L 190.088664 190.780235 
L 191.658056 190.780235 
L 191.658056 190.4256 
L 192.579941 190.4256 
L 192.579941 190.070965 
L 192.878408 190.070965 
L 192.878408 189.716329 
L 193.009711 189.716329 
L 193.009711 189.361694 
L 193.363722 189.361694 
L 193.363722 189.007059 
L 193.861051 189.007059 
L 193.861051 188.652424 
L 194.770576 188.652424 
L 194.770576 188.297788 
L 195.146046 188.297788 
L 195.146046 187.943153 
L 195.334737 187.943153 
L 195.334737 187.588518 
L 195.531402 187.588518 
L 195.584236 186.879247 
L 195.68214 186.879247 
L 195.68214 186.524612 
L 196.313471 186.524612 
L 196.313471 186.169976 
L 196.596965 186.169976 
L 196.596965 185.815341 
L 196.801641 185.815341 
L 196.801641 185.460706 
L 197.362495 185.460706 
L 197.362495 185.106071 
L 200.434151 185.106071 
L 200.434151 184.751435 
L 209.095053 184.751435 
L 209.095053 184.3968 
L 211.186845 184.3968 
L 211.186845 184.042165 
L 211.740716 184.042165 
L 211.740716 183.687529 
L 219.939232 183.687529 
L 219.939232 183.332894 
L 224.804436 183.332894 
L 224.804436 182.978259 
L 225.489017 182.978259 
L 225.559466 181.914353 
L 225.690171 181.914353 
L 225.690171 181.205082 
L 229.929427 181.205082 
L 229.929427 180.850447 
L 233.650783 180.850447 
L 233.650783 180.495812 
L 236.532621 180.495812 
L 236.532621 180.141176 
L 241.410548 180.141176 
L 241.497101 179.077271 
L 243.44487 179.077271 
L 243.44487 178.722635 
L 246.952841 178.722635 
L 246.952841 178.368 
L 249.908326 178.368 
L 249.908326 178.013365 
L 252.461905 178.013365 
L 252.461905 177.658729 
L 255.740599 177.658729 
L 255.740599 177.304094 
L 263.113535 177.304094 
L 263.113535 176.949459 
L 263.779357 176.949459 
L 263.779357 176.594824 
L 360.8064 176.594824 
L 360.8064 176.594824 
" style="fill:none;stroke:#000080;stroke-linecap:square;stroke-width:1.5;"/>
   </g>
   <g id="line2d_36">
    <defs>
     <path d="M 0 6 
C 1.591219 6 3.117479 5.367802 4.242641 4.242641 
C 5.367802 3.117479 6 1.591219 6 0 
C 6 -1.591219 5.367802 -3.117479 4.242641 -4.242641 
C 3.117479 -5.367802 1.591219 -6 0 -6 
C -1.591219 -6 -3.117479 -5.367802 -4.242641 -4.242641 
C -5.367802 -3.117479 -6 -1.591219 -6 0 
C -6 1.591219 -5.367802 3.117479 -4.242641 4.242641 
C -3.117479 5.367802 -1.591219 6 0 6 
z
" id="m6ca74bacb2" style="stroke:#000080;stroke-width:1.5;"/>
    </defs>
    <g>
     <use style="fill-opacity:0;stroke:#000080;stroke-width:1.5;" x="129.643124" xlink:href="#m6ca74bacb2" y="275.892706"/>
     <use style="fill-opacity:0;stroke:#000080;stroke-width:1.5;" x="192.579941" xlink:href="#m6ca74bacb2" y="190.4256"/>
     <use style="fill-opacity:0;stroke:#000080;stroke-width:1.5;" x="263.779357" xlink:href="#m6ca74bacb2" y="176.949459"/>
     <use style="fill-opacity:0;stroke:#000080;stroke-width:1.5;" x="263.779357" xlink:href="#m6ca74bacb2" y="176.594824"/>
     <use style="fill-opacity:0;stroke:#000080;stroke-width:1.5;" x="360.8064" xlink:href="#m6ca74bacb2" y="176.594824"/>
    </g>
   </g>
   <g id="line2d_37">
    <path style="fill:none;stroke:#000080;stroke-linecap:square;stroke-width:1.5;"/>
    <g/>
   </g>
   <g id="line2d_38">
    <path clip-path="url(#pdd9d04265a)" d="M 200.594178 184.751435 
" style="fill:none;stroke:#000080;stroke-linecap:square;stroke-width:1.5;"/>
    <defs>
     <path d="M -12 12 
L 12 -12 
M -12 -12 
L 12 12 
" id="m7a9e98c0b4" style="stroke:#000080;"/>
    </defs>
    <g clip-path="url(#pdd9d04265a)">
     <use style="fill:#000080;stroke:#000080;" x="200.594178" xlink:href="#m7a9e98c0b4" y="184.751435"/>
    </g>
   </g>
   <g id="line2d_39">
    <defs>
     <path d="M 0 1.5 
C 0.397805 1.5 0.77937 1.341951 1.06066 1.06066 
C 1.341951 0.77937 1.5 0.397805 1.5 0 
C 1.5 -0.397805 1.341951 -0.77937 1.06066 -1.06066 
C 0.77937 -1.341951 0.397805 -1.5 0 -1.5 
C -0.397805 -1.5 -0.77937 -1.341951 -1.06066 -1.06066 
C -1.341951 -0.77937 -1.5 -0.397805 -1.5 0 
C -1.5 0.397805 -1.341951 0.77937 -1.06066 1.06066 
C -0.77937 1.341951 -0.397805 1.5 0 1.5 
z
" id="mb7638b00f3" style="stroke:#ff00ff;"/>
    </defs>
    <g>
     <use style="fill:#ff00ff;stroke:#ff00ff;" x="209.716194" xlink:href="#mb7638b00f3" y="27.648"/>
     <use style="fill:#ff00ff;stroke:#ff00ff;" x="209.716194" xlink:href="#mb7638b00f3" y="27.648"/>
    </g>
   </g>
   <g id="line2d_40">
    <path d="M 1.245626 298.944 
L 1.245626 294.688376 
L 14.2848 294.688376 
L 14.2848 291.851294 
L 21.912228 291.851294 
L 21.912228 291.142024 
L 27.323974 291.142024 
L 27.323974 290.078118 
L 34.951403 290.078118 
L 34.951403 289.723482 
L 37.851216 289.723482 
L 37.851216 289.014212 
L 40.363149 289.014212 
L 40.363149 288.304941 
L 44.560826 288.304941 
L 44.560826 287.950306 
L 49.496305 287.950306 
L 49.496305 284.758588 
L 53.402323 284.758588 
L 53.402323 284.049318 
L 61.029752 284.049318 
L 61.029752 283.694682 
L 62.535479 283.694682 
L 62.535479 282.985412 
L 67.020361 282.985412 
L 67.020361 282.630776 
L 70.162907 282.630776 
L 70.162907 282.276141 
L 74.456807 282.276141 
L 74.456807 281.921506 
L 74.836851 281.921506 
L 74.836851 281.566871 
L 75.93298 281.566871 
L 75.93298 281.212235 
L 81.955828 281.212235 
L 81.955828 280.8576 
L 83.202082 280.8576 
L 83.202082 280.502965 
L 85.25629 280.502965 
L 85.25629 280.148329 
L 91.770283 280.148329 
L 91.770283 279.793694 
L 94.604437 279.793694 
L 94.604437 279.439059 
L 95.123409 279.439059 
L 95.123409 279.084424 
L 98.077987 279.084424 
L 98.077987 278.729788 
L 98.295464 278.729788 
L 98.295464 278.375153 
L 101.195278 278.375153 
L 101.195278 278.020518 
L 102.099854 278.020518 
L 102.099854 277.311247 
L 103.868684 277.311247 
L 103.868684 276.956612 
L 104.42317 276.956612 
L 104.42317 276.601976 
L 105.778187 276.601976 
L 105.778187 276.247341 
L 106.630177 276.247341 
L 106.699465 275.538071 
L 107.577722 275.538071 
L 107.577722 275.183435 
L 109.400633 275.183435 
L 109.400633 274.8288 
L 112.128493 274.8288 
L 112.231853 274.119529 
L 112.589207 274.119529 
L 112.589207 273.410259 
L 113.52628 273.410259 
L 113.52628 273.055624 
L 116.29505 273.055624 
L 116.29505 272.700988 
L 117.501332 272.700988 
L 117.501332 272.346353 
L 117.886828 272.346353 
L 117.886828 271.991718 
L 118.038842 271.991718 
L 118.038842 271.637082 
L 119.28364 271.637082 
L 119.28364 271.282447 
L 119.807672 271.282447 
L 119.876453 269.863906 
L 120.216635 269.863906 
L 120.216635 269.509271 
L 122.469738 269.509271 
L 122.469738 269.154635 
L 123.573201 269.154635 
L 123.573201 268.8 
L 124.373813 268.8 
L 124.454723 268.090729 
L 125.47606 268.090729 
L 125.47606 267.736094 
L 126.541384 267.736094 
L 126.613505 267.026824 
L 128.200269 267.026824 
L 128.200269 266.672188 
L 129.062347 266.672188 
L 129.062347 266.317553 
L 129.926925 266.317553 
L 129.987186 265.608282 
L 130.127049 265.608282 
L 130.127049 265.253647 
L 130.637624 265.253647 
L 130.637624 264.899012 
L 130.830367 264.899012 
L 130.830367 264.544376 
L 132.287354 264.544376 
L 132.287354 264.189741 
L 133.137444 264.189741 
L 133.137444 263.835106 
L 133.289492 263.835106 
L 133.289492 263.480471 
L 133.506969 263.480471 
L 133.506969 263.125835 
L 135.039546 263.125835 
L 135.039546 262.7712 
L 135.672686 262.7712 
L 135.672686 262.416565 
L 136.413909 262.416565 
L 136.413909 262.061929 
L 137.12703 262.061929 
L 137.12703 261.707294 
L 137.331728 261.707294 
L 137.331728 261.352659 
L 137.800869 261.352659 
L 137.800869 260.998024 
L 138.692823 260.998024 
L 138.692823 260.643388 
L 138.906237 260.643388 
L 138.906237 260.288753 
L 139.628669 260.288753 
L 139.628669 259.934118 
L 139.855533 259.934118 
L 139.855533 258.870212 
L 142.394151 258.870212 
L 142.394151 258.515576 
L 142.631166 258.515576 
L 142.631166 258.160941 
L 143.38393 258.160941 
L 143.38393 257.806306 
L 144.28675 257.806306 
L 144.28675 257.451671 
L 144.731576 257.451671 
L 144.786447 256.7424 
L 145.112353 256.7424 
L 145.112353 256.387765 
L 145.573357 256.387765 
L 145.582112 255.678494 
L 145.79969 255.678494 
L 145.816988 254.969224 
L 146.151158 254.969224 
L 146.151158 254.614588 
L 146.571076 254.614588 
L 146.571076 254.259953 
L 146.719981 254.259953 
L 146.719981 253.905318 
L 147.038621 253.905318 
L 147.038621 253.550682 
L 147.46317 253.550682 
L 147.46317 253.196047 
L 147.589476 253.196047 
L 147.613064 252.486776 
L 147.707122 252.486776 
L 147.707122 252.132141 
L 148.07872 252.132141 
L 148.07872 251.777506 
L 148.503173 251.777506 
L 148.503173 251.422871 
L 148.793216 251.422871 
L 148.874221 250.358965 
L 149.388844 250.358965 
L 149.431695 249.649694 
L 149.65155 249.649694 
L 149.65155 249.295059 
L 149.861894 249.295059 
L 149.875833 248.585788 
L 150.445404 248.585788 
L 150.445404 248.231153 
L 150.707193 248.231153 
L 150.707193 247.876518 
L 150.919305 247.876518 
L 150.965388 247.167247 
L 151.226573 247.167247 
L 151.26544 246.457976 
L 151.452172 246.457976 
L 151.477784 245.748706 
L 151.60532 245.748706 
L 151.687758 245.039435 
L 152.236493 245.039435 
L 152.279463 243.620894 
L 152.541288 243.620894 
L 152.541288 243.266259 
L 153.24161 243.266259 
L 153.264899 242.556988 
L 153.775755 242.556988 
L 153.832297 241.847718 
L 153.939261 241.847718 
L 153.939261 241.493082 
L 154.140277 241.493082 
L 154.140277 241.138447 
L 154.267588 241.138447 
L 154.267588 240.783812 
L 154.822028 240.783812 
L 154.83809 240.074541 
L 155.577951 240.074541 
L 155.639595 239.365271 
L 155.787738 239.365271 
L 155.787738 239.010635 
L 156.378778 239.010635 
L 156.378778 238.656 
L 156.652904 238.656 
L 156.652904 238.301365 
L 156.966156 238.301365 
L 156.966156 237.946729 
L 157.442781 237.946729 
L 157.512549 237.237459 
L 157.558917 237.237459 
L 157.65592 236.173553 
L 157.706532 236.173553 
L 157.720311 235.109647 
L 158.178433 235.109647 
L 158.267842 234.045741 
L 158.307938 234.045741 
L 158.321284 233.336471 
L 158.432136 233.336471 
L 158.498335 232.6272 
L 158.546733 232.6272 
L 158.57308 231.917929 
L 158.73039 231.917929 
L 158.760826 231.208659 
L 158.920889 231.208659 
L 158.920889 230.854024 
L 159.045398 230.854024 
L 159.096679 229.790118 
L 159.296194 229.790118 
L 159.296194 229.435482 
L 159.414056 229.435482 
L 159.514496 227.662306 
L 159.535354 227.662306 
L 159.535354 227.307671 
L 159.688986 227.307671 
L 159.775628 226.243765 
L 160.098038 226.243765 
L 160.138458 225.534494 
L 160.339266 225.534494 
L 160.339266 225.179859 
L 160.640448 225.179859 
L 160.640448 224.825224 
L 160.777545 224.825224 
L 160.777545 224.470588 
L 161.121727 224.470588 
L 161.22872 223.406682 
L 161.270586 223.406682 
L 161.372957 221.633506 
L 161.710225 221.633506 
L 161.739914 220.924235 
L 162.327652 220.924235 
L 162.435167 220.214965 
L 162.467302 220.214965 
L 162.488695 219.505694 
L 162.711865 219.505694 
L 162.771634 218.441788 
L 162.827715 218.441788 
L 162.921974 217.023247 
L 162.991492 217.023247 
L 163.050381 215.959341 
L 163.260183 215.959341 
L 163.328465 214.895435 
L 163.447365 214.895435 
L 163.521719 214.186165 
L 163.709668 214.186165 
L 163.709668 213.831529 
L 163.829508 213.831529 
L 163.928796 213.122259 
L 164.311084 213.122259 
L 164.314318 212.412988 
L 164.423951 212.412988 
L 164.484939 211.703718 
L 164.571267 211.703718 
L 164.634959 210.994447 
L 164.701605 210.994447 
L 164.802709 210.285176 
L 165.012651 210.285176 
L 165.043786 209.575906 
L 165.152353 209.575906 
L 165.235679 207.802729 
L 165.269521 207.802729 
L 165.315571 207.093459 
L 165.450005 207.093459 
L 165.532026 205.320282 
L 165.649872 205.320282 
L 165.746019 203.547106 
L 165.904188 203.547106 
L 165.987215 202.4832 
L 166.049245 202.4832 
L 166.078712 201.773929 
L 166.204896 201.773929 
L 166.315707 200.710024 
L 166.376665 200.710024 
L 166.469177 199.646118 
L 166.569843 199.646118 
L 166.587046 198.936847 
L 166.809266 198.936847 
L 166.871471 197.872941 
L 166.927844 197.872941 
L 166.953157 196.809035 
L 167.068041 196.809035 
L 167.165561 195.745129 
L 167.18778 195.745129 
L 167.18778 195.390494 
L 167.545216 195.390494 
L 167.545216 195.035859 
L 167.678199 195.035859 
L 167.742992 193.617318 
L 167.847807 193.617318 
L 167.847807 193.262682 
L 167.986658 193.262682 
L 168.002613 192.198776 
L 168.15352 192.198776 
L 168.15352 191.844141 
L 168.498408 191.844141 
L 168.526865 190.780235 
L 168.676205 190.780235 
L 168.737655 189.361694 
L 168.87519 189.361694 
L 168.880264 188.297788 
L 169.234617 188.297788 
L 169.311637 187.588518 
L 169.425347 187.588518 
L 169.430276 186.524612 
L 169.540824 186.524612 
L 169.540824 186.169976 
L 169.665331 186.169976 
L 169.665331 185.815341 
L 169.95508 185.815341 
L 170.024438 184.042165 
L 170.397892 184.042165 
L 170.423618 182.978259 
L 170.561006 182.978259 
L 170.621233 181.914353 
L 170.743408 181.914353 
L 170.798473 181.205082 
L 170.955893 181.205082 
L 170.955893 180.850447 
L 171.073664 180.850447 
L 171.17948 178.722635 
L 171.192946 178.722635 
L 171.2914 177.304094 
L 171.404878 177.304094 
L 171.500025 175.176282 
L 171.634182 175.176282 
L 171.684518 174.467012 
L 171.800001 174.467012 
L 171.847729 173.757741 
L 171.932042 173.757741 
L 172.037442 172.3392 
L 172.056737 172.3392 
L 172.142253 170.920659 
L 172.227383 170.920659 
L 172.227383 170.566024 
L 172.379653 170.566024 
L 172.476295 168.792847 
L 172.545321 168.792847 
L 172.545321 168.438212 
L 172.668103 168.438212 
L 172.734362 167.728941 
L 173.094677 167.728941 
L 173.129118 166.665035 
L 173.334447 166.665035 
L 173.418347 165.246494 
L 173.577128 165.246494 
L 173.683553 163.118682 
L 173.787425 163.118682 
L 173.822572 162.409412 
L 174.099488 162.409412 
L 174.208741 161.700141 
L 174.273609 161.700141 
L 174.368598 159.926965 
L 174.404568 159.926965 
L 174.417803 159.217694 
L 174.635779 159.217694 
L 174.704779 158.153788 
L 174.751257 158.153788 
L 174.842022 157.444518 
L 174.866029 157.444518 
L 174.895535 155.671341 
L 175.108076 155.671341 
L 175.14448 154.607435 
L 175.224321 154.607435 
L 175.287589 153.543529 
L 175.424244 153.543529 
L 175.522524 151.415718 
L 175.538557 151.415718 
L 175.616746 150.351812 
L 175.684013 150.351812 
L 175.761601 148.933271 
L 175.809054 148.933271 
L 175.915823 147.869365 
L 175.921059 147.869365 
L 175.933269 147.160094 
L 176.117204 147.160094 
L 176.208501 146.096188 
L 176.282249 146.096188 
L 176.342063 145.032282 
L 176.445858 145.032282 
L 176.538956 142.904471 
L 176.57101 142.904471 
L 176.58449 142.1952 
L 176.710399 142.1952 
L 176.710399 141.840565 
L 176.954762 141.840565 
L 177.030582 140.422024 
L 177.101182 140.422024 
L 177.210661 138.648847 
L 177.228574 138.648847 
L 177.228574 138.294212 
L 177.387418 138.294212 
L 177.400326 137.584941 
L 177.527318 137.584941 
L 177.600869 135.811765 
L 177.672544 135.811765 
L 177.783499 134.747859 
L 177.816658 134.747859 
L 177.816658 134.393224 
L 177.953413 134.393224 
L 178.062728 133.329318 
L 178.110937 133.329318 
L 178.110937 132.974682 
L 178.248661 132.974682 
L 178.267153 132.265412 
L 178.438879 132.265412 
L 178.534791 130.1376 
L 178.593921 130.1376 
L 178.689047 128.364424 
L 178.707112 128.364424 
L 178.800172 126.945882 
L 178.846529 126.945882 
L 178.877868 125.881976 
L 179.054476 125.881976 
L 179.164938 124.463435 
L 179.207476 124.463435 
L 179.298099 123.044894 
L 179.340338 123.044894 
L 179.410043 120.917082 
L 179.472268 120.917082 
L 179.544365 120.207812 
L 179.601844 120.207812 
L 179.689164 118.434635 
L 179.841358 118.434635 
L 179.885223 116.661459 
L 180.066666 116.661459 
L 180.169965 115.597553 
L 180.196396 115.597553 
L 180.305899 113.824376 
L 180.348695 113.824376 
L 180.451833 112.760471 
L 180.494298 112.760471 
L 180.55168 111.696565 
L 180.720078 111.696565 
L 180.722781 110.987294 
L 180.850765 110.987294 
L 180.86687 109.923388 
L 181.126656 109.923388 
L 181.209826 108.859482 
L 181.380293 108.859482 
L 181.427227 107.440941 
L 181.493518 107.440941 
L 181.575085 106.0224 
L 181.622825 106.0224 
L 181.630555 105.313129 
L 181.858453 105.313129 
L 181.911826 104.249224 
L 181.980227 104.249224 
L 182.074818 103.185318 
L 182.102475 103.185318 
L 182.187703 101.766776 
L 182.494073 101.766776 
L 182.560393 99.9936 
L 182.625258 99.9936 
L 182.663095 99.284329 
L 182.744612 99.284329 
L 182.83182 97.156518 
L 183.031357 97.156518 
L 183.13985 95.737976 
L 183.227616 95.737976 
L 183.29612 95.028706 
L 183.445256 95.028706 
L 183.549068 92.900894 
L 183.843375 92.900894 
L 183.924506 91.836988 
L 184.027982 91.836988 
L 184.057442 90.773082 
L 184.200685 90.773082 
L 184.308244 88.999906 
L 184.377384 88.999906 
L 184.472868 85.453553 
L 184.491686 85.453553 
L 184.583291 84.389647 
L 184.649235 84.389647 
L 184.649235 84.035012 
L 184.815265 84.035012 
L 184.88257 82.616471 
L 184.981999 82.616471 
L 184.984155 81.9072 
L 185.106622 81.9072 
L 185.106622 81.552565 
L 185.302622 81.552565 
L 185.302622 81.197929 
L 185.478762 81.197929 
L 185.588671 80.134024 
L 185.693789 80.134024 
L 185.785935 79.424753 
L 185.935099 79.424753 
L 186.011791 77.651576 
L 186.067834 77.651576 
L 186.07292 76.942306 
L 186.259155 76.942306 
L 186.362606 75.8784 
L 186.409624 75.8784 
L 186.409624 75.523765 
L 186.644939 75.523765 
L 186.745315 74.105224 
L 186.789428 74.105224 
L 186.89196 73.395953 
L 187.005555 73.395953 
L 187.058718 71.977412 
L 187.299446 71.977412 
L 187.310878 71.268141 
L 187.498512 71.268141 
L 187.498512 70.913506 
L 187.643167 70.913506 
L 187.748606 69.494965 
L 187.83309 69.494965 
L 187.88212 68.785694 
L 187.952206 68.785694 
L 188.043112 67.721788 
L 188.116252 67.721788 
L 188.116252 67.367153 
L 188.269832 67.367153 
L 188.314127 66.657882 
L 188.391619 66.657882 
L 188.391619 66.303247 
L 188.611535 66.303247 
L 188.643503 65.593976 
L 188.723187 65.593976 
L 188.73202 64.884706 
L 188.865773 64.884706 
L 188.87191 64.175435 
L 189.363313 64.175435 
L 189.410222 63.466165 
L 189.556167 63.466165 
L 189.64639 62.402259 
L 189.682527 62.402259 
L 189.787182 61.338353 
L 189.800536 61.338353 
L 189.892919 59.919812 
L 189.946807 59.919812 
L 190.033533 58.855906 
L 190.137078 58.855906 
L 190.19926 57.082729 
L 190.27019 57.082729 
L 190.311646 55.309553 
L 190.417713 55.309553 
L 190.478976 54.245647 
L 191.192 54.245647 
L 191.295543 53.536376 
L 191.350175 53.536376 
L 191.350175 53.181741 
L 191.571688 53.181741 
L 191.652008 52.117835 
L 191.741019 52.117835 
L 191.785367 50.344659 
L 192.041138 50.344659 
L 192.041138 49.990024 
L 192.209985 49.990024 
L 192.209985 49.635388 
L 192.322687 49.635388 
L 192.416575 48.571482 
L 192.502772 48.571482 
L 192.597207 47.862212 
L 192.646757 47.862212 
L 192.646757 47.507576 
L 192.758305 47.507576 
L 192.758305 47.152941 
L 192.876282 47.152941 
L 192.909551 46.443671 
L 193.004786 46.443671 
L 193.025884 45.7344 
L 193.164539 45.7344 
L 193.199392 45.025129 
L 193.298717 45.025129 
L 193.298717 44.670494 
L 193.423688 44.670494 
L 193.465619 43.606588 
L 193.899336 43.606588 
L 193.960965 42.897318 
L 194.13405 42.897318 
L 194.245048 41.124141 
L 194.285847 41.124141 
L 194.285847 40.769506 
L 194.491126 40.769506 
L 194.491126 40.414871 
L 194.930051 40.414871 
L 194.930051 40.060235 
L 195.100149 40.060235 
L 195.206233 39.350965 
L 195.40114 39.350965 
L 195.40114 38.996329 
L 195.657101 38.996329 
L 195.702879 38.287059 
L 195.792889 38.287059 
L 195.848021 37.577788 
L 196.083082 37.577788 
L 196.156424 36.868518 
L 196.27448 36.868518 
L 196.27448 36.513882 
L 196.711142 36.513882 
L 196.800491 35.804612 
L 197.061485 35.804612 
L 197.061485 35.449976 
L 197.188102 35.449976 
L 197.188102 35.095341 
L 198.358214 35.095341 
L 198.383079 34.386071 
L 198.836466 34.386071 
L 198.836466 34.031435 
L 199.033609 34.031435 
L 199.033609 33.6768 
L 199.164406 33.6768 
L 199.164406 33.322165 
L 199.479746 33.322165 
L 199.479746 32.967529 
L 199.878962 32.967529 
L 199.878962 32.612894 
L 200.066496 32.612894 
L 200.066496 32.258259 
L 200.684212 32.258259 
L 200.684212 31.903624 
L 201.146756 31.903624 
L 201.146756 31.548988 
L 201.276396 31.548988 
L 201.276396 31.194353 
L 201.775609 31.194353 
L 201.775609 30.839718 
L 203.438308 30.839718 
L 203.438308 30.485082 
L 203.837731 30.485082 
L 203.837731 30.130447 
L 204.683241 30.130447 
L 204.683241 29.775812 
L 205.160132 29.775812 
L 205.211687 29.066541 
L 205.620555 29.066541 
L 205.632066 28.002635 
L 209.716194 28.002635 
L 209.716194 27.648 
L 360.8064 27.648 
L 360.8064 27.648 
" style="fill:none;stroke:#ff00ff;stroke-linecap:square;stroke-width:1.5;"/>
   </g>
   <g id="line2d_41">
    <defs>
     <path d="M -0 8.485281 
L 5.091169 0 
L 0 -8.485281 
L -5.091169 -0 
z
" id="m4c492489f5" style="stroke:#ff00ff;stroke-linejoin:miter;stroke-width:1.5;"/>
    </defs>
    <g>
     <use style="fill-opacity:0;stroke:#ff00ff;stroke-linejoin:miter;stroke-width:1.5;" x="83.202082" xlink:href="#m4c492489f5" y="280.502965"/>
     <use style="fill-opacity:0;stroke:#ff00ff;stroke-linejoin:miter;stroke-width:1.5;" x="159.092411" xlink:href="#m4c492489f5" y="230.144753"/>
     <use style="fill-opacity:0;stroke:#ff00ff;stroke-linejoin:miter;stroke-width:1.5;" x="187.952206" xlink:href="#m4c492489f5" y="68.431059"/>
     <use style="fill-opacity:0;stroke:#ff00ff;stroke-linejoin:miter;stroke-width:1.5;" x="209.716194" xlink:href="#m4c492489f5" y="28.002635"/>
     <use style="fill-opacity:0;stroke:#ff00ff;stroke-linejoin:miter;stroke-width:1.5;" x="209.716194" xlink:href="#m4c492489f5" y="27.648"/>
     <use style="fill-opacity:0;stroke:#ff00ff;stroke-linejoin:miter;stroke-width:1.5;" x="360.8064" xlink:href="#m4c492489f5" y="27.648"/>
    </g>
   </g>
   <g id="line2d_42">
    <path style="fill:none;stroke:#ff00ff;stroke-linecap:square;stroke-width:1.5;"/>
    <g/>
   </g>
   <g id="line2d_43">
    <path clip-path="url(#pdd9d04265a)" d="M 144.249202 257.806306 
" style="fill:none;stroke:#ff00ff;stroke-linecap:square;stroke-width:1.5;"/>
    <defs>
     <path d="M -12 12 
L 12 -12 
M -12 -12 
L 12 12 
" id="m9cedcb61a6" style="stroke:#ff00ff;"/>
    </defs>
    <g clip-path="url(#pdd9d04265a)">
     <use style="fill:#ff00ff;stroke:#ff00ff;" x="144.249202" xlink:href="#m9cedcb61a6" y="257.806306"/>
    </g>
   </g>
   <g id="line2d_44">
    <path d="M 360.8064 176.594824 
L 380.514816 293.51808 
" style="fill:none;stroke:#000080;stroke-linecap:square;stroke-width:1.5;"/>
    <g>
     <use style="fill-opacity:0;stroke:#000080;stroke-width:1.5;" x="360.8064" xlink:href="#m6ca74bacb2" y="176.594824"/>
     <use style="fill-opacity:0;stroke:#000080;stroke-width:1.5;" x="380.514816" xlink:href="#m6ca74bacb2" y="293.51808"/>
    </g>
   </g>
   <g id="line2d_45">
    <path d="M 360.8064 27.648 
L 380.514816 163.296 
" style="fill:none;stroke:#ff00ff;stroke-linecap:square;stroke-width:1.5;"/>
    <g>
     <use style="fill-opacity:0;stroke:#ff00ff;stroke-linejoin:miter;stroke-width:1.5;" x="360.8064" xlink:href="#m4c492489f5" y="27.648"/>
     <use style="fill-opacity:0;stroke:#ff00ff;stroke-linejoin:miter;stroke-width:1.5;" x="380.514816" xlink:href="#m4c492489f5" y="163.296"/>
    </g>
   </g>
   <g id="line2d_46">
    <path d="M 360.8064 298.944 
L 360.8064 27.648 
" style="fill:none;stroke:#000000;stroke-linecap:square;stroke-width:1.5;"/>
   </g>
   <g id="patch_3">
    <path d="M 57.6 298.944 
L 360.8064 298.944 
" style="fill:none;stroke:#000000;stroke-linecap:square;stroke-linejoin:miter;stroke-width:0.8;"/>
   </g>
   <g id="patch_4">
    <path d="M 57.6 27.648 
L 360.8064 27.648 
" style="fill:none;stroke:#000000;stroke-linecap:square;stroke-linejoin:miter;stroke-width:0.8;"/>
   </g>
   <g id="text_13">
    <!-- different -->
    <g transform="translate(386.578944 297.381205)scale(0.14 -0.14)">
     <use xlink:href="#DejaVuSans-64"/>
     <use x="63.476562" xlink:href="#DejaVuSans-69"/>
     <use x="91.259766" xlink:href="#DejaVuSans-66"/>
     <use x="126.464844" xlink:href="#DejaVuSans-66"/>
     <use x="161.669922" xlink:href="#DejaVuSans-65"/>
     <use x="223.193359" xlink:href="#DejaVuSans-72"/>
     <use x="262.056641" xlink:href="#DejaVuSans-65"/>
     <use x="323.580078" xlink:href="#DejaVuSans-6e"/>
     <use x="386.958984" xlink:href="#DejaVuSans-74"/>
    </g>
   </g>
   <g id="text_14">
    <!-- cma.fmin  -->
    <g transform="translate(386.578944 167.159125)scale(0.14 -0.14)">
     <use xlink:href="#DejaVuSans-63"/>
     <use x="54.980469" xlink:href="#DejaVuSans-6d"/>
     <use x="152.392578" xlink:href="#DejaVuSans-61"/>
     <use x="213.671875" xlink:href="#DejaVuSans-2e"/>
     <use x="245.458984" xlink:href="#DejaVuSans-66"/>
     <use x="280.664062" xlink:href="#DejaVuSans-6d"/>
     <use x="378.076172" xlink:href="#DejaVuSans-69"/>
     <use x="405.859375" xlink:href="#DejaVuSans-6e"/>
     <use x="469.238281" xlink:href="#DejaVuSans-20"/>
    </g>
   </g>
   <g id="text_15">
    <!-- best 2009 -->
    <g transform="translate(386.578944 36.937045)scale(0.14 -0.14)">
     <defs>
      <path d="M 3116 1747 
Q 3116 2381 2855 2742 
Q 2594 3103 2138 3103 
Q 1681 3103 1420 2742 
Q 1159 2381 1159 1747 
Q 1159 1113 1420 752 
Q 1681 391 2138 391 
Q 2594 391 2855 752 
Q 3116 1113 3116 1747 
z
M 1159 2969 
Q 1341 3281 1617 3432 
Q 1894 3584 2278 3584 
Q 2916 3584 3314 3078 
Q 3713 2572 3713 1747 
Q 3713 922 3314 415 
Q 2916 -91 2278 -91 
Q 1894 -91 1617 61 
Q 1341 213 1159 525 
L 1159 0 
L 581 0 
L 581 4863 
L 1159 4863 
L 1159 2969 
z
" id="DejaVuSans-62" transform="scale(0.015625)"/>
      <path d="M 703 97 
L 703 672 
Q 941 559 1184 500 
Q 1428 441 1663 441 
Q 2288 441 2617 861 
Q 2947 1281 2994 2138 
Q 2813 1869 2534 1725 
Q 2256 1581 1919 1581 
Q 1219 1581 811 2004 
Q 403 2428 403 3163 
Q 403 3881 828 4315 
Q 1253 4750 1959 4750 
Q 2769 4750 3195 4129 
Q 3622 3509 3622 2328 
Q 3622 1225 3098 567 
Q 2575 -91 1691 -91 
Q 1453 -91 1209 -44 
Q 966 3 703 97 
z
M 1959 2075 
Q 2384 2075 2632 2365 
Q 2881 2656 2881 3163 
Q 2881 3666 2632 3958 
Q 2384 4250 1959 4250 
Q 1534 4250 1286 3958 
Q 1038 3666 1038 3163 
Q 1038 2656 1286 2365 
Q 1534 2075 1959 2075 
z
" id="DejaVuSans-39" transform="scale(0.015625)"/>
     </defs>
     <use xlink:href="#DejaVuSans-62"/>
     <use x="63.476562" xlink:href="#DejaVuSans-65"/>
     <use x="125" xlink:href="#DejaVuSans-73"/>
     <use x="177.099609" xlink:href="#DejaVuSans-74"/>
     <use x="216.308594" xlink:href="#DejaVuSans-20"/>
     <use x="248.095703" xlink:href="#DejaVuSans-32"/>
     <use x="311.71875" xlink:href="#DejaVuSans-30"/>
     <use x="375.341797" xlink:href="#DejaVuSans-30"/>
     <use x="438.964844" xlink:href="#DejaVuSans-39"/>
    </g>
   </g>
   <g id="text_16">
    <!-- bbob f14, 20-D -->
    <g transform="translate(60.632064 38.111366)scale(0.102 -0.102)">
     <defs>
      <path d="M 1259 4147 
L 1259 519 
L 2022 519 
Q 2988 519 3436 956 
Q 3884 1394 3884 2338 
Q 3884 3275 3436 3711 
Q 2988 4147 2022 4147 
L 1259 4147 
z
M 628 4666 
L 1925 4666 
Q 3281 4666 3915 4102 
Q 4550 3538 4550 2338 
Q 4550 1131 3912 565 
Q 3275 0 1925 0 
L 628 0 
L 628 4666 
z
" id="DejaVuSans-44" transform="scale(0.015625)"/>
     </defs>
     <use xlink:href="#DejaVuSans-62"/>
     <use x="63.476562" xlink:href="#DejaVuSans-62"/>
     <use x="126.953125" xlink:href="#DejaVuSans-6f"/>
     <use x="188.134766" xlink:href="#DejaVuSans-62"/>
     <use x="251.611328" xlink:href="#DejaVuSans-20"/>
     <use x="283.398438" xlink:href="#DejaVuSans-66"/>
     <use x="318.603516" xlink:href="#DejaVuSans-31"/>
     <use x="382.226562" xlink:href="#DejaVuSans-34"/>
     <use x="445.849609" xlink:href="#DejaVuSans-2c"/>
     <use x="477.636719" xlink:href="#DejaVuSans-20"/>
     <use x="509.423828" xlink:href="#DejaVuSans-32"/>
     <use x="573.046875" xlink:href="#DejaVuSans-30"/>
     <use x="636.669922" xlink:href="#DejaVuSans-2d"/>
     <use x="672.753906" xlink:href="#DejaVuSans-44"/>
    </g>
    <!-- 51 targets: 100..1e-08 -->
    <g transform="translate(60.632064 49.533135)scale(0.102 -0.102)">
     <defs>
      <path d="M 691 4666 
L 3169 4666 
L 3169 4134 
L 1269 4134 
L 1269 2991 
Q 1406 3038 1543 3061 
Q 1681 3084 1819 3084 
Q 2600 3084 3056 2656 
Q 3513 2228 3513 1497 
Q 3513 744 3044 326 
Q 2575 -91 1722 -91 
Q 1428 -91 1123 -41 
Q 819 9 494 109 
L 494 744 
Q 775 591 1075 516 
Q 1375 441 1709 441 
Q 2250 441 2565 725 
Q 2881 1009 2881 1497 
Q 2881 1984 2565 2268 
Q 2250 2553 1709 2553 
Q 1456 2553 1204 2497 
Q 953 2441 691 2322 
L 691 4666 
z
" id="DejaVuSans-35" transform="scale(0.015625)"/>
      <path d="M 750 794 
L 1409 794 
L 1409 0 
L 750 0 
L 750 794 
z
M 750 3309 
L 1409 3309 
L 1409 2516 
L 750 2516 
L 750 3309 
z
" id="DejaVuSans-3a" transform="scale(0.015625)"/>
     </defs>
     <use xlink:href="#DejaVuSans-35"/>
     <use x="63.623047" xlink:href="#DejaVuSans-31"/>
     <use x="127.246094" xlink:href="#DejaVuSans-20"/>
     <use x="159.033203" xlink:href="#DejaVuSans-74"/>
     <use x="198.242188" xlink:href="#DejaVuSans-61"/>
     <use x="259.521484" xlink:href="#DejaVuSans-72"/>
     <use x="298.884766" xlink:href="#DejaVuSans-67"/>
     <use x="362.361328" xlink:href="#DejaVuSans-65"/>
     <use x="423.884766" xlink:href="#DejaVuSans-74"/>
     <use x="463.09375" xlink:href="#DejaVuSans-73"/>
     <use x="515.193359" xlink:href="#DejaVuSans-3a"/>
     <use x="548.884766" xlink:href="#DejaVuSans-20"/>
     <use x="580.671875" xlink:href="#DejaVuSans-31"/>
     <use x="644.294922" xlink:href="#DejaVuSans-30"/>
     <use x="707.917969" xlink:href="#DejaVuSans-30"/>
     <use x="771.541016" xlink:href="#DejaVuSans-2e"/>
     <use x="803.328125" xlink:href="#DejaVuSans-2e"/>
     <use x="835.115234" xlink:href="#DejaVuSans-31"/>
     <use x="898.738281" xlink:href="#DejaVuSans-65"/>
     <use x="960.261719" xlink:href="#DejaVuSans-2d"/>
     <use x="996.345703" xlink:href="#DejaVuSans-30"/>
     <use x="1059.96875" xlink:href="#DejaVuSans-38"/>
    </g>
    <!-- 15 instances -->
    <g transform="translate(60.632064 60.954904)scale(0.102 -0.102)">
     <use xlink:href="#DejaVuSans-31"/>
     <use x="63.623047" xlink:href="#DejaVuSans-35"/>
     <use x="127.246094" xlink:href="#DejaVuSans-20"/>
     <use x="159.033203" xlink:href="#DejaVuSans-69"/>
     <use x="186.816406" xlink:href="#DejaVuSans-6e"/>
     <use x="250.195312" xlink:href="#DejaVuSans-73"/>
     <use x="302.294922" xlink:href="#DejaVuSans-74"/>
     <use x="341.503906" xlink:href="#DejaVuSans-61"/>
     <use x="402.783203" xlink:href="#DejaVuSans-6e"/>
     <use x="466.162109" xlink:href="#DejaVuSans-63"/>
     <use x="521.142578" xlink:href="#DejaVuSans-65"/>
     <use x="582.666016" xlink:href="#DejaVuSans-73"/>
    </g>
   </g>
   <g id="text_17">
    <!-- v2.6 -->
    <g style="fill:#808080;" transform="translate(198.292262 294.151352)scale(0.1 -0.1)">
     <use xlink:href="#DejaVuSans-76"/>
     <use x="59.179688" xlink:href="#DejaVuSans-32"/>
     <use x="122.802734" xlink:href="#DejaVuSans-2e"/>
     <use x="154.589844" xlink:href="#DejaVuSans-36"/>
    </g>
   </g>
   <g id="text_18">
    <!-- 14 Sum of different powers -->
    <g transform="translate(72.964137 21.648)scale(0.2 -0.2)">
     <defs>
      <path d="M 3425 4513 
L 3425 3897 
Q 3066 4069 2747 4153 
Q 2428 4238 2131 4238 
Q 1616 4238 1336 4038 
Q 1056 3838 1056 3469 
Q 1056 3159 1242 3001 
Q 1428 2844 1947 2747 
L 2328 2669 
Q 3034 2534 3370 2195 
Q 3706 1856 3706 1288 
Q 3706 609 3251 259 
Q 2797 -91 1919 -91 
Q 1588 -91 1214 -16 
Q 841 59 441 206 
L 441 856 
Q 825 641 1194 531 
Q 1563 422 1919 422 
Q 2459 422 2753 634 
Q 3047 847 3047 1241 
Q 3047 1584 2836 1778 
Q 2625 1972 2144 2069 
L 1759 2144 
Q 1053 2284 737 2584 
Q 422 2884 422 3419 
Q 422 4038 858 4394 
Q 1294 4750 2059 4750 
Q 2388 4750 2728 4690 
Q 3069 4631 3425 4513 
z
" id="DejaVuSans-53" transform="scale(0.015625)"/>
      <path d="M 269 3500 
L 844 3500 
L 1563 769 
L 2278 3500 
L 2956 3500 
L 3675 769 
L 4391 3500 
L 4966 3500 
L 4050 0 
L 3372 0 
L 2619 2869 
L 1863 0 
L 1184 0 
L 269 3500 
z
" id="DejaVuSans-77" transform="scale(0.015625)"/>
     </defs>
     <use xlink:href="#DejaVuSans-31"/>
     <use x="63.623047" xlink:href="#DejaVuSans-34"/>
     <use x="127.246094" xlink:href="#DejaVuSans-20"/>
     <use x="159.033203" xlink:href="#DejaVuSans-53"/>
     <use x="222.509766" xlink:href="#DejaVuSans-75"/>
     <use x="285.888672" xlink:href="#DejaVuSans-6d"/>
     <use x="383.300781" xlink:href="#DejaVuSans-20"/>
     <use x="415.087891" xlink:href="#DejaVuSans-6f"/>
     <use x="476.269531" xlink:href="#DejaVuSans-66"/>
     <use x="511.474609" xlink:href="#DejaVuSans-20"/>
     <use x="543.261719" xlink:href="#DejaVuSans-64"/>
     <use x="606.738281" xlink:href="#DejaVuSans-69"/>
     <use x="634.521484" xlink:href="#DejaVuSans-66"/>
     <use x="669.726562" xlink:href="#DejaVuSans-66"/>
     <use x="704.931641" xlink:href="#DejaVuSans-65"/>
     <use x="766.455078" xlink:href="#DejaVuSans-72"/>
     <use x="805.318359" xlink:href="#DejaVuSans-65"/>
     <use x="866.841797" xlink:href="#DejaVuSans-6e"/>
     <use x="930.220703" xlink:href="#DejaVuSans-74"/>
     <use x="969.429688" xlink:href="#DejaVuSans-20"/>
     <use x="1001.216797" xlink:href="#DejaVuSans-70"/>
     <use x="1064.693359" xlink:href="#DejaVuSans-6f"/>
     <use x="1125.875" xlink:href="#DejaVuSans-77"/>
     <use x="1207.662109" xlink:href="#DejaVuSans-65"/>
     <use x="1269.185547" xlink:href="#DejaVuSans-72"/>
     <use x="1310.298828" xlink:href="#DejaVuSans-73"/>
    </g>
   </g>
  </g>
 </g>
 <defs>
  <clipPath id="pdd9d04265a">
   <rect height="271.296" width="303.2064" x="57.6" y="27.648"/>
  </clipPath>
 </defs>
</svg>
