<?xml version="1.0" encoding="utf-8" standalone="no"?>
<!DOCTYPE svg PUBLIC "-//W3C//DTD SVG 1.1//EN"
  "http://www.w3.org/Graphics/SVG/1.1/DTD/svg11.dtd">
<svg height="345.6pt" version="1.1" viewBox="0 0 460.8 345.6" width="460.8pt" xmlns="http://www.w3.org/2000/svg" xmlns:xlink="http://www.w3.org/1999/xlink">
 <metadata>
  <rdf:RDF xmlns:cc="http://creativecommons.org/ns#" xmlns:dc="http://purl.org/dc/elements/1.1/" xmlns:rdf="http://www.w3.org/1999/02/22-rdf-syntax-ns#">
   <cc:Work>
    <dc:type rdf:resource="http://purl.org/dc/dcmitype/StillImage"/>
    <dc:date>2022-05-22T15:10:52.276827</dc:date>
    <dc:format>image/svg+xml</dc:format>
    <dc:creator>
     <cc:Agent>
      <dc:title>Matplotlib v3.4.3, https://matplotlib.org/</dc:title>
     </cc:Agent>
    </dc:creator>
   </cc:Work>
  </rdf:RDF>
 </metadata>
 <defs>
  <style type="text/css">*{stroke-linecap:butt;stroke-linejoin:round;}</style>
 </defs>
 <g id="figure_1">
  <g id="patch_1">
   <path d="M 0 345.6 
L 460.8 345.6 
L 460.8 0 
L 0 0 
z
" style="fill:#ffffff;"/>
  </g>
  <g id="axes_1">
   <g id="patch_2">
    <path d="M 57.6 298.944 
L 360.8064 298.944 
L 360.8064 27.648 
L 57.6 27.648 
z
" style="fill:#ffffff;"/>
   </g>
   <g id="line2d_1">
    <path d="M 73.268314 298.944 
L 73.268314 293.624471 
L 115.489021 293.624471 
L 115.489021 288.304941 
L 117.695068 288.304941 
L 117.695068 282.985412 
L 118.450653 282.985412 
L 118.450653 277.665882 
L 118.74459 277.665882 
L 118.74459 272.346353 
L 119.319033 272.346353 
L 119.319033 267.026824 
L 123.936316 267.026824 
L 123.936316 261.707294 
L 128.743679 261.707294 
L 128.743679 256.387765 
L 136.836659 256.387765 
L 136.836659 251.068235 
L 139.962047 251.068235 
L 139.962047 245.748706 
L 144.986282 245.748706 
L 144.986282 240.429176 
L 150.138743 240.429176 
L 150.138743 235.109647 
L 153.877408 235.109647 
L 153.877408 229.790118 
L 156.442771 229.790118 
L 156.442771 224.470588 
L 161.512345 224.470588 
L 161.512345 219.151059 
L 162.219518 219.151059 
L 162.219518 213.831529 
L 162.761101 213.831529 
L 162.761101 208.512 
L 163.164171 208.512 
L 163.164171 203.192471 
L 163.612572 203.192471 
L 163.612572 197.872941 
L 164.272231 197.872941 
L 164.272231 192.553412 
L 164.606324 192.553412 
L 164.606324 187.233882 
L 165.133786 187.233882 
L 165.133786 181.914353 
L 165.725029 181.914353 
L 165.725029 176.594824 
L 166.040396 176.594824 
L 166.040396 171.275294 
L 166.39115 171.275294 
L 166.39115 165.955765 
L 166.905315 165.955765 
L 166.905315 160.636235 
L 167.383837 160.636235 
L 167.383837 155.316706 
L 167.952041 155.316706 
L 167.952041 149.997176 
L 168.373724 149.997176 
L 168.373724 144.677647 
L 168.729985 144.677647 
L 168.729985 139.358118 
L 169.06958 139.358118 
L 169.06958 134.038588 
L 169.545722 134.038588 
L 169.545722 128.719059 
L 169.822832 128.719059 
L 169.822832 123.399529 
L 170.100675 123.399529 
L 170.100675 118.08 
L 170.472634 118.08 
L 170.472634 112.760471 
L 170.736514 112.760471 
L 170.736514 107.440941 
L 171.010341 107.440941 
L 171.010341 102.121412 
L 171.488986 102.121412 
L 171.488986 96.801882 
L 171.695443 96.801882 
L 171.695443 91.482353 
L 171.998792 91.482353 
L 171.998792 86.162824 
L 172.297327 86.162824 
L 172.297327 80.843294 
L 172.666028 80.843294 
L 172.666028 75.523765 
L 172.982818 75.523765 
L 172.982818 70.204235 
L 173.270271 70.204235 
L 173.270271 64.884706 
L 173.517742 64.884706 
L 173.517742 59.565176 
L 173.90627 59.565176 
L 173.90627 54.245647 
L 174.191533 54.245647 
L 174.191533 48.926118 
L 174.404568 48.926118 
L 174.404568 43.606588 
L 174.637648 43.606588 
L 174.637648 38.287059 
L 174.912111 38.287059 
L 174.912111 32.967529 
L 175.218888 32.967529 
L 175.218888 27.648 
L 360.8064 27.648 
" style="fill:none;stroke:#f5deb3;stroke-linecap:square;stroke-width:4;"/>
   </g>
   <g id="line2d_2">
    <defs>
     <path d="M -0 7.778175 
L 7.778175 0 
L 0 -7.778175 
L -7.778175 -0 
z
" id="mdbd812b210" style="stroke:#f5deb3;stroke-linejoin:miter;stroke-width:1.5;"/>
    </defs>
    <g>
     <use style="fill:#f5deb3;stroke:#f5deb3;stroke-linejoin:miter;stroke-width:1.5;" x="119.319033" xlink:href="#mdbd812b210" y="272.346353"/>
     <use style="fill:#f5deb3;stroke:#f5deb3;stroke-linejoin:miter;stroke-width:1.5;" x="168.373724" xlink:href="#mdbd812b210" y="149.997176"/>
     <use style="fill:#f5deb3;stroke:#f5deb3;stroke-linejoin:miter;stroke-width:1.5;" x="175.218888" xlink:href="#mdbd812b210" y="32.967529"/>
     <use style="fill:#f5deb3;stroke:#f5deb3;stroke-linejoin:miter;stroke-width:1.5;" x="175.218888" xlink:href="#mdbd812b210" y="27.648"/>
     <use style="fill:#f5deb3;stroke:#f5deb3;stroke-linejoin:miter;stroke-width:1.5;" x="360.8064" xlink:href="#mdbd812b210" y="27.648"/>
    </g>
   </g>
   <g id="line2d_3">
    <path style="fill:none;stroke:#f5deb3;stroke-linecap:square;stroke-width:4;"/>
    <g/>
   </g>
   <g id="line2d_4">
    <path d="M 360.8064 27.648 
L 380.514816 33.07392 
" style="fill:none;stroke:#f5deb3;stroke-linecap:square;stroke-width:4;"/>
    <g>
     <use style="fill:#f5deb3;stroke:#f5deb3;stroke-linejoin:miter;stroke-width:1.5;" x="360.8064" xlink:href="#mdbd812b210" y="27.648"/>
     <use style="fill:#f5deb3;stroke:#f5deb3;stroke-linejoin:miter;stroke-width:1.5;" x="380.514816" xlink:href="#mdbd812b210" y="33.07392"/>
    </g>
   </g>
   <g id="matplotlib.axis_1">
    <g id="xtick_1">
     <g id="line2d_5">
      <path clip-path="url(#p8639bf9915)" d="M 57.6 298.944 
L 57.6 27.648 
" style="fill:none;stroke:#b0b0b0;stroke-linecap:square;stroke-width:0.8;"/>
     </g>
     <g id="line2d_6">
      <defs>
       <path d="M 0 0 
L 0 3.5 
" id="me4f1291b2c" style="stroke:#000000;stroke-width:0.8;"/>
      </defs>
      <g>
       <use style="stroke:#000000;stroke-width:0.8;" x="57.6" xlink:href="#me4f1291b2c" y="298.944"/>
      </g>
     </g>
     <g id="text_1">
      <!-- 0 -->
      <g transform="translate(52.191875 318.861344)scale(0.17 -0.17)">
       <defs>
        <path d="M 2034 4250 
Q 1547 4250 1301 3770 
Q 1056 3291 1056 2328 
Q 1056 1369 1301 889 
Q 1547 409 2034 409 
Q 2525 409 2770 889 
Q 3016 1369 3016 2328 
Q 3016 3291 2770 3770 
Q 2525 4250 2034 4250 
z
M 2034 4750 
Q 2819 4750 3233 4129 
Q 3647 3509 3647 2328 
Q 3647 1150 3233 529 
Q 2819 -91 2034 -91 
Q 1250 -91 836 529 
Q 422 1150 422 2328 
Q 422 3509 836 4129 
Q 1250 4750 2034 4750 
z
" id="DejaVuSans-30" transform="scale(0.015625)"/>
       </defs>
       <use xlink:href="#DejaVuSans-30"/>
      </g>
     </g>
    </g>
    <g id="xtick_2">
     <g id="line2d_7">
      <path clip-path="url(#p8639bf9915)" d="M 144.2304 298.944 
L 144.2304 27.648 
" style="fill:none;stroke:#b0b0b0;stroke-linecap:square;stroke-width:0.8;"/>
     </g>
     <g id="line2d_8">
      <g>
       <use style="stroke:#000000;stroke-width:0.8;" x="144.2304" xlink:href="#me4f1291b2c" y="298.944"/>
      </g>
     </g>
     <g id="text_2">
      <!-- 2 -->
      <g transform="translate(138.822275 318.861344)scale(0.17 -0.17)">
       <defs>
        <path d="M 1228 531 
L 3431 531 
L 3431 0 
L 469 0 
L 469 531 
Q 828 903 1448 1529 
Q 2069 2156 2228 2338 
Q 2531 2678 2651 2914 
Q 2772 3150 2772 3378 
Q 2772 3750 2511 3984 
Q 2250 4219 1831 4219 
Q 1534 4219 1204 4116 
Q 875 4013 500 3803 
L 500 4441 
Q 881 4594 1212 4672 
Q 1544 4750 1819 4750 
Q 2544 4750 2975 4387 
Q 3406 4025 3406 3419 
Q 3406 3131 3298 2873 
Q 3191 2616 2906 2266 
Q 2828 2175 2409 1742 
Q 1991 1309 1228 531 
z
" id="DejaVuSans-32" transform="scale(0.015625)"/>
       </defs>
       <use xlink:href="#DejaVuSans-32"/>
      </g>
     </g>
    </g>
    <g id="xtick_3">
     <g id="line2d_9">
      <path clip-path="url(#p8639bf9915)" d="M 230.8608 298.944 
L 230.8608 27.648 
" style="fill:none;stroke:#b0b0b0;stroke-linecap:square;stroke-width:0.8;"/>
     </g>
     <g id="line2d_10">
      <g>
       <use style="stroke:#000000;stroke-width:0.8;" x="230.8608" xlink:href="#me4f1291b2c" y="298.944"/>
      </g>
     </g>
     <g id="text_3">
      <!-- 4 -->
      <g transform="translate(225.452675 318.861344)scale(0.17 -0.17)">
       <defs>
        <path d="M 2419 4116 
L 825 1625 
L 2419 1625 
L 2419 4116 
z
M 2253 4666 
L 3047 4666 
L 3047 1625 
L 3713 1625 
L 3713 1100 
L 3047 1100 
L 3047 0 
L 2419 0 
L 2419 1100 
L 313 1100 
L 313 1709 
L 2253 4666 
z
" id="DejaVuSans-34" transform="scale(0.015625)"/>
       </defs>
       <use xlink:href="#DejaVuSans-34"/>
      </g>
     </g>
    </g>
    <g id="xtick_4">
     <g id="line2d_11">
      <path clip-path="url(#p8639bf9915)" d="M 317.4912 298.944 
L 317.4912 27.648 
" style="fill:none;stroke:#b0b0b0;stroke-linecap:square;stroke-width:0.8;"/>
     </g>
     <g id="line2d_12">
      <g>
       <use style="stroke:#000000;stroke-width:0.8;" x="317.4912" xlink:href="#me4f1291b2c" y="298.944"/>
      </g>
     </g>
     <g id="text_4">
      <!-- 6 -->
      <g transform="translate(312.083075 318.861344)scale(0.17 -0.17)">
       <defs>
        <path d="M 2113 2584 
Q 1688 2584 1439 2293 
Q 1191 2003 1191 1497 
Q 1191 994 1439 701 
Q 1688 409 2113 409 
Q 2538 409 2786 701 
Q 3034 994 3034 1497 
Q 3034 2003 2786 2293 
Q 2538 2584 2113 2584 
z
M 3366 4563 
L 3366 3988 
Q 3128 4100 2886 4159 
Q 2644 4219 2406 4219 
Q 1781 4219 1451 3797 
Q 1122 3375 1075 2522 
Q 1259 2794 1537 2939 
Q 1816 3084 2150 3084 
Q 2853 3084 3261 2657 
Q 3669 2231 3669 1497 
Q 3669 778 3244 343 
Q 2819 -91 2113 -91 
Q 1303 -91 875 529 
Q 447 1150 447 2328 
Q 447 3434 972 4092 
Q 1497 4750 2381 4750 
Q 2619 4750 2861 4703 
Q 3103 4656 3366 4563 
z
" id="DejaVuSans-36" transform="scale(0.015625)"/>
       </defs>
       <use xlink:href="#DejaVuSans-36"/>
      </g>
     </g>
    </g>
    <g id="xtick_5">
     <g id="line2d_13">
      <path clip-path="url(#p8639bf9915)" d="M 100.9152 298.944 
L 100.9152 27.648 
" style="fill:none;stroke:#b0b0b0;stroke-linecap:square;stroke-width:0.8;"/>
     </g>
     <g id="line2d_14">
      <defs>
       <path d="M 0 0 
L 0 2 
" id="m5615d17f11" style="stroke:#000000;stroke-width:0.6;"/>
      </defs>
      <g>
       <use style="stroke:#000000;stroke-width:0.6;" x="100.9152" xlink:href="#m5615d17f11" y="298.944"/>
      </g>
     </g>
    </g>
    <g id="xtick_6">
     <g id="line2d_15">
      <path clip-path="url(#p8639bf9915)" d="M 187.5456 298.944 
L 187.5456 27.648 
" style="fill:none;stroke:#b0b0b0;stroke-linecap:square;stroke-width:0.8;"/>
     </g>
     <g id="line2d_16">
      <g>
       <use style="stroke:#000000;stroke-width:0.6;" x="187.5456" xlink:href="#m5615d17f11" y="298.944"/>
      </g>
     </g>
    </g>
    <g id="xtick_7">
     <g id="line2d_17">
      <path clip-path="url(#p8639bf9915)" d="M 274.176 298.944 
L 274.176 27.648 
" style="fill:none;stroke:#b0b0b0;stroke-linecap:square;stroke-width:0.8;"/>
     </g>
     <g id="line2d_18">
      <g>
       <use style="stroke:#000000;stroke-width:0.6;" x="274.176" xlink:href="#m5615d17f11" y="298.944"/>
      </g>
     </g>
    </g>
    <g id="xtick_8">
     <g id="line2d_19">
      <path clip-path="url(#p8639bf9915)" d="M 360.8064 298.944 
L 360.8064 27.648 
" style="fill:none;stroke:#b0b0b0;stroke-linecap:square;stroke-width:0.8;"/>
     </g>
     <g id="line2d_20">
      <g>
       <use style="stroke:#000000;stroke-width:0.6;" x="360.8064" xlink:href="#m5615d17f11" y="298.944"/>
      </g>
     </g>
    </g>
    <g id="text_5">
     <!-- log10(# f-evals / dimension) -->
     <g transform="translate(88.823278 339.314156)scale(0.17 -0.17)">
      <defs>
       <path d="M 603 4863 
L 1178 4863 
L 1178 0 
L 603 0 
L 603 4863 
z
" id="DejaVuSans-6c" transform="scale(0.015625)"/>
       <path d="M 1959 3097 
Q 1497 3097 1228 2736 
Q 959 2375 959 1747 
Q 959 1119 1226 758 
Q 1494 397 1959 397 
Q 2419 397 2687 759 
Q 2956 1122 2956 1747 
Q 2956 2369 2687 2733 
Q 2419 3097 1959 3097 
z
M 1959 3584 
Q 2709 3584 3137 3096 
Q 3566 2609 3566 1747 
Q 3566 888 3137 398 
Q 2709 -91 1959 -91 
Q 1206 -91 779 398 
Q 353 888 353 1747 
Q 353 2609 779 3096 
Q 1206 3584 1959 3584 
z
" id="DejaVuSans-6f" transform="scale(0.015625)"/>
       <path d="M 2906 1791 
Q 2906 2416 2648 2759 
Q 2391 3103 1925 3103 
Q 1463 3103 1205 2759 
Q 947 2416 947 1791 
Q 947 1169 1205 825 
Q 1463 481 1925 481 
Q 2391 481 2648 825 
Q 2906 1169 2906 1791 
z
M 3481 434 
Q 3481 -459 3084 -895 
Q 2688 -1331 1869 -1331 
Q 1566 -1331 1297 -1286 
Q 1028 -1241 775 -1147 
L 775 -588 
Q 1028 -725 1275 -790 
Q 1522 -856 1778 -856 
Q 2344 -856 2625 -561 
Q 2906 -266 2906 331 
L 2906 616 
Q 2728 306 2450 153 
Q 2172 0 1784 0 
Q 1141 0 747 490 
Q 353 981 353 1791 
Q 353 2603 747 3093 
Q 1141 3584 1784 3584 
Q 2172 3584 2450 3431 
Q 2728 3278 2906 2969 
L 2906 3500 
L 3481 3500 
L 3481 434 
z
" id="DejaVuSans-67" transform="scale(0.015625)"/>
       <path d="M 794 531 
L 1825 531 
L 1825 4091 
L 703 3866 
L 703 4441 
L 1819 4666 
L 2450 4666 
L 2450 531 
L 3481 531 
L 3481 0 
L 794 0 
L 794 531 
z
" id="DejaVuSans-31" transform="scale(0.015625)"/>
       <path d="M 1984 4856 
Q 1566 4138 1362 3434 
Q 1159 2731 1159 2009 
Q 1159 1288 1364 580 
Q 1569 -128 1984 -844 
L 1484 -844 
Q 1016 -109 783 600 
Q 550 1309 550 2009 
Q 550 2706 781 3412 
Q 1013 4119 1484 4856 
L 1984 4856 
z
" id="DejaVuSans-28" transform="scale(0.015625)"/>
       <path d="M 3272 2816 
L 2363 2816 
L 2100 1772 
L 3016 1772 
L 3272 2816 
z
M 2803 4594 
L 2478 3297 
L 3391 3297 
L 3719 4594 
L 4219 4594 
L 3897 3297 
L 4872 3297 
L 4872 2816 
L 3775 2816 
L 3519 1772 
L 4513 1772 
L 4513 1294 
L 3397 1294 
L 3072 0 
L 2572 0 
L 2894 1294 
L 1978 1294 
L 1656 0 
L 1153 0 
L 1478 1294 
L 494 1294 
L 494 1772 
L 1594 1772 
L 1856 2816 
L 850 2816 
L 850 3297 
L 1978 3297 
L 2297 4594 
L 2803 4594 
z
" id="DejaVuSans-23" transform="scale(0.015625)"/>
       <path id="DejaVuSans-20" transform="scale(0.015625)"/>
       <path d="M 2375 4863 
L 2375 4384 
L 1825 4384 
Q 1516 4384 1395 4259 
Q 1275 4134 1275 3809 
L 1275 3500 
L 2222 3500 
L 2222 3053 
L 1275 3053 
L 1275 0 
L 697 0 
L 697 3053 
L 147 3053 
L 147 3500 
L 697 3500 
L 697 3744 
Q 697 4328 969 4595 
Q 1241 4863 1831 4863 
L 2375 4863 
z
" id="DejaVuSans-66" transform="scale(0.015625)"/>
       <path d="M 313 2009 
L 1997 2009 
L 1997 1497 
L 313 1497 
L 313 2009 
z
" id="DejaVuSans-2d" transform="scale(0.015625)"/>
       <path d="M 3597 1894 
L 3597 1613 
L 953 1613 
Q 991 1019 1311 708 
Q 1631 397 2203 397 
Q 2534 397 2845 478 
Q 3156 559 3463 722 
L 3463 178 
Q 3153 47 2828 -22 
Q 2503 -91 2169 -91 
Q 1331 -91 842 396 
Q 353 884 353 1716 
Q 353 2575 817 3079 
Q 1281 3584 2069 3584 
Q 2775 3584 3186 3129 
Q 3597 2675 3597 1894 
z
M 3022 2063 
Q 3016 2534 2758 2815 
Q 2500 3097 2075 3097 
Q 1594 3097 1305 2825 
Q 1016 2553 972 2059 
L 3022 2063 
z
" id="DejaVuSans-65" transform="scale(0.015625)"/>
       <path d="M 191 3500 
L 800 3500 
L 1894 563 
L 2988 3500 
L 3597 3500 
L 2284 0 
L 1503 0 
L 191 3500 
z
" id="DejaVuSans-76" transform="scale(0.015625)"/>
       <path d="M 2194 1759 
Q 1497 1759 1228 1600 
Q 959 1441 959 1056 
Q 959 750 1161 570 
Q 1363 391 1709 391 
Q 2188 391 2477 730 
Q 2766 1069 2766 1631 
L 2766 1759 
L 2194 1759 
z
M 3341 1997 
L 3341 0 
L 2766 0 
L 2766 531 
Q 2569 213 2275 61 
Q 1981 -91 1556 -91 
Q 1019 -91 701 211 
Q 384 513 384 1019 
Q 384 1609 779 1909 
Q 1175 2209 1959 2209 
L 2766 2209 
L 2766 2266 
Q 2766 2663 2505 2880 
Q 2244 3097 1772 3097 
Q 1472 3097 1187 3025 
Q 903 2953 641 2809 
L 641 3341 
Q 956 3463 1253 3523 
Q 1550 3584 1831 3584 
Q 2591 3584 2966 3190 
Q 3341 2797 3341 1997 
z
" id="DejaVuSans-61" transform="scale(0.015625)"/>
       <path d="M 2834 3397 
L 2834 2853 
Q 2591 2978 2328 3040 
Q 2066 3103 1784 3103 
Q 1356 3103 1142 2972 
Q 928 2841 928 2578 
Q 928 2378 1081 2264 
Q 1234 2150 1697 2047 
L 1894 2003 
Q 2506 1872 2764 1633 
Q 3022 1394 3022 966 
Q 3022 478 2636 193 
Q 2250 -91 1575 -91 
Q 1294 -91 989 -36 
Q 684 19 347 128 
L 347 722 
Q 666 556 975 473 
Q 1284 391 1588 391 
Q 1994 391 2212 530 
Q 2431 669 2431 922 
Q 2431 1156 2273 1281 
Q 2116 1406 1581 1522 
L 1381 1569 
Q 847 1681 609 1914 
Q 372 2147 372 2553 
Q 372 3047 722 3315 
Q 1072 3584 1716 3584 
Q 2034 3584 2315 3537 
Q 2597 3491 2834 3397 
z
" id="DejaVuSans-73" transform="scale(0.015625)"/>
       <path d="M 1625 4666 
L 2156 4666 
L 531 -594 
L 0 -594 
L 1625 4666 
z
" id="DejaVuSans-2f" transform="scale(0.015625)"/>
       <path d="M 2906 2969 
L 2906 4863 
L 3481 4863 
L 3481 0 
L 2906 0 
L 2906 525 
Q 2725 213 2448 61 
Q 2172 -91 1784 -91 
Q 1150 -91 751 415 
Q 353 922 353 1747 
Q 353 2572 751 3078 
Q 1150 3584 1784 3584 
Q 2172 3584 2448 3432 
Q 2725 3281 2906 2969 
z
M 947 1747 
Q 947 1113 1208 752 
Q 1469 391 1925 391 
Q 2381 391 2643 752 
Q 2906 1113 2906 1747 
Q 2906 2381 2643 2742 
Q 2381 3103 1925 3103 
Q 1469 3103 1208 2742 
Q 947 2381 947 1747 
z
" id="DejaVuSans-64" transform="scale(0.015625)"/>
       <path d="M 603 3500 
L 1178 3500 
L 1178 0 
L 603 0 
L 603 3500 
z
M 603 4863 
L 1178 4863 
L 1178 4134 
L 603 4134 
L 603 4863 
z
" id="DejaVuSans-69" transform="scale(0.015625)"/>
       <path d="M 3328 2828 
Q 3544 3216 3844 3400 
Q 4144 3584 4550 3584 
Q 5097 3584 5394 3201 
Q 5691 2819 5691 2113 
L 5691 0 
L 5113 0 
L 5113 2094 
Q 5113 2597 4934 2840 
Q 4756 3084 4391 3084 
Q 3944 3084 3684 2787 
Q 3425 2491 3425 1978 
L 3425 0 
L 2847 0 
L 2847 2094 
Q 2847 2600 2669 2842 
Q 2491 3084 2119 3084 
Q 1678 3084 1418 2786 
Q 1159 2488 1159 1978 
L 1159 0 
L 581 0 
L 581 3500 
L 1159 3500 
L 1159 2956 
Q 1356 3278 1631 3431 
Q 1906 3584 2284 3584 
Q 2666 3584 2933 3390 
Q 3200 3197 3328 2828 
z
" id="DejaVuSans-6d" transform="scale(0.015625)"/>
       <path d="M 3513 2113 
L 3513 0 
L 2938 0 
L 2938 2094 
Q 2938 2591 2744 2837 
Q 2550 3084 2163 3084 
Q 1697 3084 1428 2787 
Q 1159 2491 1159 1978 
L 1159 0 
L 581 0 
L 581 3500 
L 1159 3500 
L 1159 2956 
Q 1366 3272 1645 3428 
Q 1925 3584 2291 3584 
Q 2894 3584 3203 3211 
Q 3513 2838 3513 2113 
z
" id="DejaVuSans-6e" transform="scale(0.015625)"/>
       <path d="M 513 4856 
L 1013 4856 
Q 1481 4119 1714 3412 
Q 1947 2706 1947 2009 
Q 1947 1309 1714 600 
Q 1481 -109 1013 -844 
L 513 -844 
Q 928 -128 1133 580 
Q 1338 1288 1338 2009 
Q 1338 2731 1133 3434 
Q 928 4138 513 4856 
z
" id="DejaVuSans-29" transform="scale(0.015625)"/>
      </defs>
      <use xlink:href="#DejaVuSans-6c"/>
      <use x="27.783203" xlink:href="#DejaVuSans-6f"/>
      <use x="88.964844" xlink:href="#DejaVuSans-67"/>
      <use x="152.441406" xlink:href="#DejaVuSans-31"/>
      <use x="216.064453" xlink:href="#DejaVuSans-30"/>
      <use x="279.6875" xlink:href="#DejaVuSans-28"/>
      <use x="318.701172" xlink:href="#DejaVuSans-23"/>
      <use x="402.490234" xlink:href="#DejaVuSans-20"/>
      <use x="434.277344" xlink:href="#DejaVuSans-66"/>
      <use x="463.982422" xlink:href="#DejaVuSans-2d"/>
      <use x="500.066406" xlink:href="#DejaVuSans-65"/>
      <use x="561.589844" xlink:href="#DejaVuSans-76"/>
      <use x="620.769531" xlink:href="#DejaVuSans-61"/>
      <use x="682.048828" xlink:href="#DejaVuSans-6c"/>
      <use x="709.832031" xlink:href="#DejaVuSans-73"/>
      <use x="761.931641" xlink:href="#DejaVuSans-20"/>
      <use x="793.71875" xlink:href="#DejaVuSans-2f"/>
      <use x="827.410156" xlink:href="#DejaVuSans-20"/>
      <use x="859.197266" xlink:href="#DejaVuSans-64"/>
      <use x="922.673828" xlink:href="#DejaVuSans-69"/>
      <use x="950.457031" xlink:href="#DejaVuSans-6d"/>
      <use x="1047.869141" xlink:href="#DejaVuSans-65"/>
      <use x="1109.392578" xlink:href="#DejaVuSans-6e"/>
      <use x="1172.771484" xlink:href="#DejaVuSans-73"/>
      <use x="1224.871094" xlink:href="#DejaVuSans-69"/>
      <use x="1252.654297" xlink:href="#DejaVuSans-6f"/>
      <use x="1313.835938" xlink:href="#DejaVuSans-6e"/>
      <use x="1377.214844" xlink:href="#DejaVuSans-29"/>
     </g>
    </g>
   </g>
   <g id="matplotlib.axis_2">
    <g id="ytick_1">
     <g id="line2d_21">
      <path clip-path="url(#p8639bf9915)" d="M 57.6 298.944 
L 360.8064 298.944 
" style="fill:none;stroke:#b0b0b0;stroke-linecap:square;stroke-width:0.8;"/>
     </g>
     <g id="line2d_22">
      <defs>
       <path d="M 0 0 
L -3.5 0 
" id="m1315b5538b" style="stroke:#000000;stroke-width:0.8;"/>
      </defs>
      <g>
       <use style="stroke:#000000;stroke-width:0.8;" x="57.6" xlink:href="#m1315b5538b" y="298.944"/>
      </g>
     </g>
     <g id="text_6">
      <!-- 0.0 -->
      <g transform="translate(25.155 305.02275)scale(0.16 -0.16)">
       <defs>
        <path d="M 684 794 
L 1344 794 
L 1344 0 
L 684 0 
L 684 794 
z
" id="DejaVuSans-2e" transform="scale(0.015625)"/>
       </defs>
       <use xlink:href="#DejaVuSans-30"/>
       <use x="63.623047" xlink:href="#DejaVuSans-2e"/>
       <use x="95.410156" xlink:href="#DejaVuSans-30"/>
      </g>
     </g>
    </g>
    <g id="ytick_2">
     <g id="line2d_23">
      <path clip-path="url(#p8639bf9915)" d="M 57.6 244.6848 
L 360.8064 244.6848 
" style="fill:none;stroke:#b0b0b0;stroke-linecap:square;stroke-width:0.8;"/>
     </g>
     <g id="line2d_24">
      <g>
       <use style="stroke:#000000;stroke-width:0.8;" x="57.6" xlink:href="#m1315b5538b" y="244.6848"/>
      </g>
     </g>
     <g id="text_7">
      <!-- 0.2 -->
      <g transform="translate(25.155 250.76355)scale(0.16 -0.16)">
       <use xlink:href="#DejaVuSans-30"/>
       <use x="63.623047" xlink:href="#DejaVuSans-2e"/>
       <use x="95.410156" xlink:href="#DejaVuSans-32"/>
      </g>
     </g>
    </g>
    <g id="ytick_3">
     <g id="line2d_25">
      <path clip-path="url(#p8639bf9915)" d="M 57.6 190.4256 
L 360.8064 190.4256 
" style="fill:none;stroke:#b0b0b0;stroke-linecap:square;stroke-width:0.8;"/>
     </g>
     <g id="line2d_26">
      <g>
       <use style="stroke:#000000;stroke-width:0.8;" x="57.6" xlink:href="#m1315b5538b" y="190.4256"/>
      </g>
     </g>
     <g id="text_8">
      <!-- 0.4 -->
      <g transform="translate(25.155 196.50435)scale(0.16 -0.16)">
       <use xlink:href="#DejaVuSans-30"/>
       <use x="63.623047" xlink:href="#DejaVuSans-2e"/>
       <use x="95.410156" xlink:href="#DejaVuSans-34"/>
      </g>
     </g>
    </g>
    <g id="ytick_4">
     <g id="line2d_27">
      <path clip-path="url(#p8639bf9915)" d="M 57.6 136.1664 
L 360.8064 136.1664 
" style="fill:none;stroke:#b0b0b0;stroke-linecap:square;stroke-width:0.8;"/>
     </g>
     <g id="line2d_28">
      <g>
       <use style="stroke:#000000;stroke-width:0.8;" x="57.6" xlink:href="#m1315b5538b" y="136.1664"/>
      </g>
     </g>
     <g id="text_9">
      <!-- 0.6 -->
      <g transform="translate(25.155 142.24515)scale(0.16 -0.16)">
       <use xlink:href="#DejaVuSans-30"/>
       <use x="63.623047" xlink:href="#DejaVuSans-2e"/>
       <use x="95.410156" xlink:href="#DejaVuSans-36"/>
      </g>
     </g>
    </g>
    <g id="ytick_5">
     <g id="line2d_29">
      <path clip-path="url(#p8639bf9915)" d="M 57.6 81.9072 
L 360.8064 81.9072 
" style="fill:none;stroke:#b0b0b0;stroke-linecap:square;stroke-width:0.8;"/>
     </g>
     <g id="line2d_30">
      <g>
       <use style="stroke:#000000;stroke-width:0.8;" x="57.6" xlink:href="#m1315b5538b" y="81.9072"/>
      </g>
     </g>
     <g id="text_10">
      <!-- 0.8 -->
      <g transform="translate(25.155 87.98595)scale(0.16 -0.16)">
       <defs>
        <path d="M 2034 2216 
Q 1584 2216 1326 1975 
Q 1069 1734 1069 1313 
Q 1069 891 1326 650 
Q 1584 409 2034 409 
Q 2484 409 2743 651 
Q 3003 894 3003 1313 
Q 3003 1734 2745 1975 
Q 2488 2216 2034 2216 
z
M 1403 2484 
Q 997 2584 770 2862 
Q 544 3141 544 3541 
Q 544 4100 942 4425 
Q 1341 4750 2034 4750 
Q 2731 4750 3128 4425 
Q 3525 4100 3525 3541 
Q 3525 3141 3298 2862 
Q 3072 2584 2669 2484 
Q 3125 2378 3379 2068 
Q 3634 1759 3634 1313 
Q 3634 634 3220 271 
Q 2806 -91 2034 -91 
Q 1263 -91 848 271 
Q 434 634 434 1313 
Q 434 1759 690 2068 
Q 947 2378 1403 2484 
z
M 1172 3481 
Q 1172 3119 1398 2916 
Q 1625 2713 2034 2713 
Q 2441 2713 2670 2916 
Q 2900 3119 2900 3481 
Q 2900 3844 2670 4047 
Q 2441 4250 2034 4250 
Q 1625 4250 1398 4047 
Q 1172 3844 1172 3481 
z
" id="DejaVuSans-38" transform="scale(0.015625)"/>
       </defs>
       <use xlink:href="#DejaVuSans-30"/>
       <use x="63.623047" xlink:href="#DejaVuSans-2e"/>
       <use x="95.410156" xlink:href="#DejaVuSans-38"/>
      </g>
     </g>
    </g>
    <g id="ytick_6">
     <g id="line2d_31">
      <path clip-path="url(#p8639bf9915)" d="M 57.6 27.648 
L 360.8064 27.648 
" style="fill:none;stroke:#b0b0b0;stroke-linecap:square;stroke-width:0.8;"/>
     </g>
     <g id="line2d_32">
      <g>
       <use style="stroke:#000000;stroke-width:0.8;" x="57.6" xlink:href="#m1315b5538b" y="27.648"/>
      </g>
     </g>
     <g id="text_11">
      <!-- 1.0 -->
      <g transform="translate(25.155 33.72675)scale(0.16 -0.16)">
       <use xlink:href="#DejaVuSans-31"/>
       <use x="63.623047" xlink:href="#DejaVuSans-2e"/>
       <use x="95.410156" xlink:href="#DejaVuSans-30"/>
      </g>
     </g>
    </g>
    <g id="text_12">
     <!-- Fraction of function,target pairs -->
     <g transform="translate(17.619531 297.681)rotate(-90)scale(0.17 -0.17)">
      <defs>
       <path d="M 628 4666 
L 3309 4666 
L 3309 4134 
L 1259 4134 
L 1259 2759 
L 3109 2759 
L 3109 2228 
L 1259 2228 
L 1259 0 
L 628 0 
L 628 4666 
z
" id="DejaVuSans-46" transform="scale(0.015625)"/>
       <path d="M 2631 2963 
Q 2534 3019 2420 3045 
Q 2306 3072 2169 3072 
Q 1681 3072 1420 2755 
Q 1159 2438 1159 1844 
L 1159 0 
L 581 0 
L 581 3500 
L 1159 3500 
L 1159 2956 
Q 1341 3275 1631 3429 
Q 1922 3584 2338 3584 
Q 2397 3584 2469 3576 
Q 2541 3569 2628 3553 
L 2631 2963 
z
" id="DejaVuSans-72" transform="scale(0.015625)"/>
       <path d="M 3122 3366 
L 3122 2828 
Q 2878 2963 2633 3030 
Q 2388 3097 2138 3097 
Q 1578 3097 1268 2742 
Q 959 2388 959 1747 
Q 959 1106 1268 751 
Q 1578 397 2138 397 
Q 2388 397 2633 464 
Q 2878 531 3122 666 
L 3122 134 
Q 2881 22 2623 -34 
Q 2366 -91 2075 -91 
Q 1284 -91 818 406 
Q 353 903 353 1747 
Q 353 2603 823 3093 
Q 1294 3584 2113 3584 
Q 2378 3584 2631 3529 
Q 2884 3475 3122 3366 
z
" id="DejaVuSans-63" transform="scale(0.015625)"/>
       <path d="M 1172 4494 
L 1172 3500 
L 2356 3500 
L 2356 3053 
L 1172 3053 
L 1172 1153 
Q 1172 725 1289 603 
Q 1406 481 1766 481 
L 2356 481 
L 2356 0 
L 1766 0 
Q 1100 0 847 248 
Q 594 497 594 1153 
L 594 3053 
L 172 3053 
L 172 3500 
L 594 3500 
L 594 4494 
L 1172 4494 
z
" id="DejaVuSans-74" transform="scale(0.015625)"/>
       <path d="M 544 1381 
L 544 3500 
L 1119 3500 
L 1119 1403 
Q 1119 906 1312 657 
Q 1506 409 1894 409 
Q 2359 409 2629 706 
Q 2900 1003 2900 1516 
L 2900 3500 
L 3475 3500 
L 3475 0 
L 2900 0 
L 2900 538 
Q 2691 219 2414 64 
Q 2138 -91 1772 -91 
Q 1169 -91 856 284 
Q 544 659 544 1381 
z
M 1991 3584 
L 1991 3584 
z
" id="DejaVuSans-75" transform="scale(0.015625)"/>
       <path d="M 750 794 
L 1409 794 
L 1409 256 
L 897 -744 
L 494 -744 
L 750 256 
L 750 794 
z
" id="DejaVuSans-2c" transform="scale(0.015625)"/>
       <path d="M 1159 525 
L 1159 -1331 
L 581 -1331 
L 581 3500 
L 1159 3500 
L 1159 2969 
Q 1341 3281 1617 3432 
Q 1894 3584 2278 3584 
Q 2916 3584 3314 3078 
Q 3713 2572 3713 1747 
Q 3713 922 3314 415 
Q 2916 -91 2278 -91 
Q 1894 -91 1617 61 
Q 1341 213 1159 525 
z
M 3116 1747 
Q 3116 2381 2855 2742 
Q 2594 3103 2138 3103 
Q 1681 3103 1420 2742 
Q 1159 2381 1159 1747 
Q 1159 1113 1420 752 
Q 1681 391 2138 391 
Q 2594 391 2855 752 
Q 3116 1113 3116 1747 
z
" id="DejaVuSans-70" transform="scale(0.015625)"/>
      </defs>
      <use xlink:href="#DejaVuSans-46"/>
      <use x="50.269531" xlink:href="#DejaVuSans-72"/>
      <use x="91.382812" xlink:href="#DejaVuSans-61"/>
      <use x="152.662109" xlink:href="#DejaVuSans-63"/>
      <use x="207.642578" xlink:href="#DejaVuSans-74"/>
      <use x="246.851562" xlink:href="#DejaVuSans-69"/>
      <use x="274.634766" xlink:href="#DejaVuSans-6f"/>
      <use x="335.816406" xlink:href="#DejaVuSans-6e"/>
      <use x="399.195312" xlink:href="#DejaVuSans-20"/>
      <use x="430.982422" xlink:href="#DejaVuSans-6f"/>
      <use x="492.164062" xlink:href="#DejaVuSans-66"/>
      <use x="527.369141" xlink:href="#DejaVuSans-20"/>
      <use x="559.15625" xlink:href="#DejaVuSans-66"/>
      <use x="594.361328" xlink:href="#DejaVuSans-75"/>
      <use x="657.740234" xlink:href="#DejaVuSans-6e"/>
      <use x="721.119141" xlink:href="#DejaVuSans-63"/>
      <use x="776.099609" xlink:href="#DejaVuSans-74"/>
      <use x="815.308594" xlink:href="#DejaVuSans-69"/>
      <use x="843.091797" xlink:href="#DejaVuSans-6f"/>
      <use x="904.273438" xlink:href="#DejaVuSans-6e"/>
      <use x="967.652344" xlink:href="#DejaVuSans-2c"/>
      <use x="999.439453" xlink:href="#DejaVuSans-74"/>
      <use x="1038.648438" xlink:href="#DejaVuSans-61"/>
      <use x="1099.927734" xlink:href="#DejaVuSans-72"/>
      <use x="1139.291016" xlink:href="#DejaVuSans-67"/>
      <use x="1202.767578" xlink:href="#DejaVuSans-65"/>
      <use x="1264.291016" xlink:href="#DejaVuSans-74"/>
      <use x="1303.5" xlink:href="#DejaVuSans-20"/>
      <use x="1335.287109" xlink:href="#DejaVuSans-70"/>
      <use x="1398.763672" xlink:href="#DejaVuSans-61"/>
      <use x="1460.042969" xlink:href="#DejaVuSans-69"/>
      <use x="1487.826172" xlink:href="#DejaVuSans-72"/>
      <use x="1528.939453" xlink:href="#DejaVuSans-73"/>
     </g>
    </g>
   </g>
   <g id="line2d_33">
    <defs>
     <path d="M 0 1.5 
C 0.397805 1.5 0.77937 1.341951 1.06066 1.06066 
C 1.341951 0.77937 1.5 0.397805 1.5 0 
C 1.5 -0.397805 1.341951 -0.77937 1.06066 -1.06066 
C 0.77937 -1.341951 0.397805 -1.5 0 -1.5 
C -0.397805 -1.5 -0.77937 -1.341951 -1.06066 -1.06066 
C -1.341951 -0.77937 -1.5 -0.397805 -1.5 0 
C -1.5 0.397805 -1.341951 0.77937 -1.06066 1.06066 
C -0.77937 1.341951 -0.397805 1.5 0 1.5 
z
" id="me23b28de7a" style="stroke:#f5deb3;"/>
    </defs>
    <g>
     <use style="fill:#f5deb3;stroke:#f5deb3;" x="175.218888" xlink:href="#me23b28de7a" y="27.648"/>
     <use style="fill:#f5deb3;stroke:#f5deb3;" x="175.218888" xlink:href="#me23b28de7a" y="27.648"/>
    </g>
   </g>
   <g id="line2d_34">
    <defs>
     <path d="M 0 1.5 
C 0.397805 1.5 0.77937 1.341951 1.06066 1.06066 
C 1.341951 0.77937 1.5 0.397805 1.5 0 
C 1.5 -0.397805 1.341951 -0.77937 1.06066 -1.06066 
C 0.77937 -1.341951 0.397805 -1.5 0 -1.5 
C -0.397805 -1.5 -0.77937 -1.341951 -1.06066 -1.06066 
C -1.341951 -0.77937 -1.5 -0.397805 -1.5 0 
C -1.5 0.397805 -1.341951 0.77937 -1.06066 1.06066 
C -0.77937 1.341951 -0.397805 1.5 0 1.5 
z
" id="mc8b69b073e" style="stroke:#000080;"/>
    </defs>
    <g>
     <use style="fill:#000080;stroke:#000080;" x="274.710611" xlink:href="#mc8b69b073e" y="277.665882"/>
     <use style="fill:#000080;stroke:#000080;" x="274.710611" xlink:href="#mc8b69b073e" y="277.665882"/>
    </g>
   </g>
   <g id="line2d_35">
    <path d="M 117.772007 298.944 
L 117.772007 298.589365 
L 126.372018 298.589365 
L 126.372018 298.234729 
L 138.438609 298.234729 
L 138.438609 297.880094 
L 140.520157 297.880094 
L 140.520157 297.525459 
L 160.102084 297.525459 
L 160.102084 296.816188 
L 163.22595 296.816188 
L 163.22595 296.461553 
L 168.642835 296.461553 
L 168.642835 296.106918 
L 170.00055 296.106918 
L 170.00055 295.752282 
L 170.171868 295.752282 
L 170.171868 295.397647 
L 171.257894 295.397647 
L 171.257894 294.688376 
L 174.328761 294.688376 
L 174.328761 294.333741 
L 177.353493 294.333741 
L 177.353493 293.979106 
L 182.365682 293.979106 
L 182.365682 293.624471 
L 190.892083 293.624471 
L 190.892083 293.269835 
L 191.951307 293.269835 
L 191.951307 292.9152 
L 193.427816 292.9152 
L 193.427816 292.560565 
L 193.978345 292.560565 
L 193.978345 292.205929 
L 196.41412 292.205929 
L 196.41412 291.851294 
L 199.776636 291.851294 
L 199.776636 291.496659 
L 200.032141 291.496659 
L 200.032141 290.787388 
L 203.905259 290.787388 
L 203.905259 290.432753 
L 205.709584 290.432753 
L 205.709584 290.078118 
L 207.132759 290.078118 
L 207.132759 289.368847 
L 209.957762 289.368847 
L 209.957762 289.014212 
L 211.984222 289.014212 
L 211.984222 288.659576 
L 212.228922 288.659576 
L 212.228922 288.304941 
L 212.722795 288.304941 
L 212.722795 287.950306 
L 213.630062 287.950306 
L 213.630062 287.595671 
L 215.280001 287.595671 
L 215.280001 287.241035 
L 216.901418 287.241035 
L 216.901418 286.8864 
L 221.075295 286.8864 
L 221.075295 285.822494 
L 223.124799 285.822494 
L 223.124799 285.467859 
L 225.866028 285.467859 
L 225.866028 285.113224 
L 226.222757 285.113224 
L 226.222757 284.758588 
L 226.670882 284.758588 
L 226.670882 284.403953 
L 232.372373 284.403953 
L 232.372373 282.630776 
L 233.152744 282.630776 
L 233.152744 282.276141 
L 234.298858 282.276141 
L 234.298858 281.921506 
L 238.284846 281.921506 
L 238.284846 281.566871 
L 239.710879 281.566871 
L 239.710879 281.212235 
L 242.776683 281.212235 
L 242.776683 280.8576 
L 246.400017 280.8576 
L 246.400017 280.148329 
L 254.34572 280.148329 
L 254.34572 279.793694 
L 254.966192 279.793694 
L 254.966192 279.439059 
L 256.390729 279.439059 
L 256.390729 279.084424 
L 262.881367 279.084424 
L 262.881367 278.375153 
L 264.205942 278.375153 
L 264.205942 278.020518 
L 274.710611 278.020518 
L 274.710611 277.665882 
L 360.8064 277.665882 
" style="fill:none;stroke:#000080;stroke-linecap:square;stroke-width:1.5;"/>
   </g>
   <g id="line2d_36">
    <defs>
     <path d="M 0 6 
C 1.591219 6 3.117479 5.367802 4.242641 4.242641 
C 5.367802 3.117479 6 1.591219 6 0 
C 6 -1.591219 5.367802 -3.117479 4.242641 -4.242641 
C 3.117479 -5.367802 1.591219 -6 0 -6 
C -1.591219 -6 -3.117479 -5.367802 -4.242641 -4.242641 
C -5.367802 -3.117479 -6 -1.591219 -6 0 
C -6 1.591219 -5.367802 3.117479 -4.242641 4.242641 
C -3.117479 5.367802 -1.591219 6 0 6 
z
" id="m7b868c038c" style="stroke:#000080;stroke-width:1.5;"/>
    </defs>
    <g>
     <use style="fill-opacity:0;stroke:#000080;stroke-width:1.5;" x="213.630062" xlink:href="#m7b868c038c" y="287.950306"/>
     <use style="fill-opacity:0;stroke:#000080;stroke-width:1.5;" x="274.710611" xlink:href="#m7b868c038c" y="278.020518"/>
     <use style="fill-opacity:0;stroke:#000080;stroke-width:1.5;" x="274.710611" xlink:href="#m7b868c038c" y="277.665882"/>
     <use style="fill-opacity:0;stroke:#000080;stroke-width:1.5;" x="274.710611" xlink:href="#m7b868c038c" y="277.665882"/>
     <use style="fill-opacity:0;stroke:#000080;stroke-width:1.5;" x="360.8064" xlink:href="#m7b868c038c" y="277.665882"/>
    </g>
   </g>
   <g id="line2d_37">
    <path style="fill:none;stroke:#000080;stroke-linecap:square;stroke-width:1.5;"/>
    <g/>
   </g>
   <g id="line2d_38">
    <path clip-path="url(#p8639bf9915)" d="M 213.633352 287.595671 
" style="fill:none;stroke:#000080;stroke-linecap:square;stroke-width:1.5;"/>
    <defs>
     <path d="M -12 12 
L 12 -12 
M -12 -12 
L 12 12 
" id="m0614d90cf2" style="stroke:#000080;"/>
    </defs>
    <g clip-path="url(#p8639bf9915)">
     <use style="fill:#000080;stroke:#000080;" x="213.633352" xlink:href="#m0614d90cf2" y="287.595671"/>
    </g>
   </g>
   <g id="line2d_39">
    <defs>
     <path d="M 0 1.5 
C 0.397805 1.5 0.77937 1.341951 1.06066 1.06066 
C 1.341951 0.77937 1.5 0.397805 1.5 0 
C 1.5 -0.397805 1.341951 -0.77937 1.06066 -1.06066 
C 0.77937 -1.341951 0.397805 -1.5 0 -1.5 
C -0.397805 -1.5 -0.77937 -1.341951 -1.06066 -1.06066 
C -1.341951 -0.77937 -1.5 -0.397805 -1.5 0 
C -1.5 0.397805 -1.341951 0.77937 -1.06066 1.06066 
C -0.77937 1.341951 -0.397805 1.5 0 1.5 
z
" id="m95842a5a7a" style="stroke:#ff00ff;"/>
    </defs>
    <g>
     <use style="fill:#ff00ff;stroke:#ff00ff;" x="270.104898" xlink:href="#m95842a5a7a" y="27.648"/>
     <use style="fill:#ff00ff;stroke:#ff00ff;" x="270.104898" xlink:href="#m95842a5a7a" y="27.648"/>
    </g>
   </g>
   <g id="line2d_40">
    <path d="M 50.890391 298.944 
L 50.890391 298.234729 
L 111.117162 298.234729 
L 111.117162 297.880094 
L 114.141556 297.880094 
L 114.141556 297.525459 
L 117.305581 297.525459 
L 117.305581 297.170824 
L 133.086488 297.170824 
L 133.086488 296.816188 
L 138.076838 296.816188 
L 138.076838 296.461553 
L 138.59155 296.461553 
L 138.59155 296.106918 
L 140.405242 296.106918 
L 140.405242 295.752282 
L 140.793122 295.752282 
L 140.793122 295.397647 
L 141.50224 295.397647 
L 141.50224 295.043012 
L 141.995897 295.043012 
L 141.995897 294.688376 
L 143.285285 294.688376 
L 143.285285 294.333741 
L 143.926981 294.333741 
L 143.926981 293.979106 
L 144.658165 293.979106 
L 144.658165 293.624471 
L 144.931992 293.624471 
L 144.931992 293.269835 
L 145.573357 293.269835 
L 145.573357 292.9152 
L 145.765046 292.9152 
L 145.868787 292.205929 
L 145.989098 292.205929 
L 145.989098 291.851294 
L 146.227438 291.851294 
L 146.261241 291.142024 
L 146.479495 291.142024 
L 146.479495 290.787388 
L 146.810401 290.787388 
L 146.908549 289.723482 
L 146.973697 289.723482 
L 146.973697 289.368847 
L 147.087167 289.368847 
L 147.087167 289.014212 
L 147.375841 289.014212 
L 147.375841 288.659576 
L 147.581606 288.659576 
L 147.675821 287.950306 
L 147.800712 287.950306 
L 147.847333 286.8864 
L 148.048032 286.8864 
L 148.048032 286.531765 
L 148.307296 286.531765 
L 148.413021 285.822494 
L 148.533127 285.822494 
L 148.533127 285.467859 
L 148.726679 285.467859 
L 148.815343 284.403953 
L 148.947561 284.403953 
L 148.947561 284.049318 
L 149.238092 284.049318 
L 149.238092 283.694682 
L 149.42456 283.694682 
L 149.438827 282.630776 
L 149.552579 282.630776 
L 149.609197 281.921506 
L 149.79204 281.921506 
L 149.889763 280.8576 
L 150.014665 280.8576 
L 150.014665 280.502965 
L 150.357325 280.502965 
L 150.465671 279.793694 
L 150.479171 279.793694 
L 150.533072 278.729788 
L 150.613636 278.729788 
L 150.707193 278.020518 
L 150.840043 278.020518 
L 150.840043 277.665882 
L 151.011358 277.665882 
L 151.011358 277.311247 
L 151.155108 277.311247 
L 151.168122 276.601976 
L 151.310683 276.601976 
L 151.310683 276.247341 
L 151.528902 276.247341 
L 151.618026 275.183435 
L 151.70673 275.183435 
L 151.70673 274.474165 
L 151.870365 274.474165 
L 151.932924 273.410259 
L 152.032588 273.410259 
L 152.106991 272.346353 
L 152.144083 272.346353 
L 152.144083 271.991718 
L 152.340678 271.991718 
L 152.438211 270.573176 
L 152.775647 270.573176 
L 152.823362 269.154635 
L 153.224124 269.154635 
L 153.328795 267.736094 
L 153.559331 267.736094 
L 153.559331 267.026824 
L 153.673549 267.026824 
L 153.75309 265.962918 
L 153.787077 265.962918 
L 153.88867 264.899012 
L 154.067935 264.899012 
L 154.123607 264.189741 
L 154.465144 264.189741 
L 154.552285 263.125835 
L 154.757642 263.125835 
L 154.86483 262.061929 
L 154.896868 262.061929 
L 154.907535 261.352659 
L 155.066821 261.352659 
L 155.151225 260.643388 
L 155.193286 260.643388 
L 155.298028 259.579482 
L 155.371001 259.579482 
L 155.474761 258.515576 
L 155.526427 258.515576 
L 155.619069 257.097035 
L 155.701037 257.097035 
L 155.772467 255.323859 
L 155.884169 255.323859 
L 155.964992 254.259953 
L 156.135597 254.259953 
L 156.225294 252.841412 
L 156.255099 252.841412 
L 156.265023 252.132141 
L 156.452597 252.132141 
L 156.550574 250.7136 
L 156.599372 250.7136 
L 156.618856 250.004329 
L 156.84148 250.004329 
L 156.908716 249.295059 
L 156.956595 249.295059 
L 156.985263 248.231153 
L 157.09001 248.231153 
L 157.137431 246.812612 
L 157.231914 246.812612 
L 157.3353 242.911624 
L 157.466066 242.911624 
L 157.466066 242.556988 
L 157.614408 242.556988 
L 157.651312 241.138447 
L 157.807349 241.138447 
L 157.916719 239.010635 
L 157.971166 239.010635 
L 158.061563 237.592094 
L 158.115593 237.592094 
L 158.214248 236.528188 
L 158.25892 236.528188 
L 158.312387 235.464282 
L 158.392304 235.464282 
L 158.392304 235.109647 
L 158.515949 235.109647 
L 158.58624 234.400376 
L 158.665004 234.400376 
L 158.769513 232.981835 
L 158.778196 232.981835 
L 158.856162 230.499388 
L 158.933807 230.499388 
L 159.036837 228.371576 
L 159.105212 228.371576 
L 159.105212 228.016941 
L 159.24122 228.016941 
L 159.342585 226.243765 
L 159.468527 226.243765 
L 159.518669 223.406682 
L 159.601943 223.406682 
L 159.709651 220.924235 
L 159.783859 220.924235 
L 159.833168 219.860329 
L 159.923234 219.860329 
L 159.996606 219.151059 
L 160.053475 219.151059 
L 160.13442 217.732518 
L 160.287262 217.732518 
L 160.391127 216.313976 
L 160.478568 216.313976 
L 160.589271 213.476894 
L 160.605032 213.476894 
L 160.605032 213.122259 
L 160.769737 213.122259 
L 160.793149 212.412988 
L 160.886507 212.412988 
L 160.979404 210.639812 
L 161.033383 210.639812 
L 161.064158 208.866635 
L 161.255373 208.866635 
L 161.354042 207.448094 
L 161.406958 207.448094 
L 161.504837 204.965647 
L 161.54984 204.965647 
L 161.579783 203.901741 
L 161.721364 203.901741 
L 161.78066 203.192471 
L 161.839769 203.192471 
L 161.950101 201.419294 
L 161.957434 201.419294 
L 162.008681 200.000753 
L 162.081651 200.000753 
L 162.161592 199.291482 
L 162.277267 199.291482 
L 162.377902 197.872941 
L 162.406556 197.872941 
L 162.485131 196.809035 
L 162.527853 196.809035 
L 162.59884 195.035859 
L 162.655437 195.035859 
L 162.718906 193.617318 
L 162.782162 193.617318 
L 162.852198 192.198776 
L 162.915008 192.198776 
L 163.019227 190.4256 
L 163.046922 190.4256 
L 163.129762 187.588518 
L 163.171045 187.588518 
L 163.267023 186.879247 
L 163.33528 186.879247 
L 163.376115 186.169976 
L 163.471055 186.169976 
L 163.578974 184.042165 
L 163.73303 184.042165 
L 163.806266 182.623624 
L 163.872597 182.623624 
L 163.951887 181.205082 
L 164.004562 181.205082 
L 164.09639 179.431906 
L 164.142137 179.431906 
L 164.252774 176.949459 
L 164.324018 176.949459 
L 164.427166 175.885553 
L 164.491347 175.885553 
L 164.561694 174.112376 
L 164.63178 174.112376 
L 164.739583 171.275294 
L 164.878182 171.275294 
L 164.878182 170.920659 
L 165.015767 170.920659 
L 165.109001 169.502118 
L 165.164721 169.502118 
L 165.220276 168.083576 
L 165.281812 168.083576 
L 165.367626 167.374306 
L 165.404283 167.374306 
L 165.465221 165.601129 
L 165.640833 165.601129 
L 165.719027 164.537224 
L 165.892297 164.537224 
L 165.957604 163.827953 
L 178.746193 163.827953 
L 178.746193 163.473318 
L 190.115758 163.473318 
L 190.115758 163.118682 
L 196.401201 163.118682 
L 196.401201 162.764047 
L 196.738857 162.764047 
L 196.738857 162.409412 
L 208.454558 162.409412 
L 208.454558 162.054776 
L 222.776485 162.054776 
L 222.776485 161.700141 
L 225.361313 161.700141 
L 225.361313 160.990871 
L 227.163155 160.990871 
L 227.163155 160.636235 
L 228.435523 160.636235 
L 228.435523 160.2816 
L 231.070132 160.2816 
L 231.169213 155.316706 
L 231.188634 155.316706 
L 231.292978 140.422024 
L 231.299963 140.422024 
L 231.410454 118.434635 
L 231.411367 118.434635 
L 231.520299 100.702871 
L 231.526656 100.702871 
L 231.637452 95.028706 
L 232.096784 95.028706 
L 232.096784 94.674071 
L 235.906222 94.674071 
L 235.906222 94.319435 
L 244.020732 94.319435 
L 244.131153 89.709176 
L 244.13812 89.709176 
L 244.245362 70.204235 
L 244.250995 70.204235 
L 244.354292 62.756894 
L 244.377782 62.756894 
L 244.377782 62.402259 
L 251.65302 62.402259 
L 251.759417 51.7632 
L 251.764372 51.7632 
L 251.868727 43.961224 
L 251.8795 43.961224 
L 251.8795 43.606588 
L 257.060888 43.606588 
L 257.171907 37.223153 
L 257.175344 37.223153 
L 257.264857 35.095341 
L 257.325218 35.095341 
L 257.325218 34.740706 
L 261.210048 34.740706 
L 261.310666 32.967529 
L 261.327731 32.967529 
L 261.340688 31.903624 
L 264.687273 31.903624 
L 264.743946 29.775812 
L 267.552725 29.775812 
L 267.605484 28.357271 
L 270.092024 28.357271 
L 270.104898 27.648 
L 360.8064 27.648 
L 360.8064 27.648 
" style="fill:none;stroke:#ff00ff;stroke-linecap:square;stroke-width:1.5;"/>
   </g>
   <g id="line2d_41">
    <defs>
     <path d="M -0 8.485281 
L 5.091169 0 
L 0 -8.485281 
L -5.091169 -0 
z
" id="mf2d94910db" style="stroke:#ff00ff;stroke-linejoin:miter;stroke-width:1.5;"/>
    </defs>
    <g>
     <use style="fill-opacity:0;stroke:#ff00ff;stroke-linejoin:miter;stroke-width:1.5;" x="140.405242" xlink:href="#mf2d94910db" y="296.106918"/>
     <use style="fill-opacity:0;stroke:#ff00ff;stroke-linejoin:miter;stroke-width:1.5;" x="165.957604" xlink:href="#mf2d94910db" y="164.182588"/>
     <use style="fill-opacity:0;stroke:#ff00ff;stroke-linejoin:miter;stroke-width:1.5;" x="244.245362" xlink:href="#mf2d94910db" y="70.204235"/>
     <use style="fill-opacity:0;stroke:#ff00ff;stroke-linejoin:miter;stroke-width:1.5;" x="270.104898" xlink:href="#mf2d94910db" y="28.002635"/>
     <use style="fill-opacity:0;stroke:#ff00ff;stroke-linejoin:miter;stroke-width:1.5;" x="270.104898" xlink:href="#mf2d94910db" y="27.648"/>
     <use style="fill-opacity:0;stroke:#ff00ff;stroke-linejoin:miter;stroke-width:1.5;" x="360.8064" xlink:href="#mf2d94910db" y="27.648"/>
    </g>
   </g>
   <g id="line2d_42">
    <path style="fill:none;stroke:#ff00ff;stroke-linecap:square;stroke-width:1.5;"/>
    <g/>
   </g>
   <g id="line2d_43">
    <path clip-path="url(#p8639bf9915)" d="M 230.930837 160.2816 
" style="fill:none;stroke:#ff00ff;stroke-linecap:square;stroke-width:1.5;"/>
    <defs>
     <path d="M -12 12 
L 12 -12 
M -12 -12 
L 12 12 
" id="m426de1f716" style="stroke:#ff00ff;"/>
    </defs>
    <g clip-path="url(#p8639bf9915)">
     <use style="fill:#ff00ff;stroke:#ff00ff;" x="230.930837" xlink:href="#m426de1f716" y="160.2816"/>
    </g>
   </g>
   <g id="line2d_44">
    <path d="M 360.8064 277.665882 
L 380.514816 293.51808 
" style="fill:none;stroke:#000080;stroke-linecap:square;stroke-width:1.5;"/>
    <g>
     <use style="fill-opacity:0;stroke:#000080;stroke-width:1.5;" x="360.8064" xlink:href="#m7b868c038c" y="277.665882"/>
     <use style="fill-opacity:0;stroke:#000080;stroke-width:1.5;" x="380.514816" xlink:href="#m7b868c038c" y="293.51808"/>
    </g>
   </g>
   <g id="line2d_45">
    <path d="M 360.8064 27.648 
L 380.514816 163.296 
" style="fill:none;stroke:#ff00ff;stroke-linecap:square;stroke-width:1.5;"/>
    <g>
     <use style="fill-opacity:0;stroke:#ff00ff;stroke-linejoin:miter;stroke-width:1.5;" x="360.8064" xlink:href="#mf2d94910db" y="27.648"/>
     <use style="fill-opacity:0;stroke:#ff00ff;stroke-linejoin:miter;stroke-width:1.5;" x="380.514816" xlink:href="#mf2d94910db" y="163.296"/>
    </g>
   </g>
   <g id="line2d_46">
    <path d="M 360.8064 298.944 
L 360.8064 27.648 
" style="fill:none;stroke:#000000;stroke-linecap:square;stroke-width:1.5;"/>
   </g>
   <g id="patch_3">
    <path d="M 57.6 298.944 
L 360.8064 298.944 
" style="fill:none;stroke:#000000;stroke-linecap:square;stroke-linejoin:miter;stroke-width:0.8;"/>
   </g>
   <g id="patch_4">
    <path d="M 57.6 27.648 
L 360.8064 27.648 
" style="fill:none;stroke:#000000;stroke-linecap:square;stroke-linejoin:miter;stroke-width:0.8;"/>
   </g>
   <g id="text_13">
    <!-- different -->
    <g transform="translate(386.578944 297.381205)scale(0.14 -0.14)">
     <use xlink:href="#DejaVuSans-64"/>
     <use x="63.476562" xlink:href="#DejaVuSans-69"/>
     <use x="91.259766" xlink:href="#DejaVuSans-66"/>
     <use x="126.464844" xlink:href="#DejaVuSans-66"/>
     <use x="161.669922" xlink:href="#DejaVuSans-65"/>
     <use x="223.193359" xlink:href="#DejaVuSans-72"/>
     <use x="262.056641" xlink:href="#DejaVuSans-65"/>
     <use x="323.580078" xlink:href="#DejaVuSans-6e"/>
     <use x="386.958984" xlink:href="#DejaVuSans-74"/>
    </g>
   </g>
   <g id="text_14">
    <!-- cma.fmin  -->
    <g transform="translate(386.578944 167.159125)scale(0.14 -0.14)">
     <use xlink:href="#DejaVuSans-63"/>
     <use x="54.980469" xlink:href="#DejaVuSans-6d"/>
     <use x="152.392578" xlink:href="#DejaVuSans-61"/>
     <use x="213.671875" xlink:href="#DejaVuSans-2e"/>
     <use x="245.458984" xlink:href="#DejaVuSans-66"/>
     <use x="280.664062" xlink:href="#DejaVuSans-6d"/>
     <use x="378.076172" xlink:href="#DejaVuSans-69"/>
     <use x="405.859375" xlink:href="#DejaVuSans-6e"/>
     <use x="469.238281" xlink:href="#DejaVuSans-20"/>
    </g>
   </g>
   <g id="text_15">
    <!-- best 2009 -->
    <g transform="translate(386.578944 36.937045)scale(0.14 -0.14)">
     <defs>
      <path d="M 3116 1747 
Q 3116 2381 2855 2742 
Q 2594 3103 2138 3103 
Q 1681 3103 1420 2742 
Q 1159 2381 1159 1747 
Q 1159 1113 1420 752 
Q 1681 391 2138 391 
Q 2594 391 2855 752 
Q 3116 1113 3116 1747 
z
M 1159 2969 
Q 1341 3281 1617 3432 
Q 1894 3584 2278 3584 
Q 2916 3584 3314 3078 
Q 3713 2572 3713 1747 
Q 3713 922 3314 415 
Q 2916 -91 2278 -91 
Q 1894 -91 1617 61 
Q 1341 213 1159 525 
L 1159 0 
L 581 0 
L 581 4863 
L 1159 4863 
L 1159 2969 
z
" id="DejaVuSans-62" transform="scale(0.015625)"/>
      <path d="M 703 97 
L 703 672 
Q 941 559 1184 500 
Q 1428 441 1663 441 
Q 2288 441 2617 861 
Q 2947 1281 2994 2138 
Q 2813 1869 2534 1725 
Q 2256 1581 1919 1581 
Q 1219 1581 811 2004 
Q 403 2428 403 3163 
Q 403 3881 828 4315 
Q 1253 4750 1959 4750 
Q 2769 4750 3195 4129 
Q 3622 3509 3622 2328 
Q 3622 1225 3098 567 
Q 2575 -91 1691 -91 
Q 1453 -91 1209 -44 
Q 966 3 703 97 
z
M 1959 2075 
Q 2384 2075 2632 2365 
Q 2881 2656 2881 3163 
Q 2881 3666 2632 3958 
Q 2384 4250 1959 4250 
Q 1534 4250 1286 3958 
Q 1038 3666 1038 3163 
Q 1038 2656 1286 2365 
Q 1534 2075 1959 2075 
z
" id="DejaVuSans-39" transform="scale(0.015625)"/>
     </defs>
     <use xlink:href="#DejaVuSans-62"/>
     <use x="63.476562" xlink:href="#DejaVuSans-65"/>
     <use x="125" xlink:href="#DejaVuSans-73"/>
     <use x="177.099609" xlink:href="#DejaVuSans-74"/>
     <use x="216.308594" xlink:href="#DejaVuSans-20"/>
     <use x="248.095703" xlink:href="#DejaVuSans-32"/>
     <use x="311.71875" xlink:href="#DejaVuSans-30"/>
     <use x="375.341797" xlink:href="#DejaVuSans-30"/>
     <use x="438.964844" xlink:href="#DejaVuSans-39"/>
    </g>
   </g>
   <g id="text_16">
    <!-- bbob f11, 10-D -->
    <g transform="translate(60.632064 38.111366)scale(0.102 -0.102)">
     <defs>
      <path d="M 1259 4147 
L 1259 519 
L 2022 519 
Q 2988 519 3436 956 
Q 3884 1394 3884 2338 
Q 3884 3275 3436 3711 
Q 2988 4147 2022 4147 
L 1259 4147 
z
M 628 4666 
L 1925 4666 
Q 3281 4666 3915 4102 
Q 4550 3538 4550 2338 
Q 4550 1131 3912 565 
Q 3275 0 1925 0 
L 628 0 
L 628 4666 
z
" id="DejaVuSans-44" transform="scale(0.015625)"/>
     </defs>
     <use xlink:href="#DejaVuSans-62"/>
     <use x="63.476562" xlink:href="#DejaVuSans-62"/>
     <use x="126.953125" xlink:href="#DejaVuSans-6f"/>
     <use x="188.134766" xlink:href="#DejaVuSans-62"/>
     <use x="251.611328" xlink:href="#DejaVuSans-20"/>
     <use x="283.398438" xlink:href="#DejaVuSans-66"/>
     <use x="318.603516" xlink:href="#DejaVuSans-31"/>
     <use x="382.226562" xlink:href="#DejaVuSans-31"/>
     <use x="445.849609" xlink:href="#DejaVuSans-2c"/>
     <use x="477.636719" xlink:href="#DejaVuSans-20"/>
     <use x="509.423828" xlink:href="#DejaVuSans-31"/>
     <use x="573.046875" xlink:href="#DejaVuSans-30"/>
     <use x="636.669922" xlink:href="#DejaVuSans-2d"/>
     <use x="672.753906" xlink:href="#DejaVuSans-44"/>
    </g>
    <!-- 51 targets: 100..1e-08 -->
    <g transform="translate(60.632064 49.533135)scale(0.102 -0.102)">
     <defs>
      <path d="M 691 4666 
L 3169 4666 
L 3169 4134 
L 1269 4134 
L 1269 2991 
Q 1406 3038 1543 3061 
Q 1681 3084 1819 3084 
Q 2600 3084 3056 2656 
Q 3513 2228 3513 1497 
Q 3513 744 3044 326 
Q 2575 -91 1722 -91 
Q 1428 -91 1123 -41 
Q 819 9 494 109 
L 494 744 
Q 775 591 1075 516 
Q 1375 441 1709 441 
Q 2250 441 2565 725 
Q 2881 1009 2881 1497 
Q 2881 1984 2565 2268 
Q 2250 2553 1709 2553 
Q 1456 2553 1204 2497 
Q 953 2441 691 2322 
L 691 4666 
z
" id="DejaVuSans-35" transform="scale(0.015625)"/>
      <path d="M 750 794 
L 1409 794 
L 1409 0 
L 750 0 
L 750 794 
z
M 750 3309 
L 1409 3309 
L 1409 2516 
L 750 2516 
L 750 3309 
z
" id="DejaVuSans-3a" transform="scale(0.015625)"/>
     </defs>
     <use xlink:href="#DejaVuSans-35"/>
     <use x="63.623047" xlink:href="#DejaVuSans-31"/>
     <use x="127.246094" xlink:href="#DejaVuSans-20"/>
     <use x="159.033203" xlink:href="#DejaVuSans-74"/>
     <use x="198.242188" xlink:href="#DejaVuSans-61"/>
     <use x="259.521484" xlink:href="#DejaVuSans-72"/>
     <use x="298.884766" xlink:href="#DejaVuSans-67"/>
     <use x="362.361328" xlink:href="#DejaVuSans-65"/>
     <use x="423.884766" xlink:href="#DejaVuSans-74"/>
     <use x="463.09375" xlink:href="#DejaVuSans-73"/>
     <use x="515.193359" xlink:href="#DejaVuSans-3a"/>
     <use x="548.884766" xlink:href="#DejaVuSans-20"/>
     <use x="580.671875" xlink:href="#DejaVuSans-31"/>
     <use x="644.294922" xlink:href="#DejaVuSans-30"/>
     <use x="707.917969" xlink:href="#DejaVuSans-30"/>
     <use x="771.541016" xlink:href="#DejaVuSans-2e"/>
     <use x="803.328125" xlink:href="#DejaVuSans-2e"/>
     <use x="835.115234" xlink:href="#DejaVuSans-31"/>
     <use x="898.738281" xlink:href="#DejaVuSans-65"/>
     <use x="960.261719" xlink:href="#DejaVuSans-2d"/>
     <use x="996.345703" xlink:href="#DejaVuSans-30"/>
     <use x="1059.96875" xlink:href="#DejaVuSans-38"/>
    </g>
    <!-- 15 instances -->
    <g transform="translate(60.632064 60.954904)scale(0.102 -0.102)">
     <use xlink:href="#DejaVuSans-31"/>
     <use x="63.623047" xlink:href="#DejaVuSans-35"/>
     <use x="127.246094" xlink:href="#DejaVuSans-20"/>
     <use x="159.033203" xlink:href="#DejaVuSans-69"/>
     <use x="186.816406" xlink:href="#DejaVuSans-6e"/>
     <use x="250.195312" xlink:href="#DejaVuSans-73"/>
     <use x="302.294922" xlink:href="#DejaVuSans-74"/>
     <use x="341.503906" xlink:href="#DejaVuSans-61"/>
     <use x="402.783203" xlink:href="#DejaVuSans-6e"/>
     <use x="466.162109" xlink:href="#DejaVuSans-63"/>
     <use x="521.142578" xlink:href="#DejaVuSans-65"/>
     <use x="582.666016" xlink:href="#DejaVuSans-73"/>
    </g>
   </g>
   <g id="text_17">
    <!-- v2.6 -->
    <g style="fill:#808080;" transform="translate(198.292262 294.151352)scale(0.1 -0.1)">
     <use xlink:href="#DejaVuSans-76"/>
     <use x="59.179688" xlink:href="#DejaVuSans-32"/>
     <use x="122.802734" xlink:href="#DejaVuSans-2e"/>
     <use x="154.589844" xlink:href="#DejaVuSans-36"/>
    </g>
   </g>
   <g id="text_18">
    <!-- 11 Discus -->
    <g transform="translate(160.567262 21.648)scale(0.2 -0.2)">
     <use xlink:href="#DejaVuSans-31"/>
     <use x="63.623047" xlink:href="#DejaVuSans-31"/>
     <use x="127.246094" xlink:href="#DejaVuSans-20"/>
     <use x="159.033203" xlink:href="#DejaVuSans-44"/>
     <use x="236.035156" xlink:href="#DejaVuSans-69"/>
     <use x="263.818359" xlink:href="#DejaVuSans-73"/>
     <use x="315.917969" xlink:href="#DejaVuSans-63"/>
     <use x="370.898438" xlink:href="#DejaVuSans-75"/>
     <use x="434.277344" xlink:href="#DejaVuSans-73"/>
    </g>
   </g>
  </g>
 </g>
 <defs>
  <clipPath id="p8639bf9915">
   <rect height="271.296" width="303.2064" x="57.6" y="27.648"/>
  </clipPath>
 </defs>
</svg>
