<?xml version="1.0" encoding="utf-8" standalone="no"?>
<!DOCTYPE svg PUBLIC "-//W3C//DTD SVG 1.1//EN"
  "http://www.w3.org/Graphics/SVG/1.1/DTD/svg11.dtd">
<svg height="345.6pt" version="1.1" viewBox="0 0 460.8 345.6" width="460.8pt" xmlns="http://www.w3.org/2000/svg" xmlns:xlink="http://www.w3.org/1999/xlink">
 <metadata>
  <rdf:RDF xmlns:cc="http://creativecommons.org/ns#" xmlns:dc="http://purl.org/dc/elements/1.1/" xmlns:rdf="http://www.w3.org/1999/02/22-rdf-syntax-ns#">
   <cc:Work>
    <dc:type rdf:resource="http://purl.org/dc/dcmitype/StillImage"/>
    <dc:date>2022-05-07T15:07:31.523740</dc:date>
    <dc:format>image/svg+xml</dc:format>
    <dc:creator>
     <cc:Agent>
      <dc:title>Matplotlib v3.4.3, https://matplotlib.org/</dc:title>
     </cc:Agent>
    </dc:creator>
   </cc:Work>
  </rdf:RDF>
 </metadata>
 <defs>
  <style type="text/css">*{stroke-linecap:butt;stroke-linejoin:round;}</style>
 </defs>
 <g id="figure_1">
  <g id="patch_1">
   <path d="M 0 345.6 
L 460.8 345.6 
L 460.8 0 
L 0 0 
z
" style="fill:#ffffff;"/>
  </g>
  <g id="axes_1">
   <g id="patch_2">
    <path d="M 57.6 298.944 
L 360.8064 298.944 
L 360.8064 27.648 
L 57.6 27.648 
z
" style="fill:#ffffff;"/>
   </g>
   <g id="line2d_1">
    <path d="M 101.287718 298.944 
L 101.287718 293.624471 
L 106.699465 293.624471 
L 106.699465 288.304941 
L 116.583514 288.304941 
L 116.583514 282.985412 
L 120.48442 282.985412 
L 120.48442 277.665882 
L 123.880906 277.665882 
L 123.880906 272.346353 
L 127.549596 272.346353 
L 127.549596 267.026824 
L 129.622688 267.026824 
L 129.622688 261.707294 
L 131.341119 261.707294 
L 131.341119 256.387765 
L 132.984158 256.387765 
L 132.984158 251.068235 
L 133.853052 251.068235 
L 133.853052 245.748706 
L 135.328609 245.748706 
L 135.328609 240.429176 
L 136.413909 240.429176 
L 136.413909 235.109647 
L 137.140746 235.109647 
L 137.140746 229.790118 
L 138.335954 229.790118 
L 138.335954 224.470588 
L 139.748412 224.470588 
L 139.748412 219.151059 
L 140.634374 219.151059 
L 140.634374 213.831529 
L 141.953481 213.831529 
L 141.953481 208.512 
L 142.804452 208.512 
L 142.804452 203.192471 
L 143.423243 203.192471 
L 143.423243 197.872941 
L 144.436197 197.872941 
L 144.436197 192.553412 
L 144.950106 192.553412 
L 144.950106 187.233882 
L 145.765046 187.233882 
L 145.765046 181.914353 
L 146.529503 181.914353 
L 146.529503 176.594824 
L 147.135588 176.594824 
L 147.135588 171.275294 
L 148.307296 171.275294 
L 148.307296 165.955765 
L 149.049758 165.955765 
L 149.049758 160.636235 
L 149.750003 160.636235 
L 149.750003 155.316706 
L 150.533072 155.316706 
L 150.533072 149.997176 
L 151.375128 149.997176 
L 151.375128 144.677647 
L 151.920429 144.677647 
L 151.920429 139.358118 
L 152.739781 139.358118 
L 152.739781 134.038588 
L 153.398253 134.038588 
L 153.398253 128.719059 
L 154.101358 128.719059 
L 154.101358 123.399529 
L 154.779128 123.399529 
L 154.779128 118.08 
L 155.24573 118.08 
L 155.24573 112.760471 
L 155.711258 112.760471 
L 155.711258 107.440941 
L 156.165543 107.440941 
L 156.165543 102.121412 
L 156.657763 102.121412 
L 156.657763 96.801882 
L 157.30716 96.801882 
L 157.30716 91.482353 
L 157.779907 91.482353 
L 157.779907 86.162824 
L 158.070579 86.162824 
L 158.070579 80.843294 
L 158.638786 80.843294 
L 158.638786 75.523765 
L 159.258152 75.523765 
L 159.258152 70.204235 
L 159.651731 70.204235 
L 159.651731 64.884706 
L 160.102084 64.884706 
L 160.102084 59.565176 
L 160.4627 59.565176 
L 160.4627 54.245647 
L 160.730652 54.245647 
L 160.730652 48.926118 
L 161.079527 48.926118 
L 161.079527 43.606588 
L 161.437128 43.606588 
L 161.437128 38.287059 
L 161.832391 38.287059 
L 161.832391 32.967529 
L 162.370732 32.967529 
L 162.370732 27.648 
L 360.8064 27.648 
" style="fill:none;stroke:#f5deb3;stroke-linecap:square;stroke-width:4;"/>
   </g>
   <g id="line2d_2">
    <defs>
     <path d="M -0 7.778175 
L 7.778175 0 
L 0 -7.778175 
L -7.778175 -0 
z
" id="m4f5bfe6b62" style="stroke:#f5deb3;stroke-linejoin:miter;stroke-width:1.5;"/>
    </defs>
    <g>
     <use style="fill:#f5deb3;stroke:#f5deb3;stroke-linejoin:miter;stroke-width:1.5;" x="140.634374" xlink:href="#m4f5bfe6b62" y="213.831529"/>
     <use style="fill:#f5deb3;stroke:#f5deb3;stroke-linejoin:miter;stroke-width:1.5;" x="154.779128" xlink:href="#m4f5bfe6b62" y="118.08"/>
     <use style="fill:#f5deb3;stroke:#f5deb3;stroke-linejoin:miter;stroke-width:1.5;" x="162.370732" xlink:href="#m4f5bfe6b62" y="32.967529"/>
     <use style="fill:#f5deb3;stroke:#f5deb3;stroke-linejoin:miter;stroke-width:1.5;" x="162.370732" xlink:href="#m4f5bfe6b62" y="27.648"/>
     <use style="fill:#f5deb3;stroke:#f5deb3;stroke-linejoin:miter;stroke-width:1.5;" x="360.8064" xlink:href="#m4f5bfe6b62" y="27.648"/>
    </g>
   </g>
   <g id="line2d_3">
    <path style="fill:none;stroke:#f5deb3;stroke-linecap:square;stroke-width:4;"/>
    <g/>
   </g>
   <g id="line2d_4">
    <path d="M 360.8064 27.648 
L 380.514816 33.07392 
" style="fill:none;stroke:#f5deb3;stroke-linecap:square;stroke-width:4;"/>
    <g>
     <use style="fill:#f5deb3;stroke:#f5deb3;stroke-linejoin:miter;stroke-width:1.5;" x="360.8064" xlink:href="#m4f5bfe6b62" y="27.648"/>
     <use style="fill:#f5deb3;stroke:#f5deb3;stroke-linejoin:miter;stroke-width:1.5;" x="380.514816" xlink:href="#m4f5bfe6b62" y="33.07392"/>
    </g>
   </g>
   <g id="matplotlib.axis_1">
    <g id="xtick_1">
     <g id="line2d_5">
      <path clip-path="url(#pe4150e1aad)" d="M 57.6 298.944 
L 57.6 27.648 
" style="fill:none;stroke:#b0b0b0;stroke-linecap:square;stroke-width:0.8;"/>
     </g>
     <g id="line2d_6">
      <defs>
       <path d="M 0 0 
L 0 3.5 
" id="mb30bc0b67f" style="stroke:#000000;stroke-width:0.8;"/>
      </defs>
      <g>
       <use style="stroke:#000000;stroke-width:0.8;" x="57.6" xlink:href="#mb30bc0b67f" y="298.944"/>
      </g>
     </g>
     <g id="text_1">
      <!-- 0 -->
      <g transform="translate(52.191875 318.861344)scale(0.17 -0.17)">
       <defs>
        <path d="M 2034 4250 
Q 1547 4250 1301 3770 
Q 1056 3291 1056 2328 
Q 1056 1369 1301 889 
Q 1547 409 2034 409 
Q 2525 409 2770 889 
Q 3016 1369 3016 2328 
Q 3016 3291 2770 3770 
Q 2525 4250 2034 4250 
z
M 2034 4750 
Q 2819 4750 3233 4129 
Q 3647 3509 3647 2328 
Q 3647 1150 3233 529 
Q 2819 -91 2034 -91 
Q 1250 -91 836 529 
Q 422 1150 422 2328 
Q 422 3509 836 4129 
Q 1250 4750 2034 4750 
z
" id="DejaVuSans-30" transform="scale(0.015625)"/>
       </defs>
       <use xlink:href="#DejaVuSans-30"/>
      </g>
     </g>
    </g>
    <g id="xtick_2">
     <g id="line2d_7">
      <path clip-path="url(#pe4150e1aad)" d="M 144.2304 298.944 
L 144.2304 27.648 
" style="fill:none;stroke:#b0b0b0;stroke-linecap:square;stroke-width:0.8;"/>
     </g>
     <g id="line2d_8">
      <g>
       <use style="stroke:#000000;stroke-width:0.8;" x="144.2304" xlink:href="#mb30bc0b67f" y="298.944"/>
      </g>
     </g>
     <g id="text_2">
      <!-- 2 -->
      <g transform="translate(138.822275 318.861344)scale(0.17 -0.17)">
       <defs>
        <path d="M 1228 531 
L 3431 531 
L 3431 0 
L 469 0 
L 469 531 
Q 828 903 1448 1529 
Q 2069 2156 2228 2338 
Q 2531 2678 2651 2914 
Q 2772 3150 2772 3378 
Q 2772 3750 2511 3984 
Q 2250 4219 1831 4219 
Q 1534 4219 1204 4116 
Q 875 4013 500 3803 
L 500 4441 
Q 881 4594 1212 4672 
Q 1544 4750 1819 4750 
Q 2544 4750 2975 4387 
Q 3406 4025 3406 3419 
Q 3406 3131 3298 2873 
Q 3191 2616 2906 2266 
Q 2828 2175 2409 1742 
Q 1991 1309 1228 531 
z
" id="DejaVuSans-32" transform="scale(0.015625)"/>
       </defs>
       <use xlink:href="#DejaVuSans-32"/>
      </g>
     </g>
    </g>
    <g id="xtick_3">
     <g id="line2d_9">
      <path clip-path="url(#pe4150e1aad)" d="M 230.8608 298.944 
L 230.8608 27.648 
" style="fill:none;stroke:#b0b0b0;stroke-linecap:square;stroke-width:0.8;"/>
     </g>
     <g id="line2d_10">
      <g>
       <use style="stroke:#000000;stroke-width:0.8;" x="230.8608" xlink:href="#mb30bc0b67f" y="298.944"/>
      </g>
     </g>
     <g id="text_3">
      <!-- 4 -->
      <g transform="translate(225.452675 318.861344)scale(0.17 -0.17)">
       <defs>
        <path d="M 2419 4116 
L 825 1625 
L 2419 1625 
L 2419 4116 
z
M 2253 4666 
L 3047 4666 
L 3047 1625 
L 3713 1625 
L 3713 1100 
L 3047 1100 
L 3047 0 
L 2419 0 
L 2419 1100 
L 313 1100 
L 313 1709 
L 2253 4666 
z
" id="DejaVuSans-34" transform="scale(0.015625)"/>
       </defs>
       <use xlink:href="#DejaVuSans-34"/>
      </g>
     </g>
    </g>
    <g id="xtick_4">
     <g id="line2d_11">
      <path clip-path="url(#pe4150e1aad)" d="M 317.4912 298.944 
L 317.4912 27.648 
" style="fill:none;stroke:#b0b0b0;stroke-linecap:square;stroke-width:0.8;"/>
     </g>
     <g id="line2d_12">
      <g>
       <use style="stroke:#000000;stroke-width:0.8;" x="317.4912" xlink:href="#mb30bc0b67f" y="298.944"/>
      </g>
     </g>
     <g id="text_4">
      <!-- 6 -->
      <g transform="translate(312.083075 318.861344)scale(0.17 -0.17)">
       <defs>
        <path d="M 2113 2584 
Q 1688 2584 1439 2293 
Q 1191 2003 1191 1497 
Q 1191 994 1439 701 
Q 1688 409 2113 409 
Q 2538 409 2786 701 
Q 3034 994 3034 1497 
Q 3034 2003 2786 2293 
Q 2538 2584 2113 2584 
z
M 3366 4563 
L 3366 3988 
Q 3128 4100 2886 4159 
Q 2644 4219 2406 4219 
Q 1781 4219 1451 3797 
Q 1122 3375 1075 2522 
Q 1259 2794 1537 2939 
Q 1816 3084 2150 3084 
Q 2853 3084 3261 2657 
Q 3669 2231 3669 1497 
Q 3669 778 3244 343 
Q 2819 -91 2113 -91 
Q 1303 -91 875 529 
Q 447 1150 447 2328 
Q 447 3434 972 4092 
Q 1497 4750 2381 4750 
Q 2619 4750 2861 4703 
Q 3103 4656 3366 4563 
z
" id="DejaVuSans-36" transform="scale(0.015625)"/>
       </defs>
       <use xlink:href="#DejaVuSans-36"/>
      </g>
     </g>
    </g>
    <g id="xtick_5">
     <g id="line2d_13">
      <path clip-path="url(#pe4150e1aad)" d="M 100.9152 298.944 
L 100.9152 27.648 
" style="fill:none;stroke:#b0b0b0;stroke-linecap:square;stroke-width:0.8;"/>
     </g>
     <g id="line2d_14">
      <defs>
       <path d="M 0 0 
L 0 2 
" id="m00adae2bde" style="stroke:#000000;stroke-width:0.6;"/>
      </defs>
      <g>
       <use style="stroke:#000000;stroke-width:0.6;" x="100.9152" xlink:href="#m00adae2bde" y="298.944"/>
      </g>
     </g>
    </g>
    <g id="xtick_6">
     <g id="line2d_15">
      <path clip-path="url(#pe4150e1aad)" d="M 187.5456 298.944 
L 187.5456 27.648 
" style="fill:none;stroke:#b0b0b0;stroke-linecap:square;stroke-width:0.8;"/>
     </g>
     <g id="line2d_16">
      <g>
       <use style="stroke:#000000;stroke-width:0.6;" x="187.5456" xlink:href="#m00adae2bde" y="298.944"/>
      </g>
     </g>
    </g>
    <g id="xtick_7">
     <g id="line2d_17">
      <path clip-path="url(#pe4150e1aad)" d="M 274.176 298.944 
L 274.176 27.648 
" style="fill:none;stroke:#b0b0b0;stroke-linecap:square;stroke-width:0.8;"/>
     </g>
     <g id="line2d_18">
      <g>
       <use style="stroke:#000000;stroke-width:0.6;" x="274.176" xlink:href="#m00adae2bde" y="298.944"/>
      </g>
     </g>
    </g>
    <g id="xtick_8">
     <g id="line2d_19">
      <path clip-path="url(#pe4150e1aad)" d="M 360.8064 298.944 
L 360.8064 27.648 
" style="fill:none;stroke:#b0b0b0;stroke-linecap:square;stroke-width:0.8;"/>
     </g>
     <g id="line2d_20">
      <g>
       <use style="stroke:#000000;stroke-width:0.6;" x="360.8064" xlink:href="#m00adae2bde" y="298.944"/>
      </g>
     </g>
    </g>
    <g id="text_5">
     <!-- log10(# f-evals / dimension) -->
     <g transform="translate(88.823278 339.314156)scale(0.17 -0.17)">
      <defs>
       <path d="M 603 4863 
L 1178 4863 
L 1178 0 
L 603 0 
L 603 4863 
z
" id="DejaVuSans-6c" transform="scale(0.015625)"/>
       <path d="M 1959 3097 
Q 1497 3097 1228 2736 
Q 959 2375 959 1747 
Q 959 1119 1226 758 
Q 1494 397 1959 397 
Q 2419 397 2687 759 
Q 2956 1122 2956 1747 
Q 2956 2369 2687 2733 
Q 2419 3097 1959 3097 
z
M 1959 3584 
Q 2709 3584 3137 3096 
Q 3566 2609 3566 1747 
Q 3566 888 3137 398 
Q 2709 -91 1959 -91 
Q 1206 -91 779 398 
Q 353 888 353 1747 
Q 353 2609 779 3096 
Q 1206 3584 1959 3584 
z
" id="DejaVuSans-6f" transform="scale(0.015625)"/>
       <path d="M 2906 1791 
Q 2906 2416 2648 2759 
Q 2391 3103 1925 3103 
Q 1463 3103 1205 2759 
Q 947 2416 947 1791 
Q 947 1169 1205 825 
Q 1463 481 1925 481 
Q 2391 481 2648 825 
Q 2906 1169 2906 1791 
z
M 3481 434 
Q 3481 -459 3084 -895 
Q 2688 -1331 1869 -1331 
Q 1566 -1331 1297 -1286 
Q 1028 -1241 775 -1147 
L 775 -588 
Q 1028 -725 1275 -790 
Q 1522 -856 1778 -856 
Q 2344 -856 2625 -561 
Q 2906 -266 2906 331 
L 2906 616 
Q 2728 306 2450 153 
Q 2172 0 1784 0 
Q 1141 0 747 490 
Q 353 981 353 1791 
Q 353 2603 747 3093 
Q 1141 3584 1784 3584 
Q 2172 3584 2450 3431 
Q 2728 3278 2906 2969 
L 2906 3500 
L 3481 3500 
L 3481 434 
z
" id="DejaVuSans-67" transform="scale(0.015625)"/>
       <path d="M 794 531 
L 1825 531 
L 1825 4091 
L 703 3866 
L 703 4441 
L 1819 4666 
L 2450 4666 
L 2450 531 
L 3481 531 
L 3481 0 
L 794 0 
L 794 531 
z
" id="DejaVuSans-31" transform="scale(0.015625)"/>
       <path d="M 1984 4856 
Q 1566 4138 1362 3434 
Q 1159 2731 1159 2009 
Q 1159 1288 1364 580 
Q 1569 -128 1984 -844 
L 1484 -844 
Q 1016 -109 783 600 
Q 550 1309 550 2009 
Q 550 2706 781 3412 
Q 1013 4119 1484 4856 
L 1984 4856 
z
" id="DejaVuSans-28" transform="scale(0.015625)"/>
       <path d="M 3272 2816 
L 2363 2816 
L 2100 1772 
L 3016 1772 
L 3272 2816 
z
M 2803 4594 
L 2478 3297 
L 3391 3297 
L 3719 4594 
L 4219 4594 
L 3897 3297 
L 4872 3297 
L 4872 2816 
L 3775 2816 
L 3519 1772 
L 4513 1772 
L 4513 1294 
L 3397 1294 
L 3072 0 
L 2572 0 
L 2894 1294 
L 1978 1294 
L 1656 0 
L 1153 0 
L 1478 1294 
L 494 1294 
L 494 1772 
L 1594 1772 
L 1856 2816 
L 850 2816 
L 850 3297 
L 1978 3297 
L 2297 4594 
L 2803 4594 
z
" id="DejaVuSans-23" transform="scale(0.015625)"/>
       <path id="DejaVuSans-20" transform="scale(0.015625)"/>
       <path d="M 2375 4863 
L 2375 4384 
L 1825 4384 
Q 1516 4384 1395 4259 
Q 1275 4134 1275 3809 
L 1275 3500 
L 2222 3500 
L 2222 3053 
L 1275 3053 
L 1275 0 
L 697 0 
L 697 3053 
L 147 3053 
L 147 3500 
L 697 3500 
L 697 3744 
Q 697 4328 969 4595 
Q 1241 4863 1831 4863 
L 2375 4863 
z
" id="DejaVuSans-66" transform="scale(0.015625)"/>
       <path d="M 313 2009 
L 1997 2009 
L 1997 1497 
L 313 1497 
L 313 2009 
z
" id="DejaVuSans-2d" transform="scale(0.015625)"/>
       <path d="M 3597 1894 
L 3597 1613 
L 953 1613 
Q 991 1019 1311 708 
Q 1631 397 2203 397 
Q 2534 397 2845 478 
Q 3156 559 3463 722 
L 3463 178 
Q 3153 47 2828 -22 
Q 2503 -91 2169 -91 
Q 1331 -91 842 396 
Q 353 884 353 1716 
Q 353 2575 817 3079 
Q 1281 3584 2069 3584 
Q 2775 3584 3186 3129 
Q 3597 2675 3597 1894 
z
M 3022 2063 
Q 3016 2534 2758 2815 
Q 2500 3097 2075 3097 
Q 1594 3097 1305 2825 
Q 1016 2553 972 2059 
L 3022 2063 
z
" id="DejaVuSans-65" transform="scale(0.015625)"/>
       <path d="M 191 3500 
L 800 3500 
L 1894 563 
L 2988 3500 
L 3597 3500 
L 2284 0 
L 1503 0 
L 191 3500 
z
" id="DejaVuSans-76" transform="scale(0.015625)"/>
       <path d="M 2194 1759 
Q 1497 1759 1228 1600 
Q 959 1441 959 1056 
Q 959 750 1161 570 
Q 1363 391 1709 391 
Q 2188 391 2477 730 
Q 2766 1069 2766 1631 
L 2766 1759 
L 2194 1759 
z
M 3341 1997 
L 3341 0 
L 2766 0 
L 2766 531 
Q 2569 213 2275 61 
Q 1981 -91 1556 -91 
Q 1019 -91 701 211 
Q 384 513 384 1019 
Q 384 1609 779 1909 
Q 1175 2209 1959 2209 
L 2766 2209 
L 2766 2266 
Q 2766 2663 2505 2880 
Q 2244 3097 1772 3097 
Q 1472 3097 1187 3025 
Q 903 2953 641 2809 
L 641 3341 
Q 956 3463 1253 3523 
Q 1550 3584 1831 3584 
Q 2591 3584 2966 3190 
Q 3341 2797 3341 1997 
z
" id="DejaVuSans-61" transform="scale(0.015625)"/>
       <path d="M 2834 3397 
L 2834 2853 
Q 2591 2978 2328 3040 
Q 2066 3103 1784 3103 
Q 1356 3103 1142 2972 
Q 928 2841 928 2578 
Q 928 2378 1081 2264 
Q 1234 2150 1697 2047 
L 1894 2003 
Q 2506 1872 2764 1633 
Q 3022 1394 3022 966 
Q 3022 478 2636 193 
Q 2250 -91 1575 -91 
Q 1294 -91 989 -36 
Q 684 19 347 128 
L 347 722 
Q 666 556 975 473 
Q 1284 391 1588 391 
Q 1994 391 2212 530 
Q 2431 669 2431 922 
Q 2431 1156 2273 1281 
Q 2116 1406 1581 1522 
L 1381 1569 
Q 847 1681 609 1914 
Q 372 2147 372 2553 
Q 372 3047 722 3315 
Q 1072 3584 1716 3584 
Q 2034 3584 2315 3537 
Q 2597 3491 2834 3397 
z
" id="DejaVuSans-73" transform="scale(0.015625)"/>
       <path d="M 1625 4666 
L 2156 4666 
L 531 -594 
L 0 -594 
L 1625 4666 
z
" id="DejaVuSans-2f" transform="scale(0.015625)"/>
       <path d="M 2906 2969 
L 2906 4863 
L 3481 4863 
L 3481 0 
L 2906 0 
L 2906 525 
Q 2725 213 2448 61 
Q 2172 -91 1784 -91 
Q 1150 -91 751 415 
Q 353 922 353 1747 
Q 353 2572 751 3078 
Q 1150 3584 1784 3584 
Q 2172 3584 2448 3432 
Q 2725 3281 2906 2969 
z
M 947 1747 
Q 947 1113 1208 752 
Q 1469 391 1925 391 
Q 2381 391 2643 752 
Q 2906 1113 2906 1747 
Q 2906 2381 2643 2742 
Q 2381 3103 1925 3103 
Q 1469 3103 1208 2742 
Q 947 2381 947 1747 
z
" id="DejaVuSans-64" transform="scale(0.015625)"/>
       <path d="M 603 3500 
L 1178 3500 
L 1178 0 
L 603 0 
L 603 3500 
z
M 603 4863 
L 1178 4863 
L 1178 4134 
L 603 4134 
L 603 4863 
z
" id="DejaVuSans-69" transform="scale(0.015625)"/>
       <path d="M 3328 2828 
Q 3544 3216 3844 3400 
Q 4144 3584 4550 3584 
Q 5097 3584 5394 3201 
Q 5691 2819 5691 2113 
L 5691 0 
L 5113 0 
L 5113 2094 
Q 5113 2597 4934 2840 
Q 4756 3084 4391 3084 
Q 3944 3084 3684 2787 
Q 3425 2491 3425 1978 
L 3425 0 
L 2847 0 
L 2847 2094 
Q 2847 2600 2669 2842 
Q 2491 3084 2119 3084 
Q 1678 3084 1418 2786 
Q 1159 2488 1159 1978 
L 1159 0 
L 581 0 
L 581 3500 
L 1159 3500 
L 1159 2956 
Q 1356 3278 1631 3431 
Q 1906 3584 2284 3584 
Q 2666 3584 2933 3390 
Q 3200 3197 3328 2828 
z
" id="DejaVuSans-6d" transform="scale(0.015625)"/>
       <path d="M 3513 2113 
L 3513 0 
L 2938 0 
L 2938 2094 
Q 2938 2591 2744 2837 
Q 2550 3084 2163 3084 
Q 1697 3084 1428 2787 
Q 1159 2491 1159 1978 
L 1159 0 
L 581 0 
L 581 3500 
L 1159 3500 
L 1159 2956 
Q 1366 3272 1645 3428 
Q 1925 3584 2291 3584 
Q 2894 3584 3203 3211 
Q 3513 2838 3513 2113 
z
" id="DejaVuSans-6e" transform="scale(0.015625)"/>
       <path d="M 513 4856 
L 1013 4856 
Q 1481 4119 1714 3412 
Q 1947 2706 1947 2009 
Q 1947 1309 1714 600 
Q 1481 -109 1013 -844 
L 513 -844 
Q 928 -128 1133 580 
Q 1338 1288 1338 2009 
Q 1338 2731 1133 3434 
Q 928 4138 513 4856 
z
" id="DejaVuSans-29" transform="scale(0.015625)"/>
      </defs>
      <use xlink:href="#DejaVuSans-6c"/>
      <use x="27.783203" xlink:href="#DejaVuSans-6f"/>
      <use x="88.964844" xlink:href="#DejaVuSans-67"/>
      <use x="152.441406" xlink:href="#DejaVuSans-31"/>
      <use x="216.064453" xlink:href="#DejaVuSans-30"/>
      <use x="279.6875" xlink:href="#DejaVuSans-28"/>
      <use x="318.701172" xlink:href="#DejaVuSans-23"/>
      <use x="402.490234" xlink:href="#DejaVuSans-20"/>
      <use x="434.277344" xlink:href="#DejaVuSans-66"/>
      <use x="463.982422" xlink:href="#DejaVuSans-2d"/>
      <use x="500.066406" xlink:href="#DejaVuSans-65"/>
      <use x="561.589844" xlink:href="#DejaVuSans-76"/>
      <use x="620.769531" xlink:href="#DejaVuSans-61"/>
      <use x="682.048828" xlink:href="#DejaVuSans-6c"/>
      <use x="709.832031" xlink:href="#DejaVuSans-73"/>
      <use x="761.931641" xlink:href="#DejaVuSans-20"/>
      <use x="793.71875" xlink:href="#DejaVuSans-2f"/>
      <use x="827.410156" xlink:href="#DejaVuSans-20"/>
      <use x="859.197266" xlink:href="#DejaVuSans-64"/>
      <use x="922.673828" xlink:href="#DejaVuSans-69"/>
      <use x="950.457031" xlink:href="#DejaVuSans-6d"/>
      <use x="1047.869141" xlink:href="#DejaVuSans-65"/>
      <use x="1109.392578" xlink:href="#DejaVuSans-6e"/>
      <use x="1172.771484" xlink:href="#DejaVuSans-73"/>
      <use x="1224.871094" xlink:href="#DejaVuSans-69"/>
      <use x="1252.654297" xlink:href="#DejaVuSans-6f"/>
      <use x="1313.835938" xlink:href="#DejaVuSans-6e"/>
      <use x="1377.214844" xlink:href="#DejaVuSans-29"/>
     </g>
    </g>
   </g>
   <g id="matplotlib.axis_2">
    <g id="ytick_1">
     <g id="line2d_21">
      <path clip-path="url(#pe4150e1aad)" d="M 57.6 298.944 
L 360.8064 298.944 
" style="fill:none;stroke:#b0b0b0;stroke-linecap:square;stroke-width:0.8;"/>
     </g>
     <g id="line2d_22">
      <defs>
       <path d="M 0 0 
L -3.5 0 
" id="m77b50b58d8" style="stroke:#000000;stroke-width:0.8;"/>
      </defs>
      <g>
       <use style="stroke:#000000;stroke-width:0.8;" x="57.6" xlink:href="#m77b50b58d8" y="298.944"/>
      </g>
     </g>
     <g id="text_6">
      <!-- 0.0 -->
      <g transform="translate(25.155 305.02275)scale(0.16 -0.16)">
       <defs>
        <path d="M 684 794 
L 1344 794 
L 1344 0 
L 684 0 
L 684 794 
z
" id="DejaVuSans-2e" transform="scale(0.015625)"/>
       </defs>
       <use xlink:href="#DejaVuSans-30"/>
       <use x="63.623047" xlink:href="#DejaVuSans-2e"/>
       <use x="95.410156" xlink:href="#DejaVuSans-30"/>
      </g>
     </g>
    </g>
    <g id="ytick_2">
     <g id="line2d_23">
      <path clip-path="url(#pe4150e1aad)" d="M 57.6 244.6848 
L 360.8064 244.6848 
" style="fill:none;stroke:#b0b0b0;stroke-linecap:square;stroke-width:0.8;"/>
     </g>
     <g id="line2d_24">
      <g>
       <use style="stroke:#000000;stroke-width:0.8;" x="57.6" xlink:href="#m77b50b58d8" y="244.6848"/>
      </g>
     </g>
     <g id="text_7">
      <!-- 0.2 -->
      <g transform="translate(25.155 250.76355)scale(0.16 -0.16)">
       <use xlink:href="#DejaVuSans-30"/>
       <use x="63.623047" xlink:href="#DejaVuSans-2e"/>
       <use x="95.410156" xlink:href="#DejaVuSans-32"/>
      </g>
     </g>
    </g>
    <g id="ytick_3">
     <g id="line2d_25">
      <path clip-path="url(#pe4150e1aad)" d="M 57.6 190.4256 
L 360.8064 190.4256 
" style="fill:none;stroke:#b0b0b0;stroke-linecap:square;stroke-width:0.8;"/>
     </g>
     <g id="line2d_26">
      <g>
       <use style="stroke:#000000;stroke-width:0.8;" x="57.6" xlink:href="#m77b50b58d8" y="190.4256"/>
      </g>
     </g>
     <g id="text_8">
      <!-- 0.4 -->
      <g transform="translate(25.155 196.50435)scale(0.16 -0.16)">
       <use xlink:href="#DejaVuSans-30"/>
       <use x="63.623047" xlink:href="#DejaVuSans-2e"/>
       <use x="95.410156" xlink:href="#DejaVuSans-34"/>
      </g>
     </g>
    </g>
    <g id="ytick_4">
     <g id="line2d_27">
      <path clip-path="url(#pe4150e1aad)" d="M 57.6 136.1664 
L 360.8064 136.1664 
" style="fill:none;stroke:#b0b0b0;stroke-linecap:square;stroke-width:0.8;"/>
     </g>
     <g id="line2d_28">
      <g>
       <use style="stroke:#000000;stroke-width:0.8;" x="57.6" xlink:href="#m77b50b58d8" y="136.1664"/>
      </g>
     </g>
     <g id="text_9">
      <!-- 0.6 -->
      <g transform="translate(25.155 142.24515)scale(0.16 -0.16)">
       <use xlink:href="#DejaVuSans-30"/>
       <use x="63.623047" xlink:href="#DejaVuSans-2e"/>
       <use x="95.410156" xlink:href="#DejaVuSans-36"/>
      </g>
     </g>
    </g>
    <g id="ytick_5">
     <g id="line2d_29">
      <path clip-path="url(#pe4150e1aad)" d="M 57.6 81.9072 
L 360.8064 81.9072 
" style="fill:none;stroke:#b0b0b0;stroke-linecap:square;stroke-width:0.8;"/>
     </g>
     <g id="line2d_30">
      <g>
       <use style="stroke:#000000;stroke-width:0.8;" x="57.6" xlink:href="#m77b50b58d8" y="81.9072"/>
      </g>
     </g>
     <g id="text_10">
      <!-- 0.8 -->
      <g transform="translate(25.155 87.98595)scale(0.16 -0.16)">
       <defs>
        <path d="M 2034 2216 
Q 1584 2216 1326 1975 
Q 1069 1734 1069 1313 
Q 1069 891 1326 650 
Q 1584 409 2034 409 
Q 2484 409 2743 651 
Q 3003 894 3003 1313 
Q 3003 1734 2745 1975 
Q 2488 2216 2034 2216 
z
M 1403 2484 
Q 997 2584 770 2862 
Q 544 3141 544 3541 
Q 544 4100 942 4425 
Q 1341 4750 2034 4750 
Q 2731 4750 3128 4425 
Q 3525 4100 3525 3541 
Q 3525 3141 3298 2862 
Q 3072 2584 2669 2484 
Q 3125 2378 3379 2068 
Q 3634 1759 3634 1313 
Q 3634 634 3220 271 
Q 2806 -91 2034 -91 
Q 1263 -91 848 271 
Q 434 634 434 1313 
Q 434 1759 690 2068 
Q 947 2378 1403 2484 
z
M 1172 3481 
Q 1172 3119 1398 2916 
Q 1625 2713 2034 2713 
Q 2441 2713 2670 2916 
Q 2900 3119 2900 3481 
Q 2900 3844 2670 4047 
Q 2441 4250 2034 4250 
Q 1625 4250 1398 4047 
Q 1172 3844 1172 3481 
z
" id="DejaVuSans-38" transform="scale(0.015625)"/>
       </defs>
       <use xlink:href="#DejaVuSans-30"/>
       <use x="63.623047" xlink:href="#DejaVuSans-2e"/>
       <use x="95.410156" xlink:href="#DejaVuSans-38"/>
      </g>
     </g>
    </g>
    <g id="ytick_6">
     <g id="line2d_31">
      <path clip-path="url(#pe4150e1aad)" d="M 57.6 27.648 
L 360.8064 27.648 
" style="fill:none;stroke:#b0b0b0;stroke-linecap:square;stroke-width:0.8;"/>
     </g>
     <g id="line2d_32">
      <g>
       <use style="stroke:#000000;stroke-width:0.8;" x="57.6" xlink:href="#m77b50b58d8" y="27.648"/>
      </g>
     </g>
     <g id="text_11">
      <!-- 1.0 -->
      <g transform="translate(25.155 33.72675)scale(0.16 -0.16)">
       <use xlink:href="#DejaVuSans-31"/>
       <use x="63.623047" xlink:href="#DejaVuSans-2e"/>
       <use x="95.410156" xlink:href="#DejaVuSans-30"/>
      </g>
     </g>
    </g>
    <g id="text_12">
     <!-- Fraction of function,target pairs -->
     <g transform="translate(17.619531 297.681)rotate(-90)scale(0.17 -0.17)">
      <defs>
       <path d="M 628 4666 
L 3309 4666 
L 3309 4134 
L 1259 4134 
L 1259 2759 
L 3109 2759 
L 3109 2228 
L 1259 2228 
L 1259 0 
L 628 0 
L 628 4666 
z
" id="DejaVuSans-46" transform="scale(0.015625)"/>
       <path d="M 2631 2963 
Q 2534 3019 2420 3045 
Q 2306 3072 2169 3072 
Q 1681 3072 1420 2755 
Q 1159 2438 1159 1844 
L 1159 0 
L 581 0 
L 581 3500 
L 1159 3500 
L 1159 2956 
Q 1341 3275 1631 3429 
Q 1922 3584 2338 3584 
Q 2397 3584 2469 3576 
Q 2541 3569 2628 3553 
L 2631 2963 
z
" id="DejaVuSans-72" transform="scale(0.015625)"/>
       <path d="M 3122 3366 
L 3122 2828 
Q 2878 2963 2633 3030 
Q 2388 3097 2138 3097 
Q 1578 3097 1268 2742 
Q 959 2388 959 1747 
Q 959 1106 1268 751 
Q 1578 397 2138 397 
Q 2388 397 2633 464 
Q 2878 531 3122 666 
L 3122 134 
Q 2881 22 2623 -34 
Q 2366 -91 2075 -91 
Q 1284 -91 818 406 
Q 353 903 353 1747 
Q 353 2603 823 3093 
Q 1294 3584 2113 3584 
Q 2378 3584 2631 3529 
Q 2884 3475 3122 3366 
z
" id="DejaVuSans-63" transform="scale(0.015625)"/>
       <path d="M 1172 4494 
L 1172 3500 
L 2356 3500 
L 2356 3053 
L 1172 3053 
L 1172 1153 
Q 1172 725 1289 603 
Q 1406 481 1766 481 
L 2356 481 
L 2356 0 
L 1766 0 
Q 1100 0 847 248 
Q 594 497 594 1153 
L 594 3053 
L 172 3053 
L 172 3500 
L 594 3500 
L 594 4494 
L 1172 4494 
z
" id="DejaVuSans-74" transform="scale(0.015625)"/>
       <path d="M 544 1381 
L 544 3500 
L 1119 3500 
L 1119 1403 
Q 1119 906 1312 657 
Q 1506 409 1894 409 
Q 2359 409 2629 706 
Q 2900 1003 2900 1516 
L 2900 3500 
L 3475 3500 
L 3475 0 
L 2900 0 
L 2900 538 
Q 2691 219 2414 64 
Q 2138 -91 1772 -91 
Q 1169 -91 856 284 
Q 544 659 544 1381 
z
M 1991 3584 
L 1991 3584 
z
" id="DejaVuSans-75" transform="scale(0.015625)"/>
       <path d="M 750 794 
L 1409 794 
L 1409 256 
L 897 -744 
L 494 -744 
L 750 256 
L 750 794 
z
" id="DejaVuSans-2c" transform="scale(0.015625)"/>
       <path d="M 1159 525 
L 1159 -1331 
L 581 -1331 
L 581 3500 
L 1159 3500 
L 1159 2969 
Q 1341 3281 1617 3432 
Q 1894 3584 2278 3584 
Q 2916 3584 3314 3078 
Q 3713 2572 3713 1747 
Q 3713 922 3314 415 
Q 2916 -91 2278 -91 
Q 1894 -91 1617 61 
Q 1341 213 1159 525 
z
M 3116 1747 
Q 3116 2381 2855 2742 
Q 2594 3103 2138 3103 
Q 1681 3103 1420 2742 
Q 1159 2381 1159 1747 
Q 1159 1113 1420 752 
Q 1681 391 2138 391 
Q 2594 391 2855 752 
Q 3116 1113 3116 1747 
z
" id="DejaVuSans-70" transform="scale(0.015625)"/>
      </defs>
      <use xlink:href="#DejaVuSans-46"/>
      <use x="50.269531" xlink:href="#DejaVuSans-72"/>
      <use x="91.382812" xlink:href="#DejaVuSans-61"/>
      <use x="152.662109" xlink:href="#DejaVuSans-63"/>
      <use x="207.642578" xlink:href="#DejaVuSans-74"/>
      <use x="246.851562" xlink:href="#DejaVuSans-69"/>
      <use x="274.634766" xlink:href="#DejaVuSans-6f"/>
      <use x="335.816406" xlink:href="#DejaVuSans-6e"/>
      <use x="399.195312" xlink:href="#DejaVuSans-20"/>
      <use x="430.982422" xlink:href="#DejaVuSans-6f"/>
      <use x="492.164062" xlink:href="#DejaVuSans-66"/>
      <use x="527.369141" xlink:href="#DejaVuSans-20"/>
      <use x="559.15625" xlink:href="#DejaVuSans-66"/>
      <use x="594.361328" xlink:href="#DejaVuSans-75"/>
      <use x="657.740234" xlink:href="#DejaVuSans-6e"/>
      <use x="721.119141" xlink:href="#DejaVuSans-63"/>
      <use x="776.099609" xlink:href="#DejaVuSans-74"/>
      <use x="815.308594" xlink:href="#DejaVuSans-69"/>
      <use x="843.091797" xlink:href="#DejaVuSans-6f"/>
      <use x="904.273438" xlink:href="#DejaVuSans-6e"/>
      <use x="967.652344" xlink:href="#DejaVuSans-2c"/>
      <use x="999.439453" xlink:href="#DejaVuSans-74"/>
      <use x="1038.648438" xlink:href="#DejaVuSans-61"/>
      <use x="1099.927734" xlink:href="#DejaVuSans-72"/>
      <use x="1139.291016" xlink:href="#DejaVuSans-67"/>
      <use x="1202.767578" xlink:href="#DejaVuSans-65"/>
      <use x="1264.291016" xlink:href="#DejaVuSans-74"/>
      <use x="1303.5" xlink:href="#DejaVuSans-20"/>
      <use x="1335.287109" xlink:href="#DejaVuSans-70"/>
      <use x="1398.763672" xlink:href="#DejaVuSans-61"/>
      <use x="1460.042969" xlink:href="#DejaVuSans-69"/>
      <use x="1487.826172" xlink:href="#DejaVuSans-72"/>
      <use x="1528.939453" xlink:href="#DejaVuSans-73"/>
     </g>
    </g>
   </g>
   <g id="line2d_33">
    <defs>
     <path d="M 0 1.5 
C 0.397805 1.5 0.77937 1.341951 1.06066 1.06066 
C 1.341951 0.77937 1.5 0.397805 1.5 0 
C 1.5 -0.397805 1.341951 -0.77937 1.06066 -1.06066 
C 0.77937 -1.341951 0.397805 -1.5 0 -1.5 
C -0.397805 -1.5 -0.77937 -1.341951 -1.06066 -1.06066 
C -1.341951 -0.77937 -1.5 -0.397805 -1.5 0 
C -1.5 0.397805 -1.341951 0.77937 -1.06066 1.06066 
C -0.77937 1.341951 -0.397805 1.5 0 1.5 
z
" id="mda1775e70d" style="stroke:#f5deb3;"/>
    </defs>
    <g>
     <use style="fill:#f5deb3;stroke:#f5deb3;" x="162.370732" xlink:href="#mda1775e70d" y="27.648"/>
     <use style="fill:#f5deb3;stroke:#f5deb3;" x="162.370732" xlink:href="#mda1775e70d" y="27.648"/>
    </g>
   </g>
   <g id="line2d_34">
    <defs>
     <path d="M 0 1.5 
C 0.397805 1.5 0.77937 1.341951 1.06066 1.06066 
C 1.341951 0.77937 1.5 0.397805 1.5 0 
C 1.5 -0.397805 1.341951 -0.77937 1.06066 -1.06066 
C 0.77937 -1.341951 0.397805 -1.5 0 -1.5 
C -0.397805 -1.5 -0.77937 -1.341951 -1.06066 -1.06066 
C -1.341951 -0.77937 -1.5 -0.397805 -1.5 0 
C -1.5 0.397805 -1.341951 0.77937 -1.06066 1.06066 
C -0.77937 1.341951 -0.397805 1.5 0 1.5 
z
" id="m5e032465e0" style="stroke:#000080;"/>
    </defs>
    <g>
     <use style="fill:#000080;stroke:#000080;" x="272.589522" xlink:href="#m5e032465e0" y="43.606588"/>
     <use style="fill:#000080;stroke:#000080;" x="272.589522" xlink:href="#m5e032465e0" y="43.606588"/>
    </g>
   </g>
   <g id="line2d_35">
    <path d="M 128.57149 298.944 
L 128.57149 298.589365 
L 129.167381 298.589365 
L 129.167381 297.880094 
L 132.109044 297.880094 
L 132.109044 297.525459 
L 137.919637 297.525459 
L 137.919637 297.170824 
L 138.438609 297.170824 
L 138.438609 296.816188 
L 139.240288 296.816188 
L 139.240288 296.461553 
L 139.435481 296.461553 
L 139.435481 296.106918 
L 141.632274 296.106918 
L 141.632274 295.752282 
L 142.394151 295.752282 
L 142.394151 294.688376 
L 143.638012 294.688376 
L 143.638012 294.333741 
L 145.730339 294.333741 
L 145.730339 293.979106 
L 146.108646 293.979106 
L 146.108646 293.624471 
L 146.379077 293.624471 
L 146.379077 293.269835 
L 146.973697 293.269835 
L 146.973697 292.9152 
L 147.831805 292.9152 
L 147.893838 292.205929 
L 148.68219 292.205929 
L 148.68219 291.851294 
L 148.800595 291.851294 
L 148.800595 291.496659 
L 150.166205 291.496659 
L 150.166205 291.142024 
L 150.680509 291.142024 
L 150.680509 290.787388 
L 151.439354 290.787388 
L 151.439354 290.432753 
L 152.119363 290.432753 
L 152.119363 289.723482 
L 152.51103 289.723482 
L 152.51103 289.368847 
L 152.703847 289.368847 
L 152.703847 289.014212 
L 153.317193 289.014212 
L 153.317193 288.659576 
L 153.684932 288.659576 
L 153.684932 288.304941 
L 154.067935 288.304941 
L 154.067935 287.950306 
L 155.066821 287.950306 
L 155.066821 287.595671 
L 155.214281 287.595671 
L 155.214281 287.241035 
L 155.934724 287.241035 
L 155.934724 286.8864 
L 156.314566 286.8864 
L 156.314566 286.531765 
L 156.491849 286.531765 
L 156.491849 286.177129 
L 157.032948 286.177129 
L 157.032948 285.822494 
L 157.521831 285.822494 
L 157.632869 285.113224 
L 158.374574 285.113224 
L 158.374574 284.758588 
L 159.15633 284.758588 
L 159.15633 284.403953 
L 159.939564 284.403953 
L 159.939564 284.049318 
L 160.644379 284.049318 
L 160.644379 283.694682 
L 161.125559 283.694682 
L 161.202028 282.985412 
L 161.459725 282.985412 
L 161.534851 281.921506 
L 162.037903 281.921506 
L 162.037903 281.566871 
L 162.613005 281.566871 
L 162.613005 281.212235 
L 162.740015 281.212235 
L 162.740015 280.8576 
L 162.852198 280.8576 
L 162.852198 280.502965 
L 163.484578 280.502965 
L 163.484578 280.148329 
L 164.265747 280.148329 
L 164.265747 279.793694 
L 164.433594 279.793694 
L 164.484939 278.729788 
L 165.077974 278.729788 
L 165.139977 278.020518 
L 165.300233 278.020518 
L 165.300233 277.665882 
L 165.568365 277.665882 
L 165.568365 277.311247 
L 165.904188 277.311247 
L 165.904188 276.956612 
L 166.034495 276.956612 
L 166.034495 276.247341 
L 167.201654 276.247341 
L 167.201654 275.892706 
L 167.823671 275.892706 
L 167.823671 275.538071 
L 167.962699 275.538071 
L 167.962699 275.183435 
L 168.394562 275.183435 
L 168.394562 274.8288 
L 168.653109 274.8288 
L 168.653109 274.474165 
L 169.179765 274.474165 
L 169.179765 273.764894 
L 169.368578 273.764894 
L 169.368578 273.410259 
L 169.692078 273.410259 
L 169.692078 273.055624 
L 169.846947 273.055624 
L 169.846947 272.700988 
L 170.124436 272.700988 
L 170.219181 271.991718 
L 171.014871 271.991718 
L 171.014871 271.637082 
L 171.435909 271.637082 
L 171.435909 271.282447 
L 171.73472 271.282447 
L 171.73472 270.927812 
L 171.891014 270.927812 
L 171.891014 270.573176 
L 172.037442 270.573176 
L 172.105956 269.863906 
L 172.343812 269.863906 
L 172.343812 269.509271 
L 173.047981 269.509271 
L 173.137212 268.445365 
L 173.402394 268.445365 
L 173.402394 268.090729 
L 173.553396 268.090729 
L 173.553396 267.736094 
L 173.914037 267.736094 
L 173.960572 267.026824 
L 174.068707 267.026824 
L 174.068707 266.672188 
L 174.260272 266.672188 
L 174.366702 265.608282 
L 174.381858 265.608282 
L 174.381858 265.253647 
L 174.615217 265.253647 
L 174.615217 264.899012 
L 175.391968 264.899012 
L 175.391968 264.544376 
L 176.096471 264.544376 
L 176.12411 263.835106 
L 176.574381 263.835106 
L 176.587858 263.125835 
L 176.855405 263.125835 
L 176.855405 262.7712 
L 177.11265 262.7712 
L 177.11265 262.416565 
L 177.262725 262.416565 
L 177.262725 262.061929 
L 177.405164 262.061929 
L 177.405164 261.707294 
L 177.559332 261.707294 
L 177.610441 260.643388 
L 177.686847 260.643388 
L 177.686847 260.288753 
L 177.832428 260.288753 
L 177.901658 259.579482 
L 178.026881 259.579482 
L 178.026881 259.224847 
L 178.250202 259.224847 
L 178.305621 258.515576 
L 178.856981 258.515576 
L 178.856981 258.160941 
L 179.094317 258.160941 
L 179.094317 257.806306 
L 179.317046 257.806306 
L 179.410043 257.097035 
L 179.634816 257.097035 
L 179.66344 256.387765 
L 179.964204 256.387765 
L 179.997952 255.678494 
L 180.121178 255.678494 
L 180.121178 255.323859 
L 180.265776 255.323859 
L 180.359723 254.259953 
L 180.491561 254.259953 
L 180.491561 253.550682 
L 180.784861 253.550682 
L 180.784861 253.196047 
L 180.919115 253.196047 
L 180.919115 252.841412 
L 181.052417 252.841412 
L 181.052417 252.486776 
L 181.226942 252.486776 
L 181.226942 252.132141 
L 181.399863 252.132141 
L 181.410292 251.422871 
L 181.766602 251.422871 
L 181.766602 251.068235 
L 181.965049 251.068235 
L 181.965049 250.7136 
L 182.096193 250.7136 
L 182.096193 250.358965 
L 182.226429 250.358965 
L 182.226429 250.004329 
L 182.410224 250.004329 
L 182.459592 249.295059 
L 182.611814 249.295059 
L 182.611814 248.940424 
L 183.146981 248.940424 
L 183.180226 248.231153 
L 183.265442 248.231153 
L 183.265442 247.876518 
L 183.528119 247.876518 
L 183.528119 247.521882 
L 183.658094 247.521882 
L 183.658094 247.167247 
L 183.86512 247.167247 
L 183.915382 246.457976 
L 184.010964 246.457976 
L 184.05631 245.748706 
L 184.182699 245.748706 
L 184.182699 245.394071 
L 184.31718 245.394071 
L 184.375157 244.6848 
L 184.428517 244.6848 
L 184.428517 244.330165 
L 184.570075 244.330165 
L 184.570075 243.975529 
L 184.776074 243.975529 
L 184.837003 243.266259 
L 185.078761 243.266259 
L 185.125886 242.202353 
L 185.385096 242.202353 
L 185.385096 241.847718 
L 185.632455 241.847718 
L 185.632455 241.493082 
L 185.835444 241.493082 
L 185.921774 240.783812 
L 185.958651 240.783812 
L 185.958651 240.429176 
L 186.487395 240.429176 
L 186.487395 240.074541 
L 186.638031 240.074541 
L 186.73648 238.656 
L 186.810958 238.656 
L 186.865648 237.946729 
L 187.009426 237.946729 
L 187.009426 237.592094 
L 187.13674 237.592094 
L 187.178988 236.882824 
L 187.438067 236.882824 
L 187.438067 236.528188 
L 187.674954 236.528188 
L 187.745814 235.109647 
L 187.894127 235.109647 
L 187.993582 234.045741 
L 188.037615 234.045741 
L 188.037615 233.691106 
L 188.176379 233.691106 
L 188.270737 232.272565 
L 188.339392 232.272565 
L 188.339392 231.917929 
L 188.472374 231.917929 
L 188.565262 231.208659 
L 188.647052 231.208659 
L 188.66833 230.499388 
L 189.043801 230.499388 
L 189.043801 230.144753 
L 189.486729 230.144753 
L 189.584883 229.435482 
L 189.61861 229.435482 
L 189.669089 228.726212 
L 189.776325 228.726212 
L 189.776325 228.371576 
L 190.14691 228.371576 
L 190.254722 227.662306 
L 190.277512 227.662306 
L 190.300275 226.953035 
L 190.471731 226.953035 
L 190.507122 225.889129 
L 190.632063 225.889129 
L 190.635255 225.179859 
L 190.756179 225.179859 
L 190.756179 224.825224 
L 191.045763 224.825224 
L 191.045763 224.470588 
L 191.266238 224.470588 
L 191.361697 223.406682 
L 191.648227 223.406682 
L 191.648227 223.052047 
L 191.804878 223.052047 
L 191.837849 221.988141 
L 192.00778 221.988141 
L 192.075916 221.278871 
L 192.158533 221.278871 
L 192.199706 220.5696 
L 192.34019 220.5696 
L 192.444868 219.505694 
L 192.577782 219.505694 
L 192.623794 218.796424 
L 192.761157 218.796424 
L 192.766859 218.087153 
L 192.956876 218.087153 
L 193.038531 217.377882 
L 193.206355 217.377882 
L 193.206355 217.023247 
L 193.411297 217.023247 
L 193.512937 215.959341 
L 193.701027 215.959341 
L 193.801117 215.250071 
L 193.91141 215.250071 
L 193.91141 214.895435 
L 194.053031 214.895435 
L 194.161861 214.186165 
L 194.193595 214.186165 
L 194.259536 213.476894 
L 194.393342 213.476894 
L 194.393342 213.122259 
L 194.523608 213.122259 
L 194.523608 212.767624 
L 194.796823 212.767624 
L 194.870884 212.058353 
L 194.990298 212.058353 
L 195.076213 210.639812 
L 195.146673 210.639812 
L 195.149185 209.930541 
L 195.519709 209.930541 
L 195.559066 208.866635 
L 195.85165 208.866635 
L 195.9048 208.157365 
L 195.969826 208.157365 
L 196.020246 207.093459 
L 196.170701 207.093459 
L 196.272706 205.674918 
L 196.303436 205.674918 
L 196.315242 204.965647 
L 196.656748 204.965647 
L 196.656748 204.611012 
L 196.825204 204.611012 
L 196.919159 203.547106 
L 197.064888 203.547106 
L 197.110198 202.4832 
L 197.207247 202.4832 
L 197.261196 201.419294 
L 197.488772 201.419294 
L 197.51315 200.710024 
L 197.612554 200.710024 
L 197.612554 200.355388 
L 197.829411 200.355388 
L 197.829411 200.000753 
L 197.985569 200.000753 
L 197.998524 199.291482 
L 198.245117 199.291482 
L 198.245117 198.936847 
L 198.36827 198.936847 
L 198.450628 198.227576 
L 198.749563 198.227576 
L 198.857099 196.809035 
L 198.883887 196.809035 
L 198.978371 194.681224 
L 199.066266 194.681224 
L 199.066266 194.326588 
L 199.178095 194.326588 
L 199.190254 193.617318 
L 199.319468 193.617318 
L 199.377726 192.553412 
L 199.465776 192.553412 
L 199.501678 191.844141 
L 199.954492 191.844141 
L 200.061178 190.070965 
L 200.128755 190.070965 
L 200.222957 189.007059 
L 200.295688 189.007059 
L 200.34529 188.297788 
L 200.483862 188.297788 
L 200.585715 186.879247 
L 200.621421 186.879247 
L 200.621421 186.524612 
L 200.800803 186.524612 
L 200.862072 185.815341 
L 200.982174 185.815341 
L 201.083203 184.751435 
L 201.138082 184.751435 
L 201.220101 183.687529 
L 201.359621 183.687529 
L 201.359621 183.332894 
L 201.55001 183.332894 
L 201.655153 181.914353 
L 202.056031 181.914353 
L 202.099472 181.205082 
L 202.170498 181.205082 
L 202.272238 180.141176 
L 202.354606 180.141176 
L 202.397363 179.077271 
L 202.492789 179.077271 
L 202.548796 178.013365 
L 202.692293 178.013365 
L 202.692293 177.658729 
L 202.806308 177.658729 
L 202.911326 176.949459 
L 202.947861 176.949459 
L 202.947861 176.594824 
L 203.106463 176.594824 
L 203.147547 175.885553 
L 203.244151 175.885553 
L 203.351632 174.112376 
L 203.356503 174.112376 
L 203.367864 173.403106 
L 203.584026 173.403106 
L 203.665648 172.693835 
L 203.711904 172.693835 
L 203.770755 171.629929 
L 203.906836 171.629929 
L 203.906836 171.275294 
L 204.085718 171.275294 
L 204.163642 170.211388 
L 204.35859 170.211388 
L 204.467558 168.438212 
L 204.470619 168.438212 
L 204.488971 167.728941 
L 204.591108 167.728941 
L 204.701765 166.665035 
L 204.710831 166.665035 
L 204.733477 165.955765 
L 205.152756 165.955765 
L 205.199916 164.891859 
L 205.268968 164.891859 
L 205.33046 164.182588 
L 205.423778 164.182588 
L 205.476067 163.118682 
L 205.705286 163.118682 
L 205.812446 160.2816 
L 205.865087 160.2816 
L 205.93316 158.863059 
L 206.123306 158.863059 
L 206.223936 158.153788 
L 206.251794 158.153788 
L 206.251794 157.799153 
L 206.508913 157.799153 
L 206.611604 156.025976 
L 206.683835 156.025976 
L 206.683835 155.671341 
L 206.823422 155.671341 
L 206.90157 154.2528 
L 207.018188 154.2528 
L 207.123459 153.543529 
L 207.209635 153.543529 
L 207.221536 152.834259 
L 207.32305 152.834259 
L 207.401773 151.061082 
L 207.444931 151.061082 
L 207.444931 150.706447 
L 207.599743 150.706447 
L 207.696663 149.642541 
L 207.764854 149.642541 
L 207.868594 148.578635 
L 207.899223 148.578635 
L 208.007299 147.160094 
L 208.019973 147.160094 
L 208.068057 146.450824 
L 208.134917 146.450824 
L 208.230378 145.386918 
L 208.392553 145.386918 
L 208.458272 143.613741 
L 208.517593 143.613741 
L 208.536092 142.904471 
L 208.636903 142.904471 
L 208.636903 142.549835 
L 208.862376 142.549835 
L 208.95302 141.131294 
L 208.981933 141.131294 
L 209.040829 140.422024 
L 209.205712 140.422024 
L 209.241366 139.358118 
L 209.380952 139.358118 
L 209.489069 137.939576 
L 209.505467 137.939576 
L 209.505467 137.584941 
L 209.839666 137.584941 
L 209.93031 135.811765 
L 209.987455 135.811765 
L 210.095555 134.747859 
L 210.145412 134.747859 
L 210.236851 133.329318 
L 210.268357 133.329318 
L 210.320001 132.265412 
L 210.431786 132.265412 
L 210.431786 131.910776 
L 210.545125 131.910776 
L 210.587176 131.201506 
L 210.680898 131.201506 
L 210.759922 130.1376 
L 210.825522 130.1376 
L 210.90829 128.009788 
L 211.096423 128.009788 
L 211.193 126.945882 
L 211.209048 126.945882 
L 211.25711 125.881976 
L 211.336942 125.881976 
L 211.413263 124.818071 
L 211.540832 124.818071 
L 211.548186 124.1088 
L 211.652924 124.1088 
L 211.762276 123.399529 
L 211.839997 123.399529 
L 211.879253 121.980988 
L 211.977037 121.980988 
L 211.977037 121.626353 
L 212.094731 121.626353 
L 212.158897 120.207812 
L 212.459476 120.207812 
L 212.459476 119.853176 
L 212.593087 119.853176 
L 212.593087 119.498541 
L 212.707988 119.498541 
L 212.776003 118.434635 
L 212.826117 118.434635 
L 212.923995 117.725365 
L 212.994153 117.725365 
L 213.096967 116.661459 
L 213.142375 116.661459 
L 213.232864 115.597553 
L 213.278904 115.597553 
L 213.370647 114.888282 
L 213.40208 114.888282 
L 213.40208 114.533647 
L 213.532964 114.533647 
L 213.613129 113.824376 
L 216.460099 113.824376 
L 216.460099 113.469741 
L 217.113567 113.469741 
L 217.113567 113.115106 
L 217.270736 113.115106 
L 217.369653 112.405835 
L 217.416611 112.405835 
L 217.416611 112.0512 
L 218.45968 112.0512 
L 218.516329 110.987294 
L 218.959944 110.987294 
L 218.959944 110.632659 
L 219.446558 110.632659 
L 219.446558 110.278024 
L 219.721309 110.278024 
L 219.721309 109.923388 
L 219.902048 109.923388 
L 219.902048 109.568753 
L 221.25796 109.568753 
L 221.329908 108.859482 
L 221.872755 108.859482 
L 221.872755 108.504847 
L 222.211251 108.504847 
L 222.227332 107.795576 
L 222.376174 107.795576 
L 222.376174 107.440941 
L 222.612133 107.440941 
L 222.612133 107.086306 
L 222.729591 107.086306 
L 222.735386 106.377035 
L 223.160524 106.377035 
L 223.208618 104.958494 
L 223.330284 104.958494 
L 223.330284 104.603859 
L 223.469567 104.603859 
L 223.469567 104.249224 
L 223.65424 104.249224 
L 223.738486 103.539953 
L 223.780742 103.539953 
L 223.780742 102.830682 
L 223.935235 102.830682 
L 223.935235 102.476047 
L 224.062028 102.476047 
L 224.074444 101.766776 
L 224.234047 101.766776 
L 224.234047 101.412141 
L 224.441592 101.412141 
L 224.516067 99.9936 
L 224.588673 99.9936 
L 224.60442 99.284329 
L 224.911977 99.284329 
L 225.009281 98.220424 
L 225.031861 98.220424 
L 225.088706 96.447247 
L 225.191715 96.447247 
L 225.191715 96.092612 
L 225.33862 96.092612 
L 225.446796 94.319435 
L 225.485888 94.319435 
L 225.595214 91.836988 
L 225.65882 91.836988 
L 225.65882 91.482353 
L 225.797212 91.482353 
L 225.862593 88.999906 
L 225.935082 88.999906 
L 225.935082 88.290635 
L 226.094744 88.290635 
L 226.094744 87.936 
L 226.215534 87.936 
L 226.273239 86.517459 
L 226.372366 86.517459 
L 226.473348 84.744282 
L 226.557246 84.744282 
L 226.662418 83.325741 
L 229.679008 83.325741 
L 229.74779 82.616471 
L 230.91171 82.616471 
L 230.91171 82.261835 
L 231.549883 82.261835 
L 231.622283 81.552565 
L 231.685765 81.552565 
L 231.685765 81.197929 
L 232.062932 81.197929 
L 232.062932 80.843294 
L 232.226338 80.843294 
L 232.226338 80.488659 
L 232.39562 80.488659 
L 232.39562 80.134024 
L 232.608359 80.134024 
L 232.715708 79.070118 
L 232.865449 79.070118 
L 232.946779 77.296941 
L 233.017362 77.296941 
L 233.118406 76.587671 
L 233.144748 76.587671 
L 233.234502 75.169129 
L 233.517237 75.169129 
L 233.588645 74.105224 
L 233.722253 74.105224 
L 233.763892 73.041318 
L 233.916745 73.041318 
L 233.99653 71.977412 
L 234.066462 71.977412 
L 234.066462 71.622776 
L 234.212793 71.622776 
L 234.212793 70.913506 
L 237.843351 70.913506 
L 237.843351 70.558871 
L 238.059364 70.558871 
L 238.059364 70.204235 
L 238.301826 70.204235 
L 238.393808 69.140329 
L 238.446169 69.140329 
L 238.557203 67.012518 
L 238.646207 67.012518 
L 238.646207 66.657882 
L 238.832569 66.657882 
L 238.909249 65.593976 
L 239.060219 65.593976 
L 239.060219 65.239341 
L 239.180756 65.239341 
L 239.211675 64.530071 
L 239.346592 64.530071 
L 239.425028 63.8208 
L 239.484593 63.8208 
L 239.553926 62.402259 
L 239.612376 62.402259 
L 239.612376 62.047624 
L 242.599323 62.047624 
L 242.599323 61.692988 
L 243.476595 61.692988 
L 243.5714 59.565176 
L 243.589577 59.565176 
L 243.61786 58.501271 
L 243.750678 58.501271 
L 243.829959 57.437365 
L 246.411049 57.437365 
L 246.411049 57.082729 
L 246.527232 57.082729 
L 246.624483 56.373459 
L 246.673245 56.373459 
L 246.673245 55.664188 
L 246.807983 55.664188 
L 246.818456 54.954918 
L 247.00726 54.954918 
L 247.052496 53.891012 
L 247.1485 53.891012 
L 247.1485 53.536376 
L 249.827613 53.536376 
L 249.869434 52.827106 
L 249.993525 52.827106 
L 250.075665 52.117835 
L 250.148948 52.117835 
L 250.148948 51.7632 
L 252.487276 51.7632 
L 252.551638 50.699294 
L 254.419421 50.699294 
L 254.525264 49.990024 
L 254.73243 49.990024 
L 254.745963 49.280753 
L 256.780322 49.280753 
L 256.780322 48.926118 
L 256.908885 48.926118 
L 256.908885 48.571482 
L 258.596794 48.571482 
L 258.705427 47.862212 
L 259.976735 47.862212 
L 259.976735 47.507576 
L 260.199186 47.507576 
L 260.302905 46.443671 
L 260.345254 46.443671 
L 260.345254 46.089035 
L 261.722254 46.089035 
L 261.754757 45.379765 
L 266.802898 45.379765 
L 266.836997 44.670494 
L 268.934466 44.670494 
L 268.934466 44.315859 
L 271.708453 44.315859 
L 271.708453 43.961224 
L 272.589522 43.961224 
L 272.589522 43.606588 
L 360.8064 43.606588 
L 360.8064 43.606588 
" style="fill:none;stroke:#000080;stroke-linecap:square;stroke-width:1.5;"/>
   </g>
   <g id="line2d_36">
    <defs>
     <path d="M 0 6 
C 1.591219 6 3.117479 5.367802 4.242641 4.242641 
C 5.367802 3.117479 6 1.591219 6 0 
C 6 -1.591219 5.367802 -3.117479 4.242641 -4.242641 
C 3.117479 -5.367802 1.591219 -6 0 -6 
C -1.591219 -6 -3.117479 -5.367802 -4.242641 -4.242641 
C -5.367802 -3.117479 -6 -1.591219 -6 0 
C -6 1.591219 -5.367802 3.117479 -4.242641 4.242641 
C -3.117479 5.367802 -1.591219 6 0 6 
z
" id="m5fa90ccb88" style="stroke:#000080;stroke-width:1.5;"/>
    </defs>
    <g>
     <use style="fill-opacity:0;stroke:#000080;stroke-width:1.5;" x="206.567857" xlink:href="#m5fa90ccb88" y="157.444518"/>
     <use style="fill-opacity:0;stroke:#000080;stroke-width:1.5;" x="243.476595" xlink:href="#m5fa90ccb88" y="61.692988"/>
     <use style="fill-opacity:0;stroke:#000080;stroke-width:1.5;" x="272.589522" xlink:href="#m5fa90ccb88" y="43.606588"/>
     <use style="fill-opacity:0;stroke:#000080;stroke-width:1.5;" x="272.589522" xlink:href="#m5fa90ccb88" y="43.606588"/>
     <use style="fill-opacity:0;stroke:#000080;stroke-width:1.5;" x="360.8064" xlink:href="#m5fa90ccb88" y="43.606588"/>
    </g>
   </g>
   <g id="line2d_37">
    <path style="fill:none;stroke:#000080;stroke-linecap:square;stroke-width:1.5;"/>
    <g/>
   </g>
   <g id="line2d_38">
    <path clip-path="url(#pe4150e1aad)" d="M 213.633352 113.824376 
" style="fill:none;stroke:#000080;stroke-linecap:square;stroke-width:1.5;"/>
    <defs>
     <path d="M -12 12 
L 12 -12 
M -12 -12 
L 12 12 
" id="m51e1d1471e" style="stroke:#000080;"/>
    </defs>
    <g clip-path="url(#pe4150e1aad)">
     <use style="fill:#000080;stroke:#000080;" x="213.633352" xlink:href="#m51e1d1471e" y="113.824376"/>
    </g>
   </g>
   <g id="line2d_39">
    <defs>
     <path d="M 0 1.5 
C 0.397805 1.5 0.77937 1.341951 1.06066 1.06066 
C 1.341951 0.77937 1.5 0.397805 1.5 0 
C 1.5 -0.397805 1.341951 -0.77937 1.06066 -1.06066 
C 0.77937 -1.341951 0.397805 -1.5 0 -1.5 
C -0.397805 -1.5 -0.77937 -1.341951 -1.06066 -1.06066 
C -1.341951 -0.77937 -1.5 -0.397805 -1.5 0 
C -1.5 0.397805 -1.341951 0.77937 -1.06066 1.06066 
C -0.77937 1.341951 -0.397805 1.5 0 1.5 
z
" id="mea9ad21c4d" style="stroke:#ff00ff;"/>
    </defs>
    <g>
     <use style="fill:#ff00ff;stroke:#ff00ff;" x="201.333427" xlink:href="#mea9ad21c4d" y="27.648"/>
     <use style="fill:#ff00ff;stroke:#ff00ff;" x="201.333427" xlink:href="#mea9ad21c4d" y="27.648"/>
    </g>
   </g>
   <g id="line2d_40">
    <path d="M 89.323782 298.944 
L 89.323782 298.589365 
L 91.616719 298.589365 
L 91.616719 298.234729 
L 105.559021 298.234729 
L 105.559021 297.880094 
L 108.915146 297.880094 
L 108.915146 297.525459 
L 110.562208 297.525459 
L 110.562208 297.170824 
L 115.050503 297.170824 
L 115.050503 296.816188 
L 115.314838 296.816188 
L 115.314838 296.461553 
L 118.000953 296.461553 
L 118.000953 296.106918 
L 118.227147 296.106918 
L 118.227147 295.752282 
L 118.376446 295.752282 
L 118.376446 295.397647 
L 119.807672 295.397647 
L 119.807672 295.043012 
L 120.0813 295.043012 
L 120.0813 294.688376 
L 120.48442 294.688376 
L 120.48442 294.333741 
L 121.008818 294.333741 
L 121.008818 293.979106 
L 123.544976 293.979106 
L 123.544976 293.624471 
L 124.210942 293.624471 
L 124.210942 293.269835 
L 125.115773 293.269835 
L 125.167667 292.560565 
L 125.526971 292.560565 
L 125.628382 291.851294 
L 125.929373 291.851294 
L 125.929373 291.496659 
L 126.176572 291.496659 
L 126.225624 290.787388 
L 126.993549 290.787388 
L 126.993549 290.432753 
L 127.731351 290.432753 
L 127.731351 290.078118 
L 128.133992 290.078118 
L 128.133992 289.723482 
L 128.614685 289.723482 
L 128.614685 289.368847 
L 129.987186 289.368847 
L 129.987186 289.014212 
L 130.265881 289.014212 
L 130.265881 288.304941 
L 130.4233 288.304941 
L 130.4233 287.950306 
L 130.540507 287.950306 
L 130.540507 287.595671 
L 130.656987 287.595671 
L 130.656987 287.241035 
L 131.674076 287.241035 
L 131.674076 286.8864 
L 131.856536 286.8864 
L 131.929028 286.177129 
L 132.499119 286.177129 
L 132.499119 285.822494 
L 132.673786 285.822494 
L 132.708526 285.113224 
L 133.885683 285.113224 
L 133.885683 284.758588 
L 134.558167 284.758588 
L 134.558167 284.403953 
L 134.839175 284.403953 
L 134.839175 284.049318 
L 135.177024 284.049318 
L 135.237805 283.340047 
L 135.298389 283.340047 
L 135.298389 282.985412 
L 135.835047 282.985412 
L 135.92302 281.921506 
L 136.668697 281.921506 
L 136.668697 281.566871 
L 137.085822 281.566871 
L 137.140746 280.8576 
L 137.627979 280.8576 
L 137.654681 280.148329 
L 137.866944 280.148329 
L 137.866944 279.793694 
L 138.154948 279.793694 
L 138.180913 279.084424 
L 138.718057 279.084424 
L 138.768422 278.020518 
L 139.483965 278.020518 
L 139.483965 277.665882 
L 140.219905 277.665882 
L 140.26641 276.956612 
L 140.657135 276.956612 
L 140.657135 276.601976 
L 140.793122 276.601976 
L 140.793122 276.247341 
L 140.950542 276.247341 
L 140.950542 275.892706 
L 141.062184 275.892706 
L 141.128852 275.183435 
L 141.217377 275.183435 
L 141.217377 274.8288 
L 141.782854 274.8288 
L 141.84702 274.119529 
L 142.206555 274.119529 
L 142.206555 273.764894 
L 142.641404 273.764894 
L 142.702713 273.055624 
L 142.966099 273.055624 
L 143.006295 271.991718 
L 143.344534 271.991718 
L 143.344534 271.637082 
L 143.462475 271.637082 
L 143.462475 271.282447 
L 143.715505 271.282447 
L 143.715505 270.927812 
L 143.907854 270.927812 
L 143.907854 270.573176 
L 144.079302 270.573176 
L 144.079302 270.218541 
L 144.2304 270.218541 
L 144.2304 269.863906 
L 144.491935 269.863906 
L 144.491935 269.154635 
L 144.877544 269.154635 
L 144.968202 268.090729 
L 145.094395 268.090729 
L 145.112353 267.381459 
L 145.379694 267.381459 
L 145.379694 266.672188 
L 146.074567 266.672188 
L 146.176619 265.962918 
L 146.261241 265.962918 
L 146.261241 265.608282 
L 146.379077 265.608282 
L 146.379077 265.253647 
L 146.496179 265.253647 
L 146.496179 264.899012 
L 146.87589 264.899012 
L 146.908549 264.189741 
L 147.103321 264.189741 
L 147.135588 263.480471 
L 147.359919 263.480471 
L 147.439393 262.7712 
L 147.486917 262.7712 
L 147.486917 262.416565 
L 147.660152 262.416565 
L 147.769567 261.352659 
L 148.063382 261.352659 
L 148.07872 260.288753 
L 148.322436 260.288753 
L 148.322436 259.934118 
L 148.652472 259.934118 
L 148.697031 259.224847 
L 148.932916 259.224847 
L 148.991428 258.160941 
L 149.20924 258.160941 
L 149.2669 257.451671 
L 149.35306 257.451671 
L 149.42456 256.7424 
L 149.693807 256.7424 
L 149.778038 255.678494 
L 149.973123 255.678494 
L 150.083698 254.969224 
L 150.097474 254.969224 
L 150.097474 254.614588 
L 150.452162 254.614588 
L 150.546523 253.550682 
L 150.72052 253.550682 
L 150.8268 252.486776 
L 151.102962 252.486776 
L 151.116012 251.422871 
L 151.375128 251.422871 
L 151.375128 251.068235 
L 151.50336 251.068235 
L 151.592605 250.358965 
L 151.681429 250.358965 
L 151.70673 249.649694 
L 151.820167 249.649694 
L 151.820167 249.295059 
L 151.945411 249.295059 
L 151.945411 248.940424 
L 152.082223 248.940424 
L 152.131727 248.231153 
L 152.340678 248.231153 
L 152.365109 247.167247 
L 152.498913 247.167247 
L 152.595631 245.748706 
L 152.631772 245.748706 
L 152.739781 244.6848 
L 152.823362 244.6848 
L 152.823362 244.330165 
L 152.977604 244.330165 
L 153.02481 243.620894 
L 153.189104 243.620894 
L 153.293969 241.847718 
L 153.547871 241.847718 
L 153.58223 240.429176 
L 153.899924 240.429176 
L 153.967309 239.010635 
L 154.034453 239.010635 
L 154.112486 238.301365 
L 154.190197 238.301365 
L 154.256552 237.592094 
L 154.333671 237.592094 
L 154.388563 236.882824 
L 154.660647 236.882824 
L 154.768388 235.818918 
L 154.789862 235.818918 
L 154.875516 234.755012 
L 154.950144 234.755012 
L 155.045661 233.691106 
L 155.087958 233.691106 
L 155.13016 232.6272 
L 155.24573 232.6272 
L 155.339761 231.208659 
L 155.443693 231.208659 
L 155.495444 230.499388 
L 155.639595 230.499388 
L 155.721473 229.435482 
L 155.85377 229.435482 
L 155.954908 228.371576 
L 155.985143 228.371576 
L 156.005274 227.307671 
L 156.145584 227.307671 
L 156.145584 226.953035 
L 156.472233 226.953035 
L 156.472233 226.5984 
L 156.677186 226.5984 
L 156.677186 226.243765 
L 156.84148 226.243765 
L 156.899125 225.179859 
L 157.118477 225.179859 
L 157.213055 223.761318 
L 157.288377 223.761318 
L 157.354037 222.342776 
L 157.428797 222.342776 
L 157.53111 220.924235 
L 157.540383 220.924235 
L 157.595929 219.860329 
L 157.770751 219.860329 
L 157.834751 218.796424 
L 157.934885 218.796424 
L 158.025456 217.732518 
L 158.115593 217.732518 
L 158.133569 216.668612 
L 158.294582 216.668612 
L 158.401163 215.604706 
L 158.498335 215.604706 
L 158.568692 214.186165 
L 158.942415 214.186165 
L 159.045398 213.476894 
L 159.062507 213.476894 
L 159.173339 212.058353 
L 159.224273 212.058353 
L 159.325729 210.639812 
L 159.367841 210.639812 
L 159.384659 209.930541 
L 159.518669 209.930541 
L 159.585318 208.866635 
L 159.693121 208.866635 
L 159.767393 207.802729 
L 159.923234 207.802729 
L 159.980326 206.384188 
L 160.085895 206.384188 
L 160.174762 205.320282 
L 160.198926 205.320282 
L 160.247161 204.611012 
L 160.327278 204.611012 
L 160.415015 203.547106 
L 160.478568 203.547106 
L 160.565603 201.773929 
L 160.636516 201.773929 
L 160.722826 200.000753 
L 160.761927 200.000753 
L 160.87098 197.872941 
L 160.956223 197.872941 
L 161.064158 197.163671 
L 161.117894 197.163671 
L 161.163832 196.099765 
L 161.23253 196.099765 
L 161.338896 194.681224 
L 161.391854 194.681224 
L 161.437128 193.262682 
L 161.564818 193.262682 
L 161.564818 192.908047 
L 161.691646 192.908047 
L 161.795455 191.844141 
L 161.906046 191.844141 
L 161.994053 190.780235 
L 162.06708 190.780235 
L 162.168843 190.070965 
L 162.226747 190.070965 
L 162.327652 189.007059 
L 162.363559 189.007059 
L 162.370732 188.297788 
L 162.478002 188.297788 
L 162.577572 186.524612 
L 162.634233 186.524612 
L 162.697774 185.460706 
L 162.824215 185.460706 
L 162.887118 184.3968 
L 162.942856 184.3968 
L 163.026155 182.978259 
L 163.184786 182.978259 
L 163.253342 182.268988 
L 163.348901 182.268988 
L 163.430425 181.205082 
L 163.464289 181.205082 
L 163.572247 180.141176 
L 163.612572 180.141176 
L 163.713007 178.722635 
L 163.726358 178.722635 
L 163.786321 176.949459 
L 163.865975 176.949459 
L 163.932096 175.885553 
L 163.978243 175.885553 
L 164.070199 174.112376 
L 164.102932 174.112376 
L 164.168227 172.3392 
L 164.220301 172.3392 
L 164.317552 170.211388 
L 164.343401 170.211388 
L 164.343401 169.856753 
L 164.516958 169.856753 
L 164.619057 168.083576 
L 164.714273 168.083576 
L 164.758543 167.374306 
L 164.846771 167.374306 
L 164.915805 165.246494 
L 164.959603 165.246494 
L 165.065549 163.118682 
L 165.077974 163.118682 
L 165.158538 162.409412 
L 165.281812 162.409412 
L 165.312505 161.700141 
L 165.398179 161.700141 
L 165.507761 160.2816 
L 165.532026 160.2816 
L 165.640833 158.508424 
L 165.64686 158.508424 
L 165.725029 156.735247 
L 165.760997 156.735247 
L 165.850619 155.316706 
L 165.898243 155.316706 
L 165.999046 152.834259 
L 166.01087 152.834259 
L 166.081656 151.770353 
L 166.122826 151.770353 
L 166.181484 149.997176 
L 166.251633 149.997176 
L 166.338952 148.933271 
L 166.367969 148.933271 
L 166.431649 147.869365 
L 166.489353 147.869365 
L 166.598506 146.450824 
L 166.655701 146.450824 
L 166.746854 145.386918 
L 166.809266 145.386918 
L 166.820591 144.677647 
L 166.950346 144.677647 
L 167.023292 143.613741 
L 167.095955 143.613741 
L 167.190556 142.904471 
L 167.207201 142.904471 
L 167.317792 140.776659 
L 167.350843 140.776659 
L 167.44965 138.648847 
L 167.477004 138.648847 
L 167.580589 135.102494 
L 167.661966 135.102494 
L 167.705223 134.038588 
L 167.80219 134.038588 
L 167.839765 132.620047 
L 167.941377 132.620047 
L 168.026521 131.556141 
L 168.05305 131.556141 
L 168.111282 129.782965 
L 168.195663 129.782965 
L 168.274427 128.364424 
L 168.326754 128.364424 
L 168.425776 126.236612 
L 168.467314 126.236612 
L 168.555279 124.1088 
L 168.586228 124.1088 
L 168.632555 122.690259 
L 168.704395 122.690259 
L 168.801454 121.626353 
L 168.842171 121.626353 
L 168.948638 119.498541 
L 168.973898 119.498541 
L 169.074603 117.016094 
L 169.089662 117.016094 
L 169.15978 114.888282 
L 169.254523 114.888282 
L 169.358688 112.405835 
L 169.422883 112.405835 
L 169.486859 111.341929 
L 169.535924 111.341929 
L 169.643419 109.568753 
L 169.65803 109.568753 
L 169.711507 108.150212 
L 169.798687 108.150212 
L 169.87103 104.958494 
L 169.914303 104.958494 
L 170.00055 102.121412 
L 170.09592 102.121412 
L 170.148167 101.057506 
L 170.214455 101.057506 
L 170.294635 98.929694 
L 170.346334 98.929694 
L 170.453976 97.865788 
L 170.458643 97.865788 
L 170.54708 96.447247 
L 170.59346 96.447247 
L 170.690486 95.028706 
L 170.791599 95.028706 
L 170.796182 94.319435 
L 170.964979 94.319435 
L 171.069148 92.900894 
L 171.11426 92.900894 
L 171.217608 91.127718 
L 171.307016 91.127718 
L 171.351562 90.063812 
L 171.422616 90.063812 
L 171.519879 88.290635 
L 171.546318 88.290635 
L 171.656084 86.517459 
L 171.67796 86.517459 
L 171.782615 84.389647 
L 171.826049 84.389647 
L 171.916937 83.325741 
L 172.024567 83.325741 
L 172.088851 81.9072 
L 172.152916 81.9072 
L 172.152916 81.552565 
L 172.297327 81.552565 
L 172.394392 80.488659 
L 172.444836 80.488659 
L 172.528611 78.715482 
L 172.641118 78.715482 
L 172.740562 77.296941 
L 172.777719 77.296941 
L 172.83126 76.233035 
L 172.962409 76.233035 
L 173.068298 74.105224 
L 173.185706 74.105224 
L 173.294362 73.041318 
L 173.378441 73.041318 
L 173.470098 70.913506 
L 173.517742 70.913506 
L 173.517742 70.558871 
L 173.652083 70.558871 
L 173.711047 69.140329 
L 173.886839 69.140329 
L 173.964444 67.721788 
L 174.026299 67.721788 
L 174.084104 65.948612 
L 174.214474 65.948612 
L 174.305959 65.239341 
L 174.343947 65.239341 
L 174.40835 64.530071 
L 174.464995 64.530071 
L 174.574026 63.466165 
L 174.637648 63.466165 
L 174.637648 63.111529 
L 174.753113 63.111529 
L 174.853106 61.338353 
L 174.963589 61.338353 
L 175.073427 59.565176 
L 175.302021 59.565176 
L 175.363232 58.501271 
L 175.524306 58.501271 
L 175.602554 57.437365 
L 175.736948 57.437365 
L 175.736948 57.082729 
L 176.009838 57.082729 
L 176.054937 56.018824 
L 176.12411 56.018824 
L 176.179266 55.309553 
L 176.241123 55.309553 
L 176.33353 54.245647 
L 176.384671 54.245647 
L 176.384671 53.891012 
L 176.742162 53.891012 
L 176.742162 53.536376 
L 176.872001 53.536376 
L 176.872001 53.181741 
L 177.132293 53.181741 
L 177.194361 51.408565 
L 177.282212 51.408565 
L 177.356727 50.344659 
L 177.434167 50.344659 
L 177.485617 49.280753 
L 177.588098 49.280753 
L 177.683669 48.571482 
L 177.712246 48.571482 
L 177.772433 47.507576 
L 177.83558 47.507576 
L 177.898516 46.443671 
L 177.98002 46.443671 
L 177.98002 46.089035 
L 178.160572 46.089035 
L 178.250202 45.025129 
L 178.317914 45.025129 
L 178.351679 43.961224 
L 178.473951 43.961224 
L 178.473951 43.606588 
L 178.643809 43.606588 
L 178.704102 42.542682 
L 178.999742 42.542682 
L 178.999742 42.188047 
L 179.135545 42.188047 
L 179.23822 41.124141 
L 179.299557 41.124141 
L 179.299557 40.769506 
L 179.482378 40.769506 
L 179.568815 40.060235 
L 179.660579 40.060235 
L 179.660579 39.7056 
L 179.888049 39.7056 
L 179.924755 38.996329 
L 180.07926 38.996329 
L 180.07926 38.641694 
L 180.263006 38.641694 
L 180.348695 37.577788 
L 180.44223 37.577788 
L 180.44223 37.223153 
L 180.603446 37.223153 
L 180.617045 36.513882 
L 180.755196 36.513882 
L 180.755196 36.159247 
L 180.959205 36.159247 
L 181.047103 34.740706 
L 181.081618 34.740706 
L 181.081618 34.386071 
L 181.407686 34.386071 
L 181.407686 34.031435 
L 181.725635 34.031435 
L 181.725635 33.6768 
L 182.113777 33.6768 
L 182.198954 32.967529 
L 182.494073 32.967529 
L 182.494073 32.612894 
L 182.697205 32.612894 
L 182.745826 31.903624 
L 183.425361 31.903624 
L 183.425361 31.548988 
L 183.614096 31.548988 
L 183.614096 31.194353 
L 184.565667 31.194353 
L 184.631672 30.485082 
L 184.839175 30.485082 
L 184.839175 30.130447 
L 185.100196 30.130447 
L 185.10448 29.421176 
L 185.590758 29.421176 
L 185.590758 29.066541 
L 186.409624 29.066541 
L 186.409624 28.711906 
L 187.352737 28.711906 
L 187.352737 28.357271 
L 191.561813 28.357271 
L 191.561813 28.002635 
L 201.333427 28.002635 
L 201.333427 27.648 
L 360.8064 27.648 
L 360.8064 27.648 
" style="fill:none;stroke:#ff00ff;stroke-linecap:square;stroke-width:1.5;"/>
   </g>
   <g id="line2d_41">
    <defs>
     <path d="M -0 8.485281 
L 5.091169 0 
L 0 -8.485281 
L -5.091169 -0 
z
" id="m30c647d844" style="stroke:#ff00ff;stroke-linejoin:miter;stroke-width:1.5;"/>
    </defs>
    <g>
     <use style="fill-opacity:0;stroke:#ff00ff;stroke-linejoin:miter;stroke-width:1.5;" x="155.13016" xlink:href="#m30c647d844" y="232.6272"/>
     <use style="fill-opacity:0;stroke:#ff00ff;stroke-linejoin:miter;stroke-width:1.5;" x="170.630481" xlink:href="#m30c647d844" y="95.737976"/>
     <use style="fill-opacity:0;stroke:#ff00ff;stroke-linejoin:miter;stroke-width:1.5;" x="201.333427" xlink:href="#m30c647d844" y="27.648"/>
     <use style="fill-opacity:0;stroke:#ff00ff;stroke-linejoin:miter;stroke-width:1.5;" x="201.333427" xlink:href="#m30c647d844" y="27.648"/>
     <use style="fill-opacity:0;stroke:#ff00ff;stroke-linejoin:miter;stroke-width:1.5;" x="360.8064" xlink:href="#m30c647d844" y="27.648"/>
    </g>
   </g>
   <g id="line2d_42">
    <path style="fill:none;stroke:#ff00ff;stroke-linecap:square;stroke-width:1.5;"/>
    <g/>
   </g>
   <g id="line2d_43">
    <path clip-path="url(#pe4150e1aad)" d="M 145.538293 266.672188 
" style="fill:none;stroke:#ff00ff;stroke-linecap:square;stroke-width:1.5;"/>
    <defs>
     <path d="M -12 12 
L 12 -12 
M -12 -12 
L 12 12 
" id="mf2af2fe84b" style="stroke:#ff00ff;"/>
    </defs>
    <g clip-path="url(#pe4150e1aad)">
     <use style="fill:#ff00ff;stroke:#ff00ff;" x="145.538293" xlink:href="#mf2af2fe84b" y="266.672188"/>
    </g>
   </g>
   <g id="line2d_44">
    <path d="M 360.8064 43.606588 
L 380.514816 293.51808 
" style="fill:none;stroke:#000080;stroke-linecap:square;stroke-width:1.5;"/>
    <g>
     <use style="fill-opacity:0;stroke:#000080;stroke-width:1.5;" x="360.8064" xlink:href="#m5fa90ccb88" y="43.606588"/>
     <use style="fill-opacity:0;stroke:#000080;stroke-width:1.5;" x="380.514816" xlink:href="#m5fa90ccb88" y="293.51808"/>
    </g>
   </g>
   <g id="line2d_45">
    <path d="M 360.8064 27.648 
L 380.514816 163.296 
" style="fill:none;stroke:#ff00ff;stroke-linecap:square;stroke-width:1.5;"/>
    <g>
     <use style="fill-opacity:0;stroke:#ff00ff;stroke-linejoin:miter;stroke-width:1.5;" x="360.8064" xlink:href="#m30c647d844" y="27.648"/>
     <use style="fill-opacity:0;stroke:#ff00ff;stroke-linejoin:miter;stroke-width:1.5;" x="380.514816" xlink:href="#m30c647d844" y="163.296"/>
    </g>
   </g>
   <g id="line2d_46">
    <path d="M 360.8064 298.944 
L 360.8064 27.648 
" style="fill:none;stroke:#000000;stroke-linecap:square;stroke-width:1.5;"/>
   </g>
   <g id="patch_3">
    <path d="M 57.6 298.944 
L 360.8064 298.944 
" style="fill:none;stroke:#000000;stroke-linecap:square;stroke-linejoin:miter;stroke-width:0.8;"/>
   </g>
   <g id="patch_4">
    <path d="M 57.6 27.648 
L 360.8064 27.648 
" style="fill:none;stroke:#000000;stroke-linecap:square;stroke-linejoin:miter;stroke-width:0.8;"/>
   </g>
   <g id="text_13">
    <!-- different -->
    <g transform="translate(386.578944 297.381205)scale(0.14 -0.14)">
     <use xlink:href="#DejaVuSans-64"/>
     <use x="63.476562" xlink:href="#DejaVuSans-69"/>
     <use x="91.259766" xlink:href="#DejaVuSans-66"/>
     <use x="126.464844" xlink:href="#DejaVuSans-66"/>
     <use x="161.669922" xlink:href="#DejaVuSans-65"/>
     <use x="223.193359" xlink:href="#DejaVuSans-72"/>
     <use x="262.056641" xlink:href="#DejaVuSans-65"/>
     <use x="323.580078" xlink:href="#DejaVuSans-6e"/>
     <use x="386.958984" xlink:href="#DejaVuSans-74"/>
    </g>
   </g>
   <g id="text_14">
    <!-- cma.fmin  -->
    <g transform="translate(386.578944 167.159125)scale(0.14 -0.14)">
     <use xlink:href="#DejaVuSans-63"/>
     <use x="54.980469" xlink:href="#DejaVuSans-6d"/>
     <use x="152.392578" xlink:href="#DejaVuSans-61"/>
     <use x="213.671875" xlink:href="#DejaVuSans-2e"/>
     <use x="245.458984" xlink:href="#DejaVuSans-66"/>
     <use x="280.664062" xlink:href="#DejaVuSans-6d"/>
     <use x="378.076172" xlink:href="#DejaVuSans-69"/>
     <use x="405.859375" xlink:href="#DejaVuSans-6e"/>
     <use x="469.238281" xlink:href="#DejaVuSans-20"/>
    </g>
   </g>
   <g id="text_15">
    <!-- best 2009 -->
    <g transform="translate(386.578944 36.937045)scale(0.14 -0.14)">
     <defs>
      <path d="M 3116 1747 
Q 3116 2381 2855 2742 
Q 2594 3103 2138 3103 
Q 1681 3103 1420 2742 
Q 1159 2381 1159 1747 
Q 1159 1113 1420 752 
Q 1681 391 2138 391 
Q 2594 391 2855 752 
Q 3116 1113 3116 1747 
z
M 1159 2969 
Q 1341 3281 1617 3432 
Q 1894 3584 2278 3584 
Q 2916 3584 3314 3078 
Q 3713 2572 3713 1747 
Q 3713 922 3314 415 
Q 2916 -91 2278 -91 
Q 1894 -91 1617 61 
Q 1341 213 1159 525 
L 1159 0 
L 581 0 
L 581 4863 
L 1159 4863 
L 1159 2969 
z
" id="DejaVuSans-62" transform="scale(0.015625)"/>
      <path d="M 703 97 
L 703 672 
Q 941 559 1184 500 
Q 1428 441 1663 441 
Q 2288 441 2617 861 
Q 2947 1281 2994 2138 
Q 2813 1869 2534 1725 
Q 2256 1581 1919 1581 
Q 1219 1581 811 2004 
Q 403 2428 403 3163 
Q 403 3881 828 4315 
Q 1253 4750 1959 4750 
Q 2769 4750 3195 4129 
Q 3622 3509 3622 2328 
Q 3622 1225 3098 567 
Q 2575 -91 1691 -91 
Q 1453 -91 1209 -44 
Q 966 3 703 97 
z
M 1959 2075 
Q 2384 2075 2632 2365 
Q 2881 2656 2881 3163 
Q 2881 3666 2632 3958 
Q 2384 4250 1959 4250 
Q 1534 4250 1286 3958 
Q 1038 3666 1038 3163 
Q 1038 2656 1286 2365 
Q 1534 2075 1959 2075 
z
" id="DejaVuSans-39" transform="scale(0.015625)"/>
     </defs>
     <use xlink:href="#DejaVuSans-62"/>
     <use x="63.476562" xlink:href="#DejaVuSans-65"/>
     <use x="125" xlink:href="#DejaVuSans-73"/>
     <use x="177.099609" xlink:href="#DejaVuSans-74"/>
     <use x="216.308594" xlink:href="#DejaVuSans-20"/>
     <use x="248.095703" xlink:href="#DejaVuSans-32"/>
     <use x="311.71875" xlink:href="#DejaVuSans-30"/>
     <use x="375.341797" xlink:href="#DejaVuSans-30"/>
     <use x="438.964844" xlink:href="#DejaVuSans-39"/>
    </g>
   </g>
   <g id="text_16">
    <!-- bbob f6, 10-D -->
    <g transform="translate(60.632064 38.111366)scale(0.102 -0.102)">
     <defs>
      <path d="M 1259 4147 
L 1259 519 
L 2022 519 
Q 2988 519 3436 956 
Q 3884 1394 3884 2338 
Q 3884 3275 3436 3711 
Q 2988 4147 2022 4147 
L 1259 4147 
z
M 628 4666 
L 1925 4666 
Q 3281 4666 3915 4102 
Q 4550 3538 4550 2338 
Q 4550 1131 3912 565 
Q 3275 0 1925 0 
L 628 0 
L 628 4666 
z
" id="DejaVuSans-44" transform="scale(0.015625)"/>
     </defs>
     <use xlink:href="#DejaVuSans-62"/>
     <use x="63.476562" xlink:href="#DejaVuSans-62"/>
     <use x="126.953125" xlink:href="#DejaVuSans-6f"/>
     <use x="188.134766" xlink:href="#DejaVuSans-62"/>
     <use x="251.611328" xlink:href="#DejaVuSans-20"/>
     <use x="283.398438" xlink:href="#DejaVuSans-66"/>
     <use x="318.603516" xlink:href="#DejaVuSans-36"/>
     <use x="382.226562" xlink:href="#DejaVuSans-2c"/>
     <use x="414.013672" xlink:href="#DejaVuSans-20"/>
     <use x="445.800781" xlink:href="#DejaVuSans-31"/>
     <use x="509.423828" xlink:href="#DejaVuSans-30"/>
     <use x="573.046875" xlink:href="#DejaVuSans-2d"/>
     <use x="609.130859" xlink:href="#DejaVuSans-44"/>
    </g>
    <!-- 51 targets: 100..1e-08 -->
    <g transform="translate(60.632064 49.533135)scale(0.102 -0.102)">
     <defs>
      <path d="M 691 4666 
L 3169 4666 
L 3169 4134 
L 1269 4134 
L 1269 2991 
Q 1406 3038 1543 3061 
Q 1681 3084 1819 3084 
Q 2600 3084 3056 2656 
Q 3513 2228 3513 1497 
Q 3513 744 3044 326 
Q 2575 -91 1722 -91 
Q 1428 -91 1123 -41 
Q 819 9 494 109 
L 494 744 
Q 775 591 1075 516 
Q 1375 441 1709 441 
Q 2250 441 2565 725 
Q 2881 1009 2881 1497 
Q 2881 1984 2565 2268 
Q 2250 2553 1709 2553 
Q 1456 2553 1204 2497 
Q 953 2441 691 2322 
L 691 4666 
z
" id="DejaVuSans-35" transform="scale(0.015625)"/>
      <path d="M 750 794 
L 1409 794 
L 1409 0 
L 750 0 
L 750 794 
z
M 750 3309 
L 1409 3309 
L 1409 2516 
L 750 2516 
L 750 3309 
z
" id="DejaVuSans-3a" transform="scale(0.015625)"/>
     </defs>
     <use xlink:href="#DejaVuSans-35"/>
     <use x="63.623047" xlink:href="#DejaVuSans-31"/>
     <use x="127.246094" xlink:href="#DejaVuSans-20"/>
     <use x="159.033203" xlink:href="#DejaVuSans-74"/>
     <use x="198.242188" xlink:href="#DejaVuSans-61"/>
     <use x="259.521484" xlink:href="#DejaVuSans-72"/>
     <use x="298.884766" xlink:href="#DejaVuSans-67"/>
     <use x="362.361328" xlink:href="#DejaVuSans-65"/>
     <use x="423.884766" xlink:href="#DejaVuSans-74"/>
     <use x="463.09375" xlink:href="#DejaVuSans-73"/>
     <use x="515.193359" xlink:href="#DejaVuSans-3a"/>
     <use x="548.884766" xlink:href="#DejaVuSans-20"/>
     <use x="580.671875" xlink:href="#DejaVuSans-31"/>
     <use x="644.294922" xlink:href="#DejaVuSans-30"/>
     <use x="707.917969" xlink:href="#DejaVuSans-30"/>
     <use x="771.541016" xlink:href="#DejaVuSans-2e"/>
     <use x="803.328125" xlink:href="#DejaVuSans-2e"/>
     <use x="835.115234" xlink:href="#DejaVuSans-31"/>
     <use x="898.738281" xlink:href="#DejaVuSans-65"/>
     <use x="960.261719" xlink:href="#DejaVuSans-2d"/>
     <use x="996.345703" xlink:href="#DejaVuSans-30"/>
     <use x="1059.96875" xlink:href="#DejaVuSans-38"/>
    </g>
    <!-- 15 instances -->
    <g transform="translate(60.632064 60.954904)scale(0.102 -0.102)">
     <use xlink:href="#DejaVuSans-31"/>
     <use x="63.623047" xlink:href="#DejaVuSans-35"/>
     <use x="127.246094" xlink:href="#DejaVuSans-20"/>
     <use x="159.033203" xlink:href="#DejaVuSans-69"/>
     <use x="186.816406" xlink:href="#DejaVuSans-6e"/>
     <use x="250.195312" xlink:href="#DejaVuSans-73"/>
     <use x="302.294922" xlink:href="#DejaVuSans-74"/>
     <use x="341.503906" xlink:href="#DejaVuSans-61"/>
     <use x="402.783203" xlink:href="#DejaVuSans-6e"/>
     <use x="466.162109" xlink:href="#DejaVuSans-63"/>
     <use x="521.142578" xlink:href="#DejaVuSans-65"/>
     <use x="582.666016" xlink:href="#DejaVuSans-73"/>
    </g>
   </g>
   <g id="text_17">
    <!-- v2.6 -->
    <g style="fill:#808080;" transform="translate(198.292262 294.151352)scale(0.1 -0.1)">
     <use xlink:href="#DejaVuSans-76"/>
     <use x="59.179688" xlink:href="#DejaVuSans-32"/>
     <use x="122.802734" xlink:href="#DejaVuSans-2e"/>
     <use x="154.589844" xlink:href="#DejaVuSans-36"/>
    </g>
   </g>
   <g id="text_18">
    <!-- 6 Attractive sector -->
    <g transform="translate(116.45945 21.648)scale(0.2 -0.2)">
     <defs>
      <path d="M 2188 4044 
L 1331 1722 
L 3047 1722 
L 2188 4044 
z
M 1831 4666 
L 2547 4666 
L 4325 0 
L 3669 0 
L 3244 1197 
L 1141 1197 
L 716 0 
L 50 0 
L 1831 4666 
z
" id="DejaVuSans-41" transform="scale(0.015625)"/>
     </defs>
     <use xlink:href="#DejaVuSans-36"/>
     <use x="63.623047" xlink:href="#DejaVuSans-20"/>
     <use x="95.410156" xlink:href="#DejaVuSans-41"/>
     <use x="162.068359" xlink:href="#DejaVuSans-74"/>
     <use x="201.277344" xlink:href="#DejaVuSans-74"/>
     <use x="240.486328" xlink:href="#DejaVuSans-72"/>
     <use x="281.599609" xlink:href="#DejaVuSans-61"/>
     <use x="342.878906" xlink:href="#DejaVuSans-63"/>
     <use x="397.859375" xlink:href="#DejaVuSans-74"/>
     <use x="437.068359" xlink:href="#DejaVuSans-69"/>
     <use x="464.851562" xlink:href="#DejaVuSans-76"/>
     <use x="524.03125" xlink:href="#DejaVuSans-65"/>
     <use x="585.554688" xlink:href="#DejaVuSans-20"/>
     <use x="617.341797" xlink:href="#DejaVuSans-73"/>
     <use x="669.441406" xlink:href="#DejaVuSans-65"/>
     <use x="730.964844" xlink:href="#DejaVuSans-63"/>
     <use x="785.945312" xlink:href="#DejaVuSans-74"/>
     <use x="825.154297" xlink:href="#DejaVuSans-6f"/>
     <use x="886.335938" xlink:href="#DejaVuSans-72"/>
    </g>
   </g>
  </g>
 </g>
 <defs>
  <clipPath id="pe4150e1aad">
   <rect height="271.296" width="303.2064" x="57.6" y="27.648"/>
  </clipPath>
 </defs>
</svg>
