<?xml version="1.0" encoding="utf-8" standalone="no"?>
<!DOCTYPE svg PUBLIC "-//W3C//DTD SVG 1.1//EN"
  "http://www.w3.org/Graphics/SVG/1.1/DTD/svg11.dtd">
<svg height="345.6pt" version="1.1" viewBox="0 0 460.8 345.6" width="460.8pt" xmlns="http://www.w3.org/2000/svg" xmlns:xlink="http://www.w3.org/1999/xlink">
 <metadata>
  <rdf:RDF xmlns:cc="http://creativecommons.org/ns#" xmlns:dc="http://purl.org/dc/elements/1.1/" xmlns:rdf="http://www.w3.org/1999/02/22-rdf-syntax-ns#">
   <cc:Work>
    <dc:type rdf:resource="http://purl.org/dc/dcmitype/StillImage"/>
    <dc:date>2022-05-22T15:11:23.745707</dc:date>
    <dc:format>image/svg+xml</dc:format>
    <dc:creator>
     <cc:Agent>
      <dc:title>Matplotlib v3.4.3, https://matplotlib.org/</dc:title>
     </cc:Agent>
    </dc:creator>
   </cc:Work>
  </rdf:RDF>
 </metadata>
 <defs>
  <style type="text/css">*{stroke-linecap:butt;stroke-linejoin:round;}</style>
 </defs>
 <g id="figure_1">
  <g id="patch_1">
   <path d="M 0 345.6 
L 460.8 345.6 
L 460.8 0 
L 0 0 
z
" style="fill:#ffffff;"/>
  </g>
  <g id="axes_1">
   <g id="patch_2">
    <path d="M 57.6 298.944 
L 360.8064 298.944 
L 360.8064 27.648 
L 57.6 27.648 
z
" style="fill:#ffffff;"/>
   </g>
   <g id="line2d_1">
    <path d="M 27.323974 298.944 
L 27.323974 272.346353 
L 47.990577 272.346353 
L 47.990577 267.026824 
L 68.65718 267.026824 
L 68.65718 261.707294 
L 93.098709 261.707294 
L 93.098709 256.387765 
L 110.674517 256.387765 
L 110.674517 251.068235 
L 130.734242 251.068235 
L 130.734242 245.748706 
L 144.895711 245.748706 
L 144.895711 240.429176 
L 153.854866 240.429176 
L 153.854866 235.109647 
L 165.392072 235.109647 
L 165.392072 229.790118 
L 182.972677 229.790118 
L 182.972677 224.470588 
L 193.563551 224.470588 
L 193.563551 219.151059 
L 207.245976 219.151059 
L 207.245976 213.831529 
L 218.897157 213.831529 
L 218.897157 208.512 
L 219.170887 208.512 
L 219.170887 203.192471 
L 219.267989 203.192471 
L 219.267989 197.872941 
L 219.691698 197.872941 
L 219.691698 192.553412 
L 219.879466 192.553412 
L 219.879466 187.233882 
L 220.098742 187.233882 
L 220.098742 181.914353 
L 220.288451 181.914353 
L 220.288451 176.594824 
L 220.382593 176.594824 
L 220.382593 171.275294 
L 222.158443 171.275294 
L 222.158443 165.955765 
L 222.260939 165.955765 
L 222.260939 160.636235 
L 222.393001 160.636235 
L 222.393001 155.316706 
L 222.467798 155.316706 
L 222.467798 149.997176 
L 222.537029 149.997176 
L 222.537029 144.677647 
L 222.613008 144.677647 
L 222.613008 139.358118 
L 222.69565 139.358118 
L 222.69565 134.038588 
L 222.777931 134.038588 
L 222.777931 128.719059 
L 222.871363 128.719059 
L 222.871363 123.399529 
L 222.933967 123.399529 
L 222.933967 118.08 
L 223.008362 118.08 
L 223.008362 112.760471 
L 223.061403 112.760471 
L 223.061403 107.440941 
L 223.135864 107.440941 
L 223.135864 102.121412 
L 223.227539 102.121412 
L 223.227539 96.801882 
L 223.265324 96.801882 
L 223.265324 91.482353 
L 223.326072 91.482353 
L 223.326072 86.162824 
L 223.415151 86.162824 
L 223.415151 80.843294 
L 223.47486 80.843294 
L 223.47486 75.523765 
L 223.549371 75.523765 
L 223.549371 70.204235 
L 223.60423 70.204235 
L 223.60423 64.884706 
L 223.678231 64.884706 
L 223.678231 59.565176 
L 223.746999 59.565176 
L 223.746999 54.245647 
L 223.802382 54.245647 
L 223.802382 48.926118 
L 223.896867 48.926118 
L 223.896867 43.606588 
L 223.9643 43.606588 
L 223.9643 38.287059 
L 224.02067 38.287059 
L 224.02067 32.967529 
L 224.090358 32.967529 
L 224.090358 27.648 
L 360.8064 27.648 
" style="fill:none;stroke:#f5deb3;stroke-linecap:square;stroke-width:4;"/>
   </g>
   <g id="line2d_2">
    <defs>
     <path d="M -0 7.778175 
L 7.778175 0 
L 0 -7.778175 
L -7.778175 -0 
z
" id="m34568db680" style="stroke:#f5deb3;stroke-linejoin:miter;stroke-width:1.5;"/>
    </defs>
    <g>
     <use style="fill:#f5deb3;stroke:#f5deb3;stroke-linejoin:miter;stroke-width:1.5;" x="153.854866" xlink:href="#m34568db680" y="235.109647"/>
     <use style="fill:#f5deb3;stroke:#f5deb3;stroke-linejoin:miter;stroke-width:1.5;" x="222.467798" xlink:href="#m34568db680" y="149.997176"/>
     <use style="fill:#f5deb3;stroke:#f5deb3;stroke-linejoin:miter;stroke-width:1.5;" x="224.090358" xlink:href="#m34568db680" y="32.967529"/>
     <use style="fill:#f5deb3;stroke:#f5deb3;stroke-linejoin:miter;stroke-width:1.5;" x="224.090358" xlink:href="#m34568db680" y="27.648"/>
     <use style="fill:#f5deb3;stroke:#f5deb3;stroke-linejoin:miter;stroke-width:1.5;" x="224.090358" xlink:href="#m34568db680" y="27.648"/>
     <use style="fill:#f5deb3;stroke:#f5deb3;stroke-linejoin:miter;stroke-width:1.5;" x="360.8064" xlink:href="#m34568db680" y="27.648"/>
    </g>
   </g>
   <g id="line2d_3">
    <path style="fill:none;stroke:#f5deb3;stroke-linecap:square;stroke-width:4;"/>
    <g/>
   </g>
   <g id="line2d_4">
    <path d="M 360.8064 27.648 
L 380.514816 33.07392 
" style="fill:none;stroke:#f5deb3;stroke-linecap:square;stroke-width:4;"/>
    <g>
     <use style="fill:#f5deb3;stroke:#f5deb3;stroke-linejoin:miter;stroke-width:1.5;" x="360.8064" xlink:href="#m34568db680" y="27.648"/>
     <use style="fill:#f5deb3;stroke:#f5deb3;stroke-linejoin:miter;stroke-width:1.5;" x="380.514816" xlink:href="#m34568db680" y="33.07392"/>
    </g>
   </g>
   <g id="matplotlib.axis_1">
    <g id="xtick_1">
     <g id="line2d_5">
      <path clip-path="url(#p02d514dc7c)" d="M 57.6 298.944 
L 57.6 27.648 
" style="fill:none;stroke:#b0b0b0;stroke-linecap:square;stroke-width:0.8;"/>
     </g>
     <g id="line2d_6">
      <defs>
       <path d="M 0 0 
L 0 3.5 
" id="mba888f1a07" style="stroke:#000000;stroke-width:0.8;"/>
      </defs>
      <g>
       <use style="stroke:#000000;stroke-width:0.8;" x="57.6" xlink:href="#mba888f1a07" y="298.944"/>
      </g>
     </g>
     <g id="text_1">
      <!-- 0 -->
      <g transform="translate(52.191875 318.861344)scale(0.17 -0.17)">
       <defs>
        <path d="M 2034 4250 
Q 1547 4250 1301 3770 
Q 1056 3291 1056 2328 
Q 1056 1369 1301 889 
Q 1547 409 2034 409 
Q 2525 409 2770 889 
Q 3016 1369 3016 2328 
Q 3016 3291 2770 3770 
Q 2525 4250 2034 4250 
z
M 2034 4750 
Q 2819 4750 3233 4129 
Q 3647 3509 3647 2328 
Q 3647 1150 3233 529 
Q 2819 -91 2034 -91 
Q 1250 -91 836 529 
Q 422 1150 422 2328 
Q 422 3509 836 4129 
Q 1250 4750 2034 4750 
z
" id="DejaVuSans-30" transform="scale(0.015625)"/>
       </defs>
       <use xlink:href="#DejaVuSans-30"/>
      </g>
     </g>
    </g>
    <g id="xtick_2">
     <g id="line2d_7">
      <path clip-path="url(#p02d514dc7c)" d="M 144.2304 298.944 
L 144.2304 27.648 
" style="fill:none;stroke:#b0b0b0;stroke-linecap:square;stroke-width:0.8;"/>
     </g>
     <g id="line2d_8">
      <g>
       <use style="stroke:#000000;stroke-width:0.8;" x="144.2304" xlink:href="#mba888f1a07" y="298.944"/>
      </g>
     </g>
     <g id="text_2">
      <!-- 2 -->
      <g transform="translate(138.822275 318.861344)scale(0.17 -0.17)">
       <defs>
        <path d="M 1228 531 
L 3431 531 
L 3431 0 
L 469 0 
L 469 531 
Q 828 903 1448 1529 
Q 2069 2156 2228 2338 
Q 2531 2678 2651 2914 
Q 2772 3150 2772 3378 
Q 2772 3750 2511 3984 
Q 2250 4219 1831 4219 
Q 1534 4219 1204 4116 
Q 875 4013 500 3803 
L 500 4441 
Q 881 4594 1212 4672 
Q 1544 4750 1819 4750 
Q 2544 4750 2975 4387 
Q 3406 4025 3406 3419 
Q 3406 3131 3298 2873 
Q 3191 2616 2906 2266 
Q 2828 2175 2409 1742 
Q 1991 1309 1228 531 
z
" id="DejaVuSans-32" transform="scale(0.015625)"/>
       </defs>
       <use xlink:href="#DejaVuSans-32"/>
      </g>
     </g>
    </g>
    <g id="xtick_3">
     <g id="line2d_9">
      <path clip-path="url(#p02d514dc7c)" d="M 230.8608 298.944 
L 230.8608 27.648 
" style="fill:none;stroke:#b0b0b0;stroke-linecap:square;stroke-width:0.8;"/>
     </g>
     <g id="line2d_10">
      <g>
       <use style="stroke:#000000;stroke-width:0.8;" x="230.8608" xlink:href="#mba888f1a07" y="298.944"/>
      </g>
     </g>
     <g id="text_3">
      <!-- 4 -->
      <g transform="translate(225.452675 318.861344)scale(0.17 -0.17)">
       <defs>
        <path d="M 2419 4116 
L 825 1625 
L 2419 1625 
L 2419 4116 
z
M 2253 4666 
L 3047 4666 
L 3047 1625 
L 3713 1625 
L 3713 1100 
L 3047 1100 
L 3047 0 
L 2419 0 
L 2419 1100 
L 313 1100 
L 313 1709 
L 2253 4666 
z
" id="DejaVuSans-34" transform="scale(0.015625)"/>
       </defs>
       <use xlink:href="#DejaVuSans-34"/>
      </g>
     </g>
    </g>
    <g id="xtick_4">
     <g id="line2d_11">
      <path clip-path="url(#p02d514dc7c)" d="M 317.4912 298.944 
L 317.4912 27.648 
" style="fill:none;stroke:#b0b0b0;stroke-linecap:square;stroke-width:0.8;"/>
     </g>
     <g id="line2d_12">
      <g>
       <use style="stroke:#000000;stroke-width:0.8;" x="317.4912" xlink:href="#mba888f1a07" y="298.944"/>
      </g>
     </g>
     <g id="text_4">
      <!-- 6 -->
      <g transform="translate(312.083075 318.861344)scale(0.17 -0.17)">
       <defs>
        <path d="M 2113 2584 
Q 1688 2584 1439 2293 
Q 1191 2003 1191 1497 
Q 1191 994 1439 701 
Q 1688 409 2113 409 
Q 2538 409 2786 701 
Q 3034 994 3034 1497 
Q 3034 2003 2786 2293 
Q 2538 2584 2113 2584 
z
M 3366 4563 
L 3366 3988 
Q 3128 4100 2886 4159 
Q 2644 4219 2406 4219 
Q 1781 4219 1451 3797 
Q 1122 3375 1075 2522 
Q 1259 2794 1537 2939 
Q 1816 3084 2150 3084 
Q 2853 3084 3261 2657 
Q 3669 2231 3669 1497 
Q 3669 778 3244 343 
Q 2819 -91 2113 -91 
Q 1303 -91 875 529 
Q 447 1150 447 2328 
Q 447 3434 972 4092 
Q 1497 4750 2381 4750 
Q 2619 4750 2861 4703 
Q 3103 4656 3366 4563 
z
" id="DejaVuSans-36" transform="scale(0.015625)"/>
       </defs>
       <use xlink:href="#DejaVuSans-36"/>
      </g>
     </g>
    </g>
    <g id="xtick_5">
     <g id="line2d_13">
      <path clip-path="url(#p02d514dc7c)" d="M 100.9152 298.944 
L 100.9152 27.648 
" style="fill:none;stroke:#b0b0b0;stroke-linecap:square;stroke-width:0.8;"/>
     </g>
     <g id="line2d_14">
      <defs>
       <path d="M 0 0 
L 0 2 
" id="mfc6df9d1da" style="stroke:#000000;stroke-width:0.6;"/>
      </defs>
      <g>
       <use style="stroke:#000000;stroke-width:0.6;" x="100.9152" xlink:href="#mfc6df9d1da" y="298.944"/>
      </g>
     </g>
    </g>
    <g id="xtick_6">
     <g id="line2d_15">
      <path clip-path="url(#p02d514dc7c)" d="M 187.5456 298.944 
L 187.5456 27.648 
" style="fill:none;stroke:#b0b0b0;stroke-linecap:square;stroke-width:0.8;"/>
     </g>
     <g id="line2d_16">
      <g>
       <use style="stroke:#000000;stroke-width:0.6;" x="187.5456" xlink:href="#mfc6df9d1da" y="298.944"/>
      </g>
     </g>
    </g>
    <g id="xtick_7">
     <g id="line2d_17">
      <path clip-path="url(#p02d514dc7c)" d="M 274.176 298.944 
L 274.176 27.648 
" style="fill:none;stroke:#b0b0b0;stroke-linecap:square;stroke-width:0.8;"/>
     </g>
     <g id="line2d_18">
      <g>
       <use style="stroke:#000000;stroke-width:0.6;" x="274.176" xlink:href="#mfc6df9d1da" y="298.944"/>
      </g>
     </g>
    </g>
    <g id="xtick_8">
     <g id="line2d_19">
      <path clip-path="url(#p02d514dc7c)" d="M 360.8064 298.944 
L 360.8064 27.648 
" style="fill:none;stroke:#b0b0b0;stroke-linecap:square;stroke-width:0.8;"/>
     </g>
     <g id="line2d_20">
      <g>
       <use style="stroke:#000000;stroke-width:0.6;" x="360.8064" xlink:href="#mfc6df9d1da" y="298.944"/>
      </g>
     </g>
    </g>
    <g id="text_5">
     <!-- log10(# f-evals / dimension) -->
     <g transform="translate(88.823278 339.314156)scale(0.17 -0.17)">
      <defs>
       <path d="M 603 4863 
L 1178 4863 
L 1178 0 
L 603 0 
L 603 4863 
z
" id="DejaVuSans-6c" transform="scale(0.015625)"/>
       <path d="M 1959 3097 
Q 1497 3097 1228 2736 
Q 959 2375 959 1747 
Q 959 1119 1226 758 
Q 1494 397 1959 397 
Q 2419 397 2687 759 
Q 2956 1122 2956 1747 
Q 2956 2369 2687 2733 
Q 2419 3097 1959 3097 
z
M 1959 3584 
Q 2709 3584 3137 3096 
Q 3566 2609 3566 1747 
Q 3566 888 3137 398 
Q 2709 -91 1959 -91 
Q 1206 -91 779 398 
Q 353 888 353 1747 
Q 353 2609 779 3096 
Q 1206 3584 1959 3584 
z
" id="DejaVuSans-6f" transform="scale(0.015625)"/>
       <path d="M 2906 1791 
Q 2906 2416 2648 2759 
Q 2391 3103 1925 3103 
Q 1463 3103 1205 2759 
Q 947 2416 947 1791 
Q 947 1169 1205 825 
Q 1463 481 1925 481 
Q 2391 481 2648 825 
Q 2906 1169 2906 1791 
z
M 3481 434 
Q 3481 -459 3084 -895 
Q 2688 -1331 1869 -1331 
Q 1566 -1331 1297 -1286 
Q 1028 -1241 775 -1147 
L 775 -588 
Q 1028 -725 1275 -790 
Q 1522 -856 1778 -856 
Q 2344 -856 2625 -561 
Q 2906 -266 2906 331 
L 2906 616 
Q 2728 306 2450 153 
Q 2172 0 1784 0 
Q 1141 0 747 490 
Q 353 981 353 1791 
Q 353 2603 747 3093 
Q 1141 3584 1784 3584 
Q 2172 3584 2450 3431 
Q 2728 3278 2906 2969 
L 2906 3500 
L 3481 3500 
L 3481 434 
z
" id="DejaVuSans-67" transform="scale(0.015625)"/>
       <path d="M 794 531 
L 1825 531 
L 1825 4091 
L 703 3866 
L 703 4441 
L 1819 4666 
L 2450 4666 
L 2450 531 
L 3481 531 
L 3481 0 
L 794 0 
L 794 531 
z
" id="DejaVuSans-31" transform="scale(0.015625)"/>
       <path d="M 1984 4856 
Q 1566 4138 1362 3434 
Q 1159 2731 1159 2009 
Q 1159 1288 1364 580 
Q 1569 -128 1984 -844 
L 1484 -844 
Q 1016 -109 783 600 
Q 550 1309 550 2009 
Q 550 2706 781 3412 
Q 1013 4119 1484 4856 
L 1984 4856 
z
" id="DejaVuSans-28" transform="scale(0.015625)"/>
       <path d="M 3272 2816 
L 2363 2816 
L 2100 1772 
L 3016 1772 
L 3272 2816 
z
M 2803 4594 
L 2478 3297 
L 3391 3297 
L 3719 4594 
L 4219 4594 
L 3897 3297 
L 4872 3297 
L 4872 2816 
L 3775 2816 
L 3519 1772 
L 4513 1772 
L 4513 1294 
L 3397 1294 
L 3072 0 
L 2572 0 
L 2894 1294 
L 1978 1294 
L 1656 0 
L 1153 0 
L 1478 1294 
L 494 1294 
L 494 1772 
L 1594 1772 
L 1856 2816 
L 850 2816 
L 850 3297 
L 1978 3297 
L 2297 4594 
L 2803 4594 
z
" id="DejaVuSans-23" transform="scale(0.015625)"/>
       <path id="DejaVuSans-20" transform="scale(0.015625)"/>
       <path d="M 2375 4863 
L 2375 4384 
L 1825 4384 
Q 1516 4384 1395 4259 
Q 1275 4134 1275 3809 
L 1275 3500 
L 2222 3500 
L 2222 3053 
L 1275 3053 
L 1275 0 
L 697 0 
L 697 3053 
L 147 3053 
L 147 3500 
L 697 3500 
L 697 3744 
Q 697 4328 969 4595 
Q 1241 4863 1831 4863 
L 2375 4863 
z
" id="DejaVuSans-66" transform="scale(0.015625)"/>
       <path d="M 313 2009 
L 1997 2009 
L 1997 1497 
L 313 1497 
L 313 2009 
z
" id="DejaVuSans-2d" transform="scale(0.015625)"/>
       <path d="M 3597 1894 
L 3597 1613 
L 953 1613 
Q 991 1019 1311 708 
Q 1631 397 2203 397 
Q 2534 397 2845 478 
Q 3156 559 3463 722 
L 3463 178 
Q 3153 47 2828 -22 
Q 2503 -91 2169 -91 
Q 1331 -91 842 396 
Q 353 884 353 1716 
Q 353 2575 817 3079 
Q 1281 3584 2069 3584 
Q 2775 3584 3186 3129 
Q 3597 2675 3597 1894 
z
M 3022 2063 
Q 3016 2534 2758 2815 
Q 2500 3097 2075 3097 
Q 1594 3097 1305 2825 
Q 1016 2553 972 2059 
L 3022 2063 
z
" id="DejaVuSans-65" transform="scale(0.015625)"/>
       <path d="M 191 3500 
L 800 3500 
L 1894 563 
L 2988 3500 
L 3597 3500 
L 2284 0 
L 1503 0 
L 191 3500 
z
" id="DejaVuSans-76" transform="scale(0.015625)"/>
       <path d="M 2194 1759 
Q 1497 1759 1228 1600 
Q 959 1441 959 1056 
Q 959 750 1161 570 
Q 1363 391 1709 391 
Q 2188 391 2477 730 
Q 2766 1069 2766 1631 
L 2766 1759 
L 2194 1759 
z
M 3341 1997 
L 3341 0 
L 2766 0 
L 2766 531 
Q 2569 213 2275 61 
Q 1981 -91 1556 -91 
Q 1019 -91 701 211 
Q 384 513 384 1019 
Q 384 1609 779 1909 
Q 1175 2209 1959 2209 
L 2766 2209 
L 2766 2266 
Q 2766 2663 2505 2880 
Q 2244 3097 1772 3097 
Q 1472 3097 1187 3025 
Q 903 2953 641 2809 
L 641 3341 
Q 956 3463 1253 3523 
Q 1550 3584 1831 3584 
Q 2591 3584 2966 3190 
Q 3341 2797 3341 1997 
z
" id="DejaVuSans-61" transform="scale(0.015625)"/>
       <path d="M 2834 3397 
L 2834 2853 
Q 2591 2978 2328 3040 
Q 2066 3103 1784 3103 
Q 1356 3103 1142 2972 
Q 928 2841 928 2578 
Q 928 2378 1081 2264 
Q 1234 2150 1697 2047 
L 1894 2003 
Q 2506 1872 2764 1633 
Q 3022 1394 3022 966 
Q 3022 478 2636 193 
Q 2250 -91 1575 -91 
Q 1294 -91 989 -36 
Q 684 19 347 128 
L 347 722 
Q 666 556 975 473 
Q 1284 391 1588 391 
Q 1994 391 2212 530 
Q 2431 669 2431 922 
Q 2431 1156 2273 1281 
Q 2116 1406 1581 1522 
L 1381 1569 
Q 847 1681 609 1914 
Q 372 2147 372 2553 
Q 372 3047 722 3315 
Q 1072 3584 1716 3584 
Q 2034 3584 2315 3537 
Q 2597 3491 2834 3397 
z
" id="DejaVuSans-73" transform="scale(0.015625)"/>
       <path d="M 1625 4666 
L 2156 4666 
L 531 -594 
L 0 -594 
L 1625 4666 
z
" id="DejaVuSans-2f" transform="scale(0.015625)"/>
       <path d="M 2906 2969 
L 2906 4863 
L 3481 4863 
L 3481 0 
L 2906 0 
L 2906 525 
Q 2725 213 2448 61 
Q 2172 -91 1784 -91 
Q 1150 -91 751 415 
Q 353 922 353 1747 
Q 353 2572 751 3078 
Q 1150 3584 1784 3584 
Q 2172 3584 2448 3432 
Q 2725 3281 2906 2969 
z
M 947 1747 
Q 947 1113 1208 752 
Q 1469 391 1925 391 
Q 2381 391 2643 752 
Q 2906 1113 2906 1747 
Q 2906 2381 2643 2742 
Q 2381 3103 1925 3103 
Q 1469 3103 1208 2742 
Q 947 2381 947 1747 
z
" id="DejaVuSans-64" transform="scale(0.015625)"/>
       <path d="M 603 3500 
L 1178 3500 
L 1178 0 
L 603 0 
L 603 3500 
z
M 603 4863 
L 1178 4863 
L 1178 4134 
L 603 4134 
L 603 4863 
z
" id="DejaVuSans-69" transform="scale(0.015625)"/>
       <path d="M 3328 2828 
Q 3544 3216 3844 3400 
Q 4144 3584 4550 3584 
Q 5097 3584 5394 3201 
Q 5691 2819 5691 2113 
L 5691 0 
L 5113 0 
L 5113 2094 
Q 5113 2597 4934 2840 
Q 4756 3084 4391 3084 
Q 3944 3084 3684 2787 
Q 3425 2491 3425 1978 
L 3425 0 
L 2847 0 
L 2847 2094 
Q 2847 2600 2669 2842 
Q 2491 3084 2119 3084 
Q 1678 3084 1418 2786 
Q 1159 2488 1159 1978 
L 1159 0 
L 581 0 
L 581 3500 
L 1159 3500 
L 1159 2956 
Q 1356 3278 1631 3431 
Q 1906 3584 2284 3584 
Q 2666 3584 2933 3390 
Q 3200 3197 3328 2828 
z
" id="DejaVuSans-6d" transform="scale(0.015625)"/>
       <path d="M 3513 2113 
L 3513 0 
L 2938 0 
L 2938 2094 
Q 2938 2591 2744 2837 
Q 2550 3084 2163 3084 
Q 1697 3084 1428 2787 
Q 1159 2491 1159 1978 
L 1159 0 
L 581 0 
L 581 3500 
L 1159 3500 
L 1159 2956 
Q 1366 3272 1645 3428 
Q 1925 3584 2291 3584 
Q 2894 3584 3203 3211 
Q 3513 2838 3513 2113 
z
" id="DejaVuSans-6e" transform="scale(0.015625)"/>
       <path d="M 513 4856 
L 1013 4856 
Q 1481 4119 1714 3412 
Q 1947 2706 1947 2009 
Q 1947 1309 1714 600 
Q 1481 -109 1013 -844 
L 513 -844 
Q 928 -128 1133 580 
Q 1338 1288 1338 2009 
Q 1338 2731 1133 3434 
Q 928 4138 513 4856 
z
" id="DejaVuSans-29" transform="scale(0.015625)"/>
      </defs>
      <use xlink:href="#DejaVuSans-6c"/>
      <use x="27.783203" xlink:href="#DejaVuSans-6f"/>
      <use x="88.964844" xlink:href="#DejaVuSans-67"/>
      <use x="152.441406" xlink:href="#DejaVuSans-31"/>
      <use x="216.064453" xlink:href="#DejaVuSans-30"/>
      <use x="279.6875" xlink:href="#DejaVuSans-28"/>
      <use x="318.701172" xlink:href="#DejaVuSans-23"/>
      <use x="402.490234" xlink:href="#DejaVuSans-20"/>
      <use x="434.277344" xlink:href="#DejaVuSans-66"/>
      <use x="463.982422" xlink:href="#DejaVuSans-2d"/>
      <use x="500.066406" xlink:href="#DejaVuSans-65"/>
      <use x="561.589844" xlink:href="#DejaVuSans-76"/>
      <use x="620.769531" xlink:href="#DejaVuSans-61"/>
      <use x="682.048828" xlink:href="#DejaVuSans-6c"/>
      <use x="709.832031" xlink:href="#DejaVuSans-73"/>
      <use x="761.931641" xlink:href="#DejaVuSans-20"/>
      <use x="793.71875" xlink:href="#DejaVuSans-2f"/>
      <use x="827.410156" xlink:href="#DejaVuSans-20"/>
      <use x="859.197266" xlink:href="#DejaVuSans-64"/>
      <use x="922.673828" xlink:href="#DejaVuSans-69"/>
      <use x="950.457031" xlink:href="#DejaVuSans-6d"/>
      <use x="1047.869141" xlink:href="#DejaVuSans-65"/>
      <use x="1109.392578" xlink:href="#DejaVuSans-6e"/>
      <use x="1172.771484" xlink:href="#DejaVuSans-73"/>
      <use x="1224.871094" xlink:href="#DejaVuSans-69"/>
      <use x="1252.654297" xlink:href="#DejaVuSans-6f"/>
      <use x="1313.835938" xlink:href="#DejaVuSans-6e"/>
      <use x="1377.214844" xlink:href="#DejaVuSans-29"/>
     </g>
    </g>
   </g>
   <g id="matplotlib.axis_2">
    <g id="ytick_1">
     <g id="line2d_21">
      <path clip-path="url(#p02d514dc7c)" d="M 57.6 298.944 
L 360.8064 298.944 
" style="fill:none;stroke:#b0b0b0;stroke-linecap:square;stroke-width:0.8;"/>
     </g>
     <g id="line2d_22">
      <defs>
       <path d="M 0 0 
L -3.5 0 
" id="mc74e84740e" style="stroke:#000000;stroke-width:0.8;"/>
      </defs>
      <g>
       <use style="stroke:#000000;stroke-width:0.8;" x="57.6" xlink:href="#mc74e84740e" y="298.944"/>
      </g>
     </g>
     <g id="text_6">
      <!-- 0.0 -->
      <g transform="translate(25.155 305.02275)scale(0.16 -0.16)">
       <defs>
        <path d="M 684 794 
L 1344 794 
L 1344 0 
L 684 0 
L 684 794 
z
" id="DejaVuSans-2e" transform="scale(0.015625)"/>
       </defs>
       <use xlink:href="#DejaVuSans-30"/>
       <use x="63.623047" xlink:href="#DejaVuSans-2e"/>
       <use x="95.410156" xlink:href="#DejaVuSans-30"/>
      </g>
     </g>
    </g>
    <g id="ytick_2">
     <g id="line2d_23">
      <path clip-path="url(#p02d514dc7c)" d="M 57.6 244.6848 
L 360.8064 244.6848 
" style="fill:none;stroke:#b0b0b0;stroke-linecap:square;stroke-width:0.8;"/>
     </g>
     <g id="line2d_24">
      <g>
       <use style="stroke:#000000;stroke-width:0.8;" x="57.6" xlink:href="#mc74e84740e" y="244.6848"/>
      </g>
     </g>
     <g id="text_7">
      <!-- 0.2 -->
      <g transform="translate(25.155 250.76355)scale(0.16 -0.16)">
       <use xlink:href="#DejaVuSans-30"/>
       <use x="63.623047" xlink:href="#DejaVuSans-2e"/>
       <use x="95.410156" xlink:href="#DejaVuSans-32"/>
      </g>
     </g>
    </g>
    <g id="ytick_3">
     <g id="line2d_25">
      <path clip-path="url(#p02d514dc7c)" d="M 57.6 190.4256 
L 360.8064 190.4256 
" style="fill:none;stroke:#b0b0b0;stroke-linecap:square;stroke-width:0.8;"/>
     </g>
     <g id="line2d_26">
      <g>
       <use style="stroke:#000000;stroke-width:0.8;" x="57.6" xlink:href="#mc74e84740e" y="190.4256"/>
      </g>
     </g>
     <g id="text_8">
      <!-- 0.4 -->
      <g transform="translate(25.155 196.50435)scale(0.16 -0.16)">
       <use xlink:href="#DejaVuSans-30"/>
       <use x="63.623047" xlink:href="#DejaVuSans-2e"/>
       <use x="95.410156" xlink:href="#DejaVuSans-34"/>
      </g>
     </g>
    </g>
    <g id="ytick_4">
     <g id="line2d_27">
      <path clip-path="url(#p02d514dc7c)" d="M 57.6 136.1664 
L 360.8064 136.1664 
" style="fill:none;stroke:#b0b0b0;stroke-linecap:square;stroke-width:0.8;"/>
     </g>
     <g id="line2d_28">
      <g>
       <use style="stroke:#000000;stroke-width:0.8;" x="57.6" xlink:href="#mc74e84740e" y="136.1664"/>
      </g>
     </g>
     <g id="text_9">
      <!-- 0.6 -->
      <g transform="translate(25.155 142.24515)scale(0.16 -0.16)">
       <use xlink:href="#DejaVuSans-30"/>
       <use x="63.623047" xlink:href="#DejaVuSans-2e"/>
       <use x="95.410156" xlink:href="#DejaVuSans-36"/>
      </g>
     </g>
    </g>
    <g id="ytick_5">
     <g id="line2d_29">
      <path clip-path="url(#p02d514dc7c)" d="M 57.6 81.9072 
L 360.8064 81.9072 
" style="fill:none;stroke:#b0b0b0;stroke-linecap:square;stroke-width:0.8;"/>
     </g>
     <g id="line2d_30">
      <g>
       <use style="stroke:#000000;stroke-width:0.8;" x="57.6" xlink:href="#mc74e84740e" y="81.9072"/>
      </g>
     </g>
     <g id="text_10">
      <!-- 0.8 -->
      <g transform="translate(25.155 87.98595)scale(0.16 -0.16)">
       <defs>
        <path d="M 2034 2216 
Q 1584 2216 1326 1975 
Q 1069 1734 1069 1313 
Q 1069 891 1326 650 
Q 1584 409 2034 409 
Q 2484 409 2743 651 
Q 3003 894 3003 1313 
Q 3003 1734 2745 1975 
Q 2488 2216 2034 2216 
z
M 1403 2484 
Q 997 2584 770 2862 
Q 544 3141 544 3541 
Q 544 4100 942 4425 
Q 1341 4750 2034 4750 
Q 2731 4750 3128 4425 
Q 3525 4100 3525 3541 
Q 3525 3141 3298 2862 
Q 3072 2584 2669 2484 
Q 3125 2378 3379 2068 
Q 3634 1759 3634 1313 
Q 3634 634 3220 271 
Q 2806 -91 2034 -91 
Q 1263 -91 848 271 
Q 434 634 434 1313 
Q 434 1759 690 2068 
Q 947 2378 1403 2484 
z
M 1172 3481 
Q 1172 3119 1398 2916 
Q 1625 2713 2034 2713 
Q 2441 2713 2670 2916 
Q 2900 3119 2900 3481 
Q 2900 3844 2670 4047 
Q 2441 4250 2034 4250 
Q 1625 4250 1398 4047 
Q 1172 3844 1172 3481 
z
" id="DejaVuSans-38" transform="scale(0.015625)"/>
       </defs>
       <use xlink:href="#DejaVuSans-30"/>
       <use x="63.623047" xlink:href="#DejaVuSans-2e"/>
       <use x="95.410156" xlink:href="#DejaVuSans-38"/>
      </g>
     </g>
    </g>
    <g id="ytick_6">
     <g id="line2d_31">
      <path clip-path="url(#p02d514dc7c)" d="M 57.6 27.648 
L 360.8064 27.648 
" style="fill:none;stroke:#b0b0b0;stroke-linecap:square;stroke-width:0.8;"/>
     </g>
     <g id="line2d_32">
      <g>
       <use style="stroke:#000000;stroke-width:0.8;" x="57.6" xlink:href="#mc74e84740e" y="27.648"/>
      </g>
     </g>
     <g id="text_11">
      <!-- 1.0 -->
      <g transform="translate(25.155 33.72675)scale(0.16 -0.16)">
       <use xlink:href="#DejaVuSans-31"/>
       <use x="63.623047" xlink:href="#DejaVuSans-2e"/>
       <use x="95.410156" xlink:href="#DejaVuSans-30"/>
      </g>
     </g>
    </g>
    <g id="text_12">
     <!-- Fraction of function,target pairs -->
     <g transform="translate(17.619531 297.681)rotate(-90)scale(0.17 -0.17)">
      <defs>
       <path d="M 628 4666 
L 3309 4666 
L 3309 4134 
L 1259 4134 
L 1259 2759 
L 3109 2759 
L 3109 2228 
L 1259 2228 
L 1259 0 
L 628 0 
L 628 4666 
z
" id="DejaVuSans-46" transform="scale(0.015625)"/>
       <path d="M 2631 2963 
Q 2534 3019 2420 3045 
Q 2306 3072 2169 3072 
Q 1681 3072 1420 2755 
Q 1159 2438 1159 1844 
L 1159 0 
L 581 0 
L 581 3500 
L 1159 3500 
L 1159 2956 
Q 1341 3275 1631 3429 
Q 1922 3584 2338 3584 
Q 2397 3584 2469 3576 
Q 2541 3569 2628 3553 
L 2631 2963 
z
" id="DejaVuSans-72" transform="scale(0.015625)"/>
       <path d="M 3122 3366 
L 3122 2828 
Q 2878 2963 2633 3030 
Q 2388 3097 2138 3097 
Q 1578 3097 1268 2742 
Q 959 2388 959 1747 
Q 959 1106 1268 751 
Q 1578 397 2138 397 
Q 2388 397 2633 464 
Q 2878 531 3122 666 
L 3122 134 
Q 2881 22 2623 -34 
Q 2366 -91 2075 -91 
Q 1284 -91 818 406 
Q 353 903 353 1747 
Q 353 2603 823 3093 
Q 1294 3584 2113 3584 
Q 2378 3584 2631 3529 
Q 2884 3475 3122 3366 
z
" id="DejaVuSans-63" transform="scale(0.015625)"/>
       <path d="M 1172 4494 
L 1172 3500 
L 2356 3500 
L 2356 3053 
L 1172 3053 
L 1172 1153 
Q 1172 725 1289 603 
Q 1406 481 1766 481 
L 2356 481 
L 2356 0 
L 1766 0 
Q 1100 0 847 248 
Q 594 497 594 1153 
L 594 3053 
L 172 3053 
L 172 3500 
L 594 3500 
L 594 4494 
L 1172 4494 
z
" id="DejaVuSans-74" transform="scale(0.015625)"/>
       <path d="M 544 1381 
L 544 3500 
L 1119 3500 
L 1119 1403 
Q 1119 906 1312 657 
Q 1506 409 1894 409 
Q 2359 409 2629 706 
Q 2900 1003 2900 1516 
L 2900 3500 
L 3475 3500 
L 3475 0 
L 2900 0 
L 2900 538 
Q 2691 219 2414 64 
Q 2138 -91 1772 -91 
Q 1169 -91 856 284 
Q 544 659 544 1381 
z
M 1991 3584 
L 1991 3584 
z
" id="DejaVuSans-75" transform="scale(0.015625)"/>
       <path d="M 750 794 
L 1409 794 
L 1409 256 
L 897 -744 
L 494 -744 
L 750 256 
L 750 794 
z
" id="DejaVuSans-2c" transform="scale(0.015625)"/>
       <path d="M 1159 525 
L 1159 -1331 
L 581 -1331 
L 581 3500 
L 1159 3500 
L 1159 2969 
Q 1341 3281 1617 3432 
Q 1894 3584 2278 3584 
Q 2916 3584 3314 3078 
Q 3713 2572 3713 1747 
Q 3713 922 3314 415 
Q 2916 -91 2278 -91 
Q 1894 -91 1617 61 
Q 1341 213 1159 525 
z
M 3116 1747 
Q 3116 2381 2855 2742 
Q 2594 3103 2138 3103 
Q 1681 3103 1420 2742 
Q 1159 2381 1159 1747 
Q 1159 1113 1420 752 
Q 1681 391 2138 391 
Q 2594 391 2855 752 
Q 3116 1113 3116 1747 
z
" id="DejaVuSans-70" transform="scale(0.015625)"/>
      </defs>
      <use xlink:href="#DejaVuSans-46"/>
      <use x="50.269531" xlink:href="#DejaVuSans-72"/>
      <use x="91.382812" xlink:href="#DejaVuSans-61"/>
      <use x="152.662109" xlink:href="#DejaVuSans-63"/>
      <use x="207.642578" xlink:href="#DejaVuSans-74"/>
      <use x="246.851562" xlink:href="#DejaVuSans-69"/>
      <use x="274.634766" xlink:href="#DejaVuSans-6f"/>
      <use x="335.816406" xlink:href="#DejaVuSans-6e"/>
      <use x="399.195312" xlink:href="#DejaVuSans-20"/>
      <use x="430.982422" xlink:href="#DejaVuSans-6f"/>
      <use x="492.164062" xlink:href="#DejaVuSans-66"/>
      <use x="527.369141" xlink:href="#DejaVuSans-20"/>
      <use x="559.15625" xlink:href="#DejaVuSans-66"/>
      <use x="594.361328" xlink:href="#DejaVuSans-75"/>
      <use x="657.740234" xlink:href="#DejaVuSans-6e"/>
      <use x="721.119141" xlink:href="#DejaVuSans-63"/>
      <use x="776.099609" xlink:href="#DejaVuSans-74"/>
      <use x="815.308594" xlink:href="#DejaVuSans-69"/>
      <use x="843.091797" xlink:href="#DejaVuSans-6f"/>
      <use x="904.273438" xlink:href="#DejaVuSans-6e"/>
      <use x="967.652344" xlink:href="#DejaVuSans-2c"/>
      <use x="999.439453" xlink:href="#DejaVuSans-74"/>
      <use x="1038.648438" xlink:href="#DejaVuSans-61"/>
      <use x="1099.927734" xlink:href="#DejaVuSans-72"/>
      <use x="1139.291016" xlink:href="#DejaVuSans-67"/>
      <use x="1202.767578" xlink:href="#DejaVuSans-65"/>
      <use x="1264.291016" xlink:href="#DejaVuSans-74"/>
      <use x="1303.5" xlink:href="#DejaVuSans-20"/>
      <use x="1335.287109" xlink:href="#DejaVuSans-70"/>
      <use x="1398.763672" xlink:href="#DejaVuSans-61"/>
      <use x="1460.042969" xlink:href="#DejaVuSans-69"/>
      <use x="1487.826172" xlink:href="#DejaVuSans-72"/>
      <use x="1528.939453" xlink:href="#DejaVuSans-73"/>
     </g>
    </g>
   </g>
   <g id="line2d_33">
    <defs>
     <path d="M 0 1.5 
C 0.397805 1.5 0.77937 1.341951 1.06066 1.06066 
C 1.341951 0.77937 1.5 0.397805 1.5 0 
C 1.5 -0.397805 1.341951 -0.77937 1.06066 -1.06066 
C 0.77937 -1.341951 0.397805 -1.5 0 -1.5 
C -0.397805 -1.5 -0.77937 -1.341951 -1.06066 -1.06066 
C -1.341951 -0.77937 -1.5 -0.397805 -1.5 0 
C -1.5 0.397805 -1.341951 0.77937 -1.06066 1.06066 
C -0.77937 1.341951 -0.397805 1.5 0 1.5 
z
" id="m0a830a93be" style="stroke:#f5deb3;"/>
    </defs>
    <g>
     <use style="fill:#f5deb3;stroke:#f5deb3;" x="224.090358" xlink:href="#m0a830a93be" y="27.648"/>
     <use style="fill:#f5deb3;stroke:#f5deb3;" x="224.090358" xlink:href="#m0a830a93be" y="27.648"/>
    </g>
   </g>
   <g id="line2d_34">
    <defs>
     <path d="M 0 1.5 
C 0.397805 1.5 0.77937 1.341951 1.06066 1.06066 
C 1.341951 0.77937 1.5 0.397805 1.5 0 
C 1.5 -0.397805 1.341951 -0.77937 1.06066 -1.06066 
C 0.77937 -1.341951 0.397805 -1.5 0 -1.5 
C -0.397805 -1.5 -0.77937 -1.341951 -1.06066 -1.06066 
C -1.341951 -0.77937 -1.5 -0.397805 -1.5 0 
C -1.5 0.397805 -1.341951 0.77937 -1.06066 1.06066 
C -0.77937 1.341951 -0.397805 1.5 0 1.5 
z
" id="m3e532f076f" style="stroke:#000080;"/>
    </defs>
    <g>
     <use style="fill:#000080;stroke:#000080;" x="312.623443" xlink:href="#m3e532f076f" y="235.109647"/>
     <use style="fill:#000080;stroke:#000080;" x="312.623443" xlink:href="#m3e532f076f" y="235.109647"/>
    </g>
   </g>
   <g id="line2d_35">
    <path d="M 27.323974 298.944 
L 27.323974 275.183435 
L 40.363149 275.183435 
L 40.363149 274.119529 
L 47.990577 274.119529 
L 47.990577 271.991718 
L 53.402323 271.991718 
L 53.402323 269.509271 
L 57.6 269.509271 
L 57.6 269.154635 
L 61.029752 269.154635 
L 61.029752 267.736094 
L 63.929565 267.736094 
L 63.929565 267.026824 
L 66.441498 267.026824 
L 66.441498 266.317553 
L 68.65718 266.317553 
L 68.65718 265.253647 
L 72.432107 265.253647 
L 72.432107 264.899012 
L 76.96874 264.899012 
L 76.96874 263.480471 
L 81.696354 263.480471 
L 81.696354 263.125835 
L 83.678349 263.125835 
L 83.678349 262.416565 
L 86.307488 262.416565 
L 86.307488 262.061929 
L 87.876026 262.061929 
L 87.876026 261.352659 
L 94.205591 261.352659 
L 94.205591 260.643388 
L 98.077987 260.643388 
L 98.077987 260.288753 
L 99.751228 260.288753 
L 99.751228 259.934118 
L 100.535156 259.934118 
L 100.535156 259.579482 
L 101.287718 259.579482 
L 101.287718 259.224847 
L 105.850679 259.224847 
L 105.850679 258.515576 
L 109.520071 258.515576 
L 109.520071 258.160941 
L 113.765312 258.160941 
L 113.765312 257.806306 
L 114.872193 257.806306 
L 114.872193 257.451671 
L 119.034004 257.451671 
L 119.034004 257.097035 
L 120.149089 257.097035 
L 120.149089 256.7424 
L 122.677931 256.7424 
L 122.677931 256.387765 
L 126.517282 256.387765 
L 126.517282 255.678494 
L 129.041269 255.678494 
L 129.041269 255.323859 
L 129.54072 255.323859 
L 129.54072 254.614588 
L 130.964122 254.614588 
L 130.964122 254.259953 
L 133.120474 254.259953 
L 133.120474 253.905318 
L 136.92008 253.905318 
L 136.92008 253.550682 
L 138.206842 253.550682 
L 138.206842 253.196047 
L 138.818654 253.196047 
L 138.818654 252.841412 
L 143.10641 252.841412 
L 143.10641 252.486776 
L 147.753975 252.486776 
L 147.753975 252.132141 
L 148.307296 252.132141 
L 148.307296 251.777506 
L 150.262008 251.777506 
L 150.262008 251.422871 
L 156.245169 251.422871 
L 156.245169 251.068235 
L 159.283522 251.068235 
L 159.283522 250.7136 
L 163.477818 250.7136 
L 163.477818 250.358965 
L 164.037409 250.358965 
L 164.037409 250.004329 
L 175.323647 250.004329 
L 175.323647 249.649694 
L 176.319868 249.649694 
L 176.319868 248.940424 
L 181.916902 248.940424 
L 181.916902 248.231153 
L 195.235629 248.231153 
L 195.235629 247.876518 
L 195.404857 247.876518 
L 195.404857 247.521882 
L 201.014378 247.521882 
L 201.014378 247.167247 
L 201.200995 247.167247 
L 201.200995 246.812612 
L 202.498737 246.812612 
L 202.498737 246.457976 
L 209.380363 246.457976 
L 209.380363 246.103341 
L 211.751369 246.103341 
L 211.751369 245.039435 
L 211.865316 245.039435 
L 211.865316 244.6848 
L 212.021643 244.6848 
L 212.021643 244.330165 
L 216.186722 244.330165 
L 216.186722 243.975529 
L 216.372936 243.975529 
L 216.372936 243.620894 
L 216.533166 243.620894 
L 216.533166 243.266259 
L 219.030286 243.266259 
L 219.030286 242.911624 
L 225.232609 242.911624 
L 225.232609 242.556988 
L 233.693309 242.556988 
L 233.728876 241.493082 
L 235.317043 241.493082 
L 235.317043 241.138447 
L 243.547743 241.138447 
L 243.547743 240.783812 
L 244.526205 240.783812 
L 244.526205 240.429176 
L 250.625623 240.429176 
L 250.625623 240.074541 
L 252.401097 240.074541 
L 252.401097 239.719906 
L 254.766508 239.719906 
L 254.766508 239.365271 
L 258.577967 239.365271 
L 258.577967 239.010635 
L 260.145842 239.010635 
L 260.145842 238.656 
L 261.745763 238.656 
L 261.745763 238.301365 
L 268.928325 238.301365 
L 268.928325 237.946729 
L 281.511858 237.946729 
L 281.511858 237.592094 
L 285.202743 237.592094 
L 285.202743 237.237459 
L 286.022462 237.237459 
L 286.022462 236.882824 
L 288.98492 236.882824 
L 288.98492 236.528188 
L 293.257495 236.528188 
L 293.257495 235.818918 
L 294.828112 235.818918 
L 294.828112 235.464282 
L 312.623443 235.464282 
L 312.623443 235.109647 
L 360.8064 235.109647 
L 360.8064 235.109647 
" style="fill:none;stroke:#000080;stroke-linecap:square;stroke-width:1.5;"/>
   </g>
   <g id="line2d_36">
    <defs>
     <path d="M 0 6 
C 1.591219 6 3.117479 5.367802 4.242641 4.242641 
C 5.367802 3.117479 6 1.591219 6 0 
C 6 -1.591219 5.367802 -3.117479 4.242641 -4.242641 
C 3.117479 -5.367802 1.591219 -6 0 -6 
C -1.591219 -6 -3.117479 -5.367802 -4.242641 -4.242641 
C -5.367802 -3.117479 -6 -1.591219 -6 0 
C -6 1.591219 -5.367802 3.117479 -4.242641 4.242641 
C -3.117479 5.367802 -1.591219 6 0 6 
z
" id="mc0beb4606b" style="stroke:#000080;stroke-width:1.5;"/>
    </defs>
    <g>
     <use style="fill-opacity:0;stroke:#000080;stroke-width:1.5;" x="122.677931" xlink:href="#mc0beb4606b" y="256.387765"/>
     <use style="fill-opacity:0;stroke:#000080;stroke-width:1.5;" x="201.200995" xlink:href="#mc0beb4606b" y="247.167247"/>
     <use style="fill-opacity:0;stroke:#000080;stroke-width:1.5;" x="268.928325" xlink:href="#mc0beb4606b" y="238.301365"/>
     <use style="fill-opacity:0;stroke:#000080;stroke-width:1.5;" x="312.623443" xlink:href="#mc0beb4606b" y="235.109647"/>
     <use style="fill-opacity:0;stroke:#000080;stroke-width:1.5;" x="312.623443" xlink:href="#mc0beb4606b" y="235.109647"/>
     <use style="fill-opacity:0;stroke:#000080;stroke-width:1.5;" x="360.8064" xlink:href="#mc0beb4606b" y="235.109647"/>
    </g>
   </g>
   <g id="line2d_37">
    <path style="fill:none;stroke:#000080;stroke-linecap:square;stroke-width:1.5;"/>
    <g/>
   </g>
   <g id="line2d_38">
    <path clip-path="url(#p02d514dc7c)" d="M 226.672527 242.556988 
" style="fill:none;stroke:#000080;stroke-linecap:square;stroke-width:1.5;"/>
    <defs>
     <path d="M -12 12 
L 12 -12 
M -12 -12 
L 12 12 
" id="m51e642b7af" style="stroke:#000080;"/>
    </defs>
    <g clip-path="url(#p02d514dc7c)">
     <use style="fill:#000080;stroke:#000080;" x="226.672527" xlink:href="#m51e642b7af" y="242.556988"/>
    </g>
   </g>
   <g id="line2d_39">
    <defs>
     <path d="M 0 1.5 
C 0.397805 1.5 0.77937 1.341951 1.06066 1.06066 
C 1.341951 0.77937 1.5 0.397805 1.5 0 
C 1.5 -0.397805 1.341951 -0.77937 1.06066 -1.06066 
C 0.77937 -1.341951 0.397805 -1.5 0 -1.5 
C -0.397805 -1.5 -0.77937 -1.341951 -1.06066 -1.06066 
C -1.341951 -0.77937 -1.5 -0.397805 -1.5 0 
C -1.5 0.397805 -1.341951 0.77937 -1.06066 1.06066 
C -0.77937 1.341951 -0.397805 1.5 0 1.5 
z
" id="m8530a1e0c8" style="stroke:#ff00ff;"/>
    </defs>
    <g>
     <use style="fill:#ff00ff;stroke:#ff00ff;" x="301.771753" xlink:href="#m8530a1e0c8" y="27.648"/>
     <use style="fill:#ff00ff;stroke:#ff00ff;" x="301.771753" xlink:href="#m8530a1e0c8" y="27.648"/>
    </g>
   </g>
   <g id="line2d_40">
    <path d="M 27.323974 298.944 
L 27.323974 276.247341 
L 40.363149 276.247341 
L 40.363149 272.700988 
L 47.990577 272.700988 
L 47.990577 271.991718 
L 53.402323 271.991718 
L 53.402323 269.863906 
L 57.6 269.863906 
L 57.6 268.8 
L 63.929565 268.8 
L 63.929565 265.962918 
L 68.65718 265.962918 
L 68.65718 265.608282 
L 70.639174 265.608282 
L 70.639174 264.544376 
L 72.432107 264.544376 
L 72.432107 264.189741 
L 75.574654 264.189741 
L 75.574654 263.835106 
L 76.96874 263.835106 
L 76.96874 263.480471 
L 80.621116 263.480471 
L 80.621116 262.7712 
L 87.1081 262.7712 
L 87.1081 262.416565 
L 90.007914 262.416565 
L 90.007914 262.061929 
L 93.098709 262.061929 
L 93.098709 260.998024 
L 103.047088 260.998024 
L 103.047088 260.643388 
L 103.380045 260.643388 
L 103.380045 260.288753 
L 107.5116 260.288753 
L 107.5116 259.579482 
L 108.29012 259.579482 
L 108.29012 259.224847 
L 108.791791 259.224847 
L 108.791791 258.870212 
L 109.037698 258.870212 
L 109.037698 258.515576 
L 111.54963 258.515576 
L 111.54963 257.806306 
L 111.762192 257.806306 
L 111.762192 257.451671 
L 119.599808 257.451671 
L 119.599808 257.097035 
L 120.682786 257.097035 
L 120.682786 256.7424 
L 126.127391 256.7424 
L 126.127391 256.387765 
L 127.640693 256.387765 
L 127.640693 256.033129 
L 129.209231 256.033129 
L 129.209231 255.678494 
L 130.734242 255.678494 
L 130.734242 255.323859 
L 132.428795 255.323859 
L 132.428795 254.969224 
L 133.78762 254.969224 
L 133.78762 254.614588 
L 137.250116 254.614588 
L 137.250116 254.259953 
L 137.945929 254.259953 
L 137.945929 253.905318 
L 143.38393 253.905318 
L 143.38393 253.550682 
L 146.662213 253.550682 
L 146.662213 253.196047 
L 148.607806 253.196047 
L 148.607806 252.486776 
L 153.467455 252.486776 
L 153.467455 252.132141 
L 153.650761 252.132141 
L 153.650761 251.777506 
L 156.482044 251.777506 
L 156.482044 251.068235 
L 156.599372 251.068235 
L 156.599372 250.7136 
L 157.061501 250.7136 
L 157.061501 250.358965 
L 162.435167 250.358965 
L 162.534963 249.649694 
L 164.298142 249.649694 
L 164.298142 249.295059 
L 165.059334 249.295059 
L 165.059334 248.940424 
L 166.075768 248.940424 
L 166.075768 248.585788 
L 166.587046 248.585788 
L 166.587046 248.231153 
L 166.984048 248.231153 
L 166.984048 247.876518 
L 169.501592 247.876518 
L 169.501592 247.521882 
L 172.913335 247.521882 
L 172.978738 246.812612 
L 173.027642 246.812612 
L 173.027642 245.748706 
L 175.033228 245.748706 
L 175.128107 245.039435 
L 175.602554 245.039435 
L 175.602554 244.6848 
L 175.919314 244.6848 
L 175.919314 244.330165 
L 176.175823 244.330165 
L 176.175823 243.975529 
L 176.496696 243.975529 
L 176.496696 243.620894 
L 176.725451 243.620894 
L 176.725451 243.266259 
L 176.905149 243.266259 
L 176.94485 242.556988 
L 177.076584 242.556988 
L 177.076584 242.202353 
L 177.252974 242.202353 
L 177.252974 241.847718 
L 177.543331 241.847718 
L 177.543331 241.493082 
L 177.961242 241.493082 
L 177.98002 240.429176 
L 178.400683 240.429176 
L 178.400683 239.719906 
L 178.710121 239.719906 
L 178.746193 239.010635 
L 179.349065 239.010635 
L 179.354881 238.301365 
L 179.591798 238.301365 
L 179.591798 237.946729 
L 180.028834 237.946729 
L 180.028834 237.592094 
L 180.190835 237.592094 
L 180.23528 236.882824 
L 180.59256 236.882824 
L 180.630634 235.818918 
L 180.749798 235.818918 
L 180.749798 235.464282 
L 181.102826 235.464282 
L 181.102826 235.109647 
L 181.255873 235.109647 
L 181.255873 234.400376 
L 181.758927 234.400376 
L 181.758927 234.045741 
L 181.977698 234.045741 
L 181.977698 233.691106 
L 182.153909 233.691106 
L 182.153909 233.336471 
L 182.663095 233.336471 
L 182.663095 232.981835 
L 186.50132 232.981835 
L 186.50132 232.6272 
L 186.859796 232.6272 
L 186.859796 231.917929 
L 192.103988 231.917929 
L 192.103988 231.563294 
L 192.512887 231.563294 
L 192.512887 230.854024 
L 192.992116 230.854024 
L 192.992116 230.499388 
L 193.780871 230.499388 
L 193.780871 230.144753 
L 195.987848 230.144753 
L 195.987848 229.435482 
L 196.581262 229.435482 
L 196.581262 229.080847 
L 196.78726 229.080847 
L 196.78726 228.726212 
L 197.172322 228.726212 
L 197.172322 228.371576 
L 197.915241 228.371576 
L 197.915241 228.016941 
L 198.1672 228.016941 
L 198.186442 227.307671 
L 198.375676 227.307671 
L 198.375676 226.953035 
L 198.985541 226.953035 
L 198.985541 226.5984 
L 199.759937 226.5984 
L 199.759937 225.889129 
L 200.185525 225.889129 
L 200.185525 225.534494 
L 201.063957 225.534494 
L 201.063957 225.179859 
L 201.182781 225.179859 
L 201.182781 224.825224 
L 202.790421 224.825224 
L 202.790421 224.470588 
L 206.643665 224.470588 
L 206.70219 223.052047 
L 206.797074 223.052047 
L 206.797074 222.697412 
L 207.002814 222.697412 
L 207.002814 222.342776 
L 207.163945 222.342776 
L 207.163945 221.988141 
L 207.332908 221.988141 
L 207.440358 221.278871 
L 207.465168 221.278871 
L 207.545898 220.5696 
L 207.626284 220.5696 
L 207.729503 219.151059 
L 207.777051 219.151059 
L 207.873064 218.087153 
L 207.898585 218.087153 
L 207.943164 217.023247 
L 208.050988 217.023247 
L 208.138065 215.604706 
L 208.178311 215.604706 
L 208.277303 213.831529 
L 208.292294 213.831529 
L 208.378263 212.412988 
L 208.413037 212.412988 
L 208.476211 210.639812 
L 208.581032 210.639812 
L 208.627705 208.866635 
L 208.734126 208.866635 
L 208.734126 208.512 
L 217.072503 208.512 
L 217.072503 208.157365 
L 218.960298 208.157365 
L 218.960298 207.448094 
L 221.114181 207.448094 
L 221.158974 206.738824 
L 221.333966 206.738824 
L 221.333966 206.029553 
L 229.703631 206.029553 
L 229.703631 205.674918 
L 230.607402 205.674918 
L 230.607402 205.320282 
L 231.660362 205.320282 
L 231.71473 204.611012 
L 232.042981 204.611012 
L 232.139541 202.4832 
L 233.064104 202.4832 
L 233.153909 201.419294 
L 233.208451 201.419294 
L 233.315742 198.227576 
L 233.372121 198.227576 
L 233.372121 197.872941 
L 233.88938 197.872941 
L 233.98777 193.971953 
L 234.001784 193.971953 
L 234.110671 189.361694 
L 234.132816 189.361694 
L 234.234661 185.460706 
L 234.250063 185.460706 
L 234.250063 185.106071 
L 234.821622 185.106071 
L 234.897364 184.042165 
L 236.148357 184.042165 
L 236.252313 180.495812 
L 236.26502 180.495812 
L 236.37423 176.240188 
L 236.395547 176.240188 
L 236.395547 175.530918 
L 239.009908 175.530918 
L 239.009908 175.176282 
L 239.417987 175.176282 
L 239.417987 174.821647 
L 240.511863 174.821647 
L 240.613621 170.920659 
L 240.635115 170.920659 
L 240.635115 170.566024 
L 241.361579 170.566024 
L 241.46849 164.891859 
L 241.475125 164.891859 
L 241.554564 160.2816 
L 244.147405 160.2816 
L 244.148705 159.572329 
L 244.329946 159.572329 
L 244.432995 156.025976 
L 244.458213 156.025976 
L 244.562925 152.479624 
L 244.783902 152.479624 
L 244.783902 152.124988 
L 244.897528 152.124988 
L 244.897528 151.770353 
L 245.021287 151.770353 
L 245.100519 151.061082 
L 245.408422 151.061082 
L 245.513343 149.287906 
L 245.620772 149.287906 
L 245.620772 148.933271 
L 246.340216 148.933271 
L 246.444846 146.096188 
L 246.459956 146.096188 
L 246.565067 142.549835 
L 246.578939 142.549835 
L 246.599321 141.485929 
L 246.951761 141.485929 
L 247.060687 140.067388 
L 247.300388 140.067388 
L 247.300388 139.712753 
L 247.951407 139.712753 
L 247.951407 139.358118 
L 248.804027 139.358118 
L 248.813011 138.648847 
L 251.816498 138.648847 
L 251.816498 138.294212 
L 251.93272 138.294212 
L 251.96436 136.521035 
L 252.291836 136.521035 
L 252.362028 134.393224 
L 252.403252 134.393224 
L 252.403252 133.329318 
L 252.592982 133.329318 
L 252.703694 126.591247 
L 252.705696 126.591247 
L 252.727947 125.527341 
L 252.971443 125.527341 
L 253.039033 124.463435 
L 253.08596 124.463435 
L 253.08596 124.1088 
L 253.236923 124.1088 
L 253.278218 122.690259 
L 253.459933 122.690259 
L 253.559595 117.016094 
L 253.834717 117.016094 
L 253.891319 116.306824 
L 254.046075 116.306824 
L 254.046075 115.952188 
L 255.323831 115.952188 
L 255.378278 113.469741 
L 255.715244 113.469741 
L 255.78728 107.795576 
L 256.091498 107.795576 
L 256.091498 107.440941 
L 256.300986 107.440941 
L 256.300986 107.086306 
L 257.08755 107.086306 
L 257.192427 106.0224 
L 257.206434 106.0224 
L 257.246266 103.894588 
L 257.507976 103.894588 
L 257.507976 103.539953 
L 257.724012 103.539953 
L 257.758262 102.830682 
L 257.839581 102.830682 
L 257.839581 102.121412 
L 258.272557 102.121412 
L 258.31623 99.284329 
L 258.513457 99.284329 
L 258.535503 98.575059 
L 259.016118 98.575059 
L 259.016118 98.220424 
L 259.562071 98.220424 
L 259.562071 97.865788 
L 261.300151 97.865788 
L 261.300151 97.511153 
L 261.632652 97.511153 
L 261.637269 96.801882 
L 261.78397 96.801882 
L 261.870431 91.482353 
L 262.025957 91.482353 
L 262.042601 90.418447 
L 262.205107 90.418447 
L 262.205107 90.063812 
L 262.335958 90.063812 
L 262.426109 87.581365 
L 262.574826 87.581365 
L 262.577544 86.872094 
L 262.693305 86.872094 
L 262.701685 86.162824 
L 262.935777 86.162824 
L 262.935777 85.808188 
L 263.50605 85.808188 
L 263.528394 84.389647 
L 263.710987 84.389647 
L 263.807076 82.261835 
L 263.9705 82.261835 
L 263.97723 81.197929 
L 264.120192 81.197929 
L 264.120192 80.843294 
L 264.333062 80.843294 
L 264.333062 80.488659 
L 264.463585 80.488659 
L 264.463585 80.134024 
L 264.658529 80.134024 
L 264.759097 78.715482 
L 264.783907 78.715482 
L 264.7963 76.942306 
L 264.952001 76.942306 
L 264.95974 76.233035 
L 265.070317 76.233035 
L 265.083499 75.523765 
L 265.200509 75.523765 
L 265.200509 75.169129 
L 265.463124 75.169129 
L 265.496634 72.686682 
L 265.645779 72.686682 
L 265.645779 72.332047 
L 265.780294 72.332047 
L 265.846372 71.268141 
L 267.825625 71.268141 
L 267.931316 69.494965 
L 267.938918 69.494965 
L 267.974003 66.657882 
L 268.10008 66.657882 
L 268.146067 64.175435 
L 268.218968 64.175435 
L 268.248689 63.111529 
L 268.336698 63.111529 
L 268.361263 61.692988 
L 268.482947 61.692988 
L 268.520844 60.274447 
L 269.200353 60.274447 
L 269.210153 59.565176 
L 269.381906 59.565176 
L 269.399083 57.792 
L 269.559031 57.792 
L 269.653481 56.728094 
L 270.105809 56.728094 
L 270.154466 55.664188 
L 270.260811 55.664188 
L 270.291223 54.600282 
L 270.503845 54.600282 
L 270.519023 53.891012 
L 270.619469 53.891012 
L 270.687933 53.181741 
L 270.76702 53.181741 
L 270.828253 52.117835 
L 272.603495 52.117835 
L 272.710032 51.053929 
L 272.719141 51.053929 
L 272.782331 50.344659 
L 272.865892 50.344659 
L 272.932411 49.280753 
L 273.01639 49.280753 
L 273.01639 48.926118 
L 273.721753 48.926118 
L 273.723603 48.216847 
L 273.910472 48.216847 
L 273.911998 47.507576 
L 274.036845 47.507576 
L 274.036845 47.152941 
L 274.266304 47.152941 
L 274.307035 46.089035 
L 274.382504 46.089035 
L 274.482488 45.025129 
L 274.713226 45.025129 
L 274.713226 44.670494 
L 274.854961 44.670494 
L 274.854961 44.315859 
L 275.028924 44.315859 
L 275.028924 43.961224 
L 276.183219 43.961224 
L 276.289572 42.542682 
L 276.294346 42.542682 
L 276.387401 41.478776 
L 276.647279 41.478776 
L 276.647279 41.124141 
L 276.788774 41.124141 
L 276.788774 40.769506 
L 277.207046 40.769506 
L 277.21409 40.060235 
L 277.483582 40.060235 
L 277.483582 39.7056 
L 277.864318 39.7056 
L 277.877333 38.996329 
L 278.073316 38.996329 
L 278.073316 38.641694 
L 278.345031 38.641694 
L 278.345031 38.287059 
L 279.465744 38.287059 
L 279.541677 37.577788 
L 279.680334 37.577788 
L 279.680334 37.223153 
L 279.817113 37.223153 
L 279.817113 36.868518 
L 280.902517 36.868518 
L 280.902517 36.513882 
L 282.127589 36.513882 
L 282.228986 35.449976 
L 282.925615 35.449976 
L 282.943635 34.740706 
L 284.308471 34.740706 
L 284.308471 34.386071 
L 284.48323 34.386071 
L 284.48323 34.031435 
L 285.045933 34.031435 
L 285.045933 33.6768 
L 285.540503 33.6768 
L 285.552549 32.967529 
L 286.658337 32.967529 
L 286.658337 32.612894 
L 286.777744 32.612894 
L 286.777744 32.258259 
L 287.429975 32.258259 
L 287.429975 31.903624 
L 287.770582 31.903624 
L 287.770582 31.548988 
L 288.478601 31.548988 
L 288.478601 31.194353 
L 288.912593 31.194353 
L 288.912593 30.839718 
L 289.489324 30.839718 
L 289.489324 30.485082 
L 290.636945 30.485082 
L 290.636945 30.130447 
L 290.83099 30.130447 
L 290.83099 29.775812 
L 291.6619 29.775812 
L 291.709809 28.711906 
L 293.496803 28.711906 
L 293.496803 28.357271 
L 295.046924 28.357271 
L 295.046924 28.002635 
L 301.771753 28.002635 
L 301.771753 27.648 
L 360.8064 27.648 
L 360.8064 27.648 
" style="fill:none;stroke:#ff00ff;stroke-linecap:square;stroke-width:1.5;"/>
   </g>
   <g id="line2d_41">
    <defs>
     <path d="M -0 8.485281 
L 5.091169 0 
L 0 -8.485281 
L -5.091169 -0 
z
" id="m1822225644" style="stroke:#ff00ff;stroke-linejoin:miter;stroke-width:1.5;"/>
    </defs>
    <g>
     <use style="fill-opacity:0;stroke:#ff00ff;stroke-linejoin:miter;stroke-width:1.5;" x="156.599372" xlink:href="#m1822225644" y="251.068235"/>
     <use style="fill-opacity:0;stroke:#ff00ff;stroke-linejoin:miter;stroke-width:1.5;" x="236.208195" xlink:href="#m1822225644" y="181.559718"/>
     <use style="fill-opacity:0;stroke:#ff00ff;stroke-linejoin:miter;stroke-width:1.5;" x="268.361263" xlink:href="#m1822225644" y="62.047624"/>
     <use style="fill-opacity:0;stroke:#ff00ff;stroke-linejoin:miter;stroke-width:1.5;" x="301.771753" xlink:href="#m1822225644" y="27.648"/>
     <use style="fill-opacity:0;stroke:#ff00ff;stroke-linejoin:miter;stroke-width:1.5;" x="301.771753" xlink:href="#m1822225644" y="27.648"/>
     <use style="fill-opacity:0;stroke:#ff00ff;stroke-linejoin:miter;stroke-width:1.5;" x="360.8064" xlink:href="#m1822225644" y="27.648"/>
    </g>
   </g>
   <g id="line2d_42">
    <path style="fill:none;stroke:#ff00ff;stroke-linecap:square;stroke-width:1.5;"/>
    <g/>
   </g>
   <g id="line2d_43">
    <path clip-path="url(#p02d514dc7c)" d="M 243.901479 160.2816 
" style="fill:none;stroke:#ff00ff;stroke-linecap:square;stroke-width:1.5;"/>
    <defs>
     <path d="M -12 12 
L 12 -12 
M -12 -12 
L 12 12 
" id="m79a48ce636" style="stroke:#ff00ff;"/>
    </defs>
    <g clip-path="url(#p02d514dc7c)">
     <use style="fill:#ff00ff;stroke:#ff00ff;" x="243.901479" xlink:href="#m79a48ce636" y="160.2816"/>
    </g>
   </g>
   <g id="line2d_44">
    <path d="M 360.8064 235.109647 
L 380.514816 293.51808 
" style="fill:none;stroke:#000080;stroke-linecap:square;stroke-width:1.5;"/>
    <g>
     <use style="fill-opacity:0;stroke:#000080;stroke-width:1.5;" x="360.8064" xlink:href="#mc0beb4606b" y="235.109647"/>
     <use style="fill-opacity:0;stroke:#000080;stroke-width:1.5;" x="380.514816" xlink:href="#mc0beb4606b" y="293.51808"/>
    </g>
   </g>
   <g id="line2d_45">
    <path d="M 360.8064 27.648 
L 380.514816 163.296 
" style="fill:none;stroke:#ff00ff;stroke-linecap:square;stroke-width:1.5;"/>
    <g>
     <use style="fill-opacity:0;stroke:#ff00ff;stroke-linejoin:miter;stroke-width:1.5;" x="360.8064" xlink:href="#m1822225644" y="27.648"/>
     <use style="fill-opacity:0;stroke:#ff00ff;stroke-linejoin:miter;stroke-width:1.5;" x="380.514816" xlink:href="#m1822225644" y="163.296"/>
    </g>
   </g>
   <g id="line2d_46">
    <path d="M 360.8064 298.944 
L 360.8064 27.648 
" style="fill:none;stroke:#000000;stroke-linecap:square;stroke-width:1.5;"/>
   </g>
   <g id="patch_3">
    <path d="M 57.6 298.944 
L 360.8064 298.944 
" style="fill:none;stroke:#000000;stroke-linecap:square;stroke-linejoin:miter;stroke-width:0.8;"/>
   </g>
   <g id="patch_4">
    <path d="M 57.6 27.648 
L 360.8064 27.648 
" style="fill:none;stroke:#000000;stroke-linecap:square;stroke-linejoin:miter;stroke-width:0.8;"/>
   </g>
   <g id="text_13">
    <!-- different -->
    <g transform="translate(386.578944 297.381205)scale(0.14 -0.14)">
     <use xlink:href="#DejaVuSans-64"/>
     <use x="63.476562" xlink:href="#DejaVuSans-69"/>
     <use x="91.259766" xlink:href="#DejaVuSans-66"/>
     <use x="126.464844" xlink:href="#DejaVuSans-66"/>
     <use x="161.669922" xlink:href="#DejaVuSans-65"/>
     <use x="223.193359" xlink:href="#DejaVuSans-72"/>
     <use x="262.056641" xlink:href="#DejaVuSans-65"/>
     <use x="323.580078" xlink:href="#DejaVuSans-6e"/>
     <use x="386.958984" xlink:href="#DejaVuSans-74"/>
    </g>
   </g>
   <g id="text_14">
    <!-- cma.fmin  -->
    <g transform="translate(386.578944 167.159125)scale(0.14 -0.14)">
     <use xlink:href="#DejaVuSans-63"/>
     <use x="54.980469" xlink:href="#DejaVuSans-6d"/>
     <use x="152.392578" xlink:href="#DejaVuSans-61"/>
     <use x="213.671875" xlink:href="#DejaVuSans-2e"/>
     <use x="245.458984" xlink:href="#DejaVuSans-66"/>
     <use x="280.664062" xlink:href="#DejaVuSans-6d"/>
     <use x="378.076172" xlink:href="#DejaVuSans-69"/>
     <use x="405.859375" xlink:href="#DejaVuSans-6e"/>
     <use x="469.238281" xlink:href="#DejaVuSans-20"/>
    </g>
   </g>
   <g id="text_15">
    <!-- best 2009 -->
    <g transform="translate(386.578944 36.937045)scale(0.14 -0.14)">
     <defs>
      <path d="M 3116 1747 
Q 3116 2381 2855 2742 
Q 2594 3103 2138 3103 
Q 1681 3103 1420 2742 
Q 1159 2381 1159 1747 
Q 1159 1113 1420 752 
Q 1681 391 2138 391 
Q 2594 391 2855 752 
Q 3116 1113 3116 1747 
z
M 1159 2969 
Q 1341 3281 1617 3432 
Q 1894 3584 2278 3584 
Q 2916 3584 3314 3078 
Q 3713 2572 3713 1747 
Q 3713 922 3314 415 
Q 2916 -91 2278 -91 
Q 1894 -91 1617 61 
Q 1341 213 1159 525 
L 1159 0 
L 581 0 
L 581 4863 
L 1159 4863 
L 1159 2969 
z
" id="DejaVuSans-62" transform="scale(0.015625)"/>
      <path d="M 703 97 
L 703 672 
Q 941 559 1184 500 
Q 1428 441 1663 441 
Q 2288 441 2617 861 
Q 2947 1281 2994 2138 
Q 2813 1869 2534 1725 
Q 2256 1581 1919 1581 
Q 1219 1581 811 2004 
Q 403 2428 403 3163 
Q 403 3881 828 4315 
Q 1253 4750 1959 4750 
Q 2769 4750 3195 4129 
Q 3622 3509 3622 2328 
Q 3622 1225 3098 567 
Q 2575 -91 1691 -91 
Q 1453 -91 1209 -44 
Q 966 3 703 97 
z
M 1959 2075 
Q 2384 2075 2632 2365 
Q 2881 2656 2881 3163 
Q 2881 3666 2632 3958 
Q 2384 4250 1959 4250 
Q 1534 4250 1286 3958 
Q 1038 3666 1038 3163 
Q 1038 2656 1286 2365 
Q 1534 2075 1959 2075 
z
" id="DejaVuSans-39" transform="scale(0.015625)"/>
     </defs>
     <use xlink:href="#DejaVuSans-62"/>
     <use x="63.476562" xlink:href="#DejaVuSans-65"/>
     <use x="125" xlink:href="#DejaVuSans-73"/>
     <use x="177.099609" xlink:href="#DejaVuSans-74"/>
     <use x="216.308594" xlink:href="#DejaVuSans-20"/>
     <use x="248.095703" xlink:href="#DejaVuSans-32"/>
     <use x="311.71875" xlink:href="#DejaVuSans-30"/>
     <use x="375.341797" xlink:href="#DejaVuSans-30"/>
     <use x="438.964844" xlink:href="#DejaVuSans-39"/>
    </g>
   </g>
   <g id="text_16">
    <!-- bbob f23, 5-D -->
    <g transform="translate(60.632064 38.111366)scale(0.102 -0.102)">
     <defs>
      <path d="M 2597 2516 
Q 3050 2419 3304 2112 
Q 3559 1806 3559 1356 
Q 3559 666 3084 287 
Q 2609 -91 1734 -91 
Q 1441 -91 1130 -33 
Q 819 25 488 141 
L 488 750 
Q 750 597 1062 519 
Q 1375 441 1716 441 
Q 2309 441 2620 675 
Q 2931 909 2931 1356 
Q 2931 1769 2642 2001 
Q 2353 2234 1838 2234 
L 1294 2234 
L 1294 2753 
L 1863 2753 
Q 2328 2753 2575 2939 
Q 2822 3125 2822 3475 
Q 2822 3834 2567 4026 
Q 2313 4219 1838 4219 
Q 1578 4219 1281 4162 
Q 984 4106 628 3988 
L 628 4550 
Q 988 4650 1302 4700 
Q 1616 4750 1894 4750 
Q 2613 4750 3031 4423 
Q 3450 4097 3450 3541 
Q 3450 3153 3228 2886 
Q 3006 2619 2597 2516 
z
" id="DejaVuSans-33" transform="scale(0.015625)"/>
      <path d="M 691 4666 
L 3169 4666 
L 3169 4134 
L 1269 4134 
L 1269 2991 
Q 1406 3038 1543 3061 
Q 1681 3084 1819 3084 
Q 2600 3084 3056 2656 
Q 3513 2228 3513 1497 
Q 3513 744 3044 326 
Q 2575 -91 1722 -91 
Q 1428 -91 1123 -41 
Q 819 9 494 109 
L 494 744 
Q 775 591 1075 516 
Q 1375 441 1709 441 
Q 2250 441 2565 725 
Q 2881 1009 2881 1497 
Q 2881 1984 2565 2268 
Q 2250 2553 1709 2553 
Q 1456 2553 1204 2497 
Q 953 2441 691 2322 
L 691 4666 
z
" id="DejaVuSans-35" transform="scale(0.015625)"/>
      <path d="M 1259 4147 
L 1259 519 
L 2022 519 
Q 2988 519 3436 956 
Q 3884 1394 3884 2338 
Q 3884 3275 3436 3711 
Q 2988 4147 2022 4147 
L 1259 4147 
z
M 628 4666 
L 1925 4666 
Q 3281 4666 3915 4102 
Q 4550 3538 4550 2338 
Q 4550 1131 3912 565 
Q 3275 0 1925 0 
L 628 0 
L 628 4666 
z
" id="DejaVuSans-44" transform="scale(0.015625)"/>
     </defs>
     <use xlink:href="#DejaVuSans-62"/>
     <use x="63.476562" xlink:href="#DejaVuSans-62"/>
     <use x="126.953125" xlink:href="#DejaVuSans-6f"/>
     <use x="188.134766" xlink:href="#DejaVuSans-62"/>
     <use x="251.611328" xlink:href="#DejaVuSans-20"/>
     <use x="283.398438" xlink:href="#DejaVuSans-66"/>
     <use x="318.603516" xlink:href="#DejaVuSans-32"/>
     <use x="382.226562" xlink:href="#DejaVuSans-33"/>
     <use x="445.849609" xlink:href="#DejaVuSans-2c"/>
     <use x="477.636719" xlink:href="#DejaVuSans-20"/>
     <use x="509.423828" xlink:href="#DejaVuSans-35"/>
     <use x="573.046875" xlink:href="#DejaVuSans-2d"/>
     <use x="609.130859" xlink:href="#DejaVuSans-44"/>
    </g>
    <!-- 51 targets: 100..1e-08 -->
    <g transform="translate(60.632064 49.533135)scale(0.102 -0.102)">
     <defs>
      <path d="M 750 794 
L 1409 794 
L 1409 0 
L 750 0 
L 750 794 
z
M 750 3309 
L 1409 3309 
L 1409 2516 
L 750 2516 
L 750 3309 
z
" id="DejaVuSans-3a" transform="scale(0.015625)"/>
     </defs>
     <use xlink:href="#DejaVuSans-35"/>
     <use x="63.623047" xlink:href="#DejaVuSans-31"/>
     <use x="127.246094" xlink:href="#DejaVuSans-20"/>
     <use x="159.033203" xlink:href="#DejaVuSans-74"/>
     <use x="198.242188" xlink:href="#DejaVuSans-61"/>
     <use x="259.521484" xlink:href="#DejaVuSans-72"/>
     <use x="298.884766" xlink:href="#DejaVuSans-67"/>
     <use x="362.361328" xlink:href="#DejaVuSans-65"/>
     <use x="423.884766" xlink:href="#DejaVuSans-74"/>
     <use x="463.09375" xlink:href="#DejaVuSans-73"/>
     <use x="515.193359" xlink:href="#DejaVuSans-3a"/>
     <use x="548.884766" xlink:href="#DejaVuSans-20"/>
     <use x="580.671875" xlink:href="#DejaVuSans-31"/>
     <use x="644.294922" xlink:href="#DejaVuSans-30"/>
     <use x="707.917969" xlink:href="#DejaVuSans-30"/>
     <use x="771.541016" xlink:href="#DejaVuSans-2e"/>
     <use x="803.328125" xlink:href="#DejaVuSans-2e"/>
     <use x="835.115234" xlink:href="#DejaVuSans-31"/>
     <use x="898.738281" xlink:href="#DejaVuSans-65"/>
     <use x="960.261719" xlink:href="#DejaVuSans-2d"/>
     <use x="996.345703" xlink:href="#DejaVuSans-30"/>
     <use x="1059.96875" xlink:href="#DejaVuSans-38"/>
    </g>
    <!-- 15 instances -->
    <g transform="translate(60.632064 60.954904)scale(0.102 -0.102)">
     <use xlink:href="#DejaVuSans-31"/>
     <use x="63.623047" xlink:href="#DejaVuSans-35"/>
     <use x="127.246094" xlink:href="#DejaVuSans-20"/>
     <use x="159.033203" xlink:href="#DejaVuSans-69"/>
     <use x="186.816406" xlink:href="#DejaVuSans-6e"/>
     <use x="250.195312" xlink:href="#DejaVuSans-73"/>
     <use x="302.294922" xlink:href="#DejaVuSans-74"/>
     <use x="341.503906" xlink:href="#DejaVuSans-61"/>
     <use x="402.783203" xlink:href="#DejaVuSans-6e"/>
     <use x="466.162109" xlink:href="#DejaVuSans-63"/>
     <use x="521.142578" xlink:href="#DejaVuSans-65"/>
     <use x="582.666016" xlink:href="#DejaVuSans-73"/>
    </g>
   </g>
   <g id="text_17">
    <!-- v2.6 -->
    <g style="fill:#808080;" transform="translate(198.292262 294.151352)scale(0.1 -0.1)">
     <use xlink:href="#DejaVuSans-76"/>
     <use x="59.179688" xlink:href="#DejaVuSans-32"/>
     <use x="122.802734" xlink:href="#DejaVuSans-2e"/>
     <use x="154.589844" xlink:href="#DejaVuSans-36"/>
    </g>
   </g>
   <g id="text_18">
    <!-- 23 Katsuuras -->
    <g transform="translate(143.536012 21.648)scale(0.2 -0.2)">
     <defs>
      <path d="M 628 4666 
L 1259 4666 
L 1259 2694 
L 3353 4666 
L 4166 4666 
L 1850 2491 
L 4331 0 
L 3500 0 
L 1259 2247 
L 1259 0 
L 628 0 
L 628 4666 
z
" id="DejaVuSans-4b" transform="scale(0.015625)"/>
     </defs>
     <use xlink:href="#DejaVuSans-32"/>
     <use x="63.623047" xlink:href="#DejaVuSans-33"/>
     <use x="127.246094" xlink:href="#DejaVuSans-20"/>
     <use x="159.033203" xlink:href="#DejaVuSans-4b"/>
     <use x="222.859375" xlink:href="#DejaVuSans-61"/>
     <use x="284.138672" xlink:href="#DejaVuSans-74"/>
     <use x="323.347656" xlink:href="#DejaVuSans-73"/>
     <use x="375.447266" xlink:href="#DejaVuSans-75"/>
     <use x="438.826172" xlink:href="#DejaVuSans-75"/>
     <use x="502.205078" xlink:href="#DejaVuSans-72"/>
     <use x="543.318359" xlink:href="#DejaVuSans-61"/>
     <use x="604.597656" xlink:href="#DejaVuSans-73"/>
    </g>
   </g>
  </g>
 </g>
 <defs>
  <clipPath id="p02d514dc7c">
   <rect height="271.296" width="303.2064" x="57.6" y="27.648"/>
  </clipPath>
 </defs>
</svg>
