<?xml version="1.0" encoding="utf-8" standalone="no"?>
<!DOCTYPE svg PUBLIC "-//W3C//DTD SVG 1.1//EN"
  "http://www.w3.org/Graphics/SVG/1.1/DTD/svg11.dtd">
<svg height="345.6pt" version="1.1" viewBox="0 0 460.8 345.6" width="460.8pt" xmlns="http://www.w3.org/2000/svg" xmlns:xlink="http://www.w3.org/1999/xlink">
 <metadata>
  <rdf:RDF xmlns:cc="http://creativecommons.org/ns#" xmlns:dc="http://purl.org/dc/elements/1.1/" xmlns:rdf="http://www.w3.org/1999/02/22-rdf-syntax-ns#">
   <cc:Work>
    <dc:type rdf:resource="http://purl.org/dc/dcmitype/StillImage"/>
    <dc:date>2022-05-22T15:10:38.056680</dc:date>
    <dc:format>image/svg+xml</dc:format>
    <dc:creator>
     <cc:Agent>
      <dc:title>Matplotlib v3.4.3, https://matplotlib.org/</dc:title>
     </cc:Agent>
    </dc:creator>
   </cc:Work>
  </rdf:RDF>
 </metadata>
 <defs>
  <style type="text/css">*{stroke-linecap:butt;stroke-linejoin:round;}</style>
 </defs>
 <g id="figure_1">
  <g id="patch_1">
   <path d="M 0 345.6 
L 460.8 345.6 
L 460.8 0 
L 0 0 
z
" style="fill:#ffffff;"/>
  </g>
  <g id="axes_1">
   <g id="patch_2">
    <path d="M 57.6 298.944 
L 360.8064 298.944 
L 360.8064 27.648 
L 57.6 27.648 
z
" style="fill:#ffffff;"/>
   </g>
   <g id="line2d_1">
    <path d="M 129.632909 298.944 
L 129.632909 293.624471 
L 132.296225 293.624471 
L 132.296225 288.304941 
L 134.605294 288.304941 
L 134.605294 282.985412 
L 136.520491 282.985412 
L 136.520491 277.665882 
L 139.15425 277.665882 
L 139.15425 272.346353 
L 141.756053 272.346353 
L 141.756053 267.026824 
L 143.859951 267.026824 
L 143.859951 261.707294 
L 145.851536 261.707294 
L 145.851536 256.387765 
L 147.781252 256.387765 
L 147.781252 251.068235 
L 148.958537 251.068235 
L 148.958537 245.748706 
L 150.299511 245.748706 
L 150.299511 240.429176 
L 151.33004 240.429176 
L 151.33004 235.109647 
L 151.973476 235.109647 
L 151.973476 229.790118 
L 153.01302 229.790118 
L 153.01302 224.470588 
L 154.020484 224.470588 
L 154.020484 219.151059 
L 155.203786 219.151059 
L 155.203786 213.831529 
L 156.665049 213.831529 
L 156.665049 208.512 
L 158.10435 208.512 
L 158.10435 203.192471 
L 158.864805 203.192471 
L 158.864805 197.872941 
L 159.792086 197.872941 
L 159.792086 192.553412 
L 160.442846 192.553412 
L 160.442846 187.233882 
L 161.198212 187.233882 
L 161.198212 181.914353 
L 161.867413 181.914353 
L 161.867413 176.594824 
L 162.579345 176.594824 
L 162.579345 171.275294 
L 163.372716 171.275294 
L 163.372716 165.955765 
L 164.158448 165.955765 
L 164.158448 160.636235 
L 164.826327 160.636235 
L 164.826327 155.316706 
L 165.460658 155.316706 
L 165.460658 149.997176 
L 166.041872 149.997176 
L 166.041872 144.677647 
L 166.370868 144.677647 
L 166.370868 139.358118 
L 166.796516 139.358118 
L 166.796516 134.038588 
L 167.079212 134.038588 
L 167.079212 128.719059 
L 167.467434 128.719059 
L 167.467434 123.399529 
L 168.12053 123.399529 
L 168.12053 118.08 
L 168.637696 118.08 
L 168.637696 112.760471 
L 169.103456 112.760471 
L 169.103456 107.440941 
L 169.614163 107.440941 
L 169.614163 102.121412 
L 169.986203 102.121412 
L 169.986203 96.801882 
L 170.373303 96.801882 
L 170.373303 91.482353 
L 170.857946 91.482353 
L 170.857946 86.162824 
L 171.149147 86.162824 
L 171.149147 80.843294 
L 171.763036 80.843294 
L 171.763036 75.523765 
L 172.395444 75.523765 
L 172.395444 70.204235 
L 172.914359 70.204235 
L 172.914359 64.884706 
L 173.41735 64.884706 
L 173.41735 59.565176 
L 173.760043 59.565176 
L 173.760043 54.245647 
L 174.021474 54.245647 
L 174.021474 48.926118 
L 174.350587 48.926118 
L 174.350587 43.606588 
L 174.579648 43.606588 
L 174.579648 38.287059 
L 174.896456 38.287059 
L 174.896456 32.967529 
L 175.297512 32.967529 
L 175.297512 27.648 
L 360.8064 27.648 
" style="fill:none;stroke:#f5deb3;stroke-linecap:square;stroke-width:4;"/>
   </g>
   <g id="line2d_2">
    <defs>
     <path d="M -0 7.778175 
L 7.778175 0 
L 0 -7.778175 
L -7.778175 -0 
z
" id="mb85d83acb3" style="stroke:#f5deb3;stroke-linejoin:miter;stroke-width:1.5;"/>
    </defs>
    <g>
     <use style="fill:#f5deb3;stroke:#f5deb3;stroke-linejoin:miter;stroke-width:1.5;" x="151.973476" xlink:href="#mb85d83acb3" y="229.790118"/>
     <use style="fill:#f5deb3;stroke:#f5deb3;stroke-linejoin:miter;stroke-width:1.5;" x="173.760043" xlink:href="#mb85d83acb3" y="54.245647"/>
     <use style="fill:#f5deb3;stroke:#f5deb3;stroke-linejoin:miter;stroke-width:1.5;" x="175.297512" xlink:href="#mb85d83acb3" y="32.967529"/>
     <use style="fill:#f5deb3;stroke:#f5deb3;stroke-linejoin:miter;stroke-width:1.5;" x="175.297512" xlink:href="#mb85d83acb3" y="27.648"/>
     <use style="fill:#f5deb3;stroke:#f5deb3;stroke-linejoin:miter;stroke-width:1.5;" x="360.8064" xlink:href="#mb85d83acb3" y="27.648"/>
    </g>
   </g>
   <g id="line2d_3">
    <path style="fill:none;stroke:#f5deb3;stroke-linecap:square;stroke-width:4;"/>
    <g/>
   </g>
   <g id="line2d_4">
    <path d="M 360.8064 27.648 
L 380.514816 33.07392 
" style="fill:none;stroke:#f5deb3;stroke-linecap:square;stroke-width:4;"/>
    <g>
     <use style="fill:#f5deb3;stroke:#f5deb3;stroke-linejoin:miter;stroke-width:1.5;" x="360.8064" xlink:href="#mb85d83acb3" y="27.648"/>
     <use style="fill:#f5deb3;stroke:#f5deb3;stroke-linejoin:miter;stroke-width:1.5;" x="380.514816" xlink:href="#mb85d83acb3" y="33.07392"/>
    </g>
   </g>
   <g id="matplotlib.axis_1">
    <g id="xtick_1">
     <g id="line2d_5">
      <path clip-path="url(#pc6af95153a)" d="M 57.6 298.944 
L 57.6 27.648 
" style="fill:none;stroke:#b0b0b0;stroke-linecap:square;stroke-width:0.8;"/>
     </g>
     <g id="line2d_6">
      <defs>
       <path d="M 0 0 
L 0 3.5 
" id="m5aede2e84e" style="stroke:#000000;stroke-width:0.8;"/>
      </defs>
      <g>
       <use style="stroke:#000000;stroke-width:0.8;" x="57.6" xlink:href="#m5aede2e84e" y="298.944"/>
      </g>
     </g>
     <g id="text_1">
      <!-- 0 -->
      <g transform="translate(52.191875 318.861344)scale(0.17 -0.17)">
       <defs>
        <path d="M 2034 4250 
Q 1547 4250 1301 3770 
Q 1056 3291 1056 2328 
Q 1056 1369 1301 889 
Q 1547 409 2034 409 
Q 2525 409 2770 889 
Q 3016 1369 3016 2328 
Q 3016 3291 2770 3770 
Q 2525 4250 2034 4250 
z
M 2034 4750 
Q 2819 4750 3233 4129 
Q 3647 3509 3647 2328 
Q 3647 1150 3233 529 
Q 2819 -91 2034 -91 
Q 1250 -91 836 529 
Q 422 1150 422 2328 
Q 422 3509 836 4129 
Q 1250 4750 2034 4750 
z
" id="DejaVuSans-30" transform="scale(0.015625)"/>
       </defs>
       <use xlink:href="#DejaVuSans-30"/>
      </g>
     </g>
    </g>
    <g id="xtick_2">
     <g id="line2d_7">
      <path clip-path="url(#pc6af95153a)" d="M 144.2304 298.944 
L 144.2304 27.648 
" style="fill:none;stroke:#b0b0b0;stroke-linecap:square;stroke-width:0.8;"/>
     </g>
     <g id="line2d_8">
      <g>
       <use style="stroke:#000000;stroke-width:0.8;" x="144.2304" xlink:href="#m5aede2e84e" y="298.944"/>
      </g>
     </g>
     <g id="text_2">
      <!-- 2 -->
      <g transform="translate(138.822275 318.861344)scale(0.17 -0.17)">
       <defs>
        <path d="M 1228 531 
L 3431 531 
L 3431 0 
L 469 0 
L 469 531 
Q 828 903 1448 1529 
Q 2069 2156 2228 2338 
Q 2531 2678 2651 2914 
Q 2772 3150 2772 3378 
Q 2772 3750 2511 3984 
Q 2250 4219 1831 4219 
Q 1534 4219 1204 4116 
Q 875 4013 500 3803 
L 500 4441 
Q 881 4594 1212 4672 
Q 1544 4750 1819 4750 
Q 2544 4750 2975 4387 
Q 3406 4025 3406 3419 
Q 3406 3131 3298 2873 
Q 3191 2616 2906 2266 
Q 2828 2175 2409 1742 
Q 1991 1309 1228 531 
z
" id="DejaVuSans-32" transform="scale(0.015625)"/>
       </defs>
       <use xlink:href="#DejaVuSans-32"/>
      </g>
     </g>
    </g>
    <g id="xtick_3">
     <g id="line2d_9">
      <path clip-path="url(#pc6af95153a)" d="M 230.8608 298.944 
L 230.8608 27.648 
" style="fill:none;stroke:#b0b0b0;stroke-linecap:square;stroke-width:0.8;"/>
     </g>
     <g id="line2d_10">
      <g>
       <use style="stroke:#000000;stroke-width:0.8;" x="230.8608" xlink:href="#m5aede2e84e" y="298.944"/>
      </g>
     </g>
     <g id="text_3">
      <!-- 4 -->
      <g transform="translate(225.452675 318.861344)scale(0.17 -0.17)">
       <defs>
        <path d="M 2419 4116 
L 825 1625 
L 2419 1625 
L 2419 4116 
z
M 2253 4666 
L 3047 4666 
L 3047 1625 
L 3713 1625 
L 3713 1100 
L 3047 1100 
L 3047 0 
L 2419 0 
L 2419 1100 
L 313 1100 
L 313 1709 
L 2253 4666 
z
" id="DejaVuSans-34" transform="scale(0.015625)"/>
       </defs>
       <use xlink:href="#DejaVuSans-34"/>
      </g>
     </g>
    </g>
    <g id="xtick_4">
     <g id="line2d_11">
      <path clip-path="url(#pc6af95153a)" d="M 317.4912 298.944 
L 317.4912 27.648 
" style="fill:none;stroke:#b0b0b0;stroke-linecap:square;stroke-width:0.8;"/>
     </g>
     <g id="line2d_12">
      <g>
       <use style="stroke:#000000;stroke-width:0.8;" x="317.4912" xlink:href="#m5aede2e84e" y="298.944"/>
      </g>
     </g>
     <g id="text_4">
      <!-- 6 -->
      <g transform="translate(312.083075 318.861344)scale(0.17 -0.17)">
       <defs>
        <path d="M 2113 2584 
Q 1688 2584 1439 2293 
Q 1191 2003 1191 1497 
Q 1191 994 1439 701 
Q 1688 409 2113 409 
Q 2538 409 2786 701 
Q 3034 994 3034 1497 
Q 3034 2003 2786 2293 
Q 2538 2584 2113 2584 
z
M 3366 4563 
L 3366 3988 
Q 3128 4100 2886 4159 
Q 2644 4219 2406 4219 
Q 1781 4219 1451 3797 
Q 1122 3375 1075 2522 
Q 1259 2794 1537 2939 
Q 1816 3084 2150 3084 
Q 2853 3084 3261 2657 
Q 3669 2231 3669 1497 
Q 3669 778 3244 343 
Q 2819 -91 2113 -91 
Q 1303 -91 875 529 
Q 447 1150 447 2328 
Q 447 3434 972 4092 
Q 1497 4750 2381 4750 
Q 2619 4750 2861 4703 
Q 3103 4656 3366 4563 
z
" id="DejaVuSans-36" transform="scale(0.015625)"/>
       </defs>
       <use xlink:href="#DejaVuSans-36"/>
      </g>
     </g>
    </g>
    <g id="xtick_5">
     <g id="line2d_13">
      <path clip-path="url(#pc6af95153a)" d="M 100.9152 298.944 
L 100.9152 27.648 
" style="fill:none;stroke:#b0b0b0;stroke-linecap:square;stroke-width:0.8;"/>
     </g>
     <g id="line2d_14">
      <defs>
       <path d="M 0 0 
L 0 2 
" id="m4c5cf73602" style="stroke:#000000;stroke-width:0.6;"/>
      </defs>
      <g>
       <use style="stroke:#000000;stroke-width:0.6;" x="100.9152" xlink:href="#m4c5cf73602" y="298.944"/>
      </g>
     </g>
    </g>
    <g id="xtick_6">
     <g id="line2d_15">
      <path clip-path="url(#pc6af95153a)" d="M 187.5456 298.944 
L 187.5456 27.648 
" style="fill:none;stroke:#b0b0b0;stroke-linecap:square;stroke-width:0.8;"/>
     </g>
     <g id="line2d_16">
      <g>
       <use style="stroke:#000000;stroke-width:0.6;" x="187.5456" xlink:href="#m4c5cf73602" y="298.944"/>
      </g>
     </g>
    </g>
    <g id="xtick_7">
     <g id="line2d_17">
      <path clip-path="url(#pc6af95153a)" d="M 274.176 298.944 
L 274.176 27.648 
" style="fill:none;stroke:#b0b0b0;stroke-linecap:square;stroke-width:0.8;"/>
     </g>
     <g id="line2d_18">
      <g>
       <use style="stroke:#000000;stroke-width:0.6;" x="274.176" xlink:href="#m4c5cf73602" y="298.944"/>
      </g>
     </g>
    </g>
    <g id="xtick_8">
     <g id="line2d_19">
      <path clip-path="url(#pc6af95153a)" d="M 360.8064 298.944 
L 360.8064 27.648 
" style="fill:none;stroke:#b0b0b0;stroke-linecap:square;stroke-width:0.8;"/>
     </g>
     <g id="line2d_20">
      <g>
       <use style="stroke:#000000;stroke-width:0.6;" x="360.8064" xlink:href="#m4c5cf73602" y="298.944"/>
      </g>
     </g>
    </g>
    <g id="text_5">
     <!-- log10(# f-evals / dimension) -->
     <g transform="translate(88.823278 339.314156)scale(0.17 -0.17)">
      <defs>
       <path d="M 603 4863 
L 1178 4863 
L 1178 0 
L 603 0 
L 603 4863 
z
" id="DejaVuSans-6c" transform="scale(0.015625)"/>
       <path d="M 1959 3097 
Q 1497 3097 1228 2736 
Q 959 2375 959 1747 
Q 959 1119 1226 758 
Q 1494 397 1959 397 
Q 2419 397 2687 759 
Q 2956 1122 2956 1747 
Q 2956 2369 2687 2733 
Q 2419 3097 1959 3097 
z
M 1959 3584 
Q 2709 3584 3137 3096 
Q 3566 2609 3566 1747 
Q 3566 888 3137 398 
Q 2709 -91 1959 -91 
Q 1206 -91 779 398 
Q 353 888 353 1747 
Q 353 2609 779 3096 
Q 1206 3584 1959 3584 
z
" id="DejaVuSans-6f" transform="scale(0.015625)"/>
       <path d="M 2906 1791 
Q 2906 2416 2648 2759 
Q 2391 3103 1925 3103 
Q 1463 3103 1205 2759 
Q 947 2416 947 1791 
Q 947 1169 1205 825 
Q 1463 481 1925 481 
Q 2391 481 2648 825 
Q 2906 1169 2906 1791 
z
M 3481 434 
Q 3481 -459 3084 -895 
Q 2688 -1331 1869 -1331 
Q 1566 -1331 1297 -1286 
Q 1028 -1241 775 -1147 
L 775 -588 
Q 1028 -725 1275 -790 
Q 1522 -856 1778 -856 
Q 2344 -856 2625 -561 
Q 2906 -266 2906 331 
L 2906 616 
Q 2728 306 2450 153 
Q 2172 0 1784 0 
Q 1141 0 747 490 
Q 353 981 353 1791 
Q 353 2603 747 3093 
Q 1141 3584 1784 3584 
Q 2172 3584 2450 3431 
Q 2728 3278 2906 2969 
L 2906 3500 
L 3481 3500 
L 3481 434 
z
" id="DejaVuSans-67" transform="scale(0.015625)"/>
       <path d="M 794 531 
L 1825 531 
L 1825 4091 
L 703 3866 
L 703 4441 
L 1819 4666 
L 2450 4666 
L 2450 531 
L 3481 531 
L 3481 0 
L 794 0 
L 794 531 
z
" id="DejaVuSans-31" transform="scale(0.015625)"/>
       <path d="M 1984 4856 
Q 1566 4138 1362 3434 
Q 1159 2731 1159 2009 
Q 1159 1288 1364 580 
Q 1569 -128 1984 -844 
L 1484 -844 
Q 1016 -109 783 600 
Q 550 1309 550 2009 
Q 550 2706 781 3412 
Q 1013 4119 1484 4856 
L 1984 4856 
z
" id="DejaVuSans-28" transform="scale(0.015625)"/>
       <path d="M 3272 2816 
L 2363 2816 
L 2100 1772 
L 3016 1772 
L 3272 2816 
z
M 2803 4594 
L 2478 3297 
L 3391 3297 
L 3719 4594 
L 4219 4594 
L 3897 3297 
L 4872 3297 
L 4872 2816 
L 3775 2816 
L 3519 1772 
L 4513 1772 
L 4513 1294 
L 3397 1294 
L 3072 0 
L 2572 0 
L 2894 1294 
L 1978 1294 
L 1656 0 
L 1153 0 
L 1478 1294 
L 494 1294 
L 494 1772 
L 1594 1772 
L 1856 2816 
L 850 2816 
L 850 3297 
L 1978 3297 
L 2297 4594 
L 2803 4594 
z
" id="DejaVuSans-23" transform="scale(0.015625)"/>
       <path id="DejaVuSans-20" transform="scale(0.015625)"/>
       <path d="M 2375 4863 
L 2375 4384 
L 1825 4384 
Q 1516 4384 1395 4259 
Q 1275 4134 1275 3809 
L 1275 3500 
L 2222 3500 
L 2222 3053 
L 1275 3053 
L 1275 0 
L 697 0 
L 697 3053 
L 147 3053 
L 147 3500 
L 697 3500 
L 697 3744 
Q 697 4328 969 4595 
Q 1241 4863 1831 4863 
L 2375 4863 
z
" id="DejaVuSans-66" transform="scale(0.015625)"/>
       <path d="M 313 2009 
L 1997 2009 
L 1997 1497 
L 313 1497 
L 313 2009 
z
" id="DejaVuSans-2d" transform="scale(0.015625)"/>
       <path d="M 3597 1894 
L 3597 1613 
L 953 1613 
Q 991 1019 1311 708 
Q 1631 397 2203 397 
Q 2534 397 2845 478 
Q 3156 559 3463 722 
L 3463 178 
Q 3153 47 2828 -22 
Q 2503 -91 2169 -91 
Q 1331 -91 842 396 
Q 353 884 353 1716 
Q 353 2575 817 3079 
Q 1281 3584 2069 3584 
Q 2775 3584 3186 3129 
Q 3597 2675 3597 1894 
z
M 3022 2063 
Q 3016 2534 2758 2815 
Q 2500 3097 2075 3097 
Q 1594 3097 1305 2825 
Q 1016 2553 972 2059 
L 3022 2063 
z
" id="DejaVuSans-65" transform="scale(0.015625)"/>
       <path d="M 191 3500 
L 800 3500 
L 1894 563 
L 2988 3500 
L 3597 3500 
L 2284 0 
L 1503 0 
L 191 3500 
z
" id="DejaVuSans-76" transform="scale(0.015625)"/>
       <path d="M 2194 1759 
Q 1497 1759 1228 1600 
Q 959 1441 959 1056 
Q 959 750 1161 570 
Q 1363 391 1709 391 
Q 2188 391 2477 730 
Q 2766 1069 2766 1631 
L 2766 1759 
L 2194 1759 
z
M 3341 1997 
L 3341 0 
L 2766 0 
L 2766 531 
Q 2569 213 2275 61 
Q 1981 -91 1556 -91 
Q 1019 -91 701 211 
Q 384 513 384 1019 
Q 384 1609 779 1909 
Q 1175 2209 1959 2209 
L 2766 2209 
L 2766 2266 
Q 2766 2663 2505 2880 
Q 2244 3097 1772 3097 
Q 1472 3097 1187 3025 
Q 903 2953 641 2809 
L 641 3341 
Q 956 3463 1253 3523 
Q 1550 3584 1831 3584 
Q 2591 3584 2966 3190 
Q 3341 2797 3341 1997 
z
" id="DejaVuSans-61" transform="scale(0.015625)"/>
       <path d="M 2834 3397 
L 2834 2853 
Q 2591 2978 2328 3040 
Q 2066 3103 1784 3103 
Q 1356 3103 1142 2972 
Q 928 2841 928 2578 
Q 928 2378 1081 2264 
Q 1234 2150 1697 2047 
L 1894 2003 
Q 2506 1872 2764 1633 
Q 3022 1394 3022 966 
Q 3022 478 2636 193 
Q 2250 -91 1575 -91 
Q 1294 -91 989 -36 
Q 684 19 347 128 
L 347 722 
Q 666 556 975 473 
Q 1284 391 1588 391 
Q 1994 391 2212 530 
Q 2431 669 2431 922 
Q 2431 1156 2273 1281 
Q 2116 1406 1581 1522 
L 1381 1569 
Q 847 1681 609 1914 
Q 372 2147 372 2553 
Q 372 3047 722 3315 
Q 1072 3584 1716 3584 
Q 2034 3584 2315 3537 
Q 2597 3491 2834 3397 
z
" id="DejaVuSans-73" transform="scale(0.015625)"/>
       <path d="M 1625 4666 
L 2156 4666 
L 531 -594 
L 0 -594 
L 1625 4666 
z
" id="DejaVuSans-2f" transform="scale(0.015625)"/>
       <path d="M 2906 2969 
L 2906 4863 
L 3481 4863 
L 3481 0 
L 2906 0 
L 2906 525 
Q 2725 213 2448 61 
Q 2172 -91 1784 -91 
Q 1150 -91 751 415 
Q 353 922 353 1747 
Q 353 2572 751 3078 
Q 1150 3584 1784 3584 
Q 2172 3584 2448 3432 
Q 2725 3281 2906 2969 
z
M 947 1747 
Q 947 1113 1208 752 
Q 1469 391 1925 391 
Q 2381 391 2643 752 
Q 2906 1113 2906 1747 
Q 2906 2381 2643 2742 
Q 2381 3103 1925 3103 
Q 1469 3103 1208 2742 
Q 947 2381 947 1747 
z
" id="DejaVuSans-64" transform="scale(0.015625)"/>
       <path d="M 603 3500 
L 1178 3500 
L 1178 0 
L 603 0 
L 603 3500 
z
M 603 4863 
L 1178 4863 
L 1178 4134 
L 603 4134 
L 603 4863 
z
" id="DejaVuSans-69" transform="scale(0.015625)"/>
       <path d="M 3328 2828 
Q 3544 3216 3844 3400 
Q 4144 3584 4550 3584 
Q 5097 3584 5394 3201 
Q 5691 2819 5691 2113 
L 5691 0 
L 5113 0 
L 5113 2094 
Q 5113 2597 4934 2840 
Q 4756 3084 4391 3084 
Q 3944 3084 3684 2787 
Q 3425 2491 3425 1978 
L 3425 0 
L 2847 0 
L 2847 2094 
Q 2847 2600 2669 2842 
Q 2491 3084 2119 3084 
Q 1678 3084 1418 2786 
Q 1159 2488 1159 1978 
L 1159 0 
L 581 0 
L 581 3500 
L 1159 3500 
L 1159 2956 
Q 1356 3278 1631 3431 
Q 1906 3584 2284 3584 
Q 2666 3584 2933 3390 
Q 3200 3197 3328 2828 
z
" id="DejaVuSans-6d" transform="scale(0.015625)"/>
       <path d="M 3513 2113 
L 3513 0 
L 2938 0 
L 2938 2094 
Q 2938 2591 2744 2837 
Q 2550 3084 2163 3084 
Q 1697 3084 1428 2787 
Q 1159 2491 1159 1978 
L 1159 0 
L 581 0 
L 581 3500 
L 1159 3500 
L 1159 2956 
Q 1366 3272 1645 3428 
Q 1925 3584 2291 3584 
Q 2894 3584 3203 3211 
Q 3513 2838 3513 2113 
z
" id="DejaVuSans-6e" transform="scale(0.015625)"/>
       <path d="M 513 4856 
L 1013 4856 
Q 1481 4119 1714 3412 
Q 1947 2706 1947 2009 
Q 1947 1309 1714 600 
Q 1481 -109 1013 -844 
L 513 -844 
Q 928 -128 1133 580 
Q 1338 1288 1338 2009 
Q 1338 2731 1133 3434 
Q 928 4138 513 4856 
z
" id="DejaVuSans-29" transform="scale(0.015625)"/>
      </defs>
      <use xlink:href="#DejaVuSans-6c"/>
      <use x="27.783203" xlink:href="#DejaVuSans-6f"/>
      <use x="88.964844" xlink:href="#DejaVuSans-67"/>
      <use x="152.441406" xlink:href="#DejaVuSans-31"/>
      <use x="216.064453" xlink:href="#DejaVuSans-30"/>
      <use x="279.6875" xlink:href="#DejaVuSans-28"/>
      <use x="318.701172" xlink:href="#DejaVuSans-23"/>
      <use x="402.490234" xlink:href="#DejaVuSans-20"/>
      <use x="434.277344" xlink:href="#DejaVuSans-66"/>
      <use x="463.982422" xlink:href="#DejaVuSans-2d"/>
      <use x="500.066406" xlink:href="#DejaVuSans-65"/>
      <use x="561.589844" xlink:href="#DejaVuSans-76"/>
      <use x="620.769531" xlink:href="#DejaVuSans-61"/>
      <use x="682.048828" xlink:href="#DejaVuSans-6c"/>
      <use x="709.832031" xlink:href="#DejaVuSans-73"/>
      <use x="761.931641" xlink:href="#DejaVuSans-20"/>
      <use x="793.71875" xlink:href="#DejaVuSans-2f"/>
      <use x="827.410156" xlink:href="#DejaVuSans-20"/>
      <use x="859.197266" xlink:href="#DejaVuSans-64"/>
      <use x="922.673828" xlink:href="#DejaVuSans-69"/>
      <use x="950.457031" xlink:href="#DejaVuSans-6d"/>
      <use x="1047.869141" xlink:href="#DejaVuSans-65"/>
      <use x="1109.392578" xlink:href="#DejaVuSans-6e"/>
      <use x="1172.771484" xlink:href="#DejaVuSans-73"/>
      <use x="1224.871094" xlink:href="#DejaVuSans-69"/>
      <use x="1252.654297" xlink:href="#DejaVuSans-6f"/>
      <use x="1313.835938" xlink:href="#DejaVuSans-6e"/>
      <use x="1377.214844" xlink:href="#DejaVuSans-29"/>
     </g>
    </g>
   </g>
   <g id="matplotlib.axis_2">
    <g id="ytick_1">
     <g id="line2d_21">
      <path clip-path="url(#pc6af95153a)" d="M 57.6 298.944 
L 360.8064 298.944 
" style="fill:none;stroke:#b0b0b0;stroke-linecap:square;stroke-width:0.8;"/>
     </g>
     <g id="line2d_22">
      <defs>
       <path d="M 0 0 
L -3.5 0 
" id="m7571e14601" style="stroke:#000000;stroke-width:0.8;"/>
      </defs>
      <g>
       <use style="stroke:#000000;stroke-width:0.8;" x="57.6" xlink:href="#m7571e14601" y="298.944"/>
      </g>
     </g>
     <g id="text_6">
      <!-- 0.0 -->
      <g transform="translate(25.155 305.02275)scale(0.16 -0.16)">
       <defs>
        <path d="M 684 794 
L 1344 794 
L 1344 0 
L 684 0 
L 684 794 
z
" id="DejaVuSans-2e" transform="scale(0.015625)"/>
       </defs>
       <use xlink:href="#DejaVuSans-30"/>
       <use x="63.623047" xlink:href="#DejaVuSans-2e"/>
       <use x="95.410156" xlink:href="#DejaVuSans-30"/>
      </g>
     </g>
    </g>
    <g id="ytick_2">
     <g id="line2d_23">
      <path clip-path="url(#pc6af95153a)" d="M 57.6 244.6848 
L 360.8064 244.6848 
" style="fill:none;stroke:#b0b0b0;stroke-linecap:square;stroke-width:0.8;"/>
     </g>
     <g id="line2d_24">
      <g>
       <use style="stroke:#000000;stroke-width:0.8;" x="57.6" xlink:href="#m7571e14601" y="244.6848"/>
      </g>
     </g>
     <g id="text_7">
      <!-- 0.2 -->
      <g transform="translate(25.155 250.76355)scale(0.16 -0.16)">
       <use xlink:href="#DejaVuSans-30"/>
       <use x="63.623047" xlink:href="#DejaVuSans-2e"/>
       <use x="95.410156" xlink:href="#DejaVuSans-32"/>
      </g>
     </g>
    </g>
    <g id="ytick_3">
     <g id="line2d_25">
      <path clip-path="url(#pc6af95153a)" d="M 57.6 190.4256 
L 360.8064 190.4256 
" style="fill:none;stroke:#b0b0b0;stroke-linecap:square;stroke-width:0.8;"/>
     </g>
     <g id="line2d_26">
      <g>
       <use style="stroke:#000000;stroke-width:0.8;" x="57.6" xlink:href="#m7571e14601" y="190.4256"/>
      </g>
     </g>
     <g id="text_8">
      <!-- 0.4 -->
      <g transform="translate(25.155 196.50435)scale(0.16 -0.16)">
       <use xlink:href="#DejaVuSans-30"/>
       <use x="63.623047" xlink:href="#DejaVuSans-2e"/>
       <use x="95.410156" xlink:href="#DejaVuSans-34"/>
      </g>
     </g>
    </g>
    <g id="ytick_4">
     <g id="line2d_27">
      <path clip-path="url(#pc6af95153a)" d="M 57.6 136.1664 
L 360.8064 136.1664 
" style="fill:none;stroke:#b0b0b0;stroke-linecap:square;stroke-width:0.8;"/>
     </g>
     <g id="line2d_28">
      <g>
       <use style="stroke:#000000;stroke-width:0.8;" x="57.6" xlink:href="#m7571e14601" y="136.1664"/>
      </g>
     </g>
     <g id="text_9">
      <!-- 0.6 -->
      <g transform="translate(25.155 142.24515)scale(0.16 -0.16)">
       <use xlink:href="#DejaVuSans-30"/>
       <use x="63.623047" xlink:href="#DejaVuSans-2e"/>
       <use x="95.410156" xlink:href="#DejaVuSans-36"/>
      </g>
     </g>
    </g>
    <g id="ytick_5">
     <g id="line2d_29">
      <path clip-path="url(#pc6af95153a)" d="M 57.6 81.9072 
L 360.8064 81.9072 
" style="fill:none;stroke:#b0b0b0;stroke-linecap:square;stroke-width:0.8;"/>
     </g>
     <g id="line2d_30">
      <g>
       <use style="stroke:#000000;stroke-width:0.8;" x="57.6" xlink:href="#m7571e14601" y="81.9072"/>
      </g>
     </g>
     <g id="text_10">
      <!-- 0.8 -->
      <g transform="translate(25.155 87.98595)scale(0.16 -0.16)">
       <defs>
        <path d="M 2034 2216 
Q 1584 2216 1326 1975 
Q 1069 1734 1069 1313 
Q 1069 891 1326 650 
Q 1584 409 2034 409 
Q 2484 409 2743 651 
Q 3003 894 3003 1313 
Q 3003 1734 2745 1975 
Q 2488 2216 2034 2216 
z
M 1403 2484 
Q 997 2584 770 2862 
Q 544 3141 544 3541 
Q 544 4100 942 4425 
Q 1341 4750 2034 4750 
Q 2731 4750 3128 4425 
Q 3525 4100 3525 3541 
Q 3525 3141 3298 2862 
Q 3072 2584 2669 2484 
Q 3125 2378 3379 2068 
Q 3634 1759 3634 1313 
Q 3634 634 3220 271 
Q 2806 -91 2034 -91 
Q 1263 -91 848 271 
Q 434 634 434 1313 
Q 434 1759 690 2068 
Q 947 2378 1403 2484 
z
M 1172 3481 
Q 1172 3119 1398 2916 
Q 1625 2713 2034 2713 
Q 2441 2713 2670 2916 
Q 2900 3119 2900 3481 
Q 2900 3844 2670 4047 
Q 2441 4250 2034 4250 
Q 1625 4250 1398 4047 
Q 1172 3844 1172 3481 
z
" id="DejaVuSans-38" transform="scale(0.015625)"/>
       </defs>
       <use xlink:href="#DejaVuSans-30"/>
       <use x="63.623047" xlink:href="#DejaVuSans-2e"/>
       <use x="95.410156" xlink:href="#DejaVuSans-38"/>
      </g>
     </g>
    </g>
    <g id="ytick_6">
     <g id="line2d_31">
      <path clip-path="url(#pc6af95153a)" d="M 57.6 27.648 
L 360.8064 27.648 
" style="fill:none;stroke:#b0b0b0;stroke-linecap:square;stroke-width:0.8;"/>
     </g>
     <g id="line2d_32">
      <g>
       <use style="stroke:#000000;stroke-width:0.8;" x="57.6" xlink:href="#m7571e14601" y="27.648"/>
      </g>
     </g>
     <g id="text_11">
      <!-- 1.0 -->
      <g transform="translate(25.155 33.72675)scale(0.16 -0.16)">
       <use xlink:href="#DejaVuSans-31"/>
       <use x="63.623047" xlink:href="#DejaVuSans-2e"/>
       <use x="95.410156" xlink:href="#DejaVuSans-30"/>
      </g>
     </g>
    </g>
    <g id="text_12">
     <!-- Fraction of function,target pairs -->
     <g transform="translate(17.619531 297.681)rotate(-90)scale(0.17 -0.17)">
      <defs>
       <path d="M 628 4666 
L 3309 4666 
L 3309 4134 
L 1259 4134 
L 1259 2759 
L 3109 2759 
L 3109 2228 
L 1259 2228 
L 1259 0 
L 628 0 
L 628 4666 
z
" id="DejaVuSans-46" transform="scale(0.015625)"/>
       <path d="M 2631 2963 
Q 2534 3019 2420 3045 
Q 2306 3072 2169 3072 
Q 1681 3072 1420 2755 
Q 1159 2438 1159 1844 
L 1159 0 
L 581 0 
L 581 3500 
L 1159 3500 
L 1159 2956 
Q 1341 3275 1631 3429 
Q 1922 3584 2338 3584 
Q 2397 3584 2469 3576 
Q 2541 3569 2628 3553 
L 2631 2963 
z
" id="DejaVuSans-72" transform="scale(0.015625)"/>
       <path d="M 3122 3366 
L 3122 2828 
Q 2878 2963 2633 3030 
Q 2388 3097 2138 3097 
Q 1578 3097 1268 2742 
Q 959 2388 959 1747 
Q 959 1106 1268 751 
Q 1578 397 2138 397 
Q 2388 397 2633 464 
Q 2878 531 3122 666 
L 3122 134 
Q 2881 22 2623 -34 
Q 2366 -91 2075 -91 
Q 1284 -91 818 406 
Q 353 903 353 1747 
Q 353 2603 823 3093 
Q 1294 3584 2113 3584 
Q 2378 3584 2631 3529 
Q 2884 3475 3122 3366 
z
" id="DejaVuSans-63" transform="scale(0.015625)"/>
       <path d="M 1172 4494 
L 1172 3500 
L 2356 3500 
L 2356 3053 
L 1172 3053 
L 1172 1153 
Q 1172 725 1289 603 
Q 1406 481 1766 481 
L 2356 481 
L 2356 0 
L 1766 0 
Q 1100 0 847 248 
Q 594 497 594 1153 
L 594 3053 
L 172 3053 
L 172 3500 
L 594 3500 
L 594 4494 
L 1172 4494 
z
" id="DejaVuSans-74" transform="scale(0.015625)"/>
       <path d="M 544 1381 
L 544 3500 
L 1119 3500 
L 1119 1403 
Q 1119 906 1312 657 
Q 1506 409 1894 409 
Q 2359 409 2629 706 
Q 2900 1003 2900 1516 
L 2900 3500 
L 3475 3500 
L 3475 0 
L 2900 0 
L 2900 538 
Q 2691 219 2414 64 
Q 2138 -91 1772 -91 
Q 1169 -91 856 284 
Q 544 659 544 1381 
z
M 1991 3584 
L 1991 3584 
z
" id="DejaVuSans-75" transform="scale(0.015625)"/>
       <path d="M 750 794 
L 1409 794 
L 1409 256 
L 897 -744 
L 494 -744 
L 750 256 
L 750 794 
z
" id="DejaVuSans-2c" transform="scale(0.015625)"/>
       <path d="M 1159 525 
L 1159 -1331 
L 581 -1331 
L 581 3500 
L 1159 3500 
L 1159 2969 
Q 1341 3281 1617 3432 
Q 1894 3584 2278 3584 
Q 2916 3584 3314 3078 
Q 3713 2572 3713 1747 
Q 3713 922 3314 415 
Q 2916 -91 2278 -91 
Q 1894 -91 1617 61 
Q 1341 213 1159 525 
z
M 3116 1747 
Q 3116 2381 2855 2742 
Q 2594 3103 2138 3103 
Q 1681 3103 1420 2742 
Q 1159 2381 1159 1747 
Q 1159 1113 1420 752 
Q 1681 391 2138 391 
Q 2594 391 2855 752 
Q 3116 1113 3116 1747 
z
" id="DejaVuSans-70" transform="scale(0.015625)"/>
      </defs>
      <use xlink:href="#DejaVuSans-46"/>
      <use x="50.269531" xlink:href="#DejaVuSans-72"/>
      <use x="91.382812" xlink:href="#DejaVuSans-61"/>
      <use x="152.662109" xlink:href="#DejaVuSans-63"/>
      <use x="207.642578" xlink:href="#DejaVuSans-74"/>
      <use x="246.851562" xlink:href="#DejaVuSans-69"/>
      <use x="274.634766" xlink:href="#DejaVuSans-6f"/>
      <use x="335.816406" xlink:href="#DejaVuSans-6e"/>
      <use x="399.195312" xlink:href="#DejaVuSans-20"/>
      <use x="430.982422" xlink:href="#DejaVuSans-6f"/>
      <use x="492.164062" xlink:href="#DejaVuSans-66"/>
      <use x="527.369141" xlink:href="#DejaVuSans-20"/>
      <use x="559.15625" xlink:href="#DejaVuSans-66"/>
      <use x="594.361328" xlink:href="#DejaVuSans-75"/>
      <use x="657.740234" xlink:href="#DejaVuSans-6e"/>
      <use x="721.119141" xlink:href="#DejaVuSans-63"/>
      <use x="776.099609" xlink:href="#DejaVuSans-74"/>
      <use x="815.308594" xlink:href="#DejaVuSans-69"/>
      <use x="843.091797" xlink:href="#DejaVuSans-6f"/>
      <use x="904.273438" xlink:href="#DejaVuSans-6e"/>
      <use x="967.652344" xlink:href="#DejaVuSans-2c"/>
      <use x="999.439453" xlink:href="#DejaVuSans-74"/>
      <use x="1038.648438" xlink:href="#DejaVuSans-61"/>
      <use x="1099.927734" xlink:href="#DejaVuSans-72"/>
      <use x="1139.291016" xlink:href="#DejaVuSans-67"/>
      <use x="1202.767578" xlink:href="#DejaVuSans-65"/>
      <use x="1264.291016" xlink:href="#DejaVuSans-74"/>
      <use x="1303.5" xlink:href="#DejaVuSans-20"/>
      <use x="1335.287109" xlink:href="#DejaVuSans-70"/>
      <use x="1398.763672" xlink:href="#DejaVuSans-61"/>
      <use x="1460.042969" xlink:href="#DejaVuSans-69"/>
      <use x="1487.826172" xlink:href="#DejaVuSans-72"/>
      <use x="1528.939453" xlink:href="#DejaVuSans-73"/>
     </g>
    </g>
   </g>
   <g id="line2d_33">
    <defs>
     <path d="M 0 1.5 
C 0.397805 1.5 0.77937 1.341951 1.06066 1.06066 
C 1.341951 0.77937 1.5 0.397805 1.5 0 
C 1.5 -0.397805 1.341951 -0.77937 1.06066 -1.06066 
C 0.77937 -1.341951 0.397805 -1.5 0 -1.5 
C -0.397805 -1.5 -0.77937 -1.341951 -1.06066 -1.06066 
C -1.341951 -0.77937 -1.5 -0.397805 -1.5 0 
C -1.5 0.397805 -1.341951 0.77937 -1.06066 1.06066 
C -0.77937 1.341951 -0.397805 1.5 0 1.5 
z
" id="m3453f9cdda" style="stroke:#f5deb3;"/>
    </defs>
    <g>
     <use style="fill:#f5deb3;stroke:#f5deb3;" x="175.297512" xlink:href="#m3453f9cdda" y="27.648"/>
     <use style="fill:#f5deb3;stroke:#f5deb3;" x="175.297512" xlink:href="#m3453f9cdda" y="27.648"/>
    </g>
   </g>
   <g id="line2d_34">
    <defs>
     <path d="M 0 1.5 
C 0.397805 1.5 0.77937 1.341951 1.06066 1.06066 
C 1.341951 0.77937 1.5 0.397805 1.5 0 
C 1.5 -0.397805 1.341951 -0.77937 1.06066 -1.06066 
C 0.77937 -1.341951 0.397805 -1.5 0 -1.5 
C -0.397805 -1.5 -0.77937 -1.341951 -1.06066 -1.06066 
C -1.341951 -0.77937 -1.5 -0.397805 -1.5 0 
C -1.5 0.397805 -1.341951 0.77937 -1.06066 1.06066 
C -0.77937 1.341951 -0.397805 1.5 0 1.5 
z
" id="m63f6a65a32" style="stroke:#000080;"/>
    </defs>
    <g>
     <use style="fill:#000080;stroke:#000080;" x="226.590028" xlink:href="#m63f6a65a32" y="277.665882"/>
     <use style="fill:#000080;stroke:#000080;" x="226.590028" xlink:href="#m63f6a65a32" y="277.665882"/>
    </g>
   </g>
   <g id="line2d_35">
    <path d="M 176.388927 298.944 
L 176.388927 298.589365 
L 176.912599 298.589365 
L 176.912599 298.234729 
L 177.655844 298.234729 
L 177.655844 297.880094 
L 178.004246 297.880094 
L 178.004246 297.525459 
L 178.380025 297.525459 
L 178.380025 297.170824 
L 178.499072 297.170824 
L 178.499072 296.816188 
L 179.724121 296.816188 
L 179.724121 296.461553 
L 180.323167 296.461553 
L 180.323167 296.106918 
L 181.015853 296.106918 
L 181.015853 295.752282 
L 181.223652 295.752282 
L 181.223652 295.397647 
L 181.390081 295.397647 
L 181.390081 295.043012 
L 181.504544 295.043012 
L 181.504544 294.688376 
L 181.540818 294.688376 
L 181.540818 294.333741 
L 181.573147 294.333741 
L 181.573147 293.979106 
L 181.822149 293.979106 
L 181.822149 293.624471 
L 182.023798 293.624471 
L 182.023798 293.269835 
L 182.244516 293.269835 
L 182.244516 292.9152 
L 182.345232 292.9152 
L 182.345232 292.560565 
L 183.547323 292.560565 
L 183.547323 292.205929 
L 183.560116 292.205929 
L 183.560116 291.851294 
L 183.808415 291.851294 
L 183.808415 291.496659 
L 184.017206 291.496659 
L 184.017206 291.142024 
L 184.361237 291.142024 
L 184.361237 290.787388 
L 184.530921 290.787388 
L 184.530921 290.432753 
L 184.58164 290.432753 
L 184.58164 290.078118 
L 184.79949 290.078118 
L 184.79949 289.723482 
L 185.184094 289.723482 
L 185.184094 289.368847 
L 185.289371 289.368847 
L 185.289371 289.014212 
L 185.304211 289.014212 
L 185.304211 288.659576 
L 185.546353 288.659576 
L 185.546353 288.304941 
L 185.602755 288.304941 
L 185.602755 287.950306 
L 185.783352 287.950306 
L 185.783352 287.595671 
L 185.934586 287.595671 
L 185.934586 287.241035 
L 185.936636 287.241035 
L 185.936636 286.8864 
L 186.178915 286.8864 
L 186.178915 286.531765 
L 186.521691 286.531765 
L 186.521691 286.177129 
L 186.71339 286.177129 
L 186.71339 285.822494 
L 186.845646 285.822494 
L 186.845646 285.467859 
L 186.884655 285.467859 
L 186.884655 285.113224 
L 186.934274 285.113224 
L 186.934274 284.758588 
L 197.323663 284.758588 
L 197.323663 284.403953 
L 197.76314 284.403953 
L 197.76314 284.049318 
L 198.814003 284.049318 
L 198.814003 283.694682 
L 199.166181 283.694682 
L 199.166181 283.340047 
L 199.643368 283.340047 
L 199.643368 282.985412 
L 199.802392 282.985412 
L 199.802392 282.276141 
L 200.261989 282.276141 
L 200.261989 281.921506 
L 206.431008 281.921506 
L 206.431008 281.566871 
L 207.464026 281.566871 
L 207.464026 281.212235 
L 207.593102 281.212235 
L 207.593102 280.148329 
L 207.883436 280.148329 
L 207.883436 279.793694 
L 208.0008 279.793694 
L 208.0008 279.439059 
L 212.71132 279.439059 
L 212.71132 279.084424 
L 212.764315 279.084424 
L 212.764315 278.729788 
L 217.489796 278.729788 
L 217.489796 278.375153 
L 223.893802 278.375153 
L 223.893802 278.020518 
L 226.590028 278.020518 
L 226.590028 277.665882 
L 360.8064 277.665882 
" style="fill:none;stroke:#000080;stroke-linecap:square;stroke-width:1.5;"/>
   </g>
   <g id="line2d_36">
    <defs>
     <path d="M 0 6 
C 1.591219 6 3.117479 5.367802 4.242641 4.242641 
C 5.367802 3.117479 6 1.591219 6 0 
C 6 -1.591219 5.367802 -3.117479 4.242641 -4.242641 
C 3.117479 -5.367802 1.591219 -6 0 -6 
C -1.591219 -6 -3.117479 -5.367802 -4.242641 -4.242641 
C -5.367802 -3.117479 -6 -1.591219 -6 0 
C -6 1.591219 -5.367802 3.117479 -4.242641 4.242641 
C -3.117479 5.367802 -1.591219 6 0 6 
z
" id="m55a6dfc9f0" style="stroke:#000080;stroke-width:1.5;"/>
    </defs>
    <g>
     <use style="fill-opacity:0;stroke:#000080;stroke-width:1.5;" x="226.590028" xlink:href="#m55a6dfc9f0" y="278.020518"/>
     <use style="fill-opacity:0;stroke:#000080;stroke-width:1.5;" x="226.590028" xlink:href="#m55a6dfc9f0" y="277.665882"/>
     <use style="fill-opacity:0;stroke:#000080;stroke-width:1.5;" x="226.590028" xlink:href="#m55a6dfc9f0" y="277.665882"/>
     <use style="fill-opacity:0;stroke:#000080;stroke-width:1.5;" x="360.8064" xlink:href="#m55a6dfc9f0" y="277.665882"/>
    </g>
   </g>
   <g id="line2d_37">
    <path style="fill:none;stroke:#000080;stroke-linecap:square;stroke-width:1.5;"/>
    <g/>
   </g>
   <g id="line2d_38">
    <path clip-path="url(#pc6af95153a)" d="M 187.555003 284.758588 
" style="fill:none;stroke:#000080;stroke-linecap:square;stroke-width:1.5;"/>
    <defs>
     <path d="M -12 12 
L 12 -12 
M -12 -12 
L 12 12 
" id="m04e268294f" style="stroke:#000080;"/>
    </defs>
    <g clip-path="url(#pc6af95153a)">
     <use style="fill:#000080;stroke:#000080;" x="187.555003" xlink:href="#m04e268294f" y="284.758588"/>
    </g>
   </g>
   <g id="line2d_39">
    <defs>
     <path d="M 0 1.5 
C 0.397805 1.5 0.77937 1.341951 1.06066 1.06066 
C 1.341951 0.77937 1.5 0.397805 1.5 0 
C 1.5 -0.397805 1.341951 -0.77937 1.06066 -1.06066 
C 0.77937 -1.341951 0.397805 -1.5 0 -1.5 
C -0.397805 -1.5 -0.77937 -1.341951 -1.06066 -1.06066 
C -1.341951 -0.77937 -1.5 -0.397805 -1.5 0 
C -1.5 0.397805 -1.341951 0.77937 -1.06066 1.06066 
C -0.77937 1.341951 -0.397805 1.5 0 1.5 
z
" id="m16258bdc2b" style="stroke:#ff00ff;"/>
    </defs>
    <g>
     <use style="fill:#ff00ff;stroke:#ff00ff;" x="244.263338" xlink:href="#m16258bdc2b" y="27.648"/>
     <use style="fill:#ff00ff;stroke:#ff00ff;" x="244.263338" xlink:href="#m16258bdc2b" y="27.648"/>
    </g>
   </g>
   <g id="line2d_40">
    <path d="M 135.245388 298.944 
L 135.245388 298.589365 
L 136.612375 298.589365 
L 136.612375 298.234729 
L 137.833935 298.234729 
L 137.833935 297.880094 
L 138.141952 297.880094 
L 138.141952 297.525459 
L 138.980985 297.525459 
L 138.980985 297.170824 
L 139.270921 297.170824 
L 139.338138 296.461553 
L 139.628669 296.461553 
L 139.628669 296.106918 
L 140.520157 296.106918 
L 140.594477 295.043012 
L 140.730917 295.043012 
L 140.82133 294.333741 
L 140.995278 294.333741 
L 140.995278 293.979106 
L 141.458695 293.979106 
L 141.458695 293.624471 
L 141.910969 293.624471 
L 141.910969 293.269835 
L 142.41488 293.269835 
L 142.451101 292.560565 
L 142.880397 292.560565 
L 142.880397 292.205929 
L 143.076431 292.205929 
L 143.121381 291.496659 
L 143.245681 291.496659 
L 143.245681 291.142024 
L 144.041338 291.142024 
L 144.121921 290.432753 
L 144.478016 290.432753 
L 144.478016 290.078118 
L 144.736155 290.078118 
L 144.777313 289.368847 
L 144.986282 289.368847 
L 144.986282 289.014212 
L 145.682511 289.014212 
L 145.743361 288.304941 
L 145.829951 288.304941 
L 145.829951 287.950306 
L 146.562769 287.950306 
L 146.608413 287.241035 
L 146.785784 287.241035 
L 146.785784 286.8864 
L 146.912627 286.8864 
L 147.006187 286.177129 
L 147.107357 286.177129 
L 147.115427 285.467859 
L 147.714939 285.467859 
L 147.714939 285.113224 
L 148.284563 285.113224 
L 148.284563 284.758588 
L 148.536868 284.758588 
L 148.536868 284.403953 
L 148.659905 284.403953 
L 148.659905 284.049318 
L 149.016969 284.049318 
L 149.016969 283.694682 
L 149.331557 283.694682 
L 149.331557 283.340047 
L 149.474449 283.340047 
L 149.552579 282.276141 
L 149.771033 282.276141 
L 149.771033 281.921506 
L 150.179921 281.921506 
L 150.179921 281.566871 
L 150.452162 281.566871 
L 150.516245 280.502965 
L 151.053944 280.502965 
L 151.053944 280.148329 
L 151.32359 280.148329 
L 151.41369 279.439059 
L 151.754079 279.439059 
L 151.788726 278.729788 
L 151.992163 278.729788 
L 152.0388 278.020518 
L 152.165686 278.020518 
L 152.239565 277.311247 
L 152.553378 277.311247 
L 152.553378 276.956612 
L 152.706844 276.956612 
L 152.739781 275.892706 
L 152.915466 275.892706 
L 152.915466 275.538071 
L 153.224124 275.538071 
L 153.224124 275.183435 
L 153.51632 275.183435 
L 153.567922 274.474165 
L 153.699152 274.474165 
L 153.738911 273.764894 
L 154.034453 273.764894 
L 154.118047 273.055624 
L 154.473331 273.055624 
L 154.473331 272.700988 
L 154.728057 272.700988 
L 154.728057 272.346353 
L 154.939501 272.346353 
L 155.040367 271.282447 
L 155.106433 271.282447 
L 155.198537 270.573176 
L 155.759731 270.573176 
L 155.866442 269.863906 
L 155.932199 269.863906 
L 156.015331 269.154635 
L 156.113105 269.154635 
L 156.113105 268.8 
L 156.287334 268.8 
L 156.341759 268.090729 
L 156.59206 268.090729 
L 156.59206 267.736094 
L 156.877529 267.736094 
L 156.942244 267.026824 
L 157.04485 267.026824 
L 157.099504 266.317553 
L 157.170554 266.317553 
L 157.23427 265.608282 
L 157.400797 265.608282 
L 157.400797 265.253647 
L 157.621333 265.253647 
L 157.621333 264.899012 
L 157.786771 264.899012 
L 157.86667 264.189741 
L 158.113345 264.189741 
L 158.113345 263.835106 
L 158.487318 263.835106 
L 158.511547 263.125835 
L 158.658453 263.125835 
L 158.752135 262.061929 
L 158.793381 262.061929 
L 158.802053 261.352659 
L 159.139306 261.352659 
L 159.139306 260.998024 
L 159.428737 260.998024 
L 159.512409 259.934118 
L 159.767393 259.934118 
L 159.83522 259.224847 
L 159.894624 259.224847 
L 159.894624 258.870212 
L 160.029123 258.870212 
L 160.029123 258.515576 
L 160.174762 258.515576 
L 160.174762 258.160941 
L 160.343261 258.160941 
L 160.407056 257.451671 
L 160.510264 257.451671 
L 160.522136 256.7424 
L 160.714996 256.7424 
L 160.798998 255.678494 
L 161.010268 255.678494 
L 161.056469 254.969224 
L 161.31236 254.969224 
L 161.31236 254.614588 
L 161.42959 254.614588 
L 161.506714 253.905318 
L 161.600341 253.905318 
L 161.697222 253.196047 
L 161.889499 253.196047 
L 161.966595 252.132141 
L 162.136193 252.132141 
L 162.136193 251.777506 
L 162.250219 251.777506 
L 162.250219 251.422871 
L 162.363559 251.422871 
L 162.43874 250.7136 
L 162.641304 250.7136 
L 162.706582 250.004329 
L 162.822465 250.004329 
L 162.916749 248.940424 
L 162.963715 248.940424 
L 162.963715 248.585788 
L 163.152135 248.585788 
L 163.229376 247.521882 
L 163.321648 247.521882 
L 163.321648 247.167247 
L 163.472746 247.167247 
L 163.533521 246.457976 
L 163.659508 246.457976 
L 163.659508 246.103341 
L 163.797958 246.103341 
L 163.880872 245.394071 
L 163.953536 245.394071 
L 163.953536 245.039435 
L 164.112741 245.039435 
L 164.210548 243.975529 
L 164.311084 243.975529 
L 164.386941 242.911624 
L 164.544132 242.911624 
L 164.544132 242.556988 
L 164.709524 242.556988 
L 164.816883 241.138447 
L 164.840483 241.138447 
L 164.840483 240.783812 
L 164.962728 240.783812 
L 164.962728 240.429176 
L 165.160084 240.429176 
L 165.160084 240.074541 
L 165.27874 240.074541 
L 165.35539 239.010635 
L 165.524446 239.010635 
L 165.618217 237.946729 
L 165.746019 237.946729 
L 165.852109 236.528188 
L 166.072823 236.528188 
L 166.09637 235.818918 
L 166.213668 235.818918 
L 166.213668 235.464282 
L 166.352015 235.464282 
L 166.352015 235.109647 
L 166.47206 235.109647 
L 166.518139 233.691106 
L 166.776667 233.691106 
L 166.776667 233.336471 
L 166.888401 233.336471 
L 166.917991 232.6272 
L 167.044281 232.6272 
L 167.134966 231.917929 
L 167.16695 231.917929 
L 167.186392 230.854024 
L 167.334325 230.854024 
L 167.414029 230.144753 
L 167.466067 230.144753 
L 167.571072 229.435482 
L 167.63759 229.435482 
L 167.683607 228.371576 
L 167.784719 228.371576 
L 167.837083 227.307671 
L 168.038464 227.307671 
L 168.144288 226.243765 
L 168.186452 226.243765 
L 168.241649 225.534494 
L 168.301917 225.534494 
L 168.37633 224.825224 
L 168.429674 224.825224 
L 168.468611 224.115953 
L 168.719753 224.115953 
L 168.830728 222.342776 
L 168.851067 222.342776 
L 168.851067 221.988141 
L 169.000385 221.988141 
L 169.046963 220.924235 
L 169.179765 220.924235 
L 169.286826 219.860329 
L 169.301717 219.860329 
L 169.301717 219.505694 
L 169.556738 219.505694 
L 169.561632 218.796424 
L 169.670197 218.796424 
L 169.677494 218.087153 
L 169.814385 218.087153 
L 169.814385 217.732518 
L 169.934702 217.732518 
L 170.00294 216.313976 
L 170.162392 216.313976 
L 170.164761 215.604706 
L 170.366271 215.604706 
L 170.421281 214.895435 
L 170.513383 214.895435 
L 170.529658 214.186165 
L 170.629325 214.186165 
L 170.684725 213.122259 
L 170.889892 213.122259 
L 170.889892 212.767624 
L 171.011473 212.767624 
L 171.07705 211.703718 
L 171.126646 211.703718 
L 171.159263 210.639812 
L 171.359346 210.639812 
L 171.393783 209.930541 
L 171.583711 209.930541 
L 171.657178 209.221271 
L 171.700903 209.221271 
L 171.753239 207.802729 
L 171.875876 207.802729 
L 171.928807 206.738824 
L 172.104888 206.738824 
L 172.200822 205.674918 
L 172.293095 205.674918 
L 172.293095 205.320282 
L 172.405964 205.320282 
L 172.501425 204.256376 
L 172.607852 204.256376 
L 172.607852 203.901741 
L 172.761214 203.901741 
L 172.81686 203.192471 
L 172.910264 203.192471 
L 172.983838 201.773929 
L 173.093663 201.773929 
L 173.140247 201.064659 
L 173.236088 201.064659 
L 173.236088 200.710024 
L 173.403392 200.710024 
L 173.413363 200.000753 
L 173.541519 200.000753 
L 173.601817 198.936847 
L 173.689448 198.936847 
L 173.7287 198.227576 
L 173.803054 198.227576 
L 173.877116 196.809035 
L 173.983796 196.809035 
L 173.983796 196.4544 
L 174.122542 196.4544 
L 174.209697 195.035859 
L 174.246926 195.035859 
L 174.275513 194.326588 
L 174.361016 194.326588 
L 174.431973 193.617318 
L 174.585269 193.617318 
L 174.597441 192.908047 
L 174.720594 192.908047 
L 174.816134 191.844141 
L 174.834629 191.844141 
L 174.920394 190.780235 
L 174.946139 190.780235 
L 175.047856 189.361694 
L 175.093495 189.361694 
L 175.202579 188.652424 
L 175.273147 188.652424 
L 175.32725 187.233882 
L 175.393763 187.233882 
L 175.492201 186.169976 
L 175.574138 186.169976 
L 175.683129 184.751435 
L 175.745756 184.751435 
L 175.837117 183.687529 
L 175.864264 183.687529 
L 175.943728 182.268988 
L 175.980291 182.268988 
L 175.980291 181.914353 
L 176.129288 181.914353 
L 176.132739 181.205082 
L 176.247984 181.205082 
L 176.346328 180.141176 
L 176.399136 180.141176 
L 176.480612 178.722635 
L 176.517837 178.722635 
L 176.589542 177.658729 
L 176.648389 177.658729 
L 176.758024 176.949459 
L 176.778874 176.949459 
L 176.807194 175.885553 
L 176.935759 175.885553 
L 176.95311 175.176282 
L 177.1372 175.176282 
L 177.243218 173.403106 
L 177.343789 173.403106 
L 177.449456 171.984565 
L 177.543331 171.984565 
L 177.647887 170.566024 
L 177.678108 170.566024 
L 177.770061 169.856753 
L 177.806401 169.856753 
L 177.911863 168.438212 
L 177.936961 168.438212 
L 177.936961 168.083576 
L 178.098508 168.083576 
L 178.20235 166.3104 
L 178.307158 166.3104 
L 178.393035 165.246494 
L 178.499072 165.246494 
L 178.60754 163.118682 
L 178.638524 163.118682 
L 178.735679 162.409412 
L 178.813642 162.409412 
L 178.909155 161.700141 
L 178.978248 161.700141 
L 179.06186 159.926965 
L 179.214801 159.926965 
L 179.28716 158.863059 
L 179.397718 158.863059 
L 179.49104 157.444518 
L 179.55084 157.444518 
L 179.55084 157.089882 
L 179.687736 157.089882 
L 179.708434 156.380612 
L 179.839233 156.380612 
L 179.857643 155.671341 
L 180.033041 155.671341 
L 180.033041 155.316706 
L 180.223485 155.316706 
L 180.33076 154.2528 
L 180.790923 154.2528 
L 180.833303 153.543529 
L 181.170927 153.543529 
L 181.170927 153.188894 
L 181.463001 153.188894 
L 181.463001 152.834259 
L 205.398126 152.834259 
L 205.464097 151.415718 
L 205.509941 151.415718 
L 205.591566 149.287906 
L 205.63728 149.287906 
L 205.736067 148.224 
L 205.751797 148.224 
L 205.862778 145.386918 
L 205.874852 145.386918 
L 205.982819 142.549835 
L 206.002399 142.549835 
L 206.095608 141.485929 
L 206.131012 141.485929 
L 206.229685 139.358118 
L 206.258578 139.358118 
L 206.312589 137.584941 
L 206.372842 137.584941 
L 206.460282 134.393224 
L 206.542006 134.393224 
L 206.63037 132.265412 
L 206.660186 132.265412 
L 206.767305 130.846871 
L 206.776613 130.846871 
L 206.872808 128.009788 
L 206.932974 128.009788 
L 207.01752 126.236612 
L 207.125784 126.236612 
L 207.225336 123.044894 
L 207.243996 123.044894 
L 207.334222 120.562447 
L 207.415189 120.562447 
L 207.517617 118.434635 
L 207.527374 118.434635 
L 207.6355 114.179012 
L 207.641318 114.179012 
L 207.747187 109.923388 
L 207.829919 109.923388 
L 207.829919 109.568753 
L 207.978751 109.568753 
L 208.032005 108.504847 
L 208.097416 108.504847 
L 208.206558 106.0224 
L 208.219882 106.0224 
L 208.326449 104.249224 
L 208.333147 104.249224 
L 208.43102 101.412141 
L 208.461366 101.412141 
L 208.547799 98.929694 
L 208.575343 98.929694 
L 208.65207 96.447247 
L 208.71002 96.447247 
L 208.819318 92.900894 
L 208.898686 92.900894 
L 208.989606 91.836988 
L 209.010202 91.836988 
L 209.111499 87.581365 
L 209.128379 87.581365 
L 209.17446 86.872094 
L 209.280211 86.872094 
L 209.381984 85.453553 
L 209.420687 85.453553 
L 209.447277 84.744282 
L 209.548006 84.744282 
L 209.548006 84.389647 
L 218.202165 84.389647 
L 218.287417 82.616471 
L 218.317397 82.616471 
L 218.423823 80.843294 
L 218.461225 80.843294 
L 218.559338 77.296941 
L 218.657031 77.296941 
L 218.761826 75.523765 
L 218.798295 75.523765 
L 218.907014 74.105224 
L 218.924763 74.105224 
L 219.004954 72.686682 
L 219.039105 72.686682 
L 219.149601 70.558871 
L 219.196783 70.558871 
L 219.288271 67.721788 
L 219.315657 67.721788 
L 219.424718 65.239341 
L 219.462426 65.239341 
L 219.564127 63.466165 
L 219.601556 63.466165 
L 219.695104 61.338353 
L 219.729895 61.338353 
L 219.788189 60.274447 
L 219.859896 60.274447 
L 219.965603 57.792 
L 220.023256 57.792 
L 220.133377 55.664188 
L 220.155158 55.664188 
L 220.174672 54.954918 
L 220.33056 54.954918 
L 220.403513 53.891012 
L 225.683422 53.891012 
L 225.683422 53.536376 
L 225.832266 53.536376 
L 225.895504 52.472471 
L 225.966647 52.472471 
L 226.03819 50.699294 
L 226.092987 50.699294 
L 226.192101 49.635388 
L 226.239659 49.635388 
L 226.340578 48.216847 
L 226.35839 48.216847 
L 226.427033 46.798306 
L 226.558488 46.798306 
L 226.616743 45.7344 
L 226.702117 45.7344 
L 226.795338 43.606588 
L 226.907084 43.606588 
L 226.907084 43.251953 
L 227.038177 43.251953 
L 227.078415 41.833412 
L 227.180892 41.833412 
L 227.180892 41.478776 
L 231.063713 41.478776 
L 231.167686 40.414871 
L 231.204895 40.414871 
L 231.204895 40.060235 
L 231.441304 40.060235 
L 231.551515 37.577788 
L 231.560217 37.577788 
L 231.574123 36.868518 
L 231.690401 36.868518 
L 231.706234 35.804612 
L 231.820003 35.804612 
L 231.925402 34.386071 
L 231.990307 34.386071 
L 232.095992 32.967529 
L 232.109771 32.967529 
L 232.109771 32.612894 
L 235.417933 32.612894 
L 235.417933 32.258259 
L 235.535202 32.258259 
L 235.591095 30.839718 
L 235.751657 30.839718 
L 235.751657 30.485082 
L 235.869429 30.485082 
L 235.95543 29.775812 
L 238.868183 29.775812 
L 238.868183 29.421176 
L 239.196162 29.421176 
L 239.196162 29.066541 
L 241.779888 29.066541 
L 241.779888 28.711906 
L 241.946567 28.711906 
L 241.946567 28.357271 
L 242.145317 28.357271 
L 242.145317 28.002635 
L 244.263338 28.002635 
L 244.263338 27.648 
L 360.8064 27.648 
L 360.8064 27.648 
" style="fill:none;stroke:#ff00ff;stroke-linecap:square;stroke-width:1.5;"/>
   </g>
   <g id="line2d_41">
    <defs>
     <path d="M -0 8.485281 
L 5.091169 0 
L 0 -8.485281 
L -5.091169 -0 
z
" id="m6e53ab6068" style="stroke:#ff00ff;stroke-linejoin:miter;stroke-width:1.5;"/>
    </defs>
    <g>
     <use style="fill-opacity:0;stroke:#ff00ff;stroke-linejoin:miter;stroke-width:1.5;" x="163.229376" xlink:href="#m6e53ab6068" y="247.876518"/>
     <use style="fill-opacity:0;stroke:#ff00ff;stroke-linejoin:miter;stroke-width:1.5;" x="207.734327" xlink:href="#m6e53ab6068" y="110.632659"/>
     <use style="fill-opacity:0;stroke:#ff00ff;stroke-linejoin:miter;stroke-width:1.5;" x="244.263338" xlink:href="#m6e53ab6068" y="28.002635"/>
     <use style="fill-opacity:0;stroke:#ff00ff;stroke-linejoin:miter;stroke-width:1.5;" x="244.263338" xlink:href="#m6e53ab6068" y="27.648"/>
     <use style="fill-opacity:0;stroke:#ff00ff;stroke-linejoin:miter;stroke-width:1.5;" x="360.8064" xlink:href="#m6e53ab6068" y="27.648"/>
    </g>
   </g>
   <g id="line2d_42">
    <path style="fill:none;stroke:#ff00ff;stroke-linecap:square;stroke-width:1.5;"/>
    <g/>
   </g>
   <g id="line2d_43">
    <path clip-path="url(#pc6af95153a)" d="M 204.838989 152.834259 
" style="fill:none;stroke:#ff00ff;stroke-linecap:square;stroke-width:1.5;"/>
    <defs>
     <path d="M -12 12 
L 12 -12 
M -12 -12 
L 12 12 
" id="m5b30a4f59f" style="stroke:#ff00ff;"/>
    </defs>
    <g clip-path="url(#pc6af95153a)">
     <use style="fill:#ff00ff;stroke:#ff00ff;" x="204.838989" xlink:href="#m5b30a4f59f" y="152.834259"/>
    </g>
   </g>
   <g id="line2d_44">
    <path d="M 360.8064 277.665882 
L 380.514816 293.51808 
" style="fill:none;stroke:#000080;stroke-linecap:square;stroke-width:1.5;"/>
    <g>
     <use style="fill-opacity:0;stroke:#000080;stroke-width:1.5;" x="360.8064" xlink:href="#m55a6dfc9f0" y="277.665882"/>
     <use style="fill-opacity:0;stroke:#000080;stroke-width:1.5;" x="380.514816" xlink:href="#m55a6dfc9f0" y="293.51808"/>
    </g>
   </g>
   <g id="line2d_45">
    <path d="M 360.8064 27.648 
L 380.514816 163.296 
" style="fill:none;stroke:#ff00ff;stroke-linecap:square;stroke-width:1.5;"/>
    <g>
     <use style="fill-opacity:0;stroke:#ff00ff;stroke-linejoin:miter;stroke-width:1.5;" x="360.8064" xlink:href="#m6e53ab6068" y="27.648"/>
     <use style="fill-opacity:0;stroke:#ff00ff;stroke-linejoin:miter;stroke-width:1.5;" x="380.514816" xlink:href="#m6e53ab6068" y="163.296"/>
    </g>
   </g>
   <g id="line2d_46">
    <path d="M 360.8064 298.944 
L 360.8064 27.648 
" style="fill:none;stroke:#000000;stroke-linecap:square;stroke-width:1.5;"/>
   </g>
   <g id="patch_3">
    <path d="M 57.6 298.944 
L 360.8064 298.944 
" style="fill:none;stroke:#000000;stroke-linecap:square;stroke-linejoin:miter;stroke-width:0.8;"/>
   </g>
   <g id="patch_4">
    <path d="M 57.6 27.648 
L 360.8064 27.648 
" style="fill:none;stroke:#000000;stroke-linecap:square;stroke-linejoin:miter;stroke-width:0.8;"/>
   </g>
   <g id="text_13">
    <!-- different -->
    <g transform="translate(386.578944 297.381205)scale(0.14 -0.14)">
     <use xlink:href="#DejaVuSans-64"/>
     <use x="63.476562" xlink:href="#DejaVuSans-69"/>
     <use x="91.259766" xlink:href="#DejaVuSans-66"/>
     <use x="126.464844" xlink:href="#DejaVuSans-66"/>
     <use x="161.669922" xlink:href="#DejaVuSans-65"/>
     <use x="223.193359" xlink:href="#DejaVuSans-72"/>
     <use x="262.056641" xlink:href="#DejaVuSans-65"/>
     <use x="323.580078" xlink:href="#DejaVuSans-6e"/>
     <use x="386.958984" xlink:href="#DejaVuSans-74"/>
    </g>
   </g>
   <g id="text_14">
    <!-- cma.fmin  -->
    <g transform="translate(386.578944 167.159125)scale(0.14 -0.14)">
     <use xlink:href="#DejaVuSans-63"/>
     <use x="54.980469" xlink:href="#DejaVuSans-6d"/>
     <use x="152.392578" xlink:href="#DejaVuSans-61"/>
     <use x="213.671875" xlink:href="#DejaVuSans-2e"/>
     <use x="245.458984" xlink:href="#DejaVuSans-66"/>
     <use x="280.664062" xlink:href="#DejaVuSans-6d"/>
     <use x="378.076172" xlink:href="#DejaVuSans-69"/>
     <use x="405.859375" xlink:href="#DejaVuSans-6e"/>
     <use x="469.238281" xlink:href="#DejaVuSans-20"/>
    </g>
   </g>
   <g id="text_15">
    <!-- best 2009 -->
    <g transform="translate(386.578944 36.937045)scale(0.14 -0.14)">
     <defs>
      <path d="M 3116 1747 
Q 3116 2381 2855 2742 
Q 2594 3103 2138 3103 
Q 1681 3103 1420 2742 
Q 1159 2381 1159 1747 
Q 1159 1113 1420 752 
Q 1681 391 2138 391 
Q 2594 391 2855 752 
Q 3116 1113 3116 1747 
z
M 1159 2969 
Q 1341 3281 1617 3432 
Q 1894 3584 2278 3584 
Q 2916 3584 3314 3078 
Q 3713 2572 3713 1747 
Q 3713 922 3314 415 
Q 2916 -91 2278 -91 
Q 1894 -91 1617 61 
Q 1341 213 1159 525 
L 1159 0 
L 581 0 
L 581 4863 
L 1159 4863 
L 1159 2969 
z
" id="DejaVuSans-62" transform="scale(0.015625)"/>
      <path d="M 703 97 
L 703 672 
Q 941 559 1184 500 
Q 1428 441 1663 441 
Q 2288 441 2617 861 
Q 2947 1281 2994 2138 
Q 2813 1869 2534 1725 
Q 2256 1581 1919 1581 
Q 1219 1581 811 2004 
Q 403 2428 403 3163 
Q 403 3881 828 4315 
Q 1253 4750 1959 4750 
Q 2769 4750 3195 4129 
Q 3622 3509 3622 2328 
Q 3622 1225 3098 567 
Q 2575 -91 1691 -91 
Q 1453 -91 1209 -44 
Q 966 3 703 97 
z
M 1959 2075 
Q 2384 2075 2632 2365 
Q 2881 2656 2881 3163 
Q 2881 3666 2632 3958 
Q 2384 4250 1959 4250 
Q 1534 4250 1286 3958 
Q 1038 3666 1038 3163 
Q 1038 2656 1286 2365 
Q 1534 2075 1959 2075 
z
" id="DejaVuSans-39" transform="scale(0.015625)"/>
     </defs>
     <use xlink:href="#DejaVuSans-62"/>
     <use x="63.476562" xlink:href="#DejaVuSans-65"/>
     <use x="125" xlink:href="#DejaVuSans-73"/>
     <use x="177.099609" xlink:href="#DejaVuSans-74"/>
     <use x="216.308594" xlink:href="#DejaVuSans-20"/>
     <use x="248.095703" xlink:href="#DejaVuSans-32"/>
     <use x="311.71875" xlink:href="#DejaVuSans-30"/>
     <use x="375.341797" xlink:href="#DejaVuSans-30"/>
     <use x="438.964844" xlink:href="#DejaVuSans-39"/>
    </g>
   </g>
   <g id="text_16">
    <!-- bbob f6, 40-D -->
    <g transform="translate(60.632064 38.111366)scale(0.102 -0.102)">
     <defs>
      <path d="M 1259 4147 
L 1259 519 
L 2022 519 
Q 2988 519 3436 956 
Q 3884 1394 3884 2338 
Q 3884 3275 3436 3711 
Q 2988 4147 2022 4147 
L 1259 4147 
z
M 628 4666 
L 1925 4666 
Q 3281 4666 3915 4102 
Q 4550 3538 4550 2338 
Q 4550 1131 3912 565 
Q 3275 0 1925 0 
L 628 0 
L 628 4666 
z
" id="DejaVuSans-44" transform="scale(0.015625)"/>
     </defs>
     <use xlink:href="#DejaVuSans-62"/>
     <use x="63.476562" xlink:href="#DejaVuSans-62"/>
     <use x="126.953125" xlink:href="#DejaVuSans-6f"/>
     <use x="188.134766" xlink:href="#DejaVuSans-62"/>
     <use x="251.611328" xlink:href="#DejaVuSans-20"/>
     <use x="283.398438" xlink:href="#DejaVuSans-66"/>
     <use x="318.603516" xlink:href="#DejaVuSans-36"/>
     <use x="382.226562" xlink:href="#DejaVuSans-2c"/>
     <use x="414.013672" xlink:href="#DejaVuSans-20"/>
     <use x="445.800781" xlink:href="#DejaVuSans-34"/>
     <use x="509.423828" xlink:href="#DejaVuSans-30"/>
     <use x="573.046875" xlink:href="#DejaVuSans-2d"/>
     <use x="609.130859" xlink:href="#DejaVuSans-44"/>
    </g>
    <!-- 51 targets: 100..1e-08 -->
    <g transform="translate(60.632064 49.533135)scale(0.102 -0.102)">
     <defs>
      <path d="M 691 4666 
L 3169 4666 
L 3169 4134 
L 1269 4134 
L 1269 2991 
Q 1406 3038 1543 3061 
Q 1681 3084 1819 3084 
Q 2600 3084 3056 2656 
Q 3513 2228 3513 1497 
Q 3513 744 3044 326 
Q 2575 -91 1722 -91 
Q 1428 -91 1123 -41 
Q 819 9 494 109 
L 494 744 
Q 775 591 1075 516 
Q 1375 441 1709 441 
Q 2250 441 2565 725 
Q 2881 1009 2881 1497 
Q 2881 1984 2565 2268 
Q 2250 2553 1709 2553 
Q 1456 2553 1204 2497 
Q 953 2441 691 2322 
L 691 4666 
z
" id="DejaVuSans-35" transform="scale(0.015625)"/>
      <path d="M 750 794 
L 1409 794 
L 1409 0 
L 750 0 
L 750 794 
z
M 750 3309 
L 1409 3309 
L 1409 2516 
L 750 2516 
L 750 3309 
z
" id="DejaVuSans-3a" transform="scale(0.015625)"/>
     </defs>
     <use xlink:href="#DejaVuSans-35"/>
     <use x="63.623047" xlink:href="#DejaVuSans-31"/>
     <use x="127.246094" xlink:href="#DejaVuSans-20"/>
     <use x="159.033203" xlink:href="#DejaVuSans-74"/>
     <use x="198.242188" xlink:href="#DejaVuSans-61"/>
     <use x="259.521484" xlink:href="#DejaVuSans-72"/>
     <use x="298.884766" xlink:href="#DejaVuSans-67"/>
     <use x="362.361328" xlink:href="#DejaVuSans-65"/>
     <use x="423.884766" xlink:href="#DejaVuSans-74"/>
     <use x="463.09375" xlink:href="#DejaVuSans-73"/>
     <use x="515.193359" xlink:href="#DejaVuSans-3a"/>
     <use x="548.884766" xlink:href="#DejaVuSans-20"/>
     <use x="580.671875" xlink:href="#DejaVuSans-31"/>
     <use x="644.294922" xlink:href="#DejaVuSans-30"/>
     <use x="707.917969" xlink:href="#DejaVuSans-30"/>
     <use x="771.541016" xlink:href="#DejaVuSans-2e"/>
     <use x="803.328125" xlink:href="#DejaVuSans-2e"/>
     <use x="835.115234" xlink:href="#DejaVuSans-31"/>
     <use x="898.738281" xlink:href="#DejaVuSans-65"/>
     <use x="960.261719" xlink:href="#DejaVuSans-2d"/>
     <use x="996.345703" xlink:href="#DejaVuSans-30"/>
     <use x="1059.96875" xlink:href="#DejaVuSans-38"/>
    </g>
    <!-- 15 instances -->
    <g transform="translate(60.632064 60.954904)scale(0.102 -0.102)">
     <use xlink:href="#DejaVuSans-31"/>
     <use x="63.623047" xlink:href="#DejaVuSans-35"/>
     <use x="127.246094" xlink:href="#DejaVuSans-20"/>
     <use x="159.033203" xlink:href="#DejaVuSans-69"/>
     <use x="186.816406" xlink:href="#DejaVuSans-6e"/>
     <use x="250.195312" xlink:href="#DejaVuSans-73"/>
     <use x="302.294922" xlink:href="#DejaVuSans-74"/>
     <use x="341.503906" xlink:href="#DejaVuSans-61"/>
     <use x="402.783203" xlink:href="#DejaVuSans-6e"/>
     <use x="466.162109" xlink:href="#DejaVuSans-63"/>
     <use x="521.142578" xlink:href="#DejaVuSans-65"/>
     <use x="582.666016" xlink:href="#DejaVuSans-73"/>
    </g>
   </g>
   <g id="text_17">
    <!-- v2.6 -->
    <g style="fill:#808080;" transform="translate(198.292262 294.151352)scale(0.1 -0.1)">
     <use xlink:href="#DejaVuSans-76"/>
     <use x="59.179688" xlink:href="#DejaVuSans-32"/>
     <use x="122.802734" xlink:href="#DejaVuSans-2e"/>
     <use x="154.589844" xlink:href="#DejaVuSans-36"/>
    </g>
   </g>
   <g id="text_18">
    <!-- 6 Attractive sector -->
    <g transform="translate(116.45945 21.648)scale(0.2 -0.2)">
     <defs>
      <path d="M 2188 4044 
L 1331 1722 
L 3047 1722 
L 2188 4044 
z
M 1831 4666 
L 2547 4666 
L 4325 0 
L 3669 0 
L 3244 1197 
L 1141 1197 
L 716 0 
L 50 0 
L 1831 4666 
z
" id="DejaVuSans-41" transform="scale(0.015625)"/>
     </defs>
     <use xlink:href="#DejaVuSans-36"/>
     <use x="63.623047" xlink:href="#DejaVuSans-20"/>
     <use x="95.410156" xlink:href="#DejaVuSans-41"/>
     <use x="162.068359" xlink:href="#DejaVuSans-74"/>
     <use x="201.277344" xlink:href="#DejaVuSans-74"/>
     <use x="240.486328" xlink:href="#DejaVuSans-72"/>
     <use x="281.599609" xlink:href="#DejaVuSans-61"/>
     <use x="342.878906" xlink:href="#DejaVuSans-63"/>
     <use x="397.859375" xlink:href="#DejaVuSans-74"/>
     <use x="437.068359" xlink:href="#DejaVuSans-69"/>
     <use x="464.851562" xlink:href="#DejaVuSans-76"/>
     <use x="524.03125" xlink:href="#DejaVuSans-65"/>
     <use x="585.554688" xlink:href="#DejaVuSans-20"/>
     <use x="617.341797" xlink:href="#DejaVuSans-73"/>
     <use x="669.441406" xlink:href="#DejaVuSans-65"/>
     <use x="730.964844" xlink:href="#DejaVuSans-63"/>
     <use x="785.945312" xlink:href="#DejaVuSans-74"/>
     <use x="825.154297" xlink:href="#DejaVuSans-6f"/>
     <use x="886.335938" xlink:href="#DejaVuSans-72"/>
    </g>
   </g>
  </g>
 </g>
 <defs>
  <clipPath id="pc6af95153a">
   <rect height="271.296" width="303.2064" x="57.6" y="27.648"/>
  </clipPath>
 </defs>
</svg>
