<?xml version="1.0" encoding="utf-8" standalone="no"?>
<!DOCTYPE svg PUBLIC "-//W3C//DTD SVG 1.1//EN"
  "http://www.w3.org/Graphics/SVG/1.1/DTD/svg11.dtd">
<svg height="345.6pt" version="1.1" viewBox="0 0 460.8 345.6" width="460.8pt" xmlns="http://www.w3.org/2000/svg" xmlns:xlink="http://www.w3.org/1999/xlink">
 <metadata>
  <rdf:RDF xmlns:cc="http://creativecommons.org/ns#" xmlns:dc="http://purl.org/dc/elements/1.1/" xmlns:rdf="http://www.w3.org/1999/02/22-rdf-syntax-ns#">
   <cc:Work>
    <dc:type rdf:resource="http://purl.org/dc/dcmitype/StillImage"/>
    <dc:date>2022-05-07T15:07:35.088534</dc:date>
    <dc:format>image/svg+xml</dc:format>
    <dc:creator>
     <cc:Agent>
      <dc:title>Matplotlib v3.4.3, https://matplotlib.org/</dc:title>
     </cc:Agent>
    </dc:creator>
   </cc:Work>
  </rdf:RDF>
 </metadata>
 <defs>
  <style type="text/css">*{stroke-linecap:butt;stroke-linejoin:round;}</style>
 </defs>
 <g id="figure_1">
  <g id="patch_1">
   <path d="M 0 345.6 
L 460.8 345.6 
L 460.8 0 
L 0 0 
z
" style="fill:#ffffff;"/>
  </g>
  <g id="axes_1">
   <g id="patch_2">
    <path d="M 57.6 298.944 
L 360.8064 298.944 
L 360.8064 27.648 
L 57.6 27.648 
z
" style="fill:#ffffff;"/>
   </g>
   <g id="line2d_1">
    <path d="M 98.510456 298.944 
L 98.510456 293.624471 
L 102.362957 293.624471 
L 102.362957 288.304941 
L 104.344952 288.304941 
L 104.344952 282.985412 
L 105.559021 282.985412 
L 105.559021 277.665882 
L 106.974091 277.665882 
L 106.974091 272.346353 
L 108.034177 272.346353 
L 108.034177 267.026824 
L 109.990385 267.026824 
L 109.990385 261.707294 
L 119.599808 261.707294 
L 119.599808 256.387765 
L 130.107132 256.387765 
L 130.107132 251.068235 
L 131.783764 251.068235 
L 131.783764 245.748706 
L 132.846847 245.748706 
L 132.846847 240.429176 
L 133.918257 240.429176 
L 133.918257 235.109647 
L 134.87014 235.109647 
L 134.87014 229.790118 
L 135.538796 229.790118 
L 135.538796 224.470588 
L 136.356818 224.470588 
L 136.356818 219.151059 
L 136.752866 219.151059 
L 136.752866 213.831529 
L 137.195511 213.831529 
L 137.195511 208.512 
L 137.734561 208.512 
L 137.734561 203.192471 
L 138.10291 203.192471 
L 138.10291 197.872941 
L 138.310202 197.872941 
L 138.310202 192.553412 
L 138.667556 192.553412 
L 138.667556 187.233882 
L 138.918715 187.233882 
L 138.918715 181.914353 
L 139.117256 181.914353 
L 139.117256 176.594824 
L 139.313723 176.594824 
L 139.313723 171.275294 
L 139.556456 171.275294 
L 139.556456 165.955765 
L 139.604629 165.955765 
L 139.604629 160.636235 
L 139.748412 160.636235 
L 139.748412 155.316706 
L 139.843661 155.316706 
L 139.843661 149.997176 
L 139.93843 149.997176 
L 139.93843 144.677647 
L 139.985636 144.677647 
L 139.985636 139.358118 
L 140.079694 139.358118 
L 140.079694 134.038588 
L 140.26641 134.038588 
L 140.26641 128.719059 
L 140.405242 128.719059 
L 140.405242 123.399529 
L 140.451292 123.399529 
L 140.451292 118.08 
L 140.49723 118.08 
L 140.49723 107.440941 
L 140.58877 107.440941 
L 140.58877 102.121412 
L 140.679868 102.121412 
L 140.679868 91.482353 
L 140.725251 91.482353 
L 140.725251 80.843294 
L 140.815692 80.843294 
L 140.815692 75.523765 
L 140.860749 75.523765 
L 140.860749 70.204235 
L 140.950542 70.204235 
L 140.950542 64.884706 
L 140.995278 64.884706 
L 140.995278 59.565176 
L 141.039908 59.565176 
L 141.039908 54.245647 
L 141.084433 54.245647 
L 141.084433 48.926118 
L 141.128852 48.926118 
L 141.128852 27.648 
L 360.8064 27.648 
" style="fill:none;stroke:#f5deb3;stroke-linecap:square;stroke-width:4;"/>
   </g>
   <g id="line2d_2">
    <defs>
     <path d="M -0 7.778175 
L 7.778175 0 
L 0 -7.778175 
L -7.778175 -0 
z
" id="mc246a6021c" style="stroke:#f5deb3;stroke-linejoin:miter;stroke-width:1.5;"/>
    </defs>
    <g>
     <use style="fill:#f5deb3;stroke:#f5deb3;stroke-linejoin:miter;stroke-width:1.5;" x="140.451292" xlink:href="#mc246a6021c" y="123.399529"/>
     <use style="fill:#f5deb3;stroke:#f5deb3;stroke-linejoin:miter;stroke-width:1.5;" x="141.128852" xlink:href="#mc246a6021c" y="48.926118"/>
     <use style="fill:#f5deb3;stroke:#f5deb3;stroke-linejoin:miter;stroke-width:1.5;" x="141.128852" xlink:href="#mc246a6021c" y="27.648"/>
     <use style="fill:#f5deb3;stroke:#f5deb3;stroke-linejoin:miter;stroke-width:1.5;" x="141.128852" xlink:href="#mc246a6021c" y="27.648"/>
     <use style="fill:#f5deb3;stroke:#f5deb3;stroke-linejoin:miter;stroke-width:1.5;" x="360.8064" xlink:href="#mc246a6021c" y="27.648"/>
    </g>
   </g>
   <g id="line2d_3">
    <path style="fill:none;stroke:#f5deb3;stroke-linecap:square;stroke-width:4;"/>
    <g/>
   </g>
   <g id="line2d_4">
    <path d="M 360.8064 27.648 
L 380.514816 33.07392 
" style="fill:none;stroke:#f5deb3;stroke-linecap:square;stroke-width:4;"/>
    <g>
     <use style="fill:#f5deb3;stroke:#f5deb3;stroke-linejoin:miter;stroke-width:1.5;" x="360.8064" xlink:href="#mc246a6021c" y="27.648"/>
     <use style="fill:#f5deb3;stroke:#f5deb3;stroke-linejoin:miter;stroke-width:1.5;" x="380.514816" xlink:href="#mc246a6021c" y="33.07392"/>
    </g>
   </g>
   <g id="matplotlib.axis_1">
    <g id="xtick_1">
     <g id="line2d_5">
      <path clip-path="url(#pd2abec9024)" d="M 57.6 298.944 
L 57.6 27.648 
" style="fill:none;stroke:#b0b0b0;stroke-linecap:square;stroke-width:0.8;"/>
     </g>
     <g id="line2d_6">
      <defs>
       <path d="M 0 0 
L 0 3.5 
" id="mddbc69d5ee" style="stroke:#000000;stroke-width:0.8;"/>
      </defs>
      <g>
       <use style="stroke:#000000;stroke-width:0.8;" x="57.6" xlink:href="#mddbc69d5ee" y="298.944"/>
      </g>
     </g>
     <g id="text_1">
      <!-- 0 -->
      <g transform="translate(52.191875 318.861344)scale(0.17 -0.17)">
       <defs>
        <path d="M 2034 4250 
Q 1547 4250 1301 3770 
Q 1056 3291 1056 2328 
Q 1056 1369 1301 889 
Q 1547 409 2034 409 
Q 2525 409 2770 889 
Q 3016 1369 3016 2328 
Q 3016 3291 2770 3770 
Q 2525 4250 2034 4250 
z
M 2034 4750 
Q 2819 4750 3233 4129 
Q 3647 3509 3647 2328 
Q 3647 1150 3233 529 
Q 2819 -91 2034 -91 
Q 1250 -91 836 529 
Q 422 1150 422 2328 
Q 422 3509 836 4129 
Q 1250 4750 2034 4750 
z
" id="DejaVuSans-30" transform="scale(0.015625)"/>
       </defs>
       <use xlink:href="#DejaVuSans-30"/>
      </g>
     </g>
    </g>
    <g id="xtick_2">
     <g id="line2d_7">
      <path clip-path="url(#pd2abec9024)" d="M 144.2304 298.944 
L 144.2304 27.648 
" style="fill:none;stroke:#b0b0b0;stroke-linecap:square;stroke-width:0.8;"/>
     </g>
     <g id="line2d_8">
      <g>
       <use style="stroke:#000000;stroke-width:0.8;" x="144.2304" xlink:href="#mddbc69d5ee" y="298.944"/>
      </g>
     </g>
     <g id="text_2">
      <!-- 2 -->
      <g transform="translate(138.822275 318.861344)scale(0.17 -0.17)">
       <defs>
        <path d="M 1228 531 
L 3431 531 
L 3431 0 
L 469 0 
L 469 531 
Q 828 903 1448 1529 
Q 2069 2156 2228 2338 
Q 2531 2678 2651 2914 
Q 2772 3150 2772 3378 
Q 2772 3750 2511 3984 
Q 2250 4219 1831 4219 
Q 1534 4219 1204 4116 
Q 875 4013 500 3803 
L 500 4441 
Q 881 4594 1212 4672 
Q 1544 4750 1819 4750 
Q 2544 4750 2975 4387 
Q 3406 4025 3406 3419 
Q 3406 3131 3298 2873 
Q 3191 2616 2906 2266 
Q 2828 2175 2409 1742 
Q 1991 1309 1228 531 
z
" id="DejaVuSans-32" transform="scale(0.015625)"/>
       </defs>
       <use xlink:href="#DejaVuSans-32"/>
      </g>
     </g>
    </g>
    <g id="xtick_3">
     <g id="line2d_9">
      <path clip-path="url(#pd2abec9024)" d="M 230.8608 298.944 
L 230.8608 27.648 
" style="fill:none;stroke:#b0b0b0;stroke-linecap:square;stroke-width:0.8;"/>
     </g>
     <g id="line2d_10">
      <g>
       <use style="stroke:#000000;stroke-width:0.8;" x="230.8608" xlink:href="#mddbc69d5ee" y="298.944"/>
      </g>
     </g>
     <g id="text_3">
      <!-- 4 -->
      <g transform="translate(225.452675 318.861344)scale(0.17 -0.17)">
       <defs>
        <path d="M 2419 4116 
L 825 1625 
L 2419 1625 
L 2419 4116 
z
M 2253 4666 
L 3047 4666 
L 3047 1625 
L 3713 1625 
L 3713 1100 
L 3047 1100 
L 3047 0 
L 2419 0 
L 2419 1100 
L 313 1100 
L 313 1709 
L 2253 4666 
z
" id="DejaVuSans-34" transform="scale(0.015625)"/>
       </defs>
       <use xlink:href="#DejaVuSans-34"/>
      </g>
     </g>
    </g>
    <g id="xtick_4">
     <g id="line2d_11">
      <path clip-path="url(#pd2abec9024)" d="M 317.4912 298.944 
L 317.4912 27.648 
" style="fill:none;stroke:#b0b0b0;stroke-linecap:square;stroke-width:0.8;"/>
     </g>
     <g id="line2d_12">
      <g>
       <use style="stroke:#000000;stroke-width:0.8;" x="317.4912" xlink:href="#mddbc69d5ee" y="298.944"/>
      </g>
     </g>
     <g id="text_4">
      <!-- 6 -->
      <g transform="translate(312.083075 318.861344)scale(0.17 -0.17)">
       <defs>
        <path d="M 2113 2584 
Q 1688 2584 1439 2293 
Q 1191 2003 1191 1497 
Q 1191 994 1439 701 
Q 1688 409 2113 409 
Q 2538 409 2786 701 
Q 3034 994 3034 1497 
Q 3034 2003 2786 2293 
Q 2538 2584 2113 2584 
z
M 3366 4563 
L 3366 3988 
Q 3128 4100 2886 4159 
Q 2644 4219 2406 4219 
Q 1781 4219 1451 3797 
Q 1122 3375 1075 2522 
Q 1259 2794 1537 2939 
Q 1816 3084 2150 3084 
Q 2853 3084 3261 2657 
Q 3669 2231 3669 1497 
Q 3669 778 3244 343 
Q 2819 -91 2113 -91 
Q 1303 -91 875 529 
Q 447 1150 447 2328 
Q 447 3434 972 4092 
Q 1497 4750 2381 4750 
Q 2619 4750 2861 4703 
Q 3103 4656 3366 4563 
z
" id="DejaVuSans-36" transform="scale(0.015625)"/>
       </defs>
       <use xlink:href="#DejaVuSans-36"/>
      </g>
     </g>
    </g>
    <g id="xtick_5">
     <g id="line2d_13">
      <path clip-path="url(#pd2abec9024)" d="M 100.9152 298.944 
L 100.9152 27.648 
" style="fill:none;stroke:#b0b0b0;stroke-linecap:square;stroke-width:0.8;"/>
     </g>
     <g id="line2d_14">
      <defs>
       <path d="M 0 0 
L 0 2 
" id="mef0dd47e2b" style="stroke:#000000;stroke-width:0.6;"/>
      </defs>
      <g>
       <use style="stroke:#000000;stroke-width:0.6;" x="100.9152" xlink:href="#mef0dd47e2b" y="298.944"/>
      </g>
     </g>
    </g>
    <g id="xtick_6">
     <g id="line2d_15">
      <path clip-path="url(#pd2abec9024)" d="M 187.5456 298.944 
L 187.5456 27.648 
" style="fill:none;stroke:#b0b0b0;stroke-linecap:square;stroke-width:0.8;"/>
     </g>
     <g id="line2d_16">
      <g>
       <use style="stroke:#000000;stroke-width:0.6;" x="187.5456" xlink:href="#mef0dd47e2b" y="298.944"/>
      </g>
     </g>
    </g>
    <g id="xtick_7">
     <g id="line2d_17">
      <path clip-path="url(#pd2abec9024)" d="M 274.176 298.944 
L 274.176 27.648 
" style="fill:none;stroke:#b0b0b0;stroke-linecap:square;stroke-width:0.8;"/>
     </g>
     <g id="line2d_18">
      <g>
       <use style="stroke:#000000;stroke-width:0.6;" x="274.176" xlink:href="#mef0dd47e2b" y="298.944"/>
      </g>
     </g>
    </g>
    <g id="xtick_8">
     <g id="line2d_19">
      <path clip-path="url(#pd2abec9024)" d="M 360.8064 298.944 
L 360.8064 27.648 
" style="fill:none;stroke:#b0b0b0;stroke-linecap:square;stroke-width:0.8;"/>
     </g>
     <g id="line2d_20">
      <g>
       <use style="stroke:#000000;stroke-width:0.6;" x="360.8064" xlink:href="#mef0dd47e2b" y="298.944"/>
      </g>
     </g>
    </g>
    <g id="text_5">
     <!-- log10(# f-evals / dimension) -->
     <g transform="translate(88.823278 339.314156)scale(0.17 -0.17)">
      <defs>
       <path d="M 603 4863 
L 1178 4863 
L 1178 0 
L 603 0 
L 603 4863 
z
" id="DejaVuSans-6c" transform="scale(0.015625)"/>
       <path d="M 1959 3097 
Q 1497 3097 1228 2736 
Q 959 2375 959 1747 
Q 959 1119 1226 758 
Q 1494 397 1959 397 
Q 2419 397 2687 759 
Q 2956 1122 2956 1747 
Q 2956 2369 2687 2733 
Q 2419 3097 1959 3097 
z
M 1959 3584 
Q 2709 3584 3137 3096 
Q 3566 2609 3566 1747 
Q 3566 888 3137 398 
Q 2709 -91 1959 -91 
Q 1206 -91 779 398 
Q 353 888 353 1747 
Q 353 2609 779 3096 
Q 1206 3584 1959 3584 
z
" id="DejaVuSans-6f" transform="scale(0.015625)"/>
       <path d="M 2906 1791 
Q 2906 2416 2648 2759 
Q 2391 3103 1925 3103 
Q 1463 3103 1205 2759 
Q 947 2416 947 1791 
Q 947 1169 1205 825 
Q 1463 481 1925 481 
Q 2391 481 2648 825 
Q 2906 1169 2906 1791 
z
M 3481 434 
Q 3481 -459 3084 -895 
Q 2688 -1331 1869 -1331 
Q 1566 -1331 1297 -1286 
Q 1028 -1241 775 -1147 
L 775 -588 
Q 1028 -725 1275 -790 
Q 1522 -856 1778 -856 
Q 2344 -856 2625 -561 
Q 2906 -266 2906 331 
L 2906 616 
Q 2728 306 2450 153 
Q 2172 0 1784 0 
Q 1141 0 747 490 
Q 353 981 353 1791 
Q 353 2603 747 3093 
Q 1141 3584 1784 3584 
Q 2172 3584 2450 3431 
Q 2728 3278 2906 2969 
L 2906 3500 
L 3481 3500 
L 3481 434 
z
" id="DejaVuSans-67" transform="scale(0.015625)"/>
       <path d="M 794 531 
L 1825 531 
L 1825 4091 
L 703 3866 
L 703 4441 
L 1819 4666 
L 2450 4666 
L 2450 531 
L 3481 531 
L 3481 0 
L 794 0 
L 794 531 
z
" id="DejaVuSans-31" transform="scale(0.015625)"/>
       <path d="M 1984 4856 
Q 1566 4138 1362 3434 
Q 1159 2731 1159 2009 
Q 1159 1288 1364 580 
Q 1569 -128 1984 -844 
L 1484 -844 
Q 1016 -109 783 600 
Q 550 1309 550 2009 
Q 550 2706 781 3412 
Q 1013 4119 1484 4856 
L 1984 4856 
z
" id="DejaVuSans-28" transform="scale(0.015625)"/>
       <path d="M 3272 2816 
L 2363 2816 
L 2100 1772 
L 3016 1772 
L 3272 2816 
z
M 2803 4594 
L 2478 3297 
L 3391 3297 
L 3719 4594 
L 4219 4594 
L 3897 3297 
L 4872 3297 
L 4872 2816 
L 3775 2816 
L 3519 1772 
L 4513 1772 
L 4513 1294 
L 3397 1294 
L 3072 0 
L 2572 0 
L 2894 1294 
L 1978 1294 
L 1656 0 
L 1153 0 
L 1478 1294 
L 494 1294 
L 494 1772 
L 1594 1772 
L 1856 2816 
L 850 2816 
L 850 3297 
L 1978 3297 
L 2297 4594 
L 2803 4594 
z
" id="DejaVuSans-23" transform="scale(0.015625)"/>
       <path id="DejaVuSans-20" transform="scale(0.015625)"/>
       <path d="M 2375 4863 
L 2375 4384 
L 1825 4384 
Q 1516 4384 1395 4259 
Q 1275 4134 1275 3809 
L 1275 3500 
L 2222 3500 
L 2222 3053 
L 1275 3053 
L 1275 0 
L 697 0 
L 697 3053 
L 147 3053 
L 147 3500 
L 697 3500 
L 697 3744 
Q 697 4328 969 4595 
Q 1241 4863 1831 4863 
L 2375 4863 
z
" id="DejaVuSans-66" transform="scale(0.015625)"/>
       <path d="M 313 2009 
L 1997 2009 
L 1997 1497 
L 313 1497 
L 313 2009 
z
" id="DejaVuSans-2d" transform="scale(0.015625)"/>
       <path d="M 3597 1894 
L 3597 1613 
L 953 1613 
Q 991 1019 1311 708 
Q 1631 397 2203 397 
Q 2534 397 2845 478 
Q 3156 559 3463 722 
L 3463 178 
Q 3153 47 2828 -22 
Q 2503 -91 2169 -91 
Q 1331 -91 842 396 
Q 353 884 353 1716 
Q 353 2575 817 3079 
Q 1281 3584 2069 3584 
Q 2775 3584 3186 3129 
Q 3597 2675 3597 1894 
z
M 3022 2063 
Q 3016 2534 2758 2815 
Q 2500 3097 2075 3097 
Q 1594 3097 1305 2825 
Q 1016 2553 972 2059 
L 3022 2063 
z
" id="DejaVuSans-65" transform="scale(0.015625)"/>
       <path d="M 191 3500 
L 800 3500 
L 1894 563 
L 2988 3500 
L 3597 3500 
L 2284 0 
L 1503 0 
L 191 3500 
z
" id="DejaVuSans-76" transform="scale(0.015625)"/>
       <path d="M 2194 1759 
Q 1497 1759 1228 1600 
Q 959 1441 959 1056 
Q 959 750 1161 570 
Q 1363 391 1709 391 
Q 2188 391 2477 730 
Q 2766 1069 2766 1631 
L 2766 1759 
L 2194 1759 
z
M 3341 1997 
L 3341 0 
L 2766 0 
L 2766 531 
Q 2569 213 2275 61 
Q 1981 -91 1556 -91 
Q 1019 -91 701 211 
Q 384 513 384 1019 
Q 384 1609 779 1909 
Q 1175 2209 1959 2209 
L 2766 2209 
L 2766 2266 
Q 2766 2663 2505 2880 
Q 2244 3097 1772 3097 
Q 1472 3097 1187 3025 
Q 903 2953 641 2809 
L 641 3341 
Q 956 3463 1253 3523 
Q 1550 3584 1831 3584 
Q 2591 3584 2966 3190 
Q 3341 2797 3341 1997 
z
" id="DejaVuSans-61" transform="scale(0.015625)"/>
       <path d="M 2834 3397 
L 2834 2853 
Q 2591 2978 2328 3040 
Q 2066 3103 1784 3103 
Q 1356 3103 1142 2972 
Q 928 2841 928 2578 
Q 928 2378 1081 2264 
Q 1234 2150 1697 2047 
L 1894 2003 
Q 2506 1872 2764 1633 
Q 3022 1394 3022 966 
Q 3022 478 2636 193 
Q 2250 -91 1575 -91 
Q 1294 -91 989 -36 
Q 684 19 347 128 
L 347 722 
Q 666 556 975 473 
Q 1284 391 1588 391 
Q 1994 391 2212 530 
Q 2431 669 2431 922 
Q 2431 1156 2273 1281 
Q 2116 1406 1581 1522 
L 1381 1569 
Q 847 1681 609 1914 
Q 372 2147 372 2553 
Q 372 3047 722 3315 
Q 1072 3584 1716 3584 
Q 2034 3584 2315 3537 
Q 2597 3491 2834 3397 
z
" id="DejaVuSans-73" transform="scale(0.015625)"/>
       <path d="M 1625 4666 
L 2156 4666 
L 531 -594 
L 0 -594 
L 1625 4666 
z
" id="DejaVuSans-2f" transform="scale(0.015625)"/>
       <path d="M 2906 2969 
L 2906 4863 
L 3481 4863 
L 3481 0 
L 2906 0 
L 2906 525 
Q 2725 213 2448 61 
Q 2172 -91 1784 -91 
Q 1150 -91 751 415 
Q 353 922 353 1747 
Q 353 2572 751 3078 
Q 1150 3584 1784 3584 
Q 2172 3584 2448 3432 
Q 2725 3281 2906 2969 
z
M 947 1747 
Q 947 1113 1208 752 
Q 1469 391 1925 391 
Q 2381 391 2643 752 
Q 2906 1113 2906 1747 
Q 2906 2381 2643 2742 
Q 2381 3103 1925 3103 
Q 1469 3103 1208 2742 
Q 947 2381 947 1747 
z
" id="DejaVuSans-64" transform="scale(0.015625)"/>
       <path d="M 603 3500 
L 1178 3500 
L 1178 0 
L 603 0 
L 603 3500 
z
M 603 4863 
L 1178 4863 
L 1178 4134 
L 603 4134 
L 603 4863 
z
" id="DejaVuSans-69" transform="scale(0.015625)"/>
       <path d="M 3328 2828 
Q 3544 3216 3844 3400 
Q 4144 3584 4550 3584 
Q 5097 3584 5394 3201 
Q 5691 2819 5691 2113 
L 5691 0 
L 5113 0 
L 5113 2094 
Q 5113 2597 4934 2840 
Q 4756 3084 4391 3084 
Q 3944 3084 3684 2787 
Q 3425 2491 3425 1978 
L 3425 0 
L 2847 0 
L 2847 2094 
Q 2847 2600 2669 2842 
Q 2491 3084 2119 3084 
Q 1678 3084 1418 2786 
Q 1159 2488 1159 1978 
L 1159 0 
L 581 0 
L 581 3500 
L 1159 3500 
L 1159 2956 
Q 1356 3278 1631 3431 
Q 1906 3584 2284 3584 
Q 2666 3584 2933 3390 
Q 3200 3197 3328 2828 
z
" id="DejaVuSans-6d" transform="scale(0.015625)"/>
       <path d="M 3513 2113 
L 3513 0 
L 2938 0 
L 2938 2094 
Q 2938 2591 2744 2837 
Q 2550 3084 2163 3084 
Q 1697 3084 1428 2787 
Q 1159 2491 1159 1978 
L 1159 0 
L 581 0 
L 581 3500 
L 1159 3500 
L 1159 2956 
Q 1366 3272 1645 3428 
Q 1925 3584 2291 3584 
Q 2894 3584 3203 3211 
Q 3513 2838 3513 2113 
z
" id="DejaVuSans-6e" transform="scale(0.015625)"/>
       <path d="M 513 4856 
L 1013 4856 
Q 1481 4119 1714 3412 
Q 1947 2706 1947 2009 
Q 1947 1309 1714 600 
Q 1481 -109 1013 -844 
L 513 -844 
Q 928 -128 1133 580 
Q 1338 1288 1338 2009 
Q 1338 2731 1133 3434 
Q 928 4138 513 4856 
z
" id="DejaVuSans-29" transform="scale(0.015625)"/>
      </defs>
      <use xlink:href="#DejaVuSans-6c"/>
      <use x="27.783203" xlink:href="#DejaVuSans-6f"/>
      <use x="88.964844" xlink:href="#DejaVuSans-67"/>
      <use x="152.441406" xlink:href="#DejaVuSans-31"/>
      <use x="216.064453" xlink:href="#DejaVuSans-30"/>
      <use x="279.6875" xlink:href="#DejaVuSans-28"/>
      <use x="318.701172" xlink:href="#DejaVuSans-23"/>
      <use x="402.490234" xlink:href="#DejaVuSans-20"/>
      <use x="434.277344" xlink:href="#DejaVuSans-66"/>
      <use x="463.982422" xlink:href="#DejaVuSans-2d"/>
      <use x="500.066406" xlink:href="#DejaVuSans-65"/>
      <use x="561.589844" xlink:href="#DejaVuSans-76"/>
      <use x="620.769531" xlink:href="#DejaVuSans-61"/>
      <use x="682.048828" xlink:href="#DejaVuSans-6c"/>
      <use x="709.832031" xlink:href="#DejaVuSans-73"/>
      <use x="761.931641" xlink:href="#DejaVuSans-20"/>
      <use x="793.71875" xlink:href="#DejaVuSans-2f"/>
      <use x="827.410156" xlink:href="#DejaVuSans-20"/>
      <use x="859.197266" xlink:href="#DejaVuSans-64"/>
      <use x="922.673828" xlink:href="#DejaVuSans-69"/>
      <use x="950.457031" xlink:href="#DejaVuSans-6d"/>
      <use x="1047.869141" xlink:href="#DejaVuSans-65"/>
      <use x="1109.392578" xlink:href="#DejaVuSans-6e"/>
      <use x="1172.771484" xlink:href="#DejaVuSans-73"/>
      <use x="1224.871094" xlink:href="#DejaVuSans-69"/>
      <use x="1252.654297" xlink:href="#DejaVuSans-6f"/>
      <use x="1313.835938" xlink:href="#DejaVuSans-6e"/>
      <use x="1377.214844" xlink:href="#DejaVuSans-29"/>
     </g>
    </g>
   </g>
   <g id="matplotlib.axis_2">
    <g id="ytick_1">
     <g id="line2d_21">
      <path clip-path="url(#pd2abec9024)" d="M 57.6 298.944 
L 360.8064 298.944 
" style="fill:none;stroke:#b0b0b0;stroke-linecap:square;stroke-width:0.8;"/>
     </g>
     <g id="line2d_22">
      <defs>
       <path d="M 0 0 
L -3.5 0 
" id="m12751d2090" style="stroke:#000000;stroke-width:0.8;"/>
      </defs>
      <g>
       <use style="stroke:#000000;stroke-width:0.8;" x="57.6" xlink:href="#m12751d2090" y="298.944"/>
      </g>
     </g>
     <g id="text_6">
      <!-- 0.0 -->
      <g transform="translate(25.155 305.02275)scale(0.16 -0.16)">
       <defs>
        <path d="M 684 794 
L 1344 794 
L 1344 0 
L 684 0 
L 684 794 
z
" id="DejaVuSans-2e" transform="scale(0.015625)"/>
       </defs>
       <use xlink:href="#DejaVuSans-30"/>
       <use x="63.623047" xlink:href="#DejaVuSans-2e"/>
       <use x="95.410156" xlink:href="#DejaVuSans-30"/>
      </g>
     </g>
    </g>
    <g id="ytick_2">
     <g id="line2d_23">
      <path clip-path="url(#pd2abec9024)" d="M 57.6 244.6848 
L 360.8064 244.6848 
" style="fill:none;stroke:#b0b0b0;stroke-linecap:square;stroke-width:0.8;"/>
     </g>
     <g id="line2d_24">
      <g>
       <use style="stroke:#000000;stroke-width:0.8;" x="57.6" xlink:href="#m12751d2090" y="244.6848"/>
      </g>
     </g>
     <g id="text_7">
      <!-- 0.2 -->
      <g transform="translate(25.155 250.76355)scale(0.16 -0.16)">
       <use xlink:href="#DejaVuSans-30"/>
       <use x="63.623047" xlink:href="#DejaVuSans-2e"/>
       <use x="95.410156" xlink:href="#DejaVuSans-32"/>
      </g>
     </g>
    </g>
    <g id="ytick_3">
     <g id="line2d_25">
      <path clip-path="url(#pd2abec9024)" d="M 57.6 190.4256 
L 360.8064 190.4256 
" style="fill:none;stroke:#b0b0b0;stroke-linecap:square;stroke-width:0.8;"/>
     </g>
     <g id="line2d_26">
      <g>
       <use style="stroke:#000000;stroke-width:0.8;" x="57.6" xlink:href="#m12751d2090" y="190.4256"/>
      </g>
     </g>
     <g id="text_8">
      <!-- 0.4 -->
      <g transform="translate(25.155 196.50435)scale(0.16 -0.16)">
       <use xlink:href="#DejaVuSans-30"/>
       <use x="63.623047" xlink:href="#DejaVuSans-2e"/>
       <use x="95.410156" xlink:href="#DejaVuSans-34"/>
      </g>
     </g>
    </g>
    <g id="ytick_4">
     <g id="line2d_27">
      <path clip-path="url(#pd2abec9024)" d="M 57.6 136.1664 
L 360.8064 136.1664 
" style="fill:none;stroke:#b0b0b0;stroke-linecap:square;stroke-width:0.8;"/>
     </g>
     <g id="line2d_28">
      <g>
       <use style="stroke:#000000;stroke-width:0.8;" x="57.6" xlink:href="#m12751d2090" y="136.1664"/>
      </g>
     </g>
     <g id="text_9">
      <!-- 0.6 -->
      <g transform="translate(25.155 142.24515)scale(0.16 -0.16)">
       <use xlink:href="#DejaVuSans-30"/>
       <use x="63.623047" xlink:href="#DejaVuSans-2e"/>
       <use x="95.410156" xlink:href="#DejaVuSans-36"/>
      </g>
     </g>
    </g>
    <g id="ytick_5">
     <g id="line2d_29">
      <path clip-path="url(#pd2abec9024)" d="M 57.6 81.9072 
L 360.8064 81.9072 
" style="fill:none;stroke:#b0b0b0;stroke-linecap:square;stroke-width:0.8;"/>
     </g>
     <g id="line2d_30">
      <g>
       <use style="stroke:#000000;stroke-width:0.8;" x="57.6" xlink:href="#m12751d2090" y="81.9072"/>
      </g>
     </g>
     <g id="text_10">
      <!-- 0.8 -->
      <g transform="translate(25.155 87.98595)scale(0.16 -0.16)">
       <defs>
        <path d="M 2034 2216 
Q 1584 2216 1326 1975 
Q 1069 1734 1069 1313 
Q 1069 891 1326 650 
Q 1584 409 2034 409 
Q 2484 409 2743 651 
Q 3003 894 3003 1313 
Q 3003 1734 2745 1975 
Q 2488 2216 2034 2216 
z
M 1403 2484 
Q 997 2584 770 2862 
Q 544 3141 544 3541 
Q 544 4100 942 4425 
Q 1341 4750 2034 4750 
Q 2731 4750 3128 4425 
Q 3525 4100 3525 3541 
Q 3525 3141 3298 2862 
Q 3072 2584 2669 2484 
Q 3125 2378 3379 2068 
Q 3634 1759 3634 1313 
Q 3634 634 3220 271 
Q 2806 -91 2034 -91 
Q 1263 -91 848 271 
Q 434 634 434 1313 
Q 434 1759 690 2068 
Q 947 2378 1403 2484 
z
M 1172 3481 
Q 1172 3119 1398 2916 
Q 1625 2713 2034 2713 
Q 2441 2713 2670 2916 
Q 2900 3119 2900 3481 
Q 2900 3844 2670 4047 
Q 2441 4250 2034 4250 
Q 1625 4250 1398 4047 
Q 1172 3844 1172 3481 
z
" id="DejaVuSans-38" transform="scale(0.015625)"/>
       </defs>
       <use xlink:href="#DejaVuSans-30"/>
       <use x="63.623047" xlink:href="#DejaVuSans-2e"/>
       <use x="95.410156" xlink:href="#DejaVuSans-38"/>
      </g>
     </g>
    </g>
    <g id="ytick_6">
     <g id="line2d_31">
      <path clip-path="url(#pd2abec9024)" d="M 57.6 27.648 
L 360.8064 27.648 
" style="fill:none;stroke:#b0b0b0;stroke-linecap:square;stroke-width:0.8;"/>
     </g>
     <g id="line2d_32">
      <g>
       <use style="stroke:#000000;stroke-width:0.8;" x="57.6" xlink:href="#m12751d2090" y="27.648"/>
      </g>
     </g>
     <g id="text_11">
      <!-- 1.0 -->
      <g transform="translate(25.155 33.72675)scale(0.16 -0.16)">
       <use xlink:href="#DejaVuSans-31"/>
       <use x="63.623047" xlink:href="#DejaVuSans-2e"/>
       <use x="95.410156" xlink:href="#DejaVuSans-30"/>
      </g>
     </g>
    </g>
    <g id="text_12">
     <!-- Fraction of function,target pairs -->
     <g transform="translate(17.619531 297.681)rotate(-90)scale(0.17 -0.17)">
      <defs>
       <path d="M 628 4666 
L 3309 4666 
L 3309 4134 
L 1259 4134 
L 1259 2759 
L 3109 2759 
L 3109 2228 
L 1259 2228 
L 1259 0 
L 628 0 
L 628 4666 
z
" id="DejaVuSans-46" transform="scale(0.015625)"/>
       <path d="M 2631 2963 
Q 2534 3019 2420 3045 
Q 2306 3072 2169 3072 
Q 1681 3072 1420 2755 
Q 1159 2438 1159 1844 
L 1159 0 
L 581 0 
L 581 3500 
L 1159 3500 
L 1159 2956 
Q 1341 3275 1631 3429 
Q 1922 3584 2338 3584 
Q 2397 3584 2469 3576 
Q 2541 3569 2628 3553 
L 2631 2963 
z
" id="DejaVuSans-72" transform="scale(0.015625)"/>
       <path d="M 3122 3366 
L 3122 2828 
Q 2878 2963 2633 3030 
Q 2388 3097 2138 3097 
Q 1578 3097 1268 2742 
Q 959 2388 959 1747 
Q 959 1106 1268 751 
Q 1578 397 2138 397 
Q 2388 397 2633 464 
Q 2878 531 3122 666 
L 3122 134 
Q 2881 22 2623 -34 
Q 2366 -91 2075 -91 
Q 1284 -91 818 406 
Q 353 903 353 1747 
Q 353 2603 823 3093 
Q 1294 3584 2113 3584 
Q 2378 3584 2631 3529 
Q 2884 3475 3122 3366 
z
" id="DejaVuSans-63" transform="scale(0.015625)"/>
       <path d="M 1172 4494 
L 1172 3500 
L 2356 3500 
L 2356 3053 
L 1172 3053 
L 1172 1153 
Q 1172 725 1289 603 
Q 1406 481 1766 481 
L 2356 481 
L 2356 0 
L 1766 0 
Q 1100 0 847 248 
Q 594 497 594 1153 
L 594 3053 
L 172 3053 
L 172 3500 
L 594 3500 
L 594 4494 
L 1172 4494 
z
" id="DejaVuSans-74" transform="scale(0.015625)"/>
       <path d="M 544 1381 
L 544 3500 
L 1119 3500 
L 1119 1403 
Q 1119 906 1312 657 
Q 1506 409 1894 409 
Q 2359 409 2629 706 
Q 2900 1003 2900 1516 
L 2900 3500 
L 3475 3500 
L 3475 0 
L 2900 0 
L 2900 538 
Q 2691 219 2414 64 
Q 2138 -91 1772 -91 
Q 1169 -91 856 284 
Q 544 659 544 1381 
z
M 1991 3584 
L 1991 3584 
z
" id="DejaVuSans-75" transform="scale(0.015625)"/>
       <path d="M 750 794 
L 1409 794 
L 1409 256 
L 897 -744 
L 494 -744 
L 750 256 
L 750 794 
z
" id="DejaVuSans-2c" transform="scale(0.015625)"/>
       <path d="M 1159 525 
L 1159 -1331 
L 581 -1331 
L 581 3500 
L 1159 3500 
L 1159 2969 
Q 1341 3281 1617 3432 
Q 1894 3584 2278 3584 
Q 2916 3584 3314 3078 
Q 3713 2572 3713 1747 
Q 3713 922 3314 415 
Q 2916 -91 2278 -91 
Q 1894 -91 1617 61 
Q 1341 213 1159 525 
z
M 3116 1747 
Q 3116 2381 2855 2742 
Q 2594 3103 2138 3103 
Q 1681 3103 1420 2742 
Q 1159 2381 1159 1747 
Q 1159 1113 1420 752 
Q 1681 391 2138 391 
Q 2594 391 2855 752 
Q 3116 1113 3116 1747 
z
" id="DejaVuSans-70" transform="scale(0.015625)"/>
      </defs>
      <use xlink:href="#DejaVuSans-46"/>
      <use x="50.269531" xlink:href="#DejaVuSans-72"/>
      <use x="91.382812" xlink:href="#DejaVuSans-61"/>
      <use x="152.662109" xlink:href="#DejaVuSans-63"/>
      <use x="207.642578" xlink:href="#DejaVuSans-74"/>
      <use x="246.851562" xlink:href="#DejaVuSans-69"/>
      <use x="274.634766" xlink:href="#DejaVuSans-6f"/>
      <use x="335.816406" xlink:href="#DejaVuSans-6e"/>
      <use x="399.195312" xlink:href="#DejaVuSans-20"/>
      <use x="430.982422" xlink:href="#DejaVuSans-6f"/>
      <use x="492.164062" xlink:href="#DejaVuSans-66"/>
      <use x="527.369141" xlink:href="#DejaVuSans-20"/>
      <use x="559.15625" xlink:href="#DejaVuSans-66"/>
      <use x="594.361328" xlink:href="#DejaVuSans-75"/>
      <use x="657.740234" xlink:href="#DejaVuSans-6e"/>
      <use x="721.119141" xlink:href="#DejaVuSans-63"/>
      <use x="776.099609" xlink:href="#DejaVuSans-74"/>
      <use x="815.308594" xlink:href="#DejaVuSans-69"/>
      <use x="843.091797" xlink:href="#DejaVuSans-6f"/>
      <use x="904.273438" xlink:href="#DejaVuSans-6e"/>
      <use x="967.652344" xlink:href="#DejaVuSans-2c"/>
      <use x="999.439453" xlink:href="#DejaVuSans-74"/>
      <use x="1038.648438" xlink:href="#DejaVuSans-61"/>
      <use x="1099.927734" xlink:href="#DejaVuSans-72"/>
      <use x="1139.291016" xlink:href="#DejaVuSans-67"/>
      <use x="1202.767578" xlink:href="#DejaVuSans-65"/>
      <use x="1264.291016" xlink:href="#DejaVuSans-74"/>
      <use x="1303.5" xlink:href="#DejaVuSans-20"/>
      <use x="1335.287109" xlink:href="#DejaVuSans-70"/>
      <use x="1398.763672" xlink:href="#DejaVuSans-61"/>
      <use x="1460.042969" xlink:href="#DejaVuSans-69"/>
      <use x="1487.826172" xlink:href="#DejaVuSans-72"/>
      <use x="1528.939453" xlink:href="#DejaVuSans-73"/>
     </g>
    </g>
   </g>
   <g id="line2d_33">
    <defs>
     <path d="M 0 1.5 
C 0.397805 1.5 0.77937 1.341951 1.06066 1.06066 
C 1.341951 0.77937 1.5 0.397805 1.5 0 
C 1.5 -0.397805 1.341951 -0.77937 1.06066 -1.06066 
C 0.77937 -1.341951 0.397805 -1.5 0 -1.5 
C -0.397805 -1.5 -0.77937 -1.341951 -1.06066 -1.06066 
C -1.341951 -0.77937 -1.5 -0.397805 -1.5 0 
C -1.5 0.397805 -1.341951 0.77937 -1.06066 1.06066 
C -0.77937 1.341951 -0.397805 1.5 0 1.5 
z
" id="m9681d86d6e" style="stroke:#f5deb3;"/>
    </defs>
    <g>
     <use style="fill:#f5deb3;stroke:#f5deb3;" x="141.128852" xlink:href="#m9681d86d6e" y="27.648"/>
     <use style="fill:#f5deb3;stroke:#f5deb3;" x="141.128852" xlink:href="#m9681d86d6e" y="27.648"/>
    </g>
   </g>
   <g id="line2d_34">
    <defs>
     <path d="M 0 1.5 
C 0.397805 1.5 0.77937 1.341951 1.06066 1.06066 
C 1.341951 0.77937 1.5 0.397805 1.5 0 
C 1.5 -0.397805 1.341951 -0.77937 1.06066 -1.06066 
C 0.77937 -1.341951 0.397805 -1.5 0 -1.5 
C -0.397805 -1.5 -0.77937 -1.341951 -1.06066 -1.06066 
C -1.341951 -0.77937 -1.5 -0.397805 -1.5 0 
C -1.5 0.397805 -1.341951 0.77937 -1.06066 1.06066 
C -0.77937 1.341951 -0.397805 1.5 0 1.5 
z
" id="mf17d29b60d" style="stroke:#000080;"/>
    </defs>
    <g>
     <use style="fill:#000080;stroke:#000080;" x="300.259173" xlink:href="#mf17d29b60d" y="134.038588"/>
     <use style="fill:#000080;stroke:#000080;" x="300.259173" xlink:href="#mf17d29b60d" y="134.038588"/>
    </g>
   </g>
   <g id="line2d_35">
    <path d="M 122.439807 298.944 
L 122.439807 298.234729 
L 139.891105 298.234729 
L 139.891105 297.880094 
L 142.122575 297.880094 
L 142.122575 297.170824 
L 144.491935 297.170824 
L 144.491935 296.816188 
L 144.71325 296.816188 
L 144.71325 296.106918 
L 147.248088 296.106918 
L 147.248088 295.043012 
L 147.565858 295.043012 
L 147.565858 293.979106 
L 147.816265 293.979106 
L 147.816265 293.624471 
L 148.726679 293.624471 
L 148.726679 292.9152 
L 149.078856 292.9152 
L 149.078856 292.560565 
L 149.367382 292.560565 
L 149.367382 292.205929 
L 150.042308 292.205929 
L 150.042308 291.851294 
L 150.370903 291.851294 
L 150.425115 290.432753 
L 150.958812 290.432753 
L 150.958812 290.078118 
L 151.32359 290.078118 
L 151.32359 289.723482 
L 151.782431 289.723482 
L 151.832729 288.304941 
L 152.082223 288.304941 
L 152.082223 287.950306 
L 152.619733 287.950306 
L 152.667844 287.241035 
L 153.095398 287.241035 
L 153.189104 286.177129 
L 153.235783 286.177129 
L 153.328795 285.113224 
L 153.467455 285.113224 
L 153.467455 284.758588 
L 154.012098 284.758588 
L 154.012098 284.403953 
L 154.234459 284.403953 
L 154.234459 284.049318 
L 154.454223 284.049318 
L 154.541415 282.985412 
L 154.714595 282.985412 
L 154.757642 281.921506 
L 155.557358 281.921506 
L 155.557358 281.566871 
L 155.843627 281.566871 
L 155.924624 280.502965 
L 157.916719 280.502965 
L 157.916719 280.148329 
L 158.0976 280.148329 
L 158.133569 279.084424 
L 158.630038 279.084424 
L 158.630038 278.729788 
L 158.976805 278.729788 
L 158.976805 278.375153 
L 159.552023 278.375153 
L 159.552023 277.665882 
L 159.68485 277.665882 
L 159.68485 276.956612 
L 160.012872 276.956612 
L 160.012872 276.247341 
L 160.271232 276.247341 
L 160.271232 275.892706 
L 161.148532 275.892706 
L 161.148532 275.538071 
L 162.449456 275.538071 
L 162.449456 275.183435 
L 163.012297 275.183435 
L 163.012297 274.8288 
L 163.205379 274.8288 
L 163.205379 273.764894 
L 163.3965 273.764894 
L 163.3965 273.055624 
L 164.037409 273.055624 
L 164.063646 271.991718 
L 164.246284 271.991718 
L 164.246284 271.637082 
L 164.733259 271.637082 
L 164.733259 271.282447 
L 165.404283 271.282447 
L 165.50169 269.509271 
L 165.933882 269.509271 
L 165.933882 269.154635 
L 166.169767 269.154635 
L 166.239959 268.445365 
L 166.701332 268.445365 
L 166.701332 267.736094 
L 167.284683 267.736094 
L 167.284683 267.381459 
L 168.689024 267.381459 
L 168.689024 266.672188 
L 168.953693 266.672188 
L 168.953693 266.317553 
L 169.114734 266.317553 
L 169.114734 265.962918 
L 169.531024 265.962918 
L 169.531024 265.608282 
L 170.053063 265.608282 
L 170.053063 265.253647 
L 170.28051 265.253647 
L 170.374474 264.189741 
L 170.873925 264.189741 
L 170.92861 263.125835 
L 171.307016 263.125835 
L 171.307016 262.7712 
L 171.852062 262.7712 
L 171.852062 262.416565 
L 172.212513 262.416565 
L 172.297327 261.707294 
L 172.465815 261.707294 
L 172.465815 261.352659 
L 172.962409 261.352659 
L 172.962409 260.998024 
L 173.302386 260.998024 
L 173.302386 260.643388 
L 173.77765 260.643388 
L 173.77765 260.288753 
L 175.236991 260.288753 
L 175.236991 259.934118 
L 175.366826 259.934118 
L 175.366826 259.579482 
L 176.21022 259.579482 
L 176.21022 259.224847 
L 176.725451 259.224847 
L 176.725451 258.515576 
L 177.083146 258.515576 
L 177.083146 258.160941 
L 177.239965 258.160941 
L 177.330842 257.451671 
L 178.339408 257.451671 
L 178.339408 257.097035 
L 178.7762 257.097035 
L 178.812146 256.033129 
L 179.120831 256.033129 
L 179.120831 255.323859 
L 179.768971 255.323859 
L 179.768971 254.969224 
L 180.959205 254.969224 
L 180.959205 254.614588 
L 181.287383 254.614588 
L 181.297875 253.905318 
L 181.464951 253.905318 
L 181.464951 253.550682 
L 181.794715 253.550682 
L 181.794715 253.196047 
L 181.937189 253.196047 
L 181.987812 252.486776 
L 182.198954 252.486776 
L 182.198954 252.132141 
L 182.535857 252.132141 
L 182.535857 251.777506 
L 183.30555 251.777506 
L 183.30555 251.422871 
L 183.79866 251.422871 
L 183.79866 251.068235 
L 185.187826 251.068235 
L 185.187826 250.7136 
L 185.500795 250.7136 
L 185.500795 250.004329 
L 186.409624 250.004329 
L 186.409624 249.649694 
L 186.898776 249.649694 
L 186.898776 249.295059 
L 187.184741 249.295059 
L 187.19241 248.585788 
L 187.496626 248.585788 
L 187.53431 247.876518 
L 188.178198 247.876518 
L 188.178198 247.521882 
L 188.638179 247.521882 
L 188.744379 246.457976 
L 189.066371 246.457976 
L 189.066371 246.103341 
L 190.617689 246.103341 
L 190.617689 245.748706 
L 190.978487 245.748706 
L 190.978487 245.394071 
L 191.625525 245.394071 
L 191.625525 245.039435 
L 193.40441 245.039435 
L 193.40441 244.6848 
L 194.13935 244.6848 
L 194.13935 244.330165 
L 194.600043 244.330165 
L 194.600043 243.975529 
L 195.059819 243.975529 
L 195.059819 243.620894 
L 195.215619 243.620894 
L 195.215619 243.266259 
L 197.494315 243.266259 
L 197.55187 242.556988 
L 198.339677 242.556988 
L 198.394706 241.847718 
L 199.728463 241.847718 
L 199.728463 241.138447 
L 200.903733 241.138447 
L 200.911129 240.429176 
L 201.922476 240.429176 
L 201.922476 240.074541 
L 202.252451 240.074541 
L 202.252451 239.719906 
L 202.768659 239.719906 
L 202.768659 239.365271 
L 203.728623 239.365271 
L 203.728623 239.010635 
L 204.74479 239.010635 
L 204.74479 238.656 
L 205.434684 238.656 
L 205.434684 238.301365 
L 206.077705 238.301365 
L 206.077705 237.946729 
L 206.30114 237.946729 
L 206.30114 237.237459 
L 207.129438 237.237459 
L 207.161293 235.818918 
L 207.437745 235.818918 
L 207.437745 235.464282 
L 208.595783 235.464282 
L 208.595783 235.109647 
L 208.720704 235.109647 
L 208.720704 234.400376 
L 209.818376 234.400376 
L 209.818376 234.045741 
L 210.183284 234.045741 
L 210.183284 233.691106 
L 210.746226 233.691106 
L 210.746226 232.981835 
L 210.938149 232.981835 
L 210.938149 232.6272 
L 211.072201 232.6272 
L 211.108791 231.917929 
L 211.972417 231.917929 
L 211.972417 230.144753 
L 212.462978 230.144753 
L 212.462978 229.790118 
L 213.049994 229.790118 
L 213.049994 229.435482 
L 214.168121 229.435482 
L 214.168121 229.080847 
L 214.398795 229.080847 
L 214.398795 228.016941 
L 214.740475 228.016941 
L 214.740475 227.662306 
L 216.063199 227.662306 
L 216.063199 227.307671 
L 216.563762 227.307671 
L 216.563762 226.953035 
L 216.854343 226.953035 
L 216.854343 226.5984 
L 216.997967 226.5984 
L 216.997967 226.243765 
L 217.45156 226.243765 
L 217.45156 225.889129 
L 217.991664 225.889129 
L 217.991664 225.534494 
L 218.704297 225.534494 
L 218.704297 225.179859 
L 219.491712 225.179859 
L 219.491712 224.825224 
L 219.750195 224.825224 
L 219.836925 224.115953 
L 219.882838 224.115953 
L 219.882838 223.761318 
L 220.759025 223.761318 
L 220.759025 223.406682 
L 222.49423 223.406682 
L 222.49423 223.052047 
L 222.983215 223.052047 
L 222.996936 222.342776 
L 223.264761 222.342776 
L 223.264761 221.988141 
L 223.491011 221.988141 
L 223.491011 221.278871 
L 224.247153 221.278871 
L 224.276007 220.5696 
L 224.366555 220.5696 
L 224.435504 219.860329 
L 225.39832 219.860329 
L 225.39832 219.505694 
L 225.682864 219.505694 
L 225.682864 219.151059 
L 225.979758 219.151059 
L 225.979758 218.441788 
L 226.416493 218.441788 
L 226.486883 216.668612 
L 226.662653 216.668612 
L 226.662653 216.313976 
L 228.344997 216.313976 
L 228.344997 215.959341 
L 228.848264 215.959341 
L 228.958481 215.250071 
L 229.062261 215.250071 
L 229.062261 214.895435 
L 229.63549 214.895435 
L 229.63549 214.186165 
L 230.440402 214.186165 
L 230.440402 213.831529 
L 230.934022 213.831529 
L 230.934022 213.476894 
L 232.158513 213.476894 
L 232.158513 213.122259 
L 232.379836 213.122259 
L 232.379836 212.412988 
L 232.800572 212.412988 
L 232.800572 212.058353 
L 233.112232 212.058353 
L 233.112232 211.703718 
L 233.385943 211.703718 
L 233.484377 210.639812 
L 233.762441 210.639812 
L 233.762441 208.512 
L 233.917864 208.512 
L 233.917864 208.157365 
L 234.479906 208.157365 
L 234.558579 206.738824 
L 235.436011 206.738824 
L 235.489625 206.029553 
L 235.660637 206.029553 
L 235.660637 205.674918 
L 235.867628 205.674918 
L 235.867628 204.965647 
L 236.567167 204.965647 
L 236.602691 204.256376 
L 236.986367 204.256376 
L 236.986367 203.901741 
L 237.957344 203.901741 
L 237.963535 202.4832 
L 238.188123 202.4832 
L 238.188123 202.128565 
L 238.551579 202.128565 
L 238.626423 201.064659 
L 239.223378 201.064659 
L 239.223378 200.355388 
L 239.368506 200.355388 
L 239.368506 199.646118 
L 239.596894 199.646118 
L 239.619108 198.227576 
L 240.831008 198.227576 
L 240.831008 197.872941 
L 240.94449 197.872941 
L 240.94449 197.163671 
L 241.400292 197.163671 
L 241.400292 196.4544 
L 241.833137 196.4544 
L 241.833137 195.745129 
L 242.119021 195.745129 
L 242.119021 195.390494 
L 242.530963 195.390494 
L 242.530963 194.681224 
L 242.776184 194.681224 
L 242.780976 193.262682 
L 243.024162 193.262682 
L 243.024162 192.908047 
L 243.366317 192.908047 
L 243.430845 192.198776 
L 243.588716 192.198776 
L 243.681056 190.4256 
L 244.017555 190.4256 
L 244.064978 188.652424 
L 244.421105 188.652424 
L 244.421105 188.297788 
L 244.59921 188.297788 
L 244.632169 187.588518 
L 245.038824 187.588518 
L 245.038824 187.233882 
L 245.236099 187.233882 
L 245.236099 186.879247 
L 246.187921 186.879247 
L 246.191918 186.169976 
L 246.337242 186.169976 
L 246.337242 185.815341 
L 246.564903 185.815341 
L 246.622611 183.332894 
L 246.92391 183.332894 
L 246.92391 182.623624 
L 247.111029 182.623624 
L 247.111029 181.914353 
L 247.277451 181.914353 
L 247.335839 181.205082 
L 249.439907 181.205082 
L 249.439907 180.850447 
L 249.852649 180.850447 
L 249.89838 179.077271 
L 250.010458 179.077271 
L 250.010458 178.013365 
L 250.316276 178.013365 
L 250.350217 177.304094 
L 251.05255 177.304094 
L 251.05255 176.949459 
L 252.004507 176.949459 
L 252.004507 176.594824 
L 252.179756 176.594824 
L 252.216062 175.885553 
L 252.508298 175.885553 
L 252.580061 175.176282 
L 252.693559 175.176282 
L 252.704636 174.112376 
L 253.536504 174.112376 
L 253.536504 173.757741 
L 254.279477 173.757741 
L 254.348041 173.048471 
L 254.789087 173.048471 
L 254.789087 171.984565 
L 255.352916 171.984565 
L 255.352916 171.629929 
L 255.60238 171.629929 
L 255.60238 171.275294 
L 256.266315 171.275294 
L 256.353845 170.211388 
L 256.487851 170.211388 
L 256.487851 169.147482 
L 256.812025 169.147482 
L 256.902713 168.083576 
L 258.511813 168.083576 
L 258.596407 167.374306 
L 258.689193 167.374306 
L 258.689193 167.019671 
L 259.02757 167.019671 
L 259.02757 166.665035 
L 259.387403 166.665035 
L 259.387403 165.955765 
L 259.884029 165.955765 
L 259.884029 165.601129 
L 259.995174 165.601129 
L 259.995174 165.246494 
L 260.2646 165.246494 
L 260.34749 164.182588 
L 261.458003 164.182588 
L 261.458003 163.827953 
L 262.082501 163.827953 
L 262.082501 163.473318 
L 262.974374 163.473318 
L 262.974374 163.118682 
L 263.276707 163.118682 
L 263.276707 162.764047 
L 264.207316 162.764047 
L 264.207316 161.345506 
L 264.469699 161.345506 
L 264.537648 159.217694 
L 265.315772 159.217694 
L 265.420567 157.799153 
L 265.503437 157.799153 
L 265.506658 157.089882 
L 265.766945 157.089882 
L 265.766945 156.380612 
L 266.186965 156.380612 
L 266.186965 156.025976 
L 266.836747 156.025976 
L 266.836747 154.962071 
L 267.26978 154.962071 
L 267.350964 154.2528 
L 267.62977 154.2528 
L 267.62977 153.898165 
L 267.751181 153.898165 
L 267.754039 153.188894 
L 267.930006 153.188894 
L 267.985195 152.124988 
L 268.938964 152.124988 
L 268.938964 151.415718 
L 269.399471 151.415718 
L 269.399471 151.061082 
L 269.650849 151.061082 
L 269.692723 149.997176 
L 269.964821 149.997176 
L 269.98674 149.287906 
L 270.642953 149.287906 
L 270.642953 148.933271 
L 270.829692 148.933271 
L 270.829692 148.578635 
L 271.512666 148.578635 
L 271.57498 147.869365 
L 271.759837 147.869365 
L 271.759837 147.514729 
L 272.650802 147.514729 
L 272.650802 147.160094 
L 272.928552 147.160094 
L 272.928552 146.805459 
L 273.171964 146.805459 
L 273.171964 145.741553 
L 273.965073 145.741553 
L 273.965073 145.386918 
L 274.472343 145.386918 
L 274.472343 145.032282 
L 274.905589 145.032282 
L 274.905589 144.323012 
L 275.429239 144.323012 
L 275.429239 143.968376 
L 275.574189 143.968376 
L 275.574189 143.613741 
L 275.847498 143.613741 
L 275.847498 143.259106 
L 276.154048 143.259106 
L 276.154048 142.904471 
L 277.569756 142.904471 
L 277.569756 142.549835 
L 278.150807 142.549835 
L 278.180631 141.840565 
L 278.686464 141.840565 
L 278.786666 141.131294 
L 278.817675 141.131294 
L 278.817675 140.776659 
L 279.107861 140.776659 
L 279.107861 140.422024 
L 281.581426 140.422024 
L 281.581426 140.067388 
L 282.409694 140.067388 
L 282.409694 139.712753 
L 283.015452 139.712753 
L 283.015452 139.358118 
L 284.350359 139.358118 
L 284.350359 139.003482 
L 284.522234 139.003482 
L 284.522234 138.648847 
L 284.716115 138.648847 
L 284.809426 137.939576 
L 285.120496 137.939576 
L 285.120496 137.584941 
L 286.184034 137.584941 
L 286.184034 137.230306 
L 286.812062 137.230306 
L 286.812062 136.875671 
L 287.7383 136.875671 
L 287.7383 136.521035 
L 288.647126 136.521035 
L 288.647126 136.1664 
L 289.937958 136.1664 
L 289.937958 135.457129 
L 290.631643 135.457129 
L 290.631643 135.102494 
L 295.809316 135.102494 
L 295.809316 134.747859 
L 299.837211 134.747859 
L 299.837211 134.393224 
L 300.259173 134.393224 
L 300.259173 134.038588 
L 360.8064 134.038588 
L 360.8064 134.038588 
" style="fill:none;stroke:#000080;stroke-linecap:square;stroke-width:1.5;"/>
   </g>
   <g id="line2d_36">
    <defs>
     <path d="M 0 6 
C 1.591219 6 3.117479 5.367802 4.242641 4.242641 
C 5.367802 3.117479 6 1.591219 6 0 
C 6 -1.591219 5.367802 -3.117479 4.242641 -4.242641 
C 3.117479 -5.367802 1.591219 -6 0 -6 
C -1.591219 -6 -3.117479 -5.367802 -4.242641 -4.242641 
C -5.367802 -3.117479 -6 -1.591219 -6 0 
C -6 1.591219 -5.367802 3.117479 -4.242641 4.242641 
C -3.117479 5.367802 -1.591219 6 0 6 
z
" id="m6ed39fe2d5" style="stroke:#000080;stroke-width:1.5;"/>
    </defs>
    <g>
     <use style="fill-opacity:0;stroke:#000080;stroke-width:1.5;" x="199.728463" xlink:href="#m6ed39fe2d5" y="241.847718"/>
     <use style="fill-opacity:0;stroke:#000080;stroke-width:1.5;" x="254.348041" xlink:href="#m6ed39fe2d5" y="173.048471"/>
     <use style="fill-opacity:0;stroke:#000080;stroke-width:1.5;" x="300.259173" xlink:href="#m6ed39fe2d5" y="134.393224"/>
     <use style="fill-opacity:0;stroke:#000080;stroke-width:1.5;" x="300.259173" xlink:href="#m6ed39fe2d5" y="134.038588"/>
     <use style="fill-opacity:0;stroke:#000080;stroke-width:1.5;" x="360.8064" xlink:href="#m6ed39fe2d5" y="134.038588"/>
    </g>
   </g>
   <g id="line2d_37">
    <path style="fill:none;stroke:#000080;stroke-linecap:square;stroke-width:1.5;"/>
    <g/>
   </g>
   <g id="line2d_38">
    <path clip-path="url(#pd2abec9024)" d="M 226.672527 216.313976 
" style="fill:none;stroke:#000080;stroke-linecap:square;stroke-width:1.5;"/>
    <defs>
     <path d="M -12 12 
L 12 -12 
M -12 -12 
L 12 12 
" id="mb0421164d5" style="stroke:#000080;"/>
    </defs>
    <g clip-path="url(#pd2abec9024)">
     <use style="fill:#000080;stroke:#000080;" x="226.672527" xlink:href="#mb0421164d5" y="216.313976"/>
    </g>
   </g>
   <g id="line2d_39">
    <defs>
     <path d="M 0 1.5 
C 0.397805 1.5 0.77937 1.341951 1.06066 1.06066 
C 1.341951 0.77937 1.5 0.397805 1.5 0 
C 1.5 -0.397805 1.341951 -0.77937 1.06066 -1.06066 
C 0.77937 -1.341951 0.397805 -1.5 0 -1.5 
C -0.397805 -1.5 -0.77937 -1.341951 -1.06066 -1.06066 
C -1.341951 -0.77937 -1.5 -0.397805 -1.5 0 
C -1.5 0.397805 -1.341951 0.77937 -1.06066 1.06066 
C -0.77937 1.341951 -0.397805 1.5 0 1.5 
z
" id="mb2b3cb7750" style="stroke:#ff00ff;"/>
    </defs>
    <g>
     <use style="fill:#ff00ff;stroke:#ff00ff;" x="193.442947" xlink:href="#mb2b3cb7750" y="27.648"/>
     <use style="fill:#ff00ff;stroke:#ff00ff;" x="193.442947" xlink:href="#mb2b3cb7750" y="27.648"/>
    </g>
   </g>
   <g id="line2d_40">
    <path d="M 87.876026 298.944 
L 87.876026 298.589365 
L 95.752617 298.589365 
L 95.752617 297.880094 
L 98.933205 297.880094 
L 98.933205 297.525459 
L 100.147275 297.525459 
L 100.147275 295.752282 
L 105.559021 295.752282 
L 105.559021 295.397647 
L 106.137884 295.397647 
L 106.137884 295.043012 
L 110.897141 295.043012 
L 110.897141 293.624471 
L 111.97238 293.624471 
L 111.97238 292.9152 
L 113.954374 292.9152 
L 113.954374 292.560565 
L 114.141556 292.560565 
L 114.141556 291.851294 
L 114.510421 291.851294 
L 114.510421 291.496659 
L 114.692177 291.496659 
L 114.692177 291.142024 
L 114.872193 291.142024 
L 114.872193 290.787388 
L 115.050503 290.787388 
L 115.050503 290.078118 
L 115.575511 290.078118 
L 115.575511 289.368847 
L 116.746385 289.368847 
L 116.746385 287.595671 
L 117.540239 287.595671 
L 117.540239 287.241035 
L 118.000953 287.241035 
L 118.000953 286.8864 
L 118.74459 286.8864 
L 118.74459 285.822494 
L 118.889854 285.822494 
L 118.889854 285.467859 
L 119.034004 285.467859 
L 119.034004 284.403953 
L 119.599808 284.403953 
L 119.599808 284.049318 
L 120.550775 284.049318 
L 120.550775 283.340047 
L 120.944062 283.340047 
L 120.944062 282.985412 
L 121.201758 282.985412 
L 121.201758 282.630776 
L 121.830966 282.630776 
L 121.830966 281.566871 
L 122.19863 281.566871 
L 122.19863 280.8576 
L 122.559246 280.8576 
L 122.559246 279.793694 
L 122.795872 279.793694 
L 122.795872 279.084424 
L 123.825333 279.084424 
L 123.825333 278.375153 
L 124.373813 278.375153 
L 124.373813 277.665882 
L 124.801367 277.665882 
L 124.906754 276.956612 
L 125.011554 276.956612 
L 125.115773 276.247341 
L 125.829577 276.247341 
L 125.829577 275.892706 
L 126.225624 275.892706 
L 126.225624 274.474165 
L 126.420564 274.474165 
L 126.420564 273.764894 
L 126.613505 273.764894 
L 126.613505 273.410259 
L 126.993549 273.410259 
L 127.087372 272.700988 
L 127.18073 272.700988 
L 127.18073 272.346353 
L 127.549596 272.346353 
L 127.640693 270.927812 
L 128.089678 270.927812 
L 128.089678 270.573176 
L 128.614685 270.573176 
L 128.614685 270.218541 
L 128.871795 270.218541 
L 128.871795 269.863906 
L 129.622688 269.863906 
L 129.622688 269.509271 
L 129.78556 269.509271 
L 129.78556 268.8 
L 130.344755 268.8 
L 130.344755 268.445365 
L 130.656987 268.445365 
L 130.656987 268.090729 
L 130.811181 268.090729 
L 130.811181 267.736094 
L 130.964122 267.736094 
L 130.964122 267.381459 
L 131.341119 267.381459 
L 131.341119 267.026824 
L 132.428795 267.026824 
L 132.428795 266.672188 
L 133.457005 266.672188 
L 133.457005 266.317553 
L 133.589949 266.317553 
L 133.589949 265.962918 
L 133.853052 265.962918 
L 133.853052 265.608282 
L 134.240933 265.608282 
L 134.240933 265.253647 
L 134.368469 265.253647 
L 134.368469 264.899012 
L 136.242113 264.899012 
L 136.242113 264.544376 
L 136.584151 264.544376 
L 136.584151 264.189741 
L 137.520791 264.189741 
L 137.520791 263.480471 
L 137.998402 263.480471 
L 137.998402 263.125835 
L 138.412998 263.125835 
L 138.412998 262.7712 
L 138.616919 262.7712 
L 138.616919 262.416565 
L 139.362521 262.416565 
L 139.362521 262.061929 
L 140.312801 262.061929 
L 140.312801 261.707294 
L 141.128852 261.707294 
L 141.173167 260.998024 
L 141.305488 260.998024 
L 141.305488 260.643388 
L 141.910969 260.643388 
L 141.910969 260.288753 
L 142.290162 260.288753 
L 142.290162 259.934118 
L 143.265494 259.934118 
L 143.265494 259.579482 
L 143.618588 259.579482 
L 143.618588 259.224847 
L 143.850356 259.224847 
L 143.850356 258.515576 
L 144.565997 258.515576 
L 144.565997 257.097035 
L 144.749884 257.097035 
L 144.749884 256.7424 
L 145.291002 256.7424 
L 145.291002 256.033129 
L 145.643288 256.033129 
L 145.712961 255.323859 
L 145.782376 255.323859 
L 145.816988 254.614588 
L 146.057504 254.614588 
L 146.057504 254.259953 
L 146.662213 254.259953 
L 146.662213 253.905318 
L 147.471089 253.905318 
L 147.565858 253.196047 
L 147.628773 253.196047 
L 147.628773 252.841412 
L 148.428077 252.841412 
L 148.428077 252.486776 
L 148.815343 252.486776 
L 148.815343 252.132141 
L 149.020615 252.132141 
L 149.020615 251.777506 
L 149.281288 251.777506 
L 149.281288 251.422871 
L 149.453084 251.422871 
L 149.538397 250.358965 
L 149.65155 250.358965 
L 149.65155 250.004329 
L 149.847944 250.004329 
L 149.931489 249.295059 
L 150.097474 249.295059 
L 150.097474 248.585788 
L 150.289291 248.585788 
L 150.289291 248.231153 
L 150.479171 248.231153 
L 150.506141 247.521882 
L 150.800286 247.521882 
L 150.879716 246.812612 
L 150.958812 246.812612 
L 150.958812 245.394071 
L 151.116012 245.394071 
L 151.116012 245.039435 
L 151.246016 245.039435 
L 151.32359 244.330165 
L 151.375128 244.330165 
L 151.477784 242.911624 
L 151.554409 242.911624 
L 151.554409 242.556988 
L 151.731998 242.556988 
L 151.731998 241.847718 
L 152.007722 241.847718 
L 152.007722 241.138447 
L 152.131727 241.138447 
L 152.131727 240.429176 
L 152.474656 240.429176 
L 152.571498 239.719906 
L 152.787587 239.719906 
L 152.882835 239.010635 
L 152.930279 239.010635 
L 153.001222 237.946729 
L 153.095398 237.946729 
L 153.189104 237.237459 
L 153.212458 237.237459 
L 153.282346 236.528188 
L 153.490466 236.528188 
L 153.490466 236.173553 
L 153.627945 236.173553 
L 153.719042 235.464282 
L 153.787077 235.464282 
L 153.877408 234.045741 
L 153.899924 234.045741 
L 153.899924 233.691106 
L 154.034453 233.691106 
L 154.034453 233.336471 
L 154.190197 233.336471 
L 154.278618 232.6272 
L 154.344662 232.6272 
L 154.454223 231.208659 
L 154.584859 231.208659 
L 154.693034 230.144753 
L 154.886195 230.144753 
L 154.928852 229.435482 
L 155.035072 229.435482 
L 155.098517 228.016941 
L 155.266666 228.016941 
L 155.266666 227.307671 
L 155.598521 227.307671 
L 155.598521 226.953035 
L 155.762279 226.953035 
L 155.843627 226.243765 
L 155.884169 226.243765 
L 155.944819 224.470588 
L 156.165543 224.470588 
L 156.205398 222.697412 
L 156.521235 222.697412 
L 156.599372 220.924235 
L 156.696589 220.924235 
L 156.793307 219.860329 
L 156.831855 219.860329 
L 156.8511 219.151059 
L 157.137431 219.151059 
L 157.194177 217.377882 
L 157.475372 217.377882 
L 157.568177 216.668612 
L 157.605171 216.668612 
L 157.623641 215.959341 
L 157.752425 215.959341 
L 157.752425 214.895435 
L 158.007377 214.895435 
L 158.115593 212.058353 
L 158.133569 212.058353 
L 158.2053 210.639812 
L 158.365703 210.639812 
L 158.365703 210.285176 
L 158.52475 210.285176 
L 158.630038 209.575906 
L 158.734741 209.575906 
L 158.752135 208.866635 
L 158.856162 208.866635 
L 158.959618 207.093459 
L 159.011133 207.093459 
L 159.045398 206.029553 
L 159.14782 206.029553 
L 159.198823 204.965647 
L 159.300416 204.965647 
L 159.384659 204.256376 
L 159.418251 204.256376 
L 159.518669 203.192471 
L 159.816746 203.192471 
L 159.898714 201.419294 
L 160.029123 201.419294 
L 160.126341 200.000753 
L 160.223059 200.000753 
L 160.271232 198.936847 
L 160.478568 198.936847 
L 160.478568 198.227576 
L 160.620781 198.227576 
L 160.730652 195.390494 
L 160.777545 195.390494 
L 160.793149 194.681224 
L 160.933013 194.681224 
L 160.994842 192.553412 
L 161.071844 192.553412 
L 161.17912 190.4256 
L 161.209658 190.4256 
L 161.300977 189.007059 
L 161.331318 189.007059 
L 161.437128 187.233882 
L 161.452196 187.233882 
L 161.497325 184.751435 
L 161.602209 184.751435 
L 161.676769 183.687529 
L 161.765853 183.687529 
L 161.854518 182.623624 
L 161.942766 182.623624 
L 162.030602 180.495812 
L 162.074367 180.495812 
L 162.074367 179.786541 
L 162.248415 179.786541 
L 162.334839 178.368 
L 162.392235 178.368 
L 162.449456 177.658729 
L 162.56338 177.658729 
L 162.648372 176.594824 
L 162.690724 176.594824 
L 162.747046 173.403106 
L 162.817213 173.403106 
L 162.831214 172.693835 
L 162.928937 172.693835 
L 163.026155 171.275294 
L 163.053839 171.275294 
L 163.136649 168.792847 
L 163.205379 168.792847 
L 163.314829 167.728941 
L 163.328465 167.728941 
L 163.423645 166.3104 
L 163.464289 166.3104 
L 163.518345 165.601129 
L 163.59914 165.601129 
L 163.65281 163.473318 
L 163.73303 163.473318 
L 163.73303 163.118682 
L 163.905675 163.118682 
L 163.984826 162.409412 
L 164.07675 162.409412 
L 164.168227 159.926965 
L 164.233297 159.926965 
L 164.298142 157.444518 
L 164.349858 157.444518 
L 164.452864 154.2528 
L 164.491347 154.2528 
L 164.542535 153.188894 
L 164.63178 153.188894 
L 164.733259 151.061082 
L 164.859342 151.061082 
L 164.959603 148.933271 
L 164.972099 148.933271 
L 165.059334 147.160094 
L 165.084184 147.160094 
L 165.121398 146.450824 
L 165.269521 146.450824 
L 165.379853 145.032282 
L 165.392072 145.032282 
L 165.477385 142.904471 
L 165.550204 142.904471 
L 165.622743 140.422024 
L 165.731028 140.422024 
L 165.778956 137.230306 
L 165.91013 137.230306 
L 165.933882 136.521035 
L 166.052194 136.521035 
L 166.111072 134.038588 
L 166.181484 134.038588 
L 166.263299 132.265412 
L 166.344759 132.265412 
L 166.437427 128.719059 
L 166.483591 128.719059 
L 166.575579 128.009788 
L 166.609959 128.009788 
L 166.678531 124.818071 
L 166.792265 124.818071 
L 166.792265 124.463435 
L 166.905315 124.463435 
L 166.984048 123.754165 
L 167.218289 123.754165 
L 167.218289 122.335624 
L 167.350843 122.335624 
L 167.4058 119.853176 
L 167.526142 119.853176 
L 167.602324 118.08 
L 167.656552 118.08 
L 167.753769 116.661459 
L 167.775305 116.661459 
L 167.829037 115.597553 
L 167.91469 115.597553 
L 168.021211 113.115106 
L 168.095418 113.115106 
L 168.200924 110.987294 
L 168.295375 110.987294 
L 168.389355 109.214118 
L 168.410176 109.214118 
L 168.513935 108.150212 
L 168.52428 108.150212 
L 168.596533 106.731671 
L 168.668509 106.731671 
L 168.750432 105.667765 
L 168.801454 105.667765 
L 168.862497 103.185318 
L 168.933465 103.185318 
L 169.004166 101.412141 
L 169.114734 101.412141 
L 169.204718 99.9936 
L 169.264469 99.9936 
L 169.353741 97.511153 
L 169.413021 97.511153 
L 169.413021 96.092612 
L 169.735764 96.092612 
L 169.842126 92.191624 
L 169.880655 92.191624 
L 169.976632 90.418447 
L 170.014887 90.418447 
L 170.014887 90.063812 
L 170.157651 90.063812 
L 170.176605 89.354541 
L 170.355719 89.354541 
L 170.449309 87.226729 
L 170.49593 87.226729 
L 170.561006 85.808188 
L 170.616607 85.808188 
L 170.727317 83.325741 
L 170.809925 83.325741 
L 170.873925 82.261835 
L 171.0194 82.261835 
L 171.091717 81.197929 
L 171.136775 81.197929 
L 171.163758 80.134024 
L 171.333756 80.134024 
L 171.440338 78.715482 
L 171.449192 78.715482 
L 171.528696 78.006212 
L 171.669213 78.006212 
L 171.71291 76.233035 
L 171.860725 76.233035 
L 171.929885 75.169129 
L 171.990192 75.169129 
L 171.990192 74.814494 
L 172.237998 74.814494 
L 172.33959 74.105224 
L 172.449034 74.105224 
L 172.507702 73.395953 
L 172.582865 73.395953 
L 172.682617 71.622776 
L 172.724025 71.622776 
L 172.83126 70.558871 
L 172.913335 70.558871 
L 172.986898 69.140329 
L 173.133165 69.140329 
L 173.230049 68.076424 
L 173.374446 68.076424 
L 173.478047 66.303247 
L 173.493935 66.303247 
L 173.525671 65.593976 
L 173.762 65.593976 
L 173.840121 64.530071 
L 173.886839 64.530071 
L 173.933441 63.8208 
L 174.118701 63.8208 
L 174.157069 62.756894 
L 174.23357 62.756894 
L 174.264083 62.047624 
L 174.362912 62.047624 
L 174.453679 61.338353 
L 174.551519 61.338353 
L 174.551519 60.983718 
L 174.989276 60.983718 
L 175.003938 60.274447 
L 175.128107 60.274447 
L 175.208017 58.855906 
L 175.452888 58.855906 
L 175.488631 58.146635 
L 175.595454 58.146635 
L 175.595454 57.792 
L 175.708734 57.792 
L 175.715792 57.082729 
L 175.842375 57.082729 
L 175.842375 56.728094 
L 175.988986 56.728094 
L 175.988986 56.373459 
L 176.168936 56.373459 
L 176.182707 55.664188 
L 176.435674 55.664188 
L 176.435674 55.309553 
L 176.698683 55.309553 
L 176.698683 54.954918 
L 176.838794 54.954918 
L 176.838794 54.600282 
L 176.991062 54.600282 
L 176.991062 54.245647 
L 177.142107 54.245647 
L 177.142107 53.891012 
L 177.447043 53.891012 
L 177.447043 53.536376 
L 177.696375 53.536376 
L 177.696375 53.181741 
L 177.892232 53.181741 
L 177.973763 52.117835 
L 178.011273 52.117835 
L 178.011273 51.7632 
L 178.351679 51.7632 
L 178.425138 51.053929 
L 178.619637 51.053929 
L 178.619637 50.699294 
L 178.78819 50.699294 
L 178.889793 49.635388 
L 179.103159 49.635388 
L 179.103159 49.280753 
L 179.459261 49.280753 
L 179.459261 48.926118 
L 179.672018 48.926118 
L 179.672018 48.571482 
L 179.865426 48.571482 
L 179.865426 48.216847 
L 179.98952 48.216847 
L 179.995142 47.507576 
L 180.190835 47.507576 
L 180.274084 46.089035 
L 180.362479 46.089035 
L 180.3735 45.379765 
L 180.554408 45.379765 
L 180.554408 45.025129 
L 180.792944 45.025129 
L 180.792944 44.670494 
L 181.0072 44.670494 
L 181.097526 43.606588 
L 181.630555 43.606588 
L 181.651154 42.897318 
L 181.942258 42.897318 
L 181.947325 42.188047 
L 182.103731 42.188047 
L 182.173942 41.478776 
L 182.238904 41.478776 
L 182.348332 39.7056 
L 182.648457 39.7056 
L 182.648457 39.350965 
L 182.939064 39.350965 
L 183.025378 38.641694 
L 183.10177 38.641694 
L 183.10177 38.287059 
L 183.310263 38.287059 
L 183.310263 37.932424 
L 183.60018 37.932424 
L 183.60018 37.223153 
L 183.945019 37.223153 
L 183.995068 36.513882 
L 184.166946 36.513882 
L 184.166946 36.159247 
L 184.629476 36.159247 
L 184.629476 35.804612 
L 184.994929 35.804612 
L 184.994929 35.449976 
L 185.638701 35.449976 
L 185.638701 35.095341 
L 185.972973 35.095341 
L 186.026072 34.386071 
L 186.521195 34.386071 
L 186.588612 33.322165 
L 186.999746 33.322165 
L 186.999746 32.967529 
L 187.242181 32.967529 
L 187.242181 32.612894 
L 187.428605 32.612894 
L 187.428605 32.258259 
L 187.553123 32.258259 
L 187.553123 31.903624 
L 187.929181 31.903624 
L 187.929181 31.548988 
L 188.606202 31.548988 
L 188.623973 30.839718 
L 189.579818 30.839718 
L 189.690921 30.130447 
L 189.947635 30.130447 
L 189.947635 29.775812 
L 190.418521 29.775812 
L 190.524792 29.066541 
L 191.314028 29.066541 
L 191.314028 28.711906 
L 191.510079 28.711906 
L 191.510079 28.357271 
L 192.952643 28.357271 
L 192.952643 28.002635 
L 193.442947 28.002635 
L 193.442947 27.648 
L 360.8064 27.648 
L 360.8064 27.648 
" style="fill:none;stroke:#ff00ff;stroke-linecap:square;stroke-width:1.5;"/>
   </g>
   <g id="line2d_41">
    <defs>
     <path d="M -0 8.485281 
L 5.091169 0 
L 0 -8.485281 
L -5.091169 -0 
z
" id="mf7a3faea19" style="stroke:#ff00ff;stroke-linejoin:miter;stroke-width:1.5;"/>
    </defs>
    <g>
     <use style="fill-opacity:0;stroke:#ff00ff;stroke-linejoin:miter;stroke-width:1.5;" x="152.882835" xlink:href="#mf7a3faea19" y="239.010635"/>
     <use style="fill-opacity:0;stroke:#ff00ff;stroke-linejoin:miter;stroke-width:1.5;" x="169.813178" xlink:href="#mf7a3faea19" y="93.9648"/>
     <use style="fill-opacity:0;stroke:#ff00ff;stroke-linejoin:miter;stroke-width:1.5;" x="193.442947" xlink:href="#mf7a3faea19" y="28.002635"/>
     <use style="fill-opacity:0;stroke:#ff00ff;stroke-linejoin:miter;stroke-width:1.5;" x="193.442947" xlink:href="#mf7a3faea19" y="27.648"/>
     <use style="fill-opacity:0;stroke:#ff00ff;stroke-linejoin:miter;stroke-width:1.5;" x="360.8064" xlink:href="#mf7a3faea19" y="27.648"/>
    </g>
   </g>
   <g id="line2d_42">
    <path style="fill:none;stroke:#ff00ff;stroke-linecap:square;stroke-width:1.5;"/>
    <g/>
   </g>
   <g id="line2d_43">
    <path clip-path="url(#pd2abec9024)" d="M 146.227438 254.259953 
" style="fill:none;stroke:#ff00ff;stroke-linecap:square;stroke-width:1.5;"/>
    <defs>
     <path d="M -12 12 
L 12 -12 
M -12 -12 
L 12 12 
" id="ma3da997c55" style="stroke:#ff00ff;"/>
    </defs>
    <g clip-path="url(#pd2abec9024)">
     <use style="fill:#ff00ff;stroke:#ff00ff;" x="146.227438" xlink:href="#ma3da997c55" y="254.259953"/>
    </g>
   </g>
   <g id="line2d_44">
    <path d="M 360.8064 134.038588 
L 380.514816 293.51808 
" style="fill:none;stroke:#000080;stroke-linecap:square;stroke-width:1.5;"/>
    <g>
     <use style="fill-opacity:0;stroke:#000080;stroke-width:1.5;" x="360.8064" xlink:href="#m6ed39fe2d5" y="134.038588"/>
     <use style="fill-opacity:0;stroke:#000080;stroke-width:1.5;" x="380.514816" xlink:href="#m6ed39fe2d5" y="293.51808"/>
    </g>
   </g>
   <g id="line2d_45">
    <path d="M 360.8064 27.648 
L 380.514816 163.296 
" style="fill:none;stroke:#ff00ff;stroke-linecap:square;stroke-width:1.5;"/>
    <g>
     <use style="fill-opacity:0;stroke:#ff00ff;stroke-linejoin:miter;stroke-width:1.5;" x="360.8064" xlink:href="#mf7a3faea19" y="27.648"/>
     <use style="fill-opacity:0;stroke:#ff00ff;stroke-linejoin:miter;stroke-width:1.5;" x="380.514816" xlink:href="#mf7a3faea19" y="163.296"/>
    </g>
   </g>
   <g id="line2d_46">
    <path d="M 360.8064 298.944 
L 360.8064 27.648 
" style="fill:none;stroke:#000000;stroke-linecap:square;stroke-width:1.5;"/>
   </g>
   <g id="patch_3">
    <path d="M 57.6 298.944 
L 360.8064 298.944 
" style="fill:none;stroke:#000000;stroke-linecap:square;stroke-linejoin:miter;stroke-width:0.8;"/>
   </g>
   <g id="patch_4">
    <path d="M 57.6 27.648 
L 360.8064 27.648 
" style="fill:none;stroke:#000000;stroke-linecap:square;stroke-linejoin:miter;stroke-width:0.8;"/>
   </g>
   <g id="text_13">
    <!-- different -->
    <g transform="translate(386.578944 297.381205)scale(0.14 -0.14)">
     <use xlink:href="#DejaVuSans-64"/>
     <use x="63.476562" xlink:href="#DejaVuSans-69"/>
     <use x="91.259766" xlink:href="#DejaVuSans-66"/>
     <use x="126.464844" xlink:href="#DejaVuSans-66"/>
     <use x="161.669922" xlink:href="#DejaVuSans-65"/>
     <use x="223.193359" xlink:href="#DejaVuSans-72"/>
     <use x="262.056641" xlink:href="#DejaVuSans-65"/>
     <use x="323.580078" xlink:href="#DejaVuSans-6e"/>
     <use x="386.958984" xlink:href="#DejaVuSans-74"/>
    </g>
   </g>
   <g id="text_14">
    <!-- cma.fmin  -->
    <g transform="translate(386.578944 167.159125)scale(0.14 -0.14)">
     <use xlink:href="#DejaVuSans-63"/>
     <use x="54.980469" xlink:href="#DejaVuSans-6d"/>
     <use x="152.392578" xlink:href="#DejaVuSans-61"/>
     <use x="213.671875" xlink:href="#DejaVuSans-2e"/>
     <use x="245.458984" xlink:href="#DejaVuSans-66"/>
     <use x="280.664062" xlink:href="#DejaVuSans-6d"/>
     <use x="378.076172" xlink:href="#DejaVuSans-69"/>
     <use x="405.859375" xlink:href="#DejaVuSans-6e"/>
     <use x="469.238281" xlink:href="#DejaVuSans-20"/>
    </g>
   </g>
   <g id="text_15">
    <!-- best 2009 -->
    <g transform="translate(386.578944 36.937045)scale(0.14 -0.14)">
     <defs>
      <path d="M 3116 1747 
Q 3116 2381 2855 2742 
Q 2594 3103 2138 3103 
Q 1681 3103 1420 2742 
Q 1159 2381 1159 1747 
Q 1159 1113 1420 752 
Q 1681 391 2138 391 
Q 2594 391 2855 752 
Q 3116 1113 3116 1747 
z
M 1159 2969 
Q 1341 3281 1617 3432 
Q 1894 3584 2278 3584 
Q 2916 3584 3314 3078 
Q 3713 2572 3713 1747 
Q 3713 922 3314 415 
Q 2916 -91 2278 -91 
Q 1894 -91 1617 61 
Q 1341 213 1159 525 
L 1159 0 
L 581 0 
L 581 4863 
L 1159 4863 
L 1159 2969 
z
" id="DejaVuSans-62" transform="scale(0.015625)"/>
      <path d="M 703 97 
L 703 672 
Q 941 559 1184 500 
Q 1428 441 1663 441 
Q 2288 441 2617 861 
Q 2947 1281 2994 2138 
Q 2813 1869 2534 1725 
Q 2256 1581 1919 1581 
Q 1219 1581 811 2004 
Q 403 2428 403 3163 
Q 403 3881 828 4315 
Q 1253 4750 1959 4750 
Q 2769 4750 3195 4129 
Q 3622 3509 3622 2328 
Q 3622 1225 3098 567 
Q 2575 -91 1691 -91 
Q 1453 -91 1209 -44 
Q 966 3 703 97 
z
M 1959 2075 
Q 2384 2075 2632 2365 
Q 2881 2656 2881 3163 
Q 2881 3666 2632 3958 
Q 2384 4250 1959 4250 
Q 1534 4250 1286 3958 
Q 1038 3666 1038 3163 
Q 1038 2656 1286 2365 
Q 1534 2075 1959 2075 
z
" id="DejaVuSans-39" transform="scale(0.015625)"/>
     </defs>
     <use xlink:href="#DejaVuSans-62"/>
     <use x="63.476562" xlink:href="#DejaVuSans-65"/>
     <use x="125" xlink:href="#DejaVuSans-73"/>
     <use x="177.099609" xlink:href="#DejaVuSans-74"/>
     <use x="216.308594" xlink:href="#DejaVuSans-20"/>
     <use x="248.095703" xlink:href="#DejaVuSans-32"/>
     <use x="311.71875" xlink:href="#DejaVuSans-30"/>
     <use x="375.341797" xlink:href="#DejaVuSans-30"/>
     <use x="438.964844" xlink:href="#DejaVuSans-39"/>
    </g>
   </g>
   <g id="text_16">
    <!-- bbob f8, 5-D -->
    <g transform="translate(60.632064 38.111366)scale(0.102 -0.102)">
     <defs>
      <path d="M 691 4666 
L 3169 4666 
L 3169 4134 
L 1269 4134 
L 1269 2991 
Q 1406 3038 1543 3061 
Q 1681 3084 1819 3084 
Q 2600 3084 3056 2656 
Q 3513 2228 3513 1497 
Q 3513 744 3044 326 
Q 2575 -91 1722 -91 
Q 1428 -91 1123 -41 
Q 819 9 494 109 
L 494 744 
Q 775 591 1075 516 
Q 1375 441 1709 441 
Q 2250 441 2565 725 
Q 2881 1009 2881 1497 
Q 2881 1984 2565 2268 
Q 2250 2553 1709 2553 
Q 1456 2553 1204 2497 
Q 953 2441 691 2322 
L 691 4666 
z
" id="DejaVuSans-35" transform="scale(0.015625)"/>
      <path d="M 1259 4147 
L 1259 519 
L 2022 519 
Q 2988 519 3436 956 
Q 3884 1394 3884 2338 
Q 3884 3275 3436 3711 
Q 2988 4147 2022 4147 
L 1259 4147 
z
M 628 4666 
L 1925 4666 
Q 3281 4666 3915 4102 
Q 4550 3538 4550 2338 
Q 4550 1131 3912 565 
Q 3275 0 1925 0 
L 628 0 
L 628 4666 
z
" id="DejaVuSans-44" transform="scale(0.015625)"/>
     </defs>
     <use xlink:href="#DejaVuSans-62"/>
     <use x="63.476562" xlink:href="#DejaVuSans-62"/>
     <use x="126.953125" xlink:href="#DejaVuSans-6f"/>
     <use x="188.134766" xlink:href="#DejaVuSans-62"/>
     <use x="251.611328" xlink:href="#DejaVuSans-20"/>
     <use x="283.398438" xlink:href="#DejaVuSans-66"/>
     <use x="318.603516" xlink:href="#DejaVuSans-38"/>
     <use x="382.226562" xlink:href="#DejaVuSans-2c"/>
     <use x="414.013672" xlink:href="#DejaVuSans-20"/>
     <use x="445.800781" xlink:href="#DejaVuSans-35"/>
     <use x="509.423828" xlink:href="#DejaVuSans-2d"/>
     <use x="545.507812" xlink:href="#DejaVuSans-44"/>
    </g>
    <!-- 51 targets: 100..1e-08 -->
    <g transform="translate(60.632064 49.533135)scale(0.102 -0.102)">
     <defs>
      <path d="M 750 794 
L 1409 794 
L 1409 0 
L 750 0 
L 750 794 
z
M 750 3309 
L 1409 3309 
L 1409 2516 
L 750 2516 
L 750 3309 
z
" id="DejaVuSans-3a" transform="scale(0.015625)"/>
     </defs>
     <use xlink:href="#DejaVuSans-35"/>
     <use x="63.623047" xlink:href="#DejaVuSans-31"/>
     <use x="127.246094" xlink:href="#DejaVuSans-20"/>
     <use x="159.033203" xlink:href="#DejaVuSans-74"/>
     <use x="198.242188" xlink:href="#DejaVuSans-61"/>
     <use x="259.521484" xlink:href="#DejaVuSans-72"/>
     <use x="298.884766" xlink:href="#DejaVuSans-67"/>
     <use x="362.361328" xlink:href="#DejaVuSans-65"/>
     <use x="423.884766" xlink:href="#DejaVuSans-74"/>
     <use x="463.09375" xlink:href="#DejaVuSans-73"/>
     <use x="515.193359" xlink:href="#DejaVuSans-3a"/>
     <use x="548.884766" xlink:href="#DejaVuSans-20"/>
     <use x="580.671875" xlink:href="#DejaVuSans-31"/>
     <use x="644.294922" xlink:href="#DejaVuSans-30"/>
     <use x="707.917969" xlink:href="#DejaVuSans-30"/>
     <use x="771.541016" xlink:href="#DejaVuSans-2e"/>
     <use x="803.328125" xlink:href="#DejaVuSans-2e"/>
     <use x="835.115234" xlink:href="#DejaVuSans-31"/>
     <use x="898.738281" xlink:href="#DejaVuSans-65"/>
     <use x="960.261719" xlink:href="#DejaVuSans-2d"/>
     <use x="996.345703" xlink:href="#DejaVuSans-30"/>
     <use x="1059.96875" xlink:href="#DejaVuSans-38"/>
    </g>
    <!-- 15 instances -->
    <g transform="translate(60.632064 60.954904)scale(0.102 -0.102)">
     <use xlink:href="#DejaVuSans-31"/>
     <use x="63.623047" xlink:href="#DejaVuSans-35"/>
     <use x="127.246094" xlink:href="#DejaVuSans-20"/>
     <use x="159.033203" xlink:href="#DejaVuSans-69"/>
     <use x="186.816406" xlink:href="#DejaVuSans-6e"/>
     <use x="250.195312" xlink:href="#DejaVuSans-73"/>
     <use x="302.294922" xlink:href="#DejaVuSans-74"/>
     <use x="341.503906" xlink:href="#DejaVuSans-61"/>
     <use x="402.783203" xlink:href="#DejaVuSans-6e"/>
     <use x="466.162109" xlink:href="#DejaVuSans-63"/>
     <use x="521.142578" xlink:href="#DejaVuSans-65"/>
     <use x="582.666016" xlink:href="#DejaVuSans-73"/>
    </g>
   </g>
   <g id="text_17">
    <!-- v2.6 -->
    <g style="fill:#808080;" transform="translate(198.292262 294.151352)scale(0.1 -0.1)">
     <use xlink:href="#DejaVuSans-76"/>
     <use x="59.179688" xlink:href="#DejaVuSans-32"/>
     <use x="122.802734" xlink:href="#DejaVuSans-2e"/>
     <use x="154.589844" xlink:href="#DejaVuSans-36"/>
    </g>
   </g>
   <g id="text_18">
    <!-- 8 Rosenbrock original -->
    <g transform="translate(101.14695 21.648)scale(0.2 -0.2)">
     <defs>
      <path d="M 2841 2188 
Q 3044 2119 3236 1894 
Q 3428 1669 3622 1275 
L 4263 0 
L 3584 0 
L 2988 1197 
Q 2756 1666 2539 1819 
Q 2322 1972 1947 1972 
L 1259 1972 
L 1259 0 
L 628 0 
L 628 4666 
L 2053 4666 
Q 2853 4666 3247 4331 
Q 3641 3997 3641 3322 
Q 3641 2881 3436 2590 
Q 3231 2300 2841 2188 
z
M 1259 4147 
L 1259 2491 
L 2053 2491 
Q 2509 2491 2742 2702 
Q 2975 2913 2975 3322 
Q 2975 3731 2742 3939 
Q 2509 4147 2053 4147 
L 1259 4147 
z
" id="DejaVuSans-52" transform="scale(0.015625)"/>
      <path d="M 581 4863 
L 1159 4863 
L 1159 1991 
L 2875 3500 
L 3609 3500 
L 1753 1863 
L 3688 0 
L 2938 0 
L 1159 1709 
L 1159 0 
L 581 0 
L 581 4863 
z
" id="DejaVuSans-6b" transform="scale(0.015625)"/>
     </defs>
     <use xlink:href="#DejaVuSans-38"/>
     <use x="63.623047" xlink:href="#DejaVuSans-20"/>
     <use x="95.410156" xlink:href="#DejaVuSans-52"/>
     <use x="160.392578" xlink:href="#DejaVuSans-6f"/>
     <use x="221.574219" xlink:href="#DejaVuSans-73"/>
     <use x="273.673828" xlink:href="#DejaVuSans-65"/>
     <use x="335.197266" xlink:href="#DejaVuSans-6e"/>
     <use x="398.576172" xlink:href="#DejaVuSans-62"/>
     <use x="462.052734" xlink:href="#DejaVuSans-72"/>
     <use x="500.916016" xlink:href="#DejaVuSans-6f"/>
     <use x="562.097656" xlink:href="#DejaVuSans-63"/>
     <use x="617.078125" xlink:href="#DejaVuSans-6b"/>
     <use x="674.988281" xlink:href="#DejaVuSans-20"/>
     <use x="706.775391" xlink:href="#DejaVuSans-6f"/>
     <use x="767.957031" xlink:href="#DejaVuSans-72"/>
     <use x="809.070312" xlink:href="#DejaVuSans-69"/>
     <use x="836.853516" xlink:href="#DejaVuSans-67"/>
     <use x="900.330078" xlink:href="#DejaVuSans-69"/>
     <use x="928.113281" xlink:href="#DejaVuSans-6e"/>
     <use x="991.492188" xlink:href="#DejaVuSans-61"/>
     <use x="1052.771484" xlink:href="#DejaVuSans-6c"/>
    </g>
   </g>
  </g>
 </g>
 <defs>
  <clipPath id="pd2abec9024">
   <rect height="271.296" width="303.2064" x="57.6" y="27.648"/>
  </clipPath>
 </defs>
</svg>
