<?xml version="1.0" encoding="utf-8" standalone="no"?>
<!DOCTYPE svg PUBLIC "-//W3C//DTD SVG 1.1//EN"
  "http://www.w3.org/Graphics/SVG/1.1/DTD/svg11.dtd">
<svg height="345.6pt" version="1.1" viewBox="0 0 460.8 345.6" width="460.8pt" xmlns="http://www.w3.org/2000/svg" xmlns:xlink="http://www.w3.org/1999/xlink">
 <metadata>
  <rdf:RDF xmlns:cc="http://creativecommons.org/ns#" xmlns:dc="http://purl.org/dc/elements/1.1/" xmlns:rdf="http://www.w3.org/1999/02/22-rdf-syntax-ns#">
   <cc:Work>
    <dc:type rdf:resource="http://purl.org/dc/dcmitype/StillImage"/>
    <dc:date>2022-05-07T15:07:41.195385</dc:date>
    <dc:format>image/svg+xml</dc:format>
    <dc:creator>
     <cc:Agent>
      <dc:title>Matplotlib v3.4.3, https://matplotlib.org/</dc:title>
     </cc:Agent>
    </dc:creator>
   </cc:Work>
  </rdf:RDF>
 </metadata>
 <defs>
  <style type="text/css">*{stroke-linecap:butt;stroke-linejoin:round;}</style>
 </defs>
 <g id="figure_1">
  <g id="patch_1">
   <path d="M 0 345.6 
L 460.8 345.6 
L 460.8 0 
L 0 0 
z
" style="fill:#ffffff;"/>
  </g>
  <g id="axes_1">
   <g id="patch_2">
    <path d="M 57.6 298.944 
L 360.8064 298.944 
L 360.8064 27.648 
L 57.6 27.648 
z
" style="fill:#ffffff;"/>
   </g>
   <g id="line2d_1">
    <path d="M 73.268314 298.944 
L 73.268314 293.624471 
L 115.489021 293.624471 
L 115.489021 288.304941 
L 117.695068 288.304941 
L 117.695068 282.985412 
L 118.450653 282.985412 
L 118.450653 277.665882 
L 118.74459 277.665882 
L 118.74459 272.346353 
L 119.319033 272.346353 
L 119.319033 267.026824 
L 123.936316 267.026824 
L 123.936316 261.707294 
L 128.743679 261.707294 
L 128.743679 256.387765 
L 136.836659 256.387765 
L 136.836659 251.068235 
L 139.962047 251.068235 
L 139.962047 245.748706 
L 144.986282 245.748706 
L 144.986282 240.429176 
L 150.138743 240.429176 
L 150.138743 235.109647 
L 153.877408 235.109647 
L 153.877408 229.790118 
L 156.442771 229.790118 
L 156.442771 224.470588 
L 161.512345 224.470588 
L 161.512345 219.151059 
L 162.219518 219.151059 
L 162.219518 213.831529 
L 162.761101 213.831529 
L 162.761101 208.512 
L 163.164171 208.512 
L 163.164171 203.192471 
L 163.612572 203.192471 
L 163.612572 197.872941 
L 164.272231 197.872941 
L 164.272231 192.553412 
L 164.606324 192.553412 
L 164.606324 187.233882 
L 165.133786 187.233882 
L 165.133786 181.914353 
L 165.725029 181.914353 
L 165.725029 176.594824 
L 166.040396 176.594824 
L 166.040396 171.275294 
L 166.39115 171.275294 
L 166.39115 165.955765 
L 166.905315 165.955765 
L 166.905315 160.636235 
L 167.383837 160.636235 
L 167.383837 155.316706 
L 167.952041 155.316706 
L 167.952041 149.997176 
L 168.373724 149.997176 
L 168.373724 144.677647 
L 168.729985 144.677647 
L 168.729985 139.358118 
L 169.06958 139.358118 
L 169.06958 134.038588 
L 169.545722 134.038588 
L 169.545722 128.719059 
L 169.822832 128.719059 
L 169.822832 123.399529 
L 170.100675 123.399529 
L 170.100675 118.08 
L 170.472634 118.08 
L 170.472634 112.760471 
L 170.736514 112.760471 
L 170.736514 107.440941 
L 171.010341 107.440941 
L 171.010341 102.121412 
L 171.488986 102.121412 
L 171.488986 96.801882 
L 171.695443 96.801882 
L 171.695443 91.482353 
L 171.998792 91.482353 
L 171.998792 86.162824 
L 172.297327 86.162824 
L 172.297327 80.843294 
L 172.666028 80.843294 
L 172.666028 75.523765 
L 172.982818 75.523765 
L 172.982818 70.204235 
L 173.270271 70.204235 
L 173.270271 64.884706 
L 173.517742 64.884706 
L 173.517742 59.565176 
L 173.90627 59.565176 
L 173.90627 54.245647 
L 174.191533 54.245647 
L 174.191533 48.926118 
L 174.404568 48.926118 
L 174.404568 43.606588 
L 174.637648 43.606588 
L 174.637648 38.287059 
L 174.912111 38.287059 
L 174.912111 32.967529 
L 175.218888 32.967529 
L 175.218888 27.648 
L 360.8064 27.648 
" style="fill:none;stroke:#f5deb3;stroke-linecap:square;stroke-width:4;"/>
   </g>
   <g id="line2d_2">
    <defs>
     <path d="M -0 7.778175 
L 7.778175 0 
L 0 -7.778175 
L -7.778175 -0 
z
" id="m1c08ee36b4" style="stroke:#f5deb3;stroke-linejoin:miter;stroke-width:1.5;"/>
    </defs>
    <g>
     <use style="fill:#f5deb3;stroke:#f5deb3;stroke-linejoin:miter;stroke-width:1.5;" x="162.219518" xlink:href="#m1c08ee36b4" y="213.831529"/>
     <use style="fill:#f5deb3;stroke:#f5deb3;stroke-linejoin:miter;stroke-width:1.5;" x="175.218888" xlink:href="#m1c08ee36b4" y="32.967529"/>
     <use style="fill:#f5deb3;stroke:#f5deb3;stroke-linejoin:miter;stroke-width:1.5;" x="175.218888" xlink:href="#m1c08ee36b4" y="27.648"/>
     <use style="fill:#f5deb3;stroke:#f5deb3;stroke-linejoin:miter;stroke-width:1.5;" x="175.218888" xlink:href="#m1c08ee36b4" y="27.648"/>
     <use style="fill:#f5deb3;stroke:#f5deb3;stroke-linejoin:miter;stroke-width:1.5;" x="360.8064" xlink:href="#m1c08ee36b4" y="27.648"/>
    </g>
   </g>
   <g id="line2d_3">
    <path style="fill:none;stroke:#f5deb3;stroke-linecap:square;stroke-width:4;"/>
    <g/>
   </g>
   <g id="line2d_4">
    <path d="M 360.8064 27.648 
L 380.514816 33.07392 
" style="fill:none;stroke:#f5deb3;stroke-linecap:square;stroke-width:4;"/>
    <g>
     <use style="fill:#f5deb3;stroke:#f5deb3;stroke-linejoin:miter;stroke-width:1.5;" x="360.8064" xlink:href="#m1c08ee36b4" y="27.648"/>
     <use style="fill:#f5deb3;stroke:#f5deb3;stroke-linejoin:miter;stroke-width:1.5;" x="380.514816" xlink:href="#m1c08ee36b4" y="33.07392"/>
    </g>
   </g>
   <g id="matplotlib.axis_1">
    <g id="xtick_1">
     <g id="line2d_5">
      <path clip-path="url(#pfa66297ff1)" d="M 57.6 298.944 
L 57.6 27.648 
" style="fill:none;stroke:#b0b0b0;stroke-linecap:square;stroke-width:0.8;"/>
     </g>
     <g id="line2d_6">
      <defs>
       <path d="M 0 0 
L 0 3.5 
" id="m81a11abe38" style="stroke:#000000;stroke-width:0.8;"/>
      </defs>
      <g>
       <use style="stroke:#000000;stroke-width:0.8;" x="57.6" xlink:href="#m81a11abe38" y="298.944"/>
      </g>
     </g>
     <g id="text_1">
      <!-- 0 -->
      <g transform="translate(52.191875 318.861344)scale(0.17 -0.17)">
       <defs>
        <path d="M 2034 4250 
Q 1547 4250 1301 3770 
Q 1056 3291 1056 2328 
Q 1056 1369 1301 889 
Q 1547 409 2034 409 
Q 2525 409 2770 889 
Q 3016 1369 3016 2328 
Q 3016 3291 2770 3770 
Q 2525 4250 2034 4250 
z
M 2034 4750 
Q 2819 4750 3233 4129 
Q 3647 3509 3647 2328 
Q 3647 1150 3233 529 
Q 2819 -91 2034 -91 
Q 1250 -91 836 529 
Q 422 1150 422 2328 
Q 422 3509 836 4129 
Q 1250 4750 2034 4750 
z
" id="DejaVuSans-30" transform="scale(0.015625)"/>
       </defs>
       <use xlink:href="#DejaVuSans-30"/>
      </g>
     </g>
    </g>
    <g id="xtick_2">
     <g id="line2d_7">
      <path clip-path="url(#pfa66297ff1)" d="M 144.2304 298.944 
L 144.2304 27.648 
" style="fill:none;stroke:#b0b0b0;stroke-linecap:square;stroke-width:0.8;"/>
     </g>
     <g id="line2d_8">
      <g>
       <use style="stroke:#000000;stroke-width:0.8;" x="144.2304" xlink:href="#m81a11abe38" y="298.944"/>
      </g>
     </g>
     <g id="text_2">
      <!-- 2 -->
      <g transform="translate(138.822275 318.861344)scale(0.17 -0.17)">
       <defs>
        <path d="M 1228 531 
L 3431 531 
L 3431 0 
L 469 0 
L 469 531 
Q 828 903 1448 1529 
Q 2069 2156 2228 2338 
Q 2531 2678 2651 2914 
Q 2772 3150 2772 3378 
Q 2772 3750 2511 3984 
Q 2250 4219 1831 4219 
Q 1534 4219 1204 4116 
Q 875 4013 500 3803 
L 500 4441 
Q 881 4594 1212 4672 
Q 1544 4750 1819 4750 
Q 2544 4750 2975 4387 
Q 3406 4025 3406 3419 
Q 3406 3131 3298 2873 
Q 3191 2616 2906 2266 
Q 2828 2175 2409 1742 
Q 1991 1309 1228 531 
z
" id="DejaVuSans-32" transform="scale(0.015625)"/>
       </defs>
       <use xlink:href="#DejaVuSans-32"/>
      </g>
     </g>
    </g>
    <g id="xtick_3">
     <g id="line2d_9">
      <path clip-path="url(#pfa66297ff1)" d="M 230.8608 298.944 
L 230.8608 27.648 
" style="fill:none;stroke:#b0b0b0;stroke-linecap:square;stroke-width:0.8;"/>
     </g>
     <g id="line2d_10">
      <g>
       <use style="stroke:#000000;stroke-width:0.8;" x="230.8608" xlink:href="#m81a11abe38" y="298.944"/>
      </g>
     </g>
     <g id="text_3">
      <!-- 4 -->
      <g transform="translate(225.452675 318.861344)scale(0.17 -0.17)">
       <defs>
        <path d="M 2419 4116 
L 825 1625 
L 2419 1625 
L 2419 4116 
z
M 2253 4666 
L 3047 4666 
L 3047 1625 
L 3713 1625 
L 3713 1100 
L 3047 1100 
L 3047 0 
L 2419 0 
L 2419 1100 
L 313 1100 
L 313 1709 
L 2253 4666 
z
" id="DejaVuSans-34" transform="scale(0.015625)"/>
       </defs>
       <use xlink:href="#DejaVuSans-34"/>
      </g>
     </g>
    </g>
    <g id="xtick_4">
     <g id="line2d_11">
      <path clip-path="url(#pfa66297ff1)" d="M 317.4912 298.944 
L 317.4912 27.648 
" style="fill:none;stroke:#b0b0b0;stroke-linecap:square;stroke-width:0.8;"/>
     </g>
     <g id="line2d_12">
      <g>
       <use style="stroke:#000000;stroke-width:0.8;" x="317.4912" xlink:href="#m81a11abe38" y="298.944"/>
      </g>
     </g>
     <g id="text_4">
      <!-- 6 -->
      <g transform="translate(312.083075 318.861344)scale(0.17 -0.17)">
       <defs>
        <path d="M 2113 2584 
Q 1688 2584 1439 2293 
Q 1191 2003 1191 1497 
Q 1191 994 1439 701 
Q 1688 409 2113 409 
Q 2538 409 2786 701 
Q 3034 994 3034 1497 
Q 3034 2003 2786 2293 
Q 2538 2584 2113 2584 
z
M 3366 4563 
L 3366 3988 
Q 3128 4100 2886 4159 
Q 2644 4219 2406 4219 
Q 1781 4219 1451 3797 
Q 1122 3375 1075 2522 
Q 1259 2794 1537 2939 
Q 1816 3084 2150 3084 
Q 2853 3084 3261 2657 
Q 3669 2231 3669 1497 
Q 3669 778 3244 343 
Q 2819 -91 2113 -91 
Q 1303 -91 875 529 
Q 447 1150 447 2328 
Q 447 3434 972 4092 
Q 1497 4750 2381 4750 
Q 2619 4750 2861 4703 
Q 3103 4656 3366 4563 
z
" id="DejaVuSans-36" transform="scale(0.015625)"/>
       </defs>
       <use xlink:href="#DejaVuSans-36"/>
      </g>
     </g>
    </g>
    <g id="xtick_5">
     <g id="line2d_13">
      <path clip-path="url(#pfa66297ff1)" d="M 100.9152 298.944 
L 100.9152 27.648 
" style="fill:none;stroke:#b0b0b0;stroke-linecap:square;stroke-width:0.8;"/>
     </g>
     <g id="line2d_14">
      <defs>
       <path d="M 0 0 
L 0 2 
" id="m395ca71b35" style="stroke:#000000;stroke-width:0.6;"/>
      </defs>
      <g>
       <use style="stroke:#000000;stroke-width:0.6;" x="100.9152" xlink:href="#m395ca71b35" y="298.944"/>
      </g>
     </g>
    </g>
    <g id="xtick_6">
     <g id="line2d_15">
      <path clip-path="url(#pfa66297ff1)" d="M 187.5456 298.944 
L 187.5456 27.648 
" style="fill:none;stroke:#b0b0b0;stroke-linecap:square;stroke-width:0.8;"/>
     </g>
     <g id="line2d_16">
      <g>
       <use style="stroke:#000000;stroke-width:0.6;" x="187.5456" xlink:href="#m395ca71b35" y="298.944"/>
      </g>
     </g>
    </g>
    <g id="xtick_7">
     <g id="line2d_17">
      <path clip-path="url(#pfa66297ff1)" d="M 274.176 298.944 
L 274.176 27.648 
" style="fill:none;stroke:#b0b0b0;stroke-linecap:square;stroke-width:0.8;"/>
     </g>
     <g id="line2d_18">
      <g>
       <use style="stroke:#000000;stroke-width:0.6;" x="274.176" xlink:href="#m395ca71b35" y="298.944"/>
      </g>
     </g>
    </g>
    <g id="xtick_8">
     <g id="line2d_19">
      <path clip-path="url(#pfa66297ff1)" d="M 360.8064 298.944 
L 360.8064 27.648 
" style="fill:none;stroke:#b0b0b0;stroke-linecap:square;stroke-width:0.8;"/>
     </g>
     <g id="line2d_20">
      <g>
       <use style="stroke:#000000;stroke-width:0.6;" x="360.8064" xlink:href="#m395ca71b35" y="298.944"/>
      </g>
     </g>
    </g>
    <g id="text_5">
     <!-- log10(# f-evals / dimension) -->
     <g transform="translate(88.823278 339.314156)scale(0.17 -0.17)">
      <defs>
       <path d="M 603 4863 
L 1178 4863 
L 1178 0 
L 603 0 
L 603 4863 
z
" id="DejaVuSans-6c" transform="scale(0.015625)"/>
       <path d="M 1959 3097 
Q 1497 3097 1228 2736 
Q 959 2375 959 1747 
Q 959 1119 1226 758 
Q 1494 397 1959 397 
Q 2419 397 2687 759 
Q 2956 1122 2956 1747 
Q 2956 2369 2687 2733 
Q 2419 3097 1959 3097 
z
M 1959 3584 
Q 2709 3584 3137 3096 
Q 3566 2609 3566 1747 
Q 3566 888 3137 398 
Q 2709 -91 1959 -91 
Q 1206 -91 779 398 
Q 353 888 353 1747 
Q 353 2609 779 3096 
Q 1206 3584 1959 3584 
z
" id="DejaVuSans-6f" transform="scale(0.015625)"/>
       <path d="M 2906 1791 
Q 2906 2416 2648 2759 
Q 2391 3103 1925 3103 
Q 1463 3103 1205 2759 
Q 947 2416 947 1791 
Q 947 1169 1205 825 
Q 1463 481 1925 481 
Q 2391 481 2648 825 
Q 2906 1169 2906 1791 
z
M 3481 434 
Q 3481 -459 3084 -895 
Q 2688 -1331 1869 -1331 
Q 1566 -1331 1297 -1286 
Q 1028 -1241 775 -1147 
L 775 -588 
Q 1028 -725 1275 -790 
Q 1522 -856 1778 -856 
Q 2344 -856 2625 -561 
Q 2906 -266 2906 331 
L 2906 616 
Q 2728 306 2450 153 
Q 2172 0 1784 0 
Q 1141 0 747 490 
Q 353 981 353 1791 
Q 353 2603 747 3093 
Q 1141 3584 1784 3584 
Q 2172 3584 2450 3431 
Q 2728 3278 2906 2969 
L 2906 3500 
L 3481 3500 
L 3481 434 
z
" id="DejaVuSans-67" transform="scale(0.015625)"/>
       <path d="M 794 531 
L 1825 531 
L 1825 4091 
L 703 3866 
L 703 4441 
L 1819 4666 
L 2450 4666 
L 2450 531 
L 3481 531 
L 3481 0 
L 794 0 
L 794 531 
z
" id="DejaVuSans-31" transform="scale(0.015625)"/>
       <path d="M 1984 4856 
Q 1566 4138 1362 3434 
Q 1159 2731 1159 2009 
Q 1159 1288 1364 580 
Q 1569 -128 1984 -844 
L 1484 -844 
Q 1016 -109 783 600 
Q 550 1309 550 2009 
Q 550 2706 781 3412 
Q 1013 4119 1484 4856 
L 1984 4856 
z
" id="DejaVuSans-28" transform="scale(0.015625)"/>
       <path d="M 3272 2816 
L 2363 2816 
L 2100 1772 
L 3016 1772 
L 3272 2816 
z
M 2803 4594 
L 2478 3297 
L 3391 3297 
L 3719 4594 
L 4219 4594 
L 3897 3297 
L 4872 3297 
L 4872 2816 
L 3775 2816 
L 3519 1772 
L 4513 1772 
L 4513 1294 
L 3397 1294 
L 3072 0 
L 2572 0 
L 2894 1294 
L 1978 1294 
L 1656 0 
L 1153 0 
L 1478 1294 
L 494 1294 
L 494 1772 
L 1594 1772 
L 1856 2816 
L 850 2816 
L 850 3297 
L 1978 3297 
L 2297 4594 
L 2803 4594 
z
" id="DejaVuSans-23" transform="scale(0.015625)"/>
       <path id="DejaVuSans-20" transform="scale(0.015625)"/>
       <path d="M 2375 4863 
L 2375 4384 
L 1825 4384 
Q 1516 4384 1395 4259 
Q 1275 4134 1275 3809 
L 1275 3500 
L 2222 3500 
L 2222 3053 
L 1275 3053 
L 1275 0 
L 697 0 
L 697 3053 
L 147 3053 
L 147 3500 
L 697 3500 
L 697 3744 
Q 697 4328 969 4595 
Q 1241 4863 1831 4863 
L 2375 4863 
z
" id="DejaVuSans-66" transform="scale(0.015625)"/>
       <path d="M 313 2009 
L 1997 2009 
L 1997 1497 
L 313 1497 
L 313 2009 
z
" id="DejaVuSans-2d" transform="scale(0.015625)"/>
       <path d="M 3597 1894 
L 3597 1613 
L 953 1613 
Q 991 1019 1311 708 
Q 1631 397 2203 397 
Q 2534 397 2845 478 
Q 3156 559 3463 722 
L 3463 178 
Q 3153 47 2828 -22 
Q 2503 -91 2169 -91 
Q 1331 -91 842 396 
Q 353 884 353 1716 
Q 353 2575 817 3079 
Q 1281 3584 2069 3584 
Q 2775 3584 3186 3129 
Q 3597 2675 3597 1894 
z
M 3022 2063 
Q 3016 2534 2758 2815 
Q 2500 3097 2075 3097 
Q 1594 3097 1305 2825 
Q 1016 2553 972 2059 
L 3022 2063 
z
" id="DejaVuSans-65" transform="scale(0.015625)"/>
       <path d="M 191 3500 
L 800 3500 
L 1894 563 
L 2988 3500 
L 3597 3500 
L 2284 0 
L 1503 0 
L 191 3500 
z
" id="DejaVuSans-76" transform="scale(0.015625)"/>
       <path d="M 2194 1759 
Q 1497 1759 1228 1600 
Q 959 1441 959 1056 
Q 959 750 1161 570 
Q 1363 391 1709 391 
Q 2188 391 2477 730 
Q 2766 1069 2766 1631 
L 2766 1759 
L 2194 1759 
z
M 3341 1997 
L 3341 0 
L 2766 0 
L 2766 531 
Q 2569 213 2275 61 
Q 1981 -91 1556 -91 
Q 1019 -91 701 211 
Q 384 513 384 1019 
Q 384 1609 779 1909 
Q 1175 2209 1959 2209 
L 2766 2209 
L 2766 2266 
Q 2766 2663 2505 2880 
Q 2244 3097 1772 3097 
Q 1472 3097 1187 3025 
Q 903 2953 641 2809 
L 641 3341 
Q 956 3463 1253 3523 
Q 1550 3584 1831 3584 
Q 2591 3584 2966 3190 
Q 3341 2797 3341 1997 
z
" id="DejaVuSans-61" transform="scale(0.015625)"/>
       <path d="M 2834 3397 
L 2834 2853 
Q 2591 2978 2328 3040 
Q 2066 3103 1784 3103 
Q 1356 3103 1142 2972 
Q 928 2841 928 2578 
Q 928 2378 1081 2264 
Q 1234 2150 1697 2047 
L 1894 2003 
Q 2506 1872 2764 1633 
Q 3022 1394 3022 966 
Q 3022 478 2636 193 
Q 2250 -91 1575 -91 
Q 1294 -91 989 -36 
Q 684 19 347 128 
L 347 722 
Q 666 556 975 473 
Q 1284 391 1588 391 
Q 1994 391 2212 530 
Q 2431 669 2431 922 
Q 2431 1156 2273 1281 
Q 2116 1406 1581 1522 
L 1381 1569 
Q 847 1681 609 1914 
Q 372 2147 372 2553 
Q 372 3047 722 3315 
Q 1072 3584 1716 3584 
Q 2034 3584 2315 3537 
Q 2597 3491 2834 3397 
z
" id="DejaVuSans-73" transform="scale(0.015625)"/>
       <path d="M 1625 4666 
L 2156 4666 
L 531 -594 
L 0 -594 
L 1625 4666 
z
" id="DejaVuSans-2f" transform="scale(0.015625)"/>
       <path d="M 2906 2969 
L 2906 4863 
L 3481 4863 
L 3481 0 
L 2906 0 
L 2906 525 
Q 2725 213 2448 61 
Q 2172 -91 1784 -91 
Q 1150 -91 751 415 
Q 353 922 353 1747 
Q 353 2572 751 3078 
Q 1150 3584 1784 3584 
Q 2172 3584 2448 3432 
Q 2725 3281 2906 2969 
z
M 947 1747 
Q 947 1113 1208 752 
Q 1469 391 1925 391 
Q 2381 391 2643 752 
Q 2906 1113 2906 1747 
Q 2906 2381 2643 2742 
Q 2381 3103 1925 3103 
Q 1469 3103 1208 2742 
Q 947 2381 947 1747 
z
" id="DejaVuSans-64" transform="scale(0.015625)"/>
       <path d="M 603 3500 
L 1178 3500 
L 1178 0 
L 603 0 
L 603 3500 
z
M 603 4863 
L 1178 4863 
L 1178 4134 
L 603 4134 
L 603 4863 
z
" id="DejaVuSans-69" transform="scale(0.015625)"/>
       <path d="M 3328 2828 
Q 3544 3216 3844 3400 
Q 4144 3584 4550 3584 
Q 5097 3584 5394 3201 
Q 5691 2819 5691 2113 
L 5691 0 
L 5113 0 
L 5113 2094 
Q 5113 2597 4934 2840 
Q 4756 3084 4391 3084 
Q 3944 3084 3684 2787 
Q 3425 2491 3425 1978 
L 3425 0 
L 2847 0 
L 2847 2094 
Q 2847 2600 2669 2842 
Q 2491 3084 2119 3084 
Q 1678 3084 1418 2786 
Q 1159 2488 1159 1978 
L 1159 0 
L 581 0 
L 581 3500 
L 1159 3500 
L 1159 2956 
Q 1356 3278 1631 3431 
Q 1906 3584 2284 3584 
Q 2666 3584 2933 3390 
Q 3200 3197 3328 2828 
z
" id="DejaVuSans-6d" transform="scale(0.015625)"/>
       <path d="M 3513 2113 
L 3513 0 
L 2938 0 
L 2938 2094 
Q 2938 2591 2744 2837 
Q 2550 3084 2163 3084 
Q 1697 3084 1428 2787 
Q 1159 2491 1159 1978 
L 1159 0 
L 581 0 
L 581 3500 
L 1159 3500 
L 1159 2956 
Q 1366 3272 1645 3428 
Q 1925 3584 2291 3584 
Q 2894 3584 3203 3211 
Q 3513 2838 3513 2113 
z
" id="DejaVuSans-6e" transform="scale(0.015625)"/>
       <path d="M 513 4856 
L 1013 4856 
Q 1481 4119 1714 3412 
Q 1947 2706 1947 2009 
Q 1947 1309 1714 600 
Q 1481 -109 1013 -844 
L 513 -844 
Q 928 -128 1133 580 
Q 1338 1288 1338 2009 
Q 1338 2731 1133 3434 
Q 928 4138 513 4856 
z
" id="DejaVuSans-29" transform="scale(0.015625)"/>
      </defs>
      <use xlink:href="#DejaVuSans-6c"/>
      <use x="27.783203" xlink:href="#DejaVuSans-6f"/>
      <use x="88.964844" xlink:href="#DejaVuSans-67"/>
      <use x="152.441406" xlink:href="#DejaVuSans-31"/>
      <use x="216.064453" xlink:href="#DejaVuSans-30"/>
      <use x="279.6875" xlink:href="#DejaVuSans-28"/>
      <use x="318.701172" xlink:href="#DejaVuSans-23"/>
      <use x="402.490234" xlink:href="#DejaVuSans-20"/>
      <use x="434.277344" xlink:href="#DejaVuSans-66"/>
      <use x="463.982422" xlink:href="#DejaVuSans-2d"/>
      <use x="500.066406" xlink:href="#DejaVuSans-65"/>
      <use x="561.589844" xlink:href="#DejaVuSans-76"/>
      <use x="620.769531" xlink:href="#DejaVuSans-61"/>
      <use x="682.048828" xlink:href="#DejaVuSans-6c"/>
      <use x="709.832031" xlink:href="#DejaVuSans-73"/>
      <use x="761.931641" xlink:href="#DejaVuSans-20"/>
      <use x="793.71875" xlink:href="#DejaVuSans-2f"/>
      <use x="827.410156" xlink:href="#DejaVuSans-20"/>
      <use x="859.197266" xlink:href="#DejaVuSans-64"/>
      <use x="922.673828" xlink:href="#DejaVuSans-69"/>
      <use x="950.457031" xlink:href="#DejaVuSans-6d"/>
      <use x="1047.869141" xlink:href="#DejaVuSans-65"/>
      <use x="1109.392578" xlink:href="#DejaVuSans-6e"/>
      <use x="1172.771484" xlink:href="#DejaVuSans-73"/>
      <use x="1224.871094" xlink:href="#DejaVuSans-69"/>
      <use x="1252.654297" xlink:href="#DejaVuSans-6f"/>
      <use x="1313.835938" xlink:href="#DejaVuSans-6e"/>
      <use x="1377.214844" xlink:href="#DejaVuSans-29"/>
     </g>
    </g>
   </g>
   <g id="matplotlib.axis_2">
    <g id="ytick_1">
     <g id="line2d_21">
      <path clip-path="url(#pfa66297ff1)" d="M 57.6 298.944 
L 360.8064 298.944 
" style="fill:none;stroke:#b0b0b0;stroke-linecap:square;stroke-width:0.8;"/>
     </g>
     <g id="line2d_22">
      <defs>
       <path d="M 0 0 
L -3.5 0 
" id="m06f74cabf0" style="stroke:#000000;stroke-width:0.8;"/>
      </defs>
      <g>
       <use style="stroke:#000000;stroke-width:0.8;" x="57.6" xlink:href="#m06f74cabf0" y="298.944"/>
      </g>
     </g>
     <g id="text_6">
      <!-- 0.0 -->
      <g transform="translate(25.155 305.02275)scale(0.16 -0.16)">
       <defs>
        <path d="M 684 794 
L 1344 794 
L 1344 0 
L 684 0 
L 684 794 
z
" id="DejaVuSans-2e" transform="scale(0.015625)"/>
       </defs>
       <use xlink:href="#DejaVuSans-30"/>
       <use x="63.623047" xlink:href="#DejaVuSans-2e"/>
       <use x="95.410156" xlink:href="#DejaVuSans-30"/>
      </g>
     </g>
    </g>
    <g id="ytick_2">
     <g id="line2d_23">
      <path clip-path="url(#pfa66297ff1)" d="M 57.6 244.6848 
L 360.8064 244.6848 
" style="fill:none;stroke:#b0b0b0;stroke-linecap:square;stroke-width:0.8;"/>
     </g>
     <g id="line2d_24">
      <g>
       <use style="stroke:#000000;stroke-width:0.8;" x="57.6" xlink:href="#m06f74cabf0" y="244.6848"/>
      </g>
     </g>
     <g id="text_7">
      <!-- 0.2 -->
      <g transform="translate(25.155 250.76355)scale(0.16 -0.16)">
       <use xlink:href="#DejaVuSans-30"/>
       <use x="63.623047" xlink:href="#DejaVuSans-2e"/>
       <use x="95.410156" xlink:href="#DejaVuSans-32"/>
      </g>
     </g>
    </g>
    <g id="ytick_3">
     <g id="line2d_25">
      <path clip-path="url(#pfa66297ff1)" d="M 57.6 190.4256 
L 360.8064 190.4256 
" style="fill:none;stroke:#b0b0b0;stroke-linecap:square;stroke-width:0.8;"/>
     </g>
     <g id="line2d_26">
      <g>
       <use style="stroke:#000000;stroke-width:0.8;" x="57.6" xlink:href="#m06f74cabf0" y="190.4256"/>
      </g>
     </g>
     <g id="text_8">
      <!-- 0.4 -->
      <g transform="translate(25.155 196.50435)scale(0.16 -0.16)">
       <use xlink:href="#DejaVuSans-30"/>
       <use x="63.623047" xlink:href="#DejaVuSans-2e"/>
       <use x="95.410156" xlink:href="#DejaVuSans-34"/>
      </g>
     </g>
    </g>
    <g id="ytick_4">
     <g id="line2d_27">
      <path clip-path="url(#pfa66297ff1)" d="M 57.6 136.1664 
L 360.8064 136.1664 
" style="fill:none;stroke:#b0b0b0;stroke-linecap:square;stroke-width:0.8;"/>
     </g>
     <g id="line2d_28">
      <g>
       <use style="stroke:#000000;stroke-width:0.8;" x="57.6" xlink:href="#m06f74cabf0" y="136.1664"/>
      </g>
     </g>
     <g id="text_9">
      <!-- 0.6 -->
      <g transform="translate(25.155 142.24515)scale(0.16 -0.16)">
       <use xlink:href="#DejaVuSans-30"/>
       <use x="63.623047" xlink:href="#DejaVuSans-2e"/>
       <use x="95.410156" xlink:href="#DejaVuSans-36"/>
      </g>
     </g>
    </g>
    <g id="ytick_5">
     <g id="line2d_29">
      <path clip-path="url(#pfa66297ff1)" d="M 57.6 81.9072 
L 360.8064 81.9072 
" style="fill:none;stroke:#b0b0b0;stroke-linecap:square;stroke-width:0.8;"/>
     </g>
     <g id="line2d_30">
      <g>
       <use style="stroke:#000000;stroke-width:0.8;" x="57.6" xlink:href="#m06f74cabf0" y="81.9072"/>
      </g>
     </g>
     <g id="text_10">
      <!-- 0.8 -->
      <g transform="translate(25.155 87.98595)scale(0.16 -0.16)">
       <defs>
        <path d="M 2034 2216 
Q 1584 2216 1326 1975 
Q 1069 1734 1069 1313 
Q 1069 891 1326 650 
Q 1584 409 2034 409 
Q 2484 409 2743 651 
Q 3003 894 3003 1313 
Q 3003 1734 2745 1975 
Q 2488 2216 2034 2216 
z
M 1403 2484 
Q 997 2584 770 2862 
Q 544 3141 544 3541 
Q 544 4100 942 4425 
Q 1341 4750 2034 4750 
Q 2731 4750 3128 4425 
Q 3525 4100 3525 3541 
Q 3525 3141 3298 2862 
Q 3072 2584 2669 2484 
Q 3125 2378 3379 2068 
Q 3634 1759 3634 1313 
Q 3634 634 3220 271 
Q 2806 -91 2034 -91 
Q 1263 -91 848 271 
Q 434 634 434 1313 
Q 434 1759 690 2068 
Q 947 2378 1403 2484 
z
M 1172 3481 
Q 1172 3119 1398 2916 
Q 1625 2713 2034 2713 
Q 2441 2713 2670 2916 
Q 2900 3119 2900 3481 
Q 2900 3844 2670 4047 
Q 2441 4250 2034 4250 
Q 1625 4250 1398 4047 
Q 1172 3844 1172 3481 
z
" id="DejaVuSans-38" transform="scale(0.015625)"/>
       </defs>
       <use xlink:href="#DejaVuSans-30"/>
       <use x="63.623047" xlink:href="#DejaVuSans-2e"/>
       <use x="95.410156" xlink:href="#DejaVuSans-38"/>
      </g>
     </g>
    </g>
    <g id="ytick_6">
     <g id="line2d_31">
      <path clip-path="url(#pfa66297ff1)" d="M 57.6 27.648 
L 360.8064 27.648 
" style="fill:none;stroke:#b0b0b0;stroke-linecap:square;stroke-width:0.8;"/>
     </g>
     <g id="line2d_32">
      <g>
       <use style="stroke:#000000;stroke-width:0.8;" x="57.6" xlink:href="#m06f74cabf0" y="27.648"/>
      </g>
     </g>
     <g id="text_11">
      <!-- 1.0 -->
      <g transform="translate(25.155 33.72675)scale(0.16 -0.16)">
       <use xlink:href="#DejaVuSans-31"/>
       <use x="63.623047" xlink:href="#DejaVuSans-2e"/>
       <use x="95.410156" xlink:href="#DejaVuSans-30"/>
      </g>
     </g>
    </g>
    <g id="text_12">
     <!-- Fraction of function,target pairs -->
     <g transform="translate(17.619531 297.681)rotate(-90)scale(0.17 -0.17)">
      <defs>
       <path d="M 628 4666 
L 3309 4666 
L 3309 4134 
L 1259 4134 
L 1259 2759 
L 3109 2759 
L 3109 2228 
L 1259 2228 
L 1259 0 
L 628 0 
L 628 4666 
z
" id="DejaVuSans-46" transform="scale(0.015625)"/>
       <path d="M 2631 2963 
Q 2534 3019 2420 3045 
Q 2306 3072 2169 3072 
Q 1681 3072 1420 2755 
Q 1159 2438 1159 1844 
L 1159 0 
L 581 0 
L 581 3500 
L 1159 3500 
L 1159 2956 
Q 1341 3275 1631 3429 
Q 1922 3584 2338 3584 
Q 2397 3584 2469 3576 
Q 2541 3569 2628 3553 
L 2631 2963 
z
" id="DejaVuSans-72" transform="scale(0.015625)"/>
       <path d="M 3122 3366 
L 3122 2828 
Q 2878 2963 2633 3030 
Q 2388 3097 2138 3097 
Q 1578 3097 1268 2742 
Q 959 2388 959 1747 
Q 959 1106 1268 751 
Q 1578 397 2138 397 
Q 2388 397 2633 464 
Q 2878 531 3122 666 
L 3122 134 
Q 2881 22 2623 -34 
Q 2366 -91 2075 -91 
Q 1284 -91 818 406 
Q 353 903 353 1747 
Q 353 2603 823 3093 
Q 1294 3584 2113 3584 
Q 2378 3584 2631 3529 
Q 2884 3475 3122 3366 
z
" id="DejaVuSans-63" transform="scale(0.015625)"/>
       <path d="M 1172 4494 
L 1172 3500 
L 2356 3500 
L 2356 3053 
L 1172 3053 
L 1172 1153 
Q 1172 725 1289 603 
Q 1406 481 1766 481 
L 2356 481 
L 2356 0 
L 1766 0 
Q 1100 0 847 248 
Q 594 497 594 1153 
L 594 3053 
L 172 3053 
L 172 3500 
L 594 3500 
L 594 4494 
L 1172 4494 
z
" id="DejaVuSans-74" transform="scale(0.015625)"/>
       <path d="M 544 1381 
L 544 3500 
L 1119 3500 
L 1119 1403 
Q 1119 906 1312 657 
Q 1506 409 1894 409 
Q 2359 409 2629 706 
Q 2900 1003 2900 1516 
L 2900 3500 
L 3475 3500 
L 3475 0 
L 2900 0 
L 2900 538 
Q 2691 219 2414 64 
Q 2138 -91 1772 -91 
Q 1169 -91 856 284 
Q 544 659 544 1381 
z
M 1991 3584 
L 1991 3584 
z
" id="DejaVuSans-75" transform="scale(0.015625)"/>
       <path d="M 750 794 
L 1409 794 
L 1409 256 
L 897 -744 
L 494 -744 
L 750 256 
L 750 794 
z
" id="DejaVuSans-2c" transform="scale(0.015625)"/>
       <path d="M 1159 525 
L 1159 -1331 
L 581 -1331 
L 581 3500 
L 1159 3500 
L 1159 2969 
Q 1341 3281 1617 3432 
Q 1894 3584 2278 3584 
Q 2916 3584 3314 3078 
Q 3713 2572 3713 1747 
Q 3713 922 3314 415 
Q 2916 -91 2278 -91 
Q 1894 -91 1617 61 
Q 1341 213 1159 525 
z
M 3116 1747 
Q 3116 2381 2855 2742 
Q 2594 3103 2138 3103 
Q 1681 3103 1420 2742 
Q 1159 2381 1159 1747 
Q 1159 1113 1420 752 
Q 1681 391 2138 391 
Q 2594 391 2855 752 
Q 3116 1113 3116 1747 
z
" id="DejaVuSans-70" transform="scale(0.015625)"/>
      </defs>
      <use xlink:href="#DejaVuSans-46"/>
      <use x="50.269531" xlink:href="#DejaVuSans-72"/>
      <use x="91.382812" xlink:href="#DejaVuSans-61"/>
      <use x="152.662109" xlink:href="#DejaVuSans-63"/>
      <use x="207.642578" xlink:href="#DejaVuSans-74"/>
      <use x="246.851562" xlink:href="#DejaVuSans-69"/>
      <use x="274.634766" xlink:href="#DejaVuSans-6f"/>
      <use x="335.816406" xlink:href="#DejaVuSans-6e"/>
      <use x="399.195312" xlink:href="#DejaVuSans-20"/>
      <use x="430.982422" xlink:href="#DejaVuSans-6f"/>
      <use x="492.164062" xlink:href="#DejaVuSans-66"/>
      <use x="527.369141" xlink:href="#DejaVuSans-20"/>
      <use x="559.15625" xlink:href="#DejaVuSans-66"/>
      <use x="594.361328" xlink:href="#DejaVuSans-75"/>
      <use x="657.740234" xlink:href="#DejaVuSans-6e"/>
      <use x="721.119141" xlink:href="#DejaVuSans-63"/>
      <use x="776.099609" xlink:href="#DejaVuSans-74"/>
      <use x="815.308594" xlink:href="#DejaVuSans-69"/>
      <use x="843.091797" xlink:href="#DejaVuSans-6f"/>
      <use x="904.273438" xlink:href="#DejaVuSans-6e"/>
      <use x="967.652344" xlink:href="#DejaVuSans-2c"/>
      <use x="999.439453" xlink:href="#DejaVuSans-74"/>
      <use x="1038.648438" xlink:href="#DejaVuSans-61"/>
      <use x="1099.927734" xlink:href="#DejaVuSans-72"/>
      <use x="1139.291016" xlink:href="#DejaVuSans-67"/>
      <use x="1202.767578" xlink:href="#DejaVuSans-65"/>
      <use x="1264.291016" xlink:href="#DejaVuSans-74"/>
      <use x="1303.5" xlink:href="#DejaVuSans-20"/>
      <use x="1335.287109" xlink:href="#DejaVuSans-70"/>
      <use x="1398.763672" xlink:href="#DejaVuSans-61"/>
      <use x="1460.042969" xlink:href="#DejaVuSans-69"/>
      <use x="1487.826172" xlink:href="#DejaVuSans-72"/>
      <use x="1528.939453" xlink:href="#DejaVuSans-73"/>
     </g>
    </g>
   </g>
   <g id="line2d_33">
    <defs>
     <path d="M 0 1.5 
C 0.397805 1.5 0.77937 1.341951 1.06066 1.06066 
C 1.341951 0.77937 1.5 0.397805 1.5 0 
C 1.5 -0.397805 1.341951 -0.77937 1.06066 -1.06066 
C 0.77937 -1.341951 0.397805 -1.5 0 -1.5 
C -0.397805 -1.5 -0.77937 -1.341951 -1.06066 -1.06066 
C -1.341951 -0.77937 -1.5 -0.397805 -1.5 0 
C -1.5 0.397805 -1.341951 0.77937 -1.06066 1.06066 
C -0.77937 1.341951 -0.397805 1.5 0 1.5 
z
" id="mc6d674262f" style="stroke:#f5deb3;"/>
    </defs>
    <g>
     <use style="fill:#f5deb3;stroke:#f5deb3;" x="175.218888" xlink:href="#mc6d674262f" y="27.648"/>
     <use style="fill:#f5deb3;stroke:#f5deb3;" x="175.218888" xlink:href="#mc6d674262f" y="27.648"/>
    </g>
   </g>
   <g id="line2d_34">
    <defs>
     <path d="M 0 1.5 
C 0.397805 1.5 0.77937 1.341951 1.06066 1.06066 
C 1.341951 0.77937 1.5 0.397805 1.5 0 
C 1.5 -0.397805 1.341951 -0.77937 1.06066 -1.06066 
C 0.77937 -1.341951 0.397805 -1.5 0 -1.5 
C -0.397805 -1.5 -0.77937 -1.341951 -1.06066 -1.06066 
C -1.341951 -0.77937 -1.5 -0.397805 -1.5 0 
C -1.5 0.397805 -1.341951 0.77937 -1.06066 1.06066 
C -0.77937 1.341951 -0.397805 1.5 0 1.5 
z
" id="m31f339d802" style="stroke:#000080;"/>
    </defs>
    <g>
     <use style="fill:#000080;stroke:#000080;" x="291.782322" xlink:href="#m31f339d802" y="277.665882"/>
     <use style="fill:#000080;stroke:#000080;" x="291.782322" xlink:href="#m31f339d802" y="277.665882"/>
    </g>
   </g>
   <g id="line2d_35">
    <path d="M 117.772007 298.944 
L 117.772007 298.589365 
L 126.372018 298.589365 
L 126.372018 298.234729 
L 138.438609 298.234729 
L 138.438609 297.880094 
L 140.520157 297.880094 
L 140.520157 297.525459 
L 160.102084 297.525459 
L 160.102084 296.816188 
L 163.22595 296.816188 
L 163.22595 296.461553 
L 168.642835 296.461553 
L 168.642835 296.106918 
L 170.00055 296.106918 
L 170.00055 295.752282 
L 170.171868 295.752282 
L 170.171868 295.397647 
L 171.257894 295.397647 
L 171.257894 294.688376 
L 174.328761 294.688376 
L 174.328761 294.333741 
L 177.353493 294.333741 
L 177.353493 293.979106 
L 182.365682 293.979106 
L 182.365682 293.624471 
L 190.892083 293.624471 
L 190.892083 293.269835 
L 191.951307 293.269835 
L 191.951307 292.9152 
L 193.427816 292.9152 
L 193.427816 292.560565 
L 193.978345 292.560565 
L 193.978345 292.205929 
L 196.41412 292.205929 
L 196.41412 291.851294 
L 199.776636 291.851294 
L 199.776636 291.496659 
L 200.032141 291.496659 
L 200.032141 290.787388 
L 203.905259 290.787388 
L 203.905259 290.432753 
L 205.709584 290.432753 
L 205.709584 290.078118 
L 207.132759 290.078118 
L 207.132759 289.368847 
L 209.957762 289.368847 
L 209.957762 289.014212 
L 211.984222 289.014212 
L 211.984222 288.659576 
L 212.228922 288.659576 
L 212.228922 288.304941 
L 212.722795 288.304941 
L 212.722795 287.950306 
L 213.630062 287.950306 
L 213.630062 287.595671 
L 221.075295 287.595671 
L 221.075295 286.531765 
L 223.124799 286.531765 
L 223.124799 286.177129 
L 223.70164 286.177129 
L 223.70164 285.467859 
L 224.924361 285.467859 
L 224.924361 285.113224 
L 226.222757 285.113224 
L 226.222757 284.758588 
L 230.759131 284.758588 
L 230.759131 284.403953 
L 232.010625 284.403953 
L 232.010625 284.049318 
L 232.372373 284.049318 
L 232.372373 282.985412 
L 234.298858 282.985412 
L 234.298858 282.630776 
L 237.120498 282.630776 
L 237.120498 282.276141 
L 245.651904 282.276141 
L 245.651904 281.921506 
L 247.338581 281.921506 
L 247.338581 281.566871 
L 249.436894 281.566871 
L 249.436894 280.8576 
L 256.390729 280.8576 
L 256.390729 280.148329 
L 259.914607 280.148329 
L 259.914607 279.793694 
L 267.697874 279.793694 
L 267.697874 279.439059 
L 268.731292 279.439059 
L 268.731292 279.084424 
L 287.489015 279.084424 
L 287.489015 278.729788 
L 288.570274 278.729788 
L 288.570274 278.375153 
L 289.592748 278.375153 
L 289.592748 278.020518 
L 291.782322 278.020518 
L 291.782322 277.665882 
L 360.8064 277.665882 
" style="fill:none;stroke:#000080;stroke-linecap:square;stroke-width:1.5;"/>
   </g>
   <g id="line2d_36">
    <defs>
     <path d="M 0 6 
C 1.591219 6 3.117479 5.367802 4.242641 4.242641 
C 5.367802 3.117479 6 1.591219 6 0 
C 6 -1.591219 5.367802 -3.117479 4.242641 -4.242641 
C 3.117479 -5.367802 1.591219 -6 0 -6 
C -1.591219 -6 -3.117479 -5.367802 -4.242641 -4.242641 
C -5.367802 -3.117479 -6 -1.591219 -6 0 
C -6 1.591219 -5.367802 3.117479 -4.242641 4.242641 
C -3.117479 5.367802 -1.591219 6 0 6 
z
" id="m51830dccab" style="stroke:#000080;stroke-width:1.5;"/>
    </defs>
    <g>
     <use style="fill-opacity:0;stroke:#000080;stroke-width:1.5;" x="177.353493" xlink:href="#m51830dccab" y="294.333741"/>
     <use style="fill-opacity:0;stroke:#000080;stroke-width:1.5;" x="249.436894" xlink:href="#m51830dccab" y="280.8576"/>
     <use style="fill-opacity:0;stroke:#000080;stroke-width:1.5;" x="291.782322" xlink:href="#m51830dccab" y="278.020518"/>
     <use style="fill-opacity:0;stroke:#000080;stroke-width:1.5;" x="291.782322" xlink:href="#m51830dccab" y="277.665882"/>
     <use style="fill-opacity:0;stroke:#000080;stroke-width:1.5;" x="360.8064" xlink:href="#m51830dccab" y="277.665882"/>
    </g>
   </g>
   <g id="line2d_37">
    <path style="fill:none;stroke:#000080;stroke-linecap:square;stroke-width:1.5;"/>
    <g/>
   </g>
   <g id="line2d_38">
    <path clip-path="url(#pfa66297ff1)" d="M 213.633352 287.595671 
" style="fill:none;stroke:#000080;stroke-linecap:square;stroke-width:1.5;"/>
    <defs>
     <path d="M -12 12 
L 12 -12 
M -12 -12 
L 12 12 
" id="m1309a6fcc1" style="stroke:#000080;"/>
    </defs>
    <g clip-path="url(#pfa66297ff1)">
     <use style="fill:#000080;stroke:#000080;" x="213.633352" xlink:href="#m1309a6fcc1" y="287.595671"/>
    </g>
   </g>
   <g id="line2d_39">
    <defs>
     <path d="M 0 1.5 
C 0.397805 1.5 0.77937 1.341951 1.06066 1.06066 
C 1.341951 0.77937 1.5 0.397805 1.5 0 
C 1.5 -0.397805 1.341951 -0.77937 1.06066 -1.06066 
C 0.77937 -1.341951 0.397805 -1.5 0 -1.5 
C -0.397805 -1.5 -0.77937 -1.341951 -1.06066 -1.06066 
C -1.341951 -0.77937 -1.5 -0.397805 -1.5 0 
C -1.5 0.397805 -1.341951 0.77937 -1.06066 1.06066 
C -0.77937 1.341951 -0.397805 1.5 0 1.5 
z
" id="m4a85ec4b40" style="stroke:#ff00ff;"/>
    </defs>
    <g>
     <use style="fill:#ff00ff;stroke:#ff00ff;" x="199.07646" xlink:href="#m4a85ec4b40" y="27.648"/>
     <use style="fill:#ff00ff;stroke:#ff00ff;" x="199.07646" xlink:href="#m4a85ec4b40" y="27.648"/>
    </g>
   </g>
   <g id="line2d_40">
    <path d="M 78.88343 298.944 
L 78.88343 298.589365 
L 85.471281 298.589365 
L 85.471281 298.234729 
L 110.786158 298.234729 
L 110.786158 297.525459 
L 116.746385 297.525459 
L 116.746385 297.170824 
L 120.944062 297.170824 
L 120.944062 296.816188 
L 121.768984 296.816188 
L 121.768984 296.461553 
L 127.911368 296.461553 
L 127.911368 296.106918 
L 139.191172 296.106918 
L 139.191172 295.397647 
L 141.415049 295.397647 
L 141.415049 295.043012 
L 144.022326 295.043012 
L 144.022326 294.688376 
L 144.510478 294.688376 
L 144.547509 293.979106 
L 145.004344 293.979106 
L 145.004344 293.624471 
L 145.326529 293.624471 
L 145.326529 293.269835 
L 145.573357 293.269835 
L 145.573357 292.9152 
L 145.886021 292.9152 
L 145.886021 292.560565 
L 146.362288 292.560565 
L 146.362288 292.205929 
L 146.859539 292.205929 
L 146.924857 291.496659 
L 147.359919 291.496659 
L 147.359919 291.142024 
L 147.675821 291.142024 
L 147.675821 290.787388 
L 147.893838 290.787388 
L 147.986506 289.723482 
L 148.07872 289.723482 
L 148.07872 289.368847 
L 148.337564 289.368847 
L 148.413021 288.659576 
L 148.518156 288.659576 
L 148.607806 287.950306 
L 148.726679 287.950306 
L 148.785835 286.8864 
L 148.888912 286.8864 
L 148.888912 286.531765 
L 149.064312 286.531765 
L 149.064312 286.177129 
L 149.381693 286.177129 
L 149.381693 285.822494 
L 149.524205 285.822494 
L 149.538397 285.113224 
L 149.665646 285.113224 
L 149.707872 284.403953 
L 149.91759 284.403953 
L 150.000827 282.985412 
L 150.069911 282.985412 
L 150.179921 281.566871 
L 150.193627 281.566871 
L 150.248351 280.8576 
L 150.411576 280.8576 
L 150.438643 280.148329 
L 150.613636 280.148329 
L 150.613636 279.793694 
L 150.919305 279.793694 
L 151.011358 278.375153 
L 151.116012 278.375153 
L 151.129053 277.665882 
L 151.32359 277.665882 
L 151.41369 276.956612 
L 151.56715 276.956612 
L 151.56715 276.601976 
L 151.769835 276.601976 
L 151.820167 274.474165 
L 152.032588 274.474165 
L 152.032588 274.119529 
L 152.15643 274.119529 
L 152.193425 273.055624 
L 152.55942 273.055624 
L 152.631772 272.346353 
L 152.751744 272.346353 
L 152.811444 271.282447 
L 152.942122 271.282447 
L 152.977604 269.863906 
L 153.107137 269.863906 
L 153.189104 268.8 
L 153.224124 268.8 
L 153.293969 268.090729 
L 153.351976 268.090729 
L 153.455939 266.317553 
L 153.501961 266.317553 
L 153.513449 265.608282 
L 153.616527 265.608282 
L 153.627945 264.899012 
L 153.787077 264.899012 
L 153.866141 264.189741 
L 154.000911 264.189741 
L 154.101358 263.125835 
L 154.112486 263.125835 
L 154.14583 262.061929 
L 154.410475 262.061929 
L 154.410475 261.707294 
L 154.725366 261.707294 
L 154.789862 260.288753 
L 154.875516 260.288753 
L 154.886195 259.579482 
L 155.013876 259.579482 
L 155.077392 258.515576 
L 155.18278 258.515576 
L 155.24573 256.387765 
L 155.30847 256.387765 
L 155.381403 255.323859 
L 155.495444 255.323859 
L 155.598521 253.905318 
L 155.701037 253.905318 
L 155.721473 253.196047 
L 155.833477 253.196047 
L 155.874041 252.132141 
L 156.035428 252.132141 
L 156.055505 251.068235 
L 156.235234 251.068235 
L 156.334347 250.004329 
L 156.363979 250.004329 
L 156.43294 249.295059 
L 156.570108 249.295059 
L 156.570108 248.585788 
L 156.696589 248.585788 
L 156.725657 247.521882 
L 156.8511 247.521882 
L 156.947029 246.457976 
L 156.99481 246.457976 
L 157.09001 244.6848 
L 157.222487 244.6848 
L 157.297771 243.975529 
L 157.372755 243.975529 
L 157.391454 243.266259 
L 157.669736 243.266259 
L 157.715719 241.847718 
L 157.798206 241.847718 
L 157.843876 240.074541 
L 157.916719 240.074541 
L 157.943962 239.365271 
L 158.034489 239.365271 
L 158.133569 237.237459 
L 158.249994 237.237459 
L 158.249994 236.882824 
L 158.515949 236.882824 
L 158.58624 235.464282 
L 158.638786 235.464282 
L 158.74344 233.691106 
L 158.760826 233.691106 
L 158.812888 232.272565 
L 159.019705 232.272565 
L 159.105212 230.144753 
L 159.224273 230.144753 
L 159.334159 226.953035 
L 159.359426 226.953035 
L 159.435025 225.534494 
L 159.510322 225.534494 
L 159.593632 224.470588 
L 159.676576 224.470588 
L 159.775628 223.406682 
L 159.808529 223.406682 
L 159.808529 222.697412 
L 160.020999 222.697412 
L 160.126341 221.278871 
L 160.150567 221.278871 
L 160.223059 218.441788 
L 160.271232 218.441788 
L 160.327278 217.023247 
L 160.391127 217.023247 
L 160.494422 214.5408 
L 160.541906 214.5408 
L 160.652238 213.476894 
L 160.683643 213.476894 
L 160.738476 212.058353 
L 160.808741 212.058353 
L 160.878745 211.349082 
L 160.940753 211.349082 
L 160.994842 209.575906 
L 161.056469 209.575906 
L 161.094883 207.802729 
L 161.194395 207.802729 
L 161.240147 207.093459 
L 161.323737 207.093459 
L 161.406958 206.384188 
L 161.437128 206.384188 
L 161.542347 205.320282 
L 161.564818 205.320282 
L 161.646981 203.547106 
L 161.69908 203.547106 
L 161.765853 201.064659 
L 161.817625 201.064659 
L 161.861887 199.291482 
L 161.994053 199.291482 
L 162.045202 198.582212 
L 162.125297 198.582212 
L 162.17609 197.518306 
L 162.277267 197.518306 
L 162.320462 195.390494 
L 162.420867 195.390494 
L 162.506504 193.262682 
L 162.56338 193.262682 
L 162.66956 191.489506 
L 162.740015 191.489506 
L 162.79619 190.4256 
L 162.852198 190.4256 
L 162.935898 186.524612 
L 162.970663 186.524612 
L 163.081483 184.3968 
L 163.11598 184.3968 
L 163.184786 182.978259 
L 163.280694 182.978259 
L 163.382912 180.850447 
L 163.410077 180.850447 
L 163.498092 179.786541 
L 163.572247 179.786541 
L 163.659508 175.885553 
L 163.746367 175.885553 
L 163.852722 174.467012 
L 163.885835 174.467012 
L 163.991407 170.920659 
L 164.004562 170.920659 
L 164.07675 169.502118 
L 164.168227 169.502118 
L 164.252774 167.728941 
L 164.285191 167.728941 
L 164.330481 165.601129 
L 164.440019 165.601129 
L 164.510559 163.473318 
L 164.55531 163.473318 
L 164.657201 160.636235 
L 164.669899 160.636235 
L 164.771172 159.217694 
L 164.783793 159.217694 
L 164.834193 157.799153 
L 164.965852 157.799153 
L 165.040674 154.962071 
L 165.084184 154.962071 
L 165.133786 153.898165 
L 165.195605 153.898165 
L 165.287954 151.770353 
L 165.337023 151.770353 
L 165.35539 150.351812 
L 165.477385 150.351812 
L 165.538087 149.287906 
L 165.604634 149.287906 
L 165.682978 147.869365 
L 165.814821 147.869365 
L 165.904188 145.741553 
L 165.993131 145.741553 
L 166.040396 144.323012 
L 166.1287 144.323012 
L 166.199045 143.259106 
L 166.315707 143.259106 
L 166.315707 142.904471 
L 166.483591 142.904471 
L 166.575579 141.131294 
L 166.604233 141.131294 
L 166.644276 140.422024 
L 166.729796 140.422024 
L 166.837566 139.003482 
L 166.905315 139.003482 
L 166.972821 137.584941 
L 167.068041 137.584941 
L 167.123829 136.875671 
L 167.438697 136.875671 
L 167.531594 135.102494 
L 167.699821 135.102494 
L 167.796816 133.683953 
L 167.866558 133.683953 
L 167.952041 132.265412 
L 168.137692 132.265412 
L 168.200924 129.428329 
L 168.347644 129.428329 
L 168.404973 127.655153 
L 168.513935 127.655153 
L 168.550116 126.945882 
L 168.699272 126.945882 
L 168.709515 126.236612 
L 168.832 126.236612 
L 168.903083 124.818071 
L 169.024318 124.818071 
L 169.099695 123.399529 
L 169.149779 123.399529 
L 169.244573 121.980988 
L 169.373521 121.980988 
L 169.378463 121.271718 
L 169.486859 121.271718 
L 169.486859 120.917082 
L 169.62392 120.917082 
L 169.677494 118.789271 
L 169.764832 118.789271 
L 169.798687 118.08 
L 169.943096 118.08 
L 170.053063 116.306824 
L 170.091163 116.306824 
L 170.148167 114.179012 
L 170.214455 114.179012 
L 170.271088 113.469741 
L 170.425955 113.469741 
L 170.444641 112.405835 
L 170.639725 112.405835 
L 170.727317 111.341929 
L 170.754894 111.341929 
L 170.800764 110.278024 
L 170.9104 110.278024 
L 170.96952 109.568753 
L 171.023928 109.568753 
L 171.132274 107.795576 
L 171.136775 107.795576 
L 171.222088 106.731671 
L 171.293632 106.731671 
L 171.369351 105.313129 
L 171.506646 105.313129 
L 171.612255 103.185318 
L 171.699811 103.185318 
L 171.756506 102.476047 
L 171.88669 102.476047 
L 171.938512 101.766776 
L 172.02886 101.766776 
L 172.050307 100.348235 
L 172.199758 100.348235 
L 172.301557 99.284329 
L 172.364903 99.284329 
L 172.385971 98.575059 
L 172.478391 98.575059 
L 172.52025 97.511153 
L 172.616174 97.511153 
L 172.703332 96.447247 
L 172.740562 96.447247 
L 172.785966 95.737976 
L 172.864133 95.737976 
L 172.974657 94.319435 
L 172.990976 94.319435 
L 173.03578 92.900894 
L 173.125069 92.900894 
L 173.137212 92.191624 
L 173.262233 92.191624 
L 173.314415 91.482353 
L 173.378441 91.482353 
L 173.438268 90.418447 
L 173.497905 90.418447 
L 173.56131 89.354541 
L 173.667825 89.354541 
L 173.742419 88.645271 
L 173.801101 88.645271 
L 173.88295 87.936 
L 173.952824 87.936 
L 174.030158 86.872094 
L 174.13022 86.872094 
L 174.241203 84.744282 
L 174.248833 84.744282 
L 174.267894 83.680376 
L 174.393216 83.680376 
L 174.431028 82.971106 
L 174.555272 82.971106 
L 174.630174 80.134024 
L 174.678701 80.134024 
L 174.712223 79.070118 
L 174.849412 79.070118 
L 174.948896 78.006212 
L 174.970932 78.006212 
L 175.073427 76.233035 
L 175.345249 76.233035 
L 175.452888 75.169129 
L 175.51361 75.169129 
L 175.606103 74.105224 
L 175.77919 74.105224 
L 175.77919 73.750588 
L 175.891372 73.750588 
L 175.950698 73.041318 
L 176.037604 73.041318 
L 176.137914 71.268141 
L 176.442464 71.268141 
L 176.550771 70.204235 
L 176.641673 70.204235 
L 176.752182 68.785694 
L 176.792206 68.785694 
L 176.848762 68.076424 
L 176.928318 68.076424 
L 176.964669 67.367153 
L 177.040449 67.367153 
L 177.132293 65.948612 
L 177.178047 65.948612 
L 177.243218 65.239341 
L 177.340553 65.239341 
L 177.385804 64.530071 
L 177.479194 64.530071 
L 177.588098 63.466165 
L 177.60406 63.466165 
L 177.60406 63.111529 
L 177.715419 63.111529 
L 177.822968 62.047624 
L 177.863928 62.047624 
L 177.936177 60.629082 
L 177.976891 60.629082 
L 178.064285 59.210541 
L 178.135771 59.210541 
L 178.234779 58.501271 
L 178.428192 58.501271 
L 178.531754 57.082729 
L 178.553005 57.082729 
L 178.661917 56.018824 
L 178.853996 56.018824 
L 178.949305 54.954918 
L 178.976024 54.954918 
L 179.017511 53.891012 
L 179.109051 53.891012 
L 179.109051 53.536376 
L 179.354881 53.536376 
L 179.444798 52.117835 
L 179.55156 52.117835 
L 179.634816 51.408565 
L 179.81726 51.408565 
L 179.81726 51.053929 
L 179.961389 51.053929 
L 179.961389 50.699294 
L 180.224179 50.699294 
L 180.260235 49.280753 
L 180.540763 49.280753 
L 180.6252 48.216847 
L 180.69031 48.216847 
L 180.782166 47.507576 
L 180.822549 47.507576 
L 180.913763 46.089035 
L 180.977884 46.089035 
L 181.044446 45.025129 
L 181.139882 45.025129 
L 181.139882 44.670494 
L 181.28476 44.670494 
L 181.329315 43.961224 
L 181.407686 43.961224 
L 181.423321 43.251953 
L 181.527223 43.251953 
L 181.527223 42.897318 
L 181.699985 42.897318 
L 181.699985 42.542682 
L 181.888971 42.542682 
L 181.949858 41.833412 
L 182.005498 41.833412 
L 182.005498 41.478776 
L 182.308614 41.478776 
L 182.402808 40.769506 
L 182.594689 40.769506 
L 182.594689 40.414871 
L 182.765239 40.414871 
L 182.849938 39.7056 
L 182.991858 39.7056 
L 183.037334 38.641694 
L 183.232348 38.641694 
L 183.232348 38.287059 
L 183.655781 38.287059 
L 183.655781 37.932424 
L 183.876555 37.932424 
L 183.901687 37.223153 
L 184.010964 37.223153 
L 184.010964 36.868518 
L 184.256782 36.868518 
L 184.34173 35.449976 
L 184.677739 35.449976 
L 184.677739 35.095341 
L 184.912886 35.095341 
L 184.912886 34.740706 
L 185.624123 34.740706 
L 185.624123 34.386071 
L 185.839564 34.386071 
L 185.94227 33.6768 
L 186.632107 33.6768 
L 186.632107 33.322165 
L 186.869548 33.322165 
L 186.869548 32.967529 
L 187.291821 32.967529 
L 187.291821 32.612894 
L 187.483419 32.612894 
L 187.532427 31.903624 
L 187.689894 31.903624 
L 187.689894 31.548988 
L 187.855308 31.548988 
L 187.960489 30.839718 
L 188.907814 30.839718 
L 188.907814 30.485082 
L 189.418738 30.485082 
L 189.418738 30.130447 
L 192.569142 30.130447 
L 192.569142 29.775812 
L 193.375455 29.775812 
L 193.375455 29.066541 
L 193.772767 29.066541 
L 193.772767 28.711906 
L 194.361944 28.711906 
L 194.361944 28.357271 
L 199.019304 28.357271 
L 199.07646 27.648 
L 360.8064 27.648 
L 360.8064 27.648 
" style="fill:none;stroke:#ff00ff;stroke-linecap:square;stroke-width:1.5;"/>
   </g>
   <g id="line2d_41">
    <defs>
     <path d="M -0 8.485281 
L 5.091169 0 
L 0 -8.485281 
L -5.091169 -0 
z
" id="mc97c42ce4a" style="stroke:#ff00ff;stroke-linejoin:miter;stroke-width:1.5;"/>
    </defs>
    <g>
     <use style="fill-opacity:0;stroke:#ff00ff;stroke-linejoin:miter;stroke-width:1.5;" x="152.787587" xlink:href="#mc97c42ce4a" y="271.637082"/>
     <use style="fill-opacity:0;stroke:#ff00ff;stroke-linejoin:miter;stroke-width:1.5;" x="169.084644" xlink:href="#mc97c42ce4a" y="124.1088"/>
     <use style="fill-opacity:0;stroke:#ff00ff;stroke-linejoin:miter;stroke-width:1.5;" x="199.07646" xlink:href="#mc97c42ce4a" y="28.002635"/>
     <use style="fill-opacity:0;stroke:#ff00ff;stroke-linejoin:miter;stroke-width:1.5;" x="199.07646" xlink:href="#mc97c42ce4a" y="27.648"/>
     <use style="fill-opacity:0;stroke:#ff00ff;stroke-linejoin:miter;stroke-width:1.5;" x="360.8064" xlink:href="#mc97c42ce4a" y="27.648"/>
    </g>
   </g>
   <g id="line2d_42">
    <path style="fill:none;stroke:#ff00ff;stroke-linecap:square;stroke-width:1.5;"/>
    <g/>
   </g>
   <g id="line2d_43">
    <path clip-path="url(#pfa66297ff1)" d="M 147.038621 291.496659 
" style="fill:none;stroke:#ff00ff;stroke-linecap:square;stroke-width:1.5;"/>
    <defs>
     <path d="M -12 12 
L 12 -12 
M -12 -12 
L 12 12 
" id="mb4f2e22d47" style="stroke:#ff00ff;"/>
    </defs>
    <g clip-path="url(#pfa66297ff1)">
     <use style="fill:#ff00ff;stroke:#ff00ff;" x="147.038621" xlink:href="#mb4f2e22d47" y="291.496659"/>
    </g>
   </g>
   <g id="line2d_44">
    <path d="M 360.8064 277.665882 
L 380.514816 293.51808 
" style="fill:none;stroke:#000080;stroke-linecap:square;stroke-width:1.5;"/>
    <g>
     <use style="fill-opacity:0;stroke:#000080;stroke-width:1.5;" x="360.8064" xlink:href="#m51830dccab" y="277.665882"/>
     <use style="fill-opacity:0;stroke:#000080;stroke-width:1.5;" x="380.514816" xlink:href="#m51830dccab" y="293.51808"/>
    </g>
   </g>
   <g id="line2d_45">
    <path d="M 360.8064 27.648 
L 380.514816 163.296 
" style="fill:none;stroke:#ff00ff;stroke-linecap:square;stroke-width:1.5;"/>
    <g>
     <use style="fill-opacity:0;stroke:#ff00ff;stroke-linejoin:miter;stroke-width:1.5;" x="360.8064" xlink:href="#mc97c42ce4a" y="27.648"/>
     <use style="fill-opacity:0;stroke:#ff00ff;stroke-linejoin:miter;stroke-width:1.5;" x="380.514816" xlink:href="#mc97c42ce4a" y="163.296"/>
    </g>
   </g>
   <g id="line2d_46">
    <path d="M 360.8064 298.944 
L 360.8064 27.648 
" style="fill:none;stroke:#000000;stroke-linecap:square;stroke-width:1.5;"/>
   </g>
   <g id="patch_3">
    <path d="M 57.6 298.944 
L 360.8064 298.944 
" style="fill:none;stroke:#000000;stroke-linecap:square;stroke-linejoin:miter;stroke-width:0.8;"/>
   </g>
   <g id="patch_4">
    <path d="M 57.6 27.648 
L 360.8064 27.648 
" style="fill:none;stroke:#000000;stroke-linecap:square;stroke-linejoin:miter;stroke-width:0.8;"/>
   </g>
   <g id="text_13">
    <!-- different -->
    <g transform="translate(386.578944 297.381205)scale(0.14 -0.14)">
     <use xlink:href="#DejaVuSans-64"/>
     <use x="63.476562" xlink:href="#DejaVuSans-69"/>
     <use x="91.259766" xlink:href="#DejaVuSans-66"/>
     <use x="126.464844" xlink:href="#DejaVuSans-66"/>
     <use x="161.669922" xlink:href="#DejaVuSans-65"/>
     <use x="223.193359" xlink:href="#DejaVuSans-72"/>
     <use x="262.056641" xlink:href="#DejaVuSans-65"/>
     <use x="323.580078" xlink:href="#DejaVuSans-6e"/>
     <use x="386.958984" xlink:href="#DejaVuSans-74"/>
    </g>
   </g>
   <g id="text_14">
    <!-- cma.fmin  -->
    <g transform="translate(386.578944 167.159125)scale(0.14 -0.14)">
     <use xlink:href="#DejaVuSans-63"/>
     <use x="54.980469" xlink:href="#DejaVuSans-6d"/>
     <use x="152.392578" xlink:href="#DejaVuSans-61"/>
     <use x="213.671875" xlink:href="#DejaVuSans-2e"/>
     <use x="245.458984" xlink:href="#DejaVuSans-66"/>
     <use x="280.664062" xlink:href="#DejaVuSans-6d"/>
     <use x="378.076172" xlink:href="#DejaVuSans-69"/>
     <use x="405.859375" xlink:href="#DejaVuSans-6e"/>
     <use x="469.238281" xlink:href="#DejaVuSans-20"/>
    </g>
   </g>
   <g id="text_15">
    <!-- best 2009 -->
    <g transform="translate(386.578944 36.937045)scale(0.14 -0.14)">
     <defs>
      <path d="M 3116 1747 
Q 3116 2381 2855 2742 
Q 2594 3103 2138 3103 
Q 1681 3103 1420 2742 
Q 1159 2381 1159 1747 
Q 1159 1113 1420 752 
Q 1681 391 2138 391 
Q 2594 391 2855 752 
Q 3116 1113 3116 1747 
z
M 1159 2969 
Q 1341 3281 1617 3432 
Q 1894 3584 2278 3584 
Q 2916 3584 3314 3078 
Q 3713 2572 3713 1747 
Q 3713 922 3314 415 
Q 2916 -91 2278 -91 
Q 1894 -91 1617 61 
Q 1341 213 1159 525 
L 1159 0 
L 581 0 
L 581 4863 
L 1159 4863 
L 1159 2969 
z
" id="DejaVuSans-62" transform="scale(0.015625)"/>
      <path d="M 703 97 
L 703 672 
Q 941 559 1184 500 
Q 1428 441 1663 441 
Q 2288 441 2617 861 
Q 2947 1281 2994 2138 
Q 2813 1869 2534 1725 
Q 2256 1581 1919 1581 
Q 1219 1581 811 2004 
Q 403 2428 403 3163 
Q 403 3881 828 4315 
Q 1253 4750 1959 4750 
Q 2769 4750 3195 4129 
Q 3622 3509 3622 2328 
Q 3622 1225 3098 567 
Q 2575 -91 1691 -91 
Q 1453 -91 1209 -44 
Q 966 3 703 97 
z
M 1959 2075 
Q 2384 2075 2632 2365 
Q 2881 2656 2881 3163 
Q 2881 3666 2632 3958 
Q 2384 4250 1959 4250 
Q 1534 4250 1286 3958 
Q 1038 3666 1038 3163 
Q 1038 2656 1286 2365 
Q 1534 2075 1959 2075 
z
" id="DejaVuSans-39" transform="scale(0.015625)"/>
     </defs>
     <use xlink:href="#DejaVuSans-62"/>
     <use x="63.476562" xlink:href="#DejaVuSans-65"/>
     <use x="125" xlink:href="#DejaVuSans-73"/>
     <use x="177.099609" xlink:href="#DejaVuSans-74"/>
     <use x="216.308594" xlink:href="#DejaVuSans-20"/>
     <use x="248.095703" xlink:href="#DejaVuSans-32"/>
     <use x="311.71875" xlink:href="#DejaVuSans-30"/>
     <use x="375.341797" xlink:href="#DejaVuSans-30"/>
     <use x="438.964844" xlink:href="#DejaVuSans-39"/>
    </g>
   </g>
   <g id="text_16">
    <!-- bbob f11, 10-D -->
    <g transform="translate(60.632064 38.111366)scale(0.102 -0.102)">
     <defs>
      <path d="M 1259 4147 
L 1259 519 
L 2022 519 
Q 2988 519 3436 956 
Q 3884 1394 3884 2338 
Q 3884 3275 3436 3711 
Q 2988 4147 2022 4147 
L 1259 4147 
z
M 628 4666 
L 1925 4666 
Q 3281 4666 3915 4102 
Q 4550 3538 4550 2338 
Q 4550 1131 3912 565 
Q 3275 0 1925 0 
L 628 0 
L 628 4666 
z
" id="DejaVuSans-44" transform="scale(0.015625)"/>
     </defs>
     <use xlink:href="#DejaVuSans-62"/>
     <use x="63.476562" xlink:href="#DejaVuSans-62"/>
     <use x="126.953125" xlink:href="#DejaVuSans-6f"/>
     <use x="188.134766" xlink:href="#DejaVuSans-62"/>
     <use x="251.611328" xlink:href="#DejaVuSans-20"/>
     <use x="283.398438" xlink:href="#DejaVuSans-66"/>
     <use x="318.603516" xlink:href="#DejaVuSans-31"/>
     <use x="382.226562" xlink:href="#DejaVuSans-31"/>
     <use x="445.849609" xlink:href="#DejaVuSans-2c"/>
     <use x="477.636719" xlink:href="#DejaVuSans-20"/>
     <use x="509.423828" xlink:href="#DejaVuSans-31"/>
     <use x="573.046875" xlink:href="#DejaVuSans-30"/>
     <use x="636.669922" xlink:href="#DejaVuSans-2d"/>
     <use x="672.753906" xlink:href="#DejaVuSans-44"/>
    </g>
    <!-- 51 targets: 100..1e-08 -->
    <g transform="translate(60.632064 49.533135)scale(0.102 -0.102)">
     <defs>
      <path d="M 691 4666 
L 3169 4666 
L 3169 4134 
L 1269 4134 
L 1269 2991 
Q 1406 3038 1543 3061 
Q 1681 3084 1819 3084 
Q 2600 3084 3056 2656 
Q 3513 2228 3513 1497 
Q 3513 744 3044 326 
Q 2575 -91 1722 -91 
Q 1428 -91 1123 -41 
Q 819 9 494 109 
L 494 744 
Q 775 591 1075 516 
Q 1375 441 1709 441 
Q 2250 441 2565 725 
Q 2881 1009 2881 1497 
Q 2881 1984 2565 2268 
Q 2250 2553 1709 2553 
Q 1456 2553 1204 2497 
Q 953 2441 691 2322 
L 691 4666 
z
" id="DejaVuSans-35" transform="scale(0.015625)"/>
      <path d="M 750 794 
L 1409 794 
L 1409 0 
L 750 0 
L 750 794 
z
M 750 3309 
L 1409 3309 
L 1409 2516 
L 750 2516 
L 750 3309 
z
" id="DejaVuSans-3a" transform="scale(0.015625)"/>
     </defs>
     <use xlink:href="#DejaVuSans-35"/>
     <use x="63.623047" xlink:href="#DejaVuSans-31"/>
     <use x="127.246094" xlink:href="#DejaVuSans-20"/>
     <use x="159.033203" xlink:href="#DejaVuSans-74"/>
     <use x="198.242188" xlink:href="#DejaVuSans-61"/>
     <use x="259.521484" xlink:href="#DejaVuSans-72"/>
     <use x="298.884766" xlink:href="#DejaVuSans-67"/>
     <use x="362.361328" xlink:href="#DejaVuSans-65"/>
     <use x="423.884766" xlink:href="#DejaVuSans-74"/>
     <use x="463.09375" xlink:href="#DejaVuSans-73"/>
     <use x="515.193359" xlink:href="#DejaVuSans-3a"/>
     <use x="548.884766" xlink:href="#DejaVuSans-20"/>
     <use x="580.671875" xlink:href="#DejaVuSans-31"/>
     <use x="644.294922" xlink:href="#DejaVuSans-30"/>
     <use x="707.917969" xlink:href="#DejaVuSans-30"/>
     <use x="771.541016" xlink:href="#DejaVuSans-2e"/>
     <use x="803.328125" xlink:href="#DejaVuSans-2e"/>
     <use x="835.115234" xlink:href="#DejaVuSans-31"/>
     <use x="898.738281" xlink:href="#DejaVuSans-65"/>
     <use x="960.261719" xlink:href="#DejaVuSans-2d"/>
     <use x="996.345703" xlink:href="#DejaVuSans-30"/>
     <use x="1059.96875" xlink:href="#DejaVuSans-38"/>
    </g>
    <!-- 15 instances -->
    <g transform="translate(60.632064 60.954904)scale(0.102 -0.102)">
     <use xlink:href="#DejaVuSans-31"/>
     <use x="63.623047" xlink:href="#DejaVuSans-35"/>
     <use x="127.246094" xlink:href="#DejaVuSans-20"/>
     <use x="159.033203" xlink:href="#DejaVuSans-69"/>
     <use x="186.816406" xlink:href="#DejaVuSans-6e"/>
     <use x="250.195312" xlink:href="#DejaVuSans-73"/>
     <use x="302.294922" xlink:href="#DejaVuSans-74"/>
     <use x="341.503906" xlink:href="#DejaVuSans-61"/>
     <use x="402.783203" xlink:href="#DejaVuSans-6e"/>
     <use x="466.162109" xlink:href="#DejaVuSans-63"/>
     <use x="521.142578" xlink:href="#DejaVuSans-65"/>
     <use x="582.666016" xlink:href="#DejaVuSans-73"/>
    </g>
   </g>
   <g id="text_17">
    <!-- v2.6 -->
    <g style="fill:#808080;" transform="translate(198.292262 294.151352)scale(0.1 -0.1)">
     <use xlink:href="#DejaVuSans-76"/>
     <use x="59.179688" xlink:href="#DejaVuSans-32"/>
     <use x="122.802734" xlink:href="#DejaVuSans-2e"/>
     <use x="154.589844" xlink:href="#DejaVuSans-36"/>
    </g>
   </g>
   <g id="text_18">
    <!-- 11 Discus -->
    <g transform="translate(160.567262 21.648)scale(0.2 -0.2)">
     <use xlink:href="#DejaVuSans-31"/>
     <use x="63.623047" xlink:href="#DejaVuSans-31"/>
     <use x="127.246094" xlink:href="#DejaVuSans-20"/>
     <use x="159.033203" xlink:href="#DejaVuSans-44"/>
     <use x="236.035156" xlink:href="#DejaVuSans-69"/>
     <use x="263.818359" xlink:href="#DejaVuSans-73"/>
     <use x="315.917969" xlink:href="#DejaVuSans-63"/>
     <use x="370.898438" xlink:href="#DejaVuSans-75"/>
     <use x="434.277344" xlink:href="#DejaVuSans-73"/>
    </g>
   </g>
  </g>
 </g>
 <defs>
  <clipPath id="pfa66297ff1">
   <rect height="271.296" width="303.2064" x="57.6" y="27.648"/>
  </clipPath>
 </defs>
</svg>
