<?xml version="1.0" encoding="utf-8" standalone="no"?>
<!DOCTYPE svg PUBLIC "-//W3C//DTD SVG 1.1//EN"
  "http://www.w3.org/Graphics/SVG/1.1/DTD/svg11.dtd">
<svg height="345.6pt" version="1.1" viewBox="0 0 460.8 345.6" width="460.8pt" xmlns="http://www.w3.org/2000/svg" xmlns:xlink="http://www.w3.org/1999/xlink">
 <metadata>
  <rdf:RDF xmlns:cc="http://creativecommons.org/ns#" xmlns:dc="http://purl.org/dc/elements/1.1/" xmlns:rdf="http://www.w3.org/1999/02/22-rdf-syntax-ns#">
   <cc:Work>
    <dc:type rdf:resource="http://purl.org/dc/dcmitype/StillImage"/>
    <dc:date>2022-05-07T15:07:39.003825</dc:date>
    <dc:format>image/svg+xml</dc:format>
    <dc:creator>
     <cc:Agent>
      <dc:title>Matplotlib v3.4.3, https://matplotlib.org/</dc:title>
     </cc:Agent>
    </dc:creator>
   </cc:Work>
  </rdf:RDF>
 </metadata>
 <defs>
  <style type="text/css">*{stroke-linecap:butt;stroke-linejoin:round;}</style>
 </defs>
 <g id="figure_1">
  <g id="patch_1">
   <path d="M 0 345.6 
L 460.8 345.6 
L 460.8 0 
L 0 0 
z
" style="fill:#ffffff;"/>
  </g>
  <g id="axes_1">
   <g id="patch_2">
    <path d="M 57.6 298.944 
L 360.8064 298.944 
L 360.8064 27.648 
L 57.6 27.648 
z
" style="fill:#ffffff;"/>
   </g>
   <g id="line2d_1">
    <path d="M 124.046648 298.944 
L 124.046648 293.624471 
L 126.899255 293.624471 
L 126.899255 288.304941 
L 129.7043 288.304941 
L 129.7043 282.985412 
L 134.431915 282.985412 
L 134.431915 277.665882 
L 135.478982 277.665882 
L 135.478982 272.346353 
L 137.466966 272.346353 
L 137.466966 267.026824 
L 140.543056 267.026824 
L 140.543056 261.707294 
L 141.610664 261.707294 
L 141.610664 256.387765 
L 143.02636 256.387765 
L 143.02636 251.068235 
L 143.811926 251.068235 
L 143.811926 245.748706 
L 144.2304 245.748706 
L 144.2304 240.429176 
L 144.71325 240.429176 
L 144.71325 235.109647 
L 145.004344 235.109647 
L 145.004344 229.790118 
L 145.989098 229.790118 
L 145.989098 224.470588 
L 146.662213 224.470588 
L 146.662213 219.151059 
L 146.826795 219.151059 
L 146.826795 213.831529 
L 146.924857 213.831529 
L 146.924857 208.512 
L 147.119461 208.512 
L 147.119461 203.192471 
L 147.216013 203.192471 
L 147.216013 197.872941 
L 147.628773 197.872941 
L 147.628773 192.553412 
L 147.878349 192.553412 
L 147.878349 187.233882 
L 148.001907 187.233882 
L 148.001907 181.914353 
L 148.124658 181.914353 
L 148.124658 176.594824 
L 148.216198 176.594824 
L 148.216198 171.275294 
L 148.307296 171.275294 
L 148.307296 165.955765 
L 148.458151 165.955765 
L 148.458151 160.636235 
L 148.57797 160.636235 
L 148.57797 155.316706 
L 148.667336 155.316706 
L 148.667336 149.997176 
L 148.785835 149.997176 
L 148.785835 144.677647 
L 148.962194 144.677647 
L 148.962194 139.358118 
L 149.049758 139.358118 
L 149.049758 134.038588 
L 149.194798 134.038588 
L 149.194798 128.719059 
L 149.31003 128.719059 
L 149.31003 123.399529 
L 150.853277 123.399529 
L 150.853277 118.08 
L 150.906118 118.08 
L 150.906118 112.760471 
L 153.741748 112.760471 
L 153.741748 107.440941 
L 153.877408 107.440941 
L 153.877408 102.121412 
L 153.967309 102.121412 
L 153.967309 96.801882 
L 154.079083 96.801882 
L 154.079083 91.482353 
L 154.168026 91.482353 
L 154.168026 86.162824 
L 154.278618 86.162824 
L 154.278618 80.843294 
L 154.388563 80.843294 
L 154.388563 75.523765 
L 154.519655 75.523765 
L 154.519655 70.204235 
L 154.671449 70.204235 
L 154.671449 64.884706 
L 154.779128 64.884706 
L 154.779128 59.565176 
L 154.86483 59.565176 
L 154.86483 54.245647 
L 154.971412 54.245647 
L 154.971412 48.926118 
L 155.056244 48.926118 
L 155.056244 43.606588 
L 155.18278 43.606588 
L 155.18278 38.287059 
L 155.22477 38.287059 
L 155.22477 32.967529 
L 155.329337 32.967529 
L 155.329337 27.648 
L 360.8064 27.648 
" style="fill:none;stroke:#f5deb3;stroke-linecap:square;stroke-width:4;"/>
   </g>
   <g id="line2d_2">
    <defs>
     <path d="M -0 7.778175 
L 7.778175 0 
L 0 -7.778175 
L -7.778175 -0 
z
" id="mcbed076d64" style="stroke:#f5deb3;stroke-linejoin:miter;stroke-width:1.5;"/>
    </defs>
    <g>
     <use style="fill:#f5deb3;stroke:#f5deb3;stroke-linejoin:miter;stroke-width:1.5;" x="147.878349" xlink:href="#mcbed076d64" y="187.233882"/>
     <use style="fill:#f5deb3;stroke:#f5deb3;stroke-linejoin:miter;stroke-width:1.5;" x="154.86483" xlink:href="#mcbed076d64" y="54.245647"/>
     <use style="fill:#f5deb3;stroke:#f5deb3;stroke-linejoin:miter;stroke-width:1.5;" x="155.329337" xlink:href="#mcbed076d64" y="27.648"/>
     <use style="fill:#f5deb3;stroke:#f5deb3;stroke-linejoin:miter;stroke-width:1.5;" x="155.329337" xlink:href="#mcbed076d64" y="27.648"/>
     <use style="fill:#f5deb3;stroke:#f5deb3;stroke-linejoin:miter;stroke-width:1.5;" x="360.8064" xlink:href="#mcbed076d64" y="27.648"/>
    </g>
   </g>
   <g id="line2d_3">
    <path style="fill:none;stroke:#f5deb3;stroke-linecap:square;stroke-width:4;"/>
    <g/>
   </g>
   <g id="line2d_4">
    <path d="M 360.8064 27.648 
L 380.514816 33.07392 
" style="fill:none;stroke:#f5deb3;stroke-linecap:square;stroke-width:4;"/>
    <g>
     <use style="fill:#f5deb3;stroke:#f5deb3;stroke-linejoin:miter;stroke-width:1.5;" x="360.8064" xlink:href="#mcbed076d64" y="27.648"/>
     <use style="fill:#f5deb3;stroke:#f5deb3;stroke-linejoin:miter;stroke-width:1.5;" x="380.514816" xlink:href="#mcbed076d64" y="33.07392"/>
    </g>
   </g>
   <g id="matplotlib.axis_1">
    <g id="xtick_1">
     <g id="line2d_5">
      <path clip-path="url(#pd6f023e4b3)" d="M 57.6 298.944 
L 57.6 27.648 
" style="fill:none;stroke:#b0b0b0;stroke-linecap:square;stroke-width:0.8;"/>
     </g>
     <g id="line2d_6">
      <defs>
       <path d="M 0 0 
L 0 3.5 
" id="m2c5884e4aa" style="stroke:#000000;stroke-width:0.8;"/>
      </defs>
      <g>
       <use style="stroke:#000000;stroke-width:0.8;" x="57.6" xlink:href="#m2c5884e4aa" y="298.944"/>
      </g>
     </g>
     <g id="text_1">
      <!-- 0 -->
      <g transform="translate(52.191875 318.861344)scale(0.17 -0.17)">
       <defs>
        <path d="M 2034 4250 
Q 1547 4250 1301 3770 
Q 1056 3291 1056 2328 
Q 1056 1369 1301 889 
Q 1547 409 2034 409 
Q 2525 409 2770 889 
Q 3016 1369 3016 2328 
Q 3016 3291 2770 3770 
Q 2525 4250 2034 4250 
z
M 2034 4750 
Q 2819 4750 3233 4129 
Q 3647 3509 3647 2328 
Q 3647 1150 3233 529 
Q 2819 -91 2034 -91 
Q 1250 -91 836 529 
Q 422 1150 422 2328 
Q 422 3509 836 4129 
Q 1250 4750 2034 4750 
z
" id="DejaVuSans-30" transform="scale(0.015625)"/>
       </defs>
       <use xlink:href="#DejaVuSans-30"/>
      </g>
     </g>
    </g>
    <g id="xtick_2">
     <g id="line2d_7">
      <path clip-path="url(#pd6f023e4b3)" d="M 144.2304 298.944 
L 144.2304 27.648 
" style="fill:none;stroke:#b0b0b0;stroke-linecap:square;stroke-width:0.8;"/>
     </g>
     <g id="line2d_8">
      <g>
       <use style="stroke:#000000;stroke-width:0.8;" x="144.2304" xlink:href="#m2c5884e4aa" y="298.944"/>
      </g>
     </g>
     <g id="text_2">
      <!-- 2 -->
      <g transform="translate(138.822275 318.861344)scale(0.17 -0.17)">
       <defs>
        <path d="M 1228 531 
L 3431 531 
L 3431 0 
L 469 0 
L 469 531 
Q 828 903 1448 1529 
Q 2069 2156 2228 2338 
Q 2531 2678 2651 2914 
Q 2772 3150 2772 3378 
Q 2772 3750 2511 3984 
Q 2250 4219 1831 4219 
Q 1534 4219 1204 4116 
Q 875 4013 500 3803 
L 500 4441 
Q 881 4594 1212 4672 
Q 1544 4750 1819 4750 
Q 2544 4750 2975 4387 
Q 3406 4025 3406 3419 
Q 3406 3131 3298 2873 
Q 3191 2616 2906 2266 
Q 2828 2175 2409 1742 
Q 1991 1309 1228 531 
z
" id="DejaVuSans-32" transform="scale(0.015625)"/>
       </defs>
       <use xlink:href="#DejaVuSans-32"/>
      </g>
     </g>
    </g>
    <g id="xtick_3">
     <g id="line2d_9">
      <path clip-path="url(#pd6f023e4b3)" d="M 230.8608 298.944 
L 230.8608 27.648 
" style="fill:none;stroke:#b0b0b0;stroke-linecap:square;stroke-width:0.8;"/>
     </g>
     <g id="line2d_10">
      <g>
       <use style="stroke:#000000;stroke-width:0.8;" x="230.8608" xlink:href="#m2c5884e4aa" y="298.944"/>
      </g>
     </g>
     <g id="text_3">
      <!-- 4 -->
      <g transform="translate(225.452675 318.861344)scale(0.17 -0.17)">
       <defs>
        <path d="M 2419 4116 
L 825 1625 
L 2419 1625 
L 2419 4116 
z
M 2253 4666 
L 3047 4666 
L 3047 1625 
L 3713 1625 
L 3713 1100 
L 3047 1100 
L 3047 0 
L 2419 0 
L 2419 1100 
L 313 1100 
L 313 1709 
L 2253 4666 
z
" id="DejaVuSans-34" transform="scale(0.015625)"/>
       </defs>
       <use xlink:href="#DejaVuSans-34"/>
      </g>
     </g>
    </g>
    <g id="xtick_4">
     <g id="line2d_11">
      <path clip-path="url(#pd6f023e4b3)" d="M 317.4912 298.944 
L 317.4912 27.648 
" style="fill:none;stroke:#b0b0b0;stroke-linecap:square;stroke-width:0.8;"/>
     </g>
     <g id="line2d_12">
      <g>
       <use style="stroke:#000000;stroke-width:0.8;" x="317.4912" xlink:href="#m2c5884e4aa" y="298.944"/>
      </g>
     </g>
     <g id="text_4">
      <!-- 6 -->
      <g transform="translate(312.083075 318.861344)scale(0.17 -0.17)">
       <defs>
        <path d="M 2113 2584 
Q 1688 2584 1439 2293 
Q 1191 2003 1191 1497 
Q 1191 994 1439 701 
Q 1688 409 2113 409 
Q 2538 409 2786 701 
Q 3034 994 3034 1497 
Q 3034 2003 2786 2293 
Q 2538 2584 2113 2584 
z
M 3366 4563 
L 3366 3988 
Q 3128 4100 2886 4159 
Q 2644 4219 2406 4219 
Q 1781 4219 1451 3797 
Q 1122 3375 1075 2522 
Q 1259 2794 1537 2939 
Q 1816 3084 2150 3084 
Q 2853 3084 3261 2657 
Q 3669 2231 3669 1497 
Q 3669 778 3244 343 
Q 2819 -91 2113 -91 
Q 1303 -91 875 529 
Q 447 1150 447 2328 
Q 447 3434 972 4092 
Q 1497 4750 2381 4750 
Q 2619 4750 2861 4703 
Q 3103 4656 3366 4563 
z
" id="DejaVuSans-36" transform="scale(0.015625)"/>
       </defs>
       <use xlink:href="#DejaVuSans-36"/>
      </g>
     </g>
    </g>
    <g id="xtick_5">
     <g id="line2d_13">
      <path clip-path="url(#pd6f023e4b3)" d="M 100.9152 298.944 
L 100.9152 27.648 
" style="fill:none;stroke:#b0b0b0;stroke-linecap:square;stroke-width:0.8;"/>
     </g>
     <g id="line2d_14">
      <defs>
       <path d="M 0 0 
L 0 2 
" id="m9ca7c76bda" style="stroke:#000000;stroke-width:0.6;"/>
      </defs>
      <g>
       <use style="stroke:#000000;stroke-width:0.6;" x="100.9152" xlink:href="#m9ca7c76bda" y="298.944"/>
      </g>
     </g>
    </g>
    <g id="xtick_6">
     <g id="line2d_15">
      <path clip-path="url(#pd6f023e4b3)" d="M 187.5456 298.944 
L 187.5456 27.648 
" style="fill:none;stroke:#b0b0b0;stroke-linecap:square;stroke-width:0.8;"/>
     </g>
     <g id="line2d_16">
      <g>
       <use style="stroke:#000000;stroke-width:0.6;" x="187.5456" xlink:href="#m9ca7c76bda" y="298.944"/>
      </g>
     </g>
    </g>
    <g id="xtick_7">
     <g id="line2d_17">
      <path clip-path="url(#pd6f023e4b3)" d="M 274.176 298.944 
L 274.176 27.648 
" style="fill:none;stroke:#b0b0b0;stroke-linecap:square;stroke-width:0.8;"/>
     </g>
     <g id="line2d_18">
      <g>
       <use style="stroke:#000000;stroke-width:0.6;" x="274.176" xlink:href="#m9ca7c76bda" y="298.944"/>
      </g>
     </g>
    </g>
    <g id="xtick_8">
     <g id="line2d_19">
      <path clip-path="url(#pd6f023e4b3)" d="M 360.8064 298.944 
L 360.8064 27.648 
" style="fill:none;stroke:#b0b0b0;stroke-linecap:square;stroke-width:0.8;"/>
     </g>
     <g id="line2d_20">
      <g>
       <use style="stroke:#000000;stroke-width:0.6;" x="360.8064" xlink:href="#m9ca7c76bda" y="298.944"/>
      </g>
     </g>
    </g>
    <g id="text_5">
     <!-- log10(# f-evals / dimension) -->
     <g transform="translate(88.823278 339.314156)scale(0.17 -0.17)">
      <defs>
       <path d="M 603 4863 
L 1178 4863 
L 1178 0 
L 603 0 
L 603 4863 
z
" id="DejaVuSans-6c" transform="scale(0.015625)"/>
       <path d="M 1959 3097 
Q 1497 3097 1228 2736 
Q 959 2375 959 1747 
Q 959 1119 1226 758 
Q 1494 397 1959 397 
Q 2419 397 2687 759 
Q 2956 1122 2956 1747 
Q 2956 2369 2687 2733 
Q 2419 3097 1959 3097 
z
M 1959 3584 
Q 2709 3584 3137 3096 
Q 3566 2609 3566 1747 
Q 3566 888 3137 398 
Q 2709 -91 1959 -91 
Q 1206 -91 779 398 
Q 353 888 353 1747 
Q 353 2609 779 3096 
Q 1206 3584 1959 3584 
z
" id="DejaVuSans-6f" transform="scale(0.015625)"/>
       <path d="M 2906 1791 
Q 2906 2416 2648 2759 
Q 2391 3103 1925 3103 
Q 1463 3103 1205 2759 
Q 947 2416 947 1791 
Q 947 1169 1205 825 
Q 1463 481 1925 481 
Q 2391 481 2648 825 
Q 2906 1169 2906 1791 
z
M 3481 434 
Q 3481 -459 3084 -895 
Q 2688 -1331 1869 -1331 
Q 1566 -1331 1297 -1286 
Q 1028 -1241 775 -1147 
L 775 -588 
Q 1028 -725 1275 -790 
Q 1522 -856 1778 -856 
Q 2344 -856 2625 -561 
Q 2906 -266 2906 331 
L 2906 616 
Q 2728 306 2450 153 
Q 2172 0 1784 0 
Q 1141 0 747 490 
Q 353 981 353 1791 
Q 353 2603 747 3093 
Q 1141 3584 1784 3584 
Q 2172 3584 2450 3431 
Q 2728 3278 2906 2969 
L 2906 3500 
L 3481 3500 
L 3481 434 
z
" id="DejaVuSans-67" transform="scale(0.015625)"/>
       <path d="M 794 531 
L 1825 531 
L 1825 4091 
L 703 3866 
L 703 4441 
L 1819 4666 
L 2450 4666 
L 2450 531 
L 3481 531 
L 3481 0 
L 794 0 
L 794 531 
z
" id="DejaVuSans-31" transform="scale(0.015625)"/>
       <path d="M 1984 4856 
Q 1566 4138 1362 3434 
Q 1159 2731 1159 2009 
Q 1159 1288 1364 580 
Q 1569 -128 1984 -844 
L 1484 -844 
Q 1016 -109 783 600 
Q 550 1309 550 2009 
Q 550 2706 781 3412 
Q 1013 4119 1484 4856 
L 1984 4856 
z
" id="DejaVuSans-28" transform="scale(0.015625)"/>
       <path d="M 3272 2816 
L 2363 2816 
L 2100 1772 
L 3016 1772 
L 3272 2816 
z
M 2803 4594 
L 2478 3297 
L 3391 3297 
L 3719 4594 
L 4219 4594 
L 3897 3297 
L 4872 3297 
L 4872 2816 
L 3775 2816 
L 3519 1772 
L 4513 1772 
L 4513 1294 
L 3397 1294 
L 3072 0 
L 2572 0 
L 2894 1294 
L 1978 1294 
L 1656 0 
L 1153 0 
L 1478 1294 
L 494 1294 
L 494 1772 
L 1594 1772 
L 1856 2816 
L 850 2816 
L 850 3297 
L 1978 3297 
L 2297 4594 
L 2803 4594 
z
" id="DejaVuSans-23" transform="scale(0.015625)"/>
       <path id="DejaVuSans-20" transform="scale(0.015625)"/>
       <path d="M 2375 4863 
L 2375 4384 
L 1825 4384 
Q 1516 4384 1395 4259 
Q 1275 4134 1275 3809 
L 1275 3500 
L 2222 3500 
L 2222 3053 
L 1275 3053 
L 1275 0 
L 697 0 
L 697 3053 
L 147 3053 
L 147 3500 
L 697 3500 
L 697 3744 
Q 697 4328 969 4595 
Q 1241 4863 1831 4863 
L 2375 4863 
z
" id="DejaVuSans-66" transform="scale(0.015625)"/>
       <path d="M 313 2009 
L 1997 2009 
L 1997 1497 
L 313 1497 
L 313 2009 
z
" id="DejaVuSans-2d" transform="scale(0.015625)"/>
       <path d="M 3597 1894 
L 3597 1613 
L 953 1613 
Q 991 1019 1311 708 
Q 1631 397 2203 397 
Q 2534 397 2845 478 
Q 3156 559 3463 722 
L 3463 178 
Q 3153 47 2828 -22 
Q 2503 -91 2169 -91 
Q 1331 -91 842 396 
Q 353 884 353 1716 
Q 353 2575 817 3079 
Q 1281 3584 2069 3584 
Q 2775 3584 3186 3129 
Q 3597 2675 3597 1894 
z
M 3022 2063 
Q 3016 2534 2758 2815 
Q 2500 3097 2075 3097 
Q 1594 3097 1305 2825 
Q 1016 2553 972 2059 
L 3022 2063 
z
" id="DejaVuSans-65" transform="scale(0.015625)"/>
       <path d="M 191 3500 
L 800 3500 
L 1894 563 
L 2988 3500 
L 3597 3500 
L 2284 0 
L 1503 0 
L 191 3500 
z
" id="DejaVuSans-76" transform="scale(0.015625)"/>
       <path d="M 2194 1759 
Q 1497 1759 1228 1600 
Q 959 1441 959 1056 
Q 959 750 1161 570 
Q 1363 391 1709 391 
Q 2188 391 2477 730 
Q 2766 1069 2766 1631 
L 2766 1759 
L 2194 1759 
z
M 3341 1997 
L 3341 0 
L 2766 0 
L 2766 531 
Q 2569 213 2275 61 
Q 1981 -91 1556 -91 
Q 1019 -91 701 211 
Q 384 513 384 1019 
Q 384 1609 779 1909 
Q 1175 2209 1959 2209 
L 2766 2209 
L 2766 2266 
Q 2766 2663 2505 2880 
Q 2244 3097 1772 3097 
Q 1472 3097 1187 3025 
Q 903 2953 641 2809 
L 641 3341 
Q 956 3463 1253 3523 
Q 1550 3584 1831 3584 
Q 2591 3584 2966 3190 
Q 3341 2797 3341 1997 
z
" id="DejaVuSans-61" transform="scale(0.015625)"/>
       <path d="M 2834 3397 
L 2834 2853 
Q 2591 2978 2328 3040 
Q 2066 3103 1784 3103 
Q 1356 3103 1142 2972 
Q 928 2841 928 2578 
Q 928 2378 1081 2264 
Q 1234 2150 1697 2047 
L 1894 2003 
Q 2506 1872 2764 1633 
Q 3022 1394 3022 966 
Q 3022 478 2636 193 
Q 2250 -91 1575 -91 
Q 1294 -91 989 -36 
Q 684 19 347 128 
L 347 722 
Q 666 556 975 473 
Q 1284 391 1588 391 
Q 1994 391 2212 530 
Q 2431 669 2431 922 
Q 2431 1156 2273 1281 
Q 2116 1406 1581 1522 
L 1381 1569 
Q 847 1681 609 1914 
Q 372 2147 372 2553 
Q 372 3047 722 3315 
Q 1072 3584 1716 3584 
Q 2034 3584 2315 3537 
Q 2597 3491 2834 3397 
z
" id="DejaVuSans-73" transform="scale(0.015625)"/>
       <path d="M 1625 4666 
L 2156 4666 
L 531 -594 
L 0 -594 
L 1625 4666 
z
" id="DejaVuSans-2f" transform="scale(0.015625)"/>
       <path d="M 2906 2969 
L 2906 4863 
L 3481 4863 
L 3481 0 
L 2906 0 
L 2906 525 
Q 2725 213 2448 61 
Q 2172 -91 1784 -91 
Q 1150 -91 751 415 
Q 353 922 353 1747 
Q 353 2572 751 3078 
Q 1150 3584 1784 3584 
Q 2172 3584 2448 3432 
Q 2725 3281 2906 2969 
z
M 947 1747 
Q 947 1113 1208 752 
Q 1469 391 1925 391 
Q 2381 391 2643 752 
Q 2906 1113 2906 1747 
Q 2906 2381 2643 2742 
Q 2381 3103 1925 3103 
Q 1469 3103 1208 2742 
Q 947 2381 947 1747 
z
" id="DejaVuSans-64" transform="scale(0.015625)"/>
       <path d="M 603 3500 
L 1178 3500 
L 1178 0 
L 603 0 
L 603 3500 
z
M 603 4863 
L 1178 4863 
L 1178 4134 
L 603 4134 
L 603 4863 
z
" id="DejaVuSans-69" transform="scale(0.015625)"/>
       <path d="M 3328 2828 
Q 3544 3216 3844 3400 
Q 4144 3584 4550 3584 
Q 5097 3584 5394 3201 
Q 5691 2819 5691 2113 
L 5691 0 
L 5113 0 
L 5113 2094 
Q 5113 2597 4934 2840 
Q 4756 3084 4391 3084 
Q 3944 3084 3684 2787 
Q 3425 2491 3425 1978 
L 3425 0 
L 2847 0 
L 2847 2094 
Q 2847 2600 2669 2842 
Q 2491 3084 2119 3084 
Q 1678 3084 1418 2786 
Q 1159 2488 1159 1978 
L 1159 0 
L 581 0 
L 581 3500 
L 1159 3500 
L 1159 2956 
Q 1356 3278 1631 3431 
Q 1906 3584 2284 3584 
Q 2666 3584 2933 3390 
Q 3200 3197 3328 2828 
z
" id="DejaVuSans-6d" transform="scale(0.015625)"/>
       <path d="M 3513 2113 
L 3513 0 
L 2938 0 
L 2938 2094 
Q 2938 2591 2744 2837 
Q 2550 3084 2163 3084 
Q 1697 3084 1428 2787 
Q 1159 2491 1159 1978 
L 1159 0 
L 581 0 
L 581 3500 
L 1159 3500 
L 1159 2956 
Q 1366 3272 1645 3428 
Q 1925 3584 2291 3584 
Q 2894 3584 3203 3211 
Q 3513 2838 3513 2113 
z
" id="DejaVuSans-6e" transform="scale(0.015625)"/>
       <path d="M 513 4856 
L 1013 4856 
Q 1481 4119 1714 3412 
Q 1947 2706 1947 2009 
Q 1947 1309 1714 600 
Q 1481 -109 1013 -844 
L 513 -844 
Q 928 -128 1133 580 
Q 1338 1288 1338 2009 
Q 1338 2731 1133 3434 
Q 928 4138 513 4856 
z
" id="DejaVuSans-29" transform="scale(0.015625)"/>
      </defs>
      <use xlink:href="#DejaVuSans-6c"/>
      <use x="27.783203" xlink:href="#DejaVuSans-6f"/>
      <use x="88.964844" xlink:href="#DejaVuSans-67"/>
      <use x="152.441406" xlink:href="#DejaVuSans-31"/>
      <use x="216.064453" xlink:href="#DejaVuSans-30"/>
      <use x="279.6875" xlink:href="#DejaVuSans-28"/>
      <use x="318.701172" xlink:href="#DejaVuSans-23"/>
      <use x="402.490234" xlink:href="#DejaVuSans-20"/>
      <use x="434.277344" xlink:href="#DejaVuSans-66"/>
      <use x="463.982422" xlink:href="#DejaVuSans-2d"/>
      <use x="500.066406" xlink:href="#DejaVuSans-65"/>
      <use x="561.589844" xlink:href="#DejaVuSans-76"/>
      <use x="620.769531" xlink:href="#DejaVuSans-61"/>
      <use x="682.048828" xlink:href="#DejaVuSans-6c"/>
      <use x="709.832031" xlink:href="#DejaVuSans-73"/>
      <use x="761.931641" xlink:href="#DejaVuSans-20"/>
      <use x="793.71875" xlink:href="#DejaVuSans-2f"/>
      <use x="827.410156" xlink:href="#DejaVuSans-20"/>
      <use x="859.197266" xlink:href="#DejaVuSans-64"/>
      <use x="922.673828" xlink:href="#DejaVuSans-69"/>
      <use x="950.457031" xlink:href="#DejaVuSans-6d"/>
      <use x="1047.869141" xlink:href="#DejaVuSans-65"/>
      <use x="1109.392578" xlink:href="#DejaVuSans-6e"/>
      <use x="1172.771484" xlink:href="#DejaVuSans-73"/>
      <use x="1224.871094" xlink:href="#DejaVuSans-69"/>
      <use x="1252.654297" xlink:href="#DejaVuSans-6f"/>
      <use x="1313.835938" xlink:href="#DejaVuSans-6e"/>
      <use x="1377.214844" xlink:href="#DejaVuSans-29"/>
     </g>
    </g>
   </g>
   <g id="matplotlib.axis_2">
    <g id="ytick_1">
     <g id="line2d_21">
      <path clip-path="url(#pd6f023e4b3)" d="M 57.6 298.944 
L 360.8064 298.944 
" style="fill:none;stroke:#b0b0b0;stroke-linecap:square;stroke-width:0.8;"/>
     </g>
     <g id="line2d_22">
      <defs>
       <path d="M 0 0 
L -3.5 0 
" id="m1f00fcff44" style="stroke:#000000;stroke-width:0.8;"/>
      </defs>
      <g>
       <use style="stroke:#000000;stroke-width:0.8;" x="57.6" xlink:href="#m1f00fcff44" y="298.944"/>
      </g>
     </g>
     <g id="text_6">
      <!-- 0.0 -->
      <g transform="translate(25.155 305.02275)scale(0.16 -0.16)">
       <defs>
        <path d="M 684 794 
L 1344 794 
L 1344 0 
L 684 0 
L 684 794 
z
" id="DejaVuSans-2e" transform="scale(0.015625)"/>
       </defs>
       <use xlink:href="#DejaVuSans-30"/>
       <use x="63.623047" xlink:href="#DejaVuSans-2e"/>
       <use x="95.410156" xlink:href="#DejaVuSans-30"/>
      </g>
     </g>
    </g>
    <g id="ytick_2">
     <g id="line2d_23">
      <path clip-path="url(#pd6f023e4b3)" d="M 57.6 244.6848 
L 360.8064 244.6848 
" style="fill:none;stroke:#b0b0b0;stroke-linecap:square;stroke-width:0.8;"/>
     </g>
     <g id="line2d_24">
      <g>
       <use style="stroke:#000000;stroke-width:0.8;" x="57.6" xlink:href="#m1f00fcff44" y="244.6848"/>
      </g>
     </g>
     <g id="text_7">
      <!-- 0.2 -->
      <g transform="translate(25.155 250.76355)scale(0.16 -0.16)">
       <use xlink:href="#DejaVuSans-30"/>
       <use x="63.623047" xlink:href="#DejaVuSans-2e"/>
       <use x="95.410156" xlink:href="#DejaVuSans-32"/>
      </g>
     </g>
    </g>
    <g id="ytick_3">
     <g id="line2d_25">
      <path clip-path="url(#pd6f023e4b3)" d="M 57.6 190.4256 
L 360.8064 190.4256 
" style="fill:none;stroke:#b0b0b0;stroke-linecap:square;stroke-width:0.8;"/>
     </g>
     <g id="line2d_26">
      <g>
       <use style="stroke:#000000;stroke-width:0.8;" x="57.6" xlink:href="#m1f00fcff44" y="190.4256"/>
      </g>
     </g>
     <g id="text_8">
      <!-- 0.4 -->
      <g transform="translate(25.155 196.50435)scale(0.16 -0.16)">
       <use xlink:href="#DejaVuSans-30"/>
       <use x="63.623047" xlink:href="#DejaVuSans-2e"/>
       <use x="95.410156" xlink:href="#DejaVuSans-34"/>
      </g>
     </g>
    </g>
    <g id="ytick_4">
     <g id="line2d_27">
      <path clip-path="url(#pd6f023e4b3)" d="M 57.6 136.1664 
L 360.8064 136.1664 
" style="fill:none;stroke:#b0b0b0;stroke-linecap:square;stroke-width:0.8;"/>
     </g>
     <g id="line2d_28">
      <g>
       <use style="stroke:#000000;stroke-width:0.8;" x="57.6" xlink:href="#m1f00fcff44" y="136.1664"/>
      </g>
     </g>
     <g id="text_9">
      <!-- 0.6 -->
      <g transform="translate(25.155 142.24515)scale(0.16 -0.16)">
       <use xlink:href="#DejaVuSans-30"/>
       <use x="63.623047" xlink:href="#DejaVuSans-2e"/>
       <use x="95.410156" xlink:href="#DejaVuSans-36"/>
      </g>
     </g>
    </g>
    <g id="ytick_5">
     <g id="line2d_29">
      <path clip-path="url(#pd6f023e4b3)" d="M 57.6 81.9072 
L 360.8064 81.9072 
" style="fill:none;stroke:#b0b0b0;stroke-linecap:square;stroke-width:0.8;"/>
     </g>
     <g id="line2d_30">
      <g>
       <use style="stroke:#000000;stroke-width:0.8;" x="57.6" xlink:href="#m1f00fcff44" y="81.9072"/>
      </g>
     </g>
     <g id="text_10">
      <!-- 0.8 -->
      <g transform="translate(25.155 87.98595)scale(0.16 -0.16)">
       <defs>
        <path d="M 2034 2216 
Q 1584 2216 1326 1975 
Q 1069 1734 1069 1313 
Q 1069 891 1326 650 
Q 1584 409 2034 409 
Q 2484 409 2743 651 
Q 3003 894 3003 1313 
Q 3003 1734 2745 1975 
Q 2488 2216 2034 2216 
z
M 1403 2484 
Q 997 2584 770 2862 
Q 544 3141 544 3541 
Q 544 4100 942 4425 
Q 1341 4750 2034 4750 
Q 2731 4750 3128 4425 
Q 3525 4100 3525 3541 
Q 3525 3141 3298 2862 
Q 3072 2584 2669 2484 
Q 3125 2378 3379 2068 
Q 3634 1759 3634 1313 
Q 3634 634 3220 271 
Q 2806 -91 2034 -91 
Q 1263 -91 848 271 
Q 434 634 434 1313 
Q 434 1759 690 2068 
Q 947 2378 1403 2484 
z
M 1172 3481 
Q 1172 3119 1398 2916 
Q 1625 2713 2034 2713 
Q 2441 2713 2670 2916 
Q 2900 3119 2900 3481 
Q 2900 3844 2670 4047 
Q 2441 4250 2034 4250 
Q 1625 4250 1398 4047 
Q 1172 3844 1172 3481 
z
" id="DejaVuSans-38" transform="scale(0.015625)"/>
       </defs>
       <use xlink:href="#DejaVuSans-30"/>
       <use x="63.623047" xlink:href="#DejaVuSans-2e"/>
       <use x="95.410156" xlink:href="#DejaVuSans-38"/>
      </g>
     </g>
    </g>
    <g id="ytick_6">
     <g id="line2d_31">
      <path clip-path="url(#pd6f023e4b3)" d="M 57.6 27.648 
L 360.8064 27.648 
" style="fill:none;stroke:#b0b0b0;stroke-linecap:square;stroke-width:0.8;"/>
     </g>
     <g id="line2d_32">
      <g>
       <use style="stroke:#000000;stroke-width:0.8;" x="57.6" xlink:href="#m1f00fcff44" y="27.648"/>
      </g>
     </g>
     <g id="text_11">
      <!-- 1.0 -->
      <g transform="translate(25.155 33.72675)scale(0.16 -0.16)">
       <use xlink:href="#DejaVuSans-31"/>
       <use x="63.623047" xlink:href="#DejaVuSans-2e"/>
       <use x="95.410156" xlink:href="#DejaVuSans-30"/>
      </g>
     </g>
    </g>
    <g id="text_12">
     <!-- Fraction of function,target pairs -->
     <g transform="translate(17.619531 297.681)rotate(-90)scale(0.17 -0.17)">
      <defs>
       <path d="M 628 4666 
L 3309 4666 
L 3309 4134 
L 1259 4134 
L 1259 2759 
L 3109 2759 
L 3109 2228 
L 1259 2228 
L 1259 0 
L 628 0 
L 628 4666 
z
" id="DejaVuSans-46" transform="scale(0.015625)"/>
       <path d="M 2631 2963 
Q 2534 3019 2420 3045 
Q 2306 3072 2169 3072 
Q 1681 3072 1420 2755 
Q 1159 2438 1159 1844 
L 1159 0 
L 581 0 
L 581 3500 
L 1159 3500 
L 1159 2956 
Q 1341 3275 1631 3429 
Q 1922 3584 2338 3584 
Q 2397 3584 2469 3576 
Q 2541 3569 2628 3553 
L 2631 2963 
z
" id="DejaVuSans-72" transform="scale(0.015625)"/>
       <path d="M 3122 3366 
L 3122 2828 
Q 2878 2963 2633 3030 
Q 2388 3097 2138 3097 
Q 1578 3097 1268 2742 
Q 959 2388 959 1747 
Q 959 1106 1268 751 
Q 1578 397 2138 397 
Q 2388 397 2633 464 
Q 2878 531 3122 666 
L 3122 134 
Q 2881 22 2623 -34 
Q 2366 -91 2075 -91 
Q 1284 -91 818 406 
Q 353 903 353 1747 
Q 353 2603 823 3093 
Q 1294 3584 2113 3584 
Q 2378 3584 2631 3529 
Q 2884 3475 3122 3366 
z
" id="DejaVuSans-63" transform="scale(0.015625)"/>
       <path d="M 1172 4494 
L 1172 3500 
L 2356 3500 
L 2356 3053 
L 1172 3053 
L 1172 1153 
Q 1172 725 1289 603 
Q 1406 481 1766 481 
L 2356 481 
L 2356 0 
L 1766 0 
Q 1100 0 847 248 
Q 594 497 594 1153 
L 594 3053 
L 172 3053 
L 172 3500 
L 594 3500 
L 594 4494 
L 1172 4494 
z
" id="DejaVuSans-74" transform="scale(0.015625)"/>
       <path d="M 544 1381 
L 544 3500 
L 1119 3500 
L 1119 1403 
Q 1119 906 1312 657 
Q 1506 409 1894 409 
Q 2359 409 2629 706 
Q 2900 1003 2900 1516 
L 2900 3500 
L 3475 3500 
L 3475 0 
L 2900 0 
L 2900 538 
Q 2691 219 2414 64 
Q 2138 -91 1772 -91 
Q 1169 -91 856 284 
Q 544 659 544 1381 
z
M 1991 3584 
L 1991 3584 
z
" id="DejaVuSans-75" transform="scale(0.015625)"/>
       <path d="M 750 794 
L 1409 794 
L 1409 256 
L 897 -744 
L 494 -744 
L 750 256 
L 750 794 
z
" id="DejaVuSans-2c" transform="scale(0.015625)"/>
       <path d="M 1159 525 
L 1159 -1331 
L 581 -1331 
L 581 3500 
L 1159 3500 
L 1159 2969 
Q 1341 3281 1617 3432 
Q 1894 3584 2278 3584 
Q 2916 3584 3314 3078 
Q 3713 2572 3713 1747 
Q 3713 922 3314 415 
Q 2916 -91 2278 -91 
Q 1894 -91 1617 61 
Q 1341 213 1159 525 
z
M 3116 1747 
Q 3116 2381 2855 2742 
Q 2594 3103 2138 3103 
Q 1681 3103 1420 2742 
Q 1159 2381 1159 1747 
Q 1159 1113 1420 752 
Q 1681 391 2138 391 
Q 2594 391 2855 752 
Q 3116 1113 3116 1747 
z
" id="DejaVuSans-70" transform="scale(0.015625)"/>
      </defs>
      <use xlink:href="#DejaVuSans-46"/>
      <use x="50.269531" xlink:href="#DejaVuSans-72"/>
      <use x="91.382812" xlink:href="#DejaVuSans-61"/>
      <use x="152.662109" xlink:href="#DejaVuSans-63"/>
      <use x="207.642578" xlink:href="#DejaVuSans-74"/>
      <use x="246.851562" xlink:href="#DejaVuSans-69"/>
      <use x="274.634766" xlink:href="#DejaVuSans-6f"/>
      <use x="335.816406" xlink:href="#DejaVuSans-6e"/>
      <use x="399.195312" xlink:href="#DejaVuSans-20"/>
      <use x="430.982422" xlink:href="#DejaVuSans-6f"/>
      <use x="492.164062" xlink:href="#DejaVuSans-66"/>
      <use x="527.369141" xlink:href="#DejaVuSans-20"/>
      <use x="559.15625" xlink:href="#DejaVuSans-66"/>
      <use x="594.361328" xlink:href="#DejaVuSans-75"/>
      <use x="657.740234" xlink:href="#DejaVuSans-6e"/>
      <use x="721.119141" xlink:href="#DejaVuSans-63"/>
      <use x="776.099609" xlink:href="#DejaVuSans-74"/>
      <use x="815.308594" xlink:href="#DejaVuSans-69"/>
      <use x="843.091797" xlink:href="#DejaVuSans-6f"/>
      <use x="904.273438" xlink:href="#DejaVuSans-6e"/>
      <use x="967.652344" xlink:href="#DejaVuSans-2c"/>
      <use x="999.439453" xlink:href="#DejaVuSans-74"/>
      <use x="1038.648438" xlink:href="#DejaVuSans-61"/>
      <use x="1099.927734" xlink:href="#DejaVuSans-72"/>
      <use x="1139.291016" xlink:href="#DejaVuSans-67"/>
      <use x="1202.767578" xlink:href="#DejaVuSans-65"/>
      <use x="1264.291016" xlink:href="#DejaVuSans-74"/>
      <use x="1303.5" xlink:href="#DejaVuSans-20"/>
      <use x="1335.287109" xlink:href="#DejaVuSans-70"/>
      <use x="1398.763672" xlink:href="#DejaVuSans-61"/>
      <use x="1460.042969" xlink:href="#DejaVuSans-69"/>
      <use x="1487.826172" xlink:href="#DejaVuSans-72"/>
      <use x="1528.939453" xlink:href="#DejaVuSans-73"/>
     </g>
    </g>
   </g>
   <g id="line2d_33">
    <defs>
     <path d="M 0 1.5 
C 0.397805 1.5 0.77937 1.341951 1.06066 1.06066 
C 1.341951 0.77937 1.5 0.397805 1.5 0 
C 1.5 -0.397805 1.341951 -0.77937 1.06066 -1.06066 
C 0.77937 -1.341951 0.397805 -1.5 0 -1.5 
C -0.397805 -1.5 -0.77937 -1.341951 -1.06066 -1.06066 
C -1.341951 -0.77937 -1.5 -0.397805 -1.5 0 
C -1.5 0.397805 -1.341951 0.77937 -1.06066 1.06066 
C -0.77937 1.341951 -0.397805 1.5 0 1.5 
z
" id="m64fd50a878" style="stroke:#f5deb3;"/>
    </defs>
    <g>
     <use style="fill:#f5deb3;stroke:#f5deb3;" x="155.329337" xlink:href="#m64fd50a878" y="27.648"/>
     <use style="fill:#f5deb3;stroke:#f5deb3;" x="155.329337" xlink:href="#m64fd50a878" y="27.648"/>
    </g>
   </g>
   <g id="line2d_34">
    <defs>
     <path d="M 0 1.5 
C 0.397805 1.5 0.77937 1.341951 1.06066 1.06066 
C 1.341951 0.77937 1.5 0.397805 1.5 0 
C 1.5 -0.397805 1.341951 -0.77937 1.06066 -1.06066 
C 0.77937 -1.341951 0.397805 -1.5 0 -1.5 
C -0.397805 -1.5 -0.77937 -1.341951 -1.06066 -1.06066 
C -1.341951 -0.77937 -1.5 -0.397805 -1.5 0 
C -1.5 0.397805 -1.341951 0.77937 -1.06066 1.06066 
C -0.77937 1.341951 -0.397805 1.5 0 1.5 
z
" id="m8c35434329" style="stroke:#000080;"/>
    </defs>
    <g>
     <use style="fill:#000080;stroke:#000080;" x="279.783521" xlink:href="#m8c35434329" y="256.387765"/>
     <use style="fill:#000080;stroke:#000080;" x="279.783521" xlink:href="#m8c35434329" y="256.387765"/>
    </g>
   </g>
   <g id="line2d_35">
    <path d="M 198.742302 298.944 
L 198.742302 298.234729 
L 200.313827 298.234729 
L 200.313827 297.880094 
L 206.617747 297.880094 
L 206.617747 297.170824 
L 206.894174 297.170824 
L 206.894174 296.816188 
L 210.221642 296.816188 
L 210.221642 295.043012 
L 210.556754 295.043012 
L 210.556754 294.688376 
L 211.607435 294.688376 
L 211.607435 294.333741 
L 211.747213 294.333741 
L 211.788737 292.9152 
L 211.958035 292.9152 
L 212.003198 292.205929 
L 212.380761 292.205929 
L 212.380761 291.851294 
L 213.082936 291.851294 
L 213.082936 291.496659 
L 214.281087 291.496659 
L 214.311943 290.432753 
L 214.551619 290.432753 
L 214.551619 289.014212 
L 214.934474 289.014212 
L 214.934474 288.659576 
L 215.335474 288.659576 
L 215.335474 287.950306 
L 216.018532 287.950306 
L 216.018532 286.8864 
L 216.319221 286.8864 
L 216.319221 286.177129 
L 216.727167 286.177129 
L 216.727167 285.822494 
L 216.893909 285.822494 
L 216.893909 285.467859 
L 217.188814 285.467859 
L 217.188814 285.113224 
L 217.436206 285.113224 
L 217.436206 284.758588 
L 218.216999 284.758588 
L 218.216999 284.403953 
L 218.617942 284.403953 
L 218.724389 283.694682 
L 218.798831 283.694682 
L 218.798831 282.630776 
L 219.071169 282.630776 
L 219.180689 281.566871 
L 219.225437 281.566871 
L 219.225437 281.212235 
L 220.590919 281.212235 
L 220.590919 280.502965 
L 220.753874 280.502965 
L 220.753874 280.148329 
L 221.376994 280.148329 
L 221.376994 279.439059 
L 221.696909 279.439059 
L 221.696909 279.084424 
L 222.092 279.084424 
L 222.092 278.020518 
L 222.435442 278.020518 
L 222.435442 277.311247 
L 222.709001 277.311247 
L 222.709001 276.956612 
L 222.969485 276.956612 
L 222.969485 275.538071 
L 223.12792 275.538071 
L 223.22641 274.8288 
L 223.51104 274.8288 
L 223.51104 274.474165 
L 223.667204 274.474165 
L 223.667204 274.119529 
L 224.250361 274.119529 
L 224.250361 273.764894 
L 224.923587 273.764894 
L 224.923587 273.055624 
L 225.56358 273.055624 
L 225.661052 272.346353 
L 225.746175 272.346353 
L 225.754074 271.637082 
L 226.00023 271.637082 
L 226.07025 270.927812 
L 226.622164 270.927812 
L 226.622164 270.218541 
L 236.183829 270.218541 
L 236.183829 269.863906 
L 236.336303 269.863906 
L 236.336303 269.154635 
L 237.249662 269.154635 
L 237.249662 268.8 
L 237.560512 268.8 
L 237.560512 267.736094 
L 237.712202 267.736094 
L 237.712202 267.381459 
L 237.951151 267.381459 
L 237.951151 267.026824 
L 238.268992 267.026824 
L 238.268992 266.672188 
L 238.857549 266.672188 
L 238.857549 265.962918 
L 239.254227 265.962918 
L 239.258079 264.899012 
L 239.412973 264.899012 
L 239.412973 264.189741 
L 244.478107 264.189741 
L 244.478107 263.835106 
L 245.932673 263.835106 
L 245.932673 263.480471 
L 246.259079 263.480471 
L 246.259079 263.125835 
L 246.38972 263.125835 
L 246.38972 262.7712 
L 247.037933 262.7712 
L 247.037933 262.416565 
L 247.322357 262.416565 
L 247.322357 262.061929 
L 251.706014 262.061929 
L 251.706014 261.707294 
L 251.946707 261.707294 
L 251.946707 261.352659 
L 252.525432 261.352659 
L 252.525432 260.998024 
L 256.117358 260.998024 
L 256.117358 260.643388 
L 256.307991 260.643388 
L 256.307991 260.288753 
L 256.768414 260.288753 
L 256.82963 258.870212 
L 259.846029 258.870212 
L 259.846029 258.515576 
L 262.373902 258.515576 
L 262.373902 257.806306 
L 265.677666 257.806306 
L 265.677666 257.451671 
L 271.726697 257.451671 
L 271.726697 257.097035 
L 276.274906 257.097035 
L 276.274906 256.7424 
L 279.783521 256.7424 
L 279.783521 256.387765 
L 360.8064 256.387765 
L 360.8064 256.387765 
" style="fill:none;stroke:#000080;stroke-linecap:square;stroke-width:1.5;"/>
   </g>
   <g id="line2d_36">
    <defs>
     <path d="M 0 6 
C 1.591219 6 3.117479 5.367802 4.242641 4.242641 
C 5.367802 3.117479 6 1.591219 6 0 
C 6 -1.591219 5.367802 -3.117479 4.242641 -4.242641 
C 3.117479 -5.367802 1.591219 -6 0 -6 
C -1.591219 -6 -3.117479 -5.367802 -4.242641 -4.242641 
C -5.367802 -3.117479 -6 -1.591219 -6 0 
C -6 1.591219 -5.367802 3.117479 -4.242641 4.242641 
C -3.117479 5.367802 -1.591219 6 0 6 
z
" id="mb68edf24be" style="stroke:#000080;stroke-width:1.5;"/>
    </defs>
    <g>
     <use style="fill-opacity:0;stroke:#000080;stroke-width:1.5;" x="244.478107" xlink:href="#mb68edf24be" y="263.835106"/>
     <use style="fill-opacity:0;stroke:#000080;stroke-width:1.5;" x="279.783521" xlink:href="#mb68edf24be" y="256.7424"/>
     <use style="fill-opacity:0;stroke:#000080;stroke-width:1.5;" x="279.783521" xlink:href="#mb68edf24be" y="256.387765"/>
     <use style="fill-opacity:0;stroke:#000080;stroke-width:1.5;" x="360.8064" xlink:href="#mb68edf24be" y="256.387765"/>
    </g>
   </g>
   <g id="line2d_37">
    <path style="fill:none;stroke:#000080;stroke-linecap:square;stroke-width:1.5;"/>
    <g/>
   </g>
   <g id="line2d_38">
    <path clip-path="url(#pd6f023e4b3)" d="M 226.672527 270.218541 
" style="fill:none;stroke:#000080;stroke-linecap:square;stroke-width:1.5;"/>
    <defs>
     <path d="M -12 12 
L 12 -12 
M -12 -12 
L 12 12 
" id="m5e0139baf7" style="stroke:#000080;"/>
    </defs>
    <g clip-path="url(#pd6f023e4b3)">
     <use style="fill:#000080;stroke:#000080;" x="226.672527" xlink:href="#m5e0139baf7" y="270.218541"/>
    </g>
   </g>
   <g id="line2d_39">
    <defs>
     <path d="M 0 1.5 
C 0.397805 1.5 0.77937 1.341951 1.06066 1.06066 
C 1.341951 0.77937 1.5 0.397805 1.5 0 
C 1.5 -0.397805 1.341951 -0.77937 1.06066 -1.06066 
C 0.77937 -1.341951 0.397805 -1.5 0 -1.5 
C -0.397805 -1.5 -0.77937 -1.341951 -1.06066 -1.06066 
C -1.341951 -0.77937 -1.5 -0.397805 -1.5 0 
C -1.5 0.397805 -1.341951 0.77937 -1.06066 1.06066 
C -0.77937 1.341951 -0.397805 1.5 0 1.5 
z
" id="m6f254ba3b9" style="stroke:#ff00ff;"/>
    </defs>
    <g>
     <use style="fill:#ff00ff;stroke:#ff00ff;" x="201.177313" xlink:href="#m6f254ba3b9" y="27.648"/>
     <use style="fill:#ff00ff;stroke:#ff00ff;" x="201.177313" xlink:href="#m6f254ba3b9" y="27.648"/>
    </g>
   </g>
   <g id="line2d_40">
    <path d="M 129.125437 298.944 
L 129.125437 298.234729 
L 136.92008 298.234729 
L 136.92008 297.880094 
L 137.998402 297.880094 
L 137.998402 297.525459 
L 138.968547 297.525459 
L 138.968547 297.170824 
L 139.313723 297.170824 
L 139.313723 296.816188 
L 140.126547 296.816188 
L 140.126547 296.461553 
L 141.173167 296.461553 
L 141.173167 295.397647 
L 141.65386 295.397647 
L 141.739954 294.688376 
L 142.248405 294.688376 
L 142.248405 294.333741 
L 142.620923 294.333741 
L 142.702713 293.624471 
L 142.905644 293.624471 
L 142.905644 292.9152 
L 144.003296 292.9152 
L 144.003296 292.205929 
L 144.822939 292.205929 
L 144.822939 291.851294 
L 145.538293 291.851294 
L 145.538293 291.496659 
L 146.595975 291.496659 
L 146.595975 291.142024 
L 147.022411 291.142024 
L 147.087167 290.432753 
L 147.502732 290.432753 
L 147.502732 290.078118 
L 148.03267 290.078118 
L 148.03267 289.723482 
L 148.307296 289.723482 
L 148.397954 289.014212 
L 148.637595 289.014212 
L 148.637595 288.659576 
L 148.932916 288.659576 
L 148.962194 287.950306 
L 149.223672 287.950306 
L 149.281288 287.241035 
L 149.367382 287.241035 
L 149.453084 286.531765 
L 149.903682 286.531765 
L 149.98698 285.467859 
L 150.179921 285.467859 
L 150.262008 284.403953 
L 150.316534 284.403953 
L 150.370903 283.694682 
L 150.613636 283.694682 
L 150.613636 282.276141 
L 151.116012 282.276141 
L 151.116012 281.921506 
L 151.32359 281.921506 
L 151.426526 281.212235 
L 151.50336 281.212235 
L 151.50336 280.8576 
L 151.681429 280.8576 
L 151.731998 279.793694 
L 151.832729 279.793694 
L 151.832729 279.439059 
L 151.982822 279.439059 
L 152.082223 276.956612 
L 152.15643 276.956612 
L 152.20574 276.247341 
L 152.352898 276.247341 
L 152.352898 275.538071 
L 152.547334 275.538071 
L 152.547334 275.183435 
L 152.667844 275.183435 
L 152.763699 274.119529 
L 152.953957 274.119529 
L 153.001222 273.410259 
L 153.095398 273.410259 
L 153.165721 271.991718 
L 153.212458 271.991718 
L 153.282346 270.927812 
L 153.351976 270.927812 
L 153.421349 269.863906 
L 153.490466 269.863906 
L 153.58223 269.154635 
L 153.696309 269.154635 
L 153.696309 268.090729 
L 153.832297 268.090729 
L 153.854866 267.026824 
L 154.012098 267.026824 
L 154.101358 265.608282 
L 154.14583 265.608282 
L 154.256552 264.189741 
L 154.388563 264.189741 
L 154.476059 262.416565 
L 154.519655 262.416565 
L 154.606544 261.707294 
L 154.671449 261.707294 
L 154.779128 259.224847 
L 154.886195 259.224847 
L 154.886195 258.870212 
L 155.161749 258.870212 
L 155.161749 258.515576 
L 155.329337 258.515576 
L 155.412574 256.7424 
L 155.474761 256.7424 
L 155.577951 253.905318 
L 155.598521 253.905318 
L 155.660098 252.132141 
L 155.721473 252.132141 
L 155.802997 249.649694 
L 156.085579 249.649694 
L 156.185481 248.585788 
L 156.225294 248.585788 
L 156.225294 247.521882 
L 156.423104 247.521882 
L 156.462418 246.812612 
L 156.579868 246.812612 
L 156.618856 245.039435 
L 156.696589 245.039435 
L 156.696589 244.6848 
L 156.831855 244.6848 
L 156.831855 244.330165 
L 156.985263 244.330165 
L 157.080512 243.266259 
L 157.118477 243.266259 
L 157.194177 240.783812 
L 157.30716 240.783812 
L 157.30716 240.429176 
L 157.456756 240.429176 
L 157.549652 239.010635 
L 157.568177 239.010635 
L 157.660526 237.237459 
L 157.734081 237.237459 
L 157.770751 235.464282 
L 157.898535 235.464282 
L 157.971166 234.045741 
L 158.187393 234.045741 
L 158.294582 231.917929 
L 158.312387 231.917929 
L 158.312387 231.563294 
L 158.507144 231.563294 
L 158.612531 230.854024 
L 158.699905 230.854024 
L 158.769513 228.726212 
L 158.821551 228.726212 
L 158.890711 226.243765 
L 159.028273 226.243765 
L 159.079601 225.179859 
L 159.164837 225.179859 
L 159.215793 224.115953 
L 159.351007 224.115953 
L 159.435025 221.633506 
L 159.468527 221.633506 
L 159.50197 219.505694 
L 159.68485 219.505694 
L 159.783859 217.732518 
L 159.816746 217.732518 
L 159.833168 217.023247 
L 159.996606 217.023247 
L 160.093991 214.895435 
L 160.158636 214.895435 
L 160.223059 212.767624 
L 160.319282 212.767624 
L 160.383158 211.703718 
L 160.446818 211.703718 
L 160.446818 211.349082 
L 160.589271 211.349082 
L 160.699326 208.512 
L 160.730652 208.512 
L 160.777545 206.738824 
L 160.855439 206.738824 
L 160.963953 205.320282 
L 161.041081 205.320282 
L 161.148532 204.256376 
L 161.163832 204.256376 
L 161.270586 200.710024 
L 161.316153 200.710024 
L 161.422049 197.518306 
L 161.467251 197.518306 
L 161.527352 196.099765 
L 161.676769 196.099765 
L 161.765853 194.326588 
L 161.825009 194.326588 
L 161.913396 191.134871 
L 161.97209 191.134871 
L 162.015991 190.4256 
L 162.088932 190.4256 
L 162.161592 189.007059 
L 162.219518 189.007059 
L 162.219518 188.297788 
L 162.449456 188.297788 
L 162.534963 186.524612 
L 162.620084 186.524612 
L 162.676617 184.751435 
L 162.789177 184.751435 
L 162.887118 182.623624 
L 162.942856 182.623624 
L 163.026155 180.495812 
L 163.109086 180.495812 
L 163.219095 179.431906 
L 163.355708 179.431906 
L 163.437203 178.013365 
L 163.558786 178.013365 
L 163.65281 175.176282 
L 163.692963 175.176282 
L 163.786321 174.112376 
L 163.82619 174.112376 
L 163.932096 171.984565 
L 163.945293 171.984565 
L 164.037409 170.566024 
L 164.063646 170.566024 
L 164.168227 169.502118 
L 164.181259 169.502118 
L 164.207296 168.792847 
L 164.298142 168.792847 
L 164.298142 167.374306 
L 164.427166 167.374306 
L 164.529751 165.955765 
L 164.542535 165.955765 
L 164.63178 164.537224 
L 164.720604 164.537224 
L 164.758543 163.827953 
L 164.897003 163.827953 
L 164.997064 161.345506 
L 165.009535 161.345506 
L 165.059334 159.572329 
L 165.183257 159.572329 
L 165.294095 158.508424 
L 165.404283 158.508424 
L 165.51383 157.089882 
L 165.64686 157.089882 
L 165.695002 154.607435 
L 165.874446 154.607435 
L 165.933882 153.543529 
L 166.016779 153.543529 
L 166.099311 151.415718 
L 166.263299 151.415718 
L 166.367969 148.933271 
L 166.460523 148.933271 
L 166.541136 147.869365 
L 166.701332 147.869365 
L 166.8036 146.805459 
L 166.837566 146.805459 
L 166.894041 145.032282 
L 166.972821 145.032282 
L 167.01769 144.323012 
L 167.173896 144.323012 
L 167.207201 143.259106 
L 167.350843 143.259106 
L 167.460596 141.840565 
L 167.493397 141.840565 
L 167.602324 140.067388 
L 167.634879 140.067388 
L 167.710623 139.003482 
L 167.753769 139.003482 
L 167.753769 138.648847 
L 167.882616 138.648847 
L 167.882616 138.294212 
L 168.03183 138.294212 
L 168.116567 137.230306 
L 168.169334 137.230306 
L 168.221954 136.521035 
L 168.451748 136.521035 
L 168.555279 135.811765 
L 168.586228 135.811765 
L 168.668509 133.683953 
L 168.699272 133.683953 
L 168.770857 131.201506 
L 168.862497 131.201506 
L 168.943582 130.1376 
L 169.064557 130.1376 
L 169.164778 127.655153 
L 169.184759 127.655153 
L 169.284344 125.881976 
L 169.343842 125.881976 
L 169.442591 124.463435 
L 169.491772 124.463435 
L 169.491772 124.1088 
L 169.638546 124.1088 
L 169.726065 122.690259 
L 169.822832 122.690259 
L 169.919104 120.917082 
L 169.967056 120.917082 
L 169.995769 120.207812 
L 170.091163 120.207812 
L 170.19554 117.725365 
L 170.205 117.725365 
L 170.308749 114.888282 
L 170.346334 114.888282 
L 170.346334 114.533647 
L 170.458643 114.533647 
L 170.551723 113.115106 
L 170.570284 113.115106 
L 170.672043 110.987294 
L 170.736514 110.987294 
L 170.828233 110.278024 
L 170.864796 110.278024 
L 170.964979 108.859482 
L 170.992209 108.859482 
L 171.073664 108.150212 
L 171.172743 108.150212 
L 171.271304 107.086306 
L 171.307016 107.086306 
L 171.387122 106.0224 
L 171.440338 106.0224 
L 171.537509 104.603859 
L 171.555123 104.603859 
L 171.555123 104.249224 
L 171.686704 104.249224 
L 171.773916 103.539953 
L 171.843395 103.539953 
L 171.895337 102.476047 
L 171.96437 102.476047 
L 172.067447 101.766776 
L 172.212513 101.766776 
L 172.288863 101.057506 
L 172.331145 101.057506 
L 172.432238 99.284329 
L 172.53279 99.284329 
L 172.624492 97.511153 
L 172.699191 97.511153 
L 172.699191 97.156518 
L 172.823033 97.156518 
L 172.823033 96.801882 
L 173.027642 96.801882 
L 173.03578 96.092612 
L 173.221995 96.092612 
L 173.230049 95.383341 
L 173.334447 95.383341 
L 173.422332 93.610165 
L 173.478047 93.610165 
L 173.588983 92.191624 
L 173.596882 92.191624 
L 173.667825 91.127718 
L 173.722818 91.127718 
L 173.762 89.709176 
L 173.847916 89.709176 
L 173.925682 88.999906 
L 173.995397 88.999906 
L 174.095643 87.226729 
L 174.141731 87.226729 
L 174.225934 86.517459 
L 174.279322 86.517459 
L 174.279322 86.162824 
L 174.453679 86.162824 
L 174.528986 85.098918 
L 174.566526 85.098918 
L 174.671243 83.680376 
L 174.760539 83.680376 
L 174.827233 82.261835 
L 174.886319 82.261835 
L 174.974602 81.197929 
L 175.236991 81.197929 
L 175.316441 80.134024 
L 175.366826 80.134024 
L 175.402733 79.424753 
L 175.623838 79.424753 
L 175.680478 78.360847 
L 175.743995 78.360847 
L 175.807298 77.296941 
L 175.912332 77.296941 
L 175.912332 76.942306 
L 176.023726 76.942306 
L 176.10684 75.169129 
L 176.155155 75.169129 
L 176.189589 74.459859 
L 176.381266 74.459859 
L 176.469599 73.750588 
L 176.503464 73.750588 
L 176.503464 73.395953 
L 176.698683 73.395953 
L 176.798869 72.332047 
L 177.010832 72.332047 
L 177.010832 71.977412 
L 177.12902 71.977412 
L 177.239965 70.913506 
L 177.479194 70.913506 
L 177.479194 70.558871 
L 177.753447 70.558871 
L 177.822968 69.494965 
L 177.873367 69.494965 
L 177.967504 68.785694 
L 178.098508 68.785694 
L 178.17296 67.721788 
L 178.357812 67.721788 
L 178.376197 67.012518 
L 178.577262 67.012518 
L 178.686034 66.303247 
L 178.758202 66.303247 
L 178.848023 65.239341 
L 178.919572 65.239341 
L 178.996779 64.530071 
L 179.085471 64.530071 
L 179.167874 63.8208 
L 179.20308 63.8208 
L 179.290807 63.111529 
L 179.354881 63.111529 
L 179.354881 62.756894 
L 179.534288 62.756894 
L 179.631951 61.338353 
L 179.774658 61.338353 
L 179.774658 60.983718 
L 180.023223 60.983718 
L 180.118386 59.919812 
L 180.13513 59.919812 
L 180.224179 58.501271 
L 180.29069 58.501271 
L 180.29069 58.146635 
L 180.532572 58.146635 
L 180.532572 57.437365 
L 180.782166 57.437365 
L 180.884301 56.373459 
L 180.959205 56.373459 
L 181.028493 55.309553 
L 181.071005 55.309553 
L 181.071005 54.954918 
L 181.282135 54.954918 
L 181.350246 53.891012 
L 181.527223 53.891012 
L 181.558283 53.181741 
L 181.67173 53.181741 
L 181.733323 52.117835 
L 181.891511 52.117835 
L 181.891511 51.7632 
L 182.138869 51.7632 
L 182.138869 51.408565 
L 182.288723 51.408565 
L 182.288723 51.053929 
L 182.619148 51.053929 
L 182.702072 49.990024 
L 182.774938 49.990024 
L 182.774938 49.635388 
L 183.362027 49.635388 
L 183.362027 49.280753 
L 183.474475 49.280753 
L 183.474475 48.926118 
L 183.590898 48.926118 
L 183.60018 48.216847 
L 183.734269 48.216847 
L 183.81243 47.152941 
L 184.072155 47.152941 
L 184.135402 46.089035 
L 184.184948 46.089035 
L 184.184948 45.7344 
L 184.457357 45.7344 
L 184.506063 45.025129 
L 184.651429 45.025129 
L 184.708387 43.961224 
L 184.88257 43.961224 
L 184.88257 43.606588 
L 185.115186 43.606588 
L 185.13658 42.897318 
L 185.247437 42.897318 
L 185.294142 42.188047 
L 185.642864 42.188047 
L 185.750786 41.478776 
L 185.858093 41.478776 
L 185.956604 40.769506 
L 186.143988 40.769506 
L 186.143988 40.414871 
L 186.50132 40.414871 
L 186.50132 40.060235 
L 186.663677 40.060235 
L 186.703065 39.350965 
L 186.859796 39.350965 
L 186.957094 38.641694 
L 187.02297 38.641694 
L 187.02297 38.287059 
L 187.180906 38.287059 
L 187.180906 37.932424 
L 187.333722 37.932424 
L 187.409667 37.223153 
L 187.921806 37.223153 
L 187.921806 36.868518 
L 188.116252 36.868518 
L 188.200013 36.159247 
L 188.305096 36.159247 
L 188.305096 35.804612 
L 188.835937 35.804612 
L 188.835937 35.449976 
L 189.042064 35.449976 
L 189.146015 34.740706 
L 189.259701 34.740706 
L 189.259701 34.386071 
L 189.406814 34.386071 
L 189.444263 33.6768 
L 189.744553 33.6768 
L 189.831381 32.967529 
L 189.907857 32.967529 
L 189.931071 32.258259 
L 190.046713 32.258259 
L 190.046713 31.903624 
L 190.279139 31.903624 
L 190.382963 31.194353 
L 190.42175 31.194353 
L 190.42175 30.839718 
L 190.92512 30.839718 
L 190.92512 30.485082 
L 191.728221 30.485082 
L 191.728221 30.130447 
L 193.590854 30.130447 
L 193.590854 29.775812 
L 194.399877 29.775812 
L 194.498926 29.066541 
L 194.656844 29.066541 
L 194.656844 28.711906 
L 197.273538 28.711906 
L 197.273538 28.357271 
L 198.466425 28.357271 
L 198.466425 28.002635 
L 201.177313 28.002635 
L 201.177313 27.648 
L 360.8064 27.648 
L 360.8064 27.648 
" style="fill:none;stroke:#ff00ff;stroke-linecap:square;stroke-width:1.5;"/>
   </g>
   <g id="line2d_41">
    <defs>
     <path d="M -0 8.485281 
L 5.091169 0 
L 0 -8.485281 
L -5.091169 -0 
z
" id="m1c24164204" style="stroke:#ff00ff;stroke-linejoin:miter;stroke-width:1.5;"/>
    </defs>
    <g>
     <use style="fill-opacity:0;stroke:#ff00ff;stroke-linejoin:miter;stroke-width:1.5;" x="162.219518" xlink:href="#m1c24164204" y="189.007059"/>
     <use style="fill-opacity:0;stroke:#ff00ff;stroke-linejoin:miter;stroke-width:1.5;" x="201.177313" xlink:href="#m1c24164204" y="28.002635"/>
     <use style="fill-opacity:0;stroke:#ff00ff;stroke-linejoin:miter;stroke-width:1.5;" x="201.177313" xlink:href="#m1c24164204" y="27.648"/>
     <use style="fill-opacity:0;stroke:#ff00ff;stroke-linejoin:miter;stroke-width:1.5;" x="201.177313" xlink:href="#m1c24164204" y="27.648"/>
     <use style="fill-opacity:0;stroke:#ff00ff;stroke-linejoin:miter;stroke-width:1.5;" x="360.8064" xlink:href="#m1c24164204" y="27.648"/>
    </g>
   </g>
   <g id="line2d_42">
    <path style="fill:none;stroke:#ff00ff;stroke-linecap:square;stroke-width:1.5;"/>
    <g/>
   </g>
   <g id="line2d_43">
    <path clip-path="url(#pd6f023e4b3)" d="M 149.623325 286.531765 
" style="fill:none;stroke:#ff00ff;stroke-linecap:square;stroke-width:1.5;"/>
    <defs>
     <path d="M -12 12 
L 12 -12 
M -12 -12 
L 12 12 
" id="m1930e75188" style="stroke:#ff00ff;"/>
    </defs>
    <g clip-path="url(#pd6f023e4b3)">
     <use style="fill:#ff00ff;stroke:#ff00ff;" x="149.623325" xlink:href="#m1930e75188" y="286.531765"/>
    </g>
   </g>
   <g id="line2d_44">
    <path d="M 360.8064 256.387765 
L 380.514816 293.51808 
" style="fill:none;stroke:#000080;stroke-linecap:square;stroke-width:1.5;"/>
    <g>
     <use style="fill-opacity:0;stroke:#000080;stroke-width:1.5;" x="360.8064" xlink:href="#mb68edf24be" y="256.387765"/>
     <use style="fill-opacity:0;stroke:#000080;stroke-width:1.5;" x="380.514816" xlink:href="#mb68edf24be" y="293.51808"/>
    </g>
   </g>
   <g id="line2d_45">
    <path d="M 360.8064 27.648 
L 380.514816 163.296 
" style="fill:none;stroke:#ff00ff;stroke-linecap:square;stroke-width:1.5;"/>
    <g>
     <use style="fill-opacity:0;stroke:#ff00ff;stroke-linejoin:miter;stroke-width:1.5;" x="360.8064" xlink:href="#m1c24164204" y="27.648"/>
     <use style="fill-opacity:0;stroke:#ff00ff;stroke-linejoin:miter;stroke-width:1.5;" x="380.514816" xlink:href="#m1c24164204" y="163.296"/>
    </g>
   </g>
   <g id="line2d_46">
    <path d="M 360.8064 298.944 
L 360.8064 27.648 
" style="fill:none;stroke:#000000;stroke-linecap:square;stroke-width:1.5;"/>
   </g>
   <g id="patch_3">
    <path d="M 57.6 298.944 
L 360.8064 298.944 
" style="fill:none;stroke:#000000;stroke-linecap:square;stroke-linejoin:miter;stroke-width:0.8;"/>
   </g>
   <g id="patch_4">
    <path d="M 57.6 27.648 
L 360.8064 27.648 
" style="fill:none;stroke:#000000;stroke-linecap:square;stroke-linejoin:miter;stroke-width:0.8;"/>
   </g>
   <g id="text_13">
    <!-- different -->
    <g transform="translate(386.578944 297.381205)scale(0.14 -0.14)">
     <use xlink:href="#DejaVuSans-64"/>
     <use x="63.476562" xlink:href="#DejaVuSans-69"/>
     <use x="91.259766" xlink:href="#DejaVuSans-66"/>
     <use x="126.464844" xlink:href="#DejaVuSans-66"/>
     <use x="161.669922" xlink:href="#DejaVuSans-65"/>
     <use x="223.193359" xlink:href="#DejaVuSans-72"/>
     <use x="262.056641" xlink:href="#DejaVuSans-65"/>
     <use x="323.580078" xlink:href="#DejaVuSans-6e"/>
     <use x="386.958984" xlink:href="#DejaVuSans-74"/>
    </g>
   </g>
   <g id="text_14">
    <!-- cma.fmin  -->
    <g transform="translate(386.578944 167.159125)scale(0.14 -0.14)">
     <use xlink:href="#DejaVuSans-63"/>
     <use x="54.980469" xlink:href="#DejaVuSans-6d"/>
     <use x="152.392578" xlink:href="#DejaVuSans-61"/>
     <use x="213.671875" xlink:href="#DejaVuSans-2e"/>
     <use x="245.458984" xlink:href="#DejaVuSans-66"/>
     <use x="280.664062" xlink:href="#DejaVuSans-6d"/>
     <use x="378.076172" xlink:href="#DejaVuSans-69"/>
     <use x="405.859375" xlink:href="#DejaVuSans-6e"/>
     <use x="469.238281" xlink:href="#DejaVuSans-20"/>
    </g>
   </g>
   <g id="text_15">
    <!-- best 2009 -->
    <g transform="translate(386.578944 36.937045)scale(0.14 -0.14)">
     <defs>
      <path d="M 3116 1747 
Q 3116 2381 2855 2742 
Q 2594 3103 2138 3103 
Q 1681 3103 1420 2742 
Q 1159 2381 1159 1747 
Q 1159 1113 1420 752 
Q 1681 391 2138 391 
Q 2594 391 2855 752 
Q 3116 1113 3116 1747 
z
M 1159 2969 
Q 1341 3281 1617 3432 
Q 1894 3584 2278 3584 
Q 2916 3584 3314 3078 
Q 3713 2572 3713 1747 
Q 3713 922 3314 415 
Q 2916 -91 2278 -91 
Q 1894 -91 1617 61 
Q 1341 213 1159 525 
L 1159 0 
L 581 0 
L 581 4863 
L 1159 4863 
L 1159 2969 
z
" id="DejaVuSans-62" transform="scale(0.015625)"/>
      <path d="M 703 97 
L 703 672 
Q 941 559 1184 500 
Q 1428 441 1663 441 
Q 2288 441 2617 861 
Q 2947 1281 2994 2138 
Q 2813 1869 2534 1725 
Q 2256 1581 1919 1581 
Q 1219 1581 811 2004 
Q 403 2428 403 3163 
Q 403 3881 828 4315 
Q 1253 4750 1959 4750 
Q 2769 4750 3195 4129 
Q 3622 3509 3622 2328 
Q 3622 1225 3098 567 
Q 2575 -91 1691 -91 
Q 1453 -91 1209 -44 
Q 966 3 703 97 
z
M 1959 2075 
Q 2384 2075 2632 2365 
Q 2881 2656 2881 3163 
Q 2881 3666 2632 3958 
Q 2384 4250 1959 4250 
Q 1534 4250 1286 3958 
Q 1038 3666 1038 3163 
Q 1038 2656 1286 2365 
Q 1534 2075 1959 2075 
z
" id="DejaVuSans-39" transform="scale(0.015625)"/>
     </defs>
     <use xlink:href="#DejaVuSans-62"/>
     <use x="63.476562" xlink:href="#DejaVuSans-65"/>
     <use x="125" xlink:href="#DejaVuSans-73"/>
     <use x="177.099609" xlink:href="#DejaVuSans-74"/>
     <use x="216.308594" xlink:href="#DejaVuSans-20"/>
     <use x="248.095703" xlink:href="#DejaVuSans-32"/>
     <use x="311.71875" xlink:href="#DejaVuSans-30"/>
     <use x="375.341797" xlink:href="#DejaVuSans-30"/>
     <use x="438.964844" xlink:href="#DejaVuSans-39"/>
    </g>
   </g>
   <g id="text_16">
    <!-- bbob f10, 5-D -->
    <g transform="translate(60.632064 38.111366)scale(0.102 -0.102)">
     <defs>
      <path d="M 691 4666 
L 3169 4666 
L 3169 4134 
L 1269 4134 
L 1269 2991 
Q 1406 3038 1543 3061 
Q 1681 3084 1819 3084 
Q 2600 3084 3056 2656 
Q 3513 2228 3513 1497 
Q 3513 744 3044 326 
Q 2575 -91 1722 -91 
Q 1428 -91 1123 -41 
Q 819 9 494 109 
L 494 744 
Q 775 591 1075 516 
Q 1375 441 1709 441 
Q 2250 441 2565 725 
Q 2881 1009 2881 1497 
Q 2881 1984 2565 2268 
Q 2250 2553 1709 2553 
Q 1456 2553 1204 2497 
Q 953 2441 691 2322 
L 691 4666 
z
" id="DejaVuSans-35" transform="scale(0.015625)"/>
      <path d="M 1259 4147 
L 1259 519 
L 2022 519 
Q 2988 519 3436 956 
Q 3884 1394 3884 2338 
Q 3884 3275 3436 3711 
Q 2988 4147 2022 4147 
L 1259 4147 
z
M 628 4666 
L 1925 4666 
Q 3281 4666 3915 4102 
Q 4550 3538 4550 2338 
Q 4550 1131 3912 565 
Q 3275 0 1925 0 
L 628 0 
L 628 4666 
z
" id="DejaVuSans-44" transform="scale(0.015625)"/>
     </defs>
     <use xlink:href="#DejaVuSans-62"/>
     <use x="63.476562" xlink:href="#DejaVuSans-62"/>
     <use x="126.953125" xlink:href="#DejaVuSans-6f"/>
     <use x="188.134766" xlink:href="#DejaVuSans-62"/>
     <use x="251.611328" xlink:href="#DejaVuSans-20"/>
     <use x="283.398438" xlink:href="#DejaVuSans-66"/>
     <use x="318.603516" xlink:href="#DejaVuSans-31"/>
     <use x="382.226562" xlink:href="#DejaVuSans-30"/>
     <use x="445.849609" xlink:href="#DejaVuSans-2c"/>
     <use x="477.636719" xlink:href="#DejaVuSans-20"/>
     <use x="509.423828" xlink:href="#DejaVuSans-35"/>
     <use x="573.046875" xlink:href="#DejaVuSans-2d"/>
     <use x="609.130859" xlink:href="#DejaVuSans-44"/>
    </g>
    <!-- 51 targets: 100..1e-08 -->
    <g transform="translate(60.632064 49.533135)scale(0.102 -0.102)">
     <defs>
      <path d="M 750 794 
L 1409 794 
L 1409 0 
L 750 0 
L 750 794 
z
M 750 3309 
L 1409 3309 
L 1409 2516 
L 750 2516 
L 750 3309 
z
" id="DejaVuSans-3a" transform="scale(0.015625)"/>
     </defs>
     <use xlink:href="#DejaVuSans-35"/>
     <use x="63.623047" xlink:href="#DejaVuSans-31"/>
     <use x="127.246094" xlink:href="#DejaVuSans-20"/>
     <use x="159.033203" xlink:href="#DejaVuSans-74"/>
     <use x="198.242188" xlink:href="#DejaVuSans-61"/>
     <use x="259.521484" xlink:href="#DejaVuSans-72"/>
     <use x="298.884766" xlink:href="#DejaVuSans-67"/>
     <use x="362.361328" xlink:href="#DejaVuSans-65"/>
     <use x="423.884766" xlink:href="#DejaVuSans-74"/>
     <use x="463.09375" xlink:href="#DejaVuSans-73"/>
     <use x="515.193359" xlink:href="#DejaVuSans-3a"/>
     <use x="548.884766" xlink:href="#DejaVuSans-20"/>
     <use x="580.671875" xlink:href="#DejaVuSans-31"/>
     <use x="644.294922" xlink:href="#DejaVuSans-30"/>
     <use x="707.917969" xlink:href="#DejaVuSans-30"/>
     <use x="771.541016" xlink:href="#DejaVuSans-2e"/>
     <use x="803.328125" xlink:href="#DejaVuSans-2e"/>
     <use x="835.115234" xlink:href="#DejaVuSans-31"/>
     <use x="898.738281" xlink:href="#DejaVuSans-65"/>
     <use x="960.261719" xlink:href="#DejaVuSans-2d"/>
     <use x="996.345703" xlink:href="#DejaVuSans-30"/>
     <use x="1059.96875" xlink:href="#DejaVuSans-38"/>
    </g>
    <!-- 15 instances -->
    <g transform="translate(60.632064 60.954904)scale(0.102 -0.102)">
     <use xlink:href="#DejaVuSans-31"/>
     <use x="63.623047" xlink:href="#DejaVuSans-35"/>
     <use x="127.246094" xlink:href="#DejaVuSans-20"/>
     <use x="159.033203" xlink:href="#DejaVuSans-69"/>
     <use x="186.816406" xlink:href="#DejaVuSans-6e"/>
     <use x="250.195312" xlink:href="#DejaVuSans-73"/>
     <use x="302.294922" xlink:href="#DejaVuSans-74"/>
     <use x="341.503906" xlink:href="#DejaVuSans-61"/>
     <use x="402.783203" xlink:href="#DejaVuSans-6e"/>
     <use x="466.162109" xlink:href="#DejaVuSans-63"/>
     <use x="521.142578" xlink:href="#DejaVuSans-65"/>
     <use x="582.666016" xlink:href="#DejaVuSans-73"/>
    </g>
   </g>
   <g id="text_17">
    <!-- v2.6 -->
    <g style="fill:#808080;" transform="translate(198.292262 294.151352)scale(0.1 -0.1)">
     <use xlink:href="#DejaVuSans-76"/>
     <use x="59.179688" xlink:href="#DejaVuSans-32"/>
     <use x="122.802734" xlink:href="#DejaVuSans-2e"/>
     <use x="154.589844" xlink:href="#DejaVuSans-36"/>
    </g>
   </g>
   <g id="text_18">
    <!-- 10 Ellipsoid -->
    <g transform="translate(151.843825 21.648)scale(0.2 -0.2)">
     <defs>
      <path d="M 628 4666 
L 3578 4666 
L 3578 4134 
L 1259 4134 
L 1259 2753 
L 3481 2753 
L 3481 2222 
L 1259 2222 
L 1259 531 
L 3634 531 
L 3634 0 
L 628 0 
L 628 4666 
z
" id="DejaVuSans-45" transform="scale(0.015625)"/>
     </defs>
     <use xlink:href="#DejaVuSans-31"/>
     <use x="63.623047" xlink:href="#DejaVuSans-30"/>
     <use x="127.246094" xlink:href="#DejaVuSans-20"/>
     <use x="159.033203" xlink:href="#DejaVuSans-45"/>
     <use x="222.216797" xlink:href="#DejaVuSans-6c"/>
     <use x="250" xlink:href="#DejaVuSans-6c"/>
     <use x="277.783203" xlink:href="#DejaVuSans-69"/>
     <use x="305.566406" xlink:href="#DejaVuSans-70"/>
     <use x="369.042969" xlink:href="#DejaVuSans-73"/>
     <use x="421.142578" xlink:href="#DejaVuSans-6f"/>
     <use x="482.324219" xlink:href="#DejaVuSans-69"/>
     <use x="510.107422" xlink:href="#DejaVuSans-64"/>
    </g>
   </g>
  </g>
 </g>
 <defs>
  <clipPath id="pd6f023e4b3">
   <rect height="271.296" width="303.2064" x="57.6" y="27.648"/>
  </clipPath>
 </defs>
</svg>
