<?xml version="1.0" encoding="utf-8" standalone="no"?>
<!DOCTYPE svg PUBLIC "-//W3C//DTD SVG 1.1//EN"
  "http://www.w3.org/Graphics/SVG/1.1/DTD/svg11.dtd">
<svg height="345.6pt" version="1.1" viewBox="0 0 460.8 345.6" width="460.8pt" xmlns="http://www.w3.org/2000/svg" xmlns:xlink="http://www.w3.org/1999/xlink">
 <metadata>
  <rdf:RDF xmlns:cc="http://creativecommons.org/ns#" xmlns:dc="http://purl.org/dc/elements/1.1/" xmlns:rdf="http://www.w3.org/1999/02/22-rdf-syntax-ns#">
   <cc:Work>
    <dc:type rdf:resource="http://purl.org/dc/dcmitype/StillImage"/>
    <dc:date>2022-05-07T15:07:53.613305</dc:date>
    <dc:format>image/svg+xml</dc:format>
    <dc:creator>
     <cc:Agent>
      <dc:title>Matplotlib v3.4.3, https://matplotlib.org/</dc:title>
     </cc:Agent>
    </dc:creator>
   </cc:Work>
  </rdf:RDF>
 </metadata>
 <defs>
  <style type="text/css">*{stroke-linecap:butt;stroke-linejoin:round;}</style>
 </defs>
 <g id="figure_1">
  <g id="patch_1">
   <path d="M 0 345.6 
L 460.8 345.6 
L 460.8 0 
L 0 0 
z
" style="fill:#ffffff;"/>
  </g>
  <g id="axes_1">
   <g id="patch_2">
    <path d="M 57.6 298.944 
L 360.8064 298.944 
L 360.8064 27.648 
L 57.6 27.648 
z
" style="fill:#ffffff;"/>
   </g>
   <g id="line2d_1">
    <path d="M -1 282.985412 
L 8.873054 282.985412 
L 8.873054 277.665882 
L 63.245433 277.665882 
L 63.245433 272.346353 
L 100.868112 272.346353 
L 100.868112 267.026824 
L 111.117162 267.026824 
L 111.117162 261.707294 
L 120.199771 261.707294 
L 120.199771 256.387765 
L 126.213373 256.387765 
L 126.213373 251.068235 
L 131.115828 251.068235 
L 131.115828 245.748706 
L 145.237585 245.748706 
L 145.237585 240.429176 
L 147.248088 240.429176 
L 147.248088 235.109647 
L 155.000616 235.109647 
L 155.000616 229.790118 
L 159.800309 229.790118 
L 159.800309 224.470588 
L 161.342683 224.470588 
L 161.342683 219.151059 
L 168.007929 219.151059 
L 168.007929 213.831529 
L 172.672251 213.831529 
L 172.672251 208.512 
L 176.463667 208.512 
L 176.463667 203.192471 
L 180.107914 203.192471 
L 180.107914 197.872941 
L 183.024181 197.872941 
L 183.024181 192.553412 
L 185.005698 192.553412 
L 185.005698 187.233882 
L 187.285146 187.233882 
L 187.285146 181.914353 
L 188.555014 181.914353 
L 188.555014 176.594824 
L 190.796974 176.594824 
L 190.796974 171.275294 
L 192.046692 171.275294 
L 192.046692 165.955765 
L 192.465879 165.955765 
L 192.465879 160.636235 
L 194.38092 160.636235 
L 194.38092 155.316706 
L 197.646397 155.316706 
L 197.646397 149.997176 
L 199.045352 149.997176 
L 199.045352 144.677647 
L 200.19681 144.677647 
L 200.19681 139.358118 
L 202.516357 139.358118 
L 202.516357 134.038588 
L 204.046831 134.038588 
L 204.046831 128.719059 
L 206.573502 128.719059 
L 206.573502 123.399529 
L 208.77814 123.399529 
L 208.77814 118.08 
L 209.923871 118.08 
L 209.923871 112.760471 
L 210.17933 112.760471 
L 210.17933 107.440941 
L 215.177441 107.440941 
L 215.177441 102.121412 
L 215.478026 102.121412 
L 215.478026 96.801882 
L 218.979323 96.801882 
L 218.979323 91.482353 
L 219.759276 91.482353 
L 219.759276 86.162824 
L 220.925003 86.162824 
L 220.925003 80.843294 
L 221.106047 80.843294 
L 221.106047 75.523765 
L 221.342705 75.523765 
L 221.342705 70.204235 
L 222.209836 70.204235 
L 222.209836 64.884706 
L 223.024133 64.884706 
L 223.024133 59.565176 
L 223.148765 59.565176 
L 223.148765 54.245647 
L 223.858966 54.245647 
L 223.858966 48.926118 
L 223.957241 48.926118 
L 223.957241 43.606588 
L 224.054534 43.606588 
L 224.054534 38.287059 
L 224.139699 38.287059 
L 224.139699 32.967529 
L 224.226621 32.967529 
L 224.226621 27.648 
L 360.8064 27.648 
" style="fill:none;stroke:#f5deb3;stroke-linecap:square;stroke-width:4;"/>
   </g>
   <g id="line2d_2">
    <defs>
     <path d="M -0 7.778175 
L 7.778175 0 
L 0 -7.778175 
L -7.778175 -0 
z
" id="mbd5e5c0df2" style="stroke:#f5deb3;stroke-linejoin:miter;stroke-width:1.5;"/>
    </defs>
    <g>
     <use style="fill:#f5deb3;stroke:#f5deb3;stroke-linejoin:miter;stroke-width:1.5;" x="111.117162" xlink:href="#mbd5e5c0df2" y="267.026824"/>
     <use style="fill:#f5deb3;stroke:#f5deb3;stroke-linejoin:miter;stroke-width:1.5;" x="185.005698" xlink:href="#mbd5e5c0df2" y="187.233882"/>
     <use style="fill:#f5deb3;stroke:#f5deb3;stroke-linejoin:miter;stroke-width:1.5;" x="220.925003" xlink:href="#mbd5e5c0df2" y="86.162824"/>
     <use style="fill:#f5deb3;stroke:#f5deb3;stroke-linejoin:miter;stroke-width:1.5;" x="224.226621" xlink:href="#mbd5e5c0df2" y="27.648"/>
     <use style="fill:#f5deb3;stroke:#f5deb3;stroke-linejoin:miter;stroke-width:1.5;" x="224.226621" xlink:href="#mbd5e5c0df2" y="27.648"/>
     <use style="fill:#f5deb3;stroke:#f5deb3;stroke-linejoin:miter;stroke-width:1.5;" x="360.8064" xlink:href="#mbd5e5c0df2" y="27.648"/>
    </g>
   </g>
   <g id="line2d_3">
    <path style="fill:none;stroke:#f5deb3;stroke-linecap:square;stroke-width:4;"/>
    <g/>
   </g>
   <g id="line2d_4">
    <path d="M 360.8064 27.648 
L 380.514816 33.07392 
" style="fill:none;stroke:#f5deb3;stroke-linecap:square;stroke-width:4;"/>
    <g>
     <use style="fill:#f5deb3;stroke:#f5deb3;stroke-linejoin:miter;stroke-width:1.5;" x="360.8064" xlink:href="#mbd5e5c0df2" y="27.648"/>
     <use style="fill:#f5deb3;stroke:#f5deb3;stroke-linejoin:miter;stroke-width:1.5;" x="380.514816" xlink:href="#mbd5e5c0df2" y="33.07392"/>
    </g>
   </g>
   <g id="matplotlib.axis_1">
    <g id="xtick_1">
     <g id="line2d_5">
      <path clip-path="url(#p2fe46859ea)" d="M 57.6 298.944 
L 57.6 27.648 
" style="fill:none;stroke:#b0b0b0;stroke-linecap:square;stroke-width:0.8;"/>
     </g>
     <g id="line2d_6">
      <defs>
       <path d="M 0 0 
L 0 3.5 
" id="mb3441ffc06" style="stroke:#000000;stroke-width:0.8;"/>
      </defs>
      <g>
       <use style="stroke:#000000;stroke-width:0.8;" x="57.6" xlink:href="#mb3441ffc06" y="298.944"/>
      </g>
     </g>
     <g id="text_1">
      <!-- 0 -->
      <g transform="translate(52.191875 318.861344)scale(0.17 -0.17)">
       <defs>
        <path d="M 2034 4250 
Q 1547 4250 1301 3770 
Q 1056 3291 1056 2328 
Q 1056 1369 1301 889 
Q 1547 409 2034 409 
Q 2525 409 2770 889 
Q 3016 1369 3016 2328 
Q 3016 3291 2770 3770 
Q 2525 4250 2034 4250 
z
M 2034 4750 
Q 2819 4750 3233 4129 
Q 3647 3509 3647 2328 
Q 3647 1150 3233 529 
Q 2819 -91 2034 -91 
Q 1250 -91 836 529 
Q 422 1150 422 2328 
Q 422 3509 836 4129 
Q 1250 4750 2034 4750 
z
" id="DejaVuSans-30" transform="scale(0.015625)"/>
       </defs>
       <use xlink:href="#DejaVuSans-30"/>
      </g>
     </g>
    </g>
    <g id="xtick_2">
     <g id="line2d_7">
      <path clip-path="url(#p2fe46859ea)" d="M 144.2304 298.944 
L 144.2304 27.648 
" style="fill:none;stroke:#b0b0b0;stroke-linecap:square;stroke-width:0.8;"/>
     </g>
     <g id="line2d_8">
      <g>
       <use style="stroke:#000000;stroke-width:0.8;" x="144.2304" xlink:href="#mb3441ffc06" y="298.944"/>
      </g>
     </g>
     <g id="text_2">
      <!-- 2 -->
      <g transform="translate(138.822275 318.861344)scale(0.17 -0.17)">
       <defs>
        <path d="M 1228 531 
L 3431 531 
L 3431 0 
L 469 0 
L 469 531 
Q 828 903 1448 1529 
Q 2069 2156 2228 2338 
Q 2531 2678 2651 2914 
Q 2772 3150 2772 3378 
Q 2772 3750 2511 3984 
Q 2250 4219 1831 4219 
Q 1534 4219 1204 4116 
Q 875 4013 500 3803 
L 500 4441 
Q 881 4594 1212 4672 
Q 1544 4750 1819 4750 
Q 2544 4750 2975 4387 
Q 3406 4025 3406 3419 
Q 3406 3131 3298 2873 
Q 3191 2616 2906 2266 
Q 2828 2175 2409 1742 
Q 1991 1309 1228 531 
z
" id="DejaVuSans-32" transform="scale(0.015625)"/>
       </defs>
       <use xlink:href="#DejaVuSans-32"/>
      </g>
     </g>
    </g>
    <g id="xtick_3">
     <g id="line2d_9">
      <path clip-path="url(#p2fe46859ea)" d="M 230.8608 298.944 
L 230.8608 27.648 
" style="fill:none;stroke:#b0b0b0;stroke-linecap:square;stroke-width:0.8;"/>
     </g>
     <g id="line2d_10">
      <g>
       <use style="stroke:#000000;stroke-width:0.8;" x="230.8608" xlink:href="#mb3441ffc06" y="298.944"/>
      </g>
     </g>
     <g id="text_3">
      <!-- 4 -->
      <g transform="translate(225.452675 318.861344)scale(0.17 -0.17)">
       <defs>
        <path d="M 2419 4116 
L 825 1625 
L 2419 1625 
L 2419 4116 
z
M 2253 4666 
L 3047 4666 
L 3047 1625 
L 3713 1625 
L 3713 1100 
L 3047 1100 
L 3047 0 
L 2419 0 
L 2419 1100 
L 313 1100 
L 313 1709 
L 2253 4666 
z
" id="DejaVuSans-34" transform="scale(0.015625)"/>
       </defs>
       <use xlink:href="#DejaVuSans-34"/>
      </g>
     </g>
    </g>
    <g id="xtick_4">
     <g id="line2d_11">
      <path clip-path="url(#p2fe46859ea)" d="M 317.4912 298.944 
L 317.4912 27.648 
" style="fill:none;stroke:#b0b0b0;stroke-linecap:square;stroke-width:0.8;"/>
     </g>
     <g id="line2d_12">
      <g>
       <use style="stroke:#000000;stroke-width:0.8;" x="317.4912" xlink:href="#mb3441ffc06" y="298.944"/>
      </g>
     </g>
     <g id="text_4">
      <!-- 6 -->
      <g transform="translate(312.083075 318.861344)scale(0.17 -0.17)">
       <defs>
        <path d="M 2113 2584 
Q 1688 2584 1439 2293 
Q 1191 2003 1191 1497 
Q 1191 994 1439 701 
Q 1688 409 2113 409 
Q 2538 409 2786 701 
Q 3034 994 3034 1497 
Q 3034 2003 2786 2293 
Q 2538 2584 2113 2584 
z
M 3366 4563 
L 3366 3988 
Q 3128 4100 2886 4159 
Q 2644 4219 2406 4219 
Q 1781 4219 1451 3797 
Q 1122 3375 1075 2522 
Q 1259 2794 1537 2939 
Q 1816 3084 2150 3084 
Q 2853 3084 3261 2657 
Q 3669 2231 3669 1497 
Q 3669 778 3244 343 
Q 2819 -91 2113 -91 
Q 1303 -91 875 529 
Q 447 1150 447 2328 
Q 447 3434 972 4092 
Q 1497 4750 2381 4750 
Q 2619 4750 2861 4703 
Q 3103 4656 3366 4563 
z
" id="DejaVuSans-36" transform="scale(0.015625)"/>
       </defs>
       <use xlink:href="#DejaVuSans-36"/>
      </g>
     </g>
    </g>
    <g id="xtick_5">
     <g id="line2d_13">
      <path clip-path="url(#p2fe46859ea)" d="M 100.9152 298.944 
L 100.9152 27.648 
" style="fill:none;stroke:#b0b0b0;stroke-linecap:square;stroke-width:0.8;"/>
     </g>
     <g id="line2d_14">
      <defs>
       <path d="M 0 0 
L 0 2 
" id="m5112a7df3e" style="stroke:#000000;stroke-width:0.6;"/>
      </defs>
      <g>
       <use style="stroke:#000000;stroke-width:0.6;" x="100.9152" xlink:href="#m5112a7df3e" y="298.944"/>
      </g>
     </g>
    </g>
    <g id="xtick_6">
     <g id="line2d_15">
      <path clip-path="url(#p2fe46859ea)" d="M 187.5456 298.944 
L 187.5456 27.648 
" style="fill:none;stroke:#b0b0b0;stroke-linecap:square;stroke-width:0.8;"/>
     </g>
     <g id="line2d_16">
      <g>
       <use style="stroke:#000000;stroke-width:0.6;" x="187.5456" xlink:href="#m5112a7df3e" y="298.944"/>
      </g>
     </g>
    </g>
    <g id="xtick_7">
     <g id="line2d_17">
      <path clip-path="url(#p2fe46859ea)" d="M 274.176 298.944 
L 274.176 27.648 
" style="fill:none;stroke:#b0b0b0;stroke-linecap:square;stroke-width:0.8;"/>
     </g>
     <g id="line2d_18">
      <g>
       <use style="stroke:#000000;stroke-width:0.6;" x="274.176" xlink:href="#m5112a7df3e" y="298.944"/>
      </g>
     </g>
    </g>
    <g id="xtick_8">
     <g id="line2d_19">
      <path clip-path="url(#p2fe46859ea)" d="M 360.8064 298.944 
L 360.8064 27.648 
" style="fill:none;stroke:#b0b0b0;stroke-linecap:square;stroke-width:0.8;"/>
     </g>
     <g id="line2d_20">
      <g>
       <use style="stroke:#000000;stroke-width:0.6;" x="360.8064" xlink:href="#m5112a7df3e" y="298.944"/>
      </g>
     </g>
    </g>
    <g id="text_5">
     <!-- log10(# f-evals / dimension) -->
     <g transform="translate(88.823278 339.314156)scale(0.17 -0.17)">
      <defs>
       <path d="M 603 4863 
L 1178 4863 
L 1178 0 
L 603 0 
L 603 4863 
z
" id="DejaVuSans-6c" transform="scale(0.015625)"/>
       <path d="M 1959 3097 
Q 1497 3097 1228 2736 
Q 959 2375 959 1747 
Q 959 1119 1226 758 
Q 1494 397 1959 397 
Q 2419 397 2687 759 
Q 2956 1122 2956 1747 
Q 2956 2369 2687 2733 
Q 2419 3097 1959 3097 
z
M 1959 3584 
Q 2709 3584 3137 3096 
Q 3566 2609 3566 1747 
Q 3566 888 3137 398 
Q 2709 -91 1959 -91 
Q 1206 -91 779 398 
Q 353 888 353 1747 
Q 353 2609 779 3096 
Q 1206 3584 1959 3584 
z
" id="DejaVuSans-6f" transform="scale(0.015625)"/>
       <path d="M 2906 1791 
Q 2906 2416 2648 2759 
Q 2391 3103 1925 3103 
Q 1463 3103 1205 2759 
Q 947 2416 947 1791 
Q 947 1169 1205 825 
Q 1463 481 1925 481 
Q 2391 481 2648 825 
Q 2906 1169 2906 1791 
z
M 3481 434 
Q 3481 -459 3084 -895 
Q 2688 -1331 1869 -1331 
Q 1566 -1331 1297 -1286 
Q 1028 -1241 775 -1147 
L 775 -588 
Q 1028 -725 1275 -790 
Q 1522 -856 1778 -856 
Q 2344 -856 2625 -561 
Q 2906 -266 2906 331 
L 2906 616 
Q 2728 306 2450 153 
Q 2172 0 1784 0 
Q 1141 0 747 490 
Q 353 981 353 1791 
Q 353 2603 747 3093 
Q 1141 3584 1784 3584 
Q 2172 3584 2450 3431 
Q 2728 3278 2906 2969 
L 2906 3500 
L 3481 3500 
L 3481 434 
z
" id="DejaVuSans-67" transform="scale(0.015625)"/>
       <path d="M 794 531 
L 1825 531 
L 1825 4091 
L 703 3866 
L 703 4441 
L 1819 4666 
L 2450 4666 
L 2450 531 
L 3481 531 
L 3481 0 
L 794 0 
L 794 531 
z
" id="DejaVuSans-31" transform="scale(0.015625)"/>
       <path d="M 1984 4856 
Q 1566 4138 1362 3434 
Q 1159 2731 1159 2009 
Q 1159 1288 1364 580 
Q 1569 -128 1984 -844 
L 1484 -844 
Q 1016 -109 783 600 
Q 550 1309 550 2009 
Q 550 2706 781 3412 
Q 1013 4119 1484 4856 
L 1984 4856 
z
" id="DejaVuSans-28" transform="scale(0.015625)"/>
       <path d="M 3272 2816 
L 2363 2816 
L 2100 1772 
L 3016 1772 
L 3272 2816 
z
M 2803 4594 
L 2478 3297 
L 3391 3297 
L 3719 4594 
L 4219 4594 
L 3897 3297 
L 4872 3297 
L 4872 2816 
L 3775 2816 
L 3519 1772 
L 4513 1772 
L 4513 1294 
L 3397 1294 
L 3072 0 
L 2572 0 
L 2894 1294 
L 1978 1294 
L 1656 0 
L 1153 0 
L 1478 1294 
L 494 1294 
L 494 1772 
L 1594 1772 
L 1856 2816 
L 850 2816 
L 850 3297 
L 1978 3297 
L 2297 4594 
L 2803 4594 
z
" id="DejaVuSans-23" transform="scale(0.015625)"/>
       <path id="DejaVuSans-20" transform="scale(0.015625)"/>
       <path d="M 2375 4863 
L 2375 4384 
L 1825 4384 
Q 1516 4384 1395 4259 
Q 1275 4134 1275 3809 
L 1275 3500 
L 2222 3500 
L 2222 3053 
L 1275 3053 
L 1275 0 
L 697 0 
L 697 3053 
L 147 3053 
L 147 3500 
L 697 3500 
L 697 3744 
Q 697 4328 969 4595 
Q 1241 4863 1831 4863 
L 2375 4863 
z
" id="DejaVuSans-66" transform="scale(0.015625)"/>
       <path d="M 313 2009 
L 1997 2009 
L 1997 1497 
L 313 1497 
L 313 2009 
z
" id="DejaVuSans-2d" transform="scale(0.015625)"/>
       <path d="M 3597 1894 
L 3597 1613 
L 953 1613 
Q 991 1019 1311 708 
Q 1631 397 2203 397 
Q 2534 397 2845 478 
Q 3156 559 3463 722 
L 3463 178 
Q 3153 47 2828 -22 
Q 2503 -91 2169 -91 
Q 1331 -91 842 396 
Q 353 884 353 1716 
Q 353 2575 817 3079 
Q 1281 3584 2069 3584 
Q 2775 3584 3186 3129 
Q 3597 2675 3597 1894 
z
M 3022 2063 
Q 3016 2534 2758 2815 
Q 2500 3097 2075 3097 
Q 1594 3097 1305 2825 
Q 1016 2553 972 2059 
L 3022 2063 
z
" id="DejaVuSans-65" transform="scale(0.015625)"/>
       <path d="M 191 3500 
L 800 3500 
L 1894 563 
L 2988 3500 
L 3597 3500 
L 2284 0 
L 1503 0 
L 191 3500 
z
" id="DejaVuSans-76" transform="scale(0.015625)"/>
       <path d="M 2194 1759 
Q 1497 1759 1228 1600 
Q 959 1441 959 1056 
Q 959 750 1161 570 
Q 1363 391 1709 391 
Q 2188 391 2477 730 
Q 2766 1069 2766 1631 
L 2766 1759 
L 2194 1759 
z
M 3341 1997 
L 3341 0 
L 2766 0 
L 2766 531 
Q 2569 213 2275 61 
Q 1981 -91 1556 -91 
Q 1019 -91 701 211 
Q 384 513 384 1019 
Q 384 1609 779 1909 
Q 1175 2209 1959 2209 
L 2766 2209 
L 2766 2266 
Q 2766 2663 2505 2880 
Q 2244 3097 1772 3097 
Q 1472 3097 1187 3025 
Q 903 2953 641 2809 
L 641 3341 
Q 956 3463 1253 3523 
Q 1550 3584 1831 3584 
Q 2591 3584 2966 3190 
Q 3341 2797 3341 1997 
z
" id="DejaVuSans-61" transform="scale(0.015625)"/>
       <path d="M 2834 3397 
L 2834 2853 
Q 2591 2978 2328 3040 
Q 2066 3103 1784 3103 
Q 1356 3103 1142 2972 
Q 928 2841 928 2578 
Q 928 2378 1081 2264 
Q 1234 2150 1697 2047 
L 1894 2003 
Q 2506 1872 2764 1633 
Q 3022 1394 3022 966 
Q 3022 478 2636 193 
Q 2250 -91 1575 -91 
Q 1294 -91 989 -36 
Q 684 19 347 128 
L 347 722 
Q 666 556 975 473 
Q 1284 391 1588 391 
Q 1994 391 2212 530 
Q 2431 669 2431 922 
Q 2431 1156 2273 1281 
Q 2116 1406 1581 1522 
L 1381 1569 
Q 847 1681 609 1914 
Q 372 2147 372 2553 
Q 372 3047 722 3315 
Q 1072 3584 1716 3584 
Q 2034 3584 2315 3537 
Q 2597 3491 2834 3397 
z
" id="DejaVuSans-73" transform="scale(0.015625)"/>
       <path d="M 1625 4666 
L 2156 4666 
L 531 -594 
L 0 -594 
L 1625 4666 
z
" id="DejaVuSans-2f" transform="scale(0.015625)"/>
       <path d="M 2906 2969 
L 2906 4863 
L 3481 4863 
L 3481 0 
L 2906 0 
L 2906 525 
Q 2725 213 2448 61 
Q 2172 -91 1784 -91 
Q 1150 -91 751 415 
Q 353 922 353 1747 
Q 353 2572 751 3078 
Q 1150 3584 1784 3584 
Q 2172 3584 2448 3432 
Q 2725 3281 2906 2969 
z
M 947 1747 
Q 947 1113 1208 752 
Q 1469 391 1925 391 
Q 2381 391 2643 752 
Q 2906 1113 2906 1747 
Q 2906 2381 2643 2742 
Q 2381 3103 1925 3103 
Q 1469 3103 1208 2742 
Q 947 2381 947 1747 
z
" id="DejaVuSans-64" transform="scale(0.015625)"/>
       <path d="M 603 3500 
L 1178 3500 
L 1178 0 
L 603 0 
L 603 3500 
z
M 603 4863 
L 1178 4863 
L 1178 4134 
L 603 4134 
L 603 4863 
z
" id="DejaVuSans-69" transform="scale(0.015625)"/>
       <path d="M 3328 2828 
Q 3544 3216 3844 3400 
Q 4144 3584 4550 3584 
Q 5097 3584 5394 3201 
Q 5691 2819 5691 2113 
L 5691 0 
L 5113 0 
L 5113 2094 
Q 5113 2597 4934 2840 
Q 4756 3084 4391 3084 
Q 3944 3084 3684 2787 
Q 3425 2491 3425 1978 
L 3425 0 
L 2847 0 
L 2847 2094 
Q 2847 2600 2669 2842 
Q 2491 3084 2119 3084 
Q 1678 3084 1418 2786 
Q 1159 2488 1159 1978 
L 1159 0 
L 581 0 
L 581 3500 
L 1159 3500 
L 1159 2956 
Q 1356 3278 1631 3431 
Q 1906 3584 2284 3584 
Q 2666 3584 2933 3390 
Q 3200 3197 3328 2828 
z
" id="DejaVuSans-6d" transform="scale(0.015625)"/>
       <path d="M 3513 2113 
L 3513 0 
L 2938 0 
L 2938 2094 
Q 2938 2591 2744 2837 
Q 2550 3084 2163 3084 
Q 1697 3084 1428 2787 
Q 1159 2491 1159 1978 
L 1159 0 
L 581 0 
L 581 3500 
L 1159 3500 
L 1159 2956 
Q 1366 3272 1645 3428 
Q 1925 3584 2291 3584 
Q 2894 3584 3203 3211 
Q 3513 2838 3513 2113 
z
" id="DejaVuSans-6e" transform="scale(0.015625)"/>
       <path d="M 513 4856 
L 1013 4856 
Q 1481 4119 1714 3412 
Q 1947 2706 1947 2009 
Q 1947 1309 1714 600 
Q 1481 -109 1013 -844 
L 513 -844 
Q 928 -128 1133 580 
Q 1338 1288 1338 2009 
Q 1338 2731 1133 3434 
Q 928 4138 513 4856 
z
" id="DejaVuSans-29" transform="scale(0.015625)"/>
      </defs>
      <use xlink:href="#DejaVuSans-6c"/>
      <use x="27.783203" xlink:href="#DejaVuSans-6f"/>
      <use x="88.964844" xlink:href="#DejaVuSans-67"/>
      <use x="152.441406" xlink:href="#DejaVuSans-31"/>
      <use x="216.064453" xlink:href="#DejaVuSans-30"/>
      <use x="279.6875" xlink:href="#DejaVuSans-28"/>
      <use x="318.701172" xlink:href="#DejaVuSans-23"/>
      <use x="402.490234" xlink:href="#DejaVuSans-20"/>
      <use x="434.277344" xlink:href="#DejaVuSans-66"/>
      <use x="463.982422" xlink:href="#DejaVuSans-2d"/>
      <use x="500.066406" xlink:href="#DejaVuSans-65"/>
      <use x="561.589844" xlink:href="#DejaVuSans-76"/>
      <use x="620.769531" xlink:href="#DejaVuSans-61"/>
      <use x="682.048828" xlink:href="#DejaVuSans-6c"/>
      <use x="709.832031" xlink:href="#DejaVuSans-73"/>
      <use x="761.931641" xlink:href="#DejaVuSans-20"/>
      <use x="793.71875" xlink:href="#DejaVuSans-2f"/>
      <use x="827.410156" xlink:href="#DejaVuSans-20"/>
      <use x="859.197266" xlink:href="#DejaVuSans-64"/>
      <use x="922.673828" xlink:href="#DejaVuSans-69"/>
      <use x="950.457031" xlink:href="#DejaVuSans-6d"/>
      <use x="1047.869141" xlink:href="#DejaVuSans-65"/>
      <use x="1109.392578" xlink:href="#DejaVuSans-6e"/>
      <use x="1172.771484" xlink:href="#DejaVuSans-73"/>
      <use x="1224.871094" xlink:href="#DejaVuSans-69"/>
      <use x="1252.654297" xlink:href="#DejaVuSans-6f"/>
      <use x="1313.835938" xlink:href="#DejaVuSans-6e"/>
      <use x="1377.214844" xlink:href="#DejaVuSans-29"/>
     </g>
    </g>
   </g>
   <g id="matplotlib.axis_2">
    <g id="ytick_1">
     <g id="line2d_21">
      <path clip-path="url(#p2fe46859ea)" d="M 57.6 298.944 
L 360.8064 298.944 
" style="fill:none;stroke:#b0b0b0;stroke-linecap:square;stroke-width:0.8;"/>
     </g>
     <g id="line2d_22">
      <defs>
       <path d="M 0 0 
L -3.5 0 
" id="m06dbaaa88b" style="stroke:#000000;stroke-width:0.8;"/>
      </defs>
      <g>
       <use style="stroke:#000000;stroke-width:0.8;" x="57.6" xlink:href="#m06dbaaa88b" y="298.944"/>
      </g>
     </g>
     <g id="text_6">
      <!-- 0.0 -->
      <g transform="translate(25.155 305.02275)scale(0.16 -0.16)">
       <defs>
        <path d="M 684 794 
L 1344 794 
L 1344 0 
L 684 0 
L 684 794 
z
" id="DejaVuSans-2e" transform="scale(0.015625)"/>
       </defs>
       <use xlink:href="#DejaVuSans-30"/>
       <use x="63.623047" xlink:href="#DejaVuSans-2e"/>
       <use x="95.410156" xlink:href="#DejaVuSans-30"/>
      </g>
     </g>
    </g>
    <g id="ytick_2">
     <g id="line2d_23">
      <path clip-path="url(#p2fe46859ea)" d="M 57.6 244.6848 
L 360.8064 244.6848 
" style="fill:none;stroke:#b0b0b0;stroke-linecap:square;stroke-width:0.8;"/>
     </g>
     <g id="line2d_24">
      <g>
       <use style="stroke:#000000;stroke-width:0.8;" x="57.6" xlink:href="#m06dbaaa88b" y="244.6848"/>
      </g>
     </g>
     <g id="text_7">
      <!-- 0.2 -->
      <g transform="translate(25.155 250.76355)scale(0.16 -0.16)">
       <use xlink:href="#DejaVuSans-30"/>
       <use x="63.623047" xlink:href="#DejaVuSans-2e"/>
       <use x="95.410156" xlink:href="#DejaVuSans-32"/>
      </g>
     </g>
    </g>
    <g id="ytick_3">
     <g id="line2d_25">
      <path clip-path="url(#p2fe46859ea)" d="M 57.6 190.4256 
L 360.8064 190.4256 
" style="fill:none;stroke:#b0b0b0;stroke-linecap:square;stroke-width:0.8;"/>
     </g>
     <g id="line2d_26">
      <g>
       <use style="stroke:#000000;stroke-width:0.8;" x="57.6" xlink:href="#m06dbaaa88b" y="190.4256"/>
      </g>
     </g>
     <g id="text_8">
      <!-- 0.4 -->
      <g transform="translate(25.155 196.50435)scale(0.16 -0.16)">
       <use xlink:href="#DejaVuSans-30"/>
       <use x="63.623047" xlink:href="#DejaVuSans-2e"/>
       <use x="95.410156" xlink:href="#DejaVuSans-34"/>
      </g>
     </g>
    </g>
    <g id="ytick_4">
     <g id="line2d_27">
      <path clip-path="url(#p2fe46859ea)" d="M 57.6 136.1664 
L 360.8064 136.1664 
" style="fill:none;stroke:#b0b0b0;stroke-linecap:square;stroke-width:0.8;"/>
     </g>
     <g id="line2d_28">
      <g>
       <use style="stroke:#000000;stroke-width:0.8;" x="57.6" xlink:href="#m06dbaaa88b" y="136.1664"/>
      </g>
     </g>
     <g id="text_9">
      <!-- 0.6 -->
      <g transform="translate(25.155 142.24515)scale(0.16 -0.16)">
       <use xlink:href="#DejaVuSans-30"/>
       <use x="63.623047" xlink:href="#DejaVuSans-2e"/>
       <use x="95.410156" xlink:href="#DejaVuSans-36"/>
      </g>
     </g>
    </g>
    <g id="ytick_5">
     <g id="line2d_29">
      <path clip-path="url(#p2fe46859ea)" d="M 57.6 81.9072 
L 360.8064 81.9072 
" style="fill:none;stroke:#b0b0b0;stroke-linecap:square;stroke-width:0.8;"/>
     </g>
     <g id="line2d_30">
      <g>
       <use style="stroke:#000000;stroke-width:0.8;" x="57.6" xlink:href="#m06dbaaa88b" y="81.9072"/>
      </g>
     </g>
     <g id="text_10">
      <!-- 0.8 -->
      <g transform="translate(25.155 87.98595)scale(0.16 -0.16)">
       <defs>
        <path d="M 2034 2216 
Q 1584 2216 1326 1975 
Q 1069 1734 1069 1313 
Q 1069 891 1326 650 
Q 1584 409 2034 409 
Q 2484 409 2743 651 
Q 3003 894 3003 1313 
Q 3003 1734 2745 1975 
Q 2488 2216 2034 2216 
z
M 1403 2484 
Q 997 2584 770 2862 
Q 544 3141 544 3541 
Q 544 4100 942 4425 
Q 1341 4750 2034 4750 
Q 2731 4750 3128 4425 
Q 3525 4100 3525 3541 
Q 3525 3141 3298 2862 
Q 3072 2584 2669 2484 
Q 3125 2378 3379 2068 
Q 3634 1759 3634 1313 
Q 3634 634 3220 271 
Q 2806 -91 2034 -91 
Q 1263 -91 848 271 
Q 434 634 434 1313 
Q 434 1759 690 2068 
Q 947 2378 1403 2484 
z
M 1172 3481 
Q 1172 3119 1398 2916 
Q 1625 2713 2034 2713 
Q 2441 2713 2670 2916 
Q 2900 3119 2900 3481 
Q 2900 3844 2670 4047 
Q 2441 4250 2034 4250 
Q 1625 4250 1398 4047 
Q 1172 3844 1172 3481 
z
" id="DejaVuSans-38" transform="scale(0.015625)"/>
       </defs>
       <use xlink:href="#DejaVuSans-30"/>
       <use x="63.623047" xlink:href="#DejaVuSans-2e"/>
       <use x="95.410156" xlink:href="#DejaVuSans-38"/>
      </g>
     </g>
    </g>
    <g id="ytick_6">
     <g id="line2d_31">
      <path clip-path="url(#p2fe46859ea)" d="M 57.6 27.648 
L 360.8064 27.648 
" style="fill:none;stroke:#b0b0b0;stroke-linecap:square;stroke-width:0.8;"/>
     </g>
     <g id="line2d_32">
      <g>
       <use style="stroke:#000000;stroke-width:0.8;" x="57.6" xlink:href="#m06dbaaa88b" y="27.648"/>
      </g>
     </g>
     <g id="text_11">
      <!-- 1.0 -->
      <g transform="translate(25.155 33.72675)scale(0.16 -0.16)">
       <use xlink:href="#DejaVuSans-31"/>
       <use x="63.623047" xlink:href="#DejaVuSans-2e"/>
       <use x="95.410156" xlink:href="#DejaVuSans-30"/>
      </g>
     </g>
    </g>
    <g id="text_12">
     <!-- Fraction of function,target pairs -->
     <g transform="translate(17.619531 297.681)rotate(-90)scale(0.17 -0.17)">
      <defs>
       <path d="M 628 4666 
L 3309 4666 
L 3309 4134 
L 1259 4134 
L 1259 2759 
L 3109 2759 
L 3109 2228 
L 1259 2228 
L 1259 0 
L 628 0 
L 628 4666 
z
" id="DejaVuSans-46" transform="scale(0.015625)"/>
       <path d="M 2631 2963 
Q 2534 3019 2420 3045 
Q 2306 3072 2169 3072 
Q 1681 3072 1420 2755 
Q 1159 2438 1159 1844 
L 1159 0 
L 581 0 
L 581 3500 
L 1159 3500 
L 1159 2956 
Q 1341 3275 1631 3429 
Q 1922 3584 2338 3584 
Q 2397 3584 2469 3576 
Q 2541 3569 2628 3553 
L 2631 2963 
z
" id="DejaVuSans-72" transform="scale(0.015625)"/>
       <path d="M 3122 3366 
L 3122 2828 
Q 2878 2963 2633 3030 
Q 2388 3097 2138 3097 
Q 1578 3097 1268 2742 
Q 959 2388 959 1747 
Q 959 1106 1268 751 
Q 1578 397 2138 397 
Q 2388 397 2633 464 
Q 2878 531 3122 666 
L 3122 134 
Q 2881 22 2623 -34 
Q 2366 -91 2075 -91 
Q 1284 -91 818 406 
Q 353 903 353 1747 
Q 353 2603 823 3093 
Q 1294 3584 2113 3584 
Q 2378 3584 2631 3529 
Q 2884 3475 3122 3366 
z
" id="DejaVuSans-63" transform="scale(0.015625)"/>
       <path d="M 1172 4494 
L 1172 3500 
L 2356 3500 
L 2356 3053 
L 1172 3053 
L 1172 1153 
Q 1172 725 1289 603 
Q 1406 481 1766 481 
L 2356 481 
L 2356 0 
L 1766 0 
Q 1100 0 847 248 
Q 594 497 594 1153 
L 594 3053 
L 172 3053 
L 172 3500 
L 594 3500 
L 594 4494 
L 1172 4494 
z
" id="DejaVuSans-74" transform="scale(0.015625)"/>
       <path d="M 544 1381 
L 544 3500 
L 1119 3500 
L 1119 1403 
Q 1119 906 1312 657 
Q 1506 409 1894 409 
Q 2359 409 2629 706 
Q 2900 1003 2900 1516 
L 2900 3500 
L 3475 3500 
L 3475 0 
L 2900 0 
L 2900 538 
Q 2691 219 2414 64 
Q 2138 -91 1772 -91 
Q 1169 -91 856 284 
Q 544 659 544 1381 
z
M 1991 3584 
L 1991 3584 
z
" id="DejaVuSans-75" transform="scale(0.015625)"/>
       <path d="M 750 794 
L 1409 794 
L 1409 256 
L 897 -744 
L 494 -744 
L 750 256 
L 750 794 
z
" id="DejaVuSans-2c" transform="scale(0.015625)"/>
       <path d="M 1159 525 
L 1159 -1331 
L 581 -1331 
L 581 3500 
L 1159 3500 
L 1159 2969 
Q 1341 3281 1617 3432 
Q 1894 3584 2278 3584 
Q 2916 3584 3314 3078 
Q 3713 2572 3713 1747 
Q 3713 922 3314 415 
Q 2916 -91 2278 -91 
Q 1894 -91 1617 61 
Q 1341 213 1159 525 
z
M 3116 1747 
Q 3116 2381 2855 2742 
Q 2594 3103 2138 3103 
Q 1681 3103 1420 2742 
Q 1159 2381 1159 1747 
Q 1159 1113 1420 752 
Q 1681 391 2138 391 
Q 2594 391 2855 752 
Q 3116 1113 3116 1747 
z
" id="DejaVuSans-70" transform="scale(0.015625)"/>
      </defs>
      <use xlink:href="#DejaVuSans-46"/>
      <use x="50.269531" xlink:href="#DejaVuSans-72"/>
      <use x="91.382812" xlink:href="#DejaVuSans-61"/>
      <use x="152.662109" xlink:href="#DejaVuSans-63"/>
      <use x="207.642578" xlink:href="#DejaVuSans-74"/>
      <use x="246.851562" xlink:href="#DejaVuSans-69"/>
      <use x="274.634766" xlink:href="#DejaVuSans-6f"/>
      <use x="335.816406" xlink:href="#DejaVuSans-6e"/>
      <use x="399.195312" xlink:href="#DejaVuSans-20"/>
      <use x="430.982422" xlink:href="#DejaVuSans-6f"/>
      <use x="492.164062" xlink:href="#DejaVuSans-66"/>
      <use x="527.369141" xlink:href="#DejaVuSans-20"/>
      <use x="559.15625" xlink:href="#DejaVuSans-66"/>
      <use x="594.361328" xlink:href="#DejaVuSans-75"/>
      <use x="657.740234" xlink:href="#DejaVuSans-6e"/>
      <use x="721.119141" xlink:href="#DejaVuSans-63"/>
      <use x="776.099609" xlink:href="#DejaVuSans-74"/>
      <use x="815.308594" xlink:href="#DejaVuSans-69"/>
      <use x="843.091797" xlink:href="#DejaVuSans-6f"/>
      <use x="904.273438" xlink:href="#DejaVuSans-6e"/>
      <use x="967.652344" xlink:href="#DejaVuSans-2c"/>
      <use x="999.439453" xlink:href="#DejaVuSans-74"/>
      <use x="1038.648438" xlink:href="#DejaVuSans-61"/>
      <use x="1099.927734" xlink:href="#DejaVuSans-72"/>
      <use x="1139.291016" xlink:href="#DejaVuSans-67"/>
      <use x="1202.767578" xlink:href="#DejaVuSans-65"/>
      <use x="1264.291016" xlink:href="#DejaVuSans-74"/>
      <use x="1303.5" xlink:href="#DejaVuSans-20"/>
      <use x="1335.287109" xlink:href="#DejaVuSans-70"/>
      <use x="1398.763672" xlink:href="#DejaVuSans-61"/>
      <use x="1460.042969" xlink:href="#DejaVuSans-69"/>
      <use x="1487.826172" xlink:href="#DejaVuSans-72"/>
      <use x="1528.939453" xlink:href="#DejaVuSans-73"/>
     </g>
    </g>
   </g>
   <g id="line2d_33">
    <defs>
     <path d="M 0 1.5 
C 0.397805 1.5 0.77937 1.341951 1.06066 1.06066 
C 1.341951 0.77937 1.5 0.397805 1.5 0 
C 1.5 -0.397805 1.341951 -0.77937 1.06066 -1.06066 
C 0.77937 -1.341951 0.397805 -1.5 0 -1.5 
C -0.397805 -1.5 -0.77937 -1.341951 -1.06066 -1.06066 
C -1.341951 -0.77937 -1.5 -0.397805 -1.5 0 
C -1.5 0.397805 -1.341951 0.77937 -1.06066 1.06066 
C -0.77937 1.341951 -0.397805 1.5 0 1.5 
z
" id="m799dbd1bc3" style="stroke:#f5deb3;"/>
    </defs>
    <g>
     <use style="fill:#f5deb3;stroke:#f5deb3;" x="224.226621" xlink:href="#m799dbd1bc3" y="27.648"/>
     <use style="fill:#f5deb3;stroke:#f5deb3;" x="224.226621" xlink:href="#m799dbd1bc3" y="27.648"/>
    </g>
   </g>
   <g id="line2d_34">
    <defs>
     <path d="M 0 1.5 
C 0.397805 1.5 0.77937 1.341951 1.06066 1.06066 
C 1.341951 0.77937 1.5 0.397805 1.5 0 
C 1.5 -0.397805 1.341951 -0.77937 1.06066 -1.06066 
C 0.77937 -1.341951 0.397805 -1.5 0 -1.5 
C -0.397805 -1.5 -0.77937 -1.341951 -1.06066 -1.06066 
C -1.341951 -0.77937 -1.5 -0.397805 -1.5 0 
C -1.5 0.397805 -1.341951 0.77937 -1.06066 1.06066 
C -0.77937 1.341951 -0.397805 1.5 0 1.5 
z
" id="m864d283497" style="stroke:#000080;"/>
    </defs>
    <g>
     <use style="fill:#000080;stroke:#000080;" x="271.124459" xlink:href="#m864d283497" y="224.470588"/>
     <use style="fill:#000080;stroke:#000080;" x="271.124459" xlink:href="#m864d283497" y="224.470588"/>
    </g>
   </g>
   <g id="line2d_35">
    <path d="M -1 287.595671 
L 1.245626 287.595671 
L 1.245626 285.467859 
L 8.873054 285.467859 
L 8.873054 284.049318 
L 14.2848 284.049318 
L 14.2848 283.340047 
L 18.482477 283.340047 
L 18.482477 282.276141 
L 21.912228 282.276141 
L 21.912228 281.212235 
L 24.812042 281.212235 
L 24.812042 279.793694 
L 27.323974 279.793694 
L 27.323974 279.439059 
L 39.149079 279.439059 
L 39.149079 279.084424 
L 48.758502 279.084424 
L 48.758502 278.729788 
L 60.633704 278.729788 
L 60.633704 278.375153 
L 62.893805 278.375153 
L 62.893805 278.020518 
L 69.920174 278.020518 
L 69.920174 277.665882 
L 74.647789 277.665882 
L 74.647789 277.311247 
L 84.707809 277.311247 
L 84.707809 276.956612 
L 91.069151 276.956612 
L 91.069151 276.601976 
L 93.311272 276.601976 
L 93.311272 276.247341 
L 96.059501 276.247341 
L 96.059501 275.892706 
L 97.239295 275.892706 
L 97.239295 275.538071 
L 98.349443 275.538071 
L 98.349443 275.183435 
L 98.563822 275.183435 
L 98.563822 274.8288 
L 104.384101 274.8288 
L 104.384101 274.474165 
L 104.771184 274.474165 
L 104.771184 274.119529 
L 106.734013 274.119529 
L 106.734013 273.764894 
L 106.871575 273.764894 
L 106.871575 273.410259 
L 107.478452 273.410259 
L 107.478452 273.055624 
L 109.068211 273.055624 
L 109.068211 272.700988 
L 112.915065 272.700988 
L 112.915065 272.346353 
L 113.693921 272.346353 
L 113.693921 271.991718 
L 121.628773 271.991718 
L 121.628773 271.637082 
L 122.454778 271.637082 
L 122.454778 271.282447 
L 124.946123 271.282447 
L 124.946123 270.927812 
L 127.169086 270.927812 
L 127.169086 270.573176 
L 129.694118 270.573176 
L 129.755128 269.863906 
L 130.973639 269.863906 
L 130.973639 269.509271 
L 131.238196 269.509271 
L 131.238196 269.154635 
L 132.560437 269.154635 
L 132.560437 268.8 
L 133.33151 268.8 
L 133.33151 268.445365 
L 133.465341 268.445365 
L 133.465341 268.090729 
L 135.093129 268.090729 
L 135.093129 267.736094 
L 136.703813 267.736094 
L 136.703813 267.381459 
L 137.688006 267.381459 
L 137.688006 267.026824 
L 144.394285 267.026824 
L 144.394285 266.672188 
L 145.125811 266.672188 
L 145.125811 266.317553 
L 145.984815 266.317553 
L 145.993381 265.608282 
L 146.349687 265.608282 
L 146.349687 265.253647 
L 146.888144 265.253647 
L 146.99401 264.189741 
L 147.57767 264.189741 
L 147.57767 263.835106 
L 147.711031 263.835106 
L 147.711031 263.480471 
L 149.844455 263.480471 
L 149.851432 262.7712 
L 150.74382 262.7712 
L 150.74382 262.416565 
L 152.325393 262.416565 
L 152.325393 262.061929 
L 152.909537 262.061929 
L 152.962828 261.352659 
L 153.95329 261.352659 
L 153.95329 260.998024 
L 154.920861 260.998024 
L 154.920861 260.643388 
L 156.346699 260.643388 
L 156.346699 260.288753 
L 158.474089 260.288753 
L 158.553324 259.579482 
L 160.281252 259.579482 
L 160.281252 259.224847 
L 161.25347 259.224847 
L 161.25347 258.870212 
L 161.615278 258.870212 
L 161.615278 258.515576 
L 161.973921 258.515576 
L 161.973921 258.160941 
L 162.221326 258.160941 
L 162.221326 257.806306 
L 162.804952 257.806306 
L 162.804952 257.451671 
L 163.435508 257.451671 
L 163.435508 257.097035 
L 164.775906 257.097035 
L 164.775906 256.7424 
L 166.018256 256.7424 
L 166.018256 256.387765 
L 166.979839 256.387765 
L 166.979839 256.033129 
L 167.100139 256.033129 
L 167.155832 255.323859 
L 168.715915 255.323859 
L 168.715915 254.969224 
L 169.085898 254.969224 
L 169.085898 254.614588 
L 169.571417 254.614588 
L 169.571417 254.259953 
L 170.813359 254.259953 
L 170.813359 253.905318 
L 171.097355 253.905318 
L 171.097355 253.550682 
L 172.228445 253.550682 
L 172.228445 253.196047 
L 172.481533 253.196047 
L 172.481533 252.841412 
L 172.608893 252.841412 
L 172.608893 252.486776 
L 173.117982 252.486776 
L 173.13013 251.777506 
L 173.552407 251.777506 
L 173.552407 251.422871 
L 174.019544 251.422871 
L 174.019544 251.068235 
L 174.394162 251.068235 
L 174.394162 250.7136 
L 174.54495 250.7136 
L 174.655386 250.004329 
L 175.035972 250.004329 
L 175.035972 249.649694 
L 175.862514 249.649694 
L 175.862514 249.295059 
L 176.34974 249.295059 
L 176.34974 248.940424 
L 176.917565 248.940424 
L 176.917565 248.585788 
L 177.037983 248.585788 
L 177.037983 248.231153 
L 177.766898 248.231153 
L 177.820602 247.521882 
L 178.223204 247.521882 
L 178.223204 247.167247 
L 178.74394 247.167247 
L 178.74394 246.812612 
L 178.993074 246.812612 
L 178.993074 246.457976 
L 179.442628 246.457976 
L 179.539327 245.748706 
L 179.741219 245.748706 
L 179.741219 245.394071 
L 180.273392 245.394071 
L 180.273392 245.039435 
L 181.199944 245.039435 
L 181.199944 244.6848 
L 181.417459 244.6848 
L 181.417459 244.330165 
L 182.219564 244.330165 
L 182.219564 243.975529 
L 183.314385 243.975529 
L 183.314385 243.620894 
L 183.723323 243.620894 
L 183.800382 242.911624 
L 184.114532 242.911624 
L 184.114532 242.556988 
L 184.509932 242.556988 
L 184.582741 241.493082 
L 185.00193 241.493082 
L 185.00193 241.138447 
L 185.116792 241.138447 
L 185.116792 240.783812 
L 185.733705 240.783812 
L 185.733705 240.429176 
L 186.087664 240.429176 
L 186.087664 240.074541 
L 186.756598 240.074541 
L 186.827088 239.010635 
L 187.085243 239.010635 
L 187.085243 238.656 
L 187.236923 238.656 
L 187.236923 238.301365 
L 195.192143 238.301365 
L 195.192143 237.946729 
L 195.81381 237.946729 
L 195.81381 237.592094 
L 196.796178 237.592094 
L 196.796178 237.237459 
L 196.971945 237.237459 
L 197.010087 236.528188 
L 198.114986 236.528188 
L 198.114986 236.173553 
L 198.775728 236.173553 
L 198.775728 235.818918 
L 198.952487 235.818918 
L 198.952487 235.109647 
L 199.166688 235.109647 
L 199.166688 234.755012 
L 200.233741 234.755012 
L 200.233741 234.400376 
L 206.605629 234.400376 
L 206.605629 234.045741 
L 207.051399 234.045741 
L 207.051399 233.691106 
L 207.633884 233.691106 
L 207.633884 232.981835 
L 208.066319 232.981835 
L 208.116176 231.917929 
L 212.434569 231.917929 
L 212.434569 231.563294 
L 213.554335 231.563294 
L 213.554335 231.208659 
L 220.470139 231.208659 
L 220.470139 230.854024 
L 221.024035 230.854024 
L 221.024035 230.499388 
L 221.183297 230.499388 
L 221.208139 229.080847 
L 223.910958 229.080847 
L 223.910958 228.726212 
L 224.058315 228.726212 
L 224.094199 228.016941 
L 226.614444 228.016941 
L 226.614444 227.662306 
L 228.853131 227.662306 
L 228.853131 227.307671 
L 230.695807 227.307671 
L 230.695807 226.953035 
L 230.838636 226.953035 
L 230.838636 226.5984 
L 243.893601 226.5984 
L 243.893601 226.243765 
L 245.687968 226.243765 
L 245.687968 225.889129 
L 248.832722 225.889129 
L 248.832722 225.534494 
L 253.88204 225.534494 
L 253.88204 225.179859 
L 255.975344 225.179859 
L 255.975344 224.825224 
L 271.124459 224.825224 
L 271.124459 224.470588 
L 360.8064 224.470588 
L 360.8064 224.470588 
" style="fill:none;stroke:#000080;stroke-linecap:square;stroke-width:1.5;"/>
   </g>
   <g id="line2d_36">
    <defs>
     <path d="M 0 6 
C 1.591219 6 3.117479 5.367802 4.242641 4.242641 
C 5.367802 3.117479 6 1.591219 6 0 
C 6 -1.591219 5.367802 -3.117479 4.242641 -4.242641 
C 3.117479 -5.367802 1.591219 -6 0 -6 
C -1.591219 -6 -3.117479 -5.367802 -4.242641 -4.242641 
C -5.367802 -3.117479 -6 -1.591219 -6 0 
C -6 1.591219 -5.367802 3.117479 -4.242641 4.242641 
C -3.117479 5.367802 -1.591219 6 0 6 
z
" id="m0419402981" style="stroke:#000080;stroke-width:1.5;"/>
    </defs>
    <g>
     <use style="fill-opacity:0;stroke:#000080;stroke-width:1.5;" x="156.346699" xlink:href="#m0419402981" y="260.643388"/>
     <use style="fill-opacity:0;stroke:#000080;stroke-width:1.5;" x="221.024035" xlink:href="#m0419402981" y="230.499388"/>
     <use style="fill-opacity:0;stroke:#000080;stroke-width:1.5;" x="271.124459" xlink:href="#m0419402981" y="224.825224"/>
     <use style="fill-opacity:0;stroke:#000080;stroke-width:1.5;" x="271.124459" xlink:href="#m0419402981" y="224.470588"/>
     <use style="fill-opacity:0;stroke:#000080;stroke-width:1.5;" x="360.8064" xlink:href="#m0419402981" y="224.470588"/>
    </g>
   </g>
   <g id="line2d_37">
    <path style="fill:none;stroke:#000080;stroke-linecap:square;stroke-width:1.5;"/>
    <g/>
   </g>
   <g id="line2d_38">
    <path clip-path="url(#p2fe46859ea)" d="M 187.555003 238.301365 
" style="fill:none;stroke:#000080;stroke-linecap:square;stroke-width:1.5;"/>
    <defs>
     <path d="M -12 12 
L 12 -12 
M -12 -12 
L 12 12 
" id="md9921e491a" style="stroke:#000080;"/>
    </defs>
    <g clip-path="url(#p2fe46859ea)">
     <use style="fill:#000080;stroke:#000080;" x="187.555003" xlink:href="#md9921e491a" y="238.301365"/>
    </g>
   </g>
   <g id="line2d_39">
    <defs>
     <path d="M 0 1.5 
C 0.397805 1.5 0.77937 1.341951 1.06066 1.06066 
C 1.341951 0.77937 1.5 0.397805 1.5 0 
C 1.5 -0.397805 1.341951 -0.77937 1.06066 -1.06066 
C 0.77937 -1.341951 0.397805 -1.5 0 -1.5 
C -0.397805 -1.5 -0.77937 -1.341951 -1.06066 -1.06066 
C -1.341951 -0.77937 -1.5 -0.397805 -1.5 0 
C -1.5 0.397805 -1.341951 0.77937 -1.06066 1.06066 
C -0.77937 1.341951 -0.397805 1.5 0 1.5 
z
" id="mdc12491dbf" style="stroke:#ff00ff;"/>
    </defs>
    <g>
     <use style="fill:#ff00ff;stroke:#ff00ff;" x="238.007072" xlink:href="#mdc12491dbf" y="187.233882"/>
     <use style="fill:#ff00ff;stroke:#ff00ff;" x="238.007072" xlink:href="#mdc12491dbf" y="187.233882"/>
    </g>
   </g>
   <g id="line2d_40">
    <path d="M -1 282.985412 
L 1.245626 282.985412 
L 1.245626 280.8576 
L 8.873054 280.8576 
L 8.873054 279.793694 
L 18.482477 279.793694 
L 18.482477 279.084424 
L 24.812042 279.084424 
L 24.812042 278.729788 
L 27.323974 278.729788 
L 27.323974 278.375153 
L 29.539656 278.375153 
L 29.539656 277.665882 
L 33.314583 277.665882 
L 33.314583 277.311247 
L 34.951403 277.311247 
L 34.951403 276.956612 
L 40.363149 276.956612 
L 40.363149 275.538071 
L 42.578831 275.538071 
L 42.578831 275.183435 
L 45.478644 275.183435 
L 45.478644 274.8288 
L 47.189965 274.8288 
L 47.189965 274.474165 
L 56.133422 274.474165 
L 56.133422 273.764894 
L 62.535479 273.764894 
L 62.535479 273.410259 
L 69.920174 273.410259 
L 69.920174 273.055624 
L 72.432107 273.055624 
L 72.432107 272.700988 
L 80.059535 272.700988 
L 80.059535 272.346353 
L 83.560408 272.346353 
L 83.560408 271.991718 
L 85.147866 271.991718 
L 85.147866 271.637082 
L 88.88321 271.637082 
L 88.88321 271.282447 
L 89.060679 271.282447 
L 89.060679 270.927812 
L 91.770283 270.927812 
L 91.770283 270.573176 
L 95.377623 270.573176 
L 95.377623 270.218541 
L 95.503454 270.218541 
L 95.503454 269.863906 
L 95.937347 269.863906 
L 95.937347 269.509271 
L 96.776218 269.509271 
L 96.776218 269.154635 
L 99.448622 269.154635 
L 99.448622 268.8 
L 102.878374 268.8 
L 102.878374 268.445365 
L 103.5034 268.445365 
L 103.5034 268.090729 
L 104.694402 268.090729 
L 104.694402 267.736094 
L 104.961779 267.736094 
L 104.961779 267.381459 
L 105.922892 267.381459 
L 105.922892 267.026824 
L 106.209005 267.026824 
L 106.209005 266.672188 
L 106.560633 266.672188 
L 106.560633 266.317553 
L 107.610695 266.317553 
L 107.610695 265.962918 
L 108.448334 265.962918 
L 108.448334 265.608282 
L 110.702489 265.608282 
L 110.702489 265.253647 
L 111.0898 265.253647 
L 111.0898 264.899012 
L 111.602996 264.899012 
L 111.602996 264.544376 
L 113.57433 264.544376 
L 113.57433 264.189741 
L 113.765312 264.189741 
L 113.765312 263.835106 
L 114.624224 263.835106 
L 114.624224 263.480471 
L 114.961559 263.480471 
L 114.961559 263.125835 
L 116.232657 263.125835 
L 116.232657 262.7712 
L 116.685473 262.7712 
L 116.685473 262.416565 
L 117.481849 262.416565 
L 117.481849 262.061929 
L 119.35436 262.061929 
L 119.35436 261.707294 
L 120.50103 261.707294 
L 120.50103 261.352659 
L 121.041112 261.352659 
L 121.041112 260.998024 
L 121.249686 260.998024 
L 121.249686 260.643388 
L 121.408568 260.643388 
L 121.408568 260.288753 
L 121.613129 260.288753 
L 121.706797 259.579482 
L 122.499621 259.579482 
L 122.559246 258.870212 
L 123.685677 258.870212 
L 123.685677 258.515576 
L 125.154707 258.515576 
L 125.154707 258.160941 
L 125.60308 258.160941 
L 125.60308 257.806306 
L 125.929373 257.806306 
L 125.929373 257.451671 
L 126.237867 257.451671 
L 126.237867 257.097035 
L 126.589495 257.097035 
L 126.589495 256.7424 
L 127.192367 256.7424 
L 127.192367 256.387765 
L 127.469522 256.387765 
L 127.469522 256.033129 
L 127.967271 256.033129 
L 127.967271 255.678494 
L 128.255322 255.678494 
L 128.255322 255.323859 
L 130.186674 255.323859 
L 130.186674 254.969224 
L 130.608541 254.969224 
L 130.608541 254.614588 
L 131.068551 254.614588 
L 131.068551 254.259953 
L 131.93807 254.259953 
L 131.93807 253.905318 
L 132.082151 253.905318 
L 132.082151 253.550682 
L 132.560437 253.550682 
L 132.647689 252.841412 
L 132.992707 252.841412 
L 132.992707 252.486776 
L 133.406907 252.486776 
L 133.406907 252.132141 
L 134.280881 252.132141 
L 134.28886 251.422871 
L 134.644477 251.422871 
L 134.644477 251.068235 
L 135.245388 251.068235 
L 135.245388 250.7136 
L 135.418977 250.7136 
L 135.418977 250.358965 
L 135.776169 250.358965 
L 135.776169 250.004329 
L 135.930332 250.004329 
L 135.930332 249.649694 
L 136.068734 249.649694 
L 136.133938 248.940424 
L 137.154452 248.940424 
L 137.23648 248.231153 
L 137.807486 248.231153 
L 137.807486 247.876518 
L 138.489728 247.876518 
L 138.489728 247.521882 
L 138.648583 247.521882 
L 138.648583 247.167247 
L 138.887503 247.167247 
L 138.937418 246.457976 
L 139.568511 246.457976 
L 139.568511 246.103341 
L 139.700607 246.103341 
L 139.700607 245.748706 
L 139.849598 245.748706 
L 139.849598 245.394071 
L 140.382174 245.394071 
L 140.382174 245.039435 
L 141.222896 245.039435 
L 141.222896 244.6848 
L 141.398655 244.6848 
L 141.507676 243.620894 
L 141.93755 243.620894 
L 141.93755 243.266259 
L 142.41488 243.266259 
L 142.41488 242.911624 
L 142.961069 242.911624 
L 142.961069 242.556988 
L 143.398682 242.556988 
L 143.398682 242.202353 
L 143.628302 242.202353 
L 143.628302 241.847718 
L 143.826346 241.847718 
L 143.826346 241.493082 
L 144.017571 241.493082 
L 144.017571 241.138447 
L 144.394285 241.138447 
L 144.394285 240.783812 
L 144.717833 240.783812 
L 144.717833 240.429176 
L 144.882088 240.429176 
L 144.882088 240.074541 
L 145.215283 240.074541 
L 145.273213 239.010635 
L 145.590864 239.010635 
L 145.682511 237.946729 
L 145.743361 237.946729 
L 145.743361 237.592094 
L 145.959093 237.592094 
L 145.959093 237.237459 
L 146.176619 237.237459 
L 146.176619 236.882824 
L 146.400042 236.882824 
L 146.400042 236.528188 
L 146.521178 236.528188 
L 146.612557 235.818918 
L 147.272107 235.818918 
L 147.272107 235.464282 
L 147.656232 235.464282 
L 147.656232 235.109647 
L 147.889967 235.109647 
L 147.963382 234.045741 
L 148.017294 234.045741 
L 148.113184 233.336471 
L 148.159038 233.336471 
L 148.159038 232.981835 
L 148.273186 232.981835 
L 148.273186 232.6272 
L 148.641315 232.6272 
L 148.641315 232.272565 
L 148.815343 232.272565 
L 148.815343 231.917929 
L 149.049758 231.917929 
L 149.126043 231.208659 
L 149.395993 231.208659 
L 149.435262 230.499388 
L 150.313131 230.499388 
L 150.313131 230.144753 
L 150.667154 230.144753 
L 150.667154 229.790118 
L 150.800286 229.790118 
L 150.800286 229.435482 
L 150.92919 229.435482 
L 150.975248 228.371576 
L 151.528902 228.371576 
L 151.528902 228.016941 
L 151.70357 228.016941 
L 151.713051 227.307671 
L 152.196504 227.307671 
L 152.196504 226.953035 
L 152.625753 226.953035 
L 152.625753 226.5984 
L 153.115936 226.5984 
L 153.115936 226.243765 
L 153.570784 226.243765 
L 153.653611 225.179859 
L 154.372112 225.179859 
L 154.372112 224.825224 
L 154.649839 224.825224 
L 154.722673 224.115953 
L 155.180152 224.115953 
L 155.180152 223.761318 
L 155.967512 223.761318 
L 155.987661 223.052047 
L 156.180499 223.052047 
L 156.192953 222.342776 
L 156.420644 222.342776 
L 156.420644 221.988141 
L 156.970935 221.988141 
L 157.068632 221.278871 
L 157.384444 221.278871 
L 157.384444 220.924235 
L 157.549652 220.924235 
L 157.632869 220.214965 
L 157.706532 220.214965 
L 157.800492 219.505694 
L 158.316836 219.505694 
L 158.316836 219.151059 
L 158.445394 219.151059 
L 158.445394 218.796424 
L 159.181837 218.796424 
L 159.181837 218.441788 
L 159.332051 218.441788 
L 159.332051 218.087153 
L 159.474802 218.087153 
L 159.474802 217.732518 
L 159.790029 217.732518 
L 159.790029 217.377882 
L 160.808741 217.377882 
L 160.808741 217.023247 
L 161.891338 217.023247 
L 161.891338 216.668612 
L 162.17609 216.668612 
L 162.17609 216.313976 
L 162.534963 216.313976 
L 162.600611 215.604706 
L 164.202417 215.604706 
L 164.202417 215.250071 
L 166.01087 215.250071 
L 166.01087 214.895435 
L 166.264756 214.895435 
L 166.363619 213.831529 
L 166.594209 213.831529 
L 166.594209 213.476894 
L 166.912358 213.476894 
L 166.912358 213.122259 
L 167.45786 213.122259 
L 167.45786 212.767624 
L 167.986658 212.767624 
L 167.986658 212.412988 
L 168.471204 212.412988 
L 168.471204 212.058353 
L 169.337653 212.058353 
L 169.337653 211.703718 
L 170.226268 211.703718 
L 170.226268 211.349082 
L 171.593596 211.349082 
L 171.593596 210.994447 
L 171.709636 210.994447 
L 171.709636 210.639812 
L 173.752212 210.639812 
L 173.752212 210.285176 
L 176.472989 210.285176 
L 176.472989 209.930541 
L 176.817178 209.930541 
L 176.817178 209.575906 
L 177.616023 209.575906 
L 177.616023 209.221271 
L 177.845034 209.221271 
L 177.845034 208.866635 
L 178.775451 208.866635 
L 178.775451 208.512 
L 179.205278 208.512 
L 179.205278 208.157365 
L 179.55947 208.157365 
L 179.55947 207.802729 
L 179.847024 207.802729 
L 179.916996 207.093459 
L 181.483784 207.093459 
L 181.483784 206.738824 
L 181.600261 206.738824 
L 181.600261 206.384188 
L 182.665533 206.384188 
L 182.665533 206.029553 
L 183.085085 206.029553 
L 183.085085 205.674918 
L 183.587415 205.674918 
L 183.693334 204.611012 
L 184.02458 204.611012 
L 184.092508 203.901741 
L 184.444052 203.901741 
L 184.444052 203.547106 
L 185.301562 203.547106 
L 185.301562 203.192471 
L 187.043751 203.192471 
L 187.065956 202.4832 
L 187.840962 202.4832 
L 187.88443 201.773929 
L 188.015153 201.773929 
L 188.015153 201.419294 
L 188.426207 201.419294 
L 188.426207 201.064659 
L 191.147005 201.064659 
L 191.185025 200.355388 
L 194.870247 200.355388 
L 194.870247 200.000753 
L 195.714763 200.000753 
L 195.714763 199.646118 
L 197.189229 199.646118 
L 197.189229 199.291482 
L 198.371709 199.291482 
L 198.371709 198.936847 
L 198.494301 198.936847 
L 198.494301 198.582212 
L 198.789961 198.582212 
L 198.789961 198.227576 
L 199.00243 198.227576 
L 199.00243 197.872941 
L 199.345857 197.872941 
L 199.345857 197.518306 
L 199.635208 197.518306 
L 199.635208 197.163671 
L 199.801412 197.163671 
L 199.801412 196.809035 
L 200.421584 196.809035 
L 200.421584 196.4544 
L 200.740033 196.4544 
L 200.740033 196.099765 
L 200.870412 196.099765 
L 200.870412 195.745129 
L 201.503489 195.745129 
L 201.503489 195.390494 
L 202.473657 195.390494 
L 202.473657 195.035859 
L 203.783058 195.035859 
L 203.783058 194.681224 
L 205.137625 194.681224 
L 205.195868 193.971953 
L 206.230382 193.971953 
L 206.230382 193.617318 
L 207.07989 193.617318 
L 207.07989 193.262682 
L 209.670262 193.262682 
L 209.670262 192.908047 
L 210.152908 192.908047 
L 210.152908 192.553412 
L 211.391565 192.553412 
L 211.391565 192.198776 
L 213.812643 192.198776 
L 213.812643 191.844141 
L 217.353074 191.844141 
L 217.353074 191.489506 
L 217.930324 191.489506 
L 217.930324 191.134871 
L 219.59334 191.134871 
L 219.59334 190.780235 
L 219.723605 190.780235 
L 219.723605 190.4256 
L 221.628659 190.4256 
L 221.628659 190.070965 
L 225.462906 190.070965 
L 225.462906 189.716329 
L 226.25955 189.716329 
L 226.25955 189.361694 
L 229.77003 189.361694 
L 229.844438 188.652424 
L 230.511156 188.652424 
L 230.511156 188.297788 
L 231.028321 188.297788 
L 231.028321 187.943153 
L 235.528561 187.943153 
L 235.528561 187.588518 
L 238.007072 187.588518 
L 238.007072 187.233882 
L 360.8064 187.233882 
L 360.8064 187.233882 
" style="fill:none;stroke:#ff00ff;stroke-linecap:square;stroke-width:1.5;"/>
   </g>
   <g id="line2d_41">
    <defs>
     <path d="M -0 8.485281 
L 5.091169 0 
L 0 -8.485281 
L -5.091169 -0 
z
" id="mdd71ad8564" style="stroke:#ff00ff;stroke-linejoin:miter;stroke-width:1.5;"/>
    </defs>
    <g>
     <use style="fill-opacity:0;stroke:#ff00ff;stroke-linejoin:miter;stroke-width:1.5;" x="135.418977" xlink:href="#mdd71ad8564" y="250.7136"/>
     <use style="fill-opacity:0;stroke:#ff00ff;stroke-linejoin:miter;stroke-width:1.5;" x="179.916996" xlink:href="#mdd71ad8564" y="207.093459"/>
     <use style="fill-opacity:0;stroke:#ff00ff;stroke-linejoin:miter;stroke-width:1.5;" x="238.007072" xlink:href="#mdd71ad8564" y="187.588518"/>
     <use style="fill-opacity:0;stroke:#ff00ff;stroke-linejoin:miter;stroke-width:1.5;" x="238.007072" xlink:href="#mdd71ad8564" y="187.233882"/>
     <use style="fill-opacity:0;stroke:#ff00ff;stroke-linejoin:miter;stroke-width:1.5;" x="360.8064" xlink:href="#mdd71ad8564" y="187.233882"/>
    </g>
   </g>
   <g id="line2d_42">
    <path style="fill:none;stroke:#ff00ff;stroke-linecap:square;stroke-width:1.5;"/>
    <g/>
   </g>
   <g id="line2d_43">
    <path clip-path="url(#p2fe46859ea)" d="M 176.046272 210.285176 
" style="fill:none;stroke:#ff00ff;stroke-linecap:square;stroke-width:1.5;"/>
    <defs>
     <path d="M -12 12 
L 12 -12 
M -12 -12 
L 12 12 
" id="mec771630c5" style="stroke:#ff00ff;"/>
    </defs>
    <g clip-path="url(#p2fe46859ea)">
     <use style="fill:#ff00ff;stroke:#ff00ff;" x="176.046272" xlink:href="#mec771630c5" y="210.285176"/>
    </g>
   </g>
   <g id="line2d_44">
    <path d="M 360.8064 224.470588 
L 380.514816 293.51808 
" style="fill:none;stroke:#000080;stroke-linecap:square;stroke-width:1.5;"/>
    <g>
     <use style="fill-opacity:0;stroke:#000080;stroke-width:1.5;" x="360.8064" xlink:href="#m0419402981" y="224.470588"/>
     <use style="fill-opacity:0;stroke:#000080;stroke-width:1.5;" x="380.514816" xlink:href="#m0419402981" y="293.51808"/>
    </g>
   </g>
   <g id="line2d_45">
    <path d="M 360.8064 187.233882 
L 380.514816 163.296 
" style="fill:none;stroke:#ff00ff;stroke-linecap:square;stroke-width:1.5;"/>
    <g>
     <use style="fill-opacity:0;stroke:#ff00ff;stroke-linejoin:miter;stroke-width:1.5;" x="360.8064" xlink:href="#mdd71ad8564" y="187.233882"/>
     <use style="fill-opacity:0;stroke:#ff00ff;stroke-linejoin:miter;stroke-width:1.5;" x="380.514816" xlink:href="#mdd71ad8564" y="163.296"/>
    </g>
   </g>
   <g id="line2d_46">
    <path d="M 360.8064 298.944 
L 360.8064 27.648 
" style="fill:none;stroke:#000000;stroke-linecap:square;stroke-width:1.5;"/>
   </g>
   <g id="patch_3">
    <path d="M 57.6 298.944 
L 360.8064 298.944 
" style="fill:none;stroke:#000000;stroke-linecap:square;stroke-linejoin:miter;stroke-width:0.8;"/>
   </g>
   <g id="patch_4">
    <path d="M 57.6 27.648 
L 360.8064 27.648 
" style="fill:none;stroke:#000000;stroke-linecap:square;stroke-linejoin:miter;stroke-width:0.8;"/>
   </g>
   <g id="text_13">
    <!-- different -->
    <g transform="translate(386.578944 297.381205)scale(0.14 -0.14)">
     <use xlink:href="#DejaVuSans-64"/>
     <use x="63.476562" xlink:href="#DejaVuSans-69"/>
     <use x="91.259766" xlink:href="#DejaVuSans-66"/>
     <use x="126.464844" xlink:href="#DejaVuSans-66"/>
     <use x="161.669922" xlink:href="#DejaVuSans-65"/>
     <use x="223.193359" xlink:href="#DejaVuSans-72"/>
     <use x="262.056641" xlink:href="#DejaVuSans-65"/>
     <use x="323.580078" xlink:href="#DejaVuSans-6e"/>
     <use x="386.958984" xlink:href="#DejaVuSans-74"/>
    </g>
   </g>
   <g id="text_14">
    <!-- cma.fmin  -->
    <g transform="translate(386.578944 167.159125)scale(0.14 -0.14)">
     <use xlink:href="#DejaVuSans-63"/>
     <use x="54.980469" xlink:href="#DejaVuSans-6d"/>
     <use x="152.392578" xlink:href="#DejaVuSans-61"/>
     <use x="213.671875" xlink:href="#DejaVuSans-2e"/>
     <use x="245.458984" xlink:href="#DejaVuSans-66"/>
     <use x="280.664062" xlink:href="#DejaVuSans-6d"/>
     <use x="378.076172" xlink:href="#DejaVuSans-69"/>
     <use x="405.859375" xlink:href="#DejaVuSans-6e"/>
     <use x="469.238281" xlink:href="#DejaVuSans-20"/>
    </g>
   </g>
   <g id="text_15">
    <!-- best 2009 -->
    <g transform="translate(386.578944 36.937045)scale(0.14 -0.14)">
     <defs>
      <path d="M 3116 1747 
Q 3116 2381 2855 2742 
Q 2594 3103 2138 3103 
Q 1681 3103 1420 2742 
Q 1159 2381 1159 1747 
Q 1159 1113 1420 752 
Q 1681 391 2138 391 
Q 2594 391 2855 752 
Q 3116 1113 3116 1747 
z
M 1159 2969 
Q 1341 3281 1617 3432 
Q 1894 3584 2278 3584 
Q 2916 3584 3314 3078 
Q 3713 2572 3713 1747 
Q 3713 922 3314 415 
Q 2916 -91 2278 -91 
Q 1894 -91 1617 61 
Q 1341 213 1159 525 
L 1159 0 
L 581 0 
L 581 4863 
L 1159 4863 
L 1159 2969 
z
" id="DejaVuSans-62" transform="scale(0.015625)"/>
      <path d="M 703 97 
L 703 672 
Q 941 559 1184 500 
Q 1428 441 1663 441 
Q 2288 441 2617 861 
Q 2947 1281 2994 2138 
Q 2813 1869 2534 1725 
Q 2256 1581 1919 1581 
Q 1219 1581 811 2004 
Q 403 2428 403 3163 
Q 403 3881 828 4315 
Q 1253 4750 1959 4750 
Q 2769 4750 3195 4129 
Q 3622 3509 3622 2328 
Q 3622 1225 3098 567 
Q 2575 -91 1691 -91 
Q 1453 -91 1209 -44 
Q 966 3 703 97 
z
M 1959 2075 
Q 2384 2075 2632 2365 
Q 2881 2656 2881 3163 
Q 2881 3666 2632 3958 
Q 2384 4250 1959 4250 
Q 1534 4250 1286 3958 
Q 1038 3666 1038 3163 
Q 1038 2656 1286 2365 
Q 1534 2075 1959 2075 
z
" id="DejaVuSans-39" transform="scale(0.015625)"/>
     </defs>
     <use xlink:href="#DejaVuSans-62"/>
     <use x="63.476562" xlink:href="#DejaVuSans-65"/>
     <use x="125" xlink:href="#DejaVuSans-73"/>
     <use x="177.099609" xlink:href="#DejaVuSans-74"/>
     <use x="216.308594" xlink:href="#DejaVuSans-20"/>
     <use x="248.095703" xlink:href="#DejaVuSans-32"/>
     <use x="311.71875" xlink:href="#DejaVuSans-30"/>
     <use x="375.341797" xlink:href="#DejaVuSans-30"/>
     <use x="438.964844" xlink:href="#DejaVuSans-39"/>
    </g>
   </g>
   <g id="text_16">
    <!-- bbob f17, 40-D -->
    <g transform="translate(60.632064 38.111366)scale(0.102 -0.102)">
     <defs>
      <path d="M 525 4666 
L 3525 4666 
L 3525 4397 
L 1831 0 
L 1172 0 
L 2766 4134 
L 525 4134 
L 525 4666 
z
" id="DejaVuSans-37" transform="scale(0.015625)"/>
      <path d="M 1259 4147 
L 1259 519 
L 2022 519 
Q 2988 519 3436 956 
Q 3884 1394 3884 2338 
Q 3884 3275 3436 3711 
Q 2988 4147 2022 4147 
L 1259 4147 
z
M 628 4666 
L 1925 4666 
Q 3281 4666 3915 4102 
Q 4550 3538 4550 2338 
Q 4550 1131 3912 565 
Q 3275 0 1925 0 
L 628 0 
L 628 4666 
z
" id="DejaVuSans-44" transform="scale(0.015625)"/>
     </defs>
     <use xlink:href="#DejaVuSans-62"/>
     <use x="63.476562" xlink:href="#DejaVuSans-62"/>
     <use x="126.953125" xlink:href="#DejaVuSans-6f"/>
     <use x="188.134766" xlink:href="#DejaVuSans-62"/>
     <use x="251.611328" xlink:href="#DejaVuSans-20"/>
     <use x="283.398438" xlink:href="#DejaVuSans-66"/>
     <use x="318.603516" xlink:href="#DejaVuSans-31"/>
     <use x="382.226562" xlink:href="#DejaVuSans-37"/>
     <use x="445.849609" xlink:href="#DejaVuSans-2c"/>
     <use x="477.636719" xlink:href="#DejaVuSans-20"/>
     <use x="509.423828" xlink:href="#DejaVuSans-34"/>
     <use x="573.046875" xlink:href="#DejaVuSans-30"/>
     <use x="636.669922" xlink:href="#DejaVuSans-2d"/>
     <use x="672.753906" xlink:href="#DejaVuSans-44"/>
    </g>
    <!-- 51 targets: 100..1e-08 -->
    <g transform="translate(60.632064 49.533135)scale(0.102 -0.102)">
     <defs>
      <path d="M 691 4666 
L 3169 4666 
L 3169 4134 
L 1269 4134 
L 1269 2991 
Q 1406 3038 1543 3061 
Q 1681 3084 1819 3084 
Q 2600 3084 3056 2656 
Q 3513 2228 3513 1497 
Q 3513 744 3044 326 
Q 2575 -91 1722 -91 
Q 1428 -91 1123 -41 
Q 819 9 494 109 
L 494 744 
Q 775 591 1075 516 
Q 1375 441 1709 441 
Q 2250 441 2565 725 
Q 2881 1009 2881 1497 
Q 2881 1984 2565 2268 
Q 2250 2553 1709 2553 
Q 1456 2553 1204 2497 
Q 953 2441 691 2322 
L 691 4666 
z
" id="DejaVuSans-35" transform="scale(0.015625)"/>
      <path d="M 750 794 
L 1409 794 
L 1409 0 
L 750 0 
L 750 794 
z
M 750 3309 
L 1409 3309 
L 1409 2516 
L 750 2516 
L 750 3309 
z
" id="DejaVuSans-3a" transform="scale(0.015625)"/>
     </defs>
     <use xlink:href="#DejaVuSans-35"/>
     <use x="63.623047" xlink:href="#DejaVuSans-31"/>
     <use x="127.246094" xlink:href="#DejaVuSans-20"/>
     <use x="159.033203" xlink:href="#DejaVuSans-74"/>
     <use x="198.242188" xlink:href="#DejaVuSans-61"/>
     <use x="259.521484" xlink:href="#DejaVuSans-72"/>
     <use x="298.884766" xlink:href="#DejaVuSans-67"/>
     <use x="362.361328" xlink:href="#DejaVuSans-65"/>
     <use x="423.884766" xlink:href="#DejaVuSans-74"/>
     <use x="463.09375" xlink:href="#DejaVuSans-73"/>
     <use x="515.193359" xlink:href="#DejaVuSans-3a"/>
     <use x="548.884766" xlink:href="#DejaVuSans-20"/>
     <use x="580.671875" xlink:href="#DejaVuSans-31"/>
     <use x="644.294922" xlink:href="#DejaVuSans-30"/>
     <use x="707.917969" xlink:href="#DejaVuSans-30"/>
     <use x="771.541016" xlink:href="#DejaVuSans-2e"/>
     <use x="803.328125" xlink:href="#DejaVuSans-2e"/>
     <use x="835.115234" xlink:href="#DejaVuSans-31"/>
     <use x="898.738281" xlink:href="#DejaVuSans-65"/>
     <use x="960.261719" xlink:href="#DejaVuSans-2d"/>
     <use x="996.345703" xlink:href="#DejaVuSans-30"/>
     <use x="1059.96875" xlink:href="#DejaVuSans-38"/>
    </g>
    <!-- 15 instances -->
    <g transform="translate(60.632064 60.954904)scale(0.102 -0.102)">
     <use xlink:href="#DejaVuSans-31"/>
     <use x="63.623047" xlink:href="#DejaVuSans-35"/>
     <use x="127.246094" xlink:href="#DejaVuSans-20"/>
     <use x="159.033203" xlink:href="#DejaVuSans-69"/>
     <use x="186.816406" xlink:href="#DejaVuSans-6e"/>
     <use x="250.195312" xlink:href="#DejaVuSans-73"/>
     <use x="302.294922" xlink:href="#DejaVuSans-74"/>
     <use x="341.503906" xlink:href="#DejaVuSans-61"/>
     <use x="402.783203" xlink:href="#DejaVuSans-6e"/>
     <use x="466.162109" xlink:href="#DejaVuSans-63"/>
     <use x="521.142578" xlink:href="#DejaVuSans-65"/>
     <use x="582.666016" xlink:href="#DejaVuSans-73"/>
    </g>
   </g>
   <g id="text_17">
    <!-- v2.6 -->
    <g style="fill:#808080;" transform="translate(198.292262 294.151352)scale(0.1 -0.1)">
     <use xlink:href="#DejaVuSans-76"/>
     <use x="59.179688" xlink:href="#DejaVuSans-32"/>
     <use x="122.802734" xlink:href="#DejaVuSans-2e"/>
     <use x="154.589844" xlink:href="#DejaVuSans-36"/>
    </g>
   </g>
   <g id="text_18">
    <!-- 17 Schaffer F7, condition 10 -->
    <g transform="translate(67.895387 21.648)scale(0.2 -0.2)">
     <defs>
      <path d="M 3425 4513 
L 3425 3897 
Q 3066 4069 2747 4153 
Q 2428 4238 2131 4238 
Q 1616 4238 1336 4038 
Q 1056 3838 1056 3469 
Q 1056 3159 1242 3001 
Q 1428 2844 1947 2747 
L 2328 2669 
Q 3034 2534 3370 2195 
Q 3706 1856 3706 1288 
Q 3706 609 3251 259 
Q 2797 -91 1919 -91 
Q 1588 -91 1214 -16 
Q 841 59 441 206 
L 441 856 
Q 825 641 1194 531 
Q 1563 422 1919 422 
Q 2459 422 2753 634 
Q 3047 847 3047 1241 
Q 3047 1584 2836 1778 
Q 2625 1972 2144 2069 
L 1759 2144 
Q 1053 2284 737 2584 
Q 422 2884 422 3419 
Q 422 4038 858 4394 
Q 1294 4750 2059 4750 
Q 2388 4750 2728 4690 
Q 3069 4631 3425 4513 
z
" id="DejaVuSans-53" transform="scale(0.015625)"/>
      <path d="M 3513 2113 
L 3513 0 
L 2938 0 
L 2938 2094 
Q 2938 2591 2744 2837 
Q 2550 3084 2163 3084 
Q 1697 3084 1428 2787 
Q 1159 2491 1159 1978 
L 1159 0 
L 581 0 
L 581 4863 
L 1159 4863 
L 1159 2956 
Q 1366 3272 1645 3428 
Q 1925 3584 2291 3584 
Q 2894 3584 3203 3211 
Q 3513 2838 3513 2113 
z
" id="DejaVuSans-68" transform="scale(0.015625)"/>
     </defs>
     <use xlink:href="#DejaVuSans-31"/>
     <use x="63.623047" xlink:href="#DejaVuSans-37"/>
     <use x="127.246094" xlink:href="#DejaVuSans-20"/>
     <use x="159.033203" xlink:href="#DejaVuSans-53"/>
     <use x="222.509766" xlink:href="#DejaVuSans-63"/>
     <use x="277.490234" xlink:href="#DejaVuSans-68"/>
     <use x="340.869141" xlink:href="#DejaVuSans-61"/>
     <use x="402.148438" xlink:href="#DejaVuSans-66"/>
     <use x="437.353516" xlink:href="#DejaVuSans-66"/>
     <use x="472.558594" xlink:href="#DejaVuSans-65"/>
     <use x="534.082031" xlink:href="#DejaVuSans-72"/>
     <use x="575.195312" xlink:href="#DejaVuSans-20"/>
     <use x="606.982422" xlink:href="#DejaVuSans-46"/>
     <use x="664.501953" xlink:href="#DejaVuSans-37"/>
     <use x="728.125" xlink:href="#DejaVuSans-2c"/>
     <use x="759.912109" xlink:href="#DejaVuSans-20"/>
     <use x="791.699219" xlink:href="#DejaVuSans-63"/>
     <use x="846.679688" xlink:href="#DejaVuSans-6f"/>
     <use x="907.861328" xlink:href="#DejaVuSans-6e"/>
     <use x="971.240234" xlink:href="#DejaVuSans-64"/>
     <use x="1034.716797" xlink:href="#DejaVuSans-69"/>
     <use x="1062.5" xlink:href="#DejaVuSans-74"/>
     <use x="1101.708984" xlink:href="#DejaVuSans-69"/>
     <use x="1129.492188" xlink:href="#DejaVuSans-6f"/>
     <use x="1190.673828" xlink:href="#DejaVuSans-6e"/>
     <use x="1254.052734" xlink:href="#DejaVuSans-20"/>
     <use x="1285.839844" xlink:href="#DejaVuSans-31"/>
     <use x="1349.462891" xlink:href="#DejaVuSans-30"/>
    </g>
   </g>
  </g>
 </g>
 <defs>
  <clipPath id="p2fe46859ea">
   <rect height="271.296" width="303.2064" x="57.6" y="27.648"/>
  </clipPath>
 </defs>
</svg>
