<?xml version="1.0" encoding="utf-8" standalone="no"?>
<!DOCTYPE svg PUBLIC "-//W3C//DTD SVG 1.1//EN"
  "http://www.w3.org/Graphics/SVG/1.1/DTD/svg11.dtd">
<svg height="345.6pt" version="1.1" viewBox="0 0 460.8 345.6" width="460.8pt" xmlns="http://www.w3.org/2000/svg" xmlns:xlink="http://www.w3.org/1999/xlink">
 <metadata>
  <rdf:RDF xmlns:cc="http://creativecommons.org/ns#" xmlns:dc="http://purl.org/dc/elements/1.1/" xmlns:rdf="http://www.w3.org/1999/02/22-rdf-syntax-ns#">
   <cc:Work>
    <dc:type rdf:resource="http://purl.org/dc/dcmitype/StillImage"/>
    <dc:date>2022-05-22T15:11:04.520749</dc:date>
    <dc:format>image/svg+xml</dc:format>
    <dc:creator>
     <cc:Agent>
      <dc:title>Matplotlib v3.4.3, https://matplotlib.org/</dc:title>
     </cc:Agent>
    </dc:creator>
   </cc:Work>
  </rdf:RDF>
 </metadata>
 <defs>
  <style type="text/css">*{stroke-linecap:butt;stroke-linejoin:round;}</style>
 </defs>
 <g id="figure_1">
  <g id="patch_1">
   <path d="M 0 345.6 
L 460.8 345.6 
L 460.8 0 
L 0 0 
z
" style="fill:#ffffff;"/>
  </g>
  <g id="axes_1">
   <g id="patch_2">
    <path d="M 57.6 298.944 
L 360.8064 298.944 
L 360.8064 27.648 
L 57.6 27.648 
z
" style="fill:#ffffff;"/>
   </g>
   <g id="line2d_1">
    <path d="M 14.2848 298.944 
L 14.2848 293.624471 
L 27.323974 293.624471 
L 27.323974 288.304941 
L 61.029752 288.304941 
L 61.029752 282.985412 
L 86.712053 282.985412 
L 86.712053 277.665882 
L 98.510456 277.665882 
L 98.510456 272.346353 
L 128.133992 272.346353 
L 128.133992 267.026824 
L 131.078016 267.026824 
L 131.078016 261.707294 
L 144.022326 261.707294 
L 144.022326 256.387765 
L 154.939501 256.387765 
L 154.939501 251.068235 
L 173.964444 251.068235 
L 173.964444 245.748706 
L 180.913763 245.748706 
L 180.913763 240.429176 
L 182.594689 240.429176 
L 182.594689 235.109647 
L 186.51126 235.109647 
L 186.51126 229.790118 
L 189.697633 229.790118 
L 189.697633 224.470588 
L 193.361651 224.470588 
L 193.361651 219.151059 
L 196.125452 219.151059 
L 196.125452 213.831529 
L 198.336497 213.831529 
L 198.336497 208.512 
L 204.666971 208.512 
L 204.666971 203.192471 
L 209.902819 203.192471 
L 209.902819 197.872941 
L 212.977611 197.872941 
L 212.977611 192.553412 
L 216.117237 192.553412 
L 216.117237 187.233882 
L 217.981221 187.233882 
L 217.981221 181.914353 
L 218.029283 181.914353 
L 218.029283 176.594824 
L 218.073883 176.594824 
L 218.073883 171.275294 
L 218.145392 171.275294 
L 218.145392 165.955765 
L 218.249758 165.955765 
L 218.249758 160.636235 
L 220.019909 160.636235 
L 220.019909 155.316706 
L 220.059033 155.316706 
L 220.059033 149.997176 
L 220.139365 149.997176 
L 220.139365 144.677647 
L 222.74176 144.677647 
L 222.74176 139.358118 
L 222.787757 139.358118 
L 222.787757 134.038588 
L 222.820955 134.038588 
L 222.820955 128.719059 
L 222.86158 128.719059 
L 222.86158 123.399529 
L 222.908434 123.399529 
L 222.908434 118.08 
L 222.965478 118.08 
L 222.965478 112.760471 
L 222.986646 112.760471 
L 222.986646 107.440941 
L 223.032049 107.440941 
L 223.032049 102.121412 
L 224.267729 102.121412 
L 224.267729 96.801882 
L 224.306682 96.801882 
L 224.306682 91.482353 
L 224.346884 91.482353 
L 224.346884 86.162824 
L 224.380896 86.162824 
L 224.380896 80.843294 
L 224.417231 80.843294 
L 224.417231 75.523765 
L 224.452438 75.523765 
L 224.452438 70.204235 
L 224.497344 70.204235 
L 224.497344 64.884706 
L 224.541353 64.884706 
L 224.541353 59.565176 
L 224.568445 59.565176 
L 224.568445 54.245647 
L 224.604157 54.245647 
L 224.604157 48.926118 
L 224.637707 48.926118 
L 224.637707 43.606588 
L 224.663354 43.606588 
L 224.663354 38.287059 
L 224.697059 38.287059 
L 224.697059 32.967529 
L 224.721843 32.967529 
L 224.721843 27.648 
L 360.8064 27.648 
" style="fill:none;stroke:#f5deb3;stroke-linecap:square;stroke-width:4;"/>
   </g>
   <g id="line2d_2">
    <defs>
     <path d="M -0 7.778175 
L 7.778175 0 
L 0 -7.778175 
L -7.778175 -0 
z
" id="mef51a4e85b" style="stroke:#f5deb3;stroke-linejoin:miter;stroke-width:1.5;"/>
    </defs>
    <g>
     <use style="fill:#f5deb3;stroke:#f5deb3;stroke-linejoin:miter;stroke-width:1.5;" x="98.510456" xlink:href="#mef51a4e85b" y="272.346353"/>
     <use style="fill:#f5deb3;stroke:#f5deb3;stroke-linejoin:miter;stroke-width:1.5;" x="204.666971" xlink:href="#mef51a4e85b" y="203.192471"/>
     <use style="fill:#f5deb3;stroke:#f5deb3;stroke-linejoin:miter;stroke-width:1.5;" x="224.380896" xlink:href="#mef51a4e85b" y="86.162824"/>
     <use style="fill:#f5deb3;stroke:#f5deb3;stroke-linejoin:miter;stroke-width:1.5;" x="224.721843" xlink:href="#mef51a4e85b" y="27.648"/>
     <use style="fill:#f5deb3;stroke:#f5deb3;stroke-linejoin:miter;stroke-width:1.5;" x="224.721843" xlink:href="#mef51a4e85b" y="27.648"/>
     <use style="fill:#f5deb3;stroke:#f5deb3;stroke-linejoin:miter;stroke-width:1.5;" x="360.8064" xlink:href="#mef51a4e85b" y="27.648"/>
    </g>
   </g>
   <g id="line2d_3">
    <path style="fill:none;stroke:#f5deb3;stroke-linecap:square;stroke-width:4;"/>
    <g/>
   </g>
   <g id="line2d_4">
    <path d="M 360.8064 27.648 
L 380.514816 33.07392 
" style="fill:none;stroke:#f5deb3;stroke-linecap:square;stroke-width:4;"/>
    <g>
     <use style="fill:#f5deb3;stroke:#f5deb3;stroke-linejoin:miter;stroke-width:1.5;" x="360.8064" xlink:href="#mef51a4e85b" y="27.648"/>
     <use style="fill:#f5deb3;stroke:#f5deb3;stroke-linejoin:miter;stroke-width:1.5;" x="380.514816" xlink:href="#mef51a4e85b" y="33.07392"/>
    </g>
   </g>
   <g id="matplotlib.axis_1">
    <g id="xtick_1">
     <g id="line2d_5">
      <path clip-path="url(#pdb93e43d29)" d="M 57.6 298.944 
L 57.6 27.648 
" style="fill:none;stroke:#b0b0b0;stroke-linecap:square;stroke-width:0.8;"/>
     </g>
     <g id="line2d_6">
      <defs>
       <path d="M 0 0 
L 0 3.5 
" id="mf1af17e844" style="stroke:#000000;stroke-width:0.8;"/>
      </defs>
      <g>
       <use style="stroke:#000000;stroke-width:0.8;" x="57.6" xlink:href="#mf1af17e844" y="298.944"/>
      </g>
     </g>
     <g id="text_1">
      <!-- 0 -->
      <g transform="translate(52.191875 318.861344)scale(0.17 -0.17)">
       <defs>
        <path d="M 2034 4250 
Q 1547 4250 1301 3770 
Q 1056 3291 1056 2328 
Q 1056 1369 1301 889 
Q 1547 409 2034 409 
Q 2525 409 2770 889 
Q 3016 1369 3016 2328 
Q 3016 3291 2770 3770 
Q 2525 4250 2034 4250 
z
M 2034 4750 
Q 2819 4750 3233 4129 
Q 3647 3509 3647 2328 
Q 3647 1150 3233 529 
Q 2819 -91 2034 -91 
Q 1250 -91 836 529 
Q 422 1150 422 2328 
Q 422 3509 836 4129 
Q 1250 4750 2034 4750 
z
" id="DejaVuSans-30" transform="scale(0.015625)"/>
       </defs>
       <use xlink:href="#DejaVuSans-30"/>
      </g>
     </g>
    </g>
    <g id="xtick_2">
     <g id="line2d_7">
      <path clip-path="url(#pdb93e43d29)" d="M 144.2304 298.944 
L 144.2304 27.648 
" style="fill:none;stroke:#b0b0b0;stroke-linecap:square;stroke-width:0.8;"/>
     </g>
     <g id="line2d_8">
      <g>
       <use style="stroke:#000000;stroke-width:0.8;" x="144.2304" xlink:href="#mf1af17e844" y="298.944"/>
      </g>
     </g>
     <g id="text_2">
      <!-- 2 -->
      <g transform="translate(138.822275 318.861344)scale(0.17 -0.17)">
       <defs>
        <path d="M 1228 531 
L 3431 531 
L 3431 0 
L 469 0 
L 469 531 
Q 828 903 1448 1529 
Q 2069 2156 2228 2338 
Q 2531 2678 2651 2914 
Q 2772 3150 2772 3378 
Q 2772 3750 2511 3984 
Q 2250 4219 1831 4219 
Q 1534 4219 1204 4116 
Q 875 4013 500 3803 
L 500 4441 
Q 881 4594 1212 4672 
Q 1544 4750 1819 4750 
Q 2544 4750 2975 4387 
Q 3406 4025 3406 3419 
Q 3406 3131 3298 2873 
Q 3191 2616 2906 2266 
Q 2828 2175 2409 1742 
Q 1991 1309 1228 531 
z
" id="DejaVuSans-32" transform="scale(0.015625)"/>
       </defs>
       <use xlink:href="#DejaVuSans-32"/>
      </g>
     </g>
    </g>
    <g id="xtick_3">
     <g id="line2d_9">
      <path clip-path="url(#pdb93e43d29)" d="M 230.8608 298.944 
L 230.8608 27.648 
" style="fill:none;stroke:#b0b0b0;stroke-linecap:square;stroke-width:0.8;"/>
     </g>
     <g id="line2d_10">
      <g>
       <use style="stroke:#000000;stroke-width:0.8;" x="230.8608" xlink:href="#mf1af17e844" y="298.944"/>
      </g>
     </g>
     <g id="text_3">
      <!-- 4 -->
      <g transform="translate(225.452675 318.861344)scale(0.17 -0.17)">
       <defs>
        <path d="M 2419 4116 
L 825 1625 
L 2419 1625 
L 2419 4116 
z
M 2253 4666 
L 3047 4666 
L 3047 1625 
L 3713 1625 
L 3713 1100 
L 3047 1100 
L 3047 0 
L 2419 0 
L 2419 1100 
L 313 1100 
L 313 1709 
L 2253 4666 
z
" id="DejaVuSans-34" transform="scale(0.015625)"/>
       </defs>
       <use xlink:href="#DejaVuSans-34"/>
      </g>
     </g>
    </g>
    <g id="xtick_4">
     <g id="line2d_11">
      <path clip-path="url(#pdb93e43d29)" d="M 317.4912 298.944 
L 317.4912 27.648 
" style="fill:none;stroke:#b0b0b0;stroke-linecap:square;stroke-width:0.8;"/>
     </g>
     <g id="line2d_12">
      <g>
       <use style="stroke:#000000;stroke-width:0.8;" x="317.4912" xlink:href="#mf1af17e844" y="298.944"/>
      </g>
     </g>
     <g id="text_4">
      <!-- 6 -->
      <g transform="translate(312.083075 318.861344)scale(0.17 -0.17)">
       <defs>
        <path d="M 2113 2584 
Q 1688 2584 1439 2293 
Q 1191 2003 1191 1497 
Q 1191 994 1439 701 
Q 1688 409 2113 409 
Q 2538 409 2786 701 
Q 3034 994 3034 1497 
Q 3034 2003 2786 2293 
Q 2538 2584 2113 2584 
z
M 3366 4563 
L 3366 3988 
Q 3128 4100 2886 4159 
Q 2644 4219 2406 4219 
Q 1781 4219 1451 3797 
Q 1122 3375 1075 2522 
Q 1259 2794 1537 2939 
Q 1816 3084 2150 3084 
Q 2853 3084 3261 2657 
Q 3669 2231 3669 1497 
Q 3669 778 3244 343 
Q 2819 -91 2113 -91 
Q 1303 -91 875 529 
Q 447 1150 447 2328 
Q 447 3434 972 4092 
Q 1497 4750 2381 4750 
Q 2619 4750 2861 4703 
Q 3103 4656 3366 4563 
z
" id="DejaVuSans-36" transform="scale(0.015625)"/>
       </defs>
       <use xlink:href="#DejaVuSans-36"/>
      </g>
     </g>
    </g>
    <g id="xtick_5">
     <g id="line2d_13">
      <path clip-path="url(#pdb93e43d29)" d="M 100.9152 298.944 
L 100.9152 27.648 
" style="fill:none;stroke:#b0b0b0;stroke-linecap:square;stroke-width:0.8;"/>
     </g>
     <g id="line2d_14">
      <defs>
       <path d="M 0 0 
L 0 2 
" id="meb993ea5bf" style="stroke:#000000;stroke-width:0.6;"/>
      </defs>
      <g>
       <use style="stroke:#000000;stroke-width:0.6;" x="100.9152" xlink:href="#meb993ea5bf" y="298.944"/>
      </g>
     </g>
    </g>
    <g id="xtick_6">
     <g id="line2d_15">
      <path clip-path="url(#pdb93e43d29)" d="M 187.5456 298.944 
L 187.5456 27.648 
" style="fill:none;stroke:#b0b0b0;stroke-linecap:square;stroke-width:0.8;"/>
     </g>
     <g id="line2d_16">
      <g>
       <use style="stroke:#000000;stroke-width:0.6;" x="187.5456" xlink:href="#meb993ea5bf" y="298.944"/>
      </g>
     </g>
    </g>
    <g id="xtick_7">
     <g id="line2d_17">
      <path clip-path="url(#pdb93e43d29)" d="M 274.176 298.944 
L 274.176 27.648 
" style="fill:none;stroke:#b0b0b0;stroke-linecap:square;stroke-width:0.8;"/>
     </g>
     <g id="line2d_18">
      <g>
       <use style="stroke:#000000;stroke-width:0.6;" x="274.176" xlink:href="#meb993ea5bf" y="298.944"/>
      </g>
     </g>
    </g>
    <g id="xtick_8">
     <g id="line2d_19">
      <path clip-path="url(#pdb93e43d29)" d="M 360.8064 298.944 
L 360.8064 27.648 
" style="fill:none;stroke:#b0b0b0;stroke-linecap:square;stroke-width:0.8;"/>
     </g>
     <g id="line2d_20">
      <g>
       <use style="stroke:#000000;stroke-width:0.6;" x="360.8064" xlink:href="#meb993ea5bf" y="298.944"/>
      </g>
     </g>
    </g>
    <g id="text_5">
     <!-- log10(# f-evals / dimension) -->
     <g transform="translate(88.823278 339.314156)scale(0.17 -0.17)">
      <defs>
       <path d="M 603 4863 
L 1178 4863 
L 1178 0 
L 603 0 
L 603 4863 
z
" id="DejaVuSans-6c" transform="scale(0.015625)"/>
       <path d="M 1959 3097 
Q 1497 3097 1228 2736 
Q 959 2375 959 1747 
Q 959 1119 1226 758 
Q 1494 397 1959 397 
Q 2419 397 2687 759 
Q 2956 1122 2956 1747 
Q 2956 2369 2687 2733 
Q 2419 3097 1959 3097 
z
M 1959 3584 
Q 2709 3584 3137 3096 
Q 3566 2609 3566 1747 
Q 3566 888 3137 398 
Q 2709 -91 1959 -91 
Q 1206 -91 779 398 
Q 353 888 353 1747 
Q 353 2609 779 3096 
Q 1206 3584 1959 3584 
z
" id="DejaVuSans-6f" transform="scale(0.015625)"/>
       <path d="M 2906 1791 
Q 2906 2416 2648 2759 
Q 2391 3103 1925 3103 
Q 1463 3103 1205 2759 
Q 947 2416 947 1791 
Q 947 1169 1205 825 
Q 1463 481 1925 481 
Q 2391 481 2648 825 
Q 2906 1169 2906 1791 
z
M 3481 434 
Q 3481 -459 3084 -895 
Q 2688 -1331 1869 -1331 
Q 1566 -1331 1297 -1286 
Q 1028 -1241 775 -1147 
L 775 -588 
Q 1028 -725 1275 -790 
Q 1522 -856 1778 -856 
Q 2344 -856 2625 -561 
Q 2906 -266 2906 331 
L 2906 616 
Q 2728 306 2450 153 
Q 2172 0 1784 0 
Q 1141 0 747 490 
Q 353 981 353 1791 
Q 353 2603 747 3093 
Q 1141 3584 1784 3584 
Q 2172 3584 2450 3431 
Q 2728 3278 2906 2969 
L 2906 3500 
L 3481 3500 
L 3481 434 
z
" id="DejaVuSans-67" transform="scale(0.015625)"/>
       <path d="M 794 531 
L 1825 531 
L 1825 4091 
L 703 3866 
L 703 4441 
L 1819 4666 
L 2450 4666 
L 2450 531 
L 3481 531 
L 3481 0 
L 794 0 
L 794 531 
z
" id="DejaVuSans-31" transform="scale(0.015625)"/>
       <path d="M 1984 4856 
Q 1566 4138 1362 3434 
Q 1159 2731 1159 2009 
Q 1159 1288 1364 580 
Q 1569 -128 1984 -844 
L 1484 -844 
Q 1016 -109 783 600 
Q 550 1309 550 2009 
Q 550 2706 781 3412 
Q 1013 4119 1484 4856 
L 1984 4856 
z
" id="DejaVuSans-28" transform="scale(0.015625)"/>
       <path d="M 3272 2816 
L 2363 2816 
L 2100 1772 
L 3016 1772 
L 3272 2816 
z
M 2803 4594 
L 2478 3297 
L 3391 3297 
L 3719 4594 
L 4219 4594 
L 3897 3297 
L 4872 3297 
L 4872 2816 
L 3775 2816 
L 3519 1772 
L 4513 1772 
L 4513 1294 
L 3397 1294 
L 3072 0 
L 2572 0 
L 2894 1294 
L 1978 1294 
L 1656 0 
L 1153 0 
L 1478 1294 
L 494 1294 
L 494 1772 
L 1594 1772 
L 1856 2816 
L 850 2816 
L 850 3297 
L 1978 3297 
L 2297 4594 
L 2803 4594 
z
" id="DejaVuSans-23" transform="scale(0.015625)"/>
       <path id="DejaVuSans-20" transform="scale(0.015625)"/>
       <path d="M 2375 4863 
L 2375 4384 
L 1825 4384 
Q 1516 4384 1395 4259 
Q 1275 4134 1275 3809 
L 1275 3500 
L 2222 3500 
L 2222 3053 
L 1275 3053 
L 1275 0 
L 697 0 
L 697 3053 
L 147 3053 
L 147 3500 
L 697 3500 
L 697 3744 
Q 697 4328 969 4595 
Q 1241 4863 1831 4863 
L 2375 4863 
z
" id="DejaVuSans-66" transform="scale(0.015625)"/>
       <path d="M 313 2009 
L 1997 2009 
L 1997 1497 
L 313 1497 
L 313 2009 
z
" id="DejaVuSans-2d" transform="scale(0.015625)"/>
       <path d="M 3597 1894 
L 3597 1613 
L 953 1613 
Q 991 1019 1311 708 
Q 1631 397 2203 397 
Q 2534 397 2845 478 
Q 3156 559 3463 722 
L 3463 178 
Q 3153 47 2828 -22 
Q 2503 -91 2169 -91 
Q 1331 -91 842 396 
Q 353 884 353 1716 
Q 353 2575 817 3079 
Q 1281 3584 2069 3584 
Q 2775 3584 3186 3129 
Q 3597 2675 3597 1894 
z
M 3022 2063 
Q 3016 2534 2758 2815 
Q 2500 3097 2075 3097 
Q 1594 3097 1305 2825 
Q 1016 2553 972 2059 
L 3022 2063 
z
" id="DejaVuSans-65" transform="scale(0.015625)"/>
       <path d="M 191 3500 
L 800 3500 
L 1894 563 
L 2988 3500 
L 3597 3500 
L 2284 0 
L 1503 0 
L 191 3500 
z
" id="DejaVuSans-76" transform="scale(0.015625)"/>
       <path d="M 2194 1759 
Q 1497 1759 1228 1600 
Q 959 1441 959 1056 
Q 959 750 1161 570 
Q 1363 391 1709 391 
Q 2188 391 2477 730 
Q 2766 1069 2766 1631 
L 2766 1759 
L 2194 1759 
z
M 3341 1997 
L 3341 0 
L 2766 0 
L 2766 531 
Q 2569 213 2275 61 
Q 1981 -91 1556 -91 
Q 1019 -91 701 211 
Q 384 513 384 1019 
Q 384 1609 779 1909 
Q 1175 2209 1959 2209 
L 2766 2209 
L 2766 2266 
Q 2766 2663 2505 2880 
Q 2244 3097 1772 3097 
Q 1472 3097 1187 3025 
Q 903 2953 641 2809 
L 641 3341 
Q 956 3463 1253 3523 
Q 1550 3584 1831 3584 
Q 2591 3584 2966 3190 
Q 3341 2797 3341 1997 
z
" id="DejaVuSans-61" transform="scale(0.015625)"/>
       <path d="M 2834 3397 
L 2834 2853 
Q 2591 2978 2328 3040 
Q 2066 3103 1784 3103 
Q 1356 3103 1142 2972 
Q 928 2841 928 2578 
Q 928 2378 1081 2264 
Q 1234 2150 1697 2047 
L 1894 2003 
Q 2506 1872 2764 1633 
Q 3022 1394 3022 966 
Q 3022 478 2636 193 
Q 2250 -91 1575 -91 
Q 1294 -91 989 -36 
Q 684 19 347 128 
L 347 722 
Q 666 556 975 473 
Q 1284 391 1588 391 
Q 1994 391 2212 530 
Q 2431 669 2431 922 
Q 2431 1156 2273 1281 
Q 2116 1406 1581 1522 
L 1381 1569 
Q 847 1681 609 1914 
Q 372 2147 372 2553 
Q 372 3047 722 3315 
Q 1072 3584 1716 3584 
Q 2034 3584 2315 3537 
Q 2597 3491 2834 3397 
z
" id="DejaVuSans-73" transform="scale(0.015625)"/>
       <path d="M 1625 4666 
L 2156 4666 
L 531 -594 
L 0 -594 
L 1625 4666 
z
" id="DejaVuSans-2f" transform="scale(0.015625)"/>
       <path d="M 2906 2969 
L 2906 4863 
L 3481 4863 
L 3481 0 
L 2906 0 
L 2906 525 
Q 2725 213 2448 61 
Q 2172 -91 1784 -91 
Q 1150 -91 751 415 
Q 353 922 353 1747 
Q 353 2572 751 3078 
Q 1150 3584 1784 3584 
Q 2172 3584 2448 3432 
Q 2725 3281 2906 2969 
z
M 947 1747 
Q 947 1113 1208 752 
Q 1469 391 1925 391 
Q 2381 391 2643 752 
Q 2906 1113 2906 1747 
Q 2906 2381 2643 2742 
Q 2381 3103 1925 3103 
Q 1469 3103 1208 2742 
Q 947 2381 947 1747 
z
" id="DejaVuSans-64" transform="scale(0.015625)"/>
       <path d="M 603 3500 
L 1178 3500 
L 1178 0 
L 603 0 
L 603 3500 
z
M 603 4863 
L 1178 4863 
L 1178 4134 
L 603 4134 
L 603 4863 
z
" id="DejaVuSans-69" transform="scale(0.015625)"/>
       <path d="M 3328 2828 
Q 3544 3216 3844 3400 
Q 4144 3584 4550 3584 
Q 5097 3584 5394 3201 
Q 5691 2819 5691 2113 
L 5691 0 
L 5113 0 
L 5113 2094 
Q 5113 2597 4934 2840 
Q 4756 3084 4391 3084 
Q 3944 3084 3684 2787 
Q 3425 2491 3425 1978 
L 3425 0 
L 2847 0 
L 2847 2094 
Q 2847 2600 2669 2842 
Q 2491 3084 2119 3084 
Q 1678 3084 1418 2786 
Q 1159 2488 1159 1978 
L 1159 0 
L 581 0 
L 581 3500 
L 1159 3500 
L 1159 2956 
Q 1356 3278 1631 3431 
Q 1906 3584 2284 3584 
Q 2666 3584 2933 3390 
Q 3200 3197 3328 2828 
z
" id="DejaVuSans-6d" transform="scale(0.015625)"/>
       <path d="M 3513 2113 
L 3513 0 
L 2938 0 
L 2938 2094 
Q 2938 2591 2744 2837 
Q 2550 3084 2163 3084 
Q 1697 3084 1428 2787 
Q 1159 2491 1159 1978 
L 1159 0 
L 581 0 
L 581 3500 
L 1159 3500 
L 1159 2956 
Q 1366 3272 1645 3428 
Q 1925 3584 2291 3584 
Q 2894 3584 3203 3211 
Q 3513 2838 3513 2113 
z
" id="DejaVuSans-6e" transform="scale(0.015625)"/>
       <path d="M 513 4856 
L 1013 4856 
Q 1481 4119 1714 3412 
Q 1947 2706 1947 2009 
Q 1947 1309 1714 600 
Q 1481 -109 1013 -844 
L 513 -844 
Q 928 -128 1133 580 
Q 1338 1288 1338 2009 
Q 1338 2731 1133 3434 
Q 928 4138 513 4856 
z
" id="DejaVuSans-29" transform="scale(0.015625)"/>
      </defs>
      <use xlink:href="#DejaVuSans-6c"/>
      <use x="27.783203" xlink:href="#DejaVuSans-6f"/>
      <use x="88.964844" xlink:href="#DejaVuSans-67"/>
      <use x="152.441406" xlink:href="#DejaVuSans-31"/>
      <use x="216.064453" xlink:href="#DejaVuSans-30"/>
      <use x="279.6875" xlink:href="#DejaVuSans-28"/>
      <use x="318.701172" xlink:href="#DejaVuSans-23"/>
      <use x="402.490234" xlink:href="#DejaVuSans-20"/>
      <use x="434.277344" xlink:href="#DejaVuSans-66"/>
      <use x="463.982422" xlink:href="#DejaVuSans-2d"/>
      <use x="500.066406" xlink:href="#DejaVuSans-65"/>
      <use x="561.589844" xlink:href="#DejaVuSans-76"/>
      <use x="620.769531" xlink:href="#DejaVuSans-61"/>
      <use x="682.048828" xlink:href="#DejaVuSans-6c"/>
      <use x="709.832031" xlink:href="#DejaVuSans-73"/>
      <use x="761.931641" xlink:href="#DejaVuSans-20"/>
      <use x="793.71875" xlink:href="#DejaVuSans-2f"/>
      <use x="827.410156" xlink:href="#DejaVuSans-20"/>
      <use x="859.197266" xlink:href="#DejaVuSans-64"/>
      <use x="922.673828" xlink:href="#DejaVuSans-69"/>
      <use x="950.457031" xlink:href="#DejaVuSans-6d"/>
      <use x="1047.869141" xlink:href="#DejaVuSans-65"/>
      <use x="1109.392578" xlink:href="#DejaVuSans-6e"/>
      <use x="1172.771484" xlink:href="#DejaVuSans-73"/>
      <use x="1224.871094" xlink:href="#DejaVuSans-69"/>
      <use x="1252.654297" xlink:href="#DejaVuSans-6f"/>
      <use x="1313.835938" xlink:href="#DejaVuSans-6e"/>
      <use x="1377.214844" xlink:href="#DejaVuSans-29"/>
     </g>
    </g>
   </g>
   <g id="matplotlib.axis_2">
    <g id="ytick_1">
     <g id="line2d_21">
      <path clip-path="url(#pdb93e43d29)" d="M 57.6 298.944 
L 360.8064 298.944 
" style="fill:none;stroke:#b0b0b0;stroke-linecap:square;stroke-width:0.8;"/>
     </g>
     <g id="line2d_22">
      <defs>
       <path d="M 0 0 
L -3.5 0 
" id="mcd1a77cf19" style="stroke:#000000;stroke-width:0.8;"/>
      </defs>
      <g>
       <use style="stroke:#000000;stroke-width:0.8;" x="57.6" xlink:href="#mcd1a77cf19" y="298.944"/>
      </g>
     </g>
     <g id="text_6">
      <!-- 0.0 -->
      <g transform="translate(25.155 305.02275)scale(0.16 -0.16)">
       <defs>
        <path d="M 684 794 
L 1344 794 
L 1344 0 
L 684 0 
L 684 794 
z
" id="DejaVuSans-2e" transform="scale(0.015625)"/>
       </defs>
       <use xlink:href="#DejaVuSans-30"/>
       <use x="63.623047" xlink:href="#DejaVuSans-2e"/>
       <use x="95.410156" xlink:href="#DejaVuSans-30"/>
      </g>
     </g>
    </g>
    <g id="ytick_2">
     <g id="line2d_23">
      <path clip-path="url(#pdb93e43d29)" d="M 57.6 244.6848 
L 360.8064 244.6848 
" style="fill:none;stroke:#b0b0b0;stroke-linecap:square;stroke-width:0.8;"/>
     </g>
     <g id="line2d_24">
      <g>
       <use style="stroke:#000000;stroke-width:0.8;" x="57.6" xlink:href="#mcd1a77cf19" y="244.6848"/>
      </g>
     </g>
     <g id="text_7">
      <!-- 0.2 -->
      <g transform="translate(25.155 250.76355)scale(0.16 -0.16)">
       <use xlink:href="#DejaVuSans-30"/>
       <use x="63.623047" xlink:href="#DejaVuSans-2e"/>
       <use x="95.410156" xlink:href="#DejaVuSans-32"/>
      </g>
     </g>
    </g>
    <g id="ytick_3">
     <g id="line2d_25">
      <path clip-path="url(#pdb93e43d29)" d="M 57.6 190.4256 
L 360.8064 190.4256 
" style="fill:none;stroke:#b0b0b0;stroke-linecap:square;stroke-width:0.8;"/>
     </g>
     <g id="line2d_26">
      <g>
       <use style="stroke:#000000;stroke-width:0.8;" x="57.6" xlink:href="#mcd1a77cf19" y="190.4256"/>
      </g>
     </g>
     <g id="text_8">
      <!-- 0.4 -->
      <g transform="translate(25.155 196.50435)scale(0.16 -0.16)">
       <use xlink:href="#DejaVuSans-30"/>
       <use x="63.623047" xlink:href="#DejaVuSans-2e"/>
       <use x="95.410156" xlink:href="#DejaVuSans-34"/>
      </g>
     </g>
    </g>
    <g id="ytick_4">
     <g id="line2d_27">
      <path clip-path="url(#pdb93e43d29)" d="M 57.6 136.1664 
L 360.8064 136.1664 
" style="fill:none;stroke:#b0b0b0;stroke-linecap:square;stroke-width:0.8;"/>
     </g>
     <g id="line2d_28">
      <g>
       <use style="stroke:#000000;stroke-width:0.8;" x="57.6" xlink:href="#mcd1a77cf19" y="136.1664"/>
      </g>
     </g>
     <g id="text_9">
      <!-- 0.6 -->
      <g transform="translate(25.155 142.24515)scale(0.16 -0.16)">
       <use xlink:href="#DejaVuSans-30"/>
       <use x="63.623047" xlink:href="#DejaVuSans-2e"/>
       <use x="95.410156" xlink:href="#DejaVuSans-36"/>
      </g>
     </g>
    </g>
    <g id="ytick_5">
     <g id="line2d_29">
      <path clip-path="url(#pdb93e43d29)" d="M 57.6 81.9072 
L 360.8064 81.9072 
" style="fill:none;stroke:#b0b0b0;stroke-linecap:square;stroke-width:0.8;"/>
     </g>
     <g id="line2d_30">
      <g>
       <use style="stroke:#000000;stroke-width:0.8;" x="57.6" xlink:href="#mcd1a77cf19" y="81.9072"/>
      </g>
     </g>
     <g id="text_10">
      <!-- 0.8 -->
      <g transform="translate(25.155 87.98595)scale(0.16 -0.16)">
       <defs>
        <path d="M 2034 2216 
Q 1584 2216 1326 1975 
Q 1069 1734 1069 1313 
Q 1069 891 1326 650 
Q 1584 409 2034 409 
Q 2484 409 2743 651 
Q 3003 894 3003 1313 
Q 3003 1734 2745 1975 
Q 2488 2216 2034 2216 
z
M 1403 2484 
Q 997 2584 770 2862 
Q 544 3141 544 3541 
Q 544 4100 942 4425 
Q 1341 4750 2034 4750 
Q 2731 4750 3128 4425 
Q 3525 4100 3525 3541 
Q 3525 3141 3298 2862 
Q 3072 2584 2669 2484 
Q 3125 2378 3379 2068 
Q 3634 1759 3634 1313 
Q 3634 634 3220 271 
Q 2806 -91 2034 -91 
Q 1263 -91 848 271 
Q 434 634 434 1313 
Q 434 1759 690 2068 
Q 947 2378 1403 2484 
z
M 1172 3481 
Q 1172 3119 1398 2916 
Q 1625 2713 2034 2713 
Q 2441 2713 2670 2916 
Q 2900 3119 2900 3481 
Q 2900 3844 2670 4047 
Q 2441 4250 2034 4250 
Q 1625 4250 1398 4047 
Q 1172 3844 1172 3481 
z
" id="DejaVuSans-38" transform="scale(0.015625)"/>
       </defs>
       <use xlink:href="#DejaVuSans-30"/>
       <use x="63.623047" xlink:href="#DejaVuSans-2e"/>
       <use x="95.410156" xlink:href="#DejaVuSans-38"/>
      </g>
     </g>
    </g>
    <g id="ytick_6">
     <g id="line2d_31">
      <path clip-path="url(#pdb93e43d29)" d="M 57.6 27.648 
L 360.8064 27.648 
" style="fill:none;stroke:#b0b0b0;stroke-linecap:square;stroke-width:0.8;"/>
     </g>
     <g id="line2d_32">
      <g>
       <use style="stroke:#000000;stroke-width:0.8;" x="57.6" xlink:href="#mcd1a77cf19" y="27.648"/>
      </g>
     </g>
     <g id="text_11">
      <!-- 1.0 -->
      <g transform="translate(25.155 33.72675)scale(0.16 -0.16)">
       <use xlink:href="#DejaVuSans-31"/>
       <use x="63.623047" xlink:href="#DejaVuSans-2e"/>
       <use x="95.410156" xlink:href="#DejaVuSans-30"/>
      </g>
     </g>
    </g>
    <g id="text_12">
     <!-- Fraction of function,target pairs -->
     <g transform="translate(17.619531 297.681)rotate(-90)scale(0.17 -0.17)">
      <defs>
       <path d="M 628 4666 
L 3309 4666 
L 3309 4134 
L 1259 4134 
L 1259 2759 
L 3109 2759 
L 3109 2228 
L 1259 2228 
L 1259 0 
L 628 0 
L 628 4666 
z
" id="DejaVuSans-46" transform="scale(0.015625)"/>
       <path d="M 2631 2963 
Q 2534 3019 2420 3045 
Q 2306 3072 2169 3072 
Q 1681 3072 1420 2755 
Q 1159 2438 1159 1844 
L 1159 0 
L 581 0 
L 581 3500 
L 1159 3500 
L 1159 2956 
Q 1341 3275 1631 3429 
Q 1922 3584 2338 3584 
Q 2397 3584 2469 3576 
Q 2541 3569 2628 3553 
L 2631 2963 
z
" id="DejaVuSans-72" transform="scale(0.015625)"/>
       <path d="M 3122 3366 
L 3122 2828 
Q 2878 2963 2633 3030 
Q 2388 3097 2138 3097 
Q 1578 3097 1268 2742 
Q 959 2388 959 1747 
Q 959 1106 1268 751 
Q 1578 397 2138 397 
Q 2388 397 2633 464 
Q 2878 531 3122 666 
L 3122 134 
Q 2881 22 2623 -34 
Q 2366 -91 2075 -91 
Q 1284 -91 818 406 
Q 353 903 353 1747 
Q 353 2603 823 3093 
Q 1294 3584 2113 3584 
Q 2378 3584 2631 3529 
Q 2884 3475 3122 3366 
z
" id="DejaVuSans-63" transform="scale(0.015625)"/>
       <path d="M 1172 4494 
L 1172 3500 
L 2356 3500 
L 2356 3053 
L 1172 3053 
L 1172 1153 
Q 1172 725 1289 603 
Q 1406 481 1766 481 
L 2356 481 
L 2356 0 
L 1766 0 
Q 1100 0 847 248 
Q 594 497 594 1153 
L 594 3053 
L 172 3053 
L 172 3500 
L 594 3500 
L 594 4494 
L 1172 4494 
z
" id="DejaVuSans-74" transform="scale(0.015625)"/>
       <path d="M 544 1381 
L 544 3500 
L 1119 3500 
L 1119 1403 
Q 1119 906 1312 657 
Q 1506 409 1894 409 
Q 2359 409 2629 706 
Q 2900 1003 2900 1516 
L 2900 3500 
L 3475 3500 
L 3475 0 
L 2900 0 
L 2900 538 
Q 2691 219 2414 64 
Q 2138 -91 1772 -91 
Q 1169 -91 856 284 
Q 544 659 544 1381 
z
M 1991 3584 
L 1991 3584 
z
" id="DejaVuSans-75" transform="scale(0.015625)"/>
       <path d="M 750 794 
L 1409 794 
L 1409 256 
L 897 -744 
L 494 -744 
L 750 256 
L 750 794 
z
" id="DejaVuSans-2c" transform="scale(0.015625)"/>
       <path d="M 1159 525 
L 1159 -1331 
L 581 -1331 
L 581 3500 
L 1159 3500 
L 1159 2969 
Q 1341 3281 1617 3432 
Q 1894 3584 2278 3584 
Q 2916 3584 3314 3078 
Q 3713 2572 3713 1747 
Q 3713 922 3314 415 
Q 2916 -91 2278 -91 
Q 1894 -91 1617 61 
Q 1341 213 1159 525 
z
M 3116 1747 
Q 3116 2381 2855 2742 
Q 2594 3103 2138 3103 
Q 1681 3103 1420 2742 
Q 1159 2381 1159 1747 
Q 1159 1113 1420 752 
Q 1681 391 2138 391 
Q 2594 391 2855 752 
Q 3116 1113 3116 1747 
z
" id="DejaVuSans-70" transform="scale(0.015625)"/>
      </defs>
      <use xlink:href="#DejaVuSans-46"/>
      <use x="50.269531" xlink:href="#DejaVuSans-72"/>
      <use x="91.382812" xlink:href="#DejaVuSans-61"/>
      <use x="152.662109" xlink:href="#DejaVuSans-63"/>
      <use x="207.642578" xlink:href="#DejaVuSans-74"/>
      <use x="246.851562" xlink:href="#DejaVuSans-69"/>
      <use x="274.634766" xlink:href="#DejaVuSans-6f"/>
      <use x="335.816406" xlink:href="#DejaVuSans-6e"/>
      <use x="399.195312" xlink:href="#DejaVuSans-20"/>
      <use x="430.982422" xlink:href="#DejaVuSans-6f"/>
      <use x="492.164062" xlink:href="#DejaVuSans-66"/>
      <use x="527.369141" xlink:href="#DejaVuSans-20"/>
      <use x="559.15625" xlink:href="#DejaVuSans-66"/>
      <use x="594.361328" xlink:href="#DejaVuSans-75"/>
      <use x="657.740234" xlink:href="#DejaVuSans-6e"/>
      <use x="721.119141" xlink:href="#DejaVuSans-63"/>
      <use x="776.099609" xlink:href="#DejaVuSans-74"/>
      <use x="815.308594" xlink:href="#DejaVuSans-69"/>
      <use x="843.091797" xlink:href="#DejaVuSans-6f"/>
      <use x="904.273438" xlink:href="#DejaVuSans-6e"/>
      <use x="967.652344" xlink:href="#DejaVuSans-2c"/>
      <use x="999.439453" xlink:href="#DejaVuSans-74"/>
      <use x="1038.648438" xlink:href="#DejaVuSans-61"/>
      <use x="1099.927734" xlink:href="#DejaVuSans-72"/>
      <use x="1139.291016" xlink:href="#DejaVuSans-67"/>
      <use x="1202.767578" xlink:href="#DejaVuSans-65"/>
      <use x="1264.291016" xlink:href="#DejaVuSans-74"/>
      <use x="1303.5" xlink:href="#DejaVuSans-20"/>
      <use x="1335.287109" xlink:href="#DejaVuSans-70"/>
      <use x="1398.763672" xlink:href="#DejaVuSans-61"/>
      <use x="1460.042969" xlink:href="#DejaVuSans-69"/>
      <use x="1487.826172" xlink:href="#DejaVuSans-72"/>
      <use x="1528.939453" xlink:href="#DejaVuSans-73"/>
     </g>
    </g>
   </g>
   <g id="line2d_33">
    <defs>
     <path d="M 0 1.5 
C 0.397805 1.5 0.77937 1.341951 1.06066 1.06066 
C 1.341951 0.77937 1.5 0.397805 1.5 0 
C 1.5 -0.397805 1.341951 -0.77937 1.06066 -1.06066 
C 0.77937 -1.341951 0.397805 -1.5 0 -1.5 
C -0.397805 -1.5 -0.77937 -1.341951 -1.06066 -1.06066 
C -1.341951 -0.77937 -1.5 -0.397805 -1.5 0 
C -1.5 0.397805 -1.341951 0.77937 -1.06066 1.06066 
C -0.77937 1.341951 -0.397805 1.5 0 1.5 
z
" id="mf0d01f27bd" style="stroke:#f5deb3;"/>
    </defs>
    <g>
     <use style="fill:#f5deb3;stroke:#f5deb3;" x="224.721843" xlink:href="#mf0d01f27bd" y="27.648"/>
     <use style="fill:#f5deb3;stroke:#f5deb3;" x="224.721843" xlink:href="#mf0d01f27bd" y="27.648"/>
    </g>
   </g>
   <g id="line2d_34">
    <defs>
     <path d="M 0 1.5 
C 0.397805 1.5 0.77937 1.341951 1.06066 1.06066 
C 1.341951 0.77937 1.5 0.397805 1.5 0 
C 1.5 -0.397805 1.341951 -0.77937 1.06066 -1.06066 
C 0.77937 -1.341951 0.397805 -1.5 0 -1.5 
C -0.397805 -1.5 -0.77937 -1.341951 -1.06066 -1.06066 
C -1.341951 -0.77937 -1.5 -0.397805 -1.5 0 
C -1.5 0.397805 -1.341951 0.77937 -1.06066 1.06066 
C -0.77937 1.341951 -0.397805 1.5 0 1.5 
z
" id="m00c8ea5c5f" style="stroke:#000080;"/>
    </defs>
    <g>
     <use style="fill:#000080;stroke:#000080;" x="250.519213" xlink:href="#m00c8ea5c5f" y="261.707294"/>
     <use style="fill:#000080;stroke:#000080;" x="250.519213" xlink:href="#m00c8ea5c5f" y="261.707294"/>
    </g>
   </g>
   <g id="line2d_35">
    <path d="M 14.2848 298.944 
L 14.2848 291.496659 
L 27.323974 291.496659 
L 27.323974 290.078118 
L 34.951403 290.078118 
L 34.951403 288.304941 
L 44.560826 288.304941 
L 44.560826 287.241035 
L 50.890391 287.241035 
L 50.890391 286.8864 
L 57.6 286.8864 
L 57.6 286.531765 
L 59.392932 286.531765 
L 59.392932 286.177129 
L 62.535479 286.177129 
L 62.535479 285.822494 
L 63.929565 285.822494 
L 63.929565 285.467859 
L 65.227428 285.467859 
L 65.227428 284.758588 
L 66.441498 284.758588 
L 66.441498 284.403953 
L 67.581941 284.403953 
L 67.581941 284.049318 
L 68.65718 284.049318 
L 68.65718 283.340047 
L 73.268314 283.340047 
L 73.268314 282.985412 
L 77.628862 282.985412 
L 77.628862 282.630776 
L 78.88343 282.630776 
L 78.88343 281.566871 
L 82.211771 281.566871 
L 82.211771 281.212235 
L 87.495981 281.212235 
L 87.495981 280.8576 
L 107.378656 280.8576 
L 107.378656 280.502965 
L 107.904887 280.502965 
L 107.904887 280.148329 
L 110.562208 280.148329 
L 110.562208 279.793694 
L 113.088217 279.793694 
L 113.088217 279.439059 
L 117.1475 279.439059 
L 117.1475 279.084424 
L 120.879082 279.084424 
L 120.879082 278.729788 
L 127.412117 278.729788 
L 127.412117 278.020518 
L 131.078016 278.020518 
L 131.078016 277.665882 
L 131.228811 277.665882 
L 131.228811 276.956612 
L 136.499223 276.956612 
L 136.499223 276.601976 
L 137.331728 276.601976 
L 137.331728 276.247341 
L 140.565927 276.247341 
L 140.565927 275.892706 
L 141.458695 275.892706 
L 141.458695 275.538071 
L 147.518533 275.538071 
L 147.518533 275.183435 
L 153.52493 275.183435 
L 153.52493 274.8288 
L 155.151225 274.8288 
L 155.151225 274.474165 
L 158.214248 274.474165 
L 158.214248 274.119529 
L 165.312505 274.119529 
L 165.312505 273.764894 
L 168.090128 273.764894 
L 168.090128 273.410259 
L 168.258701 273.410259 
L 168.258701 273.055624 
L 171.248949 273.055624 
L 171.248949 272.346353 
L 172.90924 272.346353 
L 172.90924 271.637082 
L 176.206783 271.637082 
L 176.206783 271.282447 
L 176.425485 271.282447 
L 176.425485 270.927812 
L 177.800876 270.927812 
L 177.800876 270.573176 
L 183.810136 270.573176 
L 183.810136 270.218541 
L 185.970927 270.218541 
L 185.970927 269.863906 
L 191.281667 269.863906 
L 191.281667 269.509271 
L 192.334357 269.509271 
L 192.334357 269.154635 
L 196.533492 269.154635 
L 196.533492 268.8 
L 198.086811 268.8 
L 198.086811 268.445365 
L 200.043761 268.445365 
L 200.043761 268.090729 
L 202.552185 268.090729 
L 202.552185 267.736094 
L 203.21146 267.736094 
L 203.21146 267.381459 
L 205.101039 267.381459 
L 205.101039 267.026824 
L 205.282162 267.026824 
L 205.282162 266.672188 
L 206.691995 266.672188 
L 206.691995 266.317553 
L 210.34689 266.317553 
L 210.34689 265.962918 
L 215.234296 265.962918 
L 215.234296 265.608282 
L 217.524706 265.608282 
L 217.524706 265.253647 
L 222.174271 265.253647 
L 222.174271 264.899012 
L 222.886027 264.899012 
L 222.886027 264.544376 
L 223.520213 264.544376 
L 223.520213 264.189741 
L 227.635729 264.189741 
L 227.635729 263.480471 
L 232.258151 263.480471 
L 232.258151 263.125835 
L 237.913562 263.125835 
L 237.913562 262.7712 
L 240.199467 262.7712 
L 240.199467 262.416565 
L 249.059634 262.416565 
L 249.059634 262.061929 
L 250.519213 262.061929 
L 250.519213 261.707294 
L 360.8064 261.707294 
L 360.8064 261.707294 
" style="fill:none;stroke:#000080;stroke-linecap:square;stroke-width:1.5;"/>
   </g>
   <g id="line2d_36">
    <defs>
     <path d="M 0 6 
C 1.591219 6 3.117479 5.367802 4.242641 4.242641 
C 5.367802 3.117479 6 1.591219 6 0 
C 6 -1.591219 5.367802 -3.117479 4.242641 -4.242641 
C 3.117479 -5.367802 1.591219 -6 0 -6 
C -1.591219 -6 -3.117479 -5.367802 -4.242641 -4.242641 
C -5.367802 -3.117479 -6 -1.591219 -6 0 
C -6 1.591219 -5.367802 3.117479 -4.242641 4.242641 
C -3.117479 5.367802 -1.591219 6 0 6 
z
" id="mc6556a6f90" style="stroke:#000080;stroke-width:1.5;"/>
    </defs>
    <g>
     <use style="fill-opacity:0;stroke:#000080;stroke-width:1.5;" x="107.378656" xlink:href="#mc6556a6f90" y="280.502965"/>
     <use style="fill-opacity:0;stroke:#000080;stroke-width:1.5;" x="192.334357" xlink:href="#mc6556a6f90" y="269.509271"/>
     <use style="fill-opacity:0;stroke:#000080;stroke-width:1.5;" x="250.519213" xlink:href="#mc6556a6f90" y="262.061929"/>
     <use style="fill-opacity:0;stroke:#000080;stroke-width:1.5;" x="250.519213" xlink:href="#mc6556a6f90" y="261.707294"/>
     <use style="fill-opacity:0;stroke:#000080;stroke-width:1.5;" x="250.519213" xlink:href="#mc6556a6f90" y="261.707294"/>
     <use style="fill-opacity:0;stroke:#000080;stroke-width:1.5;" x="360.8064" xlink:href="#mc6556a6f90" y="261.707294"/>
    </g>
   </g>
   <g id="line2d_37">
    <path style="fill:none;stroke:#000080;stroke-linecap:square;stroke-width:1.5;"/>
    <g/>
   </g>
   <g id="line2d_38">
    <path clip-path="url(#pdb93e43d29)" d="M 213.633352 265.962918 
" style="fill:none;stroke:#000080;stroke-linecap:square;stroke-width:1.5;"/>
    <defs>
     <path d="M -12 12 
L 12 -12 
M -12 -12 
L 12 12 
" id="m68dab20430" style="stroke:#000080;"/>
    </defs>
    <g clip-path="url(#pdb93e43d29)">
     <use style="fill:#000080;stroke:#000080;" x="213.633352" xlink:href="#m68dab20430" y="265.962918"/>
    </g>
   </g>
   <g id="line2d_39">
    <defs>
     <path d="M 0 1.5 
C 0.397805 1.5 0.77937 1.341951 1.06066 1.06066 
C 1.341951 0.77937 1.5 0.397805 1.5 0 
C 1.5 -0.397805 1.341951 -0.77937 1.06066 -1.06066 
C 0.77937 -1.341951 0.397805 -1.5 0 -1.5 
C -0.397805 -1.5 -0.77937 -1.341951 -1.06066 -1.06066 
C -1.341951 -0.77937 -1.5 -0.397805 -1.5 0 
C -1.5 0.397805 -1.341951 0.77937 -1.06066 1.06066 
C -0.77937 1.341951 -0.397805 1.5 0 1.5 
z
" id="mf4df36591c" style="stroke:#ff00ff;"/>
    </defs>
    <g>
     <use style="fill:#ff00ff;stroke:#ff00ff;" x="321.68014" xlink:href="#mf4df36591c" y="96.801882"/>
     <use style="fill:#ff00ff;stroke:#ff00ff;" x="321.68014" xlink:href="#mf4df36591c" y="96.801882"/>
    </g>
   </g>
   <g id="line2d_40">
    <path d="M 14.2848 298.944 
L 14.2848 293.979106 
L 27.323974 293.979106 
L 27.323974 291.851294 
L 34.951403 291.851294 
L 34.951403 289.014212 
L 40.363149 289.014212 
L 40.363149 287.950306 
L 44.560826 287.950306 
L 44.560826 287.241035 
L 47.990577 287.241035 
L 47.990577 285.113224 
L 53.402323 285.113224 
L 53.402323 284.758588 
L 59.392932 284.758588 
L 59.392932 284.049318 
L 62.535479 284.049318 
L 62.535479 283.694682 
L 75.574654 283.694682 
L 75.574654 282.985412 
L 76.284608 282.985412 
L 76.284608 282.276141 
L 77.628862 282.276141 
L 77.628862 281.566871 
L 80.059535 281.566871 
L 80.059535 281.212235 
L 82.211771 281.212235 
L 82.211771 280.502965 
L 86.307488 280.502965 
L 86.307488 280.148329 
L 87.876026 280.148329 
L 87.876026 279.793694 
L 101.653002 279.793694 
L 101.653002 279.439059 
L 115.050503 279.439059 
L 115.050503 279.084424 
L 115.402131 279.084424 
L 115.402131 278.729788 
L 116.746385 278.729788 
L 116.746385 278.375153 
L 116.988079 278.375153 
L 116.988079 278.020518 
L 129.987186 278.020518 
L 129.987186 277.665882 
L 130.384069 277.665882 
L 130.46245 276.956612 
L 131.71071 276.956612 
L 131.783764 276.247341 
L 132.393534 276.247341 
L 132.393534 275.892706 
L 132.534182 275.892706 
L 132.534182 275.183435 
L 132.915628 275.183435 
L 132.915628 274.474165 
L 133.05244 274.474165 
L 133.05244 274.119529 
L 135.449003 274.119529 
L 135.449003 273.764894 
L 136.242113 273.764894 
L 136.242113 273.410259 
L 139.018248 273.410259 
L 139.018248 273.055624 
L 139.166565 273.055624 
L 139.166565 272.700988 
L 139.459738 272.700988 
L 139.459738 272.346353 
L 139.748412 272.346353 
L 139.748412 271.991718 
L 140.14993 271.991718 
L 140.219905 271.282447 
L 141.305488 271.282447 
L 141.349389 270.573176 
L 141.889677 270.573176 
L 141.932237 269.863906 
L 142.290162 269.863906 
L 142.290162 269.509271 
L 142.905644 269.509271 
L 142.905644 269.154635 
L 143.146307 269.154635 
L 143.146307 268.8 
L 143.324805 268.8 
L 143.324805 268.445365 
L 143.579681 268.445365 
L 143.579681 268.090729 
L 143.773417 268.090729 
L 143.773417 267.736094 
L 144.06033 267.736094 
L 144.117191 267.026824 
L 144.249202 267.026824 
L 144.249202 266.672188 
L 145.184016 266.672188 
L 145.184016 266.317553 
L 145.379694 266.317553 
L 145.379694 265.962918 
L 145.83427 265.962918 
L 145.83427 265.608282 
L 146.125662 265.608282 
L 146.227438 264.899012 
L 146.462796 264.899012 
L 146.462796 264.544376 
L 146.744684 264.544376 
L 146.744684 264.189741 
L 147.135588 264.189741 
L 147.135588 263.835106 
L 147.328035 263.835106 
L 147.328035 263.480471 
L 147.73837 263.480471 
L 147.73837 263.125835 
L 148.03267 263.125835 
L 148.03267 262.7712 
L 148.261802 262.7712 
L 148.322436 261.707294 
L 148.503173 261.707294 
L 148.503173 261.352659 
L 148.652472 261.352659 
L 148.652472 260.998024 
L 148.888912 260.998024 
L 148.903591 260.288753 
L 149.35306 260.288753 
L 149.438827 259.224847 
L 150.028491 259.224847 
L 150.028491 258.870212 
L 150.573397 258.870212 
L 150.573397 258.515576 
L 150.919305 258.515576 
L 150.919305 258.160941 
L 151.089903 258.160941 
L 151.116012 257.451671 
L 151.233056 257.451671 
L 151.233056 257.097035 
L 151.643413 257.097035 
L 151.643413 256.7424 
L 152.279463 256.7424 
L 152.279463 256.387765 
L 152.763699 256.387765 
L 152.763699 256.033129 
L 153.189104 256.033129 
L 153.189104 255.678494 
L 153.616527 255.678494 
L 153.616527 255.323859 
L 154.168026 255.323859 
L 154.168026 254.969224 
L 156.195443 254.969224 
L 156.195443 254.614588 
L 157.316545 254.614588 
L 157.410135 253.550682 
L 160.430923 253.550682 
L 160.430923 253.196047 
L 161.117894 253.196047 
L 161.117894 252.841412 
L 164.484939 252.841412 
L 164.484939 252.486776 
L 165.743021 252.486776 
L 165.743021 252.132141 
L 168.948638 252.132141 
L 168.948638 251.777506 
L 176.795538 251.777506 
L 176.795538 251.422871 
L 178.495268 251.422871 
L 178.495268 251.068235 
L 189.133917 251.068235 
L 189.133917 250.7136 
L 189.410222 250.7136 
L 189.410222 250.358965 
L 190.577703 250.358965 
L 190.577703 250.004329 
L 190.989455 250.004329 
L 190.989455 249.649694 
L 194.514518 249.649694 
L 194.514518 249.295059 
L 196.432895 249.295059 
L 196.432895 248.940424 
L 196.914586 248.940424 
L 196.914586 248.585788 
L 197.049004 248.585788 
L 197.049004 248.231153 
L 197.237612 248.231153 
L 197.237612 247.876518 
L 197.561813 247.876518 
L 197.561813 247.521882 
L 198.492724 247.521882 
L 198.522135 246.812612 
L 198.627845 246.812612 
L 198.675794 246.103341 
L 198.860192 246.103341 
L 198.961973 245.394071 
L 199.066266 245.394071 
L 199.169984 244.6848 
L 199.330531 244.6848 
L 199.330531 244.330165 
L 199.526569 244.330165 
L 199.526569 243.975529 
L 205.167506 243.975529 
L 205.167506 243.620894 
L 205.606156 243.620894 
L 205.606156 243.266259 
L 206.768659 243.266259 
L 206.768659 242.556988 
L 211.749811 242.556988 
L 211.857052 241.493082 
L 211.876673 241.493082 
L 211.876673 241.138447 
L 212.005761 241.138447 
L 212.042116 240.429176 
L 212.161947 240.429176 
L 212.161947 240.074541 
L 212.36518 240.074541 
L 212.36518 239.719906 
L 213.54194 239.719906 
L 213.54194 239.365271 
L 213.941982 239.365271 
L 213.941982 239.010635 
L 214.869443 239.010635 
L 214.968219 237.946729 
L 215.023308 237.946729 
L 215.023308 237.592094 
L 215.341055 237.592094 
L 215.450626 236.882824 
L 215.57356 236.882824 
L 215.57356 236.528188 
L 221.660438 236.528188 
L 221.660438 236.173553 
L 224.436298 236.173553 
L 224.537141 234.045741 
L 224.625919 234.045741 
L 224.625919 233.691106 
L 225.839023 233.691106 
L 225.945345 232.272565 
L 226.159584 232.272565 
L 226.159584 231.917929 
L 229.067849 231.917929 
L 229.163413 228.016941 
L 229.192419 228.016941 
L 229.297782 224.825224 
L 229.314128 224.825224 
L 229.391782 223.761318 
L 231.046491 223.761318 
L 231.149772 219.151059 
L 231.161624 219.151059 
L 231.248251 215.959341 
L 232.019117 215.959341 
L 232.023008 215.250071 
L 232.83126 215.250071 
L 232.83126 214.895435 
L 233.753894 214.895435 
L 233.776462 213.831529 
L 233.986973 213.831529 
L 234.087391 212.412988 
L 234.407914 212.412988 
L 234.410873 211.703718 
L 235.13747 211.703718 
L 235.227471 210.994447 
L 235.251468 210.994447 
L 235.251468 210.639812 
L 236.70238 210.639812 
L 236.784252 208.512 
L 237.572629 208.512 
L 237.609591 207.448094 
L 237.697297 207.448094 
L 237.77496 206.029553 
L 241.002951 206.029553 
L 241.021265 205.320282 
L 241.269316 205.320282 
L 241.269316 204.965647 
L 241.416828 204.965647 
L 241.416828 204.611012 
L 241.695952 204.611012 
L 241.695952 204.256376 
L 241.812444 204.256376 
L 241.812444 203.901741 
L 241.960675 203.901741 
L 241.960675 203.547106 
L 242.102884 203.547106 
L 242.102884 203.192471 
L 243.03165 203.192471 
L 243.138613 200.710024 
L 243.153592 200.710024 
L 243.159169 199.646118 
L 243.276402 199.646118 
L 243.309042 198.582212 
L 243.987714 198.582212 
L 244.050895 196.099765 
L 244.122139 196.099765 
L 244.130317 195.390494 
L 244.472725 195.390494 
L 244.472725 195.035859 
L 244.897439 195.035859 
L 244.916251 194.326588 
L 245.219797 194.326588 
L 245.219797 193.971953 
L 245.413109 193.971953 
L 245.413109 193.617318 
L 245.541895 193.617318 
L 245.603597 192.198776 
L 247.094608 192.198776 
L 247.094608 191.844141 
L 249.622655 191.844141 
L 249.682026 190.070965 
L 249.746449 190.070965 
L 249.78164 189.361694 
L 250.207961 189.361694 
L 250.207961 189.007059 
L 250.965404 189.007059 
L 251.072154 185.815341 
L 251.134109 185.815341 
L 251.222646 184.751435 
L 251.255947 184.751435 
L 251.255947 184.3968 
L 251.389385 184.3968 
L 251.420501 183.687529 
L 251.589753 183.687529 
L 251.668461 180.850447 
L 251.767343 180.850447 
L 251.767343 180.495812 
L 252.222106 180.495812 
L 252.222106 180.141176 
L 252.554785 180.141176 
L 252.64966 179.077271 
L 252.794188 179.077271 
L 252.836992 177.658729 
L 252.905591 177.658729 
L 252.905591 177.304094 
L 253.686313 177.304094 
L 253.721613 176.594824 
L 254.089573 176.594824 
L 254.089573 176.240188 
L 255.818703 176.240188 
L 255.869498 175.176282 
L 256.130765 175.176282 
L 256.130765 174.821647 
L 256.538266 174.821647 
L 256.61311 171.629929 
L 256.658753 171.629929 
L 256.750087 169.147482 
L 256.778947 169.147482 
L 256.823952 167.728941 
L 257.000234 167.728941 
L 257.021504 166.3104 
L 257.786472 166.3104 
L 257.786472 165.955765 
L 257.964958 165.955765 
L 258.02254 165.246494 
L 260.099345 165.246494 
L 260.17873 164.537224 
L 260.242439 164.537224 
L 260.251945 163.118682 
L 260.386998 163.118682 
L 260.459019 161.700141 
L 260.794405 161.700141 
L 260.880415 159.926965 
L 260.943582 159.926965 
L 261.050055 158.153788 
L 261.10919 158.153788 
L 261.10919 157.799153 
L 261.813391 157.799153 
L 261.920443 156.380612 
L 261.965896 156.380612 
L 262.068399 155.316706 
L 262.479992 155.316706 
L 262.479992 154.962071 
L 262.69237 154.962071 
L 262.69237 154.607435 
L 263.836335 154.607435 
L 263.836335 154.2528 
L 264.030565 154.2528 
L 264.088638 153.543529 
L 264.312957 153.543529 
L 264.421199 151.770353 
L 264.448257 151.770353 
L 264.556542 149.642541 
L 264.582936 149.642541 
L 264.582936 149.287906 
L 265.078771 149.287906 
L 265.137229 148.578635 
L 265.266205 148.578635 
L 265.266205 148.224 
L 265.862826 148.224 
L 265.910847 147.514729 
L 266.806656 147.514729 
L 266.852163 146.450824 
L 267.055993 146.450824 
L 267.060058 145.741553 
L 267.235179 145.741553 
L 267.344934 144.677647 
L 267.353695 144.677647 
L 267.411219 143.613741 
L 267.465638 143.613741 
L 267.523464 142.904471 
L 267.651949 142.904471 
L 267.651949 142.549835 
L 267.969163 142.549835 
L 267.969163 142.1952 
L 269.113298 142.1952 
L 269.113298 141.840565 
L 269.398841 141.840565 
L 269.457628 141.131294 
L 269.694585 141.131294 
L 269.694585 140.776659 
L 269.842603 140.776659 
L 269.922724 139.712753 
L 269.982367 139.712753 
L 270.055972 137.230306 
L 270.151507 137.230306 
L 270.151507 136.875671 
L 271.848013 136.875671 
L 271.886125 136.1664 
L 272.085442 136.1664 
L 272.184513 134.393224 
L 272.206793 134.393224 
L 272.286934 133.329318 
L 272.545856 133.329318 
L 272.545856 132.974682 
L 273.772081 132.974682 
L 273.854047 132.265412 
L 273.914783 132.265412 
L 273.914783 131.910776 
L 274.141901 131.910776 
L 274.241501 128.364424 
L 275.732185 128.364424 
L 275.732185 128.009788 
L 275.918073 128.009788 
L 276.024277 126.236612 
L 276.065529 126.236612 
L 276.065529 125.881976 
L 277.584106 125.881976 
L 277.689933 123.754165 
L 278.799102 123.754165 
L 278.857832 123.044894 
L 278.943701 123.044894 
L 279.051621 122.335624 
L 279.120492 122.335624 
L 279.226226 120.562447 
L 279.707074 120.562447 
L 279.707074 120.207812 
L 280.426741 120.207812 
L 280.426741 119.853176 
L 280.556663 119.853176 
L 280.589011 118.789271 
L 281.627763 118.789271 
L 281.677131 117.725365 
L 281.782435 117.725365 
L 281.886679 115.952188 
L 282.292047 115.952188 
L 282.292047 115.597553 
L 282.863176 115.597553 
L 282.863176 115.242918 
L 283.103376 115.242918 
L 283.149222 114.179012 
L 284.146186 114.179012 
L 284.230293 113.469741 
L 284.259701 113.469741 
L 284.259701 113.115106 
L 285.24862 113.115106 
L 285.333938 111.341929 
L 285.437375 111.341929 
L 285.437375 110.987294 
L 286.18623 110.987294 
L 286.286608 109.568753 
L 286.363715 109.568753 
L 286.363715 109.214118 
L 287.245193 109.214118 
L 287.249146 108.504847 
L 287.403752 108.504847 
L 287.403752 108.150212 
L 288.198487 108.150212 
L 288.234783 107.440941 
L 288.950172 107.440941 
L 288.950172 107.086306 
L 289.116729 107.086306 
L 289.116729 106.731671 
L 290.677551 106.731671 
L 290.731503 105.667765 
L 291.458252 105.667765 
L 291.530835 104.958494 
L 291.58655 104.958494 
L 291.58655 104.603859 
L 292.212529 104.603859 
L 292.306095 103.894588 
L 292.346236 103.894588 
L 292.346236 103.539953 
L 296.149618 103.539953 
L 296.233042 102.830682 
L 296.793881 102.830682 
L 296.793881 102.476047 
L 297.262736 102.476047 
L 297.314982 101.766776 
L 300.336198 101.766776 
L 300.336198 101.412141 
L 300.841961 101.412141 
L 300.85318 100.702871 
L 301.24236 100.702871 
L 301.24647 99.9936 
L 303.412386 99.9936 
L 303.474592 99.284329 
L 305.334574 99.284329 
L 305.334574 98.929694 
L 305.705047 98.929694 
L 305.705047 98.575059 
L 306.709718 98.575059 
L 306.709718 98.220424 
L 307.665418 98.220424 
L 307.764744 97.511153 
L 308.713787 97.511153 
L 308.713787 97.156518 
L 321.68014 97.156518 
L 321.68014 96.801882 
L 360.8064 96.801882 
L 360.8064 96.801882 
" style="fill:none;stroke:#ff00ff;stroke-linecap:square;stroke-width:1.5;"/>
   </g>
   <g id="line2d_41">
    <defs>
     <path d="M -0 8.485281 
L 5.091169 0 
L 0 -8.485281 
L -5.091169 -0 
z
" id="md294804720" style="stroke:#ff00ff;stroke-linejoin:miter;stroke-width:1.5;"/>
    </defs>
    <g>
     <use style="fill-opacity:0;stroke:#ff00ff;stroke-linejoin:miter;stroke-width:1.5;" x="77.628862" xlink:href="#md294804720" y="282.276141"/>
     <use style="fill-opacity:0;stroke:#ff00ff;stroke-linejoin:miter;stroke-width:1.5;" x="157.410135" xlink:href="#md294804720" y="253.905318"/>
     <use style="fill-opacity:0;stroke:#ff00ff;stroke-linejoin:miter;stroke-width:1.5;" x="232.023008" xlink:href="#md294804720" y="215.604706"/>
     <use style="fill-opacity:0;stroke:#ff00ff;stroke-linejoin:miter;stroke-width:1.5;" x="278.943701" xlink:href="#md294804720" y="123.044894"/>
     <use style="fill-opacity:0;stroke:#ff00ff;stroke-linejoin:miter;stroke-width:1.5;" x="321.68014" xlink:href="#md294804720" y="96.801882"/>
     <use style="fill-opacity:0;stroke:#ff00ff;stroke-linejoin:miter;stroke-width:1.5;" x="360.8064" xlink:href="#md294804720" y="96.801882"/>
    </g>
   </g>
   <g id="line2d_42">
    <path style="fill:none;stroke:#ff00ff;stroke-linecap:square;stroke-width:1.5;"/>
    <g/>
   </g>
   <g id="line2d_43">
    <path clip-path="url(#pdb93e43d29)" d="M 230.892752 223.761318 
" style="fill:none;stroke:#ff00ff;stroke-linecap:square;stroke-width:1.5;"/>
    <defs>
     <path d="M -12 12 
L 12 -12 
M -12 -12 
L 12 12 
" id="mb651412ab7" style="stroke:#ff00ff;"/>
    </defs>
    <g clip-path="url(#pdb93e43d29)">
     <use style="fill:#ff00ff;stroke:#ff00ff;" x="230.892752" xlink:href="#mb651412ab7" y="223.761318"/>
    </g>
   </g>
   <g id="line2d_44">
    <path d="M 360.8064 261.707294 
L 380.514816 293.51808 
" style="fill:none;stroke:#000080;stroke-linecap:square;stroke-width:1.5;"/>
    <g>
     <use style="fill-opacity:0;stroke:#000080;stroke-width:1.5;" x="360.8064" xlink:href="#mc6556a6f90" y="261.707294"/>
     <use style="fill-opacity:0;stroke:#000080;stroke-width:1.5;" x="380.514816" xlink:href="#mc6556a6f90" y="293.51808"/>
    </g>
   </g>
   <g id="line2d_45">
    <path d="M 360.8064 96.801882 
L 380.514816 163.296 
" style="fill:none;stroke:#ff00ff;stroke-linecap:square;stroke-width:1.5;"/>
    <g>
     <use style="fill-opacity:0;stroke:#ff00ff;stroke-linejoin:miter;stroke-width:1.5;" x="360.8064" xlink:href="#md294804720" y="96.801882"/>
     <use style="fill-opacity:0;stroke:#ff00ff;stroke-linejoin:miter;stroke-width:1.5;" x="380.514816" xlink:href="#md294804720" y="163.296"/>
    </g>
   </g>
   <g id="line2d_46">
    <path d="M 360.8064 298.944 
L 360.8064 27.648 
" style="fill:none;stroke:#000000;stroke-linecap:square;stroke-width:1.5;"/>
   </g>
   <g id="patch_3">
    <path d="M 57.6 298.944 
L 360.8064 298.944 
" style="fill:none;stroke:#000000;stroke-linecap:square;stroke-linejoin:miter;stroke-width:0.8;"/>
   </g>
   <g id="patch_4">
    <path d="M 57.6 27.648 
L 360.8064 27.648 
" style="fill:none;stroke:#000000;stroke-linecap:square;stroke-linejoin:miter;stroke-width:0.8;"/>
   </g>
   <g id="text_13">
    <!-- different -->
    <g transform="translate(386.578944 297.381205)scale(0.14 -0.14)">
     <use xlink:href="#DejaVuSans-64"/>
     <use x="63.476562" xlink:href="#DejaVuSans-69"/>
     <use x="91.259766" xlink:href="#DejaVuSans-66"/>
     <use x="126.464844" xlink:href="#DejaVuSans-66"/>
     <use x="161.669922" xlink:href="#DejaVuSans-65"/>
     <use x="223.193359" xlink:href="#DejaVuSans-72"/>
     <use x="262.056641" xlink:href="#DejaVuSans-65"/>
     <use x="323.580078" xlink:href="#DejaVuSans-6e"/>
     <use x="386.958984" xlink:href="#DejaVuSans-74"/>
    </g>
   </g>
   <g id="text_14">
    <!-- cma.fmin  -->
    <g transform="translate(386.578944 167.159125)scale(0.14 -0.14)">
     <use xlink:href="#DejaVuSans-63"/>
     <use x="54.980469" xlink:href="#DejaVuSans-6d"/>
     <use x="152.392578" xlink:href="#DejaVuSans-61"/>
     <use x="213.671875" xlink:href="#DejaVuSans-2e"/>
     <use x="245.458984" xlink:href="#DejaVuSans-66"/>
     <use x="280.664062" xlink:href="#DejaVuSans-6d"/>
     <use x="378.076172" xlink:href="#DejaVuSans-69"/>
     <use x="405.859375" xlink:href="#DejaVuSans-6e"/>
     <use x="469.238281" xlink:href="#DejaVuSans-20"/>
    </g>
   </g>
   <g id="text_15">
    <!-- best 2009 -->
    <g transform="translate(386.578944 36.937045)scale(0.14 -0.14)">
     <defs>
      <path d="M 3116 1747 
Q 3116 2381 2855 2742 
Q 2594 3103 2138 3103 
Q 1681 3103 1420 2742 
Q 1159 2381 1159 1747 
Q 1159 1113 1420 752 
Q 1681 391 2138 391 
Q 2594 391 2855 752 
Q 3116 1113 3116 1747 
z
M 1159 2969 
Q 1341 3281 1617 3432 
Q 1894 3584 2278 3584 
Q 2916 3584 3314 3078 
Q 3713 2572 3713 1747 
Q 3713 922 3314 415 
Q 2916 -91 2278 -91 
Q 1894 -91 1617 61 
Q 1341 213 1159 525 
L 1159 0 
L 581 0 
L 581 4863 
L 1159 4863 
L 1159 2969 
z
" id="DejaVuSans-62" transform="scale(0.015625)"/>
      <path d="M 703 97 
L 703 672 
Q 941 559 1184 500 
Q 1428 441 1663 441 
Q 2288 441 2617 861 
Q 2947 1281 2994 2138 
Q 2813 1869 2534 1725 
Q 2256 1581 1919 1581 
Q 1219 1581 811 2004 
Q 403 2428 403 3163 
Q 403 3881 828 4315 
Q 1253 4750 1959 4750 
Q 2769 4750 3195 4129 
Q 3622 3509 3622 2328 
Q 3622 1225 3098 567 
Q 2575 -91 1691 -91 
Q 1453 -91 1209 -44 
Q 966 3 703 97 
z
M 1959 2075 
Q 2384 2075 2632 2365 
Q 2881 2656 2881 3163 
Q 2881 3666 2632 3958 
Q 2384 4250 1959 4250 
Q 1534 4250 1286 3958 
Q 1038 3666 1038 3163 
Q 1038 2656 1286 2365 
Q 1534 2075 1959 2075 
z
" id="DejaVuSans-39" transform="scale(0.015625)"/>
     </defs>
     <use xlink:href="#DejaVuSans-62"/>
     <use x="63.476562" xlink:href="#DejaVuSans-65"/>
     <use x="125" xlink:href="#DejaVuSans-73"/>
     <use x="177.099609" xlink:href="#DejaVuSans-74"/>
     <use x="216.308594" xlink:href="#DejaVuSans-20"/>
     <use x="248.095703" xlink:href="#DejaVuSans-32"/>
     <use x="311.71875" xlink:href="#DejaVuSans-30"/>
     <use x="375.341797" xlink:href="#DejaVuSans-30"/>
     <use x="438.964844" xlink:href="#DejaVuSans-39"/>
    </g>
   </g>
   <g id="text_16">
    <!-- bbob f16, 10-D -->
    <g transform="translate(60.632064 38.111366)scale(0.102 -0.102)">
     <defs>
      <path d="M 1259 4147 
L 1259 519 
L 2022 519 
Q 2988 519 3436 956 
Q 3884 1394 3884 2338 
Q 3884 3275 3436 3711 
Q 2988 4147 2022 4147 
L 1259 4147 
z
M 628 4666 
L 1925 4666 
Q 3281 4666 3915 4102 
Q 4550 3538 4550 2338 
Q 4550 1131 3912 565 
Q 3275 0 1925 0 
L 628 0 
L 628 4666 
z
" id="DejaVuSans-44" transform="scale(0.015625)"/>
     </defs>
     <use xlink:href="#DejaVuSans-62"/>
     <use x="63.476562" xlink:href="#DejaVuSans-62"/>
     <use x="126.953125" xlink:href="#DejaVuSans-6f"/>
     <use x="188.134766" xlink:href="#DejaVuSans-62"/>
     <use x="251.611328" xlink:href="#DejaVuSans-20"/>
     <use x="283.398438" xlink:href="#DejaVuSans-66"/>
     <use x="318.603516" xlink:href="#DejaVuSans-31"/>
     <use x="382.226562" xlink:href="#DejaVuSans-36"/>
     <use x="445.849609" xlink:href="#DejaVuSans-2c"/>
     <use x="477.636719" xlink:href="#DejaVuSans-20"/>
     <use x="509.423828" xlink:href="#DejaVuSans-31"/>
     <use x="573.046875" xlink:href="#DejaVuSans-30"/>
     <use x="636.669922" xlink:href="#DejaVuSans-2d"/>
     <use x="672.753906" xlink:href="#DejaVuSans-44"/>
    </g>
    <!-- 51 targets: 100..1e-08 -->
    <g transform="translate(60.632064 49.533135)scale(0.102 -0.102)">
     <defs>
      <path d="M 691 4666 
L 3169 4666 
L 3169 4134 
L 1269 4134 
L 1269 2991 
Q 1406 3038 1543 3061 
Q 1681 3084 1819 3084 
Q 2600 3084 3056 2656 
Q 3513 2228 3513 1497 
Q 3513 744 3044 326 
Q 2575 -91 1722 -91 
Q 1428 -91 1123 -41 
Q 819 9 494 109 
L 494 744 
Q 775 591 1075 516 
Q 1375 441 1709 441 
Q 2250 441 2565 725 
Q 2881 1009 2881 1497 
Q 2881 1984 2565 2268 
Q 2250 2553 1709 2553 
Q 1456 2553 1204 2497 
Q 953 2441 691 2322 
L 691 4666 
z
" id="DejaVuSans-35" transform="scale(0.015625)"/>
      <path d="M 750 794 
L 1409 794 
L 1409 0 
L 750 0 
L 750 794 
z
M 750 3309 
L 1409 3309 
L 1409 2516 
L 750 2516 
L 750 3309 
z
" id="DejaVuSans-3a" transform="scale(0.015625)"/>
     </defs>
     <use xlink:href="#DejaVuSans-35"/>
     <use x="63.623047" xlink:href="#DejaVuSans-31"/>
     <use x="127.246094" xlink:href="#DejaVuSans-20"/>
     <use x="159.033203" xlink:href="#DejaVuSans-74"/>
     <use x="198.242188" xlink:href="#DejaVuSans-61"/>
     <use x="259.521484" xlink:href="#DejaVuSans-72"/>
     <use x="298.884766" xlink:href="#DejaVuSans-67"/>
     <use x="362.361328" xlink:href="#DejaVuSans-65"/>
     <use x="423.884766" xlink:href="#DejaVuSans-74"/>
     <use x="463.09375" xlink:href="#DejaVuSans-73"/>
     <use x="515.193359" xlink:href="#DejaVuSans-3a"/>
     <use x="548.884766" xlink:href="#DejaVuSans-20"/>
     <use x="580.671875" xlink:href="#DejaVuSans-31"/>
     <use x="644.294922" xlink:href="#DejaVuSans-30"/>
     <use x="707.917969" xlink:href="#DejaVuSans-30"/>
     <use x="771.541016" xlink:href="#DejaVuSans-2e"/>
     <use x="803.328125" xlink:href="#DejaVuSans-2e"/>
     <use x="835.115234" xlink:href="#DejaVuSans-31"/>
     <use x="898.738281" xlink:href="#DejaVuSans-65"/>
     <use x="960.261719" xlink:href="#DejaVuSans-2d"/>
     <use x="996.345703" xlink:href="#DejaVuSans-30"/>
     <use x="1059.96875" xlink:href="#DejaVuSans-38"/>
    </g>
    <!-- 15 instances -->
    <g transform="translate(60.632064 60.954904)scale(0.102 -0.102)">
     <use xlink:href="#DejaVuSans-31"/>
     <use x="63.623047" xlink:href="#DejaVuSans-35"/>
     <use x="127.246094" xlink:href="#DejaVuSans-20"/>
     <use x="159.033203" xlink:href="#DejaVuSans-69"/>
     <use x="186.816406" xlink:href="#DejaVuSans-6e"/>
     <use x="250.195312" xlink:href="#DejaVuSans-73"/>
     <use x="302.294922" xlink:href="#DejaVuSans-74"/>
     <use x="341.503906" xlink:href="#DejaVuSans-61"/>
     <use x="402.783203" xlink:href="#DejaVuSans-6e"/>
     <use x="466.162109" xlink:href="#DejaVuSans-63"/>
     <use x="521.142578" xlink:href="#DejaVuSans-65"/>
     <use x="582.666016" xlink:href="#DejaVuSans-73"/>
    </g>
   </g>
   <g id="text_17">
    <!-- v2.6 -->
    <g style="fill:#808080;" transform="translate(198.292262 294.151352)scale(0.1 -0.1)">
     <use xlink:href="#DejaVuSans-76"/>
     <use x="59.179688" xlink:href="#DejaVuSans-32"/>
     <use x="122.802734" xlink:href="#DejaVuSans-2e"/>
     <use x="154.589844" xlink:href="#DejaVuSans-36"/>
    </g>
   </g>
   <g id="text_18">
    <!-- 16 Weierstrass -->
    <g transform="translate(135.017262 21.648)scale(0.2 -0.2)">
     <defs>
      <path d="M 213 4666 
L 850 4666 
L 1831 722 
L 2809 4666 
L 3519 4666 
L 4500 722 
L 5478 4666 
L 6119 4666 
L 4947 0 
L 4153 0 
L 3169 4050 
L 2175 0 
L 1381 0 
L 213 4666 
z
" id="DejaVuSans-57" transform="scale(0.015625)"/>
     </defs>
     <use xlink:href="#DejaVuSans-31"/>
     <use x="63.623047" xlink:href="#DejaVuSans-36"/>
     <use x="127.246094" xlink:href="#DejaVuSans-20"/>
     <use x="159.033203" xlink:href="#DejaVuSans-57"/>
     <use x="252.035156" xlink:href="#DejaVuSans-65"/>
     <use x="313.558594" xlink:href="#DejaVuSans-69"/>
     <use x="341.341797" xlink:href="#DejaVuSans-65"/>
     <use x="402.865234" xlink:href="#DejaVuSans-72"/>
     <use x="443.978516" xlink:href="#DejaVuSans-73"/>
     <use x="496.078125" xlink:href="#DejaVuSans-74"/>
     <use x="535.287109" xlink:href="#DejaVuSans-72"/>
     <use x="576.400391" xlink:href="#DejaVuSans-61"/>
     <use x="637.679688" xlink:href="#DejaVuSans-73"/>
     <use x="689.779297" xlink:href="#DejaVuSans-73"/>
    </g>
   </g>
  </g>
 </g>
 <defs>
  <clipPath id="pdb93e43d29">
   <rect height="271.296" width="303.2064" x="57.6" y="27.648"/>
  </clipPath>
 </defs>
</svg>
