<?xml version="1.0" encoding="utf-8" standalone="no"?>
<!DOCTYPE svg PUBLIC "-//W3C//DTD SVG 1.1//EN"
  "http://www.w3.org/Graphics/SVG/1.1/DTD/svg11.dtd">
<svg height="345.6pt" version="1.1" viewBox="0 0 460.8 345.6" width="460.8pt" xmlns="http://www.w3.org/2000/svg" xmlns:xlink="http://www.w3.org/1999/xlink">
 <metadata>
  <rdf:RDF xmlns:cc="http://creativecommons.org/ns#" xmlns:dc="http://purl.org/dc/elements/1.1/" xmlns:rdf="http://www.w3.org/1999/02/22-rdf-syntax-ns#">
   <cc:Work>
    <dc:type rdf:resource="http://purl.org/dc/dcmitype/StillImage"/>
    <dc:date>2022-05-07T15:07:46.382608</dc:date>
    <dc:format>image/svg+xml</dc:format>
    <dc:creator>
     <cc:Agent>
      <dc:title>Matplotlib v3.4.3, https://matplotlib.org/</dc:title>
     </cc:Agent>
    </dc:creator>
   </cc:Work>
  </rdf:RDF>
 </metadata>
 <defs>
  <style type="text/css">*{stroke-linecap:butt;stroke-linejoin:round;}</style>
 </defs>
 <g id="figure_1">
  <g id="patch_1">
   <path d="M 0 345.6 
L 460.8 345.6 
L 460.8 0 
L 0 0 
z
" style="fill:#ffffff;"/>
  </g>
  <g id="axes_1">
   <g id="patch_2">
    <path d="M 57.6 298.944 
L 360.8064 298.944 
L 360.8064 27.648 
L 57.6 27.648 
z
" style="fill:#ffffff;"/>
   </g>
   <g id="line2d_1">
    <path d="M 36.933397 298.944 
L 36.933397 272.346353 
L 49.972572 272.346353 
L 49.972572 267.026824 
L 63.011746 267.026824 
L 63.011746 261.707294 
L 70.639174 261.707294 
L 70.639174 256.387765 
L 80.248597 256.387765 
L 80.248597 251.068235 
L 86.578163 251.068235 
L 86.578163 245.748706 
L 90.230539 245.748706 
L 90.230539 240.429176 
L 92.322865 240.429176 
L 92.322865 235.109647 
L 95.916911 235.109647 
L 95.916911 229.790118 
L 96.717523 229.790118 
L 96.717523 224.470588 
L 98.933205 224.470588 
L 98.933205 219.151059 
L 99.617337 219.151059 
L 99.617337 213.831529 
L 101.532027 213.831529 
L 101.532027 208.512 
L 102.12927 208.512 
L 102.12927 203.192471 
L 103.269713 203.192471 
L 103.269713 197.872941 
L 105.850679 197.872941 
L 105.850679 192.553412 
L 107.68741 192.553412 
L 107.68741 187.233882 
L 109.360651 187.233882 
L 109.360651 181.914353 
L 111.620752 181.914353 
L 111.620752 176.594824 
L 113.638206 176.594824 
L 113.638206 171.275294 
L 115.747307 171.275294 
L 115.747307 165.955765 
L 117.121023 165.955765 
L 117.121023 160.636235 
L 119.366121 160.636235 
L 119.366121 155.316706 
L 120.28394 155.316706 
L 120.28394 149.997176 
L 121.159053 149.997176 
L 121.159053 144.677647 
L 121.581803 144.677647 
L 121.581803 139.358118 
L 121.99526 139.358118 
L 121.99526 134.038588 
L 122.795872 134.038588 
L 122.795872 128.719059 
L 123.936316 128.719059 
L 123.936316 123.399529 
L 124.481616 123.399529 
L 124.481616 118.08 
L 125.011554 118.08 
L 125.011554 112.760471 
L 125.35673 112.760471 
L 125.35673 107.440941 
L 126.192937 107.440941 
L 126.192937 102.121412 
L 130.292209 102.121412 
L 130.292209 96.801882 
L 132.405295 96.801882 
L 132.405295 91.482353 
L 132.984158 91.482353 
L 132.984158 86.162824 
L 133.545739 86.162824 
L 133.545739 80.843294 
L 133.874812 80.843294 
L 133.874812 75.523765 
L 134.304809 75.523765 
L 134.304809 70.204235 
L 135.136394 70.204235 
L 135.136394 64.884706 
L 135.538796 64.884706 
L 135.538796 59.565176 
L 136.029987 59.565176 
L 136.029987 54.245647 
L 136.413909 54.245647 
L 136.413909 48.926118 
L 137.250116 48.926118 
L 137.250116 43.606588 
L 137.610157 43.606588 
L 137.610157 38.287059 
L 137.963436 38.287059 
L 137.963436 32.967529 
L 138.395904 32.967529 
L 138.395904 27.648 
L 360.8064 27.648 
" style="fill:none;stroke:#f5deb3;stroke-linecap:square;stroke-width:4;"/>
   </g>
   <g id="line2d_2">
    <defs>
     <path d="M -0 7.778175 
L 7.778175 0 
L 0 -7.778175 
L -7.778175 -0 
z
" id="md7b61c1d94" style="stroke:#f5deb3;stroke-linejoin:miter;stroke-width:1.5;"/>
    </defs>
    <g>
     <use style="fill:#f5deb3;stroke:#f5deb3;stroke-linejoin:miter;stroke-width:1.5;" x="105.850679" xlink:href="#md7b61c1d94" y="192.553412"/>
     <use style="fill:#f5deb3;stroke:#f5deb3;stroke-linejoin:miter;stroke-width:1.5;" x="130.292209" xlink:href="#md7b61c1d94" y="102.121412"/>
     <use style="fill:#f5deb3;stroke:#f5deb3;stroke-linejoin:miter;stroke-width:1.5;" x="138.395904" xlink:href="#md7b61c1d94" y="32.967529"/>
     <use style="fill:#f5deb3;stroke:#f5deb3;stroke-linejoin:miter;stroke-width:1.5;" x="138.395904" xlink:href="#md7b61c1d94" y="27.648"/>
     <use style="fill:#f5deb3;stroke:#f5deb3;stroke-linejoin:miter;stroke-width:1.5;" x="138.395904" xlink:href="#md7b61c1d94" y="27.648"/>
     <use style="fill:#f5deb3;stroke:#f5deb3;stroke-linejoin:miter;stroke-width:1.5;" x="360.8064" xlink:href="#md7b61c1d94" y="27.648"/>
    </g>
   </g>
   <g id="line2d_3">
    <path style="fill:none;stroke:#f5deb3;stroke-linecap:square;stroke-width:4;"/>
    <g/>
   </g>
   <g id="line2d_4">
    <path d="M 360.8064 27.648 
L 380.514816 33.07392 
" style="fill:none;stroke:#f5deb3;stroke-linecap:square;stroke-width:4;"/>
    <g>
     <use style="fill:#f5deb3;stroke:#f5deb3;stroke-linejoin:miter;stroke-width:1.5;" x="360.8064" xlink:href="#md7b61c1d94" y="27.648"/>
     <use style="fill:#f5deb3;stroke:#f5deb3;stroke-linejoin:miter;stroke-width:1.5;" x="380.514816" xlink:href="#md7b61c1d94" y="33.07392"/>
    </g>
   </g>
   <g id="matplotlib.axis_1">
    <g id="xtick_1">
     <g id="line2d_5">
      <path clip-path="url(#p0de8afd530)" d="M 57.6 298.944 
L 57.6 27.648 
" style="fill:none;stroke:#b0b0b0;stroke-linecap:square;stroke-width:0.8;"/>
     </g>
     <g id="line2d_6">
      <defs>
       <path d="M 0 0 
L 0 3.5 
" id="m9ad8f8b926" style="stroke:#000000;stroke-width:0.8;"/>
      </defs>
      <g>
       <use style="stroke:#000000;stroke-width:0.8;" x="57.6" xlink:href="#m9ad8f8b926" y="298.944"/>
      </g>
     </g>
     <g id="text_1">
      <!-- 0 -->
      <g transform="translate(52.191875 318.861344)scale(0.17 -0.17)">
       <defs>
        <path d="M 2034 4250 
Q 1547 4250 1301 3770 
Q 1056 3291 1056 2328 
Q 1056 1369 1301 889 
Q 1547 409 2034 409 
Q 2525 409 2770 889 
Q 3016 1369 3016 2328 
Q 3016 3291 2770 3770 
Q 2525 4250 2034 4250 
z
M 2034 4750 
Q 2819 4750 3233 4129 
Q 3647 3509 3647 2328 
Q 3647 1150 3233 529 
Q 2819 -91 2034 -91 
Q 1250 -91 836 529 
Q 422 1150 422 2328 
Q 422 3509 836 4129 
Q 1250 4750 2034 4750 
z
" id="DejaVuSans-30" transform="scale(0.015625)"/>
       </defs>
       <use xlink:href="#DejaVuSans-30"/>
      </g>
     </g>
    </g>
    <g id="xtick_2">
     <g id="line2d_7">
      <path clip-path="url(#p0de8afd530)" d="M 144.2304 298.944 
L 144.2304 27.648 
" style="fill:none;stroke:#b0b0b0;stroke-linecap:square;stroke-width:0.8;"/>
     </g>
     <g id="line2d_8">
      <g>
       <use style="stroke:#000000;stroke-width:0.8;" x="144.2304" xlink:href="#m9ad8f8b926" y="298.944"/>
      </g>
     </g>
     <g id="text_2">
      <!-- 2 -->
      <g transform="translate(138.822275 318.861344)scale(0.17 -0.17)">
       <defs>
        <path d="M 1228 531 
L 3431 531 
L 3431 0 
L 469 0 
L 469 531 
Q 828 903 1448 1529 
Q 2069 2156 2228 2338 
Q 2531 2678 2651 2914 
Q 2772 3150 2772 3378 
Q 2772 3750 2511 3984 
Q 2250 4219 1831 4219 
Q 1534 4219 1204 4116 
Q 875 4013 500 3803 
L 500 4441 
Q 881 4594 1212 4672 
Q 1544 4750 1819 4750 
Q 2544 4750 2975 4387 
Q 3406 4025 3406 3419 
Q 3406 3131 3298 2873 
Q 3191 2616 2906 2266 
Q 2828 2175 2409 1742 
Q 1991 1309 1228 531 
z
" id="DejaVuSans-32" transform="scale(0.015625)"/>
       </defs>
       <use xlink:href="#DejaVuSans-32"/>
      </g>
     </g>
    </g>
    <g id="xtick_3">
     <g id="line2d_9">
      <path clip-path="url(#p0de8afd530)" d="M 230.8608 298.944 
L 230.8608 27.648 
" style="fill:none;stroke:#b0b0b0;stroke-linecap:square;stroke-width:0.8;"/>
     </g>
     <g id="line2d_10">
      <g>
       <use style="stroke:#000000;stroke-width:0.8;" x="230.8608" xlink:href="#m9ad8f8b926" y="298.944"/>
      </g>
     </g>
     <g id="text_3">
      <!-- 4 -->
      <g transform="translate(225.452675 318.861344)scale(0.17 -0.17)">
       <defs>
        <path d="M 2419 4116 
L 825 1625 
L 2419 1625 
L 2419 4116 
z
M 2253 4666 
L 3047 4666 
L 3047 1625 
L 3713 1625 
L 3713 1100 
L 3047 1100 
L 3047 0 
L 2419 0 
L 2419 1100 
L 313 1100 
L 313 1709 
L 2253 4666 
z
" id="DejaVuSans-34" transform="scale(0.015625)"/>
       </defs>
       <use xlink:href="#DejaVuSans-34"/>
      </g>
     </g>
    </g>
    <g id="xtick_4">
     <g id="line2d_11">
      <path clip-path="url(#p0de8afd530)" d="M 317.4912 298.944 
L 317.4912 27.648 
" style="fill:none;stroke:#b0b0b0;stroke-linecap:square;stroke-width:0.8;"/>
     </g>
     <g id="line2d_12">
      <g>
       <use style="stroke:#000000;stroke-width:0.8;" x="317.4912" xlink:href="#m9ad8f8b926" y="298.944"/>
      </g>
     </g>
     <g id="text_4">
      <!-- 6 -->
      <g transform="translate(312.083075 318.861344)scale(0.17 -0.17)">
       <defs>
        <path d="M 2113 2584 
Q 1688 2584 1439 2293 
Q 1191 2003 1191 1497 
Q 1191 994 1439 701 
Q 1688 409 2113 409 
Q 2538 409 2786 701 
Q 3034 994 3034 1497 
Q 3034 2003 2786 2293 
Q 2538 2584 2113 2584 
z
M 3366 4563 
L 3366 3988 
Q 3128 4100 2886 4159 
Q 2644 4219 2406 4219 
Q 1781 4219 1451 3797 
Q 1122 3375 1075 2522 
Q 1259 2794 1537 2939 
Q 1816 3084 2150 3084 
Q 2853 3084 3261 2657 
Q 3669 2231 3669 1497 
Q 3669 778 3244 343 
Q 2819 -91 2113 -91 
Q 1303 -91 875 529 
Q 447 1150 447 2328 
Q 447 3434 972 4092 
Q 1497 4750 2381 4750 
Q 2619 4750 2861 4703 
Q 3103 4656 3366 4563 
z
" id="DejaVuSans-36" transform="scale(0.015625)"/>
       </defs>
       <use xlink:href="#DejaVuSans-36"/>
      </g>
     </g>
    </g>
    <g id="xtick_5">
     <g id="line2d_13">
      <path clip-path="url(#p0de8afd530)" d="M 100.9152 298.944 
L 100.9152 27.648 
" style="fill:none;stroke:#b0b0b0;stroke-linecap:square;stroke-width:0.8;"/>
     </g>
     <g id="line2d_14">
      <defs>
       <path d="M 0 0 
L 0 2 
" id="m1c2fa9a2c6" style="stroke:#000000;stroke-width:0.6;"/>
      </defs>
      <g>
       <use style="stroke:#000000;stroke-width:0.6;" x="100.9152" xlink:href="#m1c2fa9a2c6" y="298.944"/>
      </g>
     </g>
    </g>
    <g id="xtick_6">
     <g id="line2d_15">
      <path clip-path="url(#p0de8afd530)" d="M 187.5456 298.944 
L 187.5456 27.648 
" style="fill:none;stroke:#b0b0b0;stroke-linecap:square;stroke-width:0.8;"/>
     </g>
     <g id="line2d_16">
      <g>
       <use style="stroke:#000000;stroke-width:0.6;" x="187.5456" xlink:href="#m1c2fa9a2c6" y="298.944"/>
      </g>
     </g>
    </g>
    <g id="xtick_7">
     <g id="line2d_17">
      <path clip-path="url(#p0de8afd530)" d="M 274.176 298.944 
L 274.176 27.648 
" style="fill:none;stroke:#b0b0b0;stroke-linecap:square;stroke-width:0.8;"/>
     </g>
     <g id="line2d_18">
      <g>
       <use style="stroke:#000000;stroke-width:0.6;" x="274.176" xlink:href="#m1c2fa9a2c6" y="298.944"/>
      </g>
     </g>
    </g>
    <g id="xtick_8">
     <g id="line2d_19">
      <path clip-path="url(#p0de8afd530)" d="M 360.8064 298.944 
L 360.8064 27.648 
" style="fill:none;stroke:#b0b0b0;stroke-linecap:square;stroke-width:0.8;"/>
     </g>
     <g id="line2d_20">
      <g>
       <use style="stroke:#000000;stroke-width:0.6;" x="360.8064" xlink:href="#m1c2fa9a2c6" y="298.944"/>
      </g>
     </g>
    </g>
    <g id="text_5">
     <!-- log10(# f-evals / dimension) -->
     <g transform="translate(88.823278 339.314156)scale(0.17 -0.17)">
      <defs>
       <path d="M 603 4863 
L 1178 4863 
L 1178 0 
L 603 0 
L 603 4863 
z
" id="DejaVuSans-6c" transform="scale(0.015625)"/>
       <path d="M 1959 3097 
Q 1497 3097 1228 2736 
Q 959 2375 959 1747 
Q 959 1119 1226 758 
Q 1494 397 1959 397 
Q 2419 397 2687 759 
Q 2956 1122 2956 1747 
Q 2956 2369 2687 2733 
Q 2419 3097 1959 3097 
z
M 1959 3584 
Q 2709 3584 3137 3096 
Q 3566 2609 3566 1747 
Q 3566 888 3137 398 
Q 2709 -91 1959 -91 
Q 1206 -91 779 398 
Q 353 888 353 1747 
Q 353 2609 779 3096 
Q 1206 3584 1959 3584 
z
" id="DejaVuSans-6f" transform="scale(0.015625)"/>
       <path d="M 2906 1791 
Q 2906 2416 2648 2759 
Q 2391 3103 1925 3103 
Q 1463 3103 1205 2759 
Q 947 2416 947 1791 
Q 947 1169 1205 825 
Q 1463 481 1925 481 
Q 2391 481 2648 825 
Q 2906 1169 2906 1791 
z
M 3481 434 
Q 3481 -459 3084 -895 
Q 2688 -1331 1869 -1331 
Q 1566 -1331 1297 -1286 
Q 1028 -1241 775 -1147 
L 775 -588 
Q 1028 -725 1275 -790 
Q 1522 -856 1778 -856 
Q 2344 -856 2625 -561 
Q 2906 -266 2906 331 
L 2906 616 
Q 2728 306 2450 153 
Q 2172 0 1784 0 
Q 1141 0 747 490 
Q 353 981 353 1791 
Q 353 2603 747 3093 
Q 1141 3584 1784 3584 
Q 2172 3584 2450 3431 
Q 2728 3278 2906 2969 
L 2906 3500 
L 3481 3500 
L 3481 434 
z
" id="DejaVuSans-67" transform="scale(0.015625)"/>
       <path d="M 794 531 
L 1825 531 
L 1825 4091 
L 703 3866 
L 703 4441 
L 1819 4666 
L 2450 4666 
L 2450 531 
L 3481 531 
L 3481 0 
L 794 0 
L 794 531 
z
" id="DejaVuSans-31" transform="scale(0.015625)"/>
       <path d="M 1984 4856 
Q 1566 4138 1362 3434 
Q 1159 2731 1159 2009 
Q 1159 1288 1364 580 
Q 1569 -128 1984 -844 
L 1484 -844 
Q 1016 -109 783 600 
Q 550 1309 550 2009 
Q 550 2706 781 3412 
Q 1013 4119 1484 4856 
L 1984 4856 
z
" id="DejaVuSans-28" transform="scale(0.015625)"/>
       <path d="M 3272 2816 
L 2363 2816 
L 2100 1772 
L 3016 1772 
L 3272 2816 
z
M 2803 4594 
L 2478 3297 
L 3391 3297 
L 3719 4594 
L 4219 4594 
L 3897 3297 
L 4872 3297 
L 4872 2816 
L 3775 2816 
L 3519 1772 
L 4513 1772 
L 4513 1294 
L 3397 1294 
L 3072 0 
L 2572 0 
L 2894 1294 
L 1978 1294 
L 1656 0 
L 1153 0 
L 1478 1294 
L 494 1294 
L 494 1772 
L 1594 1772 
L 1856 2816 
L 850 2816 
L 850 3297 
L 1978 3297 
L 2297 4594 
L 2803 4594 
z
" id="DejaVuSans-23" transform="scale(0.015625)"/>
       <path id="DejaVuSans-20" transform="scale(0.015625)"/>
       <path d="M 2375 4863 
L 2375 4384 
L 1825 4384 
Q 1516 4384 1395 4259 
Q 1275 4134 1275 3809 
L 1275 3500 
L 2222 3500 
L 2222 3053 
L 1275 3053 
L 1275 0 
L 697 0 
L 697 3053 
L 147 3053 
L 147 3500 
L 697 3500 
L 697 3744 
Q 697 4328 969 4595 
Q 1241 4863 1831 4863 
L 2375 4863 
z
" id="DejaVuSans-66" transform="scale(0.015625)"/>
       <path d="M 313 2009 
L 1997 2009 
L 1997 1497 
L 313 1497 
L 313 2009 
z
" id="DejaVuSans-2d" transform="scale(0.015625)"/>
       <path d="M 3597 1894 
L 3597 1613 
L 953 1613 
Q 991 1019 1311 708 
Q 1631 397 2203 397 
Q 2534 397 2845 478 
Q 3156 559 3463 722 
L 3463 178 
Q 3153 47 2828 -22 
Q 2503 -91 2169 -91 
Q 1331 -91 842 396 
Q 353 884 353 1716 
Q 353 2575 817 3079 
Q 1281 3584 2069 3584 
Q 2775 3584 3186 3129 
Q 3597 2675 3597 1894 
z
M 3022 2063 
Q 3016 2534 2758 2815 
Q 2500 3097 2075 3097 
Q 1594 3097 1305 2825 
Q 1016 2553 972 2059 
L 3022 2063 
z
" id="DejaVuSans-65" transform="scale(0.015625)"/>
       <path d="M 191 3500 
L 800 3500 
L 1894 563 
L 2988 3500 
L 3597 3500 
L 2284 0 
L 1503 0 
L 191 3500 
z
" id="DejaVuSans-76" transform="scale(0.015625)"/>
       <path d="M 2194 1759 
Q 1497 1759 1228 1600 
Q 959 1441 959 1056 
Q 959 750 1161 570 
Q 1363 391 1709 391 
Q 2188 391 2477 730 
Q 2766 1069 2766 1631 
L 2766 1759 
L 2194 1759 
z
M 3341 1997 
L 3341 0 
L 2766 0 
L 2766 531 
Q 2569 213 2275 61 
Q 1981 -91 1556 -91 
Q 1019 -91 701 211 
Q 384 513 384 1019 
Q 384 1609 779 1909 
Q 1175 2209 1959 2209 
L 2766 2209 
L 2766 2266 
Q 2766 2663 2505 2880 
Q 2244 3097 1772 3097 
Q 1472 3097 1187 3025 
Q 903 2953 641 2809 
L 641 3341 
Q 956 3463 1253 3523 
Q 1550 3584 1831 3584 
Q 2591 3584 2966 3190 
Q 3341 2797 3341 1997 
z
" id="DejaVuSans-61" transform="scale(0.015625)"/>
       <path d="M 2834 3397 
L 2834 2853 
Q 2591 2978 2328 3040 
Q 2066 3103 1784 3103 
Q 1356 3103 1142 2972 
Q 928 2841 928 2578 
Q 928 2378 1081 2264 
Q 1234 2150 1697 2047 
L 1894 2003 
Q 2506 1872 2764 1633 
Q 3022 1394 3022 966 
Q 3022 478 2636 193 
Q 2250 -91 1575 -91 
Q 1294 -91 989 -36 
Q 684 19 347 128 
L 347 722 
Q 666 556 975 473 
Q 1284 391 1588 391 
Q 1994 391 2212 530 
Q 2431 669 2431 922 
Q 2431 1156 2273 1281 
Q 2116 1406 1581 1522 
L 1381 1569 
Q 847 1681 609 1914 
Q 372 2147 372 2553 
Q 372 3047 722 3315 
Q 1072 3584 1716 3584 
Q 2034 3584 2315 3537 
Q 2597 3491 2834 3397 
z
" id="DejaVuSans-73" transform="scale(0.015625)"/>
       <path d="M 1625 4666 
L 2156 4666 
L 531 -594 
L 0 -594 
L 1625 4666 
z
" id="DejaVuSans-2f" transform="scale(0.015625)"/>
       <path d="M 2906 2969 
L 2906 4863 
L 3481 4863 
L 3481 0 
L 2906 0 
L 2906 525 
Q 2725 213 2448 61 
Q 2172 -91 1784 -91 
Q 1150 -91 751 415 
Q 353 922 353 1747 
Q 353 2572 751 3078 
Q 1150 3584 1784 3584 
Q 2172 3584 2448 3432 
Q 2725 3281 2906 2969 
z
M 947 1747 
Q 947 1113 1208 752 
Q 1469 391 1925 391 
Q 2381 391 2643 752 
Q 2906 1113 2906 1747 
Q 2906 2381 2643 2742 
Q 2381 3103 1925 3103 
Q 1469 3103 1208 2742 
Q 947 2381 947 1747 
z
" id="DejaVuSans-64" transform="scale(0.015625)"/>
       <path d="M 603 3500 
L 1178 3500 
L 1178 0 
L 603 0 
L 603 3500 
z
M 603 4863 
L 1178 4863 
L 1178 4134 
L 603 4134 
L 603 4863 
z
" id="DejaVuSans-69" transform="scale(0.015625)"/>
       <path d="M 3328 2828 
Q 3544 3216 3844 3400 
Q 4144 3584 4550 3584 
Q 5097 3584 5394 3201 
Q 5691 2819 5691 2113 
L 5691 0 
L 5113 0 
L 5113 2094 
Q 5113 2597 4934 2840 
Q 4756 3084 4391 3084 
Q 3944 3084 3684 2787 
Q 3425 2491 3425 1978 
L 3425 0 
L 2847 0 
L 2847 2094 
Q 2847 2600 2669 2842 
Q 2491 3084 2119 3084 
Q 1678 3084 1418 2786 
Q 1159 2488 1159 1978 
L 1159 0 
L 581 0 
L 581 3500 
L 1159 3500 
L 1159 2956 
Q 1356 3278 1631 3431 
Q 1906 3584 2284 3584 
Q 2666 3584 2933 3390 
Q 3200 3197 3328 2828 
z
" id="DejaVuSans-6d" transform="scale(0.015625)"/>
       <path d="M 3513 2113 
L 3513 0 
L 2938 0 
L 2938 2094 
Q 2938 2591 2744 2837 
Q 2550 3084 2163 3084 
Q 1697 3084 1428 2787 
Q 1159 2491 1159 1978 
L 1159 0 
L 581 0 
L 581 3500 
L 1159 3500 
L 1159 2956 
Q 1366 3272 1645 3428 
Q 1925 3584 2291 3584 
Q 2894 3584 3203 3211 
Q 3513 2838 3513 2113 
z
" id="DejaVuSans-6e" transform="scale(0.015625)"/>
       <path d="M 513 4856 
L 1013 4856 
Q 1481 4119 1714 3412 
Q 1947 2706 1947 2009 
Q 1947 1309 1714 600 
Q 1481 -109 1013 -844 
L 513 -844 
Q 928 -128 1133 580 
Q 1338 1288 1338 2009 
Q 1338 2731 1133 3434 
Q 928 4138 513 4856 
z
" id="DejaVuSans-29" transform="scale(0.015625)"/>
      </defs>
      <use xlink:href="#DejaVuSans-6c"/>
      <use x="27.783203" xlink:href="#DejaVuSans-6f"/>
      <use x="88.964844" xlink:href="#DejaVuSans-67"/>
      <use x="152.441406" xlink:href="#DejaVuSans-31"/>
      <use x="216.064453" xlink:href="#DejaVuSans-30"/>
      <use x="279.6875" xlink:href="#DejaVuSans-28"/>
      <use x="318.701172" xlink:href="#DejaVuSans-23"/>
      <use x="402.490234" xlink:href="#DejaVuSans-20"/>
      <use x="434.277344" xlink:href="#DejaVuSans-66"/>
      <use x="463.982422" xlink:href="#DejaVuSans-2d"/>
      <use x="500.066406" xlink:href="#DejaVuSans-65"/>
      <use x="561.589844" xlink:href="#DejaVuSans-76"/>
      <use x="620.769531" xlink:href="#DejaVuSans-61"/>
      <use x="682.048828" xlink:href="#DejaVuSans-6c"/>
      <use x="709.832031" xlink:href="#DejaVuSans-73"/>
      <use x="761.931641" xlink:href="#DejaVuSans-20"/>
      <use x="793.71875" xlink:href="#DejaVuSans-2f"/>
      <use x="827.410156" xlink:href="#DejaVuSans-20"/>
      <use x="859.197266" xlink:href="#DejaVuSans-64"/>
      <use x="922.673828" xlink:href="#DejaVuSans-69"/>
      <use x="950.457031" xlink:href="#DejaVuSans-6d"/>
      <use x="1047.869141" xlink:href="#DejaVuSans-65"/>
      <use x="1109.392578" xlink:href="#DejaVuSans-6e"/>
      <use x="1172.771484" xlink:href="#DejaVuSans-73"/>
      <use x="1224.871094" xlink:href="#DejaVuSans-69"/>
      <use x="1252.654297" xlink:href="#DejaVuSans-6f"/>
      <use x="1313.835938" xlink:href="#DejaVuSans-6e"/>
      <use x="1377.214844" xlink:href="#DejaVuSans-29"/>
     </g>
    </g>
   </g>
   <g id="matplotlib.axis_2">
    <g id="ytick_1">
     <g id="line2d_21">
      <path clip-path="url(#p0de8afd530)" d="M 57.6 298.944 
L 360.8064 298.944 
" style="fill:none;stroke:#b0b0b0;stroke-linecap:square;stroke-width:0.8;"/>
     </g>
     <g id="line2d_22">
      <defs>
       <path d="M 0 0 
L -3.5 0 
" id="m042cec28fe" style="stroke:#000000;stroke-width:0.8;"/>
      </defs>
      <g>
       <use style="stroke:#000000;stroke-width:0.8;" x="57.6" xlink:href="#m042cec28fe" y="298.944"/>
      </g>
     </g>
     <g id="text_6">
      <!-- 0.0 -->
      <g transform="translate(25.155 305.02275)scale(0.16 -0.16)">
       <defs>
        <path d="M 684 794 
L 1344 794 
L 1344 0 
L 684 0 
L 684 794 
z
" id="DejaVuSans-2e" transform="scale(0.015625)"/>
       </defs>
       <use xlink:href="#DejaVuSans-30"/>
       <use x="63.623047" xlink:href="#DejaVuSans-2e"/>
       <use x="95.410156" xlink:href="#DejaVuSans-30"/>
      </g>
     </g>
    </g>
    <g id="ytick_2">
     <g id="line2d_23">
      <path clip-path="url(#p0de8afd530)" d="M 57.6 244.6848 
L 360.8064 244.6848 
" style="fill:none;stroke:#b0b0b0;stroke-linecap:square;stroke-width:0.8;"/>
     </g>
     <g id="line2d_24">
      <g>
       <use style="stroke:#000000;stroke-width:0.8;" x="57.6" xlink:href="#m042cec28fe" y="244.6848"/>
      </g>
     </g>
     <g id="text_7">
      <!-- 0.2 -->
      <g transform="translate(25.155 250.76355)scale(0.16 -0.16)">
       <use xlink:href="#DejaVuSans-30"/>
       <use x="63.623047" xlink:href="#DejaVuSans-2e"/>
       <use x="95.410156" xlink:href="#DejaVuSans-32"/>
      </g>
     </g>
    </g>
    <g id="ytick_3">
     <g id="line2d_25">
      <path clip-path="url(#p0de8afd530)" d="M 57.6 190.4256 
L 360.8064 190.4256 
" style="fill:none;stroke:#b0b0b0;stroke-linecap:square;stroke-width:0.8;"/>
     </g>
     <g id="line2d_26">
      <g>
       <use style="stroke:#000000;stroke-width:0.8;" x="57.6" xlink:href="#m042cec28fe" y="190.4256"/>
      </g>
     </g>
     <g id="text_8">
      <!-- 0.4 -->
      <g transform="translate(25.155 196.50435)scale(0.16 -0.16)">
       <use xlink:href="#DejaVuSans-30"/>
       <use x="63.623047" xlink:href="#DejaVuSans-2e"/>
       <use x="95.410156" xlink:href="#DejaVuSans-34"/>
      </g>
     </g>
    </g>
    <g id="ytick_4">
     <g id="line2d_27">
      <path clip-path="url(#p0de8afd530)" d="M 57.6 136.1664 
L 360.8064 136.1664 
" style="fill:none;stroke:#b0b0b0;stroke-linecap:square;stroke-width:0.8;"/>
     </g>
     <g id="line2d_28">
      <g>
       <use style="stroke:#000000;stroke-width:0.8;" x="57.6" xlink:href="#m042cec28fe" y="136.1664"/>
      </g>
     </g>
     <g id="text_9">
      <!-- 0.6 -->
      <g transform="translate(25.155 142.24515)scale(0.16 -0.16)">
       <use xlink:href="#DejaVuSans-30"/>
       <use x="63.623047" xlink:href="#DejaVuSans-2e"/>
       <use x="95.410156" xlink:href="#DejaVuSans-36"/>
      </g>
     </g>
    </g>
    <g id="ytick_5">
     <g id="line2d_29">
      <path clip-path="url(#p0de8afd530)" d="M 57.6 81.9072 
L 360.8064 81.9072 
" style="fill:none;stroke:#b0b0b0;stroke-linecap:square;stroke-width:0.8;"/>
     </g>
     <g id="line2d_30">
      <g>
       <use style="stroke:#000000;stroke-width:0.8;" x="57.6" xlink:href="#m042cec28fe" y="81.9072"/>
      </g>
     </g>
     <g id="text_10">
      <!-- 0.8 -->
      <g transform="translate(25.155 87.98595)scale(0.16 -0.16)">
       <defs>
        <path d="M 2034 2216 
Q 1584 2216 1326 1975 
Q 1069 1734 1069 1313 
Q 1069 891 1326 650 
Q 1584 409 2034 409 
Q 2484 409 2743 651 
Q 3003 894 3003 1313 
Q 3003 1734 2745 1975 
Q 2488 2216 2034 2216 
z
M 1403 2484 
Q 997 2584 770 2862 
Q 544 3141 544 3541 
Q 544 4100 942 4425 
Q 1341 4750 2034 4750 
Q 2731 4750 3128 4425 
Q 3525 4100 3525 3541 
Q 3525 3141 3298 2862 
Q 3072 2584 2669 2484 
Q 3125 2378 3379 2068 
Q 3634 1759 3634 1313 
Q 3634 634 3220 271 
Q 2806 -91 2034 -91 
Q 1263 -91 848 271 
Q 434 634 434 1313 
Q 434 1759 690 2068 
Q 947 2378 1403 2484 
z
M 1172 3481 
Q 1172 3119 1398 2916 
Q 1625 2713 2034 2713 
Q 2441 2713 2670 2916 
Q 2900 3119 2900 3481 
Q 2900 3844 2670 4047 
Q 2441 4250 2034 4250 
Q 1625 4250 1398 4047 
Q 1172 3844 1172 3481 
z
" id="DejaVuSans-38" transform="scale(0.015625)"/>
       </defs>
       <use xlink:href="#DejaVuSans-30"/>
       <use x="63.623047" xlink:href="#DejaVuSans-2e"/>
       <use x="95.410156" xlink:href="#DejaVuSans-38"/>
      </g>
     </g>
    </g>
    <g id="ytick_6">
     <g id="line2d_31">
      <path clip-path="url(#p0de8afd530)" d="M 57.6 27.648 
L 360.8064 27.648 
" style="fill:none;stroke:#b0b0b0;stroke-linecap:square;stroke-width:0.8;"/>
     </g>
     <g id="line2d_32">
      <g>
       <use style="stroke:#000000;stroke-width:0.8;" x="57.6" xlink:href="#m042cec28fe" y="27.648"/>
      </g>
     </g>
     <g id="text_11">
      <!-- 1.0 -->
      <g transform="translate(25.155 33.72675)scale(0.16 -0.16)">
       <use xlink:href="#DejaVuSans-31"/>
       <use x="63.623047" xlink:href="#DejaVuSans-2e"/>
       <use x="95.410156" xlink:href="#DejaVuSans-30"/>
      </g>
     </g>
    </g>
    <g id="text_12">
     <!-- Fraction of function,target pairs -->
     <g transform="translate(17.619531 297.681)rotate(-90)scale(0.17 -0.17)">
      <defs>
       <path d="M 628 4666 
L 3309 4666 
L 3309 4134 
L 1259 4134 
L 1259 2759 
L 3109 2759 
L 3109 2228 
L 1259 2228 
L 1259 0 
L 628 0 
L 628 4666 
z
" id="DejaVuSans-46" transform="scale(0.015625)"/>
       <path d="M 2631 2963 
Q 2534 3019 2420 3045 
Q 2306 3072 2169 3072 
Q 1681 3072 1420 2755 
Q 1159 2438 1159 1844 
L 1159 0 
L 581 0 
L 581 3500 
L 1159 3500 
L 1159 2956 
Q 1341 3275 1631 3429 
Q 1922 3584 2338 3584 
Q 2397 3584 2469 3576 
Q 2541 3569 2628 3553 
L 2631 2963 
z
" id="DejaVuSans-72" transform="scale(0.015625)"/>
       <path d="M 3122 3366 
L 3122 2828 
Q 2878 2963 2633 3030 
Q 2388 3097 2138 3097 
Q 1578 3097 1268 2742 
Q 959 2388 959 1747 
Q 959 1106 1268 751 
Q 1578 397 2138 397 
Q 2388 397 2633 464 
Q 2878 531 3122 666 
L 3122 134 
Q 2881 22 2623 -34 
Q 2366 -91 2075 -91 
Q 1284 -91 818 406 
Q 353 903 353 1747 
Q 353 2603 823 3093 
Q 1294 3584 2113 3584 
Q 2378 3584 2631 3529 
Q 2884 3475 3122 3366 
z
" id="DejaVuSans-63" transform="scale(0.015625)"/>
       <path d="M 1172 4494 
L 1172 3500 
L 2356 3500 
L 2356 3053 
L 1172 3053 
L 1172 1153 
Q 1172 725 1289 603 
Q 1406 481 1766 481 
L 2356 481 
L 2356 0 
L 1766 0 
Q 1100 0 847 248 
Q 594 497 594 1153 
L 594 3053 
L 172 3053 
L 172 3500 
L 594 3500 
L 594 4494 
L 1172 4494 
z
" id="DejaVuSans-74" transform="scale(0.015625)"/>
       <path d="M 544 1381 
L 544 3500 
L 1119 3500 
L 1119 1403 
Q 1119 906 1312 657 
Q 1506 409 1894 409 
Q 2359 409 2629 706 
Q 2900 1003 2900 1516 
L 2900 3500 
L 3475 3500 
L 3475 0 
L 2900 0 
L 2900 538 
Q 2691 219 2414 64 
Q 2138 -91 1772 -91 
Q 1169 -91 856 284 
Q 544 659 544 1381 
z
M 1991 3584 
L 1991 3584 
z
" id="DejaVuSans-75" transform="scale(0.015625)"/>
       <path d="M 750 794 
L 1409 794 
L 1409 256 
L 897 -744 
L 494 -744 
L 750 256 
L 750 794 
z
" id="DejaVuSans-2c" transform="scale(0.015625)"/>
       <path d="M 1159 525 
L 1159 -1331 
L 581 -1331 
L 581 3500 
L 1159 3500 
L 1159 2969 
Q 1341 3281 1617 3432 
Q 1894 3584 2278 3584 
Q 2916 3584 3314 3078 
Q 3713 2572 3713 1747 
Q 3713 922 3314 415 
Q 2916 -91 2278 -91 
Q 1894 -91 1617 61 
Q 1341 213 1159 525 
z
M 3116 1747 
Q 3116 2381 2855 2742 
Q 2594 3103 2138 3103 
Q 1681 3103 1420 2742 
Q 1159 2381 1159 1747 
Q 1159 1113 1420 752 
Q 1681 391 2138 391 
Q 2594 391 2855 752 
Q 3116 1113 3116 1747 
z
" id="DejaVuSans-70" transform="scale(0.015625)"/>
      </defs>
      <use xlink:href="#DejaVuSans-46"/>
      <use x="50.269531" xlink:href="#DejaVuSans-72"/>
      <use x="91.382812" xlink:href="#DejaVuSans-61"/>
      <use x="152.662109" xlink:href="#DejaVuSans-63"/>
      <use x="207.642578" xlink:href="#DejaVuSans-74"/>
      <use x="246.851562" xlink:href="#DejaVuSans-69"/>
      <use x="274.634766" xlink:href="#DejaVuSans-6f"/>
      <use x="335.816406" xlink:href="#DejaVuSans-6e"/>
      <use x="399.195312" xlink:href="#DejaVuSans-20"/>
      <use x="430.982422" xlink:href="#DejaVuSans-6f"/>
      <use x="492.164062" xlink:href="#DejaVuSans-66"/>
      <use x="527.369141" xlink:href="#DejaVuSans-20"/>
      <use x="559.15625" xlink:href="#DejaVuSans-66"/>
      <use x="594.361328" xlink:href="#DejaVuSans-75"/>
      <use x="657.740234" xlink:href="#DejaVuSans-6e"/>
      <use x="721.119141" xlink:href="#DejaVuSans-63"/>
      <use x="776.099609" xlink:href="#DejaVuSans-74"/>
      <use x="815.308594" xlink:href="#DejaVuSans-69"/>
      <use x="843.091797" xlink:href="#DejaVuSans-6f"/>
      <use x="904.273438" xlink:href="#DejaVuSans-6e"/>
      <use x="967.652344" xlink:href="#DejaVuSans-2c"/>
      <use x="999.439453" xlink:href="#DejaVuSans-74"/>
      <use x="1038.648438" xlink:href="#DejaVuSans-61"/>
      <use x="1099.927734" xlink:href="#DejaVuSans-72"/>
      <use x="1139.291016" xlink:href="#DejaVuSans-67"/>
      <use x="1202.767578" xlink:href="#DejaVuSans-65"/>
      <use x="1264.291016" xlink:href="#DejaVuSans-74"/>
      <use x="1303.5" xlink:href="#DejaVuSans-20"/>
      <use x="1335.287109" xlink:href="#DejaVuSans-70"/>
      <use x="1398.763672" xlink:href="#DejaVuSans-61"/>
      <use x="1460.042969" xlink:href="#DejaVuSans-69"/>
      <use x="1487.826172" xlink:href="#DejaVuSans-72"/>
      <use x="1528.939453" xlink:href="#DejaVuSans-73"/>
     </g>
    </g>
   </g>
   <g id="line2d_33">
    <defs>
     <path d="M 0 1.5 
C 0.397805 1.5 0.77937 1.341951 1.06066 1.06066 
C 1.341951 0.77937 1.5 0.397805 1.5 0 
C 1.5 -0.397805 1.341951 -0.77937 1.06066 -1.06066 
C 0.77937 -1.341951 0.397805 -1.5 0 -1.5 
C -0.397805 -1.5 -0.77937 -1.341951 -1.06066 -1.06066 
C -1.341951 -0.77937 -1.5 -0.397805 -1.5 0 
C -1.5 0.397805 -1.341951 0.77937 -1.06066 1.06066 
C -0.77937 1.341951 -0.397805 1.5 0 1.5 
z
" id="mb87ac7d83c" style="stroke:#f5deb3;"/>
    </defs>
    <g>
     <use style="fill:#f5deb3;stroke:#f5deb3;" x="138.395904" xlink:href="#mb87ac7d83c" y="27.648"/>
     <use style="fill:#f5deb3;stroke:#f5deb3;" x="138.395904" xlink:href="#mb87ac7d83c" y="27.648"/>
    </g>
   </g>
   <g id="line2d_34">
    <defs>
     <path d="M 0 1.5 
C 0.397805 1.5 0.77937 1.341951 1.06066 1.06066 
C 1.341951 0.77937 1.5 0.397805 1.5 0 
C 1.5 -0.397805 1.341951 -0.77937 1.06066 -1.06066 
C 0.77937 -1.341951 0.397805 -1.5 0 -1.5 
C -0.397805 -1.5 -0.77937 -1.341951 -1.06066 -1.06066 
C -1.341951 -0.77937 -1.5 -0.397805 -1.5 0 
C -1.5 0.397805 -1.341951 0.77937 -1.06066 1.06066 
C -0.77937 1.341951 -0.397805 1.5 0 1.5 
z
" id="m269844e771" style="stroke:#000080;"/>
    </defs>
    <g>
     <use style="fill:#000080;stroke:#000080;" x="235.114077" xlink:href="#m269844e771" y="27.648"/>
     <use style="fill:#000080;stroke:#000080;" x="235.114077" xlink:href="#m269844e771" y="27.648"/>
    </g>
   </g>
   <g id="line2d_35">
    <path d="M 36.933397 298.944 
L 36.933397 279.439059 
L 49.972572 279.439059 
L 49.972572 271.991718 
L 57.6 271.991718 
L 57.6 270.573176 
L 63.011746 270.573176 
L 63.011746 268.445365 
L 67.209423 268.445365 
L 67.209423 267.736094 
L 70.639174 267.736094 
L 70.639174 267.381459 
L 73.538988 267.381459 
L 73.538988 266.317553 
L 80.248597 266.317553 
L 80.248597 264.544376 
L 82.04153 264.544376 
L 82.04153 261.707294 
L 83.678349 261.707294 
L 83.678349 260.998024 
L 85.184077 260.998024 
L 85.184077 260.643388 
L 87.876026 260.643388 
L 87.876026 259.224847 
L 89.090095 259.224847 
L 89.090095 257.451671 
L 90.230539 257.451671 
L 90.230539 256.387765 
L 91.305777 256.387765 
L 91.305777 255.678494 
L 92.322865 255.678494 
L 92.322865 253.550682 
L 107.68741 253.550682 
L 107.68741 253.196047 
L 110.897141 253.196047 
L 110.897141 252.841412 
L 112.989468 252.841412 
L 112.989468 252.486776 
L 114.265316 252.486776 
L 114.265316 251.068235 
L 115.460102 251.068235 
L 115.460102 250.7136 
L 120.506564 250.7136 
L 120.506564 249.295059 
L 121.789667 249.295059 
L 121.789667 248.940424 
L 123.750979 248.940424 
L 123.750979 247.167247 
L 124.119844 247.167247 
L 124.119844 246.812612 
L 127.458055 246.812612 
L 127.458055 243.975529 
L 127.761474 243.975529 
L 127.761474 242.202353 
L 128.354013 242.202353 
L 128.354013 241.138447 
L 128.643427 241.138447 
L 128.643427 240.783812 
L 131.563744 240.783812 
L 131.563744 240.429176 
L 134.091039 240.429176 
L 134.091039 239.365271 
L 136.508678 239.365271 
L 136.508678 238.656 
L 137.610157 238.656 
L 137.610157 238.301365 
L 137.963436 238.301365 
L 137.963436 236.882824 
L 138.310202 236.882824 
L 138.310202 236.173553 
L 138.650692 236.173553 
L 138.650692 235.818918 
L 138.985129 235.818918 
L 138.985129 235.464282 
L 141.320133 235.464282 
L 141.320133 235.109647 
L 142.178603 235.109647 
L 142.178603 234.755012 
L 143.133017 234.755012 
L 143.133017 233.691106 
L 143.786262 233.691106 
L 143.786262 232.981835 
L 145.620007 232.981835 
L 145.620007 232.6272 
L 147.397049 232.6272 
L 147.397049 232.272565 
L 147.607824 232.272565 
L 147.712333 231.208659 
L 149.500528 231.208659 
L 149.595059 229.435482 
L 150.870907 229.435482 
L 150.870907 229.080847 
L 151.562904 229.080847 
L 151.562904 228.726212 
L 151.815978 228.726212 
L 151.815978 227.662306 
L 152.312136 227.662306 
L 152.312136 226.953035 
L 153.111048 226.953035 
L 153.111048 226.5984 
L 153.421349 226.5984 
L 153.421349 225.179859 
L 153.952355 225.179859 
L 153.952355 224.825224 
L 154.101358 224.825224 
L 154.101358 224.470588 
L 154.757642 224.470588 
L 154.757642 224.115953 
L 156.337642 224.115953 
L 156.337642 222.697412 
L 156.468962 222.697412 
L 156.468962 218.796424 
L 156.664239 218.796424 
L 156.664239 217.732518 
L 158.395258 217.732518 
L 158.395258 216.668612 
L 159.204482 216.668612 
L 159.204482 215.959341 
L 160.249837 215.959341 
L 160.249837 215.604706 
L 160.568234 215.604706 
L 160.620781 213.831529 
L 160.725435 213.831529 
L 160.725435 213.122259 
L 161.341421 213.122259 
L 161.341421 212.767624 
L 161.492316 212.767624 
L 161.492316 212.412988 
L 161.74115 212.412988 
L 161.74115 211.703718 
L 162.084079 211.703718 
L 162.084079 211.349082 
L 163.214524 211.349082 
L 163.214524 210.994447 
L 164.280872 210.994447 
L 164.280872 210.639812 
L 164.70794 210.639812 
L 164.70794 210.285176 
L 165.290001 210.285176 
L 165.290001 209.221271 
L 165.933882 209.221271 
L 165.933882 208.157365 
L 166.091467 208.157365 
L 166.091467 207.802729 
L 166.40273 207.802729 
L 166.40273 207.448094 
L 166.594686 207.448094 
L 166.632844 206.029553 
L 166.972821 206.029553 
L 166.972821 205.674918 
L 167.634879 205.674918 
L 167.634879 205.320282 
L 167.850487 205.320282 
L 167.850487 204.965647 
L 168.063651 204.965647 
L 168.063651 204.611012 
L 168.204431 204.611012 
L 168.204431 204.256376 
L 168.413644 204.256376 
L 168.517384 203.547106 
L 168.620556 203.547106 
L 168.723164 200.355388 
L 168.757243 200.355388 
L 168.757243 200.000753 
L 169.128092 200.000753 
L 169.128092 198.582212 
L 169.360337 198.582212 
L 169.360337 198.227576 
L 169.912702 198.227576 
L 169.912702 197.872941 
L 170.167131 197.872941 
L 170.198694 196.809035 
L 170.324419 196.809035 
L 170.324419 194.681224 
L 170.635104 194.681224 
L 170.635104 193.971953 
L 171.771015 193.971953 
L 171.857838 192.198776 
L 172.257795 192.198776 
L 172.257795 191.844141 
L 172.732295 191.844141 
L 172.732295 191.134871 
L 173.141258 191.134871 
L 173.24883 190.070965 
L 173.829724 190.070965 
L 173.907565 189.007059 
L 173.959281 189.007059 
L 174.036588 188.297788 
L 174.317363 188.297788 
L 174.317363 187.943153 
L 174.618958 187.943153 
L 174.618958 185.815341 
L 174.79268 185.815341 
L 174.79268 185.106071 
L 175.256283 185.106071 
L 175.32845 184.3968 
L 175.471959 184.3968 
L 175.543305 183.332894 
L 175.755734 183.332894 
L 175.755734 182.978259 
L 175.942567 182.978259 
L 175.942567 182.623624 
L 176.219382 182.623624 
L 176.219382 182.268988 
L 176.378996 182.268988 
L 176.378996 181.559718 
L 176.537267 181.559718 
L 176.537267 181.205082 
L 176.761083 181.205082 
L 176.761083 180.850447 
L 177.091893 180.850447 
L 177.091893 180.495812 
L 178.603505 180.495812 
L 178.603505 180.141176 
L 178.84404 180.141176 
L 178.84404 179.077271 
L 179.022444 179.077271 
L 179.022444 177.304094 
L 179.354881 177.304094 
L 179.354881 176.594824 
L 179.509312 176.594824 
L 179.586055 175.885553 
L 179.795498 175.885553 
L 179.795498 175.530918 
L 180.002634 175.530918 
L 180.096038 173.757741 
L 180.969881 173.757741 
L 180.969881 173.403106 
L 181.093992 173.403106 
L 181.093992 173.048471 
L 181.304866 173.048471 
L 181.304866 172.3392 
L 181.513403 172.3392 
L 181.599615 171.629929 
L 182.571832 171.629929 
L 182.571832 171.275294 
L 183.229982 171.275294 
L 183.277247 170.211388 
L 183.666573 170.211388 
L 183.666573 169.856753 
L 183.957164 169.856753 
L 183.972335 168.438212 
L 184.317924 168.438212 
L 184.317924 168.083576 
L 184.510485 168.083576 
L 184.510485 167.728941 
L 184.744809 167.728941 
L 184.744809 167.374306 
L 184.860885 167.374306 
L 184.860885 166.3104 
L 184.976249 166.3104 
L 185.047994 165.601129 
L 185.17645 165.601129 
L 185.17645 164.891859 
L 185.33227 164.891859 
L 185.33227 164.537224 
L 185.500795 164.537224 
L 185.500795 164.182588 
L 185.640089 164.182588 
L 185.640089 163.827953 
L 186.011111 163.827953 
L 186.011111 163.473318 
L 186.227571 163.473318 
L 186.294707 161.700141 
L 186.441569 161.700141 
L 186.441569 160.990871 
L 186.560881 160.990871 
L 186.666305 160.2816 
L 186.836369 160.2816 
L 186.901371 158.863059 
L 187.210292 158.863059 
L 187.210292 158.508424 
L 187.651898 158.508424 
L 187.651898 157.799153 
L 187.961102 157.799153 
L 187.961102 157.444518 
L 188.132062 157.444518 
L 188.132062 156.380612 
L 188.361621 156.380612 
L 188.409595 155.316706 
L 188.812503 155.316706 
L 188.812503 154.962071 
L 189.172488 154.962071 
L 189.172488 154.607435 
L 189.716638 154.607435 
L 189.772426 153.898165 
L 189.872429 153.898165 
L 189.872429 153.188894 
L 190.256351 153.188894 
L 190.256351 151.770353 
L 190.472268 151.770353 
L 190.472268 151.415718 
L 190.632595 151.415718 
L 190.632595 151.061082 
L 191.332494 151.061082 
L 191.363232 148.578635 
L 191.506015 148.578635 
L 191.506015 148.224 
L 191.848327 148.224 
L 191.878235 147.514729 
L 191.987489 147.514729 
L 192.036941 146.805459 
L 192.184522 146.805459 
L 192.184522 145.386918 
L 192.553292 145.386918 
L 192.649148 143.968376 
L 192.715957 143.968376 
L 192.715957 143.259106 
L 193.027758 143.259106 
L 193.027758 142.904471 
L 193.726776 142.904471 
L 193.726776 141.840565 
L 193.906492 141.840565 
L 193.906492 141.131294 
L 194.057911 141.131294 
L 194.111064 139.003482 
L 194.172886 139.003482 
L 194.172886 138.648847 
L 194.392035 138.648847 
L 194.444253 137.230306 
L 194.924757 137.230306 
L 194.924757 136.875671 
L 195.360209 136.875671 
L 195.360209 136.521035 
L 195.525043 136.521035 
L 195.525043 136.1664 
L 196.138562 136.1664 
L 196.138562 135.811765 
L 196.624655 135.811765 
L 196.624655 134.038588 
L 197.427686 134.038588 
L 197.427686 133.683953 
L 197.860239 133.683953 
L 197.860239 133.329318 
L 198.578378 133.329318 
L 198.578378 132.974682 
L 198.703534 132.974682 
L 198.703534 132.265412 
L 198.937692 132.265412 
L 198.937692 131.556141 
L 199.222978 131.556141 
L 199.222978 131.201506 
L 199.504002 131.201506 
L 199.590142 128.364424 
L 200.111723 128.364424 
L 200.182322 125.172706 
L 200.392545 125.172706 
L 200.392545 124.818071 
L 201.009474 124.818071 
L 201.009474 124.463435 
L 201.325591 124.463435 
L 201.325591 124.1088 
L 201.571145 124.1088 
L 201.571145 122.690259 
L 201.754703 122.690259 
L 201.784142 121.980988 
L 201.895592 121.980988 
L 201.988935 120.207812 
L 202.087608 120.207812 
L 202.087608 119.498541 
L 202.391953 119.498541 
L 202.391953 118.434635 
L 202.539473 118.434635 
L 202.595905 117.725365 
L 202.674626 117.725365 
L 202.674626 117.370729 
L 202.792094 117.370729 
L 202.792094 116.661459 
L 203.200277 116.661459 
L 203.200277 115.597553 
L 203.363266 115.597553 
L 203.455004 114.533647 
L 203.663785 114.533647 
L 203.663785 112.760471 
L 203.964819 112.760471 
L 203.964819 112.405835 
L 204.24047 112.405835 
L 204.24047 112.0512 
L 204.764885 112.0512 
L 204.764885 111.341929 
L 204.979563 111.341929 
L 204.979563 110.987294 
L 205.260411 110.987294 
L 205.348236 109.568753 
L 205.522665 109.568753 
L 205.522665 108.859482 
L 206.641393 108.859482 
L 206.736584 107.795576 
L 206.763693 107.795576 
L 206.867252 104.958494 
L 206.87623 104.958494 
L 206.87623 104.603859 
L 207.209856 104.603859 
L 207.209856 104.249224 
L 207.341667 104.249224 
L 207.385399 102.476047 
L 207.697308 102.476047 
L 207.783039 100.702871 
L 208.138904 100.702871 
L 208.138904 99.638965 
L 208.66447 99.638965 
L 208.725586 98.929694 
L 208.935931 98.929694 
L 208.935931 98.575059 
L 209.124048 98.575059 
L 209.124048 98.220424 
L 209.60375 98.220424 
L 209.60375 97.865788 
L 209.831421 97.865788 
L 209.831421 97.511153 
L 210.022229 97.511153 
L 210.022229 97.156518 
L 210.229905 97.156518 
L 210.229905 96.447247 
L 210.583307 96.447247 
L 210.583307 95.737976 
L 210.737455 95.737976 
L 210.737455 95.383341 
L 211.103056 95.383341 
L 211.103056 95.028706 
L 211.270794 95.028706 
L 211.270794 94.674071 
L 211.570404 94.674071 
L 211.657624 93.610165 
L 211.93061 93.610165 
L 211.93061 93.255529 
L 212.04348 93.255529 
L 212.04348 92.546259 
L 212.172618 92.546259 
L 212.172618 91.836988 
L 212.388129 91.836988 
L 212.484975 90.418447 
L 212.587952 90.418447 
L 212.587952 90.063812 
L 212.808609 90.063812 
L 212.808609 89.709176 
L 213.068733 89.709176 
L 213.178206 87.936 
L 213.248703 87.936 
L 213.331679 86.872094 
L 213.392084 86.872094 
L 213.392084 86.162824 
L 213.781617 86.162824 
L 213.85299 85.098918 
L 213.936433 85.098918 
L 213.936433 84.744282 
L 214.138858 84.744282 
L 214.205852 84.035012 
L 214.549231 84.035012 
L 214.659345 83.325741 
L 214.818904 83.325741 
L 214.836549 82.261835 
L 215.191797 82.261835 
L 215.269519 78.006212 
L 215.31829 78.006212 
L 215.31829 77.296941 
L 215.446785 77.296941 
L 215.446785 76.587671 
L 215.661825 76.587671 
L 215.661825 75.8784 
L 215.899454 75.8784 
L 215.985377 74.105224 
L 216.125885 74.105224 
L 216.175227 71.977412 
L 216.74683 71.977412 
L 216.773368 70.204235 
L 217.04194 70.204235 
L 217.073286 69.140329 
L 217.161817 69.140329 
L 217.161817 68.431059 
L 217.311886 68.431059 
L 217.422376 67.012518 
L 218.212577 67.012518 
L 218.212577 65.593976 
L 218.33745 65.593976 
L 218.33745 65.239341 
L 218.449373 65.239341 
L 218.449373 63.8208 
L 218.664047 63.8208 
L 218.664047 63.111529 
L 218.899999 63.111529 
L 218.899999 62.402259 
L 219.048624 62.402259 
L 219.107278 61.692988 
L 219.16575 61.692988 
L 219.16575 61.338353 
L 219.360895 61.338353 
L 219.446213 59.210541 
L 219.492171 59.210541 
L 219.492171 58.855906 
L 219.627095 58.855906 
L 219.631652 57.082729 
L 219.929985 57.082729 
L 219.929985 56.373459 
L 220.09074 56.373459 
L 220.186095 54.245647 
L 220.748294 54.245647 
L 220.748294 53.536376 
L 221.033791 53.536376 
L 221.080252 52.117835 
L 221.185421 52.117835 
L 221.252422 50.344659 
L 221.389863 50.344659 
L 221.39816 49.635388 
L 221.536602 49.635388 
L 221.536602 49.280753 
L 221.696501 49.280753 
L 221.747464 48.571482 
L 221.903569 48.571482 
L 221.903569 48.216847 
L 222.074402 48.216847 
L 222.178152 47.152941 
L 222.213932 47.152941 
L 222.217903 46.443671 
L 222.389853 46.443671 
L 222.389853 46.089035 
L 222.552445 46.089035 
L 222.552445 45.7344 
L 222.78506 45.7344 
L 222.835083 43.251953 
L 222.936643 43.251953 
L 223.024347 42.188047 
L 223.049059 42.188047 
L 223.049059 41.478776 
L 223.262507 41.478776 
L 223.337487 40.769506 
L 223.399122 40.769506 
L 223.469845 38.996329 
L 223.713472 38.996329 
L 223.817706 37.932424 
L 223.953983 37.932424 
L 223.953983 37.577788 
L 224.082088 37.577788 
L 224.100061 36.868518 
L 224.38532 36.868518 
L 224.38532 36.513882 
L 224.535122 36.513882 
L 224.535122 36.159247 
L 224.765417 36.159247 
L 224.765417 35.449976 
L 224.96378 35.449976 
L 224.96378 35.095341 
L 225.083507 35.095341 
L 225.083507 34.031435 
L 225.50332 34.031435 
L 225.50332 33.6768 
L 225.694091 33.6768 
L 225.776436 32.258259 
L 226.165138 32.258259 
L 226.165138 31.903624 
L 226.572768 31.903624 
L 226.652931 30.839718 
L 227.125336 30.839718 
L 227.200136 29.421176 
L 227.99805 29.421176 
L 227.99805 29.066541 
L 228.670732 29.066541 
L 228.670732 28.357271 
L 231.018779 28.357271 
L 231.018779 28.002635 
L 235.114077 28.002635 
L 235.114077 27.648 
L 360.8064 27.648 
L 360.8064 27.648 
" style="fill:none;stroke:#000080;stroke-linecap:square;stroke-width:1.5;"/>
   </g>
   <g id="line2d_36">
    <defs>
     <path d="M 0 6 
C 1.591219 6 3.117479 5.367802 4.242641 4.242641 
C 5.367802 3.117479 6 1.591219 6 0 
C 6 -1.591219 5.367802 -3.117479 4.242641 -4.242641 
C 3.117479 -5.367802 1.591219 -6 0 -6 
C -1.591219 -6 -3.117479 -5.367802 -4.242641 -4.242641 
C -5.367802 -3.117479 -6 -1.591219 -6 0 
C -6 1.591219 -5.367802 3.117479 -4.242641 4.242641 
C -3.117479 5.367802 -1.591219 6 0 6 
z
" id="m71da2ef844" style="stroke:#000080;stroke-width:1.5;"/>
    </defs>
    <g>
     <use style="fill-opacity:0;stroke:#000080;stroke-width:1.5;" x="131.563744" xlink:href="#m71da2ef844" y="240.429176"/>
     <use style="fill-opacity:0;stroke:#000080;stroke-width:1.5;" x="173.24883" xlink:href="#m71da2ef844" y="190.4256"/>
     <use style="fill-opacity:0;stroke:#000080;stroke-width:1.5;" x="220.09074" xlink:href="#m71da2ef844" y="56.018824"/>
     <use style="fill-opacity:0;stroke:#000080;stroke-width:1.5;" x="235.114077" xlink:href="#m71da2ef844" y="27.648"/>
     <use style="fill-opacity:0;stroke:#000080;stroke-width:1.5;" x="235.114077" xlink:href="#m71da2ef844" y="27.648"/>
     <use style="fill-opacity:0;stroke:#000080;stroke-width:1.5;" x="360.8064" xlink:href="#m71da2ef844" y="27.648"/>
    </g>
   </g>
   <g id="line2d_37">
    <path style="fill:none;stroke:#000080;stroke-linecap:square;stroke-width:1.5;"/>
    <g/>
   </g>
   <g id="line2d_38">
    <defs>
     <path d="M 0 1.5 
C 0.397805 1.5 0.77937 1.341951 1.06066 1.06066 
C 1.341951 0.77937 1.5 0.397805 1.5 0 
C 1.5 -0.397805 1.341951 -0.77937 1.06066 -1.06066 
C 0.77937 -1.341951 0.397805 -1.5 0 -1.5 
C -0.397805 -1.5 -0.77937 -1.341951 -1.06066 -1.06066 
C -1.341951 -0.77937 -1.5 -0.397805 -1.5 0 
C -1.5 0.397805 -1.341951 0.77937 -1.06066 1.06066 
C -0.77937 1.341951 -0.397805 1.5 0 1.5 
z
" id="macd0b97fe0" style="stroke:#ff00ff;"/>
    </defs>
    <g>
     <use style="fill:#ff00ff;stroke:#ff00ff;" x="213.672483" xlink:href="#macd0b97fe0" y="27.648"/>
     <use style="fill:#ff00ff;stroke:#ff00ff;" x="213.672483" xlink:href="#macd0b97fe0" y="27.648"/>
    </g>
   </g>
   <g id="line2d_39">
    <path d="M 36.933397 298.944 
L 36.933397 267.736094 
L 49.972572 267.736094 
L 49.972572 262.061929 
L 57.6 262.061929 
L 57.6 258.515576 
L 63.011746 258.515576 
L 63.011746 257.451671 
L 67.209423 257.451671 
L 67.209423 256.033129 
L 70.639174 256.033129 
L 70.639174 255.678494 
L 73.538988 255.678494 
L 73.538988 253.905318 
L 76.050921 253.905318 
L 76.050921 253.196047 
L 82.04153 253.196047 
L 82.04153 251.422871 
L 85.184077 251.422871 
L 85.184077 251.068235 
L 86.578163 251.068235 
L 86.578163 250.004329 
L 87.876026 250.004329 
L 87.876026 249.649694 
L 89.090095 249.649694 
L 89.090095 248.585788 
L 90.230539 248.585788 
L 90.230539 247.521882 
L 92.322865 247.521882 
L 92.322865 246.103341 
L 96.717523 246.103341 
L 96.717523 245.039435 
L 98.933205 245.039435 
L 98.933205 244.6848 
L 99.617337 244.6848 
L 99.617337 244.330165 
L 100.9152 244.330165 
L 100.9152 243.975529 
L 102.12927 243.975529 
L 102.12927 243.620894 
L 105.850679 243.620894 
L 105.850679 242.911624 
L 106.326946 242.911624 
L 106.326946 241.493082 
L 106.791453 241.493082 
L 106.791453 241.138447 
L 107.68741 241.138447 
L 107.68741 240.783812 
L 108.542628 240.783812 
L 108.542628 240.429176 
L 110.524623 240.429176 
L 110.524623 239.365271 
L 115.168444 239.365271 
L 115.168444 239.010635 
L 115.747307 239.010635 
L 115.747307 237.237459 
L 116.030193 237.237459 
L 116.030193 236.173553 
L 116.308887 236.173553 
L 116.308887 235.818918 
L 117.384126 235.818918 
L 117.384126 235.464282 
L 117.6436 235.464282 
L 117.6436 235.109647 
L 118.889854 235.109647 
L 118.889854 232.981835 
L 124.3016 232.981835 
L 124.3016 232.6272 
L 124.659926 232.6272 
L 124.659926 232.272565 
L 125.35673 232.272565 
L 125.35673 231.563294 
L 125.695686 231.563294 
L 125.695686 229.080847 
L 126.517282 229.080847 
L 126.517282 228.726212 
L 128.207619 228.726212 
L 128.207619 226.243765 
L 129.622688 226.243765 
L 129.622688 225.889129 
L 131.929028 225.889129 
L 131.929028 225.534494 
L 133.656071 225.534494 
L 133.656071 225.179859 
L 133.874812 225.179859 
L 133.874812 224.825224 
L 134.931919 224.825224 
L 134.931919 224.470588 
L 135.638065 224.470588 
L 135.638065 224.115953 
L 136.508678 224.115953 
L 136.508678 223.761318 
L 137.067478 223.761318 
L 137.067478 223.406682 
L 137.340774 223.406682 
L 137.340774 223.052047 
L 138.566146 223.052047 
L 138.566146 220.924235 
L 140.032723 220.924235 
L 140.032723 220.214965 
L 140.343665 220.214965 
L 140.343665 219.860329 
L 140.649551 219.860329 
L 140.649551 219.505694 
L 141.099251 219.505694 
L 141.173167 218.087153 
L 141.682602 218.087153 
L 141.682602 217.732518 
L 142.248405 217.732518 
L 142.248405 217.377882 
L 142.593581 217.377882 
L 142.593581 216.313976 
L 143.462475 216.313976 
L 143.462475 215.959341 
L 143.592659 215.959341 
L 143.592659 215.250071 
L 143.850356 215.250071 
L 143.914232 214.186165 
L 144.2304 214.186165 
L 144.2304 213.831529 
L 144.664294 213.831529 
L 144.664294 213.476894 
L 145.26728 213.476894 
L 145.26728 213.122259 
L 145.678157 213.122259 
L 145.678157 212.412988 
L 145.79392 212.412988 
L 145.79392 211.703718 
L 145.908976 211.703718 
L 145.908976 211.349082 
L 146.47393 211.349082 
L 146.584913 210.639812 
L 146.750169 210.639812 
L 146.804934 209.221271 
L 146.913986 209.221271 
L 146.913986 208.866635 
L 147.660152 208.866635 
L 147.712333 208.157365 
L 148.022421 208.157365 
L 148.124658 206.384188 
L 148.175569 206.384188 
L 148.276979 204.256376 
L 148.32748 204.256376 
L 148.32748 203.901741 
L 148.528138 203.901741 
L 148.528138 203.192471 
L 148.67724 203.192471 
L 148.775988 202.128565 
L 149.31003 202.128565 
L 149.357835 201.064659 
L 149.595059 201.064659 
L 149.689117 200.355388 
L 150.243797 200.355388 
L 150.334674 198.936847 
L 150.914911 198.936847 
L 151.00261 198.227576 
L 151.089903 198.227576 
L 151.089903 197.872941 
L 151.263283 197.872941 
L 151.263283 197.518306 
L 151.520392 197.518306 
L 151.520392 197.163671 
L 151.94125 197.163671 
L 151.982822 195.745129 
L 152.065693 195.745129 
L 152.065693 194.681224 
L 152.434157 194.681224 
L 152.434157 194.326588 
L 152.555392 194.326588 
L 152.555392 193.971953 
L 152.835271 193.971953 
L 152.874916 192.908047 
L 153.266838 192.908047 
L 153.344252 192.198776 
L 153.536404 192.198776 
L 153.5746 191.134871 
L 153.650761 191.134871 
L 153.650761 190.780235 
L 153.952355 190.780235 
L 153.989717 188.652424 
L 154.138425 188.652424 
L 154.138425 188.297788 
L 154.468783 188.297788 
L 154.468783 187.943153 
L 154.685842 187.943153 
L 154.793439 184.042165 
L 155.357123 184.042165 
L 155.460959 182.978259 
L 156.468962 182.978259 
L 156.501649 182.268988 
L 157.080512 182.268988 
L 157.143744 181.559718 
L 157.206765 181.559718 
L 157.238196 180.141176 
L 157.363398 180.141176 
L 157.363398 179.431906 
L 157.580516 179.431906 
L 157.61133 178.368 
L 157.825621 178.368 
L 157.825621 178.013365 
L 157.977206 178.013365 
L 157.977206 177.658729 
L 158.127579 177.658729 
L 158.187393 176.949459 
L 158.600851 176.949459 
L 158.688279 176.240188 
L 158.717331 176.240188 
L 158.746339 175.176282 
L 158.833095 175.176282 
L 158.833095 174.112376 
L 158.948151 174.112376 
L 158.948151 173.403106 
L 159.232748 173.403106 
L 159.232748 173.048471 
L 159.373449 173.048471 
L 159.373449 172.693835 
L 159.513105 172.693835 
L 159.596403 171.984565 
L 159.651731 171.984565 
L 159.761902 170.566024 
L 159.789344 170.566024 
L 159.789344 169.856753 
L 160.034538 169.856753 
L 160.061585 169.147482 
L 160.249837 169.147482 
L 160.303279 167.019671 
L 160.568234 167.019671 
L 160.673181 164.182588 
L 160.751508 164.182588 
L 160.751508 163.827953 
L 160.984551 163.827953 
L 161.010268 162.764047 
L 161.112783 162.764047 
L 161.138325 161.700141 
L 161.290852 161.700141 
L 161.341421 160.990871 
L 161.542347 160.990871 
L 161.642011 158.863059 
L 161.666845 158.863059 
L 161.691646 158.153788 
L 161.864343 158.153788 
L 161.937874 157.444518 
L 162.156757 157.444518 
L 162.156757 157.089882 
L 162.373122 157.089882 
L 162.373122 156.735247 
L 162.587027 156.735247 
L 162.657792 156.025976 
L 162.798527 156.025976 
L 162.845206 155.316706 
L 163.145827 155.316706 
L 163.168754 154.607435 
L 163.351171 154.607435 
L 163.373849 153.543529 
L 163.710781 153.543529 
L 163.79962 151.770353 
L 163.865975 151.770353 
L 163.865975 151.415718 
L 164.452864 151.415718 
L 164.538274 149.997176 
L 164.876089 149.997176 
L 164.959603 147.869365 
L 165.001222 147.869365 
L 165.063478 145.741553 
L 165.493592 145.741553 
L 165.594566 143.968376 
L 165.814821 143.968376 
L 165.814821 143.259106 
L 165.993131 143.259106 
L 166.052194 141.485929 
L 166.111072 141.485929 
L 166.150222 140.067388 
L 166.40273 140.067388 
L 166.479748 137.939576 
L 166.670924 137.939576 
L 166.670924 137.584941 
L 166.8978 137.584941 
L 166.991529 135.457129 
L 167.01022 135.457129 
L 167.047544 133.683953 
L 167.233064 133.683953 
L 167.325142 130.846871 
L 167.489756 130.846871 
L 167.489756 130.492235 
L 167.634879 130.492235 
L 167.725016 129.073694 
L 167.92181 129.073694 
L 168.028291 126.945882 
L 168.134173 126.945882 
L 168.239461 125.527341 
L 168.326754 125.527341 
L 168.326754 125.172706 
L 168.534619 125.172706 
L 168.637696 123.754165 
L 168.654821 123.754165 
L 168.654821 123.399529 
L 168.77426 123.399529 
L 168.859111 121.980988 
L 169.094679 121.980988 
L 169.094679 121.626353 
L 169.211366 121.626353 
L 169.244573 120.562447 
L 169.491772 120.562447 
L 169.540824 119.143906 
L 169.671008 119.143906 
L 169.671008 118.789271 
L 170.008516 118.789271 
L 170.040346 118.08 
L 170.308749 118.08 
L 170.418164 116.661459 
L 170.449309 116.661459 
L 170.449309 115.952188 
L 170.727317 115.952188 
L 170.834332 114.888282 
L 170.864796 114.888282 
L 170.880009 114.179012 
L 171.196684 114.179012 
L 171.241492 113.469741 
L 171.375276 113.469741 
L 171.434432 112.760471 
L 171.654625 112.760471 
L 171.698355 110.987294 
L 171.828941 110.987294 
L 171.915498 109.568753 
L 171.972982 109.568753 
L 171.972982 109.214118 
L 172.087425 109.214118 
L 172.172803 107.440941 
L 172.356469 107.440941 
L 172.440637 105.667765 
L 172.677089 105.667765 
L 172.718509 104.958494 
L 172.910605 104.958494 
L 172.910605 104.603859 
L 173.060174 104.603859 
L 173.168209 103.894588 
L 173.221995 103.894588 
L 173.329107 102.476047 
L 173.382435 102.476047 
L 173.422332 101.412141 
L 173.686173 101.412141 
L 173.686173 100.702871 
L 173.907565 100.702871 
L 173.946365 99.9936 
L 174.393216 99.9936 
L 174.393216 99.638965 
L 174.506426 99.638965 
L 174.606487 98.929694 
L 174.63142 98.929694 
L 174.63142 98.575059 
L 174.743209 98.575059 
L 174.743209 98.220424 
L 174.878944 98.220424 
L 174.989276 96.801882 
L 175.256283 96.801882 
L 175.316441 95.737976 
L 175.400341 95.737976 
L 175.448117 94.674071 
L 175.531433 94.674071 
L 175.626202 93.610165 
L 175.649819 93.610165 
L 175.696966 92.191624 
L 175.802616 92.191624 
L 175.837702 91.127718 
L 176.023726 91.127718 
L 176.127562 89.709176 
L 176.276542 89.709176 
L 176.356276 88.999906 
L 176.469599 88.999906 
L 176.492182 88.290635 
L 176.582244 88.290635 
L 176.582244 87.936 
L 176.72768 87.936 
L 176.749956 87.226729 
L 176.949256 87.226729 
L 176.949256 86.872094 
L 177.255141 86.872094 
L 177.265975 86.162824 
L 177.502736 86.162824 
L 177.502736 85.808188 
L 177.820865 85.808188 
L 177.831377 85.098918 
L 178.03 85.098918 
L 178.081923 84.389647 
L 178.247119 84.389647 
L 178.298446 83.680376 
L 178.38028 83.680376 
L 178.390485 82.616471 
L 178.512506 82.616471 
L 178.532766 81.552565 
L 178.633741 81.552565 
L 178.633741 81.197929 
L 178.863946 81.197929 
L 178.943362 79.779388 
L 179.130641 79.779388 
L 179.23822 78.715482 
L 179.286917 78.715482 
L 179.325784 78.006212 
L 179.412941 78.006212 
L 179.451549 77.296941 
L 179.528527 77.296941 
L 179.586055 76.587671 
L 179.861652 76.587671 
L 179.861652 76.233035 
L 179.993268 76.233035 
L 180.096038 75.523765 
L 180.483348 75.523765 
L 180.483348 75.169129 
L 180.692116 75.169129 
L 180.782166 74.459859 
L 180.880727 74.459859 
L 180.987662 71.977412 
L 181.085154 71.977412 
L 181.120481 71.268141 
L 181.539308 71.268141 
L 181.539308 70.913506 
L 181.711104 70.913506 
L 181.719653 70.204235 
L 181.830435 70.204235 
L 181.923667 68.785694 
L 181.965892 68.785694 
L 182.024849 65.948612 
L 182.167267 65.948612 
L 182.167267 65.593976 
L 182.308614 65.593976 
L 182.308614 65.239341 
L 182.457127 65.239341 
L 182.457127 64.884706 
L 182.645203 64.884706 
L 182.718289 64.175435 
L 182.911809 64.175435 
L 182.911809 63.8208 
L 183.063612 63.8208 
L 183.063612 63.466165 
L 183.488484 63.466165 
L 183.597087 61.692988 
L 183.64344 61.692988 
L 183.689679 60.983718 
L 183.865883 60.983718 
L 183.888744 59.919812 
L 184.235859 59.919812 
L 184.235859 59.210541 
L 184.399633 59.210541 
L 184.444052 58.501271 
L 184.525216 58.501271 
L 184.525216 58.146635 
L 184.671895 58.146635 
L 184.686501 56.728094 
L 184.911444 56.728094 
L 184.911444 56.373459 
L 185.219074 56.373459 
L 185.219074 56.018824 
L 185.346371 56.018824 
L 185.43076 54.954918 
L 185.535716 54.954918 
L 185.598409 54.245647 
L 185.695519 54.245647 
L 185.695519 53.891012 
L 186.011111 53.891012 
L 186.011111 53.536376 
L 186.361605 53.536376 
L 186.361605 53.181741 
L 186.481424 53.181741 
L 186.514572 52.472471 
L 186.633424 52.472471 
L 186.731897 51.408565 
L 186.881894 51.408565 
L 186.933788 50.344659 
L 187.017812 50.344659 
L 187.114298 49.280753 
L 187.381856 49.280753 
L 187.381856 48.926118 
L 187.714147 48.926118 
L 187.757599 48.216847 
L 187.856542 48.216847 
L 187.856542 47.862212 
L 188.198802 47.862212 
L 188.198802 47.507576 
L 188.659467 47.507576 
L 188.659467 47.152941 
L 188.835937 47.152941 
L 188.94103 46.443671 
L 189.080246 46.443671 
L 189.080246 46.089035 
L 189.621418 46.089035 
L 189.621418 45.7344 
L 190.059884 45.7344 
L 190.059884 45.379765 
L 190.207426 45.379765 
L 190.240057 44.670494 
L 190.396979 44.670494 
L 190.402367 43.961224 
L 190.749305 43.961224 
L 190.754593 43.251953 
L 191.75832 43.251953 
L 191.75832 42.897318 
L 191.903121 42.897318 
L 191.903121 42.542682 
L 192.105956 42.542682 
L 192.184522 41.833412 
L 192.292017 41.833412 
L 192.292017 41.478776 
L 193.186388 41.478776 
L 193.186388 41.124141 
L 193.955614 41.124141 
L 194.057911 40.414871 
L 194.256463 40.414871 
L 194.269626 39.7056 
L 194.771643 39.7056 
L 194.771643 39.350965 
L 194.92052 39.350965 
L 194.92052 38.996329 
L 195.051406 38.996329 
L 195.051406 38.641694 
L 195.193918 38.641694 
L 195.193918 38.287059 
L 195.347788 38.287059 
L 195.347788 37.932424 
L 195.757464 37.932424 
L 195.757464 37.577788 
L 195.922885 37.577788 
L 195.987048 36.513882 
L 196.13459 36.513882 
L 196.13459 36.159247 
L 197.442513 36.159247 
L 197.442513 35.804612 
L 197.707417 35.804612 
L 197.707417 35.449976 
L 197.896443 35.449976 
L 197.896443 35.095341 
L 198.036976 35.095341 
L 198.036976 34.740706 
L 198.183593 34.740706 
L 198.272436 33.6768 
L 198.751982 33.6768 
L 198.751982 33.322165 
L 198.968466 33.322165 
L 198.968466 32.967529 
L 200.246274 32.967529 
L 200.300463 32.258259 
L 200.474719 32.258259 
L 200.490481 31.548988 
L 201.101209 31.548988 
L 201.125596 30.839718 
L 201.391787 30.839718 
L 201.391787 30.485082 
L 201.532429 30.485082 
L 201.532429 30.130447 
L 202.194402 30.130447 
L 202.194402 29.775812 
L 202.875552 29.775812 
L 202.875552 29.421176 
L 204.011913 29.421176 
L 204.011913 29.066541 
L 205.253074 29.066541 
L 205.253074 28.711906 
L 205.750367 28.711906 
L 205.750367 28.357271 
L 209.921342 28.357271 
L 209.921342 28.002635 
L 213.672483 28.002635 
L 213.672483 27.648 
L 360.8064 27.648 
L 360.8064 27.648 
" style="fill:none;stroke:#ff00ff;stroke-linecap:square;stroke-width:1.5;"/>
   </g>
   <g id="line2d_40">
    <defs>
     <path d="M -0 8.485281 
L 5.091169 0 
L 0 -8.485281 
L -5.091169 -0 
z
" id="ma169a6ed88" style="stroke:#ff00ff;stroke-linejoin:miter;stroke-width:1.5;"/>
    </defs>
    <g>
     <use style="fill-opacity:0;stroke:#ff00ff;stroke-linejoin:miter;stroke-width:1.5;" x="116.308887" xlink:href="#ma169a6ed88" y="236.173553"/>
     <use style="fill-opacity:0;stroke:#ff00ff;stroke-linejoin:miter;stroke-width:1.5;" x="164.876089" xlink:href="#ma169a6ed88" y="149.287906"/>
     <use style="fill-opacity:0;stroke:#ff00ff;stroke-linejoin:miter;stroke-width:1.5;" x="193.186388" xlink:href="#ma169a6ed88" y="41.124141"/>
     <use style="fill-opacity:0;stroke:#ff00ff;stroke-linejoin:miter;stroke-width:1.5;" x="213.672483" xlink:href="#ma169a6ed88" y="27.648"/>
     <use style="fill-opacity:0;stroke:#ff00ff;stroke-linejoin:miter;stroke-width:1.5;" x="213.672483" xlink:href="#ma169a6ed88" y="27.648"/>
     <use style="fill-opacity:0;stroke:#ff00ff;stroke-linejoin:miter;stroke-width:1.5;" x="360.8064" xlink:href="#ma169a6ed88" y="27.648"/>
    </g>
   </g>
   <g id="line2d_41">
    <path style="fill:none;stroke:#ff00ff;stroke-linecap:square;stroke-width:1.5;"/>
    <g/>
   </g>
   <g id="line2d_42">
    <path clip-path="url(#p0de8afd530)" d="M 144.479563 213.831529 
" style="fill:none;stroke:#ff00ff;stroke-linecap:square;stroke-width:1.5;"/>
    <defs>
     <path d="M -12 12 
L 12 -12 
M -12 -12 
L 12 12 
" id="mfe42e1a55e" style="stroke:#ff00ff;"/>
    </defs>
    <g clip-path="url(#p0de8afd530)">
     <use style="fill:#ff00ff;stroke:#ff00ff;" x="144.479563" xlink:href="#mfe42e1a55e" y="213.831529"/>
    </g>
   </g>
   <g id="line2d_43">
    <path d="M 360.8064 27.648 
L 380.514816 293.51808 
" style="fill:none;stroke:#000080;stroke-linecap:square;stroke-width:1.5;"/>
    <g>
     <use style="fill-opacity:0;stroke:#000080;stroke-width:1.5;" x="360.8064" xlink:href="#m71da2ef844" y="27.648"/>
     <use style="fill-opacity:0;stroke:#000080;stroke-width:1.5;" x="380.514816" xlink:href="#m71da2ef844" y="293.51808"/>
    </g>
   </g>
   <g id="line2d_44">
    <path d="M 360.8064 27.648 
L 380.514816 163.296 
" style="fill:none;stroke:#ff00ff;stroke-linecap:square;stroke-width:1.5;"/>
    <g>
     <use style="fill-opacity:0;stroke:#ff00ff;stroke-linejoin:miter;stroke-width:1.5;" x="360.8064" xlink:href="#ma169a6ed88" y="27.648"/>
     <use style="fill-opacity:0;stroke:#ff00ff;stroke-linejoin:miter;stroke-width:1.5;" x="380.514816" xlink:href="#ma169a6ed88" y="163.296"/>
    </g>
   </g>
   <g id="line2d_45">
    <path d="M 360.8064 298.944 
L 360.8064 27.648 
" style="fill:none;stroke:#000000;stroke-linecap:square;stroke-width:1.5;"/>
   </g>
   <g id="patch_3">
    <path d="M 57.6 298.944 
L 360.8064 298.944 
" style="fill:none;stroke:#000000;stroke-linecap:square;stroke-linejoin:miter;stroke-width:0.8;"/>
   </g>
   <g id="patch_4">
    <path d="M 57.6 27.648 
L 360.8064 27.648 
" style="fill:none;stroke:#000000;stroke-linecap:square;stroke-linejoin:miter;stroke-width:0.8;"/>
   </g>
   <g id="text_13">
    <!-- different -->
    <g transform="translate(386.578944 297.381205)scale(0.14 -0.14)">
     <use xlink:href="#DejaVuSans-64"/>
     <use x="63.476562" xlink:href="#DejaVuSans-69"/>
     <use x="91.259766" xlink:href="#DejaVuSans-66"/>
     <use x="126.464844" xlink:href="#DejaVuSans-66"/>
     <use x="161.669922" xlink:href="#DejaVuSans-65"/>
     <use x="223.193359" xlink:href="#DejaVuSans-72"/>
     <use x="262.056641" xlink:href="#DejaVuSans-65"/>
     <use x="323.580078" xlink:href="#DejaVuSans-6e"/>
     <use x="386.958984" xlink:href="#DejaVuSans-74"/>
    </g>
   </g>
   <g id="text_14">
    <!-- cma.fmin  -->
    <g transform="translate(386.578944 167.159125)scale(0.14 -0.14)">
     <use xlink:href="#DejaVuSans-63"/>
     <use x="54.980469" xlink:href="#DejaVuSans-6d"/>
     <use x="152.392578" xlink:href="#DejaVuSans-61"/>
     <use x="213.671875" xlink:href="#DejaVuSans-2e"/>
     <use x="245.458984" xlink:href="#DejaVuSans-66"/>
     <use x="280.664062" xlink:href="#DejaVuSans-6d"/>
     <use x="378.076172" xlink:href="#DejaVuSans-69"/>
     <use x="405.859375" xlink:href="#DejaVuSans-6e"/>
     <use x="469.238281" xlink:href="#DejaVuSans-20"/>
    </g>
   </g>
   <g id="text_15">
    <!-- best 2009 -->
    <g transform="translate(386.578944 36.937045)scale(0.14 -0.14)">
     <defs>
      <path d="M 3116 1747 
Q 3116 2381 2855 2742 
Q 2594 3103 2138 3103 
Q 1681 3103 1420 2742 
Q 1159 2381 1159 1747 
Q 1159 1113 1420 752 
Q 1681 391 2138 391 
Q 2594 391 2855 752 
Q 3116 1113 3116 1747 
z
M 1159 2969 
Q 1341 3281 1617 3432 
Q 1894 3584 2278 3584 
Q 2916 3584 3314 3078 
Q 3713 2572 3713 1747 
Q 3713 922 3314 415 
Q 2916 -91 2278 -91 
Q 1894 -91 1617 61 
Q 1341 213 1159 525 
L 1159 0 
L 581 0 
L 581 4863 
L 1159 4863 
L 1159 2969 
z
" id="DejaVuSans-62" transform="scale(0.015625)"/>
      <path d="M 703 97 
L 703 672 
Q 941 559 1184 500 
Q 1428 441 1663 441 
Q 2288 441 2617 861 
Q 2947 1281 2994 2138 
Q 2813 1869 2534 1725 
Q 2256 1581 1919 1581 
Q 1219 1581 811 2004 
Q 403 2428 403 3163 
Q 403 3881 828 4315 
Q 1253 4750 1959 4750 
Q 2769 4750 3195 4129 
Q 3622 3509 3622 2328 
Q 3622 1225 3098 567 
Q 2575 -91 1691 -91 
Q 1453 -91 1209 -44 
Q 966 3 703 97 
z
M 1959 2075 
Q 2384 2075 2632 2365 
Q 2881 2656 2881 3163 
Q 2881 3666 2632 3958 
Q 2384 4250 1959 4250 
Q 1534 4250 1286 3958 
Q 1038 3666 1038 3163 
Q 1038 2656 1286 2365 
Q 1534 2075 1959 2075 
z
" id="DejaVuSans-39" transform="scale(0.015625)"/>
     </defs>
     <use xlink:href="#DejaVuSans-62"/>
     <use x="63.476562" xlink:href="#DejaVuSans-65"/>
     <use x="125" xlink:href="#DejaVuSans-73"/>
     <use x="177.099609" xlink:href="#DejaVuSans-74"/>
     <use x="216.308594" xlink:href="#DejaVuSans-20"/>
     <use x="248.095703" xlink:href="#DejaVuSans-32"/>
     <use x="311.71875" xlink:href="#DejaVuSans-30"/>
     <use x="375.341797" xlink:href="#DejaVuSans-30"/>
     <use x="438.964844" xlink:href="#DejaVuSans-39"/>
    </g>
   </g>
   <g id="text_16">
    <!-- bbob f14, 3-D -->
    <g transform="translate(60.632064 38.111366)scale(0.102 -0.102)">
     <defs>
      <path d="M 2597 2516 
Q 3050 2419 3304 2112 
Q 3559 1806 3559 1356 
Q 3559 666 3084 287 
Q 2609 -91 1734 -91 
Q 1441 -91 1130 -33 
Q 819 25 488 141 
L 488 750 
Q 750 597 1062 519 
Q 1375 441 1716 441 
Q 2309 441 2620 675 
Q 2931 909 2931 1356 
Q 2931 1769 2642 2001 
Q 2353 2234 1838 2234 
L 1294 2234 
L 1294 2753 
L 1863 2753 
Q 2328 2753 2575 2939 
Q 2822 3125 2822 3475 
Q 2822 3834 2567 4026 
Q 2313 4219 1838 4219 
Q 1578 4219 1281 4162 
Q 984 4106 628 3988 
L 628 4550 
Q 988 4650 1302 4700 
Q 1616 4750 1894 4750 
Q 2613 4750 3031 4423 
Q 3450 4097 3450 3541 
Q 3450 3153 3228 2886 
Q 3006 2619 2597 2516 
z
" id="DejaVuSans-33" transform="scale(0.015625)"/>
      <path d="M 1259 4147 
L 1259 519 
L 2022 519 
Q 2988 519 3436 956 
Q 3884 1394 3884 2338 
Q 3884 3275 3436 3711 
Q 2988 4147 2022 4147 
L 1259 4147 
z
M 628 4666 
L 1925 4666 
Q 3281 4666 3915 4102 
Q 4550 3538 4550 2338 
Q 4550 1131 3912 565 
Q 3275 0 1925 0 
L 628 0 
L 628 4666 
z
" id="DejaVuSans-44" transform="scale(0.015625)"/>
     </defs>
     <use xlink:href="#DejaVuSans-62"/>
     <use x="63.476562" xlink:href="#DejaVuSans-62"/>
     <use x="126.953125" xlink:href="#DejaVuSans-6f"/>
     <use x="188.134766" xlink:href="#DejaVuSans-62"/>
     <use x="251.611328" xlink:href="#DejaVuSans-20"/>
     <use x="283.398438" xlink:href="#DejaVuSans-66"/>
     <use x="318.603516" xlink:href="#DejaVuSans-31"/>
     <use x="382.226562" xlink:href="#DejaVuSans-34"/>
     <use x="445.849609" xlink:href="#DejaVuSans-2c"/>
     <use x="477.636719" xlink:href="#DejaVuSans-20"/>
     <use x="509.423828" xlink:href="#DejaVuSans-33"/>
     <use x="573.046875" xlink:href="#DejaVuSans-2d"/>
     <use x="609.130859" xlink:href="#DejaVuSans-44"/>
    </g>
    <!-- 51 targets: 100..1e-08 -->
    <g transform="translate(60.632064 49.533135)scale(0.102 -0.102)">
     <defs>
      <path d="M 691 4666 
L 3169 4666 
L 3169 4134 
L 1269 4134 
L 1269 2991 
Q 1406 3038 1543 3061 
Q 1681 3084 1819 3084 
Q 2600 3084 3056 2656 
Q 3513 2228 3513 1497 
Q 3513 744 3044 326 
Q 2575 -91 1722 -91 
Q 1428 -91 1123 -41 
Q 819 9 494 109 
L 494 744 
Q 775 591 1075 516 
Q 1375 441 1709 441 
Q 2250 441 2565 725 
Q 2881 1009 2881 1497 
Q 2881 1984 2565 2268 
Q 2250 2553 1709 2553 
Q 1456 2553 1204 2497 
Q 953 2441 691 2322 
L 691 4666 
z
" id="DejaVuSans-35" transform="scale(0.015625)"/>
      <path d="M 750 794 
L 1409 794 
L 1409 0 
L 750 0 
L 750 794 
z
M 750 3309 
L 1409 3309 
L 1409 2516 
L 750 2516 
L 750 3309 
z
" id="DejaVuSans-3a" transform="scale(0.015625)"/>
     </defs>
     <use xlink:href="#DejaVuSans-35"/>
     <use x="63.623047" xlink:href="#DejaVuSans-31"/>
     <use x="127.246094" xlink:href="#DejaVuSans-20"/>
     <use x="159.033203" xlink:href="#DejaVuSans-74"/>
     <use x="198.242188" xlink:href="#DejaVuSans-61"/>
     <use x="259.521484" xlink:href="#DejaVuSans-72"/>
     <use x="298.884766" xlink:href="#DejaVuSans-67"/>
     <use x="362.361328" xlink:href="#DejaVuSans-65"/>
     <use x="423.884766" xlink:href="#DejaVuSans-74"/>
     <use x="463.09375" xlink:href="#DejaVuSans-73"/>
     <use x="515.193359" xlink:href="#DejaVuSans-3a"/>
     <use x="548.884766" xlink:href="#DejaVuSans-20"/>
     <use x="580.671875" xlink:href="#DejaVuSans-31"/>
     <use x="644.294922" xlink:href="#DejaVuSans-30"/>
     <use x="707.917969" xlink:href="#DejaVuSans-30"/>
     <use x="771.541016" xlink:href="#DejaVuSans-2e"/>
     <use x="803.328125" xlink:href="#DejaVuSans-2e"/>
     <use x="835.115234" xlink:href="#DejaVuSans-31"/>
     <use x="898.738281" xlink:href="#DejaVuSans-65"/>
     <use x="960.261719" xlink:href="#DejaVuSans-2d"/>
     <use x="996.345703" xlink:href="#DejaVuSans-30"/>
     <use x="1059.96875" xlink:href="#DejaVuSans-38"/>
    </g>
    <!-- 15 instances -->
    <g transform="translate(60.632064 60.954904)scale(0.102 -0.102)">
     <use xlink:href="#DejaVuSans-31"/>
     <use x="63.623047" xlink:href="#DejaVuSans-35"/>
     <use x="127.246094" xlink:href="#DejaVuSans-20"/>
     <use x="159.033203" xlink:href="#DejaVuSans-69"/>
     <use x="186.816406" xlink:href="#DejaVuSans-6e"/>
     <use x="250.195312" xlink:href="#DejaVuSans-73"/>
     <use x="302.294922" xlink:href="#DejaVuSans-74"/>
     <use x="341.503906" xlink:href="#DejaVuSans-61"/>
     <use x="402.783203" xlink:href="#DejaVuSans-6e"/>
     <use x="466.162109" xlink:href="#DejaVuSans-63"/>
     <use x="521.142578" xlink:href="#DejaVuSans-65"/>
     <use x="582.666016" xlink:href="#DejaVuSans-73"/>
    </g>
   </g>
   <g id="text_17">
    <!-- v2.6 -->
    <g style="fill:#808080;" transform="translate(198.292262 294.151352)scale(0.1 -0.1)">
     <use xlink:href="#DejaVuSans-76"/>
     <use x="59.179688" xlink:href="#DejaVuSans-32"/>
     <use x="122.802734" xlink:href="#DejaVuSans-2e"/>
     <use x="154.589844" xlink:href="#DejaVuSans-36"/>
    </g>
   </g>
   <g id="text_18">
    <!-- 14 Sum of different powers -->
    <g transform="translate(72.964137 21.648)scale(0.2 -0.2)">
     <defs>
      <path d="M 3425 4513 
L 3425 3897 
Q 3066 4069 2747 4153 
Q 2428 4238 2131 4238 
Q 1616 4238 1336 4038 
Q 1056 3838 1056 3469 
Q 1056 3159 1242 3001 
Q 1428 2844 1947 2747 
L 2328 2669 
Q 3034 2534 3370 2195 
Q 3706 1856 3706 1288 
Q 3706 609 3251 259 
Q 2797 -91 1919 -91 
Q 1588 -91 1214 -16 
Q 841 59 441 206 
L 441 856 
Q 825 641 1194 531 
Q 1563 422 1919 422 
Q 2459 422 2753 634 
Q 3047 847 3047 1241 
Q 3047 1584 2836 1778 
Q 2625 1972 2144 2069 
L 1759 2144 
Q 1053 2284 737 2584 
Q 422 2884 422 3419 
Q 422 4038 858 4394 
Q 1294 4750 2059 4750 
Q 2388 4750 2728 4690 
Q 3069 4631 3425 4513 
z
" id="DejaVuSans-53" transform="scale(0.015625)"/>
      <path d="M 269 3500 
L 844 3500 
L 1563 769 
L 2278 3500 
L 2956 3500 
L 3675 769 
L 4391 3500 
L 4966 3500 
L 4050 0 
L 3372 0 
L 2619 2869 
L 1863 0 
L 1184 0 
L 269 3500 
z
" id="DejaVuSans-77" transform="scale(0.015625)"/>
     </defs>
     <use xlink:href="#DejaVuSans-31"/>
     <use x="63.623047" xlink:href="#DejaVuSans-34"/>
     <use x="127.246094" xlink:href="#DejaVuSans-20"/>
     <use x="159.033203" xlink:href="#DejaVuSans-53"/>
     <use x="222.509766" xlink:href="#DejaVuSans-75"/>
     <use x="285.888672" xlink:href="#DejaVuSans-6d"/>
     <use x="383.300781" xlink:href="#DejaVuSans-20"/>
     <use x="415.087891" xlink:href="#DejaVuSans-6f"/>
     <use x="476.269531" xlink:href="#DejaVuSans-66"/>
     <use x="511.474609" xlink:href="#DejaVuSans-20"/>
     <use x="543.261719" xlink:href="#DejaVuSans-64"/>
     <use x="606.738281" xlink:href="#DejaVuSans-69"/>
     <use x="634.521484" xlink:href="#DejaVuSans-66"/>
     <use x="669.726562" xlink:href="#DejaVuSans-66"/>
     <use x="704.931641" xlink:href="#DejaVuSans-65"/>
     <use x="766.455078" xlink:href="#DejaVuSans-72"/>
     <use x="805.318359" xlink:href="#DejaVuSans-65"/>
     <use x="866.841797" xlink:href="#DejaVuSans-6e"/>
     <use x="930.220703" xlink:href="#DejaVuSans-74"/>
     <use x="969.429688" xlink:href="#DejaVuSans-20"/>
     <use x="1001.216797" xlink:href="#DejaVuSans-70"/>
     <use x="1064.693359" xlink:href="#DejaVuSans-6f"/>
     <use x="1125.875" xlink:href="#DejaVuSans-77"/>
     <use x="1207.662109" xlink:href="#DejaVuSans-65"/>
     <use x="1269.185547" xlink:href="#DejaVuSans-72"/>
     <use x="1310.298828" xlink:href="#DejaVuSans-73"/>
    </g>
   </g>
  </g>
 </g>
 <defs>
  <clipPath id="p0de8afd530">
   <rect height="271.296" width="303.2064" x="57.6" y="27.648"/>
  </clipPath>
 </defs>
</svg>
