<?xml version="1.0" encoding="utf-8" standalone="no"?>
<!DOCTYPE svg PUBLIC "-//W3C//DTD SVG 1.1//EN"
  "http://www.w3.org/Graphics/SVG/1.1/DTD/svg11.dtd">
<svg height="345.6pt" version="1.1" viewBox="0 0 460.8 345.6" width="460.8pt" xmlns="http://www.w3.org/2000/svg" xmlns:xlink="http://www.w3.org/1999/xlink">
 <metadata>
  <rdf:RDF xmlns:cc="http://creativecommons.org/ns#" xmlns:dc="http://purl.org/dc/elements/1.1/" xmlns:rdf="http://www.w3.org/1999/02/22-rdf-syntax-ns#">
   <cc:Work>
    <dc:type rdf:resource="http://purl.org/dc/dcmitype/StillImage"/>
    <dc:date>2022-05-22T15:10:42.207440</dc:date>
    <dc:format>image/svg+xml</dc:format>
    <dc:creator>
     <cc:Agent>
      <dc:title>Matplotlib v3.4.3, https://matplotlib.org/</dc:title>
     </cc:Agent>
    </dc:creator>
   </cc:Work>
  </rdf:RDF>
 </metadata>
 <defs>
  <style type="text/css">*{stroke-linecap:butt;stroke-linejoin:round;}</style>
 </defs>
 <g id="figure_1">
  <g id="patch_1">
   <path d="M 0 345.6 
L 460.8 345.6 
L 460.8 0 
L 0 0 
z
" style="fill:#ffffff;"/>
  </g>
  <g id="axes_1">
   <g id="patch_2">
    <path d="M 57.6 298.944 
L 360.8064 298.944 
L 360.8064 27.648 
L 57.6 27.648 
z
" style="fill:#ffffff;"/>
   </g>
   <g id="line2d_1">
    <path d="M 65.227428 298.944 
L 65.227428 288.304941 
L 74.836851 288.304941 
L 74.836851 267.026824 
L 81.166416 267.026824 
L 81.166416 261.707294 
L 91.305777 261.707294 
L 91.305777 240.429176 
L 97.857967 240.429176 
L 97.857967 235.109647 
L 99.950294 235.109647 
L 99.950294 229.790118 
L 100.9152 229.790118 
L 100.9152 224.470588 
L 106.560633 224.470588 
L 106.560633 219.151059 
L 112.487797 219.151059 
L 112.487797 213.831529 
L 114.418881 213.831529 
L 114.418881 208.512 
L 115.314838 208.512 
L 115.314838 203.192471 
L 115.747307 203.192471 
L 115.747307 197.872941 
L 116.583514 197.872941 
L 116.583514 187.233882 
L 116.988079 187.233882 
L 116.988079 176.594824 
L 127.458055 176.594824 
L 127.458055 171.275294 
L 128.133992 171.275294 
L 128.133992 165.955765 
L 128.354013 165.955765 
L 128.354013 160.636235 
L 128.786481 160.636235 
L 128.786481 155.316706 
L 129.209231 155.316706 
L 129.209231 149.997176 
L 129.417095 149.997176 
L 129.417095 144.677647 
L 129.622688 144.677647 
L 129.622688 128.719059 
L 129.826058 128.719059 
L 129.826058 118.08 
L 130.027253 118.08 
L 130.027253 107.440941 
L 130.226319 107.440941 
L 130.226319 102.121412 
L 130.4233 102.121412 
L 130.4233 96.801882 
L 130.811181 96.801882 
L 130.811181 91.482353 
L 131.191226 91.482353 
L 131.191226 86.162824 
L 131.747272 86.162824 
L 131.747272 80.843294 
L 132.287354 80.843294 
L 132.287354 75.523765 
L 132.46399 75.523765 
L 132.46399 70.204235 
L 132.984158 70.204235 
L 132.984158 64.884706 
L 133.323114 64.884706 
L 133.323114 48.926118 
L 133.656071 48.926118 
L 133.656071 32.967529 
L 133.983236 32.967529 
L 133.983236 27.648 
L 360.8064 27.648 
" style="fill:none;stroke:#f5deb3;stroke-linecap:square;stroke-width:4;"/>
   </g>
   <g id="line2d_2">
    <defs>
     <path d="M -0 7.778175 
L 7.778175 0 
L 0 -7.778175 
L -7.778175 -0 
z
" id="m75795db868" style="stroke:#f5deb3;stroke-linejoin:miter;stroke-width:1.5;"/>
    </defs>
    <g>
     <use style="fill:#f5deb3;stroke:#f5deb3;stroke-linejoin:miter;stroke-width:1.5;" x="106.560633" xlink:href="#m75795db868" y="224.470588"/>
     <use style="fill:#f5deb3;stroke:#f5deb3;stroke-linejoin:miter;stroke-width:1.5;" x="129.622688" xlink:href="#m75795db868" y="144.677647"/>
     <use style="fill:#f5deb3;stroke:#f5deb3;stroke-linejoin:miter;stroke-width:1.5;" x="133.983236" xlink:href="#m75795db868" y="27.648"/>
     <use style="fill:#f5deb3;stroke:#f5deb3;stroke-linejoin:miter;stroke-width:1.5;" x="133.983236" xlink:href="#m75795db868" y="27.648"/>
     <use style="fill:#f5deb3;stroke:#f5deb3;stroke-linejoin:miter;stroke-width:1.5;" x="360.8064" xlink:href="#m75795db868" y="27.648"/>
    </g>
   </g>
   <g id="line2d_3">
    <path style="fill:none;stroke:#f5deb3;stroke-linecap:square;stroke-width:4;"/>
    <g/>
   </g>
   <g id="line2d_4">
    <path d="M 360.8064 27.648 
L 380.514816 33.07392 
" style="fill:none;stroke:#f5deb3;stroke-linecap:square;stroke-width:4;"/>
    <g>
     <use style="fill:#f5deb3;stroke:#f5deb3;stroke-linejoin:miter;stroke-width:1.5;" x="360.8064" xlink:href="#m75795db868" y="27.648"/>
     <use style="fill:#f5deb3;stroke:#f5deb3;stroke-linejoin:miter;stroke-width:1.5;" x="380.514816" xlink:href="#m75795db868" y="33.07392"/>
    </g>
   </g>
   <g id="matplotlib.axis_1">
    <g id="xtick_1">
     <g id="line2d_5">
      <path clip-path="url(#pe60a88e56a)" d="M 57.6 298.944 
L 57.6 27.648 
" style="fill:none;stroke:#b0b0b0;stroke-linecap:square;stroke-width:0.8;"/>
     </g>
     <g id="line2d_6">
      <defs>
       <path d="M 0 0 
L 0 3.5 
" id="mfdf203ed0c" style="stroke:#000000;stroke-width:0.8;"/>
      </defs>
      <g>
       <use style="stroke:#000000;stroke-width:0.8;" x="57.6" xlink:href="#mfdf203ed0c" y="298.944"/>
      </g>
     </g>
     <g id="text_1">
      <!-- 0 -->
      <g transform="translate(52.191875 318.861344)scale(0.17 -0.17)">
       <defs>
        <path d="M 2034 4250 
Q 1547 4250 1301 3770 
Q 1056 3291 1056 2328 
Q 1056 1369 1301 889 
Q 1547 409 2034 409 
Q 2525 409 2770 889 
Q 3016 1369 3016 2328 
Q 3016 3291 2770 3770 
Q 2525 4250 2034 4250 
z
M 2034 4750 
Q 2819 4750 3233 4129 
Q 3647 3509 3647 2328 
Q 3647 1150 3233 529 
Q 2819 -91 2034 -91 
Q 1250 -91 836 529 
Q 422 1150 422 2328 
Q 422 3509 836 4129 
Q 1250 4750 2034 4750 
z
" id="DejaVuSans-30" transform="scale(0.015625)"/>
       </defs>
       <use xlink:href="#DejaVuSans-30"/>
      </g>
     </g>
    </g>
    <g id="xtick_2">
     <g id="line2d_7">
      <path clip-path="url(#pe60a88e56a)" d="M 144.2304 298.944 
L 144.2304 27.648 
" style="fill:none;stroke:#b0b0b0;stroke-linecap:square;stroke-width:0.8;"/>
     </g>
     <g id="line2d_8">
      <g>
       <use style="stroke:#000000;stroke-width:0.8;" x="144.2304" xlink:href="#mfdf203ed0c" y="298.944"/>
      </g>
     </g>
     <g id="text_2">
      <!-- 2 -->
      <g transform="translate(138.822275 318.861344)scale(0.17 -0.17)">
       <defs>
        <path d="M 1228 531 
L 3431 531 
L 3431 0 
L 469 0 
L 469 531 
Q 828 903 1448 1529 
Q 2069 2156 2228 2338 
Q 2531 2678 2651 2914 
Q 2772 3150 2772 3378 
Q 2772 3750 2511 3984 
Q 2250 4219 1831 4219 
Q 1534 4219 1204 4116 
Q 875 4013 500 3803 
L 500 4441 
Q 881 4594 1212 4672 
Q 1544 4750 1819 4750 
Q 2544 4750 2975 4387 
Q 3406 4025 3406 3419 
Q 3406 3131 3298 2873 
Q 3191 2616 2906 2266 
Q 2828 2175 2409 1742 
Q 1991 1309 1228 531 
z
" id="DejaVuSans-32" transform="scale(0.015625)"/>
       </defs>
       <use xlink:href="#DejaVuSans-32"/>
      </g>
     </g>
    </g>
    <g id="xtick_3">
     <g id="line2d_9">
      <path clip-path="url(#pe60a88e56a)" d="M 230.8608 298.944 
L 230.8608 27.648 
" style="fill:none;stroke:#b0b0b0;stroke-linecap:square;stroke-width:0.8;"/>
     </g>
     <g id="line2d_10">
      <g>
       <use style="stroke:#000000;stroke-width:0.8;" x="230.8608" xlink:href="#mfdf203ed0c" y="298.944"/>
      </g>
     </g>
     <g id="text_3">
      <!-- 4 -->
      <g transform="translate(225.452675 318.861344)scale(0.17 -0.17)">
       <defs>
        <path d="M 2419 4116 
L 825 1625 
L 2419 1625 
L 2419 4116 
z
M 2253 4666 
L 3047 4666 
L 3047 1625 
L 3713 1625 
L 3713 1100 
L 3047 1100 
L 3047 0 
L 2419 0 
L 2419 1100 
L 313 1100 
L 313 1709 
L 2253 4666 
z
" id="DejaVuSans-34" transform="scale(0.015625)"/>
       </defs>
       <use xlink:href="#DejaVuSans-34"/>
      </g>
     </g>
    </g>
    <g id="xtick_4">
     <g id="line2d_11">
      <path clip-path="url(#pe60a88e56a)" d="M 317.4912 298.944 
L 317.4912 27.648 
" style="fill:none;stroke:#b0b0b0;stroke-linecap:square;stroke-width:0.8;"/>
     </g>
     <g id="line2d_12">
      <g>
       <use style="stroke:#000000;stroke-width:0.8;" x="317.4912" xlink:href="#mfdf203ed0c" y="298.944"/>
      </g>
     </g>
     <g id="text_4">
      <!-- 6 -->
      <g transform="translate(312.083075 318.861344)scale(0.17 -0.17)">
       <defs>
        <path d="M 2113 2584 
Q 1688 2584 1439 2293 
Q 1191 2003 1191 1497 
Q 1191 994 1439 701 
Q 1688 409 2113 409 
Q 2538 409 2786 701 
Q 3034 994 3034 1497 
Q 3034 2003 2786 2293 
Q 2538 2584 2113 2584 
z
M 3366 4563 
L 3366 3988 
Q 3128 4100 2886 4159 
Q 2644 4219 2406 4219 
Q 1781 4219 1451 3797 
Q 1122 3375 1075 2522 
Q 1259 2794 1537 2939 
Q 1816 3084 2150 3084 
Q 2853 3084 3261 2657 
Q 3669 2231 3669 1497 
Q 3669 778 3244 343 
Q 2819 -91 2113 -91 
Q 1303 -91 875 529 
Q 447 1150 447 2328 
Q 447 3434 972 4092 
Q 1497 4750 2381 4750 
Q 2619 4750 2861 4703 
Q 3103 4656 3366 4563 
z
" id="DejaVuSans-36" transform="scale(0.015625)"/>
       </defs>
       <use xlink:href="#DejaVuSans-36"/>
      </g>
     </g>
    </g>
    <g id="xtick_5">
     <g id="line2d_13">
      <path clip-path="url(#pe60a88e56a)" d="M 100.9152 298.944 
L 100.9152 27.648 
" style="fill:none;stroke:#b0b0b0;stroke-linecap:square;stroke-width:0.8;"/>
     </g>
     <g id="line2d_14">
      <defs>
       <path d="M 0 0 
L 0 2 
" id="m3be1598d1d" style="stroke:#000000;stroke-width:0.6;"/>
      </defs>
      <g>
       <use style="stroke:#000000;stroke-width:0.6;" x="100.9152" xlink:href="#m3be1598d1d" y="298.944"/>
      </g>
     </g>
    </g>
    <g id="xtick_6">
     <g id="line2d_15">
      <path clip-path="url(#pe60a88e56a)" d="M 187.5456 298.944 
L 187.5456 27.648 
" style="fill:none;stroke:#b0b0b0;stroke-linecap:square;stroke-width:0.8;"/>
     </g>
     <g id="line2d_16">
      <g>
       <use style="stroke:#000000;stroke-width:0.6;" x="187.5456" xlink:href="#m3be1598d1d" y="298.944"/>
      </g>
     </g>
    </g>
    <g id="xtick_7">
     <g id="line2d_17">
      <path clip-path="url(#pe60a88e56a)" d="M 274.176 298.944 
L 274.176 27.648 
" style="fill:none;stroke:#b0b0b0;stroke-linecap:square;stroke-width:0.8;"/>
     </g>
     <g id="line2d_18">
      <g>
       <use style="stroke:#000000;stroke-width:0.6;" x="274.176" xlink:href="#m3be1598d1d" y="298.944"/>
      </g>
     </g>
    </g>
    <g id="xtick_8">
     <g id="line2d_19">
      <path clip-path="url(#pe60a88e56a)" d="M 360.8064 298.944 
L 360.8064 27.648 
" style="fill:none;stroke:#b0b0b0;stroke-linecap:square;stroke-width:0.8;"/>
     </g>
     <g id="line2d_20">
      <g>
       <use style="stroke:#000000;stroke-width:0.6;" x="360.8064" xlink:href="#m3be1598d1d" y="298.944"/>
      </g>
     </g>
    </g>
    <g id="text_5">
     <!-- log10(# f-evals / dimension) -->
     <g transform="translate(88.823278 339.314156)scale(0.17 -0.17)">
      <defs>
       <path d="M 603 4863 
L 1178 4863 
L 1178 0 
L 603 0 
L 603 4863 
z
" id="DejaVuSans-6c" transform="scale(0.015625)"/>
       <path d="M 1959 3097 
Q 1497 3097 1228 2736 
Q 959 2375 959 1747 
Q 959 1119 1226 758 
Q 1494 397 1959 397 
Q 2419 397 2687 759 
Q 2956 1122 2956 1747 
Q 2956 2369 2687 2733 
Q 2419 3097 1959 3097 
z
M 1959 3584 
Q 2709 3584 3137 3096 
Q 3566 2609 3566 1747 
Q 3566 888 3137 398 
Q 2709 -91 1959 -91 
Q 1206 -91 779 398 
Q 353 888 353 1747 
Q 353 2609 779 3096 
Q 1206 3584 1959 3584 
z
" id="DejaVuSans-6f" transform="scale(0.015625)"/>
       <path d="M 2906 1791 
Q 2906 2416 2648 2759 
Q 2391 3103 1925 3103 
Q 1463 3103 1205 2759 
Q 947 2416 947 1791 
Q 947 1169 1205 825 
Q 1463 481 1925 481 
Q 2391 481 2648 825 
Q 2906 1169 2906 1791 
z
M 3481 434 
Q 3481 -459 3084 -895 
Q 2688 -1331 1869 -1331 
Q 1566 -1331 1297 -1286 
Q 1028 -1241 775 -1147 
L 775 -588 
Q 1028 -725 1275 -790 
Q 1522 -856 1778 -856 
Q 2344 -856 2625 -561 
Q 2906 -266 2906 331 
L 2906 616 
Q 2728 306 2450 153 
Q 2172 0 1784 0 
Q 1141 0 747 490 
Q 353 981 353 1791 
Q 353 2603 747 3093 
Q 1141 3584 1784 3584 
Q 2172 3584 2450 3431 
Q 2728 3278 2906 2969 
L 2906 3500 
L 3481 3500 
L 3481 434 
z
" id="DejaVuSans-67" transform="scale(0.015625)"/>
       <path d="M 794 531 
L 1825 531 
L 1825 4091 
L 703 3866 
L 703 4441 
L 1819 4666 
L 2450 4666 
L 2450 531 
L 3481 531 
L 3481 0 
L 794 0 
L 794 531 
z
" id="DejaVuSans-31" transform="scale(0.015625)"/>
       <path d="M 1984 4856 
Q 1566 4138 1362 3434 
Q 1159 2731 1159 2009 
Q 1159 1288 1364 580 
Q 1569 -128 1984 -844 
L 1484 -844 
Q 1016 -109 783 600 
Q 550 1309 550 2009 
Q 550 2706 781 3412 
Q 1013 4119 1484 4856 
L 1984 4856 
z
" id="DejaVuSans-28" transform="scale(0.015625)"/>
       <path d="M 3272 2816 
L 2363 2816 
L 2100 1772 
L 3016 1772 
L 3272 2816 
z
M 2803 4594 
L 2478 3297 
L 3391 3297 
L 3719 4594 
L 4219 4594 
L 3897 3297 
L 4872 3297 
L 4872 2816 
L 3775 2816 
L 3519 1772 
L 4513 1772 
L 4513 1294 
L 3397 1294 
L 3072 0 
L 2572 0 
L 2894 1294 
L 1978 1294 
L 1656 0 
L 1153 0 
L 1478 1294 
L 494 1294 
L 494 1772 
L 1594 1772 
L 1856 2816 
L 850 2816 
L 850 3297 
L 1978 3297 
L 2297 4594 
L 2803 4594 
z
" id="DejaVuSans-23" transform="scale(0.015625)"/>
       <path id="DejaVuSans-20" transform="scale(0.015625)"/>
       <path d="M 2375 4863 
L 2375 4384 
L 1825 4384 
Q 1516 4384 1395 4259 
Q 1275 4134 1275 3809 
L 1275 3500 
L 2222 3500 
L 2222 3053 
L 1275 3053 
L 1275 0 
L 697 0 
L 697 3053 
L 147 3053 
L 147 3500 
L 697 3500 
L 697 3744 
Q 697 4328 969 4595 
Q 1241 4863 1831 4863 
L 2375 4863 
z
" id="DejaVuSans-66" transform="scale(0.015625)"/>
       <path d="M 313 2009 
L 1997 2009 
L 1997 1497 
L 313 1497 
L 313 2009 
z
" id="DejaVuSans-2d" transform="scale(0.015625)"/>
       <path d="M 3597 1894 
L 3597 1613 
L 953 1613 
Q 991 1019 1311 708 
Q 1631 397 2203 397 
Q 2534 397 2845 478 
Q 3156 559 3463 722 
L 3463 178 
Q 3153 47 2828 -22 
Q 2503 -91 2169 -91 
Q 1331 -91 842 396 
Q 353 884 353 1716 
Q 353 2575 817 3079 
Q 1281 3584 2069 3584 
Q 2775 3584 3186 3129 
Q 3597 2675 3597 1894 
z
M 3022 2063 
Q 3016 2534 2758 2815 
Q 2500 3097 2075 3097 
Q 1594 3097 1305 2825 
Q 1016 2553 972 2059 
L 3022 2063 
z
" id="DejaVuSans-65" transform="scale(0.015625)"/>
       <path d="M 191 3500 
L 800 3500 
L 1894 563 
L 2988 3500 
L 3597 3500 
L 2284 0 
L 1503 0 
L 191 3500 
z
" id="DejaVuSans-76" transform="scale(0.015625)"/>
       <path d="M 2194 1759 
Q 1497 1759 1228 1600 
Q 959 1441 959 1056 
Q 959 750 1161 570 
Q 1363 391 1709 391 
Q 2188 391 2477 730 
Q 2766 1069 2766 1631 
L 2766 1759 
L 2194 1759 
z
M 3341 1997 
L 3341 0 
L 2766 0 
L 2766 531 
Q 2569 213 2275 61 
Q 1981 -91 1556 -91 
Q 1019 -91 701 211 
Q 384 513 384 1019 
Q 384 1609 779 1909 
Q 1175 2209 1959 2209 
L 2766 2209 
L 2766 2266 
Q 2766 2663 2505 2880 
Q 2244 3097 1772 3097 
Q 1472 3097 1187 3025 
Q 903 2953 641 2809 
L 641 3341 
Q 956 3463 1253 3523 
Q 1550 3584 1831 3584 
Q 2591 3584 2966 3190 
Q 3341 2797 3341 1997 
z
" id="DejaVuSans-61" transform="scale(0.015625)"/>
       <path d="M 2834 3397 
L 2834 2853 
Q 2591 2978 2328 3040 
Q 2066 3103 1784 3103 
Q 1356 3103 1142 2972 
Q 928 2841 928 2578 
Q 928 2378 1081 2264 
Q 1234 2150 1697 2047 
L 1894 2003 
Q 2506 1872 2764 1633 
Q 3022 1394 3022 966 
Q 3022 478 2636 193 
Q 2250 -91 1575 -91 
Q 1294 -91 989 -36 
Q 684 19 347 128 
L 347 722 
Q 666 556 975 473 
Q 1284 391 1588 391 
Q 1994 391 2212 530 
Q 2431 669 2431 922 
Q 2431 1156 2273 1281 
Q 2116 1406 1581 1522 
L 1381 1569 
Q 847 1681 609 1914 
Q 372 2147 372 2553 
Q 372 3047 722 3315 
Q 1072 3584 1716 3584 
Q 2034 3584 2315 3537 
Q 2597 3491 2834 3397 
z
" id="DejaVuSans-73" transform="scale(0.015625)"/>
       <path d="M 1625 4666 
L 2156 4666 
L 531 -594 
L 0 -594 
L 1625 4666 
z
" id="DejaVuSans-2f" transform="scale(0.015625)"/>
       <path d="M 2906 2969 
L 2906 4863 
L 3481 4863 
L 3481 0 
L 2906 0 
L 2906 525 
Q 2725 213 2448 61 
Q 2172 -91 1784 -91 
Q 1150 -91 751 415 
Q 353 922 353 1747 
Q 353 2572 751 3078 
Q 1150 3584 1784 3584 
Q 2172 3584 2448 3432 
Q 2725 3281 2906 2969 
z
M 947 1747 
Q 947 1113 1208 752 
Q 1469 391 1925 391 
Q 2381 391 2643 752 
Q 2906 1113 2906 1747 
Q 2906 2381 2643 2742 
Q 2381 3103 1925 3103 
Q 1469 3103 1208 2742 
Q 947 2381 947 1747 
z
" id="DejaVuSans-64" transform="scale(0.015625)"/>
       <path d="M 603 3500 
L 1178 3500 
L 1178 0 
L 603 0 
L 603 3500 
z
M 603 4863 
L 1178 4863 
L 1178 4134 
L 603 4134 
L 603 4863 
z
" id="DejaVuSans-69" transform="scale(0.015625)"/>
       <path d="M 3328 2828 
Q 3544 3216 3844 3400 
Q 4144 3584 4550 3584 
Q 5097 3584 5394 3201 
Q 5691 2819 5691 2113 
L 5691 0 
L 5113 0 
L 5113 2094 
Q 5113 2597 4934 2840 
Q 4756 3084 4391 3084 
Q 3944 3084 3684 2787 
Q 3425 2491 3425 1978 
L 3425 0 
L 2847 0 
L 2847 2094 
Q 2847 2600 2669 2842 
Q 2491 3084 2119 3084 
Q 1678 3084 1418 2786 
Q 1159 2488 1159 1978 
L 1159 0 
L 581 0 
L 581 3500 
L 1159 3500 
L 1159 2956 
Q 1356 3278 1631 3431 
Q 1906 3584 2284 3584 
Q 2666 3584 2933 3390 
Q 3200 3197 3328 2828 
z
" id="DejaVuSans-6d" transform="scale(0.015625)"/>
       <path d="M 3513 2113 
L 3513 0 
L 2938 0 
L 2938 2094 
Q 2938 2591 2744 2837 
Q 2550 3084 2163 3084 
Q 1697 3084 1428 2787 
Q 1159 2491 1159 1978 
L 1159 0 
L 581 0 
L 581 3500 
L 1159 3500 
L 1159 2956 
Q 1366 3272 1645 3428 
Q 1925 3584 2291 3584 
Q 2894 3584 3203 3211 
Q 3513 2838 3513 2113 
z
" id="DejaVuSans-6e" transform="scale(0.015625)"/>
       <path d="M 513 4856 
L 1013 4856 
Q 1481 4119 1714 3412 
Q 1947 2706 1947 2009 
Q 1947 1309 1714 600 
Q 1481 -109 1013 -844 
L 513 -844 
Q 928 -128 1133 580 
Q 1338 1288 1338 2009 
Q 1338 2731 1133 3434 
Q 928 4138 513 4856 
z
" id="DejaVuSans-29" transform="scale(0.015625)"/>
      </defs>
      <use xlink:href="#DejaVuSans-6c"/>
      <use x="27.783203" xlink:href="#DejaVuSans-6f"/>
      <use x="88.964844" xlink:href="#DejaVuSans-67"/>
      <use x="152.441406" xlink:href="#DejaVuSans-31"/>
      <use x="216.064453" xlink:href="#DejaVuSans-30"/>
      <use x="279.6875" xlink:href="#DejaVuSans-28"/>
      <use x="318.701172" xlink:href="#DejaVuSans-23"/>
      <use x="402.490234" xlink:href="#DejaVuSans-20"/>
      <use x="434.277344" xlink:href="#DejaVuSans-66"/>
      <use x="463.982422" xlink:href="#DejaVuSans-2d"/>
      <use x="500.066406" xlink:href="#DejaVuSans-65"/>
      <use x="561.589844" xlink:href="#DejaVuSans-76"/>
      <use x="620.769531" xlink:href="#DejaVuSans-61"/>
      <use x="682.048828" xlink:href="#DejaVuSans-6c"/>
      <use x="709.832031" xlink:href="#DejaVuSans-73"/>
      <use x="761.931641" xlink:href="#DejaVuSans-20"/>
      <use x="793.71875" xlink:href="#DejaVuSans-2f"/>
      <use x="827.410156" xlink:href="#DejaVuSans-20"/>
      <use x="859.197266" xlink:href="#DejaVuSans-64"/>
      <use x="922.673828" xlink:href="#DejaVuSans-69"/>
      <use x="950.457031" xlink:href="#DejaVuSans-6d"/>
      <use x="1047.869141" xlink:href="#DejaVuSans-65"/>
      <use x="1109.392578" xlink:href="#DejaVuSans-6e"/>
      <use x="1172.771484" xlink:href="#DejaVuSans-73"/>
      <use x="1224.871094" xlink:href="#DejaVuSans-69"/>
      <use x="1252.654297" xlink:href="#DejaVuSans-6f"/>
      <use x="1313.835938" xlink:href="#DejaVuSans-6e"/>
      <use x="1377.214844" xlink:href="#DejaVuSans-29"/>
     </g>
    </g>
   </g>
   <g id="matplotlib.axis_2">
    <g id="ytick_1">
     <g id="line2d_21">
      <path clip-path="url(#pe60a88e56a)" d="M 57.6 298.944 
L 360.8064 298.944 
" style="fill:none;stroke:#b0b0b0;stroke-linecap:square;stroke-width:0.8;"/>
     </g>
     <g id="line2d_22">
      <defs>
       <path d="M 0 0 
L -3.5 0 
" id="ma9274ed3f9" style="stroke:#000000;stroke-width:0.8;"/>
      </defs>
      <g>
       <use style="stroke:#000000;stroke-width:0.8;" x="57.6" xlink:href="#ma9274ed3f9" y="298.944"/>
      </g>
     </g>
     <g id="text_6">
      <!-- 0.0 -->
      <g transform="translate(25.155 305.02275)scale(0.16 -0.16)">
       <defs>
        <path d="M 684 794 
L 1344 794 
L 1344 0 
L 684 0 
L 684 794 
z
" id="DejaVuSans-2e" transform="scale(0.015625)"/>
       </defs>
       <use xlink:href="#DejaVuSans-30"/>
       <use x="63.623047" xlink:href="#DejaVuSans-2e"/>
       <use x="95.410156" xlink:href="#DejaVuSans-30"/>
      </g>
     </g>
    </g>
    <g id="ytick_2">
     <g id="line2d_23">
      <path clip-path="url(#pe60a88e56a)" d="M 57.6 244.6848 
L 360.8064 244.6848 
" style="fill:none;stroke:#b0b0b0;stroke-linecap:square;stroke-width:0.8;"/>
     </g>
     <g id="line2d_24">
      <g>
       <use style="stroke:#000000;stroke-width:0.8;" x="57.6" xlink:href="#ma9274ed3f9" y="244.6848"/>
      </g>
     </g>
     <g id="text_7">
      <!-- 0.2 -->
      <g transform="translate(25.155 250.76355)scale(0.16 -0.16)">
       <use xlink:href="#DejaVuSans-30"/>
       <use x="63.623047" xlink:href="#DejaVuSans-2e"/>
       <use x="95.410156" xlink:href="#DejaVuSans-32"/>
      </g>
     </g>
    </g>
    <g id="ytick_3">
     <g id="line2d_25">
      <path clip-path="url(#pe60a88e56a)" d="M 57.6 190.4256 
L 360.8064 190.4256 
" style="fill:none;stroke:#b0b0b0;stroke-linecap:square;stroke-width:0.8;"/>
     </g>
     <g id="line2d_26">
      <g>
       <use style="stroke:#000000;stroke-width:0.8;" x="57.6" xlink:href="#ma9274ed3f9" y="190.4256"/>
      </g>
     </g>
     <g id="text_8">
      <!-- 0.4 -->
      <g transform="translate(25.155 196.50435)scale(0.16 -0.16)">
       <use xlink:href="#DejaVuSans-30"/>
       <use x="63.623047" xlink:href="#DejaVuSans-2e"/>
       <use x="95.410156" xlink:href="#DejaVuSans-34"/>
      </g>
     </g>
    </g>
    <g id="ytick_4">
     <g id="line2d_27">
      <path clip-path="url(#pe60a88e56a)" d="M 57.6 136.1664 
L 360.8064 136.1664 
" style="fill:none;stroke:#b0b0b0;stroke-linecap:square;stroke-width:0.8;"/>
     </g>
     <g id="line2d_28">
      <g>
       <use style="stroke:#000000;stroke-width:0.8;" x="57.6" xlink:href="#ma9274ed3f9" y="136.1664"/>
      </g>
     </g>
     <g id="text_9">
      <!-- 0.6 -->
      <g transform="translate(25.155 142.24515)scale(0.16 -0.16)">
       <use xlink:href="#DejaVuSans-30"/>
       <use x="63.623047" xlink:href="#DejaVuSans-2e"/>
       <use x="95.410156" xlink:href="#DejaVuSans-36"/>
      </g>
     </g>
    </g>
    <g id="ytick_5">
     <g id="line2d_29">
      <path clip-path="url(#pe60a88e56a)" d="M 57.6 81.9072 
L 360.8064 81.9072 
" style="fill:none;stroke:#b0b0b0;stroke-linecap:square;stroke-width:0.8;"/>
     </g>
     <g id="line2d_30">
      <g>
       <use style="stroke:#000000;stroke-width:0.8;" x="57.6" xlink:href="#ma9274ed3f9" y="81.9072"/>
      </g>
     </g>
     <g id="text_10">
      <!-- 0.8 -->
      <g transform="translate(25.155 87.98595)scale(0.16 -0.16)">
       <defs>
        <path d="M 2034 2216 
Q 1584 2216 1326 1975 
Q 1069 1734 1069 1313 
Q 1069 891 1326 650 
Q 1584 409 2034 409 
Q 2484 409 2743 651 
Q 3003 894 3003 1313 
Q 3003 1734 2745 1975 
Q 2488 2216 2034 2216 
z
M 1403 2484 
Q 997 2584 770 2862 
Q 544 3141 544 3541 
Q 544 4100 942 4425 
Q 1341 4750 2034 4750 
Q 2731 4750 3128 4425 
Q 3525 4100 3525 3541 
Q 3525 3141 3298 2862 
Q 3072 2584 2669 2484 
Q 3125 2378 3379 2068 
Q 3634 1759 3634 1313 
Q 3634 634 3220 271 
Q 2806 -91 2034 -91 
Q 1263 -91 848 271 
Q 434 634 434 1313 
Q 434 1759 690 2068 
Q 947 2378 1403 2484 
z
M 1172 3481 
Q 1172 3119 1398 2916 
Q 1625 2713 2034 2713 
Q 2441 2713 2670 2916 
Q 2900 3119 2900 3481 
Q 2900 3844 2670 4047 
Q 2441 4250 2034 4250 
Q 1625 4250 1398 4047 
Q 1172 3844 1172 3481 
z
" id="DejaVuSans-38" transform="scale(0.015625)"/>
       </defs>
       <use xlink:href="#DejaVuSans-30"/>
       <use x="63.623047" xlink:href="#DejaVuSans-2e"/>
       <use x="95.410156" xlink:href="#DejaVuSans-38"/>
      </g>
     </g>
    </g>
    <g id="ytick_6">
     <g id="line2d_31">
      <path clip-path="url(#pe60a88e56a)" d="M 57.6 27.648 
L 360.8064 27.648 
" style="fill:none;stroke:#b0b0b0;stroke-linecap:square;stroke-width:0.8;"/>
     </g>
     <g id="line2d_32">
      <g>
       <use style="stroke:#000000;stroke-width:0.8;" x="57.6" xlink:href="#ma9274ed3f9" y="27.648"/>
      </g>
     </g>
     <g id="text_11">
      <!-- 1.0 -->
      <g transform="translate(25.155 33.72675)scale(0.16 -0.16)">
       <use xlink:href="#DejaVuSans-31"/>
       <use x="63.623047" xlink:href="#DejaVuSans-2e"/>
       <use x="95.410156" xlink:href="#DejaVuSans-30"/>
      </g>
     </g>
    </g>
    <g id="text_12">
     <!-- Fraction of function,target pairs -->
     <g transform="translate(17.619531 297.681)rotate(-90)scale(0.17 -0.17)">
      <defs>
       <path d="M 628 4666 
L 3309 4666 
L 3309 4134 
L 1259 4134 
L 1259 2759 
L 3109 2759 
L 3109 2228 
L 1259 2228 
L 1259 0 
L 628 0 
L 628 4666 
z
" id="DejaVuSans-46" transform="scale(0.015625)"/>
       <path d="M 2631 2963 
Q 2534 3019 2420 3045 
Q 2306 3072 2169 3072 
Q 1681 3072 1420 2755 
Q 1159 2438 1159 1844 
L 1159 0 
L 581 0 
L 581 3500 
L 1159 3500 
L 1159 2956 
Q 1341 3275 1631 3429 
Q 1922 3584 2338 3584 
Q 2397 3584 2469 3576 
Q 2541 3569 2628 3553 
L 2631 2963 
z
" id="DejaVuSans-72" transform="scale(0.015625)"/>
       <path d="M 3122 3366 
L 3122 2828 
Q 2878 2963 2633 3030 
Q 2388 3097 2138 3097 
Q 1578 3097 1268 2742 
Q 959 2388 959 1747 
Q 959 1106 1268 751 
Q 1578 397 2138 397 
Q 2388 397 2633 464 
Q 2878 531 3122 666 
L 3122 134 
Q 2881 22 2623 -34 
Q 2366 -91 2075 -91 
Q 1284 -91 818 406 
Q 353 903 353 1747 
Q 353 2603 823 3093 
Q 1294 3584 2113 3584 
Q 2378 3584 2631 3529 
Q 2884 3475 3122 3366 
z
" id="DejaVuSans-63" transform="scale(0.015625)"/>
       <path d="M 1172 4494 
L 1172 3500 
L 2356 3500 
L 2356 3053 
L 1172 3053 
L 1172 1153 
Q 1172 725 1289 603 
Q 1406 481 1766 481 
L 2356 481 
L 2356 0 
L 1766 0 
Q 1100 0 847 248 
Q 594 497 594 1153 
L 594 3053 
L 172 3053 
L 172 3500 
L 594 3500 
L 594 4494 
L 1172 4494 
z
" id="DejaVuSans-74" transform="scale(0.015625)"/>
       <path d="M 544 1381 
L 544 3500 
L 1119 3500 
L 1119 1403 
Q 1119 906 1312 657 
Q 1506 409 1894 409 
Q 2359 409 2629 706 
Q 2900 1003 2900 1516 
L 2900 3500 
L 3475 3500 
L 3475 0 
L 2900 0 
L 2900 538 
Q 2691 219 2414 64 
Q 2138 -91 1772 -91 
Q 1169 -91 856 284 
Q 544 659 544 1381 
z
M 1991 3584 
L 1991 3584 
z
" id="DejaVuSans-75" transform="scale(0.015625)"/>
       <path d="M 750 794 
L 1409 794 
L 1409 256 
L 897 -744 
L 494 -744 
L 750 256 
L 750 794 
z
" id="DejaVuSans-2c" transform="scale(0.015625)"/>
       <path d="M 1159 525 
L 1159 -1331 
L 581 -1331 
L 581 3500 
L 1159 3500 
L 1159 2969 
Q 1341 3281 1617 3432 
Q 1894 3584 2278 3584 
Q 2916 3584 3314 3078 
Q 3713 2572 3713 1747 
Q 3713 922 3314 415 
Q 2916 -91 2278 -91 
Q 1894 -91 1617 61 
Q 1341 213 1159 525 
z
M 3116 1747 
Q 3116 2381 2855 2742 
Q 2594 3103 2138 3103 
Q 1681 3103 1420 2742 
Q 1159 2381 1159 1747 
Q 1159 1113 1420 752 
Q 1681 391 2138 391 
Q 2594 391 2855 752 
Q 3116 1113 3116 1747 
z
" id="DejaVuSans-70" transform="scale(0.015625)"/>
      </defs>
      <use xlink:href="#DejaVuSans-46"/>
      <use x="50.269531" xlink:href="#DejaVuSans-72"/>
      <use x="91.382812" xlink:href="#DejaVuSans-61"/>
      <use x="152.662109" xlink:href="#DejaVuSans-63"/>
      <use x="207.642578" xlink:href="#DejaVuSans-74"/>
      <use x="246.851562" xlink:href="#DejaVuSans-69"/>
      <use x="274.634766" xlink:href="#DejaVuSans-6f"/>
      <use x="335.816406" xlink:href="#DejaVuSans-6e"/>
      <use x="399.195312" xlink:href="#DejaVuSans-20"/>
      <use x="430.982422" xlink:href="#DejaVuSans-6f"/>
      <use x="492.164062" xlink:href="#DejaVuSans-66"/>
      <use x="527.369141" xlink:href="#DejaVuSans-20"/>
      <use x="559.15625" xlink:href="#DejaVuSans-66"/>
      <use x="594.361328" xlink:href="#DejaVuSans-75"/>
      <use x="657.740234" xlink:href="#DejaVuSans-6e"/>
      <use x="721.119141" xlink:href="#DejaVuSans-63"/>
      <use x="776.099609" xlink:href="#DejaVuSans-74"/>
      <use x="815.308594" xlink:href="#DejaVuSans-69"/>
      <use x="843.091797" xlink:href="#DejaVuSans-6f"/>
      <use x="904.273438" xlink:href="#DejaVuSans-6e"/>
      <use x="967.652344" xlink:href="#DejaVuSans-2c"/>
      <use x="999.439453" xlink:href="#DejaVuSans-74"/>
      <use x="1038.648438" xlink:href="#DejaVuSans-61"/>
      <use x="1099.927734" xlink:href="#DejaVuSans-72"/>
      <use x="1139.291016" xlink:href="#DejaVuSans-67"/>
      <use x="1202.767578" xlink:href="#DejaVuSans-65"/>
      <use x="1264.291016" xlink:href="#DejaVuSans-74"/>
      <use x="1303.5" xlink:href="#DejaVuSans-20"/>
      <use x="1335.287109" xlink:href="#DejaVuSans-70"/>
      <use x="1398.763672" xlink:href="#DejaVuSans-61"/>
      <use x="1460.042969" xlink:href="#DejaVuSans-69"/>
      <use x="1487.826172" xlink:href="#DejaVuSans-72"/>
      <use x="1528.939453" xlink:href="#DejaVuSans-73"/>
     </g>
    </g>
   </g>
   <g id="line2d_33">
    <defs>
     <path d="M 0 1.5 
C 0.397805 1.5 0.77937 1.341951 1.06066 1.06066 
C 1.341951 0.77937 1.5 0.397805 1.5 0 
C 1.5 -0.397805 1.341951 -0.77937 1.06066 -1.06066 
C 0.77937 -1.341951 0.397805 -1.5 0 -1.5 
C -0.397805 -1.5 -0.77937 -1.341951 -1.06066 -1.06066 
C -1.341951 -0.77937 -1.5 -0.397805 -1.5 0 
C -1.5 0.397805 -1.341951 0.77937 -1.06066 1.06066 
C -0.77937 1.341951 -0.397805 1.5 0 1.5 
z
" id="mceec4bb863" style="stroke:#f5deb3;"/>
    </defs>
    <g>
     <use style="fill:#f5deb3;stroke:#f5deb3;" x="133.983236" xlink:href="#mceec4bb863" y="27.648"/>
     <use style="fill:#f5deb3;stroke:#f5deb3;" x="133.983236" xlink:href="#mceec4bb863" y="27.648"/>
    </g>
   </g>
   <g id="line2d_34">
    <defs>
     <path d="M 0 1.5 
C 0.397805 1.5 0.77937 1.341951 1.06066 1.06066 
C 1.341951 0.77937 1.5 0.397805 1.5 0 
C 1.5 -0.397805 1.341951 -0.77937 1.06066 -1.06066 
C 0.77937 -1.341951 0.397805 -1.5 0 -1.5 
C -0.397805 -1.5 -0.77937 -1.341951 -1.06066 -1.06066 
C -1.341951 -0.77937 -1.5 -0.397805 -1.5 0 
C -1.5 0.397805 -1.341951 0.77937 -1.06066 1.06066 
C -0.77937 1.341951 -0.397805 1.5 0 1.5 
z
" id="m7bccec2463" style="stroke:#000080;"/>
    </defs>
    <g>
     <use style="fill:#000080;stroke:#000080;" x="251.111172" xlink:href="#m7bccec2463" y="27.648"/>
     <use style="fill:#000080;stroke:#000080;" x="251.111172" xlink:href="#m7bccec2463" y="27.648"/>
    </g>
   </g>
   <g id="line2d_35">
    <path d="M 57.6 298.944 
L 57.6 295.397647 
L 65.227428 295.397647 
L 65.227428 294.688376 
L 74.836851 294.688376 
L 74.836851 289.368847 
L 78.266603 289.368847 
L 78.266603 286.177129 
L 83.678349 286.177129 
L 83.678349 283.694682 
L 85.894031 283.694682 
L 85.894031 282.985412 
L 87.876026 282.985412 
L 87.876026 279.439059 
L 89.668958 279.439059 
L 89.668958 278.020518 
L 91.305777 278.020518 
L 91.305777 273.764894 
L 92.811505 273.764894 
L 92.811505 272.700988 
L 94.205591 272.700988 
L 94.205591 271.637082 
L 97.857967 271.637082 
L 97.857967 270.573176 
L 98.933205 270.573176 
L 98.933205 268.445365 
L 99.950294 268.445365 
L 99.950294 265.608282 
L 110.335561 265.608282 
L 110.335561 262.416565 
L 115.314838 262.416565 
L 115.314838 261.352659 
L 117.772007 261.352659 
L 117.772007 259.934118 
L 124.210942 259.934118 
L 124.210942 258.870212 
L 126.756923 258.870212 
L 126.756923 258.515576 
L 128.133992 258.515576 
L 128.133992 258.160941 
L 128.57149 258.160941 
L 128.57149 256.7424 
L 129.826058 256.7424 
L 129.826058 256.387765 
L 135.687504 256.387765 
L 135.687504 256.033129 
L 136.836659 256.033129 
L 136.836659 254.614588 
L 137.38594 254.614588 
L 137.38594 253.905318 
L 139.914782 253.905318 
L 139.914782 252.132141 
L 142.143605 252.132141 
L 142.143605 250.7136 
L 145.590864 250.7136 
L 145.590864 250.358965 
L 146.446082 250.358965 
L 146.446082 249.295059 
L 148.048032 249.295059 
L 148.048032 245.748706 
L 148.352679 245.748706 
L 148.352679 245.394071 
L 148.503173 245.394071 
L 148.503173 244.330165 
L 148.800595 244.330165 
L 148.800595 243.975529 
L 151.155108 243.975529 
L 151.155108 242.911624 
L 151.41369 242.911624 
L 151.41369 241.847718 
L 152.291722 241.847718 
L 152.291722 240.074541 
L 156.255099 240.074541 
L 156.354107 239.365271 
L 157.032948 239.365271 
L 157.032948 239.010635 
L 158.58624 239.010635 
L 158.58624 236.528188 
L 159.275069 236.528188 
L 159.275069 233.691106 
L 160.422971 233.691106 
L 160.422971 232.981835 
L 160.816532 232.981835 
L 160.894266 230.854024 
L 161.654432 230.854024 
L 161.654432 229.790118 
L 162.023298 229.790118 
L 162.023298 229.435482 
L 164.09639 229.435482 
L 164.09639 228.371576 
L 165.844657 228.371576 
L 165.844657 228.016941 
L 171.023928 228.016941 
L 171.023928 226.953035 
L 171.9083 226.953035 
L 171.9083 226.243765 
L 172.545321 226.243765 
L 172.545321 225.534494 
L 172.711612 225.534494 
L 172.711612 222.697412 
L 179.885223 222.697412 
L 179.885223 222.342776 
L 180.165788 222.342776 
L 180.276853 220.5696 
L 180.660496 220.5696 
L 180.660496 219.860329 
L 182.762814 219.860329 
L 182.811266 217.377882 
L 183.123199 217.377882 
L 183.123199 216.668612 
L 183.869695 216.668612 
L 183.869695 216.313976 
L 185.636619 216.313976 
L 185.636619 213.122259 
L 186.048492 213.122259 
L 186.048492 212.767624 
L 186.391631 212.767624 
L 186.391631 212.412988 
L 187.098251 212.412988 
L 187.098251 212.058353 
L 187.251738 212.058353 
L 187.251738 211.703718 
L 187.385018 211.703718 
L 187.385018 211.349082 
L 188.219988 211.349082 
L 188.219988 210.639812 
L 189.244239 210.639812 
L 189.244239 207.802729 
L 190.051653 207.802729 
L 190.1338 207.093459 
L 191.10813 207.093459 
L 191.10813 206.384188 
L 191.945352 206.384188 
L 191.945352 205.674918 
L 192.386785 205.674918 
L 192.386785 204.256376 
L 192.732622 204.256376 
L 192.775408 202.837835 
L 192.889031 202.837835 
L 192.889031 202.4832 
L 193.0301 202.4832 
L 193.0301 202.128565 
L 193.364413 202.128565 
L 193.364413 201.064659 
L 194.528799 201.064659 
L 194.541773 199.646118 
L 194.735309 199.646118 
L 194.812169 197.872941 
L 196.62659 197.872941 
L 196.62659 196.809035 
L 196.753852 196.809035 
L 196.753852 196.099765 
L 197.107935 196.099765 
L 197.107935 194.326588 
L 197.76396 194.326588 
L 197.76396 193.971953 
L 198.670588 193.971953 
L 198.701802 191.844141 
L 199.163899 191.844141 
L 199.194306 191.134871 
L 199.997239 191.134871 
L 200.074713 190.070965 
L 200.142241 190.070965 
L 200.142241 189.716329 
L 200.813816 189.716329 
L 200.813816 187.588518 
L 201.711934 187.588518 
L 201.782671 185.460706 
L 202.010746 185.460706 
L 202.071681 184.042165 
L 202.13242 184.042165 
L 202.21885 181.914353 
L 202.28771 181.914353 
L 202.28771 181.559718 
L 202.424677 181.559718 
L 202.492789 180.495812 
L 202.653572 180.495812 
L 202.678834 179.077271 
L 202.846384 179.077271 
L 202.921297 177.658729 
L 203.144264 177.658729 
L 203.177072 176.949459 
L 203.307737 176.949459 
L 203.307737 176.594824 
L 203.582422 176.594824 
L 203.686398 175.885553 
L 203.80566 175.885553 
L 203.821504 174.467012 
L 204.057586 174.467012 
L 204.158976 173.757741 
L 204.221099 173.757741 
L 204.221099 171.275294 
L 204.452249 171.275294 
L 204.528672 164.891859 
L 204.846302 164.891859 
L 204.846302 164.537224 
L 205.032852 164.537224 
L 205.032852 162.054776 
L 205.327537 162.054776 
L 205.34215 160.990871 
L 205.675171 160.990871 
L 205.761085 157.799153 
L 206.016497 157.799153 
L 206.016497 156.380612 
L 206.261534 156.380612 
L 206.261534 154.962071 
L 206.413939 154.962071 
L 206.517149 152.479624 
L 206.56512 152.479624 
L 206.56512 151.770353 
L 206.681115 151.770353 
L 206.681115 150.351812 
L 206.957959 150.351812 
L 207.018188 149.287906 
L 207.349327 149.287906 
L 207.421402 148.578635 
L 207.687639 148.578635 
L 207.687639 147.869365 
L 207.85454 147.869365 
L 207.85454 147.514729 
L 208.19652 147.514729 
L 208.259173 145.741553 
L 208.315383 145.741553 
L 208.402488 145.032282 
L 208.433499 145.032282 
L 208.538557 138.294212 
L 208.550879 138.294212 
L 208.550879 136.875671 
L 208.74693 136.875671 
L 208.825996 131.556141 
L 209.037228 131.556141 
L 209.037228 131.201506 
L 209.435088 131.201506 
L 209.52302 128.719059 
L 209.546399 128.719059 
L 209.610543 126.945882 
L 209.686068 126.945882 
L 209.795909 125.881976 
L 210.087611 125.881976 
L 210.121633 124.818071 
L 210.380447 124.818071 
L 210.464079 121.980988 
L 210.541801 121.980988 
L 210.569482 120.562447 
L 210.657786 120.562447 
L 210.756636 118.434635 
L 210.827705 118.434635 
L 210.909376 114.179012 
L 211.163007 114.179012 
L 211.163007 113.824376 
L 211.285889 113.824376 
L 211.3815 106.731671 
L 211.502968 106.731671 
L 211.545034 104.603859 
L 211.764353 104.603859 
L 211.87306 101.412141 
L 211.934898 101.412141 
L 211.934898 99.638965 
L 212.149743 99.638965 
L 212.241074 96.092612 
L 212.306761 96.092612 
L 212.412387 93.610165 
L 212.878056 93.610165 
L 212.878056 92.546259 
L 213.067925 92.546259 
L 213.179008 90.063812 
L 213.19826 90.063812 
L 213.284651 86.872094 
L 213.489437 86.872094 
L 213.583932 85.098918 
L 213.70607 85.098918 
L 213.77151 80.134024 
L 214.044817 80.134024 
L 214.044817 79.070118 
L 214.246085 79.070118 
L 214.31421 75.169129 
L 214.395636 75.169129 
L 214.395636 74.814494 
L 214.628905 74.814494 
L 214.628905 74.459859 
L 214.753323 74.459859 
L 214.766605 70.913506 
L 215.113028 70.913506 
L 215.113028 70.558871 
L 215.410467 70.558871 
L 215.517085 69.140329 
L 215.580766 69.140329 
L 215.677995 66.303247 
L 215.791495 66.303247 
L 215.791495 65.948612 
L 216.218295 65.948612 
L 216.324518 65.239341 
L 216.466569 65.239341 
L 216.474654 62.402259 
L 216.73554 62.402259 
L 216.73554 62.047624 
L 216.981058 62.047624 
L 217.075243 61.338353 
L 217.23506 61.338353 
L 217.343429 58.501271 
L 217.550678 58.501271 
L 217.550678 58.146635 
L 217.75567 58.146635 
L 217.75567 57.792 
L 217.950979 57.792 
L 217.950979 57.082729 
L 218.092434 57.082729 
L 218.092434 56.728094 
L 218.698193 56.728094 
L 218.698193 56.373459 
L 218.876892 56.373459 
L 218.876892 56.018824 
L 219.036283 56.018824 
L 219.113719 54.954918 
L 219.951834 54.954918 
L 219.951834 54.600282 
L 220.082401 54.600282 
L 220.089072 53.891012 
L 220.294719 53.891012 
L 220.294719 53.181741 
L 221.168109 53.181741 
L 221.168109 52.827106 
L 221.536088 52.827106 
L 221.579272 52.117835 
L 222.014787 52.117835 
L 222.014787 51.7632 
L 222.865321 51.7632 
L 222.865321 51.408565 
L 223.008648 51.408565 
L 223.008648 51.053929 
L 223.381866 51.053929 
L 223.381866 50.699294 
L 224.289083 50.699294 
L 224.289083 50.344659 
L 225.013902 50.344659 
L 225.013902 49.990024 
L 225.527897 49.990024 
L 225.527897 49.635388 
L 225.857194 49.635388 
L 225.857194 49.280753 
L 226.339381 49.280753 
L 226.339381 48.926118 
L 226.790843 48.926118 
L 226.790843 48.571482 
L 227.340914 48.571482 
L 227.340914 47.507576 
L 227.859917 47.507576 
L 227.859917 46.443671 
L 228.138076 46.443671 
L 228.138076 45.7344 
L 228.591311 45.7344 
L 228.591311 44.670494 
L 229.387103 44.670494 
L 229.387103 43.251953 
L 229.563273 43.251953 
L 229.563273 41.833412 
L 230.604161 41.833412 
L 230.604161 41.124141 
L 244.02419 41.124141 
L 244.109958 40.060235 
L 244.624659 40.060235 
L 244.624659 39.350965 
L 244.911171 39.350965 
L 244.911171 38.996329 
L 245.1089 38.996329 
L 245.1089 38.641694 
L 245.374275 38.641694 
L 245.374275 38.287059 
L 245.579268 38.287059 
L 245.579268 37.932424 
L 245.722384 37.932424 
L 245.806714 37.223153 
L 245.965823 37.223153 
L 246.062491 36.513882 
L 246.094324 36.513882 
L 246.094324 36.159247 
L 246.229435 36.159247 
L 246.235251 35.449976 
L 246.580163 35.449976 
L 246.61846 34.386071 
L 246.71265 34.386071 
L 246.71265 33.6768 
L 246.84582 33.6768 
L 246.85788 32.967529 
L 246.982046 32.967529 
L 247.05695 31.903624 
L 247.141059 31.903624 
L 247.141059 31.548988 
L 247.264163 31.548988 
L 247.28146 30.485082 
L 247.408335 30.485082 
L 247.454331 29.421176 
L 247.53281 29.421176 
L 247.53281 29.066541 
L 248.01054 29.066541 
L 248.01054 28.711906 
L 248.159627 28.711906 
L 248.159627 28.357271 
L 250.807425 28.357271 
L 250.807425 28.002635 
L 251.111172 28.002635 
L 251.111172 27.648 
L 360.8064 27.648 
L 360.8064 27.648 
" style="fill:none;stroke:#000080;stroke-linecap:square;stroke-width:1.5;"/>
   </g>
   <g id="line2d_36">
    <defs>
     <path d="M 0 6 
C 1.591219 6 3.117479 5.367802 4.242641 4.242641 
C 5.367802 3.117479 6 1.591219 6 0 
C 6 -1.591219 5.367802 -3.117479 4.242641 -4.242641 
C 3.117479 -5.367802 1.591219 -6 0 -6 
C -1.591219 -6 -3.117479 -5.367802 -4.242641 -4.242641 
C -5.367802 -3.117479 -6 -1.591219 -6 0 
C -6 1.591219 -5.367802 3.117479 -4.242641 4.242641 
C -3.117479 5.367802 -1.591219 6 0 6 
z
" id="m6aaff2bd2e" style="stroke:#000080;stroke-width:1.5;"/>
    </defs>
    <g>
     <use style="fill-opacity:0;stroke:#000080;stroke-width:1.5;" x="99.950294" xlink:href="#m6aaff2bd2e" y="268.445365"/>
     <use style="fill-opacity:0;stroke:#000080;stroke-width:1.5;" x="205.032852" xlink:href="#m6aaff2bd2e" y="164.537224"/>
     <use style="fill-opacity:0;stroke:#000080;stroke-width:1.5;" x="251.111172" xlink:href="#m6aaff2bd2e" y="28.002635"/>
     <use style="fill-opacity:0;stroke:#000080;stroke-width:1.5;" x="251.111172" xlink:href="#m6aaff2bd2e" y="27.648"/>
     <use style="fill-opacity:0;stroke:#000080;stroke-width:1.5;" x="360.8064" xlink:href="#m6aaff2bd2e" y="27.648"/>
    </g>
   </g>
   <g id="line2d_37">
    <path style="fill:none;stroke:#000080;stroke-linecap:square;stroke-width:1.5;"/>
    <g/>
   </g>
   <g id="line2d_38">
    <path clip-path="url(#pe60a88e56a)" d="M 243.909378 41.124141 
" style="fill:none;stroke:#000080;stroke-linecap:square;stroke-width:1.5;"/>
    <defs>
     <path d="M -12 12 
L 12 -12 
M -12 -12 
L 12 12 
" id="m517ceffe96" style="stroke:#000080;"/>
    </defs>
    <g clip-path="url(#pe60a88e56a)">
     <use style="fill:#000080;stroke:#000080;" x="243.909378" xlink:href="#m517ceffe96" y="41.124141"/>
    </g>
   </g>
   <g id="line2d_39">
    <defs>
     <path d="M 0 1.5 
C 0.397805 1.5 0.77937 1.341951 1.06066 1.06066 
C 1.341951 0.77937 1.5 0.397805 1.5 0 
C 1.5 -0.397805 1.341951 -0.77937 1.06066 -1.06066 
C 0.77937 -1.341951 0.397805 -1.5 0 -1.5 
C -0.397805 -1.5 -0.77937 -1.341951 -1.06066 -1.06066 
C -1.341951 -0.77937 -1.5 -0.397805 -1.5 0 
C -1.5 0.397805 -1.341951 0.77937 -1.06066 1.06066 
C -0.77937 1.341951 -0.397805 1.5 0 1.5 
z
" id="m8976a19456" style="stroke:#ff00ff;"/>
    </defs>
    <g>
     <use style="fill:#ff00ff;stroke:#ff00ff;" x="287.236513" xlink:href="#m8976a19456" y="27.648"/>
     <use style="fill:#ff00ff;stroke:#ff00ff;" x="287.236513" xlink:href="#m8976a19456" y="27.648"/>
    </g>
   </g>
   <g id="line2d_40">
    <path d="M 44.560826 298.944 
L 44.560826 295.752282 
L 57.6 295.752282 
L 57.6 291.496659 
L 70.639174 291.496659 
L 70.639174 288.659576 
L 74.836851 288.659576 
L 74.836851 285.822494 
L 81.166416 285.822494 
L 81.166416 285.113224 
L 83.678349 285.113224 
L 83.678349 283.340047 
L 87.876026 283.340047 
L 87.876026 280.148329 
L 89.668958 280.148329 
L 89.668958 279.439059 
L 91.305777 279.439059 
L 91.305777 274.474165 
L 92.811505 274.474165 
L 92.811505 273.410259 
L 94.205591 273.410259 
L 94.205591 272.700988 
L 95.503454 272.700988 
L 95.503454 271.637082 
L 98.933205 271.637082 
L 98.933205 271.282447 
L 99.950294 271.282447 
L 99.950294 266.672188 
L 100.9152 266.672188 
L 100.9152 264.189741 
L 101.833019 264.189741 
L 101.833019 263.835106 
L 102.708132 263.835106 
L 102.708132 262.061929 
L 103.544339 262.061929 
L 103.544339 261.707294 
L 105.850679 261.707294 
L 105.850679 261.352659 
L 106.560633 261.352659 
L 106.560633 260.288753 
L 109.159456 260.288753 
L 109.159456 259.579482 
L 109.756698 259.579482 
L 109.756698 257.451671 
L 111.442442 257.451671 
L 111.442442 252.841412 
L 111.97238 252.841412 
L 111.97238 250.004329 
L 114.418881 250.004329 
L 114.418881 249.295059 
L 115.314838 249.295059 
L 115.314838 247.167247 
L 118.524569 247.167247 
L 118.524569 246.812612 
L 119.944983 246.812612 
L 119.944983 246.457976 
L 122.795872 246.457976 
L 122.795872 245.394071 
L 126.028642 245.394071 
L 126.028642 245.039435 
L 126.274549 245.039435 
L 126.274549 244.330165 
L 127.686077 244.330165 
L 127.686077 243.975529 
L 127.911368 243.975529 
L 127.911368 243.620894 
L 129.417095 243.620894 
L 129.417095 243.266259 
L 130.226319 243.266259 
L 130.226319 242.911624 
L 131.002163 242.911624 
L 131.002163 241.493082 
L 131.747272 241.493082 
L 131.747272 241.138447 
L 131.929028 241.138447 
L 131.929028 240.074541 
L 132.812362 240.074541 
L 132.812362 239.719906 
L 133.154399 239.719906 
L 133.154399 239.365271 
L 133.323114 239.365271 
L 133.323114 239.010635 
L 133.656071 239.010635 
L 133.656071 238.656 
L 134.620977 238.656 
L 134.620977 237.946729 
L 135.835047 237.946729 
L 135.835047 237.592094 
L 135.981441 237.592094 
L 135.981441 237.237459 
L 136.413909 237.237459 
L 136.413909 236.173553 
L 136.97549 236.173553 
L 136.97549 235.818918 
L 137.520791 235.818918 
L 137.520791 235.464282 
L 137.787626 235.464282 
L 137.787626 235.109647 
L 138.180913 235.109647 
L 138.180913 234.755012 
L 138.310202 234.755012 
L 138.310202 234.400376 
L 139.067817 234.400376 
L 139.067817 232.981835 
L 139.313723 232.981835 
L 139.313723 232.272565 
L 140.032723 232.272565 
L 140.032723 231.917929 
L 140.49723 231.917929 
L 140.49723 230.854024 
L 140.611586 230.854024 
L 140.611586 228.371576 
L 141.393187 228.371576 
L 141.393187 226.243765 
L 142.143605 226.243765 
L 142.143605 225.534494 
L 142.559347 225.534494 
L 142.661862 224.825224 
L 142.763822 224.825224 
L 142.865233 222.342776 
L 143.066428 222.342776 
L 143.066428 221.988141 
L 143.462475 221.988141 
L 143.462475 221.633506 
L 144.602918 221.633506 
L 144.602918 220.5696 
L 144.877544 220.5696 
L 144.877544 219.860329 
L 145.326529 219.860329 
L 145.326529 219.151059 
L 146.023332 219.151059 
L 146.023332 218.441788 
L 146.27812 218.441788 
L 146.27812 218.087153 
L 146.777571 218.087153 
L 146.859539 217.377882 
L 147.264104 217.377882 
L 147.264104 216.668612 
L 147.660152 216.668612 
L 147.660152 216.313976 
L 147.893838 216.313976 
L 147.893838 212.412988 
L 148.048032 212.412988 
L 148.048032 212.058353 
L 149.595059 212.058353 
L 149.665646 210.639812 
L 149.73597 210.639812 
L 149.73597 209.575906 
L 150.152479 209.575906 
L 150.152479 208.866635 
L 150.425115 208.866635 
L 150.425115 208.512 
L 150.693856 208.512 
L 150.693856 208.157365 
L 151.220087 208.157365 
L 151.284843 207.448094 
L 151.54166 207.448094 
L 151.54166 207.093459 
L 151.731998 207.093459 
L 151.731998 205.674918 
L 151.982822 205.674918 
L 152.045009 203.192471 
L 152.291722 203.192471 
L 152.291722 202.837835 
L 152.474656 202.837835 
L 152.474656 202.128565 
L 152.655828 202.128565 
L 152.655828 201.773929 
L 152.775647 201.773929 
L 152.775647 201.064659 
L 153.01302 201.064659 
L 153.01302 199.291482 
L 153.130592 199.291482 
L 153.130592 198.936847 
L 153.247435 198.936847 
L 153.305585 198.227576 
L 153.363556 198.227576 
L 153.421349 196.809035 
L 153.593669 196.809035 
L 153.650761 196.099765 
L 153.877408 196.099765 
L 153.877408 195.035859 
L 154.101358 195.035859 
L 154.156931 190.780235 
L 154.377597 190.780235 
L 154.486967 187.588518 
L 154.649839 187.588518 
L 154.649839 186.879247 
L 154.918196 186.879247 
L 154.918196 186.524612 
L 155.077392 186.524612 
L 155.18278 185.460706 
L 155.28758 185.460706 
L 155.391799 184.042165 
L 155.598521 184.042165 
L 155.649849 181.205082 
L 155.904407 181.205082 
L 155.904407 179.431906 
L 156.055505 179.431906 
L 156.155566 176.594824 
L 156.205398 176.594824 
L 156.255099 175.530918 
L 156.550574 175.530918 
L 156.599372 170.211388 
L 156.88953 170.211388 
L 156.88953 169.502118 
L 157.032948 169.502118 
L 157.032948 168.438212 
L 157.222487 168.438212 
L 157.222487 167.728941 
L 157.410135 167.728941 
L 157.503261 164.182588 
L 157.688143 164.182588 
L 157.688143 163.827953 
L 157.916719 163.827953 
L 158.007377 162.409412 
L 158.052543 162.409412 
L 158.052543 162.054776 
L 158.232129 162.054776 
L 158.321284 160.636235 
L 158.410018 160.636235 
L 158.454228 158.153788 
L 158.760826 158.153788 
L 158.760826 156.380612 
L 159.019705 156.380612 
L 159.062507 154.962071 
L 159.14782 154.962071 
L 159.232748 152.834259 
L 159.317295 152.834259 
L 159.401463 149.642541 
L 159.568678 149.642541 
L 159.61025 148.578635 
L 159.693121 148.578635 
L 159.693121 147.160094 
L 159.816746 147.160094 
L 159.857774 143.968376 
L 160.142495 143.968376 
L 160.18282 141.840565 
L 160.303279 141.840565 
L 160.303279 140.776659 
L 160.422971 140.776659 
L 160.4627 139.358118 
L 160.581385 139.358118 
L 160.620781 138.294212 
L 160.738476 138.294212 
L 160.738476 134.038588 
L 160.933013 134.038588 
L 160.933013 130.492235 
L 161.048777 130.492235 
L 161.125559 129.428329 
L 161.278189 129.428329 
L 161.278189 129.073694 
L 161.391854 129.073694 
L 161.467251 127.300518 
L 161.542347 127.300518 
L 161.542347 126.945882 
L 161.691646 126.945882 
L 161.728786 126.236612 
L 161.839769 126.236612 
L 161.950101 124.463435 
L 161.986735 124.463435 
L 162.096211 121.980988 
L 162.241195 121.980988 
L 162.349204 121.271718 
L 162.38507 121.271718 
L 162.38507 119.853176 
L 162.527853 119.853176 
L 162.527853 119.498541 
L 162.66956 119.498541 
L 162.66956 119.143906 
L 162.845206 119.143906 
L 162.880139 117.016094 
L 163.157294 117.016094 
L 163.22595 115.597553 
L 163.666204 115.597553 
L 163.699647 113.469741 
L 164.194282 113.469741 
L 164.291668 110.987294 
L 164.324018 110.987294 
L 164.324018 109.214118 
L 164.580835 109.214118 
L 164.580835 108.859482 
L 164.802709 108.859482 
L 164.802709 107.086306 
L 164.928329 107.086306 
L 164.928329 106.731671 
L 165.361509 106.731671 
L 165.361509 105.313129 
L 165.574415 105.313129 
L 165.604634 104.603859 
L 165.695002 104.603859 
L 165.695002 103.894588 
L 165.993131 103.894588 
L 165.993131 102.121412 
L 166.489353 102.121412 
L 166.489353 101.412141 
L 167.251516 101.412141 
L 167.361848 98.575059 
L 168.063651 98.575059 
L 168.063651 98.220424 
L 168.300609 98.220424 
L 168.300609 96.092612 
L 168.689024 96.092612 
L 168.689024 95.737976 
L 169.269439 95.737976 
L 169.294273 95.028706 
L 169.589749 95.028706 
L 169.589749 93.610165 
L 169.928705 93.610165 
L 169.928705 92.546259 
L 170.214455 92.546259 
L 170.261661 90.773082 
L 170.37916 90.773082 
L 170.37916 90.063812 
L 177.379346 90.063812 
L 177.379346 89.354541 
L 182.567747 89.354541 
L 182.567747 87.936 
L 185.490306 87.936 
L 185.490306 87.226729 
L 188.906064 87.226729 
L 188.906064 86.872094 
L 196.994441 86.872094 
L 196.994441 86.162824 
L 199.016237 86.162824 
L 199.016237 85.808188 
L 199.510643 85.808188 
L 199.510643 81.9072 
L 208.362096 81.9072 
L 208.362096 81.552565 
L 221.720471 81.552565 
L 221.720471 81.197929 
L 221.936349 81.197929 
L 221.936349 79.070118 
L 224.33438 79.070118 
L 224.33438 78.360847 
L 228.660161 78.360847 
L 228.660161 77.296941 
L 229.184607 77.296941 
L 229.184607 76.942306 
L 246.554043 76.942306 
L 246.554043 75.8784 
L 247.319534 75.8784 
L 247.319534 74.459859 
L 260.141598 74.459859 
L 260.141598 73.395953 
L 261.173472 73.395953 
L 261.282986 43.961224 
L 268.508822 43.961224 
L 268.508822 43.606588 
L 273.685933 43.606588 
L 273.685933 43.251953 
L 274.201754 43.251953 
L 274.251096 32.258259 
L 274.528866 32.258259 
L 274.528866 31.903624 
L 281.819724 31.903624 
L 281.85315 29.066541 
L 287.230782 29.066541 
L 287.236513 27.648 
L 360.8064 27.648 
L 360.8064 27.648 
" style="fill:none;stroke:#ff00ff;stroke-linecap:square;stroke-width:1.5;"/>
   </g>
   <g id="line2d_41">
    <defs>
     <path d="M -0 8.485281 
L 5.091169 0 
L 0 -8.485281 
L -5.091169 -0 
z
" id="m9278b767de" style="stroke:#ff00ff;stroke-linejoin:miter;stroke-width:1.5;"/>
    </defs>
    <g>
     <use style="fill-opacity:0;stroke:#ff00ff;stroke-linejoin:miter;stroke-width:1.5;" x="83.678349" xlink:href="#m9278b767de" y="285.113224"/>
     <use style="fill-opacity:0;stroke:#ff00ff;stroke-linejoin:miter;stroke-width:1.5;" x="154.377597" xlink:href="#m9278b767de" y="189.716329"/>
     <use style="fill-opacity:0;stroke:#ff00ff;stroke-linejoin:miter;stroke-width:1.5;" x="199.510643" xlink:href="#m9278b767de" y="85.808188"/>
     <use style="fill-opacity:0;stroke:#ff00ff;stroke-linejoin:miter;stroke-width:1.5;" x="287.236513" xlink:href="#m9278b767de" y="28.002635"/>
     <use style="fill-opacity:0;stroke:#ff00ff;stroke-linejoin:miter;stroke-width:1.5;" x="287.236513" xlink:href="#m9278b767de" y="27.648"/>
     <use style="fill-opacity:0;stroke:#ff00ff;stroke-linejoin:miter;stroke-width:1.5;" x="360.8064" xlink:href="#m9278b767de" y="27.648"/>
    </g>
   </g>
   <g id="line2d_42">
    <path style="fill:none;stroke:#ff00ff;stroke-linecap:square;stroke-width:1.5;"/>
    <g/>
   </g>
   <g id="line2d_43">
    <path clip-path="url(#pe60a88e56a)" d="M 261.137954 73.395953 
" style="fill:none;stroke:#ff00ff;stroke-linecap:square;stroke-width:1.5;"/>
    <defs>
     <path d="M -12 12 
L 12 -12 
M -12 -12 
L 12 12 
" id="md9ab981ea2" style="stroke:#ff00ff;"/>
    </defs>
    <g clip-path="url(#pe60a88e56a)">
     <use style="fill:#ff00ff;stroke:#ff00ff;" x="261.137954" xlink:href="#md9ab981ea2" y="73.395953"/>
    </g>
   </g>
   <g id="line2d_44">
    <path d="M 360.8064 27.648 
L 380.514816 293.51808 
" style="fill:none;stroke:#ff00ff;stroke-linecap:square;stroke-width:1.5;"/>
    <g>
     <use style="fill-opacity:0;stroke:#ff00ff;stroke-linejoin:miter;stroke-width:1.5;" x="360.8064" xlink:href="#m9278b767de" y="27.648"/>
     <use style="fill-opacity:0;stroke:#ff00ff;stroke-linejoin:miter;stroke-width:1.5;" x="380.514816" xlink:href="#m9278b767de" y="293.51808"/>
    </g>
   </g>
   <g id="line2d_45">
    <path d="M 360.8064 27.648 
L 380.514816 163.296 
" style="fill:none;stroke:#000080;stroke-linecap:square;stroke-width:1.5;"/>
    <g>
     <use style="fill-opacity:0;stroke:#000080;stroke-width:1.5;" x="360.8064" xlink:href="#m6aaff2bd2e" y="27.648"/>
     <use style="fill-opacity:0;stroke:#000080;stroke-width:1.5;" x="380.514816" xlink:href="#m6aaff2bd2e" y="163.296"/>
    </g>
   </g>
   <g id="line2d_46">
    <path d="M 360.8064 298.944 
L 360.8064 27.648 
" style="fill:none;stroke:#000000;stroke-linecap:square;stroke-width:1.5;"/>
   </g>
   <g id="patch_3">
    <path d="M 57.6 298.944 
L 360.8064 298.944 
" style="fill:none;stroke:#000000;stroke-linecap:square;stroke-linejoin:miter;stroke-width:0.8;"/>
   </g>
   <g id="patch_4">
    <path d="M 57.6 27.648 
L 360.8064 27.648 
" style="fill:none;stroke:#000000;stroke-linecap:square;stroke-linejoin:miter;stroke-width:0.8;"/>
   </g>
   <g id="text_13">
    <!-- cma.fmin  -->
    <g transform="translate(386.578944 297.381205)scale(0.14 -0.14)">
     <use xlink:href="#DejaVuSans-63"/>
     <use x="54.980469" xlink:href="#DejaVuSans-6d"/>
     <use x="152.392578" xlink:href="#DejaVuSans-61"/>
     <use x="213.671875" xlink:href="#DejaVuSans-2e"/>
     <use x="245.458984" xlink:href="#DejaVuSans-66"/>
     <use x="280.664062" xlink:href="#DejaVuSans-6d"/>
     <use x="378.076172" xlink:href="#DejaVuSans-69"/>
     <use x="405.859375" xlink:href="#DejaVuSans-6e"/>
     <use x="469.238281" xlink:href="#DejaVuSans-20"/>
    </g>
   </g>
   <g id="text_14">
    <!-- different -->
    <g transform="translate(386.578944 167.159125)scale(0.14 -0.14)">
     <use xlink:href="#DejaVuSans-64"/>
     <use x="63.476562" xlink:href="#DejaVuSans-69"/>
     <use x="91.259766" xlink:href="#DejaVuSans-66"/>
     <use x="126.464844" xlink:href="#DejaVuSans-66"/>
     <use x="161.669922" xlink:href="#DejaVuSans-65"/>
     <use x="223.193359" xlink:href="#DejaVuSans-72"/>
     <use x="262.056641" xlink:href="#DejaVuSans-65"/>
     <use x="323.580078" xlink:href="#DejaVuSans-6e"/>
     <use x="386.958984" xlink:href="#DejaVuSans-74"/>
    </g>
   </g>
   <g id="text_15">
    <!-- best 2009 -->
    <g transform="translate(386.578944 36.937045)scale(0.14 -0.14)">
     <defs>
      <path d="M 3116 1747 
Q 3116 2381 2855 2742 
Q 2594 3103 2138 3103 
Q 1681 3103 1420 2742 
Q 1159 2381 1159 1747 
Q 1159 1113 1420 752 
Q 1681 391 2138 391 
Q 2594 391 2855 752 
Q 3116 1113 3116 1747 
z
M 1159 2969 
Q 1341 3281 1617 3432 
Q 1894 3584 2278 3584 
Q 2916 3584 3314 3078 
Q 3713 2572 3713 1747 
Q 3713 922 3314 415 
Q 2916 -91 2278 -91 
Q 1894 -91 1617 61 
Q 1341 213 1159 525 
L 1159 0 
L 581 0 
L 581 4863 
L 1159 4863 
L 1159 2969 
z
" id="DejaVuSans-62" transform="scale(0.015625)"/>
      <path d="M 703 97 
L 703 672 
Q 941 559 1184 500 
Q 1428 441 1663 441 
Q 2288 441 2617 861 
Q 2947 1281 2994 2138 
Q 2813 1869 2534 1725 
Q 2256 1581 1919 1581 
Q 1219 1581 811 2004 
Q 403 2428 403 3163 
Q 403 3881 828 4315 
Q 1253 4750 1959 4750 
Q 2769 4750 3195 4129 
Q 3622 3509 3622 2328 
Q 3622 1225 3098 567 
Q 2575 -91 1691 -91 
Q 1453 -91 1209 -44 
Q 966 3 703 97 
z
M 1959 2075 
Q 2384 2075 2632 2365 
Q 2881 2656 2881 3163 
Q 2881 3666 2632 3958 
Q 2384 4250 1959 4250 
Q 1534 4250 1286 3958 
Q 1038 3666 1038 3163 
Q 1038 2656 1286 2365 
Q 1534 2075 1959 2075 
z
" id="DejaVuSans-39" transform="scale(0.015625)"/>
     </defs>
     <use xlink:href="#DejaVuSans-62"/>
     <use x="63.476562" xlink:href="#DejaVuSans-65"/>
     <use x="125" xlink:href="#DejaVuSans-73"/>
     <use x="177.099609" xlink:href="#DejaVuSans-74"/>
     <use x="216.308594" xlink:href="#DejaVuSans-20"/>
     <use x="248.095703" xlink:href="#DejaVuSans-32"/>
     <use x="311.71875" xlink:href="#DejaVuSans-30"/>
     <use x="375.341797" xlink:href="#DejaVuSans-30"/>
     <use x="438.964844" xlink:href="#DejaVuSans-39"/>
    </g>
   </g>
   <g id="text_16">
    <!-- bbob f8, 2-D -->
    <g transform="translate(60.632064 38.111366)scale(0.102 -0.102)">
     <defs>
      <path d="M 1259 4147 
L 1259 519 
L 2022 519 
Q 2988 519 3436 956 
Q 3884 1394 3884 2338 
Q 3884 3275 3436 3711 
Q 2988 4147 2022 4147 
L 1259 4147 
z
M 628 4666 
L 1925 4666 
Q 3281 4666 3915 4102 
Q 4550 3538 4550 2338 
Q 4550 1131 3912 565 
Q 3275 0 1925 0 
L 628 0 
L 628 4666 
z
" id="DejaVuSans-44" transform="scale(0.015625)"/>
     </defs>
     <use xlink:href="#DejaVuSans-62"/>
     <use x="63.476562" xlink:href="#DejaVuSans-62"/>
     <use x="126.953125" xlink:href="#DejaVuSans-6f"/>
     <use x="188.134766" xlink:href="#DejaVuSans-62"/>
     <use x="251.611328" xlink:href="#DejaVuSans-20"/>
     <use x="283.398438" xlink:href="#DejaVuSans-66"/>
     <use x="318.603516" xlink:href="#DejaVuSans-38"/>
     <use x="382.226562" xlink:href="#DejaVuSans-2c"/>
     <use x="414.013672" xlink:href="#DejaVuSans-20"/>
     <use x="445.800781" xlink:href="#DejaVuSans-32"/>
     <use x="509.423828" xlink:href="#DejaVuSans-2d"/>
     <use x="545.507812" xlink:href="#DejaVuSans-44"/>
    </g>
    <!-- 51 targets: 100..1e-08 -->
    <g transform="translate(60.632064 49.533135)scale(0.102 -0.102)">
     <defs>
      <path d="M 691 4666 
L 3169 4666 
L 3169 4134 
L 1269 4134 
L 1269 2991 
Q 1406 3038 1543 3061 
Q 1681 3084 1819 3084 
Q 2600 3084 3056 2656 
Q 3513 2228 3513 1497 
Q 3513 744 3044 326 
Q 2575 -91 1722 -91 
Q 1428 -91 1123 -41 
Q 819 9 494 109 
L 494 744 
Q 775 591 1075 516 
Q 1375 441 1709 441 
Q 2250 441 2565 725 
Q 2881 1009 2881 1497 
Q 2881 1984 2565 2268 
Q 2250 2553 1709 2553 
Q 1456 2553 1204 2497 
Q 953 2441 691 2322 
L 691 4666 
z
" id="DejaVuSans-35" transform="scale(0.015625)"/>
      <path d="M 750 794 
L 1409 794 
L 1409 0 
L 750 0 
L 750 794 
z
M 750 3309 
L 1409 3309 
L 1409 2516 
L 750 2516 
L 750 3309 
z
" id="DejaVuSans-3a" transform="scale(0.015625)"/>
     </defs>
     <use xlink:href="#DejaVuSans-35"/>
     <use x="63.623047" xlink:href="#DejaVuSans-31"/>
     <use x="127.246094" xlink:href="#DejaVuSans-20"/>
     <use x="159.033203" xlink:href="#DejaVuSans-74"/>
     <use x="198.242188" xlink:href="#DejaVuSans-61"/>
     <use x="259.521484" xlink:href="#DejaVuSans-72"/>
     <use x="298.884766" xlink:href="#DejaVuSans-67"/>
     <use x="362.361328" xlink:href="#DejaVuSans-65"/>
     <use x="423.884766" xlink:href="#DejaVuSans-74"/>
     <use x="463.09375" xlink:href="#DejaVuSans-73"/>
     <use x="515.193359" xlink:href="#DejaVuSans-3a"/>
     <use x="548.884766" xlink:href="#DejaVuSans-20"/>
     <use x="580.671875" xlink:href="#DejaVuSans-31"/>
     <use x="644.294922" xlink:href="#DejaVuSans-30"/>
     <use x="707.917969" xlink:href="#DejaVuSans-30"/>
     <use x="771.541016" xlink:href="#DejaVuSans-2e"/>
     <use x="803.328125" xlink:href="#DejaVuSans-2e"/>
     <use x="835.115234" xlink:href="#DejaVuSans-31"/>
     <use x="898.738281" xlink:href="#DejaVuSans-65"/>
     <use x="960.261719" xlink:href="#DejaVuSans-2d"/>
     <use x="996.345703" xlink:href="#DejaVuSans-30"/>
     <use x="1059.96875" xlink:href="#DejaVuSans-38"/>
    </g>
    <!-- 15 instances -->
    <g transform="translate(60.632064 60.954904)scale(0.102 -0.102)">
     <use xlink:href="#DejaVuSans-31"/>
     <use x="63.623047" xlink:href="#DejaVuSans-35"/>
     <use x="127.246094" xlink:href="#DejaVuSans-20"/>
     <use x="159.033203" xlink:href="#DejaVuSans-69"/>
     <use x="186.816406" xlink:href="#DejaVuSans-6e"/>
     <use x="250.195312" xlink:href="#DejaVuSans-73"/>
     <use x="302.294922" xlink:href="#DejaVuSans-74"/>
     <use x="341.503906" xlink:href="#DejaVuSans-61"/>
     <use x="402.783203" xlink:href="#DejaVuSans-6e"/>
     <use x="466.162109" xlink:href="#DejaVuSans-63"/>
     <use x="521.142578" xlink:href="#DejaVuSans-65"/>
     <use x="582.666016" xlink:href="#DejaVuSans-73"/>
    </g>
   </g>
   <g id="text_17">
    <!-- v2.6 -->
    <g style="fill:#808080;" transform="translate(198.292262 294.151352)scale(0.1 -0.1)">
     <use xlink:href="#DejaVuSans-76"/>
     <use x="59.179688" xlink:href="#DejaVuSans-32"/>
     <use x="122.802734" xlink:href="#DejaVuSans-2e"/>
     <use x="154.589844" xlink:href="#DejaVuSans-36"/>
    </g>
   </g>
   <g id="text_18">
    <!-- 8 Rosenbrock original -->
    <g transform="translate(101.14695 21.648)scale(0.2 -0.2)">
     <defs>
      <path d="M 2841 2188 
Q 3044 2119 3236 1894 
Q 3428 1669 3622 1275 
L 4263 0 
L 3584 0 
L 2988 1197 
Q 2756 1666 2539 1819 
Q 2322 1972 1947 1972 
L 1259 1972 
L 1259 0 
L 628 0 
L 628 4666 
L 2053 4666 
Q 2853 4666 3247 4331 
Q 3641 3997 3641 3322 
Q 3641 2881 3436 2590 
Q 3231 2300 2841 2188 
z
M 1259 4147 
L 1259 2491 
L 2053 2491 
Q 2509 2491 2742 2702 
Q 2975 2913 2975 3322 
Q 2975 3731 2742 3939 
Q 2509 4147 2053 4147 
L 1259 4147 
z
" id="DejaVuSans-52" transform="scale(0.015625)"/>
      <path d="M 581 4863 
L 1159 4863 
L 1159 1991 
L 2875 3500 
L 3609 3500 
L 1753 1863 
L 3688 0 
L 2938 0 
L 1159 1709 
L 1159 0 
L 581 0 
L 581 4863 
z
" id="DejaVuSans-6b" transform="scale(0.015625)"/>
     </defs>
     <use xlink:href="#DejaVuSans-38"/>
     <use x="63.623047" xlink:href="#DejaVuSans-20"/>
     <use x="95.410156" xlink:href="#DejaVuSans-52"/>
     <use x="160.392578" xlink:href="#DejaVuSans-6f"/>
     <use x="221.574219" xlink:href="#DejaVuSans-73"/>
     <use x="273.673828" xlink:href="#DejaVuSans-65"/>
     <use x="335.197266" xlink:href="#DejaVuSans-6e"/>
     <use x="398.576172" xlink:href="#DejaVuSans-62"/>
     <use x="462.052734" xlink:href="#DejaVuSans-72"/>
     <use x="500.916016" xlink:href="#DejaVuSans-6f"/>
     <use x="562.097656" xlink:href="#DejaVuSans-63"/>
     <use x="617.078125" xlink:href="#DejaVuSans-6b"/>
     <use x="674.988281" xlink:href="#DejaVuSans-20"/>
     <use x="706.775391" xlink:href="#DejaVuSans-6f"/>
     <use x="767.957031" xlink:href="#DejaVuSans-72"/>
     <use x="809.070312" xlink:href="#DejaVuSans-69"/>
     <use x="836.853516" xlink:href="#DejaVuSans-67"/>
     <use x="900.330078" xlink:href="#DejaVuSans-69"/>
     <use x="928.113281" xlink:href="#DejaVuSans-6e"/>
     <use x="991.492188" xlink:href="#DejaVuSans-61"/>
     <use x="1052.771484" xlink:href="#DejaVuSans-6c"/>
    </g>
   </g>
  </g>
 </g>
 <defs>
  <clipPath id="pe60a88e56a">
   <rect height="271.296" width="303.2064" x="57.6" y="27.648"/>
  </clipPath>
 </defs>
</svg>
