<?xml version="1.0" encoding="utf-8" standalone="no"?>
<!DOCTYPE svg PUBLIC "-//W3C//DTD SVG 1.1//EN"
  "http://www.w3.org/Graphics/SVG/1.1/DTD/svg11.dtd">
<svg height="345.6pt" version="1.1" viewBox="0 0 460.8 345.6" width="460.8pt" xmlns="http://www.w3.org/2000/svg" xmlns:xlink="http://www.w3.org/1999/xlink">
 <metadata>
  <rdf:RDF xmlns:cc="http://creativecommons.org/ns#" xmlns:dc="http://purl.org/dc/elements/1.1/" xmlns:rdf="http://www.w3.org/1999/02/22-rdf-syntax-ns#">
   <cc:Work>
    <dc:type rdf:resource="http://purl.org/dc/dcmitype/StillImage"/>
    <dc:date>2022-05-22T15:10:57.594566</dc:date>
    <dc:format>image/svg+xml</dc:format>
    <dc:creator>
     <cc:Agent>
      <dc:title>Matplotlib v3.4.3, https://matplotlib.org/</dc:title>
     </cc:Agent>
    </dc:creator>
   </cc:Work>
  </rdf:RDF>
 </metadata>
 <defs>
  <style type="text/css">*{stroke-linecap:butt;stroke-linejoin:round;}</style>
 </defs>
 <g id="figure_1">
  <g id="patch_1">
   <path d="M 0 345.6 
L 460.8 345.6 
L 460.8 0 
L 0 0 
z
" style="fill:#ffffff;"/>
  </g>
  <g id="axes_1">
   <g id="patch_2">
    <path d="M 57.6 298.944 
L 360.8064 298.944 
L 360.8064 27.648 
L 57.6 27.648 
z
" style="fill:#ffffff;"/>
   </g>
   <g id="line2d_1">
    <path d="M 97.857967 298.944 
L 97.857967 293.624471 
L 99.650899 293.624471 
L 99.650899 288.304941 
L 101.922385 288.304941 
L 101.922385 282.985412 
L 104.187532 282.985412 
L 104.187532 277.665882 
L 118.671535 277.665882 
L 118.671535 272.346353 
L 123.145323 272.346353 
L 123.145323 267.026824 
L 123.825333 267.026824 
L 123.825333 261.707294 
L 127.776517 261.707294 
L 127.776517 256.387765 
L 141.436884 256.387765 
L 141.436884 251.068235 
L 142.895549 251.068235 
L 142.895549 245.748706 
L 144.426892 245.748706 
L 144.426892 240.429176 
L 145.773713 240.429176 
L 145.773713 235.109647 
L 146.949293 235.109647 
L 146.949293 229.790118 
L 148.185734 229.790118 
L 148.185734 224.470588 
L 149.158642 224.470588 
L 149.158642 219.151059 
L 150.227848 219.151059 
L 150.227848 213.831529 
L 151.239537 213.831529 
L 151.239537 208.512 
L 152.181101 208.512 
L 152.181101 203.192471 
L 153.113003 203.192471 
L 153.113003 197.872941 
L 153.911171 197.872941 
L 153.911171 192.553412 
L 154.795227 192.553412 
L 154.795227 187.233882 
L 155.731683 187.233882 
L 155.731683 181.914353 
L 159.317295 181.914353 
L 159.317295 176.594824 
L 178.578777 176.594824 
L 178.578777 171.275294 
L 185.67302 171.275294 
L 185.67302 165.955765 
L 186.330527 165.955765 
L 186.330527 160.636235 
L 186.884168 160.636235 
L 186.884168 155.316706 
L 187.352737 155.316706 
L 187.352737 149.997176 
L 187.989908 149.997176 
L 187.989908 144.677647 
L 188.57506 144.677647 
L 188.57506 139.358118 
L 189.095844 139.358118 
L 189.095844 134.038588 
L 189.566307 134.038588 
L 189.566307 128.719059 
L 190.02529 128.719059 
L 190.02529 123.399529 
L 190.478171 123.399529 
L 190.478171 118.08 
L 190.910969 118.08 
L 190.910969 112.760471 
L 191.328649 112.760471 
L 191.328649 107.440941 
L 191.792123 107.440941 
L 191.792123 102.121412 
L 192.228327 102.121412 
L 192.228327 96.801882 
L 192.67399 96.801882 
L 192.67399 91.482353 
L 193.085533 91.482353 
L 193.085533 86.162824 
L 193.485521 86.162824 
L 193.485521 80.843294 
L 193.869118 80.843294 
L 193.869118 75.523765 
L 194.234505 75.523765 
L 194.234505 70.204235 
L 194.548256 70.204235 
L 194.548256 64.884706 
L 194.937037 64.884706 
L 194.937037 59.565176 
L 195.298645 59.565176 
L 195.298645 54.245647 
L 195.665654 54.245647 
L 195.665654 48.926118 
L 195.957199 48.926118 
L 195.957199 43.606588 
L 196.295758 43.606588 
L 196.295758 38.287059 
L 196.601034 38.287059 
L 196.601034 32.967529 
L 196.883694 32.967529 
L 196.883694 27.648 
L 360.8064 27.648 
" style="fill:none;stroke:#f5deb3;stroke-linecap:square;stroke-width:4;"/>
   </g>
   <g id="line2d_2">
    <defs>
     <path d="M -0 7.778175 
L 7.778175 0 
L 0 -7.778175 
L -7.778175 -0 
z
" id="mbaa56861e4" style="stroke:#f5deb3;stroke-linejoin:miter;stroke-width:1.5;"/>
    </defs>
    <g>
     <use style="fill:#f5deb3;stroke:#f5deb3;stroke-linejoin:miter;stroke-width:1.5;" x="127.776517" xlink:href="#mbaa56861e4" y="256.387765"/>
     <use style="fill:#f5deb3;stroke:#f5deb3;stroke-linejoin:miter;stroke-width:1.5;" x="189.566307" xlink:href="#mbaa56861e4" y="134.038588"/>
     <use style="fill:#f5deb3;stroke:#f5deb3;stroke-linejoin:miter;stroke-width:1.5;" x="196.883694" xlink:href="#mbaa56861e4" y="32.967529"/>
     <use style="fill:#f5deb3;stroke:#f5deb3;stroke-linejoin:miter;stroke-width:1.5;" x="196.883694" xlink:href="#mbaa56861e4" y="27.648"/>
     <use style="fill:#f5deb3;stroke:#f5deb3;stroke-linejoin:miter;stroke-width:1.5;" x="360.8064" xlink:href="#mbaa56861e4" y="27.648"/>
    </g>
   </g>
   <g id="line2d_3">
    <path style="fill:none;stroke:#f5deb3;stroke-linecap:square;stroke-width:4;"/>
    <g/>
   </g>
   <g id="line2d_4">
    <path d="M 360.8064 27.648 
L 380.514816 33.07392 
" style="fill:none;stroke:#f5deb3;stroke-linecap:square;stroke-width:4;"/>
    <g>
     <use style="fill:#f5deb3;stroke:#f5deb3;stroke-linejoin:miter;stroke-width:1.5;" x="360.8064" xlink:href="#mbaa56861e4" y="27.648"/>
     <use style="fill:#f5deb3;stroke:#f5deb3;stroke-linejoin:miter;stroke-width:1.5;" x="380.514816" xlink:href="#mbaa56861e4" y="33.07392"/>
    </g>
   </g>
   <g id="matplotlib.axis_1">
    <g id="xtick_1">
     <g id="line2d_5">
      <path clip-path="url(#p0c3400a3c9)" d="M 57.6 298.944 
L 57.6 27.648 
" style="fill:none;stroke:#b0b0b0;stroke-linecap:square;stroke-width:0.8;"/>
     </g>
     <g id="line2d_6">
      <defs>
       <path d="M 0 0 
L 0 3.5 
" id="mab7a55d581" style="stroke:#000000;stroke-width:0.8;"/>
      </defs>
      <g>
       <use style="stroke:#000000;stroke-width:0.8;" x="57.6" xlink:href="#mab7a55d581" y="298.944"/>
      </g>
     </g>
     <g id="text_1">
      <!-- 0 -->
      <g transform="translate(52.191875 318.861344)scale(0.17 -0.17)">
       <defs>
        <path d="M 2034 4250 
Q 1547 4250 1301 3770 
Q 1056 3291 1056 2328 
Q 1056 1369 1301 889 
Q 1547 409 2034 409 
Q 2525 409 2770 889 
Q 3016 1369 3016 2328 
Q 3016 3291 2770 3770 
Q 2525 4250 2034 4250 
z
M 2034 4750 
Q 2819 4750 3233 4129 
Q 3647 3509 3647 2328 
Q 3647 1150 3233 529 
Q 2819 -91 2034 -91 
Q 1250 -91 836 529 
Q 422 1150 422 2328 
Q 422 3509 836 4129 
Q 1250 4750 2034 4750 
z
" id="DejaVuSans-30" transform="scale(0.015625)"/>
       </defs>
       <use xlink:href="#DejaVuSans-30"/>
      </g>
     </g>
    </g>
    <g id="xtick_2">
     <g id="line2d_7">
      <path clip-path="url(#p0c3400a3c9)" d="M 144.2304 298.944 
L 144.2304 27.648 
" style="fill:none;stroke:#b0b0b0;stroke-linecap:square;stroke-width:0.8;"/>
     </g>
     <g id="line2d_8">
      <g>
       <use style="stroke:#000000;stroke-width:0.8;" x="144.2304" xlink:href="#mab7a55d581" y="298.944"/>
      </g>
     </g>
     <g id="text_2">
      <!-- 2 -->
      <g transform="translate(138.822275 318.861344)scale(0.17 -0.17)">
       <defs>
        <path d="M 1228 531 
L 3431 531 
L 3431 0 
L 469 0 
L 469 531 
Q 828 903 1448 1529 
Q 2069 2156 2228 2338 
Q 2531 2678 2651 2914 
Q 2772 3150 2772 3378 
Q 2772 3750 2511 3984 
Q 2250 4219 1831 4219 
Q 1534 4219 1204 4116 
Q 875 4013 500 3803 
L 500 4441 
Q 881 4594 1212 4672 
Q 1544 4750 1819 4750 
Q 2544 4750 2975 4387 
Q 3406 4025 3406 3419 
Q 3406 3131 3298 2873 
Q 3191 2616 2906 2266 
Q 2828 2175 2409 1742 
Q 1991 1309 1228 531 
z
" id="DejaVuSans-32" transform="scale(0.015625)"/>
       </defs>
       <use xlink:href="#DejaVuSans-32"/>
      </g>
     </g>
    </g>
    <g id="xtick_3">
     <g id="line2d_9">
      <path clip-path="url(#p0c3400a3c9)" d="M 230.8608 298.944 
L 230.8608 27.648 
" style="fill:none;stroke:#b0b0b0;stroke-linecap:square;stroke-width:0.8;"/>
     </g>
     <g id="line2d_10">
      <g>
       <use style="stroke:#000000;stroke-width:0.8;" x="230.8608" xlink:href="#mab7a55d581" y="298.944"/>
      </g>
     </g>
     <g id="text_3">
      <!-- 4 -->
      <g transform="translate(225.452675 318.861344)scale(0.17 -0.17)">
       <defs>
        <path d="M 2419 4116 
L 825 1625 
L 2419 1625 
L 2419 4116 
z
M 2253 4666 
L 3047 4666 
L 3047 1625 
L 3713 1625 
L 3713 1100 
L 3047 1100 
L 3047 0 
L 2419 0 
L 2419 1100 
L 313 1100 
L 313 1709 
L 2253 4666 
z
" id="DejaVuSans-34" transform="scale(0.015625)"/>
       </defs>
       <use xlink:href="#DejaVuSans-34"/>
      </g>
     </g>
    </g>
    <g id="xtick_4">
     <g id="line2d_11">
      <path clip-path="url(#p0c3400a3c9)" d="M 317.4912 298.944 
L 317.4912 27.648 
" style="fill:none;stroke:#b0b0b0;stroke-linecap:square;stroke-width:0.8;"/>
     </g>
     <g id="line2d_12">
      <g>
       <use style="stroke:#000000;stroke-width:0.8;" x="317.4912" xlink:href="#mab7a55d581" y="298.944"/>
      </g>
     </g>
     <g id="text_4">
      <!-- 6 -->
      <g transform="translate(312.083075 318.861344)scale(0.17 -0.17)">
       <defs>
        <path d="M 2113 2584 
Q 1688 2584 1439 2293 
Q 1191 2003 1191 1497 
Q 1191 994 1439 701 
Q 1688 409 2113 409 
Q 2538 409 2786 701 
Q 3034 994 3034 1497 
Q 3034 2003 2786 2293 
Q 2538 2584 2113 2584 
z
M 3366 4563 
L 3366 3988 
Q 3128 4100 2886 4159 
Q 2644 4219 2406 4219 
Q 1781 4219 1451 3797 
Q 1122 3375 1075 2522 
Q 1259 2794 1537 2939 
Q 1816 3084 2150 3084 
Q 2853 3084 3261 2657 
Q 3669 2231 3669 1497 
Q 3669 778 3244 343 
Q 2819 -91 2113 -91 
Q 1303 -91 875 529 
Q 447 1150 447 2328 
Q 447 3434 972 4092 
Q 1497 4750 2381 4750 
Q 2619 4750 2861 4703 
Q 3103 4656 3366 4563 
z
" id="DejaVuSans-36" transform="scale(0.015625)"/>
       </defs>
       <use xlink:href="#DejaVuSans-36"/>
      </g>
     </g>
    </g>
    <g id="xtick_5">
     <g id="line2d_13">
      <path clip-path="url(#p0c3400a3c9)" d="M 100.9152 298.944 
L 100.9152 27.648 
" style="fill:none;stroke:#b0b0b0;stroke-linecap:square;stroke-width:0.8;"/>
     </g>
     <g id="line2d_14">
      <defs>
       <path d="M 0 0 
L 0 2 
" id="m21c4bb7907" style="stroke:#000000;stroke-width:0.6;"/>
      </defs>
      <g>
       <use style="stroke:#000000;stroke-width:0.6;" x="100.9152" xlink:href="#m21c4bb7907" y="298.944"/>
      </g>
     </g>
    </g>
    <g id="xtick_6">
     <g id="line2d_15">
      <path clip-path="url(#p0c3400a3c9)" d="M 187.5456 298.944 
L 187.5456 27.648 
" style="fill:none;stroke:#b0b0b0;stroke-linecap:square;stroke-width:0.8;"/>
     </g>
     <g id="line2d_16">
      <g>
       <use style="stroke:#000000;stroke-width:0.6;" x="187.5456" xlink:href="#m21c4bb7907" y="298.944"/>
      </g>
     </g>
    </g>
    <g id="xtick_7">
     <g id="line2d_17">
      <path clip-path="url(#p0c3400a3c9)" d="M 274.176 298.944 
L 274.176 27.648 
" style="fill:none;stroke:#b0b0b0;stroke-linecap:square;stroke-width:0.8;"/>
     </g>
     <g id="line2d_18">
      <g>
       <use style="stroke:#000000;stroke-width:0.6;" x="274.176" xlink:href="#m21c4bb7907" y="298.944"/>
      </g>
     </g>
    </g>
    <g id="xtick_8">
     <g id="line2d_19">
      <path clip-path="url(#p0c3400a3c9)" d="M 360.8064 298.944 
L 360.8064 27.648 
" style="fill:none;stroke:#b0b0b0;stroke-linecap:square;stroke-width:0.8;"/>
     </g>
     <g id="line2d_20">
      <g>
       <use style="stroke:#000000;stroke-width:0.6;" x="360.8064" xlink:href="#m21c4bb7907" y="298.944"/>
      </g>
     </g>
    </g>
    <g id="text_5">
     <!-- log10(# f-evals / dimension) -->
     <g transform="translate(88.823278 339.314156)scale(0.17 -0.17)">
      <defs>
       <path d="M 603 4863 
L 1178 4863 
L 1178 0 
L 603 0 
L 603 4863 
z
" id="DejaVuSans-6c" transform="scale(0.015625)"/>
       <path d="M 1959 3097 
Q 1497 3097 1228 2736 
Q 959 2375 959 1747 
Q 959 1119 1226 758 
Q 1494 397 1959 397 
Q 2419 397 2687 759 
Q 2956 1122 2956 1747 
Q 2956 2369 2687 2733 
Q 2419 3097 1959 3097 
z
M 1959 3584 
Q 2709 3584 3137 3096 
Q 3566 2609 3566 1747 
Q 3566 888 3137 398 
Q 2709 -91 1959 -91 
Q 1206 -91 779 398 
Q 353 888 353 1747 
Q 353 2609 779 3096 
Q 1206 3584 1959 3584 
z
" id="DejaVuSans-6f" transform="scale(0.015625)"/>
       <path d="M 2906 1791 
Q 2906 2416 2648 2759 
Q 2391 3103 1925 3103 
Q 1463 3103 1205 2759 
Q 947 2416 947 1791 
Q 947 1169 1205 825 
Q 1463 481 1925 481 
Q 2391 481 2648 825 
Q 2906 1169 2906 1791 
z
M 3481 434 
Q 3481 -459 3084 -895 
Q 2688 -1331 1869 -1331 
Q 1566 -1331 1297 -1286 
Q 1028 -1241 775 -1147 
L 775 -588 
Q 1028 -725 1275 -790 
Q 1522 -856 1778 -856 
Q 2344 -856 2625 -561 
Q 2906 -266 2906 331 
L 2906 616 
Q 2728 306 2450 153 
Q 2172 0 1784 0 
Q 1141 0 747 490 
Q 353 981 353 1791 
Q 353 2603 747 3093 
Q 1141 3584 1784 3584 
Q 2172 3584 2450 3431 
Q 2728 3278 2906 2969 
L 2906 3500 
L 3481 3500 
L 3481 434 
z
" id="DejaVuSans-67" transform="scale(0.015625)"/>
       <path d="M 794 531 
L 1825 531 
L 1825 4091 
L 703 3866 
L 703 4441 
L 1819 4666 
L 2450 4666 
L 2450 531 
L 3481 531 
L 3481 0 
L 794 0 
L 794 531 
z
" id="DejaVuSans-31" transform="scale(0.015625)"/>
       <path d="M 1984 4856 
Q 1566 4138 1362 3434 
Q 1159 2731 1159 2009 
Q 1159 1288 1364 580 
Q 1569 -128 1984 -844 
L 1484 -844 
Q 1016 -109 783 600 
Q 550 1309 550 2009 
Q 550 2706 781 3412 
Q 1013 4119 1484 4856 
L 1984 4856 
z
" id="DejaVuSans-28" transform="scale(0.015625)"/>
       <path d="M 3272 2816 
L 2363 2816 
L 2100 1772 
L 3016 1772 
L 3272 2816 
z
M 2803 4594 
L 2478 3297 
L 3391 3297 
L 3719 4594 
L 4219 4594 
L 3897 3297 
L 4872 3297 
L 4872 2816 
L 3775 2816 
L 3519 1772 
L 4513 1772 
L 4513 1294 
L 3397 1294 
L 3072 0 
L 2572 0 
L 2894 1294 
L 1978 1294 
L 1656 0 
L 1153 0 
L 1478 1294 
L 494 1294 
L 494 1772 
L 1594 1772 
L 1856 2816 
L 850 2816 
L 850 3297 
L 1978 3297 
L 2297 4594 
L 2803 4594 
z
" id="DejaVuSans-23" transform="scale(0.015625)"/>
       <path id="DejaVuSans-20" transform="scale(0.015625)"/>
       <path d="M 2375 4863 
L 2375 4384 
L 1825 4384 
Q 1516 4384 1395 4259 
Q 1275 4134 1275 3809 
L 1275 3500 
L 2222 3500 
L 2222 3053 
L 1275 3053 
L 1275 0 
L 697 0 
L 697 3053 
L 147 3053 
L 147 3500 
L 697 3500 
L 697 3744 
Q 697 4328 969 4595 
Q 1241 4863 1831 4863 
L 2375 4863 
z
" id="DejaVuSans-66" transform="scale(0.015625)"/>
       <path d="M 313 2009 
L 1997 2009 
L 1997 1497 
L 313 1497 
L 313 2009 
z
" id="DejaVuSans-2d" transform="scale(0.015625)"/>
       <path d="M 3597 1894 
L 3597 1613 
L 953 1613 
Q 991 1019 1311 708 
Q 1631 397 2203 397 
Q 2534 397 2845 478 
Q 3156 559 3463 722 
L 3463 178 
Q 3153 47 2828 -22 
Q 2503 -91 2169 -91 
Q 1331 -91 842 396 
Q 353 884 353 1716 
Q 353 2575 817 3079 
Q 1281 3584 2069 3584 
Q 2775 3584 3186 3129 
Q 3597 2675 3597 1894 
z
M 3022 2063 
Q 3016 2534 2758 2815 
Q 2500 3097 2075 3097 
Q 1594 3097 1305 2825 
Q 1016 2553 972 2059 
L 3022 2063 
z
" id="DejaVuSans-65" transform="scale(0.015625)"/>
       <path d="M 191 3500 
L 800 3500 
L 1894 563 
L 2988 3500 
L 3597 3500 
L 2284 0 
L 1503 0 
L 191 3500 
z
" id="DejaVuSans-76" transform="scale(0.015625)"/>
       <path d="M 2194 1759 
Q 1497 1759 1228 1600 
Q 959 1441 959 1056 
Q 959 750 1161 570 
Q 1363 391 1709 391 
Q 2188 391 2477 730 
Q 2766 1069 2766 1631 
L 2766 1759 
L 2194 1759 
z
M 3341 1997 
L 3341 0 
L 2766 0 
L 2766 531 
Q 2569 213 2275 61 
Q 1981 -91 1556 -91 
Q 1019 -91 701 211 
Q 384 513 384 1019 
Q 384 1609 779 1909 
Q 1175 2209 1959 2209 
L 2766 2209 
L 2766 2266 
Q 2766 2663 2505 2880 
Q 2244 3097 1772 3097 
Q 1472 3097 1187 3025 
Q 903 2953 641 2809 
L 641 3341 
Q 956 3463 1253 3523 
Q 1550 3584 1831 3584 
Q 2591 3584 2966 3190 
Q 3341 2797 3341 1997 
z
" id="DejaVuSans-61" transform="scale(0.015625)"/>
       <path d="M 2834 3397 
L 2834 2853 
Q 2591 2978 2328 3040 
Q 2066 3103 1784 3103 
Q 1356 3103 1142 2972 
Q 928 2841 928 2578 
Q 928 2378 1081 2264 
Q 1234 2150 1697 2047 
L 1894 2003 
Q 2506 1872 2764 1633 
Q 3022 1394 3022 966 
Q 3022 478 2636 193 
Q 2250 -91 1575 -91 
Q 1294 -91 989 -36 
Q 684 19 347 128 
L 347 722 
Q 666 556 975 473 
Q 1284 391 1588 391 
Q 1994 391 2212 530 
Q 2431 669 2431 922 
Q 2431 1156 2273 1281 
Q 2116 1406 1581 1522 
L 1381 1569 
Q 847 1681 609 1914 
Q 372 2147 372 2553 
Q 372 3047 722 3315 
Q 1072 3584 1716 3584 
Q 2034 3584 2315 3537 
Q 2597 3491 2834 3397 
z
" id="DejaVuSans-73" transform="scale(0.015625)"/>
       <path d="M 1625 4666 
L 2156 4666 
L 531 -594 
L 0 -594 
L 1625 4666 
z
" id="DejaVuSans-2f" transform="scale(0.015625)"/>
       <path d="M 2906 2969 
L 2906 4863 
L 3481 4863 
L 3481 0 
L 2906 0 
L 2906 525 
Q 2725 213 2448 61 
Q 2172 -91 1784 -91 
Q 1150 -91 751 415 
Q 353 922 353 1747 
Q 353 2572 751 3078 
Q 1150 3584 1784 3584 
Q 2172 3584 2448 3432 
Q 2725 3281 2906 2969 
z
M 947 1747 
Q 947 1113 1208 752 
Q 1469 391 1925 391 
Q 2381 391 2643 752 
Q 2906 1113 2906 1747 
Q 2906 2381 2643 2742 
Q 2381 3103 1925 3103 
Q 1469 3103 1208 2742 
Q 947 2381 947 1747 
z
" id="DejaVuSans-64" transform="scale(0.015625)"/>
       <path d="M 603 3500 
L 1178 3500 
L 1178 0 
L 603 0 
L 603 3500 
z
M 603 4863 
L 1178 4863 
L 1178 4134 
L 603 4134 
L 603 4863 
z
" id="DejaVuSans-69" transform="scale(0.015625)"/>
       <path d="M 3328 2828 
Q 3544 3216 3844 3400 
Q 4144 3584 4550 3584 
Q 5097 3584 5394 3201 
Q 5691 2819 5691 2113 
L 5691 0 
L 5113 0 
L 5113 2094 
Q 5113 2597 4934 2840 
Q 4756 3084 4391 3084 
Q 3944 3084 3684 2787 
Q 3425 2491 3425 1978 
L 3425 0 
L 2847 0 
L 2847 2094 
Q 2847 2600 2669 2842 
Q 2491 3084 2119 3084 
Q 1678 3084 1418 2786 
Q 1159 2488 1159 1978 
L 1159 0 
L 581 0 
L 581 3500 
L 1159 3500 
L 1159 2956 
Q 1356 3278 1631 3431 
Q 1906 3584 2284 3584 
Q 2666 3584 2933 3390 
Q 3200 3197 3328 2828 
z
" id="DejaVuSans-6d" transform="scale(0.015625)"/>
       <path d="M 3513 2113 
L 3513 0 
L 2938 0 
L 2938 2094 
Q 2938 2591 2744 2837 
Q 2550 3084 2163 3084 
Q 1697 3084 1428 2787 
Q 1159 2491 1159 1978 
L 1159 0 
L 581 0 
L 581 3500 
L 1159 3500 
L 1159 2956 
Q 1366 3272 1645 3428 
Q 1925 3584 2291 3584 
Q 2894 3584 3203 3211 
Q 3513 2838 3513 2113 
z
" id="DejaVuSans-6e" transform="scale(0.015625)"/>
       <path d="M 513 4856 
L 1013 4856 
Q 1481 4119 1714 3412 
Q 1947 2706 1947 2009 
Q 1947 1309 1714 600 
Q 1481 -109 1013 -844 
L 513 -844 
Q 928 -128 1133 580 
Q 1338 1288 1338 2009 
Q 1338 2731 1133 3434 
Q 928 4138 513 4856 
z
" id="DejaVuSans-29" transform="scale(0.015625)"/>
      </defs>
      <use xlink:href="#DejaVuSans-6c"/>
      <use x="27.783203" xlink:href="#DejaVuSans-6f"/>
      <use x="88.964844" xlink:href="#DejaVuSans-67"/>
      <use x="152.441406" xlink:href="#DejaVuSans-31"/>
      <use x="216.064453" xlink:href="#DejaVuSans-30"/>
      <use x="279.6875" xlink:href="#DejaVuSans-28"/>
      <use x="318.701172" xlink:href="#DejaVuSans-23"/>
      <use x="402.490234" xlink:href="#DejaVuSans-20"/>
      <use x="434.277344" xlink:href="#DejaVuSans-66"/>
      <use x="463.982422" xlink:href="#DejaVuSans-2d"/>
      <use x="500.066406" xlink:href="#DejaVuSans-65"/>
      <use x="561.589844" xlink:href="#DejaVuSans-76"/>
      <use x="620.769531" xlink:href="#DejaVuSans-61"/>
      <use x="682.048828" xlink:href="#DejaVuSans-6c"/>
      <use x="709.832031" xlink:href="#DejaVuSans-73"/>
      <use x="761.931641" xlink:href="#DejaVuSans-20"/>
      <use x="793.71875" xlink:href="#DejaVuSans-2f"/>
      <use x="827.410156" xlink:href="#DejaVuSans-20"/>
      <use x="859.197266" xlink:href="#DejaVuSans-64"/>
      <use x="922.673828" xlink:href="#DejaVuSans-69"/>
      <use x="950.457031" xlink:href="#DejaVuSans-6d"/>
      <use x="1047.869141" xlink:href="#DejaVuSans-65"/>
      <use x="1109.392578" xlink:href="#DejaVuSans-6e"/>
      <use x="1172.771484" xlink:href="#DejaVuSans-73"/>
      <use x="1224.871094" xlink:href="#DejaVuSans-69"/>
      <use x="1252.654297" xlink:href="#DejaVuSans-6f"/>
      <use x="1313.835938" xlink:href="#DejaVuSans-6e"/>
      <use x="1377.214844" xlink:href="#DejaVuSans-29"/>
     </g>
    </g>
   </g>
   <g id="matplotlib.axis_2">
    <g id="ytick_1">
     <g id="line2d_21">
      <path clip-path="url(#p0c3400a3c9)" d="M 57.6 298.944 
L 360.8064 298.944 
" style="fill:none;stroke:#b0b0b0;stroke-linecap:square;stroke-width:0.8;"/>
     </g>
     <g id="line2d_22">
      <defs>
       <path d="M 0 0 
L -3.5 0 
" id="m2889ecc7cf" style="stroke:#000000;stroke-width:0.8;"/>
      </defs>
      <g>
       <use style="stroke:#000000;stroke-width:0.8;" x="57.6" xlink:href="#m2889ecc7cf" y="298.944"/>
      </g>
     </g>
     <g id="text_6">
      <!-- 0.0 -->
      <g transform="translate(25.155 305.02275)scale(0.16 -0.16)">
       <defs>
        <path d="M 684 794 
L 1344 794 
L 1344 0 
L 684 0 
L 684 794 
z
" id="DejaVuSans-2e" transform="scale(0.015625)"/>
       </defs>
       <use xlink:href="#DejaVuSans-30"/>
       <use x="63.623047" xlink:href="#DejaVuSans-2e"/>
       <use x="95.410156" xlink:href="#DejaVuSans-30"/>
      </g>
     </g>
    </g>
    <g id="ytick_2">
     <g id="line2d_23">
      <path clip-path="url(#p0c3400a3c9)" d="M 57.6 244.6848 
L 360.8064 244.6848 
" style="fill:none;stroke:#b0b0b0;stroke-linecap:square;stroke-width:0.8;"/>
     </g>
     <g id="line2d_24">
      <g>
       <use style="stroke:#000000;stroke-width:0.8;" x="57.6" xlink:href="#m2889ecc7cf" y="244.6848"/>
      </g>
     </g>
     <g id="text_7">
      <!-- 0.2 -->
      <g transform="translate(25.155 250.76355)scale(0.16 -0.16)">
       <use xlink:href="#DejaVuSans-30"/>
       <use x="63.623047" xlink:href="#DejaVuSans-2e"/>
       <use x="95.410156" xlink:href="#DejaVuSans-32"/>
      </g>
     </g>
    </g>
    <g id="ytick_3">
     <g id="line2d_25">
      <path clip-path="url(#p0c3400a3c9)" d="M 57.6 190.4256 
L 360.8064 190.4256 
" style="fill:none;stroke:#b0b0b0;stroke-linecap:square;stroke-width:0.8;"/>
     </g>
     <g id="line2d_26">
      <g>
       <use style="stroke:#000000;stroke-width:0.8;" x="57.6" xlink:href="#m2889ecc7cf" y="190.4256"/>
      </g>
     </g>
     <g id="text_8">
      <!-- 0.4 -->
      <g transform="translate(25.155 196.50435)scale(0.16 -0.16)">
       <use xlink:href="#DejaVuSans-30"/>
       <use x="63.623047" xlink:href="#DejaVuSans-2e"/>
       <use x="95.410156" xlink:href="#DejaVuSans-34"/>
      </g>
     </g>
    </g>
    <g id="ytick_4">
     <g id="line2d_27">
      <path clip-path="url(#p0c3400a3c9)" d="M 57.6 136.1664 
L 360.8064 136.1664 
" style="fill:none;stroke:#b0b0b0;stroke-linecap:square;stroke-width:0.8;"/>
     </g>
     <g id="line2d_28">
      <g>
       <use style="stroke:#000000;stroke-width:0.8;" x="57.6" xlink:href="#m2889ecc7cf" y="136.1664"/>
      </g>
     </g>
     <g id="text_9">
      <!-- 0.6 -->
      <g transform="translate(25.155 142.24515)scale(0.16 -0.16)">
       <use xlink:href="#DejaVuSans-30"/>
       <use x="63.623047" xlink:href="#DejaVuSans-2e"/>
       <use x="95.410156" xlink:href="#DejaVuSans-36"/>
      </g>
     </g>
    </g>
    <g id="ytick_5">
     <g id="line2d_29">
      <path clip-path="url(#p0c3400a3c9)" d="M 57.6 81.9072 
L 360.8064 81.9072 
" style="fill:none;stroke:#b0b0b0;stroke-linecap:square;stroke-width:0.8;"/>
     </g>
     <g id="line2d_30">
      <g>
       <use style="stroke:#000000;stroke-width:0.8;" x="57.6" xlink:href="#m2889ecc7cf" y="81.9072"/>
      </g>
     </g>
     <g id="text_10">
      <!-- 0.8 -->
      <g transform="translate(25.155 87.98595)scale(0.16 -0.16)">
       <defs>
        <path d="M 2034 2216 
Q 1584 2216 1326 1975 
Q 1069 1734 1069 1313 
Q 1069 891 1326 650 
Q 1584 409 2034 409 
Q 2484 409 2743 651 
Q 3003 894 3003 1313 
Q 3003 1734 2745 1975 
Q 2488 2216 2034 2216 
z
M 1403 2484 
Q 997 2584 770 2862 
Q 544 3141 544 3541 
Q 544 4100 942 4425 
Q 1341 4750 2034 4750 
Q 2731 4750 3128 4425 
Q 3525 4100 3525 3541 
Q 3525 3141 3298 2862 
Q 3072 2584 2669 2484 
Q 3125 2378 3379 2068 
Q 3634 1759 3634 1313 
Q 3634 634 3220 271 
Q 2806 -91 2034 -91 
Q 1263 -91 848 271 
Q 434 634 434 1313 
Q 434 1759 690 2068 
Q 947 2378 1403 2484 
z
M 1172 3481 
Q 1172 3119 1398 2916 
Q 1625 2713 2034 2713 
Q 2441 2713 2670 2916 
Q 2900 3119 2900 3481 
Q 2900 3844 2670 4047 
Q 2441 4250 2034 4250 
Q 1625 4250 1398 4047 
Q 1172 3844 1172 3481 
z
" id="DejaVuSans-38" transform="scale(0.015625)"/>
       </defs>
       <use xlink:href="#DejaVuSans-30"/>
       <use x="63.623047" xlink:href="#DejaVuSans-2e"/>
       <use x="95.410156" xlink:href="#DejaVuSans-38"/>
      </g>
     </g>
    </g>
    <g id="ytick_6">
     <g id="line2d_31">
      <path clip-path="url(#p0c3400a3c9)" d="M 57.6 27.648 
L 360.8064 27.648 
" style="fill:none;stroke:#b0b0b0;stroke-linecap:square;stroke-width:0.8;"/>
     </g>
     <g id="line2d_32">
      <g>
       <use style="stroke:#000000;stroke-width:0.8;" x="57.6" xlink:href="#m2889ecc7cf" y="27.648"/>
      </g>
     </g>
     <g id="text_11">
      <!-- 1.0 -->
      <g transform="translate(25.155 33.72675)scale(0.16 -0.16)">
       <use xlink:href="#DejaVuSans-31"/>
       <use x="63.623047" xlink:href="#DejaVuSans-2e"/>
       <use x="95.410156" xlink:href="#DejaVuSans-30"/>
      </g>
     </g>
    </g>
    <g id="text_12">
     <!-- Fraction of function,target pairs -->
     <g transform="translate(17.619531 297.681)rotate(-90)scale(0.17 -0.17)">
      <defs>
       <path d="M 628 4666 
L 3309 4666 
L 3309 4134 
L 1259 4134 
L 1259 2759 
L 3109 2759 
L 3109 2228 
L 1259 2228 
L 1259 0 
L 628 0 
L 628 4666 
z
" id="DejaVuSans-46" transform="scale(0.015625)"/>
       <path d="M 2631 2963 
Q 2534 3019 2420 3045 
Q 2306 3072 2169 3072 
Q 1681 3072 1420 2755 
Q 1159 2438 1159 1844 
L 1159 0 
L 581 0 
L 581 3500 
L 1159 3500 
L 1159 2956 
Q 1341 3275 1631 3429 
Q 1922 3584 2338 3584 
Q 2397 3584 2469 3576 
Q 2541 3569 2628 3553 
L 2631 2963 
z
" id="DejaVuSans-72" transform="scale(0.015625)"/>
       <path d="M 3122 3366 
L 3122 2828 
Q 2878 2963 2633 3030 
Q 2388 3097 2138 3097 
Q 1578 3097 1268 2742 
Q 959 2388 959 1747 
Q 959 1106 1268 751 
Q 1578 397 2138 397 
Q 2388 397 2633 464 
Q 2878 531 3122 666 
L 3122 134 
Q 2881 22 2623 -34 
Q 2366 -91 2075 -91 
Q 1284 -91 818 406 
Q 353 903 353 1747 
Q 353 2603 823 3093 
Q 1294 3584 2113 3584 
Q 2378 3584 2631 3529 
Q 2884 3475 3122 3366 
z
" id="DejaVuSans-63" transform="scale(0.015625)"/>
       <path d="M 1172 4494 
L 1172 3500 
L 2356 3500 
L 2356 3053 
L 1172 3053 
L 1172 1153 
Q 1172 725 1289 603 
Q 1406 481 1766 481 
L 2356 481 
L 2356 0 
L 1766 0 
Q 1100 0 847 248 
Q 594 497 594 1153 
L 594 3053 
L 172 3053 
L 172 3500 
L 594 3500 
L 594 4494 
L 1172 4494 
z
" id="DejaVuSans-74" transform="scale(0.015625)"/>
       <path d="M 544 1381 
L 544 3500 
L 1119 3500 
L 1119 1403 
Q 1119 906 1312 657 
Q 1506 409 1894 409 
Q 2359 409 2629 706 
Q 2900 1003 2900 1516 
L 2900 3500 
L 3475 3500 
L 3475 0 
L 2900 0 
L 2900 538 
Q 2691 219 2414 64 
Q 2138 -91 1772 -91 
Q 1169 -91 856 284 
Q 544 659 544 1381 
z
M 1991 3584 
L 1991 3584 
z
" id="DejaVuSans-75" transform="scale(0.015625)"/>
       <path d="M 750 794 
L 1409 794 
L 1409 256 
L 897 -744 
L 494 -744 
L 750 256 
L 750 794 
z
" id="DejaVuSans-2c" transform="scale(0.015625)"/>
       <path d="M 1159 525 
L 1159 -1331 
L 581 -1331 
L 581 3500 
L 1159 3500 
L 1159 2969 
Q 1341 3281 1617 3432 
Q 1894 3584 2278 3584 
Q 2916 3584 3314 3078 
Q 3713 2572 3713 1747 
Q 3713 922 3314 415 
Q 2916 -91 2278 -91 
Q 1894 -91 1617 61 
Q 1341 213 1159 525 
z
M 3116 1747 
Q 3116 2381 2855 2742 
Q 2594 3103 2138 3103 
Q 1681 3103 1420 2742 
Q 1159 2381 1159 1747 
Q 1159 1113 1420 752 
Q 1681 391 2138 391 
Q 2594 391 2855 752 
Q 3116 1113 3116 1747 
z
" id="DejaVuSans-70" transform="scale(0.015625)"/>
      </defs>
      <use xlink:href="#DejaVuSans-46"/>
      <use x="50.269531" xlink:href="#DejaVuSans-72"/>
      <use x="91.382812" xlink:href="#DejaVuSans-61"/>
      <use x="152.662109" xlink:href="#DejaVuSans-63"/>
      <use x="207.642578" xlink:href="#DejaVuSans-74"/>
      <use x="246.851562" xlink:href="#DejaVuSans-69"/>
      <use x="274.634766" xlink:href="#DejaVuSans-6f"/>
      <use x="335.816406" xlink:href="#DejaVuSans-6e"/>
      <use x="399.195312" xlink:href="#DejaVuSans-20"/>
      <use x="430.982422" xlink:href="#DejaVuSans-6f"/>
      <use x="492.164062" xlink:href="#DejaVuSans-66"/>
      <use x="527.369141" xlink:href="#DejaVuSans-20"/>
      <use x="559.15625" xlink:href="#DejaVuSans-66"/>
      <use x="594.361328" xlink:href="#DejaVuSans-75"/>
      <use x="657.740234" xlink:href="#DejaVuSans-6e"/>
      <use x="721.119141" xlink:href="#DejaVuSans-63"/>
      <use x="776.099609" xlink:href="#DejaVuSans-74"/>
      <use x="815.308594" xlink:href="#DejaVuSans-69"/>
      <use x="843.091797" xlink:href="#DejaVuSans-6f"/>
      <use x="904.273438" xlink:href="#DejaVuSans-6e"/>
      <use x="967.652344" xlink:href="#DejaVuSans-2c"/>
      <use x="999.439453" xlink:href="#DejaVuSans-74"/>
      <use x="1038.648438" xlink:href="#DejaVuSans-61"/>
      <use x="1099.927734" xlink:href="#DejaVuSans-72"/>
      <use x="1139.291016" xlink:href="#DejaVuSans-67"/>
      <use x="1202.767578" xlink:href="#DejaVuSans-65"/>
      <use x="1264.291016" xlink:href="#DejaVuSans-74"/>
      <use x="1303.5" xlink:href="#DejaVuSans-20"/>
      <use x="1335.287109" xlink:href="#DejaVuSans-70"/>
      <use x="1398.763672" xlink:href="#DejaVuSans-61"/>
      <use x="1460.042969" xlink:href="#DejaVuSans-69"/>
      <use x="1487.826172" xlink:href="#DejaVuSans-72"/>
      <use x="1528.939453" xlink:href="#DejaVuSans-73"/>
     </g>
    </g>
   </g>
   <g id="line2d_33">
    <defs>
     <path d="M 0 1.5 
C 0.397805 1.5 0.77937 1.341951 1.06066 1.06066 
C 1.341951 0.77937 1.5 0.397805 1.5 0 
C 1.5 -0.397805 1.341951 -0.77937 1.06066 -1.06066 
C 0.77937 -1.341951 0.397805 -1.5 0 -1.5 
C -0.397805 -1.5 -0.77937 -1.341951 -1.06066 -1.06066 
C -1.341951 -0.77937 -1.5 -0.397805 -1.5 0 
C -1.5 0.397805 -1.341951 0.77937 -1.06066 1.06066 
C -0.77937 1.341951 -0.397805 1.5 0 1.5 
z
" id="m513b4c0755" style="stroke:#f5deb3;"/>
    </defs>
    <g>
     <use style="fill:#f5deb3;stroke:#f5deb3;" x="196.883694" xlink:href="#m513b4c0755" y="27.648"/>
     <use style="fill:#f5deb3;stroke:#f5deb3;" x="196.883694" xlink:href="#m513b4c0755" y="27.648"/>
    </g>
   </g>
   <g id="line2d_34">
    <defs>
     <path d="M 0 1.5 
C 0.397805 1.5 0.77937 1.341951 1.06066 1.06066 
C 1.341951 0.77937 1.5 0.397805 1.5 0 
C 1.5 -0.397805 1.341951 -0.77937 1.06066 -1.06066 
C 0.77937 -1.341951 0.397805 -1.5 0 -1.5 
C -0.397805 -1.5 -0.77937 -1.341951 -1.06066 -1.06066 
C -1.341951 -0.77937 -1.5 -0.397805 -1.5 0 
C -1.5 0.397805 -1.341951 0.77937 -1.06066 1.06066 
C -0.77937 1.341951 -0.397805 1.5 0 1.5 
z
" id="m1cd2d6107c" style="stroke:#000080;"/>
    </defs>
    <g>
     <use style="fill:#000080;stroke:#000080;" x="286.745529" xlink:href="#m1cd2d6107c" y="181.914353"/>
     <use style="fill:#000080;stroke:#000080;" x="286.745529" xlink:href="#m1cd2d6107c" y="181.914353"/>
    </g>
   </g>
   <g id="line2d_35">
    <path d="M 161.075686 298.944 
L 161.075686 298.589365 
L 164.34663 298.589365 
L 164.34663 298.234729 
L 164.462492 298.234729 
L 164.558503 297.525459 
L 164.704773 297.525459 
L 164.704773 297.170824 
L 164.88132 297.170824 
L 164.88132 296.816188 
L 165.35845 296.816188 
L 165.35845 296.461553 
L 165.547176 296.461553 
L 165.547176 296.106918 
L 165.667937 296.106918 
L 165.667937 295.752282 
L 166.149245 295.752282 
L 166.23704 294.688376 
L 166.365069 294.688376 
L 166.365069 294.333741 
L 166.58418 294.333741 
L 166.58418 293.979106 
L 166.958777 293.979106 
L 166.958777 293.624471 
L 167.171118 293.624471 
L 167.171118 293.269835 
L 167.496128 293.269835 
L 167.496128 292.9152 
L 167.675494 292.9152 
L 167.675494 292.560565 
L 167.826354 292.560565 
L 167.912019 291.142024 
L 168.890409 291.142024 
L 168.890409 290.787388 
L 169.182262 290.787388 
L 169.182262 290.078118 
L 169.331462 290.078118 
L 169.420418 289.368847 
L 169.689648 289.368847 
L 169.781767 288.304941 
L 169.88787 288.304941 
L 169.88787 287.950306 
L 170.3111 287.950306 
L 170.3111 287.595671 
L 170.825946 287.595671 
L 170.825946 287.241035 
L 170.967249 287.241035 
L 170.967249 286.8864 
L 171.500025 286.8864 
L 171.54852 286.177129 
L 171.649516 286.177129 
L 171.649516 285.822494 
L 171.871548 285.822494 
L 171.871548 285.467859 
L 172.112367 285.467859 
L 172.15931 284.403953 
L 172.269804 284.403953 
L 172.31213 283.694682 
L 172.755021 283.694682 
L 172.755021 283.340047 
L 173.094677 283.340047 
L 173.094677 282.985412 
L 173.539539 282.985412 
L 173.539539 282.630776 
L 173.685518 282.630776 
L 173.685518 282.276141 
L 173.822572 282.276141 
L 173.822572 281.921506 
L 174.097566 281.921506 
L 174.097566 281.566871 
L 174.208741 281.566871 
L 174.246926 280.8576 
L 174.624567 280.8576 
L 174.688018 280.148329 
L 174.987442 280.148329 
L 175.089848 279.084424 
L 175.293002 279.084424 
L 175.293002 278.729788 
L 175.650409 278.729788 
L 175.650409 278.375153 
L 175.812564 278.375153 
L 175.812564 278.020518 
L 176.163769 278.020518 
L 176.253127 277.311247 
L 176.837132 277.311247 
L 176.837132 276.956612 
L 176.956413 276.956612 
L 176.956413 276.601976 
L 177.071661 276.601976 
L 177.120837 275.538071 
L 177.189468 275.538071 
L 177.300058 274.119529 
L 177.856058 274.119529 
L 177.922063 273.410259 
L 178.402213 273.410259 
L 178.505917 272.700988 
L 178.557555 272.700988 
L 178.624172 271.991718 
L 178.941876 271.991718 
L 179.02491 271.282447 
L 179.741931 271.282447 
L 179.798811 270.218541 
L 180.114198 270.218541 
L 180.114198 269.863906 
L 180.258849 269.863906 
L 180.355588 268.8 
L 180.520278 268.8 
L 180.566679 268.090729 
L 180.669987 268.090729 
L 180.669987 267.736094 
L 181.090899 267.736094 
L 181.090899 267.381459 
L 181.362009 267.381459 
L 181.382904 266.672188 
L 181.760207 266.672188 
L 181.798546 265.608282 
L 182.009286 265.608282 
L 182.009286 265.253647 
L 182.593465 265.253647 
L 182.593465 264.899012 
L 182.923437 264.899012 
L 182.923437 264.544376 
L 183.076738 264.544376 
L 183.114868 263.835106 
L 183.339692 263.835106 
L 183.339692 263.480471 
L 183.498983 263.480471 
L 183.529283 262.7712 
L 183.6685 262.7712 
L 183.6685 262.416565 
L 183.893694 262.416565 
L 183.914241 261.707294 
L 184.19057 261.707294 
L 184.228755 260.998024 
L 184.489473 260.998024 
L 184.489473 260.643388 
L 184.864139 260.643388 
L 184.864139 260.288753 
L 185.522803 260.288753 
L 185.606405 259.579482 
L 185.652228 259.579482 
L 185.652228 259.224847 
L 185.945342 259.224847 
L 185.945342 258.870212 
L 186.061728 258.870212 
L 186.061728 258.515576 
L 186.316475 258.515576 
L 186.316475 258.160941 
L 186.611361 258.160941 
L 186.688304 257.451671 
L 186.725675 257.451671 
L 186.733534 256.7424 
L 186.915317 256.7424 
L 187.004587 256.033129 
L 187.093435 256.033129 
L 187.093435 255.678494 
L 187.593508 255.678494 
L 187.666545 254.969224 
L 187.746745 254.969224 
L 187.746745 254.614588 
L 188.782289 254.614588 
L 188.782289 254.259953 
L 189.160695 254.259953 
L 189.160695 253.905318 
L 189.499451 253.905318 
L 189.499451 253.550682 
L 189.852193 253.550682 
L 189.852193 253.196047 
L 190.146091 253.196047 
L 190.146091 252.841412 
L 190.775994 252.841412 
L 190.840839 252.132141 
L 190.976135 252.132141 
L 190.976135 251.777506 
L 191.62931 251.777506 
L 191.62931 251.422871 
L 191.874499 251.422871 
L 191.874499 251.068235 
L 192.862816 251.068235 
L 192.862816 250.7136 
L 194.667798 250.7136 
L 194.667798 250.358965 
L 195.557223 250.358965 
L 195.557223 250.004329 
L 196.96311 250.004329 
L 196.96311 249.649694 
L 198.85349 249.649694 
L 198.85349 249.295059 
L 206.194292 249.295059 
L 206.194292 248.940424 
L 206.708643 248.940424 
L 206.708643 248.585788 
L 206.844001 248.585788 
L 206.844001 248.231153 
L 206.973034 248.231153 
L 207.013176 247.521882 
L 207.568298 247.521882 
L 207.608486 246.812612 
L 207.700208 246.812612 
L 207.700208 246.457976 
L 207.817756 246.457976 
L 207.817756 246.103341 
L 207.949206 246.103341 
L 207.951749 245.039435 
L 208.23445 245.039435 
L 208.285737 243.266259 
L 208.892337 243.266259 
L 208.892337 242.911624 
L 209.381836 242.911624 
L 209.432444 241.847718 
L 210.902584 241.847718 
L 210.902584 241.493082 
L 211.28296 241.493082 
L 211.28296 240.783812 
L 211.905293 240.783812 
L 211.905293 240.429176 
L 212.783135 240.429176 
L 212.783135 239.719906 
L 216.395475 239.719906 
L 216.395475 239.365271 
L 216.586073 239.365271 
L 216.641036 238.656 
L 217.115325 238.656 
L 217.211174 237.946729 
L 217.25659 237.946729 
L 217.322771 237.237459 
L 217.519927 237.237459 
L 217.519927 236.528188 
L 217.722227 236.528188 
L 217.722227 235.818918 
L 217.869534 235.818918 
L 217.869534 235.109647 
L 218.520861 235.109647 
L 218.535718 234.400376 
L 219.484997 234.400376 
L 219.484997 234.045741 
L 219.72692 234.045741 
L 219.72692 233.691106 
L 220.126555 233.691106 
L 220.126555 233.336471 
L 220.69826 233.336471 
L 220.69826 232.981835 
L 223.318349 232.981835 
L 223.318349 232.6272 
L 223.719934 232.6272 
L 223.719934 231.917929 
L 223.938905 231.917929 
L 223.95439 231.208659 
L 224.1661 231.208659 
L 224.188106 230.499388 
L 224.655899 230.499388 
L 224.689096 229.790118 
L 224.841776 229.790118 
L 224.841776 229.435482 
L 225.35665 229.435482 
L 225.35665 229.080847 
L 225.828333 229.080847 
L 225.828333 228.726212 
L 228.546369 228.726212 
L 228.546369 228.371576 
L 228.672951 228.371576 
L 228.672951 228.016941 
L 228.82784 228.016941 
L 228.90961 227.307671 
L 229.274567 227.307671 
L 229.274567 226.953035 
L 229.420134 226.953035 
L 229.420134 226.5984 
L 230.197906 226.5984 
L 230.197906 225.889129 
L 232.330752 225.889129 
L 232.330752 225.179859 
L 232.532177 225.179859 
L 232.532177 224.825224 
L 232.680648 224.825224 
L 232.680648 224.470588 
L 232.814905 224.470588 
L 232.848447 223.406682 
L 232.979835 223.406682 
L 232.986725 222.697412 
L 233.433009 222.697412 
L 233.433009 222.342776 
L 233.741389 222.342776 
L 233.741389 221.633506 
L 235.336553 221.633506 
L 235.336553 221.278871 
L 235.467181 221.278871 
L 235.467181 220.924235 
L 235.65692 220.924235 
L 235.65692 220.5696 
L 235.820501 220.5696 
L 235.820501 220.214965 
L 235.934182 220.214965 
L 235.934182 219.860329 
L 236.092104 219.860329 
L 236.092104 219.505694 
L 238.293274 219.505694 
L 238.368773 218.441788 
L 238.443466 218.441788 
L 238.461434 217.732518 
L 238.633704 217.732518 
L 238.633704 217.377882 
L 238.818588 217.377882 
L 238.818588 216.313976 
L 239.065267 216.313976 
L 239.151057 215.604706 
L 239.294339 215.604706 
L 239.294339 215.250071 
L 240.767511 215.250071 
L 240.767511 214.895435 
L 241.135625 214.895435 
L 241.135625 214.5408 
L 241.429864 214.5408 
L 241.429864 214.186165 
L 241.556855 214.186165 
L 241.556855 213.831529 
L 242.842814 213.831529 
L 242.9465 212.058353 
L 243.032487 212.058353 
L 243.032487 211.349082 
L 243.394019 211.349082 
L 243.462207 210.285176 
L 243.576233 210.285176 
L 243.576233 209.930541 
L 244.829032 209.930541 
L 244.829032 209.575906 
L 245.057009 209.575906 
L 245.057009 209.221271 
L 246.454579 209.221271 
L 246.546894 207.093459 
L 246.690647 207.093459 
L 246.690647 206.738824 
L 246.91065 206.738824 
L 246.91065 206.029553 
L 248.247059 206.029553 
L 248.247059 205.674918 
L 249.420104 205.674918 
L 249.501568 203.901741 
L 249.556239 203.901741 
L 249.630529 203.192471 
L 250.880351 203.192471 
L 250.880351 202.4832 
L 251.065761 202.4832 
L 251.065761 202.128565 
L 252.207627 202.128565 
L 252.309619 201.419294 
L 252.543352 201.419294 
L 252.543352 201.064659 
L 253.286187 201.064659 
L 253.286187 200.710024 
L 253.443092 200.710024 
L 253.443092 200.355388 
L 254.34931 200.355388 
L 254.421115 199.291482 
L 255.460035 199.291482 
L 255.537258 198.582212 
L 255.583107 198.582212 
L 255.583107 197.872941 
L 256.524737 197.872941 
L 256.524737 197.163671 
L 256.692638 197.163671 
L 256.692638 196.809035 
L 257.417759 196.809035 
L 257.417759 196.099765 
L 257.708466 196.099765 
L 257.708466 195.745129 
L 258.224545 195.745129 
L 258.296397 194.681224 
L 258.356595 194.681224 
L 258.356595 194.326588 
L 259.083525 194.326588 
L 259.168516 193.262682 
L 259.271829 193.262682 
L 259.271829 192.553412 
L 260.025791 192.553412 
L 260.025791 192.198776 
L 260.165284 192.198776 
L 260.165284 191.844141 
L 260.8426 191.844141 
L 260.941777 190.780235 
L 261.013678 190.780235 
L 261.013678 190.4256 
L 261.508108 190.4256 
L 261.592172 189.716329 
L 262.215252 189.716329 
L 262.280969 188.652424 
L 262.97637 188.652424 
L 262.97637 188.297788 
L 263.646978 188.297788 
L 263.646978 187.943153 
L 264.263079 187.943153 
L 264.294501 187.233882 
L 264.405758 187.233882 
L 264.405758 186.879247 
L 265.55326 186.879247 
L 265.55326 186.169976 
L 266.643701 186.169976 
L 266.707715 185.106071 
L 267.27536 185.106071 
L 267.27536 184.751435 
L 268.316533 184.751435 
L 268.316533 184.3968 
L 271.172259 184.3968 
L 271.172259 184.042165 
L 272.951041 184.042165 
L 272.951041 183.687529 
L 274.083455 183.687529 
L 274.083455 183.332894 
L 280.369788 183.332894 
L 280.376215 182.623624 
L 284.953828 182.623624 
L 284.953828 182.268988 
L 286.745529 182.268988 
L 286.745529 181.914353 
L 360.8064 181.914353 
L 360.8064 181.914353 
" style="fill:none;stroke:#000080;stroke-linecap:square;stroke-width:1.5;"/>
   </g>
   <g id="line2d_36">
    <defs>
     <path d="M 0 6 
C 1.591219 6 3.117479 5.367802 4.242641 4.242641 
C 5.367802 3.117479 6 1.591219 6 0 
C 6 -1.591219 5.367802 -3.117479 4.242641 -4.242641 
C 3.117479 -5.367802 1.591219 -6 0 -6 
C -1.591219 -6 -3.117479 -5.367802 -4.242641 -4.242641 
C -5.367802 -3.117479 -6 -1.591219 -6 0 
C -6 1.591219 -5.367802 3.117479 -4.242641 4.242641 
C -3.117479 5.367802 -1.591219 6 0 6 
z
" id="m61f22f90b9" style="stroke:#000080;stroke-width:1.5;"/>
    </defs>
    <g>
     <use style="fill-opacity:0;stroke:#000080;stroke-width:1.5;" x="241.556855" xlink:href="#m61f22f90b9" y="213.831529"/>
     <use style="fill-opacity:0;stroke:#000080;stroke-width:1.5;" x="286.745529" xlink:href="#m61f22f90b9" y="181.914353"/>
     <use style="fill-opacity:0;stroke:#000080;stroke-width:1.5;" x="286.745529" xlink:href="#m61f22f90b9" y="181.914353"/>
     <use style="fill-opacity:0;stroke:#000080;stroke-width:1.5;" x="360.8064" xlink:href="#m61f22f90b9" y="181.914353"/>
    </g>
   </g>
   <g id="line2d_37">
    <path style="fill:none;stroke:#000080;stroke-linecap:square;stroke-width:1.5;"/>
    <g/>
   </g>
   <g id="line2d_38">
    <path clip-path="url(#p0c3400a3c9)" d="M 200.594178 249.295059 
" style="fill:none;stroke:#000080;stroke-linecap:square;stroke-width:1.5;"/>
    <defs>
     <path d="M -12 12 
L 12 -12 
M -12 -12 
L 12 12 
" id="mca2b87579f" style="stroke:#000080;"/>
    </defs>
    <g clip-path="url(#p0c3400a3c9)">
     <use style="fill:#000080;stroke:#000080;" x="200.594178" xlink:href="#mca2b87579f" y="249.295059"/>
    </g>
   </g>
   <g id="line2d_39">
    <defs>
     <path d="M 0 1.5 
C 0.397805 1.5 0.77937 1.341951 1.06066 1.06066 
C 1.341951 0.77937 1.5 0.397805 1.5 0 
C 1.5 -0.397805 1.341951 -0.77937 1.06066 -1.06066 
C 0.77937 -1.341951 0.397805 -1.5 0 -1.5 
C -0.397805 -1.5 -0.77937 -1.341951 -1.06066 -1.06066 
C -1.341951 -0.77937 -1.5 -0.397805 -1.5 0 
C -1.5 0.397805 -1.341951 0.77937 -1.06066 1.06066 
C -0.77937 1.341951 -0.397805 1.5 0 1.5 
z
" id="mf1d8ddcbb3" style="stroke:#ff00ff;"/>
    </defs>
    <g>
     <use style="fill:#ff00ff;stroke:#ff00ff;" x="269.886724" xlink:href="#mf1d8ddcbb3" y="27.648"/>
     <use style="fill:#ff00ff;stroke:#ff00ff;" x="269.886724" xlink:href="#mf1d8ddcbb3" y="27.648"/>
    </g>
   </g>
   <g id="line2d_40">
    <path d="M 123.963959 298.944 
L 123.963959 298.589365 
L 124.615507 298.589365 
L 124.642171 297.880094 
L 125.063736 297.880094 
L 125.063736 297.525459 
L 125.729248 297.525459 
L 125.729248 297.170824 
L 125.929373 297.170824 
L 125.954239 296.106918 
L 126.661432 296.106918 
L 126.756923 295.397647 
L 127.250446 295.397647 
L 127.250446 295.043012 
L 127.663399 295.043012 
L 127.663399 294.688376 
L 127.88896 294.688376 
L 127.88896 294.333741 
L 128.067481 294.333741 
L 128.178203 293.624471 
L 128.935527 293.624471 
L 128.935527 293.269835 
L 129.146421 293.269835 
L 129.230121 292.560565 
L 129.765278 292.560565 
L 129.80582 291.851294 
L 129.886643 291.851294 
L 129.906795 291.142024 
L 130.027253 291.142024 
L 130.027253 290.787388 
L 130.403695 290.787388 
L 130.501519 290.078118 
L 131.134706 290.078118 
L 131.134706 289.723482 
L 131.563744 289.723482 
L 131.563744 289.368847 
L 132.144842 289.368847 
L 132.144842 289.014212 
L 132.481562 289.014212 
L 132.586655 288.304941 
L 133.171339 288.304941 
L 133.205173 287.595671 
L 134.064146 287.595671 
L 134.096413 286.531765 
L 134.962732 286.531765 
L 134.962732 286.177129 
L 135.879085 286.177129 
L 135.879085 285.822494 
L 135.996018 285.822494 
L 135.996018 285.467859 
L 136.227726 285.467859 
L 136.227726 285.113224 
L 136.555884 285.113224 
L 136.555884 284.758588 
L 136.710829 284.758588 
L 136.710829 284.403953 
L 137.140746 284.403953 
L 137.140746 284.049318 
L 137.654681 284.049318 
L 137.747841 283.340047 
L 137.985297 283.340047 
L 137.985297 282.985412 
L 138.527976 282.985412 
L 138.527976 282.630776 
L 139.374701 282.630776 
L 139.374701 282.276141 
L 139.760345 282.276141 
L 139.855533 281.212235 
L 139.891105 281.212235 
L 139.891105 280.8576 
L 140.702573 280.8576 
L 140.702573 280.502965 
L 140.91692 280.502965 
L 140.91692 280.148329 
L 141.261484 280.148329 
L 141.283499 279.439059 
L 142.290162 279.439059 
L 142.290162 279.084424 
L 142.404519 279.084424 
L 142.404519 278.729788 
L 142.528483 278.729788 
L 142.528483 278.375153 
L 142.885449 278.375153 
L 142.966099 277.665882 
L 143.19606 277.665882 
L 143.19606 277.311247 
L 144.012814 277.311247 
L 144.012814 276.956612 
L 144.389622 276.956612 
L 144.436197 276.247341 
L 145.29989 276.247341 
L 145.308773 275.538071 
L 145.599611 275.538071 
L 145.599611 275.183435 
L 145.83427 275.183435 
L 145.83427 274.8288 
L 145.963382 274.8288 
L 145.963382 274.474165 
L 146.185098 274.474165 
L 146.185098 274.119529 
L 147.054816 274.119529 
L 147.087167 273.410259 
L 148.239014 273.410259 
L 148.239014 273.055624 
L 148.822713 273.055624 
L 148.822713 272.700988 
L 149.071585 272.700988 
L 149.071585 272.346353 
L 149.302848 272.346353 
L 149.302848 271.991718 
L 150.316534 271.991718 
L 150.316534 271.637082 
L 150.566682 271.637082 
L 150.566682 271.282447 
L 151.681429 271.282447 
L 151.681429 270.927812 
L 152.829317 270.927812 
L 152.835271 270.218541 
L 154.432362 270.218541 
L 154.432362 269.863906 
L 156.870325 269.863906 
L 156.870325 269.509271 
L 159.100946 269.509271 
L 159.100946 269.154635 
L 169.197236 269.154635 
L 169.197236 268.8 
L 171.491195 268.8 
L 171.491195 268.445365 
L 172.182738 268.445365 
L 172.182738 268.090729 
L 172.295211 268.090729 
L 172.295211 267.736094 
L 172.444836 267.736094 
L 172.444836 267.381459 
L 172.761214 267.381459 
L 172.763278 266.672188 
L 172.966493 266.672188 
L 172.988937 265.962918 
L 173.2381 265.962918 
L 173.326436 265.253647 
L 173.551417 265.253647 
L 173.618587 264.544376 
L 173.701232 264.544376 
L 173.78938 263.835106 
L 173.902386 263.835106 
L 173.933441 263.125835 
L 174.203007 263.125835 
L 174.25074 262.416565 
L 174.400785 262.416565 
L 174.40835 261.707294 
L 174.639516 261.707294 
L 174.712223 260.998024 
L 174.880788 260.998024 
L 174.932352 260.288753 
L 175.106254 260.288753 
L 175.106254 259.934118 
L 175.224321 259.934118 
L 175.303824 259.224847 
L 175.451099 259.224847 
L 175.451099 258.870212 
L 175.659258 258.870212 
L 175.659258 258.515576 
L 175.88438 258.515576 
L 175.88438 258.160941 
L 176.117204 258.160941 
L 176.117204 257.806306 
L 177.522511 257.806306 
L 177.522511 257.451671 
L 180.381761 257.451671 
L 180.381761 257.097035 
L 180.835991 257.097035 
L 180.835991 256.7424 
L 180.987217 256.7424 
L 180.987217 256.387765 
L 181.109448 256.387765 
L 181.109448 256.033129 
L 181.275573 256.033129 
L 181.363316 255.323859 
L 181.49222 255.323859 
L 181.577669 254.614588 
L 181.726916 254.614588 
L 181.726916 254.259953 
L 181.850816 254.259953 
L 181.850816 253.905318 
L 182.093679 253.905318 
L 182.093679 253.550682 
L 182.220188 253.550682 
L 182.220188 253.196047 
L 182.35577 253.196047 
L 182.35577 252.841412 
L 182.485458 252.841412 
L 182.568973 251.777506 
L 182.648457 251.777506 
L 182.658217 251.068235 
L 182.793111 251.068235 
L 182.853559 250.358965 
L 183.009822 250.358965 
L 183.045699 249.295059 
L 183.164798 249.295059 
L 183.164798 248.940424 
L 183.284327 248.940424 
L 183.284327 248.585788 
L 183.408962 248.585788 
L 183.515305 247.521882 
L 183.647683 247.521882 
L 183.647683 247.167247 
L 183.775688 247.167247 
L 183.776838 246.457976 
L 183.930206 246.457976 
L 183.930206 246.103341 
L 184.099287 246.103341 
L 184.099287 245.748706 
L 184.256782 245.748706 
L 184.353994 245.039435 
L 184.418524 245.039435 
L 184.418524 244.6848 
L 184.594298 244.6848 
L 184.594298 244.330165 
L 184.801122 244.330165 
L 184.801122 243.975529 
L 185.032592 243.975529 
L 185.032592 243.620894 
L 189.500298 243.620894 
L 189.500298 243.266259 
L 189.613555 243.266259 
L 189.705182 242.556988 
L 189.787182 242.556988 
L 189.885445 241.847718 
L 189.993111 241.847718 
L 189.993111 241.493082 
L 190.116579 241.493082 
L 190.116579 241.138447 
L 190.260422 241.138447 
L 190.36273 240.429176 
L 190.443532 240.429176 
L 190.552068 239.719906 
L 190.592908 239.719906 
L 190.686265 238.656 
L 190.798953 238.656 
L 190.899954 237.592094 
L 190.965159 237.592094 
L 191.040296 236.528188 
L 191.128355 236.528188 
L 191.195873 235.464282 
L 191.276268 235.464282 
L 191.364 234.755012 
L 191.535203 234.755012 
L 191.587627 234.045741 
L 191.704862 234.045741 
L 191.765085 233.336471 
L 191.849824 233.336471 
L 191.907348 232.6272 
L 192.013715 232.6272 
L 192.114319 231.917929 
L 192.203378 231.917929 
L 192.313929 231.208659 
L 192.495544 231.208659 
L 192.495544 230.854024 
L 194.419467 230.854024 
L 194.419467 230.499388 
L 194.537882 230.499388 
L 194.537882 230.144753 
L 194.674882 230.144753 
L 194.674882 229.790118 
L 199.013681 229.790118 
L 199.070854 229.080847 
L 199.178602 229.080847 
L 199.178602 228.726212 
L 201.647598 228.726212 
L 201.647598 228.371576 
L 203.200004 228.371576 
L 203.278824 226.5984 
L 203.347572 226.5984 
L 203.458503 224.470588 
L 203.477465 224.470588 
L 203.582422 223.052047 
L 203.626482 223.052047 
L 203.736978 221.633506 
L 203.767181 221.633506 
L 203.814376 220.924235 
L 203.878435 220.924235 
L 203.970188 219.860329 
L 204.021187 219.860329 
L 204.08728 219.151059 
L 204.135237 219.151059 
L 204.182684 218.441788 
L 204.254792 218.441788 
L 204.338184 217.732518 
L 204.537822 217.732518 
L 204.537822 217.377882 
L 207.823198 217.377882 
L 207.902729 216.313976 
L 207.983512 216.313976 
L 208.08069 215.604706 
L 210.010835 215.604706 
L 210.108882 214.186165 
L 210.160966 214.186165 
L 210.202191 213.476894 
L 214.208283 213.476894 
L 214.264731 212.412988 
L 214.320783 212.412988 
L 214.380508 211.703718 
L 214.511286 211.703718 
L 214.511286 211.349082 
L 217.097543 211.349082 
L 217.191148 209.930541 
L 217.21098 209.930541 
L 217.299189 208.512 
L 217.326248 208.512 
L 217.37524 207.802729 
L 217.479933 207.802729 
L 217.479933 207.448094 
L 218.009738 207.448094 
L 218.120043 203.547106 
L 218.140769 203.547106 
L 218.244057 197.872941 
L 218.268505 197.872941 
L 218.367442 192.198776 
L 218.385342 192.198776 
L 218.466952 189.716329 
L 218.514516 189.716329 
L 218.612893 189.007059 
L 218.849483 189.007059 
L 218.849483 188.652424 
L 219.5127 188.652424 
L 219.605834 186.879247 
L 219.677045 186.879247 
L 219.779036 183.332894 
L 219.808003 183.332894 
L 219.862427 182.268988 
L 219.972987 182.268988 
L 219.984896 181.559718 
L 220.371918 181.559718 
L 220.453382 180.141176 
L 220.51918 180.141176 
L 220.622878 177.658729 
L 220.64669 177.658729 
L 220.745019 174.467012 
L 220.779772 174.467012 
L 220.881248 173.048471 
L 220.90218 173.048471 
L 220.90218 172.693835 
L 221.654455 172.693835 
L 221.762625 170.920659 
L 221.831152 170.920659 
L 221.934081 166.665035 
L 221.951911 166.665035 
L 222.035248 164.891859 
L 222.09095 164.891859 
L 222.18039 162.409412 
L 222.238938 162.409412 
L 222.238938 162.054776 
L 222.657866 162.054776 
L 222.736835 161.345506 
L 223.78677 161.345506 
L 223.800465 160.636235 
L 224.482959 160.636235 
L 224.482959 160.2816 
L 224.988858 160.2816 
L 225.092797 157.799153 
L 225.114767 157.799153 
L 225.2123 154.2528 
L 225.26797 154.2528 
L 225.367612 151.770353 
L 227.418102 151.770353 
L 227.510941 149.642541 
L 229.194167 149.642541 
L 229.23041 148.933271 
L 229.647433 148.933271 
L 229.647433 148.578635 
L 230.557668 148.578635 
L 230.657006 146.096188 
L 230.673638 146.096188 
L 230.771799 145.032282 
L 230.997252 145.032282 
L 231.085474 140.776659 
L 231.111665 140.776659 
L 231.205911 135.102494 
L 231.22391 135.102494 
L 231.263816 132.974682 
L 231.422325 132.974682 
L 231.422325 132.620047 
L 231.625805 132.620047 
L 231.726142 131.556141 
L 231.747868 131.556141 
L 231.855232 128.364424 
L 231.862724 128.364424 
L 231.908062 125.881976 
L 232.164744 125.881976 
L 232.210586 125.172706 
L 232.312998 125.172706 
L 232.393886 121.626353 
L 232.477276 121.626353 
L 232.548608 120.917082 
L 232.902193 120.917082 
L 232.938527 119.853176 
L 233.039826 119.853176 
L 233.117738 117.016094 
L 233.157489 117.016094 
L 233.207621 115.597553 
L 234.525322 115.597553 
L 234.554251 114.533647 
L 234.824898 114.533647 
L 234.876937 112.760471 
L 234.950717 112.760471 
L 234.992823 112.0512 
L 235.779993 112.0512 
L 235.805321 111.341929 
L 236.26629 111.341929 
L 236.356751 109.214118 
L 236.587435 109.214118 
L 236.587435 108.859482 
L 237.263387 108.859482 
L 237.263387 108.504847 
L 237.41622 108.504847 
L 237.487976 107.440941 
L 238.325749 107.440941 
L 238.367826 105.313129 
L 238.6319 105.313129 
L 238.729098 102.121412 
L 238.748032 102.121412 
L 238.822716 99.284329 
L 238.898332 99.284329 
L 238.898332 98.929694 
L 239.132888 98.929694 
L 239.226392 96.447247 
L 239.430098 96.447247 
L 239.535608 93.9648 
L 239.562634 93.9648 
L 239.626724 93.255529 
L 239.914723 93.255529 
L 239.995345 91.482353 
L 240.034776 91.482353 
L 240.126097 88.999906 
L 240.337965 88.999906 
L 240.337965 88.645271 
L 241.21808 88.645271 
L 241.322625 86.162824 
L 241.332924 86.162824 
L 241.407381 84.744282 
L 241.920331 84.744282 
L 241.949671 83.680376 
L 242.30801 83.680376 
L 242.30801 83.325741 
L 242.489088 83.325741 
L 242.489088 82.971106 
L 243.12666 82.971106 
L 243.12666 82.616471 
L 243.33649 82.616471 
L 243.390251 81.552565 
L 243.830431 81.552565 
L 243.830431 81.197929 
L 244.053554 81.197929 
L 244.136309 77.296941 
L 244.37957 77.296941 
L 244.471904 74.105224 
L 244.522839 74.105224 
L 244.609584 73.395953 
L 244.655043 73.395953 
L 244.756376 69.8496 
L 245.067487 69.8496 
L 245.144016 67.721788 
L 245.300818 67.721788 
L 245.300818 67.367153 
L 246.035726 67.367153 
L 246.134291 64.530071 
L 246.858362 64.530071 
L 246.858362 64.175435 
L 247.484634 64.175435 
L 247.514307 63.111529 
L 248.24075 63.111529 
L 248.309736 61.338353 
L 248.41857 61.338353 
L 248.509117 60.274447 
L 248.548939 60.274447 
L 248.575954 58.855906 
L 248.703893 58.855906 
L 248.78862 57.792 
L 248.996075 57.792 
L 249.106191 56.373459 
L 249.521181 56.373459 
L 249.521181 56.018824 
L 249.834201 56.018824 
L 249.928169 54.245647 
L 251.062515 54.245647 
L 251.100527 53.536376 
L 251.46777 53.536376 
L 251.508801 52.472471 
L 251.636163 52.472471 
L 251.718588 50.699294 
L 251.823011 50.699294 
L 251.925109 49.635388 
L 251.947259 49.635388 
L 251.947259 49.280753 
L 252.069503 49.280753 
L 252.152511 46.798306 
L 252.347926 46.798306 
L 252.347926 46.443671 
L 253.05598 46.443671 
L 253.068116 45.7344 
L 254.047556 45.7344 
L 254.047556 45.379765 
L 254.402584 45.379765 
L 254.47054 44.315859 
L 254.554969 44.315859 
L 254.61296 42.188047 
L 254.766878 42.188047 
L 254.857844 41.124141 
L 254.915566 41.124141 
L 254.915566 40.769506 
L 255.16352 40.769506 
L 255.16352 40.414871 
L 257.056098 40.414871 
L 257.087899 39.7056 
L 257.203907 39.7056 
L 257.265943 38.641694 
L 257.37838 38.641694 
L 257.401613 37.932424 
L 257.557486 37.932424 
L 257.597559 37.223153 
L 258.062698 37.223153 
L 258.099986 36.513882 
L 259.31026 36.513882 
L 259.393389 35.449976 
L 259.441888 35.449976 
L 259.552783 34.386071 
L 260.191987 34.386071 
L 260.216282 33.322165 
L 260.641332 33.322165 
L 260.641332 32.967529 
L 260.820402 32.967529 
L 260.820402 32.612894 
L 261.27817 32.612894 
L 261.27817 32.258259 
L 261.397526 32.258259 
L 261.399251 31.548988 
L 261.695977 31.548988 
L 261.695977 31.194353 
L 262.068578 31.194353 
L 262.124154 30.130447 
L 263.314277 30.130447 
L 263.314277 29.775812 
L 264.107457 29.775812 
L 264.107457 29.421176 
L 264.784759 29.421176 
L 264.784759 29.066541 
L 264.902836 29.066541 
L 265.006061 28.357271 
L 266.831606 28.357271 
L 266.831606 28.002635 
L 269.886724 28.002635 
L 269.886724 27.648 
L 360.8064 27.648 
L 360.8064 27.648 
" style="fill:none;stroke:#ff00ff;stroke-linecap:square;stroke-width:1.5;"/>
   </g>
   <g id="line2d_41">
    <defs>
     <path d="M -0 8.485281 
L 5.091169 0 
L 0 -8.485281 
L -5.091169 -0 
z
" id="m4edc7f3933" style="stroke:#ff00ff;stroke-linejoin:miter;stroke-width:1.5;"/>
    </defs>
    <g>
     <use style="fill-opacity:0;stroke:#ff00ff;stroke-linejoin:miter;stroke-width:1.5;" x="214.511286" xlink:href="#m4edc7f3933" y="211.703718"/>
     <use style="fill-opacity:0;stroke:#ff00ff;stroke-linejoin:miter;stroke-width:1.5;" x="241.314317" xlink:href="#m4edc7f3933" y="86.517459"/>
     <use style="fill-opacity:0;stroke:#ff00ff;stroke-linejoin:miter;stroke-width:1.5;" x="269.886724" xlink:href="#m4edc7f3933" y="27.648"/>
     <use style="fill-opacity:0;stroke:#ff00ff;stroke-linejoin:miter;stroke-width:1.5;" x="269.886724" xlink:href="#m4edc7f3933" y="27.648"/>
     <use style="fill-opacity:0;stroke:#ff00ff;stroke-linejoin:miter;stroke-width:1.5;" x="360.8064" xlink:href="#m4edc7f3933" y="27.648"/>
    </g>
   </g>
   <g id="line2d_42">
    <path style="fill:none;stroke:#ff00ff;stroke-linecap:square;stroke-width:1.5;"/>
    <g/>
   </g>
   <g id="line2d_43">
    <path clip-path="url(#p0c3400a3c9)" d="M 217.904964 207.448094 
" style="fill:none;stroke:#ff00ff;stroke-linecap:square;stroke-width:1.5;"/>
    <defs>
     <path d="M -12 12 
L 12 -12 
M -12 -12 
L 12 12 
" id="mfa97ce992d" style="stroke:#ff00ff;"/>
    </defs>
    <g clip-path="url(#p0c3400a3c9)">
     <use style="fill:#ff00ff;stroke:#ff00ff;" x="217.904964" xlink:href="#mfa97ce992d" y="207.448094"/>
    </g>
   </g>
   <g id="line2d_44">
    <path d="M 360.8064 181.914353 
L 380.514816 293.51808 
" style="fill:none;stroke:#000080;stroke-linecap:square;stroke-width:1.5;"/>
    <g>
     <use style="fill-opacity:0;stroke:#000080;stroke-width:1.5;" x="360.8064" xlink:href="#m61f22f90b9" y="181.914353"/>
     <use style="fill-opacity:0;stroke:#000080;stroke-width:1.5;" x="380.514816" xlink:href="#m61f22f90b9" y="293.51808"/>
    </g>
   </g>
   <g id="line2d_45">
    <path d="M 360.8064 27.648 
L 380.514816 163.296 
" style="fill:none;stroke:#ff00ff;stroke-linecap:square;stroke-width:1.5;"/>
    <g>
     <use style="fill-opacity:0;stroke:#ff00ff;stroke-linejoin:miter;stroke-width:1.5;" x="360.8064" xlink:href="#m4edc7f3933" y="27.648"/>
     <use style="fill-opacity:0;stroke:#ff00ff;stroke-linejoin:miter;stroke-width:1.5;" x="380.514816" xlink:href="#m4edc7f3933" y="163.296"/>
    </g>
   </g>
   <g id="line2d_46">
    <path d="M 360.8064 298.944 
L 360.8064 27.648 
" style="fill:none;stroke:#000000;stroke-linecap:square;stroke-width:1.5;"/>
   </g>
   <g id="patch_3">
    <path d="M 57.6 298.944 
L 360.8064 298.944 
" style="fill:none;stroke:#000000;stroke-linecap:square;stroke-linejoin:miter;stroke-width:0.8;"/>
   </g>
   <g id="patch_4">
    <path d="M 57.6 27.648 
L 360.8064 27.648 
" style="fill:none;stroke:#000000;stroke-linecap:square;stroke-linejoin:miter;stroke-width:0.8;"/>
   </g>
   <g id="text_13">
    <!-- different -->
    <g transform="translate(386.578944 297.381205)scale(0.14 -0.14)">
     <use xlink:href="#DejaVuSans-64"/>
     <use x="63.476562" xlink:href="#DejaVuSans-69"/>
     <use x="91.259766" xlink:href="#DejaVuSans-66"/>
     <use x="126.464844" xlink:href="#DejaVuSans-66"/>
     <use x="161.669922" xlink:href="#DejaVuSans-65"/>
     <use x="223.193359" xlink:href="#DejaVuSans-72"/>
     <use x="262.056641" xlink:href="#DejaVuSans-65"/>
     <use x="323.580078" xlink:href="#DejaVuSans-6e"/>
     <use x="386.958984" xlink:href="#DejaVuSans-74"/>
    </g>
   </g>
   <g id="text_14">
    <!-- cma.fmin  -->
    <g transform="translate(386.578944 167.159125)scale(0.14 -0.14)">
     <use xlink:href="#DejaVuSans-63"/>
     <use x="54.980469" xlink:href="#DejaVuSans-6d"/>
     <use x="152.392578" xlink:href="#DejaVuSans-61"/>
     <use x="213.671875" xlink:href="#DejaVuSans-2e"/>
     <use x="245.458984" xlink:href="#DejaVuSans-66"/>
     <use x="280.664062" xlink:href="#DejaVuSans-6d"/>
     <use x="378.076172" xlink:href="#DejaVuSans-69"/>
     <use x="405.859375" xlink:href="#DejaVuSans-6e"/>
     <use x="469.238281" xlink:href="#DejaVuSans-20"/>
    </g>
   </g>
   <g id="text_15">
    <!-- best 2009 -->
    <g transform="translate(386.578944 36.937045)scale(0.14 -0.14)">
     <defs>
      <path d="M 3116 1747 
Q 3116 2381 2855 2742 
Q 2594 3103 2138 3103 
Q 1681 3103 1420 2742 
Q 1159 2381 1159 1747 
Q 1159 1113 1420 752 
Q 1681 391 2138 391 
Q 2594 391 2855 752 
Q 3116 1113 3116 1747 
z
M 1159 2969 
Q 1341 3281 1617 3432 
Q 1894 3584 2278 3584 
Q 2916 3584 3314 3078 
Q 3713 2572 3713 1747 
Q 3713 922 3314 415 
Q 2916 -91 2278 -91 
Q 1894 -91 1617 61 
Q 1341 213 1159 525 
L 1159 0 
L 581 0 
L 581 4863 
L 1159 4863 
L 1159 2969 
z
" id="DejaVuSans-62" transform="scale(0.015625)"/>
      <path d="M 703 97 
L 703 672 
Q 941 559 1184 500 
Q 1428 441 1663 441 
Q 2288 441 2617 861 
Q 2947 1281 2994 2138 
Q 2813 1869 2534 1725 
Q 2256 1581 1919 1581 
Q 1219 1581 811 2004 
Q 403 2428 403 3163 
Q 403 3881 828 4315 
Q 1253 4750 1959 4750 
Q 2769 4750 3195 4129 
Q 3622 3509 3622 2328 
Q 3622 1225 3098 567 
Q 2575 -91 1691 -91 
Q 1453 -91 1209 -44 
Q 966 3 703 97 
z
M 1959 2075 
Q 2384 2075 2632 2365 
Q 2881 2656 2881 3163 
Q 2881 3666 2632 3958 
Q 2384 4250 1959 4250 
Q 1534 4250 1286 3958 
Q 1038 3666 1038 3163 
Q 1038 2656 1286 2365 
Q 1534 2075 1959 2075 
z
" id="DejaVuSans-39" transform="scale(0.015625)"/>
     </defs>
     <use xlink:href="#DejaVuSans-62"/>
     <use x="63.476562" xlink:href="#DejaVuSans-65"/>
     <use x="125" xlink:href="#DejaVuSans-73"/>
     <use x="177.099609" xlink:href="#DejaVuSans-74"/>
     <use x="216.308594" xlink:href="#DejaVuSans-20"/>
     <use x="248.095703" xlink:href="#DejaVuSans-32"/>
     <use x="311.71875" xlink:href="#DejaVuSans-30"/>
     <use x="375.341797" xlink:href="#DejaVuSans-30"/>
     <use x="438.964844" xlink:href="#DejaVuSans-39"/>
    </g>
   </g>
   <g id="text_16">
    <!-- bbob f13, 20-D -->
    <g transform="translate(60.632064 38.111366)scale(0.102 -0.102)">
     <defs>
      <path d="M 2597 2516 
Q 3050 2419 3304 2112 
Q 3559 1806 3559 1356 
Q 3559 666 3084 287 
Q 2609 -91 1734 -91 
Q 1441 -91 1130 -33 
Q 819 25 488 141 
L 488 750 
Q 750 597 1062 519 
Q 1375 441 1716 441 
Q 2309 441 2620 675 
Q 2931 909 2931 1356 
Q 2931 1769 2642 2001 
Q 2353 2234 1838 2234 
L 1294 2234 
L 1294 2753 
L 1863 2753 
Q 2328 2753 2575 2939 
Q 2822 3125 2822 3475 
Q 2822 3834 2567 4026 
Q 2313 4219 1838 4219 
Q 1578 4219 1281 4162 
Q 984 4106 628 3988 
L 628 4550 
Q 988 4650 1302 4700 
Q 1616 4750 1894 4750 
Q 2613 4750 3031 4423 
Q 3450 4097 3450 3541 
Q 3450 3153 3228 2886 
Q 3006 2619 2597 2516 
z
" id="DejaVuSans-33" transform="scale(0.015625)"/>
      <path d="M 1259 4147 
L 1259 519 
L 2022 519 
Q 2988 519 3436 956 
Q 3884 1394 3884 2338 
Q 3884 3275 3436 3711 
Q 2988 4147 2022 4147 
L 1259 4147 
z
M 628 4666 
L 1925 4666 
Q 3281 4666 3915 4102 
Q 4550 3538 4550 2338 
Q 4550 1131 3912 565 
Q 3275 0 1925 0 
L 628 0 
L 628 4666 
z
" id="DejaVuSans-44" transform="scale(0.015625)"/>
     </defs>
     <use xlink:href="#DejaVuSans-62"/>
     <use x="63.476562" xlink:href="#DejaVuSans-62"/>
     <use x="126.953125" xlink:href="#DejaVuSans-6f"/>
     <use x="188.134766" xlink:href="#DejaVuSans-62"/>
     <use x="251.611328" xlink:href="#DejaVuSans-20"/>
     <use x="283.398438" xlink:href="#DejaVuSans-66"/>
     <use x="318.603516" xlink:href="#DejaVuSans-31"/>
     <use x="382.226562" xlink:href="#DejaVuSans-33"/>
     <use x="445.849609" xlink:href="#DejaVuSans-2c"/>
     <use x="477.636719" xlink:href="#DejaVuSans-20"/>
     <use x="509.423828" xlink:href="#DejaVuSans-32"/>
     <use x="573.046875" xlink:href="#DejaVuSans-30"/>
     <use x="636.669922" xlink:href="#DejaVuSans-2d"/>
     <use x="672.753906" xlink:href="#DejaVuSans-44"/>
    </g>
    <!-- 51 targets: 100..1e-08 -->
    <g transform="translate(60.632064 49.533135)scale(0.102 -0.102)">
     <defs>
      <path d="M 691 4666 
L 3169 4666 
L 3169 4134 
L 1269 4134 
L 1269 2991 
Q 1406 3038 1543 3061 
Q 1681 3084 1819 3084 
Q 2600 3084 3056 2656 
Q 3513 2228 3513 1497 
Q 3513 744 3044 326 
Q 2575 -91 1722 -91 
Q 1428 -91 1123 -41 
Q 819 9 494 109 
L 494 744 
Q 775 591 1075 516 
Q 1375 441 1709 441 
Q 2250 441 2565 725 
Q 2881 1009 2881 1497 
Q 2881 1984 2565 2268 
Q 2250 2553 1709 2553 
Q 1456 2553 1204 2497 
Q 953 2441 691 2322 
L 691 4666 
z
" id="DejaVuSans-35" transform="scale(0.015625)"/>
      <path d="M 750 794 
L 1409 794 
L 1409 0 
L 750 0 
L 750 794 
z
M 750 3309 
L 1409 3309 
L 1409 2516 
L 750 2516 
L 750 3309 
z
" id="DejaVuSans-3a" transform="scale(0.015625)"/>
     </defs>
     <use xlink:href="#DejaVuSans-35"/>
     <use x="63.623047" xlink:href="#DejaVuSans-31"/>
     <use x="127.246094" xlink:href="#DejaVuSans-20"/>
     <use x="159.033203" xlink:href="#DejaVuSans-74"/>
     <use x="198.242188" xlink:href="#DejaVuSans-61"/>
     <use x="259.521484" xlink:href="#DejaVuSans-72"/>
     <use x="298.884766" xlink:href="#DejaVuSans-67"/>
     <use x="362.361328" xlink:href="#DejaVuSans-65"/>
     <use x="423.884766" xlink:href="#DejaVuSans-74"/>
     <use x="463.09375" xlink:href="#DejaVuSans-73"/>
     <use x="515.193359" xlink:href="#DejaVuSans-3a"/>
     <use x="548.884766" xlink:href="#DejaVuSans-20"/>
     <use x="580.671875" xlink:href="#DejaVuSans-31"/>
     <use x="644.294922" xlink:href="#DejaVuSans-30"/>
     <use x="707.917969" xlink:href="#DejaVuSans-30"/>
     <use x="771.541016" xlink:href="#DejaVuSans-2e"/>
     <use x="803.328125" xlink:href="#DejaVuSans-2e"/>
     <use x="835.115234" xlink:href="#DejaVuSans-31"/>
     <use x="898.738281" xlink:href="#DejaVuSans-65"/>
     <use x="960.261719" xlink:href="#DejaVuSans-2d"/>
     <use x="996.345703" xlink:href="#DejaVuSans-30"/>
     <use x="1059.96875" xlink:href="#DejaVuSans-38"/>
    </g>
    <!-- 15 instances -->
    <g transform="translate(60.632064 60.954904)scale(0.102 -0.102)">
     <use xlink:href="#DejaVuSans-31"/>
     <use x="63.623047" xlink:href="#DejaVuSans-35"/>
     <use x="127.246094" xlink:href="#DejaVuSans-20"/>
     <use x="159.033203" xlink:href="#DejaVuSans-69"/>
     <use x="186.816406" xlink:href="#DejaVuSans-6e"/>
     <use x="250.195312" xlink:href="#DejaVuSans-73"/>
     <use x="302.294922" xlink:href="#DejaVuSans-74"/>
     <use x="341.503906" xlink:href="#DejaVuSans-61"/>
     <use x="402.783203" xlink:href="#DejaVuSans-6e"/>
     <use x="466.162109" xlink:href="#DejaVuSans-63"/>
     <use x="521.142578" xlink:href="#DejaVuSans-65"/>
     <use x="582.666016" xlink:href="#DejaVuSans-73"/>
    </g>
   </g>
   <g id="text_17">
    <!-- v2.6 -->
    <g style="fill:#808080;" transform="translate(198.292262 294.151352)scale(0.1 -0.1)">
     <use xlink:href="#DejaVuSans-76"/>
     <use x="59.179688" xlink:href="#DejaVuSans-32"/>
     <use x="122.802734" xlink:href="#DejaVuSans-2e"/>
     <use x="154.589844" xlink:href="#DejaVuSans-36"/>
    </g>
   </g>
   <g id="text_18">
    <!-- 13 Sharp ridge -->
    <g transform="translate(135.10945 21.648)scale(0.2 -0.2)">
     <defs>
      <path d="M 3425 4513 
L 3425 3897 
Q 3066 4069 2747 4153 
Q 2428 4238 2131 4238 
Q 1616 4238 1336 4038 
Q 1056 3838 1056 3469 
Q 1056 3159 1242 3001 
Q 1428 2844 1947 2747 
L 2328 2669 
Q 3034 2534 3370 2195 
Q 3706 1856 3706 1288 
Q 3706 609 3251 259 
Q 2797 -91 1919 -91 
Q 1588 -91 1214 -16 
Q 841 59 441 206 
L 441 856 
Q 825 641 1194 531 
Q 1563 422 1919 422 
Q 2459 422 2753 634 
Q 3047 847 3047 1241 
Q 3047 1584 2836 1778 
Q 2625 1972 2144 2069 
L 1759 2144 
Q 1053 2284 737 2584 
Q 422 2884 422 3419 
Q 422 4038 858 4394 
Q 1294 4750 2059 4750 
Q 2388 4750 2728 4690 
Q 3069 4631 3425 4513 
z
" id="DejaVuSans-53" transform="scale(0.015625)"/>
      <path d="M 3513 2113 
L 3513 0 
L 2938 0 
L 2938 2094 
Q 2938 2591 2744 2837 
Q 2550 3084 2163 3084 
Q 1697 3084 1428 2787 
Q 1159 2491 1159 1978 
L 1159 0 
L 581 0 
L 581 4863 
L 1159 4863 
L 1159 2956 
Q 1366 3272 1645 3428 
Q 1925 3584 2291 3584 
Q 2894 3584 3203 3211 
Q 3513 2838 3513 2113 
z
" id="DejaVuSans-68" transform="scale(0.015625)"/>
     </defs>
     <use xlink:href="#DejaVuSans-31"/>
     <use x="63.623047" xlink:href="#DejaVuSans-33"/>
     <use x="127.246094" xlink:href="#DejaVuSans-20"/>
     <use x="159.033203" xlink:href="#DejaVuSans-53"/>
     <use x="222.509766" xlink:href="#DejaVuSans-68"/>
     <use x="285.888672" xlink:href="#DejaVuSans-61"/>
     <use x="347.167969" xlink:href="#DejaVuSans-72"/>
     <use x="388.28125" xlink:href="#DejaVuSans-70"/>
     <use x="451.757812" xlink:href="#DejaVuSans-20"/>
     <use x="483.544922" xlink:href="#DejaVuSans-72"/>
     <use x="524.658203" xlink:href="#DejaVuSans-69"/>
     <use x="552.441406" xlink:href="#DejaVuSans-64"/>
     <use x="615.917969" xlink:href="#DejaVuSans-67"/>
     <use x="679.394531" xlink:href="#DejaVuSans-65"/>
    </g>
   </g>
  </g>
 </g>
 <defs>
  <clipPath id="p0c3400a3c9">
   <rect height="271.296" width="303.2064" x="57.6" y="27.648"/>
  </clipPath>
 </defs>
</svg>
