<?xml version="1.0" encoding="utf-8" standalone="no"?>
<!DOCTYPE svg PUBLIC "-//W3C//DTD SVG 1.1//EN"
  "http://www.w3.org/Graphics/SVG/1.1/DTD/svg11.dtd">
<svg height="345.6pt" version="1.1" viewBox="0 0 460.8 345.6" width="460.8pt" xmlns="http://www.w3.org/2000/svg" xmlns:xlink="http://www.w3.org/1999/xlink">
 <metadata>
  <rdf:RDF xmlns:cc="http://creativecommons.org/ns#" xmlns:dc="http://purl.org/dc/elements/1.1/" xmlns:rdf="http://www.w3.org/1999/02/22-rdf-syntax-ns#">
   <cc:Work>
    <dc:type rdf:resource="http://purl.org/dc/dcmitype/StillImage"/>
    <dc:date>2022-05-22T15:11:06.388977</dc:date>
    <dc:format>image/svg+xml</dc:format>
    <dc:creator>
     <cc:Agent>
      <dc:title>Matplotlib v3.4.3, https://matplotlib.org/</dc:title>
     </cc:Agent>
    </dc:creator>
   </cc:Work>
  </rdf:RDF>
 </metadata>
 <defs>
  <style type="text/css">*{stroke-linecap:butt;stroke-linejoin:round;}</style>
 </defs>
 <g id="figure_1">
  <g id="patch_1">
   <path d="M 0 345.6 
L 460.8 345.6 
L 460.8 0 
L 0 0 
z
" style="fill:#ffffff;"/>
  </g>
  <g id="axes_1">
   <g id="patch_2">
    <path d="M 57.6 298.944 
L 360.8064 298.944 
L 360.8064 27.648 
L 57.6 27.648 
z
" style="fill:#ffffff;"/>
   </g>
   <g id="line2d_1">
    <path d="M 27.323974 298.944 
L 27.323974 282.985412 
L 40.363149 282.985412 
L 40.363149 272.346353 
L 57.6 272.346353 
L 57.6 267.026824 
L 88.613828 267.026824 
L 88.613828 261.707294 
L 103.380045 261.707294 
L 103.380045 256.387765 
L 115.747307 256.387765 
L 115.747307 251.068235 
L 122.913079 251.068235 
L 122.913079 245.748706 
L 128.354013 245.748706 
L 128.354013 240.429176 
L 140.58877 240.429176 
L 140.58877 235.109647 
L 143.696162 235.109647 
L 143.696162 229.790118 
L 147.628773 229.790118 
L 147.628773 224.470588 
L 154.101358 224.470588 
L 154.101358 219.151059 
L 155.266666 219.151059 
L 155.266666 213.831529 
L 160.573496 213.831529 
L 160.573496 208.512 
L 165.957604 208.512 
L 165.957604 203.192471 
L 170.718116 203.192471 
L 170.718116 197.872941 
L 171.324847 197.872941 
L 171.324847 192.553412 
L 177.043737 192.553412 
L 177.043737 187.233882 
L 177.472768 187.233882 
L 177.472768 181.914353 
L 179.412941 181.914353 
L 179.412941 176.594824 
L 180.163003 176.594824 
L 180.163003 171.275294 
L 181.386819 171.275294 
L 181.386819 165.955765 
L 181.723072 165.955765 
L 181.723072 160.636235 
L 182.158919 160.636235 
L 182.158919 155.316706 
L 183.46513 155.316706 
L 183.46513 149.997176 
L 184.800034 149.997176 
L 184.800034 144.677647 
L 186.393631 144.677647 
L 186.393631 139.358118 
L 186.761992 139.358118 
L 186.761992 134.038588 
L 188.167281 134.038588 
L 188.167281 128.719059 
L 189.828049 128.719059 
L 189.828049 123.399529 
L 191.075413 123.399529 
L 191.075413 118.08 
L 191.616436 118.08 
L 191.616436 112.760471 
L 192.044841 112.760471 
L 192.044841 107.440941 
L 194.454679 107.440941 
L 194.454679 102.121412 
L 194.618135 102.121412 
L 194.618135 96.801882 
L 194.708334 96.801882 
L 194.708334 91.482353 
L 194.879803 91.482353 
L 194.879803 86.162824 
L 195.006754 86.162824 
L 195.006754 80.843294 
L 195.25312 80.843294 
L 195.25312 75.523765 
L 195.552922 75.523765 
L 195.552922 70.204235 
L 195.860116 70.204235 
L 195.860116 64.884706 
L 196.033429 64.884706 
L 196.033429 59.565176 
L 196.231259 59.565176 
L 196.231259 54.245647 
L 196.457509 54.245647 
L 196.457509 48.926118 
L 196.583589 48.926118 
L 196.583589 43.606588 
L 196.720384 43.606588 
L 196.720384 38.287059 
L 196.84013 38.287059 
L 196.84013 32.967529 
L 196.977358 32.967529 
L 196.977358 27.648 
L 360.8064 27.648 
" style="fill:none;stroke:#f5deb3;stroke-linecap:square;stroke-width:4;"/>
   </g>
   <g id="line2d_2">
    <defs>
     <path d="M -0 7.778175 
L 7.778175 0 
L 0 -7.778175 
L -7.778175 -0 
z
" id="m7ba2402d88" style="stroke:#f5deb3;stroke-linejoin:miter;stroke-width:1.5;"/>
    </defs>
    <g>
     <use style="fill:#f5deb3;stroke:#f5deb3;stroke-linejoin:miter;stroke-width:1.5;" x="155.266666" xlink:href="#m7ba2402d88" y="213.831529"/>
     <use style="fill:#f5deb3;stroke:#f5deb3;stroke-linejoin:miter;stroke-width:1.5;" x="186.761992" xlink:href="#m7ba2402d88" y="134.038588"/>
     <use style="fill:#f5deb3;stroke:#f5deb3;stroke-linejoin:miter;stroke-width:1.5;" x="196.977358" xlink:href="#m7ba2402d88" y="32.967529"/>
     <use style="fill:#f5deb3;stroke:#f5deb3;stroke-linejoin:miter;stroke-width:1.5;" x="196.977358" xlink:href="#m7ba2402d88" y="27.648"/>
     <use style="fill:#f5deb3;stroke:#f5deb3;stroke-linejoin:miter;stroke-width:1.5;" x="360.8064" xlink:href="#m7ba2402d88" y="27.648"/>
    </g>
   </g>
   <g id="line2d_3">
    <path style="fill:none;stroke:#f5deb3;stroke-linecap:square;stroke-width:4;"/>
    <g/>
   </g>
   <g id="line2d_4">
    <path d="M 360.8064 27.648 
L 380.514816 33.07392 
" style="fill:none;stroke:#f5deb3;stroke-linecap:square;stroke-width:4;"/>
    <g>
     <use style="fill:#f5deb3;stroke:#f5deb3;stroke-linejoin:miter;stroke-width:1.5;" x="360.8064" xlink:href="#m7ba2402d88" y="27.648"/>
     <use style="fill:#f5deb3;stroke:#f5deb3;stroke-linejoin:miter;stroke-width:1.5;" x="380.514816" xlink:href="#m7ba2402d88" y="33.07392"/>
    </g>
   </g>
   <g id="matplotlib.axis_1">
    <g id="xtick_1">
     <g id="line2d_5">
      <path clip-path="url(#pc98bdbf042)" d="M 57.6 298.944 
L 57.6 27.648 
" style="fill:none;stroke:#b0b0b0;stroke-linecap:square;stroke-width:0.8;"/>
     </g>
     <g id="line2d_6">
      <defs>
       <path d="M 0 0 
L 0 3.5 
" id="m72edf1e5af" style="stroke:#000000;stroke-width:0.8;"/>
      </defs>
      <g>
       <use style="stroke:#000000;stroke-width:0.8;" x="57.6" xlink:href="#m72edf1e5af" y="298.944"/>
      </g>
     </g>
     <g id="text_1">
      <!-- 0 -->
      <g transform="translate(52.191875 318.861344)scale(0.17 -0.17)">
       <defs>
        <path d="M 2034 4250 
Q 1547 4250 1301 3770 
Q 1056 3291 1056 2328 
Q 1056 1369 1301 889 
Q 1547 409 2034 409 
Q 2525 409 2770 889 
Q 3016 1369 3016 2328 
Q 3016 3291 2770 3770 
Q 2525 4250 2034 4250 
z
M 2034 4750 
Q 2819 4750 3233 4129 
Q 3647 3509 3647 2328 
Q 3647 1150 3233 529 
Q 2819 -91 2034 -91 
Q 1250 -91 836 529 
Q 422 1150 422 2328 
Q 422 3509 836 4129 
Q 1250 4750 2034 4750 
z
" id="DejaVuSans-30" transform="scale(0.015625)"/>
       </defs>
       <use xlink:href="#DejaVuSans-30"/>
      </g>
     </g>
    </g>
    <g id="xtick_2">
     <g id="line2d_7">
      <path clip-path="url(#pc98bdbf042)" d="M 144.2304 298.944 
L 144.2304 27.648 
" style="fill:none;stroke:#b0b0b0;stroke-linecap:square;stroke-width:0.8;"/>
     </g>
     <g id="line2d_8">
      <g>
       <use style="stroke:#000000;stroke-width:0.8;" x="144.2304" xlink:href="#m72edf1e5af" y="298.944"/>
      </g>
     </g>
     <g id="text_2">
      <!-- 2 -->
      <g transform="translate(138.822275 318.861344)scale(0.17 -0.17)">
       <defs>
        <path d="M 1228 531 
L 3431 531 
L 3431 0 
L 469 0 
L 469 531 
Q 828 903 1448 1529 
Q 2069 2156 2228 2338 
Q 2531 2678 2651 2914 
Q 2772 3150 2772 3378 
Q 2772 3750 2511 3984 
Q 2250 4219 1831 4219 
Q 1534 4219 1204 4116 
Q 875 4013 500 3803 
L 500 4441 
Q 881 4594 1212 4672 
Q 1544 4750 1819 4750 
Q 2544 4750 2975 4387 
Q 3406 4025 3406 3419 
Q 3406 3131 3298 2873 
Q 3191 2616 2906 2266 
Q 2828 2175 2409 1742 
Q 1991 1309 1228 531 
z
" id="DejaVuSans-32" transform="scale(0.015625)"/>
       </defs>
       <use xlink:href="#DejaVuSans-32"/>
      </g>
     </g>
    </g>
    <g id="xtick_3">
     <g id="line2d_9">
      <path clip-path="url(#pc98bdbf042)" d="M 230.8608 298.944 
L 230.8608 27.648 
" style="fill:none;stroke:#b0b0b0;stroke-linecap:square;stroke-width:0.8;"/>
     </g>
     <g id="line2d_10">
      <g>
       <use style="stroke:#000000;stroke-width:0.8;" x="230.8608" xlink:href="#m72edf1e5af" y="298.944"/>
      </g>
     </g>
     <g id="text_3">
      <!-- 4 -->
      <g transform="translate(225.452675 318.861344)scale(0.17 -0.17)">
       <defs>
        <path d="M 2419 4116 
L 825 1625 
L 2419 1625 
L 2419 4116 
z
M 2253 4666 
L 3047 4666 
L 3047 1625 
L 3713 1625 
L 3713 1100 
L 3047 1100 
L 3047 0 
L 2419 0 
L 2419 1100 
L 313 1100 
L 313 1709 
L 2253 4666 
z
" id="DejaVuSans-34" transform="scale(0.015625)"/>
       </defs>
       <use xlink:href="#DejaVuSans-34"/>
      </g>
     </g>
    </g>
    <g id="xtick_4">
     <g id="line2d_11">
      <path clip-path="url(#pc98bdbf042)" d="M 317.4912 298.944 
L 317.4912 27.648 
" style="fill:none;stroke:#b0b0b0;stroke-linecap:square;stroke-width:0.8;"/>
     </g>
     <g id="line2d_12">
      <g>
       <use style="stroke:#000000;stroke-width:0.8;" x="317.4912" xlink:href="#m72edf1e5af" y="298.944"/>
      </g>
     </g>
     <g id="text_4">
      <!-- 6 -->
      <g transform="translate(312.083075 318.861344)scale(0.17 -0.17)">
       <defs>
        <path d="M 2113 2584 
Q 1688 2584 1439 2293 
Q 1191 2003 1191 1497 
Q 1191 994 1439 701 
Q 1688 409 2113 409 
Q 2538 409 2786 701 
Q 3034 994 3034 1497 
Q 3034 2003 2786 2293 
Q 2538 2584 2113 2584 
z
M 3366 4563 
L 3366 3988 
Q 3128 4100 2886 4159 
Q 2644 4219 2406 4219 
Q 1781 4219 1451 3797 
Q 1122 3375 1075 2522 
Q 1259 2794 1537 2939 
Q 1816 3084 2150 3084 
Q 2853 3084 3261 2657 
Q 3669 2231 3669 1497 
Q 3669 778 3244 343 
Q 2819 -91 2113 -91 
Q 1303 -91 875 529 
Q 447 1150 447 2328 
Q 447 3434 972 4092 
Q 1497 4750 2381 4750 
Q 2619 4750 2861 4703 
Q 3103 4656 3366 4563 
z
" id="DejaVuSans-36" transform="scale(0.015625)"/>
       </defs>
       <use xlink:href="#DejaVuSans-36"/>
      </g>
     </g>
    </g>
    <g id="xtick_5">
     <g id="line2d_13">
      <path clip-path="url(#pc98bdbf042)" d="M 100.9152 298.944 
L 100.9152 27.648 
" style="fill:none;stroke:#b0b0b0;stroke-linecap:square;stroke-width:0.8;"/>
     </g>
     <g id="line2d_14">
      <defs>
       <path d="M 0 0 
L 0 2 
" id="mf3939d64f5" style="stroke:#000000;stroke-width:0.6;"/>
      </defs>
      <g>
       <use style="stroke:#000000;stroke-width:0.6;" x="100.9152" xlink:href="#mf3939d64f5" y="298.944"/>
      </g>
     </g>
    </g>
    <g id="xtick_6">
     <g id="line2d_15">
      <path clip-path="url(#pc98bdbf042)" d="M 187.5456 298.944 
L 187.5456 27.648 
" style="fill:none;stroke:#b0b0b0;stroke-linecap:square;stroke-width:0.8;"/>
     </g>
     <g id="line2d_16">
      <g>
       <use style="stroke:#000000;stroke-width:0.6;" x="187.5456" xlink:href="#mf3939d64f5" y="298.944"/>
      </g>
     </g>
    </g>
    <g id="xtick_7">
     <g id="line2d_17">
      <path clip-path="url(#pc98bdbf042)" d="M 274.176 298.944 
L 274.176 27.648 
" style="fill:none;stroke:#b0b0b0;stroke-linecap:square;stroke-width:0.8;"/>
     </g>
     <g id="line2d_18">
      <g>
       <use style="stroke:#000000;stroke-width:0.6;" x="274.176" xlink:href="#mf3939d64f5" y="298.944"/>
      </g>
     </g>
    </g>
    <g id="xtick_8">
     <g id="line2d_19">
      <path clip-path="url(#pc98bdbf042)" d="M 360.8064 298.944 
L 360.8064 27.648 
" style="fill:none;stroke:#b0b0b0;stroke-linecap:square;stroke-width:0.8;"/>
     </g>
     <g id="line2d_20">
      <g>
       <use style="stroke:#000000;stroke-width:0.6;" x="360.8064" xlink:href="#mf3939d64f5" y="298.944"/>
      </g>
     </g>
    </g>
    <g id="text_5">
     <!-- log10(# f-evals / dimension) -->
     <g transform="translate(88.823278 339.314156)scale(0.17 -0.17)">
      <defs>
       <path d="M 603 4863 
L 1178 4863 
L 1178 0 
L 603 0 
L 603 4863 
z
" id="DejaVuSans-6c" transform="scale(0.015625)"/>
       <path d="M 1959 3097 
Q 1497 3097 1228 2736 
Q 959 2375 959 1747 
Q 959 1119 1226 758 
Q 1494 397 1959 397 
Q 2419 397 2687 759 
Q 2956 1122 2956 1747 
Q 2956 2369 2687 2733 
Q 2419 3097 1959 3097 
z
M 1959 3584 
Q 2709 3584 3137 3096 
Q 3566 2609 3566 1747 
Q 3566 888 3137 398 
Q 2709 -91 1959 -91 
Q 1206 -91 779 398 
Q 353 888 353 1747 
Q 353 2609 779 3096 
Q 1206 3584 1959 3584 
z
" id="DejaVuSans-6f" transform="scale(0.015625)"/>
       <path d="M 2906 1791 
Q 2906 2416 2648 2759 
Q 2391 3103 1925 3103 
Q 1463 3103 1205 2759 
Q 947 2416 947 1791 
Q 947 1169 1205 825 
Q 1463 481 1925 481 
Q 2391 481 2648 825 
Q 2906 1169 2906 1791 
z
M 3481 434 
Q 3481 -459 3084 -895 
Q 2688 -1331 1869 -1331 
Q 1566 -1331 1297 -1286 
Q 1028 -1241 775 -1147 
L 775 -588 
Q 1028 -725 1275 -790 
Q 1522 -856 1778 -856 
Q 2344 -856 2625 -561 
Q 2906 -266 2906 331 
L 2906 616 
Q 2728 306 2450 153 
Q 2172 0 1784 0 
Q 1141 0 747 490 
Q 353 981 353 1791 
Q 353 2603 747 3093 
Q 1141 3584 1784 3584 
Q 2172 3584 2450 3431 
Q 2728 3278 2906 2969 
L 2906 3500 
L 3481 3500 
L 3481 434 
z
" id="DejaVuSans-67" transform="scale(0.015625)"/>
       <path d="M 794 531 
L 1825 531 
L 1825 4091 
L 703 3866 
L 703 4441 
L 1819 4666 
L 2450 4666 
L 2450 531 
L 3481 531 
L 3481 0 
L 794 0 
L 794 531 
z
" id="DejaVuSans-31" transform="scale(0.015625)"/>
       <path d="M 1984 4856 
Q 1566 4138 1362 3434 
Q 1159 2731 1159 2009 
Q 1159 1288 1364 580 
Q 1569 -128 1984 -844 
L 1484 -844 
Q 1016 -109 783 600 
Q 550 1309 550 2009 
Q 550 2706 781 3412 
Q 1013 4119 1484 4856 
L 1984 4856 
z
" id="DejaVuSans-28" transform="scale(0.015625)"/>
       <path d="M 3272 2816 
L 2363 2816 
L 2100 1772 
L 3016 1772 
L 3272 2816 
z
M 2803 4594 
L 2478 3297 
L 3391 3297 
L 3719 4594 
L 4219 4594 
L 3897 3297 
L 4872 3297 
L 4872 2816 
L 3775 2816 
L 3519 1772 
L 4513 1772 
L 4513 1294 
L 3397 1294 
L 3072 0 
L 2572 0 
L 2894 1294 
L 1978 1294 
L 1656 0 
L 1153 0 
L 1478 1294 
L 494 1294 
L 494 1772 
L 1594 1772 
L 1856 2816 
L 850 2816 
L 850 3297 
L 1978 3297 
L 2297 4594 
L 2803 4594 
z
" id="DejaVuSans-23" transform="scale(0.015625)"/>
       <path id="DejaVuSans-20" transform="scale(0.015625)"/>
       <path d="M 2375 4863 
L 2375 4384 
L 1825 4384 
Q 1516 4384 1395 4259 
Q 1275 4134 1275 3809 
L 1275 3500 
L 2222 3500 
L 2222 3053 
L 1275 3053 
L 1275 0 
L 697 0 
L 697 3053 
L 147 3053 
L 147 3500 
L 697 3500 
L 697 3744 
Q 697 4328 969 4595 
Q 1241 4863 1831 4863 
L 2375 4863 
z
" id="DejaVuSans-66" transform="scale(0.015625)"/>
       <path d="M 313 2009 
L 1997 2009 
L 1997 1497 
L 313 1497 
L 313 2009 
z
" id="DejaVuSans-2d" transform="scale(0.015625)"/>
       <path d="M 3597 1894 
L 3597 1613 
L 953 1613 
Q 991 1019 1311 708 
Q 1631 397 2203 397 
Q 2534 397 2845 478 
Q 3156 559 3463 722 
L 3463 178 
Q 3153 47 2828 -22 
Q 2503 -91 2169 -91 
Q 1331 -91 842 396 
Q 353 884 353 1716 
Q 353 2575 817 3079 
Q 1281 3584 2069 3584 
Q 2775 3584 3186 3129 
Q 3597 2675 3597 1894 
z
M 3022 2063 
Q 3016 2534 2758 2815 
Q 2500 3097 2075 3097 
Q 1594 3097 1305 2825 
Q 1016 2553 972 2059 
L 3022 2063 
z
" id="DejaVuSans-65" transform="scale(0.015625)"/>
       <path d="M 191 3500 
L 800 3500 
L 1894 563 
L 2988 3500 
L 3597 3500 
L 2284 0 
L 1503 0 
L 191 3500 
z
" id="DejaVuSans-76" transform="scale(0.015625)"/>
       <path d="M 2194 1759 
Q 1497 1759 1228 1600 
Q 959 1441 959 1056 
Q 959 750 1161 570 
Q 1363 391 1709 391 
Q 2188 391 2477 730 
Q 2766 1069 2766 1631 
L 2766 1759 
L 2194 1759 
z
M 3341 1997 
L 3341 0 
L 2766 0 
L 2766 531 
Q 2569 213 2275 61 
Q 1981 -91 1556 -91 
Q 1019 -91 701 211 
Q 384 513 384 1019 
Q 384 1609 779 1909 
Q 1175 2209 1959 2209 
L 2766 2209 
L 2766 2266 
Q 2766 2663 2505 2880 
Q 2244 3097 1772 3097 
Q 1472 3097 1187 3025 
Q 903 2953 641 2809 
L 641 3341 
Q 956 3463 1253 3523 
Q 1550 3584 1831 3584 
Q 2591 3584 2966 3190 
Q 3341 2797 3341 1997 
z
" id="DejaVuSans-61" transform="scale(0.015625)"/>
       <path d="M 2834 3397 
L 2834 2853 
Q 2591 2978 2328 3040 
Q 2066 3103 1784 3103 
Q 1356 3103 1142 2972 
Q 928 2841 928 2578 
Q 928 2378 1081 2264 
Q 1234 2150 1697 2047 
L 1894 2003 
Q 2506 1872 2764 1633 
Q 3022 1394 3022 966 
Q 3022 478 2636 193 
Q 2250 -91 1575 -91 
Q 1294 -91 989 -36 
Q 684 19 347 128 
L 347 722 
Q 666 556 975 473 
Q 1284 391 1588 391 
Q 1994 391 2212 530 
Q 2431 669 2431 922 
Q 2431 1156 2273 1281 
Q 2116 1406 1581 1522 
L 1381 1569 
Q 847 1681 609 1914 
Q 372 2147 372 2553 
Q 372 3047 722 3315 
Q 1072 3584 1716 3584 
Q 2034 3584 2315 3537 
Q 2597 3491 2834 3397 
z
" id="DejaVuSans-73" transform="scale(0.015625)"/>
       <path d="M 1625 4666 
L 2156 4666 
L 531 -594 
L 0 -594 
L 1625 4666 
z
" id="DejaVuSans-2f" transform="scale(0.015625)"/>
       <path d="M 2906 2969 
L 2906 4863 
L 3481 4863 
L 3481 0 
L 2906 0 
L 2906 525 
Q 2725 213 2448 61 
Q 2172 -91 1784 -91 
Q 1150 -91 751 415 
Q 353 922 353 1747 
Q 353 2572 751 3078 
Q 1150 3584 1784 3584 
Q 2172 3584 2448 3432 
Q 2725 3281 2906 2969 
z
M 947 1747 
Q 947 1113 1208 752 
Q 1469 391 1925 391 
Q 2381 391 2643 752 
Q 2906 1113 2906 1747 
Q 2906 2381 2643 2742 
Q 2381 3103 1925 3103 
Q 1469 3103 1208 2742 
Q 947 2381 947 1747 
z
" id="DejaVuSans-64" transform="scale(0.015625)"/>
       <path d="M 603 3500 
L 1178 3500 
L 1178 0 
L 603 0 
L 603 3500 
z
M 603 4863 
L 1178 4863 
L 1178 4134 
L 603 4134 
L 603 4863 
z
" id="DejaVuSans-69" transform="scale(0.015625)"/>
       <path d="M 3328 2828 
Q 3544 3216 3844 3400 
Q 4144 3584 4550 3584 
Q 5097 3584 5394 3201 
Q 5691 2819 5691 2113 
L 5691 0 
L 5113 0 
L 5113 2094 
Q 5113 2597 4934 2840 
Q 4756 3084 4391 3084 
Q 3944 3084 3684 2787 
Q 3425 2491 3425 1978 
L 3425 0 
L 2847 0 
L 2847 2094 
Q 2847 2600 2669 2842 
Q 2491 3084 2119 3084 
Q 1678 3084 1418 2786 
Q 1159 2488 1159 1978 
L 1159 0 
L 581 0 
L 581 3500 
L 1159 3500 
L 1159 2956 
Q 1356 3278 1631 3431 
Q 1906 3584 2284 3584 
Q 2666 3584 2933 3390 
Q 3200 3197 3328 2828 
z
" id="DejaVuSans-6d" transform="scale(0.015625)"/>
       <path d="M 3513 2113 
L 3513 0 
L 2938 0 
L 2938 2094 
Q 2938 2591 2744 2837 
Q 2550 3084 2163 3084 
Q 1697 3084 1428 2787 
Q 1159 2491 1159 1978 
L 1159 0 
L 581 0 
L 581 3500 
L 1159 3500 
L 1159 2956 
Q 1366 3272 1645 3428 
Q 1925 3584 2291 3584 
Q 2894 3584 3203 3211 
Q 3513 2838 3513 2113 
z
" id="DejaVuSans-6e" transform="scale(0.015625)"/>
       <path d="M 513 4856 
L 1013 4856 
Q 1481 4119 1714 3412 
Q 1947 2706 1947 2009 
Q 1947 1309 1714 600 
Q 1481 -109 1013 -844 
L 513 -844 
Q 928 -128 1133 580 
Q 1338 1288 1338 2009 
Q 1338 2731 1133 3434 
Q 928 4138 513 4856 
z
" id="DejaVuSans-29" transform="scale(0.015625)"/>
      </defs>
      <use xlink:href="#DejaVuSans-6c"/>
      <use x="27.783203" xlink:href="#DejaVuSans-6f"/>
      <use x="88.964844" xlink:href="#DejaVuSans-67"/>
      <use x="152.441406" xlink:href="#DejaVuSans-31"/>
      <use x="216.064453" xlink:href="#DejaVuSans-30"/>
      <use x="279.6875" xlink:href="#DejaVuSans-28"/>
      <use x="318.701172" xlink:href="#DejaVuSans-23"/>
      <use x="402.490234" xlink:href="#DejaVuSans-20"/>
      <use x="434.277344" xlink:href="#DejaVuSans-66"/>
      <use x="463.982422" xlink:href="#DejaVuSans-2d"/>
      <use x="500.066406" xlink:href="#DejaVuSans-65"/>
      <use x="561.589844" xlink:href="#DejaVuSans-76"/>
      <use x="620.769531" xlink:href="#DejaVuSans-61"/>
      <use x="682.048828" xlink:href="#DejaVuSans-6c"/>
      <use x="709.832031" xlink:href="#DejaVuSans-73"/>
      <use x="761.931641" xlink:href="#DejaVuSans-20"/>
      <use x="793.71875" xlink:href="#DejaVuSans-2f"/>
      <use x="827.410156" xlink:href="#DejaVuSans-20"/>
      <use x="859.197266" xlink:href="#DejaVuSans-64"/>
      <use x="922.673828" xlink:href="#DejaVuSans-69"/>
      <use x="950.457031" xlink:href="#DejaVuSans-6d"/>
      <use x="1047.869141" xlink:href="#DejaVuSans-65"/>
      <use x="1109.392578" xlink:href="#DejaVuSans-6e"/>
      <use x="1172.771484" xlink:href="#DejaVuSans-73"/>
      <use x="1224.871094" xlink:href="#DejaVuSans-69"/>
      <use x="1252.654297" xlink:href="#DejaVuSans-6f"/>
      <use x="1313.835938" xlink:href="#DejaVuSans-6e"/>
      <use x="1377.214844" xlink:href="#DejaVuSans-29"/>
     </g>
    </g>
   </g>
   <g id="matplotlib.axis_2">
    <g id="ytick_1">
     <g id="line2d_21">
      <path clip-path="url(#pc98bdbf042)" d="M 57.6 298.944 
L 360.8064 298.944 
" style="fill:none;stroke:#b0b0b0;stroke-linecap:square;stroke-width:0.8;"/>
     </g>
     <g id="line2d_22">
      <defs>
       <path d="M 0 0 
L -3.5 0 
" id="m0c0c09196e" style="stroke:#000000;stroke-width:0.8;"/>
      </defs>
      <g>
       <use style="stroke:#000000;stroke-width:0.8;" x="57.6" xlink:href="#m0c0c09196e" y="298.944"/>
      </g>
     </g>
     <g id="text_6">
      <!-- 0.0 -->
      <g transform="translate(25.155 305.02275)scale(0.16 -0.16)">
       <defs>
        <path d="M 684 794 
L 1344 794 
L 1344 0 
L 684 0 
L 684 794 
z
" id="DejaVuSans-2e" transform="scale(0.015625)"/>
       </defs>
       <use xlink:href="#DejaVuSans-30"/>
       <use x="63.623047" xlink:href="#DejaVuSans-2e"/>
       <use x="95.410156" xlink:href="#DejaVuSans-30"/>
      </g>
     </g>
    </g>
    <g id="ytick_2">
     <g id="line2d_23">
      <path clip-path="url(#pc98bdbf042)" d="M 57.6 244.6848 
L 360.8064 244.6848 
" style="fill:none;stroke:#b0b0b0;stroke-linecap:square;stroke-width:0.8;"/>
     </g>
     <g id="line2d_24">
      <g>
       <use style="stroke:#000000;stroke-width:0.8;" x="57.6" xlink:href="#m0c0c09196e" y="244.6848"/>
      </g>
     </g>
     <g id="text_7">
      <!-- 0.2 -->
      <g transform="translate(25.155 250.76355)scale(0.16 -0.16)">
       <use xlink:href="#DejaVuSans-30"/>
       <use x="63.623047" xlink:href="#DejaVuSans-2e"/>
       <use x="95.410156" xlink:href="#DejaVuSans-32"/>
      </g>
     </g>
    </g>
    <g id="ytick_3">
     <g id="line2d_25">
      <path clip-path="url(#pc98bdbf042)" d="M 57.6 190.4256 
L 360.8064 190.4256 
" style="fill:none;stroke:#b0b0b0;stroke-linecap:square;stroke-width:0.8;"/>
     </g>
     <g id="line2d_26">
      <g>
       <use style="stroke:#000000;stroke-width:0.8;" x="57.6" xlink:href="#m0c0c09196e" y="190.4256"/>
      </g>
     </g>
     <g id="text_8">
      <!-- 0.4 -->
      <g transform="translate(25.155 196.50435)scale(0.16 -0.16)">
       <use xlink:href="#DejaVuSans-30"/>
       <use x="63.623047" xlink:href="#DejaVuSans-2e"/>
       <use x="95.410156" xlink:href="#DejaVuSans-34"/>
      </g>
     </g>
    </g>
    <g id="ytick_4">
     <g id="line2d_27">
      <path clip-path="url(#pc98bdbf042)" d="M 57.6 136.1664 
L 360.8064 136.1664 
" style="fill:none;stroke:#b0b0b0;stroke-linecap:square;stroke-width:0.8;"/>
     </g>
     <g id="line2d_28">
      <g>
       <use style="stroke:#000000;stroke-width:0.8;" x="57.6" xlink:href="#m0c0c09196e" y="136.1664"/>
      </g>
     </g>
     <g id="text_9">
      <!-- 0.6 -->
      <g transform="translate(25.155 142.24515)scale(0.16 -0.16)">
       <use xlink:href="#DejaVuSans-30"/>
       <use x="63.623047" xlink:href="#DejaVuSans-2e"/>
       <use x="95.410156" xlink:href="#DejaVuSans-36"/>
      </g>
     </g>
    </g>
    <g id="ytick_5">
     <g id="line2d_29">
      <path clip-path="url(#pc98bdbf042)" d="M 57.6 81.9072 
L 360.8064 81.9072 
" style="fill:none;stroke:#b0b0b0;stroke-linecap:square;stroke-width:0.8;"/>
     </g>
     <g id="line2d_30">
      <g>
       <use style="stroke:#000000;stroke-width:0.8;" x="57.6" xlink:href="#m0c0c09196e" y="81.9072"/>
      </g>
     </g>
     <g id="text_10">
      <!-- 0.8 -->
      <g transform="translate(25.155 87.98595)scale(0.16 -0.16)">
       <defs>
        <path d="M 2034 2216 
Q 1584 2216 1326 1975 
Q 1069 1734 1069 1313 
Q 1069 891 1326 650 
Q 1584 409 2034 409 
Q 2484 409 2743 651 
Q 3003 894 3003 1313 
Q 3003 1734 2745 1975 
Q 2488 2216 2034 2216 
z
M 1403 2484 
Q 997 2584 770 2862 
Q 544 3141 544 3541 
Q 544 4100 942 4425 
Q 1341 4750 2034 4750 
Q 2731 4750 3128 4425 
Q 3525 4100 3525 3541 
Q 3525 3141 3298 2862 
Q 3072 2584 2669 2484 
Q 3125 2378 3379 2068 
Q 3634 1759 3634 1313 
Q 3634 634 3220 271 
Q 2806 -91 2034 -91 
Q 1263 -91 848 271 
Q 434 634 434 1313 
Q 434 1759 690 2068 
Q 947 2378 1403 2484 
z
M 1172 3481 
Q 1172 3119 1398 2916 
Q 1625 2713 2034 2713 
Q 2441 2713 2670 2916 
Q 2900 3119 2900 3481 
Q 2900 3844 2670 4047 
Q 2441 4250 2034 4250 
Q 1625 4250 1398 4047 
Q 1172 3844 1172 3481 
z
" id="DejaVuSans-38" transform="scale(0.015625)"/>
       </defs>
       <use xlink:href="#DejaVuSans-30"/>
       <use x="63.623047" xlink:href="#DejaVuSans-2e"/>
       <use x="95.410156" xlink:href="#DejaVuSans-38"/>
      </g>
     </g>
    </g>
    <g id="ytick_6">
     <g id="line2d_31">
      <path clip-path="url(#pc98bdbf042)" d="M 57.6 27.648 
L 360.8064 27.648 
" style="fill:none;stroke:#b0b0b0;stroke-linecap:square;stroke-width:0.8;"/>
     </g>
     <g id="line2d_32">
      <g>
       <use style="stroke:#000000;stroke-width:0.8;" x="57.6" xlink:href="#m0c0c09196e" y="27.648"/>
      </g>
     </g>
     <g id="text_11">
      <!-- 1.0 -->
      <g transform="translate(25.155 33.72675)scale(0.16 -0.16)">
       <use xlink:href="#DejaVuSans-31"/>
       <use x="63.623047" xlink:href="#DejaVuSans-2e"/>
       <use x="95.410156" xlink:href="#DejaVuSans-30"/>
      </g>
     </g>
    </g>
    <g id="text_12">
     <!-- Fraction of function,target pairs -->
     <g transform="translate(17.619531 297.681)rotate(-90)scale(0.17 -0.17)">
      <defs>
       <path d="M 628 4666 
L 3309 4666 
L 3309 4134 
L 1259 4134 
L 1259 2759 
L 3109 2759 
L 3109 2228 
L 1259 2228 
L 1259 0 
L 628 0 
L 628 4666 
z
" id="DejaVuSans-46" transform="scale(0.015625)"/>
       <path d="M 2631 2963 
Q 2534 3019 2420 3045 
Q 2306 3072 2169 3072 
Q 1681 3072 1420 2755 
Q 1159 2438 1159 1844 
L 1159 0 
L 581 0 
L 581 3500 
L 1159 3500 
L 1159 2956 
Q 1341 3275 1631 3429 
Q 1922 3584 2338 3584 
Q 2397 3584 2469 3576 
Q 2541 3569 2628 3553 
L 2631 2963 
z
" id="DejaVuSans-72" transform="scale(0.015625)"/>
       <path d="M 3122 3366 
L 3122 2828 
Q 2878 2963 2633 3030 
Q 2388 3097 2138 3097 
Q 1578 3097 1268 2742 
Q 959 2388 959 1747 
Q 959 1106 1268 751 
Q 1578 397 2138 397 
Q 2388 397 2633 464 
Q 2878 531 3122 666 
L 3122 134 
Q 2881 22 2623 -34 
Q 2366 -91 2075 -91 
Q 1284 -91 818 406 
Q 353 903 353 1747 
Q 353 2603 823 3093 
Q 1294 3584 2113 3584 
Q 2378 3584 2631 3529 
Q 2884 3475 3122 3366 
z
" id="DejaVuSans-63" transform="scale(0.015625)"/>
       <path d="M 1172 4494 
L 1172 3500 
L 2356 3500 
L 2356 3053 
L 1172 3053 
L 1172 1153 
Q 1172 725 1289 603 
Q 1406 481 1766 481 
L 2356 481 
L 2356 0 
L 1766 0 
Q 1100 0 847 248 
Q 594 497 594 1153 
L 594 3053 
L 172 3053 
L 172 3500 
L 594 3500 
L 594 4494 
L 1172 4494 
z
" id="DejaVuSans-74" transform="scale(0.015625)"/>
       <path d="M 544 1381 
L 544 3500 
L 1119 3500 
L 1119 1403 
Q 1119 906 1312 657 
Q 1506 409 1894 409 
Q 2359 409 2629 706 
Q 2900 1003 2900 1516 
L 2900 3500 
L 3475 3500 
L 3475 0 
L 2900 0 
L 2900 538 
Q 2691 219 2414 64 
Q 2138 -91 1772 -91 
Q 1169 -91 856 284 
Q 544 659 544 1381 
z
M 1991 3584 
L 1991 3584 
z
" id="DejaVuSans-75" transform="scale(0.015625)"/>
       <path d="M 750 794 
L 1409 794 
L 1409 256 
L 897 -744 
L 494 -744 
L 750 256 
L 750 794 
z
" id="DejaVuSans-2c" transform="scale(0.015625)"/>
       <path d="M 1159 525 
L 1159 -1331 
L 581 -1331 
L 581 3500 
L 1159 3500 
L 1159 2969 
Q 1341 3281 1617 3432 
Q 1894 3584 2278 3584 
Q 2916 3584 3314 3078 
Q 3713 2572 3713 1747 
Q 3713 922 3314 415 
Q 2916 -91 2278 -91 
Q 1894 -91 1617 61 
Q 1341 213 1159 525 
z
M 3116 1747 
Q 3116 2381 2855 2742 
Q 2594 3103 2138 3103 
Q 1681 3103 1420 2742 
Q 1159 2381 1159 1747 
Q 1159 1113 1420 752 
Q 1681 391 2138 391 
Q 2594 391 2855 752 
Q 3116 1113 3116 1747 
z
" id="DejaVuSans-70" transform="scale(0.015625)"/>
      </defs>
      <use xlink:href="#DejaVuSans-46"/>
      <use x="50.269531" xlink:href="#DejaVuSans-72"/>
      <use x="91.382812" xlink:href="#DejaVuSans-61"/>
      <use x="152.662109" xlink:href="#DejaVuSans-63"/>
      <use x="207.642578" xlink:href="#DejaVuSans-74"/>
      <use x="246.851562" xlink:href="#DejaVuSans-69"/>
      <use x="274.634766" xlink:href="#DejaVuSans-6f"/>
      <use x="335.816406" xlink:href="#DejaVuSans-6e"/>
      <use x="399.195312" xlink:href="#DejaVuSans-20"/>
      <use x="430.982422" xlink:href="#DejaVuSans-6f"/>
      <use x="492.164062" xlink:href="#DejaVuSans-66"/>
      <use x="527.369141" xlink:href="#DejaVuSans-20"/>
      <use x="559.15625" xlink:href="#DejaVuSans-66"/>
      <use x="594.361328" xlink:href="#DejaVuSans-75"/>
      <use x="657.740234" xlink:href="#DejaVuSans-6e"/>
      <use x="721.119141" xlink:href="#DejaVuSans-63"/>
      <use x="776.099609" xlink:href="#DejaVuSans-74"/>
      <use x="815.308594" xlink:href="#DejaVuSans-69"/>
      <use x="843.091797" xlink:href="#DejaVuSans-6f"/>
      <use x="904.273438" xlink:href="#DejaVuSans-6e"/>
      <use x="967.652344" xlink:href="#DejaVuSans-2c"/>
      <use x="999.439453" xlink:href="#DejaVuSans-74"/>
      <use x="1038.648438" xlink:href="#DejaVuSans-61"/>
      <use x="1099.927734" xlink:href="#DejaVuSans-72"/>
      <use x="1139.291016" xlink:href="#DejaVuSans-67"/>
      <use x="1202.767578" xlink:href="#DejaVuSans-65"/>
      <use x="1264.291016" xlink:href="#DejaVuSans-74"/>
      <use x="1303.5" xlink:href="#DejaVuSans-20"/>
      <use x="1335.287109" xlink:href="#DejaVuSans-70"/>
      <use x="1398.763672" xlink:href="#DejaVuSans-61"/>
      <use x="1460.042969" xlink:href="#DejaVuSans-69"/>
      <use x="1487.826172" xlink:href="#DejaVuSans-72"/>
      <use x="1528.939453" xlink:href="#DejaVuSans-73"/>
     </g>
    </g>
   </g>
   <g id="line2d_33">
    <defs>
     <path d="M 0 1.5 
C 0.397805 1.5 0.77937 1.341951 1.06066 1.06066 
C 1.341951 0.77937 1.5 0.397805 1.5 0 
C 1.5 -0.397805 1.341951 -0.77937 1.06066 -1.06066 
C 0.77937 -1.341951 0.397805 -1.5 0 -1.5 
C -0.397805 -1.5 -0.77937 -1.341951 -1.06066 -1.06066 
C -1.341951 -0.77937 -1.5 -0.397805 -1.5 0 
C -1.5 0.397805 -1.341951 0.77937 -1.06066 1.06066 
C -0.77937 1.341951 -0.397805 1.5 0 1.5 
z
" id="m0c1381a5c5" style="stroke:#f5deb3;"/>
    </defs>
    <g>
     <use style="fill:#f5deb3;stroke:#f5deb3;" x="196.977358" xlink:href="#m0c1381a5c5" y="27.648"/>
     <use style="fill:#f5deb3;stroke:#f5deb3;" x="196.977358" xlink:href="#m0c1381a5c5" y="27.648"/>
    </g>
   </g>
   <g id="line2d_34">
    <defs>
     <path d="M 0 1.5 
C 0.397805 1.5 0.77937 1.341951 1.06066 1.06066 
C 1.341951 0.77937 1.5 0.397805 1.5 0 
C 1.5 -0.397805 1.341951 -0.77937 1.06066 -1.06066 
C 0.77937 -1.341951 0.397805 -1.5 0 -1.5 
C -0.397805 -1.5 -0.77937 -1.341951 -1.06066 -1.06066 
C -1.341951 -0.77937 -1.5 -0.397805 -1.5 0 
C -1.5 0.397805 -1.341951 0.77937 -1.06066 1.06066 
C -0.77937 1.341951 -0.397805 1.5 0 1.5 
z
" id="mb1fb5bece5" style="stroke:#000080;"/>
    </defs>
    <g>
     <use style="fill:#000080;stroke:#000080;" x="308.535772" xlink:href="#mb1fb5bece5" y="27.648"/>
     <use style="fill:#000080;stroke:#000080;" x="308.535772" xlink:href="#mb1fb5bece5" y="27.648"/>
    </g>
   </g>
   <g id="line2d_35">
    <path d="M 27.323974 298.944 
L 27.323974 284.758588 
L 40.363149 284.758588 
L 40.363149 278.375153 
L 47.990577 278.375153 
L 47.990577 274.119529 
L 53.402323 274.119529 
L 53.402323 273.764894 
L 57.6 273.764894 
L 57.6 273.055624 
L 61.029752 273.055624 
L 61.029752 272.346353 
L 66.441498 272.346353 
L 66.441498 271.637082 
L 68.65718 271.637082 
L 68.65718 270.927812 
L 74.068926 270.927812 
L 74.068926 270.573176 
L 75.574654 270.573176 
L 75.574654 269.863906 
L 76.96874 269.863906 
L 76.96874 269.509271 
L 79.480672 269.509271 
L 79.480672 269.154635 
L 81.696354 269.154635 
L 81.696354 268.445365 
L 83.678349 268.445365 
L 83.678349 268.090729 
L 89.323782 268.090729 
L 89.323782 267.381459 
L 96.241256 267.381459 
L 96.241256 267.026824 
L 105.26277 267.026824 
L 105.26277 266.672188 
L 108.034177 266.672188 
L 108.034177 266.317553 
L 109.037698 266.317553 
L 109.037698 265.962918 
L 114.141556 265.962918 
L 114.141556 265.253647 
L 115.917548 265.253647 
L 115.917548 264.899012 
L 116.253478 264.899012 
L 116.253478 264.544376 
L 116.583514 264.544376 
L 116.583514 264.189741 
L 117.226706 264.189741 
L 117.226706 263.835106 
L 118.450653 263.835106 
L 118.450653 263.480471 
L 119.319033 263.480471 
L 119.319033 263.125835 
L 121.706797 263.125835 
L 121.706797 262.7712 
L 121.954321 262.7712 
L 121.954321 262.416565 
L 123.145323 262.416565 
L 123.145323 262.061929 
L 125.322496 262.061929 
L 125.322496 261.707294 
L 126.709238 261.707294 
L 126.709238 261.352659 
L 127.087372 261.352659 
L 127.087372 260.998024 
L 130.344755 260.998024 
L 130.344755 260.643388 
L 132.287354 260.643388 
L 132.287354 260.288753 
L 132.708526 260.288753 
L 132.708526 259.579482 
L 137.998402 259.579482 
L 137.998402 259.224847 
L 138.616919 259.224847 
L 138.718057 258.515576 
L 140.451292 258.515576 
L 140.451292 258.160941 
L 140.725251 258.160941 
L 140.725251 257.451671 
L 142.620923 257.451671 
L 142.620923 257.097035 
L 143.265494 257.097035 
L 143.344534 256.387765 
L 144.342932 256.387765 
L 144.342932 256.033129 
L 144.786447 256.033129 
L 144.786447 255.678494 
L 148.367783 255.678494 
L 148.367783 255.323859 
L 149.078856 255.323859 
L 149.078856 254.969224 
L 149.252502 254.969224 
L 149.252502 254.614588 
L 149.764026 254.614588 
L 149.764026 253.550682 
L 151.426526 253.550682 
L 151.426526 253.196047 
L 153.375128 253.196047 
L 153.375128 252.841412 
L 154.14583 252.841412 
L 154.234459 252.132141 
L 154.454223 252.132141 
L 154.454223 251.777506 
L 154.843441 251.777506 
L 154.843441 251.422871 
L 155.22477 251.422871 
L 155.22477 251.068235 
L 157.137431 251.068235 
L 157.137431 250.7136 
L 157.250754 250.7136 
L 157.250754 250.358965 
L 157.843876 250.358965 
L 157.843876 250.004329 
L 158.595008 250.004329 
L 158.630038 248.940424 
L 159.717911 248.940424 
L 159.717911 248.585788 
L 162.015991 248.585788 
L 162.015991 248.231153 
L 162.219518 248.231153 
L 162.219518 247.876518 
L 162.956765 247.876518 
L 162.956765 247.521882 
L 163.232801 247.521882 
L 163.287526 246.812612 
L 163.719684 246.812612 
L 163.719684 246.457976 
L 163.932096 246.457976 
L 163.932096 246.103341 
L 164.246284 246.103341 
L 164.246284 245.748706 
L 164.401432 245.748706 
L 164.401432 245.394071 
L 164.606324 245.394071 
L 164.606324 245.039435 
L 165.790918 245.039435 
L 165.790918 244.6848 
L 166.333144 244.6848 
L 166.333144 244.330165 
L 166.47206 244.330165 
L 166.47206 243.975529 
L 167.173896 243.975529 
L 167.173896 243.620894 
L 168.23246 243.620894 
L 168.23246 242.911624 
L 168.503585 242.911624 
L 168.606832 242.202353 
L 168.913216 242.202353 
L 168.913216 241.847718 
L 169.214689 241.847718 
L 169.314117 241.138447 
L 169.842126 241.138447 
L 169.842126 240.783812 
L 170.83738 240.783812 
L 170.83738 240.429176 
L 171.037505 240.429176 
L 171.037505 240.074541 
L 173.557354 240.074541 
L 173.667825 239.010635 
L 173.683553 239.010635 
L 173.683553 238.656 
L 173.902386 238.656 
L 173.902386 238.301365 
L 174.134058 238.301365 
L 174.134058 237.946729 
L 174.423472 237.946729 
L 174.423472 237.237459 
L 174.708501 237.237459 
L 174.753113 236.173553 
L 174.842022 236.173553 
L 174.842022 235.818918 
L 175.381197 235.818918 
L 175.381197 235.464282 
L 175.76512 235.464282 
L 175.76512 235.109647 
L 175.933269 235.109647 
L 175.933269 234.400376 
L 177.252974 234.400376 
L 177.252974 234.045741 
L 177.51129 234.045741 
L 177.51129 233.336471 
L 178.46176 233.336471 
L 178.498311 231.917929 
L 178.764203 231.917929 
L 178.764203 231.563294 
L 179.59754 231.563294 
L 179.59754 231.208659 
L 179.84844 231.208659 
L 179.84844 230.499388 
L 180.679474 230.499388 
L 180.744398 229.790118 
L 180.884301 229.790118 
L 180.884301 229.435482 
L 181.620248 229.435482 
L 181.702552 228.371576 
L 182.188953 228.371576 
L 182.238904 227.307671 
L 182.943869 227.307671 
L 182.991858 225.889129 
L 183.192084 225.889129 
L 183.220515 225.179859 
L 183.352626 225.179859 
L 183.352626 224.825224 
L 183.483815 224.825224 
L 183.483815 224.470588 
L 183.632634 224.470588 
L 183.632634 224.115953 
L 183.908536 224.115953 
L 183.908536 223.761318 
L 184.448488 223.761318 
L 184.554643 223.052047 
L 184.878235 223.052047 
L 184.878235 222.697412 
L 185.221913 222.697412 
L 185.221913 221.988141 
L 185.767335 221.988141 
L 185.79213 220.924235 
L 186.200649 220.924235 
L 186.200649 220.5696 
L 186.369616 220.5696 
L 186.369616 220.214965 
L 186.968736 220.214965 
L 186.968736 219.860329 
L 187.138663 219.860329 
L 187.138663 219.505694 
L 187.951286 219.505694 
L 187.951286 219.151059 
L 188.323154 219.151059 
L 188.388022 218.087153 
L 188.552785 218.087153 
L 188.581293 217.377882 
L 189.25283 217.377882 
L 189.25283 217.023247 
L 189.417035 217.023247 
L 189.525714 216.313976 
L 189.606813 216.313976 
L 189.633768 215.604706 
L 190.19109 215.604706 
L 190.19109 215.250071 
L 190.553671 215.250071 
L 190.553671 214.895435 
L 190.833733 214.895435 
L 190.833733 214.186165 
L 191.072294 214.186165 
L 191.072294 213.831529 
L 191.558774 213.831529 
L 191.558774 213.476894 
L 191.806377 213.476894 
L 191.806377 213.122259 
L 191.955771 213.122259 
L 192.044841 212.412988 
L 192.321227 212.412988 
L 192.321227 212.058353 
L 192.708334 212.058353 
L 192.708334 211.703718 
L 192.986482 211.703718 
L 192.986482 211.349082 
L 193.10444 211.349082 
L 193.10444 210.994447 
L 193.40441 210.994447 
L 193.514306 209.930541 
L 193.786272 209.930541 
L 193.786272 209.575906 
L 194.334427 209.575906 
L 194.334427 209.221271 
L 195.160483 209.221271 
L 195.160483 208.866635 
L 195.345303 208.866635 
L 195.449399 207.802729 
L 195.567664 207.802729 
L 195.641205 207.093459 
L 196.252586 207.093459 
L 196.252586 206.738824 
L 197.041057 206.738824 
L 197.045598 206.029553 
L 197.181341 206.029553 
L 197.284751 204.611012 
L 197.648871 204.611012 
L 197.70157 203.547106 
L 198.113645 203.547106 
L 198.117935 202.837835 
L 198.554644 202.837835 
L 198.554644 202.4832 
L 198.882858 202.4832 
L 198.973248 201.064659 
L 199.103956 201.064659 
L 199.103956 200.710024 
L 199.266073 200.710024 
L 199.318462 200.000753 
L 199.462781 200.000753 
L 199.470766 199.291482 
L 199.716647 199.291482 
L 199.752073 198.227576 
L 200.02536 198.227576 
L 200.122008 197.518306 
L 200.661744 197.518306 
L 200.661744 197.163671 
L 200.933302 197.163671 
L 200.933302 196.809035 
L 201.211915 196.809035 
L 201.211915 196.099765 
L 201.890913 196.099765 
L 201.978457 195.390494 
L 202.10381 195.390494 
L 202.10381 195.035859 
L 202.259336 195.035859 
L 202.259336 193.971953 
L 202.416999 193.971953 
L 202.457912 192.553412 
L 202.610549 192.553412 
L 202.671259 191.844141 
L 202.868889 191.844141 
L 202.868889 191.489506 
L 203.077651 191.489506 
L 203.077651 191.134871 
L 203.41081 191.134871 
L 203.41081 190.780235 
L 203.67443 190.780235 
L 203.67443 190.070965 
L 203.912353 190.070965 
L 203.975294 189.361694 
L 204.345502 189.361694 
L 204.363977 188.652424 
L 204.48362 188.652424 
L 204.48362 188.297788 
L 205.058822 188.297788 
L 205.058822 187.588518 
L 205.206538 187.588518 
L 205.206538 187.233882 
L 205.38228 187.233882 
L 205.38228 186.879247 
L 205.70027 186.879247 
L 205.70027 186.524612 
L 205.996051 186.524612 
L 205.996051 186.169976 
L 206.195339 186.169976 
L 206.195339 185.815341 
L 206.497239 185.815341 
L 206.582223 185.106071 
L 206.691315 185.106071 
L 206.729348 184.042165 
L 207.089544 184.042165 
L 207.187797 182.623624 
L 207.319762 182.623624 
L 207.353922 181.914353 
L 207.549796 181.914353 
L 207.604277 180.850447 
L 207.894759 180.850447 
L 207.894759 180.495812 
L 208.049724 180.495812 
L 208.153167 179.431906 
L 208.273553 179.431906 
L 208.358363 178.368 
L 208.56873 178.368 
L 208.56873 178.013365 
L 208.92708 178.013365 
L 209.001786 176.949459 
L 209.119269 176.949459 
L 209.224142 175.176282 
L 209.233647 175.176282 
L 209.233647 174.467012 
L 209.368574 174.467012 
L 209.368574 174.112376 
L 209.537636 174.112376 
L 209.537636 173.757741 
L 209.66112 173.757741 
L 209.723717 173.048471 
L 209.93546 173.048471 
L 209.93546 172.3392 
L 210.081367 172.3392 
L 210.081367 171.984565 
L 210.228403 171.984565 
L 210.228403 171.629929 
L 210.525728 171.629929 
L 210.565609 170.920659 
L 210.728681 170.920659 
L 210.783455 170.211388 
L 210.886 170.211388 
L 210.990153 169.502118 
L 211.024743 169.502118 
L 211.024743 169.147482 
L 211.239502 169.147482 
L 211.30771 168.438212 
L 211.377791 168.438212 
L 211.418023 167.728941 
L 211.49191 167.728941 
L 211.49191 167.374306 
L 211.628363 167.374306 
L 211.628363 167.019671 
L 211.792884 167.019671 
L 211.792884 166.665035 
L 211.96009 166.665035 
L 211.96009 166.3104 
L 212.095242 166.3104 
L 212.095242 165.955765 
L 212.328437 165.955765 
L 212.434945 164.537224 
L 212.448967 164.537224 
L 212.456974 163.827953 
L 212.596564 163.827953 
L 212.646167 163.118682 
L 212.90788 163.118682 
L 212.913742 162.409412 
L 213.106154 162.409412 
L 213.106154 162.054776 
L 213.287045 162.054776 
L 213.344412 161.345506 
L 213.452929 161.345506 
L 213.511686 160.636235 
L 213.67561 160.636235 
L 213.67561 160.2816 
L 213.954925 160.2816 
L 213.986321 159.217694 
L 214.072849 159.217694 
L 214.072849 158.863059 
L 214.233797 158.863059 
L 214.295614 156.735247 
L 214.402406 156.735247 
L 214.481654 156.025976 
L 214.548037 156.025976 
L 214.649847 155.316706 
L 214.733383 155.316706 
L 214.790047 153.543529 
L 214.962526 153.543529 
L 215.058637 152.834259 
L 215.093466 152.834259 
L 215.131702 152.124988 
L 215.309693 152.124988 
L 215.345776 151.415718 
L 215.429703 151.415718 
L 215.429703 151.061082 
L 215.606602 151.061082 
L 215.711275 149.287906 
L 216.018532 149.287906 
L 216.097868 148.578635 
L 216.211329 148.578635 
L 216.255542 147.869365 
L 216.343656 147.869365 
L 216.381061 147.160094 
L 216.486371 147.160094 
L 216.550885 146.450824 
L 216.60876 146.450824 
L 216.60876 146.096188 
L 216.73833 146.096188 
L 216.836907 145.032282 
L 216.96177 145.032282 
L 217.056052 143.968376 
L 217.099889 143.968376 
L 217.099889 143.613741 
L 217.257172 143.613741 
L 217.362329 142.1952 
L 217.468436 142.1952 
L 217.511323 141.131294 
L 217.681902 141.131294 
L 217.681902 140.776659 
L 217.849446 140.776659 
L 217.916946 139.358118 
L 218.103186 139.358118 
L 218.107633 138.648847 
L 218.335985 138.648847 
L 218.365249 137.230306 
L 218.500731 137.230306 
L 218.522492 136.1664 
L 218.687057 136.1664 
L 218.687057 135.811765 
L 218.853045 135.811765 
L 218.958173 135.102494 
L 218.980827 135.102494 
L 218.980827 134.747859 
L 219.180689 134.747859 
L 219.21426 134.038588 
L 219.379836 134.038588 
L 219.466908 132.620047 
L 219.502725 132.620047 
L 219.607032 130.846871 
L 219.658969 130.846871 
L 219.682158 129.782965 
L 220.011874 129.782965 
L 220.011874 129.428329 
L 220.14003 129.428329 
L 220.14003 129.073694 
L 220.299007 129.073694 
L 220.374054 128.009788 
L 220.422608 128.009788 
L 220.488024 127.300518 
L 220.681624 127.300518 
L 220.681624 126.945882 
L 220.962609 126.945882 
L 221.052811 125.172706 
L 221.184163 125.172706 
L 221.249496 124.1088 
L 221.477631 124.1088 
L 221.585126 123.044894 
L 221.736061 123.044894 
L 221.805598 122.335624 
L 222.159041 122.335624 
L 222.234177 121.626353 
L 222.340997 121.626353 
L 222.420127 120.562447 
L 222.476613 120.562447 
L 222.563364 119.498541 
L 222.770413 119.498541 
L 222.800466 118.434635 
L 222.970629 118.434635 
L 223.071083 116.661459 
L 223.133595 116.661459 
L 223.204945 115.952188 
L 223.356933 115.952188 
L 223.458696 113.824376 
L 223.49769 113.824376 
L 223.49769 113.469741 
L 223.716772 113.469741 
L 223.791428 112.760471 
L 223.895232 112.760471 
L 223.939856 111.341929 
L 224.04609 111.341929 
L 224.054736 110.632659 
L 224.246084 110.632659 
L 224.331453 109.214118 
L 224.359114 109.214118 
L 224.428091 108.504847 
L 224.483091 108.504847 
L 224.565291 107.795576 
L 224.678516 107.795576 
L 224.678516 107.440941 
L 224.80145 107.440941 
L 224.88951 106.377035 
L 225.007997 106.377035 
L 225.104296 105.667765 
L 225.131865 105.667765 
L 225.182813 103.894588 
L 225.279236 103.894588 
L 225.385237 102.830682 
L 225.404354 102.830682 
L 225.511655 101.766776 
L 225.528646 101.766776 
L 225.567569 101.057506 
L 225.686828 101.057506 
L 225.767888 100.348235 
L 225.818129 100.348235 
L 225.87216 99.284329 
L 225.939725 99.284329 
L 225.939725 98.575059 
L 226.130337 98.575059 
L 226.241283 97.156518 
L 226.254744 97.156518 
L 226.356359 96.092612 
L 226.414587 96.092612 
L 226.414587 95.737976 
L 226.619336 95.737976 
L 226.619336 95.383341 
L 233.331914 95.383341 
L 233.331914 95.028706 
L 233.801095 95.028706 
L 233.801095 94.674071 
L 234.061226 94.674071 
L 234.125859 93.9648 
L 234.407758 93.9648 
L 234.407758 93.610165 
L 234.523309 93.610165 
L 234.523309 92.900894 
L 234.673825 92.900894 
L 234.673825 92.546259 
L 234.81278 92.546259 
L 234.875494 91.836988 
L 235.129075 91.836988 
L 235.129075 91.482353 
L 235.429519 91.482353 
L 235.429519 91.127718 
L 235.683361 91.127718 
L 235.683361 90.773082 
L 235.812768 90.773082 
L 235.812768 89.709176 
L 236.012951 89.709176 
L 236.012951 89.354541 
L 236.41656 89.354541 
L 236.45181 88.645271 
L 236.539368 88.645271 
L 236.539368 88.290635 
L 236.953739 88.290635 
L 236.953739 87.936 
L 237.293011 87.936 
L 237.293011 87.581365 
L 237.435196 87.581365 
L 237.435196 87.226729 
L 237.623121 87.226729 
L 237.705405 86.162824 
L 237.951667 86.162824 
L 238.057696 85.098918 
L 238.161089 85.098918 
L 238.161089 84.389647 
L 238.39343 84.389647 
L 238.448305 82.971106 
L 238.537575 82.971106 
L 238.590535 82.261835 
L 238.981587 82.261835 
L 239.0883 80.843294 
L 239.140218 80.843294 
L 239.167334 79.424753 
L 239.26482 79.424753 
L 239.315774 78.360847 
L 239.44256 78.360847 
L 239.44256 78.006212 
L 239.554282 78.006212 
L 239.583174 77.296941 
L 239.685124 77.296941 
L 239.685124 76.942306 
L 244.095907 76.942306 
L 244.095907 76.587671 
L 244.636149 76.587671 
L 244.636149 75.523765 
L 244.831583 75.523765 
L 244.831583 74.814494 
L 244.948659 74.814494 
L 244.955775 73.395953 
L 245.284746 73.395953 
L 245.284746 71.977412 
L 245.699233 71.977412 
L 245.699233 71.622776 
L 246.190586 71.622776 
L 246.190586 71.268141 
L 246.319717 71.268141 
L 246.319717 70.913506 
L 246.506362 70.913506 
L 246.506362 70.558871 
L 246.66261 70.558871 
L 246.69766 69.8496 
L 246.839465 69.8496 
L 246.842361 68.785694 
L 246.960076 68.785694 
L 247.070067 68.076424 
L 247.16013 68.076424 
L 247.253542 67.012518 
L 250.334991 67.012518 
L 250.372367 66.303247 
L 250.693915 66.303247 
L 250.693915 65.948612 
L 250.84433 65.948612 
L 250.947047 64.884706 
L 251.357459 64.884706 
L 251.357459 64.530071 
L 251.580376 64.530071 
L 251.647039 63.466165 
L 251.84858 63.466165 
L 251.84858 62.756894 
L 251.997414 62.756894 
L 251.997414 62.402259 
L 252.319511 62.402259 
L 252.379535 61.692988 
L 252.441757 61.692988 
L 252.528762 59.919812 
L 255.139057 59.919812 
L 255.139057 59.565176 
L 255.551009 59.565176 
L 255.551009 59.210541 
L 255.971569 59.210541 
L 255.971569 58.855906 
L 256.432276 58.855906 
L 256.520578 58.146635 
L 256.545567 58.146635 
L 256.545567 57.792 
L 256.678028 57.792 
L 256.771072 56.728094 
L 259.00466 56.728094 
L 259.00466 56.373459 
L 259.128978 56.373459 
L 259.166281 54.245647 
L 259.781607 54.245647 
L 259.875502 53.536376 
L 260.060303 53.536376 
L 260.091829 52.827106 
L 260.295943 52.827106 
L 260.295943 52.472471 
L 262.212428 52.472471 
L 262.268627 51.053929 
L 264.86092 51.053929 
L 264.888433 49.635388 
L 265.52371 49.635388 
L 265.621429 48.216847 
L 265.648799 48.216847 
L 265.723125 47.152941 
L 267.206455 47.152941 
L 267.225301 46.089035 
L 267.79433 46.089035 
L 267.880228 44.670494 
L 269.248131 44.670494 
L 269.286812 43.606588 
L 269.874811 43.606588 
L 269.899196 42.897318 
L 271.129254 42.897318 
L 271.129254 42.188047 
L 272.727107 42.188047 
L 272.727107 41.833412 
L 274.373497 41.833412 
L 274.373497 40.769506 
L 275.807385 40.769506 
L 275.819317 40.060235 
L 277.125336 40.060235 
L 277.139675 38.996329 
L 279.550755 38.996329 
L 279.560535 37.932424 
L 280.649513 37.932424 
L 280.649513 36.868518 
L 281.68762 36.868518 
L 281.69635 36.159247 
L 282.645394 36.159247 
L 282.679708 34.386071 
L 283.606322 34.386071 
L 283.614206 33.6768 
L 284.50447 33.6768 
L 284.50447 33.322165 
L 285.347311 33.322165 
L 285.347311 32.612894 
L 287.681351 32.612894 
L 287.695879 31.903624 
L 288.415772 31.903624 
L 288.415772 31.548988 
L 293.351836 31.548988 
L 293.351836 31.194353 
L 293.881537 31.194353 
L 293.881537 30.839718 
L 294.408182 30.839718 
L 294.408182 30.485082 
L 295.889176 30.485082 
L 295.889176 30.130447 
L 296.352856 30.130447 
L 296.352856 29.775812 
L 296.819363 29.775812 
L 296.819363 29.421176 
L 297.701987 29.421176 
L 297.701987 29.066541 
L 302.600929 29.066541 
L 302.600929 28.711906 
L 303.888634 28.711906 
L 303.888634 28.357271 
L 304.196393 28.357271 
L 304.196393 28.002635 
L 308.535772 28.002635 
L 308.535772 27.648 
L 360.8064 27.648 
L 360.8064 27.648 
" style="fill:none;stroke:#000080;stroke-linecap:square;stroke-width:1.5;"/>
   </g>
   <g id="line2d_36">
    <defs>
     <path d="M 0 6 
C 1.591219 6 3.117479 5.367802 4.242641 4.242641 
C 5.367802 3.117479 6 1.591219 6 0 
C 6 -1.591219 5.367802 -3.117479 4.242641 -4.242641 
C 3.117479 -5.367802 1.591219 -6 0 -6 
C -1.591219 -6 -3.117479 -5.367802 -4.242641 -4.242641 
C -5.367802 -3.117479 -6 -1.591219 -6 0 
C -6 1.591219 -5.367802 3.117479 -4.242641 4.242641 
C -3.117479 5.367802 -1.591219 6 0 6 
z
" id="m06d633ba0f" style="stroke:#000080;stroke-width:1.5;"/>
    </defs>
    <g>
     <use style="fill-opacity:0;stroke:#000080;stroke-width:1.5;" x="144.786447" xlink:href="#m06d633ba0f" y="255.678494"/>
     <use style="fill-opacity:0;stroke:#000080;stroke-width:1.5;" x="204.48362" xlink:href="#m06d633ba0f" y="188.652424"/>
     <use style="fill-opacity:0;stroke:#000080;stroke-width:1.5;" x="255.551009" xlink:href="#m06d633ba0f" y="59.565176"/>
     <use style="fill-opacity:0;stroke:#000080;stroke-width:1.5;" x="308.535772" xlink:href="#m06d633ba0f" y="27.648"/>
     <use style="fill-opacity:0;stroke:#000080;stroke-width:1.5;" x="308.535772" xlink:href="#m06d633ba0f" y="27.648"/>
     <use style="fill-opacity:0;stroke:#000080;stroke-width:1.5;" x="360.8064" xlink:href="#m06d633ba0f" y="27.648"/>
    </g>
   </g>
   <g id="line2d_37">
    <path style="fill:none;stroke:#000080;stroke-linecap:square;stroke-width:1.5;"/>
    <g/>
   </g>
   <g id="line2d_38">
    <path clip-path="url(#pc98bdbf042)" d="M 226.672527 95.383341 
" style="fill:none;stroke:#000080;stroke-linecap:square;stroke-width:1.5;"/>
    <defs>
     <path d="M -12 12 
L 12 -12 
M -12 -12 
L 12 12 
" id="ma0e7cabdbb" style="stroke:#000080;"/>
    </defs>
    <g clip-path="url(#pc98bdbf042)">
     <use style="fill:#000080;stroke:#000080;" x="226.672527" xlink:href="#ma0e7cabdbb" y="95.383341"/>
    </g>
   </g>
   <g id="line2d_39">
    <defs>
     <path d="M 0 1.5 
C 0.397805 1.5 0.77937 1.341951 1.06066 1.06066 
C 1.341951 0.77937 1.5 0.397805 1.5 0 
C 1.5 -0.397805 1.341951 -0.77937 1.06066 -1.06066 
C 0.77937 -1.341951 0.397805 -1.5 0 -1.5 
C -0.397805 -1.5 -0.77937 -1.341951 -1.06066 -1.06066 
C -1.341951 -0.77937 -1.5 -0.397805 -1.5 0 
C -1.5 0.397805 -1.341951 0.77937 -1.06066 1.06066 
C -0.77937 1.341951 -0.397805 1.5 0 1.5 
z
" id="m2b216b3110" style="stroke:#ff00ff;"/>
    </defs>
    <g>
     <use style="fill:#ff00ff;stroke:#ff00ff;" x="312.155479" xlink:href="#m2b216b3110" y="27.648"/>
     <use style="fill:#ff00ff;stroke:#ff00ff;" x="312.155479" xlink:href="#m2b216b3110" y="27.648"/>
    </g>
   </g>
   <g id="line2d_40">
    <path d="M 27.323974 298.944 
L 27.323974 276.601976 
L 40.363149 276.601976 
L 40.363149 272.700988 
L 47.990577 272.700988 
L 47.990577 271.282447 
L 53.402323 271.282447 
L 53.402323 269.863906 
L 61.029752 269.863906 
L 61.029752 268.8 
L 63.929565 268.8 
L 63.929565 268.090729 
L 66.441498 268.090729 
L 66.441498 266.672188 
L 68.65718 266.672188 
L 68.65718 266.317553 
L 70.639174 266.317553 
L 70.639174 265.608282 
L 72.432107 265.608282 
L 72.432107 264.899012 
L 76.96874 264.899012 
L 76.96874 264.544376 
L 81.696354 264.544376 
L 81.696354 264.189741 
L 82.713442 264.189741 
L 82.713442 263.480471 
L 84.596168 263.480471 
L 84.596168 262.7712 
L 86.307488 262.7712 
L 86.307488 262.416565 
L 88.613828 262.416565 
L 88.613828 261.352659 
L 90.668036 261.352659 
L 90.668036 260.998024 
L 91.305777 260.998024 
L 91.305777 260.643388 
L 100.147275 260.643388 
L 100.147275 260.288753 
L 100.9152 260.288753 
L 100.9152 259.934118 
L 102.011329 259.934118 
L 102.011329 259.224847 
L 102.708132 259.224847 
L 102.708132 258.870212 
L 104.028784 258.870212 
L 104.028784 258.515576 
L 106.42077 258.515576 
L 106.42077 258.160941 
L 107.244765 258.160941 
L 107.244765 257.806306 
L 109.037698 257.806306 
L 109.037698 256.387765 
L 109.520071 256.387765 
L 109.520071 255.323859 
L 109.756698 255.323859 
L 109.756698 254.969224 
L 110.897141 254.969224 
L 110.897141 254.614588 
L 111.117162 254.614588 
L 111.117162 253.905318 
L 111.97238 253.905318 
L 111.97238 253.196047 
L 113.765312 253.196047 
L 113.765312 252.841412 
L 114.872193 252.841412 
L 114.872193 252.486776 
L 115.050503 252.486776 
L 115.050503 252.132141 
L 115.917548 252.132141 
L 115.917548 251.068235 
L 117.067958 251.068235 
L 117.067958 250.7136 
L 118.74459 250.7136 
L 118.74459 250.358965 
L 119.459944 250.358965 
L 119.459944 250.004329 
L 119.738639 250.004329 
L 119.738639 249.649694 
L 121.329295 249.649694 
L 121.329295 249.295059 
L 121.830966 249.295059 
L 121.830966 248.940424 
L 122.677931 248.940424 
L 122.677931 248.585788 
L 123.713691 248.585788 
L 123.713691 248.231153 
L 125.729248 248.231153 
L 125.829577 247.167247 
L 125.929373 247.167247 
L 125.929373 246.457976 
L 126.613505 246.457976 
L 126.613505 246.103341 
L 127.18073 246.103341 
L 127.273627 245.394071 
L 127.366067 245.394071 
L 127.366067 245.039435 
L 129.292652 245.039435 
L 129.292652 244.6848 
L 129.54072 244.6848 
L 129.54072 244.330165 
L 129.78556 244.330165 
L 129.86647 243.620894 
L 129.947033 243.620894 
L 129.947033 242.911624 
L 131.783764 242.911624 
L 131.783764 242.556988 
L 132.001241 242.556988 
L 132.001241 241.847718 
L 132.358208 241.847718 
L 132.358208 241.493082 
L 132.56918 241.493082 
L 132.56918 240.783812 
L 132.708526 240.783812 
L 132.777813 239.719906 
L 133.25581 239.719906 
L 133.25581 239.365271 
L 133.72196 239.365271 
L 133.78762 238.656 
L 134.047992 238.656 
L 134.112526 237.946729 
L 135.054871 237.946729 
L 135.054871 237.237459 
L 135.177024 237.237459 
L 135.177024 236.528188 
L 136.527575 236.528188 
L 136.527575 236.173553 
L 137.030737 236.173553 
L 137.030737 235.818918 
L 137.250116 235.818918 
L 137.304564 235.109647 
L 137.466966 235.109647 
L 137.466966 234.755012 
L 137.893309 234.755012 
L 137.893309 233.691106 
L 138.258593 233.691106 
L 138.258593 233.336471 
L 138.515235 233.336471 
L 138.515235 232.981835 
L 138.918715 232.981835 
L 138.918715 232.6272 
L 139.891105 232.6272 
L 139.891105 231.917929 
L 140.032723 231.917929 
L 140.032723 231.563294 
L 140.634374 231.563294 
L 140.679868 230.854024 
L 140.950542 230.854024 
L 141.039908 229.790118 
L 141.436884 229.790118 
L 141.48048 229.080847 
L 141.825656 229.080847 
L 141.825656 228.726212 
L 141.953481 228.726212 
L 141.953481 227.662306 
L 142.331827 227.662306 
L 142.331827 226.953035 
L 142.620923 226.953035 
L 142.620923 226.243765 
L 142.986208 226.243765 
L 142.986208 225.889129 
L 143.579681 225.889129 
L 143.579681 225.534494 
L 143.773417 225.534494 
L 143.773417 225.179859 
L 144.079302 225.179859 
L 144.079302 224.825224 
L 144.267986 224.825224 
L 144.267986 224.470588 
L 144.380294 224.470588 
L 144.380294 224.115953 
L 144.639767 224.115953 
L 144.639767 223.761318 
L 145.397382 223.761318 
L 145.397382 223.406682 
L 145.920443 223.406682 
L 145.954802 222.697412 
L 146.294984 222.697412 
L 146.328666 221.988141 
L 146.595975 221.988141 
L 146.595975 221.633506 
L 146.793994 221.633506 
L 146.826795 220.924235 
L 147.183884 220.924235 
L 147.183884 220.5696 
L 147.660152 220.5696 
L 147.660152 219.860329 
L 147.971093 219.860329 
L 147.971093 219.151059 
L 148.124658 219.151059 
L 148.216198 218.441788 
L 148.518156 218.441788 
L 148.548087 217.023247 
L 148.815343 217.023247 
L 148.815343 216.668612 
L 148.962194 216.668612 
L 148.962194 216.313976 
L 149.42456 216.313976 
L 149.42456 215.959341 
L 149.566749 215.959341 
L 149.566749 215.604706 
L 149.764026 215.604706 
L 149.764026 215.250071 
L 149.903682 215.250071 
L 149.903682 214.895435 
L 150.72052 214.895435 
L 150.8268 213.831529 
L 150.906118 213.831529 
L 150.906118 213.476894 
L 151.731998 213.476894 
L 151.782431 212.767624 
L 151.982822 212.767624 
L 151.982822 212.412988 
L 152.328451 212.412988 
L 152.426047 211.349082 
L 152.523139 211.349082 
L 152.523139 210.639812 
L 152.739781 210.639812 
L 152.739781 210.285176 
L 153.235783 210.285176 
L 153.235783 209.221271 
L 153.375128 209.221271 
L 153.375128 208.866635 
L 153.719042 208.866635 
L 153.8097 208.157365 
L 154.388563 208.157365 
L 154.388563 207.802729 
L 154.606544 207.802729 
L 154.606544 207.448094 
L 154.928852 207.448094 
L 154.928852 207.093459 
L 155.412574 207.093459 
L 155.412574 206.738824 
L 155.924624 206.738824 
L 155.924624 206.384188 
L 156.085579 206.384188 
L 156.165543 205.674918 
L 156.304668 205.674918 
L 156.304668 205.320282 
L 156.501649 205.320282 
L 156.560344 204.611012 
L 157.080512 204.611012 
L 157.080512 204.256376 
L 157.363398 204.256376 
L 157.363398 203.901741 
L 157.642093 203.901741 
L 157.642093 203.547106 
L 158.133569 203.547106 
L 158.133569 203.192471 
L 158.769513 203.192471 
L 158.769513 202.837835 
L 159.045398 202.837835 
L 159.045398 202.4832 
L 159.164837 202.4832 
L 159.164837 202.128565 
L 159.750914 202.128565 
L 159.750914 201.773929 
L 161.839769 201.773929 
L 161.839769 201.419294 
L 162.478002 201.419294 
L 162.577572 200.710024 
L 163.531835 200.710024 
L 163.531835 200.355388 
L 163.839461 200.355388 
L 163.839461 200.000753 
L 169.333939 200.000753 
L 169.333939 199.646118 
L 170.873925 199.646118 
L 170.873925 199.291482 
L 175.171736 199.291482 
L 175.171736 198.936847 
L 176.631594 198.936847 
L 176.631594 198.582212 
L 184.856545 198.582212 
L 184.856545 197.872941 
L 189.814714 197.872941 
L 189.814714 197.518306 
L 190.023641 197.518306 
L 190.13216 196.809035 
L 190.262865 196.809035 
L 190.262865 196.4544 
L 190.687857 196.4544 
L 190.687857 196.099765 
L 190.862142 196.099765 
L 190.956531 195.390494 
L 191.803377 195.390494 
L 191.803377 195.035859 
L 192.183542 195.035859 
L 192.268616 194.326588 
L 192.489759 194.326588 
L 192.489759 193.617318 
L 192.628101 193.617318 
L 192.682582 192.553412 
L 193.28555 192.553412 
L 193.28555 192.198776 
L 193.604491 192.198776 
L 193.607217 191.489506 
L 194.057024 191.489506 
L 194.057024 191.134871 
L 194.281903 191.134871 
L 194.347535 190.4256 
L 194.407716 190.4256 
L 194.407716 190.070965 
L 197.356354 190.070965 
L 197.427686 189.361694 
L 197.664257 189.361694 
L 197.664257 189.007059 
L 198.053483 189.007059 
L 198.141513 188.297788 
L 198.25683 188.297788 
L 198.25683 187.943153 
L 198.415828 187.943153 
L 198.415828 187.588518 
L 198.563024 187.588518 
L 198.563024 187.233882 
L 198.837499 187.233882 
L 198.837499 186.879247 
L 199.227696 186.879247 
L 199.2943 186.169976 
L 199.372711 186.169976 
L 199.466774 185.460706 
L 199.679179 185.460706 
L 199.704823 184.751435 
L 199.826645 184.751435 
L 199.910673 182.978259 
L 200.137426 182.978259 
L 200.243082 182.268988 
L 200.382406 182.268988 
L 200.382406 181.914353 
L 200.513154 181.914353 
L 200.588536 180.850447 
L 200.710392 180.850447 
L 200.805451 179.786541 
L 200.825892 179.786541 
L 200.825892 179.431906 
L 201.691548 179.431906 
L 201.691548 179.077271 
L 201.850505 179.077271 
L 201.897931 178.368 
L 202.135018 178.368 
L 202.243841 177.658729 
L 202.250729 177.658729 
L 202.250729 176.949459 
L 202.464723 176.949459 
L 202.53269 176.240188 
L 202.583504 176.240188 
L 202.583504 175.885553 
L 202.840545 175.885553 
L 202.918805 175.176282 
L 206.661378 175.176282 
L 206.753758 174.467012 
L 206.865905 174.467012 
L 206.865905 174.112376 
L 207.626284 174.112376 
L 207.626284 173.757741 
L 207.824479 173.757741 
L 207.824479 173.403106 
L 208.013003 173.403106 
L 208.013003 173.048471 
L 208.950005 173.048471 
L 209.028224 172.3392 
L 209.170587 172.3392 
L 209.170587 171.984565 
L 209.310697 171.984565 
L 209.348514 171.275294 
L 209.461511 171.275294 
L 209.461511 170.920659 
L 209.705192 170.920659 
L 209.705192 170.566024 
L 210.002855 170.566024 
L 210.107465 169.856753 
L 210.313834 169.856753 
L 210.398878 168.792847 
L 210.437914 168.792847 
L 210.437914 168.083576 
L 210.583307 168.083576 
L 210.583307 167.728941 
L 210.705628 167.728941 
L 210.80532 167.019671 
L 222.583822 167.019671 
L 222.583822 165.955765 
L 222.933967 165.955765 
L 222.933967 165.601129 
L 225.037759 165.601129 
L 225.087428 164.537224 
L 226.374515 164.537224 
L 226.476436 162.764047 
L 226.510129 162.764047 
L 226.565521 162.054776 
L 226.669236 162.054776 
L 226.669236 161.700141 
L 227.43165 161.700141 
L 227.43165 161.345506 
L 228.16914 161.345506 
L 228.273902 158.863059 
L 228.294181 158.863059 
L 228.404682 156.025976 
L 228.411968 156.025976 
L 228.51539 153.898165 
L 228.529023 153.898165 
L 228.589825 153.188894 
L 232.021062 153.188894 
L 232.021062 152.834259 
L 235.553057 152.834259 
L 235.553057 152.479624 
L 237.121712 152.479624 
L 237.149473 151.770353 
L 239.083683 151.770353 
L 239.083683 151.415718 
L 243.915957 151.415718 
L 244.025965 139.003482 
L 244.027273 139.003482 
L 244.107074 132.974682 
L 244.139792 132.974682 
L 244.149262 131.556141 
L 244.932818 131.556141 
L 244.949549 130.846871 
L 245.085335 130.846871 
L 245.136135 129.428329 
L 245.205411 129.428329 
L 245.209447 128.719059 
L 245.428205 128.719059 
L 245.518349 127.300518 
L 245.626608 127.300518 
L 245.694617 125.172706 
L 245.78605 125.172706 
L 245.881443 123.399529 
L 245.898197 123.399529 
L 245.910879 122.335624 
L 246.069281 122.335624 
L 246.167588 120.207812 
L 246.504561 120.207812 
L 246.504561 119.853176 
L 246.638881 119.853176 
L 246.677384 118.789271 
L 246.874991 118.789271 
L 246.8896 118.08 
L 249.151566 118.08 
L 249.237457 117.370729 
L 250.147666 117.370729 
L 250.196456 114.888282 
L 250.520867 114.888282 
L 250.535811 114.179012 
L 250.673322 114.179012 
L 250.778671 109.923388 
L 250.791978 109.923388 
L 250.876943 108.859482 
L 250.90976 108.859482 
L 250.913907 107.795576 
L 251.118415 107.795576 
L 251.129946 107.086306 
L 251.922285 107.086306 
L 251.922285 106.731671 
L 253.85401 106.731671 
L 253.873725 106.0224 
L 254.149779 106.0224 
L 254.149779 105.667765 
L 256.95015 105.667765 
L 257.036341 100.702871 
L 257.487706 100.702871 
L 257.593471 98.575059 
L 257.728522 98.575059 
L 257.824961 96.801882 
L 257.857953 96.801882 
L 257.955871 96.092612 
L 257.993793 96.092612 
L 258.091451 95.028706 
L 258.144281 95.028706 
L 258.196875 93.9648 
L 258.260111 93.9648 
L 258.365208 93.255529 
L 258.455495 93.255529 
L 258.455495 92.900894 
L 258.605448 92.900894 
L 258.707782 91.836988 
L 259.747856 91.836988 
L 259.747856 91.482353 
L 260.013075 91.482353 
L 260.108844 90.773082 
L 260.338071 90.773082 
L 260.338071 90.418447 
L 260.629663 90.418447 
L 260.736807 87.936 
L 260.741803 87.936 
L 260.801262 86.517459 
L 260.877783 86.517459 
L 260.96592 85.808188 
L 264.585943 85.808188 
L 264.608042 82.616471 
L 265.096977 82.616471 
L 265.190442 81.552565 
L 265.227893 81.552565 
L 265.318182 79.070118 
L 265.402042 79.070118 
L 265.486426 77.296941 
L 265.525199 77.296941 
L 265.597403 76.233035 
L 265.691552 76.233035 
L 265.749877 75.169129 
L 265.851175 75.169129 
L 265.851175 74.814494 
L 266.900552 74.814494 
L 266.960222 74.105224 
L 267.117472 74.105224 
L 267.224974 71.268141 
L 267.255219 71.268141 
L 267.327426 69.8496 
L 269.988385 69.8496 
L 269.99379 69.140329 
L 270.312996 69.140329 
L 270.312996 68.785694 
L 270.448197 68.785694 
L 270.492683 67.012518 
L 270.565302 67.012518 
L 270.670126 66.303247 
L 270.724942 66.303247 
L 270.822409 64.884706 
L 271.841582 64.884706 
L 271.952637 63.8208 
L 271.975065 63.8208 
L 272.050997 61.692988 
L 272.276761 61.692988 
L 272.276761 61.338353 
L 274.212497 61.338353 
L 274.212497 60.983718 
L 274.549625 60.983718 
L 274.595967 60.274447 
L 274.684208 60.274447 
L 274.736539 59.210541 
L 274.8186 59.210541 
L 274.859787 58.501271 
L 275.759337 58.501271 
L 275.825212 57.437365 
L 275.941448 57.437365 
L 275.998187 56.373459 
L 276.070582 56.373459 
L 276.070582 56.018824 
L 277.61926 56.018824 
L 277.626057 55.309553 
L 277.997225 55.309553 
L 278.07035 54.600282 
L 278.997629 54.600282 
L 279.050692 52.117835 
L 280.768743 52.117835 
L 280.873156 50.344659 
L 280.892805 50.344659 
L 280.941682 48.571482 
L 281.76818 48.571482 
L 281.76818 48.216847 
L 283.249211 48.216847 
L 283.249211 47.862212 
L 283.458131 47.862212 
L 283.458131 47.507576 
L 284.023814 47.507576 
L 284.1262 45.7344 
L 284.162699 45.7344 
L 284.178622 45.025129 
L 284.282613 45.025129 
L 284.282613 44.670494 
L 285.488942 44.670494 
L 285.584825 43.606588 
L 285.616801 43.606588 
L 285.689629 42.897318 
L 286.209948 42.897318 
L 286.227066 42.188047 
L 287.533004 42.188047 
L 287.533004 41.833412 
L 288.055923 41.833412 
L 288.10043 40.769506 
L 289.290527 40.769506 
L 289.35598 39.350965 
L 289.845344 39.350965 
L 289.904773 38.641694 
L 289.959057 38.641694 
L 289.959057 38.287059 
L 290.939917 38.287059 
L 291.037459 37.577788 
L 292.426212 37.577788 
L 292.426212 37.223153 
L 292.539253 37.223153 
L 292.539253 36.868518 
L 293.885615 36.868518 
L 293.885615 36.513882 
L 294.309151 36.513882 
L 294.309151 36.159247 
L 295.081602 36.159247 
L 295.181045 34.740706 
L 295.508591 34.740706 
L 295.605169 33.322165 
L 297.440996 33.322165 
L 297.498996 32.612894 
L 298.851004 32.612894 
L 298.851004 32.258259 
L 299.469505 32.258259 
L 299.469505 31.903624 
L 301.35832 31.903624 
L 301.35832 31.548988 
L 301.679684 31.548988 
L 301.679684 31.194353 
L 303.078272 31.194353 
L 303.128101 30.485082 
L 303.430059 30.485082 
L 303.430059 30.130447 
L 304.611464 30.130447 
L 304.651853 29.421176 
L 305.651468 29.421176 
L 305.651468 29.066541 
L 307.0186 29.066541 
L 307.0186 28.711906 
L 307.70051 28.711906 
L 307.70051 28.357271 
L 311.144574 28.357271 
L 311.144574 28.002635 
L 312.155479 28.002635 
L 312.155479 27.648 
L 360.8064 27.648 
L 360.8064 27.648 
" style="fill:none;stroke:#ff00ff;stroke-linecap:square;stroke-width:1.5;"/>
   </g>
   <g id="line2d_41">
    <defs>
     <path d="M -0 8.485281 
L 5.091169 0 
L 0 -8.485281 
L -5.091169 -0 
z
" id="m5beb4ea9a5" style="stroke:#ff00ff;stroke-linejoin:miter;stroke-width:1.5;"/>
    </defs>
    <g>
     <use style="fill-opacity:0;stroke:#ff00ff;stroke-linejoin:miter;stroke-width:1.5;" x="117.067958" xlink:href="#m5beb4ea9a5" y="250.7136"/>
     <use style="fill-opacity:0;stroke:#ff00ff;stroke-linejoin:miter;stroke-width:1.5;" x="194.057024" xlink:href="#m5beb4ea9a5" y="191.489506"/>
     <use style="fill-opacity:0;stroke:#ff00ff;stroke-linejoin:miter;stroke-width:1.5;" x="254.149779" xlink:href="#m5beb4ea9a5" y="106.0224"/>
     <use style="fill-opacity:0;stroke:#ff00ff;stroke-linejoin:miter;stroke-width:1.5;" x="297.498996" xlink:href="#m5beb4ea9a5" y="32.612894"/>
     <use style="fill-opacity:0;stroke:#ff00ff;stroke-linejoin:miter;stroke-width:1.5;" x="312.155479" xlink:href="#m5beb4ea9a5" y="27.648"/>
     <use style="fill-opacity:0;stroke:#ff00ff;stroke-linejoin:miter;stroke-width:1.5;" x="360.8064" xlink:href="#m5beb4ea9a5" y="27.648"/>
    </g>
   </g>
   <g id="line2d_42">
    <path style="fill:none;stroke:#ff00ff;stroke-linecap:square;stroke-width:1.5;"/>
    <g/>
   </g>
   <g id="line2d_43">
    <path clip-path="url(#pc98bdbf042)" d="M 243.901479 151.415718 
" style="fill:none;stroke:#ff00ff;stroke-linecap:square;stroke-width:1.5;"/>
    <defs>
     <path d="M -12 12 
L 12 -12 
M -12 -12 
L 12 12 
" id="m12a6da4711" style="stroke:#ff00ff;"/>
    </defs>
    <g clip-path="url(#pc98bdbf042)">
     <use style="fill:#ff00ff;stroke:#ff00ff;" x="243.901479" xlink:href="#m12a6da4711" y="151.415718"/>
    </g>
   </g>
   <g id="line2d_44">
    <path d="M 360.8064 27.648 
L 380.514816 293.51808 
" style="fill:none;stroke:#ff00ff;stroke-linecap:square;stroke-width:1.5;"/>
    <g>
     <use style="fill-opacity:0;stroke:#ff00ff;stroke-linejoin:miter;stroke-width:1.5;" x="360.8064" xlink:href="#m5beb4ea9a5" y="27.648"/>
     <use style="fill-opacity:0;stroke:#ff00ff;stroke-linejoin:miter;stroke-width:1.5;" x="380.514816" xlink:href="#m5beb4ea9a5" y="293.51808"/>
    </g>
   </g>
   <g id="line2d_45">
    <path d="M 360.8064 27.648 
L 380.514816 163.296 
" style="fill:none;stroke:#000080;stroke-linecap:square;stroke-width:1.5;"/>
    <g>
     <use style="fill-opacity:0;stroke:#000080;stroke-width:1.5;" x="360.8064" xlink:href="#m06d633ba0f" y="27.648"/>
     <use style="fill-opacity:0;stroke:#000080;stroke-width:1.5;" x="380.514816" xlink:href="#m06d633ba0f" y="163.296"/>
    </g>
   </g>
   <g id="line2d_46">
    <path d="M 360.8064 298.944 
L 360.8064 27.648 
" style="fill:none;stroke:#000000;stroke-linecap:square;stroke-width:1.5;"/>
   </g>
   <g id="patch_3">
    <path d="M 57.6 298.944 
L 360.8064 298.944 
" style="fill:none;stroke:#000000;stroke-linecap:square;stroke-linejoin:miter;stroke-width:0.8;"/>
   </g>
   <g id="patch_4">
    <path d="M 57.6 27.648 
L 360.8064 27.648 
" style="fill:none;stroke:#000000;stroke-linecap:square;stroke-linejoin:miter;stroke-width:0.8;"/>
   </g>
   <g id="text_13">
    <!-- cma.fmin  -->
    <g transform="translate(386.578944 297.381205)scale(0.14 -0.14)">
     <use xlink:href="#DejaVuSans-63"/>
     <use x="54.980469" xlink:href="#DejaVuSans-6d"/>
     <use x="152.392578" xlink:href="#DejaVuSans-61"/>
     <use x="213.671875" xlink:href="#DejaVuSans-2e"/>
     <use x="245.458984" xlink:href="#DejaVuSans-66"/>
     <use x="280.664062" xlink:href="#DejaVuSans-6d"/>
     <use x="378.076172" xlink:href="#DejaVuSans-69"/>
     <use x="405.859375" xlink:href="#DejaVuSans-6e"/>
     <use x="469.238281" xlink:href="#DejaVuSans-20"/>
    </g>
   </g>
   <g id="text_14">
    <!-- different -->
    <g transform="translate(386.578944 167.159125)scale(0.14 -0.14)">
     <use xlink:href="#DejaVuSans-64"/>
     <use x="63.476562" xlink:href="#DejaVuSans-69"/>
     <use x="91.259766" xlink:href="#DejaVuSans-66"/>
     <use x="126.464844" xlink:href="#DejaVuSans-66"/>
     <use x="161.669922" xlink:href="#DejaVuSans-65"/>
     <use x="223.193359" xlink:href="#DejaVuSans-72"/>
     <use x="262.056641" xlink:href="#DejaVuSans-65"/>
     <use x="323.580078" xlink:href="#DejaVuSans-6e"/>
     <use x="386.958984" xlink:href="#DejaVuSans-74"/>
    </g>
   </g>
   <g id="text_15">
    <!-- best 2009 -->
    <g transform="translate(386.578944 36.937045)scale(0.14 -0.14)">
     <defs>
      <path d="M 3116 1747 
Q 3116 2381 2855 2742 
Q 2594 3103 2138 3103 
Q 1681 3103 1420 2742 
Q 1159 2381 1159 1747 
Q 1159 1113 1420 752 
Q 1681 391 2138 391 
Q 2594 391 2855 752 
Q 3116 1113 3116 1747 
z
M 1159 2969 
Q 1341 3281 1617 3432 
Q 1894 3584 2278 3584 
Q 2916 3584 3314 3078 
Q 3713 2572 3713 1747 
Q 3713 922 3314 415 
Q 2916 -91 2278 -91 
Q 1894 -91 1617 61 
Q 1341 213 1159 525 
L 1159 0 
L 581 0 
L 581 4863 
L 1159 4863 
L 1159 2969 
z
" id="DejaVuSans-62" transform="scale(0.015625)"/>
      <path d="M 703 97 
L 703 672 
Q 941 559 1184 500 
Q 1428 441 1663 441 
Q 2288 441 2617 861 
Q 2947 1281 2994 2138 
Q 2813 1869 2534 1725 
Q 2256 1581 1919 1581 
Q 1219 1581 811 2004 
Q 403 2428 403 3163 
Q 403 3881 828 4315 
Q 1253 4750 1959 4750 
Q 2769 4750 3195 4129 
Q 3622 3509 3622 2328 
Q 3622 1225 3098 567 
Q 2575 -91 1691 -91 
Q 1453 -91 1209 -44 
Q 966 3 703 97 
z
M 1959 2075 
Q 2384 2075 2632 2365 
Q 2881 2656 2881 3163 
Q 2881 3666 2632 3958 
Q 2384 4250 1959 4250 
Q 1534 4250 1286 3958 
Q 1038 3666 1038 3163 
Q 1038 2656 1286 2365 
Q 1534 2075 1959 2075 
z
" id="DejaVuSans-39" transform="scale(0.015625)"/>
     </defs>
     <use xlink:href="#DejaVuSans-62"/>
     <use x="63.476562" xlink:href="#DejaVuSans-65"/>
     <use x="125" xlink:href="#DejaVuSans-73"/>
     <use x="177.099609" xlink:href="#DejaVuSans-74"/>
     <use x="216.308594" xlink:href="#DejaVuSans-20"/>
     <use x="248.095703" xlink:href="#DejaVuSans-32"/>
     <use x="311.71875" xlink:href="#DejaVuSans-30"/>
     <use x="375.341797" xlink:href="#DejaVuSans-30"/>
     <use x="438.964844" xlink:href="#DejaVuSans-39"/>
    </g>
   </g>
   <g id="text_16">
    <!-- bbob f17, 5-D -->
    <g transform="translate(60.632064 38.111366)scale(0.102 -0.102)">
     <defs>
      <path d="M 525 4666 
L 3525 4666 
L 3525 4397 
L 1831 0 
L 1172 0 
L 2766 4134 
L 525 4134 
L 525 4666 
z
" id="DejaVuSans-37" transform="scale(0.015625)"/>
      <path d="M 691 4666 
L 3169 4666 
L 3169 4134 
L 1269 4134 
L 1269 2991 
Q 1406 3038 1543 3061 
Q 1681 3084 1819 3084 
Q 2600 3084 3056 2656 
Q 3513 2228 3513 1497 
Q 3513 744 3044 326 
Q 2575 -91 1722 -91 
Q 1428 -91 1123 -41 
Q 819 9 494 109 
L 494 744 
Q 775 591 1075 516 
Q 1375 441 1709 441 
Q 2250 441 2565 725 
Q 2881 1009 2881 1497 
Q 2881 1984 2565 2268 
Q 2250 2553 1709 2553 
Q 1456 2553 1204 2497 
Q 953 2441 691 2322 
L 691 4666 
z
" id="DejaVuSans-35" transform="scale(0.015625)"/>
      <path d="M 1259 4147 
L 1259 519 
L 2022 519 
Q 2988 519 3436 956 
Q 3884 1394 3884 2338 
Q 3884 3275 3436 3711 
Q 2988 4147 2022 4147 
L 1259 4147 
z
M 628 4666 
L 1925 4666 
Q 3281 4666 3915 4102 
Q 4550 3538 4550 2338 
Q 4550 1131 3912 565 
Q 3275 0 1925 0 
L 628 0 
L 628 4666 
z
" id="DejaVuSans-44" transform="scale(0.015625)"/>
     </defs>
     <use xlink:href="#DejaVuSans-62"/>
     <use x="63.476562" xlink:href="#DejaVuSans-62"/>
     <use x="126.953125" xlink:href="#DejaVuSans-6f"/>
     <use x="188.134766" xlink:href="#DejaVuSans-62"/>
     <use x="251.611328" xlink:href="#DejaVuSans-20"/>
     <use x="283.398438" xlink:href="#DejaVuSans-66"/>
     <use x="318.603516" xlink:href="#DejaVuSans-31"/>
     <use x="382.226562" xlink:href="#DejaVuSans-37"/>
     <use x="445.849609" xlink:href="#DejaVuSans-2c"/>
     <use x="477.636719" xlink:href="#DejaVuSans-20"/>
     <use x="509.423828" xlink:href="#DejaVuSans-35"/>
     <use x="573.046875" xlink:href="#DejaVuSans-2d"/>
     <use x="609.130859" xlink:href="#DejaVuSans-44"/>
    </g>
    <!-- 51 targets: 100..1e-08 -->
    <g transform="translate(60.632064 49.533135)scale(0.102 -0.102)">
     <defs>
      <path d="M 750 794 
L 1409 794 
L 1409 0 
L 750 0 
L 750 794 
z
M 750 3309 
L 1409 3309 
L 1409 2516 
L 750 2516 
L 750 3309 
z
" id="DejaVuSans-3a" transform="scale(0.015625)"/>
     </defs>
     <use xlink:href="#DejaVuSans-35"/>
     <use x="63.623047" xlink:href="#DejaVuSans-31"/>
     <use x="127.246094" xlink:href="#DejaVuSans-20"/>
     <use x="159.033203" xlink:href="#DejaVuSans-74"/>
     <use x="198.242188" xlink:href="#DejaVuSans-61"/>
     <use x="259.521484" xlink:href="#DejaVuSans-72"/>
     <use x="298.884766" xlink:href="#DejaVuSans-67"/>
     <use x="362.361328" xlink:href="#DejaVuSans-65"/>
     <use x="423.884766" xlink:href="#DejaVuSans-74"/>
     <use x="463.09375" xlink:href="#DejaVuSans-73"/>
     <use x="515.193359" xlink:href="#DejaVuSans-3a"/>
     <use x="548.884766" xlink:href="#DejaVuSans-20"/>
     <use x="580.671875" xlink:href="#DejaVuSans-31"/>
     <use x="644.294922" xlink:href="#DejaVuSans-30"/>
     <use x="707.917969" xlink:href="#DejaVuSans-30"/>
     <use x="771.541016" xlink:href="#DejaVuSans-2e"/>
     <use x="803.328125" xlink:href="#DejaVuSans-2e"/>
     <use x="835.115234" xlink:href="#DejaVuSans-31"/>
     <use x="898.738281" xlink:href="#DejaVuSans-65"/>
     <use x="960.261719" xlink:href="#DejaVuSans-2d"/>
     <use x="996.345703" xlink:href="#DejaVuSans-30"/>
     <use x="1059.96875" xlink:href="#DejaVuSans-38"/>
    </g>
    <!-- 15 instances -->
    <g transform="translate(60.632064 60.954904)scale(0.102 -0.102)">
     <use xlink:href="#DejaVuSans-31"/>
     <use x="63.623047" xlink:href="#DejaVuSans-35"/>
     <use x="127.246094" xlink:href="#DejaVuSans-20"/>
     <use x="159.033203" xlink:href="#DejaVuSans-69"/>
     <use x="186.816406" xlink:href="#DejaVuSans-6e"/>
     <use x="250.195312" xlink:href="#DejaVuSans-73"/>
     <use x="302.294922" xlink:href="#DejaVuSans-74"/>
     <use x="341.503906" xlink:href="#DejaVuSans-61"/>
     <use x="402.783203" xlink:href="#DejaVuSans-6e"/>
     <use x="466.162109" xlink:href="#DejaVuSans-63"/>
     <use x="521.142578" xlink:href="#DejaVuSans-65"/>
     <use x="582.666016" xlink:href="#DejaVuSans-73"/>
    </g>
   </g>
   <g id="text_17">
    <!-- v2.6 -->
    <g style="fill:#808080;" transform="translate(198.292262 294.151352)scale(0.1 -0.1)">
     <use xlink:href="#DejaVuSans-76"/>
     <use x="59.179688" xlink:href="#DejaVuSans-32"/>
     <use x="122.802734" xlink:href="#DejaVuSans-2e"/>
     <use x="154.589844" xlink:href="#DejaVuSans-36"/>
    </g>
   </g>
   <g id="text_18">
    <!-- 17 Schaffer F7, condition 10 -->
    <g transform="translate(67.895387 21.648)scale(0.2 -0.2)">
     <defs>
      <path d="M 3425 4513 
L 3425 3897 
Q 3066 4069 2747 4153 
Q 2428 4238 2131 4238 
Q 1616 4238 1336 4038 
Q 1056 3838 1056 3469 
Q 1056 3159 1242 3001 
Q 1428 2844 1947 2747 
L 2328 2669 
Q 3034 2534 3370 2195 
Q 3706 1856 3706 1288 
Q 3706 609 3251 259 
Q 2797 -91 1919 -91 
Q 1588 -91 1214 -16 
Q 841 59 441 206 
L 441 856 
Q 825 641 1194 531 
Q 1563 422 1919 422 
Q 2459 422 2753 634 
Q 3047 847 3047 1241 
Q 3047 1584 2836 1778 
Q 2625 1972 2144 2069 
L 1759 2144 
Q 1053 2284 737 2584 
Q 422 2884 422 3419 
Q 422 4038 858 4394 
Q 1294 4750 2059 4750 
Q 2388 4750 2728 4690 
Q 3069 4631 3425 4513 
z
" id="DejaVuSans-53" transform="scale(0.015625)"/>
      <path d="M 3513 2113 
L 3513 0 
L 2938 0 
L 2938 2094 
Q 2938 2591 2744 2837 
Q 2550 3084 2163 3084 
Q 1697 3084 1428 2787 
Q 1159 2491 1159 1978 
L 1159 0 
L 581 0 
L 581 4863 
L 1159 4863 
L 1159 2956 
Q 1366 3272 1645 3428 
Q 1925 3584 2291 3584 
Q 2894 3584 3203 3211 
Q 3513 2838 3513 2113 
z
" id="DejaVuSans-68" transform="scale(0.015625)"/>
     </defs>
     <use xlink:href="#DejaVuSans-31"/>
     <use x="63.623047" xlink:href="#DejaVuSans-37"/>
     <use x="127.246094" xlink:href="#DejaVuSans-20"/>
     <use x="159.033203" xlink:href="#DejaVuSans-53"/>
     <use x="222.509766" xlink:href="#DejaVuSans-63"/>
     <use x="277.490234" xlink:href="#DejaVuSans-68"/>
     <use x="340.869141" xlink:href="#DejaVuSans-61"/>
     <use x="402.148438" xlink:href="#DejaVuSans-66"/>
     <use x="437.353516" xlink:href="#DejaVuSans-66"/>
     <use x="472.558594" xlink:href="#DejaVuSans-65"/>
     <use x="534.082031" xlink:href="#DejaVuSans-72"/>
     <use x="575.195312" xlink:href="#DejaVuSans-20"/>
     <use x="606.982422" xlink:href="#DejaVuSans-46"/>
     <use x="664.501953" xlink:href="#DejaVuSans-37"/>
     <use x="728.125" xlink:href="#DejaVuSans-2c"/>
     <use x="759.912109" xlink:href="#DejaVuSans-20"/>
     <use x="791.699219" xlink:href="#DejaVuSans-63"/>
     <use x="846.679688" xlink:href="#DejaVuSans-6f"/>
     <use x="907.861328" xlink:href="#DejaVuSans-6e"/>
     <use x="971.240234" xlink:href="#DejaVuSans-64"/>
     <use x="1034.716797" xlink:href="#DejaVuSans-69"/>
     <use x="1062.5" xlink:href="#DejaVuSans-74"/>
     <use x="1101.708984" xlink:href="#DejaVuSans-69"/>
     <use x="1129.492188" xlink:href="#DejaVuSans-6f"/>
     <use x="1190.673828" xlink:href="#DejaVuSans-6e"/>
     <use x="1254.052734" xlink:href="#DejaVuSans-20"/>
     <use x="1285.839844" xlink:href="#DejaVuSans-31"/>
     <use x="1349.462891" xlink:href="#DejaVuSans-30"/>
    </g>
   </g>
  </g>
 </g>
 <defs>
  <clipPath id="pc98bdbf042">
   <rect height="271.296" width="303.2064" x="57.6" y="27.648"/>
  </clipPath>
 </defs>
</svg>
