<?xml version="1.0" encoding="utf-8" standalone="no"?>
<!DOCTYPE svg PUBLIC "-//W3C//DTD SVG 1.1//EN"
  "http://www.w3.org/Graphics/SVG/1.1/DTD/svg11.dtd">
<svg height="345.6pt" version="1.1" viewBox="0 0 460.8 345.6" width="460.8pt" xmlns="http://www.w3.org/2000/svg" xmlns:xlink="http://www.w3.org/1999/xlink">
 <metadata>
  <rdf:RDF xmlns:cc="http://creativecommons.org/ns#" xmlns:dc="http://purl.org/dc/elements/1.1/" xmlns:rdf="http://www.w3.org/1999/02/22-rdf-syntax-ns#">
   <cc:Work>
    <dc:type rdf:resource="http://purl.org/dc/dcmitype/StillImage"/>
    <dc:date>2022-05-07T15:07:43.077658</dc:date>
    <dc:format>image/svg+xml</dc:format>
    <dc:creator>
     <cc:Agent>
      <dc:title>Matplotlib v3.4.3, https://matplotlib.org/</dc:title>
     </cc:Agent>
    </dc:creator>
   </cc:Work>
  </rdf:RDF>
 </metadata>
 <defs>
  <style type="text/css">*{stroke-linecap:butt;stroke-linejoin:round;}</style>
 </defs>
 <g id="figure_1">
  <g id="patch_1">
   <path d="M 0 345.6 
L 460.8 345.6 
L 460.8 0 
L 0 0 
z
" style="fill:#ffffff;"/>
  </g>
  <g id="axes_1">
   <g id="patch_2">
    <path d="M 57.6 298.944 
L 360.8064 298.944 
L 360.8064 27.648 
L 57.6 27.648 
z
" style="fill:#ffffff;"/>
   </g>
   <g id="line2d_1">
    <path d="M 119.944983 298.944 
L 119.944983 293.624471 
L 121.201758 293.624471 
L 121.201758 282.985412 
L 124.588805 282.985412 
L 124.588805 277.665882 
L 129.458394 277.665882 
L 129.458394 272.346353 
L 131.747272 272.346353 
L 131.747272 267.026824 
L 133.01833 267.026824 
L 133.01833 261.707294 
L 135.388902 261.707294 
L 135.388902 256.387765 
L 137.466966 256.387765 
L 137.466966 251.068235 
L 139.867398 251.068235 
L 139.867398 245.748706 
L 142.164612 245.748706 
L 142.164612 240.429176 
L 143.696162 240.429176 
L 143.696162 235.109647 
L 145.255407 235.109647 
L 145.255407 229.790118 
L 146.579379 229.790118 
L 146.579379 224.470588 
L 147.502732 224.470588 
L 147.502732 219.151059 
L 148.276979 219.151059 
L 148.276979 213.831529 
L 148.844805 213.831529 
L 148.844805 208.512 
L 149.2669 208.512 
L 149.2669 203.192471 
L 149.764026 203.192471 
L 149.764026 197.872941 
L 150.138743 197.872941 
L 150.138743 192.553412 
L 150.425115 192.553412 
L 150.425115 187.233882 
L 150.998235 187.233882 
L 150.998235 181.914353 
L 151.426526 181.914353 
L 151.426526 176.594824 
L 151.832729 176.594824 
L 151.832729 171.275294 
L 152.25492 171.275294 
L 152.25492 165.955765 
L 152.703847 165.955765 
L 152.703847 160.636235 
L 153.118868 160.636235 
L 153.118868 155.316706 
L 153.559331 155.316706 
L 153.559331 149.997176 
L 155.066821 149.997176 
L 155.066821 144.677647 
L 155.433326 144.677647 
L 155.433326 139.358118 
L 157.023421 139.358118 
L 157.023421 134.038588 
L 157.316545 134.038588 
L 157.316545 128.719059 
L 157.715719 128.719059 
L 157.715719 123.399529 
L 164.239791 123.399529 
L 164.239791 118.08 
L 168.430973 118.08 
L 168.430973 112.760471 
L 168.637696 112.760471 
L 168.637696 107.440941 
L 168.801454 107.440941 
L 168.801454 102.121412 
L 170.644345 102.121412 
L 170.644345 96.801882 
L 172.578697 96.801882 
L 172.578697 91.482353 
L 173.549438 91.482353 
L 173.549438 86.162824 
L 173.855707 86.162824 
L 173.855707 80.843294 
L 174.126381 80.843294 
L 174.126381 75.523765 
L 174.370492 75.523765 
L 174.370492 70.204235 
L 174.615217 70.204235 
L 174.615217 64.884706 
L 174.860492 64.884706 
L 174.860492 59.565176 
L 175.077078 59.565176 
L 175.077078 54.245647 
L 175.316441 54.245647 
L 175.316441 48.926118 
L 175.506477 48.926118 
L 175.506477 43.606588 
L 175.715792 43.606588 
L 175.715792 38.287059 
L 175.947214 38.287059 
L 175.947214 32.967529 
L 176.196469 32.967529 
L 176.196469 27.648 
L 360.8064 27.648 
" style="fill:none;stroke:#f5deb3;stroke-linecap:square;stroke-width:4;"/>
   </g>
   <g id="line2d_2">
    <defs>
     <path d="M -0 7.778175 
L 7.778175 0 
L 0 -7.778175 
L -7.778175 -0 
z
" id="ma73f262c89" style="stroke:#f5deb3;stroke-linejoin:miter;stroke-width:1.5;"/>
    </defs>
    <g>
     <use style="fill:#f5deb3;stroke:#f5deb3;stroke-linejoin:miter;stroke-width:1.5;" x="147.502732" xlink:href="#ma73f262c89" y="224.470588"/>
     <use style="fill:#f5deb3;stroke:#f5deb3;stroke-linejoin:miter;stroke-width:1.5;" x="173.549438" xlink:href="#ma73f262c89" y="91.482353"/>
     <use style="fill:#f5deb3;stroke:#f5deb3;stroke-linejoin:miter;stroke-width:1.5;" x="176.196469" xlink:href="#ma73f262c89" y="27.648"/>
     <use style="fill:#f5deb3;stroke:#f5deb3;stroke-linejoin:miter;stroke-width:1.5;" x="176.196469" xlink:href="#ma73f262c89" y="27.648"/>
     <use style="fill:#f5deb3;stroke:#f5deb3;stroke-linejoin:miter;stroke-width:1.5;" x="360.8064" xlink:href="#ma73f262c89" y="27.648"/>
    </g>
   </g>
   <g id="line2d_3">
    <path style="fill:none;stroke:#f5deb3;stroke-linecap:square;stroke-width:4;"/>
    <g/>
   </g>
   <g id="line2d_4">
    <path d="M 360.8064 27.648 
L 380.514816 33.07392 
" style="fill:none;stroke:#f5deb3;stroke-linecap:square;stroke-width:4;"/>
    <g>
     <use style="fill:#f5deb3;stroke:#f5deb3;stroke-linejoin:miter;stroke-width:1.5;" x="360.8064" xlink:href="#ma73f262c89" y="27.648"/>
     <use style="fill:#f5deb3;stroke:#f5deb3;stroke-linejoin:miter;stroke-width:1.5;" x="380.514816" xlink:href="#ma73f262c89" y="33.07392"/>
    </g>
   </g>
   <g id="matplotlib.axis_1">
    <g id="xtick_1">
     <g id="line2d_5">
      <path clip-path="url(#pa2ae8b4b11)" d="M 57.6 298.944 
L 57.6 27.648 
" style="fill:none;stroke:#b0b0b0;stroke-linecap:square;stroke-width:0.8;"/>
     </g>
     <g id="line2d_6">
      <defs>
       <path d="M 0 0 
L 0 3.5 
" id="m769fa8df03" style="stroke:#000000;stroke-width:0.8;"/>
      </defs>
      <g>
       <use style="stroke:#000000;stroke-width:0.8;" x="57.6" xlink:href="#m769fa8df03" y="298.944"/>
      </g>
     </g>
     <g id="text_1">
      <!-- 0 -->
      <g transform="translate(52.191875 318.861344)scale(0.17 -0.17)">
       <defs>
        <path d="M 2034 4250 
Q 1547 4250 1301 3770 
Q 1056 3291 1056 2328 
Q 1056 1369 1301 889 
Q 1547 409 2034 409 
Q 2525 409 2770 889 
Q 3016 1369 3016 2328 
Q 3016 3291 2770 3770 
Q 2525 4250 2034 4250 
z
M 2034 4750 
Q 2819 4750 3233 4129 
Q 3647 3509 3647 2328 
Q 3647 1150 3233 529 
Q 2819 -91 2034 -91 
Q 1250 -91 836 529 
Q 422 1150 422 2328 
Q 422 3509 836 4129 
Q 1250 4750 2034 4750 
z
" id="DejaVuSans-30" transform="scale(0.015625)"/>
       </defs>
       <use xlink:href="#DejaVuSans-30"/>
      </g>
     </g>
    </g>
    <g id="xtick_2">
     <g id="line2d_7">
      <path clip-path="url(#pa2ae8b4b11)" d="M 144.2304 298.944 
L 144.2304 27.648 
" style="fill:none;stroke:#b0b0b0;stroke-linecap:square;stroke-width:0.8;"/>
     </g>
     <g id="line2d_8">
      <g>
       <use style="stroke:#000000;stroke-width:0.8;" x="144.2304" xlink:href="#m769fa8df03" y="298.944"/>
      </g>
     </g>
     <g id="text_2">
      <!-- 2 -->
      <g transform="translate(138.822275 318.861344)scale(0.17 -0.17)">
       <defs>
        <path d="M 1228 531 
L 3431 531 
L 3431 0 
L 469 0 
L 469 531 
Q 828 903 1448 1529 
Q 2069 2156 2228 2338 
Q 2531 2678 2651 2914 
Q 2772 3150 2772 3378 
Q 2772 3750 2511 3984 
Q 2250 4219 1831 4219 
Q 1534 4219 1204 4116 
Q 875 4013 500 3803 
L 500 4441 
Q 881 4594 1212 4672 
Q 1544 4750 1819 4750 
Q 2544 4750 2975 4387 
Q 3406 4025 3406 3419 
Q 3406 3131 3298 2873 
Q 3191 2616 2906 2266 
Q 2828 2175 2409 1742 
Q 1991 1309 1228 531 
z
" id="DejaVuSans-32" transform="scale(0.015625)"/>
       </defs>
       <use xlink:href="#DejaVuSans-32"/>
      </g>
     </g>
    </g>
    <g id="xtick_3">
     <g id="line2d_9">
      <path clip-path="url(#pa2ae8b4b11)" d="M 230.8608 298.944 
L 230.8608 27.648 
" style="fill:none;stroke:#b0b0b0;stroke-linecap:square;stroke-width:0.8;"/>
     </g>
     <g id="line2d_10">
      <g>
       <use style="stroke:#000000;stroke-width:0.8;" x="230.8608" xlink:href="#m769fa8df03" y="298.944"/>
      </g>
     </g>
     <g id="text_3">
      <!-- 4 -->
      <g transform="translate(225.452675 318.861344)scale(0.17 -0.17)">
       <defs>
        <path d="M 2419 4116 
L 825 1625 
L 2419 1625 
L 2419 4116 
z
M 2253 4666 
L 3047 4666 
L 3047 1625 
L 3713 1625 
L 3713 1100 
L 3047 1100 
L 3047 0 
L 2419 0 
L 2419 1100 
L 313 1100 
L 313 1709 
L 2253 4666 
z
" id="DejaVuSans-34" transform="scale(0.015625)"/>
       </defs>
       <use xlink:href="#DejaVuSans-34"/>
      </g>
     </g>
    </g>
    <g id="xtick_4">
     <g id="line2d_11">
      <path clip-path="url(#pa2ae8b4b11)" d="M 317.4912 298.944 
L 317.4912 27.648 
" style="fill:none;stroke:#b0b0b0;stroke-linecap:square;stroke-width:0.8;"/>
     </g>
     <g id="line2d_12">
      <g>
       <use style="stroke:#000000;stroke-width:0.8;" x="317.4912" xlink:href="#m769fa8df03" y="298.944"/>
      </g>
     </g>
     <g id="text_4">
      <!-- 6 -->
      <g transform="translate(312.083075 318.861344)scale(0.17 -0.17)">
       <defs>
        <path d="M 2113 2584 
Q 1688 2584 1439 2293 
Q 1191 2003 1191 1497 
Q 1191 994 1439 701 
Q 1688 409 2113 409 
Q 2538 409 2786 701 
Q 3034 994 3034 1497 
Q 3034 2003 2786 2293 
Q 2538 2584 2113 2584 
z
M 3366 4563 
L 3366 3988 
Q 3128 4100 2886 4159 
Q 2644 4219 2406 4219 
Q 1781 4219 1451 3797 
Q 1122 3375 1075 2522 
Q 1259 2794 1537 2939 
Q 1816 3084 2150 3084 
Q 2853 3084 3261 2657 
Q 3669 2231 3669 1497 
Q 3669 778 3244 343 
Q 2819 -91 2113 -91 
Q 1303 -91 875 529 
Q 447 1150 447 2328 
Q 447 3434 972 4092 
Q 1497 4750 2381 4750 
Q 2619 4750 2861 4703 
Q 3103 4656 3366 4563 
z
" id="DejaVuSans-36" transform="scale(0.015625)"/>
       </defs>
       <use xlink:href="#DejaVuSans-36"/>
      </g>
     </g>
    </g>
    <g id="xtick_5">
     <g id="line2d_13">
      <path clip-path="url(#pa2ae8b4b11)" d="M 100.9152 298.944 
L 100.9152 27.648 
" style="fill:none;stroke:#b0b0b0;stroke-linecap:square;stroke-width:0.8;"/>
     </g>
     <g id="line2d_14">
      <defs>
       <path d="M 0 0 
L 0 2 
" id="m1d28a75989" style="stroke:#000000;stroke-width:0.6;"/>
      </defs>
      <g>
       <use style="stroke:#000000;stroke-width:0.6;" x="100.9152" xlink:href="#m1d28a75989" y="298.944"/>
      </g>
     </g>
    </g>
    <g id="xtick_6">
     <g id="line2d_15">
      <path clip-path="url(#pa2ae8b4b11)" d="M 187.5456 298.944 
L 187.5456 27.648 
" style="fill:none;stroke:#b0b0b0;stroke-linecap:square;stroke-width:0.8;"/>
     </g>
     <g id="line2d_16">
      <g>
       <use style="stroke:#000000;stroke-width:0.6;" x="187.5456" xlink:href="#m1d28a75989" y="298.944"/>
      </g>
     </g>
    </g>
    <g id="xtick_7">
     <g id="line2d_17">
      <path clip-path="url(#pa2ae8b4b11)" d="M 274.176 298.944 
L 274.176 27.648 
" style="fill:none;stroke:#b0b0b0;stroke-linecap:square;stroke-width:0.8;"/>
     </g>
     <g id="line2d_18">
      <g>
       <use style="stroke:#000000;stroke-width:0.6;" x="274.176" xlink:href="#m1d28a75989" y="298.944"/>
      </g>
     </g>
    </g>
    <g id="xtick_8">
     <g id="line2d_19">
      <path clip-path="url(#pa2ae8b4b11)" d="M 360.8064 298.944 
L 360.8064 27.648 
" style="fill:none;stroke:#b0b0b0;stroke-linecap:square;stroke-width:0.8;"/>
     </g>
     <g id="line2d_20">
      <g>
       <use style="stroke:#000000;stroke-width:0.6;" x="360.8064" xlink:href="#m1d28a75989" y="298.944"/>
      </g>
     </g>
    </g>
    <g id="text_5">
     <!-- log10(# f-evals / dimension) -->
     <g transform="translate(88.823278 339.314156)scale(0.17 -0.17)">
      <defs>
       <path d="M 603 4863 
L 1178 4863 
L 1178 0 
L 603 0 
L 603 4863 
z
" id="DejaVuSans-6c" transform="scale(0.015625)"/>
       <path d="M 1959 3097 
Q 1497 3097 1228 2736 
Q 959 2375 959 1747 
Q 959 1119 1226 758 
Q 1494 397 1959 397 
Q 2419 397 2687 759 
Q 2956 1122 2956 1747 
Q 2956 2369 2687 2733 
Q 2419 3097 1959 3097 
z
M 1959 3584 
Q 2709 3584 3137 3096 
Q 3566 2609 3566 1747 
Q 3566 888 3137 398 
Q 2709 -91 1959 -91 
Q 1206 -91 779 398 
Q 353 888 353 1747 
Q 353 2609 779 3096 
Q 1206 3584 1959 3584 
z
" id="DejaVuSans-6f" transform="scale(0.015625)"/>
       <path d="M 2906 1791 
Q 2906 2416 2648 2759 
Q 2391 3103 1925 3103 
Q 1463 3103 1205 2759 
Q 947 2416 947 1791 
Q 947 1169 1205 825 
Q 1463 481 1925 481 
Q 2391 481 2648 825 
Q 2906 1169 2906 1791 
z
M 3481 434 
Q 3481 -459 3084 -895 
Q 2688 -1331 1869 -1331 
Q 1566 -1331 1297 -1286 
Q 1028 -1241 775 -1147 
L 775 -588 
Q 1028 -725 1275 -790 
Q 1522 -856 1778 -856 
Q 2344 -856 2625 -561 
Q 2906 -266 2906 331 
L 2906 616 
Q 2728 306 2450 153 
Q 2172 0 1784 0 
Q 1141 0 747 490 
Q 353 981 353 1791 
Q 353 2603 747 3093 
Q 1141 3584 1784 3584 
Q 2172 3584 2450 3431 
Q 2728 3278 2906 2969 
L 2906 3500 
L 3481 3500 
L 3481 434 
z
" id="DejaVuSans-67" transform="scale(0.015625)"/>
       <path d="M 794 531 
L 1825 531 
L 1825 4091 
L 703 3866 
L 703 4441 
L 1819 4666 
L 2450 4666 
L 2450 531 
L 3481 531 
L 3481 0 
L 794 0 
L 794 531 
z
" id="DejaVuSans-31" transform="scale(0.015625)"/>
       <path d="M 1984 4856 
Q 1566 4138 1362 3434 
Q 1159 2731 1159 2009 
Q 1159 1288 1364 580 
Q 1569 -128 1984 -844 
L 1484 -844 
Q 1016 -109 783 600 
Q 550 1309 550 2009 
Q 550 2706 781 3412 
Q 1013 4119 1484 4856 
L 1984 4856 
z
" id="DejaVuSans-28" transform="scale(0.015625)"/>
       <path d="M 3272 2816 
L 2363 2816 
L 2100 1772 
L 3016 1772 
L 3272 2816 
z
M 2803 4594 
L 2478 3297 
L 3391 3297 
L 3719 4594 
L 4219 4594 
L 3897 3297 
L 4872 3297 
L 4872 2816 
L 3775 2816 
L 3519 1772 
L 4513 1772 
L 4513 1294 
L 3397 1294 
L 3072 0 
L 2572 0 
L 2894 1294 
L 1978 1294 
L 1656 0 
L 1153 0 
L 1478 1294 
L 494 1294 
L 494 1772 
L 1594 1772 
L 1856 2816 
L 850 2816 
L 850 3297 
L 1978 3297 
L 2297 4594 
L 2803 4594 
z
" id="DejaVuSans-23" transform="scale(0.015625)"/>
       <path id="DejaVuSans-20" transform="scale(0.015625)"/>
       <path d="M 2375 4863 
L 2375 4384 
L 1825 4384 
Q 1516 4384 1395 4259 
Q 1275 4134 1275 3809 
L 1275 3500 
L 2222 3500 
L 2222 3053 
L 1275 3053 
L 1275 0 
L 697 0 
L 697 3053 
L 147 3053 
L 147 3500 
L 697 3500 
L 697 3744 
Q 697 4328 969 4595 
Q 1241 4863 1831 4863 
L 2375 4863 
z
" id="DejaVuSans-66" transform="scale(0.015625)"/>
       <path d="M 313 2009 
L 1997 2009 
L 1997 1497 
L 313 1497 
L 313 2009 
z
" id="DejaVuSans-2d" transform="scale(0.015625)"/>
       <path d="M 3597 1894 
L 3597 1613 
L 953 1613 
Q 991 1019 1311 708 
Q 1631 397 2203 397 
Q 2534 397 2845 478 
Q 3156 559 3463 722 
L 3463 178 
Q 3153 47 2828 -22 
Q 2503 -91 2169 -91 
Q 1331 -91 842 396 
Q 353 884 353 1716 
Q 353 2575 817 3079 
Q 1281 3584 2069 3584 
Q 2775 3584 3186 3129 
Q 3597 2675 3597 1894 
z
M 3022 2063 
Q 3016 2534 2758 2815 
Q 2500 3097 2075 3097 
Q 1594 3097 1305 2825 
Q 1016 2553 972 2059 
L 3022 2063 
z
" id="DejaVuSans-65" transform="scale(0.015625)"/>
       <path d="M 191 3500 
L 800 3500 
L 1894 563 
L 2988 3500 
L 3597 3500 
L 2284 0 
L 1503 0 
L 191 3500 
z
" id="DejaVuSans-76" transform="scale(0.015625)"/>
       <path d="M 2194 1759 
Q 1497 1759 1228 1600 
Q 959 1441 959 1056 
Q 959 750 1161 570 
Q 1363 391 1709 391 
Q 2188 391 2477 730 
Q 2766 1069 2766 1631 
L 2766 1759 
L 2194 1759 
z
M 3341 1997 
L 3341 0 
L 2766 0 
L 2766 531 
Q 2569 213 2275 61 
Q 1981 -91 1556 -91 
Q 1019 -91 701 211 
Q 384 513 384 1019 
Q 384 1609 779 1909 
Q 1175 2209 1959 2209 
L 2766 2209 
L 2766 2266 
Q 2766 2663 2505 2880 
Q 2244 3097 1772 3097 
Q 1472 3097 1187 3025 
Q 903 2953 641 2809 
L 641 3341 
Q 956 3463 1253 3523 
Q 1550 3584 1831 3584 
Q 2591 3584 2966 3190 
Q 3341 2797 3341 1997 
z
" id="DejaVuSans-61" transform="scale(0.015625)"/>
       <path d="M 2834 3397 
L 2834 2853 
Q 2591 2978 2328 3040 
Q 2066 3103 1784 3103 
Q 1356 3103 1142 2972 
Q 928 2841 928 2578 
Q 928 2378 1081 2264 
Q 1234 2150 1697 2047 
L 1894 2003 
Q 2506 1872 2764 1633 
Q 3022 1394 3022 966 
Q 3022 478 2636 193 
Q 2250 -91 1575 -91 
Q 1294 -91 989 -36 
Q 684 19 347 128 
L 347 722 
Q 666 556 975 473 
Q 1284 391 1588 391 
Q 1994 391 2212 530 
Q 2431 669 2431 922 
Q 2431 1156 2273 1281 
Q 2116 1406 1581 1522 
L 1381 1569 
Q 847 1681 609 1914 
Q 372 2147 372 2553 
Q 372 3047 722 3315 
Q 1072 3584 1716 3584 
Q 2034 3584 2315 3537 
Q 2597 3491 2834 3397 
z
" id="DejaVuSans-73" transform="scale(0.015625)"/>
       <path d="M 1625 4666 
L 2156 4666 
L 531 -594 
L 0 -594 
L 1625 4666 
z
" id="DejaVuSans-2f" transform="scale(0.015625)"/>
       <path d="M 2906 2969 
L 2906 4863 
L 3481 4863 
L 3481 0 
L 2906 0 
L 2906 525 
Q 2725 213 2448 61 
Q 2172 -91 1784 -91 
Q 1150 -91 751 415 
Q 353 922 353 1747 
Q 353 2572 751 3078 
Q 1150 3584 1784 3584 
Q 2172 3584 2448 3432 
Q 2725 3281 2906 2969 
z
M 947 1747 
Q 947 1113 1208 752 
Q 1469 391 1925 391 
Q 2381 391 2643 752 
Q 2906 1113 2906 1747 
Q 2906 2381 2643 2742 
Q 2381 3103 1925 3103 
Q 1469 3103 1208 2742 
Q 947 2381 947 1747 
z
" id="DejaVuSans-64" transform="scale(0.015625)"/>
       <path d="M 603 3500 
L 1178 3500 
L 1178 0 
L 603 0 
L 603 3500 
z
M 603 4863 
L 1178 4863 
L 1178 4134 
L 603 4134 
L 603 4863 
z
" id="DejaVuSans-69" transform="scale(0.015625)"/>
       <path d="M 3328 2828 
Q 3544 3216 3844 3400 
Q 4144 3584 4550 3584 
Q 5097 3584 5394 3201 
Q 5691 2819 5691 2113 
L 5691 0 
L 5113 0 
L 5113 2094 
Q 5113 2597 4934 2840 
Q 4756 3084 4391 3084 
Q 3944 3084 3684 2787 
Q 3425 2491 3425 1978 
L 3425 0 
L 2847 0 
L 2847 2094 
Q 2847 2600 2669 2842 
Q 2491 3084 2119 3084 
Q 1678 3084 1418 2786 
Q 1159 2488 1159 1978 
L 1159 0 
L 581 0 
L 581 3500 
L 1159 3500 
L 1159 2956 
Q 1356 3278 1631 3431 
Q 1906 3584 2284 3584 
Q 2666 3584 2933 3390 
Q 3200 3197 3328 2828 
z
" id="DejaVuSans-6d" transform="scale(0.015625)"/>
       <path d="M 3513 2113 
L 3513 0 
L 2938 0 
L 2938 2094 
Q 2938 2591 2744 2837 
Q 2550 3084 2163 3084 
Q 1697 3084 1428 2787 
Q 1159 2491 1159 1978 
L 1159 0 
L 581 0 
L 581 3500 
L 1159 3500 
L 1159 2956 
Q 1366 3272 1645 3428 
Q 1925 3584 2291 3584 
Q 2894 3584 3203 3211 
Q 3513 2838 3513 2113 
z
" id="DejaVuSans-6e" transform="scale(0.015625)"/>
       <path d="M 513 4856 
L 1013 4856 
Q 1481 4119 1714 3412 
Q 1947 2706 1947 2009 
Q 1947 1309 1714 600 
Q 1481 -109 1013 -844 
L 513 -844 
Q 928 -128 1133 580 
Q 1338 1288 1338 2009 
Q 1338 2731 1133 3434 
Q 928 4138 513 4856 
z
" id="DejaVuSans-29" transform="scale(0.015625)"/>
      </defs>
      <use xlink:href="#DejaVuSans-6c"/>
      <use x="27.783203" xlink:href="#DejaVuSans-6f"/>
      <use x="88.964844" xlink:href="#DejaVuSans-67"/>
      <use x="152.441406" xlink:href="#DejaVuSans-31"/>
      <use x="216.064453" xlink:href="#DejaVuSans-30"/>
      <use x="279.6875" xlink:href="#DejaVuSans-28"/>
      <use x="318.701172" xlink:href="#DejaVuSans-23"/>
      <use x="402.490234" xlink:href="#DejaVuSans-20"/>
      <use x="434.277344" xlink:href="#DejaVuSans-66"/>
      <use x="463.982422" xlink:href="#DejaVuSans-2d"/>
      <use x="500.066406" xlink:href="#DejaVuSans-65"/>
      <use x="561.589844" xlink:href="#DejaVuSans-76"/>
      <use x="620.769531" xlink:href="#DejaVuSans-61"/>
      <use x="682.048828" xlink:href="#DejaVuSans-6c"/>
      <use x="709.832031" xlink:href="#DejaVuSans-73"/>
      <use x="761.931641" xlink:href="#DejaVuSans-20"/>
      <use x="793.71875" xlink:href="#DejaVuSans-2f"/>
      <use x="827.410156" xlink:href="#DejaVuSans-20"/>
      <use x="859.197266" xlink:href="#DejaVuSans-64"/>
      <use x="922.673828" xlink:href="#DejaVuSans-69"/>
      <use x="950.457031" xlink:href="#DejaVuSans-6d"/>
      <use x="1047.869141" xlink:href="#DejaVuSans-65"/>
      <use x="1109.392578" xlink:href="#DejaVuSans-6e"/>
      <use x="1172.771484" xlink:href="#DejaVuSans-73"/>
      <use x="1224.871094" xlink:href="#DejaVuSans-69"/>
      <use x="1252.654297" xlink:href="#DejaVuSans-6f"/>
      <use x="1313.835938" xlink:href="#DejaVuSans-6e"/>
      <use x="1377.214844" xlink:href="#DejaVuSans-29"/>
     </g>
    </g>
   </g>
   <g id="matplotlib.axis_2">
    <g id="ytick_1">
     <g id="line2d_21">
      <path clip-path="url(#pa2ae8b4b11)" d="M 57.6 298.944 
L 360.8064 298.944 
" style="fill:none;stroke:#b0b0b0;stroke-linecap:square;stroke-width:0.8;"/>
     </g>
     <g id="line2d_22">
      <defs>
       <path d="M 0 0 
L -3.5 0 
" id="m89ea8d3ab9" style="stroke:#000000;stroke-width:0.8;"/>
      </defs>
      <g>
       <use style="stroke:#000000;stroke-width:0.8;" x="57.6" xlink:href="#m89ea8d3ab9" y="298.944"/>
      </g>
     </g>
     <g id="text_6">
      <!-- 0.0 -->
      <g transform="translate(25.155 305.02275)scale(0.16 -0.16)">
       <defs>
        <path d="M 684 794 
L 1344 794 
L 1344 0 
L 684 0 
L 684 794 
z
" id="DejaVuSans-2e" transform="scale(0.015625)"/>
       </defs>
       <use xlink:href="#DejaVuSans-30"/>
       <use x="63.623047" xlink:href="#DejaVuSans-2e"/>
       <use x="95.410156" xlink:href="#DejaVuSans-30"/>
      </g>
     </g>
    </g>
    <g id="ytick_2">
     <g id="line2d_23">
      <path clip-path="url(#pa2ae8b4b11)" d="M 57.6 244.6848 
L 360.8064 244.6848 
" style="fill:none;stroke:#b0b0b0;stroke-linecap:square;stroke-width:0.8;"/>
     </g>
     <g id="line2d_24">
      <g>
       <use style="stroke:#000000;stroke-width:0.8;" x="57.6" xlink:href="#m89ea8d3ab9" y="244.6848"/>
      </g>
     </g>
     <g id="text_7">
      <!-- 0.2 -->
      <g transform="translate(25.155 250.76355)scale(0.16 -0.16)">
       <use xlink:href="#DejaVuSans-30"/>
       <use x="63.623047" xlink:href="#DejaVuSans-2e"/>
       <use x="95.410156" xlink:href="#DejaVuSans-32"/>
      </g>
     </g>
    </g>
    <g id="ytick_3">
     <g id="line2d_25">
      <path clip-path="url(#pa2ae8b4b11)" d="M 57.6 190.4256 
L 360.8064 190.4256 
" style="fill:none;stroke:#b0b0b0;stroke-linecap:square;stroke-width:0.8;"/>
     </g>
     <g id="line2d_26">
      <g>
       <use style="stroke:#000000;stroke-width:0.8;" x="57.6" xlink:href="#m89ea8d3ab9" y="190.4256"/>
      </g>
     </g>
     <g id="text_8">
      <!-- 0.4 -->
      <g transform="translate(25.155 196.50435)scale(0.16 -0.16)">
       <use xlink:href="#DejaVuSans-30"/>
       <use x="63.623047" xlink:href="#DejaVuSans-2e"/>
       <use x="95.410156" xlink:href="#DejaVuSans-34"/>
      </g>
     </g>
    </g>
    <g id="ytick_4">
     <g id="line2d_27">
      <path clip-path="url(#pa2ae8b4b11)" d="M 57.6 136.1664 
L 360.8064 136.1664 
" style="fill:none;stroke:#b0b0b0;stroke-linecap:square;stroke-width:0.8;"/>
     </g>
     <g id="line2d_28">
      <g>
       <use style="stroke:#000000;stroke-width:0.8;" x="57.6" xlink:href="#m89ea8d3ab9" y="136.1664"/>
      </g>
     </g>
     <g id="text_9">
      <!-- 0.6 -->
      <g transform="translate(25.155 142.24515)scale(0.16 -0.16)">
       <use xlink:href="#DejaVuSans-30"/>
       <use x="63.623047" xlink:href="#DejaVuSans-2e"/>
       <use x="95.410156" xlink:href="#DejaVuSans-36"/>
      </g>
     </g>
    </g>
    <g id="ytick_5">
     <g id="line2d_29">
      <path clip-path="url(#pa2ae8b4b11)" d="M 57.6 81.9072 
L 360.8064 81.9072 
" style="fill:none;stroke:#b0b0b0;stroke-linecap:square;stroke-width:0.8;"/>
     </g>
     <g id="line2d_30">
      <g>
       <use style="stroke:#000000;stroke-width:0.8;" x="57.6" xlink:href="#m89ea8d3ab9" y="81.9072"/>
      </g>
     </g>
     <g id="text_10">
      <!-- 0.8 -->
      <g transform="translate(25.155 87.98595)scale(0.16 -0.16)">
       <defs>
        <path d="M 2034 2216 
Q 1584 2216 1326 1975 
Q 1069 1734 1069 1313 
Q 1069 891 1326 650 
Q 1584 409 2034 409 
Q 2484 409 2743 651 
Q 3003 894 3003 1313 
Q 3003 1734 2745 1975 
Q 2488 2216 2034 2216 
z
M 1403 2484 
Q 997 2584 770 2862 
Q 544 3141 544 3541 
Q 544 4100 942 4425 
Q 1341 4750 2034 4750 
Q 2731 4750 3128 4425 
Q 3525 4100 3525 3541 
Q 3525 3141 3298 2862 
Q 3072 2584 2669 2484 
Q 3125 2378 3379 2068 
Q 3634 1759 3634 1313 
Q 3634 634 3220 271 
Q 2806 -91 2034 -91 
Q 1263 -91 848 271 
Q 434 634 434 1313 
Q 434 1759 690 2068 
Q 947 2378 1403 2484 
z
M 1172 3481 
Q 1172 3119 1398 2916 
Q 1625 2713 2034 2713 
Q 2441 2713 2670 2916 
Q 2900 3119 2900 3481 
Q 2900 3844 2670 4047 
Q 2441 4250 2034 4250 
Q 1625 4250 1398 4047 
Q 1172 3844 1172 3481 
z
" id="DejaVuSans-38" transform="scale(0.015625)"/>
       </defs>
       <use xlink:href="#DejaVuSans-30"/>
       <use x="63.623047" xlink:href="#DejaVuSans-2e"/>
       <use x="95.410156" xlink:href="#DejaVuSans-38"/>
      </g>
     </g>
    </g>
    <g id="ytick_6">
     <g id="line2d_31">
      <path clip-path="url(#pa2ae8b4b11)" d="M 57.6 27.648 
L 360.8064 27.648 
" style="fill:none;stroke:#b0b0b0;stroke-linecap:square;stroke-width:0.8;"/>
     </g>
     <g id="line2d_32">
      <g>
       <use style="stroke:#000000;stroke-width:0.8;" x="57.6" xlink:href="#m89ea8d3ab9" y="27.648"/>
      </g>
     </g>
     <g id="text_11">
      <!-- 1.0 -->
      <g transform="translate(25.155 33.72675)scale(0.16 -0.16)">
       <use xlink:href="#DejaVuSans-31"/>
       <use x="63.623047" xlink:href="#DejaVuSans-2e"/>
       <use x="95.410156" xlink:href="#DejaVuSans-30"/>
      </g>
     </g>
    </g>
    <g id="text_12">
     <!-- Fraction of function,target pairs -->
     <g transform="translate(17.619531 297.681)rotate(-90)scale(0.17 -0.17)">
      <defs>
       <path d="M 628 4666 
L 3309 4666 
L 3309 4134 
L 1259 4134 
L 1259 2759 
L 3109 2759 
L 3109 2228 
L 1259 2228 
L 1259 0 
L 628 0 
L 628 4666 
z
" id="DejaVuSans-46" transform="scale(0.015625)"/>
       <path d="M 2631 2963 
Q 2534 3019 2420 3045 
Q 2306 3072 2169 3072 
Q 1681 3072 1420 2755 
Q 1159 2438 1159 1844 
L 1159 0 
L 581 0 
L 581 3500 
L 1159 3500 
L 1159 2956 
Q 1341 3275 1631 3429 
Q 1922 3584 2338 3584 
Q 2397 3584 2469 3576 
Q 2541 3569 2628 3553 
L 2631 2963 
z
" id="DejaVuSans-72" transform="scale(0.015625)"/>
       <path d="M 3122 3366 
L 3122 2828 
Q 2878 2963 2633 3030 
Q 2388 3097 2138 3097 
Q 1578 3097 1268 2742 
Q 959 2388 959 1747 
Q 959 1106 1268 751 
Q 1578 397 2138 397 
Q 2388 397 2633 464 
Q 2878 531 3122 666 
L 3122 134 
Q 2881 22 2623 -34 
Q 2366 -91 2075 -91 
Q 1284 -91 818 406 
Q 353 903 353 1747 
Q 353 2603 823 3093 
Q 1294 3584 2113 3584 
Q 2378 3584 2631 3529 
Q 2884 3475 3122 3366 
z
" id="DejaVuSans-63" transform="scale(0.015625)"/>
       <path d="M 1172 4494 
L 1172 3500 
L 2356 3500 
L 2356 3053 
L 1172 3053 
L 1172 1153 
Q 1172 725 1289 603 
Q 1406 481 1766 481 
L 2356 481 
L 2356 0 
L 1766 0 
Q 1100 0 847 248 
Q 594 497 594 1153 
L 594 3053 
L 172 3053 
L 172 3500 
L 594 3500 
L 594 4494 
L 1172 4494 
z
" id="DejaVuSans-74" transform="scale(0.015625)"/>
       <path d="M 544 1381 
L 544 3500 
L 1119 3500 
L 1119 1403 
Q 1119 906 1312 657 
Q 1506 409 1894 409 
Q 2359 409 2629 706 
Q 2900 1003 2900 1516 
L 2900 3500 
L 3475 3500 
L 3475 0 
L 2900 0 
L 2900 538 
Q 2691 219 2414 64 
Q 2138 -91 1772 -91 
Q 1169 -91 856 284 
Q 544 659 544 1381 
z
M 1991 3584 
L 1991 3584 
z
" id="DejaVuSans-75" transform="scale(0.015625)"/>
       <path d="M 750 794 
L 1409 794 
L 1409 256 
L 897 -744 
L 494 -744 
L 750 256 
L 750 794 
z
" id="DejaVuSans-2c" transform="scale(0.015625)"/>
       <path d="M 1159 525 
L 1159 -1331 
L 581 -1331 
L 581 3500 
L 1159 3500 
L 1159 2969 
Q 1341 3281 1617 3432 
Q 1894 3584 2278 3584 
Q 2916 3584 3314 3078 
Q 3713 2572 3713 1747 
Q 3713 922 3314 415 
Q 2916 -91 2278 -91 
Q 1894 -91 1617 61 
Q 1341 213 1159 525 
z
M 3116 1747 
Q 3116 2381 2855 2742 
Q 2594 3103 2138 3103 
Q 1681 3103 1420 2742 
Q 1159 2381 1159 1747 
Q 1159 1113 1420 752 
Q 1681 391 2138 391 
Q 2594 391 2855 752 
Q 3116 1113 3116 1747 
z
" id="DejaVuSans-70" transform="scale(0.015625)"/>
      </defs>
      <use xlink:href="#DejaVuSans-46"/>
      <use x="50.269531" xlink:href="#DejaVuSans-72"/>
      <use x="91.382812" xlink:href="#DejaVuSans-61"/>
      <use x="152.662109" xlink:href="#DejaVuSans-63"/>
      <use x="207.642578" xlink:href="#DejaVuSans-74"/>
      <use x="246.851562" xlink:href="#DejaVuSans-69"/>
      <use x="274.634766" xlink:href="#DejaVuSans-6f"/>
      <use x="335.816406" xlink:href="#DejaVuSans-6e"/>
      <use x="399.195312" xlink:href="#DejaVuSans-20"/>
      <use x="430.982422" xlink:href="#DejaVuSans-6f"/>
      <use x="492.164062" xlink:href="#DejaVuSans-66"/>
      <use x="527.369141" xlink:href="#DejaVuSans-20"/>
      <use x="559.15625" xlink:href="#DejaVuSans-66"/>
      <use x="594.361328" xlink:href="#DejaVuSans-75"/>
      <use x="657.740234" xlink:href="#DejaVuSans-6e"/>
      <use x="721.119141" xlink:href="#DejaVuSans-63"/>
      <use x="776.099609" xlink:href="#DejaVuSans-74"/>
      <use x="815.308594" xlink:href="#DejaVuSans-69"/>
      <use x="843.091797" xlink:href="#DejaVuSans-6f"/>
      <use x="904.273438" xlink:href="#DejaVuSans-6e"/>
      <use x="967.652344" xlink:href="#DejaVuSans-2c"/>
      <use x="999.439453" xlink:href="#DejaVuSans-74"/>
      <use x="1038.648438" xlink:href="#DejaVuSans-61"/>
      <use x="1099.927734" xlink:href="#DejaVuSans-72"/>
      <use x="1139.291016" xlink:href="#DejaVuSans-67"/>
      <use x="1202.767578" xlink:href="#DejaVuSans-65"/>
      <use x="1264.291016" xlink:href="#DejaVuSans-74"/>
      <use x="1303.5" xlink:href="#DejaVuSans-20"/>
      <use x="1335.287109" xlink:href="#DejaVuSans-70"/>
      <use x="1398.763672" xlink:href="#DejaVuSans-61"/>
      <use x="1460.042969" xlink:href="#DejaVuSans-69"/>
      <use x="1487.826172" xlink:href="#DejaVuSans-72"/>
      <use x="1528.939453" xlink:href="#DejaVuSans-73"/>
     </g>
    </g>
   </g>
   <g id="line2d_33">
    <defs>
     <path d="M 0 1.5 
C 0.397805 1.5 0.77937 1.341951 1.06066 1.06066 
C 1.341951 0.77937 1.5 0.397805 1.5 0 
C 1.5 -0.397805 1.341951 -0.77937 1.06066 -1.06066 
C 0.77937 -1.341951 0.397805 -1.5 0 -1.5 
C -0.397805 -1.5 -0.77937 -1.341951 -1.06066 -1.06066 
C -1.341951 -0.77937 -1.5 -0.397805 -1.5 0 
C -1.5 0.397805 -1.341951 0.77937 -1.06066 1.06066 
C -0.77937 1.341951 -0.397805 1.5 0 1.5 
z
" id="m27795caacd" style="stroke:#f5deb3;"/>
    </defs>
    <g>
     <use style="fill:#f5deb3;stroke:#f5deb3;" x="176.196469" xlink:href="#m27795caacd" y="27.648"/>
     <use style="fill:#f5deb3;stroke:#f5deb3;" x="176.196469" xlink:href="#m27795caacd" y="27.648"/>
    </g>
   </g>
   <g id="line2d_34">
    <defs>
     <path d="M 0 1.5 
C 0.397805 1.5 0.77937 1.341951 1.06066 1.06066 
C 1.341951 0.77937 1.5 0.397805 1.5 0 
C 1.5 -0.397805 1.341951 -0.77937 1.06066 -1.06066 
C 0.77937 -1.341951 0.397805 -1.5 0 -1.5 
C -0.397805 -1.5 -0.77937 -1.341951 -1.06066 -1.06066 
C -1.341951 -0.77937 -1.5 -0.397805 -1.5 0 
C -1.5 0.397805 -1.341951 0.77937 -1.06066 1.06066 
C -0.77937 1.341951 -0.397805 1.5 0 1.5 
z
" id="m70c5deebf3" style="stroke:#000080;"/>
    </defs>
    <g>
     <use style="fill:#000080;stroke:#000080;" x="281.17465" xlink:href="#m70c5deebf3" y="245.748706"/>
     <use style="fill:#000080;stroke:#000080;" x="281.17465" xlink:href="#m70c5deebf3" y="245.748706"/>
    </g>
   </g>
   <g id="line2d_35">
    <path d="M 179.035263 298.944 
L 179.035263 298.589365 
L 179.542926 298.589365 
L 179.542926 297.880094 
L 179.879569 297.880094 
L 179.879569 297.525459 
L 180.365235 297.525459 
L 180.365235 297.170824 
L 181.503895 297.170824 
L 181.503895 296.816188 
L 182.216443 296.816188 
L 182.216443 296.461553 
L 182.738541 296.461553 
L 182.738541 295.752282 
L 183.84681 295.752282 
L 183.933625 295.043012 
L 185.769402 295.043012 
L 185.769402 294.688376 
L 187.490967 294.688376 
L 187.490967 294.333741 
L 188.479536 294.333741 
L 188.479536 293.979106 
L 189.364167 293.979106 
L 189.364167 293.624471 
L 192.049284 293.624471 
L 192.072959 292.560565 
L 195.955395 292.560565 
L 195.955395 291.851294 
L 197.146368 291.851294 
L 197.146368 291.496659 
L 200.94161 291.496659 
L 200.94161 290.787388 
L 201.240096 290.787388 
L 201.240096 290.432753 
L 201.685339 290.432753 
L 201.685339 290.078118 
L 201.953111 290.078118 
L 201.953111 289.723482 
L 203.750098 289.723482 
L 203.76599 289.014212 
L 204.110689 289.014212 
L 204.110689 288.659576 
L 204.882263 288.659576 
L 204.942047 287.950306 
L 205.047696 287.950306 
L 205.047696 287.595671 
L 205.880709 287.595671 
L 205.880709 287.241035 
L 206.652523 287.241035 
L 206.652523 286.8864 
L 206.892156 286.8864 
L 206.892156 286.531765 
L 207.923435 286.531765 
L 208.016172 285.822494 
L 208.589024 285.822494 
L 208.589024 285.467859 
L 209.117476 285.467859 
L 209.117476 285.113224 
L 209.966903 285.113224 
L 209.966903 284.049318 
L 211.665454 284.049318 
L 211.724855 283.340047 
L 212.322894 283.340047 
L 212.322894 282.985412 
L 212.445462 282.985412 
L 212.445462 282.630776 
L 212.854554 282.630776 
L 212.854554 282.276141 
L 216.478695 282.276141 
L 216.526315 281.566871 
L 216.877697 281.566871 
L 216.961376 280.8576 
L 217.145574 280.8576 
L 217.145574 280.502965 
L 217.818239 280.502965 
L 217.818239 279.793694 
L 218.207049 279.793694 
L 218.207049 279.439059 
L 218.819893 279.439059 
L 218.825601 278.729788 
L 222.378537 278.729788 
L 222.378537 278.375153 
L 222.824416 278.375153 
L 222.824416 278.020518 
L 223.192789 278.020518 
L 223.192789 277.665882 
L 224.072825 277.665882 
L 224.072825 277.311247 
L 224.928487 277.311247 
L 224.928487 276.247341 
L 226.287158 276.247341 
L 226.287158 275.892706 
L 228.212284 275.892706 
L 228.212284 275.183435 
L 228.41004 275.183435 
L 228.518586 273.055624 
L 228.697975 273.055624 
L 228.697975 272.700988 
L 228.881104 272.700988 
L 228.881104 272.346353 
L 230.029475 272.346353 
L 230.029475 271.637082 
L 230.22935 271.637082 
L 230.22935 271.282447 
L 230.940205 271.282447 
L 230.940205 270.927812 
L 231.823891 270.927812 
L 231.849253 270.218541 
L 232.053047 270.218541 
L 232.053047 269.863906 
L 233.155408 269.863906 
L 233.155408 269.509271 
L 233.873199 269.509271 
L 233.873199 268.8 
L 235.475941 268.8 
L 235.550565 267.381459 
L 235.674187 267.381459 
L 235.674187 267.026824 
L 235.800764 267.026824 
L 235.800764 265.608282 
L 236.194458 265.608282 
L 236.194458 265.253647 
L 236.603107 265.253647 
L 236.603107 264.544376 
L 237.875509 264.544376 
L 237.875509 263.480471 
L 238.194111 263.480471 
L 238.194111 263.125835 
L 238.456724 263.125835 
L 238.456724 262.7712 
L 238.571691 262.7712 
L 238.571691 262.416565 
L 238.859886 262.416565 
L 238.859886 261.707294 
L 239.520004 261.707294 
L 239.520004 261.352659 
L 240.65312 261.352659 
L 240.65312 260.998024 
L 240.848384 260.998024 
L 240.848384 260.643388 
L 242.463167 260.643388 
L 242.463167 260.288753 
L 243.756176 260.288753 
L 243.756176 259.579482 
L 244.604556 259.579482 
L 244.669675 258.870212 
L 244.917409 258.870212 
L 244.917409 258.515576 
L 245.067398 258.515576 
L 245.067398 258.160941 
L 248.30903 258.160941 
L 248.30903 257.806306 
L 249.211731 257.806306 
L 249.211731 257.451671 
L 249.756924 257.451671 
L 249.756924 257.097035 
L 250.129641 257.097035 
L 250.129641 256.387765 
L 250.680473 256.387765 
L 250.680473 256.033129 
L 252.655271 256.033129 
L 252.655271 255.678494 
L 253.482949 255.678494 
L 253.482949 255.323859 
L 254.176869 255.323859 
L 254.176869 254.969224 
L 254.592726 254.969224 
L 254.592726 254.614588 
L 254.8816 254.614588 
L 254.8816 254.259953 
L 255.766019 254.259953 
L 255.766019 253.905318 
L 257.536472 253.905318 
L 257.536472 253.550682 
L 259.090888 253.550682 
L 259.162813 252.841412 
L 259.27671 252.841412 
L 259.27671 252.486776 
L 260.698837 252.486776 
L 260.698837 252.132141 
L 261.825255 252.132141 
L 261.825255 251.777506 
L 262.162011 251.777506 
L 262.180101 251.068235 
L 263.699927 251.068235 
L 263.699927 250.358965 
L 264.969961 250.358965 
L 264.969961 250.004329 
L 266.080725 250.004329 
L 266.080725 249.649694 
L 267.204193 249.649694 
L 267.27855 248.231153 
L 267.963301 248.231153 
L 267.963301 247.876518 
L 268.33462 247.876518 
L 268.33462 247.521882 
L 269.267896 247.521882 
L 269.267896 247.167247 
L 275.853056 247.167247 
L 275.853056 246.812612 
L 277.124322 246.812612 
L 277.124322 246.457976 
L 278.975123 246.457976 
L 278.975123 246.103341 
L 281.17465 246.103341 
L 281.17465 245.748706 
L 360.8064 245.748706 
L 360.8064 245.748706 
" style="fill:none;stroke:#000080;stroke-linecap:square;stroke-width:1.5;"/>
   </g>
   <g id="line2d_36">
    <defs>
     <path d="M 0 6 
C 1.591219 6 3.117479 5.367802 4.242641 4.242641 
C 5.367802 3.117479 6 1.591219 6 0 
C 6 -1.591219 5.367802 -3.117479 4.242641 -4.242641 
C 3.117479 -5.367802 1.591219 -6 0 -6 
C -1.591219 -6 -3.117479 -5.367802 -4.242641 -4.242641 
C -5.367802 -3.117479 -6 -1.591219 -6 0 
C -6 1.591219 -5.367802 3.117479 -4.242641 4.242641 
C -3.117479 5.367802 -1.591219 6 0 6 
z
" id="m3ea995989e" style="stroke:#000080;stroke-width:1.5;"/>
    </defs>
    <g>
     <use style="fill-opacity:0;stroke:#000080;stroke-width:1.5;" x="237.875509" xlink:href="#m3ea995989e" y="263.480471"/>
     <use style="fill-opacity:0;stroke:#000080;stroke-width:1.5;" x="281.17465" xlink:href="#m3ea995989e" y="246.103341"/>
     <use style="fill-opacity:0;stroke:#000080;stroke-width:1.5;" x="281.17465" xlink:href="#m3ea995989e" y="245.748706"/>
     <use style="fill-opacity:0;stroke:#000080;stroke-width:1.5;" x="360.8064" xlink:href="#m3ea995989e" y="245.748706"/>
    </g>
   </g>
   <g id="line2d_37">
    <path style="fill:none;stroke:#000080;stroke-linecap:square;stroke-width:1.5;"/>
    <g/>
   </g>
   <g id="line2d_38">
    <path clip-path="url(#pa2ae8b4b11)" d="M 213.633352 282.276141 
" style="fill:none;stroke:#000080;stroke-linecap:square;stroke-width:1.5;"/>
    <defs>
     <path d="M -12 12 
L 12 -12 
M -12 -12 
L 12 12 
" id="me2d5d4cad4" style="stroke:#000080;"/>
    </defs>
    <g clip-path="url(#pa2ae8b4b11)">
     <use style="fill:#000080;stroke:#000080;" x="213.633352" xlink:href="#me2d5d4cad4" y="282.276141"/>
    </g>
   </g>
   <g id="line2d_39">
    <defs>
     <path d="M 0 1.5 
C 0.397805 1.5 0.77937 1.341951 1.06066 1.06066 
C 1.341951 0.77937 1.5 0.397805 1.5 0 
C 1.5 -0.397805 1.341951 -0.77937 1.06066 -1.06066 
C 0.77937 -1.341951 0.397805 -1.5 0 -1.5 
C -0.397805 -1.5 -0.77937 -1.341951 -1.06066 -1.06066 
C -1.341951 -0.77937 -1.5 -0.397805 -1.5 0 
C -1.5 0.397805 -1.341951 0.77937 -1.06066 1.06066 
C -0.77937 1.341951 -0.397805 1.5 0 1.5 
z
" id="m819881ca67" style="stroke:#ff00ff;"/>
    </defs>
    <g>
     <use style="fill:#ff00ff;stroke:#ff00ff;" x="205.327537" xlink:href="#m819881ca67" y="27.648"/>
     <use style="fill:#ff00ff;stroke:#ff00ff;" x="205.327537" xlink:href="#m819881ca67" y="27.648"/>
    </g>
   </g>
   <g id="line2d_40">
    <path d="M 139.556456 298.944 
L 139.556456 298.589365 
L 139.819894 298.589365 
L 139.819894 298.234729 
L 139.93843 298.234729 
L 139.93843 297.880094 
L 140.126547 297.880094 
L 140.126547 297.525459 
L 140.359078 297.525459 
L 140.359078 297.170824 
L 140.815692 297.170824 
L 140.860749 295.752282 
L 140.950542 295.752282 
L 140.972924 294.688376 
L 141.195285 294.688376 
L 141.305488 293.624471 
L 141.632274 293.624471 
L 141.739954 292.205929 
L 141.761416 292.205929 
L 141.868361 291.496659 
L 141.953481 291.496659 
L 141.953481 291.142024 
L 142.164612 291.142024 
L 142.164612 290.787388 
L 142.352625 290.787388 
L 142.45627 289.723482 
L 142.559347 289.723482 
L 142.661862 287.950306 
L 142.743475 287.950306 
L 142.784148 286.8864 
L 142.945969 286.8864 
L 142.945969 286.531765 
L 143.146307 286.531765 
L 143.225848 284.758588 
L 143.305055 284.758588 
L 143.305055 284.403953 
L 143.657415 284.403953 
L 143.657415 284.049318 
L 143.792681 284.049318 
L 143.888708 283.340047 
L 144.06033 283.340047 
L 144.136106 282.630776 
L 144.602918 282.630776 
L 144.658165 281.212235 
L 144.877544 281.212235 
L 144.877544 280.8576 
L 145.004344 280.8576 
L 145.058426 280.148329 
L 145.148219 280.148329 
L 145.219746 278.020518 
L 145.379694 278.020518 
L 145.379694 277.665882 
L 145.538293 277.665882 
L 145.643288 275.892706 
L 145.66073 275.892706 
L 145.7477 275.183435 
L 145.79969 275.183435 
L 145.79969 274.8288 
L 145.954802 274.8288 
L 146.023332 273.764894 
L 146.193574 273.764894 
L 146.193574 273.410259 
L 146.345485 273.410259 
L 146.446082 272.700988 
L 146.546143 272.700988 
L 146.546143 272.346353 
L 146.826795 272.346353 
L 146.892226 270.927812 
L 147.135588 270.927812 
L 147.167799 269.863906 
L 147.328035 269.863906 
L 147.407644 268.8 
L 147.831805 268.8 
L 147.831805 268.445365 
L 147.955668 268.445365 
L 148.063382 267.381459 
L 148.155221 267.381459 
L 148.216198 266.672188 
L 148.503173 266.672188 
L 148.607806 265.962918 
L 148.771063 265.962918 
L 148.771063 265.608282 
L 148.888912 265.608282 
L 148.947561 264.899012 
L 149.035192 264.899012 
L 149.035192 264.544376 
L 149.524205 264.544376 
L 149.524205 264.189741 
L 150.546523 264.189741 
L 150.546523 263.835106 
L 150.945652 263.835106 
L 150.945652 263.480471 
L 153.696309 263.480471 
L 153.696309 263.125835 
L 153.899924 263.125835 
L 153.899924 262.7712 
L 158.169469 262.7712 
L 158.169469 262.416565 
L 160.255188 262.416565 
L 160.35923 261.352659 
L 160.769737 261.352659 
L 160.769737 260.998024 
L 160.917524 260.998024 
L 160.979404 259.934118 
L 161.079527 259.934118 
L 161.13322 259.224847 
L 161.497325 259.224847 
L 161.497325 258.515576 
L 161.609678 258.515576 
L 161.676769 257.806306 
L 161.736206 257.806306 
L 161.736206 257.451671 
L 161.854518 257.451671 
L 161.854518 257.097035 
L 162.001369 257.097035 
L 162.052497 256.033129 
L 162.147083 256.033129 
L 162.190578 255.323859 
L 162.363559 255.323859 
L 162.435167 254.259953 
L 162.577572 254.259953 
L 162.676617 253.196047 
L 162.697774 253.196047 
L 162.775144 252.132141 
L 162.859187 252.132141 
L 162.928937 251.068235 
L 162.998429 251.068235 
L 163.102189 250.004329 
L 163.164171 250.004329 
L 163.267023 248.940424 
L 163.294355 248.940424 
L 163.321648 248.231153 
L 163.464289 248.231153 
L 163.558786 247.521882 
L 163.59242 247.521882 
L 163.632702 246.812612 
L 163.713007 246.812612 
L 163.779668 245.394071 
L 163.885835 245.394071 
L 163.925494 244.330165 
L 164.09639 244.330165 
L 164.207296 242.202353 
L 164.291668 242.202353 
L 164.291668 241.847718 
L 164.433594 241.847718 
L 164.542535 240.783812 
L 164.657201 240.783812 
L 164.745905 239.365271 
L 164.859342 239.365271 
L 164.859342 239.010635 
L 164.990826 239.010635 
L 165.0033 238.301365 
L 165.1152 238.301365 
L 165.158538 237.592094 
L 165.422585 237.592094 
L 165.422585 237.237459 
L 165.580463 237.237459 
L 165.580463 236.882824 
L 165.760997 236.882824 
L 165.784938 235.818918 
L 165.91013 235.818918 
L 165.91013 235.464282 
L 166.028591 235.464282 
L 166.028591 235.109647 
L 166.175626 235.109647 
L 166.175626 234.755012 
L 166.40273 234.755012 
L 166.477826 234.045741 
L 166.837566 234.045741 
L 166.905315 233.336471 
L 166.950346 233.336471 
L 166.950346 232.981835 
L 167.079212 232.981835 
L 167.095955 232.272565 
L 167.416772 232.272565 
L 167.509777 231.208659 
L 167.542492 231.208659 
L 167.6403 230.499388 
L 167.925369 230.499388 
L 167.925369 230.144753 
L 168.079542 230.144753 
L 168.079542 229.790118 
L 168.384146 229.790118 
L 168.456938 228.726212 
L 168.503585 228.726212 
L 168.591381 227.662306 
L 168.760648 227.662306 
L 168.760648 227.307671 
L 169.079624 227.307671 
L 169.124754 226.5984 
L 169.219673 226.5984 
L 169.299236 225.889129 
L 169.614163 225.889129 
L 169.614163 225.534494 
L 169.735764 225.534494 
L 169.784185 224.115953 
L 169.928705 224.115953 
L 169.928705 223.761318 
L 170.242793 223.761318 
L 170.294635 222.697412 
L 170.53779 222.697412 
L 170.584193 221.988141 
L 170.699701 221.988141 
L 170.759486 221.278871 
L 170.9104 221.278871 
L 170.924059 219.860329 
L 171.051073 219.860329 
L 171.078179 218.796424 
L 171.248949 218.796424 
L 171.356011 217.377882 
L 171.435909 217.377882 
L 171.537509 216.668612 
L 171.647326 216.668612 
L 171.71291 215.250071 
L 171.800001 215.250071 
L 171.895337 213.831529 
L 171.990192 213.831529 
L 172.097406 212.412988 
L 172.165703 212.412988 
L 172.267686 210.994447 
L 172.293095 210.994447 
L 172.356469 209.930541 
L 172.444836 209.930541 
L 172.52025 209.221271 
L 172.591198 209.221271 
L 172.591198 208.866635 
L 172.703332 208.866635 
L 172.757085 208.157365 
L 172.90924 208.157365 
L 173.015428 207.093459 
L 173.027642 207.093459 
L 173.064236 206.029553 
L 173.274288 206.029553 
L 173.382435 204.256376 
L 173.398404 204.256376 
L 173.497905 203.192471 
L 173.513776 203.192471 
L 173.577128 202.4832 
L 173.805007 202.4832 
L 173.902386 201.419294 
L 173.937319 201.419294 
L 174.041731 200.710024 
L 174.05715 200.710024 
L 174.061003 200.000753 
L 174.172394 200.000753 
L 174.252647 198.936847 
L 174.498899 198.936847 
L 174.498899 198.582212 
L 174.615217 198.582212 
L 174.715944 197.163671 
L 174.734538 197.163671 
L 174.808731 196.4544 
L 174.992942 196.4544 
L 174.992942 196.099765 
L 175.323647 196.099765 
L 175.40632 194.681224 
L 175.460042 194.681224 
L 175.542118 193.262682 
L 175.574138 193.262682 
L 175.641557 192.553412 
L 175.708734 192.553412 
L 175.800275 191.489506 
L 175.842375 191.489506 
L 175.908841 190.780235 
L 176.058402 190.780235 
L 176.103385 189.716329 
L 176.278825 189.716329 
L 176.381266 187.943153 
L 176.435674 187.943153 
L 176.520373 187.233882 
L 176.611421 187.233882 
L 176.708725 186.524612 
L 176.748842 186.524612 
L 176.858725 185.460706 
L 176.878635 185.460706 
L 176.971271 184.751435 
L 177.027292 184.751435 
L 177.115925 183.332894 
L 177.200883 183.332894 
L 177.301679 182.623624 
L 177.398713 182.623624 
L 177.45991 181.914353 
L 177.591292 181.914353 
L 177.680491 180.141176 
L 177.705899 180.141176 
L 177.791399 178.722635 
L 177.857632 178.722635 
L 177.961242 176.949459 
L 178.095399 176.949459 
L 178.19462 175.530918 
L 178.25945 175.530918 
L 178.336339 174.112376 
L 178.455661 174.112376 
L 178.5439 173.048471 
L 178.610565 173.048471 
L 178.719145 170.920659 
L 178.785193 170.920659 
L 178.892773 168.792847 
L 178.928497 168.792847 
L 179.026389 167.374306 
L 179.08842 167.374306 
L 179.182551 166.3104 
L 179.206011 166.3104 
L 179.317046 164.537224 
L 179.337428 164.537224 
L 179.401344 163.473318 
L 179.459261 163.473318 
L 179.568815 162.054776 
L 179.669159 162.054776 
L 179.749051 161.345506 
L 179.800231 161.345506 
L 179.890875 159.926965 
L 179.938853 159.926965 
L 179.98952 158.863059 
L 180.146284 158.863059 
L 180.18249 157.799153 
L 180.260235 157.799153 
L 180.348695 155.671341 
L 180.428504 155.671341 
L 180.458688 154.607435 
L 180.546222 154.607435 
L 180.649643 152.834259 
L 180.760594 152.834259 
L 180.822549 151.061082 
L 180.903055 151.061082 
L 180.919115 149.997176 
L 181.023172 149.997176 
L 181.116069 147.514729 
L 181.166307 147.514729 
L 181.274261 146.805459 
L 181.295253 146.805459 
L 181.386819 145.741553 
L 181.423321 145.741553 
L 181.457152 145.032282 
L 181.597035 145.032282 
L 181.694851 143.259106 
L 181.730761 143.259106 
L 181.835532 140.776659 
L 181.863543 140.776659 
L 181.949858 140.067388 
L 181.980227 140.067388 
L 182.060975 138.648847 
L 182.111266 138.648847 
L 182.161424 137.230306 
L 182.266321 137.230306 
L 182.36816 135.102494 
L 182.383017 135.102494 
L 182.466986 133.329318 
L 182.503913 133.329318 
L 182.587345 131.556141 
L 182.682594 131.556141 
L 182.777362 129.073694 
L 182.825777 129.073694 
L 182.92464 127.300518 
L 182.951076 127.300518 
L 183.003836 126.236612 
L 183.085085 126.236612 
L 183.17548 124.463435 
L 183.208674 124.463435 
L 183.255993 122.690259 
L 183.371423 122.690259 
L 183.479146 119.143906 
L 183.6025 119.143906 
L 183.713524 117.016094 
L 183.725052 117.016094 
L 183.789475 115.597553 
L 183.851389 115.597553 
L 183.960958 113.115106 
L 183.967785 113.115106 
L 184.072155 112.0512 
L 184.083465 112.0512 
L 184.139912 110.278024 
L 184.205179 110.278024 
L 184.310478 109.214118 
L 184.332807 109.214118 
L 184.437396 107.440941 
L 184.448488 107.440941 
L 184.521534 106.0224 
L 184.570075 106.0224 
L 184.677739 104.603859 
L 184.712762 104.603859 
L 184.819615 103.185318 
L 184.823963 103.185318 
L 184.928026 102.121412 
L 184.95827 102.121412 
L 185.033667 101.057506 
L 185.085194 101.057506 
L 185.16222 99.638965 
L 185.200616 99.638965 
L 185.268681 98.220424 
L 185.378765 98.220424 
L 185.456703 96.447247 
L 185.607448 96.447247 
L 185.692752 94.674071 
L 185.818955 94.674071 
L 185.919723 92.900894 
L 185.981152 92.900894 
L 186.064781 91.127718 
L 186.12371 91.127718 
L 186.220844 88.999906 
L 186.253111 88.999906 
L 186.253111 88.645271 
L 186.417615 88.645271 
L 186.487395 86.162824 
L 186.552951 86.162824 
L 186.659734 84.744282 
L 186.693226 84.744282 
L 186.693226 84.389647 
L 186.824645 84.389647 
L 186.902669 82.971106 
L 186.974554 82.971106 
L 187.063544 81.552565 
L 187.090544 81.552565 
L 187.150193 80.843294 
L 187.272744 80.843294 
L 187.366036 78.715482 
L 187.407772 78.715482 
L 187.506054 76.942306 
L 187.519245 76.942306 
L 187.519245 76.587671 
L 187.695494 76.587671 
L 187.796001 74.814494 
L 187.836795 74.814494 
L 187.895974 72.686682 
L 187.960489 72.686682 
L 188.039448 71.622776 
L 188.09434 71.622776 
L 188.176379 70.913506 
L 188.306902 70.913506 
L 188.368225 70.204235 
L 188.420372 70.204235 
L 188.502792 69.140329 
L 188.558133 69.140329 
L 188.558133 68.785694 
L 188.763784 68.785694 
L 188.857002 66.657882 
L 189.029899 66.657882 
L 189.042064 65.593976 
L 189.38465 65.593976 
L 189.38465 65.239341 
L 189.525714 65.239341 
L 189.596694 64.175435 
L 189.793026 64.175435 
L 189.902879 62.756894 
L 189.904539 62.756894 
L 189.931071 62.047624 
L 190.110835 62.047624 
L 190.218854 61.338353 
L 190.275885 61.338353 
L 190.378109 59.210541 
L 190.420135 59.210541 
L 190.500692 58.501271 
L 190.556877 58.501271 
L 190.624078 57.082729 
L 190.678304 57.082729 
L 190.783122 56.018824 
L 190.819512 56.018824 
L 190.873179 55.309553 
L 191.080091 55.309553 
L 191.080091 54.954918 
L 191.224515 54.954918 
L 191.224515 54.600282 
L 191.445974 54.600282 
L 191.505507 52.827106 
L 191.630067 52.827106 
L 191.738761 51.7632 
L 191.752304 51.7632 
L 191.85132 49.990024 
L 191.899141 49.990024 
L 191.908094 49.280753 
L 192.103988 49.280753 
L 192.118745 48.571482 
L 192.253975 48.571482 
L 192.350392 47.152941 
L 192.394056 47.152941 
L 192.469499 46.089035 
L 192.619485 46.089035 
L 192.71691 45.379765 
L 192.772559 45.379765 
L 192.830885 44.670494 
L 192.986482 44.670494 
L 193.0076 43.961224 
L 193.328481 43.961224 
L 193.328481 43.606588 
L 193.590854 43.606588 
L 193.684745 42.897318 
L 193.718649 42.897318 
L 193.790322 41.478776 
L 193.834811 41.478776 
L 193.842889 40.769506 
L 193.989033 40.769506 
L 193.989033 40.414871 
L 194.112833 40.414871 
L 194.112833 40.060235 
L 194.23055 40.060235 
L 194.23055 39.7056 
L 194.373724 39.7056 
L 194.454679 38.641694 
L 194.602629 38.641694 
L 194.602629 38.287059 
L 194.799381 38.287059 
L 194.799381 37.932424 
L 195.009284 37.932424 
L 195.056033 37.223153 
L 195.165502 37.223153 
L 195.165502 36.868518 
L 195.486437 36.868518 
L 195.486437 36.513882 
L 195.957801 36.513882 
L 196.014251 35.804612 
L 196.325861 35.804612 
L 196.325861 35.449976 
L 196.616139 35.449976 
L 196.723849 34.740706 
L 196.938578 34.740706 
L 196.938578 34.386071 
L 197.258951 34.386071 
L 197.258951 34.031435 
L 198.2898 34.031435 
L 198.2898 33.6768 
L 198.550453 33.6768 
L 198.605915 32.967529 
L 198.687242 32.967529 
L 198.687242 32.612894 
L 199.048924 32.612894 
L 199.10192 31.903624 
L 199.292285 31.903624 
L 199.292285 31.548988 
L 199.546459 31.548988 
L 199.546459 31.194353 
L 200.1663 31.194353 
L 200.1663 30.839718 
L 201.200995 30.839718 
L 201.200995 30.485082 
L 201.381271 30.485082 
L 201.381271 30.130447 
L 201.879502 30.130447 
L 201.879502 29.775812 
L 202.707423 29.775812 
L 202.707423 29.421176 
L 203.168056 29.421176 
L 203.168056 29.066541 
L 203.904471 29.066541 
L 203.904471 28.711906 
L 204.19705 28.711906 
L 204.211017 28.002635 
L 205.327537 28.002635 
L 205.327537 27.648 
L 360.8064 27.648 
L 360.8064 27.648 
" style="fill:none;stroke:#ff00ff;stroke-linecap:square;stroke-width:1.5;"/>
   </g>
   <g id="line2d_41">
    <defs>
     <path d="M -0 8.485281 
L 5.091169 0 
L 0 -8.485281 
L -5.091169 -0 
z
" id="mbc3a1f668a" style="stroke:#ff00ff;stroke-linejoin:miter;stroke-width:1.5;"/>
    </defs>
    <g>
     <use style="fill-opacity:0;stroke:#ff00ff;stroke-linejoin:miter;stroke-width:1.5;" x="158.169469" xlink:href="#mbc3a1f668a" y="262.416565"/>
     <use style="fill-opacity:0;stroke:#ff00ff;stroke-linejoin:miter;stroke-width:1.5;" x="190.873179" xlink:href="#mbc3a1f668a" y="55.309553"/>
     <use style="fill-opacity:0;stroke:#ff00ff;stroke-linejoin:miter;stroke-width:1.5;" x="205.327537" xlink:href="#mbc3a1f668a" y="28.002635"/>
     <use style="fill-opacity:0;stroke:#ff00ff;stroke-linejoin:miter;stroke-width:1.5;" x="205.327537" xlink:href="#mbc3a1f668a" y="27.648"/>
     <use style="fill-opacity:0;stroke:#ff00ff;stroke-linejoin:miter;stroke-width:1.5;" x="360.8064" xlink:href="#mbc3a1f668a" y="27.648"/>
    </g>
   </g>
   <g id="line2d_42">
    <path style="fill:none;stroke:#ff00ff;stroke-linecap:square;stroke-width:1.5;"/>
    <g/>
   </g>
   <g id="line2d_43">
    <path clip-path="url(#pa2ae8b4b11)" d="M 153.899924 262.7712 
" style="fill:none;stroke:#ff00ff;stroke-linecap:square;stroke-width:1.5;"/>
    <defs>
     <path d="M -12 12 
L 12 -12 
M -12 -12 
L 12 12 
" id="m352b6de5e3" style="stroke:#ff00ff;"/>
    </defs>
    <g clip-path="url(#pa2ae8b4b11)">
     <use style="fill:#ff00ff;stroke:#ff00ff;" x="153.899924" xlink:href="#m352b6de5e3" y="262.7712"/>
    </g>
   </g>
   <g id="line2d_44">
    <path d="M 360.8064 245.748706 
L 380.514816 293.51808 
" style="fill:none;stroke:#000080;stroke-linecap:square;stroke-width:1.5;"/>
    <g>
     <use style="fill-opacity:0;stroke:#000080;stroke-width:1.5;" x="360.8064" xlink:href="#m3ea995989e" y="245.748706"/>
     <use style="fill-opacity:0;stroke:#000080;stroke-width:1.5;" x="380.514816" xlink:href="#m3ea995989e" y="293.51808"/>
    </g>
   </g>
   <g id="line2d_45">
    <path d="M 360.8064 27.648 
L 380.514816 163.296 
" style="fill:none;stroke:#ff00ff;stroke-linecap:square;stroke-width:1.5;"/>
    <g>
     <use style="fill-opacity:0;stroke:#ff00ff;stroke-linejoin:miter;stroke-width:1.5;" x="360.8064" xlink:href="#mbc3a1f668a" y="27.648"/>
     <use style="fill-opacity:0;stroke:#ff00ff;stroke-linejoin:miter;stroke-width:1.5;" x="380.514816" xlink:href="#mbc3a1f668a" y="163.296"/>
    </g>
   </g>
   <g id="line2d_46">
    <path d="M 360.8064 298.944 
L 360.8064 27.648 
" style="fill:none;stroke:#000000;stroke-linecap:square;stroke-width:1.5;"/>
   </g>
   <g id="patch_3">
    <path d="M 57.6 298.944 
L 360.8064 298.944 
" style="fill:none;stroke:#000000;stroke-linecap:square;stroke-linejoin:miter;stroke-width:0.8;"/>
   </g>
   <g id="patch_4">
    <path d="M 57.6 27.648 
L 360.8064 27.648 
" style="fill:none;stroke:#000000;stroke-linecap:square;stroke-linejoin:miter;stroke-width:0.8;"/>
   </g>
   <g id="text_13">
    <!-- different -->
    <g transform="translate(386.578944 297.381205)scale(0.14 -0.14)">
     <use xlink:href="#DejaVuSans-64"/>
     <use x="63.476562" xlink:href="#DejaVuSans-69"/>
     <use x="91.259766" xlink:href="#DejaVuSans-66"/>
     <use x="126.464844" xlink:href="#DejaVuSans-66"/>
     <use x="161.669922" xlink:href="#DejaVuSans-65"/>
     <use x="223.193359" xlink:href="#DejaVuSans-72"/>
     <use x="262.056641" xlink:href="#DejaVuSans-65"/>
     <use x="323.580078" xlink:href="#DejaVuSans-6e"/>
     <use x="386.958984" xlink:href="#DejaVuSans-74"/>
    </g>
   </g>
   <g id="text_14">
    <!-- cma.fmin  -->
    <g transform="translate(386.578944 167.159125)scale(0.14 -0.14)">
     <use xlink:href="#DejaVuSans-63"/>
     <use x="54.980469" xlink:href="#DejaVuSans-6d"/>
     <use x="152.392578" xlink:href="#DejaVuSans-61"/>
     <use x="213.671875" xlink:href="#DejaVuSans-2e"/>
     <use x="245.458984" xlink:href="#DejaVuSans-66"/>
     <use x="280.664062" xlink:href="#DejaVuSans-6d"/>
     <use x="378.076172" xlink:href="#DejaVuSans-69"/>
     <use x="405.859375" xlink:href="#DejaVuSans-6e"/>
     <use x="469.238281" xlink:href="#DejaVuSans-20"/>
    </g>
   </g>
   <g id="text_15">
    <!-- best 2009 -->
    <g transform="translate(386.578944 36.937045)scale(0.14 -0.14)">
     <defs>
      <path d="M 3116 1747 
Q 3116 2381 2855 2742 
Q 2594 3103 2138 3103 
Q 1681 3103 1420 2742 
Q 1159 2381 1159 1747 
Q 1159 1113 1420 752 
Q 1681 391 2138 391 
Q 2594 391 2855 752 
Q 3116 1113 3116 1747 
z
M 1159 2969 
Q 1341 3281 1617 3432 
Q 1894 3584 2278 3584 
Q 2916 3584 3314 3078 
Q 3713 2572 3713 1747 
Q 3713 922 3314 415 
Q 2916 -91 2278 -91 
Q 1894 -91 1617 61 
Q 1341 213 1159 525 
L 1159 0 
L 581 0 
L 581 4863 
L 1159 4863 
L 1159 2969 
z
" id="DejaVuSans-62" transform="scale(0.015625)"/>
      <path d="M 703 97 
L 703 672 
Q 941 559 1184 500 
Q 1428 441 1663 441 
Q 2288 441 2617 861 
Q 2947 1281 2994 2138 
Q 2813 1869 2534 1725 
Q 2256 1581 1919 1581 
Q 1219 1581 811 2004 
Q 403 2428 403 3163 
Q 403 3881 828 4315 
Q 1253 4750 1959 4750 
Q 2769 4750 3195 4129 
Q 3622 3509 3622 2328 
Q 3622 1225 3098 567 
Q 2575 -91 1691 -91 
Q 1453 -91 1209 -44 
Q 966 3 703 97 
z
M 1959 2075 
Q 2384 2075 2632 2365 
Q 2881 2656 2881 3163 
Q 2881 3666 2632 3958 
Q 2384 4250 1959 4250 
Q 1534 4250 1286 3958 
Q 1038 3666 1038 3163 
Q 1038 2656 1286 2365 
Q 1534 2075 1959 2075 
z
" id="DejaVuSans-39" transform="scale(0.015625)"/>
     </defs>
     <use xlink:href="#DejaVuSans-62"/>
     <use x="63.476562" xlink:href="#DejaVuSans-65"/>
     <use x="125" xlink:href="#DejaVuSans-73"/>
     <use x="177.099609" xlink:href="#DejaVuSans-74"/>
     <use x="216.308594" xlink:href="#DejaVuSans-20"/>
     <use x="248.095703" xlink:href="#DejaVuSans-32"/>
     <use x="311.71875" xlink:href="#DejaVuSans-30"/>
     <use x="375.341797" xlink:href="#DejaVuSans-30"/>
     <use x="438.964844" xlink:href="#DejaVuSans-39"/>
    </g>
   </g>
   <g id="text_16">
    <!-- bbob f12, 10-D -->
    <g transform="translate(60.632064 38.111366)scale(0.102 -0.102)">
     <defs>
      <path d="M 1259 4147 
L 1259 519 
L 2022 519 
Q 2988 519 3436 956 
Q 3884 1394 3884 2338 
Q 3884 3275 3436 3711 
Q 2988 4147 2022 4147 
L 1259 4147 
z
M 628 4666 
L 1925 4666 
Q 3281 4666 3915 4102 
Q 4550 3538 4550 2338 
Q 4550 1131 3912 565 
Q 3275 0 1925 0 
L 628 0 
L 628 4666 
z
" id="DejaVuSans-44" transform="scale(0.015625)"/>
     </defs>
     <use xlink:href="#DejaVuSans-62"/>
     <use x="63.476562" xlink:href="#DejaVuSans-62"/>
     <use x="126.953125" xlink:href="#DejaVuSans-6f"/>
     <use x="188.134766" xlink:href="#DejaVuSans-62"/>
     <use x="251.611328" xlink:href="#DejaVuSans-20"/>
     <use x="283.398438" xlink:href="#DejaVuSans-66"/>
     <use x="318.603516" xlink:href="#DejaVuSans-31"/>
     <use x="382.226562" xlink:href="#DejaVuSans-32"/>
     <use x="445.849609" xlink:href="#DejaVuSans-2c"/>
     <use x="477.636719" xlink:href="#DejaVuSans-20"/>
     <use x="509.423828" xlink:href="#DejaVuSans-31"/>
     <use x="573.046875" xlink:href="#DejaVuSans-30"/>
     <use x="636.669922" xlink:href="#DejaVuSans-2d"/>
     <use x="672.753906" xlink:href="#DejaVuSans-44"/>
    </g>
    <!-- 51 targets: 100..1e-08 -->
    <g transform="translate(60.632064 49.533135)scale(0.102 -0.102)">
     <defs>
      <path d="M 691 4666 
L 3169 4666 
L 3169 4134 
L 1269 4134 
L 1269 2991 
Q 1406 3038 1543 3061 
Q 1681 3084 1819 3084 
Q 2600 3084 3056 2656 
Q 3513 2228 3513 1497 
Q 3513 744 3044 326 
Q 2575 -91 1722 -91 
Q 1428 -91 1123 -41 
Q 819 9 494 109 
L 494 744 
Q 775 591 1075 516 
Q 1375 441 1709 441 
Q 2250 441 2565 725 
Q 2881 1009 2881 1497 
Q 2881 1984 2565 2268 
Q 2250 2553 1709 2553 
Q 1456 2553 1204 2497 
Q 953 2441 691 2322 
L 691 4666 
z
" id="DejaVuSans-35" transform="scale(0.015625)"/>
      <path d="M 750 794 
L 1409 794 
L 1409 0 
L 750 0 
L 750 794 
z
M 750 3309 
L 1409 3309 
L 1409 2516 
L 750 2516 
L 750 3309 
z
" id="DejaVuSans-3a" transform="scale(0.015625)"/>
     </defs>
     <use xlink:href="#DejaVuSans-35"/>
     <use x="63.623047" xlink:href="#DejaVuSans-31"/>
     <use x="127.246094" xlink:href="#DejaVuSans-20"/>
     <use x="159.033203" xlink:href="#DejaVuSans-74"/>
     <use x="198.242188" xlink:href="#DejaVuSans-61"/>
     <use x="259.521484" xlink:href="#DejaVuSans-72"/>
     <use x="298.884766" xlink:href="#DejaVuSans-67"/>
     <use x="362.361328" xlink:href="#DejaVuSans-65"/>
     <use x="423.884766" xlink:href="#DejaVuSans-74"/>
     <use x="463.09375" xlink:href="#DejaVuSans-73"/>
     <use x="515.193359" xlink:href="#DejaVuSans-3a"/>
     <use x="548.884766" xlink:href="#DejaVuSans-20"/>
     <use x="580.671875" xlink:href="#DejaVuSans-31"/>
     <use x="644.294922" xlink:href="#DejaVuSans-30"/>
     <use x="707.917969" xlink:href="#DejaVuSans-30"/>
     <use x="771.541016" xlink:href="#DejaVuSans-2e"/>
     <use x="803.328125" xlink:href="#DejaVuSans-2e"/>
     <use x="835.115234" xlink:href="#DejaVuSans-31"/>
     <use x="898.738281" xlink:href="#DejaVuSans-65"/>
     <use x="960.261719" xlink:href="#DejaVuSans-2d"/>
     <use x="996.345703" xlink:href="#DejaVuSans-30"/>
     <use x="1059.96875" xlink:href="#DejaVuSans-38"/>
    </g>
    <!-- 15 instances -->
    <g transform="translate(60.632064 60.954904)scale(0.102 -0.102)">
     <use xlink:href="#DejaVuSans-31"/>
     <use x="63.623047" xlink:href="#DejaVuSans-35"/>
     <use x="127.246094" xlink:href="#DejaVuSans-20"/>
     <use x="159.033203" xlink:href="#DejaVuSans-69"/>
     <use x="186.816406" xlink:href="#DejaVuSans-6e"/>
     <use x="250.195312" xlink:href="#DejaVuSans-73"/>
     <use x="302.294922" xlink:href="#DejaVuSans-74"/>
     <use x="341.503906" xlink:href="#DejaVuSans-61"/>
     <use x="402.783203" xlink:href="#DejaVuSans-6e"/>
     <use x="466.162109" xlink:href="#DejaVuSans-63"/>
     <use x="521.142578" xlink:href="#DejaVuSans-65"/>
     <use x="582.666016" xlink:href="#DejaVuSans-73"/>
    </g>
   </g>
   <g id="text_17">
    <!-- v2.6 -->
    <g style="fill:#808080;" transform="translate(198.292262 294.151352)scale(0.1 -0.1)">
     <use xlink:href="#DejaVuSans-76"/>
     <use x="59.179688" xlink:href="#DejaVuSans-32"/>
     <use x="122.802734" xlink:href="#DejaVuSans-2e"/>
     <use x="154.589844" xlink:href="#DejaVuSans-36"/>
    </g>
   </g>
   <g id="text_18">
    <!-- 12 Bent cigar -->
    <g transform="translate(141.986012 21.648)scale(0.2 -0.2)">
     <defs>
      <path d="M 1259 2228 
L 1259 519 
L 2272 519 
Q 2781 519 3026 730 
Q 3272 941 3272 1375 
Q 3272 1813 3026 2020 
Q 2781 2228 2272 2228 
L 1259 2228 
z
M 1259 4147 
L 1259 2741 
L 2194 2741 
Q 2656 2741 2882 2914 
Q 3109 3088 3109 3444 
Q 3109 3797 2882 3972 
Q 2656 4147 2194 4147 
L 1259 4147 
z
M 628 4666 
L 2241 4666 
Q 2963 4666 3353 4366 
Q 3744 4066 3744 3513 
Q 3744 3084 3544 2831 
Q 3344 2578 2956 2516 
Q 3422 2416 3680 2098 
Q 3938 1781 3938 1306 
Q 3938 681 3513 340 
Q 3088 0 2303 0 
L 628 0 
L 628 4666 
z
" id="DejaVuSans-42" transform="scale(0.015625)"/>
     </defs>
     <use xlink:href="#DejaVuSans-31"/>
     <use x="63.623047" xlink:href="#DejaVuSans-32"/>
     <use x="127.246094" xlink:href="#DejaVuSans-20"/>
     <use x="159.033203" xlink:href="#DejaVuSans-42"/>
     <use x="227.636719" xlink:href="#DejaVuSans-65"/>
     <use x="289.160156" xlink:href="#DejaVuSans-6e"/>
     <use x="352.539062" xlink:href="#DejaVuSans-74"/>
     <use x="391.748047" xlink:href="#DejaVuSans-20"/>
     <use x="423.535156" xlink:href="#DejaVuSans-63"/>
     <use x="478.515625" xlink:href="#DejaVuSans-69"/>
     <use x="506.298828" xlink:href="#DejaVuSans-67"/>
     <use x="569.775391" xlink:href="#DejaVuSans-61"/>
     <use x="631.054688" xlink:href="#DejaVuSans-72"/>
    </g>
   </g>
  </g>
 </g>
 <defs>
  <clipPath id="pa2ae8b4b11">
   <rect height="271.296" width="303.2064" x="57.6" y="27.648"/>
  </clipPath>
 </defs>
</svg>
